<?xml version="1.0" encoding="UTF-8" standalone="no"?>
<!DOCTYPE svg PUBLIC "-//W3C//DTD SVG 1.1//EN"
 "http://www.w3.org/Graphics/SVG/1.1/DTD/svg11.dtd">
<!-- Generated by graphviz version 2.43.0 (0)
 -->
<!-- Title: src/Kernel/Math/ArrOfBit.cpp Pages: 1 -->
<svg width="645pt" height="364pt"
 viewBox="0.00 0.00 645.48 364.00" xmlns="http://www.w3.org/2000/svg" xmlns:xlink="http://www.w3.org/1999/xlink">
<g id="graph0" class="graph" transform="scale(1 1) rotate(0) translate(4 360)">
<title>src/Kernel/Math/ArrOfBit.cpp</title>
<polygon fill="white" stroke="transparent" points="-4,4 -4,-360 641.48,-360 641.48,4 -4,4"/>
<!-- Node1 -->
<g id="node1" class="node">
<title>Node1</title>
<g id="a_node1"><a xlink:title=" ">
<polygon fill="#bfbfbf" stroke="black" points="44.5,-336.5 44.5,-355.5 199.5,-355.5 199.5,-336.5 44.5,-336.5"/>
<text text-anchor="middle" x="122" y="-343.5" font-family="Helvetica,sans-Serif" font-size="10.00">src/Kernel/Math/ArrOfBit.cpp</text>
</a>
</g>
</g>
<!-- Node2 -->
<g id="node2" class="node">
<title>Node2</title>
<g id="a_node2"><a xlink:href="ArrOfBit_8h.html" target="_top" xlink:title=" ">
<polygon fill="white" stroke="black" points="51.5,-280.5 51.5,-299.5 116.5,-299.5 116.5,-280.5 51.5,-280.5"/>
<text text-anchor="middle" x="84" y="-287.5" font-family="Helvetica,sans-Serif" font-size="10.00">ArrOfBit.h</text>
</a>
</g>
</g>
<!-- Node1&#45;&gt;Node2 -->
<g id="edge1" class="edge">
<title>Node1&#45;&gt;Node2</title>
<path fill="none" stroke="midnightblue" d="M115.73,-336.08C110.36,-328.46 102.48,-317.26 95.92,-307.94"/>
<polygon fill="midnightblue" stroke="midnightblue" points="98.78,-305.91 90.16,-299.75 93.05,-309.94 98.78,-305.91"/>
</g>
<!-- Node21 -->
<g id="node21" class="node">
<title>Node21</title>
<g id="a_node21"><a xlink:title=" ">
<polygon fill="white" stroke="#bfbfbf" points="135,-280.5 135,-299.5 185,-299.5 185,-280.5 135,-280.5"/>
<text text-anchor="middle" x="160" y="-287.5" font-family="Helvetica,sans-Serif" font-size="10.00">cstring</text>
</a>
</g>
</g>
<!-- Node1&#45;&gt;Node21 -->
<g id="edge27" class="edge">
<title>Node1&#45;&gt;Node21</title>
<path fill="none" stroke="midnightblue" d="M128.27,-336.08C133.64,-328.46 141.52,-317.26 148.08,-307.94"/>
<polygon fill="midnightblue" stroke="midnightblue" points="150.95,-309.94 153.84,-299.75 145.22,-305.91 150.95,-309.94"/>
</g>
<!-- Node3 -->
<g id="node3" class="node">
<title>Node3</title>
<g id="a_node3"><a xlink:title=" ">
<polygon fill="white" stroke="#bfbfbf" points="0,-56.5 0,-75.5 56,-75.5 56,-56.5 0,-56.5"/>
<text text-anchor="middle" x="28" y="-63.5" font-family="Helvetica,sans-Serif" font-size="10.00">assert.h</text>
</a>
</g>
</g>
<!-- Node2&#45;&gt;Node3 -->
<g id="edge2" class="edge">
<title>Node2&#45;&gt;Node3</title>
<path fill="none" stroke="midnightblue" d="M80.5,-280.32C71.2,-256.87 45.77,-190.03 34,-132 30.9,-116.71 29.4,-99.07 28.67,-86.02"/>
<polygon fill="midnightblue" stroke="midnightblue" points="32.16,-85.75 28.21,-75.92 25.17,-86.07 32.16,-85.75"/>
</g>
<!-- Node4 -->
<g id="node4" class="node">
<title>Node4</title>
<g id="a_node4"><a xlink:href="Objet__U_8h.html" target="_top" xlink:title=" ">
<polygon fill="white" stroke="black" points="146.5,-224.5 146.5,-243.5 211.5,-243.5 211.5,-224.5 146.5,-224.5"/>
<text text-anchor="middle" x="179" y="-231.5" font-family="Helvetica,sans-Serif" font-size="10.00">Objet_U.h</text>
</a>
</g>
</g>
<!-- Node2&#45;&gt;Node4 -->
<g id="edge3" class="edge">
<title>Node2&#45;&gt;Node4</title>
<path fill="none" stroke="midnightblue" d="M99.26,-280.32C114.22,-271.82 137.25,-258.73 154.73,-248.8"/>
<polygon fill="midnightblue" stroke="midnightblue" points="156.81,-251.64 163.77,-243.65 153.35,-245.55 156.81,-251.64"/>
</g>
<!-- Node4&#45;&gt;Node3 -->
<g id="edge4" class="edge">
<title>Node4&#45;&gt;Node3</title>
<path fill="none" stroke="midnightblue" d="M161.6,-224.4C133.28,-209.52 77.35,-176.27 47,-132 37.55,-118.21 32.73,-99.69 30.32,-85.94"/>
<polygon fill="midnightblue" stroke="midnightblue" points="33.74,-85.11 28.81,-75.73 26.81,-86.13 33.74,-85.11"/>
</g>
<!-- Node5 -->
<g id="node5" class="node">
<title>Node5</title>
<g id="a_node5"><a xlink:href="DecBaseInst_8h.html" target="_top" xlink:title=" ">
<polygon fill="white" stroke="black" points="428,-168.5 428,-187.5 514,-187.5 514,-168.5 428,-168.5"/>
<text text-anchor="middle" x="471" y="-175.5" font-family="Helvetica,sans-Serif" font-size="10.00">DecBaseInst.h</text>
</a>
</g>
</g>
<!-- Node4&#45;&gt;Node5 -->
<g id="edge5" class="edge">
<title>Node4&#45;&gt;Node5</title>
<path fill="none" stroke="midnightblue" d="M211.65,-226.96C261.59,-217.73 357.48,-199.99 417.63,-188.87"/>
<polygon fill="midnightblue" stroke="midnightblue" points="418.5,-192.27 427.7,-187.01 417.23,-185.38 418.5,-192.27"/>
</g>
<!-- Node10 -->
<g id="node10" class="node">
<title>Node10</title>
<g id="a_node10"><a xlink:href="EntreeSortie_8h.html" target="_top" xlink:title=" ">
<polygon fill="white" stroke="black" points="136,-168.5 136,-187.5 222,-187.5 222,-168.5 136,-168.5"/>
<text text-anchor="middle" x="179" y="-175.5" font-family="Helvetica,sans-Serif" font-size="10.00">EntreeSortie.h</text>
</a>
</g>
</g>
<!-- Node4&#45;&gt;Node10 -->
<g id="edge11" class="edge">
<title>Node4&#45;&gt;Node10</title>
<path fill="none" stroke="midnightblue" d="M179,-224.08C179,-217.01 179,-206.86 179,-197.99"/>
<polygon fill="midnightblue" stroke="midnightblue" points="182.5,-197.75 179,-187.75 175.5,-197.75 182.5,-197.75"/>
</g>
<!-- Node15 -->
<g id="node15" class="node">
<title>Node15</title>
<g id="a_node15"><a xlink:href="Process_8h.html" target="_top" xlink:title=" ">
<polygon fill="white" stroke="black" points="412.5,-56.5 412.5,-75.5 475.5,-75.5 475.5,-56.5 412.5,-56.5"/>
<text text-anchor="middle" x="444" y="-63.5" font-family="Helvetica,sans-Serif" font-size="10.00">Process.h</text>
</a>
</g>
</g>
<!-- Node4&#45;&gt;Node15 -->
<g id="edge26" class="edge">
<title>Node4&#45;&gt;Node15</title>
<path fill="none" stroke="midnightblue" d="M188.85,-224.39C217.14,-199.76 298.62,-129.64 329,-112 353.07,-98.03 382.29,-86.66 405.26,-78.84"/>
<polygon fill="midnightblue" stroke="midnightblue" points="406.61,-82.08 415,-75.61 404.41,-75.44 406.61,-82.08"/>
</g>
<!-- Node6 -->
<g id="node6" class="node">
<title>Node6</title>
<g id="a_node6"><a xlink:href="Cast_8h.html" target="_top" xlink:title=" ">
<polygon fill="white" stroke="black" points="560.5,-56.5 560.5,-75.5 607.5,-75.5 607.5,-56.5 560.5,-56.5"/>
<text text-anchor="middle" x="584" y="-63.5" font-family="Helvetica,sans-Serif" font-size="10.00">Cast.h</text>
</a>
</g>
</g>
<!-- Node5&#45;&gt;Node6 -->
<g id="edge6" class="edge">
<title>Node5&#45;&gt;Node6</title>
<path fill="none" stroke="midnightblue" d="M514.3,-170.93C557.24,-163.92 618.65,-150.88 633,-132 646.15,-114.69 625.81,-94.72 607.47,-81.53"/>
<polygon fill="midnightblue" stroke="midnightblue" points="609.03,-78.35 598.79,-75.64 605.1,-84.15 609.03,-78.35"/>
</g>
<!-- Node7 -->
<g id="node7" class="node">
<title>Node7</title>
<g id="a_node7"><a xlink:href="Type__info_8h.html" target="_top" xlink:title=" ">
<polygon fill="white" stroke="black" points="338,-112.5 338,-131.5 410,-131.5 410,-112.5 338,-112.5"/>
<text text-anchor="middle" x="374" y="-119.5" font-family="Helvetica,sans-Serif" font-size="10.00">Type_info.h</text>
</a>
</g>
</g>
<!-- Node5&#45;&gt;Node7 -->
<g id="edge7" class="edge">
<title>Node5&#45;&gt;Node7</title>
<path fill="none" stroke="midnightblue" d="M455.42,-168.32C440,-159.74 416.19,-146.49 398.29,-136.52"/>
<polygon fill="midnightblue" stroke="midnightblue" points="399.99,-133.46 389.55,-131.65 396.58,-139.58 399.99,-133.46"/>
</g>
<!-- Node8 -->
<g id="node8" class="node">
<title>Node8</title>
<g id="a_node8"><a xlink:href="Declare__Base_8h.html" target="_top" xlink:title=" ">
<polygon fill="white" stroke="black" points="532,-112.5 532,-131.5 624,-131.5 624,-112.5 532,-112.5"/>
<text text-anchor="middle" x="578" y="-119.5" font-family="Helvetica,sans-Serif" font-size="10.00">Declare_Base.h</text>
</a>
</g>
</g>
<!-- Node5&#45;&gt;Node8 -->
<g id="edge8" class="edge">
<title>Node5&#45;&gt;Node8</title>
<path fill="none" stroke="midnightblue" d="M488.19,-168.32C505.35,-159.66 531.95,-146.24 551.75,-136.25"/>
<polygon fill="midnightblue" stroke="midnightblue" points="553.5,-139.28 560.85,-131.65 550.35,-133.04 553.5,-139.28"/>
</g>
<!-- Node9 -->
<g id="node9" class="node">
<title>Node9</title>
<g id="a_node9"><a xlink:href="Declare__Inst_8h.html" target="_top" xlink:title=" ">
<polygon fill="white" stroke="black" points="428,-112.5 428,-131.5 514,-131.5 514,-112.5 428,-112.5"/>
<text text-anchor="middle" x="471" y="-119.5" font-family="Helvetica,sans-Serif" font-size="10.00">Declare_Inst.h</text>
</a>
</g>
</g>
<!-- Node5&#45;&gt;Node9 -->
<g id="edge9" class="edge">
<title>Node5&#45;&gt;Node9</title>
<path fill="none" stroke="midnightblue" d="M471,-168.08C471,-161.01 471,-150.86 471,-141.99"/>
<polygon fill="midnightblue" stroke="midnightblue" points="474.5,-141.75 471,-131.75 467.5,-141.75 474.5,-141.75"/>
</g>
<!-- Node9&#45;&gt;Node6 -->
<g id="edge10" class="edge">
<title>Node9&#45;&gt;Node6</title>
<path fill="none" stroke="midnightblue" d="M488.91,-112.44C507.25,-103.68 536.01,-89.94 557.09,-79.86"/>
<polygon fill="midnightblue" stroke="midnightblue" points="558.67,-82.99 566.18,-75.52 555.65,-76.67 558.67,-82.99"/>
</g>
<!-- Node11 -->
<g id="node11" class="node">
<title>Node11</title>
<g id="a_node11"><a xlink:href="Entree_8h.html" target="_top" xlink:title=" ">
<polygon fill="white" stroke="black" points="224.5,-112.5 224.5,-131.5 281.5,-131.5 281.5,-112.5 224.5,-112.5"/>
<text text-anchor="middle" x="253" y="-119.5" font-family="Helvetica,sans-Serif" font-size="10.00">Entree.h</text>
</a>
</g>
</g>
<!-- Node10&#45;&gt;Node11 -->
<g id="edge12" class="edge">
<title>Node10&#45;&gt;Node11</title>
<path fill="none" stroke="midnightblue" d="M190.89,-168.32C202.15,-160.11 219.29,-147.6 232.71,-137.81"/>
<polygon fill="midnightblue" stroke="midnightblue" points="234.88,-140.56 240.89,-131.83 230.75,-134.9 234.88,-140.56"/>
</g>
<!-- Node18 -->
<g id="node18" class="node">
<title>Node18</title>
<g id="a_node18"><a xlink:href="Sortie_8h.html" target="_top" xlink:title=" ">
<polygon fill="white" stroke="black" points="152,-112.5 152,-131.5 206,-131.5 206,-112.5 152,-112.5"/>
<text text-anchor="middle" x="179" y="-119.5" font-family="Helvetica,sans-Serif" font-size="10.00">Sortie.h</text>
</a>
</g>
</g>
<!-- Node10&#45;&gt;Node18 -->
<g id="edge20" class="edge">
<title>Node10&#45;&gt;Node18</title>
<path fill="none" stroke="midnightblue" d="M179,-168.08C179,-161.01 179,-150.86 179,-141.99"/>
<polygon fill="midnightblue" stroke="midnightblue" points="182.5,-141.75 179,-131.75 175.5,-141.75 182.5,-141.75"/>
</g>
<!-- Node20 -->
<g id="node20" class="node">
<title>Node20</title>
<g id="a_node20"><a xlink:href="Separateur_8h.html" target="_top" xlink:title=" ">
<polygon fill="white" stroke="black" points="56,-112.5 56,-131.5 134,-131.5 134,-112.5 56,-112.5"/>
<text text-anchor="middle" x="95" y="-119.5" font-family="Helvetica,sans-Serif" font-size="10.00">Separateur.h</text>
</a>
</g>
</g>
<!-- Node10&#45;&gt;Node20 -->
<g id="edge25" class="edge">
<title>Node10&#45;&gt;Node20</title>
<path fill="none" stroke="midnightblue" d="M165.5,-168.32C152.4,-159.9 132.29,-146.97 116.89,-137.07"/>
<polygon fill="midnightblue" stroke="midnightblue" points="118.77,-134.12 108.46,-131.65 114.98,-140.01 118.77,-134.12"/>
</g>
<!-- Node11&#45;&gt;Node3 -->
<g id="edge16" class="edge">
<title>Node11&#45;&gt;Node3</title>
<path fill="none" stroke="midnightblue" d="M224.33,-114.17C189.33,-105.83 128.07,-91.2 66.21,-76.29"/>
<polygon fill="midnightblue" stroke="midnightblue" points="66.82,-72.83 56.28,-73.89 65.18,-79.64 66.82,-72.83"/>
</g>
<!-- Node12 -->
<g id="node12" class="node">
<title>Node12</title>
<g id="a_node12"><a xlink:title=" ">
<polygon fill="white" stroke="#bfbfbf" points="280,-56.5 280,-75.5 330,-75.5 330,-56.5 280,-56.5"/>
<text text-anchor="middle" x="305" y="-63.5" font-family="Helvetica,sans-Serif" font-size="10.00">stdio.h</text>
</a>
</g>
</g>
<!-- Node11&#45;&gt;Node12 -->
<g id="edge13" class="edge">
<title>Node11&#45;&gt;Node12</title>
<path fill="none" stroke="midnightblue" d="M261.59,-112.08C269.16,-104.22 280.38,-92.57 289.51,-83.08"/>
<polygon fill="midnightblue" stroke="midnightblue" points="292.16,-85.38 296.57,-75.75 287.12,-80.53 292.16,-85.38"/>
</g>
<!-- Node13 -->
<g id="node13" class="node">
<title>Node13</title>
<g id="a_node13"><a xlink:title=" ">
<polygon fill="white" stroke="#bfbfbf" points="348,-56.5 348,-75.5 394,-75.5 394,-56.5 348,-56.5"/>
<text text-anchor="middle" x="371" y="-63.5" font-family="Helvetica,sans-Serif" font-size="10.00">cstdio</text>
</a>
</g>
</g>
<!-- Node11&#45;&gt;Node13 -->
<g id="edge14" class="edge">
<title>Node11&#45;&gt;Node13</title>
<path fill="none" stroke="midnightblue" d="M271.7,-112.44C290.94,-103.64 321.15,-89.81 343.2,-79.72"/>
<polygon fill="midnightblue" stroke="midnightblue" points="344.75,-82.86 352.39,-75.52 341.84,-76.5 344.75,-82.86"/>
</g>
<!-- Node14 -->
<g id="node14" class="node">
<title>Node14</title>
<g id="a_node14"><a xlink:title=" ">
<polygon fill="white" stroke="#bfbfbf" points="202,-56.5 202,-75.5 262,-75.5 262,-56.5 202,-56.5"/>
<text text-anchor="middle" x="232" y="-63.5" font-family="Helvetica,sans-Serif" font-size="10.00">iostream</text>
</a>
</g>
</g>
<!-- Node11&#45;&gt;Node14 -->
<g id="edge15" class="edge">
<title>Node11&#45;&gt;Node14</title>
<path fill="none" stroke="midnightblue" d="M249.53,-112.08C246.69,-104.77 242.57,-94.18 239.04,-85.1"/>
<polygon fill="midnightblue" stroke="midnightblue" points="242.29,-83.8 235.4,-75.75 235.77,-86.34 242.29,-83.8"/>
</g>
<!-- Node11&#45;&gt;Node15 -->
<g id="edge17" class="edge">
<title>Node11&#45;&gt;Node15</title>
<path fill="none" stroke="midnightblue" d="M281.59,-112.92C314.03,-103.74 367.16,-88.72 403.77,-78.37"/>
<polygon fill="midnightblue" stroke="midnightblue" points="404.96,-81.68 413.63,-75.59 403.05,-74.94 404.96,-81.68"/>
</g>
<!-- Node16 -->
<g id="node16" class="node">
<title>Node16</title>
<g id="a_node16"><a xlink:href="arch_8h.html" target="_top" xlink:title=" ">
<polygon fill="white" stroke="black" points="136.5,-56.5 136.5,-75.5 183.5,-75.5 183.5,-56.5 136.5,-56.5"/>
<text text-anchor="middle" x="160" y="-63.5" font-family="Helvetica,sans-Serif" font-size="10.00">arch.h</text>
</a>
</g>
</g>
<!-- Node11&#45;&gt;Node16 -->
<g id="edge18" class="edge">
<title>Node11&#45;&gt;Node16</title>
<path fill="none" stroke="midnightblue" d="M238.06,-112.32C223.41,-103.82 200.87,-90.73 183.76,-80.8"/>
<polygon fill="midnightblue" stroke="midnightblue" points="185.31,-77.65 174.9,-75.65 181.8,-83.7 185.31,-77.65"/>
</g>
<!-- Node17 -->
<g id="node17" class="node">
<title>Node17</title>
<g id="a_node17"><a xlink:href="generique_8h.html" target="_top" xlink:title=" ">
<polygon fill="white" stroke="black" points="123,-0.5 123,-19.5 197,-19.5 197,-0.5 123,-0.5"/>
<text text-anchor="middle" x="160" y="-7.5" font-family="Helvetica,sans-Serif" font-size="10.00">generique.h</text>
</a>
</g>
</g>
<!-- Node16&#45;&gt;Node17 -->
<g id="edge19" class="edge">
<title>Node16&#45;&gt;Node17</title>
<path fill="none" stroke="midnightblue" d="M160,-56.08C160,-49.01 160,-38.86 160,-29.99"/>
<polygon fill="midnightblue" stroke="midnightblue" points="163.5,-29.75 160,-19.75 156.5,-29.75 163.5,-29.75"/>
</g>
<!-- Node18&#45;&gt;Node3 -->
<g id="edge22" class="edge">
<title>Node18&#45;&gt;Node3</title>
<path fill="none" stroke="midnightblue" d="M155.07,-112.44C129.78,-103.4 89.7,-89.06 61.32,-78.92"/>
<polygon fill="midnightblue" stroke="midnightblue" points="62.41,-75.59 51.81,-75.52 60.05,-82.18 62.41,-75.59"/>
</g>
<!-- Node18&#45;&gt;Node14 -->
<g id="edge21" class="edge">
<title>Node18&#45;&gt;Node14</title>
<path fill="none" stroke="midnightblue" d="M187.75,-112.08C195.47,-104.22 206.9,-92.57 216.22,-83.08"/>
<polygon fill="midnightblue" stroke="midnightblue" points="218.9,-85.34 223.41,-75.75 213.91,-80.44 218.9,-85.34"/>
</g>
<!-- Node18&#45;&gt;Node16 -->
<g id="edge23" class="edge">
<title>Node18&#45;&gt;Node16</title>
<path fill="none" stroke="midnightblue" d="M175.86,-112.08C173.32,-104.85 169.64,-94.41 166.47,-85.4"/>
<polygon fill="midnightblue" stroke="midnightblue" points="169.7,-84.02 163.08,-75.75 163.1,-86.35 169.7,-84.02"/>
</g>
<!-- Node19 -->
<g id="node19" class="node">
<title>Node19</title>
<g id="a_node19"><a xlink:title=" ">
<polygon fill="white" stroke="#bfbfbf" points="74,-56.5 74,-75.5 118,-75.5 118,-56.5 74,-56.5"/>
<text text-anchor="middle" x="96" y="-63.5" font-family="Helvetica,sans-Serif" font-size="10.00">string</text>
</a>
</g>
</g>
<!-- Node18&#45;&gt;Node19 -->
<g id="edge24" class="edge">
<title>Node18&#45;&gt;Node19</title>
<path fill="none" stroke="midnightblue" d="M165.66,-112.32C152.84,-103.98 133.22,-91.21 118.06,-81.35"/>
<polygon fill="midnightblue" stroke="midnightblue" points="119.59,-78.17 109.3,-75.65 115.78,-84.04 119.59,-78.17"/>
</g>
</g>
</svg>
