<?xml version="1.0" encoding="UTF-8" standalone="no"?>
<!DOCTYPE svg PUBLIC "-//W3C//DTD SVG 1.1//EN"
 "http://www.w3.org/Graphics/SVG/1.1/DTD/svg11.dtd">
<!-- Generated by graphviz version 2.43.0 (0)
 -->
<!-- Title: src/Kernel/Framework/Ch_front_var_instationnaire_indep.h Pages: 1 -->
<svg width="1582pt" height="295pt"
 viewBox="0.00 0.00 1581.50 295.00" xmlns="http://www.w3.org/2000/svg" xmlns:xlink="http://www.w3.org/1999/xlink">
<g id="graph0" class="graph" transform="scale(1 1) rotate(0) translate(4 291)">
<title>src/Kernel/Framework/Ch_front_var_instationnaire_indep.h</title>
<polygon fill="white" stroke="transparent" points="-4,4 -4,-291 1577.5,-291 1577.5,4 -4,4"/>
<!-- Node1 -->
<g id="node1" class="node">
<title>Node1</title>
<g id="a_node1"><a xlink:title=" ">
<polygon fill="#bfbfbf" stroke="black" points="872,-245.5 872,-286.5 1027,-286.5 1027,-245.5 872,-245.5"/>
<text text-anchor="start" x="880" y="-274.5" font-family="Helvetica,sans-Serif" font-size="10.00">src/Kernel/Framework</text>
<text text-anchor="start" x="880" y="-263.5" font-family="Helvetica,sans-Serif" font-size="10.00">/Ch_front_var_instationnaire</text>
<text text-anchor="middle" x="949.5" y="-252.5" font-family="Helvetica,sans-Serif" font-size="10.00">_indep.h</text>
</a>
</g>
</g>
<!-- Node2 -->
<g id="node2" class="node">
<title>Node2</title>
<g id="a_node2"><a xlink:href="Champ__front__bruite_8h.html" target="_top" xlink:title=" ">
<polygon fill="white" stroke="black" points="82,-167.5 82,-197.5 227,-197.5 227,-167.5 82,-167.5"/>
<text text-anchor="start" x="90" y="-185.5" font-family="Helvetica,sans-Serif" font-size="10.00">src/Kernel/Champs/Champ</text>
<text text-anchor="middle" x="154.5" y="-174.5" font-family="Helvetica,sans-Serif" font-size="10.00">_front_bruite.h</text>
</a>
</g>
</g>
<!-- Node1&#45;&gt;Node2 -->
<g id="edge1" class="edge">
<title>Node1&#45;&gt;Node2</title>
<path fill="none" stroke="midnightblue" d="M861.79,-259.13C739.41,-250.51 510.61,-232.84 316.5,-209 287.25,-205.41 255.17,-200.55 227.33,-196.04"/>
<polygon fill="midnightblue" stroke="midnightblue" points="861.63,-262.63 871.85,-259.84 862.12,-255.65 861.63,-262.63"/>
</g>
<!-- Node4 -->
<g id="node4" class="node">
<title>Node4</title>
<g id="a_node4"><a xlink:href="Champ__front__t_8h.html" target="_top" xlink:title=" ">
<polygon fill="white" stroke="black" points="326,-167.5 326,-197.5 471,-197.5 471,-167.5 326,-167.5"/>
<text text-anchor="start" x="334" y="-185.5" font-family="Helvetica,sans-Serif" font-size="10.00">src/Kernel/Champs/Champ</text>
<text text-anchor="middle" x="398.5" y="-174.5" font-family="Helvetica,sans-Serif" font-size="10.00">_front_t.h</text>
</a>
</g>
</g>
<!-- Node1&#45;&gt;Node4 -->
<g id="edge3" class="edge">
<title>Node1&#45;&gt;Node4</title>
<path fill="none" stroke="midnightblue" d="M861.81,-252.03C753.64,-236.03 571.75,-209.13 471.05,-194.23"/>
<polygon fill="midnightblue" stroke="midnightblue" points="861.32,-255.49 871.72,-253.5 862.34,-248.57 861.32,-255.49"/>
</g>
<!-- Node7 -->
<g id="node7" class="node">
<title>Node7</title>
<g id="a_node7"><a xlink:href="Champ__front__txyz_8h.html" target="_top" xlink:title=" ">
<polygon fill="white" stroke="black" points="793,-167.5 793,-197.5 938,-197.5 938,-167.5 793,-167.5"/>
<text text-anchor="start" x="801" y="-185.5" font-family="Helvetica,sans-Serif" font-size="10.00">src/Kernel/Champs/Champ</text>
<text text-anchor="middle" x="865.5" y="-174.5" font-family="Helvetica,sans-Serif" font-size="10.00">_front_txyz.h</text>
</a>
</g>
</g>
<!-- Node1&#45;&gt;Node7 -->
<g id="edge6" class="edge">
<title>Node1&#45;&gt;Node7</title>
<path fill="none" stroke="midnightblue" d="M921.73,-238.06C907.83,-224.57 891.57,-208.79 880.12,-197.68"/>
<polygon fill="midnightblue" stroke="midnightblue" points="919.55,-240.82 929.17,-245.27 924.43,-235.8 919.55,-240.82"/>
</g>
<!-- Node15 -->
<g id="node15" class="node">
<title>Node15</title>
<g id="a_node15"><a xlink:href="Ch__front__var__instationnaire__indep_8cpp.html" target="_top" xlink:title=" ">
<polygon fill="white" stroke="black" points="956,-162 956,-203 1111,-203 1111,-162 956,-162"/>
<text text-anchor="start" x="964" y="-191" font-family="Helvetica,sans-Serif" font-size="10.00">src/Kernel/Framework</text>
<text text-anchor="start" x="964" y="-180" font-family="Helvetica,sans-Serif" font-size="10.00">/Ch_front_var_instationnaire</text>
<text text-anchor="middle" x="1033.5" y="-169" font-family="Helvetica,sans-Serif" font-size="10.00">_indep.cpp</text>
</a>
</g>
</g>
<!-- Node1&#45;&gt;Node15 -->
<g id="edge14" class="edge">
<title>Node1&#45;&gt;Node15</title>
<path fill="none" stroke="midnightblue" d="M977.29,-238.04C989.07,-226.6 1002.55,-213.53 1013.35,-203.05"/>
<polygon fill="midnightblue" stroke="midnightblue" points="974.57,-235.8 969.83,-245.27 979.45,-240.82 974.57,-235.8"/>
</g>
<!-- Node16 -->
<g id="node16" class="node">
<title>Node16</title>
<g id="a_node16"><a xlink:href="Champ__front__debit__QC_8h.html" target="_top" xlink:title=" ">
<polygon fill="white" stroke="black" points="1192.5,-162 1192.5,-203 1356.5,-203 1356.5,-162 1192.5,-162"/>
<text text-anchor="start" x="1200.5" y="-191" font-family="Helvetica,sans-Serif" font-size="10.00">src/ThHyd/Dilatable</text>
<text text-anchor="start" x="1200.5" y="-180" font-family="Helvetica,sans-Serif" font-size="10.00">/Quasi_Compressible</text>
<text text-anchor="middle" x="1274.5" y="-169" font-family="Helvetica,sans-Serif" font-size="10.00">/VDF/Champ_front_debit_QC.h</text>
</a>
</g>
</g>
<!-- Node1&#45;&gt;Node16 -->
<g id="edge15" class="edge">
<title>Node1&#45;&gt;Node16</title>
<path fill="none" stroke="midnightblue" d="M1037.13,-243.02C1086.91,-230.54 1148.68,-215.05 1196.73,-203"/>
<polygon fill="midnightblue" stroke="midnightblue" points="1036.19,-239.65 1027.35,-245.48 1037.9,-246.44 1036.19,-239.65"/>
</g>
<!-- Node18 -->
<g id="node18" class="node">
<title>Node18</title>
<g id="a_node18"><a xlink:href="Champ__front__debit__QC__fonc__t_8h.html" target="_top" xlink:title=" ">
<polygon fill="white" stroke="black" points="1405.5,-156.5 1405.5,-208.5 1541.5,-208.5 1541.5,-156.5 1405.5,-156.5"/>
<text text-anchor="start" x="1413.5" y="-196.5" font-family="Helvetica,sans-Serif" font-size="10.00">src/ThHyd/Dilatable</text>
<text text-anchor="start" x="1413.5" y="-185.5" font-family="Helvetica,sans-Serif" font-size="10.00">/Quasi_Compressible</text>
<text text-anchor="start" x="1413.5" y="-174.5" font-family="Helvetica,sans-Serif" font-size="10.00">/VDF/Champ_front_debit</text>
<text text-anchor="middle" x="1473.5" y="-163.5" font-family="Helvetica,sans-Serif" font-size="10.00">_QC_fonc_t.h</text>
</a>
</g>
</g>
<!-- Node1&#45;&gt;Node18 -->
<g id="edge17" class="edge">
<title>Node1&#45;&gt;Node18</title>
<path fill="none" stroke="midnightblue" d="M1037.36,-255.71C1121.83,-246.18 1252.91,-229.82 1365.5,-209 1378.48,-206.6 1392.24,-203.66 1405.44,-200.64"/>
<polygon fill="midnightblue" stroke="midnightblue" points="1036.85,-252.24 1027.3,-256.83 1037.63,-259.2 1036.85,-252.24"/>
</g>
<!-- Node3 -->
<g id="node3" class="node">
<title>Node3</title>
<g id="a_node3"><a xlink:href="Champ__front__bruite_8cpp.html" target="_top" xlink:title=" ">
<polygon fill="white" stroke="black" points="0,-78.5 0,-108.5 145,-108.5 145,-78.5 0,-78.5"/>
<text text-anchor="start" x="8" y="-96.5" font-family="Helvetica,sans-Serif" font-size="10.00">src/Kernel/Champs/Champ</text>
<text text-anchor="middle" x="72.5" y="-85.5" font-family="Helvetica,sans-Serif" font-size="10.00">_front_bruite.cpp</text>
</a>
</g>
</g>
<!-- Node2&#45;&gt;Node3 -->
<g id="edge2" class="edge">
<title>Node2&#45;&gt;Node3</title>
<path fill="none" stroke="midnightblue" d="M134.01,-159.76C118.91,-143.74 98.83,-122.44 85.79,-108.6"/>
<polygon fill="midnightblue" stroke="midnightblue" points="131.55,-162.26 140.96,-167.13 136.65,-157.46 131.55,-162.26"/>
</g>
<!-- Node5 -->
<g id="node5" class="node">
<title>Node5</title>
<g id="a_node5"><a xlink:href="Champ__front__t_8cpp.html" target="_top" xlink:title=" ">
<polygon fill="white" stroke="black" points="163,-78.5 163,-108.5 308,-108.5 308,-78.5 163,-78.5"/>
<text text-anchor="start" x="171" y="-96.5" font-family="Helvetica,sans-Serif" font-size="10.00">src/Kernel/Champs/Champ</text>
<text text-anchor="middle" x="235.5" y="-85.5" font-family="Helvetica,sans-Serif" font-size="10.00">_front_t.cpp</text>
</a>
</g>
</g>
<!-- Node4&#45;&gt;Node5 -->
<g id="edge4" class="edge">
<title>Node4&#45;&gt;Node5</title>
<path fill="none" stroke="midnightblue" d="M362.93,-162.51C332.44,-146.24 289.21,-123.17 261.77,-108.52"/>
<polygon fill="midnightblue" stroke="midnightblue" points="361.48,-165.71 371.95,-167.33 364.77,-159.53 361.48,-165.71"/>
</g>
<!-- Node6 -->
<g id="node6" class="node">
<title>Node6</title>
<g id="a_node6"><a xlink:href="Champ__front__xyz__debit_8cpp.html" target="_top" xlink:title=" ">
<polygon fill="white" stroke="black" points="326,-78.5 326,-108.5 471,-108.5 471,-78.5 326,-78.5"/>
<text text-anchor="start" x="334" y="-96.5" font-family="Helvetica,sans-Serif" font-size="10.00">src/Kernel/Champs/Champ</text>
<text text-anchor="middle" x="398.5" y="-85.5" font-family="Helvetica,sans-Serif" font-size="10.00">_front_xyz_debit.cpp</text>
</a>
</g>
</g>
<!-- Node4&#45;&gt;Node6 -->
<g id="edge5" class="edge">
<title>Node4&#45;&gt;Node6</title>
<path fill="none" stroke="midnightblue" d="M398.5,-157.09C398.5,-141.44 398.5,-121.68 398.5,-108.6"/>
<polygon fill="midnightblue" stroke="midnightblue" points="395,-157.13 398.5,-167.13 402,-157.13 395,-157.13"/>
</g>
<!-- Node8 -->
<g id="node8" class="node">
<title>Node8</title>
<g id="a_node8"><a xlink:href="Zone__Cl__EF_8cpp.html" target="_top" xlink:title=" ">
<polygon fill="white" stroke="black" points="489.5,-78.5 489.5,-108.5 611.5,-108.5 611.5,-78.5 489.5,-78.5"/>
<text text-anchor="start" x="497.5" y="-96.5" font-family="Helvetica,sans-Serif" font-size="10.00">src/EF/Zones/Zone_Cl</text>
<text text-anchor="middle" x="550.5" y="-85.5" font-family="Helvetica,sans-Serif" font-size="10.00">_EF.cpp</text>
</a>
</g>
</g>
<!-- Node7&#45;&gt;Node8 -->
<g id="edge7" class="edge">
<title>Node7&#45;&gt;Node8</title>
<path fill="none" stroke="midnightblue" d="M792.19,-165.19C743.22,-153.78 677.57,-137.51 620.5,-120 609.49,-116.62 597.68,-112.51 586.95,-108.59"/>
<polygon fill="midnightblue" stroke="midnightblue" points="791.53,-168.63 802.06,-167.48 793.11,-161.81 791.53,-168.63"/>
</g>
<!-- Node9 -->
<g id="node9" class="node">
<title>Node9</title>
<g id="a_node9"><a xlink:href="Champ__Front__xyz__Tabule_8h.html" target="_top" xlink:title=" ">
<polygon fill="white" stroke="black" points="630,-78.5 630,-108.5 775,-108.5 775,-78.5 630,-78.5"/>
<text text-anchor="start" x="638" y="-96.5" font-family="Helvetica,sans-Serif" font-size="10.00">src/Kernel/Champs/Champ</text>
<text text-anchor="middle" x="702.5" y="-85.5" font-family="Helvetica,sans-Serif" font-size="10.00">_Front_xyz_Tabule.h</text>
</a>
</g>
</g>
<!-- Node7&#45;&gt;Node9 -->
<g id="edge8" class="edge">
<title>Node7&#45;&gt;Node9</title>
<path fill="none" stroke="midnightblue" d="M829.93,-162.51C799.44,-146.24 756.21,-123.17 728.77,-108.52"/>
<polygon fill="midnightblue" stroke="midnightblue" points="828.48,-165.71 838.95,-167.33 831.77,-159.53 828.48,-165.71"/>
</g>
<!-- Node11 -->
<g id="node11" class="node">
<title>Node11</title>
<g id="a_node11"><a xlink:href="Champ__front__txyz_8cpp.html" target="_top" xlink:title=" ">
<polygon fill="white" stroke="black" points="793,-78.5 793,-108.5 938,-108.5 938,-78.5 793,-78.5"/>
<text text-anchor="start" x="801" y="-96.5" font-family="Helvetica,sans-Serif" font-size="10.00">src/Kernel/Champs/Champ</text>
<text text-anchor="middle" x="865.5" y="-85.5" font-family="Helvetica,sans-Serif" font-size="10.00">_front_txyz.cpp</text>
</a>
</g>
</g>
<!-- Node7&#45;&gt;Node11 -->
<g id="edge10" class="edge">
<title>Node7&#45;&gt;Node11</title>
<path fill="none" stroke="midnightblue" d="M865.5,-157.09C865.5,-141.44 865.5,-121.68 865.5,-108.6"/>
<polygon fill="midnightblue" stroke="midnightblue" points="862,-157.13 865.5,-167.13 869,-157.13 862,-157.13"/>
</g>
<!-- Node12 -->
<g id="node12" class="node">
<title>Node12</title>
<g id="a_node12"><a xlink:href="Champ__front__MED_8h.html" target="_top" xlink:title=" ">
<polygon fill="white" stroke="black" points="956,-78.5 956,-108.5 1075,-108.5 1075,-78.5 956,-78.5"/>
<text text-anchor="start" x="964" y="-96.5" font-family="Helvetica,sans-Serif" font-size="10.00">src/Kernel/MEDimpl</text>
<text text-anchor="middle" x="1015.5" y="-85.5" font-family="Helvetica,sans-Serif" font-size="10.00">/Champ_front_MED.h</text>
</a>
</g>
</g>
<!-- Node7&#45;&gt;Node12 -->
<g id="edge11" class="edge">
<title>Node7&#45;&gt;Node12</title>
<path fill="none" stroke="midnightblue" d="M898.94,-162.11C926.86,-145.91 966.02,-123.2 991.08,-108.67"/>
<polygon fill="midnightblue" stroke="midnightblue" points="896.83,-159.28 889.93,-167.33 900.34,-165.34 896.83,-159.28"/>
</g>
<!-- Node14 -->
<g id="node14" class="node">
<title>Node14</title>
<g id="a_node14"><a xlink:href="Op__Diff__VEFP1NCP1B__Face_8cpp.html" target="_top" xlink:title=" ">
<polygon fill="white" stroke="black" points="1093.5,-78.5 1093.5,-108.5 1265.5,-108.5 1265.5,-78.5 1093.5,-78.5"/>
<text text-anchor="start" x="1101.5" y="-96.5" font-family="Helvetica,sans-Serif" font-size="10.00">src/P1NCP1B/Operateurs</text>
<text text-anchor="middle" x="1179.5" y="-85.5" font-family="Helvetica,sans-Serif" font-size="10.00">/Op_Diff_VEFP1NCP1B_Face.cpp</text>
</a>
</g>
</g>
<!-- Node7&#45;&gt;Node14 -->
<g id="edge13" class="edge">
<title>Node7&#45;&gt;Node14</title>
<path fill="none" stroke="midnightblue" d="M918.3,-164.48C927.67,-161.57 937.35,-158.64 946.5,-156 1006.99,-138.54 1022.63,-136.08 1083.5,-120 1097.5,-116.3 1112.66,-112.28 1126.69,-108.55"/>
<polygon fill="midnightblue" stroke="midnightblue" points="917.18,-161.16 908.68,-167.48 919.27,-167.84 917.18,-161.16"/>
</g>
<!-- Node10 -->
<g id="node10" class="node">
<title>Node10</title>
<g id="a_node10"><a xlink:href="Champ__Front__xyz__Tabule_8cpp.html" target="_top" xlink:title=" ">
<polygon fill="white" stroke="black" points="630,-0.5 630,-30.5 775,-30.5 775,-0.5 630,-0.5"/>
<text text-anchor="start" x="638" y="-18.5" font-family="Helvetica,sans-Serif" font-size="10.00">src/Kernel/Champs/Champ</text>
<text text-anchor="middle" x="702.5" y="-7.5" font-family="Helvetica,sans-Serif" font-size="10.00">_Front_xyz_Tabule.cpp</text>
</a>
</g>
</g>
<!-- Node9&#45;&gt;Node10 -->
<g id="edge9" class="edge">
<title>Node9&#45;&gt;Node10</title>
<path fill="none" stroke="midnightblue" d="M702.5,-68.09C702.5,-55.76 702.5,-41.22 702.5,-30.73"/>
<polygon fill="midnightblue" stroke="midnightblue" points="699,-68.2 702.5,-78.2 706,-68.21 699,-68.2"/>
</g>
<!-- Node13 -->
<g id="node13" class="node">
<title>Node13</title>
<g id="a_node13"><a xlink:href="Champ__front__MED_8cpp.html" target="_top" xlink:title=" ">
<polygon fill="white" stroke="black" points="950,-0.5 950,-30.5 1081,-30.5 1081,-0.5 950,-0.5"/>
<text text-anchor="start" x="958" y="-18.5" font-family="Helvetica,sans-Serif" font-size="10.00">src/Kernel/MEDimpl</text>
<text text-anchor="middle" x="1015.5" y="-7.5" font-family="Helvetica,sans-Serif" font-size="10.00">/Champ_front_MED.cpp</text>
</a>
</g>
</g>
<!-- Node12&#45;&gt;Node13 -->
<g id="edge12" class="edge">
<title>Node12&#45;&gt;Node13</title>
<path fill="none" stroke="midnightblue" d="M1015.5,-68.09C1015.5,-55.76 1015.5,-41.22 1015.5,-30.73"/>
<polygon fill="midnightblue" stroke="midnightblue" points="1012,-68.2 1015.5,-78.2 1019,-68.21 1012,-68.2"/>
</g>
<!-- Node17 -->
<g id="node17" class="node">
<title>Node17</title>
<g id="a_node17"><a xlink:href="Champ__front__debit__QC_8cpp.html" target="_top" xlink:title=" ">
<polygon fill="white" stroke="black" points="1283.5,-67.5 1283.5,-119.5 1419.5,-119.5 1419.5,-67.5 1283.5,-67.5"/>
<text text-anchor="start" x="1291.5" y="-107.5" font-family="Helvetica,sans-Serif" font-size="10.00">src/ThHyd/Dilatable</text>
<text text-anchor="start" x="1291.5" y="-96.5" font-family="Helvetica,sans-Serif" font-size="10.00">/Quasi_Compressible</text>
<text text-anchor="start" x="1291.5" y="-85.5" font-family="Helvetica,sans-Serif" font-size="10.00">/VDF/Champ_front_debit</text>
<text text-anchor="middle" x="1351.5" y="-74.5" font-family="Helvetica,sans-Serif" font-size="10.00">_QC.cpp</text>
</a>
</g>
</g>
<!-- Node16&#45;&gt;Node17 -->
<g id="edge16" class="edge">
<title>Node16&#45;&gt;Node17</title>
<path fill="none" stroke="midnightblue" d="M1298.76,-154.09C1308.47,-143.12 1319.6,-130.55 1329.12,-119.79"/>
<polygon fill="midnightblue" stroke="midnightblue" points="1295.98,-151.95 1291.97,-161.76 1301.22,-156.59 1295.98,-151.95"/>
</g>
<!-- Node19 -->
<g id="node19" class="node">
<title>Node19</title>
<g id="a_node19"><a xlink:href="Champ__front__debit__QC__fonc__t_8cpp.html" target="_top" xlink:title=" ">
<polygon fill="white" stroke="black" points="1437.5,-67.5 1437.5,-119.5 1573.5,-119.5 1573.5,-67.5 1437.5,-67.5"/>
<text text-anchor="start" x="1445.5" y="-107.5" font-family="Helvetica,sans-Serif" font-size="10.00">src/ThHyd/Dilatable</text>
<text text-anchor="start" x="1445.5" y="-96.5" font-family="Helvetica,sans-Serif" font-size="10.00">/Quasi_Compressible</text>
<text text-anchor="start" x="1445.5" y="-85.5" font-family="Helvetica,sans-Serif" font-size="10.00">/VDF/Champ_front_debit</text>
<text text-anchor="middle" x="1505.5" y="-74.5" font-family="Helvetica,sans-Serif" font-size="10.00">_QC_fonc_t.cpp</text>
</a>
</g>
</g>
<!-- Node18&#45;&gt;Node19 -->
<g id="edge18" class="edge">
<title>Node18&#45;&gt;Node19</title>
<path fill="none" stroke="midnightblue" d="M1486.27,-146.77C1489.61,-137.69 1493.15,-128.08 1496.27,-119.61"/>
<polygon fill="midnightblue" stroke="midnightblue" points="1482.92,-145.74 1482.76,-156.34 1489.49,-148.16 1482.92,-145.74"/>
</g>
</g>
</svg>
