<?xml version="1.0" encoding="UTF-8" standalone="no"?>
<!DOCTYPE svg PUBLIC "-//W3C//DTD SVG 1.1//EN"
 "http://www.w3.org/Graphics/SVG/1.1/DTD/svg11.dtd">
<!-- Generated by graphviz version 2.43.0 (0)
 -->
<!-- Title: src/Kernel/Champs/Champ_front_xyz_debit.h Pages: 1 -->
<svg width="397pt" height="240pt"
 viewBox="0.00 0.00 397.00 240.00" xmlns="http://www.w3.org/2000/svg" xmlns:xlink="http://www.w3.org/1999/xlink">
<g id="graph0" class="graph" transform="scale(1 1) rotate(0) translate(4 236)">
<title>src/Kernel/Champs/Champ_front_xyz_debit.h</title>
<polygon fill="white" stroke="transparent" points="-4,4 -4,-236 393,-236 393,4 -4,4"/>
<!-- Node1 -->
<g id="node1" class="node">
<title>Node1</title>
<g id="a_node1"><a xlink:title=" ">
<polygon fill="#bfbfbf" stroke="black" points="162,-201.5 162,-231.5 307,-231.5 307,-201.5 162,-201.5"/>
<text text-anchor="start" x="170" y="-219.5" font-family="Helvetica,sans-Serif" font-size="10.00">src/Kernel/Champs/Champ</text>
<text text-anchor="middle" x="234.5" y="-208.5" font-family="Helvetica,sans-Serif" font-size="10.00">_front_xyz_debit.h</text>
</a>
</g>
</g>
<!-- Node2 -->
<g id="node2" class="node">
<title>Node2</title>
<g id="a_node2"><a xlink:href="Champ__front__debit_8h.html" target="_top" xlink:title=" ">
<polygon fill="white" stroke="black" points="81,-134.5 81,-164.5 226,-164.5 226,-134.5 81,-134.5"/>
<text text-anchor="start" x="89" y="-152.5" font-family="Helvetica,sans-Serif" font-size="10.00">src/Kernel/Champs/Champ</text>
<text text-anchor="middle" x="153.5" y="-141.5" font-family="Helvetica,sans-Serif" font-size="10.00">_front_debit.h</text>
</a>
</g>
</g>
<!-- Node1&#45;&gt;Node2 -->
<g id="edge1" class="edge">
<title>Node1&#45;&gt;Node2</title>
<path fill="none" stroke="midnightblue" d="M208.81,-194.88C196.5,-185.01 182.07,-173.43 171.04,-164.58"/>
<polygon fill="midnightblue" stroke="midnightblue" points="206.93,-197.87 216.92,-201.4 211.32,-192.41 206.93,-197.87"/>
</g>
<!-- Node6 -->
<g id="node6" class="node">
<title>Node6</title>
<g id="a_node6"><a xlink:href="Champ__front__xyz__debit_8cpp.html" target="_top" xlink:title=" ">
<polygon fill="white" stroke="black" points="244,-134.5 244,-164.5 389,-164.5 389,-134.5 244,-134.5"/>
<text text-anchor="start" x="252" y="-152.5" font-family="Helvetica,sans-Serif" font-size="10.00">src/Kernel/Champs/Champ</text>
<text text-anchor="middle" x="316.5" y="-141.5" font-family="Helvetica,sans-Serif" font-size="10.00">_front_xyz_debit.cpp</text>
</a>
</g>
</g>
<!-- Node1&#45;&gt;Node6 -->
<g id="edge5" class="edge">
<title>Node1&#45;&gt;Node6</title>
<path fill="none" stroke="midnightblue" d="M260.15,-195.17C272.69,-185.23 287.47,-173.51 298.74,-164.58"/>
<polygon fill="midnightblue" stroke="midnightblue" points="257.96,-192.44 252.29,-201.4 262.3,-197.93 257.96,-192.44"/>
</g>
<!-- Node3 -->
<g id="node3" class="node">
<title>Node3</title>
<g id="a_node3"><a xlink:href="Champ__front__debit_8cpp.html" target="_top" xlink:title=" ">
<polygon fill="white" stroke="black" points="0,-67.5 0,-97.5 145,-97.5 145,-67.5 0,-67.5"/>
<text text-anchor="start" x="8" y="-85.5" font-family="Helvetica,sans-Serif" font-size="10.00">src/Kernel/Champs/Champ</text>
<text text-anchor="middle" x="72.5" y="-74.5" font-family="Helvetica,sans-Serif" font-size="10.00">_front_debit.cpp</text>
</a>
</g>
</g>
<!-- Node2&#45;&gt;Node3 -->
<g id="edge2" class="edge">
<title>Node2&#45;&gt;Node3</title>
<path fill="none" stroke="midnightblue" d="M127.81,-127.88C115.5,-118.01 101.07,-106.43 90.04,-97.58"/>
<polygon fill="midnightblue" stroke="midnightblue" points="125.93,-130.87 135.92,-134.4 130.32,-125.41 125.93,-130.87"/>
</g>
<!-- Node4 -->
<g id="node4" class="node">
<title>Node4</title>
<g id="a_node4"><a xlink:href="Champ__front__debit__massique_8h.html" target="_top" xlink:title=" ">
<polygon fill="white" stroke="black" points="163,-67.5 163,-97.5 308,-97.5 308,-67.5 163,-67.5"/>
<text text-anchor="start" x="171" y="-85.5" font-family="Helvetica,sans-Serif" font-size="10.00">src/Kernel/Champs/Champ</text>
<text text-anchor="middle" x="235.5" y="-74.5" font-family="Helvetica,sans-Serif" font-size="10.00">_front_debit_massique.h</text>
</a>
</g>
</g>
<!-- Node2&#45;&gt;Node4 -->
<g id="edge3" class="edge">
<title>Node2&#45;&gt;Node4</title>
<path fill="none" stroke="midnightblue" d="M179.15,-128.17C191.69,-118.23 206.47,-106.51 217.74,-97.58"/>
<polygon fill="midnightblue" stroke="midnightblue" points="176.96,-125.44 171.29,-134.4 181.3,-130.93 176.96,-125.44"/>
</g>
<!-- Node5 -->
<g id="node5" class="node">
<title>Node5</title>
<g id="a_node5"><a xlink:href="Champ__front__debit__massique_8cpp.html" target="_top" xlink:title=" ">
<polygon fill="white" stroke="black" points="161.5,-0.5 161.5,-30.5 309.5,-30.5 309.5,-0.5 161.5,-0.5"/>
<text text-anchor="start" x="169.5" y="-18.5" font-family="Helvetica,sans-Serif" font-size="10.00">src/Kernel/Champs/Champ</text>
<text text-anchor="middle" x="235.5" y="-7.5" font-family="Helvetica,sans-Serif" font-size="10.00">_front_debit_massique.cpp</text>
</a>
</g>
</g>
<!-- Node4&#45;&gt;Node5 -->
<g id="edge4" class="edge">
<title>Node4&#45;&gt;Node5</title>
<path fill="none" stroke="midnightblue" d="M235.5,-57.11C235.5,-48.15 235.5,-38.32 235.5,-30.58"/>
<polygon fill="midnightblue" stroke="midnightblue" points="232,-57.4 235.5,-67.4 239,-57.4 232,-57.4"/>
</g>
</g>
</svg>
