<?xml version="1.0" encoding="UTF-8" standalone="no"?>
<!DOCTYPE svg PUBLIC "-//W3C//DTD SVG 1.1//EN"
 "http://www.w3.org/Graphics/SVG/1.1/DTD/svg11.dtd">
<!-- Generated by graphviz version 2.43.0 (0)
 -->
<!-- Title: src/Kernel/Framework/Champ_front_instationnaire_base.h Pages: 1 -->
<svg width="1730pt" height="262pt"
 viewBox="0.00 0.00 1729.50 262.00" xmlns="http://www.w3.org/2000/svg" xmlns:xlink="http://www.w3.org/1999/xlink">
<g id="graph0" class="graph" transform="scale(1 1) rotate(0) translate(4 258)">
<title>src/Kernel/Framework/Champ_front_instationnaire_base.h</title>
<polygon fill="white" stroke="transparent" points="-4,4 -4,-258 1725.5,-258 1725.5,4 -4,4"/>
<!-- Node1 -->
<g id="node1" class="node">
<title>Node1</title>
<g id="a_node1"><a xlink:title=" ">
<polygon fill="#bfbfbf" stroke="black" points="792,-212.5 792,-253.5 947,-253.5 947,-212.5 792,-212.5"/>
<text text-anchor="start" x="800" y="-241.5" font-family="Helvetica,sans-Serif" font-size="10.00">src/Kernel/Framework</text>
<text text-anchor="start" x="800" y="-230.5" font-family="Helvetica,sans-Serif" font-size="10.00">/Champ_front_instationnaire</text>
<text text-anchor="middle" x="869.5" y="-219.5" font-family="Helvetica,sans-Serif" font-size="10.00">_base.h</text>
</a>
</g>
</g>
<!-- Node2 -->
<g id="node2" class="node">
<title>Node2</title>
<g id="a_node2"><a xlink:href="Assembleur__P__EF_8cpp.html" target="_top" xlink:title=" ">
<polygon fill="white" stroke="black" points="51.5,-140 51.5,-170 215.5,-170 215.5,-140 51.5,-140"/>
<text text-anchor="start" x="59.5" y="-158" font-family="Helvetica,sans-Serif" font-size="10.00">src/EF/Operateurs/Assembleur</text>
<text text-anchor="middle" x="133.5" y="-147" font-family="Helvetica,sans-Serif" font-size="10.00">_P_EF.cpp</text>
</a>
</g>
</g>
<!-- Node1&#45;&gt;Node2 -->
<g id="edge1" class="edge">
<title>Node1&#45;&gt;Node2</title>
<path fill="none" stroke="midnightblue" d="M781.43,-227.98C656.84,-221.47 422.28,-206.19 224.5,-176 213.95,-174.39 202.79,-172.28 192.03,-170.04"/>
<polygon fill="midnightblue" stroke="midnightblue" points="781.5,-231.49 791.67,-228.51 781.86,-224.5 781.5,-231.49"/>
</g>
<!-- Node3 -->
<g id="node3" class="node">
<title>Node3</title>
<g id="a_node3"><a xlink:href="Ch__front__input__uniforme_8h.html" target="_top" xlink:title=" ">
<polygon fill="white" stroke="black" points="233.5,-140 233.5,-170 367.5,-170 367.5,-140 233.5,-140"/>
<text text-anchor="start" x="241.5" y="-158" font-family="Helvetica,sans-Serif" font-size="10.00">src/Kernel/Champs/Ch</text>
<text text-anchor="middle" x="300.5" y="-147" font-family="Helvetica,sans-Serif" font-size="10.00">_front_input_uniforme.h</text>
</a>
</g>
</g>
<!-- Node1&#45;&gt;Node3 -->
<g id="edge2" class="edge">
<title>Node1&#45;&gt;Node3</title>
<path fill="none" stroke="midnightblue" d="M781.64,-225.75C682.78,-217.86 517.7,-202.05 377.5,-176 368.67,-174.36 359.37,-172.26 350.39,-170.05"/>
<polygon fill="midnightblue" stroke="midnightblue" points="781.63,-229.26 791.88,-226.56 782.19,-222.28 781.63,-229.26"/>
</g>
<!-- Node7 -->
<g id="node7" class="node">
<title>Node7</title>
<g id="a_node7"><a xlink:href="Champ__front__Tabule_8h.html" target="_top" xlink:title=" ">
<polygon fill="white" stroke="black" points="386,-140 386,-170 531,-170 531,-140 386,-140"/>
<text text-anchor="start" x="394" y="-158" font-family="Helvetica,sans-Serif" font-size="10.00">src/Kernel/Champs/Champ</text>
<text text-anchor="middle" x="458.5" y="-147" font-family="Helvetica,sans-Serif" font-size="10.00">_front_Tabule.h</text>
</a>
</g>
</g>
<!-- Node1&#45;&gt;Node7 -->
<g id="edge6" class="edge">
<title>Node1&#45;&gt;Node7</title>
<path fill="none" stroke="midnightblue" d="M781.75,-218.79C715.29,-208.37 621.86,-192.82 540.5,-176 531.89,-174.22 522.81,-172.18 513.96,-170.09"/>
<polygon fill="midnightblue" stroke="midnightblue" points="781.35,-222.27 791.77,-220.36 782.43,-215.35 781.35,-222.27"/>
</g>
<!-- Node11 -->
<g id="node11" class="node">
<title>Node11</title>
<g id="a_node11"><a xlink:href="Champ__front__instationnaire__base_8cpp.html" target="_top" xlink:title=" ">
<polygon fill="white" stroke="black" points="549,-134.5 549,-175.5 704,-175.5 704,-134.5 549,-134.5"/>
<text text-anchor="start" x="557" y="-163.5" font-family="Helvetica,sans-Serif" font-size="10.00">src/Kernel/Framework</text>
<text text-anchor="start" x="557" y="-152.5" font-family="Helvetica,sans-Serif" font-size="10.00">/Champ_front_instationnaire</text>
<text text-anchor="middle" x="626.5" y="-141.5" font-family="Helvetica,sans-Serif" font-size="10.00">_base.cpp</text>
</a>
</g>
</g>
<!-- Node1&#45;&gt;Node11 -->
<g id="edge11" class="edge">
<title>Node1&#45;&gt;Node11</title>
<path fill="none" stroke="midnightblue" d="M797.37,-209.44C762.88,-198.66 722,-185.87 688.87,-175.51"/>
<polygon fill="midnightblue" stroke="midnightblue" points="796.33,-212.78 806.92,-212.43 798.42,-206.1 796.33,-212.78"/>
</g>
<!-- Node12 -->
<g id="node12" class="node">
<title>Node12</title>
<g id="a_node12"><a xlink:href="Zone__Cl__dis__base_8cpp.html" target="_top" xlink:title=" ">
<polygon fill="white" stroke="black" points="722.5,-140 722.5,-170 850.5,-170 850.5,-140 722.5,-140"/>
<text text-anchor="start" x="730.5" y="-158" font-family="Helvetica,sans-Serif" font-size="10.00">src/Kernel/Framework</text>
<text text-anchor="middle" x="786.5" y="-147" font-family="Helvetica,sans-Serif" font-size="10.00">/Zone_Cl_dis_base.cpp</text>
</a>
</g>
</g>
<!-- Node1&#45;&gt;Node12 -->
<g id="edge12" class="edge">
<title>Node1&#45;&gt;Node12</title>
<path fill="none" stroke="midnightblue" d="M840.73,-205.66C827.74,-193.76 812.9,-180.18 802.04,-170.23"/>
<polygon fill="midnightblue" stroke="midnightblue" points="838.39,-208.26 848.13,-212.43 843.11,-203.09 838.39,-208.26"/>
</g>
<!-- Node13 -->
<g id="node13" class="node">
<title>Node13</title>
<g id="a_node13"><a xlink:href="Assembleur__P__VEFPreP1B_8cpp.html" target="_top" xlink:title=" ">
<polygon fill="white" stroke="black" points="869,-140 869,-170 1036,-170 1036,-140 869,-140"/>
<text text-anchor="start" x="877" y="-158" font-family="Helvetica,sans-Serif" font-size="10.00">src/P1NCP1B/Solveurs</text>
<text text-anchor="middle" x="952.5" y="-147" font-family="Helvetica,sans-Serif" font-size="10.00">/Assembleur_P_VEFPreP1B.cpp</text>
</a>
</g>
</g>
<!-- Node1&#45;&gt;Node13 -->
<g id="edge13" class="edge">
<title>Node1&#45;&gt;Node13</title>
<path fill="none" stroke="midnightblue" d="M898.27,-205.66C911.26,-193.76 926.1,-180.18 936.96,-170.23"/>
<polygon fill="midnightblue" stroke="midnightblue" points="895.89,-203.09 890.87,-212.43 900.61,-208.26 895.89,-203.09"/>
</g>
<!-- Node14 -->
<g id="node14" class="node">
<title>Node14</title>
<g id="a_node14"><a xlink:href="Assembleur__P__PolyMAC_8cpp.html" target="_top" xlink:title=" ">
<polygon fill="white" stroke="black" points="1053.5,-140 1053.5,-170 1211.5,-170 1211.5,-140 1053.5,-140"/>
<text text-anchor="start" x="1061.5" y="-158" font-family="Helvetica,sans-Serif" font-size="10.00">src/PolyMAC/Solveurs</text>
<text text-anchor="middle" x="1132.5" y="-147" font-family="Helvetica,sans-Serif" font-size="10.00">/Assembleur_P_PolyMAC.cpp</text>
</a>
</g>
</g>
<!-- Node1&#45;&gt;Node14 -->
<g id="edge14" class="edge">
<title>Node1&#45;&gt;Node14</title>
<path fill="none" stroke="midnightblue" d="M947.08,-209.58C991.31,-196.8 1045.37,-181.18 1083.68,-170.11"/>
<polygon fill="midnightblue" stroke="midnightblue" points="945.86,-206.29 937.23,-212.43 947.81,-213.01 945.86,-206.29"/>
</g>
<!-- Node15 -->
<g id="node15" class="node">
<title>Node15</title>
<g id="a_node15"><a xlink:href="Assembleur__P__PolyMAC__P0_8cpp.html" target="_top" xlink:title=" ">
<polygon fill="white" stroke="black" points="1230,-134.5 1230,-175.5 1367,-175.5 1367,-134.5 1230,-134.5"/>
<text text-anchor="start" x="1238" y="-163.5" font-family="Helvetica,sans-Serif" font-size="10.00">src/PolyMAC/Solveurs</text>
<text text-anchor="start" x="1238" y="-152.5" font-family="Helvetica,sans-Serif" font-size="10.00">/Assembleur_P_PolyMAC</text>
<text text-anchor="middle" x="1298.5" y="-141.5" font-family="Helvetica,sans-Serif" font-size="10.00">_P0.cpp</text>
</a>
</g>
</g>
<!-- Node1&#45;&gt;Node15 -->
<g id="edge15" class="edge">
<title>Node1&#45;&gt;Node15</title>
<path fill="none" stroke="midnightblue" d="M957.53,-220.27C1028.77,-210.21 1131.53,-194.46 1220.5,-176 1223.51,-175.38 1226.58,-174.71 1229.68,-174.02"/>
<polygon fill="midnightblue" stroke="midnightblue" points="956.67,-216.85 947.25,-221.71 957.64,-223.78 956.67,-216.85"/>
</g>
<!-- Node16 -->
<g id="node16" class="node">
<title>Node16</title>
<g id="a_node16"><a xlink:href="Assembleur__P__VDF_8cpp.html" target="_top" xlink:title=" ">
<polygon fill="white" stroke="black" points="1385.5,-140 1385.5,-170 1545.5,-170 1545.5,-140 1385.5,-140"/>
<text text-anchor="start" x="1393.5" y="-158" font-family="Helvetica,sans-Serif" font-size="10.00">src/VDF/Solveurs/Assembleur</text>
<text text-anchor="middle" x="1465.5" y="-147" font-family="Helvetica,sans-Serif" font-size="10.00">_P_VDF.cpp</text>
</a>
</g>
</g>
<!-- Node1&#45;&gt;Node16 -->
<g id="edge16" class="edge">
<title>Node1&#45;&gt;Node16</title>
<path fill="none" stroke="midnightblue" d="M957.37,-225.28C1058.8,-216.82 1230.41,-200.41 1376.5,-176 1386.5,-174.33 1397.06,-172.24 1407.28,-170.06"/>
<polygon fill="midnightblue" stroke="midnightblue" points="956.85,-221.81 947.17,-226.12 957.43,-228.78 956.85,-221.81"/>
</g>
<!-- Node17 -->
<g id="node17" class="node">
<title>Node17</title>
<g id="a_node17"><a xlink:href="Assembleur__P__VEF_8cpp.html" target="_top" xlink:title=" ">
<polygon fill="white" stroke="black" points="1563.5,-140 1563.5,-170 1721.5,-170 1721.5,-140 1563.5,-140"/>
<text text-anchor="start" x="1571.5" y="-158" font-family="Helvetica,sans-Serif" font-size="10.00">src/VEF/Solveurs/Assembleur</text>
<text text-anchor="middle" x="1642.5" y="-147" font-family="Helvetica,sans-Serif" font-size="10.00">_P_VEF.cpp</text>
</a>
</g>
</g>
<!-- Node1&#45;&gt;Node17 -->
<g id="edge17" class="edge">
<title>Node1&#45;&gt;Node17</title>
<path fill="none" stroke="midnightblue" d="M957.58,-228.8C1088.44,-223.14 1341.64,-208.72 1554.5,-176 1564.72,-174.43 1575.52,-172.34 1585.92,-170.1"/>
<polygon fill="midnightblue" stroke="midnightblue" points="957.06,-225.32 947.22,-229.24 957.36,-232.31 957.06,-225.32"/>
</g>
<!-- Node4 -->
<g id="node4" class="node">
<title>Node4</title>
<g id="a_node4"><a xlink:href="Ch__front__input__uniforme_8cpp.html" target="_top" xlink:title=" ">
<polygon fill="white" stroke="black" points="0,-67.5 0,-97.5 145,-97.5 145,-67.5 0,-67.5"/>
<text text-anchor="start" x="8" y="-85.5" font-family="Helvetica,sans-Serif" font-size="10.00">src/Kernel/Champs/Ch</text>
<text text-anchor="middle" x="72.5" y="-74.5" font-family="Helvetica,sans-Serif" font-size="10.00">_front_input_uniforme.cpp</text>
</a>
</g>
</g>
<!-- Node3&#45;&gt;Node4 -->
<g id="edge3" class="edge">
<title>Node3&#45;&gt;Node4</title>
<path fill="none" stroke="midnightblue" d="M245.56,-137.01C206.57,-124.96 154.84,-108.96 118.12,-97.61"/>
<polygon fill="midnightblue" stroke="midnightblue" points="244.59,-140.38 255.18,-139.99 246.66,-133.69 244.59,-140.38"/>
</g>
<!-- Node5 -->
<g id="node5" class="node">
<title>Node5</title>
<g id="a_node5"><a xlink:href="Champ__front__xyz__debit_8cpp.html" target="_top" xlink:title=" ">
<polygon fill="white" stroke="black" points="304,-67.5 304,-97.5 449,-97.5 449,-67.5 304,-67.5"/>
<text text-anchor="start" x="312" y="-85.5" font-family="Helvetica,sans-Serif" font-size="10.00">src/Kernel/Champs/Champ</text>
<text text-anchor="middle" x="376.5" y="-74.5" font-family="Helvetica,sans-Serif" font-size="10.00">_front_xyz_debit.cpp</text>
</a>
</g>
</g>
<!-- Node3&#45;&gt;Node5 -->
<g id="edge4" class="edge">
<title>Node3&#45;&gt;Node5</title>
<path fill="none" stroke="midnightblue" d="M323.53,-132.64C335.81,-121.24 350.58,-107.54 361.4,-97.5"/>
<polygon fill="midnightblue" stroke="midnightblue" points="320.83,-130.37 315.88,-139.73 325.59,-135.5 320.83,-130.37"/>
</g>
<!-- Node6 -->
<g id="node6" class="node">
<title>Node6</title>
<g id="a_node6"><a xlink:href="Probleme__U_8cpp.html" target="_top" xlink:title=" ">
<polygon fill="white" stroke="black" points="163.5,-67.5 163.5,-97.5 285.5,-97.5 285.5,-67.5 163.5,-67.5"/>
<text text-anchor="start" x="171.5" y="-85.5" font-family="Helvetica,sans-Serif" font-size="10.00">src/Kernel/Framework</text>
<text text-anchor="middle" x="224.5" y="-74.5" font-family="Helvetica,sans-Serif" font-size="10.00">/Probleme_U.cpp</text>
</a>
</g>
</g>
<!-- Node3&#45;&gt;Node6 -->
<g id="edge5" class="edge">
<title>Node3&#45;&gt;Node6</title>
<path fill="none" stroke="midnightblue" d="M277.47,-132.64C265.19,-121.24 250.42,-107.54 239.6,-97.5"/>
<polygon fill="midnightblue" stroke="midnightblue" points="275.41,-135.5 285.12,-139.73 280.17,-130.37 275.41,-135.5"/>
</g>
<!-- Node7&#45;&gt;Node5 -->
<g id="edge10" class="edge">
<title>Node7&#45;&gt;Node5</title>
<path fill="none" stroke="midnightblue" d="M434.03,-132.96C420.7,-121.5 404.57,-107.64 392.79,-97.5"/>
<polygon fill="midnightblue" stroke="midnightblue" points="432.04,-135.87 441.91,-139.73 436.61,-130.56 432.04,-135.87"/>
</g>
<!-- Node8 -->
<g id="node8" class="node">
<title>Node8</title>
<g id="a_node8"><a xlink:href="Champ__front__Tabule_8cpp.html" target="_top" xlink:title=" ">
<polygon fill="white" stroke="black" points="467,-67.5 467,-97.5 612,-97.5 612,-67.5 467,-67.5"/>
<text text-anchor="start" x="475" y="-85.5" font-family="Helvetica,sans-Serif" font-size="10.00">src/Kernel/Champs/Champ</text>
<text text-anchor="middle" x="539.5" y="-74.5" font-family="Helvetica,sans-Serif" font-size="10.00">_front_Tabule.cpp</text>
</a>
</g>
</g>
<!-- Node7&#45;&gt;Node8 -->
<g id="edge7" class="edge">
<title>Node7&#45;&gt;Node8</title>
<path fill="none" stroke="midnightblue" d="M482.67,-132.96C495.84,-121.5 511.77,-107.64 523.41,-97.5"/>
<polygon fill="midnightblue" stroke="midnightblue" points="480.14,-130.53 474.89,-139.73 484.73,-135.81 480.14,-130.53"/>
</g>
<!-- Node9 -->
<g id="node9" class="node">
<title>Node9</title>
<g id="a_node9"><a xlink:href="Champ__front__Tabule__lu_8h.html" target="_top" xlink:title=" ">
<polygon fill="white" stroke="black" points="630,-67.5 630,-97.5 775,-97.5 775,-67.5 630,-67.5"/>
<text text-anchor="start" x="638" y="-85.5" font-family="Helvetica,sans-Serif" font-size="10.00">src/Kernel/Champs/Champ</text>
<text text-anchor="middle" x="702.5" y="-74.5" font-family="Helvetica,sans-Serif" font-size="10.00">_front_Tabule_lu.h</text>
</a>
</g>
</g>
<!-- Node7&#45;&gt;Node9 -->
<g id="edge8" class="edge">
<title>Node7&#45;&gt;Node9</title>
<path fill="none" stroke="midnightblue" d="M516.77,-137.16C558.55,-125.09 614.22,-109.01 653.68,-97.61"/>
<polygon fill="midnightblue" stroke="midnightblue" points="515.63,-133.85 507,-139.99 517.58,-140.57 515.63,-133.85"/>
</g>
<!-- Node10 -->
<g id="node10" class="node">
<title>Node10</title>
<g id="a_node10"><a xlink:href="Champ__front__Tabule__lu_8cpp.html" target="_top" xlink:title=" ">
<polygon fill="white" stroke="black" points="630,-0.5 630,-30.5 775,-30.5 775,-0.5 630,-0.5"/>
<text text-anchor="start" x="638" y="-18.5" font-family="Helvetica,sans-Serif" font-size="10.00">src/Kernel/Champs/Champ</text>
<text text-anchor="middle" x="702.5" y="-7.5" font-family="Helvetica,sans-Serif" font-size="10.00">_front_Tabule_lu.cpp</text>
</a>
</g>
</g>
<!-- Node9&#45;&gt;Node10 -->
<g id="edge9" class="edge">
<title>Node9&#45;&gt;Node10</title>
<path fill="none" stroke="midnightblue" d="M702.5,-57.11C702.5,-48.15 702.5,-38.32 702.5,-30.58"/>
<polygon fill="midnightblue" stroke="midnightblue" points="699,-57.4 702.5,-67.4 706,-57.4 699,-57.4"/>
</g>
</g>
</svg>
