<?xml version="1.0" encoding="UTF-8" standalone="no"?>
<!DOCTYPE svg PUBLIC "-//W3C//DTD SVG 1.1//EN"
 "http://www.w3.org/Graphics/SVG/1.1/DTD/svg11.dtd">
<!-- Generated by graphviz version 2.43.0 (0)
 -->
<!-- Title: src/VEF/Champs/Champ_front_contact_VEF.h Pages: 1 -->
<svg width="393pt" height="195pt"
 viewBox="0.00 0.00 392.50 195.00" xmlns="http://www.w3.org/2000/svg" xmlns:xlink="http://www.w3.org/1999/xlink">
<g id="graph0" class="graph" transform="scale(1 1) rotate(0) translate(4 191)">
<title>src/VEF/Champs/Champ_front_contact_VEF.h</title>
<polygon fill="white" stroke="transparent" points="-4,4 -4,-191 388.5,-191 388.5,4 -4,4"/>
<!-- Node1 -->
<g id="node1" class="node">
<title>Node1</title>
<g id="a_node1"><a xlink:title=" ">
<polygon fill="#bfbfbf" stroke="black" points="101,-156.5 101,-186.5 234,-186.5 234,-156.5 101,-156.5"/>
<text text-anchor="start" x="109" y="-174.5" font-family="Helvetica,sans-Serif" font-size="10.00">src/VEF/Champs/Champ</text>
<text text-anchor="middle" x="167.5" y="-163.5" font-family="Helvetica,sans-Serif" font-size="10.00">_front_contact_VEF.h</text>
</a>
</g>
</g>
<!-- Node2 -->
<g id="node2" class="node">
<title>Node2</title>
<g id="a_node2"><a xlink:href="Champ__front__contact__VEF_8cpp.html" target="_top" xlink:title=" ">
<polygon fill="white" stroke="black" points="0,-6 0,-36 133,-36 133,-6 0,-6"/>
<text text-anchor="start" x="8" y="-24" font-family="Helvetica,sans-Serif" font-size="10.00">src/VEF/Champs/Champ</text>
<text text-anchor="middle" x="66.5" y="-13" font-family="Helvetica,sans-Serif" font-size="10.00">_front_contact_VEF.cpp</text>
</a>
</g>
</g>
<!-- Node1&#45;&gt;Node2 -->
<g id="edge1" class="edge">
<title>Node1&#45;&gt;Node2</title>
<path fill="none" stroke="midnightblue" d="M123.1,-151.48C109.47,-143.6 95.65,-133.17 86.5,-120 68.76,-94.48 66.05,-56.73 66.03,-36.34"/>
<polygon fill="midnightblue" stroke="midnightblue" points="121.53,-154.61 131.99,-156.3 124.86,-148.46 121.53,-154.61"/>
</g>
<!-- Node3 -->
<g id="node3" class="node">
<title>Node3</title>
<g id="a_node3"><a xlink:href="Champ__front__contact__fictif__VEF_8h.html" target="_top" xlink:title=" ">
<polygon fill="white" stroke="black" points="95,-84 95,-114 240,-114 240,-84 95,-84"/>
<text text-anchor="start" x="103" y="-102" font-family="Helvetica,sans-Serif" font-size="10.00">src/VEF/Champs/Champ</text>
<text text-anchor="middle" x="167.5" y="-91" font-family="Helvetica,sans-Serif" font-size="10.00">_front_contact_fictif_VEF.h</text>
</a>
</g>
</g>
<!-- Node1&#45;&gt;Node3 -->
<g id="edge2" class="edge">
<title>Node1&#45;&gt;Node3</title>
<path fill="none" stroke="midnightblue" d="M167.5,-146.23C167.5,-135.57 167.5,-123.41 167.5,-114.25"/>
<polygon fill="midnightblue" stroke="midnightblue" points="164,-146.23 167.5,-156.23 171,-146.23 164,-146.23"/>
</g>
<!-- Node5 -->
<g id="node5" class="node">
<title>Node5</title>
<g id="a_node5"><a xlink:href="Ref__Champ__front__contact__VEF_8cpp.html" target="_top" xlink:title=" ">
<polygon fill="white" stroke="black" points="258.5,-78.5 258.5,-119.5 384.5,-119.5 384.5,-78.5 258.5,-78.5"/>
<text text-anchor="start" x="266.5" y="-107.5" font-family="Helvetica,sans-Serif" font-size="10.00">src/VEF/Champs/Ref</text>
<text text-anchor="start" x="266.5" y="-96.5" font-family="Helvetica,sans-Serif" font-size="10.00">_Champ_front_contact</text>
<text text-anchor="middle" x="321.5" y="-85.5" font-family="Helvetica,sans-Serif" font-size="10.00">_VEF.cpp</text>
</a>
</g>
</g>
<!-- Node1&#45;&gt;Node5 -->
<g id="edge5" class="edge">
<title>Node1&#45;&gt;Node5</title>
<path fill="none" stroke="midnightblue" d="M207.63,-152.13C229.49,-142.12 256.55,-129.73 278.8,-119.55"/>
<polygon fill="midnightblue" stroke="midnightblue" points="205.93,-149.06 198.29,-156.4 208.84,-155.42 205.93,-149.06"/>
</g>
<!-- Node3&#45;&gt;Node2 -->
<g id="edge3" class="edge">
<title>Node3&#45;&gt;Node2</title>
<path fill="none" stroke="midnightblue" d="M140.4,-77.61C123.03,-64.54 100.91,-47.89 85.41,-36.23"/>
<polygon fill="midnightblue" stroke="midnightblue" points="138.41,-80.49 148.5,-83.7 142.62,-74.9 138.41,-80.49"/>
</g>
<!-- Node4 -->
<g id="node4" class="node">
<title>Node4</title>
<g id="a_node4"><a xlink:href="Champ__front__contact__fictif__VEF_8cpp.html" target="_top" xlink:title=" ">
<polygon fill="white" stroke="black" points="151,-0.5 151,-41.5 284,-41.5 284,-0.5 151,-0.5"/>
<text text-anchor="start" x="159" y="-29.5" font-family="Helvetica,sans-Serif" font-size="10.00">src/VEF/Champs/Champ</text>
<text text-anchor="start" x="159" y="-18.5" font-family="Helvetica,sans-Serif" font-size="10.00">_front_contact_fictif</text>
<text text-anchor="middle" x="217.5" y="-7.5" font-family="Helvetica,sans-Serif" font-size="10.00">_VEF.cpp</text>
</a>
</g>
</g>
<!-- Node3&#45;&gt;Node4 -->
<g id="edge4" class="edge">
<title>Node3&#45;&gt;Node4</title>
<path fill="none" stroke="midnightblue" d="M182.45,-75.27C189.49,-64.58 197.79,-51.96 204.55,-41.68"/>
<polygon fill="midnightblue" stroke="midnightblue" points="179.48,-73.43 176.9,-83.7 185.32,-77.27 179.48,-73.43"/>
</g>
</g>
</svg>
