<?xml version="1.0" encoding="UTF-8" standalone="no"?>
<!DOCTYPE svg PUBLIC "-//W3C//DTD SVG 1.1//EN"
 "http://www.w3.org/Graphics/SVG/1.1/DTD/svg11.dtd">
<!-- Generated by graphviz version 2.43.0 (0)
 -->
<!-- Title: src/Kernel/Champs/Champs_Don/Champ_som_lu.h Pages: 1 -->
<svg width="462pt" height="173pt"
 viewBox="0.00 0.00 461.50 173.00" xmlns="http://www.w3.org/2000/svg" xmlns:xlink="http://www.w3.org/1999/xlink">
<g id="graph0" class="graph" transform="scale(1 1) rotate(0) translate(4 169)">
<title>src/Kernel/Champs/Champs_Don/Champ_som_lu.h</title>
<polygon fill="white" stroke="transparent" points="-4,4 -4,-169 457.5,-169 457.5,4 -4,4"/>
<!-- Node1 -->
<g id="node1" class="node">
<title>Node1</title>
<g id="a_node1"><a xlink:title=" ">
<polygon fill="#bfbfbf" stroke="black" points="160,-134.5 160,-164.5 310,-164.5 310,-134.5 160,-134.5"/>
<text text-anchor="start" x="168" y="-152.5" font-family="Helvetica,sans-Serif" font-size="10.00">src/Kernel/Champs/Champs</text>
<text text-anchor="middle" x="235" y="-141.5" font-family="Helvetica,sans-Serif" font-size="10.00">_Don/Champ_som_lu.h</text>
</a>
</g>
</g>
<!-- Node2 -->
<g id="node2" class="node">
<title>Node2</title>
<g id="a_node2"><a xlink:href="Champ__som__lu_8cpp.html" target="_top" xlink:title=" ">
<polygon fill="white" stroke="black" points="0,-67.5 0,-97.5 150,-97.5 150,-67.5 0,-67.5"/>
<text text-anchor="start" x="8" y="-85.5" font-family="Helvetica,sans-Serif" font-size="10.00">src/Kernel/Champs/Champs</text>
<text text-anchor="middle" x="75" y="-74.5" font-family="Helvetica,sans-Serif" font-size="10.00">_Don/Champ_som_lu.cpp</text>
</a>
</g>
</g>
<!-- Node1&#45;&gt;Node2 -->
<g id="edge1" class="edge">
<title>Node1&#45;&gt;Node2</title>
<path fill="none" stroke="midnightblue" d="M190.8,-130.54C165.2,-120.14 133.43,-107.24 109.65,-97.58"/>
<polygon fill="midnightblue" stroke="midnightblue" points="189.7,-133.87 200.28,-134.4 192.34,-127.39 189.7,-133.87"/>
</g>
<!-- Node3 -->
<g id="node3" class="node">
<title>Node3</title>
<g id="a_node3"><a xlink:href="Champ__som__lu__VDF_8h.html" target="_top" xlink:title=" ">
<polygon fill="white" stroke="black" points="168,-67.5 168,-97.5 302,-97.5 302,-67.5 168,-67.5"/>
<text text-anchor="start" x="176" y="-85.5" font-family="Helvetica,sans-Serif" font-size="10.00">src/VDF/Champs/Champ</text>
<text text-anchor="middle" x="235" y="-74.5" font-family="Helvetica,sans-Serif" font-size="10.00">_som_lu_VDF.h</text>
</a>
</g>
</g>
<!-- Node1&#45;&gt;Node3 -->
<g id="edge2" class="edge">
<title>Node1&#45;&gt;Node3</title>
<path fill="none" stroke="midnightblue" d="M235,-124.11C235,-115.15 235,-105.32 235,-97.58"/>
<polygon fill="midnightblue" stroke="midnightblue" points="231.5,-124.4 235,-134.4 238.5,-124.4 231.5,-124.4"/>
</g>
<!-- Node5 -->
<g id="node5" class="node">
<title>Node5</title>
<g id="a_node5"><a xlink:href="Champ__som__lu__VEF_8h.html" target="_top" xlink:title=" ">
<polygon fill="white" stroke="black" points="320.5,-67.5 320.5,-97.5 453.5,-97.5 453.5,-67.5 320.5,-67.5"/>
<text text-anchor="start" x="328.5" y="-85.5" font-family="Helvetica,sans-Serif" font-size="10.00">src/VEF/Champs/Champ</text>
<text text-anchor="middle" x="387" y="-74.5" font-family="Helvetica,sans-Serif" font-size="10.00">_som_lu_VEF.h</text>
</a>
</g>
</g>
<!-- Node1&#45;&gt;Node5 -->
<g id="edge4" class="edge">
<title>Node1&#45;&gt;Node5</title>
<path fill="none" stroke="midnightblue" d="M277.31,-130.41C301.58,-120.03 331.59,-107.2 354.08,-97.58"/>
<polygon fill="midnightblue" stroke="midnightblue" points="275.8,-127.25 267.98,-134.4 278.55,-133.68 275.8,-127.25"/>
</g>
<!-- Node4 -->
<g id="node4" class="node">
<title>Node4</title>
<g id="a_node4"><a xlink:href="Champ__som__lu__VDF_8cpp.html" target="_top" xlink:title=" ">
<polygon fill="white" stroke="black" points="168,-0.5 168,-30.5 302,-30.5 302,-0.5 168,-0.5"/>
<text text-anchor="start" x="176" y="-18.5" font-family="Helvetica,sans-Serif" font-size="10.00">src/VDF/Champs/Champ</text>
<text text-anchor="middle" x="235" y="-7.5" font-family="Helvetica,sans-Serif" font-size="10.00">_som_lu_VDF.cpp</text>
</a>
</g>
</g>
<!-- Node3&#45;&gt;Node4 -->
<g id="edge3" class="edge">
<title>Node3&#45;&gt;Node4</title>
<path fill="none" stroke="midnightblue" d="M235,-57.11C235,-48.15 235,-38.32 235,-30.58"/>
<polygon fill="midnightblue" stroke="midnightblue" points="231.5,-57.4 235,-67.4 238.5,-57.4 231.5,-57.4"/>
</g>
<!-- Node6 -->
<g id="node6" class="node">
<title>Node6</title>
<g id="a_node6"><a xlink:href="Champ__som__lu__VEF_8cpp.html" target="_top" xlink:title=" ">
<polygon fill="white" stroke="black" points="320.5,-0.5 320.5,-30.5 453.5,-30.5 453.5,-0.5 320.5,-0.5"/>
<text text-anchor="start" x="328.5" y="-18.5" font-family="Helvetica,sans-Serif" font-size="10.00">src/VEF/Champs/Champ</text>
<text text-anchor="middle" x="387" y="-7.5" font-family="Helvetica,sans-Serif" font-size="10.00">_som_lu_VEF.cpp</text>
</a>
</g>
</g>
<!-- Node5&#45;&gt;Node6 -->
<g id="edge5" class="edge">
<title>Node5&#45;&gt;Node6</title>
<path fill="none" stroke="midnightblue" d="M387,-57.11C387,-48.15 387,-38.32 387,-30.58"/>
<polygon fill="midnightblue" stroke="midnightblue" points="383.5,-57.4 387,-67.4 390.5,-57.4 383.5,-57.4"/>
</g>
</g>
</svg>
