<?xml version="1.0" encoding="UTF-8" standalone="no"?>
<!DOCTYPE svg PUBLIC "-//W3C//DTD SVG 1.1//EN"
 "http://www.w3.org/Graphics/SVG/1.1/DTD/svg11.dtd">
<!-- Generated by graphviz version 2.43.0 (0)
 -->
<!-- Title: src/EF/Champs/Champ_Fonc_Q1_EF.h Pages: 1 -->
<svg width="316pt" height="106pt"
 viewBox="0.00 0.00 316.00 106.00" xmlns="http://www.w3.org/2000/svg" xmlns:xlink="http://www.w3.org/1999/xlink">
<g id="graph0" class="graph" transform="scale(1 1) rotate(0) translate(4 102)">
<title>src/EF/Champs/Champ_Fonc_Q1_EF.h</title>
<polygon fill="white" stroke="transparent" points="-4,4 -4,-102 312,-102 312,4 -4,4"/>
<!-- Node1 -->
<g id="node1" class="node">
<title>Node1</title>
<g id="a_node1"><a xlink:title=" ">
<polygon fill="#bfbfbf" stroke="black" points="81,-67.5 81,-97.5 207,-97.5 207,-67.5 81,-67.5"/>
<text text-anchor="start" x="89" y="-85.5" font-family="Helvetica,sans-Serif" font-size="10.00">src/EF/Champs/Champ</text>
<text text-anchor="middle" x="144" y="-74.5" font-family="Helvetica,sans-Serif" font-size="10.00">_Fonc_Q1_EF.h</text>
</a>
</g>
</g>
<!-- Node2 -->
<g id="node2" class="node">
<title>Node2</title>
<g id="a_node2"><a xlink:href="Champ__Fonc__Q1__EF_8cpp.html" target="_top" xlink:title=" ">
<polygon fill="white" stroke="black" points="0,-0.5 0,-30.5 126,-30.5 126,-0.5 0,-0.5"/>
<text text-anchor="start" x="8" y="-18.5" font-family="Helvetica,sans-Serif" font-size="10.00">src/EF/Champs/Champ</text>
<text text-anchor="middle" x="63" y="-7.5" font-family="Helvetica,sans-Serif" font-size="10.00">_Fonc_Q1_EF.cpp</text>
</a>
</g>
</g>
<!-- Node1&#45;&gt;Node2 -->
<g id="edge1" class="edge">
<title>Node1&#45;&gt;Node2</title>
<path fill="none" stroke="midnightblue" d="M118.31,-60.88C106,-51.01 91.57,-39.43 80.54,-30.58"/>
<polygon fill="midnightblue" stroke="midnightblue" points="116.43,-63.87 126.42,-67.4 120.82,-58.41 116.43,-63.87"/>
</g>
<!-- Node3 -->
<g id="node3" class="node">
<title>Node3</title>
<g id="a_node3"><a xlink:href="Assembleur__P__EF_8cpp.html" target="_top" xlink:title=" ">
<polygon fill="white" stroke="black" points="144,-0.5 144,-30.5 308,-30.5 308,-0.5 144,-0.5"/>
<text text-anchor="start" x="152" y="-18.5" font-family="Helvetica,sans-Serif" font-size="10.00">src/EF/Operateurs/Assembleur</text>
<text text-anchor="middle" x="226" y="-7.5" font-family="Helvetica,sans-Serif" font-size="10.00">_P_EF.cpp</text>
</a>
</g>
</g>
<!-- Node1&#45;&gt;Node3 -->
<g id="edge2" class="edge">
<title>Node1&#45;&gt;Node3</title>
<path fill="none" stroke="midnightblue" d="M169.65,-61.17C182.19,-51.23 196.97,-39.51 208.24,-30.58"/>
<polygon fill="midnightblue" stroke="midnightblue" points="167.46,-58.44 161.79,-67.4 171.8,-63.93 167.46,-58.44"/>
</g>
</g>
</svg>
