<?xml version="1.0" encoding="UTF-8" standalone="no"?>
<!DOCTYPE svg PUBLIC "-//W3C//DTD SVG 1.1//EN"
 "http://www.w3.org/Graphics/SVG/1.1/DTD/svg11.dtd">
<!-- Generated by graphviz version 2.43.0 (0)
 -->
<!-- Title: src/Kernel/Champs/Champ_Generique_Operateur_base.h Pages: 1 -->
<svg width="701pt" height="184pt"
 viewBox="0.00 0.00 701.00 184.00" xmlns="http://www.w3.org/2000/svg" xmlns:xlink="http://www.w3.org/1999/xlink">
<g id="graph0" class="graph" transform="scale(1 1) rotate(0) translate(4 180)">
<title>src/Kernel/Champs/Champ_Generique_Operateur_base.h</title>
<polygon fill="white" stroke="transparent" points="-4,4 -4,-180 697,-180 697,4 -4,4"/>
<!-- Node1 -->
<g id="node1" class="node">
<title>Node1</title>
<g id="a_node1"><a xlink:title=" ">
<polygon fill="#bfbfbf" stroke="black" points="249.5,-145.5 249.5,-175.5 413.5,-175.5 413.5,-145.5 249.5,-145.5"/>
<text text-anchor="start" x="257.5" y="-163.5" font-family="Helvetica,sans-Serif" font-size="10.00">src/Kernel/Champs/Champ</text>
<text text-anchor="middle" x="331.5" y="-152.5" font-family="Helvetica,sans-Serif" font-size="10.00">_Generique_Operateur_base.h</text>
</a>
</g>
</g>
<!-- Node2 -->
<g id="node2" class="node">
<title>Node2</title>
<g id="a_node2"><a xlink:href="Champ__Generique__Divergence_8h.html" target="_top" xlink:title=" ">
<polygon fill="white" stroke="black" points="6,-78.5 6,-108.5 151,-108.5 151,-78.5 6,-78.5"/>
<text text-anchor="start" x="14" y="-96.5" font-family="Helvetica,sans-Serif" font-size="10.00">src/Kernel/Champs/Champ</text>
<text text-anchor="middle" x="78.5" y="-85.5" font-family="Helvetica,sans-Serif" font-size="10.00">_Generique_Divergence.h</text>
</a>
</g>
</g>
<!-- Node1&#45;&gt;Node2 -->
<g id="edge1" class="edge">
<title>Node1&#45;&gt;Node2</title>
<path fill="none" stroke="midnightblue" d="M267.22,-142.98C225.89,-132.37 172.77,-118.72 133.42,-108.61"/>
<polygon fill="midnightblue" stroke="midnightblue" points="266.36,-146.38 276.91,-145.48 268.1,-139.6 266.36,-146.38"/>
</g>
<!-- Node4 -->
<g id="node4" class="node">
<title>Node4</title>
<g id="a_node4"><a xlink:href="Champ__Generique__Gradient_8h.html" target="_top" xlink:title=" ">
<polygon fill="white" stroke="black" points="170,-78.5 170,-108.5 315,-108.5 315,-78.5 170,-78.5"/>
<text text-anchor="start" x="178" y="-96.5" font-family="Helvetica,sans-Serif" font-size="10.00">src/Kernel/Champs/Champ</text>
<text text-anchor="middle" x="242.5" y="-85.5" font-family="Helvetica,sans-Serif" font-size="10.00">_Generique_Gradient.h</text>
</a>
</g>
</g>
<!-- Node1&#45;&gt;Node4 -->
<g id="edge3" class="edge">
<title>Node1&#45;&gt;Node4</title>
<path fill="none" stroke="midnightblue" d="M304.05,-139.45C290.36,-129.45 274.13,-117.6 261.77,-108.58"/>
<polygon fill="midnightblue" stroke="midnightblue" points="302.05,-142.32 312.19,-145.4 306.18,-136.67 302.05,-142.32"/>
</g>
<!-- Node6 -->
<g id="node6" class="node">
<title>Node6</title>
<g id="a_node6"><a xlink:href="Champ__Generique__Operateur__base_8cpp.html" target="_top" xlink:title=" ">
<polygon fill="white" stroke="black" points="333,-78.5 333,-108.5 508,-108.5 508,-78.5 333,-78.5"/>
<text text-anchor="start" x="341" y="-96.5" font-family="Helvetica,sans-Serif" font-size="10.00">src/Kernel/Champs/Champ</text>
<text text-anchor="middle" x="420.5" y="-85.5" font-family="Helvetica,sans-Serif" font-size="10.00">_Generique_Operateur_base.cpp</text>
</a>
</g>
</g>
<!-- Node1&#45;&gt;Node6 -->
<g id="edge5" class="edge">
<title>Node1&#45;&gt;Node6</title>
<path fill="none" stroke="midnightblue" d="M358.95,-139.45C372.64,-129.45 388.87,-117.6 401.23,-108.58"/>
<polygon fill="midnightblue" stroke="midnightblue" points="356.82,-136.67 350.81,-145.4 360.95,-142.32 356.82,-136.67"/>
</g>
<!-- Node7 -->
<g id="node7" class="node">
<title>Node7</title>
<g id="a_node7"><a xlink:href="Champ__Post__Operateur__Eqn_8h.html" target="_top" xlink:title=" ">
<polygon fill="white" stroke="black" points="526,-78.5 526,-108.5 693,-108.5 693,-78.5 526,-78.5"/>
<text text-anchor="start" x="534" y="-96.5" font-family="Helvetica,sans-Serif" font-size="10.00">src/Kernel/Champs_dis</text>
<text text-anchor="middle" x="609.5" y="-85.5" font-family="Helvetica,sans-Serif" font-size="10.00">/Champ_Post_Operateur_Eqn.h</text>
</a>
</g>
</g>
<!-- Node1&#45;&gt;Node7 -->
<g id="edge6" class="edge">
<title>Node1&#45;&gt;Node7</title>
<path fill="none" stroke="midnightblue" d="M401.28,-143.19C446.8,-132.54 505.64,-118.78 549.15,-108.61"/>
<polygon fill="midnightblue" stroke="midnightblue" points="400.42,-139.79 391.48,-145.48 402.01,-146.61 400.42,-139.79"/>
</g>
<!-- Node3 -->
<g id="node3" class="node">
<title>Node3</title>
<g id="a_node3"><a xlink:href="Champ__Generique__Divergence_8cpp.html" target="_top" xlink:title=" ">
<polygon fill="white" stroke="black" points="0,-6 0,-36 153,-36 153,-6 0,-6"/>
<text text-anchor="start" x="8" y="-24" font-family="Helvetica,sans-Serif" font-size="10.00">src/Kernel/Champs/Champ</text>
<text text-anchor="middle" x="76.5" y="-13" font-family="Helvetica,sans-Serif" font-size="10.00">_Generique_Divergence.cpp</text>
</a>
</g>
</g>
<!-- Node2&#45;&gt;Node3 -->
<g id="edge2" class="edge">
<title>Node2&#45;&gt;Node3</title>
<path fill="none" stroke="midnightblue" d="M77.81,-68.23C77.51,-57.57 77.16,-45.41 76.9,-36.25"/>
<polygon fill="midnightblue" stroke="midnightblue" points="74.31,-68.34 78.1,-78.23 81.31,-68.14 74.31,-68.34"/>
</g>
<!-- Node5 -->
<g id="node5" class="node">
<title>Node5</title>
<g id="a_node5"><a xlink:href="Champ__Generique__Gradient_8cpp.html" target="_top" xlink:title=" ">
<polygon fill="white" stroke="black" points="171,-6 171,-36 316,-36 316,-6 171,-6"/>
<text text-anchor="start" x="179" y="-24" font-family="Helvetica,sans-Serif" font-size="10.00">src/Kernel/Champs/Champ</text>
<text text-anchor="middle" x="243.5" y="-13" font-family="Helvetica,sans-Serif" font-size="10.00">_Generique_Gradient.cpp</text>
</a>
</g>
</g>
<!-- Node4&#45;&gt;Node5 -->
<g id="edge4" class="edge">
<title>Node4&#45;&gt;Node5</title>
<path fill="none" stroke="midnightblue" d="M242.84,-68.23C243,-57.57 243.17,-45.41 243.3,-36.25"/>
<polygon fill="midnightblue" stroke="midnightblue" points="239.34,-68.18 242.7,-78.23 246.34,-68.28 239.34,-68.18"/>
</g>
<!-- Node8 -->
<g id="node8" class="node">
<title>Node8</title>
<g id="a_node8"><a xlink:href="Champ__Post__Operateur__Eqn_8cpp.html" target="_top" xlink:title=" ">
<polygon fill="white" stroke="black" points="542.5,-0.5 542.5,-41.5 676.5,-41.5 676.5,-0.5 542.5,-0.5"/>
<text text-anchor="start" x="550.5" y="-29.5" font-family="Helvetica,sans-Serif" font-size="10.00">src/Kernel/Champs_dis</text>
<text text-anchor="start" x="550.5" y="-18.5" font-family="Helvetica,sans-Serif" font-size="10.00">/Champ_Post_Operateur</text>
<text text-anchor="middle" x="609.5" y="-7.5" font-family="Helvetica,sans-Serif" font-size="10.00">_Eqn.cpp</text>
</a>
</g>
</g>
<!-- Node7&#45;&gt;Node8 -->
<g id="edge7" class="edge">
<title>Node7&#45;&gt;Node8</title>
<path fill="none" stroke="midnightblue" d="M609.5,-67.98C609.5,-59.35 609.5,-49.76 609.5,-41.59"/>
<polygon fill="midnightblue" stroke="midnightblue" points="606,-68.23 609.5,-78.23 613,-68.23 606,-68.23"/>
</g>
</g>
</svg>
