<?xml version="1.0" encoding="UTF-8" standalone="no"?>
<!DOCTYPE svg PUBLIC "-//W3C//DTD SVG 1.1//EN"
 "http://www.w3.org/Graphics/SVG/1.1/DTD/svg11.dtd">
<!-- Generated by graphviz version 2.43.0 (0)
 -->
<!-- Title: src/Kernel/Champs/Champ_Generique_refChamp.h Pages: 1 -->
<svg width="1981pt" height="184pt"
 viewBox="0.00 0.00 1981.00 184.00" xmlns="http://www.w3.org/2000/svg" xmlns:xlink="http://www.w3.org/1999/xlink">
<g id="graph0" class="graph" transform="scale(1 1) rotate(0) translate(4 180)">
<title>src/Kernel/Champs/Champ_Generique_refChamp.h</title>
<polygon fill="white" stroke="transparent" points="-4,4 -4,-180 1977,-180 1977,4 -4,4"/>
<!-- Node1 -->
<g id="node1" class="node">
<title>Node1</title>
<g id="a_node1"><a xlink:title=" ">
<polygon fill="#bfbfbf" stroke="black" points="943,-145.5 943,-175.5 1088,-175.5 1088,-145.5 943,-145.5"/>
<text text-anchor="start" x="951" y="-163.5" font-family="Helvetica,sans-Serif" font-size="10.00">src/Kernel/Champs/Champ</text>
<text text-anchor="middle" x="1015.5" y="-152.5" font-family="Helvetica,sans-Serif" font-size="10.00">_Generique_refChamp.h</text>
</a>
</g>
</g>
<!-- Node2 -->
<g id="node2" class="node">
<title>Node2</title>
<g id="a_node2"><a xlink:href="Champ__Gen__de__Champs__Gen_8cpp.html" target="_top" xlink:title=" ">
<polygon fill="white" stroke="black" points="0,-73 0,-103 149,-103 149,-73 0,-73"/>
<text text-anchor="start" x="8" y="-91" font-family="Helvetica,sans-Serif" font-size="10.00">src/Kernel/Champs/Champ</text>
<text text-anchor="middle" x="74.5" y="-80" font-family="Helvetica,sans-Serif" font-size="10.00">_Gen_de_Champs_Gen.cpp</text>
</a>
</g>
</g>
<!-- Node1&#45;&gt;Node2 -->
<g id="edge1" class="edge">
<title>Node1&#45;&gt;Node2</title>
<path fill="none" stroke="midnightblue" d="M932.43,-159.5C778.65,-158.41 439.56,-150.94 157.5,-109 147.38,-107.5 136.69,-105.35 126.47,-103.02"/>
<polygon fill="midnightblue" stroke="midnightblue" points="932.71,-163 942.74,-159.56 932.76,-156 932.71,-163"/>
</g>
<!-- Node3 -->
<g id="node3" class="node">
<title>Node3</title>
<g id="a_node3"><a xlink:href="Champ__Generique__Champ_8h.html" target="_top" xlink:title=" ">
<polygon fill="white" stroke="black" points="167,-73 167,-103 312,-103 312,-73 167,-73"/>
<text text-anchor="start" x="175" y="-91" font-family="Helvetica,sans-Serif" font-size="10.00">src/Kernel/Champs/Champ</text>
<text text-anchor="middle" x="239.5" y="-80" font-family="Helvetica,sans-Serif" font-size="10.00">_Generique_Champ.h</text>
</a>
</g>
</g>
<!-- Node1&#45;&gt;Node3 -->
<g id="edge2" class="edge">
<title>Node1&#45;&gt;Node3</title>
<path fill="none" stroke="midnightblue" d="M932.41,-158.01C801.51,-154.63 539.64,-143.76 320.5,-109 310.77,-107.46 300.5,-105.32 290.65,-103.02"/>
<polygon fill="midnightblue" stroke="midnightblue" points="932.66,-161.51 942.75,-158.26 932.84,-154.52 932.66,-161.51"/>
</g>
<!-- Node5 -->
<g id="node5" class="node">
<title>Node5</title>
<g id="a_node5"><a xlink:href="Champ__Generique__Divergence_8cpp.html" target="_top" xlink:title=" ">
<polygon fill="white" stroke="black" points="330,-73 330,-103 483,-103 483,-73 330,-73"/>
<text text-anchor="start" x="338" y="-91" font-family="Helvetica,sans-Serif" font-size="10.00">src/Kernel/Champs/Champ</text>
<text text-anchor="middle" x="406.5" y="-80" font-family="Helvetica,sans-Serif" font-size="10.00">_Generique_Divergence.cpp</text>
</a>
</g>
</g>
<!-- Node1&#45;&gt;Node5 -->
<g id="edge4" class="edge">
<title>Node1&#45;&gt;Node5</title>
<path fill="none" stroke="midnightblue" d="M932.53,-154.97C828.84,-148.52 646.18,-134.53 491.5,-109 481.63,-107.37 471.2,-105.25 461.15,-103"/>
<polygon fill="midnightblue" stroke="midnightblue" points="932.43,-158.47 942.62,-155.59 932.86,-151.49 932.43,-158.47"/>
</g>
<!-- Node6 -->
<g id="node6" class="node">
<title>Node6</title>
<g id="a_node6"><a xlink:href="Champ__Generique__Extraction_8cpp.html" target="_top" xlink:title=" ">
<polygon fill="white" stroke="black" points="501,-73 501,-103 648,-103 648,-73 501,-73"/>
<text text-anchor="start" x="509" y="-91" font-family="Helvetica,sans-Serif" font-size="10.00">src/Kernel/Champs/Champ</text>
<text text-anchor="middle" x="574.5" y="-80" font-family="Helvetica,sans-Serif" font-size="10.00">_Generique_Extraction.cpp</text>
</a>
</g>
</g>
<!-- Node1&#45;&gt;Node6 -->
<g id="edge5" class="edge">
<title>Node1&#45;&gt;Node6</title>
<path fill="none" stroke="midnightblue" d="M932.89,-150.25C859.88,-141.51 750.66,-127.06 656.5,-109 647.58,-107.29 638.17,-105.23 629.03,-103.1"/>
<polygon fill="midnightblue" stroke="midnightblue" points="932.61,-153.74 942.95,-151.44 933.43,-146.79 932.61,-153.74"/>
</g>
<!-- Node7 -->
<g id="node7" class="node">
<title>Node7</title>
<g id="a_node7"><a xlink:href="Champ__Generique__Gradient_8cpp.html" target="_top" xlink:title=" ">
<polygon fill="white" stroke="black" points="666,-73 666,-103 811,-103 811,-73 666,-73"/>
<text text-anchor="start" x="674" y="-91" font-family="Helvetica,sans-Serif" font-size="10.00">src/Kernel/Champs/Champ</text>
<text text-anchor="middle" x="738.5" y="-80" font-family="Helvetica,sans-Serif" font-size="10.00">_Generique_Gradient.cpp</text>
</a>
</g>
</g>
<!-- Node1&#45;&gt;Node7 -->
<g id="edge6" class="edge">
<title>Node1&#45;&gt;Node7</title>
<path fill="none" stroke="midnightblue" d="M950.55,-142.97C902.98,-130.86 839.1,-114.6 793.93,-103.11"/>
<polygon fill="midnightblue" stroke="midnightblue" points="949.89,-146.41 960.44,-145.49 951.61,-139.63 949.89,-146.41"/>
</g>
<!-- Node8 -->
<g id="node8" class="node">
<title>Node8</title>
<g id="a_node8"><a xlink:href="Champ__Generique__Morceau__Equation_8cpp.html" target="_top" xlink:title=" ">
<polygon fill="white" stroke="black" points="829.5,-73 829.5,-103 1017.5,-103 1017.5,-73 829.5,-73"/>
<text text-anchor="start" x="837.5" y="-91" font-family="Helvetica,sans-Serif" font-size="10.00">src/Kernel/Champs/Champ</text>
<text text-anchor="middle" x="923.5" y="-80" font-family="Helvetica,sans-Serif" font-size="10.00">_Generique_Morceau_Equation.cpp</text>
</a>
</g>
</g>
<!-- Node1&#45;&gt;Node8 -->
<g id="edge7" class="edge">
<title>Node1&#45;&gt;Node8</title>
<path fill="none" stroke="midnightblue" d="M988.89,-139.11C973.78,-127.53 955.25,-113.33 941.78,-103"/>
<polygon fill="midnightblue" stroke="midnightblue" points="986.82,-141.93 996.88,-145.23 991.07,-136.37 986.82,-141.93"/>
</g>
<!-- Node9 -->
<g id="node9" class="node">
<title>Node9</title>
<g id="a_node9"><a xlink:href="Champ__Generique__refChamp_8cpp.html" target="_top" xlink:title=" ">
<polygon fill="white" stroke="black" points="1035.5,-73 1035.5,-103 1181.5,-103 1181.5,-73 1035.5,-73"/>
<text text-anchor="start" x="1043.5" y="-91" font-family="Helvetica,sans-Serif" font-size="10.00">src/Kernel/Champs/Champ</text>
<text text-anchor="middle" x="1108.5" y="-80" font-family="Helvetica,sans-Serif" font-size="10.00">_Generique_refChamp.cpp</text>
</a>
</g>
</g>
<!-- Node1&#45;&gt;Node9 -->
<g id="edge8" class="edge">
<title>Node1&#45;&gt;Node9</title>
<path fill="none" stroke="midnightblue" d="M1042.4,-139.11C1057.67,-127.53 1076.41,-113.33 1090.03,-103"/>
<polygon fill="midnightblue" stroke="midnightblue" points="1040.17,-136.4 1034.32,-145.23 1044.4,-141.98 1040.17,-136.4"/>
</g>
<!-- Node10 -->
<g id="node10" class="node">
<title>Node10</title>
<g id="a_node10"><a xlink:href="Champ__Generique__refChamp__special_8h.html" target="_top" xlink:title=" ">
<polygon fill="white" stroke="black" points="1199.5,-73 1199.5,-103 1373.5,-103 1373.5,-73 1199.5,-73"/>
<text text-anchor="start" x="1207.5" y="-91" font-family="Helvetica,sans-Serif" font-size="10.00">src/Kernel/Champs/Champ</text>
<text text-anchor="middle" x="1286.5" y="-80" font-family="Helvetica,sans-Serif" font-size="10.00">_Generique_refChamp_special.h</text>
</a>
</g>
</g>
<!-- Node1&#45;&gt;Node10 -->
<g id="edge9" class="edge">
<title>Node1&#45;&gt;Node10</title>
<path fill="none" stroke="midnightblue" d="M1079.33,-142.89C1125.84,-130.79 1188.17,-114.58 1232.27,-103.11"/>
<polygon fill="midnightblue" stroke="midnightblue" points="1078.16,-139.58 1069.36,-145.49 1079.92,-146.36 1078.16,-139.58"/>
</g>
<!-- Node12 -->
<g id="node12" class="node">
<title>Node12</title>
<g id="a_node12"><a xlink:href="Champ__Post__Operateur__Eqn_8cpp.html" target="_top" xlink:title=" ">
<polygon fill="white" stroke="black" points="1391.5,-67.5 1391.5,-108.5 1525.5,-108.5 1525.5,-67.5 1391.5,-67.5"/>
<text text-anchor="start" x="1399.5" y="-96.5" font-family="Helvetica,sans-Serif" font-size="10.00">src/Kernel/Champs_dis</text>
<text text-anchor="start" x="1399.5" y="-85.5" font-family="Helvetica,sans-Serif" font-size="10.00">/Champ_Post_Operateur</text>
<text text-anchor="middle" x="1458.5" y="-74.5" font-family="Helvetica,sans-Serif" font-size="10.00">_Eqn.cpp</text>
</a>
</g>
</g>
<!-- Node1&#45;&gt;Node12 -->
<g id="edge11" class="edge">
<title>Node1&#45;&gt;Node12</title>
<path fill="none" stroke="midnightblue" d="M1098.29,-151C1172.98,-142.64 1285.67,-128.33 1382.5,-109 1385.44,-108.41 1388.44,-107.78 1391.47,-107.11"/>
<polygon fill="midnightblue" stroke="midnightblue" points="1097.56,-147.55 1088,-152.13 1098.33,-154.51 1097.56,-147.55"/>
</g>
<!-- Node13 -->
<g id="node13" class="node">
<title>Node13</title>
<g id="a_node13"><a xlink:href="Postraitement_8cpp.html" target="_top" xlink:title=" ">
<polygon fill="white" stroke="black" points="1543.5,-73 1543.5,-103 1665.5,-103 1665.5,-73 1543.5,-73"/>
<text text-anchor="start" x="1551.5" y="-91" font-family="Helvetica,sans-Serif" font-size="10.00">src/Kernel/Framework</text>
<text text-anchor="middle" x="1604.5" y="-80" font-family="Helvetica,sans-Serif" font-size="10.00">/Postraitement.cpp</text>
</a>
</g>
</g>
<!-- Node1&#45;&gt;Node13 -->
<g id="edge12" class="edge">
<title>Node1&#45;&gt;Node13</title>
<path fill="none" stroke="midnightblue" d="M1098.32,-156.07C1201.31,-150.75 1382.15,-137.93 1534.5,-109 1542.82,-107.42 1551.58,-105.3 1559.98,-103.02"/>
<polygon fill="midnightblue" stroke="midnightblue" points="1098.1,-152.58 1088.29,-156.58 1098.46,-159.57 1098.1,-152.58"/>
</g>
<!-- Node14 -->
<g id="node14" class="node">
<title>Node14</title>
<g id="a_node14"><a xlink:href="Sonde_8cpp.html" target="_top" xlink:title=" ">
<polygon fill="white" stroke="black" points="1683.5,-73 1683.5,-103 1805.5,-103 1805.5,-73 1683.5,-73"/>
<text text-anchor="start" x="1691.5" y="-91" font-family="Helvetica,sans-Serif" font-size="10.00">src/Kernel/Framework</text>
<text text-anchor="middle" x="1744.5" y="-80" font-family="Helvetica,sans-Serif" font-size="10.00">/Sonde.cpp</text>
</a>
</g>
</g>
<!-- Node1&#45;&gt;Node14 -->
<g id="edge13" class="edge">
<title>Node1&#45;&gt;Node14</title>
<path fill="none" stroke="midnightblue" d="M1098.57,-158.49C1224.2,-155.76 1469.62,-145.73 1674.5,-109 1682.96,-107.48 1691.86,-105.36 1700.38,-103.06"/>
<polygon fill="midnightblue" stroke="midnightblue" points="1098.19,-155 1088.26,-158.7 1098.33,-162 1098.19,-155"/>
</g>
<!-- Node15 -->
<g id="node15" class="node">
<title>Node15</title>
<g id="a_node15"><a xlink:href="Op__Correlation_8cpp.html" target="_top" xlink:title=" ">
<polygon fill="white" stroke="black" points="1824,-73 1824,-103 1973,-103 1973,-73 1824,-73"/>
<text text-anchor="start" x="1832" y="-91" font-family="Helvetica,sans-Serif" font-size="10.00">src/Kernel/Statistiques</text>
<text text-anchor="middle" x="1898.5" y="-80" font-family="Helvetica,sans-Serif" font-size="10.00">_temps/Op_Correlation.cpp</text>
</a>
</g>
</g>
<!-- Node1&#45;&gt;Node15 -->
<g id="edge14" class="edge">
<title>Node1&#45;&gt;Node15</title>
<path fill="none" stroke="midnightblue" d="M1098.3,-158.91C1243.93,-156.83 1555.08,-147.79 1814.5,-109 1824.58,-107.49 1835.23,-105.37 1845.44,-103.08"/>
<polygon fill="midnightblue" stroke="midnightblue" points="1098.05,-155.41 1088.1,-159.04 1098.15,-162.41 1098.05,-155.41"/>
</g>
<!-- Node4 -->
<g id="node4" class="node">
<title>Node4</title>
<g id="a_node4"><a xlink:href="Champ__Generique__Champ_8cpp.html" target="_top" xlink:title=" ">
<polygon fill="white" stroke="black" points="167,-0.5 167,-30.5 312,-30.5 312,-0.5 167,-0.5"/>
<text text-anchor="start" x="175" y="-18.5" font-family="Helvetica,sans-Serif" font-size="10.00">src/Kernel/Champs/Champ</text>
<text text-anchor="middle" x="239.5" y="-7.5" font-family="Helvetica,sans-Serif" font-size="10.00">_Generique_Champ.cpp</text>
</a>
</g>
</g>
<!-- Node3&#45;&gt;Node4 -->
<g id="edge3" class="edge">
<title>Node3&#45;&gt;Node4</title>
<path fill="none" stroke="midnightblue" d="M239.5,-62.73C239.5,-52.07 239.5,-39.91 239.5,-30.75"/>
<polygon fill="midnightblue" stroke="midnightblue" points="236,-62.73 239.5,-72.73 243,-62.73 236,-62.73"/>
</g>
<!-- Node11 -->
<g id="node11" class="node">
<title>Node11</title>
<g id="a_node11"><a xlink:href="Champ__Generique__refChamp__special_8cpp.html" target="_top" xlink:title=" ">
<polygon fill="white" stroke="black" points="1194,-0.5 1194,-30.5 1379,-30.5 1379,-0.5 1194,-0.5"/>
<text text-anchor="start" x="1202" y="-18.5" font-family="Helvetica,sans-Serif" font-size="10.00">src/Kernel/Champs/Champ</text>
<text text-anchor="middle" x="1286.5" y="-7.5" font-family="Helvetica,sans-Serif" font-size="10.00">_Generique_refChamp_special.cpp</text>
</a>
</g>
</g>
<!-- Node10&#45;&gt;Node11 -->
<g id="edge10" class="edge">
<title>Node10&#45;&gt;Node11</title>
<path fill="none" stroke="midnightblue" d="M1286.5,-62.73C1286.5,-52.07 1286.5,-39.91 1286.5,-30.75"/>
<polygon fill="midnightblue" stroke="midnightblue" points="1283,-62.73 1286.5,-72.73 1290,-62.73 1283,-62.73"/>
</g>
</g>
</svg>
