<?xml version="1.0" encoding="UTF-8" standalone="no"?>
<!DOCTYPE svg PUBLIC "-//W3C//DTD SVG 1.1//EN"
 "http://www.w3.org/Graphics/SVG/1.1/DTD/svg11.dtd">
<!-- Generated by graphviz version 2.43.0 (0)
 -->
<!-- Title: src/VDF/Champs/Champ_Ostwald_VDF.h Pages: 1 -->
<svg width="362pt" height="106pt"
 viewBox="0.00 0.00 362.00 106.00" xmlns="http://www.w3.org/2000/svg" xmlns:xlink="http://www.w3.org/1999/xlink">
<g id="graph0" class="graph" transform="scale(1 1) rotate(0) translate(4 102)">
<title>src/VDF/Champs/Champ_Ostwald_VDF.h</title>
<polygon fill="white" stroke="transparent" points="-4,4 -4,-102 358,-102 358,4 -4,4"/>
<!-- Node1 -->
<g id="node1" class="node">
<title>Node1</title>
<g id="a_node1"><a xlink:title=" ">
<polygon fill="#bfbfbf" stroke="black" points="93,-67.5 93,-97.5 227,-97.5 227,-67.5 93,-67.5"/>
<text text-anchor="start" x="101" y="-85.5" font-family="Helvetica,sans-Serif" font-size="10.00">src/VDF/Champs/Champ</text>
<text text-anchor="middle" x="160" y="-74.5" font-family="Helvetica,sans-Serif" font-size="10.00">_Ostwald_VDF.h</text>
</a>
</g>
</g>
<!-- Node2 -->
<g id="node2" class="node">
<title>Node2</title>
<g id="a_node2"><a xlink:href="Champ__Ostwald__VDF_8cpp.html" target="_top" xlink:title=" ">
<polygon fill="white" stroke="black" points="0,-0.5 0,-30.5 134,-30.5 134,-0.5 0,-0.5"/>
<text text-anchor="start" x="8" y="-18.5" font-family="Helvetica,sans-Serif" font-size="10.00">src/VDF/Champs/Champ</text>
<text text-anchor="middle" x="67" y="-7.5" font-family="Helvetica,sans-Serif" font-size="10.00">_Ostwald_VDF.cpp</text>
</a>
</g>
</g>
<!-- Node1&#45;&gt;Node2 -->
<g id="edge1" class="edge">
<title>Node1&#45;&gt;Node2</title>
<path fill="none" stroke="midnightblue" d="M131.31,-61.45C117.01,-51.45 100.05,-39.6 87.14,-30.58"/>
<polygon fill="midnightblue" stroke="midnightblue" points="129.62,-64.54 139.82,-67.4 133.63,-58.8 129.62,-64.54"/>
</g>
<!-- Node3 -->
<g id="node3" class="node">
<title>Node3</title>
<g id="a_node3"><a xlink:href="VDF__discretisation_8cpp.html" target="_top" xlink:title=" ">
<polygon fill="white" stroke="black" points="152,-6 152,-25 354,-25 354,-6 152,-6"/>
<text text-anchor="middle" x="253" y="-13" font-family="Helvetica,sans-Serif" font-size="10.00">src/VDF/Zones/VDF_discretisation.cpp</text>
</a>
</g>
</g>
<!-- Node1&#45;&gt;Node3 -->
<g id="edge2" class="edge">
<title>Node1&#45;&gt;Node3</title>
<path fill="none" stroke="midnightblue" d="M188.41,-61.64C205.96,-49.37 227.59,-34.26 240.83,-25.01"/>
<polygon fill="midnightblue" stroke="midnightblue" points="186.37,-58.8 180.18,-67.4 190.38,-64.54 186.37,-58.8"/>
</g>
</g>
</svg>
