<?xml version="1.0" encoding="UTF-8" standalone="no"?>
<!DOCTYPE svg PUBLIC "-//W3C//DTD SVG 1.1//EN"
 "http://www.w3.org/Graphics/SVG/1.1/DTD/svg11.dtd">
<!-- Generated by graphviz version 2.43.0 (0)
 -->
<!-- Title: src/Kernel/Champs/Champ_Fonc_Fonction.h Pages: 1 -->
<svg width="749pt" height="195pt"
 viewBox="0.00 0.00 748.50 195.00" xmlns="http://www.w3.org/2000/svg" xmlns:xlink="http://www.w3.org/1999/xlink">
<g id="graph0" class="graph" transform="scale(1 1) rotate(0) translate(4 191)">
<title>src/Kernel/Champs/Champ_Fonc_Fonction.h</title>
<polygon fill="white" stroke="transparent" points="-4,4 -4,-191 744.5,-191 744.5,4 -4,4"/>
<!-- Node1 -->
<g id="node1" class="node">
<title>Node1</title>
<g id="a_node1"><a xlink:title=" ">
<polygon fill="#bfbfbf" stroke="black" points="319,-156.5 319,-186.5 464,-186.5 464,-156.5 319,-156.5"/>
<text text-anchor="start" x="327" y="-174.5" font-family="Helvetica,sans-Serif" font-size="10.00">src/Kernel/Champs/Champ</text>
<text text-anchor="middle" x="391.5" y="-163.5" font-family="Helvetica,sans-Serif" font-size="10.00">_Fonc_Fonction.h</text>
</a>
</g>
</g>
<!-- Node2 -->
<g id="node2" class="node">
<title>Node2</title>
<g id="a_node2"><a xlink:href="Champ__Fonc__Fonction_8cpp.html" target="_top" xlink:title=" ">
<polygon fill="white" stroke="black" points="0,-78.5 0,-108.5 145,-108.5 145,-78.5 0,-78.5"/>
<text text-anchor="start" x="8" y="-96.5" font-family="Helvetica,sans-Serif" font-size="10.00">src/Kernel/Champs/Champ</text>
<text text-anchor="middle" x="72.5" y="-85.5" font-family="Helvetica,sans-Serif" font-size="10.00">_Fonc_Fonction.cpp</text>
</a>
</g>
</g>
<!-- Node1&#45;&gt;Node2 -->
<g id="edge1" class="edge">
<title>Node1&#45;&gt;Node2</title>
<path fill="none" stroke="midnightblue" d="M308.88,-154.83C263.14,-145.67 205.41,-133.31 154.5,-120 141.66,-116.64 127.84,-112.54 115.27,-108.61"/>
<polygon fill="midnightblue" stroke="midnightblue" points="308.26,-158.27 318.75,-156.79 309.62,-151.41 308.26,-158.27"/>
</g>
<!-- Node3 -->
<g id="node3" class="node">
<title>Node3</title>
<g id="a_node3"><a xlink:href="Champ__Fonc__Fonction__txyz_8h.html" target="_top" xlink:title=" ">
<polygon fill="white" stroke="black" points="163,-78.5 163,-108.5 308,-108.5 308,-78.5 163,-78.5"/>
<text text-anchor="start" x="171" y="-96.5" font-family="Helvetica,sans-Serif" font-size="10.00">src/Kernel/Champs/Champ</text>
<text text-anchor="middle" x="235.5" y="-85.5" font-family="Helvetica,sans-Serif" font-size="10.00">_Fonc_Fonction_txyz.h</text>
</a>
</g>
</g>
<!-- Node1&#45;&gt;Node3 -->
<g id="edge2" class="edge">
<title>Node1&#45;&gt;Node3</title>
<path fill="none" stroke="midnightblue" d="M353.22,-151.85C325.76,-138.47 289.34,-120.73 264.32,-108.54"/>
<polygon fill="midnightblue" stroke="midnightblue" points="352,-155.15 362.52,-156.38 355.07,-148.86 352,-155.15"/>
</g>
<!-- Node5 -->
<g id="node5" class="node">
<title>Node5</title>
<g id="a_node5"><a xlink:href="Fluide__Dilatable__base_8cpp.html" target="_top" xlink:title=" ">
<polygon fill="white" stroke="black" points="326.5,-73 326.5,-114 456.5,-114 456.5,-73 326.5,-73"/>
<text text-anchor="start" x="334.5" y="-102" font-family="Helvetica,sans-Serif" font-size="10.00">src/ThHyd/Dilatable</text>
<text text-anchor="start" x="334.5" y="-91" font-family="Helvetica,sans-Serif" font-size="10.00">/Common/Milieu/Fluide</text>
<text text-anchor="middle" x="391.5" y="-80" font-family="Helvetica,sans-Serif" font-size="10.00">_Dilatable_base.cpp</text>
</a>
</g>
</g>
<!-- Node1&#45;&gt;Node5 -->
<g id="edge4" class="edge">
<title>Node1&#45;&gt;Node5</title>
<path fill="none" stroke="midnightblue" d="M391.5,-146.16C391.5,-135.83 391.5,-123.94 391.5,-114.18"/>
<polygon fill="midnightblue" stroke="midnightblue" points="388,-146.2 391.5,-156.2 395,-146.21 388,-146.2"/>
</g>
<!-- Node6 -->
<g id="node6" class="node">
<title>Node6</title>
<g id="a_node6"><a xlink:href="Fluide__Quasi__Compressible_8cpp.html" target="_top" xlink:title=" ">
<polygon fill="white" stroke="black" points="475,-67.5 475,-119.5 594,-119.5 594,-67.5 475,-67.5"/>
<text text-anchor="start" x="483" y="-107.5" font-family="Helvetica,sans-Serif" font-size="10.00">src/ThHyd/Dilatable</text>
<text text-anchor="start" x="483" y="-96.5" font-family="Helvetica,sans-Serif" font-size="10.00">/Quasi_Compressible</text>
<text text-anchor="start" x="483" y="-85.5" font-family="Helvetica,sans-Serif" font-size="10.00">/Milieu/Fluide_Quasi</text>
<text text-anchor="middle" x="534.5" y="-74.5" font-family="Helvetica,sans-Serif" font-size="10.00">_Compressible.cpp</text>
</a>
</g>
</g>
<!-- Node1&#45;&gt;Node6 -->
<g id="edge5" class="edge">
<title>Node1&#45;&gt;Node6</title>
<path fill="none" stroke="midnightblue" d="M427.15,-151.55C445.32,-141.9 467.66,-130.02 487.24,-119.62"/>
<polygon fill="midnightblue" stroke="midnightblue" points="425.25,-148.6 418.06,-156.38 428.54,-154.78 425.25,-148.6"/>
</g>
<!-- Node7 -->
<g id="node7" class="node">
<title>Node7</title>
<g id="a_node7"><a xlink:href="Fluide__Weakly__Compressible_8cpp.html" target="_top" xlink:title=" ">
<polygon fill="white" stroke="black" points="612.5,-67.5 612.5,-119.5 740.5,-119.5 740.5,-67.5 612.5,-67.5"/>
<text text-anchor="start" x="620.5" y="-107.5" font-family="Helvetica,sans-Serif" font-size="10.00">src/ThHyd/Dilatable</text>
<text text-anchor="start" x="620.5" y="-96.5" font-family="Helvetica,sans-Serif" font-size="10.00">/Weakly_Compressible</text>
<text text-anchor="start" x="620.5" y="-85.5" font-family="Helvetica,sans-Serif" font-size="10.00">/Milieu/Fluide_Weakly</text>
<text text-anchor="middle" x="676.5" y="-74.5" font-family="Helvetica,sans-Serif" font-size="10.00">_Compressible.cpp</text>
</a>
</g>
</g>
<!-- Node1&#45;&gt;Node7 -->
<g id="edge6" class="edge">
<title>Node1&#45;&gt;Node7</title>
<path fill="none" stroke="midnightblue" d="M468.13,-154.23C508.64,-145.13 559.05,-133.02 603.5,-120 606.33,-119.17 609.22,-118.29 612.13,-117.39"/>
<polygon fill="midnightblue" stroke="midnightblue" points="467.32,-150.83 458.32,-156.42 468.84,-157.66 467.32,-150.83"/>
</g>
<!-- Node4 -->
<g id="node4" class="node">
<title>Node4</title>
<g id="a_node4"><a xlink:href="Champ__Fonc__Fonction__txyz_8cpp.html" target="_top" xlink:title=" ">
<polygon fill="white" stroke="black" points="163,-0.5 163,-30.5 308,-30.5 308,-0.5 163,-0.5"/>
<text text-anchor="start" x="171" y="-18.5" font-family="Helvetica,sans-Serif" font-size="10.00">src/Kernel/Champs/Champ</text>
<text text-anchor="middle" x="235.5" y="-7.5" font-family="Helvetica,sans-Serif" font-size="10.00">_Fonc_Fonction_txyz.cpp</text>
</a>
</g>
</g>
<!-- Node3&#45;&gt;Node4 -->
<g id="edge3" class="edge">
<title>Node3&#45;&gt;Node4</title>
<path fill="none" stroke="midnightblue" d="M235.5,-68.09C235.5,-55.76 235.5,-41.22 235.5,-30.73"/>
<polygon fill="midnightblue" stroke="midnightblue" points="232,-68.2 235.5,-78.2 239,-68.21 232,-68.2"/>
</g>
</g>
</svg>
