<?xml version="1.0" encoding="UTF-8" standalone="no"?>
<!DOCTYPE svg PUBLIC "-//W3C//DTD SVG 1.1//EN"
 "http://www.w3.org/Graphics/SVG/1.1/DTD/svg11.dtd">
<!-- Generated by graphviz version 2.43.0 (0)
 -->
<!-- Title: src/VEF/Champs/Champ_Q1NC_impl.h Pages: 1 -->
<svg width="1710pt" height="251pt"
 viewBox="0.00 0.00 1710.00 251.00" xmlns="http://www.w3.org/2000/svg" xmlns:xlink="http://www.w3.org/1999/xlink">
<g id="graph0" class="graph" transform="scale(1 1) rotate(0) translate(4 247)">
<title>src/VEF/Champs/Champ_Q1NC_impl.h</title>
<polygon fill="white" stroke="transparent" points="-4,4 -4,-247 1706,-247 1706,4 -4,4"/>
<!-- Node1 -->
<g id="node1" class="node">
<title>Node1</title>
<g id="a_node1"><a xlink:title=" ">
<polygon fill="#bfbfbf" stroke="black" points="830,-212.5 830,-242.5 963,-242.5 963,-212.5 830,-212.5"/>
<text text-anchor="start" x="838" y="-230.5" font-family="Helvetica,sans-Serif" font-size="10.00">src/VEF/Champs/Champ</text>
<text text-anchor="middle" x="896.5" y="-219.5" font-family="Helvetica,sans-Serif" font-size="10.00">_Q1NC_impl.h</text>
</a>
</g>
</g>
<!-- Node2 -->
<g id="node2" class="node">
<title>Node2</title>
<g id="a_node2"><a xlink:href="Champ__Fonc__Q1NC_8h.html" target="_top" xlink:title=" ">
<polygon fill="white" stroke="black" points="95,-145.5 95,-175.5 228,-175.5 228,-145.5 95,-145.5"/>
<text text-anchor="start" x="103" y="-163.5" font-family="Helvetica,sans-Serif" font-size="10.00">src/VEF/Champs/Champ</text>
<text text-anchor="middle" x="161.5" y="-152.5" font-family="Helvetica,sans-Serif" font-size="10.00">_Fonc_Q1NC.h</text>
</a>
</g>
</g>
<!-- Node1&#45;&gt;Node2 -->
<g id="edge1" class="edge">
<title>Node1&#45;&gt;Node2</title>
<path fill="none" stroke="midnightblue" d="M819.86,-219.72C675.29,-206.94 364.63,-179.46 228.14,-167.39"/>
<polygon fill="midnightblue" stroke="midnightblue" points="819.71,-223.22 829.98,-220.62 820.32,-216.25 819.71,-223.22"/>
</g>
<!-- Node5 -->
<g id="node5" class="node">
<title>Node5</title>
<g id="a_node5"><a xlink:href="Champ__Q1NC_8h.html" target="_top" xlink:title=" ">
<polygon fill="white" stroke="black" points="830,-145.5 830,-175.5 963,-175.5 963,-145.5 830,-145.5"/>
<text text-anchor="start" x="838" y="-163.5" font-family="Helvetica,sans-Serif" font-size="10.00">src/VEF/Champs/Champ</text>
<text text-anchor="middle" x="896.5" y="-152.5" font-family="Helvetica,sans-Serif" font-size="10.00">_Q1NC.h</text>
</a>
</g>
</g>
<!-- Node1&#45;&gt;Node5 -->
<g id="edge4" class="edge">
<title>Node1&#45;&gt;Node5</title>
<path fill="none" stroke="midnightblue" d="M896.5,-202.11C896.5,-193.15 896.5,-183.32 896.5,-175.58"/>
<polygon fill="midnightblue" stroke="midnightblue" points="893,-202.4 896.5,-212.4 900,-202.4 893,-202.4"/>
</g>
<!-- Node22 -->
<g id="node22" class="node">
<title>Node22</title>
<g id="a_node22"><a xlink:href="Champ__Q1NC__impl_8cpp.html" target="_top" xlink:title=" ">
<polygon fill="white" stroke="black" points="981,-145.5 981,-175.5 1114,-175.5 1114,-145.5 981,-145.5"/>
<text text-anchor="start" x="989" y="-163.5" font-family="Helvetica,sans-Serif" font-size="10.00">src/VEF/Champs/Champ</text>
<text text-anchor="middle" x="1047.5" y="-152.5" font-family="Helvetica,sans-Serif" font-size="10.00">_Q1NC_impl.cpp</text>
</a>
</g>
</g>
<!-- Node1&#45;&gt;Node22 -->
<g id="edge27" class="edge">
<title>Node1&#45;&gt;Node22</title>
<path fill="none" stroke="midnightblue" d="M938.53,-208.41C962.64,-198.03 992.45,-185.2 1014.8,-175.58"/>
<polygon fill="midnightblue" stroke="midnightblue" points="937.07,-205.23 929.26,-212.4 939.83,-211.66 937.07,-205.23"/>
</g>
<!-- Node3 -->
<g id="node3" class="node">
<title>Node3</title>
<g id="a_node3"><a xlink:href="Champ__Fonc__Q1NC_8cpp.html" target="_top" xlink:title=" ">
<polygon fill="white" stroke="black" points="0,-73 0,-103 133,-103 133,-73 0,-73"/>
<text text-anchor="start" x="8" y="-91" font-family="Helvetica,sans-Serif" font-size="10.00">src/VEF/Champs/Champ</text>
<text text-anchor="middle" x="66.5" y="-80" font-family="Helvetica,sans-Serif" font-size="10.00">_Fonc_Q1NC.cpp</text>
</a>
</g>
</g>
<!-- Node2&#45;&gt;Node3 -->
<g id="edge2" class="edge">
<title>Node2&#45;&gt;Node3</title>
<path fill="none" stroke="midnightblue" d="M134.02,-139.11C118.42,-127.53 99.28,-113.33 85.37,-103"/>
<polygon fill="midnightblue" stroke="midnightblue" points="132.16,-142.08 142.28,-145.23 136.33,-136.46 132.16,-142.08"/>
</g>
<!-- Node4 -->
<g id="node4" class="node">
<title>Node4</title>
<g id="a_node4"><a xlink:href="VEF__discretisation_8cpp.html" target="_top" xlink:title=" ">
<polygon fill="white" stroke="black" points="492,-6 492,-25 691,-25 691,-6 492,-6"/>
<text text-anchor="middle" x="591.5" y="-13" font-family="Helvetica,sans-Serif" font-size="10.00">src/VEF/Zones/VEF_discretisation.cpp</text>
</a>
</g>
</g>
<!-- Node2&#45;&gt;Node4 -->
<g id="edge3" class="edge">
<title>Node2&#45;&gt;Node4</title>
<path fill="none" stroke="midnightblue" d="M159.29,-134.99C158.84,-113.81 162,-84.01 180.5,-67 230.25,-21.26 415.44,-39.46 482.5,-31 497.46,-29.11 513.57,-27.01 528.69,-25"/>
<polygon fill="midnightblue" stroke="midnightblue" points="155.8,-135.35 159.79,-145.16 162.79,-135 155.8,-135.35"/>
</g>
<!-- Node6 -->
<g id="node6" class="node">
<title>Node6</title>
<g id="a_node6"><a xlink:href="Champ__Q1NC_8cpp.html" target="_top" xlink:title=" ">
<polygon fill="white" stroke="black" points="1108,-73 1108,-103 1241,-103 1241,-73 1108,-73"/>
<text text-anchor="start" x="1116" y="-91" font-family="Helvetica,sans-Serif" font-size="10.00">src/VEF/Champs/Champ</text>
<text text-anchor="middle" x="1174.5" y="-80" font-family="Helvetica,sans-Serif" font-size="10.00">_Q1NC.cpp</text>
</a>
</g>
</g>
<!-- Node5&#45;&gt;Node6 -->
<g id="edge5" class="edge">
<title>Node5&#45;&gt;Node6</title>
<path fill="none" stroke="midnightblue" d="M963.33,-143.01C1002.71,-133.24 1053.47,-120.55 1098.5,-109 1105.9,-107.1 1113.7,-105.08 1121.37,-103.07"/>
<polygon fill="midnightblue" stroke="midnightblue" points="962.44,-139.63 953.58,-145.43 964.13,-146.42 962.44,-139.63"/>
</g>
<!-- Node7 -->
<g id="node7" class="node">
<title>Node7</title>
<g id="a_node7"><a xlink:href="Ref__Champ__Q1NC_8cpp.html" target="_top" xlink:title=" ">
<polygon fill="white" stroke="black" points="1259,-73 1259,-103 1374,-103 1374,-73 1259,-73"/>
<text text-anchor="start" x="1267" y="-91" font-family="Helvetica,sans-Serif" font-size="10.00">src/VEF/Champs/Ref</text>
<text text-anchor="middle" x="1316.5" y="-80" font-family="Helvetica,sans-Serif" font-size="10.00">_Champ_Q1NC.cpp</text>
</a>
</g>
</g>
<!-- Node5&#45;&gt;Node7 -->
<g id="edge6" class="edge">
<title>Node5&#45;&gt;Node7</title>
<path fill="none" stroke="midnightblue" d="M973.08,-144.99C1097.26,-125.79 1131.78,-134.49 1250.5,-109 1258.11,-107.37 1266.11,-105.27 1273.81,-103.06"/>
<polygon fill="midnightblue" stroke="midnightblue" points="972.52,-141.53 963.19,-146.54 973.61,-148.44 972.52,-141.53"/>
</g>
<!-- Node8 -->
<g id="node8" class="node">
<title>Node8</title>
<g id="a_node8"><a xlink:href="Rotationnel__Champ__Q1NC_8cpp.html" target="_top" xlink:title=" ">
<polygon fill="white" stroke="black" points="1392,-73 1392,-103 1547,-103 1547,-73 1392,-73"/>
<text text-anchor="start" x="1400" y="-91" font-family="Helvetica,sans-Serif" font-size="10.00">src/VEF/Champs/Rotationnel</text>
<text text-anchor="middle" x="1469.5" y="-80" font-family="Helvetica,sans-Serif" font-size="10.00">_Champ_Q1NC.cpp</text>
</a>
</g>
</g>
<!-- Node5&#45;&gt;Node8 -->
<g id="edge7" class="edge">
<title>Node5&#45;&gt;Node8</title>
<path fill="none" stroke="midnightblue" d="M973.1,-145.02C1155.86,-120.41 1205.6,-137.33 1383.5,-109 1393.49,-107.41 1404.05,-105.31 1414.21,-103.07"/>
<polygon fill="midnightblue" stroke="midnightblue" points="972.6,-141.56 963.16,-146.39 973.55,-148.5 972.6,-141.56"/>
</g>
<!-- Node9 -->
<g id="node9" class="node">
<title>Node9</title>
<g id="a_node9"><a xlink:href="Op__Diff__VEF__Anisotrope__Face_8cpp.html" target="_top" xlink:title=" ">
<polygon fill="white" stroke="black" points="1565,-67.5 1565,-108.5 1702,-108.5 1702,-67.5 1565,-67.5"/>
<text text-anchor="start" x="1573" y="-96.5" font-family="Helvetica,sans-Serif" font-size="10.00">src/VEF/Operateurs</text>
<text text-anchor="start" x="1573" y="-85.5" font-family="Helvetica,sans-Serif" font-size="10.00">/Op_Diff_VEF_Anisotrope</text>
<text text-anchor="middle" x="1633.5" y="-74.5" font-family="Helvetica,sans-Serif" font-size="10.00">_Face.cpp</text>
</a>
</g>
</g>
<!-- Node5&#45;&gt;Node9 -->
<g id="edge8" class="edge">
<title>Node5&#45;&gt;Node9</title>
<path fill="none" stroke="midnightblue" d="M973.24,-145.04C1232.3,-113.5 1302.94,-149.36 1556.5,-109 1559.23,-108.57 1562,-108.08 1564.79,-107.55"/>
<polygon fill="midnightblue" stroke="midnightblue" points="972.65,-141.58 963.15,-146.29 973.51,-148.53 972.65,-141.58"/>
</g>
<!-- Node10 -->
<g id="node10" class="node">
<title>Node10</title>
<g id="a_node10"><a xlink:href="Op__Diff__VEF__Face__Q1_8cpp.html" target="_top" xlink:title=" ">
<polygon fill="white" stroke="black" points="189.5,-73 189.5,-103 335.5,-103 335.5,-73 189.5,-73"/>
<text text-anchor="start" x="197.5" y="-91" font-family="Helvetica,sans-Serif" font-size="10.00">src/VEF/Operateurs</text>
<text text-anchor="middle" x="262.5" y="-80" font-family="Helvetica,sans-Serif" font-size="10.00">/Op_Diff_VEF_Face_Q1.cpp</text>
</a>
</g>
</g>
<!-- Node5&#45;&gt;Node10 -->
<g id="edge9" class="edge">
<title>Node5&#45;&gt;Node10</title>
<path fill="none" stroke="midnightblue" d="M819.75,-156.07C712.71,-150.48 512.78,-137.06 344.5,-109 334.96,-107.41 324.89,-105.31 315.2,-103.07"/>
<polygon fill="midnightblue" stroke="midnightblue" points="819.65,-159.57 829.82,-156.59 820.01,-152.58 819.65,-159.57"/>
</g>
<!-- Node11 -->
<g id="node11" class="node">
<title>Node11</title>
<g id="a_node11"><a xlink:href="Op__Diff__VEF__Face__Stab_8cpp.html" target="_top" xlink:title=" ">
<polygon fill="white" stroke="black" points="353.5,-73 353.5,-103 507.5,-103 507.5,-73 353.5,-73"/>
<text text-anchor="start" x="361.5" y="-91" font-family="Helvetica,sans-Serif" font-size="10.00">src/VEF/Operateurs</text>
<text text-anchor="middle" x="430.5" y="-80" font-family="Helvetica,sans-Serif" font-size="10.00">/Op_Diff_VEF_Face_Stab.cpp</text>
</a>
</g>
</g>
<!-- Node5&#45;&gt;Node11 -->
<g id="edge10" class="edge">
<title>Node5&#45;&gt;Node11</title>
<path fill="none" stroke="midnightblue" d="M819.86,-151.51C742.87,-142.97 620.99,-128.05 516.5,-109 507,-107.27 496.97,-105.18 487.24,-103.01"/>
<polygon fill="midnightblue" stroke="midnightblue" points="819.63,-155.01 829.95,-152.62 820.4,-148.05 819.63,-155.01"/>
</g>
<!-- Node12 -->
<g id="node12" class="node">
<title>Node12</title>
<g id="a_node12"><a xlink:href="Op__Diff__VEF__base_8cpp.html" target="_top" xlink:title=" ">
<polygon fill="white" stroke="black" points="525.5,-73 525.5,-103 653.5,-103 653.5,-73 525.5,-73"/>
<text text-anchor="start" x="533.5" y="-91" font-family="Helvetica,sans-Serif" font-size="10.00">src/VEF/Operateurs</text>
<text text-anchor="middle" x="589.5" y="-80" font-family="Helvetica,sans-Serif" font-size="10.00">/Op_Diff_VEF_base.cpp</text>
</a>
</g>
</g>
<!-- Node5&#45;&gt;Node12 -->
<g id="edge11" class="edge">
<title>Node5&#45;&gt;Node12</title>
<path fill="none" stroke="midnightblue" d="M820.1,-144.12C774.26,-134.61 714.87,-121.82 662.5,-109 654.97,-107.16 647.03,-105.1 639.28,-103.03"/>
<polygon fill="midnightblue" stroke="midnightblue" points="819.46,-147.56 829.96,-146.15 820.88,-140.7 819.46,-147.56"/>
</g>
<!-- Node13 -->
<g id="node13" class="node">
<title>Node13</title>
<g id="a_node13"><a xlink:href="Op__Dift__VEF__Face__Q1_8cpp.html" target="_top" xlink:title=" ">
<polygon fill="white" stroke="black" points="671.5,-73 671.5,-103 817.5,-103 817.5,-73 671.5,-73"/>
<text text-anchor="start" x="679.5" y="-91" font-family="Helvetica,sans-Serif" font-size="10.00">src/VEF/Operateurs</text>
<text text-anchor="middle" x="744.5" y="-80" font-family="Helvetica,sans-Serif" font-size="10.00">/Op_Dift_VEF_Face_Q1.cpp</text>
</a>
</g>
</g>
<!-- Node5&#45;&gt;Node13 -->
<g id="edge12" class="edge">
<title>Node5&#45;&gt;Node13</title>
<path fill="none" stroke="midnightblue" d="M857.02,-141.19C831.37,-129.29 798.44,-114.02 774.84,-103.07"/>
<polygon fill="midnightblue" stroke="midnightblue" points="855.56,-144.37 866.11,-145.4 858.51,-138.02 855.56,-144.37"/>
</g>
<!-- Node14 -->
<g id="node14" class="node">
<title>Node14</title>
<g id="a_node14"><a xlink:href="Hexa__VEF_8h.html" target="_top" xlink:title=" ">
<polygon fill="white" stroke="black" points="975.5,-73 975.5,-103 1089.5,-103 1089.5,-73 975.5,-73"/>
<text text-anchor="start" x="983.5" y="-91" font-family="Helvetica,sans-Serif" font-size="10.00">src/VEF/Zones/Hexa</text>
<text text-anchor="middle" x="1032.5" y="-80" font-family="Helvetica,sans-Serif" font-size="10.00">_VEF.h</text>
</a>
</g>
</g>
<!-- Node5&#45;&gt;Node14 -->
<g id="edge13" class="edge">
<title>Node5&#45;&gt;Node14</title>
<path fill="none" stroke="midnightblue" d="M932.74,-140.72C955.55,-128.89 984.52,-113.87 1005.35,-103.07"/>
<polygon fill="midnightblue" stroke="midnightblue" points="930.96,-137.69 923.69,-145.4 934.18,-143.91 930.96,-137.69"/>
</g>
<!-- Node20 -->
<g id="node20" class="node">
<title>Node20</title>
<g id="a_node20"><a xlink:href="Quadri__VEF_8h.html" target="_top" xlink:title=" ">
<polygon fill="white" stroke="black" points="836,-73 836,-103 957,-103 957,-73 836,-73"/>
<text text-anchor="start" x="844" y="-91" font-family="Helvetica,sans-Serif" font-size="10.00">src/VEF/Zones/Quadri</text>
<text text-anchor="middle" x="896.5" y="-80" font-family="Helvetica,sans-Serif" font-size="10.00">_VEF.h</text>
</a>
</g>
</g>
<!-- Node5&#45;&gt;Node20 -->
<g id="edge20" class="edge">
<title>Node5&#45;&gt;Node20</title>
<path fill="none" stroke="midnightblue" d="M896.5,-135.23C896.5,-124.57 896.5,-112.41 896.5,-103.25"/>
<polygon fill="midnightblue" stroke="midnightblue" points="893,-135.23 896.5,-145.23 900,-135.23 893,-135.23"/>
</g>
<!-- Node14&#45;&gt;Node4 -->
<g id="edge17" class="edge">
<title>Node14&#45;&gt;Node4</title>
<path fill="none" stroke="midnightblue" d="M979.95,-70.25C975.42,-69.06 970.9,-67.96 966.5,-67 965.55,-66.79 761.61,-39.37 654.92,-25.02"/>
<polygon fill="midnightblue" stroke="midnightblue" points="979.23,-73.69 989.8,-72.97 981.1,-66.94 979.23,-73.69"/>
</g>
<!-- Node15 -->
<g id="node15" class="node">
<title>Node15</title>
<g id="a_node15"><a xlink:href="Elem__VEF_8cpp.html" target="_top" xlink:title=" ">
<polygon fill="white" stroke="black" points="840,-0.5 840,-30.5 953,-30.5 953,-0.5 840,-0.5"/>
<text text-anchor="start" x="848" y="-18.5" font-family="Helvetica,sans-Serif" font-size="10.00">src/VEF/Zones/Elem</text>
<text text-anchor="middle" x="896.5" y="-7.5" font-family="Helvetica,sans-Serif" font-size="10.00">_VEF.cpp</text>
</a>
</g>
</g>
<!-- Node14&#45;&gt;Node15 -->
<g id="edge14" class="edge">
<title>Node14&#45;&gt;Node15</title>
<path fill="none" stroke="midnightblue" d="M996.26,-68.22C973.45,-56.39 944.48,-41.37 923.65,-30.57"/>
<polygon fill="midnightblue" stroke="midnightblue" points="994.82,-71.41 1005.31,-72.9 998.04,-65.19 994.82,-71.41"/>
</g>
<!-- Node16 -->
<g id="node16" class="node">
<title>Node16</title>
<g id="a_node16"><a xlink:href="Hexa__VEF_8cpp.html" target="_top" xlink:title=" ">
<polygon fill="white" stroke="black" points="1267.5,-0.5 1267.5,-30.5 1381.5,-30.5 1381.5,-0.5 1267.5,-0.5"/>
<text text-anchor="start" x="1275.5" y="-18.5" font-family="Helvetica,sans-Serif" font-size="10.00">src/VEF/Zones/Hexa</text>
<text text-anchor="middle" x="1324.5" y="-7.5" font-family="Helvetica,sans-Serif" font-size="10.00">_VEF.cpp</text>
</a>
</g>
</g>
<!-- Node14&#45;&gt;Node16 -->
<g id="edge15" class="edge">
<title>Node14&#45;&gt;Node16</title>
<path fill="none" stroke="midnightblue" d="M1087.89,-70.14C1091.81,-69.05 1095.71,-67.99 1099.5,-67 1115.65,-62.78 1206.22,-42.63 1267.41,-29.1"/>
<polygon fill="midnightblue" stroke="midnightblue" points="1086.81,-66.81 1078.15,-72.91 1088.73,-73.54 1086.81,-66.81"/>
</g>
<!-- Node17 -->
<g id="node17" class="node">
<title>Node17</title>
<g id="a_node17"><a xlink:href="VEF__1D_8cpp.html" target="_top" xlink:title=" ">
<polygon fill="white" stroke="black" points="971.5,-6 971.5,-25 1117.5,-25 1117.5,-6 971.5,-6"/>
<text text-anchor="middle" x="1044.5" y="-13" font-family="Helvetica,sans-Serif" font-size="10.00">src/VEF/Zones/VEF_1D.cpp</text>
</a>
</g>
</g>
<!-- Node14&#45;&gt;Node17 -->
<g id="edge16" class="edge">
<title>Node14&#45;&gt;Node17</title>
<path fill="none" stroke="midnightblue" d="M1036.65,-62.59C1038.85,-49.71 1041.4,-34.7 1042.99,-25.39"/>
<polygon fill="midnightblue" stroke="midnightblue" points="1033.16,-62.29 1034.93,-72.73 1040.06,-63.46 1033.16,-62.29"/>
</g>
<!-- Node18 -->
<g id="node18" class="node">
<title>Node18</title>
<g id="a_node18"><a xlink:href="Zone__Cl__VEF_8cpp.html" target="_top" xlink:title=" ">
<polygon fill="white" stroke="black" points="1136,-0.5 1136,-30.5 1249,-30.5 1249,-0.5 1136,-0.5"/>
<text text-anchor="start" x="1144" y="-18.5" font-family="Helvetica,sans-Serif" font-size="10.00">src/VEF/Zones/Zone</text>
<text text-anchor="middle" x="1192.5" y="-7.5" font-family="Helvetica,sans-Serif" font-size="10.00">_Cl_VEF.cpp</text>
</a>
</g>
</g>
<!-- Node14&#45;&gt;Node18 -->
<g id="edge18" class="edge">
<title>Node14&#45;&gt;Node18</title>
<path fill="none" stroke="midnightblue" d="M1073.71,-68.84C1100.76,-56.92 1135.61,-41.57 1160.56,-30.57"/>
<polygon fill="midnightblue" stroke="midnightblue" points="1072.23,-65.67 1064.49,-72.9 1075.06,-72.07 1072.23,-65.67"/>
</g>
<!-- Node19 -->
<g id="node19" class="node">
<title>Node19</title>
<g id="a_node19"><a xlink:href="Zone__VEF_8cpp.html" target="_top" xlink:title=" ">
<polygon fill="white" stroke="black" points="709,-0.5 709,-30.5 822,-30.5 822,-0.5 709,-0.5"/>
<text text-anchor="start" x="717" y="-18.5" font-family="Helvetica,sans-Serif" font-size="10.00">src/VEF/Zones/Zone</text>
<text text-anchor="middle" x="765.5" y="-7.5" font-family="Helvetica,sans-Serif" font-size="10.00">_VEF.cpp</text>
</a>
</g>
</g>
<!-- Node14&#45;&gt;Node19 -->
<g id="edge19" class="edge">
<title>Node14&#45;&gt;Node19</title>
<path fill="none" stroke="midnightblue" d="M977.39,-70.09C973.71,-69.02 970.06,-67.98 966.5,-67 917.96,-53.55 862.39,-39.71 822.01,-29.93"/>
<polygon fill="midnightblue" stroke="midnightblue" points="976.56,-73.49 987.14,-72.94 978.53,-66.77 976.56,-73.49"/>
</g>
<!-- Node20&#45;&gt;Node4 -->
<g id="edge24" class="edge">
<title>Node20&#45;&gt;Node4</title>
<path fill="none" stroke="midnightblue" d="M838.97,-70.23C834.76,-69.11 830.57,-68.02 826.5,-67 760.31,-50.45 682.81,-34.44 635.45,-25.03"/>
<polygon fill="midnightblue" stroke="midnightblue" points="838.22,-73.66 848.79,-72.91 840.07,-66.9 838.22,-73.66"/>
</g>
<!-- Node20&#45;&gt;Node15 -->
<g id="edge21" class="edge">
<title>Node20&#45;&gt;Node15</title>
<path fill="none" stroke="midnightblue" d="M896.5,-62.73C896.5,-52.07 896.5,-39.91 896.5,-30.75"/>
<polygon fill="midnightblue" stroke="midnightblue" points="893,-62.73 896.5,-72.73 900,-62.73 893,-62.73"/>
</g>
<!-- Node20&#45;&gt;Node17 -->
<g id="edge23" class="edge">
<title>Node20&#45;&gt;Node17</title>
<path fill="none" stroke="midnightblue" d="M935.3,-68.52C964.82,-54.46 1004.07,-35.76 1026.59,-25.03"/>
<polygon fill="midnightblue" stroke="midnightblue" points="933.62,-65.44 926.09,-72.9 936.63,-71.76 933.62,-65.44"/>
</g>
<!-- Node20&#45;&gt;Node18 -->
<g id="edge25" class="edge">
<title>Node20&#45;&gt;Node18</title>
<path fill="none" stroke="midnightblue" d="M954.04,-70.27C958.25,-69.14 962.43,-68.03 966.5,-67 982.82,-62.85 1074.53,-42.51 1136,-28.95"/>
<polygon fill="midnightblue" stroke="midnightblue" points="952.94,-66.94 944.22,-72.96 954.79,-73.69 952.94,-66.94"/>
</g>
<!-- Node20&#45;&gt;Node19 -->
<g id="edge26" class="edge">
<title>Node20&#45;&gt;Node19</title>
<path fill="none" stroke="midnightblue" d="M861.3,-68.06C839.37,-56.26 811.63,-41.33 791.65,-30.57"/>
<polygon fill="midnightblue" stroke="midnightblue" points="859.84,-71.25 870.31,-72.9 863.16,-65.08 859.84,-71.25"/>
</g>
<!-- Node21 -->
<g id="node21" class="node">
<title>Node21</title>
<g id="a_node21"><a xlink:href="Quadri__VEF_8cpp.html" target="_top" xlink:title=" ">
<polygon fill="white" stroke="black" points="353,-0.5 353,-30.5 474,-30.5 474,-0.5 353,-0.5"/>
<text text-anchor="start" x="361" y="-18.5" font-family="Helvetica,sans-Serif" font-size="10.00">src/VEF/Zones/Quadri</text>
<text text-anchor="middle" x="413.5" y="-7.5" font-family="Helvetica,sans-Serif" font-size="10.00">_VEF.cpp</text>
</a>
</g>
</g>
<!-- Node20&#45;&gt;Node21 -->
<g id="edge22" class="edge">
<title>Node20&#45;&gt;Node21</title>
<path fill="none" stroke="midnightblue" d="M841.78,-70.39C836.64,-69.12 831.49,-67.97 826.5,-67 675.58,-37.77 634.36,-54.84 482.5,-31 479.72,-30.56 476.88,-30.09 474.02,-29.58"/>
<polygon fill="midnightblue" stroke="midnightblue" points="841.03,-73.81 851.59,-72.92 842.79,-67.03 841.03,-73.81"/>
</g>
</g>
</svg>
