<?xml version="1.0" encoding="UTF-8" standalone="no"?>
<!DOCTYPE svg PUBLIC "-//W3C//DTD SVG 1.1//EN"
 "http://www.w3.org/Graphics/SVG/1.1/DTD/svg11.dtd">
<!-- Generated by graphviz version 2.43.0 (0)
 -->
<!-- Title: src/Kernel/Champs/Champ_y_plus.h Pages: 1 -->
<svg width="725pt" height="173pt"
 viewBox="0.00 0.00 725.00 173.00" xmlns="http://www.w3.org/2000/svg" xmlns:xlink="http://www.w3.org/1999/xlink">
<g id="graph0" class="graph" transform="scale(1 1) rotate(0) translate(4 169)">
<title>src/Kernel/Champs/Champ_y_plus.h</title>
<polygon fill="white" stroke="transparent" points="-4,4 -4,-169 721,-169 721,4 -4,4"/>
<!-- Node1 -->
<g id="node1" class="node">
<title>Node1</title>
<g id="a_node1"><a xlink:title=" ">
<polygon fill="#bfbfbf" stroke="black" points="270,-134.5 270,-164.5 415,-164.5 415,-134.5 270,-134.5"/>
<text text-anchor="start" x="278" y="-152.5" font-family="Helvetica,sans-Serif" font-size="10.00">src/Kernel/Champs/Champ</text>
<text text-anchor="middle" x="342.5" y="-141.5" font-family="Helvetica,sans-Serif" font-size="10.00">_y_plus.h</text>
</a>
</g>
</g>
<!-- Node2 -->
<g id="node2" class="node">
<title>Node2</title>
<g id="a_node2"><a xlink:href="Y__plus__Champ__Face_8h.html" target="_top" xlink:title=" ">
<polygon fill="white" stroke="black" points="185,-67.5 185,-97.5 316,-97.5 316,-67.5 185,-67.5"/>
<text text-anchor="start" x="193" y="-85.5" font-family="Helvetica,sans-Serif" font-size="10.00">src/VDF/Champs/Y_plus</text>
<text text-anchor="middle" x="250.5" y="-74.5" font-family="Helvetica,sans-Serif" font-size="10.00">_Champ_Face.h</text>
</a>
</g>
</g>
<!-- Node1&#45;&gt;Node2 -->
<g id="edge1" class="edge">
<title>Node1&#45;&gt;Node2</title>
<path fill="none" stroke="midnightblue" d="M314.12,-128.45C299.97,-118.45 283.19,-106.6 270.42,-97.58"/>
<polygon fill="midnightblue" stroke="midnightblue" points="312.35,-131.48 322.54,-134.4 316.39,-125.77 312.35,-131.48"/>
</g>
<!-- Node5 -->
<g id="node5" class="node">
<title>Node5</title>
<g id="a_node5"><a xlink:href="Y__plus__Champ__P1NC_8h.html" target="_top" xlink:title=" ">
<polygon fill="white" stroke="black" points="369.5,-67.5 369.5,-97.5 499.5,-97.5 499.5,-67.5 369.5,-67.5"/>
<text text-anchor="start" x="377.5" y="-85.5" font-family="Helvetica,sans-Serif" font-size="10.00">src/VEF/Champs/Y_plus</text>
<text text-anchor="middle" x="434.5" y="-74.5" font-family="Helvetica,sans-Serif" font-size="10.00">_Champ_P1NC.h</text>
</a>
</g>
</g>
<!-- Node1&#45;&gt;Node5 -->
<g id="edge4" class="edge">
<title>Node1&#45;&gt;Node5</title>
<path fill="none" stroke="midnightblue" d="M370.88,-128.45C385.03,-118.45 401.81,-106.6 414.58,-97.58"/>
<polygon fill="midnightblue" stroke="midnightblue" points="368.61,-125.77 362.46,-134.4 372.65,-131.48 368.61,-125.77"/>
</g>
<!-- Node3 -->
<g id="node3" class="node">
<title>Node3</title>
<g id="a_node3"><a xlink:href="Y__plus__Champ__Face_8cpp.html" target="_top" xlink:title=" ">
<polygon fill="white" stroke="black" points="0,-0.5 0,-30.5 131,-30.5 131,-0.5 0,-0.5"/>
<text text-anchor="start" x="8" y="-18.5" font-family="Helvetica,sans-Serif" font-size="10.00">src/VDF/Champs/Y_plus</text>
<text text-anchor="middle" x="65.5" y="-7.5" font-family="Helvetica,sans-Serif" font-size="10.00">_Champ_Face.cpp</text>
</a>
</g>
</g>
<!-- Node2&#45;&gt;Node3 -->
<g id="edge2" class="edge">
<title>Node2&#45;&gt;Node3</title>
<path fill="none" stroke="midnightblue" d="M200.56,-63.96C170.76,-53.48 133.43,-40.37 105.56,-30.58"/>
<polygon fill="midnightblue" stroke="midnightblue" points="199.76,-67.38 210.36,-67.4 202.08,-60.78 199.76,-67.38"/>
</g>
<!-- Node4 -->
<g id="node4" class="node">
<title>Node4</title>
<g id="a_node4"><a xlink:href="VDF__discretisation_8cpp.html" target="_top" xlink:title=" ">
<polygon fill="white" stroke="black" points="149.5,-6 149.5,-25 351.5,-25 351.5,-6 149.5,-6"/>
<text text-anchor="middle" x="250.5" y="-13" font-family="Helvetica,sans-Serif" font-size="10.00">src/VDF/Zones/VDF_discretisation.cpp</text>
</a>
</g>
</g>
<!-- Node2&#45;&gt;Node4 -->
<g id="edge3" class="edge">
<title>Node2&#45;&gt;Node4</title>
<path fill="none" stroke="midnightblue" d="M250.5,-57.25C250.5,-46.02 250.5,-33.38 250.5,-25.19"/>
<polygon fill="midnightblue" stroke="midnightblue" points="247,-57.4 250.5,-67.4 254,-57.4 247,-57.4"/>
</g>
<!-- Node6 -->
<g id="node6" class="node">
<title>Node6</title>
<g id="a_node6"><a xlink:href="Y__plus__Champ__P1NC_8cpp.html" target="_top" xlink:title=" ">
<polygon fill="white" stroke="black" points="369.5,-0.5 369.5,-30.5 499.5,-30.5 499.5,-0.5 369.5,-0.5"/>
<text text-anchor="start" x="377.5" y="-18.5" font-family="Helvetica,sans-Serif" font-size="10.00">src/VEF/Champs/Y_plus</text>
<text text-anchor="middle" x="434.5" y="-7.5" font-family="Helvetica,sans-Serif" font-size="10.00">_Champ_P1NC.cpp</text>
</a>
</g>
</g>
<!-- Node5&#45;&gt;Node6 -->
<g id="edge5" class="edge">
<title>Node5&#45;&gt;Node6</title>
<path fill="none" stroke="midnightblue" d="M434.5,-57.11C434.5,-48.15 434.5,-38.32 434.5,-30.58"/>
<polygon fill="midnightblue" stroke="midnightblue" points="431,-57.4 434.5,-67.4 438,-57.4 431,-57.4"/>
</g>
<!-- Node7 -->
<g id="node7" class="node">
<title>Node7</title>
<g id="a_node7"><a xlink:href="VEF__discretisation_8cpp.html" target="_top" xlink:title=" ">
<polygon fill="white" stroke="black" points="518,-6 518,-25 717,-25 717,-6 518,-6"/>
<text text-anchor="middle" x="617.5" y="-13" font-family="Helvetica,sans-Serif" font-size="10.00">src/VEF/Zones/VEF_discretisation.cpp</text>
</a>
</g>
</g>
<!-- Node5&#45;&gt;Node7 -->
<g id="edge6" class="edge">
<title>Node5&#45;&gt;Node7</title>
<path fill="none" stroke="midnightblue" d="M483.92,-63.95C519.46,-51.32 565.84,-34.85 593.55,-25.01"/>
<polygon fill="midnightblue" stroke="midnightblue" points="482.46,-60.75 474.21,-67.4 484.8,-67.35 482.46,-60.75"/>
</g>
</g>
</svg>
