<?xml version="1.0" encoding="UTF-8" standalone="no"?>
<!DOCTYPE svg PUBLIC "-//W3C//DTD SVG 1.1//EN"
 "http://www.w3.org/Graphics/SVG/1.1/DTD/svg11.dtd">
<!-- Generated by graphviz version 2.43.0 (0)
 -->
<!-- Title: src/PolyMAC/Champs/Champ_Fonc_Elem_PolyMAC_P0_TC.h Pages: 1 -->
<svg width="344pt" height="128pt"
 viewBox="0.00 0.00 344.00 128.00" xmlns="http://www.w3.org/2000/svg" xmlns:xlink="http://www.w3.org/1999/xlink">
<g id="graph0" class="graph" transform="scale(1 1) rotate(0) translate(4 124)">
<title>src/PolyMAC/Champs/Champ_Fonc_Elem_PolyMAC_P0_TC.h</title>
<polygon fill="white" stroke="transparent" points="-4,4 -4,-124 340,-124 340,4 -4,4"/>
<!-- Node1 -->
<g id="node1" class="node">
<title>Node1</title>
<g id="a_node1"><a xlink:title=" ">
<polygon fill="#bfbfbf" stroke="black" points="88,-78.5 88,-119.5 249,-119.5 249,-78.5 88,-78.5"/>
<text text-anchor="start" x="96" y="-107.5" font-family="Helvetica,sans-Serif" font-size="10.00">src/PolyMAC/Champs</text>
<text text-anchor="start" x="96" y="-96.5" font-family="Helvetica,sans-Serif" font-size="10.00">/Champ_Fonc_Elem_PolyMAC</text>
<text text-anchor="middle" x="168.5" y="-85.5" font-family="Helvetica,sans-Serif" font-size="10.00">_P0_TC.h</text>
</a>
</g>
</g>
<!-- Node2 -->
<g id="node2" class="node">
<title>Node2</title>
<g id="a_node2"><a xlink:href="Champ__Fonc__Elem__PolyMAC__P0__TC_8cpp.html" target="_top" xlink:title=" ">
<polygon fill="white" stroke="black" points="0,-0.5 0,-41.5 161,-41.5 161,-0.5 0,-0.5"/>
<text text-anchor="start" x="8" y="-29.5" font-family="Helvetica,sans-Serif" font-size="10.00">src/PolyMAC/Champs</text>
<text text-anchor="start" x="8" y="-18.5" font-family="Helvetica,sans-Serif" font-size="10.00">/Champ_Fonc_Elem_PolyMAC</text>
<text text-anchor="middle" x="80.5" y="-7.5" font-family="Helvetica,sans-Serif" font-size="10.00">_P0_TC.cpp</text>
</a>
</g>
</g>
<!-- Node1&#45;&gt;Node2 -->
<g id="edge1" class="edge">
<title>Node1&#45;&gt;Node2</title>
<path fill="none" stroke="midnightblue" d="M138.14,-71.78C126.63,-61.84 113.75,-50.72 103.09,-41.51"/>
<polygon fill="midnightblue" stroke="midnightblue" points="135.98,-74.54 145.84,-78.43 140.56,-69.24 135.98,-74.54"/>
</g>
<!-- Node3 -->
<g id="node3" class="node">
<title>Node3</title>
<g id="a_node3"><a xlink:href="PolyMAC__P0__discretisation_8cpp.html" target="_top" xlink:title=" ">
<polygon fill="white" stroke="black" points="179,-6 179,-36 336,-36 336,-6 179,-6"/>
<text text-anchor="start" x="187" y="-24" font-family="Helvetica,sans-Serif" font-size="10.00">src/PolyMAC/Zones/PolyMAC</text>
<text text-anchor="middle" x="257.5" y="-13" font-family="Helvetica,sans-Serif" font-size="10.00">_P0_discretisation.cpp</text>
</a>
</g>
</g>
<!-- Node1&#45;&gt;Node3 -->
<g id="edge2" class="edge">
<title>Node1&#45;&gt;Node3</title>
<path fill="none" stroke="midnightblue" d="M199.35,-71.66C213.28,-59.76 229.19,-46.18 240.84,-36.23"/>
<polygon fill="midnightblue" stroke="midnightblue" points="196.75,-69.27 191.42,-78.43 201.3,-74.6 196.75,-69.27"/>
</g>
</g>
</svg>
