<?xml version="1.0" encoding="UTF-8" standalone="no"?>
<!DOCTYPE svg PUBLIC "-//W3C//DTD SVG 1.1//EN"
 "http://www.w3.org/Graphics/SVG/1.1/DTD/svg11.dtd">
<!-- Generated by graphviz version 2.43.0 (0)
 -->
<!-- Title: src/Kernel/Champs/Champ_grad_T.h Pages: 1 -->
<svg width="346pt" height="173pt"
 viewBox="0.00 0.00 345.50 173.00" xmlns="http://www.w3.org/2000/svg" xmlns:xlink="http://www.w3.org/1999/xlink">
<g id="graph0" class="graph" transform="scale(1 1) rotate(0) translate(4 169)">
<title>src/Kernel/Champs/Champ_grad_T.h</title>
<polygon fill="white" stroke="transparent" points="-4,4 -4,-169 341.5,-169 341.5,4 -4,4"/>
<!-- Node1 -->
<g id="node1" class="node">
<title>Node1</title>
<g id="a_node1"><a xlink:title=" ">
<polygon fill="#bfbfbf" stroke="black" points="76.5,-134.5 76.5,-164.5 221.5,-164.5 221.5,-134.5 76.5,-134.5"/>
<text text-anchor="start" x="84.5" y="-152.5" font-family="Helvetica,sans-Serif" font-size="10.00">src/Kernel/Champs/Champ</text>
<text text-anchor="middle" x="149" y="-141.5" font-family="Helvetica,sans-Serif" font-size="10.00">_grad_T.h</text>
</a>
</g>
</g>
<!-- Node2 -->
<g id="node2" class="node">
<title>Node2</title>
<g id="a_node2"><a xlink:href="grad__T__Champ__P1NC_8h.html" target="_top" xlink:title=" ">
<polygon fill="white" stroke="black" points="89,-67.5 89,-97.5 209,-97.5 209,-67.5 89,-67.5"/>
<text text-anchor="start" x="97" y="-85.5" font-family="Helvetica,sans-Serif" font-size="10.00">src/VEF/Champs/grad</text>
<text text-anchor="middle" x="149" y="-74.5" font-family="Helvetica,sans-Serif" font-size="10.00">_T_Champ_P1NC.h</text>
</a>
</g>
</g>
<!-- Node1&#45;&gt;Node2 -->
<g id="edge1" class="edge">
<title>Node1&#45;&gt;Node2</title>
<path fill="none" stroke="midnightblue" d="M149,-124.11C149,-115.15 149,-105.32 149,-97.58"/>
<polygon fill="midnightblue" stroke="midnightblue" points="145.5,-124.4 149,-134.4 152.5,-124.4 145.5,-124.4"/>
</g>
<!-- Node3 -->
<g id="node3" class="node">
<title>Node3</title>
<g id="a_node3"><a xlink:href="grad__T__Champ__P1NC_8cpp.html" target="_top" xlink:title=" ">
<polygon fill="white" stroke="black" points="0,-0.5 0,-30.5 120,-30.5 120,-0.5 0,-0.5"/>
<text text-anchor="start" x="8" y="-18.5" font-family="Helvetica,sans-Serif" font-size="10.00">src/VEF/Champs/grad</text>
<text text-anchor="middle" x="60" y="-7.5" font-family="Helvetica,sans-Serif" font-size="10.00">_T_Champ_P1NC.cpp</text>
</a>
</g>
</g>
<!-- Node2&#45;&gt;Node3 -->
<g id="edge2" class="edge">
<title>Node2&#45;&gt;Node3</title>
<path fill="none" stroke="midnightblue" d="M121.55,-61.45C107.86,-51.45 91.63,-39.6 79.27,-30.58"/>
<polygon fill="midnightblue" stroke="midnightblue" points="119.55,-64.32 129.69,-67.4 123.68,-58.67 119.55,-64.32"/>
</g>
<!-- Node4 -->
<g id="node4" class="node">
<title>Node4</title>
<g id="a_node4"><a xlink:href="VEF__discretisation_8cpp.html" target="_top" xlink:title=" ">
<polygon fill="white" stroke="black" points="138.5,-6 138.5,-25 337.5,-25 337.5,-6 138.5,-6"/>
<text text-anchor="middle" x="238" y="-13" font-family="Helvetica,sans-Serif" font-size="10.00">src/VEF/Zones/VEF_discretisation.cpp</text>
</a>
</g>
</g>
<!-- Node2&#45;&gt;Node4 -->
<g id="edge3" class="edge">
<title>Node2&#45;&gt;Node4</title>
<path fill="none" stroke="midnightblue" d="M176.65,-61.31C193.36,-49.1 213.8,-34.18 226.35,-25.01"/>
<polygon fill="midnightblue" stroke="midnightblue" points="174.32,-58.67 168.31,-67.4 178.45,-64.32 174.32,-58.67"/>
</g>
</g>
</svg>
