<?xml version="1.0" encoding="UTF-8" standalone="no"?>
<!DOCTYPE svg PUBLIC "-//W3C//DTD SVG 1.1//EN"
 "http://www.w3.org/Graphics/SVG/1.1/DTD/svg11.dtd">
<!-- Generated by graphviz version 2.43.0 (0)
 -->
<!-- Title: src/VDF/Champs/Champ_P0_VDF.h Pages: 1 -->
<svg width="1402pt" height="451pt"
 viewBox="0.00 0.00 1401.50 451.00" xmlns="http://www.w3.org/2000/svg" xmlns:xlink="http://www.w3.org/1999/xlink">
<g id="graph0" class="graph" transform="scale(1 1) rotate(0) translate(4 447)">
<title>src/VDF/Champs/Champ_P0_VDF.h</title>
<polygon fill="white" stroke="transparent" points="-4,4 -4,-447 1397.5,-447 1397.5,4 -4,4"/>
<!-- Node1 -->
<g id="node1" class="node">
<title>Node1</title>
<g id="a_node1"><a xlink:title=" ">
<polygon fill="#bfbfbf" stroke="black" points="641,-412.5 641,-442.5 775,-442.5 775,-412.5 641,-412.5"/>
<text text-anchor="start" x="649" y="-430.5" font-family="Helvetica,sans-Serif" font-size="10.00">src/VDF/Champs/Champ</text>
<text text-anchor="middle" x="708" y="-419.5" font-family="Helvetica,sans-Serif" font-size="10.00">_P0_VDF.h</text>
</a>
</g>
</g>
<!-- Node2 -->
<g id="node2" class="node">
<title>Node2</title>
<g id="a_node2"><a xlink:href="Champ__P0__VDF_8cpp.html" target="_top" xlink:title=" ">
<polygon fill="white" stroke="black" points="0,-334.5 0,-364.5 134,-364.5 134,-334.5 0,-334.5"/>
<text text-anchor="start" x="8" y="-352.5" font-family="Helvetica,sans-Serif" font-size="10.00">src/VDF/Champs/Champ</text>
<text text-anchor="middle" x="67" y="-341.5" font-family="Helvetica,sans-Serif" font-size="10.00">_P0_VDF.cpp</text>
</a>
</g>
</g>
<!-- Node1&#45;&gt;Node2 -->
<g id="edge1" class="edge">
<title>Node1&#45;&gt;Node2</title>
<path fill="none" stroke="midnightblue" d="M630.41,-425.3C520.73,-422.31 314.58,-411.93 143,-376 129.79,-373.23 115.68,-368.9 103.24,-364.59"/>
<polygon fill="midnightblue" stroke="midnightblue" points="630.63,-428.81 640.72,-425.57 630.81,-421.81 630.63,-428.81"/>
</g>
<!-- Node3 -->
<g id="node3" class="node">
<title>Node3</title>
<g id="a_node3"><a xlink:href="Ref__Champ__P0__VDF_8cpp.html" target="_top" xlink:title=" ">
<polygon fill="white" stroke="black" points="152,-334.5 152,-364.5 270,-364.5 270,-334.5 152,-334.5"/>
<text text-anchor="start" x="160" y="-352.5" font-family="Helvetica,sans-Serif" font-size="10.00">src/VDF/Champs/Ref</text>
<text text-anchor="middle" x="211" y="-341.5" font-family="Helvetica,sans-Serif" font-size="10.00">_Champ_P0_VDF.cpp</text>
</a>
</g>
</g>
<!-- Node1&#45;&gt;Node3 -->
<g id="edge2" class="edge">
<title>Node1&#45;&gt;Node3</title>
<path fill="none" stroke="midnightblue" d="M630.96,-423.04C544.33,-417.86 399.93,-405.33 279,-376 267.24,-373.15 254.73,-368.85 243.7,-364.59"/>
<polygon fill="midnightblue" stroke="midnightblue" points="630.79,-426.53 640.98,-423.62 631.2,-419.55 630.79,-426.53"/>
</g>
<!-- Node4 -->
<g id="node4" class="node">
<title>Node4</title>
<g id="a_node4"><a xlink:href="Sortie__libre__Gradient__Pression__impose_8cpp.html" target="_top" xlink:title=" ">
<polygon fill="white" stroke="black" points="288.5,-329 288.5,-370 425.5,-370 425.5,-329 288.5,-329"/>
<text text-anchor="start" x="296.5" y="-358" font-family="Helvetica,sans-Serif" font-size="10.00">src/VDF/Cond_Lim/Sortie</text>
<text text-anchor="start" x="296.5" y="-347" font-family="Helvetica,sans-Serif" font-size="10.00">_libre_Gradient_Pression</text>
<text text-anchor="middle" x="357" y="-336" font-family="Helvetica,sans-Serif" font-size="10.00">_impose.cpp</text>
</a>
</g>
</g>
<!-- Node1&#45;&gt;Node4 -->
<g id="edge3" class="edge">
<title>Node1&#45;&gt;Node4</title>
<path fill="none" stroke="midnightblue" d="M630.65,-415.16C575.43,-406.35 499.61,-392.83 434,-376 427.18,-374.25 420.09,-372.21 413.09,-370.06"/>
<polygon fill="midnightblue" stroke="midnightblue" points="630.3,-418.65 640.72,-416.75 631.39,-411.73 630.3,-418.65"/>
</g>
<!-- Node5 -->
<g id="node5" class="node">
<title>Node5</title>
<g id="a_node5"><a xlink:href="Sortie__libre__Pression__imposee__Orlansky_8cpp.html" target="_top" xlink:title=" ">
<polygon fill="white" stroke="black" points="443.5,-329 443.5,-370 580.5,-370 580.5,-329 443.5,-329"/>
<text text-anchor="start" x="451.5" y="-358" font-family="Helvetica,sans-Serif" font-size="10.00">src/VDF/Cond_Lim/Sortie</text>
<text text-anchor="start" x="451.5" y="-347" font-family="Helvetica,sans-Serif" font-size="10.00">_libre_Pression_imposee</text>
<text text-anchor="middle" x="512" y="-336" font-family="Helvetica,sans-Serif" font-size="10.00">_Orlansky.cpp</text>
</a>
</g>
</g>
<!-- Node1&#45;&gt;Node5 -->
<g id="edge4" class="edge">
<title>Node1&#45;&gt;Node5</title>
<path fill="none" stroke="midnightblue" d="M662.24,-408.76C632.39,-397.18 593.4,-382.06 562.62,-370.13"/>
<polygon fill="midnightblue" stroke="midnightblue" points="661,-412.03 671.59,-412.38 663.53,-405.5 661,-412.03"/>
</g>
<!-- Node6 -->
<g id="node6" class="node">
<title>Node6</title>
<g id="a_node6"><a xlink:href="Eval__VDF__Elem_8h.html" target="_top" xlink:title=" ">
<polygon fill="white" stroke="black" points="598.5,-329 598.5,-370 725.5,-370 725.5,-329 598.5,-329"/>
<text text-anchor="start" x="606.5" y="-358" font-family="Helvetica,sans-Serif" font-size="10.00">src/VDF/Operateurs</text>
<text text-anchor="start" x="606.5" y="-347" font-family="Helvetica,sans-Serif" font-size="10.00">/Eval_Divers/Eval_VDF</text>
<text text-anchor="middle" x="662" y="-336" font-family="Helvetica,sans-Serif" font-size="10.00">_Elem.h</text>
</a>
</g>
</g>
<!-- Node1&#45;&gt;Node6 -->
<g id="edge5" class="edge">
<title>Node1&#45;&gt;Node6</title>
<path fill="none" stroke="midnightblue" d="M694.05,-403.45C687.62,-392.83 680.07,-380.35 673.91,-370.18"/>
<polygon fill="midnightblue" stroke="midnightblue" points="691.18,-405.46 699.35,-412.2 697.16,-401.84 691.18,-405.46"/>
</g>
<!-- Node23 -->
<g id="node23" class="node">
<title>Node23</title>
<g id="a_node23"><a xlink:href="Op__Diff__Dift__VDF_8h.html" target="_top" xlink:title=" ">
<polygon fill="white" stroke="black" points="913.5,-156.5 913.5,-197.5 1030.5,-197.5 1030.5,-156.5 913.5,-156.5"/>
<text text-anchor="start" x="921.5" y="-185.5" font-family="Helvetica,sans-Serif" font-size="10.00">src/VDF/Operateurs</text>
<text text-anchor="start" x="921.5" y="-174.5" font-family="Helvetica,sans-Serif" font-size="10.00">/Op_Diff_Dift/Op_Diff</text>
<text text-anchor="middle" x="972" y="-163.5" font-family="Helvetica,sans-Serif" font-size="10.00">_Dift_VDF.h</text>
</a>
</g>
</g>
<!-- Node1&#45;&gt;Node23 -->
<g id="edge22" class="edge">
<title>Node1&#45;&gt;Node23</title>
<path fill="none" stroke="midnightblue" d="M719.3,-403.24C730.81,-381.05 750.17,-347.46 773,-323 822.88,-269.56 894.91,-222.82 937.25,-197.67"/>
<polygon fill="midnightblue" stroke="midnightblue" points="716.12,-401.78 714.72,-412.28 722.36,-404.95 716.12,-401.78"/>
</g>
<!-- Node28 -->
<g id="node28" class="node">
<title>Node28</title>
<g id="a_node28"><a xlink:href="Op__Diff__VDF__Elem__base_8cpp.html" target="_top" xlink:title=" ">
<polygon fill="white" stroke="black" points="782,-323.5 782,-375.5 914,-375.5 914,-323.5 782,-323.5"/>
<text text-anchor="start" x="790" y="-363.5" font-family="Helvetica,sans-Serif" font-size="10.00">src/VDF/Operateurs</text>
<text text-anchor="start" x="790" y="-352.5" font-family="Helvetica,sans-Serif" font-size="10.00">/Op_Diff_Dift/Op_Diff</text>
<text text-anchor="start" x="790" y="-341.5" font-family="Helvetica,sans-Serif" font-size="10.00">_Dift_base/Op_Diff_VDF</text>
<text text-anchor="middle" x="848" y="-330.5" font-family="Helvetica,sans-Serif" font-size="10.00">_Elem_base.cpp</text>
</a>
</g>
</g>
<!-- Node1&#45;&gt;Node28 -->
<g id="edge29" class="edge">
<title>Node1&#45;&gt;Node28</title>
<path fill="none" stroke="midnightblue" d="M742.9,-407.55C760.69,-397.9 782.56,-386.02 801.73,-375.62"/>
<polygon fill="midnightblue" stroke="midnightblue" points="741.12,-404.54 734,-412.38 744.46,-410.69 741.12,-404.54"/>
</g>
<!-- Node29 -->
<g id="node29" class="node">
<title>Node29</title>
<g id="a_node29"><a xlink:href="Op__Grad__VDF__Face_8cpp.html" target="_top" xlink:title=" ">
<polygon fill="white" stroke="black" points="932,-329 932,-370 1072,-370 1072,-329 932,-329"/>
<text text-anchor="start" x="940" y="-358" font-family="Helvetica,sans-Serif" font-size="10.00">src/VDF/Operateurs</text>
<text text-anchor="start" x="940" y="-347" font-family="Helvetica,sans-Serif" font-size="10.00">/Op_Divers/Op_Grad_VDF</text>
<text text-anchor="middle" x="1002" y="-336" font-family="Helvetica,sans-Serif" font-size="10.00">_Face.cpp</text>
</a>
</g>
</g>
<!-- Node1&#45;&gt;Node29 -->
<g id="edge30" class="edge">
<title>Node1&#45;&gt;Node29</title>
<path fill="none" stroke="midnightblue" d="M784.21,-410.19C825.5,-400.95 877.27,-388.73 923,-376 929.53,-374.18 936.32,-372.17 943.06,-370.11"/>
<polygon fill="midnightblue" stroke="midnightblue" points="783.22,-406.82 774.22,-412.41 784.74,-413.66 783.22,-406.82"/>
</g>
<!-- Node30 -->
<g id="node30" class="node">
<title>Node30</title>
<g id="a_node30"><a xlink:href="Traitement__particulier__NS__Pression__VDF_8h.html" target="_top" xlink:title=" ">
<polygon fill="white" stroke="black" points="1090,-329 1090,-370 1260,-370 1260,-329 1090,-329"/>
<text text-anchor="start" x="1098" y="-358" font-family="Helvetica,sans-Serif" font-size="10.00">src/VDF/Traitement</text>
<text text-anchor="start" x="1098" y="-347" font-family="Helvetica,sans-Serif" font-size="10.00">_particulier/Traitement</text>
<text text-anchor="middle" x="1175" y="-336" font-family="Helvetica,sans-Serif" font-size="10.00">_particulier_NS_Pression_VDF.h</text>
</a>
</g>
</g>
<!-- Node1&#45;&gt;Node30 -->
<g id="edge31" class="edge">
<title>Node1&#45;&gt;Node30</title>
<path fill="none" stroke="midnightblue" d="M785.55,-418.98C861.34,-410.93 979.76,-396.49 1081,-376 1089.54,-374.27 1098.44,-372.21 1107.22,-370.01"/>
<polygon fill="midnightblue" stroke="midnightblue" points="784.72,-415.55 775.15,-420.07 785.46,-422.51 784.72,-415.55"/>
</g>
<!-- Node32 -->
<g id="node32" class="node">
<title>Node32</title>
<g id="a_node32"><a xlink:href="Zone__Cl__VDF_8cpp.html" target="_top" xlink:title=" ">
<polygon fill="white" stroke="black" points="1278.5,-334.5 1278.5,-364.5 1393.5,-364.5 1393.5,-334.5 1278.5,-334.5"/>
<text text-anchor="start" x="1286.5" y="-352.5" font-family="Helvetica,sans-Serif" font-size="10.00">src/VDF/Zones/Zone</text>
<text text-anchor="middle" x="1336" y="-341.5" font-family="Helvetica,sans-Serif" font-size="10.00">_Cl_VDF.cpp</text>
</a>
</g>
</g>
<!-- Node1&#45;&gt;Node32 -->
<g id="edge33" class="edge">
<title>Node1&#45;&gt;Node32</title>
<path fill="none" stroke="midnightblue" d="M785.7,-426.18C894.96,-424.23 1099.61,-415.08 1269,-376 1280.88,-373.26 1293.49,-368.88 1304.52,-364.52"/>
<polygon fill="midnightblue" stroke="midnightblue" points="785.37,-422.69 775.43,-426.35 785.48,-429.69 785.37,-422.69"/>
</g>
<!-- Node7 -->
<g id="node7" class="node">
<title>Node7</title>
<g id="a_node7"><a xlink:href="Eval__Conv__VDF__Elem_8h.html" target="_top" xlink:title=" ">
<polygon fill="white" stroke="black" points="312.5,-240 312.5,-281 437.5,-281 437.5,-240 312.5,-240"/>
<text text-anchor="start" x="320.5" y="-269" font-family="Helvetica,sans-Serif" font-size="10.00">src/VDF/Operateurs</text>
<text text-anchor="start" x="320.5" y="-258" font-family="Helvetica,sans-Serif" font-size="10.00">/Eval_Conv/Eval_Conv</text>
<text text-anchor="middle" x="375" y="-247" font-family="Helvetica,sans-Serif" font-size="10.00">_VDF_Elem.h</text>
</a>
</g>
</g>
<!-- Node6&#45;&gt;Node7 -->
<g id="edge6" class="edge">
<title>Node6&#45;&gt;Node7</title>
<path fill="none" stroke="midnightblue" d="M597.91,-325.77C594.91,-324.81 591.93,-323.89 589,-323 527.51,-304.39 510.53,-305.48 449,-287 442.88,-285.16 436.52,-283.14 430.2,-281.06"/>
<polygon fill="midnightblue" stroke="midnightblue" points="596.96,-329.14 607.55,-328.92 599.13,-322.49 596.96,-329.14"/>
</g>
<!-- Node13 -->
<g id="node13" class="node">
<title>Node13</title>
<g id="a_node13"><a xlink:href="Eval__Diff__VDF__Elem_8h.html" target="_top" xlink:title=" ">
<polygon fill="white" stroke="black" points="610.5,-240 610.5,-281 721.5,-281 721.5,-240 610.5,-240"/>
<text text-anchor="start" x="618.5" y="-269" font-family="Helvetica,sans-Serif" font-size="10.00">src/VDF/Operateurs</text>
<text text-anchor="start" x="618.5" y="-258" font-family="Helvetica,sans-Serif" font-size="10.00">/Eval_Diff_Dift/Eval</text>
<text text-anchor="middle" x="666" y="-247" font-family="Helvetica,sans-Serif" font-size="10.00">_Diff_VDF_Elem.h</text>
</a>
</g>
</g>
<!-- Node6&#45;&gt;Node13 -->
<g id="edge12" class="edge">
<title>Node6&#45;&gt;Node13</title>
<path fill="none" stroke="midnightblue" d="M663.38,-318.44C663.95,-306.1 664.59,-292.16 665.1,-281.16"/>
<polygon fill="midnightblue" stroke="midnightblue" points="659.87,-318.61 662.91,-328.76 666.86,-318.93 659.87,-318.61"/>
</g>
<!-- Node20 -->
<g id="node20" class="node">
<title>Node20</title>
<g id="a_node20"><a xlink:href="Eval__Div__VDF__Elem_8h.html" target="_top" xlink:title=" ">
<polygon fill="white" stroke="black" points="458.5,-240 458.5,-281 581.5,-281 581.5,-240 458.5,-240"/>
<text text-anchor="start" x="466.5" y="-269" font-family="Helvetica,sans-Serif" font-size="10.00">src/VDF/Operateurs</text>
<text text-anchor="start" x="466.5" y="-258" font-family="Helvetica,sans-Serif" font-size="10.00">/Eval_Divers/Eval_Div</text>
<text text-anchor="middle" x="520" y="-247" font-family="Helvetica,sans-Serif" font-size="10.00">_VDF_Elem.h</text>
</a>
</g>
</g>
<!-- Node6&#45;&gt;Node20 -->
<g id="edge19" class="edge">
<title>Node6&#45;&gt;Node20</title>
<path fill="none" stroke="midnightblue" d="M621.37,-323.61C599.44,-310.17 572.74,-293.81 552.25,-281.26"/>
<polygon fill="midnightblue" stroke="midnightblue" points="619.78,-326.74 630.13,-328.98 623.43,-320.77 619.78,-326.74"/>
</g>
<!-- Node8 -->
<g id="node8" class="node">
<title>Node8</title>
<g id="a_node8"><a xlink:href="Eval__Conv__VDF__Elem__leaves_8h.html" target="_top" xlink:title=" ">
<polygon fill="white" stroke="black" points="297.5,-156.5 297.5,-197.5 422.5,-197.5 422.5,-156.5 297.5,-156.5"/>
<text text-anchor="start" x="305.5" y="-185.5" font-family="Helvetica,sans-Serif" font-size="10.00">src/VDF/Operateurs</text>
<text text-anchor="start" x="305.5" y="-174.5" font-family="Helvetica,sans-Serif" font-size="10.00">/Eval_Conv/Eval_Conv</text>
<text text-anchor="middle" x="360" y="-163.5" font-family="Helvetica,sans-Serif" font-size="10.00">_VDF_Elem_leaves.h</text>
</a>
</g>
</g>
<!-- Node7&#45;&gt;Node8 -->
<g id="edge7" class="edge">
<title>Node7&#45;&gt;Node8</title>
<path fill="none" stroke="midnightblue" d="M369.55,-229.9C367.57,-219.13 365.38,-207.23 363.6,-197.55"/>
<polygon fill="midnightblue" stroke="midnightblue" points="366.12,-230.57 371.37,-239.77 373,-229.3 366.12,-230.57"/>
</g>
<!-- Node9 -->
<g id="node9" class="node">
<title>Node9</title>
<g id="a_node9"><a xlink:href="Op__Conv__VDF__Elem__leaves_8h.html" target="_top" xlink:title=" ">
<polygon fill="white" stroke="black" points="292.5,-78.5 292.5,-119.5 427.5,-119.5 427.5,-78.5 292.5,-78.5"/>
<text text-anchor="start" x="300.5" y="-107.5" font-family="Helvetica,sans-Serif" font-size="10.00">src/VDF/Operateurs</text>
<text text-anchor="start" x="300.5" y="-96.5" font-family="Helvetica,sans-Serif" font-size="10.00">/Op_Conv/Op_Conv_VDF</text>
<text text-anchor="middle" x="360" y="-85.5" font-family="Helvetica,sans-Serif" font-size="10.00">_Elem_leaves.h</text>
</a>
</g>
</g>
<!-- Node8&#45;&gt;Node9 -->
<g id="edge8" class="edge">
<title>Node8&#45;&gt;Node9</title>
<path fill="none" stroke="midnightblue" d="M360,-146.3C360,-137.3 360,-127.65 360,-119.51"/>
<polygon fill="midnightblue" stroke="midnightblue" points="356.5,-146.43 360,-156.43 363.5,-146.43 356.5,-146.43"/>
</g>
<!-- Node11 -->
<g id="node11" class="node">
<title>Node11</title>
<g id="a_node11"><a xlink:href="Op__Conv__VDF__Face__leaves_8h.html" target="_top" xlink:title=" ">
<polygon fill="white" stroke="black" points="139.5,-78.5 139.5,-119.5 274.5,-119.5 274.5,-78.5 139.5,-78.5"/>
<text text-anchor="start" x="147.5" y="-107.5" font-family="Helvetica,sans-Serif" font-size="10.00">src/VDF/Operateurs</text>
<text text-anchor="start" x="147.5" y="-96.5" font-family="Helvetica,sans-Serif" font-size="10.00">/Op_Conv/Op_Conv_VDF</text>
<text text-anchor="middle" x="207" y="-85.5" font-family="Helvetica,sans-Serif" font-size="10.00">_Face_leaves.h</text>
</a>
</g>
</g>
<!-- Node8&#45;&gt;Node11 -->
<g id="edge10" class="edge">
<title>Node8&#45;&gt;Node11</title>
<path fill="none" stroke="midnightblue" d="M311.5,-151.91C290.46,-141.46 266.15,-129.38 246.27,-119.51"/>
<polygon fill="midnightblue" stroke="midnightblue" points="310.09,-155.11 320.6,-156.43 313.2,-148.84 310.09,-155.11"/>
</g>
<!-- Node10 -->
<g id="node10" class="node">
<title>Node10</title>
<g id="a_node10"><a xlink:href="Op__Conv__VDF__Elem__leaves_8cpp.html" target="_top" xlink:title=" ">
<polygon fill="white" stroke="black" points="292.5,-0.5 292.5,-41.5 427.5,-41.5 427.5,-0.5 292.5,-0.5"/>
<text text-anchor="start" x="300.5" y="-29.5" font-family="Helvetica,sans-Serif" font-size="10.00">src/VDF/Operateurs</text>
<text text-anchor="start" x="300.5" y="-18.5" font-family="Helvetica,sans-Serif" font-size="10.00">/Op_Conv/Op_Conv_VDF</text>
<text text-anchor="middle" x="360" y="-7.5" font-family="Helvetica,sans-Serif" font-size="10.00">_Elem_leaves.cpp</text>
</a>
</g>
</g>
<!-- Node9&#45;&gt;Node10 -->
<g id="edge9" class="edge">
<title>Node9&#45;&gt;Node10</title>
<path fill="none" stroke="midnightblue" d="M360,-68.3C360,-59.3 360,-49.65 360,-41.51"/>
<polygon fill="midnightblue" stroke="midnightblue" points="356.5,-68.43 360,-78.43 363.5,-68.43 356.5,-68.43"/>
</g>
<!-- Node12 -->
<g id="node12" class="node">
<title>Node12</title>
<g id="a_node12"><a xlink:href="Op__Conv__VDF__Face__leaves_8cpp.html" target="_top" xlink:title=" ">
<polygon fill="white" stroke="black" points="139.5,-0.5 139.5,-41.5 274.5,-41.5 274.5,-0.5 139.5,-0.5"/>
<text text-anchor="start" x="147.5" y="-29.5" font-family="Helvetica,sans-Serif" font-size="10.00">src/VDF/Operateurs</text>
<text text-anchor="start" x="147.5" y="-18.5" font-family="Helvetica,sans-Serif" font-size="10.00">/Op_Conv/Op_Conv_VDF</text>
<text text-anchor="middle" x="207" y="-7.5" font-family="Helvetica,sans-Serif" font-size="10.00">_Face_leaves.cpp</text>
</a>
</g>
</g>
<!-- Node11&#45;&gt;Node12 -->
<g id="edge11" class="edge">
<title>Node11&#45;&gt;Node12</title>
<path fill="none" stroke="midnightblue" d="M207,-68.3C207,-59.3 207,-49.65 207,-41.51"/>
<polygon fill="midnightblue" stroke="midnightblue" points="203.5,-68.43 207,-78.43 210.5,-68.43 203.5,-68.43"/>
</g>
<!-- Node14 -->
<g id="node14" class="node">
<title>Node14</title>
<g id="a_node14"><a xlink:href="Eval__Diff__VDF__Elem__leaves_8h.html" target="_top" xlink:title=" ">
<polygon fill="white" stroke="black" points="754.5,-156.5 754.5,-197.5 895.5,-197.5 895.5,-156.5 754.5,-156.5"/>
<text text-anchor="start" x="762.5" y="-185.5" font-family="Helvetica,sans-Serif" font-size="10.00">src/VDF/Operateurs</text>
<text text-anchor="start" x="762.5" y="-174.5" font-family="Helvetica,sans-Serif" font-size="10.00">/Eval_Diff_Dift/Eval</text>
<text text-anchor="middle" x="825" y="-163.5" font-family="Helvetica,sans-Serif" font-size="10.00">_Diff_VDF_Elem_leaves.h</text>
</a>
</g>
</g>
<!-- Node13&#45;&gt;Node14 -->
<g id="edge13" class="edge">
<title>Node13&#45;&gt;Node14</title>
<path fill="none" stroke="midnightblue" d="M713.19,-235.31C736.73,-223.25 764.82,-208.85 786.95,-197.5"/>
<polygon fill="midnightblue" stroke="midnightblue" points="711.39,-232.3 704.08,-239.98 714.58,-238.53 711.39,-232.3"/>
</g>
<!-- Node17 -->
<g id="node17" class="node">
<title>Node17</title>
<g id="a_node17"><a xlink:href="Eval__Dift__VDF__Elem__leaves_8h.html" target="_top" xlink:title=" ">
<polygon fill="white" stroke="black" points="595.5,-156.5 595.5,-197.5 736.5,-197.5 736.5,-156.5 595.5,-156.5"/>
<text text-anchor="start" x="603.5" y="-185.5" font-family="Helvetica,sans-Serif" font-size="10.00">src/VDF/Operateurs</text>
<text text-anchor="start" x="603.5" y="-174.5" font-family="Helvetica,sans-Serif" font-size="10.00">/Eval_Diff_Dift/Eval</text>
<text text-anchor="middle" x="666" y="-163.5" font-family="Helvetica,sans-Serif" font-size="10.00">_Dift_VDF_Elem_leaves.h</text>
</a>
</g>
</g>
<!-- Node13&#45;&gt;Node17 -->
<g id="edge16" class="edge">
<title>Node13&#45;&gt;Node17</title>
<path fill="none" stroke="midnightblue" d="M666,-229.56C666,-218.88 666,-207.13 666,-197.55"/>
<polygon fill="midnightblue" stroke="midnightblue" points="662.5,-229.77 666,-239.77 669.5,-229.77 662.5,-229.77"/>
</g>
<!-- Node15 -->
<g id="node15" class="node">
<title>Node15</title>
<g id="a_node15"><a xlink:href="Op__Diff__VDF__Elem__leaves_8h.html" target="_top" xlink:title=" ">
<polygon fill="white" stroke="black" points="765.5,-78.5 765.5,-119.5 884.5,-119.5 884.5,-78.5 765.5,-78.5"/>
<text text-anchor="start" x="773.5" y="-107.5" font-family="Helvetica,sans-Serif" font-size="10.00">src/VDF/Operateurs</text>
<text text-anchor="start" x="773.5" y="-96.5" font-family="Helvetica,sans-Serif" font-size="10.00">/Op_Diff_Dift/Op_Diff</text>
<text text-anchor="middle" x="825" y="-85.5" font-family="Helvetica,sans-Serif" font-size="10.00">_VDF_Elem_leaves.h</text>
</a>
</g>
</g>
<!-- Node14&#45;&gt;Node15 -->
<g id="edge14" class="edge">
<title>Node14&#45;&gt;Node15</title>
<path fill="none" stroke="midnightblue" d="M825,-146.3C825,-137.3 825,-127.65 825,-119.51"/>
<polygon fill="midnightblue" stroke="midnightblue" points="821.5,-146.43 825,-156.43 828.5,-146.43 821.5,-146.43"/>
</g>
<!-- Node16 -->
<g id="node16" class="node">
<title>Node16</title>
<g id="a_node16"><a xlink:href="Op__Diff__VDF__Elem__leaves_8cpp.html" target="_top" xlink:title=" ">
<polygon fill="white" stroke="black" points="760,-0.5 760,-41.5 890,-41.5 890,-0.5 760,-0.5"/>
<text text-anchor="start" x="768" y="-29.5" font-family="Helvetica,sans-Serif" font-size="10.00">src/VDF/Operateurs</text>
<text text-anchor="start" x="768" y="-18.5" font-family="Helvetica,sans-Serif" font-size="10.00">/Op_Diff_Dift/Op_Diff</text>
<text text-anchor="middle" x="825" y="-7.5" font-family="Helvetica,sans-Serif" font-size="10.00">_VDF_Elem_leaves.cpp</text>
</a>
</g>
</g>
<!-- Node15&#45;&gt;Node16 -->
<g id="edge15" class="edge">
<title>Node15&#45;&gt;Node16</title>
<path fill="none" stroke="midnightblue" d="M825,-68.3C825,-59.3 825,-49.65 825,-41.51"/>
<polygon fill="midnightblue" stroke="midnightblue" points="821.5,-68.43 825,-78.43 828.5,-68.43 821.5,-68.43"/>
</g>
<!-- Node18 -->
<g id="node18" class="node">
<title>Node18</title>
<g id="a_node18"><a xlink:href="Op__Dift__VDF__Elem__leaves_8h.html" target="_top" xlink:title=" ">
<polygon fill="white" stroke="black" points="612.5,-78.5 612.5,-119.5 731.5,-119.5 731.5,-78.5 612.5,-78.5"/>
<text text-anchor="start" x="620.5" y="-107.5" font-family="Helvetica,sans-Serif" font-size="10.00">src/VDF/Operateurs</text>
<text text-anchor="start" x="620.5" y="-96.5" font-family="Helvetica,sans-Serif" font-size="10.00">/Op_Diff_Dift/Op_Dift</text>
<text text-anchor="middle" x="672" y="-85.5" font-family="Helvetica,sans-Serif" font-size="10.00">_VDF_Elem_leaves.h</text>
</a>
</g>
</g>
<!-- Node17&#45;&gt;Node18 -->
<g id="edge17" class="edge">
<title>Node17&#45;&gt;Node18</title>
<path fill="none" stroke="midnightblue" d="M668.35,-146.3C669.06,-137.3 669.82,-127.65 670.46,-119.51"/>
<polygon fill="midnightblue" stroke="midnightblue" points="664.84,-146.18 667.55,-156.43 671.82,-146.73 664.84,-146.18"/>
</g>
<!-- Node19 -->
<g id="node19" class="node">
<title>Node19</title>
<g id="a_node19"><a xlink:href="Op__Dift__VDF__Elem__leaves_8cpp.html" target="_top" xlink:title=" ">
<polygon fill="white" stroke="black" points="607,-0.5 607,-41.5 737,-41.5 737,-0.5 607,-0.5"/>
<text text-anchor="start" x="615" y="-29.5" font-family="Helvetica,sans-Serif" font-size="10.00">src/VDF/Operateurs</text>
<text text-anchor="start" x="615" y="-18.5" font-family="Helvetica,sans-Serif" font-size="10.00">/Op_Diff_Dift/Op_Dift</text>
<text text-anchor="middle" x="672" y="-7.5" font-family="Helvetica,sans-Serif" font-size="10.00">_VDF_Elem_leaves.cpp</text>
</a>
</g>
</g>
<!-- Node18&#45;&gt;Node19 -->
<g id="edge18" class="edge">
<title>Node18&#45;&gt;Node19</title>
<path fill="none" stroke="midnightblue" d="M672,-68.3C672,-59.3 672,-49.65 672,-41.51"/>
<polygon fill="midnightblue" stroke="midnightblue" points="668.5,-68.43 672,-78.43 675.5,-68.43 668.5,-68.43"/>
</g>
<!-- Node21 -->
<g id="node21" class="node">
<title>Node21</title>
<g id="a_node21"><a xlink:href="Op__Div__VDF__Elem_8h.html" target="_top" xlink:title=" ">
<polygon fill="white" stroke="black" points="443,-156.5 443,-197.5 577,-197.5 577,-156.5 443,-156.5"/>
<text text-anchor="start" x="451" y="-185.5" font-family="Helvetica,sans-Serif" font-size="10.00">src/VDF/Operateurs</text>
<text text-anchor="start" x="451" y="-174.5" font-family="Helvetica,sans-Serif" font-size="10.00">/Op_Divers/Op_Div_VDF</text>
<text text-anchor="middle" x="510" y="-163.5" font-family="Helvetica,sans-Serif" font-size="10.00">_Elem.h</text>
</a>
</g>
</g>
<!-- Node20&#45;&gt;Node21 -->
<g id="edge20" class="edge">
<title>Node20&#45;&gt;Node21</title>
<path fill="none" stroke="midnightblue" d="M516.33,-229.56C515.02,-218.88 513.57,-207.13 512.4,-197.55"/>
<polygon fill="midnightblue" stroke="midnightblue" points="512.89,-230.27 517.58,-239.77 519.84,-229.42 512.89,-230.27"/>
</g>
<!-- Node22 -->
<g id="node22" class="node">
<title>Node22</title>
<g id="a_node22"><a xlink:href="Op__Div__VDF__Elem_8cpp.html" target="_top" xlink:title=" ">
<polygon fill="white" stroke="black" points="446,-78.5 446,-119.5 580,-119.5 580,-78.5 446,-78.5"/>
<text text-anchor="start" x="454" y="-107.5" font-family="Helvetica,sans-Serif" font-size="10.00">src/VDF/Operateurs</text>
<text text-anchor="start" x="454" y="-96.5" font-family="Helvetica,sans-Serif" font-size="10.00">/Op_Divers/Op_Div_VDF</text>
<text text-anchor="middle" x="513" y="-85.5" font-family="Helvetica,sans-Serif" font-size="10.00">_Elem.cpp</text>
</a>
</g>
</g>
<!-- Node21&#45;&gt;Node22 -->
<g id="edge21" class="edge">
<title>Node21&#45;&gt;Node22</title>
<path fill="none" stroke="midnightblue" d="M511.17,-146.3C511.53,-137.3 511.91,-127.65 512.23,-119.51"/>
<polygon fill="midnightblue" stroke="midnightblue" points="507.67,-146.3 510.77,-156.43 514.66,-146.57 507.67,-146.3"/>
</g>
<!-- Node23&#45;&gt;Node15 -->
<g id="edge23" class="edge">
<title>Node23&#45;&gt;Node15</title>
<path fill="none" stroke="midnightblue" d="M925.13,-151.77C904.98,-141.35 881.74,-129.34 862.73,-119.51"/>
<polygon fill="midnightblue" stroke="midnightblue" points="923.65,-154.94 934.14,-156.43 926.87,-148.73 923.65,-154.94"/>
</g>
<!-- Node23&#45;&gt;Node18 -->
<g id="edge26" class="edge">
<title>Node23&#45;&gt;Node18</title>
<path fill="none" stroke="midnightblue" d="M903.35,-155.72C872.4,-147.94 789.71,-128.13 731.79,-114.29"/>
<polygon fill="midnightblue" stroke="midnightblue" points="902.67,-159.15 913.23,-158.26 904.41,-152.38 902.67,-159.15"/>
</g>
<!-- Node24 -->
<g id="node24" class="node">
<title>Node24</title>
<g id="a_node24"><a xlink:href="Op__Diff__VDF__Face__leaves_8h.html" target="_top" xlink:title=" ">
<polygon fill="white" stroke="black" points="1053.5,-78.5 1053.5,-119.5 1170.5,-119.5 1170.5,-78.5 1053.5,-78.5"/>
<text text-anchor="start" x="1061.5" y="-107.5" font-family="Helvetica,sans-Serif" font-size="10.00">src/VDF/Operateurs</text>
<text text-anchor="start" x="1061.5" y="-96.5" font-family="Helvetica,sans-Serif" font-size="10.00">/Op_Diff_Dift/Op_Diff</text>
<text text-anchor="middle" x="1112" y="-85.5" font-family="Helvetica,sans-Serif" font-size="10.00">_VDF_Face_leaves.h</text>
</a>
</g>
</g>
<!-- Node23&#45;&gt;Node24 -->
<g id="edge24" class="edge">
<title>Node23&#45;&gt;Node24</title>
<path fill="none" stroke="midnightblue" d="M1016.9,-151.63C1036.03,-141.24 1058.04,-129.29 1076.07,-119.51"/>
<polygon fill="midnightblue" stroke="midnightblue" points="1015.17,-148.58 1008.05,-156.43 1018.51,-154.73 1015.17,-148.58"/>
</g>
<!-- Node26 -->
<g id="node26" class="node">
<title>Node26</title>
<g id="a_node26"><a xlink:href="Op__Dift__VDF__Face__leaves_8h.html" target="_top" xlink:title=" ">
<polygon fill="white" stroke="black" points="913.5,-78.5 913.5,-119.5 1030.5,-119.5 1030.5,-78.5 913.5,-78.5"/>
<text text-anchor="start" x="921.5" y="-107.5" font-family="Helvetica,sans-Serif" font-size="10.00">src/VDF/Operateurs</text>
<text text-anchor="start" x="921.5" y="-96.5" font-family="Helvetica,sans-Serif" font-size="10.00">/Op_Diff_Dift/Op_Dift</text>
<text text-anchor="middle" x="972" y="-85.5" font-family="Helvetica,sans-Serif" font-size="10.00">_VDF_Face_leaves.h</text>
</a>
</g>
</g>
<!-- Node23&#45;&gt;Node26 -->
<g id="edge27" class="edge">
<title>Node23&#45;&gt;Node26</title>
<path fill="none" stroke="midnightblue" d="M972,-146.3C972,-137.3 972,-127.65 972,-119.51"/>
<polygon fill="midnightblue" stroke="midnightblue" points="968.5,-146.43 972,-156.43 975.5,-146.43 968.5,-146.43"/>
</g>
<!-- Node25 -->
<g id="node25" class="node">
<title>Node25</title>
<g id="a_node25"><a xlink:href="Op__Diff__VDF__Face__leaves_8cpp.html" target="_top" xlink:title=" ">
<polygon fill="white" stroke="black" points="1053.5,-0.5 1053.5,-41.5 1180.5,-41.5 1180.5,-0.5 1053.5,-0.5"/>
<text text-anchor="start" x="1061.5" y="-29.5" font-family="Helvetica,sans-Serif" font-size="10.00">src/VDF/Operateurs</text>
<text text-anchor="start" x="1061.5" y="-18.5" font-family="Helvetica,sans-Serif" font-size="10.00">/Op_Diff_Dift/Op_Diff</text>
<text text-anchor="middle" x="1117" y="-7.5" font-family="Helvetica,sans-Serif" font-size="10.00">_VDF_Face_leaves.cpp</text>
</a>
</g>
</g>
<!-- Node24&#45;&gt;Node25 -->
<g id="edge25" class="edge">
<title>Node24&#45;&gt;Node25</title>
<path fill="none" stroke="midnightblue" d="M1113.95,-68.3C1114.55,-59.3 1115.18,-49.65 1115.72,-41.51"/>
<polygon fill="midnightblue" stroke="midnightblue" points="1110.45,-68.22 1113.29,-78.43 1117.44,-68.68 1110.45,-68.22"/>
</g>
<!-- Node27 -->
<g id="node27" class="node">
<title>Node27</title>
<g id="a_node27"><a xlink:href="Op__Dift__VDF__Face__leaves_8cpp.html" target="_top" xlink:title=" ">
<polygon fill="white" stroke="black" points="908.5,-0.5 908.5,-41.5 1035.5,-41.5 1035.5,-0.5 908.5,-0.5"/>
<text text-anchor="start" x="916.5" y="-29.5" font-family="Helvetica,sans-Serif" font-size="10.00">src/VDF/Operateurs</text>
<text text-anchor="start" x="916.5" y="-18.5" font-family="Helvetica,sans-Serif" font-size="10.00">/Op_Diff_Dift/Op_Dift</text>
<text text-anchor="middle" x="972" y="-7.5" font-family="Helvetica,sans-Serif" font-size="10.00">_VDF_Face_leaves.cpp</text>
</a>
</g>
</g>
<!-- Node26&#45;&gt;Node27 -->
<g id="edge28" class="edge">
<title>Node26&#45;&gt;Node27</title>
<path fill="none" stroke="midnightblue" d="M972,-68.3C972,-59.3 972,-49.65 972,-41.51"/>
<polygon fill="midnightblue" stroke="midnightblue" points="968.5,-68.43 972,-78.43 975.5,-68.43 968.5,-68.43"/>
</g>
<!-- Node31 -->
<g id="node31" class="node">
<title>Node31</title>
<g id="a_node31"><a xlink:href="Traitement__particulier__NS__Pression__VDF_8cpp.html" target="_top" xlink:title=" ">
<polygon fill="white" stroke="black" points="1106.5,-234.5 1106.5,-286.5 1243.5,-286.5 1243.5,-234.5 1106.5,-234.5"/>
<text text-anchor="start" x="1114.5" y="-274.5" font-family="Helvetica,sans-Serif" font-size="10.00">src/VDF/Traitement</text>
<text text-anchor="start" x="1114.5" y="-263.5" font-family="Helvetica,sans-Serif" font-size="10.00">_particulier/Traitement</text>
<text text-anchor="start" x="1114.5" y="-252.5" font-family="Helvetica,sans-Serif" font-size="10.00">_particulier_NS_Pression</text>
<text text-anchor="middle" x="1175" y="-241.5" font-family="Helvetica,sans-Serif" font-size="10.00">_VDF.cpp</text>
</a>
</g>
</g>
<!-- Node30&#45;&gt;Node31 -->
<g id="edge32" class="edge">
<title>Node30&#45;&gt;Node31</title>
<path fill="none" stroke="midnightblue" d="M1175,-318.51C1175,-308.17 1175,-296.71 1175,-286.79"/>
<polygon fill="midnightblue" stroke="midnightblue" points="1171.5,-318.76 1175,-328.76 1178.5,-318.76 1171.5,-318.76"/>
</g>
</g>
</svg>
