<?xml version="1.0" encoding="UTF-8" standalone="no"?>
<!DOCTYPE svg PUBLIC "-//W3C//DTD SVG 1.1//EN"
 "http://www.w3.org/Graphics/SVG/1.1/DTD/svg11.dtd">
<!-- Generated by graphviz version 2.43.0 (0)
 -->
<!-- Title: src/VEF/Champs/Champ_Fonc_P1NC.h Pages: 1 -->
<svg width="1030pt" height="184pt"
 viewBox="0.00 0.00 1030.00 184.00" xmlns="http://www.w3.org/2000/svg" xmlns:xlink="http://www.w3.org/1999/xlink">
<g id="graph0" class="graph" transform="scale(1 1) rotate(0) translate(4 180)">
<title>src/VEF/Champs/Champ_Fonc_P1NC.h</title>
<polygon fill="white" stroke="transparent" points="-4,4 -4,-180 1026,-180 1026,4 -4,4"/>
<!-- Node1 -->
<g id="node1" class="node">
<title>Node1</title>
<g id="a_node1"><a xlink:title=" ">
<polygon fill="#bfbfbf" stroke="black" points="451,-145.5 451,-175.5 584,-175.5 584,-145.5 451,-145.5"/>
<text text-anchor="start" x="459" y="-163.5" font-family="Helvetica,sans-Serif" font-size="10.00">src/VEF/Champs/Champ</text>
<text text-anchor="middle" x="517.5" y="-152.5" font-family="Helvetica,sans-Serif" font-size="10.00">_Fonc_P1NC.h</text>
</a>
</g>
</g>
<!-- Node2 -->
<g id="node2" class="node">
<title>Node2</title>
<g id="a_node2"><a xlink:href="Assembleur__P__VEFPreP1B_8cpp.html" target="_top" xlink:title=" ">
<polygon fill="white" stroke="black" points="0,-78.5 0,-108.5 167,-108.5 167,-78.5 0,-78.5"/>
<text text-anchor="start" x="8" y="-96.5" font-family="Helvetica,sans-Serif" font-size="10.00">src/P1NCP1B/Solveurs</text>
<text text-anchor="middle" x="83.5" y="-85.5" font-family="Helvetica,sans-Serif" font-size="10.00">/Assembleur_P_VEFPreP1B.cpp</text>
</a>
</g>
</g>
<!-- Node1&#45;&gt;Node2 -->
<g id="edge1" class="edge">
<title>Node1&#45;&gt;Node2</title>
<path fill="none" stroke="midnightblue" d="M440.98,-148.42C371.65,-138.33 266.69,-122.92 175.5,-109 172.78,-108.59 170.02,-108.16 167.23,-107.73"/>
<polygon fill="midnightblue" stroke="midnightblue" points="440.55,-151.89 450.95,-149.87 441.56,-144.97 440.55,-151.89"/>
</g>
<!-- Node3 -->
<g id="node3" class="node">
<title>Node3</title>
<g id="a_node3"><a xlink:href="Traitement__particulier__NS__Pression__VEF_8h.html" target="_top" xlink:title=" ">
<polygon fill="white" stroke="black" points="184.5,-78.5 184.5,-108.5 352.5,-108.5 352.5,-78.5 184.5,-78.5"/>
<text text-anchor="start" x="192.5" y="-96.5" font-family="Helvetica,sans-Serif" font-size="10.00">src/P1NCP1B/Traitement</text>
<text text-anchor="middle" x="268.5" y="-85.5" font-family="Helvetica,sans-Serif" font-size="10.00">_particulier_NS_Pression_VEF.h</text>
</a>
</g>
</g>
<!-- Node1&#45;&gt;Node3 -->
<g id="edge2" class="edge">
<title>Node1&#45;&gt;Node3</title>
<path fill="none" stroke="midnightblue" d="M453.97,-142.92C413.34,-132.31 361.2,-118.7 322.56,-108.61"/>
<polygon fill="midnightblue" stroke="midnightblue" points="453.22,-146.34 463.78,-145.48 454.99,-139.56 453.22,-146.34"/>
</g>
<!-- Node5 -->
<g id="node5" class="node">
<title>Node5</title>
<g id="a_node5"><a xlink:href="Champ__Fonc__P1NC_8cpp.html" target="_top" xlink:title=" ">
<polygon fill="white" stroke="black" points="371,-78.5 371,-108.5 504,-108.5 504,-78.5 371,-78.5"/>
<text text-anchor="start" x="379" y="-96.5" font-family="Helvetica,sans-Serif" font-size="10.00">src/VEF/Champs/Champ</text>
<text text-anchor="middle" x="437.5" y="-85.5" font-family="Helvetica,sans-Serif" font-size="10.00">_Fonc_P1NC.cpp</text>
</a>
</g>
</g>
<!-- Node1&#45;&gt;Node5 -->
<g id="edge4" class="edge">
<title>Node1&#45;&gt;Node5</title>
<path fill="none" stroke="midnightblue" d="M492.13,-138.88C479.97,-129.01 465.72,-117.43 454.82,-108.58"/>
<polygon fill="midnightblue" stroke="midnightblue" points="490.17,-141.81 500.14,-145.4 494.59,-136.37 490.17,-141.81"/>
</g>
<!-- Node6 -->
<g id="node6" class="node">
<title>Node6</title>
<g id="a_node6"><a xlink:href="Champ__P1NC__implementation_8cpp.html" target="_top" xlink:title=" ">
<polygon fill="white" stroke="black" points="522.5,-78.5 522.5,-108.5 674.5,-108.5 674.5,-78.5 522.5,-78.5"/>
<text text-anchor="start" x="530.5" y="-96.5" font-family="Helvetica,sans-Serif" font-size="10.00">src/VEF/Champs/Champ</text>
<text text-anchor="middle" x="598.5" y="-85.5" font-family="Helvetica,sans-Serif" font-size="10.00">_P1NC_implementation.cpp</text>
</a>
</g>
</g>
<!-- Node1&#45;&gt;Node6 -->
<g id="edge5" class="edge">
<title>Node1&#45;&gt;Node6</title>
<path fill="none" stroke="midnightblue" d="M543.19,-138.88C555.5,-129.01 569.93,-117.43 580.96,-108.58"/>
<polygon fill="midnightblue" stroke="midnightblue" points="540.68,-136.41 535.08,-145.4 545.07,-141.87 540.68,-136.41"/>
</g>
<!-- Node7 -->
<g id="node7" class="node">
<title>Node7</title>
<g id="a_node7"><a xlink:href="Correlation__Vec__Sca__VEF_8h.html" target="_top" xlink:title=" ">
<polygon fill="white" stroke="black" points="692.5,-78.5 692.5,-108.5 844.5,-108.5 844.5,-78.5 692.5,-78.5"/>
<text text-anchor="start" x="700.5" y="-96.5" font-family="Helvetica,sans-Serif" font-size="10.00">src/VEF/Champs/Correlation</text>
<text text-anchor="middle" x="768.5" y="-85.5" font-family="Helvetica,sans-Serif" font-size="10.00">_Vec_Sca_VEF.h</text>
</a>
</g>
</g>
<!-- Node1&#45;&gt;Node7 -->
<g id="edge6" class="edge">
<title>Node1&#45;&gt;Node7</title>
<path fill="none" stroke="midnightblue" d="M581.54,-142.92C622.5,-132.31 675.06,-118.7 714.01,-108.61"/>
<polygon fill="midnightblue" stroke="midnightblue" points="580.46,-139.58 571.65,-145.48 582.21,-146.36 580.46,-139.58"/>
</g>
<!-- Node10 -->
<g id="node10" class="node">
<title>Node10</title>
<g id="a_node10"><a xlink:href="Traitement__particulier__NS__Brech__VEF_8h.html" target="_top" xlink:title=" ">
<polygon fill="white" stroke="black" points="867,-78.5 867,-108.5 1022,-108.5 1022,-78.5 867,-78.5"/>
<text text-anchor="start" x="875" y="-96.5" font-family="Helvetica,sans-Serif" font-size="10.00">src/VEF/Traitement</text>
<text text-anchor="middle" x="944.5" y="-85.5" font-family="Helvetica,sans-Serif" font-size="10.00">_particulier_NS_Brech_VEF.h</text>
</a>
</g>
</g>
<!-- Node1&#45;&gt;Node10 -->
<g id="edge9" class="edge">
<title>Node1&#45;&gt;Node10</title>
<path fill="none" stroke="midnightblue" d="M594.36,-148.15C662.48,-138.03 764.65,-122.76 853.5,-109 857.77,-108.34 862.15,-107.66 866.57,-106.96"/>
<polygon fill="midnightblue" stroke="midnightblue" points="593.52,-144.73 584.15,-149.66 594.55,-151.66 593.52,-144.73"/>
</g>
<!-- Node4 -->
<g id="node4" class="node">
<title>Node4</title>
<g id="a_node4"><a xlink:href="Traitement__particulier__NS__Pression__VEF_8cpp.html" target="_top" xlink:title=" ">
<polygon fill="white" stroke="black" points="200,-0.5 200,-41.5 337,-41.5 337,-0.5 200,-0.5"/>
<text text-anchor="start" x="208" y="-29.5" font-family="Helvetica,sans-Serif" font-size="10.00">src/P1NCP1B/Traitement</text>
<text text-anchor="start" x="208" y="-18.5" font-family="Helvetica,sans-Serif" font-size="10.00">_particulier_NS_Pression</text>
<text text-anchor="middle" x="268.5" y="-7.5" font-family="Helvetica,sans-Serif" font-size="10.00">_VEF.cpp</text>
</a>
</g>
</g>
<!-- Node3&#45;&gt;Node4 -->
<g id="edge3" class="edge">
<title>Node3&#45;&gt;Node4</title>
<path fill="none" stroke="midnightblue" d="M268.5,-67.98C268.5,-59.35 268.5,-49.76 268.5,-41.59"/>
<polygon fill="midnightblue" stroke="midnightblue" points="265,-68.23 268.5,-78.23 272,-68.23 265,-68.23"/>
</g>
<!-- Node8 -->
<g id="node8" class="node">
<title>Node8</title>
<g id="a_node8"><a xlink:href="Correlation__Vec__Sca__VEF_8cpp.html" target="_top" xlink:title=" ">
<polygon fill="white" stroke="black" points="498.5,-6 498.5,-36 650.5,-36 650.5,-6 498.5,-6"/>
<text text-anchor="start" x="506.5" y="-24" font-family="Helvetica,sans-Serif" font-size="10.00">src/VEF/Champs/Correlation</text>
<text text-anchor="middle" x="574.5" y="-13" font-family="Helvetica,sans-Serif" font-size="10.00">_Vec_Sca_VEF.cpp</text>
</a>
</g>
</g>
<!-- Node7&#45;&gt;Node8 -->
<g id="edge7" class="edge">
<title>Node7&#45;&gt;Node8</title>
<path fill="none" stroke="midnightblue" d="M720.25,-74.96C687.22,-62.96 644,-47.26 613.23,-36.07"/>
<polygon fill="midnightblue" stroke="midnightblue" points="719.11,-78.28 729.71,-78.4 721.5,-71.7 719.11,-78.28"/>
</g>
<!-- Node9 -->
<g id="node9" class="node">
<title>Node9</title>
<g id="a_node9"><a xlink:href="VEF__discretisation_8cpp.html" target="_top" xlink:title=" ">
<polygon fill="white" stroke="black" points="669,-11.5 669,-30.5 868,-30.5 868,-11.5 669,-11.5"/>
<text text-anchor="middle" x="768.5" y="-18.5" font-family="Helvetica,sans-Serif" font-size="10.00">src/VEF/Zones/VEF_discretisation.cpp</text>
</a>
</g>
</g>
<!-- Node7&#45;&gt;Node9 -->
<g id="edge8" class="edge">
<title>Node7&#45;&gt;Node9</title>
<path fill="none" stroke="midnightblue" d="M768.5,-68.09C768.5,-55.21 768.5,-40.2 768.5,-30.89"/>
<polygon fill="midnightblue" stroke="midnightblue" points="765,-68.23 768.5,-78.23 772,-68.23 765,-68.23"/>
</g>
<!-- Node11 -->
<g id="node11" class="node">
<title>Node11</title>
<g id="a_node11"><a xlink:href="Traitement__particulier__NS__Brech__VEF_8cpp.html" target="_top" xlink:title=" ">
<polygon fill="white" stroke="black" points="886,-0.5 886,-41.5 1009,-41.5 1009,-0.5 886,-0.5"/>
<text text-anchor="start" x="894" y="-29.5" font-family="Helvetica,sans-Serif" font-size="10.00">src/VEF/Traitement</text>
<text text-anchor="start" x="894" y="-18.5" font-family="Helvetica,sans-Serif" font-size="10.00">_particulier_NS_Brech</text>
<text text-anchor="middle" x="947.5" y="-7.5" font-family="Helvetica,sans-Serif" font-size="10.00">_VEF.cpp</text>
</a>
</g>
</g>
<!-- Node10&#45;&gt;Node11 -->
<g id="edge10" class="edge">
<title>Node10&#45;&gt;Node11</title>
<path fill="none" stroke="midnightblue" d="M945.54,-67.98C945.91,-59.35 946.32,-49.76 946.67,-41.59"/>
<polygon fill="midnightblue" stroke="midnightblue" points="942.04,-68.09 945.11,-78.23 949.03,-68.39 942.04,-68.09"/>
</g>
</g>
</svg>
