<?xml version="1.0" encoding="UTF-8" standalone="no"?>
<!DOCTYPE svg PUBLIC "-//W3C//DTD SVG 1.1//EN"
 "http://www.w3.org/Graphics/SVG/1.1/DTD/svg11.dtd">
<!-- Generated by graphviz version 2.43.0 (0)
 -->
<!-- Title: src/PolyMAC/Champs/Champ_Face_PolyMAC_P0.h Pages: 1 -->
<svg width="3123pt" height="195pt"
 viewBox="0.00 0.00 3123.00 195.00" xmlns="http://www.w3.org/2000/svg" xmlns:xlink="http://www.w3.org/1999/xlink">
<g id="graph0" class="graph" transform="scale(1 1) rotate(0) translate(4 191)">
<title>src/PolyMAC/Champs/Champ_Face_PolyMAC_P0.h</title>
<polygon fill="white" stroke="transparent" points="-4,4 -4,-191 3119,-191 3119,4 -4,4"/>
<!-- Node1 -->
<g id="node1" class="node">
<title>Node1</title>
<g id="a_node1"><a xlink:title=" ">
<polygon fill="#bfbfbf" stroke="black" points="1267,-156.5 1267,-186.5 1423,-186.5 1423,-156.5 1267,-156.5"/>
<text text-anchor="start" x="1275" y="-174.5" font-family="Helvetica,sans-Serif" font-size="10.00">src/PolyMAC/Champs</text>
<text text-anchor="middle" x="1345" y="-163.5" font-family="Helvetica,sans-Serif" font-size="10.00">/Champ_Face_PolyMAC_P0.h</text>
</a>
</g>
</g>
<!-- Node2 -->
<g id="node2" class="node">
<title>Node2</title>
<g id="a_node2"><a xlink:href="Champ__Face__PolyMAC__P0_8cpp.html" target="_top" xlink:title=" ">
<polygon fill="white" stroke="black" points="0,-78.5 0,-119.5 130,-119.5 130,-78.5 0,-78.5"/>
<text text-anchor="start" x="8" y="-107.5" font-family="Helvetica,sans-Serif" font-size="10.00">src/PolyMAC/Champs</text>
<text text-anchor="start" x="8" y="-96.5" font-family="Helvetica,sans-Serif" font-size="10.00">/Champ_Face_PolyMAC</text>
<text text-anchor="middle" x="65" y="-85.5" font-family="Helvetica,sans-Serif" font-size="10.00">_P0.cpp</text>
</a>
</g>
</g>
<!-- Node1&#45;&gt;Node2 -->
<g id="edge1" class="edge">
<title>Node1&#45;&gt;Node2</title>
<path fill="none" stroke="midnightblue" d="M1256.86,-169.15C1017.46,-165.1 358.77,-151.36 144,-120 139.52,-119.35 134.93,-118.54 130.32,-117.64"/>
<polygon fill="midnightblue" stroke="midnightblue" points="1256.85,-172.65 1266.91,-169.32 1256.97,-165.65 1256.85,-172.65"/>
</g>
<!-- Node3 -->
<g id="node3" class="node">
<title>Node3</title>
<g id="a_node3"><a xlink:href="Champ__Fonc__Elem__PolyMAC__P0__TC_8cpp.html" target="_top" xlink:title=" ">
<polygon fill="white" stroke="black" points="186.5,-0.5 186.5,-41.5 347.5,-41.5 347.5,-0.5 186.5,-0.5"/>
<text text-anchor="start" x="194.5" y="-29.5" font-family="Helvetica,sans-Serif" font-size="10.00">src/PolyMAC/Champs</text>
<text text-anchor="start" x="194.5" y="-18.5" font-family="Helvetica,sans-Serif" font-size="10.00">/Champ_Fonc_Elem_PolyMAC</text>
<text text-anchor="middle" x="267" y="-7.5" font-family="Helvetica,sans-Serif" font-size="10.00">_P0_TC.cpp</text>
</a>
</g>
</g>
<!-- Node1&#45;&gt;Node3 -->
<g id="edge2" class="edge">
<title>Node1&#45;&gt;Node3</title>
<path fill="none" stroke="midnightblue" d="M1256.34,-169.98C990.2,-167.98 214.19,-158.83 177,-120 164.09,-106.52 167.93,-94.32 177,-78 185.76,-62.23 201,-50.33 216.48,-41.65"/>
<polygon fill="midnightblue" stroke="midnightblue" points="1256.71,-173.48 1266.73,-170.05 1256.76,-166.48 1256.71,-173.48"/>
</g>
<!-- Node4 -->
<g id="node4" class="node">
<title>Node4</title>
<g id="a_node4"><a xlink:href="Champ__Fonc__Elem__PolyMAC__P0__TC_8h.html" target="_top" xlink:title=" ">
<polygon fill="white" stroke="black" points="186.5,-78.5 186.5,-119.5 347.5,-119.5 347.5,-78.5 186.5,-78.5"/>
<text text-anchor="start" x="194.5" y="-107.5" font-family="Helvetica,sans-Serif" font-size="10.00">src/PolyMAC/Champs</text>
<text text-anchor="start" x="194.5" y="-96.5" font-family="Helvetica,sans-Serif" font-size="10.00">/Champ_Fonc_Elem_PolyMAC</text>
<text text-anchor="middle" x="267" y="-85.5" font-family="Helvetica,sans-Serif" font-size="10.00">_P0_TC.h</text>
</a>
</g>
</g>
<!-- Node1&#45;&gt;Node4 -->
<g id="edge3" class="edge">
<title>Node1&#45;&gt;Node4</title>
<path fill="none" stroke="midnightblue" d="M1256.59,-171.01C1083.06,-170.9 686.05,-165.18 356,-120 353.33,-119.63 350.63,-119.23 347.9,-118.79"/>
<polygon fill="midnightblue" stroke="midnightblue" points="1256.69,-174.51 1266.69,-171.01 1256.69,-167.51 1256.69,-174.51"/>
</g>
<!-- Node6 -->
<g id="node6" class="node">
<title>Node6</title>
<g id="a_node6"><a xlink:href="Champ__Fonc__Elem__PolyMAC__P0__rot_8cpp.html" target="_top" xlink:title=" ">
<polygon fill="white" stroke="black" points="546.5,-0.5 546.5,-41.5 707.5,-41.5 707.5,-0.5 546.5,-0.5"/>
<text text-anchor="start" x="554.5" y="-29.5" font-family="Helvetica,sans-Serif" font-size="10.00">src/PolyMAC/Champs</text>
<text text-anchor="start" x="554.5" y="-18.5" font-family="Helvetica,sans-Serif" font-size="10.00">/Champ_Fonc_Elem_PolyMAC</text>
<text text-anchor="middle" x="627" y="-7.5" font-family="Helvetica,sans-Serif" font-size="10.00">_P0_rot.cpp</text>
</a>
</g>
</g>
<!-- Node1&#45;&gt;Node6 -->
<g id="edge6" class="edge">
<title>Node1&#45;&gt;Node6</title>
<path fill="none" stroke="midnightblue" d="M1256.56,-168.36C1122.4,-164.12 874.35,-152.09 792,-120 763.34,-108.83 763.03,-94.38 737,-78 715.6,-64.54 690.55,-51.59 669.77,-41.54"/>
<polygon fill="midnightblue" stroke="midnightblue" points="1256.71,-171.87 1266.81,-168.68 1256.92,-164.87 1256.71,-171.87"/>
</g>
<!-- Node7 -->
<g id="node7" class="node">
<title>Node7</title>
<g id="a_node7"><a xlink:href="Champ__Fonc__Elem__PolyMAC__P0__rot_8h.html" target="_top" xlink:title=" ">
<polygon fill="white" stroke="black" points="566.5,-78.5 566.5,-119.5 727.5,-119.5 727.5,-78.5 566.5,-78.5"/>
<text text-anchor="start" x="574.5" y="-107.5" font-family="Helvetica,sans-Serif" font-size="10.00">src/PolyMAC/Champs</text>
<text text-anchor="start" x="574.5" y="-96.5" font-family="Helvetica,sans-Serif" font-size="10.00">/Champ_Fonc_Elem_PolyMAC</text>
<text text-anchor="middle" x="647" y="-85.5" font-family="Helvetica,sans-Serif" font-size="10.00">_P0_rot.h</text>
</a>
</g>
</g>
<!-- Node1&#45;&gt;Node7 -->
<g id="edge7" class="edge">
<title>Node1&#45;&gt;Node7</title>
<path fill="none" stroke="midnightblue" d="M1256.53,-166.53C1138.65,-160.45 923.8,-146.64 742,-120 737.33,-119.32 732.55,-118.54 727.73,-117.71"/>
<polygon fill="midnightblue" stroke="midnightblue" points="1256.42,-170.03 1266.59,-167.04 1256.78,-163.04 1256.42,-170.03"/>
</g>
<!-- Node8 -->
<g id="node8" class="node">
<title>Node8</title>
<g id="a_node8"><a xlink:href="Ref__Champ__Face__PolyMAC__P0_8cpp.html" target="_top" xlink:title=" ">
<polygon fill="white" stroke="black" points="822,-78.5 822,-119.5 974,-119.5 974,-78.5 822,-78.5"/>
<text text-anchor="start" x="830" y="-107.5" font-family="Helvetica,sans-Serif" font-size="10.00">src/PolyMAC/Champs</text>
<text text-anchor="start" x="830" y="-96.5" font-family="Helvetica,sans-Serif" font-size="10.00">/Ref_Champ_Face_PolyMAC</text>
<text text-anchor="middle" x="898" y="-85.5" font-family="Helvetica,sans-Serif" font-size="10.00">_P0.cpp</text>
</a>
</g>
</g>
<!-- Node1&#45;&gt;Node8 -->
<g id="edge10" class="edge">
<title>Node1&#45;&gt;Node8</title>
<path fill="none" stroke="midnightblue" d="M1256.84,-160.51C1183.31,-151.63 1075.93,-137.38 983,-120 980.17,-119.47 977.29,-118.91 974.38,-118.32"/>
<polygon fill="midnightblue" stroke="midnightblue" points="1256.64,-164.02 1266.99,-161.73 1257.47,-157.07 1256.64,-164.02"/>
</g>
<!-- Node9 -->
<g id="node9" class="node">
<title>Node9</title>
<g id="a_node9"><a xlink:href="grad__Champ__Face__PolyMAC__P0_8cpp.html" target="_top" xlink:title=" ">
<polygon fill="white" stroke="black" points="725.5,-0.5 725.5,-41.5 882.5,-41.5 882.5,-0.5 725.5,-0.5"/>
<text text-anchor="start" x="733.5" y="-29.5" font-family="Helvetica,sans-Serif" font-size="10.00">src/PolyMAC/Champs</text>
<text text-anchor="start" x="733.5" y="-18.5" font-family="Helvetica,sans-Serif" font-size="10.00">/grad_Champ_Face_PolyMAC</text>
<text text-anchor="middle" x="804" y="-7.5" font-family="Helvetica,sans-Serif" font-size="10.00">_P0.cpp</text>
</a>
</g>
</g>
<!-- Node1&#45;&gt;Node9 -->
<g id="edge11" class="edge">
<title>Node1&#45;&gt;Node9</title>
<path fill="none" stroke="midnightblue" d="M1256.87,-168.18C1113.76,-163.52 843.64,-150.74 813,-120 792.73,-99.67 795.19,-63.82 799.28,-41.57"/>
<polygon fill="midnightblue" stroke="midnightblue" points="1256.84,-171.68 1266.95,-168.5 1257.07,-164.68 1256.84,-171.68"/>
</g>
<!-- Node10 -->
<g id="node10" class="node">
<title>Node10</title>
<g id="a_node10"><a xlink:href="grad__Champ__Face__PolyMAC__P0_8h.html" target="_top" xlink:title=" ">
<polygon fill="white" stroke="black" points="365.5,-84 365.5,-114 548.5,-114 548.5,-84 365.5,-84"/>
<text text-anchor="start" x="373.5" y="-102" font-family="Helvetica,sans-Serif" font-size="10.00">src/PolyMAC/Champs</text>
<text text-anchor="middle" x="457" y="-91" font-family="Helvetica,sans-Serif" font-size="10.00">/grad_Champ_Face_PolyMAC_P0.h</text>
</a>
</g>
</g>
<!-- Node1&#45;&gt;Node10 -->
<g id="edge12" class="edge">
<title>Node1&#45;&gt;Node10</title>
<path fill="none" stroke="midnightblue" d="M1256.68,-168.68C1110.56,-164.81 809.52,-153.19 557,-120 545.15,-118.44 532.6,-116.32 520.54,-114.03"/>
<polygon fill="midnightblue" stroke="midnightblue" points="1256.84,-172.18 1266.93,-168.94 1257.03,-165.19 1256.84,-172.18"/>
</g>
<!-- Node11 -->
<g id="node11" class="node">
<title>Node11</title>
<g id="a_node11"><a xlink:href="Op__Conv__EF__Stab__PolyMAC__P0__Face_8cpp.html" target="_top" xlink:title=" ">
<polygon fill="white" stroke="black" points="992,-78.5 992,-119.5 1148,-119.5 1148,-78.5 992,-78.5"/>
<text text-anchor="start" x="1000" y="-107.5" font-family="Helvetica,sans-Serif" font-size="10.00">src/PolyMAC/Operateurs</text>
<text text-anchor="start" x="1000" y="-96.5" font-family="Helvetica,sans-Serif" font-size="10.00">/Op_Conv_EF_Stab_PolyMAC</text>
<text text-anchor="middle" x="1070" y="-85.5" font-family="Helvetica,sans-Serif" font-size="10.00">_P0_Face.cpp</text>
</a>
</g>
</g>
<!-- Node1&#45;&gt;Node11 -->
<g id="edge17" class="edge">
<title>Node1&#45;&gt;Node11</title>
<path fill="none" stroke="midnightblue" d="M1280.64,-154C1240.43,-143.69 1188.43,-130.36 1146.16,-119.53"/>
<polygon fill="midnightblue" stroke="midnightblue" points="1279.78,-157.39 1290.34,-156.49 1281.52,-150.61 1279.78,-157.39"/>
</g>
<!-- Node12 -->
<g id="node12" class="node">
<title>Node12</title>
<g id="a_node12"><a xlink:href="Op__Diff__PolyMAC__P0__Face_8cpp.html" target="_top" xlink:title=" ">
<polygon fill="white" stroke="black" points="1166.5,-84 1166.5,-114 1335.5,-114 1335.5,-84 1166.5,-84"/>
<text text-anchor="start" x="1174.5" y="-102" font-family="Helvetica,sans-Serif" font-size="10.00">src/PolyMAC/Operateurs</text>
<text text-anchor="middle" x="1251" y="-91" font-family="Helvetica,sans-Serif" font-size="10.00">/Op_Diff_PolyMAC_P0_Face.cpp</text>
</a>
</g>
</g>
<!-- Node1&#45;&gt;Node12 -->
<g id="edge18" class="edge">
<title>Node1&#45;&gt;Node12</title>
<path fill="none" stroke="midnightblue" d="M1317.81,-150.11C1302.37,-138.53 1283.44,-124.33 1269.67,-114"/>
<polygon fill="midnightblue" stroke="midnightblue" points="1315.88,-153.03 1325.98,-156.23 1320.08,-147.43 1315.88,-153.03"/>
</g>
<!-- Node13 -->
<g id="node13" class="node">
<title>Node13</title>
<g id="a_node13"><a xlink:href="Op__Diff__PolyMAC__P0__base_8cpp.html" target="_top" xlink:title=" ">
<polygon fill="white" stroke="black" points="1354,-84 1354,-114 1524,-114 1524,-84 1354,-84"/>
<text text-anchor="start" x="1362" y="-102" font-family="Helvetica,sans-Serif" font-size="10.00">src/PolyMAC/Operateurs</text>
<text text-anchor="middle" x="1439" y="-91" font-family="Helvetica,sans-Serif" font-size="10.00">/Op_Diff_PolyMAC_P0_base.cpp</text>
</a>
</g>
</g>
<!-- Node1&#45;&gt;Node13 -->
<g id="edge19" class="edge">
<title>Node1&#45;&gt;Node13</title>
<path fill="none" stroke="midnightblue" d="M1372.19,-150.11C1387.63,-138.53 1406.56,-124.33 1420.33,-114"/>
<polygon fill="midnightblue" stroke="midnightblue" points="1369.92,-147.43 1364.02,-156.23 1374.12,-153.03 1369.92,-147.43"/>
</g>
<!-- Node14 -->
<g id="node14" class="node">
<title>Node14</title>
<g id="a_node14"><a xlink:href="Op__Div__PolyMAC__P0_8cpp.html" target="_top" xlink:title=" ">
<polygon fill="white" stroke="black" points="1542.5,-84 1542.5,-114 1683.5,-114 1683.5,-84 1542.5,-84"/>
<text text-anchor="start" x="1550.5" y="-102" font-family="Helvetica,sans-Serif" font-size="10.00">src/PolyMAC/Operateurs</text>
<text text-anchor="middle" x="1613" y="-91" font-family="Helvetica,sans-Serif" font-size="10.00">/Op_Div_PolyMAC_P0.cpp</text>
</a>
</g>
</g>
<!-- Node1&#45;&gt;Node14 -->
<g id="edge20" class="edge">
<title>Node1&#45;&gt;Node14</title>
<path fill="none" stroke="midnightblue" d="M1408.13,-153.89C1454.12,-141.79 1515.76,-125.58 1559.37,-114.11"/>
<polygon fill="midnightblue" stroke="midnightblue" points="1407.05,-150.56 1398.27,-156.49 1408.83,-157.33 1407.05,-150.56"/>
</g>
<!-- Node15 -->
<g id="node15" class="node">
<title>Node15</title>
<g id="a_node15"><a xlink:href="Op__Grad__PolyMAC__P0__Face_8cpp.html" target="_top" xlink:title=" ">
<polygon fill="white" stroke="black" points="1701.5,-84 1701.5,-114 1876.5,-114 1876.5,-84 1701.5,-84"/>
<text text-anchor="start" x="1709.5" y="-102" font-family="Helvetica,sans-Serif" font-size="10.00">src/PolyMAC/Operateurs</text>
<text text-anchor="middle" x="1789" y="-91" font-family="Helvetica,sans-Serif" font-size="10.00">/Op_Grad_PolyMAC_P0_Face.cpp</text>
</a>
</g>
</g>
<!-- Node1&#45;&gt;Node15 -->
<g id="edge21" class="edge">
<title>Node1&#45;&gt;Node15</title>
<path fill="none" stroke="midnightblue" d="M1433.48,-159.18C1503.96,-149.8 1605.04,-135.53 1693,-120 1703.14,-118.21 1713.85,-116.15 1724.3,-114.04"/>
<polygon fill="midnightblue" stroke="midnightblue" points="1432.76,-155.75 1423.31,-160.53 1433.68,-162.69 1432.76,-155.75"/>
</g>
<!-- Node16 -->
<g id="node16" class="node">
<title>Node16</title>
<g id="a_node16"><a xlink:href="Assembleur__P__PolyMAC__P0_8cpp.html" target="_top" xlink:title=" ">
<polygon fill="white" stroke="black" points="1894.5,-78.5 1894.5,-119.5 2031.5,-119.5 2031.5,-78.5 1894.5,-78.5"/>
<text text-anchor="start" x="1902.5" y="-107.5" font-family="Helvetica,sans-Serif" font-size="10.00">src/PolyMAC/Solveurs</text>
<text text-anchor="start" x="1902.5" y="-96.5" font-family="Helvetica,sans-Serif" font-size="10.00">/Assembleur_P_PolyMAC</text>
<text text-anchor="middle" x="1963" y="-85.5" font-family="Helvetica,sans-Serif" font-size="10.00">_P0.cpp</text>
</a>
</g>
</g>
<!-- Node1&#45;&gt;Node16 -->
<g id="edge22" class="edge">
<title>Node1&#45;&gt;Node16</title>
<path fill="none" stroke="midnightblue" d="M1433.18,-166.64C1540.74,-160.92 1727.81,-147.74 1886,-120 1888.72,-119.52 1891.49,-119 1894.27,-118.44"/>
<polygon fill="midnightblue" stroke="midnightblue" points="1432.82,-163.15 1423.02,-167.17 1433.19,-170.14 1432.82,-163.15"/>
</g>
<!-- Node17 -->
<g id="node17" class="node">
<title>Node17</title>
<g id="a_node17"><a xlink:href="Masse__PolyMAC__P0__Face_8cpp.html" target="_top" xlink:title=" ">
<polygon fill="white" stroke="black" points="2050,-84 2050,-114 2214,-114 2214,-84 2050,-84"/>
<text text-anchor="start" x="2058" y="-102" font-family="Helvetica,sans-Serif" font-size="10.00">src/PolyMAC/Solveurs</text>
<text text-anchor="middle" x="2132" y="-91" font-family="Helvetica,sans-Serif" font-size="10.00">/Masse_PolyMAC_P0_Face.cpp</text>
</a>
</g>
</g>
<!-- Node1&#45;&gt;Node17 -->
<g id="edge23" class="edge">
<title>Node1&#45;&gt;Node17</title>
<path fill="none" stroke="midnightblue" d="M1433.26,-168.16C1565.83,-163.74 1823.96,-151.56 2041,-120 2051.72,-118.44 2063.07,-116.33 2073.97,-114.06"/>
<polygon fill="midnightblue" stroke="midnightblue" points="1433.04,-164.67 1423.16,-168.49 1433.27,-171.66 1433.04,-164.67"/>
</g>
<!-- Node18 -->
<g id="node18" class="node">
<title>Node18</title>
<g id="a_node18"><a xlink:href="Dispersion__bulles__PolyMAC__P0_8cpp.html" target="_top" xlink:title=" ">
<polygon fill="white" stroke="black" points="2232,-78.5 2232,-119.5 2384,-119.5 2384,-78.5 2232,-78.5"/>
<text text-anchor="start" x="2240" y="-107.5" font-family="Helvetica,sans-Serif" font-size="10.00">src/ThHyd/Multiphase</text>
<text text-anchor="start" x="2240" y="-96.5" font-family="Helvetica,sans-Serif" font-size="10.00">/PolyMAC/Dispersion_bulles</text>
<text text-anchor="middle" x="2308" y="-85.5" font-family="Helvetica,sans-Serif" font-size="10.00">_PolyMAC_P0.cpp</text>
</a>
</g>
</g>
<!-- Node1&#45;&gt;Node18 -->
<g id="edge24" class="edge">
<title>Node1&#45;&gt;Node18</title>
<path fill="none" stroke="midnightblue" d="M1433.47,-170.47C1592.39,-169.3 1936.36,-161.64 2223,-120 2225.85,-119.59 2228.75,-119.12 2231.66,-118.62"/>
<polygon fill="midnightblue" stroke="midnightblue" points="1433.25,-166.97 1423.27,-170.54 1433.29,-173.97 1433.25,-166.97"/>
</g>
<!-- Node19 -->
<g id="node19" class="node">
<title>Node19</title>
<g id="a_node19"><a xlink:href="Force__Tchen__PolyMAC__P0_8cpp.html" target="_top" xlink:title=" ">
<polygon fill="white" stroke="black" points="2402.5,-78.5 2402.5,-119.5 2527.5,-119.5 2527.5,-78.5 2402.5,-78.5"/>
<text text-anchor="start" x="2410.5" y="-107.5" font-family="Helvetica,sans-Serif" font-size="10.00">src/ThHyd/Multiphase</text>
<text text-anchor="start" x="2410.5" y="-96.5" font-family="Helvetica,sans-Serif" font-size="10.00">/PolyMAC/Force_Tchen</text>
<text text-anchor="middle" x="2465" y="-85.5" font-family="Helvetica,sans-Serif" font-size="10.00">_PolyMAC_P0.cpp</text>
</a>
</g>
</g>
<!-- Node1&#45;&gt;Node19 -->
<g id="edge25" class="edge">
<title>Node1&#45;&gt;Node19</title>
<path fill="none" stroke="midnightblue" d="M1433.23,-168.78C1650.91,-164.11 2209.22,-149.57 2393,-120 2396.07,-119.51 2399.2,-118.93 2402.35,-118.29"/>
<polygon fill="midnightblue" stroke="midnightblue" points="1433.05,-165.28 1423.12,-168.99 1433.19,-172.28 1433.05,-165.28"/>
</g>
<!-- Node20 -->
<g id="node20" class="node">
<title>Node20</title>
<g id="a_node20"><a xlink:href="Frottement__interfacial__PolyMAC__P0_8cpp.html" target="_top" xlink:title=" ">
<polygon fill="white" stroke="black" points="2545.5,-78.5 2545.5,-119.5 2720.5,-119.5 2720.5,-78.5 2545.5,-78.5"/>
<text text-anchor="start" x="2553.5" y="-107.5" font-family="Helvetica,sans-Serif" font-size="10.00">src/ThHyd/Multiphase</text>
<text text-anchor="start" x="2553.5" y="-96.5" font-family="Helvetica,sans-Serif" font-size="10.00">/PolyMAC/Frottement_interfacial</text>
<text text-anchor="middle" x="2633" y="-85.5" font-family="Helvetica,sans-Serif" font-size="10.00">_PolyMAC_P0.cpp</text>
</a>
</g>
</g>
<!-- Node1&#45;&gt;Node20 -->
<g id="edge26" class="edge">
<title>Node1&#45;&gt;Node20</title>
<path fill="none" stroke="midnightblue" d="M1433.26,-168.63C1671.4,-163.28 2323.48,-146.58 2537,-120 2539.79,-119.65 2542.61,-119.27 2545.46,-118.85"/>
<polygon fill="midnightblue" stroke="midnightblue" points="1433.18,-165.13 1423.26,-168.85 1433.34,-172.13 1433.18,-165.13"/>
</g>
<!-- Node21 -->
<g id="node21" class="node">
<title>Node21</title>
<g id="a_node21"><a xlink:href="Op__Evanescence__Homogene__PolyMAC__P0__Face_8cpp.html" target="_top" xlink:title=" ">
<polygon fill="white" stroke="black" points="2739,-78.5 2739,-119.5 2927,-119.5 2927,-78.5 2739,-78.5"/>
<text text-anchor="start" x="2747" y="-107.5" font-family="Helvetica,sans-Serif" font-size="10.00">src/ThHyd/Multiphase</text>
<text text-anchor="start" x="2747" y="-96.5" font-family="Helvetica,sans-Serif" font-size="10.00">/PolyMAC/Op_Evanescence</text>
<text text-anchor="middle" x="2833" y="-85.5" font-family="Helvetica,sans-Serif" font-size="10.00">_Homogene_PolyMAC_P0_Face.cpp</text>
</a>
</g>
</g>
<!-- Node1&#45;&gt;Node21 -->
<g id="edge27" class="edge">
<title>Node1&#45;&gt;Node21</title>
<path fill="none" stroke="midnightblue" d="M1433.36,-169.07C1697.32,-164.53 2477.3,-148.96 2730,-120 2732.9,-119.67 2735.83,-119.3 2738.79,-118.9"/>
<polygon fill="midnightblue" stroke="midnightblue" points="1433,-165.58 1423.06,-169.25 1433.12,-172.58 1433,-165.58"/>
</g>
<!-- Node22 -->
<g id="node22" class="node">
<title>Node22</title>
<g id="a_node22"><a xlink:href="Portance__interfaciale__PolyMAC__P0_8cpp.html" target="_top" xlink:title=" ">
<polygon fill="white" stroke="black" points="2945,-78.5 2945,-119.5 3115,-119.5 3115,-78.5 2945,-78.5"/>
<text text-anchor="start" x="2953" y="-107.5" font-family="Helvetica,sans-Serif" font-size="10.00">src/ThHyd/Multiphase</text>
<text text-anchor="start" x="2953" y="-96.5" font-family="Helvetica,sans-Serif" font-size="10.00">/PolyMAC/Portance_interfaciale</text>
<text text-anchor="middle" x="3030" y="-85.5" font-family="Helvetica,sans-Serif" font-size="10.00">_PolyMAC_P0.cpp</text>
</a>
</g>
</g>
<!-- Node1&#45;&gt;Node22 -->
<g id="edge28" class="edge">
<title>Node1&#45;&gt;Node22</title>
<path fill="none" stroke="midnightblue" d="M1433.35,-169.77C1722.94,-167.03 2641.66,-155.7 2936,-120 2938.9,-119.65 2941.84,-119.25 2944.81,-118.82"/>
<polygon fill="midnightblue" stroke="midnightblue" points="1433.29,-166.27 1423.32,-169.86 1433.35,-173.27 1433.29,-166.27"/>
</g>
<!-- Node4&#45;&gt;Node3 -->
<g id="edge4" class="edge">
<title>Node4&#45;&gt;Node3</title>
<path fill="none" stroke="midnightblue" d="M267,-68.3C267,-59.3 267,-49.65 267,-41.51"/>
<polygon fill="midnightblue" stroke="midnightblue" points="263.5,-68.43 267,-78.43 270.5,-68.43 263.5,-68.43"/>
</g>
<!-- Node5 -->
<g id="node5" class="node">
<title>Node5</title>
<g id="a_node5"><a xlink:href="PolyMAC__P0__discretisation_8cpp.html" target="_top" xlink:title=" ">
<polygon fill="white" stroke="black" points="371.5,-6 371.5,-36 528.5,-36 528.5,-6 371.5,-6"/>
<text text-anchor="start" x="379.5" y="-24" font-family="Helvetica,sans-Serif" font-size="10.00">src/PolyMAC/Zones/PolyMAC</text>
<text text-anchor="middle" x="450" y="-13" font-family="Helvetica,sans-Serif" font-size="10.00">_P0_discretisation.cpp</text>
</a>
</g>
</g>
<!-- Node4&#45;&gt;Node5 -->
<g id="edge5" class="edge">
<title>Node4&#45;&gt;Node5</title>
<path fill="none" stroke="midnightblue" d="M323.72,-74.45C353.96,-61.89 390.16,-46.85 416.03,-36.11"/>
<polygon fill="midnightblue" stroke="midnightblue" points="322.02,-71.36 314.13,-78.43 324.7,-77.82 322.02,-71.36"/>
</g>
<!-- Node7&#45;&gt;Node5 -->
<g id="edge9" class="edge">
<title>Node7&#45;&gt;Node5</title>
<path fill="none" stroke="midnightblue" d="M586.79,-74.77C554.06,-62.15 514.66,-46.94 486.57,-36.11"/>
<polygon fill="midnightblue" stroke="midnightblue" points="585.68,-78.09 596.27,-78.43 588.2,-71.56 585.68,-78.09"/>
</g>
<!-- Node7&#45;&gt;Node6 -->
<g id="edge8" class="edge">
<title>Node7&#45;&gt;Node6</title>
<path fill="none" stroke="midnightblue" d="M639.26,-68.59C636.87,-59.51 634.3,-49.74 632.13,-41.51"/>
<polygon fill="midnightblue" stroke="midnightblue" points="635.92,-69.65 641.85,-78.43 642.69,-67.87 635.92,-69.65"/>
</g>
<!-- Node10&#45;&gt;Node3 -->
<g id="edge13" class="edge">
<title>Node10&#45;&gt;Node3</title>
<path fill="none" stroke="midnightblue" d="M412.27,-80.11C383.38,-68.55 345.78,-53.51 316.07,-41.63"/>
<polygon fill="midnightblue" stroke="midnightblue" points="411.12,-83.42 421.71,-83.88 413.72,-76.92 411.12,-83.42"/>
</g>
<!-- Node10&#45;&gt;Node5 -->
<g id="edge16" class="edge">
<title>Node10&#45;&gt;Node5</title>
<path fill="none" stroke="midnightblue" d="M454.75,-73.59C453.62,-61.26 452.28,-46.72 451.31,-36.23"/>
<polygon fill="midnightblue" stroke="midnightblue" points="451.28,-74.07 455.68,-83.7 458.25,-73.43 451.28,-74.07"/>
</g>
<!-- Node10&#45;&gt;Node6 -->
<g id="edge14" class="edge">
<title>Node10&#45;&gt;Node6</title>
<path fill="none" stroke="midnightblue" d="M498.04,-79.65C523.75,-68.16 556.86,-53.36 583.1,-41.63"/>
<polygon fill="midnightblue" stroke="midnightblue" points="496.28,-76.61 488.58,-83.88 499.14,-83 496.28,-76.61"/>
</g>
<!-- Node10&#45;&gt;Node9 -->
<g id="edge15" class="edge">
<title>Node10&#45;&gt;Node9</title>
<path fill="none" stroke="midnightblue" d="M533.1,-81.9C584.97,-70.85 655.18,-55.76 717,-42 719.72,-41.39 722.49,-40.77 725.29,-40.15"/>
<polygon fill="midnightblue" stroke="midnightblue" points="532.36,-78.48 523.31,-83.98 533.82,-85.32 532.36,-78.48"/>
</g>
</g>
</svg>
