<?xml version="1.0" encoding="UTF-8" standalone="no"?>
<!DOCTYPE svg PUBLIC "-//W3C//DTD SVG 1.1//EN"
 "http://www.w3.org/Graphics/SVG/1.1/DTD/svg11.dtd">
<!-- Generated by graphviz version 2.43.0 (0)
 -->
<!-- Title: src/Kernel/Champs_dis/Champ_Fonc_Q1_base.h Pages: 1 -->
<svg width="1006pt" height="173pt"
 viewBox="0.00 0.00 1005.50 173.00" xmlns="http://www.w3.org/2000/svg" xmlns:xlink="http://www.w3.org/1999/xlink">
<g id="graph0" class="graph" transform="scale(1 1) rotate(0) translate(4 169)">
<title>src/Kernel/Champs_dis/Champ_Fonc_Q1_base.h</title>
<polygon fill="white" stroke="transparent" points="-4,4 -4,-169 1001.5,-169 1001.5,4 -4,4"/>
<!-- Node1 -->
<g id="node1" class="node">
<title>Node1</title>
<g id="a_node1"><a xlink:title=" ">
<polygon fill="#bfbfbf" stroke="black" points="475,-134.5 475,-164.5 613,-164.5 613,-134.5 475,-134.5"/>
<text text-anchor="start" x="483" y="-152.5" font-family="Helvetica,sans-Serif" font-size="10.00">src/Kernel/Champs_dis</text>
<text text-anchor="middle" x="544" y="-141.5" font-family="Helvetica,sans-Serif" font-size="10.00">/Champ_Fonc_Q1_base.h</text>
</a>
</g>
</g>
<!-- Node2 -->
<g id="node2" class="node">
<title>Node2</title>
<g id="a_node2"><a xlink:href="Champ__Fonc__Q1__EF_8h.html" target="_top" xlink:title=" ">
<polygon fill="white" stroke="black" points="81,-67.5 81,-97.5 207,-97.5 207,-67.5 81,-67.5"/>
<text text-anchor="start" x="89" y="-85.5" font-family="Helvetica,sans-Serif" font-size="10.00">src/EF/Champs/Champ</text>
<text text-anchor="middle" x="144" y="-74.5" font-family="Helvetica,sans-Serif" font-size="10.00">_Fonc_Q1_EF.h</text>
</a>
</g>
</g>
<!-- Node1&#45;&gt;Node2 -->
<g id="edge1" class="edge">
<title>Node1&#45;&gt;Node2</title>
<path fill="none" stroke="midnightblue" d="M464.74,-137.34C398.21,-127.72 300.71,-113.04 216,-98 213.11,-97.49 210.16,-96.95 207.18,-96.4"/>
<polygon fill="midnightblue" stroke="midnightblue" points="464.34,-140.82 474.74,-138.78 465.34,-133.89 464.34,-140.82"/>
</g>
<!-- Node5 -->
<g id="node5" class="node">
<title>Node5</title>
<g id="a_node5"><a xlink:href="Champ__Generique__refChamp_8cpp.html" target="_top" xlink:title=" ">
<polygon fill="white" stroke="black" points="225,-67.5 225,-97.5 371,-97.5 371,-67.5 225,-67.5"/>
<text text-anchor="start" x="233" y="-85.5" font-family="Helvetica,sans-Serif" font-size="10.00">src/Kernel/Champs/Champ</text>
<text text-anchor="middle" x="298" y="-74.5" font-family="Helvetica,sans-Serif" font-size="10.00">_Generique_refChamp.cpp</text>
</a>
</g>
</g>
<!-- Node1&#45;&gt;Node5 -->
<g id="edge4" class="edge">
<title>Node1&#45;&gt;Node5</title>
<path fill="none" stroke="midnightblue" d="M481.24,-131.92C441.1,-121.31 389.58,-107.7 351.4,-97.61"/>
<polygon fill="midnightblue" stroke="midnightblue" points="480.36,-135.31 490.92,-134.48 482.15,-128.54 480.36,-135.31"/>
</g>
<!-- Node6 -->
<g id="node6" class="node">
<title>Node6</title>
<g id="a_node6"><a xlink:href="Champ__Fonc__Q1__base_8cpp.html" target="_top" xlink:title=" ">
<polygon fill="white" stroke="black" points="389.5,-67.5 389.5,-97.5 538.5,-97.5 538.5,-67.5 389.5,-67.5"/>
<text text-anchor="start" x="397.5" y="-85.5" font-family="Helvetica,sans-Serif" font-size="10.00">src/Kernel/Champs_dis</text>
<text text-anchor="middle" x="464" y="-74.5" font-family="Helvetica,sans-Serif" font-size="10.00">/Champ_Fonc_Q1_base.cpp</text>
</a>
</g>
</g>
<!-- Node1&#45;&gt;Node6 -->
<g id="edge5" class="edge">
<title>Node1&#45;&gt;Node6</title>
<path fill="none" stroke="midnightblue" d="M518.63,-127.88C506.47,-118.01 492.22,-106.43 481.32,-97.58"/>
<polygon fill="midnightblue" stroke="midnightblue" points="516.67,-130.81 526.64,-134.4 521.09,-125.37 516.67,-130.81"/>
</g>
<!-- Node7 -->
<g id="node7" class="node">
<title>Node7</title>
<g id="a_node7"><a xlink:href="Champ__Fonc__Q1__MED_8h.html" target="_top" xlink:title=" ">
<polygon fill="white" stroke="black" points="556.5,-67.5 556.5,-97.5 693.5,-97.5 693.5,-67.5 556.5,-67.5"/>
<text text-anchor="start" x="564.5" y="-85.5" font-family="Helvetica,sans-Serif" font-size="10.00">src/Kernel/MEDimpl</text>
<text text-anchor="middle" x="625" y="-74.5" font-family="Helvetica,sans-Serif" font-size="10.00">/Champ_Fonc_Q1_MED.h</text>
</a>
</g>
</g>
<!-- Node1&#45;&gt;Node7 -->
<g id="edge6" class="edge">
<title>Node1&#45;&gt;Node7</title>
<path fill="none" stroke="midnightblue" d="M569.69,-127.88C582,-118.01 596.43,-106.43 607.46,-97.58"/>
<polygon fill="midnightblue" stroke="midnightblue" points="567.18,-125.41 561.58,-134.4 571.57,-130.87 567.18,-125.41"/>
</g>
<!-- Node9 -->
<g id="node9" class="node">
<title>Node9</title>
<g id="a_node9"><a xlink:href="Champ__Fonc__Q1__VDF_8h.html" target="_top" xlink:title=" ">
<polygon fill="white" stroke="black" points="712,-67.5 712,-97.5 846,-97.5 846,-67.5 712,-67.5"/>
<text text-anchor="start" x="720" y="-85.5" font-family="Helvetica,sans-Serif" font-size="10.00">src/VDF/Champs/Champ</text>
<text text-anchor="middle" x="779" y="-74.5" font-family="Helvetica,sans-Serif" font-size="10.00">_Fonc_Q1_VDF.h</text>
</a>
</g>
</g>
<!-- Node1&#45;&gt;Node9 -->
<g id="edge8" class="edge">
<title>Node1&#45;&gt;Node9</title>
<path fill="none" stroke="midnightblue" d="M604.68,-131.71C642.93,-121.14 691.74,-107.63 727.98,-97.61"/>
<polygon fill="midnightblue" stroke="midnightblue" points="603.41,-128.44 594.7,-134.48 605.27,-135.18 603.41,-128.44"/>
</g>
<!-- Node11 -->
<g id="node11" class="node">
<title>Node11</title>
<g id="a_node11"><a xlink:href="Champ__Fonc__Q1__VEF_8h.html" target="_top" xlink:title=" ">
<polygon fill="white" stroke="black" points="864.5,-67.5 864.5,-97.5 997.5,-97.5 997.5,-67.5 864.5,-67.5"/>
<text text-anchor="start" x="872.5" y="-85.5" font-family="Helvetica,sans-Serif" font-size="10.00">src/VEF/Champs/Champ</text>
<text text-anchor="middle" x="931" y="-74.5" font-family="Helvetica,sans-Serif" font-size="10.00">_Fonc_Q1_VEF.h</text>
</a>
</g>
</g>
<!-- Node1&#45;&gt;Node11 -->
<g id="edge10" class="edge">
<title>Node1&#45;&gt;Node11</title>
<path fill="none" stroke="midnightblue" d="M623.51,-136.21C686.41,-126.33 776.42,-111.87 855,-98 858.04,-97.46 861.15,-96.91 864.29,-96.34"/>
<polygon fill="midnightblue" stroke="midnightblue" points="622.6,-132.81 613.26,-137.81 623.69,-139.72 622.6,-132.81"/>
</g>
<!-- Node3 -->
<g id="node3" class="node">
<title>Node3</title>
<g id="a_node3"><a xlink:href="Champ__Fonc__Q1__EF_8cpp.html" target="_top" xlink:title=" ">
<polygon fill="white" stroke="black" points="0,-0.5 0,-30.5 126,-30.5 126,-0.5 0,-0.5"/>
<text text-anchor="start" x="8" y="-18.5" font-family="Helvetica,sans-Serif" font-size="10.00">src/EF/Champs/Champ</text>
<text text-anchor="middle" x="63" y="-7.5" font-family="Helvetica,sans-Serif" font-size="10.00">_Fonc_Q1_EF.cpp</text>
</a>
</g>
</g>
<!-- Node2&#45;&gt;Node3 -->
<g id="edge2" class="edge">
<title>Node2&#45;&gt;Node3</title>
<path fill="none" stroke="midnightblue" d="M118.31,-60.88C106,-51.01 91.57,-39.43 80.54,-30.58"/>
<polygon fill="midnightblue" stroke="midnightblue" points="116.43,-63.87 126.42,-67.4 120.82,-58.41 116.43,-63.87"/>
</g>
<!-- Node4 -->
<g id="node4" class="node">
<title>Node4</title>
<g id="a_node4"><a xlink:href="Assembleur__P__EF_8cpp.html" target="_top" xlink:title=" ">
<polygon fill="white" stroke="black" points="144,-0.5 144,-30.5 308,-30.5 308,-0.5 144,-0.5"/>
<text text-anchor="start" x="152" y="-18.5" font-family="Helvetica,sans-Serif" font-size="10.00">src/EF/Operateurs/Assembleur</text>
<text text-anchor="middle" x="226" y="-7.5" font-family="Helvetica,sans-Serif" font-size="10.00">_P_EF.cpp</text>
</a>
</g>
</g>
<!-- Node2&#45;&gt;Node4 -->
<g id="edge3" class="edge">
<title>Node2&#45;&gt;Node4</title>
<path fill="none" stroke="midnightblue" d="M169.65,-61.17C182.19,-51.23 196.97,-39.51 208.24,-30.58"/>
<polygon fill="midnightblue" stroke="midnightblue" points="167.46,-58.44 161.79,-67.4 171.8,-63.93 167.46,-58.44"/>
</g>
<!-- Node8 -->
<g id="node8" class="node">
<title>Node8</title>
<g id="a_node8"><a xlink:href="Champ__Fonc__Q1__MED_8cpp.html" target="_top" xlink:title=" ">
<polygon fill="white" stroke="black" points="544.5,-0.5 544.5,-30.5 693.5,-30.5 693.5,-0.5 544.5,-0.5"/>
<text text-anchor="start" x="552.5" y="-18.5" font-family="Helvetica,sans-Serif" font-size="10.00">src/Kernel/MEDimpl</text>
<text text-anchor="middle" x="619" y="-7.5" font-family="Helvetica,sans-Serif" font-size="10.00">/Champ_Fonc_Q1_MED.cpp</text>
</a>
</g>
</g>
<!-- Node7&#45;&gt;Node8 -->
<g id="edge7" class="edge">
<title>Node7&#45;&gt;Node8</title>
<path fill="none" stroke="midnightblue" d="M622.78,-57.4C621.94,-48.37 621.02,-38.41 620.3,-30.58"/>
<polygon fill="midnightblue" stroke="midnightblue" points="619.29,-57.76 623.7,-67.4 626.26,-57.12 619.29,-57.76"/>
</g>
<!-- Node10 -->
<g id="node10" class="node">
<title>Node10</title>
<g id="a_node10"><a xlink:href="Champ__Fonc__Q1__VDF_8cpp.html" target="_top" xlink:title=" ">
<polygon fill="white" stroke="black" points="712,-0.5 712,-30.5 846,-30.5 846,-0.5 712,-0.5"/>
<text text-anchor="start" x="720" y="-18.5" font-family="Helvetica,sans-Serif" font-size="10.00">src/VDF/Champs/Champ</text>
<text text-anchor="middle" x="779" y="-7.5" font-family="Helvetica,sans-Serif" font-size="10.00">_Fonc_Q1_VDF.cpp</text>
</a>
</g>
</g>
<!-- Node9&#45;&gt;Node10 -->
<g id="edge9" class="edge">
<title>Node9&#45;&gt;Node10</title>
<path fill="none" stroke="midnightblue" d="M779,-57.11C779,-48.15 779,-38.32 779,-30.58"/>
<polygon fill="midnightblue" stroke="midnightblue" points="775.5,-57.4 779,-67.4 782.5,-57.4 775.5,-57.4"/>
</g>
<!-- Node12 -->
<g id="node12" class="node">
<title>Node12</title>
<g id="a_node12"><a xlink:href="Champ__Fonc__Q1__VEF_8cpp.html" target="_top" xlink:title=" ">
<polygon fill="white" stroke="black" points="864.5,-0.5 864.5,-30.5 997.5,-30.5 997.5,-0.5 864.5,-0.5"/>
<text text-anchor="start" x="872.5" y="-18.5" font-family="Helvetica,sans-Serif" font-size="10.00">src/VEF/Champs/Champ</text>
<text text-anchor="middle" x="931" y="-7.5" font-family="Helvetica,sans-Serif" font-size="10.00">_Fonc_Q1_VEF.cpp</text>
</a>
</g>
</g>
<!-- Node11&#45;&gt;Node12 -->
<g id="edge11" class="edge">
<title>Node11&#45;&gt;Node12</title>
<path fill="none" stroke="midnightblue" d="M931,-57.11C931,-48.15 931,-38.32 931,-30.58"/>
<polygon fill="midnightblue" stroke="midnightblue" points="927.5,-57.4 931,-67.4 934.5,-57.4 927.5,-57.4"/>
</g>
</g>
</svg>
