<?xml version="1.0" encoding="UTF-8" standalone="no"?>
<!DOCTYPE svg PUBLIC "-//W3C//DTD SVG 1.1//EN"
 "http://www.w3.org/Graphics/SVG/1.1/DTD/svg11.dtd">
<!-- Generated by graphviz version 2.43.0 (0)
 -->
<!-- Title: src/P1NCP1B/Champs/Champ_P1_isoP1Bulle.h Pages: 1 -->
<svg width="1546pt" height="262pt"
 viewBox="0.00 0.00 1545.50 262.00" xmlns="http://www.w3.org/2000/svg" xmlns:xlink="http://www.w3.org/1999/xlink">
<g id="graph0" class="graph" transform="scale(1 1) rotate(0) translate(4 258)">
<title>src/P1NCP1B/Champs/Champ_P1_isoP1Bulle.h</title>
<polygon fill="white" stroke="transparent" points="-4,4 -4,-258 1541.5,-258 1541.5,4 -4,4"/>
<!-- Node1 -->
<g id="node1" class="node">
<title>Node1</title>
<g id="a_node1"><a xlink:title=" ">
<polygon fill="#bfbfbf" stroke="black" points="747.5,-223.5 747.5,-253.5 884.5,-253.5 884.5,-223.5 747.5,-223.5"/>
<text text-anchor="start" x="755.5" y="-241.5" font-family="Helvetica,sans-Serif" font-size="10.00">src/P1NCP1B/Champs</text>
<text text-anchor="middle" x="816" y="-230.5" font-family="Helvetica,sans-Serif" font-size="10.00">/Champ_P1_isoP1Bulle.h</text>
</a>
</g>
</g>
<!-- Node2 -->
<g id="node2" class="node">
<title>Node2</title>
<g id="a_node2"><a xlink:href="Champ__P1__isoP1Bulle_8cpp.html" target="_top" xlink:title=" ">
<polygon fill="white" stroke="black" points="0,-151 0,-181 148,-181 148,-151 0,-151"/>
<text text-anchor="start" x="8" y="-169" font-family="Helvetica,sans-Serif" font-size="10.00">src/P1NCP1B/Champs</text>
<text text-anchor="middle" x="74" y="-158" font-family="Helvetica,sans-Serif" font-size="10.00">/Champ_P1_isoP1Bulle.cpp</text>
</a>
</g>
</g>
<!-- Node1&#45;&gt;Node2 -->
<g id="edge1" class="edge">
<title>Node1&#45;&gt;Node2</title>
<path fill="none" stroke="midnightblue" d="M737.1,-235.53C612.98,-231.51 364.81,-219.78 157,-187 147.19,-185.45 136.83,-183.35 126.88,-181.08"/>
<polygon fill="midnightblue" stroke="midnightblue" points="737.17,-239.03 747.28,-235.85 737.39,-232.04 737.17,-239.03"/>
</g>
<!-- Node3 -->
<g id="node3" class="node">
<title>Node3</title>
<g id="a_node3"><a xlink:href="Ref__Champ__P1__isoP1Bulle_8cpp.html" target="_top" xlink:title=" ">
<polygon fill="white" stroke="black" points="166,-151 166,-181 336,-181 336,-151 166,-151"/>
<text text-anchor="start" x="174" y="-169" font-family="Helvetica,sans-Serif" font-size="10.00">src/P1NCP1B/Champs</text>
<text text-anchor="middle" x="251" y="-158" font-family="Helvetica,sans-Serif" font-size="10.00">/Ref_Champ_P1_isoP1Bulle.cpp</text>
</a>
</g>
</g>
<!-- Node1&#45;&gt;Node3 -->
<g id="edge2" class="edge">
<title>Node1&#45;&gt;Node3</title>
<path fill="none" stroke="midnightblue" d="M737.48,-231.57C643.72,-223.91 482.32,-208.91 345,-187 334.46,-185.32 323.31,-183.23 312.52,-181.04"/>
<polygon fill="midnightblue" stroke="midnightblue" points="737.21,-235.06 747.46,-232.37 737.77,-228.08 737.21,-235.06"/>
</g>
<!-- Node4 -->
<g id="node4" class="node">
<title>Node4</title>
<g id="a_node4"><a xlink:href="Sortie__libre__Gradient__Pression__impose__VEFPreP1B_8cpp.html" target="_top" xlink:title=" ">
<polygon fill="white" stroke="black" points="354.5,-145.5 354.5,-186.5 537.5,-186.5 537.5,-145.5 354.5,-145.5"/>
<text text-anchor="start" x="362.5" y="-174.5" font-family="Helvetica,sans-Serif" font-size="10.00">src/P1NCP1B/Cond_Lim</text>
<text text-anchor="start" x="362.5" y="-163.5" font-family="Helvetica,sans-Serif" font-size="10.00">/Sortie_libre_Gradient</text>
<text text-anchor="middle" x="446" y="-152.5" font-family="Helvetica,sans-Serif" font-size="10.00">_Pression_impose_VEFPreP1B.cpp</text>
</a>
</g>
</g>
<!-- Node1&#45;&gt;Node4 -->
<g id="edge3" class="edge">
<title>Node1&#45;&gt;Node4</title>
<path fill="none" stroke="midnightblue" d="M737.6,-223.1C683.68,-213.14 610.46,-199.47 546,-187 543.22,-186.46 540.39,-185.91 537.54,-185.36"/>
<polygon fill="midnightblue" stroke="midnightblue" points="736.96,-226.54 747.43,-224.92 738.23,-219.66 736.96,-226.54"/>
</g>
<!-- Node5 -->
<g id="node5" class="node">
<title>Node5</title>
<g id="a_node5"><a xlink:href="Sortie__libre__Gradient__Pression__libre__VEFPreP1B_8cpp.html" target="_top" xlink:title=" ">
<polygon fill="white" stroke="black" points="555.5,-145.5 555.5,-186.5 724.5,-186.5 724.5,-145.5 555.5,-145.5"/>
<text text-anchor="start" x="563.5" y="-174.5" font-family="Helvetica,sans-Serif" font-size="10.00">src/P1NCP1B/Cond_Lim</text>
<text text-anchor="start" x="563.5" y="-163.5" font-family="Helvetica,sans-Serif" font-size="10.00">/Sortie_libre_Gradient</text>
<text text-anchor="middle" x="640" y="-152.5" font-family="Helvetica,sans-Serif" font-size="10.00">_Pression_libre_VEFPreP1B.cpp</text>
</a>
</g>
</g>
<!-- Node1&#45;&gt;Node5 -->
<g id="edge4" class="edge">
<title>Node1&#45;&gt;Node5</title>
<path fill="none" stroke="midnightblue" d="M771.48,-219.67C746.26,-209.57 714.68,-196.92 688.8,-186.55"/>
<polygon fill="midnightblue" stroke="midnightblue" points="770.22,-222.93 780.81,-223.4 772.83,-216.44 770.22,-222.93"/>
</g>
<!-- Node6 -->
<g id="node6" class="node">
<title>Node6</title>
<g id="a_node6"><a xlink:href="Op__Grad__VEF__P1B__Face_8h.html" target="_top" xlink:title=" ">
<polygon fill="white" stroke="black" points="743,-151 743,-181 889,-181 889,-151 743,-151"/>
<text text-anchor="start" x="751" y="-169" font-family="Helvetica,sans-Serif" font-size="10.00">src/P1NCP1B/Operateurs</text>
<text text-anchor="middle" x="816" y="-158" font-family="Helvetica,sans-Serif" font-size="10.00">/Op_Grad_VEF_P1B_Face.h</text>
</a>
</g>
</g>
<!-- Node1&#45;&gt;Node6 -->
<g id="edge5" class="edge">
<title>Node1&#45;&gt;Node6</title>
<path fill="none" stroke="midnightblue" d="M816,-213.23C816,-202.57 816,-190.41 816,-181.25"/>
<polygon fill="midnightblue" stroke="midnightblue" points="812.5,-213.23 816,-223.23 819.5,-213.23 812.5,-213.23"/>
</g>
<!-- Node10 -->
<g id="node10" class="node">
<title>Node10</title>
<g id="a_node10"><a xlink:href="Op__Rot__VEFP1B_8h.html" target="_top" xlink:title=" ">
<polygon fill="white" stroke="black" points="907,-151 907,-181 1043,-181 1043,-151 907,-151"/>
<text text-anchor="start" x="915" y="-169" font-family="Helvetica,sans-Serif" font-size="10.00">src/P1NCP1B/Operateurs</text>
<text text-anchor="middle" x="975" y="-158" font-family="Helvetica,sans-Serif" font-size="10.00">/Op_Rot_VEFP1B.h</text>
</a>
</g>
</g>
<!-- Node1&#45;&gt;Node10 -->
<g id="edge9" class="edge">
<title>Node1&#45;&gt;Node10</title>
<path fill="none" stroke="midnightblue" d="M856.95,-219.34C883.83,-207.42 918.47,-192.07 943.26,-181.07"/>
<polygon fill="midnightblue" stroke="midnightblue" points="855.52,-216.15 847.79,-223.4 858.35,-222.55 855.52,-216.15"/>
</g>
<!-- Node14 -->
<g id="node14" class="node">
<title>Node14</title>
<g id="a_node14"><a xlink:href="SolveurPP1B_8cpp.html" target="_top" xlink:title=" ">
<polygon fill="white" stroke="black" points="1061,-151 1061,-181 1185,-181 1185,-151 1061,-151"/>
<text text-anchor="start" x="1069" y="-169" font-family="Helvetica,sans-Serif" font-size="10.00">src/P1NCP1B/Solveurs</text>
<text text-anchor="middle" x="1123" y="-158" font-family="Helvetica,sans-Serif" font-size="10.00">/SolveurPP1B.cpp</text>
</a>
</g>
</g>
<!-- Node1&#45;&gt;Node14 -->
<g id="edge13" class="edge">
<title>Node1&#45;&gt;Node14</title>
<path fill="none" stroke="midnightblue" d="M894.6,-221.99C940.63,-212.58 999.8,-199.92 1052,-187 1059.33,-185.18 1067.06,-183.14 1074.6,-181.08"/>
<polygon fill="midnightblue" stroke="midnightblue" points="893.78,-218.58 884.68,-224.01 895.18,-225.44 893.78,-218.58"/>
</g>
<!-- Node15 -->
<g id="node15" class="node">
<title>Node15</title>
<g id="a_node15"><a xlink:href="Traitement__particulier__NS__Pression__VEF_8h.html" target="_top" xlink:title=" ">
<polygon fill="white" stroke="black" points="1203,-151 1203,-181 1371,-181 1371,-151 1203,-151"/>
<text text-anchor="start" x="1211" y="-169" font-family="Helvetica,sans-Serif" font-size="10.00">src/P1NCP1B/Traitement</text>
<text text-anchor="middle" x="1287" y="-158" font-family="Helvetica,sans-Serif" font-size="10.00">_particulier_NS_Pression_VEF.h</text>
</a>
</g>
</g>
<!-- Node1&#45;&gt;Node15 -->
<g id="edge14" class="edge">
<title>Node1&#45;&gt;Node15</title>
<path fill="none" stroke="midnightblue" d="M894.59,-228.84C971.24,-219.95 1091,-204.93 1194,-187 1204.09,-185.24 1214.74,-183.17 1225.1,-181.02"/>
<polygon fill="midnightblue" stroke="midnightblue" points="894.07,-225.37 884.54,-229.99 894.87,-232.33 894.07,-225.37"/>
</g>
<!-- Node17 -->
<g id="node17" class="node">
<title>Node17</title>
<g id="a_node17"><a xlink:href="VEFPreP1B_8cpp.html" target="_top" xlink:title=" ">
<polygon fill="white" stroke="black" points="1388.5,-151 1388.5,-181 1537.5,-181 1537.5,-151 1388.5,-151"/>
<text text-anchor="start" x="1396.5" y="-169" font-family="Helvetica,sans-Serif" font-size="10.00">src/P1NCP1B/Zones/VEFPre</text>
<text text-anchor="middle" x="1463" y="-158" font-family="Helvetica,sans-Serif" font-size="10.00">P1B.cpp</text>
</a>
</g>
</g>
<!-- Node1&#45;&gt;Node17 -->
<g id="edge16" class="edge">
<title>Node1&#45;&gt;Node17</title>
<path fill="none" stroke="midnightblue" d="M894.85,-234.11C1004.32,-228.56 1208.26,-215.22 1380,-187 1389.65,-185.41 1399.85,-183.32 1409.66,-181.08"/>
<polygon fill="midnightblue" stroke="midnightblue" points="894.37,-230.63 884.56,-234.62 894.72,-237.62 894.37,-230.63"/>
</g>
<!-- Node7 -->
<g id="node7" class="node">
<title>Node7</title>
<g id="a_node7"><a xlink:href="Op__Grad__VEF__P1B__Face_8cpp.html" target="_top" xlink:title=" ">
<polygon fill="white" stroke="black" points="394.5,-73 394.5,-103 551.5,-103 551.5,-73 394.5,-73"/>
<text text-anchor="start" x="402.5" y="-91" font-family="Helvetica,sans-Serif" font-size="10.00">src/P1NCP1B/Operateurs</text>
<text text-anchor="middle" x="473" y="-80" font-family="Helvetica,sans-Serif" font-size="10.00">/Op_Grad_VEF_P1B_Face.cpp</text>
</a>
</g>
</g>
<!-- Node6&#45;&gt;Node7 -->
<g id="edge6" class="edge">
<title>Node6&#45;&gt;Node7</title>
<path fill="none" stroke="midnightblue" d="M748.43,-148.54C743.21,-147.32 738.02,-146.13 733,-145 656.81,-127.85 637.3,-125.66 561,-109 552.28,-107.1 543.07,-105.05 534.04,-103.01"/>
<polygon fill="midnightblue" stroke="midnightblue" points="747.92,-152.01 758.45,-150.9 749.52,-145.2 747.92,-152.01"/>
</g>
<!-- Node8 -->
<g id="node8" class="node">
<title>Node8</title>
<g id="a_node8"><a xlink:href="AssembleurPP1BUtil_8cpp.html" target="_top" xlink:title=" ">
<polygon fill="white" stroke="black" points="570,-73 570,-103 710,-103 710,-73 570,-73"/>
<text text-anchor="start" x="578" y="-91" font-family="Helvetica,sans-Serif" font-size="10.00">src/P1NCP1B/Solveurs</text>
<text text-anchor="middle" x="640" y="-80" font-family="Helvetica,sans-Serif" font-size="10.00">/AssembleurPP1BUtil.cpp</text>
</a>
</g>
</g>
<!-- Node6&#45;&gt;Node8 -->
<g id="edge7" class="edge">
<title>Node6&#45;&gt;Node8</title>
<path fill="none" stroke="midnightblue" d="M774.02,-146.87C742.91,-133.44 701.11,-115.39 672.52,-103.04"/>
<polygon fill="midnightblue" stroke="midnightblue" points="772.74,-150.13 783.31,-150.88 775.52,-143.71 772.74,-150.13"/>
</g>
<!-- Node9 -->
<g id="node9" class="node">
<title>Node9</title>
<g id="a_node9"><a xlink:href="Assembleur__P__VEFPreP1B_8cpp.html" target="_top" xlink:title=" ">
<polygon fill="white" stroke="black" points="728.5,-73 728.5,-103 895.5,-103 895.5,-73 728.5,-73"/>
<text text-anchor="start" x="736.5" y="-91" font-family="Helvetica,sans-Serif" font-size="10.00">src/P1NCP1B/Solveurs</text>
<text text-anchor="middle" x="812" y="-80" font-family="Helvetica,sans-Serif" font-size="10.00">/Assembleur_P_VEFPreP1B.cpp</text>
</a>
</g>
</g>
<!-- Node6&#45;&gt;Node9 -->
<g id="edge8" class="edge">
<title>Node6&#45;&gt;Node9</title>
<path fill="none" stroke="midnightblue" d="M814.72,-140.59C814.07,-128.26 813.3,-113.72 812.75,-103.23"/>
<polygon fill="midnightblue" stroke="midnightblue" points="811.23,-140.9 815.25,-150.7 818.22,-140.53 811.23,-140.9"/>
</g>
<!-- Node11 -->
<g id="node11" class="node">
<title>Node11</title>
<g id="a_node11"><a xlink:href="Op__Diff__RotRot_8h.html" target="_top" xlink:title=" ">
<polygon fill="white" stroke="black" points="914,-73 914,-103 1050,-103 1050,-73 914,-73"/>
<text text-anchor="start" x="922" y="-91" font-family="Helvetica,sans-Serif" font-size="10.00">src/P1NCP1B/Operateurs</text>
<text text-anchor="middle" x="982" y="-80" font-family="Helvetica,sans-Serif" font-size="10.00">/Op_Diff_RotRot.h</text>
</a>
</g>
</g>
<!-- Node10&#45;&gt;Node11 -->
<g id="edge10" class="edge">
<title>Node10&#45;&gt;Node11</title>
<path fill="none" stroke="midnightblue" d="M977.25,-140.59C978.38,-128.26 979.72,-113.72 980.69,-103.23"/>
<polygon fill="midnightblue" stroke="midnightblue" points="973.75,-140.43 976.32,-150.7 980.72,-141.07 973.75,-140.43"/>
</g>
<!-- Node13 -->
<g id="node13" class="node">
<title>Node13</title>
<g id="a_node13"><a xlink:href="Op__Rot__VEFP1B_8cpp.html" target="_top" xlink:title=" ">
<polygon fill="white" stroke="black" points="1068,-73 1068,-103 1204,-103 1204,-73 1068,-73"/>
<text text-anchor="start" x="1076" y="-91" font-family="Helvetica,sans-Serif" font-size="10.00">src/P1NCP1B/Operateurs</text>
<text text-anchor="middle" x="1136" y="-80" font-family="Helvetica,sans-Serif" font-size="10.00">/Op_Rot_VEFP1B.cpp</text>
</a>
</g>
</g>
<!-- Node10&#45;&gt;Node13 -->
<g id="edge12" class="edge">
<title>Node10&#45;&gt;Node13</title>
<path fill="none" stroke="midnightblue" d="M1014.14,-146.52C1042.52,-133.13 1080.32,-115.28 1106.25,-103.04"/>
<polygon fill="midnightblue" stroke="midnightblue" points="1012.45,-143.45 1004.91,-150.88 1015.44,-149.78 1012.45,-143.45"/>
</g>
<!-- Node12 -->
<g id="node12" class="node">
<title>Node12</title>
<g id="a_node12"><a xlink:href="Op__Diff__RotRot_8cpp.html" target="_top" xlink:title=" ">
<polygon fill="white" stroke="black" points="914,-0.5 914,-30.5 1050,-30.5 1050,-0.5 914,-0.5"/>
<text text-anchor="start" x="922" y="-18.5" font-family="Helvetica,sans-Serif" font-size="10.00">src/P1NCP1B/Operateurs</text>
<text text-anchor="middle" x="982" y="-7.5" font-family="Helvetica,sans-Serif" font-size="10.00">/Op_Diff_RotRot.cpp</text>
</a>
</g>
</g>
<!-- Node11&#45;&gt;Node12 -->
<g id="edge11" class="edge">
<title>Node11&#45;&gt;Node12</title>
<path fill="none" stroke="midnightblue" d="M982,-62.73C982,-52.07 982,-39.91 982,-30.75"/>
<polygon fill="midnightblue" stroke="midnightblue" points="978.5,-62.73 982,-72.73 985.5,-62.73 978.5,-62.73"/>
</g>
<!-- Node16 -->
<g id="node16" class="node">
<title>Node16</title>
<g id="a_node16"><a xlink:href="Traitement__particulier__NS__Pression__VEF_8cpp.html" target="_top" xlink:title=" ">
<polygon fill="white" stroke="black" points="1222.5,-67.5 1222.5,-108.5 1359.5,-108.5 1359.5,-67.5 1222.5,-67.5"/>
<text text-anchor="start" x="1230.5" y="-96.5" font-family="Helvetica,sans-Serif" font-size="10.00">src/P1NCP1B/Traitement</text>
<text text-anchor="start" x="1230.5" y="-85.5" font-family="Helvetica,sans-Serif" font-size="10.00">_particulier_NS_Pression</text>
<text text-anchor="middle" x="1291" y="-74.5" font-family="Helvetica,sans-Serif" font-size="10.00">_VEF.cpp</text>
</a>
</g>
</g>
<!-- Node15&#45;&gt;Node16 -->
<g id="edge15" class="edge">
<title>Node15&#45;&gt;Node16</title>
<path fill="none" stroke="midnightblue" d="M1288.28,-140.66C1288.82,-130.33 1289.45,-118.44 1289.96,-108.68"/>
<polygon fill="midnightblue" stroke="midnightblue" points="1284.78,-140.53 1287.75,-150.7 1291.77,-140.9 1284.78,-140.53"/>
</g>
</g>
</svg>
