<?xml version="1.0" encoding="UTF-8" standalone="no"?>
<!DOCTYPE svg PUBLIC "-//W3C//DTD SVG 1.1//EN"
 "http://www.w3.org/Graphics/SVG/1.1/DTD/svg11.dtd">
<!-- Generated by graphviz version 2.43.0 (0)
 -->
<!-- Title: src/VEF/Champs/Champ_Fonc_Tabule_P0_VEF.h Pages: 1 -->
<svg width="366pt" height="106pt"
 viewBox="0.00 0.00 366.00 106.00" xmlns="http://www.w3.org/2000/svg" xmlns:xlink="http://www.w3.org/1999/xlink">
<g id="graph0" class="graph" transform="scale(1 1) rotate(0) translate(4 102)">
<title>src/VEF/Champs/Champ_Fonc_Tabule_P0_VEF.h</title>
<polygon fill="white" stroke="transparent" points="-4,4 -4,-102 362,-102 362,4 -4,4"/>
<!-- Node1 -->
<g id="node1" class="node">
<title>Node1</title>
<g id="a_node1"><a xlink:title=" ">
<polygon fill="#bfbfbf" stroke="black" points="98,-67.5 98,-97.5 231,-97.5 231,-67.5 98,-67.5"/>
<text text-anchor="start" x="106" y="-85.5" font-family="Helvetica,sans-Serif" font-size="10.00">src/VEF/Champs/Champ</text>
<text text-anchor="middle" x="164.5" y="-74.5" font-family="Helvetica,sans-Serif" font-size="10.00">_Fonc_Tabule_P0_VEF.h</text>
</a>
</g>
</g>
<!-- Node2 -->
<g id="node2" class="node">
<title>Node2</title>
<g id="a_node2"><a xlink:href="Champ__Fonc__Tabule__P0__VEF_8cpp.html" target="_top" xlink:title=" ">
<polygon fill="white" stroke="black" points="0,-0.5 0,-30.5 141,-30.5 141,-0.5 0,-0.5"/>
<text text-anchor="start" x="8" y="-18.5" font-family="Helvetica,sans-Serif" font-size="10.00">src/VEF/Champs/Champ</text>
<text text-anchor="middle" x="70.5" y="-7.5" font-family="Helvetica,sans-Serif" font-size="10.00">_Fonc_Tabule_P0_VEF.cpp</text>
</a>
</g>
</g>
<!-- Node1&#45;&gt;Node2 -->
<g id="edge1" class="edge">
<title>Node1&#45;&gt;Node2</title>
<path fill="none" stroke="midnightblue" d="M135.51,-61.45C121.05,-51.45 103.91,-39.6 90.86,-30.58"/>
<polygon fill="midnightblue" stroke="midnightblue" points="133.89,-64.59 144.1,-67.4 137.87,-58.83 133.89,-64.59"/>
</g>
<!-- Node3 -->
<g id="node3" class="node">
<title>Node3</title>
<g id="a_node3"><a xlink:href="VEF__discretisation_8cpp.html" target="_top" xlink:title=" ">
<polygon fill="white" stroke="black" points="159,-6 159,-25 358,-25 358,-6 159,-6"/>
<text text-anchor="middle" x="258.5" y="-13" font-family="Helvetica,sans-Serif" font-size="10.00">src/VEF/Zones/VEF_discretisation.cpp</text>
</a>
</g>
</g>
<!-- Node1&#45;&gt;Node3 -->
<g id="edge2" class="edge">
<title>Node1&#45;&gt;Node3</title>
<path fill="none" stroke="midnightblue" d="M193.22,-61.64C210.96,-49.37 232.81,-34.26 246.2,-25.01"/>
<polygon fill="midnightblue" stroke="midnightblue" points="191.13,-58.83 184.9,-67.4 195.11,-64.59 191.13,-58.83"/>
</g>
</g>
</svg>
