<?xml version="1.0" encoding="UTF-8" standalone="no"?>
<!DOCTYPE svg PUBLIC "-//W3C//DTD SVG 1.1//EN"
 "http://www.w3.org/Graphics/SVG/1.1/DTD/svg11.dtd">
<!-- Generated by graphviz version 2.43.0 (0)
 -->
<!-- Title: src/Kernel/Champs/Champs_Don/Champ_Uniforme_inst.h Pages: 1 -->
<svg width="679pt" height="240pt"
 viewBox="0.00 0.00 678.50 240.00" xmlns="http://www.w3.org/2000/svg" xmlns:xlink="http://www.w3.org/1999/xlink">
<g id="graph0" class="graph" transform="scale(1 1) rotate(0) translate(4 236)">
<title>src/Kernel/Champs/Champs_Don/Champ_Uniforme_inst.h</title>
<polygon fill="white" stroke="transparent" points="-4,4 -4,-236 674.5,-236 674.5,4 -4,4"/>
<!-- Node1 -->
<g id="node1" class="node">
<title>Node1</title>
<g id="a_node1"><a xlink:title=" ">
<polygon fill="#bfbfbf" stroke="black" points="318,-201.5 318,-231.5 480,-231.5 480,-201.5 318,-201.5"/>
<text text-anchor="start" x="326" y="-219.5" font-family="Helvetica,sans-Serif" font-size="10.00">src/Kernel/Champs/Champs</text>
<text text-anchor="middle" x="399" y="-208.5" font-family="Helvetica,sans-Serif" font-size="10.00">_Don/Champ_Uniforme_inst.h</text>
</a>
</g>
</g>
<!-- Node2 -->
<g id="node2" class="node">
<title>Node2</title>
<g id="a_node2"><a xlink:href="Champ__Fonc__t_8h.html" target="_top" xlink:title=" ">
<polygon fill="white" stroke="black" points="150,-134.5 150,-164.5 300,-164.5 300,-134.5 150,-134.5"/>
<text text-anchor="start" x="158" y="-152.5" font-family="Helvetica,sans-Serif" font-size="10.00">src/Kernel/Champs/Champs</text>
<text text-anchor="middle" x="225" y="-141.5" font-family="Helvetica,sans-Serif" font-size="10.00">_Don/Champ_Fonc_t.h</text>
</a>
</g>
</g>
<!-- Node1&#45;&gt;Node2 -->
<g id="edge1" class="edge">
<title>Node1&#45;&gt;Node2</title>
<path fill="none" stroke="midnightblue" d="M351.67,-197.82C323.7,-187.37 288.77,-174.32 262.68,-164.58"/>
<polygon fill="midnightblue" stroke="midnightblue" points="350.65,-201.18 361.24,-201.4 353.1,-194.62 350.65,-201.18"/>
</g>
<!-- Node6 -->
<g id="node6" class="node">
<title>Node6</title>
<g id="a_node6"><a xlink:href="Champ__Tabule__Temps_8h.html" target="_top" xlink:title=" ">
<polygon fill="white" stroke="black" points="318.5,-134.5 318.5,-164.5 479.5,-164.5 479.5,-134.5 318.5,-134.5"/>
<text text-anchor="start" x="326.5" y="-152.5" font-family="Helvetica,sans-Serif" font-size="10.00">src/Kernel/Champs/Champs</text>
<text text-anchor="middle" x="399" y="-141.5" font-family="Helvetica,sans-Serif" font-size="10.00">_Don/Champ_Tabule_Temps.h</text>
</a>
</g>
</g>
<!-- Node1&#45;&gt;Node6 -->
<g id="edge5" class="edge">
<title>Node1&#45;&gt;Node6</title>
<path fill="none" stroke="midnightblue" d="M399,-191.11C399,-182.15 399,-172.32 399,-164.58"/>
<polygon fill="midnightblue" stroke="midnightblue" points="395.5,-191.4 399,-201.4 402.5,-191.4 395.5,-191.4"/>
</g>
<!-- Node8 -->
<g id="node8" class="node">
<title>Node8</title>
<g id="a_node8"><a xlink:href="Champ__Uniforme__inst_8cpp.html" target="_top" xlink:title=" ">
<polygon fill="white" stroke="black" points="497.5,-134.5 497.5,-164.5 670.5,-164.5 670.5,-134.5 497.5,-134.5"/>
<text text-anchor="start" x="505.5" y="-152.5" font-family="Helvetica,sans-Serif" font-size="10.00">src/Kernel/Champs/Champs</text>
<text text-anchor="middle" x="584" y="-141.5" font-family="Helvetica,sans-Serif" font-size="10.00">_Don/Champ_Uniforme_inst.cpp</text>
</a>
</g>
</g>
<!-- Node1&#45;&gt;Node8 -->
<g id="edge7" class="edge">
<title>Node1&#45;&gt;Node8</title>
<path fill="none" stroke="midnightblue" d="M448.94,-197.96C478.74,-187.48 516.07,-174.37 543.94,-164.58"/>
<polygon fill="midnightblue" stroke="midnightblue" points="447.42,-194.78 439.14,-201.4 449.74,-201.38 447.42,-194.78"/>
</g>
<!-- Node3 -->
<g id="node3" class="node">
<title>Node3</title>
<g id="a_node3"><a xlink:href="Champ__Fonc__t_8cpp.html" target="_top" xlink:title=" ">
<polygon fill="white" stroke="black" points="0,-67.5 0,-97.5 150,-97.5 150,-67.5 0,-67.5"/>
<text text-anchor="start" x="8" y="-85.5" font-family="Helvetica,sans-Serif" font-size="10.00">src/Kernel/Champs/Champs</text>
<text text-anchor="middle" x="75" y="-74.5" font-family="Helvetica,sans-Serif" font-size="10.00">_Don/Champ_Fonc_t.cpp</text>
</a>
</g>
</g>
<!-- Node2&#45;&gt;Node3 -->
<g id="edge2" class="edge">
<title>Node2&#45;&gt;Node3</title>
<path fill="none" stroke="midnightblue" d="M183.25,-130.41C159.3,-120.03 129.68,-107.2 107.48,-97.58"/>
<polygon fill="midnightblue" stroke="midnightblue" points="181.89,-133.63 192.45,-134.4 184.67,-127.21 181.89,-133.63"/>
</g>
<!-- Node4 -->
<g id="node4" class="node">
<title>Node4</title>
<g id="a_node4"><a xlink:href="Loi__horaire_8h.html" target="_top" xlink:title=" ">
<polygon fill="white" stroke="black" points="168,-67.5 168,-97.5 290,-97.5 290,-67.5 168,-67.5"/>
<text text-anchor="start" x="176" y="-85.5" font-family="Helvetica,sans-Serif" font-size="10.00">src/Kernel/Framework</text>
<text text-anchor="middle" x="229" y="-74.5" font-family="Helvetica,sans-Serif" font-size="10.00">/Loi_horaire.h</text>
</a>
</g>
</g>
<!-- Node2&#45;&gt;Node4 -->
<g id="edge3" class="edge">
<title>Node2&#45;&gt;Node4</title>
<path fill="none" stroke="midnightblue" d="M226.48,-124.4C227.04,-115.37 227.65,-105.41 228.13,-97.58"/>
<polygon fill="midnightblue" stroke="midnightblue" points="222.99,-124.2 225.87,-134.4 229.98,-124.63 222.99,-124.2"/>
</g>
<!-- Node5 -->
<g id="node5" class="node">
<title>Node5</title>
<g id="a_node5"><a xlink:href="Loi__horaire_8cpp.html" target="_top" xlink:title=" ">
<polygon fill="white" stroke="black" points="168,-0.5 168,-30.5 290,-30.5 290,-0.5 168,-0.5"/>
<text text-anchor="start" x="176" y="-18.5" font-family="Helvetica,sans-Serif" font-size="10.00">src/Kernel/Framework</text>
<text text-anchor="middle" x="229" y="-7.5" font-family="Helvetica,sans-Serif" font-size="10.00">/Loi_horaire.cpp</text>
</a>
</g>
</g>
<!-- Node4&#45;&gt;Node5 -->
<g id="edge4" class="edge">
<title>Node4&#45;&gt;Node5</title>
<path fill="none" stroke="midnightblue" d="M229,-57.11C229,-48.15 229,-38.32 229,-30.58"/>
<polygon fill="midnightblue" stroke="midnightblue" points="225.5,-57.4 229,-67.4 232.5,-57.4 225.5,-57.4"/>
</g>
<!-- Node7 -->
<g id="node7" class="node">
<title>Node7</title>
<g id="a_node7"><a xlink:href="Champ__Tabule__Temps_8cpp.html" target="_top" xlink:title=" ">
<polygon fill="white" stroke="black" points="312.5,-67.5 312.5,-97.5 485.5,-97.5 485.5,-67.5 312.5,-67.5"/>
<text text-anchor="start" x="320.5" y="-85.5" font-family="Helvetica,sans-Serif" font-size="10.00">src/Kernel/Champs/Champs</text>
<text text-anchor="middle" x="399" y="-74.5" font-family="Helvetica,sans-Serif" font-size="10.00">_Don/Champ_Tabule_Temps.cpp</text>
</a>
</g>
</g>
<!-- Node6&#45;&gt;Node7 -->
<g id="edge6" class="edge">
<title>Node6&#45;&gt;Node7</title>
<path fill="none" stroke="midnightblue" d="M399,-124.11C399,-115.15 399,-105.32 399,-97.58"/>
<polygon fill="midnightblue" stroke="midnightblue" points="395.5,-124.4 399,-134.4 402.5,-124.4 395.5,-124.4"/>
</g>
</g>
</svg>
