<?xml version="1.0" encoding="UTF-8" standalone="no"?>
<!DOCTYPE svg PUBLIC "-//W3C//DTD SVG 1.1//EN"
 "http://www.w3.org/Graphics/SVG/1.1/DTD/svg11.dtd">
<!-- Generated by graphviz version 2.43.0 (0)
 -->
<!-- Title: src/VDF/Champs/Champ_Fonc_Tabule_P0_VDF.h Pages: 1 -->
<svg width="372pt" height="106pt"
 viewBox="0.00 0.00 371.50 106.00" xmlns="http://www.w3.org/2000/svg" xmlns:xlink="http://www.w3.org/1999/xlink">
<g id="graph0" class="graph" transform="scale(1 1) rotate(0) translate(4 102)">
<title>src/VDF/Champs/Champ_Fonc_Tabule_P0_VDF.h</title>
<polygon fill="white" stroke="transparent" points="-4,4 -4,-102 367.5,-102 367.5,4 -4,4"/>
<!-- Node1 -->
<g id="node1" class="node">
<title>Node1</title>
<g id="a_node1"><a xlink:title=" ">
<polygon fill="#bfbfbf" stroke="black" points="99.5,-67.5 99.5,-97.5 233.5,-97.5 233.5,-67.5 99.5,-67.5"/>
<text text-anchor="start" x="107.5" y="-85.5" font-family="Helvetica,sans-Serif" font-size="10.00">src/VDF/Champs/Champ</text>
<text text-anchor="middle" x="166.5" y="-74.5" font-family="Helvetica,sans-Serif" font-size="10.00">_Fonc_Tabule_P0_VDF.h</text>
</a>
</g>
</g>
<!-- Node2 -->
<g id="node2" class="node">
<title>Node2</title>
<g id="a_node2"><a xlink:href="Champ__Fonc__Tabule__P0__VDF_8cpp.html" target="_top" xlink:title=" ">
<polygon fill="white" stroke="black" points="0,-0.5 0,-30.5 143,-30.5 143,-0.5 0,-0.5"/>
<text text-anchor="start" x="8" y="-18.5" font-family="Helvetica,sans-Serif" font-size="10.00">src/VDF/Champs/Champ</text>
<text text-anchor="middle" x="71.5" y="-7.5" font-family="Helvetica,sans-Serif" font-size="10.00">_Fonc_Tabule_P0_VDF.cpp</text>
</a>
</g>
</g>
<!-- Node1&#45;&gt;Node2 -->
<g id="edge1" class="edge">
<title>Node1&#45;&gt;Node2</title>
<path fill="none" stroke="midnightblue" d="M137.61,-61.73C122.91,-51.68 105.39,-39.68 92.07,-30.58"/>
<polygon fill="midnightblue" stroke="midnightblue" points="135.66,-64.64 145.89,-67.4 139.61,-58.86 135.66,-64.64"/>
</g>
<!-- Node3 -->
<g id="node3" class="node">
<title>Node3</title>
<g id="a_node3"><a xlink:href="VDF__discretisation_8cpp.html" target="_top" xlink:title=" ">
<polygon fill="white" stroke="black" points="161.5,-6 161.5,-25 363.5,-25 363.5,-6 161.5,-6"/>
<text text-anchor="middle" x="262.5" y="-13" font-family="Helvetica,sans-Serif" font-size="10.00">src/VDF/Zones/VDF_discretisation.cpp</text>
</a>
</g>
</g>
<!-- Node1&#45;&gt;Node3 -->
<g id="edge2" class="edge">
<title>Node1&#45;&gt;Node3</title>
<path fill="none" stroke="midnightblue" d="M195.83,-61.64C213.95,-49.37 236.27,-34.26 249.94,-25.01"/>
<polygon fill="midnightblue" stroke="midnightblue" points="193.65,-58.89 187.33,-67.4 197.57,-64.69 193.65,-58.89"/>
</g>
</g>
</svg>
