<?xml version="1.0" encoding="UTF-8" standalone="no"?>
<!DOCTYPE svg PUBLIC "-//W3C//DTD SVG 1.1//EN"
 "http://www.w3.org/Graphics/SVG/1.1/DTD/svg11.dtd">
<!-- Generated by graphviz version 2.43.0 (0)
 -->
<!-- Title: src/Kernel/Champs_dis/Champ_Fonc_P1_base.h Pages: 1 -->
<svg width="1112pt" height="173pt"
 viewBox="0.00 0.00 1111.50 173.00" xmlns="http://www.w3.org/2000/svg" xmlns:xlink="http://www.w3.org/1999/xlink">
<g id="graph0" class="graph" transform="scale(1 1) rotate(0) translate(4 169)">
<title>src/Kernel/Champs_dis/Champ_Fonc_P1_base.h</title>
<polygon fill="white" stroke="transparent" points="-4,4 -4,-169 1107.5,-169 1107.5,4 -4,4"/>
<!-- Node1 -->
<g id="node1" class="node">
<title>Node1</title>
<g id="a_node1"><a xlink:title=" ">
<polygon fill="#bfbfbf" stroke="black" points="473.5,-134.5 473.5,-164.5 610.5,-164.5 610.5,-134.5 473.5,-134.5"/>
<text text-anchor="start" x="481.5" y="-152.5" font-family="Helvetica,sans-Serif" font-size="10.00">src/Kernel/Champs_dis</text>
<text text-anchor="middle" x="542" y="-141.5" font-family="Helvetica,sans-Serif" font-size="10.00">/Champ_Fonc_P1_base.h</text>
</a>
</g>
</g>
<!-- Node2 -->
<g id="node2" class="node">
<title>Node2</title>
<g id="a_node2"><a xlink:href="Champ__Fonc__P1__EF_8h.html" target="_top" xlink:title=" ">
<polygon fill="white" stroke="black" points="0,-67.5 0,-97.5 126,-97.5 126,-67.5 0,-67.5"/>
<text text-anchor="start" x="8" y="-85.5" font-family="Helvetica,sans-Serif" font-size="10.00">src/EF/Champs/Champ</text>
<text text-anchor="middle" x="63" y="-74.5" font-family="Helvetica,sans-Serif" font-size="10.00">_Fonc_P1_EF.h</text>
</a>
</g>
</g>
<!-- Node1&#45;&gt;Node2 -->
<g id="edge1" class="edge">
<title>Node1&#45;&gt;Node2</title>
<path fill="none" stroke="midnightblue" d="M463.35,-140.52C381.19,-131.76 248.68,-116.47 135,-98 132.11,-97.53 129.15,-97.03 126.17,-96.5"/>
<polygon fill="midnightblue" stroke="midnightblue" points="463.05,-144 473.36,-141.58 463.79,-137.04 463.05,-144"/>
</g>
<!-- Node4 -->
<g id="node4" class="node">
<title>Node4</title>
<g id="a_node4"><a xlink:href="Champ__Generique__refChamp_8cpp.html" target="_top" xlink:title=" ">
<polygon fill="white" stroke="black" points="144,-67.5 144,-97.5 290,-97.5 290,-67.5 144,-67.5"/>
<text text-anchor="start" x="152" y="-85.5" font-family="Helvetica,sans-Serif" font-size="10.00">src/Kernel/Champs/Champ</text>
<text text-anchor="middle" x="217" y="-74.5" font-family="Helvetica,sans-Serif" font-size="10.00">_Generique_refChamp.cpp</text>
</a>
</g>
</g>
<!-- Node1&#45;&gt;Node4 -->
<g id="edge3" class="edge">
<title>Node1&#45;&gt;Node4</title>
<path fill="none" stroke="midnightblue" d="M463.63,-132.83C409.84,-122.07 339.05,-107.91 287.12,-97.52"/>
<polygon fill="midnightblue" stroke="midnightblue" points="462.98,-136.27 473.47,-134.79 464.35,-129.4 462.98,-136.27"/>
</g>
<!-- Node5 -->
<g id="node5" class="node">
<title>Node5</title>
<g id="a_node5"><a xlink:href="Champ__Fonc__P1__base_8cpp.html" target="_top" xlink:title=" ">
<polygon fill="white" stroke="black" points="308,-67.5 308,-97.5 456,-97.5 456,-67.5 308,-67.5"/>
<text text-anchor="start" x="316" y="-85.5" font-family="Helvetica,sans-Serif" font-size="10.00">src/Kernel/Champs_dis</text>
<text text-anchor="middle" x="382" y="-74.5" font-family="Helvetica,sans-Serif" font-size="10.00">/Champ_Fonc_P1_base.cpp</text>
</a>
</g>
</g>
<!-- Node1&#45;&gt;Node5 -->
<g id="edge4" class="edge">
<title>Node1&#45;&gt;Node5</title>
<path fill="none" stroke="midnightblue" d="M497.8,-130.54C472.2,-120.14 440.43,-107.24 416.65,-97.58"/>
<polygon fill="midnightblue" stroke="midnightblue" points="496.7,-133.87 507.28,-134.4 499.34,-127.39 496.7,-133.87"/>
</g>
<!-- Node6 -->
<g id="node6" class="node">
<title>Node6</title>
<g id="a_node6"><a xlink:href="Champ__Fonc__P1__MED_8h.html" target="_top" xlink:title=" ">
<polygon fill="white" stroke="black" points="474,-67.5 474,-97.5 610,-97.5 610,-67.5 474,-67.5"/>
<text text-anchor="start" x="482" y="-85.5" font-family="Helvetica,sans-Serif" font-size="10.00">src/Kernel/MEDimpl</text>
<text text-anchor="middle" x="542" y="-74.5" font-family="Helvetica,sans-Serif" font-size="10.00">/Champ_Fonc_P1_MED.h</text>
</a>
</g>
</g>
<!-- Node1&#45;&gt;Node6 -->
<g id="edge5" class="edge">
<title>Node1&#45;&gt;Node6</title>
<path fill="none" stroke="midnightblue" d="M542,-124.11C542,-115.15 542,-105.32 542,-97.58"/>
<polygon fill="midnightblue" stroke="midnightblue" points="538.5,-124.4 542,-134.4 545.5,-124.4 538.5,-124.4"/>
</g>
<!-- Node8 -->
<g id="node8" class="node">
<title>Node8</title>
<g id="a_node8"><a xlink:href="Champ__Fonc__Som__PolyMAC_8h.html" target="_top" xlink:title=" ">
<polygon fill="white" stroke="black" points="628.5,-67.5 628.5,-97.5 795.5,-97.5 795.5,-67.5 628.5,-67.5"/>
<text text-anchor="start" x="636.5" y="-85.5" font-family="Helvetica,sans-Serif" font-size="10.00">src/PolyMAC/Champs</text>
<text text-anchor="middle" x="712" y="-74.5" font-family="Helvetica,sans-Serif" font-size="10.00">/Champ_Fonc_Som_PolyMAC.h</text>
</a>
</g>
</g>
<!-- Node1&#45;&gt;Node8 -->
<g id="edge7" class="edge">
<title>Node1&#45;&gt;Node8</title>
<path fill="none" stroke="midnightblue" d="M588.24,-130.82C615.57,-120.37 649.69,-107.32 675.18,-97.58"/>
<polygon fill="midnightblue" stroke="midnightblue" points="586.98,-127.56 578.89,-134.4 589.48,-134.09 586.98,-127.56"/>
</g>
<!-- Node10 -->
<g id="node10" class="node">
<title>Node10</title>
<g id="a_node10"><a xlink:href="Champ__Fonc__P1__VDF_8h.html" target="_top" xlink:title=" ">
<polygon fill="white" stroke="black" points="816,-67.5 816,-97.5 950,-97.5 950,-67.5 816,-67.5"/>
<text text-anchor="start" x="824" y="-85.5" font-family="Helvetica,sans-Serif" font-size="10.00">src/VDF/Champs/Champ</text>
<text text-anchor="middle" x="883" y="-74.5" font-family="Helvetica,sans-Serif" font-size="10.00">_Fonc_P1_VDF.h</text>
</a>
</g>
</g>
<!-- Node1&#45;&gt;Node10 -->
<g id="edge9" class="edge">
<title>Node1&#45;&gt;Node10</title>
<path fill="none" stroke="midnightblue" d="M620.64,-133.51C679.75,-122.24 759.87,-106.97 815.97,-96.28"/>
<polygon fill="midnightblue" stroke="midnightblue" points="619.76,-130.11 610.6,-135.42 621.07,-136.99 619.76,-130.11"/>
</g>
<!-- Node12 -->
<g id="node12" class="node">
<title>Node12</title>
<g id="a_node12"><a xlink:href="Champ__Fonc__P1__VEF_8h.html" target="_top" xlink:title=" ">
<polygon fill="white" stroke="black" points="969.5,-67.5 969.5,-97.5 1102.5,-97.5 1102.5,-67.5 969.5,-67.5"/>
<text text-anchor="start" x="977.5" y="-85.5" font-family="Helvetica,sans-Serif" font-size="10.00">src/VEF/Champs/Champ</text>
<text text-anchor="middle" x="1036" y="-74.5" font-family="Helvetica,sans-Serif" font-size="10.00">_Fonc_P1_VEF.h</text>
</a>
</g>
</g>
<!-- Node1&#45;&gt;Node12 -->
<g id="edge11" class="edge">
<title>Node1&#45;&gt;Node12</title>
<path fill="none" stroke="midnightblue" d="M620.79,-140.52C704.8,-131.64 841.61,-116.14 959,-98 962.36,-97.48 965.8,-96.92 969.27,-96.34"/>
<polygon fill="midnightblue" stroke="midnightblue" points="620.39,-137.04 610.81,-141.57 621.12,-144 620.39,-137.04"/>
</g>
<!-- Node3 -->
<g id="node3" class="node">
<title>Node3</title>
<g id="a_node3"><a xlink:href="Champ__Fonc__P1__EF_8cpp.html" target="_top" xlink:title=" ">
<polygon fill="white" stroke="black" points="0,-0.5 0,-30.5 126,-30.5 126,-0.5 0,-0.5"/>
<text text-anchor="start" x="8" y="-18.5" font-family="Helvetica,sans-Serif" font-size="10.00">src/EF/Champs/Champ</text>
<text text-anchor="middle" x="63" y="-7.5" font-family="Helvetica,sans-Serif" font-size="10.00">_Fonc_P1_EF.cpp</text>
</a>
</g>
</g>
<!-- Node2&#45;&gt;Node3 -->
<g id="edge2" class="edge">
<title>Node2&#45;&gt;Node3</title>
<path fill="none" stroke="midnightblue" d="M63,-57.11C63,-48.15 63,-38.32 63,-30.58"/>
<polygon fill="midnightblue" stroke="midnightblue" points="59.5,-57.4 63,-67.4 66.5,-57.4 59.5,-57.4"/>
</g>
<!-- Node7 -->
<g id="node7" class="node">
<title>Node7</title>
<g id="a_node7"><a xlink:href="Champ__Fonc__P1__MED_8cpp.html" target="_top" xlink:title=" ">
<polygon fill="white" stroke="black" points="456.5,-0.5 456.5,-30.5 603.5,-30.5 603.5,-0.5 456.5,-0.5"/>
<text text-anchor="start" x="464.5" y="-18.5" font-family="Helvetica,sans-Serif" font-size="10.00">src/Kernel/MEDimpl</text>
<text text-anchor="middle" x="530" y="-7.5" font-family="Helvetica,sans-Serif" font-size="10.00">/Champ_Fonc_P1_MED.cpp</text>
</a>
</g>
</g>
<!-- Node6&#45;&gt;Node7 -->
<g id="edge6" class="edge">
<title>Node6&#45;&gt;Node7</title>
<path fill="none" stroke="midnightblue" d="M537.55,-57.4C535.88,-48.37 534.04,-38.41 532.6,-30.58"/>
<polygon fill="midnightblue" stroke="midnightblue" points="534.14,-58.2 539.4,-67.4 541.02,-56.93 534.14,-58.2"/>
</g>
<!-- Node9 -->
<g id="node9" class="node">
<title>Node9</title>
<g id="a_node9"><a xlink:href="Champ__Fonc__Som__PolyMAC_8cpp.html" target="_top" xlink:title=" ">
<polygon fill="white" stroke="black" points="622,-0.5 622,-30.5 800,-30.5 800,-0.5 622,-0.5"/>
<text text-anchor="start" x="630" y="-18.5" font-family="Helvetica,sans-Serif" font-size="10.00">src/PolyMAC/Champs</text>
<text text-anchor="middle" x="711" y="-7.5" font-family="Helvetica,sans-Serif" font-size="10.00">/Champ_Fonc_Som_PolyMAC.cpp</text>
</a>
</g>
</g>
<!-- Node8&#45;&gt;Node9 -->
<g id="edge8" class="edge">
<title>Node8&#45;&gt;Node9</title>
<path fill="none" stroke="midnightblue" d="M711.62,-57.11C711.49,-48.15 711.34,-38.32 711.22,-30.58"/>
<polygon fill="midnightblue" stroke="midnightblue" points="708.13,-57.45 711.78,-67.4 715.13,-57.34 708.13,-57.45"/>
</g>
<!-- Node11 -->
<g id="node11" class="node">
<title>Node11</title>
<g id="a_node11"><a xlink:href="Champ__Fonc__P1__VDF_8cpp.html" target="_top" xlink:title=" ">
<polygon fill="white" stroke="black" points="818,-0.5 818,-30.5 952,-30.5 952,-0.5 818,-0.5"/>
<text text-anchor="start" x="826" y="-18.5" font-family="Helvetica,sans-Serif" font-size="10.00">src/VDF/Champs/Champ</text>
<text text-anchor="middle" x="885" y="-7.5" font-family="Helvetica,sans-Serif" font-size="10.00">_Fonc_P1_VDF.cpp</text>
</a>
</g>
</g>
<!-- Node10&#45;&gt;Node11 -->
<g id="edge10" class="edge">
<title>Node10&#45;&gt;Node11</title>
<path fill="none" stroke="midnightblue" d="M883.75,-57.11C884.03,-48.15 884.33,-38.32 884.57,-30.58"/>
<polygon fill="midnightblue" stroke="midnightblue" points="880.24,-57.29 883.43,-67.4 887.24,-57.51 880.24,-57.29"/>
</g>
<!-- Node13 -->
<g id="node13" class="node">
<title>Node13</title>
<g id="a_node13"><a xlink:href="Champ__Fonc__P1__VEF_8cpp.html" target="_top" xlink:title=" ">
<polygon fill="white" stroke="black" points="970.5,-0.5 970.5,-30.5 1103.5,-30.5 1103.5,-0.5 970.5,-0.5"/>
<text text-anchor="start" x="978.5" y="-18.5" font-family="Helvetica,sans-Serif" font-size="10.00">src/VEF/Champs/Champ</text>
<text text-anchor="middle" x="1037" y="-7.5" font-family="Helvetica,sans-Serif" font-size="10.00">_Fonc_P1_VEF.cpp</text>
</a>
</g>
</g>
<!-- Node12&#45;&gt;Node13 -->
<g id="edge12" class="edge">
<title>Node12&#45;&gt;Node13</title>
<path fill="none" stroke="midnightblue" d="M1036.38,-57.11C1036.51,-48.15 1036.66,-38.32 1036.78,-30.58"/>
<polygon fill="midnightblue" stroke="midnightblue" points="1032.87,-57.34 1036.22,-67.4 1039.87,-57.45 1032.87,-57.34"/>
</g>
</g>
</svg>
