<?xml version="1.0" encoding="UTF-8" standalone="no"?>
<!DOCTYPE svg PUBLIC "-//W3C//DTD SVG 1.1//EN"
 "http://www.w3.org/Graphics/SVG/1.1/DTD/svg11.dtd">
<!-- Generated by graphviz version 2.43.0 (0)
 -->
<!-- Title: src/ThHyd/Incompressible/Champs/Champ_Ostwald.h Pages: 1 -->
<svg width="896pt" height="173pt"
 viewBox="0.00 0.00 895.50 173.00" xmlns="http://www.w3.org/2000/svg" xmlns:xlink="http://www.w3.org/1999/xlink">
<g id="graph0" class="graph" transform="scale(1 1) rotate(0) translate(4 169)">
<title>src/ThHyd/Incompressible/Champs/Champ_Ostwald.h</title>
<polygon fill="white" stroke="transparent" points="-4,4 -4,-169 891.5,-169 891.5,4 -4,4"/>
<!-- Node1 -->
<g id="node1" class="node">
<title>Node1</title>
<g id="a_node1"><a xlink:title=" ">
<polygon fill="#bfbfbf" stroke="black" points="177.5,-134.5 177.5,-164.5 328.5,-164.5 328.5,-134.5 177.5,-134.5"/>
<text text-anchor="start" x="185.5" y="-152.5" font-family="Helvetica,sans-Serif" font-size="10.00">src/ThHyd/Incompressible</text>
<text text-anchor="middle" x="253" y="-141.5" font-family="Helvetica,sans-Serif" font-size="10.00">/Champs/Champ_Ostwald.h</text>
</a>
</g>
</g>
<!-- Node2 -->
<g id="node2" class="node">
<title>Node2</title>
<g id="a_node2"><a xlink:href="Champ__Ostwald_8cpp.html" target="_top" xlink:title=" ">
<polygon fill="white" stroke="black" points="6,-67.5 6,-97.5 168,-97.5 168,-67.5 6,-67.5"/>
<text text-anchor="start" x="14" y="-85.5" font-family="Helvetica,sans-Serif" font-size="10.00">src/ThHyd/Incompressible</text>
<text text-anchor="middle" x="87" y="-74.5" font-family="Helvetica,sans-Serif" font-size="10.00">/Champs/Champ_Ostwald.cpp</text>
</a>
</g>
</g>
<!-- Node1&#45;&gt;Node2 -->
<g id="edge1" class="edge">
<title>Node1&#45;&gt;Node2</title>
<path fill="none" stroke="midnightblue" d="M207.49,-130.68C180.87,-120.26 147.73,-107.28 122.95,-97.58"/>
<polygon fill="midnightblue" stroke="midnightblue" points="206.39,-134.01 216.98,-134.4 208.95,-127.49 206.39,-134.01"/>
</g>
<!-- Node3 -->
<g id="node3" class="node">
<title>Node3</title>
<g id="a_node3"><a xlink:href="Champ__Ostwald__VDF_8h.html" target="_top" xlink:title=" ">
<polygon fill="white" stroke="black" points="186,-67.5 186,-97.5 320,-97.5 320,-67.5 186,-67.5"/>
<text text-anchor="start" x="194" y="-85.5" font-family="Helvetica,sans-Serif" font-size="10.00">src/VDF/Champs/Champ</text>
<text text-anchor="middle" x="253" y="-74.5" font-family="Helvetica,sans-Serif" font-size="10.00">_Ostwald_VDF.h</text>
</a>
</g>
</g>
<!-- Node1&#45;&gt;Node3 -->
<g id="edge2" class="edge">
<title>Node1&#45;&gt;Node3</title>
<path fill="none" stroke="midnightblue" d="M253,-124.11C253,-115.15 253,-105.32 253,-97.58"/>
<polygon fill="midnightblue" stroke="midnightblue" points="249.5,-124.4 253,-134.4 256.5,-124.4 249.5,-124.4"/>
</g>
<!-- Node6 -->
<g id="node6" class="node">
<title>Node6</title>
<g id="a_node6"><a xlink:href="Champ__Ostwald__VEF_8h.html" target="_top" xlink:title=" ">
<polygon fill="white" stroke="black" points="451.5,-67.5 451.5,-97.5 584.5,-97.5 584.5,-67.5 451.5,-67.5"/>
<text text-anchor="start" x="459.5" y="-85.5" font-family="Helvetica,sans-Serif" font-size="10.00">src/VEF/Champs/Champ</text>
<text text-anchor="middle" x="518" y="-74.5" font-family="Helvetica,sans-Serif" font-size="10.00">_Ostwald_VEF.h</text>
</a>
</g>
</g>
<!-- Node1&#45;&gt;Node6 -->
<g id="edge5" class="edge">
<title>Node1&#45;&gt;Node6</title>
<path fill="none" stroke="midnightblue" d="M320.06,-132.05C363.38,-121.43 419.17,-107.74 460.47,-97.61"/>
<polygon fill="midnightblue" stroke="midnightblue" points="319.05,-128.69 310.17,-134.48 320.72,-135.49 319.05,-128.69"/>
</g>
<!-- Node4 -->
<g id="node4" class="node">
<title>Node4</title>
<g id="a_node4"><a xlink:href="Champ__Ostwald__VDF_8cpp.html" target="_top" xlink:title=" ">
<polygon fill="white" stroke="black" points="0,-0.5 0,-30.5 134,-30.5 134,-0.5 0,-0.5"/>
<text text-anchor="start" x="8" y="-18.5" font-family="Helvetica,sans-Serif" font-size="10.00">src/VDF/Champs/Champ</text>
<text text-anchor="middle" x="67" y="-7.5" font-family="Helvetica,sans-Serif" font-size="10.00">_Ostwald_VDF.cpp</text>
</a>
</g>
</g>
<!-- Node3&#45;&gt;Node4 -->
<g id="edge3" class="edge">
<title>Node3&#45;&gt;Node4</title>
<path fill="none" stroke="midnightblue" d="M203.19,-64.09C173.16,-53.6 135.41,-40.41 107.28,-30.58"/>
<polygon fill="midnightblue" stroke="midnightblue" points="202.05,-67.4 212.64,-67.4 204.36,-60.79 202.05,-67.4"/>
</g>
<!-- Node5 -->
<g id="node5" class="node">
<title>Node5</title>
<g id="a_node5"><a xlink:href="VDF__discretisation_8cpp.html" target="_top" xlink:title=" ">
<polygon fill="white" stroke="black" points="152,-6 152,-25 354,-25 354,-6 152,-6"/>
<text text-anchor="middle" x="253" y="-13" font-family="Helvetica,sans-Serif" font-size="10.00">src/VDF/Zones/VDF_discretisation.cpp</text>
</a>
</g>
</g>
<!-- Node3&#45;&gt;Node5 -->
<g id="edge4" class="edge">
<title>Node3&#45;&gt;Node5</title>
<path fill="none" stroke="midnightblue" d="M253,-57.25C253,-46.02 253,-33.38 253,-25.19"/>
<polygon fill="midnightblue" stroke="midnightblue" points="249.5,-57.4 253,-67.4 256.5,-57.4 249.5,-57.4"/>
</g>
<!-- Node7 -->
<g id="node7" class="node">
<title>Node7</title>
<g id="a_node7"><a xlink:href="Champ__Ostwald__VEF_8cpp.html" target="_top" xlink:title=" ">
<polygon fill="white" stroke="black" points="372.5,-0.5 372.5,-30.5 505.5,-30.5 505.5,-0.5 372.5,-0.5"/>
<text text-anchor="start" x="380.5" y="-18.5" font-family="Helvetica,sans-Serif" font-size="10.00">src/VEF/Champs/Champ</text>
<text text-anchor="middle" x="439" y="-7.5" font-family="Helvetica,sans-Serif" font-size="10.00">_Ostwald_VEF.cpp</text>
</a>
</g>
</g>
<!-- Node6&#45;&gt;Node7 -->
<g id="edge6" class="edge">
<title>Node6&#45;&gt;Node7</title>
<path fill="none" stroke="midnightblue" d="M492.94,-60.88C480.94,-51.01 466.87,-39.43 456.11,-30.58"/>
<polygon fill="midnightblue" stroke="midnightblue" points="490.91,-63.75 500.86,-67.4 495.36,-58.34 490.91,-63.75"/>
</g>
<!-- Node8 -->
<g id="node8" class="node">
<title>Node8</title>
<g id="a_node8"><a xlink:href="VEF__1D_8cpp.html" target="_top" xlink:title=" ">
<polygon fill="white" stroke="black" points="524,-6 524,-25 670,-25 670,-6 524,-6"/>
<text text-anchor="middle" x="597" y="-13" font-family="Helvetica,sans-Serif" font-size="10.00">src/VEF/Zones/VEF_1D.cpp</text>
</a>
</g>
</g>
<!-- Node6&#45;&gt;Node8 -->
<g id="edge7" class="edge">
<title>Node6&#45;&gt;Node8</title>
<path fill="none" stroke="midnightblue" d="M542.91,-61.01C557.57,-48.94 575.36,-34.3 586.43,-25.19"/>
<polygon fill="midnightblue" stroke="midnightblue" points="540.64,-58.34 535.14,-67.4 545.09,-63.75 540.64,-58.34"/>
</g>
<!-- Node9 -->
<g id="node9" class="node">
<title>Node9</title>
<g id="a_node9"><a xlink:href="VEF__discretisation_8cpp.html" target="_top" xlink:title=" ">
<polygon fill="white" stroke="black" points="688.5,-6 688.5,-25 887.5,-25 887.5,-6 688.5,-6"/>
<text text-anchor="middle" x="788" y="-13" font-family="Helvetica,sans-Serif" font-size="10.00">src/VEF/Zones/VEF_discretisation.cpp</text>
</a>
</g>
</g>
<!-- Node6&#45;&gt;Node9 -->
<g id="edge8" class="edge">
<title>Node6&#45;&gt;Node9</title>
<path fill="none" stroke="midnightblue" d="M586.25,-65.07C639.2,-52.32 710.45,-35.17 752.57,-25.03"/>
<polygon fill="midnightblue" stroke="midnightblue" points="585.16,-61.73 576.25,-67.48 586.8,-68.54 585.16,-61.73"/>
</g>
</g>
</svg>
