<?xml version="1.0" encoding="UTF-8" standalone="no"?>
<!DOCTYPE svg PUBLIC "-//W3C//DTD SVG 1.1//EN"
 "http://www.w3.org/Graphics/SVG/1.1/DTD/svg11.dtd">
<!-- Generated by graphviz version 2.43.0 (0)
 -->
<!-- Title: src/Kernel/Utilitaires/Char_ptr.cpp Pages: 1 -->
<svg width="772pt" height="823pt"
 viewBox="0.00 0.00 771.50 823.00" xmlns="http://www.w3.org/2000/svg" xmlns:xlink="http://www.w3.org/1999/xlink">
<g id="graph0" class="graph" transform="scale(1 1) rotate(0) translate(4 819)">
<title>src/Kernel/Utilitaires/Char_ptr.cpp</title>
<polygon fill="white" stroke="transparent" points="-4,4 -4,-819 767.5,-819 767.5,4 -4,4"/>
<!-- Node1 -->
<g id="node1" class="node">
<title>Node1</title>
<g id="a_node1"><a xlink:title=" ">
<polygon fill="#bfbfbf" stroke="black" points="642.5,-784.5 642.5,-814.5 758.5,-814.5 758.5,-784.5 642.5,-784.5"/>
<text text-anchor="start" x="650.5" y="-802.5" font-family="Helvetica,sans-Serif" font-size="10.00">src/Kernel/Utilitaires</text>
<text text-anchor="middle" x="700.5" y="-791.5" font-family="Helvetica,sans-Serif" font-size="10.00">/Char_ptr.cpp</text>
</a>
</g>
</g>
<!-- Node2 -->
<g id="node2" class="node">
<title>Node2</title>
<g id="a_node2"><a xlink:href="Char__ptr_8h.html" target="_top" xlink:title=" ">
<polygon fill="white" stroke="black" points="586.5,-728.5 586.5,-747.5 652.5,-747.5 652.5,-728.5 586.5,-728.5"/>
<text text-anchor="middle" x="619.5" y="-735.5" font-family="Helvetica,sans-Serif" font-size="10.00">Char_ptr.h</text>
</a>
</g>
</g>
<!-- Node1&#45;&gt;Node2 -->
<g id="edge1" class="edge">
<title>Node1&#45;&gt;Node2</title>
<path fill="none" stroke="midnightblue" d="M681.3,-784.4C668.68,-775.13 652.21,-763.03 639.44,-753.65"/>
<polygon fill="midnightblue" stroke="midnightblue" points="641.42,-750.76 631.29,-747.66 637.27,-756.4 641.42,-750.76"/>
</g>
<!-- Node3 -->
<g id="node3" class="node">
<title>Node3</title>
<g id="a_node3"><a xlink:href="Motcle_8h.html" target="_top" xlink:title=" ">
<polygon fill="white" stroke="black" points="671,-728.5 671,-747.5 730,-747.5 730,-728.5 671,-728.5"/>
<text text-anchor="middle" x="700.5" y="-735.5" font-family="Helvetica,sans-Serif" font-size="10.00">Motcle.h</text>
</a>
</g>
</g>
<!-- Node1&#45;&gt;Node3 -->
<g id="edge2" class="edge">
<title>Node1&#45;&gt;Node3</title>
<path fill="none" stroke="midnightblue" d="M700.5,-784.4C700.5,-776.47 700.5,-766.46 700.5,-757.86"/>
<polygon fill="midnightblue" stroke="midnightblue" points="704,-757.66 700.5,-747.66 697,-757.66 704,-757.66"/>
</g>
<!-- Node23 -->
<g id="node23" class="node">
<title>Node23</title>
<g id="a_node23"><a xlink:title=" ">
<polygon fill="white" stroke="#bfbfbf" points="665.5,-56.5 665.5,-75.5 709.5,-75.5 709.5,-56.5 665.5,-56.5"/>
<text text-anchor="middle" x="687.5" y="-63.5" font-family="Helvetica,sans-Serif" font-size="10.00">string</text>
</a>
</g>
</g>
<!-- Node1&#45;&gt;Node23 -->
<g id="edge43" class="edge">
<title>Node1&#45;&gt;Node23</title>
<path fill="none" stroke="midnightblue" d="M714.48,-784.19C733.04,-763.62 763.5,-723.66 763.5,-683 763.5,-683 763.5,-683 763.5,-177 763.5,-137.28 729.54,-101.5 707.02,-82.15"/>
<polygon fill="midnightblue" stroke="midnightblue" points="708.98,-79.24 699.04,-75.57 704.52,-84.63 708.98,-79.24"/>
</g>
<!-- Node4 -->
<g id="node4" class="node">
<title>Node4</title>
<g id="a_node4"><a xlink:href="Vect_8h.html" target="_top" xlink:title=" ">
<polygon fill="white" stroke="black" points="674,-672.5 674,-691.5 721,-691.5 721,-672.5 674,-672.5"/>
<text text-anchor="middle" x="697.5" y="-679.5" font-family="Helvetica,sans-Serif" font-size="10.00">Vect.h</text>
</a>
</g>
</g>
<!-- Node3&#45;&gt;Node4 -->
<g id="edge3" class="edge">
<title>Node3&#45;&gt;Node4</title>
<path fill="none" stroke="midnightblue" d="M700,-728.08C699.61,-721.01 699.05,-710.86 698.55,-701.99"/>
<polygon fill="midnightblue" stroke="midnightblue" points="702.04,-701.54 697.99,-691.75 695.05,-701.93 702.04,-701.54"/>
</g>
<!-- Node5 -->
<g id="node5" class="node">
<title>Node5</title>
<g id="a_node5"><a xlink:href="MacVect_8h.html" target="_top" xlink:title=" ">
<polygon fill="white" stroke="black" points="661,-616.5 661,-635.5 728,-635.5 728,-616.5 661,-616.5"/>
<text text-anchor="middle" x="694.5" y="-623.5" font-family="Helvetica,sans-Serif" font-size="10.00">MacVect.h</text>
</a>
</g>
</g>
<!-- Node4&#45;&gt;Node5 -->
<g id="edge4" class="edge">
<title>Node4&#45;&gt;Node5</title>
<path fill="none" stroke="midnightblue" d="M697,-672.08C696.61,-665.01 696.05,-654.86 695.55,-645.99"/>
<polygon fill="midnightblue" stroke="midnightblue" points="699.04,-645.54 694.99,-635.75 692.05,-645.93 699.04,-645.54"/>
</g>
<!-- Node6 -->
<g id="node6" class="node">
<title>Node6</title>
<g id="a_node6"><a xlink:href="Nom_8h.html" target="_top" xlink:title=" ">
<polygon fill="white" stroke="black" points="572,-448.5 572,-467.5 621,-467.5 621,-448.5 572,-448.5"/>
<text text-anchor="middle" x="596.5" y="-455.5" font-family="Helvetica,sans-Serif" font-size="10.00">Nom.h</text>
</a>
</g>
</g>
<!-- Node5&#45;&gt;Node6 -->
<g id="edge5" class="edge">
<title>Node5&#45;&gt;Node6</title>
<path fill="none" stroke="midnightblue" d="M690.86,-616.39C685.41,-603.76 674.59,-579.58 663.5,-560 646.13,-529.34 622.81,-495.57 608.76,-475.88"/>
<polygon fill="midnightblue" stroke="midnightblue" points="611.53,-473.73 602.85,-467.65 605.84,-477.81 611.53,-473.73"/>
</g>
<!-- Node8 -->
<g id="node8" class="node">
<title>Node8</title>
<g id="a_node8"><a xlink:title=" ">
<polygon fill="white" stroke="#bfbfbf" points="583.5,-56.5 583.5,-75.5 639.5,-75.5 639.5,-56.5 583.5,-56.5"/>
<text text-anchor="middle" x="611.5" y="-63.5" font-family="Helvetica,sans-Serif" font-size="10.00">assert.h</text>
</a>
</g>
</g>
<!-- Node5&#45;&gt;Node8 -->
<g id="edge32" class="edge">
<title>Node5&#45;&gt;Node8</title>
<path fill="none" stroke="midnightblue" d="M698.68,-616.39C707.14,-598.16 725.5,-554.09 725.5,-515 725.5,-515 725.5,-515 725.5,-177 725.5,-130.11 674.95,-96.89 641.17,-79.93"/>
<polygon fill="midnightblue" stroke="midnightblue" points="642.67,-76.77 632.14,-75.58 639.63,-83.07 642.67,-76.77"/>
</g>
<!-- Node26 -->
<g id="node26" class="node">
<title>Node26</title>
<g id="a_node26"><a xlink:href="vect__impl_8h.html" target="_top" xlink:title=" ">
<polygon fill="white" stroke="black" points="580.5,-560.5 580.5,-579.5 654.5,-579.5 654.5,-560.5 580.5,-560.5"/>
<text text-anchor="middle" x="617.5" y="-567.5" font-family="Helvetica,sans-Serif" font-size="10.00">vect_impl.h</text>
</a>
</g>
</g>
<!-- Node5&#45;&gt;Node26 -->
<g id="edge33" class="edge">
<title>Node5&#45;&gt;Node26</title>
<path fill="none" stroke="midnightblue" d="M682.13,-616.32C670.34,-608.06 652.37,-595.45 638.36,-585.63"/>
<polygon fill="midnightblue" stroke="midnightblue" points="640.04,-582.53 629.84,-579.65 636.02,-588.26 640.04,-582.53"/>
</g>
<!-- Node7 -->
<g id="node7" class="node">
<title>Node7</title>
<g id="a_node7"><a xlink:href="Objet__U_8h.html" target="_top" xlink:title=" ">
<polygon fill="white" stroke="black" points="438,-224.5 438,-243.5 503,-243.5 503,-224.5 438,-224.5"/>
<text text-anchor="middle" x="470.5" y="-231.5" font-family="Helvetica,sans-Serif" font-size="10.00">Objet_U.h</text>
</a>
</g>
</g>
<!-- Node6&#45;&gt;Node7 -->
<g id="edge6" class="edge">
<title>Node6&#45;&gt;Node7</title>
<path fill="none" stroke="midnightblue" d="M588.58,-448.26C581.04,-439.59 569.8,-425.64 562.5,-412 533.2,-357.22 549.81,-332.44 516.5,-280 509.35,-268.74 498.85,-258.19 489.7,-250.14"/>
<polygon fill="midnightblue" stroke="midnightblue" points="491.7,-247.25 481.8,-243.5 487.2,-252.61 491.7,-247.25"/>
</g>
<!-- Node6&#45;&gt;Node23 -->
<g id="edge31" class="edge">
<title>Node6&#45;&gt;Node23</title>
<path fill="none" stroke="midnightblue" d="M611.12,-448.48C636.84,-432.27 687.5,-394.34 687.5,-347 687.5,-347 687.5,-347 687.5,-177 687.5,-144.95 687.5,-107.64 687.5,-85.75"/>
<polygon fill="midnightblue" stroke="midnightblue" points="691,-85.56 687.5,-75.56 684,-85.56 691,-85.56"/>
</g>
<!-- Node25 -->
<g id="node25" class="node">
<title>Node25</title>
<g id="a_node25"><a xlink:title=" ">
<polygon fill="white" stroke="#bfbfbf" points="571.5,-392.5 571.5,-411.5 621.5,-411.5 621.5,-392.5 571.5,-392.5"/>
<text text-anchor="middle" x="596.5" y="-399.5" font-family="Helvetica,sans-Serif" font-size="10.00">cstring</text>
</a>
</g>
</g>
<!-- Node6&#45;&gt;Node25 -->
<g id="edge30" class="edge">
<title>Node6&#45;&gt;Node25</title>
<path fill="none" stroke="midnightblue" d="M596.5,-448.08C596.5,-441.01 596.5,-430.86 596.5,-421.99"/>
<polygon fill="midnightblue" stroke="midnightblue" points="600,-421.75 596.5,-411.75 593,-421.75 600,-421.75"/>
</g>
<!-- Node7&#45;&gt;Node8 -->
<g id="edge7" class="edge">
<title>Node7&#45;&gt;Node8</title>
<path fill="none" stroke="midnightblue" d="M486.15,-224.31C512.17,-209.05 564.24,-174.96 592.5,-132 601.69,-118.03 606.53,-99.53 609.02,-85.84"/>
<polygon fill="midnightblue" stroke="midnightblue" points="612.52,-86.09 610.6,-75.67 605.61,-85.02 612.52,-86.09"/>
</g>
<!-- Node9 -->
<g id="node9" class="node">
<title>Node9</title>
<g id="a_node9"><a xlink:href="DecBaseInst_8h.html" target="_top" xlink:title=" ">
<polygon fill="white" stroke="black" points="122.5,-168.5 122.5,-187.5 208.5,-187.5 208.5,-168.5 122.5,-168.5"/>
<text text-anchor="middle" x="165.5" y="-175.5" font-family="Helvetica,sans-Serif" font-size="10.00">DecBaseInst.h</text>
</a>
</g>
</g>
<!-- Node7&#45;&gt;Node9 -->
<g id="edge8" class="edge">
<title>Node7&#45;&gt;Node9</title>
<path fill="none" stroke="midnightblue" d="M437.86,-227.22C385.45,-217.94 282.03,-199.63 218.8,-188.44"/>
<polygon fill="midnightblue" stroke="midnightblue" points="219.09,-184.93 208.63,-186.64 217.87,-191.83 219.09,-184.93"/>
</g>
<!-- Node14 -->
<g id="node14" class="node">
<title>Node14</title>
<g id="a_node14"><a xlink:href="EntreeSortie_8h.html" target="_top" xlink:title=" ">
<polygon fill="white" stroke="black" points="418.5,-168.5 418.5,-187.5 504.5,-187.5 504.5,-168.5 418.5,-168.5"/>
<text text-anchor="middle" x="461.5" y="-175.5" font-family="Helvetica,sans-Serif" font-size="10.00">EntreeSortie.h</text>
</a>
</g>
</g>
<!-- Node7&#45;&gt;Node14 -->
<g id="edge14" class="edge">
<title>Node7&#45;&gt;Node14</title>
<path fill="none" stroke="midnightblue" d="M469.01,-224.08C467.82,-216.93 466.11,-206.64 464.62,-197.69"/>
<polygon fill="midnightblue" stroke="midnightblue" points="468.05,-197.04 462.96,-187.75 461.15,-198.19 468.05,-197.04"/>
</g>
<!-- Node19 -->
<g id="node19" class="node">
<title>Node19</title>
<g id="a_node19"><a xlink:href="Process_8h.html" target="_top" xlink:title=" ">
<polygon fill="white" stroke="black" points="219,-56.5 219,-75.5 282,-75.5 282,-56.5 219,-56.5"/>
<text text-anchor="middle" x="250.5" y="-63.5" font-family="Helvetica,sans-Serif" font-size="10.00">Process.h</text>
</a>
</g>
</g>
<!-- Node7&#45;&gt;Node19 -->
<g id="edge29" class="edge">
<title>Node7&#45;&gt;Node19</title>
<path fill="none" stroke="midnightblue" d="M458.76,-224.44C446.44,-215.43 426.53,-200.82 409.5,-188 365.18,-154.64 354.69,-145.53 310.5,-112 297.11,-101.84 281.97,-90.48 270.24,-81.72"/>
<polygon fill="midnightblue" stroke="midnightblue" points="272.14,-78.77 262.03,-75.59 267.95,-84.38 272.14,-78.77"/>
</g>
<!-- Node10 -->
<g id="node10" class="node">
<title>Node10</title>
<g id="a_node10"><a xlink:href="Cast_8h.html" target="_top" xlink:title=" ">
<polygon fill="white" stroke="black" points="0,-56.5 0,-75.5 47,-75.5 47,-56.5 0,-56.5"/>
<text text-anchor="middle" x="23.5" y="-63.5" font-family="Helvetica,sans-Serif" font-size="10.00">Cast.h</text>
</a>
</g>
</g>
<!-- Node9&#45;&gt;Node10 -->
<g id="edge9" class="edge">
<title>Node9&#45;&gt;Node10</title>
<path fill="none" stroke="midnightblue" d="M122.21,-170.68C80.1,-163.55 20.47,-150.48 6.5,-132 -3.9,-118.24 3.38,-98.69 11.4,-84.63"/>
<polygon fill="midnightblue" stroke="midnightblue" points="14.51,-86.24 16.85,-75.91 8.58,-82.53 14.51,-86.24"/>
</g>
<!-- Node11 -->
<g id="node11" class="node">
<title>Node11</title>
<g id="a_node11"><a xlink:href="Type__info_8h.html" target="_top" xlink:title=" ">
<polygon fill="white" stroke="black" points="229.5,-112.5 229.5,-131.5 301.5,-131.5 301.5,-112.5 229.5,-112.5"/>
<text text-anchor="middle" x="265.5" y="-119.5" font-family="Helvetica,sans-Serif" font-size="10.00">Type_info.h</text>
</a>
</g>
</g>
<!-- Node9&#45;&gt;Node11 -->
<g id="edge10" class="edge">
<title>Node9&#45;&gt;Node11</title>
<path fill="none" stroke="midnightblue" d="M181.57,-168.32C197.46,-159.74 222.01,-146.49 240.46,-136.52"/>
<polygon fill="midnightblue" stroke="midnightblue" points="242.34,-139.49 249.47,-131.65 239.01,-133.33 242.34,-139.49"/>
</g>
<!-- Node12 -->
<g id="node12" class="node">
<title>Node12</title>
<g id="a_node12"><a xlink:href="Declare__Base_8h.html" target="_top" xlink:title=" ">
<polygon fill="white" stroke="black" points="119.5,-112.5 119.5,-131.5 211.5,-131.5 211.5,-112.5 119.5,-112.5"/>
<text text-anchor="middle" x="165.5" y="-119.5" font-family="Helvetica,sans-Serif" font-size="10.00">Declare_Base.h</text>
</a>
</g>
</g>
<!-- Node9&#45;&gt;Node12 -->
<g id="edge11" class="edge">
<title>Node9&#45;&gt;Node12</title>
<path fill="none" stroke="midnightblue" d="M165.5,-168.08C165.5,-161.01 165.5,-150.86 165.5,-141.99"/>
<polygon fill="midnightblue" stroke="midnightblue" points="169,-141.75 165.5,-131.75 162,-141.75 169,-141.75"/>
</g>
<!-- Node13 -->
<g id="node13" class="node">
<title>Node13</title>
<g id="a_node13"><a xlink:href="Declare__Inst_8h.html" target="_top" xlink:title=" ">
<polygon fill="white" stroke="black" points="15.5,-112.5 15.5,-131.5 101.5,-131.5 101.5,-112.5 15.5,-112.5"/>
<text text-anchor="middle" x="58.5" y="-119.5" font-family="Helvetica,sans-Serif" font-size="10.00">Declare_Inst.h</text>
</a>
</g>
</g>
<!-- Node9&#45;&gt;Node13 -->
<g id="edge12" class="edge">
<title>Node9&#45;&gt;Node13</title>
<path fill="none" stroke="midnightblue" d="M148.31,-168.32C131.15,-159.66 104.55,-146.24 84.75,-136.25"/>
<polygon fill="midnightblue" stroke="midnightblue" points="86.15,-133.04 75.65,-131.65 83,-139.28 86.15,-133.04"/>
</g>
<!-- Node13&#45;&gt;Node10 -->
<g id="edge13" class="edge">
<title>Node13&#45;&gt;Node10</title>
<path fill="none" stroke="midnightblue" d="M52.72,-112.08C47.83,-104.53 40.67,-93.49 34.67,-84.23"/>
<polygon fill="midnightblue" stroke="midnightblue" points="37.55,-82.24 29.17,-75.75 31.67,-86.05 37.55,-82.24"/>
</g>
<!-- Node15 -->
<g id="node15" class="node">
<title>Node15</title>
<g id="a_node15"><a xlink:href="Entree_8h.html" target="_top" xlink:title=" ">
<polygon fill="white" stroke="black" points="358,-112.5 358,-131.5 415,-131.5 415,-112.5 358,-112.5"/>
<text text-anchor="middle" x="386.5" y="-119.5" font-family="Helvetica,sans-Serif" font-size="10.00">Entree.h</text>
</a>
</g>
</g>
<!-- Node14&#45;&gt;Node15 -->
<g id="edge15" class="edge">
<title>Node14&#45;&gt;Node15</title>
<path fill="none" stroke="midnightblue" d="M449.45,-168.32C438.04,-160.11 420.67,-147.6 407.07,-137.81"/>
<polygon fill="midnightblue" stroke="midnightblue" points="408.93,-134.84 398.77,-131.83 404.84,-140.52 408.93,-134.84"/>
</g>
<!-- Node22 -->
<g id="node22" class="node">
<title>Node22</title>
<g id="a_node22"><a xlink:href="Sortie_8h.html" target="_top" xlink:title=" ">
<polygon fill="white" stroke="black" points="433.5,-112.5 433.5,-131.5 487.5,-131.5 487.5,-112.5 433.5,-112.5"/>
<text text-anchor="middle" x="460.5" y="-119.5" font-family="Helvetica,sans-Serif" font-size="10.00">Sortie.h</text>
</a>
</g>
</g>
<!-- Node14&#45;&gt;Node22 -->
<g id="edge23" class="edge">
<title>Node14&#45;&gt;Node22</title>
<path fill="none" stroke="midnightblue" d="M461.33,-168.08C461.2,-161.01 461.02,-150.86 460.85,-141.99"/>
<polygon fill="midnightblue" stroke="midnightblue" points="464.35,-141.68 460.66,-131.75 457.35,-141.81 464.35,-141.68"/>
</g>
<!-- Node24 -->
<g id="node24" class="node">
<title>Node24</title>
<g id="a_node24"><a xlink:href="Separateur_8h.html" target="_top" xlink:title=" ">
<polygon fill="white" stroke="black" points="505.5,-112.5 505.5,-131.5 583.5,-131.5 583.5,-112.5 505.5,-112.5"/>
<text text-anchor="middle" x="544.5" y="-119.5" font-family="Helvetica,sans-Serif" font-size="10.00">Separateur.h</text>
</a>
</g>
</g>
<!-- Node14&#45;&gt;Node24 -->
<g id="edge28" class="edge">
<title>Node14&#45;&gt;Node24</title>
<path fill="none" stroke="midnightblue" d="M474.84,-168.32C487.66,-159.98 507.28,-147.21 522.44,-137.35"/>
<polygon fill="midnightblue" stroke="midnightblue" points="524.72,-140.04 531.2,-131.65 520.91,-134.17 524.72,-140.04"/>
</g>
<!-- Node15&#45;&gt;Node8 -->
<g id="edge19" class="edge">
<title>Node15&#45;&gt;Node8</title>
<path fill="none" stroke="midnightblue" d="M415.45,-114.05C455.76,-104.38 528.83,-86.84 573.48,-76.13"/>
<polygon fill="midnightblue" stroke="midnightblue" points="574.46,-79.49 583.36,-73.75 572.82,-72.68 574.46,-79.49"/>
</g>
<!-- Node16 -->
<g id="node16" class="node">
<title>Node16</title>
<g id="a_node16"><a xlink:title=" ">
<polygon fill="white" stroke="#bfbfbf" points="364.5,-56.5 364.5,-75.5 414.5,-75.5 414.5,-56.5 364.5,-56.5"/>
<text text-anchor="middle" x="389.5" y="-63.5" font-family="Helvetica,sans-Serif" font-size="10.00">stdio.h</text>
</a>
</g>
</g>
<!-- Node15&#45;&gt;Node16 -->
<g id="edge16" class="edge">
<title>Node15&#45;&gt;Node16</title>
<path fill="none" stroke="midnightblue" d="M387,-112.08C387.39,-105.01 387.95,-94.86 388.45,-85.99"/>
<polygon fill="midnightblue" stroke="midnightblue" points="391.95,-85.93 389.01,-75.75 384.96,-85.54 391.95,-85.93"/>
</g>
<!-- Node17 -->
<g id="node17" class="node">
<title>Node17</title>
<g id="a_node17"><a xlink:title=" ">
<polygon fill="white" stroke="#bfbfbf" points="300.5,-56.5 300.5,-75.5 346.5,-75.5 346.5,-56.5 300.5,-56.5"/>
<text text-anchor="middle" x="323.5" y="-63.5" font-family="Helvetica,sans-Serif" font-size="10.00">cstdio</text>
</a>
</g>
</g>
<!-- Node15&#45;&gt;Node17 -->
<g id="edge17" class="edge">
<title>Node15&#45;&gt;Node17</title>
<path fill="none" stroke="midnightblue" d="M376.38,-112.32C366.97,-104.26 352.76,-92.08 341.43,-82.37"/>
<polygon fill="midnightblue" stroke="midnightblue" points="343.68,-79.68 333.81,-75.83 339.12,-85 343.68,-79.68"/>
</g>
<!-- Node18 -->
<g id="node18" class="node">
<title>Node18</title>
<g id="a_node18"><a xlink:title=" ">
<polygon fill="white" stroke="#bfbfbf" points="498.5,-56.5 498.5,-75.5 558.5,-75.5 558.5,-56.5 498.5,-56.5"/>
<text text-anchor="middle" x="528.5" y="-63.5" font-family="Helvetica,sans-Serif" font-size="10.00">iostream</text>
</a>
</g>
</g>
<!-- Node15&#45;&gt;Node18 -->
<g id="edge18" class="edge">
<title>Node15&#45;&gt;Node18</title>
<path fill="none" stroke="midnightblue" d="M409,-112.44C432.58,-103.48 469.82,-89.31 496.46,-79.18"/>
<polygon fill="midnightblue" stroke="midnightblue" points="498,-82.34 506.1,-75.52 495.51,-75.8 498,-82.34"/>
</g>
<!-- Node15&#45;&gt;Node19 -->
<g id="edge20" class="edge">
<title>Node15&#45;&gt;Node19</title>
<path fill="none" stroke="midnightblue" d="M364.95,-112.44C342.47,-103.52 307.01,-89.44 281.52,-79.32"/>
<polygon fill="midnightblue" stroke="midnightblue" points="282.53,-75.95 271.95,-75.52 279.95,-82.46 282.53,-75.95"/>
</g>
<!-- Node20 -->
<g id="node20" class="node">
<title>Node20</title>
<g id="a_node20"><a xlink:href="arch_8h.html" target="_top" xlink:title=" ">
<polygon fill="white" stroke="black" points="433,-56.5 433,-75.5 480,-75.5 480,-56.5 433,-56.5"/>
<text text-anchor="middle" x="456.5" y="-63.5" font-family="Helvetica,sans-Serif" font-size="10.00">arch.h</text>
</a>
</g>
</g>
<!-- Node15&#45;&gt;Node20 -->
<g id="edge21" class="edge">
<title>Node15&#45;&gt;Node20</title>
<path fill="none" stroke="midnightblue" d="M397.75,-112.32C408.3,-104.18 424.3,-91.84 436.94,-82.09"/>
<polygon fill="midnightblue" stroke="midnightblue" points="439.27,-84.71 445.05,-75.83 434.99,-79.17 439.27,-84.71"/>
</g>
<!-- Node21 -->
<g id="node21" class="node">
<title>Node21</title>
<g id="a_node21"><a xlink:href="generique_8h.html" target="_top" xlink:title=" ">
<polygon fill="white" stroke="black" points="419.5,-0.5 419.5,-19.5 493.5,-19.5 493.5,-0.5 419.5,-0.5"/>
<text text-anchor="middle" x="456.5" y="-7.5" font-family="Helvetica,sans-Serif" font-size="10.00">generique.h</text>
</a>
</g>
</g>
<!-- Node20&#45;&gt;Node21 -->
<g id="edge22" class="edge">
<title>Node20&#45;&gt;Node21</title>
<path fill="none" stroke="midnightblue" d="M456.5,-56.08C456.5,-49.01 456.5,-38.86 456.5,-29.99"/>
<polygon fill="midnightblue" stroke="midnightblue" points="460,-29.75 456.5,-19.75 453,-29.75 460,-29.75"/>
</g>
<!-- Node22&#45;&gt;Node8 -->
<g id="edge25" class="edge">
<title>Node22&#45;&gt;Node8</title>
<path fill="none" stroke="midnightblue" d="M484.43,-112.44C509.72,-103.4 549.8,-89.06 578.18,-78.92"/>
<polygon fill="midnightblue" stroke="midnightblue" points="579.45,-82.18 587.69,-75.52 577.09,-75.59 579.45,-82.18"/>
</g>
<!-- Node22&#45;&gt;Node18 -->
<g id="edge24" class="edge">
<title>Node22&#45;&gt;Node18</title>
<path fill="none" stroke="midnightblue" d="M471.43,-112.32C481.67,-104.18 497.22,-91.84 509.5,-82.09"/>
<polygon fill="midnightblue" stroke="midnightblue" points="511.72,-84.79 517.38,-75.83 507.37,-79.31 511.72,-84.79"/>
</g>
<!-- Node22&#45;&gt;Node20 -->
<g id="edge26" class="edge">
<title>Node22&#45;&gt;Node20</title>
<path fill="none" stroke="midnightblue" d="M459.84,-112.08C459.32,-105.01 458.56,-94.86 457.91,-85.99"/>
<polygon fill="midnightblue" stroke="midnightblue" points="461.38,-85.47 457.15,-75.75 454.4,-85.98 461.38,-85.47"/>
</g>
<!-- Node22&#45;&gt;Node23 -->
<g id="edge27" class="edge">
<title>Node22&#45;&gt;Node23</title>
<path fill="none" stroke="midnightblue" d="M487.62,-114.18C490.61,-113.44 493.62,-112.7 496.5,-112 552.33,-98.44 617.49,-83.22 655.46,-74.41"/>
<polygon fill="midnightblue" stroke="midnightblue" points="656.47,-77.77 665.42,-72.1 654.89,-70.95 656.47,-77.77"/>
</g>
<!-- Node26&#45;&gt;Node6 -->
<g id="edge34" class="edge">
<title>Node26&#45;&gt;Node6</title>
<path fill="none" stroke="midnightblue" d="M615.85,-560.37C612.46,-542.62 604.65,-501.67 600.05,-477.6"/>
<polygon fill="midnightblue" stroke="midnightblue" points="603.45,-476.76 598.14,-467.59 596.58,-478.07 603.45,-476.76"/>
</g>
<!-- Node26&#45;&gt;Node8 -->
<g id="edge35" class="edge">
<title>Node26&#45;&gt;Node8</title>
<path fill="none" stroke="midnightblue" d="M621.82,-560.41C630.55,-542.2 649.5,-498.18 649.5,-459 649.5,-459 649.5,-459 649.5,-177 649.5,-142.81 632.9,-105.76 621.64,-84.57"/>
<polygon fill="midnightblue" stroke="midnightblue" points="624.68,-82.83 616.78,-75.77 618.55,-86.22 624.68,-82.83"/>
</g>
<!-- Node27 -->
<g id="node27" class="node">
<title>Node27</title>
<g id="a_node27"><a xlink:href="DerOu___8h.html" target="_top" xlink:title=" ">
<polygon fill="white" stroke="black" points="521.5,-504.5 521.5,-523.5 583.5,-523.5 583.5,-504.5 521.5,-504.5"/>
<text text-anchor="middle" x="552.5" y="-511.5" font-family="Helvetica,sans-Serif" font-size="10.00">DerOu_.h</text>
</a>
</g>
</g>
<!-- Node26&#45;&gt;Node27 -->
<g id="edge36" class="edge">
<title>Node26&#45;&gt;Node27</title>
<path fill="none" stroke="midnightblue" d="M607.06,-560.32C597.35,-552.26 582.68,-540.08 571,-530.37"/>
<polygon fill="midnightblue" stroke="midnightblue" points="573.06,-527.53 563.13,-523.83 568.59,-532.92 573.06,-527.53"/>
</g>
<!-- Node27&#45;&gt;Node6 -->
<g id="edge42" class="edge">
<title>Node27&#45;&gt;Node6</title>
<path fill="none" stroke="midnightblue" d="M559.77,-504.08C566.04,-496.38 575.29,-485.03 582.93,-475.65"/>
<polygon fill="midnightblue" stroke="midnightblue" points="585.77,-477.71 589.37,-467.75 580.34,-473.29 585.77,-477.71"/>
</g>
<!-- Node28 -->
<g id="node28" class="node">
<title>Node28</title>
<g id="a_node28"><a xlink:href="Deriv_8h.html" target="_top" xlink:title=" ">
<polygon fill="white" stroke="black" points="479,-448.5 479,-467.5 530,-467.5 530,-448.5 479,-448.5"/>
<text text-anchor="middle" x="504.5" y="-455.5" font-family="Helvetica,sans-Serif" font-size="10.00">Deriv.h</text>
</a>
</g>
</g>
<!-- Node27&#45;&gt;Node28 -->
<g id="edge37" class="edge">
<title>Node27&#45;&gt;Node28</title>
<path fill="none" stroke="midnightblue" d="M544.57,-504.08C537.65,-496.3 527.43,-484.8 519.05,-475.37"/>
<polygon fill="midnightblue" stroke="midnightblue" points="521.54,-472.9 512.28,-467.75 516.31,-477.55 521.54,-472.9"/>
</g>
<!-- Node29 -->
<g id="node29" class="node">
<title>Node29</title>
<g id="a_node29"><a xlink:href="MacDeriv_8h.html" target="_top" xlink:title=" ">
<polygon fill="white" stroke="black" points="443,-392.5 443,-411.5 514,-411.5 514,-392.5 443,-392.5"/>
<text text-anchor="middle" x="478.5" y="-399.5" font-family="Helvetica,sans-Serif" font-size="10.00">MacDeriv.h</text>
</a>
</g>
</g>
<!-- Node28&#45;&gt;Node29 -->
<g id="edge38" class="edge">
<title>Node28&#45;&gt;Node29</title>
<path fill="none" stroke="midnightblue" d="M500.21,-448.08C496.65,-440.69 491.48,-429.95 487.08,-420.81"/>
<polygon fill="midnightblue" stroke="midnightblue" points="490.21,-419.24 482.71,-411.75 483.9,-422.28 490.21,-419.24"/>
</g>
<!-- Node30 -->
<g id="node30" class="node">
<title>Node30</title>
<g id="a_node30"><a xlink:href="Deriv___8h.html" target="_top" xlink:title=" ">
<polygon fill="white" stroke="black" points="449,-336.5 449,-355.5 506,-355.5 506,-336.5 449,-336.5"/>
<text text-anchor="middle" x="477.5" y="-343.5" font-family="Helvetica,sans-Serif" font-size="10.00">Deriv_.h</text>
</a>
</g>
</g>
<!-- Node29&#45;&gt;Node30 -->
<g id="edge39" class="edge">
<title>Node29&#45;&gt;Node30</title>
<path fill="none" stroke="midnightblue" d="M478.33,-392.08C478.2,-385.01 478.02,-374.86 477.85,-365.99"/>
<polygon fill="midnightblue" stroke="midnightblue" points="481.35,-365.68 477.66,-355.75 474.35,-365.81 481.35,-365.68"/>
</g>
<!-- Node31 -->
<g id="node31" class="node">
<title>Node31</title>
<g id="a_node31"><a xlink:href="O__U__Ptr_8h.html" target="_top" xlink:title=" ">
<polygon fill="white" stroke="black" points="443.5,-280.5 443.5,-299.5 507.5,-299.5 507.5,-280.5 443.5,-280.5"/>
<text text-anchor="middle" x="475.5" y="-287.5" font-family="Helvetica,sans-Serif" font-size="10.00">O_U_Ptr.h</text>
</a>
</g>
</g>
<!-- Node30&#45;&gt;Node31 -->
<g id="edge40" class="edge">
<title>Node30&#45;&gt;Node31</title>
<path fill="none" stroke="midnightblue" d="M477.17,-336.08C476.91,-329.01 476.53,-318.86 476.2,-309.99"/>
<polygon fill="midnightblue" stroke="midnightblue" points="479.69,-309.61 475.82,-299.75 472.7,-309.87 479.69,-309.61"/>
</g>
<!-- Node31&#45;&gt;Node7 -->
<g id="edge41" class="edge">
<title>Node31&#45;&gt;Node7</title>
<path fill="none" stroke="midnightblue" d="M474.67,-280.08C474.02,-273.01 473.08,-262.86 472.26,-253.99"/>
<polygon fill="midnightblue" stroke="midnightblue" points="475.72,-253.39 471.31,-243.75 468.75,-254.03 475.72,-253.39"/>
</g>
</g>
</svg>
