<?xml version="1.0" encoding="UTF-8" standalone="no"?>
<!DOCTYPE svg PUBLIC "-//W3C//DTD SVG 1.1//EN"
 "http://www.w3.org/Graphics/SVG/1.1/DTD/svg11.dtd">
<!-- Generated by graphviz version 2.43.0 (0)
 -->
<!-- Title: RK2 Pages: 1 -->
<svg width="315pt" height="334pt"
 viewBox="0.00 0.00 314.50 334.00" xmlns="http://www.w3.org/2000/svg" xmlns:xlink="http://www.w3.org/1999/xlink">
<g id="graph0" class="graph" transform="scale(1 1) rotate(0) translate(4 330)">
<title>RK2</title>
<polygon fill="white" stroke="transparent" points="-4,4 -4,-330 310.5,-330 310.5,4 -4,4"/>
<!-- Node1 -->
<g id="node1" class="node">
<title>Node1</title>
<g id="a_node1"><a xlink:title="!&lt;">
<polygon fill="#bfbfbf" stroke="black" points="56.5,-0.5 56.5,-19.5 92.5,-19.5 92.5,-0.5 56.5,-0.5"/>
<text text-anchor="middle" x="74.5" y="-7.5" font-family="Helvetica,sans-Serif" font-size="10.00">RK2</text>
</a>
</g>
</g>
<!-- Node2 -->
<g id="node2" class="node">
<title>Node2</title>
<g id="a_node2"><a xlink:href="classTRUSTSchema__RK.html" target="_top" xlink:title=" ">
<polygon fill="white" stroke="black" points="0,-57.5 0,-87.5 149,-87.5 149,-57.5 0,-57.5"/>
<text text-anchor="start" x="8" y="-75.5" font-family="Helvetica,sans-Serif" font-size="10.00">TRUSTSchema_RK&lt; Ordre</text>
<text text-anchor="middle" x="74.5" y="-64.5" font-family="Helvetica,sans-Serif" font-size="10.00">_RK::DEUX_WILLIAMSON &gt;</text>
</a>
</g>
</g>
<!-- Node2&#45;&gt;Node1 -->
<g id="edge1" class="edge">
<title>Node2&#45;&gt;Node1</title>
<path fill="none" stroke="midnightblue" d="M74.5,-47.35C74.5,-37.51 74.5,-26.78 74.5,-19.54"/>
<polygon fill="midnightblue" stroke="midnightblue" points="71,-47.47 74.5,-57.47 78,-47.47 71,-47.47"/>
</g>
<!-- Node3 -->
<g id="node3" class="node">
<title>Node3</title>
<g id="a_node3"><a xlink:href="classSchema__Temps__base.html" target="_top" xlink:title="classe Schema_Temps_base">
<polygon fill="white" stroke="black" points="10,-192.5 10,-211.5 131,-211.5 131,-192.5 10,-192.5"/>
<text text-anchor="middle" x="70.5" y="-199.5" font-family="Helvetica,sans-Serif" font-size="10.00">Schema_Temps_base</text>
</a>
</g>
</g>
<!-- Node3&#45;&gt;Node2 -->
<g id="edge2" class="edge">
<title>Node3&#45;&gt;Node2</title>
<path fill="none" stroke="midnightblue" d="M71.1,-181.9C71.91,-156.05 73.34,-110.54 74.06,-87.59"/>
<polygon fill="midnightblue" stroke="midnightblue" points="67.59,-182.13 70.77,-192.24 74.59,-182.35 67.59,-182.13"/>
</g>
<!-- Node6 -->
<g id="node6" class="node">
<title>Node6</title>
<g id="a_node6"><a xlink:href="classTRUSTSchema__RK.html" target="_top" xlink:title=" ">
<polygon fill="white" stroke="black" points="86.5,-135.5 86.5,-154.5 260.5,-154.5 260.5,-135.5 86.5,-135.5"/>
<text text-anchor="middle" x="173.5" y="-142.5" font-family="Helvetica,sans-Serif" font-size="10.00">TRUSTSchema_RK&lt; _ORDRE_ &gt;</text>
</a>
</g>
</g>
<!-- Node3&#45;&gt;Node6 -->
<g id="edge6" class="edge">
<title>Node3&#45;&gt;Node6</title>
<path fill="none" stroke="midnightblue" d="M95.45,-187.68C114.76,-177.36 140.93,-163.39 157.52,-154.53"/>
<polygon fill="midnightblue" stroke="midnightblue" points="93.77,-184.61 86.59,-192.41 97.06,-190.78 93.77,-184.61"/>
</g>
<!-- Node4 -->
<g id="node4" class="node">
<title>Node4</title>
<g id="a_node4"><a xlink:href="classObjet__U.html" target="_top" xlink:title="classe Objet_U Cette classe est la classe de base des Objets de TRUST Dans les classes derivees de Ob...">
<polygon fill="white" stroke="black" points="42.5,-249.5 42.5,-268.5 98.5,-268.5 98.5,-249.5 42.5,-249.5"/>
<text text-anchor="middle" x="70.5" y="-256.5" font-family="Helvetica,sans-Serif" font-size="10.00">Objet_U</text>
</a>
</g>
</g>
<!-- Node4&#45;&gt;Node3 -->
<g id="edge3" class="edge">
<title>Node4&#45;&gt;Node3</title>
<path fill="none" stroke="midnightblue" d="M70.5,-239.12C70.5,-229.82 70.5,-219.06 70.5,-211.71"/>
<polygon fill="midnightblue" stroke="midnightblue" points="67,-239.41 70.5,-249.41 74,-239.41 67,-239.41"/>
</g>
<!-- Node5 -->
<g id="node5" class="node">
<title>Node5</title>
<g id="a_node5"><a xlink:href="classProcess.html" target="_top" xlink:title="Classe de base de TRUST (notamment Objet_U). Elle fournit quelques services de base accessibles de pa...">
<polygon fill="white" stroke="black" points="43.5,-306.5 43.5,-325.5 97.5,-325.5 97.5,-306.5 43.5,-306.5"/>
<text text-anchor="middle" x="70.5" y="-313.5" font-family="Helvetica,sans-Serif" font-size="10.00">Process</text>
</a>
</g>
</g>
<!-- Node5&#45;&gt;Node4 -->
<g id="edge4" class="edge">
<title>Node5&#45;&gt;Node4</title>
<path fill="none" stroke="midnightblue" d="M70.5,-296.12C70.5,-286.82 70.5,-276.06 70.5,-268.71"/>
<polygon fill="midnightblue" stroke="midnightblue" points="67,-296.41 70.5,-306.41 74,-296.41 67,-296.41"/>
</g>
<!-- Node6&#45;&gt;Node2 -->
<g id="edge5" class="edge">
<title>Node6&#45;&gt;Node2</title>
<path fill="none" stroke="orange" stroke-dasharray="5,2" d="M153.09,-129.47C135.85,-117.19 111.32,-99.72 94.27,-87.58"/>
<polygon fill="orange" stroke="orange" points="151.18,-132.41 161.36,-135.36 155.25,-126.7 151.18,-132.41"/>
<text text-anchor="middle" x="219.5" y="-109" font-family="Helvetica,sans-Serif" font-size="10.00"> &lt; Ordre_RK::DEUX_WILLIAMSON &gt;</text>
</g>
</g>
</svg>
