<?xml version="1.0" encoding="UTF-8" standalone="no"?>
<!DOCTYPE svg PUBLIC "-//W3C//DTD SVG 1.1//EN"
 "http://www.w3.org/Graphics/SVG/1.1/DTD/svg11.dtd">
<!-- Generated by graphviz version 2.43.0 (0)
 -->
<!-- Title: Ch_front_var_instationnaire_dep Pages: 1 -->
<svg width="1759pt" height="363pt"
 viewBox="0.00 0.00 1759.00 363.00" xmlns="http://www.w3.org/2000/svg" xmlns:xlink="http://www.w3.org/1999/xlink">
<g id="graph0" class="graph" transform="scale(1 1) rotate(0) translate(4 359)">
<title>Ch_front_var_instationnaire_dep</title>
<polygon fill="white" stroke="transparent" points="-4,4 -4,-359 1755,-359 1755,4 -4,4"/>
<!-- Node1 -->
<g id="node1" class="node">
<title>Node1</title>
<g id="a_node1"><a xlink:title="classe Ch_front_var_instationnaire_dep Cette classe abstraite represente un champ sur une frontiere,...">
<polygon fill="#bfbfbf" stroke="black" points="790,-183.5 790,-202.5 965,-202.5 965,-183.5 790,-183.5"/>
<text text-anchor="middle" x="877.5" y="-190.5" font-family="Helvetica,sans-Serif" font-size="10.00">Ch_front_var_instationnaire_dep</text>
</a>
</g>
</g>
<!-- Node9 -->
<g id="node9" class="node">
<title>Node9</title>
<g id="a_node9"><a xlink:href="classCh__front__input.html" target="_top" xlink:title="class Ch_front_input Cette classe represente un champ accessible par setInputField defini sur une fro...">
<polygon fill="white" stroke="black" points="1029.5,-335.5 1029.5,-354.5 1117.5,-354.5 1117.5,-335.5 1029.5,-335.5"/>
<text text-anchor="middle" x="1073.5" y="-342.5" font-family="Helvetica,sans-Serif" font-size="10.00">Ch_front_input</text>
</a>
</g>
</g>
<!-- Node1&#45;&gt;Node9 -->
<g id="edge8" class="edge">
<title>Node1&#45;&gt;Node9</title>
<path fill="none" stroke="midnightblue" d="M890.33,-211.48C909.82,-240.39 951.5,-296.12 1001,-326 1009.58,-331.18 1019.56,-334.96 1029.31,-337.73"/>
<polygon fill="midnightblue" stroke="midnightblue" points="893.02,-209.19 884.59,-202.77 887.17,-213.05 893.02,-209.19"/>
</g>
<!-- Node11 -->
<g id="node11" class="node">
<title>Node11</title>
<g id="a_node11"><a xlink:href="classChamp__Front__Fonction.html" target="_top" xlink:title="Classe Champ_Front_Fonction Classe derivee de Champ_front_var_instationnaire_dep qui represente les c...">
<polygon fill="white" stroke="black" points="1009.5,-297.5 1009.5,-316.5 1137.5,-316.5 1137.5,-297.5 1009.5,-297.5"/>
<text text-anchor="middle" x="1073.5" y="-304.5" font-family="Helvetica,sans-Serif" font-size="10.00">Champ_Front_Fonction</text>
</a>
</g>
</g>
<!-- Node1&#45;&gt;Node11 -->
<g id="edge10" class="edge">
<title>Node1&#45;&gt;Node11</title>
<path fill="none" stroke="midnightblue" d="M895.36,-209.72C917.68,-230.94 959.11,-267.26 1001,-288 1008.71,-291.82 1017.29,-294.94 1025.74,-297.47"/>
<polygon fill="midnightblue" stroke="midnightblue" points="897.66,-207.08 888.04,-202.65 892.8,-212.11 897.66,-207.08"/>
</g>
<!-- Node12 -->
<g id="node12" class="node">
<title>Node12</title>
<g id="a_node12"><a xlink:href="classChamp__front__calc.html" target="_top" xlink:title="classe Champ_front_calc Classe derivee de Champ_front_var qui represente les champs a la frontiere ob...">
<polygon fill="white" stroke="black" points="1021.5,-259.5 1021.5,-278.5 1125.5,-278.5 1125.5,-259.5 1021.5,-259.5"/>
<text text-anchor="middle" x="1073.5" y="-266.5" font-family="Helvetica,sans-Serif" font-size="10.00">Champ_front_calc</text>
</a>
</g>
</g>
<!-- Node1&#45;&gt;Node12 -->
<g id="edge11" class="edge">
<title>Node1&#45;&gt;Node12</title>
<path fill="none" stroke="midnightblue" d="M905.36,-207.17C929.8,-219.66 967.12,-237.73 1001,-250 1010.78,-253.54 1021.53,-256.75 1031.66,-259.47"/>
<polygon fill="midnightblue" stroke="midnightblue" points="906.83,-203.99 896.34,-202.52 903.62,-210.21 906.83,-203.99"/>
</g>
<!-- Node14 -->
<g id="node14" class="node">
<title>Node14</title>
<g id="a_node14"><a xlink:href="classChamp__front__contact__VEF.html" target="_top" xlink:title="classe Champ_front_contact_VEF Permet le couplage scalaire (temperature ou concentration) entre probl...">
<polygon fill="white" stroke="black" points="1001,-221.5 1001,-240.5 1146,-240.5 1146,-221.5 1001,-221.5"/>
<text text-anchor="middle" x="1073.5" y="-228.5" font-family="Helvetica,sans-Serif" font-size="10.00">Champ_front_contact_VEF</text>
</a>
</g>
</g>
<!-- Node1&#45;&gt;Node14 -->
<g id="edge13" class="edge">
<title>Node1&#45;&gt;Node14</title>
<path fill="none" stroke="midnightblue" d="M937.41,-204.54C965.08,-209.96 997.66,-216.34 1023.9,-221.48"/>
<polygon fill="midnightblue" stroke="midnightblue" points="937.94,-201.08 927.45,-202.59 936.6,-207.95 937.94,-201.08"/>
</g>
<!-- Node16 -->
<g id="node16" class="node">
<title>Node16</title>
<g id="a_node16"><a xlink:href="classChamp__front__normal.html" target="_top" xlink:title="class Champ_front_normal">
<polygon fill="white" stroke="black" points="1014,-183.5 1014,-202.5 1133,-202.5 1133,-183.5 1014,-183.5"/>
<text text-anchor="middle" x="1073.5" y="-190.5" font-family="Helvetica,sans-Serif" font-size="10.00">Champ_front_normal</text>
</a>
</g>
</g>
<!-- Node1&#45;&gt;Node16 -->
<g id="edge15" class="edge">
<title>Node1&#45;&gt;Node16</title>
<path fill="none" stroke="midnightblue" d="M975.14,-193C988.41,-193 1001.69,-193 1013.99,-193"/>
<polygon fill="midnightblue" stroke="midnightblue" points="975,-189.5 965,-193 975,-196.5 975,-189.5"/>
</g>
<!-- Node22 -->
<g id="node22" class="node">
<title>Node22</title>
<g id="a_node22"><a xlink:href="classChamp__front__pression__from__u.html" target="_top" xlink:title="class Champ_front_pression_from_u Classe derivee de Champ_front_base qui represente les champs aux fr...">
<polygon fill="white" stroke="black" points="1010.5,-134 1010.5,-164 1136.5,-164 1136.5,-134 1010.5,-134"/>
<text text-anchor="start" x="1018.5" y="-152" font-family="Helvetica,sans-Serif" font-size="10.00">Champ_front_pression</text>
<text text-anchor="middle" x="1073.5" y="-141" font-family="Helvetica,sans-Serif" font-size="10.00">_from_u</text>
</a>
</g>
</g>
<!-- Node1&#45;&gt;Node22 -->
<g id="edge21" class="edge">
<title>Node1&#45;&gt;Node22</title>
<path fill="none" stroke="midnightblue" d="M930.44,-181.22C954.98,-175.65 984.48,-168.96 1010.22,-163.13"/>
<polygon fill="midnightblue" stroke="midnightblue" points="929.57,-177.83 920.6,-183.45 931.12,-184.65 929.57,-177.83"/>
</g>
<!-- Node23 -->
<g id="node23" class="node">
<title>Node23</title>
<g id="a_node23"><a xlink:href="classChamp__front__recyclage.html" target="_top" xlink:title="classe Champ_front_recyclage delt_dist delt_dist pb1 &lt;&#45;&#45;&#45;&#45;&#45;&#45;&#45;—&gt; pb2 &lt;&#45;&#45;&#45;&#45;&#45;—&gt; pb ch_fr2 ch_fr ________...">
<polygon fill="white" stroke="black" points="1007.5,-95.5 1007.5,-114.5 1139.5,-114.5 1139.5,-95.5 1007.5,-95.5"/>
<text text-anchor="middle" x="1073.5" y="-102.5" font-family="Helvetica,sans-Serif" font-size="10.00">Champ_front_recyclage</text>
</a>
</g>
</g>
<!-- Node1&#45;&gt;Node23 -->
<g id="edge22" class="edge">
<title>Node1&#45;&gt;Node23</title>
<path fill="none" stroke="midnightblue" d="M901.3,-177.82C925.26,-162.44 964.47,-138.86 1001,-124 1010.04,-120.32 1020.02,-117.15 1029.57,-114.52"/>
<polygon fill="midnightblue" stroke="midnightblue" points="899.09,-175.09 892.61,-183.47 902.9,-180.96 899.09,-175.09"/>
</g>
<!-- Node24 -->
<g id="node24" class="node">
<title>Node24</title>
<g id="a_node24"><a xlink:href="classChamp__front__synt.html" target="_top" xlink:title="classe Champ_front_synt Classe derivee de Champ_front_base">
<polygon fill="white" stroke="black" points="1020.5,-57.5 1020.5,-76.5 1126.5,-76.5 1126.5,-57.5 1020.5,-57.5"/>
<text text-anchor="middle" x="1073.5" y="-64.5" font-family="Helvetica,sans-Serif" font-size="10.00">Champ_front_synt</text>
</a>
</g>
</g>
<!-- Node1&#45;&gt;Node24 -->
<g id="edge23" class="edge">
<title>Node1&#45;&gt;Node24</title>
<path fill="none" stroke="midnightblue" d="M893.32,-175.83C914.73,-152.12 956.62,-109.61 1001,-86 1008.26,-82.14 1016.35,-79.02 1024.42,-76.52"/>
<polygon fill="midnightblue" stroke="midnightblue" points="890.65,-173.57 886.64,-183.37 895.89,-178.21 890.65,-173.57"/>
</g>
<!-- Node25 -->
<g id="node25" class="node">
<title>Node25</title>
<g id="a_node25"><a xlink:href="classChamp__front__tangentiel.html" target="_top" xlink:title="class Champ_front_tangentiel">
<polygon fill="white" stroke="black" points="1006.5,-19.5 1006.5,-38.5 1140.5,-38.5 1140.5,-19.5 1006.5,-19.5"/>
<text text-anchor="middle" x="1073.5" y="-26.5" font-family="Helvetica,sans-Serif" font-size="10.00">Champ_front_tangentiel</text>
</a>
</g>
</g>
<!-- Node1&#45;&gt;Node25 -->
<g id="edge24" class="edge">
<title>Node1&#45;&gt;Node25</title>
<path fill="none" stroke="midnightblue" d="M888.85,-174.6C907.27,-143.6 948.74,-81.09 1001,-48 1007.08,-44.15 1013.92,-41.08 1020.89,-38.62"/>
<polygon fill="midnightblue" stroke="midnightblue" points="885.69,-173.08 883.7,-183.49 891.74,-176.59 885.69,-173.08"/>
</g>
<!-- Node2 -->
<g id="node2" class="node">
<title>Node2</title>
<g id="a_node2"><a xlink:href="classChamp__front__var__instationnaire.html" target="_top" xlink:title="classe Champ_front_var_instationnaire Classe derivee de Champ_front_var qui represente les champs aux...">
<polygon fill="white" stroke="black" points="581,-183.5 581,-202.5 754,-202.5 754,-183.5 581,-183.5"/>
<text text-anchor="middle" x="667.5" y="-190.5" font-family="Helvetica,sans-Serif" font-size="10.00">Champ_front_var_instationnaire</text>
</a>
</g>
</g>
<!-- Node2&#45;&gt;Node1 -->
<g id="edge1" class="edge">
<title>Node2&#45;&gt;Node1</title>
<path fill="none" stroke="midnightblue" d="M764.09,-193C772.72,-193 781.43,-193 789.98,-193"/>
<polygon fill="midnightblue" stroke="midnightblue" points="764,-189.5 754,-193 764,-196.5 764,-189.5"/>
</g>
<!-- Node3 -->
<g id="node3" class="node">
<title>Node3</title>
<g id="a_node3"><a xlink:href="classChamp__front__var.html" target="_top" xlink:title="classe Champ_front_var Classe derivee de Champ_front_base qui represente un champ sur une frontiere v...">
<polygon fill="white" stroke="black" points="444,-183.5 444,-202.5 545,-202.5 545,-183.5 444,-183.5"/>
<text text-anchor="middle" x="494.5" y="-190.5" font-family="Helvetica,sans-Serif" font-size="10.00">Champ_front_var</text>
</a>
</g>
</g>
<!-- Node3&#45;&gt;Node2 -->
<g id="edge2" class="edge">
<title>Node3&#45;&gt;Node2</title>
<path fill="none" stroke="midnightblue" d="M555.57,-193C563.76,-193 572.28,-193 580.81,-193"/>
<polygon fill="midnightblue" stroke="midnightblue" points="555.42,-189.5 545.42,-193 555.42,-196.5 555.42,-189.5"/>
</g>
<!-- Node4 -->
<g id="node4" class="node">
<title>Node4</title>
<g id="a_node4"><a xlink:href="classChamp__front__base.html" target="_top" xlink:title="classe Champ_front_base Classe de base pour la hierarchie des champs aux frontieres....">
<polygon fill="white" stroke="black" points="300,-183.5 300,-202.5 408,-202.5 408,-183.5 300,-183.5"/>
<text text-anchor="middle" x="354" y="-190.5" font-family="Helvetica,sans-Serif" font-size="10.00">Champ_front_base</text>
</a>
</g>
</g>
<!-- Node4&#45;&gt;Node3 -->
<g id="edge3" class="edge">
<title>Node4&#45;&gt;Node3</title>
<path fill="none" stroke="midnightblue" d="M418.19,-193C426.81,-193 435.56,-193 443.9,-193"/>
<polygon fill="midnightblue" stroke="midnightblue" points="418.15,-189.5 408.15,-193 418.15,-196.5 418.15,-189.5"/>
</g>
<!-- Node5 -->
<g id="node5" class="node">
<title>Node5</title>
<g id="a_node5"><a xlink:href="classField__base.html" target="_top" xlink:title=" ">
<polygon fill="white" stroke="black" points="189,-202.5 189,-221.5 257,-221.5 257,-202.5 189,-202.5"/>
<text text-anchor="middle" x="223" y="-209.5" font-family="Helvetica,sans-Serif" font-size="10.00">Field_base</text>
</a>
</g>
</g>
<!-- Node5&#45;&gt;Node4 -->
<g id="edge4" class="edge">
<title>Node5&#45;&gt;Node4</title>
<path fill="none" stroke="midnightblue" d="M267.33,-205.62C277.77,-204.08 289.04,-202.42 299.87,-200.83"/>
<polygon fill="midnightblue" stroke="midnightblue" points="266.6,-202.19 257.22,-207.11 267.62,-209.11 266.6,-202.19"/>
</g>
<!-- Node6 -->
<g id="node6" class="node">
<title>Node6</title>
<g id="a_node6"><a xlink:href="classObjet__U.html" target="_top" xlink:title="classe Objet_U Cette classe est la classe de base des Objets de TRUST Dans les classes derivees de Ob...">
<polygon fill="white" stroke="black" points="90,-202.5 90,-221.5 146,-221.5 146,-202.5 90,-202.5"/>
<text text-anchor="middle" x="118" y="-209.5" font-family="Helvetica,sans-Serif" font-size="10.00">Objet_U</text>
</a>
</g>
</g>
<!-- Node6&#45;&gt;Node5 -->
<g id="edge5" class="edge">
<title>Node6&#45;&gt;Node5</title>
<path fill="none" stroke="midnightblue" d="M156.34,-212C166.98,-212 178.5,-212 188.87,-212"/>
<polygon fill="midnightblue" stroke="midnightblue" points="156.06,-208.5 146.06,-212 156.06,-215.5 156.06,-208.5"/>
</g>
<!-- Node7 -->
<g id="node7" class="node">
<title>Node7</title>
<g id="a_node7"><a xlink:href="classProcess.html" target="_top" xlink:title="Classe de base de TRUST (notamment Objet_U). Elle fournit quelques services de base accessibles de pa...">
<polygon fill="white" stroke="black" points="0,-202.5 0,-221.5 54,-221.5 54,-202.5 0,-202.5"/>
<text text-anchor="middle" x="27" y="-209.5" font-family="Helvetica,sans-Serif" font-size="10.00">Process</text>
</a>
</g>
</g>
<!-- Node7&#45;&gt;Node6 -->
<g id="edge6" class="edge">
<title>Node7&#45;&gt;Node6</title>
<path fill="none" stroke="midnightblue" d="M64.29,-212C72.79,-212 81.7,-212 89.73,-212"/>
<polygon fill="midnightblue" stroke="midnightblue" points="64.22,-208.5 54.22,-212 64.22,-215.5 64.22,-208.5"/>
</g>
<!-- Node8 -->
<g id="node8" class="node">
<title>Node8</title>
<g id="a_node8"><a xlink:href="classChamp__Proto.html" target="_top" xlink:title="classe Champ_Proto Classe representant un prototype de Champ. Tous les classes representant des champ...">
<polygon fill="white" stroke="black" points="182,-164.5 182,-183.5 264,-183.5 264,-164.5 182,-164.5"/>
<text text-anchor="middle" x="223" y="-171.5" font-family="Helvetica,sans-Serif" font-size="10.00">Champ_Proto</text>
</a>
</g>
</g>
<!-- Node8&#45;&gt;Node4 -->
<g id="edge7" class="edge">
<title>Node8&#45;&gt;Node4</title>
<path fill="none" stroke="midnightblue" d="M274.11,-181.38C282.48,-182.61 291.19,-183.9 299.63,-185.14"/>
<polygon fill="midnightblue" stroke="midnightblue" points="274.51,-177.9 264.11,-179.91 273.49,-184.83 274.51,-177.9"/>
</g>
<!-- Node10 -->
<g id="node10" class="node">
<title>Node10</title>
<g id="a_node10"><a xlink:href="classCh__front__input__P1.html" target="_top" xlink:title="class Ch_front_input Cette classe represente un champ accessible par setInputField defini sur une fro...">
<polygon fill="white" stroke="black" points="1208.5,-335.5 1208.5,-354.5 1313.5,-354.5 1313.5,-335.5 1208.5,-335.5"/>
<text text-anchor="middle" x="1261" y="-342.5" font-family="Helvetica,sans-Serif" font-size="10.00">Ch_front_input_P1</text>
</a>
</g>
</g>
<!-- Node9&#45;&gt;Node10 -->
<g id="edge9" class="edge">
<title>Node9&#45;&gt;Node10</title>
<path fill="none" stroke="midnightblue" d="M1127.69,-345C1153.01,-345 1183.17,-345 1208.3,-345"/>
<polygon fill="midnightblue" stroke="midnightblue" points="1127.52,-341.5 1117.52,-345 1127.52,-348.5 1127.52,-341.5"/>
</g>
<!-- Node13 -->
<g id="node13" class="node">
<title>Node13</title>
<g id="a_node13"><a xlink:href="classChamp__front__calc__interne.html" target="_top" xlink:title="classe Champ_front_calc_interne Classe derivee de Champ_front_calc qui represente le transfert d&#39;un c...">
<polygon fill="white" stroke="black" points="1189,-268.5 1189,-287.5 1333,-287.5 1333,-268.5 1189,-268.5"/>
<text text-anchor="middle" x="1261" y="-275.5" font-family="Helvetica,sans-Serif" font-size="10.00">Champ_front_calc_interne</text>
</a>
</g>
</g>
<!-- Node12&#45;&gt;Node13 -->
<g id="edge12" class="edge">
<title>Node12&#45;&gt;Node13</title>
<path fill="none" stroke="midnightblue" d="M1135.99,-271.98C1152.92,-272.8 1171.43,-273.7 1188.85,-274.55"/>
<polygon fill="midnightblue" stroke="midnightblue" points="1135.84,-268.47 1125.68,-271.48 1135.5,-275.46 1135.84,-268.47"/>
</g>
<!-- Node15 -->
<g id="node15" class="node">
<title>Node15</title>
<g id="a_node15"><a xlink:href="classChamp__front__contact__fictif__VEF.html" target="_top" xlink:title="classe Champ_front_contact_fictif_VEF Classe derivee de Champ_front_contact_VEF elle&#45;meme derivant de...">
<polygon fill="white" stroke="black" points="1200.5,-219 1200.5,-249 1321.5,-249 1321.5,-219 1200.5,-219"/>
<text text-anchor="start" x="1208.5" y="-237" font-family="Helvetica,sans-Serif" font-size="10.00">Champ_front_contact</text>
<text text-anchor="middle" x="1261" y="-226" font-family="Helvetica,sans-Serif" font-size="10.00">_fictif_VEF</text>
</a>
</g>
</g>
<!-- Node14&#45;&gt;Node15 -->
<g id="edge14" class="edge">
<title>Node14&#45;&gt;Node15</title>
<path fill="none" stroke="midnightblue" d="M1156.41,-232.32C1171.24,-232.56 1186.45,-232.81 1200.49,-233.04"/>
<polygon fill="midnightblue" stroke="midnightblue" points="1156.27,-228.82 1146.22,-232.16 1156.16,-235.82 1156.27,-228.82"/>
</g>
<!-- Node17 -->
<g id="node17" class="node">
<title>Node17</title>
<g id="a_node17"><a xlink:href="classBoundary__field__inward.html" target="_top" xlink:title="class Boundary_field_inward">
<polygon fill="white" stroke="black" points="1197,-180.5 1197,-199.5 1325,-199.5 1325,-180.5 1197,-180.5"/>
<text text-anchor="middle" x="1261" y="-187.5" font-family="Helvetica,sans-Serif" font-size="10.00">Boundary_field_inward</text>
</a>
</g>
</g>
<!-- Node16&#45;&gt;Node17 -->
<g id="edge16" class="edge">
<title>Node16&#45;&gt;Node17</title>
<path fill="none" stroke="midnightblue" d="M1143.35,-191.89C1160.89,-191.6 1179.64,-191.3 1196.87,-191.02"/>
<polygon fill="midnightblue" stroke="midnightblue" points="1143.14,-188.39 1133.19,-192.05 1143.25,-195.39 1143.14,-188.39"/>
</g>
<!-- Node19 -->
<g id="node19" class="node">
<title>Node19</title>
<g id="a_node19"><a xlink:href="classChamp__front__xyz__debit.html" target="_top" xlink:title="class Champ_front_xyz_debit">
<polygon fill="white" stroke="black" points="1195,-142.5 1195,-161.5 1327,-161.5 1327,-142.5 1195,-142.5"/>
<text text-anchor="middle" x="1261" y="-149.5" font-family="Helvetica,sans-Serif" font-size="10.00">Champ_front_xyz_debit</text>
</a>
</g>
</g>
<!-- Node16&#45;&gt;Node19 -->
<g id="edge18" class="edge">
<title>Node16&#45;&gt;Node19</title>
<path fill="none" stroke="midnightblue" d="M1127.65,-181.25C1155.94,-175 1190.28,-167.41 1216.89,-161.53"/>
<polygon fill="midnightblue" stroke="midnightblue" points="1126.53,-177.91 1117.52,-183.49 1128.04,-184.75 1126.53,-177.91"/>
</g>
<!-- Node18 -->
<g id="node18" class="node">
<title>Node18</title>
<g id="a_node18"><a xlink:href="classChamp__front__normal__VEF.html" target="_top" xlink:title=" ">
<polygon fill="white" stroke="black" points="1393,-180.5 1393,-199.5 1536,-199.5 1536,-180.5 1393,-180.5"/>
<text text-anchor="middle" x="1464.5" y="-187.5" font-family="Helvetica,sans-Serif" font-size="10.00">Champ_front_normal_VEF</text>
</a>
</g>
</g>
<!-- Node17&#45;&gt;Node18 -->
<g id="edge17" class="edge">
<title>Node17&#45;&gt;Node18</title>
<path fill="none" stroke="midnightblue" d="M1335.44,-190C1354.16,-190 1374.23,-190 1392.81,-190"/>
<polygon fill="midnightblue" stroke="midnightblue" points="1335.2,-186.5 1325.2,-190 1335.2,-193.5 1335.2,-186.5"/>
</g>
<!-- Node20 -->
<g id="node20" class="node">
<title>Node20</title>
<g id="a_node20"><a xlink:href="classChamp__front__debit.html" target="_top" xlink:title="class Champ_front_debit Classe derivee de Champ_front_base qui represente les champs aux frontieres n...">
<polygon fill="white" stroke="black" points="1409.5,-142.5 1409.5,-161.5 1519.5,-161.5 1519.5,-142.5 1409.5,-142.5"/>
<text text-anchor="middle" x="1464.5" y="-149.5" font-family="Helvetica,sans-Serif" font-size="10.00">Champ_front_debit</text>
</a>
</g>
</g>
<!-- Node19&#45;&gt;Node20 -->
<g id="edge19" class="edge">
<title>Node19&#45;&gt;Node20</title>
<path fill="none" stroke="midnightblue" d="M1337.26,-152C1361.21,-152 1387.22,-152 1409.37,-152"/>
<polygon fill="midnightblue" stroke="midnightblue" points="1337.14,-148.5 1327.14,-152 1337.14,-155.5 1337.14,-148.5"/>
</g>
<!-- Node21 -->
<g id="node21" class="node">
<title>Node21</title>
<g id="a_node21"><a xlink:href="classChamp__front__debit__massique.html" target="_top" xlink:title="class Champ_front_debit_massique Classe derivee de Champ_front_debit pour les amateurs de kg/s">
<polygon fill="white" stroke="black" points="1589,-142.5 1589,-161.5 1751,-161.5 1751,-142.5 1589,-142.5"/>
<text text-anchor="middle" x="1670" y="-149.5" font-family="Helvetica,sans-Serif" font-size="10.00">Champ_front_debit_massique</text>
</a>
</g>
</g>
<!-- Node20&#45;&gt;Node21 -->
<g id="edge20" class="edge">
<title>Node20&#45;&gt;Node21</title>
<path fill="none" stroke="midnightblue" d="M1529.94,-152C1548.65,-152 1569.32,-152 1588.87,-152"/>
<polygon fill="midnightblue" stroke="midnightblue" points="1529.77,-148.5 1519.77,-152 1529.77,-155.5 1529.77,-148.5"/>
</g>
<!-- Node26 -->
<g id="node26" class="node">
<title>Node26</title>
<g id="a_node26"><a xlink:href="classChamp__front__fonc__gradient.html" target="_top" xlink:title="class Champ_front_fonc_gradient Classe derivee de Champ_front_base">
<polygon fill="white" stroke="black" points="1185,-38.5 1185,-57.5 1337,-57.5 1337,-38.5 1185,-38.5"/>
<text text-anchor="middle" x="1261" y="-45.5" font-family="Helvetica,sans-Serif" font-size="10.00">Champ_front_fonc_gradient</text>
</a>
</g>
</g>
<!-- Node25&#45;&gt;Node26 -->
<g id="edge25" class="edge">
<title>Node25&#45;&gt;Node26</title>
<path fill="none" stroke="midnightblue" d="M1150.84,-36.82C1162.02,-37.96 1173.52,-39.14 1184.68,-40.29"/>
<polygon fill="midnightblue" stroke="midnightblue" points="1150.99,-33.32 1140.68,-35.78 1150.28,-40.28 1150.99,-33.32"/>
</g>
<!-- Node29 -->
<g id="node29" class="node">
<title>Node29</title>
<g id="a_node29"><a xlink:href="classChamp__front__tangentiel__VEF.html" target="_top" xlink:title="class Champ_front_tangentiel_VEF Classe derivee de Champ_front_base qui represente les champs aux fro...">
<polygon fill="white" stroke="black" points="1182,-0.5 1182,-19.5 1340,-19.5 1340,-0.5 1182,-0.5"/>
<text text-anchor="middle" x="1261" y="-7.5" font-family="Helvetica,sans-Serif" font-size="10.00">Champ_front_tangentiel_VEF</text>
</a>
</g>
</g>
<!-- Node25&#45;&gt;Node29 -->
<g id="edge28" class="edge">
<title>Node25&#45;&gt;Node29</title>
<path fill="none" stroke="midnightblue" d="M1150.8,-21.18C1161.03,-20.14 1171.54,-19.06 1181.8,-18.01"/>
<polygon fill="midnightblue" stroke="midnightblue" points="1150.28,-17.72 1140.68,-22.22 1150.99,-24.68 1150.28,-17.72"/>
</g>
<!-- Node27 -->
<g id="node27" class="node">
<title>Node27</title>
<g id="a_node27"><a xlink:href="classChamp__front__fonc__gradient__VDF.html" target="_top" xlink:title="class Champ_front_fonc_gradient_VDF Classe derivee de Champ_front_base">
<polygon fill="white" stroke="black" points="1376,-57.5 1376,-76.5 1553,-76.5 1553,-57.5 1376,-57.5"/>
<text text-anchor="middle" x="1464.5" y="-64.5" font-family="Helvetica,sans-Serif" font-size="10.00">Champ_front_fonc_gradient_VDF</text>
</a>
</g>
</g>
<!-- Node26&#45;&gt;Node27 -->
<g id="edge26" class="edge">
<title>Node26&#45;&gt;Node27</title>
<path fill="none" stroke="midnightblue" d="M1347.21,-56.03C1356.68,-56.93 1366.33,-57.84 1375.83,-58.73"/>
<polygon fill="midnightblue" stroke="midnightblue" points="1347.32,-52.53 1337.03,-55.07 1346.66,-59.5 1347.32,-52.53"/>
</g>
<!-- Node28 -->
<g id="node28" class="node">
<title>Node28</title>
<g id="a_node28"><a xlink:href="classChamp__front__fonc__gradient__VEF.html" target="_top" xlink:title="class Champ_front_fonc_gradient_VEF Classe derivee de Champ_front_base">
<polygon fill="white" stroke="black" points="1376.5,-19.5 1376.5,-38.5 1552.5,-38.5 1552.5,-19.5 1376.5,-19.5"/>
<text text-anchor="middle" x="1464.5" y="-26.5" font-family="Helvetica,sans-Serif" font-size="10.00">Champ_front_fonc_gradient_VEF</text>
</a>
</g>
</g>
<!-- Node26&#45;&gt;Node28 -->
<g id="edge27" class="edge">
<title>Node26&#45;&gt;Node28</title>
<path fill="none" stroke="midnightblue" d="M1347,-39.99C1356.65,-39.08 1366.49,-38.15 1376.17,-37.23"/>
<polygon fill="midnightblue" stroke="midnightblue" points="1346.66,-36.5 1337.03,-40.93 1347.32,-43.47 1346.66,-36.5"/>
</g>
</g>
</svg>
