<?xml version="1.0" encoding="UTF-8" standalone="no"?>
<!DOCTYPE svg PUBLIC "-//W3C//DTD SVG 1.1//EN"
 "http://www.w3.org/Graphics/SVG/1.1/DTD/svg11.dtd">
<!-- Generated by graphviz version 2.43.0 (0)
 -->
<!-- Title: Champ_front_debit_QC_fonc_t Pages: 1 -->
<svg width="183pt" height="442pt"
 viewBox="0.00 0.00 182.50 442.00" xmlns="http://www.w3.org/2000/svg" xmlns:xlink="http://www.w3.org/1999/xlink">
<g id="graph0" class="graph" transform="scale(1 1) rotate(0) translate(4 438)">
<title>Champ_front_debit_QC_fonc_t</title>
<polygon fill="white" stroke="transparent" points="-4,4 -4,-438 178.5,-438 178.5,4 -4,4"/>
<!-- Node1 -->
<g id="node1" class="node">
<title>Node1</title>
<g id="a_node1"><a xlink:title="classe Champ_front_debit_QC_fonc_t Classe derivee de Champ_front_base qui represente les champs aux f...">
<polygon fill="#bfbfbf" stroke="black" points="22,-0.5 22,-30.5 151,-30.5 151,-0.5 22,-0.5"/>
<text text-anchor="start" x="30" y="-18.5" font-family="Helvetica,sans-Serif" font-size="10.00">Champ_front_debit_QC</text>
<text text-anchor="middle" x="86.5" y="-7.5" font-family="Helvetica,sans-Serif" font-size="10.00">_fonc_t</text>
</a>
</g>
</g>
<!-- Node2 -->
<g id="node2" class="node">
<title>Node2</title>
<g id="a_node2"><a xlink:href="classCh__front__var__instationnaire__indep.html" target="_top" xlink:title="classe Ch_front_var_instationnaire_indep Cette classe abstraite represente un champ sur une frontiere...">
<polygon fill="white" stroke="black" points="10.5,-67.5 10.5,-97.5 162.5,-97.5 162.5,-67.5 10.5,-67.5"/>
<text text-anchor="start" x="18.5" y="-85.5" font-family="Helvetica,sans-Serif" font-size="10.00">Ch_front_var_instationnaire</text>
<text text-anchor="middle" x="86.5" y="-74.5" font-family="Helvetica,sans-Serif" font-size="10.00">_indep</text>
</a>
</g>
</g>
<!-- Node2&#45;&gt;Node1 -->
<g id="edge1" class="edge">
<title>Node2&#45;&gt;Node1</title>
<path fill="none" stroke="midnightblue" d="M86.5,-57.11C86.5,-48.15 86.5,-38.32 86.5,-30.58"/>
<polygon fill="midnightblue" stroke="midnightblue" points="83,-57.4 86.5,-67.4 90,-57.4 83,-57.4"/>
</g>
<!-- Node3 -->
<g id="node3" class="node">
<title>Node3</title>
<g id="a_node3"><a xlink:href="classChamp__front__var__instationnaire.html" target="_top" xlink:title="classe Champ_front_var_instationnaire Classe derivee de Champ_front_var qui represente les champs aux...">
<polygon fill="white" stroke="black" points="0,-134.5 0,-153.5 173,-153.5 173,-134.5 0,-134.5"/>
<text text-anchor="middle" x="86.5" y="-141.5" font-family="Helvetica,sans-Serif" font-size="10.00">Champ_front_var_instationnaire</text>
</a>
</g>
</g>
<!-- Node3&#45;&gt;Node2 -->
<g id="edge2" class="edge">
<title>Node3&#45;&gt;Node2</title>
<path fill="none" stroke="midnightblue" d="M86.5,-124.23C86.5,-115.59 86.5,-105.5 86.5,-97.52"/>
<polygon fill="midnightblue" stroke="midnightblue" points="83,-124.48 86.5,-134.48 90,-124.48 83,-124.48"/>
</g>
<!-- Node4 -->
<g id="node4" class="node">
<title>Node4</title>
<g id="a_node4"><a xlink:href="classChamp__front__var.html" target="_top" xlink:title="classe Champ_front_var Classe derivee de Champ_front_base qui represente un champ sur une frontiere v...">
<polygon fill="white" stroke="black" points="36,-190.5 36,-209.5 137,-209.5 137,-190.5 36,-190.5"/>
<text text-anchor="middle" x="86.5" y="-197.5" font-family="Helvetica,sans-Serif" font-size="10.00">Champ_front_var</text>
</a>
</g>
</g>
<!-- Node4&#45;&gt;Node3 -->
<g id="edge3" class="edge">
<title>Node4&#45;&gt;Node3</title>
<path fill="none" stroke="midnightblue" d="M86.5,-179.8C86.5,-170.91 86.5,-160.78 86.5,-153.75"/>
<polygon fill="midnightblue" stroke="midnightblue" points="83,-180.08 86.5,-190.08 90,-180.08 83,-180.08"/>
</g>
<!-- Node5 -->
<g id="node5" class="node">
<title>Node5</title>
<g id="a_node5"><a xlink:href="classChamp__front__base.html" target="_top" xlink:title="classe Champ_front_base Classe de base pour la hierarchie des champs aux frontieres....">
<polygon fill="white" stroke="black" points="32.5,-246.5 32.5,-265.5 140.5,-265.5 140.5,-246.5 32.5,-246.5"/>
<text text-anchor="middle" x="86.5" y="-253.5" font-family="Helvetica,sans-Serif" font-size="10.00">Champ_front_base</text>
</a>
</g>
</g>
<!-- Node5&#45;&gt;Node4 -->
<g id="edge4" class="edge">
<title>Node5&#45;&gt;Node4</title>
<path fill="none" stroke="midnightblue" d="M86.5,-235.8C86.5,-226.91 86.5,-216.78 86.5,-209.75"/>
<polygon fill="midnightblue" stroke="midnightblue" points="83,-236.08 86.5,-246.08 90,-236.08 83,-236.08"/>
</g>
<!-- Node6 -->
<g id="node6" class="node">
<title>Node6</title>
<g id="a_node6"><a xlink:href="classField__base.html" target="_top" xlink:title=" ">
<polygon fill="white" stroke="black" points="6.5,-302.5 6.5,-321.5 74.5,-321.5 74.5,-302.5 6.5,-302.5"/>
<text text-anchor="middle" x="40.5" y="-309.5" font-family="Helvetica,sans-Serif" font-size="10.00">Field_base</text>
</a>
</g>
</g>
<!-- Node6&#45;&gt;Node5 -->
<g id="edge5" class="edge">
<title>Node6&#45;&gt;Node5</title>
<path fill="none" stroke="midnightblue" d="M54.61,-294.43C62.68,-284.97 72.46,-273.48 79.05,-265.75"/>
<polygon fill="midnightblue" stroke="midnightblue" points="51.92,-292.2 48.1,-302.08 57.25,-296.74 51.92,-292.2"/>
</g>
<!-- Node7 -->
<g id="node7" class="node">
<title>Node7</title>
<g id="a_node7"><a xlink:href="classObjet__U.html" target="_top" xlink:title="classe Objet_U Cette classe est la classe de base des Objets de TRUST Dans les classes derivees de Ob...">
<polygon fill="white" stroke="black" points="12.5,-358.5 12.5,-377.5 68.5,-377.5 68.5,-358.5 12.5,-358.5"/>
<text text-anchor="middle" x="40.5" y="-365.5" font-family="Helvetica,sans-Serif" font-size="10.00">Objet_U</text>
</a>
</g>
</g>
<!-- Node7&#45;&gt;Node6 -->
<g id="edge6" class="edge">
<title>Node7&#45;&gt;Node6</title>
<path fill="none" stroke="midnightblue" d="M40.5,-347.8C40.5,-338.91 40.5,-328.78 40.5,-321.75"/>
<polygon fill="midnightblue" stroke="midnightblue" points="37,-348.08 40.5,-358.08 44,-348.08 37,-348.08"/>
</g>
<!-- Node8 -->
<g id="node8" class="node">
<title>Node8</title>
<g id="a_node8"><a xlink:href="classProcess.html" target="_top" xlink:title="Classe de base de TRUST (notamment Objet_U). Elle fournit quelques services de base accessibles de pa...">
<polygon fill="white" stroke="black" points="13.5,-414.5 13.5,-433.5 67.5,-433.5 67.5,-414.5 13.5,-414.5"/>
<text text-anchor="middle" x="40.5" y="-421.5" font-family="Helvetica,sans-Serif" font-size="10.00">Process</text>
</a>
</g>
</g>
<!-- Node8&#45;&gt;Node7 -->
<g id="edge7" class="edge">
<title>Node8&#45;&gt;Node7</title>
<path fill="none" stroke="midnightblue" d="M40.5,-403.8C40.5,-394.91 40.5,-384.78 40.5,-377.75"/>
<polygon fill="midnightblue" stroke="midnightblue" points="37,-404.08 40.5,-414.08 44,-404.08 37,-404.08"/>
</g>
<!-- Node9 -->
<g id="node9" class="node">
<title>Node9</title>
<g id="a_node9"><a xlink:href="classChamp__Proto.html" target="_top" xlink:title="classe Champ_Proto Classe representant un prototype de Champ. Tous les classes representant des champ...">
<polygon fill="white" stroke="black" points="92.5,-302.5 92.5,-321.5 174.5,-321.5 174.5,-302.5 92.5,-302.5"/>
<text text-anchor="middle" x="133.5" y="-309.5" font-family="Helvetica,sans-Serif" font-size="10.00">Champ_Proto</text>
</a>
</g>
</g>
<!-- Node9&#45;&gt;Node5 -->
<g id="edge8" class="edge">
<title>Node9&#45;&gt;Node5</title>
<path fill="none" stroke="midnightblue" d="M119.08,-294.43C110.84,-284.97 100.85,-273.48 94.12,-265.75"/>
<polygon fill="midnightblue" stroke="midnightblue" points="116.53,-296.84 125.74,-302.08 121.81,-292.24 116.53,-296.84"/>
</g>
</g>
</svg>
