<?xml version="1.0" encoding="UTF-8" standalone="no"?>
<!DOCTYPE svg PUBLIC "-//W3C//DTD SVG 1.1//EN"
 "http://www.w3.org/Graphics/SVG/1.1/DTD/svg11.dtd">
<!-- Generated by graphviz version 2.43.0 (0)
 -->
<!-- Title: Assembleur_P_PolyMAC_P0 Pages: 1 -->
<svg width="160pt" height="252pt"
 viewBox="0.00 0.00 160.00 252.00" xmlns="http://www.w3.org/2000/svg" xmlns:xlink="http://www.w3.org/1999/xlink">
<g id="graph0" class="graph" transform="scale(1 1) rotate(0) translate(4 248)">
<title>Assembleur_P_PolyMAC_P0</title>
<polygon fill="white" stroke="transparent" points="-4,4 -4,-248 156,-248 156,4 -4,4"/>
<!-- Node1 -->
<g id="node1" class="node">
<title>Node1</title>
<g id="a_node1"><a xlink:title=" ">
<polygon fill="#bfbfbf" stroke="black" points="0,-0.5 0,-19.5 152,-19.5 152,-0.5 0,-0.5"/>
<text text-anchor="middle" x="76" y="-7.5" font-family="Helvetica,sans-Serif" font-size="10.00">Assembleur_P_PolyMAC_P0</text>
</a>
</g>
</g>
<!-- Node2 -->
<g id="node2" class="node">
<title>Node2</title>
<g id="a_node2"><a xlink:href="classAssembleur__P__PolyMAC.html" target="_top" xlink:title=" ">
<polygon fill="white" stroke="black" points="9,-56.5 9,-75.5 143,-75.5 143,-56.5 9,-56.5"/>
<text text-anchor="middle" x="76" y="-63.5" font-family="Helvetica,sans-Serif" font-size="10.00">Assembleur_P_PolyMAC</text>
</a>
</g>
</g>
<!-- Node2&#45;&gt;Node1 -->
<g id="edge1" class="edge">
<title>Node2&#45;&gt;Node1</title>
<path fill="none" stroke="midnightblue" d="M76,-45.8C76,-36.91 76,-26.78 76,-19.75"/>
<polygon fill="midnightblue" stroke="midnightblue" points="72.5,-46.08 76,-56.08 79.5,-46.08 72.5,-46.08"/>
</g>
<!-- Node3 -->
<g id="node3" class="node">
<title>Node3</title>
<g id="a_node3"><a xlink:href="classAssembleur__base.html" target="_top" xlink:title=" ">
<polygon fill="white" stroke="black" points="24.5,-112.5 24.5,-131.5 127.5,-131.5 127.5,-112.5 24.5,-112.5"/>
<text text-anchor="middle" x="76" y="-119.5" font-family="Helvetica,sans-Serif" font-size="10.00">Assembleur_base</text>
</a>
</g>
</g>
<!-- Node3&#45;&gt;Node2 -->
<g id="edge2" class="edge">
<title>Node3&#45;&gt;Node2</title>
<path fill="none" stroke="midnightblue" d="M76,-101.8C76,-92.91 76,-82.78 76,-75.75"/>
<polygon fill="midnightblue" stroke="midnightblue" points="72.5,-102.08 76,-112.08 79.5,-102.08 72.5,-102.08"/>
</g>
<!-- Node4 -->
<g id="node4" class="node">
<title>Node4</title>
<g id="a_node4"><a xlink:href="classObjet__U.html" target="_top" xlink:title="classe Objet_U Cette classe est la classe de base des Objets de TRUST Dans les classes derivees de Ob...">
<polygon fill="white" stroke="black" points="48,-168.5 48,-187.5 104,-187.5 104,-168.5 48,-168.5"/>
<text text-anchor="middle" x="76" y="-175.5" font-family="Helvetica,sans-Serif" font-size="10.00">Objet_U</text>
</a>
</g>
</g>
<!-- Node4&#45;&gt;Node3 -->
<g id="edge3" class="edge">
<title>Node4&#45;&gt;Node3</title>
<path fill="none" stroke="midnightblue" d="M76,-157.8C76,-148.91 76,-138.78 76,-131.75"/>
<polygon fill="midnightblue" stroke="midnightblue" points="72.5,-158.08 76,-168.08 79.5,-158.08 72.5,-158.08"/>
</g>
<!-- Node5 -->
<g id="node5" class="node">
<title>Node5</title>
<g id="a_node5"><a xlink:href="classProcess.html" target="_top" xlink:title="Classe de base de TRUST (notamment Objet_U). Elle fournit quelques services de base accessibles de pa...">
<polygon fill="white" stroke="black" points="49,-224.5 49,-243.5 103,-243.5 103,-224.5 49,-224.5"/>
<text text-anchor="middle" x="76" y="-231.5" font-family="Helvetica,sans-Serif" font-size="10.00">Process</text>
</a>
</g>
</g>
<!-- Node5&#45;&gt;Node4 -->
<g id="edge4" class="edge">
<title>Node5&#45;&gt;Node4</title>
<path fill="none" stroke="midnightblue" d="M76,-213.8C76,-204.91 76,-194.78 76,-187.75"/>
<polygon fill="midnightblue" stroke="midnightblue" points="72.5,-214.08 76,-224.08 79.5,-214.08 72.5,-214.08"/>
</g>
</g>
</svg>
