<?xml version="1.0" encoding="UTF-8" standalone="no"?>
<!DOCTYPE svg PUBLIC "-//W3C//DTD SVG 1.1//EN"
 "http://www.w3.org/Graphics/SVG/1.1/DTD/svg11.dtd">
<!-- Generated by graphviz version 2.43.0 (0)
 -->
<!-- Title: Eval_Grad_VDF_Face Pages: 1 -->
<svg width="212pt" height="84pt"
 viewBox="0.00 0.00 211.50 84.00" xmlns="http://www.w3.org/2000/svg" xmlns:xlink="http://www.w3.org/1999/xlink">
<g id="graph0" class="graph" transform="scale(1 1) rotate(0) translate(4 80)">
<title>Eval_Grad_VDF_Face</title>
<polygon fill="white" stroke="transparent" points="-4,4 -4,-80 207.5,-80 207.5,4 -4,4"/>
<!-- Node1 -->
<g id="node1" class="node">
<title>Node1</title>
<g id="a_node1"><a xlink:title="class Eval_Grad_VDF_Face Evaluateur VDF pour le gradient">
<polygon fill="#bfbfbf" stroke="black" points="43,-0.5 43,-19.5 162,-19.5 162,-0.5 43,-0.5"/>
<text text-anchor="middle" x="102.5" y="-7.5" font-family="Helvetica,sans-Serif" font-size="10.00">Eval_Grad_VDF_Face</text>
</a>
</g>
</g>
<!-- Node2 -->
<g id="node2" class="node">
<title>Node2</title>
<g id="a_node2"><a xlink:href="classEvaluateur__VDF.html" target="_top" xlink:title="class Evaluateur_VDF Classe de base des evaluateurs VDF. Cette classe n&#39;appartient pas a la hierarchi...">
<polygon fill="white" stroke="black" points="0,-56.5 0,-75.5 95,-75.5 95,-56.5 0,-56.5"/>
<text text-anchor="middle" x="47.5" y="-63.5" font-family="Helvetica,sans-Serif" font-size="10.00">Evaluateur_VDF</text>
</a>
</g>
</g>
<!-- Node2&#45;&gt;Node1 -->
<g id="edge1" class="edge">
<title>Node2&#45;&gt;Node1</title>
<path fill="none" stroke="midnightblue" d="M63.79,-49C73.54,-39.43 85.55,-27.64 93.59,-19.75"/>
<polygon fill="midnightblue" stroke="midnightblue" points="61.27,-46.58 56.58,-56.08 66.17,-51.57 61.27,-46.58"/>
</g>
<!-- Node3 -->
<g id="node3" class="node">
<title>Node3</title>
<g id="a_node3"><a xlink:href="classEval__VDF__Face.html" target="_top" xlink:title="&lt; For SFINAE later ...">
<polygon fill="white" stroke="black" points="113.5,-56.5 113.5,-75.5 203.5,-75.5 203.5,-56.5 113.5,-56.5"/>
<text text-anchor="middle" x="158.5" y="-63.5" font-family="Helvetica,sans-Serif" font-size="10.00">Eval_VDF_Face</text>
</a>
</g>
</g>
<!-- Node3&#45;&gt;Node1 -->
<g id="edge2" class="edge">
<title>Node3&#45;&gt;Node1</title>
<path fill="none" stroke="midnightblue" d="M142.17,-49.25C132.24,-39.67 119.91,-27.79 111.66,-19.83"/>
<polygon fill="midnightblue" stroke="midnightblue" points="139.87,-51.9 149.5,-56.32 144.73,-46.86 139.87,-51.9"/>
</g>
</g>
</svg>
