<?xml version="1.0" encoding="UTF-8" standalone="no"?>
<!DOCTYPE svg PUBLIC "-//W3C//DTD SVG 1.1//EN"
 "http://www.w3.org/Graphics/SVG/1.1/DTD/svg11.dtd">
<!-- Generated by graphviz version 2.43.0 (0)
 -->
<!-- Title: Champ_Fonc_Tabule_Morceaux Pages: 1 -->
<svg width="296pt" height="481pt"
 viewBox="0.00 0.00 296.00 481.00" xmlns="http://www.w3.org/2000/svg" xmlns:xlink="http://www.w3.org/1999/xlink">
<g id="graph0" class="graph" transform="scale(1 1) rotate(0) translate(4 477)">
<title>Champ_Fonc_Tabule_Morceaux</title>
<polygon fill="white" stroke="transparent" points="-4,4 -4,-477 292,-477 292,4 -4,4"/>
<!-- Node1 -->
<g id="node1" class="node">
<title>Node1</title>
<g id="a_node1"><a xlink:title="classe Champ_Fonc_Tabule_Morceaux Cette classe represente un champ prenant par morceaux des valuers f...">
<polygon fill="#bfbfbf" stroke="black" points="22.5,-0.5 22.5,-19.5 191.5,-19.5 191.5,-0.5 22.5,-0.5"/>
<text text-anchor="middle" x="107" y="-7.5" font-family="Helvetica,sans-Serif" font-size="10.00">Champ_Fonc_Tabule_Morceaux</text>
</a>
</g>
</g>
<!-- Node2 -->
<g id="node2" class="node">
<title>Node2</title>
<g id="a_node2"><a xlink:href="classTRUSTChamp__Morceaux__generique.html" target="_top" xlink:title=" ">
<polygon fill="white" stroke="black" points="22,-57.5 22,-98.5 192,-98.5 192,-57.5 22,-57.5"/>
<text text-anchor="start" x="30" y="-86.5" font-family="Helvetica,sans-Serif" font-size="10.00">TRUSTChamp_Morceaux</text>
<text text-anchor="start" x="30" y="-75.5" font-family="Helvetica,sans-Serif" font-size="10.00">_generique&lt; Champ_Morceaux</text>
<text text-anchor="middle" x="107" y="-64.5" font-family="Helvetica,sans-Serif" font-size="10.00">_Type::FONC_TABULE &gt;</text>
</a>
</g>
</g>
<!-- Node2&#45;&gt;Node1 -->
<g id="edge1" class="edge">
<title>Node2&#45;&gt;Node1</title>
<path fill="none" stroke="midnightblue" d="M107,-47.12C107,-37.17 107,-26.84 107,-19.79"/>
<polygon fill="midnightblue" stroke="midnightblue" points="103.5,-47.2 107,-57.2 110.5,-47.2 103.5,-47.2"/>
</g>
<!-- Node3 -->
<g id="node3" class="node">
<title>Node3</title>
<g id="a_node3"><a xlink:href="classChamp__Don__base.html" target="_top" xlink:title=" ">
<polygon fill="white" stroke="black" points="51,-225.5 51,-244.5 155,-244.5 155,-225.5 51,-225.5"/>
<text text-anchor="middle" x="103" y="-232.5" font-family="Helvetica,sans-Serif" font-size="10.00">Champ_Don_base</text>
</a>
</g>
</g>
<!-- Node3&#45;&gt;Node2 -->
<g id="edge2" class="edge">
<title>Node3&#45;&gt;Node2</title>
<path fill="none" stroke="midnightblue" d="M103.49,-215C104.25,-185.38 105.72,-128.51 106.5,-98.56"/>
<polygon fill="midnightblue" stroke="midnightblue" points="99.99,-215.14 103.23,-225.22 106.98,-215.32 99.99,-215.14"/>
</g>
<!-- Node9 -->
<g id="node9" class="node">
<title>Node9</title>
<g id="a_node9"><a xlink:href="classTRUSTChamp__Morceaux__generique.html" target="_top" xlink:title=" ">
<polygon fill="white" stroke="black" points="119,-157.5 119,-187.5 255,-187.5 255,-157.5 119,-157.5"/>
<text text-anchor="start" x="127" y="-175.5" font-family="Helvetica,sans-Serif" font-size="10.00">TRUSTChamp_Morceaux</text>
<text text-anchor="middle" x="187" y="-164.5" font-family="Helvetica,sans-Serif" font-size="10.00">_generique&lt; _TYPE_ &gt;</text>
</a>
</g>
</g>
<!-- Node3&#45;&gt;Node9 -->
<g id="edge9" class="edge">
<title>Node3&#45;&gt;Node9</title>
<path fill="none" stroke="midnightblue" d="M123.19,-219.46C136.64,-209.77 154.22,-197.11 167.53,-187.53"/>
<polygon fill="midnightblue" stroke="midnightblue" points="121.1,-216.65 115.04,-225.33 125.2,-222.33 121.1,-216.65"/>
</g>
<!-- Node4 -->
<g id="node4" class="node">
<title>Node4</title>
<g id="a_node4"><a xlink:href="classChamp__base.html" target="_top" xlink:title="classe Champ_base Cette classe est la base de la hierarchie des champs. Ses membres sont les attribut...">
<polygon fill="white" stroke="black" points="63,-282.5 63,-301.5 143,-301.5 143,-282.5 63,-282.5"/>
<text text-anchor="middle" x="103" y="-289.5" font-family="Helvetica,sans-Serif" font-size="10.00">Champ_base</text>
</a>
</g>
</g>
<!-- Node4&#45;&gt;Node3 -->
<g id="edge3" class="edge">
<title>Node4&#45;&gt;Node3</title>
<path fill="none" stroke="midnightblue" d="M103,-272.12C103,-262.82 103,-252.06 103,-244.71"/>
<polygon fill="midnightblue" stroke="midnightblue" points="99.5,-272.41 103,-282.41 106.5,-272.41 99.5,-272.41"/>
</g>
<!-- Node5 -->
<g id="node5" class="node">
<title>Node5</title>
<g id="a_node5"><a xlink:href="classField__base.html" target="_top" xlink:title=" ">
<polygon fill="white" stroke="black" points="0,-339.5 0,-358.5 68,-358.5 68,-339.5 0,-339.5"/>
<text text-anchor="middle" x="34" y="-346.5" font-family="Helvetica,sans-Serif" font-size="10.00">Field_base</text>
</a>
</g>
</g>
<!-- Node5&#45;&gt;Node4 -->
<g id="edge4" class="edge">
<title>Node5&#45;&gt;Node4</title>
<path fill="none" stroke="midnightblue" d="M52.82,-333C65.41,-322.96 81.54,-310.1 92.07,-301.71"/>
<polygon fill="midnightblue" stroke="midnightblue" points="50.42,-330.44 44.78,-339.41 54.78,-335.91 50.42,-330.44"/>
</g>
<!-- Node6 -->
<g id="node6" class="node">
<title>Node6</title>
<g id="a_node6"><a xlink:href="classObjet__U.html" target="_top" xlink:title="classe Objet_U Cette classe est la classe de base des Objets de TRUST Dans les classes derivees de Ob...">
<polygon fill="white" stroke="black" points="6,-396.5 6,-415.5 62,-415.5 62,-396.5 6,-396.5"/>
<text text-anchor="middle" x="34" y="-403.5" font-family="Helvetica,sans-Serif" font-size="10.00">Objet_U</text>
</a>
</g>
</g>
<!-- Node6&#45;&gt;Node5 -->
<g id="edge5" class="edge">
<title>Node6&#45;&gt;Node5</title>
<path fill="none" stroke="midnightblue" d="M34,-386.12C34,-376.82 34,-366.06 34,-358.71"/>
<polygon fill="midnightblue" stroke="midnightblue" points="30.5,-386.41 34,-396.41 37.5,-386.41 30.5,-386.41"/>
</g>
<!-- Node7 -->
<g id="node7" class="node">
<title>Node7</title>
<g id="a_node7"><a xlink:href="classProcess.html" target="_top" xlink:title="Classe de base de TRUST (notamment Objet_U). Elle fournit quelques services de base accessibles de pa...">
<polygon fill="white" stroke="black" points="7,-453.5 7,-472.5 61,-472.5 61,-453.5 7,-453.5"/>
<text text-anchor="middle" x="34" y="-460.5" font-family="Helvetica,sans-Serif" font-size="10.00">Process</text>
</a>
</g>
</g>
<!-- Node7&#45;&gt;Node6 -->
<g id="edge6" class="edge">
<title>Node7&#45;&gt;Node6</title>
<path fill="none" stroke="midnightblue" d="M34,-443.12C34,-433.82 34,-423.06 34,-415.71"/>
<polygon fill="midnightblue" stroke="midnightblue" points="30.5,-443.41 34,-453.41 37.5,-443.41 30.5,-443.41"/>
</g>
<!-- Node8 -->
<g id="node8" class="node">
<title>Node8</title>
<g id="a_node8"><a xlink:href="classChamp__Proto.html" target="_top" xlink:title="classe Champ_Proto Classe representant un prototype de Champ. Tous les classes representant des champ...">
<polygon fill="white" stroke="black" points="86,-339.5 86,-358.5 168,-358.5 168,-339.5 86,-339.5"/>
<text text-anchor="middle" x="127" y="-346.5" font-family="Helvetica,sans-Serif" font-size="10.00">Champ_Proto</text>
</a>
</g>
</g>
<!-- Node8&#45;&gt;Node4 -->
<g id="edge7" class="edge">
<title>Node8&#45;&gt;Node4</title>
<path fill="none" stroke="midnightblue" d="M119.16,-330.03C115.01,-320.53 110.11,-309.3 106.8,-301.71"/>
<polygon fill="midnightblue" stroke="midnightblue" points="116.04,-331.64 123.25,-339.41 122.46,-328.84 116.04,-331.64"/>
</g>
<!-- Node9&#45;&gt;Node2 -->
<g id="edge8" class="edge">
<title>Node9&#45;&gt;Node2</title>
<path fill="none" stroke="orange" stroke-dasharray="5,2" d="M168.31,-149.88C154.91,-134.4 137.02,-113.71 124.02,-98.68"/>
<polygon fill="orange" stroke="orange" points="165.66,-152.18 174.85,-157.45 170.96,-147.6 165.66,-152.18"/>
<text text-anchor="start" x="158" y="-131" font-family="Helvetica,sans-Serif" font-size="10.00"> &lt; Champ_Morceaux_Type</text>
<text text-anchor="middle" x="223" y="-120" font-family="Helvetica,sans-Serif" font-size="10.00">::FONC_TABULE &gt;</text>
</g>
</g>
</svg>
