<?xml version="1.0" encoding="UTF-8" standalone="no"?>
<!DOCTYPE svg PUBLIC "-//W3C//DTD SVG 1.1//EN"
 "http://www.w3.org/Graphics/SVG/1.1/DTD/svg11.dtd">
<!-- Generated by graphviz version 2.43.0 (0)
 -->
<!-- Title: Partitionneur_base Pages: 1 -->
<svg width="477pt" height="405pt"
 viewBox="0.00 0.00 477.00 404.50" xmlns="http://www.w3.org/2000/svg" xmlns:xlink="http://www.w3.org/1999/xlink">
<g id="graph0" class="graph" transform="scale(1 1) rotate(0) translate(4 400.5)">
<title>Partitionneur_base</title>
<polygon fill="white" stroke="transparent" points="-4,4 -4,-400.5 473,-400.5 473,4 -4,4"/>
<!-- Node1 -->
<g id="node1" class="node">
<title>Node1</title>
<g id="a_node1"><a xlink:title="Classe de base des partitionneurs de domaine&lt;br&gt;(pour decouper un maillage avant un calcul parallele)...">
<polygon fill="#bfbfbf" stroke="black" points="182,-194.5 182,-213.5 289,-213.5 289,-194.5 182,-194.5"/>
<text text-anchor="middle" x="235.5" y="-201.5" font-family="Helvetica,sans-Serif" font-size="10.00">Partitionneur_base</text>
</a>
</g>
</g>
<!-- Node4 -->
<g id="node4" class="node">
<title>Node4</title>
<g id="a_node4"><a xlink:href="classPartitionneur__Fichier__Decoupage.html" target="_top" xlink:title="Partition d&#39;un domaine a partir d&#39;un fichier disque contenant, pour chaque element,...">
<polygon fill="white" stroke="black" points="339,-366 339,-396 455,-396 455,-366 339,-366"/>
<text text-anchor="start" x="347" y="-384" font-family="Helvetica,sans-Serif" font-size="10.00">Partitionneur_Fichier</text>
<text text-anchor="middle" x="397" y="-373" font-family="Helvetica,sans-Serif" font-size="10.00">_Decoupage</text>
</a>
</g>
</g>
<!-- Node1&#45;&gt;Node4 -->
<g id="edge3" class="edge">
<title>Node1&#45;&gt;Node4</title>
<path fill="none" stroke="midnightblue" d="M242.75,-223.31C254.09,-255.36 281.03,-319.63 325,-356 329.63,-359.83 334.89,-363.09 340.4,-365.87"/>
<polygon fill="midnightblue" stroke="midnightblue" points="246.04,-222.1 239.51,-213.76 239.41,-224.35 246.04,-222.1"/>
</g>
<!-- Node5 -->
<g id="node5" class="node">
<title>Node5</title>
<g id="a_node5"><a xlink:href="classPartitionneur__Fichier__MED.html" target="_top" xlink:title="Partition d&#39;un domaine a partir d&#39;un fichier MED contenant un champ donnant, pour chaque element,...">
<polygon fill="white" stroke="black" points="325,-327.5 325,-346.5 469,-346.5 469,-327.5 325,-327.5"/>
<text text-anchor="middle" x="397" y="-334.5" font-family="Helvetica,sans-Serif" font-size="10.00">Partitionneur_Fichier_MED</text>
</a>
</g>
</g>
<!-- Node1&#45;&gt;Node5 -->
<g id="edge4" class="edge">
<title>Node1&#45;&gt;Node5</title>
<path fill="none" stroke="midnightblue" d="M245.92,-222.67C259.75,-248.14 287.96,-293.41 325,-318 330.85,-321.88 337.46,-324.97 344.24,-327.43"/>
<polygon fill="midnightblue" stroke="midnightblue" points="248.94,-220.89 241.19,-213.67 242.75,-224.15 248.94,-220.89"/>
</g>
<!-- Node6 -->
<g id="node6" class="node">
<title>Node6</title>
<g id="a_node6"><a xlink:href="classPartitionneur__Metis.html" target="_top" xlink:title="Partition d&#39;un domaine en nb_parties parties equilibrees en utilisant la librairie METIS....">
<polygon fill="white" stroke="black" points="341.5,-289.5 341.5,-308.5 452.5,-308.5 452.5,-289.5 341.5,-289.5"/>
<text text-anchor="middle" x="397" y="-296.5" font-family="Helvetica,sans-Serif" font-size="10.00">Partitionneur_Metis</text>
</a>
</g>
</g>
<!-- Node1&#45;&gt;Node6 -->
<g id="edge5" class="edge">
<title>Node1&#45;&gt;Node6</title>
<path fill="none" stroke="midnightblue" d="M252.19,-221.44C268.69,-238.74 296.21,-264.81 325,-280 332.22,-283.81 340.27,-286.9 348.28,-289.4"/>
<polygon fill="midnightblue" stroke="midnightblue" points="254.4,-218.67 245.02,-213.74 249.27,-223.44 254.4,-218.67"/>
</g>
<!-- Node7 -->
<g id="node7" class="node">
<title>Node7</title>
<g id="a_node7"><a xlink:href="classPartitionneur__Parmetis.html" target="_top" xlink:title="Partition d&#39;un domaine en nb_parties parties equilibrees en utilisant la librairie PARMETIS....">
<polygon fill="white" stroke="black" points="333.5,-251.5 333.5,-270.5 460.5,-270.5 460.5,-251.5 333.5,-251.5"/>
<text text-anchor="middle" x="397" y="-258.5" font-family="Helvetica,sans-Serif" font-size="10.00">Partitionneur_Parmetis</text>
</a>
</g>
</g>
<!-- Node1&#45;&gt;Node7 -->
<g id="edge6" class="edge">
<title>Node1&#45;&gt;Node7</title>
<path fill="none" stroke="midnightblue" d="M265.96,-217.92C282.98,-225.63 304.92,-235.04 325,-242 335.01,-245.47 345.99,-248.68 356.26,-251.45"/>
<polygon fill="midnightblue" stroke="midnightblue" points="267.11,-214.59 256.56,-213.6 264.19,-220.95 267.11,-214.59"/>
</g>
<!-- Node8 -->
<g id="node8" class="node">
<title>Node8</title>
<g id="a_node8"><a xlink:href="classPartitionneur__Partition.html" target="_top" xlink:title="Partitionneur de domaine en fonction du partitionnement d&#39;un autre domaine.">
<polygon fill="white" stroke="black" points="334.5,-213.5 334.5,-232.5 459.5,-232.5 459.5,-213.5 334.5,-213.5"/>
<text text-anchor="middle" x="397" y="-220.5" font-family="Helvetica,sans-Serif" font-size="10.00">Partitionneur_Partition</text>
</a>
</g>
</g>
<!-- Node1&#45;&gt;Node8 -->
<g id="edge7" class="edge">
<title>Node1&#45;&gt;Node8</title>
<path fill="none" stroke="midnightblue" d="M299.16,-211.46C310.7,-212.84 322.74,-214.27 334.25,-215.64"/>
<polygon fill="midnightblue" stroke="midnightblue" points="299.51,-207.98 289.17,-210.27 298.68,-214.93 299.51,-207.98"/>
</g>
<!-- Node9 -->
<g id="node9" class="node">
<title>Node9</title>
<g id="a_node9"><a xlink:href="classPartitionneur__Ptscotch.html" target="_top" xlink:title="Partition d&#39;un domaine en nb_parties parties equilibrees en utilisant la librairie Ptscotch....">
<polygon fill="white" stroke="black" points="334.5,-175.5 334.5,-194.5 459.5,-194.5 459.5,-175.5 334.5,-175.5"/>
<text text-anchor="middle" x="397" y="-182.5" font-family="Helvetica,sans-Serif" font-size="10.00">Partitionneur_Ptscotch</text>
</a>
</g>
</g>
<!-- Node1&#45;&gt;Node9 -->
<g id="edge8" class="edge">
<title>Node1&#45;&gt;Node9</title>
<path fill="none" stroke="midnightblue" d="M299.16,-196.54C310.7,-195.16 322.74,-193.73 334.25,-192.36"/>
<polygon fill="midnightblue" stroke="midnightblue" points="298.68,-193.07 289.17,-197.73 299.51,-200.02 298.68,-193.07"/>
</g>
<!-- Node10 -->
<g id="node10" class="node">
<title>Node10</title>
<g id="a_node10"><a xlink:href="classPartitionneur__Sous__Domaine.html" target="_top" xlink:title="Decoupeur permettant de decouper des sous&#45;domaines (se recouvrant potentiellement) crees par Create_d...">
<polygon fill="white" stroke="black" points="343.5,-126 343.5,-156 450.5,-156 450.5,-126 343.5,-126"/>
<text text-anchor="start" x="351.5" y="-144" font-family="Helvetica,sans-Serif" font-size="10.00">Partitionneur_Sous</text>
<text text-anchor="middle" x="397" y="-133" font-family="Helvetica,sans-Serif" font-size="10.00">_Domaine</text>
</a>
</g>
</g>
<!-- Node1&#45;&gt;Node10 -->
<g id="edge9" class="edge">
<title>Node1&#45;&gt;Node10</title>
<path fill="none" stroke="midnightblue" d="M267.19,-190.22C284.13,-182.77 305.6,-173.57 325,-166 333.64,-162.63 342.95,-159.2 351.9,-156.01"/>
<polygon fill="midnightblue" stroke="midnightblue" points="265.52,-187.13 257.79,-194.38 268.35,-193.53 265.52,-187.13"/>
</g>
<!-- Node11 -->
<g id="node11" class="node">
<title>Node11</title>
<g id="a_node11"><a xlink:href="classPartitionneur__Sous__Zones.html" target="_top" xlink:title="Partitionneur de domaine a partir de sous&#45;zones du domaine Voir construire_partition()">
<polygon fill="white" stroke="black" points="343.5,-77 343.5,-107 450.5,-107 450.5,-77 343.5,-77"/>
<text text-anchor="start" x="351.5" y="-95" font-family="Helvetica,sans-Serif" font-size="10.00">Partitionneur_Sous</text>
<text text-anchor="middle" x="397" y="-84" font-family="Helvetica,sans-Serif" font-size="10.00">_Zones</text>
</a>
</g>
</g>
<!-- Node1&#45;&gt;Node11 -->
<g id="edge10" class="edge">
<title>Node1&#45;&gt;Node11</title>
<path fill="none" stroke="midnightblue" d="M249.92,-186.48C265.86,-166.79 294.19,-135.07 325,-116 330.64,-112.51 336.85,-109.45 343.19,-106.8"/>
<polygon fill="midnightblue" stroke="midnightblue" points="247.15,-184.34 243.7,-194.36 252.64,-188.68 247.15,-184.34"/>
</g>
<!-- Node12 -->
<g id="node12" class="node">
<title>Node12</title>
<g id="a_node12"><a xlink:href="classPartitionneur__Tranche.html" target="_top" xlink:title="Partitionneur de domaine en tranches paralleles aux directions de l&#39;espace. Voir construire_partition...">
<polygon fill="white" stroke="black" points="336,-38.5 336,-57.5 458,-57.5 458,-38.5 336,-38.5"/>
<text text-anchor="middle" x="397" y="-45.5" font-family="Helvetica,sans-Serif" font-size="10.00">Partitionneur_Tranche</text>
</a>
</g>
</g>
<!-- Node1&#45;&gt;Node12 -->
<g id="edge11" class="edge">
<title>Node1&#45;&gt;Node12</title>
<path fill="none" stroke="midnightblue" d="M243.67,-184.6C255.75,-154.69 283,-97.58 325,-67 330.36,-63.09 336.48,-59.99 342.82,-57.53"/>
<polygon fill="midnightblue" stroke="midnightblue" points="240.27,-183.7 239.91,-194.29 246.79,-186.24 240.27,-183.7"/>
</g>
<!-- Node13 -->
<g id="node13" class="node">
<title>Node13</title>
<g id="a_node13"><a xlink:href="classPartitionneur__Union.html" target="_top" xlink:title="Decoupeur permettant de decouper un domaine global de maniere conforme avec un ensemble de sous&#45;domai...">
<polygon fill="white" stroke="black" points="340.5,-0.5 340.5,-19.5 453.5,-19.5 453.5,-0.5 340.5,-0.5"/>
<text text-anchor="middle" x="397" y="-7.5" font-family="Helvetica,sans-Serif" font-size="10.00">Partitionneur_Union</text>
</a>
</g>
</g>
<!-- Node1&#45;&gt;Node13 -->
<g id="edge12" class="edge">
<title>Node1&#45;&gt;Node13</title>
<path fill="none" stroke="midnightblue" d="M240.8,-184.45C249.81,-148.14 274.22,-70.23 325,-29 329.75,-25.14 335.22,-22.06 340.97,-19.6"/>
<polygon fill="midnightblue" stroke="midnightblue" points="237.36,-183.76 238.48,-194.3 244.18,-185.37 237.36,-183.76"/>
</g>
<!-- Node2 -->
<g id="node2" class="node">
<title>Node2</title>
<g id="a_node2"><a xlink:href="classObjet__U.html" target="_top" xlink:title="classe Objet_U Cette classe est la classe de base des Objets de TRUST Dans les classes derivees de Ob...">
<polygon fill="white" stroke="black" points="90,-194.5 90,-213.5 146,-213.5 146,-194.5 90,-194.5"/>
<text text-anchor="middle" x="118" y="-201.5" font-family="Helvetica,sans-Serif" font-size="10.00">Objet_U</text>
</a>
</g>
</g>
<!-- Node2&#45;&gt;Node1 -->
<g id="edge1" class="edge">
<title>Node2&#45;&gt;Node1</title>
<path fill="none" stroke="midnightblue" d="M156.31,-204C164.42,-204 173.14,-204 181.71,-204"/>
<polygon fill="midnightblue" stroke="midnightblue" points="156.08,-200.5 146.08,-204 156.08,-207.5 156.08,-200.5"/>
</g>
<!-- Node3 -->
<g id="node3" class="node">
<title>Node3</title>
<g id="a_node3"><a xlink:href="classProcess.html" target="_top" xlink:title="Classe de base de TRUST (notamment Objet_U). Elle fournit quelques services de base accessibles de pa...">
<polygon fill="white" stroke="black" points="0,-194.5 0,-213.5 54,-213.5 54,-194.5 0,-194.5"/>
<text text-anchor="middle" x="27" y="-201.5" font-family="Helvetica,sans-Serif" font-size="10.00">Process</text>
</a>
</g>
</g>
<!-- Node3&#45;&gt;Node2 -->
<g id="edge2" class="edge">
<title>Node3&#45;&gt;Node2</title>
<path fill="none" stroke="midnightblue" d="M64.29,-204C72.79,-204 81.7,-204 89.73,-204"/>
<polygon fill="midnightblue" stroke="midnightblue" points="64.22,-200.5 54.22,-204 64.22,-207.5 64.22,-200.5"/>
</g>
</g>
</svg>
