<?xml version="1.0" encoding="UTF-8" standalone="no"?>
<!DOCTYPE svg PUBLIC "-//W3C//DTD SVG 1.1//EN"
 "http://www.w3.org/Graphics/SVG/1.1/DTD/svg11.dtd">
<!-- Generated by graphviz version 2.43.0 (0)
 -->
<!-- Title: Loi_Etat_GP_WC Pages: 1 -->
<svg width="231pt" height="308pt"
 viewBox="0.00 0.00 230.50 308.00" xmlns="http://www.w3.org/2000/svg" xmlns:xlink="http://www.w3.org/1999/xlink">
<g id="graph0" class="graph" transform="scale(1 1) rotate(0) translate(4 304)">
<title>Loi_Etat_GP_WC</title>
<polygon fill="white" stroke="transparent" points="-4,4 -4,-304 226.5,-304 226.5,4 -4,4"/>
<!-- Node1 -->
<g id="node1" class="node">
<title>Node1</title>
<g id="a_node1"><a xlink:title="classe Loi_Etat_GP_WC Cette classe represente la loi d&#39;etat pour les gaz parfaits....">
<polygon fill="#bfbfbf" stroke="black" points="40,-0.5 40,-19.5 136,-19.5 136,-0.5 40,-0.5"/>
<text text-anchor="middle" x="88" y="-7.5" font-family="Helvetica,sans-Serif" font-size="10.00">Loi_Etat_GP_WC</text>
</a>
</g>
</g>
<!-- Node2 -->
<g id="node2" class="node">
<title>Node2</title>
<g id="a_node2"><a xlink:href="classLoi__Etat__Mono__GP__base.html" target="_top" xlink:title="classe Loi_Etat_Mono_GP_base Cette classe represente la loi d&#39;etat base pour les gaz parfaits....">
<polygon fill="white" stroke="black" points="20.5,-56.5 20.5,-75.5 155.5,-75.5 155.5,-56.5 20.5,-56.5"/>
<text text-anchor="middle" x="88" y="-63.5" font-family="Helvetica,sans-Serif" font-size="10.00">Loi_Etat_Mono_GP_base</text>
</a>
</g>
</g>
<!-- Node2&#45;&gt;Node1 -->
<g id="edge1" class="edge">
<title>Node2&#45;&gt;Node1</title>
<path fill="none" stroke="midnightblue" d="M88,-45.8C88,-36.91 88,-26.78 88,-19.75"/>
<polygon fill="midnightblue" stroke="midnightblue" points="84.5,-46.08 88,-56.08 91.5,-46.08 84.5,-46.08"/>
</g>
<!-- Node3 -->
<g id="node3" class="node">
<title>Node3</title>
<g id="a_node3"><a xlink:href="classLoi__Etat__GP__base.html" target="_top" xlink:title="classe Loi_Etat_GP_base Cette classe represente la loi d&#39;etat base pour les gaz parfaits....">
<polygon fill="white" stroke="black" points="36.5,-112.5 36.5,-131.5 139.5,-131.5 139.5,-112.5 36.5,-112.5"/>
<text text-anchor="middle" x="88" y="-119.5" font-family="Helvetica,sans-Serif" font-size="10.00">Loi_Etat_GP_base</text>
</a>
</g>
</g>
<!-- Node3&#45;&gt;Node2 -->
<g id="edge2" class="edge">
<title>Node3&#45;&gt;Node2</title>
<path fill="none" stroke="midnightblue" d="M88,-101.8C88,-92.91 88,-82.78 88,-75.75"/>
<polygon fill="midnightblue" stroke="midnightblue" points="84.5,-102.08 88,-112.08 91.5,-102.08 84.5,-102.08"/>
</g>
<!-- Node4 -->
<g id="node4" class="node">
<title>Node4</title>
<g id="a_node4"><a xlink:href="classLoi__Etat__base.html" target="_top" xlink:title="classe Loi_Etat_base Cette classe est la base de la hierarchie des lois d&#39;etat. Elle definit un fluid...">
<polygon fill="white" stroke="black" points="46,-168.5 46,-187.5 130,-187.5 130,-168.5 46,-168.5"/>
<text text-anchor="middle" x="88" y="-175.5" font-family="Helvetica,sans-Serif" font-size="10.00">Loi_Etat_base</text>
</a>
</g>
</g>
<!-- Node4&#45;&gt;Node3 -->
<g id="edge3" class="edge">
<title>Node4&#45;&gt;Node3</title>
<path fill="none" stroke="midnightblue" d="M88,-157.8C88,-148.91 88,-138.78 88,-131.75"/>
<polygon fill="midnightblue" stroke="midnightblue" points="84.5,-158.08 88,-168.08 91.5,-158.08 84.5,-158.08"/>
</g>
<!-- Node5 -->
<g id="node5" class="node">
<title>Node5</title>
<g id="a_node5"><a xlink:href="classObjet__U.html" target="_top" xlink:title="classe Objet_U Cette classe est la classe de base des Objets de TRUST Dans les classes derivees de Ob...">
<polygon fill="white" stroke="black" points="0,-224.5 0,-243.5 56,-243.5 56,-224.5 0,-224.5"/>
<text text-anchor="middle" x="28" y="-231.5" font-family="Helvetica,sans-Serif" font-size="10.00">Objet_U</text>
</a>
</g>
</g>
<!-- Node5&#45;&gt;Node4 -->
<g id="edge4" class="edge">
<title>Node5&#45;&gt;Node4</title>
<path fill="none" stroke="midnightblue" d="M45.18,-217.54C55.88,-207.91 69.26,-195.87 78.18,-187.83"/>
<polygon fill="midnightblue" stroke="midnightblue" points="42.73,-215.03 37.64,-224.32 47.41,-220.24 42.73,-215.03"/>
</g>
<!-- Node6 -->
<g id="node6" class="node">
<title>Node6</title>
<g id="a_node6"><a xlink:href="classProcess.html" target="_top" xlink:title="Classe de base de TRUST (notamment Objet_U). Elle fournit quelques services de base accessibles de pa...">
<polygon fill="white" stroke="black" points="1,-280.5 1,-299.5 55,-299.5 55,-280.5 1,-280.5"/>
<text text-anchor="middle" x="28" y="-287.5" font-family="Helvetica,sans-Serif" font-size="10.00">Process</text>
</a>
</g>
</g>
<!-- Node6&#45;&gt;Node5 -->
<g id="edge5" class="edge">
<title>Node6&#45;&gt;Node5</title>
<path fill="none" stroke="midnightblue" d="M28,-269.8C28,-260.91 28,-250.78 28,-243.75"/>
<polygon fill="midnightblue" stroke="midnightblue" points="24.5,-270.08 28,-280.08 31.5,-270.08 24.5,-270.08"/>
</g>
<!-- Node7 -->
<g id="node7" class="node">
<title>Node7</title>
<g id="a_node7"><a xlink:href="classChamps__compris__interface.html" target="_top" xlink:title="classe Champs_compris_interface Cette classe contient une interface de methodes destinees a gerer les...">
<polygon fill="white" stroke="black" points="73.5,-224.5 73.5,-243.5 222.5,-243.5 222.5,-224.5 73.5,-224.5"/>
<text text-anchor="middle" x="148" y="-231.5" font-family="Helvetica,sans-Serif" font-size="10.00">Champs_compris_interface</text>
</a>
</g>
</g>
<!-- Node7&#45;&gt;Node4 -->
<g id="edge6" class="edge">
<title>Node7&#45;&gt;Node4</title>
<path fill="none" stroke="midnightblue" d="M130.82,-217.54C120.12,-207.91 106.74,-195.87 97.82,-187.83"/>
<polygon fill="midnightblue" stroke="midnightblue" points="128.59,-220.24 138.36,-224.32 133.27,-215.03 128.59,-220.24"/>
</g>
</g>
</svg>
