<?xml version="1.0" encoding="UTF-8" standalone="no"?>
<!DOCTYPE svg PUBLIC "-//W3C//DTD SVG 1.1//EN"
 "http://www.w3.org/Graphics/SVG/1.1/DTD/svg11.dtd">
<!-- Generated by graphviz version 2.43.0 (0)
 -->
<!-- Title: Flux_interfacial_base Pages: 1 -->
<svg width="272pt" height="263pt"
 viewBox="0.00 0.00 271.50 263.00" xmlns="http://www.w3.org/2000/svg" xmlns:xlink="http://www.w3.org/1999/xlink">
<g id="graph0" class="graph" transform="scale(1 1) rotate(0) translate(4 259)">
<title>Flux_interfacial_base</title>
<polygon fill="white" stroke="transparent" points="-4,4 -4,-259 267.5,-259 267.5,4 -4,4"/>
<!-- Node1 -->
<g id="node1" class="node">
<title>Node1</title>
<g id="a_node1"><a xlink:title="classe Flux_interfacial_base correlations de flux de chaleur interfacial de la forme Phi_{kl} = h_{kl...">
<polygon fill="#bfbfbf" stroke="black" points="68.5,-67.5 68.5,-86.5 189.5,-86.5 189.5,-67.5 68.5,-67.5"/>
<text text-anchor="middle" x="129" y="-74.5" font-family="Helvetica,sans-Serif" font-size="10.00">Flux_interfacial_base</text>
</a>
</g>
</g>
<!-- Node6 -->
<g id="node6" class="node">
<title>Node6</title>
<g id="a_node6"><a xlink:href="classFlux__interfacial__Coef__Constant.html" target="_top" xlink:title="Flux interfacial a coefficient constant par phase.">
<polygon fill="white" stroke="black" points="0,-0.5 0,-30.5 120,-30.5 120,-0.5 0,-0.5"/>
<text text-anchor="start" x="8" y="-18.5" font-family="Helvetica,sans-Serif" font-size="10.00">Flux_interfacial_Coef</text>
<text text-anchor="middle" x="60" y="-7.5" font-family="Helvetica,sans-Serif" font-size="10.00">_Constant</text>
</a>
</g>
</g>
<!-- Node1&#45;&gt;Node6 -->
<g id="edge5" class="edge">
<title>Node1&#45;&gt;Node6</title>
<path fill="none" stroke="midnightblue" d="M111.51,-60.92C100.68,-51.58 86.86,-39.66 76.26,-30.52"/>
<polygon fill="midnightblue" stroke="midnightblue" points="109.26,-63.6 119.11,-67.48 113.83,-58.29 109.26,-63.6"/>
</g>
<!-- Node7 -->
<g id="node7" class="node">
<title>Node7</title>
<g id="a_node7"><a xlink:href="classFlux__interfacial__Ranz__Marshall.html" target="_top" xlink:title="Flux interfacial a coefficient constant par phase.">
<polygon fill="white" stroke="black" points="138,-0.5 138,-30.5 260,-30.5 260,-0.5 138,-0.5"/>
<text text-anchor="start" x="146" y="-18.5" font-family="Helvetica,sans-Serif" font-size="10.00">Flux_interfacial_Ranz</text>
<text text-anchor="middle" x="199" y="-7.5" font-family="Helvetica,sans-Serif" font-size="10.00">_Marshall</text>
</a>
</g>
</g>
<!-- Node1&#45;&gt;Node7 -->
<g id="edge6" class="edge">
<title>Node1&#45;&gt;Node7</title>
<path fill="none" stroke="midnightblue" d="M146.74,-60.92C157.73,-51.58 171.75,-39.66 182.5,-30.52"/>
<polygon fill="midnightblue" stroke="midnightblue" points="144.38,-58.33 139.03,-67.48 148.92,-63.67 144.38,-58.33"/>
</g>
<!-- Node2 -->
<g id="node2" class="node">
<title>Node2</title>
<g id="a_node2"><a xlink:href="classCorrelation__base.html" target="_top" xlink:title=" ">
<polygon fill="white" stroke="black" points="79.5,-123.5 79.5,-142.5 178.5,-142.5 178.5,-123.5 79.5,-123.5"/>
<text text-anchor="middle" x="129" y="-130.5" font-family="Helvetica,sans-Serif" font-size="10.00">Correlation_base</text>
</a>
</g>
</g>
<!-- Node2&#45;&gt;Node1 -->
<g id="edge1" class="edge">
<title>Node2&#45;&gt;Node1</title>
<path fill="none" stroke="midnightblue" d="M129,-112.8C129,-103.91 129,-93.78 129,-86.75"/>
<polygon fill="midnightblue" stroke="midnightblue" points="125.5,-113.08 129,-123.08 132.5,-113.08 125.5,-113.08"/>
</g>
<!-- Node3 -->
<g id="node3" class="node">
<title>Node3</title>
<g id="a_node3"><a xlink:href="classObjet__U.html" target="_top" xlink:title="classe Objet_U Cette classe est la classe de base des Objets de TRUST Dans les classes derivees de Ob...">
<polygon fill="white" stroke="black" points="41,-179.5 41,-198.5 97,-198.5 97,-179.5 41,-179.5"/>
<text text-anchor="middle" x="69" y="-186.5" font-family="Helvetica,sans-Serif" font-size="10.00">Objet_U</text>
</a>
</g>
</g>
<!-- Node3&#45;&gt;Node2 -->
<g id="edge2" class="edge">
<title>Node3&#45;&gt;Node2</title>
<path fill="none" stroke="midnightblue" d="M86.18,-172.54C96.88,-162.91 110.26,-150.87 119.18,-142.83"/>
<polygon fill="midnightblue" stroke="midnightblue" points="83.73,-170.03 78.64,-179.32 88.41,-175.24 83.73,-170.03"/>
</g>
<!-- Node4 -->
<g id="node4" class="node">
<title>Node4</title>
<g id="a_node4"><a xlink:href="classProcess.html" target="_top" xlink:title="Classe de base de TRUST (notamment Objet_U). Elle fournit quelques services de base accessibles de pa...">
<polygon fill="white" stroke="black" points="42,-235.5 42,-254.5 96,-254.5 96,-235.5 42,-235.5"/>
<text text-anchor="middle" x="69" y="-242.5" font-family="Helvetica,sans-Serif" font-size="10.00">Process</text>
</a>
</g>
</g>
<!-- Node4&#45;&gt;Node3 -->
<g id="edge3" class="edge">
<title>Node4&#45;&gt;Node3</title>
<path fill="none" stroke="midnightblue" d="M69,-224.8C69,-215.91 69,-205.78 69,-198.75"/>
<polygon fill="midnightblue" stroke="midnightblue" points="65.5,-225.08 69,-235.08 72.5,-225.08 65.5,-225.08"/>
</g>
<!-- Node5 -->
<g id="node5" class="node">
<title>Node5</title>
<g id="a_node5"><a xlink:href="classChamps__compris__interface.html" target="_top" xlink:title="classe Champs_compris_interface Cette classe contient une interface de methodes destinees a gerer les...">
<polygon fill="white" stroke="black" points="114.5,-179.5 114.5,-198.5 263.5,-198.5 263.5,-179.5 114.5,-179.5"/>
<text text-anchor="middle" x="189" y="-186.5" font-family="Helvetica,sans-Serif" font-size="10.00">Champs_compris_interface</text>
</a>
</g>
</g>
<!-- Node5&#45;&gt;Node2 -->
<g id="edge4" class="edge">
<title>Node5&#45;&gt;Node2</title>
<path fill="none" stroke="midnightblue" d="M171.82,-172.54C161.12,-162.91 147.74,-150.87 138.82,-142.83"/>
<polygon fill="midnightblue" stroke="midnightblue" points="169.59,-175.24 179.36,-179.32 174.27,-170.03 169.59,-175.24"/>
</g>
</g>
</svg>
