<?xml version="1.0" encoding="UTF-8" standalone="no"?>
<!DOCTYPE svg PUBLIC "-//W3C//DTD SVG 1.1//EN"
 "http://www.w3.org/Graphics/SVG/1.1/DTD/svg11.dtd">
<!-- Generated by graphviz version 2.43.0 (0)
 -->
<!-- Title: Masse_VDF_base Pages: 1 -->
<svg width="232pt" height="252pt"
 viewBox="0.00 0.00 231.50 252.00" xmlns="http://www.w3.org/2000/svg" xmlns:xlink="http://www.w3.org/1999/xlink">
<g id="graph0" class="graph" transform="scale(1 1) rotate(0) translate(4 248)">
<title>Masse_VDF_base</title>
<polygon fill="white" stroke="transparent" points="-4,4 -4,-248 227.5,-248 227.5,4 -4,4"/>
<!-- Node1 -->
<g id="node1" class="node">
<title>Node1</title>
<g id="a_node1"><a xlink:title=" ">
<polygon fill="#bfbfbf" stroke="black" points="61,-56.5 61,-75.5 163,-75.5 163,-56.5 61,-56.5"/>
<text text-anchor="middle" x="112" y="-63.5" font-family="Helvetica,sans-Serif" font-size="10.00">Masse_VDF_base</text>
</a>
</g>
</g>
<!-- Node6 -->
<g id="node6" class="node">
<title>Node6</title>
<g id="a_node6"><a xlink:href="classMasse__VDF__Elem.html" target="_top" xlink:title=" ">
<polygon fill="white" stroke="black" points="0,-0.5 0,-19.5 104,-19.5 104,-0.5 0,-0.5"/>
<text text-anchor="middle" x="52" y="-7.5" font-family="Helvetica,sans-Serif" font-size="10.00">Masse_VDF_Elem</text>
</a>
</g>
</g>
<!-- Node1&#45;&gt;Node6 -->
<g id="edge5" class="edge">
<title>Node1&#45;&gt;Node6</title>
<path fill="none" stroke="midnightblue" d="M94.82,-49.54C84.12,-39.91 70.74,-27.87 61.82,-19.83"/>
<polygon fill="midnightblue" stroke="midnightblue" points="92.59,-52.24 102.36,-56.32 97.27,-47.03 92.59,-52.24"/>
</g>
<!-- Node7 -->
<g id="node7" class="node">
<title>Node7</title>
<g id="a_node7"><a xlink:href="classMasse__VDF__Face.html" target="_top" xlink:title=" ">
<polygon fill="white" stroke="black" points="122.5,-0.5 122.5,-19.5 223.5,-19.5 223.5,-0.5 122.5,-0.5"/>
<text text-anchor="middle" x="173" y="-7.5" font-family="Helvetica,sans-Serif" font-size="10.00">Masse_VDF_Face</text>
</a>
</g>
</g>
<!-- Node1&#45;&gt;Node7 -->
<g id="edge6" class="edge">
<title>Node1&#45;&gt;Node7</title>
<path fill="none" stroke="midnightblue" d="M129.47,-49.54C140.34,-39.91 153.94,-27.87 163.02,-19.83"/>
<polygon fill="midnightblue" stroke="midnightblue" points="126.97,-47.07 121.8,-56.32 131.61,-52.32 126.97,-47.07"/>
</g>
<!-- Node2 -->
<g id="node2" class="node">
<title>Node2</title>
<g id="a_node2"><a xlink:href="classSolveur__Masse__base.html" target="_top" xlink:title="classe Solveur_Masse_base Represente la matrice de masse d&#39;une equation. Une equation contient une re...">
<polygon fill="white" stroke="black" points="52.5,-112.5 52.5,-131.5 171.5,-131.5 171.5,-112.5 52.5,-112.5"/>
<text text-anchor="middle" x="112" y="-119.5" font-family="Helvetica,sans-Serif" font-size="10.00">Solveur_Masse_base</text>
</a>
</g>
</g>
<!-- Node2&#45;&gt;Node1 -->
<g id="edge1" class="edge">
<title>Node2&#45;&gt;Node1</title>
<path fill="none" stroke="midnightblue" d="M112,-101.8C112,-92.91 112,-82.78 112,-75.75"/>
<polygon fill="midnightblue" stroke="midnightblue" points="108.5,-102.08 112,-112.08 115.5,-102.08 108.5,-102.08"/>
</g>
<!-- Node3 -->
<g id="node3" class="node">
<title>Node3</title>
<g id="a_node3"><a xlink:href="classObjet__U.html" target="_top" xlink:title="classe Objet_U Cette classe est la classe de base des Objets de TRUST Dans les classes derivees de Ob...">
<polygon fill="white" stroke="black" points="48,-168.5 48,-187.5 104,-187.5 104,-168.5 48,-168.5"/>
<text text-anchor="middle" x="76" y="-175.5" font-family="Helvetica,sans-Serif" font-size="10.00">Objet_U</text>
</a>
</g>
</g>
<!-- Node3&#45;&gt;Node2 -->
<g id="edge2" class="edge">
<title>Node3&#45;&gt;Node2</title>
<path fill="none" stroke="midnightblue" d="M87.62,-159.57C93.82,-150.27 101.17,-139.25 106.17,-131.75"/>
<polygon fill="midnightblue" stroke="midnightblue" points="84.58,-157.82 81.94,-168.08 90.4,-161.7 84.58,-157.82"/>
</g>
<!-- Node4 -->
<g id="node4" class="node">
<title>Node4</title>
<g id="a_node4"><a xlink:href="classProcess.html" target="_top" xlink:title="Classe de base de TRUST (notamment Objet_U). Elle fournit quelques services de base accessibles de pa...">
<polygon fill="white" stroke="black" points="49,-224.5 49,-243.5 103,-243.5 103,-224.5 49,-224.5"/>
<text text-anchor="middle" x="76" y="-231.5" font-family="Helvetica,sans-Serif" font-size="10.00">Process</text>
</a>
</g>
</g>
<!-- Node4&#45;&gt;Node3 -->
<g id="edge3" class="edge">
<title>Node4&#45;&gt;Node3</title>
<path fill="none" stroke="midnightblue" d="M76,-213.8C76,-204.91 76,-194.78 76,-187.75"/>
<polygon fill="midnightblue" stroke="midnightblue" points="72.5,-214.08 76,-224.08 79.5,-214.08 72.5,-214.08"/>
</g>
<!-- Node5 -->
<g id="node5" class="node">
<title>Node5</title>
<g id="a_node5"><a xlink:href="classMorEqn.html" target="_top" xlink:title="classe MorEqn Classe qui regroupe les fonctionnalites de liaison avec une Equation....">
<polygon fill="white" stroke="black" points="122.5,-168.5 122.5,-187.5 175.5,-187.5 175.5,-168.5 122.5,-168.5"/>
<text text-anchor="middle" x="149" y="-175.5" font-family="Helvetica,sans-Serif" font-size="10.00">MorEqn</text>
</a>
</g>
</g>
<!-- Node5&#45;&gt;Node2 -->
<g id="edge4" class="edge">
<title>Node5&#45;&gt;Node2</title>
<path fill="none" stroke="midnightblue" d="M137.05,-159.57C130.69,-150.27 123.13,-139.25 118,-131.75"/>
<polygon fill="midnightblue" stroke="midnightblue" points="134.35,-161.81 142.89,-168.08 140.13,-157.86 134.35,-161.81"/>
</g>
</g>
</svg>
