<?xml version="1.0" encoding="UTF-8" standalone="no"?>
<!DOCTYPE svg PUBLIC "-//W3C//DTD SVG 1.1//EN"
 "http://www.w3.org/Graphics/SVG/1.1/DTD/svg11.dtd">
<!-- Generated by graphviz version 2.43.0 (0)
 -->
<!-- Title: Champ_Critere_Q Pages: 1 -->
<svg width="290pt" height="84pt"
 viewBox="0.00 0.00 289.50 84.00" xmlns="http://www.w3.org/2000/svg" xmlns:xlink="http://www.w3.org/1999/xlink">
<g id="graph0" class="graph" transform="scale(1 1) rotate(0) translate(4 80)">
<title>Champ_Critere_Q</title>
<polygon fill="white" stroke="transparent" points="-4,4 -4,-80 285.5,-80 285.5,4 -4,4"/>
<!-- Node1 -->
<g id="node1" class="node">
<title>Node1</title>
<g id="a_node1"><a xlink:title="classe Champ_Critere_Q Permet de visualiser les tourbillons sans etre polluer par les gradients = 0....">
<polygon fill="#bfbfbf" stroke="black" points="88.5,-56.5 88.5,-75.5 190.5,-75.5 190.5,-56.5 88.5,-56.5"/>
<text text-anchor="middle" x="139.5" y="-63.5" font-family="Helvetica,sans-Serif" font-size="10.00">Champ_Critere_Q</text>
</a>
</g>
</g>
<!-- Node2 -->
<g id="node2" class="node">
<title>Node2</title>
<g id="a_node2"><a xlink:href="classCritere__Q__Champ__Face.html" target="_top" xlink:title="classe Critere_Q_Champ_Face">
<polygon fill="white" stroke="black" points="0,-0.5 0,-19.5 129,-19.5 129,-0.5 0,-0.5"/>
<text text-anchor="middle" x="64.5" y="-7.5" font-family="Helvetica,sans-Serif" font-size="10.00">Critere_Q_Champ_Face</text>
</a>
</g>
</g>
<!-- Node1&#45;&gt;Node2 -->
<g id="edge1" class="edge">
<title>Node1&#45;&gt;Node2</title>
<path fill="none" stroke="midnightblue" d="M119.19,-50.38C105.64,-40.62 88.26,-28.11 76.77,-19.83"/>
<polygon fill="midnightblue" stroke="midnightblue" points="117.29,-53.32 127.45,-56.32 121.38,-47.64 117.29,-53.32"/>
</g>
<!-- Node3 -->
<g id="node3" class="node">
<title>Node3</title>
<g id="a_node3"><a xlink:href="classCritere__Q__Champ__P1NC.html" target="_top" xlink:title="classe Critere_Q_Champ_P1NC">
<polygon fill="white" stroke="black" points="147.5,-0.5 147.5,-19.5 281.5,-19.5 281.5,-0.5 147.5,-0.5"/>
<text text-anchor="middle" x="214.5" y="-7.5" font-family="Helvetica,sans-Serif" font-size="10.00">Critere_Q_Champ_P1NC</text>
</a>
</g>
</g>
<!-- Node1&#45;&gt;Node3 -->
<g id="edge2" class="edge">
<title>Node1&#45;&gt;Node3</title>
<path fill="none" stroke="midnightblue" d="M159.81,-50.38C173.36,-40.62 190.74,-28.11 202.23,-19.83"/>
<polygon fill="midnightblue" stroke="midnightblue" points="157.62,-47.64 151.55,-56.32 161.71,-53.32 157.62,-47.64"/>
</g>
</g>
</svg>
