<?xml version="1.0" encoding="UTF-8" standalone="no"?>
<!DOCTYPE svg PUBLIC "-//W3C//DTD SVG 1.1//EN"
 "http://www.w3.org/Graphics/SVG/1.1/DTD/svg11.dtd">
<!-- Generated by graphviz version 2.43.0 (0)
 -->
<!-- Title: Matrice_Morse_Diag Pages: 1 -->
<svg width="196pt" height="308pt"
 viewBox="0.00 0.00 195.50 308.00" xmlns="http://www.w3.org/2000/svg" xmlns:xlink="http://www.w3.org/1999/xlink">
<g id="graph0" class="graph" transform="scale(1 1) rotate(0) translate(4 304)">
<title>Matrice_Morse_Diag</title>
<polygon fill="white" stroke="transparent" points="-4,4 -4,-304 191.5,-304 191.5,4 -4,4"/>
<!-- Node1 -->
<g id="node1" class="node">
<title>Node1</title>
<g id="a_node1"><a xlink:title="Classe Matrice_Morse_Diag Represente une matrice M (creuse) symetrique stockee au format Morse Diaget...">
<polygon fill="#bfbfbf" stroke="black" points="37.5,-0.5 37.5,-19.5 153.5,-19.5 153.5,-0.5 37.5,-0.5"/>
<text text-anchor="middle" x="95.5" y="-7.5" font-family="Helvetica,sans-Serif" font-size="10.00">Matrice_Morse_Diag</text>
</a>
</g>
</g>
<!-- Node2 -->
<g id="node2" class="node">
<title>Node2</title>
<g id="a_node2"><a xlink:href="classMatrice__Morse__Sym.html" target="_top" xlink:title="Classe Matrice_Morse_Sym Represente une matrice M (creuse) symetrique stockee au format Morse Symetri...">
<polygon fill="white" stroke="black" points="37.5,-56.5 37.5,-75.5 153.5,-75.5 153.5,-56.5 37.5,-56.5"/>
<text text-anchor="middle" x="95.5" y="-63.5" font-family="Helvetica,sans-Serif" font-size="10.00">Matrice_Morse_Sym</text>
</a>
</g>
</g>
<!-- Node2&#45;&gt;Node1 -->
<g id="edge1" class="edge">
<title>Node2&#45;&gt;Node1</title>
<path fill="none" stroke="midnightblue" d="M95.5,-45.8C95.5,-36.91 95.5,-26.78 95.5,-19.75"/>
<polygon fill="midnightblue" stroke="midnightblue" points="92,-46.08 95.5,-56.08 99,-46.08 92,-46.08"/>
</g>
<!-- Node3 -->
<g id="node3" class="node">
<title>Node3</title>
<g id="a_node3"><a xlink:href="classMatrice__Morse.html" target="_top" xlink:title="Classe Matrice_Morse Represente une matrice M (creuse), non necessairement carree stockee au format M...">
<polygon fill="white" stroke="black" points="0,-112.5 0,-131.5 89,-131.5 89,-112.5 0,-112.5"/>
<text text-anchor="middle" x="44.5" y="-119.5" font-family="Helvetica,sans-Serif" font-size="10.00">Matrice_Morse</text>
</a>
</g>
</g>
<!-- Node3&#45;&gt;Node2 -->
<g id="edge2" class="edge">
<title>Node3&#45;&gt;Node2</title>
<path fill="none" stroke="midnightblue" d="M59.88,-104.72C68.87,-95.2 79.86,-83.56 87.24,-75.75"/>
<polygon fill="midnightblue" stroke="midnightblue" points="57.24,-102.41 52.92,-112.08 62.33,-107.22 57.24,-102.41"/>
</g>
<!-- Node4 -->
<g id="node4" class="node">
<title>Node4</title>
<g id="a_node4"><a xlink:href="classMatrice__Base.html" target="_top" xlink:title="Classe Matrice_Base Classe de base de la hierarchie des matrices. Cette classe definie l&#39;interface ge...">
<polygon fill="white" stroke="black" points="3,-168.5 3,-187.5 86,-187.5 86,-168.5 3,-168.5"/>
<text text-anchor="middle" x="44.5" y="-175.5" font-family="Helvetica,sans-Serif" font-size="10.00">Matrice_Base</text>
</a>
</g>
</g>
<!-- Node4&#45;&gt;Node3 -->
<g id="edge3" class="edge">
<title>Node4&#45;&gt;Node3</title>
<path fill="none" stroke="midnightblue" d="M44.5,-157.8C44.5,-148.91 44.5,-138.78 44.5,-131.75"/>
<polygon fill="midnightblue" stroke="midnightblue" points="41,-158.08 44.5,-168.08 48,-158.08 41,-158.08"/>
</g>
<!-- Node5 -->
<g id="node5" class="node">
<title>Node5</title>
<g id="a_node5"><a xlink:href="classObjet__U.html" target="_top" xlink:title="classe Objet_U Cette classe est la classe de base des Objets de TRUST Dans les classes derivees de Ob...">
<polygon fill="white" stroke="black" points="16.5,-224.5 16.5,-243.5 72.5,-243.5 72.5,-224.5 16.5,-224.5"/>
<text text-anchor="middle" x="44.5" y="-231.5" font-family="Helvetica,sans-Serif" font-size="10.00">Objet_U</text>
</a>
</g>
</g>
<!-- Node5&#45;&gt;Node4 -->
<g id="edge4" class="edge">
<title>Node5&#45;&gt;Node4</title>
<path fill="none" stroke="midnightblue" d="M44.5,-213.8C44.5,-204.91 44.5,-194.78 44.5,-187.75"/>
<polygon fill="midnightblue" stroke="midnightblue" points="41,-214.08 44.5,-224.08 48,-214.08 41,-214.08"/>
</g>
<!-- Node6 -->
<g id="node6" class="node">
<title>Node6</title>
<g id="a_node6"><a xlink:href="classProcess.html" target="_top" xlink:title="Classe de base de TRUST (notamment Objet_U). Elle fournit quelques services de base accessibles de pa...">
<polygon fill="white" stroke="black" points="17.5,-280.5 17.5,-299.5 71.5,-299.5 71.5,-280.5 17.5,-280.5"/>
<text text-anchor="middle" x="44.5" y="-287.5" font-family="Helvetica,sans-Serif" font-size="10.00">Process</text>
</a>
</g>
</g>
<!-- Node6&#45;&gt;Node5 -->
<g id="edge5" class="edge">
<title>Node6&#45;&gt;Node5</title>
<path fill="none" stroke="midnightblue" d="M44.5,-269.8C44.5,-260.91 44.5,-250.78 44.5,-243.75"/>
<polygon fill="midnightblue" stroke="midnightblue" points="41,-270.08 44.5,-280.08 48,-270.08 41,-270.08"/>
</g>
<!-- Node7 -->
<g id="node7" class="node">
<title>Node7</title>
<g id="a_node7"><a xlink:href="classMatrice__Sym.html" target="_top" xlink:title="Classe Matrice_Sym Cette classe est la classe de base pour la representantion des matrices symetrique...">
<polygon fill="white" stroke="black" points="107.5,-112.5 107.5,-131.5 187.5,-131.5 187.5,-112.5 107.5,-112.5"/>
<text text-anchor="middle" x="147.5" y="-119.5" font-family="Helvetica,sans-Serif" font-size="10.00">Matrice_Sym</text>
</a>
</g>
</g>
<!-- Node7&#45;&gt;Node2 -->
<g id="edge6" class="edge">
<title>Node7&#45;&gt;Node2</title>
<path fill="none" stroke="midnightblue" d="M131.82,-104.72C122.66,-95.2 111.45,-83.56 103.93,-75.75"/>
<polygon fill="midnightblue" stroke="midnightblue" points="129.46,-107.31 138.91,-112.08 134.5,-102.45 129.46,-107.31"/>
</g>
</g>
</svg>
