<?xml version="1.0" encoding="UTF-8" standalone="no"?>
<!DOCTYPE svg PUBLIC "-//W3C//DTD SVG 1.1//EN"
 "http://www.w3.org/Graphics/SVG/1.1/DTD/svg11.dtd">
<!-- Generated by graphviz version 2.43.0 (0)
 -->
<!-- Title: Masse_PolyMAC_P0_Face Pages: 1 -->
<svg width="149pt" height="196pt"
 viewBox="0.00 0.00 149.00 196.00" xmlns="http://www.w3.org/2000/svg" xmlns:xlink="http://www.w3.org/1999/xlink">
<g id="graph0" class="graph" transform="scale(1 1) rotate(0) translate(4 192)">
<title>Masse_PolyMAC_P0_Face</title>
<polygon fill="white" stroke="transparent" points="-4,4 -4,-192 145,-192 145,4 -4,4"/>
<!-- Node1 -->
<g id="node1" class="node">
<title>Node1</title>
<g id="a_node1"><a xlink:title=" ">
<polygon fill="#bfbfbf" stroke="black" points="0,-0.5 0,-19.5 141,-19.5 141,-0.5 0,-0.5"/>
<text text-anchor="middle" x="70.5" y="-7.5" font-family="Helvetica,sans-Serif" font-size="10.00">Masse_PolyMAC_P0_Face</text>
</a>
</g>
</g>
<!-- Node2 -->
<g id="node2" class="node">
<title>Node2</title>
<g id="a_node2"><a xlink:href="classSolveur__Masse__base.html" target="_top" xlink:title="classe Solveur_Masse_base Represente la matrice de masse d&#39;une equation. Une equation contient une re...">
<polygon fill="white" stroke="black" points="11,-56.5 11,-75.5 130,-75.5 130,-56.5 11,-56.5"/>
<text text-anchor="middle" x="70.5" y="-63.5" font-family="Helvetica,sans-Serif" font-size="10.00">Solveur_Masse_base</text>
</a>
</g>
</g>
<!-- Node2&#45;&gt;Node1 -->
<g id="edge1" class="edge">
<title>Node2&#45;&gt;Node1</title>
<path fill="none" stroke="midnightblue" d="M70.5,-45.8C70.5,-36.91 70.5,-26.78 70.5,-19.75"/>
<polygon fill="midnightblue" stroke="midnightblue" points="67,-46.08 70.5,-56.08 74,-46.08 67,-46.08"/>
</g>
<!-- Node3 -->
<g id="node3" class="node">
<title>Node3</title>
<g id="a_node3"><a xlink:href="classObjet__U.html" target="_top" xlink:title="classe Objet_U Cette classe est la classe de base des Objets de TRUST Dans les classes derivees de Ob...">
<polygon fill="white" stroke="black" points="6.5,-112.5 6.5,-131.5 62.5,-131.5 62.5,-112.5 6.5,-112.5"/>
<text text-anchor="middle" x="34.5" y="-119.5" font-family="Helvetica,sans-Serif" font-size="10.00">Objet_U</text>
</a>
</g>
</g>
<!-- Node3&#45;&gt;Node2 -->
<g id="edge2" class="edge">
<title>Node3&#45;&gt;Node2</title>
<path fill="none" stroke="midnightblue" d="M46.12,-103.57C52.32,-94.27 59.67,-83.25 64.67,-75.75"/>
<polygon fill="midnightblue" stroke="midnightblue" points="43.08,-101.82 40.44,-112.08 48.9,-105.7 43.08,-101.82"/>
</g>
<!-- Node4 -->
<g id="node4" class="node">
<title>Node4</title>
<g id="a_node4"><a xlink:href="classProcess.html" target="_top" xlink:title="Classe de base de TRUST (notamment Objet_U). Elle fournit quelques services de base accessibles de pa...">
<polygon fill="white" stroke="black" points="7.5,-168.5 7.5,-187.5 61.5,-187.5 61.5,-168.5 7.5,-168.5"/>
<text text-anchor="middle" x="34.5" y="-175.5" font-family="Helvetica,sans-Serif" font-size="10.00">Process</text>
</a>
</g>
</g>
<!-- Node4&#45;&gt;Node3 -->
<g id="edge3" class="edge">
<title>Node4&#45;&gt;Node3</title>
<path fill="none" stroke="midnightblue" d="M34.5,-157.8C34.5,-148.91 34.5,-138.78 34.5,-131.75"/>
<polygon fill="midnightblue" stroke="midnightblue" points="31,-158.08 34.5,-168.08 38,-158.08 31,-158.08"/>
</g>
<!-- Node5 -->
<g id="node5" class="node">
<title>Node5</title>
<g id="a_node5"><a xlink:href="classMorEqn.html" target="_top" xlink:title="classe MorEqn Classe qui regroupe les fonctionnalites de liaison avec une Equation....">
<polygon fill="white" stroke="black" points="81,-112.5 81,-131.5 134,-131.5 134,-112.5 81,-112.5"/>
<text text-anchor="middle" x="107.5" y="-119.5" font-family="Helvetica,sans-Serif" font-size="10.00">MorEqn</text>
</a>
</g>
</g>
<!-- Node5&#45;&gt;Node2 -->
<g id="edge4" class="edge">
<title>Node5&#45;&gt;Node2</title>
<path fill="none" stroke="midnightblue" d="M95.55,-103.57C89.19,-94.27 81.63,-83.25 76.5,-75.75"/>
<polygon fill="midnightblue" stroke="midnightblue" points="92.85,-105.81 101.39,-112.08 98.63,-101.86 92.85,-105.81"/>
</g>
</g>
</svg>
