<?xml version="1.0" encoding="UTF-8" standalone="no"?>
<!DOCTYPE svg PUBLIC "-//W3C//DTD SVG 1.1//EN"
 "http://www.w3.org/Graphics/SVG/1.1/DTD/svg11.dtd">
<!-- Generated by graphviz version 2.43.0 (0)
 -->
<!-- Title: LecFicDiffuse Pages: 1 -->
<svg width="130pt" height="364pt"
 viewBox="0.00 0.00 130.00 364.00" xmlns="http://www.w3.org/2000/svg" xmlns:xlink="http://www.w3.org/1999/xlink">
<g id="graph0" class="graph" transform="scale(1 1) rotate(0) translate(4 360)">
<title>LecFicDiffuse</title>
<polygon fill="white" stroke="transparent" points="-4,4 -4,-360 126,-360 126,4 -4,4"/>
<!-- Node1 -->
<g id="node1" class="node">
<title>Node1</title>
<g id="a_node1"><a xlink:title="Cette classe implemente les operateurs et les methodes virtuelles de la classe EFichier de la facon s...">
<polygon fill="#bfbfbf" stroke="black" points="18.5,-56.5 18.5,-75.5 99.5,-75.5 99.5,-56.5 18.5,-56.5"/>
<text text-anchor="middle" x="59" y="-63.5" font-family="Helvetica,sans-Serif" font-size="10.00">LecFicDiffuse</text>
</a>
</g>
</g>
<!-- Node8 -->
<g id="node8" class="node">
<title>Node8</title>
<g id="a_node8"><a xlink:href="classLecFicDiffuseBin.html" target="_top" xlink:title="Read a file in binary format. This class implements the operators and virtual methods of the EFichier...">
<polygon fill="white" stroke="black" points="10.5,-0.5 10.5,-19.5 107.5,-19.5 107.5,-0.5 10.5,-0.5"/>
<text text-anchor="middle" x="59" y="-7.5" font-family="Helvetica,sans-Serif" font-size="10.00">LecFicDiffuseBin</text>
</a>
</g>
</g>
<!-- Node1&#45;&gt;Node8 -->
<g id="edge7" class="edge">
<title>Node1&#45;&gt;Node8</title>
<path fill="none" stroke="midnightblue" d="M59,-45.8C59,-36.91 59,-26.78 59,-19.75"/>
<polygon fill="midnightblue" stroke="midnightblue" points="55.5,-46.08 59,-56.08 62.5,-46.08 55.5,-46.08"/>
</g>
<!-- Node2 -->
<g id="node2" class="node">
<title>Node2</title>
<g id="a_node2"><a xlink:href="classLec__Diffuse__base.html" target="_top" xlink:title="Classe de base des entrees diffusees: le processeur maitre lit les donnees dans la classe get_entree_...">
<polygon fill="white" stroke="black" points="8.5,-112.5 8.5,-131.5 109.5,-131.5 109.5,-112.5 8.5,-112.5"/>
<text text-anchor="middle" x="59" y="-119.5" font-family="Helvetica,sans-Serif" font-size="10.00">Lec_Diffuse_base</text>
</a>
</g>
</g>
<!-- Node2&#45;&gt;Node1 -->
<g id="edge1" class="edge">
<title>Node2&#45;&gt;Node1</title>
<path fill="none" stroke="midnightblue" d="M59,-101.8C59,-92.91 59,-82.78 59,-75.75"/>
<polygon fill="midnightblue" stroke="midnightblue" points="55.5,-102.08 59,-112.08 62.5,-102.08 55.5,-102.08"/>
</g>
<!-- Node3 -->
<g id="node3" class="node">
<title>Node3</title>
<g id="a_node3"><a xlink:href="classEFichier.html" target="_top" xlink:title="Fichier en lecture Cette classe est a la classe C++ ifstream ce que la classe Entree est a la classe ...">
<polygon fill="white" stroke="black" points="31.5,-168.5 31.5,-187.5 86.5,-187.5 86.5,-168.5 31.5,-168.5"/>
<text text-anchor="middle" x="59" y="-175.5" font-family="Helvetica,sans-Serif" font-size="10.00">EFichier</text>
</a>
</g>
</g>
<!-- Node3&#45;&gt;Node2 -->
<g id="edge2" class="edge">
<title>Node3&#45;&gt;Node2</title>
<path fill="none" stroke="midnightblue" d="M59,-157.8C59,-148.91 59,-138.78 59,-131.75"/>
<polygon fill="midnightblue" stroke="midnightblue" points="55.5,-158.08 59,-168.08 62.5,-158.08 55.5,-158.08"/>
</g>
<!-- Node4 -->
<g id="node4" class="node">
<title>Node4</title>
<g id="a_node4"><a xlink:href="classEntree__Fichier__base.html" target="_top" xlink:title="Fichier en lecture Cette classe est a la classe C++ ifstream ce que la classe Entree est a la classe ...">
<polygon fill="white" stroke="black" points="2,-224.5 2,-243.5 116,-243.5 116,-224.5 2,-224.5"/>
<text text-anchor="middle" x="59" y="-231.5" font-family="Helvetica,sans-Serif" font-size="10.00">Entree_Fichier_base</text>
</a>
</g>
</g>
<!-- Node4&#45;&gt;Node3 -->
<g id="edge3" class="edge">
<title>Node4&#45;&gt;Node3</title>
<path fill="none" stroke="midnightblue" d="M59,-213.8C59,-204.91 59,-194.78 59,-187.75"/>
<polygon fill="midnightblue" stroke="midnightblue" points="55.5,-214.08 59,-224.08 62.5,-214.08 55.5,-214.08"/>
</g>
<!-- Node5 -->
<g id="node5" class="node">
<title>Node5</title>
<g id="a_node5"><a xlink:href="classEntree.html" target="_top" xlink:title="Classe de definition des operateurs et methodes pour toute lecture dans un flot d&#39;entree&lt;br&gt;(fichier,...">
<polygon fill="white" stroke="black" points="0,-280.5 0,-299.5 48,-299.5 48,-280.5 0,-280.5"/>
<text text-anchor="middle" x="24" y="-287.5" font-family="Helvetica,sans-Serif" font-size="10.00">Entree</text>
</a>
</g>
</g>
<!-- Node5&#45;&gt;Node4 -->
<g id="edge4" class="edge">
<title>Node5&#45;&gt;Node4</title>
<path fill="none" stroke="midnightblue" d="M35.3,-271.57C41.32,-262.27 48.47,-251.25 53.33,-243.75"/>
<polygon fill="midnightblue" stroke="midnightblue" points="32.28,-269.79 29.78,-280.08 38.16,-273.6 32.28,-269.79"/>
</g>
<!-- Node6 -->
<g id="node6" class="node">
<title>Node6</title>
<g id="a_node6"><a xlink:href="classObjet__U.html" target="_top" xlink:title="classe Objet_U Cette classe est la classe de base des Objets de TRUST Dans les classes derivees de Ob...">
<polygon fill="white" stroke="black" points="66,-280.5 66,-299.5 122,-299.5 122,-280.5 66,-280.5"/>
<text text-anchor="middle" x="94" y="-287.5" font-family="Helvetica,sans-Serif" font-size="10.00">Objet_U</text>
</a>
</g>
</g>
<!-- Node6&#45;&gt;Node4 -->
<g id="edge5" class="edge">
<title>Node6&#45;&gt;Node4</title>
<path fill="none" stroke="midnightblue" d="M82.7,-271.57C76.68,-262.27 69.53,-251.25 64.67,-243.75"/>
<polygon fill="midnightblue" stroke="midnightblue" points="79.84,-273.6 88.22,-280.08 85.72,-269.79 79.84,-273.6"/>
</g>
<!-- Node7 -->
<g id="node7" class="node">
<title>Node7</title>
<g id="a_node7"><a xlink:href="classProcess.html" target="_top" xlink:title="Classe de base de TRUST (notamment Objet_U). Elle fournit quelques services de base accessibles de pa...">
<polygon fill="white" stroke="black" points="67,-336.5 67,-355.5 121,-355.5 121,-336.5 67,-336.5"/>
<text text-anchor="middle" x="94" y="-343.5" font-family="Helvetica,sans-Serif" font-size="10.00">Process</text>
</a>
</g>
</g>
<!-- Node7&#45;&gt;Node6 -->
<g id="edge6" class="edge">
<title>Node7&#45;&gt;Node6</title>
<path fill="none" stroke="midnightblue" d="M94,-325.8C94,-316.91 94,-306.78 94,-299.75"/>
<polygon fill="midnightblue" stroke="midnightblue" points="90.5,-326.08 94,-336.08 97.5,-326.08 90.5,-326.08"/>
</g>
</g>
</svg>
