<?xml version="1.0" encoding="UTF-8" standalone="no"?>
<!DOCTYPE svg PUBLIC "-//W3C//DTD SVG 1.1//EN"
 "http://www.w3.org/Graphics/SVG/1.1/DTD/svg11.dtd">
<!-- Generated by graphviz version 2.43.0 (0)
 -->
<!-- Title: Op_Diff_PolyMAC_P0_base Pages: 1 -->
<svg width="1122pt" height="127pt"
 viewBox="0.00 0.00 1122.00 127.00" xmlns="http://www.w3.org/2000/svg" xmlns:xlink="http://www.w3.org/1999/xlink">
<g id="graph0" class="graph" transform="scale(1 1) rotate(0) translate(4 123)">
<title>Op_Diff_PolyMAC_P0_base</title>
<polygon fill="white" stroke="transparent" points="-4,4 -4,-123 1118,-123 1118,4 -4,4"/>
<!-- Node1 -->
<g id="node1" class="node">
<title>Node1</title>
<g id="a_node1"><a xlink:title="class Op_Diff_PolyMAC_P0_base Classe de base des operateurs de diffusion PolyMAC_P0">
<polygon fill="#bfbfbf" stroke="black" points="594,-28 594,-47 741,-47 741,-28 594,-28"/>
<text text-anchor="middle" x="667.5" y="-35" font-family="Helvetica,sans-Serif" font-size="10.00">Op_Diff_PolyMAC_P0_base</text>
</a>
</g>
</g>
<!-- Node9 -->
<g id="node9" class="node">
<title>Node9</title>
<g id="a_node9"><a xlink:href="classOp__Diff__PolyMAC__P0__Elem.html" target="_top" xlink:title=": class Op_Diff_PolyMAC_P0_Elem &lt;Description of class Op_Diff_PolyMAC_P0_Elem&gt;">
<polygon fill="white" stroke="black" points="777,-50 777,-69 926,-69 926,-50 777,-50"/>
<text text-anchor="middle" x="851.5" y="-57" font-family="Helvetica,sans-Serif" font-size="10.00">Op_Diff_PolyMAC_P0_Elem</text>
</a>
</g>
</g>
<!-- Node1&#45;&gt;Node9 -->
<g id="edge8" class="edge">
<title>Node1&#45;&gt;Node9</title>
<path fill="none" stroke="midnightblue" d="M751.16,-47.49C759.68,-48.52 768.3,-49.56 776.71,-50.58"/>
<polygon fill="midnightblue" stroke="midnightblue" points="751.56,-44.02 741.22,-46.29 750.72,-50.96 751.56,-44.02"/>
</g>
<!-- Node12 -->
<g id="node12" class="node">
<title>Node12</title>
<g id="a_node12"><a xlink:href="classOp__Diff__PolyMAC__P0__Face.html" target="_top" xlink:title=": class Op_Diff_PolyMAC_P0_Face &lt;Description of class Op_Diff_PolyMAC_P0_Face&gt;">
<polygon fill="white" stroke="black" points="778.5,-9 778.5,-28 924.5,-28 924.5,-9 778.5,-9"/>
<text text-anchor="middle" x="851.5" y="-16" font-family="Helvetica,sans-Serif" font-size="10.00">Op_Diff_PolyMAC_P0_Face</text>
</a>
</g>
</g>
<!-- Node1&#45;&gt;Node12 -->
<g id="edge11" class="edge">
<title>Node1&#45;&gt;Node12</title>
<path fill="none" stroke="midnightblue" d="M751.37,-28.85C760.42,-27.9 769.59,-26.95 778.49,-26.02"/>
<polygon fill="midnightblue" stroke="midnightblue" points="750.8,-25.39 741.22,-29.91 751.53,-32.35 750.8,-25.39"/>
</g>
<!-- Node2 -->
<g id="node2" class="node">
<title>Node2</title>
<g id="a_node2"><a xlink:href="classOperateur__Diff__base.html" target="_top" xlink:title="classe Operateur_Diff_base Cette classe est la base de la hierarchie des operateurs representant un t...">
<polygon fill="white" stroke="black" points="442,-28 442,-47 558,-47 558,-28 442,-28"/>
<text text-anchor="middle" x="500" y="-35" font-family="Helvetica,sans-Serif" font-size="10.00">Operateur_Diff_base</text>
</a>
</g>
</g>
<!-- Node2&#45;&gt;Node1 -->
<g id="edge1" class="edge">
<title>Node2&#45;&gt;Node1</title>
<path fill="none" stroke="midnightblue" d="M568.45,-37.5C576.78,-37.5 585.33,-37.5 593.73,-37.5"/>
<polygon fill="midnightblue" stroke="midnightblue" points="568.42,-34 558.42,-37.5 568.42,-41 568.42,-34"/>
</g>
<!-- Node3 -->
<g id="node3" class="node">
<title>Node3</title>
<g id="a_node3"><a xlink:href="classOperateur__base.html" target="_top" xlink:title="classe Operateur_base Classe est la base de la hierarchie des objets representant un operateur utilis...">
<polygon fill="white" stroke="black" points="293.5,-50 293.5,-69 387.5,-69 387.5,-50 293.5,-50"/>
<text text-anchor="middle" x="340.5" y="-57" font-family="Helvetica,sans-Serif" font-size="10.00">Operateur_base</text>
</a>
</g>
</g>
<!-- Node3&#45;&gt;Node2 -->
<g id="edge2" class="edge">
<title>Node3&#45;&gt;Node2</title>
<path fill="none" stroke="midnightblue" d="M398.04,-51.6C412.25,-49.62 427.52,-47.49 441.76,-45.5"/>
<polygon fill="midnightblue" stroke="midnightblue" points="397.32,-48.17 387.9,-53.02 398.29,-55.1 397.32,-48.17"/>
</g>
<!-- Node4 -->
<g id="node4" class="node">
<title>Node4</title>
<g id="a_node4"><a xlink:href="classObjet__U.html" target="_top" xlink:title="classe Objet_U Cette classe est la classe de base des Objets de TRUST Dans les classes derivees de Ob...">
<polygon fill="white" stroke="black" points="136.5,-88 136.5,-107 192.5,-107 192.5,-88 136.5,-88"/>
<text text-anchor="middle" x="164.5" y="-95" font-family="Helvetica,sans-Serif" font-size="10.00">Objet_U</text>
</a>
</g>
</g>
<!-- Node4&#45;&gt;Node3 -->
<g id="edge3" class="edge">
<title>Node4&#45;&gt;Node3</title>
<path fill="none" stroke="midnightblue" d="M202.64,-89.39C229.96,-83.42 267.2,-75.29 295.93,-69.02"/>
<polygon fill="midnightblue" stroke="midnightblue" points="201.71,-86.01 192.69,-91.56 203.2,-92.85 201.71,-86.01"/>
</g>
<!-- Node5 -->
<g id="node5" class="node">
<title>Node5</title>
<g id="a_node5"><a xlink:href="classProcess.html" target="_top" xlink:title="Classe de base de TRUST (notamment Objet_U). Elle fournit quelques services de base accessibles de pa...">
<polygon fill="white" stroke="black" points="0,-88 0,-107 54,-107 54,-88 0,-88"/>
<text text-anchor="middle" x="27" y="-95" font-family="Helvetica,sans-Serif" font-size="10.00">Process</text>
</a>
</g>
</g>
<!-- Node5&#45;&gt;Node4 -->
<g id="edge4" class="edge">
<title>Node5&#45;&gt;Node4</title>
<path fill="none" stroke="midnightblue" d="M64.34,-97.5C86.89,-97.5 115.4,-97.5 136.06,-97.5"/>
<polygon fill="midnightblue" stroke="midnightblue" points="64.13,-94 54.13,-97.5 64.13,-101 64.13,-94"/>
</g>
<!-- Node6 -->
<g id="node6" class="node">
<title>Node6</title>
<g id="a_node6"><a xlink:href="classMorEqn.html" target="_top" xlink:title="classe MorEqn Classe qui regroupe les fonctionnalites de liaison avec une Equation....">
<polygon fill="white" stroke="black" points="138,-50 138,-69 191,-69 191,-50 138,-50"/>
<text text-anchor="middle" x="164.5" y="-57" font-family="Helvetica,sans-Serif" font-size="10.00">MorEqn</text>
</a>
</g>
</g>
<!-- Node6&#45;&gt;Node3 -->
<g id="edge5" class="edge">
<title>Node6&#45;&gt;Node3</title>
<path fill="none" stroke="midnightblue" d="M201.22,-59.5C227.89,-59.5 264.55,-59.5 293.43,-59.5"/>
<polygon fill="midnightblue" stroke="midnightblue" points="201.17,-56 191.17,-59.5 201.17,-63 201.17,-56"/>
</g>
<!-- Node7 -->
<g id="node7" class="node">
<title>Node7</title>
<g id="a_node7"><a xlink:href="classChamps__compris__interface.html" target="_top" xlink:title="classe Champs_compris_interface Cette classe contient une interface de methodes destinees a gerer les...">
<polygon fill="white" stroke="black" points="90,-12 90,-31 239,-31 239,-12 90,-12"/>
<text text-anchor="middle" x="164.5" y="-19" font-family="Helvetica,sans-Serif" font-size="10.00">Champs_compris_interface</text>
</a>
</g>
</g>
<!-- Node7&#45;&gt;Node3 -->
<g id="edge6" class="edge">
<title>Node7&#45;&gt;Node3</title>
<path fill="none" stroke="midnightblue" d="M219.31,-33.25C243.92,-38.63 272.69,-44.91 295.91,-49.98"/>
<polygon fill="midnightblue" stroke="midnightblue" points="219.92,-29.8 209.41,-31.09 218.43,-36.64 219.92,-29.8"/>
</g>
<!-- Node8 -->
<g id="node8" class="node">
<title>Node8</title>
<g id="a_node8"><a xlink:href="classSupport__Champ__Masse__Volumique.html" target="_top" xlink:title=" ">
<polygon fill="white" stroke="black" points="275,-0.5 275,-30.5 406,-30.5 406,-0.5 275,-0.5"/>
<text text-anchor="start" x="283" y="-18.5" font-family="Helvetica,sans-Serif" font-size="10.00">Support_Champ_Masse</text>
<text text-anchor="middle" x="340.5" y="-7.5" font-family="Helvetica,sans-Serif" font-size="10.00">_Volumique</text>
</a>
</g>
</g>
<!-- Node8&#45;&gt;Node2 -->
<g id="edge7" class="edge">
<title>Node8&#45;&gt;Node2</title>
<path fill="none" stroke="midnightblue" d="M416.13,-25.92C424.8,-27.14 433.53,-28.35 441.91,-29.52"/>
<polygon fill="midnightblue" stroke="midnightblue" points="416.4,-22.43 406.02,-24.51 415.44,-29.36 416.4,-22.43"/>
</g>
<!-- Node10 -->
<g id="node10" class="node">
<title>Node10</title>
<g id="a_node10"><a xlink:href="classOp__Diff__Turbulent__PolyMAC__P0__Elem.html" target="_top" xlink:title=": class Op_Diff_Turbulent_PolyMAC_P0_Elem Version de Op_Diff_PolyMAC_P0_Elem prenant en compte l&#39;effe...">
<polygon fill="white" stroke="black" points="962,-88.5 962,-118.5 1114,-118.5 1114,-88.5 962,-88.5"/>
<text text-anchor="start" x="970" y="-106.5" font-family="Helvetica,sans-Serif" font-size="10.00">Op_Diff_Turbulent_PolyMAC</text>
<text text-anchor="middle" x="1038" y="-95.5" font-family="Helvetica,sans-Serif" font-size="10.00">_P0_Elem</text>
</a>
</g>
</g>
<!-- Node9&#45;&gt;Node10 -->
<g id="edge9" class="edge">
<title>Node9&#45;&gt;Node10</title>
<path fill="none" stroke="midnightblue" d="M902.33,-71.38C924.34,-76.63 950.47,-82.86 973.83,-88.43"/>
<polygon fill="midnightblue" stroke="midnightblue" points="903.07,-67.96 892.53,-69.05 901.45,-74.77 903.07,-67.96"/>
</g>
<!-- Node11 -->
<g id="node11" class="node">
<title>Node11</title>
<g id="a_node11"><a xlink:href="classOp__Dift__PolyMAC__P0__Elem.html" target="_top" xlink:title=" ">
<polygon fill="white" stroke="black" points="963.5,-50 963.5,-69 1112.5,-69 1112.5,-50 963.5,-50"/>
<text text-anchor="middle" x="1038" y="-57" font-family="Helvetica,sans-Serif" font-size="10.00">Op_Dift_PolyMAC_P0_Elem</text>
</a>
</g>
</g>
<!-- Node9&#45;&gt;Node11 -->
<g id="edge10" class="edge">
<title>Node9&#45;&gt;Node11</title>
<path fill="none" stroke="midnightblue" d="M936.34,-59.5C945.37,-59.5 954.51,-59.5 963.4,-59.5"/>
<polygon fill="midnightblue" stroke="midnightblue" points="936.21,-56 926.21,-59.5 936.21,-63 936.21,-56"/>
</g>
<!-- Node13 -->
<g id="node13" class="node">
<title>Node13</title>
<g id="a_node13"><a xlink:href="classOp__Diff__Turbulent__PolyMAC__P0__Face.html" target="_top" xlink:title=": class Op_Diff_Turbulent_PolyMAC_P0_Face Operateur de diffusion de vitesse prenant en compte l&#39;effet...">
<polygon fill="white" stroke="black" points="962,-0.5 962,-30.5 1114,-30.5 1114,-0.5 962,-0.5"/>
<text text-anchor="start" x="970" y="-18.5" font-family="Helvetica,sans-Serif" font-size="10.00">Op_Diff_Turbulent_PolyMAC</text>
<text text-anchor="middle" x="1038" y="-7.5" font-family="Helvetica,sans-Serif" font-size="10.00">_P0_Face</text>
</a>
</g>
</g>
<!-- Node12&#45;&gt;Node13 -->
<g id="edge12" class="edge">
<title>Node12&#45;&gt;Node13</title>
<path fill="none" stroke="midnightblue" d="M934.75,-17.16C943.78,-17.02 952.94,-16.87 961.88,-16.72"/>
<polygon fill="midnightblue" stroke="midnightblue" points="934.57,-13.67 924.63,-17.33 934.68,-20.66 934.57,-13.67"/>
</g>
</g>
</svg>
