<?xml version="1.0" encoding="UTF-8" standalone="no"?>
<!DOCTYPE svg PUBLIC "-//W3C//DTD SVG 1.1//EN"
 "http://www.w3.org/Graphics/SVG/1.1/DTD/svg11.dtd">
<!-- Generated by graphviz version 2.43.0 (0)
 -->
<!-- Title: Champ_front_fonc Pages: 1 -->
<svg width="342pt" height="420pt"
 viewBox="0.00 0.00 341.50 420.00" xmlns="http://www.w3.org/2000/svg" xmlns:xlink="http://www.w3.org/1999/xlink">
<g id="graph0" class="graph" transform="scale(1 1) rotate(0) translate(4 416)">
<title>Champ_front_fonc</title>
<polygon fill="white" stroke="transparent" points="-4,4 -4,-416 337.5,-416 337.5,4 -4,4"/>
<!-- Node1 -->
<g id="node1" class="node">
<title>Node1</title>
<g id="a_node1"><a xlink:title="class Champ_front_fonc Classe derivee de Champ_front_var">
<polygon fill="#bfbfbf" stroke="black" points="113.5,-56.5 113.5,-75.5 219.5,-75.5 219.5,-56.5 113.5,-56.5"/>
<text text-anchor="middle" x="166.5" y="-63.5" font-family="Helvetica,sans-Serif" font-size="10.00">Champ_front_fonc</text>
</a>
</g>
</g>
<!-- Node9 -->
<g id="node9" class="node">
<title>Node9</title>
<g id="a_node9"><a xlink:href="classChamp__front__fonc__pois__ipsn.html" target="_top" xlink:title="class Champ_front_fonc_pois_ipsn Classe derivee de Champ_front_fonc">
<polygon fill="white" stroke="black" points="0,-0.5 0,-19.5 157,-19.5 157,-0.5 0,-0.5"/>
<text text-anchor="middle" x="78.5" y="-7.5" font-family="Helvetica,sans-Serif" font-size="10.00">Champ_front_fonc_pois_ipsn</text>
</a>
</g>
</g>
<!-- Node1&#45;&gt;Node9 -->
<g id="edge8" class="edge">
<title>Node1&#45;&gt;Node9</title>
<path fill="none" stroke="midnightblue" d="M143.52,-50.9C127.39,-41 106.32,-28.07 92.6,-19.65"/>
<polygon fill="midnightblue" stroke="midnightblue" points="142.01,-54.08 152.36,-56.32 145.67,-48.11 142.01,-54.08"/>
</g>
<!-- Node10 -->
<g id="node10" class="node">
<title>Node10</title>
<g id="a_node10"><a xlink:href="classChamp__front__fonc__pois__tube.html" target="_top" xlink:title="class Champ_front_fonc_pois_tube Classe derivee de Champ_front_fonc">
<polygon fill="white" stroke="black" points="175.5,-0.5 175.5,-19.5 333.5,-19.5 333.5,-0.5 175.5,-0.5"/>
<text text-anchor="middle" x="254.5" y="-7.5" font-family="Helvetica,sans-Serif" font-size="10.00">Champ_front_fonc_pois_tube</text>
</a>
</g>
</g>
<!-- Node1&#45;&gt;Node10 -->
<g id="edge9" class="edge">
<title>Node1&#45;&gt;Node10</title>
<path fill="none" stroke="midnightblue" d="M189.48,-50.9C205.61,-41 226.68,-28.07 240.4,-19.65"/>
<polygon fill="midnightblue" stroke="midnightblue" points="187.33,-48.11 180.64,-56.32 190.99,-54.08 187.33,-48.11"/>
</g>
<!-- Node2 -->
<g id="node2" class="node">
<title>Node2</title>
<g id="a_node2"><a xlink:href="classCh__front__var__stationnaire.html" target="_top" xlink:title="classe Ch_front_var_stationnaire Cette classe abstraite represente un champ sur une frontiere,...">
<polygon fill="white" stroke="black" points="95,-112.5 95,-131.5 238,-131.5 238,-112.5 95,-112.5"/>
<text text-anchor="middle" x="166.5" y="-119.5" font-family="Helvetica,sans-Serif" font-size="10.00">Ch_front_var_stationnaire</text>
</a>
</g>
</g>
<!-- Node2&#45;&gt;Node1 -->
<g id="edge1" class="edge">
<title>Node2&#45;&gt;Node1</title>
<path fill="none" stroke="midnightblue" d="M166.5,-101.8C166.5,-92.91 166.5,-82.78 166.5,-75.75"/>
<polygon fill="midnightblue" stroke="midnightblue" points="163,-102.08 166.5,-112.08 170,-102.08 163,-102.08"/>
</g>
<!-- Node3 -->
<g id="node3" class="node">
<title>Node3</title>
<g id="a_node3"><a xlink:href="classChamp__front__var.html" target="_top" xlink:title="classe Champ_front_var Classe derivee de Champ_front_base qui represente un champ sur une frontiere v...">
<polygon fill="white" stroke="black" points="116,-168.5 116,-187.5 217,-187.5 217,-168.5 116,-168.5"/>
<text text-anchor="middle" x="166.5" y="-175.5" font-family="Helvetica,sans-Serif" font-size="10.00">Champ_front_var</text>
</a>
</g>
</g>
<!-- Node3&#45;&gt;Node2 -->
<g id="edge2" class="edge">
<title>Node3&#45;&gt;Node2</title>
<path fill="none" stroke="midnightblue" d="M166.5,-157.8C166.5,-148.91 166.5,-138.78 166.5,-131.75"/>
<polygon fill="midnightblue" stroke="midnightblue" points="163,-158.08 166.5,-168.08 170,-158.08 163,-158.08"/>
</g>
<!-- Node4 -->
<g id="node4" class="node">
<title>Node4</title>
<g id="a_node4"><a xlink:href="classChamp__front__base.html" target="_top" xlink:title="classe Champ_front_base Classe de base pour la hierarchie des champs aux frontieres....">
<polygon fill="white" stroke="black" points="112.5,-224.5 112.5,-243.5 220.5,-243.5 220.5,-224.5 112.5,-224.5"/>
<text text-anchor="middle" x="166.5" y="-231.5" font-family="Helvetica,sans-Serif" font-size="10.00">Champ_front_base</text>
</a>
</g>
</g>
<!-- Node4&#45;&gt;Node3 -->
<g id="edge3" class="edge">
<title>Node4&#45;&gt;Node3</title>
<path fill="none" stroke="midnightblue" d="M166.5,-213.8C166.5,-204.91 166.5,-194.78 166.5,-187.75"/>
<polygon fill="midnightblue" stroke="midnightblue" points="163,-214.08 166.5,-224.08 170,-214.08 163,-214.08"/>
</g>
<!-- Node5 -->
<g id="node5" class="node">
<title>Node5</title>
<g id="a_node5"><a xlink:href="classField__base.html" target="_top" xlink:title=" ">
<polygon fill="white" stroke="black" points="86.5,-280.5 86.5,-299.5 154.5,-299.5 154.5,-280.5 86.5,-280.5"/>
<text text-anchor="middle" x="120.5" y="-287.5" font-family="Helvetica,sans-Serif" font-size="10.00">Field_base</text>
</a>
</g>
</g>
<!-- Node5&#45;&gt;Node4 -->
<g id="edge4" class="edge">
<title>Node5&#45;&gt;Node4</title>
<path fill="none" stroke="midnightblue" d="M134.61,-272.43C142.68,-262.97 152.46,-251.48 159.05,-243.75"/>
<polygon fill="midnightblue" stroke="midnightblue" points="131.92,-270.2 128.1,-280.08 137.25,-274.74 131.92,-270.2"/>
</g>
<!-- Node6 -->
<g id="node6" class="node">
<title>Node6</title>
<g id="a_node6"><a xlink:href="classObjet__U.html" target="_top" xlink:title="classe Objet_U Cette classe est la classe de base des Objets de TRUST Dans les classes derivees de Ob...">
<polygon fill="white" stroke="black" points="92.5,-336.5 92.5,-355.5 148.5,-355.5 148.5,-336.5 92.5,-336.5"/>
<text text-anchor="middle" x="120.5" y="-343.5" font-family="Helvetica,sans-Serif" font-size="10.00">Objet_U</text>
</a>
</g>
</g>
<!-- Node6&#45;&gt;Node5 -->
<g id="edge5" class="edge">
<title>Node6&#45;&gt;Node5</title>
<path fill="none" stroke="midnightblue" d="M120.5,-325.8C120.5,-316.91 120.5,-306.78 120.5,-299.75"/>
<polygon fill="midnightblue" stroke="midnightblue" points="117,-326.08 120.5,-336.08 124,-326.08 117,-326.08"/>
</g>
<!-- Node7 -->
<g id="node7" class="node">
<title>Node7</title>
<g id="a_node7"><a xlink:href="classProcess.html" target="_top" xlink:title="Classe de base de TRUST (notamment Objet_U). Elle fournit quelques services de base accessibles de pa...">
<polygon fill="white" stroke="black" points="93.5,-392.5 93.5,-411.5 147.5,-411.5 147.5,-392.5 93.5,-392.5"/>
<text text-anchor="middle" x="120.5" y="-399.5" font-family="Helvetica,sans-Serif" font-size="10.00">Process</text>
</a>
</g>
</g>
<!-- Node7&#45;&gt;Node6 -->
<g id="edge6" class="edge">
<title>Node7&#45;&gt;Node6</title>
<path fill="none" stroke="midnightblue" d="M120.5,-381.8C120.5,-372.91 120.5,-362.78 120.5,-355.75"/>
<polygon fill="midnightblue" stroke="midnightblue" points="117,-382.08 120.5,-392.08 124,-382.08 117,-382.08"/>
</g>
<!-- Node8 -->
<g id="node8" class="node">
<title>Node8</title>
<g id="a_node8"><a xlink:href="classChamp__Proto.html" target="_top" xlink:title="classe Champ_Proto Classe representant un prototype de Champ. Tous les classes representant des champ...">
<polygon fill="white" stroke="black" points="172.5,-280.5 172.5,-299.5 254.5,-299.5 254.5,-280.5 172.5,-280.5"/>
<text text-anchor="middle" x="213.5" y="-287.5" font-family="Helvetica,sans-Serif" font-size="10.00">Champ_Proto</text>
</a>
</g>
</g>
<!-- Node8&#45;&gt;Node4 -->
<g id="edge7" class="edge">
<title>Node8&#45;&gt;Node4</title>
<path fill="none" stroke="midnightblue" d="M199.08,-272.43C190.84,-262.97 180.85,-251.48 174.12,-243.75"/>
<polygon fill="midnightblue" stroke="midnightblue" points="196.53,-274.84 205.74,-280.08 201.81,-270.24 196.53,-274.84"/>
</g>
</g>
</svg>
