<?xml version="1.0" encoding="UTF-8" standalone="no"?>
<!DOCTYPE svg PUBLIC "-//W3C//DTD SVG 1.1//EN"
 "http://www.w3.org/Graphics/SVG/1.1/DTD/svg11.dtd">
<!-- Generated by graphviz version 2.43.0 (0)
 -->
<!-- Title: Source_QC_Chaleur_Verif_VEF_P1NC Pages: 1 -->
<svg width="303pt" height="330pt"
 viewBox="0.00 0.00 302.50 330.00" xmlns="http://www.w3.org/2000/svg" xmlns:xlink="http://www.w3.org/1999/xlink">
<g id="graph0" class="graph" transform="scale(1 1) rotate(0) translate(4 326)">
<title>Source_QC_Chaleur_Verif_VEF_P1NC</title>
<polygon fill="white" stroke="transparent" points="-4,4 -4,-326 298.5,-326 298.5,4 -4,4"/>
<!-- Node1 -->
<g id="node1" class="node">
<title>Node1</title>
<g id="a_node1"><a xlink:title=" ">
<polygon fill="#bfbfbf" stroke="black" points="123.5,-0.5 123.5,-30.5 263.5,-30.5 263.5,-0.5 123.5,-0.5"/>
<text text-anchor="start" x="131.5" y="-18.5" font-family="Helvetica,sans-Serif" font-size="10.00">Source_QC_Chaleur_Verif</text>
<text text-anchor="middle" x="193.5" y="-7.5" font-family="Helvetica,sans-Serif" font-size="10.00">_VEF_P1NC</text>
</a>
</g>
</g>
<!-- Node2 -->
<g id="node2" class="node">
<title>Node2</title>
<g id="a_node2"><a xlink:href="classSource__QC__Chaleur__Verif.html" target="_top" xlink:title="class Source_QC_Chaleur_Verif Cette classe represente un terme source supplementaire a prendre en com...">
<polygon fill="white" stroke="black" points="123.5,-67.5 123.5,-86.5 263.5,-86.5 263.5,-67.5 123.5,-67.5"/>
<text text-anchor="middle" x="193.5" y="-74.5" font-family="Helvetica,sans-Serif" font-size="10.00">Source_QC_Chaleur_Verif</text>
</a>
</g>
</g>
<!-- Node2&#45;&gt;Node1 -->
<g id="edge1" class="edge">
<title>Node2&#45;&gt;Node1</title>
<path fill="none" stroke="midnightblue" d="M193.5,-57.23C193.5,-48.59 193.5,-38.5 193.5,-30.52"/>
<polygon fill="midnightblue" stroke="midnightblue" points="190,-57.48 193.5,-67.48 197,-57.48 190,-57.48"/>
</g>
<!-- Node3 -->
<g id="node3" class="node">
<title>Node3</title>
<g id="a_node3"><a xlink:href="classSource__Chaleur__Fluide__Dilatable__base.html" target="_top" xlink:title="class Source_Chaleur_Fluide_Dilatable_base Cette classe represente un terme source supplementaire a p...">
<polygon fill="white" stroke="black" points="129.5,-123.5 129.5,-153.5 257.5,-153.5 257.5,-123.5 129.5,-123.5"/>
<text text-anchor="start" x="137.5" y="-141.5" font-family="Helvetica,sans-Serif" font-size="10.00">Source_Chaleur_Fluide</text>
<text text-anchor="middle" x="193.5" y="-130.5" font-family="Helvetica,sans-Serif" font-size="10.00">_Dilatable_base</text>
</a>
</g>
</g>
<!-- Node3&#45;&gt;Node2 -->
<g id="edge2" class="edge">
<title>Node3&#45;&gt;Node2</title>
<path fill="none" stroke="midnightblue" d="M193.5,-113.29C193.5,-103.86 193.5,-93.65 193.5,-86.66"/>
<polygon fill="midnightblue" stroke="midnightblue" points="190,-113.4 193.5,-123.4 197,-113.4 190,-113.4"/>
</g>
<!-- Node4 -->
<g id="node4" class="node">
<title>Node4</title>
<g id="a_node4"><a xlink:href="classSource__base.html" target="_top" xlink:title="classe Source_base Un objet Source_base est un terme apparaissant au second membre d&#39;une equation....">
<polygon fill="white" stroke="black" points="154.5,-190.5 154.5,-209.5 232.5,-209.5 232.5,-190.5 154.5,-190.5"/>
<text text-anchor="middle" x="193.5" y="-197.5" font-family="Helvetica,sans-Serif" font-size="10.00">Source_base</text>
</a>
</g>
</g>
<!-- Node4&#45;&gt;Node3 -->
<g id="edge3" class="edge">
<title>Node4&#45;&gt;Node3</title>
<path fill="none" stroke="midnightblue" d="M193.5,-180.23C193.5,-171.59 193.5,-161.5 193.5,-153.52"/>
<polygon fill="midnightblue" stroke="midnightblue" points="190,-180.48 193.5,-190.48 197,-180.48 190,-180.48"/>
</g>
<!-- Node5 -->
<g id="node5" class="node">
<title>Node5</title>
<g id="a_node5"><a xlink:href="classChamps__compris__interface.html" target="_top" xlink:title="classe Champs_compris_interface Cette classe contient une interface de methodes destinees a gerer les...">
<polygon fill="white" stroke="black" points="0,-246.5 0,-265.5 149,-265.5 149,-246.5 0,-246.5"/>
<text text-anchor="middle" x="74.5" y="-253.5" font-family="Helvetica,sans-Serif" font-size="10.00">Champs_compris_interface</text>
</a>
</g>
</g>
<!-- Node5&#45;&gt;Node4 -->
<g id="edge4" class="edge">
<title>Node5&#45;&gt;Node4</title>
<path fill="none" stroke="midnightblue" d="M102.64,-242.23C124.9,-232.13 155.36,-218.31 174.73,-209.52"/>
<polygon fill="midnightblue" stroke="midnightblue" points="101.02,-239.12 93.36,-246.44 103.91,-245.5 101.02,-239.12"/>
</g>
<!-- Node6 -->
<g id="node6" class="node">
<title>Node6</title>
<g id="a_node6"><a xlink:href="classMorEqn.html" target="_top" xlink:title="classe MorEqn Classe qui regroupe les fonctionnalites de liaison avec une Equation....">
<polygon fill="white" stroke="black" points="167,-246.5 167,-265.5 220,-265.5 220,-246.5 167,-246.5"/>
<text text-anchor="middle" x="193.5" y="-253.5" font-family="Helvetica,sans-Serif" font-size="10.00">MorEqn</text>
</a>
</g>
</g>
<!-- Node6&#45;&gt;Node4 -->
<g id="edge5" class="edge">
<title>Node6&#45;&gt;Node4</title>
<path fill="none" stroke="midnightblue" d="M193.5,-235.8C193.5,-226.91 193.5,-216.78 193.5,-209.75"/>
<polygon fill="midnightblue" stroke="midnightblue" points="190,-236.08 193.5,-246.08 197,-236.08 190,-236.08"/>
</g>
<!-- Node7 -->
<g id="node7" class="node">
<title>Node7</title>
<g id="a_node7"><a xlink:href="classObjet__U.html" target="_top" xlink:title="classe Objet_U Cette classe est la classe de base des Objets de TRUST Dans les classes derivees de Ob...">
<polygon fill="white" stroke="black" points="238.5,-246.5 238.5,-265.5 294.5,-265.5 294.5,-246.5 238.5,-246.5"/>
<text text-anchor="middle" x="266.5" y="-253.5" font-family="Helvetica,sans-Serif" font-size="10.00">Objet_U</text>
</a>
</g>
</g>
<!-- Node7&#45;&gt;Node4 -->
<g id="edge6" class="edge">
<title>Node7&#45;&gt;Node4</title>
<path fill="none" stroke="midnightblue" d="M246.36,-240.1C233.22,-230.38 216.52,-218.03 205.44,-209.83"/>
<polygon fill="midnightblue" stroke="midnightblue" points="244.65,-243.19 254.77,-246.32 248.81,-237.56 244.65,-243.19"/>
</g>
<!-- Node8 -->
<g id="node8" class="node">
<title>Node8</title>
<g id="a_node8"><a xlink:href="classProcess.html" target="_top" xlink:title="Classe de base de TRUST (notamment Objet_U). Elle fournit quelques services de base accessibles de pa...">
<polygon fill="white" stroke="black" points="239.5,-302.5 239.5,-321.5 293.5,-321.5 293.5,-302.5 239.5,-302.5"/>
<text text-anchor="middle" x="266.5" y="-309.5" font-family="Helvetica,sans-Serif" font-size="10.00">Process</text>
</a>
</g>
</g>
<!-- Node8&#45;&gt;Node7 -->
<g id="edge7" class="edge">
<title>Node8&#45;&gt;Node7</title>
<path fill="none" stroke="midnightblue" d="M266.5,-291.8C266.5,-282.91 266.5,-272.78 266.5,-265.75"/>
<polygon fill="midnightblue" stroke="midnightblue" points="263,-292.08 266.5,-302.08 270,-292.08 263,-292.08"/>
</g>
</g>
</svg>
