<?xml version="1.0" encoding="UTF-8" standalone="no"?>
<!DOCTYPE svg PUBLIC "-//W3C//DTD SVG 1.1//EN"
 "http://www.w3.org/Graphics/SVG/1.1/DTD/svg11.dtd">
<!-- Generated by graphviz version 2.43.0 (0)
 -->
<!-- Title: Op_Div_PolyMAC Pages: 1 -->
<svg width="303pt" height="252pt"
 viewBox="0.00 0.00 302.50 252.00" xmlns="http://www.w3.org/2000/svg" xmlns:xlink="http://www.w3.org/1999/xlink">
<g id="graph0" class="graph" transform="scale(1 1) rotate(0) translate(4 248)">
<title>Op_Div_PolyMAC</title>
<polygon fill="white" stroke="transparent" points="-4,4 -4,-248 298.5,-248 298.5,4 -4,4"/>
<!-- Node1 -->
<g id="node1" class="node">
<title>Node1</title>
<g id="a_node1"><a xlink:title="class Op_Div_PolyMAC Cette classe represente l&#39;operateur de divergence La discretisation est PolyMAC ...">
<polygon fill="#bfbfbf" stroke="black" points="50.5,-0.5 50.5,-19.5 151.5,-19.5 151.5,-0.5 50.5,-0.5"/>
<text text-anchor="middle" x="101" y="-7.5" font-family="Helvetica,sans-Serif" font-size="10.00">Op_Div_PolyMAC</text>
</a>
</g>
</g>
<!-- Node2 -->
<g id="node2" class="node">
<title>Node2</title>
<g id="a_node2"><a xlink:href="classOperateur__Div__base.html" target="_top" xlink:title="Classe Operateur_Div_base Cette classe est la base de la hierarchie des operateurs representant le ca...">
<polygon fill="white" stroke="black" points="43,-56.5 43,-75.5 159,-75.5 159,-56.5 43,-56.5"/>
<text text-anchor="middle" x="101" y="-63.5" font-family="Helvetica,sans-Serif" font-size="10.00">Operateur_Div_base</text>
</a>
</g>
</g>
<!-- Node2&#45;&gt;Node1 -->
<g id="edge1" class="edge">
<title>Node2&#45;&gt;Node1</title>
<path fill="none" stroke="midnightblue" d="M101,-45.8C101,-36.91 101,-26.78 101,-19.75"/>
<polygon fill="midnightblue" stroke="midnightblue" points="97.5,-46.08 101,-56.08 104.5,-46.08 97.5,-46.08"/>
</g>
<!-- Node3 -->
<g id="node3" class="node">
<title>Node3</title>
<g id="a_node3"><a xlink:href="classOperateur__base.html" target="_top" xlink:title="classe Operateur_base Classe est la base de la hierarchie des objets representant un operateur utilis...">
<polygon fill="white" stroke="black" points="54,-112.5 54,-131.5 148,-131.5 148,-112.5 54,-112.5"/>
<text text-anchor="middle" x="101" y="-119.5" font-family="Helvetica,sans-Serif" font-size="10.00">Operateur_base</text>
</a>
</g>
</g>
<!-- Node3&#45;&gt;Node2 -->
<g id="edge2" class="edge">
<title>Node3&#45;&gt;Node2</title>
<path fill="none" stroke="midnightblue" d="M101,-101.8C101,-92.91 101,-82.78 101,-75.75"/>
<polygon fill="midnightblue" stroke="midnightblue" points="97.5,-102.08 101,-112.08 104.5,-102.08 97.5,-102.08"/>
</g>
<!-- Node4 -->
<g id="node4" class="node">
<title>Node4</title>
<g id="a_node4"><a xlink:href="classObjet__U.html" target="_top" xlink:title="classe Objet_U Cette classe est la classe de base des Objets de TRUST Dans les classes derivees de Ob...">
<polygon fill="white" stroke="black" points="0,-168.5 0,-187.5 56,-187.5 56,-168.5 0,-168.5"/>
<text text-anchor="middle" x="28" y="-175.5" font-family="Helvetica,sans-Serif" font-size="10.00">Objet_U</text>
</a>
</g>
</g>
<!-- Node4&#45;&gt;Node3 -->
<g id="edge3" class="edge">
<title>Node4&#45;&gt;Node3</title>
<path fill="none" stroke="midnightblue" d="M48.14,-162.1C61.28,-152.38 77.98,-140.03 89.06,-131.83"/>
<polygon fill="midnightblue" stroke="midnightblue" points="45.69,-159.56 39.73,-168.32 49.85,-165.19 45.69,-159.56"/>
</g>
<!-- Node5 -->
<g id="node5" class="node">
<title>Node5</title>
<g id="a_node5"><a xlink:href="classProcess.html" target="_top" xlink:title="Classe de base de TRUST (notamment Objet_U). Elle fournit quelques services de base accessibles de pa...">
<polygon fill="white" stroke="black" points="1,-224.5 1,-243.5 55,-243.5 55,-224.5 1,-224.5"/>
<text text-anchor="middle" x="28" y="-231.5" font-family="Helvetica,sans-Serif" font-size="10.00">Process</text>
</a>
</g>
</g>
<!-- Node5&#45;&gt;Node4 -->
<g id="edge4" class="edge">
<title>Node5&#45;&gt;Node4</title>
<path fill="none" stroke="midnightblue" d="M28,-213.8C28,-204.91 28,-194.78 28,-187.75"/>
<polygon fill="midnightblue" stroke="midnightblue" points="24.5,-214.08 28,-224.08 31.5,-214.08 24.5,-214.08"/>
</g>
<!-- Node6 -->
<g id="node6" class="node">
<title>Node6</title>
<g id="a_node6"><a xlink:href="classMorEqn.html" target="_top" xlink:title="classe MorEqn Classe qui regroupe les fonctionnalites de liaison avec une Equation....">
<polygon fill="white" stroke="black" points="74.5,-168.5 74.5,-187.5 127.5,-187.5 127.5,-168.5 74.5,-168.5"/>
<text text-anchor="middle" x="101" y="-175.5" font-family="Helvetica,sans-Serif" font-size="10.00">MorEqn</text>
</a>
</g>
</g>
<!-- Node6&#45;&gt;Node3 -->
<g id="edge5" class="edge">
<title>Node6&#45;&gt;Node3</title>
<path fill="none" stroke="midnightblue" d="M101,-157.8C101,-148.91 101,-138.78 101,-131.75"/>
<polygon fill="midnightblue" stroke="midnightblue" points="97.5,-158.08 101,-168.08 104.5,-158.08 97.5,-158.08"/>
</g>
<!-- Node7 -->
<g id="node7" class="node">
<title>Node7</title>
<g id="a_node7"><a xlink:href="classChamps__compris__interface.html" target="_top" xlink:title="classe Champs_compris_interface Cette classe contient une interface de methodes destinees a gerer les...">
<polygon fill="white" stroke="black" points="145.5,-168.5 145.5,-187.5 294.5,-187.5 294.5,-168.5 145.5,-168.5"/>
<text text-anchor="middle" x="220" y="-175.5" font-family="Helvetica,sans-Serif" font-size="10.00">Champs_compris_interface</text>
</a>
</g>
</g>
<!-- Node7&#45;&gt;Node3 -->
<g id="edge6" class="edge">
<title>Node7&#45;&gt;Node3</title>
<path fill="none" stroke="midnightblue" d="M191.86,-164.23C169.6,-154.13 139.14,-140.31 119.77,-131.52"/>
<polygon fill="midnightblue" stroke="midnightblue" points="190.59,-167.5 201.14,-168.44 193.48,-161.12 190.59,-167.5"/>
</g>
</g>
</svg>
