<?xml version="1.0" encoding="UTF-8" standalone="no"?>
<!DOCTYPE svg PUBLIC "-//W3C//DTD SVG 1.1//EN"
 "http://www.w3.org/Graphics/SVG/1.1/DTD/svg11.dtd">
<!-- Generated by graphviz version 2.43.0 (0)
 -->
<!-- Title: Champ_Fonc_P0_VEF Pages: 1 -->
<svg width="1285pt" height="332pt"
 viewBox="0.00 0.00 1285.00 332.00" xmlns="http://www.w3.org/2000/svg" xmlns:xlink="http://www.w3.org/1999/xlink">
<g id="graph0" class="graph" transform="scale(1 1) rotate(0) translate(4 328)">
<title>Champ_Fonc_P0_VEF</title>
<polygon fill="white" stroke="transparent" points="-4,4 -4,-328 1281,-328 1281,4 -4,4"/>
<!-- Node1 -->
<g id="node1" class="node">
<title>Node1</title>
<g id="a_node1"><a xlink:title="classe Champ_Fonc_P0_VEF">
<polygon fill="#bfbfbf" stroke="black" points="964,-152.5 964,-171.5 1084,-171.5 1084,-152.5 964,-152.5"/>
<text text-anchor="middle" x="1024" y="-159.5" font-family="Helvetica,sans-Serif" font-size="10.00">Champ_Fonc_P0_VEF</text>
</a>
</g>
</g>
<!-- Node12 -->
<g id="node12" class="node">
<title>Node12</title>
<g id="a_node12"><a xlink:href="classChamp__Fonc__Tabule__P0__VEF.html" target="_top" xlink:title=" ">
<polygon fill="white" stroke="black" points="1120,-304.5 1120,-323.5 1277,-323.5 1277,-304.5 1120,-304.5"/>
<text text-anchor="middle" x="1198.5" y="-311.5" font-family="Helvetica,sans-Serif" font-size="10.00">Champ_Fonc_Tabule_P0_VEF</text>
</a>
</g>
</g>
<!-- Node1&#45;&gt;Node12 -->
<g id="edge11" class="edge">
<title>Node1&#45;&gt;Node12</title>
<path fill="none" stroke="midnightblue" d="M1033.2,-180.99C1046.81,-210.2 1076.92,-265.81 1120,-295 1125.73,-298.89 1132.19,-301.98 1138.85,-304.44"/>
<polygon fill="midnightblue" stroke="midnightblue" points="1036.38,-179.52 1029.07,-171.85 1029.99,-182.4 1036.38,-179.52"/>
</g>
<!-- Node13 -->
<g id="node13" class="node">
<title>Node13</title>
<g id="a_node13"><a xlink:href="classCritere__Q__Champ__P1NC.html" target="_top" xlink:title="classe Critere_Q_Champ_P1NC">
<polygon fill="white" stroke="black" points="1131.5,-266.5 1131.5,-285.5 1265.5,-285.5 1265.5,-266.5 1131.5,-266.5"/>
<text text-anchor="middle" x="1198.5" y="-273.5" font-family="Helvetica,sans-Serif" font-size="10.00">Critere_Q_Champ_P1NC</text>
</a>
</g>
</g>
<!-- Node1&#45;&gt;Node13 -->
<g id="edge12" class="edge">
<title>Node1&#45;&gt;Node13</title>
<path fill="none" stroke="midnightblue" d="M1037.83,-179.8C1054.36,-201.41 1085.15,-237.37 1120,-257 1126.88,-260.87 1134.54,-263.97 1142.29,-266.43"/>
<polygon fill="midnightblue" stroke="midnightblue" points="1040.43,-177.44 1031.64,-171.51 1034.82,-181.62 1040.43,-177.44"/>
</g>
<!-- Node14 -->
<g id="node14" class="node">
<title>Node14</title>
<g id="a_node14"><a xlink:href="classRotationnel__Champ__P1NC.html" target="_top" xlink:title=" ">
<polygon fill="white" stroke="black" points="1126.5,-228.5 1126.5,-247.5 1270.5,-247.5 1270.5,-228.5 1126.5,-228.5"/>
<text text-anchor="middle" x="1198.5" y="-235.5" font-family="Helvetica,sans-Serif" font-size="10.00">Rotationnel_Champ_P1NC</text>
</a>
</g>
</g>
<!-- Node1&#45;&gt;Node14 -->
<g id="edge13" class="edge">
<title>Node1&#45;&gt;Node14</title>
<path fill="none" stroke="midnightblue" d="M1046.51,-177.48C1065.14,-190.25 1093.25,-207.99 1120,-219 1129.1,-222.74 1139.11,-225.87 1148.83,-228.44"/>
<polygon fill="midnightblue" stroke="midnightblue" points="1048.37,-174.51 1038.17,-171.66 1044.37,-180.25 1048.37,-174.51"/>
</g>
<!-- Node15 -->
<g id="node15" class="node">
<title>Node15</title>
<g id="a_node15"><a xlink:href="classRotationnel__Champ__Q1NC.html" target="_top" xlink:title=" ">
<polygon fill="white" stroke="black" points="1125.5,-190.5 1125.5,-209.5 1271.5,-209.5 1271.5,-190.5 1125.5,-190.5"/>
<text text-anchor="middle" x="1198.5" y="-197.5" font-family="Helvetica,sans-Serif" font-size="10.00">Rotationnel_Champ_Q1NC</text>
</a>
</g>
</g>
<!-- Node1&#45;&gt;Node15 -->
<g id="edge14" class="edge">
<title>Node1&#45;&gt;Node15</title>
<path fill="none" stroke="midnightblue" d="M1078.35,-173.75C1102.74,-179.13 1131.26,-185.41 1154.28,-190.48"/>
<polygon fill="midnightblue" stroke="midnightblue" points="1079.05,-170.32 1068.53,-171.59 1077.54,-177.16 1079.05,-170.32"/>
</g>
<!-- Node16 -->
<g id="node16" class="node">
<title>Node16</title>
<g id="a_node16"><a xlink:href="classTaux__cisaillement__P0__VEF.html" target="_top" xlink:title="classe Taux_cisaillement_P0_VEF">
<polygon fill="white" stroke="black" points="1125.5,-152.5 1125.5,-171.5 1271.5,-171.5 1271.5,-152.5 1125.5,-152.5"/>
<text text-anchor="middle" x="1198.5" y="-159.5" font-family="Helvetica,sans-Serif" font-size="10.00">Taux_cisaillement_P0_VEF</text>
</a>
</g>
</g>
<!-- Node1&#45;&gt;Node16 -->
<g id="edge15" class="edge">
<title>Node1&#45;&gt;Node16</title>
<path fill="none" stroke="midnightblue" d="M1094.38,-162C1104.53,-162 1115.01,-162 1125.21,-162"/>
<polygon fill="midnightblue" stroke="midnightblue" points="1094.36,-158.5 1084.36,-162 1094.36,-165.5 1094.36,-158.5"/>
</g>
<!-- Node17 -->
<g id="node17" class="node">
<title>Node17</title>
<g id="a_node17"><a xlink:href="classY__plus__Champ__P1NC.html" target="_top" xlink:title="classe Y_plus_Champ_P1NC">
<polygon fill="white" stroke="black" points="1139,-114.5 1139,-133.5 1258,-133.5 1258,-114.5 1139,-114.5"/>
<text text-anchor="middle" x="1198.5" y="-121.5" font-family="Helvetica,sans-Serif" font-size="10.00">Y_plus_Champ_P1NC</text>
</a>
</g>
</g>
<!-- Node1&#45;&gt;Node17 -->
<g id="edge16" class="edge">
<title>Node1&#45;&gt;Node17</title>
<path fill="none" stroke="midnightblue" d="M1078.35,-150.25C1102.74,-144.87 1131.26,-138.59 1154.28,-133.52"/>
<polygon fill="midnightblue" stroke="midnightblue" points="1077.54,-146.84 1068.53,-152.41 1079.05,-153.68 1077.54,-146.84"/>
</g>
<!-- Node18 -->
<g id="node18" class="node">
<title>Node18</title>
<g id="a_node18"><a xlink:href="classgrad__T__Champ__P1NC.html" target="_top" xlink:title="classe grad_T_Champ_P1NC">
<polygon fill="white" stroke="black" points="1138,-76.5 1138,-95.5 1259,-95.5 1259,-76.5 1138,-76.5"/>
<text text-anchor="middle" x="1198.5" y="-83.5" font-family="Helvetica,sans-Serif" font-size="10.00">grad_T_Champ_P1NC</text>
</a>
</g>
</g>
<!-- Node1&#45;&gt;Node18 -->
<g id="edge17" class="edge">
<title>Node1&#45;&gt;Node18</title>
<path fill="none" stroke="midnightblue" d="M1046.51,-146.52C1065.14,-133.75 1093.25,-116.01 1120,-105 1129.1,-101.26 1139.11,-98.13 1148.83,-95.56"/>
<polygon fill="midnightblue" stroke="midnightblue" points="1044.37,-143.75 1038.17,-152.34 1048.37,-149.49 1044.37,-143.75"/>
</g>
<!-- Node19 -->
<g id="node19" class="node">
<title>Node19</title>
<g id="a_node19"><a xlink:href="classgrad__U__Champ__P1NC.html" target="_top" xlink:title="classe grad_U_Champ_P1NC">
<polygon fill="white" stroke="black" points="1137.5,-38.5 1137.5,-57.5 1259.5,-57.5 1259.5,-38.5 1137.5,-38.5"/>
<text text-anchor="middle" x="1198.5" y="-45.5" font-family="Helvetica,sans-Serif" font-size="10.00">grad_U_Champ_P1NC</text>
</a>
</g>
</g>
<!-- Node1&#45;&gt;Node19 -->
<g id="edge18" class="edge">
<title>Node1&#45;&gt;Node19</title>
<path fill="none" stroke="midnightblue" d="M1037.83,-144.2C1054.36,-122.59 1085.15,-86.63 1120,-67 1126.88,-63.13 1134.54,-60.03 1142.29,-57.57"/>
<polygon fill="midnightblue" stroke="midnightblue" points="1034.82,-142.38 1031.64,-152.49 1040.43,-146.56 1034.82,-142.38"/>
</g>
<!-- Node20 -->
<g id="node20" class="node">
<title>Node20</title>
<g id="a_node20"><a xlink:href="classh__conv__Champ__P1NC.html" target="_top" xlink:title="classe h_conv_Champ_P1NC">
<polygon fill="white" stroke="black" points="1137.5,-0.5 1137.5,-19.5 1259.5,-19.5 1259.5,-0.5 1137.5,-0.5"/>
<text text-anchor="middle" x="1198.5" y="-7.5" font-family="Helvetica,sans-Serif" font-size="10.00">h_conv_Champ_P1NC</text>
</a>
</g>
</g>
<!-- Node1&#45;&gt;Node20 -->
<g id="edge19" class="edge">
<title>Node1&#45;&gt;Node20</title>
<path fill="none" stroke="midnightblue" d="M1033.2,-143.01C1046.81,-113.8 1076.92,-58.19 1120,-29 1125.73,-25.11 1132.19,-22.02 1138.85,-19.56"/>
<polygon fill="midnightblue" stroke="midnightblue" points="1029.99,-141.6 1029.07,-152.15 1036.38,-144.48 1029.99,-141.6"/>
</g>
<!-- Node2 -->
<g id="node2" class="node">
<title>Node2</title>
<g id="a_node2"><a xlink:href="classChamp__Fonc__P0__base.html" target="_top" xlink:title=": class Champ_Fonc_P0_base Decrire ici la classe Champ_Fonc_P0_base">
<polygon fill="white" stroke="black" points="803,-152.5 803,-171.5 928,-171.5 928,-152.5 803,-152.5"/>
<text text-anchor="middle" x="865.5" y="-159.5" font-family="Helvetica,sans-Serif" font-size="10.00">Champ_Fonc_P0_base</text>
</a>
</g>
</g>
<!-- Node2&#45;&gt;Node1 -->
<g id="edge1" class="edge">
<title>Node2&#45;&gt;Node1</title>
<path fill="none" stroke="midnightblue" d="M938.61,-162C947.07,-162 955.63,-162 963.89,-162"/>
<polygon fill="midnightblue" stroke="midnightblue" points="938.35,-158.5 928.35,-162 938.35,-165.5 938.35,-158.5"/>
</g>
<!-- Node3 -->
<g id="node3" class="node">
<title>Node3</title>
<g id="a_node3"><a xlink:href="classChamp__Fonc__base.html" target="_top" xlink:title="classe Champ_Fonc_base Classe de base des champs qui sont fonction d&#39;une grandeur calculee au cours d...">
<polygon fill="white" stroke="black" points="637.5,-171.5 637.5,-190.5 744.5,-190.5 744.5,-171.5 637.5,-171.5"/>
<text text-anchor="middle" x="691" y="-178.5" font-family="Helvetica,sans-Serif" font-size="10.00">Champ_Fonc_base</text>
</a>
</g>
</g>
<!-- Node3&#45;&gt;Node2 -->
<g id="edge2" class="edge">
<title>Node3&#45;&gt;Node2</title>
<path fill="none" stroke="midnightblue" d="M754.78,-174.08C770.42,-172.36 787.16,-170.52 802.75,-168.8"/>
<polygon fill="midnightblue" stroke="midnightblue" points="754.25,-170.62 744.69,-175.2 755.02,-177.58 754.25,-170.62"/>
</g>
<!-- Node4 -->
<g id="node4" class="node">
<title>Node4</title>
<g id="a_node4"><a xlink:href="classChamp__Don__base.html" target="_top" xlink:title=" ">
<polygon fill="white" stroke="black" points="445.5,-171.5 445.5,-190.5 549.5,-190.5 549.5,-171.5 445.5,-171.5"/>
<text text-anchor="middle" x="497.5" y="-178.5" font-family="Helvetica,sans-Serif" font-size="10.00">Champ_Don_base</text>
</a>
</g>
</g>
<!-- Node4&#45;&gt;Node3 -->
<g id="edge3" class="edge">
<title>Node4&#45;&gt;Node3</title>
<path fill="none" stroke="midnightblue" d="M559.68,-181C584.7,-181 613.35,-181 637.41,-181"/>
<polygon fill="midnightblue" stroke="midnightblue" points="559.57,-177.5 549.57,-181 559.57,-184.5 559.57,-177.5"/>
</g>
<!-- Node5 -->
<g id="node5" class="node">
<title>Node5</title>
<g id="a_node5"><a xlink:href="classChamp__base.html" target="_top" xlink:title="classe Champ_base Cette classe est la base de la hierarchie des champs. Ses membres sont les attribut...">
<polygon fill="white" stroke="black" points="300,-171.5 300,-190.5 380,-190.5 380,-171.5 300,-171.5"/>
<text text-anchor="middle" x="340" y="-178.5" font-family="Helvetica,sans-Serif" font-size="10.00">Champ_base</text>
</a>
</g>
</g>
<!-- Node5&#45;&gt;Node4 -->
<g id="edge4" class="edge">
<title>Node5&#45;&gt;Node4</title>
<path fill="none" stroke="midnightblue" d="M390.26,-181C407.78,-181 427.53,-181 445.21,-181"/>
<polygon fill="midnightblue" stroke="midnightblue" points="390.24,-177.5 380.24,-181 390.24,-184.5 390.24,-177.5"/>
</g>
<!-- Node6 -->
<g id="node6" class="node">
<title>Node6</title>
<g id="a_node6"><a xlink:href="classField__base.html" target="_top" xlink:title=" ">
<polygon fill="white" stroke="black" points="189,-190.5 189,-209.5 257,-209.5 257,-190.5 189,-190.5"/>
<text text-anchor="middle" x="223" y="-197.5" font-family="Helvetica,sans-Serif" font-size="10.00">Field_base</text>
</a>
</g>
</g>
<!-- Node6&#45;&gt;Node5 -->
<g id="edge5" class="edge">
<title>Node6&#45;&gt;Node5</title>
<path fill="none" stroke="midnightblue" d="M267.22,-192.86C277.89,-191.1 289.25,-189.22 299.72,-187.49"/>
<polygon fill="midnightblue" stroke="midnightblue" points="266.56,-189.42 257.26,-194.5 267.7,-196.33 266.56,-189.42"/>
</g>
<!-- Node7 -->
<g id="node7" class="node">
<title>Node7</title>
<g id="a_node7"><a xlink:href="classObjet__U.html" target="_top" xlink:title="classe Objet_U Cette classe est la classe de base des Objets de TRUST Dans les classes derivees de Ob...">
<polygon fill="white" stroke="black" points="90,-190.5 90,-209.5 146,-209.5 146,-190.5 90,-190.5"/>
<text text-anchor="middle" x="118" y="-197.5" font-family="Helvetica,sans-Serif" font-size="10.00">Objet_U</text>
</a>
</g>
</g>
<!-- Node7&#45;&gt;Node6 -->
<g id="edge6" class="edge">
<title>Node7&#45;&gt;Node6</title>
<path fill="none" stroke="midnightblue" d="M156.34,-200C166.98,-200 178.5,-200 188.87,-200"/>
<polygon fill="midnightblue" stroke="midnightblue" points="156.06,-196.5 146.06,-200 156.06,-203.5 156.06,-196.5"/>
</g>
<!-- Node8 -->
<g id="node8" class="node">
<title>Node8</title>
<g id="a_node8"><a xlink:href="classProcess.html" target="_top" xlink:title="Classe de base de TRUST (notamment Objet_U). Elle fournit quelques services de base accessibles de pa...">
<polygon fill="white" stroke="black" points="0,-190.5 0,-209.5 54,-209.5 54,-190.5 0,-190.5"/>
<text text-anchor="middle" x="27" y="-197.5" font-family="Helvetica,sans-Serif" font-size="10.00">Process</text>
</a>
</g>
</g>
<!-- Node8&#45;&gt;Node7 -->
<g id="edge7" class="edge">
<title>Node8&#45;&gt;Node7</title>
<path fill="none" stroke="midnightblue" d="M64.29,-200C72.79,-200 81.7,-200 89.73,-200"/>
<polygon fill="midnightblue" stroke="midnightblue" points="64.22,-196.5 54.22,-200 64.22,-203.5 64.22,-196.5"/>
</g>
<!-- Node9 -->
<g id="node9" class="node">
<title>Node9</title>
<g id="a_node9"><a xlink:href="classChamp__Proto.html" target="_top" xlink:title="classe Champ_Proto Classe representant un prototype de Champ. Tous les classes representant des champ...">
<polygon fill="white" stroke="black" points="182,-152.5 182,-171.5 264,-171.5 264,-152.5 182,-152.5"/>
<text text-anchor="middle" x="223" y="-159.5" font-family="Helvetica,sans-Serif" font-size="10.00">Champ_Proto</text>
</a>
</g>
</g>
<!-- Node9&#45;&gt;Node5 -->
<g id="edge8" class="edge">
<title>Node9&#45;&gt;Node5</title>
<path fill="none" stroke="midnightblue" d="M274.14,-170.28C282.72,-171.7 291.53,-173.16 299.77,-174.52"/>
<polygon fill="midnightblue" stroke="midnightblue" points="274.66,-166.82 264.22,-168.65 273.52,-173.73 274.66,-166.82"/>
</g>
<!-- Node10 -->
<g id="node10" class="node">
<title>Node10</title>
<g id="a_node10"><a xlink:href="classChamp__implementation__P0.html" target="_top" xlink:title=": class Champ_implementation_P0 Decrire ici la classe Champ_implementation_P0">
<polygon fill="white" stroke="black" points="615,-133.5 615,-152.5 767,-152.5 767,-133.5 615,-133.5"/>
<text text-anchor="middle" x="691" y="-140.5" font-family="Helvetica,sans-Serif" font-size="10.00">Champ_implementation_P0</text>
</a>
</g>
</g>
<!-- Node10&#45;&gt;Node2 -->
<g id="edge9" class="edge">
<title>Node10&#45;&gt;Node2</title>
<path fill="none" stroke="midnightblue" d="M777.24,-152.39C785.85,-153.34 794.48,-154.29 802.77,-155.2"/>
<polygon fill="midnightblue" stroke="midnightblue" points="777.48,-148.89 767.16,-151.28 776.72,-155.85 777.48,-148.89"/>
</g>
<!-- Node11 -->
<g id="node11" class="node">
<title>Node11</title>
<g id="a_node11"><a xlink:href="classChamp__implementation__base.html" target="_top" xlink:title=": class Champ_implementation_base Decrire ici la classe Champ_implementation_base">
<polygon fill="white" stroke="black" points="416,-133.5 416,-152.5 579,-152.5 579,-133.5 416,-133.5"/>
<text text-anchor="middle" x="497.5" y="-140.5" font-family="Helvetica,sans-Serif" font-size="10.00">Champ_implementation_base</text>
</a>
</g>
</g>
<!-- Node11&#45;&gt;Node10 -->
<g id="edge10" class="edge">
<title>Node11&#45;&gt;Node10</title>
<path fill="none" stroke="midnightblue" d="M589.22,-143C597.83,-143 606.49,-143 614.93,-143"/>
<polygon fill="midnightblue" stroke="midnightblue" points="589.16,-139.5 579.16,-143 589.16,-146.5 589.16,-139.5"/>
</g>
</g>
</svg>
