<?xml version="1.0" encoding="UTF-8" standalone="no"?>
<!DOCTYPE svg PUBLIC "-//W3C//DTD SVG 1.1//EN"
 "http://www.w3.org/Graphics/SVG/1.1/DTD/svg11.dtd">
<!-- Generated by graphviz version 2.43.0 (0)
 -->
<!-- Title: Eval_Quick_VDF_Face Pages: 1 -->
<svg width="454pt" height="231pt"
 viewBox="0.00 0.00 454.00 231.00" xmlns="http://www.w3.org/2000/svg" xmlns:xlink="http://www.w3.org/1999/xlink">
<g id="graph0" class="graph" transform="scale(1 1) rotate(0) translate(4 227)">
<title>Eval_Quick_VDF_Face</title>
<polygon fill="white" stroke="transparent" points="-4,4 -4,-227 450,-227 450,4 -4,4"/>
<!-- Node1 -->
<g id="node1" class="node">
<title>Node1</title>
<g id="a_node1"><a xlink:title="class Eval_Quick_VDF_Face Evaluateur VDF pour la convection Le champ convecte est un Champ_Face Schem...">
<polygon fill="#bfbfbf" stroke="black" points="121.5,-0.5 121.5,-19.5 244.5,-19.5 244.5,-0.5 121.5,-0.5"/>
<text text-anchor="middle" x="183" y="-7.5" font-family="Helvetica,sans-Serif" font-size="10.00">Eval_Quick_VDF_Face</text>
</a>
</g>
</g>
<!-- Node2 -->
<g id="node2" class="node">
<title>Node2</title>
<g id="a_node2"><a xlink:href="classEval__Conv__VDF__Face.html" target="_top" xlink:title=" ">
<polygon fill="white" stroke="black" points="37,-57.5 37,-87.5 183,-87.5 183,-57.5 37,-57.5"/>
<text text-anchor="start" x="45" y="-75.5" font-family="Helvetica,sans-Serif" font-size="10.00">Eval_Conv_VDF_Face</text>
<text text-anchor="middle" x="110" y="-64.5" font-family="Helvetica,sans-Serif" font-size="10.00">&lt; Eval_Quick_VDF_Face &gt;</text>
</a>
</g>
</g>
<!-- Node2&#45;&gt;Node1 -->
<g id="edge1" class="edge">
<title>Node2&#45;&gt;Node1</title>
<path fill="none" stroke="midnightblue" d="M134.65,-51.07C147.63,-40.31 162.85,-27.7 172.7,-19.54"/>
<polygon fill="midnightblue" stroke="midnightblue" points="132.4,-48.39 126.93,-57.47 136.86,-53.78 132.4,-48.39"/>
</g>
<!-- Node3 -->
<g id="node3" class="node">
<title>Node3</title>
<g id="a_node3"><a xlink:href="classEval__VDF__Face.html" target="_top" xlink:title="&lt; For SFINAE later ...">
<polygon fill="white" stroke="black" points="0,-203.5 0,-222.5 90,-222.5 90,-203.5 0,-203.5"/>
<text text-anchor="middle" x="45" y="-210.5" font-family="Helvetica,sans-Serif" font-size="10.00">Eval_VDF_Face</text>
</a>
</g>
</g>
<!-- Node3&#45;&gt;Node2 -->
<g id="edge2" class="edge">
<title>Node3&#45;&gt;Node2</title>
<path fill="none" stroke="midnightblue" d="M43.37,-193.18C42.73,-177.04 43.66,-153.51 52,-135 60.62,-115.87 77.71,-98.92 91.11,-87.69"/>
<polygon fill="midnightblue" stroke="midnightblue" points="39.89,-193.7 44.02,-203.46 46.88,-193.25 39.89,-193.7"/>
</g>
<!-- Node4 -->
<g id="node4" class="node">
<title>Node4</title>
<g id="a_node4"><a xlink:href="classEval__Conv__VDF__Face.html" target="_top" xlink:title="templates specializations ici ;)">
<polygon fill="white" stroke="black" points="61,-135.5 61,-165.5 181,-165.5 181,-135.5 61,-135.5"/>
<text text-anchor="start" x="69" y="-153.5" font-family="Helvetica,sans-Serif" font-size="10.00">Eval_Conv_VDF_Face</text>
<text text-anchor="middle" x="121" y="-142.5" font-family="Helvetica,sans-Serif" font-size="10.00">&lt; DERIVED_T &gt;</text>
</a>
</g>
</g>
<!-- Node3&#45;&gt;Node4 -->
<g id="edge4" class="edge">
<title>Node3&#45;&gt;Node4</title>
<path fill="none" stroke="midnightblue" d="M63.97,-196.9C76.04,-187.29 91.58,-174.92 103.38,-165.53"/>
<polygon fill="midnightblue" stroke="midnightblue" points="61.53,-194.37 55.89,-203.33 65.89,-199.84 61.53,-194.37"/>
</g>
<!-- Node4&#45;&gt;Node2 -->
<g id="edge3" class="edge">
<title>Node4&#45;&gt;Node2</title>
<path fill="none" stroke="orange" stroke-dasharray="5,2" d="M117.47,-125.09C115.68,-112.76 113.58,-98.22 112.06,-87.73"/>
<polygon fill="orange" stroke="orange" points="114.03,-125.81 118.93,-135.2 120.96,-124.81 114.03,-125.81"/>
<text text-anchor="middle" x="183.5" y="-109" font-family="Helvetica,sans-Serif" font-size="10.00"> &lt; Eval_Quick_VDF_Face &gt;</text>
</g>
<!-- Node5 -->
<g id="node5" class="node">
<title>Node5</title>
<g id="a_node5"><a xlink:href="classEval__Conv__VDF.html" target="_top" xlink:title="class Eval_Conv_VDF classe de base des evaluateurs de convection VDF">
<polygon fill="white" stroke="black" points="211.5,-63 211.5,-82 304.5,-82 304.5,-63 211.5,-63"/>
<text text-anchor="middle" x="258" y="-70" font-family="Helvetica,sans-Serif" font-size="10.00">Eval_Conv_VDF</text>
</a>
</g>
</g>
<!-- Node5&#45;&gt;Node1 -->
<g id="edge5" class="edge">
<title>Node5&#45;&gt;Node1</title>
<path fill="none" stroke="midnightblue" d="M239.46,-56.55C225.08,-44.94 205.64,-29.26 193.73,-19.65"/>
<polygon fill="midnightblue" stroke="midnightblue" points="237.27,-59.28 247.25,-62.83 241.67,-53.83 237.27,-59.28"/>
</g>
<!-- Node6 -->
<g id="node6" class="node">
<title>Node6</title>
<g id="a_node6"><a xlink:href="classEvaluateur__VDF.html" target="_top" xlink:title="class Evaluateur_VDF Classe de base des evaluateurs VDF. Cette classe n&#39;appartient pas a la hierarchi...">
<polygon fill="white" stroke="black" points="210.5,-141 210.5,-160 305.5,-160 305.5,-141 210.5,-141"/>
<text text-anchor="middle" x="258" y="-148" font-family="Helvetica,sans-Serif" font-size="10.00">Evaluateur_VDF</text>
</a>
</g>
</g>
<!-- Node6&#45;&gt;Node5 -->
<g id="edge6" class="edge">
<title>Node6&#45;&gt;Node5</title>
<path fill="none" stroke="midnightblue" d="M258,-130.72C258,-115.2 258,-93.86 258,-82.12"/>
<polygon fill="midnightblue" stroke="midnightblue" points="254.5,-130.78 258,-140.78 261.5,-130.78 254.5,-130.78"/>
</g>
<!-- Node7 -->
<g id="node7" class="node">
<title>Node7</title>
<g id="a_node7"><a xlink:href="classEval__Conv__VDF__tools.html" target="_top" xlink:title=" ">
<polygon fill="white" stroke="black" points="324,-141 324,-160 446,-160 446,-141 324,-141"/>
<text text-anchor="middle" x="385" y="-148" font-family="Helvetica,sans-Serif" font-size="10.00">Eval_Conv_VDF_tools</text>
</a>
</g>
</g>
<!-- Node7&#45;&gt;Node5 -->
<g id="edge7" class="edge">
<title>Node7&#45;&gt;Node5</title>
<path fill="none" stroke="midnightblue" d="M361.57,-135.48C335.48,-119.86 294.12,-95.11 272.4,-82.12"/>
<polygon fill="midnightblue" stroke="midnightblue" points="360.05,-138.65 370.43,-140.78 363.65,-132.64 360.05,-138.65"/>
</g>
</g>
</svg>
