<?xml version="1.0" encoding="UTF-8" standalone="no"?>
<!DOCTYPE svg PUBLIC "-//W3C//DTD SVG 1.1//EN"
 "http://www.w3.org/Graphics/SVG/1.1/DTD/svg11.dtd">
<!-- Generated by graphviz version 2.43.0 (0)
 -->
<!-- Title: Simpler Pages: 1 -->
<svg width="139pt" height="476pt"
 viewBox="0.00 0.00 139.00 476.00" xmlns="http://www.w3.org/2000/svg" xmlns:xlink="http://www.w3.org/1999/xlink">
<g id="graph0" class="graph" transform="scale(1 1) rotate(0) translate(4 472)">
<title>Simpler</title>
<polygon fill="white" stroke="transparent" points="-4,4 -4,-472 135,-472 135,4 -4,4"/>
<!-- Node1 -->
<g id="node1" class="node">
<title>Node1</title>
<g id="a_node1"><a xlink:title=" ">
<polygon fill="#bfbfbf" stroke="black" points="38.5,-112.5 38.5,-131.5 92.5,-131.5 92.5,-112.5 38.5,-112.5"/>
<text text-anchor="middle" x="65.5" y="-119.5" font-family="Helvetica,sans-Serif" font-size="10.00">Simpler</text>
</a>
</g>
</g>
<!-- Node8 -->
<g id="node8" class="node">
<title>Node8</title>
<g id="a_node8"><a xlink:href="classPiso.html" target="_top" xlink:title=" ">
<polygon fill="white" stroke="black" points="19,-56.5 19,-75.5 56,-75.5 56,-56.5 19,-56.5"/>
<text text-anchor="middle" x="37.5" y="-63.5" font-family="Helvetica,sans-Serif" font-size="10.00">Piso</text>
</a>
</g>
</g>
<!-- Node1&#45;&gt;Node8 -->
<g id="edge7" class="edge">
<title>Node1&#45;&gt;Node8</title>
<path fill="none" stroke="midnightblue" d="M56.16,-102.98C51.41,-93.82 45.84,-83.09 42.04,-75.75"/>
<polygon fill="midnightblue" stroke="midnightblue" points="53.17,-104.82 60.88,-112.08 59.38,-101.59 53.17,-104.82"/>
</g>
<!-- Node10 -->
<g id="node10" class="node">
<title>Node10</title>
<g id="a_node10"><a xlink:href="classSETS.html" target="_top" xlink:title=" ">
<polygon fill="white" stroke="black" points="76,-56.5 76,-75.5 117,-75.5 117,-56.5 76,-56.5"/>
<text text-anchor="middle" x="96.5" y="-63.5" font-family="Helvetica,sans-Serif" font-size="10.00">SETS</text>
</a>
</g>
</g>
<!-- Node1&#45;&gt;Node10 -->
<g id="edge9" class="edge">
<title>Node1&#45;&gt;Node10</title>
<path fill="none" stroke="midnightblue" d="M75.68,-103.27C80.97,-94.05 87.22,-83.17 91.48,-75.75"/>
<polygon fill="midnightblue" stroke="midnightblue" points="72.56,-101.67 70.62,-112.08 78.63,-105.15 72.56,-101.67"/>
</g>
<!-- Node2 -->
<g id="node2" class="node">
<title>Node2</title>
<g id="a_node2"><a xlink:href="classSimple.html" target="_top" xlink:title=" ">
<polygon fill="white" stroke="black" points="40.5,-168.5 40.5,-187.5 90.5,-187.5 90.5,-168.5 40.5,-168.5"/>
<text text-anchor="middle" x="65.5" y="-175.5" font-family="Helvetica,sans-Serif" font-size="10.00">Simple</text>
</a>
</g>
</g>
<!-- Node2&#45;&gt;Node1 -->
<g id="edge1" class="edge">
<title>Node2&#45;&gt;Node1</title>
<path fill="none" stroke="midnightblue" d="M65.5,-157.8C65.5,-148.91 65.5,-138.78 65.5,-131.75"/>
<polygon fill="midnightblue" stroke="midnightblue" points="62,-158.08 65.5,-168.08 69,-158.08 62,-158.08"/>
</g>
<!-- Node3 -->
<g id="node3" class="node">
<title>Node3</title>
<g id="a_node3"><a xlink:href="classSimpler__Base.html" target="_top" xlink:title=" ">
<polygon fill="white" stroke="black" points="24,-224.5 24,-243.5 107,-243.5 107,-224.5 24,-224.5"/>
<text text-anchor="middle" x="65.5" y="-231.5" font-family="Helvetica,sans-Serif" font-size="10.00">Simpler_Base</text>
</a>
</g>
</g>
<!-- Node3&#45;&gt;Node2 -->
<g id="edge2" class="edge">
<title>Node3&#45;&gt;Node2</title>
<path fill="none" stroke="midnightblue" d="M65.5,-213.8C65.5,-204.91 65.5,-194.78 65.5,-187.75"/>
<polygon fill="midnightblue" stroke="midnightblue" points="62,-214.08 65.5,-224.08 69,-214.08 62,-214.08"/>
</g>
<!-- Node4 -->
<g id="node4" class="node">
<title>Node4</title>
<g id="a_node4"><a xlink:href="classSolveur__non__lineaire.html" target="_top" xlink:title="class Solveur_non_lineaire">
<polygon fill="white" stroke="black" points="6,-280.5 6,-299.5 125,-299.5 125,-280.5 6,-280.5"/>
<text text-anchor="middle" x="65.5" y="-287.5" font-family="Helvetica,sans-Serif" font-size="10.00">Solveur_non_lineaire</text>
</a>
</g>
</g>
<!-- Node4&#45;&gt;Node3 -->
<g id="edge3" class="edge">
<title>Node4&#45;&gt;Node3</title>
<path fill="none" stroke="midnightblue" d="M65.5,-269.8C65.5,-260.91 65.5,-250.78 65.5,-243.75"/>
<polygon fill="midnightblue" stroke="midnightblue" points="62,-270.08 65.5,-280.08 69,-270.08 62,-270.08"/>
</g>
<!-- Node5 -->
<g id="node5" class="node">
<title>Node5</title>
<g id="a_node5"><a xlink:href="classSolveur__Implicite__Base.html" target="_top" xlink:title=" ">
<polygon fill="white" stroke="black" points="0,-336.5 0,-355.5 131,-355.5 131,-336.5 0,-336.5"/>
<text text-anchor="middle" x="65.5" y="-343.5" font-family="Helvetica,sans-Serif" font-size="10.00">Solveur_Implicite_Base</text>
</a>
</g>
</g>
<!-- Node5&#45;&gt;Node4 -->
<g id="edge4" class="edge">
<title>Node5&#45;&gt;Node4</title>
<path fill="none" stroke="midnightblue" d="M65.5,-325.8C65.5,-316.91 65.5,-306.78 65.5,-299.75"/>
<polygon fill="midnightblue" stroke="midnightblue" points="62,-326.08 65.5,-336.08 69,-326.08 62,-326.08"/>
</g>
<!-- Node6 -->
<g id="node6" class="node">
<title>Node6</title>
<g id="a_node6"><a xlink:href="classObjet__U.html" target="_top" xlink:title="classe Objet_U Cette classe est la classe de base des Objets de TRUST Dans les classes derivees de Ob...">
<polygon fill="white" stroke="black" points="37.5,-392.5 37.5,-411.5 93.5,-411.5 93.5,-392.5 37.5,-392.5"/>
<text text-anchor="middle" x="65.5" y="-399.5" font-family="Helvetica,sans-Serif" font-size="10.00">Objet_U</text>
</a>
</g>
</g>
<!-- Node6&#45;&gt;Node5 -->
<g id="edge5" class="edge">
<title>Node6&#45;&gt;Node5</title>
<path fill="none" stroke="midnightblue" d="M65.5,-381.8C65.5,-372.91 65.5,-362.78 65.5,-355.75"/>
<polygon fill="midnightblue" stroke="midnightblue" points="62,-382.08 65.5,-392.08 69,-382.08 62,-382.08"/>
</g>
<!-- Node7 -->
<g id="node7" class="node">
<title>Node7</title>
<g id="a_node7"><a xlink:href="classProcess.html" target="_top" xlink:title="Classe de base de TRUST (notamment Objet_U). Elle fournit quelques services de base accessibles de pa...">
<polygon fill="white" stroke="black" points="38.5,-448.5 38.5,-467.5 92.5,-467.5 92.5,-448.5 38.5,-448.5"/>
<text text-anchor="middle" x="65.5" y="-455.5" font-family="Helvetica,sans-Serif" font-size="10.00">Process</text>
</a>
</g>
</g>
<!-- Node7&#45;&gt;Node6 -->
<g id="edge6" class="edge">
<title>Node7&#45;&gt;Node6</title>
<path fill="none" stroke="midnightblue" d="M65.5,-437.8C65.5,-428.91 65.5,-418.78 65.5,-411.75"/>
<polygon fill="midnightblue" stroke="midnightblue" points="62,-438.08 65.5,-448.08 69,-438.08 62,-438.08"/>
</g>
<!-- Node9 -->
<g id="node9" class="node">
<title>Node9</title>
<g id="a_node9"><a xlink:href="classImplicite.html" target="_top" xlink:title=" ">
<polygon fill="white" stroke="black" points="5,-0.5 5,-19.5 64,-19.5 64,-0.5 5,-0.5"/>
<text text-anchor="middle" x="34.5" y="-7.5" font-family="Helvetica,sans-Serif" font-size="10.00">Implicite</text>
</a>
</g>
</g>
<!-- Node8&#45;&gt;Node9 -->
<g id="edge8" class="edge">
<title>Node8&#45;&gt;Node9</title>
<path fill="none" stroke="midnightblue" d="M36.43,-45.8C35.94,-36.91 35.38,-26.78 34.99,-19.75"/>
<polygon fill="midnightblue" stroke="midnightblue" points="32.96,-46.29 37,-56.08 39.94,-45.9 32.96,-46.29"/>
</g>
<!-- Node11 -->
<g id="node11" class="node">
<title>Node11</title>
<g id="a_node11"><a xlink:href="classICE.html" target="_top" xlink:title=" ">
<polygon fill="white" stroke="black" points="82.5,-0.5 82.5,-19.5 114.5,-19.5 114.5,-0.5 82.5,-0.5"/>
<text text-anchor="middle" x="98.5" y="-7.5" font-family="Helvetica,sans-Serif" font-size="10.00">ICE</text>
</a>
</g>
</g>
<!-- Node10&#45;&gt;Node11 -->
<g id="edge10" class="edge">
<title>Node10&#45;&gt;Node11</title>
<path fill="none" stroke="midnightblue" d="M97.21,-45.8C97.54,-36.91 97.92,-26.78 98.18,-19.75"/>
<polygon fill="midnightblue" stroke="midnightblue" points="93.7,-45.96 96.83,-56.08 100.7,-46.22 93.7,-45.96"/>
</g>
</g>
</svg>
