<?xml version="1.0" encoding="UTF-8" standalone="no"?>
<!DOCTYPE svg PUBLIC "-//W3C//DTD SVG 1.1//EN"
 "http://www.w3.org/Graphics/SVG/1.1/DTD/svg11.dtd">
<!-- Generated by graphviz version 2.43.0 (0)
 -->
<!-- Title: Champ_Generique_base Pages: 1 -->
<svg width="961pt" height="482pt"
 viewBox="0.00 0.00 961.00 481.50" xmlns="http://www.w3.org/2000/svg" xmlns:xlink="http://www.w3.org/1999/xlink">
<g id="graph0" class="graph" transform="scale(1 1) rotate(0) translate(4 477.5)">
<title>Champ_Generique_base</title>
<polygon fill="white" stroke="transparent" points="-4,4 -4,-477.5 957,-477.5 957,4 -4,4"/>
<!-- Node1 -->
<g id="node1" class="node">
<title>Node1</title>
<g id="a_node1"><a xlink:title="Classe de base des champs generiques pour importation d un champ discret et actions elementaires sur ...">
<polygon fill="#bfbfbf" stroke="black" points="182,-151 182,-170 317,-170 317,-151 182,-151"/>
<text text-anchor="middle" x="249.5" y="-158" font-family="Helvetica,sans-Serif" font-size="10.00">Champ_Generique_base</text>
</a>
</g>
</g>
<!-- Node4 -->
<g id="node4" class="node">
<title>Node4</title>
<g id="a_node4"><a xlink:href="classChamp__Gen__de__Champs__Gen.html" target="_top" xlink:title="Classe de base des champs generiques ayant comme source d&#39;autres champs generiques L&#39;utilisation des ...">
<polygon fill="white" stroke="black" points="353,-252 353,-271 516,-271 516,-252 353,-252"/>
<text text-anchor="middle" x="434.5" y="-259" font-family="Helvetica,sans-Serif" font-size="10.00">Champ_Gen_de_Champs_Gen</text>
</a>
</g>
</g>
<!-- Node1&#45;&gt;Node4 -->
<g id="edge3" class="edge">
<title>Node1&#45;&gt;Node4</title>
<path fill="none" stroke="midnightblue" d="M276.65,-174.93C314.62,-195.89 383.98,-234.17 416.2,-251.95"/>
<polygon fill="midnightblue" stroke="midnightblue" points="278.16,-171.77 267.72,-170 274.78,-177.9 278.16,-171.77"/>
</g>
<!-- Node21 -->
<g id="node21" class="node">
<title>Node21</title>
<g id="a_node21"><a xlink:href="classChamp__Generique__refChamp.html" target="_top" xlink:title="Classe de champ particuliere qui encapsule une reference a un champ volumique de TRUST de type Champ_...">
<polygon fill="white" stroke="black" points="354.5,-50 354.5,-69 514.5,-69 514.5,-50 354.5,-50"/>
<text text-anchor="middle" x="434.5" y="-57" font-family="Helvetica,sans-Serif" font-size="10.00">Champ_Generique_refChamp</text>
</a>
</g>
</g>
<!-- Node1&#45;&gt;Node21 -->
<g id="edge20" class="edge">
<title>Node1&#45;&gt;Node21</title>
<path fill="none" stroke="midnightblue" d="M276.65,-146.07C314.62,-125.11 383.98,-86.83 416.2,-69.05"/>
<polygon fill="midnightblue" stroke="midnightblue" points="274.78,-143.1 267.72,-151 278.16,-149.23 274.78,-143.1"/>
</g>
<!-- Node2 -->
<g id="node2" class="node">
<title>Node2</title>
<g id="a_node2"><a xlink:href="classObjet__U.html" target="_top" xlink:title="classe Objet_U Cette classe est la classe de base des Objets de TRUST Dans les classes derivees de Ob...">
<polygon fill="white" stroke="black" points="90,-151 90,-170 146,-170 146,-151 90,-151"/>
<text text-anchor="middle" x="118" y="-158" font-family="Helvetica,sans-Serif" font-size="10.00">Objet_U</text>
</a>
</g>
</g>
<!-- Node2&#45;&gt;Node1 -->
<g id="edge1" class="edge">
<title>Node2&#45;&gt;Node1</title>
<path fill="none" stroke="midnightblue" d="M156.28,-160.5C164.34,-160.5 173.1,-160.5 181.9,-160.5"/>
<polygon fill="midnightblue" stroke="midnightblue" points="156.15,-157 146.15,-160.5 156.15,-164 156.15,-157"/>
</g>
<!-- Node3 -->
<g id="node3" class="node">
<title>Node3</title>
<g id="a_node3"><a xlink:href="classProcess.html" target="_top" xlink:title="Classe de base de TRUST (notamment Objet_U). Elle fournit quelques services de base accessibles de pa...">
<polygon fill="white" stroke="black" points="0,-151 0,-170 54,-170 54,-151 0,-151"/>
<text text-anchor="middle" x="27" y="-158" font-family="Helvetica,sans-Serif" font-size="10.00">Process</text>
</a>
</g>
</g>
<!-- Node3&#45;&gt;Node2 -->
<g id="edge2" class="edge">
<title>Node3&#45;&gt;Node2</title>
<path fill="none" stroke="midnightblue" d="M64.29,-160.5C72.79,-160.5 81.7,-160.5 89.73,-160.5"/>
<polygon fill="midnightblue" stroke="midnightblue" points="64.22,-157 54.22,-160.5 64.22,-164 64.22,-157"/>
</g>
<!-- Node5 -->
<g id="node5" class="node">
<title>Node5</title>
<g id="a_node5"><a xlink:href="classChamp__Generique__Extraction.html" target="_top" xlink:title="Un champ generique qui effctue l extraction d un champ sur une frontiere.">
<polygon fill="white" stroke="black" points="570.5,-454 570.5,-473 731.5,-473 731.5,-454 570.5,-454"/>
<text text-anchor="middle" x="651" y="-461" font-family="Helvetica,sans-Serif" font-size="10.00">Champ_Generique_Extraction</text>
</a>
</g>
</g>
<!-- Node4&#45;&gt;Node5 -->
<g id="edge4" class="edge">
<title>Node4&#45;&gt;Node5</title>
<path fill="none" stroke="midnightblue" d="M442.09,-281.35C455.89,-319.61 491.64,-403.41 552,-444.5 557.59,-448.3 563.75,-451.39 570.17,-453.89"/>
<polygon fill="midnightblue" stroke="midnightblue" points="445.23,-279.73 438.64,-271.43 438.62,-282.03 445.23,-279.73"/>
</g>
<!-- Node6 -->
<g id="node6" class="node">
<title>Node6</title>
<g id="a_node6"><a xlink:href="classChamp__Generique__Interpolation.html" target="_top" xlink:title="Un champ generique qui est construit comme une interpolation d&#39;un autre champ generique (interpolatio...">
<polygon fill="white" stroke="black" points="564,-416 564,-435 738,-435 738,-416 564,-416"/>
<text text-anchor="middle" x="651" y="-423" font-family="Helvetica,sans-Serif" font-size="10.00">Champ_Generique_Interpolation</text>
</a>
</g>
</g>
<!-- Node4&#45;&gt;Node6 -->
<g id="edge5" class="edge">
<title>Node4&#45;&gt;Node6</title>
<path fill="none" stroke="midnightblue" d="M444.87,-280.28C461.68,-311.85 500.1,-375.2 552,-406.5 558.38,-410.35 565.38,-413.44 572.62,-415.92"/>
<polygon fill="midnightblue" stroke="midnightblue" points="447.89,-278.49 440.19,-271.22 441.67,-281.71 447.89,-278.49"/>
</g>
<!-- Node7 -->
<g id="node7" class="node">
<title>Node7</title>
<g id="a_node7"><a xlink:href="classChamp__Generique__Morceau__Equation.html" target="_top" xlink:title="class Champ_Generique_Morceau_Equation Champ destine a post&#45;traiter une quantite liee a un morceau d ...">
<polygon fill="white" stroke="black" points="574,-366.5 574,-396.5 728,-396.5 728,-366.5 574,-366.5"/>
<text text-anchor="start" x="582" y="-384.5" font-family="Helvetica,sans-Serif" font-size="10.00">Champ_Generique_Morceau</text>
<text text-anchor="middle" x="651" y="-373.5" font-family="Helvetica,sans-Serif" font-size="10.00">_Equation</text>
</a>
</g>
</g>
<!-- Node4&#45;&gt;Node7 -->
<g id="edge6" class="edge">
<title>Node4&#45;&gt;Node7</title>
<path fill="none" stroke="midnightblue" d="M451.62,-278.61C472.69,-299.97 511.7,-336.19 552,-356.5 559.68,-360.37 568.01,-363.68 576.47,-366.49"/>
<polygon fill="midnightblue" stroke="midnightblue" points="453.92,-275.96 444.45,-271.21 448.89,-280.83 453.92,-275.96"/>
</g>
<!-- Node8 -->
<g id="node8" class="node">
<title>Node8</title>
<g id="a_node8"><a xlink:href="classChamp__Generique__Operateur__base.html" target="_top" xlink:title="Classe Champ_Generique_Operateur_base Classe de base des classes de champs generiques dediees a l &#39;ap...">
<polygon fill="white" stroke="black" points="556.5,-328 556.5,-347 745.5,-347 745.5,-328 556.5,-328"/>
<text text-anchor="middle" x="651" y="-335" font-family="Helvetica,sans-Serif" font-size="10.00">Champ_Generique_Operateur_base</text>
</a>
</g>
</g>
<!-- Node4&#45;&gt;Node8 -->
<g id="edge7" class="edge">
<title>Node4&#45;&gt;Node8</title>
<path fill="none" stroke="midnightblue" d="M460.28,-276.02C483.32,-288.93 518.97,-307.44 552,-318.5 563.34,-322.3 575.68,-325.43 587.67,-327.98"/>
<polygon fill="midnightblue" stroke="midnightblue" points="461.93,-272.93 451.51,-271.03 458.47,-279.02 461.93,-272.93"/>
</g>
<!-- Node12 -->
<g id="node12" class="node">
<title>Node12</title>
<g id="a_node12"><a xlink:href="classChamp__Generique__Predefini.html" target="_top" xlink:title="class Champ_Generique_Predefini">
<polygon fill="white" stroke="black" points="573.5,-290 573.5,-309 728.5,-309 728.5,-290 573.5,-290"/>
<text text-anchor="middle" x="651" y="-297" font-family="Helvetica,sans-Serif" font-size="10.00">Champ_Generique_Predefini</text>
</a>
</g>
</g>
<!-- Node4&#45;&gt;Node12 -->
<g id="edge11" class="edge">
<title>Node4&#45;&gt;Node12</title>
<path fill="none" stroke="midnightblue" d="M499.55,-272.85C530.33,-278.3 566.8,-284.76 596.13,-289.96"/>
<polygon fill="midnightblue" stroke="midnightblue" points="499.81,-269.34 489.35,-271.04 498.59,-276.23 499.81,-269.34"/>
</g>
<!-- Node13 -->
<g id="node13" class="node">
<title>Node13</title>
<g id="a_node13"><a xlink:href="classChamp__Generique__Reduction__0D.html" target="_top" xlink:title="class Champ_Generique_Reduction_0D">
<polygon fill="white" stroke="black" points="561.5,-252 561.5,-271 740.5,-271 740.5,-252 561.5,-252"/>
<text text-anchor="middle" x="651" y="-259" font-family="Helvetica,sans-Serif" font-size="10.00">Champ_Generique_Reduction_0D</text>
</a>
</g>
</g>
<!-- Node4&#45;&gt;Node13 -->
<g id="edge12" class="edge">
<title>Node4&#45;&gt;Node13</title>
<path fill="none" stroke="midnightblue" d="M526.39,-261.5C537.98,-261.5 549.83,-261.5 561.39,-261.5"/>
<polygon fill="midnightblue" stroke="midnightblue" points="526.29,-258 516.29,-261.5 526.29,-265 526.29,-258"/>
</g>
<!-- Node14 -->
<g id="node14" class="node">
<title>Node14</title>
<g id="a_node14"><a xlink:href="classChamp__Generique__Statistiques__base.html" target="_top" xlink:title="Classe Champ_Generique_Statistiques_base Classe de base des classes de champs generiques dedies aux s...">
<polygon fill="white" stroke="black" points="552,-214 552,-233 750,-233 750,-214 552,-214"/>
<text text-anchor="middle" x="651" y="-221" font-family="Helvetica,sans-Serif" font-size="10.00">Champ_Generique_Statistiques_base</text>
</a>
</g>
</g>
<!-- Node4&#45;&gt;Node14 -->
<g id="edge13" class="edge">
<title>Node4&#45;&gt;Node14</title>
<path fill="none" stroke="midnightblue" d="M499.55,-250.15C530.33,-244.7 566.8,-238.24 596.13,-233.04"/>
<polygon fill="midnightblue" stroke="midnightblue" points="498.59,-246.77 489.35,-251.96 499.81,-253.66 498.59,-246.77"/>
</g>
<!-- Node18 -->
<g id="node18" class="node">
<title>Node18</title>
<g id="a_node18"><a xlink:href="classChamp__Generique__Tparoi__VEF.html" target="_top" xlink:title="class Champ_Generique_Tparoi_VEF">
<polygon fill="white" stroke="black" points="567.5,-176 567.5,-195 734.5,-195 734.5,-176 567.5,-176"/>
<text text-anchor="middle" x="651" y="-183" font-family="Helvetica,sans-Serif" font-size="10.00">Champ_Generique_Tparoi_VEF</text>
</a>
</g>
</g>
<!-- Node4&#45;&gt;Node18 -->
<g id="edge17" class="edge">
<title>Node4&#45;&gt;Node18</title>
<path fill="none" stroke="midnightblue" d="M460.28,-246.98C483.32,-234.07 518.97,-215.56 552,-204.5 563.34,-200.7 575.68,-197.57 587.67,-195.02"/>
<polygon fill="midnightblue" stroke="midnightblue" points="458.47,-243.98 451.51,-251.97 461.93,-250.07 458.47,-243.98"/>
</g>
<!-- Node19 -->
<g id="node19" class="node">
<title>Node19</title>
<g id="a_node19"><a xlink:href="classChamp__Generique__Transformation.html" target="_top" xlink:title="class Champ_Generique_Transformation Champ destine a post&#45;traiter une &quot;transformation&quot; dependant de c...">
<polygon fill="white" stroke="black" points="558.5,-138 558.5,-157 743.5,-157 743.5,-138 558.5,-138"/>
<text text-anchor="middle" x="651" y="-145" font-family="Helvetica,sans-Serif" font-size="10.00">Champ_Generique_Transformation</text>
</a>
</g>
</g>
<!-- Node4&#45;&gt;Node19 -->
<g id="edge18" class="edge">
<title>Node4&#45;&gt;Node19</title>
<path fill="none" stroke="midnightblue" d="M451.12,-244.35C471.92,-222.63 510.92,-185.73 552,-166.5 560.32,-162.61 569.39,-159.51 578.56,-157.05"/>
<polygon fill="midnightblue" stroke="midnightblue" points="448.36,-242.18 444.06,-251.86 453.46,-246.97 448.36,-242.18"/>
</g>
<!-- Node20 -->
<g id="node20" class="node">
<title>Node20</title>
<g id="a_node20"><a xlink:href="classChamp__Generique__modifier__pour__QC.html" target="_top" xlink:title="class Champ_Generique_modifier_pour_QC Champ destine a post&#45;traiter un champ d un probleme en quasi&#45;c...">
<polygon fill="white" stroke="black" points="575,-88.5 575,-118.5 727,-118.5 727,-88.5 575,-88.5"/>
<text text-anchor="start" x="583" y="-106.5" font-family="Helvetica,sans-Serif" font-size="10.00">Champ_Generique_modifier</text>
<text text-anchor="middle" x="651" y="-95.5" font-family="Helvetica,sans-Serif" font-size="10.00">_pour_QC</text>
</a>
</g>
</g>
<!-- Node4&#45;&gt;Node20 -->
<g id="edge19" class="edge">
<title>Node4&#45;&gt;Node20</title>
<path fill="none" stroke="midnightblue" d="M446.49,-242.95C464.66,-213.94 503.82,-158.08 552,-128.5 559.03,-124.18 566.79,-120.61 574.76,-117.65"/>
<polygon fill="midnightblue" stroke="midnightblue" points="443.38,-241.33 441.14,-251.69 449.35,-244.98 443.38,-241.33"/>
</g>
<!-- Node9 -->
<g id="node9" class="node">
<title>Node9</title>
<g id="a_node9"><a xlink:href="classChamp__Generique__Divergence.html" target="_top" xlink:title="class Champ_Generique_Divergence Champ destine a post&#45;traiter la divergence d un champ generique La c...">
<polygon fill="white" stroke="black" points="786,-366 786,-385 953,-385 953,-366 786,-366"/>
<text text-anchor="middle" x="869.5" y="-373" font-family="Helvetica,sans-Serif" font-size="10.00">Champ_Generique_Divergence</text>
</a>
</g>
</g>
<!-- Node8&#45;&gt;Node9 -->
<g id="edge8" class="edge">
<title>Node8&#45;&gt;Node9</title>
<path fill="none" stroke="midnightblue" d="M716.24,-348.78C747.39,-354.24 784.4,-360.74 814.12,-365.96"/>
<polygon fill="midnightblue" stroke="midnightblue" points="716.81,-345.32 706.35,-347.04 715.6,-352.22 716.81,-345.32"/>
</g>
<!-- Node10 -->
<g id="node10" class="node">
<title>Node10</title>
<g id="a_node10"><a xlink:href="classChamp__Generique__Gradient.html" target="_top" xlink:title="class Champ_Generique_Gradient Champ destine a post&#45;traiter le gradient d un champ generique La class...">
<polygon fill="white" stroke="black" points="792.5,-328 792.5,-347 946.5,-347 946.5,-328 792.5,-328"/>
<text text-anchor="middle" x="869.5" y="-335" font-family="Helvetica,sans-Serif" font-size="10.00">Champ_Generique_Gradient</text>
</a>
</g>
</g>
<!-- Node8&#45;&gt;Node10 -->
<g id="edge9" class="edge">
<title>Node8&#45;&gt;Node10</title>
<path fill="none" stroke="midnightblue" d="M755.95,-337.5C768.18,-337.5 780.48,-337.5 792.24,-337.5"/>
<polygon fill="midnightblue" stroke="midnightblue" points="755.7,-334 745.7,-337.5 755.7,-341 755.7,-334"/>
</g>
<!-- Node11 -->
<g id="node11" class="node">
<title>Node11</title>
<g id="a_node11"><a xlink:href="classChamp__Post__Operateur__Eqn.html" target="_top" xlink:title="class Champ_Post_Operateur_Eqn Champ destine a post&#45;traiter le gradient d un champ generique La class...">
<polygon fill="white" stroke="black" points="792,-290 792,-309 947,-309 947,-290 792,-290"/>
<text text-anchor="middle" x="869.5" y="-297" font-family="Helvetica,sans-Serif" font-size="10.00">Champ_Post_Operateur_Eqn</text>
</a>
</g>
</g>
<!-- Node8&#45;&gt;Node11 -->
<g id="edge10" class="edge">
<title>Node8&#45;&gt;Node11</title>
<path fill="none" stroke="midnightblue" d="M716.24,-326.22C747.39,-320.76 784.4,-314.26 814.12,-309.04"/>
<polygon fill="midnightblue" stroke="midnightblue" points="715.6,-322.78 706.35,-327.96 716.81,-329.68 715.6,-322.78"/>
</g>
<!-- Node15 -->
<g id="node15" class="node">
<title>Node15</title>
<g id="a_node15"><a xlink:href="classChamp__Generique__Correlation.html" target="_top" xlink:title="class Champ_Generique_Correlation Champ destine a post&#45;traiter une correlation d un champ generique L...">
<polygon fill="white" stroke="black" points="786.5,-252 786.5,-271 952.5,-271 952.5,-252 786.5,-252"/>
<text text-anchor="middle" x="869.5" y="-259" font-family="Helvetica,sans-Serif" font-size="10.00">Champ_Generique_Correlation</text>
</a>
</g>
</g>
<!-- Node14&#45;&gt;Node15 -->
<g id="edge14" class="edge">
<title>Node14&#45;&gt;Node15</title>
<path fill="none" stroke="midnightblue" d="M716.24,-234.78C747.39,-240.24 784.4,-246.74 814.12,-251.96"/>
<polygon fill="midnightblue" stroke="midnightblue" points="716.81,-231.32 706.35,-233.04 715.6,-238.22 716.81,-231.32"/>
</g>
<!-- Node16 -->
<g id="node16" class="node">
<title>Node16</title>
<g id="a_node16"><a xlink:href="classChamp__Generique__Ecart__Type.html" target="_top" xlink:title="class Champ_Generique_Ecart_Type Champ destine a post&#45;traiter un Ecart_Type d un champ generique La c...">
<polygon fill="white" stroke="black" points="787.5,-214 787.5,-233 951.5,-233 951.5,-214 787.5,-214"/>
<text text-anchor="middle" x="869.5" y="-221" font-family="Helvetica,sans-Serif" font-size="10.00">Champ_Generique_Ecart_Type</text>
</a>
</g>
</g>
<!-- Node14&#45;&gt;Node16 -->
<g id="edge15" class="edge">
<title>Node14&#45;&gt;Node16</title>
<path fill="none" stroke="midnightblue" d="M760.33,-223.5C769.39,-223.5 778.44,-223.5 787.25,-223.5"/>
<polygon fill="midnightblue" stroke="midnightblue" points="760.11,-220 750.11,-223.5 760.11,-227 760.11,-220"/>
</g>
<!-- Node17 -->
<g id="node17" class="node">
<title>Node17</title>
<g id="a_node17"><a xlink:href="classChamp__Generique__Moyenne.html" target="_top" xlink:title="class Champ_Generique_Moyenne Champ destine a post&#45;traiter une moyenne d un champ generique La classe...">
<polygon fill="white" stroke="black" points="791,-176 791,-195 948,-195 948,-176 791,-176"/>
<text text-anchor="middle" x="869.5" y="-183" font-family="Helvetica,sans-Serif" font-size="10.00">Champ_Generique_Moyenne</text>
</a>
</g>
</g>
<!-- Node14&#45;&gt;Node17 -->
<g id="edge16" class="edge">
<title>Node14&#45;&gt;Node17</title>
<path fill="none" stroke="midnightblue" d="M716.24,-212.22C747.39,-206.76 784.4,-200.26 814.12,-195.04"/>
<polygon fill="midnightblue" stroke="midnightblue" points="715.6,-208.78 706.35,-213.96 716.81,-215.68 715.6,-208.78"/>
</g>
<!-- Node22 -->
<g id="node22" class="node">
<title>Node22</title>
<g id="a_node22"><a xlink:href="classChamp__Generique__Champ.html" target="_top" xlink:title=": class Champ_Generique_Champ &lt;Description of class Champ_Generique_Champ&gt;">
<polygon fill="white" stroke="black" points="578,-50 578,-69 724,-69 724,-50 578,-50"/>
<text text-anchor="middle" x="651" y="-57" font-family="Helvetica,sans-Serif" font-size="10.00">Champ_Generique_Champ</text>
</a>
</g>
</g>
<!-- Node21&#45;&gt;Node22 -->
<g id="edge21" class="edge">
<title>Node21&#45;&gt;Node22</title>
<path fill="none" stroke="midnightblue" d="M525.03,-59.5C542.62,-59.5 560.87,-59.5 577.8,-59.5"/>
<polygon fill="midnightblue" stroke="midnightblue" points="524.76,-56 514.76,-59.5 524.76,-63 524.76,-56"/>
</g>
<!-- Node23 -->
<g id="node23" class="node">
<title>Node23</title>
<g id="a_node23"><a xlink:href="classChamp__Generique__refChamp__special.html" target="_top" xlink:title=": class Champ_Generique_refChamp_special &lt;Description of class Champ_Generique_refChamp_special&gt;">
<polygon fill="white" stroke="black" points="571,-0.5 571,-30.5 731,-30.5 731,-0.5 571,-0.5"/>
<text text-anchor="start" x="579" y="-18.5" font-family="Helvetica,sans-Serif" font-size="10.00">Champ_Generique_refChamp</text>
<text text-anchor="middle" x="651" y="-7.5" font-family="Helvetica,sans-Serif" font-size="10.00">_special</text>
</a>
</g>
</g>
<!-- Node21&#45;&gt;Node23 -->
<g id="edge22" class="edge">
<title>Node21&#45;&gt;Node23</title>
<path fill="none" stroke="midnightblue" d="M492.06,-47.9C517.93,-42.59 548.91,-36.24 576.56,-30.57"/>
<polygon fill="midnightblue" stroke="midnightblue" points="491.14,-44.51 482.04,-49.95 492.54,-51.37 491.14,-44.51"/>
</g>
</g>
</svg>
