<?xml version="1.0" encoding="UTF-8" standalone="no"?>
<!DOCTYPE svg PUBLIC "-//W3C//DTD SVG 1.1//EN"
 "http://www.w3.org/Graphics/SVG/1.1/DTD/svg11.dtd">
<!-- Generated by graphviz version 2.43.0 (0)
 -->
<!-- Title: List_Sonde_Int Pages: 1 -->
<svg width="95pt" height="252pt"
 viewBox="0.00 0.00 95.00 252.00" xmlns="http://www.w3.org/2000/svg" xmlns:xlink="http://www.w3.org/1999/xlink">
<g id="graph0" class="graph" transform="scale(1 1) rotate(0) translate(4 248)">
<title>List_Sonde_Int</title>
<polygon fill="white" stroke="transparent" points="-4,4 -4,-248 91,-248 91,4 -4,4"/>
<!-- Node1 -->
<g id="node1" class="node">
<title>Node1</title>
<g id="a_node1"><a xlink:title=" ">
<polygon fill="#bfbfbf" stroke="black" points="0,-56.5 0,-75.5 87,-75.5 87,-56.5 0,-56.5"/>
<text text-anchor="middle" x="43.5" y="-63.5" font-family="Helvetica,sans-Serif" font-size="10.00">List_Sonde_Int</text>
</a>
</g>
</g>
<!-- Node5 -->
<g id="node5" class="node">
<title>Node5</title>
<g id="a_node5"><a xlink:href="classSondes__Int.html" target="_top" xlink:title="classe Sondes_Int Cette classe represente une liste d&#39;objets de type Sonde_Int.">
<polygon fill="white" stroke="black" points="8.5,-0.5 8.5,-19.5 78.5,-19.5 78.5,-0.5 8.5,-0.5"/>
<text text-anchor="middle" x="43.5" y="-7.5" font-family="Helvetica,sans-Serif" font-size="10.00">Sondes_Int</text>
</a>
</g>
</g>
<!-- Node1&#45;&gt;Node5 -->
<g id="edge4" class="edge">
<title>Node1&#45;&gt;Node5</title>
<path fill="none" stroke="midnightblue" d="M43.5,-45.8C43.5,-36.91 43.5,-26.78 43.5,-19.75"/>
<polygon fill="midnightblue" stroke="midnightblue" points="40,-46.08 43.5,-56.08 47,-46.08 40,-46.08"/>
</g>
<!-- Node2 -->
<g id="node2" class="node">
<title>Node2</title>
<g id="a_node2"><a xlink:href="classliste.html" target="_top" xlink:title="Les classes liste et liste_curseur representent une liste de Deriv&lt;Objet_U&gt; et un curseur associe....">
<polygon fill="white" stroke="black" points="24.5,-112.5 24.5,-131.5 62.5,-131.5 62.5,-112.5 24.5,-112.5"/>
<text text-anchor="middle" x="43.5" y="-119.5" font-family="Helvetica,sans-Serif" font-size="10.00">liste</text>
</a>
</g>
</g>
<!-- Node2&#45;&gt;Node1 -->
<g id="edge1" class="edge">
<title>Node2&#45;&gt;Node1</title>
<path fill="none" stroke="midnightblue" d="M43.5,-101.8C43.5,-92.91 43.5,-82.78 43.5,-75.75"/>
<polygon fill="midnightblue" stroke="midnightblue" points="40,-102.08 43.5,-112.08 47,-102.08 40,-102.08"/>
</g>
<!-- Node3 -->
<g id="node3" class="node">
<title>Node3</title>
<g id="a_node3"><a xlink:href="classObjet__U.html" target="_top" xlink:title="classe Objet_U Cette classe est la classe de base des Objets de TRUST Dans les classes derivees de Ob...">
<polygon fill="white" stroke="black" points="15.5,-168.5 15.5,-187.5 71.5,-187.5 71.5,-168.5 15.5,-168.5"/>
<text text-anchor="middle" x="43.5" y="-175.5" font-family="Helvetica,sans-Serif" font-size="10.00">Objet_U</text>
</a>
</g>
</g>
<!-- Node3&#45;&gt;Node2 -->
<g id="edge2" class="edge">
<title>Node3&#45;&gt;Node2</title>
<path fill="none" stroke="midnightblue" d="M43.5,-157.8C43.5,-148.91 43.5,-138.78 43.5,-131.75"/>
<polygon fill="midnightblue" stroke="midnightblue" points="40,-158.08 43.5,-168.08 47,-158.08 40,-158.08"/>
</g>
<!-- Node4 -->
<g id="node4" class="node">
<title>Node4</title>
<g id="a_node4"><a xlink:href="classProcess.html" target="_top" xlink:title="Classe de base de TRUST (notamment Objet_U). Elle fournit quelques services de base accessibles de pa...">
<polygon fill="white" stroke="black" points="16.5,-224.5 16.5,-243.5 70.5,-243.5 70.5,-224.5 16.5,-224.5"/>
<text text-anchor="middle" x="43.5" y="-231.5" font-family="Helvetica,sans-Serif" font-size="10.00">Process</text>
</a>
</g>
</g>
<!-- Node4&#45;&gt;Node3 -->
<g id="edge3" class="edge">
<title>Node4&#45;&gt;Node3</title>
<path fill="none" stroke="midnightblue" d="M43.5,-213.8C43.5,-204.91 43.5,-194.78 43.5,-187.75"/>
<polygon fill="midnightblue" stroke="midnightblue" points="40,-214.08 43.5,-224.08 47,-214.08 40,-214.08"/>
</g>
</g>
</svg>
