<?xml version="1.0" encoding="UTF-8" standalone="no"?>
<!DOCTYPE svg PUBLIC "-//W3C//DTD SVG 1.1//EN"
 "http://www.w3.org/Graphics/SVG/1.1/DTD/svg11.dtd">
<!-- Generated by graphviz version 2.43.0 (0)
 -->
<!-- Title: Solveur_Implicite_Base Pages: 1 -->
<svg width="273pt" height="476pt"
 viewBox="0.00 0.00 273.00 476.00" xmlns="http://www.w3.org/2000/svg" xmlns:xlink="http://www.w3.org/1999/xlink">
<g id="graph0" class="graph" transform="scale(1 1) rotate(0) translate(4 472)">
<title>Solveur_Implicite_Base</title>
<polygon fill="white" stroke="transparent" points="-4,4 -4,-472 269,-472 269,4 -4,4"/>
<!-- Node1 -->
<g id="node1" class="node">
<title>Node1</title>
<g id="a_node1"><a xlink:title=" ">
<polygon fill="#bfbfbf" stroke="black" points="56,-336.5 56,-355.5 187,-355.5 187,-336.5 56,-336.5"/>
<text text-anchor="middle" x="121.5" y="-343.5" font-family="Helvetica,sans-Serif" font-size="10.00">Solveur_Implicite_Base</text>
</a>
</g>
</g>
<!-- Node4 -->
<g id="node4" class="node">
<title>Node4</title>
<g id="a_node4"><a xlink:href="classSolveur__lineaire.html" target="_top" xlink:title="class Solveur_lineaire">
<polygon fill="white" stroke="black" points="12,-280.5 12,-299.5 107,-299.5 107,-280.5 12,-280.5"/>
<text text-anchor="middle" x="59.5" y="-287.5" font-family="Helvetica,sans-Serif" font-size="10.00">Solveur_lineaire</text>
</a>
</g>
</g>
<!-- Node1&#45;&gt;Node4 -->
<g id="edge3" class="edge">
<title>Node1&#45;&gt;Node4</title>
<path fill="none" stroke="midnightblue" d="M103.75,-329.54C92.69,-319.91 78.87,-307.87 69.64,-299.83"/>
<polygon fill="midnightblue" stroke="midnightblue" points="101.7,-332.4 111.54,-336.32 106.3,-327.12 101.7,-332.4"/>
</g>
<!-- Node6 -->
<g id="node6" class="node">
<title>Node6</title>
<g id="a_node6"><a xlink:href="classSolveur__non__lineaire.html" target="_top" xlink:title="class Solveur_non_lineaire">
<polygon fill="white" stroke="black" points="125,-280.5 125,-299.5 244,-299.5 244,-280.5 125,-280.5"/>
<text text-anchor="middle" x="184.5" y="-287.5" font-family="Helvetica,sans-Serif" font-size="10.00">Solveur_non_lineaire</text>
</a>
</g>
</g>
<!-- Node1&#45;&gt;Node6 -->
<g id="edge5" class="edge">
<title>Node1&#45;&gt;Node6</title>
<path fill="none" stroke="midnightblue" d="M139.54,-329.54C150.77,-319.91 164.82,-307.87 174.19,-299.83"/>
<polygon fill="midnightblue" stroke="midnightblue" points="136.94,-327.16 131.62,-336.32 141.49,-332.47 136.94,-327.16"/>
</g>
<!-- Node2 -->
<g id="node2" class="node">
<title>Node2</title>
<g id="a_node2"><a xlink:href="classObjet__U.html" target="_top" xlink:title="classe Objet_U Cette classe est la classe de base des Objets de TRUST Dans les classes derivees de Ob...">
<polygon fill="white" stroke="black" points="93.5,-392.5 93.5,-411.5 149.5,-411.5 149.5,-392.5 93.5,-392.5"/>
<text text-anchor="middle" x="121.5" y="-399.5" font-family="Helvetica,sans-Serif" font-size="10.00">Objet_U</text>
</a>
</g>
</g>
<!-- Node2&#45;&gt;Node1 -->
<g id="edge1" class="edge">
<title>Node2&#45;&gt;Node1</title>
<path fill="none" stroke="midnightblue" d="M121.5,-381.8C121.5,-372.91 121.5,-362.78 121.5,-355.75"/>
<polygon fill="midnightblue" stroke="midnightblue" points="118,-382.08 121.5,-392.08 125,-382.08 118,-382.08"/>
</g>
<!-- Node3 -->
<g id="node3" class="node">
<title>Node3</title>
<g id="a_node3"><a xlink:href="classProcess.html" target="_top" xlink:title="Classe de base de TRUST (notamment Objet_U). Elle fournit quelques services de base accessibles de pa...">
<polygon fill="white" stroke="black" points="94.5,-448.5 94.5,-467.5 148.5,-467.5 148.5,-448.5 94.5,-448.5"/>
<text text-anchor="middle" x="121.5" y="-455.5" font-family="Helvetica,sans-Serif" font-size="10.00">Process</text>
</a>
</g>
</g>
<!-- Node3&#45;&gt;Node2 -->
<g id="edge2" class="edge">
<title>Node3&#45;&gt;Node2</title>
<path fill="none" stroke="midnightblue" d="M121.5,-437.8C121.5,-428.91 121.5,-418.78 121.5,-411.75"/>
<polygon fill="midnightblue" stroke="midnightblue" points="118,-438.08 121.5,-448.08 125,-438.08 118,-438.08"/>
</g>
<!-- Node5 -->
<g id="node5" class="node">
<title>Node5</title>
<g id="a_node5"><a xlink:href="classSolveur__Lineaire__Std.html" target="_top" xlink:title=" ">
<polygon fill="white" stroke="black" points="0,-224.5 0,-243.5 119,-243.5 119,-224.5 0,-224.5"/>
<text text-anchor="middle" x="59.5" y="-231.5" font-family="Helvetica,sans-Serif" font-size="10.00">Solveur_Lineaire_Std</text>
</a>
</g>
</g>
<!-- Node4&#45;&gt;Node5 -->
<g id="edge4" class="edge">
<title>Node4&#45;&gt;Node5</title>
<path fill="none" stroke="midnightblue" d="M59.5,-269.8C59.5,-260.91 59.5,-250.78 59.5,-243.75"/>
<polygon fill="midnightblue" stroke="midnightblue" points="56,-270.08 59.5,-280.08 63,-270.08 56,-270.08"/>
</g>
<!-- Node7 -->
<g id="node7" class="node">
<title>Node7</title>
<g id="a_node7"><a xlink:href="classSimpler__Base.html" target="_top" xlink:title=" ">
<polygon fill="white" stroke="black" points="143,-224.5 143,-243.5 226,-243.5 226,-224.5 143,-224.5"/>
<text text-anchor="middle" x="184.5" y="-231.5" font-family="Helvetica,sans-Serif" font-size="10.00">Simpler_Base</text>
</a>
</g>
</g>
<!-- Node6&#45;&gt;Node7 -->
<g id="edge6" class="edge">
<title>Node6&#45;&gt;Node7</title>
<path fill="none" stroke="midnightblue" d="M184.5,-269.8C184.5,-260.91 184.5,-250.78 184.5,-243.75"/>
<polygon fill="midnightblue" stroke="midnightblue" points="181,-270.08 184.5,-280.08 188,-270.08 181,-270.08"/>
</g>
<!-- Node8 -->
<g id="node8" class="node">
<title>Node8</title>
<g id="a_node8"><a xlink:href="classSimple.html" target="_top" xlink:title=" ">
<polygon fill="white" stroke="black" points="159.5,-168.5 159.5,-187.5 209.5,-187.5 209.5,-168.5 159.5,-168.5"/>
<text text-anchor="middle" x="184.5" y="-175.5" font-family="Helvetica,sans-Serif" font-size="10.00">Simple</text>
</a>
</g>
</g>
<!-- Node7&#45;&gt;Node8 -->
<g id="edge7" class="edge">
<title>Node7&#45;&gt;Node8</title>
<path fill="none" stroke="midnightblue" d="M184.5,-213.8C184.5,-204.91 184.5,-194.78 184.5,-187.75"/>
<polygon fill="midnightblue" stroke="midnightblue" points="181,-214.08 184.5,-224.08 188,-214.08 181,-214.08"/>
</g>
<!-- Node9 -->
<g id="node9" class="node">
<title>Node9</title>
<g id="a_node9"><a xlink:href="classSimpler.html" target="_top" xlink:title=" ">
<polygon fill="white" stroke="black" points="115.5,-112.5 115.5,-131.5 169.5,-131.5 169.5,-112.5 115.5,-112.5"/>
<text text-anchor="middle" x="142.5" y="-119.5" font-family="Helvetica,sans-Serif" font-size="10.00">Simpler</text>
</a>
</g>
</g>
<!-- Node8&#45;&gt;Node9 -->
<g id="edge8" class="edge">
<title>Node8&#45;&gt;Node9</title>
<path fill="none" stroke="midnightblue" d="M171.39,-160.14C164.07,-150.74 155.26,-139.4 149.31,-131.75"/>
<polygon fill="midnightblue" stroke="midnightblue" points="168.66,-162.34 177.56,-168.08 174.19,-158.04 168.66,-162.34"/>
</g>
<!-- Node14 -->
<g id="node14" class="node">
<title>Node14</title>
<g id="a_node14"><a xlink:href="classSolveur__U__P.html" target="_top" xlink:title=" ">
<polygon fill="white" stroke="black" points="188,-112.5 188,-131.5 265,-131.5 265,-112.5 188,-112.5"/>
<text text-anchor="middle" x="226.5" y="-119.5" font-family="Helvetica,sans-Serif" font-size="10.00">Solveur_U_P</text>
</a>
</g>
</g>
<!-- Node8&#45;&gt;Node14 -->
<g id="edge13" class="edge">
<title>Node8&#45;&gt;Node14</title>
<path fill="none" stroke="midnightblue" d="M197.61,-160.14C204.93,-150.74 213.74,-139.4 219.69,-131.75"/>
<polygon fill="midnightblue" stroke="midnightblue" points="194.81,-158.04 191.44,-168.08 200.34,-162.34 194.81,-158.04"/>
</g>
<!-- Node10 -->
<g id="node10" class="node">
<title>Node10</title>
<g id="a_node10"><a xlink:href="classPiso.html" target="_top" xlink:title=" ">
<polygon fill="white" stroke="black" points="96,-56.5 96,-75.5 133,-75.5 133,-56.5 96,-56.5"/>
<text text-anchor="middle" x="114.5" y="-63.5" font-family="Helvetica,sans-Serif" font-size="10.00">Piso</text>
</a>
</g>
</g>
<!-- Node9&#45;&gt;Node10 -->
<g id="edge9" class="edge">
<title>Node9&#45;&gt;Node10</title>
<path fill="none" stroke="midnightblue" d="M133.16,-102.98C128.41,-93.82 122.84,-83.09 119.04,-75.75"/>
<polygon fill="midnightblue" stroke="midnightblue" points="130.17,-104.82 137.88,-112.08 136.38,-101.59 130.17,-104.82"/>
</g>
<!-- Node12 -->
<g id="node12" class="node">
<title>Node12</title>
<g id="a_node12"><a xlink:href="classSETS.html" target="_top" xlink:title=" ">
<polygon fill="white" stroke="black" points="153,-56.5 153,-75.5 194,-75.5 194,-56.5 153,-56.5"/>
<text text-anchor="middle" x="173.5" y="-63.5" font-family="Helvetica,sans-Serif" font-size="10.00">SETS</text>
</a>
</g>
</g>
<!-- Node9&#45;&gt;Node12 -->
<g id="edge11" class="edge">
<title>Node9&#45;&gt;Node12</title>
<path fill="none" stroke="midnightblue" d="M152.68,-103.27C157.97,-94.05 164.22,-83.17 168.48,-75.75"/>
<polygon fill="midnightblue" stroke="midnightblue" points="149.56,-101.67 147.62,-112.08 155.63,-105.15 149.56,-101.67"/>
</g>
<!-- Node11 -->
<g id="node11" class="node">
<title>Node11</title>
<g id="a_node11"><a xlink:href="classImplicite.html" target="_top" xlink:title=" ">
<polygon fill="white" stroke="black" points="82,-0.5 82,-19.5 141,-19.5 141,-0.5 82,-0.5"/>
<text text-anchor="middle" x="111.5" y="-7.5" font-family="Helvetica,sans-Serif" font-size="10.00">Implicite</text>
</a>
</g>
</g>
<!-- Node10&#45;&gt;Node11 -->
<g id="edge10" class="edge">
<title>Node10&#45;&gt;Node11</title>
<path fill="none" stroke="midnightblue" d="M113.43,-45.8C112.94,-36.91 112.38,-26.78 111.99,-19.75"/>
<polygon fill="midnightblue" stroke="midnightblue" points="109.96,-46.29 114,-56.08 116.94,-45.9 109.96,-46.29"/>
</g>
<!-- Node13 -->
<g id="node13" class="node">
<title>Node13</title>
<g id="a_node13"><a xlink:href="classICE.html" target="_top" xlink:title=" ">
<polygon fill="white" stroke="black" points="159.5,-0.5 159.5,-19.5 191.5,-19.5 191.5,-0.5 159.5,-0.5"/>
<text text-anchor="middle" x="175.5" y="-7.5" font-family="Helvetica,sans-Serif" font-size="10.00">ICE</text>
</a>
</g>
</g>
<!-- Node12&#45;&gt;Node13 -->
<g id="edge12" class="edge">
<title>Node12&#45;&gt;Node13</title>
<path fill="none" stroke="midnightblue" d="M174.21,-45.8C174.54,-36.91 174.92,-26.78 175.18,-19.75"/>
<polygon fill="midnightblue" stroke="midnightblue" points="170.7,-45.96 173.83,-56.08 177.7,-46.22 170.7,-45.96"/>
</g>
</g>
</svg>
