<?xml version="1.0" encoding="UTF-8" standalone="no"?>
<!DOCTYPE svg PUBLIC "-//W3C//DTD SVG 1.1//EN"
 "http://www.w3.org/Graphics/SVG/1.1/DTD/svg11.dtd">
<!-- Generated by graphviz version 2.43.0 (0)
 -->
<!-- Title: Champ_som_lu Pages: 1 -->
<svg width="328pt" height="516pt"
 viewBox="0.00 0.00 327.50 516.00" xmlns="http://www.w3.org/2000/svg" xmlns:xlink="http://www.w3.org/1999/xlink">
<g id="graph0" class="graph" transform="scale(1 1) rotate(0) translate(4 512)">
<title>Champ_som_lu</title>
<polygon fill="white" stroke="transparent" points="-4,4 -4,-512 323.5,-512 323.5,4 -4,4"/>
<!-- Node1 -->
<g id="node1" class="node">
<title>Node1</title>
<g id="a_node1"><a xlink:title=" ">
<polygon fill="#bfbfbf" stroke="black" points="79.5,-57.5 79.5,-76.5 171.5,-76.5 171.5,-57.5 79.5,-57.5"/>
<text text-anchor="middle" x="125.5" y="-64.5" font-family="Helvetica,sans-Serif" font-size="10.00">Champ_som_lu</text>
</a>
</g>
</g>
<!-- Node11 -->
<g id="node11" class="node">
<title>Node11</title>
<g id="a_node11"><a xlink:href="classChamp__som__lu__VDF.html" target="_top" xlink:title=" ">
<polygon fill="white" stroke="black" points="0,-0.5 0,-19.5 117,-19.5 117,-0.5 0,-0.5"/>
<text text-anchor="middle" x="58.5" y="-7.5" font-family="Helvetica,sans-Serif" font-size="10.00">Champ_som_lu_VDF</text>
</a>
</g>
</g>
<!-- Node1&#45;&gt;Node11 -->
<g id="edge12" class="edge">
<title>Node1&#45;&gt;Node11</title>
<path fill="none" stroke="midnightblue" d="M107.23,-51C95,-40.96 79.34,-28.1 69.12,-19.71"/>
<polygon fill="midnightblue" stroke="midnightblue" points="105.08,-53.77 115.03,-57.41 109.52,-48.36 105.08,-53.77"/>
</g>
<!-- Node12 -->
<g id="node12" class="node">
<title>Node12</title>
<g id="a_node12"><a xlink:href="classChamp__som__lu__VEF.html" target="_top" xlink:title=" ">
<polygon fill="white" stroke="black" points="135.5,-0.5 135.5,-19.5 251.5,-19.5 251.5,-0.5 135.5,-0.5"/>
<text text-anchor="middle" x="193.5" y="-7.5" font-family="Helvetica,sans-Serif" font-size="10.00">Champ_som_lu_VEF</text>
</a>
</g>
</g>
<!-- Node1&#45;&gt;Node12 -->
<g id="edge13" class="edge">
<title>Node1&#45;&gt;Node12</title>
<path fill="none" stroke="midnightblue" d="M144.05,-51C156.46,-40.96 172.35,-28.1 182.73,-19.71"/>
<polygon fill="midnightblue" stroke="midnightblue" points="141.7,-48.4 136.12,-57.41 146.1,-53.84 141.7,-48.4"/>
</g>
<!-- Node2 -->
<g id="node2" class="node">
<title>Node2</title>
<g id="a_node2"><a xlink:href="classTRUSTChamp__Don__generique.html" target="_top" xlink:title=" ">
<polygon fill="white" stroke="black" points="45,-114.5 45,-144.5 206,-144.5 206,-114.5 45,-114.5"/>
<text text-anchor="start" x="53" y="-132.5" font-family="Helvetica,sans-Serif" font-size="10.00">TRUSTChamp_Don_generique</text>
<text text-anchor="middle" x="125.5" y="-121.5" font-family="Helvetica,sans-Serif" font-size="10.00">&lt; Champ_Don_Type::LU &gt;</text>
</a>
</g>
</g>
<!-- Node2&#45;&gt;Node1 -->
<g id="edge1" class="edge">
<title>Node2&#45;&gt;Node1</title>
<path fill="none" stroke="midnightblue" d="M125.5,-104.35C125.5,-94.51 125.5,-83.78 125.5,-76.54"/>
<polygon fill="midnightblue" stroke="midnightblue" points="122,-104.47 125.5,-114.47 129,-104.47 122,-104.47"/>
</g>
<!-- Node3 -->
<g id="node3" class="node">
<title>Node3</title>
<g id="a_node3"><a xlink:href="classChamp__Don__base.html" target="_top" xlink:title=" ">
<polygon fill="white" stroke="black" points="179.5,-260.5 179.5,-279.5 283.5,-279.5 283.5,-260.5 179.5,-260.5"/>
<text text-anchor="middle" x="231.5" y="-267.5" font-family="Helvetica,sans-Serif" font-size="10.00">Champ_Don_base</text>
</a>
</g>
</g>
<!-- Node3&#45;&gt;Node2 -->
<g id="edge2" class="edge">
<title>Node3&#45;&gt;Node2</title>
<path fill="none" stroke="midnightblue" d="M243.86,-252.03C258.69,-229.43 279.11,-189.26 258.5,-163 251.23,-153.75 229.7,-146.79 206.01,-141.74"/>
<polygon fill="midnightblue" stroke="midnightblue" points="240.97,-250.07 238.18,-260.29 246.73,-254.04 240.97,-250.07"/>
</g>
<!-- Node10 -->
<g id="node10" class="node">
<title>Node10</title>
<g id="a_node10"><a xlink:href="classTRUSTChamp__Don__generique.html" target="_top" xlink:title=" ">
<polygon fill="white" stroke="black" points="83,-192.5 83,-222.5 244,-222.5 244,-192.5 83,-192.5"/>
<text text-anchor="start" x="91" y="-210.5" font-family="Helvetica,sans-Serif" font-size="10.00">TRUSTChamp_Don_generique</text>
<text text-anchor="middle" x="163.5" y="-199.5" font-family="Helvetica,sans-Serif" font-size="10.00">&lt; _TYPE_ &gt;</text>
</a>
</g>
</g>
<!-- Node3&#45;&gt;Node10 -->
<g id="edge10" class="edge">
<title>Node3&#45;&gt;Node10</title>
<path fill="none" stroke="midnightblue" d="M214.21,-253.62C203.45,-244.05 189.72,-231.83 179.26,-222.53"/>
<polygon fill="midnightblue" stroke="midnightblue" points="211.96,-256.3 221.76,-260.33 216.61,-251.07 211.96,-256.3"/>
</g>
<!-- Node4 -->
<g id="node4" class="node">
<title>Node4</title>
<g id="a_node4"><a xlink:href="classChamp__base.html" target="_top" xlink:title="classe Champ_base Cette classe est la base de la hierarchie des champs. Ses membres sont les attribut...">
<polygon fill="white" stroke="black" points="191.5,-317.5 191.5,-336.5 271.5,-336.5 271.5,-317.5 191.5,-317.5"/>
<text text-anchor="middle" x="231.5" y="-324.5" font-family="Helvetica,sans-Serif" font-size="10.00">Champ_base</text>
</a>
</g>
</g>
<!-- Node4&#45;&gt;Node3 -->
<g id="edge3" class="edge">
<title>Node4&#45;&gt;Node3</title>
<path fill="none" stroke="midnightblue" d="M231.5,-307.12C231.5,-297.82 231.5,-287.06 231.5,-279.71"/>
<polygon fill="midnightblue" stroke="midnightblue" points="228,-307.41 231.5,-317.41 235,-307.41 228,-307.41"/>
</g>
<!-- Node5 -->
<g id="node5" class="node">
<title>Node5</title>
<g id="a_node5"><a xlink:href="classField__base.html" target="_top" xlink:title=" ">
<polygon fill="white" stroke="black" points="151.5,-374.5 151.5,-393.5 219.5,-393.5 219.5,-374.5 151.5,-374.5"/>
<text text-anchor="middle" x="185.5" y="-381.5" font-family="Helvetica,sans-Serif" font-size="10.00">Field_base</text>
</a>
</g>
</g>
<!-- Node5&#45;&gt;Node4 -->
<g id="edge4" class="edge">
<title>Node5&#45;&gt;Node4</title>
<path fill="none" stroke="midnightblue" d="M199.27,-366.53C207.47,-356.74 217.53,-344.7 224.21,-336.71"/>
<polygon fill="midnightblue" stroke="midnightblue" points="196.42,-364.49 192.69,-374.41 201.79,-368.98 196.42,-364.49"/>
</g>
<!-- Node6 -->
<g id="node6" class="node">
<title>Node6</title>
<g id="a_node6"><a xlink:href="classObjet__U.html" target="_top" xlink:title="classe Objet_U Cette classe est la classe de base des Objets de TRUST Dans les classes derivees de Ob...">
<polygon fill="white" stroke="black" points="157.5,-431.5 157.5,-450.5 213.5,-450.5 213.5,-431.5 157.5,-431.5"/>
<text text-anchor="middle" x="185.5" y="-438.5" font-family="Helvetica,sans-Serif" font-size="10.00">Objet_U</text>
</a>
</g>
</g>
<!-- Node6&#45;&gt;Node5 -->
<g id="edge5" class="edge">
<title>Node6&#45;&gt;Node5</title>
<path fill="none" stroke="midnightblue" d="M185.5,-421.12C185.5,-411.82 185.5,-401.06 185.5,-393.71"/>
<polygon fill="midnightblue" stroke="midnightblue" points="182,-421.41 185.5,-431.41 189,-421.41 182,-421.41"/>
</g>
<!-- Node7 -->
<g id="node7" class="node">
<title>Node7</title>
<g id="a_node7"><a xlink:href="classProcess.html" target="_top" xlink:title="Classe de base de TRUST (notamment Objet_U). Elle fournit quelques services de base accessibles de pa...">
<polygon fill="white" stroke="black" points="158.5,-488.5 158.5,-507.5 212.5,-507.5 212.5,-488.5 158.5,-488.5"/>
<text text-anchor="middle" x="185.5" y="-495.5" font-family="Helvetica,sans-Serif" font-size="10.00">Process</text>
</a>
</g>
</g>
<!-- Node7&#45;&gt;Node6 -->
<g id="edge6" class="edge">
<title>Node7&#45;&gt;Node6</title>
<path fill="none" stroke="midnightblue" d="M185.5,-478.12C185.5,-468.82 185.5,-458.06 185.5,-450.71"/>
<polygon fill="midnightblue" stroke="midnightblue" points="182,-478.41 185.5,-488.41 189,-478.41 182,-478.41"/>
</g>
<!-- Node8 -->
<g id="node8" class="node">
<title>Node8</title>
<g id="a_node8"><a xlink:href="classChamp__Proto.html" target="_top" xlink:title="classe Champ_Proto Classe representant un prototype de Champ. Tous les classes representant des champ...">
<polygon fill="white" stroke="black" points="237.5,-374.5 237.5,-393.5 319.5,-393.5 319.5,-374.5 237.5,-374.5"/>
<text text-anchor="middle" x="278.5" y="-381.5" font-family="Helvetica,sans-Serif" font-size="10.00">Champ_Proto</text>
</a>
</g>
</g>
<!-- Node8&#45;&gt;Node4 -->
<g id="edge7" class="edge">
<title>Node8&#45;&gt;Node4</title>
<path fill="none" stroke="midnightblue" d="M264.43,-366.53C256.06,-356.74 245.77,-344.7 238.95,-336.71"/>
<polygon fill="midnightblue" stroke="midnightblue" points="262,-369.08 271.16,-374.41 267.32,-364.53 262,-369.08"/>
</g>
<!-- Node9 -->
<g id="node9" class="node">
<title>Node9</title>
<g id="a_node9"><a xlink:href="classParser__Eval.html" target="_top" xlink:title="Classe Parser_Eval Cette classe a pour fonction d evaleur les valeurs prises par une fonction analyti...">
<polygon fill="white" stroke="black" points="67,-260.5 67,-279.5 140,-279.5 140,-260.5 67,-260.5"/>
<text text-anchor="middle" x="103.5" y="-267.5" font-family="Helvetica,sans-Serif" font-size="10.00">Parser_Eval</text>
</a>
</g>
</g>
<!-- Node9&#45;&gt;Node2 -->
<g id="edge8" class="edge">
<title>Node9&#45;&gt;Node2</title>
<path fill="none" stroke="midnightblue" d="M89.23,-252.29C83.11,-244.05 76.65,-233.6 73.5,-223 69.57,-209.79 68.76,-204.94 73.5,-192 80.42,-173.09 96.01,-156 108.32,-144.66"/>
<polygon fill="midnightblue" stroke="midnightblue" points="86.61,-254.62 95.56,-260.29 92.1,-250.28 86.61,-254.62"/>
</g>
<!-- Node9&#45;&gt;Node10 -->
<g id="edge11" class="edge">
<title>Node9&#45;&gt;Node10</title>
<path fill="none" stroke="midnightblue" d="M119.26,-253.11C128.6,-243.69 140.32,-231.87 149.36,-222.76"/>
<polygon fill="midnightblue" stroke="midnightblue" points="116.65,-250.77 112.1,-260.33 121.62,-255.7 116.65,-250.77"/>
</g>
<!-- Node10&#45;&gt;Node2 -->
<g id="edge9" class="edge">
<title>Node10&#45;&gt;Node2</title>
<path fill="none" stroke="orange" stroke-dasharray="5,2" d="M134.25,-185.39C131.14,-181.93 128.42,-178.12 126.5,-174 122.28,-164.96 122.15,-153.68 123.01,-144.87"/>
<polygon fill="orange" stroke="orange" points="131.86,-187.95 141.5,-192.35 136.71,-182.9 131.86,-187.95"/>
<text text-anchor="middle" x="192.5" y="-166" font-family="Helvetica,sans-Serif" font-size="10.00"> &lt; Champ_Don_Type::LU &gt;</text>
</g>
</g>
</svg>
