<?xml version="1.0" encoding="UTF-8" standalone="no"?>
<!DOCTYPE svg PUBLIC "-//W3C//DTD SVG 1.1//EN"
 "http://www.w3.org/Graphics/SVG/1.1/DTD/svg11.dtd">
<!-- Generated by graphviz version 2.43.0 (0)
 -->
<!-- Title: Perte_Charge_VEF_Face Pages: 1 -->
<svg width="404pt" height="330pt"
 viewBox="0.00 0.00 403.50 330.00" xmlns="http://www.w3.org/2000/svg" xmlns:xlink="http://www.w3.org/1999/xlink">
<g id="graph0" class="graph" transform="scale(1 1) rotate(0) translate(4 326)">
<title>Perte_Charge_VEF_Face</title>
<polygon fill="white" stroke="transparent" points="-4,4 -4,-326 399.5,-326 399.5,4 -4,4"/>
<!-- Node1 -->
<g id="node1" class="node">
<title>Node1</title>
<g id="a_node1"><a xlink:title="class Perte_Charge_VEF_Face">
<polygon fill="#bfbfbf" stroke="black" points="184,-134.5 184,-153.5 317,-153.5 317,-134.5 184,-134.5"/>
<text text-anchor="middle" x="250.5" y="-141.5" font-family="Helvetica,sans-Serif" font-size="10.00">Perte_Charge_VEF_Face</text>
</a>
</g>
</g>
<!-- Node8 -->
<g id="node8" class="node">
<title>Node8</title>
<g id="a_node8"><a xlink:href="classPerte__Charge__Reguliere__VEF__P1NC.html" target="_top" xlink:title="class Perte_Charge_Reguliere_VEF_P1NC">
<polygon fill="white" stroke="black" points="107.5,-67.5 107.5,-97.5 241.5,-97.5 241.5,-67.5 107.5,-67.5"/>
<text text-anchor="start" x="115.5" y="-85.5" font-family="Helvetica,sans-Serif" font-size="10.00">Perte_Charge_Reguliere</text>
<text text-anchor="middle" x="174.5" y="-74.5" font-family="Helvetica,sans-Serif" font-size="10.00">_VEF_P1NC</text>
</a>
</g>
</g>
<!-- Node1&#45;&gt;Node8 -->
<g id="edge7" class="edge">
<title>Node1&#45;&gt;Node8</title>
<path fill="none" stroke="midnightblue" d="M231.59,-128.2C219.61,-118.81 204.2,-106.75 192.41,-97.52"/>
<polygon fill="midnightblue" stroke="midnightblue" points="229.58,-131.07 239.61,-134.48 233.89,-125.55 229.58,-131.07"/>
</g>
<!-- Node10 -->
<g id="node10" class="node">
<title>Node10</title>
<g id="a_node10"><a xlink:href="classPerte__Charge__Singuliere__VEF__Face.html" target="_top" xlink:title="class Perte_Charge_Singuliere_VEF_Face">
<polygon fill="white" stroke="black" points="259.5,-67.5 259.5,-97.5 395.5,-97.5 395.5,-67.5 259.5,-67.5"/>
<text text-anchor="start" x="267.5" y="-85.5" font-family="Helvetica,sans-Serif" font-size="10.00">Perte_Charge_Singuliere</text>
<text text-anchor="middle" x="327.5" y="-74.5" font-family="Helvetica,sans-Serif" font-size="10.00">_VEF_Face</text>
</a>
</g>
</g>
<!-- Node1&#45;&gt;Node10 -->
<g id="edge9" class="edge">
<title>Node1&#45;&gt;Node10</title>
<path fill="none" stroke="midnightblue" d="M269.66,-128.2C281.8,-118.81 297.41,-106.75 309.35,-97.52"/>
<polygon fill="midnightblue" stroke="midnightblue" points="267.31,-125.59 261.53,-134.48 271.59,-131.13 267.31,-125.59"/>
</g>
<!-- Node2 -->
<g id="node2" class="node">
<title>Node2</title>
<g id="a_node2"><a xlink:href="classSource__base.html" target="_top" xlink:title="classe Source_base Un objet Source_base est un terme apparaissant au second membre d&#39;une equation....">
<polygon fill="white" stroke="black" points="154.5,-190.5 154.5,-209.5 232.5,-209.5 232.5,-190.5 154.5,-190.5"/>
<text text-anchor="middle" x="193.5" y="-197.5" font-family="Helvetica,sans-Serif" font-size="10.00">Source_base</text>
</a>
</g>
</g>
<!-- Node2&#45;&gt;Node1 -->
<g id="edge1" class="edge">
<title>Node2&#45;&gt;Node1</title>
<path fill="none" stroke="midnightblue" d="M210.12,-183.25C220.23,-173.67 232.78,-161.79 241.18,-153.83"/>
<polygon fill="midnightblue" stroke="midnightblue" points="207.51,-180.91 202.66,-190.32 212.32,-185.99 207.51,-180.91"/>
</g>
<!-- Node3 -->
<g id="node3" class="node">
<title>Node3</title>
<g id="a_node3"><a xlink:href="classChamps__compris__interface.html" target="_top" xlink:title="classe Champs_compris_interface Cette classe contient une interface de methodes destinees a gerer les...">
<polygon fill="white" stroke="black" points="0,-246.5 0,-265.5 149,-265.5 149,-246.5 0,-246.5"/>
<text text-anchor="middle" x="74.5" y="-253.5" font-family="Helvetica,sans-Serif" font-size="10.00">Champs_compris_interface</text>
</a>
</g>
</g>
<!-- Node3&#45;&gt;Node2 -->
<g id="edge2" class="edge">
<title>Node3&#45;&gt;Node2</title>
<path fill="none" stroke="midnightblue" d="M102.64,-242.23C124.9,-232.13 155.36,-218.31 174.73,-209.52"/>
<polygon fill="midnightblue" stroke="midnightblue" points="101.02,-239.12 93.36,-246.44 103.91,-245.5 101.02,-239.12"/>
</g>
<!-- Node4 -->
<g id="node4" class="node">
<title>Node4</title>
<g id="a_node4"><a xlink:href="classMorEqn.html" target="_top" xlink:title="classe MorEqn Classe qui regroupe les fonctionnalites de liaison avec une Equation....">
<polygon fill="white" stroke="black" points="167,-246.5 167,-265.5 220,-265.5 220,-246.5 167,-246.5"/>
<text text-anchor="middle" x="193.5" y="-253.5" font-family="Helvetica,sans-Serif" font-size="10.00">MorEqn</text>
</a>
</g>
</g>
<!-- Node4&#45;&gt;Node2 -->
<g id="edge3" class="edge">
<title>Node4&#45;&gt;Node2</title>
<path fill="none" stroke="midnightblue" d="M193.5,-235.8C193.5,-226.91 193.5,-216.78 193.5,-209.75"/>
<polygon fill="midnightblue" stroke="midnightblue" points="190,-236.08 193.5,-246.08 197,-236.08 190,-236.08"/>
</g>
<!-- Node5 -->
<g id="node5" class="node">
<title>Node5</title>
<g id="a_node5"><a xlink:href="classObjet__U.html" target="_top" xlink:title="classe Objet_U Cette classe est la classe de base des Objets de TRUST Dans les classes derivees de Ob...">
<polygon fill="white" stroke="black" points="238.5,-246.5 238.5,-265.5 294.5,-265.5 294.5,-246.5 238.5,-246.5"/>
<text text-anchor="middle" x="266.5" y="-253.5" font-family="Helvetica,sans-Serif" font-size="10.00">Objet_U</text>
</a>
</g>
</g>
<!-- Node5&#45;&gt;Node2 -->
<g id="edge4" class="edge">
<title>Node5&#45;&gt;Node2</title>
<path fill="none" stroke="midnightblue" d="M246.36,-240.1C233.22,-230.38 216.52,-218.03 205.44,-209.83"/>
<polygon fill="midnightblue" stroke="midnightblue" points="244.65,-243.19 254.77,-246.32 248.81,-237.56 244.65,-243.19"/>
</g>
<!-- Node6 -->
<g id="node6" class="node">
<title>Node6</title>
<g id="a_node6"><a xlink:href="classProcess.html" target="_top" xlink:title="Classe de base de TRUST (notamment Objet_U). Elle fournit quelques services de base accessibles de pa...">
<polygon fill="white" stroke="black" points="239.5,-302.5 239.5,-321.5 293.5,-321.5 293.5,-302.5 239.5,-302.5"/>
<text text-anchor="middle" x="266.5" y="-309.5" font-family="Helvetica,sans-Serif" font-size="10.00">Process</text>
</a>
</g>
</g>
<!-- Node6&#45;&gt;Node5 -->
<g id="edge5" class="edge">
<title>Node6&#45;&gt;Node5</title>
<path fill="none" stroke="midnightblue" d="M266.5,-291.8C266.5,-282.91 266.5,-272.78 266.5,-265.75"/>
<polygon fill="midnightblue" stroke="midnightblue" points="263,-292.08 266.5,-302.08 270,-292.08 263,-292.08"/>
</g>
<!-- Node7 -->
<g id="node7" class="node">
<title>Node7</title>
<g id="a_node7"><a xlink:href="classTerme__Source__Qdm.html" target="_top" xlink:title="Classe Terme_Source_Qdm Cette classe represente un terme source qui figure dans l&#39;equation de la dyna...">
<polygon fill="white" stroke="black" points="251,-190.5 251,-209.5 364,-209.5 364,-190.5 251,-190.5"/>
<text text-anchor="middle" x="307.5" y="-197.5" font-family="Helvetica,sans-Serif" font-size="10.00">Terme_Source_Qdm</text>
</a>
</g>
</g>
<!-- Node7&#45;&gt;Node1 -->
<g id="edge6" class="edge">
<title>Node7&#45;&gt;Node1</title>
<path fill="none" stroke="midnightblue" d="M290.88,-183.25C280.77,-173.67 268.22,-161.79 259.82,-153.83"/>
<polygon fill="midnightblue" stroke="midnightblue" points="288.68,-185.99 298.34,-190.32 293.49,-180.91 288.68,-185.99"/>
</g>
<!-- Node9 -->
<g id="node9" class="node">
<title>Node9</title>
<g id="a_node9"><a xlink:href="classPerte__Charge__Reguliere__QC__VEF__P1NC.html" target="_top" xlink:title=" ">
<polygon fill="white" stroke="black" points="107.5,-0.5 107.5,-30.5 241.5,-30.5 241.5,-0.5 107.5,-0.5"/>
<text text-anchor="start" x="115.5" y="-18.5" font-family="Helvetica,sans-Serif" font-size="10.00">Perte_Charge_Reguliere</text>
<text text-anchor="middle" x="174.5" y="-7.5" font-family="Helvetica,sans-Serif" font-size="10.00">_QC_VEF_P1NC</text>
</a>
</g>
</g>
<!-- Node8&#45;&gt;Node9 -->
<g id="edge8" class="edge">
<title>Node8&#45;&gt;Node9</title>
<path fill="none" stroke="midnightblue" d="M174.5,-57.11C174.5,-48.15 174.5,-38.32 174.5,-30.58"/>
<polygon fill="midnightblue" stroke="midnightblue" points="171,-57.4 174.5,-67.4 178,-57.4 171,-57.4"/>
</g>
<!-- Node11 -->
<g id="node11" class="node">
<title>Node11</title>
<g id="a_node11"><a xlink:href="classPerte__Charge__Singuliere__QC__VEF__P1NC.html" target="_top" xlink:title=" ">
<polygon fill="white" stroke="black" points="259.5,-0.5 259.5,-30.5 395.5,-30.5 395.5,-0.5 259.5,-0.5"/>
<text text-anchor="start" x="267.5" y="-18.5" font-family="Helvetica,sans-Serif" font-size="10.00">Perte_Charge_Singuliere</text>
<text text-anchor="middle" x="327.5" y="-7.5" font-family="Helvetica,sans-Serif" font-size="10.00">_QC_VEF_P1NC</text>
</a>
</g>
</g>
<!-- Node10&#45;&gt;Node11 -->
<g id="edge10" class="edge">
<title>Node10&#45;&gt;Node11</title>
<path fill="none" stroke="midnightblue" d="M327.5,-57.11C327.5,-48.15 327.5,-38.32 327.5,-30.58"/>
<polygon fill="midnightblue" stroke="midnightblue" points="324,-57.4 327.5,-67.4 331,-57.4 324,-57.4"/>
</g>
</g>
</svg>
