<?xml version="1.0" encoding="UTF-8" standalone="no"?>
<!DOCTYPE svg PUBLIC "-//W3C//DTD SVG 1.1//EN"
 "http://www.w3.org/Graphics/SVG/1.1/DTD/svg11.dtd">
<!-- Generated by graphviz version 2.43.0 (0)
 -->
<!-- Title: Op_Diff_VEF_base Pages: 1 -->
<svg width="1470pt" height="300pt"
 viewBox="0.00 0.00 1470.00 299.50" xmlns="http://www.w3.org/2000/svg" xmlns:xlink="http://www.w3.org/1999/xlink">
<g id="graph0" class="graph" transform="scale(1 1) rotate(0) translate(4 295.5)">
<title>Op_Diff_VEF_base</title>
<polygon fill="white" stroke="transparent" points="-4,4 -4,-295.5 1466,-295.5 1466,4 -4,4"/>
<!-- Node1 -->
<g id="node1" class="node">
<title>Node1</title>
<g id="a_node1"><a xlink:title="class Op_Diff_VEF_base Classe de base des operateurs de convection VEF">
<polygon fill="#bfbfbf" stroke="black" points="594,-142.5 594,-161.5 699,-161.5 699,-142.5 594,-142.5"/>
<text text-anchor="middle" x="646.5" y="-149.5" font-family="Helvetica,sans-Serif" font-size="10.00">Op_Diff_VEF_base</text>
</a>
</g>
</g>
<!-- Node10 -->
<g id="node10" class="node">
<title>Node10</title>
<g id="a_node10"><a xlink:href="classOp__Diff__VEF__Anisotrope__Face.html" target="_top" xlink:title=": class Op_Diff_VEF_Anisotrope_Face &lt;Description of class Op_Diff_VEF_Anisotrope_Face&gt;">
<polygon fill="white" stroke="black" points="735,-209.5 735,-228.5 896,-228.5 896,-209.5 735,-209.5"/>
<text text-anchor="middle" x="815.5" y="-216.5" font-family="Helvetica,sans-Serif" font-size="10.00">Op_Diff_VEF_Anisotrope_Face</text>
</a>
</g>
</g>
<!-- Node1&#45;&gt;Node10 -->
<g id="edge9" class="edge">
<title>Node1&#45;&gt;Node10</title>
<path fill="none" stroke="midnightblue" d="M670.84,-167.05C688.01,-177.56 712.22,-191.21 735,-200 744.67,-203.73 755.28,-206.88 765.52,-209.47"/>
<polygon fill="midnightblue" stroke="midnightblue" points="672.42,-163.91 662.08,-161.59 668.72,-169.85 672.42,-163.91"/>
</g>
<!-- Node11 -->
<g id="node11" class="node">
<title>Node11</title>
<g id="a_node11"><a xlink:href="classOp__Diff__VEF__Face.html" target="_top" xlink:title="class Op_Diff_VEF_Face Cette classe represente l&#39;operateur de diffusion La discretisation est VEF Le ...">
<polygon fill="white" stroke="black" points="763.5,-171.5 763.5,-190.5 867.5,-190.5 867.5,-171.5 763.5,-171.5"/>
<text text-anchor="middle" x="815.5" y="-178.5" font-family="Helvetica,sans-Serif" font-size="10.00">Op_Diff_VEF_Face</text>
</a>
</g>
</g>
<!-- Node1&#45;&gt;Node11 -->
<g id="edge10" class="edge">
<title>Node1&#45;&gt;Node11</title>
<path fill="none" stroke="midnightblue" d="M709.67,-162.8C727.4,-165.87 746.49,-169.19 763.47,-172.14"/>
<polygon fill="midnightblue" stroke="midnightblue" points="709.88,-159.28 699.42,-161.02 708.68,-166.18 709.88,-159.28"/>
</g>
<!-- Node18 -->
<g id="node18" class="node">
<title>Node18</title>
<g id="a_node18"><a xlink:href="classOp__Diff__VEF__Face__Q1.html" target="_top" xlink:title="class Op_Diff_VEF_Face_Q1_Q1 Cette classe represente l&#39;operateur de diffusion La discretisation est V...">
<polygon fill="white" stroke="black" points="754.5,-123.5 754.5,-142.5 876.5,-142.5 876.5,-123.5 754.5,-123.5"/>
<text text-anchor="middle" x="815.5" y="-130.5" font-family="Helvetica,sans-Serif" font-size="10.00">Op_Diff_VEF_Face_Q1</text>
</a>
</g>
</g>
<!-- Node1&#45;&gt;Node18 -->
<g id="edge17" class="edge">
<title>Node1&#45;&gt;Node18</title>
<path fill="none" stroke="midnightblue" d="M709.43,-144.95C724.14,-143.28 739.8,-141.5 754.43,-139.83"/>
<polygon fill="midnightblue" stroke="midnightblue" points="708.96,-141.48 699.42,-146.09 709.76,-148.44 708.96,-141.48"/>
</g>
<!-- Node20 -->
<g id="node20" class="node">
<title>Node20</title>
<g id="a_node20"><a xlink:href="classOp__Dift__VEF__base.html" target="_top" xlink:title="class Op_Dift_VEF_base">
<polygon fill="white" stroke="black" points="763,-57.5 763,-76.5 868,-76.5 868,-57.5 763,-57.5"/>
<text text-anchor="middle" x="815.5" y="-64.5" font-family="Helvetica,sans-Serif" font-size="10.00">Op_Dift_VEF_base</text>
</a>
</g>
</g>
<!-- Node1&#45;&gt;Node20 -->
<g id="edge19" class="edge">
<title>Node1&#45;&gt;Node20</title>
<path fill="none" stroke="midnightblue" d="M675.31,-137.84C709.44,-120.47 766.38,-91.49 795.74,-76.55"/>
<polygon fill="midnightblue" stroke="midnightblue" points="673.66,-134.76 666.33,-142.41 676.83,-141 673.66,-134.76"/>
</g>
<!-- Node2 -->
<g id="node2" class="node">
<title>Node2</title>
<g id="a_node2"><a xlink:href="classOperateur__Diff__base.html" target="_top" xlink:title="classe Operateur_Diff_base Cette classe est la base de la hierarchie des operateurs representant un t...">
<polygon fill="white" stroke="black" points="442,-161.5 442,-180.5 558,-180.5 558,-161.5 442,-161.5"/>
<text text-anchor="middle" x="500" y="-168.5" font-family="Helvetica,sans-Serif" font-size="10.00">Operateur_Diff_base</text>
</a>
</g>
</g>
<!-- Node2&#45;&gt;Node1 -->
<g id="edge1" class="edge">
<title>Node2&#45;&gt;Node1</title>
<path fill="none" stroke="midnightblue" d="M568.2,-162.16C576.86,-161.03 585.61,-159.87 593.96,-158.78"/>
<polygon fill="midnightblue" stroke="midnightblue" points="567.57,-158.72 558.11,-163.49 568.48,-165.66 567.57,-158.72"/>
</g>
<!-- Node3 -->
<g id="node3" class="node">
<title>Node3</title>
<g id="a_node3"><a xlink:href="classOperateur__base.html" target="_top" xlink:title="classe Operateur_base Classe est la base de la hierarchie des objets representant un operateur utilis...">
<polygon fill="white" stroke="black" points="293.5,-183.5 293.5,-202.5 387.5,-202.5 387.5,-183.5 293.5,-183.5"/>
<text text-anchor="middle" x="340.5" y="-190.5" font-family="Helvetica,sans-Serif" font-size="10.00">Operateur_base</text>
</a>
</g>
</g>
<!-- Node3&#45;&gt;Node2 -->
<g id="edge2" class="edge">
<title>Node3&#45;&gt;Node2</title>
<path fill="none" stroke="midnightblue" d="M398.04,-185.1C412.25,-183.12 427.52,-180.99 441.76,-179"/>
<polygon fill="midnightblue" stroke="midnightblue" points="397.32,-181.67 387.9,-186.52 398.29,-188.6 397.32,-181.67"/>
</g>
<!-- Node4 -->
<g id="node4" class="node">
<title>Node4</title>
<g id="a_node4"><a xlink:href="classObjet__U.html" target="_top" xlink:title="classe Objet_U Cette classe est la classe de base des Objets de TRUST Dans les classes derivees de Ob...">
<polygon fill="white" stroke="black" points="136.5,-221.5 136.5,-240.5 192.5,-240.5 192.5,-221.5 136.5,-221.5"/>
<text text-anchor="middle" x="164.5" y="-228.5" font-family="Helvetica,sans-Serif" font-size="10.00">Objet_U</text>
</a>
</g>
</g>
<!-- Node4&#45;&gt;Node3 -->
<g id="edge3" class="edge">
<title>Node4&#45;&gt;Node3</title>
<path fill="none" stroke="midnightblue" d="M202.64,-222.89C229.96,-216.92 267.2,-208.79 295.93,-202.52"/>
<polygon fill="midnightblue" stroke="midnightblue" points="201.71,-219.51 192.69,-225.06 203.2,-226.35 201.71,-219.51"/>
</g>
<!-- Node5 -->
<g id="node5" class="node">
<title>Node5</title>
<g id="a_node5"><a xlink:href="classProcess.html" target="_top" xlink:title="Classe de base de TRUST (notamment Objet_U). Elle fournit quelques services de base accessibles de pa...">
<polygon fill="white" stroke="black" points="0,-221.5 0,-240.5 54,-240.5 54,-221.5 0,-221.5"/>
<text text-anchor="middle" x="27" y="-228.5" font-family="Helvetica,sans-Serif" font-size="10.00">Process</text>
</a>
</g>
</g>
<!-- Node5&#45;&gt;Node4 -->
<g id="edge4" class="edge">
<title>Node5&#45;&gt;Node4</title>
<path fill="none" stroke="midnightblue" d="M64.34,-231C86.89,-231 115.4,-231 136.06,-231"/>
<polygon fill="midnightblue" stroke="midnightblue" points="64.13,-227.5 54.13,-231 64.13,-234.5 64.13,-227.5"/>
</g>
<!-- Node6 -->
<g id="node6" class="node">
<title>Node6</title>
<g id="a_node6"><a xlink:href="classMorEqn.html" target="_top" xlink:title="classe MorEqn Classe qui regroupe les fonctionnalites de liaison avec une Equation....">
<polygon fill="white" stroke="black" points="138,-183.5 138,-202.5 191,-202.5 191,-183.5 138,-183.5"/>
<text text-anchor="middle" x="164.5" y="-190.5" font-family="Helvetica,sans-Serif" font-size="10.00">MorEqn</text>
</a>
</g>
</g>
<!-- Node6&#45;&gt;Node3 -->
<g id="edge5" class="edge">
<title>Node6&#45;&gt;Node3</title>
<path fill="none" stroke="midnightblue" d="M201.22,-193C227.89,-193 264.55,-193 293.43,-193"/>
<polygon fill="midnightblue" stroke="midnightblue" points="201.17,-189.5 191.17,-193 201.17,-196.5 201.17,-189.5"/>
</g>
<!-- Node7 -->
<g id="node7" class="node">
<title>Node7</title>
<g id="a_node7"><a xlink:href="classChamps__compris__interface.html" target="_top" xlink:title="classe Champs_compris_interface Cette classe contient une interface de methodes destinees a gerer les...">
<polygon fill="white" stroke="black" points="90,-145.5 90,-164.5 239,-164.5 239,-145.5 90,-145.5"/>
<text text-anchor="middle" x="164.5" y="-152.5" font-family="Helvetica,sans-Serif" font-size="10.00">Champs_compris_interface</text>
</a>
</g>
</g>
<!-- Node7&#45;&gt;Node3 -->
<g id="edge6" class="edge">
<title>Node7&#45;&gt;Node3</title>
<path fill="none" stroke="midnightblue" d="M219.31,-166.75C243.92,-172.13 272.69,-178.41 295.91,-183.48"/>
<polygon fill="midnightblue" stroke="midnightblue" points="219.92,-163.3 209.41,-164.59 218.43,-170.14 219.92,-163.3"/>
</g>
<!-- Node8 -->
<g id="node8" class="node">
<title>Node8</title>
<g id="a_node8"><a xlink:href="classSupport__Champ__Masse__Volumique.html" target="_top" xlink:title=" ">
<polygon fill="white" stroke="black" points="275,-134 275,-164 406,-164 406,-134 275,-134"/>
<text text-anchor="start" x="283" y="-152" font-family="Helvetica,sans-Serif" font-size="10.00">Support_Champ_Masse</text>
<text text-anchor="middle" x="340.5" y="-141" font-family="Helvetica,sans-Serif" font-size="10.00">_Volumique</text>
</a>
</g>
</g>
<!-- Node8&#45;&gt;Node2 -->
<g id="edge7" class="edge">
<title>Node8&#45;&gt;Node2</title>
<path fill="none" stroke="midnightblue" d="M416.13,-159.42C424.8,-160.64 433.53,-161.85 441.91,-163.02"/>
<polygon fill="midnightblue" stroke="midnightblue" points="416.4,-155.93 406.02,-158.01 415.44,-162.86 416.4,-155.93"/>
</g>
<!-- Node9 -->
<g id="node9" class="node">
<title>Node9</title>
<g id="a_node9"><a xlink:href="classOp__VEF__Face.html" target="_top" xlink:title=" ">
<polygon fill="white" stroke="black" points="459.5,-123.5 459.5,-142.5 540.5,-142.5 540.5,-123.5 459.5,-123.5"/>
<text text-anchor="middle" x="500" y="-130.5" font-family="Helvetica,sans-Serif" font-size="10.00">Op_VEF_Face</text>
</a>
</g>
</g>
<!-- Node9&#45;&gt;Node1 -->
<g id="edge8" class="edge">
<title>Node9&#45;&gt;Node1</title>
<path fill="none" stroke="midnightblue" d="M551.15,-139.59C564.96,-141.41 579.95,-143.38 593.84,-145.21"/>
<polygon fill="midnightblue" stroke="midnightblue" points="551.24,-136.08 540.87,-138.24 550.33,-143.02 551.24,-136.08"/>
</g>
<!-- Node12 -->
<g id="node12" class="node">
<title>Node12</title>
<g id="a_node12"><a xlink:href="classOp__Diff__VEFP1NCP1B__Face.html" target="_top" xlink:title="class Op_Diff_VEF_Face Cette classe represente l&#39;operateur de diffusion La discretisation est VEF Le ...">
<polygon fill="white" stroke="black" points="934.5,-266.5 934.5,-285.5 1083.5,-285.5 1083.5,-266.5 934.5,-266.5"/>
<text text-anchor="middle" x="1009" y="-273.5" font-family="Helvetica,sans-Serif" font-size="10.00">Op_Diff_VEFP1NCP1B_Face</text>
</a>
</g>
</g>
<!-- Node11&#45;&gt;Node12 -->
<g id="edge11" class="edge">
<title>Node11&#45;&gt;Node12</title>
<path fill="none" stroke="midnightblue" d="M877.54,-190.34C884.11,-192.84 890.42,-196.01 896,-200 920.37,-217.43 907.72,-239.44 932,-257 937.4,-260.91 943.52,-264.01 949.88,-266.48"/>
<polygon fill="midnightblue" stroke="midnightblue" points="878.39,-186.93 867.79,-187.12 876.19,-193.58 878.39,-186.93"/>
</g>
<!-- Node14 -->
<g id="node14" class="node">
<title>Node14</title>
<g id="a_node14"><a xlink:href="classOp__Diff__VEF__Face__Penalise.html" target="_top" xlink:title=" ">
<polygon fill="white" stroke="black" points="934,-228.5 934,-247.5 1084,-247.5 1084,-228.5 934,-228.5"/>
<text text-anchor="middle" x="1009" y="-235.5" font-family="Helvetica,sans-Serif" font-size="10.00">Op_Diff_VEF_Face_Penalise</text>
</a>
</g>
</g>
<!-- Node11&#45;&gt;Node14 -->
<g id="edge13" class="edge">
<title>Node11&#45;&gt;Node14</title>
<path fill="none" stroke="midnightblue" d="M874.81,-193.15C882.03,-195.17 889.24,-197.46 896,-200 912.93,-206.38 915.1,-212.54 932,-219 941.53,-222.64 952,-225.78 962.04,-228.4"/>
<polygon fill="midnightblue" stroke="midnightblue" points="875.57,-189.73 865.01,-190.54 873.78,-196.49 875.57,-189.73"/>
</g>
<!-- Node15 -->
<g id="node15" class="node">
<title>Node15</title>
<g id="a_node15"><a xlink:href="classOp__Diff__VEF__Face__Stab.html" target="_top" xlink:title="class Op_Diff_VEF_Face_Stab Cette classe represente l&#39;operateur de diffusion La discretisation est VE...">
<polygon fill="white" stroke="black" points="943.5,-190.5 943.5,-209.5 1074.5,-209.5 1074.5,-190.5 943.5,-190.5"/>
<text text-anchor="middle" x="1009" y="-197.5" font-family="Helvetica,sans-Serif" font-size="10.00">Op_Diff_VEF_Face_Stab</text>
</a>
</g>
</g>
<!-- Node11&#45;&gt;Node15 -->
<g id="edge14" class="edge">
<title>Node11&#45;&gt;Node15</title>
<path fill="none" stroke="midnightblue" d="M877.63,-187.07C898.59,-189.15 922.11,-191.48 943.35,-193.59"/>
<polygon fill="midnightblue" stroke="midnightblue" points="877.86,-183.57 867.57,-186.07 877.17,-190.54 877.86,-183.57"/>
</g>
<!-- Node17 -->
<g id="node17" class="node">
<title>Node17</title>
<g id="a_node17"><a xlink:href="classOp__Diff__VEF__Face__Var.html" target="_top" xlink:title="class Op_Diff_VEF_Face_Var Cette classe represente l&#39;operateur de diffusion La discretisation est VEF...">
<polygon fill="white" stroke="black" points="946.5,-152.5 946.5,-171.5 1071.5,-171.5 1071.5,-152.5 946.5,-152.5"/>
<text text-anchor="middle" x="1009" y="-159.5" font-family="Helvetica,sans-Serif" font-size="10.00">Op_Diff_VEF_Face_Var</text>
</a>
</g>
</g>
<!-- Node11&#45;&gt;Node17 -->
<g id="edge16" class="edge">
<title>Node11&#45;&gt;Node17</title>
<path fill="none" stroke="midnightblue" d="M877.73,-174.93C899.59,-172.76 924.24,-170.31 946.16,-168.14"/>
<polygon fill="midnightblue" stroke="midnightblue" points="877.17,-171.46 867.57,-175.93 877.86,-178.43 877.17,-171.46"/>
</g>
<!-- Node13 -->
<g id="node13" class="node">
<title>Node13</title>
<g id="a_node13"><a xlink:href="classOp__Diff__VEFP1NCP1B__Face__Var.html" target="_top" xlink:title="class Op_Diff_VEFP1NCP1B_Face_Var Cette classe represente l&#39;operateur de diffusion La discretisation ...">
<polygon fill="white" stroke="black" points="1137,-261 1137,-291 1259,-291 1259,-261 1137,-261"/>
<text text-anchor="start" x="1145" y="-279" font-family="Helvetica,sans-Serif" font-size="10.00">Op_Diff_VEFP1NCP1B</text>
<text text-anchor="middle" x="1198" y="-268" font-family="Helvetica,sans-Serif" font-size="10.00">_Face_Var</text>
</a>
</g>
</g>
<!-- Node12&#45;&gt;Node13 -->
<g id="edge12" class="edge">
<title>Node12&#45;&gt;Node13</title>
<path fill="none" stroke="midnightblue" d="M1093.67,-276C1108.26,-276 1123.18,-276 1136.97,-276"/>
<polygon fill="midnightblue" stroke="midnightblue" points="1093.64,-272.5 1083.64,-276 1093.64,-279.5 1093.64,-272.5"/>
</g>
<!-- Node16 -->
<g id="node16" class="node">
<title>Node16</title>
<g id="a_node16"><a xlink:href="classOp__Diff__VEF__Face__Stab__Var.html" target="_top" xlink:title="class Op_Diff_VEF_Face_Stab_Var Cette classe represente l&#39;operateur de diffusion La discretisation es...">
<polygon fill="white" stroke="black" points="1122,-190.5 1122,-209.5 1274,-209.5 1274,-190.5 1122,-190.5"/>
<text text-anchor="middle" x="1198" y="-197.5" font-family="Helvetica,sans-Serif" font-size="10.00">Op_Diff_VEF_Face_Stab_Var</text>
</a>
</g>
</g>
<!-- Node15&#45;&gt;Node16 -->
<g id="edge15" class="edge">
<title>Node15&#45;&gt;Node16</title>
<path fill="none" stroke="midnightblue" d="M1084.74,-200C1096.93,-200 1109.57,-200 1121.77,-200"/>
<polygon fill="midnightblue" stroke="midnightblue" points="1084.62,-196.5 1074.62,-200 1084.62,-203.5 1084.62,-196.5"/>
</g>
<!-- Node19 -->
<g id="node19" class="node">
<title>Node19</title>
<g id="a_node19"><a xlink:href="classOp__Diff__VEF__Face__Var__Q1.html" target="_top" xlink:title="class Op_Diff_VEF_Face_Var_Q1 Cette classe represente l&#39;operateur de diffusion La discretisation est ...">
<polygon fill="white" stroke="black" points="937.5,-114.5 937.5,-133.5 1080.5,-133.5 1080.5,-114.5 937.5,-114.5"/>
<text text-anchor="middle" x="1009" y="-121.5" font-family="Helvetica,sans-Serif" font-size="10.00">Op_Diff_VEF_Face_Var_Q1</text>
</a>
</g>
</g>
<!-- Node18&#45;&gt;Node19 -->
<g id="edge18" class="edge">
<title>Node18&#45;&gt;Node19</title>
<path fill="none" stroke="midnightblue" d="M886.7,-129.7C903.24,-128.92 920.87,-128.09 937.42,-127.32"/>
<polygon fill="midnightblue" stroke="midnightblue" points="886.39,-126.21 876.57,-130.18 886.72,-133.2 886.39,-126.21"/>
</g>
<!-- Node21 -->
<g id="node21" class="node">
<title>Node21</title>
<g id="a_node21"><a xlink:href="classOp__Dift__VEF__Face.html" target="_top" xlink:title="class Op_Dift_VEF_Face">
<polygon fill="white" stroke="black" points="957,-76.5 957,-95.5 1061,-95.5 1061,-76.5 957,-76.5"/>
<text text-anchor="middle" x="1009" y="-83.5" font-family="Helvetica,sans-Serif" font-size="10.00">Op_Dift_VEF_Face</text>
</a>
</g>
</g>
<!-- Node20&#45;&gt;Node21 -->
<g id="edge20" class="edge">
<title>Node20&#45;&gt;Node21</title>
<path fill="none" stroke="midnightblue" d="M878.3,-73.13C903.61,-75.64 932.56,-78.51 956.67,-80.91"/>
<polygon fill="midnightblue" stroke="midnightblue" points="878.37,-69.62 868.07,-72.12 877.68,-76.59 878.37,-69.62"/>
</g>
<!-- Node27 -->
<g id="node27" class="node">
<title>Node27</title>
<g id="a_node27"><a xlink:href="classOp__Dift__VEF__Face__Q1.html" target="_top" xlink:title="class Op_Dift_VEF_FaceQ1">
<polygon fill="white" stroke="black" points="948,-38.5 948,-57.5 1070,-57.5 1070,-38.5 948,-38.5"/>
<text text-anchor="middle" x="1009" y="-45.5" font-family="Helvetica,sans-Serif" font-size="10.00">Op_Dift_VEF_Face_Q1</text>
</a>
</g>
</g>
<!-- Node20&#45;&gt;Node27 -->
<g id="edge26" class="edge">
<title>Node20&#45;&gt;Node27</title>
<path fill="none" stroke="midnightblue" d="M878.11,-60.89C900.45,-58.67 925.64,-56.17 947.85,-53.97"/>
<polygon fill="midnightblue" stroke="midnightblue" points="877.68,-57.41 868.07,-61.88 878.37,-64.38 877.68,-57.41"/>
</g>
<!-- Node28 -->
<g id="node28" class="node">
<title>Node28</title>
<g id="a_node28"><a xlink:href="classOp__Dift__VEF__P1NCP1B__Face.html" target="_top" xlink:title="class Op_Dift_VEF_P1NCP1B_Face Cette classe represente l&#39;operateur de diffusion La discretisation est...">
<polygon fill="white" stroke="black" points="932,-0.5 932,-19.5 1086,-19.5 1086,-0.5 932,-0.5"/>
<text text-anchor="middle" x="1009" y="-7.5" font-family="Helvetica,sans-Serif" font-size="10.00">Op_Dift_VEF_P1NCP1B_Face</text>
</a>
</g>
</g>
<!-- Node20&#45;&gt;Node28 -->
<g id="edge27" class="edge">
<title>Node20&#45;&gt;Node28</title>
<path fill="none" stroke="midnightblue" d="M853.39,-54.1C875.96,-46.4 905.5,-36.66 932,-29 943.5,-25.68 956.07,-22.39 967.62,-19.51"/>
<polygon fill="midnightblue" stroke="midnightblue" points="852.18,-50.82 843.86,-57.37 854.46,-57.44 852.18,-50.82"/>
</g>
<!-- Node22 -->
<g id="node22" class="node">
<title>Node22</title>
<g id="a_node22"><a xlink:href="classOp__Dift__Stab__VEF__Face.html" target="_top" xlink:title="class Op_Dift_Stab_VEF_Face">
<polygon fill="white" stroke="black" points="1132.5,-114.5 1132.5,-133.5 1263.5,-133.5 1263.5,-114.5 1132.5,-114.5"/>
<text text-anchor="middle" x="1198" y="-121.5" font-family="Helvetica,sans-Serif" font-size="10.00">Op_Dift_Stab_VEF_Face</text>
</a>
</g>
</g>
<!-- Node21&#45;&gt;Node22 -->
<g id="edge21" class="edge">
<title>Node21&#45;&gt;Node22</title>
<path fill="none" stroke="midnightblue" d="M1067.13,-97.61C1093.73,-103.01 1124.97,-109.36 1150.15,-114.48"/>
<polygon fill="midnightblue" stroke="midnightblue" points="1067.68,-94.15 1057.19,-95.59 1066.29,-101.01 1067.68,-94.15"/>
</g>
<!-- Node24 -->
<g id="node24" class="node">
<title>Node24</title>
<g id="a_node24"><a xlink:href="classOp__Dift__VEF__Face__Var.html" target="_top" xlink:title="class Op_Dift_VEF_Face_Var">
<polygon fill="white" stroke="black" points="1135.5,-76.5 1135.5,-95.5 1260.5,-95.5 1260.5,-76.5 1135.5,-76.5"/>
<text text-anchor="middle" x="1198" y="-83.5" font-family="Helvetica,sans-Serif" font-size="10.00">Op_Dift_VEF_Face_Var</text>
</a>
</g>
</g>
<!-- Node21&#45;&gt;Node24 -->
<g id="edge23" class="edge">
<title>Node21&#45;&gt;Node24</title>
<path fill="none" stroke="midnightblue" d="M1071.29,-86C1091.83,-86 1114.74,-86 1135.32,-86"/>
<polygon fill="midnightblue" stroke="midnightblue" points="1071.1,-82.5 1061.1,-86 1071.1,-89.5 1071.1,-82.5"/>
</g>
<!-- Node25 -->
<g id="node25" class="node">
<title>Node25</title>
<g id="a_node25"><a xlink:href="classOp__Dift__standard__VEF__Face.html" target="_top" xlink:title="class Op_Dift_standard_VEF_Face">
<polygon fill="white" stroke="black" points="1122,-38.5 1122,-57.5 1274,-57.5 1274,-38.5 1122,-38.5"/>
<text text-anchor="middle" x="1198" y="-45.5" font-family="Helvetica,sans-Serif" font-size="10.00">Op_Dift_standard_VEF_Face</text>
</a>
</g>
</g>
<!-- Node21&#45;&gt;Node25 -->
<g id="edge24" class="edge">
<title>Node21&#45;&gt;Node25</title>
<path fill="none" stroke="midnightblue" d="M1067.13,-74.39C1093.73,-68.99 1124.97,-62.64 1150.15,-57.52"/>
<polygon fill="midnightblue" stroke="midnightblue" points="1066.29,-70.99 1057.19,-76.41 1067.68,-77.85 1066.29,-70.99"/>
</g>
<!-- Node23 -->
<g id="node23" class="node">
<title>Node23</title>
<g id="a_node23"><a xlink:href="classOp__Dift__Stab__VEF__Face__Var.html" target="_top" xlink:title="class Op_Dift_Stab_VEF_Face_Var">
<polygon fill="white" stroke="black" points="1310,-114.5 1310,-133.5 1462,-133.5 1462,-114.5 1310,-114.5"/>
<text text-anchor="middle" x="1386" y="-121.5" font-family="Helvetica,sans-Serif" font-size="10.00">Op_Dift_Stab_VEF_Face_Var</text>
</a>
</g>
</g>
<!-- Node22&#45;&gt;Node23 -->
<g id="edge22" class="edge">
<title>Node22&#45;&gt;Node23</title>
<path fill="none" stroke="midnightblue" d="M1273.8,-124C1285.64,-124 1297.88,-124 1309.72,-124"/>
<polygon fill="midnightblue" stroke="midnightblue" points="1273.53,-120.5 1263.53,-124 1273.53,-127.5 1273.53,-120.5"/>
</g>
<!-- Node26 -->
<g id="node26" class="node">
<title>Node26</title>
<g id="a_node26"><a xlink:href="classOp__Dift__standard__VEF__Face__Var.html" target="_top" xlink:title="class Op_Dift_standard_VEF_Face_Var">
<polygon fill="white" stroke="black" points="1323.5,-33 1323.5,-63 1448.5,-63 1448.5,-33 1323.5,-33"/>
<text text-anchor="start" x="1331.5" y="-51" font-family="Helvetica,sans-Serif" font-size="10.00">Op_Dift_standard_VEF</text>
<text text-anchor="middle" x="1386" y="-40" font-family="Helvetica,sans-Serif" font-size="10.00">_Face_Var</text>
</a>
</g>
</g>
<!-- Node25&#45;&gt;Node26 -->
<g id="edge25" class="edge">
<title>Node25&#45;&gt;Node26</title>
<path fill="none" stroke="midnightblue" d="M1284.15,-48C1297.34,-48 1310.75,-48 1323.29,-48"/>
<polygon fill="midnightblue" stroke="midnightblue" points="1284.12,-44.5 1274.12,-48 1284.12,-51.5 1284.12,-44.5"/>
</g>
</g>
</svg>
