<?xml version="1.0" encoding="UTF-8" standalone="no"?>
<!DOCTYPE svg PUBLIC "-//W3C//DTD SVG 1.1//EN"
 "http://www.w3.org/Graphics/SVG/1.1/DTD/svg11.dtd">
<!-- Generated by graphviz version 2.43.0 (0)
 -->
<!-- Title: Op_Diff_VEFP1NCP1B_Face_Var Pages: 1 -->
<svg width="332pt" height="442pt"
 viewBox="0.00 0.00 331.50 442.00" xmlns="http://www.w3.org/2000/svg" xmlns:xlink="http://www.w3.org/1999/xlink">
<g id="graph0" class="graph" transform="scale(1 1) rotate(0) translate(4 438)">
<title>Op_Diff_VEFP1NCP1B_Face_Var</title>
<polygon fill="white" stroke="transparent" points="-4,4 -4,-438 327.5,-438 327.5,4 -4,4"/>
<!-- Node1 -->
<g id="node1" class="node">
<title>Node1</title>
<g id="a_node1"><a xlink:title="class Op_Diff_VEFP1NCP1B_Face_Var Cette classe represente l&#39;operateur de diffusion La discretisation ...">
<polygon fill="#bfbfbf" stroke="black" points="163,-0.5 163,-30.5 285,-30.5 285,-0.5 163,-0.5"/>
<text text-anchor="start" x="171" y="-18.5" font-family="Helvetica,sans-Serif" font-size="10.00">Op_Diff_VEFP1NCP1B</text>
<text text-anchor="middle" x="224" y="-7.5" font-family="Helvetica,sans-Serif" font-size="10.00">_Face_Var</text>
</a>
</g>
</g>
<!-- Node2 -->
<g id="node2" class="node">
<title>Node2</title>
<g id="a_node2"><a xlink:href="classOp__Diff__VEFP1NCP1B__Face.html" target="_top" xlink:title="class Op_Diff_VEF_Face Cette classe represente l&#39;operateur de diffusion La discretisation est VEF Le ...">
<polygon fill="white" stroke="black" points="149.5,-67.5 149.5,-86.5 298.5,-86.5 298.5,-67.5 149.5,-67.5"/>
<text text-anchor="middle" x="224" y="-74.5" font-family="Helvetica,sans-Serif" font-size="10.00">Op_Diff_VEFP1NCP1B_Face</text>
</a>
</g>
</g>
<!-- Node2&#45;&gt;Node1 -->
<g id="edge1" class="edge">
<title>Node2&#45;&gt;Node1</title>
<path fill="none" stroke="midnightblue" d="M224,-57.23C224,-48.59 224,-38.5 224,-30.52"/>
<polygon fill="midnightblue" stroke="midnightblue" points="220.5,-57.48 224,-67.48 227.5,-57.48 220.5,-57.48"/>
</g>
<!-- Node3 -->
<g id="node3" class="node">
<title>Node3</title>
<g id="a_node3"><a xlink:href="classOp__Diff__VEF__Face.html" target="_top" xlink:title="class Op_Diff_VEF_Face Cette classe represente l&#39;operateur de diffusion La discretisation est VEF Le ...">
<polygon fill="white" stroke="black" points="172,-123.5 172,-142.5 276,-142.5 276,-123.5 172,-123.5"/>
<text text-anchor="middle" x="224" y="-130.5" font-family="Helvetica,sans-Serif" font-size="10.00">Op_Diff_VEF_Face</text>
</a>
</g>
</g>
<!-- Node3&#45;&gt;Node2 -->
<g id="edge2" class="edge">
<title>Node3&#45;&gt;Node2</title>
<path fill="none" stroke="midnightblue" d="M224,-112.8C224,-103.91 224,-93.78 224,-86.75"/>
<polygon fill="midnightblue" stroke="midnightblue" points="220.5,-113.08 224,-123.08 227.5,-113.08 220.5,-113.08"/>
</g>
<!-- Node4 -->
<g id="node4" class="node">
<title>Node4</title>
<g id="a_node4"><a xlink:href="classOp__Diff__VEF__base.html" target="_top" xlink:title="class Op_Diff_VEF_base Classe de base des operateurs de convection VEF">
<polygon fill="white" stroke="black" points="171.5,-179.5 171.5,-198.5 276.5,-198.5 276.5,-179.5 171.5,-179.5"/>
<text text-anchor="middle" x="224" y="-186.5" font-family="Helvetica,sans-Serif" font-size="10.00">Op_Diff_VEF_base</text>
</a>
</g>
</g>
<!-- Node4&#45;&gt;Node3 -->
<g id="edge3" class="edge">
<title>Node4&#45;&gt;Node3</title>
<path fill="none" stroke="midnightblue" d="M224,-168.8C224,-159.91 224,-149.78 224,-142.75"/>
<polygon fill="midnightblue" stroke="midnightblue" points="220.5,-169.08 224,-179.08 227.5,-169.08 220.5,-169.08"/>
</g>
<!-- Node5 -->
<g id="node5" class="node">
<title>Node5</title>
<g id="a_node5"><a xlink:href="classOperateur__Diff__base.html" target="_top" xlink:title="classe Operateur_Diff_base Cette classe est la base de la hierarchie des operateurs representant un t...">
<polygon fill="white" stroke="black" points="108,-235.5 108,-254.5 224,-254.5 224,-235.5 108,-235.5"/>
<text text-anchor="middle" x="166" y="-242.5" font-family="Helvetica,sans-Serif" font-size="10.00">Operateur_Diff_base</text>
</a>
</g>
</g>
<!-- Node5&#45;&gt;Node4 -->
<g id="edge4" class="edge">
<title>Node5&#45;&gt;Node4</title>
<path fill="none" stroke="midnightblue" d="M182.91,-228.25C193.2,-218.67 205.97,-206.79 214.51,-198.83"/>
<polygon fill="midnightblue" stroke="midnightblue" points="180.25,-225.95 175.32,-235.32 185.02,-231.07 180.25,-225.95"/>
</g>
<!-- Node6 -->
<g id="node6" class="node">
<title>Node6</title>
<g id="a_node6"><a xlink:href="classOperateur__base.html" target="_top" xlink:title="classe Operateur_base Classe est la base de la hierarchie des objets representant un operateur utilis...">
<polygon fill="white" stroke="black" points="54,-297 54,-316 148,-316 148,-297 54,-297"/>
<text text-anchor="middle" x="101" y="-304" font-family="Helvetica,sans-Serif" font-size="10.00">Operateur_base</text>
</a>
</g>
</g>
<!-- Node6&#45;&gt;Node5 -->
<g id="edge5" class="edge">
<title>Node6&#45;&gt;Node5</title>
<path fill="none" stroke="midnightblue" d="M117.77,-290.15C130.16,-278.81 146.58,-263.78 156.7,-254.51"/>
<polygon fill="midnightblue" stroke="midnightblue" points="115.33,-287.64 110.31,-296.98 120.05,-292.8 115.33,-287.64"/>
</g>
<!-- Node7 -->
<g id="node7" class="node">
<title>Node7</title>
<g id="a_node7"><a xlink:href="classObjet__U.html" target="_top" xlink:title="classe Objet_U Cette classe est la classe de base des Objets de TRUST Dans les classes derivees de Ob...">
<polygon fill="white" stroke="black" points="0,-358.5 0,-377.5 56,-377.5 56,-358.5 0,-358.5"/>
<text text-anchor="middle" x="28" y="-365.5" font-family="Helvetica,sans-Serif" font-size="10.00">Objet_U</text>
</a>
</g>
</g>
<!-- Node7&#45;&gt;Node6 -->
<g id="edge6" class="edge">
<title>Node7&#45;&gt;Node6</title>
<path fill="none" stroke="midnightblue" d="M46.44,-351.97C60.4,-340.59 79.08,-325.37 90.56,-316.01"/>
<polygon fill="midnightblue" stroke="midnightblue" points="44,-349.44 38.46,-358.48 48.42,-354.87 44,-349.44"/>
</g>
<!-- Node8 -->
<g id="node8" class="node">
<title>Node8</title>
<g id="a_node8"><a xlink:href="classProcess.html" target="_top" xlink:title="Classe de base de TRUST (notamment Objet_U). Elle fournit quelques services de base accessibles de pa...">
<polygon fill="white" stroke="black" points="1,-414.5 1,-433.5 55,-433.5 55,-414.5 1,-414.5"/>
<text text-anchor="middle" x="28" y="-421.5" font-family="Helvetica,sans-Serif" font-size="10.00">Process</text>
</a>
</g>
</g>
<!-- Node8&#45;&gt;Node7 -->
<g id="edge7" class="edge">
<title>Node8&#45;&gt;Node7</title>
<path fill="none" stroke="midnightblue" d="M28,-403.8C28,-394.91 28,-384.78 28,-377.75"/>
<polygon fill="midnightblue" stroke="midnightblue" points="24.5,-404.08 28,-414.08 31.5,-404.08 24.5,-404.08"/>
</g>
<!-- Node9 -->
<g id="node9" class="node">
<title>Node9</title>
<g id="a_node9"><a xlink:href="classMorEqn.html" target="_top" xlink:title="classe MorEqn Classe qui regroupe les fonctionnalites de liaison avec une Equation....">
<polygon fill="white" stroke="black" points="74.5,-358.5 74.5,-377.5 127.5,-377.5 127.5,-358.5 74.5,-358.5"/>
<text text-anchor="middle" x="101" y="-365.5" font-family="Helvetica,sans-Serif" font-size="10.00">MorEqn</text>
</a>
</g>
</g>
<!-- Node9&#45;&gt;Node6 -->
<g id="edge8" class="edge">
<title>Node9&#45;&gt;Node6</title>
<path fill="none" stroke="midnightblue" d="M101,-348.32C101,-337.5 101,-324.4 101,-316.01"/>
<polygon fill="midnightblue" stroke="midnightblue" points="97.5,-348.48 101,-358.48 104.5,-348.48 97.5,-348.48"/>
</g>
<!-- Node10 -->
<g id="node10" class="node">
<title>Node10</title>
<g id="a_node10"><a xlink:href="classChamps__compris__interface.html" target="_top" xlink:title="classe Champs_compris_interface Cette classe contient une interface de methodes destinees a gerer les...">
<polygon fill="white" stroke="black" points="145.5,-358.5 145.5,-377.5 294.5,-377.5 294.5,-358.5 145.5,-358.5"/>
<text text-anchor="middle" x="220" y="-365.5" font-family="Helvetica,sans-Serif" font-size="10.00">Champs_compris_interface</text>
</a>
</g>
</g>
<!-- Node10&#45;&gt;Node6 -->
<g id="edge9" class="edge">
<title>Node10&#45;&gt;Node6</title>
<path fill="none" stroke="midnightblue" d="M193.73,-353.87C170.67,-342.33 137.8,-325.9 118.02,-316.01"/>
<polygon fill="midnightblue" stroke="midnightblue" points="192.44,-357.13 202.95,-358.48 195.57,-350.87 192.44,-357.13"/>
</g>
<!-- Node11 -->
<g id="node11" class="node">
<title>Node11</title>
<g id="a_node11"><a xlink:href="classSupport__Champ__Masse__Volumique.html" target="_top" xlink:title=" ">
<polygon fill="white" stroke="black" points="166.5,-291.5 166.5,-321.5 297.5,-321.5 297.5,-291.5 166.5,-291.5"/>
<text text-anchor="start" x="174.5" y="-309.5" font-family="Helvetica,sans-Serif" font-size="10.00">Support_Champ_Masse</text>
<text text-anchor="middle" x="232" y="-298.5" font-family="Helvetica,sans-Serif" font-size="10.00">_Volumique</text>
</a>
</g>
</g>
<!-- Node11&#45;&gt;Node5 -->
<g id="edge10" class="edge">
<title>Node11&#45;&gt;Node5</title>
<path fill="none" stroke="midnightblue" d="M208.81,-284.6C197.41,-274.32 184.28,-262.48 175.6,-254.66"/>
<polygon fill="midnightblue" stroke="midnightblue" points="206.59,-287.3 216.36,-291.4 211.28,-282.1 206.59,-287.3"/>
</g>
<!-- Node12 -->
<g id="node12" class="node">
<title>Node12</title>
<g id="a_node12"><a xlink:href="classOp__VEF__Face.html" target="_top" xlink:title=" ">
<polygon fill="white" stroke="black" points="242.5,-235.5 242.5,-254.5 323.5,-254.5 323.5,-235.5 242.5,-235.5"/>
<text text-anchor="middle" x="283" y="-242.5" font-family="Helvetica,sans-Serif" font-size="10.00">Op_VEF_Face</text>
</a>
</g>
</g>
<!-- Node12&#45;&gt;Node4 -->
<g id="edge11" class="edge">
<title>Node12&#45;&gt;Node4</title>
<path fill="none" stroke="midnightblue" d="M266.11,-228.54C255.59,-218.91 242.43,-206.87 233.65,-198.83"/>
<polygon fill="midnightblue" stroke="midnightblue" points="263.78,-231.15 273.52,-235.32 268.51,-225.99 263.78,-231.15"/>
</g>
</g>
</svg>
