<?xml version="1.0" encoding="UTF-8" standalone="no"?>
<!DOCTYPE svg PUBLIC "-//W3C//DTD SVG 1.1//EN"
 "http://www.w3.org/Graphics/SVG/1.1/DTD/svg11.dtd">
<!-- Generated by graphviz version 2.43.0 (0)
 -->
<!-- Title: Traitement_particulier_NS_base Pages: 1 -->
<svg width="926pt" height="504pt"
 viewBox="0.00 0.00 926.00 504.00" xmlns="http://www.w3.org/2000/svg" xmlns:xlink="http://www.w3.org/1999/xlink">
<g id="graph0" class="graph" transform="scale(1 1) rotate(0) translate(4 500)">
<title>Traitement_particulier_NS_base</title>
<polygon fill="white" stroke="transparent" points="-4,4 -4,-500 922,-500 922,4 -4,4"/>
<!-- Node1 -->
<g id="node1" class="node">
<title>Node1</title>
<g id="a_node1"><a xlink:title="classe Traitement_particulier_NS_base Derive de Support_Champ_Masse_Volumique: utilisation de rho pou...">
<polygon fill="#bfbfbf" stroke="black" points="275,-196.5 275,-226.5 399,-226.5 399,-196.5 275,-196.5"/>
<text text-anchor="start" x="283" y="-214.5" font-family="Helvetica,sans-Serif" font-size="10.00">Traitement_particulier</text>
<text text-anchor="middle" x="337" y="-203.5" font-family="Helvetica,sans-Serif" font-size="10.00">_NS_base</text>
</a>
</g>
</g>
<!-- Node6 -->
<g id="node6" class="node">
<title>Node6</title>
<g id="a_node6"><a xlink:href="classTraitement__particulier__NS__EC.html" target="_top" xlink:title="classe Traitement_particulier_EC Cette classe permet de faire les traitements particuliers pour les c...">
<polygon fill="white" stroke="black" points="435.5,-416.5 435.5,-446.5 559.5,-446.5 559.5,-416.5 435.5,-416.5"/>
<text text-anchor="start" x="443.5" y="-434.5" font-family="Helvetica,sans-Serif" font-size="10.00">Traitement_particulier</text>
<text text-anchor="middle" x="497.5" y="-423.5" font-family="Helvetica,sans-Serif" font-size="10.00">_NS_EC</text>
</a>
</g>
</g>
<!-- Node1&#45;&gt;Node6 -->
<g id="edge5" class="edge">
<title>Node1&#45;&gt;Node6</title>
<path fill="none" stroke="midnightblue" d="M348.1,-236.02C363.39,-271.21 394.9,-336.92 435,-383.5 445.87,-396.13 460.49,-407.7 472.75,-416.32"/>
<polygon fill="midnightblue" stroke="midnightblue" points="351.2,-234.37 344.06,-226.54 344.76,-237.11 351.2,-234.37"/>
</g>
<!-- Node9 -->
<g id="node9" class="node">
<title>Node9</title>
<g id="a_node9"><a xlink:href="classTraitement__particulier__NS__Pression.html" target="_top" xlink:title=" ">
<polygon fill="white" stroke="black" points="435.5,-343.5 435.5,-373.5 559.5,-373.5 559.5,-343.5 435.5,-343.5"/>
<text text-anchor="start" x="443.5" y="-361.5" font-family="Helvetica,sans-Serif" font-size="10.00">Traitement_particulier</text>
<text text-anchor="middle" x="497.5" y="-350.5" font-family="Helvetica,sans-Serif" font-size="10.00">_NS_Pression</text>
</a>
</g>
</g>
<!-- Node1&#45;&gt;Node9 -->
<g id="edge8" class="edge">
<title>Node1&#45;&gt;Node9</title>
<path fill="none" stroke="midnightblue" d="M351.7,-235.82C368.25,-263.21 398.44,-307.42 435,-334.5 439.51,-337.84 444.55,-340.79 449.75,-343.36"/>
<polygon fill="midnightblue" stroke="midnightblue" points="354.53,-233.73 346.44,-226.89 348.5,-237.28 354.53,-233.73"/>
</g>
<!-- Node12 -->
<g id="node12" class="node">
<title>Node12</title>
<g id="a_node12"><a xlink:href="classTraitement__particulier__NS__Profils.html" target="_top" xlink:title=" ">
<polygon fill="white" stroke="black" points="435.5,-294.5 435.5,-324.5 559.5,-324.5 559.5,-294.5 435.5,-294.5"/>
<text text-anchor="start" x="443.5" y="-312.5" font-family="Helvetica,sans-Serif" font-size="10.00">Traitement_particulier</text>
<text text-anchor="middle" x="497.5" y="-301.5" font-family="Helvetica,sans-Serif" font-size="10.00">_NS_Profils</text>
</a>
</g>
</g>
<!-- Node1&#45;&gt;Node12 -->
<g id="edge11" class="edge">
<title>Node1&#45;&gt;Node12</title>
<path fill="none" stroke="midnightblue" d="M362.63,-233.4C381.47,-249.35 408.62,-270.68 435,-285.5 440.8,-288.76 447.12,-291.77 453.44,-294.48"/>
<polygon fill="midnightblue" stroke="midnightblue" points="364.71,-230.57 354.84,-226.71 360.15,-235.88 364.71,-230.57"/>
</g>
<!-- Node15 -->
<g id="node15" class="node">
<title>Node15</title>
<g id="a_node15"><a xlink:href="classTraitement__particulier__NS__THI.html" target="_top" xlink:title="classe Traitement_particulier_THI Cette classe permet de faire les traitements particuliers pour les ...">
<polygon fill="white" stroke="black" points="435.5,-245.5 435.5,-275.5 559.5,-275.5 559.5,-245.5 435.5,-245.5"/>
<text text-anchor="start" x="443.5" y="-263.5" font-family="Helvetica,sans-Serif" font-size="10.00">Traitement_particulier</text>
<text text-anchor="middle" x="497.5" y="-252.5" font-family="Helvetica,sans-Serif" font-size="10.00">_NS_THI</text>
</a>
</g>
</g>
<!-- Node1&#45;&gt;Node15 -->
<g id="edge14" class="edge">
<title>Node1&#45;&gt;Node15</title>
<path fill="none" stroke="midnightblue" d="M396.59,-229.61C413.44,-234.82 431.63,-240.45 447.81,-245.45"/>
<polygon fill="midnightblue" stroke="midnightblue" points="397.44,-226.21 386.85,-226.6 395.37,-232.9 397.44,-226.21"/>
</g>
<!-- Node16 -->
<g id="node16" class="node">
<title>Node16</title>
<g id="a_node16"><a xlink:href="classTraitement__particulier__NS__THI__new.html" target="_top" xlink:title="classe Traitement_particulier_THI_new Cette classe permet de faire les traitements particuliers pour ...">
<polygon fill="white" stroke="black" points="435.5,-196.5 435.5,-226.5 559.5,-226.5 559.5,-196.5 435.5,-196.5"/>
<text text-anchor="start" x="443.5" y="-214.5" font-family="Helvetica,sans-Serif" font-size="10.00">Traitement_particulier</text>
<text text-anchor="middle" x="497.5" y="-203.5" font-family="Helvetica,sans-Serif" font-size="10.00">_NS_THI_new</text>
</a>
</g>
</g>
<!-- Node1&#45;&gt;Node16 -->
<g id="edge15" class="edge">
<title>Node1&#45;&gt;Node16</title>
<path fill="none" stroke="midnightblue" d="M409.39,-211.5C418.06,-211.5 426.87,-211.5 435.38,-211.5"/>
<polygon fill="midnightblue" stroke="midnightblue" points="409.28,-208 399.28,-211.5 409.28,-215 409.28,-208"/>
</g>
<!-- Node17 -->
<g id="node17" class="node">
<title>Node17</title>
<g id="a_node17"><a xlink:href="classTraitement__particulier__NS__VEF.html" target="_top" xlink:title="classe Traitement_particulier_VEF Cette classe permet de ne faire aucyun traitement particulier (comm...">
<polygon fill="white" stroke="black" points="435.5,-147.5 435.5,-177.5 559.5,-177.5 559.5,-147.5 435.5,-147.5"/>
<text text-anchor="start" x="443.5" y="-165.5" font-family="Helvetica,sans-Serif" font-size="10.00">Traitement_particulier</text>
<text text-anchor="middle" x="497.5" y="-154.5" font-family="Helvetica,sans-Serif" font-size="10.00">_NS_VEF</text>
</a>
</g>
</g>
<!-- Node1&#45;&gt;Node17 -->
<g id="edge16" class="edge">
<title>Node1&#45;&gt;Node17</title>
<path fill="none" stroke="midnightblue" d="M396.59,-193.39C413.44,-188.18 431.63,-182.55 447.81,-177.55"/>
<polygon fill="midnightblue" stroke="midnightblue" points="395.37,-190.1 386.85,-196.4 397.44,-196.79 395.37,-190.1"/>
</g>
<!-- Node19 -->
<g id="node19" class="node">
<title>Node19</title>
<g id="a_node19"><a xlink:href="classTraitement__particulier__NS__canal.html" target="_top" xlink:title="classe Traitement_particulier_NS_canal Cette classe permet de faire les traitements particuliers pour...">
<polygon fill="white" stroke="black" points="435.5,-98.5 435.5,-128.5 559.5,-128.5 559.5,-98.5 435.5,-98.5"/>
<text text-anchor="start" x="443.5" y="-116.5" font-family="Helvetica,sans-Serif" font-size="10.00">Traitement_particulier</text>
<text text-anchor="middle" x="497.5" y="-105.5" font-family="Helvetica,sans-Serif" font-size="10.00">_NS_canal</text>
</a>
</g>
</g>
<!-- Node1&#45;&gt;Node19 -->
<g id="edge18" class="edge">
<title>Node1&#45;&gt;Node19</title>
<path fill="none" stroke="midnightblue" d="M362.63,-189.6C381.47,-173.65 408.62,-152.32 435,-137.5 440.8,-134.24 447.12,-131.23 453.44,-128.52"/>
<polygon fill="midnightblue" stroke="midnightblue" points="360.15,-187.12 354.84,-196.29 364.71,-192.43 360.15,-187.12"/>
</g>
<!-- Node22 -->
<g id="node22" class="node">
<title>Node22</title>
<g id="a_node22"><a xlink:href="classTraitement__particulier__NS__chmoy__faceperio.html" target="_top" xlink:title="classe Traitement_particulier_chmoy_faceperio Cette classe permet de faire les traitements particulie...">
<polygon fill="white" stroke="black" points="435,-49.5 435,-79.5 560,-79.5 560,-49.5 435,-49.5"/>
<text text-anchor="start" x="443" y="-67.5" font-family="Helvetica,sans-Serif" font-size="10.00">Traitement_particulier</text>
<text text-anchor="middle" x="497.5" y="-56.5" font-family="Helvetica,sans-Serif" font-size="10.00">_NS_chmoy_faceperio</text>
</a>
</g>
</g>
<!-- Node1&#45;&gt;Node22 -->
<g id="edge21" class="edge">
<title>Node1&#45;&gt;Node22</title>
<path fill="none" stroke="midnightblue" d="M351.7,-187.18C368.25,-159.79 398.44,-115.58 435,-88.5 439.51,-85.16 444.55,-82.21 449.75,-79.64"/>
<polygon fill="midnightblue" stroke="midnightblue" points="348.5,-185.72 346.44,-196.11 354.53,-189.27 348.5,-185.72"/>
</g>
<!-- Node24 -->
<g id="node24" class="node">
<title>Node24</title>
<g id="a_node24"><a xlink:href="classTraitement__particulier__NS__temperature.html" target="_top" xlink:title="classe Traitement_particulier_temperature Cette classe permet de faire les traitements particuliers p...">
<polygon fill="white" stroke="black" points="435.5,-0.5 435.5,-30.5 559.5,-30.5 559.5,-0.5 435.5,-0.5"/>
<text text-anchor="start" x="443.5" y="-18.5" font-family="Helvetica,sans-Serif" font-size="10.00">Traitement_particulier</text>
<text text-anchor="middle" x="497.5" y="-7.5" font-family="Helvetica,sans-Serif" font-size="10.00">_NS_temperature</text>
</a>
</g>
</g>
<!-- Node1&#45;&gt;Node24 -->
<g id="edge23" class="edge">
<title>Node1&#45;&gt;Node24</title>
<path fill="none" stroke="midnightblue" d="M345.84,-186.88C358.76,-150 387.9,-80.37 435,-39.5 438.9,-36.12 443.32,-33.19 447.97,-30.65"/>
<polygon fill="midnightblue" stroke="midnightblue" points="342.52,-185.77 342.62,-196.37 349.15,-188.02 342.52,-185.77"/>
</g>
<!-- Node2 -->
<g id="node2" class="node">
<title>Node2</title>
<g id="a_node2"><a xlink:href="classObjet__U.html" target="_top" xlink:title="classe Objet_U Cette classe est la classe de base des Objets de TRUST Dans les classes derivees de Ob...">
<polygon fill="white" stroke="black" points="136.5,-246 136.5,-265 192.5,-265 192.5,-246 136.5,-246"/>
<text text-anchor="middle" x="164.5" y="-253" font-family="Helvetica,sans-Serif" font-size="10.00">Objet_U</text>
</a>
</g>
</g>
<!-- Node2&#45;&gt;Node1 -->
<g id="edge1" class="edge">
<title>Node2&#45;&gt;Node1</title>
<path fill="none" stroke="midnightblue" d="M202.43,-245.97C224.4,-240.3 252.76,-232.98 277.69,-226.55"/>
<polygon fill="midnightblue" stroke="midnightblue" points="201.32,-242.64 192.52,-248.53 203.07,-249.42 201.32,-242.64"/>
</g>
<!-- Node3 -->
<g id="node3" class="node">
<title>Node3</title>
<g id="a_node3"><a xlink:href="classProcess.html" target="_top" xlink:title="Classe de base de TRUST (notamment Objet_U). Elle fournit quelques services de base accessibles de pa...">
<polygon fill="white" stroke="black" points="0,-246 0,-265 54,-265 54,-246 0,-246"/>
<text text-anchor="middle" x="27" y="-253" font-family="Helvetica,sans-Serif" font-size="10.00">Process</text>
</a>
</g>
</g>
<!-- Node3&#45;&gt;Node2 -->
<g id="edge2" class="edge">
<title>Node3&#45;&gt;Node2</title>
<path fill="none" stroke="midnightblue" d="M64.34,-255.5C86.89,-255.5 115.4,-255.5 136.06,-255.5"/>
<polygon fill="midnightblue" stroke="midnightblue" points="64.13,-252 54.13,-255.5 64.13,-259 64.13,-252"/>
</g>
<!-- Node4 -->
<g id="node4" class="node">
<title>Node4</title>
<g id="a_node4"><a xlink:href="classSupport__Champ__Masse__Volumique.html" target="_top" xlink:title=" ">
<polygon fill="white" stroke="black" points="99,-196.5 99,-226.5 230,-226.5 230,-196.5 99,-196.5"/>
<text text-anchor="start" x="107" y="-214.5" font-family="Helvetica,sans-Serif" font-size="10.00">Support_Champ_Masse</text>
<text text-anchor="middle" x="164.5" y="-203.5" font-family="Helvetica,sans-Serif" font-size="10.00">_Volumique</text>
</a>
</g>
</g>
<!-- Node4&#45;&gt;Node1 -->
<g id="edge3" class="edge">
<title>Node4&#45;&gt;Node1</title>
<path fill="none" stroke="midnightblue" d="M240.47,-211.5C251.97,-211.5 263.73,-211.5 274.88,-211.5"/>
<polygon fill="midnightblue" stroke="midnightblue" points="240.45,-208 230.45,-211.5 240.45,-215 240.45,-208"/>
</g>
<!-- Node5 -->
<g id="node5" class="node">
<title>Node5</title>
<g id="a_node5"><a xlink:href="classChamps__compris__interface.html" target="_top" xlink:title="classe Champs_compris_interface Cette classe contient une interface de methodes destinees a gerer les...">
<polygon fill="white" stroke="black" points="90,-158 90,-177 239,-177 239,-158 90,-158"/>
<text text-anchor="middle" x="164.5" y="-165" font-family="Helvetica,sans-Serif" font-size="10.00">Champs_compris_interface</text>
</a>
</g>
</g>
<!-- Node5&#45;&gt;Node1 -->
<g id="edge4" class="edge">
<title>Node5&#45;&gt;Node1</title>
<path fill="none" stroke="midnightblue" d="M212.38,-179.6C232.54,-184.8 256.33,-190.94 277.62,-196.43"/>
<polygon fill="midnightblue" stroke="midnightblue" points="213.05,-176.16 202.5,-177.05 211.3,-182.94 213.05,-176.16"/>
</g>
<!-- Node7 -->
<g id="node7" class="node">
<title>Node7</title>
<g id="a_node7"><a xlink:href="classTraitement__particulier__NS__EC__VDF.html" target="_top" xlink:title="classe Traitement_particulier_NS_EC_VDF Cette classe permet de faire les traitements particuliers pou...">
<polygon fill="white" stroke="black" points="608.5,-465.5 608.5,-495.5 732.5,-495.5 732.5,-465.5 608.5,-465.5"/>
<text text-anchor="start" x="616.5" y="-483.5" font-family="Helvetica,sans-Serif" font-size="10.00">Traitement_particulier</text>
<text text-anchor="middle" x="670.5" y="-472.5" font-family="Helvetica,sans-Serif" font-size="10.00">_NS_EC_VDF</text>
</a>
</g>
</g>
<!-- Node6&#45;&gt;Node7 -->
<g id="edge6" class="edge">
<title>Node6&#45;&gt;Node7</title>
<path fill="none" stroke="midnightblue" d="M560.95,-449.39C579.34,-454.66 599.27,-460.38 616.97,-465.45"/>
<polygon fill="midnightblue" stroke="midnightblue" points="561.78,-445.99 551.2,-446.6 559.85,-452.72 561.78,-445.99"/>
</g>
<!-- Node8 -->
<g id="node8" class="node">
<title>Node8</title>
<g id="a_node8"><a xlink:href="classTraitement__particulier__NS__EC__VEF.html" target="_top" xlink:title="classe Traitement_particulier_NS_EC_VEF Cette classe permet de faire les traitements particuliers pou...">
<polygon fill="white" stroke="black" points="608.5,-416.5 608.5,-446.5 732.5,-446.5 732.5,-416.5 608.5,-416.5"/>
<text text-anchor="start" x="616.5" y="-434.5" font-family="Helvetica,sans-Serif" font-size="10.00">Traitement_particulier</text>
<text text-anchor="middle" x="670.5" y="-423.5" font-family="Helvetica,sans-Serif" font-size="10.00">_NS_EC_VEF</text>
</a>
</g>
</g>
<!-- Node6&#45;&gt;Node8 -->
<g id="edge7" class="edge">
<title>Node6&#45;&gt;Node8</title>
<path fill="none" stroke="midnightblue" d="M569.9,-431.5C582.69,-431.5 595.92,-431.5 608.39,-431.5"/>
<polygon fill="midnightblue" stroke="midnightblue" points="569.75,-428 559.75,-431.5 569.75,-435 569.75,-428"/>
</g>
<!-- Node10 -->
<g id="node10" class="node">
<title>Node10</title>
<g id="a_node10"><a xlink:href="classTraitement__particulier__NS__Pression__VDF.html" target="_top" xlink:title="classe Traitement_particulier_NS_Pression_VDF Cette classe permet de faire les traitements particulie...">
<polygon fill="white" stroke="black" points="608.5,-367.5 608.5,-397.5 732.5,-397.5 732.5,-367.5 608.5,-367.5"/>
<text text-anchor="start" x="616.5" y="-385.5" font-family="Helvetica,sans-Serif" font-size="10.00">Traitement_particulier</text>
<text text-anchor="middle" x="670.5" y="-374.5" font-family="Helvetica,sans-Serif" font-size="10.00">_NS_Pression_VDF</text>
</a>
</g>
</g>
<!-- Node9&#45;&gt;Node10 -->
<g id="edge9" class="edge">
<title>Node9&#45;&gt;Node10</title>
<path fill="none" stroke="midnightblue" d="M569.9,-368.52C582.69,-370.32 595.92,-372.17 608.39,-373.92"/>
<polygon fill="midnightblue" stroke="midnightblue" points="570.14,-365.02 559.75,-367.1 569.17,-371.95 570.14,-365.02"/>
</g>
<!-- Node11 -->
<g id="node11" class="node">
<title>Node11</title>
<g id="a_node11"><a xlink:href="classTraitement__particulier__NS__Pression__VEF.html" target="_top" xlink:title="classe Traitement_particulier_NS_Pression_VEF Cette classe permet de faire les traitements particulie...">
<polygon fill="white" stroke="black" points="608.5,-318.5 608.5,-348.5 732.5,-348.5 732.5,-318.5 608.5,-318.5"/>
<text text-anchor="start" x="616.5" y="-336.5" font-family="Helvetica,sans-Serif" font-size="10.00">Traitement_particulier</text>
<text text-anchor="middle" x="670.5" y="-325.5" font-family="Helvetica,sans-Serif" font-size="10.00">_NS_Pression_VEF</text>
</a>
</g>
</g>
<!-- Node9&#45;&gt;Node11 -->
<g id="edge10" class="edge">
<title>Node9&#45;&gt;Node11</title>
<path fill="none" stroke="midnightblue" d="M569.9,-348.06C582.69,-346.19 595.92,-344.26 608.39,-342.43"/>
<polygon fill="midnightblue" stroke="midnightblue" points="569.14,-344.64 559.75,-349.55 570.15,-351.56 569.14,-344.64"/>
</g>
<!-- Node13 -->
<g id="node13" class="node">
<title>Node13</title>
<g id="a_node13"><a xlink:href="classTraitement__particulier__NS__Profils__VDF.html" target="_top" xlink:title="class Trait_part_NS_Profils_VDF This classe enables a particular treatment for computations which hav...">
<polygon fill="white" stroke="black" points="608.5,-269.5 608.5,-299.5 732.5,-299.5 732.5,-269.5 608.5,-269.5"/>
<text text-anchor="start" x="616.5" y="-287.5" font-family="Helvetica,sans-Serif" font-size="10.00">Traitement_particulier</text>
<text text-anchor="middle" x="670.5" y="-276.5" font-family="Helvetica,sans-Serif" font-size="10.00">_NS_Profils_VDF</text>
</a>
</g>
</g>
<!-- Node12&#45;&gt;Node13 -->
<g id="edge12" class="edge">
<title>Node12&#45;&gt;Node13</title>
<path fill="none" stroke="midnightblue" d="M569.9,-299.06C582.69,-297.19 595.92,-295.26 608.39,-293.43"/>
<polygon fill="midnightblue" stroke="midnightblue" points="569.14,-295.64 559.75,-300.55 570.15,-302.56 569.14,-295.64"/>
</g>
<!-- Node14 -->
<g id="node14" class="node">
<title>Node14</title>
<g id="a_node14"><a xlink:href="classTraitement__particulier__NS__Profils__thermo__VDF.html" target="_top" xlink:title="classe Traitement_particulier_NS_Profils_thermo_VDF">
<polygon fill="white" stroke="black" points="781,-269.5 781,-299.5 918,-299.5 918,-269.5 781,-269.5"/>
<text text-anchor="start" x="789" y="-287.5" font-family="Helvetica,sans-Serif" font-size="10.00">Traitement_particulier</text>
<text text-anchor="middle" x="849.5" y="-276.5" font-family="Helvetica,sans-Serif" font-size="10.00">_NS_Profils_thermo_VDF</text>
</a>
</g>
</g>
<!-- Node13&#45;&gt;Node14 -->
<g id="edge13" class="edge">
<title>Node13&#45;&gt;Node14</title>
<path fill="none" stroke="midnightblue" d="M743.22,-284.5C755.65,-284.5 768.53,-284.5 780.85,-284.5"/>
<polygon fill="midnightblue" stroke="midnightblue" points="742.91,-281 732.91,-284.5 742.91,-288 742.91,-281"/>
</g>
<!-- Node18 -->
<g id="node18" class="node">
<title>Node18</title>
<g id="a_node18"><a xlink:href="classTraitement__particulier__NS__Brech__VEF.html" target="_top" xlink:title="classe Traitement_particulier_Brech_VEF Cette classe permet de faire les traitements particuliers pou...">
<polygon fill="white" stroke="black" points="608.5,-196.5 608.5,-226.5 732.5,-226.5 732.5,-196.5 608.5,-196.5"/>
<text text-anchor="start" x="616.5" y="-214.5" font-family="Helvetica,sans-Serif" font-size="10.00">Traitement_particulier</text>
<text text-anchor="middle" x="670.5" y="-203.5" font-family="Helvetica,sans-Serif" font-size="10.00">_NS_Brech_VEF</text>
</a>
</g>
</g>
<!-- Node17&#45;&gt;Node18 -->
<g id="edge17" class="edge">
<title>Node17&#45;&gt;Node18</title>
<path fill="none" stroke="midnightblue" d="M560.95,-180.39C579.34,-185.66 599.27,-191.38 616.97,-196.45"/>
<polygon fill="midnightblue" stroke="midnightblue" points="561.78,-176.99 551.2,-177.6 559.85,-183.72 561.78,-176.99"/>
</g>
<!-- Node20 -->
<g id="node20" class="node">
<title>Node20</title>
<g id="a_node20"><a xlink:href="classTraitement__particulier__NS__canal__VDF.html" target="_top" xlink:title="classe Traitement_particulier_NS_canal_VDF Cette classe permet de faire les traitements particuliers ...">
<polygon fill="white" stroke="black" points="608.5,-147.5 608.5,-177.5 732.5,-177.5 732.5,-147.5 608.5,-147.5"/>
<text text-anchor="start" x="616.5" y="-165.5" font-family="Helvetica,sans-Serif" font-size="10.00">Traitement_particulier</text>
<text text-anchor="middle" x="670.5" y="-154.5" font-family="Helvetica,sans-Serif" font-size="10.00">_NS_canal_VDF</text>
</a>
</g>
</g>
<!-- Node19&#45;&gt;Node20 -->
<g id="edge19" class="edge">
<title>Node19&#45;&gt;Node20</title>
<path fill="none" stroke="midnightblue" d="M560.95,-131.39C579.34,-136.66 599.27,-142.38 616.97,-147.45"/>
<polygon fill="midnightblue" stroke="midnightblue" points="561.78,-127.99 551.2,-128.6 559.85,-134.72 561.78,-127.99"/>
</g>
<!-- Node21 -->
<g id="node21" class="node">
<title>Node21</title>
<g id="a_node21"><a xlink:href="classTraitement__particulier__NS__canal__VEF.html" target="_top" xlink:title="classe Traitement_particulier_NS_canal_VEF Cette classe permet de faire les traitements particuliers ...">
<polygon fill="white" stroke="black" points="608.5,-98.5 608.5,-128.5 732.5,-128.5 732.5,-98.5 608.5,-98.5"/>
<text text-anchor="start" x="616.5" y="-116.5" font-family="Helvetica,sans-Serif" font-size="10.00">Traitement_particulier</text>
<text text-anchor="middle" x="670.5" y="-105.5" font-family="Helvetica,sans-Serif" font-size="10.00">_NS_canal_VEF</text>
</a>
</g>
</g>
<!-- Node19&#45;&gt;Node21 -->
<g id="edge20" class="edge">
<title>Node19&#45;&gt;Node21</title>
<path fill="none" stroke="midnightblue" d="M569.9,-113.5C582.69,-113.5 595.92,-113.5 608.39,-113.5"/>
<polygon fill="midnightblue" stroke="midnightblue" points="569.75,-110 559.75,-113.5 569.75,-117 569.75,-110"/>
</g>
<!-- Node23 -->
<g id="node23" class="node">
<title>Node23</title>
<g id="a_node23"><a xlink:href="classTraitement__particulier__NS__chmoy__faceperio__VEF.html" target="_top" xlink:title="classe Traitement_particulier_NS_chmoy_faceperio_VEF Cette classe permet de faire les traitements par...">
<polygon fill="white" stroke="black" points="596,-49.5 596,-79.5 745,-79.5 745,-49.5 596,-49.5"/>
<text text-anchor="start" x="604" y="-67.5" font-family="Helvetica,sans-Serif" font-size="10.00">Traitement_particulier</text>
<text text-anchor="middle" x="670.5" y="-56.5" font-family="Helvetica,sans-Serif" font-size="10.00">_NS_chmoy_faceperio_VEF</text>
</a>
</g>
</g>
<!-- Node22&#45;&gt;Node23 -->
<g id="edge22" class="edge">
<title>Node22&#45;&gt;Node23</title>
<path fill="none" stroke="midnightblue" d="M570.41,-64.5C578.84,-64.5 587.46,-64.5 595.91,-64.5"/>
<polygon fill="midnightblue" stroke="midnightblue" points="570.23,-61 560.23,-64.5 570.23,-68 570.23,-61"/>
</g>
<!-- Node25 -->
<g id="node25" class="node">
<title>Node25</title>
<g id="a_node25"><a xlink:href="classTraitement__particulier__NS__temperature__VEF.html" target="_top" xlink:title="classe Traitement_particulier_NS_temperature_VEF Cette classe permet de faire les traitements particu...">
<polygon fill="white" stroke="black" points="608,-0.5 608,-30.5 733,-30.5 733,-0.5 608,-0.5"/>
<text text-anchor="start" x="616" y="-18.5" font-family="Helvetica,sans-Serif" font-size="10.00">Traitement_particulier</text>
<text text-anchor="middle" x="670.5" y="-7.5" font-family="Helvetica,sans-Serif" font-size="10.00">_NS_temperature_VEF</text>
</a>
</g>
</g>
<!-- Node24&#45;&gt;Node25 -->
<g id="edge24" class="edge">
<title>Node24&#45;&gt;Node25</title>
<path fill="none" stroke="midnightblue" d="M569.77,-15.5C582.41,-15.5 595.47,-15.5 607.81,-15.5"/>
<polygon fill="midnightblue" stroke="midnightblue" points="569.75,-12 559.75,-15.5 569.75,-19 569.75,-12"/>
</g>
</g>
</svg>
