<?xml version="1.0" encoding="UTF-8" standalone="no"?>
<!DOCTYPE svg PUBLIC "-//W3C//DTD SVG 1.1//EN"
 "http://www.w3.org/Graphics/SVG/1.1/DTD/svg11.dtd">
<!-- Generated by graphviz version 2.43.0 (0)
 -->
<!-- Title: Eval_Diff_VDF_const_Elem_Axi Pages: 1 -->
<svg width="326pt" height="264pt"
 viewBox="0.00 0.00 326.00 264.00" xmlns="http://www.w3.org/2000/svg" xmlns:xlink="http://www.w3.org/1999/xlink">
<g id="graph0" class="graph" transform="scale(1 1) rotate(0) translate(4 260)">
<title>Eval_Diff_VDF_const_Elem_Axi</title>
<polygon fill="white" stroke="transparent" points="-4,4 -4,-260 322,-260 322,4 -4,4"/>
<!-- Node1 -->
<g id="node1" class="node">
<title>Node1</title>
<g id="a_node1"><a xlink:title="!&lt;">
<polygon fill="#bfbfbf" stroke="black" points="115,-0.5 115,-30.5 232,-30.5 232,-0.5 115,-0.5"/>
<text text-anchor="start" x="123" y="-18.5" font-family="Helvetica,sans-Serif" font-size="10.00">Eval_Diff_VDF_const</text>
<text text-anchor="middle" x="173.5" y="-7.5" font-family="Helvetica,sans-Serif" font-size="10.00">_Elem_Axi</text>
</a>
</g>
</g>
<!-- Node2 -->
<g id="node2" class="node">
<title>Node2</title>
<g id="a_node2"><a xlink:href="classEval__Diff__VDF__Elem.html" target="_top" xlink:title=" ">
<polygon fill="white" stroke="black" points="39.5,-68.5 39.5,-109.5 167.5,-109.5 167.5,-68.5 39.5,-68.5"/>
<text text-anchor="start" x="47.5" y="-97.5" font-family="Helvetica,sans-Serif" font-size="10.00">Eval_Diff_VDF_Elem</text>
<text text-anchor="start" x="47.5" y="-86.5" font-family="Helvetica,sans-Serif" font-size="10.00">&lt; Eval_Diff_VDF_const</text>
<text text-anchor="middle" x="103.5" y="-75.5" font-family="Helvetica,sans-Serif" font-size="10.00">_Elem_Axi &gt;</text>
</a>
</g>
</g>
<!-- Node2&#45;&gt;Node1 -->
<g id="edge1" class="edge">
<title>Node2&#45;&gt;Node1</title>
<path fill="none" stroke="midnightblue" d="M129.75,-61.19C139.85,-50.87 150.99,-39.49 159.5,-30.8"/>
<polygon fill="midnightblue" stroke="midnightblue" points="127.12,-58.87 122.63,-68.46 132.12,-63.77 127.12,-58.87"/>
</g>
<!-- Node3 -->
<g id="node3" class="node">
<title>Node3</title>
<g id="a_node3"><a xlink:href="classEval__VDF__Elem.html" target="_top" xlink:title="class Eval_VDF_Elem Cette classe represente le prototype fonctionnel des evaluateurs de flux associes...">
<polygon fill="white" stroke="black" points="0,-236.5 0,-255.5 93,-255.5 93,-236.5 0,-236.5"/>
<text text-anchor="middle" x="46.5" y="-243.5" font-family="Helvetica,sans-Serif" font-size="10.00">Eval_VDF_Elem</text>
</a>
</g>
</g>
<!-- Node3&#45;&gt;Node2 -->
<g id="edge2" class="edge">
<title>Node3&#45;&gt;Node2</title>
<path fill="none" stroke="midnightblue" d="M45.56,-226.26C45.22,-210.5 45.79,-187.47 50.5,-168 55.08,-149.05 57.76,-144.27 68.5,-128 72.75,-121.56 78.09,-115.16 83.32,-109.5"/>
<polygon fill="midnightblue" stroke="midnightblue" points="42.06,-226.44 45.92,-236.31 49.06,-226.19 42.06,-226.44"/>
</g>
<!-- Node5 -->
<g id="node5" class="node">
<title>Node5</title>
<g id="a_node5"><a xlink:href="classEval__Diff__VDF__Elem.html" target="_top" xlink:title="class Eval_Diff_VDF_Elem Evaluateur VDF pour la diffusion : Le champ diffuse est un Champ_P0_VDF temp...">
<polygon fill="white" stroke="black" points="59.5,-168.5 59.5,-198.5 175.5,-198.5 175.5,-168.5 59.5,-168.5"/>
<text text-anchor="start" x="67.5" y="-186.5" font-family="Helvetica,sans-Serif" font-size="10.00">Eval_Diff_VDF_Elem</text>
<text text-anchor="middle" x="117.5" y="-175.5" font-family="Helvetica,sans-Serif" font-size="10.00">&lt; DERIVED_T &gt;</text>
</a>
</g>
</g>
<!-- Node3&#45;&gt;Node5 -->
<g id="edge5" class="edge">
<title>Node3&#45;&gt;Node5</title>
<path fill="none" stroke="midnightblue" d="M64.55,-229.62C75.78,-220.05 90.12,-207.83 101.04,-198.53"/>
<polygon fill="midnightblue" stroke="midnightblue" points="62.01,-227.18 56.67,-236.33 66.55,-232.51 62.01,-227.18"/>
</g>
<!-- Node4 -->
<g id="node4" class="node">
<title>Node4</title>
<g id="a_node4"><a xlink:href="classEvaluateur__VDF.html" target="_top" xlink:title="class Evaluateur_VDF Classe de base des evaluateurs VDF. Cette classe n&#39;appartient pas a la hierarchi...">
<polygon fill="white" stroke="black" points="141,-236.5 141,-255.5 236,-255.5 236,-236.5 141,-236.5"/>
<text text-anchor="middle" x="188.5" y="-243.5" font-family="Helvetica,sans-Serif" font-size="10.00">Evaluateur_VDF</text>
</a>
</g>
</g>
<!-- Node4&#45;&gt;Node2 -->
<g id="edge3" class="edge">
<title>Node4&#45;&gt;Node2</title>
<path fill="none" stroke="midnightblue" d="M194.44,-226.66C201.22,-202.04 209.02,-157.96 189.5,-128 184.07,-119.66 176.34,-113.13 167.72,-108.03"/>
<polygon fill="midnightblue" stroke="midnightblue" points="191.02,-225.89 191.5,-236.47 197.73,-227.9 191.02,-225.89"/>
</g>
<!-- Node4&#45;&gt;Node5 -->
<g id="edge6" class="edge">
<title>Node4&#45;&gt;Node5</title>
<path fill="none" stroke="midnightblue" d="M170.45,-229.62C159.22,-220.05 144.88,-207.83 133.96,-198.53"/>
<polygon fill="midnightblue" stroke="midnightblue" points="168.45,-232.51 178.33,-236.33 172.99,-227.18 168.45,-232.51"/>
</g>
<!-- Node5&#45;&gt;Node2 -->
<g id="edge4" class="edge">
<title>Node5&#45;&gt;Node2</title>
<path fill="none" stroke="orange" stroke-dasharray="5,2" d="M83.28,-161.83C79.76,-158.32 76.68,-154.38 74.5,-150 67.8,-136.53 75.38,-121.27 84.47,-109.51"/>
<polygon fill="orange" stroke="orange" points="81.11,-164.58 90.99,-168.41 85.66,-159.25 81.11,-164.58"/>
<text text-anchor="start" x="74.5" y="-142" font-family="Helvetica,sans-Serif" font-size="10.00"> &lt; Eval_Diff_VDF_const</text>
<text text-anchor="middle" x="132" y="-131" font-family="Helvetica,sans-Serif" font-size="10.00">_Elem_Axi &gt;</text>
</g>
<!-- Node6 -->
<g id="node6" class="node">
<title>Node6</title>
<g id="a_node6"><a xlink:href="classEval__Diff__VDF__const.html" target="_top" xlink:title="class Eval_Diff_VDF_const Cette classe represente un evaluateur de flux diffusif avec un coefficient ...">
<polygon fill="white" stroke="black" points="201,-79.5 201,-98.5 318,-98.5 318,-79.5 201,-79.5"/>
<text text-anchor="middle" x="259.5" y="-86.5" font-family="Helvetica,sans-Serif" font-size="10.00">Eval_Diff_VDF_const</text>
</a>
</g>
</g>
<!-- Node6&#45;&gt;Node1 -->
<g id="edge7" class="edge">
<title>Node6&#45;&gt;Node1</title>
<path fill="none" stroke="midnightblue" d="M240.88,-72.52C225.85,-60.03 204.89,-42.6 190.35,-30.51"/>
<polygon fill="midnightblue" stroke="midnightblue" points="239.03,-75.53 248.95,-79.23 243.5,-70.15 239.03,-75.53"/>
</g>
<!-- Node7 -->
<g id="node7" class="node">
<title>Node7</title>
<g id="a_node7"><a xlink:href="classEval__Diff__VDF.html" target="_top" xlink:title=" ">
<polygon fill="white" stroke="black" points="231.5,-174 231.5,-193 317.5,-193 317.5,-174 231.5,-174"/>
<text text-anchor="middle" x="274.5" y="-181" font-family="Helvetica,sans-Serif" font-size="10.00">Eval_Diff_VDF</text>
</a>
</g>
</g>
<!-- Node7&#45;&gt;Node6 -->
<g id="edge8" class="edge">
<title>Node7&#45;&gt;Node6</title>
<path fill="none" stroke="midnightblue" d="M271.49,-163.94C268.26,-144.04 263.28,-113.3 260.88,-98.52"/>
<polygon fill="midnightblue" stroke="midnightblue" points="268.06,-164.65 273.12,-173.96 274.97,-163.53 268.06,-164.65"/>
</g>
</g>
</svg>
