<?xml version="1.0" encoding="UTF-8" standalone="no"?>
<!DOCTYPE svg PUBLIC "-//W3C//DTD SVG 1.1//EN"
 "http://www.w3.org/Graphics/SVG/1.1/DTD/svg11.dtd">
<!-- Generated by graphviz version 2.43.0 (0)
 -->
<!-- Title: Champ_Inc_base Pages: 1 -->
<svg width="1049pt" height="398pt"
 viewBox="0.00 0.00 1049.00 398.00" xmlns="http://www.w3.org/2000/svg" xmlns:xlink="http://www.w3.org/1999/xlink">
<g id="graph0" class="graph" transform="scale(1 1) rotate(0) translate(4 394)">
<title>Champ_Inc_base</title>
<polygon fill="white" stroke="transparent" points="-4,4 -4,-394 1045,-394 1045,4 -4,4"/>
<!-- Node1 -->
<g id="node1" class="node">
<title>Node1</title>
<g id="a_node1"><a xlink:title="Classe Champ_Inc_base Classe de base des champs inconnues qui sont les champs calcules par une equati...">
<polygon fill="#bfbfbf" stroke="black" points="416,-152.5 416,-171.5 515,-171.5 515,-152.5 416,-152.5"/>
<text text-anchor="middle" x="465.5" y="-159.5" font-family="Helvetica,sans-Serif" font-size="10.00">Champ_Inc_base</text>
</a>
</g>
</g>
<!-- Node8 -->
<g id="node8" class="node">
<title>Node8</title>
<g id="a_node8"><a xlink:href="classChamp__Face.html" target="_top" xlink:title="class Champ_Face Cette classe sert a representer un champ vectoriel dont on ne calcule que les compos...">
<polygon fill="white" stroke="black" points="575.5,-323.5 575.5,-342.5 653.5,-342.5 653.5,-323.5 575.5,-323.5"/>
<text text-anchor="middle" x="614.5" y="-330.5" font-family="Helvetica,sans-Serif" font-size="10.00">Champ_Face</text>
</a>
</g>
</g>
<!-- Node1&#45;&gt;Node8 -->
<g id="edge7" class="edge">
<title>Node1&#45;&gt;Node8</title>
<path fill="none" stroke="midnightblue" d="M472.05,-181.51C482.27,-213.86 507.1,-278.55 551,-314 557.97,-319.63 566.59,-323.59 575.18,-326.38"/>
<polygon fill="midnightblue" stroke="midnightblue" points="475.38,-180.43 469.14,-171.87 468.68,-182.45 475.38,-180.43"/>
</g>
<!-- Node9 -->
<g id="node9" class="node">
<title>Node9</title>
<g id="a_node9"><a xlink:href="classChamp__Face__PolyMAC.html" target="_top" xlink:title=": class Champ_Face_PolyMAC Champ correspondant a une inconnue decrite par ses flux aux faces (type vi...">
<polygon fill="white" stroke="black" points="551,-285.5 551,-304.5 678,-304.5 678,-285.5 551,-285.5"/>
<text text-anchor="middle" x="614.5" y="-292.5" font-family="Helvetica,sans-Serif" font-size="10.00">Champ_Face_PolyMAC</text>
</a>
</g>
</g>
<!-- Node1&#45;&gt;Node9 -->
<g id="edge8" class="edge">
<title>Node1&#45;&gt;Node9</title>
<path fill="none" stroke="midnightblue" d="M475.57,-180.84C488.71,-206.17 515.43,-250.92 551,-276 556.47,-279.86 562.74,-282.94 569.14,-285.41"/>
<polygon fill="midnightblue" stroke="midnightblue" points="478.53,-178.94 470.92,-171.57 472.28,-182.08 478.53,-178.94"/>
</g>
<!-- Node11 -->
<g id="node11" class="node">
<title>Node11</title>
<g id="a_node11"><a xlink:href="classChamp__Inc__P0__base.html" target="_top" xlink:title=": class Champ_Inc_P0_base Decrire ici la classe Champ_Inc_P0_base">
<polygon fill="white" stroke="black" points="556.5,-247.5 556.5,-266.5 672.5,-266.5 672.5,-247.5 556.5,-247.5"/>
<text text-anchor="middle" x="614.5" y="-254.5" font-family="Helvetica,sans-Serif" font-size="10.00">Champ_Inc_P0_base</text>
</a>
</g>
</g>
<!-- Node1&#45;&gt;Node11 -->
<g id="edge10" class="edge">
<title>Node1&#45;&gt;Node11</title>
<path fill="none" stroke="midnightblue" d="M489.05,-177.63C505.96,-189.25 529.75,-205.39 551,-219 566.5,-228.93 584.5,-239.81 597.18,-247.37"/>
<polygon fill="midnightblue" stroke="midnightblue" points="490.64,-174.48 480.42,-171.68 486.67,-180.24 490.64,-174.48"/>
</g>
<!-- Node17 -->
<g id="node17" class="node">
<title>Node17</title>
<g id="a_node17"><a xlink:href="classChamp__Inc__P1__base.html" target="_top" xlink:title=": class Champ_Inc_P1_base Decrire ici la classe Champ_Inc_P1_base">
<polygon fill="white" stroke="black" points="556.5,-190.5 556.5,-209.5 672.5,-209.5 672.5,-190.5 556.5,-190.5"/>
<text text-anchor="middle" x="614.5" y="-197.5" font-family="Helvetica,sans-Serif" font-size="10.00">Champ_Inc_P1_base</text>
</a>
</g>
</g>
<!-- Node1&#45;&gt;Node17 -->
<g id="edge16" class="edge">
<title>Node1&#45;&gt;Node17</title>
<path fill="none" stroke="midnightblue" d="M513.35,-174.11C533.83,-179.4 557.49,-185.52 576.67,-190.48"/>
<polygon fill="midnightblue" stroke="midnightblue" points="514.15,-170.7 503.59,-171.59 512.4,-177.48 514.15,-170.7"/>
</g>
<!-- Node20 -->
<g id="node20" class="node">
<title>Node20</title>
<g id="a_node20"><a xlink:href="classChamp__Inc__Q1__base.html" target="_top" xlink:title=": class Champ_Inc_Q1_base Decrire ici la classe Champ_Inc_Q1_base">
<polygon fill="white" stroke="black" points="555.5,-152.5 555.5,-171.5 673.5,-171.5 673.5,-152.5 555.5,-152.5"/>
<text text-anchor="middle" x="614.5" y="-159.5" font-family="Helvetica,sans-Serif" font-size="10.00">Champ_Inc_Q1_base</text>
</a>
</g>
</g>
<!-- Node1&#45;&gt;Node20 -->
<g id="edge19" class="edge">
<title>Node1&#45;&gt;Node20</title>
<path fill="none" stroke="midnightblue" d="M525.2,-162C535.11,-162 545.4,-162 555.29,-162"/>
<polygon fill="midnightblue" stroke="midnightblue" points="525.04,-158.5 515.04,-162 525.04,-165.5 525.04,-158.5"/>
</g>
<!-- Node22 -->
<g id="node22" class="node">
<title>Node22</title>
<g id="a_node22"><a xlink:href="classChamp__P1NC.html" target="_top" xlink:title=" ">
<polygon fill="white" stroke="black" points="573,-114.5 573,-133.5 656,-133.5 656,-114.5 573,-114.5"/>
<text text-anchor="middle" x="614.5" y="-121.5" font-family="Helvetica,sans-Serif" font-size="10.00">Champ_P1NC</text>
</a>
</g>
</g>
<!-- Node1&#45;&gt;Node22 -->
<g id="edge21" class="edge">
<title>Node1&#45;&gt;Node22</title>
<path fill="none" stroke="midnightblue" d="M513.35,-149.89C533.83,-144.6 557.49,-138.48 576.67,-133.52"/>
<polygon fill="midnightblue" stroke="midnightblue" points="512.4,-146.52 503.59,-152.41 514.15,-153.3 512.4,-146.52"/>
</g>
<!-- Node23 -->
<g id="node23" class="node">
<title>Node23</title>
<g id="a_node23"><a xlink:href="classChamp__P1__iso.html" target="_top" xlink:title="classe Champ_P1_iso">
<polygon fill="white" stroke="black" points="570.5,-76.5 570.5,-95.5 658.5,-95.5 658.5,-76.5 570.5,-76.5"/>
<text text-anchor="middle" x="614.5" y="-83.5" font-family="Helvetica,sans-Serif" font-size="10.00">Champ_P1_iso</text>
</a>
</g>
</g>
<!-- Node1&#45;&gt;Node23 -->
<g id="edge22" class="edge">
<title>Node1&#45;&gt;Node23</title>
<path fill="none" stroke="midnightblue" d="M486.42,-146.05C502.92,-133.47 527.41,-116.23 551,-105 558.68,-101.34 567.22,-98.2 575.47,-95.58"/>
<polygon fill="midnightblue" stroke="midnightblue" points="483.88,-143.59 478.13,-152.49 488.17,-149.12 483.88,-143.59"/>
</g>
<!-- Node24 -->
<g id="node24" class="node">
<title>Node24</title>
<g id="a_node24"><a xlink:href="classChamp__P1__isoP1Bulle.html" target="_top" xlink:title=" ">
<polygon fill="white" stroke="black" points="552,-38.5 552,-57.5 677,-57.5 677,-38.5 552,-38.5"/>
<text text-anchor="middle" x="614.5" y="-45.5" font-family="Helvetica,sans-Serif" font-size="10.00">Champ_P1_isoP1Bulle</text>
</a>
</g>
</g>
<!-- Node1&#45;&gt;Node24 -->
<g id="edge23" class="edge">
<title>Node1&#45;&gt;Node24</title>
<path fill="none" stroke="midnightblue" d="M478.04,-143.84C492.55,-122.43 519.42,-87.22 551,-67 557.02,-63.15 563.86,-60.04 570.75,-57.55"/>
<polygon fill="midnightblue" stroke="midnightblue" points="475.01,-142.07 472.43,-152.34 480.86,-145.92 475.01,-142.07"/>
</g>
<!-- Node25 -->
<g id="node25" class="node">
<title>Node25</title>
<g id="a_node25"><a xlink:href="classChamp__Q1NC.html" target="_top" xlink:title=" ">
<polygon fill="white" stroke="black" points="572.5,-0.5 572.5,-19.5 656.5,-19.5 656.5,-0.5 572.5,-0.5"/>
<text text-anchor="middle" x="614.5" y="-7.5" font-family="Helvetica,sans-Serif" font-size="10.00">Champ_Q1NC</text>
</a>
</g>
</g>
<!-- Node1&#45;&gt;Node25 -->
<g id="edge24" class="edge">
<title>Node1&#45;&gt;Node25</title>
<path fill="none" stroke="midnightblue" d="M473.55,-142.91C485.21,-113.99 511.24,-59.23 551,-29 557.32,-24.2 564.86,-20.6 572.47,-17.91"/>
<polygon fill="midnightblue" stroke="midnightblue" points="470.26,-141.72 469.91,-152.31 476.79,-144.25 470.26,-141.72"/>
</g>
<!-- Node2 -->
<g id="node2" class="node">
<title>Node2</title>
<g id="a_node2"><a xlink:href="classChamp__base.html" target="_top" xlink:title="classe Champ_base Cette classe est la base de la hierarchie des champs. Ses membres sont les attribut...">
<polygon fill="white" stroke="black" points="300,-171.5 300,-190.5 380,-190.5 380,-171.5 300,-171.5"/>
<text text-anchor="middle" x="340" y="-178.5" font-family="Helvetica,sans-Serif" font-size="10.00">Champ_base</text>
</a>
</g>
</g>
<!-- Node2&#45;&gt;Node1 -->
<g id="edge1" class="edge">
<title>Node2&#45;&gt;Node1</title>
<path fill="none" stroke="midnightblue" d="M390.13,-173.44C398.55,-172.15 407.28,-170.8 415.69,-169.51"/>
<polygon fill="midnightblue" stroke="midnightblue" points="389.43,-170.01 380.08,-174.99 390.49,-176.93 389.43,-170.01"/>
</g>
<!-- Node3 -->
<g id="node3" class="node">
<title>Node3</title>
<g id="a_node3"><a xlink:href="classField__base.html" target="_top" xlink:title=" ">
<polygon fill="white" stroke="black" points="189,-190.5 189,-209.5 257,-209.5 257,-190.5 189,-190.5"/>
<text text-anchor="middle" x="223" y="-197.5" font-family="Helvetica,sans-Serif" font-size="10.00">Field_base</text>
</a>
</g>
</g>
<!-- Node3&#45;&gt;Node2 -->
<g id="edge2" class="edge">
<title>Node3&#45;&gt;Node2</title>
<path fill="none" stroke="midnightblue" d="M267.22,-192.86C277.89,-191.1 289.25,-189.22 299.72,-187.49"/>
<polygon fill="midnightblue" stroke="midnightblue" points="266.56,-189.42 257.26,-194.5 267.7,-196.33 266.56,-189.42"/>
</g>
<!-- Node4 -->
<g id="node4" class="node">
<title>Node4</title>
<g id="a_node4"><a xlink:href="classObjet__U.html" target="_top" xlink:title="classe Objet_U Cette classe est la classe de base des Objets de TRUST Dans les classes derivees de Ob...">
<polygon fill="white" stroke="black" points="90,-190.5 90,-209.5 146,-209.5 146,-190.5 90,-190.5"/>
<text text-anchor="middle" x="118" y="-197.5" font-family="Helvetica,sans-Serif" font-size="10.00">Objet_U</text>
</a>
</g>
</g>
<!-- Node4&#45;&gt;Node3 -->
<g id="edge3" class="edge">
<title>Node4&#45;&gt;Node3</title>
<path fill="none" stroke="midnightblue" d="M156.34,-200C166.98,-200 178.5,-200 188.87,-200"/>
<polygon fill="midnightblue" stroke="midnightblue" points="156.06,-196.5 146.06,-200 156.06,-203.5 156.06,-196.5"/>
</g>
<!-- Node5 -->
<g id="node5" class="node">
<title>Node5</title>
<g id="a_node5"><a xlink:href="classProcess.html" target="_top" xlink:title="Classe de base de TRUST (notamment Objet_U). Elle fournit quelques services de base accessibles de pa...">
<polygon fill="white" stroke="black" points="0,-190.5 0,-209.5 54,-209.5 54,-190.5 0,-190.5"/>
<text text-anchor="middle" x="27" y="-197.5" font-family="Helvetica,sans-Serif" font-size="10.00">Process</text>
</a>
</g>
</g>
<!-- Node5&#45;&gt;Node4 -->
<g id="edge4" class="edge">
<title>Node5&#45;&gt;Node4</title>
<path fill="none" stroke="midnightblue" d="M64.29,-200C72.79,-200 81.7,-200 89.73,-200"/>
<polygon fill="midnightblue" stroke="midnightblue" points="64.22,-196.5 54.22,-200 64.22,-203.5 64.22,-196.5"/>
</g>
<!-- Node6 -->
<g id="node6" class="node">
<title>Node6</title>
<g id="a_node6"><a xlink:href="classChamp__Proto.html" target="_top" xlink:title="classe Champ_Proto Classe representant un prototype de Champ. Tous les classes representant des champ...">
<polygon fill="white" stroke="black" points="182,-152.5 182,-171.5 264,-171.5 264,-152.5 182,-152.5"/>
<text text-anchor="middle" x="223" y="-159.5" font-family="Helvetica,sans-Serif" font-size="10.00">Champ_Proto</text>
</a>
</g>
</g>
<!-- Node6&#45;&gt;Node2 -->
<g id="edge5" class="edge">
<title>Node6&#45;&gt;Node2</title>
<path fill="none" stroke="midnightblue" d="M274.14,-170.28C282.72,-171.7 291.53,-173.16 299.77,-174.52"/>
<polygon fill="midnightblue" stroke="midnightblue" points="274.66,-166.82 264.22,-168.65 273.52,-173.73 274.66,-166.82"/>
</g>
<!-- Node7 -->
<g id="node7" class="node">
<title>Node7</title>
<g id="a_node7"><a xlink:href="classMorEqn.html" target="_top" xlink:title="classe MorEqn Classe qui regroupe les fonctionnalites de liaison avec une Equation....">
<polygon fill="white" stroke="black" points="313.5,-133.5 313.5,-152.5 366.5,-152.5 366.5,-133.5 313.5,-133.5"/>
<text text-anchor="middle" x="340" y="-140.5" font-family="Helvetica,sans-Serif" font-size="10.00">MorEqn</text>
</a>
</g>
</g>
<!-- Node7&#45;&gt;Node1 -->
<g id="edge6" class="edge">
<title>Node7&#45;&gt;Node1</title>
<path fill="none" stroke="midnightblue" d="M376.84,-148.51C389.06,-150.39 402.93,-152.53 415.98,-154.54"/>
<polygon fill="midnightblue" stroke="midnightblue" points="377.01,-145 366.59,-146.94 375.94,-151.92 377.01,-145"/>
</g>
<!-- Node10 -->
<g id="node10" class="node">
<title>Node10</title>
<g id="a_node10"><a xlink:href="classChamp__Face__PolyMAC__P0.html" target="_top" xlink:title=": class Champ_Face_PolyMAC_P0 Champ correspondant a une inconnue decrite par ses tangentes aux faces ...">
<polygon fill="white" stroke="black" points="714,-370.5 714,-389.5 858,-389.5 858,-370.5 714,-370.5"/>
<text text-anchor="middle" x="786" y="-377.5" font-family="Helvetica,sans-Serif" font-size="10.00">Champ_Face_PolyMAC_P0</text>
</a>
</g>
</g>
<!-- Node9&#45;&gt;Node10 -->
<g id="edge9" class="edge">
<title>Node9&#45;&gt;Node10</title>
<path fill="none" stroke="midnightblue" d="M668.8,-308.6C672.02,-310.21 675.12,-312 678,-314 699.62,-328.99 692.13,-346.38 714,-361 719.83,-364.9 726.44,-368 733.21,-370.47"/>
<polygon fill="midnightblue" stroke="midnightblue" points="670.04,-305.32 659.48,-304.54 667.25,-311.74 670.04,-305.32"/>
</g>
<!-- Node12 -->
<g id="node12" class="node">
<title>Node12</title>
<g id="a_node12"><a xlink:href="classChamp__Elem__PolyMAC.html" target="_top" xlink:title=": class Champ_Elem_PolyMAC Champ correspondant a une inconnue scalaire (type temperature ou pression)...">
<polygon fill="white" stroke="black" points="721,-332.5 721,-351.5 851,-351.5 851,-332.5 721,-332.5"/>
<text text-anchor="middle" x="786" y="-339.5" font-family="Helvetica,sans-Serif" font-size="10.00">Champ_Elem_PolyMAC</text>
</a>
</g>
</g>
<!-- Node11&#45;&gt;Node12 -->
<g id="edge11" class="edge">
<title>Node11&#45;&gt;Node12</title>
<path fill="none" stroke="midnightblue" d="M668.8,-270.6C672.02,-272.21 675.12,-274 678,-276 699.62,-290.99 692.13,-308.38 714,-323 719.83,-326.9 726.44,-330 733.21,-332.47"/>
<polygon fill="midnightblue" stroke="midnightblue" points="670.04,-267.32 659.48,-266.54 667.25,-273.74 670.04,-267.32"/>
</g>
<!-- Node14 -->
<g id="node14" class="node">
<title>Node14</title>
<g id="a_node14"><a xlink:href="classChamp__P0__EF.html" target="_top" xlink:title=" ">
<polygon fill="white" stroke="black" points="743,-294.5 743,-313.5 829,-313.5 829,-294.5 743,-294.5"/>
<text text-anchor="middle" x="786" y="-301.5" font-family="Helvetica,sans-Serif" font-size="10.00">Champ_P0_EF</text>
</a>
</g>
</g>
<!-- Node11&#45;&gt;Node14 -->
<g id="edge13" class="edge">
<title>Node11&#45;&gt;Node14</title>
<path fill="none" stroke="midnightblue" d="M658.53,-269.39C675.76,-274.31 695.81,-279.98 714,-285 725.32,-288.12 737.67,-291.45 748.85,-294.44"/>
<polygon fill="midnightblue" stroke="midnightblue" points="659.32,-265.97 648.75,-266.59 657.4,-272.7 659.32,-265.97"/>
</g>
<!-- Node15 -->
<g id="node15" class="node">
<title>Node15</title>
<g id="a_node15"><a xlink:href="classChamp__P0__VDF.html" target="_top" xlink:title="classe Champ_P0_VDF Classe qui represente un champ discret P0 par element associe a une zone discreti...">
<polygon fill="white" stroke="black" points="739,-256.5 739,-275.5 833,-275.5 833,-256.5 739,-256.5"/>
<text text-anchor="middle" x="786" y="-263.5" font-family="Helvetica,sans-Serif" font-size="10.00">Champ_P0_VDF</text>
</a>
</g>
</g>
<!-- Node11&#45;&gt;Node15 -->
<g id="edge14" class="edge">
<title>Node11&#45;&gt;Node15</title>
<path fill="none" stroke="midnightblue" d="M682.88,-260.58C701.67,-261.58 721.65,-262.64 738.91,-263.55"/>
<polygon fill="midnightblue" stroke="midnightblue" points="683.06,-257.08 672.88,-260.05 682.69,-264.07 683.06,-257.08"/>
</g>
<!-- Node16 -->
<g id="node16" class="node">
<title>Node16</title>
<g id="a_node16"><a xlink:href="classChamp__P0__VEF.html" target="_top" xlink:title="classe Champ_P0_VEF Classe qui represente un champ discret P0 par element associe a une zone discreti...">
<polygon fill="white" stroke="black" points="740,-218.5 740,-237.5 832,-237.5 832,-218.5 740,-218.5"/>
<text text-anchor="middle" x="786" y="-225.5" font-family="Helvetica,sans-Serif" font-size="10.00">Champ_P0_VEF</text>
</a>
</g>
</g>
<!-- Node11&#45;&gt;Node16 -->
<g id="edge15" class="edge">
<title>Node11&#45;&gt;Node16</title>
<path fill="none" stroke="midnightblue" d="M681.52,-245.7C701.03,-242.37 721.93,-238.79 739.8,-235.73"/>
<polygon fill="midnightblue" stroke="midnightblue" points="680.74,-242.29 671.47,-247.42 681.92,-249.19 680.74,-242.29"/>
</g>
<!-- Node13 -->
<g id="node13" class="node">
<title>Node13</title>
<g id="a_node13"><a xlink:href="classChamp__Elem__PolyMAC__P0.html" target="_top" xlink:title=": class Champ_Elem_PolyMAC_P0 Champ correspondant a une inconnue scalaire (type temperature ou pressi...">
<polygon fill="white" stroke="black" points="894,-332.5 894,-351.5 1041,-351.5 1041,-332.5 894,-332.5"/>
<text text-anchor="middle" x="967.5" y="-339.5" font-family="Helvetica,sans-Serif" font-size="10.00">Champ_Elem_PolyMAC_P0</text>
</a>
</g>
</g>
<!-- Node12&#45;&gt;Node13 -->
<g id="edge12" class="edge">
<title>Node12&#45;&gt;Node13</title>
<path fill="none" stroke="midnightblue" d="M861.28,-342C872.07,-342 883.17,-342 893.93,-342"/>
<polygon fill="midnightblue" stroke="midnightblue" points="861.04,-338.5 851.04,-342 861.04,-345.5 861.04,-338.5"/>
</g>
<!-- Node18 -->
<g id="node18" class="node">
<title>Node18</title>
<g id="a_node18"><a xlink:href="classChamp__P1__EF.html" target="_top" xlink:title=" ">
<polygon fill="white" stroke="black" points="743,-180.5 743,-199.5 829,-199.5 829,-180.5 743,-180.5"/>
<text text-anchor="middle" x="786" y="-187.5" font-family="Helvetica,sans-Serif" font-size="10.00">Champ_P1_EF</text>
</a>
</g>
</g>
<!-- Node17&#45;&gt;Node18 -->
<g id="edge17" class="edge">
<title>Node17&#45;&gt;Node18</title>
<path fill="none" stroke="midnightblue" d="M683,-196.02C703.24,-194.82 724.85,-193.55 742.94,-192.48"/>
<polygon fill="midnightblue" stroke="midnightblue" points="682.66,-192.53 672.88,-196.61 683.07,-199.52 682.66,-192.53"/>
</g>
<!-- Node19 -->
<g id="node19" class="node">
<title>Node19</title>
<g id="a_node19"><a xlink:href="classChamp__Som__PolyMAC.html" target="_top" xlink:title=" ">
<polygon fill="white" stroke="black" points="722.5,-142.5 722.5,-161.5 849.5,-161.5 849.5,-142.5 722.5,-142.5"/>
<text text-anchor="middle" x="786" y="-149.5" font-family="Helvetica,sans-Serif" font-size="10.00">Champ_Som_PolyMAC</text>
</a>
</g>
</g>
<!-- Node17&#45;&gt;Node19 -->
<g id="edge18" class="edge">
<title>Node17&#45;&gt;Node19</title>
<path fill="none" stroke="midnightblue" d="M657.29,-187.45C674.78,-182.26 695.35,-176.24 714,-171 725.18,-167.86 737.38,-164.55 748.47,-161.59"/>
<polygon fill="midnightblue" stroke="midnightblue" points="655.97,-184.19 647.38,-190.4 657.96,-190.9 655.97,-184.19"/>
</g>
<!-- Node21 -->
<g id="node21" class="node">
<title>Node21</title>
<g id="a_node21"><a xlink:href="classChamp__Q1__EF.html" target="_top" xlink:title=" ">
<polygon fill="white" stroke="black" points="742.5,-104.5 742.5,-123.5 829.5,-123.5 829.5,-104.5 742.5,-104.5"/>
<text text-anchor="middle" x="786" y="-111.5" font-family="Helvetica,sans-Serif" font-size="10.00">Champ_Q1_EF</text>
</a>
</g>
</g>
<!-- Node20&#45;&gt;Node21 -->
<g id="edge20" class="edge">
<title>Node20&#45;&gt;Node21</title>
<path fill="none" stroke="midnightblue" d="M657.29,-149.45C674.78,-144.26 695.35,-138.24 714,-133 725.18,-129.86 737.38,-126.55 748.47,-123.59"/>
<polygon fill="midnightblue" stroke="midnightblue" points="655.97,-146.19 647.38,-152.4 657.96,-152.9 655.97,-146.19"/>
</g>
</g>
</svg>
