<?xml version="1.0" encoding="UTF-8" standalone="no"?>
<!DOCTYPE svg PUBLIC "-//W3C//DTD SVG 1.1//EN"
 "http://www.w3.org/Graphics/SVG/1.1/DTD/svg11.dtd">
<!-- Generated by graphviz version 2.43.0 (0)
 -->
<!-- Title: Op_Conv_PolyMAC_base Pages: 1 -->
<svg width="1141pt" height="241pt"
 viewBox="0.00 0.00 1141.00 240.50" xmlns="http://www.w3.org/2000/svg" xmlns:xlink="http://www.w3.org/1999/xlink">
<g id="graph0" class="graph" transform="scale(1 1) rotate(0) translate(4 236.5)">
<title>Op_Conv_PolyMAC_base</title>
<polygon fill="white" stroke="transparent" points="-4,4 -4,-236.5 1137,-236.5 1137,4 -4,4"/>
<!-- Node1 -->
<g id="node1" class="node">
<title>Node1</title>
<g id="a_node1"><a xlink:title="class Op_Conv_PolyMAC_base Classe de base des operateurs de convection VDF">
<polygon fill="#bfbfbf" stroke="black" points="565,-118 565,-137 702,-137 702,-118 565,-118"/>
<text text-anchor="middle" x="633.5" y="-125" font-family="Helvetica,sans-Serif" font-size="10.00">Op_Conv_PolyMAC_base</text>
</a>
</g>
</g>
<!-- Node8 -->
<g id="node8" class="node">
<title>Node8</title>
<g id="a_node8"><a xlink:href="classOp__Conv__EF__Stab__PolyMAC__Elem.html" target="_top" xlink:title=": class Op_Conv_EF_Stab_PolyMAC_Elem &lt;Description of class Op_Conv_EF_Stab_PolyMAC_Elem&gt;">
<polygon fill="white" stroke="black" points="738,-175 738,-194 921,-194 921,-175 738,-175"/>
<text text-anchor="middle" x="829.5" y="-182" font-family="Helvetica,sans-Serif" font-size="10.00">Op_Conv_EF_Stab_PolyMAC_Elem</text>
</a>
</g>
</g>
<!-- Node1&#45;&gt;Node8 -->
<g id="edge7" class="edge">
<title>Node1&#45;&gt;Node8</title>
<path fill="none" stroke="midnightblue" d="M676.65,-139.88C712.47,-150.41 763.15,-165.3 795.92,-174.93"/>
<polygon fill="midnightblue" stroke="midnightblue" points="677.55,-136.5 666.97,-137.04 675.58,-143.22 677.55,-136.5"/>
</g>
<!-- Node11 -->
<g id="node11" class="node">
<title>Node11</title>
<g id="a_node11"><a xlink:href="classOp__Conv__EF__Stab__PolyMAC__Face.html" target="_top" xlink:title=": class Op_Conv_EF_Stab_PolyMAC_Face &lt;Description of class Op_Conv_EF_Stab_PolyMAC_Face&gt;">
<polygon fill="white" stroke="black" points="739.5,-118 739.5,-137 919.5,-137 919.5,-118 739.5,-118"/>
<text text-anchor="middle" x="829.5" y="-125" font-family="Helvetica,sans-Serif" font-size="10.00">Op_Conv_EF_Stab_PolyMAC_Face</text>
</a>
</g>
</g>
<!-- Node1&#45;&gt;Node11 -->
<g id="edge10" class="edge">
<title>Node1&#45;&gt;Node11</title>
<path fill="none" stroke="midnightblue" d="M712.37,-127.5C721.24,-127.5 730.32,-127.5 739.32,-127.5"/>
<polygon fill="midnightblue" stroke="midnightblue" points="712.08,-124 702.08,-127.5 712.08,-131 712.08,-124"/>
</g>
<!-- Node14 -->
<g id="node14" class="node">
<title>Node14</title>
<g id="a_node14"><a xlink:href="classOp__Conv__EF__Stab__PolyMAC__P0__Face.html" target="_top" xlink:title=": class Op_Conv_EF_Stab_PolyMAC_P0_Face &lt;Description of class Op_Conv_EF_Stab_PolyMAC_P0_Face&gt;">
<polygon fill="white" stroke="black" points="753,-49.5 753,-79.5 906,-79.5 906,-49.5 753,-49.5"/>
<text text-anchor="start" x="761" y="-67.5" font-family="Helvetica,sans-Serif" font-size="10.00">Op_Conv_EF_Stab_PolyMAC</text>
<text text-anchor="middle" x="829.5" y="-56.5" font-family="Helvetica,sans-Serif" font-size="10.00">_P0_Face</text>
</a>
</g>
</g>
<!-- Node1&#45;&gt;Node14 -->
<g id="edge13" class="edge">
<title>Node1&#45;&gt;Node14</title>
<path fill="none" stroke="midnightblue" d="M673.66,-114.78C705,-104.61 749.01,-90.31 782.11,-79.57"/>
<polygon fill="midnightblue" stroke="midnightblue" points="672.39,-111.51 663.96,-117.93 674.56,-118.17 672.39,-111.51"/>
</g>
<!-- Node2 -->
<g id="node2" class="node">
<title>Node2</title>
<g id="a_node2"><a xlink:href="classOperateur__Conv__base.html" target="_top" xlink:title="classe Operateur_Conv_base Cette classe est la base de la hierarchie des operateurs representant un t...">
<polygon fill="white" stroke="black" points="405,-118 405,-137 529,-137 529,-118 405,-118"/>
<text text-anchor="middle" x="467" y="-125" font-family="Helvetica,sans-Serif" font-size="10.00">Operateur_Conv_base</text>
</a>
</g>
</g>
<!-- Node2&#45;&gt;Node1 -->
<g id="edge1" class="edge">
<title>Node2&#45;&gt;Node1</title>
<path fill="none" stroke="midnightblue" d="M539.44,-127.5C547.87,-127.5 556.46,-127.5 564.84,-127.5"/>
<polygon fill="midnightblue" stroke="midnightblue" points="539.25,-124 529.25,-127.5 539.25,-131 539.25,-124"/>
</g>
<!-- Node3 -->
<g id="node3" class="node">
<title>Node3</title>
<g id="a_node3"><a xlink:href="classOperateur__base.html" target="_top" xlink:title="classe Operateur_base Classe est la base de la hierarchie des objets representant un operateur utilis...">
<polygon fill="white" stroke="black" points="275,-118 275,-137 369,-137 369,-118 275,-118"/>
<text text-anchor="middle" x="322" y="-125" font-family="Helvetica,sans-Serif" font-size="10.00">Operateur_base</text>
</a>
</g>
</g>
<!-- Node3&#45;&gt;Node2 -->
<g id="edge2" class="edge">
<title>Node3&#45;&gt;Node2</title>
<path fill="none" stroke="midnightblue" d="M379.16,-127.5C387.62,-127.5 396.37,-127.5 404.92,-127.5"/>
<polygon fill="midnightblue" stroke="midnightblue" points="379.03,-124 369.03,-127.5 379.03,-131 379.03,-124"/>
</g>
<!-- Node4 -->
<g id="node4" class="node">
<title>Node4</title>
<g id="a_node4"><a xlink:href="classObjet__U.html" target="_top" xlink:title="classe Objet_U Cette classe est la classe de base des Objets de TRUST Dans les classes derivees de Ob...">
<polygon fill="white" stroke="black" points="136.5,-156 136.5,-175 192.5,-175 192.5,-156 136.5,-156"/>
<text text-anchor="middle" x="164.5" y="-163" font-family="Helvetica,sans-Serif" font-size="10.00">Objet_U</text>
</a>
</g>
</g>
<!-- Node4&#45;&gt;Node3 -->
<g id="edge3" class="edge">
<title>Node4&#45;&gt;Node3</title>
<path fill="none" stroke="midnightblue" d="M202.38,-156.49C226.36,-150.63 257.59,-143 281.99,-137.03"/>
<polygon fill="midnightblue" stroke="midnightblue" points="201.47,-153.11 192.59,-158.88 203.13,-159.91 201.47,-153.11"/>
</g>
<!-- Node5 -->
<g id="node5" class="node">
<title>Node5</title>
<g id="a_node5"><a xlink:href="classProcess.html" target="_top" xlink:title="Classe de base de TRUST (notamment Objet_U). Elle fournit quelques services de base accessibles de pa...">
<polygon fill="white" stroke="black" points="0,-156 0,-175 54,-175 54,-156 0,-156"/>
<text text-anchor="middle" x="27" y="-163" font-family="Helvetica,sans-Serif" font-size="10.00">Process</text>
</a>
</g>
</g>
<!-- Node5&#45;&gt;Node4 -->
<g id="edge4" class="edge">
<title>Node5&#45;&gt;Node4</title>
<path fill="none" stroke="midnightblue" d="M64.34,-165.5C86.89,-165.5 115.4,-165.5 136.06,-165.5"/>
<polygon fill="midnightblue" stroke="midnightblue" points="64.13,-162 54.13,-165.5 64.13,-169 64.13,-162"/>
</g>
<!-- Node6 -->
<g id="node6" class="node">
<title>Node6</title>
<g id="a_node6"><a xlink:href="classMorEqn.html" target="_top" xlink:title="classe MorEqn Classe qui regroupe les fonctionnalites de liaison avec une Equation....">
<polygon fill="white" stroke="black" points="138,-118 138,-137 191,-137 191,-118 138,-118"/>
<text text-anchor="middle" x="164.5" y="-125" font-family="Helvetica,sans-Serif" font-size="10.00">MorEqn</text>
</a>
</g>
</g>
<!-- Node6&#45;&gt;Node3 -->
<g id="edge5" class="edge">
<title>Node6&#45;&gt;Node3</title>
<path fill="none" stroke="midnightblue" d="M201.35,-127.5C223.2,-127.5 251.35,-127.5 274.85,-127.5"/>
<polygon fill="midnightblue" stroke="midnightblue" points="201.18,-124 191.18,-127.5 201.18,-131 201.18,-124"/>
</g>
<!-- Node7 -->
<g id="node7" class="node">
<title>Node7</title>
<g id="a_node7"><a xlink:href="classChamps__compris__interface.html" target="_top" xlink:title="classe Champs_compris_interface Cette classe contient une interface de methodes destinees a gerer les...">
<polygon fill="white" stroke="black" points="90,-80 90,-99 239,-99 239,-80 90,-80"/>
<text text-anchor="middle" x="164.5" y="-87" font-family="Helvetica,sans-Serif" font-size="10.00">Champs_compris_interface</text>
</a>
</g>
</g>
<!-- Node7&#45;&gt;Node3 -->
<g id="edge6" class="edge">
<title>Node7&#45;&gt;Node3</title>
<path fill="none" stroke="midnightblue" d="M214.47,-101.47C236.27,-106.79 261.57,-112.98 282.04,-117.98"/>
<polygon fill="midnightblue" stroke="midnightblue" points="215.28,-98.06 204.74,-99.09 213.62,-104.86 215.28,-98.06"/>
</g>
<!-- Node9 -->
<g id="node9" class="node">
<title>Node9</title>
<g id="a_node9"><a xlink:href="classOp__Conv__Amont__PolyMAC__Elem.html" target="_top" xlink:title=" ">
<polygon fill="white" stroke="black" points="957,-213 957,-232 1133,-232 1133,-213 957,-213"/>
<text text-anchor="middle" x="1045" y="-220" font-family="Helvetica,sans-Serif" font-size="10.00">Op_Conv_Amont_PolyMAC_Elem</text>
</a>
</g>
</g>
<!-- Node8&#45;&gt;Node9 -->
<g id="edge8" class="edge">
<title>Node8&#45;&gt;Node9</title>
<path fill="none" stroke="midnightblue" d="M894.25,-195.85C924.88,-201.3 961.19,-207.76 990.38,-212.96"/>
<polygon fill="midnightblue" stroke="midnightblue" points="894.56,-192.35 884.1,-194.04 893.33,-199.24 894.56,-192.35"/>
</g>
<!-- Node10 -->
<g id="node10" class="node">
<title>Node10</title>
<g id="a_node10"><a xlink:href="classOp__Conv__Centre__PolyMAC__Elem.html" target="_top" xlink:title=" ">
<polygon fill="white" stroke="black" points="957,-175 957,-194 1133,-194 1133,-175 957,-175"/>
<text text-anchor="middle" x="1045" y="-182" font-family="Helvetica,sans-Serif" font-size="10.00">Op_Conv_Centre_PolyMAC_Elem</text>
</a>
</g>
</g>
<!-- Node8&#45;&gt;Node10 -->
<g id="edge9" class="edge">
<title>Node8&#45;&gt;Node10</title>
<path fill="none" stroke="midnightblue" d="M931.07,-184.5C939.64,-184.5 948.26,-184.5 956.72,-184.5"/>
<polygon fill="midnightblue" stroke="midnightblue" points="931.04,-181 921.04,-184.5 931.04,-188 931.04,-181"/>
</g>
<!-- Node12 -->
<g id="node12" class="node">
<title>Node12</title>
<g id="a_node12"><a xlink:href="classOp__Conv__Amont__PolyMAC__Face.html" target="_top" xlink:title=" ">
<polygon fill="white" stroke="black" points="958.5,-137 958.5,-156 1131.5,-156 1131.5,-137 958.5,-137"/>
<text text-anchor="middle" x="1045" y="-144" font-family="Helvetica,sans-Serif" font-size="10.00">Op_Conv_Amont_PolyMAC_Face</text>
</a>
</g>
</g>
<!-- Node11&#45;&gt;Node12 -->
<g id="edge11" class="edge">
<title>Node11&#45;&gt;Node12</title>
<path fill="none" stroke="midnightblue" d="M930.06,-136.36C939.56,-137.21 949.13,-138.06 958.47,-138.89"/>
<polygon fill="midnightblue" stroke="midnightblue" points="930.08,-132.85 919.81,-135.45 929.46,-139.82 930.08,-132.85"/>
</g>
<!-- Node13 -->
<g id="node13" class="node">
<title>Node13</title>
<g id="a_node13"><a xlink:href="classOp__Conv__Centre__PolyMAC__Face.html" target="_top" xlink:title=" ">
<polygon fill="white" stroke="black" points="958.5,-99 958.5,-118 1131.5,-118 1131.5,-99 958.5,-99"/>
<text text-anchor="middle" x="1045" y="-106" font-family="Helvetica,sans-Serif" font-size="10.00">Op_Conv_Centre_PolyMAC_Face</text>
</a>
</g>
</g>
<!-- Node11&#45;&gt;Node13 -->
<g id="edge12" class="edge">
<title>Node11&#45;&gt;Node13</title>
<path fill="none" stroke="midnightblue" d="M930.06,-118.64C939.56,-117.79 949.13,-116.94 958.47,-116.11"/>
<polygon fill="midnightblue" stroke="midnightblue" points="929.46,-115.18 919.81,-119.55 930.08,-122.15 929.46,-115.18"/>
</g>
<!-- Node15 -->
<g id="node15" class="node">
<title>Node15</title>
<g id="a_node15"><a xlink:href="classOp__Conv__Amont__PolyMAC__P0__Face.html" target="_top" xlink:title=" ">
<polygon fill="white" stroke="black" points="972,-49.5 972,-79.5 1118,-79.5 1118,-49.5 972,-49.5"/>
<text text-anchor="start" x="980" y="-67.5" font-family="Helvetica,sans-Serif" font-size="10.00">Op_Conv_Amont_PolyMAC</text>
<text text-anchor="middle" x="1045" y="-56.5" font-family="Helvetica,sans-Serif" font-size="10.00">_P0_Face</text>
</a>
</g>
</g>
<!-- Node14&#45;&gt;Node15 -->
<g id="edge14" class="edge">
<title>Node14&#45;&gt;Node15</title>
<path fill="none" stroke="midnightblue" d="M916.2,-64.5C934.62,-64.5 953.91,-64.5 971.75,-64.5"/>
<polygon fill="midnightblue" stroke="midnightblue" points="916.07,-61 906.07,-64.5 916.07,-68 916.07,-61"/>
</g>
<!-- Node16 -->
<g id="node16" class="node">
<title>Node16</title>
<g id="a_node16"><a xlink:href="classOp__Conv__Centre__PolyMAC__P0__Face.html" target="_top" xlink:title=" ">
<polygon fill="white" stroke="black" points="972,-0.5 972,-30.5 1118,-30.5 1118,-0.5 972,-0.5"/>
<text text-anchor="start" x="980" y="-18.5" font-family="Helvetica,sans-Serif" font-size="10.00">Op_Conv_Centre_PolyMAC</text>
<text text-anchor="middle" x="1045" y="-7.5" font-family="Helvetica,sans-Serif" font-size="10.00">_P0_Face</text>
</a>
</g>
</g>
<!-- Node14&#45;&gt;Node16 -->
<g id="edge15" class="edge">
<title>Node14&#45;&gt;Node16</title>
<path fill="none" stroke="midnightblue" d="M906.01,-47.17C929.72,-41.73 955.67,-35.77 978.62,-30.51"/>
<polygon fill="midnightblue" stroke="midnightblue" points="904.97,-43.82 896.01,-49.47 906.54,-50.64 904.97,-43.82"/>
</g>
</g>
</svg>
