<?xml version="1.0" encoding="UTF-8" standalone="no"?>
<!DOCTYPE svg PUBLIC "-//W3C//DTD SVG 1.1//EN"
 "http://www.w3.org/Graphics/SVG/1.1/DTD/svg11.dtd">
<!-- Generated by graphviz version 2.43.0 (0)
 -->
<!-- Title: Op_Conv_Centre_old_VEF_Face Pages: 1 -->
<svg width="303pt" height="319pt"
 viewBox="0.00 0.00 302.50 319.00" xmlns="http://www.w3.org/2000/svg" xmlns:xlink="http://www.w3.org/1999/xlink">
<g id="graph0" class="graph" transform="scale(1 1) rotate(0) translate(4 315)">
<title>Op_Conv_Centre_old_VEF_Face</title>
<polygon fill="white" stroke="transparent" points="-4,4 -4,-315 298.5,-315 298.5,4 -4,4"/>
<!-- Node1 -->
<g id="node1" class="node">
<title>Node1</title>
<g id="a_node1"><a xlink:title="class Op_Conv_Centre_old_VEF_Face Cette classe represente l&#39;operateur de convection associe a une equ...">
<polygon fill="#bfbfbf" stroke="black" points="102,-0.5 102,-30.5 220,-30.5 220,-0.5 102,-0.5"/>
<text text-anchor="start" x="110" y="-18.5" font-family="Helvetica,sans-Serif" font-size="10.00">Op_Conv_Centre_old</text>
<text text-anchor="middle" x="161" y="-7.5" font-family="Helvetica,sans-Serif" font-size="10.00">_VEF_Face</text>
</a>
</g>
</g>
<!-- Node2 -->
<g id="node2" class="node">
<title>Node2</title>
<g id="a_node2"><a xlink:href="classOp__Conv__VEF__base.html" target="_top" xlink:title="class Op_Conv_VEF_base Classe de base des operateurs de convection VEF">
<polygon fill="white" stroke="black" points="104.5,-67.5 104.5,-86.5 217.5,-86.5 217.5,-67.5 104.5,-67.5"/>
<text text-anchor="middle" x="161" y="-74.5" font-family="Helvetica,sans-Serif" font-size="10.00">Op_Conv_VEF_base</text>
</a>
</g>
</g>
<!-- Node2&#45;&gt;Node1 -->
<g id="edge1" class="edge">
<title>Node2&#45;&gt;Node1</title>
<path fill="none" stroke="midnightblue" d="M161,-57.23C161,-48.59 161,-38.5 161,-30.52"/>
<polygon fill="midnightblue" stroke="midnightblue" points="157.5,-57.48 161,-67.48 164.5,-57.48 157.5,-57.48"/>
</g>
<!-- Node3 -->
<g id="node3" class="node">
<title>Node3</title>
<g id="a_node3"><a xlink:href="classOperateur__Conv__base.html" target="_top" xlink:title="classe Operateur_Conv_base Cette classe est la base de la hierarchie des operateurs representant un t...">
<polygon fill="white" stroke="black" points="39,-123.5 39,-142.5 163,-142.5 163,-123.5 39,-123.5"/>
<text text-anchor="middle" x="101" y="-130.5" font-family="Helvetica,sans-Serif" font-size="10.00">Operateur_Conv_base</text>
</a>
</g>
</g>
<!-- Node3&#45;&gt;Node2 -->
<g id="edge2" class="edge">
<title>Node3&#45;&gt;Node2</title>
<path fill="none" stroke="midnightblue" d="M118.18,-116.54C128.88,-106.91 142.26,-94.87 151.18,-86.83"/>
<polygon fill="midnightblue" stroke="midnightblue" points="115.73,-114.03 110.64,-123.32 120.41,-119.24 115.73,-114.03"/>
</g>
<!-- Node4 -->
<g id="node4" class="node">
<title>Node4</title>
<g id="a_node4"><a xlink:href="classOperateur__base.html" target="_top" xlink:title="classe Operateur_base Classe est la base de la hierarchie des objets representant un operateur utilis...">
<polygon fill="white" stroke="black" points="54,-179.5 54,-198.5 148,-198.5 148,-179.5 54,-179.5"/>
<text text-anchor="middle" x="101" y="-186.5" font-family="Helvetica,sans-Serif" font-size="10.00">Operateur_base</text>
</a>
</g>
</g>
<!-- Node4&#45;&gt;Node3 -->
<g id="edge3" class="edge">
<title>Node4&#45;&gt;Node3</title>
<path fill="none" stroke="midnightblue" d="M101,-168.8C101,-159.91 101,-149.78 101,-142.75"/>
<polygon fill="midnightblue" stroke="midnightblue" points="97.5,-169.08 101,-179.08 104.5,-169.08 97.5,-169.08"/>
</g>
<!-- Node5 -->
<g id="node5" class="node">
<title>Node5</title>
<g id="a_node5"><a xlink:href="classObjet__U.html" target="_top" xlink:title="classe Objet_U Cette classe est la classe de base des Objets de TRUST Dans les classes derivees de Ob...">
<polygon fill="white" stroke="black" points="0,-235.5 0,-254.5 56,-254.5 56,-235.5 0,-235.5"/>
<text text-anchor="middle" x="28" y="-242.5" font-family="Helvetica,sans-Serif" font-size="10.00">Objet_U</text>
</a>
</g>
</g>
<!-- Node5&#45;&gt;Node4 -->
<g id="edge4" class="edge">
<title>Node5&#45;&gt;Node4</title>
<path fill="none" stroke="midnightblue" d="M48.14,-229.1C61.28,-219.38 77.98,-207.03 89.06,-198.83"/>
<polygon fill="midnightblue" stroke="midnightblue" points="45.69,-226.56 39.73,-235.32 49.85,-232.19 45.69,-226.56"/>
</g>
<!-- Node6 -->
<g id="node6" class="node">
<title>Node6</title>
<g id="a_node6"><a xlink:href="classProcess.html" target="_top" xlink:title="Classe de base de TRUST (notamment Objet_U). Elle fournit quelques services de base accessibles de pa...">
<polygon fill="white" stroke="black" points="1,-291.5 1,-310.5 55,-310.5 55,-291.5 1,-291.5"/>
<text text-anchor="middle" x="28" y="-298.5" font-family="Helvetica,sans-Serif" font-size="10.00">Process</text>
</a>
</g>
</g>
<!-- Node6&#45;&gt;Node5 -->
<g id="edge5" class="edge">
<title>Node6&#45;&gt;Node5</title>
<path fill="none" stroke="midnightblue" d="M28,-280.8C28,-271.91 28,-261.78 28,-254.75"/>
<polygon fill="midnightblue" stroke="midnightblue" points="24.5,-281.08 28,-291.08 31.5,-281.08 24.5,-281.08"/>
</g>
<!-- Node7 -->
<g id="node7" class="node">
<title>Node7</title>
<g id="a_node7"><a xlink:href="classMorEqn.html" target="_top" xlink:title="classe MorEqn Classe qui regroupe les fonctionnalites de liaison avec une Equation....">
<polygon fill="white" stroke="black" points="74.5,-235.5 74.5,-254.5 127.5,-254.5 127.5,-235.5 74.5,-235.5"/>
<text text-anchor="middle" x="101" y="-242.5" font-family="Helvetica,sans-Serif" font-size="10.00">MorEqn</text>
</a>
</g>
</g>
<!-- Node7&#45;&gt;Node4 -->
<g id="edge6" class="edge">
<title>Node7&#45;&gt;Node4</title>
<path fill="none" stroke="midnightblue" d="M101,-224.8C101,-215.91 101,-205.78 101,-198.75"/>
<polygon fill="midnightblue" stroke="midnightblue" points="97.5,-225.08 101,-235.08 104.5,-225.08 97.5,-225.08"/>
</g>
<!-- Node8 -->
<g id="node8" class="node">
<title>Node8</title>
<g id="a_node8"><a xlink:href="classChamps__compris__interface.html" target="_top" xlink:title="classe Champs_compris_interface Cette classe contient une interface de methodes destinees a gerer les...">
<polygon fill="white" stroke="black" points="145.5,-235.5 145.5,-254.5 294.5,-254.5 294.5,-235.5 145.5,-235.5"/>
<text text-anchor="middle" x="220" y="-242.5" font-family="Helvetica,sans-Serif" font-size="10.00">Champs_compris_interface</text>
</a>
</g>
</g>
<!-- Node8&#45;&gt;Node4 -->
<g id="edge7" class="edge">
<title>Node8&#45;&gt;Node4</title>
<path fill="none" stroke="midnightblue" d="M191.86,-231.23C169.6,-221.13 139.14,-207.31 119.77,-198.52"/>
<polygon fill="midnightblue" stroke="midnightblue" points="190.59,-234.5 201.14,-235.44 193.48,-228.12 190.59,-234.5"/>
</g>
<!-- Node9 -->
<g id="node9" class="node">
<title>Node9</title>
<g id="a_node9"><a xlink:href="classOp__VEF__Face.html" target="_top" xlink:title=" ">
<polygon fill="white" stroke="black" points="181.5,-123.5 181.5,-142.5 262.5,-142.5 262.5,-123.5 181.5,-123.5"/>
<text text-anchor="middle" x="222" y="-130.5" font-family="Helvetica,sans-Serif" font-size="10.00">Op_VEF_Face</text>
</a>
</g>
</g>
<!-- Node9&#45;&gt;Node2 -->
<g id="edge8" class="edge">
<title>Node9&#45;&gt;Node2</title>
<path fill="none" stroke="midnightblue" d="M204.53,-116.54C193.66,-106.91 180.06,-94.87 170.98,-86.83"/>
<polygon fill="midnightblue" stroke="midnightblue" points="202.39,-119.32 212.2,-123.32 207.03,-114.07 202.39,-119.32"/>
</g>
</g>
</svg>
