<?xml version="1.0" encoding="UTF-8" standalone="no"?>
<!DOCTYPE svg PUBLIC "-//W3C//DTD SVG 1.1//EN"
 "http://www.w3.org/Graphics/SVG/1.1/DTD/svg11.dtd">
<!-- Generated by graphviz version 2.43.0 (0)
 -->
<!-- Title: Iterateur_Source_VEF_base Pages: 1 -->
<svg width="541pt" height="307pt"
 viewBox="0.00 0.00 541.00 307.00" xmlns="http://www.w3.org/2000/svg" xmlns:xlink="http://www.w3.org/1999/xlink">
<g id="graph0" class="graph" transform="scale(1 1) rotate(0) translate(4 303)">
<title>Iterateur_Source_VEF_base</title>
<polygon fill="white" stroke="transparent" points="-4,4 -4,-303 537,-303 537,4 -4,4"/>
<!-- Node1 -->
<g id="node1" class="node">
<title>Node1</title>
<g id="a_node1"><a xlink:title=" ">
<polygon fill="#bfbfbf" stroke="black" points="182,-140 182,-159 331,-159 331,-140 182,-140"/>
<text text-anchor="middle" x="256.5" y="-147" font-family="Helvetica,sans-Serif" font-size="10.00">Iterateur_Source_VEF_base</text>
</a>
</g>
</g>
<!-- Node4 -->
<g id="node4" class="node">
<title>Node4</title>
<g id="a_node4"><a xlink:href="classIterateur__Source__VEF__FaceEval__Darcy__VEF__Face.html" target="_top" xlink:title=" ">
<polygon fill="white" stroke="black" points="375.5,-268.5 375.5,-298.5 524.5,-298.5 524.5,-268.5 375.5,-268.5"/>
<text text-anchor="start" x="383.5" y="-286.5" font-family="Helvetica,sans-Serif" font-size="10.00">Iterateur_Source_VEF</text>
<text text-anchor="middle" x="450" y="-275.5" font-family="Helvetica,sans-Serif" font-size="10.00">_FaceEval_Darcy_VEF_Face</text>
</a>
</g>
</g>
<!-- Node1&#45;&gt;Node4 -->
<g id="edge3" class="edge">
<title>Node1&#45;&gt;Node4</title>
<path fill="none" stroke="midnightblue" d="M270.28,-167.04C288.88,-191.33 325.74,-234.98 367,-259.5 372.74,-262.91 378.99,-265.86 385.4,-268.41"/>
<polygon fill="midnightblue" stroke="midnightblue" points="273.08,-164.93 264.28,-159.04 267.48,-169.14 273.08,-164.93"/>
</g>
<!-- Node5 -->
<g id="node5" class="node">
<title>Node5</title>
<g id="a_node5"><a xlink:href="classIterateur__Source__VEF__FaceEval__Dirac__VEF__Face.html" target="_top" xlink:title="class Terme_Source_Dirac_VEF_Face">
<polygon fill="white" stroke="black" points="377,-219.5 377,-249.5 523,-249.5 523,-219.5 377,-219.5"/>
<text text-anchor="start" x="385" y="-237.5" font-family="Helvetica,sans-Serif" font-size="10.00">Iterateur_Source_VEF</text>
<text text-anchor="middle" x="450" y="-226.5" font-family="Helvetica,sans-Serif" font-size="10.00">_FaceEval_Dirac_VEF_Face</text>
</a>
</g>
</g>
<!-- Node1&#45;&gt;Node5 -->
<g id="edge4" class="edge">
<title>Node1&#45;&gt;Node5</title>
<path fill="none" stroke="midnightblue" d="M281.15,-164.31C302.86,-177.46 336.23,-196.54 367,-209.5 375.5,-213.08 384.7,-216.39 393.75,-219.36"/>
<polygon fill="midnightblue" stroke="midnightblue" points="282.95,-161.32 272.6,-159.08 279.3,-167.29 282.95,-161.32"/>
</g>
<!-- Node6 -->
<g id="node6" class="node">
<title>Node6</title>
<g id="a_node6"><a xlink:href="classIterateur__Source__VEF__FaceEval__Forchheimer__VEF__Face.html" target="_top" xlink:title=" ">
<polygon fill="white" stroke="black" points="384.5,-159 384.5,-200 515.5,-200 515.5,-159 384.5,-159"/>
<text text-anchor="start" x="392.5" y="-188" font-family="Helvetica,sans-Serif" font-size="10.00">Iterateur_Source_VEF</text>
<text text-anchor="start" x="392.5" y="-177" font-family="Helvetica,sans-Serif" font-size="10.00">_FaceEval_Forchheimer</text>
<text text-anchor="middle" x="450" y="-166" font-family="Helvetica,sans-Serif" font-size="10.00">_VEF_Face</text>
</a>
</g>
</g>
<!-- Node1&#45;&gt;Node6 -->
<g id="edge5" class="edge">
<title>Node1&#45;&gt;Node6</title>
<path fill="none" stroke="midnightblue" d="M328.38,-160.6C346.71,-163.48 366.34,-166.55 384.33,-169.37"/>
<polygon fill="midnightblue" stroke="midnightblue" points="328.78,-157.12 318.35,-159.03 327.69,-164.04 328.78,-157.12"/>
</g>
<!-- Node7 -->
<g id="node7" class="node">
<title>Node7</title>
<g id="a_node7"><a xlink:href="classIterateur__Source__VEF__FaceEval__Puiss__Th__QC__VEF__Face.html" target="_top" xlink:title=" ">
<polygon fill="white" stroke="black" points="384,-99 384,-140 516,-140 516,-99 384,-99"/>
<text text-anchor="start" x="392" y="-128" font-family="Helvetica,sans-Serif" font-size="10.00">Iterateur_Source_VEF</text>
<text text-anchor="start" x="392" y="-117" font-family="Helvetica,sans-Serif" font-size="10.00">_FaceEval_Puiss_Th_QC</text>
<text text-anchor="middle" x="450" y="-106" font-family="Helvetica,sans-Serif" font-size="10.00">_VEF_Face</text>
</a>
</g>
</g>
<!-- Node1&#45;&gt;Node7 -->
<g id="edge6" class="edge">
<title>Node1&#45;&gt;Node7</title>
<path fill="none" stroke="midnightblue" d="M328.28,-138.41C346.41,-135.57 365.82,-132.53 383.67,-129.73"/>
<polygon fill="midnightblue" stroke="midnightblue" points="327.69,-134.96 318.35,-139.97 328.78,-141.88 327.69,-134.96"/>
</g>
<!-- Node8 -->
<g id="node8" class="node">
<title>Node8</title>
<g id="a_node8"><a xlink:href="classIterateur__Source__VEF__FaceEval__Puiss__Th__VEF__Face.html" target="_top" xlink:title=" ">
<polygon fill="white" stroke="black" points="368,-49.5 368,-79.5 532,-79.5 532,-49.5 368,-49.5"/>
<text text-anchor="start" x="376" y="-67.5" font-family="Helvetica,sans-Serif" font-size="10.00">Iterateur_Source_VEF</text>
<text text-anchor="middle" x="450" y="-56.5" font-family="Helvetica,sans-Serif" font-size="10.00">_FaceEval_Puiss_Th_VEF_Face</text>
</a>
</g>
</g>
<!-- Node1&#45;&gt;Node8 -->
<g id="edge7" class="edge">
<title>Node1&#45;&gt;Node8</title>
<path fill="none" stroke="midnightblue" d="M281.15,-134.69C302.86,-121.54 336.23,-102.46 367,-89.5 375.5,-85.92 384.7,-82.61 393.75,-79.64"/>
<polygon fill="midnightblue" stroke="midnightblue" points="279.3,-131.71 272.6,-139.92 282.95,-137.68 279.3,-131.71"/>
</g>
<!-- Node9 -->
<g id="node9" class="node">
<title>Node9</title>
<g id="a_node9"><a xlink:href="classIterateur__Source__VEF__FaceEval__Source__C__VEF__Face.html" target="_top" xlink:title=" ">
<polygon fill="white" stroke="black" points="367,-0.5 367,-30.5 533,-30.5 533,-0.5 367,-0.5"/>
<text text-anchor="start" x="375" y="-18.5" font-family="Helvetica,sans-Serif" font-size="10.00">Iterateur_Source_VEF</text>
<text text-anchor="middle" x="450" y="-7.5" font-family="Helvetica,sans-Serif" font-size="10.00">_FaceEval_Source_C_VEF_Face</text>
</a>
</g>
</g>
<!-- Node1&#45;&gt;Node9 -->
<g id="edge8" class="edge">
<title>Node1&#45;&gt;Node9</title>
<path fill="none" stroke="midnightblue" d="M270.28,-131.96C288.88,-107.67 325.74,-64.02 367,-39.5 372.74,-36.09 378.99,-33.14 385.4,-30.59"/>
<polygon fill="midnightblue" stroke="midnightblue" points="267.48,-129.86 264.28,-139.96 273.08,-134.07 267.48,-129.86"/>
</g>
<!-- Node2 -->
<g id="node2" class="node">
<title>Node2</title>
<g id="a_node2"><a xlink:href="classObjet__U.html" target="_top" xlink:title="classe Objet_U Cette classe est la classe de base des Objets de TRUST Dans les classes derivees de Ob...">
<polygon fill="white" stroke="black" points="90,-140 90,-159 146,-159 146,-140 90,-140"/>
<text text-anchor="middle" x="118" y="-147" font-family="Helvetica,sans-Serif" font-size="10.00">Objet_U</text>
</a>
</g>
</g>
<!-- Node2&#45;&gt;Node1 -->
<g id="edge1" class="edge">
<title>Node2&#45;&gt;Node1</title>
<path fill="none" stroke="midnightblue" d="M156.34,-149.5C164.33,-149.5 173.04,-149.5 181.87,-149.5"/>
<polygon fill="midnightblue" stroke="midnightblue" points="156.29,-146 146.29,-149.5 156.29,-153 156.29,-146"/>
</g>
<!-- Node3 -->
<g id="node3" class="node">
<title>Node3</title>
<g id="a_node3"><a xlink:href="classProcess.html" target="_top" xlink:title="Classe de base de TRUST (notamment Objet_U). Elle fournit quelques services de base accessibles de pa...">
<polygon fill="white" stroke="black" points="0,-140 0,-159 54,-159 54,-140 0,-140"/>
<text text-anchor="middle" x="27" y="-147" font-family="Helvetica,sans-Serif" font-size="10.00">Process</text>
</a>
</g>
</g>
<!-- Node3&#45;&gt;Node2 -->
<g id="edge2" class="edge">
<title>Node3&#45;&gt;Node2</title>
<path fill="none" stroke="midnightblue" d="M64.29,-149.5C72.79,-149.5 81.7,-149.5 89.73,-149.5"/>
<polygon fill="midnightblue" stroke="midnightblue" points="64.22,-146 54.22,-149.5 64.22,-153 64.22,-146"/>
</g>
</g>
</svg>
