<?xml version="1.0" encoding="UTF-8" standalone="no"?>
<!DOCTYPE svg PUBLIC "-//W3C//DTD SVG 1.1//EN"
 "http://www.w3.org/Graphics/SVG/1.1/DTD/svg11.dtd">
<!-- Generated by graphviz version 2.43.0 (0)
 -->
<!-- Title: Schema_Implicite_Multi_TimeStep_base Pages: 1 -->
<svg width="1119pt" height="186pt"
 viewBox="0.00 0.00 1119.00 186.00" xmlns="http://www.w3.org/2000/svg" xmlns:xlink="http://www.w3.org/1999/xlink">
<g id="graph0" class="graph" transform="scale(1 1) rotate(0) translate(4 182)">
<title>Schema_Implicite_Multi_TimeStep_base</title>
<polygon fill="white" stroke="transparent" points="-4,4 -4,-182 1115,-182 1115,4 -4,4"/>
<!-- Node1 -->
<g id="node1" class="node">
<title>Node1</title>
<g id="a_node1"><a xlink:title=" ">
<polygon fill="#bfbfbf" stroke="black" points="507,-73.5 507,-103.5 641,-103.5 641,-73.5 507,-73.5"/>
<text text-anchor="start" x="515" y="-91.5" font-family="Helvetica,sans-Serif" font-size="10.00">Schema_Implicite_Multi</text>
<text text-anchor="middle" x="574" y="-80.5" font-family="Helvetica,sans-Serif" font-size="10.00">_TimeStep_base</text>
</a>
</g>
</g>
<!-- Node6 -->
<g id="node6" class="node">
<title>Node6</title>
<g id="a_node6"><a xlink:href="classSchema__Adams__Moulton__base.html" target="_top" xlink:title=" ">
<polygon fill="white" stroke="black" points="699.5,-104 699.5,-123 867.5,-123 867.5,-104 699.5,-104"/>
<text text-anchor="middle" x="783.5" y="-111" font-family="Helvetica,sans-Serif" font-size="10.00">Schema_Adams_Moulton_base</text>
</a>
</g>
</g>
<!-- Node1&#45;&gt;Node6 -->
<g id="edge5" class="edge">
<title>Node1&#45;&gt;Node6</title>
<path fill="none" stroke="midnightblue" d="M651.61,-97.73C668.53,-99.77 686.48,-101.93 703.49,-103.98"/>
<polygon fill="midnightblue" stroke="midnightblue" points="651.57,-94.2 641.22,-96.48 650.73,-101.15 651.57,-94.2"/>
</g>
<!-- Node9 -->
<g id="node9" class="node">
<title>Node9</title>
<g id="a_node9"><a xlink:href="classSchema__Backward__Differentiation__base.html" target="_top" xlink:title="classe Schema_Backward_Differentiation_base">
<polygon fill="white" stroke="black" points="677,-55 677,-74 890,-74 890,-55 677,-55"/>
<text text-anchor="middle" x="783.5" y="-62" font-family="Helvetica,sans-Serif" font-size="10.00">Schema_Backward_Differentiation_base</text>
</a>
</g>
</g>
<!-- Node1&#45;&gt;Node9 -->
<g id="edge8" class="edge">
<title>Node1&#45;&gt;Node9</title>
<path fill="none" stroke="midnightblue" d="M651.49,-79.65C667.34,-77.82 684.11,-75.88 700.16,-74.02"/>
<polygon fill="midnightblue" stroke="midnightblue" points="650.76,-76.21 641.22,-80.84 651.56,-83.17 650.76,-76.21"/>
</g>
<!-- Node2 -->
<g id="node2" class="node">
<title>Node2</title>
<g id="a_node2"><a xlink:href="classSchema__Implicite__base.html" target="_top" xlink:title="class Schema_Implicite_base Classe de base pour tous les schemas en temps implicite Il porte un objet...">
<polygon fill="white" stroke="black" points="339,-79 339,-98 471,-98 471,-79 339,-79"/>
<text text-anchor="middle" x="405" y="-86" font-family="Helvetica,sans-Serif" font-size="10.00">Schema_Implicite_base</text>
</a>
</g>
</g>
<!-- Node2&#45;&gt;Node1 -->
<g id="edge1" class="edge">
<title>Node2&#45;&gt;Node1</title>
<path fill="none" stroke="midnightblue" d="M481.31,-88.5C489.8,-88.5 498.4,-88.5 506.76,-88.5"/>
<polygon fill="midnightblue" stroke="midnightblue" points="481.04,-85 471.04,-88.5 481.04,-92 481.04,-85"/>
</g>
<!-- Node3 -->
<g id="node3" class="node">
<title>Node3</title>
<g id="a_node3"><a xlink:href="classSchema__Temps__base.html" target="_top" xlink:title="classe Schema_Temps_base">
<polygon fill="white" stroke="black" points="182,-79 182,-98 303,-98 303,-79 182,-79"/>
<text text-anchor="middle" x="242.5" y="-86" font-family="Helvetica,sans-Serif" font-size="10.00">Schema_Temps_base</text>
</a>
</g>
</g>
<!-- Node3&#45;&gt;Node2 -->
<g id="edge2" class="edge">
<title>Node3&#45;&gt;Node2</title>
<path fill="none" stroke="midnightblue" d="M313.44,-88.5C321.86,-88.5 330.44,-88.5 338.8,-88.5"/>
<polygon fill="midnightblue" stroke="midnightblue" points="313.26,-85 303.26,-88.5 313.26,-92 313.26,-85"/>
</g>
<!-- Node4 -->
<g id="node4" class="node">
<title>Node4</title>
<g id="a_node4"><a xlink:href="classObjet__U.html" target="_top" xlink:title="classe Objet_U Cette classe est la classe de base des Objets de TRUST Dans les classes derivees de Ob...">
<polygon fill="white" stroke="black" points="90,-79 90,-98 146,-98 146,-79 90,-79"/>
<text text-anchor="middle" x="118" y="-86" font-family="Helvetica,sans-Serif" font-size="10.00">Objet_U</text>
</a>
</g>
</g>
<!-- Node4&#45;&gt;Node3 -->
<g id="edge3" class="edge">
<title>Node4&#45;&gt;Node3</title>
<path fill="none" stroke="midnightblue" d="M156.35,-88.5C164.4,-88.5 173.12,-88.5 181.79,-88.5"/>
<polygon fill="midnightblue" stroke="midnightblue" points="156.19,-85 146.19,-88.5 156.19,-92 156.19,-85"/>
</g>
<!-- Node5 -->
<g id="node5" class="node">
<title>Node5</title>
<g id="a_node5"><a xlink:href="classProcess.html" target="_top" xlink:title="Classe de base de TRUST (notamment Objet_U). Elle fournit quelques services de base accessibles de pa...">
<polygon fill="white" stroke="black" points="0,-79 0,-98 54,-98 54,-79 0,-79"/>
<text text-anchor="middle" x="27" y="-86" font-family="Helvetica,sans-Serif" font-size="10.00">Process</text>
</a>
</g>
</g>
<!-- Node5&#45;&gt;Node4 -->
<g id="edge4" class="edge">
<title>Node5&#45;&gt;Node4</title>
<path fill="none" stroke="midnightblue" d="M64.29,-88.5C72.79,-88.5 81.7,-88.5 89.73,-88.5"/>
<polygon fill="midnightblue" stroke="midnightblue" points="64.22,-85 54.22,-88.5 64.22,-92 64.22,-85"/>
</g>
<!-- Node7 -->
<g id="node7" class="node">
<title>Node7</title>
<g id="a_node7"><a xlink:href="classSchema__Adams__Moulton__order__2.html" target="_top" xlink:title=" ">
<polygon fill="white" stroke="black" points="948.5,-147.5 948.5,-177.5 1088.5,-177.5 1088.5,-147.5 948.5,-147.5"/>
<text text-anchor="start" x="956.5" y="-165.5" font-family="Helvetica,sans-Serif" font-size="10.00">Schema_Adams_Moulton</text>
<text text-anchor="middle" x="1018.5" y="-154.5" font-family="Helvetica,sans-Serif" font-size="10.00">_order_2</text>
</a>
</g>
</g>
<!-- Node6&#45;&gt;Node7 -->
<g id="edge6" class="edge">
<title>Node6&#45;&gt;Node7</title>
<path fill="none" stroke="midnightblue" d="M839.9,-125.15C872.32,-131.97 913.54,-140.64 948.11,-147.91"/>
<polygon fill="midnightblue" stroke="midnightblue" points="840.21,-121.64 829.7,-123.01 838.77,-128.49 840.21,-121.64"/>
</g>
<!-- Node8 -->
<g id="node8" class="node">
<title>Node8</title>
<g id="a_node8"><a xlink:href="classSchema__Adams__Moulton__order__3.html" target="_top" xlink:title=" ">
<polygon fill="white" stroke="black" points="948.5,-98.5 948.5,-128.5 1088.5,-128.5 1088.5,-98.5 948.5,-98.5"/>
<text text-anchor="start" x="956.5" y="-116.5" font-family="Helvetica,sans-Serif" font-size="10.00">Schema_Adams_Moulton</text>
<text text-anchor="middle" x="1018.5" y="-105.5" font-family="Helvetica,sans-Serif" font-size="10.00">_order_3</text>
</a>
</g>
</g>
<!-- Node6&#45;&gt;Node8 -->
<g id="edge7" class="edge">
<title>Node6&#45;&gt;Node8</title>
<path fill="none" stroke="midnightblue" d="M877.64,-113.5C901.2,-113.5 926.09,-113.5 948.24,-113.5"/>
<polygon fill="midnightblue" stroke="midnightblue" points="877.63,-110 867.63,-113.5 877.63,-117 877.63,-110"/>
</g>
<!-- Node10 -->
<g id="node10" class="node">
<title>Node10</title>
<g id="a_node10"><a xlink:href="classSchema__Backward__Differentiation__order__2.html" target="_top" xlink:title="classe Schema_Backward_Differentiation_order_2 Cette classe represente un schema de differentiation r...">
<polygon fill="white" stroke="black" points="926,-49.5 926,-79.5 1111,-79.5 1111,-49.5 926,-49.5"/>
<text text-anchor="start" x="934" y="-67.5" font-family="Helvetica,sans-Serif" font-size="10.00">Schema_Backward_Differentiation</text>
<text text-anchor="middle" x="1018.5" y="-56.5" font-family="Helvetica,sans-Serif" font-size="10.00">_order_2</text>
</a>
</g>
</g>
<!-- Node9&#45;&gt;Node10 -->
<g id="edge9" class="edge">
<title>Node9&#45;&gt;Node10</title>
<path fill="none" stroke="midnightblue" d="M900.18,-64.5C908.78,-64.5 917.38,-64.5 925.81,-64.5"/>
<polygon fill="midnightblue" stroke="midnightblue" points="900.09,-61 890.09,-64.5 900.09,-68 900.09,-61"/>
</g>
<!-- Node11 -->
<g id="node11" class="node">
<title>Node11</title>
<g id="a_node11"><a xlink:href="classSchema__Backward__Differentiation__order__3.html" target="_top" xlink:title="classe Schema_Backward_Differentiation_order_3 Cette classe represente un schema de differentiation r...">
<polygon fill="white" stroke="black" points="926,-0.5 926,-30.5 1111,-30.5 1111,-0.5 926,-0.5"/>
<text text-anchor="start" x="934" y="-18.5" font-family="Helvetica,sans-Serif" font-size="10.00">Schema_Backward_Differentiation</text>
<text text-anchor="middle" x="1018.5" y="-7.5" font-family="Helvetica,sans-Serif" font-size="10.00">_order_3</text>
</a>
</g>
</g>
<!-- Node9&#45;&gt;Node11 -->
<g id="edge10" class="edge">
<title>Node9&#45;&gt;Node11</title>
<path fill="none" stroke="midnightblue" d="M839.69,-52.89C871.43,-46.22 911.67,-37.76 945.83,-30.57"/>
<polygon fill="midnightblue" stroke="midnightblue" points="838.77,-49.51 829.7,-54.99 840.21,-56.36 838.77,-49.51"/>
</g>
</g>
</svg>
