<?xml version="1.0" encoding="UTF-8" standalone="no"?>
<!DOCTYPE svg PUBLIC "-//W3C//DTD SVG 1.1//EN"
 "http://www.w3.org/Graphics/SVG/1.1/DTD/svg11.dtd">
<!-- Generated by graphviz version 2.43.0 (0)
 -->
<!-- Title: Terme_Puissance_Thermique_VDF_base Pages: 1 -->
<svg width="943pt" height="129pt"
 viewBox="0.00 0.00 943.00 129.00" xmlns="http://www.w3.org/2000/svg" xmlns:xlink="http://www.w3.org/1999/xlink">
<g id="graph0" class="graph" transform="scale(1 1) rotate(0) translate(4 125)">
<title>Terme_Puissance_Thermique_VDF_base</title>
<polygon fill="white" stroke="transparent" points="-4,4 -4,-125 939,-125 939,4 -4,4"/>
<!-- Node1 -->
<g id="node1" class="node">
<title>Node1</title>
<g id="a_node1"><a xlink:title=" ">
<polygon fill="#bfbfbf" stroke="black" points="583,-52 583,-82 741,-82 741,-52 583,-52"/>
<text text-anchor="start" x="591" y="-70" font-family="Helvetica,sans-Serif" font-size="10.00">Terme_Puissance_Thermique</text>
<text text-anchor="middle" x="662" y="-59" font-family="Helvetica,sans-Serif" font-size="10.00">_VDF_base</text>
</a>
</g>
</g>
<!-- Node9 -->
<g id="node9" class="node">
<title>Node9</title>
<g id="a_node9"><a xlink:href="classSource__Dirac__VDF__Elem.html" target="_top" xlink:title="class Source_Dirac_VDF_Elem Cette classe represente un terme source de Dirac.">
<polygon fill="white" stroke="black" points="788,-101.5 788,-120.5 924,-120.5 924,-101.5 788,-101.5"/>
<text text-anchor="middle" x="856" y="-108.5" font-family="Helvetica,sans-Serif" font-size="10.00">Source_Dirac_VDF_Elem</text>
</a>
</g>
</g>
<!-- Node1&#45;&gt;Node9 -->
<g id="edge8" class="edge">
<title>Node1&#45;&gt;Node9</title>
<path fill="none" stroke="midnightblue" d="M738.57,-84.32C764.08,-90.16 791.61,-96.47 813.49,-101.49"/>
<polygon fill="midnightblue" stroke="midnightblue" points="739.07,-80.84 728.54,-82.02 737.5,-87.66 739.07,-80.84"/>
</g>
<!-- Node10 -->
<g id="node10" class="node">
<title>Node10</title>
<g id="a_node10"><a xlink:href="classTerme__Puissance__Thermique__QC__VDF__Elem.html" target="_top" xlink:title="class Terme_Puissance_Thermique_QC_VDF_Elem Cette classe represente un terme source de l&#39;equation de ...">
<polygon fill="white" stroke="black" points="777,-52 777,-82 935,-82 935,-52 777,-52"/>
<text text-anchor="start" x="785" y="-70" font-family="Helvetica,sans-Serif" font-size="10.00">Terme_Puissance_Thermique</text>
<text text-anchor="middle" x="856" y="-59" font-family="Helvetica,sans-Serif" font-size="10.00">_QC_VDF_Elem</text>
</a>
</g>
</g>
<!-- Node1&#45;&gt;Node10 -->
<g id="edge9" class="edge">
<title>Node1&#45;&gt;Node10</title>
<path fill="none" stroke="midnightblue" d="M751.15,-67C759.77,-67 768.47,-67 776.98,-67"/>
<polygon fill="midnightblue" stroke="midnightblue" points="751.09,-63.5 741.09,-67 751.09,-70.5 751.09,-63.5"/>
</g>
<!-- Node11 -->
<g id="node11" class="node">
<title>Node11</title>
<g id="a_node11"><a xlink:href="classTerme__Puissance__Thermique__VDF__Elem.html" target="_top" xlink:title="class Terme_Puissance_Thermique_VDF_Elem Cette classe represente un terme source de l&#39;equation de la ...">
<polygon fill="white" stroke="black" points="777,-3 777,-33 935,-33 935,-3 777,-3"/>
<text text-anchor="start" x="785" y="-21" font-family="Helvetica,sans-Serif" font-size="10.00">Terme_Puissance_Thermique</text>
<text text-anchor="middle" x="856" y="-10" font-family="Helvetica,sans-Serif" font-size="10.00">_VDF_Elem</text>
</a>
</g>
</g>
<!-- Node1&#45;&gt;Node11 -->
<g id="edge10" class="edge">
<title>Node1&#45;&gt;Node11</title>
<path fill="none" stroke="midnightblue" d="M731.77,-49.45C752.85,-44.07 775.85,-38.2 796.2,-33.01"/>
<polygon fill="midnightblue" stroke="midnightblue" points="730.74,-46.1 721.91,-51.97 732.47,-52.88 730.74,-46.1"/>
</g>
<!-- Node2 -->
<g id="node2" class="node">
<title>Node2</title>
<g id="a_node2"><a xlink:href="classTerme__Puissance__Thermique.html" target="_top" xlink:title="Classe Terme_Puissance_Thermique Cette classe represente un terme source de l&#39;equation de la thermiqu...">
<polygon fill="white" stroke="black" points="389,-76.5 389,-95.5 547,-95.5 547,-76.5 389,-76.5"/>
<text text-anchor="middle" x="468" y="-83.5" font-family="Helvetica,sans-Serif" font-size="10.00">Terme_Puissance_Thermique</text>
</a>
</g>
</g>
<!-- Node2&#45;&gt;Node1 -->
<g id="edge1" class="edge">
<title>Node2&#45;&gt;Node1</title>
<path fill="none" stroke="midnightblue" d="M557.15,-77.28C565.77,-76.42 574.47,-75.56 582.98,-74.72"/>
<polygon fill="midnightblue" stroke="midnightblue" points="556.7,-73.8 547.09,-78.27 557.39,-80.77 556.7,-73.8"/>
</g>
<!-- Node3 -->
<g id="node3" class="node">
<title>Node3</title>
<g id="a_node3"><a xlink:href="classTerme__Source__VDF__base.html" target="_top" xlink:title=" ">
<polygon fill="white" stroke="black" points="398.5,-38.5 398.5,-57.5 537.5,-57.5 537.5,-38.5 398.5,-38.5"/>
<text text-anchor="middle" x="468" y="-45.5" font-family="Helvetica,sans-Serif" font-size="10.00">Terme_Source_VDF_base</text>
</a>
</g>
</g>
<!-- Node3&#45;&gt;Node1 -->
<g id="edge2" class="edge">
<title>Node3&#45;&gt;Node1</title>
<path fill="none" stroke="midnightblue" d="M547.58,-55.78C559.18,-56.92 571.12,-58.11 582.71,-59.25"/>
<polygon fill="midnightblue" stroke="midnightblue" points="547.8,-52.28 537.5,-54.78 547.11,-59.25 547.8,-52.28"/>
</g>
<!-- Node4 -->
<g id="node4" class="node">
<title>Node4</title>
<g id="a_node4"><a xlink:href="classSource__base.html" target="_top" xlink:title="classe Source_base Un objet Source_base est un terme apparaissant au second membre d&#39;une equation....">
<polygon fill="white" stroke="black" points="275,-38.5 275,-57.5 353,-57.5 353,-38.5 275,-38.5"/>
<text text-anchor="middle" x="314" y="-45.5" font-family="Helvetica,sans-Serif" font-size="10.00">Source_base</text>
</a>
</g>
</g>
<!-- Node4&#45;&gt;Node3 -->
<g id="edge3" class="edge">
<title>Node4&#45;&gt;Node3</title>
<path fill="none" stroke="midnightblue" d="M363.67,-48C374.76,-48 386.74,-48 398.48,-48"/>
<polygon fill="midnightblue" stroke="midnightblue" points="363.36,-44.5 353.36,-48 363.36,-51.5 363.36,-44.5"/>
</g>
<!-- Node5 -->
<g id="node5" class="node">
<title>Node5</title>
<g id="a_node5"><a xlink:href="classChamps__compris__interface.html" target="_top" xlink:title="classe Champs_compris_interface Cette classe contient une interface de methodes destinees a gerer les...">
<polygon fill="white" stroke="black" points="90,-76.5 90,-95.5 239,-95.5 239,-76.5 90,-76.5"/>
<text text-anchor="middle" x="164.5" y="-83.5" font-family="Helvetica,sans-Serif" font-size="10.00">Champs_compris_interface</text>
</a>
</g>
</g>
<!-- Node5&#45;&gt;Node4 -->
<g id="edge4" class="edge">
<title>Node5&#45;&gt;Node4</title>
<path fill="none" stroke="midnightblue" d="M212.51,-73.89C233.06,-68.6 256.8,-62.48 276.05,-57.52"/>
<polygon fill="midnightblue" stroke="midnightblue" points="211.53,-70.53 202.72,-76.41 213.28,-77.31 211.53,-70.53"/>
</g>
<!-- Node6 -->
<g id="node6" class="node">
<title>Node6</title>
<g id="a_node6"><a xlink:href="classMorEqn.html" target="_top" xlink:title="classe MorEqn Classe qui regroupe les fonctionnalites de liaison avec une Equation....">
<polygon fill="white" stroke="black" points="138,-38.5 138,-57.5 191,-57.5 191,-38.5 138,-38.5"/>
<text text-anchor="middle" x="164.5" y="-45.5" font-family="Helvetica,sans-Serif" font-size="10.00">MorEqn</text>
</a>
</g>
</g>
<!-- Node6&#45;&gt;Node4 -->
<g id="edge5" class="edge">
<title>Node6&#45;&gt;Node4</title>
<path fill="none" stroke="midnightblue" d="M201.25,-48C223.52,-48 252.16,-48 274.87,-48"/>
<polygon fill="midnightblue" stroke="midnightblue" points="201.19,-44.5 191.19,-48 201.19,-51.5 201.19,-44.5"/>
</g>
<!-- Node7 -->
<g id="node7" class="node">
<title>Node7</title>
<g id="a_node7"><a xlink:href="classObjet__U.html" target="_top" xlink:title="classe Objet_U Cette classe est la classe de base des Objets de TRUST Dans les classes derivees de Ob...">
<polygon fill="white" stroke="black" points="136.5,-0.5 136.5,-19.5 192.5,-19.5 192.5,-0.5 136.5,-0.5"/>
<text text-anchor="middle" x="164.5" y="-7.5" font-family="Helvetica,sans-Serif" font-size="10.00">Objet_U</text>
</a>
</g>
</g>
<!-- Node7&#45;&gt;Node4 -->
<g id="edge6" class="edge">
<title>Node7&#45;&gt;Node4</title>
<path fill="none" stroke="midnightblue" d="M202.42,-19.51C224.94,-25.31 253.61,-32.7 276.12,-38.5"/>
<polygon fill="midnightblue" stroke="midnightblue" points="203.11,-16.08 192.55,-16.97 201.36,-22.85 203.11,-16.08"/>
</g>
<!-- Node8 -->
<g id="node8" class="node">
<title>Node8</title>
<g id="a_node8"><a xlink:href="classProcess.html" target="_top" xlink:title="Classe de base de TRUST (notamment Objet_U). Elle fournit quelques services de base accessibles de pa...">
<polygon fill="white" stroke="black" points="0,-0.5 0,-19.5 54,-19.5 54,-0.5 0,-0.5"/>
<text text-anchor="middle" x="27" y="-7.5" font-family="Helvetica,sans-Serif" font-size="10.00">Process</text>
</a>
</g>
</g>
<!-- Node8&#45;&gt;Node7 -->
<g id="edge7" class="edge">
<title>Node8&#45;&gt;Node7</title>
<path fill="none" stroke="midnightblue" d="M64.34,-10C86.89,-10 115.4,-10 136.06,-10"/>
<polygon fill="midnightblue" stroke="midnightblue" points="64.13,-6.5 54.13,-10 64.13,-13.5 64.13,-6.5"/>
</g>
</g>
</svg>
