<?xml version="1.0" encoding="UTF-8" standalone="no"?>
<!DOCTYPE svg PUBLIC "-//W3C//DTD SVG 1.1//EN"
 "http://www.w3.org/Graphics/SVG/1.1/DTD/svg11.dtd">
<!-- Generated by graphviz version 2.43.0 (0)
 -->
<!-- Title: EcrFicCollecteBin Pages: 1 -->
<svg width="128pt" height="308pt"
 viewBox="0.00 0.00 127.50 308.00" xmlns="http://www.w3.org/2000/svg" xmlns:xlink="http://www.w3.org/1999/xlink">
<g id="graph0" class="graph" transform="scale(1 1) rotate(0) translate(4 304)">
<title>EcrFicCollecteBin</title>
<polygon fill="white" stroke="transparent" points="-4,4 -4,-304 123.5,-304 123.5,4 -4,4"/>
<!-- Node1 -->
<g id="node1" class="node">
<title>Node1</title>
<g id="a_node1"><a xlink:title="Ecriture dans un fichier au format binaire Cette classe implemente les operateurs et les methodes vir...">
<polygon fill="#bfbfbf" stroke="black" points="6,-0.5 6,-19.5 107,-19.5 107,-0.5 6,-0.5"/>
<text text-anchor="middle" x="56.5" y="-7.5" font-family="Helvetica,sans-Serif" font-size="10.00">EcrFicCollecteBin</text>
</a>
</g>
</g>
<!-- Node2 -->
<g id="node2" class="node">
<title>Node2</title>
<g id="a_node2"><a xlink:href="classEcrFicCollecte.html" target="_top" xlink:title="Ecriture dans un fichier Cette classe implemente les operateurs et les methodes virtuelles de la clas...">
<polygon fill="white" stroke="black" points="14,-56.5 14,-75.5 99,-75.5 99,-56.5 14,-56.5"/>
<text text-anchor="middle" x="56.5" y="-63.5" font-family="Helvetica,sans-Serif" font-size="10.00">EcrFicCollecte</text>
</a>
</g>
</g>
<!-- Node2&#45;&gt;Node1 -->
<g id="edge1" class="edge">
<title>Node2&#45;&gt;Node1</title>
<path fill="none" stroke="midnightblue" d="M56.5,-45.8C56.5,-36.91 56.5,-26.78 56.5,-19.75"/>
<polygon fill="midnightblue" stroke="midnightblue" points="53,-46.08 56.5,-56.08 60,-46.08 53,-46.08"/>
</g>
<!-- Node3 -->
<g id="node3" class="node">
<title>Node3</title>
<g id="a_node3"><a xlink:href="classSFichier.html" target="_top" xlink:title="Cette classe est a la classe C++ ofstream ce que la classe Sortie est a la classe C++ ostream Elle re...">
<polygon fill="white" stroke="black" points="29,-112.5 29,-131.5 84,-131.5 84,-112.5 29,-112.5"/>
<text text-anchor="middle" x="56.5" y="-119.5" font-family="Helvetica,sans-Serif" font-size="10.00">SFichier</text>
</a>
</g>
</g>
<!-- Node3&#45;&gt;Node2 -->
<g id="edge2" class="edge">
<title>Node3&#45;&gt;Node2</title>
<path fill="none" stroke="midnightblue" d="M56.5,-101.8C56.5,-92.91 56.5,-82.78 56.5,-75.75"/>
<polygon fill="midnightblue" stroke="midnightblue" points="53,-102.08 56.5,-112.08 60,-102.08 53,-102.08"/>
</g>
<!-- Node4 -->
<g id="node4" class="node">
<title>Node4</title>
<g id="a_node4"><a xlink:href="classSortie__Fichier__base.html" target="_top" xlink:title=" ">
<polygon fill="white" stroke="black" points="1,-168.5 1,-187.5 112,-187.5 112,-168.5 1,-168.5"/>
<text text-anchor="middle" x="56.5" y="-175.5" font-family="Helvetica,sans-Serif" font-size="10.00">Sortie_Fichier_base</text>
</a>
</g>
</g>
<!-- Node4&#45;&gt;Node3 -->
<g id="edge3" class="edge">
<title>Node4&#45;&gt;Node3</title>
<path fill="none" stroke="midnightblue" d="M56.5,-157.8C56.5,-148.91 56.5,-138.78 56.5,-131.75"/>
<polygon fill="midnightblue" stroke="midnightblue" points="53,-158.08 56.5,-168.08 60,-158.08 53,-158.08"/>
</g>
<!-- Node5 -->
<g id="node5" class="node">
<title>Node5</title>
<g id="a_node5"><a xlink:href="classSortie.html" target="_top" xlink:title="Classe de base des flux de sortie. Elle sait ecrire des types simples&lt;br&gt;(entiers,...">
<polygon fill="white" stroke="black" points="0,-224.5 0,-243.5 45,-243.5 45,-224.5 0,-224.5"/>
<text text-anchor="middle" x="22.5" y="-231.5" font-family="Helvetica,sans-Serif" font-size="10.00">Sortie</text>
</a>
</g>
</g>
<!-- Node5&#45;&gt;Node4 -->
<g id="edge4" class="edge">
<title>Node5&#45;&gt;Node4</title>
<path fill="none" stroke="midnightblue" d="M33.48,-215.57C39.33,-206.27 46.27,-195.25 50.99,-187.75"/>
<polygon fill="midnightblue" stroke="midnightblue" points="30.48,-213.76 28.11,-224.08 36.4,-217.49 30.48,-213.76"/>
</g>
<!-- Node6 -->
<g id="node6" class="node">
<title>Node6</title>
<g id="a_node6"><a xlink:href="classObjet__U.html" target="_top" xlink:title="classe Objet_U Cette classe est la classe de base des Objets de TRUST Dans les classes derivees de Ob...">
<polygon fill="white" stroke="black" points="63.5,-224.5 63.5,-243.5 119.5,-243.5 119.5,-224.5 63.5,-224.5"/>
<text text-anchor="middle" x="91.5" y="-231.5" font-family="Helvetica,sans-Serif" font-size="10.00">Objet_U</text>
</a>
</g>
</g>
<!-- Node6&#45;&gt;Node4 -->
<g id="edge5" class="edge">
<title>Node6&#45;&gt;Node4</title>
<path fill="none" stroke="midnightblue" d="M80.2,-215.57C74.18,-206.27 67.03,-195.25 62.17,-187.75"/>
<polygon fill="midnightblue" stroke="midnightblue" points="77.34,-217.6 85.72,-224.08 83.22,-213.79 77.34,-217.6"/>
</g>
<!-- Node7 -->
<g id="node7" class="node">
<title>Node7</title>
<g id="a_node7"><a xlink:href="classProcess.html" target="_top" xlink:title="Classe de base de TRUST (notamment Objet_U). Elle fournit quelques services de base accessibles de pa...">
<polygon fill="white" stroke="black" points="64.5,-280.5 64.5,-299.5 118.5,-299.5 118.5,-280.5 64.5,-280.5"/>
<text text-anchor="middle" x="91.5" y="-287.5" font-family="Helvetica,sans-Serif" font-size="10.00">Process</text>
</a>
</g>
</g>
<!-- Node7&#45;&gt;Node6 -->
<g id="edge6" class="edge">
<title>Node7&#45;&gt;Node6</title>
<path fill="none" stroke="midnightblue" d="M91.5,-269.8C91.5,-260.91 91.5,-250.78 91.5,-243.75"/>
<polygon fill="midnightblue" stroke="midnightblue" points="88,-270.08 91.5,-280.08 95,-270.08 88,-270.08"/>
</g>
</g>
</svg>
