<?xml version="1.0" encoding="UTF-8" standalone="no"?>
<!DOCTYPE svg PUBLIC "-//W3C//DTD SVG 1.1//EN"
 "http://www.w3.org/Graphics/SVG/1.1/DTD/svg11.dtd">
<!-- Generated by graphviz version 2.43.0 (0)
 -->
<!-- Title: Eval_VDF_Face Pages: 1 -->
<svg width="776pt" height="655pt"
 viewBox="0.00 0.00 776.00 654.85" xmlns="http://www.w3.org/2000/svg" xmlns:xlink="http://www.w3.org/1999/xlink">
<g id="graph0" class="graph" transform="scale(1 1) rotate(0) translate(4 650.85)">
<title>Eval_VDF_Face</title>
<polygon fill="white" stroke="transparent" points="-4,4 -4,-650.85 772,-650.85 772,4 -4,4"/>
<!-- Node1 -->
<g id="node1" class="node">
<title>Node1</title>
<g id="a_node1"><a xlink:title="&lt; For SFINAE later ...">
<polygon fill="#bfbfbf" stroke="black" points="0,-318.5 0,-337.5 90,-337.5 90,-318.5 0,-318.5"/>
<text text-anchor="middle" x="45" y="-325.5" font-family="Helvetica,sans-Serif" font-size="10.00">Eval_VDF_Face</text>
</a>
</g>
</g>
<!-- Node2 -->
<g id="node2" class="node">
<title>Node2</title>
<g id="a_node2"><a xlink:href="classEval__Conv__VDF__Face.html" target="_top" xlink:title=" ">
<polygon fill="white" stroke="black" points="428.5,-616 428.5,-646 578.5,-646 578.5,-616 428.5,-616"/>
<text text-anchor="start" x="436.5" y="-634" font-family="Helvetica,sans-Serif" font-size="10.00">Eval_Conv_VDF_Face</text>
<text text-anchor="middle" x="503.5" y="-623" font-family="Helvetica,sans-Serif" font-size="10.00">&lt; Eval_Amont_VDF_Face &gt;</text>
</a>
</g>
</g>
<!-- Node1&#45;&gt;Node2 -->
<g id="edge1" class="edge">
<title>Node1&#45;&gt;Node2</title>
<path fill="none" stroke="midnightblue" d="M46.77,-347.63C49.62,-393.55 63.12,-508.97 127,-573 205.5,-651.69 343.34,-651.92 428.4,-642.88"/>
<polygon fill="midnightblue" stroke="midnightblue" points="50.25,-347.33 46.24,-337.52 43.26,-347.69 50.25,-347.33"/>
</g>
<!-- Node4 -->
<g id="node4" class="node">
<title>Node4</title>
<g id="a_node4"><a xlink:href="classEval__Conv__VDF__Face.html" target="_top" xlink:title=" ">
<polygon fill="white" stroke="black" points="425.5,-537 425.5,-567 581.5,-567 581.5,-537 425.5,-537"/>
<text text-anchor="start" x="433.5" y="-555" font-family="Helvetica,sans-Serif" font-size="10.00">Eval_Conv_VDF_Face</text>
<text text-anchor="middle" x="503.5" y="-544" font-family="Helvetica,sans-Serif" font-size="10.00">&lt; Eval_Centre4_VDF_Face &gt;</text>
</a>
</g>
</g>
<!-- Node1&#45;&gt;Node4 -->
<g id="edge3" class="edge">
<title>Node1&#45;&gt;Node4</title>
<path fill="none" stroke="midnightblue" d="M49.59,-347.63C57.45,-385.77 79.42,-470.79 127,-524 173.68,-576.19 197.19,-582.56 265,-600 323.97,-615.16 342.62,-613.45 402,-600 429.91,-593.68 459.14,-578.62 478.83,-567.04"/>
<polygon fill="midnightblue" stroke="midnightblue" points="53.02,-346.93 47.66,-337.78 46.15,-348.27 53.02,-346.93"/>
</g>
<!-- Node6 -->
<g id="node6" class="node">
<title>Node6</title>
<g id="a_node6"><a xlink:href="classEval__Conv__VDF__Face.html" target="_top" xlink:title=" ">
<polygon fill="white" stroke="black" points="428.5,-484 428.5,-514 578.5,-514 578.5,-484 428.5,-484"/>
<text text-anchor="start" x="436.5" y="-502" font-family="Helvetica,sans-Serif" font-size="10.00">Eval_Conv_VDF_Face</text>
<text text-anchor="middle" x="503.5" y="-491" font-family="Helvetica,sans-Serif" font-size="10.00">&lt; Eval_Centre_VDF_Face &gt;</text>
</a>
</g>
</g>
<!-- Node1&#45;&gt;Node6 -->
<g id="edge5" class="edge">
<title>Node1&#45;&gt;Node6</title>
<path fill="none" stroke="midnightblue" d="M70.81,-342.89C86.57,-351.98 107.59,-363.47 127,-372 187.6,-398.62 201.64,-408.85 265,-428 324.49,-445.98 344.17,-433.23 402,-456 410.72,-459.43 411.6,-462.84 420,-467 432.53,-473.2 446.58,-479.03 459.48,-483.98"/>
<polygon fill="midnightblue" stroke="midnightblue" points="72.14,-339.61 61.74,-337.58 68.6,-345.65 72.14,-339.61"/>
</g>
<!-- Node8 -->
<g id="node8" class="node">
<title>Node8</title>
<g id="a_node8"><a xlink:href="classEval__Conv__VDF__Face.html" target="_top" xlink:title=" ">
<polygon fill="white" stroke="black" points="430.5,-427 430.5,-457 576.5,-457 576.5,-427 430.5,-427"/>
<text text-anchor="start" x="438.5" y="-445" font-family="Helvetica,sans-Serif" font-size="10.00">Eval_Conv_VDF_Face</text>
<text text-anchor="middle" x="503.5" y="-434" font-family="Helvetica,sans-Serif" font-size="10.00">&lt; Eval_Quick_VDF_Face &gt;</text>
</a>
</g>
</g>
<!-- Node1&#45;&gt;Node8 -->
<g id="edge7" class="edge">
<title>Node1&#45;&gt;Node8</title>
<path fill="none" stroke="midnightblue" d="M81.31,-340.99C95.36,-345.72 111.78,-350.71 127,-354 247.26,-380.04 289.71,-335.69 402,-386 411.77,-390.38 411.1,-396.05 420,-402 434.29,-411.55 451.21,-420.16 465.99,-426.93"/>
<polygon fill="midnightblue" stroke="midnightblue" points="82.15,-337.57 71.55,-337.61 79.86,-344.19 82.15,-337.57"/>
</g>
<!-- Node10 -->
<g id="node10" class="node">
<title>Node10</title>
<g id="a_node10"><a xlink:href="classEval__Conv__VDF__Face.html" target="_top" xlink:title=" ">
<polygon fill="white" stroke="black" points="420,-362 420,-392 587,-392 587,-362 420,-362"/>
<text text-anchor="start" x="428" y="-380" font-family="Helvetica,sans-Serif" font-size="10.00">Eval_Conv_VDF_Face</text>
<text text-anchor="middle" x="503.5" y="-369" font-family="Helvetica,sans-Serif" font-size="10.00">&lt; Eval_Quick_VDF_Face_Axi &gt;</text>
</a>
</g>
</g>
<!-- Node1&#45;&gt;Node10 -->
<g id="edge9" class="edge">
<title>Node1&#45;&gt;Node10</title>
<path fill="none" stroke="midnightblue" d="M100.43,-332.61C185.26,-339.86 345.17,-353.85 402,-361 407.78,-361.73 413.75,-362.53 419.75,-363.39"/>
<polygon fill="midnightblue" stroke="midnightblue" points="100.48,-329.1 90.22,-331.73 99.89,-336.07 100.48,-329.1"/>
</g>
<!-- Node12 -->
<g id="node12" class="node">
<title>Node12</title>
<g id="a_node12"><a xlink:href="classEval__Diff__VDF__Face.html" target="_top" xlink:title=" ">
<polygon fill="white" stroke="black" points="439.5,-273.5 439.5,-314.5 567.5,-314.5 567.5,-273.5 439.5,-273.5"/>
<text text-anchor="start" x="447.5" y="-302.5" font-family="Helvetica,sans-Serif" font-size="10.00">Eval_Diff_VDF_Face</text>
<text text-anchor="start" x="447.5" y="-291.5" font-family="Helvetica,sans-Serif" font-size="10.00">&lt; Eval_Diff_VDF_const</text>
<text text-anchor="middle" x="503.5" y="-280.5" font-family="Helvetica,sans-Serif" font-size="10.00">_Face &gt;</text>
</a>
</g>
</g>
<!-- Node1&#45;&gt;Node12 -->
<g id="edge11" class="edge">
<title>Node1&#45;&gt;Node12</title>
<path fill="none" stroke="midnightblue" d="M100.4,-323.95C185.44,-317.61 349.43,-305.4 439.48,-298.69"/>
<polygon fill="midnightblue" stroke="midnightblue" points="99.9,-320.48 90.19,-324.71 100.42,-327.46 99.9,-320.48"/>
</g>
<!-- Node14 -->
<g id="node14" class="node">
<title>Node14</title>
<g id="a_node14"><a xlink:href="classEval__Diff__VDF__Face.html" target="_top" xlink:title=" ">
<polygon fill="white" stroke="black" points="444.5,-122.5 444.5,-163.5 562.5,-163.5 562.5,-122.5 444.5,-122.5"/>
<text text-anchor="start" x="452.5" y="-151.5" font-family="Helvetica,sans-Serif" font-size="10.00">Eval_Diff_VDF_Face</text>
<text text-anchor="start" x="452.5" y="-140.5" font-family="Helvetica,sans-Serif" font-size="10.00">&lt; Eval_Diff_VDF_var</text>
<text text-anchor="middle" x="503.5" y="-129.5" font-family="Helvetica,sans-Serif" font-size="10.00">_Face &gt;</text>
</a>
</g>
</g>
<!-- Node1&#45;&gt;Node14 -->
<g id="edge13" class="edge">
<title>Node1&#45;&gt;Node14</title>
<path fill="none" stroke="midnightblue" d="M52.69,-308.61C64.04,-277.94 89.55,-217.65 127,-178 176.47,-125.64 195.69,-112.63 265,-93 323.58,-76.41 342.73,-79.07 402,-93 426.28,-98.71 451.41,-111.21 470.46,-122.28"/>
<polygon fill="midnightblue" stroke="midnightblue" points="49.36,-307.55 49.27,-318.14 55.94,-309.91 49.36,-307.55"/>
</g>
<!-- Node16 -->
<g id="node16" class="node">
<title>Node16</title>
<g id="a_node16"><a xlink:href="classEval__Diff__VDF__Face.html" target="_top" xlink:title=" ">
<polygon fill="white" stroke="black" points="439.5,-197.5 439.5,-238.5 567.5,-238.5 567.5,-197.5 439.5,-197.5"/>
<text text-anchor="start" x="447.5" y="-226.5" font-family="Helvetica,sans-Serif" font-size="10.00">Eval_Diff_VDF_Face</text>
<text text-anchor="start" x="447.5" y="-215.5" font-family="Helvetica,sans-Serif" font-size="10.00">&lt; Eval_Dift_VDF_const</text>
<text text-anchor="middle" x="503.5" y="-204.5" font-family="Helvetica,sans-Serif" font-size="10.00">_Face &gt;</text>
</a>
</g>
</g>
<!-- Node1&#45;&gt;Node16 -->
<g id="edge15" class="edge">
<title>Node1&#45;&gt;Node16</title>
<path fill="none" stroke="midnightblue" d="M93.58,-316.09C104.52,-313.56 116.13,-311.04 127,-309 248.32,-286.21 284.41,-307.56 402,-270 425.77,-262.41 450.69,-249.55 469.77,-238.52"/>
<polygon fill="midnightblue" stroke="midnightblue" points="92.69,-312.7 83.76,-318.4 94.3,-319.52 92.69,-312.7"/>
</g>
<!-- Node18 -->
<g id="node18" class="node">
<title>Node18</title>
<g id="a_node18"><a xlink:href="classEval__Diff__VDF__Face.html" target="_top" xlink:title=" ">
<polygon fill="white" stroke="black" points="444.5,-41.5 444.5,-82.5 562.5,-82.5 562.5,-41.5 444.5,-41.5"/>
<text text-anchor="start" x="452.5" y="-70.5" font-family="Helvetica,sans-Serif" font-size="10.00">Eval_Diff_VDF_Face</text>
<text text-anchor="start" x="452.5" y="-59.5" font-family="Helvetica,sans-Serif" font-size="10.00">&lt; Eval_Dift_VDF_var</text>
<text text-anchor="middle" x="503.5" y="-48.5" font-family="Helvetica,sans-Serif" font-size="10.00">_Face &gt;</text>
</a>
</g>
</g>
<!-- Node1&#45;&gt;Node18 -->
<g id="edge17" class="edge">
<title>Node1&#45;&gt;Node18</title>
<path fill="none" stroke="midnightblue" d="M46.26,-308.34C48.01,-262.51 59.32,-148.34 127,-94 217.81,-21.09 363.88,-34.1 444.46,-48.8"/>
<polygon fill="midnightblue" stroke="midnightblue" points="42.75,-308.35 45.99,-318.44 49.75,-308.54 42.75,-308.35"/>
</g>
<!-- Node20 -->
<g id="node20" class="node">
<title>Node20</title>
<g id="a_node20"><a xlink:href="classEval__Conv__VDF__Face.html" target="_top" xlink:title="templates specializations ici ;)">
<polygon fill="white" stroke="black" points="127,-484 127,-514 247,-514 247,-484 127,-484"/>
<text text-anchor="start" x="135" y="-502" font-family="Helvetica,sans-Serif" font-size="10.00">Eval_Conv_VDF_Face</text>
<text text-anchor="middle" x="187" y="-491" font-family="Helvetica,sans-Serif" font-size="10.00">&lt; DERIVED_T &gt;</text>
</a>
</g>
</g>
<!-- Node1&#45;&gt;Node20 -->
<g id="edge19" class="edge">
<title>Node1&#45;&gt;Node20</title>
<path fill="none" stroke="midnightblue" d="M51.28,-347.34C59.51,-374.45 77.68,-424.04 108,-456 119.07,-467.67 134.02,-476.95 147.87,-483.86"/>
<polygon fill="midnightblue" stroke="midnightblue" points="54.58,-346.15 48.44,-337.51 47.85,-348.09 54.58,-346.15"/>
</g>
<!-- Node21 -->
<g id="node21" class="node">
<title>Node21</title>
<g id="a_node21"><a xlink:href="classEval__Diff__VDF__Face.html" target="_top" xlink:title="class Eval_Diff_VDF_Face Evaluateur VDF pour la diffusion Le champ diffuse est un Champ_Face template...">
<polygon fill="white" stroke="black" points="130.5,-187 130.5,-217 243.5,-217 243.5,-187 130.5,-187"/>
<text text-anchor="start" x="138.5" y="-205" font-family="Helvetica,sans-Serif" font-size="10.00">Eval_Diff_VDF_Face</text>
<text text-anchor="middle" x="187" y="-194" font-family="Helvetica,sans-Serif" font-size="10.00">&lt; DERIVED_T &gt;</text>
</a>
</g>
</g>
<!-- Node1&#45;&gt;Node21 -->
<g id="edge25" class="edge">
<title>Node1&#45;&gt;Node21</title>
<path fill="none" stroke="midnightblue" d="M59.6,-310.16C71.5,-295.12 89.71,-273.49 108,-257 124.62,-242.02 145.4,-227.55 161.33,-217.21"/>
<polygon fill="midnightblue" stroke="midnightblue" points="56.75,-308.12 53.36,-318.16 62.27,-312.42 56.75,-308.12"/>
</g>
<!-- Node22 -->
<g id="node22" class="node">
<title>Node22</title>
<g id="a_node22"><a xlink:href="classEval__Grad__VDF__Face.html" target="_top" xlink:title="class Eval_Grad_VDF_Face Evaluateur VDF pour le gradient">
<polygon fill="white" stroke="black" points="127.5,-0.5 127.5,-19.5 246.5,-19.5 246.5,-0.5 127.5,-0.5"/>
<text text-anchor="middle" x="187" y="-7.5" font-family="Helvetica,sans-Serif" font-size="10.00">Eval_Grad_VDF_Face</text>
</a>
</g>
</g>
<!-- Node1&#45;&gt;Node22 -->
<g id="edge30" class="edge">
<title>Node1&#45;&gt;Node22</title>
<path fill="none" stroke="midnightblue" d="M47.6,-308.05C52.76,-248.68 70.82,-74.72 108,-34 113.73,-27.72 121.06,-23.07 128.93,-19.62"/>
<polygon fill="midnightblue" stroke="midnightblue" points="44.09,-308.07 46.74,-318.32 51.07,-308.65 44.09,-308.07"/>
</g>
<!-- Node3 -->
<g id="node3" class="node">
<title>Node3</title>
<g id="a_node3"><a xlink:href="classEval__Amont__VDF__Face.html" target="_top" xlink:title="!&lt;">
<polygon fill="white" stroke="black" points="632,-621.5 632,-640.5 760,-640.5 760,-621.5 632,-621.5"/>
<text text-anchor="middle" x="696" y="-628.5" font-family="Helvetica,sans-Serif" font-size="10.00">Eval_Amont_VDF_Face</text>
</a>
</g>
</g>
<!-- Node2&#45;&gt;Node3 -->
<g id="edge2" class="edge">
<title>Node2&#45;&gt;Node3</title>
<path fill="none" stroke="midnightblue" d="M589.08,-631C603.44,-631 618.13,-631 631.81,-631"/>
<polygon fill="midnightblue" stroke="midnightblue" points="588.7,-627.5 578.7,-631 588.7,-634.5 588.7,-627.5"/>
</g>
<!-- Node5 -->
<g id="node5" class="node">
<title>Node5</title>
<g id="a_node5"><a xlink:href="classEval__Centre4__VDF__Face.html" target="_top" xlink:title="class Eval_Centre4_VDF_Face Evaluateur VDF pour la convection Le champ convecte est un Champ_Face Sch...">
<polygon fill="white" stroke="black" points="629,-542.5 629,-561.5 763,-561.5 763,-542.5 629,-542.5"/>
<text text-anchor="middle" x="696" y="-549.5" font-family="Helvetica,sans-Serif" font-size="10.00">Eval_Centre4_VDF_Face</text>
</a>
</g>
</g>
<!-- Node4&#45;&gt;Node5 -->
<g id="edge4" class="edge">
<title>Node4&#45;&gt;Node5</title>
<path fill="none" stroke="midnightblue" d="M592.08,-552C604.49,-552 617.07,-552 628.99,-552"/>
<polygon fill="midnightblue" stroke="midnightblue" points="591.71,-548.5 581.71,-552 591.71,-555.5 591.71,-548.5"/>
</g>
<!-- Node7 -->
<g id="node7" class="node">
<title>Node7</title>
<g id="a_node7"><a xlink:href="classEval__Centre__VDF__Face.html" target="_top" xlink:title="class Eval_Centre_VDF_Face Evaluateur VDF pour la convection Le champ convecte est un Champ_Face Sche...">
<polygon fill="white" stroke="black" points="632,-489.5 632,-508.5 760,-508.5 760,-489.5 632,-489.5"/>
<text text-anchor="middle" x="696" y="-496.5" font-family="Helvetica,sans-Serif" font-size="10.00">Eval_Centre_VDF_Face</text>
</a>
</g>
</g>
<!-- Node6&#45;&gt;Node7 -->
<g id="edge6" class="edge">
<title>Node6&#45;&gt;Node7</title>
<path fill="none" stroke="midnightblue" d="M589.08,-499C603.44,-499 618.13,-499 631.81,-499"/>
<polygon fill="midnightblue" stroke="midnightblue" points="588.7,-495.5 578.7,-499 588.7,-502.5 588.7,-495.5"/>
</g>
<!-- Node9 -->
<g id="node9" class="node">
<title>Node9</title>
<g id="a_node9"><a xlink:href="classEval__Quick__VDF__Face.html" target="_top" xlink:title="class Eval_Quick_VDF_Face Evaluateur VDF pour la convection Le champ convecte est un Champ_Face Schem...">
<polygon fill="white" stroke="black" points="634.5,-432.5 634.5,-451.5 757.5,-451.5 757.5,-432.5 634.5,-432.5"/>
<text text-anchor="middle" x="696" y="-439.5" font-family="Helvetica,sans-Serif" font-size="10.00">Eval_Quick_VDF_Face</text>
</a>
</g>
</g>
<!-- Node8&#45;&gt;Node9 -->
<g id="edge8" class="edge">
<title>Node8&#45;&gt;Node9</title>
<path fill="none" stroke="midnightblue" d="M586.91,-442C602.86,-442 619.29,-442 634.38,-442"/>
<polygon fill="midnightblue" stroke="midnightblue" points="586.52,-438.5 576.52,-442 586.52,-445.5 586.52,-438.5"/>
</g>
<!-- Node11 -->
<g id="node11" class="node">
<title>Node11</title>
<g id="a_node11"><a xlink:href="classEval__Quick__VDF__Face__Axi.html" target="_top" xlink:title="class Eval_Quick_VDF_Face_Axi Evaluateur VDF pour la convection en coordonnees cylindriques : Le cham...">
<polygon fill="white" stroke="black" points="624,-367.5 624,-386.5 768,-386.5 768,-367.5 624,-367.5"/>
<text text-anchor="middle" x="696" y="-374.5" font-family="Helvetica,sans-Serif" font-size="10.00">Eval_Quick_VDF_Face_Axi</text>
</a>
</g>
</g>
<!-- Node10&#45;&gt;Node11 -->
<g id="edge10" class="edge">
<title>Node10&#45;&gt;Node11</title>
<path fill="none" stroke="midnightblue" d="M597.32,-377C606.29,-377 615.28,-377 623.99,-377"/>
<polygon fill="midnightblue" stroke="midnightblue" points="597.22,-373.5 587.22,-377 597.22,-380.5 597.22,-373.5"/>
</g>
<!-- Node13 -->
<g id="node13" class="node">
<title>Node13</title>
<g id="a_node13"><a xlink:href="classEval__Diff__VDF__const__Face.html" target="_top" xlink:title="!&lt;">
<polygon fill="white" stroke="black" points="624,-284.5 624,-303.5 768,-303.5 768,-284.5 624,-284.5"/>
<text text-anchor="middle" x="696" y="-291.5" font-family="Helvetica,sans-Serif" font-size="10.00">Eval_Diff_VDF_const_Face</text>
</a>
</g>
</g>
<!-- Node12&#45;&gt;Node13 -->
<g id="edge12" class="edge">
<title>Node12&#45;&gt;Node13</title>
<path fill="none" stroke="midnightblue" d="M577.94,-294C592.99,-294 608.81,-294 623.78,-294"/>
<polygon fill="midnightblue" stroke="midnightblue" points="577.67,-290.5 567.67,-294 577.67,-297.5 577.67,-290.5"/>
</g>
<!-- Node15 -->
<g id="node15" class="node">
<title>Node15</title>
<g id="a_node15"><a xlink:href="classEval__Diff__VDF__var__Face.html" target="_top" xlink:title="class Eval_Diff_VDF_var_Face Evaluateur VDF pour la diffusion Le champ diffuse est un Champ_Face Le c...">
<polygon fill="white" stroke="black" points="629,-133.5 629,-152.5 763,-152.5 763,-133.5 629,-133.5"/>
<text text-anchor="middle" x="696" y="-140.5" font-family="Helvetica,sans-Serif" font-size="10.00">Eval_Diff_VDF_var_Face</text>
</a>
</g>
</g>
<!-- Node14&#45;&gt;Node15 -->
<g id="edge14" class="edge">
<title>Node14&#45;&gt;Node15</title>
<path fill="none" stroke="midnightblue" d="M572.93,-143C591.13,-143 610.76,-143 628.84,-143"/>
<polygon fill="midnightblue" stroke="midnightblue" points="572.69,-139.5 562.69,-143 572.69,-146.5 572.69,-139.5"/>
</g>
<!-- Node17 -->
<g id="node17" class="node">
<title>Node17</title>
<g id="a_node17"><a xlink:href="classEval__Dift__VDF__const__Face.html" target="_top" xlink:title="!&lt;">
<polygon fill="white" stroke="black" points="624,-208.5 624,-227.5 768,-227.5 768,-208.5 624,-208.5"/>
<text text-anchor="middle" x="696" y="-215.5" font-family="Helvetica,sans-Serif" font-size="10.00">Eval_Dift_VDF_const_Face</text>
</a>
</g>
</g>
<!-- Node16&#45;&gt;Node17 -->
<g id="edge16" class="edge">
<title>Node16&#45;&gt;Node17</title>
<path fill="none" stroke="midnightblue" d="M577.94,-218C592.99,-218 608.81,-218 623.78,-218"/>
<polygon fill="midnightblue" stroke="midnightblue" points="577.67,-214.5 567.67,-218 577.67,-221.5 577.67,-214.5"/>
</g>
<!-- Node19 -->
<g id="node19" class="node">
<title>Node19</title>
<g id="a_node19"><a xlink:href="classEval__Dift__VDF__var__Face.html" target="_top" xlink:title="class Eval_Dift_VDF_var_Face Evaluateur VDF pour la diffusion totale (laminaire et turbulente) Le cha...">
<polygon fill="white" stroke="black" points="629,-52.5 629,-71.5 763,-71.5 763,-52.5 629,-52.5"/>
<text text-anchor="middle" x="696" y="-59.5" font-family="Helvetica,sans-Serif" font-size="10.00">Eval_Dift_VDF_var_Face</text>
</a>
</g>
</g>
<!-- Node18&#45;&gt;Node19 -->
<g id="edge18" class="edge">
<title>Node18&#45;&gt;Node19</title>
<path fill="none" stroke="midnightblue" d="M572.93,-62C591.13,-62 610.76,-62 628.84,-62"/>
<polygon fill="midnightblue" stroke="midnightblue" points="572.69,-58.5 562.69,-62 572.69,-65.5 572.69,-58.5"/>
</g>
<!-- Node20&#45;&gt;Node2 -->
<g id="edge20" class="edge">
<title>Node20&#45;&gt;Node2</title>
<path fill="none" stroke="orange" stroke-dasharray="5,2" d="M210.06,-521.15C224.59,-534.64 244.62,-551.28 265,-562 316.49,-589.08 380.01,-606.83 428.4,-617.53"/>
<polygon fill="orange" stroke="orange" points="212.25,-518.4 202.59,-514.04 207.42,-523.47 212.25,-518.4"/>
<text text-anchor="middle" x="333.5" y="-612" font-family="Helvetica,sans-Serif" font-size="10.00"> &lt; Eval_Amont_VDF_Face &gt;</text>
</g>
<!-- Node20&#45;&gt;Node4 -->
<g id="edge21" class="edge">
<title>Node20&#45;&gt;Node4</title>
<path fill="none" stroke="orange" stroke-dasharray="5,2" d="M257.32,-512.62C259.91,-513.09 262.48,-513.55 265,-514 318.45,-523.48 378.86,-533.13 425.38,-540.33"/>
<polygon fill="orange" stroke="orange" points="257.71,-509.13 247.24,-510.75 256.43,-516.01 257.71,-509.13"/>
<text text-anchor="start" x="281" y="-550" font-family="Helvetica,sans-Serif" font-size="10.00"> &lt; Eval_Centre4_VDF</text>
<text text-anchor="middle" x="333.5" y="-539" font-family="Helvetica,sans-Serif" font-size="10.00">_Face &gt;</text>
</g>
<!-- Node20&#45;&gt;Node6 -->
<g id="edge22" class="edge">
<title>Node20&#45;&gt;Node6</title>
<path fill="none" stroke="orange" stroke-dasharray="5,2" d="M257.36,-499C308.02,-499 376.61,-499 428.36,-499"/>
<polygon fill="orange" stroke="orange" points="257.16,-495.5 247.16,-499 257.16,-502.5 257.16,-495.5"/>
<text text-anchor="middle" x="333.5" y="-502" font-family="Helvetica,sans-Serif" font-size="10.00"> &lt; Eval_Centre_VDF_Face &gt;</text>
</g>
<!-- Node20&#45;&gt;Node8 -->
<g id="edge23" class="edge">
<title>Node20&#45;&gt;Node8</title>
<path fill="none" stroke="orange" stroke-dasharray="5,2" d="M257.33,-485.44C259.92,-484.95 262.48,-484.47 265,-484 320.47,-473.69 383.35,-462.6 430.47,-454.4"/>
<polygon fill="orange" stroke="orange" points="256.43,-482.04 247.25,-487.35 257.73,-488.92 256.43,-482.04"/>
<text text-anchor="middle" x="333.5" y="-487" font-family="Helvetica,sans-Serif" font-size="10.00"> &lt; Eval_Quick_VDF_Face &gt;</text>
</g>
<!-- Node20&#45;&gt;Node10 -->
<g id="edge24" class="edge">
<title>Node20&#45;&gt;Node10</title>
<path fill="none" stroke="orange" stroke-dasharray="5,2" d="M208.47,-476.59C222.92,-462.09 243.48,-443.93 265,-433 313.25,-408.49 372.49,-394.49 419.73,-386.62"/>
<polygon fill="orange" stroke="orange" points="205.95,-474.17 201.5,-483.78 210.97,-479.04 205.95,-474.17"/>
<text text-anchor="start" x="273" y="-447" font-family="Helvetica,sans-Serif" font-size="10.00"> &lt; Eval_Quick_VDF_Face</text>
<text text-anchor="middle" x="333.5" y="-436" font-family="Helvetica,sans-Serif" font-size="10.00">_Axi &gt;</text>
</g>
<!-- Node21&#45;&gt;Node12 -->
<g id="edge26" class="edge">
<title>Node21&#45;&gt;Node12</title>
<path fill="none" stroke="orange" stroke-dasharray="5,2" d="M247.83,-219.92C253.63,-221.64 259.43,-223.36 265,-225 324.1,-242.41 391.57,-261.98 439.46,-275.82"/>
<polygon fill="orange" stroke="orange" points="248.68,-216.52 238.1,-217.02 246.69,-223.23 248.68,-216.52"/>
<text text-anchor="start" x="276" y="-278" font-family="Helvetica,sans-Serif" font-size="10.00"> &lt; Eval_Diff_VDF_const</text>
<text text-anchor="middle" x="333.5" y="-267" font-family="Helvetica,sans-Serif" font-size="10.00">_Face &gt;</text>
</g>
<!-- Node21&#45;&gt;Node14 -->
<g id="edge27" class="edge">
<title>Node21&#45;&gt;Node14</title>
<path fill="none" stroke="orange" stroke-dasharray="5,2" d="M232.19,-183.34C242.78,-179.43 254.17,-175.68 265,-173 325.11,-158.1 395.7,-150.39 444.21,-146.54"/>
<polygon fill="orange" stroke="orange" points="230.81,-180.12 222.72,-186.95 233.31,-186.66 230.81,-180.12"/>
<text text-anchor="start" x="281" y="-187" font-family="Helvetica,sans-Serif" font-size="10.00"> &lt; Eval_Diff_VDF_var</text>
<text text-anchor="middle" x="333.5" y="-176" font-family="Helvetica,sans-Serif" font-size="10.00">_Face &gt;</text>
</g>
<!-- Node21&#45;&gt;Node16 -->
<g id="edge28" class="edge">
<title>Node21&#45;&gt;Node16</title>
<path fill="none" stroke="orange" stroke-dasharray="5,2" d="M253.7,-199.87C296.09,-199.1 352.38,-199.2 402,-203 414.14,-203.93 427.03,-205.45 439.4,-207.17"/>
<polygon fill="orange" stroke="orange" points="253.44,-196.38 243.51,-200.08 253.58,-203.38 253.44,-196.38"/>
<text text-anchor="start" x="276" y="-217" font-family="Helvetica,sans-Serif" font-size="10.00"> &lt; Eval_Dift_VDF_const</text>
<text text-anchor="middle" x="333.5" y="-206" font-family="Helvetica,sans-Serif" font-size="10.00">_Face &gt;</text>
</g>
<!-- Node21&#45;&gt;Node18 -->
<g id="edge29" class="edge">
<title>Node21&#45;&gt;Node18</title>
<path fill="none" stroke="orange" stroke-dasharray="5,2" d="M205.08,-178.9C219.25,-161.34 240.93,-137.9 265,-124 320.91,-91.72 393.82,-75.93 444.03,-68.42"/>
<polygon fill="orange" stroke="orange" points="202.16,-176.95 198.75,-186.98 207.67,-181.27 202.16,-176.95"/>
<text text-anchor="start" x="281" y="-138" font-family="Helvetica,sans-Serif" font-size="10.00"> &lt; Eval_Dift_VDF_var</text>
<text text-anchor="middle" x="333.5" y="-127" font-family="Helvetica,sans-Serif" font-size="10.00">_Face &gt;</text>
</g>
</g>
</svg>
