<?xml version="1.0" encoding="UTF-8" standalone="no"?>
<!DOCTYPE svg PUBLIC "-//W3C//DTD SVG 1.1//EN"
 "http://www.w3.org/Graphics/SVG/1.1/DTD/svg11.dtd">
<!-- Generated by graphviz version 2.43.0 (0)
 -->
<!-- Title: RRK2 Pages: 1 -->
<svg width="279pt" height="334pt"
 viewBox="0.00 0.00 278.50 334.00" xmlns="http://www.w3.org/2000/svg" xmlns:xlink="http://www.w3.org/1999/xlink">
<g id="graph0" class="graph" transform="scale(1 1) rotate(0) translate(4 330)">
<title>RRK2</title>
<polygon fill="white" stroke="transparent" points="-4,4 -4,-330 274.5,-330 274.5,4 -4,4"/>
<!-- Node1 -->
<g id="node1" class="node">
<title>Node1</title>
<g id="a_node1"><a xlink:title="!&lt;">
<polygon fill="#bfbfbf" stroke="black" points="51,-0.5 51,-19.5 94,-19.5 94,-0.5 51,-0.5"/>
<text text-anchor="middle" x="72.5" y="-7.5" font-family="Helvetica,sans-Serif" font-size="10.00">RRK2</text>
</a>
</g>
</g>
<!-- Node2 -->
<g id="node2" class="node">
<title>Node2</title>
<g id="a_node2"><a xlink:href="classTRUSTSchema__RK.html" target="_top" xlink:title=" ">
<polygon fill="white" stroke="black" points="0,-57.5 0,-87.5 145,-87.5 145,-57.5 0,-57.5"/>
<text text-anchor="start" x="8" y="-75.5" font-family="Helvetica,sans-Serif" font-size="10.00">TRUSTSchema_RK&lt; Ordre</text>
<text text-anchor="middle" x="72.5" y="-64.5" font-family="Helvetica,sans-Serif" font-size="10.00">_RK::RATIO_DEUX &gt;</text>
</a>
</g>
</g>
<!-- Node2&#45;&gt;Node1 -->
<g id="edge1" class="edge">
<title>Node2&#45;&gt;Node1</title>
<path fill="none" stroke="midnightblue" d="M72.5,-47.35C72.5,-37.51 72.5,-26.78 72.5,-19.54"/>
<polygon fill="midnightblue" stroke="midnightblue" points="69,-47.47 72.5,-57.47 76,-47.47 69,-47.47"/>
</g>
<!-- Node3 -->
<g id="node3" class="node">
<title>Node3</title>
<g id="a_node3"><a xlink:href="classSchema__Temps__base.html" target="_top" xlink:title="classe Schema_Temps_base">
<polygon fill="white" stroke="black" points="8,-192.5 8,-211.5 129,-211.5 129,-192.5 8,-192.5"/>
<text text-anchor="middle" x="68.5" y="-199.5" font-family="Helvetica,sans-Serif" font-size="10.00">Schema_Temps_base</text>
</a>
</g>
</g>
<!-- Node3&#45;&gt;Node2 -->
<g id="edge2" class="edge">
<title>Node3&#45;&gt;Node2</title>
<path fill="none" stroke="midnightblue" d="M69.1,-181.9C69.91,-156.05 71.34,-110.54 72.06,-87.59"/>
<polygon fill="midnightblue" stroke="midnightblue" points="65.59,-182.13 68.77,-192.24 72.59,-182.35 65.59,-182.13"/>
</g>
<!-- Node6 -->
<g id="node6" class="node">
<title>Node6</title>
<g id="a_node6"><a xlink:href="classTRUSTSchema__RK.html" target="_top" xlink:title=" ">
<polygon fill="white" stroke="black" points="84.5,-135.5 84.5,-154.5 258.5,-154.5 258.5,-135.5 84.5,-135.5"/>
<text text-anchor="middle" x="171.5" y="-142.5" font-family="Helvetica,sans-Serif" font-size="10.00">TRUSTSchema_RK&lt; _ORDRE_ &gt;</text>
</a>
</g>
</g>
<!-- Node3&#45;&gt;Node6 -->
<g id="edge6" class="edge">
<title>Node3&#45;&gt;Node6</title>
<path fill="none" stroke="midnightblue" d="M93.45,-187.68C112.76,-177.36 138.93,-163.39 155.52,-154.53"/>
<polygon fill="midnightblue" stroke="midnightblue" points="91.77,-184.61 84.59,-192.41 95.06,-190.78 91.77,-184.61"/>
</g>
<!-- Node4 -->
<g id="node4" class="node">
<title>Node4</title>
<g id="a_node4"><a xlink:href="classObjet__U.html" target="_top" xlink:title="classe Objet_U Cette classe est la classe de base des Objets de TRUST Dans les classes derivees de Ob...">
<polygon fill="white" stroke="black" points="40.5,-249.5 40.5,-268.5 96.5,-268.5 96.5,-249.5 40.5,-249.5"/>
<text text-anchor="middle" x="68.5" y="-256.5" font-family="Helvetica,sans-Serif" font-size="10.00">Objet_U</text>
</a>
</g>
</g>
<!-- Node4&#45;&gt;Node3 -->
<g id="edge3" class="edge">
<title>Node4&#45;&gt;Node3</title>
<path fill="none" stroke="midnightblue" d="M68.5,-239.12C68.5,-229.82 68.5,-219.06 68.5,-211.71"/>
<polygon fill="midnightblue" stroke="midnightblue" points="65,-239.41 68.5,-249.41 72,-239.41 65,-239.41"/>
</g>
<!-- Node5 -->
<g id="node5" class="node">
<title>Node5</title>
<g id="a_node5"><a xlink:href="classProcess.html" target="_top" xlink:title="Classe de base de TRUST (notamment Objet_U). Elle fournit quelques services de base accessibles de pa...">
<polygon fill="white" stroke="black" points="41.5,-306.5 41.5,-325.5 95.5,-325.5 95.5,-306.5 41.5,-306.5"/>
<text text-anchor="middle" x="68.5" y="-313.5" font-family="Helvetica,sans-Serif" font-size="10.00">Process</text>
</a>
</g>
</g>
<!-- Node5&#45;&gt;Node4 -->
<g id="edge4" class="edge">
<title>Node5&#45;&gt;Node4</title>
<path fill="none" stroke="midnightblue" d="M68.5,-296.12C68.5,-286.82 68.5,-276.06 68.5,-268.71"/>
<polygon fill="midnightblue" stroke="midnightblue" points="65,-296.41 68.5,-306.41 72,-296.41 65,-296.41"/>
</g>
<!-- Node6&#45;&gt;Node2 -->
<g id="edge5" class="edge">
<title>Node6&#45;&gt;Node2</title>
<path fill="none" stroke="orange" stroke-dasharray="5,2" d="M151.09,-129.47C133.85,-117.19 109.32,-99.72 92.27,-87.58"/>
<polygon fill="orange" stroke="orange" points="149.18,-132.41 159.36,-135.36 153.25,-126.7 149.18,-132.41"/>
<text text-anchor="middle" x="200.5" y="-109" font-family="Helvetica,sans-Serif" font-size="10.00"> &lt; Ordre_RK::RATIO_DEUX &gt;</text>
</g>
</g>
</svg>
