<?xml version="1.0" encoding="UTF-8" standalone="no"?>
<!DOCTYPE svg PUBLIC "-//W3C//DTD SVG 1.1//EN"
 "http://www.w3.org/Graphics/SVG/1.1/DTD/svg11.dtd">
<!-- Generated by graphviz version 2.43.0 (0)
 -->
<!-- Title: Terme_Source_inc_VDF_Face Pages: 1 -->
<svg width="363pt" height="196pt"
 viewBox="0.00 0.00 362.50 196.00" xmlns="http://www.w3.org/2000/svg" xmlns:xlink="http://www.w3.org/1999/xlink">
<g id="graph0" class="graph" transform="scale(1 1) rotate(0) translate(4 192)">
<title>Terme_Source_inc_VDF_Face</title>
<polygon fill="white" stroke="transparent" points="-4,4 -4,-192 358.5,-192 358.5,4 -4,4"/>
<!-- Node1 -->
<g id="node1" class="node">
<title>Node1</title>
<g id="a_node1"><a xlink:title=" ">
<polygon fill="#bfbfbf" stroke="black" points="169,-0.5 169,-19.5 326,-19.5 326,-0.5 169,-0.5"/>
<text text-anchor="middle" x="247.5" y="-7.5" font-family="Helvetica,sans-Serif" font-size="10.00">Terme_Source_inc_VDF_Face</text>
</a>
</g>
</g>
<!-- Node2 -->
<g id="node2" class="node">
<title>Node2</title>
<g id="a_node2"><a xlink:href="classSource__base.html" target="_top" xlink:title="classe Source_base Un objet Source_base est un terme apparaissant au second membre d&#39;une equation....">
<polygon fill="white" stroke="black" points="154.5,-56.5 154.5,-75.5 232.5,-75.5 232.5,-56.5 154.5,-56.5"/>
<text text-anchor="middle" x="193.5" y="-63.5" font-family="Helvetica,sans-Serif" font-size="10.00">Source_base</text>
</a>
</g>
</g>
<!-- Node2&#45;&gt;Node1 -->
<g id="edge1" class="edge">
<title>Node2&#45;&gt;Node1</title>
<path fill="none" stroke="midnightblue" d="M209.5,-49C219.07,-39.43 230.86,-27.64 238.75,-19.75"/>
<polygon fill="midnightblue" stroke="midnightblue" points="207.01,-46.54 202.42,-56.08 211.96,-51.49 207.01,-46.54"/>
</g>
<!-- Node3 -->
<g id="node3" class="node">
<title>Node3</title>
<g id="a_node3"><a xlink:href="classChamps__compris__interface.html" target="_top" xlink:title="classe Champs_compris_interface Cette classe contient une interface de methodes destinees a gerer les...">
<polygon fill="white" stroke="black" points="0,-112.5 0,-131.5 149,-131.5 149,-112.5 0,-112.5"/>
<text text-anchor="middle" x="74.5" y="-119.5" font-family="Helvetica,sans-Serif" font-size="10.00">Champs_compris_interface</text>
</a>
</g>
</g>
<!-- Node3&#45;&gt;Node2 -->
<g id="edge2" class="edge">
<title>Node3&#45;&gt;Node2</title>
<path fill="none" stroke="midnightblue" d="M102.64,-108.23C124.9,-98.13 155.36,-84.31 174.73,-75.52"/>
<polygon fill="midnightblue" stroke="midnightblue" points="101.02,-105.12 93.36,-112.44 103.91,-111.5 101.02,-105.12"/>
</g>
<!-- Node4 -->
<g id="node4" class="node">
<title>Node4</title>
<g id="a_node4"><a xlink:href="classMorEqn.html" target="_top" xlink:title="classe MorEqn Classe qui regroupe les fonctionnalites de liaison avec une Equation....">
<polygon fill="white" stroke="black" points="167,-112.5 167,-131.5 220,-131.5 220,-112.5 167,-112.5"/>
<text text-anchor="middle" x="193.5" y="-119.5" font-family="Helvetica,sans-Serif" font-size="10.00">MorEqn</text>
</a>
</g>
</g>
<!-- Node4&#45;&gt;Node2 -->
<g id="edge3" class="edge">
<title>Node4&#45;&gt;Node2</title>
<path fill="none" stroke="midnightblue" d="M193.5,-101.8C193.5,-92.91 193.5,-82.78 193.5,-75.75"/>
<polygon fill="midnightblue" stroke="midnightblue" points="190,-102.08 193.5,-112.08 197,-102.08 190,-102.08"/>
</g>
<!-- Node5 -->
<g id="node5" class="node">
<title>Node5</title>
<g id="a_node5"><a xlink:href="classObjet__U.html" target="_top" xlink:title="classe Objet_U Cette classe est la classe de base des Objets de TRUST Dans les classes derivees de Ob...">
<polygon fill="white" stroke="black" points="238.5,-112.5 238.5,-131.5 294.5,-131.5 294.5,-112.5 238.5,-112.5"/>
<text text-anchor="middle" x="266.5" y="-119.5" font-family="Helvetica,sans-Serif" font-size="10.00">Objet_U</text>
</a>
</g>
</g>
<!-- Node5&#45;&gt;Node2 -->
<g id="edge4" class="edge">
<title>Node5&#45;&gt;Node2</title>
<path fill="none" stroke="midnightblue" d="M246.36,-106.1C233.22,-96.38 216.52,-84.03 205.44,-75.83"/>
<polygon fill="midnightblue" stroke="midnightblue" points="244.65,-109.19 254.77,-112.32 248.81,-103.56 244.65,-109.19"/>
</g>
<!-- Node6 -->
<g id="node6" class="node">
<title>Node6</title>
<g id="a_node6"><a xlink:href="classProcess.html" target="_top" xlink:title="Classe de base de TRUST (notamment Objet_U). Elle fournit quelques services de base accessibles de pa...">
<polygon fill="white" stroke="black" points="239.5,-168.5 239.5,-187.5 293.5,-187.5 293.5,-168.5 239.5,-168.5"/>
<text text-anchor="middle" x="266.5" y="-175.5" font-family="Helvetica,sans-Serif" font-size="10.00">Process</text>
</a>
</g>
</g>
<!-- Node6&#45;&gt;Node5 -->
<g id="edge5" class="edge">
<title>Node6&#45;&gt;Node5</title>
<path fill="none" stroke="midnightblue" d="M266.5,-157.8C266.5,-148.91 266.5,-138.78 266.5,-131.75"/>
<polygon fill="midnightblue" stroke="midnightblue" points="263,-158.08 266.5,-168.08 270,-158.08 263,-158.08"/>
</g>
<!-- Node7 -->
<g id="node7" class="node">
<title>Node7</title>
<g id="a_node7"><a xlink:href="classTerme__Source__inc.html" target="_top" xlink:title=" ">
<polygon fill="white" stroke="black" points="250.5,-56.5 250.5,-75.5 354.5,-75.5 354.5,-56.5 250.5,-56.5"/>
<text text-anchor="middle" x="302.5" y="-63.5" font-family="Helvetica,sans-Serif" font-size="10.00">Terme_Source_inc</text>
</a>
</g>
</g>
<!-- Node7&#45;&gt;Node1 -->
<g id="edge6" class="edge">
<title>Node7&#45;&gt;Node1</title>
<path fill="none" stroke="midnightblue" d="M286.21,-49C276.46,-39.43 264.45,-27.64 256.41,-19.75"/>
<polygon fill="midnightblue" stroke="midnightblue" points="283.83,-51.57 293.42,-56.08 288.73,-46.58 283.83,-51.57"/>
</g>
</g>
</svg>
