<?xml version="1.0" encoding="UTF-8" standalone="no"?>
<!DOCTYPE svg PUBLIC "-//W3C//DTD SVG 1.1//EN"
 "http://www.w3.org/Graphics/SVG/1.1/DTD/svg11.dtd">
<!-- Generated by graphviz version 2.43.0 (0)
 -->
<!-- Title: Champ_front_fonc_gradient_VEF Pages: 1 -->
<svg width="184pt" height="532pt"
 viewBox="0.00 0.00 184.00 532.00" xmlns="http://www.w3.org/2000/svg" xmlns:xlink="http://www.w3.org/1999/xlink">
<g id="graph0" class="graph" transform="scale(1 1) rotate(0) translate(4 528)">
<title>Champ_front_fonc_gradient_VEF</title>
<polygon fill="white" stroke="transparent" points="-4,4 -4,-528 180,-528 180,4 -4,4"/>
<!-- Node1 -->
<g id="node1" class="node">
<title>Node1</title>
<g id="a_node1"><a xlink:title="class Champ_front_fonc_gradient_VEF Classe derivee de Champ_front_base">
<polygon fill="#bfbfbf" stroke="black" points="0,-0.5 0,-19.5 176,-19.5 176,-0.5 0,-0.5"/>
<text text-anchor="middle" x="88" y="-7.5" font-family="Helvetica,sans-Serif" font-size="10.00">Champ_front_fonc_gradient_VEF</text>
</a>
</g>
</g>
<!-- Node2 -->
<g id="node2" class="node">
<title>Node2</title>
<g id="a_node2"><a xlink:href="classChamp__front__fonc__gradient.html" target="_top" xlink:title="class Champ_front_fonc_gradient Classe derivee de Champ_front_base">
<polygon fill="white" stroke="black" points="12,-56.5 12,-75.5 164,-75.5 164,-56.5 12,-56.5"/>
<text text-anchor="middle" x="88" y="-63.5" font-family="Helvetica,sans-Serif" font-size="10.00">Champ_front_fonc_gradient</text>
</a>
</g>
</g>
<!-- Node2&#45;&gt;Node1 -->
<g id="edge1" class="edge">
<title>Node2&#45;&gt;Node1</title>
<path fill="none" stroke="midnightblue" d="M88,-45.8C88,-36.91 88,-26.78 88,-19.75"/>
<polygon fill="midnightblue" stroke="midnightblue" points="84.5,-46.08 88,-56.08 91.5,-46.08 84.5,-46.08"/>
</g>
<!-- Node3 -->
<g id="node3" class="node">
<title>Node3</title>
<g id="a_node3"><a xlink:href="classChamp__front__tangentiel.html" target="_top" xlink:title="class Champ_front_tangentiel">
<polygon fill="white" stroke="black" points="21,-112.5 21,-131.5 155,-131.5 155,-112.5 21,-112.5"/>
<text text-anchor="middle" x="88" y="-119.5" font-family="Helvetica,sans-Serif" font-size="10.00">Champ_front_tangentiel</text>
</a>
</g>
</g>
<!-- Node3&#45;&gt;Node2 -->
<g id="edge2" class="edge">
<title>Node3&#45;&gt;Node2</title>
<path fill="none" stroke="midnightblue" d="M88,-101.8C88,-92.91 88,-82.78 88,-75.75"/>
<polygon fill="midnightblue" stroke="midnightblue" points="84.5,-102.08 88,-112.08 91.5,-102.08 84.5,-102.08"/>
</g>
<!-- Node4 -->
<g id="node4" class="node">
<title>Node4</title>
<g id="a_node4"><a xlink:href="classCh__front__var__instationnaire__dep.html" target="_top" xlink:title="classe Ch_front_var_instationnaire_dep Cette classe abstraite represente un champ sur une frontiere,...">
<polygon fill="white" stroke="black" points="0.5,-168.5 0.5,-187.5 175.5,-187.5 175.5,-168.5 0.5,-168.5"/>
<text text-anchor="middle" x="88" y="-175.5" font-family="Helvetica,sans-Serif" font-size="10.00">Ch_front_var_instationnaire_dep</text>
</a>
</g>
</g>
<!-- Node4&#45;&gt;Node3 -->
<g id="edge3" class="edge">
<title>Node4&#45;&gt;Node3</title>
<path fill="none" stroke="midnightblue" d="M88,-157.8C88,-148.91 88,-138.78 88,-131.75"/>
<polygon fill="midnightblue" stroke="midnightblue" points="84.5,-158.08 88,-168.08 91.5,-158.08 84.5,-158.08"/>
</g>
<!-- Node5 -->
<g id="node5" class="node">
<title>Node5</title>
<g id="a_node5"><a xlink:href="classChamp__front__var__instationnaire.html" target="_top" xlink:title="classe Champ_front_var_instationnaire Classe derivee de Champ_front_var qui represente les champs aux...">
<polygon fill="white" stroke="black" points="1.5,-224.5 1.5,-243.5 174.5,-243.5 174.5,-224.5 1.5,-224.5"/>
<text text-anchor="middle" x="88" y="-231.5" font-family="Helvetica,sans-Serif" font-size="10.00">Champ_front_var_instationnaire</text>
</a>
</g>
</g>
<!-- Node5&#45;&gt;Node4 -->
<g id="edge4" class="edge">
<title>Node5&#45;&gt;Node4</title>
<path fill="none" stroke="midnightblue" d="M88,-213.8C88,-204.91 88,-194.78 88,-187.75"/>
<polygon fill="midnightblue" stroke="midnightblue" points="84.5,-214.08 88,-224.08 91.5,-214.08 84.5,-214.08"/>
</g>
<!-- Node6 -->
<g id="node6" class="node">
<title>Node6</title>
<g id="a_node6"><a xlink:href="classChamp__front__var.html" target="_top" xlink:title="classe Champ_front_var Classe derivee de Champ_front_base qui represente un champ sur une frontiere v...">
<polygon fill="white" stroke="black" points="37.5,-280.5 37.5,-299.5 138.5,-299.5 138.5,-280.5 37.5,-280.5"/>
<text text-anchor="middle" x="88" y="-287.5" font-family="Helvetica,sans-Serif" font-size="10.00">Champ_front_var</text>
</a>
</g>
</g>
<!-- Node6&#45;&gt;Node5 -->
<g id="edge5" class="edge">
<title>Node6&#45;&gt;Node5</title>
<path fill="none" stroke="midnightblue" d="M88,-269.8C88,-260.91 88,-250.78 88,-243.75"/>
<polygon fill="midnightblue" stroke="midnightblue" points="84.5,-270.08 88,-280.08 91.5,-270.08 84.5,-270.08"/>
</g>
<!-- Node7 -->
<g id="node7" class="node">
<title>Node7</title>
<g id="a_node7"><a xlink:href="classChamp__front__base.html" target="_top" xlink:title="classe Champ_front_base Classe de base pour la hierarchie des champs aux frontieres....">
<polygon fill="white" stroke="black" points="34,-336.5 34,-355.5 142,-355.5 142,-336.5 34,-336.5"/>
<text text-anchor="middle" x="88" y="-343.5" font-family="Helvetica,sans-Serif" font-size="10.00">Champ_front_base</text>
</a>
</g>
</g>
<!-- Node7&#45;&gt;Node6 -->
<g id="edge6" class="edge">
<title>Node7&#45;&gt;Node6</title>
<path fill="none" stroke="midnightblue" d="M88,-325.8C88,-316.91 88,-306.78 88,-299.75"/>
<polygon fill="midnightblue" stroke="midnightblue" points="84.5,-326.08 88,-336.08 91.5,-326.08 84.5,-326.08"/>
</g>
<!-- Node8 -->
<g id="node8" class="node">
<title>Node8</title>
<g id="a_node8"><a xlink:href="classField__base.html" target="_top" xlink:title=" ">
<polygon fill="white" stroke="black" points="8,-392.5 8,-411.5 76,-411.5 76,-392.5 8,-392.5"/>
<text text-anchor="middle" x="42" y="-399.5" font-family="Helvetica,sans-Serif" font-size="10.00">Field_base</text>
</a>
</g>
</g>
<!-- Node8&#45;&gt;Node7 -->
<g id="edge7" class="edge">
<title>Node8&#45;&gt;Node7</title>
<path fill="none" stroke="midnightblue" d="M56.11,-384.43C64.18,-374.97 73.96,-363.48 80.55,-355.75"/>
<polygon fill="midnightblue" stroke="midnightblue" points="53.42,-382.2 49.6,-392.08 58.75,-386.74 53.42,-382.2"/>
</g>
<!-- Node9 -->
<g id="node9" class="node">
<title>Node9</title>
<g id="a_node9"><a xlink:href="classObjet__U.html" target="_top" xlink:title="classe Objet_U Cette classe est la classe de base des Objets de TRUST Dans les classes derivees de Ob...">
<polygon fill="white" stroke="black" points="14,-448.5 14,-467.5 70,-467.5 70,-448.5 14,-448.5"/>
<text text-anchor="middle" x="42" y="-455.5" font-family="Helvetica,sans-Serif" font-size="10.00">Objet_U</text>
</a>
</g>
</g>
<!-- Node9&#45;&gt;Node8 -->
<g id="edge8" class="edge">
<title>Node9&#45;&gt;Node8</title>
<path fill="none" stroke="midnightblue" d="M42,-437.8C42,-428.91 42,-418.78 42,-411.75"/>
<polygon fill="midnightblue" stroke="midnightblue" points="38.5,-438.08 42,-448.08 45.5,-438.08 38.5,-438.08"/>
</g>
<!-- Node10 -->
<g id="node10" class="node">
<title>Node10</title>
<g id="a_node10"><a xlink:href="classProcess.html" target="_top" xlink:title="Classe de base de TRUST (notamment Objet_U). Elle fournit quelques services de base accessibles de pa...">
<polygon fill="white" stroke="black" points="15,-504.5 15,-523.5 69,-523.5 69,-504.5 15,-504.5"/>
<text text-anchor="middle" x="42" y="-511.5" font-family="Helvetica,sans-Serif" font-size="10.00">Process</text>
</a>
</g>
</g>
<!-- Node10&#45;&gt;Node9 -->
<g id="edge9" class="edge">
<title>Node10&#45;&gt;Node9</title>
<path fill="none" stroke="midnightblue" d="M42,-493.8C42,-484.91 42,-474.78 42,-467.75"/>
<polygon fill="midnightblue" stroke="midnightblue" points="38.5,-494.08 42,-504.08 45.5,-494.08 38.5,-494.08"/>
</g>
<!-- Node11 -->
<g id="node11" class="node">
<title>Node11</title>
<g id="a_node11"><a xlink:href="classChamp__Proto.html" target="_top" xlink:title="classe Champ_Proto Classe representant un prototype de Champ. Tous les classes representant des champ...">
<polygon fill="white" stroke="black" points="94,-392.5 94,-411.5 176,-411.5 176,-392.5 94,-392.5"/>
<text text-anchor="middle" x="135" y="-399.5" font-family="Helvetica,sans-Serif" font-size="10.00">Champ_Proto</text>
</a>
</g>
</g>
<!-- Node11&#45;&gt;Node7 -->
<g id="edge10" class="edge">
<title>Node11&#45;&gt;Node7</title>
<path fill="none" stroke="midnightblue" d="M120.58,-384.43C112.34,-374.97 102.35,-363.48 95.62,-355.75"/>
<polygon fill="midnightblue" stroke="midnightblue" points="118.03,-386.84 127.24,-392.08 123.31,-382.24 118.03,-386.84"/>
</g>
</g>
</svg>
