<?xml version="1.0" encoding="UTF-8" standalone="no"?>
<!DOCTYPE svg PUBLIC "-//W3C//DTD SVG 1.1//EN"
 "http://www.w3.org/Graphics/SVG/1.1/DTD/svg11.dtd">
<!-- Generated by graphviz version 2.43.0 (0)
 -->
<!-- Title: Champ_Don_lu Pages: 1 -->
<svg width="283pt" height="459pt"
 viewBox="0.00 0.00 282.50 459.00" xmlns="http://www.w3.org/2000/svg" xmlns:xlink="http://www.w3.org/1999/xlink">
<g id="graph0" class="graph" transform="scale(1 1) rotate(0) translate(4 455)">
<title>Champ_Don_lu</title>
<polygon fill="white" stroke="transparent" points="-4,4 -4,-455 278.5,-455 278.5,4 -4,4"/>
<!-- Node1 -->
<g id="node1" class="node">
<title>Node1</title>
<g id="a_node1"><a xlink:title=": class Champ_Don_lu Cette classe represente un champ de donnees que l&#39;on lit dans un fichier avec le...">
<polygon fill="#bfbfbf" stroke="black" points="35.5,-0.5 35.5,-19.5 125.5,-19.5 125.5,-0.5 35.5,-0.5"/>
<text text-anchor="middle" x="80.5" y="-7.5" font-family="Helvetica,sans-Serif" font-size="10.00">Champ_Don_lu</text>
</a>
</g>
</g>
<!-- Node2 -->
<g id="node2" class="node">
<title>Node2</title>
<g id="a_node2"><a xlink:href="classTRUSTChamp__Don__generique.html" target="_top" xlink:title=" ">
<polygon fill="white" stroke="black" points="0,-57.5 0,-87.5 161,-87.5 161,-57.5 0,-57.5"/>
<text text-anchor="start" x="8" y="-75.5" font-family="Helvetica,sans-Serif" font-size="10.00">TRUSTChamp_Don_generique</text>
<text text-anchor="middle" x="80.5" y="-64.5" font-family="Helvetica,sans-Serif" font-size="10.00">&lt; Champ_Don_Type::LU &gt;</text>
</a>
</g>
</g>
<!-- Node2&#45;&gt;Node1 -->
<g id="edge1" class="edge">
<title>Node2&#45;&gt;Node1</title>
<path fill="none" stroke="midnightblue" d="M80.5,-47.35C80.5,-37.51 80.5,-26.78 80.5,-19.54"/>
<polygon fill="midnightblue" stroke="midnightblue" points="77,-47.47 80.5,-57.47 84,-47.47 77,-47.47"/>
</g>
<!-- Node3 -->
<g id="node3" class="node">
<title>Node3</title>
<g id="a_node3"><a xlink:href="classChamp__Don__base.html" target="_top" xlink:title=" ">
<polygon fill="white" stroke="black" points="134.5,-203.5 134.5,-222.5 238.5,-222.5 238.5,-203.5 134.5,-203.5"/>
<text text-anchor="middle" x="186.5" y="-210.5" font-family="Helvetica,sans-Serif" font-size="10.00">Champ_Don_base</text>
</a>
</g>
</g>
<!-- Node3&#45;&gt;Node2 -->
<g id="edge2" class="edge">
<title>Node3&#45;&gt;Node2</title>
<path fill="none" stroke="midnightblue" d="M198.86,-195.03C213.69,-172.43 234.11,-132.26 213.5,-106 206.23,-96.75 184.7,-89.79 161.01,-84.74"/>
<polygon fill="midnightblue" stroke="midnightblue" points="195.97,-193.07 193.18,-203.29 201.73,-197.04 195.97,-193.07"/>
</g>
<!-- Node10 -->
<g id="node10" class="node">
<title>Node10</title>
<g id="a_node10"><a xlink:href="classTRUSTChamp__Don__generique.html" target="_top" xlink:title=" ">
<polygon fill="white" stroke="black" points="38,-135.5 38,-165.5 199,-165.5 199,-135.5 38,-135.5"/>
<text text-anchor="start" x="46" y="-153.5" font-family="Helvetica,sans-Serif" font-size="10.00">TRUSTChamp_Don_generique</text>
<text text-anchor="middle" x="118.5" y="-142.5" font-family="Helvetica,sans-Serif" font-size="10.00">&lt; _TYPE_ &gt;</text>
</a>
</g>
</g>
<!-- Node3&#45;&gt;Node10 -->
<g id="edge10" class="edge">
<title>Node3&#45;&gt;Node10</title>
<path fill="none" stroke="midnightblue" d="M169.21,-196.62C158.45,-187.05 144.72,-174.83 134.26,-165.53"/>
<polygon fill="midnightblue" stroke="midnightblue" points="166.96,-199.3 176.76,-203.33 171.61,-194.07 166.96,-199.3"/>
</g>
<!-- Node4 -->
<g id="node4" class="node">
<title>Node4</title>
<g id="a_node4"><a xlink:href="classChamp__base.html" target="_top" xlink:title="classe Champ_base Cette classe est la base de la hierarchie des champs. Ses membres sont les attribut...">
<polygon fill="white" stroke="black" points="146.5,-260.5 146.5,-279.5 226.5,-279.5 226.5,-260.5 146.5,-260.5"/>
<text text-anchor="middle" x="186.5" y="-267.5" font-family="Helvetica,sans-Serif" font-size="10.00">Champ_base</text>
</a>
</g>
</g>
<!-- Node4&#45;&gt;Node3 -->
<g id="edge3" class="edge">
<title>Node4&#45;&gt;Node3</title>
<path fill="none" stroke="midnightblue" d="M186.5,-250.12C186.5,-240.82 186.5,-230.06 186.5,-222.71"/>
<polygon fill="midnightblue" stroke="midnightblue" points="183,-250.41 186.5,-260.41 190,-250.41 183,-250.41"/>
</g>
<!-- Node5 -->
<g id="node5" class="node">
<title>Node5</title>
<g id="a_node5"><a xlink:href="classField__base.html" target="_top" xlink:title=" ">
<polygon fill="white" stroke="black" points="106.5,-317.5 106.5,-336.5 174.5,-336.5 174.5,-317.5 106.5,-317.5"/>
<text text-anchor="middle" x="140.5" y="-324.5" font-family="Helvetica,sans-Serif" font-size="10.00">Field_base</text>
</a>
</g>
</g>
<!-- Node5&#45;&gt;Node4 -->
<g id="edge4" class="edge">
<title>Node5&#45;&gt;Node4</title>
<path fill="none" stroke="midnightblue" d="M154.27,-309.53C162.47,-299.74 172.53,-287.7 179.21,-279.71"/>
<polygon fill="midnightblue" stroke="midnightblue" points="151.42,-307.49 147.69,-317.41 156.79,-311.98 151.42,-307.49"/>
</g>
<!-- Node6 -->
<g id="node6" class="node">
<title>Node6</title>
<g id="a_node6"><a xlink:href="classObjet__U.html" target="_top" xlink:title="classe Objet_U Cette classe est la classe de base des Objets de TRUST Dans les classes derivees de Ob...">
<polygon fill="white" stroke="black" points="112.5,-374.5 112.5,-393.5 168.5,-393.5 168.5,-374.5 112.5,-374.5"/>
<text text-anchor="middle" x="140.5" y="-381.5" font-family="Helvetica,sans-Serif" font-size="10.00">Objet_U</text>
</a>
</g>
</g>
<!-- Node6&#45;&gt;Node5 -->
<g id="edge5" class="edge">
<title>Node6&#45;&gt;Node5</title>
<path fill="none" stroke="midnightblue" d="M140.5,-364.12C140.5,-354.82 140.5,-344.06 140.5,-336.71"/>
<polygon fill="midnightblue" stroke="midnightblue" points="137,-364.41 140.5,-374.41 144,-364.41 137,-364.41"/>
</g>
<!-- Node7 -->
<g id="node7" class="node">
<title>Node7</title>
<g id="a_node7"><a xlink:href="classProcess.html" target="_top" xlink:title="Classe de base de TRUST (notamment Objet_U). Elle fournit quelques services de base accessibles de pa...">
<polygon fill="white" stroke="black" points="113.5,-431.5 113.5,-450.5 167.5,-450.5 167.5,-431.5 113.5,-431.5"/>
<text text-anchor="middle" x="140.5" y="-438.5" font-family="Helvetica,sans-Serif" font-size="10.00">Process</text>
</a>
</g>
</g>
<!-- Node7&#45;&gt;Node6 -->
<g id="edge6" class="edge">
<title>Node7&#45;&gt;Node6</title>
<path fill="none" stroke="midnightblue" d="M140.5,-421.12C140.5,-411.82 140.5,-401.06 140.5,-393.71"/>
<polygon fill="midnightblue" stroke="midnightblue" points="137,-421.41 140.5,-431.41 144,-421.41 137,-421.41"/>
</g>
<!-- Node8 -->
<g id="node8" class="node">
<title>Node8</title>
<g id="a_node8"><a xlink:href="classChamp__Proto.html" target="_top" xlink:title="classe Champ_Proto Classe representant un prototype de Champ. Tous les classes representant des champ...">
<polygon fill="white" stroke="black" points="192.5,-317.5 192.5,-336.5 274.5,-336.5 274.5,-317.5 192.5,-317.5"/>
<text text-anchor="middle" x="233.5" y="-324.5" font-family="Helvetica,sans-Serif" font-size="10.00">Champ_Proto</text>
</a>
</g>
</g>
<!-- Node8&#45;&gt;Node4 -->
<g id="edge7" class="edge">
<title>Node8&#45;&gt;Node4</title>
<path fill="none" stroke="midnightblue" d="M219.43,-309.53C211.06,-299.74 200.77,-287.7 193.95,-279.71"/>
<polygon fill="midnightblue" stroke="midnightblue" points="217,-312.08 226.16,-317.41 222.32,-307.53 217,-312.08"/>
</g>
<!-- Node9 -->
<g id="node9" class="node">
<title>Node9</title>
<g id="a_node9"><a xlink:href="classParser__Eval.html" target="_top" xlink:title="Classe Parser_Eval Cette classe a pour fonction d evaleur les valeurs prises par une fonction analyti...">
<polygon fill="white" stroke="black" points="22,-203.5 22,-222.5 95,-222.5 95,-203.5 22,-203.5"/>
<text text-anchor="middle" x="58.5" y="-210.5" font-family="Helvetica,sans-Serif" font-size="10.00">Parser_Eval</text>
</a>
</g>
</g>
<!-- Node9&#45;&gt;Node2 -->
<g id="edge8" class="edge">
<title>Node9&#45;&gt;Node2</title>
<path fill="none" stroke="midnightblue" d="M44.23,-195.29C38.11,-187.05 31.65,-176.6 28.5,-166 24.57,-152.79 23.76,-147.94 28.5,-135 35.42,-116.09 51.01,-99 63.32,-87.66"/>
<polygon fill="midnightblue" stroke="midnightblue" points="41.61,-197.62 50.56,-203.29 47.1,-193.28 41.61,-197.62"/>
</g>
<!-- Node9&#45;&gt;Node10 -->
<g id="edge11" class="edge">
<title>Node9&#45;&gt;Node10</title>
<path fill="none" stroke="midnightblue" d="M74.26,-196.11C83.6,-186.69 95.32,-174.87 104.36,-165.76"/>
<polygon fill="midnightblue" stroke="midnightblue" points="71.65,-193.77 67.1,-203.33 76.62,-198.7 71.65,-193.77"/>
</g>
<!-- Node10&#45;&gt;Node2 -->
<g id="edge9" class="edge">
<title>Node10&#45;&gt;Node2</title>
<path fill="none" stroke="orange" stroke-dasharray="5,2" d="M89.25,-128.39C86.14,-124.93 83.42,-121.12 81.5,-117 77.28,-107.96 77.15,-96.68 78.01,-87.87"/>
<polygon fill="orange" stroke="orange" points="86.86,-130.95 96.5,-135.35 91.71,-125.9 86.86,-130.95"/>
<text text-anchor="middle" x="147.5" y="-109" font-family="Helvetica,sans-Serif" font-size="10.00"> &lt; Champ_Don_Type::LU &gt;</text>
</g>
</g>
</svg>
