<?xml version="1.0" encoding="UTF-8" standalone="no"?>
<!DOCTYPE svg PUBLIC "-//W3C//DTD SVG 1.1//EN"
 "http://www.w3.org/Graphics/SVG/1.1/DTD/svg11.dtd">
<!-- Generated by graphviz version 2.43.0 (0)
 -->
<!-- Title: Perte_Charge_Isotrope_PolyMAC_Face Pages: 1 -->
<svg width="372pt" height="263pt"
 viewBox="0.00 0.00 372.00 263.00" xmlns="http://www.w3.org/2000/svg" xmlns:xlink="http://www.w3.org/1999/xlink">
<g id="graph0" class="graph" transform="scale(1 1) rotate(0) translate(4 259)">
<title>Perte_Charge_Isotrope_PolyMAC_Face</title>
<polygon fill="white" stroke="transparent" points="-4,4 -4,-259 368,-259 368,4 -4,4"/>
<!-- Node1 -->
<g id="node1" class="node">
<title>Node1</title>
<g id="a_node1"><a xlink:title=" ">
<polygon fill="#bfbfbf" stroke="black" points="187,-0.5 187,-30.5 314,-30.5 314,-0.5 187,-0.5"/>
<text text-anchor="start" x="195" y="-18.5" font-family="Helvetica,sans-Serif" font-size="10.00">Perte_Charge_Isotrope</text>
<text text-anchor="middle" x="250.5" y="-7.5" font-family="Helvetica,sans-Serif" font-size="10.00">_PolyMAC_Face</text>
</a>
</g>
</g>
<!-- Node2 -->
<g id="node2" class="node">
<title>Node2</title>
<g id="a_node2"><a xlink:href="classPerte__Charge__PolyMAC.html" target="_top" xlink:title=" ">
<polygon fill="white" stroke="black" points="185,-67.5 185,-86.5 316,-86.5 316,-67.5 185,-67.5"/>
<text text-anchor="middle" x="250.5" y="-74.5" font-family="Helvetica,sans-Serif" font-size="10.00">Perte_Charge_PolyMAC</text>
</a>
</g>
</g>
<!-- Node2&#45;&gt;Node1 -->
<g id="edge1" class="edge">
<title>Node2&#45;&gt;Node1</title>
<path fill="none" stroke="midnightblue" d="M250.5,-57.23C250.5,-48.59 250.5,-38.5 250.5,-30.52"/>
<polygon fill="midnightblue" stroke="midnightblue" points="247,-57.48 250.5,-67.48 254,-57.48 247,-57.48"/>
</g>
<!-- Node3 -->
<g id="node3" class="node">
<title>Node3</title>
<g id="a_node3"><a xlink:href="classSource__base.html" target="_top" xlink:title="classe Source_base Un objet Source_base est un terme apparaissant au second membre d&#39;une equation....">
<polygon fill="white" stroke="black" points="154.5,-123.5 154.5,-142.5 232.5,-142.5 232.5,-123.5 154.5,-123.5"/>
<text text-anchor="middle" x="193.5" y="-130.5" font-family="Helvetica,sans-Serif" font-size="10.00">Source_base</text>
</a>
</g>
</g>
<!-- Node3&#45;&gt;Node2 -->
<g id="edge2" class="edge">
<title>Node3&#45;&gt;Node2</title>
<path fill="none" stroke="midnightblue" d="M210.12,-116.25C220.23,-106.67 232.78,-94.79 241.18,-86.83"/>
<polygon fill="midnightblue" stroke="midnightblue" points="207.51,-113.91 202.66,-123.32 212.32,-118.99 207.51,-113.91"/>
</g>
<!-- Node4 -->
<g id="node4" class="node">
<title>Node4</title>
<g id="a_node4"><a xlink:href="classChamps__compris__interface.html" target="_top" xlink:title="classe Champs_compris_interface Cette classe contient une interface de methodes destinees a gerer les...">
<polygon fill="white" stroke="black" points="0,-179.5 0,-198.5 149,-198.5 149,-179.5 0,-179.5"/>
<text text-anchor="middle" x="74.5" y="-186.5" font-family="Helvetica,sans-Serif" font-size="10.00">Champs_compris_interface</text>
</a>
</g>
</g>
<!-- Node4&#45;&gt;Node3 -->
<g id="edge3" class="edge">
<title>Node4&#45;&gt;Node3</title>
<path fill="none" stroke="midnightblue" d="M102.64,-175.23C124.9,-165.13 155.36,-151.31 174.73,-142.52"/>
<polygon fill="midnightblue" stroke="midnightblue" points="101.02,-172.12 93.36,-179.44 103.91,-178.5 101.02,-172.12"/>
</g>
<!-- Node5 -->
<g id="node5" class="node">
<title>Node5</title>
<g id="a_node5"><a xlink:href="classMorEqn.html" target="_top" xlink:title="classe MorEqn Classe qui regroupe les fonctionnalites de liaison avec une Equation....">
<polygon fill="white" stroke="black" points="167,-179.5 167,-198.5 220,-198.5 220,-179.5 167,-179.5"/>
<text text-anchor="middle" x="193.5" y="-186.5" font-family="Helvetica,sans-Serif" font-size="10.00">MorEqn</text>
</a>
</g>
</g>
<!-- Node5&#45;&gt;Node3 -->
<g id="edge4" class="edge">
<title>Node5&#45;&gt;Node3</title>
<path fill="none" stroke="midnightblue" d="M193.5,-168.8C193.5,-159.91 193.5,-149.78 193.5,-142.75"/>
<polygon fill="midnightblue" stroke="midnightblue" points="190,-169.08 193.5,-179.08 197,-169.08 190,-169.08"/>
</g>
<!-- Node6 -->
<g id="node6" class="node">
<title>Node6</title>
<g id="a_node6"><a xlink:href="classObjet__U.html" target="_top" xlink:title="classe Objet_U Cette classe est la classe de base des Objets de TRUST Dans les classes derivees de Ob...">
<polygon fill="white" stroke="black" points="238.5,-179.5 238.5,-198.5 294.5,-198.5 294.5,-179.5 238.5,-179.5"/>
<text text-anchor="middle" x="266.5" y="-186.5" font-family="Helvetica,sans-Serif" font-size="10.00">Objet_U</text>
</a>
</g>
</g>
<!-- Node6&#45;&gt;Node3 -->
<g id="edge5" class="edge">
<title>Node6&#45;&gt;Node3</title>
<path fill="none" stroke="midnightblue" d="M246.36,-173.1C233.22,-163.38 216.52,-151.03 205.44,-142.83"/>
<polygon fill="midnightblue" stroke="midnightblue" points="244.65,-176.19 254.77,-179.32 248.81,-170.56 244.65,-176.19"/>
</g>
<!-- Node7 -->
<g id="node7" class="node">
<title>Node7</title>
<g id="a_node7"><a xlink:href="classProcess.html" target="_top" xlink:title="Classe de base de TRUST (notamment Objet_U). Elle fournit quelques services de base accessibles de pa...">
<polygon fill="white" stroke="black" points="239.5,-235.5 239.5,-254.5 293.5,-254.5 293.5,-235.5 239.5,-235.5"/>
<text text-anchor="middle" x="266.5" y="-242.5" font-family="Helvetica,sans-Serif" font-size="10.00">Process</text>
</a>
</g>
</g>
<!-- Node7&#45;&gt;Node6 -->
<g id="edge6" class="edge">
<title>Node7&#45;&gt;Node6</title>
<path fill="none" stroke="midnightblue" d="M266.5,-224.8C266.5,-215.91 266.5,-205.78 266.5,-198.75"/>
<polygon fill="midnightblue" stroke="midnightblue" points="263,-225.08 266.5,-235.08 270,-225.08 263,-225.08"/>
</g>
<!-- Node8 -->
<g id="node8" class="node">
<title>Node8</title>
<g id="a_node8"><a xlink:href="classTerme__Source__Qdm.html" target="_top" xlink:title="Classe Terme_Source_Qdm Cette classe represente un terme source qui figure dans l&#39;equation de la dyna...">
<polygon fill="white" stroke="black" points="251,-123.5 251,-142.5 364,-142.5 364,-123.5 251,-123.5"/>
<text text-anchor="middle" x="307.5" y="-130.5" font-family="Helvetica,sans-Serif" font-size="10.00">Terme_Source_Qdm</text>
</a>
</g>
</g>
<!-- Node8&#45;&gt;Node2 -->
<g id="edge7" class="edge">
<title>Node8&#45;&gt;Node2</title>
<path fill="none" stroke="midnightblue" d="M290.88,-116.25C280.77,-106.67 268.22,-94.79 259.82,-86.83"/>
<polygon fill="midnightblue" stroke="midnightblue" points="288.68,-118.99 298.34,-123.32 293.49,-113.91 288.68,-118.99"/>
</g>
</g>
</svg>
