<?xml version="1.0" encoding="UTF-8" standalone="no"?>
<!DOCTYPE svg PUBLIC "-//W3C//DTD SVG 1.1//EN"
 "http://www.w3.org/Graphics/SVG/1.1/DTD/svg11.dtd">
<!-- Generated by graphviz version 2.43.0 (0)
 -->
<!-- Title: Modele_turbulence_scal Pages: 1 -->
<svg width="220pt" height="319pt"
 viewBox="0.00 0.00 220.00 319.00" xmlns="http://www.w3.org/2000/svg" xmlns:xlink="http://www.w3.org/1999/xlink">
<g id="graph0" class="graph" transform="scale(1 1) rotate(0) translate(4 315)">
<title>Modele_turbulence_scal</title>
<polygon fill="white" stroke="transparent" points="-4,4 -4,-315 216,-315 216,4 -4,4"/>
<!-- Node1 -->
<g id="node1" class="node">
<title>Node1</title>
<g id="a_node1"><a xlink:title=" ">
<polygon fill="#bfbfbf" stroke="black" points="16.5,-0.5 16.5,-19.5 150.5,-19.5 150.5,-0.5 16.5,-0.5"/>
<text text-anchor="middle" x="83.5" y="-7.5" font-family="Helvetica,sans-Serif" font-size="10.00">Modele_turbulence_scal</text>
</a>
</g>
</g>
<!-- Node2 -->
<g id="node2" class="node">
<title>Node2</title>
<g id="a_node2"><a xlink:href="classMorEqn.html" target="_top" xlink:title="classe MorEqn Classe qui regroupe les fonctionnalites de liaison avec une Equation....">
<polygon fill="white" stroke="black" points="0,-62 0,-81 53,-81 53,-62 0,-62"/>
<text text-anchor="middle" x="26.5" y="-69" font-family="Helvetica,sans-Serif" font-size="10.00">MorEqn</text>
</a>
</g>
</g>
<!-- Node2&#45;&gt;Node1 -->
<g id="edge1" class="edge">
<title>Node2&#45;&gt;Node1</title>
<path fill="none" stroke="midnightblue" d="M41.83,-54.5C52.62,-43.24 66.64,-28.6 75.35,-19.51"/>
<polygon fill="midnightblue" stroke="midnightblue" points="39.06,-52.33 34.67,-61.98 44.11,-57.18 39.06,-52.33"/>
</g>
<!-- Node3 -->
<g id="node3" class="node">
<title>Node3</title>
<g id="a_node3"><a xlink:href="classDeriv__Modele__turbulence__scal__base.html" target="_top" xlink:title="class Modele_turbulence_scal Cette classe represente n&#39;importe quelle classe derivee de Modele_turbul...">
<polygon fill="white" stroke="black" points="71,-56.5 71,-86.5 212,-86.5 212,-56.5 71,-56.5"/>
<text text-anchor="start" x="79" y="-74.5" font-family="Helvetica,sans-Serif" font-size="10.00">Deriv_Modele_turbulence</text>
<text text-anchor="middle" x="141.5" y="-63.5" font-family="Helvetica,sans-Serif" font-size="10.00">_scal_base</text>
</a>
</g>
</g>
<!-- Node3&#45;&gt;Node1 -->
<g id="edge2" class="edge">
<title>Node3&#45;&gt;Node1</title>
<path fill="none" stroke="midnightblue" d="M120.54,-49C110.66,-38.86 99.42,-27.33 91.94,-19.66"/>
<polygon fill="midnightblue" stroke="midnightblue" points="118.27,-51.68 127.75,-56.4 123.28,-46.8 118.27,-51.68"/>
</g>
<!-- Node4 -->
<g id="node4" class="node">
<title>Node4</title>
<g id="a_node4"><a xlink:href="classDeriv__.html" target="_top" xlink:title="Type de base de tous les types DERIV(TYPE). La classe est vide, elle sert de couche intermediaire pou...">
<polygon fill="white" stroke="black" points="117.5,-123.5 117.5,-142.5 165.5,-142.5 165.5,-123.5 117.5,-123.5"/>
<text text-anchor="middle" x="141.5" y="-130.5" font-family="Helvetica,sans-Serif" font-size="10.00">Deriv_</text>
</a>
</g>
</g>
<!-- Node4&#45;&gt;Node3 -->
<g id="edge3" class="edge">
<title>Node4&#45;&gt;Node3</title>
<path fill="none" stroke="midnightblue" d="M141.5,-113.23C141.5,-104.59 141.5,-94.5 141.5,-86.52"/>
<polygon fill="midnightblue" stroke="midnightblue" points="138,-113.48 141.5,-123.48 145,-113.48 138,-113.48"/>
</g>
<!-- Node5 -->
<g id="node5" class="node">
<title>Node5</title>
<g id="a_node5"><a xlink:href="classO__U__Ptr.html" target="_top" xlink:title="Pointeur sur un Objet_U. Le constructeur par defaut construit un pointeur &quot;nul&quot;. O_U_Ptr_H.">
<polygon fill="white" stroke="black" points="113.5,-179.5 113.5,-198.5 169.5,-198.5 169.5,-179.5 113.5,-179.5"/>
<text text-anchor="middle" x="141.5" y="-186.5" font-family="Helvetica,sans-Serif" font-size="10.00">O_U_Ptr</text>
</a>
</g>
</g>
<!-- Node5&#45;&gt;Node4 -->
<g id="edge4" class="edge">
<title>Node5&#45;&gt;Node4</title>
<path fill="none" stroke="midnightblue" d="M141.5,-168.8C141.5,-159.91 141.5,-149.78 141.5,-142.75"/>
<polygon fill="midnightblue" stroke="midnightblue" points="138,-169.08 141.5,-179.08 145,-169.08 138,-169.08"/>
</g>
<!-- Node6 -->
<g id="node6" class="node">
<title>Node6</title>
<g id="a_node6"><a xlink:href="classObjet__U.html" target="_top" xlink:title="classe Objet_U Cette classe est la classe de base des Objets de TRUST Dans les classes derivees de Ob...">
<polygon fill="white" stroke="black" points="113.5,-235.5 113.5,-254.5 169.5,-254.5 169.5,-235.5 113.5,-235.5"/>
<text text-anchor="middle" x="141.5" y="-242.5" font-family="Helvetica,sans-Serif" font-size="10.00">Objet_U</text>
</a>
</g>
</g>
<!-- Node6&#45;&gt;Node5 -->
<g id="edge5" class="edge">
<title>Node6&#45;&gt;Node5</title>
<path fill="none" stroke="midnightblue" d="M141.5,-224.8C141.5,-215.91 141.5,-205.78 141.5,-198.75"/>
<polygon fill="midnightblue" stroke="midnightblue" points="138,-225.08 141.5,-235.08 145,-225.08 138,-225.08"/>
</g>
<!-- Node7 -->
<g id="node7" class="node">
<title>Node7</title>
<g id="a_node7"><a xlink:href="classProcess.html" target="_top" xlink:title="Classe de base de TRUST (notamment Objet_U). Elle fournit quelques services de base accessibles de pa...">
<polygon fill="white" stroke="black" points="114.5,-291.5 114.5,-310.5 168.5,-310.5 168.5,-291.5 114.5,-291.5"/>
<text text-anchor="middle" x="141.5" y="-298.5" font-family="Helvetica,sans-Serif" font-size="10.00">Process</text>
</a>
</g>
</g>
<!-- Node7&#45;&gt;Node6 -->
<g id="edge6" class="edge">
<title>Node7&#45;&gt;Node6</title>
<path fill="none" stroke="midnightblue" d="M141.5,-280.8C141.5,-271.91 141.5,-261.78 141.5,-254.75"/>
<polygon fill="midnightblue" stroke="midnightblue" points="138,-281.08 141.5,-291.08 145,-281.08 138,-281.08"/>
</g>
</g>
</svg>
