<?xml version="1.0" encoding="UTF-8" standalone="no"?>
<!DOCTYPE svg PUBLIC "-//W3C//DTD SVG 1.1//EN"
 "http://www.w3.org/Graphics/SVG/1.1/DTD/svg11.dtd">
<!-- Generated by graphviz version 2.43.0 (0)
 -->
<!-- Title: Zone_VF Pages: 1 -->
<svg width="466pt" height="364pt"
 viewBox="0.00 0.00 466.00 364.00" xmlns="http://www.w3.org/2000/svg" xmlns:xlink="http://www.w3.org/1999/xlink">
<g id="graph0" class="graph" transform="scale(1 1) rotate(0) translate(4 360)">
<title>Zone_VF</title>
<polygon fill="white" stroke="transparent" points="-4,4 -4,-360 462,-360 462,4 -4,4"/>
<!-- Node1 -->
<g id="node1" class="node">
<title>Node1</title>
<g id="a_node1"><a xlink:title="class Zone_VF Cette classe abstraite contient les informations geometriques communes aux methodes de ...">
<polygon fill="#bfbfbf" stroke="black" points="211,-168.5 211,-187.5 270,-187.5 270,-168.5 211,-168.5"/>
<text text-anchor="middle" x="240.5" y="-175.5" font-family="Helvetica,sans-Serif" font-size="10.00">Zone_VF</text>
</a>
</g>
</g>
<!-- Node5 -->
<g id="node5" class="node">
<title>Node5</title>
<g id="a_node5"><a xlink:href="classZone__EF.html" target="_top" xlink:title="class Zone_EF Classe instanciable qui derive de Zone_VF. Cette classe contient les informations geome...">
<polygon fill="white" stroke="black" points="13,-112.5 13,-131.5 72,-131.5 72,-112.5 13,-112.5"/>
<text text-anchor="middle" x="42.5" y="-119.5" font-family="Helvetica,sans-Serif" font-size="10.00">Zone_EF</text>
</a>
</g>
</g>
<!-- Node1&#45;&gt;Node5 -->
<g id="edge4" class="edge">
<title>Node1&#45;&gt;Node5</title>
<path fill="none" stroke="midnightblue" d="M201.14,-166.26C163.1,-155.89 106.33,-140.41 72.02,-131.05"/>
<polygon fill="midnightblue" stroke="midnightblue" points="200.29,-169.66 210.86,-168.92 202.13,-162.91 200.29,-169.66"/>
</g>
<!-- Node7 -->
<g id="node7" class="node">
<title>Node7</title>
<g id="a_node7"><a xlink:href="classZone__Poly__base.html" target="_top" xlink:title="class Zone_Poly_base Classe instanciable qui derive de Zone_VF. Cette classe contient les information...">
<polygon fill="white" stroke="black" points="92.5,-112.5 92.5,-131.5 188.5,-131.5 188.5,-112.5 92.5,-112.5"/>
<text text-anchor="middle" x="140.5" y="-119.5" font-family="Helvetica,sans-Serif" font-size="10.00">Zone_Poly_base</text>
</a>
</g>
</g>
<!-- Node1&#45;&gt;Node7 -->
<g id="edge6" class="edge">
<title>Node1&#45;&gt;Node7</title>
<path fill="none" stroke="midnightblue" d="M215.41,-163.45C196.95,-153.48 172.4,-140.23 156.53,-131.65"/>
<polygon fill="midnightblue" stroke="midnightblue" points="213.97,-166.65 224.43,-168.32 217.3,-160.49 213.97,-166.65"/>
</g>
<!-- Node10 -->
<g id="node10" class="node">
<title>Node10</title>
<g id="a_node10"><a xlink:href="classZone__VDF.html" target="_top" xlink:title="class Zone_VDF Classe instanciable qui derive de Zone_VF. Cette classe contient les informations geom...">
<polygon fill="white" stroke="black" points="207,-112.5 207,-131.5 274,-131.5 274,-112.5 207,-112.5"/>
<text text-anchor="middle" x="240.5" y="-119.5" font-family="Helvetica,sans-Serif" font-size="10.00">Zone_VDF</text>
</a>
</g>
</g>
<!-- Node1&#45;&gt;Node10 -->
<g id="edge9" class="edge">
<title>Node1&#45;&gt;Node10</title>
<path fill="none" stroke="midnightblue" d="M240.5,-157.8C240.5,-148.91 240.5,-138.78 240.5,-131.75"/>
<polygon fill="midnightblue" stroke="midnightblue" points="237,-158.08 240.5,-168.08 244,-158.08 237,-158.08"/>
</g>
<!-- Node11 -->
<g id="node11" class="node">
<title>Node11</title>
<g id="a_node11"><a xlink:href="classZone__VEF.html" target="_top" xlink:title="class Zone_VEF Classe instanciable qui derive de Zone_VF. Cette classe contient les informations geom...">
<polygon fill="white" stroke="black" points="292,-112.5 292,-131.5 357,-131.5 357,-112.5 292,-112.5"/>
<text text-anchor="middle" x="324.5" y="-119.5" font-family="Helvetica,sans-Serif" font-size="10.00">Zone_VEF</text>
</a>
</g>
</g>
<!-- Node1&#45;&gt;Node11 -->
<g id="edge10" class="edge">
<title>Node1&#45;&gt;Node11</title>
<path fill="none" stroke="midnightblue" d="M262.43,-162.9C277.84,-153 297.95,-140.07 311.04,-131.65"/>
<polygon fill="midnightblue" stroke="midnightblue" points="260.52,-159.97 254,-168.32 264.3,-165.86 260.52,-159.97"/>
</g>
<!-- Node13 -->
<g id="node13" class="node">
<title>Node13</title>
<g id="a_node13"><a xlink:href="classZone__VF__inst.html" target="_top" xlink:title="class Zone_VF_inst Classe instanciable qui derive de Zone_VF. Cette classe ne sait rien faire !...">
<polygon fill="white" stroke="black" points="375,-112.5 375,-131.5 458,-131.5 458,-112.5 375,-112.5"/>
<text text-anchor="middle" x="416.5" y="-119.5" font-family="Helvetica,sans-Serif" font-size="10.00">Zone_VF_inst</text>
</a>
</g>
</g>
<!-- Node1&#45;&gt;Node13 -->
<g id="edge12" class="edge">
<title>Node1&#45;&gt;Node13</title>
<path fill="none" stroke="midnightblue" d="M278.19,-165.44C311.37,-155.26 358.93,-140.66 388.74,-131.52"/>
<polygon fill="midnightblue" stroke="midnightblue" points="276.92,-162.16 268.39,-168.44 278.97,-168.86 276.92,-162.16"/>
</g>
<!-- Node2 -->
<g id="node2" class="node">
<title>Node2</title>
<g id="a_node2"><a xlink:href="classZone__dis__base.html" target="_top" xlink:title="classe Zone_dis_base Cette classe est la base de la hierarchie des zones discretisees....">
<polygon fill="white" stroke="black" points="196,-224.5 196,-243.5 285,-243.5 285,-224.5 196,-224.5"/>
<text text-anchor="middle" x="240.5" y="-231.5" font-family="Helvetica,sans-Serif" font-size="10.00">Zone_dis_base</text>
</a>
</g>
</g>
<!-- Node2&#45;&gt;Node1 -->
<g id="edge1" class="edge">
<title>Node2&#45;&gt;Node1</title>
<path fill="none" stroke="midnightblue" d="M240.5,-213.8C240.5,-204.91 240.5,-194.78 240.5,-187.75"/>
<polygon fill="midnightblue" stroke="midnightblue" points="237,-214.08 240.5,-224.08 244,-214.08 237,-214.08"/>
</g>
<!-- Node3 -->
<g id="node3" class="node">
<title>Node3</title>
<g id="a_node3"><a xlink:href="classObjet__U.html" target="_top" xlink:title="classe Objet_U Cette classe est la classe de base des Objets de TRUST Dans les classes derivees de Ob...">
<polygon fill="white" stroke="black" points="212.5,-280.5 212.5,-299.5 268.5,-299.5 268.5,-280.5 212.5,-280.5"/>
<text text-anchor="middle" x="240.5" y="-287.5" font-family="Helvetica,sans-Serif" font-size="10.00">Objet_U</text>
</a>
</g>
</g>
<!-- Node3&#45;&gt;Node2 -->
<g id="edge2" class="edge">
<title>Node3&#45;&gt;Node2</title>
<path fill="none" stroke="midnightblue" d="M240.5,-269.8C240.5,-260.91 240.5,-250.78 240.5,-243.75"/>
<polygon fill="midnightblue" stroke="midnightblue" points="237,-270.08 240.5,-280.08 244,-270.08 237,-270.08"/>
</g>
<!-- Node4 -->
<g id="node4" class="node">
<title>Node4</title>
<g id="a_node4"><a xlink:href="classProcess.html" target="_top" xlink:title="Classe de base de TRUST (notamment Objet_U). Elle fournit quelques services de base accessibles de pa...">
<polygon fill="white" stroke="black" points="213.5,-336.5 213.5,-355.5 267.5,-355.5 267.5,-336.5 213.5,-336.5"/>
<text text-anchor="middle" x="240.5" y="-343.5" font-family="Helvetica,sans-Serif" font-size="10.00">Process</text>
</a>
</g>
</g>
<!-- Node4&#45;&gt;Node3 -->
<g id="edge3" class="edge">
<title>Node4&#45;&gt;Node3</title>
<path fill="none" stroke="midnightblue" d="M240.5,-325.8C240.5,-316.91 240.5,-306.78 240.5,-299.75"/>
<polygon fill="midnightblue" stroke="midnightblue" points="237,-326.08 240.5,-336.08 244,-326.08 237,-326.08"/>
</g>
<!-- Node6 -->
<g id="node6" class="node">
<title>Node6</title>
<g id="a_node6"><a xlink:href="classZone__EF__axi.html" target="_top" xlink:title=": class Zone_EF_axi &lt;Description of class Zone_EF_axi&gt;">
<polygon fill="white" stroke="black" points="0,-56.5 0,-75.5 79,-75.5 79,-56.5 0,-56.5"/>
<text text-anchor="middle" x="39.5" y="-63.5" font-family="Helvetica,sans-Serif" font-size="10.00">Zone_EF_axi</text>
</a>
</g>
</g>
<!-- Node5&#45;&gt;Node6 -->
<g id="edge5" class="edge">
<title>Node5&#45;&gt;Node6</title>
<path fill="none" stroke="midnightblue" d="M41.43,-101.8C40.94,-92.91 40.38,-82.78 39.99,-75.75"/>
<polygon fill="midnightblue" stroke="midnightblue" points="37.96,-102.29 42,-112.08 44.94,-101.9 37.96,-102.29"/>
</g>
<!-- Node8 -->
<g id="node8" class="node">
<title>Node8</title>
<g id="a_node8"><a xlink:href="classZone__PolyMAC.html" target="_top" xlink:title="class Zone_PolyMAC Classe instanciable qui derive de Zone_Poly_base. Cette classe contient les inform...">
<polygon fill="white" stroke="black" points="97.5,-56.5 97.5,-75.5 187.5,-75.5 187.5,-56.5 97.5,-56.5"/>
<text text-anchor="middle" x="142.5" y="-63.5" font-family="Helvetica,sans-Serif" font-size="10.00">Zone_PolyMAC</text>
</a>
</g>
</g>
<!-- Node7&#45;&gt;Node8 -->
<g id="edge7" class="edge">
<title>Node7&#45;&gt;Node8</title>
<path fill="none" stroke="midnightblue" d="M141.21,-101.8C141.54,-92.91 141.92,-82.78 142.18,-75.75"/>
<polygon fill="midnightblue" stroke="midnightblue" points="137.7,-101.96 140.83,-112.08 144.7,-102.22 137.7,-101.96"/>
</g>
<!-- Node9 -->
<g id="node9" class="node">
<title>Node9</title>
<g id="a_node9"><a xlink:href="classZone__PolyMAC__P0.html" target="_top" xlink:title="class Zone_PolyMAC_P0 Classe instanciable qui derive de Zone_VF. Cette classe contient les informatio...">
<polygon fill="white" stroke="black" points="89,-0.5 89,-19.5 196,-19.5 196,-0.5 89,-0.5"/>
<text text-anchor="middle" x="142.5" y="-7.5" font-family="Helvetica,sans-Serif" font-size="10.00">Zone_PolyMAC_P0</text>
</a>
</g>
</g>
<!-- Node8&#45;&gt;Node9 -->
<g id="edge8" class="edge">
<title>Node8&#45;&gt;Node9</title>
<path fill="none" stroke="midnightblue" d="M142.5,-45.8C142.5,-36.91 142.5,-26.78 142.5,-19.75"/>
<polygon fill="midnightblue" stroke="midnightblue" points="139,-46.08 142.5,-56.08 146,-46.08 139,-46.08"/>
</g>
<!-- Node12 -->
<g id="node12" class="node">
<title>Node12</title>
<g id="a_node12"><a xlink:href="classZone__VEF__PreP1b.html" target="_top" xlink:title=" ">
<polygon fill="white" stroke="black" points="272.5,-56.5 272.5,-75.5 376.5,-75.5 376.5,-56.5 272.5,-56.5"/>
<text text-anchor="middle" x="324.5" y="-63.5" font-family="Helvetica,sans-Serif" font-size="10.00">Zone_VEF_PreP1b</text>
</a>
</g>
</g>
<!-- Node11&#45;&gt;Node12 -->
<g id="edge11" class="edge">
<title>Node11&#45;&gt;Node12</title>
<path fill="none" stroke="midnightblue" d="M324.5,-101.8C324.5,-92.91 324.5,-82.78 324.5,-75.75"/>
<polygon fill="midnightblue" stroke="midnightblue" points="321,-102.08 324.5,-112.08 328,-102.08 321,-102.08"/>
</g>
</g>
</svg>
