<?xml version="1.0" encoding="UTF-8" standalone="no"?>
<!DOCTYPE svg PUBLIC "-//W3C//DTD SVG 1.1//EN"
 "http://www.w3.org/Graphics/SVG/1.1/DTD/svg11.dtd">
<!-- Generated by graphviz version 2.43.0 (0)
 -->
<!-- Title: Op_Conv_Centre4_VDF_Elem Pages: 1 -->
<svg width="427pt" height="345pt"
 viewBox="0.00 0.00 426.50 345.00" xmlns="http://www.w3.org/2000/svg" xmlns:xlink="http://www.w3.org/1999/xlink">
<g id="graph0" class="graph" transform="scale(1 1) rotate(0) translate(4 341)">
<title>Op_Conv_Centre4_VDF_Elem</title>
<polygon fill="white" stroke="transparent" points="-4,4 -4,-341 422.5,-341 422.5,4 -4,4"/>
<!-- Node1 -->
<g id="node1" class="node">
<title>Node1</title>
<g id="a_node1"><a xlink:title="class Op_Conv_Centre4_VDF_Elem Cette classe represente l&#39;operateur de convection associe a une equati...">
<polygon fill="#bfbfbf" stroke="black" points="99.5,-0.5 99.5,-19.5 258.5,-19.5 258.5,-0.5 99.5,-0.5"/>
<text text-anchor="middle" x="179" y="-7.5" font-family="Helvetica,sans-Serif" font-size="10.00">Op_Conv_Centre4_VDF_Elem</text>
</a>
</g>
</g>
<!-- Node2 -->
<g id="node2" class="node">
<title>Node2</title>
<g id="a_node2"><a xlink:href="classOp__Conv__VDF__base.html" target="_top" xlink:title="class Op_Conv_VDF_base Classe de base des operateurs de convection VDF">
<polygon fill="white" stroke="black" points="50,-63 50,-82 164,-82 164,-63 50,-63"/>
<text text-anchor="middle" x="107" y="-70" font-family="Helvetica,sans-Serif" font-size="10.00">Op_Conv_VDF_base</text>
</a>
</g>
</g>
<!-- Node2&#45;&gt;Node1 -->
<g id="edge1" class="edge">
<title>Node2&#45;&gt;Node1</title>
<path fill="none" stroke="midnightblue" d="M125.18,-56.22C138.96,-44.65 157.38,-29.17 168.7,-19.65"/>
<polygon fill="midnightblue" stroke="midnightblue" points="122.72,-53.72 117.32,-62.83 127.22,-59.08 122.72,-53.72"/>
</g>
<!-- Node3 -->
<g id="node3" class="node">
<title>Node3</title>
<g id="a_node3"><a xlink:href="classOperateur__Conv__base.html" target="_top" xlink:title="classe Operateur_Conv_base Cette classe est la base de la hierarchie des operateurs representant un t...">
<polygon fill="white" stroke="black" points="39,-146.5 39,-165.5 163,-165.5 163,-146.5 39,-146.5"/>
<text text-anchor="middle" x="101" y="-153.5" font-family="Helvetica,sans-Serif" font-size="10.00">Operateur_Conv_base</text>
</a>
</g>
</g>
<!-- Node3&#45;&gt;Node2 -->
<g id="edge2" class="edge">
<title>Node3&#45;&gt;Node2</title>
<path fill="none" stroke="midnightblue" d="M102.41,-135.88C103.66,-118.9 105.43,-94.87 106.36,-82.16"/>
<polygon fill="midnightblue" stroke="midnightblue" points="98.89,-136.05 101.64,-146.28 105.87,-136.56 98.89,-136.05"/>
</g>
<!-- Node4 -->
<g id="node4" class="node">
<title>Node4</title>
<g id="a_node4"><a xlink:href="classOperateur__base.html" target="_top" xlink:title="classe Operateur_base Classe est la base de la hierarchie des objets representant un operateur utilis...">
<polygon fill="white" stroke="black" points="54,-203.5 54,-222.5 148,-222.5 148,-203.5 54,-203.5"/>
<text text-anchor="middle" x="101" y="-210.5" font-family="Helvetica,sans-Serif" font-size="10.00">Operateur_base</text>
</a>
</g>
</g>
<!-- Node4&#45;&gt;Node3 -->
<g id="edge3" class="edge">
<title>Node4&#45;&gt;Node3</title>
<path fill="none" stroke="midnightblue" d="M101,-193.12C101,-183.82 101,-173.06 101,-165.71"/>
<polygon fill="midnightblue" stroke="midnightblue" points="97.5,-193.41 101,-203.41 104.5,-193.41 97.5,-193.41"/>
</g>
<!-- Node5 -->
<g id="node5" class="node">
<title>Node5</title>
<g id="a_node5"><a xlink:href="classObjet__U.html" target="_top" xlink:title="classe Objet_U Cette classe est la classe de base des Objets de TRUST Dans les classes derivees de Ob...">
<polygon fill="white" stroke="black" points="0,-260.5 0,-279.5 56,-279.5 56,-260.5 0,-260.5"/>
<text text-anchor="middle" x="28" y="-267.5" font-family="Helvetica,sans-Serif" font-size="10.00">Objet_U</text>
</a>
</g>
</g>
<!-- Node5&#45;&gt;Node4 -->
<g id="edge4" class="edge">
<title>Node5&#45;&gt;Node4</title>
<path fill="none" stroke="midnightblue" d="M47.53,-254.29C60.9,-244.21 78.19,-231.19 89.43,-222.71"/>
<polygon fill="midnightblue" stroke="midnightblue" points="45.29,-251.59 39.41,-260.41 49.5,-257.18 45.29,-251.59"/>
</g>
<!-- Node6 -->
<g id="node6" class="node">
<title>Node6</title>
<g id="a_node6"><a xlink:href="classProcess.html" target="_top" xlink:title="Classe de base de TRUST (notamment Objet_U). Elle fournit quelques services de base accessibles de pa...">
<polygon fill="white" stroke="black" points="1,-317.5 1,-336.5 55,-336.5 55,-317.5 1,-317.5"/>
<text text-anchor="middle" x="28" y="-324.5" font-family="Helvetica,sans-Serif" font-size="10.00">Process</text>
</a>
</g>
</g>
<!-- Node6&#45;&gt;Node5 -->
<g id="edge5" class="edge">
<title>Node6&#45;&gt;Node5</title>
<path fill="none" stroke="midnightblue" d="M28,-307.12C28,-297.82 28,-287.06 28,-279.71"/>
<polygon fill="midnightblue" stroke="midnightblue" points="24.5,-307.41 28,-317.41 31.5,-307.41 24.5,-307.41"/>
</g>
<!-- Node7 -->
<g id="node7" class="node">
<title>Node7</title>
<g id="a_node7"><a xlink:href="classMorEqn.html" target="_top" xlink:title="classe MorEqn Classe qui regroupe les fonctionnalites de liaison avec une Equation....">
<polygon fill="white" stroke="black" points="74.5,-260.5 74.5,-279.5 127.5,-279.5 127.5,-260.5 74.5,-260.5"/>
<text text-anchor="middle" x="101" y="-267.5" font-family="Helvetica,sans-Serif" font-size="10.00">MorEqn</text>
</a>
</g>
</g>
<!-- Node7&#45;&gt;Node4 -->
<g id="edge6" class="edge">
<title>Node7&#45;&gt;Node4</title>
<path fill="none" stroke="midnightblue" d="M101,-250.12C101,-240.82 101,-230.06 101,-222.71"/>
<polygon fill="midnightblue" stroke="midnightblue" points="97.5,-250.41 101,-260.41 104.5,-250.41 97.5,-250.41"/>
</g>
<!-- Node8 -->
<g id="node8" class="node">
<title>Node8</title>
<g id="a_node8"><a xlink:href="classChamps__compris__interface.html" target="_top" xlink:title="classe Champs_compris_interface Cette classe contient une interface de methodes destinees a gerer les...">
<polygon fill="white" stroke="black" points="145.5,-260.5 145.5,-279.5 294.5,-279.5 294.5,-260.5 145.5,-260.5"/>
<text text-anchor="middle" x="220" y="-267.5" font-family="Helvetica,sans-Serif" font-size="10.00">Champs_compris_interface</text>
</a>
</g>
</g>
<!-- Node8&#45;&gt;Node4 -->
<g id="edge7" class="edge">
<title>Node8&#45;&gt;Node4</title>
<path fill="none" stroke="midnightblue" d="M192.08,-256.1C169.69,-245.75 138.89,-231.51 119.46,-222.53"/>
<polygon fill="midnightblue" stroke="midnightblue" points="190.86,-259.39 201.41,-260.41 193.8,-253.03 190.86,-259.39"/>
</g>
<!-- Node9 -->
<g id="node9" class="node">
<title>Node9</title>
<g id="a_node9"><a xlink:href="classOp__Conv__VDF.html" target="_top" xlink:title=" ">
<polygon fill="white" stroke="black" points="183,-57.5 183,-87.5 323,-87.5 323,-57.5 183,-57.5"/>
<text text-anchor="start" x="191" y="-75.5" font-family="Helvetica,sans-Serif" font-size="10.00">Op_Conv_VDF&lt; Op_Conv</text>
<text text-anchor="middle" x="253" y="-64.5" font-family="Helvetica,sans-Serif" font-size="10.00">_Centre4_VDF_Elem &gt;</text>
</a>
</g>
</g>
<!-- Node9&#45;&gt;Node1 -->
<g id="edge8" class="edge">
<title>Node9&#45;&gt;Node1</title>
<path fill="none" stroke="midnightblue" d="M228.01,-51.07C214.85,-40.31 199.43,-27.7 189.45,-19.54"/>
<polygon fill="midnightblue" stroke="midnightblue" points="225.88,-53.85 235.84,-57.47 230.31,-48.43 225.88,-53.85"/>
</g>
<!-- Node10 -->
<g id="node10" class="node">
<title>Node10</title>
<g id="a_node10"><a xlink:href="classOp__VDF__Elem.html" target="_top" xlink:title=" ">
<polygon fill="white" stroke="black" points="209,-203.5 209,-222.5 295,-222.5 295,-203.5 209,-203.5"/>
<text text-anchor="middle" x="252" y="-210.5" font-family="Helvetica,sans-Serif" font-size="10.00">Op_VDF_Elem</text>
</a>
</g>
</g>
<!-- Node10&#45;&gt;Node9 -->
<g id="edge9" class="edge">
<title>Node10&#45;&gt;Node9</title>
<path fill="none" stroke="midnightblue" d="M232.55,-196.66C223.88,-188.58 214.61,-177.89 210,-166 206.79,-157.71 207.65,-154.57 210,-146 216.08,-123.84 230.87,-101.59 241.41,-87.7"/>
<polygon fill="midnightblue" stroke="midnightblue" points="230.34,-199.38 240.18,-203.31 234.93,-194.1 230.34,-199.38"/>
</g>
<!-- Node12 -->
<g id="node12" class="node">
<title>Node12</title>
<g id="a_node12"><a xlink:href="classOp__Conv__VDF.html" target="_top" xlink:title=" ">
<polygon fill="white" stroke="black" points="219.5,-146.5 219.5,-165.5 370.5,-165.5 370.5,-146.5 219.5,-146.5"/>
<text text-anchor="middle" x="295" y="-153.5" font-family="Helvetica,sans-Serif" font-size="10.00">Op_Conv_VDF&lt; OP_TYPE &gt;</text>
</a>
</g>
</g>
<!-- Node10&#45;&gt;Node12 -->
<g id="edge12" class="edge">
<title>Node10&#45;&gt;Node12</title>
<path fill="none" stroke="midnightblue" d="M265.11,-195.23C272.72,-185.49 282.01,-173.62 288.19,-165.71"/>
<polygon fill="midnightblue" stroke="midnightblue" points="262.12,-193.37 258.72,-203.41 267.64,-197.68 262.12,-193.37"/>
</g>
<!-- Node11 -->
<g id="node11" class="node">
<title>Node11</title>
<g id="a_node11"><a xlink:href="classOp__VDF__Face.html" target="_top" xlink:title=" ">
<polygon fill="white" stroke="black" points="335.5,-203.5 335.5,-222.5 418.5,-222.5 418.5,-203.5 335.5,-203.5"/>
<text text-anchor="middle" x="377" y="-210.5" font-family="Helvetica,sans-Serif" font-size="10.00">Op_VDF_Face</text>
</a>
</g>
</g>
<!-- Node11&#45;&gt;Node9 -->
<g id="edge10" class="edge">
<title>Node11&#45;&gt;Node9</title>
<path fill="none" stroke="midnightblue" d="M384.99,-194.24C393.96,-171.3 404.84,-131.32 385,-106 376.81,-95.55 350.33,-88.01 323.21,-82.84"/>
<polygon fill="midnightblue" stroke="midnightblue" points="381.76,-192.89 381.12,-203.47 388.21,-195.6 381.76,-192.89"/>
</g>
<!-- Node11&#45;&gt;Node12 -->
<g id="edge13" class="edge">
<title>Node11&#45;&gt;Node12</title>
<path fill="none" stroke="midnightblue" d="M355.87,-197.82C340.63,-187.61 320.57,-174.15 307.72,-165.53"/>
<polygon fill="midnightblue" stroke="midnightblue" points="353.93,-200.74 364.19,-203.41 357.83,-194.93 353.93,-200.74"/>
</g>
<!-- Node12&#45;&gt;Node9 -->
<g id="edge11" class="edge">
<title>Node12&#45;&gt;Node9</title>
<path fill="none" stroke="orange" stroke-dasharray="5,2" d="M268.81,-140.35C264.56,-136.84 260.68,-132.72 258,-128 251.06,-115.77 250.48,-99.46 251.21,-87.88"/>
<polygon fill="orange" stroke="orange" points="267.04,-143.39 277.22,-146.34 271.1,-137.69 267.04,-143.39"/>
<text text-anchor="start" x="258" y="-120" font-family="Helvetica,sans-Serif" font-size="10.00"> &lt; Op_Conv_Centre4_VDF</text>
<text text-anchor="middle" x="321.5" y="-109" font-family="Helvetica,sans-Serif" font-size="10.00">_Elem &gt;</text>
</g>
</g>
</svg>
