<?xml version="1.0" encoding="UTF-8" standalone="no"?>
<!DOCTYPE svg PUBLIC "-//W3C//DTD SVG 1.1//EN"
 "http://www.w3.org/Graphics/SVG/1.1/DTD/svg11.dtd">
<!-- Generated by graphviz version 2.43.0 (0)
 -->
<!-- Title: Champ_Generique_modifier_pour_QC Pages: 1 -->
<svg width="171pt" height="263pt"
 viewBox="0.00 0.00 171.00 263.00" xmlns="http://www.w3.org/2000/svg" xmlns:xlink="http://www.w3.org/1999/xlink">
<g id="graph0" class="graph" transform="scale(1 1) rotate(0) translate(4 259)">
<title>Champ_Generique_modifier_pour_QC</title>
<polygon fill="white" stroke="transparent" points="-4,4 -4,-259 167,-259 167,4 -4,4"/>
<!-- Node1 -->
<g id="node1" class="node">
<title>Node1</title>
<g id="a_node1"><a xlink:title="class Champ_Generique_modifier_pour_QC Champ destine a post&#45;traiter un champ d un probleme en quasi&#45;c...">
<polygon fill="#bfbfbf" stroke="black" points="5.5,-0.5 5.5,-30.5 157.5,-30.5 157.5,-0.5 5.5,-0.5"/>
<text text-anchor="start" x="13.5" y="-18.5" font-family="Helvetica,sans-Serif" font-size="10.00">Champ_Generique_modifier</text>
<text text-anchor="middle" x="81.5" y="-7.5" font-family="Helvetica,sans-Serif" font-size="10.00">_pour_QC</text>
</a>
</g>
</g>
<!-- Node2 -->
<g id="node2" class="node">
<title>Node2</title>
<g id="a_node2"><a xlink:href="classChamp__Gen__de__Champs__Gen.html" target="_top" xlink:title="Classe de base des champs generiques ayant comme source d&#39;autres champs generiques L&#39;utilisation des ...">
<polygon fill="white" stroke="black" points="0,-67.5 0,-86.5 163,-86.5 163,-67.5 0,-67.5"/>
<text text-anchor="middle" x="81.5" y="-74.5" font-family="Helvetica,sans-Serif" font-size="10.00">Champ_Gen_de_Champs_Gen</text>
</a>
</g>
</g>
<!-- Node2&#45;&gt;Node1 -->
<g id="edge1" class="edge">
<title>Node2&#45;&gt;Node1</title>
<path fill="none" stroke="midnightblue" d="M81.5,-57.23C81.5,-48.59 81.5,-38.5 81.5,-30.52"/>
<polygon fill="midnightblue" stroke="midnightblue" points="78,-57.48 81.5,-67.48 85,-57.48 78,-57.48"/>
</g>
<!-- Node3 -->
<g id="node3" class="node">
<title>Node3</title>
<g id="a_node3"><a xlink:href="classChamp__Generique__base.html" target="_top" xlink:title="Classe de base des champs generiques pour importation d un champ discret et actions elementaires sur ...">
<polygon fill="white" stroke="black" points="14,-123.5 14,-142.5 149,-142.5 149,-123.5 14,-123.5"/>
<text text-anchor="middle" x="81.5" y="-130.5" font-family="Helvetica,sans-Serif" font-size="10.00">Champ_Generique_base</text>
</a>
</g>
</g>
<!-- Node3&#45;&gt;Node2 -->
<g id="edge2" class="edge">
<title>Node3&#45;&gt;Node2</title>
<path fill="none" stroke="midnightblue" d="M81.5,-112.8C81.5,-103.91 81.5,-93.78 81.5,-86.75"/>
<polygon fill="midnightblue" stroke="midnightblue" points="78,-113.08 81.5,-123.08 85,-113.08 78,-113.08"/>
</g>
<!-- Node4 -->
<g id="node4" class="node">
<title>Node4</title>
<g id="a_node4"><a xlink:href="classObjet__U.html" target="_top" xlink:title="classe Objet_U Cette classe est la classe de base des Objets de TRUST Dans les classes derivees de Ob...">
<polygon fill="white" stroke="black" points="53.5,-179.5 53.5,-198.5 109.5,-198.5 109.5,-179.5 53.5,-179.5"/>
<text text-anchor="middle" x="81.5" y="-186.5" font-family="Helvetica,sans-Serif" font-size="10.00">Objet_U</text>
</a>
</g>
</g>
<!-- Node4&#45;&gt;Node3 -->
<g id="edge3" class="edge">
<title>Node4&#45;&gt;Node3</title>
<path fill="none" stroke="midnightblue" d="M81.5,-168.8C81.5,-159.91 81.5,-149.78 81.5,-142.75"/>
<polygon fill="midnightblue" stroke="midnightblue" points="78,-169.08 81.5,-179.08 85,-169.08 78,-169.08"/>
</g>
<!-- Node5 -->
<g id="node5" class="node">
<title>Node5</title>
<g id="a_node5"><a xlink:href="classProcess.html" target="_top" xlink:title="Classe de base de TRUST (notamment Objet_U). Elle fournit quelques services de base accessibles de pa...">
<polygon fill="white" stroke="black" points="54.5,-235.5 54.5,-254.5 108.5,-254.5 108.5,-235.5 54.5,-235.5"/>
<text text-anchor="middle" x="81.5" y="-242.5" font-family="Helvetica,sans-Serif" font-size="10.00">Process</text>
</a>
</g>
</g>
<!-- Node5&#45;&gt;Node4 -->
<g id="edge4" class="edge">
<title>Node5&#45;&gt;Node4</title>
<path fill="none" stroke="midnightblue" d="M81.5,-224.8C81.5,-215.91 81.5,-205.78 81.5,-198.75"/>
<polygon fill="midnightblue" stroke="midnightblue" points="78,-225.08 81.5,-235.08 85,-225.08 78,-225.08"/>
</g>
</g>
</svg>
