<?xml version="1.0" encoding="UTF-8" standalone="no"?>
<!DOCTYPE svg PUBLIC "-//W3C//DTD SVG 1.1//EN"
 "http://www.w3.org/Graphics/SVG/1.1/DTD/svg11.dtd">
<!-- Generated by graphviz version 2.43.0 (0)
 -->
<!-- Title: Ref_Op_Diff_PolyMAC_P0_Elem Pages: 1 -->
<svg width="131pt" height="263pt"
 viewBox="0.00 0.00 131.00 263.00" xmlns="http://www.w3.org/2000/svg" xmlns:xlink="http://www.w3.org/1999/xlink">
<g id="graph0" class="graph" transform="scale(1 1) rotate(0) translate(4 259)">
<title>Ref_Op_Diff_PolyMAC_P0_Elem</title>
<polygon fill="white" stroke="transparent" points="-4,4 -4,-259 127,-259 127,4 -4,4"/>
<!-- Node1 -->
<g id="node1" class="node">
<title>Node1</title>
<g id="a_node1"><a xlink:title=" ">
<polygon fill="#bfbfbf" stroke="black" points="0,-0.5 0,-30.5 123,-30.5 123,-0.5 0,-0.5"/>
<text text-anchor="start" x="8" y="-18.5" font-family="Helvetica,sans-Serif" font-size="10.00">Ref_Op_Diff_PolyMAC</text>
<text text-anchor="middle" x="61.5" y="-7.5" font-family="Helvetica,sans-Serif" font-size="10.00">_P0_Elem</text>
</a>
</g>
</g>
<!-- Node2 -->
<g id="node2" class="node">
<title>Node2</title>
<g id="a_node2"><a xlink:href="classRef__.html" target="_top" xlink:title="classe Ref_ un type qui permet d&#39;acceder a un objet de la classe Objet_U ou de l&#39;une quelconque des c...">
<polygon fill="white" stroke="black" points="42.5,-67.5 42.5,-86.5 80.5,-86.5 80.5,-67.5 42.5,-67.5"/>
<text text-anchor="middle" x="61.5" y="-74.5" font-family="Helvetica,sans-Serif" font-size="10.00">Ref_</text>
</a>
</g>
</g>
<!-- Node2&#45;&gt;Node1 -->
<g id="edge1" class="edge">
<title>Node2&#45;&gt;Node1</title>
<path fill="none" stroke="midnightblue" d="M61.5,-57.23C61.5,-48.59 61.5,-38.5 61.5,-30.52"/>
<polygon fill="midnightblue" stroke="midnightblue" points="58,-57.48 61.5,-67.48 65,-57.48 58,-57.48"/>
</g>
<!-- Node3 -->
<g id="node3" class="node">
<title>Node3</title>
<g id="a_node3"><a xlink:href="classO__U__Ptr.html" target="_top" xlink:title="Pointeur sur un Objet_U. Le constructeur par defaut construit un pointeur &quot;nul&quot;. O_U_Ptr_H.">
<polygon fill="white" stroke="black" points="33.5,-123.5 33.5,-142.5 89.5,-142.5 89.5,-123.5 33.5,-123.5"/>
<text text-anchor="middle" x="61.5" y="-130.5" font-family="Helvetica,sans-Serif" font-size="10.00">O_U_Ptr</text>
</a>
</g>
</g>
<!-- Node3&#45;&gt;Node2 -->
<g id="edge2" class="edge">
<title>Node3&#45;&gt;Node2</title>
<path fill="none" stroke="midnightblue" d="M61.5,-112.8C61.5,-103.91 61.5,-93.78 61.5,-86.75"/>
<polygon fill="midnightblue" stroke="midnightblue" points="58,-113.08 61.5,-123.08 65,-113.08 58,-113.08"/>
</g>
<!-- Node4 -->
<g id="node4" class="node">
<title>Node4</title>
<g id="a_node4"><a xlink:href="classObjet__U.html" target="_top" xlink:title="classe Objet_U Cette classe est la classe de base des Objets de TRUST Dans les classes derivees de Ob...">
<polygon fill="white" stroke="black" points="33.5,-179.5 33.5,-198.5 89.5,-198.5 89.5,-179.5 33.5,-179.5"/>
<text text-anchor="middle" x="61.5" y="-186.5" font-family="Helvetica,sans-Serif" font-size="10.00">Objet_U</text>
</a>
</g>
</g>
<!-- Node4&#45;&gt;Node3 -->
<g id="edge3" class="edge">
<title>Node4&#45;&gt;Node3</title>
<path fill="none" stroke="midnightblue" d="M61.5,-168.8C61.5,-159.91 61.5,-149.78 61.5,-142.75"/>
<polygon fill="midnightblue" stroke="midnightblue" points="58,-169.08 61.5,-179.08 65,-169.08 58,-169.08"/>
</g>
<!-- Node5 -->
<g id="node5" class="node">
<title>Node5</title>
<g id="a_node5"><a xlink:href="classProcess.html" target="_top" xlink:title="Classe de base de TRUST (notamment Objet_U). Elle fournit quelques services de base accessibles de pa...">
<polygon fill="white" stroke="black" points="34.5,-235.5 34.5,-254.5 88.5,-254.5 88.5,-235.5 34.5,-235.5"/>
<text text-anchor="middle" x="61.5" y="-242.5" font-family="Helvetica,sans-Serif" font-size="10.00">Process</text>
</a>
</g>
</g>
<!-- Node5&#45;&gt;Node4 -->
<g id="edge4" class="edge">
<title>Node5&#45;&gt;Node4</title>
<path fill="none" stroke="midnightblue" d="M61.5,-224.8C61.5,-215.91 61.5,-205.78 61.5,-198.75"/>
<polygon fill="midnightblue" stroke="midnightblue" points="58,-225.08 61.5,-235.08 65,-225.08 58,-225.08"/>
</g>
</g>
</svg>
