<?xml version="1.0" encoding="UTF-8" standalone="no"?>
<!DOCTYPE svg PUBLIC "-//W3C//DTD SVG 1.1//EN"
 "http://www.w3.org/Graphics/SVG/1.1/DTD/svg11.dtd">
<!-- Generated by graphviz version 2.43.0 (0)
 -->
<!-- Title: Op_Dift_VDF_Elem_base Pages: 1 -->
<svg width="1249pt" height="328pt"
 viewBox="0.00 0.00 1249.00 328.00" xmlns="http://www.w3.org/2000/svg" xmlns:xlink="http://www.w3.org/1999/xlink">
<g id="graph0" class="graph" transform="scale(1 1) rotate(0) translate(4 324)">
<title>Op_Dift_VDF_Elem_base</title>
<polygon fill="white" stroke="transparent" points="-4,4 -4,-324 1245,-324 1245,4 -4,4"/>
<!-- Node1 -->
<g id="node1" class="node">
<title>Node1</title>
<g id="a_node1"><a xlink:title=" ">
<polygon fill="#bfbfbf" stroke="black" points="904,-155.5 904,-174.5 1041,-174.5 1041,-155.5 904,-155.5"/>
<text text-anchor="middle" x="972.5" y="-162.5" font-family="Helvetica,sans-Serif" font-size="10.00">Op_Dift_VDF_Elem_base</text>
</a>
</g>
</g>
<!-- Node13 -->
<g id="node13" class="node">
<title>Node13</title>
<g id="a_node13"><a xlink:href="classOp__Dift__VDF__Elem.html" target="_top" xlink:title=" ">
<polygon fill="white" stroke="black" points="1105,-300.5 1105,-319.5 1213,-319.5 1213,-300.5 1105,-300.5"/>
<text text-anchor="middle" x="1159" y="-307.5" font-family="Helvetica,sans-Serif" font-size="10.00">Op_Dift_VDF_Elem</text>
</a>
</g>
</g>
<!-- Node1&#45;&gt;Node13 -->
<g id="edge12" class="edge">
<title>Node1&#45;&gt;Node13</title>
<path fill="none" stroke="midnightblue" d="M983.56,-183.82C999.52,-211.75 1033.33,-263.82 1077,-291 1085.34,-296.19 1094.96,-299.96 1104.6,-302.71"/>
<polygon fill="midnightblue" stroke="midnightblue" points="986.42,-181.75 978.51,-174.71 980.3,-185.15 986.42,-181.75"/>
</g>
<!-- Node14 -->
<g id="node14" class="node">
<title>Node14</title>
<g id="a_node14"><a xlink:href="classOp__Dift__VDF__Elem__Axi.html" target="_top" xlink:title=" ">
<polygon fill="white" stroke="black" points="1094.5,-262.5 1094.5,-281.5 1223.5,-281.5 1223.5,-262.5 1094.5,-262.5"/>
<text text-anchor="middle" x="1159" y="-269.5" font-family="Helvetica,sans-Serif" font-size="10.00">Op_Dift_VDF_Elem_Axi</text>
</a>
</g>
</g>
<!-- Node1&#45;&gt;Node14 -->
<g id="edge13" class="edge">
<title>Node1&#45;&gt;Node14</title>
<path fill="none" stroke="midnightblue" d="M988.7,-182.13C1007.46,-202.2 1041.29,-234.97 1077,-253 1084.61,-256.84 1093.01,-259.92 1101.44,-262.39"/>
<polygon fill="midnightblue" stroke="midnightblue" points="991.17,-179.65 981.84,-174.64 986.01,-184.38 991.17,-179.65"/>
</g>
<!-- Node15 -->
<g id="node15" class="node">
<title>Node15</title>
<g id="a_node15"><a xlink:href="classOp__Dift__VDF__Multi__inco__Elem.html" target="_top" xlink:title=" ">
<polygon fill="white" stroke="black" points="1077,-224.5 1077,-243.5 1241,-243.5 1241,-224.5 1077,-224.5"/>
<text text-anchor="middle" x="1159" y="-231.5" font-family="Helvetica,sans-Serif" font-size="10.00">Op_Dift_VDF_Multi_inco_Elem</text>
</a>
</g>
</g>
<!-- Node1&#45;&gt;Node15 -->
<g id="edge14" class="edge">
<title>Node1&#45;&gt;Node15</title>
<path fill="none" stroke="midnightblue" d="M1000.04,-179.38C1020.59,-190.06 1050,-204.38 1077,-214 1088.33,-218.03 1100.82,-221.55 1112.54,-224.47"/>
<polygon fill="midnightblue" stroke="midnightblue" points="1001.47,-176.17 990.99,-174.61 998.21,-182.37 1001.47,-176.17"/>
</g>
<!-- Node16 -->
<g id="node16" class="node">
<title>Node16</title>
<g id="a_node16"><a xlink:href="classOp__Dift__VDF__Multi__inco__Elem__Axi.html" target="_top" xlink:title=" ">
<polygon fill="white" stroke="black" points="1092,-175 1092,-205 1226,-205 1226,-175 1092,-175"/>
<text text-anchor="start" x="1100" y="-193" font-family="Helvetica,sans-Serif" font-size="10.00">Op_Dift_VDF_Multi_inco</text>
<text text-anchor="middle" x="1159" y="-182" font-family="Helvetica,sans-Serif" font-size="10.00">_Elem_Axi</text>
</a>
</g>
</g>
<!-- Node1&#45;&gt;Node16 -->
<g id="edge15" class="edge">
<title>Node1&#45;&gt;Node16</title>
<path fill="none" stroke="midnightblue" d="M1051.36,-175.55C1064.85,-177.38 1078.76,-179.26 1091.89,-181.04"/>
<polygon fill="midnightblue" stroke="midnightblue" points="1051.53,-172.04 1041.15,-174.17 1050.59,-178.98 1051.53,-172.04"/>
</g>
<!-- Node17 -->
<g id="node17" class="node">
<title>Node17</title>
<g id="a_node17"><a xlink:href="classOp__Dift__VDF__Multi__inco__var__Elem.html" target="_top" xlink:title=" ">
<polygon fill="white" stroke="black" points="1092,-126 1092,-156 1226,-156 1226,-126 1092,-126"/>
<text text-anchor="start" x="1100" y="-144" font-family="Helvetica,sans-Serif" font-size="10.00">Op_Dift_VDF_Multi_inco</text>
<text text-anchor="middle" x="1159" y="-133" font-family="Helvetica,sans-Serif" font-size="10.00">_var_Elem</text>
</a>
</g>
</g>
<!-- Node1&#45;&gt;Node17 -->
<g id="edge16" class="edge">
<title>Node1&#45;&gt;Node17</title>
<path fill="none" stroke="midnightblue" d="M1051.36,-154.87C1064.85,-153.12 1078.76,-151.31 1091.89,-149.6"/>
<polygon fill="midnightblue" stroke="midnightblue" points="1050.62,-151.44 1041.15,-156.2 1051.52,-158.38 1050.62,-151.44"/>
</g>
<!-- Node18 -->
<g id="node18" class="node">
<title>Node18</title>
<g id="a_node18"><a xlink:href="classOp__Dift__VDF__Multi__inco__var__Elem__Axi.html" target="_top" xlink:title=" ">
<polygon fill="white" stroke="black" points="1092,-77 1092,-107 1226,-107 1226,-77 1092,-77"/>
<text text-anchor="start" x="1100" y="-95" font-family="Helvetica,sans-Serif" font-size="10.00">Op_Dift_VDF_Multi_inco</text>
<text text-anchor="middle" x="1159" y="-84" font-family="Helvetica,sans-Serif" font-size="10.00">_var_Elem_Axi</text>
</a>
</g>
</g>
<!-- Node1&#45;&gt;Node18 -->
<g id="edge17" class="edge">
<title>Node1&#45;&gt;Node18</title>
<path fill="none" stroke="midnightblue" d="M1000.54,-150.79C1021.14,-140.31 1050.39,-126.17 1077,-116 1085.36,-112.81 1094.33,-109.77 1103.15,-107"/>
<polygon fill="midnightblue" stroke="midnightblue" points="998.75,-147.77 991.45,-155.46 1001.95,-154 998.75,-147.77"/>
</g>
<!-- Node19 -->
<g id="node19" class="node">
<title>Node19</title>
<g id="a_node19"><a xlink:href="classOp__Dift__VDF__var__Elem.html" target="_top" xlink:title=" ">
<polygon fill="white" stroke="black" points="1094.5,-38.5 1094.5,-57.5 1223.5,-57.5 1223.5,-38.5 1094.5,-38.5"/>
<text text-anchor="middle" x="1159" y="-45.5" font-family="Helvetica,sans-Serif" font-size="10.00">Op_Dift_VDF_var_Elem</text>
</a>
</g>
</g>
<!-- Node1&#45;&gt;Node19 -->
<g id="edge18" class="edge">
<title>Node1&#45;&gt;Node19</title>
<path fill="none" stroke="midnightblue" d="M986.91,-147.53C1004.94,-125.32 1039.11,-87.42 1077,-67 1084.25,-63.09 1092.28,-59.99 1100.4,-57.51"/>
<polygon fill="midnightblue" stroke="midnightblue" points="984.09,-145.46 980.62,-155.47 989.58,-149.81 984.09,-145.46"/>
</g>
<!-- Node20 -->
<g id="node20" class="node">
<title>Node20</title>
<g id="a_node20"><a xlink:href="classOp__Dift__VDF__var__Elem__Axi.html" target="_top" xlink:title=" ">
<polygon fill="white" stroke="black" points="1084,-0.5 1084,-19.5 1234,-19.5 1234,-0.5 1084,-0.5"/>
<text text-anchor="middle" x="1159" y="-7.5" font-family="Helvetica,sans-Serif" font-size="10.00">Op_Dift_VDF_var_Elem_Axi</text>
</a>
</g>
</g>
<!-- Node1&#45;&gt;Node20 -->
<g id="edge19" class="edge">
<title>Node1&#45;&gt;Node20</title>
<path fill="none" stroke="midnightblue" d="M982.52,-145.96C997.67,-116.14 1031.13,-58.75 1077,-29 1082.94,-25.15 1089.57,-22.08 1096.41,-19.62"/>
<polygon fill="midnightblue" stroke="midnightblue" points="979.21,-144.75 977.93,-155.27 985.49,-147.84 979.21,-144.75"/>
</g>
<!-- Node2 -->
<g id="node2" class="node">
<title>Node2</title>
<g id="a_node2"><a xlink:href="classOp__Dift__VDF__base.html" target="_top" xlink:title=" ">
<polygon fill="white" stroke="black" points="761,-174.5 761,-193.5 868,-193.5 868,-174.5 761,-174.5"/>
<text text-anchor="middle" x="814.5" y="-181.5" font-family="Helvetica,sans-Serif" font-size="10.00">Op_Dift_VDF_base</text>
</a>
</g>
</g>
<!-- Node2&#45;&gt;Node1 -->
<g id="edge1" class="edge">
<title>Node2&#45;&gt;Node1</title>
<path fill="none" stroke="midnightblue" d="M878.38,-176.34C886.75,-175.32 895.36,-174.27 903.81,-173.24"/>
<polygon fill="midnightblue" stroke="midnightblue" points="877.82,-172.88 868.31,-177.57 878.66,-179.83 877.82,-172.88"/>
</g>
<!-- Node3 -->
<g id="node3" class="node">
<title>Node3</title>
<g id="a_node3"><a xlink:href="classOp__Diff__VDF__base.html" target="_top" xlink:title="class Op_Diff_VDF_base Classe de base des operateurs de diffusion VDF">
<polygon fill="white" stroke="black" points="606,-193.5 606,-212.5 713,-212.5 713,-193.5 606,-193.5"/>
<text text-anchor="middle" x="659.5" y="-200.5" font-family="Helvetica,sans-Serif" font-size="10.00">Op_Diff_VDF_base</text>
</a>
</g>
</g>
<!-- Node3&#45;&gt;Node2 -->
<g id="edge2" class="edge">
<title>Node3&#45;&gt;Node2</title>
<path fill="none" stroke="midnightblue" d="M723.43,-195.19C735.83,-193.65 748.72,-192.04 760.75,-190.55"/>
<polygon fill="midnightblue" stroke="midnightblue" points="722.65,-191.76 713.15,-196.46 723.51,-198.7 722.65,-191.76"/>
</g>
<!-- Node4 -->
<g id="node4" class="node">
<title>Node4</title>
<g id="a_node4"><a xlink:href="classOperateur__Diff__base.html" target="_top" xlink:title="classe Operateur_Diff_base Cette classe est la base de la hierarchie des operateurs representant un t...">
<polygon fill="white" stroke="black" points="442,-193.5 442,-212.5 558,-212.5 558,-193.5 442,-193.5"/>
<text text-anchor="middle" x="500" y="-200.5" font-family="Helvetica,sans-Serif" font-size="10.00">Operateur_Diff_base</text>
</a>
</g>
</g>
<!-- Node4&#45;&gt;Node3 -->
<g id="edge3" class="edge">
<title>Node4&#45;&gt;Node3</title>
<path fill="none" stroke="midnightblue" d="M568.67,-203C581.14,-203 594,-203 605.94,-203"/>
<polygon fill="midnightblue" stroke="midnightblue" points="568.31,-199.5 558.31,-203 568.31,-206.5 568.31,-199.5"/>
</g>
<!-- Node5 -->
<g id="node5" class="node">
<title>Node5</title>
<g id="a_node5"><a xlink:href="classOperateur__base.html" target="_top" xlink:title="classe Operateur_base Classe est la base de la hierarchie des objets representant un operateur utilis...">
<polygon fill="white" stroke="black" points="293.5,-215.5 293.5,-234.5 387.5,-234.5 387.5,-215.5 293.5,-215.5"/>
<text text-anchor="middle" x="340.5" y="-222.5" font-family="Helvetica,sans-Serif" font-size="10.00">Operateur_base</text>
</a>
</g>
</g>
<!-- Node5&#45;&gt;Node4 -->
<g id="edge4" class="edge">
<title>Node5&#45;&gt;Node4</title>
<path fill="none" stroke="midnightblue" d="M398.04,-217.1C412.25,-215.12 427.52,-212.99 441.76,-211"/>
<polygon fill="midnightblue" stroke="midnightblue" points="397.32,-213.67 387.9,-218.52 398.29,-220.6 397.32,-213.67"/>
</g>
<!-- Node6 -->
<g id="node6" class="node">
<title>Node6</title>
<g id="a_node6"><a xlink:href="classObjet__U.html" target="_top" xlink:title="classe Objet_U Cette classe est la classe de base des Objets de TRUST Dans les classes derivees de Ob...">
<polygon fill="white" stroke="black" points="136.5,-253.5 136.5,-272.5 192.5,-272.5 192.5,-253.5 136.5,-253.5"/>
<text text-anchor="middle" x="164.5" y="-260.5" font-family="Helvetica,sans-Serif" font-size="10.00">Objet_U</text>
</a>
</g>
</g>
<!-- Node6&#45;&gt;Node5 -->
<g id="edge5" class="edge">
<title>Node6&#45;&gt;Node5</title>
<path fill="none" stroke="midnightblue" d="M202.64,-254.89C229.96,-248.92 267.2,-240.79 295.93,-234.52"/>
<polygon fill="midnightblue" stroke="midnightblue" points="201.71,-251.51 192.69,-257.06 203.2,-258.35 201.71,-251.51"/>
</g>
<!-- Node7 -->
<g id="node7" class="node">
<title>Node7</title>
<g id="a_node7"><a xlink:href="classProcess.html" target="_top" xlink:title="Classe de base de TRUST (notamment Objet_U). Elle fournit quelques services de base accessibles de pa...">
<polygon fill="white" stroke="black" points="0,-253.5 0,-272.5 54,-272.5 54,-253.5 0,-253.5"/>
<text text-anchor="middle" x="27" y="-260.5" font-family="Helvetica,sans-Serif" font-size="10.00">Process</text>
</a>
</g>
</g>
<!-- Node7&#45;&gt;Node6 -->
<g id="edge6" class="edge">
<title>Node7&#45;&gt;Node6</title>
<path fill="none" stroke="midnightblue" d="M64.34,-263C86.89,-263 115.4,-263 136.06,-263"/>
<polygon fill="midnightblue" stroke="midnightblue" points="64.13,-259.5 54.13,-263 64.13,-266.5 64.13,-259.5"/>
</g>
<!-- Node8 -->
<g id="node8" class="node">
<title>Node8</title>
<g id="a_node8"><a xlink:href="classMorEqn.html" target="_top" xlink:title="classe MorEqn Classe qui regroupe les fonctionnalites de liaison avec une Equation....">
<polygon fill="white" stroke="black" points="138,-215.5 138,-234.5 191,-234.5 191,-215.5 138,-215.5"/>
<text text-anchor="middle" x="164.5" y="-222.5" font-family="Helvetica,sans-Serif" font-size="10.00">MorEqn</text>
</a>
</g>
</g>
<!-- Node8&#45;&gt;Node5 -->
<g id="edge7" class="edge">
<title>Node8&#45;&gt;Node5</title>
<path fill="none" stroke="midnightblue" d="M201.22,-225C227.89,-225 264.55,-225 293.43,-225"/>
<polygon fill="midnightblue" stroke="midnightblue" points="201.17,-221.5 191.17,-225 201.17,-228.5 201.17,-221.5"/>
</g>
<!-- Node9 -->
<g id="node9" class="node">
<title>Node9</title>
<g id="a_node9"><a xlink:href="classChamps__compris__interface.html" target="_top" xlink:title="classe Champs_compris_interface Cette classe contient une interface de methodes destinees a gerer les...">
<polygon fill="white" stroke="black" points="90,-177.5 90,-196.5 239,-196.5 239,-177.5 90,-177.5"/>
<text text-anchor="middle" x="164.5" y="-184.5" font-family="Helvetica,sans-Serif" font-size="10.00">Champs_compris_interface</text>
</a>
</g>
</g>
<!-- Node9&#45;&gt;Node5 -->
<g id="edge8" class="edge">
<title>Node9&#45;&gt;Node5</title>
<path fill="none" stroke="midnightblue" d="M219.31,-198.75C243.92,-204.13 272.69,-210.41 295.91,-215.48"/>
<polygon fill="midnightblue" stroke="midnightblue" points="219.92,-195.3 209.41,-196.59 218.43,-202.14 219.92,-195.3"/>
</g>
<!-- Node10 -->
<g id="node10" class="node">
<title>Node10</title>
<g id="a_node10"><a xlink:href="classSupport__Champ__Masse__Volumique.html" target="_top" xlink:title=" ">
<polygon fill="white" stroke="black" points="275,-166 275,-196 406,-196 406,-166 275,-166"/>
<text text-anchor="start" x="283" y="-184" font-family="Helvetica,sans-Serif" font-size="10.00">Support_Champ_Masse</text>
<text text-anchor="middle" x="340.5" y="-173" font-family="Helvetica,sans-Serif" font-size="10.00">_Volumique</text>
</a>
</g>
</g>
<!-- Node10&#45;&gt;Node4 -->
<g id="edge9" class="edge">
<title>Node10&#45;&gt;Node4</title>
<path fill="none" stroke="midnightblue" d="M416.13,-191.42C424.8,-192.64 433.53,-193.85 441.91,-195.02"/>
<polygon fill="midnightblue" stroke="midnightblue" points="416.4,-187.93 406.02,-190.01 415.44,-194.86 416.4,-187.93"/>
</g>
<!-- Node11 -->
<g id="node11" class="node">
<title>Node11</title>
<g id="a_node11"><a xlink:href="classOp__Diff__Turbulent__base.html" target="_top" xlink:title=": classe Op_Diff_Turbulent_base Classe de base pour les operateurs de diffusion pour un ecoulement tu...">
<polygon fill="white" stroke="black" points="594,-155.5 594,-174.5 725,-174.5 725,-155.5 594,-155.5"/>
<text text-anchor="middle" x="659.5" y="-162.5" font-family="Helvetica,sans-Serif" font-size="10.00">Op_Diff_Turbulent_base</text>
</a>
</g>
</g>
<!-- Node11&#45;&gt;Node2 -->
<g id="edge10" class="edge">
<title>Node11&#45;&gt;Node2</title>
<path fill="none" stroke="midnightblue" d="M735.34,-174.29C743.86,-175.35 752.4,-176.41 760.55,-177.42"/>
<polygon fill="midnightblue" stroke="midnightblue" points="735.74,-170.82 725.39,-173.06 734.88,-177.76 735.74,-170.82"/>
</g>
<!-- Node12 -->
<g id="node12" class="node">
<title>Node12</title>
<g id="a_node12"><a xlink:href="classOp__VDF__Elem.html" target="_top" xlink:title=" ">
<polygon fill="white" stroke="black" points="771.5,-136.5 771.5,-155.5 857.5,-155.5 857.5,-136.5 771.5,-136.5"/>
<text text-anchor="middle" x="814.5" y="-143.5" font-family="Helvetica,sans-Serif" font-size="10.00">Op_VDF_Elem</text>
</a>
</g>
</g>
<!-- Node12&#45;&gt;Node1 -->
<g id="edge11" class="edge">
<title>Node12&#45;&gt;Node1</title>
<path fill="none" stroke="midnightblue" d="M867.69,-152.36C879.33,-153.77 891.83,-155.3 903.98,-156.78"/>
<polygon fill="midnightblue" stroke="midnightblue" points="868.07,-148.88 857.72,-151.14 867.22,-155.83 868.07,-148.88"/>
</g>
</g>
</svg>
