<?xml version="1.0" encoding="UTF-8" standalone="no"?>
<!DOCTYPE svg PUBLIC "-//W3C//DTD SVG 1.1//EN"
 "http://www.w3.org/Graphics/SVG/1.1/DTD/svg11.dtd">
<!-- Generated by graphviz version 2.43.0 (0)
 -->
<!-- Title: SFichier Pages: 1 -->
<svg width="431pt" height="308pt"
 viewBox="0.00 0.00 431.00 308.00" xmlns="http://www.w3.org/2000/svg" xmlns:xlink="http://www.w3.org/1999/xlink">
<g id="graph0" class="graph" transform="scale(1 1) rotate(0) translate(4 304)">
<title>SFichier</title>
<polygon fill="white" stroke="transparent" points="-4,4 -4,-304 427,-304 427,4 -4,4"/>
<!-- Node1 -->
<g id="node1" class="node">
<title>Node1</title>
<g id="a_node1"><a xlink:title="Cette classe est a la classe C++ ofstream ce que la classe Sortie est a la classe C++ ostream Elle re...">
<polygon fill="#bfbfbf" stroke="black" points="194,-112.5 194,-131.5 249,-131.5 249,-112.5 194,-112.5"/>
<text text-anchor="middle" x="221.5" y="-119.5" font-family="Helvetica,sans-Serif" font-size="10.00">SFichier</text>
</a>
</g>
</g>
<!-- Node6 -->
<g id="node6" class="node">
<title>Node6</title>
<g id="a_node6"><a xlink:href="classEcrFicCollecte.html" target="_top" xlink:title="Ecriture dans un fichier Cette classe implemente les operateurs et les methodes virtuelles de la clas...">
<polygon fill="white" stroke="black" points="16,-56.5 16,-75.5 101,-75.5 101,-56.5 16,-56.5"/>
<text text-anchor="middle" x="58.5" y="-63.5" font-family="Helvetica,sans-Serif" font-size="10.00">EcrFicCollecte</text>
</a>
</g>
</g>
<!-- Node1&#45;&gt;Node6 -->
<g id="edge5" class="edge">
<title>Node1&#45;&gt;Node6</title>
<path fill="none" stroke="midnightblue" d="M185.8,-109.17C155.1,-99 111.58,-84.59 84.21,-75.52"/>
<polygon fill="midnightblue" stroke="midnightblue" points="185.08,-112.62 195.67,-112.44 187.28,-105.98 185.08,-112.62"/>
</g>
<!-- Node8 -->
<g id="node8" class="node">
<title>Node8</title>
<g id="a_node8"><a xlink:href="classEcrFicPartage.html" target="_top" xlink:title=" ">
<polygon fill="white" stroke="black" points="123.5,-56.5 123.5,-75.5 205.5,-75.5 205.5,-56.5 123.5,-56.5"/>
<text text-anchor="middle" x="164.5" y="-63.5" font-family="Helvetica,sans-Serif" font-size="10.00">EcrFicPartage</text>
</a>
</g>
</g>
<!-- Node1&#45;&gt;Node8 -->
<g id="edge7" class="edge">
<title>Node1&#45;&gt;Node8</title>
<path fill="none" stroke="midnightblue" d="M204.88,-105.25C194.77,-95.67 182.22,-83.79 173.82,-75.83"/>
<polygon fill="midnightblue" stroke="midnightblue" points="202.68,-107.99 212.34,-112.32 207.49,-102.91 202.68,-107.99"/>
</g>
<!-- Node10 -->
<g id="node10" class="node">
<title>Node10</title>
<g id="a_node10"><a xlink:href="classEcrFicPartageMPIIO.html" target="_top" xlink:title="Class to use MPI&#45;IO to write in a single file.">
<polygon fill="white" stroke="black" points="223.5,-56.5 223.5,-75.5 333.5,-75.5 333.5,-56.5 223.5,-56.5"/>
<text text-anchor="middle" x="278.5" y="-63.5" font-family="Helvetica,sans-Serif" font-size="10.00">EcrFicPartageMPIIO</text>
</a>
</g>
</g>
<!-- Node1&#45;&gt;Node10 -->
<g id="edge9" class="edge">
<title>Node1&#45;&gt;Node10</title>
<path fill="none" stroke="midnightblue" d="M238.12,-105.25C248.23,-95.67 260.78,-83.79 269.18,-75.83"/>
<polygon fill="midnightblue" stroke="midnightblue" points="235.51,-102.91 230.66,-112.32 240.32,-107.99 235.51,-102.91"/>
</g>
<!-- Node11 -->
<g id="node11" class="node">
<title>Node11</title>
<g id="a_node11"><a xlink:href="classSFichierBin.html" target="_top" xlink:title="Ecriture dans un fichier d&#39;objets ecrits au format binaire.">
<polygon fill="white" stroke="black" points="352,-56.5 352,-75.5 423,-75.5 423,-56.5 352,-56.5"/>
<text text-anchor="middle" x="387.5" y="-63.5" font-family="Helvetica,sans-Serif" font-size="10.00">SFichierBin</text>
</a>
</g>
</g>
<!-- Node1&#45;&gt;Node11 -->
<g id="edge10" class="edge">
<title>Node1&#45;&gt;Node11</title>
<path fill="none" stroke="midnightblue" d="M257.45,-109.3C288.73,-99.13 333.32,-84.62 361.32,-75.52"/>
<polygon fill="midnightblue" stroke="midnightblue" points="256.23,-106.02 247.8,-112.44 258.4,-112.68 256.23,-106.02"/>
</g>
<!-- Node2 -->
<g id="node2" class="node">
<title>Node2</title>
<g id="a_node2"><a xlink:href="classSortie__Fichier__base.html" target="_top" xlink:title=" ">
<polygon fill="white" stroke="black" points="166,-168.5 166,-187.5 277,-187.5 277,-168.5 166,-168.5"/>
<text text-anchor="middle" x="221.5" y="-175.5" font-family="Helvetica,sans-Serif" font-size="10.00">Sortie_Fichier_base</text>
</a>
</g>
</g>
<!-- Node2&#45;&gt;Node1 -->
<g id="edge1" class="edge">
<title>Node2&#45;&gt;Node1</title>
<path fill="none" stroke="midnightblue" d="M221.5,-157.8C221.5,-148.91 221.5,-138.78 221.5,-131.75"/>
<polygon fill="midnightblue" stroke="midnightblue" points="218,-158.08 221.5,-168.08 225,-158.08 218,-158.08"/>
</g>
<!-- Node3 -->
<g id="node3" class="node">
<title>Node3</title>
<g id="a_node3"><a xlink:href="classSortie.html" target="_top" xlink:title="Classe de base des flux de sortie. Elle sait ecrire des types simples&lt;br&gt;(entiers,...">
<polygon fill="white" stroke="black" points="165,-224.5 165,-243.5 210,-243.5 210,-224.5 165,-224.5"/>
<text text-anchor="middle" x="187.5" y="-231.5" font-family="Helvetica,sans-Serif" font-size="10.00">Sortie</text>
</a>
</g>
</g>
<!-- Node3&#45;&gt;Node2 -->
<g id="edge2" class="edge">
<title>Node3&#45;&gt;Node2</title>
<path fill="none" stroke="midnightblue" d="M198.48,-215.57C204.33,-206.27 211.27,-195.25 215.99,-187.75"/>
<polygon fill="midnightblue" stroke="midnightblue" points="195.48,-213.76 193.11,-224.08 201.4,-217.49 195.48,-213.76"/>
</g>
<!-- Node4 -->
<g id="node4" class="node">
<title>Node4</title>
<g id="a_node4"><a xlink:href="classObjet__U.html" target="_top" xlink:title="classe Objet_U Cette classe est la classe de base des Objets de TRUST Dans les classes derivees de Ob...">
<polygon fill="white" stroke="black" points="228.5,-224.5 228.5,-243.5 284.5,-243.5 284.5,-224.5 228.5,-224.5"/>
<text text-anchor="middle" x="256.5" y="-231.5" font-family="Helvetica,sans-Serif" font-size="10.00">Objet_U</text>
</a>
</g>
</g>
<!-- Node4&#45;&gt;Node2 -->
<g id="edge3" class="edge">
<title>Node4&#45;&gt;Node2</title>
<path fill="none" stroke="midnightblue" d="M245.2,-215.57C239.18,-206.27 232.03,-195.25 227.17,-187.75"/>
<polygon fill="midnightblue" stroke="midnightblue" points="242.34,-217.6 250.72,-224.08 248.22,-213.79 242.34,-217.6"/>
</g>
<!-- Node5 -->
<g id="node5" class="node">
<title>Node5</title>
<g id="a_node5"><a xlink:href="classProcess.html" target="_top" xlink:title="Classe de base de TRUST (notamment Objet_U). Elle fournit quelques services de base accessibles de pa...">
<polygon fill="white" stroke="black" points="229.5,-280.5 229.5,-299.5 283.5,-299.5 283.5,-280.5 229.5,-280.5"/>
<text text-anchor="middle" x="256.5" y="-287.5" font-family="Helvetica,sans-Serif" font-size="10.00">Process</text>
</a>
</g>
</g>
<!-- Node5&#45;&gt;Node4 -->
<g id="edge4" class="edge">
<title>Node5&#45;&gt;Node4</title>
<path fill="none" stroke="midnightblue" d="M256.5,-269.8C256.5,-260.91 256.5,-250.78 256.5,-243.75"/>
<polygon fill="midnightblue" stroke="midnightblue" points="253,-270.08 256.5,-280.08 260,-270.08 253,-270.08"/>
</g>
<!-- Node7 -->
<g id="node7" class="node">
<title>Node7</title>
<g id="a_node7"><a xlink:href="classEcrFicCollecteBin.html" target="_top" xlink:title="Ecriture dans un fichier au format binaire Cette classe implemente les operateurs et les methodes vir...">
<polygon fill="white" stroke="black" points="0,-0.5 0,-19.5 101,-19.5 101,-0.5 0,-0.5"/>
<text text-anchor="middle" x="50.5" y="-7.5" font-family="Helvetica,sans-Serif" font-size="10.00">EcrFicCollecteBin</text>
</a>
</g>
</g>
<!-- Node6&#45;&gt;Node7 -->
<g id="edge6" class="edge">
<title>Node6&#45;&gt;Node7</title>
<path fill="none" stroke="midnightblue" d="M55.7,-46.1C54.37,-37.14 52.85,-26.86 51.8,-19.75"/>
<polygon fill="midnightblue" stroke="midnightblue" points="52.25,-46.7 57.18,-56.08 59.18,-45.68 52.25,-46.7"/>
</g>
<!-- Node9 -->
<g id="node9" class="node">
<title>Node9</title>
<g id="a_node9"><a xlink:href="classEcrFicPartageBin.html" target="_top" xlink:title="Ecriture dans un fichier partage Cette classe derive de Ecr_Fic_Par, en utilisant une sortie en binai...">
<polygon fill="white" stroke="black" points="119.5,-0.5 119.5,-19.5 217.5,-19.5 217.5,-0.5 119.5,-0.5"/>
<text text-anchor="middle" x="168.5" y="-7.5" font-family="Helvetica,sans-Serif" font-size="10.00">EcrFicPartageBin</text>
</a>
</g>
</g>
<!-- Node8&#45;&gt;Node9 -->
<g id="edge8" class="edge">
<title>Node8&#45;&gt;Node9</title>
<path fill="none" stroke="midnightblue" d="M165.9,-46.1C166.56,-37.14 167.33,-26.86 167.85,-19.75"/>
<polygon fill="midnightblue" stroke="midnightblue" points="162.41,-45.85 165.16,-56.08 169.39,-46.37 162.41,-45.85"/>
</g>
</g>
</svg>
