<?xml version="1.0" encoding="UTF-8" standalone="no"?>
<!DOCTYPE svg PUBLIC "-//W3C//DTD SVG 1.1//EN"
 "http://www.w3.org/Graphics/SVG/1.1/DTD/svg11.dtd">
<!-- Generated by graphviz version 2.43.0 (0)
 -->
<!-- Title: Acceleration_QC_VEF_P1NC Pages: 1 -->
<svg width="1046pt" height="132pt"
 viewBox="0.00 0.00 1046.00 132.00" xmlns="http://www.w3.org/2000/svg" xmlns:xlink="http://www.w3.org/1999/xlink">
<g id="graph0" class="graph" transform="scale(1 1) rotate(0) translate(4 128)">
<title>Acceleration_QC_VEF_P1NC</title>
<polygon fill="white" stroke="transparent" points="-4,4 -4,-128 1042,-128 1042,4 -4,4"/>
<!-- Node1 -->
<g id="node1" class="node">
<title>Node1</title>
<g id="a_node1"><a xlink:title="!&lt;">
<polygon fill="#bfbfbf" stroke="black" points="886,-38.5 886,-57.5 1038,-57.5 1038,-38.5 886,-38.5"/>
<text text-anchor="middle" x="962" y="-45.5" font-family="Helvetica,sans-Serif" font-size="10.00">Acceleration_QC_VEF_P1NC</text>
</a>
</g>
</g>
<!-- Node2 -->
<g id="node2" class="node">
<title>Node2</title>
<g id="a_node2"><a xlink:href="classTerme__Source__Acceleration__VEF__Face.html" target="_top" xlink:title="Terme source d&#39;acceleration specialise pour la discretisation VDF.">
<polygon fill="white" stroke="black" points="698,-61 698,-91 849,-91 849,-61 698,-61"/>
<text text-anchor="start" x="706" y="-79" font-family="Helvetica,sans-Serif" font-size="10.00">Terme_Source_Acceleration</text>
<text text-anchor="middle" x="773.5" y="-68" font-family="Helvetica,sans-Serif" font-size="10.00">_VEF_Face</text>
</a>
</g>
</g>
<!-- Node2&#45;&gt;Node1 -->
<g id="edge1" class="edge">
<title>Node2&#45;&gt;Node1</title>
<path fill="none" stroke="midnightblue" d="M858.92,-63.33C871.96,-61.37 885.24,-59.37 897.71,-57.5"/>
<polygon fill="midnightblue" stroke="midnightblue" points="858.38,-59.87 849.01,-64.81 859.42,-66.79 858.38,-59.87"/>
</g>
<!-- Node3 -->
<g id="node3" class="node">
<title>Node3</title>
<g id="a_node3"><a xlink:href="classTerme__Source__Acceleration.html" target="_top" xlink:title=" ">
<polygon fill="white" stroke="black" points="392,-66.5 392,-85.5 543,-85.5 543,-66.5 392,-66.5"/>
<text text-anchor="middle" x="467.5" y="-73.5" font-family="Helvetica,sans-Serif" font-size="10.00">Terme_Source_Acceleration</text>
</a>
</g>
</g>
<!-- Node3&#45;&gt;Node2 -->
<g id="edge2" class="edge">
<title>Node3&#45;&gt;Node2</title>
<path fill="none" stroke="midnightblue" d="M553.37,-76C598.72,-76 654.05,-76 697.77,-76"/>
<polygon fill="midnightblue" stroke="midnightblue" points="553.26,-72.5 543.26,-76 553.26,-79.5 553.26,-72.5"/>
</g>
<!-- Node4 -->
<g id="node4" class="node">
<title>Node4</title>
<g id="a_node4"><a xlink:href="classSource__base.html" target="_top" xlink:title="classe Source_base Un objet Source_base est un terme apparaissant au second membre d&#39;une equation....">
<polygon fill="white" stroke="black" points="277,-66.5 277,-85.5 355,-85.5 355,-66.5 277,-66.5"/>
<text text-anchor="middle" x="316" y="-73.5" font-family="Helvetica,sans-Serif" font-size="10.00">Source_base</text>
</a>
</g>
</g>
<!-- Node4&#45;&gt;Node3 -->
<g id="edge3" class="edge">
<title>Node4&#45;&gt;Node3</title>
<path fill="none" stroke="midnightblue" d="M365.2,-76C373.71,-76 382.75,-76 391.79,-76"/>
<polygon fill="midnightblue" stroke="midnightblue" points="365.11,-72.5 355.11,-76 365.11,-79.5 365.11,-72.5"/>
</g>
<!-- Node5 -->
<g id="node5" class="node">
<title>Node5</title>
<g id="a_node5"><a xlink:href="classChamps__compris__interface.html" target="_top" xlink:title="classe Champs_compris_interface Cette classe contient une interface de methodes destinees a gerer les...">
<polygon fill="white" stroke="black" points="91,-104.5 91,-123.5 240,-123.5 240,-104.5 91,-104.5"/>
<text text-anchor="middle" x="165.5" y="-111.5" font-family="Helvetica,sans-Serif" font-size="10.00">Champs_compris_interface</text>
</a>
</g>
</g>
<!-- Node5&#45;&gt;Node4 -->
<g id="edge4" class="edge">
<title>Node5&#45;&gt;Node4</title>
<path fill="none" stroke="midnightblue" d="M213.83,-101.89C234.51,-96.6 258.42,-90.48 277.8,-85.52"/>
<polygon fill="midnightblue" stroke="midnightblue" points="212.79,-98.54 203.97,-104.41 214.53,-105.32 212.79,-98.54"/>
</g>
<!-- Node6 -->
<g id="node6" class="node">
<title>Node6</title>
<g id="a_node6"><a xlink:href="classMorEqn.html" target="_top" xlink:title="classe MorEqn Classe qui regroupe les fonctionnalites de liaison avec une Equation....">
<polygon fill="white" stroke="black" points="139,-66.5 139,-85.5 192,-85.5 192,-66.5 139,-66.5"/>
<text text-anchor="middle" x="165.5" y="-73.5" font-family="Helvetica,sans-Serif" font-size="10.00">MorEqn</text>
</a>
</g>
</g>
<!-- Node6&#45;&gt;Node4 -->
<g id="edge5" class="edge">
<title>Node6&#45;&gt;Node4</title>
<path fill="none" stroke="midnightblue" d="M202.18,-76C224.68,-76 253.74,-76 276.72,-76"/>
<polygon fill="midnightblue" stroke="midnightblue" points="202.03,-72.5 192.03,-76 202.03,-79.5 202.03,-72.5"/>
</g>
<!-- Node7 -->
<g id="node7" class="node">
<title>Node7</title>
<g id="a_node7"><a xlink:href="classObjet__U.html" target="_top" xlink:title="classe Objet_U Cette classe est la classe de base des Objets de TRUST Dans les classes derivees de Ob...">
<polygon fill="white" stroke="black" points="137.5,-28.5 137.5,-47.5 193.5,-47.5 193.5,-28.5 137.5,-28.5"/>
<text text-anchor="middle" x="165.5" y="-35.5" font-family="Helvetica,sans-Serif" font-size="10.00">Objet_U</text>
</a>
</g>
</g>
<!-- Node7&#45;&gt;Node4 -->
<g id="edge6" class="edge">
<title>Node7&#45;&gt;Node4</title>
<path fill="none" stroke="midnightblue" d="M203.67,-47.51C226.34,-53.31 255.21,-60.7 277.87,-66.5"/>
<polygon fill="midnightblue" stroke="midnightblue" points="204.29,-44.06 193.74,-44.97 202.56,-50.84 204.29,-44.06"/>
</g>
<!-- Node8 -->
<g id="node8" class="node">
<title>Node8</title>
<g id="a_node8"><a xlink:href="classProcess.html" target="_top" xlink:title="Classe de base de TRUST (notamment Objet_U). Elle fournit quelques services de base accessibles de pa...">
<polygon fill="white" stroke="black" points="0,-28.5 0,-47.5 54,-47.5 54,-28.5 0,-28.5"/>
<text text-anchor="middle" x="27" y="-35.5" font-family="Helvetica,sans-Serif" font-size="10.00">Process</text>
</a>
</g>
</g>
<!-- Node8&#45;&gt;Node7 -->
<g id="edge7" class="edge">
<title>Node8&#45;&gt;Node7</title>
<path fill="none" stroke="midnightblue" d="M64.36,-38C87.29,-38 116.41,-38 137.33,-38"/>
<polygon fill="midnightblue" stroke="midnightblue" points="64.32,-34.5 54.32,-38 64.32,-41.5 64.32,-34.5"/>
</g>
<!-- Node9 -->
<g id="node9" class="node">
<title>Node9</title>
<g id="a_node9"><a xlink:href="classSource__Fluide__Dilatable__Face.html" target="_top" xlink:title=" ">
<polygon fill="white" stroke="black" points="706,-0.5 706,-41.5 841,-41.5 841,-0.5 706,-0.5"/>
<text text-anchor="start" x="714" y="-29.5" font-family="Helvetica,sans-Serif" font-size="10.00">Source_Fluide_Dilatable</text>
<text text-anchor="start" x="714" y="-18.5" font-family="Helvetica,sans-Serif" font-size="10.00">_Face&lt; Acceleration_QC</text>
<text text-anchor="middle" x="773.5" y="-7.5" font-family="Helvetica,sans-Serif" font-size="10.00">_VEF_P1NC &gt;</text>
</a>
</g>
</g>
<!-- Node9&#45;&gt;Node1 -->
<g id="edge8" class="edge">
<title>Node9&#45;&gt;Node1</title>
<path fill="none" stroke="midnightblue" d="M851.05,-32.08C865.67,-34.2 880.86,-36.4 895.11,-38.46"/>
<polygon fill="midnightblue" stroke="midnightblue" points="851.44,-28.6 841.04,-30.63 850.44,-35.53 851.44,-28.6"/>
</g>
<!-- Node10 -->
<g id="node10" class="node">
<title>Node10</title>
<g id="a_node10"><a xlink:href="classSource__Fluide__Dilatable__Face.html" target="_top" xlink:title=" ">
<polygon fill="white" stroke="black" points="400.5,-6 400.5,-36 534.5,-36 534.5,-6 400.5,-6"/>
<text text-anchor="start" x="408.5" y="-24" font-family="Helvetica,sans-Serif" font-size="10.00">Source_Fluide_Dilatable</text>
<text text-anchor="middle" x="467.5" y="-13" font-family="Helvetica,sans-Serif" font-size="10.00">_Face&lt; DERIVED_T &gt;</text>
</a>
</g>
</g>
<!-- Node10&#45;&gt;Node9 -->
<g id="edge9" class="edge">
<title>Node10&#45;&gt;Node9</title>
<path fill="none" stroke="orange" stroke-dasharray="5,2" d="M544.86,-21C594.39,-21 658.29,-21 705.78,-21"/>
<polygon fill="orange" stroke="orange" points="544.84,-17.5 534.84,-21 544.84,-24.5 544.84,-17.5"/>
<text text-anchor="start" x="561" y="-35" font-family="Helvetica,sans-Serif" font-size="10.00"> &lt; Acceleration_QC_VEF</text>
<text text-anchor="middle" x="620.5" y="-24" font-family="Helvetica,sans-Serif" font-size="10.00">_P1NC &gt;</text>
</g>
</g>
</svg>
