<?xml version="1.0" encoding="UTF-8" standalone="no"?>
<!DOCTYPE svg PUBLIC "-//W3C//DTD SVG 1.1//EN"
 "http://www.w3.org/Graphics/SVG/1.1/DTD/svg11.dtd">
<!-- Generated by graphviz version 2.43.0 (0)
 -->
<!-- Title: Probleme_base Pages: 1 -->
<svg width="1353pt" height="331pt"
 viewBox="0.00 0.00 1353.00 330.50" xmlns="http://www.w3.org/2000/svg" xmlns:xlink="http://www.w3.org/1999/xlink">
<g id="graph0" class="graph" transform="scale(1 1) rotate(0) translate(4 326.5)">
<title>Probleme_base</title>
<polygon fill="white" stroke="transparent" points="-4,4 -4,-326.5 1349,-326.5 1349,4 -4,4"/>
<!-- Node1 -->
<g id="node1" class="node">
<title>Node1</title>
<g id="a_node1"><a xlink:title="classe Probleme_base C&#39;est un Probleme_U qui n&#39;est pas un couplage. Le role d&#39;un Probleme_base est la...">
<polygon fill="#bfbfbf" stroke="black" points="367,-146.5 367,-165.5 459,-165.5 459,-146.5 367,-146.5"/>
<text text-anchor="middle" x="413" y="-153.5" font-family="Helvetica,sans-Serif" font-size="10.00">Probleme_base</text>
</a>
</g>
</g>
<!-- Node6 -->
<g id="node6" class="node">
<title>Node6</title>
<g id="a_node6"><a xlink:href="classPb__Conduction.html" target="_top" xlink:title="Classe Pb_Conduction Cette classe represente un probleme de conduction avec rho et Cp non uniformes :...">
<polygon fill="white" stroke="black" points="496.5,-225.5 496.5,-244.5 585.5,-244.5 585.5,-225.5 496.5,-225.5"/>
<text text-anchor="middle" x="541" y="-232.5" font-family="Helvetica,sans-Serif" font-size="10.00">Pb_Conduction</text>
</a>
</g>
</g>
<!-- Node1&#45;&gt;Node6 -->
<g id="edge5" class="edge">
<title>Node1&#45;&gt;Node6</title>
<path fill="none" stroke="midnightblue" d="M438.18,-171.16C463.75,-187.19 503.31,-212 524.82,-225.48"/>
<polygon fill="midnightblue" stroke="midnightblue" points="439.78,-168.03 429.45,-165.69 436.06,-173.96 439.78,-168.03"/>
</g>
<!-- Node8 -->
<g id="node8" class="node">
<title>Node8</title>
<g id="a_node8"><a xlink:href="classPb__Fluide__base.html" target="_top" xlink:title="classe Pb_Fluide_base Cette classe a pour but de disposer d une classe amont pour la hierarchie des p...">
<polygon fill="white" stroke="black" points="495,-146.5 495,-165.5 587,-165.5 587,-146.5 495,-146.5"/>
<text text-anchor="middle" x="541" y="-153.5" font-family="Helvetica,sans-Serif" font-size="10.00">Pb_Fluide_base</text>
</a>
</g>
</g>
<!-- Node1&#45;&gt;Node8 -->
<g id="edge7" class="edge">
<title>Node1&#45;&gt;Node8</title>
<path fill="none" stroke="midnightblue" d="M469.35,-156C477.84,-156 486.52,-156 494.76,-156"/>
<polygon fill="midnightblue" stroke="midnightblue" points="469.13,-152.5 459.13,-156 469.13,-159.5 469.13,-152.5"/>
</g>
<!-- Node27 -->
<g id="node27" class="node">
<title>Node27</title>
<g id="a_node27"><a xlink:href="classPb__MED.html" target="_top" xlink:title="Classe Pb_MED Classe pour postraiter relire des fichiers med et les postraiter.">
<polygon fill="white" stroke="black" points="513,-108.5 513,-127.5 569,-127.5 569,-108.5 513,-108.5"/>
<text text-anchor="middle" x="541" y="-115.5" font-family="Helvetica,sans-Serif" font-size="10.00">Pb_MED</text>
</a>
</g>
</g>
<!-- Node1&#45;&gt;Node27 -->
<g id="edge26" class="edge">
<title>Node1&#45;&gt;Node27</title>
<path fill="none" stroke="midnightblue" d="M455.37,-143.52C474.28,-137.82 496.14,-131.23 512.91,-126.17"/>
<polygon fill="midnightblue" stroke="midnightblue" points="454.36,-140.17 445.8,-146.41 456.38,-146.87 454.36,-140.17"/>
</g>
<!-- Node2 -->
<g id="node2" class="node">
<title>Node2</title>
<g id="a_node2"><a xlink:href="classChamps__compris__interface.html" target="_top" xlink:title="classe Champs_compris_interface Cette classe contient une interface de methodes destinees a gerer les...">
<polygon fill="white" stroke="black" points="182,-165.5 182,-184.5 331,-184.5 331,-165.5 182,-165.5"/>
<text text-anchor="middle" x="256.5" y="-172.5" font-family="Helvetica,sans-Serif" font-size="10.00">Champs_compris_interface</text>
</a>
</g>
</g>
<!-- Node2&#45;&gt;Node1 -->
<g id="edge1" class="edge">
<title>Node2&#45;&gt;Node1</title>
<path fill="none" stroke="midnightblue" d="M341.08,-164.72C349.87,-163.64 358.55,-162.57 366.66,-161.58"/>
<polygon fill="midnightblue" stroke="midnightblue" points="340.63,-161.25 331.13,-165.95 341.48,-168.2 340.63,-161.25"/>
</g>
<!-- Node3 -->
<g id="node3" class="node">
<title>Node3</title>
<g id="a_node3"><a xlink:href="classProbleme__U.html" target="_top" xlink:title="classe Probleme_U Cette classe ajoute des specificites TRUST a l&#39;interface generale definie dans la c...">
<polygon fill="white" stroke="black" points="218.5,-127.5 218.5,-146.5 294.5,-146.5 294.5,-127.5 218.5,-127.5"/>
<text text-anchor="middle" x="256.5" y="-134.5" font-family="Helvetica,sans-Serif" font-size="10.00">Probleme_U</text>
</a>
</g>
</g>
<!-- Node3&#45;&gt;Node1 -->
<g id="edge2" class="edge">
<title>Node3&#45;&gt;Node1</title>
<path fill="none" stroke="midnightblue" d="M304.52,-142.78C324.28,-145.21 347.18,-148.03 366.75,-150.43"/>
<polygon fill="midnightblue" stroke="midnightblue" points="304.86,-139.3 294.51,-141.55 304,-146.25 304.86,-139.3"/>
</g>
<!-- Node4 -->
<g id="node4" class="node">
<title>Node4</title>
<g id="a_node4"><a xlink:href="classObjet__U.html" target="_top" xlink:title="classe Objet_U Cette classe est la classe de base des Objets de TRUST Dans les classes derivees de Ob...">
<polygon fill="white" stroke="black" points="90,-127.5 90,-146.5 146,-146.5 146,-127.5 90,-127.5"/>
<text text-anchor="middle" x="118" y="-134.5" font-family="Helvetica,sans-Serif" font-size="10.00">Objet_U</text>
</a>
</g>
</g>
<!-- Node4&#45;&gt;Node3 -->
<g id="edge3" class="edge">
<title>Node4&#45;&gt;Node3</title>
<path fill="none" stroke="midnightblue" d="M156.53,-137C175.8,-137 199.22,-137 218.43,-137"/>
<polygon fill="midnightblue" stroke="midnightblue" points="156.29,-133.5 146.29,-137 156.29,-140.5 156.29,-133.5"/>
</g>
<!-- Node5 -->
<g id="node5" class="node">
<title>Node5</title>
<g id="a_node5"><a xlink:href="classProcess.html" target="_top" xlink:title="Classe de base de TRUST (notamment Objet_U). Elle fournit quelques services de base accessibles de pa...">
<polygon fill="white" stroke="black" points="0,-127.5 0,-146.5 54,-146.5 54,-127.5 0,-127.5"/>
<text text-anchor="middle" x="27" y="-134.5" font-family="Helvetica,sans-Serif" font-size="10.00">Process</text>
</a>
</g>
</g>
<!-- Node5&#45;&gt;Node4 -->
<g id="edge4" class="edge">
<title>Node5&#45;&gt;Node4</title>
<path fill="none" stroke="midnightblue" d="M64.29,-137C72.79,-137 81.7,-137 89.73,-137"/>
<polygon fill="midnightblue" stroke="midnightblue" points="64.22,-133.5 54.22,-137 64.22,-140.5 64.22,-133.5"/>
</g>
<!-- Node7 -->
<g id="node7" class="node">
<title>Node7</title>
<g id="a_node7"><a xlink:href="classPb__Conduction__Scalaires__Passifs.html" target="_top" xlink:title=" ">
<polygon fill="white" stroke="black" points="637.5,-261 637.5,-291 775.5,-291 775.5,-261 637.5,-261"/>
<text text-anchor="start" x="645.5" y="-279" font-family="Helvetica,sans-Serif" font-size="10.00">Pb_Conduction_Scalaires</text>
<text text-anchor="middle" x="706.5" y="-268" font-family="Helvetica,sans-Serif" font-size="10.00">_Passifs</text>
</a>
</g>
</g>
<!-- Node6&#45;&gt;Node7 -->
<g id="edge6" class="edge">
<title>Node6&#45;&gt;Node7</title>
<path fill="none" stroke="midnightblue" d="M589.83,-247C607.21,-251.35 627.07,-256.33 645.37,-260.92"/>
<polygon fill="midnightblue" stroke="midnightblue" points="590.47,-243.55 579.92,-244.51 588.77,-250.34 590.47,-243.55"/>
</g>
<!-- Node9 -->
<g id="node9" class="node">
<title>Node9</title>
<g id="a_node9"><a xlink:href="classPb__Dilatable__base.html" target="_top" xlink:title="classe Pb_Dilatable_base Cette classe est censee factoriser ce qui est commun a l&#39;ensemble des proble...">
<polygon fill="white" stroke="black" points="653,-222.5 653,-241.5 760,-241.5 760,-222.5 653,-222.5"/>
<text text-anchor="middle" x="706.5" y="-229.5" font-family="Helvetica,sans-Serif" font-size="10.00">Pb_Dilatable_base</text>
</a>
</g>
</g>
<!-- Node8&#45;&gt;Node9 -->
<g id="edge8" class="edge">
<title>Node8&#45;&gt;Node9</title>
<path fill="none" stroke="midnightblue" d="M560.52,-172.21C576.16,-185.08 599.68,-202.59 623,-213 632.26,-217.13 642.52,-220.42 652.57,-223.01"/>
<polygon fill="midnightblue" stroke="midnightblue" points="562.59,-169.38 552.69,-165.61 558.08,-174.73 562.59,-169.38"/>
</g>
<!-- Node18 -->
<g id="node18" class="node">
<title>Node18</title>
<g id="a_node18"><a xlink:href="classPb__Hydraulique.html" target="_top" xlink:title="classe Pb_Hydraulique Cette classe represente un probleme hydraulique standard dans lequel on resout ...">
<polygon fill="white" stroke="black" points="660,-184.5 660,-203.5 753,-203.5 753,-184.5 660,-184.5"/>
<text text-anchor="middle" x="706.5" y="-191.5" font-family="Helvetica,sans-Serif" font-size="10.00">Pb_Hydraulique</text>
</a>
</g>
</g>
<!-- Node8&#45;&gt;Node18 -->
<g id="edge17" class="edge">
<title>Node8&#45;&gt;Node18</title>
<path fill="none" stroke="midnightblue" d="M592.33,-167.84C602.48,-170.22 613.08,-172.69 623,-175 636.31,-178.09 650.84,-181.45 663.95,-184.46"/>
<polygon fill="midnightblue" stroke="midnightblue" points="592.9,-164.38 582.37,-165.5 591.31,-171.19 592.9,-164.38"/>
</g>
<!-- Node19 -->
<g id="node19" class="node">
<title>Node19</title>
<g id="a_node19"><a xlink:href="classPb__Hydraulique__Concentration.html" target="_top" xlink:title="Classe Pb_Hydraulique_Concentration Cette classe represente un probleme d&#39;hydraulique avec transport ...">
<polygon fill="white" stroke="black" points="623,-146.5 623,-165.5 790,-165.5 790,-146.5 623,-146.5"/>
<text text-anchor="middle" x="706.5" y="-153.5" font-family="Helvetica,sans-Serif" font-size="10.00">Pb_Hydraulique_Concentration</text>
</a>
</g>
</g>
<!-- Node8&#45;&gt;Node19 -->
<g id="edge18" class="edge">
<title>Node8&#45;&gt;Node19</title>
<path fill="none" stroke="midnightblue" d="M597.32,-156C605.57,-156 614.22,-156 622.89,-156"/>
<polygon fill="midnightblue" stroke="midnightblue" points="597.11,-152.5 587.11,-156 597.11,-159.5 597.11,-152.5"/>
</g>
<!-- Node21 -->
<g id="node21" class="node">
<title>Node21</title>
<g id="a_node21"><a xlink:href="classPb__Multiphase.html" target="_top" xlink:title="classe Pb_Multiphase Cette classe represente un probleme de thermohydraulique multiphase de type &quot;3*N...">
<polygon fill="white" stroke="black" points="662.5,-108.5 662.5,-127.5 750.5,-127.5 750.5,-108.5 662.5,-108.5"/>
<text text-anchor="middle" x="706.5" y="-115.5" font-family="Helvetica,sans-Serif" font-size="10.00">Pb_Multiphase</text>
</a>
</g>
</g>
<!-- Node8&#45;&gt;Node21 -->
<g id="edge20" class="edge">
<title>Node8&#45;&gt;Node21</title>
<path fill="none" stroke="midnightblue" d="M592.33,-144.16C602.48,-141.78 613.08,-139.31 623,-137 636.31,-133.91 650.84,-130.55 663.95,-127.54"/>
<polygon fill="midnightblue" stroke="midnightblue" points="591.31,-140.81 582.37,-146.5 592.9,-147.62 591.31,-140.81"/>
</g>
<!-- Node23 -->
<g id="node23" class="node">
<title>Node23</title>
<g id="a_node23"><a xlink:href="classPb__Thermohydraulique.html" target="_top" xlink:title="classe Pb_Thermohydraulique Cette classe represente un probleme de thermohydraulique standard: &#45; Equa...">
<polygon fill="white" stroke="black" points="642,-67.5 642,-86.5 771,-86.5 771,-67.5 642,-67.5"/>
<text text-anchor="middle" x="706.5" y="-74.5" font-family="Helvetica,sans-Serif" font-size="10.00">Pb_Thermohydraulique</text>
</a>
</g>
</g>
<!-- Node8&#45;&gt;Node23 -->
<g id="edge22" class="edge">
<title>Node8&#45;&gt;Node23</title>
<path fill="none" stroke="midnightblue" d="M578.83,-141.98C581.68,-140.44 584.43,-138.78 587,-137 606.12,-123.75 603,-110.89 623,-99 631.92,-93.7 642.13,-89.65 652.26,-86.57"/>
<polygon fill="midnightblue" stroke="midnightblue" points="577.06,-138.95 569.6,-146.47 580.12,-145.24 577.06,-138.95"/>
</g>
<!-- Node25 -->
<g id="node25" class="node">
<title>Node25</title>
<g id="a_node25"><a xlink:href="classPb__Thermohydraulique__Concentration.html" target="_top" xlink:title="classe Pb_Thermohydraulique_Concentration Cette classe represente un probleme de thermohydraulique av...">
<polygon fill="white" stroke="black" points="642,-13 642,-43 771,-43 771,-13 642,-13"/>
<text text-anchor="start" x="650" y="-31" font-family="Helvetica,sans-Serif" font-size="10.00">Pb_Thermohydraulique</text>
<text text-anchor="middle" x="706.5" y="-20" font-family="Helvetica,sans-Serif" font-size="10.00">_Concentration</text>
</a>
</g>
</g>
<!-- Node8&#45;&gt;Node25 -->
<g id="edge24" class="edge">
<title>Node8&#45;&gt;Node25</title>
<path fill="none" stroke="midnightblue" d="M582.29,-140.97C583.96,-139.74 585.54,-138.42 587,-137 614.66,-110.1 594.66,-84.19 623,-58 629.6,-51.9 637.55,-47.01 645.86,-43.11"/>
<polygon fill="midnightblue" stroke="midnightblue" points="580.14,-138.18 573.4,-146.35 583.77,-144.16 580.14,-138.18"/>
</g>
<!-- Node10 -->
<g id="node10" class="node">
<title>Node10</title>
<g id="a_node10"><a xlink:href="classPb__QC__base.html" target="_top" xlink:title="classe Pb_QC_base Cette classe est censee factoriser ce qui est commun a l&#39;ensemble des problemes qua...">
<polygon fill="white" stroke="black" points="871,-253.5 871,-272.5 948,-272.5 948,-253.5 871,-253.5"/>
<text text-anchor="middle" x="909.5" y="-260.5" font-family="Helvetica,sans-Serif" font-size="10.00">Pb_QC_base</text>
</a>
</g>
</g>
<!-- Node9&#45;&gt;Node10 -->
<g id="edge9" class="edge">
<title>Node9&#45;&gt;Node10</title>
<path fill="none" stroke="midnightblue" d="M770.07,-241.65C803.11,-246.75 842.54,-252.83 870.86,-257.19"/>
<polygon fill="midnightblue" stroke="midnightblue" points="770.46,-238.17 760.05,-240.1 769.4,-245.09 770.46,-238.17"/>
</g>
<!-- Node14 -->
<g id="node14" class="node">
<title>Node14</title>
<g id="a_node14"><a xlink:href="classPb__WC__base.html" target="_top" xlink:title="classe Pb_WC_base Cette classe est censee factoriser ce qui est commun a l&#39;ensemble des problemes wea...">
<polygon fill="white" stroke="black" points="870,-209.5 870,-228.5 949,-228.5 949,-209.5 870,-209.5"/>
<text text-anchor="middle" x="909.5" y="-216.5" font-family="Helvetica,sans-Serif" font-size="10.00">Pb_WC_base</text>
</a>
</g>
</g>
<!-- Node9&#45;&gt;Node14 -->
<g id="edge13" class="edge">
<title>Node9&#45;&gt;Node14</title>
<path fill="none" stroke="midnightblue" d="M770.39,-227.93C802.99,-225.82 841.76,-223.32 869.91,-221.5"/>
<polygon fill="midnightblue" stroke="midnightblue" points="769.8,-224.46 760.05,-228.6 770.25,-231.45 769.8,-224.46"/>
</g>
<!-- Node11 -->
<g id="node11" class="node">
<title>Node11</title>
<g id="a_node11"><a xlink:href="classPb__Hydraulique__Melange__Binaire__QC.html" target="_top" xlink:title="classe Pb_Hydraulique_Melange_Binaire_QC Cette classe represente un probleme de hydraulique binaire e...">
<polygon fill="white" stroke="black" points="1034.5,-292 1034.5,-322 1174.5,-322 1174.5,-292 1034.5,-292"/>
<text text-anchor="start" x="1042.5" y="-310" font-family="Helvetica,sans-Serif" font-size="10.00">Pb_Hydraulique_Melange</text>
<text text-anchor="middle" x="1104.5" y="-299" font-family="Helvetica,sans-Serif" font-size="10.00">_Binaire_QC</text>
</a>
</g>
</g>
<!-- Node10&#45;&gt;Node11 -->
<g id="edge10" class="edge">
<title>Node10&#45;&gt;Node11</title>
<path fill="none" stroke="midnightblue" d="M958.06,-273.84C981.97,-279.29 1011.33,-285.99 1037.39,-291.93"/>
<polygon fill="midnightblue" stroke="midnightblue" points="958.7,-270.4 948.17,-271.59 957.14,-277.22 958.7,-270.4"/>
</g>
<!-- Node12 -->
<g id="node12" class="node">
<title>Node12</title>
<g id="a_node12"><a xlink:href="classPb__Thermohydraulique__QC.html" target="_top" xlink:title="classe Pb_Thermohydraulique_QC Cette classe represente un probleme de thermohydraulique en fluide qua...">
<polygon fill="white" stroke="black" points="1030,-253.5 1030,-272.5 1179,-272.5 1179,-253.5 1030,-253.5"/>
<text text-anchor="middle" x="1104.5" y="-260.5" font-family="Helvetica,sans-Serif" font-size="10.00">Pb_Thermohydraulique_QC</text>
</a>
</g>
</g>
<!-- Node10&#45;&gt;Node12 -->
<g id="edge11" class="edge">
<title>Node10&#45;&gt;Node12</title>
<path fill="none" stroke="midnightblue" d="M958.39,-263C979.99,-263 1005.98,-263 1029.96,-263"/>
<polygon fill="midnightblue" stroke="midnightblue" points="958.17,-259.5 948.17,-263 958.17,-266.5 958.17,-259.5"/>
</g>
<!-- Node13 -->
<g id="node13" class="node">
<title>Node13</title>
<g id="a_node13"><a xlink:href="classPb__Thermohydraulique__Especes__QC.html" target="_top" xlink:title=" ">
<polygon fill="white" stroke="black" points="1216,-248 1216,-278 1345,-278 1345,-248 1216,-248"/>
<text text-anchor="start" x="1224" y="-266" font-family="Helvetica,sans-Serif" font-size="10.00">Pb_Thermohydraulique</text>
<text text-anchor="middle" x="1280.5" y="-255" font-family="Helvetica,sans-Serif" font-size="10.00">_Especes_QC</text>
</a>
</g>
</g>
<!-- Node12&#45;&gt;Node13 -->
<g id="edge12" class="edge">
<title>Node12&#45;&gt;Node13</title>
<path fill="none" stroke="midnightblue" d="M1189.14,-263C1198.13,-263 1207.16,-263 1215.86,-263"/>
<polygon fill="midnightblue" stroke="midnightblue" points="1189.04,-259.5 1179.04,-263 1189.04,-266.5 1189.04,-259.5"/>
</g>
<!-- Node15 -->
<g id="node15" class="node">
<title>Node15</title>
<g id="a_node15"><a xlink:href="classPb__Hydraulique__Melange__Binaire__WC.html" target="_top" xlink:title="classe Pb_Hydraulique_Melange_Binaire_WC Cette classe represente un probleme de hydraulique binaire e...">
<polygon fill="white" stroke="black" points="1034.5,-204 1034.5,-234 1174.5,-234 1174.5,-204 1034.5,-204"/>
<text text-anchor="start" x="1042.5" y="-222" font-family="Helvetica,sans-Serif" font-size="10.00">Pb_Hydraulique_Melange</text>
<text text-anchor="middle" x="1104.5" y="-211" font-family="Helvetica,sans-Serif" font-size="10.00">_Binaire_WC</text>
</a>
</g>
</g>
<!-- Node14&#45;&gt;Node15 -->
<g id="edge14" class="edge">
<title>Node14&#45;&gt;Node15</title>
<path fill="none" stroke="midnightblue" d="M959.16,-219C981.87,-219 1009.3,-219 1034.12,-219"/>
<polygon fill="midnightblue" stroke="midnightblue" points="959.09,-215.5 949.09,-219 959.09,-222.5 959.09,-215.5"/>
</g>
<!-- Node16 -->
<g id="node16" class="node">
<title>Node16</title>
<g id="a_node16"><a xlink:href="classPb__Thermohydraulique__WC.html" target="_top" xlink:title="classe Pb_Thermohydraulique_WC Cette classe represente un probleme de thermohydraulique en fluide wea...">
<polygon fill="white" stroke="black" points="1029,-165.5 1029,-184.5 1180,-184.5 1180,-165.5 1029,-165.5"/>
<text text-anchor="middle" x="1104.5" y="-172.5" font-family="Helvetica,sans-Serif" font-size="10.00">Pb_Thermohydraulique_WC</text>
</a>
</g>
</g>
<!-- Node14&#45;&gt;Node16 -->
<g id="edge15" class="edge">
<title>Node14&#45;&gt;Node16</title>
<path fill="none" stroke="midnightblue" d="M959.01,-207.94C990.62,-200.74 1031.44,-191.43 1061.63,-184.55"/>
<polygon fill="midnightblue" stroke="midnightblue" points="958.06,-204.57 949.09,-210.2 959.62,-211.39 958.06,-204.57"/>
</g>
<!-- Node17 -->
<g id="node17" class="node">
<title>Node17</title>
<g id="a_node17"><a xlink:href="classPb__Thermohydraulique__Especes__WC.html" target="_top" xlink:title=" ">
<polygon fill="white" stroke="black" points="1216,-160 1216,-190 1345,-190 1345,-160 1216,-160"/>
<text text-anchor="start" x="1224" y="-178" font-family="Helvetica,sans-Serif" font-size="10.00">Pb_Thermohydraulique</text>
<text text-anchor="middle" x="1280.5" y="-167" font-family="Helvetica,sans-Serif" font-size="10.00">_Especes_WC</text>
</a>
</g>
</g>
<!-- Node16&#45;&gt;Node17 -->
<g id="edge16" class="edge">
<title>Node16&#45;&gt;Node17</title>
<path fill="none" stroke="midnightblue" d="M1190.14,-175C1198.77,-175 1207.43,-175 1215.78,-175"/>
<polygon fill="midnightblue" stroke="midnightblue" points="1190.05,-171.5 1180.05,-175 1190.05,-178.5 1190.05,-171.5"/>
</g>
<!-- Node20 -->
<g id="node20" class="node">
<title>Node20</title>
<g id="a_node20"><a xlink:href="classPb__Hydraulique__Concentration__Scalaires__Passifs.html" target="_top" xlink:title=" ">
<polygon fill="white" stroke="black" points="826,-149 826,-179 993,-179 993,-149 826,-149"/>
<text text-anchor="start" x="834" y="-167" font-family="Helvetica,sans-Serif" font-size="10.00">Pb_Hydraulique_Concentration</text>
<text text-anchor="middle" x="909.5" y="-156" font-family="Helvetica,sans-Serif" font-size="10.00">_Scalaires_Passifs</text>
</a>
</g>
</g>
<!-- Node19&#45;&gt;Node20 -->
<g id="edge19" class="edge">
<title>Node19&#45;&gt;Node20</title>
<path fill="none" stroke="midnightblue" d="M800.15,-159.69C808.73,-160.03 817.39,-160.37 825.87,-160.71"/>
<polygon fill="midnightblue" stroke="midnightblue" points="800.26,-156.19 790.12,-159.29 799.98,-163.18 800.26,-156.19"/>
</g>
<!-- Node22 -->
<g id="node22" class="node">
<title>Node22</title>
<g id="a_node22"><a xlink:href="classPb__HEM.html" target="_top" xlink:title=" ">
<polygon fill="white" stroke="black" points="881.5,-110.5 881.5,-129.5 937.5,-129.5 937.5,-110.5 881.5,-110.5"/>
<text text-anchor="middle" x="909.5" y="-117.5" font-family="Helvetica,sans-Serif" font-size="10.00">Pb_HEM</text>
</a>
</g>
</g>
<!-- Node21&#45;&gt;Node22 -->
<g id="edge21" class="edge">
<title>Node21&#45;&gt;Node22</title>
<path fill="none" stroke="midnightblue" d="M760.72,-118.53C799.59,-118.92 850.68,-119.42 881.48,-119.73"/>
<polygon fill="midnightblue" stroke="midnightblue" points="760.65,-115.03 750.62,-118.43 760.58,-122.03 760.65,-115.03"/>
</g>
<!-- Node24 -->
<g id="node24" class="node">
<title>Node24</title>
<g id="a_node24"><a xlink:href="classPb__Thermohydraulique__Scalaires__Passifs.html" target="_top" xlink:title=" ">
<polygon fill="white" stroke="black" points="845,-61 845,-91 974,-91 974,-61 845,-61"/>
<text text-anchor="start" x="853" y="-79" font-family="Helvetica,sans-Serif" font-size="10.00">Pb_Thermohydraulique</text>
<text text-anchor="middle" x="909.5" y="-68" font-family="Helvetica,sans-Serif" font-size="10.00">_Scalaires_Passifs</text>
</a>
</g>
</g>
<!-- Node23&#45;&gt;Node24 -->
<g id="edge23" class="edge">
<title>Node23&#45;&gt;Node24</title>
<path fill="none" stroke="midnightblue" d="M781.21,-76.63C802.13,-76.53 824.71,-76.42 844.97,-76.32"/>
<polygon fill="midnightblue" stroke="midnightblue" points="781.08,-73.13 771.1,-76.68 781.11,-80.13 781.08,-73.13"/>
</g>
<!-- Node26 -->
<g id="node26" class="node">
<title>Node26</title>
<g id="a_node26"><a xlink:href="classPb__Thermohydraulique__Concentration__Scalaires__Passifs.html" target="_top" xlink:title=" ">
<polygon fill="white" stroke="black" points="839.5,-0.5 839.5,-41.5 979.5,-41.5 979.5,-0.5 839.5,-0.5"/>
<text text-anchor="start" x="847.5" y="-29.5" font-family="Helvetica,sans-Serif" font-size="10.00">Pb_Thermohydraulique</text>
<text text-anchor="start" x="847.5" y="-18.5" font-family="Helvetica,sans-Serif" font-size="10.00">_Concentration_Scalaires</text>
<text text-anchor="middle" x="909.5" y="-7.5" font-family="Helvetica,sans-Serif" font-size="10.00">_Passifs</text>
</a>
</g>
</g>
<!-- Node25&#45;&gt;Node26 -->
<g id="edge25" class="edge">
<title>Node25&#45;&gt;Node26</title>
<path fill="none" stroke="midnightblue" d="M781.2,-25.43C800.22,-24.77 820.62,-24.06 839.4,-23.41"/>
<polygon fill="midnightblue" stroke="midnightblue" points="780.97,-21.94 771.1,-25.79 781.21,-28.93 780.97,-21.94"/>
</g>
</g>
</svg>
