<?xml version="1.0" encoding="UTF-8" standalone="no"?>
<!DOCTYPE svg PUBLIC "-//W3C//DTD SVG 1.1//EN"
 "http://www.w3.org/Graphics/SVG/1.1/DTD/svg11.dtd">
<!-- Generated by graphviz version 2.43.0 (0)
 -->
<!-- Title: Champ_P1_iso Pages: 1 -->
<svg width="200pt" height="308pt"
 viewBox="0.00 0.00 199.50 308.00" xmlns="http://www.w3.org/2000/svg" xmlns:xlink="http://www.w3.org/1999/xlink">
<g id="graph0" class="graph" transform="scale(1 1) rotate(0) translate(4 304)">
<title>Champ_P1_iso</title>
<polygon fill="white" stroke="transparent" points="-4,4 -4,-304 195.5,-304 195.5,4 -4,4"/>
<!-- Node1 -->
<g id="node1" class="node">
<title>Node1</title>
<g id="a_node1"><a xlink:title="classe Champ_P1_iso">
<polygon fill="#bfbfbf" stroke="black" points="78,-0.5 78,-19.5 166,-19.5 166,-0.5 78,-0.5"/>
<text text-anchor="middle" x="122" y="-7.5" font-family="Helvetica,sans-Serif" font-size="10.00">Champ_P1_iso</text>
</a>
</g>
</g>
<!-- Node2 -->
<g id="node2" class="node">
<title>Node2</title>
<g id="a_node2"><a xlink:href="classChamp__Inc__base.html" target="_top" xlink:title="Classe Champ_Inc_base Classe de base des champs inconnues qui sont les champs calcules par une equati...">
<polygon fill="white" stroke="black" points="72.5,-56.5 72.5,-75.5 171.5,-75.5 171.5,-56.5 72.5,-56.5"/>
<text text-anchor="middle" x="122" y="-63.5" font-family="Helvetica,sans-Serif" font-size="10.00">Champ_Inc_base</text>
</a>
</g>
</g>
<!-- Node2&#45;&gt;Node1 -->
<g id="edge1" class="edge">
<title>Node2&#45;&gt;Node1</title>
<path fill="none" stroke="midnightblue" d="M122,-45.8C122,-36.91 122,-26.78 122,-19.75"/>
<polygon fill="midnightblue" stroke="midnightblue" points="118.5,-46.08 122,-56.08 125.5,-46.08 118.5,-46.08"/>
</g>
<!-- Node3 -->
<g id="node3" class="node">
<title>Node3</title>
<g id="a_node3"><a xlink:href="classChamp__base.html" target="_top" xlink:title="classe Champ_base Cette classe est la base de la hierarchie des champs. Ses membres sont les attribut...">
<polygon fill="white" stroke="black" points="40,-112.5 40,-131.5 120,-131.5 120,-112.5 40,-112.5"/>
<text text-anchor="middle" x="80" y="-119.5" font-family="Helvetica,sans-Serif" font-size="10.00">Champ_base</text>
</a>
</g>
</g>
<!-- Node3&#45;&gt;Node2 -->
<g id="edge2" class="edge">
<title>Node3&#45;&gt;Node2</title>
<path fill="none" stroke="midnightblue" d="M93.11,-104.14C100.43,-94.74 109.24,-83.4 115.19,-75.75"/>
<polygon fill="midnightblue" stroke="midnightblue" points="90.31,-102.04 86.94,-112.08 95.84,-106.34 90.31,-102.04"/>
</g>
<!-- Node4 -->
<g id="node4" class="node">
<title>Node4</title>
<g id="a_node4"><a xlink:href="classField__base.html" target="_top" xlink:title=" ">
<polygon fill="white" stroke="black" points="0,-168.5 0,-187.5 68,-187.5 68,-168.5 0,-168.5"/>
<text text-anchor="middle" x="34" y="-175.5" font-family="Helvetica,sans-Serif" font-size="10.00">Field_base</text>
</a>
</g>
</g>
<!-- Node4&#45;&gt;Node3 -->
<g id="edge3" class="edge">
<title>Node4&#45;&gt;Node3</title>
<path fill="none" stroke="midnightblue" d="M48.11,-160.43C56.18,-150.97 65.96,-139.48 72.55,-131.75"/>
<polygon fill="midnightblue" stroke="midnightblue" points="45.42,-158.2 41.6,-168.08 50.75,-162.74 45.42,-158.2"/>
</g>
<!-- Node5 -->
<g id="node5" class="node">
<title>Node5</title>
<g id="a_node5"><a xlink:href="classObjet__U.html" target="_top" xlink:title="classe Objet_U Cette classe est la classe de base des Objets de TRUST Dans les classes derivees de Ob...">
<polygon fill="white" stroke="black" points="6,-224.5 6,-243.5 62,-243.5 62,-224.5 6,-224.5"/>
<text text-anchor="middle" x="34" y="-231.5" font-family="Helvetica,sans-Serif" font-size="10.00">Objet_U</text>
</a>
</g>
</g>
<!-- Node5&#45;&gt;Node4 -->
<g id="edge4" class="edge">
<title>Node5&#45;&gt;Node4</title>
<path fill="none" stroke="midnightblue" d="M34,-213.8C34,-204.91 34,-194.78 34,-187.75"/>
<polygon fill="midnightblue" stroke="midnightblue" points="30.5,-214.08 34,-224.08 37.5,-214.08 30.5,-214.08"/>
</g>
<!-- Node6 -->
<g id="node6" class="node">
<title>Node6</title>
<g id="a_node6"><a xlink:href="classProcess.html" target="_top" xlink:title="Classe de base de TRUST (notamment Objet_U). Elle fournit quelques services de base accessibles de pa...">
<polygon fill="white" stroke="black" points="7,-280.5 7,-299.5 61,-299.5 61,-280.5 7,-280.5"/>
<text text-anchor="middle" x="34" y="-287.5" font-family="Helvetica,sans-Serif" font-size="10.00">Process</text>
</a>
</g>
</g>
<!-- Node6&#45;&gt;Node5 -->
<g id="edge5" class="edge">
<title>Node6&#45;&gt;Node5</title>
<path fill="none" stroke="midnightblue" d="M34,-269.8C34,-260.91 34,-250.78 34,-243.75"/>
<polygon fill="midnightblue" stroke="midnightblue" points="30.5,-270.08 34,-280.08 37.5,-270.08 30.5,-270.08"/>
</g>
<!-- Node7 -->
<g id="node7" class="node">
<title>Node7</title>
<g id="a_node7"><a xlink:href="classChamp__Proto.html" target="_top" xlink:title="classe Champ_Proto Classe representant un prototype de Champ. Tous les classes representant des champ...">
<polygon fill="white" stroke="black" points="86,-168.5 86,-187.5 168,-187.5 168,-168.5 86,-168.5"/>
<text text-anchor="middle" x="127" y="-175.5" font-family="Helvetica,sans-Serif" font-size="10.00">Champ_Proto</text>
</a>
</g>
</g>
<!-- Node7&#45;&gt;Node3 -->
<g id="edge6" class="edge">
<title>Node7&#45;&gt;Node3</title>
<path fill="none" stroke="midnightblue" d="M112.58,-160.43C104.34,-150.97 94.35,-139.48 87.62,-131.75"/>
<polygon fill="midnightblue" stroke="midnightblue" points="110.03,-162.84 119.24,-168.08 115.31,-158.24 110.03,-162.84"/>
</g>
<!-- Node8 -->
<g id="node8" class="node">
<title>Node8</title>
<g id="a_node8"><a xlink:href="classMorEqn.html" target="_top" xlink:title="classe MorEqn Classe qui regroupe les fonctionnalites de liaison avec une Equation....">
<polygon fill="white" stroke="black" points="138.5,-112.5 138.5,-131.5 191.5,-131.5 191.5,-112.5 138.5,-112.5"/>
<text text-anchor="middle" x="165" y="-119.5" font-family="Helvetica,sans-Serif" font-size="10.00">MorEqn</text>
</a>
</g>
</g>
<!-- Node8&#45;&gt;Node2 -->
<g id="edge7" class="edge">
<title>Node8&#45;&gt;Node2</title>
<path fill="none" stroke="midnightblue" d="M151.58,-104.14C144.09,-94.74 135.06,-83.4 128.97,-75.75"/>
<polygon fill="midnightblue" stroke="midnightblue" points="148.93,-106.44 157.9,-112.08 154.41,-102.08 148.93,-106.44"/>
</g>
</g>
</svg>
