<?xml version="1.0" encoding="UTF-8" standalone="no"?>
<!DOCTYPE svg PUBLIC "-//W3C//DTD SVG 1.1//EN"
 "http://www.w3.org/Graphics/SVG/1.1/DTD/svg11.dtd">
<!-- Generated by graphviz version 2.43.0 (0)
 -->
<!-- Title: Op_Dift_VDF_var_Elem_Axi Pages: 1 -->
<svg width="626pt" height="481pt"
 viewBox="0.00 0.00 626.00 481.00" xmlns="http://www.w3.org/2000/svg" xmlns:xlink="http://www.w3.org/1999/xlink">
<g id="graph0" class="graph" transform="scale(1 1) rotate(0) translate(4 477)">
<title>Op_Dift_VDF_var_Elem_Axi</title>
<polygon fill="white" stroke="transparent" points="-4,4 -4,-477 622,-477 622,4 -4,4"/>
<!-- Node1 -->
<g id="node1" class="node">
<title>Node1</title>
<g id="a_node1"><a xlink:title=" ">
<polygon fill="#bfbfbf" stroke="black" points="335,-0.5 335,-19.5 485,-19.5 485,-0.5 335,-0.5"/>
<text text-anchor="middle" x="410" y="-7.5" font-family="Helvetica,sans-Serif" font-size="10.00">Op_Dift_VDF_var_Elem_Axi</text>
</a>
</g>
</g>
<!-- Node2 -->
<g id="node2" class="node">
<title>Node2</title>
<g id="a_node2"><a xlink:href="classOp__Dift__VDF__Elem__base.html" target="_top" xlink:title=" ">
<polygon fill="white" stroke="black" points="261.5,-63 261.5,-82 398.5,-82 398.5,-63 261.5,-63"/>
<text text-anchor="middle" x="330" y="-70" font-family="Helvetica,sans-Serif" font-size="10.00">Op_Dift_VDF_Elem_base</text>
</a>
</g>
</g>
<!-- Node2&#45;&gt;Node1 -->
<g id="edge1" class="edge">
<title>Node2&#45;&gt;Node1</title>
<path fill="none" stroke="midnightblue" d="M349.77,-56.55C365.12,-44.94 385.86,-29.26 398.56,-19.65"/>
<polygon fill="midnightblue" stroke="midnightblue" points="347.33,-54.01 341.46,-62.83 351.55,-59.59 347.33,-54.01"/>
</g>
<!-- Node3 -->
<g id="node3" class="node">
<title>Node3</title>
<g id="a_node3"><a xlink:href="classOp__Dift__VDF__base.html" target="_top" xlink:title=" ">
<polygon fill="white" stroke="black" points="180.5,-152 180.5,-171 287.5,-171 287.5,-152 180.5,-152"/>
<text text-anchor="middle" x="234" y="-159" font-family="Helvetica,sans-Serif" font-size="10.00">Op_Dift_VDF_base</text>
</a>
</g>
</g>
<!-- Node3&#45;&gt;Node2 -->
<g id="edge2" class="edge">
<title>Node3&#45;&gt;Node2</title>
<path fill="none" stroke="midnightblue" d="M251.12,-144.98C271.36,-126.64 304.34,-96.76 320.48,-82.12"/>
<polygon fill="midnightblue" stroke="midnightblue" points="248.62,-142.53 243.56,-151.84 253.32,-147.72 248.62,-142.53"/>
</g>
<!-- Node4 -->
<g id="node4" class="node">
<title>Node4</title>
<g id="a_node4"><a xlink:href="classOp__Diff__VDF__base.html" target="_top" xlink:title="class Op_Diff_VDF_base Classe de base des operateurs de diffusion VDF">
<polygon fill="white" stroke="black" points="112.5,-214.5 112.5,-233.5 219.5,-233.5 219.5,-214.5 112.5,-214.5"/>
<text text-anchor="middle" x="166" y="-221.5" font-family="Helvetica,sans-Serif" font-size="10.00">Op_Diff_VDF_base</text>
</a>
</g>
</g>
<!-- Node4&#45;&gt;Node3 -->
<g id="edge3" class="edge">
<title>Node4&#45;&gt;Node3</title>
<path fill="none" stroke="midnightblue" d="M183.54,-207.39C196.51,-195.86 213.68,-180.58 224.28,-171.15"/>
<polygon fill="midnightblue" stroke="midnightblue" points="180.89,-205.07 175.74,-214.33 185.54,-210.3 180.89,-205.07"/>
</g>
<!-- Node5 -->
<g id="node5" class="node">
<title>Node5</title>
<g id="a_node5"><a xlink:href="classOperateur__Diff__base.html" target="_top" xlink:title="classe Operateur_Diff_base Cette classe est la base de la hierarchie des operateurs representant un t...">
<polygon fill="white" stroke="black" points="108,-271.5 108,-290.5 224,-290.5 224,-271.5 108,-271.5"/>
<text text-anchor="middle" x="166" y="-278.5" font-family="Helvetica,sans-Serif" font-size="10.00">Operateur_Diff_base</text>
</a>
</g>
</g>
<!-- Node5&#45;&gt;Node4 -->
<g id="edge4" class="edge">
<title>Node5&#45;&gt;Node4</title>
<path fill="none" stroke="midnightblue" d="M166,-261.12C166,-251.82 166,-241.06 166,-233.71"/>
<polygon fill="midnightblue" stroke="midnightblue" points="162.5,-261.41 166,-271.41 169.5,-261.41 162.5,-261.41"/>
</g>
<!-- Node6 -->
<g id="node6" class="node">
<title>Node6</title>
<g id="a_node6"><a xlink:href="classOperateur__base.html" target="_top" xlink:title="classe Operateur_base Classe est la base de la hierarchie des objets representant un operateur utilis...">
<polygon fill="white" stroke="black" points="54,-334 54,-353 148,-353 148,-334 54,-334"/>
<text text-anchor="middle" x="101" y="-341" font-family="Helvetica,sans-Serif" font-size="10.00">Operateur_base</text>
</a>
</g>
</g>
<!-- Node6&#45;&gt;Node5 -->
<g id="edge5" class="edge">
<title>Node6&#45;&gt;Node5</title>
<path fill="none" stroke="midnightblue" d="M117.77,-326.89C130.16,-315.36 146.58,-300.08 156.7,-290.65"/>
<polygon fill="midnightblue" stroke="midnightblue" points="115.25,-324.46 110.31,-333.83 120.02,-329.58 115.25,-324.46"/>
</g>
<!-- Node7 -->
<g id="node7" class="node">
<title>Node7</title>
<g id="a_node7"><a xlink:href="classObjet__U.html" target="_top" xlink:title="classe Objet_U Cette classe est la classe de base des Objets de TRUST Dans les classes derivees de Ob...">
<polygon fill="white" stroke="black" points="0,-396.5 0,-415.5 56,-415.5 56,-396.5 0,-396.5"/>
<text text-anchor="middle" x="28" y="-403.5" font-family="Helvetica,sans-Serif" font-size="10.00">Objet_U</text>
</a>
</g>
</g>
<!-- Node7&#45;&gt;Node6 -->
<g id="edge6" class="edge">
<title>Node7&#45;&gt;Node6</title>
<path fill="none" stroke="midnightblue" d="M46.44,-389.72C60.4,-378.15 79.08,-362.67 90.56,-353.15"/>
<polygon fill="midnightblue" stroke="midnightblue" points="43.93,-387.26 38.46,-396.33 48.39,-392.65 43.93,-387.26"/>
</g>
<!-- Node8 -->
<g id="node8" class="node">
<title>Node8</title>
<g id="a_node8"><a xlink:href="classProcess.html" target="_top" xlink:title="Classe de base de TRUST (notamment Objet_U). Elle fournit quelques services de base accessibles de pa...">
<polygon fill="white" stroke="black" points="1,-453.5 1,-472.5 55,-472.5 55,-453.5 1,-453.5"/>
<text text-anchor="middle" x="28" y="-460.5" font-family="Helvetica,sans-Serif" font-size="10.00">Process</text>
</a>
</g>
</g>
<!-- Node8&#45;&gt;Node7 -->
<g id="edge7" class="edge">
<title>Node8&#45;&gt;Node7</title>
<path fill="none" stroke="midnightblue" d="M28,-443.12C28,-433.82 28,-423.06 28,-415.71"/>
<polygon fill="midnightblue" stroke="midnightblue" points="24.5,-443.41 28,-453.41 31.5,-443.41 24.5,-443.41"/>
</g>
<!-- Node9 -->
<g id="node9" class="node">
<title>Node9</title>
<g id="a_node9"><a xlink:href="classMorEqn.html" target="_top" xlink:title="classe MorEqn Classe qui regroupe les fonctionnalites de liaison avec une Equation....">
<polygon fill="white" stroke="black" points="74.5,-396.5 74.5,-415.5 127.5,-415.5 127.5,-396.5 74.5,-396.5"/>
<text text-anchor="middle" x="101" y="-403.5" font-family="Helvetica,sans-Serif" font-size="10.00">MorEqn</text>
</a>
</g>
</g>
<!-- Node9&#45;&gt;Node6 -->
<g id="edge8" class="edge">
<title>Node9&#45;&gt;Node6</title>
<path fill="none" stroke="midnightblue" d="M101,-386C101,-375 101,-361.68 101,-353.15"/>
<polygon fill="midnightblue" stroke="midnightblue" points="97.5,-386.33 101,-396.33 104.5,-386.33 97.5,-386.33"/>
</g>
<!-- Node10 -->
<g id="node10" class="node">
<title>Node10</title>
<g id="a_node10"><a xlink:href="classChamps__compris__interface.html" target="_top" xlink:title="classe Champs_compris_interface Cette classe contient une interface de methodes destinees a gerer les...">
<polygon fill="white" stroke="black" points="145.5,-396.5 145.5,-415.5 294.5,-415.5 294.5,-396.5 145.5,-396.5"/>
<text text-anchor="middle" x="220" y="-403.5" font-family="Helvetica,sans-Serif" font-size="10.00">Champs_compris_interface</text>
</a>
</g>
</g>
<!-- Node10&#45;&gt;Node6 -->
<g id="edge9" class="edge">
<title>Node10&#45;&gt;Node6</title>
<path fill="none" stroke="midnightblue" d="M194,-391.78C170.96,-380.07 137.96,-363.29 118.1,-353.19"/>
<polygon fill="midnightblue" stroke="midnightblue" points="192.7,-395.05 203.2,-396.46 195.87,-388.81 192.7,-395.05"/>
</g>
<!-- Node11 -->
<g id="node11" class="node">
<title>Node11</title>
<g id="a_node11"><a xlink:href="classSupport__Champ__Masse__Volumique.html" target="_top" xlink:title=" ">
<polygon fill="white" stroke="black" points="166.5,-328.5 166.5,-358.5 297.5,-358.5 297.5,-328.5 166.5,-328.5"/>
<text text-anchor="start" x="174.5" y="-346.5" font-family="Helvetica,sans-Serif" font-size="10.00">Support_Champ_Masse</text>
<text text-anchor="middle" x="232" y="-335.5" font-family="Helvetica,sans-Serif" font-size="10.00">_Volumique</text>
</a>
</g>
</g>
<!-- Node11&#45;&gt;Node5 -->
<g id="edge10" class="edge">
<title>Node11&#45;&gt;Node5</title>
<path fill="none" stroke="midnightblue" d="M209.04,-321.46C197.46,-310.84 184.05,-298.55 175.32,-290.54"/>
<polygon fill="midnightblue" stroke="midnightblue" points="206.96,-324.29 216.69,-328.47 211.69,-319.13 206.96,-324.29"/>
</g>
<!-- Node12 -->
<g id="node12" class="node">
<title>Node12</title>
<g id="a_node12"><a xlink:href="classOp__Diff__Turbulent__base.html" target="_top" xlink:title=": classe Op_Diff_Turbulent_base Classe de base pour les operateurs de diffusion pour un ecoulement tu...">
<polygon fill="white" stroke="black" points="237.5,-214.5 237.5,-233.5 368.5,-233.5 368.5,-214.5 237.5,-214.5"/>
<text text-anchor="middle" x="303" y="-221.5" font-family="Helvetica,sans-Serif" font-size="10.00">Op_Diff_Turbulent_base</text>
</a>
</g>
</g>
<!-- Node12&#45;&gt;Node3 -->
<g id="edge11" class="edge">
<title>Node12&#45;&gt;Node3</title>
<path fill="none" stroke="midnightblue" d="M285.57,-207.72C272.38,-196.15 254.72,-180.67 243.87,-171.15"/>
<polygon fill="midnightblue" stroke="midnightblue" points="283.29,-210.37 293.11,-214.33 287.9,-205.11 283.29,-210.37"/>
</g>
<!-- Node13 -->
<g id="node13" class="node">
<title>Node13</title>
<g id="a_node13"><a xlink:href="classOp__VDF__Elem.html" target="_top" xlink:title=" ">
<polygon fill="white" stroke="black" points="306,-152 306,-171 392,-171 392,-152 306,-152"/>
<text text-anchor="middle" x="349" y="-159" font-family="Helvetica,sans-Serif" font-size="10.00">Op_VDF_Elem</text>
</a>
</g>
</g>
<!-- Node13&#45;&gt;Node2 -->
<g id="edge12" class="edge">
<title>Node13&#45;&gt;Node2</title>
<path fill="none" stroke="midnightblue" d="M344.95,-141.96C340.92,-123.5 334.91,-95.98 331.88,-82.12"/>
<polygon fill="midnightblue" stroke="midnightblue" points="341.56,-142.82 347.11,-151.84 348.39,-141.32 341.56,-142.82"/>
</g>
<!-- Node14 -->
<g id="node14" class="node">
<title>Node14</title>
<g id="a_node14"><a xlink:href="classOp__Diff__Dift__VDF.html" target="_top" xlink:title=" ">
<polygon fill="white" stroke="black" points="417,-57.5 417,-87.5 565,-87.5 565,-57.5 417,-57.5"/>
<text text-anchor="start" x="425" y="-75.5" font-family="Helvetica,sans-Serif" font-size="10.00">Op_Diff_Dift_VDF&lt; Op</text>
<text text-anchor="middle" x="491" y="-64.5" font-family="Helvetica,sans-Serif" font-size="10.00">_Dift_VDF_var_Elem_Axi &gt;</text>
</a>
</g>
</g>
<!-- Node14&#45;&gt;Node1 -->
<g id="edge13" class="edge">
<title>Node14&#45;&gt;Node1</title>
<path fill="none" stroke="midnightblue" d="M464.05,-51.37C449.56,-40.55 432.46,-27.78 421.43,-19.54"/>
<polygon fill="midnightblue" stroke="midnightblue" points="462.11,-54.29 472.21,-57.47 466.3,-48.68 462.11,-54.29"/>
</g>
<!-- Node15 -->
<g id="node15" class="node">
<title>Node15</title>
<g id="a_node15"><a xlink:href="classOp__Diff__Dift__VDF.html" target="_top" xlink:title=" ">
<polygon fill="white" stroke="black" points="428.5,-146.5 428.5,-176.5 553.5,-176.5 553.5,-146.5 428.5,-146.5"/>
<text text-anchor="start" x="436.5" y="-164.5" font-family="Helvetica,sans-Serif" font-size="10.00">Op_Diff_Dift_VDF&lt; OP</text>
<text text-anchor="middle" x="491" y="-153.5" font-family="Helvetica,sans-Serif" font-size="10.00">_TYPE &gt;</text>
</a>
</g>
</g>
<!-- Node15&#45;&gt;Node14 -->
<g id="edge14" class="edge">
<title>Node15&#45;&gt;Node14</title>
<path fill="none" stroke="orange" stroke-dasharray="5,2" d="M491,-136.09C491,-120.44 491,-100.68 491,-87.6"/>
<polygon fill="orange" stroke="orange" points="487.5,-136.13 491,-146.13 494.5,-136.13 487.5,-136.13"/>
<text text-anchor="start" x="491" y="-120" font-family="Helvetica,sans-Serif" font-size="10.00"> &lt; Op_Dift_VDF_var_Elem</text>
<text text-anchor="middle" x="554.5" y="-109" font-family="Helvetica,sans-Serif" font-size="10.00">_Axi &gt;</text>
</g>
</g>
</svg>
