<?xml version="1.0" encoding="UTF-8" standalone="no"?>
<!DOCTYPE svg PUBLIC "-//W3C//DTD SVG 1.1//EN"
 "http://www.w3.org/Graphics/SVG/1.1/DTD/svg11.dtd">
<!-- Generated by graphviz version 2.43.0 (0)
 -->
<!-- Title: Ref_Marqueur_Lagrange_base Pages: 1 -->
<svg width="172pt" height="252pt"
 viewBox="0.00 0.00 172.00 252.00" xmlns="http://www.w3.org/2000/svg" xmlns:xlink="http://www.w3.org/1999/xlink">
<g id="graph0" class="graph" transform="scale(1 1) rotate(0) translate(4 248)">
<title>Ref_Marqueur_Lagrange_base</title>
<polygon fill="white" stroke="transparent" points="-4,4 -4,-248 168,-248 168,4 -4,4"/>
<!-- Node1 -->
<g id="node1" class="node">
<title>Node1</title>
<g id="a_node1"><a xlink:title=" ">
<polygon fill="#bfbfbf" stroke="black" points="0,-0.5 0,-19.5 164,-19.5 164,-0.5 0,-0.5"/>
<text text-anchor="middle" x="82" y="-7.5" font-family="Helvetica,sans-Serif" font-size="10.00">Ref_Marqueur_Lagrange_base</text>
</a>
</g>
</g>
<!-- Node2 -->
<g id="node2" class="node">
<title>Node2</title>
<g id="a_node2"><a xlink:href="classRef__.html" target="_top" xlink:title="classe Ref_ un type qui permet d&#39;acceder a un objet de la classe Objet_U ou de l&#39;une quelconque des c...">
<polygon fill="white" stroke="black" points="63,-56.5 63,-75.5 101,-75.5 101,-56.5 63,-56.5"/>
<text text-anchor="middle" x="82" y="-63.5" font-family="Helvetica,sans-Serif" font-size="10.00">Ref_</text>
</a>
</g>
</g>
<!-- Node2&#45;&gt;Node1 -->
<g id="edge1" class="edge">
<title>Node2&#45;&gt;Node1</title>
<path fill="none" stroke="midnightblue" d="M82,-45.8C82,-36.91 82,-26.78 82,-19.75"/>
<polygon fill="midnightblue" stroke="midnightblue" points="78.5,-46.08 82,-56.08 85.5,-46.08 78.5,-46.08"/>
</g>
<!-- Node3 -->
<g id="node3" class="node">
<title>Node3</title>
<g id="a_node3"><a xlink:href="classO__U__Ptr.html" target="_top" xlink:title="Pointeur sur un Objet_U. Le constructeur par defaut construit un pointeur &quot;nul&quot;. O_U_Ptr_H.">
<polygon fill="white" stroke="black" points="54,-112.5 54,-131.5 110,-131.5 110,-112.5 54,-112.5"/>
<text text-anchor="middle" x="82" y="-119.5" font-family="Helvetica,sans-Serif" font-size="10.00">O_U_Ptr</text>
</a>
</g>
</g>
<!-- Node3&#45;&gt;Node2 -->
<g id="edge2" class="edge">
<title>Node3&#45;&gt;Node2</title>
<path fill="none" stroke="midnightblue" d="M82,-101.8C82,-92.91 82,-82.78 82,-75.75"/>
<polygon fill="midnightblue" stroke="midnightblue" points="78.5,-102.08 82,-112.08 85.5,-102.08 78.5,-102.08"/>
</g>
<!-- Node4 -->
<g id="node4" class="node">
<title>Node4</title>
<g id="a_node4"><a xlink:href="classObjet__U.html" target="_top" xlink:title="classe Objet_U Cette classe est la classe de base des Objets de TRUST Dans les classes derivees de Ob...">
<polygon fill="white" stroke="black" points="54,-168.5 54,-187.5 110,-187.5 110,-168.5 54,-168.5"/>
<text text-anchor="middle" x="82" y="-175.5" font-family="Helvetica,sans-Serif" font-size="10.00">Objet_U</text>
</a>
</g>
</g>
<!-- Node4&#45;&gt;Node3 -->
<g id="edge3" class="edge">
<title>Node4&#45;&gt;Node3</title>
<path fill="none" stroke="midnightblue" d="M82,-157.8C82,-148.91 82,-138.78 82,-131.75"/>
<polygon fill="midnightblue" stroke="midnightblue" points="78.5,-158.08 82,-168.08 85.5,-158.08 78.5,-158.08"/>
</g>
<!-- Node5 -->
<g id="node5" class="node">
<title>Node5</title>
<g id="a_node5"><a xlink:href="classProcess.html" target="_top" xlink:title="Classe de base de TRUST (notamment Objet_U). Elle fournit quelques services de base accessibles de pa...">
<polygon fill="white" stroke="black" points="55,-224.5 55,-243.5 109,-243.5 109,-224.5 55,-224.5"/>
<text text-anchor="middle" x="82" y="-231.5" font-family="Helvetica,sans-Serif" font-size="10.00">Process</text>
</a>
</g>
</g>
<!-- Node5&#45;&gt;Node4 -->
<g id="edge4" class="edge">
<title>Node5&#45;&gt;Node4</title>
<path fill="none" stroke="midnightblue" d="M82,-213.8C82,-204.91 82,-194.78 82,-187.75"/>
<polygon fill="midnightblue" stroke="midnightblue" points="78.5,-214.08 82,-224.08 85.5,-214.08 78.5,-214.08"/>
</g>
</g>
</svg>
