<?xml version="1.0" encoding="UTF-8" standalone="no"?>
<!DOCTYPE svg PUBLIC "-//W3C//DTD SVG 1.1//EN"
 "http://www.w3.org/Graphics/SVG/1.1/DTD/svg11.dtd">
<!-- Generated by graphviz version 2.43.0 (0)
 -->
<!-- Title: Elem_EF_base Pages: 1 -->
<svg width="464pt" height="252pt"
 viewBox="0.00 0.00 464.00 252.00" xmlns="http://www.w3.org/2000/svg" xmlns:xlink="http://www.w3.org/1999/xlink">
<g id="graph0" class="graph" transform="scale(1 1) rotate(0) translate(4 248)">
<title>Elem_EF_base</title>
<polygon fill="white" stroke="transparent" points="-4,4 -4,-248 460,-248 460,4 -4,4"/>
<!-- Node1 -->
<g id="node1" class="node">
<title>Node1</title>
<g id="a_node1"><a xlink:title=" ">
<polygon fill="#bfbfbf" stroke="black" points="189,-112.5 189,-131.5 276,-131.5 276,-112.5 189,-112.5"/>
<text text-anchor="middle" x="232.5" y="-119.5" font-family="Helvetica,sans-Serif" font-size="10.00">Elem_EF_base</text>
</a>
</g>
</g>
<!-- Node4 -->
<g id="node4" class="node">
<title>Node4</title>
<g id="a_node4"><a xlink:href="classHexa__EF.html" target="_top" xlink:title=" ">
<polygon fill="white" stroke="black" points="0,-56.5 0,-75.5 59,-75.5 59,-56.5 0,-56.5"/>
<text text-anchor="middle" x="29.5" y="-63.5" font-family="Helvetica,sans-Serif" font-size="10.00">Hexa_EF</text>
</a>
</g>
</g>
<!-- Node1&#45;&gt;Node4 -->
<g id="edge3" class="edge">
<title>Node1&#45;&gt;Node4</title>
<path fill="none" stroke="midnightblue" d="M190.54,-109.84C151.35,-99.41 93.85,-84.12 59.2,-74.9"/>
<polygon fill="midnightblue" stroke="midnightblue" points="189.77,-113.26 200.33,-112.44 191.57,-106.49 189.77,-113.26"/>
</g>
<!-- Node5 -->
<g id="node5" class="node">
<title>Node5</title>
<g id="a_node5"><a xlink:href="classPoint__EF.html" target="_top" xlink:title=" ">
<polygon fill="white" stroke="black" points="77,-56.5 77,-75.5 136,-75.5 136,-56.5 77,-56.5"/>
<text text-anchor="middle" x="106.5" y="-63.5" font-family="Helvetica,sans-Serif" font-size="10.00">Point_EF</text>
</a>
</g>
</g>
<!-- Node1&#45;&gt;Node5 -->
<g id="edge4" class="edge">
<title>Node1&#45;&gt;Node5</title>
<path fill="none" stroke="midnightblue" d="M203.34,-108.5C179.72,-98.38 147.07,-84.39 126.37,-75.52"/>
<polygon fill="midnightblue" stroke="midnightblue" points="201.96,-111.72 212.53,-112.44 204.72,-105.29 201.96,-111.72"/>
</g>
<!-- Node6 -->
<g id="node6" class="node">
<title>Node6</title>
<g id="a_node6"><a xlink:href="classQuadri__EF.html" target="_top" xlink:title=" ">
<polygon fill="white" stroke="black" points="154.5,-56.5 154.5,-75.5 220.5,-75.5 220.5,-56.5 154.5,-56.5"/>
<text text-anchor="middle" x="187.5" y="-63.5" font-family="Helvetica,sans-Serif" font-size="10.00">Quadri_EF</text>
</a>
</g>
</g>
<!-- Node1&#45;&gt;Node6 -->
<g id="edge5" class="edge">
<title>Node1&#45;&gt;Node6</title>
<path fill="none" stroke="midnightblue" d="M218.45,-104.14C210.61,-94.74 201.17,-83.4 194.79,-75.75"/>
<polygon fill="midnightblue" stroke="midnightblue" points="215.98,-106.64 225.07,-112.08 221.36,-102.16 215.98,-106.64"/>
</g>
<!-- Node7 -->
<g id="node7" class="node">
<title>Node7</title>
<g id="a_node7"><a xlink:href="classSegment__EF.html" target="_top" xlink:title=" ">
<polygon fill="white" stroke="black" points="239,-56.5 239,-75.5 316,-75.5 316,-56.5 239,-56.5"/>
<text text-anchor="middle" x="277.5" y="-63.5" font-family="Helvetica,sans-Serif" font-size="10.00">Segment_EF</text>
</a>
</g>
</g>
<!-- Node1&#45;&gt;Node7 -->
<g id="edge6" class="edge">
<title>Node1&#45;&gt;Node7</title>
<path fill="none" stroke="midnightblue" d="M246.55,-104.14C254.39,-94.74 263.83,-83.4 270.21,-75.75"/>
<polygon fill="midnightblue" stroke="midnightblue" points="243.64,-102.16 239.93,-112.08 249.02,-106.64 243.64,-102.16"/>
</g>
<!-- Node9 -->
<g id="node9" class="node">
<title>Node9</title>
<g id="a_node9"><a xlink:href="classTetra__EF.html" target="_top" xlink:title=" ">
<polygon fill="white" stroke="black" points="334.5,-56.5 334.5,-75.5 392.5,-75.5 392.5,-56.5 334.5,-56.5"/>
<text text-anchor="middle" x="363.5" y="-63.5" font-family="Helvetica,sans-Serif" font-size="10.00">Tetra_EF</text>
</a>
</g>
</g>
<!-- Node1&#45;&gt;Node9 -->
<g id="edge8" class="edge">
<title>Node1&#45;&gt;Node9</title>
<path fill="none" stroke="midnightblue" d="M262.82,-108.5C287.38,-98.38 321.32,-84.39 342.84,-75.52"/>
<polygon fill="midnightblue" stroke="midnightblue" points="261.17,-105.4 253.26,-112.44 263.84,-111.87 261.17,-105.4"/>
</g>
<!-- Node10 -->
<g id="node10" class="node">
<title>Node10</title>
<g id="a_node10"><a xlink:href="classTri__EF.html" target="_top" xlink:title=" ">
<polygon fill="white" stroke="black" points="411,-56.5 411,-75.5 456,-75.5 456,-56.5 411,-56.5"/>
<text text-anchor="middle" x="433.5" y="-63.5" font-family="Helvetica,sans-Serif" font-size="10.00">Tri_EF</text>
</a>
</g>
</g>
<!-- Node1&#45;&gt;Node10 -->
<g id="edge9" class="edge">
<title>Node1&#45;&gt;Node10</title>
<path fill="none" stroke="midnightblue" d="M275.36,-109.76C309.55,-100.76 358.64,-87.73 401.5,-76 404.51,-75.18 407.67,-74.3 410.79,-73.43"/>
<polygon fill="midnightblue" stroke="midnightblue" points="274.03,-106.49 265.25,-112.42 275.81,-113.26 274.03,-106.49"/>
</g>
<!-- Node2 -->
<g id="node2" class="node">
<title>Node2</title>
<g id="a_node2"><a xlink:href="classObjet__U.html" target="_top" xlink:title="classe Objet_U Cette classe est la classe de base des Objets de TRUST Dans les classes derivees de Ob...">
<polygon fill="white" stroke="black" points="204.5,-168.5 204.5,-187.5 260.5,-187.5 260.5,-168.5 204.5,-168.5"/>
<text text-anchor="middle" x="232.5" y="-175.5" font-family="Helvetica,sans-Serif" font-size="10.00">Objet_U</text>
</a>
</g>
</g>
<!-- Node2&#45;&gt;Node1 -->
<g id="edge1" class="edge">
<title>Node2&#45;&gt;Node1</title>
<path fill="none" stroke="midnightblue" d="M232.5,-157.8C232.5,-148.91 232.5,-138.78 232.5,-131.75"/>
<polygon fill="midnightblue" stroke="midnightblue" points="229,-158.08 232.5,-168.08 236,-158.08 229,-158.08"/>
</g>
<!-- Node3 -->
<g id="node3" class="node">
<title>Node3</title>
<g id="a_node3"><a xlink:href="classProcess.html" target="_top" xlink:title="Classe de base de TRUST (notamment Objet_U). Elle fournit quelques services de base accessibles de pa...">
<polygon fill="white" stroke="black" points="205.5,-224.5 205.5,-243.5 259.5,-243.5 259.5,-224.5 205.5,-224.5"/>
<text text-anchor="middle" x="232.5" y="-231.5" font-family="Helvetica,sans-Serif" font-size="10.00">Process</text>
</a>
</g>
</g>
<!-- Node3&#45;&gt;Node2 -->
<g id="edge2" class="edge">
<title>Node3&#45;&gt;Node2</title>
<path fill="none" stroke="midnightblue" d="M232.5,-213.8C232.5,-204.91 232.5,-194.78 232.5,-187.75"/>
<polygon fill="midnightblue" stroke="midnightblue" points="229,-214.08 232.5,-224.08 236,-214.08 229,-214.08"/>
</g>
<!-- Node8 -->
<g id="node8" class="node">
<title>Node8</title>
<g id="a_node8"><a xlink:href="classSegment__EF__axi.html" target="_top" xlink:title=": class Segment_EF_axi &lt;Description of class Segment_EF_axi&gt;">
<polygon fill="white" stroke="black" points="228.5,-0.5 228.5,-19.5 326.5,-19.5 326.5,-0.5 228.5,-0.5"/>
<text text-anchor="middle" x="277.5" y="-7.5" font-family="Helvetica,sans-Serif" font-size="10.00">Segment_EF_axi</text>
</a>
</g>
</g>
<!-- Node7&#45;&gt;Node8 -->
<g id="edge7" class="edge">
<title>Node7&#45;&gt;Node8</title>
<path fill="none" stroke="midnightblue" d="M277.5,-45.8C277.5,-36.91 277.5,-26.78 277.5,-19.75"/>
<polygon fill="midnightblue" stroke="midnightblue" points="274,-46.08 277.5,-56.08 281,-46.08 274,-46.08"/>
</g>
</g>
</svg>
