<?xml version="1.0" encoding="UTF-8" standalone="no"?>
<!DOCTYPE svg PUBLIC "-//W3C//DTD SVG 1.1//EN"
 "http://www.w3.org/Graphics/SVG/1.1/DTD/svg11.dtd">
<!-- Generated by graphviz version 2.43.0 (0)
 -->
<!-- Title: Eval_Dift_VDF_const_Elem Pages: 1 -->
<svg width="720pt" height="176pt"
 viewBox="0.00 0.00 720.00 176.00" xmlns="http://www.w3.org/2000/svg" xmlns:xlink="http://www.w3.org/1999/xlink">
<g id="graph0" class="graph" transform="scale(1 1) rotate(0) translate(4 172)">
<title>Eval_Dift_VDF_const_Elem</title>
<polygon fill="white" stroke="transparent" points="-4,4 -4,-172 716,-172 716,4 -4,4"/>
<!-- Node1 -->
<g id="node1" class="node">
<title>Node1</title>
<g id="a_node1"><a xlink:title="class Eval_Dift_VDF_const_Elem Evaluateur VDF pour la diffusion totale (laminaire et turbulente) Le c...">
<polygon fill="#bfbfbf" stroke="black" points="565,-62.5 565,-81.5 712,-81.5 712,-62.5 565,-62.5"/>
<text text-anchor="middle" x="638.5" y="-69.5" font-family="Helvetica,sans-Serif" font-size="10.00">Eval_Dift_VDF_const_Elem</text>
</a>
</g>
</g>
<!-- Node2 -->
<g id="node2" class="node">
<title>Node2</title>
<g id="a_node2"><a xlink:href="classEval__Diff__VDF__Elem.html" target="_top" xlink:title=" ">
<polygon fill="white" stroke="black" points="400,-92.5 400,-133.5 528,-133.5 528,-92.5 400,-92.5"/>
<text text-anchor="start" x="408" y="-121.5" font-family="Helvetica,sans-Serif" font-size="10.00">Eval_Diff_VDF_Elem</text>
<text text-anchor="start" x="408" y="-110.5" font-family="Helvetica,sans-Serif" font-size="10.00">&lt; Eval_Dift_VDF_const</text>
<text text-anchor="middle" x="464" y="-99.5" font-family="Helvetica,sans-Serif" font-size="10.00">_Elem &gt;</text>
</a>
</g>
</g>
<!-- Node2&#45;&gt;Node1 -->
<g id="edge1" class="edge">
<title>Node2&#45;&gt;Node1</title>
<path fill="none" stroke="midnightblue" d="M538.11,-95.62C558.39,-90.8 579.66,-85.75 597.3,-81.55"/>
<polygon fill="midnightblue" stroke="midnightblue" points="537.17,-92.25 528.25,-97.97 538.79,-99.06 537.17,-92.25"/>
</g>
<!-- Node3 -->
<g id="node3" class="node">
<title>Node3</title>
<g id="a_node3"><a xlink:href="classEval__VDF__Elem.html" target="_top" xlink:title="class Eval_VDF_Elem Cette classe represente le prototype fonctionnel des evaluateurs de flux associes...">
<polygon fill="white" stroke="black" points="1,-148.5 1,-167.5 94,-167.5 94,-148.5 1,-148.5"/>
<text text-anchor="middle" x="47.5" y="-155.5" font-family="Helvetica,sans-Serif" font-size="10.00">Eval_VDF_Elem</text>
</a>
</g>
</g>
<!-- Node3&#45;&gt;Node2 -->
<g id="edge2" class="edge">
<title>Node3&#45;&gt;Node2</title>
<path fill="none" stroke="midnightblue" d="M104.36,-163.65C171.34,-168.83 286.52,-172.66 382,-150 396.89,-146.47 412.38,-140.13 425.77,-133.69"/>
<polygon fill="midnightblue" stroke="midnightblue" points="104.28,-160.13 94.03,-162.81 103.72,-167.11 104.28,-160.13"/>
</g>
<!-- Node5 -->
<g id="node5" class="node">
<title>Node5</title>
<g id="a_node5"><a xlink:href="classEval__Diff__VDF__Elem.html" target="_top" xlink:title="class Eval_Diff_VDF_Elem Evaluateur VDF pour la diffusion : Le champ diffuse est un Champ_P0_VDF temp...">
<polygon fill="white" stroke="black" points="132.5,-115 132.5,-145 248.5,-145 248.5,-115 132.5,-115"/>
<text text-anchor="start" x="140.5" y="-133" font-family="Helvetica,sans-Serif" font-size="10.00">Eval_Diff_VDF_Elem</text>
<text text-anchor="middle" x="190.5" y="-122" font-family="Helvetica,sans-Serif" font-size="10.00">&lt; DERIVED_T &gt;</text>
</a>
</g>
</g>
<!-- Node3&#45;&gt;Node5 -->
<g id="edge5" class="edge">
<title>Node3&#45;&gt;Node5</title>
<path fill="none" stroke="midnightblue" d="M104.16,-146.95C113.42,-145.11 123.05,-143.2 132.35,-141.35"/>
<polygon fill="midnightblue" stroke="midnightblue" points="103.41,-143.53 94.28,-148.91 104.77,-150.39 103.41,-143.53"/>
</g>
<!-- Node4 -->
<g id="node4" class="node">
<title>Node4</title>
<g id="a_node4"><a xlink:href="classEvaluateur__VDF.html" target="_top" xlink:title="class Evaluateur_VDF Classe de base des evaluateurs VDF. Cette classe n&#39;appartient pas a la hierarchi...">
<polygon fill="white" stroke="black" points="0,-98.5 0,-117.5 95,-117.5 95,-98.5 0,-98.5"/>
<text text-anchor="middle" x="47.5" y="-105.5" font-family="Helvetica,sans-Serif" font-size="10.00">Evaluateur_VDF</text>
</a>
</g>
</g>
<!-- Node4&#45;&gt;Node2 -->
<g id="edge3" class="edge">
<title>Node4&#45;&gt;Node2</title>
<path fill="none" stroke="midnightblue" d="M105.57,-106.45C114.42,-106.26 123.45,-106.1 132,-106 184,-105.38 197.01,-105.15 249,-106 299.73,-106.83 357.21,-108.76 399.81,-110.39"/>
<polygon fill="midnightblue" stroke="midnightblue" points="105.23,-102.96 95.31,-106.68 105.38,-109.96 105.23,-102.96"/>
</g>
<!-- Node4&#45;&gt;Node5 -->
<g id="edge6" class="edge">
<title>Node4&#45;&gt;Node5</title>
<path fill="none" stroke="midnightblue" d="M105.06,-116.83C114.07,-118.23 123.4,-119.69 132.42,-121.09"/>
<polygon fill="midnightblue" stroke="midnightblue" points="105.48,-113.35 95.06,-115.26 104.4,-120.26 105.48,-113.35"/>
</g>
<!-- Node5&#45;&gt;Node2 -->
<g id="edge4" class="edge">
<title>Node5&#45;&gt;Node2</title>
<path fill="none" stroke="orange" stroke-dasharray="5,2" d="M258.85,-125.78C301.91,-123.09 357.41,-119.61 399.66,-116.97"/>
<polygon fill="orange" stroke="orange" points="258.51,-122.3 248.75,-126.42 258.95,-129.28 258.51,-122.3"/>
<text text-anchor="start" x="267" y="-138" font-family="Helvetica,sans-Serif" font-size="10.00"> &lt; Eval_Dift_VDF_const</text>
<text text-anchor="middle" x="324.5" y="-127" font-family="Helvetica,sans-Serif" font-size="10.00">_Elem &gt;</text>
</g>
<!-- Node6 -->
<g id="node6" class="node">
<title>Node6</title>
<g id="a_node6"><a xlink:href="classEval__Dift__VDF__const.html" target="_top" xlink:title="class Eval_Dift_VDF_const Cette classe represente un evaluateur de flux diffusif total (diffusion lam...">
<polygon fill="white" stroke="black" points="405.5,-38.5 405.5,-57.5 522.5,-57.5 522.5,-38.5 405.5,-38.5"/>
<text text-anchor="middle" x="464" y="-45.5" font-family="Helvetica,sans-Serif" font-size="10.00">Eval_Dift_VDF_const</text>
</a>
</g>
</g>
<!-- Node6&#45;&gt;Node1 -->
<g id="edge7" class="edge">
<title>Node6&#45;&gt;Node1</title>
<path fill="none" stroke="midnightblue" d="M533.13,-57.48C544.92,-59.12 557.18,-60.83 568.98,-62.47"/>
<polygon fill="midnightblue" stroke="midnightblue" points="533.31,-53.97 522.92,-56.06 532.34,-60.9 533.31,-53.97"/>
</g>
<!-- Node7 -->
<g id="node7" class="node">
<title>Node7</title>
<g id="a_node7"><a xlink:href="classEval__Diff__VDF__const.html" target="_top" xlink:title="class Eval_Diff_VDF_const Cette classe represente un evaluateur de flux diffusif avec un coefficient ...">
<polygon fill="white" stroke="black" points="132,-38.5 132,-57.5 249,-57.5 249,-38.5 132,-38.5"/>
<text text-anchor="middle" x="190.5" y="-45.5" font-family="Helvetica,sans-Serif" font-size="10.00">Eval_Diff_VDF_const</text>
</a>
</g>
</g>
<!-- Node7&#45;&gt;Node6 -->
<g id="edge8" class="edge">
<title>Node7&#45;&gt;Node6</title>
<path fill="none" stroke="midnightblue" d="M259.3,-48C304.16,-48 362.34,-48 405.04,-48"/>
<polygon fill="midnightblue" stroke="midnightblue" points="259.08,-44.5 249.08,-48 259.08,-51.5 259.08,-44.5"/>
</g>
<!-- Node8 -->
<g id="node8" class="node">
<title>Node8</title>
<g id="a_node8"><a xlink:href="classEval__Diff__VDF.html" target="_top" xlink:title=" ">
<polygon fill="white" stroke="black" points="4.5,-38.5 4.5,-57.5 90.5,-57.5 90.5,-38.5 4.5,-38.5"/>
<text text-anchor="middle" x="47.5" y="-45.5" font-family="Helvetica,sans-Serif" font-size="10.00">Eval_Diff_VDF</text>
</a>
</g>
</g>
<!-- Node8&#45;&gt;Node7 -->
<g id="edge9" class="edge">
<title>Node8&#45;&gt;Node7</title>
<path fill="none" stroke="midnightblue" d="M101.04,-48C111.09,-48 121.65,-48 131.84,-48"/>
<polygon fill="midnightblue" stroke="midnightblue" points="100.8,-44.5 90.8,-48 100.8,-51.5 100.8,-44.5"/>
</g>
<!-- Node9 -->
<g id="node9" class="node">
<title>Node9</title>
<g id="a_node9"><a xlink:href="classEval__Turbulence.html" target="_top" xlink:title="class Eval_Turbulence Implements all stuff related to turbulence for VDF evaluators.">
<polygon fill="white" stroke="black" points="143,-0.5 143,-19.5 238,-19.5 238,-0.5 143,-0.5"/>
<text text-anchor="middle" x="190.5" y="-7.5" font-family="Helvetica,sans-Serif" font-size="10.00">Eval_Turbulence</text>
</a>
</g>
</g>
<!-- Node9&#45;&gt;Node6 -->
<g id="edge10" class="edge">
<title>Node9&#45;&gt;Node6</title>
<path fill="none" stroke="midnightblue" d="M248.28,-17.95C294.28,-24.39 358.85,-33.42 405.14,-39.9"/>
<polygon fill="midnightblue" stroke="midnightblue" points="248.56,-14.45 238.17,-16.53 247.59,-21.38 248.56,-14.45"/>
</g>
</g>
</svg>
