<?xml version="1.0" encoding="UTF-8" standalone="no"?>
<!DOCTYPE svg PUBLIC "-//W3C//DTD SVG 1.1//EN"
 "http://www.w3.org/Graphics/SVG/1.1/DTD/svg11.dtd">
<!-- Generated by graphviz version 2.43.0 (0)
 -->
<!-- Title: Ch_front_var_instationnaire_indep Pages: 1 -->
<svg width="1291pt" height="211pt"
 viewBox="0.00 0.00 1291.00 211.00" xmlns="http://www.w3.org/2000/svg" xmlns:xlink="http://www.w3.org/1999/xlink">
<g id="graph0" class="graph" transform="scale(1 1) rotate(0) translate(4 207)">
<title>Ch_front_var_instationnaire_indep</title>
<polygon fill="white" stroke="transparent" points="-4,4 -4,-207 1287,-207 1287,4 -4,4"/>
<!-- Node1 -->
<g id="node1" class="node">
<title>Node1</title>
<g id="a_node1"><a xlink:title="classe Ch_front_var_instationnaire_indep Cette classe abstraite represente un champ sur une frontiere...">
<polygon fill="#bfbfbf" stroke="black" points="790,-96 790,-126 942,-126 942,-96 790,-96"/>
<text text-anchor="start" x="798" y="-114" font-family="Helvetica,sans-Serif" font-size="10.00">Ch_front_var_instationnaire</text>
<text text-anchor="middle" x="866" y="-103" font-family="Helvetica,sans-Serif" font-size="10.00">_indep</text>
</a>
</g>
</g>
<!-- Node9 -->
<g id="node9" class="node">
<title>Node9</title>
<g id="a_node9"><a xlink:href="classChamp__front__bruite.html" target="_top" xlink:title="classe Champ_front_bruite Classe derivee de Champ_front_base qui represente les champs aux frontieres...">
<polygon fill="white" stroke="black" points="986,-183.5 986,-202.5 1099,-202.5 1099,-183.5 986,-183.5"/>
<text text-anchor="middle" x="1042.5" y="-190.5" font-family="Helvetica,sans-Serif" font-size="10.00">Champ_front_bruite</text>
</a>
</g>
</g>
<!-- Node1&#45;&gt;Node9 -->
<g id="edge8" class="edge">
<title>Node1&#45;&gt;Node9</title>
<path fill="none" stroke="midnightblue" d="M898.51,-131.42C920.21,-144.85 950.06,-162.07 978,-174 986.36,-177.57 995.61,-180.74 1004.4,-183.43"/>
<polygon fill="midnightblue" stroke="midnightblue" points="900.36,-128.46 890.03,-126.12 896.65,-134.39 900.36,-128.46"/>
</g>
<!-- Node10 -->
<g id="node10" class="node">
<title>Node10</title>
<g id="a_node10"><a xlink:href="classChamp__front__debit__QC.html" target="_top" xlink:title="classe Champ_front_debit_QC Classe derivee de Champ_front_base qui represente les champs aux frontier...">
<polygon fill="white" stroke="black" points="978,-145.5 978,-164.5 1107,-164.5 1107,-145.5 978,-145.5"/>
<text text-anchor="middle" x="1042.5" y="-152.5" font-family="Helvetica,sans-Serif" font-size="10.00">Champ_front_debit_QC</text>
</a>
</g>
</g>
<!-- Node1&#45;&gt;Node10 -->
<g id="edge9" class="edge">
<title>Node1&#45;&gt;Node10</title>
<path fill="none" stroke="midnightblue" d="M936.3,-128.47C959.31,-134.28 984.06,-140.52 1003.77,-145.49"/>
<polygon fill="midnightblue" stroke="midnightblue" points="937.12,-125.07 926.56,-126.02 935.41,-131.86 937.12,-125.07"/>
</g>
<!-- Node11 -->
<g id="node11" class="node">
<title>Node11</title>
<g id="a_node11"><a xlink:href="classChamp__front__debit__QC__fonc__t.html" target="_top" xlink:title="classe Champ_front_debit_QC_fonc_t Classe derivee de Champ_front_base qui represente les champs aux f...">
<polygon fill="white" stroke="black" points="978,-96 978,-126 1107,-126 1107,-96 978,-96"/>
<text text-anchor="start" x="986" y="-114" font-family="Helvetica,sans-Serif" font-size="10.00">Champ_front_debit_QC</text>
<text text-anchor="middle" x="1042.5" y="-103" font-family="Helvetica,sans-Serif" font-size="10.00">_fonc_t</text>
</a>
</g>
</g>
<!-- Node1&#45;&gt;Node11 -->
<g id="edge10" class="edge">
<title>Node1&#45;&gt;Node11</title>
<path fill="none" stroke="midnightblue" d="M952.12,-111C960.76,-111 969.43,-111 977.78,-111"/>
<polygon fill="midnightblue" stroke="midnightblue" points="952.02,-107.5 942.02,-111 952.02,-114.5 952.02,-107.5"/>
</g>
<!-- Node12 -->
<g id="node12" class="node">
<title>Node12</title>
<g id="a_node12"><a xlink:href="classChamp__front__t.html" target="_top" xlink:title="classe Champ_front_t Classe derivee de Champ_front_var qui represente les champs aux frontieres analy...">
<polygon fill="white" stroke="black" points="998,-57.5 998,-76.5 1087,-76.5 1087,-57.5 998,-57.5"/>
<text text-anchor="middle" x="1042.5" y="-64.5" font-family="Helvetica,sans-Serif" font-size="10.00">Champ_front_t</text>
</a>
</g>
</g>
<!-- Node1&#45;&gt;Node12 -->
<g id="edge11" class="edge">
<title>Node1&#45;&gt;Node12</title>
<path fill="none" stroke="midnightblue" d="M936.3,-93.53C959.31,-87.72 984.06,-81.48 1003.77,-76.51"/>
<polygon fill="midnightblue" stroke="midnightblue" points="935.41,-90.14 926.56,-95.98 937.12,-96.93 935.41,-90.14"/>
</g>
<!-- Node13 -->
<g id="node13" class="node">
<title>Node13</title>
<g id="a_node13"><a xlink:href="classChamp__front__txyz.html" target="_top" xlink:title="classe Champ_front_txyz Classe derivee de Champ_front_var qui represente les champs aux frontieres an...">
<polygon fill="white" stroke="black" points="989.5,-19.5 989.5,-38.5 1095.5,-38.5 1095.5,-19.5 989.5,-19.5"/>
<text text-anchor="middle" x="1042.5" y="-26.5" font-family="Helvetica,sans-Serif" font-size="10.00">Champ_front_txyz</text>
</a>
</g>
</g>
<!-- Node1&#45;&gt;Node13 -->
<g id="edge12" class="edge">
<title>Node1&#45;&gt;Node13</title>
<path fill="none" stroke="midnightblue" d="M898.51,-90.58C920.21,-77.15 950.06,-59.93 978,-48 986.36,-44.43 995.61,-41.26 1004.4,-38.57"/>
<polygon fill="midnightblue" stroke="midnightblue" points="896.65,-87.61 890.03,-95.88 900.36,-93.54 896.65,-87.61"/>
</g>
<!-- Node2 -->
<g id="node2" class="node">
<title>Node2</title>
<g id="a_node2"><a xlink:href="classChamp__front__var__instationnaire.html" target="_top" xlink:title="classe Champ_front_var_instationnaire Classe derivee de Champ_front_var qui represente les champs aux...">
<polygon fill="white" stroke="black" points="581,-101.5 581,-120.5 754,-120.5 754,-101.5 581,-101.5"/>
<text text-anchor="middle" x="667.5" y="-108.5" font-family="Helvetica,sans-Serif" font-size="10.00">Champ_front_var_instationnaire</text>
</a>
</g>
</g>
<!-- Node2&#45;&gt;Node1 -->
<g id="edge1" class="edge">
<title>Node2&#45;&gt;Node1</title>
<path fill="none" stroke="midnightblue" d="M764.2,-111C772.8,-111 781.44,-111 789.84,-111"/>
<polygon fill="midnightblue" stroke="midnightblue" points="764.12,-107.5 754.12,-111 764.12,-114.5 764.12,-107.5"/>
</g>
<!-- Node3 -->
<g id="node3" class="node">
<title>Node3</title>
<g id="a_node3"><a xlink:href="classChamp__front__var.html" target="_top" xlink:title="classe Champ_front_var Classe derivee de Champ_front_base qui represente un champ sur une frontiere v...">
<polygon fill="white" stroke="black" points="444,-101.5 444,-120.5 545,-120.5 545,-101.5 444,-101.5"/>
<text text-anchor="middle" x="494.5" y="-108.5" font-family="Helvetica,sans-Serif" font-size="10.00">Champ_front_var</text>
</a>
</g>
</g>
<!-- Node3&#45;&gt;Node2 -->
<g id="edge2" class="edge">
<title>Node3&#45;&gt;Node2</title>
<path fill="none" stroke="midnightblue" d="M555.57,-111C563.76,-111 572.28,-111 580.81,-111"/>
<polygon fill="midnightblue" stroke="midnightblue" points="555.42,-107.5 545.42,-111 555.42,-114.5 555.42,-107.5"/>
</g>
<!-- Node4 -->
<g id="node4" class="node">
<title>Node4</title>
<g id="a_node4"><a xlink:href="classChamp__front__base.html" target="_top" xlink:title="classe Champ_front_base Classe de base pour la hierarchie des champs aux frontieres....">
<polygon fill="white" stroke="black" points="300,-101.5 300,-120.5 408,-120.5 408,-101.5 300,-101.5"/>
<text text-anchor="middle" x="354" y="-108.5" font-family="Helvetica,sans-Serif" font-size="10.00">Champ_front_base</text>
</a>
</g>
</g>
<!-- Node4&#45;&gt;Node3 -->
<g id="edge3" class="edge">
<title>Node4&#45;&gt;Node3</title>
<path fill="none" stroke="midnightblue" d="M418.19,-111C426.81,-111 435.56,-111 443.9,-111"/>
<polygon fill="midnightblue" stroke="midnightblue" points="418.15,-107.5 408.15,-111 418.15,-114.5 418.15,-107.5"/>
</g>
<!-- Node5 -->
<g id="node5" class="node">
<title>Node5</title>
<g id="a_node5"><a xlink:href="classField__base.html" target="_top" xlink:title=" ">
<polygon fill="white" stroke="black" points="189,-120.5 189,-139.5 257,-139.5 257,-120.5 189,-120.5"/>
<text text-anchor="middle" x="223" y="-127.5" font-family="Helvetica,sans-Serif" font-size="10.00">Field_base</text>
</a>
</g>
</g>
<!-- Node5&#45;&gt;Node4 -->
<g id="edge4" class="edge">
<title>Node5&#45;&gt;Node4</title>
<path fill="none" stroke="midnightblue" d="M267.33,-123.62C277.77,-122.08 289.04,-120.42 299.87,-118.83"/>
<polygon fill="midnightblue" stroke="midnightblue" points="266.6,-120.19 257.22,-125.11 267.62,-127.11 266.6,-120.19"/>
</g>
<!-- Node6 -->
<g id="node6" class="node">
<title>Node6</title>
<g id="a_node6"><a xlink:href="classObjet__U.html" target="_top" xlink:title="classe Objet_U Cette classe est la classe de base des Objets de TRUST Dans les classes derivees de Ob...">
<polygon fill="white" stroke="black" points="90,-120.5 90,-139.5 146,-139.5 146,-120.5 90,-120.5"/>
<text text-anchor="middle" x="118" y="-127.5" font-family="Helvetica,sans-Serif" font-size="10.00">Objet_U</text>
</a>
</g>
</g>
<!-- Node6&#45;&gt;Node5 -->
<g id="edge5" class="edge">
<title>Node6&#45;&gt;Node5</title>
<path fill="none" stroke="midnightblue" d="M156.34,-130C166.98,-130 178.5,-130 188.87,-130"/>
<polygon fill="midnightblue" stroke="midnightblue" points="156.06,-126.5 146.06,-130 156.06,-133.5 156.06,-126.5"/>
</g>
<!-- Node7 -->
<g id="node7" class="node">
<title>Node7</title>
<g id="a_node7"><a xlink:href="classProcess.html" target="_top" xlink:title="Classe de base de TRUST (notamment Objet_U). Elle fournit quelques services de base accessibles de pa...">
<polygon fill="white" stroke="black" points="0,-120.5 0,-139.5 54,-139.5 54,-120.5 0,-120.5"/>
<text text-anchor="middle" x="27" y="-127.5" font-family="Helvetica,sans-Serif" font-size="10.00">Process</text>
</a>
</g>
</g>
<!-- Node7&#45;&gt;Node6 -->
<g id="edge6" class="edge">
<title>Node7&#45;&gt;Node6</title>
<path fill="none" stroke="midnightblue" d="M64.29,-130C72.79,-130 81.7,-130 89.73,-130"/>
<polygon fill="midnightblue" stroke="midnightblue" points="64.22,-126.5 54.22,-130 64.22,-133.5 64.22,-126.5"/>
</g>
<!-- Node8 -->
<g id="node8" class="node">
<title>Node8</title>
<g id="a_node8"><a xlink:href="classChamp__Proto.html" target="_top" xlink:title="classe Champ_Proto Classe representant un prototype de Champ. Tous les classes representant des champ...">
<polygon fill="white" stroke="black" points="182,-82.5 182,-101.5 264,-101.5 264,-82.5 182,-82.5"/>
<text text-anchor="middle" x="223" y="-89.5" font-family="Helvetica,sans-Serif" font-size="10.00">Champ_Proto</text>
</a>
</g>
</g>
<!-- Node8&#45;&gt;Node4 -->
<g id="edge7" class="edge">
<title>Node8&#45;&gt;Node4</title>
<path fill="none" stroke="midnightblue" d="M274.11,-99.38C282.48,-100.61 291.19,-101.9 299.63,-103.14"/>
<polygon fill="midnightblue" stroke="midnightblue" points="274.51,-95.9 264.11,-97.91 273.49,-102.83 274.51,-95.9"/>
</g>
<!-- Node14 -->
<g id="node14" class="node">
<title>Node14</title>
<g id="a_node14"><a xlink:href="classChamp__Front__xyz__Tabule.html" target="_top" xlink:title=": class Champ_Front_xyz_Tabule &lt;Description of class Champ_Front_xyz_Tabule&gt;">
<polygon fill="white" stroke="black" points="1143,-38.5 1143,-57.5 1283,-57.5 1283,-38.5 1143,-38.5"/>
<text text-anchor="middle" x="1213" y="-45.5" font-family="Helvetica,sans-Serif" font-size="10.00">Champ_Front_xyz_Tabule</text>
</a>
</g>
</g>
<!-- Node13&#45;&gt;Node14 -->
<g id="edge13" class="edge">
<title>Node13&#45;&gt;Node14</title>
<path fill="none" stroke="midnightblue" d="M1105.85,-36.03C1117.92,-37.39 1130.64,-38.83 1142.91,-40.21"/>
<polygon fill="midnightblue" stroke="midnightblue" points="1106.22,-32.55 1095.89,-34.91 1105.44,-39.51 1106.22,-32.55"/>
</g>
<!-- Node15 -->
<g id="node15" class="node">
<title>Node15</title>
<g id="a_node15"><a xlink:href="classChamp__front__MED.html" target="_top" xlink:title=" ">
<polygon fill="white" stroke="black" points="1159.5,-0.5 1159.5,-19.5 1266.5,-19.5 1266.5,-0.5 1159.5,-0.5"/>
<text text-anchor="middle" x="1213" y="-7.5" font-family="Helvetica,sans-Serif" font-size="10.00">Champ_front_MED</text>
</a>
</g>
</g>
<!-- Node13&#45;&gt;Node15 -->
<g id="edge14" class="edge">
<title>Node13&#45;&gt;Node15</title>
<path fill="none" stroke="midnightblue" d="M1106.03,-21.95C1123.57,-19.97 1142.45,-17.84 1159.35,-15.94"/>
<polygon fill="midnightblue" stroke="midnightblue" points="1105.44,-18.49 1095.89,-23.09 1106.22,-25.45 1105.44,-18.49"/>
</g>
</g>
</svg>
