<?xml version="1.0" encoding="UTF-8" standalone="no"?>
<!DOCTYPE svg PUBLIC "-//W3C//DTD SVG 1.1//EN"
 "http://www.w3.org/Graphics/SVG/1.1/DTD/svg11.dtd">
<!-- Generated by graphviz version 2.43.0 (0)
 -->
<!-- Title: Temperature_imposee_paroi_H Pages: 1 -->
<svg width="135pt" height="386pt"
 viewBox="0.00 0.00 135.00 386.00" xmlns="http://www.w3.org/2000/svg" xmlns:xlink="http://www.w3.org/1999/xlink">
<g id="graph0" class="graph" transform="scale(1 1) rotate(0) translate(4 382)">
<title>Temperature_imposee_paroi_H</title>
<polygon fill="white" stroke="transparent" points="-4,4 -4,-382 131,-382 131,4 -4,4"/>
<!-- Node1 -->
<g id="node1" class="node">
<title>Node1</title>
<g id="a_node1"><a xlink:title="classe Temperature_imposee_paroi_H Impose la temperature de la paroi dans une equation de type Convec...">
<polygon fill="#bfbfbf" stroke="black" points="1,-0.5 1,-30.5 126,-30.5 126,-0.5 1,-0.5"/>
<text text-anchor="start" x="9" y="-18.5" font-family="Helvetica,sans-Serif" font-size="10.00">Temperature_imposee</text>
<text text-anchor="middle" x="63.5" y="-7.5" font-family="Helvetica,sans-Serif" font-size="10.00">_paroi_H</text>
</a>
</g>
</g>
<!-- Node2 -->
<g id="node2" class="node">
<title>Node2</title>
<g id="a_node2"><a xlink:href="classTemperature__imposee__paroi.html" target="_top" xlink:title="classe Temperature_imposee_paroi Impose la temperature de la paroi dans une equation de type Convecti...">
<polygon fill="white" stroke="black" points="1,-67.5 1,-97.5 126,-97.5 126,-67.5 1,-67.5"/>
<text text-anchor="start" x="9" y="-85.5" font-family="Helvetica,sans-Serif" font-size="10.00">Temperature_imposee</text>
<text text-anchor="middle" x="63.5" y="-74.5" font-family="Helvetica,sans-Serif" font-size="10.00">_paroi</text>
</a>
</g>
</g>
<!-- Node2&#45;&gt;Node1 -->
<g id="edge1" class="edge">
<title>Node2&#45;&gt;Node1</title>
<path fill="none" stroke="midnightblue" d="M63.5,-57.11C63.5,-48.15 63.5,-38.32 63.5,-30.58"/>
<polygon fill="midnightblue" stroke="midnightblue" points="60,-57.4 63.5,-67.4 67,-57.4 60,-57.4"/>
</g>
<!-- Node3 -->
<g id="node3" class="node">
<title>Node3</title>
<g id="a_node3"><a xlink:href="classScalaire__impose__paroi.html" target="_top" xlink:title="classe Scalaire_impose_paroi Impose un scalaire a la paroi dans une equation de type Convection&#45;Difus...">
<polygon fill="white" stroke="black" points="0,-134.5 0,-153.5 127,-153.5 127,-134.5 0,-134.5"/>
<text text-anchor="middle" x="63.5" y="-141.5" font-family="Helvetica,sans-Serif" font-size="10.00">Scalaire_impose_paroi</text>
</a>
</g>
</g>
<!-- Node3&#45;&gt;Node2 -->
<g id="edge2" class="edge">
<title>Node3&#45;&gt;Node2</title>
<path fill="none" stroke="midnightblue" d="M63.5,-124.23C63.5,-115.59 63.5,-105.5 63.5,-97.52"/>
<polygon fill="midnightblue" stroke="midnightblue" points="60,-124.48 63.5,-134.48 67,-124.48 60,-124.48"/>
</g>
<!-- Node4 -->
<g id="node4" class="node">
<title>Node4</title>
<g id="a_node4"><a xlink:href="classDirichlet.html" target="_top" xlink:title="classe Dirichlet Cette classe est la classe de base de la hierarchie des conditions aux limites de ty...">
<polygon fill="white" stroke="black" points="34.5,-190.5 34.5,-209.5 92.5,-209.5 92.5,-190.5 34.5,-190.5"/>
<text text-anchor="middle" x="63.5" y="-197.5" font-family="Helvetica,sans-Serif" font-size="10.00">Dirichlet</text>
</a>
</g>
</g>
<!-- Node4&#45;&gt;Node3 -->
<g id="edge3" class="edge">
<title>Node4&#45;&gt;Node3</title>
<path fill="none" stroke="midnightblue" d="M63.5,-179.8C63.5,-170.91 63.5,-160.78 63.5,-153.75"/>
<polygon fill="midnightblue" stroke="midnightblue" points="60,-180.08 63.5,-190.08 67,-180.08 60,-180.08"/>
</g>
<!-- Node5 -->
<g id="node5" class="node">
<title>Node5</title>
<g id="a_node5"><a xlink:href="classCond__lim__base.html" target="_top" xlink:title="classe Cond_lim_base Classe de base pour la hierarchie des classes qui representent les differentes c...">
<polygon fill="white" stroke="black" points="18,-246.5 18,-265.5 109,-265.5 109,-246.5 18,-246.5"/>
<text text-anchor="middle" x="63.5" y="-253.5" font-family="Helvetica,sans-Serif" font-size="10.00">Cond_lim_base</text>
</a>
</g>
</g>
<!-- Node5&#45;&gt;Node4 -->
<g id="edge4" class="edge">
<title>Node5&#45;&gt;Node4</title>
<path fill="none" stroke="midnightblue" d="M63.5,-235.8C63.5,-226.91 63.5,-216.78 63.5,-209.75"/>
<polygon fill="midnightblue" stroke="midnightblue" points="60,-236.08 63.5,-246.08 67,-236.08 60,-236.08"/>
</g>
<!-- Node6 -->
<g id="node6" class="node">
<title>Node6</title>
<g id="a_node6"><a xlink:href="classObjet__U.html" target="_top" xlink:title="classe Objet_U Cette classe est la classe de base des Objets de TRUST Dans les classes derivees de Ob...">
<polygon fill="white" stroke="black" points="35.5,-302.5 35.5,-321.5 91.5,-321.5 91.5,-302.5 35.5,-302.5"/>
<text text-anchor="middle" x="63.5" y="-309.5" font-family="Helvetica,sans-Serif" font-size="10.00">Objet_U</text>
</a>
</g>
</g>
<!-- Node6&#45;&gt;Node5 -->
<g id="edge5" class="edge">
<title>Node6&#45;&gt;Node5</title>
<path fill="none" stroke="midnightblue" d="M63.5,-291.8C63.5,-282.91 63.5,-272.78 63.5,-265.75"/>
<polygon fill="midnightblue" stroke="midnightblue" points="60,-292.08 63.5,-302.08 67,-292.08 60,-292.08"/>
</g>
<!-- Node7 -->
<g id="node7" class="node">
<title>Node7</title>
<g id="a_node7"><a xlink:href="classProcess.html" target="_top" xlink:title="Classe de base de TRUST (notamment Objet_U). Elle fournit quelques services de base accessibles de pa...">
<polygon fill="white" stroke="black" points="36.5,-358.5 36.5,-377.5 90.5,-377.5 90.5,-358.5 36.5,-358.5"/>
<text text-anchor="middle" x="63.5" y="-365.5" font-family="Helvetica,sans-Serif" font-size="10.00">Process</text>
</a>
</g>
</g>
<!-- Node7&#45;&gt;Node6 -->
<g id="edge6" class="edge">
<title>Node7&#45;&gt;Node6</title>
<path fill="none" stroke="midnightblue" d="M63.5,-347.8C63.5,-338.91 63.5,-328.78 63.5,-321.75"/>
<polygon fill="midnightblue" stroke="midnightblue" points="60,-348.08 63.5,-358.08 67,-348.08 60,-348.08"/>
</g>
</g>
</svg>
