<?xml version="1.0" encoding="UTF-8" standalone="no"?>
<!DOCTYPE svg PUBLIC "-//W3C//DTD SVG 1.1//EN"
 "http://www.w3.org/Graphics/SVG/1.1/DTD/svg11.dtd">
<!-- Generated by graphviz version 2.43.0 (0)
 -->
<!-- Title: Source_WC_Chaleur Pages: 1 -->
<svg width="350pt" height="319pt"
 viewBox="0.00 0.00 349.50 319.00" xmlns="http://www.w3.org/2000/svg" xmlns:xlink="http://www.w3.org/1999/xlink">
<g id="graph0" class="graph" transform="scale(1 1) rotate(0) translate(4 315)">
<title>Source_WC_Chaleur</title>
<polygon fill="white" stroke="transparent" points="-4,4 -4,-315 345.5,-315 345.5,4 -4,4"/>
<!-- Node1 -->
<g id="node1" class="node">
<title>Node1</title>
<g id="a_node1"><a xlink:title="class Source_WC_Chaleur Cette classe represente un terme source supplementaire a prendre en compte da...">
<polygon fill="#bfbfbf" stroke="black" points="136.5,-56.5 136.5,-75.5 250.5,-75.5 250.5,-56.5 136.5,-56.5"/>
<text text-anchor="middle" x="193.5" y="-63.5" font-family="Helvetica,sans-Serif" font-size="10.00">Source_WC_Chaleur</text>
</a>
</g>
</g>
<!-- Node8 -->
<g id="node8" class="node">
<title>Node8</title>
<g id="a_node8"><a xlink:href="classSource__WC__Chaleur__VDF.html" target="_top" xlink:title="class Source_WC_Chaleur_VDF Cette classe represente un terme source supplementaire a prendre en compt...">
<polygon fill="white" stroke="black" points="45.5,-0.5 45.5,-19.5 185.5,-19.5 185.5,-0.5 45.5,-0.5"/>
<text text-anchor="middle" x="115.5" y="-7.5" font-family="Helvetica,sans-Serif" font-size="10.00">Source_WC_Chaleur_VDF</text>
</a>
</g>
</g>
<!-- Node1&#45;&gt;Node8 -->
<g id="edge7" class="edge">
<title>Node1&#45;&gt;Node8</title>
<path fill="none" stroke="midnightblue" d="M172.73,-50.62C158.48,-40.76 140.04,-27.99 128,-19.65"/>
<polygon fill="midnightblue" stroke="midnightblue" points="170.75,-53.51 180.97,-56.32 174.74,-47.75 170.75,-53.51"/>
</g>
<!-- Node9 -->
<g id="node9" class="node">
<title>Node9</title>
<g id="a_node9"><a xlink:href="classSource__WC__Chaleur__VEF.html" target="_top" xlink:title="class Source_WC_Chaleur_VEF Cette classe represente un terme source supplementaire a prendre en compt...">
<polygon fill="white" stroke="black" points="203.5,-0.5 203.5,-19.5 341.5,-19.5 341.5,-0.5 203.5,-0.5"/>
<text text-anchor="middle" x="272.5" y="-7.5" font-family="Helvetica,sans-Serif" font-size="10.00">Source_WC_Chaleur_VEF</text>
</a>
</g>
</g>
<!-- Node1&#45;&gt;Node9 -->
<g id="edge8" class="edge">
<title>Node1&#45;&gt;Node9</title>
<path fill="none" stroke="midnightblue" d="M214.53,-50.62C228.97,-40.76 247.64,-27.99 259.84,-19.65"/>
<polygon fill="midnightblue" stroke="midnightblue" points="212.47,-47.79 206.19,-56.32 216.42,-53.57 212.47,-47.79"/>
</g>
<!-- Node2 -->
<g id="node2" class="node">
<title>Node2</title>
<g id="a_node2"><a xlink:href="classSource__Chaleur__Fluide__Dilatable__base.html" target="_top" xlink:title="class Source_Chaleur_Fluide_Dilatable_base Cette classe represente un terme source supplementaire a p...">
<polygon fill="white" stroke="black" points="129.5,-112.5 129.5,-142.5 257.5,-142.5 257.5,-112.5 129.5,-112.5"/>
<text text-anchor="start" x="137.5" y="-130.5" font-family="Helvetica,sans-Serif" font-size="10.00">Source_Chaleur_Fluide</text>
<text text-anchor="middle" x="193.5" y="-119.5" font-family="Helvetica,sans-Serif" font-size="10.00">_Dilatable_base</text>
</a>
</g>
</g>
<!-- Node2&#45;&gt;Node1 -->
<g id="edge1" class="edge">
<title>Node2&#45;&gt;Node1</title>
<path fill="none" stroke="midnightblue" d="M193.5,-102.29C193.5,-92.86 193.5,-82.65 193.5,-75.66"/>
<polygon fill="midnightblue" stroke="midnightblue" points="190,-102.4 193.5,-112.4 197,-102.4 190,-102.4"/>
</g>
<!-- Node3 -->
<g id="node3" class="node">
<title>Node3</title>
<g id="a_node3"><a xlink:href="classSource__base.html" target="_top" xlink:title="classe Source_base Un objet Source_base est un terme apparaissant au second membre d&#39;une equation....">
<polygon fill="white" stroke="black" points="154.5,-179.5 154.5,-198.5 232.5,-198.5 232.5,-179.5 154.5,-179.5"/>
<text text-anchor="middle" x="193.5" y="-186.5" font-family="Helvetica,sans-Serif" font-size="10.00">Source_base</text>
</a>
</g>
</g>
<!-- Node3&#45;&gt;Node2 -->
<g id="edge2" class="edge">
<title>Node3&#45;&gt;Node2</title>
<path fill="none" stroke="midnightblue" d="M193.5,-169.23C193.5,-160.59 193.5,-150.5 193.5,-142.52"/>
<polygon fill="midnightblue" stroke="midnightblue" points="190,-169.48 193.5,-179.48 197,-169.48 190,-169.48"/>
</g>
<!-- Node4 -->
<g id="node4" class="node">
<title>Node4</title>
<g id="a_node4"><a xlink:href="classChamps__compris__interface.html" target="_top" xlink:title="classe Champs_compris_interface Cette classe contient une interface de methodes destinees a gerer les...">
<polygon fill="white" stroke="black" points="0,-235.5 0,-254.5 149,-254.5 149,-235.5 0,-235.5"/>
<text text-anchor="middle" x="74.5" y="-242.5" font-family="Helvetica,sans-Serif" font-size="10.00">Champs_compris_interface</text>
</a>
</g>
</g>
<!-- Node4&#45;&gt;Node3 -->
<g id="edge3" class="edge">
<title>Node4&#45;&gt;Node3</title>
<path fill="none" stroke="midnightblue" d="M102.64,-231.23C124.9,-221.13 155.36,-207.31 174.73,-198.52"/>
<polygon fill="midnightblue" stroke="midnightblue" points="101.02,-228.12 93.36,-235.44 103.91,-234.5 101.02,-228.12"/>
</g>
<!-- Node5 -->
<g id="node5" class="node">
<title>Node5</title>
<g id="a_node5"><a xlink:href="classMorEqn.html" target="_top" xlink:title="classe MorEqn Classe qui regroupe les fonctionnalites de liaison avec une Equation....">
<polygon fill="white" stroke="black" points="167,-235.5 167,-254.5 220,-254.5 220,-235.5 167,-235.5"/>
<text text-anchor="middle" x="193.5" y="-242.5" font-family="Helvetica,sans-Serif" font-size="10.00">MorEqn</text>
</a>
</g>
</g>
<!-- Node5&#45;&gt;Node3 -->
<g id="edge4" class="edge">
<title>Node5&#45;&gt;Node3</title>
<path fill="none" stroke="midnightblue" d="M193.5,-224.8C193.5,-215.91 193.5,-205.78 193.5,-198.75"/>
<polygon fill="midnightblue" stroke="midnightblue" points="190,-225.08 193.5,-235.08 197,-225.08 190,-225.08"/>
</g>
<!-- Node6 -->
<g id="node6" class="node">
<title>Node6</title>
<g id="a_node6"><a xlink:href="classObjet__U.html" target="_top" xlink:title="classe Objet_U Cette classe est la classe de base des Objets de TRUST Dans les classes derivees de Ob...">
<polygon fill="white" stroke="black" points="238.5,-235.5 238.5,-254.5 294.5,-254.5 294.5,-235.5 238.5,-235.5"/>
<text text-anchor="middle" x="266.5" y="-242.5" font-family="Helvetica,sans-Serif" font-size="10.00">Objet_U</text>
</a>
</g>
</g>
<!-- Node6&#45;&gt;Node3 -->
<g id="edge5" class="edge">
<title>Node6&#45;&gt;Node3</title>
<path fill="none" stroke="midnightblue" d="M246.36,-229.1C233.22,-219.38 216.52,-207.03 205.44,-198.83"/>
<polygon fill="midnightblue" stroke="midnightblue" points="244.65,-232.19 254.77,-235.32 248.81,-226.56 244.65,-232.19"/>
</g>
<!-- Node7 -->
<g id="node7" class="node">
<title>Node7</title>
<g id="a_node7"><a xlink:href="classProcess.html" target="_top" xlink:title="Classe de base de TRUST (notamment Objet_U). Elle fournit quelques services de base accessibles de pa...">
<polygon fill="white" stroke="black" points="239.5,-291.5 239.5,-310.5 293.5,-310.5 293.5,-291.5 239.5,-291.5"/>
<text text-anchor="middle" x="266.5" y="-298.5" font-family="Helvetica,sans-Serif" font-size="10.00">Process</text>
</a>
</g>
</g>
<!-- Node7&#45;&gt;Node6 -->
<g id="edge6" class="edge">
<title>Node7&#45;&gt;Node6</title>
<path fill="none" stroke="midnightblue" d="M266.5,-280.8C266.5,-271.91 266.5,-261.78 266.5,-254.75"/>
<polygon fill="midnightblue" stroke="midnightblue" points="263,-281.08 266.5,-291.08 270,-281.08 263,-281.08"/>
</g>
</g>
</svg>
