<?xml version="1.0" encoding="UTF-8" standalone="no"?>
<!DOCTYPE svg PUBLIC "-//W3C//DTD SVG 1.1//EN"
 "http://www.w3.org/Graphics/SVG/1.1/DTD/svg11.dtd">
<!-- Generated by graphviz version 2.43.0 (0)
 -->
<!-- Title: Source_Chaleur_Fluide_Dilatable_base Pages: 1 -->
<svg width="901pt" height="230pt"
 viewBox="0.00 0.00 901.00 230.00" xmlns="http://www.w3.org/2000/svg" xmlns:xlink="http://www.w3.org/1999/xlink">
<g id="graph0" class="graph" transform="scale(1 1) rotate(0) translate(4 226)">
<title>Source_Chaleur_Fluide_Dilatable_base</title>
<polygon fill="white" stroke="transparent" points="-4,4 -4,-226 897,-226 897,4 -4,4"/>
<!-- Node1 -->
<g id="node1" class="node">
<title>Node1</title>
<g id="a_node1"><a xlink:title="class Source_Chaleur_Fluide_Dilatable_base Cette classe represente un terme source supplementaire a p...">
<polygon fill="#bfbfbf" stroke="black" points="389,-99 389,-129 517,-129 517,-99 389,-99"/>
<text text-anchor="start" x="397" y="-117" font-family="Helvetica,sans-Serif" font-size="10.00">Source_Chaleur_Fluide</text>
<text text-anchor="middle" x="453" y="-106" font-family="Helvetica,sans-Serif" font-size="10.00">_Dilatable_base</text>
</a>
</g>
</g>
<!-- Node7 -->
<g id="node7" class="node">
<title>Node7</title>
<g id="a_node7"><a xlink:href="classSource__QC__Chaleur.html" target="_top" xlink:title="class Source_QC_Chaleur Cette classe represente un terme source supplementaire a prendre en compte da...">
<polygon fill="white" stroke="black" points="567,-164.5 567,-183.5 679,-183.5 679,-164.5 567,-164.5"/>
<text text-anchor="middle" x="623" y="-171.5" font-family="Helvetica,sans-Serif" font-size="10.00">Source_QC_Chaleur</text>
</a>
</g>
</g>
<!-- Node1&#45;&gt;Node7 -->
<g id="edge6" class="edge">
<title>Node1&#45;&gt;Node7</title>
<path fill="none" stroke="midnightblue" d="M506.16,-132.63C535.73,-143.19 571.49,-155.96 595.38,-164.49"/>
<polygon fill="midnightblue" stroke="midnightblue" points="506.99,-129.21 496.39,-129.14 504.63,-135.8 506.99,-129.21"/>
</g>
<!-- Node10 -->
<g id="node10" class="node">
<title>Node10</title>
<g id="a_node10"><a xlink:href="classSource__QC__Chaleur__Verif.html" target="_top" xlink:title="class Source_QC_Chaleur_Verif Cette classe represente un terme source supplementaire a prendre en com...">
<polygon fill="white" stroke="black" points="553,-104.5 553,-123.5 693,-123.5 693,-104.5 553,-104.5"/>
<text text-anchor="middle" x="623" y="-111.5" font-family="Helvetica,sans-Serif" font-size="10.00">Source_QC_Chaleur_Verif</text>
</a>
</g>
</g>
<!-- Node1&#45;&gt;Node10 -->
<g id="edge9" class="edge">
<title>Node1&#45;&gt;Node10</title>
<path fill="none" stroke="midnightblue" d="M527.05,-114C535.66,-114 544.43,-114 552.98,-114"/>
<polygon fill="midnightblue" stroke="midnightblue" points="527.04,-110.5 517.03,-114 527.03,-117.5 527.04,-110.5"/>
</g>
<!-- Node13 -->
<g id="node13" class="node">
<title>Node13</title>
<g id="a_node13"><a xlink:href="classSource__WC__Chaleur.html" target="_top" xlink:title="class Source_WC_Chaleur Cette classe represente un terme source supplementaire a prendre en compte da...">
<polygon fill="white" stroke="black" points="566,-38.5 566,-57.5 680,-57.5 680,-38.5 566,-38.5"/>
<text text-anchor="middle" x="623" y="-45.5" font-family="Helvetica,sans-Serif" font-size="10.00">Source_WC_Chaleur</text>
</a>
</g>
</g>
<!-- Node1&#45;&gt;Node13 -->
<g id="edge12" class="edge">
<title>Node1&#45;&gt;Node13</title>
<path fill="none" stroke="midnightblue" d="M501.96,-95.16C533.22,-82.88 572.71,-67.36 597.67,-57.56"/>
<polygon fill="midnightblue" stroke="midnightblue" points="500.57,-91.94 492.54,-98.86 503.13,-98.46 500.57,-91.94"/>
</g>
<!-- Node2 -->
<g id="node2" class="node">
<title>Node2</title>
<g id="a_node2"><a xlink:href="classSource__base.html" target="_top" xlink:title="classe Source_base Un objet Source_base est un terme apparaissant au second membre d&#39;une equation....">
<polygon fill="white" stroke="black" points="275,-104.5 275,-123.5 353,-123.5 353,-104.5 275,-104.5"/>
<text text-anchor="middle" x="314" y="-111.5" font-family="Helvetica,sans-Serif" font-size="10.00">Source_base</text>
</a>
</g>
</g>
<!-- Node2&#45;&gt;Node1 -->
<g id="edge1" class="edge">
<title>Node2&#45;&gt;Node1</title>
<path fill="none" stroke="midnightblue" d="M363.34,-114C371.6,-114 380.28,-114 388.84,-114"/>
<polygon fill="midnightblue" stroke="midnightblue" points="363.16,-110.5 353.16,-114 363.16,-117.5 363.16,-110.5"/>
</g>
<!-- Node3 -->
<g id="node3" class="node">
<title>Node3</title>
<g id="a_node3"><a xlink:href="classChamps__compris__interface.html" target="_top" xlink:title="classe Champs_compris_interface Cette classe contient une interface de methodes destinees a gerer les...">
<polygon fill="white" stroke="black" points="90,-142.5 90,-161.5 239,-161.5 239,-142.5 90,-142.5"/>
<text text-anchor="middle" x="164.5" y="-149.5" font-family="Helvetica,sans-Serif" font-size="10.00">Champs_compris_interface</text>
</a>
</g>
</g>
<!-- Node3&#45;&gt;Node2 -->
<g id="edge2" class="edge">
<title>Node3&#45;&gt;Node2</title>
<path fill="none" stroke="midnightblue" d="M212.51,-139.89C233.06,-134.6 256.8,-128.48 276.05,-123.52"/>
<polygon fill="midnightblue" stroke="midnightblue" points="211.53,-136.53 202.72,-142.41 213.28,-143.31 211.53,-136.53"/>
</g>
<!-- Node4 -->
<g id="node4" class="node">
<title>Node4</title>
<g id="a_node4"><a xlink:href="classMorEqn.html" target="_top" xlink:title="classe MorEqn Classe qui regroupe les fonctionnalites de liaison avec une Equation....">
<polygon fill="white" stroke="black" points="138,-104.5 138,-123.5 191,-123.5 191,-104.5 138,-104.5"/>
<text text-anchor="middle" x="164.5" y="-111.5" font-family="Helvetica,sans-Serif" font-size="10.00">MorEqn</text>
</a>
</g>
</g>
<!-- Node4&#45;&gt;Node2 -->
<g id="edge3" class="edge">
<title>Node4&#45;&gt;Node2</title>
<path fill="none" stroke="midnightblue" d="M201.25,-114C223.52,-114 252.16,-114 274.87,-114"/>
<polygon fill="midnightblue" stroke="midnightblue" points="201.19,-110.5 191.19,-114 201.19,-117.5 201.19,-110.5"/>
</g>
<!-- Node5 -->
<g id="node5" class="node">
<title>Node5</title>
<g id="a_node5"><a xlink:href="classObjet__U.html" target="_top" xlink:title="classe Objet_U Cette classe est la classe de base des Objets de TRUST Dans les classes derivees de Ob...">
<polygon fill="white" stroke="black" points="136.5,-66.5 136.5,-85.5 192.5,-85.5 192.5,-66.5 136.5,-66.5"/>
<text text-anchor="middle" x="164.5" y="-73.5" font-family="Helvetica,sans-Serif" font-size="10.00">Objet_U</text>
</a>
</g>
</g>
<!-- Node5&#45;&gt;Node2 -->
<g id="edge4" class="edge">
<title>Node5&#45;&gt;Node2</title>
<path fill="none" stroke="midnightblue" d="M202.42,-85.51C224.94,-91.31 253.61,-98.7 276.12,-104.5"/>
<polygon fill="midnightblue" stroke="midnightblue" points="203.11,-82.08 192.55,-82.97 201.36,-88.85 203.11,-82.08"/>
</g>
<!-- Node6 -->
<g id="node6" class="node">
<title>Node6</title>
<g id="a_node6"><a xlink:href="classProcess.html" target="_top" xlink:title="Classe de base de TRUST (notamment Objet_U). Elle fournit quelques services de base accessibles de pa...">
<polygon fill="white" stroke="black" points="0,-66.5 0,-85.5 54,-85.5 54,-66.5 0,-66.5"/>
<text text-anchor="middle" x="27" y="-73.5" font-family="Helvetica,sans-Serif" font-size="10.00">Process</text>
</a>
</g>
</g>
<!-- Node6&#45;&gt;Node5 -->
<g id="edge5" class="edge">
<title>Node6&#45;&gt;Node5</title>
<path fill="none" stroke="midnightblue" d="M64.34,-76C86.89,-76 115.4,-76 136.06,-76"/>
<polygon fill="midnightblue" stroke="midnightblue" points="64.13,-72.5 54.13,-76 64.13,-79.5 64.13,-72.5"/>
</g>
<!-- Node8 -->
<g id="node8" class="node">
<title>Node8</title>
<g id="a_node8"><a xlink:href="classSource__QC__Chaleur__VDF.html" target="_top" xlink:title="class Source_QC_Chaleur_VDF Cette classe represente un terme source supplementaire a prendre en compt...">
<polygon fill="white" stroke="black" points="742.5,-202.5 742.5,-221.5 879.5,-221.5 879.5,-202.5 742.5,-202.5"/>
<text text-anchor="middle" x="811" y="-209.5" font-family="Helvetica,sans-Serif" font-size="10.00">Source_QC_Chaleur_VDF</text>
</a>
</g>
</g>
<!-- Node7&#45;&gt;Node8 -->
<g id="edge7" class="edge">
<title>Node7&#45;&gt;Node8</title>
<path fill="none" stroke="midnightblue" d="M680.83,-185.61C707.28,-191.01 738.36,-197.36 763.4,-202.48"/>
<polygon fill="midnightblue" stroke="midnightblue" points="681.43,-182.16 670.94,-183.59 680.03,-189.02 681.43,-182.16"/>
</g>
<!-- Node9 -->
<g id="node9" class="node">
<title>Node9</title>
<g id="a_node9"><a xlink:href="classSource__QC__Chaleur__VEF.html" target="_top" xlink:title="class Source_QC_Chaleur_VEF Cette classe represente un terme source supplementaire a prendre en compt...">
<polygon fill="white" stroke="black" points="743,-164.5 743,-183.5 879,-183.5 879,-164.5 743,-164.5"/>
<text text-anchor="middle" x="811" y="-171.5" font-family="Helvetica,sans-Serif" font-size="10.00">Source_QC_Chaleur_VEF</text>
</a>
</g>
</g>
<!-- Node7&#45;&gt;Node9 -->
<g id="edge8" class="edge">
<title>Node7&#45;&gt;Node9</title>
<path fill="none" stroke="midnightblue" d="M689.12,-174C706.54,-174 725.39,-174 742.91,-174"/>
<polygon fill="midnightblue" stroke="midnightblue" points="689.05,-170.5 679.05,-174 689.05,-177.5 689.05,-170.5"/>
</g>
<!-- Node11 -->
<g id="node11" class="node">
<title>Node11</title>
<g id="a_node11"><a xlink:href="classSource__QC__Chaleur__Verif__VEF.html" target="_top" xlink:title=" ">
<polygon fill="white" stroke="black" points="729,-126.5 729,-145.5 893,-145.5 893,-126.5 729,-126.5"/>
<text text-anchor="middle" x="811" y="-133.5" font-family="Helvetica,sans-Serif" font-size="10.00">Source_QC_Chaleur_Verif_VEF</text>
</a>
</g>
</g>
<!-- Node10&#45;&gt;Node11 -->
<g id="edge10" class="edge">
<title>Node10&#45;&gt;Node11</title>
<path fill="none" stroke="midnightblue" d="M703.31,-123.38C711.94,-124.4 720.74,-125.44 729.39,-126.47"/>
<polygon fill="midnightblue" stroke="midnightblue" points="703.6,-119.89 693.26,-122.19 702.78,-126.84 703.6,-119.89"/>
</g>
<!-- Node12 -->
<g id="node12" class="node">
<title>Node12</title>
<g id="a_node12"><a xlink:href="classSource__QC__Chaleur__Verif__VEF__P1NC.html" target="_top" xlink:title=" ">
<polygon fill="white" stroke="black" points="741,-77 741,-107 881,-107 881,-77 741,-77"/>
<text text-anchor="start" x="749" y="-95" font-family="Helvetica,sans-Serif" font-size="10.00">Source_QC_Chaleur_Verif</text>
<text text-anchor="middle" x="811" y="-84" font-family="Helvetica,sans-Serif" font-size="10.00">_VEF_P1NC</text>
</a>
</g>
</g>
<!-- Node10&#45;&gt;Node12 -->
<g id="edge11" class="edge">
<title>Node10&#45;&gt;Node12</title>
<path fill="none" stroke="midnightblue" d="M703.24,-104.63C715.8,-103.14 728.69,-101.62 740.99,-100.16"/>
<polygon fill="midnightblue" stroke="midnightblue" points="702.78,-101.16 693.26,-105.81 703.6,-108.11 702.78,-101.16"/>
</g>
<!-- Node14 -->
<g id="node14" class="node">
<title>Node14</title>
<g id="a_node14"><a xlink:href="classSource__WC__Chaleur__VDF.html" target="_top" xlink:title="class Source_WC_Chaleur_VDF Cette classe represente un terme source supplementaire a prendre en compt...">
<polygon fill="white" stroke="black" points="741,-38.5 741,-57.5 881,-57.5 881,-38.5 741,-38.5"/>
<text text-anchor="middle" x="811" y="-45.5" font-family="Helvetica,sans-Serif" font-size="10.00">Source_WC_Chaleur_VDF</text>
</a>
</g>
</g>
<!-- Node13&#45;&gt;Node14 -->
<g id="edge13" class="edge">
<title>Node13&#45;&gt;Node14</title>
<path fill="none" stroke="midnightblue" d="M690.13,-48C706.6,-48 724.29,-48 740.9,-48"/>
<polygon fill="midnightblue" stroke="midnightblue" points="690.06,-44.5 680.06,-48 690.06,-51.5 690.06,-44.5"/>
</g>
<!-- Node15 -->
<g id="node15" class="node">
<title>Node15</title>
<g id="a_node15"><a xlink:href="classSource__WC__Chaleur__VEF.html" target="_top" xlink:title="class Source_WC_Chaleur_VEF Cette classe represente un terme source supplementaire a prendre en compt...">
<polygon fill="white" stroke="black" points="742,-0.5 742,-19.5 880,-19.5 880,-0.5 742,-0.5"/>
<text text-anchor="middle" x="811" y="-7.5" font-family="Helvetica,sans-Serif" font-size="10.00">Source_WC_Chaleur_VEF</text>
</a>
</g>
</g>
<!-- Node13&#45;&gt;Node15 -->
<g id="edge14" class="edge">
<title>Node13&#45;&gt;Node15</title>
<path fill="none" stroke="midnightblue" d="M680.83,-36.39C707.28,-30.99 738.36,-24.64 763.4,-19.52"/>
<polygon fill="midnightblue" stroke="midnightblue" points="680.03,-32.98 670.94,-38.41 681.43,-39.84 680.03,-32.98"/>
</g>
</g>
</svg>
