<?xml version="1.0" encoding="UTF-8" standalone="no"?>
<!DOCTYPE svg PUBLIC "-//W3C//DTD SVG 1.1//EN"
 "http://www.w3.org/Graphics/SVG/1.1/DTD/svg11.dtd">
<!-- Generated by graphviz version 2.43.0 (0)
 -->
<!-- Title: Perte_Charge_Singuliere_QC_VEF_P1NC Pages: 1 -->
<svg width="1088pt" height="202pt"
 viewBox="0.00 0.00 1088.00 202.00" xmlns="http://www.w3.org/2000/svg" xmlns:xlink="http://www.w3.org/1999/xlink">
<g id="graph0" class="graph" transform="scale(1 1) rotate(0) translate(4 198)">
<title>Perte_Charge_Singuliere_QC_VEF_P1NC</title>
<polygon fill="white" stroke="transparent" points="-4,4 -4,-198 1084,-198 1084,4 -4,4"/>
<!-- Node1 -->
<g id="node1" class="node">
<title>Node1</title>
<g id="a_node1"><a xlink:title=" ">
<polygon fill="#bfbfbf" stroke="black" points="944,-33 944,-63 1080,-63 1080,-33 944,-33"/>
<text text-anchor="start" x="952" y="-51" font-family="Helvetica,sans-Serif" font-size="10.00">Perte_Charge_Singuliere</text>
<text text-anchor="middle" x="1012" y="-40" font-family="Helvetica,sans-Serif" font-size="10.00">_QC_VEF_P1NC</text>
</a>
</g>
</g>
<!-- Node2 -->
<g id="node2" class="node">
<title>Node2</title>
<g id="a_node2"><a xlink:href="classPerte__Charge__Singuliere__VEF__Face.html" target="_top" xlink:title="class Perte_Charge_Singuliere_VEF_Face">
<polygon fill="white" stroke="black" points="752,-61 752,-91 888,-91 888,-61 752,-61"/>
<text text-anchor="start" x="760" y="-79" font-family="Helvetica,sans-Serif" font-size="10.00">Perte_Charge_Singuliere</text>
<text text-anchor="middle" x="820" y="-68" font-family="Helvetica,sans-Serif" font-size="10.00">_VEF_Face</text>
</a>
</g>
</g>
<!-- Node2&#45;&gt;Node1 -->
<g id="edge1" class="edge">
<title>Node2&#45;&gt;Node1</title>
<path fill="none" stroke="midnightblue" d="M898.54,-64.57C913.56,-62.36 929.18,-60.06 943.84,-57.9"/>
<polygon fill="midnightblue" stroke="midnightblue" points="897.64,-61.17 888.25,-66.09 898.66,-68.09 897.64,-61.17"/>
</g>
<!-- Node3 -->
<g id="node3" class="node">
<title>Node3</title>
<g id="a_node3"><a xlink:href="classPerte__Charge__VEF__Face.html" target="_top" xlink:title="class Perte_Charge_VEF_Face">
<polygon fill="white" stroke="black" points="428.5,-98.5 428.5,-117.5 561.5,-117.5 561.5,-98.5 428.5,-98.5"/>
<text text-anchor="middle" x="495" y="-105.5" font-family="Helvetica,sans-Serif" font-size="10.00">Perte_Charge_VEF_Face</text>
</a>
</g>
</g>
<!-- Node3&#45;&gt;Node2 -->
<g id="edge2" class="edge">
<title>Node3&#45;&gt;Node2</title>
<path fill="none" stroke="midnightblue" d="M571.73,-100.5C626.36,-95.09 699.43,-87.85 751.95,-82.64"/>
<polygon fill="midnightblue" stroke="midnightblue" points="571.36,-97.02 561.75,-101.49 572.05,-103.98 571.36,-97.02"/>
</g>
<!-- Node4 -->
<g id="node4" class="node">
<title>Node4</title>
<g id="a_node4"><a xlink:href="classSource__base.html" target="_top" xlink:title="classe Source_base Un objet Source_base est un terme apparaissant au second membre d&#39;une equation....">
<polygon fill="white" stroke="black" points="294.5,-136.5 294.5,-155.5 372.5,-155.5 372.5,-136.5 294.5,-136.5"/>
<text text-anchor="middle" x="333.5" y="-143.5" font-family="Helvetica,sans-Serif" font-size="10.00">Source_base</text>
</a>
</g>
</g>
<!-- Node4&#45;&gt;Node3 -->
<g id="edge3" class="edge">
<title>Node4&#45;&gt;Node3</title>
<path fill="none" stroke="midnightblue" d="M382.52,-134.56C405.3,-129.13 432.21,-122.72 453.88,-117.56"/>
<polygon fill="midnightblue" stroke="midnightblue" points="381.62,-131.18 372.7,-136.9 383.24,-137.99 381.62,-131.18"/>
</g>
<!-- Node5 -->
<g id="node5" class="node">
<title>Node5</title>
<g id="a_node5"><a xlink:href="classChamps__compris__interface.html" target="_top" xlink:title="classe Champs_compris_interface Cette classe contient une interface de methodes destinees a gerer les...">
<polygon fill="white" stroke="black" points="91,-174.5 91,-193.5 240,-193.5 240,-174.5 91,-174.5"/>
<text text-anchor="middle" x="165.5" y="-181.5" font-family="Helvetica,sans-Serif" font-size="10.00">Champs_compris_interface</text>
</a>
</g>
</g>
<!-- Node5&#45;&gt;Node4 -->
<g id="edge4" class="edge">
<title>Node5&#45;&gt;Node4</title>
<path fill="none" stroke="midnightblue" d="M218.28,-172.15C242.88,-166.52 271.75,-159.91 294.32,-154.74"/>
<polygon fill="midnightblue" stroke="midnightblue" points="217.36,-168.77 208.39,-174.41 218.92,-175.59 217.36,-168.77"/>
</g>
<!-- Node6 -->
<g id="node6" class="node">
<title>Node6</title>
<g id="a_node6"><a xlink:href="classMorEqn.html" target="_top" xlink:title="classe MorEqn Classe qui regroupe les fonctionnalites de liaison avec une Equation....">
<polygon fill="white" stroke="black" points="139,-136.5 139,-155.5 192,-155.5 192,-136.5 139,-136.5"/>
<text text-anchor="middle" x="165.5" y="-143.5" font-family="Helvetica,sans-Serif" font-size="10.00">MorEqn</text>
</a>
</g>
</g>
<!-- Node6&#45;&gt;Node4 -->
<g id="edge5" class="edge">
<title>Node6&#45;&gt;Node4</title>
<path fill="none" stroke="midnightblue" d="M202.29,-146C229.39,-146 266.56,-146 294.24,-146"/>
<polygon fill="midnightblue" stroke="midnightblue" points="202.07,-142.5 192.07,-146 202.07,-149.5 202.07,-142.5"/>
</g>
<!-- Node7 -->
<g id="node7" class="node">
<title>Node7</title>
<g id="a_node7"><a xlink:href="classObjet__U.html" target="_top" xlink:title="classe Objet_U Cette classe est la classe de base des Objets de TRUST Dans les classes derivees de Ob...">
<polygon fill="white" stroke="black" points="137.5,-98.5 137.5,-117.5 193.5,-117.5 193.5,-98.5 137.5,-98.5"/>
<text text-anchor="middle" x="165.5" y="-105.5" font-family="Helvetica,sans-Serif" font-size="10.00">Objet_U</text>
</a>
</g>
</g>
<!-- Node7&#45;&gt;Node4 -->
<g id="edge6" class="edge">
<title>Node7&#45;&gt;Node4</title>
<path fill="none" stroke="midnightblue" d="M203.39,-116.44C230.41,-122.63 266.99,-131 294.31,-137.26"/>
<polygon fill="midnightblue" stroke="midnightblue" points="204.07,-113.01 193.54,-114.19 202.51,-119.83 204.07,-113.01"/>
</g>
<!-- Node8 -->
<g id="node8" class="node">
<title>Node8</title>
<g id="a_node8"><a xlink:href="classProcess.html" target="_top" xlink:title="Classe de base de TRUST (notamment Objet_U). Elle fournit quelques services de base accessibles de pa...">
<polygon fill="white" stroke="black" points="0,-98.5 0,-117.5 54,-117.5 54,-98.5 0,-98.5"/>
<text text-anchor="middle" x="27" y="-105.5" font-family="Helvetica,sans-Serif" font-size="10.00">Process</text>
</a>
</g>
</g>
<!-- Node8&#45;&gt;Node7 -->
<g id="edge7" class="edge">
<title>Node8&#45;&gt;Node7</title>
<path fill="none" stroke="midnightblue" d="M64.36,-108C87.29,-108 116.41,-108 137.33,-108"/>
<polygon fill="midnightblue" stroke="midnightblue" points="64.32,-104.5 54.32,-108 64.32,-111.5 64.32,-104.5"/>
</g>
<!-- Node9 -->
<g id="node9" class="node">
<title>Node9</title>
<g id="a_node9"><a xlink:href="classTerme__Source__Qdm.html" target="_top" xlink:title="Classe Terme_Source_Qdm Cette classe represente un terme source qui figure dans l&#39;equation de la dyna...">
<polygon fill="white" stroke="black" points="277,-98.5 277,-117.5 390,-117.5 390,-98.5 277,-98.5"/>
<text text-anchor="middle" x="333.5" y="-105.5" font-family="Helvetica,sans-Serif" font-size="10.00">Terme_Source_Qdm</text>
</a>
</g>
</g>
<!-- Node9&#45;&gt;Node3 -->
<g id="edge8" class="edge">
<title>Node9&#45;&gt;Node3</title>
<path fill="none" stroke="midnightblue" d="M400.54,-108C409.75,-108 419.2,-108 428.4,-108"/>
<polygon fill="midnightblue" stroke="midnightblue" points="400.29,-104.5 390.29,-108 400.29,-111.5 400.29,-104.5"/>
</g>
<!-- Node10 -->
<g id="node10" class="node">
<title>Node10</title>
<g id="a_node10"><a xlink:href="classPerte__Charge__Singuliere.html" target="_top" xlink:title="Classe Perte_Charge_Singuliere Cette classe derivee de Perte_Charge est utilisee lorsque l&#39;on veut mo...">
<polygon fill="white" stroke="black" points="427,-60.5 427,-79.5 563,-79.5 563,-60.5 427,-60.5"/>
<text text-anchor="middle" x="495" y="-67.5" font-family="Helvetica,sans-Serif" font-size="10.00">Perte_Charge_Singuliere</text>
</a>
</g>
</g>
<!-- Node10&#45;&gt;Node2 -->
<g id="edge9" class="edge">
<title>Node10&#45;&gt;Node2</title>
<path fill="none" stroke="midnightblue" d="M573.6,-71.44C627.95,-72.45 699.86,-73.79 751.77,-74.75"/>
<polygon fill="midnightblue" stroke="midnightblue" points="573.38,-67.94 563.32,-71.25 573.25,-74.94 573.38,-67.94"/>
</g>
<!-- Node11 -->
<g id="node11" class="node">
<title>Node11</title>
<g id="a_node11"><a xlink:href="classPerte__Charge.html" target="_top" xlink:title="Classe Perte_Charge Cette classe represente un terme de perte de charge quiest introduit dans les equ...">
<polygon fill="white" stroke="black" points="292.5,-60.5 292.5,-79.5 374.5,-79.5 374.5,-60.5 292.5,-60.5"/>
<text text-anchor="middle" x="333.5" y="-67.5" font-family="Helvetica,sans-Serif" font-size="10.00">Perte_Charge</text>
</a>
</g>
</g>
<!-- Node11&#45;&gt;Node10 -->
<g id="edge10" class="edge">
<title>Node11&#45;&gt;Node10</title>
<path fill="none" stroke="midnightblue" d="M385.07,-70C398.31,-70 412.8,-70 426.77,-70"/>
<polygon fill="midnightblue" stroke="midnightblue" points="384.75,-66.5 374.75,-70 384.75,-73.5 384.75,-66.5"/>
</g>
<!-- Node12 -->
<g id="node12" class="node">
<title>Node12</title>
<g id="a_node12"><a xlink:href="classSource__Fluide__Dilatable__Face.html" target="_top" xlink:title=" ">
<polygon fill="white" stroke="black" points="733,-0.5 733,-41.5 907,-41.5 907,-0.5 733,-0.5"/>
<text text-anchor="start" x="741" y="-29.5" font-family="Helvetica,sans-Serif" font-size="10.00">Source_Fluide_Dilatable</text>
<text text-anchor="start" x="741" y="-18.5" font-family="Helvetica,sans-Serif" font-size="10.00">_Face&lt; Perte_Charge_Singuliere</text>
<text text-anchor="middle" x="820" y="-7.5" font-family="Helvetica,sans-Serif" font-size="10.00">_QC_VEF_P1NC &gt;</text>
</a>
</g>
</g>
<!-- Node12&#45;&gt;Node1 -->
<g id="edge11" class="edge">
<title>Node12&#45;&gt;Node1</title>
<path fill="none" stroke="midnightblue" d="M917.28,-34.68C926.31,-35.96 935.31,-37.24 943.98,-38.48"/>
<polygon fill="midnightblue" stroke="midnightblue" points="917.5,-31.18 907.11,-33.24 916.51,-38.11 917.5,-31.18"/>
</g>
<!-- Node13 -->
<g id="node13" class="node">
<title>Node13</title>
<g id="a_node13"><a xlink:href="classSource__Fluide__Dilatable__Face.html" target="_top" xlink:title=" ">
<polygon fill="white" stroke="black" points="428,-6 428,-36 562,-36 562,-6 428,-6"/>
<text text-anchor="start" x="436" y="-24" font-family="Helvetica,sans-Serif" font-size="10.00">Source_Fluide_Dilatable</text>
<text text-anchor="middle" x="495" y="-13" font-family="Helvetica,sans-Serif" font-size="10.00">_Face&lt; DERIVED_T &gt;</text>
</a>
</g>
</g>
<!-- Node13&#45;&gt;Node12 -->
<g id="edge12" class="edge">
<title>Node13&#45;&gt;Node12</title>
<path fill="none" stroke="orange" stroke-dasharray="5,2" d="M572.21,-21C620.47,-21 682.97,-21 733,-21"/>
<polygon fill="orange" stroke="orange" points="572.14,-17.5 562.14,-21 572.14,-24.5 572.14,-17.5"/>
<text text-anchor="start" x="581" y="-35" font-family="Helvetica,sans-Serif" font-size="10.00"> &lt; Perte_Charge_Singuliere</text>
<text text-anchor="middle" x="648" y="-24" font-family="Helvetica,sans-Serif" font-size="10.00">_QC_VEF_P1NC &gt;</text>
</g>
</g>
</svg>
