<?xml version="1.0" encoding="UTF-8" standalone="no"?>
<!DOCTYPE svg PUBLIC "-//W3C//DTD SVG 1.1//EN"
 "http://www.w3.org/Graphics/SVG/1.1/DTD/svg11.dtd">
<!-- Generated by graphviz version 2.43.0 (0)
 -->
<!-- Title: Puissance_Thermique_QC_EF Pages: 1 -->
<svg width="351pt" height="263pt"
 viewBox="0.00 0.00 351.00 263.00" xmlns="http://www.w3.org/2000/svg" xmlns:xlink="http://www.w3.org/1999/xlink">
<g id="graph0" class="graph" transform="scale(1 1) rotate(0) translate(4 259)">
<title>Puissance_Thermique_QC_EF</title>
<polygon fill="white" stroke="transparent" points="-4,4 -4,-259 347,-259 347,4 -4,4"/>
<!-- Node1 -->
<g id="node1" class="node">
<title>Node1</title>
<g id="a_node1"><a xlink:title="class Puissance_Thermique_QC_EF Cette classe represente un terme source de l&#39;equation de la thermique...">
<polygon fill="#bfbfbf" stroke="black" points="98.5,-0.5 98.5,-30.5 221.5,-30.5 221.5,-0.5 98.5,-0.5"/>
<text text-anchor="start" x="106.5" y="-18.5" font-family="Helvetica,sans-Serif" font-size="10.00">Puissance_Thermique</text>
<text text-anchor="middle" x="160" y="-7.5" font-family="Helvetica,sans-Serif" font-size="10.00">_QC_EF</text>
</a>
</g>
</g>
<!-- Node2 -->
<g id="node2" class="node">
<title>Node2</title>
<g id="a_node2"><a xlink:href="classTerme__Puissance__Thermique.html" target="_top" xlink:title="Classe Terme_Puissance_Thermique Cette classe represente un terme source de l&#39;equation de la thermiqu...">
<polygon fill="white" stroke="black" points="0,-67.5 0,-86.5 158,-86.5 158,-67.5 0,-67.5"/>
<text text-anchor="middle" x="79" y="-74.5" font-family="Helvetica,sans-Serif" font-size="10.00">Terme_Puissance_Thermique</text>
</a>
</g>
</g>
<!-- Node2&#45;&gt;Node1 -->
<g id="edge1" class="edge">
<title>Node2&#45;&gt;Node1</title>
<path fill="none" stroke="midnightblue" d="M98.78,-61.47C111.61,-52.05 128.23,-39.84 140.91,-30.52"/>
<polygon fill="midnightblue" stroke="midnightblue" points="96.59,-58.73 90.61,-67.48 100.74,-64.38 96.59,-58.73"/>
</g>
<!-- Node3 -->
<g id="node3" class="node">
<title>Node3</title>
<g id="a_node3"><a xlink:href="classTerme__Source__EF__base.html" target="_top" xlink:title=" ">
<polygon fill="white" stroke="black" points="176.5,-67.5 176.5,-86.5 307.5,-86.5 307.5,-67.5 176.5,-67.5"/>
<text text-anchor="middle" x="242" y="-74.5" font-family="Helvetica,sans-Serif" font-size="10.00">Terme_Source_EF_base</text>
</a>
</g>
</g>
<!-- Node3&#45;&gt;Node1 -->
<g id="edge2" class="edge">
<title>Node3&#45;&gt;Node1</title>
<path fill="none" stroke="midnightblue" d="M221.97,-61.47C208.99,-52.05 192.17,-39.84 179.33,-30.52"/>
<polygon fill="midnightblue" stroke="midnightblue" points="220.1,-64.43 230.25,-67.48 224.21,-58.77 220.1,-64.43"/>
</g>
<!-- Node4 -->
<g id="node4" class="node">
<title>Node4</title>
<g id="a_node4"><a xlink:href="classSource__base.html" target="_top" xlink:title="classe Source_base Un objet Source_base est un terme apparaissant au second membre d&#39;une equation....">
<polygon fill="white" stroke="black" points="203,-123.5 203,-142.5 281,-142.5 281,-123.5 203,-123.5"/>
<text text-anchor="middle" x="242" y="-130.5" font-family="Helvetica,sans-Serif" font-size="10.00">Source_base</text>
</a>
</g>
</g>
<!-- Node4&#45;&gt;Node3 -->
<g id="edge3" class="edge">
<title>Node4&#45;&gt;Node3</title>
<path fill="none" stroke="midnightblue" d="M242,-112.8C242,-103.91 242,-93.78 242,-86.75"/>
<polygon fill="midnightblue" stroke="midnightblue" points="238.5,-113.08 242,-123.08 245.5,-113.08 238.5,-113.08"/>
</g>
<!-- Node5 -->
<g id="node5" class="node">
<title>Node5</title>
<g id="a_node5"><a xlink:href="classChamps__compris__interface.html" target="_top" xlink:title="classe Champs_compris_interface Cette classe contient une interface de methodes destinees a gerer les...">
<polygon fill="white" stroke="black" points="48.5,-179.5 48.5,-198.5 197.5,-198.5 197.5,-179.5 48.5,-179.5"/>
<text text-anchor="middle" x="123" y="-186.5" font-family="Helvetica,sans-Serif" font-size="10.00">Champs_compris_interface</text>
</a>
</g>
</g>
<!-- Node5&#45;&gt;Node4 -->
<g id="edge4" class="edge">
<title>Node5&#45;&gt;Node4</title>
<path fill="none" stroke="midnightblue" d="M151.14,-175.23C173.4,-165.13 203.86,-151.31 223.23,-142.52"/>
<polygon fill="midnightblue" stroke="midnightblue" points="149.52,-172.12 141.86,-179.44 152.41,-178.5 149.52,-172.12"/>
</g>
<!-- Node6 -->
<g id="node6" class="node">
<title>Node6</title>
<g id="a_node6"><a xlink:href="classMorEqn.html" target="_top" xlink:title="classe MorEqn Classe qui regroupe les fonctionnalites de liaison avec une Equation....">
<polygon fill="white" stroke="black" points="215.5,-179.5 215.5,-198.5 268.5,-198.5 268.5,-179.5 215.5,-179.5"/>
<text text-anchor="middle" x="242" y="-186.5" font-family="Helvetica,sans-Serif" font-size="10.00">MorEqn</text>
</a>
</g>
</g>
<!-- Node6&#45;&gt;Node4 -->
<g id="edge5" class="edge">
<title>Node6&#45;&gt;Node4</title>
<path fill="none" stroke="midnightblue" d="M242,-168.8C242,-159.91 242,-149.78 242,-142.75"/>
<polygon fill="midnightblue" stroke="midnightblue" points="238.5,-169.08 242,-179.08 245.5,-169.08 238.5,-169.08"/>
</g>
<!-- Node7 -->
<g id="node7" class="node">
<title>Node7</title>
<g id="a_node7"><a xlink:href="classObjet__U.html" target="_top" xlink:title="classe Objet_U Cette classe est la classe de base des Objets de TRUST Dans les classes derivees de Ob...">
<polygon fill="white" stroke="black" points="287,-179.5 287,-198.5 343,-198.5 343,-179.5 287,-179.5"/>
<text text-anchor="middle" x="315" y="-186.5" font-family="Helvetica,sans-Serif" font-size="10.00">Objet_U</text>
</a>
</g>
</g>
<!-- Node7&#45;&gt;Node4 -->
<g id="edge6" class="edge">
<title>Node7&#45;&gt;Node4</title>
<path fill="none" stroke="midnightblue" d="M294.86,-173.1C281.72,-163.38 265.02,-151.03 253.94,-142.83"/>
<polygon fill="midnightblue" stroke="midnightblue" points="293.15,-176.19 303.27,-179.32 297.31,-170.56 293.15,-176.19"/>
</g>
<!-- Node8 -->
<g id="node8" class="node">
<title>Node8</title>
<g id="a_node8"><a xlink:href="classProcess.html" target="_top" xlink:title="Classe de base de TRUST (notamment Objet_U). Elle fournit quelques services de base accessibles de pa...">
<polygon fill="white" stroke="black" points="288,-235.5 288,-254.5 342,-254.5 342,-235.5 288,-235.5"/>
<text text-anchor="middle" x="315" y="-242.5" font-family="Helvetica,sans-Serif" font-size="10.00">Process</text>
</a>
</g>
</g>
<!-- Node8&#45;&gt;Node7 -->
<g id="edge7" class="edge">
<title>Node8&#45;&gt;Node7</title>
<path fill="none" stroke="midnightblue" d="M315,-224.8C315,-215.91 315,-205.78 315,-198.75"/>
<polygon fill="midnightblue" stroke="midnightblue" points="311.5,-225.08 315,-235.08 318.5,-225.08 311.5,-225.08"/>
</g>
</g>
</svg>
