<?xml version="1.0" encoding="UTF-8" standalone="no"?>
<!DOCTYPE svg PUBLIC "-//W3C//DTD SVG 1.1//EN"
 "http://www.w3.org/Graphics/SVG/1.1/DTD/svg11.dtd">
<!-- Generated by graphviz version 2.43.0 (0)
 -->
<!-- Title: Eval_Diff_VDF_Multi_inco_var_Elem_Axi Pages: 1 -->
<svg width="686pt" height="135pt"
 viewBox="0.00 0.00 686.00 135.13" xmlns="http://www.w3.org/2000/svg" xmlns:xlink="http://www.w3.org/1999/xlink">
<g id="graph0" class="graph" transform="scale(1 1) rotate(0) translate(4 131.13)">
<title>Eval_Diff_VDF_Multi_inco_var_Elem_Axi</title>
<polygon fill="white" stroke="transparent" points="-4,4 -4,-131.13 682,-131.13 682,4 -4,4"/>
<!-- Node1 -->
<g id="node1" class="node">
<title>Node1</title>
<g id="a_node1"><a xlink:title="class Eval_Diff_VDF_Multi_inco_var_Elem_Axi Evaluateur VDF pour la diffusion en coordonnees cylindriq...">
<polygon fill="#bfbfbf" stroke="black" points="562,-35 562,-65 678,-65 678,-35 562,-35"/>
<text text-anchor="start" x="570" y="-53" font-family="Helvetica,sans-Serif" font-size="10.00">Eval_Diff_VDF_Multi</text>
<text text-anchor="middle" x="620" y="-42" font-family="Helvetica,sans-Serif" font-size="10.00">_inco_var_Elem_Axi</text>
</a>
</g>
</g>
<!-- Node2 -->
<g id="node2" class="node">
<title>Node2</title>
<g id="a_node2"><a xlink:href="classEval__Diff__VDF__Elem.html" target="_top" xlink:title=" ">
<polygon fill="white" stroke="black" points="398,-64.5 398,-105.5 525,-105.5 525,-64.5 398,-64.5"/>
<text text-anchor="start" x="406" y="-93.5" font-family="Helvetica,sans-Serif" font-size="10.00">Eval_Diff_VDF_Elem</text>
<text text-anchor="start" x="406" y="-82.5" font-family="Helvetica,sans-Serif" font-size="10.00">&lt; Eval_Diff_VDF_Multi</text>
<text text-anchor="middle" x="461.5" y="-71.5" font-family="Helvetica,sans-Serif" font-size="10.00">_inco_var_Elem_Axi &gt;</text>
</a>
</g>
</g>
<!-- Node2&#45;&gt;Node1 -->
<g id="edge1" class="edge">
<title>Node2&#45;&gt;Node1</title>
<path fill="none" stroke="midnightblue" d="M535.25,-68.73C544.16,-66.74 553.17,-64.72 561.8,-62.79"/>
<polygon fill="midnightblue" stroke="midnightblue" points="534.25,-65.37 525.25,-70.97 535.78,-72.2 534.25,-65.37"/>
</g>
<!-- Node3 -->
<g id="node3" class="node">
<title>Node3</title>
<g id="a_node3"><a xlink:href="classEval__VDF__Elem.html" target="_top" xlink:title="class Eval_VDF_Elem Cette classe represente le prototype fonctionnel des evaluateurs de flux associes...">
<polygon fill="white" stroke="black" points="1,-105.5 1,-124.5 94,-124.5 94,-105.5 1,-105.5"/>
<text text-anchor="middle" x="47.5" y="-112.5" font-family="Helvetica,sans-Serif" font-size="10.00">Eval_VDF_Elem</text>
</a>
</g>
</g>
<!-- Node3&#45;&gt;Node2 -->
<g id="edge2" class="edge">
<title>Node3&#45;&gt;Node2</title>
<path fill="none" stroke="midnightblue" d="M104.26,-121.23C170.61,-127.22 284.44,-132.98 380,-115 391.14,-112.9 402.76,-109.41 413.59,-105.53"/>
<polygon fill="midnightblue" stroke="midnightblue" points="104.31,-117.72 94.03,-120.27 103.66,-124.69 104.31,-117.72"/>
</g>
<!-- Node5 -->
<g id="node5" class="node">
<title>Node5</title>
<g id="a_node5"><a xlink:href="classEval__Diff__VDF__Elem.html" target="_top" xlink:title="class Eval_Diff_VDF_Elem Evaluateur VDF pour la diffusion : Le champ diffuse est un Champ_P0_VDF temp...">
<polygon fill="white" stroke="black" points="132,-77 132,-107 248,-107 248,-77 132,-77"/>
<text text-anchor="start" x="140" y="-95" font-family="Helvetica,sans-Serif" font-size="10.00">Eval_Diff_VDF_Elem</text>
<text text-anchor="middle" x="190" y="-84" font-family="Helvetica,sans-Serif" font-size="10.00">&lt; DERIVED_T &gt;</text>
</a>
</g>
</g>
<!-- Node3&#45;&gt;Node5 -->
<g id="edge5" class="edge">
<title>Node3&#45;&gt;Node5</title>
<path fill="none" stroke="midnightblue" d="M104.19,-105.88C113.27,-104.4 122.69,-102.86 131.8,-101.36"/>
<polygon fill="midnightblue" stroke="midnightblue" points="103.42,-102.46 94.12,-107.53 104.55,-109.37 103.42,-102.46"/>
</g>
<!-- Node4 -->
<g id="node4" class="node">
<title>Node4</title>
<g id="a_node4"><a xlink:href="classEvaluateur__VDF.html" target="_top" xlink:title="class Evaluateur_VDF Classe de base des evaluateurs VDF. Cette classe n&#39;appartient pas a la hierarchi...">
<polygon fill="white" stroke="black" points="0,-61.5 0,-80.5 95,-80.5 95,-61.5 0,-61.5"/>
<text text-anchor="middle" x="47.5" y="-68.5" font-family="Helvetica,sans-Serif" font-size="10.00">Evaluateur_VDF</text>
</a>
</g>
</g>
<!-- Node4&#45;&gt;Node2 -->
<g id="edge3" class="edge">
<title>Node4&#45;&gt;Node2</title>
<path fill="none" stroke="midnightblue" d="M105.56,-68.68C114.41,-68.4 123.45,-68.15 132,-68 183.55,-67.07 196.49,-65.94 248,-68 298.48,-70.02 355.54,-74.72 397.82,-78.66"/>
<polygon fill="midnightblue" stroke="midnightblue" points="105.18,-65.19 95.3,-69.02 105.42,-72.18 105.18,-65.19"/>
</g>
<!-- Node4&#45;&gt;Node5 -->
<g id="edge6" class="edge">
<title>Node4&#45;&gt;Node5</title>
<path fill="none" stroke="midnightblue" d="M105.32,-79.49C114,-80.79 122.97,-82.13 131.67,-83.43"/>
<polygon fill="midnightblue" stroke="midnightblue" points="105.69,-76.01 95.28,-77.99 104.66,-82.93 105.69,-76.01"/>
</g>
<!-- Node5&#45;&gt;Node2 -->
<g id="edge4" class="edge">
<title>Node5&#45;&gt;Node2</title>
<path fill="none" stroke="orange" stroke-dasharray="5,2" d="M258.19,-90.25C300.94,-89.14 355.93,-87.72 397.78,-86.63"/>
<polygon fill="orange" stroke="orange" points="258.06,-86.76 248.15,-90.52 258.24,-93.75 258.06,-86.76"/>
<text text-anchor="start" x="266" y="-103" font-family="Helvetica,sans-Serif" font-size="10.00"> &lt; Eval_Diff_VDF_Multi</text>
<text text-anchor="middle" x="323" y="-92" font-family="Helvetica,sans-Serif" font-size="10.00">_inco_var_Elem_Axi &gt;</text>
</g>
<!-- Node6 -->
<g id="node6" class="node">
<title>Node6</title>
<g id="a_node6"><a xlink:href="classEval__Diff__VDF__Multi__inco__var.html" target="_top" xlink:title="class Eval_Diff_VDF_Multi_inco_var Cette classe represente un evaluateur de flux diffusif pour un vec...">
<polygon fill="white" stroke="black" points="403.5,-8 403.5,-38 519.5,-38 519.5,-8 403.5,-8"/>
<text text-anchor="start" x="411.5" y="-26" font-family="Helvetica,sans-Serif" font-size="10.00">Eval_Diff_VDF_Multi</text>
<text text-anchor="middle" x="461.5" y="-15" font-family="Helvetica,sans-Serif" font-size="10.00">_inco_var</text>
</a>
</g>
</g>
<!-- Node6&#45;&gt;Node1 -->
<g id="edge7" class="edge">
<title>Node6&#45;&gt;Node1</title>
<path fill="none" stroke="midnightblue" d="M529.97,-34.64C540.61,-36.48 551.51,-38.36 561.88,-40.15"/>
<polygon fill="midnightblue" stroke="midnightblue" points="530.34,-31.15 519.89,-32.9 529.15,-38.05 530.34,-31.15"/>
</g>
<!-- Node7 -->
<g id="node7" class="node">
<title>Node7</title>
<g id="a_node7"><a xlink:href="classEval__Diff__VDF.html" target="_top" xlink:title=" ">
<polygon fill="white" stroke="black" points="147,-0.5 147,-19.5 233,-19.5 233,-0.5 147,-0.5"/>
<text text-anchor="middle" x="190" y="-7.5" font-family="Helvetica,sans-Serif" font-size="10.00">Eval_Diff_VDF</text>
</a>
</g>
</g>
<!-- Node7&#45;&gt;Node6 -->
<g id="edge8" class="edge">
<title>Node7&#45;&gt;Node6</title>
<path fill="none" stroke="midnightblue" d="M243.15,-12.52C289.06,-14.73 355.79,-17.95 403.18,-20.24"/>
<polygon fill="midnightblue" stroke="midnightblue" points="243.27,-9.02 233.11,-12.03 242.93,-16.01 243.27,-9.02"/>
</g>
</g>
</svg>
