<?xml version="1.0" encoding="UTF-8" standalone="no"?>
<!DOCTYPE svg PUBLIC "-//W3C//DTD SVG 1.1//EN"
 "http://www.w3.org/Graphics/SVG/1.1/DTD/svg11.dtd">
<!-- Generated by graphviz version 2.43.0 (0)
 -->
<!-- Title: Sortie_libre_Gradient_Pression_impose_VEFPreP1B Pages: 1 -->
<svg width="171pt" height="442pt"
 viewBox="0.00 0.00 171.00 442.00" xmlns="http://www.w3.org/2000/svg" xmlns:xlink="http://www.w3.org/1999/xlink">
<g id="graph0" class="graph" transform="scale(1 1) rotate(0) translate(4 438)">
<title>Sortie_libre_Gradient_Pression_impose_VEFPreP1B</title>
<polygon fill="white" stroke="transparent" points="-4,4 -4,-438 167,-438 167,4 -4,4"/>
<!-- Node1 -->
<g id="node1" class="node">
<title>Node1</title>
<g id="a_node1"><a xlink:title="Sortie_libre_Gradient_Pression_impose_VEFPreP1B Cette classe derive de la classe Neumann_sortie_libre...">
<polygon fill="#bfbfbf" stroke="black" points="0,-0.5 0,-30.5 163,-30.5 163,-0.5 0,-0.5"/>
<text text-anchor="start" x="8" y="-18.5" font-family="Helvetica,sans-Serif" font-size="10.00">Sortie_libre_Gradient</text>
<text text-anchor="middle" x="81.5" y="-7.5" font-family="Helvetica,sans-Serif" font-size="10.00">_Pression_impose_VEFPreP1B</text>
</a>
</g>
</g>
<!-- Node2 -->
<g id="node2" class="node">
<title>Node2</title>
<g id="a_node2"><a xlink:href="classSortie__libre__Gradient__Pression__impose__VEF.html" target="_top" xlink:title="Sortie_libre_Gradient_Pression_impose_VEF Cette classe derive de la classe Neumann_sortie_libre Elle ...">
<polygon fill="white" stroke="black" points="17.5,-67.5 17.5,-97.5 145.5,-97.5 145.5,-67.5 17.5,-67.5"/>
<text text-anchor="start" x="25.5" y="-85.5" font-family="Helvetica,sans-Serif" font-size="10.00">Sortie_libre_Gradient</text>
<text text-anchor="middle" x="81.5" y="-74.5" font-family="Helvetica,sans-Serif" font-size="10.00">_Pression_impose_VEF</text>
</a>
</g>
</g>
<!-- Node2&#45;&gt;Node1 -->
<g id="edge1" class="edge">
<title>Node2&#45;&gt;Node1</title>
<path fill="none" stroke="midnightblue" d="M81.5,-57.11C81.5,-48.15 81.5,-38.32 81.5,-30.58"/>
<polygon fill="midnightblue" stroke="midnightblue" points="78,-57.4 81.5,-67.4 85,-57.4 78,-57.4"/>
</g>
<!-- Node3 -->
<g id="node3" class="node">
<title>Node3</title>
<g id="a_node3"><a xlink:href="classNeumann__sortie__libre.html" target="_top" xlink:title="classe Neumann_sortie_libre Cette classe represente une frontiere ouverte sans vitesse imposee Pour l...">
<polygon fill="white" stroke="black" points="19.5,-134.5 19.5,-153.5 143.5,-153.5 143.5,-134.5 19.5,-134.5"/>
<text text-anchor="middle" x="81.5" y="-141.5" font-family="Helvetica,sans-Serif" font-size="10.00">Neumann_sortie_libre</text>
</a>
</g>
</g>
<!-- Node3&#45;&gt;Node2 -->
<g id="edge2" class="edge">
<title>Node3&#45;&gt;Node2</title>
<path fill="none" stroke="midnightblue" d="M81.5,-124.23C81.5,-115.59 81.5,-105.5 81.5,-97.52"/>
<polygon fill="midnightblue" stroke="midnightblue" points="78,-124.48 81.5,-134.48 85,-124.48 78,-124.48"/>
</g>
<!-- Node4 -->
<g id="node4" class="node">
<title>Node4</title>
<g id="a_node4"><a xlink:href="classNeumann__val__ext.html" target="_top" xlink:title="Classe Neumann_val_ext Cette classe est la classe de base de la hierarchie des conditions aux limites...">
<polygon fill="white" stroke="black" points="29,-190.5 29,-209.5 134,-209.5 134,-190.5 29,-190.5"/>
<text text-anchor="middle" x="81.5" y="-197.5" font-family="Helvetica,sans-Serif" font-size="10.00">Neumann_val_ext</text>
</a>
</g>
</g>
<!-- Node4&#45;&gt;Node3 -->
<g id="edge3" class="edge">
<title>Node4&#45;&gt;Node3</title>
<path fill="none" stroke="midnightblue" d="M81.5,-179.8C81.5,-170.91 81.5,-160.78 81.5,-153.75"/>
<polygon fill="midnightblue" stroke="midnightblue" points="78,-180.08 81.5,-190.08 85,-180.08 78,-180.08"/>
</g>
<!-- Node5 -->
<g id="node5" class="node">
<title>Node5</title>
<g id="a_node5"><a xlink:href="classNeumann.html" target="_top" xlink:title="Classe Neumann Cette classe est la classe de base de la hierarchie des conditions aux limites de type...">
<polygon fill="white" stroke="black" points="49.5,-246.5 49.5,-265.5 113.5,-265.5 113.5,-246.5 49.5,-246.5"/>
<text text-anchor="middle" x="81.5" y="-253.5" font-family="Helvetica,sans-Serif" font-size="10.00">Neumann</text>
</a>
</g>
</g>
<!-- Node5&#45;&gt;Node4 -->
<g id="edge4" class="edge">
<title>Node5&#45;&gt;Node4</title>
<path fill="none" stroke="midnightblue" d="M81.5,-235.8C81.5,-226.91 81.5,-216.78 81.5,-209.75"/>
<polygon fill="midnightblue" stroke="midnightblue" points="78,-236.08 81.5,-246.08 85,-236.08 78,-236.08"/>
</g>
<!-- Node6 -->
<g id="node6" class="node">
<title>Node6</title>
<g id="a_node6"><a xlink:href="classCond__lim__base.html" target="_top" xlink:title="classe Cond_lim_base Classe de base pour la hierarchie des classes qui representent les differentes c...">
<polygon fill="white" stroke="black" points="36,-302.5 36,-321.5 127,-321.5 127,-302.5 36,-302.5"/>
<text text-anchor="middle" x="81.5" y="-309.5" font-family="Helvetica,sans-Serif" font-size="10.00">Cond_lim_base</text>
</a>
</g>
</g>
<!-- Node6&#45;&gt;Node5 -->
<g id="edge5" class="edge">
<title>Node6&#45;&gt;Node5</title>
<path fill="none" stroke="midnightblue" d="M81.5,-291.8C81.5,-282.91 81.5,-272.78 81.5,-265.75"/>
<polygon fill="midnightblue" stroke="midnightblue" points="78,-292.08 81.5,-302.08 85,-292.08 78,-292.08"/>
</g>
<!-- Node7 -->
<g id="node7" class="node">
<title>Node7</title>
<g id="a_node7"><a xlink:href="classObjet__U.html" target="_top" xlink:title="classe Objet_U Cette classe est la classe de base des Objets de TRUST Dans les classes derivees de Ob...">
<polygon fill="white" stroke="black" points="53.5,-358.5 53.5,-377.5 109.5,-377.5 109.5,-358.5 53.5,-358.5"/>
<text text-anchor="middle" x="81.5" y="-365.5" font-family="Helvetica,sans-Serif" font-size="10.00">Objet_U</text>
</a>
</g>
</g>
<!-- Node7&#45;&gt;Node6 -->
<g id="edge6" class="edge">
<title>Node7&#45;&gt;Node6</title>
<path fill="none" stroke="midnightblue" d="M81.5,-347.8C81.5,-338.91 81.5,-328.78 81.5,-321.75"/>
<polygon fill="midnightblue" stroke="midnightblue" points="78,-348.08 81.5,-358.08 85,-348.08 78,-348.08"/>
</g>
<!-- Node8 -->
<g id="node8" class="node">
<title>Node8</title>
<g id="a_node8"><a xlink:href="classProcess.html" target="_top" xlink:title="Classe de base de TRUST (notamment Objet_U). Elle fournit quelques services de base accessibles de pa...">
<polygon fill="white" stroke="black" points="54.5,-414.5 54.5,-433.5 108.5,-433.5 108.5,-414.5 54.5,-414.5"/>
<text text-anchor="middle" x="81.5" y="-421.5" font-family="Helvetica,sans-Serif" font-size="10.00">Process</text>
</a>
</g>
</g>
<!-- Node8&#45;&gt;Node7 -->
<g id="edge7" class="edge">
<title>Node8&#45;&gt;Node7</title>
<path fill="none" stroke="midnightblue" d="M81.5,-403.8C81.5,-394.91 81.5,-384.78 81.5,-377.75"/>
<polygon fill="midnightblue" stroke="midnightblue" points="78,-404.08 81.5,-414.08 85,-404.08 78,-404.08"/>
</g>
</g>
</svg>
