<?xml version="1.0" encoding="UTF-8" standalone="no"?>
<!DOCTYPE svg PUBLIC "-//W3C//DTD SVG 1.1//EN"
 "http://www.w3.org/Graphics/SVG/1.1/DTD/svg11.dtd">
<!-- Generated by graphviz version 2.43.0 (0)
 -->
<!-- Title: Op_Diff_Turbulent_PolyMAC_P0_Elem Pages: 1 -->
<svg width="306pt" height="386pt"
 viewBox="0.00 0.00 305.50 386.00" xmlns="http://www.w3.org/2000/svg" xmlns:xlink="http://www.w3.org/1999/xlink">
<g id="graph0" class="graph" transform="scale(1 1) rotate(0) translate(4 382)">
<title>Op_Diff_Turbulent_PolyMAC_P0_Elem</title>
<polygon fill="white" stroke="transparent" points="-4,4 -4,-382 301.5,-382 301.5,4 -4,4"/>
<!-- Node1 -->
<g id="node1" class="node">
<title>Node1</title>
<g id="a_node1"><a xlink:title=": class Op_Diff_Turbulent_PolyMAC_P0_Elem Version de Op_Diff_PolyMAC_P0_Elem prenant en compte l&#39;effe...">
<polygon fill="#bfbfbf" stroke="black" points="90,-0.5 90,-30.5 242,-30.5 242,-0.5 90,-0.5"/>
<text text-anchor="start" x="98" y="-18.5" font-family="Helvetica,sans-Serif" font-size="10.00">Op_Diff_Turbulent_PolyMAC</text>
<text text-anchor="middle" x="166" y="-7.5" font-family="Helvetica,sans-Serif" font-size="10.00">_P0_Elem</text>
</a>
</g>
</g>
<!-- Node2 -->
<g id="node2" class="node">
<title>Node2</title>
<g id="a_node2"><a xlink:href="classOp__Diff__PolyMAC__P0__Elem.html" target="_top" xlink:title=": class Op_Diff_PolyMAC_P0_Elem &lt;Description of class Op_Diff_PolyMAC_P0_Elem&gt;">
<polygon fill="white" stroke="black" points="91.5,-67.5 91.5,-86.5 240.5,-86.5 240.5,-67.5 91.5,-67.5"/>
<text text-anchor="middle" x="166" y="-74.5" font-family="Helvetica,sans-Serif" font-size="10.00">Op_Diff_PolyMAC_P0_Elem</text>
</a>
</g>
</g>
<!-- Node2&#45;&gt;Node1 -->
<g id="edge1" class="edge">
<title>Node2&#45;&gt;Node1</title>
<path fill="none" stroke="midnightblue" d="M166,-57.23C166,-48.59 166,-38.5 166,-30.52"/>
<polygon fill="midnightblue" stroke="midnightblue" points="162.5,-57.48 166,-67.48 169.5,-57.48 162.5,-57.48"/>
</g>
<!-- Node3 -->
<g id="node3" class="node">
<title>Node3</title>
<g id="a_node3"><a xlink:href="classOp__Diff__PolyMAC__P0__base.html" target="_top" xlink:title="class Op_Diff_PolyMAC_P0_base Classe de base des operateurs de diffusion PolyMAC_P0">
<polygon fill="white" stroke="black" points="92.5,-123.5 92.5,-142.5 239.5,-142.5 239.5,-123.5 92.5,-123.5"/>
<text text-anchor="middle" x="166" y="-130.5" font-family="Helvetica,sans-Serif" font-size="10.00">Op_Diff_PolyMAC_P0_base</text>
</a>
</g>
</g>
<!-- Node3&#45;&gt;Node2 -->
<g id="edge2" class="edge">
<title>Node3&#45;&gt;Node2</title>
<path fill="none" stroke="midnightblue" d="M166,-112.8C166,-103.91 166,-93.78 166,-86.75"/>
<polygon fill="midnightblue" stroke="midnightblue" points="162.5,-113.08 166,-123.08 169.5,-113.08 162.5,-113.08"/>
</g>
<!-- Node4 -->
<g id="node4" class="node">
<title>Node4</title>
<g id="a_node4"><a xlink:href="classOperateur__Diff__base.html" target="_top" xlink:title="classe Operateur_Diff_base Cette classe est la base de la hierarchie des operateurs representant un t...">
<polygon fill="white" stroke="black" points="108,-179.5 108,-198.5 224,-198.5 224,-179.5 108,-179.5"/>
<text text-anchor="middle" x="166" y="-186.5" font-family="Helvetica,sans-Serif" font-size="10.00">Operateur_Diff_base</text>
</a>
</g>
</g>
<!-- Node4&#45;&gt;Node3 -->
<g id="edge3" class="edge">
<title>Node4&#45;&gt;Node3</title>
<path fill="none" stroke="midnightblue" d="M166,-168.8C166,-159.91 166,-149.78 166,-142.75"/>
<polygon fill="midnightblue" stroke="midnightblue" points="162.5,-169.08 166,-179.08 169.5,-169.08 162.5,-169.08"/>
</g>
<!-- Node5 -->
<g id="node5" class="node">
<title>Node5</title>
<g id="a_node5"><a xlink:href="classOperateur__base.html" target="_top" xlink:title="classe Operateur_base Classe est la base de la hierarchie des objets representant un operateur utilis...">
<polygon fill="white" stroke="black" points="54,-241 54,-260 148,-260 148,-241 54,-241"/>
<text text-anchor="middle" x="101" y="-248" font-family="Helvetica,sans-Serif" font-size="10.00">Operateur_base</text>
</a>
</g>
</g>
<!-- Node5&#45;&gt;Node4 -->
<g id="edge4" class="edge">
<title>Node5&#45;&gt;Node4</title>
<path fill="none" stroke="midnightblue" d="M117.77,-234.15C130.16,-222.81 146.58,-207.78 156.7,-198.51"/>
<polygon fill="midnightblue" stroke="midnightblue" points="115.33,-231.64 110.31,-240.98 120.05,-236.8 115.33,-231.64"/>
</g>
<!-- Node6 -->
<g id="node6" class="node">
<title>Node6</title>
<g id="a_node6"><a xlink:href="classObjet__U.html" target="_top" xlink:title="classe Objet_U Cette classe est la classe de base des Objets de TRUST Dans les classes derivees de Ob...">
<polygon fill="white" stroke="black" points="0,-302.5 0,-321.5 56,-321.5 56,-302.5 0,-302.5"/>
<text text-anchor="middle" x="28" y="-309.5" font-family="Helvetica,sans-Serif" font-size="10.00">Objet_U</text>
</a>
</g>
</g>
<!-- Node6&#45;&gt;Node5 -->
<g id="edge5" class="edge">
<title>Node6&#45;&gt;Node5</title>
<path fill="none" stroke="midnightblue" d="M46.44,-295.97C60.4,-284.59 79.08,-269.37 90.56,-260.01"/>
<polygon fill="midnightblue" stroke="midnightblue" points="44,-293.44 38.46,-302.48 48.42,-298.87 44,-293.44"/>
</g>
<!-- Node7 -->
<g id="node7" class="node">
<title>Node7</title>
<g id="a_node7"><a xlink:href="classProcess.html" target="_top" xlink:title="Classe de base de TRUST (notamment Objet_U). Elle fournit quelques services de base accessibles de pa...">
<polygon fill="white" stroke="black" points="1,-358.5 1,-377.5 55,-377.5 55,-358.5 1,-358.5"/>
<text text-anchor="middle" x="28" y="-365.5" font-family="Helvetica,sans-Serif" font-size="10.00">Process</text>
</a>
</g>
</g>
<!-- Node7&#45;&gt;Node6 -->
<g id="edge6" class="edge">
<title>Node7&#45;&gt;Node6</title>
<path fill="none" stroke="midnightblue" d="M28,-347.8C28,-338.91 28,-328.78 28,-321.75"/>
<polygon fill="midnightblue" stroke="midnightblue" points="24.5,-348.08 28,-358.08 31.5,-348.08 24.5,-348.08"/>
</g>
<!-- Node8 -->
<g id="node8" class="node">
<title>Node8</title>
<g id="a_node8"><a xlink:href="classMorEqn.html" target="_top" xlink:title="classe MorEqn Classe qui regroupe les fonctionnalites de liaison avec une Equation....">
<polygon fill="white" stroke="black" points="74.5,-302.5 74.5,-321.5 127.5,-321.5 127.5,-302.5 74.5,-302.5"/>
<text text-anchor="middle" x="101" y="-309.5" font-family="Helvetica,sans-Serif" font-size="10.00">MorEqn</text>
</a>
</g>
</g>
<!-- Node8&#45;&gt;Node5 -->
<g id="edge7" class="edge">
<title>Node8&#45;&gt;Node5</title>
<path fill="none" stroke="midnightblue" d="M101,-292.32C101,-281.5 101,-268.4 101,-260.01"/>
<polygon fill="midnightblue" stroke="midnightblue" points="97.5,-292.48 101,-302.48 104.5,-292.48 97.5,-292.48"/>
</g>
<!-- Node9 -->
<g id="node9" class="node">
<title>Node9</title>
<g id="a_node9"><a xlink:href="classChamps__compris__interface.html" target="_top" xlink:title="classe Champs_compris_interface Cette classe contient une interface de methodes destinees a gerer les...">
<polygon fill="white" stroke="black" points="145.5,-302.5 145.5,-321.5 294.5,-321.5 294.5,-302.5 145.5,-302.5"/>
<text text-anchor="middle" x="220" y="-309.5" font-family="Helvetica,sans-Serif" font-size="10.00">Champs_compris_interface</text>
</a>
</g>
</g>
<!-- Node9&#45;&gt;Node5 -->
<g id="edge8" class="edge">
<title>Node9&#45;&gt;Node5</title>
<path fill="none" stroke="midnightblue" d="M193.73,-297.87C170.67,-286.33 137.8,-269.9 118.02,-260.01"/>
<polygon fill="midnightblue" stroke="midnightblue" points="192.44,-301.13 202.95,-302.48 195.57,-294.87 192.44,-301.13"/>
</g>
<!-- Node10 -->
<g id="node10" class="node">
<title>Node10</title>
<g id="a_node10"><a xlink:href="classSupport__Champ__Masse__Volumique.html" target="_top" xlink:title=" ">
<polygon fill="white" stroke="black" points="166.5,-235.5 166.5,-265.5 297.5,-265.5 297.5,-235.5 166.5,-235.5"/>
<text text-anchor="start" x="174.5" y="-253.5" font-family="Helvetica,sans-Serif" font-size="10.00">Support_Champ_Masse</text>
<text text-anchor="middle" x="232" y="-242.5" font-family="Helvetica,sans-Serif" font-size="10.00">_Volumique</text>
</a>
</g>
</g>
<!-- Node10&#45;&gt;Node4 -->
<g id="edge9" class="edge">
<title>Node10&#45;&gt;Node4</title>
<path fill="none" stroke="midnightblue" d="M208.81,-228.6C197.41,-218.32 184.28,-206.48 175.6,-198.66"/>
<polygon fill="midnightblue" stroke="midnightblue" points="206.59,-231.3 216.36,-235.4 211.28,-226.1 206.59,-231.3"/>
</g>
</g>
</svg>
