<?xml version="1.0" encoding="UTF-8" standalone="no"?>
<!DOCTYPE svg PUBLIC "-//W3C//DTD SVG 1.1//EN"
 "http://www.w3.org/Graphics/SVG/1.1/DTD/svg11.dtd">
<!-- Generated by graphviz version 2.43.0 (0)
 -->
<!-- Title: Array_base Pages: 1 -->
<svg width="1118pt" height="186pt"
 viewBox="0.00 0.00 1118.00 186.00" xmlns="http://www.w3.org/2000/svg" xmlns:xlink="http://www.w3.org/1999/xlink">
<g id="graph0" class="graph" transform="scale(1 1) rotate(0) translate(4 182)">
<title>Array_base</title>
<polygon fill="white" stroke="transparent" points="-4,4 -4,-182 1114,-182 1114,4 -4,4"/>
<!-- Node1 -->
<g id="node1" class="node">
<title>Node1</title>
<g id="a_node1"><a xlink:title=": classe vide servant de base a tous les tableaux. (permet de passer un type generique quel que soit ...">
<polygon fill="#bfbfbf" stroke="black" points="184,-79.5 184,-98.5 255,-98.5 255,-79.5 184,-79.5"/>
<text text-anchor="middle" x="219.5" y="-86.5" font-family="Helvetica,sans-Serif" font-size="10.00">Array_base</text>
</a>
</g>
</g>
<!-- Node4 -->
<g id="node4" class="node">
<title>Node4</title>
<g id="a_node4"><a xlink:href="classTRUSTArray.html" target="_top" xlink:title=" ">
<polygon fill="white" stroke="black" points="534.5,-142.5 534.5,-161.5 644.5,-161.5 644.5,-142.5 534.5,-142.5"/>
<text text-anchor="middle" x="589.5" y="-149.5" font-family="Helvetica,sans-Serif" font-size="10.00">TRUSTArray&lt; int &gt;</text>
</a>
</g>
</g>
<!-- Node1&#45;&gt;Node4 -->
<g id="edge3" class="edge">
<title>Node1&#45;&gt;Node4</title>
<path fill="none" stroke="midnightblue" d="M265.14,-101.19C274.02,-103.52 283.29,-105.89 292,-108 357.92,-123.97 373.9,-131.12 441,-141 471.74,-145.53 506.37,-148.23 534.35,-149.83"/>
<polygon fill="midnightblue" stroke="midnightblue" points="265.9,-97.77 255.33,-98.59 264.1,-104.53 265.9,-97.77"/>
</g>
<!-- Node8 -->
<g id="node8" class="node">
<title>Node8</title>
<g id="a_node8"><a xlink:href="classTRUSTArray.html" target="_top" xlink:title=" ">
<polygon fill="white" stroke="black" points="524.5,-8.5 524.5,-27.5 654.5,-27.5 654.5,-8.5 524.5,-8.5"/>
<text text-anchor="middle" x="589.5" y="-15.5" font-family="Helvetica,sans-Serif" font-size="10.00">TRUSTArray&lt; double &gt;</text>
</a>
</g>
</g>
<!-- Node1&#45;&gt;Node8 -->
<g id="edge7" class="edge">
<title>Node1&#45;&gt;Node8</title>
<path fill="none" stroke="midnightblue" d="M264.26,-76.87C273.4,-74.48 282.99,-72.07 292,-70 371.45,-51.73 464.18,-36.42 524.49,-27.24"/>
<polygon fill="midnightblue" stroke="midnightblue" points="263.34,-73.49 254.57,-79.44 265.13,-80.26 263.34,-73.49"/>
</g>
<!-- Node11 -->
<g id="node11" class="node">
<title>Node11</title>
<g id="a_node11"><a xlink:href="classTRUSTArray.html" target="_top" xlink:title="Represente un tableau d&#39;elements de type int/double/float. L&#39;etat du tableau est caracterise par la v...">
<polygon fill="white" stroke="black" points="292,-79.5 292,-98.5 423,-98.5 423,-79.5 292,-79.5"/>
<text text-anchor="middle" x="357.5" y="-86.5" font-family="Helvetica,sans-Serif" font-size="10.00">TRUSTArray&lt; _TYPE_ &gt;</text>
</a>
</g>
</g>
<!-- Node1&#45;&gt;Node11 -->
<g id="edge10" class="edge">
<title>Node1&#45;&gt;Node11</title>
<path fill="none" stroke="midnightblue" d="M265.22,-89C273.72,-89 282.76,-89 291.74,-89"/>
<polygon fill="midnightblue" stroke="midnightblue" points="265.17,-85.5 255.17,-89 265.17,-92.5 265.17,-85.5"/>
</g>
<!-- Node2 -->
<g id="node2" class="node">
<title>Node2</title>
<g id="a_node2"><a xlink:href="classObjet__U.html" target="_top" xlink:title="classe Objet_U Cette classe est la classe de base des Objets de TRUST Dans les classes derivees de Ob...">
<polygon fill="white" stroke="black" points="91,-79.5 91,-98.5 147,-98.5 147,-79.5 91,-79.5"/>
<text text-anchor="middle" x="119" y="-86.5" font-family="Helvetica,sans-Serif" font-size="10.00">Objet_U</text>
</a>
</g>
</g>
<!-- Node2&#45;&gt;Node1 -->
<g id="edge1" class="edge">
<title>Node2&#45;&gt;Node1</title>
<path fill="none" stroke="midnightblue" d="M157.36,-89C165.99,-89 175.13,-89 183.65,-89"/>
<polygon fill="midnightblue" stroke="midnightblue" points="157.18,-85.5 147.18,-89 157.18,-92.5 157.18,-85.5"/>
</g>
<!-- Node3 -->
<g id="node3" class="node">
<title>Node3</title>
<g id="a_node3"><a xlink:href="classProcess.html" target="_top" xlink:title="Classe de base de TRUST (notamment Objet_U). Elle fournit quelques services de base accessibles de pa...">
<polygon fill="white" stroke="black" points="0,-79.5 0,-98.5 54,-98.5 54,-79.5 0,-79.5"/>
<text text-anchor="middle" x="27" y="-86.5" font-family="Helvetica,sans-Serif" font-size="10.00">Process</text>
</a>
</g>
</g>
<!-- Node3&#45;&gt;Node2 -->
<g id="edge2" class="edge">
<title>Node3&#45;&gt;Node2</title>
<path fill="none" stroke="midnightblue" d="M64.15,-89C73.03,-89 82.39,-89 90.77,-89"/>
<polygon fill="midnightblue" stroke="midnightblue" points="64.03,-85.5 54.03,-89 64.03,-92.5 64.03,-85.5"/>
</g>
<!-- Node5 -->
<g id="node5" class="node">
<title>Node5</title>
<g id="a_node5"><a xlink:href="classTRUSTVect.html" target="_top" xlink:title=" ">
<polygon fill="white" stroke="black" points="766,-120.5 766,-139.5 871,-139.5 871,-120.5 766,-120.5"/>
<text text-anchor="middle" x="818.5" y="-127.5" font-family="Helvetica,sans-Serif" font-size="10.00">TRUSTVect&lt; int &gt;</text>
</a>
</g>
</g>
<!-- Node4&#45;&gt;Node5 -->
<g id="edge4" class="edge">
<title>Node4&#45;&gt;Node5</title>
<path fill="none" stroke="midnightblue" d="M654.74,-145.77C689.88,-142.37 732.83,-138.21 765.78,-135.01"/>
<polygon fill="midnightblue" stroke="midnightblue" points="654.2,-142.31 644.58,-146.76 654.87,-149.28 654.2,-142.31"/>
</g>
<!-- Node7 -->
<g id="node7" class="node">
<title>Node7</title>
<g id="a_node7"><a xlink:href="classEsp__Dist.html" target="_top" xlink:title="Espace distant utilise pour la gestion des tableaux distribues Cette classe permet de decrire un espa...">
<polygon fill="white" stroke="black" points="789,-158.5 789,-177.5 848,-177.5 848,-158.5 789,-158.5"/>
<text text-anchor="middle" x="818.5" y="-165.5" font-family="Helvetica,sans-Serif" font-size="10.00">Esp_Dist</text>
</a>
</g>
</g>
<!-- Node4&#45;&gt;Node7 -->
<g id="edge6" class="edge">
<title>Node4&#45;&gt;Node7</title>
<path fill="none" stroke="midnightblue" d="M654.65,-156.52C698.76,-159.63 755.22,-163.61 788.75,-165.97"/>
<polygon fill="midnightblue" stroke="midnightblue" points="654.81,-153.02 644.58,-155.81 654.31,-160.01 654.81,-153.02"/>
</g>
<!-- Node6 -->
<g id="node6" class="node">
<title>Node6</title>
<g id="a_node6"><a xlink:href="classTRUSTTab.html" target="_top" xlink:title=" ">
<polygon fill="white" stroke="black" points="992.5,-125.5 992.5,-144.5 1093.5,-144.5 1093.5,-125.5 992.5,-125.5"/>
<text text-anchor="middle" x="1043" y="-132.5" font-family="Helvetica,sans-Serif" font-size="10.00">TRUSTTab&lt; int &gt;</text>
</a>
</g>
</g>
<!-- Node5&#45;&gt;Node6 -->
<g id="edge5" class="edge">
<title>Node5&#45;&gt;Node6</title>
<path fill="none" stroke="midnightblue" d="M881.21,-131.39C916.19,-132.17 959.4,-133.14 992.21,-133.88"/>
<polygon fill="midnightblue" stroke="midnightblue" points="881.18,-127.89 871.11,-131.16 881.02,-134.88 881.18,-127.89"/>
</g>
<!-- Node9 -->
<g id="node9" class="node">
<title>Node9</title>
<g id="a_node9"><a xlink:href="classTRUSTVect.html" target="_top" xlink:title=" ">
<polygon fill="white" stroke="black" points="756,-2.5 756,-21.5 881,-21.5 881,-2.5 756,-2.5"/>
<text text-anchor="middle" x="818.5" y="-9.5" font-family="Helvetica,sans-Serif" font-size="10.00">TRUSTVect&lt; double &gt;</text>
</a>
</g>
</g>
<!-- Node8&#45;&gt;Node9 -->
<g id="edge8" class="edge">
<title>Node8&#45;&gt;Node9</title>
<path fill="none" stroke="midnightblue" d="M664.88,-16.03C694.33,-15.26 727.8,-14.37 755.87,-13.63"/>
<polygon fill="midnightblue" stroke="midnightblue" points="664.54,-12.54 654.64,-16.3 664.73,-19.54 664.54,-12.54"/>
</g>
<!-- Node10 -->
<g id="node10" class="node">
<title>Node10</title>
<g id="a_node10"><a xlink:href="classTRUSTTab.html" target="_top" xlink:title=" ">
<polygon fill="white" stroke="black" points="982.5,-0.5 982.5,-19.5 1103.5,-19.5 1103.5,-0.5 982.5,-0.5"/>
<text text-anchor="middle" x="1043" y="-7.5" font-family="Helvetica,sans-Serif" font-size="10.00">TRUSTTab&lt; double &gt;</text>
</a>
</g>
</g>
<!-- Node9&#45;&gt;Node10 -->
<g id="edge9" class="edge">
<title>Node9&#45;&gt;Node10</title>
<path fill="none" stroke="midnightblue" d="M891.36,-11.35C920.67,-11.09 954.17,-10.79 982.12,-10.54"/>
<polygon fill="midnightblue" stroke="midnightblue" points="891.15,-7.86 881.18,-11.45 891.21,-14.86 891.15,-7.86"/>
</g>
<!-- Node11&#45;&gt;Node4 -->
<g id="edge20" class="edge">
<title>Node11&#45;&gt;Node4</title>
<path fill="none" stroke="orange" stroke-dasharray="5,2" d="M403.28,-101.27C447.25,-113.31 513.42,-131.43 553.62,-142.45"/>
<polygon fill="orange" stroke="orange" points="404,-97.83 393.43,-98.57 402.15,-104.59 404,-97.83"/>
<text text-anchor="middle" x="470.5" y="-129" font-family="Helvetica,sans-Serif" font-size="10.00"> &lt; int &gt;</text>
</g>
<!-- Node11&#45;&gt;Node8 -->
<g id="edge21" class="edge">
<title>Node11&#45;&gt;Node8</title>
<path fill="none" stroke="orange" stroke-dasharray="5,2" d="M396.8,-76.23C410.7,-71.66 426.53,-66.52 441,-62 480.28,-49.72 525.68,-36.29 555.62,-27.54"/>
<polygon fill="orange" stroke="orange" points="395.47,-72.98 387.08,-79.44 397.67,-79.63 395.47,-72.98"/>
<text text-anchor="middle" x="470.5" y="-65" font-family="Helvetica,sans-Serif" font-size="10.00"> &lt; double &gt;</text>
</g>
<!-- Node12 -->
<g id="node12" class="node">
<title>Node12</title>
<g id="a_node12"><a xlink:href="classTRUSTArrayFT.html" target="_top" xlink:title=" ">
<polygon fill="white" stroke="black" points="518,-95.5 518,-114.5 661,-114.5 661,-95.5 518,-95.5"/>
<text text-anchor="middle" x="589.5" y="-102.5" font-family="Helvetica,sans-Serif" font-size="10.00">TRUSTArrayFT&lt; _TYPE_ &gt;</text>
</a>
</g>
</g>
<!-- Node11&#45;&gt;Node12 -->
<g id="edge11" class="edge">
<title>Node11&#45;&gt;Node12</title>
<path fill="none" stroke="midnightblue" d="M433.4,-94.21C460.54,-96.1 491.09,-98.22 517.86,-100.09"/>
<polygon fill="midnightblue" stroke="midnightblue" points="433.4,-90.7 423.18,-93.5 432.91,-97.69 433.4,-90.7"/>
</g>
<!-- Node13 -->
<g id="node13" class="node">
<title>Node13</title>
<g id="a_node13"><a xlink:href="classTRUSTVect.html" target="_top" xlink:title=" ">
<polygon fill="white" stroke="black" points="526,-57.5 526,-76.5 653,-76.5 653,-57.5 526,-57.5"/>
<text text-anchor="middle" x="589.5" y="-64.5" font-family="Helvetica,sans-Serif" font-size="10.00">TRUSTVect&lt; _TYPE_ &gt;</text>
</a>
</g>
</g>
<!-- Node11&#45;&gt;Node13 -->
<g id="edge12" class="edge">
<title>Node11&#45;&gt;Node13</title>
<path fill="none" stroke="midnightblue" d="M433.17,-81.86C463.12,-78.99 497.26,-75.73 525.89,-72.99"/>
<polygon fill="midnightblue" stroke="midnightblue" points="432.8,-78.38 423.18,-82.81 433.47,-85.35 432.8,-78.38"/>
</g>
<!-- Node13&#45;&gt;Node5 -->
<g id="edge18" class="edge">
<title>Node13&#45;&gt;Node5</title>
<path fill="none" stroke="orange" stroke-dasharray="5,2" d="M636.25,-79.25C644.5,-81.48 653.01,-83.8 661,-86 703.45,-97.69 752.28,-111.47 783.95,-120.45"/>
<polygon fill="orange" stroke="orange" points="636.95,-75.82 626.39,-76.59 635.13,-82.58 636.95,-75.82"/>
<text text-anchor="middle" x="708.5" y="-109" font-family="Helvetica,sans-Serif" font-size="10.00"> &lt; int &gt;</text>
</g>
<!-- Node13&#45;&gt;Node9 -->
<g id="edge19" class="edge">
<title>Node13&#45;&gt;Node9</title>
<path fill="none" stroke="orange" stroke-dasharray="5,2" d="M639.65,-55.09C681.05,-45.06 739.51,-30.9 777.94,-21.59"/>
<polygon fill="orange" stroke="orange" points="638.68,-51.73 629.78,-57.48 640.32,-58.53 638.68,-51.73"/>
<text text-anchor="middle" x="708.5" y="-48" font-family="Helvetica,sans-Serif" font-size="10.00"> &lt; double &gt;</text>
</g>
<!-- Node14 -->
<g id="node14" class="node">
<title>Node14</title>
<g id="a_node14"><a xlink:href="classTRUSTTab.html" target="_top" xlink:title=": Tableau a n entrees pour n&lt;= 4. Repose sur un TRUSTVect avec calculs de l&#39;indice corespondant">
<polygon fill="white" stroke="black" points="757.5,-61.5 757.5,-80.5 879.5,-80.5 879.5,-61.5 757.5,-61.5"/>
<text text-anchor="middle" x="818.5" y="-68.5" font-family="Helvetica,sans-Serif" font-size="10.00">TRUSTTab&lt; _TYPE_ &gt;</text>
</a>
</g>
</g>
<!-- Node13&#45;&gt;Node14 -->
<g id="edge13" class="edge">
<title>Node13&#45;&gt;Node14</title>
<path fill="none" stroke="midnightblue" d="M663.25,-68.28C693.64,-68.82 728.52,-69.43 757.42,-69.94"/>
<polygon fill="midnightblue" stroke="midnightblue" points="663.19,-64.78 653.13,-68.1 663.07,-71.78 663.19,-64.78"/>
</g>
<!-- Node14&#45;&gt;Node6 -->
<g id="edge16" class="edge">
<title>Node14&#45;&gt;Node6</title>
<path fill="none" stroke="orange" stroke-dasharray="5,2" d="M860.41,-83.52C872.79,-87.27 886.44,-91.35 899,-95 935.88,-105.72 978.28,-117.52 1007.27,-125.5"/>
<polygon fill="orange" stroke="orange" points="861.38,-80.16 850.8,-80.61 859.35,-86.86 861.38,-80.16"/>
<text text-anchor="middle" x="928.5" y="-114" font-family="Helvetica,sans-Serif" font-size="10.00"> &lt; int &gt;</text>
</g>
<!-- Node14&#45;&gt;Node10 -->
<g id="edge17" class="edge">
<title>Node14&#45;&gt;Node10</title>
<path fill="none" stroke="orange" stroke-dasharray="5,2" d="M856.69,-58.19C869.97,-53.79 885.09,-48.97 899,-45 932.43,-35.46 970.69,-26.18 999.23,-19.57"/>
<polygon fill="orange" stroke="orange" points="855.31,-54.96 846.94,-61.46 857.53,-61.6 855.31,-54.96"/>
<text text-anchor="middle" x="928.5" y="-48" font-family="Helvetica,sans-Serif" font-size="10.00"> &lt; double &gt;</text>
</g>
<!-- Node15 -->
<g id="node15" class="node">
<title>Node15</title>
<g id="a_node15"><a xlink:href="classTRUSTTabFT.html" target="_top" xlink:title=" ">
<polygon fill="white" stroke="black" points="976,-80.5 976,-99.5 1110,-99.5 1110,-80.5 976,-80.5"/>
<text text-anchor="middle" x="1043" y="-87.5" font-family="Helvetica,sans-Serif" font-size="10.00">TRUSTTabFT&lt; _TYPE_ &gt;</text>
</a>
</g>
</g>
<!-- Node14&#45;&gt;Node15 -->
<g id="edge14" class="edge">
<title>Node14&#45;&gt;Node15</title>
<path fill="none" stroke="midnightblue" d="M890.04,-77.02C917.51,-79.37 948.83,-82.04 975.87,-84.35"/>
<polygon fill="midnightblue" stroke="midnightblue" points="889.97,-73.51 879.71,-76.14 889.38,-80.48 889.97,-73.51"/>
</g>
<!-- Node16 -->
<g id="node16" class="node">
<title>Node16</title>
<g id="a_node16"><a xlink:href="classTRUSTTrav.html" target="_top" xlink:title=": Tableau de travail a n entrees pour n&lt;= 4 C&#39;est un TRUSTTab avec allocation dans un pool de memoire...">
<polygon fill="white" stroke="black" points="980,-42.5 980,-61.5 1106,-61.5 1106,-42.5 980,-42.5"/>
<text text-anchor="middle" x="1043" y="-49.5" font-family="Helvetica,sans-Serif" font-size="10.00">TRUSTTrav&lt; _TYPE_ &gt;</text>
</a>
</g>
</g>
<!-- Node14&#45;&gt;Node16 -->
<g id="edge15" class="edge">
<title>Node14&#45;&gt;Node16</title>
<path fill="none" stroke="midnightblue" d="M889.74,-65C918.62,-62.54 951.8,-59.7 979.8,-57.31"/>
<polygon fill="midnightblue" stroke="midnightblue" points="889.38,-61.52 879.71,-65.86 889.97,-68.49 889.38,-61.52"/>
</g>
</g>
</svg>
