<?xml version="1.0" encoding="UTF-8" standalone="no"?>
<!DOCTYPE svg PUBLIC "-//W3C//DTD SVG 1.1//EN"
 "http://www.w3.org/Graphics/SVG/1.1/DTD/svg11.dtd">
<!-- Generated by graphviz version 2.43.0 (0)
 -->
<!-- Title: Discret_Thermique Pages: 1 -->
<svg width="547pt" height="364pt"
 viewBox="0.00 0.00 547.00 364.00" xmlns="http://www.w3.org/2000/svg" xmlns:xlink="http://www.w3.org/1999/xlink">
<g id="graph0" class="graph" transform="scale(1 1) rotate(0) translate(4 360)">
<title>Discret_Thermique</title>
<polygon fill="white" stroke="transparent" points="-4,4 -4,-360 543,-360 543,4 -4,4"/>
<!-- Node1 -->
<g id="node1" class="node">
<title>Node1</title>
<g id="a_node1"><a xlink:title="Class Discret_Thermique Cette classe est la classe de base representant une discretisation spatiale a...">
<polygon fill="#bfbfbf" stroke="black" points="222.5,-168.5 222.5,-187.5 331.5,-187.5 331.5,-168.5 222.5,-168.5"/>
<text text-anchor="middle" x="277" y="-175.5" font-family="Helvetica,sans-Serif" font-size="10.00">Discret_Thermique</text>
</a>
</g>
</g>
<!-- Node5 -->
<g id="node5" class="node">
<title>Node5</title>
<g id="a_node5"><a xlink:href="classDiscret__Thyd.html" target="_top" xlink:title="classe Discret_Thyd Cette classe est la classe de base representant une discretisation spatiale appli...">
<polygon fill="white" stroke="black" points="237,-112.5 237,-131.5 317,-131.5 317,-112.5 237,-112.5"/>
<text text-anchor="middle" x="277" y="-119.5" font-family="Helvetica,sans-Serif" font-size="10.00">Discret_Thyd</text>
</a>
</g>
</g>
<!-- Node1&#45;&gt;Node5 -->
<g id="edge4" class="edge">
<title>Node1&#45;&gt;Node5</title>
<path fill="none" stroke="midnightblue" d="M277,-157.8C277,-148.91 277,-138.78 277,-131.75"/>
<polygon fill="midnightblue" stroke="midnightblue" points="273.5,-158.08 277,-168.08 280.5,-158.08 273.5,-158.08"/>
</g>
<!-- Node2 -->
<g id="node2" class="node">
<title>Node2</title>
<g id="a_node2"><a xlink:href="classDiscretisation__base.html" target="_top" xlink:title="classe Discretisation_base Cette classe represente un schema de discretisation en espace,...">
<polygon fill="white" stroke="black" points="220.5,-224.5 220.5,-243.5 333.5,-243.5 333.5,-224.5 220.5,-224.5"/>
<text text-anchor="middle" x="277" y="-231.5" font-family="Helvetica,sans-Serif" font-size="10.00">Discretisation_base</text>
</a>
</g>
</g>
<!-- Node2&#45;&gt;Node1 -->
<g id="edge1" class="edge">
<title>Node2&#45;&gt;Node1</title>
<path fill="none" stroke="midnightblue" d="M277,-213.8C277,-204.91 277,-194.78 277,-187.75"/>
<polygon fill="midnightblue" stroke="midnightblue" points="273.5,-214.08 277,-224.08 280.5,-214.08 273.5,-214.08"/>
</g>
<!-- Node3 -->
<g id="node3" class="node">
<title>Node3</title>
<g id="a_node3"><a xlink:href="classObjet__U.html" target="_top" xlink:title="classe Objet_U Cette classe est la classe de base des Objets de TRUST Dans les classes derivees de Ob...">
<polygon fill="white" stroke="black" points="249,-280.5 249,-299.5 305,-299.5 305,-280.5 249,-280.5"/>
<text text-anchor="middle" x="277" y="-287.5" font-family="Helvetica,sans-Serif" font-size="10.00">Objet_U</text>
</a>
</g>
</g>
<!-- Node3&#45;&gt;Node2 -->
<g id="edge2" class="edge">
<title>Node3&#45;&gt;Node2</title>
<path fill="none" stroke="midnightblue" d="M277,-269.8C277,-260.91 277,-250.78 277,-243.75"/>
<polygon fill="midnightblue" stroke="midnightblue" points="273.5,-270.08 277,-280.08 280.5,-270.08 273.5,-270.08"/>
</g>
<!-- Node4 -->
<g id="node4" class="node">
<title>Node4</title>
<g id="a_node4"><a xlink:href="classProcess.html" target="_top" xlink:title="Classe de base de TRUST (notamment Objet_U). Elle fournit quelques services de base accessibles de pa...">
<polygon fill="white" stroke="black" points="250,-336.5 250,-355.5 304,-355.5 304,-336.5 250,-336.5"/>
<text text-anchor="middle" x="277" y="-343.5" font-family="Helvetica,sans-Serif" font-size="10.00">Process</text>
</a>
</g>
</g>
<!-- Node4&#45;&gt;Node3 -->
<g id="edge3" class="edge">
<title>Node4&#45;&gt;Node3</title>
<path fill="none" stroke="midnightblue" d="M277,-325.8C277,-316.91 277,-306.78 277,-299.75"/>
<polygon fill="midnightblue" stroke="midnightblue" points="273.5,-326.08 277,-336.08 280.5,-326.08 273.5,-326.08"/>
</g>
<!-- Node6 -->
<g id="node6" class="node">
<title>Node6</title>
<g id="a_node6"><a xlink:href="classEF__discretisation.html" target="_top" xlink:title=" ">
<polygon fill="white" stroke="black" points="19,-56.5 19,-75.5 119,-75.5 119,-56.5 19,-56.5"/>
<text text-anchor="middle" x="69" y="-63.5" font-family="Helvetica,sans-Serif" font-size="10.00">EF_discretisation</text>
</a>
</g>
</g>
<!-- Node5&#45;&gt;Node6 -->
<g id="edge5" class="edge">
<title>Node5&#45;&gt;Node6</title>
<path fill="none" stroke="midnightblue" d="M234.22,-109.89C194.94,-99.7 137.57,-84.8 101.8,-75.52"/>
<polygon fill="midnightblue" stroke="midnightblue" points="233.48,-113.32 244.04,-112.44 235.24,-106.54 233.48,-113.32"/>
</g>
<!-- Node8 -->
<g id="node8" class="node">
<title>Node8</title>
<g id="a_node8"><a xlink:href="classPolyMAC__discretisation.html" target="_top" xlink:title=" ">
<polygon fill="white" stroke="black" points="142.5,-56.5 142.5,-75.5 273.5,-75.5 273.5,-56.5 142.5,-56.5"/>
<text text-anchor="middle" x="208" y="-63.5" font-family="Helvetica,sans-Serif" font-size="10.00">PolyMAC_discretisation</text>
</a>
</g>
</g>
<!-- Node5&#45;&gt;Node8 -->
<g id="edge7" class="edge">
<title>Node5&#45;&gt;Node8</title>
<path fill="none" stroke="midnightblue" d="M257.96,-106.1C245.54,-96.38 229.76,-84.03 219.29,-75.83"/>
<polygon fill="midnightblue" stroke="midnightblue" points="255.88,-108.92 265.91,-112.32 260.2,-103.4 255.88,-108.92"/>
</g>
<!-- Node10 -->
<g id="node10" class="node">
<title>Node10</title>
<g id="a_node10"><a xlink:href="classVDF__discretisation.html" target="_top" xlink:title=" ">
<polygon fill="white" stroke="black" points="292,-56.5 292,-75.5 400,-75.5 400,-56.5 292,-56.5"/>
<text text-anchor="middle" x="346" y="-63.5" font-family="Helvetica,sans-Serif" font-size="10.00">VDF_discretisation</text>
</a>
</g>
</g>
<!-- Node5&#45;&gt;Node10 -->
<g id="edge9" class="edge">
<title>Node5&#45;&gt;Node10</title>
<path fill="none" stroke="midnightblue" d="M296.04,-106.1C308.46,-96.38 324.24,-84.03 334.71,-75.83"/>
<polygon fill="midnightblue" stroke="midnightblue" points="293.8,-103.4 288.09,-112.32 298.12,-108.92 293.8,-103.4"/>
</g>
<!-- Node11 -->
<g id="node11" class="node">
<title>Node11</title>
<g id="a_node11"><a xlink:href="classVEF__discretisation.html" target="_top" xlink:title=" ">
<polygon fill="white" stroke="black" points="418.5,-56.5 418.5,-75.5 525.5,-75.5 525.5,-56.5 418.5,-56.5"/>
<text text-anchor="middle" x="472" y="-63.5" font-family="Helvetica,sans-Serif" font-size="10.00">VEF_discretisation</text>
</a>
</g>
</g>
<!-- Node5&#45;&gt;Node11 -->
<g id="edge10" class="edge">
<title>Node5&#45;&gt;Node11</title>
<path fill="none" stroke="midnightblue" d="M317.81,-109.7C354.61,-99.51 407.93,-84.74 441.25,-75.52"/>
<polygon fill="midnightblue" stroke="midnightblue" points="316.6,-106.4 307.9,-112.44 318.47,-113.15 316.6,-106.4"/>
</g>
<!-- Node7 -->
<g id="node7" class="node">
<title>Node7</title>
<g id="a_node7"><a xlink:href="classEF__axi__discretisation.html" target="_top" xlink:title=": class EF_axi_discretisation &lt;Description of class EF_axi_discretisation&gt;">
<polygon fill="white" stroke="black" points="0,-0.5 0,-19.5 120,-19.5 120,-0.5 0,-0.5"/>
<text text-anchor="middle" x="60" y="-7.5" font-family="Helvetica,sans-Serif" font-size="10.00">EF_axi_discretisation</text>
</a>
</g>
</g>
<!-- Node6&#45;&gt;Node7 -->
<g id="edge6" class="edge">
<title>Node6&#45;&gt;Node7</title>
<path fill="none" stroke="midnightblue" d="M65.85,-46.1C64.36,-37.14 62.64,-26.86 61.46,-19.75"/>
<polygon fill="midnightblue" stroke="midnightblue" points="62.42,-46.79 67.51,-56.08 69.32,-45.64 62.42,-46.79"/>
</g>
<!-- Node9 -->
<g id="node9" class="node">
<title>Node9</title>
<g id="a_node9"><a xlink:href="classPolyMAC__P0__discretisation.html" target="_top" xlink:title="class PolyMAC_P0_discretisation (schema de base) Classe qui gere la dicretisation PolyMAC_P0 du probl...">
<polygon fill="white" stroke="black" points="138.5,-0.5 138.5,-19.5 287.5,-19.5 287.5,-0.5 138.5,-0.5"/>
<text text-anchor="middle" x="213" y="-7.5" font-family="Helvetica,sans-Serif" font-size="10.00">PolyMAC_P0_discretisation</text>
</a>
</g>
</g>
<!-- Node8&#45;&gt;Node9 -->
<g id="edge8" class="edge">
<title>Node8&#45;&gt;Node9</title>
<path fill="none" stroke="midnightblue" d="M209.75,-46.1C210.58,-37.14 211.53,-26.86 212.19,-19.75"/>
<polygon fill="midnightblue" stroke="midnightblue" points="206.26,-45.8 208.83,-56.08 213.23,-46.45 206.26,-45.8"/>
</g>
<!-- Node12 -->
<g id="node12" class="node">
<title>Node12</title>
<g id="a_node12"><a xlink:href="classVEFPreP1B.html" target="_top" xlink:title=" ">
<polygon fill="white" stroke="black" points="397,-0.5 397,-19.5 467,-19.5 467,-0.5 397,-0.5"/>
<text text-anchor="middle" x="432" y="-7.5" font-family="Helvetica,sans-Serif" font-size="10.00">VEFPreP1B</text>
</a>
</g>
</g>
<!-- Node11&#45;&gt;Node12 -->
<g id="edge11" class="edge">
<title>Node11&#45;&gt;Node12</title>
<path fill="none" stroke="midnightblue" d="M459.3,-47.86C452.37,-38.5 444.09,-27.33 438.48,-19.75"/>
<polygon fill="midnightblue" stroke="midnightblue" points="456.63,-50.13 465.39,-56.08 462.25,-45.96 456.63,-50.13"/>
</g>
<!-- Node13 -->
<g id="node13" class="node">
<title>Node13</title>
<g id="a_node13"><a xlink:href="classVEF__1D.html" target="_top" xlink:title=" ">
<polygon fill="white" stroke="black" points="485,-0.5 485,-19.5 539,-19.5 539,-0.5 485,-0.5"/>
<text text-anchor="middle" x="512" y="-7.5" font-family="Helvetica,sans-Serif" font-size="10.00">VEF_1D</text>
</a>
</g>
</g>
<!-- Node11&#45;&gt;Node13 -->
<g id="edge12" class="edge">
<title>Node11&#45;&gt;Node13</title>
<path fill="none" stroke="midnightblue" d="M484.7,-47.86C491.63,-38.5 499.91,-27.33 505.52,-19.75"/>
<polygon fill="midnightblue" stroke="midnightblue" points="481.75,-45.96 478.61,-56.08 487.37,-50.13 481.75,-45.96"/>
</g>
</g>
</svg>
