<?xml version="1.0" encoding="UTF-8" standalone="no"?>
<!DOCTYPE svg PUBLIC "-//W3C//DTD SVG 1.1//EN"
 "http://www.w3.org/Graphics/SVG/1.1/DTD/svg11.dtd">
<!-- Generated by graphviz version 2.43.0 (0)
 -->
<!-- Title: Champ_Fonc_P0_EF Pages: 1 -->
<svg width="491pt" height="476pt"
 viewBox="0.00 0.00 490.50 476.00" xmlns="http://www.w3.org/2000/svg" xmlns:xlink="http://www.w3.org/1999/xlink">
<g id="graph0" class="graph" transform="scale(1 1) rotate(0) translate(4 472)">
<title>Champ_Fonc_P0_EF</title>
<polygon fill="white" stroke="transparent" points="-4,4 -4,-472 486.5,-472 486.5,4 -4,4"/>
<!-- Node1 -->
<g id="node1" class="node">
<title>Node1</title>
<g id="a_node1"><a xlink:title="classe Champ_Fonc_P0_EF">
<polygon fill="#bfbfbf" stroke="black" points="185.5,-56.5 185.5,-75.5 298.5,-75.5 298.5,-56.5 185.5,-56.5"/>
<text text-anchor="middle" x="242" y="-63.5" font-family="Helvetica,sans-Serif" font-size="10.00">Champ_Fonc_P0_EF</text>
</a>
</g>
</g>
<!-- Node12 -->
<g id="node12" class="node">
<title>Node12</title>
<g id="a_node12"><a xlink:href="classChamp__Fonc__Tabule__P0__EF.html" target="_top" xlink:title=" ">
<polygon fill="white" stroke="black" points="0,-0.5 0,-19.5 150,-19.5 150,-0.5 0,-0.5"/>
<text text-anchor="middle" x="75" y="-7.5" font-family="Helvetica,sans-Serif" font-size="10.00">Champ_Fonc_Tabule_P0_EF</text>
</a>
</g>
</g>
<!-- Node1&#45;&gt;Node12 -->
<g id="edge11" class="edge">
<title>Node1&#45;&gt;Node12</title>
<path fill="none" stroke="midnightblue" d="M205.83,-53.3C174.36,-43.13 129.51,-28.62 101.34,-19.52"/>
<polygon fill="midnightblue" stroke="midnightblue" points="204.95,-56.7 215.54,-56.44 207.1,-50.04 204.95,-56.7"/>
</g>
<!-- Node13 -->
<g id="node13" class="node">
<title>Node13</title>
<g id="a_node13"><a xlink:href="classRotationnel__Champ__P1__EF.html" target="_top" xlink:title=" ">
<polygon fill="white" stroke="black" points="168.5,-0.5 168.5,-19.5 315.5,-19.5 315.5,-0.5 168.5,-0.5"/>
<text text-anchor="middle" x="242" y="-7.5" font-family="Helvetica,sans-Serif" font-size="10.00">Rotationnel_Champ_P1_EF</text>
</a>
</g>
</g>
<!-- Node1&#45;&gt;Node13 -->
<g id="edge12" class="edge">
<title>Node1&#45;&gt;Node13</title>
<path fill="none" stroke="midnightblue" d="M242,-45.8C242,-36.91 242,-26.78 242,-19.75"/>
<polygon fill="midnightblue" stroke="midnightblue" points="238.5,-46.08 242,-56.08 245.5,-46.08 238.5,-46.08"/>
</g>
<!-- Node14 -->
<g id="node14" class="node">
<title>Node14</title>
<g id="a_node14"><a xlink:href="classRotationnel__Champ__Q1__EF.html" target="_top" xlink:title=" ">
<polygon fill="white" stroke="black" points="333.5,-0.5 333.5,-19.5 482.5,-19.5 482.5,-0.5 333.5,-0.5"/>
<text text-anchor="middle" x="408" y="-7.5" font-family="Helvetica,sans-Serif" font-size="10.00">Rotationnel_Champ_Q1_EF</text>
</a>
</g>
</g>
<!-- Node1&#45;&gt;Node14 -->
<g id="edge13" class="edge">
<title>Node1&#45;&gt;Node14</title>
<path fill="none" stroke="midnightblue" d="M277.95,-53.3C309.23,-43.13 353.82,-28.62 381.82,-19.52"/>
<polygon fill="midnightblue" stroke="midnightblue" points="276.73,-50.02 268.3,-56.44 278.9,-56.68 276.73,-50.02"/>
</g>
<!-- Node2 -->
<g id="node2" class="node">
<title>Node2</title>
<g id="a_node2"><a xlink:href="classChamp__Fonc__P0__base.html" target="_top" xlink:title=": class Champ_Fonc_P0_base Decrire ici la classe Champ_Fonc_P0_base">
<polygon fill="white" stroke="black" points="179.5,-112.5 179.5,-131.5 304.5,-131.5 304.5,-112.5 179.5,-112.5"/>
<text text-anchor="middle" x="242" y="-119.5" font-family="Helvetica,sans-Serif" font-size="10.00">Champ_Fonc_P0_base</text>
</a>
</g>
</g>
<!-- Node2&#45;&gt;Node1 -->
<g id="edge1" class="edge">
<title>Node2&#45;&gt;Node1</title>
<path fill="none" stroke="midnightblue" d="M242,-101.8C242,-92.91 242,-82.78 242,-75.75"/>
<polygon fill="midnightblue" stroke="midnightblue" points="238.5,-102.08 242,-112.08 245.5,-102.08 238.5,-102.08"/>
</g>
<!-- Node3 -->
<g id="node3" class="node">
<title>Node3</title>
<g id="a_node3"><a xlink:href="classChamp__Fonc__base.html" target="_top" xlink:title="classe Champ_Fonc_base Classe de base des champs qui sont fonction d&#39;une grandeur calculee au cours d...">
<polygon fill="white" stroke="black" points="114.5,-168.5 114.5,-187.5 221.5,-187.5 221.5,-168.5 114.5,-168.5"/>
<text text-anchor="middle" x="168" y="-175.5" font-family="Helvetica,sans-Serif" font-size="10.00">Champ_Fonc_base</text>
</a>
</g>
</g>
<!-- Node3&#45;&gt;Node2 -->
<g id="edge2" class="edge">
<title>Node3&#45;&gt;Node2</title>
<path fill="none" stroke="midnightblue" d="M188.03,-162.38C201.41,-152.62 218.56,-140.11 229.89,-131.83"/>
<polygon fill="midnightblue" stroke="midnightblue" points="185.9,-159.6 179.89,-168.32 190.03,-165.26 185.9,-159.6"/>
</g>
<!-- Node4 -->
<g id="node4" class="node">
<title>Node4</title>
<g id="a_node4"><a xlink:href="classChamp__Don__base.html" target="_top" xlink:title=" ">
<polygon fill="white" stroke="black" points="114,-224.5 114,-243.5 218,-243.5 218,-224.5 114,-224.5"/>
<text text-anchor="middle" x="166" y="-231.5" font-family="Helvetica,sans-Serif" font-size="10.00">Champ_Don_base</text>
</a>
</g>
</g>
<!-- Node4&#45;&gt;Node3 -->
<g id="edge3" class="edge">
<title>Node4&#45;&gt;Node3</title>
<path fill="none" stroke="midnightblue" d="M166.71,-213.8C167.04,-204.91 167.42,-194.78 167.68,-187.75"/>
<polygon fill="midnightblue" stroke="midnightblue" points="163.2,-213.96 166.33,-224.08 170.2,-214.22 163.2,-213.96"/>
</g>
<!-- Node5 -->
<g id="node5" class="node">
<title>Node5</title>
<g id="a_node5"><a xlink:href="classChamp__base.html" target="_top" xlink:title="classe Champ_base Cette classe est la base de la hierarchie des champs. Ses membres sont les attribut...">
<polygon fill="white" stroke="black" points="126,-280.5 126,-299.5 206,-299.5 206,-280.5 126,-280.5"/>
<text text-anchor="middle" x="166" y="-287.5" font-family="Helvetica,sans-Serif" font-size="10.00">Champ_base</text>
</a>
</g>
</g>
<!-- Node5&#45;&gt;Node4 -->
<g id="edge4" class="edge">
<title>Node5&#45;&gt;Node4</title>
<path fill="none" stroke="midnightblue" d="M166,-269.8C166,-260.91 166,-250.78 166,-243.75"/>
<polygon fill="midnightblue" stroke="midnightblue" points="162.5,-270.08 166,-280.08 169.5,-270.08 162.5,-270.08"/>
</g>
<!-- Node6 -->
<g id="node6" class="node">
<title>Node6</title>
<g id="a_node6"><a xlink:href="classField__base.html" target="_top" xlink:title=" ">
<polygon fill="white" stroke="black" points="86,-336.5 86,-355.5 154,-355.5 154,-336.5 86,-336.5"/>
<text text-anchor="middle" x="120" y="-343.5" font-family="Helvetica,sans-Serif" font-size="10.00">Field_base</text>
</a>
</g>
</g>
<!-- Node6&#45;&gt;Node5 -->
<g id="edge5" class="edge">
<title>Node6&#45;&gt;Node5</title>
<path fill="none" stroke="midnightblue" d="M134.11,-328.43C142.18,-318.97 151.96,-307.48 158.55,-299.75"/>
<polygon fill="midnightblue" stroke="midnightblue" points="131.42,-326.2 127.6,-336.08 136.75,-330.74 131.42,-326.2"/>
</g>
<!-- Node7 -->
<g id="node7" class="node">
<title>Node7</title>
<g id="a_node7"><a xlink:href="classObjet__U.html" target="_top" xlink:title="classe Objet_U Cette classe est la classe de base des Objets de TRUST Dans les classes derivees de Ob...">
<polygon fill="white" stroke="black" points="92,-392.5 92,-411.5 148,-411.5 148,-392.5 92,-392.5"/>
<text text-anchor="middle" x="120" y="-399.5" font-family="Helvetica,sans-Serif" font-size="10.00">Objet_U</text>
</a>
</g>
</g>
<!-- Node7&#45;&gt;Node6 -->
<g id="edge6" class="edge">
<title>Node7&#45;&gt;Node6</title>
<path fill="none" stroke="midnightblue" d="M120,-381.8C120,-372.91 120,-362.78 120,-355.75"/>
<polygon fill="midnightblue" stroke="midnightblue" points="116.5,-382.08 120,-392.08 123.5,-382.08 116.5,-382.08"/>
</g>
<!-- Node8 -->
<g id="node8" class="node">
<title>Node8</title>
<g id="a_node8"><a xlink:href="classProcess.html" target="_top" xlink:title="Classe de base de TRUST (notamment Objet_U). Elle fournit quelques services de base accessibles de pa...">
<polygon fill="white" stroke="black" points="93,-448.5 93,-467.5 147,-467.5 147,-448.5 93,-448.5"/>
<text text-anchor="middle" x="120" y="-455.5" font-family="Helvetica,sans-Serif" font-size="10.00">Process</text>
</a>
</g>
</g>
<!-- Node8&#45;&gt;Node7 -->
<g id="edge7" class="edge">
<title>Node8&#45;&gt;Node7</title>
<path fill="none" stroke="midnightblue" d="M120,-437.8C120,-428.91 120,-418.78 120,-411.75"/>
<polygon fill="midnightblue" stroke="midnightblue" points="116.5,-438.08 120,-448.08 123.5,-438.08 116.5,-438.08"/>
</g>
<!-- Node9 -->
<g id="node9" class="node">
<title>Node9</title>
<g id="a_node9"><a xlink:href="classChamp__Proto.html" target="_top" xlink:title="classe Champ_Proto Classe representant un prototype de Champ. Tous les classes representant des champ...">
<polygon fill="white" stroke="black" points="172,-336.5 172,-355.5 254,-355.5 254,-336.5 172,-336.5"/>
<text text-anchor="middle" x="213" y="-343.5" font-family="Helvetica,sans-Serif" font-size="10.00">Champ_Proto</text>
</a>
</g>
</g>
<!-- Node9&#45;&gt;Node5 -->
<g id="edge8" class="edge">
<title>Node9&#45;&gt;Node5</title>
<path fill="none" stroke="midnightblue" d="M198.58,-328.43C190.34,-318.97 180.35,-307.48 173.62,-299.75"/>
<polygon fill="midnightblue" stroke="midnightblue" points="196.03,-330.84 205.24,-336.08 201.31,-326.24 196.03,-330.84"/>
</g>
<!-- Node10 -->
<g id="node10" class="node">
<title>Node10</title>
<g id="a_node10"><a xlink:href="classChamp__implementation__P0.html" target="_top" xlink:title=": class Champ_implementation_P0 Decrire ici la classe Champ_implementation_P0">
<polygon fill="white" stroke="black" points="241,-168.5 241,-187.5 393,-187.5 393,-168.5 241,-168.5"/>
<text text-anchor="middle" x="317" y="-175.5" font-family="Helvetica,sans-Serif" font-size="10.00">Champ_implementation_P0</text>
</a>
</g>
</g>
<!-- Node10&#45;&gt;Node2 -->
<g id="edge9" class="edge">
<title>Node10&#45;&gt;Node2</title>
<path fill="none" stroke="midnightblue" d="M296.69,-162.38C283.14,-152.62 265.76,-140.11 254.27,-131.83"/>
<polygon fill="midnightblue" stroke="midnightblue" points="294.79,-165.32 304.95,-168.32 298.88,-159.64 294.79,-165.32"/>
</g>
<!-- Node11 -->
<g id="node11" class="node">
<title>Node11</title>
<g id="a_node11"><a xlink:href="classChamp__implementation__base.html" target="_top" xlink:title=": class Champ_implementation_base Decrire ici la classe Champ_implementation_base">
<polygon fill="white" stroke="black" points="236.5,-224.5 236.5,-243.5 399.5,-243.5 399.5,-224.5 236.5,-224.5"/>
<text text-anchor="middle" x="318" y="-231.5" font-family="Helvetica,sans-Serif" font-size="10.00">Champ_implementation_base</text>
</a>
</g>
</g>
<!-- Node11&#45;&gt;Node10 -->
<g id="edge10" class="edge">
<title>Node11&#45;&gt;Node10</title>
<path fill="none" stroke="midnightblue" d="M317.64,-213.8C317.48,-204.91 317.29,-194.78 317.16,-187.75"/>
<polygon fill="midnightblue" stroke="midnightblue" points="314.15,-214.15 317.83,-224.08 321.15,-214.02 314.15,-214.15"/>
</g>
</g>
</svg>
