<?xml version="1.0" encoding="UTF-8" standalone="no"?>
<!DOCTYPE svg PUBLIC "-//W3C//DTD SVG 1.1//EN"
 "http://www.w3.org/Graphics/SVG/1.1/DTD/svg11.dtd">
<!-- Generated by graphviz version 2.43.0 (0)
 -->
<!-- Title: Deriv_Champ_Don_base Pages: 1 -->
<svg width="144pt" height="308pt"
 viewBox="0.00 0.00 144.00 308.00" xmlns="http://www.w3.org/2000/svg" xmlns:xlink="http://www.w3.org/1999/xlink">
<g id="graph0" class="graph" transform="scale(1 1) rotate(0) translate(4 304)">
<title>Deriv_Champ_Don_base</title>
<polygon fill="white" stroke="transparent" points="-4,4 -4,-304 140,-304 140,4 -4,4"/>
<!-- Node1 -->
<g id="node1" class="node">
<title>Node1</title>
<g id="a_node1"><a xlink:title=" ">
<polygon fill="#bfbfbf" stroke="black" points="0,-56.5 0,-75.5 136,-75.5 136,-56.5 0,-56.5"/>
<text text-anchor="middle" x="68" y="-63.5" font-family="Helvetica,sans-Serif" font-size="10.00">Deriv_Champ_Don_base</text>
</a>
</g>
</g>
<!-- Node6 -->
<g id="node6" class="node">
<title>Node6</title>
<g id="a_node6"><a xlink:href="classChamp__Don.html" target="_top" xlink:title="classe Champ_Don Classe generique de la hierarchie des champs donnes, un objet Champ_Don peut referen...">
<polygon fill="white" stroke="black" points="30,-0.5 30,-19.5 106,-19.5 106,-0.5 30,-0.5"/>
<text text-anchor="middle" x="68" y="-7.5" font-family="Helvetica,sans-Serif" font-size="10.00">Champ_Don</text>
</a>
</g>
</g>
<!-- Node1&#45;&gt;Node6 -->
<g id="edge5" class="edge">
<title>Node1&#45;&gt;Node6</title>
<path fill="none" stroke="midnightblue" d="M68,-45.8C68,-36.91 68,-26.78 68,-19.75"/>
<polygon fill="midnightblue" stroke="midnightblue" points="64.5,-46.08 68,-56.08 71.5,-46.08 64.5,-46.08"/>
</g>
<!-- Node2 -->
<g id="node2" class="node">
<title>Node2</title>
<g id="a_node2"><a xlink:href="classDeriv__.html" target="_top" xlink:title="Type de base de tous les types DERIV(TYPE). La classe est vide, elle sert de couche intermediaire pou...">
<polygon fill="white" stroke="black" points="44,-112.5 44,-131.5 92,-131.5 92,-112.5 44,-112.5"/>
<text text-anchor="middle" x="68" y="-119.5" font-family="Helvetica,sans-Serif" font-size="10.00">Deriv_</text>
</a>
</g>
</g>
<!-- Node2&#45;&gt;Node1 -->
<g id="edge1" class="edge">
<title>Node2&#45;&gt;Node1</title>
<path fill="none" stroke="midnightblue" d="M68,-101.8C68,-92.91 68,-82.78 68,-75.75"/>
<polygon fill="midnightblue" stroke="midnightblue" points="64.5,-102.08 68,-112.08 71.5,-102.08 64.5,-102.08"/>
</g>
<!-- Node3 -->
<g id="node3" class="node">
<title>Node3</title>
<g id="a_node3"><a xlink:href="classO__U__Ptr.html" target="_top" xlink:title="Pointeur sur un Objet_U. Le constructeur par defaut construit un pointeur &quot;nul&quot;. O_U_Ptr_H.">
<polygon fill="white" stroke="black" points="40,-168.5 40,-187.5 96,-187.5 96,-168.5 40,-168.5"/>
<text text-anchor="middle" x="68" y="-175.5" font-family="Helvetica,sans-Serif" font-size="10.00">O_U_Ptr</text>
</a>
</g>
</g>
<!-- Node3&#45;&gt;Node2 -->
<g id="edge2" class="edge">
<title>Node3&#45;&gt;Node2</title>
<path fill="none" stroke="midnightblue" d="M68,-157.8C68,-148.91 68,-138.78 68,-131.75"/>
<polygon fill="midnightblue" stroke="midnightblue" points="64.5,-158.08 68,-168.08 71.5,-158.08 64.5,-158.08"/>
</g>
<!-- Node4 -->
<g id="node4" class="node">
<title>Node4</title>
<g id="a_node4"><a xlink:href="classObjet__U.html" target="_top" xlink:title="classe Objet_U Cette classe est la classe de base des Objets de TRUST Dans les classes derivees de Ob...">
<polygon fill="white" stroke="black" points="40,-224.5 40,-243.5 96,-243.5 96,-224.5 40,-224.5"/>
<text text-anchor="middle" x="68" y="-231.5" font-family="Helvetica,sans-Serif" font-size="10.00">Objet_U</text>
</a>
</g>
</g>
<!-- Node4&#45;&gt;Node3 -->
<g id="edge3" class="edge">
<title>Node4&#45;&gt;Node3</title>
<path fill="none" stroke="midnightblue" d="M68,-213.8C68,-204.91 68,-194.78 68,-187.75"/>
<polygon fill="midnightblue" stroke="midnightblue" points="64.5,-214.08 68,-224.08 71.5,-214.08 64.5,-214.08"/>
</g>
<!-- Node5 -->
<g id="node5" class="node">
<title>Node5</title>
<g id="a_node5"><a xlink:href="classProcess.html" target="_top" xlink:title="Classe de base de TRUST (notamment Objet_U). Elle fournit quelques services de base accessibles de pa...">
<polygon fill="white" stroke="black" points="41,-280.5 41,-299.5 95,-299.5 95,-280.5 41,-280.5"/>
<text text-anchor="middle" x="68" y="-287.5" font-family="Helvetica,sans-Serif" font-size="10.00">Process</text>
</a>
</g>
</g>
<!-- Node5&#45;&gt;Node4 -->
<g id="edge4" class="edge">
<title>Node5&#45;&gt;Node4</title>
<path fill="none" stroke="midnightblue" d="M68,-269.8C68,-260.91 68,-250.78 68,-243.75"/>
<polygon fill="midnightblue" stroke="midnightblue" points="64.5,-270.08 68,-280.08 71.5,-270.08 64.5,-270.08"/>
</g>
</g>
</svg>
