<?xml version="1.0" encoding="UTF-8" standalone="no"?>
<!DOCTYPE svg PUBLIC "-//W3C//DTD SVG 1.1//EN"
 "http://www.w3.org/Graphics/SVG/1.1/DTD/svg11.dtd">
<!-- Generated by graphviz version 2.43.0 (0)
 -->
<!-- Title: Champ_Fonc_Q1_base Pages: 1 -->
<svg width="548pt" height="431pt"
 viewBox="0.00 0.00 547.50 431.00" xmlns="http://www.w3.org/2000/svg" xmlns:xlink="http://www.w3.org/1999/xlink">
<g id="graph0" class="graph" transform="scale(1 1) rotate(0) translate(4 427)">
<title>Champ_Fonc_Q1_base</title>
<polygon fill="white" stroke="transparent" points="-4,4 -4,-427 543.5,-427 543.5,4 -4,4"/>
<!-- Node1 -->
<g id="node1" class="node">
<title>Node1</title>
<g id="a_node1"><a xlink:title=": class Champ_Fonc_Q1_base Decrire ici la classe Champ_Fonc_Q1_base">
<polygon fill="#bfbfbf" stroke="black" points="203.5,-56.5 203.5,-75.5 329.5,-75.5 329.5,-56.5 203.5,-56.5"/>
<text text-anchor="middle" x="266.5" y="-63.5" font-family="Helvetica,sans-Serif" font-size="10.00">Champ_Fonc_Q1_base</text>
</a>
</g>
</g>
<!-- Node12 -->
<g id="node12" class="node">
<title>Node12</title>
<g id="a_node12"><a xlink:href="classChamp__Fonc__Q1__EF.html" target="_top" xlink:title=" ">
<polygon fill="white" stroke="black" points="0,-0.5 0,-19.5 115,-19.5 115,-0.5 0,-0.5"/>
<text text-anchor="middle" x="57.5" y="-7.5" font-family="Helvetica,sans-Serif" font-size="10.00">Champ_Fonc_Q1_EF</text>
</a>
</g>
</g>
<!-- Node1&#45;&gt;Node12 -->
<g id="edge11" class="edge">
<title>Node1&#45;&gt;Node12</title>
<path fill="none" stroke="midnightblue" d="M223.52,-53.89C184.05,-43.7 126.4,-28.8 90.46,-19.52"/>
<polygon fill="midnightblue" stroke="midnightblue" points="222.83,-57.33 233.38,-56.44 224.58,-50.55 222.83,-57.33"/>
</g>
<!-- Node13 -->
<g id="node13" class="node">
<title>Node13</title>
<g id="a_node13"><a xlink:href="classChamp__Fonc__Q1__MED.html" target="_top" xlink:title="classe Champ_Fonc_Q1_MED permet de faire un champ P1 pour le post med">
<polygon fill="white" stroke="black" points="133,-0.5 133,-19.5 258,-19.5 258,-0.5 133,-0.5"/>
<text text-anchor="middle" x="195.5" y="-7.5" font-family="Helvetica,sans-Serif" font-size="10.00">Champ_Fonc_Q1_MED</text>
</a>
</g>
</g>
<!-- Node1&#45;&gt;Node13 -->
<g id="edge12" class="edge">
<title>Node1&#45;&gt;Node13</title>
<path fill="none" stroke="midnightblue" d="M246.91,-50.1C234.13,-40.38 217.89,-28.03 207.11,-19.83"/>
<polygon fill="midnightblue" stroke="midnightblue" points="245.01,-53.06 255.09,-56.32 249.25,-47.48 245.01,-53.06"/>
</g>
<!-- Node14 -->
<g id="node14" class="node">
<title>Node14</title>
<g id="a_node14"><a xlink:href="classChamp__Fonc__Q1__VDF.html" target="_top" xlink:title=" ">
<polygon fill="white" stroke="black" points="276,-0.5 276,-19.5 399,-19.5 399,-0.5 276,-0.5"/>
<text text-anchor="middle" x="337.5" y="-7.5" font-family="Helvetica,sans-Serif" font-size="10.00">Champ_Fonc_Q1_VDF</text>
</a>
</g>
</g>
<!-- Node1&#45;&gt;Node14 -->
<g id="edge13" class="edge">
<title>Node1&#45;&gt;Node14</title>
<path fill="none" stroke="midnightblue" d="M286.09,-50.1C298.87,-40.38 315.11,-28.03 325.89,-19.83"/>
<polygon fill="midnightblue" stroke="midnightblue" points="283.75,-47.48 277.91,-56.32 287.99,-53.06 283.75,-47.48"/>
</g>
<!-- Node15 -->
<g id="node15" class="node">
<title>Node15</title>
<g id="a_node15"><a xlink:href="classChamp__Fonc__Q1__VEF.html" target="_top" xlink:title=" ">
<polygon fill="white" stroke="black" points="417.5,-0.5 417.5,-19.5 539.5,-19.5 539.5,-0.5 417.5,-0.5"/>
<text text-anchor="middle" x="478.5" y="-7.5" font-family="Helvetica,sans-Serif" font-size="10.00">Champ_Fonc_Q1_VEF</text>
</a>
</g>
</g>
<!-- Node1&#45;&gt;Node15 -->
<g id="edge14" class="edge">
<title>Node1&#45;&gt;Node15</title>
<path fill="none" stroke="midnightblue" d="M309.85,-53.96C349.89,-43.76 408.53,-28.82 445.07,-19.52"/>
<polygon fill="midnightblue" stroke="midnightblue" points="308.92,-50.58 300.09,-56.44 310.65,-57.37 308.92,-50.58"/>
</g>
<!-- Node2 -->
<g id="node2" class="node">
<title>Node2</title>
<g id="a_node2"><a xlink:href="classChamp__Fonc__base.html" target="_top" xlink:title="classe Champ_Fonc_base Classe de base des champs qui sont fonction d&#39;une grandeur calculee au cours d...">
<polygon fill="white" stroke="black" points="139,-112.5 139,-131.5 246,-131.5 246,-112.5 139,-112.5"/>
<text text-anchor="middle" x="192.5" y="-119.5" font-family="Helvetica,sans-Serif" font-size="10.00">Champ_Fonc_base</text>
</a>
</g>
</g>
<!-- Node2&#45;&gt;Node1 -->
<g id="edge1" class="edge">
<title>Node2&#45;&gt;Node1</title>
<path fill="none" stroke="midnightblue" d="M212.53,-106.38C225.91,-96.62 243.06,-84.11 254.39,-75.83"/>
<polygon fill="midnightblue" stroke="midnightblue" points="210.4,-103.6 204.39,-112.32 214.53,-109.26 210.4,-103.6"/>
</g>
<!-- Node3 -->
<g id="node3" class="node">
<title>Node3</title>
<g id="a_node3"><a xlink:href="classChamp__Don__base.html" target="_top" xlink:title=" ">
<polygon fill="white" stroke="black" points="140.5,-174 140.5,-193 244.5,-193 244.5,-174 140.5,-174"/>
<text text-anchor="middle" x="192.5" y="-181" font-family="Helvetica,sans-Serif" font-size="10.00">Champ_Don_base</text>
</a>
</g>
</g>
<!-- Node3&#45;&gt;Node2 -->
<g id="edge2" class="edge">
<title>Node3&#45;&gt;Node2</title>
<path fill="none" stroke="midnightblue" d="M192.5,-163.82C192.5,-153 192.5,-139.9 192.5,-131.51"/>
<polygon fill="midnightblue" stroke="midnightblue" points="189,-163.98 192.5,-173.98 196,-163.98 189,-163.98"/>
</g>
<!-- Node4 -->
<g id="node4" class="node">
<title>Node4</title>
<g id="a_node4"><a xlink:href="classChamp__base.html" target="_top" xlink:title="classe Champ_base Cette classe est la base de la hierarchie des champs. Ses membres sont les attribut...">
<polygon fill="white" stroke="black" points="152.5,-235.5 152.5,-254.5 232.5,-254.5 232.5,-235.5 152.5,-235.5"/>
<text text-anchor="middle" x="192.5" y="-242.5" font-family="Helvetica,sans-Serif" font-size="10.00">Champ_base</text>
</a>
</g>
</g>
<!-- Node4&#45;&gt;Node3 -->
<g id="edge3" class="edge">
<title>Node4&#45;&gt;Node3</title>
<path fill="none" stroke="midnightblue" d="M192.5,-225.32C192.5,-214.5 192.5,-201.4 192.5,-193.01"/>
<polygon fill="midnightblue" stroke="midnightblue" points="189,-225.48 192.5,-235.48 196,-225.48 189,-225.48"/>
</g>
<!-- Node5 -->
<g id="node5" class="node">
<title>Node5</title>
<g id="a_node5"><a xlink:href="classField__base.html" target="_top" xlink:title=" ">
<polygon fill="white" stroke="black" points="112.5,-291.5 112.5,-310.5 180.5,-310.5 180.5,-291.5 112.5,-291.5"/>
<text text-anchor="middle" x="146.5" y="-298.5" font-family="Helvetica,sans-Serif" font-size="10.00">Field_base</text>
</a>
</g>
</g>
<!-- Node5&#45;&gt;Node4 -->
<g id="edge4" class="edge">
<title>Node5&#45;&gt;Node4</title>
<path fill="none" stroke="midnightblue" d="M160.61,-283.43C168.68,-273.97 178.46,-262.48 185.05,-254.75"/>
<polygon fill="midnightblue" stroke="midnightblue" points="157.92,-281.2 154.1,-291.08 163.25,-285.74 157.92,-281.2"/>
</g>
<!-- Node6 -->
<g id="node6" class="node">
<title>Node6</title>
<g id="a_node6"><a xlink:href="classObjet__U.html" target="_top" xlink:title="classe Objet_U Cette classe est la classe de base des Objets de TRUST Dans les classes derivees de Ob...">
<polygon fill="white" stroke="black" points="118.5,-347.5 118.5,-366.5 174.5,-366.5 174.5,-347.5 118.5,-347.5"/>
<text text-anchor="middle" x="146.5" y="-354.5" font-family="Helvetica,sans-Serif" font-size="10.00">Objet_U</text>
</a>
</g>
</g>
<!-- Node6&#45;&gt;Node5 -->
<g id="edge5" class="edge">
<title>Node6&#45;&gt;Node5</title>
<path fill="none" stroke="midnightblue" d="M146.5,-336.8C146.5,-327.91 146.5,-317.78 146.5,-310.75"/>
<polygon fill="midnightblue" stroke="midnightblue" points="143,-337.08 146.5,-347.08 150,-337.08 143,-337.08"/>
</g>
<!-- Node7 -->
<g id="node7" class="node">
<title>Node7</title>
<g id="a_node7"><a xlink:href="classProcess.html" target="_top" xlink:title="Classe de base de TRUST (notamment Objet_U). Elle fournit quelques services de base accessibles de pa...">
<polygon fill="white" stroke="black" points="119.5,-403.5 119.5,-422.5 173.5,-422.5 173.5,-403.5 119.5,-403.5"/>
<text text-anchor="middle" x="146.5" y="-410.5" font-family="Helvetica,sans-Serif" font-size="10.00">Process</text>
</a>
</g>
</g>
<!-- Node7&#45;&gt;Node6 -->
<g id="edge6" class="edge">
<title>Node7&#45;&gt;Node6</title>
<path fill="none" stroke="midnightblue" d="M146.5,-392.8C146.5,-383.91 146.5,-373.78 146.5,-366.75"/>
<polygon fill="midnightblue" stroke="midnightblue" points="143,-393.08 146.5,-403.08 150,-393.08 143,-393.08"/>
</g>
<!-- Node8 -->
<g id="node8" class="node">
<title>Node8</title>
<g id="a_node8"><a xlink:href="classChamp__Proto.html" target="_top" xlink:title="classe Champ_Proto Classe representant un prototype de Champ. Tous les classes representant des champ...">
<polygon fill="white" stroke="black" points="198.5,-291.5 198.5,-310.5 280.5,-310.5 280.5,-291.5 198.5,-291.5"/>
<text text-anchor="middle" x="239.5" y="-298.5" font-family="Helvetica,sans-Serif" font-size="10.00">Champ_Proto</text>
</a>
</g>
</g>
<!-- Node8&#45;&gt;Node4 -->
<g id="edge7" class="edge">
<title>Node8&#45;&gt;Node4</title>
<path fill="none" stroke="midnightblue" d="M225.08,-283.43C216.84,-273.97 206.85,-262.48 200.12,-254.75"/>
<polygon fill="midnightblue" stroke="midnightblue" points="222.53,-285.84 231.74,-291.08 227.81,-281.24 222.53,-285.84"/>
</g>
<!-- Node9 -->
<g id="node9" class="node">
<title>Node9</title>
<g id="a_node9"><a xlink:href="classChamp__implementation__Q1.html" target="_top" xlink:title=": class Champ_implementation_Q1 Decrire ici la classe Champ_implementation_Q1">
<polygon fill="white" stroke="black" points="264,-112.5 264,-131.5 417,-131.5 417,-112.5 264,-112.5"/>
<text text-anchor="middle" x="340.5" y="-119.5" font-family="Helvetica,sans-Serif" font-size="10.00">Champ_implementation_Q1</text>
</a>
</g>
</g>
<!-- Node9&#45;&gt;Node1 -->
<g id="edge8" class="edge">
<title>Node9&#45;&gt;Node1</title>
<path fill="none" stroke="midnightblue" d="M320.47,-106.38C307.09,-96.62 289.94,-84.11 278.61,-75.83"/>
<polygon fill="midnightblue" stroke="midnightblue" points="318.47,-109.26 328.61,-112.32 322.6,-103.6 318.47,-109.26"/>
</g>
<!-- Node10 -->
<g id="node10" class="node">
<title>Node10</title>
<g id="a_node10"><a xlink:href="classChamp__implementation__sommet__base.html" target="_top" xlink:title=": class Champ_implementation_sommet_base Decrire ici la classe Champ_implementation_sommet_base">
<polygon fill="white" stroke="black" points="273.5,-168.5 273.5,-198.5 407.5,-198.5 407.5,-168.5 273.5,-168.5"/>
<text text-anchor="start" x="281.5" y="-186.5" font-family="Helvetica,sans-Serif" font-size="10.00">Champ_implementation</text>
<text text-anchor="middle" x="340.5" y="-175.5" font-family="Helvetica,sans-Serif" font-size="10.00">_sommet_base</text>
</a>
</g>
</g>
<!-- Node10&#45;&gt;Node9 -->
<g id="edge9" class="edge">
<title>Node10&#45;&gt;Node9</title>
<path fill="none" stroke="midnightblue" d="M340.5,-158.29C340.5,-148.86 340.5,-138.65 340.5,-131.66"/>
<polygon fill="midnightblue" stroke="midnightblue" points="337,-158.4 340.5,-168.4 344,-158.4 337,-158.4"/>
</g>
<!-- Node11 -->
<g id="node11" class="node">
<title>Node11</title>
<g id="a_node11"><a xlink:href="classChamp__implementation__base.html" target="_top" xlink:title=": class Champ_implementation_base Decrire ici la classe Champ_implementation_base">
<polygon fill="white" stroke="black" points="259,-235.5 259,-254.5 422,-254.5 422,-235.5 259,-235.5"/>
<text text-anchor="middle" x="340.5" y="-242.5" font-family="Helvetica,sans-Serif" font-size="10.00">Champ_implementation_base</text>
</a>
</g>
</g>
<!-- Node11&#45;&gt;Node10 -->
<g id="edge10" class="edge">
<title>Node11&#45;&gt;Node10</title>
<path fill="none" stroke="midnightblue" d="M340.5,-225.23C340.5,-216.59 340.5,-206.5 340.5,-198.52"/>
<polygon fill="midnightblue" stroke="midnightblue" points="337,-225.48 340.5,-235.48 344,-225.48 337,-225.48"/>
</g>
</g>
</svg>
