<?xml version="1.0" encoding="UTF-8" standalone="no"?>
<!DOCTYPE svg PUBLIC "-//W3C//DTD SVG 1.1//EN"
 "http://www.w3.org/Graphics/SVG/1.1/DTD/svg11.dtd">
<!-- Generated by graphviz version 2.43.0 (0)
 -->
<!-- Title: Milieu_base Pages: 1 -->
<svg width="914pt" height="218pt"
 viewBox="0.00 0.00 914.00 218.00" xmlns="http://www.w3.org/2000/svg" xmlns:xlink="http://www.w3.org/1999/xlink">
<g id="graph0" class="graph" transform="scale(1 1) rotate(0) translate(4 214)">
<title>Milieu_base</title>
<polygon fill="white" stroke="transparent" points="-4,4 -4,-214 910,-214 910,4 -4,4"/>
<!-- Node1 -->
<g id="node1" class="node">
<title>Node1</title>
<g id="a_node1"><a xlink:title="classe Milieu_base Cette classe est la base de la hierarchie des milieux (physiques) Elle regroupe le...">
<polygon fill="#bfbfbf" stroke="black" points="275,-95.5 275,-114.5 350,-114.5 350,-95.5 275,-95.5"/>
<text text-anchor="middle" x="312.5" y="-102.5" font-family="Helvetica,sans-Serif" font-size="10.00">Milieu_base</text>
</a>
</g>
</g>
<!-- Node5 -->
<g id="node5" class="node">
<title>Node5</title>
<g id="a_node5"><a xlink:href="classConstituant.html" target="_top" xlink:title="classe Constituant Cette classe represente le(s) constituant(s) d&#39;un fluide. Elle contient un champ a...">
<polygon fill="white" stroke="black" points="387,-133.5 387,-152.5 460,-152.5 460,-133.5 387,-133.5"/>
<text text-anchor="middle" x="423.5" y="-140.5" font-family="Helvetica,sans-Serif" font-size="10.00">Constituant</text>
</a>
</g>
</g>
<!-- Node1&#45;&gt;Node5 -->
<g id="edge4" class="edge">
<title>Node1&#45;&gt;Node5</title>
<path fill="none" stroke="midnightblue" d="M350.71,-117.97C365.23,-123.03 381.58,-128.73 395,-133.41"/>
<polygon fill="midnightblue" stroke="midnightblue" points="351.6,-114.58 341.01,-114.59 349.3,-121.19 351.6,-114.58"/>
</g>
<!-- Node6 -->
<g id="node6" class="node">
<title>Node6</title>
<g id="a_node6"><a xlink:href="classFluide__base.html" target="_top" xlink:title="classe Fluide_base Cette classe represente un d&#39;un fluide incompressible ainsi que ses proprietes: &#45; ...">
<polygon fill="white" stroke="black" points="386,-95.5 386,-114.5 461,-114.5 461,-95.5 386,-95.5"/>
<text text-anchor="middle" x="423.5" y="-102.5" font-family="Helvetica,sans-Serif" font-size="10.00">Fluide_base</text>
</a>
</g>
</g>
<!-- Node1&#45;&gt;Node6 -->
<g id="edge5" class="edge">
<title>Node1&#45;&gt;Node6</title>
<path fill="none" stroke="midnightblue" d="M360.32,-105C368.85,-105 377.63,-105 385.81,-105"/>
<polygon fill="midnightblue" stroke="midnightblue" points="360.1,-101.5 350.1,-105 360.1,-108.5 360.1,-101.5"/>
</g>
<!-- Node18 -->
<g id="node18" class="node">
<title>Node18</title>
<g id="a_node18"><a xlink:href="classSolide.html" target="_top" xlink:title="Classe Solide Cette classe represente un milieu solide et ses proprietes.">
<polygon fill="white" stroke="black" points="400,-57.5 400,-76.5 447,-76.5 447,-57.5 400,-57.5"/>
<text text-anchor="middle" x="423.5" y="-64.5" font-family="Helvetica,sans-Serif" font-size="10.00">Solide</text>
</a>
</g>
</g>
<!-- Node1&#45;&gt;Node18 -->
<g id="edge17" class="edge">
<title>Node1&#45;&gt;Node18</title>
<path fill="none" stroke="midnightblue" d="M350.79,-92C367.06,-86.33 385.62,-79.86 399.78,-74.92"/>
<polygon fill="midnightblue" stroke="midnightblue" points="349.3,-88.81 341.01,-95.41 351.6,-95.42 349.3,-88.81"/>
</g>
<!-- Node2 -->
<g id="node2" class="node">
<title>Node2</title>
<g id="a_node2"><a xlink:href="classChamps__compris__interface.html" target="_top" xlink:title="classe Champs_compris_interface Cette classe contient une interface de methodes destinees a gerer les...">
<polygon fill="white" stroke="black" points="90,-114.5 90,-133.5 239,-133.5 239,-114.5 90,-114.5"/>
<text text-anchor="middle" x="164.5" y="-121.5" font-family="Helvetica,sans-Serif" font-size="10.00">Champs_compris_interface</text>
</a>
</g>
</g>
<!-- Node2&#45;&gt;Node1 -->
<g id="edge1" class="edge">
<title>Node2&#45;&gt;Node1</title>
<path fill="none" stroke="midnightblue" d="M248.86,-113.15C257.95,-111.97 266.83,-110.81 274.91,-109.76"/>
<polygon fill="midnightblue" stroke="midnightblue" points="248.39,-109.68 238.93,-114.44 249.3,-116.62 248.39,-109.68"/>
</g>
<!-- Node3 -->
<g id="node3" class="node">
<title>Node3</title>
<g id="a_node3"><a xlink:href="classObjet__U.html" target="_top" xlink:title="classe Objet_U Cette classe est la classe de base des Objets de TRUST Dans les classes derivees de Ob...">
<polygon fill="white" stroke="black" points="136.5,-76.5 136.5,-95.5 192.5,-95.5 192.5,-76.5 136.5,-76.5"/>
<text text-anchor="middle" x="164.5" y="-83.5" font-family="Helvetica,sans-Serif" font-size="10.00">Objet_U</text>
</a>
</g>
</g>
<!-- Node3&#45;&gt;Node1 -->
<g id="edge2" class="edge">
<title>Node3&#45;&gt;Node1</title>
<path fill="none" stroke="midnightblue" d="M202.66,-90.84C224.82,-93.72 252.83,-97.36 274.89,-100.24"/>
<polygon fill="midnightblue" stroke="midnightblue" points="202.99,-87.35 192.62,-89.53 202.08,-94.29 202.99,-87.35"/>
</g>
<!-- Node4 -->
<g id="node4" class="node">
<title>Node4</title>
<g id="a_node4"><a xlink:href="classProcess.html" target="_top" xlink:title="Classe de base de TRUST (notamment Objet_U). Elle fournit quelques services de base accessibles de pa...">
<polygon fill="white" stroke="black" points="0,-76.5 0,-95.5 54,-95.5 54,-76.5 0,-76.5"/>
<text text-anchor="middle" x="27" y="-83.5" font-family="Helvetica,sans-Serif" font-size="10.00">Process</text>
</a>
</g>
</g>
<!-- Node4&#45;&gt;Node3 -->
<g id="edge3" class="edge">
<title>Node4&#45;&gt;Node3</title>
<path fill="none" stroke="midnightblue" d="M64.34,-86C86.89,-86 115.4,-86 136.06,-86"/>
<polygon fill="midnightblue" stroke="midnightblue" points="64.13,-82.5 54.13,-86 64.13,-89.5 64.13,-82.5"/>
</g>
<!-- Node7 -->
<g id="node7" class="node">
<title>Node7</title>
<g id="a_node7"><a xlink:href="classFluide__Dilatable__base.html" target="_top" xlink:title="classe Fluide_Dilatable_base Cette classe represente un d&#39;un fluide dilatable, heritant de fluide bas...">
<polygon fill="white" stroke="black" points="497.5,-152.5 497.5,-171.5 622.5,-171.5 622.5,-152.5 497.5,-152.5"/>
<text text-anchor="middle" x="560" y="-159.5" font-family="Helvetica,sans-Serif" font-size="10.00">Fluide_Dilatable_base</text>
</a>
</g>
</g>
<!-- Node6&#45;&gt;Node7 -->
<g id="edge6" class="edge">
<title>Node6&#45;&gt;Node7</title>
<path fill="none" stroke="midnightblue" d="M452.01,-119.3C455.05,-120.88 458.09,-122.47 461,-124 477.02,-132.4 480.28,-136.1 497,-143 505.53,-146.52 514.96,-149.74 523.83,-152.48"/>
<polygon fill="midnightblue" stroke="midnightblue" points="453.56,-116.16 443.08,-114.65 450.33,-122.37 453.56,-116.16"/>
</g>
<!-- Node11 -->
<g id="node11" class="node">
<title>Node11</title>
<g id="a_node11"><a xlink:href="classFluide__Incompressible.html" target="_top" xlink:title="classe Fluide_Incompressible Cette classe represente un d&#39;un fluide incompressible ainsi que ses prop...">
<polygon fill="white" stroke="black" points="497,-114.5 497,-133.5 623,-133.5 623,-114.5 497,-114.5"/>
<text text-anchor="middle" x="560" y="-121.5" font-family="Helvetica,sans-Serif" font-size="10.00">Fluide_Incompressible</text>
</a>
</g>
</g>
<!-- Node6&#45;&gt;Node11 -->
<g id="edge10" class="edge">
<title>Node6&#45;&gt;Node11</title>
<path fill="none" stroke="midnightblue" d="M471.42,-111.63C479.66,-112.79 488.36,-114.02 496.94,-115.23"/>
<polygon fill="midnightblue" stroke="midnightblue" points="471.64,-108.13 461.25,-110.19 470.66,-115.06 471.64,-108.13"/>
</g>
<!-- Node13 -->
<g id="node13" class="node">
<title>Node13</title>
<g id="a_node13"><a xlink:href="classFluide__reel__base.html" target="_top" xlink:title="Classe Fluide_reel_base Cette classe represente un fluide reel ainsi que ses proprietes: &#45; viscosite ...">
<polygon fill="white" stroke="black" points="510.5,-76.5 510.5,-95.5 609.5,-95.5 609.5,-76.5 510.5,-76.5"/>
<text text-anchor="middle" x="560" y="-83.5" font-family="Helvetica,sans-Serif" font-size="10.00">Fluide_reel_base</text>
</a>
</g>
</g>
<!-- Node6&#45;&gt;Node13 -->
<g id="edge12" class="edge">
<title>Node6&#45;&gt;Node13</title>
<path fill="none" stroke="midnightblue" d="M471.48,-98.36C484.01,-96.59 497.56,-94.68 510.18,-92.9"/>
<polygon fill="midnightblue" stroke="midnightblue" points="470.66,-94.94 461.25,-99.81 471.64,-101.87 470.66,-94.94"/>
</g>
<!-- Node17 -->
<g id="node17" class="node">
<title>Node17</title>
<g id="a_node17"><a xlink:href="classMilieu__composite.html" target="_top" xlink:title="Classe Milieu_composite Cette classe represente un fluide reel ainsi que ses proprietes: &#45; viscosite ...">
<polygon fill="white" stroke="black" points="508.5,-38.5 508.5,-57.5 611.5,-57.5 611.5,-38.5 508.5,-38.5"/>
<text text-anchor="middle" x="560" y="-45.5" font-family="Helvetica,sans-Serif" font-size="10.00">Milieu_composite</text>
</a>
</g>
</g>
<!-- Node6&#45;&gt;Node17 -->
<g id="edge16" class="edge">
<title>Node6&#45;&gt;Node17</title>
<path fill="none" stroke="midnightblue" d="M452.01,-90.7C455.05,-89.12 458.09,-87.53 461,-86 477.02,-77.6 480.28,-73.9 497,-67 505.53,-63.48 514.96,-60.26 523.83,-57.52"/>
<polygon fill="midnightblue" stroke="midnightblue" points="450.33,-87.63 443.08,-95.35 453.56,-93.84 450.33,-87.63"/>
</g>
<!-- Node8 -->
<g id="node8" class="node">
<title>Node8</title>
<g id="a_node8"><a xlink:href="classFluide__Quasi__Compressible.html" target="_top" xlink:title="classe Fluide_Quasi_Compressible Cette classe represente un d&#39;un fluide quasi compressible c&#39;est a di...">
<polygon fill="white" stroke="black" points="663,-190.5 663,-209.5 815,-209.5 815,-190.5 663,-190.5"/>
<text text-anchor="middle" x="739" y="-197.5" font-family="Helvetica,sans-Serif" font-size="10.00">Fluide_Quasi_Compressible</text>
</a>
</g>
</g>
<!-- Node7&#45;&gt;Node8 -->
<g id="edge7" class="edge">
<title>Node7&#45;&gt;Node8</title>
<path fill="none" stroke="midnightblue" d="M615.74,-173.75C640.77,-179.13 670.03,-185.41 693.66,-190.48"/>
<polygon fill="midnightblue" stroke="midnightblue" points="616.18,-170.27 605.66,-171.59 614.71,-177.11 616.18,-170.27"/>
</g>
<!-- Node10 -->
<g id="node10" class="node">
<title>Node10</title>
<g id="a_node10"><a xlink:href="classFluide__Weakly__Compressible.html" target="_top" xlink:title="classe Fluide_Weakly_Compressible Cette classe represente un d&#39;un fluide faiblement compressible c&#39;es...">
<polygon fill="white" stroke="black" points="659,-152.5 659,-171.5 819,-171.5 819,-152.5 659,-152.5"/>
<text text-anchor="middle" x="739" y="-159.5" font-family="Helvetica,sans-Serif" font-size="10.00">Fluide_Weakly_Compressible</text>
</a>
</g>
</g>
<!-- Node7&#45;&gt;Node10 -->
<g id="edge9" class="edge">
<title>Node7&#45;&gt;Node10</title>
<path fill="none" stroke="midnightblue" d="M633.08,-162C641.52,-162 650.17,-162 658.71,-162"/>
<polygon fill="midnightblue" stroke="midnightblue" points="632.91,-158.5 622.91,-162 632.91,-165.5 632.91,-158.5"/>
</g>
<!-- Node9 -->
<g id="node9" class="node">
<title>Node9</title>
<g id="a_node9"><a xlink:href="classEspece.html" target="_top" xlink:title="classe Espece">
<polygon fill="white" stroke="black" points="855,-190.5 855,-209.5 906,-209.5 906,-190.5 855,-190.5"/>
<text text-anchor="middle" x="880.5" y="-197.5" font-family="Helvetica,sans-Serif" font-size="10.00">Espece</text>
</a>
</g>
</g>
<!-- Node8&#45;&gt;Node9 -->
<g id="edge8" class="edge">
<title>Node8&#45;&gt;Node9</title>
<path fill="none" stroke="midnightblue" d="M825.13,-200C835.98,-200 846.3,-200 854.98,-200"/>
<polygon fill="midnightblue" stroke="midnightblue" points="825.06,-196.5 815.06,-200 825.06,-203.5 825.06,-196.5"/>
</g>
<!-- Node12 -->
<g id="node12" class="node">
<title>Node12</title>
<g id="a_node12"><a xlink:href="classFluide__Ostwald.html" target="_top" xlink:title="class Fluide_Ostwald Possede les proprietes d&#39;un fluide incompressible plus: N : indice de structure ...">
<polygon fill="white" stroke="black" points="693,-114.5 693,-133.5 785,-133.5 785,-114.5 693,-114.5"/>
<text text-anchor="middle" x="739" y="-121.5" font-family="Helvetica,sans-Serif" font-size="10.00">Fluide_Ostwald</text>
</a>
</g>
</g>
<!-- Node11&#45;&gt;Node12 -->
<g id="edge11" class="edge">
<title>Node11&#45;&gt;Node12</title>
<path fill="none" stroke="midnightblue" d="M633.47,-124C653.56,-124 674.79,-124 692.84,-124"/>
<polygon fill="midnightblue" stroke="midnightblue" points="633.4,-120.5 623.4,-124 633.4,-127.5 633.4,-120.5"/>
</g>
<!-- Node14 -->
<g id="node14" class="node">
<title>Node14</title>
<g id="a_node14"><a xlink:href="classFluide__sodium__gaz.html" target="_top" xlink:title="Classe Fluide_sodium_gaz Cette classe represente un milieu reel dont les lois viennent de &quot;Lois_Na&quot;.">
<polygon fill="white" stroke="black" points="684,-76.5 684,-95.5 794,-95.5 794,-76.5 684,-76.5"/>
<text text-anchor="middle" x="739" y="-83.5" font-family="Helvetica,sans-Serif" font-size="10.00">Fluide_sodium_gaz</text>
</a>
</g>
</g>
<!-- Node13&#45;&gt;Node14 -->
<g id="edge13" class="edge">
<title>Node13&#45;&gt;Node14</title>
<path fill="none" stroke="midnightblue" d="M620.03,-86C640.6,-86 663.56,-86 683.72,-86"/>
<polygon fill="midnightblue" stroke="midnightblue" points="619.83,-82.5 609.83,-86 619.83,-89.5 619.83,-82.5"/>
</g>
<!-- Node15 -->
<g id="node15" class="node">
<title>Node15</title>
<g id="a_node15"><a xlink:href="classFluide__sodium__liquide.html" target="_top" xlink:title="Classe Fluide_sodium_liquide Cette classe represente un milieu reel dont les lois viennent de &quot;Lois_N...">
<polygon fill="white" stroke="black" points="676,-38.5 676,-57.5 802,-57.5 802,-38.5 676,-38.5"/>
<text text-anchor="middle" x="739" y="-45.5" font-family="Helvetica,sans-Serif" font-size="10.00">Fluide_sodium_liquide</text>
</a>
</g>
</g>
<!-- Node13&#45;&gt;Node15 -->
<g id="edge14" class="edge">
<title>Node13&#45;&gt;Node15</title>
<path fill="none" stroke="midnightblue" d="M615.74,-74.25C640.77,-68.87 670.03,-62.59 693.66,-57.52"/>
<polygon fill="midnightblue" stroke="midnightblue" points="614.71,-70.89 605.66,-76.41 616.18,-77.73 614.71,-70.89"/>
</g>
<!-- Node16 -->
<g id="node16" class="node">
<title>Node16</title>
<g id="a_node16"><a xlink:href="classStiffenedGas.html" target="_top" xlink:title=": Classe StiffenedGas Cette classe represente un milieu reel">
<polygon fill="white" stroke="black" points="699.5,-0.5 699.5,-19.5 778.5,-19.5 778.5,-0.5 699.5,-0.5"/>
<text text-anchor="middle" x="739" y="-7.5" font-family="Helvetica,sans-Serif" font-size="10.00">StiffenedGas</text>
</a>
</g>
</g>
<!-- Node13&#45;&gt;Node16 -->
<g id="edge15" class="edge">
<title>Node13&#45;&gt;Node16</title>
<path fill="none" stroke="midnightblue" d="M612.18,-72.69C615.95,-71 619.6,-69.11 623,-67 642.77,-54.74 638.86,-40.64 659,-29 671.21,-21.94 685.94,-17.5 699.35,-14.7"/>
<polygon fill="midnightblue" stroke="midnightblue" points="610.64,-69.53 602.65,-76.49 613.24,-76.03 610.64,-69.53"/>
</g>
</g>
</svg>
