<?xml version="1.0" encoding="UTF-8" standalone="no"?>
<!DOCTYPE svg PUBLIC "-//W3C//DTD SVG 1.1//EN"
 "http://www.w3.org/Graphics/SVG/1.1/DTD/svg11.dtd">
<!-- Generated by graphviz version 2.43.0 (0)
 -->
<!-- Title: Rectangle Pages: 1 -->
<svg width="216pt" height="252pt"
 viewBox="0.00 0.00 216.00 252.00" xmlns="http://www.w3.org/2000/svg" xmlns:xlink="http://www.w3.org/1999/xlink">
<g id="graph0" class="graph" transform="scale(1 1) rotate(0) translate(4 248)">
<title>Rectangle</title>
<polygon fill="white" stroke="transparent" points="-4,4 -4,-248 212,-248 212,4 -4,4"/>
<!-- Node1 -->
<g id="node1" class="node">
<title>Node1</title>
<g id="a_node1"><a xlink:title="Classe Rectangle Cette classe represente l&#39;element geometrique Rectangle. Un rectangle a 4 faces,...">
<polygon fill="#bfbfbf" stroke="black" points="75.5,-56.5 75.5,-75.5 140.5,-75.5 140.5,-56.5 75.5,-56.5"/>
<text text-anchor="middle" x="108" y="-63.5" font-family="Helvetica,sans-Serif" font-size="10.00">Rectangle</text>
</a>
</g>
</g>
<!-- Node5 -->
<g id="node5" class="node">
<title>Node5</title>
<g id="a_node5"><a xlink:href="classRectangle__2D__axi.html" target="_top" xlink:title="Classe Rectangle_axi Cette classe represente la deformee du rectangle dans le cas d&#39;un maillage en co...">
<polygon fill="white" stroke="black" points="0,-0.5 0,-19.5 104,-19.5 104,-0.5 0,-0.5"/>
<text text-anchor="middle" x="52" y="-7.5" font-family="Helvetica,sans-Serif" font-size="10.00">Rectangle_2D_axi</text>
</a>
</g>
</g>
<!-- Node1&#45;&gt;Node5 -->
<g id="edge4" class="edge">
<title>Node1&#45;&gt;Node5</title>
<path fill="none" stroke="midnightblue" d="M91.67,-49.25C81.74,-39.67 69.41,-27.79 61.16,-19.83"/>
<polygon fill="midnightblue" stroke="midnightblue" points="89.37,-51.9 99,-56.32 94.23,-46.86 89.37,-51.9"/>
</g>
<!-- Node6 -->
<g id="node6" class="node">
<title>Node6</title>
<g id="a_node6"><a xlink:href="classRectangle__axi.html" target="_top" xlink:title="Classe Rectangle_axi Cette classe represente la deformee du rectangle dans le cas d&#39;un maillage en co...">
<polygon fill="white" stroke="black" points="122,-0.5 122,-19.5 208,-19.5 208,-0.5 122,-0.5"/>
<text text-anchor="middle" x="165" y="-7.5" font-family="Helvetica,sans-Serif" font-size="10.00">Rectangle_axi</text>
</a>
</g>
</g>
<!-- Node1&#45;&gt;Node6 -->
<g id="edge5" class="edge">
<title>Node1&#45;&gt;Node6</title>
<path fill="none" stroke="midnightblue" d="M124.62,-49.25C134.73,-39.67 147.28,-27.79 155.68,-19.83"/>
<polygon fill="midnightblue" stroke="midnightblue" points="122.01,-46.91 117.16,-56.32 126.82,-51.99 122.01,-46.91"/>
</g>
<!-- Node2 -->
<g id="node2" class="node">
<title>Node2</title>
<g id="a_node2"><a xlink:href="classElem__geom__base.html" target="_top" xlink:title="Classe Elem_geom_base Cette classe est la classe de base pour la definition d&#39;elements geometriques c...">
<polygon fill="white" stroke="black" points="56.5,-112.5 56.5,-131.5 159.5,-131.5 159.5,-112.5 56.5,-112.5"/>
<text text-anchor="middle" x="108" y="-119.5" font-family="Helvetica,sans-Serif" font-size="10.00">Elem_geom_base</text>
</a>
</g>
</g>
<!-- Node2&#45;&gt;Node1 -->
<g id="edge1" class="edge">
<title>Node2&#45;&gt;Node1</title>
<path fill="none" stroke="midnightblue" d="M108,-101.8C108,-92.91 108,-82.78 108,-75.75"/>
<polygon fill="midnightblue" stroke="midnightblue" points="104.5,-102.08 108,-112.08 111.5,-102.08 104.5,-102.08"/>
</g>
<!-- Node3 -->
<g id="node3" class="node">
<title>Node3</title>
<g id="a_node3"><a xlink:href="classObjet__U.html" target="_top" xlink:title="classe Objet_U Cette classe est la classe de base des Objets de TRUST Dans les classes derivees de Ob...">
<polygon fill="white" stroke="black" points="80,-168.5 80,-187.5 136,-187.5 136,-168.5 80,-168.5"/>
<text text-anchor="middle" x="108" y="-175.5" font-family="Helvetica,sans-Serif" font-size="10.00">Objet_U</text>
</a>
</g>
</g>
<!-- Node3&#45;&gt;Node2 -->
<g id="edge2" class="edge">
<title>Node3&#45;&gt;Node2</title>
<path fill="none" stroke="midnightblue" d="M108,-157.8C108,-148.91 108,-138.78 108,-131.75"/>
<polygon fill="midnightblue" stroke="midnightblue" points="104.5,-158.08 108,-168.08 111.5,-158.08 104.5,-158.08"/>
</g>
<!-- Node4 -->
<g id="node4" class="node">
<title>Node4</title>
<g id="a_node4"><a xlink:href="classProcess.html" target="_top" xlink:title="Classe de base de TRUST (notamment Objet_U). Elle fournit quelques services de base accessibles de pa...">
<polygon fill="white" stroke="black" points="81,-224.5 81,-243.5 135,-243.5 135,-224.5 81,-224.5"/>
<text text-anchor="middle" x="108" y="-231.5" font-family="Helvetica,sans-Serif" font-size="10.00">Process</text>
</a>
</g>
</g>
<!-- Node4&#45;&gt;Node3 -->
<g id="edge3" class="edge">
<title>Node4&#45;&gt;Node3</title>
<path fill="none" stroke="midnightblue" d="M108,-213.8C108,-204.91 108,-194.78 108,-187.75"/>
<polygon fill="midnightblue" stroke="midnightblue" points="104.5,-214.08 108,-224.08 111.5,-214.08 104.5,-214.08"/>
</g>
</g>
</svg>
