<?xml version="1.0" encoding="UTF-8" standalone="no"?>
<!DOCTYPE svg PUBLIC "-//W3C//DTD SVG 1.1//EN"
 "http://www.w3.org/Graphics/SVG/1.1/DTD/svg11.dtd">
<!-- Generated by graphviz version 2.43.0 (0)
 -->
<!-- Title: Sortie_libre_Gradient_Pression_libre_VEFPreP1B Pages: 1 -->
<svg width="157pt" height="375pt"
 viewBox="0.00 0.00 157.00 375.00" xmlns="http://www.w3.org/2000/svg" xmlns:xlink="http://www.w3.org/1999/xlink">
<g id="graph0" class="graph" transform="scale(1 1) rotate(0) translate(4 371)">
<title>Sortie_libre_Gradient_Pression_libre_VEFPreP1B</title>
<polygon fill="white" stroke="transparent" points="-4,4 -4,-371 153,-371 153,4 -4,4"/>
<!-- Node1 -->
<g id="node1" class="node">
<title>Node1</title>
<g id="a_node1"><a xlink:title="Sortie_libre_Gradient_Pression_libre_VEFPreP1B Cette classe derive de la classe Neumann_sortie_libre ...">
<polygon fill="#bfbfbf" stroke="black" points="0,-0.5 0,-30.5 149,-30.5 149,-0.5 0,-0.5"/>
<text text-anchor="start" x="8" y="-18.5" font-family="Helvetica,sans-Serif" font-size="10.00">Sortie_libre_Gradient</text>
<text text-anchor="middle" x="74.5" y="-7.5" font-family="Helvetica,sans-Serif" font-size="10.00">_Pression_libre_VEFPreP1B</text>
</a>
</g>
</g>
<!-- Node2 -->
<g id="node2" class="node">
<title>Node2</title>
<g id="a_node2"><a xlink:href="classNeumann__sortie__libre.html" target="_top" xlink:title="classe Neumann_sortie_libre Cette classe represente une frontiere ouverte sans vitesse imposee Pour l...">
<polygon fill="white" stroke="black" points="12.5,-67.5 12.5,-86.5 136.5,-86.5 136.5,-67.5 12.5,-67.5"/>
<text text-anchor="middle" x="74.5" y="-74.5" font-family="Helvetica,sans-Serif" font-size="10.00">Neumann_sortie_libre</text>
</a>
</g>
</g>
<!-- Node2&#45;&gt;Node1 -->
<g id="edge1" class="edge">
<title>Node2&#45;&gt;Node1</title>
<path fill="none" stroke="midnightblue" d="M74.5,-57.23C74.5,-48.59 74.5,-38.5 74.5,-30.52"/>
<polygon fill="midnightblue" stroke="midnightblue" points="71,-57.48 74.5,-67.48 78,-57.48 71,-57.48"/>
</g>
<!-- Node3 -->
<g id="node3" class="node">
<title>Node3</title>
<g id="a_node3"><a xlink:href="classNeumann__val__ext.html" target="_top" xlink:title="Classe Neumann_val_ext Cette classe est la classe de base de la hierarchie des conditions aux limites...">
<polygon fill="white" stroke="black" points="22,-123.5 22,-142.5 127,-142.5 127,-123.5 22,-123.5"/>
<text text-anchor="middle" x="74.5" y="-130.5" font-family="Helvetica,sans-Serif" font-size="10.00">Neumann_val_ext</text>
</a>
</g>
</g>
<!-- Node3&#45;&gt;Node2 -->
<g id="edge2" class="edge">
<title>Node3&#45;&gt;Node2</title>
<path fill="none" stroke="midnightblue" d="M74.5,-112.8C74.5,-103.91 74.5,-93.78 74.5,-86.75"/>
<polygon fill="midnightblue" stroke="midnightblue" points="71,-113.08 74.5,-123.08 78,-113.08 71,-113.08"/>
</g>
<!-- Node4 -->
<g id="node4" class="node">
<title>Node4</title>
<g id="a_node4"><a xlink:href="classNeumann.html" target="_top" xlink:title="Classe Neumann Cette classe est la classe de base de la hierarchie des conditions aux limites de type...">
<polygon fill="white" stroke="black" points="42.5,-179.5 42.5,-198.5 106.5,-198.5 106.5,-179.5 42.5,-179.5"/>
<text text-anchor="middle" x="74.5" y="-186.5" font-family="Helvetica,sans-Serif" font-size="10.00">Neumann</text>
</a>
</g>
</g>
<!-- Node4&#45;&gt;Node3 -->
<g id="edge3" class="edge">
<title>Node4&#45;&gt;Node3</title>
<path fill="none" stroke="midnightblue" d="M74.5,-168.8C74.5,-159.91 74.5,-149.78 74.5,-142.75"/>
<polygon fill="midnightblue" stroke="midnightblue" points="71,-169.08 74.5,-179.08 78,-169.08 71,-169.08"/>
</g>
<!-- Node5 -->
<g id="node5" class="node">
<title>Node5</title>
<g id="a_node5"><a xlink:href="classCond__lim__base.html" target="_top" xlink:title="classe Cond_lim_base Classe de base pour la hierarchie des classes qui representent les differentes c...">
<polygon fill="white" stroke="black" points="29,-235.5 29,-254.5 120,-254.5 120,-235.5 29,-235.5"/>
<text text-anchor="middle" x="74.5" y="-242.5" font-family="Helvetica,sans-Serif" font-size="10.00">Cond_lim_base</text>
</a>
</g>
</g>
<!-- Node5&#45;&gt;Node4 -->
<g id="edge4" class="edge">
<title>Node5&#45;&gt;Node4</title>
<path fill="none" stroke="midnightblue" d="M74.5,-224.8C74.5,-215.91 74.5,-205.78 74.5,-198.75"/>
<polygon fill="midnightblue" stroke="midnightblue" points="71,-225.08 74.5,-235.08 78,-225.08 71,-225.08"/>
</g>
<!-- Node6 -->
<g id="node6" class="node">
<title>Node6</title>
<g id="a_node6"><a xlink:href="classObjet__U.html" target="_top" xlink:title="classe Objet_U Cette classe est la classe de base des Objets de TRUST Dans les classes derivees de Ob...">
<polygon fill="white" stroke="black" points="46.5,-291.5 46.5,-310.5 102.5,-310.5 102.5,-291.5 46.5,-291.5"/>
<text text-anchor="middle" x="74.5" y="-298.5" font-family="Helvetica,sans-Serif" font-size="10.00">Objet_U</text>
</a>
</g>
</g>
<!-- Node6&#45;&gt;Node5 -->
<g id="edge5" class="edge">
<title>Node6&#45;&gt;Node5</title>
<path fill="none" stroke="midnightblue" d="M74.5,-280.8C74.5,-271.91 74.5,-261.78 74.5,-254.75"/>
<polygon fill="midnightblue" stroke="midnightblue" points="71,-281.08 74.5,-291.08 78,-281.08 71,-281.08"/>
</g>
<!-- Node7 -->
<g id="node7" class="node">
<title>Node7</title>
<g id="a_node7"><a xlink:href="classProcess.html" target="_top" xlink:title="Classe de base de TRUST (notamment Objet_U). Elle fournit quelques services de base accessibles de pa...">
<polygon fill="white" stroke="black" points="47.5,-347.5 47.5,-366.5 101.5,-366.5 101.5,-347.5 47.5,-347.5"/>
<text text-anchor="middle" x="74.5" y="-354.5" font-family="Helvetica,sans-Serif" font-size="10.00">Process</text>
</a>
</g>
</g>
<!-- Node7&#45;&gt;Node6 -->
<g id="edge6" class="edge">
<title>Node7&#45;&gt;Node6</title>
<path fill="none" stroke="midnightblue" d="M74.5,-336.8C74.5,-327.91 74.5,-317.78 74.5,-310.75"/>
<polygon fill="midnightblue" stroke="midnightblue" points="71,-337.08 74.5,-347.08 78,-337.08 71,-337.08"/>
</g>
</g>
</svg>
