<?xml version="1.0" encoding="UTF-8" standalone="no"?>
<!DOCTYPE svg PUBLIC "-//W3C//DTD SVG 1.1//EN"
 "http://www.w3.org/Graphics/SVG/1.1/DTD/svg11.dtd">
<!-- Generated by graphviz version 2.43.0 (0)
 -->
<!-- Title: Sortie_libre_Text_H_ext Pages: 1 -->
<svg width="139pt" height="252pt"
 viewBox="0.00 0.00 139.00 252.00" xmlns="http://www.w3.org/2000/svg" xmlns:xlink="http://www.w3.org/1999/xlink">
<g id="graph0" class="graph" transform="scale(1 1) rotate(0) translate(4 248)">
<title>Sortie_libre_Text_H_ext</title>
<polygon fill="white" stroke="transparent" points="-4,4 -4,-248 135,-248 135,4 -4,4"/>
<!-- Node1 -->
<g id="node1" class="node">
<title>Node1</title>
<g id="a_node1"><a xlink:title="classe Neumann_sortie_libre Cette classe represente une frontiere ouverte sans vitesse imposee Pour l...">
<polygon fill="#bfbfbf" stroke="black" points="0,-0.5 0,-19.5 131,-19.5 131,-0.5 0,-0.5"/>
<text text-anchor="middle" x="65.5" y="-7.5" font-family="Helvetica,sans-Serif" font-size="10.00">Sortie_libre_Text_H_ext</text>
</a>
</g>
</g>
<!-- Node2 -->
<g id="node2" class="node">
<title>Node2</title>
<g id="a_node2"><a xlink:href="classNeumann.html" target="_top" xlink:title="Classe Neumann Cette classe est la classe de base de la hierarchie des conditions aux limites de type...">
<polygon fill="white" stroke="black" points="33.5,-56.5 33.5,-75.5 97.5,-75.5 97.5,-56.5 33.5,-56.5"/>
<text text-anchor="middle" x="65.5" y="-63.5" font-family="Helvetica,sans-Serif" font-size="10.00">Neumann</text>
</a>
</g>
</g>
<!-- Node2&#45;&gt;Node1 -->
<g id="edge1" class="edge">
<title>Node2&#45;&gt;Node1</title>
<path fill="none" stroke="midnightblue" d="M65.5,-45.8C65.5,-36.91 65.5,-26.78 65.5,-19.75"/>
<polygon fill="midnightblue" stroke="midnightblue" points="62,-46.08 65.5,-56.08 69,-46.08 62,-46.08"/>
</g>
<!-- Node3 -->
<g id="node3" class="node">
<title>Node3</title>
<g id="a_node3"><a xlink:href="classCond__lim__base.html" target="_top" xlink:title="classe Cond_lim_base Classe de base pour la hierarchie des classes qui representent les differentes c...">
<polygon fill="white" stroke="black" points="20,-112.5 20,-131.5 111,-131.5 111,-112.5 20,-112.5"/>
<text text-anchor="middle" x="65.5" y="-119.5" font-family="Helvetica,sans-Serif" font-size="10.00">Cond_lim_base</text>
</a>
</g>
</g>
<!-- Node3&#45;&gt;Node2 -->
<g id="edge2" class="edge">
<title>Node3&#45;&gt;Node2</title>
<path fill="none" stroke="midnightblue" d="M65.5,-101.8C65.5,-92.91 65.5,-82.78 65.5,-75.75"/>
<polygon fill="midnightblue" stroke="midnightblue" points="62,-102.08 65.5,-112.08 69,-102.08 62,-102.08"/>
</g>
<!-- Node4 -->
<g id="node4" class="node">
<title>Node4</title>
<g id="a_node4"><a xlink:href="classObjet__U.html" target="_top" xlink:title="classe Objet_U Cette classe est la classe de base des Objets de TRUST Dans les classes derivees de Ob...">
<polygon fill="white" stroke="black" points="37.5,-168.5 37.5,-187.5 93.5,-187.5 93.5,-168.5 37.5,-168.5"/>
<text text-anchor="middle" x="65.5" y="-175.5" font-family="Helvetica,sans-Serif" font-size="10.00">Objet_U</text>
</a>
</g>
</g>
<!-- Node4&#45;&gt;Node3 -->
<g id="edge3" class="edge">
<title>Node4&#45;&gt;Node3</title>
<path fill="none" stroke="midnightblue" d="M65.5,-157.8C65.5,-148.91 65.5,-138.78 65.5,-131.75"/>
<polygon fill="midnightblue" stroke="midnightblue" points="62,-158.08 65.5,-168.08 69,-158.08 62,-158.08"/>
</g>
<!-- Node5 -->
<g id="node5" class="node">
<title>Node5</title>
<g id="a_node5"><a xlink:href="classProcess.html" target="_top" xlink:title="Classe de base de TRUST (notamment Objet_U). Elle fournit quelques services de base accessibles de pa...">
<polygon fill="white" stroke="black" points="38.5,-224.5 38.5,-243.5 92.5,-243.5 92.5,-224.5 38.5,-224.5"/>
<text text-anchor="middle" x="65.5" y="-231.5" font-family="Helvetica,sans-Serif" font-size="10.00">Process</text>
</a>
</g>
</g>
<!-- Node5&#45;&gt;Node4 -->
<g id="edge4" class="edge">
<title>Node5&#45;&gt;Node4</title>
<path fill="none" stroke="midnightblue" d="M65.5,-213.8C65.5,-204.91 65.5,-194.78 65.5,-187.75"/>
<polygon fill="midnightblue" stroke="midnightblue" points="62,-214.08 65.5,-224.08 69,-214.08 62,-214.08"/>
</g>
</g>
</svg>
