<?xml version="1.0" encoding="UTF-8" standalone="no"?>
<!DOCTYPE svg PUBLIC "-//W3C//DTD SVG 1.1//EN"
 "http://www.w3.org/Graphics/SVG/1.1/DTD/svg11.dtd">
<!-- Generated by graphviz version 2.43.0 (0)
 -->
<!-- Title: Champ_Fonc_Face Pages: 1 -->
<svg width="484pt" height="420pt"
 viewBox="0.00 0.00 483.50 420.00" xmlns="http://www.w3.org/2000/svg" xmlns:xlink="http://www.w3.org/1999/xlink">
<g id="graph0" class="graph" transform="scale(1 1) rotate(0) translate(4 416)">
<title>Champ_Fonc_Face</title>
<polygon fill="white" stroke="transparent" points="-4,4 -4,-416 479.5,-416 479.5,4 -4,4"/>
<!-- Node1 -->
<g id="node1" class="node">
<title>Node1</title>
<g id="a_node1"><a xlink:title="classe Champ_Fonc_Face">
<polygon fill="#bfbfbf" stroke="black" points="161.5,-56.5 161.5,-75.5 267.5,-75.5 267.5,-56.5 161.5,-56.5"/>
<text text-anchor="middle" x="214.5" y="-63.5" font-family="Helvetica,sans-Serif" font-size="10.00">Champ_Fonc_Face</text>
</a>
</g>
</g>
<!-- Node11 -->
<g id="node11" class="node">
<title>Node11</title>
<g id="a_node11"><a xlink:href="classChamp__Don__Face__lu.html" target="_top" xlink:title="class Champ_Don_Face_lu Cette classe represente un champ de donnees que l&#39;on lit dans un fichier avec...">
<polygon fill="white" stroke="black" points="0,-0.5 0,-19.5 117,-19.5 117,-0.5 0,-0.5"/>
<text text-anchor="middle" x="58.5" y="-7.5" font-family="Helvetica,sans-Serif" font-size="10.00">Champ_Don_Face_lu</text>
</a>
</g>
</g>
<!-- Node1&#45;&gt;Node11 -->
<g id="edge10" class="edge">
<title>Node1&#45;&gt;Node11</title>
<path fill="none" stroke="midnightblue" d="M180.33,-53.17C150.96,-43 109.3,-28.59 83.1,-19.52"/>
<polygon fill="midnightblue" stroke="midnightblue" points="179.19,-56.48 189.78,-56.44 181.48,-49.86 179.19,-56.48"/>
</g>
<!-- Node12 -->
<g id="node12" class="node">
<title>Node12</title>
<g id="a_node12"><a xlink:href="classCourant__maille__Champ__Face.html" target="_top" xlink:title="classe Courant_maille_Champ_Face">
<polygon fill="white" stroke="black" points="135.5,-0.5 135.5,-19.5 293.5,-19.5 293.5,-0.5 135.5,-0.5"/>
<text text-anchor="middle" x="214.5" y="-7.5" font-family="Helvetica,sans-Serif" font-size="10.00">Courant_maille_Champ_Face</text>
</a>
</g>
</g>
<!-- Node1&#45;&gt;Node12 -->
<g id="edge11" class="edge">
<title>Node1&#45;&gt;Node12</title>
<path fill="none" stroke="midnightblue" d="M214.5,-45.8C214.5,-36.91 214.5,-26.78 214.5,-19.75"/>
<polygon fill="midnightblue" stroke="midnightblue" points="211,-46.08 214.5,-56.08 218,-46.08 211,-46.08"/>
</g>
<!-- Node13 -->
<g id="node13" class="node">
<title>Node13</title>
<g id="a_node13"><a xlink:href="classReynolds__maille__Champ__Face.html" target="_top" xlink:title="classe Reynolds_maille_Champ_Face">
<polygon fill="white" stroke="black" points="311.5,-0.5 311.5,-19.5 475.5,-19.5 475.5,-0.5 311.5,-0.5"/>
<text text-anchor="middle" x="393.5" y="-7.5" font-family="Helvetica,sans-Serif" font-size="10.00">Reynolds_maille_Champ_Face</text>
</a>
</g>
</g>
<!-- Node1&#45;&gt;Node13 -->
<g id="edge12" class="edge">
<title>Node1&#45;&gt;Node13</title>
<path fill="none" stroke="midnightblue" d="M252.83,-53.44C286.58,-43.26 334.95,-28.66 365.27,-19.52"/>
<polygon fill="midnightblue" stroke="midnightblue" points="251.43,-50.2 242.86,-56.44 253.45,-56.91 251.43,-50.2"/>
</g>
<!-- Node2 -->
<g id="node2" class="node">
<title>Node2</title>
<g id="a_node2"><a xlink:href="classChamp__Fonc__base.html" target="_top" xlink:title="classe Champ_Fonc_base Classe de base des champs qui sont fonction d&#39;une grandeur calculee au cours d...">
<polygon fill="white" stroke="black" points="85,-112.5 85,-131.5 192,-131.5 192,-112.5 85,-112.5"/>
<text text-anchor="middle" x="138.5" y="-119.5" font-family="Helvetica,sans-Serif" font-size="10.00">Champ_Fonc_base</text>
</a>
</g>
</g>
<!-- Node2&#45;&gt;Node1 -->
<g id="edge1" class="edge">
<title>Node2&#45;&gt;Node1</title>
<path fill="none" stroke="midnightblue" d="M159.08,-106.38C172.81,-96.62 190.43,-84.11 202.07,-75.83"/>
<polygon fill="midnightblue" stroke="midnightblue" points="156.84,-103.68 150.71,-112.32 160.89,-109.38 156.84,-103.68"/>
</g>
<!-- Node3 -->
<g id="node3" class="node">
<title>Node3</title>
<g id="a_node3"><a xlink:href="classChamp__Don__base.html" target="_top" xlink:title=" ">
<polygon fill="white" stroke="black" points="86.5,-168.5 86.5,-187.5 190.5,-187.5 190.5,-168.5 86.5,-168.5"/>
<text text-anchor="middle" x="138.5" y="-175.5" font-family="Helvetica,sans-Serif" font-size="10.00">Champ_Don_base</text>
</a>
</g>
</g>
<!-- Node3&#45;&gt;Node2 -->
<g id="edge2" class="edge">
<title>Node3&#45;&gt;Node2</title>
<path fill="none" stroke="midnightblue" d="M138.5,-157.8C138.5,-148.91 138.5,-138.78 138.5,-131.75"/>
<polygon fill="midnightblue" stroke="midnightblue" points="135,-158.08 138.5,-168.08 142,-158.08 135,-158.08"/>
</g>
<!-- Node4 -->
<g id="node4" class="node">
<title>Node4</title>
<g id="a_node4"><a xlink:href="classChamp__base.html" target="_top" xlink:title="classe Champ_base Cette classe est la base de la hierarchie des champs. Ses membres sont les attribut...">
<polygon fill="white" stroke="black" points="98.5,-224.5 98.5,-243.5 178.5,-243.5 178.5,-224.5 98.5,-224.5"/>
<text text-anchor="middle" x="138.5" y="-231.5" font-family="Helvetica,sans-Serif" font-size="10.00">Champ_base</text>
</a>
</g>
</g>
<!-- Node4&#45;&gt;Node3 -->
<g id="edge3" class="edge">
<title>Node4&#45;&gt;Node3</title>
<path fill="none" stroke="midnightblue" d="M138.5,-213.8C138.5,-204.91 138.5,-194.78 138.5,-187.75"/>
<polygon fill="midnightblue" stroke="midnightblue" points="135,-214.08 138.5,-224.08 142,-214.08 135,-214.08"/>
</g>
<!-- Node5 -->
<g id="node5" class="node">
<title>Node5</title>
<g id="a_node5"><a xlink:href="classField__base.html" target="_top" xlink:title=" ">
<polygon fill="white" stroke="black" points="58.5,-280.5 58.5,-299.5 126.5,-299.5 126.5,-280.5 58.5,-280.5"/>
<text text-anchor="middle" x="92.5" y="-287.5" font-family="Helvetica,sans-Serif" font-size="10.00">Field_base</text>
</a>
</g>
</g>
<!-- Node5&#45;&gt;Node4 -->
<g id="edge4" class="edge">
<title>Node5&#45;&gt;Node4</title>
<path fill="none" stroke="midnightblue" d="M106.61,-272.43C114.68,-262.97 124.46,-251.48 131.05,-243.75"/>
<polygon fill="midnightblue" stroke="midnightblue" points="103.92,-270.2 100.1,-280.08 109.25,-274.74 103.92,-270.2"/>
</g>
<!-- Node6 -->
<g id="node6" class="node">
<title>Node6</title>
<g id="a_node6"><a xlink:href="classObjet__U.html" target="_top" xlink:title="classe Objet_U Cette classe est la classe de base des Objets de TRUST Dans les classes derivees de Ob...">
<polygon fill="white" stroke="black" points="64.5,-336.5 64.5,-355.5 120.5,-355.5 120.5,-336.5 64.5,-336.5"/>
<text text-anchor="middle" x="92.5" y="-343.5" font-family="Helvetica,sans-Serif" font-size="10.00">Objet_U</text>
</a>
</g>
</g>
<!-- Node6&#45;&gt;Node5 -->
<g id="edge5" class="edge">
<title>Node6&#45;&gt;Node5</title>
<path fill="none" stroke="midnightblue" d="M92.5,-325.8C92.5,-316.91 92.5,-306.78 92.5,-299.75"/>
<polygon fill="midnightblue" stroke="midnightblue" points="89,-326.08 92.5,-336.08 96,-326.08 89,-326.08"/>
</g>
<!-- Node7 -->
<g id="node7" class="node">
<title>Node7</title>
<g id="a_node7"><a xlink:href="classProcess.html" target="_top" xlink:title="Classe de base de TRUST (notamment Objet_U). Elle fournit quelques services de base accessibles de pa...">
<polygon fill="white" stroke="black" points="65.5,-392.5 65.5,-411.5 119.5,-411.5 119.5,-392.5 65.5,-392.5"/>
<text text-anchor="middle" x="92.5" y="-399.5" font-family="Helvetica,sans-Serif" font-size="10.00">Process</text>
</a>
</g>
</g>
<!-- Node7&#45;&gt;Node6 -->
<g id="edge6" class="edge">
<title>Node7&#45;&gt;Node6</title>
<path fill="none" stroke="midnightblue" d="M92.5,-381.8C92.5,-372.91 92.5,-362.78 92.5,-355.75"/>
<polygon fill="midnightblue" stroke="midnightblue" points="89,-382.08 92.5,-392.08 96,-382.08 89,-382.08"/>
</g>
<!-- Node8 -->
<g id="node8" class="node">
<title>Node8</title>
<g id="a_node8"><a xlink:href="classChamp__Proto.html" target="_top" xlink:title="classe Champ_Proto Classe representant un prototype de Champ. Tous les classes representant des champ...">
<polygon fill="white" stroke="black" points="144.5,-280.5 144.5,-299.5 226.5,-299.5 226.5,-280.5 144.5,-280.5"/>
<text text-anchor="middle" x="185.5" y="-287.5" font-family="Helvetica,sans-Serif" font-size="10.00">Champ_Proto</text>
</a>
</g>
</g>
<!-- Node8&#45;&gt;Node4 -->
<g id="edge7" class="edge">
<title>Node8&#45;&gt;Node4</title>
<path fill="none" stroke="midnightblue" d="M171.08,-272.43C162.84,-262.97 152.85,-251.48 146.12,-243.75"/>
<polygon fill="midnightblue" stroke="midnightblue" points="168.53,-274.84 177.74,-280.08 173.81,-270.24 168.53,-274.84"/>
</g>
<!-- Node9 -->
<g id="node9" class="node">
<title>Node9</title>
<g id="a_node9"><a xlink:href="classChamp__Face__implementation.html" target="_top" xlink:title=" ">
<polygon fill="white" stroke="black" points="210,-112.5 210,-131.5 371,-131.5 371,-112.5 210,-112.5"/>
<text text-anchor="middle" x="290.5" y="-119.5" font-family="Helvetica,sans-Serif" font-size="10.00">Champ_Face_implementation</text>
</a>
</g>
</g>
<!-- Node9&#45;&gt;Node1 -->
<g id="edge8" class="edge">
<title>Node9&#45;&gt;Node1</title>
<path fill="none" stroke="midnightblue" d="M269.92,-106.38C256.19,-96.62 238.57,-84.11 226.93,-75.83"/>
<polygon fill="midnightblue" stroke="midnightblue" points="268.11,-109.38 278.29,-112.32 272.16,-103.68 268.11,-109.38"/>
</g>
<!-- Node10 -->
<g id="node10" class="node">
<title>Node10</title>
<g id="a_node10"><a xlink:href="classChamp__implementation.html" target="_top" xlink:title=" ">
<polygon fill="white" stroke="black" points="223.5,-168.5 223.5,-187.5 357.5,-187.5 357.5,-168.5 223.5,-168.5"/>
<text text-anchor="middle" x="290.5" y="-175.5" font-family="Helvetica,sans-Serif" font-size="10.00">Champ_implementation</text>
</a>
</g>
</g>
<!-- Node10&#45;&gt;Node9 -->
<g id="edge9" class="edge">
<title>Node10&#45;&gt;Node9</title>
<path fill="none" stroke="midnightblue" d="M290.5,-157.8C290.5,-148.91 290.5,-138.78 290.5,-131.75"/>
<polygon fill="midnightblue" stroke="midnightblue" points="287,-158.08 290.5,-168.08 294,-158.08 287,-158.08"/>
</g>
</g>
</svg>
