<?xml version="1.0" encoding="UTF-8" standalone="no"?>
<!DOCTYPE svg PUBLIC "-//W3C//DTD SVG 1.1//EN"
 "http://www.w3.org/Graphics/SVG/1.1/DTD/svg11.dtd">
<!-- Generated by graphviz version 2.43.0 (0)
 -->
<!-- Title: Champ_Uniforme Pages: 1 -->
<svg width="354pt" height="584pt"
 viewBox="0.00 0.00 354.00 584.00" xmlns="http://www.w3.org/2000/svg" xmlns:xlink="http://www.w3.org/1999/xlink">
<g id="graph0" class="graph" transform="scale(1 1) rotate(0) translate(4 580)">
<title>Champ_Uniforme</title>
<polygon fill="white" stroke="transparent" points="-4,4 -4,-580 350,-580 350,4 -4,4"/>
<!-- Node1 -->
<g id="node1" class="node">
<title>Node1</title>
<g id="a_node1"><a xlink:title="classe Champ_Uniforme Represente un champ constant dans l&#39;espace et dans le temps.">
<polygon fill="#bfbfbf" stroke="black" points="47.5,-114.5 47.5,-133.5 149.5,-133.5 149.5,-114.5 47.5,-114.5"/>
<text text-anchor="middle" x="98.5" y="-121.5" font-family="Helvetica,sans-Serif" font-size="10.00">Champ_Uniforme</text>
</a>
</g>
</g>
<!-- Node10 -->
<g id="node10" class="node">
<title>Node10</title>
<g id="a_node10"><a xlink:href="classCh__input__uniforme.html" target="_top" xlink:title="class Ch_input_uniforme Cette classe represente un champ uniforme accessible par setInputField">
<polygon fill="white" stroke="black" points="32,-57.5 32,-76.5 141,-76.5 141,-57.5 32,-57.5"/>
<text text-anchor="middle" x="86.5" y="-64.5" font-family="Helvetica,sans-Serif" font-size="10.00">Ch_input_uniforme</text>
</a>
</g>
</g>
<!-- Node1&#45;&gt;Node10 -->
<g id="edge10" class="edge">
<title>Node1&#45;&gt;Node10</title>
<path fill="none" stroke="midnightblue" d="M94.45,-104.42C92.4,-95.05 90.02,-84.14 88.4,-76.71"/>
<polygon fill="midnightblue" stroke="midnightblue" points="91.07,-105.38 96.62,-114.41 97.91,-103.89 91.07,-105.38"/>
</g>
<!-- Node11 -->
<g id="node11" class="node">
<title>Node11</title>
<g id="a_node11"><a xlink:href="classChamp__Uniforme__inst.html" target="_top" xlink:title="classe Champ_Uniforme_inst Un champ constant dans l&#39;espace mais dependant du temps....">
<polygon fill="white" stroke="black" points="159,-57.5 159,-76.5 284,-76.5 284,-57.5 159,-57.5"/>
<text text-anchor="middle" x="221.5" y="-64.5" font-family="Helvetica,sans-Serif" font-size="10.00">Champ_Uniforme_inst</text>
</a>
</g>
</g>
<!-- Node1&#45;&gt;Node11 -->
<g id="edge11" class="edge">
<title>Node1&#45;&gt;Node11</title>
<path fill="none" stroke="midnightblue" d="M127.05,-110.23C150.22,-99.87 182.25,-85.55 202.42,-76.53"/>
<polygon fill="midnightblue" stroke="midnightblue" points="125.42,-107.13 117.72,-114.41 128.28,-113.52 125.42,-107.13"/>
</g>
<!-- Node2 -->
<g id="node2" class="node">
<title>Node2</title>
<g id="a_node2"><a xlink:href="classTRUSTChamp__Divers__generique.html" target="_top" xlink:title=" ">
<polygon fill="white" stroke="black" points="0,-171.5 0,-201.5 197,-201.5 197,-171.5 0,-171.5"/>
<text text-anchor="start" x="8" y="-189.5" font-family="Helvetica,sans-Serif" font-size="10.00">TRUSTChamp_Divers_generique</text>
<text text-anchor="middle" x="98.5" y="-178.5" font-family="Helvetica,sans-Serif" font-size="10.00">&lt; Champ_Divers_Type::UNIFORME &gt;</text>
</a>
</g>
</g>
<!-- Node2&#45;&gt;Node1 -->
<g id="edge1" class="edge">
<title>Node2&#45;&gt;Node1</title>
<path fill="none" stroke="midnightblue" d="M98.5,-161.35C98.5,-151.51 98.5,-140.78 98.5,-133.54"/>
<polygon fill="midnightblue" stroke="midnightblue" points="95,-161.47 98.5,-171.47 102,-161.47 95,-161.47"/>
</g>
<!-- Node3 -->
<g id="node3" class="node">
<title>Node3</title>
<g id="a_node3"><a xlink:href="classChamp__Don__base.html" target="_top" xlink:title=" ">
<polygon fill="white" stroke="black" points="42.5,-328.5 42.5,-347.5 146.5,-347.5 146.5,-328.5 42.5,-328.5"/>
<text text-anchor="middle" x="94.5" y="-335.5" font-family="Helvetica,sans-Serif" font-size="10.00">Champ_Don_base</text>
</a>
</g>
</g>
<!-- Node3&#45;&gt;Node2 -->
<g id="edge2" class="edge">
<title>Node3&#45;&gt;Node2</title>
<path fill="none" stroke="midnightblue" d="M95.01,-317.95C95.82,-287.5 97.4,-228.55 98.12,-201.59"/>
<polygon fill="midnightblue" stroke="midnightblue" points="91.51,-318.01 94.74,-328.1 98.5,-318.19 91.51,-318.01"/>
</g>
<!-- Node9 -->
<g id="node9" class="node">
<title>Node9</title>
<g id="a_node9"><a xlink:href="classTRUSTChamp__Divers__generique.html" target="_top" xlink:title=" ">
<polygon fill="white" stroke="black" points="111,-260.5 111,-290.5 284,-290.5 284,-260.5 111,-260.5"/>
<text text-anchor="start" x="119" y="-278.5" font-family="Helvetica,sans-Serif" font-size="10.00">TRUSTChamp_Divers_generique</text>
<text text-anchor="middle" x="197.5" y="-267.5" font-family="Helvetica,sans-Serif" font-size="10.00">&lt; _TYPE_ &gt;</text>
</a>
</g>
</g>
<!-- Node3&#45;&gt;Node9 -->
<g id="edge9" class="edge">
<title>Node3&#45;&gt;Node9</title>
<path fill="none" stroke="midnightblue" d="M118.32,-323.01C134.93,-313.25 157,-300.29 173.62,-290.53"/>
<polygon fill="midnightblue" stroke="midnightblue" points="116.11,-320.25 109.26,-328.33 119.65,-326.28 116.11,-320.25"/>
</g>
<!-- Node4 -->
<g id="node4" class="node">
<title>Node4</title>
<g id="a_node4"><a xlink:href="classChamp__base.html" target="_top" xlink:title="classe Champ_base Cette classe est la base de la hierarchie des champs. Ses membres sont les attribut...">
<polygon fill="white" stroke="black" points="54.5,-385.5 54.5,-404.5 134.5,-404.5 134.5,-385.5 54.5,-385.5"/>
<text text-anchor="middle" x="94.5" y="-392.5" font-family="Helvetica,sans-Serif" font-size="10.00">Champ_base</text>
</a>
</g>
</g>
<!-- Node4&#45;&gt;Node3 -->
<g id="edge3" class="edge">
<title>Node4&#45;&gt;Node3</title>
<path fill="none" stroke="midnightblue" d="M94.5,-375.12C94.5,-365.82 94.5,-355.06 94.5,-347.71"/>
<polygon fill="midnightblue" stroke="midnightblue" points="91,-375.41 94.5,-385.41 98,-375.41 91,-375.41"/>
</g>
<!-- Node5 -->
<g id="node5" class="node">
<title>Node5</title>
<g id="a_node5"><a xlink:href="classField__base.html" target="_top" xlink:title=" ">
<polygon fill="white" stroke="black" points="14.5,-442.5 14.5,-461.5 82.5,-461.5 82.5,-442.5 14.5,-442.5"/>
<text text-anchor="middle" x="48.5" y="-449.5" font-family="Helvetica,sans-Serif" font-size="10.00">Field_base</text>
</a>
</g>
</g>
<!-- Node5&#45;&gt;Node4 -->
<g id="edge4" class="edge">
<title>Node5&#45;&gt;Node4</title>
<path fill="none" stroke="midnightblue" d="M62.27,-434.53C70.47,-424.74 80.53,-412.7 87.21,-404.71"/>
<polygon fill="midnightblue" stroke="midnightblue" points="59.42,-432.49 55.69,-442.41 64.79,-436.98 59.42,-432.49"/>
</g>
<!-- Node6 -->
<g id="node6" class="node">
<title>Node6</title>
<g id="a_node6"><a xlink:href="classObjet__U.html" target="_top" xlink:title="classe Objet_U Cette classe est la classe de base des Objets de TRUST Dans les classes derivees de Ob...">
<polygon fill="white" stroke="black" points="20.5,-499.5 20.5,-518.5 76.5,-518.5 76.5,-499.5 20.5,-499.5"/>
<text text-anchor="middle" x="48.5" y="-506.5" font-family="Helvetica,sans-Serif" font-size="10.00">Objet_U</text>
</a>
</g>
</g>
<!-- Node6&#45;&gt;Node5 -->
<g id="edge5" class="edge">
<title>Node6&#45;&gt;Node5</title>
<path fill="none" stroke="midnightblue" d="M48.5,-489.12C48.5,-479.82 48.5,-469.06 48.5,-461.71"/>
<polygon fill="midnightblue" stroke="midnightblue" points="45,-489.41 48.5,-499.41 52,-489.41 45,-489.41"/>
</g>
<!-- Node7 -->
<g id="node7" class="node">
<title>Node7</title>
<g id="a_node7"><a xlink:href="classProcess.html" target="_top" xlink:title="Classe de base de TRUST (notamment Objet_U). Elle fournit quelques services de base accessibles de pa...">
<polygon fill="white" stroke="black" points="21.5,-556.5 21.5,-575.5 75.5,-575.5 75.5,-556.5 21.5,-556.5"/>
<text text-anchor="middle" x="48.5" y="-563.5" font-family="Helvetica,sans-Serif" font-size="10.00">Process</text>
</a>
</g>
</g>
<!-- Node7&#45;&gt;Node6 -->
<g id="edge6" class="edge">
<title>Node7&#45;&gt;Node6</title>
<path fill="none" stroke="midnightblue" d="M48.5,-546.12C48.5,-536.82 48.5,-526.06 48.5,-518.71"/>
<polygon fill="midnightblue" stroke="midnightblue" points="45,-546.41 48.5,-556.41 52,-546.41 45,-546.41"/>
</g>
<!-- Node8 -->
<g id="node8" class="node">
<title>Node8</title>
<g id="a_node8"><a xlink:href="classChamp__Proto.html" target="_top" xlink:title="classe Champ_Proto Classe representant un prototype de Champ. Tous les classes representant des champ...">
<polygon fill="white" stroke="black" points="100.5,-442.5 100.5,-461.5 182.5,-461.5 182.5,-442.5 100.5,-442.5"/>
<text text-anchor="middle" x="141.5" y="-449.5" font-family="Helvetica,sans-Serif" font-size="10.00">Champ_Proto</text>
</a>
</g>
</g>
<!-- Node8&#45;&gt;Node4 -->
<g id="edge7" class="edge">
<title>Node8&#45;&gt;Node4</title>
<path fill="none" stroke="midnightblue" d="M127.43,-434.53C119.06,-424.74 108.77,-412.7 101.95,-404.71"/>
<polygon fill="midnightblue" stroke="midnightblue" points="125,-437.08 134.16,-442.41 130.32,-432.53 125,-437.08"/>
</g>
<!-- Node9&#45;&gt;Node2 -->
<g id="edge8" class="edge">
<title>Node9&#45;&gt;Node2</title>
<path fill="none" stroke="orange" stroke-dasharray="5,2" d="M173.25,-253.19C154.98,-237.13 130.44,-215.57 114.54,-201.6"/>
<polygon fill="orange" stroke="orange" points="171.33,-256.16 181.15,-260.13 175.95,-250.9 171.33,-256.16"/>
<text text-anchor="start" x="159.5" y="-234" font-family="Helvetica,sans-Serif" font-size="10.00"> &lt; Champ_Divers_Type</text>
<text text-anchor="middle" x="216.5" y="-223" font-family="Helvetica,sans-Serif" font-size="10.00">::UNIFORME &gt;</text>
</g>
<!-- Node12 -->
<g id="node12" class="node">
<title>Node12</title>
<g id="a_node12"><a xlink:href="classChamp__Fonc__t.html" target="_top" xlink:title="Classe Champ_Fonc_t Cette classe derivee de Champ_Uniforme_inst qui represente un champ constant dans...">
<polygon fill="white" stroke="black" points="115.5,-0.5 115.5,-19.5 203.5,-19.5 203.5,-0.5 115.5,-0.5"/>
<text text-anchor="middle" x="159.5" y="-7.5" font-family="Helvetica,sans-Serif" font-size="10.00">Champ_Fonc_t</text>
</a>
</g>
</g>
<!-- Node11&#45;&gt;Node12 -->
<g id="edge12" class="edge">
<title>Node11&#45;&gt;Node12</title>
<path fill="none" stroke="midnightblue" d="M204.26,-50.71C193,-40.72 178.69,-28.02 169.32,-19.71"/>
<polygon fill="midnightblue" stroke="midnightblue" points="202.01,-53.39 211.81,-57.41 206.65,-48.15 202.01,-53.39"/>
</g>
<!-- Node13 -->
<g id="node13" class="node">
<title>Node13</title>
<g id="a_node13"><a xlink:href="classChamp__Tabule__Temps.html" target="_top" xlink:title="Classe Champ_Tabule_Temps Cette classe derivee de Champ_Uniforme_inst qui represente un champ constan...">
<polygon fill="white" stroke="black" points="221,-0.5 221,-19.5 346,-19.5 346,-0.5 221,-0.5"/>
<text text-anchor="middle" x="283.5" y="-7.5" font-family="Helvetica,sans-Serif" font-size="10.00">Champ_Tabule_Temps</text>
</a>
</g>
</g>
<!-- Node11&#45;&gt;Node13 -->
<g id="edge13" class="edge">
<title>Node11&#45;&gt;Node13</title>
<path fill="none" stroke="midnightblue" d="M238.74,-50.71C250,-40.72 264.31,-28.02 273.68,-19.71"/>
<polygon fill="midnightblue" stroke="midnightblue" points="236.35,-48.15 231.19,-57.41 240.99,-53.39 236.35,-48.15"/>
</g>
</g>
</svg>
