<?xml version="1.0" encoding="UTF-8" standalone="no"?>
<!DOCTYPE svg PUBLIC "-//W3C//DTD SVG 1.1//EN"
 "http://www.w3.org/Graphics/SVG/1.1/DTD/svg11.dtd">
<!-- Generated by graphviz version 2.43.0 (0)
 -->
<!-- Title: TRUSTChamp_Morceaux_generique&lt; _TYPE_ &gt; Pages: 1 -->
<svg width="1656pt" height="275pt"
 viewBox="0.00 0.00 1656.00 275.00" xmlns="http://www.w3.org/2000/svg" xmlns:xlink="http://www.w3.org/1999/xlink">
<g id="graph0" class="graph" transform="scale(1 1) rotate(0) translate(4 271)">
<title>TRUSTChamp_Morceaux_generique&lt; _TYPE_ &gt;</title>
<polygon fill="white" stroke="transparent" points="-4,4 -4,-271 1652,-271 1652,4 -4,4"/>
<!-- Node1 -->
<g id="node1" class="node">
<title>Node1</title>
<g id="a_node1"><a xlink:title=" ">
<polygon fill="#bfbfbf" stroke="black" points="561,-137 561,-167 697,-167 697,-137 561,-137"/>
<text text-anchor="start" x="569" y="-155" font-family="Helvetica,sans-Serif" font-size="10.00">TRUSTChamp_Morceaux</text>
<text text-anchor="middle" x="629" y="-144" font-family="Helvetica,sans-Serif" font-size="10.00">_generique&lt; _TYPE_ &gt;</text>
</a>
</g>
</g>
<!-- Node8 -->
<g id="node8" class="node">
<title>Node8</title>
<g id="a_node8"><a xlink:href="classTRUSTChamp__Morceaux__generique.html" target="_top" xlink:title=" ">
<polygon fill="white" stroke="black" points="863,-225.5 863,-266.5 1033,-266.5 1033,-225.5 863,-225.5"/>
<text text-anchor="start" x="871" y="-254.5" font-family="Helvetica,sans-Serif" font-size="10.00">TRUSTChamp_Morceaux</text>
<text text-anchor="start" x="871" y="-243.5" font-family="Helvetica,sans-Serif" font-size="10.00">_generique&lt; Champ_Morceaux</text>
<text text-anchor="middle" x="948" y="-232.5" font-family="Helvetica,sans-Serif" font-size="10.00">_Type::FONC_TXYZ &gt;</text>
</a>
</g>
</g>
<!-- Node1&#45;&gt;Node8 -->
<g id="edge7" class="edge">
<title>Node1&#45;&gt;Node8</title>
<path fill="none" stroke="orange" stroke-dasharray="5,2" d="M659.72,-172.91C675.49,-183.1 695.57,-194.7 715,-202 762.39,-219.82 818.05,-230.68 862.97,-237.16"/>
<polygon fill="orange" stroke="orange" points="661.25,-169.73 650.98,-167.12 657.38,-175.56 661.25,-169.73"/>
<text text-anchor="start" x="715" y="-247" font-family="Helvetica,sans-Serif" font-size="10.00"> &lt; Champ_Morceaux_Type</text>
<text text-anchor="middle" x="780" y="-236" font-family="Helvetica,sans-Serif" font-size="10.00">::FONC_TXYZ &gt;</text>
</g>
<!-- Node10 -->
<g id="node10" class="node">
<title>Node10</title>
<g id="a_node10"><a xlink:href="classTRUSTChamp__Morceaux__generique.html" target="_top" xlink:title=" ">
<polygon fill="white" stroke="black" points="863,-165.5 863,-206.5 1033,-206.5 1033,-165.5 863,-165.5"/>
<text text-anchor="start" x="871" y="-194.5" font-family="Helvetica,sans-Serif" font-size="10.00">TRUSTChamp_Morceaux</text>
<text text-anchor="start" x="871" y="-183.5" font-family="Helvetica,sans-Serif" font-size="10.00">_generique&lt; Champ_Morceaux</text>
<text text-anchor="middle" x="948" y="-172.5" font-family="Helvetica,sans-Serif" font-size="10.00">_Type::FONC &gt;</text>
</a>
</g>
</g>
<!-- Node1&#45;&gt;Node10 -->
<g id="edge9" class="edge">
<title>Node1&#45;&gt;Node10</title>
<path fill="none" stroke="orange" stroke-dasharray="5,2" d="M707.37,-160.3C754.47,-165.35 814.64,-171.8 862.91,-176.98"/>
<polygon fill="orange" stroke="orange" points="707.54,-156.8 697.23,-159.21 706.8,-163.76 707.54,-156.8"/>
<text text-anchor="start" x="715" y="-190" font-family="Helvetica,sans-Serif" font-size="10.00"> &lt; Champ_Morceaux_Type</text>
<text text-anchor="middle" x="780" y="-179" font-family="Helvetica,sans-Serif" font-size="10.00">::FONC &gt;</text>
</g>
<!-- Node12 -->
<g id="node12" class="node">
<title>Node12</title>
<g id="a_node12"><a xlink:href="classTRUSTChamp__Morceaux__generique.html" target="_top" xlink:title=" ">
<polygon fill="white" stroke="black" points="863,-105.5 863,-146.5 1033,-146.5 1033,-105.5 863,-105.5"/>
<text text-anchor="start" x="871" y="-134.5" font-family="Helvetica,sans-Serif" font-size="10.00">TRUSTChamp_Morceaux</text>
<text text-anchor="start" x="871" y="-123.5" font-family="Helvetica,sans-Serif" font-size="10.00">_generique&lt; Champ_Morceaux</text>
<text text-anchor="middle" x="948" y="-112.5" font-family="Helvetica,sans-Serif" font-size="10.00">_Type::FONC_TABULE &gt;</text>
</a>
</g>
</g>
<!-- Node1&#45;&gt;Node12 -->
<g id="edge11" class="edge">
<title>Node1&#45;&gt;Node12</title>
<path fill="none" stroke="orange" stroke-dasharray="5,2" d="M707.29,-138.89C709.89,-138.57 712.46,-138.27 715,-138 763.82,-132.73 818.68,-129.76 862.79,-128.09"/>
<polygon fill="orange" stroke="orange" points="706.64,-135.45 697.18,-140.22 707.55,-142.39 706.64,-135.45"/>
<text text-anchor="start" x="715" y="-152" font-family="Helvetica,sans-Serif" font-size="10.00"> &lt; Champ_Morceaux_Type</text>
<text text-anchor="middle" x="780" y="-141" font-family="Helvetica,sans-Serif" font-size="10.00">::FONC_TABULE &gt;</text>
</g>
<!-- Node14 -->
<g id="node14" class="node">
<title>Node14</title>
<g id="a_node14"><a xlink:href="classTRUSTChamp__Morceaux__generique.html" target="_top" xlink:title=" ">
<polygon fill="white" stroke="black" points="863,-45.5 863,-86.5 1033,-86.5 1033,-45.5 863,-45.5"/>
<text text-anchor="start" x="871" y="-74.5" font-family="Helvetica,sans-Serif" font-size="10.00">TRUSTChamp_Morceaux</text>
<text text-anchor="start" x="871" y="-63.5" font-family="Helvetica,sans-Serif" font-size="10.00">_generique&lt; Champ_Morceaux</text>
<text text-anchor="middle" x="948" y="-52.5" font-family="Helvetica,sans-Serif" font-size="10.00">_Type::UNIFORME &gt;</text>
</a>
</g>
</g>
<!-- Node1&#45;&gt;Node14 -->
<g id="edge13" class="edge">
<title>Node1&#45;&gt;Node14</title>
<path fill="none" stroke="orange" stroke-dasharray="5,2" d="M660.02,-131.08C675.73,-121.09 695.67,-109.85 715,-103 762.38,-86.21 817.92,-77.01 862.77,-71.98"/>
<polygon fill="orange" stroke="orange" points="657.76,-128.38 651.3,-136.77 661.58,-134.24 657.76,-128.38"/>
<text text-anchor="start" x="715" y="-117" font-family="Helvetica,sans-Serif" font-size="10.00"> &lt; Champ_Morceaux_Type</text>
<text text-anchor="middle" x="780" y="-106" font-family="Helvetica,sans-Serif" font-size="10.00">::UNIFORME &gt;</text>
</g>
<!-- Node2 -->
<g id="node2" class="node">
<title>Node2</title>
<g id="a_node2"><a xlink:href="classChamp__Don__base.html" target="_top" xlink:title=" ">
<polygon fill="white" stroke="black" points="420,-142.5 420,-161.5 524,-161.5 524,-142.5 420,-142.5"/>
<text text-anchor="middle" x="472" y="-149.5" font-family="Helvetica,sans-Serif" font-size="10.00">Champ_Don_base</text>
</a>
</g>
</g>
<!-- Node2&#45;&gt;Node1 -->
<g id="edge1" class="edge">
<title>Node2&#45;&gt;Node1</title>
<path fill="none" stroke="midnightblue" d="M534.27,-152C542.99,-152 552.01,-152 560.84,-152"/>
<polygon fill="midnightblue" stroke="midnightblue" points="534.18,-148.5 524.18,-152 534.18,-155.5 534.18,-148.5"/>
</g>
<!-- Node3 -->
<g id="node3" class="node">
<title>Node3</title>
<g id="a_node3"><a xlink:href="classChamp__base.html" target="_top" xlink:title="classe Champ_base Cette classe est la base de la hierarchie des champs. Ses membres sont les attribut...">
<polygon fill="white" stroke="black" points="303,-142.5 303,-161.5 383,-161.5 383,-142.5 303,-142.5"/>
<text text-anchor="middle" x="343" y="-149.5" font-family="Helvetica,sans-Serif" font-size="10.00">Champ_base</text>
</a>
</g>
</g>
<!-- Node3&#45;&gt;Node2 -->
<g id="edge2" class="edge">
<title>Node3&#45;&gt;Node2</title>
<path fill="none" stroke="midnightblue" d="M393.4,-152C401.99,-152 410.95,-152 419.59,-152"/>
<polygon fill="midnightblue" stroke="midnightblue" points="393.14,-148.5 383.14,-152 393.14,-155.5 393.14,-148.5"/>
</g>
<!-- Node4 -->
<g id="node4" class="node">
<title>Node4</title>
<g id="a_node4"><a xlink:href="classField__base.html" target="_top" xlink:title=" ">
<polygon fill="white" stroke="black" points="191,-168.5 191,-187.5 259,-187.5 259,-168.5 191,-168.5"/>
<text text-anchor="middle" x="225" y="-175.5" font-family="Helvetica,sans-Serif" font-size="10.00">Field_base</text>
</a>
</g>
</g>
<!-- Node4&#45;&gt;Node3 -->
<g id="edge3" class="edge">
<title>Node4&#45;&gt;Node3</title>
<path fill="none" stroke="midnightblue" d="M269.06,-168.35C280.05,-165.89 291.8,-163.25 302.59,-160.83"/>
<polygon fill="midnightblue" stroke="midnightblue" points="268.23,-164.95 259.24,-170.55 269.76,-171.78 268.23,-164.95"/>
</g>
<!-- Node5 -->
<g id="node5" class="node">
<title>Node5</title>
<g id="a_node5"><a xlink:href="classObjet__U.html" target="_top" xlink:title="classe Objet_U Cette classe est la classe de base des Objets de TRUST Dans les classes derivees de Ob...">
<polygon fill="white" stroke="black" points="91,-168.5 91,-187.5 147,-187.5 147,-168.5 91,-168.5"/>
<text text-anchor="middle" x="119" y="-175.5" font-family="Helvetica,sans-Serif" font-size="10.00">Objet_U</text>
</a>
</g>
</g>
<!-- Node5&#45;&gt;Node4 -->
<g id="edge4" class="edge">
<title>Node5&#45;&gt;Node4</title>
<path fill="none" stroke="midnightblue" d="M157.2,-178C168.16,-178 180.07,-178 190.77,-178"/>
<polygon fill="midnightblue" stroke="midnightblue" points="157.05,-174.5 147.05,-178 157.05,-181.5 157.05,-174.5"/>
</g>
<!-- Node6 -->
<g id="node6" class="node">
<title>Node6</title>
<g id="a_node6"><a xlink:href="classProcess.html" target="_top" xlink:title="Classe de base de TRUST (notamment Objet_U). Elle fournit quelques services de base accessibles de pa...">
<polygon fill="white" stroke="black" points="0,-168.5 0,-187.5 54,-187.5 54,-168.5 0,-168.5"/>
<text text-anchor="middle" x="27" y="-175.5" font-family="Helvetica,sans-Serif" font-size="10.00">Process</text>
</a>
</g>
</g>
<!-- Node6&#45;&gt;Node5 -->
<g id="edge5" class="edge">
<title>Node6&#45;&gt;Node5</title>
<path fill="none" stroke="midnightblue" d="M64.15,-178C73.03,-178 82.39,-178 90.77,-178"/>
<polygon fill="midnightblue" stroke="midnightblue" points="64.03,-174.5 54.03,-178 64.03,-181.5 64.03,-174.5"/>
</g>
<!-- Node7 -->
<g id="node7" class="node">
<title>Node7</title>
<g id="a_node7"><a xlink:href="classChamp__Proto.html" target="_top" xlink:title="classe Champ_Proto Classe representant un prototype de Champ. Tous les classes representant des champ...">
<polygon fill="white" stroke="black" points="184,-130.5 184,-149.5 266,-149.5 266,-130.5 184,-130.5"/>
<text text-anchor="middle" x="225" y="-137.5" font-family="Helvetica,sans-Serif" font-size="10.00">Champ_Proto</text>
</a>
</g>
</g>
<!-- Node7&#45;&gt;Node3 -->
<g id="edge6" class="edge">
<title>Node7&#45;&gt;Node3</title>
<path fill="none" stroke="midnightblue" d="M276.22,-145.19C285.18,-146.12 294.4,-147.08 303,-147.97"/>
<polygon fill="midnightblue" stroke="midnightblue" points="276.55,-141.71 266.25,-144.16 275.83,-148.67 276.55,-141.71"/>
</g>
<!-- Node9 -->
<g id="node9" class="node">
<title>Node9</title>
<g id="a_node9"><a xlink:href="classChamp__Fonc__Fonction__txyz__Morceaux.html" target="_top" xlink:title="classe Champ_Fonc_Fonction_txyz_Morceaux Cette classe represente un champ prenant par morceaux des va...">
<polygon fill="white" stroke="black" points="1092,-231 1092,-261 1217,-261 1217,-231 1092,-231"/>
<text text-anchor="start" x="1100" y="-249" font-family="Helvetica,sans-Serif" font-size="10.00">Champ_Fonc_Fonction</text>
<text text-anchor="middle" x="1154.5" y="-238" font-family="Helvetica,sans-Serif" font-size="10.00">_txyz_Morceaux</text>
</a>
</g>
</g>
<!-- Node8&#45;&gt;Node9 -->
<g id="edge8" class="edge">
<title>Node8&#45;&gt;Node9</title>
<path fill="none" stroke="midnightblue" d="M1043.3,-246C1059.82,-246 1076.62,-246 1091.96,-246"/>
<polygon fill="midnightblue" stroke="midnightblue" points="1043.06,-242.5 1033.06,-246 1043.06,-249.5 1043.06,-242.5"/>
</g>
<!-- Node11 -->
<g id="node11" class="node">
<title>Node11</title>
<g id="a_node11"><a xlink:href="classChamp__Fonc__Morceaux.html" target="_top" xlink:title="classe Champ_Fonc_Morceaux Cette classe represente un champ prenant par morceaux des valuers fonction...">
<polygon fill="white" stroke="black" points="1088.5,-176.5 1088.5,-195.5 1220.5,-195.5 1220.5,-176.5 1088.5,-176.5"/>
<text text-anchor="middle" x="1154.5" y="-183.5" font-family="Helvetica,sans-Serif" font-size="10.00">Champ_Fonc_Morceaux</text>
</a>
</g>
</g>
<!-- Node10&#45;&gt;Node11 -->
<g id="edge10" class="edge">
<title>Node10&#45;&gt;Node11</title>
<path fill="none" stroke="midnightblue" d="M1043.48,-186C1058.61,-186 1073.96,-186 1088.2,-186"/>
<polygon fill="midnightblue" stroke="midnightblue" points="1043.06,-182.5 1033.06,-186 1043.06,-189.5 1043.06,-182.5"/>
</g>
<!-- Node13 -->
<g id="node13" class="node">
<title>Node13</title>
<g id="a_node13"><a xlink:href="classChamp__Fonc__Tabule__Morceaux.html" target="_top" xlink:title="classe Champ_Fonc_Tabule_Morceaux Cette classe represente un champ prenant par morceaux des valuers f...">
<polygon fill="white" stroke="black" points="1070,-116.5 1070,-135.5 1239,-135.5 1239,-116.5 1070,-116.5"/>
<text text-anchor="middle" x="1154.5" y="-123.5" font-family="Helvetica,sans-Serif" font-size="10.00">Champ_Fonc_Tabule_Morceaux</text>
</a>
</g>
</g>
<!-- Node12&#45;&gt;Node13 -->
<g id="edge12" class="edge">
<title>Node12&#45;&gt;Node13</title>
<path fill="none" stroke="midnightblue" d="M1043.07,-126C1051.97,-126 1060.96,-126 1069.76,-126"/>
<polygon fill="midnightblue" stroke="midnightblue" points="1043.06,-122.5 1033.06,-126 1043.06,-129.5 1043.06,-122.5"/>
</g>
<!-- Node15 -->
<g id="node15" class="node">
<title>Node15</title>
<g id="a_node15"><a xlink:href="classChamp__Uniforme__Morceaux.html" target="_top" xlink:title="classe Champ_Uniforme_Morceaux Cette classe represente champ constant par morceaux dans l&#39;espace et c...">
<polygon fill="white" stroke="black" points="1077,-56.5 1077,-75.5 1232,-75.5 1232,-56.5 1077,-56.5"/>
<text text-anchor="middle" x="1154.5" y="-63.5" font-family="Helvetica,sans-Serif" font-size="10.00">Champ_Uniforme_Morceaux</text>
</a>
</g>
</g>
<!-- Node14&#45;&gt;Node15 -->
<g id="edge14" class="edge">
<title>Node14&#45;&gt;Node15</title>
<path fill="none" stroke="midnightblue" d="M1043.36,-66C1054.62,-66 1066.01,-66 1076.98,-66"/>
<polygon fill="midnightblue" stroke="midnightblue" points="1043.06,-62.5 1033.06,-66 1043.06,-69.5 1043.06,-62.5"/>
</g>
<!-- Node16 -->
<g id="node16" class="node">
<title>Node16</title>
<g id="a_node16"><a xlink:href="classChamp__Uniforme__Morceaux__inst.html" target="_top" xlink:title="Classe Champ_Uniforme_Morceaux_inst Representent un champ constant par morceaux dans l&#39;espace et depe...">
<polygon fill="white" stroke="black" points="1276,-79.5 1276,-98.5 1455,-98.5 1455,-79.5 1276,-79.5"/>
<text text-anchor="middle" x="1365.5" y="-86.5" font-family="Helvetica,sans-Serif" font-size="10.00">Champ_Uniforme_Morceaux_inst</text>
</a>
</g>
</g>
<!-- Node15&#45;&gt;Node16 -->
<g id="edge15" class="edge">
<title>Node15&#45;&gt;Node16</title>
<path fill="none" stroke="midnightblue" d="M1242.38,-75.56C1254.15,-76.86 1266.22,-78.18 1277.98,-79.48"/>
<polygon fill="midnightblue" stroke="midnightblue" points="1242.46,-72.05 1232.14,-74.43 1241.69,-79.01 1242.46,-72.05"/>
</g>
<!-- Node18 -->
<g id="node18" class="node">
<title>Node18</title>
<g id="a_node18"><a xlink:href="classChamp__val__tot__sur__vol__base.html" target="_top" xlink:title="classe Champ_val_tot_sur_vol_base Classe de base derivee de Champ_Uniforme_Morceaux qui represente le...">
<polygon fill="white" stroke="black" points="1286,-38.5 1286,-57.5 1445,-57.5 1445,-38.5 1286,-38.5"/>
<text text-anchor="middle" x="1365.5" y="-45.5" font-family="Helvetica,sans-Serif" font-size="10.00">Champ_val_tot_sur_vol_base</text>
</a>
</g>
</g>
<!-- Node15&#45;&gt;Node18 -->
<g id="edge17" class="edge">
<title>Node15&#45;&gt;Node18</title>
<path fill="none" stroke="midnightblue" d="M1242.49,-58.51C1256.84,-57.27 1271.64,-56 1285.77,-54.78"/>
<polygon fill="midnightblue" stroke="midnightblue" points="1241.8,-55.05 1232.14,-59.4 1242.4,-62.03 1241.8,-55.05"/>
</g>
<!-- Node17 -->
<g id="node17" class="node">
<title>Node17</title>
<g id="a_node17"><a xlink:href="classChamp__Uniforme__Morceaux__Tabule__Temps.html" target="_top" xlink:title="classe Champ_Uniforme_Morceaux_Tabule_Temps Cette classe derivee de Champ_Uniforme_Morceaux_inst repr...">
<polygon fill="white" stroke="black" points="1492.5,-77 1492.5,-107 1647.5,-107 1647.5,-77 1492.5,-77"/>
<text text-anchor="start" x="1500.5" y="-95" font-family="Helvetica,sans-Serif" font-size="10.00">Champ_Uniforme_Morceaux</text>
<text text-anchor="middle" x="1570" y="-84" font-family="Helvetica,sans-Serif" font-size="10.00">_Tabule_Temps</text>
</a>
</g>
</g>
<!-- Node16&#45;&gt;Node17 -->
<g id="edge16" class="edge">
<title>Node16&#45;&gt;Node17</title>
<path fill="none" stroke="midnightblue" d="M1465.28,-90.46C1474.39,-90.6 1483.53,-90.73 1492.39,-90.87"/>
<polygon fill="midnightblue" stroke="midnightblue" points="1465.08,-86.96 1455.02,-90.31 1464.97,-93.96 1465.08,-86.96"/>
</g>
<!-- Node19 -->
<g id="node19" class="node">
<title>Node19</title>
<g id="a_node19"><a xlink:href="classChamp__val__tot__sur__vol__VDF.html" target="_top" xlink:title="classe Champ_val_tot_sur_vol_VDF derivee de Champ_val_tot_sur_vol_base Evaluation de Somme_vol_poro_l...">
<polygon fill="white" stroke="black" points="1492,-38.5 1492,-57.5 1648,-57.5 1648,-38.5 1492,-38.5"/>
<text text-anchor="middle" x="1570" y="-45.5" font-family="Helvetica,sans-Serif" font-size="10.00">Champ_val_tot_sur_vol_VDF</text>
</a>
</g>
</g>
<!-- Node18&#45;&gt;Node19 -->
<g id="edge18" class="edge">
<title>Node18&#45;&gt;Node19</title>
<path fill="none" stroke="midnightblue" d="M1455.24,-48C1467.42,-48 1479.84,-48 1491.79,-48"/>
<polygon fill="midnightblue" stroke="midnightblue" points="1455.08,-44.5 1445.08,-48 1455.08,-51.5 1455.08,-44.5"/>
</g>
<!-- Node20 -->
<g id="node20" class="node">
<title>Node20</title>
<g id="a_node20"><a xlink:href="classChamp__val__tot__sur__vol__VEF.html" target="_top" xlink:title="classe Champ_val_tot_sur_vol_VEF derivee de Champ_val_tot_sur_vol_base Evaluation Somme_vol_poro_loc ...">
<polygon fill="white" stroke="black" points="1492.5,-0.5 1492.5,-19.5 1647.5,-19.5 1647.5,-0.5 1492.5,-0.5"/>
<text text-anchor="middle" x="1570" y="-7.5" font-family="Helvetica,sans-Serif" font-size="10.00">Champ_val_tot_sur_vol_VEF</text>
</a>
</g>
</g>
<!-- Node18&#45;&gt;Node20 -->
<g id="edge19" class="edge">
<title>Node18&#45;&gt;Node20</title>
<path fill="none" stroke="midnightblue" d="M1427.35,-36.58C1456.32,-31.14 1490.58,-24.72 1518.14,-19.54"/>
<polygon fill="midnightblue" stroke="midnightblue" points="1426.52,-33.18 1417.34,-38.46 1427.81,-40.06 1426.52,-33.18"/>
</g>
</g>
</svg>
