<?xml version="1.0" encoding="UTF-8" standalone="no"?>
<!DOCTYPE svg PUBLIC "-//W3C//DTD SVG 1.1//EN"
 "http://www.w3.org/Graphics/SVG/1.1/DTD/svg11.dtd">
<!-- Generated by graphviz version 2.43.0 (0)
 -->
<!-- Title: Iterateur_Source_VEF_FaceEval_Puiss_Th_VEF_Face Pages: 1 -->
<svg width="172pt" height="207pt"
 viewBox="0.00 0.00 172.00 207.00" xmlns="http://www.w3.org/2000/svg" xmlns:xlink="http://www.w3.org/1999/xlink">
<g id="graph0" class="graph" transform="scale(1 1) rotate(0) translate(4 203)">
<title>Iterateur_Source_VEF_FaceEval_Puiss_Th_VEF_Face</title>
<polygon fill="white" stroke="transparent" points="-4,4 -4,-203 168,-203 168,4 -4,4"/>
<!-- Node1 -->
<g id="node1" class="node">
<title>Node1</title>
<g id="a_node1"><a xlink:title=" ">
<polygon fill="#bfbfbf" stroke="black" points="0,-0.5 0,-30.5 164,-30.5 164,-0.5 0,-0.5"/>
<text text-anchor="start" x="8" y="-18.5" font-family="Helvetica,sans-Serif" font-size="10.00">Iterateur_Source_VEF</text>
<text text-anchor="middle" x="82" y="-7.5" font-family="Helvetica,sans-Serif" font-size="10.00">_FaceEval_Puiss_Th_VEF_Face</text>
</a>
</g>
</g>
<!-- Node2 -->
<g id="node2" class="node">
<title>Node2</title>
<g id="a_node2"><a xlink:href="classIterateur__Source__VEF__base.html" target="_top" xlink:title=" ">
<polygon fill="white" stroke="black" points="7.5,-67.5 7.5,-86.5 156.5,-86.5 156.5,-67.5 7.5,-67.5"/>
<text text-anchor="middle" x="82" y="-74.5" font-family="Helvetica,sans-Serif" font-size="10.00">Iterateur_Source_VEF_base</text>
</a>
</g>
</g>
<!-- Node2&#45;&gt;Node1 -->
<g id="edge1" class="edge">
<title>Node2&#45;&gt;Node1</title>
<path fill="none" stroke="midnightblue" d="M82,-57.23C82,-48.59 82,-38.5 82,-30.52"/>
<polygon fill="midnightblue" stroke="midnightblue" points="78.5,-57.48 82,-67.48 85.5,-57.48 78.5,-57.48"/>
</g>
<!-- Node3 -->
<g id="node3" class="node">
<title>Node3</title>
<g id="a_node3"><a xlink:href="classObjet__U.html" target="_top" xlink:title="classe Objet_U Cette classe est la classe de base des Objets de TRUST Dans les classes derivees de Ob...">
<polygon fill="white" stroke="black" points="54,-123.5 54,-142.5 110,-142.5 110,-123.5 54,-123.5"/>
<text text-anchor="middle" x="82" y="-130.5" font-family="Helvetica,sans-Serif" font-size="10.00">Objet_U</text>
</a>
</g>
</g>
<!-- Node3&#45;&gt;Node2 -->
<g id="edge2" class="edge">
<title>Node3&#45;&gt;Node2</title>
<path fill="none" stroke="midnightblue" d="M82,-112.8C82,-103.91 82,-93.78 82,-86.75"/>
<polygon fill="midnightblue" stroke="midnightblue" points="78.5,-113.08 82,-123.08 85.5,-113.08 78.5,-113.08"/>
</g>
<!-- Node4 -->
<g id="node4" class="node">
<title>Node4</title>
<g id="a_node4"><a xlink:href="classProcess.html" target="_top" xlink:title="Classe de base de TRUST (notamment Objet_U). Elle fournit quelques services de base accessibles de pa...">
<polygon fill="white" stroke="black" points="55,-179.5 55,-198.5 109,-198.5 109,-179.5 55,-179.5"/>
<text text-anchor="middle" x="82" y="-186.5" font-family="Helvetica,sans-Serif" font-size="10.00">Process</text>
</a>
</g>
</g>
<!-- Node4&#45;&gt;Node3 -->
<g id="edge3" class="edge">
<title>Node4&#45;&gt;Node3</title>
<path fill="none" stroke="midnightblue" d="M82,-168.8C82,-159.91 82,-149.78 82,-142.75"/>
<polygon fill="midnightblue" stroke="midnightblue" points="78.5,-169.08 82,-179.08 85.5,-169.08 78.5,-169.08"/>
</g>
</g>
</svg>
