<?xml version="1.0" encoding="UTF-8" standalone="no"?>
<!DOCTYPE svg PUBLIC "-//W3C//DTD SVG 1.1//EN"
 "http://www.w3.org/Graphics/SVG/1.1/DTD/svg11.dtd">
<!-- Generated by graphviz version 2.43.0 (0)
 -->
<!-- Title: Entree_fluide_T_h_imposee Pages: 1 -->
<svg width="158pt" height="308pt"
 viewBox="0.00 0.00 158.00 308.00" xmlns="http://www.w3.org/2000/svg" xmlns:xlink="http://www.w3.org/1999/xlink">
<g id="graph0" class="graph" transform="scale(1 1) rotate(0) translate(4 304)">
<title>Entree_fluide_T_h_imposee</title>
<polygon fill="white" stroke="transparent" points="-4,4 -4,-304 154,-304 154,4 -4,4"/>
<!-- Node1 -->
<g id="node1" class="node">
<title>Node1</title>
<g id="a_node1"><a xlink:title="classe Entree_fluide_temperature_imposee Cas particulier de la classe Dirichlet_entree_fluide pour la...">
<polygon fill="#bfbfbf" stroke="black" points="0,-0.5 0,-19.5 150,-19.5 150,-0.5 0,-0.5"/>
<text text-anchor="middle" x="75" y="-7.5" font-family="Helvetica,sans-Serif" font-size="10.00">Entree_fluide_T_h_imposee</text>
</a>
</g>
</g>
<!-- Node2 -->
<g id="node2" class="node">
<title>Node2</title>
<g id="a_node2"><a xlink:href="classDirichlet__entree__fluide.html" target="_top" xlink:title="classe Dirichlet_entree_fluide Cette classe represente une condition aux limite imposant une grandeur...">
<polygon fill="white" stroke="black" points="11.5,-56.5 11.5,-75.5 138.5,-75.5 138.5,-56.5 11.5,-56.5"/>
<text text-anchor="middle" x="75" y="-63.5" font-family="Helvetica,sans-Serif" font-size="10.00">Dirichlet_entree_fluide</text>
</a>
</g>
</g>
<!-- Node2&#45;&gt;Node1 -->
<g id="edge1" class="edge">
<title>Node2&#45;&gt;Node1</title>
<path fill="none" stroke="midnightblue" d="M75,-45.8C75,-36.91 75,-26.78 75,-19.75"/>
<polygon fill="midnightblue" stroke="midnightblue" points="71.5,-46.08 75,-56.08 78.5,-46.08 71.5,-46.08"/>
</g>
<!-- Node3 -->
<g id="node3" class="node">
<title>Node3</title>
<g id="a_node3"><a xlink:href="classDirichlet.html" target="_top" xlink:title="classe Dirichlet Cette classe est la classe de base de la hierarchie des conditions aux limites de ty...">
<polygon fill="white" stroke="black" points="46,-112.5 46,-131.5 104,-131.5 104,-112.5 46,-112.5"/>
<text text-anchor="middle" x="75" y="-119.5" font-family="Helvetica,sans-Serif" font-size="10.00">Dirichlet</text>
</a>
</g>
</g>
<!-- Node3&#45;&gt;Node2 -->
<g id="edge2" class="edge">
<title>Node3&#45;&gt;Node2</title>
<path fill="none" stroke="midnightblue" d="M75,-101.8C75,-92.91 75,-82.78 75,-75.75"/>
<polygon fill="midnightblue" stroke="midnightblue" points="71.5,-102.08 75,-112.08 78.5,-102.08 71.5,-102.08"/>
</g>
<!-- Node4 -->
<g id="node4" class="node">
<title>Node4</title>
<g id="a_node4"><a xlink:href="classCond__lim__base.html" target="_top" xlink:title="classe Cond_lim_base Classe de base pour la hierarchie des classes qui representent les differentes c...">
<polygon fill="white" stroke="black" points="29.5,-168.5 29.5,-187.5 120.5,-187.5 120.5,-168.5 29.5,-168.5"/>
<text text-anchor="middle" x="75" y="-175.5" font-family="Helvetica,sans-Serif" font-size="10.00">Cond_lim_base</text>
</a>
</g>
</g>
<!-- Node4&#45;&gt;Node3 -->
<g id="edge3" class="edge">
<title>Node4&#45;&gt;Node3</title>
<path fill="none" stroke="midnightblue" d="M75,-157.8C75,-148.91 75,-138.78 75,-131.75"/>
<polygon fill="midnightblue" stroke="midnightblue" points="71.5,-158.08 75,-168.08 78.5,-158.08 71.5,-158.08"/>
</g>
<!-- Node5 -->
<g id="node5" class="node">
<title>Node5</title>
<g id="a_node5"><a xlink:href="classObjet__U.html" target="_top" xlink:title="classe Objet_U Cette classe est la classe de base des Objets de TRUST Dans les classes derivees de Ob...">
<polygon fill="white" stroke="black" points="47,-224.5 47,-243.5 103,-243.5 103,-224.5 47,-224.5"/>
<text text-anchor="middle" x="75" y="-231.5" font-family="Helvetica,sans-Serif" font-size="10.00">Objet_U</text>
</a>
</g>
</g>
<!-- Node5&#45;&gt;Node4 -->
<g id="edge4" class="edge">
<title>Node5&#45;&gt;Node4</title>
<path fill="none" stroke="midnightblue" d="M75,-213.8C75,-204.91 75,-194.78 75,-187.75"/>
<polygon fill="midnightblue" stroke="midnightblue" points="71.5,-214.08 75,-224.08 78.5,-214.08 71.5,-214.08"/>
</g>
<!-- Node6 -->
<g id="node6" class="node">
<title>Node6</title>
<g id="a_node6"><a xlink:href="classProcess.html" target="_top" xlink:title="Classe de base de TRUST (notamment Objet_U). Elle fournit quelques services de base accessibles de pa...">
<polygon fill="white" stroke="black" points="48,-280.5 48,-299.5 102,-299.5 102,-280.5 48,-280.5"/>
<text text-anchor="middle" x="75" y="-287.5" font-family="Helvetica,sans-Serif" font-size="10.00">Process</text>
</a>
</g>
</g>
<!-- Node6&#45;&gt;Node5 -->
<g id="edge5" class="edge">
<title>Node6&#45;&gt;Node5</title>
<path fill="none" stroke="midnightblue" d="M75,-269.8C75,-260.91 75,-250.78 75,-243.75"/>
<polygon fill="midnightblue" stroke="midnightblue" points="71.5,-270.08 75,-280.08 78.5,-270.08 71.5,-270.08"/>
</g>
</g>
</svg>
