<?xml version="1.0" encoding="UTF-8" standalone="no"?>
<!DOCTYPE svg PUBLIC "-//W3C//DTD SVG 1.1//EN"
 "http://www.w3.org/Graphics/SVG/1.1/DTD/svg11.dtd">
<!-- Generated by graphviz version 2.43.0 (0)
 -->
<!-- Title: Pb_Fluide_base Pages: 1 -->
<svg width="1353pt" height="330pt"
 viewBox="0.00 0.00 1353.00 329.50" xmlns="http://www.w3.org/2000/svg" xmlns:xlink="http://www.w3.org/1999/xlink">
<g id="graph0" class="graph" transform="scale(1 1) rotate(0) translate(4 325.5)">
<title>Pb_Fluide_base</title>
<polygon fill="white" stroke="transparent" points="-4,4 -4,-325.5 1349,-325.5 1349,4 -4,4"/>
<!-- Node1 -->
<g id="node1" class="node">
<title>Node1</title>
<g id="a_node1"><a xlink:title="classe Pb_Fluide_base Cette classe a pour but de disposer d une classe amont pour la hierarchie des p...">
<polygon fill="#bfbfbf" stroke="black" points="495,-127.5 495,-146.5 587,-146.5 587,-127.5 495,-127.5"/>
<text text-anchor="middle" x="541" y="-134.5" font-family="Helvetica,sans-Serif" font-size="10.00">Pb_Fluide_base</text>
</a>
</g>
</g>
<!-- Node7 -->
<g id="node7" class="node">
<title>Node7</title>
<g id="a_node7"><a xlink:href="classPb__Dilatable__base.html" target="_top" xlink:title="classe Pb_Dilatable_base Cette classe est censee factoriser ce qui est commun a l&#39;ensemble des proble...">
<polygon fill="white" stroke="black" points="653,-222.5 653,-241.5 760,-241.5 760,-222.5 653,-222.5"/>
<text text-anchor="middle" x="706.5" y="-229.5" font-family="Helvetica,sans-Serif" font-size="10.00">Pb_Dilatable_base</text>
</a>
</g>
</g>
<!-- Node1&#45;&gt;Node7 -->
<g id="edge6" class="edge">
<title>Node1&#45;&gt;Node7</title>
<path fill="none" stroke="midnightblue" d="M555.71,-154.41C570.46,-171.91 595.51,-198.34 623,-213 632.21,-217.91 642.65,-221.56 652.94,-224.27"/>
<polygon fill="midnightblue" stroke="midnightblue" points="558.38,-152.15 549.34,-146.63 552.97,-156.58 558.38,-152.15"/>
</g>
<!-- Node16 -->
<g id="node16" class="node">
<title>Node16</title>
<g id="a_node16"><a xlink:href="classPb__Hydraulique.html" target="_top" xlink:title="classe Pb_Hydraulique Cette classe represente un probleme hydraulique standard dans lequel on resout ...">
<polygon fill="white" stroke="black" points="660,-184.5 660,-203.5 753,-203.5 753,-184.5 660,-184.5"/>
<text text-anchor="middle" x="706.5" y="-191.5" font-family="Helvetica,sans-Serif" font-size="10.00">Pb_Hydraulique</text>
</a>
</g>
</g>
<!-- Node1&#45;&gt;Node16 -->
<g id="edge15" class="edge">
<title>Node1&#45;&gt;Node16</title>
<path fill="none" stroke="midnightblue" d="M568.58,-151.22C584.1,-159.08 604.28,-168.53 623,-175 634.67,-179.03 647.56,-182.46 659.62,-185.25"/>
<polygon fill="midnightblue" stroke="midnightblue" points="570.05,-148.04 559.56,-146.57 566.85,-154.27 570.05,-148.04"/>
</g>
<!-- Node17 -->
<g id="node17" class="node">
<title>Node17</title>
<g id="a_node17"><a xlink:href="classPb__Hydraulique__Concentration.html" target="_top" xlink:title="Classe Pb_Hydraulique_Concentration Cette classe represente un probleme d&#39;hydraulique avec transport ...">
<polygon fill="white" stroke="black" points="623,-146.5 623,-165.5 790,-165.5 790,-146.5 623,-146.5"/>
<text text-anchor="middle" x="706.5" y="-153.5" font-family="Helvetica,sans-Serif" font-size="10.00">Pb_Hydraulique_Concentration</text>
</a>
</g>
</g>
<!-- Node1&#45;&gt;Node17 -->
<g id="edge16" class="edge">
<title>Node1&#45;&gt;Node17</title>
<path fill="none" stroke="midnightblue" d="M597.21,-143.42C605.7,-144.4 614.61,-145.44 623.52,-146.47"/>
<polygon fill="midnightblue" stroke="midnightblue" points="597.45,-139.92 587.11,-142.24 596.64,-146.87 597.45,-139.92"/>
</g>
<!-- Node19 -->
<g id="node19" class="node">
<title>Node19</title>
<g id="a_node19"><a xlink:href="classPb__Multiphase.html" target="_top" xlink:title="classe Pb_Multiphase Cette classe represente un probleme de thermohydraulique multiphase de type &quot;3*N...">
<polygon fill="white" stroke="black" points="662.5,-108.5 662.5,-127.5 750.5,-127.5 750.5,-108.5 662.5,-108.5"/>
<text text-anchor="middle" x="706.5" y="-115.5" font-family="Helvetica,sans-Serif" font-size="10.00">Pb_Multiphase</text>
</a>
</g>
</g>
<!-- Node1&#45;&gt;Node19 -->
<g id="edge18" class="edge">
<title>Node1&#45;&gt;Node19</title>
<path fill="none" stroke="midnightblue" d="M597.27,-130.58C618.46,-128.11 642.32,-125.34 662.23,-123.03"/>
<polygon fill="midnightblue" stroke="midnightblue" points="596.64,-127.13 587.11,-131.76 597.45,-134.08 596.64,-127.13"/>
</g>
<!-- Node21 -->
<g id="node21" class="node">
<title>Node21</title>
<g id="a_node21"><a xlink:href="classPb__Thermohydraulique.html" target="_top" xlink:title="classe Pb_Thermohydraulique Cette classe represente un probleme de thermohydraulique standard: &#45; Equa...">
<polygon fill="white" stroke="black" points="642,-67.5 642,-86.5 771,-86.5 771,-67.5 642,-67.5"/>
<text text-anchor="middle" x="706.5" y="-74.5" font-family="Helvetica,sans-Serif" font-size="10.00">Pb_Thermohydraulique</text>
</a>
</g>
</g>
<!-- Node1&#45;&gt;Node21 -->
<g id="edge20" class="edge">
<title>Node1&#45;&gt;Node21</title>
<path fill="none" stroke="midnightblue" d="M568.97,-122.87C584.48,-115.12 604.51,-105.74 623,-99 636.09,-94.23 650.69,-89.99 663.93,-86.55"/>
<polygon fill="midnightblue" stroke="midnightblue" points="567.28,-119.8 559.94,-127.45 570.44,-126.05 567.28,-119.8"/>
</g>
<!-- Node23 -->
<g id="node23" class="node">
<title>Node23</title>
<g id="a_node23"><a xlink:href="classPb__Thermohydraulique__Concentration.html" target="_top" xlink:title="classe Pb_Thermohydraulique_Concentration Cette classe represente un probleme de thermohydraulique av...">
<polygon fill="white" stroke="black" points="642,-13 642,-43 771,-43 771,-13 642,-13"/>
<text text-anchor="start" x="650" y="-31" font-family="Helvetica,sans-Serif" font-size="10.00">Pb_Thermohydraulique</text>
<text text-anchor="middle" x="706.5" y="-20" font-family="Helvetica,sans-Serif" font-size="10.00">_Concentration</text>
</a>
</g>
</g>
<!-- Node1&#45;&gt;Node23 -->
<g id="edge22" class="edge">
<title>Node1&#45;&gt;Node23</title>
<path fill="none" stroke="midnightblue" d="M555.96,-119.57C570.91,-101.92 596.13,-74.88 623,-58 632.42,-52.08 643.18,-47.1 653.74,-43"/>
<polygon fill="midnightblue" stroke="midnightblue" points="553.17,-117.46 549.49,-127.4 558.56,-121.92 553.17,-117.46"/>
</g>
<!-- Node2 -->
<g id="node2" class="node">
<title>Node2</title>
<g id="a_node2"><a xlink:href="classProbleme__base.html" target="_top" xlink:title="classe Probleme_base C&#39;est un Probleme_U qui n&#39;est pas un couplage. Le role d&#39;un Probleme_base est la...">
<polygon fill="white" stroke="black" points="367,-127.5 367,-146.5 459,-146.5 459,-127.5 367,-127.5"/>
<text text-anchor="middle" x="413" y="-134.5" font-family="Helvetica,sans-Serif" font-size="10.00">Probleme_base</text>
</a>
</g>
</g>
<!-- Node2&#45;&gt;Node1 -->
<g id="edge1" class="edge">
<title>Node2&#45;&gt;Node1</title>
<path fill="none" stroke="midnightblue" d="M469.35,-137C477.84,-137 486.52,-137 494.76,-137"/>
<polygon fill="midnightblue" stroke="midnightblue" points="469.13,-133.5 459.13,-137 469.13,-140.5 469.13,-133.5"/>
</g>
<!-- Node3 -->
<g id="node3" class="node">
<title>Node3</title>
<g id="a_node3"><a xlink:href="classChamps__compris__interface.html" target="_top" xlink:title="classe Champs_compris_interface Cette classe contient une interface de methodes destinees a gerer les...">
<polygon fill="white" stroke="black" points="182,-146.5 182,-165.5 331,-165.5 331,-146.5 182,-146.5"/>
<text text-anchor="middle" x="256.5" y="-153.5" font-family="Helvetica,sans-Serif" font-size="10.00">Champs_compris_interface</text>
</a>
</g>
</g>
<!-- Node3&#45;&gt;Node2 -->
<g id="edge2" class="edge">
<title>Node3&#45;&gt;Node2</title>
<path fill="none" stroke="midnightblue" d="M341.08,-145.72C349.87,-144.64 358.55,-143.57 366.66,-142.58"/>
<polygon fill="midnightblue" stroke="midnightblue" points="340.63,-142.25 331.13,-146.95 341.48,-149.2 340.63,-142.25"/>
</g>
<!-- Node4 -->
<g id="node4" class="node">
<title>Node4</title>
<g id="a_node4"><a xlink:href="classProbleme__U.html" target="_top" xlink:title="classe Probleme_U Cette classe ajoute des specificites TRUST a l&#39;interface generale definie dans la c...">
<polygon fill="white" stroke="black" points="218.5,-108.5 218.5,-127.5 294.5,-127.5 294.5,-108.5 218.5,-108.5"/>
<text text-anchor="middle" x="256.5" y="-115.5" font-family="Helvetica,sans-Serif" font-size="10.00">Probleme_U</text>
</a>
</g>
</g>
<!-- Node4&#45;&gt;Node2 -->
<g id="edge3" class="edge">
<title>Node4&#45;&gt;Node2</title>
<path fill="none" stroke="midnightblue" d="M304.52,-123.78C324.28,-126.21 347.18,-129.03 366.75,-131.43"/>
<polygon fill="midnightblue" stroke="midnightblue" points="304.86,-120.3 294.51,-122.55 304,-127.25 304.86,-120.3"/>
</g>
<!-- Node5 -->
<g id="node5" class="node">
<title>Node5</title>
<g id="a_node5"><a xlink:href="classObjet__U.html" target="_top" xlink:title="classe Objet_U Cette classe est la classe de base des Objets de TRUST Dans les classes derivees de Ob...">
<polygon fill="white" stroke="black" points="90,-108.5 90,-127.5 146,-127.5 146,-108.5 90,-108.5"/>
<text text-anchor="middle" x="118" y="-115.5" font-family="Helvetica,sans-Serif" font-size="10.00">Objet_U</text>
</a>
</g>
</g>
<!-- Node5&#45;&gt;Node4 -->
<g id="edge4" class="edge">
<title>Node5&#45;&gt;Node4</title>
<path fill="none" stroke="midnightblue" d="M156.53,-118C175.8,-118 199.22,-118 218.43,-118"/>
<polygon fill="midnightblue" stroke="midnightblue" points="156.29,-114.5 146.29,-118 156.29,-121.5 156.29,-114.5"/>
</g>
<!-- Node6 -->
<g id="node6" class="node">
<title>Node6</title>
<g id="a_node6"><a xlink:href="classProcess.html" target="_top" xlink:title="Classe de base de TRUST (notamment Objet_U). Elle fournit quelques services de base accessibles de pa...">
<polygon fill="white" stroke="black" points="0,-108.5 0,-127.5 54,-127.5 54,-108.5 0,-108.5"/>
<text text-anchor="middle" x="27" y="-115.5" font-family="Helvetica,sans-Serif" font-size="10.00">Process</text>
</a>
</g>
</g>
<!-- Node6&#45;&gt;Node5 -->
<g id="edge5" class="edge">
<title>Node6&#45;&gt;Node5</title>
<path fill="none" stroke="midnightblue" d="M64.29,-118C72.79,-118 81.7,-118 89.73,-118"/>
<polygon fill="midnightblue" stroke="midnightblue" points="64.22,-114.5 54.22,-118 64.22,-121.5 64.22,-114.5"/>
</g>
<!-- Node8 -->
<g id="node8" class="node">
<title>Node8</title>
<g id="a_node8"><a xlink:href="classPb__QC__base.html" target="_top" xlink:title="classe Pb_QC_base Cette classe est censee factoriser ce qui est commun a l&#39;ensemble des problemes qua...">
<polygon fill="white" stroke="black" points="871,-252.5 871,-271.5 948,-271.5 948,-252.5 871,-252.5"/>
<text text-anchor="middle" x="909.5" y="-259.5" font-family="Helvetica,sans-Serif" font-size="10.00">Pb_QC_base</text>
</a>
</g>
</g>
<!-- Node7&#45;&gt;Node8 -->
<g id="edge7" class="edge">
<title>Node7&#45;&gt;Node8</title>
<path fill="none" stroke="midnightblue" d="M770.07,-241.34C803.11,-246.27 842.54,-252.16 870.86,-256.38"/>
<polygon fill="midnightblue" stroke="midnightblue" points="770.45,-237.86 760.05,-239.84 769.42,-244.78 770.45,-237.86"/>
</g>
<!-- Node12 -->
<g id="node12" class="node">
<title>Node12</title>
<g id="a_node12"><a xlink:href="classPb__WC__base.html" target="_top" xlink:title="classe Pb_WC_base Cette classe est censee factoriser ce qui est commun a l&#39;ensemble des problemes wea...">
<polygon fill="white" stroke="black" points="870,-208.5 870,-227.5 949,-227.5 949,-208.5 870,-208.5"/>
<text text-anchor="middle" x="909.5" y="-215.5" font-family="Helvetica,sans-Serif" font-size="10.00">Pb_WC_base</text>
</a>
</g>
</g>
<!-- Node7&#45;&gt;Node12 -->
<g id="edge11" class="edge">
<title>Node7&#45;&gt;Node12</title>
<path fill="none" stroke="midnightblue" d="M770.39,-227.62C802.99,-225.35 841.76,-222.65 869.91,-220.69"/>
<polygon fill="midnightblue" stroke="midnightblue" points="769.78,-224.15 760.05,-228.34 770.27,-231.14 769.78,-224.15"/>
</g>
<!-- Node9 -->
<g id="node9" class="node">
<title>Node9</title>
<g id="a_node9"><a xlink:href="classPb__Hydraulique__Melange__Binaire__QC.html" target="_top" xlink:title="classe Pb_Hydraulique_Melange_Binaire_QC Cette classe represente un probleme de hydraulique binaire e...">
<polygon fill="white" stroke="black" points="1034.5,-291 1034.5,-321 1174.5,-321 1174.5,-291 1034.5,-291"/>
<text text-anchor="start" x="1042.5" y="-309" font-family="Helvetica,sans-Serif" font-size="10.00">Pb_Hydraulique_Melange</text>
<text text-anchor="middle" x="1104.5" y="-298" font-family="Helvetica,sans-Serif" font-size="10.00">_Binaire_QC</text>
</a>
</g>
</g>
<!-- Node8&#45;&gt;Node9 -->
<g id="edge8" class="edge">
<title>Node8&#45;&gt;Node9</title>
<path fill="none" stroke="midnightblue" d="M958.06,-272.84C981.97,-278.29 1011.33,-284.99 1037.39,-290.93"/>
<polygon fill="midnightblue" stroke="midnightblue" points="958.7,-269.4 948.17,-270.59 957.14,-276.22 958.7,-269.4"/>
</g>
<!-- Node10 -->
<g id="node10" class="node">
<title>Node10</title>
<g id="a_node10"><a xlink:href="classPb__Thermohydraulique__QC.html" target="_top" xlink:title="classe Pb_Thermohydraulique_QC Cette classe represente un probleme de thermohydraulique en fluide qua...">
<polygon fill="white" stroke="black" points="1030,-252.5 1030,-271.5 1179,-271.5 1179,-252.5 1030,-252.5"/>
<text text-anchor="middle" x="1104.5" y="-259.5" font-family="Helvetica,sans-Serif" font-size="10.00">Pb_Thermohydraulique_QC</text>
</a>
</g>
</g>
<!-- Node8&#45;&gt;Node10 -->
<g id="edge9" class="edge">
<title>Node8&#45;&gt;Node10</title>
<path fill="none" stroke="midnightblue" d="M958.39,-262C979.99,-262 1005.98,-262 1029.96,-262"/>
<polygon fill="midnightblue" stroke="midnightblue" points="958.17,-258.5 948.17,-262 958.17,-265.5 958.17,-258.5"/>
</g>
<!-- Node11 -->
<g id="node11" class="node">
<title>Node11</title>
<g id="a_node11"><a xlink:href="classPb__Thermohydraulique__Especes__QC.html" target="_top" xlink:title=" ">
<polygon fill="white" stroke="black" points="1216,-247 1216,-277 1345,-277 1345,-247 1216,-247"/>
<text text-anchor="start" x="1224" y="-265" font-family="Helvetica,sans-Serif" font-size="10.00">Pb_Thermohydraulique</text>
<text text-anchor="middle" x="1280.5" y="-254" font-family="Helvetica,sans-Serif" font-size="10.00">_Especes_QC</text>
</a>
</g>
</g>
<!-- Node10&#45;&gt;Node11 -->
<g id="edge10" class="edge">
<title>Node10&#45;&gt;Node11</title>
<path fill="none" stroke="midnightblue" d="M1189.14,-262C1198.13,-262 1207.16,-262 1215.86,-262"/>
<polygon fill="midnightblue" stroke="midnightblue" points="1189.04,-258.5 1179.04,-262 1189.04,-265.5 1189.04,-258.5"/>
</g>
<!-- Node13 -->
<g id="node13" class="node">
<title>Node13</title>
<g id="a_node13"><a xlink:href="classPb__Hydraulique__Melange__Binaire__WC.html" target="_top" xlink:title="classe Pb_Hydraulique_Melange_Binaire_WC Cette classe represente un probleme de hydraulique binaire e...">
<polygon fill="white" stroke="black" points="1034.5,-203 1034.5,-233 1174.5,-233 1174.5,-203 1034.5,-203"/>
<text text-anchor="start" x="1042.5" y="-221" font-family="Helvetica,sans-Serif" font-size="10.00">Pb_Hydraulique_Melange</text>
<text text-anchor="middle" x="1104.5" y="-210" font-family="Helvetica,sans-Serif" font-size="10.00">_Binaire_WC</text>
</a>
</g>
</g>
<!-- Node12&#45;&gt;Node13 -->
<g id="edge12" class="edge">
<title>Node12&#45;&gt;Node13</title>
<path fill="none" stroke="midnightblue" d="M959.16,-218C981.87,-218 1009.3,-218 1034.12,-218"/>
<polygon fill="midnightblue" stroke="midnightblue" points="959.09,-214.5 949.09,-218 959.09,-221.5 959.09,-214.5"/>
</g>
<!-- Node14 -->
<g id="node14" class="node">
<title>Node14</title>
<g id="a_node14"><a xlink:href="classPb__Thermohydraulique__WC.html" target="_top" xlink:title="classe Pb_Thermohydraulique_WC Cette classe represente un probleme de thermohydraulique en fluide wea...">
<polygon fill="white" stroke="black" points="1029,-164.5 1029,-183.5 1180,-183.5 1180,-164.5 1029,-164.5"/>
<text text-anchor="middle" x="1104.5" y="-171.5" font-family="Helvetica,sans-Serif" font-size="10.00">Pb_Thermohydraulique_WC</text>
</a>
</g>
</g>
<!-- Node12&#45;&gt;Node14 -->
<g id="edge13" class="edge">
<title>Node12&#45;&gt;Node14</title>
<path fill="none" stroke="midnightblue" d="M959.01,-206.94C990.62,-199.74 1031.44,-190.43 1061.63,-183.55"/>
<polygon fill="midnightblue" stroke="midnightblue" points="958.06,-203.57 949.09,-209.2 959.62,-210.39 958.06,-203.57"/>
</g>
<!-- Node15 -->
<g id="node15" class="node">
<title>Node15</title>
<g id="a_node15"><a xlink:href="classPb__Thermohydraulique__Especes__WC.html" target="_top" xlink:title=" ">
<polygon fill="white" stroke="black" points="1216,-159 1216,-189 1345,-189 1345,-159 1216,-159"/>
<text text-anchor="start" x="1224" y="-177" font-family="Helvetica,sans-Serif" font-size="10.00">Pb_Thermohydraulique</text>
<text text-anchor="middle" x="1280.5" y="-166" font-family="Helvetica,sans-Serif" font-size="10.00">_Especes_WC</text>
</a>
</g>
</g>
<!-- Node14&#45;&gt;Node15 -->
<g id="edge14" class="edge">
<title>Node14&#45;&gt;Node15</title>
<path fill="none" stroke="midnightblue" d="M1190.14,-174C1198.77,-174 1207.43,-174 1215.78,-174"/>
<polygon fill="midnightblue" stroke="midnightblue" points="1190.05,-170.5 1180.05,-174 1190.05,-177.5 1190.05,-170.5"/>
</g>
<!-- Node18 -->
<g id="node18" class="node">
<title>Node18</title>
<g id="a_node18"><a xlink:href="classPb__Hydraulique__Concentration__Scalaires__Passifs.html" target="_top" xlink:title=" ">
<polygon fill="white" stroke="black" points="826,-149 826,-179 993,-179 993,-149 826,-149"/>
<text text-anchor="start" x="834" y="-167" font-family="Helvetica,sans-Serif" font-size="10.00">Pb_Hydraulique_Concentration</text>
<text text-anchor="middle" x="909.5" y="-156" font-family="Helvetica,sans-Serif" font-size="10.00">_Scalaires_Passifs</text>
</a>
</g>
</g>
<!-- Node17&#45;&gt;Node18 -->
<g id="edge17" class="edge">
<title>Node17&#45;&gt;Node18</title>
<path fill="none" stroke="midnightblue" d="M800.15,-159.69C808.73,-160.03 817.39,-160.37 825.87,-160.71"/>
<polygon fill="midnightblue" stroke="midnightblue" points="800.26,-156.19 790.12,-159.29 799.98,-163.18 800.26,-156.19"/>
</g>
<!-- Node20 -->
<g id="node20" class="node">
<title>Node20</title>
<g id="a_node20"><a xlink:href="classPb__HEM.html" target="_top" xlink:title=" ">
<polygon fill="white" stroke="black" points="881.5,-110.5 881.5,-129.5 937.5,-129.5 937.5,-110.5 881.5,-110.5"/>
<text text-anchor="middle" x="909.5" y="-117.5" font-family="Helvetica,sans-Serif" font-size="10.00">Pb_HEM</text>
</a>
</g>
</g>
<!-- Node19&#45;&gt;Node20 -->
<g id="edge19" class="edge">
<title>Node19&#45;&gt;Node20</title>
<path fill="none" stroke="midnightblue" d="M760.72,-118.53C799.59,-118.92 850.68,-119.42 881.48,-119.73"/>
<polygon fill="midnightblue" stroke="midnightblue" points="760.65,-115.03 750.62,-118.43 760.58,-122.03 760.65,-115.03"/>
</g>
<!-- Node22 -->
<g id="node22" class="node">
<title>Node22</title>
<g id="a_node22"><a xlink:href="classPb__Thermohydraulique__Scalaires__Passifs.html" target="_top" xlink:title=" ">
<polygon fill="white" stroke="black" points="845,-61 845,-91 974,-91 974,-61 845,-61"/>
<text text-anchor="start" x="853" y="-79" font-family="Helvetica,sans-Serif" font-size="10.00">Pb_Thermohydraulique</text>
<text text-anchor="middle" x="909.5" y="-68" font-family="Helvetica,sans-Serif" font-size="10.00">_Scalaires_Passifs</text>
</a>
</g>
</g>
<!-- Node21&#45;&gt;Node22 -->
<g id="edge21" class="edge">
<title>Node21&#45;&gt;Node22</title>
<path fill="none" stroke="midnightblue" d="M781.21,-76.63C802.13,-76.53 824.71,-76.42 844.97,-76.32"/>
<polygon fill="midnightblue" stroke="midnightblue" points="781.08,-73.13 771.1,-76.68 781.11,-80.13 781.08,-73.13"/>
</g>
<!-- Node24 -->
<g id="node24" class="node">
<title>Node24</title>
<g id="a_node24"><a xlink:href="classPb__Thermohydraulique__Concentration__Scalaires__Passifs.html" target="_top" xlink:title=" ">
<polygon fill="white" stroke="black" points="839.5,-0.5 839.5,-41.5 979.5,-41.5 979.5,-0.5 839.5,-0.5"/>
<text text-anchor="start" x="847.5" y="-29.5" font-family="Helvetica,sans-Serif" font-size="10.00">Pb_Thermohydraulique</text>
<text text-anchor="start" x="847.5" y="-18.5" font-family="Helvetica,sans-Serif" font-size="10.00">_Concentration_Scalaires</text>
<text text-anchor="middle" x="909.5" y="-7.5" font-family="Helvetica,sans-Serif" font-size="10.00">_Passifs</text>
</a>
</g>
</g>
<!-- Node23&#45;&gt;Node24 -->
<g id="edge23" class="edge">
<title>Node23&#45;&gt;Node24</title>
<path fill="none" stroke="midnightblue" d="M781.2,-25.43C800.22,-24.77 820.62,-24.06 839.4,-23.41"/>
<polygon fill="midnightblue" stroke="midnightblue" points="780.97,-21.94 771.1,-25.79 781.21,-28.93 780.97,-21.94"/>
</g>
</g>
</svg>
