<?xml version="1.0" encoding="UTF-8" standalone="no"?>
<!DOCTYPE svg PUBLIC "-//W3C//DTD SVG 1.1//EN"
 "http://www.w3.org/Graphics/SVG/1.1/DTD/svg11.dtd">
<!-- Generated by graphviz version 2.43.0 (0)
 -->
<!-- Title: Op_Dift_PolyMAC_P0_Elem Pages: 1 -->
<svg width="306pt" height="375pt"
 viewBox="0.00 0.00 305.50 375.00" xmlns="http://www.w3.org/2000/svg" xmlns:xlink="http://www.w3.org/1999/xlink">
<g id="graph0" class="graph" transform="scale(1 1) rotate(0) translate(4 371)">
<title>Op_Dift_PolyMAC_P0_Elem</title>
<polygon fill="white" stroke="transparent" points="-4,4 -4,-371 301.5,-371 301.5,4 -4,4"/>
<!-- Node1 -->
<g id="node1" class="node">
<title>Node1</title>
<g id="a_node1"><a xlink:title=" ">
<polygon fill="#bfbfbf" stroke="black" points="91.5,-0.5 91.5,-19.5 240.5,-19.5 240.5,-0.5 91.5,-0.5"/>
<text text-anchor="middle" x="166" y="-7.5" font-family="Helvetica,sans-Serif" font-size="10.00">Op_Dift_PolyMAC_P0_Elem</text>
</a>
</g>
</g>
<!-- Node2 -->
<g id="node2" class="node">
<title>Node2</title>
<g id="a_node2"><a xlink:href="classOp__Diff__PolyMAC__P0__Elem.html" target="_top" xlink:title=": class Op_Diff_PolyMAC_P0_Elem &lt;Description of class Op_Diff_PolyMAC_P0_Elem&gt;">
<polygon fill="white" stroke="black" points="91.5,-56.5 91.5,-75.5 240.5,-75.5 240.5,-56.5 91.5,-56.5"/>
<text text-anchor="middle" x="166" y="-63.5" font-family="Helvetica,sans-Serif" font-size="10.00">Op_Diff_PolyMAC_P0_Elem</text>
</a>
</g>
</g>
<!-- Node2&#45;&gt;Node1 -->
<g id="edge1" class="edge">
<title>Node2&#45;&gt;Node1</title>
<path fill="none" stroke="midnightblue" d="M166,-45.8C166,-36.91 166,-26.78 166,-19.75"/>
<polygon fill="midnightblue" stroke="midnightblue" points="162.5,-46.08 166,-56.08 169.5,-46.08 162.5,-46.08"/>
</g>
<!-- Node3 -->
<g id="node3" class="node">
<title>Node3</title>
<g id="a_node3"><a xlink:href="classOp__Diff__PolyMAC__P0__base.html" target="_top" xlink:title="class Op_Diff_PolyMAC_P0_base Classe de base des operateurs de diffusion PolyMAC_P0">
<polygon fill="white" stroke="black" points="92.5,-112.5 92.5,-131.5 239.5,-131.5 239.5,-112.5 92.5,-112.5"/>
<text text-anchor="middle" x="166" y="-119.5" font-family="Helvetica,sans-Serif" font-size="10.00">Op_Diff_PolyMAC_P0_base</text>
</a>
</g>
</g>
<!-- Node3&#45;&gt;Node2 -->
<g id="edge2" class="edge">
<title>Node3&#45;&gt;Node2</title>
<path fill="none" stroke="midnightblue" d="M166,-101.8C166,-92.91 166,-82.78 166,-75.75"/>
<polygon fill="midnightblue" stroke="midnightblue" points="162.5,-102.08 166,-112.08 169.5,-102.08 162.5,-102.08"/>
</g>
<!-- Node4 -->
<g id="node4" class="node">
<title>Node4</title>
<g id="a_node4"><a xlink:href="classOperateur__Diff__base.html" target="_top" xlink:title="classe Operateur_Diff_base Cette classe est la base de la hierarchie des operateurs representant un t...">
<polygon fill="white" stroke="black" points="108,-168.5 108,-187.5 224,-187.5 224,-168.5 108,-168.5"/>
<text text-anchor="middle" x="166" y="-175.5" font-family="Helvetica,sans-Serif" font-size="10.00">Operateur_Diff_base</text>
</a>
</g>
</g>
<!-- Node4&#45;&gt;Node3 -->
<g id="edge3" class="edge">
<title>Node4&#45;&gt;Node3</title>
<path fill="none" stroke="midnightblue" d="M166,-157.8C166,-148.91 166,-138.78 166,-131.75"/>
<polygon fill="midnightblue" stroke="midnightblue" points="162.5,-158.08 166,-168.08 169.5,-158.08 162.5,-158.08"/>
</g>
<!-- Node5 -->
<g id="node5" class="node">
<title>Node5</title>
<g id="a_node5"><a xlink:href="classOperateur__base.html" target="_top" xlink:title="classe Operateur_base Classe est la base de la hierarchie des objets representant un operateur utilis...">
<polygon fill="white" stroke="black" points="54,-230 54,-249 148,-249 148,-230 54,-230"/>
<text text-anchor="middle" x="101" y="-237" font-family="Helvetica,sans-Serif" font-size="10.00">Operateur_base</text>
</a>
</g>
</g>
<!-- Node5&#45;&gt;Node4 -->
<g id="edge4" class="edge">
<title>Node5&#45;&gt;Node4</title>
<path fill="none" stroke="midnightblue" d="M117.77,-223.15C130.16,-211.81 146.58,-196.78 156.7,-187.51"/>
<polygon fill="midnightblue" stroke="midnightblue" points="115.33,-220.64 110.31,-229.98 120.05,-225.8 115.33,-220.64"/>
</g>
<!-- Node6 -->
<g id="node6" class="node">
<title>Node6</title>
<g id="a_node6"><a xlink:href="classObjet__U.html" target="_top" xlink:title="classe Objet_U Cette classe est la classe de base des Objets de TRUST Dans les classes derivees de Ob...">
<polygon fill="white" stroke="black" points="0,-291.5 0,-310.5 56,-310.5 56,-291.5 0,-291.5"/>
<text text-anchor="middle" x="28" y="-298.5" font-family="Helvetica,sans-Serif" font-size="10.00">Objet_U</text>
</a>
</g>
</g>
<!-- Node6&#45;&gt;Node5 -->
<g id="edge5" class="edge">
<title>Node6&#45;&gt;Node5</title>
<path fill="none" stroke="midnightblue" d="M46.44,-284.97C60.4,-273.59 79.08,-258.37 90.56,-249.01"/>
<polygon fill="midnightblue" stroke="midnightblue" points="44,-282.44 38.46,-291.48 48.42,-287.87 44,-282.44"/>
</g>
<!-- Node7 -->
<g id="node7" class="node">
<title>Node7</title>
<g id="a_node7"><a xlink:href="classProcess.html" target="_top" xlink:title="Classe de base de TRUST (notamment Objet_U). Elle fournit quelques services de base accessibles de pa...">
<polygon fill="white" stroke="black" points="1,-347.5 1,-366.5 55,-366.5 55,-347.5 1,-347.5"/>
<text text-anchor="middle" x="28" y="-354.5" font-family="Helvetica,sans-Serif" font-size="10.00">Process</text>
</a>
</g>
</g>
<!-- Node7&#45;&gt;Node6 -->
<g id="edge6" class="edge">
<title>Node7&#45;&gt;Node6</title>
<path fill="none" stroke="midnightblue" d="M28,-336.8C28,-327.91 28,-317.78 28,-310.75"/>
<polygon fill="midnightblue" stroke="midnightblue" points="24.5,-337.08 28,-347.08 31.5,-337.08 24.5,-337.08"/>
</g>
<!-- Node8 -->
<g id="node8" class="node">
<title>Node8</title>
<g id="a_node8"><a xlink:href="classMorEqn.html" target="_top" xlink:title="classe MorEqn Classe qui regroupe les fonctionnalites de liaison avec une Equation....">
<polygon fill="white" stroke="black" points="74.5,-291.5 74.5,-310.5 127.5,-310.5 127.5,-291.5 74.5,-291.5"/>
<text text-anchor="middle" x="101" y="-298.5" font-family="Helvetica,sans-Serif" font-size="10.00">MorEqn</text>
</a>
</g>
</g>
<!-- Node8&#45;&gt;Node5 -->
<g id="edge7" class="edge">
<title>Node8&#45;&gt;Node5</title>
<path fill="none" stroke="midnightblue" d="M101,-281.32C101,-270.5 101,-257.4 101,-249.01"/>
<polygon fill="midnightblue" stroke="midnightblue" points="97.5,-281.48 101,-291.48 104.5,-281.48 97.5,-281.48"/>
</g>
<!-- Node9 -->
<g id="node9" class="node">
<title>Node9</title>
<g id="a_node9"><a xlink:href="classChamps__compris__interface.html" target="_top" xlink:title="classe Champs_compris_interface Cette classe contient une interface de methodes destinees a gerer les...">
<polygon fill="white" stroke="black" points="145.5,-291.5 145.5,-310.5 294.5,-310.5 294.5,-291.5 145.5,-291.5"/>
<text text-anchor="middle" x="220" y="-298.5" font-family="Helvetica,sans-Serif" font-size="10.00">Champs_compris_interface</text>
</a>
</g>
</g>
<!-- Node9&#45;&gt;Node5 -->
<g id="edge8" class="edge">
<title>Node9&#45;&gt;Node5</title>
<path fill="none" stroke="midnightblue" d="M193.73,-286.87C170.67,-275.33 137.8,-258.9 118.02,-249.01"/>
<polygon fill="midnightblue" stroke="midnightblue" points="192.44,-290.13 202.95,-291.48 195.57,-283.87 192.44,-290.13"/>
</g>
<!-- Node10 -->
<g id="node10" class="node">
<title>Node10</title>
<g id="a_node10"><a xlink:href="classSupport__Champ__Masse__Volumique.html" target="_top" xlink:title=" ">
<polygon fill="white" stroke="black" points="166.5,-224.5 166.5,-254.5 297.5,-254.5 297.5,-224.5 166.5,-224.5"/>
<text text-anchor="start" x="174.5" y="-242.5" font-family="Helvetica,sans-Serif" font-size="10.00">Support_Champ_Masse</text>
<text text-anchor="middle" x="232" y="-231.5" font-family="Helvetica,sans-Serif" font-size="10.00">_Volumique</text>
</a>
</g>
</g>
<!-- Node10&#45;&gt;Node4 -->
<g id="edge9" class="edge">
<title>Node10&#45;&gt;Node4</title>
<path fill="none" stroke="midnightblue" d="M208.81,-217.6C197.41,-207.32 184.28,-195.48 175.6,-187.66"/>
<polygon fill="midnightblue" stroke="midnightblue" points="206.59,-220.3 216.36,-224.4 211.28,-215.1 206.59,-220.3"/>
</g>
</g>
</svg>
