<?xml version="1.0" encoding="UTF-8" standalone="no"?>
<!DOCTYPE svg PUBLIC "-//W3C//DTD SVG 1.1//EN"
 "http://www.w3.org/Graphics/SVG/1.1/DTD/svg11.dtd">
<!-- Generated by graphviz version 2.43.0 (0)
 -->
<!-- Title: Entree Pages: 1 -->
<svg width="533pt" height="308pt"
 viewBox="0.00 0.00 532.50 308.00" xmlns="http://www.w3.org/2000/svg" xmlns:xlink="http://www.w3.org/1999/xlink">
<g id="graph0" class="graph" transform="scale(1 1) rotate(0) translate(4 304)">
<title>Entree</title>
<polygon fill="white" stroke="transparent" points="-4,4 -4,-304 528.5,-304 528.5,4 -4,4"/>
<!-- Node1 -->
<g id="node1" class="node">
<title>Node1</title>
<g id="a_node1"><a xlink:title="Classe de definition des operateurs et methodes pour toute lecture dans un flot d&#39;entree&lt;br&gt;(fichier,...">
<polygon fill="#bfbfbf" stroke="black" points="205,-280.5 205,-299.5 253,-299.5 253,-280.5 205,-280.5"/>
<text text-anchor="middle" x="229" y="-287.5" font-family="Helvetica,sans-Serif" font-size="10.00">Entree</text>
</a>
</g>
</g>
<!-- Node2 -->
<g id="node2" class="node">
<title>Node2</title>
<g id="a_node2"><a xlink:href="classEChaine.html" target="_top" xlink:title="Une entree dont la source est une chaine de caracteres. Le constructeur cree sa propre copie de la ch...">
<polygon fill="white" stroke="black" points="0,-224.5 0,-243.5 56,-243.5 56,-224.5 0,-224.5"/>
<text text-anchor="middle" x="28" y="-231.5" font-family="Helvetica,sans-Serif" font-size="10.00">EChaine</text>
</a>
</g>
</g>
<!-- Node1&#45;&gt;Node2 -->
<g id="edge1" class="edge">
<title>Node1&#45;&gt;Node2</title>
<path fill="none" stroke="midnightblue" d="M194.9,-279.84C155.85,-269.35 92.6,-252.36 56.21,-242.58"/>
<polygon fill="midnightblue" stroke="midnightblue" points="194.19,-283.27 204.75,-282.49 196.01,-276.51 194.19,-283.27"/>
</g>
<!-- Node3 -->
<g id="node3" class="node">
<title>Node3</title>
<g id="a_node3"><a xlink:href="classEntree__Brute.html" target="_top" xlink:title="An Entree whose main source of data is an arbitrary binary buffer set using the set_data() method....">
<polygon fill="white" stroke="black" points="74,-224.5 74,-243.5 154,-243.5 154,-224.5 74,-224.5"/>
<text text-anchor="middle" x="114" y="-231.5" font-family="Helvetica,sans-Serif" font-size="10.00">Entree_Brute</text>
</a>
</g>
</g>
<!-- Node1&#45;&gt;Node3 -->
<g id="edge2" class="edge">
<title>Node1&#45;&gt;Node3</title>
<path fill="none" stroke="midnightblue" d="M201.52,-276.1C180.03,-266.01 150.78,-252.27 132.14,-243.52"/>
<polygon fill="midnightblue" stroke="midnightblue" points="200.24,-279.36 210.78,-280.44 203.21,-273.02 200.24,-279.36"/>
</g>
<!-- Node4 -->
<g id="node4" class="node">
<title>Node4</title>
<g id="a_node4"><a xlink:href="classEntree__Fichier__base.html" target="_top" xlink:title="Fichier en lecture Cette classe est a la classe C++ ifstream ce que la classe Entree est a la classe ...">
<polygon fill="white" stroke="black" points="172,-224.5 172,-243.5 286,-243.5 286,-224.5 172,-224.5"/>
<text text-anchor="middle" x="229" y="-231.5" font-family="Helvetica,sans-Serif" font-size="10.00">Entree_Fichier_base</text>
</a>
</g>
</g>
<!-- Node1&#45;&gt;Node4 -->
<g id="edge3" class="edge">
<title>Node1&#45;&gt;Node4</title>
<path fill="none" stroke="midnightblue" d="M229,-269.8C229,-260.91 229,-250.78 229,-243.75"/>
<polygon fill="midnightblue" stroke="midnightblue" points="225.5,-270.08 229,-280.08 232.5,-270.08 225.5,-270.08"/>
</g>
<!-- Node13 -->
<g id="node13" class="node">
<title>Node13</title>
<g id="a_node13"><a xlink:href="classEntree__complete.html" target="_top" xlink:title="Cette classe se comporte comme EChaine tant que l&#39;on n&#39;est pas a la fin de la chaine....">
<polygon fill="white" stroke="black" points="304.5,-224.5 304.5,-243.5 403.5,-243.5 403.5,-224.5 304.5,-224.5"/>
<text text-anchor="middle" x="354" y="-231.5" font-family="Helvetica,sans-Serif" font-size="10.00">Entree_complete</text>
</a>
</g>
</g>
<!-- Node1&#45;&gt;Node13 -->
<g id="edge12" class="edge">
<title>Node1&#45;&gt;Node13</title>
<path fill="none" stroke="midnightblue" d="M258.24,-276.37C281.65,-266.26 313.84,-252.35 334.29,-243.52"/>
<polygon fill="midnightblue" stroke="midnightblue" points="256.6,-273.26 248.81,-280.44 259.37,-279.69 256.6,-273.26"/>
</g>
<!-- Node14 -->
<g id="node14" class="node">
<title>Node14</title>
<g id="a_node14"><a xlink:href="classInputCommBuffer.html" target="_top" xlink:title=": Classe outil utilisee exclusivement par Schema_Comm. C&#39;est une classe derivee de Entree dont le str...">
<polygon fill="white" stroke="black" points="421.5,-224.5 421.5,-243.5 524.5,-243.5 524.5,-224.5 421.5,-224.5"/>
<text text-anchor="middle" x="473" y="-231.5" font-family="Helvetica,sans-Serif" font-size="10.00">InputCommBuffer</text>
</a>
</g>
</g>
<!-- Node1&#45;&gt;Node14 -->
<g id="edge13" class="edge">
<title>Node1&#45;&gt;Node14</title>
<path fill="none" stroke="midnightblue" d="M263.17,-281.44C308.23,-271.46 387.33,-253.96 434.47,-243.53"/>
<polygon fill="midnightblue" stroke="midnightblue" points="262.3,-278.05 253.29,-283.62 263.81,-284.88 262.3,-278.05"/>
</g>
<!-- Node5 -->
<g id="node5" class="node">
<title>Node5</title>
<g id="a_node5"><a xlink:href="classEFichier.html" target="_top" xlink:title="Fichier en lecture Cette classe est a la classe C++ ifstream ce que la classe Entree est a la classe ...">
<polygon fill="white" stroke="black" points="201.5,-168.5 201.5,-187.5 256.5,-187.5 256.5,-168.5 201.5,-168.5"/>
<text text-anchor="middle" x="229" y="-175.5" font-family="Helvetica,sans-Serif" font-size="10.00">EFichier</text>
</a>
</g>
</g>
<!-- Node4&#45;&gt;Node5 -->
<g id="edge4" class="edge">
<title>Node4&#45;&gt;Node5</title>
<path fill="none" stroke="midnightblue" d="M229,-213.8C229,-204.91 229,-194.78 229,-187.75"/>
<polygon fill="midnightblue" stroke="midnightblue" points="225.5,-214.08 229,-224.08 232.5,-214.08 225.5,-214.08"/>
</g>
<!-- Node6 -->
<g id="node6" class="node">
<title>Node6</title>
<g id="a_node6"><a xlink:href="classEFichierBin.html" target="_top" xlink:title="Lecture dans un fichier d&#39;objets ecrits au format binaire.">
<polygon fill="white" stroke="black" points="94.5,-112.5 94.5,-131.5 165.5,-131.5 165.5,-112.5 94.5,-112.5"/>
<text text-anchor="middle" x="130" y="-119.5" font-family="Helvetica,sans-Serif" font-size="10.00">EFichierBin</text>
</a>
</g>
</g>
<!-- Node5&#45;&gt;Node6 -->
<g id="edge5" class="edge">
<title>Node5&#45;&gt;Node6</title>
<path fill="none" stroke="midnightblue" d="M204.16,-163.45C185.89,-153.48 161.58,-140.23 145.87,-131.65"/>
<polygon fill="midnightblue" stroke="midnightblue" points="202.64,-166.61 213.09,-168.32 205.99,-160.46 202.64,-166.61"/>
</g>
<!-- Node7 -->
<g id="node7" class="node">
<title>Node7</title>
<g id="a_node7"><a xlink:href="classLecFicDistribue.html" target="_top" xlink:title="Cette classe implemente les operateurs et les methodes virtuelles de la classe EFichier de la facon s...">
<polygon fill="white" stroke="black" points="183.5,-112.5 183.5,-131.5 274.5,-131.5 274.5,-112.5 183.5,-112.5"/>
<text text-anchor="middle" x="229" y="-119.5" font-family="Helvetica,sans-Serif" font-size="10.00">LecFicDistribue</text>
</a>
</g>
</g>
<!-- Node5&#45;&gt;Node7 -->
<g id="edge6" class="edge">
<title>Node5&#45;&gt;Node7</title>
<path fill="none" stroke="midnightblue" d="M229,-157.8C229,-148.91 229,-138.78 229,-131.75"/>
<polygon fill="midnightblue" stroke="midnightblue" points="225.5,-158.08 229,-168.08 232.5,-158.08 225.5,-158.08"/>
</g>
<!-- Node9 -->
<g id="node9" class="node">
<title>Node9</title>
<g id="a_node9"><a xlink:href="classLec__Diffuse__base.html" target="_top" xlink:title="Classe de base des entrees diffusees: le processeur maitre lit les donnees dans la classe get_entree_...">
<polygon fill="white" stroke="black" points="292.5,-112.5 292.5,-131.5 393.5,-131.5 393.5,-112.5 292.5,-112.5"/>
<text text-anchor="middle" x="343" y="-119.5" font-family="Helvetica,sans-Serif" font-size="10.00">Lec_Diffuse_base</text>
</a>
</g>
</g>
<!-- Node5&#45;&gt;Node9 -->
<g id="edge8" class="edge">
<title>Node5&#45;&gt;Node9</title>
<path fill="none" stroke="midnightblue" d="M256.24,-164.1C277.54,-154.01 306.54,-140.27 325.02,-131.52"/>
<polygon fill="midnightblue" stroke="midnightblue" points="254.6,-161 247.06,-168.44 257.6,-167.33 254.6,-161"/>
</g>
<!-- Node8 -->
<g id="node8" class="node">
<title>Node8</title>
<g id="a_node8"><a xlink:href="classLecFicDistribueBin.html" target="_top" xlink:title="Lecture dans un fichier au format binaire. Cette classe implemente les operateurs et les methodes vir...">
<polygon fill="white" stroke="black" points="175.5,-56.5 175.5,-75.5 282.5,-75.5 282.5,-56.5 175.5,-56.5"/>
<text text-anchor="middle" x="229" y="-63.5" font-family="Helvetica,sans-Serif" font-size="10.00">LecFicDistribueBin</text>
</a>
</g>
</g>
<!-- Node7&#45;&gt;Node8 -->
<g id="edge7" class="edge">
<title>Node7&#45;&gt;Node8</title>
<path fill="none" stroke="midnightblue" d="M229,-101.8C229,-92.91 229,-82.78 229,-75.75"/>
<polygon fill="midnightblue" stroke="midnightblue" points="225.5,-102.08 229,-112.08 232.5,-102.08 225.5,-102.08"/>
</g>
<!-- Node10 -->
<g id="node10" class="node">
<title>Node10</title>
<g id="a_node10"><a xlink:href="classLecFicDiffuse.html" target="_top" xlink:title="Cette classe implemente les operateurs et les methodes virtuelles de la classe EFichier de la facon s...">
<polygon fill="white" stroke="black" points="301.5,-56.5 301.5,-75.5 382.5,-75.5 382.5,-56.5 301.5,-56.5"/>
<text text-anchor="middle" x="342" y="-63.5" font-family="Helvetica,sans-Serif" font-size="10.00">LecFicDiffuse</text>
</a>
</g>
</g>
<!-- Node9&#45;&gt;Node10 -->
<g id="edge9" class="edge">
<title>Node9&#45;&gt;Node10</title>
<path fill="none" stroke="midnightblue" d="M342.64,-101.8C342.48,-92.91 342.29,-82.78 342.16,-75.75"/>
<polygon fill="midnightblue" stroke="midnightblue" points="339.15,-102.15 342.83,-112.08 346.15,-102.02 339.15,-102.15"/>
</g>
<!-- Node12 -->
<g id="node12" class="node">
<title>Node12</title>
<g id="a_node12"><a xlink:href="classLecFicDiffuse__JDD.html" target="_top" xlink:title="Cette classe implemente les operateurs et les methodes virtuelles de la classe EFichier de la facon s...">
<polygon fill="white" stroke="black" points="401,-56.5 401,-75.5 505,-75.5 505,-56.5 401,-56.5"/>
<text text-anchor="middle" x="453" y="-63.5" font-family="Helvetica,sans-Serif" font-size="10.00">LecFicDiffuse_JDD</text>
</a>
</g>
</g>
<!-- Node9&#45;&gt;Node12 -->
<g id="edge11" class="edge">
<title>Node9&#45;&gt;Node12</title>
<path fill="none" stroke="midnightblue" d="M369.76,-107.86C390.16,-97.85 417.67,-84.35 435.37,-75.65"/>
<polygon fill="midnightblue" stroke="midnightblue" points="368.11,-104.78 360.67,-112.32 371.19,-111.06 368.11,-104.78"/>
</g>
<!-- Node11 -->
<g id="node11" class="node">
<title>Node11</title>
<g id="a_node11"><a xlink:href="classLecFicDiffuseBin.html" target="_top" xlink:title="Read a file in binary format. This class implements the operators and virtual methods of the EFichier...">
<polygon fill="white" stroke="black" points="293.5,-0.5 293.5,-19.5 390.5,-19.5 390.5,-0.5 293.5,-0.5"/>
<text text-anchor="middle" x="342" y="-7.5" font-family="Helvetica,sans-Serif" font-size="10.00">LecFicDiffuseBin</text>
</a>
</g>
</g>
<!-- Node10&#45;&gt;Node11 -->
<g id="edge10" class="edge">
<title>Node10&#45;&gt;Node11</title>
<path fill="none" stroke="midnightblue" d="M342,-45.8C342,-36.91 342,-26.78 342,-19.75"/>
<polygon fill="midnightblue" stroke="midnightblue" points="338.5,-46.08 342,-56.08 345.5,-46.08 338.5,-46.08"/>
</g>
</g>
</svg>
