<?xml version="1.0" encoding="UTF-8" standalone="no"?>
<!DOCTYPE svg PUBLIC "-//W3C//DTD SVG 1.1//EN"
 "http://www.w3.org/Graphics/SVG/1.1/DTD/svg11.dtd">
<!-- Generated by graphviz version 2.43.0 (0)
 -->
<!-- Title: TRUST_Vector&lt; _TRUST_TABL_, _TYPE_ &gt; Pages: 1 -->
<svg width="197pt" height="288pt"
 viewBox="0.00 0.00 197.00 288.00" xmlns="http://www.w3.org/2000/svg" xmlns:xlink="http://www.w3.org/1999/xlink">
<g id="graph0" class="graph" transform="scale(1 1) rotate(0) translate(4 284)">
<title>TRUST_Vector&lt; _TRUST_TABL_, _TYPE_ &gt;</title>
<polygon fill="white" stroke="transparent" points="-4,4 -4,-284 193,-284 193,4 -4,4"/>
<!-- Node1 -->
<g id="node1" class="node">
<title>Node1</title>
<g id="a_node1"><a xlink:title=" ">
<polygon fill="#bfbfbf" stroke="black" points="7,-78.5 7,-108.5 141,-108.5 141,-78.5 7,-78.5"/>
<text text-anchor="start" x="15" y="-96.5" font-family="Helvetica,sans-Serif" font-size="10.00">TRUST_Vector&lt; _TRUST</text>
<text text-anchor="middle" x="74" y="-85.5" font-family="Helvetica,sans-Serif" font-size="10.00">_TABL_, _TYPE_ &gt;</text>
</a>
</g>
</g>
<!-- Node5 -->
<g id="node5" class="node">
<title>Node5</title>
<g id="a_node5"><a xlink:href="classTRUST__Vector.html" target="_top" xlink:title=" ">
<polygon fill="white" stroke="black" points="0,-0.5 0,-30.5 148,-30.5 148,-0.5 0,-0.5"/>
<text text-anchor="start" x="8" y="-18.5" font-family="Helvetica,sans-Serif" font-size="10.00">TRUST_Vector&lt; TRUSTTab,</text>
<text text-anchor="middle" x="74" y="-7.5" font-family="Helvetica,sans-Serif" font-size="10.00"> _TYPE_ &gt;</text>
</a>
</g>
</g>
<!-- Node1&#45;&gt;Node5 -->
<g id="edge4" class="edge">
<title>Node1&#45;&gt;Node5</title>
<path fill="none" stroke="orange" stroke-dasharray="5,2" d="M74,-68.09C74,-55.76 74,-41.22 74,-30.73"/>
<polygon fill="orange" stroke="orange" points="70.5,-68.2 74,-78.2 77.5,-68.21 70.5,-68.2"/>
<text text-anchor="middle" x="131.5" y="-52" font-family="Helvetica,sans-Serif" font-size="10.00"> &lt; TRUSTTab, _TYPE_ &gt;</text>
</g>
<!-- Node2 -->
<g id="node2" class="node">
<title>Node2</title>
<g id="a_node2"><a xlink:href="classvect__impl.html" target="_top" xlink:title=" ">
<polygon fill="white" stroke="black" points="41.5,-146.5 41.5,-165.5 106.5,-165.5 106.5,-146.5 41.5,-146.5"/>
<text text-anchor="middle" x="74" y="-153.5" font-family="Helvetica,sans-Serif" font-size="10.00">vect_impl</text>
</a>
</g>
</g>
<!-- Node2&#45;&gt;Node1 -->
<g id="edge1" class="edge">
<title>Node2&#45;&gt;Node1</title>
<path fill="none" stroke="midnightblue" d="M74,-136.22C74,-127.36 74,-116.96 74,-108.76"/>
<polygon fill="midnightblue" stroke="midnightblue" points="70.5,-136.33 74,-146.33 77.5,-136.33 70.5,-136.33"/>
</g>
<!-- Node3 -->
<g id="node3" class="node">
<title>Node3</title>
<g id="a_node3"><a xlink:href="classObjet__U.html" target="_top" xlink:title="classe Objet_U Cette classe est la classe de base des Objets de TRUST Dans les classes derivees de Ob...">
<polygon fill="white" stroke="black" points="46,-203.5 46,-222.5 102,-222.5 102,-203.5 46,-203.5"/>
<text text-anchor="middle" x="74" y="-210.5" font-family="Helvetica,sans-Serif" font-size="10.00">Objet_U</text>
</a>
</g>
</g>
<!-- Node3&#45;&gt;Node2 -->
<g id="edge2" class="edge">
<title>Node3&#45;&gt;Node2</title>
<path fill="none" stroke="midnightblue" d="M74,-193.12C74,-183.82 74,-173.06 74,-165.71"/>
<polygon fill="midnightblue" stroke="midnightblue" points="70.5,-193.41 74,-203.41 77.5,-193.41 70.5,-193.41"/>
</g>
<!-- Node4 -->
<g id="node4" class="node">
<title>Node4</title>
<g id="a_node4"><a xlink:href="classProcess.html" target="_top" xlink:title="Classe de base de TRUST (notamment Objet_U). Elle fournit quelques services de base accessibles de pa...">
<polygon fill="white" stroke="black" points="47,-260.5 47,-279.5 101,-279.5 101,-260.5 47,-260.5"/>
<text text-anchor="middle" x="74" y="-267.5" font-family="Helvetica,sans-Serif" font-size="10.00">Process</text>
</a>
</g>
</g>
<!-- Node4&#45;&gt;Node3 -->
<g id="edge3" class="edge">
<title>Node4&#45;&gt;Node3</title>
<path fill="none" stroke="midnightblue" d="M74,-250.12C74,-240.82 74,-230.06 74,-222.71"/>
<polygon fill="midnightblue" stroke="midnightblue" points="70.5,-250.41 74,-260.41 77.5,-250.41 70.5,-250.41"/>
</g>
</g>
</svg>
