<?xml version="1.0" encoding="UTF-8" standalone="no"?>
<!DOCTYPE svg PUBLIC "-//W3C//DTD SVG 1.1//EN"
 "http://www.w3.org/Graphics/SVG/1.1/DTD/svg11.dtd">
<!-- Generated by graphviz version 2.43.0 (0)
 -->
<!-- Title: Operateur_Evanescence Pages: 1 -->
<svg width="286pt" height="308pt"
 viewBox="0.00 0.00 285.50 308.00" xmlns="http://www.w3.org/2000/svg" xmlns:xlink="http://www.w3.org/1999/xlink">
<g id="graph0" class="graph" transform="scale(1 1) rotate(0) translate(4 304)">
<title>Operateur_Evanescence</title>
<polygon fill="white" stroke="transparent" points="-4,4 -4,-304 281.5,-304 281.5,4 -4,4"/>
<!-- Node1 -->
<g id="node1" class="node">
<title>Node1</title>
<g id="a_node1"><a xlink:title="classe Operateur_Evanescence Classe generique de la hierarchie des operateurs representant un terme d...">
<polygon fill="#bfbfbf" stroke="black" points="39.5,-0.5 39.5,-19.5 173.5,-19.5 173.5,-0.5 39.5,-0.5"/>
<text text-anchor="middle" x="106.5" y="-7.5" font-family="Helvetica,sans-Serif" font-size="10.00">Operateur_Evanescence</text>
</a>
</g>
</g>
<!-- Node2 -->
<g id="node2" class="node">
<title>Node2</title>
<g id="a_node2"><a xlink:href="classOperateur.html" target="_top" xlink:title="classe Operateur Classe generique de la hierarchie des operateurs. Cette classe generique est particu...">
<polygon fill="white" stroke="black" points="0,-56.5 0,-75.5 65,-75.5 65,-56.5 0,-56.5"/>
<text text-anchor="middle" x="32.5" y="-63.5" font-family="Helvetica,sans-Serif" font-size="10.00">Operateur</text>
</a>
</g>
</g>
<!-- Node2&#45;&gt;Node1 -->
<g id="edge1" class="edge">
<title>Node2&#45;&gt;Node1</title>
<path fill="none" stroke="midnightblue" d="M52.53,-50.38C65.91,-40.62 83.06,-28.11 94.39,-19.83"/>
<polygon fill="midnightblue" stroke="midnightblue" points="50.4,-47.6 44.39,-56.32 54.53,-53.26 50.4,-47.6"/>
</g>
<!-- Node3 -->
<g id="node3" class="node">
<title>Node3</title>
<g id="a_node3"><a xlink:href="classMorEqn.html" target="_top" xlink:title="classe MorEqn Classe qui regroupe les fonctionnalites de liaison avec une Equation....">
<polygon fill="white" stroke="black" points="6,-112.5 6,-131.5 59,-131.5 59,-112.5 6,-112.5"/>
<text text-anchor="middle" x="32.5" y="-119.5" font-family="Helvetica,sans-Serif" font-size="10.00">MorEqn</text>
</a>
</g>
</g>
<!-- Node3&#45;&gt;Node2 -->
<g id="edge2" class="edge">
<title>Node3&#45;&gt;Node2</title>
<path fill="none" stroke="midnightblue" d="M32.5,-101.8C32.5,-92.91 32.5,-82.78 32.5,-75.75"/>
<polygon fill="midnightblue" stroke="midnightblue" points="29,-102.08 32.5,-112.08 36,-102.08 29,-102.08"/>
</g>
<!-- Node4 -->
<g id="node4" class="node">
<title>Node4</title>
<g id="a_node4"><a xlink:href="classDeriv__Operateur__Evanescence__base.html" target="_top" xlink:title=" ">
<polygon fill="white" stroke="black" points="83.5,-56.5 83.5,-75.5 277.5,-75.5 277.5,-56.5 83.5,-56.5"/>
<text text-anchor="middle" x="180.5" y="-63.5" font-family="Helvetica,sans-Serif" font-size="10.00">Deriv_Operateur_Evanescence_base</text>
</a>
</g>
</g>
<!-- Node4&#45;&gt;Node1 -->
<g id="edge3" class="edge">
<title>Node4&#45;&gt;Node1</title>
<path fill="none" stroke="midnightblue" d="M160.47,-50.38C147.09,-40.62 129.94,-28.11 118.61,-19.83"/>
<polygon fill="midnightblue" stroke="midnightblue" points="158.47,-53.26 168.61,-56.32 162.6,-47.6 158.47,-53.26"/>
</g>
<!-- Node5 -->
<g id="node5" class="node">
<title>Node5</title>
<g id="a_node5"><a xlink:href="classDeriv__.html" target="_top" xlink:title="Type de base de tous les types DERIV(TYPE). La classe est vide, elle sert de couche intermediaire pou...">
<polygon fill="white" stroke="black" points="156.5,-112.5 156.5,-131.5 204.5,-131.5 204.5,-112.5 156.5,-112.5"/>
<text text-anchor="middle" x="180.5" y="-119.5" font-family="Helvetica,sans-Serif" font-size="10.00">Deriv_</text>
</a>
</g>
</g>
<!-- Node5&#45;&gt;Node4 -->
<g id="edge4" class="edge">
<title>Node5&#45;&gt;Node4</title>
<path fill="none" stroke="midnightblue" d="M180.5,-101.8C180.5,-92.91 180.5,-82.78 180.5,-75.75"/>
<polygon fill="midnightblue" stroke="midnightblue" points="177,-102.08 180.5,-112.08 184,-102.08 177,-102.08"/>
</g>
<!-- Node6 -->
<g id="node6" class="node">
<title>Node6</title>
<g id="a_node6"><a xlink:href="classO__U__Ptr.html" target="_top" xlink:title="Pointeur sur un Objet_U. Le constructeur par defaut construit un pointeur &quot;nul&quot;. O_U_Ptr_H.">
<polygon fill="white" stroke="black" points="152.5,-168.5 152.5,-187.5 208.5,-187.5 208.5,-168.5 152.5,-168.5"/>
<text text-anchor="middle" x="180.5" y="-175.5" font-family="Helvetica,sans-Serif" font-size="10.00">O_U_Ptr</text>
</a>
</g>
</g>
<!-- Node6&#45;&gt;Node5 -->
<g id="edge5" class="edge">
<title>Node6&#45;&gt;Node5</title>
<path fill="none" stroke="midnightblue" d="M180.5,-157.8C180.5,-148.91 180.5,-138.78 180.5,-131.75"/>
<polygon fill="midnightblue" stroke="midnightblue" points="177,-158.08 180.5,-168.08 184,-158.08 177,-158.08"/>
</g>
<!-- Node7 -->
<g id="node7" class="node">
<title>Node7</title>
<g id="a_node7"><a xlink:href="classObjet__U.html" target="_top" xlink:title="classe Objet_U Cette classe est la classe de base des Objets de TRUST Dans les classes derivees de Ob...">
<polygon fill="white" stroke="black" points="152.5,-224.5 152.5,-243.5 208.5,-243.5 208.5,-224.5 152.5,-224.5"/>
<text text-anchor="middle" x="180.5" y="-231.5" font-family="Helvetica,sans-Serif" font-size="10.00">Objet_U</text>
</a>
</g>
</g>
<!-- Node7&#45;&gt;Node6 -->
<g id="edge6" class="edge">
<title>Node7&#45;&gt;Node6</title>
<path fill="none" stroke="midnightblue" d="M180.5,-213.8C180.5,-204.91 180.5,-194.78 180.5,-187.75"/>
<polygon fill="midnightblue" stroke="midnightblue" points="177,-214.08 180.5,-224.08 184,-214.08 177,-214.08"/>
</g>
<!-- Node8 -->
<g id="node8" class="node">
<title>Node8</title>
<g id="a_node8"><a xlink:href="classProcess.html" target="_top" xlink:title="Classe de base de TRUST (notamment Objet_U). Elle fournit quelques services de base accessibles de pa...">
<polygon fill="white" stroke="black" points="153.5,-280.5 153.5,-299.5 207.5,-299.5 207.5,-280.5 153.5,-280.5"/>
<text text-anchor="middle" x="180.5" y="-287.5" font-family="Helvetica,sans-Serif" font-size="10.00">Process</text>
</a>
</g>
</g>
<!-- Node8&#45;&gt;Node7 -->
<g id="edge7" class="edge">
<title>Node8&#45;&gt;Node7</title>
<path fill="none" stroke="midnightblue" d="M180.5,-269.8C180.5,-260.91 180.5,-250.78 180.5,-243.75"/>
<polygon fill="midnightblue" stroke="midnightblue" points="177,-270.08 180.5,-280.08 184,-270.08 177,-270.08"/>
</g>
</g>
</svg>
