<?xml version="1.0" encoding="UTF-8" standalone="no"?>
<!DOCTYPE svg PUBLIC "-//W3C//DTD SVG 1.1//EN"
 "http://www.w3.org/Graphics/SVG/1.1/DTD/svg11.dtd">
<!-- Generated by graphviz version 2.43.0 (0)
 -->
<!-- Title: Pb_Thermohydraulique_Especes_WC Pages: 1 -->
<svg width="314pt" height="487pt"
 viewBox="0.00 0.00 314.00 487.00" xmlns="http://www.w3.org/2000/svg" xmlns:xlink="http://www.w3.org/1999/xlink">
<g id="graph0" class="graph" transform="scale(1 1) rotate(0) translate(4 483)">
<title>Pb_Thermohydraulique_Especes_WC</title>
<polygon fill="white" stroke="transparent" points="-4,4 -4,-483 310,-483 310,4 -4,4"/>
<!-- Node1 -->
<g id="node1" class="node">
<title>Node1</title>
<g id="a_node1"><a xlink:title=" ">
<polygon fill="#bfbfbf" stroke="black" points="131,-0.5 131,-30.5 260,-30.5 260,-0.5 131,-0.5"/>
<text text-anchor="start" x="139" y="-18.5" font-family="Helvetica,sans-Serif" font-size="10.00">Pb_Thermohydraulique</text>
<text text-anchor="middle" x="195.5" y="-7.5" font-family="Helvetica,sans-Serif" font-size="10.00">_Especes_WC</text>
</a>
</g>
</g>
<!-- Node2 -->
<g id="node2" class="node">
<title>Node2</title>
<g id="a_node2"><a xlink:href="classPb__Thermohydraulique__WC.html" target="_top" xlink:title="classe Pb_Thermohydraulique_WC Cette classe represente un probleme de thermohydraulique en fluide wea...">
<polygon fill="white" stroke="black" points="120,-67.5 120,-86.5 271,-86.5 271,-67.5 120,-67.5"/>
<text text-anchor="middle" x="195.5" y="-74.5" font-family="Helvetica,sans-Serif" font-size="10.00">Pb_Thermohydraulique_WC</text>
</a>
</g>
</g>
<!-- Node2&#45;&gt;Node1 -->
<g id="edge1" class="edge">
<title>Node2&#45;&gt;Node1</title>
<path fill="none" stroke="midnightblue" d="M195.5,-57.23C195.5,-48.59 195.5,-38.5 195.5,-30.52"/>
<polygon fill="midnightblue" stroke="midnightblue" points="192,-57.48 195.5,-67.48 199,-57.48 192,-57.48"/>
</g>
<!-- Node3 -->
<g id="node3" class="node">
<title>Node3</title>
<g id="a_node3"><a xlink:href="classPb__WC__base.html" target="_top" xlink:title="classe Pb_WC_base Cette classe est censee factoriser ce qui est commun a l&#39;ensemble des problemes wea...">
<polygon fill="white" stroke="black" points="100,-123.5 100,-142.5 179,-142.5 179,-123.5 100,-123.5"/>
<text text-anchor="middle" x="139.5" y="-130.5" font-family="Helvetica,sans-Serif" font-size="10.00">Pb_WC_base</text>
</a>
</g>
</g>
<!-- Node3&#45;&gt;Node2 -->
<g id="edge2" class="edge">
<title>Node3&#45;&gt;Node2</title>
<path fill="none" stroke="midnightblue" d="M155.83,-116.25C165.76,-106.67 178.09,-94.79 186.34,-86.83"/>
<polygon fill="midnightblue" stroke="midnightblue" points="153.27,-113.86 148.5,-123.32 158.13,-118.9 153.27,-113.86"/>
</g>
<!-- Node4 -->
<g id="node4" class="node">
<title>Node4</title>
<g id="a_node4"><a xlink:href="classPb__Dilatable__base.html" target="_top" xlink:title="classe Pb_Dilatable_base Cette classe est censee factoriser ce qui est commun a l&#39;ensemble des proble...">
<polygon fill="white" stroke="black" points="86,-179.5 86,-198.5 193,-198.5 193,-179.5 86,-179.5"/>
<text text-anchor="middle" x="139.5" y="-186.5" font-family="Helvetica,sans-Serif" font-size="10.00">Pb_Dilatable_base</text>
</a>
</g>
</g>
<!-- Node4&#45;&gt;Node3 -->
<g id="edge3" class="edge">
<title>Node4&#45;&gt;Node3</title>
<path fill="none" stroke="midnightblue" d="M139.5,-168.8C139.5,-159.91 139.5,-149.78 139.5,-142.75"/>
<polygon fill="midnightblue" stroke="midnightblue" points="136,-169.08 139.5,-179.08 143,-169.08 136,-169.08"/>
</g>
<!-- Node5 -->
<g id="node5" class="node">
<title>Node5</title>
<g id="a_node5"><a xlink:href="classPb__Fluide__base.html" target="_top" xlink:title="classe Pb_Fluide_base Cette classe a pour but de disposer d une classe amont pour la hierarchie des p...">
<polygon fill="white" stroke="black" points="93.5,-235.5 93.5,-254.5 185.5,-254.5 185.5,-235.5 93.5,-235.5"/>
<text text-anchor="middle" x="139.5" y="-242.5" font-family="Helvetica,sans-Serif" font-size="10.00">Pb_Fluide_base</text>
</a>
</g>
</g>
<!-- Node5&#45;&gt;Node4 -->
<g id="edge4" class="edge">
<title>Node5&#45;&gt;Node4</title>
<path fill="none" stroke="midnightblue" d="M139.5,-224.8C139.5,-215.91 139.5,-205.78 139.5,-198.75"/>
<polygon fill="midnightblue" stroke="midnightblue" points="136,-225.08 139.5,-235.08 143,-225.08 136,-225.08"/>
</g>
<!-- Node6 -->
<g id="node6" class="node">
<title>Node6</title>
<g id="a_node6"><a xlink:href="classProbleme__base.html" target="_top" xlink:title="classe Probleme_base C&#39;est un Probleme_U qui n&#39;est pas un couplage. Le role d&#39;un Probleme_base est la...">
<polygon fill="white" stroke="black" points="93.5,-291.5 93.5,-310.5 185.5,-310.5 185.5,-291.5 93.5,-291.5"/>
<text text-anchor="middle" x="139.5" y="-298.5" font-family="Helvetica,sans-Serif" font-size="10.00">Probleme_base</text>
</a>
</g>
</g>
<!-- Node6&#45;&gt;Node5 -->
<g id="edge5" class="edge">
<title>Node6&#45;&gt;Node5</title>
<path fill="none" stroke="midnightblue" d="M139.5,-280.8C139.5,-271.91 139.5,-261.78 139.5,-254.75"/>
<polygon fill="midnightblue" stroke="midnightblue" points="136,-281.08 139.5,-291.08 143,-281.08 136,-281.08"/>
</g>
<!-- Node7 -->
<g id="node7" class="node">
<title>Node7</title>
<g id="a_node7"><a xlink:href="classChamps__compris__interface.html" target="_top" xlink:title="classe Champs_compris_interface Cette classe contient une interface de methodes destinees a gerer les...">
<polygon fill="white" stroke="black" points="0,-347.5 0,-366.5 149,-366.5 149,-347.5 0,-347.5"/>
<text text-anchor="middle" x="74.5" y="-354.5" font-family="Helvetica,sans-Serif" font-size="10.00">Champs_compris_interface</text>
</a>
</g>
</g>
<!-- Node7&#45;&gt;Node6 -->
<g id="edge6" class="edge">
<title>Node7&#45;&gt;Node6</title>
<path fill="none" stroke="midnightblue" d="M92.77,-340.82C104.42,-331.15 119.1,-318.95 128.87,-310.83"/>
<polygon fill="midnightblue" stroke="midnightblue" points="90.4,-338.24 84.94,-347.32 94.87,-343.63 90.4,-338.24"/>
</g>
<!-- Node8 -->
<g id="node8" class="node">
<title>Node8</title>
<g id="a_node8"><a xlink:href="classProbleme__U.html" target="_top" xlink:title="classe Probleme_U Cette classe ajoute des specificites TRUST a l&#39;interface generale definie dans la c...">
<polygon fill="white" stroke="black" points="167.5,-347.5 167.5,-366.5 243.5,-366.5 243.5,-347.5 167.5,-347.5"/>
<text text-anchor="middle" x="205.5" y="-354.5" font-family="Helvetica,sans-Serif" font-size="10.00">Probleme_U</text>
</a>
</g>
</g>
<!-- Node8&#45;&gt;Node6 -->
<g id="edge7" class="edge">
<title>Node8&#45;&gt;Node6</title>
<path fill="none" stroke="midnightblue" d="M186.95,-340.82C175.12,-331.15 160.21,-318.95 150.3,-310.83"/>
<polygon fill="midnightblue" stroke="midnightblue" points="184.94,-343.7 194.9,-347.32 189.37,-338.28 184.94,-343.7"/>
</g>
<!-- Node9 -->
<g id="node9" class="node">
<title>Node9</title>
<g id="a_node9"><a xlink:href="classObjet__U.html" target="_top" xlink:title="classe Objet_U Cette classe est la classe de base des Objets de TRUST Dans les classes derivees de Ob...">
<polygon fill="white" stroke="black" points="177.5,-403.5 177.5,-422.5 233.5,-422.5 233.5,-403.5 177.5,-403.5"/>
<text text-anchor="middle" x="205.5" y="-410.5" font-family="Helvetica,sans-Serif" font-size="10.00">Objet_U</text>
</a>
</g>
</g>
<!-- Node9&#45;&gt;Node8 -->
<g id="edge8" class="edge">
<title>Node9&#45;&gt;Node8</title>
<path fill="none" stroke="midnightblue" d="M205.5,-392.8C205.5,-383.91 205.5,-373.78 205.5,-366.75"/>
<polygon fill="midnightblue" stroke="midnightblue" points="202,-393.08 205.5,-403.08 209,-393.08 202,-393.08"/>
</g>
<!-- Node10 -->
<g id="node10" class="node">
<title>Node10</title>
<g id="a_node10"><a xlink:href="classProcess.html" target="_top" xlink:title="Classe de base de TRUST (notamment Objet_U). Elle fournit quelques services de base accessibles de pa...">
<polygon fill="white" stroke="black" points="178.5,-459.5 178.5,-478.5 232.5,-478.5 232.5,-459.5 178.5,-459.5"/>
<text text-anchor="middle" x="205.5" y="-466.5" font-family="Helvetica,sans-Serif" font-size="10.00">Process</text>
</a>
</g>
</g>
<!-- Node10&#45;&gt;Node9 -->
<g id="edge9" class="edge">
<title>Node10&#45;&gt;Node9</title>
<path fill="none" stroke="midnightblue" d="M205.5,-448.8C205.5,-439.91 205.5,-429.78 205.5,-422.75"/>
<polygon fill="midnightblue" stroke="midnightblue" points="202,-449.08 205.5,-459.08 209,-449.08 202,-449.08"/>
</g>
<!-- Node11 -->
<g id="node11" class="node">
<title>Node11</title>
<g id="a_node11"><a xlink:href="classPb__Dilatable__Proto.html" target="_top" xlink:title=" ">
<polygon fill="white" stroke="black" points="197,-123.5 197,-142.5 306,-142.5 306,-123.5 197,-123.5"/>
<text text-anchor="middle" x="251.5" y="-130.5" font-family="Helvetica,sans-Serif" font-size="10.00">Pb_Dilatable_Proto</text>
</a>
</g>
</g>
<!-- Node11&#45;&gt;Node2 -->
<g id="edge10" class="edge">
<title>Node11&#45;&gt;Node2</title>
<path fill="none" stroke="midnightblue" d="M235.17,-116.25C225.24,-106.67 212.91,-94.79 204.66,-86.83"/>
<polygon fill="midnightblue" stroke="midnightblue" points="232.87,-118.9 242.5,-123.32 237.73,-113.86 232.87,-118.9"/>
</g>
</g>
</svg>
