<?xml version="1.0" encoding="UTF-8" standalone="no"?>
<!DOCTYPE svg PUBLIC "-//W3C//DTD SVG 1.1//EN"
 "http://www.w3.org/Graphics/SVG/1.1/DTD/svg11.dtd">
<!-- Generated by graphviz version 2.43.0 (0)
 -->
<!-- Title: Pb_MED Pages: 1 -->
<svg width="252pt" height="252pt"
 viewBox="0.00 0.00 251.50 252.00" xmlns="http://www.w3.org/2000/svg" xmlns:xlink="http://www.w3.org/1999/xlink">
<g id="graph0" class="graph" transform="scale(1 1) rotate(0) translate(4 248)">
<title>Pb_MED</title>
<polygon fill="white" stroke="transparent" points="-4,4 -4,-248 247.5,-248 247.5,4 -4,4"/>
<!-- Node1 -->
<g id="node1" class="node">
<title>Node1</title>
<g id="a_node1"><a xlink:title="Classe Pb_MED Classe pour postraiter relire des fichiers med et les postraiter.">
<polygon fill="#bfbfbf" stroke="black" points="111.5,-0.5 111.5,-19.5 167.5,-19.5 167.5,-0.5 111.5,-0.5"/>
<text text-anchor="middle" x="139.5" y="-7.5" font-family="Helvetica,sans-Serif" font-size="10.00">Pb_MED</text>
</a>
</g>
</g>
<!-- Node2 -->
<g id="node2" class="node">
<title>Node2</title>
<g id="a_node2"><a xlink:href="classProbleme__base.html" target="_top" xlink:title="classe Probleme_base C&#39;est un Probleme_U qui n&#39;est pas un couplage. Le role d&#39;un Probleme_base est la...">
<polygon fill="white" stroke="black" points="93.5,-56.5 93.5,-75.5 185.5,-75.5 185.5,-56.5 93.5,-56.5"/>
<text text-anchor="middle" x="139.5" y="-63.5" font-family="Helvetica,sans-Serif" font-size="10.00">Probleme_base</text>
</a>
</g>
</g>
<!-- Node2&#45;&gt;Node1 -->
<g id="edge1" class="edge">
<title>Node2&#45;&gt;Node1</title>
<path fill="none" stroke="midnightblue" d="M139.5,-45.8C139.5,-36.91 139.5,-26.78 139.5,-19.75"/>
<polygon fill="midnightblue" stroke="midnightblue" points="136,-46.08 139.5,-56.08 143,-46.08 136,-46.08"/>
</g>
<!-- Node3 -->
<g id="node3" class="node">
<title>Node3</title>
<g id="a_node3"><a xlink:href="classChamps__compris__interface.html" target="_top" xlink:title="classe Champs_compris_interface Cette classe contient une interface de methodes destinees a gerer les...">
<polygon fill="white" stroke="black" points="0,-112.5 0,-131.5 149,-131.5 149,-112.5 0,-112.5"/>
<text text-anchor="middle" x="74.5" y="-119.5" font-family="Helvetica,sans-Serif" font-size="10.00">Champs_compris_interface</text>
</a>
</g>
</g>
<!-- Node3&#45;&gt;Node2 -->
<g id="edge2" class="edge">
<title>Node3&#45;&gt;Node2</title>
<path fill="none" stroke="midnightblue" d="M92.77,-105.82C104.42,-96.15 119.1,-83.95 128.87,-75.83"/>
<polygon fill="midnightblue" stroke="midnightblue" points="90.4,-103.24 84.94,-112.32 94.87,-108.63 90.4,-103.24"/>
</g>
<!-- Node4 -->
<g id="node4" class="node">
<title>Node4</title>
<g id="a_node4"><a xlink:href="classProbleme__U.html" target="_top" xlink:title="classe Probleme_U Cette classe ajoute des specificites TRUST a l&#39;interface generale definie dans la c...">
<polygon fill="white" stroke="black" points="167.5,-112.5 167.5,-131.5 243.5,-131.5 243.5,-112.5 167.5,-112.5"/>
<text text-anchor="middle" x="205.5" y="-119.5" font-family="Helvetica,sans-Serif" font-size="10.00">Probleme_U</text>
</a>
</g>
</g>
<!-- Node4&#45;&gt;Node2 -->
<g id="edge3" class="edge">
<title>Node4&#45;&gt;Node2</title>
<path fill="none" stroke="midnightblue" d="M186.95,-105.82C175.12,-96.15 160.21,-83.95 150.3,-75.83"/>
<polygon fill="midnightblue" stroke="midnightblue" points="184.94,-108.7 194.9,-112.32 189.37,-103.28 184.94,-108.7"/>
</g>
<!-- Node5 -->
<g id="node5" class="node">
<title>Node5</title>
<g id="a_node5"><a xlink:href="classObjet__U.html" target="_top" xlink:title="classe Objet_U Cette classe est la classe de base des Objets de TRUST Dans les classes derivees de Ob...">
<polygon fill="white" stroke="black" points="177.5,-168.5 177.5,-187.5 233.5,-187.5 233.5,-168.5 177.5,-168.5"/>
<text text-anchor="middle" x="205.5" y="-175.5" font-family="Helvetica,sans-Serif" font-size="10.00">Objet_U</text>
</a>
</g>
</g>
<!-- Node5&#45;&gt;Node4 -->
<g id="edge4" class="edge">
<title>Node5&#45;&gt;Node4</title>
<path fill="none" stroke="midnightblue" d="M205.5,-157.8C205.5,-148.91 205.5,-138.78 205.5,-131.75"/>
<polygon fill="midnightblue" stroke="midnightblue" points="202,-158.08 205.5,-168.08 209,-158.08 202,-158.08"/>
</g>
<!-- Node6 -->
<g id="node6" class="node">
<title>Node6</title>
<g id="a_node6"><a xlink:href="classProcess.html" target="_top" xlink:title="Classe de base de TRUST (notamment Objet_U). Elle fournit quelques services de base accessibles de pa...">
<polygon fill="white" stroke="black" points="178.5,-224.5 178.5,-243.5 232.5,-243.5 232.5,-224.5 178.5,-224.5"/>
<text text-anchor="middle" x="205.5" y="-231.5" font-family="Helvetica,sans-Serif" font-size="10.00">Process</text>
</a>
</g>
</g>
<!-- Node6&#45;&gt;Node5 -->
<g id="edge5" class="edge">
<title>Node6&#45;&gt;Node5</title>
<path fill="none" stroke="midnightblue" d="M205.5,-213.8C205.5,-204.91 205.5,-194.78 205.5,-187.75"/>
<polygon fill="midnightblue" stroke="midnightblue" points="202,-214.08 205.5,-224.08 209,-214.08 202,-214.08"/>
</g>
</g>
</svg>
