<?xml version="1.0" encoding="UTF-8" standalone="no"?>
<!DOCTYPE svg PUBLIC "-//W3C//DTD SVG 1.1//EN"
 "http://www.w3.org/Graphics/SVG/1.1/DTD/svg11.dtd">
<!-- Generated by graphviz version 2.43.0 (0)
 -->
<!-- Title: Ref_Champ_P0_VDF Pages: 1 -->
<svg width="124pt" height="252pt"
 viewBox="0.00 0.00 124.00 252.00" xmlns="http://www.w3.org/2000/svg" xmlns:xlink="http://www.w3.org/1999/xlink">
<g id="graph0" class="graph" transform="scale(1 1) rotate(0) translate(4 248)">
<title>Ref_Champ_P0_VDF</title>
<polygon fill="white" stroke="transparent" points="-4,4 -4,-248 120,-248 120,4 -4,4"/>
<!-- Node1 -->
<g id="node1" class="node">
<title>Node1</title>
<g id="a_node1"><a xlink:title=" ">
<polygon fill="#bfbfbf" stroke="black" points="0,-0.5 0,-19.5 116,-19.5 116,-0.5 0,-0.5"/>
<text text-anchor="middle" x="58" y="-7.5" font-family="Helvetica,sans-Serif" font-size="10.00">Ref_Champ_P0_VDF</text>
</a>
</g>
</g>
<!-- Node2 -->
<g id="node2" class="node">
<title>Node2</title>
<g id="a_node2"><a xlink:href="classRef__.html" target="_top" xlink:title="classe Ref_ un type qui permet d&#39;acceder a un objet de la classe Objet_U ou de l&#39;une quelconque des c...">
<polygon fill="white" stroke="black" points="39,-56.5 39,-75.5 77,-75.5 77,-56.5 39,-56.5"/>
<text text-anchor="middle" x="58" y="-63.5" font-family="Helvetica,sans-Serif" font-size="10.00">Ref_</text>
</a>
</g>
</g>
<!-- Node2&#45;&gt;Node1 -->
<g id="edge1" class="edge">
<title>Node2&#45;&gt;Node1</title>
<path fill="none" stroke="midnightblue" d="M58,-45.8C58,-36.91 58,-26.78 58,-19.75"/>
<polygon fill="midnightblue" stroke="midnightblue" points="54.5,-46.08 58,-56.08 61.5,-46.08 54.5,-46.08"/>
</g>
<!-- Node3 -->
<g id="node3" class="node">
<title>Node3</title>
<g id="a_node3"><a xlink:href="classO__U__Ptr.html" target="_top" xlink:title="Pointeur sur un Objet_U. Le constructeur par defaut construit un pointeur &quot;nul&quot;. O_U_Ptr_H.">
<polygon fill="white" stroke="black" points="30,-112.5 30,-131.5 86,-131.5 86,-112.5 30,-112.5"/>
<text text-anchor="middle" x="58" y="-119.5" font-family="Helvetica,sans-Serif" font-size="10.00">O_U_Ptr</text>
</a>
</g>
</g>
<!-- Node3&#45;&gt;Node2 -->
<g id="edge2" class="edge">
<title>Node3&#45;&gt;Node2</title>
<path fill="none" stroke="midnightblue" d="M58,-101.8C58,-92.91 58,-82.78 58,-75.75"/>
<polygon fill="midnightblue" stroke="midnightblue" points="54.5,-102.08 58,-112.08 61.5,-102.08 54.5,-102.08"/>
</g>
<!-- Node4 -->
<g id="node4" class="node">
<title>Node4</title>
<g id="a_node4"><a xlink:href="classObjet__U.html" target="_top" xlink:title="classe Objet_U Cette classe est la classe de base des Objets de TRUST Dans les classes derivees de Ob...">
<polygon fill="white" stroke="black" points="30,-168.5 30,-187.5 86,-187.5 86,-168.5 30,-168.5"/>
<text text-anchor="middle" x="58" y="-175.5" font-family="Helvetica,sans-Serif" font-size="10.00">Objet_U</text>
</a>
</g>
</g>
<!-- Node4&#45;&gt;Node3 -->
<g id="edge3" class="edge">
<title>Node4&#45;&gt;Node3</title>
<path fill="none" stroke="midnightblue" d="M58,-157.8C58,-148.91 58,-138.78 58,-131.75"/>
<polygon fill="midnightblue" stroke="midnightblue" points="54.5,-158.08 58,-168.08 61.5,-158.08 54.5,-158.08"/>
</g>
<!-- Node5 -->
<g id="node5" class="node">
<title>Node5</title>
<g id="a_node5"><a xlink:href="classProcess.html" target="_top" xlink:title="Classe de base de TRUST (notamment Objet_U). Elle fournit quelques services de base accessibles de pa...">
<polygon fill="white" stroke="black" points="31,-224.5 31,-243.5 85,-243.5 85,-224.5 31,-224.5"/>
<text text-anchor="middle" x="58" y="-231.5" font-family="Helvetica,sans-Serif" font-size="10.00">Process</text>
</a>
</g>
</g>
<!-- Node5&#45;&gt;Node4 -->
<g id="edge4" class="edge">
<title>Node5&#45;&gt;Node4</title>
<path fill="none" stroke="midnightblue" d="M58,-213.8C58,-204.91 58,-194.78 58,-187.75"/>
<polygon fill="midnightblue" stroke="midnightblue" points="54.5,-214.08 58,-224.08 61.5,-214.08 54.5,-214.08"/>
</g>
</g>
</svg>
