<?xml version="1.0" encoding="UTF-8" standalone="no"?>
<!DOCTYPE svg PUBLIC "-//W3C//DTD SVG 1.1//EN"
 "http://www.w3.org/Graphics/SVG/1.1/DTD/svg11.dtd">
<!-- Generated by graphviz version 2.43.0 (0)
 -->
<!-- Title: Source_Generique_base Pages: 1 -->
<svg width="725pt" height="154pt"
 viewBox="0.00 0.00 725.00 153.50" xmlns="http://www.w3.org/2000/svg" xmlns:xlink="http://www.w3.org/1999/xlink">
<g id="graph0" class="graph" transform="scale(1 1) rotate(0) translate(4 149.5)">
<title>Source_Generique_base</title>
<polygon fill="white" stroke="transparent" points="-4,4 -4,-149.5 721,-149.5 721,4 -4,4"/>
<!-- Node1 -->
<g id="node1" class="node">
<title>Node1</title>
<g id="a_node1"><a xlink:title="classe Source_Generique_base Cette classe est la base de la hierarchie des sources portant un Champ_G...">
<polygon fill="#bfbfbf" stroke="black" points="389,-57.5 389,-76.5 523,-76.5 523,-57.5 389,-57.5"/>
<text text-anchor="middle" x="456" y="-64.5" font-family="Helvetica,sans-Serif" font-size="10.00">Source_Generique_base</text>
</a>
</g>
</g>
<!-- Node7 -->
<g id="node7" class="node">
<title>Node7</title>
<g id="a_node7"><a xlink:href="classSource__Generique__Face__PolyMAC.html" target="_top" xlink:title="class Source_Generique_Face_PolyMAC&lt;br&gt;.SECTION voir Source_Generique_base">
<polygon fill="white" stroke="black" points="572,-115 572,-145 704,-145 704,-115 572,-115"/>
<text text-anchor="start" x="580" y="-133" font-family="Helvetica,sans-Serif" font-size="10.00">Source_Generique_Face</text>
<text text-anchor="middle" x="638" y="-122" font-family="Helvetica,sans-Serif" font-size="10.00">_PolyMAC</text>
</a>
</g>
</g>
<!-- Node1&#45;&gt;Node7 -->
<g id="edge6" class="edge">
<title>Node1&#45;&gt;Node7</title>
<path fill="none" stroke="midnightblue" d="M491.11,-80.16C510.86,-87.66 536.24,-97.12 559,-105 568.54,-108.3 578.79,-111.7 588.62,-114.88"/>
<polygon fill="midnightblue" stroke="midnightblue" points="492.21,-76.83 481.62,-76.54 489.71,-83.37 492.21,-76.83"/>
</g>
<!-- Node8 -->
<g id="node8" class="node">
<title>Node8</title>
<g id="a_node8"><a xlink:href="classSource__Generique__P0__Elem.html" target="_top" xlink:title="class Source_Generique_VDF_Elem&lt;br&gt;.SECTION voir Source_Generique_base">
<polygon fill="white" stroke="black" points="562,-76.5 562,-95.5 714,-95.5 714,-76.5 562,-76.5"/>
<text text-anchor="middle" x="638" y="-83.5" font-family="Helvetica,sans-Serif" font-size="10.00">Source_Generique_P0_Elem</text>
</a>
</g>
</g>
<!-- Node1&#45;&gt;Node8 -->
<g id="edge7" class="edge">
<title>Node1&#45;&gt;Node8</title>
<path fill="none" stroke="midnightblue" d="M533.2,-75.04C542.69,-76.05 552.4,-77.07 561.87,-78.07"/>
<polygon fill="midnightblue" stroke="midnightblue" points="533.32,-71.54 523,-73.97 532.58,-78.5 533.32,-71.54"/>
</g>
<!-- Node9 -->
<g id="node9" class="node">
<title>Node9</title>
<g id="a_node9"><a xlink:href="classSource__Generique__VDF__Face.html" target="_top" xlink:title="class Source_Generique_VDF_Face&lt;br&gt;.SECTION voir Source_Generique_base">
<polygon fill="white" stroke="black" points="559,-38.5 559,-57.5 717,-57.5 717,-38.5 559,-38.5"/>
<text text-anchor="middle" x="638" y="-45.5" font-family="Helvetica,sans-Serif" font-size="10.00">Source_Generique_VDF_Face</text>
</a>
</g>
</g>
<!-- Node1&#45;&gt;Node9 -->
<g id="edge8" class="edge">
<title>Node1&#45;&gt;Node9</title>
<path fill="none" stroke="midnightblue" d="M533.22,-58.95C541.68,-58.06 550.31,-57.15 558.79,-56.26"/>
<polygon fill="midnightblue" stroke="midnightblue" points="532.58,-55.5 523,-60.03 533.32,-62.46 532.58,-55.5"/>
</g>
<!-- Node10 -->
<g id="node10" class="node">
<title>Node10</title>
<g id="a_node10"><a xlink:href="classSource__Generique__VEF.html" target="_top" xlink:title="class Source_Generique_VEF&lt;br&gt;.SECTION voir Source_Generique_base">
<polygon fill="white" stroke="black" points="573.5,-0.5 573.5,-19.5 702.5,-19.5 702.5,-0.5 573.5,-0.5"/>
<text text-anchor="middle" x="638" y="-7.5" font-family="Helvetica,sans-Serif" font-size="10.00">Source_Generique_VEF</text>
</a>
</g>
</g>
<!-- Node1&#45;&gt;Node10 -->
<g id="edge9" class="edge">
<title>Node1&#45;&gt;Node10</title>
<path fill="none" stroke="midnightblue" d="M489.72,-53.69C509.57,-45.9 535.51,-36.21 559,-29 570.19,-25.57 582.44,-22.34 593.84,-19.55"/>
<polygon fill="midnightblue" stroke="midnightblue" points="488.23,-50.51 480.23,-57.45 490.81,-57.02 488.23,-50.51"/>
</g>
<!-- Node2 -->
<g id="node2" class="node">
<title>Node2</title>
<g id="a_node2"><a xlink:href="classSource__base.html" target="_top" xlink:title="classe Source_base Un objet Source_base est un terme apparaissant au second membre d&#39;une equation....">
<polygon fill="white" stroke="black" points="275,-57.5 275,-76.5 353,-76.5 353,-57.5 275,-57.5"/>
<text text-anchor="middle" x="314" y="-64.5" font-family="Helvetica,sans-Serif" font-size="10.00">Source_base</text>
</a>
</g>
</g>
<!-- Node2&#45;&gt;Node1 -->
<g id="edge1" class="edge">
<title>Node2&#45;&gt;Node1</title>
<path fill="none" stroke="midnightblue" d="M363.37,-67C371.58,-67 380.22,-67 388.79,-67"/>
<polygon fill="midnightblue" stroke="midnightblue" points="363.26,-63.5 353.26,-67 363.26,-70.5 363.26,-63.5"/>
</g>
<!-- Node3 -->
<g id="node3" class="node">
<title>Node3</title>
<g id="a_node3"><a xlink:href="classChamps__compris__interface.html" target="_top" xlink:title="classe Champs_compris_interface Cette classe contient une interface de methodes destinees a gerer les...">
<polygon fill="white" stroke="black" points="90,-95.5 90,-114.5 239,-114.5 239,-95.5 90,-95.5"/>
<text text-anchor="middle" x="164.5" y="-102.5" font-family="Helvetica,sans-Serif" font-size="10.00">Champs_compris_interface</text>
</a>
</g>
</g>
<!-- Node3&#45;&gt;Node2 -->
<g id="edge2" class="edge">
<title>Node3&#45;&gt;Node2</title>
<path fill="none" stroke="midnightblue" d="M212.51,-92.89C233.06,-87.6 256.8,-81.48 276.05,-76.52"/>
<polygon fill="midnightblue" stroke="midnightblue" points="211.53,-89.53 202.72,-95.41 213.28,-96.31 211.53,-89.53"/>
</g>
<!-- Node4 -->
<g id="node4" class="node">
<title>Node4</title>
<g id="a_node4"><a xlink:href="classMorEqn.html" target="_top" xlink:title="classe MorEqn Classe qui regroupe les fonctionnalites de liaison avec une Equation....">
<polygon fill="white" stroke="black" points="138,-57.5 138,-76.5 191,-76.5 191,-57.5 138,-57.5"/>
<text text-anchor="middle" x="164.5" y="-64.5" font-family="Helvetica,sans-Serif" font-size="10.00">MorEqn</text>
</a>
</g>
</g>
<!-- Node4&#45;&gt;Node2 -->
<g id="edge3" class="edge">
<title>Node4&#45;&gt;Node2</title>
<path fill="none" stroke="midnightblue" d="M201.25,-67C223.52,-67 252.16,-67 274.87,-67"/>
<polygon fill="midnightblue" stroke="midnightblue" points="201.19,-63.5 191.19,-67 201.19,-70.5 201.19,-63.5"/>
</g>
<!-- Node5 -->
<g id="node5" class="node">
<title>Node5</title>
<g id="a_node5"><a xlink:href="classObjet__U.html" target="_top" xlink:title="classe Objet_U Cette classe est la classe de base des Objets de TRUST Dans les classes derivees de Ob...">
<polygon fill="white" stroke="black" points="136.5,-19.5 136.5,-38.5 192.5,-38.5 192.5,-19.5 136.5,-19.5"/>
<text text-anchor="middle" x="164.5" y="-26.5" font-family="Helvetica,sans-Serif" font-size="10.00">Objet_U</text>
</a>
</g>
</g>
<!-- Node5&#45;&gt;Node2 -->
<g id="edge4" class="edge">
<title>Node5&#45;&gt;Node2</title>
<path fill="none" stroke="midnightblue" d="M202.42,-38.51C224.94,-44.31 253.61,-51.7 276.12,-57.5"/>
<polygon fill="midnightblue" stroke="midnightblue" points="203.11,-35.08 192.55,-35.97 201.36,-41.85 203.11,-35.08"/>
</g>
<!-- Node6 -->
<g id="node6" class="node">
<title>Node6</title>
<g id="a_node6"><a xlink:href="classProcess.html" target="_top" xlink:title="Classe de base de TRUST (notamment Objet_U). Elle fournit quelques services de base accessibles de pa...">
<polygon fill="white" stroke="black" points="0,-19.5 0,-38.5 54,-38.5 54,-19.5 0,-19.5"/>
<text text-anchor="middle" x="27" y="-26.5" font-family="Helvetica,sans-Serif" font-size="10.00">Process</text>
</a>
</g>
</g>
<!-- Node6&#45;&gt;Node5 -->
<g id="edge5" class="edge">
<title>Node6&#45;&gt;Node5</title>
<path fill="none" stroke="midnightblue" d="M64.34,-29C86.89,-29 115.4,-29 136.06,-29"/>
<polygon fill="midnightblue" stroke="midnightblue" points="64.13,-25.5 54.13,-29 64.13,-32.5 64.13,-25.5"/>
</g>
</g>
</svg>
