<?xml version="1.0" encoding="UTF-8" standalone="no"?>
<!DOCTYPE svg PUBLIC "-//W3C//DTD SVG 1.1//EN"
 "http://www.w3.org/Graphics/SVG/1.1/DTD/svg11.dtd">
<!-- Generated by graphviz version 2.43.0 (0)
 -->
<!-- Title: Op_Conv_VDF&lt; OP_TYPE &gt; Pages: 1 -->
<svg width="789pt" height="444pt"
 viewBox="0.00 0.00 789.00 443.50" xmlns="http://www.w3.org/2000/svg" xmlns:xlink="http://www.w3.org/1999/xlink">
<g id="graph0" class="graph" transform="scale(1 1) rotate(0) translate(4 439.5)">
<title>Op_Conv_VDF&lt; OP_TYPE &gt;</title>
<polygon fill="white" stroke="transparent" points="-4,4 -4,-439.5 785,-439.5 785,4 -4,4"/>
<!-- Node1 -->
<g id="node1" class="node">
<title>Node1</title>
<g id="a_node1"><a xlink:title=" ">
<polygon fill="#bfbfbf" stroke="black" points="123,-202 123,-221 274,-221 274,-202 123,-202"/>
<text text-anchor="middle" x="198.5" y="-209" font-family="Helvetica,sans-Serif" font-size="10.00">Op_Conv_VDF&lt; OP_TYPE &gt;</text>
</a>
</g>
</g>
<!-- Node4 -->
<g id="node4" class="node">
<title>Node4</title>
<g id="a_node4"><a xlink:href="classOp__Conv__VDF.html" target="_top" xlink:title=" ">
<polygon fill="white" stroke="black" points="437,-392.5 437,-422.5 577,-422.5 577,-392.5 437,-392.5"/>
<text text-anchor="start" x="445" y="-410.5" font-family="Helvetica,sans-Serif" font-size="10.00">Op_Conv_VDF&lt; Op_Conv</text>
<text text-anchor="middle" x="507" y="-399.5" font-family="Helvetica,sans-Serif" font-size="10.00">_Amont_VDF_Elem &gt;</text>
</a>
</g>
</g>
<!-- Node1&#45;&gt;Node4 -->
<g id="edge3" class="edge">
<title>Node1&#45;&gt;Node4</title>
<path fill="none" stroke="orange" stroke-dasharray="5,2" d="M204.03,-230.92C213.53,-266.88 239.16,-343.44 292,-379.5 334.09,-408.22 391.86,-414.33 436.76,-413.74"/>
<polygon fill="orange" stroke="orange" points="207.41,-230.01 201.59,-221.16 200.62,-231.71 207.41,-230.01"/>
<text text-anchor="start" x="295" y="-427.5" font-family="Helvetica,sans-Serif" font-size="10.00"> &lt; Op_Conv_Amont_VDF</text>
<text text-anchor="middle" x="355.5" y="-416.5" font-family="Helvetica,sans-Serif" font-size="10.00">_Elem &gt;</text>
</g>
<!-- Node6 -->
<g id="node6" class="node">
<title>Node6</title>
<g id="a_node6"><a xlink:href="classOp__Conv__VDF.html" target="_top" xlink:title=" ">
<polygon fill="white" stroke="black" points="437,-343.5 437,-373.5 577,-373.5 577,-343.5 437,-343.5"/>
<text text-anchor="start" x="445" y="-361.5" font-family="Helvetica,sans-Serif" font-size="10.00">Op_Conv_VDF&lt; Op_Conv</text>
<text text-anchor="middle" x="507" y="-350.5" font-family="Helvetica,sans-Serif" font-size="10.00">_Amont_VDF_Face &gt;</text>
</a>
</g>
</g>
<!-- Node1&#45;&gt;Node6 -->
<g id="edge5" class="edge">
<title>Node1&#45;&gt;Node6</title>
<path fill="none" stroke="orange" stroke-dasharray="5,2" d="M207.99,-230.5C221.45,-258.15 250.48,-308.75 292,-332.5 316.08,-346.27 384.04,-352.81 436.98,-355.88"/>
<polygon fill="orange" stroke="orange" points="211.02,-228.7 203.6,-221.13 204.68,-231.67 211.02,-228.7"/>
<text text-anchor="start" x="295" y="-367.5" font-family="Helvetica,sans-Serif" font-size="10.00"> &lt; Op_Conv_Amont_VDF</text>
<text text-anchor="middle" x="355.5" y="-356.5" font-family="Helvetica,sans-Serif" font-size="10.00">_Face &gt;</text>
</g>
<!-- Node8 -->
<g id="node8" class="node">
<title>Node8</title>
<g id="a_node8"><a xlink:href="classOp__Conv__VDF.html" target="_top" xlink:title=" ">
<polygon fill="white" stroke="black" points="437,-294.5 437,-324.5 577,-324.5 577,-294.5 437,-294.5"/>
<text text-anchor="start" x="445" y="-312.5" font-family="Helvetica,sans-Serif" font-size="10.00">Op_Conv_VDF&lt; Op_Conv</text>
<text text-anchor="middle" x="507" y="-301.5" font-family="Helvetica,sans-Serif" font-size="10.00">_Centre4_VDF_Elem &gt;</text>
</a>
</g>
</g>
<!-- Node1&#45;&gt;Node8 -->
<g id="edge7" class="edge">
<title>Node1&#45;&gt;Node8</title>
<path fill="none" stroke="orange" stroke-dasharray="5,2" d="M216.92,-228.51C234.39,-244.47 262.81,-267.62 292,-279.5 338.04,-298.24 393.75,-305.62 436.79,-308.38"/>
<polygon fill="orange" stroke="orange" points="218.96,-225.62 209.27,-221.33 214.17,-230.72 218.96,-225.62"/>
<text text-anchor="start" x="292" y="-320.5" font-family="Helvetica,sans-Serif" font-size="10.00"> &lt; Op_Conv_Centre4_VDF</text>
<text text-anchor="middle" x="355.5" y="-309.5" font-family="Helvetica,sans-Serif" font-size="10.00">_Elem &gt;</text>
</g>
<!-- Node10 -->
<g id="node10" class="node">
<title>Node10</title>
<g id="a_node10"><a xlink:href="classOp__Conv__VDF.html" target="_top" xlink:title=" ">
<polygon fill="white" stroke="black" points="437,-245.5 437,-275.5 577,-275.5 577,-245.5 437,-245.5"/>
<text text-anchor="start" x="445" y="-263.5" font-family="Helvetica,sans-Serif" font-size="10.00">Op_Conv_VDF&lt; Op_Conv</text>
<text text-anchor="middle" x="507" y="-252.5" font-family="Helvetica,sans-Serif" font-size="10.00">_Centre4_VDF_Face &gt;</text>
</a>
</g>
</g>
<!-- Node1&#45;&gt;Node10 -->
<g id="edge9" class="edge">
<title>Node1&#45;&gt;Node10</title>
<path fill="none" stroke="orange" stroke-dasharray="5,2" d="M239.71,-223.8C255.84,-228.36 274.68,-233.21 292,-236.5 339.93,-245.61 394.6,-251.67 436.69,-255.42"/>
<polygon fill="orange" stroke="orange" points="240.64,-220.42 230.06,-221.02 238.7,-227.15 240.64,-220.42"/>
<text text-anchor="start" x="292" y="-267.5" font-family="Helvetica,sans-Serif" font-size="10.00"> &lt; Op_Conv_Centre4_VDF</text>
<text text-anchor="middle" x="355.5" y="-256.5" font-family="Helvetica,sans-Serif" font-size="10.00">_Face &gt;</text>
</g>
<!-- Node12 -->
<g id="node12" class="node">
<title>Node12</title>
<g id="a_node12"><a xlink:href="classOp__Conv__VDF.html" target="_top" xlink:title=" ">
<polygon fill="white" stroke="black" points="437,-196.5 437,-226.5 577,-226.5 577,-196.5 437,-196.5"/>
<text text-anchor="start" x="445" y="-214.5" font-family="Helvetica,sans-Serif" font-size="10.00">Op_Conv_VDF&lt; Op_Conv</text>
<text text-anchor="middle" x="507" y="-203.5" font-family="Helvetica,sans-Serif" font-size="10.00">_Centre_VDF_Elem &gt;</text>
</a>
</g>
</g>
<!-- Node1&#45;&gt;Node12 -->
<g id="edge11" class="edge">
<title>Node1&#45;&gt;Node12</title>
<path fill="none" stroke="orange" stroke-dasharray="5,2" d="M284.16,-211.5C332.22,-211.5 391.63,-211.5 436.86,-211.5"/>
<polygon fill="orange" stroke="orange" points="284.09,-208 274.09,-211.5 284.09,-215 284.09,-208"/>
<text text-anchor="start" x="295" y="-225.5" font-family="Helvetica,sans-Serif" font-size="10.00"> &lt; Op_Conv_Centre_VDF</text>
<text text-anchor="middle" x="355.5" y="-214.5" font-family="Helvetica,sans-Serif" font-size="10.00">_Elem &gt;</text>
</g>
<!-- Node14 -->
<g id="node14" class="node">
<title>Node14</title>
<g id="a_node14"><a xlink:href="classOp__Conv__VDF.html" target="_top" xlink:title=" ">
<polygon fill="white" stroke="black" points="437,-147.5 437,-177.5 577,-177.5 577,-147.5 437,-147.5"/>
<text text-anchor="start" x="445" y="-165.5" font-family="Helvetica,sans-Serif" font-size="10.00">Op_Conv_VDF&lt; Op_Conv</text>
<text text-anchor="middle" x="507" y="-154.5" font-family="Helvetica,sans-Serif" font-size="10.00">_Centre_VDF_Face &gt;</text>
</a>
</g>
</g>
<!-- Node1&#45;&gt;Node14 -->
<g id="edge13" class="edge">
<title>Node1&#45;&gt;Node14</title>
<path fill="none" stroke="orange" stroke-dasharray="5,2" d="M238.54,-198.96C254.91,-194.12 274.23,-188.93 292,-185.5 339.88,-176.26 394.56,-170.47 436.66,-167"/>
<polygon fill="orange" stroke="orange" points="237.34,-195.67 228.78,-201.92 239.36,-202.37 237.34,-195.67"/>
<text text-anchor="start" x="295" y="-199.5" font-family="Helvetica,sans-Serif" font-size="10.00"> &lt; Op_Conv_Centre_VDF</text>
<text text-anchor="middle" x="355.5" y="-188.5" font-family="Helvetica,sans-Serif" font-size="10.00">_Face &gt;</text>
</g>
<!-- Node16 -->
<g id="node16" class="node">
<title>Node16</title>
<g id="a_node16"><a xlink:href="classOp__Conv__VDF.html" target="_top" xlink:title=" ">
<polygon fill="white" stroke="black" points="437,-98.5 437,-128.5 577,-128.5 577,-98.5 437,-98.5"/>
<text text-anchor="start" x="445" y="-116.5" font-family="Helvetica,sans-Serif" font-size="10.00">Op_Conv_VDF&lt; Op_Conv</text>
<text text-anchor="middle" x="507" y="-105.5" font-family="Helvetica,sans-Serif" font-size="10.00">_Quick_VDF_Elem &gt;</text>
</a>
</g>
</g>
<!-- Node1&#45;&gt;Node16 -->
<g id="edge15" class="edge">
<title>Node1&#45;&gt;Node16</title>
<path fill="none" stroke="orange" stroke-dasharray="5,2" d="M216.92,-194.49C234.39,-178.53 262.81,-155.38 292,-143.5 338.04,-124.76 393.75,-117.38 436.79,-114.62"/>
<polygon fill="orange" stroke="orange" points="214.17,-192.28 209.27,-201.67 218.96,-197.38 214.17,-192.28"/>
<text text-anchor="start" x="297" y="-157.5" font-family="Helvetica,sans-Serif" font-size="10.00"> &lt; Op_Conv_Quick_VDF</text>
<text text-anchor="middle" x="355.5" y="-146.5" font-family="Helvetica,sans-Serif" font-size="10.00">_Elem &gt;</text>
</g>
<!-- Node18 -->
<g id="node18" class="node">
<title>Node18</title>
<g id="a_node18"><a xlink:href="classOp__Conv__VDF.html" target="_top" xlink:title=" ">
<polygon fill="white" stroke="black" points="437,-49.5 437,-79.5 577,-79.5 577,-49.5 437,-49.5"/>
<text text-anchor="start" x="445" y="-67.5" font-family="Helvetica,sans-Serif" font-size="10.00">Op_Conv_VDF&lt; Op_Conv</text>
<text text-anchor="middle" x="507" y="-56.5" font-family="Helvetica,sans-Serif" font-size="10.00">_Quick_VDF_Face &gt;</text>
</a>
</g>
</g>
<!-- Node1&#45;&gt;Node18 -->
<g id="edge17" class="edge">
<title>Node1&#45;&gt;Node18</title>
<path fill="none" stroke="orange" stroke-dasharray="5,2" d="M207.99,-192.5C221.45,-164.85 250.48,-114.25 292,-90.5 335.7,-65.51 392.55,-59.6 436.67,-59.62"/>
<polygon fill="orange" stroke="orange" points="204.68,-191.33 203.6,-201.87 211.02,-194.3 204.68,-191.33"/>
<text text-anchor="start" x="297" y="-104.5" font-family="Helvetica,sans-Serif" font-size="10.00"> &lt; Op_Conv_Quick_VDF</text>
<text text-anchor="middle" x="355.5" y="-93.5" font-family="Helvetica,sans-Serif" font-size="10.00">_Face &gt;</text>
</g>
<!-- Node20 -->
<g id="node20" class="node">
<title>Node20</title>
<g id="a_node20"><a xlink:href="classOp__Conv__VDF.html" target="_top" xlink:title=" ">
<polygon fill="white" stroke="black" points="437,-0.5 437,-30.5 577,-30.5 577,-0.5 437,-0.5"/>
<text text-anchor="start" x="445" y="-18.5" font-family="Helvetica,sans-Serif" font-size="10.00">Op_Conv_VDF&lt; Op_Conv</text>
<text text-anchor="middle" x="507" y="-7.5" font-family="Helvetica,sans-Serif" font-size="10.00">_Quick_VDF_Face_Axi &gt;</text>
</a>
</g>
</g>
<!-- Node1&#45;&gt;Node20 -->
<g id="edge19" class="edge">
<title>Node1&#45;&gt;Node20</title>
<path fill="none" stroke="orange" stroke-dasharray="5,2" d="M203.32,-191.88C211.82,-154.13 236.11,-71.84 292,-34.5 334.18,-6.32 391.94,-2.72 436.82,-5.54"/>
<polygon fill="orange" stroke="orange" points="199.9,-191.16 201.25,-201.67 206.75,-192.61 199.9,-191.16"/>
<text text-anchor="start" x="297" y="-48.5" font-family="Helvetica,sans-Serif" font-size="10.00"> &lt; Op_Conv_Quick_VDF</text>
<text text-anchor="middle" x="355.5" y="-37.5" font-family="Helvetica,sans-Serif" font-size="10.00">_Face_Axi &gt;</text>
</g>
<!-- Node2 -->
<g id="node2" class="node">
<title>Node2</title>
<g id="a_node2"><a xlink:href="classOp__VDF__Elem.html" target="_top" xlink:title=" ">
<polygon fill="white" stroke="black" points="0,-221 0,-240 86,-240 86,-221 0,-221"/>
<text text-anchor="middle" x="43" y="-228" font-family="Helvetica,sans-Serif" font-size="10.00">Op_VDF_Elem</text>
</a>
</g>
</g>
<!-- Node2&#45;&gt;Node1 -->
<g id="edge1" class="edge">
<title>Node2&#45;&gt;Node1</title>
<path fill="none" stroke="midnightblue" d="M96.49,-224C105,-222.95 113.96,-221.84 122.89,-220.74"/>
<polygon fill="midnightblue" stroke="midnightblue" points="95.85,-220.56 86.35,-225.26 96.71,-227.5 95.85,-220.56"/>
</g>
<!-- Node3 -->
<g id="node3" class="node">
<title>Node3</title>
<g id="a_node3"><a xlink:href="classOp__VDF__Face.html" target="_top" xlink:title=" ">
<polygon fill="white" stroke="black" points="1.5,-183 1.5,-202 84.5,-202 84.5,-183 1.5,-183"/>
<text text-anchor="middle" x="43" y="-190" font-family="Helvetica,sans-Serif" font-size="10.00">Op_VDF_Face</text>
</a>
</g>
</g>
<!-- Node3&#45;&gt;Node1 -->
<g id="edge2" class="edge">
<title>Node3&#45;&gt;Node1</title>
<path fill="none" stroke="midnightblue" d="M94.93,-198.8C103.86,-199.91 113.31,-201.08 122.73,-202.24"/>
<polygon fill="midnightblue" stroke="midnightblue" points="95.09,-195.3 84.73,-197.54 94.23,-202.24 95.09,-195.3"/>
</g>
<!-- Node5 -->
<g id="node5" class="node">
<title>Node5</title>
<g id="a_node5"><a xlink:href="classOp__Conv__Amont__VDF__Elem.html" target="_top" xlink:title="&lt; pour les compilos (templates :&#45;) )">
<polygon fill="white" stroke="black" points="621,-398 621,-417 774,-417 774,-398 621,-398"/>
<text text-anchor="middle" x="697.5" y="-405" font-family="Helvetica,sans-Serif" font-size="10.00">Op_Conv_Amont_VDF_Elem</text>
</a>
</g>
</g>
<!-- Node4&#45;&gt;Node5 -->
<g id="edge4" class="edge">
<title>Node4&#45;&gt;Node5</title>
<path fill="none" stroke="midnightblue" d="M587.21,-407.5C598.31,-407.5 609.69,-407.5 620.71,-407.5"/>
<polygon fill="midnightblue" stroke="midnightblue" points="587.12,-404 577.12,-407.5 587.12,-411 587.12,-404"/>
</g>
<!-- Node7 -->
<g id="node7" class="node">
<title>Node7</title>
<g id="a_node7"><a xlink:href="classOp__Conv__Amont__VDF__Face.html" target="_top" xlink:title="&lt; pour les compilos (templates :&#45;) )">
<polygon fill="white" stroke="black" points="622.5,-349 622.5,-368 772.5,-368 772.5,-349 622.5,-349"/>
<text text-anchor="middle" x="697.5" y="-356" font-family="Helvetica,sans-Serif" font-size="10.00">Op_Conv_Amont_VDF_Face</text>
</a>
</g>
</g>
<!-- Node6&#45;&gt;Node7 -->
<g id="edge6" class="edge">
<title>Node6&#45;&gt;Node7</title>
<path fill="none" stroke="midnightblue" d="M587.24,-358.5C598.86,-358.5 610.8,-358.5 622.31,-358.5"/>
<polygon fill="midnightblue" stroke="midnightblue" points="587.12,-355 577.12,-358.5 587.12,-362 587.12,-355"/>
</g>
<!-- Node9 -->
<g id="node9" class="node">
<title>Node9</title>
<g id="a_node9"><a xlink:href="classOp__Conv__Centre4__VDF__Elem.html" target="_top" xlink:title="class Op_Conv_Centre4_VDF_Elem Cette classe represente l&#39;operateur de convection associe a une equati...">
<polygon fill="white" stroke="black" points="618,-300 618,-319 777,-319 777,-300 618,-300"/>
<text text-anchor="middle" x="697.5" y="-307" font-family="Helvetica,sans-Serif" font-size="10.00">Op_Conv_Centre4_VDF_Elem</text>
</a>
</g>
</g>
<!-- Node8&#45;&gt;Node9 -->
<g id="edge8" class="edge">
<title>Node8&#45;&gt;Node9</title>
<path fill="none" stroke="midnightblue" d="M587.17,-309.5C597.31,-309.5 607.69,-309.5 617.83,-309.5"/>
<polygon fill="midnightblue" stroke="midnightblue" points="587.12,-306 577.12,-309.5 587.12,-313 587.12,-306"/>
</g>
<!-- Node11 -->
<g id="node11" class="node">
<title>Node11</title>
<g id="a_node11"><a xlink:href="classOp__Conv__Centre4__VDF__Face.html" target="_top" xlink:title="class Op_Conv_Centre4_VDF_Face Cette classe represente l&#39;operateur de convection associe a une equati...">
<polygon fill="white" stroke="black" points="619.5,-251 619.5,-270 775.5,-270 775.5,-251 619.5,-251"/>
<text text-anchor="middle" x="697.5" y="-258" font-family="Helvetica,sans-Serif" font-size="10.00">Op_Conv_Centre4_VDF_Face</text>
</a>
</g>
</g>
<!-- Node10&#45;&gt;Node11 -->
<g id="edge10" class="edge">
<title>Node10&#45;&gt;Node11</title>
<path fill="none" stroke="midnightblue" d="M587.24,-260.5C597.89,-260.5 608.81,-260.5 619.43,-260.5"/>
<polygon fill="midnightblue" stroke="midnightblue" points="587.12,-257 577.12,-260.5 587.12,-264 587.12,-257"/>
</g>
<!-- Node13 -->
<g id="node13" class="node">
<title>Node13</title>
<g id="a_node13"><a xlink:href="classOp__Conv__Centre__VDF__Elem.html" target="_top" xlink:title="class Op_Conv_Centre_VDF_Elem Cette classe represente l&#39;operateur de convection associe a une equatio...">
<polygon fill="white" stroke="black" points="621,-202 621,-221 774,-221 774,-202 621,-202"/>
<text text-anchor="middle" x="697.5" y="-209" font-family="Helvetica,sans-Serif" font-size="10.00">Op_Conv_Centre_VDF_Elem</text>
</a>
</g>
</g>
<!-- Node12&#45;&gt;Node13 -->
<g id="edge12" class="edge">
<title>Node12&#45;&gt;Node13</title>
<path fill="none" stroke="midnightblue" d="M587.21,-211.5C598.31,-211.5 609.69,-211.5 620.71,-211.5"/>
<polygon fill="midnightblue" stroke="midnightblue" points="587.12,-208 577.12,-211.5 587.12,-215 587.12,-208"/>
</g>
<!-- Node15 -->
<g id="node15" class="node">
<title>Node15</title>
<g id="a_node15"><a xlink:href="classOp__Conv__Centre__VDF__Face.html" target="_top" xlink:title="class Op_Conv_Centre_VDF_Face Cette classe represente l&#39;operateur de convection associe a une equatio...">
<polygon fill="white" stroke="black" points="622.5,-153 622.5,-172 772.5,-172 772.5,-153 622.5,-153"/>
<text text-anchor="middle" x="697.5" y="-160" font-family="Helvetica,sans-Serif" font-size="10.00">Op_Conv_Centre_VDF_Face</text>
</a>
</g>
</g>
<!-- Node14&#45;&gt;Node15 -->
<g id="edge14" class="edge">
<title>Node14&#45;&gt;Node15</title>
<path fill="none" stroke="midnightblue" d="M587.24,-162.5C598.86,-162.5 610.8,-162.5 622.31,-162.5"/>
<polygon fill="midnightblue" stroke="midnightblue" points="587.12,-159 577.12,-162.5 587.12,-166 587.12,-159"/>
</g>
<!-- Node17 -->
<g id="node17" class="node">
<title>Node17</title>
<g id="a_node17"><a xlink:href="classOp__Conv__Quick__VDF__Elem.html" target="_top" xlink:title="class Op_Conv_Quick_VDF_Elem Cette classe represente l&#39;operateur de convection associe a une equation...">
<polygon fill="white" stroke="black" points="623,-104 623,-123 772,-123 772,-104 623,-104"/>
<text text-anchor="middle" x="697.5" y="-111" font-family="Helvetica,sans-Serif" font-size="10.00">Op_Conv_Quick_VDF_Elem</text>
</a>
</g>
</g>
<!-- Node16&#45;&gt;Node17 -->
<g id="edge16" class="edge">
<title>Node16&#45;&gt;Node17</title>
<path fill="none" stroke="midnightblue" d="M587.38,-113.5C599.17,-113.5 611.28,-113.5 622.95,-113.5"/>
<polygon fill="midnightblue" stroke="midnightblue" points="587.12,-110 577.12,-113.5 587.12,-117 587.12,-110"/>
</g>
<!-- Node19 -->
<g id="node19" class="node">
<title>Node19</title>
<g id="a_node19"><a xlink:href="classOp__Conv__Quick__VDF__Face.html" target="_top" xlink:title="class Op_Conv_Quick_VDF_Face Cette classe represente l&#39;operateur de convection associe a une equation...">
<polygon fill="white" stroke="black" points="624.5,-55 624.5,-74 770.5,-74 770.5,-55 624.5,-55"/>
<text text-anchor="middle" x="697.5" y="-62" font-family="Helvetica,sans-Serif" font-size="10.00">Op_Conv_Quick_VDF_Face</text>
</a>
</g>
</g>
<!-- Node18&#45;&gt;Node19 -->
<g id="edge18" class="edge">
<title>Node18&#45;&gt;Node19</title>
<path fill="none" stroke="midnightblue" d="M587.31,-64.5C599.55,-64.5 612.14,-64.5 624.22,-64.5"/>
<polygon fill="midnightblue" stroke="midnightblue" points="587.12,-61 577.12,-64.5 587.12,-68 587.12,-61"/>
</g>
<!-- Node21 -->
<g id="node21" class="node">
<title>Node21</title>
<g id="a_node21"><a xlink:href="classOp__Conv__Quick__VDF__Face__Axi.html" target="_top" xlink:title="class Op_Conv_Quick_VDF_Face Cette classe represente l&#39;operateur de convection associe a une equation...">
<polygon fill="white" stroke="black" points="614,-6 614,-25 781,-25 781,-6 614,-6"/>
<text text-anchor="middle" x="697.5" y="-13" font-family="Helvetica,sans-Serif" font-size="10.00">Op_Conv_Quick_VDF_Face_Axi</text>
</a>
</g>
</g>
<!-- Node20&#45;&gt;Node21 -->
<g id="edge20" class="edge">
<title>Node20&#45;&gt;Node21</title>
<path fill="none" stroke="midnightblue" d="M587.35,-15.5C596.14,-15.5 605.12,-15.5 613.95,-15.5"/>
<polygon fill="midnightblue" stroke="midnightblue" points="587.12,-12 577.12,-15.5 587.12,-19 587.12,-12"/>
</g>
</g>
</svg>
