<?xml version="1.0" encoding="UTF-8" standalone="no"?>
<!DOCTYPE svg PUBLIC "-//W3C//DTD SVG 1.1//EN"
 "http://www.w3.org/Graphics/SVG/1.1/DTD/svg11.dtd">
<!-- Generated by graphviz version 2.43.0 (0)
 -->
<!-- Title: Champ_Generique_Interpolation Pages: 1 -->
<svg width="182pt" height="252pt"
 viewBox="0.00 0.00 182.00 252.00" xmlns="http://www.w3.org/2000/svg" xmlns:xlink="http://www.w3.org/1999/xlink">
<g id="graph0" class="graph" transform="scale(1 1) rotate(0) translate(4 248)">
<title>Champ_Generique_Interpolation</title>
<polygon fill="white" stroke="transparent" points="-4,4 -4,-248 178,-248 178,4 -4,4"/>
<!-- Node1 -->
<g id="node1" class="node">
<title>Node1</title>
<g id="a_node1"><a xlink:title="Un champ generique qui est construit comme une interpolation d&#39;un autre champ generique (interpolatio...">
<polygon fill="#bfbfbf" stroke="black" points="0,-0.5 0,-19.5 174,-19.5 174,-0.5 0,-0.5"/>
<text text-anchor="middle" x="87" y="-7.5" font-family="Helvetica,sans-Serif" font-size="10.00">Champ_Generique_Interpolation</text>
</a>
</g>
</g>
<!-- Node2 -->
<g id="node2" class="node">
<title>Node2</title>
<g id="a_node2"><a xlink:href="classChamp__Gen__de__Champs__Gen.html" target="_top" xlink:title="Classe de base des champs generiques ayant comme source d&#39;autres champs generiques L&#39;utilisation des ...">
<polygon fill="white" stroke="black" points="5.5,-56.5 5.5,-75.5 168.5,-75.5 168.5,-56.5 5.5,-56.5"/>
<text text-anchor="middle" x="87" y="-63.5" font-family="Helvetica,sans-Serif" font-size="10.00">Champ_Gen_de_Champs_Gen</text>
</a>
</g>
</g>
<!-- Node2&#45;&gt;Node1 -->
<g id="edge1" class="edge">
<title>Node2&#45;&gt;Node1</title>
<path fill="none" stroke="midnightblue" d="M87,-45.8C87,-36.91 87,-26.78 87,-19.75"/>
<polygon fill="midnightblue" stroke="midnightblue" points="83.5,-46.08 87,-56.08 90.5,-46.08 83.5,-46.08"/>
</g>
<!-- Node3 -->
<g id="node3" class="node">
<title>Node3</title>
<g id="a_node3"><a xlink:href="classChamp__Generique__base.html" target="_top" xlink:title="Classe de base des champs generiques pour importation d un champ discret et actions elementaires sur ...">
<polygon fill="white" stroke="black" points="19.5,-112.5 19.5,-131.5 154.5,-131.5 154.5,-112.5 19.5,-112.5"/>
<text text-anchor="middle" x="87" y="-119.5" font-family="Helvetica,sans-Serif" font-size="10.00">Champ_Generique_base</text>
</a>
</g>
</g>
<!-- Node3&#45;&gt;Node2 -->
<g id="edge2" class="edge">
<title>Node3&#45;&gt;Node2</title>
<path fill="none" stroke="midnightblue" d="M87,-101.8C87,-92.91 87,-82.78 87,-75.75"/>
<polygon fill="midnightblue" stroke="midnightblue" points="83.5,-102.08 87,-112.08 90.5,-102.08 83.5,-102.08"/>
</g>
<!-- Node4 -->
<g id="node4" class="node">
<title>Node4</title>
<g id="a_node4"><a xlink:href="classObjet__U.html" target="_top" xlink:title="classe Objet_U Cette classe est la classe de base des Objets de TRUST Dans les classes derivees de Ob...">
<polygon fill="white" stroke="black" points="59,-168.5 59,-187.5 115,-187.5 115,-168.5 59,-168.5"/>
<text text-anchor="middle" x="87" y="-175.5" font-family="Helvetica,sans-Serif" font-size="10.00">Objet_U</text>
</a>
</g>
</g>
<!-- Node4&#45;&gt;Node3 -->
<g id="edge3" class="edge">
<title>Node4&#45;&gt;Node3</title>
<path fill="none" stroke="midnightblue" d="M87,-157.8C87,-148.91 87,-138.78 87,-131.75"/>
<polygon fill="midnightblue" stroke="midnightblue" points="83.5,-158.08 87,-168.08 90.5,-158.08 83.5,-158.08"/>
</g>
<!-- Node5 -->
<g id="node5" class="node">
<title>Node5</title>
<g id="a_node5"><a xlink:href="classProcess.html" target="_top" xlink:title="Classe de base de TRUST (notamment Objet_U). Elle fournit quelques services de base accessibles de pa...">
<polygon fill="white" stroke="black" points="60,-224.5 60,-243.5 114,-243.5 114,-224.5 60,-224.5"/>
<text text-anchor="middle" x="87" y="-231.5" font-family="Helvetica,sans-Serif" font-size="10.00">Process</text>
</a>
</g>
</g>
<!-- Node5&#45;&gt;Node4 -->
<g id="edge4" class="edge">
<title>Node5&#45;&gt;Node4</title>
<path fill="none" stroke="midnightblue" d="M87,-213.8C87,-204.91 87,-194.78 87,-187.75"/>
<polygon fill="midnightblue" stroke="midnightblue" points="83.5,-214.08 87,-224.08 90.5,-214.08 83.5,-214.08"/>
</g>
</g>
</svg>
