<?xml version="1.0" encoding="UTF-8" standalone="no"?>
<!DOCTYPE svg PUBLIC "-//W3C//DTD SVG 1.1//EN"
 "http://www.w3.org/Graphics/SVG/1.1/DTD/svg11.dtd">
<!-- Generated by graphviz version 2.43.0 (0)
 -->
<!-- Title: Echange_externe_impose Pages: 1 -->
<svg width="995pt" height="142pt"
 viewBox="0.00 0.00 995.00 142.00" xmlns="http://www.w3.org/2000/svg" xmlns:xlink="http://www.w3.org/1999/xlink">
<g id="graph0" class="graph" transform="scale(1 1) rotate(0) translate(4 138)">
<title>Echange_externe_impose</title>
<polygon fill="white" stroke="transparent" points="-4,4 -4,-138 991,-138 991,4 -4,4"/>
<!-- Node1 -->
<g id="node1" class="node">
<title>Node1</title>
<g id="a_node1"><a xlink:title="Classe Echange_externe_impose: Cette classe represente le cas particulier de la classe Echange_impose...">
<polygon fill="#bfbfbf" stroke="black" points="473,-57.5 473,-76.5 615,-76.5 615,-57.5 473,-57.5"/>
<text text-anchor="middle" x="544" y="-64.5" font-family="Helvetica,sans-Serif" font-size="10.00">Echange_externe_impose</text>
</a>
</g>
</g>
<!-- Node6 -->
<g id="node6" class="node">
<title>Node6</title>
<g id="a_node6"><a xlink:href="classEchange__contact__PolyMAC.html" target="_top" xlink:title=" ">
<polygon fill="white" stroke="black" points="659.5,-114.5 659.5,-133.5 807.5,-133.5 807.5,-114.5 659.5,-114.5"/>
<text text-anchor="middle" x="733.5" y="-121.5" font-family="Helvetica,sans-Serif" font-size="10.00">Echange_contact_PolyMAC</text>
</a>
</g>
</g>
<!-- Node1&#45;&gt;Node6 -->
<g id="edge5" class="edge">
<title>Node1&#45;&gt;Node6</title>
<path fill="none" stroke="midnightblue" d="M578.74,-80.22C599.41,-88.03 626.51,-97.78 651,-105 662.71,-108.45 675.51,-111.68 687.42,-114.47"/>
<polygon fill="midnightblue" stroke="midnightblue" points="579.75,-76.86 569.16,-76.56 577.25,-83.4 579.75,-76.86"/>
</g>
<!-- Node7 -->
<g id="node7" class="node">
<title>Node7</title>
<g id="a_node7"><a xlink:href="classEchange__contact__PolyMAC__P0.html" target="_top" xlink:title=" ">
<polygon fill="white" stroke="black" points="651,-76.5 651,-95.5 816,-95.5 816,-76.5 651,-76.5"/>
<text text-anchor="middle" x="733.5" y="-83.5" font-family="Helvetica,sans-Serif" font-size="10.00">Echange_contact_PolyMAC_P0</text>
</a>
</g>
</g>
<!-- Node1&#45;&gt;Node7 -->
<g id="edge6" class="edge">
<title>Node1&#45;&gt;Node7</title>
<path fill="none" stroke="midnightblue" d="M625.3,-75.14C633.75,-75.99 642.35,-76.86 650.81,-77.72"/>
<polygon fill="midnightblue" stroke="midnightblue" points="625.39,-71.63 615.08,-74.1 624.68,-78.59 625.39,-71.63"/>
</g>
<!-- Node8 -->
<g id="node8" class="node">
<title>Node8</title>
<g id="a_node8"><a xlink:href="classEchange__externe__impose__H.html" target="_top" xlink:title="Classe Echange_externe_impose_H: Cette classe represente le cas particulier de la classe Echange_exte...">
<polygon fill="white" stroke="black" points="656,-38.5 656,-57.5 811,-57.5 811,-38.5 656,-38.5"/>
<text text-anchor="middle" x="733.5" y="-45.5" font-family="Helvetica,sans-Serif" font-size="10.00">Echange_externe_impose_H</text>
</a>
</g>
</g>
<!-- Node1&#45;&gt;Node8 -->
<g id="edge7" class="edge">
<title>Node1&#45;&gt;Node8</title>
<path fill="none" stroke="midnightblue" d="M625.18,-58.88C635.37,-57.84 645.77,-56.79 655.9,-55.76"/>
<polygon fill="midnightblue" stroke="midnightblue" points="624.68,-55.41 615.08,-59.9 625.39,-62.37 624.68,-55.41"/>
</g>
<!-- Node9 -->
<g id="node9" class="node">
<title>Node9</title>
<g id="a_node9"><a xlink:href="classEchange__interne__impose.html" target="_top" xlink:title="Classe Echange_interne_impose: Cette classe represente le cas particulier de la classe Echange_extern...">
<polygon fill="white" stroke="black" points="664,-0.5 664,-19.5 803,-19.5 803,-0.5 664,-0.5"/>
<text text-anchor="middle" x="733.5" y="-7.5" font-family="Helvetica,sans-Serif" font-size="10.00">Echange_interne_impose</text>
</a>
</g>
</g>
<!-- Node1&#45;&gt;Node9 -->
<g id="edge8" class="edge">
<title>Node1&#45;&gt;Node9</title>
<path fill="none" stroke="midnightblue" d="M578.74,-53.78C599.41,-45.97 626.51,-36.22 651,-29 662.71,-25.55 675.51,-22.32 687.42,-19.53"/>
<polygon fill="midnightblue" stroke="midnightblue" points="577.25,-50.6 569.16,-57.44 579.75,-57.14 577.25,-50.6"/>
</g>
<!-- Node2 -->
<g id="node2" class="node">
<title>Node2</title>
<g id="a_node2"><a xlink:href="classEchange__impose__base.html" target="_top" xlink:title="classe Echange_impose_base: Cette condition limite sert uniquement pour l&#39;equation d&#39;energie....">
<polygon fill="white" stroke="black" points="309,-57.5 309,-76.5 437,-76.5 437,-57.5 309,-57.5"/>
<text text-anchor="middle" x="373" y="-64.5" font-family="Helvetica,sans-Serif" font-size="10.00">Echange_impose_base</text>
</a>
</g>
</g>
<!-- Node2&#45;&gt;Node1 -->
<g id="edge1" class="edge">
<title>Node2&#45;&gt;Node1</title>
<path fill="none" stroke="midnightblue" d="M447.6,-67C456.03,-67 464.61,-67 473,-67"/>
<polygon fill="midnightblue" stroke="midnightblue" points="447.41,-63.5 437.41,-67 447.41,-70.5 447.41,-63.5"/>
</g>
<!-- Node3 -->
<g id="node3" class="node">
<title>Node3</title>
<g id="a_node3"><a xlink:href="classCond__lim__base.html" target="_top" xlink:title="classe Cond_lim_base Classe de base pour la hierarchie des classes qui representent les differentes c...">
<polygon fill="white" stroke="black" points="182,-57.5 182,-76.5 273,-76.5 273,-57.5 182,-57.5"/>
<text text-anchor="middle" x="227.5" y="-64.5" font-family="Helvetica,sans-Serif" font-size="10.00">Cond_lim_base</text>
</a>
</g>
</g>
<!-- Node3&#45;&gt;Node2 -->
<g id="edge2" class="edge">
<title>Node3&#45;&gt;Node2</title>
<path fill="none" stroke="midnightblue" d="M283.2,-67C291.62,-67 300.38,-67 308.97,-67"/>
<polygon fill="midnightblue" stroke="midnightblue" points="283.12,-63.5 273.12,-67 283.12,-70.5 283.12,-63.5"/>
</g>
<!-- Node4 -->
<g id="node4" class="node">
<title>Node4</title>
<g id="a_node4"><a xlink:href="classObjet__U.html" target="_top" xlink:title="classe Objet_U Cette classe est la classe de base des Objets de TRUST Dans les classes derivees de Ob...">
<polygon fill="white" stroke="black" points="90,-57.5 90,-76.5 146,-76.5 146,-57.5 90,-57.5"/>
<text text-anchor="middle" x="118" y="-64.5" font-family="Helvetica,sans-Serif" font-size="10.00">Objet_U</text>
</a>
</g>
</g>
<!-- Node4&#45;&gt;Node3 -->
<g id="edge3" class="edge">
<title>Node4&#45;&gt;Node3</title>
<path fill="none" stroke="midnightblue" d="M156.21,-67C164.46,-67 173.3,-67 181.82,-67"/>
<polygon fill="midnightblue" stroke="midnightblue" points="156.13,-63.5 146.13,-67 156.13,-70.5 156.13,-63.5"/>
</g>
<!-- Node5 -->
<g id="node5" class="node">
<title>Node5</title>
<g id="a_node5"><a xlink:href="classProcess.html" target="_top" xlink:title="Classe de base de TRUST (notamment Objet_U). Elle fournit quelques services de base accessibles de pa...">
<polygon fill="white" stroke="black" points="0,-57.5 0,-76.5 54,-76.5 54,-57.5 0,-57.5"/>
<text text-anchor="middle" x="27" y="-64.5" font-family="Helvetica,sans-Serif" font-size="10.00">Process</text>
</a>
</g>
</g>
<!-- Node5&#45;&gt;Node4 -->
<g id="edge4" class="edge">
<title>Node5&#45;&gt;Node4</title>
<path fill="none" stroke="midnightblue" d="M64.29,-67C72.79,-67 81.7,-67 89.73,-67"/>
<polygon fill="midnightblue" stroke="midnightblue" points="64.22,-63.5 54.22,-67 64.22,-70.5 64.22,-63.5"/>
</g>
<!-- Node10 -->
<g id="node10" class="node">
<title>Node10</title>
<g id="a_node10"><a xlink:href="classEchange__interne__parfait.html" target="_top" xlink:title="Classe Echange_interne_parfait: Cette classe represente le cas particulier de la classe Echange_inter...">
<polygon fill="white" stroke="black" points="852,-0.5 852,-19.5 987,-19.5 987,-0.5 852,-0.5"/>
<text text-anchor="middle" x="919.5" y="-7.5" font-family="Helvetica,sans-Serif" font-size="10.00">Echange_interne_parfait</text>
</a>
</g>
</g>
<!-- Node9&#45;&gt;Node10 -->
<g id="edge9" class="edge">
<title>Node9&#45;&gt;Node10</title>
<path fill="none" stroke="midnightblue" d="M813.22,-10C826.06,-10 839.25,-10 851.76,-10"/>
<polygon fill="midnightblue" stroke="midnightblue" points="813.01,-6.5 803.01,-10 813.01,-13.5 813.01,-6.5"/>
</g>
</g>
</svg>
