<?xml version="1.0" encoding="UTF-8" standalone="no"?>
<!DOCTYPE svg PUBLIC "-//W3C//DTD SVG 1.1//EN"
 "http://www.w3.org/Graphics/SVG/1.1/DTD/svg11.dtd">
<!-- Generated by graphviz version 2.43.0 (0)
 -->
<!-- Title: Raffiner_Simplexes Pages: 1 -->
<svg width="169pt" height="308pt"
 viewBox="0.00 0.00 169.00 308.00" xmlns="http://www.w3.org/2000/svg" xmlns:xlink="http://www.w3.org/1999/xlink">
<g id="graph0" class="graph" transform="scale(1 1) rotate(0) translate(4 304)">
<title>Raffiner_Simplexes</title>
<polygon fill="white" stroke="transparent" points="-4,4 -4,-304 165,-304 165,4 -4,4"/>
<!-- Node1 -->
<g id="node1" class="node">
<title>Node1</title>
<g id="a_node1"><a xlink:title=": class Raffiner_Simplexes &lt;Description of class Raffiner_Simplexes&gt;">
<polygon fill="#bfbfbf" stroke="black" points="25.5,-56.5 25.5,-75.5 135.5,-75.5 135.5,-56.5 25.5,-56.5"/>
<text text-anchor="middle" x="80.5" y="-63.5" font-family="Helvetica,sans-Serif" font-size="10.00">Raffiner_Simplexes</text>
</a>
</g>
</g>
<!-- Node6 -->
<g id="node6" class="node">
<title>Node6</title>
<g id="a_node6"><a xlink:href="classRaffiner__isotrope__parallele.html" target="_top" xlink:title=": class Raffiner_isotrope_parallele &lt;Description of class Raffiner_isotrope_parallele&gt;">
<polygon fill="white" stroke="black" points="6.5,-0.5 6.5,-19.5 154.5,-19.5 154.5,-0.5 6.5,-0.5"/>
<text text-anchor="middle" x="80.5" y="-7.5" font-family="Helvetica,sans-Serif" font-size="10.00">Raffiner_isotrope_parallele</text>
</a>
</g>
</g>
<!-- Node1&#45;&gt;Node6 -->
<g id="edge5" class="edge">
<title>Node1&#45;&gt;Node6</title>
<path fill="none" stroke="midnightblue" d="M80.5,-45.8C80.5,-36.91 80.5,-26.78 80.5,-19.75"/>
<polygon fill="midnightblue" stroke="midnightblue" points="77,-46.08 80.5,-56.08 84,-46.08 77,-46.08"/>
</g>
<!-- Node2 -->
<g id="node2" class="node">
<title>Node2</title>
<g id="a_node2"><a xlink:href="classInterprete__geometrique__base.html" target="_top" xlink:title="classe Interprete_geometrique_base .">
<polygon fill="white" stroke="black" points="0,-112.5 0,-131.5 161,-131.5 161,-112.5 0,-112.5"/>
<text text-anchor="middle" x="80.5" y="-119.5" font-family="Helvetica,sans-Serif" font-size="10.00">Interprete_geometrique_base</text>
</a>
</g>
</g>
<!-- Node2&#45;&gt;Node1 -->
<g id="edge1" class="edge">
<title>Node2&#45;&gt;Node1</title>
<path fill="none" stroke="midnightblue" d="M80.5,-101.8C80.5,-92.91 80.5,-82.78 80.5,-75.75"/>
<polygon fill="midnightblue" stroke="midnightblue" points="77,-102.08 80.5,-112.08 84,-102.08 77,-102.08"/>
</g>
<!-- Node3 -->
<g id="node3" class="node">
<title>Node3</title>
<g id="a_node3"><a xlink:href="classInterprete.html" target="_top" xlink:title="Classe de base des objets &quot;interprete&quot;. Ces objets definissent des actions a realiser lorsqu&#39;on les r...">
<polygon fill="white" stroke="black" points="48,-168.5 48,-187.5 113,-187.5 113,-168.5 48,-168.5"/>
<text text-anchor="middle" x="80.5" y="-175.5" font-family="Helvetica,sans-Serif" font-size="10.00">Interprete</text>
</a>
</g>
</g>
<!-- Node3&#45;&gt;Node2 -->
<g id="edge2" class="edge">
<title>Node3&#45;&gt;Node2</title>
<path fill="none" stroke="midnightblue" d="M80.5,-157.8C80.5,-148.91 80.5,-138.78 80.5,-131.75"/>
<polygon fill="midnightblue" stroke="midnightblue" points="77,-158.08 80.5,-168.08 84,-158.08 77,-158.08"/>
</g>
<!-- Node4 -->
<g id="node4" class="node">
<title>Node4</title>
<g id="a_node4"><a xlink:href="classObjet__U.html" target="_top" xlink:title="classe Objet_U Cette classe est la classe de base des Objets de TRUST Dans les classes derivees de Ob...">
<polygon fill="white" stroke="black" points="52.5,-224.5 52.5,-243.5 108.5,-243.5 108.5,-224.5 52.5,-224.5"/>
<text text-anchor="middle" x="80.5" y="-231.5" font-family="Helvetica,sans-Serif" font-size="10.00">Objet_U</text>
</a>
</g>
</g>
<!-- Node4&#45;&gt;Node3 -->
<g id="edge3" class="edge">
<title>Node4&#45;&gt;Node3</title>
<path fill="none" stroke="midnightblue" d="M80.5,-213.8C80.5,-204.91 80.5,-194.78 80.5,-187.75"/>
<polygon fill="midnightblue" stroke="midnightblue" points="77,-214.08 80.5,-224.08 84,-214.08 77,-214.08"/>
</g>
<!-- Node5 -->
<g id="node5" class="node">
<title>Node5</title>
<g id="a_node5"><a xlink:href="classProcess.html" target="_top" xlink:title="Classe de base de TRUST (notamment Objet_U). Elle fournit quelques services de base accessibles de pa...">
<polygon fill="white" stroke="black" points="53.5,-280.5 53.5,-299.5 107.5,-299.5 107.5,-280.5 53.5,-280.5"/>
<text text-anchor="middle" x="80.5" y="-287.5" font-family="Helvetica,sans-Serif" font-size="10.00">Process</text>
</a>
</g>
</g>
<!-- Node5&#45;&gt;Node4 -->
<g id="edge4" class="edge">
<title>Node5&#45;&gt;Node4</title>
<path fill="none" stroke="midnightblue" d="M80.5,-269.8C80.5,-260.91 80.5,-250.78 80.5,-243.75"/>
<polygon fill="midnightblue" stroke="midnightblue" points="77,-270.08 80.5,-280.08 84,-270.08 77,-270.08"/>
</g>
</g>
</svg>
