<?xml version="1.0" encoding="UTF-8" standalone="no"?>
<!DOCTYPE svg PUBLIC "-//W3C//DTD SVG 1.1//EN"
 "http://www.w3.org/Graphics/SVG/1.1/DTD/svg11.dtd">
<!-- Generated by graphviz version 2.43.0 (0)
 -->
<!-- Title: Convection_Diffusion_std Pages: 1 -->
<svg width="1239pt" height="252pt"
 viewBox="0.00 0.00 1239.00 252.00" xmlns="http://www.w3.org/2000/svg" xmlns:xlink="http://www.w3.org/1999/xlink">
<g id="graph0" class="graph" transform="scale(1 1) rotate(0) translate(4 248)">
<title>Convection_Diffusion_std</title>
<polygon fill="white" stroke="transparent" points="-4,4 -4,-248 1235,-248 1235,4 -4,4"/>
<!-- Node1 -->
<g id="node1" class="node">
<title>Node1</title>
<g id="a_node1"><a xlink:title="classe Convection_Diffusion_std Cette classe est la base des equations modelisant le transport d&#39;un s...">
<polygon fill="#bfbfbf" stroke="black" points="399,-106.5 399,-125.5 539,-125.5 539,-106.5 399,-106.5"/>
<text text-anchor="middle" x="469" y="-113.5" font-family="Helvetica,sans-Serif" font-size="10.00">Convection_Diffusion_std</text>
</a>
</g>
</g>
<!-- Node6 -->
<g id="node6" class="node">
<title>Node6</title>
<g id="a_node6"><a xlink:href="classAire__interfaciale.html" target="_top" xlink:title="classe Aire_interfaciale Equation de transport de l&#39;aire interfaciale">
<polygon fill="white" stroke="black" points="591.5,-224.5 591.5,-243.5 688.5,-243.5 688.5,-224.5 591.5,-224.5"/>
<text text-anchor="middle" x="640" y="-231.5" font-family="Helvetica,sans-Serif" font-size="10.00">Aire_interfaciale</text>
</a>
</g>
</g>
<!-- Node1&#45;&gt;Node6 -->
<g id="edge5" class="edge">
<title>Node1&#45;&gt;Node6</title>
<path fill="none" stroke="midnightblue" d="M484.1,-133.64C502.68,-155.75 537.43,-193.37 575,-215 581.63,-218.82 589.1,-221.93 596.52,-224.44"/>
<polygon fill="midnightblue" stroke="midnightblue" points="486.64,-131.23 477.59,-125.73 481.24,-135.67 486.64,-131.23"/>
</g>
<!-- Node7 -->
<g id="node7" class="node">
<title>Node7</title>
<g id="a_node7"><a xlink:href="classConvection__Diffusion__Concentration.html" target="_top" xlink:title="classe Convection_Diffusion_Concentration Cas particulier de Convection_Diffusion_std pour un ou plus...">
<polygon fill="white" stroke="black" points="580,-175 580,-205 700,-205 700,-175 580,-175"/>
<text text-anchor="start" x="588" y="-193" font-family="Helvetica,sans-Serif" font-size="10.00">Convection_Diffusion</text>
<text text-anchor="middle" x="640" y="-182" font-family="Helvetica,sans-Serif" font-size="10.00">_Concentration</text>
</a>
</g>
</g>
<!-- Node1&#45;&gt;Node7 -->
<g id="edge6" class="edge">
<title>Node1&#45;&gt;Node7</title>
<path fill="none" stroke="midnightblue" d="M498.59,-129.95C519.57,-140.04 548.86,-153.81 575,-165 582.79,-168.33 591.18,-171.74 599.24,-174.92"/>
<polygon fill="midnightblue" stroke="midnightblue" points="500.1,-126.79 489.57,-125.59 497.05,-133.09 500.1,-126.79"/>
</g>
<!-- Node8 -->
<g id="node8" class="node">
<title>Node8</title>
<g id="a_node8"><a xlink:href="classConvection__Diffusion__Fluide__Dilatable__base.html" target="_top" xlink:title="classe Convection_Diffusion_Fluide_Dilatable_base pour un fluide dilatable">
<polygon fill="white" stroke="black" points="575,-126 575,-156 705,-156 705,-126 575,-126"/>
<text text-anchor="start" x="583" y="-144" font-family="Helvetica,sans-Serif" font-size="10.00">Convection_Diffusion</text>
<text text-anchor="middle" x="640" y="-133" font-family="Helvetica,sans-Serif" font-size="10.00">_Fluide_Dilatable_base</text>
</a>
</g>
</g>
<!-- Node1&#45;&gt;Node8 -->
<g id="edge7" class="edge">
<title>Node1&#45;&gt;Node8</title>
<path fill="none" stroke="midnightblue" d="M544.42,-127.01C554.55,-128.51 564.88,-130.03 574.81,-131.5"/>
<polygon fill="midnightblue" stroke="midnightblue" points="544.78,-123.52 534.37,-125.52 543.75,-130.45 544.78,-123.52"/>
</g>
<!-- Node19 -->
<g id="node19" class="node">
<title>Node19</title>
<g id="a_node19"><a xlink:href="classConvection__Diffusion__Temperature.html" target="_top" xlink:title="classe Convection_Diffusion_Temperature Cas particulier de Convection_Diffusion_std quand le scalaire...">
<polygon fill="white" stroke="black" points="580,-77 580,-107 700,-107 700,-77 580,-77"/>
<text text-anchor="start" x="588" y="-95" font-family="Helvetica,sans-Serif" font-size="10.00">Convection_Diffusion</text>
<text text-anchor="middle" x="640" y="-84" font-family="Helvetica,sans-Serif" font-size="10.00">_Temperature</text>
</a>
</g>
</g>
<!-- Node1&#45;&gt;Node19 -->
<g id="edge18" class="edge">
<title>Node1&#45;&gt;Node19</title>
<path fill="none" stroke="midnightblue" d="M547.27,-105.03C558.22,-103.47 569.34,-101.89 579.87,-100.4"/>
<polygon fill="midnightblue" stroke="midnightblue" points="546.69,-101.57 537.28,-106.45 547.67,-108.5 546.69,-101.57"/>
</g>
<!-- Node20 -->
<g id="node20" class="node">
<title>Node20</title>
<g id="a_node20"><a xlink:href="classEnergie__Multiphase.html" target="_top" xlink:title="classe Energie_Multiphase Cas particulier de Convection_Diffusion_std pour un fluide quasi conpressib...">
<polygon fill="white" stroke="black" points="583.5,-38.5 583.5,-57.5 696.5,-57.5 696.5,-38.5 583.5,-38.5"/>
<text text-anchor="middle" x="640" y="-45.5" font-family="Helvetica,sans-Serif" font-size="10.00">Energie_Multiphase</text>
</a>
</g>
</g>
<!-- Node1&#45;&gt;Node20 -->
<g id="edge19" class="edge">
<title>Node1&#45;&gt;Node20</title>
<path fill="none" stroke="midnightblue" d="M497.18,-101.96C518.1,-91.49 547.92,-77.27 575,-67 584.1,-63.55 594.12,-60.31 603.48,-57.53"/>
<polygon fill="midnightblue" stroke="midnightblue" points="495.58,-98.85 488.23,-106.48 498.73,-105.09 495.58,-98.85"/>
</g>
<!-- Node21 -->
<g id="node21" class="node">
<title>Node21</title>
<g id="a_node21"><a xlink:href="classMasse__Multiphase.html" target="_top" xlink:title="classe Masse_Multiphase Cas particulier de Convection_Diffusion_std pour un fluide quasi conpressible...">
<polygon fill="white" stroke="black" points="586.5,-0.5 586.5,-19.5 693.5,-19.5 693.5,-0.5 586.5,-0.5"/>
<text text-anchor="middle" x="640" y="-7.5" font-family="Helvetica,sans-Serif" font-size="10.00">Masse_Multiphase</text>
</a>
</g>
</g>
<!-- Node1&#45;&gt;Node21 -->
<g id="edge20" class="edge">
<title>Node1&#45;&gt;Node21</title>
<path fill="none" stroke="midnightblue" d="M485.99,-99.13C505.35,-79.62 539.76,-47.81 575,-29 582.06,-25.23 589.96,-22.12 597.74,-19.58"/>
<polygon fill="midnightblue" stroke="midnightblue" points="483.36,-96.81 478.89,-106.42 488.37,-101.7 483.36,-96.81"/>
</g>
<!-- Node2 -->
<g id="node2" class="node">
<title>Node2</title>
<g id="a_node2"><a xlink:href="classEquation__base.html" target="_top" xlink:title=" ">
<polygon fill="white" stroke="black" points="275,-106.5 275,-125.5 363,-125.5 363,-106.5 275,-106.5"/>
<text text-anchor="middle" x="319" y="-113.5" font-family="Helvetica,sans-Serif" font-size="10.00">Equation_base</text>
</a>
</g>
</g>
<!-- Node2&#45;&gt;Node1 -->
<g id="edge1" class="edge">
<title>Node2&#45;&gt;Node1</title>
<path fill="none" stroke="midnightblue" d="M373.43,-116C381.68,-116 390.31,-116 398.84,-116"/>
<polygon fill="midnightblue" stroke="midnightblue" points="373.21,-112.5 363.21,-116 373.21,-119.5 373.21,-112.5"/>
</g>
<!-- Node3 -->
<g id="node3" class="node">
<title>Node3</title>
<g id="a_node3"><a xlink:href="classChamps__compris__interface.html" target="_top" xlink:title="classe Champs_compris_interface Cette classe contient une interface de methodes destinees a gerer les...">
<polygon fill="white" stroke="black" points="90,-125.5 90,-144.5 239,-144.5 239,-125.5 90,-125.5"/>
<text text-anchor="middle" x="164.5" y="-132.5" font-family="Helvetica,sans-Serif" font-size="10.00">Champs_compris_interface</text>
</a>
</g>
</g>
<!-- Node3&#45;&gt;Node2 -->
<g id="edge2" class="edge">
<title>Node3&#45;&gt;Node2</title>
<path fill="none" stroke="midnightblue" d="M249.06,-124.59C257.88,-123.49 266.58,-122.41 274.66,-121.4"/>
<polygon fill="midnightblue" stroke="midnightblue" points="248.56,-121.12 239.07,-125.83 249.43,-128.07 248.56,-121.12"/>
</g>
<!-- Node4 -->
<g id="node4" class="node">
<title>Node4</title>
<g id="a_node4"><a xlink:href="classObjet__U.html" target="_top" xlink:title="classe Objet_U Cette classe est la classe de base des Objets de TRUST Dans les classes derivees de Ob...">
<polygon fill="white" stroke="black" points="136.5,-87.5 136.5,-106.5 192.5,-106.5 192.5,-87.5 136.5,-87.5"/>
<text text-anchor="middle" x="164.5" y="-94.5" font-family="Helvetica,sans-Serif" font-size="10.00">Objet_U</text>
</a>
</g>
</g>
<!-- Node4&#45;&gt;Node2 -->
<g id="edge3" class="edge">
<title>Node4&#45;&gt;Node2</title>
<path fill="none" stroke="midnightblue" d="M202.93,-101.66C224.68,-104.37 252.17,-107.8 274.83,-110.62"/>
<polygon fill="midnightblue" stroke="midnightblue" points="203.12,-98.16 192.76,-100.4 202.25,-105.11 203.12,-98.16"/>
</g>
<!-- Node5 -->
<g id="node5" class="node">
<title>Node5</title>
<g id="a_node5"><a xlink:href="classProcess.html" target="_top" xlink:title="Classe de base de TRUST (notamment Objet_U). Elle fournit quelques services de base accessibles de pa...">
<polygon fill="white" stroke="black" points="0,-87.5 0,-106.5 54,-106.5 54,-87.5 0,-87.5"/>
<text text-anchor="middle" x="27" y="-94.5" font-family="Helvetica,sans-Serif" font-size="10.00">Process</text>
</a>
</g>
</g>
<!-- Node5&#45;&gt;Node4 -->
<g id="edge4" class="edge">
<title>Node5&#45;&gt;Node4</title>
<path fill="none" stroke="midnightblue" d="M64.34,-97C86.89,-97 115.4,-97 136.06,-97"/>
<polygon fill="midnightblue" stroke="midnightblue" points="64.13,-93.5 54.13,-97 64.13,-100.5 64.13,-93.5"/>
</g>
<!-- Node9 -->
<g id="node9" class="node">
<title>Node9</title>
<g id="a_node9"><a xlink:href="classConvection__Diffusion__Chaleur__Fluide__Dilatable__base.html" target="_top" xlink:title="classe Convection_Diffusion_Chaleur_Fluide_Dilatable_base Cas particulier de Convection_Diffusion_std...">
<polygon fill="white" stroke="black" points="741,-150 741,-180 914,-180 914,-150 741,-150"/>
<text text-anchor="start" x="749" y="-168" font-family="Helvetica,sans-Serif" font-size="10.00">Convection_Diffusion</text>
<text text-anchor="middle" x="827.5" y="-157" font-family="Helvetica,sans-Serif" font-size="10.00">_Chaleur_Fluide_Dilatable_base</text>
</a>
</g>
</g>
<!-- Node8&#45;&gt;Node9 -->
<g id="edge8" class="edge">
<title>Node8&#45;&gt;Node9</title>
<path fill="none" stroke="midnightblue" d="M715.23,-150.6C723.64,-151.69 732.26,-152.81 740.81,-153.91"/>
<polygon fill="midnightblue" stroke="midnightblue" points="715.46,-147.11 705.1,-149.29 714.57,-154.05 715.46,-147.11"/>
</g>
<!-- Node12 -->
<g id="node12" class="node">
<title>Node12</title>
<g id="a_node12"><a xlink:href="classConvection__Diffusion__Espece__Fluide__Dilatable__base.html" target="_top" xlink:title="classe Convection_Diffusion_Espece_Fluide_Dilatable_base Cas particulier de Convection_Diffusion_std ...">
<polygon fill="white" stroke="black" points="742.5,-101 742.5,-131 912.5,-131 912.5,-101 742.5,-101"/>
<text text-anchor="start" x="750.5" y="-119" font-family="Helvetica,sans-Serif" font-size="10.00">Convection_Diffusion</text>
<text text-anchor="middle" x="827.5" y="-108" font-family="Helvetica,sans-Serif" font-size="10.00">_Espece_Fluide_Dilatable_base</text>
</a>
</g>
</g>
<!-- Node8&#45;&gt;Node12 -->
<g id="edge11" class="edge">
<title>Node8&#45;&gt;Node12</title>
<path fill="none" stroke="midnightblue" d="M715.12,-131.01C724.1,-129.8 733.33,-128.56 742.44,-127.33"/>
<polygon fill="midnightblue" stroke="midnightblue" points="714.54,-127.56 705.1,-132.36 715.48,-134.49 714.54,-127.56"/>
</g>
<!-- Node10 -->
<g id="node10" class="node">
<title>Node10</title>
<g id="a_node10"><a xlink:href="classConvection__Diffusion__Chaleur__QC.html" target="_top" xlink:title="classe Convection_Diffusion_Chaleur_QC Cas particulier de Convection_Diffusion_Chaleur_Fluide_Dilatab...">
<polygon fill="white" stroke="black" points="952.5,-199 952.5,-229 1072.5,-229 1072.5,-199 952.5,-199"/>
<text text-anchor="start" x="960.5" y="-217" font-family="Helvetica,sans-Serif" font-size="10.00">Convection_Diffusion</text>
<text text-anchor="middle" x="1012.5" y="-206" font-family="Helvetica,sans-Serif" font-size="10.00">_Chaleur_QC</text>
</a>
</g>
</g>
<!-- Node9&#45;&gt;Node10 -->
<g id="edge9" class="edge">
<title>Node9&#45;&gt;Node10</title>
<path fill="none" stroke="midnightblue" d="M894.79,-182.75C914.62,-188.06 936.17,-193.83 955.29,-198.95"/>
<polygon fill="midnightblue" stroke="midnightblue" points="895.46,-179.31 884.9,-180.1 893.65,-186.07 895.46,-179.31"/>
</g>
<!-- Node11 -->
<g id="node11" class="node">
<title>Node11</title>
<g id="a_node11"><a xlink:href="classConvection__Diffusion__Chaleur__WC.html" target="_top" xlink:title="classe Convection_Diffusion_Chaleur_WC Cas particulier de Convection_Diffusion_Chaleur_Fluide_Dilatab...">
<polygon fill="white" stroke="black" points="952.5,-150 952.5,-180 1072.5,-180 1072.5,-150 952.5,-150"/>
<text text-anchor="start" x="960.5" y="-168" font-family="Helvetica,sans-Serif" font-size="10.00">Convection_Diffusion</text>
<text text-anchor="middle" x="1012.5" y="-157" font-family="Helvetica,sans-Serif" font-size="10.00">_Chaleur_WC</text>
</a>
</g>
</g>
<!-- Node9&#45;&gt;Node11 -->
<g id="edge10" class="edge">
<title>Node9&#45;&gt;Node11</title>
<path fill="none" stroke="midnightblue" d="M924.12,-165C933.73,-165 943.27,-165 952.33,-165"/>
<polygon fill="midnightblue" stroke="midnightblue" points="924.11,-161.5 914.11,-165 924.11,-168.5 924.11,-161.5"/>
</g>
<!-- Node13 -->
<g id="node13" class="node">
<title>Node13</title>
<g id="a_node13"><a xlink:href="classConvection__Diffusion__Espece__Binaire__base.html" target="_top" xlink:title="classe Convection_Diffusion_Espece_Binaire_base Cas particulier de Convection_Diffusion_Espece_Fluide...">
<polygon fill="white" stroke="black" points="950,-101 950,-131 1075,-131 1075,-101 950,-101"/>
<text text-anchor="start" x="958" y="-119" font-family="Helvetica,sans-Serif" font-size="10.00">Convection_Diffusion</text>
<text text-anchor="middle" x="1012.5" y="-108" font-family="Helvetica,sans-Serif" font-size="10.00">_Espece_Binaire_base</text>
</a>
</g>
</g>
<!-- Node12&#45;&gt;Node13 -->
<g id="edge12" class="edge">
<title>Node12&#45;&gt;Node13</title>
<path fill="none" stroke="midnightblue" d="M922.56,-116C931.83,-116 941.06,-116 949.88,-116"/>
<polygon fill="midnightblue" stroke="midnightblue" points="922.5,-112.5 912.5,-116 922.5,-119.5 922.5,-112.5"/>
</g>
<!-- Node16 -->
<g id="node16" class="node">
<title>Node16</title>
<g id="a_node16"><a xlink:href="classConvection__Diffusion__Espece__Multi__base.html" target="_top" xlink:title="classe Convection_Diffusion_Espece_Multi_base Cas particulier de Convection_Diffusion_Espece_Fluide_D...">
<polygon fill="white" stroke="black" points="952.5,-52 952.5,-82 1072.5,-82 1072.5,-52 952.5,-52"/>
<text text-anchor="start" x="960.5" y="-70" font-family="Helvetica,sans-Serif" font-size="10.00">Convection_Diffusion</text>
<text text-anchor="middle" x="1012.5" y="-59" font-family="Helvetica,sans-Serif" font-size="10.00">_Espece_Multi_base</text>
</a>
</g>
</g>
<!-- Node12&#45;&gt;Node16 -->
<g id="edge15" class="edge">
<title>Node12&#45;&gt;Node16</title>
<path fill="none" stroke="midnightblue" d="M894.79,-98.25C914.62,-92.94 936.17,-87.17 955.29,-82.05"/>
<polygon fill="midnightblue" stroke="midnightblue" points="893.65,-94.93 884.9,-100.9 895.46,-101.69 893.65,-94.93"/>
</g>
<!-- Node14 -->
<g id="node14" class="node">
<title>Node14</title>
<g id="a_node14"><a xlink:href="classConvection__Diffusion__Espece__Binaire__QC.html" target="_top" xlink:title="classe Convection_Diffusion_Espece_Binaire_QC Cas particulier de Convection_Diffusion_Espece_Binaire_...">
<polygon fill="white" stroke="black" points="1111,-150 1111,-180 1231,-180 1231,-150 1111,-150"/>
<text text-anchor="start" x="1119" y="-168" font-family="Helvetica,sans-Serif" font-size="10.00">Convection_Diffusion</text>
<text text-anchor="middle" x="1171" y="-157" font-family="Helvetica,sans-Serif" font-size="10.00">_Espece_Binaire_QC</text>
</a>
</g>
</g>
<!-- Node13&#45;&gt;Node14 -->
<g id="edge13" class="edge">
<title>Node13&#45;&gt;Node14</title>
<path fill="none" stroke="midnightblue" d="M1071.35,-134.11C1087.99,-139.32 1105.95,-144.95 1121.93,-149.95"/>
<polygon fill="midnightblue" stroke="midnightblue" points="1072.32,-130.75 1061.73,-131.1 1070.23,-137.43 1072.32,-130.75"/>
</g>
<!-- Node15 -->
<g id="node15" class="node">
<title>Node15</title>
<g id="a_node15"><a xlink:href="classConvection__Diffusion__Espece__Binaire__WC.html" target="_top" xlink:title="classe Convection_Diffusion_Espece_Binaire_WC Cas particulier de Convection_Diffusion_Espece_Binaire_...">
<polygon fill="white" stroke="black" points="1111,-101 1111,-131 1231,-131 1231,-101 1111,-101"/>
<text text-anchor="start" x="1119" y="-119" font-family="Helvetica,sans-Serif" font-size="10.00">Convection_Diffusion</text>
<text text-anchor="middle" x="1171" y="-108" font-family="Helvetica,sans-Serif" font-size="10.00">_Espece_Binaire_WC</text>
</a>
</g>
</g>
<!-- Node13&#45;&gt;Node15 -->
<g id="edge14" class="edge">
<title>Node13&#45;&gt;Node15</title>
<path fill="none" stroke="midnightblue" d="M1085.61,-116C1094.07,-116 1102.63,-116 1110.89,-116"/>
<polygon fill="midnightblue" stroke="midnightblue" points="1085.35,-112.5 1075.35,-116 1085.35,-119.5 1085.35,-112.5"/>
</g>
<!-- Node17 -->
<g id="node17" class="node">
<title>Node17</title>
<g id="a_node17"><a xlink:href="classConvection__Diffusion__Espece__Multi__QC.html" target="_top" xlink:title="classe Convection_Diffusion_Espece_Multi_QC Cas particulier de Convection_Diffusion_Espece_Multi_base...">
<polygon fill="white" stroke="black" points="1111,-52 1111,-82 1231,-82 1231,-52 1111,-52"/>
<text text-anchor="start" x="1119" y="-70" font-family="Helvetica,sans-Serif" font-size="10.00">Convection_Diffusion</text>
<text text-anchor="middle" x="1171" y="-59" font-family="Helvetica,sans-Serif" font-size="10.00">_Espece_Multi_QC</text>
</a>
</g>
</g>
<!-- Node16&#45;&gt;Node17 -->
<g id="edge16" class="edge">
<title>Node16&#45;&gt;Node17</title>
<path fill="none" stroke="midnightblue" d="M1082.72,-67C1092.07,-67 1101.59,-67 1110.75,-67"/>
<polygon fill="midnightblue" stroke="midnightblue" points="1082.67,-63.5 1072.67,-67 1082.67,-70.5 1082.67,-63.5"/>
</g>
<!-- Node18 -->
<g id="node18" class="node">
<title>Node18</title>
<g id="a_node18"><a xlink:href="classConvection__Diffusion__Espece__Multi__WC.html" target="_top" xlink:title="classe Convection_Diffusion_Espece_Multi_WC Cas particulier de Convection_Diffusion_Espece_Multi_base...">
<polygon fill="white" stroke="black" points="1111,-3 1111,-33 1231,-33 1231,-3 1111,-3"/>
<text text-anchor="start" x="1119" y="-21" font-family="Helvetica,sans-Serif" font-size="10.00">Convection_Diffusion</text>
<text text-anchor="middle" x="1171" y="-10" font-family="Helvetica,sans-Serif" font-size="10.00">_Espece_Multi_WC</text>
</a>
</g>
</g>
<!-- Node16&#45;&gt;Node18 -->
<g id="edge17" class="edge">
<title>Node16&#45;&gt;Node18</title>
<path fill="none" stroke="midnightblue" d="M1071.35,-48.89C1087.99,-43.68 1105.95,-38.05 1121.93,-33.05"/>
<polygon fill="midnightblue" stroke="midnightblue" points="1070.23,-45.57 1061.73,-51.9 1072.32,-52.25 1070.23,-45.57"/>
</g>
</g>
</svg>
