<?xml version="1.0" encoding="UTF-8" standalone="no"?>
<!DOCTYPE svg PUBLIC "-//W3C//DTD SVG 1.1//EN"
 "http://www.w3.org/Graphics/SVG/1.1/DTD/svg11.dtd">
<!-- Generated by graphviz version 2.43.0 (0)
 -->
<!-- Title: Pb_Dilatable_base Pages: 1 -->
<svg width="1205pt" height="171pt"
 viewBox="0.00 0.00 1205.00 171.00" xmlns="http://www.w3.org/2000/svg" xmlns:xlink="http://www.w3.org/1999/xlink">
<g id="graph0" class="graph" transform="scale(1 1) rotate(0) translate(4 167)">
<title>Pb_Dilatable_base</title>
<polygon fill="white" stroke="transparent" points="-4,4 -4,-167 1201,-167 1201,4 -4,4"/>
<!-- Node1 -->
<g id="node1" class="node">
<title>Node1</title>
<g id="a_node1"><a xlink:title="classe Pb_Dilatable_base Cette classe est censee factoriser ce qui est commun a l&#39;ensemble des proble...">
<polygon fill="#bfbfbf" stroke="black" points="623,-72 623,-91 730,-91 730,-72 623,-72"/>
<text text-anchor="middle" x="676.5" y="-79" font-family="Helvetica,sans-Serif" font-size="10.00">Pb_Dilatable_base</text>
</a>
</g>
</g>
<!-- Node8 -->
<g id="node8" class="node">
<title>Node8</title>
<g id="a_node8"><a xlink:href="classPb__QC__base.html" target="_top" xlink:title="classe Pb_QC_base Cette classe est censee factoriser ce qui est commun a l&#39;ensemble des problemes qua...">
<polygon fill="white" stroke="black" points="767,-94 767,-113 844,-113 844,-94 767,-94"/>
<text text-anchor="middle" x="805.5" y="-101" font-family="Helvetica,sans-Serif" font-size="10.00">Pb_QC_base</text>
</a>
</g>
</g>
<!-- Node1&#45;&gt;Node8 -->
<g id="edge7" class="edge">
<title>Node1&#45;&gt;Node8</title>
<path fill="none" stroke="midnightblue" d="M740.11,-92.35C749.24,-93.93 758.39,-95.51 766.81,-96.97"/>
<polygon fill="midnightblue" stroke="midnightblue" points="740.71,-88.9 730.26,-90.64 739.51,-95.79 740.71,-88.9"/>
</g>
<!-- Node12 -->
<g id="node12" class="node">
<title>Node12</title>
<g id="a_node12"><a xlink:href="classPb__WC__base.html" target="_top" xlink:title="classe Pb_WC_base Cette classe est censee factoriser ce qui est commun a l&#39;ensemble des problemes wea...">
<polygon fill="white" stroke="black" points="766,-50 766,-69 845,-69 845,-50 766,-50"/>
<text text-anchor="middle" x="805.5" y="-57" font-family="Helvetica,sans-Serif" font-size="10.00">Pb_WC_base</text>
</a>
</g>
</g>
<!-- Node1&#45;&gt;Node12 -->
<g id="edge11" class="edge">
<title>Node1&#45;&gt;Node12</title>
<path fill="none" stroke="midnightblue" d="M740.35,-70.61C748.98,-69.12 757.63,-67.62 765.66,-66.23"/>
<polygon fill="midnightblue" stroke="midnightblue" points="739.51,-67.21 730.26,-72.36 740.71,-74.1 739.51,-67.21"/>
</g>
<!-- Node2 -->
<g id="node2" class="node">
<title>Node2</title>
<g id="a_node2"><a xlink:href="classPb__Fluide__base.html" target="_top" xlink:title="classe Pb_Fluide_base Cette classe a pour but de disposer d une classe amont pour la hierarchie des p...">
<polygon fill="white" stroke="black" points="495,-72 495,-91 587,-91 587,-72 495,-72"/>
<text text-anchor="middle" x="541" y="-79" font-family="Helvetica,sans-Serif" font-size="10.00">Pb_Fluide_base</text>
</a>
</g>
</g>
<!-- Node2&#45;&gt;Node1 -->
<g id="edge1" class="edge">
<title>Node2&#45;&gt;Node1</title>
<path fill="none" stroke="midnightblue" d="M597.37,-81.5C605.84,-81.5 614.57,-81.5 622.98,-81.5"/>
<polygon fill="midnightblue" stroke="midnightblue" points="597.2,-78 587.2,-81.5 597.2,-85 597.2,-78"/>
</g>
<!-- Node3 -->
<g id="node3" class="node">
<title>Node3</title>
<g id="a_node3"><a xlink:href="classProbleme__base.html" target="_top" xlink:title="classe Probleme_base C&#39;est un Probleme_U qui n&#39;est pas un couplage. Le role d&#39;un Probleme_base est la...">
<polygon fill="white" stroke="black" points="367,-72 367,-91 459,-91 459,-72 367,-72"/>
<text text-anchor="middle" x="413" y="-79" font-family="Helvetica,sans-Serif" font-size="10.00">Probleme_base</text>
</a>
</g>
</g>
<!-- Node3&#45;&gt;Node2 -->
<g id="edge2" class="edge">
<title>Node3&#45;&gt;Node2</title>
<path fill="none" stroke="midnightblue" d="M469.35,-81.5C477.84,-81.5 486.52,-81.5 494.76,-81.5"/>
<polygon fill="midnightblue" stroke="midnightblue" points="469.13,-78 459.13,-81.5 469.13,-85 469.13,-78"/>
</g>
<!-- Node4 -->
<g id="node4" class="node">
<title>Node4</title>
<g id="a_node4"><a xlink:href="classChamps__compris__interface.html" target="_top" xlink:title="classe Champs_compris_interface Cette classe contient une interface de methodes destinees a gerer les...">
<polygon fill="white" stroke="black" points="182,-91 182,-110 331,-110 331,-91 182,-91"/>
<text text-anchor="middle" x="256.5" y="-98" font-family="Helvetica,sans-Serif" font-size="10.00">Champs_compris_interface</text>
</a>
</g>
</g>
<!-- Node4&#45;&gt;Node3 -->
<g id="edge3" class="edge">
<title>Node4&#45;&gt;Node3</title>
<path fill="none" stroke="midnightblue" d="M341.08,-90.22C349.87,-89.14 358.55,-88.07 366.66,-87.08"/>
<polygon fill="midnightblue" stroke="midnightblue" points="340.63,-86.75 331.13,-91.45 341.48,-93.7 340.63,-86.75"/>
</g>
<!-- Node5 -->
<g id="node5" class="node">
<title>Node5</title>
<g id="a_node5"><a xlink:href="classProbleme__U.html" target="_top" xlink:title="classe Probleme_U Cette classe ajoute des specificites TRUST a l&#39;interface generale definie dans la c...">
<polygon fill="white" stroke="black" points="218.5,-53 218.5,-72 294.5,-72 294.5,-53 218.5,-53"/>
<text text-anchor="middle" x="256.5" y="-60" font-family="Helvetica,sans-Serif" font-size="10.00">Probleme_U</text>
</a>
</g>
</g>
<!-- Node5&#45;&gt;Node3 -->
<g id="edge4" class="edge">
<title>Node5&#45;&gt;Node3</title>
<path fill="none" stroke="midnightblue" d="M304.52,-68.28C324.28,-70.71 347.18,-73.53 366.75,-75.93"/>
<polygon fill="midnightblue" stroke="midnightblue" points="304.86,-64.8 294.51,-67.05 304,-71.75 304.86,-64.8"/>
</g>
<!-- Node6 -->
<g id="node6" class="node">
<title>Node6</title>
<g id="a_node6"><a xlink:href="classObjet__U.html" target="_top" xlink:title="classe Objet_U Cette classe est la classe de base des Objets de TRUST Dans les classes derivees de Ob...">
<polygon fill="white" stroke="black" points="90,-53 90,-72 146,-72 146,-53 90,-53"/>
<text text-anchor="middle" x="118" y="-60" font-family="Helvetica,sans-Serif" font-size="10.00">Objet_U</text>
</a>
</g>
</g>
<!-- Node6&#45;&gt;Node5 -->
<g id="edge5" class="edge">
<title>Node6&#45;&gt;Node5</title>
<path fill="none" stroke="midnightblue" d="M156.53,-62.5C175.8,-62.5 199.22,-62.5 218.43,-62.5"/>
<polygon fill="midnightblue" stroke="midnightblue" points="156.29,-59 146.29,-62.5 156.29,-66 156.29,-59"/>
</g>
<!-- Node7 -->
<g id="node7" class="node">
<title>Node7</title>
<g id="a_node7"><a xlink:href="classProcess.html" target="_top" xlink:title="Classe de base de TRUST (notamment Objet_U). Elle fournit quelques services de base accessibles de pa...">
<polygon fill="white" stroke="black" points="0,-53 0,-72 54,-72 54,-53 0,-53"/>
<text text-anchor="middle" x="27" y="-60" font-family="Helvetica,sans-Serif" font-size="10.00">Process</text>
</a>
</g>
</g>
<!-- Node7&#45;&gt;Node6 -->
<g id="edge6" class="edge">
<title>Node7&#45;&gt;Node6</title>
<path fill="none" stroke="midnightblue" d="M64.29,-62.5C72.79,-62.5 81.7,-62.5 89.73,-62.5"/>
<polygon fill="midnightblue" stroke="midnightblue" points="64.22,-59 54.22,-62.5 64.22,-66 64.22,-59"/>
</g>
<!-- Node9 -->
<g id="node9" class="node">
<title>Node9</title>
<g id="a_node9"><a xlink:href="classPb__Hydraulique__Melange__Binaire__QC.html" target="_top" xlink:title="classe Pb_Hydraulique_Melange_Binaire_QC Cette classe represente un probleme de hydraulique binaire e...">
<polygon fill="white" stroke="black" points="886.5,-132.5 886.5,-162.5 1026.5,-162.5 1026.5,-132.5 886.5,-132.5"/>
<text text-anchor="start" x="894.5" y="-150.5" font-family="Helvetica,sans-Serif" font-size="10.00">Pb_Hydraulique_Melange</text>
<text text-anchor="middle" x="956.5" y="-139.5" font-family="Helvetica,sans-Serif" font-size="10.00">_Binaire_QC</text>
</a>
</g>
</g>
<!-- Node8&#45;&gt;Node9 -->
<g id="edge8" class="edge">
<title>Node8&#45;&gt;Node9</title>
<path fill="none" stroke="midnightblue" d="M848.68,-115.96C866.04,-121.08 886.3,-127.06 904.48,-132.43"/>
<polygon fill="midnightblue" stroke="midnightblue" points="849.41,-112.52 838.83,-113.05 847.43,-119.24 849.41,-112.52"/>
</g>
<!-- Node10 -->
<g id="node10" class="node">
<title>Node10</title>
<g id="a_node10"><a xlink:href="classPb__Thermohydraulique__QC.html" target="_top" xlink:title="classe Pb_Thermohydraulique_QC Cette classe represente un probleme de thermohydraulique en fluide qua...">
<polygon fill="white" stroke="black" points="882,-94 882,-113 1031,-113 1031,-94 882,-94"/>
<text text-anchor="middle" x="956.5" y="-101" font-family="Helvetica,sans-Serif" font-size="10.00">Pb_Thermohydraulique_QC</text>
</a>
</g>
</g>
<!-- Node8&#45;&gt;Node10 -->
<g id="edge9" class="edge">
<title>Node8&#45;&gt;Node10</title>
<path fill="none" stroke="midnightblue" d="M854.19,-103.5C863.04,-103.5 872.47,-103.5 881.89,-103.5"/>
<polygon fill="midnightblue" stroke="midnightblue" points="854.1,-100 844.1,-103.5 854.1,-107 854.1,-100"/>
</g>
<!-- Node11 -->
<g id="node11" class="node">
<title>Node11</title>
<g id="a_node11"><a xlink:href="classPb__Thermohydraulique__Especes__QC.html" target="_top" xlink:title=" ">
<polygon fill="white" stroke="black" points="1068,-88.5 1068,-118.5 1197,-118.5 1197,-88.5 1068,-88.5"/>
<text text-anchor="start" x="1076" y="-106.5" font-family="Helvetica,sans-Serif" font-size="10.00">Pb_Thermohydraulique</text>
<text text-anchor="middle" x="1132.5" y="-95.5" font-family="Helvetica,sans-Serif" font-size="10.00">_Especes_QC</text>
</a>
</g>
</g>
<!-- Node10&#45;&gt;Node11 -->
<g id="edge10" class="edge">
<title>Node10&#45;&gt;Node11</title>
<path fill="none" stroke="midnightblue" d="M1041.14,-103.5C1050.13,-103.5 1059.16,-103.5 1067.86,-103.5"/>
<polygon fill="midnightblue" stroke="midnightblue" points="1041.04,-100 1031.04,-103.5 1041.04,-107 1041.04,-100"/>
</g>
<!-- Node13 -->
<g id="node13" class="node">
<title>Node13</title>
<g id="a_node13"><a xlink:href="classPb__Hydraulique__Melange__Binaire__WC.html" target="_top" xlink:title="classe Pb_Hydraulique_Melange_Binaire_WC Cette classe represente un probleme de hydraulique binaire e...">
<polygon fill="white" stroke="black" points="886.5,-44.5 886.5,-74.5 1026.5,-74.5 1026.5,-44.5 886.5,-44.5"/>
<text text-anchor="start" x="894.5" y="-62.5" font-family="Helvetica,sans-Serif" font-size="10.00">Pb_Hydraulique_Melange</text>
<text text-anchor="middle" x="956.5" y="-51.5" font-family="Helvetica,sans-Serif" font-size="10.00">_Binaire_WC</text>
</a>
</g>
</g>
<!-- Node12&#45;&gt;Node13 -->
<g id="edge12" class="edge">
<title>Node12&#45;&gt;Node13</title>
<path fill="none" stroke="midnightblue" d="M855.32,-59.5C865.24,-59.5 875.86,-59.5 886.34,-59.5"/>
<polygon fill="midnightblue" stroke="midnightblue" points="855.26,-56 845.26,-59.5 855.26,-63 855.26,-56"/>
</g>
<!-- Node14 -->
<g id="node14" class="node">
<title>Node14</title>
<g id="a_node14"><a xlink:href="classPb__Thermohydraulique__WC.html" target="_top" xlink:title="classe Pb_Thermohydraulique_WC Cette classe represente un probleme de thermohydraulique en fluide wea...">
<polygon fill="white" stroke="black" points="881,-6 881,-25 1032,-25 1032,-6 881,-6"/>
<text text-anchor="middle" x="956.5" y="-13" font-family="Helvetica,sans-Serif" font-size="10.00">Pb_Thermohydraulique_WC</text>
</a>
</g>
</g>
<!-- Node12&#45;&gt;Node14 -->
<g id="edge13" class="edge">
<title>Node12&#45;&gt;Node14</title>
<path fill="none" stroke="midnightblue" d="M842.97,-46.66C855.02,-42.58 868.53,-38.18 881,-34.5 892.27,-31.18 904.59,-27.89 915.91,-25.02"/>
<polygon fill="midnightblue" stroke="midnightblue" points="841.57,-43.44 833.24,-49.99 843.84,-50.06 841.57,-43.44"/>
</g>
<!-- Node15 -->
<g id="node15" class="node">
<title>Node15</title>
<g id="a_node15"><a xlink:href="classPb__Thermohydraulique__Especes__WC.html" target="_top" xlink:title=" ">
<polygon fill="white" stroke="black" points="1068,-0.5 1068,-30.5 1197,-30.5 1197,-0.5 1068,-0.5"/>
<text text-anchor="start" x="1076" y="-18.5" font-family="Helvetica,sans-Serif" font-size="10.00">Pb_Thermohydraulique</text>
<text text-anchor="middle" x="1132.5" y="-7.5" font-family="Helvetica,sans-Serif" font-size="10.00">_Especes_WC</text>
</a>
</g>
</g>
<!-- Node14&#45;&gt;Node15 -->
<g id="edge14" class="edge">
<title>Node14&#45;&gt;Node15</title>
<path fill="none" stroke="midnightblue" d="M1042.14,-15.5C1050.77,-15.5 1059.43,-15.5 1067.78,-15.5"/>
<polygon fill="midnightblue" stroke="midnightblue" points="1042.05,-12 1032.05,-15.5 1042.05,-19 1042.05,-12"/>
</g>
</g>
</svg>
