<?xml version="1.0" encoding="UTF-8" standalone="no"?>
<!DOCTYPE svg PUBLIC "-//W3C//DTD SVG 1.1//EN"
 "http://www.w3.org/Graphics/SVG/1.1/DTD/svg11.dtd">
<!-- Generated by graphviz version 2.43.0 (0)
 -->
<!-- Title: Champ_Don_Fonc_txyz Pages: 1 -->
<svg width="296pt" height="459pt"
 viewBox="0.00 0.00 295.50 459.00" xmlns="http://www.w3.org/2000/svg" xmlns:xlink="http://www.w3.org/1999/xlink">
<g id="graph0" class="graph" transform="scale(1 1) rotate(0) translate(4 455)">
<title>Champ_Don_Fonc_txyz</title>
<polygon fill="white" stroke="transparent" points="-4,4 -4,-455 291.5,-455 291.5,4 -4,4"/>
<!-- Node1 -->
<g id="node1" class="node">
<title>Node1</title>
<g id="a_node1"><a xlink:title="class Champ_Don_Fonc_txyz Cette classe represente un champ de donnees fonction des variables d&#39;espace...">
<polygon fill="#bfbfbf" stroke="black" points="15.5,-0.5 15.5,-19.5 145.5,-19.5 145.5,-0.5 15.5,-0.5"/>
<text text-anchor="middle" x="80.5" y="-7.5" font-family="Helvetica,sans-Serif" font-size="10.00">Champ_Don_Fonc_txyz</text>
</a>
</g>
</g>
<!-- Node2 -->
<g id="node2" class="node">
<title>Node2</title>
<g id="a_node2"><a xlink:href="classTRUSTChamp__Don__generique.html" target="_top" xlink:title=" ">
<polygon fill="white" stroke="black" points="0,-57.5 0,-87.5 161,-87.5 161,-57.5 0,-57.5"/>
<text text-anchor="start" x="8" y="-75.5" font-family="Helvetica,sans-Serif" font-size="10.00">TRUSTChamp_Don_generique</text>
<text text-anchor="middle" x="80.5" y="-64.5" font-family="Helvetica,sans-Serif" font-size="10.00">&lt; Champ_Don_Type::TXYZ &gt;</text>
</a>
</g>
</g>
<!-- Node2&#45;&gt;Node1 -->
<g id="edge1" class="edge">
<title>Node2&#45;&gt;Node1</title>
<path fill="none" stroke="midnightblue" d="M80.5,-47.35C80.5,-37.51 80.5,-26.78 80.5,-19.54"/>
<polygon fill="midnightblue" stroke="midnightblue" points="77,-47.47 80.5,-57.47 84,-47.47 77,-47.47"/>
</g>
<!-- Node3 -->
<g id="node3" class="node">
<title>Node3</title>
<g id="a_node3"><a xlink:href="classChamp__Don__base.html" target="_top" xlink:title=" ">
<polygon fill="white" stroke="black" points="147.5,-203.5 147.5,-222.5 251.5,-222.5 251.5,-203.5 147.5,-203.5"/>
<text text-anchor="middle" x="199.5" y="-210.5" font-family="Helvetica,sans-Serif" font-size="10.00">Champ_Don_base</text>
</a>
</g>
</g>
<!-- Node3&#45;&gt;Node2 -->
<g id="edge2" class="edge">
<title>Node3&#45;&gt;Node2</title>
<path fill="none" stroke="midnightblue" d="M211.94,-194.97C226.86,-172.3 247.38,-132.04 226.5,-106 217.69,-95.01 190.12,-87.5 161.28,-82.49"/>
<polygon fill="midnightblue" stroke="midnightblue" points="209.02,-193.04 206.22,-203.26 214.78,-197.02 209.02,-193.04"/>
</g>
<!-- Node10 -->
<g id="node10" class="node">
<title>Node10</title>
<g id="a_node10"><a xlink:href="classTRUSTChamp__Don__generique.html" target="_top" xlink:title=" ">
<polygon fill="white" stroke="black" points="51,-135.5 51,-165.5 212,-165.5 212,-135.5 51,-135.5"/>
<text text-anchor="start" x="59" y="-153.5" font-family="Helvetica,sans-Serif" font-size="10.00">TRUSTChamp_Don_generique</text>
<text text-anchor="middle" x="131.5" y="-142.5" font-family="Helvetica,sans-Serif" font-size="10.00">&lt; _TYPE_ &gt;</text>
</a>
</g>
</g>
<!-- Node3&#45;&gt;Node10 -->
<g id="edge10" class="edge">
<title>Node3&#45;&gt;Node10</title>
<path fill="none" stroke="midnightblue" d="M182.21,-196.62C171.45,-187.05 157.72,-174.83 147.26,-165.53"/>
<polygon fill="midnightblue" stroke="midnightblue" points="179.96,-199.3 189.76,-203.33 184.61,-194.07 179.96,-199.3"/>
</g>
<!-- Node4 -->
<g id="node4" class="node">
<title>Node4</title>
<g id="a_node4"><a xlink:href="classChamp__base.html" target="_top" xlink:title="classe Champ_base Cette classe est la base de la hierarchie des champs. Ses membres sont les attribut...">
<polygon fill="white" stroke="black" points="159.5,-260.5 159.5,-279.5 239.5,-279.5 239.5,-260.5 159.5,-260.5"/>
<text text-anchor="middle" x="199.5" y="-267.5" font-family="Helvetica,sans-Serif" font-size="10.00">Champ_base</text>
</a>
</g>
</g>
<!-- Node4&#45;&gt;Node3 -->
<g id="edge3" class="edge">
<title>Node4&#45;&gt;Node3</title>
<path fill="none" stroke="midnightblue" d="M199.5,-250.12C199.5,-240.82 199.5,-230.06 199.5,-222.71"/>
<polygon fill="midnightblue" stroke="midnightblue" points="196,-250.41 199.5,-260.41 203,-250.41 196,-250.41"/>
</g>
<!-- Node5 -->
<g id="node5" class="node">
<title>Node5</title>
<g id="a_node5"><a xlink:href="classField__base.html" target="_top" xlink:title=" ">
<polygon fill="white" stroke="black" points="119.5,-317.5 119.5,-336.5 187.5,-336.5 187.5,-317.5 119.5,-317.5"/>
<text text-anchor="middle" x="153.5" y="-324.5" font-family="Helvetica,sans-Serif" font-size="10.00">Field_base</text>
</a>
</g>
</g>
<!-- Node5&#45;&gt;Node4 -->
<g id="edge4" class="edge">
<title>Node5&#45;&gt;Node4</title>
<path fill="none" stroke="midnightblue" d="M167.27,-309.53C175.47,-299.74 185.53,-287.7 192.21,-279.71"/>
<polygon fill="midnightblue" stroke="midnightblue" points="164.42,-307.49 160.69,-317.41 169.79,-311.98 164.42,-307.49"/>
</g>
<!-- Node6 -->
<g id="node6" class="node">
<title>Node6</title>
<g id="a_node6"><a xlink:href="classObjet__U.html" target="_top" xlink:title="classe Objet_U Cette classe est la classe de base des Objets de TRUST Dans les classes derivees de Ob...">
<polygon fill="white" stroke="black" points="125.5,-374.5 125.5,-393.5 181.5,-393.5 181.5,-374.5 125.5,-374.5"/>
<text text-anchor="middle" x="153.5" y="-381.5" font-family="Helvetica,sans-Serif" font-size="10.00">Objet_U</text>
</a>
</g>
</g>
<!-- Node6&#45;&gt;Node5 -->
<g id="edge5" class="edge">
<title>Node6&#45;&gt;Node5</title>
<path fill="none" stroke="midnightblue" d="M153.5,-364.12C153.5,-354.82 153.5,-344.06 153.5,-336.71"/>
<polygon fill="midnightblue" stroke="midnightblue" points="150,-364.41 153.5,-374.41 157,-364.41 150,-364.41"/>
</g>
<!-- Node7 -->
<g id="node7" class="node">
<title>Node7</title>
<g id="a_node7"><a xlink:href="classProcess.html" target="_top" xlink:title="Classe de base de TRUST (notamment Objet_U). Elle fournit quelques services de base accessibles de pa...">
<polygon fill="white" stroke="black" points="126.5,-431.5 126.5,-450.5 180.5,-450.5 180.5,-431.5 126.5,-431.5"/>
<text text-anchor="middle" x="153.5" y="-438.5" font-family="Helvetica,sans-Serif" font-size="10.00">Process</text>
</a>
</g>
</g>
<!-- Node7&#45;&gt;Node6 -->
<g id="edge6" class="edge">
<title>Node7&#45;&gt;Node6</title>
<path fill="none" stroke="midnightblue" d="M153.5,-421.12C153.5,-411.82 153.5,-401.06 153.5,-393.71"/>
<polygon fill="midnightblue" stroke="midnightblue" points="150,-421.41 153.5,-431.41 157,-421.41 150,-421.41"/>
</g>
<!-- Node8 -->
<g id="node8" class="node">
<title>Node8</title>
<g id="a_node8"><a xlink:href="classChamp__Proto.html" target="_top" xlink:title="classe Champ_Proto Classe representant un prototype de Champ. Tous les classes representant des champ...">
<polygon fill="white" stroke="black" points="205.5,-317.5 205.5,-336.5 287.5,-336.5 287.5,-317.5 205.5,-317.5"/>
<text text-anchor="middle" x="246.5" y="-324.5" font-family="Helvetica,sans-Serif" font-size="10.00">Champ_Proto</text>
</a>
</g>
</g>
<!-- Node8&#45;&gt;Node4 -->
<g id="edge7" class="edge">
<title>Node8&#45;&gt;Node4</title>
<path fill="none" stroke="midnightblue" d="M232.43,-309.53C224.06,-299.74 213.77,-287.7 206.95,-279.71"/>
<polygon fill="midnightblue" stroke="midnightblue" points="230,-312.08 239.16,-317.41 235.32,-307.53 230,-312.08"/>
</g>
<!-- Node9 -->
<g id="node9" class="node">
<title>Node9</title>
<g id="a_node9"><a xlink:href="classParser__Eval.html" target="_top" xlink:title="Classe Parser_Eval Cette classe a pour fonction d evaleur les valeurs prises par une fonction analyti...">
<polygon fill="white" stroke="black" points="35,-203.5 35,-222.5 108,-222.5 108,-203.5 35,-203.5"/>
<text text-anchor="middle" x="71.5" y="-210.5" font-family="Helvetica,sans-Serif" font-size="10.00">Parser_Eval</text>
</a>
</g>
</g>
<!-- Node9&#45;&gt;Node2 -->
<g id="edge8" class="edge">
<title>Node9&#45;&gt;Node2</title>
<path fill="none" stroke="midnightblue" d="M57.23,-195.29C51.11,-187.05 44.65,-176.6 41.5,-166 37.57,-152.79 37.66,-148.23 41.5,-135 46.72,-117.03 58.94,-99.28 68.32,-87.51"/>
<polygon fill="midnightblue" stroke="midnightblue" points="54.61,-197.62 63.56,-203.29 60.1,-193.28 54.61,-197.62"/>
</g>
<!-- Node9&#45;&gt;Node10 -->
<g id="edge11" class="edge">
<title>Node9&#45;&gt;Node10</title>
<path fill="none" stroke="midnightblue" d="M87.26,-196.11C96.6,-186.69 108.32,-174.87 117.36,-165.76"/>
<polygon fill="midnightblue" stroke="midnightblue" points="84.65,-193.77 80.1,-203.33 89.62,-198.7 84.65,-193.77"/>
</g>
<!-- Node10&#45;&gt;Node2 -->
<g id="edge9" class="edge">
<title>Node10&#45;&gt;Node2</title>
<path fill="none" stroke="orange" stroke-dasharray="5,2" d="M91.65,-129.27C87.63,-125.71 84.08,-121.63 81.5,-117 76.57,-108.16 76.53,-96.66 77.61,-87.7"/>
<polygon fill="orange" stroke="orange" points="89.77,-132.23 99.85,-135.49 94,-126.65 89.77,-132.23"/>
<text text-anchor="middle" x="154" y="-109" font-family="Helvetica,sans-Serif" font-size="10.00"> &lt; Champ_Don_Type::TXYZ &gt;</text>
</g>
</g>
</svg>
