<?xml version="1.0" encoding="UTF-8" standalone="no"?>
<!DOCTYPE svg PUBLIC "-//W3C//DTD SVG 1.1//EN"
 "http://www.w3.org/Graphics/SVG/1.1/DTD/svg11.dtd">
<!-- Generated by graphviz version 2.43.0 (0)
 -->
<!-- Title: Postraitement_lata Pages: 1 -->
<svg width="122pt" height="196pt"
 viewBox="0.00 0.00 122.00 196.00" xmlns="http://www.w3.org/2000/svg" xmlns:xlink="http://www.w3.org/1999/xlink">
<g id="graph0" class="graph" transform="scale(1 1) rotate(0) translate(4 192)">
<title>Postraitement_lata</title>
<polygon fill="white" stroke="transparent" points="-4,4 -4,-192 118,-192 118,4 -4,4"/>
<!-- Node1 -->
<g id="node1" class="node">
<title>Node1</title>
<g id="a_node1"><a xlink:title=": Classe de postraitement des champs euleriens au format lata. On peut l&#39;utiliser sans creer d&#39;instan...">
<polygon fill="#bfbfbf" stroke="black" points="2,-0.5 2,-19.5 112,-19.5 112,-0.5 2,-0.5"/>
<text text-anchor="middle" x="57" y="-7.5" font-family="Helvetica,sans-Serif" font-size="10.00">Postraitement_lata</text>
</a>
</g>
</g>
<!-- Node2 -->
<g id="node2" class="node">
<title>Node2</title>
<g id="a_node2"><a xlink:href="classPostraitement__base.html" target="_top" xlink:title="Classe de base pour l&#39;ensemble des postraitements.">
<polygon fill="white" stroke="black" points="0,-56.5 0,-75.5 114,-75.5 114,-56.5 0,-56.5"/>
<text text-anchor="middle" x="57" y="-63.5" font-family="Helvetica,sans-Serif" font-size="10.00">Postraitement_base</text>
</a>
</g>
</g>
<!-- Node2&#45;&gt;Node1 -->
<g id="edge1" class="edge">
<title>Node2&#45;&gt;Node1</title>
<path fill="none" stroke="midnightblue" d="M57,-45.8C57,-36.91 57,-26.78 57,-19.75"/>
<polygon fill="midnightblue" stroke="midnightblue" points="53.5,-46.08 57,-56.08 60.5,-46.08 53.5,-46.08"/>
</g>
<!-- Node3 -->
<g id="node3" class="node">
<title>Node3</title>
<g id="a_node3"><a xlink:href="classObjet__U.html" target="_top" xlink:title="classe Objet_U Cette classe est la classe de base des Objets de TRUST Dans les classes derivees de Ob...">
<polygon fill="white" stroke="black" points="29,-112.5 29,-131.5 85,-131.5 85,-112.5 29,-112.5"/>
<text text-anchor="middle" x="57" y="-119.5" font-family="Helvetica,sans-Serif" font-size="10.00">Objet_U</text>
</a>
</g>
</g>
<!-- Node3&#45;&gt;Node2 -->
<g id="edge2" class="edge">
<title>Node3&#45;&gt;Node2</title>
<path fill="none" stroke="midnightblue" d="M57,-101.8C57,-92.91 57,-82.78 57,-75.75"/>
<polygon fill="midnightblue" stroke="midnightblue" points="53.5,-102.08 57,-112.08 60.5,-102.08 53.5,-102.08"/>
</g>
<!-- Node4 -->
<g id="node4" class="node">
<title>Node4</title>
<g id="a_node4"><a xlink:href="classProcess.html" target="_top" xlink:title="Classe de base de TRUST (notamment Objet_U). Elle fournit quelques services de base accessibles de pa...">
<polygon fill="white" stroke="black" points="30,-168.5 30,-187.5 84,-187.5 84,-168.5 30,-168.5"/>
<text text-anchor="middle" x="57" y="-175.5" font-family="Helvetica,sans-Serif" font-size="10.00">Process</text>
</a>
</g>
</g>
<!-- Node4&#45;&gt;Node3 -->
<g id="edge3" class="edge">
<title>Node4&#45;&gt;Node3</title>
<path fill="none" stroke="midnightblue" d="M57,-157.8C57,-148.91 57,-138.78 57,-131.75"/>
<polygon fill="midnightblue" stroke="midnightblue" points="53.5,-158.08 57,-168.08 60.5,-158.08 53.5,-158.08"/>
</g>
</g>
</svg>
