<?xml version="1.0" encoding="UTF-8" standalone="no"?>
<!DOCTYPE svg PUBLIC "-//W3C//DTD SVG 1.1//EN"
 "http://www.w3.org/Graphics/SVG/1.1/DTD/svg11.dtd">
<!-- Generated by graphviz version 2.43.0 (0)
 -->
<!-- Title: Echange_global_impose Pages: 1 -->
<svg width="1038pt" height="214pt"
 viewBox="0.00 0.00 1038.00 214.00" xmlns="http://www.w3.org/2000/svg" xmlns:xlink="http://www.w3.org/1999/xlink">
<g id="graph0" class="graph" transform="scale(1 1) rotate(0) translate(4 210)">
<title>Echange_global_impose</title>
<polygon fill="white" stroke="transparent" points="-4,4 -4,-210 1034,-210 1034,4 -4,4"/>
<!-- Node1 -->
<g id="node1" class="node">
<title>Node1</title>
<g id="a_node1"><a xlink:title="Classe Echange_global_impose Cette classe represente le cas particulier de la classe Echange_impose_b...">
<polygon fill="#bfbfbf" stroke="black" points="473,-88.5 473,-107.5 607,-107.5 607,-88.5 473,-88.5"/>
<text text-anchor="middle" x="540" y="-95.5" font-family="Helvetica,sans-Serif" font-size="10.00">Echange_global_impose</text>
</a>
</g>
</g>
<!-- Node6 -->
<g id="node6" class="node">
<title>Node6</title>
<g id="a_node6"><a xlink:href="classEchange__contact__Correlation__VDF.html" target="_top" xlink:title=" ">
<polygon fill="white" stroke="black" points="643,-164.5 643,-183.5 827,-183.5 827,-164.5 643,-164.5"/>
<text text-anchor="middle" x="735" y="-171.5" font-family="Helvetica,sans-Serif" font-size="10.00">Echange_contact_Correlation_VDF</text>
</a>
</g>
</g>
<!-- Node1&#45;&gt;Node6 -->
<g id="edge5" class="edge">
<title>Node1&#45;&gt;Node6</title>
<path fill="none" stroke="midnightblue" d="M563.28,-113.07C583.32,-125.98 614,-144.16 643,-155 653.13,-158.79 664.19,-161.89 675,-164.41"/>
<polygon fill="midnightblue" stroke="midnightblue" points="565.14,-110.11 554.86,-107.56 561.31,-115.97 565.14,-110.11"/>
</g>
<!-- Node9 -->
<g id="node9" class="node">
<title>Node9</title>
<g id="a_node9"><a xlink:href="classEchange__contact__VDF.html" target="_top" xlink:title=" ">
<polygon fill="white" stroke="black" points="672.5,-126.5 672.5,-145.5 797.5,-145.5 797.5,-126.5 672.5,-126.5"/>
<text text-anchor="middle" x="735" y="-133.5" font-family="Helvetica,sans-Serif" font-size="10.00">Echange_contact_VDF</text>
</a>
</g>
</g>
<!-- Node1&#45;&gt;Node9 -->
<g id="edge8" class="edge">
<title>Node1&#45;&gt;Node9</title>
<path fill="none" stroke="midnightblue" d="M599.6,-109.54C627.13,-114.96 659.55,-121.34 685.65,-126.48"/>
<polygon fill="midnightblue" stroke="midnightblue" points="600.19,-106.09 589.7,-107.59 598.84,-112.95 600.19,-106.09"/>
</g>
<!-- Node10 -->
<g id="node10" class="node">
<title>Node10</title>
<g id="a_node10"><a xlink:href="classEchange__couplage__thermique.html" target="_top" xlink:title=": class Echange_couplage_thermique &lt;Description of class Echange_couplage_thermique&gt;">
<polygon fill="white" stroke="black" points="653.5,-88.5 653.5,-107.5 816.5,-107.5 816.5,-88.5 653.5,-88.5"/>
<text text-anchor="middle" x="735" y="-95.5" font-family="Helvetica,sans-Serif" font-size="10.00">Echange_couplage_thermique</text>
</a>
</g>
</g>
<!-- Node1&#45;&gt;Node10 -->
<g id="edge9" class="edge">
<title>Node1&#45;&gt;Node10</title>
<path fill="none" stroke="midnightblue" d="M617.38,-98C629.17,-98 641.38,-98 653.26,-98"/>
<polygon fill="midnightblue" stroke="midnightblue" points="617.15,-94.5 607.15,-98 617.15,-101.5 617.15,-94.5"/>
</g>
<!-- Node11 -->
<g id="node11" class="node">
<title>Node11</title>
<g id="a_node11"><a xlink:href="classEchange__interne__global__impose.html" target="_top" xlink:title="Classe Echange_interne_global_impose: Cette classe represente le cas particulier de la classe Echange...">
<polygon fill="white" stroke="black" points="668.5,-39 668.5,-69 801.5,-69 801.5,-39 668.5,-39"/>
<text text-anchor="start" x="676.5" y="-57" font-family="Helvetica,sans-Serif" font-size="10.00">Echange_interne_global</text>
<text text-anchor="middle" x="735" y="-46" font-family="Helvetica,sans-Serif" font-size="10.00">_impose</text>
</a>
</g>
</g>
<!-- Node1&#45;&gt;Node11 -->
<g id="edge10" class="edge">
<title>Node1&#45;&gt;Node11</title>
<path fill="none" stroke="midnightblue" d="M592.86,-86.18C616.06,-80.89 643.67,-74.59 668.29,-68.98"/>
<polygon fill="midnightblue" stroke="midnightblue" points="591.85,-82.82 582.88,-88.45 593.41,-89.64 591.85,-82.82"/>
</g>
<!-- Node13 -->
<g id="node13" class="node">
<title>Node13</title>
<g id="a_node13"><a xlink:href="classPlaqThVDF.html" target="_top" xlink:title="PlaqThVDF Cette classe derive de Echange_global_impose ( voir Echange_impose ) Elle represente une pl...">
<polygon fill="white" stroke="black" points="700,-0.5 700,-19.5 770,-19.5 770,-0.5 700,-0.5"/>
<text text-anchor="middle" x="735" y="-7.5" font-family="Helvetica,sans-Serif" font-size="10.00">PlaqThVDF</text>
</a>
</g>
</g>
<!-- Node1&#45;&gt;Node13 -->
<g id="edge12" class="edge">
<title>Node1&#45;&gt;Node13</title>
<path fill="none" stroke="midnightblue" d="M559.88,-81.88C579.42,-66.03 611.44,-42.35 643,-29 660.98,-21.39 682.3,-16.73 699.78,-13.93"/>
<polygon fill="midnightblue" stroke="midnightblue" points="557.55,-79.26 552.07,-88.33 562.01,-84.66 557.55,-79.26"/>
</g>
<!-- Node2 -->
<g id="node2" class="node">
<title>Node2</title>
<g id="a_node2"><a xlink:href="classEchange__impose__base.html" target="_top" xlink:title="classe Echange_impose_base: Cette condition limite sert uniquement pour l&#39;equation d&#39;energie....">
<polygon fill="white" stroke="black" points="309,-88.5 309,-107.5 437,-107.5 437,-88.5 309,-88.5"/>
<text text-anchor="middle" x="373" y="-95.5" font-family="Helvetica,sans-Serif" font-size="10.00">Echange_impose_base</text>
</a>
</g>
</g>
<!-- Node2&#45;&gt;Node1 -->
<g id="edge1" class="edge">
<title>Node2&#45;&gt;Node1</title>
<path fill="none" stroke="midnightblue" d="M447.52,-98C455.95,-98 464.51,-98 472.84,-98"/>
<polygon fill="midnightblue" stroke="midnightblue" points="447.32,-94.5 437.32,-98 447.32,-101.5 447.32,-94.5"/>
</g>
<!-- Node3 -->
<g id="node3" class="node">
<title>Node3</title>
<g id="a_node3"><a xlink:href="classCond__lim__base.html" target="_top" xlink:title="classe Cond_lim_base Classe de base pour la hierarchie des classes qui representent les differentes c...">
<polygon fill="white" stroke="black" points="182,-88.5 182,-107.5 273,-107.5 273,-88.5 182,-88.5"/>
<text text-anchor="middle" x="227.5" y="-95.5" font-family="Helvetica,sans-Serif" font-size="10.00">Cond_lim_base</text>
</a>
</g>
</g>
<!-- Node3&#45;&gt;Node2 -->
<g id="edge2" class="edge">
<title>Node3&#45;&gt;Node2</title>
<path fill="none" stroke="midnightblue" d="M283.2,-98C291.62,-98 300.38,-98 308.97,-98"/>
<polygon fill="midnightblue" stroke="midnightblue" points="283.12,-94.5 273.12,-98 283.12,-101.5 283.12,-94.5"/>
</g>
<!-- Node4 -->
<g id="node4" class="node">
<title>Node4</title>
<g id="a_node4"><a xlink:href="classObjet__U.html" target="_top" xlink:title="classe Objet_U Cette classe est la classe de base des Objets de TRUST Dans les classes derivees de Ob...">
<polygon fill="white" stroke="black" points="90,-88.5 90,-107.5 146,-107.5 146,-88.5 90,-88.5"/>
<text text-anchor="middle" x="118" y="-95.5" font-family="Helvetica,sans-Serif" font-size="10.00">Objet_U</text>
</a>
</g>
</g>
<!-- Node4&#45;&gt;Node3 -->
<g id="edge3" class="edge">
<title>Node4&#45;&gt;Node3</title>
<path fill="none" stroke="midnightblue" d="M156.21,-98C164.46,-98 173.3,-98 181.82,-98"/>
<polygon fill="midnightblue" stroke="midnightblue" points="156.13,-94.5 146.13,-98 156.13,-101.5 156.13,-94.5"/>
</g>
<!-- Node5 -->
<g id="node5" class="node">
<title>Node5</title>
<g id="a_node5"><a xlink:href="classProcess.html" target="_top" xlink:title="Classe de base de TRUST (notamment Objet_U). Elle fournit quelques services de base accessibles de pa...">
<polygon fill="white" stroke="black" points="0,-88.5 0,-107.5 54,-107.5 54,-88.5 0,-88.5"/>
<text text-anchor="middle" x="27" y="-95.5" font-family="Helvetica,sans-Serif" font-size="10.00">Process</text>
</a>
</g>
</g>
<!-- Node5&#45;&gt;Node4 -->
<g id="edge4" class="edge">
<title>Node5&#45;&gt;Node4</title>
<path fill="none" stroke="midnightblue" d="M64.29,-98C72.79,-98 81.7,-98 89.73,-98"/>
<polygon fill="midnightblue" stroke="midnightblue" points="64.22,-94.5 54.22,-98 64.22,-101.5 64.22,-94.5"/>
</g>
<!-- Node7 -->
<g id="node7" class="node">
<title>Node7</title>
<g id="a_node7"><a xlink:href="classEchange__contact__Colburn__VDF.html" target="_top" xlink:title=" ">
<polygon fill="white" stroke="black" points="863,-186.5 863,-205.5 1030,-205.5 1030,-186.5 863,-186.5"/>
<text text-anchor="middle" x="946.5" y="-193.5" font-family="Helvetica,sans-Serif" font-size="10.00">Echange_contact_Colburn_VDF</text>
</a>
</g>
</g>
<!-- Node6&#45;&gt;Node7 -->
<g id="edge6" class="edge">
<title>Node6&#45;&gt;Node7</title>
<path fill="none" stroke="midnightblue" d="M836.89,-184.59C845.62,-185.51 854.38,-186.43 862.94,-187.33"/>
<polygon fill="midnightblue" stroke="midnightblue" points="836.98,-181.09 826.67,-183.52 836.25,-188.05 836.98,-181.09"/>
</g>
<!-- Node8 -->
<g id="node8" class="node">
<title>Node8</title>
<g id="a_node8"><a xlink:href="classEchange__contact__VDF__Plaque__Flux__Cte.html" target="_top" xlink:title=" ">
<polygon fill="white" stroke="black" points="884,-137 884,-167 1009,-167 1009,-137 884,-137"/>
<text text-anchor="start" x="892" y="-155" font-family="Helvetica,sans-Serif" font-size="10.00">Echange_contact_VDF</text>
<text text-anchor="middle" x="946.5" y="-144" font-family="Helvetica,sans-Serif" font-size="10.00">_Plaque_Flux_Cte</text>
</a>
</g>
</g>
<!-- Node6&#45;&gt;Node8 -->
<g id="edge7" class="edge">
<title>Node6&#45;&gt;Node8</title>
<path fill="none" stroke="midnightblue" d="M836.69,-163.43C852.84,-161.73 869.11,-160.02 883.98,-158.46"/>
<polygon fill="midnightblue" stroke="midnightblue" points="836.25,-159.95 826.67,-164.48 836.98,-166.91 836.25,-159.95"/>
</g>
<!-- Node12 -->
<g id="node12" class="node">
<title>Node12</title>
<g id="a_node12"><a xlink:href="classEchange__interne__global__parfait.html" target="_top" xlink:title="Classe Echange_interne_global_parfait Cette classe represente le cas particulier d&#39;un échange interne...">
<polygon fill="white" stroke="black" points="880,-39 880,-69 1013,-69 1013,-39 880,-39"/>
<text text-anchor="start" x="888" y="-57" font-family="Helvetica,sans-Serif" font-size="10.00">Echange_interne_global</text>
<text text-anchor="middle" x="946.5" y="-46" font-family="Helvetica,sans-Serif" font-size="10.00">_parfait</text>
</a>
</g>
</g>
<!-- Node11&#45;&gt;Node12 -->
<g id="edge11" class="edge">
<title>Node11&#45;&gt;Node12</title>
<path fill="none" stroke="midnightblue" d="M811.77,-54C834,-54 858.11,-54 879.66,-54"/>
<polygon fill="midnightblue" stroke="midnightblue" points="811.71,-50.5 801.71,-54 811.71,-57.5 811.71,-50.5"/>
</g>
</g>
</svg>
