<?xml version="1.0" encoding="UTF-8" standalone="no"?>
<!DOCTYPE svg PUBLIC "-//W3C//DTD SVG 1.1//EN"
 "http://www.w3.org/Graphics/SVG/1.1/DTD/svg11.dtd">
<!-- Generated by graphviz version 2.43.0 (0)
 -->
<!-- Title: Champ_Generique_Gradient Pages: 1 -->
<svg width="197pt" height="308pt"
 viewBox="0.00 0.00 197.00 308.00" xmlns="http://www.w3.org/2000/svg" xmlns:xlink="http://www.w3.org/1999/xlink">
<g id="graph0" class="graph" transform="scale(1 1) rotate(0) translate(4 304)">
<title>Champ_Generique_Gradient</title>
<polygon fill="white" stroke="transparent" points="-4,4 -4,-304 193,-304 193,4 -4,4"/>
<!-- Node1 -->
<g id="node1" class="node">
<title>Node1</title>
<g id="a_node1"><a xlink:title="class Champ_Generique_Gradient Champ destine a post&#45;traiter le gradient d un champ generique La class...">
<polygon fill="#bfbfbf" stroke="black" points="17.5,-0.5 17.5,-19.5 171.5,-19.5 171.5,-0.5 17.5,-0.5"/>
<text text-anchor="middle" x="94.5" y="-7.5" font-family="Helvetica,sans-Serif" font-size="10.00">Champ_Generique_Gradient</text>
</a>
</g>
</g>
<!-- Node2 -->
<g id="node2" class="node">
<title>Node2</title>
<g id="a_node2"><a xlink:href="classChamp__Generique__Operateur__base.html" target="_top" xlink:title="Classe Champ_Generique_Operateur_base Classe de base des classes de champs generiques dediees a l &#39;ap...">
<polygon fill="white" stroke="black" points="0,-56.5 0,-75.5 189,-75.5 189,-56.5 0,-56.5"/>
<text text-anchor="middle" x="94.5" y="-63.5" font-family="Helvetica,sans-Serif" font-size="10.00">Champ_Generique_Operateur_base</text>
</a>
</g>
</g>
<!-- Node2&#45;&gt;Node1 -->
<g id="edge1" class="edge">
<title>Node2&#45;&gt;Node1</title>
<path fill="none" stroke="midnightblue" d="M94.5,-45.8C94.5,-36.91 94.5,-26.78 94.5,-19.75"/>
<polygon fill="midnightblue" stroke="midnightblue" points="91,-46.08 94.5,-56.08 98,-46.08 91,-46.08"/>
</g>
<!-- Node3 -->
<g id="node3" class="node">
<title>Node3</title>
<g id="a_node3"><a xlink:href="classChamp__Gen__de__Champs__Gen.html" target="_top" xlink:title="Classe de base des champs generiques ayant comme source d&#39;autres champs generiques L&#39;utilisation des ...">
<polygon fill="white" stroke="black" points="13,-112.5 13,-131.5 176,-131.5 176,-112.5 13,-112.5"/>
<text text-anchor="middle" x="94.5" y="-119.5" font-family="Helvetica,sans-Serif" font-size="10.00">Champ_Gen_de_Champs_Gen</text>
</a>
</g>
</g>
<!-- Node3&#45;&gt;Node2 -->
<g id="edge2" class="edge">
<title>Node3&#45;&gt;Node2</title>
<path fill="none" stroke="midnightblue" d="M94.5,-101.8C94.5,-92.91 94.5,-82.78 94.5,-75.75"/>
<polygon fill="midnightblue" stroke="midnightblue" points="91,-102.08 94.5,-112.08 98,-102.08 91,-102.08"/>
</g>
<!-- Node4 -->
<g id="node4" class="node">
<title>Node4</title>
<g id="a_node4"><a xlink:href="classChamp__Generique__base.html" target="_top" xlink:title="Classe de base des champs generiques pour importation d un champ discret et actions elementaires sur ...">
<polygon fill="white" stroke="black" points="27,-168.5 27,-187.5 162,-187.5 162,-168.5 27,-168.5"/>
<text text-anchor="middle" x="94.5" y="-175.5" font-family="Helvetica,sans-Serif" font-size="10.00">Champ_Generique_base</text>
</a>
</g>
</g>
<!-- Node4&#45;&gt;Node3 -->
<g id="edge3" class="edge">
<title>Node4&#45;&gt;Node3</title>
<path fill="none" stroke="midnightblue" d="M94.5,-157.8C94.5,-148.91 94.5,-138.78 94.5,-131.75"/>
<polygon fill="midnightblue" stroke="midnightblue" points="91,-158.08 94.5,-168.08 98,-158.08 91,-158.08"/>
</g>
<!-- Node5 -->
<g id="node5" class="node">
<title>Node5</title>
<g id="a_node5"><a xlink:href="classObjet__U.html" target="_top" xlink:title="classe Objet_U Cette classe est la classe de base des Objets de TRUST Dans les classes derivees de Ob...">
<polygon fill="white" stroke="black" points="66.5,-224.5 66.5,-243.5 122.5,-243.5 122.5,-224.5 66.5,-224.5"/>
<text text-anchor="middle" x="94.5" y="-231.5" font-family="Helvetica,sans-Serif" font-size="10.00">Objet_U</text>
</a>
</g>
</g>
<!-- Node5&#45;&gt;Node4 -->
<g id="edge4" class="edge">
<title>Node5&#45;&gt;Node4</title>
<path fill="none" stroke="midnightblue" d="M94.5,-213.8C94.5,-204.91 94.5,-194.78 94.5,-187.75"/>
<polygon fill="midnightblue" stroke="midnightblue" points="91,-214.08 94.5,-224.08 98,-214.08 91,-214.08"/>
</g>
<!-- Node6 -->
<g id="node6" class="node">
<title>Node6</title>
<g id="a_node6"><a xlink:href="classProcess.html" target="_top" xlink:title="Classe de base de TRUST (notamment Objet_U). Elle fournit quelques services de base accessibles de pa...">
<polygon fill="white" stroke="black" points="67.5,-280.5 67.5,-299.5 121.5,-299.5 121.5,-280.5 67.5,-280.5"/>
<text text-anchor="middle" x="94.5" y="-287.5" font-family="Helvetica,sans-Serif" font-size="10.00">Process</text>
</a>
</g>
</g>
<!-- Node6&#45;&gt;Node5 -->
<g id="edge5" class="edge">
<title>Node6&#45;&gt;Node5</title>
<path fill="none" stroke="midnightblue" d="M94.5,-269.8C94.5,-260.91 94.5,-250.78 94.5,-243.75"/>
<polygon fill="midnightblue" stroke="midnightblue" points="91,-270.08 94.5,-280.08 98,-270.08 91,-270.08"/>
</g>
</g>
</svg>
