<?xml version="1.0" encoding="UTF-8" standalone="no"?>
<!DOCTYPE svg PUBLIC "-//W3C//DTD SVG 1.1//EN"
 "http://www.w3.org/Graphics/SVG/1.1/DTD/svg11.dtd">
<!-- Generated by graphviz version 2.43.0 (0)
 -->
<!-- Title: Darcy_QC_VDF_Face Pages: 1 -->
<svg width="499pt" height="345pt"
 viewBox="0.00 0.00 498.50 345.00" xmlns="http://www.w3.org/2000/svg" xmlns:xlink="http://www.w3.org/1999/xlink">
<g id="graph0" class="graph" transform="scale(1 1) rotate(0) translate(4 341)">
<title>Darcy_QC_VDF_Face</title>
<polygon fill="white" stroke="transparent" points="-4,4 -4,-341 494.5,-341 494.5,4 -4,4"/>
<!-- Node1 -->
<g id="node1" class="node">
<title>Node1</title>
<g id="a_node1"><a xlink:title=" ">
<polygon fill="#bfbfbf" stroke="black" points="219,-0.5 219,-19.5 336,-19.5 336,-0.5 219,-0.5"/>
<text text-anchor="middle" x="277.5" y="-7.5" font-family="Helvetica,sans-Serif" font-size="10.00">Darcy_QC_VDF_Face</text>
</a>
</g>
</g>
<!-- Node2 -->
<g id="node2" class="node">
<title>Node2</title>
<g id="a_node2"><a xlink:href="classSource__Darcy__VDF__Face.html" target="_top" xlink:title="class Source_Darcy_VDF_Face Cette classe represente le terme de Darcy pour les ecoulement en milieux ...">
<polygon fill="white" stroke="black" points="125.5,-63 125.5,-82 261.5,-82 261.5,-63 125.5,-63"/>
<text text-anchor="middle" x="193.5" y="-70" font-family="Helvetica,sans-Serif" font-size="10.00">Source_Darcy_VDF_Face</text>
</a>
</g>
</g>
<!-- Node2&#45;&gt;Node1 -->
<g id="edge1" class="edge">
<title>Node2&#45;&gt;Node1</title>
<path fill="none" stroke="midnightblue" d="M213.81,-56.87C229.97,-45.23 252.02,-29.35 265.49,-19.65"/>
<polygon fill="midnightblue" stroke="midnightblue" points="211.6,-54.15 205.54,-62.83 215.7,-59.83 211.6,-54.15"/>
</g>
<!-- Node3 -->
<g id="node3" class="node">
<title>Node3</title>
<g id="a_node3"><a xlink:href="classTerme__Source__VDF__base.html" target="_top" xlink:title=" ">
<polygon fill="white" stroke="black" points="124,-141 124,-160 263,-160 263,-141 124,-141"/>
<text text-anchor="middle" x="193.5" y="-148" font-family="Helvetica,sans-Serif" font-size="10.00">Terme_Source_VDF_base</text>
</a>
</g>
</g>
<!-- Node3&#45;&gt;Node2 -->
<g id="edge2" class="edge">
<title>Node3&#45;&gt;Node2</title>
<path fill="none" stroke="midnightblue" d="M193.5,-130.72C193.5,-115.2 193.5,-93.86 193.5,-82.12"/>
<polygon fill="midnightblue" stroke="midnightblue" points="190,-130.78 193.5,-140.78 197,-130.78 190,-130.78"/>
</g>
<!-- Node4 -->
<g id="node4" class="node">
<title>Node4</title>
<g id="a_node4"><a xlink:href="classSource__base.html" target="_top" xlink:title="classe Source_base Un objet Source_base est un terme apparaissant au second membre d&#39;une equation....">
<polygon fill="white" stroke="black" points="154.5,-203.5 154.5,-222.5 232.5,-222.5 232.5,-203.5 154.5,-203.5"/>
<text text-anchor="middle" x="193.5" y="-210.5" font-family="Helvetica,sans-Serif" font-size="10.00">Source_base</text>
</a>
</g>
</g>
<!-- Node4&#45;&gt;Node3 -->
<g id="edge3" class="edge">
<title>Node4&#45;&gt;Node3</title>
<path fill="none" stroke="midnightblue" d="M193.5,-193C193.5,-182 193.5,-168.68 193.5,-160.15"/>
<polygon fill="midnightblue" stroke="midnightblue" points="190,-193.33 193.5,-203.33 197,-193.33 190,-193.33"/>
</g>
<!-- Node5 -->
<g id="node5" class="node">
<title>Node5</title>
<g id="a_node5"><a xlink:href="classChamps__compris__interface.html" target="_top" xlink:title="classe Champs_compris_interface Cette classe contient une interface de methodes destinees a gerer les...">
<polygon fill="white" stroke="black" points="0,-260.5 0,-279.5 149,-279.5 149,-260.5 0,-260.5"/>
<text text-anchor="middle" x="74.5" y="-267.5" font-family="Helvetica,sans-Serif" font-size="10.00">Champs_compris_interface</text>
</a>
</g>
</g>
<!-- Node5&#45;&gt;Node4 -->
<g id="edge4" class="edge">
<title>Node5&#45;&gt;Node4</title>
<path fill="none" stroke="midnightblue" d="M102.42,-256.1C124.81,-245.75 155.61,-231.51 175.04,-222.53"/>
<polygon fill="midnightblue" stroke="midnightblue" points="100.7,-253.03 93.09,-260.41 103.64,-259.39 100.7,-253.03"/>
</g>
<!-- Node6 -->
<g id="node6" class="node">
<title>Node6</title>
<g id="a_node6"><a xlink:href="classMorEqn.html" target="_top" xlink:title="classe MorEqn Classe qui regroupe les fonctionnalites de liaison avec une Equation....">
<polygon fill="white" stroke="black" points="167,-260.5 167,-279.5 220,-279.5 220,-260.5 167,-260.5"/>
<text text-anchor="middle" x="193.5" y="-267.5" font-family="Helvetica,sans-Serif" font-size="10.00">MorEqn</text>
</a>
</g>
</g>
<!-- Node6&#45;&gt;Node4 -->
<g id="edge5" class="edge">
<title>Node6&#45;&gt;Node4</title>
<path fill="none" stroke="midnightblue" d="M193.5,-250.12C193.5,-240.82 193.5,-230.06 193.5,-222.71"/>
<polygon fill="midnightblue" stroke="midnightblue" points="190,-250.41 193.5,-260.41 197,-250.41 190,-250.41"/>
</g>
<!-- Node7 -->
<g id="node7" class="node">
<title>Node7</title>
<g id="a_node7"><a xlink:href="classObjet__U.html" target="_top" xlink:title="classe Objet_U Cette classe est la classe de base des Objets de TRUST Dans les classes derivees de Ob...">
<polygon fill="white" stroke="black" points="238.5,-260.5 238.5,-279.5 294.5,-279.5 294.5,-260.5 238.5,-260.5"/>
<text text-anchor="middle" x="266.5" y="-267.5" font-family="Helvetica,sans-Serif" font-size="10.00">Objet_U</text>
</a>
</g>
</g>
<!-- Node7&#45;&gt;Node4 -->
<g id="edge6" class="edge">
<title>Node7&#45;&gt;Node4</title>
<path fill="none" stroke="midnightblue" d="M246.97,-254.29C233.6,-244.21 216.31,-231.19 205.07,-222.71"/>
<polygon fill="midnightblue" stroke="midnightblue" points="245,-257.18 255.09,-260.41 249.21,-251.59 245,-257.18"/>
</g>
<!-- Node8 -->
<g id="node8" class="node">
<title>Node8</title>
<g id="a_node8"><a xlink:href="classProcess.html" target="_top" xlink:title="Classe de base de TRUST (notamment Objet_U). Elle fournit quelques services de base accessibles de pa...">
<polygon fill="white" stroke="black" points="239.5,-317.5 239.5,-336.5 293.5,-336.5 293.5,-317.5 239.5,-317.5"/>
<text text-anchor="middle" x="266.5" y="-324.5" font-family="Helvetica,sans-Serif" font-size="10.00">Process</text>
</a>
</g>
</g>
<!-- Node8&#45;&gt;Node7 -->
<g id="edge7" class="edge">
<title>Node8&#45;&gt;Node7</title>
<path fill="none" stroke="midnightblue" d="M266.5,-307.12C266.5,-297.82 266.5,-287.06 266.5,-279.71"/>
<polygon fill="midnightblue" stroke="midnightblue" points="263,-307.41 266.5,-317.41 270,-307.41 263,-307.41"/>
</g>
<!-- Node9 -->
<g id="node9" class="node">
<title>Node9</title>
<g id="a_node9"><a xlink:href="classSource__Fluide__Dilatable__Face.html" target="_top" xlink:title=" ">
<polygon fill="white" stroke="black" points="280,-57.5 280,-87.5 447,-87.5 447,-57.5 280,-57.5"/>
<text text-anchor="start" x="288" y="-75.5" font-family="Helvetica,sans-Serif" font-size="10.00">Source_Fluide_Dilatable</text>
<text text-anchor="middle" x="363.5" y="-64.5" font-family="Helvetica,sans-Serif" font-size="10.00">_Face&lt; Darcy_QC_VDF_Face &gt;</text>
</a>
</g>
</g>
<!-- Node9&#45;&gt;Node1 -->
<g id="edge8" class="edge">
<title>Node9&#45;&gt;Node1</title>
<path fill="none" stroke="midnightblue" d="M335.32,-51.67C319.85,-40.79 301.46,-27.85 289.64,-19.54"/>
<polygon fill="midnightblue" stroke="midnightblue" points="333.36,-54.58 343.55,-57.47 337.39,-48.85 333.36,-54.58"/>
</g>
<!-- Node10 -->
<g id="node10" class="node">
<title>Node10</title>
<g id="a_node10"><a xlink:href="classSource__Fluide__Dilatable__Face.html" target="_top" xlink:title=" ">
<polygon fill="white" stroke="black" points="296.5,-135.5 296.5,-165.5 430.5,-165.5 430.5,-135.5 296.5,-135.5"/>
<text text-anchor="start" x="304.5" y="-153.5" font-family="Helvetica,sans-Serif" font-size="10.00">Source_Fluide_Dilatable</text>
<text text-anchor="middle" x="363.5" y="-142.5" font-family="Helvetica,sans-Serif" font-size="10.00">_Face&lt; DERIVED_T &gt;</text>
</a>
</g>
</g>
<!-- Node10&#45;&gt;Node9 -->
<g id="edge9" class="edge">
<title>Node10&#45;&gt;Node9</title>
<path fill="none" stroke="orange" stroke-dasharray="5,2" d="M363.5,-125.09C363.5,-112.76 363.5,-98.22 363.5,-87.73"/>
<polygon fill="orange" stroke="orange" points="360,-125.2 363.5,-135.2 367,-125.21 360,-125.2"/>
<text text-anchor="middle" x="427" y="-109" font-family="Helvetica,sans-Serif" font-size="10.00"> &lt; Darcy_QC_VDF_Face &gt;</text>
</g>
</g>
</svg>
