<?xml version="1.0" encoding="UTF-8" standalone="no"?>
<!DOCTYPE svg PUBLIC "-//W3C//DTD SVG 1.1//EN"
 "http://www.w3.org/Graphics/SVG/1.1/DTD/svg11.dtd">
<!-- Generated by graphviz version 2.43.0 (0)
 -->
<!-- Title: Champ_implementation_sommet_base Pages: 1 -->
<svg width="883pt" height="446pt"
 viewBox="0.00 0.00 883.00 446.00" xmlns="http://www.w3.org/2000/svg" xmlns:xlink="http://www.w3.org/1999/xlink">
<g id="graph0" class="graph" transform="scale(1 1) rotate(0) translate(4 442)">
<title>Champ_implementation_sommet_base</title>
<polygon fill="white" stroke="transparent" points="-4,4 -4,-442 879,-442 879,4 -4,4"/>
<!-- Node1 -->
<g id="node1" class="node">
<title>Node1</title>
<g id="a_node1"><a xlink:title=": class Champ_implementation_sommet_base Decrire ici la classe Champ_implementation_sommet_base">
<polygon fill="#bfbfbf" stroke="black" points="199,-128 199,-158 333,-158 333,-128 199,-128"/>
<text text-anchor="start" x="207" y="-146" font-family="Helvetica,sans-Serif" font-size="10.00">Champ_implementation</text>
<text text-anchor="middle" x="266" y="-135" font-family="Helvetica,sans-Serif" font-size="10.00">_sommet_base</text>
</a>
</g>
</g>
<!-- Node3 -->
<g id="node3" class="node">
<title>Node3</title>
<g id="a_node3"><a xlink:href="classChamp__implementation__P1.html" target="_top" xlink:title=" ">
<polygon fill="white" stroke="black" points="369.5,-209.5 369.5,-228.5 521.5,-228.5 521.5,-209.5 369.5,-209.5"/>
<text text-anchor="middle" x="445.5" y="-216.5" font-family="Helvetica,sans-Serif" font-size="10.00">Champ_implementation_P1</text>
</a>
</g>
</g>
<!-- Node1&#45;&gt;Node3 -->
<g id="edge2" class="edge">
<title>Node1&#45;&gt;Node3</title>
<path fill="none" stroke="midnightblue" d="M311.65,-162.12C346.87,-177.2 394.52,-197.6 422.14,-209.43"/>
<polygon fill="midnightblue" stroke="midnightblue" points="312.64,-158.73 302.07,-158.02 309.88,-165.17 312.64,-158.73"/>
</g>
<!-- Node13 -->
<g id="node13" class="node">
<title>Node13</title>
<g id="a_node13"><a xlink:href="classChamp__implementation__Q1.html" target="_top" xlink:title=": class Champ_implementation_Q1 Decrire ici la classe Champ_implementation_Q1">
<polygon fill="white" stroke="black" points="369,-95.5 369,-114.5 522,-114.5 522,-95.5 369,-95.5"/>
<text text-anchor="middle" x="445.5" y="-102.5" font-family="Helvetica,sans-Serif" font-size="10.00">Champ_implementation_Q1</text>
</a>
</g>
</g>
<!-- Node1&#45;&gt;Node13 -->
<g id="edge12" class="edge">
<title>Node1&#45;&gt;Node13</title>
<path fill="none" stroke="midnightblue" d="M343.13,-126.7C362.5,-122.56 382.69,-118.23 399.9,-114.55"/>
<polygon fill="midnightblue" stroke="midnightblue" points="342.14,-123.33 333.09,-128.85 343.61,-130.18 342.14,-123.33"/>
</g>
<!-- Node2 -->
<g id="node2" class="node">
<title>Node2</title>
<g id="a_node2"><a xlink:href="classChamp__implementation__base.html" target="_top" xlink:title=": class Champ_implementation_base Decrire ici la classe Champ_implementation_base">
<polygon fill="white" stroke="black" points="0,-133.5 0,-152.5 163,-152.5 163,-133.5 0,-133.5"/>
<text text-anchor="middle" x="81.5" y="-140.5" font-family="Helvetica,sans-Serif" font-size="10.00">Champ_implementation_base</text>
</a>
</g>
</g>
<!-- Node2&#45;&gt;Node1 -->
<g id="edge1" class="edge">
<title>Node2&#45;&gt;Node1</title>
<path fill="none" stroke="midnightblue" d="M173.19,-143C181.82,-143 190.46,-143 198.79,-143"/>
<polygon fill="midnightblue" stroke="midnightblue" points="173.08,-139.5 163.08,-143 173.08,-146.5 173.08,-139.5"/>
</g>
<!-- Node4 -->
<g id="node4" class="node">
<title>Node4</title>
<g id="a_node4"><a xlink:href="classChamp__Fonc__P1__base.html" target="_top" xlink:title=": class Champ_Fonc_P1_base Decrire ici la classe Champ_Fonc_P1_base">
<polygon fill="white" stroke="black" points="558.5,-323.5 558.5,-342.5 683.5,-342.5 683.5,-323.5 558.5,-323.5"/>
<text text-anchor="middle" x="621" y="-330.5" font-family="Helvetica,sans-Serif" font-size="10.00">Champ_Fonc_P1_base</text>
</a>
</g>
</g>
<!-- Node3&#45;&gt;Node4 -->
<g id="edge3" class="edge">
<title>Node3&#45;&gt;Node4</title>
<path fill="none" stroke="midnightblue" d="M469.43,-234.07C505.59,-257.83 574.87,-303.34 605.18,-323.26"/>
<polygon fill="midnightblue" stroke="midnightblue" points="471.27,-231.09 460.99,-228.52 467.43,-236.94 471.27,-231.09"/>
</g>
<!-- Node10 -->
<g id="node10" class="node">
<title>Node10</title>
<g id="a_node10"><a xlink:href="classChamp__Inc__P1__base.html" target="_top" xlink:title=": class Champ_Inc_P1_base Decrire ici la classe Champ_Inc_P1_base">
<polygon fill="white" stroke="black" points="563,-209.5 563,-228.5 679,-228.5 679,-209.5 563,-209.5"/>
<text text-anchor="middle" x="621" y="-216.5" font-family="Helvetica,sans-Serif" font-size="10.00">Champ_Inc_P1_base</text>
</a>
</g>
</g>
<!-- Node3&#45;&gt;Node10 -->
<g id="edge9" class="edge">
<title>Node3&#45;&gt;Node10</title>
<path fill="none" stroke="midnightblue" d="M531.69,-219C542.25,-219 552.85,-219 562.85,-219"/>
<polygon fill="midnightblue" stroke="midnightblue" points="531.59,-215.5 521.59,-219 531.59,-222.5 531.59,-215.5"/>
</g>
<!-- Node5 -->
<g id="node5" class="node">
<title>Node5</title>
<g id="a_node5"><a xlink:href="classChamp__Fonc__P1__EF.html" target="_top" xlink:title=" ">
<polygon fill="white" stroke="black" points="741,-418.5 741,-437.5 854,-437.5 854,-418.5 741,-418.5"/>
<text text-anchor="middle" x="797.5" y="-425.5" font-family="Helvetica,sans-Serif" font-size="10.00">Champ_Fonc_P1_EF</text>
</a>
</g>
</g>
<!-- Node4&#45;&gt;Node5 -->
<g id="edge4" class="edge">
<title>Node4&#45;&gt;Node5</title>
<path fill="none" stroke="midnightblue" d="M638.94,-349.77C657.37,-367.1 688.44,-393.7 720,-409 727.88,-412.82 736.6,-415.92 745.25,-418.42"/>
<polygon fill="midnightblue" stroke="midnightblue" points="641.26,-347.16 631.63,-342.76 636.42,-352.21 641.26,-347.16"/>
</g>
<!-- Node6 -->
<g id="node6" class="node">
<title>Node6</title>
<g id="a_node6"><a xlink:href="classChamp__Fonc__P1__MED.html" target="_top" xlink:title="classe Champ_Fonc_P1_MED permet de faire un champ P1 pour le post med">
<polygon fill="white" stroke="black" points="735.5,-380.5 735.5,-399.5 859.5,-399.5 859.5,-380.5 735.5,-380.5"/>
<text text-anchor="middle" x="797.5" y="-387.5" font-family="Helvetica,sans-Serif" font-size="10.00">Champ_Fonc_P1_MED</text>
</a>
</g>
</g>
<!-- Node4&#45;&gt;Node6 -->
<g id="edge5" class="edge">
<title>Node4&#45;&gt;Node6</title>
<path fill="none" stroke="midnightblue" d="M653.66,-346.45C672.68,-354.23 697.48,-363.87 720,-371 730.96,-374.47 742.96,-377.71 754.15,-380.49"/>
<polygon fill="midnightblue" stroke="midnightblue" points="654.87,-343.16 644.29,-342.57 652.19,-349.63 654.87,-343.16"/>
</g>
<!-- Node7 -->
<g id="node7" class="node">
<title>Node7</title>
<g id="a_node7"><a xlink:href="classChamp__Fonc__P1__VDF.html" target="_top" xlink:title="classe Champ_Fonc_P1_VDF">
<polygon fill="white" stroke="black" points="736.5,-342.5 736.5,-361.5 858.5,-361.5 858.5,-342.5 736.5,-342.5"/>
<text text-anchor="middle" x="797.5" y="-349.5" font-family="Helvetica,sans-Serif" font-size="10.00">Champ_Fonc_P1_VDF</text>
</a>
</g>
</g>
<!-- Node4&#45;&gt;Node7 -->
<g id="edge6" class="edge">
<title>Node4&#45;&gt;Node7</title>
<path fill="none" stroke="midnightblue" d="M693.73,-340.81C707.91,-342.35 722.66,-343.96 736.41,-345.46"/>
<polygon fill="midnightblue" stroke="midnightblue" points="693.84,-337.3 683.52,-339.7 693.08,-344.26 693.84,-337.3"/>
</g>
<!-- Node8 -->
<g id="node8" class="node">
<title>Node8</title>
<g id="a_node8"><a xlink:href="classChamp__Fonc__P1__VEF.html" target="_top" xlink:title="classe Champ_Fonc_P1_VEF">
<polygon fill="white" stroke="black" points="737.5,-304.5 737.5,-323.5 857.5,-323.5 857.5,-304.5 737.5,-304.5"/>
<text text-anchor="middle" x="797.5" y="-311.5" font-family="Helvetica,sans-Serif" font-size="10.00">Champ_Fonc_P1_VEF</text>
</a>
</g>
</g>
<!-- Node4&#45;&gt;Node8 -->
<g id="edge7" class="edge">
<title>Node4&#45;&gt;Node8</title>
<path fill="none" stroke="midnightblue" d="M693.49,-325.22C708.05,-323.63 723.21,-321.98 737.29,-320.45"/>
<polygon fill="midnightblue" stroke="midnightblue" points="693.08,-321.74 683.52,-326.3 693.84,-328.7 693.08,-321.74"/>
</g>
<!-- Node9 -->
<g id="node9" class="node">
<title>Node9</title>
<g id="a_node9"><a xlink:href="classChamp__Fonc__Som__PolyMAC.html" target="_top" xlink:title=" ">
<polygon fill="white" stroke="black" points="720,-266.5 720,-285.5 875,-285.5 875,-266.5 720,-266.5"/>
<text text-anchor="middle" x="797.5" y="-273.5" font-family="Helvetica,sans-Serif" font-size="10.00">Champ_Fonc_Som_PolyMAC</text>
</a>
</g>
</g>
<!-- Node4&#45;&gt;Node9 -->
<g id="edge8" class="edge">
<title>Node4&#45;&gt;Node9</title>
<path fill="none" stroke="midnightblue" d="M653.66,-319.55C672.68,-311.77 697.48,-302.13 720,-295 730.96,-291.53 742.96,-288.29 754.15,-285.51"/>
<polygon fill="midnightblue" stroke="midnightblue" points="652.19,-316.37 644.29,-323.43 654.87,-322.84 652.19,-316.37"/>
</g>
<!-- Node11 -->
<g id="node11" class="node">
<title>Node11</title>
<g id="a_node11"><a xlink:href="classChamp__P1__EF.html" target="_top" xlink:title=" ">
<polygon fill="white" stroke="black" points="754.5,-228.5 754.5,-247.5 840.5,-247.5 840.5,-228.5 754.5,-228.5"/>
<text text-anchor="middle" x="797.5" y="-235.5" font-family="Helvetica,sans-Serif" font-size="10.00">Champ_P1_EF</text>
</a>
</g>
</g>
<!-- Node10&#45;&gt;Node11 -->
<g id="edge10" class="edge">
<title>Node10&#45;&gt;Node11</title>
<path fill="none" stroke="midnightblue" d="M689.09,-226.3C711.07,-228.7 734.87,-231.29 754.46,-233.42"/>
<polygon fill="midnightblue" stroke="midnightblue" points="689.46,-222.82 679.14,-225.22 688.7,-229.78 689.46,-222.82"/>
</g>
<!-- Node12 -->
<g id="node12" class="node">
<title>Node12</title>
<g id="a_node12"><a xlink:href="classChamp__Som__PolyMAC.html" target="_top" xlink:title=" ">
<polygon fill="white" stroke="black" points="734,-190.5 734,-209.5 861,-209.5 861,-190.5 734,-190.5"/>
<text text-anchor="middle" x="797.5" y="-197.5" font-family="Helvetica,sans-Serif" font-size="10.00">Champ_Som_PolyMAC</text>
</a>
</g>
</g>
<!-- Node10&#45;&gt;Node12 -->
<g id="edge11" class="edge">
<title>Node10&#45;&gt;Node12</title>
<path fill="none" stroke="midnightblue" d="M689.15,-211.69C703.83,-210.09 719.31,-208.4 733.81,-206.83"/>
<polygon fill="midnightblue" stroke="midnightblue" points="688.7,-208.22 679.14,-212.78 689.46,-215.18 688.7,-208.22"/>
</g>
<!-- Node14 -->
<g id="node14" class="node">
<title>Node14</title>
<g id="a_node14"><a xlink:href="classChamp__Fonc__Q1__base.html" target="_top" xlink:title=": class Champ_Fonc_Q1_base Decrire ici la classe Champ_Fonc_Q1_base">
<polygon fill="white" stroke="black" points="558,-95.5 558,-114.5 684,-114.5 684,-95.5 558,-95.5"/>
<text text-anchor="middle" x="621" y="-102.5" font-family="Helvetica,sans-Serif" font-size="10.00">Champ_Fonc_Q1_base</text>
</a>
</g>
</g>
<!-- Node13&#45;&gt;Node14 -->
<g id="edge13" class="edge">
<title>Node13&#45;&gt;Node14</title>
<path fill="none" stroke="midnightblue" d="M532.24,-105C540.9,-105 549.57,-105 557.92,-105"/>
<polygon fill="midnightblue" stroke="midnightblue" points="532.09,-101.5 522.09,-105 532.09,-108.5 532.09,-101.5"/>
</g>
<!-- Node19 -->
<g id="node19" class="node">
<title>Node19</title>
<g id="a_node19"><a xlink:href="classChamp__Inc__Q1__base.html" target="_top" xlink:title=": class Champ_Inc_Q1_base Decrire ici la classe Champ_Inc_Q1_base">
<polygon fill="white" stroke="black" points="562,-38.5 562,-57.5 680,-57.5 680,-38.5 562,-38.5"/>
<text text-anchor="middle" x="621" y="-45.5" font-family="Helvetica,sans-Serif" font-size="10.00">Champ_Inc_Q1_base</text>
</a>
</g>
</g>
<!-- Node13&#45;&gt;Node19 -->
<g id="edge18" class="edge">
<title>Node13&#45;&gt;Node19</title>
<path fill="none" stroke="midnightblue" d="M485.44,-92.21C517.39,-81.71 561.93,-67.08 590.87,-57.57"/>
<polygon fill="midnightblue" stroke="midnightblue" points="483.95,-89.01 475.54,-95.46 486.13,-95.66 483.95,-89.01"/>
</g>
<!-- Node15 -->
<g id="node15" class="node">
<title>Node15</title>
<g id="a_node15"><a xlink:href="classChamp__Fonc__Q1__EF.html" target="_top" xlink:title=" ">
<polygon fill="white" stroke="black" points="740,-152.5 740,-171.5 855,-171.5 855,-152.5 740,-152.5"/>
<text text-anchor="middle" x="797.5" y="-159.5" font-family="Helvetica,sans-Serif" font-size="10.00">Champ_Fonc_Q1_EF</text>
</a>
</g>
</g>
<!-- Node14&#45;&gt;Node15 -->
<g id="edge14" class="edge">
<title>Node14&#45;&gt;Node15</title>
<path fill="none" stroke="midnightblue" d="M653.66,-118.45C672.68,-126.23 697.48,-135.87 720,-143 730.96,-146.47 742.96,-149.71 754.15,-152.49"/>
<polygon fill="midnightblue" stroke="midnightblue" points="654.87,-115.16 644.29,-114.57 652.19,-121.63 654.87,-115.16"/>
</g>
<!-- Node16 -->
<g id="node16" class="node">
<title>Node16</title>
<g id="a_node16"><a xlink:href="classChamp__Fonc__Q1__MED.html" target="_top" xlink:title="classe Champ_Fonc_Q1_MED permet de faire un champ P1 pour le post med">
<polygon fill="white" stroke="black" points="735,-114.5 735,-133.5 860,-133.5 860,-114.5 735,-114.5"/>
<text text-anchor="middle" x="797.5" y="-121.5" font-family="Helvetica,sans-Serif" font-size="10.00">Champ_Fonc_Q1_MED</text>
</a>
</g>
</g>
<!-- Node14&#45;&gt;Node16 -->
<g id="edge15" class="edge">
<title>Node14&#45;&gt;Node16</title>
<path fill="none" stroke="midnightblue" d="M694.24,-112.87C707.78,-114.34 721.81,-115.87 734.98,-117.3"/>
<polygon fill="midnightblue" stroke="midnightblue" points="694.33,-109.36 684.01,-111.75 693.58,-116.31 694.33,-109.36"/>
</g>
<!-- Node17 -->
<g id="node17" class="node">
<title>Node17</title>
<g id="a_node17"><a xlink:href="classChamp__Fonc__Q1__VDF.html" target="_top" xlink:title=" ">
<polygon fill="white" stroke="black" points="736,-76.5 736,-95.5 859,-95.5 859,-76.5 736,-76.5"/>
<text text-anchor="middle" x="797.5" y="-83.5" font-family="Helvetica,sans-Serif" font-size="10.00">Champ_Fonc_Q1_VDF</text>
</a>
</g>
</g>
<!-- Node14&#45;&gt;Node17 -->
<g id="edge16" class="edge">
<title>Node14&#45;&gt;Node17</title>
<path fill="none" stroke="midnightblue" d="M694.02,-97.16C707.93,-95.64 722.36,-94.07 735.86,-92.6"/>
<polygon fill="midnightblue" stroke="midnightblue" points="693.58,-93.69 684.01,-98.25 694.33,-100.64 693.58,-93.69"/>
</g>
<!-- Node18 -->
<g id="node18" class="node">
<title>Node18</title>
<g id="a_node18"><a xlink:href="classChamp__Fonc__Q1__VEF.html" target="_top" xlink:title=" ">
<polygon fill="white" stroke="black" points="736.5,-38.5 736.5,-57.5 858.5,-57.5 858.5,-38.5 736.5,-38.5"/>
<text text-anchor="middle" x="797.5" y="-45.5" font-family="Helvetica,sans-Serif" font-size="10.00">Champ_Fonc_Q1_VEF</text>
</a>
</g>
</g>
<!-- Node14&#45;&gt;Node18 -->
<g id="edge17" class="edge">
<title>Node14&#45;&gt;Node18</title>
<path fill="none" stroke="midnightblue" d="M653.66,-91.55C672.68,-83.77 697.48,-74.13 720,-67 730.96,-63.53 742.96,-60.29 754.15,-57.51"/>
<polygon fill="midnightblue" stroke="midnightblue" points="652.19,-88.37 644.29,-95.43 654.87,-94.84 652.19,-88.37"/>
</g>
<!-- Node20 -->
<g id="node20" class="node">
<title>Node20</title>
<g id="a_node20"><a xlink:href="classChamp__Q1__EF.html" target="_top" xlink:title=" ">
<polygon fill="white" stroke="black" points="754,-0.5 754,-19.5 841,-19.5 841,-0.5 754,-0.5"/>
<text text-anchor="middle" x="797.5" y="-7.5" font-family="Helvetica,sans-Serif" font-size="10.00">Champ_Q1_EF</text>
</a>
</g>
</g>
<!-- Node19&#45;&gt;Node20 -->
<g id="edge19" class="edge">
<title>Node19&#45;&gt;Node20</title>
<path fill="none" stroke="midnightblue" d="M676.12,-36.21C701.19,-30.75 730.54,-24.36 753.99,-19.26"/>
<polygon fill="midnightblue" stroke="midnightblue" points="675.06,-32.86 666.03,-38.41 676.55,-39.7 675.06,-32.86"/>
</g>
</g>
</svg>
