<?xml version="1.0" encoding="UTF-8" standalone="no"?>
<!DOCTYPE svg PUBLIC "-//W3C//DTD SVG 1.1//EN"
 "http://www.w3.org/Graphics/SVG/1.1/DTD/svg11.dtd">
<!-- Generated by graphviz version 2.43.0 (0)
 -->
<!-- Title: Champ_Generique_Operateur_base Pages: 1 -->
<svg width="521pt" height="308pt"
 viewBox="0.00 0.00 521.00 308.00" xmlns="http://www.w3.org/2000/svg" xmlns:xlink="http://www.w3.org/1999/xlink">
<g id="graph0" class="graph" transform="scale(1 1) rotate(0) translate(4 304)">
<title>Champ_Generique_Operateur_base</title>
<polygon fill="white" stroke="transparent" points="-4,4 -4,-304 517,-304 517,4 -4,4"/>
<!-- Node1 -->
<g id="node1" class="node">
<title>Node1</title>
<g id="a_node1"><a xlink:title="Classe Champ_Generique_Operateur_base Classe de base des classes de champs generiques dediees a l &#39;ap...">
<polygon fill="#bfbfbf" stroke="black" points="168,-56.5 168,-75.5 357,-75.5 357,-56.5 168,-56.5"/>
<text text-anchor="middle" x="262.5" y="-63.5" font-family="Helvetica,sans-Serif" font-size="10.00">Champ_Generique_Operateur_base</text>
</a>
</g>
</g>
<!-- Node6 -->
<g id="node6" class="node">
<title>Node6</title>
<g id="a_node6"><a xlink:href="classChamp__Generique__Divergence.html" target="_top" xlink:title="class Champ_Generique_Divergence Champ destine a post&#45;traiter la divergence d un champ generique La c...">
<polygon fill="white" stroke="black" points="0,-0.5 0,-19.5 167,-19.5 167,-0.5 0,-0.5"/>
<text text-anchor="middle" x="83.5" y="-7.5" font-family="Helvetica,sans-Serif" font-size="10.00">Champ_Generique_Divergence</text>
</a>
</g>
</g>
<!-- Node1&#45;&gt;Node6 -->
<g id="edge5" class="edge">
<title>Node1&#45;&gt;Node6</title>
<path fill="none" stroke="midnightblue" d="M224.17,-53.44C190.42,-43.26 142.05,-28.66 111.73,-19.52"/>
<polygon fill="midnightblue" stroke="midnightblue" points="223.55,-56.91 234.14,-56.44 225.57,-50.2 223.55,-56.91"/>
</g>
<!-- Node7 -->
<g id="node7" class="node">
<title>Node7</title>
<g id="a_node7"><a xlink:href="classChamp__Generique__Gradient.html" target="_top" xlink:title="class Champ_Generique_Gradient Champ destine a post&#45;traiter le gradient d un champ generique La class...">
<polygon fill="white" stroke="black" points="185.5,-0.5 185.5,-19.5 339.5,-19.5 339.5,-0.5 185.5,-0.5"/>
<text text-anchor="middle" x="262.5" y="-7.5" font-family="Helvetica,sans-Serif" font-size="10.00">Champ_Generique_Gradient</text>
</a>
</g>
</g>
<!-- Node1&#45;&gt;Node7 -->
<g id="edge6" class="edge">
<title>Node1&#45;&gt;Node7</title>
<path fill="none" stroke="midnightblue" d="M262.5,-45.8C262.5,-36.91 262.5,-26.78 262.5,-19.75"/>
<polygon fill="midnightblue" stroke="midnightblue" points="259,-46.08 262.5,-56.08 266,-46.08 259,-46.08"/>
</g>
<!-- Node8 -->
<g id="node8" class="node">
<title>Node8</title>
<g id="a_node8"><a xlink:href="classChamp__Post__Operateur__Eqn.html" target="_top" xlink:title="class Champ_Post_Operateur_Eqn Champ destine a post&#45;traiter le gradient d un champ generique La class...">
<polygon fill="white" stroke="black" points="358,-0.5 358,-19.5 513,-19.5 513,-0.5 358,-0.5"/>
<text text-anchor="middle" x="435.5" y="-7.5" font-family="Helvetica,sans-Serif" font-size="10.00">Champ_Post_Operateur_Eqn</text>
</a>
</g>
</g>
<!-- Node1&#45;&gt;Node8 -->
<g id="edge7" class="edge">
<title>Node1&#45;&gt;Node8</title>
<path fill="none" stroke="midnightblue" d="M299.55,-53.44C332.16,-43.26 378.91,-28.66 408.22,-19.52"/>
<polygon fill="midnightblue" stroke="midnightblue" points="298.42,-50.12 289.91,-56.44 300.5,-56.8 298.42,-50.12"/>
</g>
<!-- Node2 -->
<g id="node2" class="node">
<title>Node2</title>
<g id="a_node2"><a xlink:href="classChamp__Gen__de__Champs__Gen.html" target="_top" xlink:title="Classe de base des champs generiques ayant comme source d&#39;autres champs generiques L&#39;utilisation des ...">
<polygon fill="white" stroke="black" points="181,-112.5 181,-131.5 344,-131.5 344,-112.5 181,-112.5"/>
<text text-anchor="middle" x="262.5" y="-119.5" font-family="Helvetica,sans-Serif" font-size="10.00">Champ_Gen_de_Champs_Gen</text>
</a>
</g>
</g>
<!-- Node2&#45;&gt;Node1 -->
<g id="edge1" class="edge">
<title>Node2&#45;&gt;Node1</title>
<path fill="none" stroke="midnightblue" d="M262.5,-101.8C262.5,-92.91 262.5,-82.78 262.5,-75.75"/>
<polygon fill="midnightblue" stroke="midnightblue" points="259,-102.08 262.5,-112.08 266,-102.08 259,-102.08"/>
</g>
<!-- Node3 -->
<g id="node3" class="node">
<title>Node3</title>
<g id="a_node3"><a xlink:href="classChamp__Generique__base.html" target="_top" xlink:title="Classe de base des champs generiques pour importation d un champ discret et actions elementaires sur ...">
<polygon fill="white" stroke="black" points="195,-168.5 195,-187.5 330,-187.5 330,-168.5 195,-168.5"/>
<text text-anchor="middle" x="262.5" y="-175.5" font-family="Helvetica,sans-Serif" font-size="10.00">Champ_Generique_base</text>
</a>
</g>
</g>
<!-- Node3&#45;&gt;Node2 -->
<g id="edge2" class="edge">
<title>Node3&#45;&gt;Node2</title>
<path fill="none" stroke="midnightblue" d="M262.5,-157.8C262.5,-148.91 262.5,-138.78 262.5,-131.75"/>
<polygon fill="midnightblue" stroke="midnightblue" points="259,-158.08 262.5,-168.08 266,-158.08 259,-158.08"/>
</g>
<!-- Node4 -->
<g id="node4" class="node">
<title>Node4</title>
<g id="a_node4"><a xlink:href="classObjet__U.html" target="_top" xlink:title="classe Objet_U Cette classe est la classe de base des Objets de TRUST Dans les classes derivees de Ob...">
<polygon fill="white" stroke="black" points="234.5,-224.5 234.5,-243.5 290.5,-243.5 290.5,-224.5 234.5,-224.5"/>
<text text-anchor="middle" x="262.5" y="-231.5" font-family="Helvetica,sans-Serif" font-size="10.00">Objet_U</text>
</a>
</g>
</g>
<!-- Node4&#45;&gt;Node3 -->
<g id="edge3" class="edge">
<title>Node4&#45;&gt;Node3</title>
<path fill="none" stroke="midnightblue" d="M262.5,-213.8C262.5,-204.91 262.5,-194.78 262.5,-187.75"/>
<polygon fill="midnightblue" stroke="midnightblue" points="259,-214.08 262.5,-224.08 266,-214.08 259,-214.08"/>
</g>
<!-- Node5 -->
<g id="node5" class="node">
<title>Node5</title>
<g id="a_node5"><a xlink:href="classProcess.html" target="_top" xlink:title="Classe de base de TRUST (notamment Objet_U). Elle fournit quelques services de base accessibles de pa...">
<polygon fill="white" stroke="black" points="235.5,-280.5 235.5,-299.5 289.5,-299.5 289.5,-280.5 235.5,-280.5"/>
<text text-anchor="middle" x="262.5" y="-287.5" font-family="Helvetica,sans-Serif" font-size="10.00">Process</text>
</a>
</g>
</g>
<!-- Node5&#45;&gt;Node4 -->
<g id="edge4" class="edge">
<title>Node5&#45;&gt;Node4</title>
<path fill="none" stroke="midnightblue" d="M262.5,-269.8C262.5,-260.91 262.5,-250.78 262.5,-243.75"/>
<polygon fill="midnightblue" stroke="midnightblue" points="259,-270.08 262.5,-280.08 266,-270.08 259,-270.08"/>
</g>
</g>
</svg>
