<?xml version="1.0" encoding="UTF-8" standalone="no"?>
<!DOCTYPE svg PUBLIC "-//W3C//DTD SVG 1.1//EN"
 "http://www.w3.org/Graphics/SVG/1.1/DTD/svg11.dtd">
<!-- Generated by graphviz version 2.43.0 (0)
 -->
<!-- Title: List_Zone Pages: 1 -->
<svg width="72pt" height="252pt"
 viewBox="0.00 0.00 72.00 252.00" xmlns="http://www.w3.org/2000/svg" xmlns:xlink="http://www.w3.org/1999/xlink">
<g id="graph0" class="graph" transform="scale(1 1) rotate(0) translate(4 248)">
<title>List_Zone</title>
<polygon fill="white" stroke="transparent" points="-4,4 -4,-248 68,-248 68,4 -4,4"/>
<!-- Node1 -->
<g id="node1" class="node">
<title>Node1</title>
<g id="a_node1"><a xlink:title=" ">
<polygon fill="#bfbfbf" stroke="black" points="0,-56.5 0,-75.5 64,-75.5 64,-56.5 0,-56.5"/>
<text text-anchor="middle" x="32" y="-63.5" font-family="Helvetica,sans-Serif" font-size="10.00">List_Zone</text>
</a>
</g>
</g>
<!-- Node5 -->
<g id="node5" class="node">
<title>Node5</title>
<g id="a_node5"><a xlink:href="classZones.html" target="_top" xlink:title="Classe Zones Cette classe represente une liste de Zone.">
<polygon fill="white" stroke="black" points="8.5,-0.5 8.5,-19.5 55.5,-19.5 55.5,-0.5 8.5,-0.5"/>
<text text-anchor="middle" x="32" y="-7.5" font-family="Helvetica,sans-Serif" font-size="10.00">Zones</text>
</a>
</g>
</g>
<!-- Node1&#45;&gt;Node5 -->
<g id="edge4" class="edge">
<title>Node1&#45;&gt;Node5</title>
<path fill="none" stroke="midnightblue" d="M32,-45.8C32,-36.91 32,-26.78 32,-19.75"/>
<polygon fill="midnightblue" stroke="midnightblue" points="28.5,-46.08 32,-56.08 35.5,-46.08 28.5,-46.08"/>
</g>
<!-- Node2 -->
<g id="node2" class="node">
<title>Node2</title>
<g id="a_node2"><a xlink:href="classliste.html" target="_top" xlink:title="Les classes liste et liste_curseur representent une liste de Deriv&lt;Objet_U&gt; et un curseur associe....">
<polygon fill="white" stroke="black" points="13,-112.5 13,-131.5 51,-131.5 51,-112.5 13,-112.5"/>
<text text-anchor="middle" x="32" y="-119.5" font-family="Helvetica,sans-Serif" font-size="10.00">liste</text>
</a>
</g>
</g>
<!-- Node2&#45;&gt;Node1 -->
<g id="edge1" class="edge">
<title>Node2&#45;&gt;Node1</title>
<path fill="none" stroke="midnightblue" d="M32,-101.8C32,-92.91 32,-82.78 32,-75.75"/>
<polygon fill="midnightblue" stroke="midnightblue" points="28.5,-102.08 32,-112.08 35.5,-102.08 28.5,-102.08"/>
</g>
<!-- Node3 -->
<g id="node3" class="node">
<title>Node3</title>
<g id="a_node3"><a xlink:href="classObjet__U.html" target="_top" xlink:title="classe Objet_U Cette classe est la classe de base des Objets de TRUST Dans les classes derivees de Ob...">
<polygon fill="white" stroke="black" points="4,-168.5 4,-187.5 60,-187.5 60,-168.5 4,-168.5"/>
<text text-anchor="middle" x="32" y="-175.5" font-family="Helvetica,sans-Serif" font-size="10.00">Objet_U</text>
</a>
</g>
</g>
<!-- Node3&#45;&gt;Node2 -->
<g id="edge2" class="edge">
<title>Node3&#45;&gt;Node2</title>
<path fill="none" stroke="midnightblue" d="M32,-157.8C32,-148.91 32,-138.78 32,-131.75"/>
<polygon fill="midnightblue" stroke="midnightblue" points="28.5,-158.08 32,-168.08 35.5,-158.08 28.5,-158.08"/>
</g>
<!-- Node4 -->
<g id="node4" class="node">
<title>Node4</title>
<g id="a_node4"><a xlink:href="classProcess.html" target="_top" xlink:title="Classe de base de TRUST (notamment Objet_U). Elle fournit quelques services de base accessibles de pa...">
<polygon fill="white" stroke="black" points="5,-224.5 5,-243.5 59,-243.5 59,-224.5 5,-224.5"/>
<text text-anchor="middle" x="32" y="-231.5" font-family="Helvetica,sans-Serif" font-size="10.00">Process</text>
</a>
</g>
</g>
<!-- Node4&#45;&gt;Node3 -->
<g id="edge3" class="edge">
<title>Node4&#45;&gt;Node3</title>
<path fill="none" stroke="midnightblue" d="M32,-213.8C32,-204.91 32,-194.78 32,-187.75"/>
<polygon fill="midnightblue" stroke="midnightblue" points="28.5,-214.08 32,-224.08 35.5,-214.08 28.5,-214.08"/>
</g>
</g>
</svg>
