<?xml version="1.0" encoding="UTF-8" standalone="no"?>
<!DOCTYPE svg PUBLIC "-//W3C//DTD SVG 1.1//EN"
 "http://www.w3.org/Graphics/SVG/1.1/DTD/svg11.dtd">
<!-- Generated by graphviz version 2.43.0 (0)
 -->
<!-- Title: Source_Darcy_VDF_Face Pages: 1 -->
<svg width="303pt" height="308pt"
 viewBox="0.00 0.00 302.50 308.00" xmlns="http://www.w3.org/2000/svg" xmlns:xlink="http://www.w3.org/1999/xlink">
<g id="graph0" class="graph" transform="scale(1 1) rotate(0) translate(4 304)">
<title>Source_Darcy_VDF_Face</title>
<polygon fill="white" stroke="transparent" points="-4,4 -4,-304 298.5,-304 298.5,4 -4,4"/>
<!-- Node1 -->
<g id="node1" class="node">
<title>Node1</title>
<g id="a_node1"><a xlink:title="class Source_Darcy_VDF_Face Cette classe represente le terme de Darcy pour les ecoulement en milieux ...">
<polygon fill="#bfbfbf" stroke="black" points="125.5,-56.5 125.5,-75.5 261.5,-75.5 261.5,-56.5 125.5,-56.5"/>
<text text-anchor="middle" x="193.5" y="-63.5" font-family="Helvetica,sans-Serif" font-size="10.00">Source_Darcy_VDF_Face</text>
</a>
</g>
</g>
<!-- Node8 -->
<g id="node8" class="node">
<title>Node8</title>
<g id="a_node8"><a xlink:href="classDarcy__QC__VDF__Face.html" target="_top" xlink:title=" ">
<polygon fill="white" stroke="black" points="135,-0.5 135,-19.5 252,-19.5 252,-0.5 135,-0.5"/>
<text text-anchor="middle" x="193.5" y="-7.5" font-family="Helvetica,sans-Serif" font-size="10.00">Darcy_QC_VDF_Face</text>
</a>
</g>
</g>
<!-- Node1&#45;&gt;Node8 -->
<g id="edge7" class="edge">
<title>Node1&#45;&gt;Node8</title>
<path fill="none" stroke="midnightblue" d="M193.5,-45.8C193.5,-36.91 193.5,-26.78 193.5,-19.75"/>
<polygon fill="midnightblue" stroke="midnightblue" points="190,-46.08 193.5,-56.08 197,-46.08 190,-46.08"/>
</g>
<!-- Node2 -->
<g id="node2" class="node">
<title>Node2</title>
<g id="a_node2"><a xlink:href="classTerme__Source__VDF__base.html" target="_top" xlink:title=" ">
<polygon fill="white" stroke="black" points="124,-112.5 124,-131.5 263,-131.5 263,-112.5 124,-112.5"/>
<text text-anchor="middle" x="193.5" y="-119.5" font-family="Helvetica,sans-Serif" font-size="10.00">Terme_Source_VDF_base</text>
</a>
</g>
</g>
<!-- Node2&#45;&gt;Node1 -->
<g id="edge1" class="edge">
<title>Node2&#45;&gt;Node1</title>
<path fill="none" stroke="midnightblue" d="M193.5,-101.8C193.5,-92.91 193.5,-82.78 193.5,-75.75"/>
<polygon fill="midnightblue" stroke="midnightblue" points="190,-102.08 193.5,-112.08 197,-102.08 190,-102.08"/>
</g>
<!-- Node3 -->
<g id="node3" class="node">
<title>Node3</title>
<g id="a_node3"><a xlink:href="classSource__base.html" target="_top" xlink:title="classe Source_base Un objet Source_base est un terme apparaissant au second membre d&#39;une equation....">
<polygon fill="white" stroke="black" points="154.5,-168.5 154.5,-187.5 232.5,-187.5 232.5,-168.5 154.5,-168.5"/>
<text text-anchor="middle" x="193.5" y="-175.5" font-family="Helvetica,sans-Serif" font-size="10.00">Source_base</text>
</a>
</g>
</g>
<!-- Node3&#45;&gt;Node2 -->
<g id="edge2" class="edge">
<title>Node3&#45;&gt;Node2</title>
<path fill="none" stroke="midnightblue" d="M193.5,-157.8C193.5,-148.91 193.5,-138.78 193.5,-131.75"/>
<polygon fill="midnightblue" stroke="midnightblue" points="190,-158.08 193.5,-168.08 197,-158.08 190,-158.08"/>
</g>
<!-- Node4 -->
<g id="node4" class="node">
<title>Node4</title>
<g id="a_node4"><a xlink:href="classChamps__compris__interface.html" target="_top" xlink:title="classe Champs_compris_interface Cette classe contient une interface de methodes destinees a gerer les...">
<polygon fill="white" stroke="black" points="0,-224.5 0,-243.5 149,-243.5 149,-224.5 0,-224.5"/>
<text text-anchor="middle" x="74.5" y="-231.5" font-family="Helvetica,sans-Serif" font-size="10.00">Champs_compris_interface</text>
</a>
</g>
</g>
<!-- Node4&#45;&gt;Node3 -->
<g id="edge3" class="edge">
<title>Node4&#45;&gt;Node3</title>
<path fill="none" stroke="midnightblue" d="M102.64,-220.23C124.9,-210.13 155.36,-196.31 174.73,-187.52"/>
<polygon fill="midnightblue" stroke="midnightblue" points="101.02,-217.12 93.36,-224.44 103.91,-223.5 101.02,-217.12"/>
</g>
<!-- Node5 -->
<g id="node5" class="node">
<title>Node5</title>
<g id="a_node5"><a xlink:href="classMorEqn.html" target="_top" xlink:title="classe MorEqn Classe qui regroupe les fonctionnalites de liaison avec une Equation....">
<polygon fill="white" stroke="black" points="167,-224.5 167,-243.5 220,-243.5 220,-224.5 167,-224.5"/>
<text text-anchor="middle" x="193.5" y="-231.5" font-family="Helvetica,sans-Serif" font-size="10.00">MorEqn</text>
</a>
</g>
</g>
<!-- Node5&#45;&gt;Node3 -->
<g id="edge4" class="edge">
<title>Node5&#45;&gt;Node3</title>
<path fill="none" stroke="midnightblue" d="M193.5,-213.8C193.5,-204.91 193.5,-194.78 193.5,-187.75"/>
<polygon fill="midnightblue" stroke="midnightblue" points="190,-214.08 193.5,-224.08 197,-214.08 190,-214.08"/>
</g>
<!-- Node6 -->
<g id="node6" class="node">
<title>Node6</title>
<g id="a_node6"><a xlink:href="classObjet__U.html" target="_top" xlink:title="classe Objet_U Cette classe est la classe de base des Objets de TRUST Dans les classes derivees de Ob...">
<polygon fill="white" stroke="black" points="238.5,-224.5 238.5,-243.5 294.5,-243.5 294.5,-224.5 238.5,-224.5"/>
<text text-anchor="middle" x="266.5" y="-231.5" font-family="Helvetica,sans-Serif" font-size="10.00">Objet_U</text>
</a>
</g>
</g>
<!-- Node6&#45;&gt;Node3 -->
<g id="edge5" class="edge">
<title>Node6&#45;&gt;Node3</title>
<path fill="none" stroke="midnightblue" d="M246.36,-218.1C233.22,-208.38 216.52,-196.03 205.44,-187.83"/>
<polygon fill="midnightblue" stroke="midnightblue" points="244.65,-221.19 254.77,-224.32 248.81,-215.56 244.65,-221.19"/>
</g>
<!-- Node7 -->
<g id="node7" class="node">
<title>Node7</title>
<g id="a_node7"><a xlink:href="classProcess.html" target="_top" xlink:title="Classe de base de TRUST (notamment Objet_U). Elle fournit quelques services de base accessibles de pa...">
<polygon fill="white" stroke="black" points="239.5,-280.5 239.5,-299.5 293.5,-299.5 293.5,-280.5 239.5,-280.5"/>
<text text-anchor="middle" x="266.5" y="-287.5" font-family="Helvetica,sans-Serif" font-size="10.00">Process</text>
</a>
</g>
</g>
<!-- Node7&#45;&gt;Node6 -->
<g id="edge6" class="edge">
<title>Node7&#45;&gt;Node6</title>
<path fill="none" stroke="midnightblue" d="M266.5,-269.8C266.5,-260.91 266.5,-250.78 266.5,-243.75"/>
<polygon fill="midnightblue" stroke="midnightblue" points="263,-270.08 266.5,-280.08 270,-270.08 263,-270.08"/>
</g>
</g>
</svg>
