<?xml version="1.0" encoding="UTF-8" standalone="no"?>
<!DOCTYPE svg PUBLIC "-//W3C//DTD SVG 1.1//EN"
 "http://www.w3.org/Graphics/SVG/1.1/DTD/svg11.dtd">
<!-- Generated by graphviz version 2.43.0 (0)
 -->
<!-- Title: Terme_Source_PolyMAC_base Pages: 1 -->
<svg width="360pt" height="330pt"
 viewBox="0.00 0.00 359.50 330.00" xmlns="http://www.w3.org/2000/svg" xmlns:xlink="http://www.w3.org/1999/xlink">
<g id="graph0" class="graph" transform="scale(1 1) rotate(0) translate(4 326)">
<title>Terme_Source_PolyMAC_base</title>
<polygon fill="white" stroke="transparent" points="-4,4 -4,-326 355.5,-326 355.5,4 -4,4"/>
<!-- Node1 -->
<g id="node1" class="node">
<title>Node1</title>
<g id="a_node1"><a xlink:title="PolyMAC implementation of Source_base class.">
<polygon fill="#bfbfbf" stroke="black" points="112.5,-134.5 112.5,-153.5 274.5,-153.5 274.5,-134.5 112.5,-134.5"/>
<text text-anchor="middle" x="193.5" y="-141.5" font-family="Helvetica,sans-Serif" font-size="10.00">Terme_Source_PolyMAC_base</text>
</a>
</g>
</g>
<!-- Node7 -->
<g id="node7" class="node">
<title>Node7</title>
<g id="a_node7"><a xlink:href="classTerme__Puissance__Thermique__PolyMAC__base.html" target="_top" xlink:title=" ">
<polygon fill="white" stroke="black" points="29.5,-67.5 29.5,-97.5 187.5,-97.5 187.5,-67.5 29.5,-67.5"/>
<text text-anchor="start" x="37.5" y="-85.5" font-family="Helvetica,sans-Serif" font-size="10.00">Terme_Puissance_Thermique</text>
<text text-anchor="middle" x="108.5" y="-74.5" font-family="Helvetica,sans-Serif" font-size="10.00">_PolyMAC_base</text>
</a>
</g>
</g>
<!-- Node1&#45;&gt;Node7 -->
<g id="edge6" class="edge">
<title>Node1&#45;&gt;Node7</title>
<path fill="none" stroke="midnightblue" d="M173.13,-128.74C159.62,-119.28 141.97,-106.93 128.53,-97.52"/>
<polygon fill="midnightblue" stroke="midnightblue" points="171.12,-131.61 181.32,-134.48 175.14,-125.87 171.12,-131.61"/>
</g>
<!-- Node9 -->
<g id="node9" class="node">
<title>Node9</title>
<g id="a_node9"><a xlink:href="classTerme__Source__Constituant__PolyMAC__Elem.html" target="_top" xlink:title="class Terme_Source_Constituant_PolyMAC_Elem Cette classe represente un terme source de l&#39;equation de ...">
<polygon fill="white" stroke="black" points="205.5,-67.5 205.5,-97.5 351.5,-97.5 351.5,-67.5 205.5,-67.5"/>
<text text-anchor="start" x="213.5" y="-85.5" font-family="Helvetica,sans-Serif" font-size="10.00">Terme_Source_Constituant</text>
<text text-anchor="middle" x="278.5" y="-74.5" font-family="Helvetica,sans-Serif" font-size="10.00">_PolyMAC_Elem</text>
</a>
</g>
</g>
<!-- Node1&#45;&gt;Node9 -->
<g id="edge8" class="edge">
<title>Node1&#45;&gt;Node9</title>
<path fill="none" stroke="midnightblue" d="M213.87,-128.74C227.38,-119.28 245.03,-106.93 258.47,-97.52"/>
<polygon fill="midnightblue" stroke="midnightblue" points="211.86,-125.87 205.68,-134.48 215.88,-131.61 211.86,-125.87"/>
</g>
<!-- Node2 -->
<g id="node2" class="node">
<title>Node2</title>
<g id="a_node2"><a xlink:href="classSource__base.html" target="_top" xlink:title="classe Source_base Un objet Source_base est un terme apparaissant au second membre d&#39;une equation....">
<polygon fill="white" stroke="black" points="154.5,-190.5 154.5,-209.5 232.5,-209.5 232.5,-190.5 154.5,-190.5"/>
<text text-anchor="middle" x="193.5" y="-197.5" font-family="Helvetica,sans-Serif" font-size="10.00">Source_base</text>
</a>
</g>
</g>
<!-- Node2&#45;&gt;Node1 -->
<g id="edge1" class="edge">
<title>Node2&#45;&gt;Node1</title>
<path fill="none" stroke="midnightblue" d="M193.5,-179.8C193.5,-170.91 193.5,-160.78 193.5,-153.75"/>
<polygon fill="midnightblue" stroke="midnightblue" points="190,-180.08 193.5,-190.08 197,-180.08 190,-180.08"/>
</g>
<!-- Node3 -->
<g id="node3" class="node">
<title>Node3</title>
<g id="a_node3"><a xlink:href="classChamps__compris__interface.html" target="_top" xlink:title="classe Champs_compris_interface Cette classe contient une interface de methodes destinees a gerer les...">
<polygon fill="white" stroke="black" points="0,-246.5 0,-265.5 149,-265.5 149,-246.5 0,-246.5"/>
<text text-anchor="middle" x="74.5" y="-253.5" font-family="Helvetica,sans-Serif" font-size="10.00">Champs_compris_interface</text>
</a>
</g>
</g>
<!-- Node3&#45;&gt;Node2 -->
<g id="edge2" class="edge">
<title>Node3&#45;&gt;Node2</title>
<path fill="none" stroke="midnightblue" d="M102.64,-242.23C124.9,-232.13 155.36,-218.31 174.73,-209.52"/>
<polygon fill="midnightblue" stroke="midnightblue" points="101.02,-239.12 93.36,-246.44 103.91,-245.5 101.02,-239.12"/>
</g>
<!-- Node4 -->
<g id="node4" class="node">
<title>Node4</title>
<g id="a_node4"><a xlink:href="classMorEqn.html" target="_top" xlink:title="classe MorEqn Classe qui regroupe les fonctionnalites de liaison avec une Equation....">
<polygon fill="white" stroke="black" points="167,-246.5 167,-265.5 220,-265.5 220,-246.5 167,-246.5"/>
<text text-anchor="middle" x="193.5" y="-253.5" font-family="Helvetica,sans-Serif" font-size="10.00">MorEqn</text>
</a>
</g>
</g>
<!-- Node4&#45;&gt;Node2 -->
<g id="edge3" class="edge">
<title>Node4&#45;&gt;Node2</title>
<path fill="none" stroke="midnightblue" d="M193.5,-235.8C193.5,-226.91 193.5,-216.78 193.5,-209.75"/>
<polygon fill="midnightblue" stroke="midnightblue" points="190,-236.08 193.5,-246.08 197,-236.08 190,-236.08"/>
</g>
<!-- Node5 -->
<g id="node5" class="node">
<title>Node5</title>
<g id="a_node5"><a xlink:href="classObjet__U.html" target="_top" xlink:title="classe Objet_U Cette classe est la classe de base des Objets de TRUST Dans les classes derivees de Ob...">
<polygon fill="white" stroke="black" points="238.5,-246.5 238.5,-265.5 294.5,-265.5 294.5,-246.5 238.5,-246.5"/>
<text text-anchor="middle" x="266.5" y="-253.5" font-family="Helvetica,sans-Serif" font-size="10.00">Objet_U</text>
</a>
</g>
</g>
<!-- Node5&#45;&gt;Node2 -->
<g id="edge4" class="edge">
<title>Node5&#45;&gt;Node2</title>
<path fill="none" stroke="midnightblue" d="M246.36,-240.1C233.22,-230.38 216.52,-218.03 205.44,-209.83"/>
<polygon fill="midnightblue" stroke="midnightblue" points="244.65,-243.19 254.77,-246.32 248.81,-237.56 244.65,-243.19"/>
</g>
<!-- Node6 -->
<g id="node6" class="node">
<title>Node6</title>
<g id="a_node6"><a xlink:href="classProcess.html" target="_top" xlink:title="Classe de base de TRUST (notamment Objet_U). Elle fournit quelques services de base accessibles de pa...">
<polygon fill="white" stroke="black" points="239.5,-302.5 239.5,-321.5 293.5,-321.5 293.5,-302.5 239.5,-302.5"/>
<text text-anchor="middle" x="266.5" y="-309.5" font-family="Helvetica,sans-Serif" font-size="10.00">Process</text>
</a>
</g>
</g>
<!-- Node6&#45;&gt;Node5 -->
<g id="edge5" class="edge">
<title>Node6&#45;&gt;Node5</title>
<path fill="none" stroke="midnightblue" d="M266.5,-291.8C266.5,-282.91 266.5,-272.78 266.5,-265.75"/>
<polygon fill="midnightblue" stroke="midnightblue" points="263,-292.08 266.5,-302.08 270,-292.08 263,-292.08"/>
</g>
<!-- Node8 -->
<g id="node8" class="node">
<title>Node8</title>
<g id="a_node8"><a xlink:href="classTerme__Puissance__Thermique__PolyMAC__Elem.html" target="_top" xlink:title="class Terme_Puissance_Thermique_PolyMAC_Elem Cette classe represente un terme source de l&#39;equation de...">
<polygon fill="white" stroke="black" points="29.5,-0.5 29.5,-30.5 187.5,-30.5 187.5,-0.5 29.5,-0.5"/>
<text text-anchor="start" x="37.5" y="-18.5" font-family="Helvetica,sans-Serif" font-size="10.00">Terme_Puissance_Thermique</text>
<text text-anchor="middle" x="108.5" y="-7.5" font-family="Helvetica,sans-Serif" font-size="10.00">_PolyMAC_Elem</text>
</a>
</g>
</g>
<!-- Node7&#45;&gt;Node8 -->
<g id="edge7" class="edge">
<title>Node7&#45;&gt;Node8</title>
<path fill="none" stroke="midnightblue" d="M108.5,-57.11C108.5,-48.15 108.5,-38.32 108.5,-30.58"/>
<polygon fill="midnightblue" stroke="midnightblue" points="105,-57.4 108.5,-67.4 112,-57.4 105,-57.4"/>
</g>
</g>
</svg>
