<?xml version="1.0" encoding="UTF-8" standalone="no"?>
<!DOCTYPE svg PUBLIC "-//W3C//DTD SVG 1.1//EN"
 "http://www.w3.org/Graphics/SVG/1.1/DTD/svg11.dtd">
<!-- Generated by graphviz version 2.43.0 (0)
 -->
<!-- Title: Vect_Motcle Pages: 1 -->
<svg width="84pt" height="252pt"
 viewBox="0.00 0.00 84.00 252.00" xmlns="http://www.w3.org/2000/svg" xmlns:xlink="http://www.w3.org/1999/xlink">
<g id="graph0" class="graph" transform="scale(1 1) rotate(0) translate(4 248)">
<title>Vect_Motcle</title>
<polygon fill="white" stroke="transparent" points="-4,4 -4,-248 80,-248 80,4 -4,4"/>
<!-- Node1 -->
<g id="node1" class="node">
<title>Node1</title>
<g id="a_node1"><a xlink:title=" ">
<polygon fill="#bfbfbf" stroke="black" points="0,-56.5 0,-75.5 76,-75.5 76,-56.5 0,-56.5"/>
<text text-anchor="middle" x="38" y="-63.5" font-family="Helvetica,sans-Serif" font-size="10.00">Vect_Motcle</text>
</a>
</g>
</g>
<!-- Node5 -->
<g id="node5" class="node">
<title>Node5</title>
<g id="a_node5"><a xlink:href="classMotcles.html" target="_top" xlink:title="Un tableau d&#39;objets de la classe Motcle.">
<polygon fill="white" stroke="black" points="10.5,-0.5 10.5,-19.5 65.5,-19.5 65.5,-0.5 10.5,-0.5"/>
<text text-anchor="middle" x="38" y="-7.5" font-family="Helvetica,sans-Serif" font-size="10.00">Motcles</text>
</a>
</g>
</g>
<!-- Node1&#45;&gt;Node5 -->
<g id="edge4" class="edge">
<title>Node1&#45;&gt;Node5</title>
<path fill="none" stroke="midnightblue" d="M38,-45.8C38,-36.91 38,-26.78 38,-19.75"/>
<polygon fill="midnightblue" stroke="midnightblue" points="34.5,-46.08 38,-56.08 41.5,-46.08 34.5,-46.08"/>
</g>
<!-- Node2 -->
<g id="node2" class="node">
<title>Node2</title>
<g id="a_node2"><a xlink:href="classvect__impl.html" target="_top" xlink:title=" ">
<polygon fill="white" stroke="black" points="5.5,-112.5 5.5,-131.5 70.5,-131.5 70.5,-112.5 5.5,-112.5"/>
<text text-anchor="middle" x="38" y="-119.5" font-family="Helvetica,sans-Serif" font-size="10.00">vect_impl</text>
</a>
</g>
</g>
<!-- Node2&#45;&gt;Node1 -->
<g id="edge1" class="edge">
<title>Node2&#45;&gt;Node1</title>
<path fill="none" stroke="midnightblue" d="M38,-101.8C38,-92.91 38,-82.78 38,-75.75"/>
<polygon fill="midnightblue" stroke="midnightblue" points="34.5,-102.08 38,-112.08 41.5,-102.08 34.5,-102.08"/>
</g>
<!-- Node3 -->
<g id="node3" class="node">
<title>Node3</title>
<g id="a_node3"><a xlink:href="classObjet__U.html" target="_top" xlink:title="classe Objet_U Cette classe est la classe de base des Objets de TRUST Dans les classes derivees de Ob...">
<polygon fill="white" stroke="black" points="10,-168.5 10,-187.5 66,-187.5 66,-168.5 10,-168.5"/>
<text text-anchor="middle" x="38" y="-175.5" font-family="Helvetica,sans-Serif" font-size="10.00">Objet_U</text>
</a>
</g>
</g>
<!-- Node3&#45;&gt;Node2 -->
<g id="edge2" class="edge">
<title>Node3&#45;&gt;Node2</title>
<path fill="none" stroke="midnightblue" d="M38,-157.8C38,-148.91 38,-138.78 38,-131.75"/>
<polygon fill="midnightblue" stroke="midnightblue" points="34.5,-158.08 38,-168.08 41.5,-158.08 34.5,-158.08"/>
</g>
<!-- Node4 -->
<g id="node4" class="node">
<title>Node4</title>
<g id="a_node4"><a xlink:href="classProcess.html" target="_top" xlink:title="Classe de base de TRUST (notamment Objet_U). Elle fournit quelques services de base accessibles de pa...">
<polygon fill="white" stroke="black" points="11,-224.5 11,-243.5 65,-243.5 65,-224.5 11,-224.5"/>
<text text-anchor="middle" x="38" y="-231.5" font-family="Helvetica,sans-Serif" font-size="10.00">Process</text>
</a>
</g>
</g>
<!-- Node4&#45;&gt;Node3 -->
<g id="edge3" class="edge">
<title>Node4&#45;&gt;Node3</title>
<path fill="none" stroke="midnightblue" d="M38,-213.8C38,-204.91 38,-194.78 38,-187.75"/>
<polygon fill="midnightblue" stroke="midnightblue" points="34.5,-214.08 38,-224.08 41.5,-214.08 34.5,-214.08"/>
</g>
</g>
</svg>
