<?xml version="1.0" encoding="UTF-8" standalone="no"?>
<!DOCTYPE svg PUBLIC "-//W3C//DTD SVG 1.1//EN"
 "http://www.w3.org/Graphics/SVG/1.1/DTD/svg11.dtd">
<!-- Generated by graphviz version 2.43.0 (0)
 -->
<!-- Title: Terme_Source_Qdm Pages: 1 -->
<svg width="706pt" height="743pt"
 viewBox="0.00 0.00 706.00 743.00" xmlns="http://www.w3.org/2000/svg" xmlns:xlink="http://www.w3.org/1999/xlink">
<g id="graph0" class="graph" transform="scale(1 1) rotate(0) translate(4 739)">
<title>Terme_Source_Qdm</title>
<polygon fill="white" stroke="transparent" points="-4,4 -4,-739 702,-739 702,4 -4,4"/>
<!-- Node1 -->
<g id="node1" class="node">
<title>Node1</title>
<g id="a_node1"><a xlink:title="Classe Terme_Source_Qdm Cette classe represente un terme source qui figure dans l&#39;equation de la dyna...">
<polygon fill="#bfbfbf" stroke="black" points="0,-203 0,-222 113,-222 113,-203 0,-203"/>
<text text-anchor="middle" x="56.5" y="-210" font-family="Helvetica,sans-Serif" font-size="10.00">Terme_Source_Qdm</text>
</a>
</g>
</g>
<!-- Node2 -->
<g id="node2" class="node">
<title>Node2</title>
<g id="a_node2"><a xlink:href="classPerte__Charge__PolyMAC.html" target="_top" xlink:title=" ">
<polygon fill="white" stroke="black" points="167,-612 167,-631 298,-631 298,-612 167,-612"/>
<text text-anchor="middle" x="232.5" y="-619" font-family="Helvetica,sans-Serif" font-size="10.00">Perte_Charge_PolyMAC</text>
</a>
</g>
</g>
<!-- Node1&#45;&gt;Node2 -->
<g id="edge1" class="edge">
<title>Node1&#45;&gt;Node2</title>
<path fill="none" stroke="midnightblue" d="M61.51,-232.2C71.75,-280.32 101.47,-406.94 149,-503.5 170.42,-547.01 206.75,-592.34 223.1,-611.74"/>
<polygon fill="midnightblue" stroke="midnightblue" points="64.89,-231.27 59.42,-222.2 58.03,-232.7 64.89,-231.27"/>
</g>
<!-- Node7 -->
<g id="node7" class="node">
<title>Node7</title>
<g id="a_node7"><a xlink:href="classPerte__Charge__PolyMAC__Face.html" target="_top" xlink:title="class Perte_Charge_PolyMAC_Face">
<polygon fill="white" stroke="black" points="153.5,-475 153.5,-494 311.5,-494 311.5,-475 153.5,-475"/>
<text text-anchor="middle" x="232.5" y="-482" font-family="Helvetica,sans-Serif" font-size="10.00">Perte_Charge_PolyMAC_Face</text>
</a>
</g>
</g>
<!-- Node1&#45;&gt;Node7 -->
<g id="edge6" class="edge">
<title>Node1&#45;&gt;Node7</title>
<path fill="none" stroke="midnightblue" d="M69.11,-230.85C86.44,-258.24 120.15,-311.42 149,-356.5 177.36,-400.81 211.48,-453.58 225.27,-474.88"/>
<polygon fill="midnightblue" stroke="midnightblue" points="72,-228.87 63.69,-222.29 66.08,-232.61 72,-228.87"/>
</g>
<!-- Node10 -->
<g id="node10" class="node">
<title>Node10</title>
<g id="a_node10"><a xlink:href="classPerte__Charge__VEF.html" target="_top" xlink:title=" ">
<polygon fill="white" stroke="black" points="179.5,-328 179.5,-347 285.5,-347 285.5,-328 179.5,-328"/>
<text text-anchor="middle" x="232.5" y="-335" font-family="Helvetica,sans-Serif" font-size="10.00">Perte_Charge_VEF</text>
</a>
</g>
</g>
<!-- Node1&#45;&gt;Node10 -->
<g id="edge9" class="edge">
<title>Node1&#45;&gt;Node10</title>
<path fill="none" stroke="midnightblue" d="M74.7,-229.24C92.47,-246.06 121.41,-272.2 149,-291.5 169.42,-305.79 194.68,-319.33 211.83,-327.97"/>
<polygon fill="midnightblue" stroke="midnightblue" points="77.01,-226.61 67.37,-222.22 72.17,-231.67 77.01,-226.61"/>
</g>
<!-- Node19 -->
<g id="node19" class="node">
<title>Node19</title>
<g id="a_node19"><a xlink:href="classPerte__Charge__VEF__Face.html" target="_top" xlink:title="class Perte_Charge_VEF_Face">
<polygon fill="white" stroke="black" points="166,-263 166,-282 299,-282 299,-263 166,-263"/>
<text text-anchor="middle" x="232.5" y="-270" font-family="Helvetica,sans-Serif" font-size="10.00">Perte_Charge_VEF_Face</text>
</a>
</g>
</g>
<!-- Node1&#45;&gt;Node19 -->
<g id="edge18" class="edge">
<title>Node1&#45;&gt;Node19</title>
<path fill="none" stroke="midnightblue" d="M85.24,-226.64C103.1,-235.3 127,-246.12 149,-253.5 159.73,-257.1 171.47,-260.25 182.64,-262.9"/>
<polygon fill="midnightblue" stroke="midnightblue" points="86.51,-223.36 76,-222.08 83.42,-229.64 86.51,-223.36"/>
</g>
<!-- Node24 -->
<g id="node24" class="node">
<title>Node24</title>
<g id="a_node24"><a xlink:href="classSource__Qdm__EF.html" target="_top" xlink:title="class Source_Qdm_EF">
<polygon fill="white" stroke="black" points="185,-225 185,-244 280,-244 280,-225 185,-225"/>
<text text-anchor="middle" x="232.5" y="-232" font-family="Helvetica,sans-Serif" font-size="10.00">Source_Qdm_EF</text>
</a>
</g>
</g>
<!-- Node1&#45;&gt;Node24 -->
<g id="edge23" class="edge">
<title>Node1&#45;&gt;Node24</title>
<path fill="none" stroke="midnightblue" d="M122.99,-220.78C143.6,-223.39 165.93,-226.21 184.95,-228.61"/>
<polygon fill="midnightblue" stroke="midnightblue" points="123.39,-217.3 113.03,-219.52 122.52,-224.25 123.39,-217.3"/>
</g>
<!-- Node25 -->
<g id="node25" class="node">
<title>Node25</title>
<g id="a_node25"><a xlink:href="classTerme__Source__Qdm__Face__PolyMAC.html" target="_top" xlink:title="class Terme_Source_Qdm_Face_PolyMAC">
<polygon fill="white" stroke="black" points="162.5,-175.5 162.5,-205.5 302.5,-205.5 302.5,-175.5 162.5,-175.5"/>
<text text-anchor="start" x="170.5" y="-193.5" font-family="Helvetica,sans-Serif" font-size="10.00">Terme_Source_Qdm_Face</text>
<text text-anchor="middle" x="232.5" y="-182.5" font-family="Helvetica,sans-Serif" font-size="10.00">_PolyMAC</text>
</a>
</g>
</g>
<!-- Node1&#45;&gt;Node25 -->
<g id="edge24" class="edge">
<title>Node1&#45;&gt;Node25</title>
<path fill="none" stroke="midnightblue" d="M123.17,-204.2C136.01,-202.57 149.51,-200.87 162.45,-199.23"/>
<polygon fill="midnightblue" stroke="midnightblue" points="122.52,-200.75 113.03,-205.48 123.39,-207.7 122.52,-200.75"/>
</g>
<!-- Node26 -->
<g id="node26" class="node">
<title>Node26</title>
<g id="a_node26"><a xlink:href="classTerme__Source__Qdm__VDF__Face.html" target="_top" xlink:title="class Terme_Source_Qdm_VDF_Face">
<polygon fill="white" stroke="black" points="149.5,-137 149.5,-156 315.5,-156 315.5,-137 149.5,-137"/>
<text text-anchor="middle" x="232.5" y="-144" font-family="Helvetica,sans-Serif" font-size="10.00">Terme_Source_Qdm_VDF_Face</text>
</a>
</g>
</g>
<!-- Node1&#45;&gt;Node26 -->
<g id="edge25" class="edge">
<title>Node1&#45;&gt;Node26</title>
<path fill="none" stroke="midnightblue" d="M82.57,-197.94C100.58,-187.97 125.69,-175.06 149,-166.5 160.07,-162.44 172.28,-158.96 183.83,-156.1"/>
<polygon fill="midnightblue" stroke="midnightblue" points="80.85,-194.89 73.85,-202.84 84.28,-200.99 80.85,-194.89"/>
</g>
<!-- Node28 -->
<g id="node28" class="node">
<title>Node28</title>
<g id="a_node28"><a xlink:href="classTerme__Source__Qdm__VEF__Face.html" target="_top" xlink:title="class Terme_Source_Qdm_VEF_Face">
<polygon fill="white" stroke="black" points="150.5,-99 150.5,-118 314.5,-118 314.5,-99 150.5,-99"/>
<text text-anchor="middle" x="232.5" y="-106" font-family="Helvetica,sans-Serif" font-size="10.00">Terme_Source_Qdm_VEF_Face</text>
</a>
</g>
</g>
<!-- Node1&#45;&gt;Node28 -->
<g id="edge27" class="edge">
<title>Node1&#45;&gt;Node28</title>
<path fill="none" stroke="midnightblue" d="M71.31,-195.06C87.73,-175.56 116.96,-144.49 149,-127.5 156.27,-123.64 164.31,-120.57 172.43,-118.11"/>
<polygon fill="midnightblue" stroke="midnightblue" points="68.54,-192.92 64.9,-202.87 73.95,-197.37 68.54,-192.92"/>
</g>
<!-- Node30 -->
<g id="node30" class="node">
<title>Node30</title>
<g id="a_node30"><a xlink:href="classTerme__Source__Qdm__lambdaup__VEF__Face.html" target="_top" xlink:title="class Terme_Source_Qdm_lambdaup_VEF_Face">
<polygon fill="white" stroke="black" points="149,-49.5 149,-79.5 316,-79.5 316,-49.5 149,-49.5"/>
<text text-anchor="start" x="157" y="-67.5" font-family="Helvetica,sans-Serif" font-size="10.00">Terme_Source_Qdm_lambdaup</text>
<text text-anchor="middle" x="232.5" y="-56.5" font-family="Helvetica,sans-Serif" font-size="10.00">_VEF_Face</text>
</a>
</g>
</g>
<!-- Node1&#45;&gt;Node30 -->
<g id="edge29" class="edge">
<title>Node1&#45;&gt;Node30</title>
<path fill="none" stroke="midnightblue" d="M66.54,-193.7C80.49,-166.67 109.81,-117.05 149,-89.5 154.51,-85.63 160.63,-82.34 166.98,-79.56"/>
<polygon fill="midnightblue" stroke="midnightblue" points="63.3,-192.35 61.96,-202.86 69.56,-195.48 63.3,-192.35"/>
</g>
<!-- Node31 -->
<g id="node31" class="node">
<title>Node31</title>
<g id="a_node31"><a xlink:href="classTerme__Source__Th__TdivU__VEF__Face.html" target="_top" xlink:title="class Terme_Source_Th_TdivU_VEF_Face">
<polygon fill="white" stroke="black" points="164.5,-0.5 164.5,-30.5 300.5,-30.5 300.5,-0.5 164.5,-0.5"/>
<text text-anchor="start" x="172.5" y="-18.5" font-family="Helvetica,sans-Serif" font-size="10.00">Terme_Source_Th_TdivU</text>
<text text-anchor="middle" x="232.5" y="-7.5" font-family="Helvetica,sans-Serif" font-size="10.00">_VEF_Face</text>
</a>
</g>
</g>
<!-- Node1&#45;&gt;Node31 -->
<g id="edge30" class="edge">
<title>Node1&#45;&gt;Node31</title>
<path fill="none" stroke="midnightblue" d="M62.29,-193.26C72.21,-157.52 98.39,-80.73 149,-39.5 153.63,-35.73 158.82,-32.55 164.29,-29.88"/>
<polygon fill="midnightblue" stroke="midnightblue" points="58.9,-192.39 59.73,-202.96 65.67,-194.18 58.9,-192.39"/>
</g>
<!-- Node3 -->
<g id="node3" class="node">
<title>Node3</title>
<g id="a_node3"><a xlink:href="classPerte__Charge__Anisotrope__PolyMAC__Face.html" target="_top" xlink:title=" ">
<polygon fill="white" stroke="black" points="359.5,-704.5 359.5,-734.5 499.5,-734.5 499.5,-704.5 359.5,-704.5"/>
<text text-anchor="start" x="367.5" y="-722.5" font-family="Helvetica,sans-Serif" font-size="10.00">Perte_Charge_Anisotrope</text>
<text text-anchor="middle" x="429.5" y="-711.5" font-family="Helvetica,sans-Serif" font-size="10.00">_PolyMAC_Face</text>
</a>
</g>
</g>
<!-- Node2&#45;&gt;Node3 -->
<g id="edge2" class="edge">
<title>Node2&#45;&gt;Node3</title>
<path fill="none" stroke="midnightblue" d="M254.7,-637.07C277.71,-653.4 316.01,-678.95 352,-695.5 359.08,-698.76 366.73,-701.74 374.35,-704.41"/>
<polygon fill="midnightblue" stroke="midnightblue" points="256.55,-634.08 246.38,-631.09 252.46,-639.77 256.55,-634.08"/>
</g>
<!-- Node4 -->
<g id="node4" class="node">
<title>Node4</title>
<g id="a_node4"><a xlink:href="classPerte__Charge__Circulaire__PolyMAC__Face.html" target="_top" xlink:title=" ">
<polygon fill="white" stroke="black" points="362.5,-655.5 362.5,-685.5 496.5,-685.5 496.5,-655.5 362.5,-655.5"/>
<text text-anchor="start" x="370.5" y="-673.5" font-family="Helvetica,sans-Serif" font-size="10.00">Perte_Charge_Circulaire</text>
<text text-anchor="middle" x="429.5" y="-662.5" font-family="Helvetica,sans-Serif" font-size="10.00">_PolyMAC_Face</text>
</a>
</g>
</g>
<!-- Node2&#45;&gt;Node4 -->
<g id="edge3" class="edge">
<title>Node2&#45;&gt;Node4</title>
<path fill="none" stroke="midnightblue" d="M281.31,-633.51C307.66,-640.14 340.62,-648.42 368.66,-655.46"/>
<polygon fill="midnightblue" stroke="midnightblue" points="282.11,-630.11 271.56,-631.06 280.41,-636.9 282.11,-630.11"/>
</g>
<!-- Node5 -->
<g id="node5" class="node">
<title>Node5</title>
<g id="a_node5"><a xlink:href="classPerte__Charge__Directionnelle__PolyMAC__Face.html" target="_top" xlink:title=" ">
<polygon fill="white" stroke="black" points="352,-606.5 352,-636.5 507,-636.5 507,-606.5 352,-606.5"/>
<text text-anchor="start" x="360" y="-624.5" font-family="Helvetica,sans-Serif" font-size="10.00">Perte_Charge_Directionnelle</text>
<text text-anchor="middle" x="429.5" y="-613.5" font-family="Helvetica,sans-Serif" font-size="10.00">_PolyMAC_Face</text>
</a>
</g>
</g>
<!-- Node2&#45;&gt;Node5 -->
<g id="edge4" class="edge">
<title>Node2&#45;&gt;Node5</title>
<path fill="none" stroke="midnightblue" d="M308.39,-621.5C322.62,-621.5 337.54,-621.5 351.83,-621.5"/>
<polygon fill="midnightblue" stroke="midnightblue" points="308.16,-618 298.16,-621.5 308.16,-625 308.16,-618"/>
</g>
<!-- Node6 -->
<g id="node6" class="node">
<title>Node6</title>
<g id="a_node6"><a xlink:href="classPerte__Charge__Isotrope__PolyMAC__Face.html" target="_top" xlink:title=" ">
<polygon fill="white" stroke="black" points="366,-557.5 366,-587.5 493,-587.5 493,-557.5 366,-557.5"/>
<text text-anchor="start" x="374" y="-575.5" font-family="Helvetica,sans-Serif" font-size="10.00">Perte_Charge_Isotrope</text>
<text text-anchor="middle" x="429.5" y="-564.5" font-family="Helvetica,sans-Serif" font-size="10.00">_PolyMAC_Face</text>
</a>
</g>
</g>
<!-- Node2&#45;&gt;Node6 -->
<g id="edge5" class="edge">
<title>Node2&#45;&gt;Node6</title>
<path fill="none" stroke="midnightblue" d="M281.31,-609.49C307.66,-602.86 340.62,-594.58 368.66,-587.54"/>
<polygon fill="midnightblue" stroke="midnightblue" points="280.41,-606.1 271.56,-611.94 282.11,-612.89 280.41,-606.1"/>
</g>
<!-- Node8 -->
<g id="node8" class="node">
<title>Node8</title>
<g id="a_node8"><a xlink:href="classDP__Impose__PolyMAC__Face.html" target="_top" xlink:title="class DP_Impose_PolyMAC_Face">
<polygon fill="white" stroke="black" points="356,-519 356,-538 503,-538 503,-519 356,-519"/>
<text text-anchor="middle" x="429.5" y="-526" font-family="Helvetica,sans-Serif" font-size="10.00">DP_Impose_PolyMAC_Face</text>
</a>
</g>
</g>
<!-- Node7&#45;&gt;Node8 -->
<g id="edge7" class="edge">
<title>Node7&#45;&gt;Node8</title>
<path fill="none" stroke="midnightblue" d="M285.72,-496.28C317.2,-503.39 356.78,-512.32 386.27,-518.97"/>
<polygon fill="midnightblue" stroke="midnightblue" points="286.34,-492.83 275.81,-494.05 284.8,-499.66 286.34,-492.83"/>
</g>
<!-- Node9 -->
<g id="node9" class="node">
<title>Node9</title>
<g id="a_node9"><a xlink:href="classPerte__Charge__Singuliere__PolyMAC__Face.html" target="_top" xlink:title="class Perte_Charge_Singuliere_PolyMAC_Face">
<polygon fill="white" stroke="black" points="361.5,-469.5 361.5,-499.5 497.5,-499.5 497.5,-469.5 361.5,-469.5"/>
<text text-anchor="start" x="369.5" y="-487.5" font-family="Helvetica,sans-Serif" font-size="10.00">Perte_Charge_Singuliere</text>
<text text-anchor="middle" x="429.5" y="-476.5" font-family="Helvetica,sans-Serif" font-size="10.00">_PolyMAC_Face</text>
</a>
</g>
</g>
<!-- Node7&#45;&gt;Node9 -->
<g id="edge8" class="edge">
<title>Node7&#45;&gt;Node9</title>
<path fill="none" stroke="midnightblue" d="M321.78,-484.5C335.05,-484.5 348.54,-484.5 361.28,-484.5"/>
<polygon fill="midnightblue" stroke="midnightblue" points="321.69,-481 311.69,-484.5 321.69,-488 321.69,-481"/>
</g>
<!-- Node11 -->
<g id="node11" class="node">
<title>Node11</title>
<g id="a_node11"><a xlink:href="classPerte__Charge__Anisotrope__VEF__P1NC.html" target="_top" xlink:title=" ">
<polygon fill="white" stroke="black" points="359.5,-420.5 359.5,-450.5 499.5,-450.5 499.5,-420.5 359.5,-420.5"/>
<text text-anchor="start" x="367.5" y="-438.5" font-family="Helvetica,sans-Serif" font-size="10.00">Perte_Charge_Anisotrope</text>
<text text-anchor="middle" x="429.5" y="-427.5" font-family="Helvetica,sans-Serif" font-size="10.00">_VEF_P1NC</text>
</a>
</g>
</g>
<!-- Node10&#45;&gt;Node11 -->
<g id="edge10" class="edge">
<title>Node10&#45;&gt;Node11</title>
<path fill="none" stroke="midnightblue" d="M254.7,-353.07C277.71,-369.4 316.01,-394.95 352,-411.5 359.08,-414.76 366.73,-417.74 374.35,-420.41"/>
<polygon fill="midnightblue" stroke="midnightblue" points="256.55,-350.08 246.38,-347.09 252.46,-355.77 256.55,-350.08"/>
</g>
<!-- Node13 -->
<g id="node13" class="node">
<title>Node13</title>
<g id="a_node13"><a xlink:href="classPerte__Charge__Circulaire__VEF__P1NC.html" target="_top" xlink:title=" ">
<polygon fill="white" stroke="black" points="362.5,-371.5 362.5,-401.5 496.5,-401.5 496.5,-371.5 362.5,-371.5"/>
<text text-anchor="start" x="370.5" y="-389.5" font-family="Helvetica,sans-Serif" font-size="10.00">Perte_Charge_Circulaire</text>
<text text-anchor="middle" x="429.5" y="-378.5" font-family="Helvetica,sans-Serif" font-size="10.00">_VEF_P1NC</text>
</a>
</g>
</g>
<!-- Node10&#45;&gt;Node13 -->
<g id="edge12" class="edge">
<title>Node10&#45;&gt;Node13</title>
<path fill="none" stroke="midnightblue" d="M281.31,-349.51C307.66,-356.14 340.62,-364.42 368.66,-371.46"/>
<polygon fill="midnightblue" stroke="midnightblue" points="282.11,-346.11 271.56,-347.06 280.41,-352.9 282.11,-346.11"/>
</g>
<!-- Node15 -->
<g id="node15" class="node">
<title>Node15</title>
<g id="a_node15"><a xlink:href="classPerte__Charge__Directionnelle__VEF__P1NC.html" target="_top" xlink:title=" ">
<polygon fill="white" stroke="black" points="352,-322.5 352,-352.5 507,-352.5 507,-322.5 352,-322.5"/>
<text text-anchor="start" x="360" y="-340.5" font-family="Helvetica,sans-Serif" font-size="10.00">Perte_Charge_Directionnelle</text>
<text text-anchor="middle" x="429.5" y="-329.5" font-family="Helvetica,sans-Serif" font-size="10.00">_VEF_P1NC</text>
</a>
</g>
</g>
<!-- Node10&#45;&gt;Node15 -->
<g id="edge14" class="edge">
<title>Node10&#45;&gt;Node15</title>
<path fill="none" stroke="midnightblue" d="M295.75,-337.5C313.55,-337.5 333.15,-337.5 351.71,-337.5"/>
<polygon fill="midnightblue" stroke="midnightblue" points="295.5,-334 285.5,-337.5 295.5,-341 295.5,-334"/>
</g>
<!-- Node17 -->
<g id="node17" class="node">
<title>Node17</title>
<g id="a_node17"><a xlink:href="classPerte__Charge__Isotrope__VEF__P1NC.html" target="_top" xlink:title=" ">
<polygon fill="white" stroke="black" points="366,-273.5 366,-303.5 493,-303.5 493,-273.5 366,-273.5"/>
<text text-anchor="start" x="374" y="-291.5" font-family="Helvetica,sans-Serif" font-size="10.00">Perte_Charge_Isotrope</text>
<text text-anchor="middle" x="429.5" y="-280.5" font-family="Helvetica,sans-Serif" font-size="10.00">_VEF_P1NC</text>
</a>
</g>
</g>
<!-- Node10&#45;&gt;Node17 -->
<g id="edge16" class="edge">
<title>Node10&#45;&gt;Node17</title>
<path fill="none" stroke="midnightblue" d="M281.31,-325.49C307.66,-318.86 340.62,-310.58 368.66,-303.54"/>
<polygon fill="midnightblue" stroke="midnightblue" points="280.41,-322.1 271.56,-327.94 282.11,-328.89 280.41,-322.1"/>
</g>
<!-- Node12 -->
<g id="node12" class="node">
<title>Node12</title>
<g id="a_node12"><a xlink:href="classPerte__Charge__Anisotrope__QC__VEF__P1NC.html" target="_top" xlink:title=" ">
<polygon fill="white" stroke="black" points="550.5,-420.5 550.5,-450.5 690.5,-450.5 690.5,-420.5 550.5,-420.5"/>
<text text-anchor="start" x="558.5" y="-438.5" font-family="Helvetica,sans-Serif" font-size="10.00">Perte_Charge_Anisotrope</text>
<text text-anchor="middle" x="620.5" y="-427.5" font-family="Helvetica,sans-Serif" font-size="10.00">_QC_VEF_P1NC</text>
</a>
</g>
</g>
<!-- Node11&#45;&gt;Node12 -->
<g id="edge11" class="edge">
<title>Node11&#45;&gt;Node12</title>
<path fill="none" stroke="midnightblue" d="M509.74,-435.5C523.23,-435.5 537.14,-435.5 550.34,-435.5"/>
<polygon fill="midnightblue" stroke="midnightblue" points="509.54,-432 499.54,-435.5 509.54,-439 509.54,-432"/>
</g>
<!-- Node14 -->
<g id="node14" class="node">
<title>Node14</title>
<g id="a_node14"><a xlink:href="classPerte__Charge__Circulaire__QC__VEF__P1NC.html" target="_top" xlink:title=" ">
<polygon fill="white" stroke="black" points="553.5,-371.5 553.5,-401.5 687.5,-401.5 687.5,-371.5 553.5,-371.5"/>
<text text-anchor="start" x="561.5" y="-389.5" font-family="Helvetica,sans-Serif" font-size="10.00">Perte_Charge_Circulaire</text>
<text text-anchor="middle" x="620.5" y="-378.5" font-family="Helvetica,sans-Serif" font-size="10.00">_QC_VEF_P1NC</text>
</a>
</g>
</g>
<!-- Node13&#45;&gt;Node14 -->
<g id="edge13" class="edge">
<title>Node13&#45;&gt;Node14</title>
<path fill="none" stroke="midnightblue" d="M506.67,-386.5C522.16,-386.5 538.33,-386.5 553.43,-386.5"/>
<polygon fill="midnightblue" stroke="midnightblue" points="506.6,-383 496.6,-386.5 506.6,-390 506.6,-383"/>
</g>
<!-- Node16 -->
<g id="node16" class="node">
<title>Node16</title>
<g id="a_node16"><a xlink:href="classPerte__Charge__Directionnelle__QC__VEF__P1NC.html" target="_top" xlink:title=" ">
<polygon fill="white" stroke="black" points="543,-322.5 543,-352.5 698,-352.5 698,-322.5 543,-322.5"/>
<text text-anchor="start" x="551" y="-340.5" font-family="Helvetica,sans-Serif" font-size="10.00">Perte_Charge_Directionnelle</text>
<text text-anchor="middle" x="620.5" y="-329.5" font-family="Helvetica,sans-Serif" font-size="10.00">_QC_VEF_P1NC</text>
</a>
</g>
</g>
<!-- Node15&#45;&gt;Node16 -->
<g id="edge15" class="edge">
<title>Node15&#45;&gt;Node16</title>
<path fill="none" stroke="midnightblue" d="M517.1,-337.5C525.67,-337.5 534.33,-337.5 542.79,-337.5"/>
<polygon fill="midnightblue" stroke="midnightblue" points="517.1,-334 507.1,-337.5 517.1,-341 517.1,-334"/>
</g>
<!-- Node18 -->
<g id="node18" class="node">
<title>Node18</title>
<g id="a_node18"><a xlink:href="classPerte__Charge__Isotrope__QC__VEF__P1NC.html" target="_top" xlink:title=" ">
<polygon fill="white" stroke="black" points="557,-273.5 557,-303.5 684,-303.5 684,-273.5 557,-273.5"/>
<text text-anchor="start" x="565" y="-291.5" font-family="Helvetica,sans-Serif" font-size="10.00">Perte_Charge_Isotrope</text>
<text text-anchor="middle" x="620.5" y="-280.5" font-family="Helvetica,sans-Serif" font-size="10.00">_QC_VEF_P1NC</text>
</a>
</g>
</g>
<!-- Node17&#45;&gt;Node18 -->
<g id="edge17" class="edge">
<title>Node17&#45;&gt;Node18</title>
<path fill="none" stroke="midnightblue" d="M503.44,-288.5C521.11,-288.5 539.85,-288.5 557,-288.5"/>
<polygon fill="midnightblue" stroke="midnightblue" points="503.17,-285 493.17,-288.5 503.17,-292 503.17,-285"/>
</g>
<!-- Node20 -->
<g id="node20" class="node">
<title>Node20</title>
<g id="a_node20"><a xlink:href="classPerte__Charge__Reguliere__VEF__P1NC.html" target="_top" xlink:title="class Perte_Charge_Reguliere_VEF_P1NC">
<polygon fill="white" stroke="black" points="362.5,-224.5 362.5,-254.5 496.5,-254.5 496.5,-224.5 362.5,-224.5"/>
<text text-anchor="start" x="370.5" y="-242.5" font-family="Helvetica,sans-Serif" font-size="10.00">Perte_Charge_Reguliere</text>
<text text-anchor="middle" x="429.5" y="-231.5" font-family="Helvetica,sans-Serif" font-size="10.00">_VEF_P1NC</text>
</a>
</g>
</g>
<!-- Node19&#45;&gt;Node20 -->
<g id="edge19" class="edge">
<title>Node19&#45;&gt;Node20</title>
<path fill="none" stroke="midnightblue" d="M299.71,-261.3C319.94,-257.87 342.19,-254.11 362.42,-250.68"/>
<polygon fill="midnightblue" stroke="midnightblue" points="298.92,-257.88 289.64,-263 300.08,-264.78 298.92,-257.88"/>
</g>
<!-- Node22 -->
<g id="node22" class="node">
<title>Node22</title>
<g id="a_node22"><a xlink:href="classPerte__Charge__Singuliere__VEF__Face.html" target="_top" xlink:title="class Perte_Charge_Singuliere_VEF_Face">
<polygon fill="white" stroke="black" points="361.5,-175.5 361.5,-205.5 497.5,-205.5 497.5,-175.5 361.5,-175.5"/>
<text text-anchor="start" x="369.5" y="-193.5" font-family="Helvetica,sans-Serif" font-size="10.00">Perte_Charge_Singuliere</text>
<text text-anchor="middle" x="429.5" y="-182.5" font-family="Helvetica,sans-Serif" font-size="10.00">_VEF_Face</text>
</a>
</g>
</g>
<!-- Node19&#45;&gt;Node22 -->
<g id="edge21" class="edge">
<title>Node19&#45;&gt;Node22</title>
<path fill="none" stroke="midnightblue" d="M303.65,-259.45C307.93,-257.71 312.09,-255.74 316,-253.5 336.2,-241.95 332.34,-227.94 352,-215.5 358.02,-211.69 364.68,-208.41 371.48,-205.59"/>
<polygon fill="midnightblue" stroke="midnightblue" points="302.31,-256.21 294.1,-262.9 304.69,-262.79 302.31,-256.21"/>
</g>
<!-- Node21 -->
<g id="node21" class="node">
<title>Node21</title>
<g id="a_node21"><a xlink:href="classPerte__Charge__Reguliere__QC__VEF__P1NC.html" target="_top" xlink:title=" ">
<polygon fill="white" stroke="black" points="553.5,-224.5 553.5,-254.5 687.5,-254.5 687.5,-224.5 553.5,-224.5"/>
<text text-anchor="start" x="561.5" y="-242.5" font-family="Helvetica,sans-Serif" font-size="10.00">Perte_Charge_Reguliere</text>
<text text-anchor="middle" x="620.5" y="-231.5" font-family="Helvetica,sans-Serif" font-size="10.00">_QC_VEF_P1NC</text>
</a>
</g>
</g>
<!-- Node20&#45;&gt;Node21 -->
<g id="edge20" class="edge">
<title>Node20&#45;&gt;Node21</title>
<path fill="none" stroke="midnightblue" d="M506.67,-239.5C522.16,-239.5 538.33,-239.5 553.43,-239.5"/>
<polygon fill="midnightblue" stroke="midnightblue" points="506.6,-236 496.6,-239.5 506.6,-243 506.6,-236"/>
</g>
<!-- Node23 -->
<g id="node23" class="node">
<title>Node23</title>
<g id="a_node23"><a xlink:href="classPerte__Charge__Singuliere__QC__VEF__P1NC.html" target="_top" xlink:title=" ">
<polygon fill="white" stroke="black" points="552.5,-175.5 552.5,-205.5 688.5,-205.5 688.5,-175.5 552.5,-175.5"/>
<text text-anchor="start" x="560.5" y="-193.5" font-family="Helvetica,sans-Serif" font-size="10.00">Perte_Charge_Singuliere</text>
<text text-anchor="middle" x="620.5" y="-182.5" font-family="Helvetica,sans-Serif" font-size="10.00">_QC_VEF_P1NC</text>
</a>
</g>
</g>
<!-- Node22&#45;&gt;Node23 -->
<g id="edge22" class="edge">
<title>Node22&#45;&gt;Node23</title>
<path fill="none" stroke="midnightblue" d="M507.76,-190.5C522.51,-190.5 537.83,-190.5 552.23,-190.5"/>
<polygon fill="midnightblue" stroke="midnightblue" points="507.67,-187 497.67,-190.5 507.67,-194 507.67,-187"/>
</g>
<!-- Node27 -->
<g id="node27" class="node">
<title>Node27</title>
<g id="a_node27"><a xlink:href="classSource__qdm__QC__VDF__Face.html" target="_top" xlink:title=" ">
<polygon fill="white" stroke="black" points="355,-137 355,-156 504,-156 504,-137 355,-137"/>
<text text-anchor="middle" x="429.5" y="-144" font-family="Helvetica,sans-Serif" font-size="10.00">Source_qdm_QC_VDF_Face</text>
</a>
</g>
</g>
<!-- Node26&#45;&gt;Node27 -->
<g id="edge26" class="edge">
<title>Node26&#45;&gt;Node27</title>
<path fill="none" stroke="midnightblue" d="M325.75,-146.5C335.51,-146.5 345.33,-146.5 354.83,-146.5"/>
<polygon fill="midnightblue" stroke="midnightblue" points="325.63,-143 315.63,-146.5 325.63,-150 325.63,-143"/>
</g>
<!-- Node29 -->
<g id="node29" class="node">
<title>Node29</title>
<g id="a_node29"><a xlink:href="classSource__qdm__QC__VEF__P1NC.html" target="_top" xlink:title=" ">
<polygon fill="white" stroke="black" points="353.5,-99 353.5,-118 505.5,-118 505.5,-99 353.5,-99"/>
<text text-anchor="middle" x="429.5" y="-106" font-family="Helvetica,sans-Serif" font-size="10.00">Source_qdm_QC_VEF_P1NC</text>
</a>
</g>
</g>
<!-- Node28&#45;&gt;Node29 -->
<g id="edge28" class="edge">
<title>Node28&#45;&gt;Node29</title>
<path fill="none" stroke="midnightblue" d="M324.52,-108.5C334.18,-108.5 343.92,-108.5 353.37,-108.5"/>
<polygon fill="midnightblue" stroke="midnightblue" points="324.5,-105 314.5,-108.5 324.5,-112 324.5,-105"/>
</g>
</g>
</svg>
