<?xml version="1.0" encoding="UTF-8" standalone="no"?>
<!DOCTYPE svg PUBLIC "-//W3C//DTD SVG 1.1//EN"
 "http://www.w3.org/Graphics/SVG/1.1/DTD/svg11.dtd">
<!-- Generated by graphviz version 2.43.0 (0)
 -->
<!-- Title: Entree_fluide_Flux_Chaleur_Turbulente_imposee Pages: 1 -->
<svg width="135pt" height="330pt"
 viewBox="0.00 0.00 135.00 330.00" xmlns="http://www.w3.org/2000/svg" xmlns:xlink="http://www.w3.org/1999/xlink">
<g id="graph0" class="graph" transform="scale(1 1) rotate(0) translate(4 326)">
<title>Entree_fluide_Flux_Chaleur_Turbulente_imposee</title>
<polygon fill="white" stroke="transparent" points="-4,4 -4,-326 131,-326 131,4 -4,4"/>
<!-- Node1 -->
<g id="node1" class="node">
<title>Node1</title>
<g id="a_node1"><a xlink:title=" ">
<polygon fill="#bfbfbf" stroke="black" points="5.5,-0.5 5.5,-41.5 121.5,-41.5 121.5,-0.5 5.5,-0.5"/>
<text text-anchor="start" x="13.5" y="-29.5" font-family="Helvetica,sans-Serif" font-size="10.00">Entree_fluide_Flux</text>
<text text-anchor="start" x="13.5" y="-18.5" font-family="Helvetica,sans-Serif" font-size="10.00">_Chaleur_Turbulente</text>
<text text-anchor="middle" x="63.5" y="-7.5" font-family="Helvetica,sans-Serif" font-size="10.00">_imposee</text>
</a>
</g>
</g>
<!-- Node2 -->
<g id="node2" class="node">
<title>Node2</title>
<g id="a_node2"><a xlink:href="classDirichlet__entree__fluide.html" target="_top" xlink:title="classe Dirichlet_entree_fluide Cette classe represente une condition aux limite imposant une grandeur...">
<polygon fill="white" stroke="black" points="0,-78.5 0,-97.5 127,-97.5 127,-78.5 0,-78.5"/>
<text text-anchor="middle" x="63.5" y="-85.5" font-family="Helvetica,sans-Serif" font-size="10.00">Dirichlet_entree_fluide</text>
</a>
</g>
</g>
<!-- Node2&#45;&gt;Node1 -->
<g id="edge1" class="edge">
<title>Node2&#45;&gt;Node1</title>
<path fill="none" stroke="midnightblue" d="M63.5,-68.04C63.5,-59.71 63.5,-49.94 63.5,-41.54"/>
<polygon fill="midnightblue" stroke="midnightblue" points="60,-68.23 63.5,-78.23 67,-68.23 60,-68.23"/>
</g>
<!-- Node3 -->
<g id="node3" class="node">
<title>Node3</title>
<g id="a_node3"><a xlink:href="classDirichlet.html" target="_top" xlink:title="classe Dirichlet Cette classe est la classe de base de la hierarchie des conditions aux limites de ty...">
<polygon fill="white" stroke="black" points="34.5,-134.5 34.5,-153.5 92.5,-153.5 92.5,-134.5 34.5,-134.5"/>
<text text-anchor="middle" x="63.5" y="-141.5" font-family="Helvetica,sans-Serif" font-size="10.00">Dirichlet</text>
</a>
</g>
</g>
<!-- Node3&#45;&gt;Node2 -->
<g id="edge2" class="edge">
<title>Node3&#45;&gt;Node2</title>
<path fill="none" stroke="midnightblue" d="M63.5,-123.8C63.5,-114.91 63.5,-104.78 63.5,-97.75"/>
<polygon fill="midnightblue" stroke="midnightblue" points="60,-124.08 63.5,-134.08 67,-124.08 60,-124.08"/>
</g>
<!-- Node4 -->
<g id="node4" class="node">
<title>Node4</title>
<g id="a_node4"><a xlink:href="classCond__lim__base.html" target="_top" xlink:title="classe Cond_lim_base Classe de base pour la hierarchie des classes qui representent les differentes c...">
<polygon fill="white" stroke="black" points="18,-190.5 18,-209.5 109,-209.5 109,-190.5 18,-190.5"/>
<text text-anchor="middle" x="63.5" y="-197.5" font-family="Helvetica,sans-Serif" font-size="10.00">Cond_lim_base</text>
</a>
</g>
</g>
<!-- Node4&#45;&gt;Node3 -->
<g id="edge3" class="edge">
<title>Node4&#45;&gt;Node3</title>
<path fill="none" stroke="midnightblue" d="M63.5,-179.8C63.5,-170.91 63.5,-160.78 63.5,-153.75"/>
<polygon fill="midnightblue" stroke="midnightblue" points="60,-180.08 63.5,-190.08 67,-180.08 60,-180.08"/>
</g>
<!-- Node5 -->
<g id="node5" class="node">
<title>Node5</title>
<g id="a_node5"><a xlink:href="classObjet__U.html" target="_top" xlink:title="classe Objet_U Cette classe est la classe de base des Objets de TRUST Dans les classes derivees de Ob...">
<polygon fill="white" stroke="black" points="35.5,-246.5 35.5,-265.5 91.5,-265.5 91.5,-246.5 35.5,-246.5"/>
<text text-anchor="middle" x="63.5" y="-253.5" font-family="Helvetica,sans-Serif" font-size="10.00">Objet_U</text>
</a>
</g>
</g>
<!-- Node5&#45;&gt;Node4 -->
<g id="edge4" class="edge">
<title>Node5&#45;&gt;Node4</title>
<path fill="none" stroke="midnightblue" d="M63.5,-235.8C63.5,-226.91 63.5,-216.78 63.5,-209.75"/>
<polygon fill="midnightblue" stroke="midnightblue" points="60,-236.08 63.5,-246.08 67,-236.08 60,-236.08"/>
</g>
<!-- Node6 -->
<g id="node6" class="node">
<title>Node6</title>
<g id="a_node6"><a xlink:href="classProcess.html" target="_top" xlink:title="Classe de base de TRUST (notamment Objet_U). Elle fournit quelques services de base accessibles de pa...">
<polygon fill="white" stroke="black" points="36.5,-302.5 36.5,-321.5 90.5,-321.5 90.5,-302.5 36.5,-302.5"/>
<text text-anchor="middle" x="63.5" y="-309.5" font-family="Helvetica,sans-Serif" font-size="10.00">Process</text>
</a>
</g>
</g>
<!-- Node6&#45;&gt;Node5 -->
<g id="edge5" class="edge">
<title>Node6&#45;&gt;Node5</title>
<path fill="none" stroke="midnightblue" d="M63.5,-291.8C63.5,-282.91 63.5,-272.78 63.5,-265.75"/>
<polygon fill="midnightblue" stroke="midnightblue" points="60,-292.08 63.5,-302.08 67,-292.08 60,-292.08"/>
</g>
</g>
</svg>
