<?xml version="1.0" encoding="UTF-8" standalone="no"?>
<!DOCTYPE svg PUBLIC "-//W3C//DTD SVG 1.1//EN"
 "http://www.w3.org/Graphics/SVG/1.1/DTD/svg11.dtd">
<!-- Generated by graphviz version 2.43.0 (0)
 -->
<!-- Title: List_Equations_Scalaires_Passifs_Especes Pages: 1 -->
<svg width="231pt" height="207pt"
 viewBox="0.00 0.00 230.50 207.00" xmlns="http://www.w3.org/2000/svg" xmlns:xlink="http://www.w3.org/1999/xlink">
<g id="graph0" class="graph" transform="scale(1 1) rotate(0) translate(4 203)">
<title>List_Equations_Scalaires_Passifs_Especes</title>
<polygon fill="white" stroke="transparent" points="-4,4 -4,-203 226.5,-203 226.5,4 -4,4"/>
<!-- Node1 -->
<g id="node1" class="node">
<title>Node1</title>
<g id="a_node1"><a xlink:title="classe List_Equations_Scalaires_Passifs_Especes Represente une liste d&#39;equations de scalaires passifs...">
<polygon fill="#bfbfbf" stroke="black" points="66,-0.5 66,-30.5 203,-30.5 203,-0.5 66,-0.5"/>
<text text-anchor="start" x="74" y="-18.5" font-family="Helvetica,sans-Serif" font-size="10.00">List_Equations_Scalaires</text>
<text text-anchor="middle" x="134.5" y="-7.5" font-family="Helvetica,sans-Serif" font-size="10.00">_Passifs_Especes</text>
</a>
</g>
</g>
<!-- Node2 -->
<g id="node2" class="node">
<title>Node2</title>
<g id="a_node2"><a xlink:href="classEquation__base.html" target="_top" xlink:title=" ">
<polygon fill="white" stroke="black" points="90.5,-67.5 90.5,-86.5 178.5,-86.5 178.5,-67.5 90.5,-67.5"/>
<text text-anchor="middle" x="134.5" y="-74.5" font-family="Helvetica,sans-Serif" font-size="10.00">Equation_base</text>
</a>
</g>
</g>
<!-- Node2&#45;&gt;Node1 -->
<g id="edge1" class="edge">
<title>Node2&#45;&gt;Node1</title>
<path fill="none" stroke="midnightblue" d="M134.5,-57.23C134.5,-48.59 134.5,-38.5 134.5,-30.52"/>
<polygon fill="midnightblue" stroke="midnightblue" points="131,-57.48 134.5,-67.48 138,-57.48 131,-57.48"/>
</g>
<!-- Node3 -->
<g id="node3" class="node">
<title>Node3</title>
<g id="a_node3"><a xlink:href="classChamps__compris__interface.html" target="_top" xlink:title="classe Champs_compris_interface Cette classe contient une interface de methodes destinees a gerer les...">
<polygon fill="white" stroke="black" points="0,-123.5 0,-142.5 149,-142.5 149,-123.5 0,-123.5"/>
<text text-anchor="middle" x="74.5" y="-130.5" font-family="Helvetica,sans-Serif" font-size="10.00">Champs_compris_interface</text>
</a>
</g>
</g>
<!-- Node3&#45;&gt;Node2 -->
<g id="edge2" class="edge">
<title>Node3&#45;&gt;Node2</title>
<path fill="none" stroke="midnightblue" d="M91.68,-116.54C102.38,-106.91 115.76,-94.87 124.68,-86.83"/>
<polygon fill="midnightblue" stroke="midnightblue" points="89.23,-114.03 84.14,-123.32 93.91,-119.24 89.23,-114.03"/>
</g>
<!-- Node4 -->
<g id="node4" class="node">
<title>Node4</title>
<g id="a_node4"><a xlink:href="classObjet__U.html" target="_top" xlink:title="classe Objet_U Cette classe est la classe de base des Objets de TRUST Dans les classes derivees de Ob...">
<polygon fill="white" stroke="black" points="166.5,-123.5 166.5,-142.5 222.5,-142.5 222.5,-123.5 166.5,-123.5"/>
<text text-anchor="middle" x="194.5" y="-130.5" font-family="Helvetica,sans-Serif" font-size="10.00">Objet_U</text>
</a>
</g>
</g>
<!-- Node4&#45;&gt;Node2 -->
<g id="edge3" class="edge">
<title>Node4&#45;&gt;Node2</title>
<path fill="none" stroke="midnightblue" d="M177.32,-116.54C166.62,-106.91 153.24,-94.87 144.32,-86.83"/>
<polygon fill="midnightblue" stroke="midnightblue" points="175.09,-119.24 184.86,-123.32 179.77,-114.03 175.09,-119.24"/>
</g>
<!-- Node5 -->
<g id="node5" class="node">
<title>Node5</title>
<g id="a_node5"><a xlink:href="classProcess.html" target="_top" xlink:title="Classe de base de TRUST (notamment Objet_U). Elle fournit quelques services de base accessibles de pa...">
<polygon fill="white" stroke="black" points="167.5,-179.5 167.5,-198.5 221.5,-198.5 221.5,-179.5 167.5,-179.5"/>
<text text-anchor="middle" x="194.5" y="-186.5" font-family="Helvetica,sans-Serif" font-size="10.00">Process</text>
</a>
</g>
</g>
<!-- Node5&#45;&gt;Node4 -->
<g id="edge4" class="edge">
<title>Node5&#45;&gt;Node4</title>
<path fill="none" stroke="midnightblue" d="M194.5,-168.8C194.5,-159.91 194.5,-149.78 194.5,-142.75"/>
<polygon fill="midnightblue" stroke="midnightblue" points="191,-169.08 194.5,-179.08 198,-169.08 191,-169.08"/>
</g>
</g>
</svg>
