<?xml version="1.0" encoding="UTF-8" standalone="no"?>
<!DOCTYPE svg PUBLIC "-//W3C//DTD SVG 1.1//EN"
 "http://www.w3.org/Graphics/SVG/1.1/DTD/svg11.dtd">
<!-- Generated by graphviz version 2.43.0 (0)
 -->
<!-- Title: Op_Dift_standard_VEF_Face_Var Pages: 1 -->
<svg width="434pt" height="498pt"
 viewBox="0.00 0.00 433.50 498.00" xmlns="http://www.w3.org/2000/svg" xmlns:xlink="http://www.w3.org/1999/xlink">
<g id="graph0" class="graph" transform="scale(1 1) rotate(0) translate(4 494)">
<title>Op_Dift_standard_VEF_Face_Var</title>
<polygon fill="white" stroke="transparent" points="-4,4 -4,-494 429.5,-494 429.5,4 -4,4"/>
<!-- Node1 -->
<g id="node1" class="node">
<title>Node1</title>
<g id="a_node1"><a xlink:title="class Op_Dift_standard_VEF_Face_Var">
<polygon fill="#bfbfbf" stroke="black" points="229.5,-0.5 229.5,-30.5 354.5,-30.5 354.5,-0.5 229.5,-0.5"/>
<text text-anchor="start" x="237.5" y="-18.5" font-family="Helvetica,sans-Serif" font-size="10.00">Op_Dift_standard_VEF</text>
<text text-anchor="middle" x="292" y="-7.5" font-family="Helvetica,sans-Serif" font-size="10.00">_Face_Var</text>
</a>
</g>
</g>
<!-- Node2 -->
<g id="node2" class="node">
<title>Node2</title>
<g id="a_node2"><a xlink:href="classOp__Dift__standard__VEF__Face.html" target="_top" xlink:title="class Op_Dift_standard_VEF_Face">
<polygon fill="white" stroke="black" points="216,-67.5 216,-86.5 368,-86.5 368,-67.5 216,-67.5"/>
<text text-anchor="middle" x="292" y="-74.5" font-family="Helvetica,sans-Serif" font-size="10.00">Op_Dift_standard_VEF_Face</text>
</a>
</g>
</g>
<!-- Node2&#45;&gt;Node1 -->
<g id="edge1" class="edge">
<title>Node2&#45;&gt;Node1</title>
<path fill="none" stroke="midnightblue" d="M292,-57.23C292,-48.59 292,-38.5 292,-30.52"/>
<polygon fill="midnightblue" stroke="midnightblue" points="288.5,-57.48 292,-67.48 295.5,-57.48 288.5,-57.48"/>
</g>
<!-- Node3 -->
<g id="node3" class="node">
<title>Node3</title>
<g id="a_node3"><a xlink:href="classOp__Dift__VEF__Face.html" target="_top" xlink:title="class Op_Dift_VEF_Face">
<polygon fill="white" stroke="black" points="240,-123.5 240,-142.5 344,-142.5 344,-123.5 240,-123.5"/>
<text text-anchor="middle" x="292" y="-130.5" font-family="Helvetica,sans-Serif" font-size="10.00">Op_Dift_VEF_Face</text>
</a>
</g>
</g>
<!-- Node3&#45;&gt;Node2 -->
<g id="edge2" class="edge">
<title>Node3&#45;&gt;Node2</title>
<path fill="none" stroke="midnightblue" d="M292,-112.8C292,-103.91 292,-93.78 292,-86.75"/>
<polygon fill="midnightblue" stroke="midnightblue" points="288.5,-113.08 292,-123.08 295.5,-113.08 288.5,-113.08"/>
</g>
<!-- Node4 -->
<g id="node4" class="node">
<title>Node4</title>
<g id="a_node4"><a xlink:href="classOp__Dift__VEF__base.html" target="_top" xlink:title="class Op_Dift_VEF_base">
<polygon fill="white" stroke="black" points="239.5,-179.5 239.5,-198.5 344.5,-198.5 344.5,-179.5 239.5,-179.5"/>
<text text-anchor="middle" x="292" y="-186.5" font-family="Helvetica,sans-Serif" font-size="10.00">Op_Dift_VEF_base</text>
</a>
</g>
</g>
<!-- Node4&#45;&gt;Node3 -->
<g id="edge3" class="edge">
<title>Node4&#45;&gt;Node3</title>
<path fill="none" stroke="midnightblue" d="M292,-168.8C292,-159.91 292,-149.78 292,-142.75"/>
<polygon fill="midnightblue" stroke="midnightblue" points="288.5,-169.08 292,-179.08 295.5,-169.08 288.5,-169.08"/>
</g>
<!-- Node5 -->
<g id="node5" class="node">
<title>Node5</title>
<g id="a_node5"><a xlink:href="classOp__Diff__VEF__base.html" target="_top" xlink:title="class Op_Diff_VEF_base Classe de base des operateurs de convection VEF">
<polygon fill="white" stroke="black" points="171.5,-235.5 171.5,-254.5 276.5,-254.5 276.5,-235.5 171.5,-235.5"/>
<text text-anchor="middle" x="224" y="-242.5" font-family="Helvetica,sans-Serif" font-size="10.00">Op_Diff_VEF_base</text>
</a>
</g>
</g>
<!-- Node5&#45;&gt;Node4 -->
<g id="edge4" class="edge">
<title>Node5&#45;&gt;Node4</title>
<path fill="none" stroke="midnightblue" d="M242.76,-229.1C255,-219.38 270.56,-207.03 280.88,-198.83"/>
<polygon fill="midnightblue" stroke="midnightblue" points="240.58,-226.36 234.93,-235.32 244.93,-231.85 240.58,-226.36"/>
</g>
<!-- Node6 -->
<g id="node6" class="node">
<title>Node6</title>
<g id="a_node6"><a xlink:href="classOperateur__Diff__base.html" target="_top" xlink:title="classe Operateur_Diff_base Cette classe est la base de la hierarchie des operateurs representant un t...">
<polygon fill="white" stroke="black" points="108,-291.5 108,-310.5 224,-310.5 224,-291.5 108,-291.5"/>
<text text-anchor="middle" x="166" y="-298.5" font-family="Helvetica,sans-Serif" font-size="10.00">Operateur_Diff_base</text>
</a>
</g>
</g>
<!-- Node6&#45;&gt;Node5 -->
<g id="edge5" class="edge">
<title>Node6&#45;&gt;Node5</title>
<path fill="none" stroke="midnightblue" d="M182.91,-284.25C193.2,-274.67 205.97,-262.79 214.51,-254.83"/>
<polygon fill="midnightblue" stroke="midnightblue" points="180.25,-281.95 175.32,-291.32 185.02,-287.07 180.25,-281.95"/>
</g>
<!-- Node7 -->
<g id="node7" class="node">
<title>Node7</title>
<g id="a_node7"><a xlink:href="classOperateur__base.html" target="_top" xlink:title="classe Operateur_base Classe est la base de la hierarchie des objets representant un operateur utilis...">
<polygon fill="white" stroke="black" points="54,-353 54,-372 148,-372 148,-353 54,-353"/>
<text text-anchor="middle" x="101" y="-360" font-family="Helvetica,sans-Serif" font-size="10.00">Operateur_base</text>
</a>
</g>
</g>
<!-- Node7&#45;&gt;Node6 -->
<g id="edge6" class="edge">
<title>Node7&#45;&gt;Node6</title>
<path fill="none" stroke="midnightblue" d="M117.77,-346.15C130.16,-334.81 146.58,-319.78 156.7,-310.51"/>
<polygon fill="midnightblue" stroke="midnightblue" points="115.33,-343.64 110.31,-352.98 120.05,-348.8 115.33,-343.64"/>
</g>
<!-- Node8 -->
<g id="node8" class="node">
<title>Node8</title>
<g id="a_node8"><a xlink:href="classObjet__U.html" target="_top" xlink:title="classe Objet_U Cette classe est la classe de base des Objets de TRUST Dans les classes derivees de Ob...">
<polygon fill="white" stroke="black" points="0,-414.5 0,-433.5 56,-433.5 56,-414.5 0,-414.5"/>
<text text-anchor="middle" x="28" y="-421.5" font-family="Helvetica,sans-Serif" font-size="10.00">Objet_U</text>
</a>
</g>
</g>
<!-- Node8&#45;&gt;Node7 -->
<g id="edge7" class="edge">
<title>Node8&#45;&gt;Node7</title>
<path fill="none" stroke="midnightblue" d="M46.44,-407.97C60.4,-396.59 79.08,-381.37 90.56,-372.01"/>
<polygon fill="midnightblue" stroke="midnightblue" points="44,-405.44 38.46,-414.48 48.42,-410.87 44,-405.44"/>
</g>
<!-- Node9 -->
<g id="node9" class="node">
<title>Node9</title>
<g id="a_node9"><a xlink:href="classProcess.html" target="_top" xlink:title="Classe de base de TRUST (notamment Objet_U). Elle fournit quelques services de base accessibles de pa...">
<polygon fill="white" stroke="black" points="1,-470.5 1,-489.5 55,-489.5 55,-470.5 1,-470.5"/>
<text text-anchor="middle" x="28" y="-477.5" font-family="Helvetica,sans-Serif" font-size="10.00">Process</text>
</a>
</g>
</g>
<!-- Node9&#45;&gt;Node8 -->
<g id="edge8" class="edge">
<title>Node9&#45;&gt;Node8</title>
<path fill="none" stroke="midnightblue" d="M28,-459.8C28,-450.91 28,-440.78 28,-433.75"/>
<polygon fill="midnightblue" stroke="midnightblue" points="24.5,-460.08 28,-470.08 31.5,-460.08 24.5,-460.08"/>
</g>
<!-- Node10 -->
<g id="node10" class="node">
<title>Node10</title>
<g id="a_node10"><a xlink:href="classMorEqn.html" target="_top" xlink:title="classe MorEqn Classe qui regroupe les fonctionnalites de liaison avec une Equation....">
<polygon fill="white" stroke="black" points="74.5,-414.5 74.5,-433.5 127.5,-433.5 127.5,-414.5 74.5,-414.5"/>
<text text-anchor="middle" x="101" y="-421.5" font-family="Helvetica,sans-Serif" font-size="10.00">MorEqn</text>
</a>
</g>
</g>
<!-- Node10&#45;&gt;Node7 -->
<g id="edge9" class="edge">
<title>Node10&#45;&gt;Node7</title>
<path fill="none" stroke="midnightblue" d="M101,-404.32C101,-393.5 101,-380.4 101,-372.01"/>
<polygon fill="midnightblue" stroke="midnightblue" points="97.5,-404.48 101,-414.48 104.5,-404.48 97.5,-404.48"/>
</g>
<!-- Node11 -->
<g id="node11" class="node">
<title>Node11</title>
<g id="a_node11"><a xlink:href="classChamps__compris__interface.html" target="_top" xlink:title="classe Champs_compris_interface Cette classe contient une interface de methodes destinees a gerer les...">
<polygon fill="white" stroke="black" points="145.5,-414.5 145.5,-433.5 294.5,-433.5 294.5,-414.5 145.5,-414.5"/>
<text text-anchor="middle" x="220" y="-421.5" font-family="Helvetica,sans-Serif" font-size="10.00">Champs_compris_interface</text>
</a>
</g>
</g>
<!-- Node11&#45;&gt;Node7 -->
<g id="edge10" class="edge">
<title>Node11&#45;&gt;Node7</title>
<path fill="none" stroke="midnightblue" d="M193.73,-409.87C170.67,-398.33 137.8,-381.9 118.02,-372.01"/>
<polygon fill="midnightblue" stroke="midnightblue" points="192.44,-413.13 202.95,-414.48 195.57,-406.87 192.44,-413.13"/>
</g>
<!-- Node12 -->
<g id="node12" class="node">
<title>Node12</title>
<g id="a_node12"><a xlink:href="classSupport__Champ__Masse__Volumique.html" target="_top" xlink:title=" ">
<polygon fill="white" stroke="black" points="166.5,-347.5 166.5,-377.5 297.5,-377.5 297.5,-347.5 166.5,-347.5"/>
<text text-anchor="start" x="174.5" y="-365.5" font-family="Helvetica,sans-Serif" font-size="10.00">Support_Champ_Masse</text>
<text text-anchor="middle" x="232" y="-354.5" font-family="Helvetica,sans-Serif" font-size="10.00">_Volumique</text>
</a>
</g>
</g>
<!-- Node12&#45;&gt;Node6 -->
<g id="edge11" class="edge">
<title>Node12&#45;&gt;Node6</title>
<path fill="none" stroke="midnightblue" d="M208.81,-340.6C197.41,-330.32 184.28,-318.48 175.6,-310.66"/>
<polygon fill="midnightblue" stroke="midnightblue" points="206.59,-343.3 216.36,-347.4 211.28,-338.1 206.59,-343.3"/>
</g>
<!-- Node13 -->
<g id="node13" class="node">
<title>Node13</title>
<g id="a_node13"><a xlink:href="classOp__VEF__Face.html" target="_top" xlink:title=" ">
<polygon fill="white" stroke="black" points="242.5,-291.5 242.5,-310.5 323.5,-310.5 323.5,-291.5 242.5,-291.5"/>
<text text-anchor="middle" x="283" y="-298.5" font-family="Helvetica,sans-Serif" font-size="10.00">Op_VEF_Face</text>
</a>
</g>
</g>
<!-- Node13&#45;&gt;Node5 -->
<g id="edge12" class="edge">
<title>Node13&#45;&gt;Node5</title>
<path fill="none" stroke="midnightblue" d="M266.11,-284.54C255.59,-274.91 242.43,-262.87 233.65,-254.83"/>
<polygon fill="midnightblue" stroke="midnightblue" points="263.78,-287.15 273.52,-291.32 268.51,-281.99 263.78,-287.15"/>
</g>
<!-- Node14 -->
<g id="node14" class="node">
<title>Node14</title>
<g id="a_node14"><a xlink:href="classOp__Diff__Turbulent__base.html" target="_top" xlink:title=": classe Op_Diff_Turbulent_base Classe de base pour les operateurs de diffusion pour un ecoulement tu...">
<polygon fill="white" stroke="black" points="294.5,-235.5 294.5,-254.5 425.5,-254.5 425.5,-235.5 294.5,-235.5"/>
<text text-anchor="middle" x="360" y="-242.5" font-family="Helvetica,sans-Serif" font-size="10.00">Op_Diff_Turbulent_base</text>
</a>
</g>
</g>
<!-- Node14&#45;&gt;Node4 -->
<g id="edge13" class="edge">
<title>Node14&#45;&gt;Node4</title>
<path fill="none" stroke="midnightblue" d="M341.24,-229.1C329,-219.38 313.44,-207.03 303.12,-198.83"/>
<polygon fill="midnightblue" stroke="midnightblue" points="339.07,-231.85 349.07,-235.32 343.42,-226.36 339.07,-231.85"/>
</g>
</g>
</svg>
