<?xml version="1.0" encoding="UTF-8" standalone="no"?>
<!DOCTYPE svg PUBLIC "-//W3C//DTD SVG 1.1//EN"
 "http://www.w3.org/Graphics/SVG/1.1/DTD/svg11.dtd">
<!-- Generated by graphviz version 2.43.0 (0)
 -->
<!-- Title: TRUSTSchema_RK&lt; _ORDRE_ &gt; Pages: 1 -->
<svg width="1081pt" height="433pt"
 viewBox="0.00 0.00 1081.00 432.50" xmlns="http://www.w3.org/2000/svg" xmlns:xlink="http://www.w3.org/1999/xlink">
<g id="graph0" class="graph" transform="scale(1 1) rotate(0) translate(4 428.5)">
<title>TRUSTSchema_RK&lt; _ORDRE_ &gt;</title>
<polygon fill="white" stroke="transparent" points="-4,4 -4,-428.5 1077,-428.5 1077,4 -4,4"/>
<!-- Node1 -->
<g id="node1" class="node">
<title>Node1</title>
<g id="a_node1"><a xlink:title=" ">
<polygon fill="#bfbfbf" stroke="black" points="342,-202 342,-221 516,-221 516,-202 342,-202"/>
<text text-anchor="middle" x="429" y="-209" font-family="Helvetica,sans-Serif" font-size="10.00">TRUSTSchema_RK&lt; _ORDRE_ &gt;</text>
</a>
</g>
</g>
<!-- Node5 -->
<g id="node5" class="node">
<title>Node5</title>
<g id="a_node5"><a xlink:href="classTRUSTSchema__RK.html" target="_top" xlink:title=" ">
<polygon fill="white" stroke="black" points="740.5,-392.5 740.5,-422.5 889.5,-422.5 889.5,-392.5 740.5,-392.5"/>
<text text-anchor="start" x="748.5" y="-410.5" font-family="Helvetica,sans-Serif" font-size="10.00">TRUSTSchema_RK&lt; Ordre</text>
<text text-anchor="middle" x="815" y="-399.5" font-family="Helvetica,sans-Serif" font-size="10.00">_RK::DEUX_WILLIAMSON &gt;</text>
</a>
</g>
</g>
<!-- Node1&#45;&gt;Node5 -->
<g id="edge4" class="edge">
<title>Node1&#45;&gt;Node5</title>
<path fill="none" stroke="orange" stroke-dasharray="5,2" d="M436.47,-231.02C449.1,-265.79 480.6,-337.93 534,-371.5 595.72,-410.3 680.25,-416.16 740.25,-414.27"/>
<polygon fill="orange" stroke="orange" points="439.62,-229.44 433.02,-221.15 433.01,-231.74 439.62,-229.44"/>
<text text-anchor="middle" x="621.5" y="-416.5" font-family="Helvetica,sans-Serif" font-size="10.00"> &lt; Ordre_RK::DEUX_WILLIAMSON &gt;</text>
</g>
<!-- Node7 -->
<g id="node7" class="node">
<title>Node7</title>
<g id="a_node7"><a xlink:href="classTRUSTSchema__RK.html" target="_top" xlink:title=" ">
<polygon fill="white" stroke="black" points="742.5,-343.5 742.5,-373.5 887.5,-373.5 887.5,-343.5 742.5,-343.5"/>
<text text-anchor="start" x="750.5" y="-361.5" font-family="Helvetica,sans-Serif" font-size="10.00">TRUSTSchema_RK&lt; Ordre</text>
<text text-anchor="middle" x="815" y="-350.5" font-family="Helvetica,sans-Serif" font-size="10.00">_RK::DEUX_CLASSIQUE &gt;</text>
</a>
</g>
</g>
<!-- Node1&#45;&gt;Node7 -->
<g id="edge6" class="edge">
<title>Node1&#45;&gt;Node7</title>
<path fill="none" stroke="orange" stroke-dasharray="5,2" d="M441.88,-229.5C459.04,-253.9 493.24,-296.79 534,-317.5 599.26,-350.66 683.41,-359.11 742.35,-360.38"/>
<polygon fill="orange" stroke="orange" points="444.69,-227.42 436.15,-221.14 438.91,-231.37 444.69,-227.42"/>
<text text-anchor="middle" x="621.5" y="-360.5" font-family="Helvetica,sans-Serif" font-size="10.00"> &lt; Ordre_RK::DEUX_CLASSIQUE &gt;</text>
</g>
<!-- Node9 -->
<g id="node9" class="node">
<title>Node9</title>
<g id="a_node9"><a xlink:href="classTRUSTSchema__RK.html" target="_top" xlink:title=" ">
<polygon fill="white" stroke="black" points="740,-294.5 740,-324.5 890,-324.5 890,-294.5 740,-294.5"/>
<text text-anchor="start" x="748" y="-312.5" font-family="Helvetica,sans-Serif" font-size="10.00">TRUSTSchema_RK&lt; Ordre</text>
<text text-anchor="middle" x="815" y="-301.5" font-family="Helvetica,sans-Serif" font-size="10.00">_RK::TROIS_WILLIAMSON &gt;</text>
</a>
</g>
</g>
<!-- Node1&#45;&gt;Node9 -->
<g id="edge8" class="edge">
<title>Node1&#45;&gt;Node9</title>
<path fill="none" stroke="orange" stroke-dasharray="5,2" d="M451.86,-226.85C472.18,-240.31 503.76,-259.3 534,-269.5 601.47,-292.26 682.34,-302.07 739.78,-306.3"/>
<polygon fill="orange" stroke="orange" points="453.61,-223.8 443.37,-221.1 449.69,-229.6 453.61,-223.8"/>
<text text-anchor="middle" x="621.5" y="-305.5" font-family="Helvetica,sans-Serif" font-size="10.00"> &lt; Ordre_RK::TROIS_WILLIAMSON &gt;</text>
</g>
<!-- Node11 -->
<g id="node11" class="node">
<title>Node11</title>
<g id="a_node11"><a xlink:href="classTRUSTSchema__RK.html" target="_top" xlink:title=" ">
<polygon fill="white" stroke="black" points="742.5,-245.5 742.5,-275.5 887.5,-275.5 887.5,-245.5 742.5,-245.5"/>
<text text-anchor="start" x="750.5" y="-263.5" font-family="Helvetica,sans-Serif" font-size="10.00">TRUSTSchema_RK&lt; Ordre</text>
<text text-anchor="middle" x="815" y="-252.5" font-family="Helvetica,sans-Serif" font-size="10.00">_RK::TROIS_CLASSIQUE &gt;</text>
</a>
</g>
</g>
<!-- Node1&#45;&gt;Node11 -->
<g id="edge10" class="edge">
<title>Node1&#45;&gt;Node11</title>
<path fill="none" stroke="orange" stroke-dasharray="5,2" d="M473.81,-223.58C492.26,-228.26 514.05,-233.27 534,-236.5 604.31,-247.9 685.5,-254.1 742.28,-257.33"/>
<polygon fill="orange" stroke="orange" points="474.49,-220.14 463.93,-221.02 472.74,-226.92 474.49,-220.14"/>
<text text-anchor="middle" x="621.5" y="-257.5" font-family="Helvetica,sans-Serif" font-size="10.00"> &lt; Ordre_RK::TROIS_CLASSIQUE &gt;</text>
</g>
<!-- Node13 -->
<g id="node13" class="node">
<title>Node13</title>
<g id="a_node13"><a xlink:href="classTRUSTSchema__RK.html" target="_top" xlink:title=" ">
<polygon fill="white" stroke="black" points="734.5,-196.5 734.5,-226.5 895.5,-226.5 895.5,-196.5 734.5,-196.5"/>
<text text-anchor="start" x="742.5" y="-214.5" font-family="Helvetica,sans-Serif" font-size="10.00">TRUSTSchema_RK&lt; Ordre</text>
<text text-anchor="middle" x="815" y="-203.5" font-family="Helvetica,sans-Serif" font-size="10.00">_RK::QUATRE_WILLIAMSON &gt;</text>
</a>
</g>
</g>
<!-- Node1&#45;&gt;Node13 -->
<g id="edge12" class="edge">
<title>Node1&#45;&gt;Node13</title>
<path fill="none" stroke="orange" stroke-dasharray="5,2" d="M526.31,-211.5C590.51,-211.5 673.88,-211.5 734.33,-211.5"/>
<polygon fill="orange" stroke="orange" points="526.18,-208 516.18,-211.5 526.18,-215 526.18,-208"/>
<text text-anchor="start" x="568.5" y="-225.5" font-family="Helvetica,sans-Serif" font-size="10.00"> &lt; Ordre_RK::QUATRE</text>
<text text-anchor="middle" x="621.5" y="-214.5" font-family="Helvetica,sans-Serif" font-size="10.00">_WILLIAMSON &gt;</text>
</g>
<!-- Node15 -->
<g id="node15" class="node">
<title>Node15</title>
<g id="a_node15"><a xlink:href="classTRUSTSchema__RK.html" target="_top" xlink:title=" ">
<polygon fill="white" stroke="black" points="738.5,-147.5 738.5,-177.5 891.5,-177.5 891.5,-147.5 738.5,-147.5"/>
<text text-anchor="start" x="746.5" y="-165.5" font-family="Helvetica,sans-Serif" font-size="10.00">TRUSTSchema_RK&lt; Ordre</text>
<text text-anchor="middle" x="815" y="-154.5" font-family="Helvetica,sans-Serif" font-size="10.00">_RK::QUATRE_CLASSIQUE &gt;</text>
</a>
</g>
</g>
<!-- Node1&#45;&gt;Node15 -->
<g id="edge14" class="edge">
<title>Node1&#45;&gt;Node15</title>
<path fill="none" stroke="orange" stroke-dasharray="5,2" d="M472.23,-199.28C491,-194.28 513.45,-188.89 534,-185.5 602.7,-174.17 681.84,-168.32 738.43,-165.37"/>
<polygon fill="orange" stroke="orange" points="471.24,-195.92 462.5,-201.92 473.07,-202.68 471.24,-195.92"/>
<text text-anchor="start" x="568.5" y="-199.5" font-family="Helvetica,sans-Serif" font-size="10.00"> &lt; Ordre_RK::QUATRE</text>
<text text-anchor="middle" x="621.5" y="-188.5" font-family="Helvetica,sans-Serif" font-size="10.00">_CLASSIQUE &gt;</text>
</g>
<!-- Node17 -->
<g id="node17" class="node">
<title>Node17</title>
<g id="a_node17"><a xlink:href="classTRUSTSchema__RK.html" target="_top" xlink:title=" ">
<polygon fill="white" stroke="black" points="727,-98.5 727,-128.5 903,-128.5 903,-98.5 727,-98.5"/>
<text text-anchor="start" x="735" y="-116.5" font-family="Helvetica,sans-Serif" font-size="10.00">TRUSTSchema_RK&lt; Ordre</text>
<text text-anchor="middle" x="815" y="-105.5" font-family="Helvetica,sans-Serif" font-size="10.00">_RK::QUATRE_CLASSIQUE_3_8 &gt;</text>
</a>
</g>
</g>
<!-- Node1&#45;&gt;Node17 -->
<g id="edge16" class="edge">
<title>Node1&#45;&gt;Node17</title>
<path fill="none" stroke="orange" stroke-dasharray="5,2" d="M448.03,-195.23C467.63,-178.59 500.65,-153.53 534,-141.5 595.93,-119.17 670.24,-112.59 726.74,-111.37"/>
<polygon fill="orange" stroke="orange" points="445.5,-192.79 440.25,-201.99 450.09,-198.07 445.5,-192.79"/>
<text text-anchor="start" x="568.5" y="-155.5" font-family="Helvetica,sans-Serif" font-size="10.00"> &lt; Ordre_RK::QUATRE</text>
<text text-anchor="middle" x="621.5" y="-144.5" font-family="Helvetica,sans-Serif" font-size="10.00">_CLASSIQUE_3_8 &gt;</text>
</g>
<!-- Node19 -->
<g id="node19" class="node">
<title>Node19</title>
<g id="a_node19"><a xlink:href="classTRUSTSchema__RK.html" target="_top" xlink:title=" ">
<polygon fill="white" stroke="black" points="742.5,-49.5 742.5,-79.5 887.5,-79.5 887.5,-49.5 742.5,-49.5"/>
<text text-anchor="start" x="750.5" y="-67.5" font-family="Helvetica,sans-Serif" font-size="10.00">TRUSTSchema_RK&lt; Ordre</text>
<text text-anchor="middle" x="815" y="-56.5" font-family="Helvetica,sans-Serif" font-size="10.00">_RK::RATIO_DEUX &gt;</text>
</a>
</g>
</g>
<!-- Node1&#45;&gt;Node19 -->
<g id="edge18" class="edge">
<title>Node1&#45;&gt;Node19</title>
<path fill="none" stroke="orange" stroke-dasharray="5,2" d="M440.74,-193.11C457.15,-166.89 491.12,-119.51 534,-97.5 598.99,-64.14 683.37,-58.46 742.45,-59.52"/>
<polygon fill="orange" stroke="orange" points="437.7,-191.36 435.5,-201.72 443.69,-194.99 437.7,-191.36"/>
<text text-anchor="middle" x="621.5" y="-100.5" font-family="Helvetica,sans-Serif" font-size="10.00"> &lt; Ordre_RK::RATIO_DEUX &gt;</text>
</g>
<!-- Node21 -->
<g id="node21" class="node">
<title>Node21</title>
<g id="a_node21"><a xlink:href="classTRUSTSchema__RK.html" target="_top" xlink:title=" ">
<polygon fill="white" stroke="black" points="742.5,-0.5 742.5,-30.5 887.5,-30.5 887.5,-0.5 742.5,-0.5"/>
<text text-anchor="start" x="750.5" y="-18.5" font-family="Helvetica,sans-Serif" font-size="10.00">TRUSTSchema_RK&lt; Ordre</text>
<text text-anchor="middle" x="815" y="-7.5" font-family="Helvetica,sans-Serif" font-size="10.00">_RK::UN &gt;</text>
</a>
</g>
</g>
<!-- Node1&#45;&gt;Node21 -->
<g id="edge20" class="edge">
<title>Node1&#45;&gt;Node21</title>
<path fill="none" stroke="orange" stroke-dasharray="5,2" d="M435.85,-192.12C447.78,-156.29 478.6,-80.15 534,-45.5 596.38,-6.48 682.19,-2.97 742.32,-6.71"/>
<polygon fill="orange" stroke="orange" points="432.45,-191.27 432.74,-201.86 439.11,-193.4 432.45,-191.27"/>
<text text-anchor="middle" x="621.5" y="-48.5" font-family="Helvetica,sans-Serif" font-size="10.00"> &lt; Ordre_RK::UN &gt;</text>
</g>
<!-- Node2 -->
<g id="node2" class="node">
<title>Node2</title>
<g id="a_node2"><a xlink:href="classSchema__Temps__base.html" target="_top" xlink:title="classe Schema_Temps_base">
<polygon fill="white" stroke="black" points="184,-202 184,-221 305,-221 305,-202 184,-202"/>
<text text-anchor="middle" x="244.5" y="-209" font-family="Helvetica,sans-Serif" font-size="10.00">Schema_Temps_base</text>
</a>
</g>
</g>
<!-- Node2&#45;&gt;Node1 -->
<g id="edge1" class="edge">
<title>Node2&#45;&gt;Node1</title>
<path fill="none" stroke="midnightblue" d="M315.09,-211.5C323.81,-211.5 332.81,-211.5 341.75,-211.5"/>
<polygon fill="midnightblue" stroke="midnightblue" points="315,-208 305,-211.5 315,-215 315,-208"/>
</g>
<!-- Node3 -->
<g id="node3" class="node">
<title>Node3</title>
<g id="a_node3"><a xlink:href="classObjet__U.html" target="_top" xlink:title="classe Objet_U Cette classe est la classe de base des Objets de TRUST Dans les classes derivees de Ob...">
<polygon fill="white" stroke="black" points="91,-202 91,-221 147,-221 147,-202 91,-202"/>
<text text-anchor="middle" x="119" y="-209" font-family="Helvetica,sans-Serif" font-size="10.00">Objet_U</text>
</a>
</g>
</g>
<!-- Node3&#45;&gt;Node2 -->
<g id="edge2" class="edge">
<title>Node3&#45;&gt;Node2</title>
<path fill="none" stroke="midnightblue" d="M157.28,-211.5C165.66,-211.5 174.76,-211.5 183.81,-211.5"/>
<polygon fill="midnightblue" stroke="midnightblue" points="157.1,-208 147.1,-211.5 157.1,-215 157.1,-208"/>
</g>
<!-- Node4 -->
<g id="node4" class="node">
<title>Node4</title>
<g id="a_node4"><a xlink:href="classProcess.html" target="_top" xlink:title="Classe de base de TRUST (notamment Objet_U). Elle fournit quelques services de base accessibles de pa...">
<polygon fill="white" stroke="black" points="0,-202 0,-221 54,-221 54,-202 0,-202"/>
<text text-anchor="middle" x="27" y="-209" font-family="Helvetica,sans-Serif" font-size="10.00">Process</text>
</a>
</g>
</g>
<!-- Node4&#45;&gt;Node3 -->
<g id="edge3" class="edge">
<title>Node4&#45;&gt;Node3</title>
<path fill="none" stroke="midnightblue" d="M64.15,-211.5C73.03,-211.5 82.39,-211.5 90.77,-211.5"/>
<polygon fill="midnightblue" stroke="midnightblue" points="64.03,-208 54.03,-211.5 64.03,-215 64.03,-208"/>
</g>
<!-- Node6 -->
<g id="node6" class="node">
<title>Node6</title>
<g id="a_node6"><a xlink:href="classRK2.html" target="_top" xlink:title="!&lt;">
<polygon fill="white" stroke="black" points="988.5,-398 988.5,-417 1024.5,-417 1024.5,-398 988.5,-398"/>
<text text-anchor="middle" x="1006.5" y="-405" font-family="Helvetica,sans-Serif" font-size="10.00">RK2</text>
</a>
</g>
</g>
<!-- Node5&#45;&gt;Node6 -->
<g id="edge5" class="edge">
<title>Node5&#45;&gt;Node6</title>
<path fill="none" stroke="midnightblue" d="M899.76,-407.5C932.93,-407.5 967.93,-407.5 988.19,-407.5"/>
<polygon fill="midnightblue" stroke="midnightblue" points="899.54,-404 889.54,-407.5 899.54,-411 899.54,-404"/>
</g>
<!-- Node8 -->
<g id="node8" class="node">
<title>Node8</title>
<g id="a_node8"><a xlink:href="classRK2__Classique.html" target="_top" xlink:title="!&lt;">
<polygon fill="white" stroke="black" points="962,-349 962,-368 1051,-368 1051,-349 962,-349"/>
<text text-anchor="middle" x="1006.5" y="-356" font-family="Helvetica,sans-Serif" font-size="10.00">RK2_Classique</text>
</a>
</g>
</g>
<!-- Node7&#45;&gt;Node8 -->
<g id="edge7" class="edge">
<title>Node7&#45;&gt;Node8</title>
<path fill="none" stroke="midnightblue" d="M897.68,-358.5C919.73,-358.5 942.73,-358.5 961.8,-358.5"/>
<polygon fill="midnightblue" stroke="midnightblue" points="897.64,-355 887.64,-358.5 897.64,-362 897.64,-355"/>
</g>
<!-- Node10 -->
<g id="node10" class="node">
<title>Node10</title>
<g id="a_node10"><a xlink:href="classRK3.html" target="_top" xlink:title=": classe RK3 Cette classe represente un schema en temps de Runge Kutta d&#39;ordre 3, cas 7 de Williamson...">
<polygon fill="white" stroke="black" points="988.5,-300 988.5,-319 1024.5,-319 1024.5,-300 988.5,-300"/>
<text text-anchor="middle" x="1006.5" y="-307" font-family="Helvetica,sans-Serif" font-size="10.00">RK3</text>
</a>
</g>
</g>
<!-- Node9&#45;&gt;Node10 -->
<g id="edge9" class="edge">
<title>Node9&#45;&gt;Node10</title>
<path fill="none" stroke="midnightblue" d="M900.27,-309.5C933.36,-309.5 968.16,-309.5 988.3,-309.5"/>
<polygon fill="midnightblue" stroke="midnightblue" points="900.08,-306 890.08,-309.5 900.08,-313 900.08,-306"/>
</g>
<!-- Node12 -->
<g id="node12" class="node">
<title>Node12</title>
<g id="a_node12"><a xlink:href="classRK3__Classique.html" target="_top" xlink:title=": classe RK3_Classique Cette classe represente un schema en temps de Runge Kutta d&#39;ordre 3 classique ...">
<polygon fill="white" stroke="black" points="962,-251 962,-270 1051,-270 1051,-251 962,-251"/>
<text text-anchor="middle" x="1006.5" y="-258" font-family="Helvetica,sans-Serif" font-size="10.00">RK3_Classique</text>
</a>
</g>
</g>
<!-- Node11&#45;&gt;Node12 -->
<g id="edge11" class="edge">
<title>Node11&#45;&gt;Node12</title>
<path fill="none" stroke="midnightblue" d="M897.68,-260.5C919.73,-260.5 942.73,-260.5 961.8,-260.5"/>
<polygon fill="midnightblue" stroke="midnightblue" points="897.64,-257 887.64,-260.5 897.64,-264 897.64,-257"/>
</g>
<!-- Node14 -->
<g id="node14" class="node">
<title>Node14</title>
<g id="a_node14"><a xlink:href="classRK4.html" target="_top" xlink:title=": classe RK4 Cette classe represente un schema en temps de Runge Kutta d&#39;ordre 4 degnere (schema a tr...">
<polygon fill="white" stroke="black" points="988.5,-202 988.5,-221 1024.5,-221 1024.5,-202 988.5,-202"/>
<text text-anchor="middle" x="1006.5" y="-209" font-family="Helvetica,sans-Serif" font-size="10.00">RK4</text>
</a>
</g>
</g>
<!-- Node13&#45;&gt;Node14 -->
<g id="edge13" class="edge">
<title>Node13&#45;&gt;Node14</title>
<path fill="none" stroke="midnightblue" d="M905.69,-211.5C937.09,-211.5 969.23,-211.5 988.27,-211.5"/>
<polygon fill="midnightblue" stroke="midnightblue" points="905.54,-208 895.54,-211.5 905.54,-215 905.54,-208"/>
</g>
<!-- Node16 -->
<g id="node16" class="node">
<title>Node16</title>
<g id="a_node16"><a xlink:href="classRK4__Classique.html" target="_top" xlink:title=": classe RK4_Classique Cette classe represente un schema en temps de Runge Kutta d&#39;ordre 3 classique ...">
<polygon fill="white" stroke="black" points="962,-153 962,-172 1051,-172 1051,-153 962,-153"/>
<text text-anchor="middle" x="1006.5" y="-160" font-family="Helvetica,sans-Serif" font-size="10.00">RK4_Classique</text>
</a>
</g>
</g>
<!-- Node15&#45;&gt;Node16 -->
<g id="edge15" class="edge">
<title>Node15&#45;&gt;Node16</title>
<path fill="none" stroke="midnightblue" d="M901.84,-162.5C922.6,-162.5 943.94,-162.5 961.82,-162.5"/>
<polygon fill="midnightblue" stroke="midnightblue" points="901.71,-159 891.71,-162.5 901.71,-166 901.71,-159"/>
</g>
<!-- Node18 -->
<g id="node18" class="node">
<title>Node18</title>
<g id="a_node18"><a xlink:href="classRK4__Classique__3__8.html" target="_top" xlink:title=": classe RK4_Classique_3_8 Cette classe represente un schema en temps de Runge Kutta d&#39;ordre 3 classi...">
<polygon fill="white" stroke="black" points="951,-104 951,-123 1062,-123 1062,-104 951,-104"/>
<text text-anchor="middle" x="1006.5" y="-111" font-family="Helvetica,sans-Serif" font-size="10.00">RK4_Classique_3_8</text>
</a>
</g>
</g>
<!-- Node17&#45;&gt;Node18 -->
<g id="edge17" class="edge">
<title>Node17&#45;&gt;Node18</title>
<path fill="none" stroke="midnightblue" d="M913.55,-113.5C926.38,-113.5 939.14,-113.5 950.89,-113.5"/>
<polygon fill="midnightblue" stroke="midnightblue" points="913.26,-110 903.26,-113.5 913.26,-117 913.26,-110"/>
</g>
<!-- Node20 -->
<g id="node20" class="node">
<title>Node20</title>
<g id="a_node20"><a xlink:href="classRRK2.html" target="_top" xlink:title="!&lt;">
<polygon fill="white" stroke="black" points="985,-55 985,-74 1028,-74 1028,-55 985,-55"/>
<text text-anchor="middle" x="1006.5" y="-62" font-family="Helvetica,sans-Serif" font-size="10.00">RRK2</text>
</a>
</g>
</g>
<!-- Node19&#45;&gt;Node20 -->
<g id="edge19" class="edge">
<title>Node19&#45;&gt;Node20</title>
<path fill="none" stroke="midnightblue" d="M897.94,-64.5C929.95,-64.5 963.94,-64.5 984.94,-64.5"/>
<polygon fill="midnightblue" stroke="midnightblue" points="897.64,-61 887.64,-64.5 897.64,-68 897.64,-61"/>
</g>
<!-- Node22 -->
<g id="node22" class="node">
<title>Node22</title>
<g id="a_node22"><a xlink:href="classSchema__Euler__explicite.html" target="_top" xlink:title=": classe Schema_Euler_explicite Cette classe represente un schema en temps d&#39;Euler explicite: U(n+1) ...">
<polygon fill="white" stroke="black" points="940,-6 940,-25 1073,-25 1073,-6 940,-6"/>
<text text-anchor="middle" x="1006.5" y="-13" font-family="Helvetica,sans-Serif" font-size="10.00">Schema_Euler_explicite</text>
</a>
</g>
</g>
<!-- Node21&#45;&gt;Node22 -->
<g id="edge21" class="edge">
<title>Node21&#45;&gt;Node22</title>
<path fill="none" stroke="midnightblue" d="M897.82,-15.5C911.91,-15.5 926.4,-15.5 939.99,-15.5"/>
<polygon fill="midnightblue" stroke="midnightblue" points="897.64,-12 887.64,-15.5 897.64,-19 897.64,-12"/>
</g>
</g>
</svg>
