<?xml version="1.0" encoding="UTF-8" standalone="no"?>
<!DOCTYPE svg PUBLIC "-//W3C//DTD SVG 1.1//EN"
 "http://www.w3.org/Graphics/SVG/1.1/DTD/svg11.dtd">
<!-- Generated by graphviz version 2.43.0 (0)
 -->
<!-- Title: Rectangle_2D_axi Pages: 1 -->
<svg width="112pt" height="252pt"
 viewBox="0.00 0.00 112.00 252.00" xmlns="http://www.w3.org/2000/svg" xmlns:xlink="http://www.w3.org/1999/xlink">
<g id="graph0" class="graph" transform="scale(1 1) rotate(0) translate(4 248)">
<title>Rectangle_2D_axi</title>
<polygon fill="white" stroke="transparent" points="-4,4 -4,-248 108,-248 108,4 -4,4"/>
<!-- Node1 -->
<g id="node1" class="node">
<title>Node1</title>
<g id="a_node1"><a xlink:title="Classe Rectangle_axi Cette classe represente la deformee du rectangle dans le cas d&#39;un maillage en co...">
<polygon fill="#bfbfbf" stroke="black" points="0,-0.5 0,-19.5 104,-19.5 104,-0.5 0,-0.5"/>
<text text-anchor="middle" x="52" y="-7.5" font-family="Helvetica,sans-Serif" font-size="10.00">Rectangle_2D_axi</text>
</a>
</g>
</g>
<!-- Node2 -->
<g id="node2" class="node">
<title>Node2</title>
<g id="a_node2"><a xlink:href="classRectangle.html" target="_top" xlink:title="Classe Rectangle Cette classe represente l&#39;element geometrique Rectangle. Un rectangle a 4 faces,...">
<polygon fill="white" stroke="black" points="19.5,-56.5 19.5,-75.5 84.5,-75.5 84.5,-56.5 19.5,-56.5"/>
<text text-anchor="middle" x="52" y="-63.5" font-family="Helvetica,sans-Serif" font-size="10.00">Rectangle</text>
</a>
</g>
</g>
<!-- Node2&#45;&gt;Node1 -->
<g id="edge1" class="edge">
<title>Node2&#45;&gt;Node1</title>
<path fill="none" stroke="midnightblue" d="M52,-45.8C52,-36.91 52,-26.78 52,-19.75"/>
<polygon fill="midnightblue" stroke="midnightblue" points="48.5,-46.08 52,-56.08 55.5,-46.08 48.5,-46.08"/>
</g>
<!-- Node3 -->
<g id="node3" class="node">
<title>Node3</title>
<g id="a_node3"><a xlink:href="classElem__geom__base.html" target="_top" xlink:title="Classe Elem_geom_base Cette classe est la classe de base pour la definition d&#39;elements geometriques c...">
<polygon fill="white" stroke="black" points="0.5,-112.5 0.5,-131.5 103.5,-131.5 103.5,-112.5 0.5,-112.5"/>
<text text-anchor="middle" x="52" y="-119.5" font-family="Helvetica,sans-Serif" font-size="10.00">Elem_geom_base</text>
</a>
</g>
</g>
<!-- Node3&#45;&gt;Node2 -->
<g id="edge2" class="edge">
<title>Node3&#45;&gt;Node2</title>
<path fill="none" stroke="midnightblue" d="M52,-101.8C52,-92.91 52,-82.78 52,-75.75"/>
<polygon fill="midnightblue" stroke="midnightblue" points="48.5,-102.08 52,-112.08 55.5,-102.08 48.5,-102.08"/>
</g>
<!-- Node4 -->
<g id="node4" class="node">
<title>Node4</title>
<g id="a_node4"><a xlink:href="classObjet__U.html" target="_top" xlink:title="classe Objet_U Cette classe est la classe de base des Objets de TRUST Dans les classes derivees de Ob...">
<polygon fill="white" stroke="black" points="24,-168.5 24,-187.5 80,-187.5 80,-168.5 24,-168.5"/>
<text text-anchor="middle" x="52" y="-175.5" font-family="Helvetica,sans-Serif" font-size="10.00">Objet_U</text>
</a>
</g>
</g>
<!-- Node4&#45;&gt;Node3 -->
<g id="edge3" class="edge">
<title>Node4&#45;&gt;Node3</title>
<path fill="none" stroke="midnightblue" d="M52,-157.8C52,-148.91 52,-138.78 52,-131.75"/>
<polygon fill="midnightblue" stroke="midnightblue" points="48.5,-158.08 52,-168.08 55.5,-158.08 48.5,-158.08"/>
</g>
<!-- Node5 -->
<g id="node5" class="node">
<title>Node5</title>
<g id="a_node5"><a xlink:href="classProcess.html" target="_top" xlink:title="Classe de base de TRUST (notamment Objet_U). Elle fournit quelques services de base accessibles de pa...">
<polygon fill="white" stroke="black" points="25,-224.5 25,-243.5 79,-243.5 79,-224.5 25,-224.5"/>
<text text-anchor="middle" x="52" y="-231.5" font-family="Helvetica,sans-Serif" font-size="10.00">Process</text>
</a>
</g>
</g>
<!-- Node5&#45;&gt;Node4 -->
<g id="edge4" class="edge">
<title>Node5&#45;&gt;Node4</title>
<path fill="none" stroke="midnightblue" d="M52,-213.8C52,-204.91 52,-194.78 52,-187.75"/>
<polygon fill="midnightblue" stroke="midnightblue" points="48.5,-214.08 52,-224.08 55.5,-214.08 48.5,-214.08"/>
</g>
</g>
</svg>
