<?xml version="1.0" encoding="UTF-8" standalone="no"?>
<!DOCTYPE svg PUBLIC "-//W3C//DTD SVG 1.1//EN"
 "http://www.w3.org/Graphics/SVG/1.1/DTD/svg11.dtd">
<!-- Generated by graphviz version 2.43.0 (0)
 -->
<!-- Title: Multi_Sch_ThHyd Pages: 1 -->
<svg width="129pt" height="196pt"
 viewBox="0.00 0.00 129.00 196.00" xmlns="http://www.w3.org/2000/svg" xmlns:xlink="http://www.w3.org/1999/xlink">
<g id="graph0" class="graph" transform="scale(1 1) rotate(0) translate(4 192)">
<title>Multi_Sch_ThHyd</title>
<polygon fill="white" stroke="transparent" points="-4,4 -4,-192 125,-192 125,4 -4,4"/>
<!-- Node1 -->
<g id="node1" class="node">
<title>Node1</title>
<g id="a_node1"><a xlink:title="classe Multi_Sch_ThHyd">
<polygon fill="#bfbfbf" stroke="black" points="10,-0.5 10,-19.5 111,-19.5 111,-0.5 10,-0.5"/>
<text text-anchor="middle" x="60.5" y="-7.5" font-family="Helvetica,sans-Serif" font-size="10.00">Multi_Sch_ThHyd</text>
</a>
</g>
</g>
<!-- Node2 -->
<g id="node2" class="node">
<title>Node2</title>
<g id="a_node2"><a xlink:href="classSchema__Temps__base.html" target="_top" xlink:title="classe Schema_Temps_base">
<polygon fill="white" stroke="black" points="0,-56.5 0,-75.5 121,-75.5 121,-56.5 0,-56.5"/>
<text text-anchor="middle" x="60.5" y="-63.5" font-family="Helvetica,sans-Serif" font-size="10.00">Schema_Temps_base</text>
</a>
</g>
</g>
<!-- Node2&#45;&gt;Node1 -->
<g id="edge1" class="edge">
<title>Node2&#45;&gt;Node1</title>
<path fill="none" stroke="midnightblue" d="M60.5,-45.8C60.5,-36.91 60.5,-26.78 60.5,-19.75"/>
<polygon fill="midnightblue" stroke="midnightblue" points="57,-46.08 60.5,-56.08 64,-46.08 57,-46.08"/>
</g>
<!-- Node3 -->
<g id="node3" class="node">
<title>Node3</title>
<g id="a_node3"><a xlink:href="classObjet__U.html" target="_top" xlink:title="classe Objet_U Cette classe est la classe de base des Objets de TRUST Dans les classes derivees de Ob...">
<polygon fill="white" stroke="black" points="32.5,-112.5 32.5,-131.5 88.5,-131.5 88.5,-112.5 32.5,-112.5"/>
<text text-anchor="middle" x="60.5" y="-119.5" font-family="Helvetica,sans-Serif" font-size="10.00">Objet_U</text>
</a>
</g>
</g>
<!-- Node3&#45;&gt;Node2 -->
<g id="edge2" class="edge">
<title>Node3&#45;&gt;Node2</title>
<path fill="none" stroke="midnightblue" d="M60.5,-101.8C60.5,-92.91 60.5,-82.78 60.5,-75.75"/>
<polygon fill="midnightblue" stroke="midnightblue" points="57,-102.08 60.5,-112.08 64,-102.08 57,-102.08"/>
</g>
<!-- Node4 -->
<g id="node4" class="node">
<title>Node4</title>
<g id="a_node4"><a xlink:href="classProcess.html" target="_top" xlink:title="Classe de base de TRUST (notamment Objet_U). Elle fournit quelques services de base accessibles de pa...">
<polygon fill="white" stroke="black" points="33.5,-168.5 33.5,-187.5 87.5,-187.5 87.5,-168.5 33.5,-168.5"/>
<text text-anchor="middle" x="60.5" y="-175.5" font-family="Helvetica,sans-Serif" font-size="10.00">Process</text>
</a>
</g>
</g>
<!-- Node4&#45;&gt;Node3 -->
<g id="edge3" class="edge">
<title>Node4&#45;&gt;Node3</title>
<path fill="none" stroke="midnightblue" d="M60.5,-157.8C60.5,-148.91 60.5,-138.78 60.5,-131.75"/>
<polygon fill="midnightblue" stroke="midnightblue" points="57,-158.08 60.5,-168.08 64,-158.08 57,-158.08"/>
</g>
</g>
</svg>
