<?xml version="1.0" encoding="UTF-8" standalone="no"?>
<!DOCTYPE svg PUBLIC "-//W3C//DTD SVG 1.1//EN"
 "http://www.w3.org/Graphics/SVG/1.1/DTD/svg11.dtd">
<!-- Generated by graphviz version 2.43.0 (0)
 -->
<!-- Title: Interpolation_IBM_base Pages: 1 -->
<svg width="675pt" height="127pt"
 viewBox="0.00 0.00 675.00 126.50" xmlns="http://www.w3.org/2000/svg" xmlns:xlink="http://www.w3.org/1999/xlink">
<g id="graph0" class="graph" transform="scale(1 1) rotate(0) translate(4 122.5)">
<title>Interpolation_IBM_base</title>
<polygon fill="white" stroke="transparent" points="-4,4 -4,-122.5 671,-122.5 671,4 -4,4"/>
<!-- Node1 -->
<g id="node1" class="node">
<title>Node1</title>
<g id="a_node1"><a xlink:title=": class Interpolation_IBM_base &lt;Description of class Interpolation_IBM_base&gt;">
<polygon fill="#bfbfbf" stroke="black" points="182,-55 182,-74 313,-74 313,-55 182,-55"/>
<text text-anchor="middle" x="247.5" y="-62" font-family="Helvetica,sans-Serif" font-size="10.00">Interpolation_IBM_base</text>
</a>
</g>
</g>
<!-- Node4 -->
<g id="node4" class="node">
<title>Node4</title>
<g id="a_node4"><a xlink:href="classInterpolation__IBM__aucune.html" target="_top" xlink:title=": class Interpolation_IBM_aucune &lt;Description of class Interpolation_IBM_aucune&gt;">
<polygon fill="white" stroke="black" points="349,-99 349,-118 492,-118 492,-99 349,-99"/>
<text text-anchor="middle" x="420.5" y="-106" font-family="Helvetica,sans-Serif" font-size="10.00">Interpolation_IBM_aucune</text>
</a>
</g>
</g>
<!-- Node1&#45;&gt;Node4 -->
<g id="edge3" class="edge">
<title>Node1&#45;&gt;Node4</title>
<path fill="none" stroke="midnightblue" d="M295.38,-76.56C322.8,-83.62 356.94,-92.4 382.47,-98.97"/>
<polygon fill="midnightblue" stroke="midnightblue" points="296.16,-73.15 285.6,-74.05 294.42,-79.93 296.16,-73.15"/>
</g>
<!-- Node5 -->
<g id="node5" class="node">
<title>Node5</title>
<g id="a_node5"><a xlink:href="classInterpolation__IBM__elem__fluid.html" target="_top" xlink:title=": class Interpolation_IBM_elem_fluid &lt;Description of class Interpolation_IBM_elem_fluid&gt;">
<polygon fill="white" stroke="black" points="354,-49.5 354,-79.5 487,-79.5 487,-49.5 354,-49.5"/>
<text text-anchor="start" x="362" y="-67.5" font-family="Helvetica,sans-Serif" font-size="10.00">Interpolation_IBM_elem</text>
<text text-anchor="middle" x="420.5" y="-56.5" font-family="Helvetica,sans-Serif" font-size="10.00">_fluid</text>
</a>
</g>
</g>
<!-- Node1&#45;&gt;Node5 -->
<g id="edge4" class="edge">
<title>Node1&#45;&gt;Node5</title>
<path fill="none" stroke="midnightblue" d="M323.26,-64.5C333.47,-64.5 343.88,-64.5 353.91,-64.5"/>
<polygon fill="midnightblue" stroke="midnightblue" points="323.15,-61 313.15,-64.5 323.15,-68 323.15,-61"/>
</g>
<!-- Node8 -->
<g id="node8" class="node">
<title>Node8</title>
<g id="a_node8"><a xlink:href="classInterpolation__IBM__mean__gradient.html" target="_top" xlink:title=": class Interpolation_IBM_mean_gradient &lt;Description of class Interpolation_IBM_mean_gradient&gt;">
<polygon fill="white" stroke="black" points="352.5,-0.5 352.5,-30.5 488.5,-30.5 488.5,-0.5 352.5,-0.5"/>
<text text-anchor="start" x="360.5" y="-18.5" font-family="Helvetica,sans-Serif" font-size="10.00">Interpolation_IBM_mean</text>
<text text-anchor="middle" x="420.5" y="-7.5" font-family="Helvetica,sans-Serif" font-size="10.00">_gradient</text>
</a>
</g>
</g>
<!-- Node1&#45;&gt;Node8 -->
<g id="edge7" class="edge">
<title>Node1&#45;&gt;Node8</title>
<path fill="none" stroke="midnightblue" d="M291.65,-52.13C314.55,-45.57 342.87,-37.46 367.02,-30.54"/>
<polygon fill="midnightblue" stroke="midnightblue" points="290.53,-48.82 281.88,-54.94 292.45,-55.55 290.53,-48.82"/>
</g>
<!-- Node2 -->
<g id="node2" class="node">
<title>Node2</title>
<g id="a_node2"><a xlink:href="classObjet__U.html" target="_top" xlink:title="classe Objet_U Cette classe est la classe de base des Objets de TRUST Dans les classes derivees de Ob...">
<polygon fill="white" stroke="black" points="90,-55 90,-74 146,-74 146,-55 90,-55"/>
<text text-anchor="middle" x="118" y="-62" font-family="Helvetica,sans-Serif" font-size="10.00">Objet_U</text>
</a>
</g>
</g>
<!-- Node2&#45;&gt;Node1 -->
<g id="edge1" class="edge">
<title>Node2&#45;&gt;Node1</title>
<path fill="none" stroke="midnightblue" d="M156.24,-64.5C164.35,-64.5 173.16,-64.5 181.99,-64.5"/>
<polygon fill="midnightblue" stroke="midnightblue" points="156.04,-61 146.04,-64.5 156.04,-68 156.04,-61"/>
</g>
<!-- Node3 -->
<g id="node3" class="node">
<title>Node3</title>
<g id="a_node3"><a xlink:href="classProcess.html" target="_top" xlink:title="Classe de base de TRUST (notamment Objet_U). Elle fournit quelques services de base accessibles de pa...">
<polygon fill="white" stroke="black" points="0,-55 0,-74 54,-74 54,-55 0,-55"/>
<text text-anchor="middle" x="27" y="-62" font-family="Helvetica,sans-Serif" font-size="10.00">Process</text>
</a>
</g>
</g>
<!-- Node3&#45;&gt;Node2 -->
<g id="edge2" class="edge">
<title>Node3&#45;&gt;Node2</title>
<path fill="none" stroke="midnightblue" d="M64.29,-64.5C72.79,-64.5 81.7,-64.5 89.73,-64.5"/>
<polygon fill="midnightblue" stroke="midnightblue" points="64.22,-61 54.22,-64.5 64.22,-68 64.22,-61"/>
</g>
<!-- Node6 -->
<g id="node6" class="node">
<title>Node6</title>
<g id="a_node6"><a xlink:href="classInterpolation__IBM__hybrid.html" target="_top" xlink:title=": class Interpolation_IBM_hybrid &lt;Description of class Interpolation_IBM_hybrid&gt;">
<polygon fill="white" stroke="black" points="528,-77 528,-96 667,-96 667,-77 528,-77"/>
<text text-anchor="middle" x="597.5" y="-84" font-family="Helvetica,sans-Serif" font-size="10.00">Interpolation_IBM_hybrid</text>
</a>
</g>
</g>
<!-- Node5&#45;&gt;Node6 -->
<g id="edge5" class="edge">
<title>Node5&#45;&gt;Node6</title>
<path fill="none" stroke="midnightblue" d="M497.24,-74.02C507.41,-75.3 517.8,-76.61 527.84,-77.87"/>
<polygon fill="midnightblue" stroke="midnightblue" points="497.52,-70.53 487.16,-72.75 496.65,-77.47 497.52,-70.53"/>
</g>
<!-- Node7 -->
<g id="node7" class="node">
<title>Node7</title>
<g id="a_node7"><a xlink:href="classInterpolation__IBM__power__law__tbl.html" target="_top" xlink:title=": class Interpolation_IBM_power_law_tbl &lt;Description of class Interpolation_IBM_power_law_tbl&gt;">
<polygon fill="white" stroke="black" points="528.5,-27.5 528.5,-57.5 666.5,-57.5 666.5,-27.5 528.5,-27.5"/>
<text text-anchor="start" x="536.5" y="-45.5" font-family="Helvetica,sans-Serif" font-size="10.00">Interpolation_IBM_power</text>
<text text-anchor="middle" x="597.5" y="-34.5" font-family="Helvetica,sans-Serif" font-size="10.00">_law_tbl</text>
</a>
</g>
</g>
<!-- Node5&#45;&gt;Node7 -->
<g id="edge6" class="edge">
<title>Node5&#45;&gt;Node7</title>
<path fill="none" stroke="midnightblue" d="M497.39,-54.96C507.71,-53.66 518.25,-52.34 528.43,-51.06"/>
<polygon fill="midnightblue" stroke="midnightblue" points="496.65,-51.53 487.16,-56.25 497.52,-58.47 496.65,-51.53"/>
</g>
</g>
</svg>
