<?xml version="1.0" encoding="UTF-8" standalone="no"?>
<!DOCTYPE svg PUBLIC "-//W3C//DTD SVG 1.1//EN"
 "http://www.w3.org/Graphics/SVG/1.1/DTD/svg11.dtd">
<!-- Generated by graphviz version 2.43.0 (0)
 -->
<!-- Title: EOS_Tools_base Pages: 1 -->
<svg width="208pt" height="196pt"
 viewBox="0.00 0.00 208.00 196.00" xmlns="http://www.w3.org/2000/svg" xmlns:xlink="http://www.w3.org/1999/xlink">
<g id="graph0" class="graph" transform="scale(1 1) rotate(0) translate(4 192)">
<title>EOS_Tools_base</title>
<polygon fill="white" stroke="transparent" points="-4,4 -4,-192 204,-192 204,4 -4,4"/>
<!-- Node1 -->
<g id="node1" class="node">
<title>Node1</title>
<g id="a_node1"><a xlink:title="classe Abstraite EOS_Tools_base">
<polygon fill="#bfbfbf" stroke="black" points="52.5,-56.5 52.5,-75.5 147.5,-75.5 147.5,-56.5 52.5,-56.5"/>
<text text-anchor="middle" x="100" y="-63.5" font-family="Helvetica,sans-Serif" font-size="10.00">EOS_Tools_base</text>
</a>
</g>
</g>
<!-- Node4 -->
<g id="node4" class="node">
<title>Node4</title>
<g id="a_node4"><a xlink:href="classEOS__Tools__VDF.html" target="_top" xlink:title="classe EOS_Tools_VDF Cette classe et specifique a discretisation de type VDF.">
<polygon fill="white" stroke="black" points="0,-0.5 0,-19.5 92,-19.5 92,-0.5 0,-0.5"/>
<text text-anchor="middle" x="46" y="-7.5" font-family="Helvetica,sans-Serif" font-size="10.00">EOS_Tools_VDF</text>
</a>
</g>
</g>
<!-- Node1&#45;&gt;Node4 -->
<g id="edge3" class="edge">
<title>Node1&#45;&gt;Node4</title>
<path fill="none" stroke="midnightblue" d="M84,-49C74.43,-39.43 62.64,-27.64 54.75,-19.75"/>
<polygon fill="midnightblue" stroke="midnightblue" points="81.54,-51.49 91.08,-56.08 86.49,-46.54 81.54,-51.49"/>
</g>
<!-- Node5 -->
<g id="node5" class="node">
<title>Node5</title>
<g id="a_node5"><a xlink:href="classEOS__Tools__VEF.html" target="_top" xlink:title="classe EOS_Tools_VEF Cette classe et specifique a discretisation de type VEF.">
<polygon fill="white" stroke="black" points="110,-0.5 110,-19.5 200,-19.5 200,-0.5 110,-0.5"/>
<text text-anchor="middle" x="155" y="-7.5" font-family="Helvetica,sans-Serif" font-size="10.00">EOS_Tools_VEF</text>
</a>
</g>
</g>
<!-- Node1&#45;&gt;Node5 -->
<g id="edge4" class="edge">
<title>Node1&#45;&gt;Node5</title>
<path fill="none" stroke="midnightblue" d="M116.29,-49C126.04,-39.43 138.05,-27.64 146.09,-19.75"/>
<polygon fill="midnightblue" stroke="midnightblue" points="113.77,-46.58 109.08,-56.08 118.67,-51.57 113.77,-46.58"/>
</g>
<!-- Node2 -->
<g id="node2" class="node">
<title>Node2</title>
<g id="a_node2"><a xlink:href="classObjet__U.html" target="_top" xlink:title="classe Objet_U Cette classe est la classe de base des Objets de TRUST Dans les classes derivees de Ob...">
<polygon fill="white" stroke="black" points="72,-112.5 72,-131.5 128,-131.5 128,-112.5 72,-112.5"/>
<text text-anchor="middle" x="100" y="-119.5" font-family="Helvetica,sans-Serif" font-size="10.00">Objet_U</text>
</a>
</g>
</g>
<!-- Node2&#45;&gt;Node1 -->
<g id="edge1" class="edge">
<title>Node2&#45;&gt;Node1</title>
<path fill="none" stroke="midnightblue" d="M100,-101.8C100,-92.91 100,-82.78 100,-75.75"/>
<polygon fill="midnightblue" stroke="midnightblue" points="96.5,-102.08 100,-112.08 103.5,-102.08 96.5,-102.08"/>
</g>
<!-- Node3 -->
<g id="node3" class="node">
<title>Node3</title>
<g id="a_node3"><a xlink:href="classProcess.html" target="_top" xlink:title="Classe de base de TRUST (notamment Objet_U). Elle fournit quelques services de base accessibles de pa...">
<polygon fill="white" stroke="black" points="73,-168.5 73,-187.5 127,-187.5 127,-168.5 73,-168.5"/>
<text text-anchor="middle" x="100" y="-175.5" font-family="Helvetica,sans-Serif" font-size="10.00">Process</text>
</a>
</g>
</g>
<!-- Node3&#45;&gt;Node2 -->
<g id="edge2" class="edge">
<title>Node3&#45;&gt;Node2</title>
<path fill="none" stroke="midnightblue" d="M100,-157.8C100,-148.91 100,-138.78 100,-131.75"/>
<polygon fill="midnightblue" stroke="midnightblue" points="96.5,-158.08 100,-168.08 103.5,-158.08 96.5,-158.08"/>
</g>
</g>
</svg>
