<?xml version="1.0" encoding="UTF-8" standalone="no"?>
<!DOCTYPE svg PUBLIC "-//W3C//DTD SVG 1.1//EN"
 "http://www.w3.org/Graphics/SVG/1.1/DTD/svg11.dtd">
<!-- Generated by graphviz version 2.43.0 (0)
 -->
<!-- Title: Hexaedre_VEF Pages: 1 -->
<svg width="111pt" height="196pt"
 viewBox="0.00 0.00 111.00 196.00" xmlns="http://www.w3.org/2000/svg" xmlns:xlink="http://www.w3.org/1999/xlink">
<g id="graph0" class="graph" transform="scale(1 1) rotate(0) translate(4 192)">
<title>Hexaedre_VEF</title>
<polygon fill="white" stroke="transparent" points="-4,4 -4,-192 107,-192 107,4 -4,4"/>
<!-- Node1 -->
<g id="node1" class="node">
<title>Node1</title>
<g id="a_node1"><a xlink:title="Classe Hexaedre_VEF Cette classe represente l&#39;element geometrique Hexaedre_VEF. Un Hexaedre_VEF est u...">
<polygon fill="#bfbfbf" stroke="black" points="7.5,-0.5 7.5,-19.5 95.5,-19.5 95.5,-0.5 7.5,-0.5"/>
<text text-anchor="middle" x="51.5" y="-7.5" font-family="Helvetica,sans-Serif" font-size="10.00">Hexaedre_VEF</text>
</a>
</g>
</g>
<!-- Node2 -->
<g id="node2" class="node">
<title>Node2</title>
<g id="a_node2"><a xlink:href="classElem__geom__base.html" target="_top" xlink:title="Classe Elem_geom_base Cette classe est la classe de base pour la definition d&#39;elements geometriques c...">
<polygon fill="white" stroke="black" points="0,-56.5 0,-75.5 103,-75.5 103,-56.5 0,-56.5"/>
<text text-anchor="middle" x="51.5" y="-63.5" font-family="Helvetica,sans-Serif" font-size="10.00">Elem_geom_base</text>
</a>
</g>
</g>
<!-- Node2&#45;&gt;Node1 -->
<g id="edge1" class="edge">
<title>Node2&#45;&gt;Node1</title>
<path fill="none" stroke="midnightblue" d="M51.5,-45.8C51.5,-36.91 51.5,-26.78 51.5,-19.75"/>
<polygon fill="midnightblue" stroke="midnightblue" points="48,-46.08 51.5,-56.08 55,-46.08 48,-46.08"/>
</g>
<!-- Node3 -->
<g id="node3" class="node">
<title>Node3</title>
<g id="a_node3"><a xlink:href="classObjet__U.html" target="_top" xlink:title="classe Objet_U Cette classe est la classe de base des Objets de TRUST Dans les classes derivees de Ob...">
<polygon fill="white" stroke="black" points="23.5,-112.5 23.5,-131.5 79.5,-131.5 79.5,-112.5 23.5,-112.5"/>
<text text-anchor="middle" x="51.5" y="-119.5" font-family="Helvetica,sans-Serif" font-size="10.00">Objet_U</text>
</a>
</g>
</g>
<!-- Node3&#45;&gt;Node2 -->
<g id="edge2" class="edge">
<title>Node3&#45;&gt;Node2</title>
<path fill="none" stroke="midnightblue" d="M51.5,-101.8C51.5,-92.91 51.5,-82.78 51.5,-75.75"/>
<polygon fill="midnightblue" stroke="midnightblue" points="48,-102.08 51.5,-112.08 55,-102.08 48,-102.08"/>
</g>
<!-- Node4 -->
<g id="node4" class="node">
<title>Node4</title>
<g id="a_node4"><a xlink:href="classProcess.html" target="_top" xlink:title="Classe de base de TRUST (notamment Objet_U). Elle fournit quelques services de base accessibles de pa...">
<polygon fill="white" stroke="black" points="24.5,-168.5 24.5,-187.5 78.5,-187.5 78.5,-168.5 24.5,-168.5"/>
<text text-anchor="middle" x="51.5" y="-175.5" font-family="Helvetica,sans-Serif" font-size="10.00">Process</text>
</a>
</g>
</g>
<!-- Node4&#45;&gt;Node3 -->
<g id="edge3" class="edge">
<title>Node4&#45;&gt;Node3</title>
<path fill="none" stroke="midnightblue" d="M51.5,-157.8C51.5,-148.91 51.5,-138.78 51.5,-131.75"/>
<polygon fill="midnightblue" stroke="midnightblue" points="48,-158.08 51.5,-168.08 55,-158.08 48,-158.08"/>
</g>
</g>
</svg>
