<?xml version="1.0" encoding="UTF-8" standalone="no"?>
<!DOCTYPE svg PUBLIC "-//W3C//DTD SVG 1.1//EN"
 "http://www.w3.org/Graphics/SVG/1.1/DTD/svg11.dtd">
<!-- Generated by graphviz version 2.43.0 (0)
 -->
<!-- Title: Rotationnel_Champ_P1NC Pages: 1 -->
<svg width="357pt" height="476pt"
 viewBox="0.00 0.00 357.00 476.00" xmlns="http://www.w3.org/2000/svg" xmlns:xlink="http://www.w3.org/1999/xlink">
<g id="graph0" class="graph" transform="scale(1 1) rotate(0) translate(4 472)">
<title>Rotationnel_Champ_P1NC</title>
<polygon fill="white" stroke="transparent" points="-4,4 -4,-472 353,-472 353,4 -4,4"/>
<!-- Node1 -->
<g id="node1" class="node">
<title>Node1</title>
<g id="a_node1"><a xlink:title=" ">
<polygon fill="#bfbfbf" stroke="black" points="51.5,-0.5 51.5,-19.5 195.5,-19.5 195.5,-0.5 51.5,-0.5"/>
<text text-anchor="middle" x="123.5" y="-7.5" font-family="Helvetica,sans-Serif" font-size="10.00">Rotationnel_Champ_P1NC</text>
</a>
</g>
</g>
<!-- Node2 -->
<g id="node2" class="node">
<title>Node2</title>
<g id="a_node2"><a xlink:href="classChamp__Rotationnel.html" target="_top" xlink:title="classe Champ_Rotationnel">
<polygon fill="white" stroke="black" points="0,-56.5 0,-75.5 113,-75.5 113,-56.5 0,-56.5"/>
<text text-anchor="middle" x="56.5" y="-63.5" font-family="Helvetica,sans-Serif" font-size="10.00">Champ_Rotationnel</text>
</a>
</g>
</g>
<!-- Node2&#45;&gt;Node1 -->
<g id="edge1" class="edge">
<title>Node2&#45;&gt;Node1</title>
<path fill="none" stroke="midnightblue" d="M75.33,-49.82C87.34,-40.15 102.47,-27.95 112.54,-19.83"/>
<polygon fill="midnightblue" stroke="midnightblue" points="72.85,-47.32 67.26,-56.32 77.25,-52.77 72.85,-47.32"/>
</g>
<!-- Node3 -->
<g id="node3" class="node">
<title>Node3</title>
<g id="a_node3"><a xlink:href="classChamp__Fonc__P0__VEF.html" target="_top" xlink:title="classe Champ_Fonc_P0_VEF">
<polygon fill="white" stroke="black" points="131.5,-56.5 131.5,-75.5 251.5,-75.5 251.5,-56.5 131.5,-56.5"/>
<text text-anchor="middle" x="191.5" y="-63.5" font-family="Helvetica,sans-Serif" font-size="10.00">Champ_Fonc_P0_VEF</text>
</a>
</g>
</g>
<!-- Node3&#45;&gt;Node1 -->
<g id="edge2" class="edge">
<title>Node3&#45;&gt;Node1</title>
<path fill="none" stroke="midnightblue" d="M172.74,-50.1C160.5,-40.38 144.94,-28.03 134.62,-19.83"/>
<polygon fill="midnightblue" stroke="midnightblue" points="170.57,-52.85 180.57,-56.32 174.92,-47.36 170.57,-52.85"/>
</g>
<!-- Node4 -->
<g id="node4" class="node">
<title>Node4</title>
<g id="a_node4"><a xlink:href="classChamp__Fonc__P0__base.html" target="_top" xlink:title=": class Champ_Fonc_P0_base Decrire ici la classe Champ_Fonc_P0_base">
<polygon fill="white" stroke="black" points="129,-112.5 129,-131.5 254,-131.5 254,-112.5 129,-112.5"/>
<text text-anchor="middle" x="191.5" y="-119.5" font-family="Helvetica,sans-Serif" font-size="10.00">Champ_Fonc_P0_base</text>
</a>
</g>
</g>
<!-- Node4&#45;&gt;Node3 -->
<g id="edge3" class="edge">
<title>Node4&#45;&gt;Node3</title>
<path fill="none" stroke="midnightblue" d="M191.5,-101.8C191.5,-92.91 191.5,-82.78 191.5,-75.75"/>
<polygon fill="midnightblue" stroke="midnightblue" points="188,-102.08 191.5,-112.08 195,-102.08 188,-102.08"/>
</g>
<!-- Node5 -->
<g id="node5" class="node">
<title>Node5</title>
<g id="a_node5"><a xlink:href="classChamp__Fonc__base.html" target="_top" xlink:title="classe Champ_Fonc_base Classe de base des champs qui sont fonction d&#39;une grandeur calculee au cours d...">
<polygon fill="white" stroke="black" points="64,-168.5 64,-187.5 171,-187.5 171,-168.5 64,-168.5"/>
<text text-anchor="middle" x="117.5" y="-175.5" font-family="Helvetica,sans-Serif" font-size="10.00">Champ_Fonc_base</text>
</a>
</g>
</g>
<!-- Node5&#45;&gt;Node4 -->
<g id="edge4" class="edge">
<title>Node5&#45;&gt;Node4</title>
<path fill="none" stroke="midnightblue" d="M137.53,-162.38C150.91,-152.62 168.06,-140.11 179.39,-131.83"/>
<polygon fill="midnightblue" stroke="midnightblue" points="135.4,-159.6 129.39,-168.32 139.53,-165.26 135.4,-159.6"/>
</g>
<!-- Node6 -->
<g id="node6" class="node">
<title>Node6</title>
<g id="a_node6"><a xlink:href="classChamp__Don__base.html" target="_top" xlink:title=" ">
<polygon fill="white" stroke="black" points="63.5,-224.5 63.5,-243.5 167.5,-243.5 167.5,-224.5 63.5,-224.5"/>
<text text-anchor="middle" x="115.5" y="-231.5" font-family="Helvetica,sans-Serif" font-size="10.00">Champ_Don_base</text>
</a>
</g>
</g>
<!-- Node6&#45;&gt;Node5 -->
<g id="edge5" class="edge">
<title>Node6&#45;&gt;Node5</title>
<path fill="none" stroke="midnightblue" d="M116.21,-213.8C116.54,-204.91 116.92,-194.78 117.18,-187.75"/>
<polygon fill="midnightblue" stroke="midnightblue" points="112.7,-213.96 115.83,-224.08 119.7,-214.22 112.7,-213.96"/>
</g>
<!-- Node7 -->
<g id="node7" class="node">
<title>Node7</title>
<g id="a_node7"><a xlink:href="classChamp__base.html" target="_top" xlink:title="classe Champ_base Cette classe est la base de la hierarchie des champs. Ses membres sont les attribut...">
<polygon fill="white" stroke="black" points="75.5,-280.5 75.5,-299.5 155.5,-299.5 155.5,-280.5 75.5,-280.5"/>
<text text-anchor="middle" x="115.5" y="-287.5" font-family="Helvetica,sans-Serif" font-size="10.00">Champ_base</text>
</a>
</g>
</g>
<!-- Node7&#45;&gt;Node6 -->
<g id="edge6" class="edge">
<title>Node7&#45;&gt;Node6</title>
<path fill="none" stroke="midnightblue" d="M115.5,-269.8C115.5,-260.91 115.5,-250.78 115.5,-243.75"/>
<polygon fill="midnightblue" stroke="midnightblue" points="112,-270.08 115.5,-280.08 119,-270.08 112,-270.08"/>
</g>
<!-- Node8 -->
<g id="node8" class="node">
<title>Node8</title>
<g id="a_node8"><a xlink:href="classField__base.html" target="_top" xlink:title=" ">
<polygon fill="white" stroke="black" points="35.5,-336.5 35.5,-355.5 103.5,-355.5 103.5,-336.5 35.5,-336.5"/>
<text text-anchor="middle" x="69.5" y="-343.5" font-family="Helvetica,sans-Serif" font-size="10.00">Field_base</text>
</a>
</g>
</g>
<!-- Node8&#45;&gt;Node7 -->
<g id="edge7" class="edge">
<title>Node8&#45;&gt;Node7</title>
<path fill="none" stroke="midnightblue" d="M83.61,-328.43C91.68,-318.97 101.46,-307.48 108.05,-299.75"/>
<polygon fill="midnightblue" stroke="midnightblue" points="80.92,-326.2 77.1,-336.08 86.25,-330.74 80.92,-326.2"/>
</g>
<!-- Node9 -->
<g id="node9" class="node">
<title>Node9</title>
<g id="a_node9"><a xlink:href="classObjet__U.html" target="_top" xlink:title="classe Objet_U Cette classe est la classe de base des Objets de TRUST Dans les classes derivees de Ob...">
<polygon fill="white" stroke="black" points="41.5,-392.5 41.5,-411.5 97.5,-411.5 97.5,-392.5 41.5,-392.5"/>
<text text-anchor="middle" x="69.5" y="-399.5" font-family="Helvetica,sans-Serif" font-size="10.00">Objet_U</text>
</a>
</g>
</g>
<!-- Node9&#45;&gt;Node8 -->
<g id="edge8" class="edge">
<title>Node9&#45;&gt;Node8</title>
<path fill="none" stroke="midnightblue" d="M69.5,-381.8C69.5,-372.91 69.5,-362.78 69.5,-355.75"/>
<polygon fill="midnightblue" stroke="midnightblue" points="66,-382.08 69.5,-392.08 73,-382.08 66,-382.08"/>
</g>
<!-- Node10 -->
<g id="node10" class="node">
<title>Node10</title>
<g id="a_node10"><a xlink:href="classProcess.html" target="_top" xlink:title="Classe de base de TRUST (notamment Objet_U). Elle fournit quelques services de base accessibles de pa...">
<polygon fill="white" stroke="black" points="42.5,-448.5 42.5,-467.5 96.5,-467.5 96.5,-448.5 42.5,-448.5"/>
<text text-anchor="middle" x="69.5" y="-455.5" font-family="Helvetica,sans-Serif" font-size="10.00">Process</text>
</a>
</g>
</g>
<!-- Node10&#45;&gt;Node9 -->
<g id="edge9" class="edge">
<title>Node10&#45;&gt;Node9</title>
<path fill="none" stroke="midnightblue" d="M69.5,-437.8C69.5,-428.91 69.5,-418.78 69.5,-411.75"/>
<polygon fill="midnightblue" stroke="midnightblue" points="66,-438.08 69.5,-448.08 73,-438.08 66,-438.08"/>
</g>
<!-- Node11 -->
<g id="node11" class="node">
<title>Node11</title>
<g id="a_node11"><a xlink:href="classChamp__Proto.html" target="_top" xlink:title="classe Champ_Proto Classe representant un prototype de Champ. Tous les classes representant des champ...">
<polygon fill="white" stroke="black" points="121.5,-336.5 121.5,-355.5 203.5,-355.5 203.5,-336.5 121.5,-336.5"/>
<text text-anchor="middle" x="162.5" y="-343.5" font-family="Helvetica,sans-Serif" font-size="10.00">Champ_Proto</text>
</a>
</g>
</g>
<!-- Node11&#45;&gt;Node7 -->
<g id="edge10" class="edge">
<title>Node11&#45;&gt;Node7</title>
<path fill="none" stroke="midnightblue" d="M148.08,-328.43C139.84,-318.97 129.85,-307.48 123.12,-299.75"/>
<polygon fill="midnightblue" stroke="midnightblue" points="145.53,-330.84 154.74,-336.08 150.81,-326.24 145.53,-330.84"/>
</g>
<!-- Node12 -->
<g id="node12" class="node">
<title>Node12</title>
<g id="a_node12"><a xlink:href="classChamp__implementation__P0.html" target="_top" xlink:title=": class Champ_implementation_P0 Decrire ici la classe Champ_implementation_P0">
<polygon fill="white" stroke="black" points="190.5,-168.5 190.5,-187.5 342.5,-187.5 342.5,-168.5 190.5,-168.5"/>
<text text-anchor="middle" x="266.5" y="-175.5" font-family="Helvetica,sans-Serif" font-size="10.00">Champ_implementation_P0</text>
</a>
</g>
</g>
<!-- Node12&#45;&gt;Node4 -->
<g id="edge11" class="edge">
<title>Node12&#45;&gt;Node4</title>
<path fill="none" stroke="midnightblue" d="M246.19,-162.38C232.64,-152.62 215.26,-140.11 203.77,-131.83"/>
<polygon fill="midnightblue" stroke="midnightblue" points="244.29,-165.32 254.45,-168.32 248.38,-159.64 244.29,-165.32"/>
</g>
<!-- Node13 -->
<g id="node13" class="node">
<title>Node13</title>
<g id="a_node13"><a xlink:href="classChamp__implementation__base.html" target="_top" xlink:title=": class Champ_implementation_base Decrire ici la classe Champ_implementation_base">
<polygon fill="white" stroke="black" points="186,-224.5 186,-243.5 349,-243.5 349,-224.5 186,-224.5"/>
<text text-anchor="middle" x="267.5" y="-231.5" font-family="Helvetica,sans-Serif" font-size="10.00">Champ_implementation_base</text>
</a>
</g>
</g>
<!-- Node13&#45;&gt;Node12 -->
<g id="edge12" class="edge">
<title>Node13&#45;&gt;Node12</title>
<path fill="none" stroke="midnightblue" d="M267.14,-213.8C266.98,-204.91 266.79,-194.78 266.66,-187.75"/>
<polygon fill="midnightblue" stroke="midnightblue" points="263.65,-214.15 267.33,-224.08 270.65,-214.02 263.65,-214.15"/>
</g>
</g>
</svg>
