<?xml version="1.0" encoding="UTF-8" standalone="no"?>
<!DOCTYPE svg PUBLIC "-//W3C//DTD SVG 1.1//EN"
 "http://www.w3.org/Graphics/SVG/1.1/DTD/svg11.dtd">
<!-- Generated by graphviz version 2.43.0 (0)
 -->
<!-- Title: Champ_Generique_Champ Pages: 1 -->
<svg width="168pt" height="252pt"
 viewBox="0.00 0.00 168.00 252.00" xmlns="http://www.w3.org/2000/svg" xmlns:xlink="http://www.w3.org/1999/xlink">
<g id="graph0" class="graph" transform="scale(1 1) rotate(0) translate(4 248)">
<title>Champ_Generique_Champ</title>
<polygon fill="white" stroke="transparent" points="-4,4 -4,-248 164,-248 164,4 -4,4"/>
<!-- Node1 -->
<g id="node1" class="node">
<title>Node1</title>
<g id="a_node1"><a xlink:title=": class Champ_Generique_Champ &lt;Description of class Champ_Generique_Champ&gt;">
<polygon fill="#bfbfbf" stroke="black" points="7,-0.5 7,-19.5 153,-19.5 153,-0.5 7,-0.5"/>
<text text-anchor="middle" x="80" y="-7.5" font-family="Helvetica,sans-Serif" font-size="10.00">Champ_Generique_Champ</text>
</a>
</g>
</g>
<!-- Node2 -->
<g id="node2" class="node">
<title>Node2</title>
<g id="a_node2"><a xlink:href="classChamp__Generique__refChamp.html" target="_top" xlink:title="Classe de champ particuliere qui encapsule une reference a un champ volumique de TRUST de type Champ_...">
<polygon fill="white" stroke="black" points="0,-56.5 0,-75.5 160,-75.5 160,-56.5 0,-56.5"/>
<text text-anchor="middle" x="80" y="-63.5" font-family="Helvetica,sans-Serif" font-size="10.00">Champ_Generique_refChamp</text>
</a>
</g>
</g>
<!-- Node2&#45;&gt;Node1 -->
<g id="edge1" class="edge">
<title>Node2&#45;&gt;Node1</title>
<path fill="none" stroke="midnightblue" d="M80,-45.8C80,-36.91 80,-26.78 80,-19.75"/>
<polygon fill="midnightblue" stroke="midnightblue" points="76.5,-46.08 80,-56.08 83.5,-46.08 76.5,-46.08"/>
</g>
<!-- Node3 -->
<g id="node3" class="node">
<title>Node3</title>
<g id="a_node3"><a xlink:href="classChamp__Generique__base.html" target="_top" xlink:title="Classe de base des champs generiques pour importation d un champ discret et actions elementaires sur ...">
<polygon fill="white" stroke="black" points="12.5,-112.5 12.5,-131.5 147.5,-131.5 147.5,-112.5 12.5,-112.5"/>
<text text-anchor="middle" x="80" y="-119.5" font-family="Helvetica,sans-Serif" font-size="10.00">Champ_Generique_base</text>
</a>
</g>
</g>
<!-- Node3&#45;&gt;Node2 -->
<g id="edge2" class="edge">
<title>Node3&#45;&gt;Node2</title>
<path fill="none" stroke="midnightblue" d="M80,-101.8C80,-92.91 80,-82.78 80,-75.75"/>
<polygon fill="midnightblue" stroke="midnightblue" points="76.5,-102.08 80,-112.08 83.5,-102.08 76.5,-102.08"/>
</g>
<!-- Node4 -->
<g id="node4" class="node">
<title>Node4</title>
<g id="a_node4"><a xlink:href="classObjet__U.html" target="_top" xlink:title="classe Objet_U Cette classe est la classe de base des Objets de TRUST Dans les classes derivees de Ob...">
<polygon fill="white" stroke="black" points="52,-168.5 52,-187.5 108,-187.5 108,-168.5 52,-168.5"/>
<text text-anchor="middle" x="80" y="-175.5" font-family="Helvetica,sans-Serif" font-size="10.00">Objet_U</text>
</a>
</g>
</g>
<!-- Node4&#45;&gt;Node3 -->
<g id="edge3" class="edge">
<title>Node4&#45;&gt;Node3</title>
<path fill="none" stroke="midnightblue" d="M80,-157.8C80,-148.91 80,-138.78 80,-131.75"/>
<polygon fill="midnightblue" stroke="midnightblue" points="76.5,-158.08 80,-168.08 83.5,-158.08 76.5,-158.08"/>
</g>
<!-- Node5 -->
<g id="node5" class="node">
<title>Node5</title>
<g id="a_node5"><a xlink:href="classProcess.html" target="_top" xlink:title="Classe de base de TRUST (notamment Objet_U). Elle fournit quelques services de base accessibles de pa...">
<polygon fill="white" stroke="black" points="53,-224.5 53,-243.5 107,-243.5 107,-224.5 53,-224.5"/>
<text text-anchor="middle" x="80" y="-231.5" font-family="Helvetica,sans-Serif" font-size="10.00">Process</text>
</a>
</g>
</g>
<!-- Node5&#45;&gt;Node4 -->
<g id="edge4" class="edge">
<title>Node5&#45;&gt;Node4</title>
<path fill="none" stroke="midnightblue" d="M80,-213.8C80,-204.91 80,-194.78 80,-187.75"/>
<polygon fill="midnightblue" stroke="midnightblue" points="76.5,-214.08 80,-224.08 83.5,-214.08 76.5,-214.08"/>
</g>
</g>
</svg>
