<?xml version="1.0" encoding="UTF-8" standalone="no"?>
<!DOCTYPE svg PUBLIC "-//W3C//DTD SVG 1.1//EN"
 "http://www.w3.org/Graphics/SVG/1.1/DTD/svg11.dtd">
<!-- Generated by graphviz version 2.43.0 (0)
 -->
<!-- Title: Eval_Dift_VDF_Multi_inco_var_Elem_Axi Pages: 1 -->
<svg width="686pt" height="188pt"
 viewBox="0.00 0.00 686.00 188.00" xmlns="http://www.w3.org/2000/svg" xmlns:xlink="http://www.w3.org/1999/xlink">
<g id="graph0" class="graph" transform="scale(1 1) rotate(0) translate(4 184)">
<title>Eval_Dift_VDF_Multi_inco_var_Elem_Axi</title>
<polygon fill="white" stroke="transparent" points="-4,4 -4,-184 682,-184 682,4 -4,4"/>
<!-- Node1 -->
<g id="node1" class="node">
<title>Node1</title>
<g id="a_node1"><a xlink:title=" ">
<polygon fill="#bfbfbf" stroke="black" points="562,-66 562,-96 678,-96 678,-66 562,-66"/>
<text text-anchor="start" x="570" y="-84" font-family="Helvetica,sans-Serif" font-size="10.00">Eval_Dift_VDF_Multi</text>
<text text-anchor="middle" x="620" y="-73" font-family="Helvetica,sans-Serif" font-size="10.00">_inco_var_Elem_Axi</text>
</a>
</g>
</g>
<!-- Node2 -->
<g id="node2" class="node">
<title>Node2</title>
<g id="a_node2"><a xlink:href="classEval__Diff__VDF__Elem.html" target="_top" xlink:title=" ">
<polygon fill="white" stroke="black" points="398,-104.5 398,-145.5 525,-145.5 525,-104.5 398,-104.5"/>
<text text-anchor="start" x="406" y="-133.5" font-family="Helvetica,sans-Serif" font-size="10.00">Eval_Diff_VDF_Elem</text>
<text text-anchor="start" x="406" y="-122.5" font-family="Helvetica,sans-Serif" font-size="10.00">&lt; Eval_Dift_VDF_Multi</text>
<text text-anchor="middle" x="461.5" y="-111.5" font-family="Helvetica,sans-Serif" font-size="10.00">_inco_var_Elem_Axi &gt;</text>
</a>
</g>
</g>
<!-- Node2&#45;&gt;Node1 -->
<g id="edge1" class="edge">
<title>Node2&#45;&gt;Node1</title>
<path fill="none" stroke="midnightblue" d="M534.98,-104.62C545.19,-101.75 555.53,-98.85 565.3,-96.1"/>
<polygon fill="midnightblue" stroke="midnightblue" points="533.93,-101.28 525.25,-107.36 535.83,-108.02 533.93,-101.28"/>
</g>
<!-- Node3 -->
<g id="node3" class="node">
<title>Node3</title>
<g id="a_node3"><a xlink:href="classEval__VDF__Elem.html" target="_top" xlink:title="class Eval_VDF_Elem Cette classe represente le prototype fonctionnel des evaluateurs de flux associes...">
<polygon fill="white" stroke="black" points="1,-160.5 1,-179.5 94,-179.5 94,-160.5 1,-160.5"/>
<text text-anchor="middle" x="47.5" y="-167.5" font-family="Helvetica,sans-Serif" font-size="10.00">Eval_VDF_Elem</text>
</a>
</g>
</g>
<!-- Node3&#45;&gt;Node2 -->
<g id="edge2" class="edge">
<title>Node3&#45;&gt;Node2</title>
<path fill="none" stroke="midnightblue" d="M104.31,-175.67C170.94,-180.83 285.26,-184.62 380,-162 394.81,-158.46 410.21,-152.13 423.52,-145.69"/>
<polygon fill="midnightblue" stroke="midnightblue" points="104.29,-172.15 94.04,-174.83 103.72,-179.13 104.29,-172.15"/>
</g>
<!-- Node5 -->
<g id="node5" class="node">
<title>Node5</title>
<g id="a_node5"><a xlink:href="classEval__Diff__VDF__Elem.html" target="_top" xlink:title="class Eval_Diff_VDF_Elem Evaluateur VDF pour la diffusion : Le champ diffuse est un Champ_P0_VDF temp...">
<polygon fill="white" stroke="black" points="132,-127 132,-157 248,-157 248,-127 132,-127"/>
<text text-anchor="start" x="140" y="-145" font-family="Helvetica,sans-Serif" font-size="10.00">Eval_Diff_VDF_Elem</text>
<text text-anchor="middle" x="190" y="-134" font-family="Helvetica,sans-Serif" font-size="10.00">&lt; DERIVED_T &gt;</text>
</a>
</g>
</g>
<!-- Node3&#45;&gt;Node5 -->
<g id="edge5" class="edge">
<title>Node3&#45;&gt;Node5</title>
<path fill="none" stroke="midnightblue" d="M104.19,-158.9C113.27,-157.09 122.69,-155.22 131.8,-153.4"/>
<polygon fill="midnightblue" stroke="midnightblue" points="103.24,-155.52 94.12,-160.91 104.61,-162.39 103.24,-155.52"/>
</g>
<!-- Node4 -->
<g id="node4" class="node">
<title>Node4</title>
<g id="a_node4"><a xlink:href="classEvaluateur__VDF.html" target="_top" xlink:title="class Evaluateur_VDF Classe de base des evaluateurs VDF. Cette classe n&#39;appartient pas a la hierarchi...">
<polygon fill="white" stroke="black" points="0,-110.5 0,-129.5 95,-129.5 95,-110.5 0,-110.5"/>
<text text-anchor="middle" x="47.5" y="-117.5" font-family="Helvetica,sans-Serif" font-size="10.00">Evaluateur_VDF</text>
</a>
</g>
</g>
<!-- Node4&#45;&gt;Node2 -->
<g id="edge3" class="edge">
<title>Node4&#45;&gt;Node2</title>
<path fill="none" stroke="midnightblue" d="M105.57,-118.45C114.42,-118.26 123.45,-118.1 132,-118 183.55,-117.38 196.45,-117.15 248,-118 298.38,-118.83 355.45,-120.76 397.75,-122.39"/>
<polygon fill="midnightblue" stroke="midnightblue" points="105.23,-114.96 95.31,-118.68 105.38,-121.96 105.23,-114.96"/>
</g>
<!-- Node4&#45;&gt;Node5 -->
<g id="edge6" class="edge">
<title>Node4&#45;&gt;Node5</title>
<path fill="none" stroke="midnightblue" d="M105.32,-128.9C114,-130.26 122.97,-131.66 131.67,-133.02"/>
<polygon fill="midnightblue" stroke="midnightblue" points="105.71,-125.41 95.28,-127.33 104.62,-132.33 105.71,-125.41"/>
</g>
<!-- Node5&#45;&gt;Node2 -->
<g id="edge4" class="edge">
<title>Node5&#45;&gt;Node2</title>
<path fill="none" stroke="orange" stroke-dasharray="5,2" d="M258.19,-137.76C300.94,-135.07 355.93,-131.6 397.78,-128.96"/>
<polygon fill="orange" stroke="orange" points="257.91,-134.27 248.15,-138.39 258.35,-141.26 257.91,-134.27"/>
<text text-anchor="start" x="266" y="-150" font-family="Helvetica,sans-Serif" font-size="10.00"> &lt; Eval_Dift_VDF_Multi</text>
<text text-anchor="middle" x="323" y="-139" font-family="Helvetica,sans-Serif" font-size="10.00">_inco_var_Elem_Axi &gt;</text>
</g>
<!-- Node6 -->
<g id="node6" class="node">
<title>Node6</title>
<g id="a_node6"><a xlink:href="classEval__Dift__VDF__Multi__inco__var.html" target="_top" xlink:title="class Eval_Dift_VDF_Multi_inco_var Cette classe represente un evaluateur de flux diffusif total&lt;br&gt;(l...">
<polygon fill="white" stroke="black" points="403.5,-39 403.5,-69 519.5,-69 519.5,-39 403.5,-39"/>
<text text-anchor="start" x="411.5" y="-57" font-family="Helvetica,sans-Serif" font-size="10.00">Eval_Dift_VDF_Multi</text>
<text text-anchor="middle" x="461.5" y="-46" font-family="Helvetica,sans-Serif" font-size="10.00">_inco_var</text>
</a>
</g>
</g>
<!-- Node6&#45;&gt;Node1 -->
<g id="edge7" class="edge">
<title>Node6&#45;&gt;Node1</title>
<path fill="none" stroke="midnightblue" d="M529.97,-65.64C540.61,-67.48 551.51,-69.36 561.88,-71.15"/>
<polygon fill="midnightblue" stroke="midnightblue" points="530.34,-62.15 519.89,-63.9 529.15,-69.05 530.34,-62.15"/>
</g>
<!-- Node7 -->
<g id="node7" class="node">
<title>Node7</title>
<g id="a_node7"><a xlink:href="classEval__Diff__VDF__Multi__inco__var.html" target="_top" xlink:title="class Eval_Diff_VDF_Multi_inco_var Cette classe represente un evaluateur de flux diffusif pour un vec...">
<polygon fill="white" stroke="black" points="132,-39 132,-69 248,-69 248,-39 132,-39"/>
<text text-anchor="start" x="140" y="-57" font-family="Helvetica,sans-Serif" font-size="10.00">Eval_Diff_VDF_Multi</text>
<text text-anchor="middle" x="190" y="-46" font-family="Helvetica,sans-Serif" font-size="10.00">_inco_var</text>
</a>
</g>
</g>
<!-- Node7&#45;&gt;Node6 -->
<g id="edge8" class="edge">
<title>Node7&#45;&gt;Node6</title>
<path fill="none" stroke="midnightblue" d="M258.34,-54C303.02,-54 361.02,-54 403.43,-54"/>
<polygon fill="midnightblue" stroke="midnightblue" points="258.15,-50.5 248.15,-54 258.15,-57.5 258.15,-50.5"/>
</g>
<!-- Node8 -->
<g id="node8" class="node">
<title>Node8</title>
<g id="a_node8"><a xlink:href="classEval__Diff__VDF.html" target="_top" xlink:title=" ">
<polygon fill="white" stroke="black" points="4.5,-44.5 4.5,-63.5 90.5,-63.5 90.5,-44.5 4.5,-44.5"/>
<text text-anchor="middle" x="47.5" y="-51.5" font-family="Helvetica,sans-Serif" font-size="10.00">Eval_Diff_VDF</text>
</a>
</g>
</g>
<!-- Node8&#45;&gt;Node7 -->
<g id="edge9" class="edge">
<title>Node8&#45;&gt;Node7</title>
<path fill="none" stroke="midnightblue" d="M100.92,-54C110.99,-54 121.59,-54 131.8,-54"/>
<polygon fill="midnightblue" stroke="midnightblue" points="100.65,-50.5 90.65,-54 100.65,-57.5 100.65,-50.5"/>
</g>
<!-- Node9 -->
<g id="node9" class="node">
<title>Node9</title>
<g id="a_node9"><a xlink:href="classEval__Turbulence.html" target="_top" xlink:title="class Eval_Turbulence Implements all stuff related to turbulence for VDF evaluators.">
<polygon fill="white" stroke="black" points="142.5,-0.5 142.5,-19.5 237.5,-19.5 237.5,-0.5 142.5,-0.5"/>
<text text-anchor="middle" x="190" y="-7.5" font-family="Helvetica,sans-Serif" font-size="10.00">Eval_Turbulence</text>
</a>
</g>
</g>
<!-- Node9&#45;&gt;Node6 -->
<g id="edge10" class="edge">
<title>Node9&#45;&gt;Node6</title>
<path fill="none" stroke="midnightblue" d="M247.67,-19.25C293.37,-26.71 357.34,-37.16 403.2,-44.65"/>
<polygon fill="midnightblue" stroke="midnightblue" points="248.07,-15.77 237.64,-17.61 246.94,-22.68 248.07,-15.77"/>
</g>
</g>
</svg>
