<?xml version="1.0" encoding="UTF-8" standalone="no"?>
<!DOCTYPE svg PUBLIC "-//W3C//DTD SVG 1.1//EN"
 "http://www.w3.org/Graphics/SVG/1.1/DTD/svg11.dtd">
<!-- Generated by graphviz version 2.43.0 (0)
 -->
<!-- Title: Source_Gravite_Fluide_Dilatable_base Pages: 1 -->
<svg width="697pt" height="142pt"
 viewBox="0.00 0.00 697.00 142.00" xmlns="http://www.w3.org/2000/svg" xmlns:xlink="http://www.w3.org/1999/xlink">
<g id="graph0" class="graph" transform="scale(1 1) rotate(0) translate(4 138)">
<title>Source_Gravite_Fluide_Dilatable_base</title>
<polygon fill="white" stroke="transparent" points="-4,4 -4,-138 693,-138 693,4 -4,4"/>
<!-- Node1 -->
<g id="node1" class="node">
<title>Node1</title>
<g id="a_node1"><a xlink:title="class Source_Gravite_Fluide_Dilatable_base Cette classe represente un terme source supplementaire a p...">
<polygon fill="#bfbfbf" stroke="black" points="389,-52 389,-82 515,-82 515,-52 389,-52"/>
<text text-anchor="start" x="397" y="-70" font-family="Helvetica,sans-Serif" font-size="10.00">Source_Gravite_Fluide</text>
<text text-anchor="middle" x="452" y="-59" font-family="Helvetica,sans-Serif" font-size="10.00">_Dilatable_base</text>
</a>
</g>
</g>
<!-- Node7 -->
<g id="node7" class="node">
<title>Node7</title>
<g id="a_node7"><a xlink:href="classSource__QC__Gravite__VDF.html" target="_top" xlink:title="class Source_QC_Gravite_VDF Cette classe represente un terme source supplementaire a prendre en compt...">
<polygon fill="white" stroke="black" points="552,-114.5 552,-133.5 688,-133.5 688,-114.5 552,-114.5"/>
<text text-anchor="middle" x="620" y="-121.5" font-family="Helvetica,sans-Serif" font-size="10.00">Source_QC_Gravite_VDF</text>
</a>
</g>
</g>
<!-- Node1&#45;&gt;Node7 -->
<g id="edge6" class="edge">
<title>Node1&#45;&gt;Node7</title>
<path fill="none" stroke="midnightblue" d="M498.79,-85.82C515.14,-92.25 533.78,-99.27 551,-105 561.12,-108.37 572.21,-111.64 582.45,-114.49"/>
<polygon fill="midnightblue" stroke="midnightblue" points="500.04,-82.55 489.46,-82.11 497.46,-89.06 500.04,-82.55"/>
</g>
<!-- Node8 -->
<g id="node8" class="node">
<title>Node8</title>
<g id="a_node8"><a xlink:href="classSource__QC__Gravite__VEF.html" target="_top" xlink:title="class Source_QC_Gravite_VEF Cette classe represente un terme source supplementaire a prendre en compt...">
<polygon fill="white" stroke="black" points="553,-76.5 553,-95.5 687,-95.5 687,-76.5 553,-76.5"/>
<text text-anchor="middle" x="620" y="-83.5" font-family="Helvetica,sans-Serif" font-size="10.00">Source_QC_Gravite_VEF</text>
</a>
</g>
</g>
<!-- Node1&#45;&gt;Node8 -->
<g id="edge7" class="edge">
<title>Node1&#45;&gt;Node8</title>
<path fill="none" stroke="midnightblue" d="M525.44,-75.29C534.52,-76.33 543.78,-77.39 552.76,-78.42"/>
<polygon fill="midnightblue" stroke="midnightblue" points="525.62,-71.79 515.28,-74.13 524.82,-78.74 525.62,-71.79"/>
</g>
<!-- Node9 -->
<g id="node9" class="node">
<title>Node9</title>
<g id="a_node9"><a xlink:href="classSource__WC__Gravite__VDF.html" target="_top" xlink:title="class Source_WC_Gravite_VDF Cette classe represente un terme source supplementaire a prendre en compt...">
<polygon fill="white" stroke="black" points="551,-38.5 551,-57.5 689,-57.5 689,-38.5 551,-38.5"/>
<text text-anchor="middle" x="620" y="-45.5" font-family="Helvetica,sans-Serif" font-size="10.00">Source_WC_Gravite_VDF</text>
</a>
</g>
</g>
<!-- Node1&#45;&gt;Node9 -->
<g id="edge8" class="edge">
<title>Node1&#45;&gt;Node9</title>
<path fill="none" stroke="midnightblue" d="M525.46,-58.71C533.88,-57.74 542.44,-56.76 550.8,-55.81"/>
<polygon fill="midnightblue" stroke="midnightblue" points="524.82,-55.26 515.28,-59.87 525.62,-62.21 524.82,-55.26"/>
</g>
<!-- Node10 -->
<g id="node10" class="node">
<title>Node10</title>
<g id="a_node10"><a xlink:href="classSource__WC__Gravite__VEF.html" target="_top" xlink:title="class Source_WC_Gravite_VEF Cette classe represente un terme source supplementaire a prendre en compt...">
<polygon fill="white" stroke="black" points="551.5,-0.5 551.5,-19.5 688.5,-19.5 688.5,-0.5 551.5,-0.5"/>
<text text-anchor="middle" x="620" y="-7.5" font-family="Helvetica,sans-Serif" font-size="10.00">Source_WC_Gravite_VEF</text>
</a>
</g>
</g>
<!-- Node1&#45;&gt;Node10 -->
<g id="edge9" class="edge">
<title>Node1&#45;&gt;Node10</title>
<path fill="none" stroke="midnightblue" d="M498.79,-48.18C515.14,-41.75 533.78,-34.73 551,-29 561.12,-25.63 572.21,-22.36 582.45,-19.51"/>
<polygon fill="midnightblue" stroke="midnightblue" points="497.46,-44.94 489.46,-51.89 500.04,-51.45 497.46,-44.94"/>
</g>
<!-- Node2 -->
<g id="node2" class="node">
<title>Node2</title>
<g id="a_node2"><a xlink:href="classSource__base.html" target="_top" xlink:title="classe Source_base Un objet Source_base est un terme apparaissant au second membre d&#39;une equation....">
<polygon fill="white" stroke="black" points="275,-57.5 275,-76.5 353,-76.5 353,-57.5 275,-57.5"/>
<text text-anchor="middle" x="314" y="-64.5" font-family="Helvetica,sans-Serif" font-size="10.00">Source_base</text>
</a>
</g>
</g>
<!-- Node2&#45;&gt;Node1 -->
<g id="edge1" class="edge">
<title>Node2&#45;&gt;Node1</title>
<path fill="none" stroke="midnightblue" d="M363.42,-67C371.66,-67 380.32,-67 388.85,-67"/>
<polygon fill="midnightblue" stroke="midnightblue" points="363.25,-63.5 353.25,-67 363.25,-70.5 363.25,-63.5"/>
</g>
<!-- Node3 -->
<g id="node3" class="node">
<title>Node3</title>
<g id="a_node3"><a xlink:href="classChamps__compris__interface.html" target="_top" xlink:title="classe Champs_compris_interface Cette classe contient une interface de methodes destinees a gerer les...">
<polygon fill="white" stroke="black" points="90,-95.5 90,-114.5 239,-114.5 239,-95.5 90,-95.5"/>
<text text-anchor="middle" x="164.5" y="-102.5" font-family="Helvetica,sans-Serif" font-size="10.00">Champs_compris_interface</text>
</a>
</g>
</g>
<!-- Node3&#45;&gt;Node2 -->
<g id="edge2" class="edge">
<title>Node3&#45;&gt;Node2</title>
<path fill="none" stroke="midnightblue" d="M212.51,-92.89C233.06,-87.6 256.8,-81.48 276.05,-76.52"/>
<polygon fill="midnightblue" stroke="midnightblue" points="211.53,-89.53 202.72,-95.41 213.28,-96.31 211.53,-89.53"/>
</g>
<!-- Node4 -->
<g id="node4" class="node">
<title>Node4</title>
<g id="a_node4"><a xlink:href="classMorEqn.html" target="_top" xlink:title="classe MorEqn Classe qui regroupe les fonctionnalites de liaison avec une Equation....">
<polygon fill="white" stroke="black" points="138,-57.5 138,-76.5 191,-76.5 191,-57.5 138,-57.5"/>
<text text-anchor="middle" x="164.5" y="-64.5" font-family="Helvetica,sans-Serif" font-size="10.00">MorEqn</text>
</a>
</g>
</g>
<!-- Node4&#45;&gt;Node2 -->
<g id="edge3" class="edge">
<title>Node4&#45;&gt;Node2</title>
<path fill="none" stroke="midnightblue" d="M201.25,-67C223.52,-67 252.16,-67 274.87,-67"/>
<polygon fill="midnightblue" stroke="midnightblue" points="201.19,-63.5 191.19,-67 201.19,-70.5 201.19,-63.5"/>
</g>
<!-- Node5 -->
<g id="node5" class="node">
<title>Node5</title>
<g id="a_node5"><a xlink:href="classObjet__U.html" target="_top" xlink:title="classe Objet_U Cette classe est la classe de base des Objets de TRUST Dans les classes derivees de Ob...">
<polygon fill="white" stroke="black" points="136.5,-19.5 136.5,-38.5 192.5,-38.5 192.5,-19.5 136.5,-19.5"/>
<text text-anchor="middle" x="164.5" y="-26.5" font-family="Helvetica,sans-Serif" font-size="10.00">Objet_U</text>
</a>
</g>
</g>
<!-- Node5&#45;&gt;Node2 -->
<g id="edge4" class="edge">
<title>Node5&#45;&gt;Node2</title>
<path fill="none" stroke="midnightblue" d="M202.42,-38.51C224.94,-44.31 253.61,-51.7 276.12,-57.5"/>
<polygon fill="midnightblue" stroke="midnightblue" points="203.11,-35.08 192.55,-35.97 201.36,-41.85 203.11,-35.08"/>
</g>
<!-- Node6 -->
<g id="node6" class="node">
<title>Node6</title>
<g id="a_node6"><a xlink:href="classProcess.html" target="_top" xlink:title="Classe de base de TRUST (notamment Objet_U). Elle fournit quelques services de base accessibles de pa...">
<polygon fill="white" stroke="black" points="0,-19.5 0,-38.5 54,-38.5 54,-19.5 0,-19.5"/>
<text text-anchor="middle" x="27" y="-26.5" font-family="Helvetica,sans-Serif" font-size="10.00">Process</text>
</a>
</g>
</g>
<!-- Node6&#45;&gt;Node5 -->
<g id="edge5" class="edge">
<title>Node6&#45;&gt;Node5</title>
<path fill="none" stroke="midnightblue" d="M64.34,-29C86.89,-29 115.4,-29 136.06,-29"/>
<polygon fill="midnightblue" stroke="midnightblue" points="64.13,-25.5 54.13,-29 64.13,-32.5 64.13,-25.5"/>
</g>
</g>
</svg>
