<?xml version="1.0" encoding="UTF-8" standalone="no"?>
<!DOCTYPE svg PUBLIC "-//W3C//DTD SVG 1.1//EN"
 "http://www.w3.org/Graphics/SVG/1.1/DTD/svg11.dtd">
<!-- Generated by graphviz version 2.43.0 (0)
 -->
<!-- Title: TRUSTVect&lt; _TYPE_ &gt; Pages: 1 -->
<svg width="545pt" height="390pt"
 viewBox="0.00 0.00 545.00 390.00" xmlns="http://www.w3.org/2000/svg" xmlns:xlink="http://www.w3.org/1999/xlink">
<g id="graph0" class="graph" transform="scale(1 1) rotate(0) translate(4 386)">
<title>TRUSTVect&lt; _TYPE_ &gt;</title>
<polygon fill="white" stroke="transparent" points="-4,4 -4,-386 541,-386 541,4 -4,4"/>
<!-- Node1 -->
<g id="node1" class="node">
<title>Node1</title>
<g id="a_node1"><a xlink:title=" ">
<polygon fill="#bfbfbf" stroke="black" points="185,-134.5 185,-153.5 312,-153.5 312,-134.5 185,-134.5"/>
<text text-anchor="middle" x="248.5" y="-141.5" font-family="Helvetica,sans-Serif" font-size="10.00">TRUSTVect&lt; _TYPE_ &gt;</text>
</a>
</g>
</g>
<!-- Node6 -->
<g id="node6" class="node">
<title>Node6</title>
<g id="a_node6"><a xlink:href="classTRUSTTab.html" target="_top" xlink:title=": Tableau a n entrees pour n&lt;= 4. Repose sur un TRUSTVect avec calculs de l&#39;indice corespondant">
<polygon fill="white" stroke="black" points="187.5,-67.5 187.5,-86.5 309.5,-86.5 309.5,-67.5 187.5,-67.5"/>
<text text-anchor="middle" x="248.5" y="-74.5" font-family="Helvetica,sans-Serif" font-size="10.00">TRUSTTab&lt; _TYPE_ &gt;</text>
</a>
</g>
</g>
<!-- Node1&#45;&gt;Node6 -->
<g id="edge5" class="edge">
<title>Node1&#45;&gt;Node6</title>
<path fill="none" stroke="midnightblue" d="M248.5,-124.04C248.5,-111.67 248.5,-96.12 248.5,-86.63"/>
<polygon fill="midnightblue" stroke="midnightblue" points="245,-124.23 248.5,-134.23 252,-124.23 245,-124.23"/>
</g>
<!-- Node11 -->
<g id="node11" class="node">
<title>Node11</title>
<g id="a_node11"><a xlink:href="classTRUSTVect.html" target="_top" xlink:title=" ">
<polygon fill="white" stroke="black" points="63,-67.5 63,-86.5 168,-86.5 168,-67.5 63,-67.5"/>
<text text-anchor="middle" x="115.5" y="-74.5" font-family="Helvetica,sans-Serif" font-size="10.00">TRUSTVect&lt; int &gt;</text>
</a>
</g>
</g>
<!-- Node1&#45;&gt;Node11 -->
<g id="edge10" class="edge">
<title>Node1&#45;&gt;Node11</title>
<path fill="none" stroke="orange" stroke-dasharray="5,2" d="M221.78,-129.94C195.44,-117.07 155.93,-97.76 133.23,-86.67"/>
<polygon fill="orange" stroke="orange" points="220.32,-133.12 230.84,-134.37 223.39,-126.83 220.32,-133.12"/>
<text text-anchor="middle" x="210" y="-108" font-family="Helvetica,sans-Serif" font-size="10.00"> &lt; int &gt;</text>
</g>
<!-- Node12 -->
<g id="node12" class="node">
<title>Node12</title>
<g id="a_node12"><a xlink:href="classTRUSTVect.html" target="_top" xlink:title=" ">
<polygon fill="white" stroke="black" points="374,-67.5 374,-86.5 499,-86.5 499,-67.5 374,-67.5"/>
<text text-anchor="middle" x="436.5" y="-74.5" font-family="Helvetica,sans-Serif" font-size="10.00">TRUSTVect&lt; double &gt;</text>
</a>
</g>
</g>
<!-- Node1&#45;&gt;Node12 -->
<g id="edge12" class="edge">
<title>Node1&#45;&gt;Node12</title>
<path fill="none" stroke="orange" stroke-dasharray="5,2" d="M283.39,-130.94C320.69,-118.04 378.87,-97.92 411.73,-86.56"/>
<polygon fill="orange" stroke="orange" points="281.77,-127.79 273.46,-134.37 284.06,-134.41 281.77,-127.79"/>
<text text-anchor="middle" x="383" y="-108" font-family="Helvetica,sans-Serif" font-size="10.00"> &lt; double &gt;</text>
</g>
<!-- Node2 -->
<g id="node2" class="node">
<title>Node2</title>
<g id="a_node2"><a xlink:href="classTRUSTArray.html" target="_top" xlink:title="Represente un tableau d&#39;elements de type int/double/float. L&#39;etat du tableau est caracterise par la v...">
<polygon fill="white" stroke="black" points="183,-191.5 183,-210.5 314,-210.5 314,-191.5 183,-191.5"/>
<text text-anchor="middle" x="248.5" y="-198.5" font-family="Helvetica,sans-Serif" font-size="10.00">TRUSTArray&lt; _TYPE_ &gt;</text>
</a>
</g>
</g>
<!-- Node2&#45;&gt;Node1 -->
<g id="edge1" class="edge">
<title>Node2&#45;&gt;Node1</title>
<path fill="none" stroke="midnightblue" d="M248.5,-181.12C248.5,-171.82 248.5,-161.06 248.5,-153.71"/>
<polygon fill="midnightblue" stroke="midnightblue" points="245,-181.41 248.5,-191.41 252,-181.41 245,-181.41"/>
</g>
<!-- Node3 -->
<g id="node3" class="node">
<title>Node3</title>
<g id="a_node3"><a xlink:href="classArray__base.html" target="_top" xlink:title=": classe vide servant de base a tous les tableaux. (permet de passer un type generique quel que soit ...">
<polygon fill="white" stroke="black" points="213,-248.5 213,-267.5 284,-267.5 284,-248.5 213,-248.5"/>
<text text-anchor="middle" x="248.5" y="-255.5" font-family="Helvetica,sans-Serif" font-size="10.00">Array_base</text>
</a>
</g>
</g>
<!-- Node3&#45;&gt;Node2 -->
<g id="edge2" class="edge">
<title>Node3&#45;&gt;Node2</title>
<path fill="none" stroke="midnightblue" d="M248.5,-238.12C248.5,-228.82 248.5,-218.06 248.5,-210.71"/>
<polygon fill="midnightblue" stroke="midnightblue" points="245,-238.41 248.5,-248.41 252,-238.41 245,-238.41"/>
</g>
<!-- Node4 -->
<g id="node4" class="node">
<title>Node4</title>
<g id="a_node4"><a xlink:href="classObjet__U.html" target="_top" xlink:title="classe Objet_U Cette classe est la classe de base des Objets de TRUST Dans les classes derivees de Ob...">
<polygon fill="white" stroke="black" points="220.5,-305.5 220.5,-324.5 276.5,-324.5 276.5,-305.5 220.5,-305.5"/>
<text text-anchor="middle" x="248.5" y="-312.5" font-family="Helvetica,sans-Serif" font-size="10.00">Objet_U</text>
</a>
</g>
</g>
<!-- Node4&#45;&gt;Node3 -->
<g id="edge3" class="edge">
<title>Node4&#45;&gt;Node3</title>
<path fill="none" stroke="midnightblue" d="M248.5,-295.12C248.5,-285.82 248.5,-275.06 248.5,-267.71"/>
<polygon fill="midnightblue" stroke="midnightblue" points="245,-295.41 248.5,-305.41 252,-295.41 245,-295.41"/>
</g>
<!-- Node5 -->
<g id="node5" class="node">
<title>Node5</title>
<g id="a_node5"><a xlink:href="classProcess.html" target="_top" xlink:title="Classe de base de TRUST (notamment Objet_U). Elle fournit quelques services de base accessibles de pa...">
<polygon fill="white" stroke="black" points="221.5,-362.5 221.5,-381.5 275.5,-381.5 275.5,-362.5 221.5,-362.5"/>
<text text-anchor="middle" x="248.5" y="-369.5" font-family="Helvetica,sans-Serif" font-size="10.00">Process</text>
</a>
</g>
</g>
<!-- Node5&#45;&gt;Node4 -->
<g id="edge4" class="edge">
<title>Node5&#45;&gt;Node4</title>
<path fill="none" stroke="midnightblue" d="M248.5,-352.12C248.5,-342.82 248.5,-332.06 248.5,-324.71"/>
<polygon fill="midnightblue" stroke="midnightblue" points="245,-352.41 248.5,-362.41 252,-352.41 245,-352.41"/>
</g>
<!-- Node7 -->
<g id="node7" class="node">
<title>Node7</title>
<g id="a_node7"><a xlink:href="classTRUSTTabFT.html" target="_top" xlink:title=" ">
<polygon fill="white" stroke="black" points="119.5,-0.5 119.5,-19.5 253.5,-19.5 253.5,-0.5 119.5,-0.5"/>
<text text-anchor="middle" x="186.5" y="-7.5" font-family="Helvetica,sans-Serif" font-size="10.00">TRUSTTabFT&lt; _TYPE_ &gt;</text>
</a>
</g>
</g>
<!-- Node6&#45;&gt;Node7 -->
<g id="edge6" class="edge">
<title>Node6&#45;&gt;Node7</title>
<path fill="none" stroke="midnightblue" d="M233.24,-60C221.08,-47.25 204.52,-29.89 194.73,-19.63"/>
<polygon fill="midnightblue" stroke="midnightblue" points="230.7,-62.41 240.14,-67.23 235.77,-57.58 230.7,-62.41"/>
</g>
<!-- Node8 -->
<g id="node8" class="node">
<title>Node8</title>
<g id="a_node8"><a xlink:href="classTRUSTTrav.html" target="_top" xlink:title=": Tableau de travail a n entrees pour n&lt;= 4 C&#39;est un TRUSTTab avec allocation dans un pool de memoire...">
<polygon fill="white" stroke="black" points="271.5,-0.5 271.5,-19.5 397.5,-19.5 397.5,-0.5 271.5,-0.5"/>
<text text-anchor="middle" x="334.5" y="-7.5" font-family="Helvetica,sans-Serif" font-size="10.00">TRUSTTrav&lt; _TYPE_ &gt;</text>
</a>
</g>
</g>
<!-- Node6&#45;&gt;Node8 -->
<g id="edge7" class="edge">
<title>Node6&#45;&gt;Node8</title>
<path fill="none" stroke="midnightblue" d="M268.26,-61.07C285.23,-48.24 309.12,-30.19 323.09,-19.63"/>
<polygon fill="midnightblue" stroke="midnightblue" points="265.97,-58.41 260.1,-67.23 270.19,-64 265.97,-58.41"/>
</g>
<!-- Node9 -->
<g id="node9" class="node">
<title>Node9</title>
<g id="a_node9"><a xlink:href="classTRUSTTab.html" target="_top" xlink:title=" ">
<polygon fill="white" stroke="black" points="0,-0.5 0,-19.5 101,-19.5 101,-0.5 0,-0.5"/>
<text text-anchor="middle" x="50.5" y="-7.5" font-family="Helvetica,sans-Serif" font-size="10.00">TRUSTTab&lt; int &gt;</text>
</a>
</g>
</g>
<!-- Node6&#45;&gt;Node9 -->
<g id="edge8" class="edge">
<title>Node6&#45;&gt;Node9</title>
<path fill="none" stroke="orange" stroke-dasharray="5,2" d="M212.5,-64.18C173.26,-51.3 111.41,-31 76.59,-19.56"/>
<polygon fill="orange" stroke="orange" points="211.61,-67.57 222.21,-67.37 213.8,-60.92 211.61,-67.57"/>
<text text-anchor="middle" x="181" y="-41" font-family="Helvetica,sans-Serif" font-size="10.00"> &lt; int &gt;</text>
</g>
<!-- Node10 -->
<g id="node10" class="node">
<title>Node10</title>
<g id="a_node10"><a xlink:href="classTRUSTTab.html" target="_top" xlink:title=" ">
<polygon fill="white" stroke="black" points="416,-0.5 416,-19.5 537,-19.5 537,-0.5 416,-0.5"/>
<text text-anchor="middle" x="476.5" y="-7.5" font-family="Helvetica,sans-Serif" font-size="10.00">TRUSTTab&lt; double &gt;</text>
</a>
</g>
</g>
<!-- Node6&#45;&gt;Node10 -->
<g id="edge9" class="edge">
<title>Node6&#45;&gt;Node10</title>
<path fill="none" stroke="orange" stroke-dasharray="5,2" d="M288.52,-64.59C333.62,-51.73 405.93,-31.12 446.46,-19.56"/>
<polygon fill="orange" stroke="orange" points="287.43,-61.26 278.78,-67.37 289.35,-67.99 287.43,-61.26"/>
<text text-anchor="middle" x="405" y="-41" font-family="Helvetica,sans-Serif" font-size="10.00"> &lt; double &gt;</text>
</g>
<!-- Node11&#45;&gt;Node9 -->
<g id="edge11" class="edge">
<title>Node11&#45;&gt;Node9</title>
<path fill="none" stroke="midnightblue" d="M98.83,-60.1C95.08,-56.47 91.14,-52.62 87.5,-49 77.45,-39 66.1,-27.28 58.65,-19.53"/>
<polygon fill="midnightblue" stroke="midnightblue" points="96.46,-62.67 106.1,-67.07 101.31,-57.62 96.46,-62.67"/>
</g>
<!-- Node12&#45;&gt;Node10 -->
<g id="edge13" class="edge">
<title>Node12&#45;&gt;Node10</title>
<path fill="none" stroke="midnightblue" d="M447.25,-58.53C454.99,-45.95 465.11,-29.51 471.19,-19.63"/>
<polygon fill="midnightblue" stroke="midnightblue" points="444.15,-56.88 441.89,-67.23 450.12,-60.55 444.15,-56.88"/>
</g>
</g>
</svg>
