<?xml version="1.0" encoding="UTF-8" standalone="no"?>
<!DOCTYPE svg PUBLIC "-//W3C//DTD SVG 1.1//EN"
 "http://www.w3.org/Graphics/SVG/1.1/DTD/svg11.dtd">
<!-- Generated by graphviz version 2.43.0 (0)
 -->
<!-- Title: Terme_Puissance_Thermique_PolyMAC_base Pages: 1 -->
<svg width="366pt" height="330pt"
 viewBox="0.00 0.00 366.00 330.00" xmlns="http://www.w3.org/2000/svg" xmlns:xlink="http://www.w3.org/1999/xlink">
<g id="graph0" class="graph" transform="scale(1 1) rotate(0) translate(4 326)">
<title>Terme_Puissance_Thermique_PolyMAC_base</title>
<polygon fill="white" stroke="transparent" points="-4,4 -4,-326 362,-326 362,4 -4,4"/>
<!-- Node1 -->
<g id="node1" class="node">
<title>Node1</title>
<g id="a_node1"><a xlink:title=" ">
<polygon fill="#bfbfbf" stroke="black" points="89,-67.5 89,-97.5 247,-97.5 247,-67.5 89,-67.5"/>
<text text-anchor="start" x="97" y="-85.5" font-family="Helvetica,sans-Serif" font-size="10.00">Terme_Puissance_Thermique</text>
<text text-anchor="middle" x="168" y="-74.5" font-family="Helvetica,sans-Serif" font-size="10.00">_PolyMAC_base</text>
</a>
</g>
</g>
<!-- Node9 -->
<g id="node9" class="node">
<title>Node9</title>
<g id="a_node9"><a xlink:href="classTerme__Puissance__Thermique__PolyMAC__Elem.html" target="_top" xlink:title="class Terme_Puissance_Thermique_PolyMAC_Elem Cette classe represente un terme source de l&#39;equation de...">
<polygon fill="white" stroke="black" points="89,-0.5 89,-30.5 247,-30.5 247,-0.5 89,-0.5"/>
<text text-anchor="start" x="97" y="-18.5" font-family="Helvetica,sans-Serif" font-size="10.00">Terme_Puissance_Thermique</text>
<text text-anchor="middle" x="168" y="-7.5" font-family="Helvetica,sans-Serif" font-size="10.00">_PolyMAC_Elem</text>
</a>
</g>
</g>
<!-- Node1&#45;&gt;Node9 -->
<g id="edge8" class="edge">
<title>Node1&#45;&gt;Node9</title>
<path fill="none" stroke="midnightblue" d="M168,-57.11C168,-48.15 168,-38.32 168,-30.58"/>
<polygon fill="midnightblue" stroke="midnightblue" points="164.5,-57.4 168,-67.4 171.5,-57.4 164.5,-57.4"/>
</g>
<!-- Node2 -->
<g id="node2" class="node">
<title>Node2</title>
<g id="a_node2"><a xlink:href="classTerme__Puissance__Thermique.html" target="_top" xlink:title="Classe Terme_Puissance_Thermique Cette classe represente un terme source de l&#39;equation de la thermiqu...">
<polygon fill="white" stroke="black" points="0,-134.5 0,-153.5 158,-153.5 158,-134.5 0,-134.5"/>
<text text-anchor="middle" x="79" y="-141.5" font-family="Helvetica,sans-Serif" font-size="10.00">Terme_Puissance_Thermique</text>
</a>
</g>
</g>
<!-- Node2&#45;&gt;Node1 -->
<g id="edge1" class="edge">
<title>Node2&#45;&gt;Node1</title>
<path fill="none" stroke="midnightblue" d="M100.33,-128.74C114.48,-119.28 132.95,-106.93 147.02,-97.52"/>
<polygon fill="midnightblue" stroke="midnightblue" points="98.12,-126.01 91.75,-134.48 102.01,-131.83 98.12,-126.01"/>
</g>
<!-- Node3 -->
<g id="node3" class="node">
<title>Node3</title>
<g id="a_node3"><a xlink:href="classTerme__Source__PolyMAC__base.html" target="_top" xlink:title="PolyMAC implementation of Source_base class.">
<polygon fill="white" stroke="black" points="176,-134.5 176,-153.5 338,-153.5 338,-134.5 176,-134.5"/>
<text text-anchor="middle" x="257" y="-141.5" font-family="Helvetica,sans-Serif" font-size="10.00">Terme_Source_PolyMAC_base</text>
</a>
</g>
</g>
<!-- Node3&#45;&gt;Node1 -->
<g id="edge2" class="edge">
<title>Node3&#45;&gt;Node1</title>
<path fill="none" stroke="midnightblue" d="M235.67,-128.74C221.52,-119.28 203.05,-106.93 188.98,-97.52"/>
<polygon fill="midnightblue" stroke="midnightblue" points="233.99,-131.83 244.25,-134.48 237.88,-126.01 233.99,-131.83"/>
</g>
<!-- Node4 -->
<g id="node4" class="node">
<title>Node4</title>
<g id="a_node4"><a xlink:href="classSource__base.html" target="_top" xlink:title="classe Source_base Un objet Source_base est un terme apparaissant au second membre d&#39;une equation....">
<polygon fill="white" stroke="black" points="218,-190.5 218,-209.5 296,-209.5 296,-190.5 218,-190.5"/>
<text text-anchor="middle" x="257" y="-197.5" font-family="Helvetica,sans-Serif" font-size="10.00">Source_base</text>
</a>
</g>
</g>
<!-- Node4&#45;&gt;Node3 -->
<g id="edge3" class="edge">
<title>Node4&#45;&gt;Node3</title>
<path fill="none" stroke="midnightblue" d="M257,-179.8C257,-170.91 257,-160.78 257,-153.75"/>
<polygon fill="midnightblue" stroke="midnightblue" points="253.5,-180.08 257,-190.08 260.5,-180.08 253.5,-180.08"/>
</g>
<!-- Node5 -->
<g id="node5" class="node">
<title>Node5</title>
<g id="a_node5"><a xlink:href="classChamps__compris__interface.html" target="_top" xlink:title="classe Champs_compris_interface Cette classe contient une interface de methodes destinees a gerer les...">
<polygon fill="white" stroke="black" points="63.5,-246.5 63.5,-265.5 212.5,-265.5 212.5,-246.5 63.5,-246.5"/>
<text text-anchor="middle" x="138" y="-253.5" font-family="Helvetica,sans-Serif" font-size="10.00">Champs_compris_interface</text>
</a>
</g>
</g>
<!-- Node5&#45;&gt;Node4 -->
<g id="edge4" class="edge">
<title>Node5&#45;&gt;Node4</title>
<path fill="none" stroke="midnightblue" d="M166.14,-242.23C188.4,-232.13 218.86,-218.31 238.23,-209.52"/>
<polygon fill="midnightblue" stroke="midnightblue" points="164.52,-239.12 156.86,-246.44 167.41,-245.5 164.52,-239.12"/>
</g>
<!-- Node6 -->
<g id="node6" class="node">
<title>Node6</title>
<g id="a_node6"><a xlink:href="classMorEqn.html" target="_top" xlink:title="classe MorEqn Classe qui regroupe les fonctionnalites de liaison avec une Equation....">
<polygon fill="white" stroke="black" points="230.5,-246.5 230.5,-265.5 283.5,-265.5 283.5,-246.5 230.5,-246.5"/>
<text text-anchor="middle" x="257" y="-253.5" font-family="Helvetica,sans-Serif" font-size="10.00">MorEqn</text>
</a>
</g>
</g>
<!-- Node6&#45;&gt;Node4 -->
<g id="edge5" class="edge">
<title>Node6&#45;&gt;Node4</title>
<path fill="none" stroke="midnightblue" d="M257,-235.8C257,-226.91 257,-216.78 257,-209.75"/>
<polygon fill="midnightblue" stroke="midnightblue" points="253.5,-236.08 257,-246.08 260.5,-236.08 253.5,-236.08"/>
</g>
<!-- Node7 -->
<g id="node7" class="node">
<title>Node7</title>
<g id="a_node7"><a xlink:href="classObjet__U.html" target="_top" xlink:title="classe Objet_U Cette classe est la classe de base des Objets de TRUST Dans les classes derivees de Ob...">
<polygon fill="white" stroke="black" points="302,-246.5 302,-265.5 358,-265.5 358,-246.5 302,-246.5"/>
<text text-anchor="middle" x="330" y="-253.5" font-family="Helvetica,sans-Serif" font-size="10.00">Objet_U</text>
</a>
</g>
</g>
<!-- Node7&#45;&gt;Node4 -->
<g id="edge6" class="edge">
<title>Node7&#45;&gt;Node4</title>
<path fill="none" stroke="midnightblue" d="M309.86,-240.1C296.72,-230.38 280.02,-218.03 268.94,-209.83"/>
<polygon fill="midnightblue" stroke="midnightblue" points="308.15,-243.19 318.27,-246.32 312.31,-237.56 308.15,-243.19"/>
</g>
<!-- Node8 -->
<g id="node8" class="node">
<title>Node8</title>
<g id="a_node8"><a xlink:href="classProcess.html" target="_top" xlink:title="Classe de base de TRUST (notamment Objet_U). Elle fournit quelques services de base accessibles de pa...">
<polygon fill="white" stroke="black" points="303,-302.5 303,-321.5 357,-321.5 357,-302.5 303,-302.5"/>
<text text-anchor="middle" x="330" y="-309.5" font-family="Helvetica,sans-Serif" font-size="10.00">Process</text>
</a>
</g>
</g>
<!-- Node8&#45;&gt;Node7 -->
<g id="edge7" class="edge">
<title>Node8&#45;&gt;Node7</title>
<path fill="none" stroke="midnightblue" d="M330,-291.8C330,-282.91 330,-272.78 330,-265.75"/>
<polygon fill="midnightblue" stroke="midnightblue" points="326.5,-292.08 330,-302.08 333.5,-292.08 326.5,-292.08"/>
</g>
</g>
</svg>
