<?xml version="1.0" encoding="UTF-8" standalone="no"?>
<!DOCTYPE svg PUBLIC "-//W3C//DTD SVG 1.1//EN"
 "http://www.w3.org/Graphics/SVG/1.1/DTD/svg11.dtd">
<!-- Generated by graphviz version 2.43.0 (0)
 -->
<!-- Title: Frottement_impose_base Pages: 1 -->
<svg width="286pt" height="319pt"
 viewBox="0.00 0.00 286.00 319.00" xmlns="http://www.w3.org/2000/svg" xmlns:xlink="http://www.w3.org/1999/xlink">
<g id="graph0" class="graph" transform="scale(1 1) rotate(0) translate(4 315)">
<title>Frottement_impose_base</title>
<polygon fill="white" stroke="transparent" points="-4,4 -4,-315 282,-315 282,4 -4,4"/>
<!-- Node1 -->
<g id="node1" class="node">
<title>Node1</title>
<g id="a_node1"><a xlink:title="Classe Frottement_impose_base Classe de base pour des conditions aux limites de type Navier (v....">
<polygon fill="#bfbfbf" stroke="black" points="60.5,-67.5 60.5,-86.5 200.5,-86.5 200.5,-67.5 60.5,-67.5"/>
<text text-anchor="middle" x="130.5" y="-74.5" font-family="Helvetica,sans-Serif" font-size="10.00">Frottement_impose_base</text>
</a>
</g>
</g>
<!-- Node6 -->
<g id="node6" class="node">
<title>Node6</title>
<g id="a_node6"><a xlink:href="classFrottement__externe__impose.html" target="_top" xlink:title="Classe Frottement_externe_impose Classe de base pour des conditions aux limites de type Navier (v....">
<polygon fill="white" stroke="black" points="0,-0.5 0,-30.5 113,-30.5 113,-0.5 0,-0.5"/>
<text text-anchor="start" x="8" y="-18.5" font-family="Helvetica,sans-Serif" font-size="10.00">Frottement_externe</text>
<text text-anchor="middle" x="56.5" y="-7.5" font-family="Helvetica,sans-Serif" font-size="10.00">_impose</text>
</a>
</g>
</g>
<!-- Node1&#45;&gt;Node6 -->
<g id="edge5" class="edge">
<title>Node1&#45;&gt;Node6</title>
<path fill="none" stroke="midnightblue" d="M112.09,-61.2C100.42,-51.81 85.42,-39.75 73.94,-30.52"/>
<polygon fill="midnightblue" stroke="midnightblue" points="109.91,-63.94 119.9,-67.48 114.3,-58.48 109.91,-63.94"/>
</g>
<!-- Node7 -->
<g id="node7" class="node">
<title>Node7</title>
<g id="a_node7"><a xlink:href="classFrottement__global__impose.html" target="_top" xlink:title="Classe Frottement_global_impose Classe de base pour des conditions aux limites de type Navier (v....">
<polygon fill="white" stroke="black" points="131,-6 131,-25 278,-25 278,-6 131,-6"/>
<text text-anchor="middle" x="204.5" y="-13" font-family="Helvetica,sans-Serif" font-size="10.00">Frottement_global_impose</text>
</a>
</g>
</g>
<!-- Node1&#45;&gt;Node7 -->
<g id="edge6" class="edge">
<title>Node1&#45;&gt;Node7</title>
<path fill="none" stroke="midnightblue" d="M149.19,-60.97C163.34,-49.59 182.28,-34.37 193.92,-25.01"/>
<polygon fill="midnightblue" stroke="midnightblue" points="146.7,-58.48 141.1,-67.48 151.09,-63.94 146.7,-58.48"/>
</g>
<!-- Node2 -->
<g id="node2" class="node">
<title>Node2</title>
<g id="a_node2"><a xlink:href="classNavier.html" target="_top" xlink:title="classe Navier Condition aux limites sur la vitesse de type &quot;Navier&quot; : &#45; composante normale de la vite...">
<polygon fill="white" stroke="black" points="106,-123.5 106,-142.5 155,-142.5 155,-123.5 106,-123.5"/>
<text text-anchor="middle" x="130.5" y="-130.5" font-family="Helvetica,sans-Serif" font-size="10.00">Navier</text>
</a>
</g>
</g>
<!-- Node2&#45;&gt;Node1 -->
<g id="edge1" class="edge">
<title>Node2&#45;&gt;Node1</title>
<path fill="none" stroke="midnightblue" d="M130.5,-112.8C130.5,-103.91 130.5,-93.78 130.5,-86.75"/>
<polygon fill="midnightblue" stroke="midnightblue" points="127,-113.08 130.5,-123.08 134,-113.08 127,-113.08"/>
</g>
<!-- Node3 -->
<g id="node3" class="node">
<title>Node3</title>
<g id="a_node3"><a xlink:href="classCond__lim__base.html" target="_top" xlink:title="classe Cond_lim_base Classe de base pour la hierarchie des classes qui representent les differentes c...">
<polygon fill="white" stroke="black" points="85,-179.5 85,-198.5 176,-198.5 176,-179.5 85,-179.5"/>
<text text-anchor="middle" x="130.5" y="-186.5" font-family="Helvetica,sans-Serif" font-size="10.00">Cond_lim_base</text>
</a>
</g>
</g>
<!-- Node3&#45;&gt;Node2 -->
<g id="edge2" class="edge">
<title>Node3&#45;&gt;Node2</title>
<path fill="none" stroke="midnightblue" d="M130.5,-168.8C130.5,-159.91 130.5,-149.78 130.5,-142.75"/>
<polygon fill="midnightblue" stroke="midnightblue" points="127,-169.08 130.5,-179.08 134,-169.08 127,-169.08"/>
</g>
<!-- Node4 -->
<g id="node4" class="node">
<title>Node4</title>
<g id="a_node4"><a xlink:href="classObjet__U.html" target="_top" xlink:title="classe Objet_U Cette classe est la classe de base des Objets de TRUST Dans les classes derivees de Ob...">
<polygon fill="white" stroke="black" points="102.5,-235.5 102.5,-254.5 158.5,-254.5 158.5,-235.5 102.5,-235.5"/>
<text text-anchor="middle" x="130.5" y="-242.5" font-family="Helvetica,sans-Serif" font-size="10.00">Objet_U</text>
</a>
</g>
</g>
<!-- Node4&#45;&gt;Node3 -->
<g id="edge3" class="edge">
<title>Node4&#45;&gt;Node3</title>
<path fill="none" stroke="midnightblue" d="M130.5,-224.8C130.5,-215.91 130.5,-205.78 130.5,-198.75"/>
<polygon fill="midnightblue" stroke="midnightblue" points="127,-225.08 130.5,-235.08 134,-225.08 127,-225.08"/>
</g>
<!-- Node5 -->
<g id="node5" class="node">
<title>Node5</title>
<g id="a_node5"><a xlink:href="classProcess.html" target="_top" xlink:title="Classe de base de TRUST (notamment Objet_U). Elle fournit quelques services de base accessibles de pa...">
<polygon fill="white" stroke="black" points="103.5,-291.5 103.5,-310.5 157.5,-310.5 157.5,-291.5 103.5,-291.5"/>
<text text-anchor="middle" x="130.5" y="-298.5" font-family="Helvetica,sans-Serif" font-size="10.00">Process</text>
</a>
</g>
</g>
<!-- Node5&#45;&gt;Node4 -->
<g id="edge4" class="edge">
<title>Node5&#45;&gt;Node4</title>
<path fill="none" stroke="midnightblue" d="M130.5,-280.8C130.5,-271.91 130.5,-261.78 130.5,-254.75"/>
<polygon fill="midnightblue" stroke="midnightblue" points="127,-281.08 130.5,-291.08 134,-281.08 127,-281.08"/>
</g>
</g>
</svg>
