<?xml version="1.0" encoding="UTF-8" standalone="no"?>
<!DOCTYPE svg PUBLIC "-//W3C//DTD SVG 1.1//EN"
 "http://www.w3.org/Graphics/SVG/1.1/DTD/svg11.dtd">
<!-- Generated by graphviz version 2.43.0 (0)
 -->
<!-- Title: Op_Diff_negligeable Pages: 1 -->
<svg width="343pt" height="319pt"
 viewBox="0.00 0.00 342.50 319.00" xmlns="http://www.w3.org/2000/svg" xmlns:xlink="http://www.w3.org/1999/xlink">
<g id="graph0" class="graph" transform="scale(1 1) rotate(0) translate(4 315)">
<title>Op_Diff_negligeable</title>
<polygon fill="white" stroke="transparent" points="-4,4 -4,-315 338.5,-315 338.5,4 -4,4"/>
<!-- Node1 -->
<g id="node1" class="node">
<title>Node1</title>
<g id="a_node1"><a xlink:title="Classe Op_Diff_negligeable Cette classe represente un operateur de diffusion negligeable....">
<polygon fill="#bfbfbf" stroke="black" points="76.5,-56.5 76.5,-75.5 191.5,-75.5 191.5,-56.5 76.5,-56.5"/>
<text text-anchor="middle" x="134" y="-63.5" font-family="Helvetica,sans-Serif" font-size="10.00">Op_Diff_negligeable</text>
</a>
</g>
</g>
<!-- Node10 -->
<g id="node10" class="node">
<title>Node10</title>
<g id="a_node10"><a xlink:href="classOp__Dift__negligeable.html" target="_top" xlink:title=" ">
<polygon fill="white" stroke="black" points="76.5,-0.5 76.5,-19.5 191.5,-19.5 191.5,-0.5 76.5,-0.5"/>
<text text-anchor="middle" x="134" y="-7.5" font-family="Helvetica,sans-Serif" font-size="10.00">Op_Dift_negligeable</text>
</a>
</g>
</g>
<!-- Node1&#45;&gt;Node10 -->
<g id="edge9" class="edge">
<title>Node1&#45;&gt;Node10</title>
<path fill="none" stroke="midnightblue" d="M134,-45.8C134,-36.91 134,-26.78 134,-19.75"/>
<polygon fill="midnightblue" stroke="midnightblue" points="130.5,-46.08 134,-56.08 137.5,-46.08 130.5,-46.08"/>
</g>
<!-- Node2 -->
<g id="node2" class="node">
<title>Node2</title>
<g id="a_node2"><a xlink:href="classOperateur__negligeable.html" target="_top" xlink:title="Classe Opnegligeable Cette classe definit l&#39;interface d&#39;un operateur negligeable en definissant des m...">
<polygon fill="white" stroke="black" points="0,-112.5 0,-131.5 128,-131.5 128,-112.5 0,-112.5"/>
<text text-anchor="middle" x="64" y="-119.5" font-family="Helvetica,sans-Serif" font-size="10.00">Operateur_negligeable</text>
</a>
</g>
</g>
<!-- Node2&#45;&gt;Node1 -->
<g id="edge1" class="edge">
<title>Node2&#45;&gt;Node1</title>
<path fill="none" stroke="midnightblue" d="M83.31,-106.1C95.91,-96.38 111.93,-84.03 122.55,-75.83"/>
<polygon fill="midnightblue" stroke="midnightblue" points="81.03,-103.44 75.25,-112.32 85.3,-108.99 81.03,-103.44"/>
</g>
<!-- Node3 -->
<g id="node3" class="node">
<title>Node3</title>
<g id="a_node3"><a xlink:href="classOperateur__Diff__base.html" target="_top" xlink:title="classe Operateur_Diff_base Cette classe est la base de la hierarchie des operateurs representant un t...">
<polygon fill="white" stroke="black" points="146,-112.5 146,-131.5 262,-131.5 262,-112.5 146,-112.5"/>
<text text-anchor="middle" x="204" y="-119.5" font-family="Helvetica,sans-Serif" font-size="10.00">Operateur_Diff_base</text>
</a>
</g>
</g>
<!-- Node3&#45;&gt;Node1 -->
<g id="edge2" class="edge">
<title>Node3&#45;&gt;Node1</title>
<path fill="none" stroke="midnightblue" d="M184.69,-106.1C172.09,-96.38 156.07,-84.03 145.45,-75.83"/>
<polygon fill="midnightblue" stroke="midnightblue" points="182.7,-108.99 192.75,-112.32 186.97,-103.44 182.7,-108.99"/>
</g>
<!-- Node4 -->
<g id="node4" class="node">
<title>Node4</title>
<g id="a_node4"><a xlink:href="classOperateur__base.html" target="_top" xlink:title="classe Operateur_base Classe est la base de la hierarchie des objets representant un operateur utilis...">
<polygon fill="white" stroke="black" points="91,-174 91,-193 185,-193 185,-174 91,-174"/>
<text text-anchor="middle" x="138" y="-181" font-family="Helvetica,sans-Serif" font-size="10.00">Operateur_base</text>
</a>
</g>
</g>
<!-- Node4&#45;&gt;Node3 -->
<g id="edge3" class="edge">
<title>Node4&#45;&gt;Node3</title>
<path fill="none" stroke="midnightblue" d="M155.03,-167.15C167.61,-155.81 184.28,-140.78 194.56,-131.51"/>
<polygon fill="midnightblue" stroke="midnightblue" points="152.54,-164.68 147.46,-173.98 157.23,-169.88 152.54,-164.68"/>
</g>
<!-- Node5 -->
<g id="node5" class="node">
<title>Node5</title>
<g id="a_node5"><a xlink:href="classObjet__U.html" target="_top" xlink:title="classe Objet_U Cette classe est la classe de base des Objets de TRUST Dans les classes derivees de Ob...">
<polygon fill="white" stroke="black" points="37,-235.5 37,-254.5 93,-254.5 93,-235.5 37,-235.5"/>
<text text-anchor="middle" x="65" y="-242.5" font-family="Helvetica,sans-Serif" font-size="10.00">Objet_U</text>
</a>
</g>
</g>
<!-- Node5&#45;&gt;Node4 -->
<g id="edge4" class="edge">
<title>Node5&#45;&gt;Node4</title>
<path fill="none" stroke="midnightblue" d="M83.44,-228.97C97.4,-217.59 116.08,-202.37 127.56,-193.01"/>
<polygon fill="midnightblue" stroke="midnightblue" points="81,-226.44 75.46,-235.48 85.42,-231.87 81,-226.44"/>
</g>
<!-- Node6 -->
<g id="node6" class="node">
<title>Node6</title>
<g id="a_node6"><a xlink:href="classProcess.html" target="_top" xlink:title="Classe de base de TRUST (notamment Objet_U). Elle fournit quelques services de base accessibles de pa...">
<polygon fill="white" stroke="black" points="38,-291.5 38,-310.5 92,-310.5 92,-291.5 38,-291.5"/>
<text text-anchor="middle" x="65" y="-298.5" font-family="Helvetica,sans-Serif" font-size="10.00">Process</text>
</a>
</g>
</g>
<!-- Node6&#45;&gt;Node5 -->
<g id="edge5" class="edge">
<title>Node6&#45;&gt;Node5</title>
<path fill="none" stroke="midnightblue" d="M65,-280.8C65,-271.91 65,-261.78 65,-254.75"/>
<polygon fill="midnightblue" stroke="midnightblue" points="61.5,-281.08 65,-291.08 68.5,-281.08 61.5,-281.08"/>
</g>
<!-- Node7 -->
<g id="node7" class="node">
<title>Node7</title>
<g id="a_node7"><a xlink:href="classMorEqn.html" target="_top" xlink:title="classe MorEqn Classe qui regroupe les fonctionnalites de liaison avec une Equation....">
<polygon fill="white" stroke="black" points="111.5,-235.5 111.5,-254.5 164.5,-254.5 164.5,-235.5 111.5,-235.5"/>
<text text-anchor="middle" x="138" y="-242.5" font-family="Helvetica,sans-Serif" font-size="10.00">MorEqn</text>
</a>
</g>
</g>
<!-- Node7&#45;&gt;Node4 -->
<g id="edge6" class="edge">
<title>Node7&#45;&gt;Node4</title>
<path fill="none" stroke="midnightblue" d="M138,-225.32C138,-214.5 138,-201.4 138,-193.01"/>
<polygon fill="midnightblue" stroke="midnightblue" points="134.5,-225.48 138,-235.48 141.5,-225.48 134.5,-225.48"/>
</g>
<!-- Node8 -->
<g id="node8" class="node">
<title>Node8</title>
<g id="a_node8"><a xlink:href="classChamps__compris__interface.html" target="_top" xlink:title="classe Champs_compris_interface Cette classe contient une interface de methodes destinees a gerer les...">
<polygon fill="white" stroke="black" points="182.5,-235.5 182.5,-254.5 331.5,-254.5 331.5,-235.5 182.5,-235.5"/>
<text text-anchor="middle" x="257" y="-242.5" font-family="Helvetica,sans-Serif" font-size="10.00">Champs_compris_interface</text>
</a>
</g>
</g>
<!-- Node8&#45;&gt;Node4 -->
<g id="edge7" class="edge">
<title>Node8&#45;&gt;Node4</title>
<path fill="none" stroke="midnightblue" d="M230.73,-230.87C207.67,-219.33 174.8,-202.9 155.02,-193.01"/>
<polygon fill="midnightblue" stroke="midnightblue" points="229.44,-234.13 239.95,-235.48 232.57,-227.87 229.44,-234.13"/>
</g>
<!-- Node9 -->
<g id="node9" class="node">
<title>Node9</title>
<g id="a_node9"><a xlink:href="classSupport__Champ__Masse__Volumique.html" target="_top" xlink:title=" ">
<polygon fill="white" stroke="black" points="203.5,-168.5 203.5,-198.5 334.5,-198.5 334.5,-168.5 203.5,-168.5"/>
<text text-anchor="start" x="211.5" y="-186.5" font-family="Helvetica,sans-Serif" font-size="10.00">Support_Champ_Masse</text>
<text text-anchor="middle" x="269" y="-175.5" font-family="Helvetica,sans-Serif" font-size="10.00">_Volumique</text>
</a>
</g>
</g>
<!-- Node9&#45;&gt;Node3 -->
<g id="edge8" class="edge">
<title>Node9&#45;&gt;Node3</title>
<path fill="none" stroke="midnightblue" d="M246.17,-161.6C234.93,-151.32 222.01,-139.48 213.46,-131.66"/>
<polygon fill="midnightblue" stroke="midnightblue" points="243.86,-164.23 253.6,-168.4 248.58,-159.07 243.86,-164.23"/>
</g>
</g>
</svg>
