<?xml version="1.0" encoding="UTF-8" standalone="no"?>
<!DOCTYPE svg PUBLIC "-//W3C//DTD SVG 1.1//EN"
 "http://www.w3.org/Graphics/SVG/1.1/DTD/svg11.dtd">
<!-- Generated by graphviz version 2.43.0 (0)
 -->
<!-- Title: src/Kernel/Geometrie/Connex_components.h Pages: 1 -->
<svg width="269pt" height="151pt"
 viewBox="0.00 0.00 268.50 151.00" xmlns="http://www.w3.org/2000/svg" xmlns:xlink="http://www.w3.org/1999/xlink">
<g id="graph0" class="graph" transform="scale(1 1) rotate(0) translate(4 147)">
<title>src/Kernel/Geometrie/Connex_components.h</title>
<polygon fill="white" stroke="transparent" points="-4,4 -4,-147 264.5,-147 264.5,4 -4,4"/>
<!-- Node1 -->
<g id="node1" class="node">
<title>Node1</title>
<g id="a_node1"><a xlink:title=" ">
<polygon fill="#bfbfbf" stroke="black" points="106,-112.5 106,-142.5 237,-142.5 237,-112.5 106,-112.5"/>
<text text-anchor="start" x="114" y="-130.5" font-family="Helvetica,sans-Serif" font-size="10.00">src/Kernel/Geometrie</text>
<text text-anchor="middle" x="171.5" y="-119.5" font-family="Helvetica,sans-Serif" font-size="10.00">/Connex_components.h</text>
</a>
</g>
</g>
<!-- Node2 -->
<g id="node2" class="node">
<title>Node2</title>
<g id="a_node2"><a xlink:href="Connectivite__som__elem_8h.html" target="_top" xlink:title=" ">
<polygon fill="white" stroke="black" points="0,-56.5 0,-75.5 143,-75.5 143,-56.5 0,-56.5"/>
<text text-anchor="middle" x="71.5" y="-63.5" font-family="Helvetica,sans-Serif" font-size="10.00">Connectivite_som_elem.h</text>
</a>
</g>
</g>
<!-- Node1&#45;&gt;Node2 -->
<g id="edge1" class="edge">
<title>Node1&#45;&gt;Node2</title>
<path fill="none" stroke="midnightblue" d="M147.8,-112.4C131.77,-102.86 110.7,-90.32 94.76,-80.84"/>
<polygon fill="midnightblue" stroke="midnightblue" points="96.43,-77.76 86.05,-75.66 92.86,-83.78 96.43,-77.76"/>
</g>
<!-- Node3 -->
<g id="node3" class="node">
<title>Node3</title>
<g id="a_node3"><a xlink:href="TRUSTTabs__forward_8h.html" target="_top" xlink:title=" ">
<polygon fill="white" stroke="black" points="28.5,-0.5 28.5,-19.5 150.5,-19.5 150.5,-0.5 28.5,-0.5"/>
<text text-anchor="middle" x="89.5" y="-7.5" font-family="Helvetica,sans-Serif" font-size="10.00">TRUSTTabs_forward.h</text>
</a>
</g>
</g>
<!-- Node1&#45;&gt;Node3 -->
<g id="edge3" class="edge">
<title>Node1&#45;&gt;Node3</title>
<path fill="none" stroke="midnightblue" d="M170.5,-112.35C168.82,-97.21 164.36,-73.08 152.5,-56 143.37,-42.85 129.1,-32.2 116.45,-24.56"/>
<polygon fill="midnightblue" stroke="midnightblue" points="118.04,-21.44 107.62,-19.54 114.58,-27.53 118.04,-21.44"/>
</g>
<!-- Node4 -->
<g id="node4" class="node">
<title>Node4</title>
<g id="a_node4"><a xlink:href="arch_8h.html" target="_top" xlink:title=" ">
<polygon fill="white" stroke="black" points="200,-56.5 200,-75.5 247,-75.5 247,-56.5 200,-56.5"/>
<text text-anchor="middle" x="223.5" y="-63.5" font-family="Helvetica,sans-Serif" font-size="10.00">arch.h</text>
</a>
</g>
</g>
<!-- Node1&#45;&gt;Node4 -->
<g id="edge4" class="edge">
<title>Node1&#45;&gt;Node4</title>
<path fill="none" stroke="midnightblue" d="M183.82,-112.4C191.46,-103.66 201.29,-92.41 209.26,-83.3"/>
<polygon fill="midnightblue" stroke="midnightblue" points="211.99,-85.49 215.93,-75.66 206.72,-80.88 211.99,-85.49"/>
</g>
<!-- Node2&#45;&gt;Node3 -->
<g id="edge2" class="edge">
<title>Node2&#45;&gt;Node3</title>
<path fill="none" stroke="midnightblue" d="M74.47,-56.08C76.88,-48.85 80.36,-38.41 83.37,-29.4"/>
<polygon fill="midnightblue" stroke="midnightblue" points="86.74,-30.34 86.58,-19.75 80.1,-28.13 86.74,-30.34"/>
</g>
<!-- Node5 -->
<g id="node5" class="node">
<title>Node5</title>
<g id="a_node5"><a xlink:href="generique_8h.html" target="_top" xlink:title=" ">
<polygon fill="white" stroke="black" points="186.5,-0.5 186.5,-19.5 260.5,-19.5 260.5,-0.5 186.5,-0.5"/>
<text text-anchor="middle" x="223.5" y="-7.5" font-family="Helvetica,sans-Serif" font-size="10.00">generique.h</text>
</a>
</g>
</g>
<!-- Node4&#45;&gt;Node5 -->
<g id="edge5" class="edge">
<title>Node4&#45;&gt;Node5</title>
<path fill="none" stroke="midnightblue" d="M223.5,-56.08C223.5,-49.01 223.5,-38.86 223.5,-29.99"/>
<polygon fill="midnightblue" stroke="midnightblue" points="227,-29.75 223.5,-19.75 220,-29.75 227,-29.75"/>
</g>
</g>
</svg>
