<?xml version="1.0" encoding="UTF-8" standalone="no"?>
<!DOCTYPE svg PUBLIC "-//W3C//DTD SVG 1.1//EN"
 "http://www.w3.org/Graphics/SVG/1.1/DTD/svg11.dtd">
<!-- Generated by graphviz version 2.43.0 (0)
 -->
<!-- Title: src/Kernel/Geometrie/Connectivite_som_elem.h Pages: 1 -->
<svg width="3996pt" height="184pt"
 viewBox="0.00 0.00 3996.00 184.00" xmlns="http://www.w3.org/2000/svg" xmlns:xlink="http://www.w3.org/1999/xlink">
<g id="graph0" class="graph" transform="scale(1 1) rotate(0) translate(4 180)">
<title>src/Kernel/Geometrie/Connectivite_som_elem.h</title>
<polygon fill="white" stroke="transparent" points="-4,4 -4,-180 3992,-180 3992,4 -4,4"/>
<!-- Node1 -->
<g id="node1" class="node">
<title>Node1</title>
<g id="a_node1"><a xlink:title=" ">
<polygon fill="#bfbfbf" stroke="black" points="1971,-145.5 1971,-175.5 2117,-175.5 2117,-145.5 1971,-145.5"/>
<text text-anchor="start" x="1979" y="-163.5" font-family="Helvetica,sans-Serif" font-size="10.00">src/Kernel/Geometrie</text>
<text text-anchor="middle" x="2044" y="-152.5" font-family="Helvetica,sans-Serif" font-size="10.00">/Connectivite_som_elem.h</text>
</a>
</g>
</g>
<!-- Node2 -->
<g id="node2" class="node">
<title>Node2</title>
<g id="a_node2"><a xlink:href="Assembleur__P__EF_8cpp.html" target="_top" xlink:title=" ">
<polygon fill="white" stroke="black" points="0,-73 0,-103 164,-103 164,-73 0,-73"/>
<text text-anchor="start" x="8" y="-91" font-family="Helvetica,sans-Serif" font-size="10.00">src/EF/Operateurs/Assembleur</text>
<text text-anchor="middle" x="82" y="-80" font-family="Helvetica,sans-Serif" font-size="10.00">_P_EF.cpp</text>
</a>
</g>
</g>
<!-- Node1&#45;&gt;Node2 -->
<g id="edge1" class="edge">
<title>Node1&#45;&gt;Node2</title>
<path fill="none" stroke="midnightblue" d="M1960.5,-159.35C1645.1,-158.44 526.3,-152.2 173,-109 161.6,-107.61 149.52,-105.45 138.02,-103.05"/>
<polygon fill="midnightblue" stroke="midnightblue" points="1960.92,-162.85 1970.93,-159.38 1960.94,-155.85 1960.92,-162.85"/>
</g>
<!-- Node3 -->
<g id="node3" class="node">
<title>Node3</title>
<g id="a_node3"><a xlink:href="Connectivite__som__elem_8cpp.html" target="_top" xlink:title=" ">
<polygon fill="white" stroke="black" points="182,-73 182,-103 340,-103 340,-73 182,-73"/>
<text text-anchor="start" x="190" y="-91" font-family="Helvetica,sans-Serif" font-size="10.00">src/Kernel/Geometrie</text>
<text text-anchor="middle" x="261" y="-80" font-family="Helvetica,sans-Serif" font-size="10.00">/Connectivite_som_elem.cpp</text>
</a>
</g>
</g>
<!-- Node1&#45;&gt;Node3 -->
<g id="edge2" class="edge">
<title>Node1&#45;&gt;Node3</title>
<path fill="none" stroke="midnightblue" d="M1960.75,-159.15C1665.05,-157.59 666.12,-149.37 349,-109 337.97,-107.6 326.28,-105.43 315.16,-103.04"/>
<polygon fill="midnightblue" stroke="midnightblue" points="1960.95,-162.65 1970.97,-159.21 1960.99,-155.65 1960.95,-162.65"/>
</g>
<!-- Node4 -->
<g id="node4" class="node">
<title>Node4</title>
<g id="a_node4"><a xlink:href="Connex__components_8h.html" target="_top" xlink:title=" ">
<polygon fill="white" stroke="black" points="358.5,-73 358.5,-103 489.5,-103 489.5,-73 358.5,-73"/>
<text text-anchor="start" x="366.5" y="-91" font-family="Helvetica,sans-Serif" font-size="10.00">src/Kernel/Geometrie</text>
<text text-anchor="middle" x="424" y="-80" font-family="Helvetica,sans-Serif" font-size="10.00">/Connex_components.h</text>
</a>
</g>
</g>
<!-- Node1&#45;&gt;Node4 -->
<g id="edge3" class="edge">
<title>Node1&#45;&gt;Node4</title>
<path fill="none" stroke="midnightblue" d="M1960.61,-159.28C1681.96,-158.14 784.69,-151.2 499,-109 489.53,-107.6 479.55,-105.44 470.06,-103.05"/>
<polygon fill="midnightblue" stroke="midnightblue" points="1960.64,-162.78 1970.65,-159.32 1960.66,-155.78 1960.64,-162.78"/>
</g>
<!-- Node6 -->
<g id="node6" class="node">
<title>Node6</title>
<g id="a_node6"><a xlink:href="Corriger__frontiere__periodique_8h.html" target="_top" xlink:title=" ">
<polygon fill="white" stroke="black" points="508,-73 508,-103 680,-103 680,-73 508,-73"/>
<text text-anchor="start" x="516" y="-91" font-family="Helvetica,sans-Serif" font-size="10.00">src/Kernel/Geometrie</text>
<text text-anchor="middle" x="594" y="-80" font-family="Helvetica,sans-Serif" font-size="10.00">/Corriger_frontiere_periodique.h</text>
</a>
</g>
</g>
<!-- Node1&#45;&gt;Node6 -->
<g id="edge5" class="edge">
<title>Node1&#45;&gt;Node6</title>
<path fill="none" stroke="midnightblue" d="M1960.35,-158.22C1704.97,-154.03 937.73,-139.21 690,-109 678.17,-107.56 665.63,-105.41 653.66,-103.05"/>
<polygon fill="midnightblue" stroke="midnightblue" points="1960.62,-161.73 1970.68,-158.39 1960.73,-154.73 1960.62,-161.73"/>
</g>
<!-- Node8 -->
<g id="node8" class="node">
<title>Node8</title>
<g id="a_node8"><a xlink:href="Decouper__multi_8cpp.html" target="_top" xlink:title=" ">
<polygon fill="white" stroke="black" points="698.5,-73 698.5,-103 871.5,-103 871.5,-73 698.5,-73"/>
<text text-anchor="start" x="706.5" y="-91" font-family="Helvetica,sans-Serif" font-size="10.00">src/Kernel/Geometrie</text>
<text text-anchor="middle" x="785" y="-80" font-family="Helvetica,sans-Serif" font-size="10.00">/Decoupeur/Decouper_multi.cpp</text>
</a>
</g>
</g>
<!-- Node1&#45;&gt;Node8 -->
<g id="edge7" class="edge">
<title>Node1&#45;&gt;Node8</title>
<path fill="none" stroke="midnightblue" d="M1960.48,-157.63C1730.31,-152.21 1090.11,-135.15 881,-109 869.26,-107.53 856.82,-105.39 844.92,-103.04"/>
<polygon fill="midnightblue" stroke="midnightblue" points="1960.72,-161.14 1970.8,-157.87 1960.88,-154.14 1960.72,-161.14"/>
</g>
<!-- Node9 -->
<g id="node9" class="node">
<title>Node9</title>
<g id="a_node9"><a xlink:href="Domain__Graph_8cpp.html" target="_top" xlink:title=" ">
<polygon fill="white" stroke="black" points="890,-73 890,-103 1058,-103 1058,-73 890,-73"/>
<text text-anchor="start" x="898" y="-91" font-family="Helvetica,sans-Serif" font-size="10.00">src/Kernel/Geometrie</text>
<text text-anchor="middle" x="974" y="-80" font-family="Helvetica,sans-Serif" font-size="10.00">/Decoupeur/Domain_Graph.cpp</text>
</a>
</g>
</g>
<!-- Node1&#45;&gt;Node9 -->
<g id="edge8" class="edge">
<title>Node1&#45;&gt;Node9</title>
<path fill="none" stroke="midnightblue" d="M1960.72,-159.61C1791.68,-158.86 1396.48,-152.17 1068,-109 1056.59,-107.5 1044.5,-105.36 1032.92,-103.02"/>
<polygon fill="midnightblue" stroke="midnightblue" points="1960.78,-163.11 1970.79,-159.65 1960.81,-156.11 1960.78,-163.11"/>
</g>
<!-- Node10 -->
<g id="node10" class="node">
<title>Node10</title>
<g id="a_node10"><a xlink:href="Partitionneur__base_8cpp.html" target="_top" xlink:title=" ">
<polygon fill="white" stroke="black" points="1076.5,-67.5 1076.5,-108.5 1213.5,-108.5 1213.5,-67.5 1076.5,-67.5"/>
<text text-anchor="start" x="1084.5" y="-96.5" font-family="Helvetica,sans-Serif" font-size="10.00">src/Kernel/Geometrie</text>
<text text-anchor="start" x="1084.5" y="-85.5" font-family="Helvetica,sans-Serif" font-size="10.00">/Decoupeur/Partitionneur</text>
<text text-anchor="middle" x="1145" y="-74.5" font-family="Helvetica,sans-Serif" font-size="10.00">_base.cpp</text>
</a>
</g>
</g>
<!-- Node1&#45;&gt;Node10 -->
<g id="edge9" class="edge">
<title>Node1&#45;&gt;Node10</title>
<path fill="none" stroke="midnightblue" d="M1960.3,-159.57C1811.17,-158.53 1490.08,-151.07 1223,-109 1219.96,-108.52 1216.87,-107.98 1213.76,-107.38"/>
<polygon fill="midnightblue" stroke="midnightblue" points="1960.71,-163.07 1970.74,-159.63 1960.76,-156.07 1960.71,-163.07"/>
</g>
<!-- Node11 -->
<g id="node11" class="node">
<title>Node11</title>
<g id="a_node11"><a xlink:href="Distanceparoi_8cpp.html" target="_top" xlink:title=" ">
<polygon fill="white" stroke="black" points="1231.5,-73 1231.5,-103 1350.5,-103 1350.5,-73 1231.5,-73"/>
<text text-anchor="start" x="1239.5" y="-91" font-family="Helvetica,sans-Serif" font-size="10.00">src/Kernel/Geometrie</text>
<text text-anchor="middle" x="1291" y="-80" font-family="Helvetica,sans-Serif" font-size="10.00">/Distanceparoi.cpp</text>
</a>
</g>
</g>
<!-- Node1&#45;&gt;Node11 -->
<g id="edge10" class="edge">
<title>Node1&#45;&gt;Node11</title>
<path fill="none" stroke="midnightblue" d="M1960.76,-158.92C1831.27,-156.78 1574.23,-147.52 1360,-109 1351.65,-107.5 1342.87,-105.38 1334.48,-103.09"/>
<polygon fill="midnightblue" stroke="midnightblue" points="1960.94,-162.43 1970.99,-159.08 1961.05,-155.43 1960.94,-162.43"/>
</g>
<!-- Node12 -->
<g id="node12" class="node">
<title>Node12</title>
<g id="a_node12"><a xlink:href="DomaineCutter_8cpp.html" target="_top" xlink:title=" ">
<polygon fill="white" stroke="black" points="1368.5,-73 1368.5,-103 1487.5,-103 1487.5,-73 1368.5,-73"/>
<text text-anchor="start" x="1376.5" y="-91" font-family="Helvetica,sans-Serif" font-size="10.00">src/Kernel/Geometrie</text>
<text text-anchor="middle" x="1428" y="-80" font-family="Helvetica,sans-Serif" font-size="10.00">/DomaineCutter.cpp</text>
</a>
</g>
</g>
<!-- Node1&#45;&gt;Node12 -->
<g id="edge11" class="edge">
<title>Node1&#45;&gt;Node12</title>
<path fill="none" stroke="midnightblue" d="M1960.67,-156.73C1852.83,-152.02 1659.49,-139.76 1497,-109 1488.79,-107.45 1480.15,-105.34 1471.87,-103.07"/>
<polygon fill="midnightblue" stroke="midnightblue" points="1960.69,-160.23 1970.83,-157.16 1960.99,-153.24 1960.69,-160.23"/>
</g>
<!-- Node13 -->
<g id="node13" class="node">
<title>Node13</title>
<g id="a_node13"><a xlink:href="ExtrudeParoi_8cpp.html" target="_top" xlink:title=" ">
<polygon fill="white" stroke="black" points="1505.5,-73 1505.5,-103 1624.5,-103 1624.5,-73 1505.5,-73"/>
<text text-anchor="start" x="1513.5" y="-91" font-family="Helvetica,sans-Serif" font-size="10.00">src/Kernel/Geometrie</text>
<text text-anchor="middle" x="1565" y="-80" font-family="Helvetica,sans-Serif" font-size="10.00">/ExtrudeParoi.cpp</text>
</a>
</g>
</g>
<!-- Node1&#45;&gt;Node13 -->
<g id="edge12" class="edge">
<title>Node1&#45;&gt;Node13</title>
<path fill="none" stroke="midnightblue" d="M1960.68,-153.16C1877.4,-145.91 1745.95,-131.97 1634,-109 1626.06,-107.37 1617.7,-105.28 1609.65,-103.07"/>
<polygon fill="midnightblue" stroke="midnightblue" points="1960.59,-156.67 1970.85,-154.03 1961.19,-149.69 1960.59,-156.67"/>
</g>
<!-- Node14 -->
<g id="node14" class="node">
<title>Node14</title>
<g id="a_node14"><a xlink:href="Extruder_8cpp.html" target="_top" xlink:title=" ">
<polygon fill="white" stroke="black" points="1642.5,-73 1642.5,-103 1761.5,-103 1761.5,-73 1642.5,-73"/>
<text text-anchor="start" x="1650.5" y="-91" font-family="Helvetica,sans-Serif" font-size="10.00">src/Kernel/Geometrie</text>
<text text-anchor="middle" x="1702" y="-80" font-family="Helvetica,sans-Serif" font-size="10.00">/Extruder.cpp</text>
</a>
</g>
</g>
<!-- Node1&#45;&gt;Node14 -->
<g id="edge13" class="edge">
<title>Node1&#45;&gt;Node14</title>
<path fill="none" stroke="midnightblue" d="M1960.95,-146.34C1906.62,-137.19 1834.25,-123.98 1771,-109 1763.6,-107.25 1755.8,-105.19 1748.23,-103.08"/>
<polygon fill="midnightblue" stroke="midnightblue" points="1960.44,-149.8 1970.88,-148 1961.59,-142.9 1960.44,-149.8"/>
</g>
<!-- Node15 -->
<g id="node15" class="node">
<title>Node15</title>
<g id="a_node15"><a xlink:href="Extruder__en20_8cpp.html" target="_top" xlink:title=" ">
<polygon fill="white" stroke="black" points="1779.5,-73 1779.5,-103 1898.5,-103 1898.5,-73 1779.5,-73"/>
<text text-anchor="start" x="1787.5" y="-91" font-family="Helvetica,sans-Serif" font-size="10.00">src/Kernel/Geometrie</text>
<text text-anchor="middle" x="1839" y="-80" font-family="Helvetica,sans-Serif" font-size="10.00">/Extruder_en20.cpp</text>
</a>
</g>
</g>
<!-- Node1&#45;&gt;Node15 -->
<g id="edge14" class="edge">
<title>Node1&#45;&gt;Node15</title>
<path fill="none" stroke="midnightblue" d="M1993.46,-142.12C1958.5,-130.1 1912.58,-114.31 1879.92,-103.07"/>
<polygon fill="midnightblue" stroke="midnightblue" points="1992.41,-145.46 2003.01,-145.4 1994.69,-138.84 1992.41,-145.46"/>
</g>
<!-- Node16 -->
<g id="node16" class="node">
<title>Node16</title>
<g id="a_node16"><a xlink:href="Extruder__en3_8cpp.html" target="_top" xlink:title=" ">
<polygon fill="white" stroke="black" points="1916.5,-73 1916.5,-103 2035.5,-103 2035.5,-73 1916.5,-73"/>
<text text-anchor="start" x="1924.5" y="-91" font-family="Helvetica,sans-Serif" font-size="10.00">src/Kernel/Geometrie</text>
<text text-anchor="middle" x="1976" y="-80" font-family="Helvetica,sans-Serif" font-size="10.00">/Extruder_en3.cpp</text>
</a>
</g>
</g>
<!-- Node1&#45;&gt;Node16 -->
<g id="edge15" class="edge">
<title>Node1&#45;&gt;Node16</title>
<path fill="none" stroke="midnightblue" d="M2023.13,-137.86C2012.28,-126.61 1999.32,-113.18 1989.74,-103.25"/>
<polygon fill="midnightblue" stroke="midnightblue" points="2020.78,-140.47 2030.24,-145.23 2025.82,-135.61 2020.78,-140.47"/>
</g>
<!-- Node17 -->
<g id="node17" class="node">
<title>Node17</title>
<g id="a_node17"><a xlink:href="Faces__builder_8cpp.html" target="_top" xlink:title=" ">
<polygon fill="white" stroke="black" points="2053.5,-73 2053.5,-103 2172.5,-103 2172.5,-73 2053.5,-73"/>
<text text-anchor="start" x="2061.5" y="-91" font-family="Helvetica,sans-Serif" font-size="10.00">src/Kernel/Geometrie</text>
<text text-anchor="middle" x="2113" y="-80" font-family="Helvetica,sans-Serif" font-size="10.00">/Faces_builder.cpp</text>
</a>
</g>
</g>
<!-- Node1&#45;&gt;Node17 -->
<g id="edge16" class="edge">
<title>Node1&#45;&gt;Node17</title>
<path fill="none" stroke="midnightblue" d="M2065.18,-137.86C2076.19,-126.61 2089.34,-113.18 2099.06,-103.25"/>
<polygon fill="midnightblue" stroke="midnightblue" points="2062.46,-135.64 2057.96,-145.23 2067.46,-140.53 2062.46,-135.64"/>
</g>
<!-- Node18 -->
<g id="node18" class="node">
<title>Node18</title>
<g id="a_node18"><a xlink:href="MaillerParallel_8cpp.html" target="_top" xlink:title=" ">
<polygon fill="white" stroke="black" points="2190.5,-73 2190.5,-103 2309.5,-103 2309.5,-73 2190.5,-73"/>
<text text-anchor="start" x="2198.5" y="-91" font-family="Helvetica,sans-Serif" font-size="10.00">src/Kernel/Geometrie</text>
<text text-anchor="middle" x="2250" y="-80" font-family="Helvetica,sans-Serif" font-size="10.00">/MaillerParallel.cpp</text>
</a>
</g>
</g>
<!-- Node1&#45;&gt;Node18 -->
<g id="edge17" class="edge">
<title>Node1&#45;&gt;Node18</title>
<path fill="none" stroke="midnightblue" d="M2094.79,-142.12C2129.91,-130.1 2176.06,-114.31 2208.88,-103.07"/>
<polygon fill="midnightblue" stroke="midnightblue" points="2093.52,-138.85 2085.19,-145.4 2095.79,-145.48 2093.52,-138.85"/>
</g>
<!-- Node19 -->
<g id="node19" class="node">
<title>Node19</title>
<g id="a_node19"><a xlink:href="Raffiner__Simplexes_8cpp.html" target="_top" xlink:title=" ">
<polygon fill="white" stroke="black" points="2328,-73 2328,-103 2462,-103 2462,-73 2328,-73"/>
<text text-anchor="start" x="2336" y="-91" font-family="Helvetica,sans-Serif" font-size="10.00">src/Kernel/Geometrie</text>
<text text-anchor="middle" x="2395" y="-80" font-family="Helvetica,sans-Serif" font-size="10.00">/Raffiner_Simplexes.cpp</text>
</a>
</g>
</g>
<!-- Node1&#45;&gt;Node19 -->
<g id="edge18" class="edge">
<title>Node1&#45;&gt;Node19</title>
<path fill="none" stroke="midnightblue" d="M2127.25,-145.9C2181.96,-136.55 2255,-123.28 2319,-109 2326.99,-107.22 2335.41,-105.17 2343.62,-103.08"/>
<polygon fill="midnightblue" stroke="midnightblue" points="2126.53,-142.47 2117.26,-147.6 2127.7,-149.37 2126.53,-142.47"/>
</g>
<!-- Node20 -->
<g id="node20" class="node">
<title>Node20</title>
<g id="a_node20"><a xlink:href="Remove__Invalid__Internal__Boundaries_8cpp.html" target="_top" xlink:title=" ">
<polygon fill="white" stroke="black" points="2480.5,-67.5 2480.5,-108.5 2621.5,-108.5 2621.5,-67.5 2480.5,-67.5"/>
<text text-anchor="start" x="2488.5" y="-96.5" font-family="Helvetica,sans-Serif" font-size="10.00">src/Kernel/Geometrie</text>
<text text-anchor="start" x="2488.5" y="-85.5" font-family="Helvetica,sans-Serif" font-size="10.00">/Remove_Invalid_Internal</text>
<text text-anchor="middle" x="2551" y="-74.5" font-family="Helvetica,sans-Serif" font-size="10.00">_Boundaries.cpp</text>
</a>
</g>
</g>
<!-- Node1&#45;&gt;Node20 -->
<g id="edge19" class="edge">
<title>Node1&#45;&gt;Node20</title>
<path fill="none" stroke="midnightblue" d="M2127.35,-152.81C2213.75,-145.13 2352.52,-130.72 2471,-109 2474.1,-108.43 2477.25,-107.81 2480.44,-107.16"/>
<polygon fill="midnightblue" stroke="midnightblue" points="2126.99,-149.32 2117.33,-153.69 2127.6,-156.3 2126.99,-149.32"/>
</g>
<!-- Node21 -->
<g id="node21" class="node">
<title>Node21</title>
<g id="a_node21"><a xlink:href="Scatter_8cpp.html" target="_top" xlink:title=" ">
<polygon fill="white" stroke="black" points="2639.5,-73 2639.5,-103 2758.5,-103 2758.5,-73 2639.5,-73"/>
<text text-anchor="start" x="2647.5" y="-91" font-family="Helvetica,sans-Serif" font-size="10.00">src/Kernel/Geometrie</text>
<text text-anchor="middle" x="2699" y="-80" font-family="Helvetica,sans-Serif" font-size="10.00">/Scatter.cpp</text>
</a>
</g>
</g>
<!-- Node1&#45;&gt;Node21 -->
<g id="edge20" class="edge">
<title>Node1&#45;&gt;Node21</title>
<path fill="none" stroke="midnightblue" d="M2127.48,-157.57C2241.95,-153.72 2453.65,-142.36 2631,-109 2639.22,-107.45 2647.88,-105.32 2656.15,-103.01"/>
<polygon fill="midnightblue" stroke="midnightblue" points="2127.27,-154.07 2117.39,-157.89 2127.5,-161.07 2127.27,-154.07"/>
</g>
<!-- Node22 -->
<g id="node22" class="node">
<title>Node22</title>
<g id="a_node22"><a xlink:href="Zone__Poly__base_8cpp.html" target="_top" xlink:title=" ">
<polygon fill="white" stroke="black" points="2776.5,-73 2776.5,-103 2895.5,-103 2895.5,-73 2776.5,-73"/>
<text text-anchor="start" x="2784.5" y="-91" font-family="Helvetica,sans-Serif" font-size="10.00">src/Kernel/VF/Zones</text>
<text text-anchor="middle" x="2836" y="-80" font-family="Helvetica,sans-Serif" font-size="10.00">/Zone_Poly_base.cpp</text>
</a>
</g>
</g>
<!-- Node1&#45;&gt;Node22 -->
<g id="edge21" class="edge">
<title>Node1&#45;&gt;Node22</title>
<path fill="none" stroke="midnightblue" d="M2127.39,-159.52C2262.85,-158.24 2538.66,-150.22 2768,-109 2776.36,-107.5 2785.15,-105.35 2793.53,-103.02"/>
<polygon fill="midnightblue" stroke="midnightblue" points="2127.06,-156.02 2117.09,-159.6 2127.12,-163.02 2127.06,-156.02"/>
</g>
<!-- Node23 -->
<g id="node23" class="node">
<title>Node23</title>
<g id="a_node23"><a xlink:href="Zone__VF_8cpp.html" target="_top" xlink:title=" ">
<polygon fill="white" stroke="black" points="2913.5,-73 2913.5,-103 3026.5,-103 3026.5,-73 2913.5,-73"/>
<text text-anchor="start" x="2921.5" y="-91" font-family="Helvetica,sans-Serif" font-size="10.00">src/Kernel/VF/Zones</text>
<text text-anchor="middle" x="2970" y="-80" font-family="Helvetica,sans-Serif" font-size="10.00">/Zone_VF.cpp</text>
</a>
</g>
</g>
<!-- Node1&#45;&gt;Node23 -->
<g id="edge22" class="edge">
<title>Node1&#45;&gt;Node23</title>
<path fill="none" stroke="midnightblue" d="M2127.48,-157.15C2313.52,-151.51 2757.4,-135.64 2905,-109 2913.13,-107.53 2921.68,-105.37 2929.8,-103.01"/>
<polygon fill="midnightblue" stroke="midnightblue" points="2127.1,-153.66 2117.21,-157.46 2127.31,-160.66 2127.1,-153.66"/>
</g>
<!-- Node24 -->
<g id="node24" class="node">
<title>Node24</title>
<g id="a_node24"><a xlink:href="Zone__VEF__PreP1b_8cpp.html" target="_top" xlink:title=" ">
<polygon fill="white" stroke="black" points="3045,-73 3045,-103 3185,-103 3185,-73 3045,-73"/>
<text text-anchor="start" x="3053" y="-91" font-family="Helvetica,sans-Serif" font-size="10.00">src/P1NCP1B/Zones/Zone</text>
<text text-anchor="middle" x="3115" y="-80" font-family="Helvetica,sans-Serif" font-size="10.00">_VEF_PreP1b.cpp</text>
</a>
</g>
</g>
<!-- Node1&#45;&gt;Node24 -->
<g id="edge23" class="edge">
<title>Node1&#45;&gt;Node24</title>
<path fill="none" stroke="midnightblue" d="M2127.35,-157.37C2333.22,-151.77 2861.7,-135.24 3036,-109 3045.65,-107.55 3055.84,-105.42 3065.58,-103.1"/>
<polygon fill="midnightblue" stroke="midnightblue" points="2127.1,-153.88 2117.2,-157.65 2127.29,-160.87 2127.1,-153.88"/>
</g>
<!-- Node25 -->
<g id="node25" class="node">
<title>Node25</title>
<g id="a_node25"><a xlink:href="Champ__Elem__PolyMAC_8cpp.html" target="_top" xlink:title=" ">
<polygon fill="white" stroke="black" points="3203.5,-73 3203.5,-103 3356.5,-103 3356.5,-73 3203.5,-73"/>
<text text-anchor="start" x="3211.5" y="-91" font-family="Helvetica,sans-Serif" font-size="10.00">src/PolyMAC/Champs</text>
<text text-anchor="middle" x="3280" y="-80" font-family="Helvetica,sans-Serif" font-size="10.00">/Champ_Elem_PolyMAC.cpp</text>
</a>
</g>
</g>
<!-- Node1&#45;&gt;Node25 -->
<g id="edge24" class="edge">
<title>Node1&#45;&gt;Node25</title>
<path fill="none" stroke="midnightblue" d="M2127.43,-157.84C2355.79,-152.96 2987.79,-137.26 3194,-109 3204.63,-107.54 3215.88,-105.39 3226.61,-103.02"/>
<polygon fill="midnightblue" stroke="midnightblue" points="2127.11,-154.34 2117.19,-158.05 2127.26,-161.34 2127.11,-154.34"/>
</g>
<!-- Node26 -->
<g id="node26" class="node">
<title>Node26</title>
<g id="a_node26"><a xlink:href="Champ__Elem__PolyMAC__P0_8cpp.html" target="_top" xlink:title=" ">
<polygon fill="white" stroke="black" points="3374.5,-67.5 3374.5,-108.5 3507.5,-108.5 3507.5,-67.5 3374.5,-67.5"/>
<text text-anchor="start" x="3382.5" y="-96.5" font-family="Helvetica,sans-Serif" font-size="10.00">src/PolyMAC/Champs</text>
<text text-anchor="start" x="3382.5" y="-85.5" font-family="Helvetica,sans-Serif" font-size="10.00">/Champ_Elem_PolyMAC</text>
<text text-anchor="middle" x="3441" y="-74.5" font-family="Helvetica,sans-Serif" font-size="10.00">_P0.cpp</text>
</a>
</g>
</g>
<!-- Node1&#45;&gt;Node26 -->
<g id="edge25" class="edge">
<title>Node1&#45;&gt;Node26</title>
<path fill="none" stroke="midnightblue" d="M2127.5,-158.74C2378.81,-156.06 3125.6,-145.18 3366,-109 3368.67,-108.6 3371.37,-108.14 3374.1,-107.63"/>
<polygon fill="midnightblue" stroke="midnightblue" points="2127.3,-155.24 2117.34,-158.84 2127.37,-162.24 2127.3,-155.24"/>
</g>
<!-- Node27 -->
<g id="node27" class="node">
<title>Node27</title>
<g id="a_node27"><a xlink:href="Champ__Face__PolyMAC_8cpp.html" target="_top" xlink:title=" ">
<polygon fill="white" stroke="black" points="3526,-73 3526,-103 3676,-103 3676,-73 3526,-73"/>
<text text-anchor="start" x="3534" y="-91" font-family="Helvetica,sans-Serif" font-size="10.00">src/PolyMAC/Champs</text>
<text text-anchor="middle" x="3601" y="-80" font-family="Helvetica,sans-Serif" font-size="10.00">/Champ_Face_PolyMAC.cpp</text>
</a>
</g>
</g>
<!-- Node1&#45;&gt;Node27 -->
<g id="edge26" class="edge">
<title>Node1&#45;&gt;Node27</title>
<path fill="none" stroke="midnightblue" d="M2127.56,-158.83C2397.68,-156.3 3245.51,-145.6 3517,-109 3527.55,-107.58 3538.71,-105.41 3549.33,-103.01"/>
<polygon fill="midnightblue" stroke="midnightblue" points="2127.4,-155.33 2117.43,-158.92 2127.46,-162.33 2127.4,-155.33"/>
</g>
<!-- Node28 -->
<g id="node28" class="node">
<title>Node28</title>
<g id="a_node28"><a xlink:href="Zone__PolyMAC_8cpp.html" target="_top" xlink:title=" ">
<polygon fill="white" stroke="black" points="3694,-73 3694,-103 3832,-103 3832,-73 3694,-73"/>
<text text-anchor="start" x="3702" y="-91" font-family="Helvetica,sans-Serif" font-size="10.00">src/PolyMAC/Zones/Zone</text>
<text text-anchor="middle" x="3763" y="-80" font-family="Helvetica,sans-Serif" font-size="10.00">_PolyMAC.cpp</text>
</a>
</g>
</g>
<!-- Node1&#45;&gt;Node28 -->
<g id="edge27" class="edge">
<title>Node1&#45;&gt;Node28</title>
<path fill="none" stroke="midnightblue" d="M2127.1,-159.36C2416.55,-158.49 3379.43,-152.34 3685,-109 3694.83,-107.61 3705.2,-105.45 3715.07,-103.05"/>
<polygon fill="midnightblue" stroke="midnightblue" points="2127.08,-155.86 2117.09,-159.39 2127.1,-162.86 2127.08,-155.86"/>
</g>
<!-- Node29 -->
<g id="node29" class="node">
<title>Node29</title>
<g id="a_node29"><a xlink:href="Zone__PolyMAC__P0_8cpp.html" target="_top" xlink:title=" ">
<polygon fill="white" stroke="black" points="3850,-73 3850,-103 3988,-103 3988,-73 3850,-73"/>
<text text-anchor="start" x="3858" y="-91" font-family="Helvetica,sans-Serif" font-size="10.00">src/PolyMAC/Zones/Zone</text>
<text text-anchor="middle" x="3919" y="-80" font-family="Helvetica,sans-Serif" font-size="10.00">_PolyMAC_P0.cpp</text>
</a>
</g>
</g>
<!-- Node1&#45;&gt;Node29 -->
<g id="edge28" class="edge">
<title>Node1&#45;&gt;Node29</title>
<path fill="none" stroke="midnightblue" d="M2127.61,-159.62C2435.23,-159.68 3503.7,-156.38 3841,-109 3850.83,-107.62 3861.21,-105.47 3871.07,-103.08"/>
<polygon fill="midnightblue" stroke="midnightblue" points="2127.43,-156.12 2117.43,-159.62 2127.43,-163.12 2127.43,-156.12"/>
</g>
<!-- Node5 -->
<g id="node5" class="node">
<title>Node5</title>
<g id="a_node5"><a xlink:href="Connex__components_8cpp.html" target="_top" xlink:title=" ">
<polygon fill="white" stroke="black" points="347,-0.5 347,-30.5 489,-30.5 489,-0.5 347,-0.5"/>
<text text-anchor="start" x="355" y="-18.5" font-family="Helvetica,sans-Serif" font-size="10.00">src/Kernel/Geometrie</text>
<text text-anchor="middle" x="418" y="-7.5" font-family="Helvetica,sans-Serif" font-size="10.00">/Connex_components.cpp</text>
</a>
</g>
</g>
<!-- Node4&#45;&gt;Node5 -->
<g id="edge4" class="edge">
<title>Node4&#45;&gt;Node5</title>
<path fill="none" stroke="midnightblue" d="M421.93,-62.73C421.03,-52.07 419.99,-39.91 419.21,-30.75"/>
<polygon fill="midnightblue" stroke="midnightblue" points="418.45,-63.07 422.79,-72.73 425.43,-62.47 418.45,-63.07"/>
</g>
<!-- Node7 -->
<g id="node7" class="node">
<title>Node7</title>
<g id="a_node7"><a xlink:href="Corriger__frontiere__periodique_8cpp.html" target="_top" xlink:title=" ">
<polygon fill="white" stroke="black" points="507.5,-0.5 507.5,-30.5 690.5,-30.5 690.5,-0.5 507.5,-0.5"/>
<text text-anchor="start" x="515.5" y="-18.5" font-family="Helvetica,sans-Serif" font-size="10.00">src/Kernel/Geometrie</text>
<text text-anchor="middle" x="599" y="-7.5" font-family="Helvetica,sans-Serif" font-size="10.00">/Corriger_frontiere_periodique.cpp</text>
</a>
</g>
</g>
<!-- Node6&#45;&gt;Node7 -->
<g id="edge6" class="edge">
<title>Node6&#45;&gt;Node7</title>
<path fill="none" stroke="midnightblue" d="M595.72,-62.73C596.48,-52.07 597.34,-39.91 597.99,-30.75"/>
<polygon fill="midnightblue" stroke="midnightblue" points="592.23,-62.51 595.01,-72.73 599.21,-63.01 592.23,-62.51"/>
</g>
</g>
</svg>
