<?xml version="1.0" encoding="UTF-8" standalone="no"?>
<!DOCTYPE svg PUBLIC "-//W3C//DTD SVG 1.1//EN"
 "http://www.w3.org/Graphics/SVG/1.1/DTD/svg11.dtd">
<!-- Generated by graphviz version 2.43.0 (0)
 -->
<!-- Title: src/ThHyd/Incompressible/Milieu/Constituant.h Pages: 1 -->
<svg width="1205pt" height="117pt"
 viewBox="0.00 0.00 1205.00 117.00" xmlns="http://www.w3.org/2000/svg" xmlns:xlink="http://www.w3.org/1999/xlink">
<g id="graph0" class="graph" transform="scale(1 1) rotate(0) translate(4 113)">
<title>src/ThHyd/Incompressible/Milieu/Constituant.h</title>
<polygon fill="white" stroke="transparent" points="-4,4 -4,-113 1201,-113 1201,4 -4,4"/>
<!-- Node1 -->
<g id="node1" class="node">
<title>Node1</title>
<g id="a_node1"><a xlink:title=" ">
<polygon fill="#bfbfbf" stroke="black" points="537,-78.5 537,-108.5 680,-108.5 680,-78.5 537,-78.5"/>
<text text-anchor="start" x="545" y="-96.5" font-family="Helvetica,sans-Serif" font-size="10.00">src/ThHyd/Incompressible</text>
<text text-anchor="middle" x="608.5" y="-85.5" font-family="Helvetica,sans-Serif" font-size="10.00">/Milieu/Constituant.h</text>
</a>
</g>
</g>
<!-- Node2 -->
<g id="node2" class="node">
<title>Node2</title>
<g id="a_node2"><a xlink:href="Chimie_8cpp.html" target="_top" xlink:title=" ">
<polygon fill="white" stroke="black" points="0,-11.5 0,-30.5 161,-30.5 161,-11.5 0,-11.5"/>
<text text-anchor="middle" x="80.5" y="-18.5" font-family="Helvetica,sans-Serif" font-size="10.00">src/ThHyd/Chimie/Chimie.cpp</text>
</a>
</g>
</g>
<!-- Node1&#45;&gt;Node2 -->
<g id="edge1" class="edge">
<title>Node1&#45;&gt;Node2</title>
<path fill="none" stroke="midnightblue" d="M526.65,-85.62C438.39,-77.61 293.94,-62.77 170.5,-42 152.03,-38.89 131.65,-34.45 114.95,-30.54"/>
<polygon fill="midnightblue" stroke="midnightblue" points="526.59,-89.13 536.87,-86.54 527.22,-82.16 526.59,-89.13"/>
</g>
<!-- Node3 -->
<g id="node3" class="node">
<title>Node3</title>
<g id="a_node3"><a xlink:href="Convection__Diffusion__Concentration_8cpp.html" target="_top" xlink:title=" ">
<polygon fill="white" stroke="black" points="179.5,-0.5 179.5,-41.5 353.5,-41.5 353.5,-0.5 179.5,-0.5"/>
<text text-anchor="start" x="187.5" y="-29.5" font-family="Helvetica,sans-Serif" font-size="10.00">src/ThHyd/Incompressible</text>
<text text-anchor="start" x="187.5" y="-18.5" font-family="Helvetica,sans-Serif" font-size="10.00">/Equations/Convection_Diffusion</text>
<text text-anchor="middle" x="266.5" y="-7.5" font-family="Helvetica,sans-Serif" font-size="10.00">_Concentration.cpp</text>
</a>
</g>
</g>
<!-- Node1&#45;&gt;Node3 -->
<g id="edge2" class="edge">
<title>Node1&#45;&gt;Node3</title>
<path fill="none" stroke="midnightblue" d="M529.76,-76.4C481.48,-66.51 418.4,-53.56 362.5,-42 359.58,-41.4 356.62,-40.78 353.62,-40.16"/>
<polygon fill="midnightblue" stroke="midnightblue" points="529.33,-79.88 539.83,-78.46 530.73,-73.02 529.33,-79.88"/>
</g>
<!-- Node4 -->
<g id="node4" class="node">
<title>Node4</title>
<g id="a_node4"><a xlink:href="Constituant_8cpp.html" target="_top" xlink:title=" ">
<polygon fill="white" stroke="black" points="372,-6 372,-36 515,-36 515,-6 372,-6"/>
<text text-anchor="start" x="380" y="-24" font-family="Helvetica,sans-Serif" font-size="10.00">src/ThHyd/Incompressible</text>
<text text-anchor="middle" x="443.5" y="-13" font-family="Helvetica,sans-Serif" font-size="10.00">/Milieu/Constituant.cpp</text>
</a>
</g>
</g>
<!-- Node1&#45;&gt;Node4 -->
<g id="edge3" class="edge">
<title>Node1&#45;&gt;Node4</title>
<path fill="none" stroke="midnightblue" d="M566.01,-74.34C538.11,-62.42 502.16,-47.07 476.44,-36.07"/>
<polygon fill="midnightblue" stroke="midnightblue" points="564.94,-77.69 575.51,-78.4 567.69,-71.26 564.94,-77.69"/>
</g>
<!-- Node5 -->
<g id="node5" class="node">
<title>Node5</title>
<g id="a_node5"><a xlink:href="Ref__Constituant_8cpp.html" target="_top" xlink:title=" ">
<polygon fill="white" stroke="black" points="533,-6 533,-36 684,-36 684,-6 533,-6"/>
<text text-anchor="start" x="541" y="-24" font-family="Helvetica,sans-Serif" font-size="10.00">src/ThHyd/Incompressible</text>
<text text-anchor="middle" x="608.5" y="-13" font-family="Helvetica,sans-Serif" font-size="10.00">/Milieu/Ref_Constituant.cpp</text>
</a>
</g>
</g>
<!-- Node1&#45;&gt;Node5 -->
<g id="edge4" class="edge">
<title>Node1&#45;&gt;Node5</title>
<path fill="none" stroke="midnightblue" d="M608.5,-68.23C608.5,-57.57 608.5,-45.41 608.5,-36.25"/>
<polygon fill="midnightblue" stroke="midnightblue" points="605,-68.23 608.5,-78.23 612,-68.23 605,-68.23"/>
</g>
<!-- Node6 -->
<g id="node6" class="node">
<title>Node6</title>
<g id="a_node6"><a xlink:href="Pb__Hydraulique__Concentration_8cpp.html" target="_top" xlink:title=" ">
<polygon fill="white" stroke="black" points="702,-0.5 702,-41.5 847,-41.5 847,-0.5 702,-0.5"/>
<text text-anchor="start" x="710" y="-29.5" font-family="Helvetica,sans-Serif" font-size="10.00">src/ThHyd/Incompressible</text>
<text text-anchor="start" x="710" y="-18.5" font-family="Helvetica,sans-Serif" font-size="10.00">/Problems/Pb_Hydraulique</text>
<text text-anchor="middle" x="774.5" y="-7.5" font-family="Helvetica,sans-Serif" font-size="10.00">_Concentration.cpp</text>
</a>
</g>
</g>
<!-- Node1&#45;&gt;Node6 -->
<g id="edge5" class="edge">
<title>Node1&#45;&gt;Node6</title>
<path fill="none" stroke="midnightblue" d="M651.12,-74.4C674.8,-64.34 704.27,-51.83 728.48,-41.55"/>
<polygon fill="midnightblue" stroke="midnightblue" points="649.53,-71.27 641.69,-78.4 652.27,-77.72 649.53,-71.27"/>
</g>
<!-- Node7 -->
<g id="node7" class="node">
<title>Node7</title>
<g id="a_node7"><a xlink:href="Pb__Thermohydraulique__Concentration_8cpp.html" target="_top" xlink:title=" ">
<polygon fill="white" stroke="black" points="865,-0.5 865,-41.5 1046,-41.5 1046,-0.5 865,-0.5"/>
<text text-anchor="start" x="873" y="-29.5" font-family="Helvetica,sans-Serif" font-size="10.00">src/ThHyd/Incompressible</text>
<text text-anchor="start" x="873" y="-18.5" font-family="Helvetica,sans-Serif" font-size="10.00">/Problems/Pb_Thermohydraulique</text>
<text text-anchor="middle" x="955.5" y="-7.5" font-family="Helvetica,sans-Serif" font-size="10.00">_Concentration.cpp</text>
</a>
</g>
</g>
<!-- Node1&#45;&gt;Node7 -->
<g id="edge6" class="edge">
<title>Node1&#45;&gt;Node7</title>
<path fill="none" stroke="midnightblue" d="M687.46,-76.46C740.27,-65.73 809.89,-51.58 864.94,-40.4"/>
<polygon fill="midnightblue" stroke="midnightblue" points="686.57,-73.07 677.47,-78.49 687.97,-79.93 686.57,-73.07"/>
</g>
<!-- Node8 -->
<g id="node8" class="node">
<title>Node8</title>
<g id="a_node8"><a xlink:href="Champ__front__contact__VEF_8cpp.html" target="_top" xlink:title=" ">
<polygon fill="white" stroke="black" points="1064,-6 1064,-36 1197,-36 1197,-6 1064,-6"/>
<text text-anchor="start" x="1072" y="-24" font-family="Helvetica,sans-Serif" font-size="10.00">src/VEF/Champs/Champ</text>
<text text-anchor="middle" x="1130.5" y="-13" font-family="Helvetica,sans-Serif" font-size="10.00">_front_contact_VEF.cpp</text>
</a>
</g>
</g>
<!-- Node1&#45;&gt;Node8 -->
<g id="edge7" class="edge">
<title>Node1&#45;&gt;Node8</title>
<path fill="none" stroke="midnightblue" d="M690.36,-86.91C780.41,-79.91 929.14,-65.85 1055.5,-42 1064.11,-40.38 1073.18,-38.29 1081.92,-36.07"/>
<polygon fill="midnightblue" stroke="midnightblue" points="689.91,-83.43 680.21,-87.69 690.45,-90.41 689.91,-83.43"/>
</g>
</g>
</svg>
