<?xml version="1.0" encoding="UTF-8" standalone="no"?>
<!DOCTYPE svg PUBLIC "-//W3C//DTD SVG 1.1//EN"
 "http://www.w3.org/Graphics/SVG/1.1/DTD/svg11.dtd">
<!-- Generated by graphviz version 2.43.0 (0)
 -->
<!-- Title: src/ThHyd/Dilatable/Common/Equations/Convection_Diffusion_Espece_Fluide_Dilatable_base.h Pages: 1 -->
<svg width="1467pt" height="439pt"
 viewBox="0.00 0.00 1466.50 439.00" xmlns="http://www.w3.org/2000/svg" xmlns:xlink="http://www.w3.org/1999/xlink">
<g id="graph0" class="graph" transform="scale(1 1) rotate(0) translate(4 435)">
<title>src/ThHyd/Dilatable/Common/Equations/Convection_Diffusion_Espece_Fluide_Dilatable_base.h</title>
<polygon fill="white" stroke="transparent" points="-4,4 -4,-435 1462.5,-435 1462.5,4 -4,4"/>
<!-- Node1 -->
<g id="node1" class="node">
<title>Node1</title>
<g id="a_node1"><a xlink:title=" ">
<polygon fill="#bfbfbf" stroke="black" points="510,-378.5 510,-430.5 683,-430.5 683,-378.5 510,-378.5"/>
<text text-anchor="start" x="518" y="-418.5" font-family="Helvetica,sans-Serif" font-size="10.00">src/ThHyd/Dilatable</text>
<text text-anchor="start" x="518" y="-407.5" font-family="Helvetica,sans-Serif" font-size="10.00">/Common/Equations/Convection</text>
<text text-anchor="start" x="518" y="-396.5" font-family="Helvetica,sans-Serif" font-size="10.00">_Diffusion_Espece_Fluide</text>
<text text-anchor="middle" x="596.5" y="-385.5" font-family="Helvetica,sans-Serif" font-size="10.00">_Dilatable_base.h</text>
</a>
</g>
</g>
<!-- Node2 -->
<g id="node2" class="node">
<title>Node2</title>
<g id="a_node2"><a xlink:href="Convection__Diffusion__Espece__Binaire__base_8h.html" target="_top" xlink:title=" ">
<polygon fill="white" stroke="black" points="288.5,-295 288.5,-336 470.5,-336 470.5,-295 288.5,-295"/>
<text text-anchor="start" x="296.5" y="-324" font-family="Helvetica,sans-Serif" font-size="10.00">src/ThHyd/Dilatable</text>
<text text-anchor="start" x="296.5" y="-313" font-family="Helvetica,sans-Serif" font-size="10.00">/Common/Equations/Convection</text>
<text text-anchor="middle" x="379.5" y="-302" font-family="Helvetica,sans-Serif" font-size="10.00">_Diffusion_Espece_Binaire_base.h</text>
</a>
</g>
</g>
<!-- Node1&#45;&gt;Node2 -->
<g id="edge1" class="edge">
<title>Node1&#45;&gt;Node2</title>
<path fill="none" stroke="midnightblue" d="M524.41,-374.6C492.91,-361.97 456.78,-347.48 428.47,-336.13"/>
<polygon fill="midnightblue" stroke="midnightblue" points="523.44,-377.98 534.03,-378.45 526.05,-371.48 523.44,-377.98"/>
</g>
<!-- Node12 -->
<g id="node12" class="node">
<title>Node12</title>
<g id="a_node12"><a xlink:href="Convection__Diffusion__Espece__Fluide__Dilatable__base_8cpp.html" target="_top" xlink:title=" ">
<polygon fill="white" stroke="black" points="510,-289.5 510,-341.5 683,-341.5 683,-289.5 510,-289.5"/>
<text text-anchor="start" x="518" y="-329.5" font-family="Helvetica,sans-Serif" font-size="10.00">src/ThHyd/Dilatable</text>
<text text-anchor="start" x="518" y="-318.5" font-family="Helvetica,sans-Serif" font-size="10.00">/Common/Equations/Convection</text>
<text text-anchor="start" x="518" y="-307.5" font-family="Helvetica,sans-Serif" font-size="10.00">_Diffusion_Espece_Fluide</text>
<text text-anchor="middle" x="596.5" y="-296.5" font-family="Helvetica,sans-Serif" font-size="10.00">_Dilatable_base.cpp</text>
</a>
</g>
</g>
<!-- Node1&#45;&gt;Node12 -->
<g id="edge11" class="edge">
<title>Node1&#45;&gt;Node12</title>
<path fill="none" stroke="midnightblue" d="M596.5,-368.19C596.5,-359.28 596.5,-349.9 596.5,-341.61"/>
<polygon fill="midnightblue" stroke="midnightblue" points="593,-368.34 596.5,-378.34 600,-368.34 593,-368.34"/>
</g>
<!-- Node13 -->
<g id="node13" class="node">
<title>Node13</title>
<g id="a_node13"><a xlink:href="Convection__Diffusion__Espece__Multi__base_8h.html" target="_top" xlink:title=" ">
<polygon fill="white" stroke="black" points="712,-295 712,-336 885,-336 885,-295 712,-295"/>
<text text-anchor="start" x="720" y="-324" font-family="Helvetica,sans-Serif" font-size="10.00">src/ThHyd/Dilatable</text>
<text text-anchor="start" x="720" y="-313" font-family="Helvetica,sans-Serif" font-size="10.00">/Common/Equations/Convection</text>
<text text-anchor="middle" x="798.5" y="-302" font-family="Helvetica,sans-Serif" font-size="10.00">_Diffusion_Espece_Multi_base.h</text>
</a>
</g>
</g>
<!-- Node1&#45;&gt;Node13 -->
<g id="edge12" class="edge">
<title>Node1&#45;&gt;Node13</title>
<path fill="none" stroke="midnightblue" d="M663.98,-374.43C693.22,-361.84 726.68,-347.43 752.91,-336.13"/>
<polygon fill="midnightblue" stroke="midnightblue" points="662.46,-371.28 654.66,-378.45 665.22,-377.71 662.46,-371.28"/>
</g>
<!-- Node3 -->
<g id="node3" class="node">
<title>Node3</title>
<g id="a_node3"><a xlink:href="Convection__Diffusion__Espece__Binaire__base_8cpp.html" target="_top" xlink:title=" ">
<polygon fill="white" stroke="black" points="0,-200.5 0,-252.5 173,-252.5 173,-200.5 0,-200.5"/>
<text text-anchor="start" x="8" y="-240.5" font-family="Helvetica,sans-Serif" font-size="10.00">src/ThHyd/Dilatable</text>
<text text-anchor="start" x="8" y="-229.5" font-family="Helvetica,sans-Serif" font-size="10.00">/Common/Equations/Convection</text>
<text text-anchor="start" x="8" y="-218.5" font-family="Helvetica,sans-Serif" font-size="10.00">_Diffusion_Espece_Binaire</text>
<text text-anchor="middle" x="86.5" y="-207.5" font-family="Helvetica,sans-Serif" font-size="10.00">_base.cpp</text>
</a>
</g>
</g>
<!-- Node2&#45;&gt;Node3 -->
<g id="edge2" class="edge">
<title>Node2&#45;&gt;Node3</title>
<path fill="none" stroke="midnightblue" d="M304.13,-292.12C263.32,-280 212.8,-265 170.71,-252.5"/>
<polygon fill="midnightblue" stroke="midnightblue" points="303.16,-295.48 313.75,-294.98 305.16,-288.77 303.16,-295.48"/>
</g>
<!-- Node4 -->
<g id="node4" class="node">
<title>Node4</title>
<g id="a_node4"><a xlink:href="Convection__Diffusion__Espece__Binaire__QC_8h.html" target="_top" xlink:title=" ">
<polygon fill="white" stroke="black" points="191,-200.5 191,-252.5 364,-252.5 364,-200.5 191,-200.5"/>
<text text-anchor="start" x="199" y="-240.5" font-family="Helvetica,sans-Serif" font-size="10.00">src/ThHyd/Dilatable</text>
<text text-anchor="start" x="199" y="-229.5" font-family="Helvetica,sans-Serif" font-size="10.00">/Quasi_Compressible</text>
<text text-anchor="start" x="199" y="-218.5" font-family="Helvetica,sans-Serif" font-size="10.00">/Equations/Convection</text>
<text text-anchor="middle" x="277.5" y="-207.5" font-family="Helvetica,sans-Serif" font-size="10.00">_Diffusion_Espece_Binaire_QC.h</text>
</a>
</g>
</g>
<!-- Node2&#45;&gt;Node4 -->
<g id="edge3" class="edge">
<title>Node2&#45;&gt;Node4</title>
<path fill="none" stroke="midnightblue" d="M348.68,-288.21C335.42,-276.91 320,-263.75 306.91,-252.58"/>
<polygon fill="midnightblue" stroke="midnightblue" points="346.73,-291.15 356.61,-294.98 351.27,-285.82 346.73,-291.15"/>
</g>
<!-- Node8 -->
<g id="node8" class="node">
<title>Node8</title>
<g id="a_node8"><a xlink:href="Convection__Diffusion__Espece__Binaire__WC_8h.html" target="_top" xlink:title=" ">
<polygon fill="white" stroke="black" points="382.5,-200.5 382.5,-252.5 558.5,-252.5 558.5,-200.5 382.5,-200.5"/>
<text text-anchor="start" x="390.5" y="-240.5" font-family="Helvetica,sans-Serif" font-size="10.00">src/ThHyd/Dilatable</text>
<text text-anchor="start" x="390.5" y="-229.5" font-family="Helvetica,sans-Serif" font-size="10.00">/Weakly_Compressible</text>
<text text-anchor="start" x="390.5" y="-218.5" font-family="Helvetica,sans-Serif" font-size="10.00">/Equations/Convection</text>
<text text-anchor="middle" x="470.5" y="-207.5" font-family="Helvetica,sans-Serif" font-size="10.00">_Diffusion_Espece_Binaire_WC.h</text>
</a>
</g>
</g>
<!-- Node2&#45;&gt;Node8 -->
<g id="edge7" class="edge">
<title>Node2&#45;&gt;Node8</title>
<path fill="none" stroke="midnightblue" d="M407.5,-287.73C419.14,-276.6 432.58,-263.75 444.05,-252.79"/>
<polygon fill="midnightblue" stroke="midnightblue" points="404.96,-285.32 400.15,-294.76 409.8,-290.38 404.96,-285.32"/>
</g>
<!-- Node5 -->
<g id="node5" class="node">
<title>Node5</title>
<g id="a_node5"><a xlink:href="Convection__Diffusion__Espece__Binaire__QC_8cpp.html" target="_top" xlink:title=" ">
<polygon fill="white" stroke="black" points="42,-100.5 42,-163.5 187,-163.5 187,-100.5 42,-100.5"/>
<text text-anchor="start" x="50" y="-151.5" font-family="Helvetica,sans-Serif" font-size="10.00">src/ThHyd/Dilatable</text>
<text text-anchor="start" x="50" y="-140.5" font-family="Helvetica,sans-Serif" font-size="10.00">/Quasi_Compressible</text>
<text text-anchor="start" x="50" y="-129.5" font-family="Helvetica,sans-Serif" font-size="10.00">/Equations/Convection</text>
<text text-anchor="start" x="50" y="-118.5" font-family="Helvetica,sans-Serif" font-size="10.00">_Diffusion_Espece_Binaire</text>
<text text-anchor="middle" x="114.5" y="-107.5" font-family="Helvetica,sans-Serif" font-size="10.00">_QC.cpp</text>
</a>
</g>
</g>
<!-- Node4&#45;&gt;Node5 -->
<g id="edge4" class="edge">
<title>Node4&#45;&gt;Node5</title>
<path fill="none" stroke="midnightblue" d="M224.26,-195.29C206.39,-185.15 186.46,-173.84 168.53,-163.66"/>
<polygon fill="midnightblue" stroke="midnightblue" points="222.97,-198.58 233.39,-200.47 226.42,-192.49 222.97,-198.58"/>
</g>
<!-- Node6 -->
<g id="node6" class="node">
<title>Node6</title>
<g id="a_node6"><a xlink:href="Pb__Hydraulique__Melange__Binaire__QC_8h.html" target="_top" xlink:title=" ">
<polygon fill="white" stroke="black" points="205,-106 205,-158 350,-158 350,-106 205,-106"/>
<text text-anchor="start" x="213" y="-146" font-family="Helvetica,sans-Serif" font-size="10.00">src/ThHyd/Dilatable</text>
<text text-anchor="start" x="213" y="-135" font-family="Helvetica,sans-Serif" font-size="10.00">/Quasi_Compressible</text>
<text text-anchor="start" x="213" y="-124" font-family="Helvetica,sans-Serif" font-size="10.00">/Problems/Pb_Hydraulique</text>
<text text-anchor="middle" x="277.5" y="-113" font-family="Helvetica,sans-Serif" font-size="10.00">_Melange_Binaire_QC.h</text>
</a>
</g>
</g>
<!-- Node4&#45;&gt;Node6 -->
<g id="edge5" class="edge">
<title>Node4&#45;&gt;Node6</title>
<path fill="none" stroke="midnightblue" d="M277.5,-189.99C277.5,-179.41 277.5,-168.03 277.5,-158.25"/>
<polygon fill="midnightblue" stroke="midnightblue" points="274,-190.22 277.5,-200.22 281,-190.22 274,-190.22"/>
</g>
<!-- Node7 -->
<g id="node7" class="node">
<title>Node7</title>
<g id="a_node7"><a xlink:href="Pb__Hydraulique__Melange__Binaire__QC_8cpp.html" target="_top" xlink:title=" ">
<polygon fill="white" stroke="black" points="205,-6 205,-58 350,-58 350,-6 205,-6"/>
<text text-anchor="start" x="213" y="-46" font-family="Helvetica,sans-Serif" font-size="10.00">src/ThHyd/Dilatable</text>
<text text-anchor="start" x="213" y="-35" font-family="Helvetica,sans-Serif" font-size="10.00">/Quasi_Compressible</text>
<text text-anchor="start" x="213" y="-24" font-family="Helvetica,sans-Serif" font-size="10.00">/Problems/Pb_Hydraulique</text>
<text text-anchor="middle" x="277.5" y="-13" font-family="Helvetica,sans-Serif" font-size="10.00">_Melange_Binaire_QC.cpp</text>
</a>
</g>
</g>
<!-- Node6&#45;&gt;Node7 -->
<g id="edge6" class="edge">
<title>Node6&#45;&gt;Node7</title>
<path fill="none" stroke="midnightblue" d="M277.5,-95.7C277.5,-83.28 277.5,-69.57 277.5,-58.15"/>
<polygon fill="midnightblue" stroke="midnightblue" points="274,-95.76 277.5,-105.76 281,-95.76 274,-95.76"/>
</g>
<!-- Node9 -->
<g id="node9" class="node">
<title>Node9</title>
<g id="a_node9"><a xlink:href="Convection__Diffusion__Espece__Binaire__WC_8cpp.html" target="_top" xlink:title=" ">
<polygon fill="white" stroke="black" points="368,-100.5 368,-163.5 513,-163.5 513,-100.5 368,-100.5"/>
<text text-anchor="start" x="376" y="-151.5" font-family="Helvetica,sans-Serif" font-size="10.00">src/ThHyd/Dilatable</text>
<text text-anchor="start" x="376" y="-140.5" font-family="Helvetica,sans-Serif" font-size="10.00">/Weakly_Compressible</text>
<text text-anchor="start" x="376" y="-129.5" font-family="Helvetica,sans-Serif" font-size="10.00">/Equations/Convection</text>
<text text-anchor="start" x="376" y="-118.5" font-family="Helvetica,sans-Serif" font-size="10.00">_Diffusion_Espece_Binaire</text>
<text text-anchor="middle" x="440.5" y="-107.5" font-family="Helvetica,sans-Serif" font-size="10.00">_WC.cpp</text>
</a>
</g>
</g>
<!-- Node8&#45;&gt;Node9 -->
<g id="edge8" class="edge">
<title>Node8&#45;&gt;Node9</title>
<path fill="none" stroke="midnightblue" d="M459.15,-190.52C456.27,-181.63 453.2,-172.16 450.4,-163.51"/>
<polygon fill="midnightblue" stroke="midnightblue" points="455.89,-191.79 462.3,-200.22 462.55,-189.63 455.89,-191.79"/>
</g>
<!-- Node10 -->
<g id="node10" class="node">
<title>Node10</title>
<g id="a_node10"><a xlink:href="Pb__Hydraulique__Melange__Binaire__WC_8h.html" target="_top" xlink:title=" ">
<polygon fill="white" stroke="black" points="531,-106 531,-158 676,-158 676,-106 531,-106"/>
<text text-anchor="start" x="539" y="-146" font-family="Helvetica,sans-Serif" font-size="10.00">src/ThHyd/Dilatable</text>
<text text-anchor="start" x="539" y="-135" font-family="Helvetica,sans-Serif" font-size="10.00">/Weakly_Compressible</text>
<text text-anchor="start" x="539" y="-124" font-family="Helvetica,sans-Serif" font-size="10.00">/Problems/Pb_Hydraulique</text>
<text text-anchor="middle" x="603.5" y="-113" font-family="Helvetica,sans-Serif" font-size="10.00">_Melange_Binaire_WC.h</text>
</a>
</g>
</g>
<!-- Node8&#45;&gt;Node10 -->
<g id="edge9" class="edge">
<title>Node8&#45;&gt;Node10</title>
<path fill="none" stroke="midnightblue" d="M514.7,-194.76C531.84,-182.84 551.21,-169.37 567.48,-158.05"/>
<polygon fill="midnightblue" stroke="midnightblue" points="512.7,-191.88 506.49,-200.47 516.7,-197.63 512.7,-191.88"/>
</g>
<!-- Node11 -->
<g id="node11" class="node">
<title>Node11</title>
<g id="a_node11"><a xlink:href="Pb__Hydraulique__Melange__Binaire__WC_8cpp.html" target="_top" xlink:title=" ">
<polygon fill="white" stroke="black" points="438.5,-6 438.5,-58 584.5,-58 584.5,-6 438.5,-6"/>
<text text-anchor="start" x="446.5" y="-46" font-family="Helvetica,sans-Serif" font-size="10.00">src/ThHyd/Dilatable</text>
<text text-anchor="start" x="446.5" y="-35" font-family="Helvetica,sans-Serif" font-size="10.00">/Weakly_Compressible</text>
<text text-anchor="start" x="446.5" y="-24" font-family="Helvetica,sans-Serif" font-size="10.00">/Problems/Pb_Hydraulique</text>
<text text-anchor="middle" x="511.5" y="-13" font-family="Helvetica,sans-Serif" font-size="10.00">_Melange_Binaire_WC.cpp</text>
</a>
</g>
</g>
<!-- Node10&#45;&gt;Node11 -->
<g id="edge10" class="edge">
<title>Node10&#45;&gt;Node11</title>
<path fill="none" stroke="midnightblue" d="M572.8,-98.29C560.51,-85.21 546.58,-70.37 535.11,-58.15"/>
<polygon fill="midnightblue" stroke="midnightblue" points="570.41,-100.87 579.81,-105.76 575.52,-96.08 570.41,-100.87"/>
</g>
<!-- Node14 -->
<g id="node14" class="node">
<title>Node14</title>
<g id="a_node14"><a xlink:href="Convection__Diffusion__Espece__Multi__base_8cpp.html" target="_top" xlink:title=" ">
<polygon fill="white" stroke="black" points="615.5,-206 615.5,-247 799.5,-247 799.5,-206 615.5,-206"/>
<text text-anchor="start" x="623.5" y="-235" font-family="Helvetica,sans-Serif" font-size="10.00">src/ThHyd/Dilatable</text>
<text text-anchor="start" x="623.5" y="-224" font-family="Helvetica,sans-Serif" font-size="10.00">/Common/Equations/Convection</text>
<text text-anchor="middle" x="707.5" y="-213" font-family="Helvetica,sans-Serif" font-size="10.00">_Diffusion_Espece_Multi_base.cpp</text>
</a>
</g>
</g>
<!-- Node13&#45;&gt;Node14 -->
<g id="edge13" class="edge">
<title>Node13&#45;&gt;Node14</title>
<path fill="none" stroke="midnightblue" d="M770.53,-287.76C756.83,-274.66 740.62,-259.16 728.07,-247.16"/>
<polygon fill="midnightblue" stroke="midnightblue" points="768.2,-290.38 777.85,-294.76 773.04,-285.32 768.2,-290.38"/>
</g>
<!-- Node15 -->
<g id="node15" class="node">
<title>Node15</title>
<g id="a_node15"><a xlink:href="Convection__Diffusion__Espece__Multi__QC_8h.html" target="_top" xlink:title=" ">
<polygon fill="white" stroke="black" points="817.5,-200.5 817.5,-252.5 981.5,-252.5 981.5,-200.5 817.5,-200.5"/>
<text text-anchor="start" x="825.5" y="-240.5" font-family="Helvetica,sans-Serif" font-size="10.00">src/ThHyd/Dilatable</text>
<text text-anchor="start" x="825.5" y="-229.5" font-family="Helvetica,sans-Serif" font-size="10.00">/Quasi_Compressible</text>
<text text-anchor="start" x="825.5" y="-218.5" font-family="Helvetica,sans-Serif" font-size="10.00">/Equations/Convection</text>
<text text-anchor="middle" x="899.5" y="-207.5" font-family="Helvetica,sans-Serif" font-size="10.00">_Diffusion_Espece_Multi_QC.h</text>
</a>
</g>
</g>
<!-- Node13&#45;&gt;Node15 -->
<g id="edge14" class="edge">
<title>Node13&#45;&gt;Node15</title>
<path fill="none" stroke="midnightblue" d="M829.02,-288.21C842.14,-276.91 857.41,-263.75 870.38,-252.58"/>
<polygon fill="midnightblue" stroke="midnightblue" points="826.46,-285.8 821.17,-294.98 831.03,-291.1 826.46,-285.8"/>
</g>
<!-- Node23 -->
<g id="node23" class="node">
<title>Node23</title>
<g id="a_node23"><a xlink:href="Convection__Diffusion__Espece__Multi__WC_8h.html" target="_top" xlink:title=" ">
<polygon fill="white" stroke="black" points="1018.5,-200.5 1018.5,-252.5 1184.5,-252.5 1184.5,-200.5 1018.5,-200.5"/>
<text text-anchor="start" x="1026.5" y="-240.5" font-family="Helvetica,sans-Serif" font-size="10.00">src/ThHyd/Dilatable</text>
<text text-anchor="start" x="1026.5" y="-229.5" font-family="Helvetica,sans-Serif" font-size="10.00">/Weakly_Compressible</text>
<text text-anchor="start" x="1026.5" y="-218.5" font-family="Helvetica,sans-Serif" font-size="10.00">/Equations/Convection</text>
<text text-anchor="middle" x="1101.5" y="-207.5" font-family="Helvetica,sans-Serif" font-size="10.00">_Diffusion_Espece_Multi_WC.h</text>
</a>
</g>
</g>
<!-- Node13&#45;&gt;Node23 -->
<g id="edge23" class="edge">
<title>Node13&#45;&gt;Node23</title>
<path fill="none" stroke="midnightblue" d="M876.18,-292.2C919.69,-279.7 973.96,-264.12 1018.34,-251.38"/>
<polygon fill="midnightblue" stroke="midnightblue" points="875.14,-288.85 866.5,-294.98 877.08,-295.58 875.14,-288.85"/>
</g>
<!-- Node16 -->
<g id="node16" class="node">
<title>Node16</title>
<g id="a_node16"><a xlink:href="Convection__Diffusion__Espece__Multi__QC_8cpp.html" target="_top" xlink:title=" ">
<polygon fill="white" stroke="black" points="603,-0.5 603,-63.5 738,-63.5 738,-0.5 603,-0.5"/>
<text text-anchor="start" x="611" y="-51.5" font-family="Helvetica,sans-Serif" font-size="10.00">src/ThHyd/Dilatable</text>
<text text-anchor="start" x="611" y="-40.5" font-family="Helvetica,sans-Serif" font-size="10.00">/Quasi_Compressible</text>
<text text-anchor="start" x="611" y="-29.5" font-family="Helvetica,sans-Serif" font-size="10.00">/Equations/Convection</text>
<text text-anchor="start" x="611" y="-18.5" font-family="Helvetica,sans-Serif" font-size="10.00">_Diffusion_Espece_Multi</text>
<text text-anchor="middle" x="670.5" y="-7.5" font-family="Helvetica,sans-Serif" font-size="10.00">_QC.cpp</text>
</a>
</g>
</g>
<!-- Node15&#45;&gt;Node16 -->
<g id="edge15" class="edge">
<title>Node15&#45;&gt;Node16</title>
<path fill="none" stroke="midnightblue" d="M861.87,-193.87C818.95,-157.79 749.26,-99.2 706.87,-63.57"/>
<polygon fill="midnightblue" stroke="midnightblue" points="859.66,-196.58 869.56,-200.33 864.16,-191.22 859.66,-196.58"/>
</g>
<!-- Node17 -->
<g id="node17" class="node">
<title>Node17</title>
<g id="a_node17"><a xlink:href="Loi__Etat__Multi__GP__QC_8h.html" target="_top" xlink:title=" ">
<polygon fill="white" stroke="black" points="895,-106 895,-158 1026,-158 1026,-106 895,-106"/>
<text text-anchor="start" x="903" y="-146" font-family="Helvetica,sans-Serif" font-size="10.00">src/ThHyd/Dilatable</text>
<text text-anchor="start" x="903" y="-135" font-family="Helvetica,sans-Serif" font-size="10.00">/Quasi_Compressible</text>
<text text-anchor="start" x="903" y="-124" font-family="Helvetica,sans-Serif" font-size="10.00">/Loi_Etat/Loi_Etat_Multi</text>
<text text-anchor="middle" x="960.5" y="-113" font-family="Helvetica,sans-Serif" font-size="10.00">_GP_QC.h</text>
</a>
</g>
</g>
<!-- Node15&#45;&gt;Node17 -->
<g id="edge16" class="edge">
<title>Node15&#45;&gt;Node17</title>
<path fill="none" stroke="midnightblue" d="M921.83,-191.64C929.11,-180.6 937.06,-168.54 943.85,-158.25"/>
<polygon fill="midnightblue" stroke="midnightblue" points="918.75,-189.95 916.17,-200.22 924.6,-193.8 918.75,-189.95"/>
</g>
<!-- Node17&#45;&gt;Node16 -->
<g id="edge18" class="edge">
<title>Node17&#45;&gt;Node16</title>
<path fill="none" stroke="midnightblue" d="M885.16,-108.87C844.19,-96.44 792.78,-80.21 747.5,-64 744.52,-62.93 741.47,-61.82 738.41,-60.67"/>
<polygon fill="midnightblue" stroke="midnightblue" points="884.22,-112.24 894.8,-111.78 886.24,-105.54 884.22,-112.24"/>
</g>
<!-- Node18 -->
<g id="node18" class="node">
<title>Node18</title>
<g id="a_node18"><a xlink:href="Fluide__Dilatable__base_8cpp.html" target="_top" xlink:title=" ">
<polygon fill="white" stroke="black" points="756.5,-11.5 756.5,-52.5 886.5,-52.5 886.5,-11.5 756.5,-11.5"/>
<text text-anchor="start" x="764.5" y="-40.5" font-family="Helvetica,sans-Serif" font-size="10.00">src/ThHyd/Dilatable</text>
<text text-anchor="start" x="764.5" y="-29.5" font-family="Helvetica,sans-Serif" font-size="10.00">/Common/Milieu/Fluide</text>
<text text-anchor="middle" x="821.5" y="-18.5" font-family="Helvetica,sans-Serif" font-size="10.00">_Dilatable_base.cpp</text>
</a>
</g>
</g>
<!-- Node17&#45;&gt;Node18 -->
<g id="edge17" class="edge">
<title>Node17&#45;&gt;Node18</title>
<path fill="none" stroke="midnightblue" d="M916.48,-99.97C894.47,-84.45 868.5,-66.13 849.28,-52.59"/>
<polygon fill="midnightblue" stroke="midnightblue" points="914.51,-102.86 924.7,-105.76 918.55,-97.14 914.51,-102.86"/>
</g>
<!-- Node19 -->
<g id="node19" class="node">
<title>Node19</title>
<g id="a_node19"><a xlink:href="Loi__Etat__Multi__GP__QC_8cpp.html" target="_top" xlink:title=" ">
<polygon fill="white" stroke="black" points="905,-6 905,-58 1036,-58 1036,-6 905,-6"/>
<text text-anchor="start" x="913" y="-46" font-family="Helvetica,sans-Serif" font-size="10.00">src/ThHyd/Dilatable</text>
<text text-anchor="start" x="913" y="-35" font-family="Helvetica,sans-Serif" font-size="10.00">/Quasi_Compressible</text>
<text text-anchor="start" x="913" y="-24" font-family="Helvetica,sans-Serif" font-size="10.00">/Loi_Etat/Loi_Etat_Multi</text>
<text text-anchor="middle" x="970.5" y="-13" font-family="Helvetica,sans-Serif" font-size="10.00">_GP_QC.cpp</text>
</a>
</g>
</g>
<!-- Node17&#45;&gt;Node19 -->
<g id="edge19" class="edge">
<title>Node17&#45;&gt;Node19</title>
<path fill="none" stroke="midnightblue" d="M964.1,-95.7C965.37,-83.28 966.77,-69.57 967.93,-58.15"/>
<polygon fill="midnightblue" stroke="midnightblue" points="960.61,-95.46 963.08,-105.76 967.57,-96.17 960.61,-95.46"/>
</g>
<!-- Node20 -->
<g id="node20" class="node">
<title>Node20</title>
<g id="a_node20"><a xlink:href="Fluide__Quasi__Compressible_8cpp.html" target="_top" xlink:title=" ">
<polygon fill="white" stroke="black" points="1054,-6 1054,-58 1173,-58 1173,-6 1054,-6"/>
<text text-anchor="start" x="1062" y="-46" font-family="Helvetica,sans-Serif" font-size="10.00">src/ThHyd/Dilatable</text>
<text text-anchor="start" x="1062" y="-35" font-family="Helvetica,sans-Serif" font-size="10.00">/Quasi_Compressible</text>
<text text-anchor="start" x="1062" y="-24" font-family="Helvetica,sans-Serif" font-size="10.00">/Milieu/Fluide_Quasi</text>
<text text-anchor="middle" x="1113.5" y="-13" font-family="Helvetica,sans-Serif" font-size="10.00">_Compressible.cpp</text>
</a>
</g>
</g>
<!-- Node17&#45;&gt;Node20 -->
<g id="edge20" class="edge">
<title>Node17&#45;&gt;Node20</title>
<path fill="none" stroke="midnightblue" d="M1008.44,-100.3C1029.6,-86.74 1054.17,-71 1074.23,-58.15"/>
<polygon fill="midnightblue" stroke="midnightblue" points="1006.43,-97.42 999.9,-105.76 1010.21,-103.32 1006.43,-97.42"/>
</g>
<!-- Node21 -->
<g id="node21" class="node">
<title>Node21</title>
<g id="a_node21"><a xlink:href="EDO__Pression__th__VDF_8cpp.html" target="_top" xlink:title=" ">
<polygon fill="white" stroke="black" points="1191,-6 1191,-58 1316,-58 1316,-6 1191,-6"/>
<text text-anchor="start" x="1199" y="-46" font-family="Helvetica,sans-Serif" font-size="10.00">src/ThHyd/Dilatable</text>
<text text-anchor="start" x="1199" y="-35" font-family="Helvetica,sans-Serif" font-size="10.00">/Quasi_Compressible</text>
<text text-anchor="start" x="1199" y="-24" font-family="Helvetica,sans-Serif" font-size="10.00">/VDF/EDO_Pression_th</text>
<text text-anchor="middle" x="1253.5" y="-13" font-family="Helvetica,sans-Serif" font-size="10.00">_VDF.cpp</text>
</a>
</g>
</g>
<!-- Node17&#45;&gt;Node21 -->
<g id="edge21" class="edge">
<title>Node17&#45;&gt;Node21</title>
<path fill="none" stroke="midnightblue" d="M1028.22,-102.47C1030.66,-101.61 1033.1,-100.79 1035.5,-100 1099.43,-79.09 1118.78,-85.54 1182.5,-64 1187.72,-62.23 1193.1,-60.24 1198.43,-58.13"/>
<polygon fill="midnightblue" stroke="midnightblue" points="1026.92,-99.22 1018.73,-105.93 1029.32,-105.8 1026.92,-99.22"/>
</g>
<!-- Node22 -->
<g id="node22" class="node">
<title>Node22</title>
<g id="a_node22"><a xlink:href="EDO__Pression__th__VEF_8cpp.html" target="_top" xlink:title=" ">
<polygon fill="white" stroke="black" points="1334.5,-6 1334.5,-58 1458.5,-58 1458.5,-6 1334.5,-6"/>
<text text-anchor="start" x="1342.5" y="-46" font-family="Helvetica,sans-Serif" font-size="10.00">src/ThHyd/Dilatable</text>
<text text-anchor="start" x="1342.5" y="-35" font-family="Helvetica,sans-Serif" font-size="10.00">/Quasi_Compressible</text>
<text text-anchor="start" x="1342.5" y="-24" font-family="Helvetica,sans-Serif" font-size="10.00">/VEF/EDO_Pression_th</text>
<text text-anchor="middle" x="1396.5" y="-13" font-family="Helvetica,sans-Serif" font-size="10.00">_VEF.cpp</text>
</a>
</g>
</g>
<!-- Node17&#45;&gt;Node22 -->
<g id="edge22" class="edge">
<title>Node17&#45;&gt;Node22</title>
<path fill="none" stroke="midnightblue" d="M1026.01,-102.76C1029.19,-101.75 1032.37,-100.83 1035.5,-100 1161.09,-66.9 1200.24,-98.34 1325.5,-64 1331.47,-62.36 1337.58,-60.32 1343.6,-58.05"/>
<polygon fill="midnightblue" stroke="midnightblue" points="1024.81,-99.47 1016.45,-105.98 1027.05,-106.1 1024.81,-99.47"/>
</g>
<!-- Node24 -->
<g id="node24" class="node">
<title>Node24</title>
<g id="a_node24"><a xlink:href="Convection__Diffusion__Espece__Multi__WC_8cpp.html" target="_top" xlink:title=" ">
<polygon fill="white" stroke="black" points="1044,-100.5 1044,-163.5 1179,-163.5 1179,-100.5 1044,-100.5"/>
<text text-anchor="start" x="1052" y="-151.5" font-family="Helvetica,sans-Serif" font-size="10.00">src/ThHyd/Dilatable</text>
<text text-anchor="start" x="1052" y="-140.5" font-family="Helvetica,sans-Serif" font-size="10.00">/Weakly_Compressible</text>
<text text-anchor="start" x="1052" y="-129.5" font-family="Helvetica,sans-Serif" font-size="10.00">/Equations/Convection</text>
<text text-anchor="start" x="1052" y="-118.5" font-family="Helvetica,sans-Serif" font-size="10.00">_Diffusion_Espece_Multi</text>
<text text-anchor="middle" x="1111.5" y="-107.5" font-family="Helvetica,sans-Serif" font-size="10.00">_WC.cpp</text>
</a>
</g>
</g>
<!-- Node23&#45;&gt;Node24 -->
<g id="edge24" class="edge">
<title>Node23&#45;&gt;Node24</title>
<path fill="none" stroke="midnightblue" d="M1105.31,-190.23C1106.26,-181.43 1107.28,-172.06 1108.2,-163.51"/>
<polygon fill="midnightblue" stroke="midnightblue" points="1101.83,-189.91 1104.23,-200.22 1108.79,-190.66 1101.83,-189.91"/>
</g>
</g>
</svg>
