<?xml version="1.0" encoding="UTF-8" standalone="no"?>
<!DOCTYPE svg PUBLIC "-//W3C//DTD SVG 1.1//EN"
 "http://www.w3.org/Graphics/SVG/1.1/DTD/svg11.dtd">
<!-- Generated by graphviz version 2.43.0 (0)
 -->
<!-- Title: src/Kernel/ICoCo/Convert_ICoCoTrioField.h Pages: 1 -->
<svg width="1210pt" height="106pt"
 viewBox="0.00 0.00 1209.50 106.00" xmlns="http://www.w3.org/2000/svg" xmlns:xlink="http://www.w3.org/1999/xlink">
<g id="graph0" class="graph" transform="scale(1 1) rotate(0) translate(4 102)">
<title>src/Kernel/ICoCo/Convert_ICoCoTrioField.h</title>
<polygon fill="white" stroke="transparent" points="-4,4 -4,-102 1205.5,-102 1205.5,4 -4,4"/>
<!-- Node1 -->
<g id="node1" class="node">
<title>Node1</title>
<g id="a_node1"><a xlink:title=" ">
<polygon fill="#bfbfbf" stroke="black" points="534,-67.5 534,-97.5 671,-97.5 671,-67.5 534,-67.5"/>
<text text-anchor="start" x="542" y="-85.5" font-family="Helvetica,sans-Serif" font-size="10.00">src/Kernel/ICoCo/Convert</text>
<text text-anchor="middle" x="602.5" y="-74.5" font-family="Helvetica,sans-Serif" font-size="10.00">_ICoCoTrioField.h</text>
</a>
</g>
</g>
<!-- Node2 -->
<g id="node2" class="node">
<title>Node2</title>
<g id="a_node2"><a xlink:href="Ch__front__input_8cpp.html" target="_top" xlink:title=" ">
<polygon fill="white" stroke="black" points="0,-0.5 0,-30.5 123,-30.5 123,-0.5 0,-0.5"/>
<text text-anchor="start" x="8" y="-18.5" font-family="Helvetica,sans-Serif" font-size="10.00">src/Kernel/Champs/Ch</text>
<text text-anchor="middle" x="61.5" y="-7.5" font-family="Helvetica,sans-Serif" font-size="10.00">_front_input.cpp</text>
</a>
</g>
</g>
<!-- Node1&#45;&gt;Node2 -->
<g id="edge1" class="edge">
<title>Node1&#45;&gt;Node2</title>
<path fill="none" stroke="midnightblue" d="M524,-75.44C430.26,-67.66 268.88,-52.54 131.5,-31 128.8,-30.58 126.05,-30.12 123.28,-29.64"/>
<polygon fill="midnightblue" stroke="midnightblue" points="523.72,-78.93 533.98,-76.26 524.3,-71.95 523.72,-78.93"/>
</g>
<!-- Node3 -->
<g id="node3" class="node">
<title>Node3</title>
<g id="a_node3"><a xlink:href="Champ__Input__Proto_8cpp.html" target="_top" xlink:title=" ">
<polygon fill="white" stroke="black" points="141,-0.5 141,-30.5 286,-30.5 286,-0.5 141,-0.5"/>
<text text-anchor="start" x="149" y="-18.5" font-family="Helvetica,sans-Serif" font-size="10.00">src/Kernel/Champs/Champ</text>
<text text-anchor="middle" x="213.5" y="-7.5" font-family="Helvetica,sans-Serif" font-size="10.00">_Input_Proto.cpp</text>
</a>
</g>
</g>
<!-- Node1&#45;&gt;Node3 -->
<g id="edge2" class="edge">
<title>Node1&#45;&gt;Node3</title>
<path fill="none" stroke="midnightblue" d="M523.8,-68.92C461.54,-58.89 372.41,-44.36 294.5,-31 291.82,-30.54 289.1,-30.07 286.35,-29.59"/>
<polygon fill="midnightblue" stroke="midnightblue" points="523.52,-72.42 533.95,-70.55 524.63,-65.51 523.52,-72.42"/>
</g>
<!-- Node4 -->
<g id="node4" class="node">
<title>Node4</title>
<g id="a_node4"><a xlink:href="Champ__input__P0_8cpp.html" target="_top" xlink:title=" ">
<polygon fill="white" stroke="black" points="304,-0.5 304,-30.5 449,-30.5 449,-0.5 304,-0.5"/>
<text text-anchor="start" x="312" y="-18.5" font-family="Helvetica,sans-Serif" font-size="10.00">src/Kernel/Champs/Champ</text>
<text text-anchor="middle" x="376.5" y="-7.5" font-family="Helvetica,sans-Serif" font-size="10.00">_input_P0.cpp</text>
</a>
</g>
</g>
<!-- Node1&#45;&gt;Node4 -->
<g id="edge3" class="edge">
<title>Node1&#45;&gt;Node4</title>
<path fill="none" stroke="midnightblue" d="M543.67,-64.58C506.96,-54.02 460.27,-40.59 425.56,-30.61"/>
<polygon fill="midnightblue" stroke="midnightblue" points="543.16,-68.08 553.74,-67.48 545.1,-61.35 543.16,-68.08"/>
</g>
<!-- Node5 -->
<g id="node5" class="node">
<title>Node5</title>
<g id="a_node5"><a xlink:href="Ch__front__input__P1_8cpp.html" target="_top" xlink:title=" ">
<polygon fill="white" stroke="black" points="467.5,-0.5 467.5,-30.5 595.5,-30.5 595.5,-0.5 467.5,-0.5"/>
<text text-anchor="start" x="475.5" y="-18.5" font-family="Helvetica,sans-Serif" font-size="10.00">src/Kernel/Champs_dis</text>
<text text-anchor="middle" x="531.5" y="-7.5" font-family="Helvetica,sans-Serif" font-size="10.00">/Ch_front_input_P1.cpp</text>
</a>
</g>
</g>
<!-- Node1&#45;&gt;Node5 -->
<g id="edge4" class="edge">
<title>Node1&#45;&gt;Node5</title>
<path fill="none" stroke="midnightblue" d="M579.67,-60.6C568.95,-50.78 556.45,-39.34 546.88,-30.58"/>
<polygon fill="midnightblue" stroke="midnightblue" points="577.35,-63.22 587.09,-67.4 582.08,-58.06 577.35,-63.22"/>
</g>
<!-- Node6 -->
<g id="node6" class="node">
<title>Node6</title>
<g id="a_node6"><a xlink:href="Probleme__U_8cpp.html" target="_top" xlink:title=" ">
<polygon fill="white" stroke="black" points="613.5,-0.5 613.5,-30.5 735.5,-30.5 735.5,-0.5 613.5,-0.5"/>
<text text-anchor="start" x="621.5" y="-18.5" font-family="Helvetica,sans-Serif" font-size="10.00">src/Kernel/Framework</text>
<text text-anchor="middle" x="674.5" y="-7.5" font-family="Helvetica,sans-Serif" font-size="10.00">/Probleme_U.cpp</text>
</a>
</g>
</g>
<!-- Node1&#45;&gt;Node6 -->
<g id="edge5" class="edge">
<title>Node1&#45;&gt;Node6</title>
<path fill="none" stroke="midnightblue" d="M625.65,-60.6C636.52,-50.78 649.2,-39.34 658.91,-30.58"/>
<polygon fill="midnightblue" stroke="midnightblue" points="623.2,-58.1 618.12,-67.4 627.89,-63.29 623.2,-58.1"/>
</g>
<!-- Node7 -->
<g id="node7" class="node">
<title>Node7</title>
<g id="a_node7"><a xlink:href="Convert__ICoCoTrioField_8cpp.html" target="_top" xlink:title=" ">
<polygon fill="white" stroke="black" points="754,-0.5 754,-30.5 891,-30.5 891,-0.5 754,-0.5"/>
<text text-anchor="start" x="762" y="-18.5" font-family="Helvetica,sans-Serif" font-size="10.00">src/Kernel/ICoCo/Convert</text>
<text text-anchor="middle" x="822.5" y="-7.5" font-family="Helvetica,sans-Serif" font-size="10.00">_ICoCoTrioField.cpp</text>
</a>
</g>
</g>
<!-- Node1&#45;&gt;Node7 -->
<g id="edge6" class="edge">
<title>Node1&#45;&gt;Node7</title>
<path fill="none" stroke="midnightblue" d="M659.77,-64.58C695.5,-54.02 740.96,-40.59 774.74,-30.61"/>
<polygon fill="midnightblue" stroke="midnightblue" points="658.56,-61.29 649.97,-67.48 660.55,-68 658.56,-61.29"/>
</g>
<!-- Node8 -->
<g id="node8" class="node">
<title>Node8</title>
<g id="a_node8"><a xlink:href="ProblemTrio_8cpp.html" target="_top" xlink:title=" ">
<polygon fill="white" stroke="black" points="909.5,-0.5 909.5,-30.5 1049.5,-30.5 1049.5,-0.5 909.5,-0.5"/>
<text text-anchor="start" x="917.5" y="-18.5" font-family="Helvetica,sans-Serif" font-size="10.00">src/Kernel/ICoCo/Problem</text>
<text text-anchor="middle" x="979.5" y="-7.5" font-family="Helvetica,sans-Serif" font-size="10.00">Trio.cpp</text>
</a>
</g>
</g>
<!-- Node1&#45;&gt;Node8 -->
<g id="edge7" class="edge">
<title>Node1&#45;&gt;Node8</title>
<path fill="none" stroke="midnightblue" d="M681.37,-68.44C741.47,-58.41 826.25,-44.1 900.5,-31 903.38,-30.49 906.33,-29.97 909.3,-29.44"/>
<polygon fill="midnightblue" stroke="midnightblue" points="680.48,-65.04 671.2,-70.13 681.63,-71.94 680.48,-65.04"/>
</g>
<!-- Node9 -->
<g id="node9" class="node">
<title>Node9</title>
<g id="a_node9"><a xlink:href="Testeur__MEDCoupling_8cpp.html" target="_top" xlink:title=" ">
<polygon fill="white" stroke="black" points="1067.5,-0.5 1067.5,-30.5 1201.5,-30.5 1201.5,-0.5 1067.5,-0.5"/>
<text text-anchor="start" x="1075.5" y="-18.5" font-family="Helvetica,sans-Serif" font-size="10.00">src/Kernel/ICoCo/Testeur</text>
<text text-anchor="middle" x="1134.5" y="-7.5" font-family="Helvetica,sans-Serif" font-size="10.00">_MEDCoupling.cpp</text>
</a>
</g>
</g>
<!-- Node1&#45;&gt;Node9 -->
<g id="edge8" class="edge">
<title>Node1&#45;&gt;Node9</title>
<path fill="none" stroke="midnightblue" d="M681.06,-74.68C772.12,-66.35 926.59,-50.86 1058.5,-31 1061.42,-30.56 1064.4,-30.09 1067.41,-29.59"/>
<polygon fill="midnightblue" stroke="midnightblue" points="680.73,-71.2 671.09,-75.59 681.36,-78.17 680.73,-71.2"/>
</g>
</g>
</svg>
