<?xml version="1.0" encoding="UTF-8" standalone="no"?>
<!DOCTYPE svg PUBLIC "-//W3C//DTD SVG 1.1//EN"
 "http://www.w3.org/Graphics/SVG/1.1/DTD/svg11.dtd">
<!-- Generated by graphviz version 2.43.0 (0)
 -->
<!-- Title: src/Kernel/ICoCo/Convert_ICoCoTrioField.h Pages: 1 -->
<svg width="532pt" height="95pt"
 viewBox="0.00 0.00 531.50 95.00" xmlns="http://www.w3.org/2000/svg" xmlns:xlink="http://www.w3.org/1999/xlink">
<g id="graph0" class="graph" transform="scale(1 1) rotate(0) translate(4 91)">
<title>src/Kernel/ICoCo/Convert_ICoCoTrioField.h</title>
<polygon fill="white" stroke="transparent" points="-4,4 -4,-91 527.5,-91 527.5,4 -4,4"/>
<!-- Node1 -->
<g id="node1" class="node">
<title>Node1</title>
<g id="a_node1"><a xlink:title=" ">
<polygon fill="#bfbfbf" stroke="black" points="172,-56.5 172,-86.5 309,-86.5 309,-56.5 172,-56.5"/>
<text text-anchor="start" x="180" y="-74.5" font-family="Helvetica,sans-Serif" font-size="10.00">src/Kernel/ICoCo/Convert</text>
<text text-anchor="middle" x="240.5" y="-63.5" font-family="Helvetica,sans-Serif" font-size="10.00">_ICoCoTrioField.h</text>
</a>
</g>
</g>
<!-- Node2 -->
<g id="node2" class="node">
<title>Node2</title>
<g id="a_node2"><a xlink:title=" ">
<polygon fill="white" stroke="#bfbfbf" points="0,-0.5 0,-19.5 95,-19.5 95,-0.5 0,-0.5"/>
<text text-anchor="middle" x="47.5" y="-7.5" font-family="Helvetica,sans-Serif" font-size="10.00">ICoCoTrioField.h</text>
</a>
</g>
</g>
<!-- Node1&#45;&gt;Node2 -->
<g id="edge1" class="edge">
<title>Node1&#45;&gt;Node2</title>
<path fill="none" stroke="midnightblue" d="M194.76,-56.4C161.27,-46.07 116.37,-32.23 84.98,-22.56"/>
<polygon fill="midnightblue" stroke="midnightblue" points="85.89,-19.17 75.3,-19.57 83.83,-25.86 85.89,-19.17"/>
</g>
<!-- Node3 -->
<g id="node3" class="node">
<title>Node3</title>
<g id="a_node3"><a xlink:href="TRUSTTabs__forward_8h.html" target="_top" xlink:title=" ">
<polygon fill="white" stroke="black" points="113.5,-0.5 113.5,-19.5 235.5,-19.5 235.5,-0.5 113.5,-0.5"/>
<text text-anchor="middle" x="174.5" y="-7.5" font-family="Helvetica,sans-Serif" font-size="10.00">TRUSTTabs_forward.h</text>
</a>
</g>
</g>
<!-- Node1&#45;&gt;Node3 -->
<g id="edge2" class="edge">
<title>Node1&#45;&gt;Node3</title>
<path fill="none" stroke="midnightblue" d="M224.86,-56.4C214.87,-47.4 201.92,-35.72 191.65,-26.47"/>
<polygon fill="midnightblue" stroke="midnightblue" points="193.87,-23.75 184.1,-19.66 189.19,-28.95 193.87,-23.75"/>
</g>
<!-- Node4 -->
<g id="node4" class="node">
<title>Node4</title>
<g id="a_node4"><a xlink:title=" ">
<polygon fill="white" stroke="#bfbfbf" points="254,-0.5 254,-19.5 359,-19.5 359,-0.5 254,-0.5"/>
<text text-anchor="middle" x="306.5" y="-7.5" font-family="Helvetica,sans-Serif" font-size="10.00">medcoupling++.h</text>
</a>
</g>
</g>
<!-- Node1&#45;&gt;Node4 -->
<g id="edge3" class="edge">
<title>Node1&#45;&gt;Node4</title>
<path fill="none" stroke="midnightblue" d="M256.14,-56.4C266.13,-47.4 279.08,-35.72 289.35,-26.47"/>
<polygon fill="midnightblue" stroke="midnightblue" points="291.81,-28.95 296.9,-19.66 287.13,-23.75 291.81,-28.95"/>
</g>
<!-- Node5 -->
<g id="node5" class="node">
<title>Node5</title>
<g id="a_node5"><a xlink:title=" ">
<polygon fill="white" stroke="#bfbfbf" points="377.5,-0.5 377.5,-19.5 523.5,-19.5 523.5,-0.5 377.5,-0.5"/>
<text text-anchor="middle" x="450.5" y="-7.5" font-family="Helvetica,sans-Serif" font-size="10.00">ICoCoMEDDoubleField.hxx</text>
</a>
</g>
</g>
<!-- Node1&#45;&gt;Node5 -->
<g id="edge4" class="edge">
<title>Node1&#45;&gt;Node5</title>
<path fill="none" stroke="midnightblue" d="M290,-56.47C326.86,-46.03 376.53,-31.96 410.81,-22.25"/>
<polygon fill="midnightblue" stroke="midnightblue" points="411.81,-25.6 420.48,-19.51 409.9,-18.87 411.81,-25.6"/>
</g>
</g>
</svg>
