<?xml version="1.0" encoding="UTF-8" standalone="no"?>
<!DOCTYPE svg PUBLIC "-//W3C//DTD SVG 1.1//EN"
 "http://www.w3.org/Graphics/SVG/1.1/DTD/svg11.dtd">
<!-- Generated by graphviz version 2.43.0 (0)
 -->
<!-- Title: src/Kernel/Framework/Couplage_U.h Pages: 1 -->
<svg width="883pt" height="1002pt"
 viewBox="0.00 0.00 882.50 1002.00" xmlns="http://www.w3.org/2000/svg" xmlns:xlink="http://www.w3.org/1999/xlink">
<g id="graph0" class="graph" transform="scale(1 1) rotate(0) translate(4 998)">
<title>src/Kernel/Framework/Couplage_U.h</title>
<polygon fill="white" stroke="transparent" points="-4,4 -4,-998 878.5,-998 878.5,4 -4,4"/>
<!-- Node1 -->
<g id="node1" class="node">
<title>Node1</title>
<g id="a_node1"><a xlink:title=" ">
<polygon fill="#bfbfbf" stroke="black" points="519,-963.5 519,-993.5 641,-993.5 641,-963.5 519,-963.5"/>
<text text-anchor="start" x="527" y="-981.5" font-family="Helvetica,sans-Serif" font-size="10.00">src/Kernel/Framework</text>
<text text-anchor="middle" x="580" y="-970.5" font-family="Helvetica,sans-Serif" font-size="10.00">/Couplage_U.h</text>
</a>
</g>
</g>
<!-- Node2 -->
<g id="node2" class="node">
<title>Node2</title>
<g id="a_node2"><a xlink:href="Probleme__U_8h.html" target="_top" xlink:title=" ">
<polygon fill="white" stroke="black" points="679.5,-739.5 679.5,-758.5 764.5,-758.5 764.5,-739.5 679.5,-739.5"/>
<text text-anchor="middle" x="722" y="-746.5" font-family="Helvetica,sans-Serif" font-size="10.00">Probleme_U.h</text>
</a>
</g>
</g>
<!-- Node1&#45;&gt;Node2 -->
<g id="edge1" class="edge">
<title>Node1&#45;&gt;Node2</title>
<path fill="none" stroke="midnightblue" d="M588.88,-963.27C613.72,-923.48 683.84,-811.13 711.03,-767.57"/>
<polygon fill="midnightblue" stroke="midnightblue" points="714.1,-769.26 716.43,-758.93 708.16,-765.56 714.1,-769.26"/>
</g>
<!-- Node31 -->
<g id="node31" class="node">
<title>Node31</title>
<g id="a_node31"><a xlink:href="List__Ref__Probleme__U_8h.html" target="_top" xlink:title=" ">
<polygon fill="white" stroke="black" points="469.5,-907.5 469.5,-926.5 598.5,-926.5 598.5,-907.5 469.5,-907.5"/>
<text text-anchor="middle" x="534" y="-914.5" font-family="Helvetica,sans-Serif" font-size="10.00">List_Ref_Probleme_U.h</text>
</a>
</g>
</g>
<!-- Node1&#45;&gt;Node31 -->
<g id="edge41" class="edge">
<title>Node1&#45;&gt;Node31</title>
<path fill="none" stroke="midnightblue" d="M569.1,-963.4C562.41,-954.75 553.82,-943.64 546.82,-934.58"/>
<polygon fill="midnightblue" stroke="midnightblue" points="549.58,-932.43 540.69,-926.66 544.04,-936.71 549.58,-932.43"/>
</g>
<!-- Node3 -->
<g id="node3" class="node">
<title>Node3</title>
<g id="a_node3"><a xlink:href="Ref__Field__base_8h.html" target="_top" xlink:title=" ">
<polygon fill="white" stroke="black" points="556.5,-678 556.5,-697 655.5,-697 655.5,-678 556.5,-678"/>
<text text-anchor="middle" x="606" y="-685" font-family="Helvetica,sans-Serif" font-size="10.00">Ref_Field_base.h</text>
</a>
</g>
</g>
<!-- Node2&#45;&gt;Node3 -->
<g id="edge2" class="edge">
<title>Node2&#45;&gt;Node3</title>
<path fill="none" stroke="midnightblue" d="M705.38,-739.48C686.08,-729.58 654.04,-713.14 631.57,-701.62"/>
<polygon fill="midnightblue" stroke="midnightblue" points="633.08,-698.46 622.59,-697.01 629.89,-704.69 633.08,-698.46"/>
</g>
<!-- Node28 -->
<g id="node28" class="node">
<title>Node28</title>
<g id="a_node28"><a xlink:href="Ref__Champ__Generique__base_8h.html" target="_top" xlink:title=" ">
<polygon fill="white" stroke="black" points="674,-672.5 674,-702.5 802,-702.5 802,-672.5 674,-672.5"/>
<text text-anchor="start" x="682" y="-690.5" font-family="Helvetica,sans-Serif" font-size="10.00">Ref_Champ_Generique</text>
<text text-anchor="middle" x="738" y="-679.5" font-family="Helvetica,sans-Serif" font-size="10.00">_base.h</text>
</a>
</g>
</g>
<!-- Node2&#45;&gt;Node28 -->
<g id="edge35" class="edge">
<title>Node2&#45;&gt;Node28</title>
<path fill="none" stroke="midnightblue" d="M724.29,-739.48C726.2,-732.4 729,-721.97 731.58,-712.39"/>
<polygon fill="midnightblue" stroke="midnightblue" points="735.01,-713.09 734.23,-702.52 728.25,-711.27 735.01,-713.09"/>
</g>
<!-- Node29 -->
<g id="node29" class="node">
<title>Node29</title>
<g id="a_node29"><a xlink:href="ScalarRegister_8h.html" target="_top" xlink:title=" ">
<polygon fill="white" stroke="black" points="779.5,-504.5 779.5,-523.5 874.5,-523.5 874.5,-504.5 779.5,-504.5"/>
<text text-anchor="middle" x="827" y="-511.5" font-family="Helvetica,sans-Serif" font-size="10.00">ScalarRegister.h</text>
</a>
</g>
</g>
<!-- Node2&#45;&gt;Node29 -->
<g id="edge37" class="edge">
<title>Node2&#45;&gt;Node29</title>
<path fill="none" stroke="midnightblue" d="M756.75,-739.43C776,-732.79 798.5,-721.51 811,-703 846.39,-650.57 837.49,-570.27 830.99,-533.98"/>
<polygon fill="midnightblue" stroke="midnightblue" points="834.36,-532.98 829.02,-523.83 827.49,-534.31 834.36,-532.98"/>
</g>
<!-- Node4 -->
<g id="node4" class="node">
<title>Node4</title>
<g id="a_node4"><a xlink:href="Ref_8h.html" target="_top" xlink:title=" ">
<polygon fill="white" stroke="black" points="520.5,-616.5 520.5,-635.5 561.5,-635.5 561.5,-616.5 520.5,-616.5"/>
<text text-anchor="middle" x="541" y="-623.5" font-family="Helvetica,sans-Serif" font-size="10.00">Ref.h</text>
</a>
</g>
</g>
<!-- Node3&#45;&gt;Node4 -->
<g id="edge3" class="edge">
<title>Node3&#45;&gt;Node4</title>
<path fill="none" stroke="midnightblue" d="M596.69,-677.98C586.55,-668.7 570.14,-653.67 557.75,-642.33"/>
<polygon fill="midnightblue" stroke="midnightblue" points="560.04,-639.68 550.3,-635.51 555.31,-644.84 560.04,-639.68"/>
</g>
<!-- Node5 -->
<g id="node5" class="node">
<title>Node5</title>
<g id="a_node5"><a xlink:href="MacRef_8h.html" target="_top" xlink:title=" ">
<polygon fill="white" stroke="black" points="490,-560.5 490,-579.5 552,-579.5 552,-560.5 490,-560.5"/>
<text text-anchor="middle" x="521" y="-567.5" font-family="Helvetica,sans-Serif" font-size="10.00">MacRef.h</text>
</a>
</g>
</g>
<!-- Node4&#45;&gt;Node5 -->
<g id="edge4" class="edge">
<title>Node4&#45;&gt;Node5</title>
<path fill="none" stroke="midnightblue" d="M537.7,-616.08C535.02,-608.85 531.15,-598.41 527.81,-589.4"/>
<polygon fill="midnightblue" stroke="midnightblue" points="531,-587.91 524.24,-579.75 524.43,-590.34 531,-587.91"/>
</g>
<!-- Node6 -->
<g id="node6" class="node">
<title>Node6</title>
<g id="a_node6"><a xlink:href="Ref___8h.html" target="_top" xlink:title=" ">
<polygon fill="white" stroke="black" points="510.5,-504.5 510.5,-523.5 557.5,-523.5 557.5,-504.5 510.5,-504.5"/>
<text text-anchor="middle" x="534" y="-511.5" font-family="Helvetica,sans-Serif" font-size="10.00">Ref_.h</text>
</a>
</g>
</g>
<!-- Node5&#45;&gt;Node6 -->
<g id="edge5" class="edge">
<title>Node5&#45;&gt;Node6</title>
<path fill="none" stroke="midnightblue" d="M523.15,-560.08C524.87,-552.93 527.35,-542.64 529.5,-533.69"/>
<polygon fill="midnightblue" stroke="midnightblue" points="532.96,-534.29 531.89,-523.75 526.15,-532.65 532.96,-534.29"/>
</g>
<!-- Node7 -->
<g id="node7" class="node">
<title>Node7</title>
<g id="a_node7"><a xlink:href="O__U__Ptr_8h.html" target="_top" xlink:title=" ">
<polygon fill="white" stroke="black" points="451,-280.5 451,-299.5 515,-299.5 515,-280.5 451,-280.5"/>
<text text-anchor="middle" x="483" y="-287.5" font-family="Helvetica,sans-Serif" font-size="10.00">O_U_Ptr.h</text>
</a>
</g>
</g>
<!-- Node6&#45;&gt;Node7 -->
<g id="edge6" class="edge">
<title>Node6&#45;&gt;Node7</title>
<path fill="none" stroke="midnightblue" d="M533.12,-504.37C530.34,-478.45 520.79,-399.15 502,-336 499.28,-326.86 495.28,-317.06 491.65,-308.95"/>
<polygon fill="midnightblue" stroke="midnightblue" points="494.77,-307.35 487.38,-299.75 488.42,-310.3 494.77,-307.35"/>
</g>
<!-- Node26 -->
<g id="node26" class="node">
<title>Node26</title>
<g id="a_node26"><a xlink:href="Nom_8h.html" target="_top" xlink:title=" ">
<polygon fill="white" stroke="black" points="585.5,-448.5 585.5,-467.5 634.5,-467.5 634.5,-448.5 585.5,-448.5"/>
<text text-anchor="middle" x="610" y="-455.5" font-family="Helvetica,sans-Serif" font-size="10.00">Nom.h</text>
</a>
</g>
</g>
<!-- Node6&#45;&gt;Node26 -->
<g id="edge31" class="edge">
<title>Node6&#45;&gt;Node26</title>
<path fill="none" stroke="midnightblue" d="M546.21,-504.32C557.78,-496.11 575.38,-483.6 589.16,-473.81"/>
<polygon fill="midnightblue" stroke="midnightblue" points="591.44,-476.48 597.57,-467.83 587.39,-470.77 591.44,-476.48"/>
</g>
<!-- Node8 -->
<g id="node8" class="node">
<title>Node8</title>
<g id="a_node8"><a xlink:href="Objet__U_8h.html" target="_top" xlink:title=" ">
<polygon fill="white" stroke="black" points="450.5,-224.5 450.5,-243.5 515.5,-243.5 515.5,-224.5 450.5,-224.5"/>
<text text-anchor="middle" x="483" y="-231.5" font-family="Helvetica,sans-Serif" font-size="10.00">Objet_U.h</text>
</a>
</g>
</g>
<!-- Node7&#45;&gt;Node8 -->
<g id="edge7" class="edge">
<title>Node7&#45;&gt;Node8</title>
<path fill="none" stroke="midnightblue" d="M483,-280.08C483,-273.01 483,-262.86 483,-253.99"/>
<polygon fill="midnightblue" stroke="midnightblue" points="486.5,-253.75 483,-243.75 479.5,-253.75 486.5,-253.75"/>
</g>
<!-- Node9 -->
<g id="node9" class="node">
<title>Node9</title>
<g id="a_node9"><a xlink:title=" ">
<polygon fill="white" stroke="#bfbfbf" points="601,-56.5 601,-75.5 657,-75.5 657,-56.5 601,-56.5"/>
<text text-anchor="middle" x="629" y="-63.5" font-family="Helvetica,sans-Serif" font-size="10.00">assert.h</text>
</a>
</g>
</g>
<!-- Node8&#45;&gt;Node9 -->
<g id="edge8" class="edge">
<title>Node8&#45;&gt;Node9</title>
<path fill="none" stroke="midnightblue" d="M501.23,-224.41C530.21,-209.76 586.42,-177.09 615,-132 623.79,-118.14 627.13,-99.62 628.37,-85.9"/>
<polygon fill="midnightblue" stroke="midnightblue" points="631.88,-85.9 628.99,-75.71 624.89,-85.48 631.88,-85.9"/>
</g>
<!-- Node10 -->
<g id="node10" class="node">
<title>Node10</title>
<g id="a_node10"><a xlink:href="DecBaseInst_8h.html" target="_top" xlink:title=" ">
<polygon fill="white" stroke="black" points="135,-168.5 135,-187.5 221,-187.5 221,-168.5 135,-168.5"/>
<text text-anchor="middle" x="178" y="-175.5" font-family="Helvetica,sans-Serif" font-size="10.00">DecBaseInst.h</text>
</a>
</g>
</g>
<!-- Node8&#45;&gt;Node10 -->
<g id="edge9" class="edge">
<title>Node8&#45;&gt;Node10</title>
<path fill="none" stroke="midnightblue" d="M450.36,-227.22C397.95,-217.94 294.53,-199.63 231.3,-188.44"/>
<polygon fill="midnightblue" stroke="midnightblue" points="231.59,-184.93 221.13,-186.64 230.37,-191.83 231.59,-184.93"/>
</g>
<!-- Node15 -->
<g id="node15" class="node">
<title>Node15</title>
<g id="a_node15"><a xlink:href="EntreeSortie_8h.html" target="_top" xlink:title=" ">
<polygon fill="white" stroke="black" points="440,-168.5 440,-187.5 526,-187.5 526,-168.5 440,-168.5"/>
<text text-anchor="middle" x="483" y="-175.5" font-family="Helvetica,sans-Serif" font-size="10.00">EntreeSortie.h</text>
</a>
</g>
</g>
<!-- Node8&#45;&gt;Node15 -->
<g id="edge15" class="edge">
<title>Node8&#45;&gt;Node15</title>
<path fill="none" stroke="midnightblue" d="M483,-224.08C483,-217.01 483,-206.86 483,-197.99"/>
<polygon fill="midnightblue" stroke="midnightblue" points="486.5,-197.75 483,-187.75 479.5,-197.75 486.5,-197.75"/>
</g>
<!-- Node20 -->
<g id="node20" class="node">
<title>Node20</title>
<g id="a_node20"><a xlink:href="Process_8h.html" target="_top" xlink:title=" ">
<polygon fill="white" stroke="black" points="238.5,-56.5 238.5,-75.5 301.5,-75.5 301.5,-56.5 238.5,-56.5"/>
<text text-anchor="middle" x="270" y="-63.5" font-family="Helvetica,sans-Serif" font-size="10.00">Process.h</text>
</a>
</g>
</g>
<!-- Node8&#45;&gt;Node20 -->
<g id="edge30" class="edge">
<title>Node8&#45;&gt;Node20</title>
<path fill="none" stroke="midnightblue" d="M472.62,-224.28C448.48,-204.07 386.56,-152.67 333,-112 319.22,-101.53 303.36,-90.21 291.01,-81.54"/>
<polygon fill="midnightblue" stroke="midnightblue" points="292.91,-78.6 282.71,-75.75 288.9,-84.34 292.91,-78.6"/>
</g>
<!-- Node11 -->
<g id="node11" class="node">
<title>Node11</title>
<g id="a_node11"><a xlink:href="Cast_8h.html" target="_top" xlink:title=" ">
<polygon fill="white" stroke="black" points="55.5,-56.5 55.5,-75.5 102.5,-75.5 102.5,-56.5 55.5,-56.5"/>
<text text-anchor="middle" x="79" y="-63.5" font-family="Helvetica,sans-Serif" font-size="10.00">Cast.h</text>
</a>
</g>
</g>
<!-- Node10&#45;&gt;Node11 -->
<g id="edge10" class="edge">
<title>Node10&#45;&gt;Node11</title>
<path fill="none" stroke="midnightblue" d="M168.79,-168.27C159.51,-159.38 144.91,-145.06 133,-132 118.4,-115.99 102.68,-96.83 91.99,-83.47"/>
<polygon fill="midnightblue" stroke="midnightblue" points="94.71,-81.27 85.75,-75.63 89.23,-85.63 94.71,-81.27"/>
</g>
<!-- Node12 -->
<g id="node12" class="node">
<title>Node12</title>
<g id="a_node12"><a xlink:href="Type__info_8h.html" target="_top" xlink:title=" ">
<polygon fill="white" stroke="black" points="142,-112.5 142,-131.5 214,-131.5 214,-112.5 142,-112.5"/>
<text text-anchor="middle" x="178" y="-119.5" font-family="Helvetica,sans-Serif" font-size="10.00">Type_info.h</text>
</a>
</g>
</g>
<!-- Node10&#45;&gt;Node12 -->
<g id="edge11" class="edge">
<title>Node10&#45;&gt;Node12</title>
<path fill="none" stroke="midnightblue" d="M178,-168.08C178,-161.01 178,-150.86 178,-141.99"/>
<polygon fill="midnightblue" stroke="midnightblue" points="181.5,-141.75 178,-131.75 174.5,-141.75 181.5,-141.75"/>
</g>
<!-- Node13 -->
<g id="node13" class="node">
<title>Node13</title>
<g id="a_node13"><a xlink:href="Declare__Base_8h.html" target="_top" xlink:title=" ">
<polygon fill="white" stroke="black" points="232,-112.5 232,-131.5 324,-131.5 324,-112.5 232,-112.5"/>
<text text-anchor="middle" x="278" y="-119.5" font-family="Helvetica,sans-Serif" font-size="10.00">Declare_Base.h</text>
</a>
</g>
</g>
<!-- Node10&#45;&gt;Node13 -->
<g id="edge12" class="edge">
<title>Node10&#45;&gt;Node13</title>
<path fill="none" stroke="midnightblue" d="M194.07,-168.32C209.96,-159.74 234.51,-146.49 252.96,-136.52"/>
<polygon fill="midnightblue" stroke="midnightblue" points="254.84,-139.49 261.97,-131.65 251.51,-133.33 254.84,-139.49"/>
</g>
<!-- Node14 -->
<g id="node14" class="node">
<title>Node14</title>
<g id="a_node14"><a xlink:href="Declare__Inst_8h.html" target="_top" xlink:title=" ">
<polygon fill="white" stroke="black" points="0,-112.5 0,-131.5 86,-131.5 86,-112.5 0,-112.5"/>
<text text-anchor="middle" x="43" y="-119.5" font-family="Helvetica,sans-Serif" font-size="10.00">Declare_Inst.h</text>
</a>
</g>
</g>
<!-- Node10&#45;&gt;Node14 -->
<g id="edge13" class="edge">
<title>Node10&#45;&gt;Node14</title>
<path fill="none" stroke="midnightblue" d="M156.61,-168.44C134.29,-159.52 99.1,-145.44 73.79,-135.32"/>
<polygon fill="midnightblue" stroke="midnightblue" points="74.88,-131.98 64.29,-131.52 72.28,-138.48 74.88,-131.98"/>
</g>
<!-- Node14&#45;&gt;Node11 -->
<g id="edge14" class="edge">
<title>Node14&#45;&gt;Node11</title>
<path fill="none" stroke="midnightblue" d="M48.94,-112.08C53.98,-104.53 61.34,-93.49 67.51,-84.23"/>
<polygon fill="midnightblue" stroke="midnightblue" points="70.53,-86.01 73.17,-75.75 64.71,-82.13 70.53,-86.01"/>
</g>
<!-- Node16 -->
<g id="node16" class="node">
<title>Node16</title>
<g id="a_node16"><a xlink:href="Entree_8h.html" target="_top" xlink:title=" ">
<polygon fill="white" stroke="black" points="380.5,-112.5 380.5,-131.5 437.5,-131.5 437.5,-112.5 380.5,-112.5"/>
<text text-anchor="middle" x="409" y="-119.5" font-family="Helvetica,sans-Serif" font-size="10.00">Entree.h</text>
</a>
</g>
</g>
<!-- Node15&#45;&gt;Node16 -->
<g id="edge16" class="edge">
<title>Node15&#45;&gt;Node16</title>
<path fill="none" stroke="midnightblue" d="M471.11,-168.32C459.85,-160.11 442.71,-147.6 429.29,-137.81"/>
<polygon fill="midnightblue" stroke="midnightblue" points="431.25,-134.9 421.11,-131.83 427.12,-140.56 431.25,-134.9"/>
</g>
<!-- Node23 -->
<g id="node23" class="node">
<title>Node23</title>
<g id="a_node23"><a xlink:href="Sortie_8h.html" target="_top" xlink:title=" ">
<polygon fill="white" stroke="black" points="456,-112.5 456,-131.5 510,-131.5 510,-112.5 456,-112.5"/>
<text text-anchor="middle" x="483" y="-119.5" font-family="Helvetica,sans-Serif" font-size="10.00">Sortie.h</text>
</a>
</g>
</g>
<!-- Node15&#45;&gt;Node23 -->
<g id="edge24" class="edge">
<title>Node15&#45;&gt;Node23</title>
<path fill="none" stroke="midnightblue" d="M483,-168.08C483,-161.01 483,-150.86 483,-141.99"/>
<polygon fill="midnightblue" stroke="midnightblue" points="486.5,-141.75 483,-131.75 479.5,-141.75 486.5,-141.75"/>
</g>
<!-- Node25 -->
<g id="node25" class="node">
<title>Node25</title>
<g id="a_node25"><a xlink:href="Separateur_8h.html" target="_top" xlink:title=" ">
<polygon fill="white" stroke="black" points="528,-112.5 528,-131.5 606,-131.5 606,-112.5 528,-112.5"/>
<text text-anchor="middle" x="567" y="-119.5" font-family="Helvetica,sans-Serif" font-size="10.00">Separateur.h</text>
</a>
</g>
</g>
<!-- Node15&#45;&gt;Node25 -->
<g id="edge29" class="edge">
<title>Node15&#45;&gt;Node25</title>
<path fill="none" stroke="midnightblue" d="M496.5,-168.32C509.6,-159.9 529.71,-146.97 545.11,-137.07"/>
<polygon fill="midnightblue" stroke="midnightblue" points="547.02,-140.01 553.54,-131.65 543.23,-134.12 547.02,-140.01"/>
</g>
<!-- Node16&#45;&gt;Node9 -->
<g id="edge20" class="edge">
<title>Node16&#45;&gt;Node9</title>
<path fill="none" stroke="midnightblue" d="M437.76,-113.94C477.01,-104.31 547.44,-87.02 591,-76.33"/>
<polygon fill="midnightblue" stroke="midnightblue" points="592.05,-79.67 600.93,-73.89 590.38,-72.88 592.05,-79.67"/>
</g>
<!-- Node17 -->
<g id="node17" class="node">
<title>Node17</title>
<g id="a_node17"><a xlink:title=" ">
<polygon fill="white" stroke="#bfbfbf" points="384,-56.5 384,-75.5 434,-75.5 434,-56.5 384,-56.5"/>
<text text-anchor="middle" x="409" y="-63.5" font-family="Helvetica,sans-Serif" font-size="10.00">stdio.h</text>
</a>
</g>
</g>
<!-- Node16&#45;&gt;Node17 -->
<g id="edge17" class="edge">
<title>Node16&#45;&gt;Node17</title>
<path fill="none" stroke="midnightblue" d="M409,-112.08C409,-105.01 409,-94.86 409,-85.99"/>
<polygon fill="midnightblue" stroke="midnightblue" points="412.5,-85.75 409,-75.75 405.5,-85.75 412.5,-85.75"/>
</g>
<!-- Node18 -->
<g id="node18" class="node">
<title>Node18</title>
<g id="a_node18"><a xlink:title=" ">
<polygon fill="white" stroke="#bfbfbf" points="320,-56.5 320,-75.5 366,-75.5 366,-56.5 320,-56.5"/>
<text text-anchor="middle" x="343" y="-63.5" font-family="Helvetica,sans-Serif" font-size="10.00">cstdio</text>
</a>
</g>
</g>
<!-- Node16&#45;&gt;Node18 -->
<g id="edge18" class="edge">
<title>Node16&#45;&gt;Node18</title>
<path fill="none" stroke="midnightblue" d="M398.4,-112.32C388.54,-104.26 373.65,-92.08 361.78,-82.37"/>
<polygon fill="midnightblue" stroke="midnightblue" points="363.75,-79.46 353.8,-75.83 359.32,-84.88 363.75,-79.46"/>
</g>
<!-- Node19 -->
<g id="node19" class="node">
<title>Node19</title>
<g id="a_node19"><a xlink:title=" ">
<polygon fill="white" stroke="#bfbfbf" points="452,-56.5 452,-75.5 512,-75.5 512,-56.5 452,-56.5"/>
<text text-anchor="middle" x="482" y="-63.5" font-family="Helvetica,sans-Serif" font-size="10.00">iostream</text>
</a>
</g>
</g>
<!-- Node16&#45;&gt;Node19 -->
<g id="edge19" class="edge">
<title>Node16&#45;&gt;Node19</title>
<path fill="none" stroke="midnightblue" d="M420.73,-112.32C431.84,-104.11 448.74,-91.6 461.98,-81.81"/>
<polygon fill="midnightblue" stroke="midnightblue" points="464.1,-84.59 470.06,-75.83 459.94,-78.97 464.1,-84.59"/>
</g>
<!-- Node16&#45;&gt;Node20 -->
<g id="edge21" class="edge">
<title>Node16&#45;&gt;Node20</title>
<path fill="none" stroke="midnightblue" d="M386.98,-112.44C363.9,-103.48 327.44,-89.31 301.36,-79.18"/>
<polygon fill="midnightblue" stroke="midnightblue" points="302.51,-75.88 291.92,-75.52 299.98,-82.4 302.51,-75.88"/>
</g>
<!-- Node21 -->
<g id="node21" class="node">
<title>Node21</title>
<g id="a_node21"><a xlink:href="arch_8h.html" target="_top" xlink:title=" ">
<polygon fill="white" stroke="black" points="530.5,-56.5 530.5,-75.5 577.5,-75.5 577.5,-56.5 530.5,-56.5"/>
<text text-anchor="middle" x="554" y="-63.5" font-family="Helvetica,sans-Serif" font-size="10.00">arch.h</text>
</a>
</g>
</g>
<!-- Node16&#45;&gt;Node21 -->
<g id="edge22" class="edge">
<title>Node16&#45;&gt;Node21</title>
<path fill="none" stroke="midnightblue" d="M431.98,-112.44C456.16,-103.44 494.42,-89.19 521.65,-79.05"/>
<polygon fill="midnightblue" stroke="midnightblue" points="522.98,-82.29 531.13,-75.52 520.54,-75.73 522.98,-82.29"/>
</g>
<!-- Node22 -->
<g id="node22" class="node">
<title>Node22</title>
<g id="a_node22"><a xlink:href="generique_8h.html" target="_top" xlink:title=" ">
<polygon fill="white" stroke="black" points="517,-0.5 517,-19.5 591,-19.5 591,-0.5 517,-0.5"/>
<text text-anchor="middle" x="554" y="-7.5" font-family="Helvetica,sans-Serif" font-size="10.00">generique.h</text>
</a>
</g>
</g>
<!-- Node21&#45;&gt;Node22 -->
<g id="edge23" class="edge">
<title>Node21&#45;&gt;Node22</title>
<path fill="none" stroke="midnightblue" d="M554,-56.08C554,-49.01 554,-38.86 554,-29.99"/>
<polygon fill="midnightblue" stroke="midnightblue" points="557.5,-29.75 554,-19.75 550.5,-29.75 557.5,-29.75"/>
</g>
<!-- Node23&#45;&gt;Node9 -->
<g id="edge26" class="edge">
<title>Node23&#45;&gt;Node9</title>
<path fill="none" stroke="midnightblue" d="M506.13,-112.44C530.48,-103.44 569.01,-89.19 596.42,-79.05"/>
<polygon fill="midnightblue" stroke="midnightblue" points="597.81,-82.27 605.97,-75.52 595.38,-75.7 597.81,-82.27"/>
</g>
<!-- Node23&#45;&gt;Node19 -->
<g id="edge25" class="edge">
<title>Node23&#45;&gt;Node19</title>
<path fill="none" stroke="midnightblue" d="M482.83,-112.08C482.7,-105.01 482.52,-94.86 482.35,-85.99"/>
<polygon fill="midnightblue" stroke="midnightblue" points="485.85,-85.68 482.16,-75.75 478.85,-85.81 485.85,-85.68"/>
</g>
<!-- Node23&#45;&gt;Node21 -->
<g id="edge27" class="edge">
<title>Node23&#45;&gt;Node21</title>
<path fill="none" stroke="midnightblue" d="M494.41,-112.32C505.11,-104.18 521.34,-91.84 534.16,-82.09"/>
<polygon fill="midnightblue" stroke="midnightblue" points="536.54,-84.67 542.39,-75.83 532.31,-79.1 536.54,-84.67"/>
</g>
<!-- Node24 -->
<g id="node24" class="node">
<title>Node24</title>
<g id="a_node24"><a xlink:title=" ">
<polygon fill="white" stroke="#bfbfbf" points="675,-56.5 675,-75.5 719,-75.5 719,-56.5 675,-56.5"/>
<text text-anchor="middle" x="697" y="-63.5" font-family="Helvetica,sans-Serif" font-size="10.00">string</text>
</a>
</g>
</g>
<!-- Node23&#45;&gt;Node24 -->
<g id="edge28" class="edge">
<title>Node23&#45;&gt;Node24</title>
<path fill="none" stroke="midnightblue" d="M510.12,-114.2C513.12,-113.46 516.12,-112.71 519,-112 581.23,-96.6 599.35,-93.64 664.69,-76.27"/>
<polygon fill="midnightblue" stroke="midnightblue" points="665.92,-79.57 674.68,-73.6 664.12,-72.8 665.92,-79.57"/>
</g>
<!-- Node26&#45;&gt;Node8 -->
<g id="edge32" class="edge">
<title>Node26&#45;&gt;Node8</title>
<path fill="none" stroke="midnightblue" d="M604.04,-448.26C598.09,-439.34 588.87,-425.02 582,-412 552.11,-355.32 558.93,-333.72 524,-280 517.1,-269.39 507.69,-258.86 499.62,-250.66"/>
<polygon fill="midnightblue" stroke="midnightblue" points="502.01,-248.1 492.42,-243.58 497.1,-253.09 502.01,-248.1"/>
</g>
<!-- Node26&#45;&gt;Node24 -->
<g id="edge34" class="edge">
<title>Node26&#45;&gt;Node24</title>
<path fill="none" stroke="midnightblue" d="M619.79,-448.22C628.74,-439.72 641.81,-426.1 650,-412 665.33,-385.63 672,-377.5 672,-347 672,-347 672,-347 672,-177 672,-144 682.83,-106.77 690.24,-85.19"/>
<polygon fill="midnightblue" stroke="midnightblue" points="693.57,-86.28 693.63,-75.69 686.97,-83.93 693.57,-86.28"/>
</g>
<!-- Node27 -->
<g id="node27" class="node">
<title>Node27</title>
<g id="a_node27"><a xlink:title=" ">
<polygon fill="white" stroke="#bfbfbf" points="591,-392.5 591,-411.5 641,-411.5 641,-392.5 591,-392.5"/>
<text text-anchor="middle" x="616" y="-399.5" font-family="Helvetica,sans-Serif" font-size="10.00">cstring</text>
</a>
</g>
</g>
<!-- Node26&#45;&gt;Node27 -->
<g id="edge33" class="edge">
<title>Node26&#45;&gt;Node27</title>
<path fill="none" stroke="midnightblue" d="M610.99,-448.08C611.79,-440.93 612.93,-430.64 613.92,-421.69"/>
<polygon fill="midnightblue" stroke="midnightblue" points="617.4,-422.08 615.03,-411.75 610.44,-421.3 617.4,-422.08"/>
</g>
<!-- Node28&#45;&gt;Node4 -->
<g id="edge36" class="edge">
<title>Node28&#45;&gt;Node4</title>
<path fill="none" stroke="midnightblue" d="M691.31,-672.4C654.15,-661.17 603.22,-645.79 571.22,-636.13"/>
<polygon fill="midnightblue" stroke="midnightblue" points="572.12,-632.74 561.54,-633.2 570.1,-639.45 572.12,-632.74"/>
</g>
<!-- Node29&#45;&gt;Node24 -->
<g id="edge38" class="edge">
<title>Node29&#45;&gt;Node24</title>
<path fill="none" stroke="midnightblue" d="M821.3,-504.29C810.03,-486.2 786,-442.95 786,-403 786,-403 786,-403 786,-177 786,-146.2 780.87,-136.34 762,-112 751.92,-98.99 737.02,-88.3 724.03,-80.61"/>
<polygon fill="midnightblue" stroke="midnightblue" points="725.44,-77.38 715.01,-75.54 722.02,-83.49 725.44,-77.38"/>
</g>
<!-- Node29&#45;&gt;Node26 -->
<g id="edge40" class="edge">
<title>Node29&#45;&gt;Node26</title>
<path fill="none" stroke="midnightblue" d="M792.62,-504.44C752.07,-494.35 685.08,-477.68 644.49,-467.58"/>
<polygon fill="midnightblue" stroke="midnightblue" points="645.32,-464.18 634.77,-465.16 643.63,-470.98 645.32,-464.18"/>
</g>
<!-- Node30 -->
<g id="node30" class="node">
<title>Node30</title>
<g id="a_node30"><a xlink:title=" ">
<polygon fill="white" stroke="#bfbfbf" points="814,-448.5 814,-467.5 852,-467.5 852,-448.5 814,-448.5"/>
<text text-anchor="middle" x="833" y="-455.5" font-family="Helvetica,sans-Serif" font-size="10.00">map</text>
</a>
</g>
</g>
<!-- Node29&#45;&gt;Node30 -->
<g id="edge39" class="edge">
<title>Node29&#45;&gt;Node30</title>
<path fill="none" stroke="midnightblue" d="M827.99,-504.08C828.79,-496.93 829.93,-486.64 830.92,-477.69"/>
<polygon fill="midnightblue" stroke="midnightblue" points="834.4,-478.08 832.03,-467.75 827.44,-477.3 834.4,-478.08"/>
</g>
<!-- Node32 -->
<g id="node32" class="node">
<title>Node32</title>
<g id="a_node32"><a xlink:href="List_8h.html" target="_top" xlink:title=" ">
<polygon fill="white" stroke="black" points="512.5,-851.5 512.5,-870.5 555.5,-870.5 555.5,-851.5 512.5,-851.5"/>
<text text-anchor="middle" x="534" y="-858.5" font-family="Helvetica,sans-Serif" font-size="10.00">List.h</text>
</a>
</g>
</g>
<!-- Node31&#45;&gt;Node32 -->
<g id="edge42" class="edge">
<title>Node31&#45;&gt;Node32</title>
<path fill="none" stroke="midnightblue" d="M534,-907.08C534,-900.01 534,-889.86 534,-880.99"/>
<polygon fill="midnightblue" stroke="midnightblue" points="537.5,-880.75 534,-870.75 530.5,-880.75 537.5,-880.75"/>
</g>
<!-- Node43 -->
<g id="node43" class="node">
<title>Node43</title>
<g id="a_node43"><a xlink:href="Ref__Probleme__U_8h.html" target="_top" xlink:title=" ">
<polygon fill="white" stroke="black" points="377.5,-795.5 377.5,-814.5 484.5,-814.5 484.5,-795.5 377.5,-795.5"/>
<text text-anchor="middle" x="431" y="-802.5" font-family="Helvetica,sans-Serif" font-size="10.00">Ref_Probleme_U.h</text>
</a>
</g>
</g>
<!-- Node31&#45;&gt;Node43 -->
<g id="edge60" class="edge">
<title>Node31&#45;&gt;Node43</title>
<path fill="none" stroke="midnightblue" d="M525.92,-907.37C508.69,-888.97 468.15,-845.67 446.03,-822.05"/>
<polygon fill="midnightblue" stroke="midnightblue" points="448.43,-819.5 439.04,-814.59 443.32,-824.28 448.43,-819.5"/>
</g>
<!-- Node33 -->
<g id="node33" class="node">
<title>Node33</title>
<g id="a_node33"><a xlink:href="MacList_8h.html" target="_top" xlink:title=" ">
<polygon fill="white" stroke="black" points="502.5,-795.5 502.5,-814.5 565.5,-814.5 565.5,-795.5 502.5,-795.5"/>
<text text-anchor="middle" x="534" y="-802.5" font-family="Helvetica,sans-Serif" font-size="10.00">MacList.h</text>
</a>
</g>
</g>
<!-- Node32&#45;&gt;Node33 -->
<g id="edge43" class="edge">
<title>Node32&#45;&gt;Node33</title>
<path fill="none" stroke="midnightblue" d="M534,-851.08C534,-844.01 534,-833.86 534,-824.99"/>
<polygon fill="midnightblue" stroke="midnightblue" points="537.5,-824.75 534,-814.75 530.5,-824.75 537.5,-824.75"/>
</g>
<!-- Node34 -->
<g id="node34" class="node">
<title>Node34</title>
<g id="a_node34"><a xlink:href="liste_8h.html" target="_top" xlink:title=" ">
<polygon fill="white" stroke="black" points="412.5,-616.5 412.5,-635.5 459.5,-635.5 459.5,-616.5 412.5,-616.5"/>
<text text-anchor="middle" x="436" y="-623.5" font-family="Helvetica,sans-Serif" font-size="10.00">liste.h</text>
</a>
</g>
</g>
<!-- Node33&#45;&gt;Node34 -->
<g id="edge44" class="edge">
<title>Node33&#45;&gt;Node34</title>
<path fill="none" stroke="midnightblue" d="M524.56,-795.43C515.55,-786.88 502.06,-773.03 493,-759 468.71,-721.38 450.48,-671.67 441.74,-645.29"/>
<polygon fill="midnightblue" stroke="midnightblue" points="444.98,-643.95 438.58,-635.51 438.32,-646.1 444.98,-643.95"/>
</g>
<!-- Node39 -->
<g id="node39" class="node">
<title>Node39</title>
<g id="a_node39"><a xlink:href="Motcle_8h.html" target="_top" xlink:title=" ">
<polygon fill="white" stroke="black" points="501.5,-739.5 501.5,-758.5 560.5,-758.5 560.5,-739.5 501.5,-739.5"/>
<text text-anchor="middle" x="531" y="-746.5" font-family="Helvetica,sans-Serif" font-size="10.00">Motcle.h</text>
</a>
</g>
</g>
<!-- Node33&#45;&gt;Node39 -->
<g id="edge51" class="edge">
<title>Node33&#45;&gt;Node39</title>
<path fill="none" stroke="midnightblue" d="M533.5,-795.08C533.11,-788.01 532.55,-777.86 532.05,-768.99"/>
<polygon fill="midnightblue" stroke="midnightblue" points="535.54,-768.54 531.49,-758.75 528.55,-768.93 535.54,-768.54"/>
</g>
<!-- Node35 -->
<g id="node35" class="node">
<title>Node35</title>
<g id="a_node35"><a xlink:href="DerOu___8h.html" target="_top" xlink:title=" ">
<polygon fill="white" stroke="black" points="430,-504.5 430,-523.5 492,-523.5 492,-504.5 430,-504.5"/>
<text text-anchor="middle" x="461" y="-511.5" font-family="Helvetica,sans-Serif" font-size="10.00">DerOu_.h</text>
</a>
</g>
</g>
<!-- Node34&#45;&gt;Node35 -->
<g id="edge45" class="edge">
<title>Node34&#45;&gt;Node35</title>
<path fill="none" stroke="midnightblue" d="M437.96,-616.37C442,-598.62 451.3,-557.67 456.77,-533.6"/>
<polygon fill="midnightblue" stroke="midnightblue" points="460.24,-534.12 459.05,-523.59 453.42,-532.57 460.24,-534.12"/>
</g>
<!-- Node35&#45;&gt;Node26 -->
<g id="edge50" class="edge">
<title>Node35&#45;&gt;Node26</title>
<path fill="none" stroke="midnightblue" d="M484.61,-504.44C509.46,-495.44 548.77,-481.19 576.75,-471.05"/>
<polygon fill="midnightblue" stroke="midnightblue" points="578.29,-474.21 586.5,-467.52 575.91,-467.63 578.29,-474.21"/>
</g>
<!-- Node36 -->
<g id="node36" class="node">
<title>Node36</title>
<g id="a_node36"><a xlink:href="Deriv_8h.html" target="_top" xlink:title=" ">
<polygon fill="white" stroke="black" points="435.5,-448.5 435.5,-467.5 486.5,-467.5 486.5,-448.5 435.5,-448.5"/>
<text text-anchor="middle" x="461" y="-455.5" font-family="Helvetica,sans-Serif" font-size="10.00">Deriv.h</text>
</a>
</g>
</g>
<!-- Node35&#45;&gt;Node36 -->
<g id="edge46" class="edge">
<title>Node35&#45;&gt;Node36</title>
<path fill="none" stroke="midnightblue" d="M461,-504.08C461,-497.01 461,-486.86 461,-477.99"/>
<polygon fill="midnightblue" stroke="midnightblue" points="464.5,-477.75 461,-467.75 457.5,-477.75 464.5,-477.75"/>
</g>
<!-- Node37 -->
<g id="node37" class="node">
<title>Node37</title>
<g id="a_node37"><a xlink:href="MacDeriv_8h.html" target="_top" xlink:title=" ">
<polygon fill="white" stroke="black" points="425.5,-392.5 425.5,-411.5 496.5,-411.5 496.5,-392.5 425.5,-392.5"/>
<text text-anchor="middle" x="461" y="-399.5" font-family="Helvetica,sans-Serif" font-size="10.00">MacDeriv.h</text>
</a>
</g>
</g>
<!-- Node36&#45;&gt;Node37 -->
<g id="edge47" class="edge">
<title>Node36&#45;&gt;Node37</title>
<path fill="none" stroke="midnightblue" d="M461,-448.08C461,-441.01 461,-430.86 461,-421.99"/>
<polygon fill="midnightblue" stroke="midnightblue" points="464.5,-421.75 461,-411.75 457.5,-421.75 464.5,-421.75"/>
</g>
<!-- Node38 -->
<g id="node38" class="node">
<title>Node38</title>
<g id="a_node38"><a xlink:href="Deriv___8h.html" target="_top" xlink:title=" ">
<polygon fill="white" stroke="black" points="435.5,-336.5 435.5,-355.5 492.5,-355.5 492.5,-336.5 435.5,-336.5"/>
<text text-anchor="middle" x="464" y="-343.5" font-family="Helvetica,sans-Serif" font-size="10.00">Deriv_.h</text>
</a>
</g>
</g>
<!-- Node37&#45;&gt;Node38 -->
<g id="edge48" class="edge">
<title>Node37&#45;&gt;Node38</title>
<path fill="none" stroke="midnightblue" d="M461.5,-392.08C461.89,-385.01 462.45,-374.86 462.95,-365.99"/>
<polygon fill="midnightblue" stroke="midnightblue" points="466.45,-365.93 463.51,-355.75 459.46,-365.54 466.45,-365.93"/>
</g>
<!-- Node38&#45;&gt;Node7 -->
<g id="edge49" class="edge">
<title>Node38&#45;&gt;Node7</title>
<path fill="none" stroke="midnightblue" d="M467.14,-336.08C469.68,-328.85 473.36,-318.41 476.53,-309.4"/>
<polygon fill="midnightblue" stroke="midnightblue" points="479.9,-310.35 479.92,-299.75 473.3,-308.02 479.9,-310.35"/>
</g>
<!-- Node40 -->
<g id="node40" class="node">
<title>Node40</title>
<g id="a_node40"><a xlink:href="Vect_8h.html" target="_top" xlink:title=" ">
<polygon fill="white" stroke="black" points="491.5,-678 491.5,-697 538.5,-697 538.5,-678 491.5,-678"/>
<text text-anchor="middle" x="515" y="-685" font-family="Helvetica,sans-Serif" font-size="10.00">Vect.h</text>
</a>
</g>
</g>
<!-- Node39&#45;&gt;Node40 -->
<g id="edge52" class="edge">
<title>Node39&#45;&gt;Node40</title>
<path fill="none" stroke="midnightblue" d="M528.71,-739.48C526.43,-730.99 522.85,-717.7 519.93,-706.82"/>
<polygon fill="midnightblue" stroke="midnightblue" points="523.26,-705.76 517.29,-697.01 516.51,-707.57 523.26,-705.76"/>
</g>
<!-- Node41 -->
<g id="node41" class="node">
<title>Node41</title>
<g id="a_node41"><a xlink:href="MacVect_8h.html" target="_top" xlink:title=" ">
<polygon fill="white" stroke="black" points="618.5,-616.5 618.5,-635.5 685.5,-635.5 685.5,-616.5 618.5,-616.5"/>
<text text-anchor="middle" x="652" y="-623.5" font-family="Helvetica,sans-Serif" font-size="10.00">MacVect.h</text>
</a>
</g>
</g>
<!-- Node40&#45;&gt;Node41 -->
<g id="edge53" class="edge">
<title>Node40&#45;&gt;Node41</title>
<path fill="none" stroke="midnightblue" d="M534.54,-677.89C538.96,-675.95 543.64,-673.9 548,-672 573.22,-661 601.92,-648.59 622.78,-639.59"/>
<polygon fill="midnightblue" stroke="midnightblue" points="624.25,-642.77 632.05,-635.59 621.48,-636.34 624.25,-642.77"/>
</g>
<!-- Node41&#45;&gt;Node9 -->
<g id="edge55" class="edge">
<title>Node41&#45;&gt;Node9</title>
<path fill="none" stroke="midnightblue" d="M667.85,-616.44C695.12,-600.43 748,-563.16 748,-515 748,-515 748,-515 748,-177 748,-129.3 695.8,-96.53 660.54,-79.84"/>
<polygon fill="midnightblue" stroke="midnightblue" points="661.66,-76.5 651.1,-75.56 658.77,-82.88 661.66,-76.5"/>
</g>
<!-- Node41&#45;&gt;Node26 -->
<g id="edge54" class="edge">
<title>Node41&#45;&gt;Node26</title>
<path fill="none" stroke="midnightblue" d="M652.25,-616.37C652.5,-607.32 652.86,-592.66 653,-580 653.1,-571.11 654.78,-568.71 653,-560 646.71,-529.15 630.63,-496.06 620.02,-476.46"/>
<polygon fill="midnightblue" stroke="midnightblue" points="622.97,-474.56 615.04,-467.53 616.85,-477.97 622.97,-474.56"/>
</g>
<!-- Node42 -->
<g id="node42" class="node">
<title>Node42</title>
<g id="a_node42"><a xlink:href="vect__impl_8h.html" target="_top" xlink:title=" ">
<polygon fill="white" stroke="black" points="570,-560.5 570,-579.5 644,-579.5 644,-560.5 570,-560.5"/>
<text text-anchor="middle" x="607" y="-567.5" font-family="Helvetica,sans-Serif" font-size="10.00">vect_impl.h</text>
</a>
</g>
</g>
<!-- Node41&#45;&gt;Node42 -->
<g id="edge56" class="edge">
<title>Node41&#45;&gt;Node42</title>
<path fill="none" stroke="midnightblue" d="M644.57,-616.08C638.15,-608.38 628.69,-597.03 620.88,-587.65"/>
<polygon fill="midnightblue" stroke="midnightblue" points="623.38,-585.19 614.29,-579.75 618.01,-589.67 623.38,-585.19"/>
</g>
<!-- Node42&#45;&gt;Node9 -->
<g id="edge58" class="edge">
<title>Node42&#45;&gt;Node9</title>
<path fill="none" stroke="midnightblue" d="M624.94,-560.25C654.45,-544.45 710,-508.19 710,-459 710,-459 710,-459 710,-177 710,-136.45 673.86,-100.99 649.86,-81.91"/>
<polygon fill="midnightblue" stroke="midnightblue" points="651.73,-78.94 641.66,-75.65 647.48,-84.5 651.73,-78.94"/>
</g>
<!-- Node42&#45;&gt;Node26 -->
<g id="edge57" class="edge">
<title>Node42&#45;&gt;Node26</title>
<path fill="none" stroke="midnightblue" d="M607.24,-560.37C607.72,-542.62 608.84,-501.67 609.49,-477.6"/>
<polygon fill="midnightblue" stroke="midnightblue" points="612.99,-477.68 609.77,-467.59 605.99,-477.49 612.99,-477.68"/>
</g>
<!-- Node42&#45;&gt;Node35 -->
<g id="edge59" class="edge">
<title>Node42&#45;&gt;Node35</title>
<path fill="none" stroke="midnightblue" d="M583.87,-560.44C559.52,-551.44 520.99,-537.19 493.58,-527.05"/>
<polygon fill="midnightblue" stroke="midnightblue" points="494.62,-523.7 484.03,-523.52 492.19,-530.27 494.62,-523.7"/>
</g>
<!-- Node43&#45;&gt;Node4 -->
<g id="edge61" class="edge">
<title>Node43&#45;&gt;Node4</title>
<path fill="none" stroke="midnightblue" d="M432.76,-795.18C437.59,-772.74 452.72,-712.41 483,-672 492.26,-659.65 505.74,-648.91 517.37,-641.02"/>
<polygon fill="midnightblue" stroke="midnightblue" points="519.31,-643.94 525.81,-635.57 515.51,-638.06 519.31,-643.94"/>
</g>
</g>
</svg>
