<?xml version="1.0" encoding="UTF-8" standalone="no"?>
<!DOCTYPE svg PUBLIC "-//W3C//DTD SVG 1.1//EN"
 "http://www.w3.org/Graphics/SVG/1.1/DTD/svg11.dtd">
<!-- Generated by graphviz version 2.43.0 (0)
 -->
<!-- Title: src/Kernel/Utilitaires/cppunit.h Pages: 1 -->
<svg width="709pt" height="106pt"
 viewBox="0.00 0.00 708.50 106.00" xmlns="http://www.w3.org/2000/svg" xmlns:xlink="http://www.w3.org/1999/xlink">
<g id="graph0" class="graph" transform="scale(1 1) rotate(0) translate(4 102)">
<title>src/Kernel/Utilitaires/cppunit.h</title>
<polygon fill="white" stroke="transparent" points="-4,4 -4,-102 704.5,-102 704.5,4 -4,4"/>
<!-- Node1 -->
<g id="node1" class="node">
<title>Node1</title>
<g id="a_node1"><a xlink:title=" ">
<polygon fill="#bfbfbf" stroke="black" points="298.5,-67.5 298.5,-97.5 414.5,-97.5 414.5,-67.5 298.5,-67.5"/>
<text text-anchor="start" x="306.5" y="-85.5" font-family="Helvetica,sans-Serif" font-size="10.00">src/Kernel/Utilitaires</text>
<text text-anchor="middle" x="356.5" y="-74.5" font-family="Helvetica,sans-Serif" font-size="10.00">/cppunit.h</text>
</a>
</g>
</g>
<!-- Node2 -->
<g id="node2" class="node">
<title>Node2</title>
<g id="a_node2"><a xlink:href="Matrice__Dense__Test_8cpp.html" target="_top" xlink:title=" ">
<polygon fill="white" stroke="black" points="0,-0.5 0,-30.5 137,-30.5 137,-0.5 0,-0.5"/>
<text text-anchor="start" x="8" y="-18.5" font-family="Helvetica,sans-Serif" font-size="10.00">src/Kernel/Math/Matrices</text>
<text text-anchor="middle" x="68.5" y="-7.5" font-family="Helvetica,sans-Serif" font-size="10.00">/Matrice_Dense_Test.cpp</text>
</a>
</g>
</g>
<!-- Node1&#45;&gt;Node2 -->
<g id="edge1" class="edge">
<title>Node1&#45;&gt;Node2</title>
<path fill="none" stroke="midnightblue" d="M288.27,-66.1C240.47,-55.31 177.09,-41.01 130.68,-30.53"/>
<polygon fill="midnightblue" stroke="midnightblue" points="287.69,-69.56 298.22,-68.35 289.23,-62.73 287.69,-69.56"/>
</g>
<!-- Node3 -->
<g id="node3" class="node">
<title>Node3</title>
<g id="a_node3"><a xlink:href="Parser__test_8cpp.html" target="_top" xlink:title=" ">
<polygon fill="white" stroke="black" points="155,-0.5 155,-30.5 280,-30.5 280,-0.5 155,-0.5"/>
<text text-anchor="start" x="163" y="-18.5" font-family="Helvetica,sans-Serif" font-size="10.00">src/Kernel/Math/Parser</text>
<text text-anchor="middle" x="217.5" y="-7.5" font-family="Helvetica,sans-Serif" font-size="10.00">_test.cpp</text>
</a>
</g>
</g>
<!-- Node1&#45;&gt;Node3 -->
<g id="edge2" class="edge">
<title>Node1&#45;&gt;Node3</title>
<path fill="none" stroke="midnightblue" d="M317.22,-63.13C295.13,-52.8 267.99,-40.11 247.6,-30.58"/>
<polygon fill="midnightblue" stroke="midnightblue" points="315.8,-66.33 326.34,-67.4 318.76,-59.99 315.8,-66.33"/>
</g>
<!-- Node4 -->
<g id="node4" class="node">
<title>Node4</title>
<g id="a_node4"><a xlink:href="NomTest_8cpp.html" target="_top" xlink:title=" ">
<polygon fill="white" stroke="black" points="298.5,-0.5 298.5,-30.5 414.5,-30.5 414.5,-0.5 298.5,-0.5"/>
<text text-anchor="start" x="306.5" y="-18.5" font-family="Helvetica,sans-Serif" font-size="10.00">src/Kernel/Utilitaires</text>
<text text-anchor="middle" x="356.5" y="-7.5" font-family="Helvetica,sans-Serif" font-size="10.00">/NomTest.cpp</text>
</a>
</g>
</g>
<!-- Node1&#45;&gt;Node4 -->
<g id="edge3" class="edge">
<title>Node1&#45;&gt;Node4</title>
<path fill="none" stroke="midnightblue" d="M356.5,-57.11C356.5,-48.15 356.5,-38.32 356.5,-30.58"/>
<polygon fill="midnightblue" stroke="midnightblue" points="353,-57.4 356.5,-67.4 360,-57.4 353,-57.4"/>
</g>
<!-- Node5 -->
<g id="node5" class="node">
<title>Node5</title>
<g id="a_node5"><a xlink:href="Param__lecture__test_8cpp.html" target="_top" xlink:title=" ">
<polygon fill="white" stroke="black" points="432.5,-0.5 432.5,-30.5 566.5,-30.5 566.5,-0.5 432.5,-0.5"/>
<text text-anchor="start" x="440.5" y="-18.5" font-family="Helvetica,sans-Serif" font-size="10.00">src/Kernel/Utilitaires</text>
<text text-anchor="middle" x="499.5" y="-7.5" font-family="Helvetica,sans-Serif" font-size="10.00">/Param_lecture_test.cpp</text>
</a>
</g>
</g>
<!-- Node1&#45;&gt;Node5 -->
<g id="edge4" class="edge">
<title>Node1&#45;&gt;Node5</title>
<path fill="none" stroke="midnightblue" d="M396.91,-63.13C419.63,-52.8 447.56,-40.11 468.53,-30.58"/>
<polygon fill="midnightblue" stroke="midnightblue" points="395.18,-60.07 387.53,-67.4 398.08,-66.44 395.18,-60.07"/>
</g>
<!-- Node6 -->
<g id="node6" class="node">
<title>Node6</title>
<g id="a_node6"><a xlink:href="Vect__test_8cpp.html" target="_top" xlink:title=" ">
<polygon fill="white" stroke="black" points="584.5,-0.5 584.5,-30.5 700.5,-30.5 700.5,-0.5 584.5,-0.5"/>
<text text-anchor="start" x="592.5" y="-18.5" font-family="Helvetica,sans-Serif" font-size="10.00">src/Kernel/Utilitaires</text>
<text text-anchor="middle" x="642.5" y="-7.5" font-family="Helvetica,sans-Serif" font-size="10.00">/Vect_test.cpp</text>
</a>
</g>
</g>
<!-- Node1&#45;&gt;Node6 -->
<g id="edge5" class="edge">
<title>Node1&#45;&gt;Node6</title>
<path fill="none" stroke="midnightblue" d="M424.54,-66.04C473.23,-54.97 538.08,-40.23 584.36,-29.71"/>
<polygon fill="midnightblue" stroke="midnightblue" points="423.7,-62.64 414.72,-68.27 425.25,-69.46 423.7,-62.64"/>
</g>
</g>
</svg>
