<?xml version="1.0" encoding="UTF-8" standalone="no"?>
<!DOCTYPE svg PUBLIC "-//W3C//DTD SVG 1.1//EN"
 "http://www.w3.org/Graphics/SVG/1.1/DTD/svg11.dtd">
<!-- Generated by graphviz version 2.43.0 (0)
 -->
<!-- Title: src/Kernel/Geometrie/Decoupeur/Decouper.h Pages: 1 -->
<svg width="854pt" height="879pt"
 viewBox="0.00 0.00 854.00 879.00" xmlns="http://www.w3.org/2000/svg" xmlns:xlink="http://www.w3.org/1999/xlink">
<g id="graph0" class="graph" transform="scale(1 1) rotate(0) translate(4 875)">
<title>src/Kernel/Geometrie/Decoupeur/Decouper.h</title>
<polygon fill="white" stroke="transparent" points="-4,4 -4,-875 850,-875 850,4 -4,4"/>
<!-- Node1 -->
<g id="node1" class="node">
<title>Node1</title>
<g id="a_node1"><a xlink:title=" ">
<polygon fill="#bfbfbf" stroke="black" points="621,-840.5 621,-870.5 751,-870.5 751,-840.5 621,-840.5"/>
<text text-anchor="start" x="629" y="-858.5" font-family="Helvetica,sans-Serif" font-size="10.00">src/Kernel/Geometrie</text>
<text text-anchor="middle" x="686" y="-847.5" font-family="Helvetica,sans-Serif" font-size="10.00">/Decoupeur/Decouper.h</text>
</a>
</g>
</g>
<!-- Node2 -->
<g id="node2" class="node">
<title>Node2</title>
<g id="a_node2"><a xlink:href="Interprete_8h.html" target="_top" xlink:title=" ">
<polygon fill="white" stroke="black" points="772,-784.5 772,-803.5 846,-803.5 846,-784.5 772,-784.5"/>
<text text-anchor="middle" x="809" y="-791.5" font-family="Helvetica,sans-Serif" font-size="10.00">Interprete.h</text>
</a>
</g>
</g>
<!-- Node1&#45;&gt;Node2 -->
<g id="edge1" class="edge">
<title>Node1&#45;&gt;Node2</title>
<path fill="none" stroke="midnightblue" d="M715.15,-840.4C735.42,-830.59 762.24,-817.62 782.02,-808.05"/>
<polygon fill="midnightblue" stroke="midnightblue" points="783.62,-811.16 791.1,-803.66 780.58,-804.86 783.62,-811.16"/>
</g>
<!-- Node27 -->
<g id="node27" class="node">
<title>Node27</title>
<g id="a_node27"><a xlink:href="Partitionneur__base_8h.html" target="_top" xlink:title=" ">
<polygon fill="white" stroke="black" points="462,-784.5 462,-803.5 578,-803.5 578,-784.5 462,-784.5"/>
<text text-anchor="middle" x="520" y="-791.5" font-family="Helvetica,sans-Serif" font-size="10.00">Partitionneur_base.h</text>
</a>
</g>
</g>
<!-- Node1&#45;&gt;Node27 -->
<g id="edge34" class="edge">
<title>Node1&#45;&gt;Node27</title>
<path fill="none" stroke="midnightblue" d="M646.66,-840.4C618.44,-830.28 580.79,-816.79 553.9,-807.15"/>
<polygon fill="midnightblue" stroke="midnightblue" points="554.75,-803.74 544.15,-803.66 552.39,-810.33 554.75,-803.74"/>
</g>
<!-- Node37 -->
<g id="node37" class="node">
<title>Node37</title>
<g id="a_node37"><a xlink:title=" ">
<polygon fill="white" stroke="#bfbfbf" points="706.5,-784.5 706.5,-803.5 753.5,-803.5 753.5,-784.5 706.5,-784.5"/>
<text text-anchor="middle" x="730" y="-791.5" font-family="Helvetica,sans-Serif" font-size="10.00">vector</text>
</a>
</g>
</g>
<!-- Node1&#45;&gt;Node37 -->
<g id="edge51" class="edge">
<title>Node1&#45;&gt;Node37</title>
<path fill="none" stroke="midnightblue" d="M696.43,-840.4C702.76,-831.84 710.87,-820.87 717.53,-811.86"/>
<polygon fill="midnightblue" stroke="midnightblue" points="720.47,-813.78 723.6,-803.66 714.84,-809.62 720.47,-813.78"/>
</g>
<!-- Node38 -->
<g id="node38" class="node">
<title>Node38</title>
<g id="a_node38"><a xlink:href="Ref__Domaine_8h.html" target="_top" xlink:title=" ">
<polygon fill="white" stroke="black" points="596,-784.5 596,-803.5 688,-803.5 688,-784.5 596,-784.5"/>
<text text-anchor="middle" x="642" y="-791.5" font-family="Helvetica,sans-Serif" font-size="10.00">Ref_Domaine.h</text>
</a>
</g>
</g>
<!-- Node1&#45;&gt;Node38 -->
<g id="edge52" class="edge">
<title>Node1&#45;&gt;Node38</title>
<path fill="none" stroke="midnightblue" d="M675.57,-840.4C669.24,-831.84 661.13,-820.87 654.47,-811.86"/>
<polygon fill="midnightblue" stroke="midnightblue" points="657.16,-809.62 648.4,-803.66 651.53,-813.78 657.16,-809.62"/>
</g>
<!-- Node3 -->
<g id="node3" class="node">
<title>Node3</title>
<g id="a_node3"><a xlink:href="Ref_8h.html" target="_top" xlink:title=" ">
<polygon fill="white" stroke="black" points="678.5,-728.5 678.5,-747.5 719.5,-747.5 719.5,-728.5 678.5,-728.5"/>
<text text-anchor="middle" x="699" y="-735.5" font-family="Helvetica,sans-Serif" font-size="10.00">Ref.h</text>
</a>
</g>
</g>
<!-- Node2&#45;&gt;Node3 -->
<g id="edge2" class="edge">
<title>Node2&#45;&gt;Node3</title>
<path fill="none" stroke="midnightblue" d="M791.33,-784.32C773.61,-775.62 746.1,-762.12 725.71,-752.11"/>
<polygon fill="midnightblue" stroke="midnightblue" points="727.15,-748.92 716.63,-747.65 724.06,-755.2 727.15,-748.92"/>
</g>
<!-- Node4 -->
<g id="node4" class="node">
<title>Node4</title>
<g id="a_node4"><a xlink:href="MacRef_8h.html" target="_top" xlink:title=" ">
<polygon fill="white" stroke="black" points="668,-672.5 668,-691.5 730,-691.5 730,-672.5 668,-672.5"/>
<text text-anchor="middle" x="699" y="-679.5" font-family="Helvetica,sans-Serif" font-size="10.00">MacRef.h</text>
</a>
</g>
</g>
<!-- Node3&#45;&gt;Node4 -->
<g id="edge3" class="edge">
<title>Node3&#45;&gt;Node4</title>
<path fill="none" stroke="midnightblue" d="M699,-728.08C699,-721.01 699,-710.86 699,-701.99"/>
<polygon fill="midnightblue" stroke="midnightblue" points="702.5,-701.75 699,-691.75 695.5,-701.75 702.5,-701.75"/>
</g>
<!-- Node5 -->
<g id="node5" class="node">
<title>Node5</title>
<g id="a_node5"><a xlink:href="Ref___8h.html" target="_top" xlink:title=" ">
<polygon fill="white" stroke="black" points="540.5,-504.5 540.5,-523.5 587.5,-523.5 587.5,-504.5 540.5,-504.5"/>
<text text-anchor="middle" x="564" y="-511.5" font-family="Helvetica,sans-Serif" font-size="10.00">Ref_.h</text>
</a>
</g>
</g>
<!-- Node4&#45;&gt;Node5 -->
<g id="edge4" class="edge">
<title>Node4&#45;&gt;Node5</title>
<path fill="none" stroke="midnightblue" d="M670.27,-672.49C641.7,-663.46 600.66,-648.77 590,-636 565.54,-606.69 562.51,-559.76 562.94,-533.81"/>
<polygon fill="midnightblue" stroke="midnightblue" points="566.44,-533.9 563.31,-523.78 559.45,-533.65 566.44,-533.9"/>
</g>
<!-- Node6 -->
<g id="node6" class="node">
<title>Node6</title>
<g id="a_node6"><a xlink:href="O__U__Ptr_8h.html" target="_top" xlink:title=" ">
<polygon fill="white" stroke="black" points="451,-280.5 451,-299.5 515,-299.5 515,-280.5 451,-280.5"/>
<text text-anchor="middle" x="483" y="-287.5" font-family="Helvetica,sans-Serif" font-size="10.00">O_U_Ptr.h</text>
</a>
</g>
</g>
<!-- Node5&#45;&gt;Node6 -->
<g id="edge5" class="edge">
<title>Node5&#45;&gt;Node6</title>
<path fill="none" stroke="midnightblue" d="M558.39,-504.46C547.51,-487.52 523.42,-448.17 510,-412 497.01,-376.98 489.22,-333.85 485.56,-309.68"/>
<polygon fill="midnightblue" stroke="midnightblue" points="489.01,-309.14 484.12,-299.74 482.09,-310.14 489.01,-309.14"/>
</g>
<!-- Node25 -->
<g id="node25" class="node">
<title>Node25</title>
<g id="a_node25"><a xlink:href="Nom_8h.html" target="_top" xlink:title=" ">
<polygon fill="white" stroke="black" points="572.5,-448.5 572.5,-467.5 621.5,-467.5 621.5,-448.5 572.5,-448.5"/>
<text text-anchor="middle" x="597" y="-455.5" font-family="Helvetica,sans-Serif" font-size="10.00">Nom.h</text>
</a>
</g>
</g>
<!-- Node5&#45;&gt;Node25 -->
<g id="edge30" class="edge">
<title>Node5&#45;&gt;Node25</title>
<path fill="none" stroke="midnightblue" d="M569.45,-504.08C574.01,-496.61 580.67,-485.72 586.29,-476.52"/>
<polygon fill="midnightblue" stroke="midnightblue" points="589.42,-478.11 591.65,-467.75 583.45,-474.46 589.42,-478.11"/>
</g>
<!-- Node7 -->
<g id="node7" class="node">
<title>Node7</title>
<g id="a_node7"><a xlink:href="Objet__U_8h.html" target="_top" xlink:title=" ">
<polygon fill="white" stroke="black" points="450.5,-224.5 450.5,-243.5 515.5,-243.5 515.5,-224.5 450.5,-224.5"/>
<text text-anchor="middle" x="483" y="-231.5" font-family="Helvetica,sans-Serif" font-size="10.00">Objet_U.h</text>
</a>
</g>
</g>
<!-- Node6&#45;&gt;Node7 -->
<g id="edge6" class="edge">
<title>Node6&#45;&gt;Node7</title>
<path fill="none" stroke="midnightblue" d="M483,-280.08C483,-273.01 483,-262.86 483,-253.99"/>
<polygon fill="midnightblue" stroke="midnightblue" points="486.5,-253.75 483,-243.75 479.5,-253.75 486.5,-253.75"/>
</g>
<!-- Node8 -->
<g id="node8" class="node">
<title>Node8</title>
<g id="a_node8"><a xlink:title=" ">
<polygon fill="white" stroke="#bfbfbf" points="658,-56.5 658,-75.5 714,-75.5 714,-56.5 658,-56.5"/>
<text text-anchor="middle" x="686" y="-63.5" font-family="Helvetica,sans-Serif" font-size="10.00">assert.h</text>
</a>
</g>
</g>
<!-- Node7&#45;&gt;Node8 -->
<g id="edge7" class="edge">
<title>Node7&#45;&gt;Node8</title>
<path fill="none" stroke="midnightblue" d="M494.93,-224.42C518.41,-207.41 572.08,-167.94 615,-132 634.28,-115.85 655.42,-96.23 669.58,-82.8"/>
<polygon fill="midnightblue" stroke="midnightblue" points="672.22,-85.11 677.04,-75.68 667.39,-80.05 672.22,-85.11"/>
</g>
<!-- Node9 -->
<g id="node9" class="node">
<title>Node9</title>
<g id="a_node9"><a xlink:href="DecBaseInst_8h.html" target="_top" xlink:title=" ">
<polygon fill="white" stroke="black" points="135,-168.5 135,-187.5 221,-187.5 221,-168.5 135,-168.5"/>
<text text-anchor="middle" x="178" y="-175.5" font-family="Helvetica,sans-Serif" font-size="10.00">DecBaseInst.h</text>
</a>
</g>
</g>
<!-- Node7&#45;&gt;Node9 -->
<g id="edge8" class="edge">
<title>Node7&#45;&gt;Node9</title>
<path fill="none" stroke="midnightblue" d="M450.36,-227.22C397.95,-217.94 294.53,-199.63 231.3,-188.44"/>
<polygon fill="midnightblue" stroke="midnightblue" points="231.59,-184.93 221.13,-186.64 230.37,-191.83 231.59,-184.93"/>
</g>
<!-- Node14 -->
<g id="node14" class="node">
<title>Node14</title>
<g id="a_node14"><a xlink:href="EntreeSortie_8h.html" target="_top" xlink:title=" ">
<polygon fill="white" stroke="black" points="440,-168.5 440,-187.5 526,-187.5 526,-168.5 440,-168.5"/>
<text text-anchor="middle" x="483" y="-175.5" font-family="Helvetica,sans-Serif" font-size="10.00">EntreeSortie.h</text>
</a>
</g>
</g>
<!-- Node7&#45;&gt;Node14 -->
<g id="edge14" class="edge">
<title>Node7&#45;&gt;Node14</title>
<path fill="none" stroke="midnightblue" d="M483,-224.08C483,-217.01 483,-206.86 483,-197.99"/>
<polygon fill="midnightblue" stroke="midnightblue" points="486.5,-197.75 483,-187.75 479.5,-197.75 486.5,-197.75"/>
</g>
<!-- Node19 -->
<g id="node19" class="node">
<title>Node19</title>
<g id="a_node19"><a xlink:href="Process_8h.html" target="_top" xlink:title=" ">
<polygon fill="white" stroke="black" points="238.5,-56.5 238.5,-75.5 301.5,-75.5 301.5,-56.5 238.5,-56.5"/>
<text text-anchor="middle" x="270" y="-63.5" font-family="Helvetica,sans-Serif" font-size="10.00">Process.h</text>
</a>
</g>
</g>
<!-- Node7&#45;&gt;Node19 -->
<g id="edge29" class="edge">
<title>Node7&#45;&gt;Node19</title>
<path fill="none" stroke="midnightblue" d="M472.62,-224.28C448.48,-204.07 386.56,-152.67 333,-112 319.22,-101.53 303.36,-90.21 291.01,-81.54"/>
<polygon fill="midnightblue" stroke="midnightblue" points="292.91,-78.6 282.71,-75.75 288.9,-84.34 292.91,-78.6"/>
</g>
<!-- Node10 -->
<g id="node10" class="node">
<title>Node10</title>
<g id="a_node10"><a xlink:href="Cast_8h.html" target="_top" xlink:title=" ">
<polygon fill="white" stroke="black" points="55.5,-56.5 55.5,-75.5 102.5,-75.5 102.5,-56.5 55.5,-56.5"/>
<text text-anchor="middle" x="79" y="-63.5" font-family="Helvetica,sans-Serif" font-size="10.00">Cast.h</text>
</a>
</g>
</g>
<!-- Node9&#45;&gt;Node10 -->
<g id="edge9" class="edge">
<title>Node9&#45;&gt;Node10</title>
<path fill="none" stroke="midnightblue" d="M168.79,-168.27C159.51,-159.38 144.91,-145.06 133,-132 118.4,-115.99 102.68,-96.83 91.99,-83.47"/>
<polygon fill="midnightblue" stroke="midnightblue" points="94.71,-81.27 85.75,-75.63 89.23,-85.63 94.71,-81.27"/>
</g>
<!-- Node11 -->
<g id="node11" class="node">
<title>Node11</title>
<g id="a_node11"><a xlink:href="Type__info_8h.html" target="_top" xlink:title=" ">
<polygon fill="white" stroke="black" points="142,-112.5 142,-131.5 214,-131.5 214,-112.5 142,-112.5"/>
<text text-anchor="middle" x="178" y="-119.5" font-family="Helvetica,sans-Serif" font-size="10.00">Type_info.h</text>
</a>
</g>
</g>
<!-- Node9&#45;&gt;Node11 -->
<g id="edge10" class="edge">
<title>Node9&#45;&gt;Node11</title>
<path fill="none" stroke="midnightblue" d="M178,-168.08C178,-161.01 178,-150.86 178,-141.99"/>
<polygon fill="midnightblue" stroke="midnightblue" points="181.5,-141.75 178,-131.75 174.5,-141.75 181.5,-141.75"/>
</g>
<!-- Node12 -->
<g id="node12" class="node">
<title>Node12</title>
<g id="a_node12"><a xlink:href="Declare__Base_8h.html" target="_top" xlink:title=" ">
<polygon fill="white" stroke="black" points="232,-112.5 232,-131.5 324,-131.5 324,-112.5 232,-112.5"/>
<text text-anchor="middle" x="278" y="-119.5" font-family="Helvetica,sans-Serif" font-size="10.00">Declare_Base.h</text>
</a>
</g>
</g>
<!-- Node9&#45;&gt;Node12 -->
<g id="edge11" class="edge">
<title>Node9&#45;&gt;Node12</title>
<path fill="none" stroke="midnightblue" d="M194.07,-168.32C209.96,-159.74 234.51,-146.49 252.96,-136.52"/>
<polygon fill="midnightblue" stroke="midnightblue" points="254.84,-139.49 261.97,-131.65 251.51,-133.33 254.84,-139.49"/>
</g>
<!-- Node13 -->
<g id="node13" class="node">
<title>Node13</title>
<g id="a_node13"><a xlink:href="Declare__Inst_8h.html" target="_top" xlink:title=" ">
<polygon fill="white" stroke="black" points="0,-112.5 0,-131.5 86,-131.5 86,-112.5 0,-112.5"/>
<text text-anchor="middle" x="43" y="-119.5" font-family="Helvetica,sans-Serif" font-size="10.00">Declare_Inst.h</text>
</a>
</g>
</g>
<!-- Node9&#45;&gt;Node13 -->
<g id="edge12" class="edge">
<title>Node9&#45;&gt;Node13</title>
<path fill="none" stroke="midnightblue" d="M156.61,-168.44C134.29,-159.52 99.1,-145.44 73.79,-135.32"/>
<polygon fill="midnightblue" stroke="midnightblue" points="74.88,-131.98 64.29,-131.52 72.28,-138.48 74.88,-131.98"/>
</g>
<!-- Node13&#45;&gt;Node10 -->
<g id="edge13" class="edge">
<title>Node13&#45;&gt;Node10</title>
<path fill="none" stroke="midnightblue" d="M48.94,-112.08C53.98,-104.53 61.34,-93.49 67.51,-84.23"/>
<polygon fill="midnightblue" stroke="midnightblue" points="70.53,-86.01 73.17,-75.75 64.71,-82.13 70.53,-86.01"/>
</g>
<!-- Node15 -->
<g id="node15" class="node">
<title>Node15</title>
<g id="a_node15"><a xlink:href="Entree_8h.html" target="_top" xlink:title=" ">
<polygon fill="white" stroke="black" points="380.5,-112.5 380.5,-131.5 437.5,-131.5 437.5,-112.5 380.5,-112.5"/>
<text text-anchor="middle" x="409" y="-119.5" font-family="Helvetica,sans-Serif" font-size="10.00">Entree.h</text>
</a>
</g>
</g>
<!-- Node14&#45;&gt;Node15 -->
<g id="edge15" class="edge">
<title>Node14&#45;&gt;Node15</title>
<path fill="none" stroke="midnightblue" d="M471.11,-168.32C459.85,-160.11 442.71,-147.6 429.29,-137.81"/>
<polygon fill="midnightblue" stroke="midnightblue" points="431.25,-134.9 421.11,-131.83 427.12,-140.56 431.25,-134.9"/>
</g>
<!-- Node22 -->
<g id="node22" class="node">
<title>Node22</title>
<g id="a_node22"><a xlink:href="Sortie_8h.html" target="_top" xlink:title=" ">
<polygon fill="white" stroke="black" points="456,-112.5 456,-131.5 510,-131.5 510,-112.5 456,-112.5"/>
<text text-anchor="middle" x="483" y="-119.5" font-family="Helvetica,sans-Serif" font-size="10.00">Sortie.h</text>
</a>
</g>
</g>
<!-- Node14&#45;&gt;Node22 -->
<g id="edge23" class="edge">
<title>Node14&#45;&gt;Node22</title>
<path fill="none" stroke="midnightblue" d="M483,-168.08C483,-161.01 483,-150.86 483,-141.99"/>
<polygon fill="midnightblue" stroke="midnightblue" points="486.5,-141.75 483,-131.75 479.5,-141.75 486.5,-141.75"/>
</g>
<!-- Node24 -->
<g id="node24" class="node">
<title>Node24</title>
<g id="a_node24"><a xlink:href="Separateur_8h.html" target="_top" xlink:title=" ">
<polygon fill="white" stroke="black" points="528,-112.5 528,-131.5 606,-131.5 606,-112.5 528,-112.5"/>
<text text-anchor="middle" x="567" y="-119.5" font-family="Helvetica,sans-Serif" font-size="10.00">Separateur.h</text>
</a>
</g>
</g>
<!-- Node14&#45;&gt;Node24 -->
<g id="edge28" class="edge">
<title>Node14&#45;&gt;Node24</title>
<path fill="none" stroke="midnightblue" d="M496.5,-168.32C509.6,-159.9 529.71,-146.97 545.11,-137.07"/>
<polygon fill="midnightblue" stroke="midnightblue" points="547.02,-140.01 553.54,-131.65 543.23,-134.12 547.02,-140.01"/>
</g>
<!-- Node15&#45;&gt;Node8 -->
<g id="edge19" class="edge">
<title>Node15&#45;&gt;Node8</title>
<path fill="none" stroke="midnightblue" d="M437.6,-114.05C440.76,-113.33 443.95,-112.63 447,-112 533.24,-94.12 558.08,-94.72 647.97,-76.11"/>
<polygon fill="midnightblue" stroke="midnightblue" points="648.69,-79.54 657.76,-74.06 647.25,-72.68 648.69,-79.54"/>
</g>
<!-- Node16 -->
<g id="node16" class="node">
<title>Node16</title>
<g id="a_node16"><a xlink:title=" ">
<polygon fill="white" stroke="#bfbfbf" points="384,-56.5 384,-75.5 434,-75.5 434,-56.5 384,-56.5"/>
<text text-anchor="middle" x="409" y="-63.5" font-family="Helvetica,sans-Serif" font-size="10.00">stdio.h</text>
</a>
</g>
</g>
<!-- Node15&#45;&gt;Node16 -->
<g id="edge16" class="edge">
<title>Node15&#45;&gt;Node16</title>
<path fill="none" stroke="midnightblue" d="M409,-112.08C409,-105.01 409,-94.86 409,-85.99"/>
<polygon fill="midnightblue" stroke="midnightblue" points="412.5,-85.75 409,-75.75 405.5,-85.75 412.5,-85.75"/>
</g>
<!-- Node17 -->
<g id="node17" class="node">
<title>Node17</title>
<g id="a_node17"><a xlink:title=" ">
<polygon fill="white" stroke="#bfbfbf" points="320,-56.5 320,-75.5 366,-75.5 366,-56.5 320,-56.5"/>
<text text-anchor="middle" x="343" y="-63.5" font-family="Helvetica,sans-Serif" font-size="10.00">cstdio</text>
</a>
</g>
</g>
<!-- Node15&#45;&gt;Node17 -->
<g id="edge17" class="edge">
<title>Node15&#45;&gt;Node17</title>
<path fill="none" stroke="midnightblue" d="M398.4,-112.32C388.54,-104.26 373.65,-92.08 361.78,-82.37"/>
<polygon fill="midnightblue" stroke="midnightblue" points="363.75,-79.46 353.8,-75.83 359.32,-84.88 363.75,-79.46"/>
</g>
<!-- Node18 -->
<g id="node18" class="node">
<title>Node18</title>
<g id="a_node18"><a xlink:title=" ">
<polygon fill="white" stroke="#bfbfbf" points="452,-56.5 452,-75.5 512,-75.5 512,-56.5 452,-56.5"/>
<text text-anchor="middle" x="482" y="-63.5" font-family="Helvetica,sans-Serif" font-size="10.00">iostream</text>
</a>
</g>
</g>
<!-- Node15&#45;&gt;Node18 -->
<g id="edge18" class="edge">
<title>Node15&#45;&gt;Node18</title>
<path fill="none" stroke="midnightblue" d="M420.73,-112.32C431.84,-104.11 448.74,-91.6 461.98,-81.81"/>
<polygon fill="midnightblue" stroke="midnightblue" points="464.1,-84.59 470.06,-75.83 459.94,-78.97 464.1,-84.59"/>
</g>
<!-- Node15&#45;&gt;Node19 -->
<g id="edge20" class="edge">
<title>Node15&#45;&gt;Node19</title>
<path fill="none" stroke="midnightblue" d="M386.98,-112.44C363.9,-103.48 327.44,-89.31 301.36,-79.18"/>
<polygon fill="midnightblue" stroke="midnightblue" points="302.51,-75.88 291.92,-75.52 299.98,-82.4 302.51,-75.88"/>
</g>
<!-- Node20 -->
<g id="node20" class="node">
<title>Node20</title>
<g id="a_node20"><a xlink:href="arch_8h.html" target="_top" xlink:title=" ">
<polygon fill="white" stroke="black" points="530.5,-56.5 530.5,-75.5 577.5,-75.5 577.5,-56.5 530.5,-56.5"/>
<text text-anchor="middle" x="554" y="-63.5" font-family="Helvetica,sans-Serif" font-size="10.00">arch.h</text>
</a>
</g>
</g>
<!-- Node15&#45;&gt;Node20 -->
<g id="edge21" class="edge">
<title>Node15&#45;&gt;Node20</title>
<path fill="none" stroke="midnightblue" d="M431.98,-112.44C456.16,-103.44 494.42,-89.19 521.65,-79.05"/>
<polygon fill="midnightblue" stroke="midnightblue" points="522.98,-82.29 531.13,-75.52 520.54,-75.73 522.98,-82.29"/>
</g>
<!-- Node21 -->
<g id="node21" class="node">
<title>Node21</title>
<g id="a_node21"><a xlink:href="generique_8h.html" target="_top" xlink:title=" ">
<polygon fill="white" stroke="black" points="517,-0.5 517,-19.5 591,-19.5 591,-0.5 517,-0.5"/>
<text text-anchor="middle" x="554" y="-7.5" font-family="Helvetica,sans-Serif" font-size="10.00">generique.h</text>
</a>
</g>
</g>
<!-- Node20&#45;&gt;Node21 -->
<g id="edge22" class="edge">
<title>Node20&#45;&gt;Node21</title>
<path fill="none" stroke="midnightblue" d="M554,-56.08C554,-49.01 554,-38.86 554,-29.99"/>
<polygon fill="midnightblue" stroke="midnightblue" points="557.5,-29.75 554,-19.75 550.5,-29.75 557.5,-29.75"/>
</g>
<!-- Node22&#45;&gt;Node8 -->
<g id="edge25" class="edge">
<title>Node22&#45;&gt;Node8</title>
<path fill="none" stroke="midnightblue" d="M510.38,-113.72C545.9,-104.27 608.04,-87.74 648.08,-77.09"/>
<polygon fill="midnightblue" stroke="midnightblue" points="648.99,-80.47 657.75,-74.51 647.19,-73.7 648.99,-80.47"/>
</g>
<!-- Node22&#45;&gt;Node18 -->
<g id="edge24" class="edge">
<title>Node22&#45;&gt;Node18</title>
<path fill="none" stroke="midnightblue" d="M482.83,-112.08C482.7,-105.01 482.52,-94.86 482.35,-85.99"/>
<polygon fill="midnightblue" stroke="midnightblue" points="485.85,-85.68 482.16,-75.75 478.85,-85.81 485.85,-85.68"/>
</g>
<!-- Node22&#45;&gt;Node20 -->
<g id="edge26" class="edge">
<title>Node22&#45;&gt;Node20</title>
<path fill="none" stroke="midnightblue" d="M494.41,-112.32C505.11,-104.18 521.34,-91.84 534.16,-82.09"/>
<polygon fill="midnightblue" stroke="midnightblue" points="536.54,-84.67 542.39,-75.83 532.31,-79.1 536.54,-84.67"/>
</g>
<!-- Node23 -->
<g id="node23" class="node">
<title>Node23</title>
<g id="a_node23"><a xlink:title=" ">
<polygon fill="white" stroke="#bfbfbf" points="596,-56.5 596,-75.5 640,-75.5 640,-56.5 596,-56.5"/>
<text text-anchor="middle" x="618" y="-63.5" font-family="Helvetica,sans-Serif" font-size="10.00">string</text>
</a>
</g>
</g>
<!-- Node22&#45;&gt;Node23 -->
<g id="edge27" class="edge">
<title>Node22&#45;&gt;Node23</title>
<path fill="none" stroke="midnightblue" d="M504.39,-112.44C526.71,-103.52 561.9,-89.44 587.21,-79.32"/>
<polygon fill="midnightblue" stroke="midnightblue" points="588.72,-82.48 596.71,-75.52 586.12,-75.98 588.72,-82.48"/>
</g>
<!-- Node25&#45;&gt;Node7 -->
<g id="edge31" class="edge">
<title>Node25&#45;&gt;Node7</title>
<path fill="none" stroke="midnightblue" d="M594.98,-448.44C591.9,-435.86 585.59,-411.75 578,-392 558.18,-340.42 554.93,-325.79 524,-280 516.92,-269.51 507.49,-258.99 499.46,-250.76"/>
<polygon fill="midnightblue" stroke="midnightblue" points="501.87,-248.22 492.32,-243.65 496.93,-253.19 501.87,-248.22"/>
</g>
<!-- Node25&#45;&gt;Node23 -->
<g id="edge33" class="edge">
<title>Node25&#45;&gt;Node23</title>
<path fill="none" stroke="midnightblue" d="M602.28,-448.23C612.73,-430.04 635,-386.6 635,-347 635,-347 635,-347 635,-233 635,-179.31 626.09,-116.36 621.17,-85.69"/>
<polygon fill="midnightblue" stroke="midnightblue" points="624.59,-84.91 619.51,-75.61 617.68,-86.05 624.59,-84.91"/>
</g>
<!-- Node26 -->
<g id="node26" class="node">
<title>Node26</title>
<g id="a_node26"><a xlink:title=" ">
<polygon fill="white" stroke="#bfbfbf" points="519,-392.5 519,-411.5 569,-411.5 569,-392.5 519,-392.5"/>
<text text-anchor="middle" x="544" y="-399.5" font-family="Helvetica,sans-Serif" font-size="10.00">cstring</text>
</a>
</g>
</g>
<!-- Node25&#45;&gt;Node26 -->
<g id="edge32" class="edge">
<title>Node25&#45;&gt;Node26</title>
<path fill="none" stroke="midnightblue" d="M588.25,-448.08C580.53,-440.22 569.1,-428.57 559.78,-419.08"/>
<polygon fill="midnightblue" stroke="midnightblue" points="562.09,-416.44 552.59,-411.75 557.1,-421.34 562.09,-416.44"/>
</g>
<!-- Node28 -->
<g id="node28" class="node">
<title>Node28</title>
<g id="a_node28"><a xlink:href="TRUSTTabs__forward_8h.html" target="_top" xlink:title=" ">
<polygon fill="white" stroke="black" points="459,-728.5 459,-747.5 581,-747.5 581,-728.5 459,-728.5"/>
<text text-anchor="middle" x="520" y="-735.5" font-family="Helvetica,sans-Serif" font-size="10.00">TRUSTTabs_forward.h</text>
</a>
</g>
</g>
<!-- Node27&#45;&gt;Node28 -->
<g id="edge35" class="edge">
<title>Node27&#45;&gt;Node28</title>
<path fill="none" stroke="midnightblue" d="M520,-784.08C520,-777.01 520,-766.86 520,-757.99"/>
<polygon fill="midnightblue" stroke="midnightblue" points="523.5,-757.75 520,-747.75 516.5,-757.75 523.5,-757.75"/>
</g>
<!-- Node29 -->
<g id="node29" class="node">
<title>Node29</title>
<g id="a_node29"><a xlink:href="Deriv_8h.html" target="_top" xlink:title=" ">
<polygon fill="white" stroke="black" points="405.5,-448.5 405.5,-467.5 456.5,-467.5 456.5,-448.5 405.5,-448.5"/>
<text text-anchor="middle" x="431" y="-455.5" font-family="Helvetica,sans-Serif" font-size="10.00">Deriv.h</text>
</a>
</g>
</g>
<!-- Node27&#45;&gt;Node29 -->
<g id="edge36" class="edge">
<title>Node27&#45;&gt;Node29</title>
<path fill="none" stroke="midnightblue" d="M499.01,-784.42C483.33,-776.99 462.54,-764.78 450,-748 431.98,-723.89 431,-713.1 431,-683 431,-683 431,-683 431,-569 431,-536.95 431,-499.64 431,-477.75"/>
<polygon fill="midnightblue" stroke="midnightblue" points="434.5,-477.56 431,-467.56 427.5,-477.56 434.5,-477.56"/>
</g>
<!-- Node32 -->
<g id="node32" class="node">
<title>Node32</title>
<g id="a_node32"><a xlink:href="Noms_8h.html" target="_top" xlink:title=" ">
<polygon fill="white" stroke="black" points="599,-728.5 599,-747.5 653,-747.5 653,-728.5 599,-728.5"/>
<text text-anchor="middle" x="626" y="-735.5" font-family="Helvetica,sans-Serif" font-size="10.00">Noms.h</text>
</a>
</g>
</g>
<!-- Node27&#45;&gt;Node32 -->
<g id="edge40" class="edge">
<title>Node27&#45;&gt;Node32</title>
<path fill="none" stroke="midnightblue" d="M537.03,-784.32C554.03,-775.66 580.38,-762.24 599.99,-752.25"/>
<polygon fill="midnightblue" stroke="midnightblue" points="601.69,-755.31 609.01,-747.65 598.51,-749.08 601.69,-755.31"/>
</g>
<!-- Node30 -->
<g id="node30" class="node">
<title>Node30</title>
<g id="a_node30"><a xlink:href="MacDeriv_8h.html" target="_top" xlink:title=" ">
<polygon fill="white" stroke="black" points="391.5,-392.5 391.5,-411.5 462.5,-411.5 462.5,-392.5 391.5,-392.5"/>
<text text-anchor="middle" x="427" y="-399.5" font-family="Helvetica,sans-Serif" font-size="10.00">MacDeriv.h</text>
</a>
</g>
</g>
<!-- Node29&#45;&gt;Node30 -->
<g id="edge37" class="edge">
<title>Node29&#45;&gt;Node30</title>
<path fill="none" stroke="midnightblue" d="M430.34,-448.08C429.82,-441.01 429.06,-430.86 428.41,-421.99"/>
<polygon fill="midnightblue" stroke="midnightblue" points="431.88,-421.47 427.65,-411.75 424.9,-421.98 431.88,-421.47"/>
</g>
<!-- Node31 -->
<g id="node31" class="node">
<title>Node31</title>
<g id="a_node31"><a xlink:href="Deriv___8h.html" target="_top" xlink:title=" ">
<polygon fill="white" stroke="black" points="401.5,-336.5 401.5,-355.5 458.5,-355.5 458.5,-336.5 401.5,-336.5"/>
<text text-anchor="middle" x="430" y="-343.5" font-family="Helvetica,sans-Serif" font-size="10.00">Deriv_.h</text>
</a>
</g>
</g>
<!-- Node30&#45;&gt;Node31 -->
<g id="edge38" class="edge">
<title>Node30&#45;&gt;Node31</title>
<path fill="none" stroke="midnightblue" d="M427.5,-392.08C427.89,-385.01 428.45,-374.86 428.95,-365.99"/>
<polygon fill="midnightblue" stroke="midnightblue" points="432.45,-365.93 429.51,-355.75 425.46,-365.54 432.45,-365.93"/>
</g>
<!-- Node31&#45;&gt;Node6 -->
<g id="edge39" class="edge">
<title>Node31&#45;&gt;Node6</title>
<path fill="none" stroke="midnightblue" d="M438.75,-336.08C446.47,-328.22 457.9,-316.57 467.22,-307.08"/>
<polygon fill="midnightblue" stroke="midnightblue" points="469.9,-309.34 474.41,-299.75 464.91,-304.44 469.9,-309.34"/>
</g>
<!-- Node33 -->
<g id="node33" class="node">
<title>Node33</title>
<g id="a_node33"><a xlink:href="Vect_8h.html" target="_top" xlink:title=" ">
<polygon fill="white" stroke="black" points="602.5,-672.5 602.5,-691.5 649.5,-691.5 649.5,-672.5 602.5,-672.5"/>
<text text-anchor="middle" x="626" y="-679.5" font-family="Helvetica,sans-Serif" font-size="10.00">Vect.h</text>
</a>
</g>
</g>
<!-- Node32&#45;&gt;Node33 -->
<g id="edge41" class="edge">
<title>Node32&#45;&gt;Node33</title>
<path fill="none" stroke="midnightblue" d="M626,-728.08C626,-721.01 626,-710.86 626,-701.99"/>
<polygon fill="midnightblue" stroke="midnightblue" points="629.5,-701.75 626,-691.75 622.5,-701.75 629.5,-701.75"/>
</g>
<!-- Node34 -->
<g id="node34" class="node">
<title>Node34</title>
<g id="a_node34"><a xlink:href="MacVect_8h.html" target="_top" xlink:title=" ">
<polygon fill="white" stroke="black" points="598.5,-616.5 598.5,-635.5 665.5,-635.5 665.5,-616.5 598.5,-616.5"/>
<text text-anchor="middle" x="632" y="-623.5" font-family="Helvetica,sans-Serif" font-size="10.00">MacVect.h</text>
</a>
</g>
</g>
<!-- Node33&#45;&gt;Node34 -->
<g id="edge42" class="edge">
<title>Node33&#45;&gt;Node34</title>
<path fill="none" stroke="midnightblue" d="M626.99,-672.08C627.79,-664.93 628.93,-654.64 629.92,-645.69"/>
<polygon fill="midnightblue" stroke="midnightblue" points="633.4,-646.08 631.03,-635.75 626.44,-645.3 633.4,-646.08"/>
</g>
<!-- Node34&#45;&gt;Node8 -->
<g id="edge44" class="edge">
<title>Node34&#45;&gt;Node8</title>
<path fill="none" stroke="midnightblue" d="M665.63,-616.45C685.97,-609.67 710.99,-598.24 727,-580 747.03,-557.18 748,-545.36 748,-515 748,-515 748,-515 748,-177 748,-139.62 720.5,-103.24 702.13,-83.1"/>
<polygon fill="midnightblue" stroke="midnightblue" points="704.57,-80.59 695.15,-75.75 699.49,-85.41 704.57,-80.59"/>
</g>
<!-- Node34&#45;&gt;Node25 -->
<g id="edge43" class="edge">
<title>Node34&#45;&gt;Node25</title>
<path fill="none" stroke="midnightblue" d="M630.12,-616.08C624.61,-589.95 608.43,-513.21 600.92,-477.58"/>
<polygon fill="midnightblue" stroke="midnightblue" points="604.29,-476.63 598.81,-467.57 597.44,-478.08 604.29,-476.63"/>
</g>
<!-- Node35 -->
<g id="node35" class="node">
<title>Node35</title>
<g id="a_node35"><a xlink:href="vect__impl_8h.html" target="_top" xlink:title=" ">
<polygon fill="white" stroke="black" points="644,-560.5 644,-579.5 718,-579.5 718,-560.5 644,-560.5"/>
<text text-anchor="middle" x="681" y="-567.5" font-family="Helvetica,sans-Serif" font-size="10.00">vect_impl.h</text>
</a>
</g>
</g>
<!-- Node34&#45;&gt;Node35 -->
<g id="edge45" class="edge">
<title>Node34&#45;&gt;Node35</title>
<path fill="none" stroke="midnightblue" d="M640.09,-616.08C647.16,-608.3 657.59,-596.8 666.15,-587.37"/>
<polygon fill="midnightblue" stroke="midnightblue" points="668.93,-589.51 673.06,-579.75 663.75,-584.8 668.93,-589.51"/>
</g>
<!-- Node35&#45;&gt;Node8 -->
<g id="edge47" class="edge">
<title>Node35&#45;&gt;Node8</title>
<path fill="none" stroke="midnightblue" d="M684.91,-560.36C692.83,-542.07 710,-497.91 710,-459 710,-459 710,-459 710,-177 710,-144.06 699.6,-106.82 692.49,-85.21"/>
<polygon fill="midnightblue" stroke="midnightblue" points="695.78,-84.03 689.24,-75.7 689.16,-86.29 695.78,-84.03"/>
</g>
<!-- Node35&#45;&gt;Node25 -->
<g id="edge46" class="edge">
<title>Node35&#45;&gt;Node25</title>
<path fill="none" stroke="midnightblue" d="M674.41,-560.37C660.48,-542.14 627.87,-499.43 609.73,-475.68"/>
<polygon fill="midnightblue" stroke="midnightblue" points="612.41,-473.41 603.56,-467.59 606.85,-477.66 612.41,-473.41"/>
</g>
<!-- Node36 -->
<g id="node36" class="node">
<title>Node36</title>
<g id="a_node36"><a xlink:href="DerOu___8h.html" target="_top" xlink:title=" ">
<polygon fill="white" stroke="black" points="460,-504.5 460,-523.5 522,-523.5 522,-504.5 460,-504.5"/>
<text text-anchor="middle" x="491" y="-511.5" font-family="Helvetica,sans-Serif" font-size="10.00">DerOu_.h</text>
</a>
</g>
</g>
<!-- Node35&#45;&gt;Node36 -->
<g id="edge48" class="edge">
<title>Node35&#45;&gt;Node36</title>
<path fill="none" stroke="midnightblue" d="M650.89,-560.44C618.37,-551.2 566.42,-536.44 530.61,-526.26"/>
<polygon fill="midnightblue" stroke="midnightblue" points="531.54,-522.88 520.97,-523.52 529.63,-529.62 531.54,-522.88"/>
</g>
<!-- Node36&#45;&gt;Node25 -->
<g id="edge50" class="edge">
<title>Node36&#45;&gt;Node25</title>
<path fill="none" stroke="midnightblue" d="M508.03,-504.32C525.03,-495.66 551.38,-482.24 570.99,-472.25"/>
<polygon fill="midnightblue" stroke="midnightblue" points="572.69,-475.31 580.01,-467.65 569.51,-469.08 572.69,-475.31"/>
</g>
<!-- Node36&#45;&gt;Node29 -->
<g id="edge49" class="edge">
<title>Node36&#45;&gt;Node29</title>
<path fill="none" stroke="midnightblue" d="M481.36,-504.32C472.49,-496.34 459.13,-484.31 448.39,-474.65"/>
<polygon fill="midnightblue" stroke="midnightblue" points="450.59,-471.92 440.82,-467.83 445.91,-477.13 450.59,-471.92"/>
</g>
<!-- Node38&#45;&gt;Node3 -->
<g id="edge53" class="edge">
<title>Node38&#45;&gt;Node3</title>
<path fill="none" stroke="midnightblue" d="M651.16,-784.32C659.5,-776.42 672.03,-764.55 682.18,-754.94"/>
<polygon fill="midnightblue" stroke="midnightblue" points="684.82,-757.25 689.68,-747.83 680.01,-752.17 684.82,-757.25"/>
</g>
</g>
</svg>
