<?xml version="1.0" encoding="UTF-8" standalone="no"?>
<!DOCTYPE svg PUBLIC "-//W3C//DTD SVG 1.1//EN"
 "http://www.w3.org/Graphics/SVG/1.1/DTD/svg11.dtd">
<!-- Generated by graphviz version 2.43.0 (0)
 -->
<!-- Title: src/Kernel/Framework/Deriv_Loi_Fermeture_base.cpp Pages: 1 -->
<svg width="900pt" height="1069pt"
 viewBox="0.00 0.00 899.50 1069.00" xmlns="http://www.w3.org/2000/svg" xmlns:xlink="http://www.w3.org/1999/xlink">
<g id="graph0" class="graph" transform="scale(1 1) rotate(0) translate(4 1065)">
<title>src/Kernel/Framework/Deriv_Loi_Fermeture_base.cpp</title>
<polygon fill="white" stroke="transparent" points="-4,4 -4,-1065 895.5,-1065 895.5,4 -4,4"/>
<!-- Node1 -->
<g id="node1" class="node">
<title>Node1</title>
<g id="a_node1"><a xlink:title=" ">
<polygon fill="#bfbfbf" stroke="black" points="420.5,-1019.5 420.5,-1060.5 542.5,-1060.5 542.5,-1019.5 420.5,-1019.5"/>
<text text-anchor="start" x="428.5" y="-1048.5" font-family="Helvetica,sans-Serif" font-size="10.00">src/Kernel/Framework</text>
<text text-anchor="start" x="428.5" y="-1037.5" font-family="Helvetica,sans-Serif" font-size="10.00">/Deriv_Loi_Fermeture</text>
<text text-anchor="middle" x="481.5" y="-1026.5" font-family="Helvetica,sans-Serif" font-size="10.00">_base.cpp</text>
</a>
</g>
</g>
<!-- Node2 -->
<g id="node2" class="node">
<title>Node2</title>
<g id="a_node2"><a xlink:href="Deriv__Loi__Fermeture__base_8h.html" target="_top" xlink:title=" ">
<polygon fill="white" stroke="black" points="375.5,-672.5 375.5,-702.5 493.5,-702.5 493.5,-672.5 375.5,-672.5"/>
<text text-anchor="start" x="383.5" y="-690.5" font-family="Helvetica,sans-Serif" font-size="10.00">Deriv_Loi_Fermeture</text>
<text text-anchor="middle" x="434.5" y="-679.5" font-family="Helvetica,sans-Serif" font-size="10.00">_base.h</text>
</a>
</g>
</g>
<!-- Node1&#45;&gt;Node2 -->
<g id="edge1" class="edge">
<title>Node1&#45;&gt;Node2</title>
<path fill="none" stroke="midnightblue" d="M469.2,-1019.28C455.88,-996 436.5,-955.65 436.5,-918 436.5,-918 436.5,-918 436.5,-804 436.5,-772.49 435.75,-736.15 435.16,-712.78"/>
<polygon fill="midnightblue" stroke="midnightblue" points="438.66,-712.63 434.9,-702.72 431.66,-712.81 438.66,-712.63"/>
</g>
<!-- Node25 -->
<g id="node25" class="node">
<title>Node25</title>
<g id="a_node25"><a xlink:href="Loi__Fermeture__base_8h.html" target="_top" xlink:title=" ">
<polygon fill="white" stroke="black" points="536.5,-963.5 536.5,-982.5 660.5,-982.5 660.5,-963.5 536.5,-963.5"/>
<text text-anchor="middle" x="598.5" y="-970.5" font-family="Helvetica,sans-Serif" font-size="10.00">Loi_Fermeture_base.h</text>
</a>
</g>
</g>
<!-- Node1&#45;&gt;Node25 -->
<g id="edge30" class="edge">
<title>Node1&#45;&gt;Node25</title>
<path fill="none" stroke="midnightblue" d="M516.6,-1019.5C535.06,-1009.24 557.23,-996.93 573.85,-987.69"/>
<polygon fill="midnightblue" stroke="midnightblue" points="575.88,-990.57 582.93,-982.65 572.48,-984.45 575.88,-990.57"/>
</g>
<!-- Node3 -->
<g id="node3" class="node">
<title>Node3</title>
<g id="a_node3"><a xlink:href="Deriv_8h.html" target="_top" xlink:title=" ">
<polygon fill="white" stroke="black" points="480,-448.5 480,-467.5 531,-467.5 531,-448.5 480,-448.5"/>
<text text-anchor="middle" x="505.5" y="-455.5" font-family="Helvetica,sans-Serif" font-size="10.00">Deriv.h</text>
</a>
</g>
</g>
<!-- Node2&#45;&gt;Node3 -->
<g id="edge2" class="edge">
<title>Node2&#45;&gt;Node3</title>
<path fill="none" stroke="midnightblue" d="M436.94,-672.41C442.59,-641.3 457.89,-564.68 481.5,-504 485.15,-494.61 490.3,-484.68 494.89,-476.55"/>
<polygon fill="midnightblue" stroke="midnightblue" points="498.05,-478.07 500.07,-467.67 492.01,-474.54 498.05,-478.07"/>
</g>
<!-- Node4 -->
<g id="node4" class="node">
<title>Node4</title>
<g id="a_node4"><a xlink:href="MacDeriv_8h.html" target="_top" xlink:title=" ">
<polygon fill="white" stroke="black" points="470,-392.5 470,-411.5 541,-411.5 541,-392.5 470,-392.5"/>
<text text-anchor="middle" x="505.5" y="-399.5" font-family="Helvetica,sans-Serif" font-size="10.00">MacDeriv.h</text>
</a>
</g>
</g>
<!-- Node3&#45;&gt;Node4 -->
<g id="edge3" class="edge">
<title>Node3&#45;&gt;Node4</title>
<path fill="none" stroke="midnightblue" d="M505.5,-448.08C505.5,-441.01 505.5,-430.86 505.5,-421.99"/>
<polygon fill="midnightblue" stroke="midnightblue" points="509,-421.75 505.5,-411.75 502,-421.75 509,-421.75"/>
</g>
<!-- Node5 -->
<g id="node5" class="node">
<title>Node5</title>
<g id="a_node5"><a xlink:href="Deriv___8h.html" target="_top" xlink:title=" ">
<polygon fill="white" stroke="black" points="477,-336.5 477,-355.5 534,-355.5 534,-336.5 477,-336.5"/>
<text text-anchor="middle" x="505.5" y="-343.5" font-family="Helvetica,sans-Serif" font-size="10.00">Deriv_.h</text>
</a>
</g>
</g>
<!-- Node4&#45;&gt;Node5 -->
<g id="edge4" class="edge">
<title>Node4&#45;&gt;Node5</title>
<path fill="none" stroke="midnightblue" d="M505.5,-392.08C505.5,-385.01 505.5,-374.86 505.5,-365.99"/>
<polygon fill="midnightblue" stroke="midnightblue" points="509,-365.75 505.5,-355.75 502,-365.75 509,-365.75"/>
</g>
<!-- Node6 -->
<g id="node6" class="node">
<title>Node6</title>
<g id="a_node6"><a xlink:href="O__U__Ptr_8h.html" target="_top" xlink:title=" ">
<polygon fill="white" stroke="black" points="473.5,-280.5 473.5,-299.5 537.5,-299.5 537.5,-280.5 473.5,-280.5"/>
<text text-anchor="middle" x="505.5" y="-287.5" font-family="Helvetica,sans-Serif" font-size="10.00">O_U_Ptr.h</text>
</a>
</g>
</g>
<!-- Node5&#45;&gt;Node6 -->
<g id="edge5" class="edge">
<title>Node5&#45;&gt;Node6</title>
<path fill="none" stroke="midnightblue" d="M505.5,-336.08C505.5,-329.01 505.5,-318.86 505.5,-309.99"/>
<polygon fill="midnightblue" stroke="midnightblue" points="509,-309.75 505.5,-299.75 502,-309.75 509,-309.75"/>
</g>
<!-- Node7 -->
<g id="node7" class="node">
<title>Node7</title>
<g id="a_node7"><a xlink:href="Objet__U_8h.html" target="_top" xlink:title=" ">
<polygon fill="white" stroke="black" points="441,-224.5 441,-243.5 506,-243.5 506,-224.5 441,-224.5"/>
<text text-anchor="middle" x="473.5" y="-231.5" font-family="Helvetica,sans-Serif" font-size="10.00">Objet_U.h</text>
</a>
</g>
</g>
<!-- Node6&#45;&gt;Node7 -->
<g id="edge6" class="edge">
<title>Node6&#45;&gt;Node7</title>
<path fill="none" stroke="midnightblue" d="M500.22,-280.08C495.79,-272.61 489.34,-261.72 483.88,-252.52"/>
<polygon fill="midnightblue" stroke="midnightblue" points="486.79,-250.57 478.69,-243.75 480.77,-254.14 486.79,-250.57"/>
</g>
<!-- Node8 -->
<g id="node8" class="node">
<title>Node8</title>
<g id="a_node8"><a xlink:title=" ">
<polygon fill="white" stroke="#bfbfbf" points="584.5,-56.5 584.5,-75.5 640.5,-75.5 640.5,-56.5 584.5,-56.5"/>
<text text-anchor="middle" x="612.5" y="-63.5" font-family="Helvetica,sans-Serif" font-size="10.00">assert.h</text>
</a>
</g>
</g>
<!-- Node7&#45;&gt;Node8 -->
<g id="edge7" class="edge">
<title>Node7&#45;&gt;Node8</title>
<path fill="none" stroke="midnightblue" d="M488.48,-224.48C513.93,-209.25 565.54,-174.88 593.5,-132 602.63,-118 607.48,-99.5 609.99,-85.82"/>
<polygon fill="midnightblue" stroke="midnightblue" points="613.49,-86.08 611.58,-75.66 606.57,-84.99 613.49,-86.08"/>
</g>
<!-- Node9 -->
<g id="node9" class="node">
<title>Node9</title>
<g id="a_node9"><a xlink:href="DecBaseInst_8h.html" target="_top" xlink:title=" ">
<polygon fill="white" stroke="black" points="113.5,-168.5 113.5,-187.5 199.5,-187.5 199.5,-168.5 113.5,-168.5"/>
<text text-anchor="middle" x="156.5" y="-175.5" font-family="Helvetica,sans-Serif" font-size="10.00">DecBaseInst.h</text>
</a>
</g>
</g>
<!-- Node7&#45;&gt;Node9 -->
<g id="edge8" class="edge">
<title>Node7&#45;&gt;Node9</title>
<path fill="none" stroke="midnightblue" d="M440.77,-227.42C386.11,-218.11 275.77,-199.32 209.79,-188.08"/>
<polygon fill="midnightblue" stroke="midnightblue" points="210.04,-184.57 199.59,-186.34 208.86,-191.47 210.04,-184.57"/>
</g>
<!-- Node14 -->
<g id="node14" class="node">
<title>Node14</title>
<g id="a_node14"><a xlink:href="EntreeSortie_8h.html" target="_top" xlink:title=" ">
<polygon fill="white" stroke="black" points="426.5,-168.5 426.5,-187.5 512.5,-187.5 512.5,-168.5 426.5,-168.5"/>
<text text-anchor="middle" x="469.5" y="-175.5" font-family="Helvetica,sans-Serif" font-size="10.00">EntreeSortie.h</text>
</a>
</g>
</g>
<!-- Node7&#45;&gt;Node14 -->
<g id="edge14" class="edge">
<title>Node7&#45;&gt;Node14</title>
<path fill="none" stroke="midnightblue" d="M472.84,-224.08C472.32,-217.01 471.56,-206.86 470.91,-197.99"/>
<polygon fill="midnightblue" stroke="midnightblue" points="474.38,-197.47 470.15,-187.75 467.4,-197.98 474.38,-197.47"/>
</g>
<!-- Node19 -->
<g id="node19" class="node">
<title>Node19</title>
<g id="a_node19"><a xlink:href="Process_8h.html" target="_top" xlink:title=" ">
<polygon fill="white" stroke="black" points="216,-56.5 216,-75.5 279,-75.5 279,-56.5 216,-56.5"/>
<text text-anchor="middle" x="247.5" y="-63.5" font-family="Helvetica,sans-Serif" font-size="10.00">Process.h</text>
</a>
</g>
</g>
<!-- Node7&#45;&gt;Node19 -->
<g id="edge29" class="edge">
<title>Node7&#45;&gt;Node19</title>
<path fill="none" stroke="midnightblue" d="M462.19,-224.38C435.92,-204.39 368.63,-153.41 311.5,-112 297.16,-101.61 280.83,-90.13 268.26,-81.37"/>
<polygon fill="midnightblue" stroke="midnightblue" points="270.05,-78.36 259.84,-75.52 266.06,-84.1 270.05,-78.36"/>
</g>
<!-- Node10 -->
<g id="node10" class="node">
<title>Node10</title>
<g id="a_node10"><a xlink:href="Cast_8h.html" target="_top" xlink:title=" ">
<polygon fill="white" stroke="black" points="0,-56.5 0,-75.5 47,-75.5 47,-56.5 0,-56.5"/>
<text text-anchor="middle" x="23.5" y="-63.5" font-family="Helvetica,sans-Serif" font-size="10.00">Cast.h</text>
</a>
</g>
</g>
<!-- Node9&#45;&gt;Node10 -->
<g id="edge9" class="edge">
<title>Node9&#45;&gt;Node10</title>
<path fill="none" stroke="midnightblue" d="M113.45,-176.98C78.67,-174.4 31.67,-164.54 7.5,-132 -2.75,-118.2 4.18,-98.66 11.87,-84.61"/>
<polygon fill="midnightblue" stroke="midnightblue" points="14.95,-86.27 17.1,-75.9 8.95,-82.66 14.95,-86.27"/>
</g>
<!-- Node11 -->
<g id="node11" class="node">
<title>Node11</title>
<g id="a_node11"><a xlink:href="Type__info_8h.html" target="_top" xlink:title=" ">
<polygon fill="white" stroke="black" points="120.5,-112.5 120.5,-131.5 192.5,-131.5 192.5,-112.5 120.5,-112.5"/>
<text text-anchor="middle" x="156.5" y="-119.5" font-family="Helvetica,sans-Serif" font-size="10.00">Type_info.h</text>
</a>
</g>
</g>
<!-- Node9&#45;&gt;Node11 -->
<g id="edge10" class="edge">
<title>Node9&#45;&gt;Node11</title>
<path fill="none" stroke="midnightblue" d="M156.5,-168.08C156.5,-161.01 156.5,-150.86 156.5,-141.99"/>
<polygon fill="midnightblue" stroke="midnightblue" points="160,-141.75 156.5,-131.75 153,-141.75 160,-141.75"/>
</g>
<!-- Node12 -->
<g id="node12" class="node">
<title>Node12</title>
<g id="a_node12"><a xlink:href="Declare__Base_8h.html" target="_top" xlink:title=" ">
<polygon fill="white" stroke="black" points="210.5,-112.5 210.5,-131.5 302.5,-131.5 302.5,-112.5 210.5,-112.5"/>
<text text-anchor="middle" x="256.5" y="-119.5" font-family="Helvetica,sans-Serif" font-size="10.00">Declare_Base.h</text>
</a>
</g>
</g>
<!-- Node9&#45;&gt;Node12 -->
<g id="edge11" class="edge">
<title>Node9&#45;&gt;Node12</title>
<path fill="none" stroke="midnightblue" d="M172.57,-168.32C188.46,-159.74 213.01,-146.49 231.46,-136.52"/>
<polygon fill="midnightblue" stroke="midnightblue" points="233.34,-139.49 240.47,-131.65 230.01,-133.33 233.34,-139.49"/>
</g>
<!-- Node13 -->
<g id="node13" class="node">
<title>Node13</title>
<g id="a_node13"><a xlink:href="Declare__Inst_8h.html" target="_top" xlink:title=" ">
<polygon fill="white" stroke="black" points="16.5,-112.5 16.5,-131.5 102.5,-131.5 102.5,-112.5 16.5,-112.5"/>
<text text-anchor="middle" x="59.5" y="-119.5" font-family="Helvetica,sans-Serif" font-size="10.00">Declare_Inst.h</text>
</a>
</g>
</g>
<!-- Node9&#45;&gt;Node13 -->
<g id="edge12" class="edge">
<title>Node9&#45;&gt;Node13</title>
<path fill="none" stroke="midnightblue" d="M140.92,-168.32C125.5,-159.74 101.69,-146.49 83.79,-136.52"/>
<polygon fill="midnightblue" stroke="midnightblue" points="85.49,-133.46 75.05,-131.65 82.08,-139.58 85.49,-133.46"/>
</g>
<!-- Node13&#45;&gt;Node10 -->
<g id="edge13" class="edge">
<title>Node13&#45;&gt;Node10</title>
<path fill="none" stroke="midnightblue" d="M53.56,-112.08C48.52,-104.53 41.16,-93.49 34.99,-84.23"/>
<polygon fill="midnightblue" stroke="midnightblue" points="37.79,-82.13 29.33,-75.75 31.97,-86.01 37.79,-82.13"/>
</g>
<!-- Node15 -->
<g id="node15" class="node">
<title>Node15</title>
<g id="a_node15"><a xlink:href="Entree_8h.html" target="_top" xlink:title=" ">
<polygon fill="white" stroke="black" points="359,-112.5 359,-131.5 416,-131.5 416,-112.5 359,-112.5"/>
<text text-anchor="middle" x="387.5" y="-119.5" font-family="Helvetica,sans-Serif" font-size="10.00">Entree.h</text>
</a>
</g>
</g>
<!-- Node14&#45;&gt;Node15 -->
<g id="edge15" class="edge">
<title>Node14&#45;&gt;Node15</title>
<path fill="none" stroke="midnightblue" d="M456.33,-168.32C443.65,-159.98 424.27,-147.21 409.29,-137.35"/>
<polygon fill="midnightblue" stroke="midnightblue" points="410.92,-134.23 400.64,-131.65 407.07,-140.08 410.92,-134.23"/>
</g>
<!-- Node22 -->
<g id="node22" class="node">
<title>Node22</title>
<g id="a_node22"><a xlink:href="Sortie_8h.html" target="_top" xlink:title=" ">
<polygon fill="white" stroke="black" points="434.5,-112.5 434.5,-131.5 488.5,-131.5 488.5,-112.5 434.5,-112.5"/>
<text text-anchor="middle" x="461.5" y="-119.5" font-family="Helvetica,sans-Serif" font-size="10.00">Sortie.h</text>
</a>
</g>
</g>
<!-- Node14&#45;&gt;Node22 -->
<g id="edge23" class="edge">
<title>Node14&#45;&gt;Node22</title>
<path fill="none" stroke="midnightblue" d="M468.18,-168.08C467.12,-160.93 465.59,-150.64 464.27,-141.69"/>
<polygon fill="midnightblue" stroke="midnightblue" points="467.72,-141.13 462.8,-131.75 460.8,-142.16 467.72,-141.13"/>
</g>
<!-- Node24 -->
<g id="node24" class="node">
<title>Node24</title>
<g id="a_node24"><a xlink:href="Separateur_8h.html" target="_top" xlink:title=" ">
<polygon fill="white" stroke="black" points="506.5,-112.5 506.5,-131.5 584.5,-131.5 584.5,-112.5 506.5,-112.5"/>
<text text-anchor="middle" x="545.5" y="-119.5" font-family="Helvetica,sans-Serif" font-size="10.00">Separateur.h</text>
</a>
</g>
</g>
<!-- Node14&#45;&gt;Node24 -->
<g id="edge28" class="edge">
<title>Node14&#45;&gt;Node24</title>
<path fill="none" stroke="midnightblue" d="M481.71,-168.32C493.28,-160.11 510.88,-147.6 524.66,-137.81"/>
<polygon fill="midnightblue" stroke="midnightblue" points="526.94,-140.48 533.07,-131.83 522.89,-134.77 526.94,-140.48"/>
</g>
<!-- Node15&#45;&gt;Node8 -->
<g id="edge19" class="edge">
<title>Node15&#45;&gt;Node8</title>
<path fill="none" stroke="midnightblue" d="M416.45,-114.05C456.76,-104.38 529.83,-86.84 574.48,-76.13"/>
<polygon fill="midnightblue" stroke="midnightblue" points="575.46,-79.49 584.36,-73.75 573.82,-72.68 575.46,-79.49"/>
</g>
<!-- Node16 -->
<g id="node16" class="node">
<title>Node16</title>
<g id="a_node16"><a xlink:title=" ">
<polygon fill="white" stroke="#bfbfbf" points="297.5,-56.5 297.5,-75.5 347.5,-75.5 347.5,-56.5 297.5,-56.5"/>
<text text-anchor="middle" x="322.5" y="-63.5" font-family="Helvetica,sans-Serif" font-size="10.00">stdio.h</text>
</a>
</g>
</g>
<!-- Node15&#45;&gt;Node16 -->
<g id="edge16" class="edge">
<title>Node15&#45;&gt;Node16</title>
<path fill="none" stroke="midnightblue" d="M377.06,-112.32C367.35,-104.26 352.68,-92.08 341,-82.37"/>
<polygon fill="midnightblue" stroke="midnightblue" points="343.06,-79.53 333.13,-75.83 338.59,-84.92 343.06,-79.53"/>
</g>
<!-- Node17 -->
<g id="node17" class="node">
<title>Node17</title>
<g id="a_node17"><a xlink:title=" ">
<polygon fill="white" stroke="#bfbfbf" points="365.5,-56.5 365.5,-75.5 411.5,-75.5 411.5,-56.5 365.5,-56.5"/>
<text text-anchor="middle" x="388.5" y="-63.5" font-family="Helvetica,sans-Serif" font-size="10.00">cstdio</text>
</a>
</g>
</g>
<!-- Node15&#45;&gt;Node17 -->
<g id="edge17" class="edge">
<title>Node15&#45;&gt;Node17</title>
<path fill="none" stroke="midnightblue" d="M387.67,-112.08C387.8,-105.01 387.98,-94.86 388.15,-85.99"/>
<polygon fill="midnightblue" stroke="midnightblue" points="391.65,-85.81 388.34,-75.75 384.65,-85.68 391.65,-85.81"/>
</g>
<!-- Node18 -->
<g id="node18" class="node">
<title>Node18</title>
<g id="a_node18"><a xlink:title=" ">
<polygon fill="white" stroke="#bfbfbf" points="429.5,-56.5 429.5,-75.5 489.5,-75.5 489.5,-56.5 429.5,-56.5"/>
<text text-anchor="middle" x="459.5" y="-63.5" font-family="Helvetica,sans-Serif" font-size="10.00">iostream</text>
</a>
</g>
</g>
<!-- Node15&#45;&gt;Node18 -->
<g id="edge18" class="edge">
<title>Node15&#45;&gt;Node18</title>
<path fill="none" stroke="midnightblue" d="M399.07,-112.32C409.92,-104.18 426.38,-91.84 439.38,-82.09"/>
<polygon fill="midnightblue" stroke="midnightblue" points="441.82,-84.63 447.72,-75.83 437.62,-79.03 441.82,-84.63"/>
</g>
<!-- Node15&#45;&gt;Node19 -->
<g id="edge20" class="edge">
<title>Node15&#45;&gt;Node19</title>
<path fill="none" stroke="midnightblue" d="M365.32,-112.44C342.07,-103.48 305.35,-89.31 279.08,-79.18"/>
<polygon fill="midnightblue" stroke="midnightblue" points="280.17,-75.85 269.58,-75.52 277.65,-82.38 280.17,-75.85"/>
</g>
<!-- Node20 -->
<g id="node20" class="node">
<title>Node20</title>
<g id="a_node20"><a xlink:href="arch_8h.html" target="_top" xlink:title=" ">
<polygon fill="white" stroke="black" points="508,-56.5 508,-75.5 555,-75.5 555,-56.5 508,-56.5"/>
<text text-anchor="middle" x="531.5" y="-63.5" font-family="Helvetica,sans-Serif" font-size="10.00">arch.h</text>
</a>
</g>
</g>
<!-- Node15&#45;&gt;Node20 -->
<g id="edge21" class="edge">
<title>Node15&#45;&gt;Node20</title>
<path fill="none" stroke="midnightblue" d="M410.32,-112.44C434.33,-103.44 472.33,-89.19 499.37,-79.05"/>
<polygon fill="midnightblue" stroke="midnightblue" points="500.66,-82.3 508.79,-75.52 498.2,-75.75 500.66,-82.3"/>
</g>
<!-- Node21 -->
<g id="node21" class="node">
<title>Node21</title>
<g id="a_node21"><a xlink:href="generique_8h.html" target="_top" xlink:title=" ">
<polygon fill="white" stroke="black" points="494.5,-0.5 494.5,-19.5 568.5,-19.5 568.5,-0.5 494.5,-0.5"/>
<text text-anchor="middle" x="531.5" y="-7.5" font-family="Helvetica,sans-Serif" font-size="10.00">generique.h</text>
</a>
</g>
</g>
<!-- Node20&#45;&gt;Node21 -->
<g id="edge22" class="edge">
<title>Node20&#45;&gt;Node21</title>
<path fill="none" stroke="midnightblue" d="M531.5,-56.08C531.5,-49.01 531.5,-38.86 531.5,-29.99"/>
<polygon fill="midnightblue" stroke="midnightblue" points="535,-29.75 531.5,-19.75 528,-29.75 535,-29.75"/>
</g>
<!-- Node22&#45;&gt;Node8 -->
<g id="edge25" class="edge">
<title>Node22&#45;&gt;Node8</title>
<path fill="none" stroke="midnightblue" d="M485.43,-112.44C510.72,-103.4 550.8,-89.06 579.18,-78.92"/>
<polygon fill="midnightblue" stroke="midnightblue" points="580.45,-82.18 588.69,-75.52 578.09,-75.59 580.45,-82.18"/>
</g>
<!-- Node22&#45;&gt;Node18 -->
<g id="edge24" class="edge">
<title>Node22&#45;&gt;Node18</title>
<path fill="none" stroke="midnightblue" d="M461.17,-112.08C460.91,-105.01 460.53,-94.86 460.2,-85.99"/>
<polygon fill="midnightblue" stroke="midnightblue" points="463.69,-85.61 459.82,-75.75 456.7,-85.87 463.69,-85.61"/>
</g>
<!-- Node22&#45;&gt;Node20 -->
<g id="edge26" class="edge">
<title>Node22&#45;&gt;Node20</title>
<path fill="none" stroke="midnightblue" d="M472.75,-112.32C483.3,-104.18 499.3,-91.84 511.94,-82.09"/>
<polygon fill="midnightblue" stroke="midnightblue" points="514.27,-84.71 520.05,-75.83 509.99,-79.17 514.27,-84.71"/>
</g>
<!-- Node23 -->
<g id="node23" class="node">
<title>Node23</title>
<g id="a_node23"><a xlink:title=" ">
<polygon fill="white" stroke="#bfbfbf" points="713.5,-56.5 713.5,-75.5 757.5,-75.5 757.5,-56.5 713.5,-56.5"/>
<text text-anchor="middle" x="735.5" y="-63.5" font-family="Helvetica,sans-Serif" font-size="10.00">string</text>
</a>
</g>
</g>
<!-- Node22&#45;&gt;Node23 -->
<g id="edge27" class="edge">
<title>Node22&#45;&gt;Node23</title>
<path fill="none" stroke="midnightblue" d="M488.59,-114.05C491.59,-113.33 494.61,-112.63 497.5,-112 570.86,-95.91 657.69,-80.37 703.5,-72.44"/>
<polygon fill="midnightblue" stroke="midnightblue" points="704.17,-75.88 713.43,-70.73 702.98,-68.98 704.17,-75.88"/>
</g>
<!-- Node26 -->
<g id="node26" class="node">
<title>Node26</title>
<g id="a_node26"><a xlink:href="Ref__Probleme__base_8h.html" target="_top" xlink:title=" ">
<polygon fill="white" stroke="black" points="769.5,-907.5 769.5,-926.5 891.5,-926.5 891.5,-907.5 769.5,-907.5"/>
<text text-anchor="middle" x="830.5" y="-914.5" font-family="Helvetica,sans-Serif" font-size="10.00">Ref_Probleme_base.h</text>
</a>
</g>
</g>
<!-- Node25&#45;&gt;Node26 -->
<g id="edge31" class="edge">
<title>Node25&#45;&gt;Node26</title>
<path fill="none" stroke="midnightblue" d="M635.26,-963.44C675.56,-954.06 740.31,-938.99 784.08,-928.8"/>
<polygon fill="midnightblue" stroke="midnightblue" points="784.96,-932.19 793.91,-926.52 783.38,-925.37 784.96,-932.19"/>
</g>
<!-- Node32 -->
<g id="node32" class="node">
<title>Node32</title>
<g id="a_node32"><a xlink:href="Champs__compris__interface_8h.html" target="_top" xlink:title=" ">
<polygon fill="white" stroke="black" points="593.5,-907.5 593.5,-926.5 751.5,-926.5 751.5,-907.5 593.5,-907.5"/>
<text text-anchor="middle" x="672.5" y="-914.5" font-family="Helvetica,sans-Serif" font-size="10.00">Champs_compris_interface.h</text>
</a>
</g>
</g>
<!-- Node25&#45;&gt;Node32 -->
<g id="edge40" class="edge">
<title>Node25&#45;&gt;Node32</title>
<path fill="none" stroke="midnightblue" d="M610.39,-963.32C621.65,-955.11 638.79,-942.6 652.21,-932.81"/>
<polygon fill="midnightblue" stroke="midnightblue" points="654.38,-935.56 660.39,-926.83 650.25,-929.9 654.38,-935.56"/>
</g>
<!-- Node34 -->
<g id="node34" class="node">
<title>Node34</title>
<g id="a_node34"><a xlink:href="Champs__compris_8h.html" target="_top" xlink:title=" ">
<polygon fill="white" stroke="black" points="465.5,-907.5 465.5,-926.5 575.5,-926.5 575.5,-907.5 465.5,-907.5"/>
<text text-anchor="middle" x="520.5" y="-914.5" font-family="Helvetica,sans-Serif" font-size="10.00">Champs_compris.h</text>
</a>
</g>
</g>
<!-- Node25&#45;&gt;Node34 -->
<g id="edge43" class="edge">
<title>Node25&#45;&gt;Node34</title>
<path fill="none" stroke="midnightblue" d="M585.97,-963.32C573.91,-954.98 555.47,-942.21 541.23,-932.35"/>
<polygon fill="midnightblue" stroke="midnightblue" points="543.22,-929.47 533,-926.65 539.23,-935.22 543.22,-929.47"/>
</g>
<!-- Node27 -->
<g id="node27" class="node">
<title>Node27</title>
<g id="a_node27"><a xlink:href="Ref_8h.html" target="_top" xlink:title=" ">
<polygon fill="white" stroke="black" points="638,-795.5 638,-814.5 679,-814.5 679,-795.5 638,-795.5"/>
<text text-anchor="middle" x="658.5" y="-802.5" font-family="Helvetica,sans-Serif" font-size="10.00">Ref.h</text>
</a>
</g>
</g>
<!-- Node26&#45;&gt;Node27 -->
<g id="edge32" class="edge">
<title>Node26&#45;&gt;Node27</title>
<path fill="none" stroke="midnightblue" d="M817,-907.37C787.49,-888.49 716.96,-843.38 680.76,-820.24"/>
<polygon fill="midnightblue" stroke="midnightblue" points="682.24,-817.03 671.93,-814.59 678.47,-822.93 682.24,-817.03"/>
</g>
<!-- Node28 -->
<g id="node28" class="node">
<title>Node28</title>
<g id="a_node28"><a xlink:href="MacRef_8h.html" target="_top" xlink:title=" ">
<polygon fill="white" stroke="black" points="627.5,-739.5 627.5,-758.5 689.5,-758.5 689.5,-739.5 627.5,-739.5"/>
<text text-anchor="middle" x="658.5" y="-746.5" font-family="Helvetica,sans-Serif" font-size="10.00">MacRef.h</text>
</a>
</g>
</g>
<!-- Node27&#45;&gt;Node28 -->
<g id="edge33" class="edge">
<title>Node27&#45;&gt;Node28</title>
<path fill="none" stroke="midnightblue" d="M658.5,-795.08C658.5,-788.01 658.5,-777.86 658.5,-768.99"/>
<polygon fill="midnightblue" stroke="midnightblue" points="662,-768.75 658.5,-758.75 655,-768.75 662,-768.75"/>
</g>
<!-- Node29 -->
<g id="node29" class="node">
<title>Node29</title>
<g id="a_node29"><a xlink:href="Ref___8h.html" target="_top" xlink:title=" ">
<polygon fill="white" stroke="black" points="571,-504.5 571,-523.5 618,-523.5 618,-504.5 571,-504.5"/>
<text text-anchor="middle" x="594.5" y="-511.5" font-family="Helvetica,sans-Serif" font-size="10.00">Ref_.h</text>
</a>
</g>
</g>
<!-- Node28&#45;&gt;Node29 -->
<g id="edge34" class="edge">
<title>Node28&#45;&gt;Node29</title>
<path fill="none" stroke="midnightblue" d="M656.15,-739.43C646.88,-705.68 612.76,-581.47 599.66,-533.8"/>
<polygon fill="midnightblue" stroke="midnightblue" points="602.97,-532.61 596.94,-523.9 596.22,-534.47 602.97,-532.61"/>
</g>
<!-- Node29&#45;&gt;Node6 -->
<g id="edge35" class="edge">
<title>Node29&#45;&gt;Node6</title>
<path fill="none" stroke="midnightblue" d="M593.33,-504.41C589.46,-477.94 575.46,-395.79 543.5,-336 537.86,-325.45 529.44,-315.14 521.95,-307.06"/>
<polygon fill="midnightblue" stroke="midnightblue" points="524.39,-304.55 514.92,-299.8 519.36,-309.42 524.39,-304.55"/>
</g>
<!-- Node30 -->
<g id="node30" class="node">
<title>Node30</title>
<g id="a_node30"><a xlink:href="Nom_8h.html" target="_top" xlink:title=" ">
<polygon fill="white" stroke="black" points="675,-448.5 675,-467.5 724,-467.5 724,-448.5 675,-448.5"/>
<text text-anchor="middle" x="699.5" y="-455.5" font-family="Helvetica,sans-Serif" font-size="10.00">Nom.h</text>
</a>
</g>
</g>
<!-- Node29&#45;&gt;Node30 -->
<g id="edge36" class="edge">
<title>Node29&#45;&gt;Node30</title>
<path fill="none" stroke="midnightblue" d="M611.37,-504.32C628.21,-495.66 654.31,-482.24 673.74,-472.25"/>
<polygon fill="midnightblue" stroke="midnightblue" points="675.38,-475.34 682.67,-467.65 672.18,-469.12 675.38,-475.34"/>
</g>
<!-- Node30&#45;&gt;Node7 -->
<g id="edge37" class="edge">
<title>Node30&#45;&gt;Node7</title>
<path fill="none" stroke="midnightblue" d="M695.11,-448.13C688.49,-435.18 675.16,-410.61 660.5,-392 616.54,-336.21 602.42,-323.8 546.5,-280 531.41,-268.18 513.02,-256.86 498.48,-248.53"/>
<polygon fill="midnightblue" stroke="midnightblue" points="499.98,-245.36 489.55,-243.52 496.56,-251.47 499.98,-245.36"/>
</g>
<!-- Node30&#45;&gt;Node23 -->
<g id="edge39" class="edge">
<title>Node30&#45;&gt;Node23</title>
<path fill="none" stroke="midnightblue" d="M721.43,-448.41C737.5,-441.04 758.68,-428.92 771.5,-412 789.67,-388.01 790.5,-377.1 790.5,-347 790.5,-347 790.5,-347 790.5,-177 790.5,-140.57 766.07,-103.84 749.77,-83.39"/>
<polygon fill="midnightblue" stroke="midnightblue" points="752.45,-81.14 743.38,-75.67 747.06,-85.6 752.45,-81.14"/>
</g>
<!-- Node31 -->
<g id="node31" class="node">
<title>Node31</title>
<g id="a_node31"><a xlink:title=" ">
<polygon fill="white" stroke="#bfbfbf" points="712.5,-392.5 712.5,-411.5 762.5,-411.5 762.5,-392.5 712.5,-392.5"/>
<text text-anchor="middle" x="737.5" y="-399.5" font-family="Helvetica,sans-Serif" font-size="10.00">cstring</text>
</a>
</g>
</g>
<!-- Node30&#45;&gt;Node31 -->
<g id="edge38" class="edge">
<title>Node30&#45;&gt;Node31</title>
<path fill="none" stroke="midnightblue" d="M705.77,-448.08C711.14,-440.46 719.02,-429.26 725.58,-419.94"/>
<polygon fill="midnightblue" stroke="midnightblue" points="728.45,-421.94 731.34,-411.75 722.72,-417.91 728.45,-421.94"/>
</g>
<!-- Node33 -->
<g id="node33" class="node">
<title>Node33</title>
<g id="a_node33"><a xlink:href="Ref__Champ__base_8h.html" target="_top" xlink:title=" ">
<polygon fill="white" stroke="black" points="586.5,-851.5 586.5,-870.5 696.5,-870.5 696.5,-851.5 586.5,-851.5"/>
<text text-anchor="middle" x="641.5" y="-858.5" font-family="Helvetica,sans-Serif" font-size="10.00">Ref_Champ_base.h</text>
</a>
</g>
</g>
<!-- Node32&#45;&gt;Node33 -->
<g id="edge41" class="edge">
<title>Node32&#45;&gt;Node33</title>
<path fill="none" stroke="midnightblue" d="M667.38,-907.08C663.09,-899.61 656.84,-888.72 651.56,-879.52"/>
<polygon fill="midnightblue" stroke="midnightblue" points="654.54,-877.68 646.52,-870.75 648.47,-881.17 654.54,-877.68"/>
</g>
<!-- Node33&#45;&gt;Node27 -->
<g id="edge42" class="edge">
<title>Node33&#45;&gt;Node27</title>
<path fill="none" stroke="midnightblue" d="M644.31,-851.08C646.58,-843.85 649.87,-833.41 652.71,-824.4"/>
<polygon fill="midnightblue" stroke="midnightblue" points="656.08,-825.34 655.75,-814.75 649.4,-823.24 656.08,-825.34"/>
</g>
<!-- Node34&#45;&gt;Node33 -->
<g id="edge55" class="edge">
<title>Node34&#45;&gt;Node33</title>
<path fill="none" stroke="midnightblue" d="M539.67,-907.44C559.41,-898.64 590.39,-884.81 612.99,-874.72"/>
<polygon fill="midnightblue" stroke="midnightblue" points="614.71,-877.79 622.42,-870.52 611.86,-871.4 614.71,-877.79"/>
</g>
<!-- Node35 -->
<g id="node35" class="node">
<title>Node35</title>
<g id="a_node35"><a xlink:href="Noms_8h.html" target="_top" xlink:title=" ">
<polygon fill="white" stroke="black" points="697.5,-795.5 697.5,-814.5 751.5,-814.5 751.5,-795.5 697.5,-795.5"/>
<text text-anchor="middle" x="724.5" y="-802.5" font-family="Helvetica,sans-Serif" font-size="10.00">Noms.h</text>
</a>
</g>
</g>
<!-- Node34&#45;&gt;Node35 -->
<g id="edge44" class="edge">
<title>Node34&#45;&gt;Node35</title>
<path fill="none" stroke="midnightblue" d="M565.67,-907.46C617.09,-897.36 695.34,-880.7 705.5,-871 717.98,-859.08 722.39,-839.46 723.89,-824.89"/>
<polygon fill="midnightblue" stroke="midnightblue" points="727.41,-824.74 724.56,-814.53 720.42,-824.29 727.41,-824.74"/>
</g>
<!-- Node40 -->
<g id="node40" class="node">
<title>Node40</title>
<g id="a_node40"><a xlink:href="List_8h.html" target="_top" xlink:title=" ">
<polygon fill="white" stroke="black" points="500,-851.5 500,-870.5 543,-870.5 543,-851.5 500,-851.5"/>
<text text-anchor="middle" x="521.5" y="-858.5" font-family="Helvetica,sans-Serif" font-size="10.00">List.h</text>
</a>
</g>
</g>
<!-- Node34&#45;&gt;Node40 -->
<g id="edge56" class="edge">
<title>Node34&#45;&gt;Node40</title>
<path fill="none" stroke="midnightblue" d="M520.67,-907.08C520.8,-900.01 520.98,-889.86 521.15,-880.99"/>
<polygon fill="midnightblue" stroke="midnightblue" points="524.65,-880.81 521.34,-870.75 517.65,-880.68 524.65,-880.81"/>
</g>
<!-- Node36 -->
<g id="node36" class="node">
<title>Node36</title>
<g id="a_node36"><a xlink:href="Vect_8h.html" target="_top" xlink:title=" ">
<polygon fill="white" stroke="black" points="701,-678 701,-697 748,-697 748,-678 701,-678"/>
<text text-anchor="middle" x="724.5" y="-685" font-family="Helvetica,sans-Serif" font-size="10.00">Vect.h</text>
</a>
</g>
</g>
<!-- Node35&#45;&gt;Node36 -->
<g id="edge45" class="edge">
<title>Node35&#45;&gt;Node36</title>
<path fill="none" stroke="midnightblue" d="M724.5,-795.32C724.5,-776.76 724.5,-732.84 724.5,-707.47"/>
<polygon fill="midnightblue" stroke="midnightblue" points="728,-707.28 724.5,-697.28 721,-707.28 728,-707.28"/>
</g>
<!-- Node37 -->
<g id="node37" class="node">
<title>Node37</title>
<g id="a_node37"><a xlink:href="MacVect_8h.html" target="_top" xlink:title=" ">
<polygon fill="white" stroke="black" points="691,-616.5 691,-635.5 758,-635.5 758,-616.5 691,-616.5"/>
<text text-anchor="middle" x="724.5" y="-623.5" font-family="Helvetica,sans-Serif" font-size="10.00">MacVect.h</text>
</a>
</g>
</g>
<!-- Node36&#45;&gt;Node37 -->
<g id="edge46" class="edge">
<title>Node36&#45;&gt;Node37</title>
<path fill="none" stroke="midnightblue" d="M724.5,-677.98C724.5,-669.58 724.5,-656.48 724.5,-645.66"/>
<polygon fill="midnightblue" stroke="midnightblue" points="728,-645.51 724.5,-635.51 721,-645.51 728,-645.51"/>
</g>
<!-- Node37&#45;&gt;Node8 -->
<g id="edge48" class="edge">
<title>Node37&#45;&gt;Node8</title>
<path fill="none" stroke="midnightblue" d="M742.62,-616.3C772.41,-600.57 828.5,-564.41 828.5,-515 828.5,-515 828.5,-515 828.5,-177 828.5,-98.23 713.03,-75.84 650.95,-69.5"/>
<polygon fill="midnightblue" stroke="midnightblue" points="651.02,-65.99 640.74,-68.55 650.37,-72.96 651.02,-65.99"/>
</g>
<!-- Node37&#45;&gt;Node30 -->
<g id="edge47" class="edge">
<title>Node37&#45;&gt;Node30</title>
<path fill="none" stroke="midnightblue" d="M723.16,-616.08C719.22,-589.95 707.66,-513.21 702.3,-477.58"/>
<polygon fill="midnightblue" stroke="midnightblue" points="705.74,-476.94 700.79,-467.57 698.82,-477.98 705.74,-476.94"/>
</g>
<!-- Node38 -->
<g id="node38" class="node">
<title>Node38</title>
<g id="a_node38"><a xlink:href="vect__impl_8h.html" target="_top" xlink:title=" ">
<polygon fill="white" stroke="black" points="622.5,-560.5 622.5,-579.5 696.5,-579.5 696.5,-560.5 622.5,-560.5"/>
<text text-anchor="middle" x="659.5" y="-567.5" font-family="Helvetica,sans-Serif" font-size="10.00">vect_impl.h</text>
</a>
</g>
</g>
<!-- Node37&#45;&gt;Node38 -->
<g id="edge49" class="edge">
<title>Node37&#45;&gt;Node38</title>
<path fill="none" stroke="midnightblue" d="M714.06,-616.32C704.35,-608.26 689.68,-596.08 678,-586.37"/>
<polygon fill="midnightblue" stroke="midnightblue" points="680.06,-583.53 670.13,-579.83 675.59,-588.92 680.06,-583.53"/>
</g>
<!-- Node38&#45;&gt;Node8 -->
<g id="edge51" class="edge">
<title>Node38&#45;&gt;Node8</title>
<path fill="none" stroke="midnightblue" d="M657.8,-560.48C654.28,-542.06 646.5,-497.08 646.5,-459 646.5,-459 646.5,-459 646.5,-345 646.5,-246.59 625.25,-130.03 616.35,-85.53"/>
<polygon fill="midnightblue" stroke="midnightblue" points="619.75,-84.7 614.33,-75.6 612.89,-86.1 619.75,-84.7"/>
</g>
<!-- Node38&#45;&gt;Node30 -->
<g id="edge50" class="edge">
<title>Node38&#45;&gt;Node30</title>
<path fill="none" stroke="midnightblue" d="M662.64,-560.37C669.12,-542.54 684.12,-501.3 692.86,-477.27"/>
<polygon fill="midnightblue" stroke="midnightblue" points="696.25,-478.19 696.38,-467.59 689.67,-475.79 696.25,-478.19"/>
</g>
<!-- Node39 -->
<g id="node39" class="node">
<title>Node39</title>
<g id="a_node39"><a xlink:href="DerOu___8h.html" target="_top" xlink:title=" ">
<polygon fill="white" stroke="black" points="490.5,-504.5 490.5,-523.5 552.5,-523.5 552.5,-504.5 490.5,-504.5"/>
<text text-anchor="middle" x="521.5" y="-511.5" font-family="Helvetica,sans-Serif" font-size="10.00">DerOu_.h</text>
</a>
</g>
</g>
<!-- Node38&#45;&gt;Node39 -->
<g id="edge52" class="edge">
<title>Node38&#45;&gt;Node39</title>
<path fill="none" stroke="midnightblue" d="M637.63,-560.44C614.72,-551.48 578.52,-537.31 552.63,-527.18"/>
<polygon fill="midnightblue" stroke="midnightblue" points="553.85,-523.9 543.26,-523.52 551.3,-530.42 553.85,-523.9"/>
</g>
<!-- Node39&#45;&gt;Node3 -->
<g id="edge53" class="edge">
<title>Node39&#45;&gt;Node3</title>
<path fill="none" stroke="midnightblue" d="M518.86,-504.08C516.71,-496.85 513.62,-486.41 510.95,-477.4"/>
<polygon fill="midnightblue" stroke="midnightblue" points="514.29,-476.34 508.09,-467.75 507.58,-478.33 514.29,-476.34"/>
</g>
<!-- Node39&#45;&gt;Node30 -->
<g id="edge54" class="edge">
<title>Node39&#45;&gt;Node30</title>
<path fill="none" stroke="midnightblue" d="M549.7,-504.44C580.98,-494.96 631.43,-479.65 665.02,-469.46"/>
<polygon fill="midnightblue" stroke="midnightblue" points="666.31,-472.73 674.87,-466.47 664.28,-466.03 666.31,-472.73"/>
</g>
<!-- Node41 -->
<g id="node41" class="node">
<title>Node41</title>
<g id="a_node41"><a xlink:href="MacList_8h.html" target="_top" xlink:title=" ">
<polygon fill="white" stroke="black" points="490,-795.5 490,-814.5 553,-814.5 553,-795.5 490,-795.5"/>
<text text-anchor="middle" x="521.5" y="-802.5" font-family="Helvetica,sans-Serif" font-size="10.00">MacList.h</text>
</a>
</g>
</g>
<!-- Node40&#45;&gt;Node41 -->
<g id="edge57" class="edge">
<title>Node40&#45;&gt;Node41</title>
<path fill="none" stroke="midnightblue" d="M521.5,-851.08C521.5,-844.01 521.5,-833.86 521.5,-824.99"/>
<polygon fill="midnightblue" stroke="midnightblue" points="525,-824.75 521.5,-814.75 518,-824.75 525,-824.75"/>
</g>
<!-- Node42 -->
<g id="node42" class="node">
<title>Node42</title>
<g id="a_node42"><a xlink:href="liste_8h.html" target="_top" xlink:title=" ">
<polygon fill="white" stroke="black" points="498,-616.5 498,-635.5 545,-635.5 545,-616.5 498,-616.5"/>
<text text-anchor="middle" x="521.5" y="-623.5" font-family="Helvetica,sans-Serif" font-size="10.00">liste.h</text>
</a>
</g>
</g>
<!-- Node41&#45;&gt;Node42 -->
<g id="edge58" class="edge">
<title>Node41&#45;&gt;Node42</title>
<path fill="none" stroke="midnightblue" d="M521.5,-795.46C521.5,-768.43 521.5,-684.24 521.5,-646.11"/>
<polygon fill="midnightblue" stroke="midnightblue" points="525,-645.87 521.5,-635.87 518,-645.87 525,-645.87"/>
</g>
<!-- Node43 -->
<g id="node43" class="node">
<title>Node43</title>
<g id="a_node43"><a xlink:href="Motcle_8h.html" target="_top" xlink:title=" ">
<polygon fill="white" stroke="black" points="550,-739.5 550,-758.5 609,-758.5 609,-739.5 550,-739.5"/>
<text text-anchor="middle" x="579.5" y="-746.5" font-family="Helvetica,sans-Serif" font-size="10.00">Motcle.h</text>
</a>
</g>
</g>
<!-- Node41&#45;&gt;Node43 -->
<g id="edge60" class="edge">
<title>Node41&#45;&gt;Node43</title>
<path fill="none" stroke="midnightblue" d="M530.82,-795.32C539.39,-787.34 552.31,-775.31 562.69,-765.65"/>
<polygon fill="midnightblue" stroke="midnightblue" points="565.08,-768.21 570.01,-758.83 560.31,-763.09 565.08,-768.21"/>
</g>
<!-- Node42&#45;&gt;Node39 -->
<g id="edge59" class="edge">
<title>Node42&#45;&gt;Node39</title>
<path fill="none" stroke="midnightblue" d="M521.5,-616.37C521.5,-598.62 521.5,-557.67 521.5,-533.6"/>
<polygon fill="midnightblue" stroke="midnightblue" points="525,-533.59 521.5,-523.59 518,-533.59 525,-533.59"/>
</g>
<!-- Node43&#45;&gt;Node36 -->
<g id="edge61" class="edge">
<title>Node43&#45;&gt;Node36</title>
<path fill="none" stroke="midnightblue" d="M600.27,-739.48C624.93,-729.36 666.25,-712.4 694.4,-700.85"/>
<polygon fill="midnightblue" stroke="midnightblue" points="695.84,-704.04 703.76,-697.01 693.18,-697.57 695.84,-704.04"/>
</g>
</g>
</svg>
