<?xml version="1.0" encoding="UTF-8" standalone="no"?>
<!DOCTYPE svg PUBLIC "-//W3C//DTD SVG 1.1//EN"
 "http://www.w3.org/Graphics/SVG/1.1/DTD/svg11.dtd">
<!-- Generated by graphviz version 2.43.0 (0)
 -->
<!-- Title: src/Kernel/Utilitaires/Deriv_.cpp Pages: 1 -->
<svg width="842pt" height="431pt"
 viewBox="0.00 0.00 842.00 431.00" xmlns="http://www.w3.org/2000/svg" xmlns:xlink="http://www.w3.org/1999/xlink">
<g id="graph0" class="graph" transform="scale(1 1) rotate(0) translate(4 427)">
<title>src/Kernel/Utilitaires/Deriv_.cpp</title>
<polygon fill="white" stroke="transparent" points="-4,4 -4,-427 838,-427 838,4 -4,4"/>
<!-- Node1 -->
<g id="node1" class="node">
<title>Node1</title>
<g id="a_node1"><a xlink:title=" ">
<polygon fill="#bfbfbf" stroke="black" points="314.5,-392.5 314.5,-422.5 430.5,-422.5 430.5,-392.5 314.5,-392.5"/>
<text text-anchor="start" x="322.5" y="-410.5" font-family="Helvetica,sans-Serif" font-size="10.00">src/Kernel/Utilitaires</text>
<text text-anchor="middle" x="372.5" y="-399.5" font-family="Helvetica,sans-Serif" font-size="10.00">/Deriv_.cpp</text>
</a>
</g>
</g>
<!-- Node2 -->
<g id="node2" class="node">
<title>Node2</title>
<g id="a_node2"><a xlink:href="Deriv___8h.html" target="_top" xlink:title=" ">
<polygon fill="white" stroke="black" points="244,-336.5 244,-355.5 301,-355.5 301,-336.5 244,-336.5"/>
<text text-anchor="middle" x="272.5" y="-343.5" font-family="Helvetica,sans-Serif" font-size="10.00">Deriv_.h</text>
</a>
</g>
</g>
<!-- Node1&#45;&gt;Node2 -->
<g id="edge1" class="edge">
<title>Node1&#45;&gt;Node2</title>
<path fill="none" stroke="midnightblue" d="M348.8,-392.4C332.77,-382.86 311.7,-370.32 295.76,-360.84"/>
<polygon fill="midnightblue" stroke="midnightblue" points="297.43,-357.76 287.05,-355.66 293.86,-363.78 297.43,-357.76"/>
</g>
<!-- Node22 -->
<g id="node22" class="node">
<title>Node22</title>
<g id="a_node22"><a xlink:href="Nom_8h.html" target="_top" xlink:title=" ">
<polygon fill="white" stroke="black" points="427,-280.5 427,-299.5 476,-299.5 476,-280.5 427,-280.5"/>
<text text-anchor="middle" x="451.5" y="-287.5" font-family="Helvetica,sans-Serif" font-size="10.00">Nom.h</text>
</a>
</g>
</g>
<!-- Node1&#45;&gt;Node22 -->
<g id="edge27" class="edge">
<title>Node1&#45;&gt;Node22</title>
<path fill="none" stroke="midnightblue" d="M394.32,-392.49C406.82,-383.45 421.88,-370.65 431.5,-356 440.71,-341.96 445.86,-323.47 448.62,-309.8"/>
<polygon fill="midnightblue" stroke="midnightblue" points="452.12,-310.11 450.41,-299.65 445.22,-308.89 452.12,-310.11"/>
</g>
<!-- Node24 -->
<g id="node24" class="node">
<title>Node24</title>
<g id="a_node24"><a xlink:href="Synonyme__info_8h.html" target="_top" xlink:title=" ">
<polygon fill="white" stroke="black" points="322,-336.5 322,-355.5 423,-355.5 423,-336.5 322,-336.5"/>
<text text-anchor="middle" x="372.5" y="-343.5" font-family="Helvetica,sans-Serif" font-size="10.00">Synonyme_info.h</text>
</a>
</g>
</g>
<!-- Node1&#45;&gt;Node24 -->
<g id="edge31" class="edge">
<title>Node1&#45;&gt;Node24</title>
<path fill="none" stroke="midnightblue" d="M372.5,-392.4C372.5,-384.47 372.5,-374.46 372.5,-365.86"/>
<polygon fill="midnightblue" stroke="midnightblue" points="376,-365.66 372.5,-355.66 369,-365.66 376,-365.66"/>
</g>
<!-- Node3 -->
<g id="node3" class="node">
<title>Node3</title>
<g id="a_node3"><a xlink:href="O__U__Ptr_8h.html" target="_top" xlink:title=" ">
<polygon fill="white" stroke="black" points="233.5,-280.5 233.5,-299.5 297.5,-299.5 297.5,-280.5 233.5,-280.5"/>
<text text-anchor="middle" x="265.5" y="-287.5" font-family="Helvetica,sans-Serif" font-size="10.00">O_U_Ptr.h</text>
</a>
</g>
</g>
<!-- Node2&#45;&gt;Node3 -->
<g id="edge2" class="edge">
<title>Node2&#45;&gt;Node3</title>
<path fill="none" stroke="midnightblue" d="M271.34,-336.08C270.42,-328.93 269.08,-318.64 267.92,-309.69"/>
<polygon fill="midnightblue" stroke="midnightblue" points="271.39,-309.22 266.63,-299.75 264.45,-310.12 271.39,-309.22"/>
</g>
<!-- Node4 -->
<g id="node4" class="node">
<title>Node4</title>
<g id="a_node4"><a xlink:href="Objet__U_8h.html" target="_top" xlink:title=" ">
<polygon fill="white" stroke="black" points="219,-224.5 219,-243.5 284,-243.5 284,-224.5 219,-224.5"/>
<text text-anchor="middle" x="251.5" y="-231.5" font-family="Helvetica,sans-Serif" font-size="10.00">Objet_U.h</text>
</a>
</g>
</g>
<!-- Node3&#45;&gt;Node4 -->
<g id="edge3" class="edge">
<title>Node3&#45;&gt;Node4</title>
<path fill="none" stroke="midnightblue" d="M263.19,-280.08C261.33,-272.93 258.66,-262.64 256.35,-253.69"/>
<polygon fill="midnightblue" stroke="midnightblue" points="259.67,-252.55 253.77,-243.75 252.89,-254.31 259.67,-252.55"/>
</g>
<!-- Node5 -->
<g id="node5" class="node">
<title>Node5</title>
<g id="a_node5"><a xlink:title=" ">
<polygon fill="white" stroke="#bfbfbf" points="81.5,-56.5 81.5,-75.5 137.5,-75.5 137.5,-56.5 81.5,-56.5"/>
<text text-anchor="middle" x="109.5" y="-63.5" font-family="Helvetica,sans-Serif" font-size="10.00">assert.h</text>
</a>
</g>
</g>
<!-- Node4&#45;&gt;Node5 -->
<g id="edge4" class="edge">
<title>Node4&#45;&gt;Node5</title>
<path fill="none" stroke="midnightblue" d="M238.63,-224.44C215.72,-208.62 167.54,-172.7 138.5,-132 128.19,-117.55 120.32,-98.86 115.4,-85.23"/>
<polygon fill="midnightblue" stroke="midnightblue" points="118.64,-83.89 112.09,-75.56 112.02,-86.16 118.64,-83.89"/>
</g>
<!-- Node6 -->
<g id="node6" class="node">
<title>Node6</title>
<g id="a_node6"><a xlink:href="DecBaseInst_8h.html" target="_top" xlink:title=" ">
<polygon fill="white" stroke="black" points="635.5,-168.5 635.5,-187.5 721.5,-187.5 721.5,-168.5 635.5,-168.5"/>
<text text-anchor="middle" x="678.5" y="-175.5" font-family="Helvetica,sans-Serif" font-size="10.00">DecBaseInst.h</text>
</a>
</g>
</g>
<!-- Node4&#45;&gt;Node6 -->
<g id="edge5" class="edge">
<title>Node4&#45;&gt;Node6</title>
<path fill="none" stroke="midnightblue" d="M284.3,-228.85C357.73,-219.57 535.91,-197.03 625.38,-185.72"/>
<polygon fill="midnightblue" stroke="midnightblue" points="625.84,-189.19 635.32,-184.46 624.96,-182.24 625.84,-189.19"/>
</g>
<!-- Node11 -->
<g id="node11" class="node">
<title>Node11</title>
<g id="a_node11"><a xlink:href="EntreeSortie_8h.html" target="_top" xlink:title=" ">
<polygon fill="white" stroke="black" points="207.5,-168.5 207.5,-187.5 293.5,-187.5 293.5,-168.5 207.5,-168.5"/>
<text text-anchor="middle" x="250.5" y="-175.5" font-family="Helvetica,sans-Serif" font-size="10.00">EntreeSortie.h</text>
</a>
</g>
</g>
<!-- Node4&#45;&gt;Node11 -->
<g id="edge11" class="edge">
<title>Node4&#45;&gt;Node11</title>
<path fill="none" stroke="midnightblue" d="M251.33,-224.08C251.2,-217.01 251.02,-206.86 250.85,-197.99"/>
<polygon fill="midnightblue" stroke="midnightblue" points="254.35,-197.68 250.66,-187.75 247.35,-197.81 254.35,-197.68"/>
</g>
<!-- Node16 -->
<g id="node16" class="node">
<title>Node16</title>
<g id="a_node16"><a xlink:href="Process_8h.html" target="_top" xlink:title=" ">
<polygon fill="white" stroke="black" points="0,-56.5 0,-75.5 63,-75.5 63,-56.5 0,-56.5"/>
<text text-anchor="middle" x="31.5" y="-63.5" font-family="Helvetica,sans-Serif" font-size="10.00">Process.h</text>
</a>
</g>
</g>
<!-- Node4&#45;&gt;Node16 -->
<g id="edge26" class="edge">
<title>Node4&#45;&gt;Node16</title>
<path fill="none" stroke="midnightblue" d="M232.99,-224.47C215.69,-216.16 189.46,-202.65 168.5,-188 121.07,-154.84 71.68,-107.51 47.2,-83.04"/>
<polygon fill="midnightblue" stroke="midnightblue" points="49.42,-80.3 39.9,-75.67 44.45,-85.23 49.42,-80.3"/>
</g>
<!-- Node7 -->
<g id="node7" class="node">
<title>Node7</title>
<g id="a_node7"><a xlink:href="Cast_8h.html" target="_top" xlink:title=" ">
<polygon fill="white" stroke="black" points="787,-56.5 787,-75.5 834,-75.5 834,-56.5 787,-56.5"/>
<text text-anchor="middle" x="810.5" y="-63.5" font-family="Helvetica,sans-Serif" font-size="10.00">Cast.h</text>
</a>
</g>
</g>
<!-- Node6&#45;&gt;Node7 -->
<g id="edge6" class="edge">
<title>Node6&#45;&gt;Node7</title>
<path fill="none" stroke="midnightblue" d="M721.55,-176.98C756.33,-174.4 803.33,-164.54 827.5,-132 837.78,-118.15 830.51,-98.61 822.54,-84.58"/>
<polygon fill="midnightblue" stroke="midnightblue" points="825.38,-82.51 817.11,-75.88 819.44,-86.22 825.38,-82.51"/>
</g>
<!-- Node8 -->
<g id="node8" class="node">
<title>Node8</title>
<g id="a_node8"><a xlink:href="Type__info_8h.html" target="_top" xlink:title=" ">
<polygon fill="white" stroke="black" points="642.5,-112.5 642.5,-131.5 714.5,-131.5 714.5,-112.5 642.5,-112.5"/>
<text text-anchor="middle" x="678.5" y="-119.5" font-family="Helvetica,sans-Serif" font-size="10.00">Type_info.h</text>
</a>
</g>
</g>
<!-- Node6&#45;&gt;Node8 -->
<g id="edge7" class="edge">
<title>Node6&#45;&gt;Node8</title>
<path fill="none" stroke="midnightblue" d="M678.5,-168.08C678.5,-161.01 678.5,-150.86 678.5,-141.99"/>
<polygon fill="midnightblue" stroke="midnightblue" points="682,-141.75 678.5,-131.75 675,-141.75 682,-141.75"/>
</g>
<!-- Node9 -->
<g id="node9" class="node">
<title>Node9</title>
<g id="a_node9"><a xlink:href="Declare__Base_8h.html" target="_top" xlink:title=" ">
<polygon fill="white" stroke="black" points="532.5,-112.5 532.5,-131.5 624.5,-131.5 624.5,-112.5 532.5,-112.5"/>
<text text-anchor="middle" x="578.5" y="-119.5" font-family="Helvetica,sans-Serif" font-size="10.00">Declare_Base.h</text>
</a>
</g>
</g>
<!-- Node6&#45;&gt;Node9 -->
<g id="edge8" class="edge">
<title>Node6&#45;&gt;Node9</title>
<path fill="none" stroke="midnightblue" d="M662.43,-168.32C646.54,-159.74 621.99,-146.49 603.54,-136.52"/>
<polygon fill="midnightblue" stroke="midnightblue" points="604.99,-133.33 594.53,-131.65 601.66,-139.49 604.99,-133.33"/>
</g>
<!-- Node10 -->
<g id="node10" class="node">
<title>Node10</title>
<g id="a_node10"><a xlink:href="Declare__Inst_8h.html" target="_top" xlink:title=" ">
<polygon fill="white" stroke="black" points="732.5,-112.5 732.5,-131.5 818.5,-131.5 818.5,-112.5 732.5,-112.5"/>
<text text-anchor="middle" x="775.5" y="-119.5" font-family="Helvetica,sans-Serif" font-size="10.00">Declare_Inst.h</text>
</a>
</g>
</g>
<!-- Node6&#45;&gt;Node10 -->
<g id="edge9" class="edge">
<title>Node6&#45;&gt;Node10</title>
<path fill="none" stroke="midnightblue" d="M694.08,-168.32C709.5,-159.74 733.31,-146.49 751.21,-136.52"/>
<polygon fill="midnightblue" stroke="midnightblue" points="752.92,-139.58 759.95,-131.65 749.51,-133.46 752.92,-139.58"/>
</g>
<!-- Node10&#45;&gt;Node7 -->
<g id="edge10" class="edge">
<title>Node10&#45;&gt;Node7</title>
<path fill="none" stroke="midnightblue" d="M781.28,-112.08C786.17,-104.53 793.33,-93.49 799.33,-84.23"/>
<polygon fill="midnightblue" stroke="midnightblue" points="802.33,-86.05 804.83,-75.75 796.45,-82.24 802.33,-86.05"/>
</g>
<!-- Node12 -->
<g id="node12" class="node">
<title>Node12</title>
<g id="a_node12"><a xlink:href="Entree_8h.html" target="_top" xlink:title=" ">
<polygon fill="white" stroke="black" points="148,-112.5 148,-131.5 205,-131.5 205,-112.5 148,-112.5"/>
<text text-anchor="middle" x="176.5" y="-119.5" font-family="Helvetica,sans-Serif" font-size="10.00">Entree.h</text>
</a>
</g>
</g>
<!-- Node11&#45;&gt;Node12 -->
<g id="edge12" class="edge">
<title>Node11&#45;&gt;Node12</title>
<path fill="none" stroke="midnightblue" d="M238.61,-168.32C227.35,-160.11 210.21,-147.6 196.79,-137.81"/>
<polygon fill="midnightblue" stroke="midnightblue" points="198.75,-134.9 188.61,-131.83 194.62,-140.56 198.75,-134.9"/>
</g>
<!-- Node19 -->
<g id="node19" class="node">
<title>Node19</title>
<g id="a_node19"><a xlink:href="Sortie_8h.html" target="_top" xlink:title=" ">
<polygon fill="white" stroke="black" points="223.5,-112.5 223.5,-131.5 277.5,-131.5 277.5,-112.5 223.5,-112.5"/>
<text text-anchor="middle" x="250.5" y="-119.5" font-family="Helvetica,sans-Serif" font-size="10.00">Sortie.h</text>
</a>
</g>
</g>
<!-- Node11&#45;&gt;Node19 -->
<g id="edge20" class="edge">
<title>Node11&#45;&gt;Node19</title>
<path fill="none" stroke="midnightblue" d="M250.5,-168.08C250.5,-161.01 250.5,-150.86 250.5,-141.99"/>
<polygon fill="midnightblue" stroke="midnightblue" points="254,-141.75 250.5,-131.75 247,-141.75 254,-141.75"/>
</g>
<!-- Node21 -->
<g id="node21" class="node">
<title>Node21</title>
<g id="a_node21"><a xlink:href="Separateur_8h.html" target="_top" xlink:title=" ">
<polygon fill="white" stroke="black" points="295.5,-112.5 295.5,-131.5 373.5,-131.5 373.5,-112.5 295.5,-112.5"/>
<text text-anchor="middle" x="334.5" y="-119.5" font-family="Helvetica,sans-Serif" font-size="10.00">Separateur.h</text>
</a>
</g>
</g>
<!-- Node11&#45;&gt;Node21 -->
<g id="edge25" class="edge">
<title>Node11&#45;&gt;Node21</title>
<path fill="none" stroke="midnightblue" d="M264,-168.32C277.1,-159.9 297.21,-146.97 312.61,-137.07"/>
<polygon fill="midnightblue" stroke="midnightblue" points="314.52,-140.01 321.04,-131.65 310.73,-134.12 314.52,-140.01"/>
</g>
<!-- Node12&#45;&gt;Node5 -->
<g id="edge16" class="edge">
<title>Node12&#45;&gt;Node5</title>
<path fill="none" stroke="midnightblue" d="M165.74,-112.32C155.73,-104.26 140.61,-92.08 128.57,-82.37"/>
<polygon fill="midnightblue" stroke="midnightblue" points="130.44,-79.38 120.46,-75.83 126.05,-84.83 130.44,-79.38"/>
</g>
<!-- Node13 -->
<g id="node13" class="node">
<title>Node13</title>
<g id="a_node13"><a xlink:title=" ">
<polygon fill="white" stroke="#bfbfbf" points="155.5,-56.5 155.5,-75.5 205.5,-75.5 205.5,-56.5 155.5,-56.5"/>
<text text-anchor="middle" x="180.5" y="-63.5" font-family="Helvetica,sans-Serif" font-size="10.00">stdio.h</text>
</a>
</g>
</g>
<!-- Node12&#45;&gt;Node13 -->
<g id="edge13" class="edge">
<title>Node12&#45;&gt;Node13</title>
<path fill="none" stroke="midnightblue" d="M177.16,-112.08C177.68,-105.01 178.44,-94.86 179.09,-85.99"/>
<polygon fill="midnightblue" stroke="midnightblue" points="182.6,-85.98 179.85,-75.75 175.62,-85.47 182.6,-85.98"/>
</g>
<!-- Node14 -->
<g id="node14" class="node">
<title>Node14</title>
<g id="a_node14"><a xlink:title=" ">
<polygon fill="white" stroke="#bfbfbf" points="223.5,-56.5 223.5,-75.5 269.5,-75.5 269.5,-56.5 223.5,-56.5"/>
<text text-anchor="middle" x="246.5" y="-63.5" font-family="Helvetica,sans-Serif" font-size="10.00">cstdio</text>
</a>
</g>
</g>
<!-- Node12&#45;&gt;Node14 -->
<g id="edge14" class="edge">
<title>Node12&#45;&gt;Node14</title>
<path fill="none" stroke="midnightblue" d="M187.75,-112.32C198.3,-104.18 214.3,-91.84 226.94,-82.09"/>
<polygon fill="midnightblue" stroke="midnightblue" points="229.27,-84.71 235.05,-75.83 224.99,-79.17 229.27,-84.71"/>
</g>
<!-- Node15 -->
<g id="node15" class="node">
<title>Node15</title>
<g id="a_node15"><a xlink:title=" ">
<polygon fill="white" stroke="#bfbfbf" points="287.5,-56.5 287.5,-75.5 347.5,-75.5 347.5,-56.5 287.5,-56.5"/>
<text text-anchor="middle" x="317.5" y="-63.5" font-family="Helvetica,sans-Serif" font-size="10.00">iostream</text>
</a>
</g>
</g>
<!-- Node12&#45;&gt;Node15 -->
<g id="edge15" class="edge">
<title>Node12&#45;&gt;Node15</title>
<path fill="none" stroke="midnightblue" d="M198.84,-112.44C222.25,-103.48 259.24,-89.31 285.69,-79.18"/>
<polygon fill="midnightblue" stroke="midnightblue" points="287.18,-82.36 295.26,-75.52 284.67,-75.82 287.18,-82.36"/>
</g>
<!-- Node12&#45;&gt;Node16 -->
<g id="edge17" class="edge">
<title>Node12&#45;&gt;Node16</title>
<path fill="none" stroke="midnightblue" d="M153.52,-112.44C129.34,-103.44 91.08,-89.19 63.85,-79.05"/>
<polygon fill="midnightblue" stroke="midnightblue" points="64.96,-75.73 54.37,-75.52 62.52,-82.29 64.96,-75.73"/>
</g>
<!-- Node17 -->
<g id="node17" class="node">
<title>Node17</title>
<g id="a_node17"><a xlink:href="arch_8h.html" target="_top" xlink:title=" ">
<polygon fill="white" stroke="black" points="366,-56.5 366,-75.5 413,-75.5 413,-56.5 366,-56.5"/>
<text text-anchor="middle" x="389.5" y="-63.5" font-family="Helvetica,sans-Serif" font-size="10.00">arch.h</text>
</a>
</g>
</g>
<!-- Node12&#45;&gt;Node17 -->
<g id="edge18" class="edge">
<title>Node12&#45;&gt;Node17</title>
<path fill="none" stroke="midnightblue" d="M205.23,-114.02C238.92,-105.78 296.7,-91.53 355.84,-76.13"/>
<polygon fill="midnightblue" stroke="midnightblue" points="356.93,-79.46 365.72,-73.55 355.16,-72.69 356.93,-79.46"/>
</g>
<!-- Node18 -->
<g id="node18" class="node">
<title>Node18</title>
<g id="a_node18"><a xlink:href="generique_8h.html" target="_top" xlink:title=" ">
<polygon fill="white" stroke="black" points="352.5,-0.5 352.5,-19.5 426.5,-19.5 426.5,-0.5 352.5,-0.5"/>
<text text-anchor="middle" x="389.5" y="-7.5" font-family="Helvetica,sans-Serif" font-size="10.00">generique.h</text>
</a>
</g>
</g>
<!-- Node17&#45;&gt;Node18 -->
<g id="edge19" class="edge">
<title>Node17&#45;&gt;Node18</title>
<path fill="none" stroke="midnightblue" d="M389.5,-56.08C389.5,-49.01 389.5,-38.86 389.5,-29.99"/>
<polygon fill="midnightblue" stroke="midnightblue" points="393,-29.75 389.5,-19.75 386,-29.75 393,-29.75"/>
</g>
<!-- Node19&#45;&gt;Node5 -->
<g id="edge22" class="edge">
<title>Node19&#45;&gt;Node5</title>
<path fill="none" stroke="midnightblue" d="M228.16,-112.44C204.75,-103.48 167.76,-89.31 141.31,-79.18"/>
<polygon fill="midnightblue" stroke="midnightblue" points="142.33,-75.82 131.74,-75.52 139.82,-82.36 142.33,-75.82"/>
</g>
<!-- Node19&#45;&gt;Node15 -->
<g id="edge21" class="edge">
<title>Node19&#45;&gt;Node15</title>
<path fill="none" stroke="midnightblue" d="M261.26,-112.32C271.27,-104.26 286.39,-92.08 298.43,-82.37"/>
<polygon fill="midnightblue" stroke="midnightblue" points="300.95,-84.83 306.54,-75.83 296.56,-79.38 300.95,-84.83"/>
</g>
<!-- Node19&#45;&gt;Node17 -->
<g id="edge23" class="edge">
<title>Node19&#45;&gt;Node17</title>
<path fill="none" stroke="midnightblue" d="M272.52,-112.44C295.6,-103.48 332.06,-89.31 358.14,-79.18"/>
<polygon fill="midnightblue" stroke="midnightblue" points="359.52,-82.4 367.58,-75.52 356.99,-75.88 359.52,-82.4"/>
</g>
<!-- Node20 -->
<g id="node20" class="node">
<title>Node20</title>
<g id="a_node20"><a xlink:title=" ">
<polygon fill="white" stroke="#bfbfbf" points="457.5,-56.5 457.5,-75.5 501.5,-75.5 501.5,-56.5 457.5,-56.5"/>
<text text-anchor="middle" x="479.5" y="-63.5" font-family="Helvetica,sans-Serif" font-size="10.00">string</text>
</a>
</g>
</g>
<!-- Node19&#45;&gt;Node20 -->
<g id="edge24" class="edge">
<title>Node19&#45;&gt;Node20</title>
<path fill="none" stroke="midnightblue" d="M277.62,-114.17C280.61,-113.43 283.62,-112.7 286.5,-112 343.05,-98.34 409.11,-83.09 447.43,-74.31"/>
<polygon fill="midnightblue" stroke="midnightblue" points="448.51,-77.66 457.48,-72.02 446.95,-70.83 448.51,-77.66"/>
</g>
<!-- Node22&#45;&gt;Node4 -->
<g id="edge28" class="edge">
<title>Node22&#45;&gt;Node4</title>
<path fill="none" stroke="midnightblue" d="M426.98,-282.38C393.61,-273.37 333.44,-257.12 292.98,-246.2"/>
<polygon fill="midnightblue" stroke="midnightblue" points="293.72,-242.77 283.15,-243.55 291.89,-249.53 293.72,-242.77"/>
</g>
<!-- Node22&#45;&gt;Node20 -->
<g id="edge30" class="edge">
<title>Node22&#45;&gt;Node20</title>
<path fill="none" stroke="midnightblue" d="M460.79,-280.39C469.08,-272.02 480.64,-258.48 485.5,-244 503.95,-188.98 491.93,-118.87 484.34,-85.84"/>
<polygon fill="midnightblue" stroke="midnightblue" points="487.66,-84.67 481.9,-75.78 480.86,-86.33 487.66,-84.67"/>
</g>
<!-- Node23 -->
<g id="node23" class="node">
<title>Node23</title>
<g id="a_node23"><a xlink:title=" ">
<polygon fill="white" stroke="#bfbfbf" points="426.5,-224.5 426.5,-243.5 476.5,-243.5 476.5,-224.5 426.5,-224.5"/>
<text text-anchor="middle" x="451.5" y="-231.5" font-family="Helvetica,sans-Serif" font-size="10.00">cstring</text>
</a>
</g>
</g>
<!-- Node22&#45;&gt;Node23 -->
<g id="edge29" class="edge">
<title>Node22&#45;&gt;Node23</title>
<path fill="none" stroke="midnightblue" d="M451.5,-280.08C451.5,-273.01 451.5,-262.86 451.5,-253.99"/>
<polygon fill="midnightblue" stroke="midnightblue" points="455,-253.75 451.5,-243.75 448,-253.75 455,-253.75"/>
</g>
<!-- Node24&#45;&gt;Node17 -->
<g id="edge32" class="edge">
<title>Node24&#45;&gt;Node17</title>
<path fill="none" stroke="midnightblue" d="M373.03,-336.38C375.39,-297.78 385.01,-140.45 388.35,-85.81"/>
<polygon fill="midnightblue" stroke="midnightblue" points="391.86,-85.72 388.98,-75.52 384.87,-85.29 391.86,-85.72"/>
</g>
</g>
</svg>
