<?xml version="1.0" encoding="UTF-8" standalone="no"?>
<!DOCTYPE svg PUBLIC "-//W3C//DTD SVG 1.1//EN"
 "http://www.w3.org/Graphics/SVG/1.1/DTD/svg11.dtd">
<!-- Generated by graphviz version 2.43.0 (0)
 -->
<!-- Title: src/ThHyd/Incompressible/Traitement_particulier Pages: 1 -->
<svg width="546pt" height="167pt"
 viewBox="0.00 0.00 546.00 167.00" xmlns="http://www.w3.org/2000/svg" xmlns:xlink="http://www.w3.org/1999/xlink">
<g id="graph0" class="graph" transform="scale(1 1) rotate(0) translate(4 163)">
<title>src/ThHyd/Incompressible/Traitement_particulier</title>
<polygon fill="white" stroke="transparent" points="-4,4 -4,-163 542,-163 542,4 -4,4"/>
<g id="clust1" class="cluster">
<title>clusterdir_51a21c0b7437cb7a9315edf40b46e55a</title>
<g id="a_clust1"><a xlink:href="dir_51a21c0b7437cb7a9315edf40b46e55a.html" target="_top" xlink:title="Incompressible">
<polygon fill="#edf0f7" stroke="#7f7f7f" stroke-dasharray="5,2" points="8,-8 8,-151 318,-151 318,-8 8,-8"/>
<text text-anchor="middle" x="163" y="-139" font-family="Helvetica,sans-Serif" font-size="10.00">Incompressible</text>
</a>
</g>
</g>
<!-- dir_9e76ab0226d8fdd609390dcef250644a -->
<g id="node1" class="node">
<title>dir_9e76ab0226d8fdd609390dcef250644a</title>
<g id="a_node1"><a xlink:href="dir_9e76ab0226d8fdd609390dcef250644a.html" target="_top" xlink:title="Milieu">
<polygon fill="#a2b4d6" stroke="#404040" points="70,-52 16,-52 16,-16 70,-16 70,-52"/>
<text text-anchor="middle" x="43" y="-31.5" font-family="Helvetica,sans-Serif" font-size="10.00">Milieu</text>
</a>
</g>
</g>
<!-- dir_aaa1a5082b093fe54bd029c751e5cae9 -->
<g id="node2" class="node">
<title>dir_aaa1a5082b093fe54bd029c751e5cae9</title>
<g id="a_node2"><a xlink:href="dir_aaa1a5082b093fe54bd029c751e5cae9.html" target="_top" xlink:title="Equations">
<polygon fill="#a2b4d6" stroke="#404040" points="153.5,-52 88.5,-52 88.5,-16 153.5,-16 153.5,-52"/>
<text text-anchor="middle" x="121" y="-31.5" font-family="Helvetica,sans-Serif" font-size="10.00">Equations</text>
</a>
</g>
</g>
<!-- dir_be06b8814fe0b2f6f8d379e2fcb5e4b9 -->
<g id="node3" class="node">
<title>dir_be06b8814fe0b2f6f8d379e2fcb5e4b9</title>
<g id="a_node3"><a xlink:href="dir_be06b8814fe0b2f6f8d379e2fcb5e4b9.html" target="_top" xlink:title="Sources">
<polygon fill="#a2b4d6" stroke="#404040" points="226.5,-52 171.5,-52 171.5,-16 226.5,-16 226.5,-52"/>
<text text-anchor="middle" x="199" y="-31.5" font-family="Helvetica,sans-Serif" font-size="10.00">Sources</text>
</a>
</g>
</g>
<!-- dir_f6f0e31ea5a1489ea82321142ad4ea32 -->
<g id="node4" class="node">
<title>dir_f6f0e31ea5a1489ea82321142ad4ea32</title>
<g id="a_node4"><a xlink:href="dir_f6f0e31ea5a1489ea82321142ad4ea32.html" target="_top" xlink:title="Cond_Lim">
<polygon fill="#a2b4d6" stroke="#404040" points="309.5,-52 244.5,-52 244.5,-16 309.5,-16 309.5,-52"/>
<text text-anchor="middle" x="277" y="-31.5" font-family="Helvetica,sans-Serif" font-size="10.00">Cond_Lim</text>
</a>
</g>
</g>
<!-- dir_290126111d2050adb7cb7cba07baf0d4 -->
<g id="node5" class="node">
<title>dir_290126111d2050adb7cb7cba07baf0d4</title>
<g id="a_node5"><a xlink:href="dir_290126111d2050adb7cb7cba07baf0d4.html" target="_top" xlink:title="Traitement_particulier">
<polygon fill="#edf0f7" stroke="#404040" stroke-width="2" points="285,-124 161,-124 161,-88 285,-88 285,-124"/>
<text text-anchor="middle" x="223" y="-103.5" font-family="Helvetica,sans-Serif" font-size="10.00">Traitement_particulier</text>
</a>
</g>
</g>
<!-- dir_290126111d2050adb7cb7cba07baf0d4&#45;&gt;dir_9e76ab0226d8fdd609390dcef250644a -->
<g id="edge2" class="edge">
<title>dir_290126111d2050adb7cb7cba07baf0d4&#45;&gt;dir_9e76ab0226d8fdd609390dcef250644a</title>
<path fill="none" stroke="black" d="M174.33,-87.99C146.5,-78.02 111.06,-64.87 80,-52 79.9,-51.96 79.8,-51.92 79.71,-51.88"/>
<polygon fill="black" stroke="black" points="80.95,-48.6 70.38,-47.86 78.18,-55.03 80.95,-48.6"/>
<g id="a_edge2&#45;headlabel"><a xlink:href="dir_000103_000057.html" target="_top" xlink:title="1">
<text text-anchor="middle" x="85.37" y="-44.92" font-family="Helvetica,sans-Serif" font-size="10.00">1</text>
</a>
</g>
</g>
<!-- dir_290126111d2050adb7cb7cba07baf0d4&#45;&gt;dir_aaa1a5082b093fe54bd029c751e5cae9 -->
<g id="edge3" class="edge">
<title>dir_290126111d2050adb7cb7cba07baf0d4&#45;&gt;dir_aaa1a5082b093fe54bd029c751e5cae9</title>
<path fill="none" stroke="black" d="M198.05,-87.88C184.96,-78.89 168.74,-67.76 154.56,-58.03"/>
<polygon fill="black" stroke="black" points="156.27,-54.96 146.05,-52.19 152.31,-60.73 156.27,-54.96"/>
<g id="a_edge3&#45;headlabel"><a xlink:href="dir_000103_000030.html" target="_top" xlink:title="6">
<text text-anchor="middle" x="160.84" y="-52.16" font-family="Helvetica,sans-Serif" font-size="10.00">6</text>
</a>
</g>
</g>
<!-- dir_290126111d2050adb7cb7cba07baf0d4&#45;&gt;dir_be06b8814fe0b2f6f8d379e2fcb5e4b9 -->
<g id="edge5" class="edge">
<title>dir_290126111d2050adb7cb7cba07baf0d4&#45;&gt;dir_be06b8814fe0b2f6f8d379e2fcb5e4b9</title>
<path fill="none" stroke="black" d="M217.07,-87.7C214.39,-79.9 211.17,-70.51 208.2,-61.83"/>
<polygon fill="black" stroke="black" points="211.42,-60.43 204.86,-52.1 204.8,-62.7 211.42,-60.43"/>
<g id="a_edge5&#45;headlabel"><a xlink:href="dir_000103_000094.html" target="_top" xlink:title="1">
<text text-anchor="middle" x="215.27" y="-60.41" font-family="Helvetica,sans-Serif" font-size="10.00">1</text>
</a>
</g>
</g>
<!-- dir_290126111d2050adb7cb7cba07baf0d4&#45;&gt;dir_f6f0e31ea5a1489ea82321142ad4ea32 -->
<g id="edge6" class="edge">
<title>dir_290126111d2050adb7cb7cba07baf0d4&#45;&gt;dir_f6f0e31ea5a1489ea82321142ad4ea32</title>
<path fill="none" stroke="black" d="M236.35,-87.7C242.76,-79.39 250.56,-69.28 257.61,-60.14"/>
<polygon fill="black" stroke="black" points="260.47,-62.16 263.81,-52.1 254.93,-57.88 260.47,-62.16"/>
<g id="a_edge6&#45;headlabel"><a xlink:href="dir_000103_000018.html" target="_top" xlink:title="1">
<text text-anchor="middle" x="260.52" y="-64.24" font-family="Helvetica,sans-Serif" font-size="10.00">1</text>
</a>
</g>
</g>
<!-- dir_4ebb9cf478835123b919db691d6366a3 -->
<g id="node6" class="node">
<title>dir_4ebb9cf478835123b919db691d6366a3</title>
<g id="a_node6"><a xlink:href="dir_4ebb9cf478835123b919db691d6366a3.html" target="_top" xlink:title="Kernel">
<polygon fill="none" stroke="red" stroke-dasharray="5,2" points="382,-52 328,-52 328,-16 382,-16 382,-52"/>
<text text-anchor="middle" x="355" y="-31.5" font-family="Helvetica,sans-Serif" font-size="10.00">Kernel</text>
</a>
</g>
</g>
<!-- dir_290126111d2050adb7cb7cba07baf0d4&#45;&gt;dir_4ebb9cf478835123b919db691d6366a3 -->
<g id="edge1" class="edge">
<title>dir_290126111d2050adb7cb7cba07baf0d4&#45;&gt;dir_4ebb9cf478835123b919db691d6366a3</title>
<path fill="none" stroke="black" d="M255.29,-87.88C274.53,-77.67 298.99,-64.7 318.88,-54.16"/>
<polygon fill="black" stroke="black" points="320.74,-57.13 327.94,-49.35 317.46,-50.94 320.74,-57.13"/>
<g id="a_edge1&#45;headlabel"><a xlink:href="dir_000103_000046.html" target="_top" xlink:title="48">
<text text-anchor="middle" x="318.9" y="-58.82" font-family="Helvetica,sans-Serif" font-size="10.00">48</text>
</a>
</g>
</g>
<!-- dir_ba10e25469e0242348e1916c88c8073a -->
<g id="node7" class="node">
<title>dir_ba10e25469e0242348e1916c88c8073a</title>
<g id="a_node7"><a xlink:href="dir_ba10e25469e0242348e1916c88c8073a.html" target="_top" xlink:title="Modele_turbulence_base">
<polygon fill="none" stroke="#7f7f7f" points="538,-52 400,-52 400,-16 538,-16 538,-52"/>
<text text-anchor="middle" x="469" y="-31.5" font-family="Helvetica,sans-Serif" font-size="10.00">Modele_turbulence_base</text>
</a>
</g>
</g>
<!-- dir_290126111d2050adb7cb7cba07baf0d4&#45;&gt;dir_ba10e25469e0242348e1916c88c8073a -->
<g id="edge4" class="edge">
<title>dir_290126111d2050adb7cb7cba07baf0d4&#45;&gt;dir_ba10e25469e0242348e1916c88c8073a</title>
<path fill="none" stroke="black" d="M282.86,-87.97C317.98,-77.97 362.52,-65.3 399.23,-54.85"/>
<polygon fill="black" stroke="black" points="400.21,-58.21 408.87,-52.11 398.29,-51.48 400.21,-58.21"/>
<g id="a_edge4&#45;headlabel"><a xlink:href="dir_000103_000059.html" target="_top" xlink:title="2">
<text text-anchor="middle" x="397.53" y="-59.43" font-family="Helvetica,sans-Serif" font-size="10.00">2</text>
</a>
</g>
</g>
</g>
</svg>
