<?xml version="1.0" encoding="UTF-8" standalone="no"?>
<!DOCTYPE svg PUBLIC "-//W3C//DTD SVG 1.1//EN"
 "http://www.w3.org/Graphics/SVG/1.1/DTD/svg11.dtd">
<!-- Generated by graphviz version 2.43.0 (0)
 -->
<!-- Title: src/VDF/Axi/Sources Pages: 1 -->
<svg width="280pt" height="151pt"
 viewBox="0.00 0.00 280.00 151.00" xmlns="http://www.w3.org/2000/svg" xmlns:xlink="http://www.w3.org/1999/xlink">
<g id="graph0" class="graph" transform="scale(1 1) rotate(0) translate(4 147)">
<title>src/VDF/Axi/Sources</title>
<polygon fill="white" stroke="transparent" points="-4,4 -4,-147 276,-147 276,4 -4,4"/>
<g id="clust1" class="cluster">
<title>clusterdir_0a0bbf5e4343cc3c68cc1e79ea782b90</title>
<g id="a_clust1"><a xlink:href="dir_0a0bbf5e4343cc3c68cc1e79ea782b90.html" target="_top" xlink:title="Axi">
<polygon fill="#edf0f7" stroke="#7f7f7f" stroke-dasharray="5,2" points="101,-64 101,-135 173,-135 173,-64 101,-64"/>
<text text-anchor="middle" x="137" y="-123" font-family="Helvetica,sans-Serif" font-size="10.00">Axi</text>
</a>
</g>
</g>
<!-- dir_b7122e30a35b666fd0246a4e50e32b75 -->
<g id="node1" class="node">
<title>dir_b7122e30a35b666fd0246a4e50e32b75</title>
<g id="a_node1"><a xlink:href="dir_b7122e30a35b666fd0246a4e50e32b75.html" target="_top" xlink:title="Sources">
<polygon fill="#edf0f7" stroke="#404040" stroke-width="2" points="164.5,-108 109.5,-108 109.5,-72 164.5,-72 164.5,-108"/>
<text text-anchor="middle" x="137" y="-87.5" font-family="Helvetica,sans-Serif" font-size="10.00">Sources</text>
</a>
</g>
</g>
<!-- dir_0197979fff557feda0433ec01d8934c3 -->
<g id="node2" class="node">
<title>dir_0197979fff557feda0433ec01d8934c3</title>
<g id="a_node2"><a xlink:href="dir_0197979fff557feda0433ec01d8934c3.html" target="_top" xlink:title="Champs">
<polygon fill="none" stroke="#7f7f7f" points="56,-36 0,-36 0,0 56,0 56,-36"/>
<text text-anchor="middle" x="28" y="-15.5" font-family="Helvetica,sans-Serif" font-size="10.00">Champs</text>
</a>
</g>
</g>
<!-- dir_b7122e30a35b666fd0246a4e50e32b75&#45;&gt;dir_0197979fff557feda0433ec01d8934c3 -->
<g id="edge1" class="edge">
<title>dir_b7122e30a35b666fd0246a4e50e32b75&#45;&gt;dir_0197979fff557feda0433ec01d8934c3</title>
<path fill="none" stroke="black" d="M110.34,-71.88C96.22,-62.81 78.69,-51.55 63.44,-41.76"/>
<polygon fill="black" stroke="black" points="65.07,-38.65 54.77,-36.19 61.29,-44.54 65.07,-38.65"/>
<g id="a_edge1&#45;headlabel"><a xlink:href="dir_000095_000007.html" target="_top" xlink:title="2">
<text text-anchor="middle" x="69.63" y="-35.7" font-family="Helvetica,sans-Serif" font-size="10.00">2</text>
</a>
</g>
</g>
<!-- dir_0fe539761940b9854e54b3f9f72adf5a -->
<g id="node3" class="node">
<title>dir_0fe539761940b9854e54b3f9f72adf5a</title>
<g id="a_node3"><a xlink:href="dir_0fe539761940b9854e54b3f9f72adf5a.html" target="_top" xlink:title="Zones">
<polygon fill="none" stroke="#7f7f7f" points="128,-36 74,-36 74,0 128,0 128,-36"/>
<text text-anchor="middle" x="101" y="-15.5" font-family="Helvetica,sans-Serif" font-size="10.00">Zones</text>
</a>
</g>
</g>
<!-- dir_b7122e30a35b666fd0246a4e50e32b75&#45;&gt;dir_0fe539761940b9854e54b3f9f72adf5a -->
<g id="edge2" class="edge">
<title>dir_b7122e30a35b666fd0246a4e50e32b75&#45;&gt;dir_0fe539761940b9854e54b3f9f72adf5a</title>
<path fill="none" stroke="black" d="M128.1,-71.7C124,-63.73 119.05,-54.1 114.51,-45.26"/>
<polygon fill="black" stroke="black" points="117.48,-43.4 109.8,-36.1 111.26,-46.6 117.48,-43.4"/>
<g id="a_edge2&#45;headlabel"><a xlink:href="dir_000095_000122.html" target="_top" xlink:title="4">
<text text-anchor="middle" x="121.65" y="-42.79" font-family="Helvetica,sans-Serif" font-size="10.00">4</text>
</a>
</g>
</g>
<!-- dir_4ebb9cf478835123b919db691d6366a3 -->
<g id="node4" class="node">
<title>dir_4ebb9cf478835123b919db691d6366a3</title>
<g id="a_node4"><a xlink:href="dir_4ebb9cf478835123b919db691d6366a3.html" target="_top" xlink:title="Kernel">
<polygon fill="none" stroke="red" stroke-dasharray="5,2" points="200,-36 146,-36 146,0 200,0 200,-36"/>
<text text-anchor="middle" x="173" y="-15.5" font-family="Helvetica,sans-Serif" font-size="10.00">Kernel</text>
</a>
</g>
</g>
<!-- dir_b7122e30a35b666fd0246a4e50e32b75&#45;&gt;dir_4ebb9cf478835123b919db691d6366a3 -->
<g id="edge3" class="edge">
<title>dir_b7122e30a35b666fd0246a4e50e32b75&#45;&gt;dir_4ebb9cf478835123b919db691d6366a3</title>
<path fill="none" stroke="black" d="M145.9,-71.7C150,-63.73 154.95,-54.1 159.49,-45.26"/>
<polygon fill="black" stroke="black" points="162.74,-46.6 164.2,-36.1 156.52,-43.4 162.74,-46.6"/>
<g id="a_edge3&#45;headlabel"><a xlink:href="dir_000095_000046.html" target="_top" xlink:title="7">
<text text-anchor="middle" x="163.62" y="-48.59" font-family="Helvetica,sans-Serif" font-size="10.00">7</text>
</a>
</g>
</g>
<!-- dir_b91833fa2d528be7aecedeb7fe4eea36 -->
<g id="node5" class="node">
<title>dir_b91833fa2d528be7aecedeb7fe4eea36</title>
<g id="a_node5"><a xlink:href="dir_b91833fa2d528be7aecedeb7fe4eea36.html" target="_top" xlink:title="ThHyd">
<polygon fill="none" stroke="red" stroke-dasharray="5,2" points="272,-36 218,-36 218,0 272,0 272,-36"/>
<text text-anchor="middle" x="245" y="-15.5" font-family="Helvetica,sans-Serif" font-size="10.00">ThHyd</text>
</a>
</g>
</g>
<!-- dir_b7122e30a35b666fd0246a4e50e32b75&#45;&gt;dir_b91833fa2d528be7aecedeb7fe4eea36 -->
<g id="edge4" class="edge">
<title>dir_b7122e30a35b666fd0246a4e50e32b75&#45;&gt;dir_b91833fa2d528be7aecedeb7fe4eea36</title>
<path fill="none" stroke="black" d="M163.42,-71.88C177.41,-62.81 194.78,-51.55 209.89,-41.76"/>
<polygon fill="black" stroke="black" points="211.99,-44.57 218.48,-36.19 208.18,-38.69 211.99,-44.57"/>
<g id="a_edge4&#45;headlabel"><a xlink:href="dir_000095_000101.html" target="_top" xlink:title="1">
<text text-anchor="middle" x="210.52" y="-46.4" font-family="Helvetica,sans-Serif" font-size="10.00">1</text>
</a>
</g>
</g>
</g>
</svg>
