<?xml version="1.0" encoding="UTF-8" standalone="no"?>
<!DOCTYPE svg PUBLIC "-//W3C//DTD SVG 1.1//EN"
 "http://www.w3.org/Graphics/SVG/1.1/DTD/svg11.dtd">
<!-- Generated by graphviz version 2.43.0 (0)
 -->
<!-- Title: src/ThHyd/Dilatable/Quasi_Compressible/Equations Pages: 1 -->
<svg width="414pt" height="167pt"
 viewBox="0.00 0.00 413.50 167.00" xmlns="http://www.w3.org/2000/svg" xmlns:xlink="http://www.w3.org/1999/xlink">
<g id="graph0" class="graph" transform="scale(1 1) rotate(0) translate(4 163)">
<title>src/ThHyd/Dilatable/Quasi_Compressible/Equations</title>
<polygon fill="white" stroke="transparent" points="-4,4 -4,-163 409.5,-163 409.5,4 -4,4"/>
<g id="clust1" class="cluster">
<title>clusterdir_ff1c0327015213079e47006da0573e6e</title>
<g id="a_clust1"><a xlink:href="dir_ff1c0327015213079e47006da0573e6e.html" target="_top" xlink:title="Quasi_Compressible">
<polygon fill="#edf0f7" stroke="#7f7f7f" stroke-dasharray="5,2" points="8,-8 8,-151 152,-151 152,-8 8,-8"/>
<text text-anchor="middle" x="80" y="-139" font-family="Helvetica,sans-Serif" font-size="10.00">Quasi_Compressible</text>
</a>
</g>
</g>
<!-- dir_108fd775d9799748f4c3c0e55c5200aa -->
<g id="node1" class="node">
<title>dir_108fd775d9799748f4c3c0e55c5200aa</title>
<g id="a_node1"><a xlink:href="dir_108fd775d9799748f4c3c0e55c5200aa.html" target="_top" xlink:title="Loi_Etat">
<polygon fill="#a2b4d6" stroke="#404040" points="72,-52 16,-52 16,-16 72,-16 72,-52"/>
<text text-anchor="middle" x="44" y="-31.5" font-family="Helvetica,sans-Serif" font-size="10.00">Loi_Etat</text>
</a>
</g>
</g>
<!-- dir_78accde9745691cdc19ade7d7d422287 -->
<g id="node2" class="node">
<title>dir_78accde9745691cdc19ade7d7d422287</title>
<g id="a_node2"><a xlink:href="dir_78accde9745691cdc19ade7d7d422287.html" target="_top" xlink:title="Milieu">
<polygon fill="#a2b4d6" stroke="#404040" points="144,-52 90,-52 90,-16 144,-16 144,-52"/>
<text text-anchor="middle" x="117" y="-31.5" font-family="Helvetica,sans-Serif" font-size="10.00">Milieu</text>
</a>
</g>
</g>
<!-- dir_dbe78ded1acc901006a5b2e17f276b35 -->
<g id="node3" class="node">
<title>dir_dbe78ded1acc901006a5b2e17f276b35</title>
<g id="a_node3"><a xlink:href="dir_dbe78ded1acc901006a5b2e17f276b35.html" target="_top" xlink:title="Equations">
<polygon fill="#edf0f7" stroke="#404040" stroke-width="2" points="143.5,-124 78.5,-124 78.5,-88 143.5,-88 143.5,-124"/>
<text text-anchor="middle" x="111" y="-103.5" font-family="Helvetica,sans-Serif" font-size="10.00">Equations</text>
</a>
</g>
</g>
<!-- dir_dbe78ded1acc901006a5b2e17f276b35&#45;&gt;dir_108fd775d9799748f4c3c0e55c5200aa -->
<g id="edge1" class="edge">
<title>dir_dbe78ded1acc901006a5b2e17f276b35&#45;&gt;dir_108fd775d9799748f4c3c0e55c5200aa</title>
<path fill="none" stroke="black" d="M94.44,-87.7C86.32,-79.22 76.41,-68.86 67.53,-59.58"/>
<polygon fill="black" stroke="black" points="69.81,-56.91 60.37,-52.1 64.76,-61.75 69.81,-56.91"/>
<g id="a_edge1&#45;headlabel"><a xlink:href="dir_000028_000048.html" target="_top" xlink:title="2">
<text text-anchor="middle" x="74.35" y="-55.04" font-family="Helvetica,sans-Serif" font-size="10.00">2</text>
</a>
</g>
</g>
<!-- dir_dbe78ded1acc901006a5b2e17f276b35&#45;&gt;dir_78accde9745691cdc19ade7d7d422287 -->
<g id="edge5" class="edge">
<title>dir_dbe78ded1acc901006a5b2e17f276b35&#45;&gt;dir_78accde9745691cdc19ade7d7d422287</title>
<path fill="none" stroke="black" d="M112.48,-87.7C113.14,-79.98 113.94,-70.71 114.68,-62.11"/>
<polygon fill="black" stroke="black" points="118.17,-62.37 115.53,-52.1 111.19,-61.77 118.17,-62.37"/>
<g id="a_edge5&#45;headlabel"><a xlink:href="dir_000028_000055.html" target="_top" xlink:title="5">
<text text-anchor="middle" x="120.69" y="-63.69" font-family="Helvetica,sans-Serif" font-size="10.00">5</text>
</a>
</g>
</g>
<!-- dir_34af9566fa953ec4d674e053f3791c3c -->
<g id="node4" class="node">
<title>dir_34af9566fa953ec4d674e053f3791c3c</title>
<g id="a_node4"><a xlink:href="dir_34af9566fa953ec4d674e053f3791c3c.html" target="_top" xlink:title="Common">
<polygon fill="none" stroke="red" stroke-dasharray="5,2" points="223.5,-52 162.5,-52 162.5,-16 223.5,-16 223.5,-52"/>
<text text-anchor="middle" x="193" y="-31.5" font-family="Helvetica,sans-Serif" font-size="10.00">Common</text>
</a>
</g>
</g>
<!-- dir_dbe78ded1acc901006a5b2e17f276b35&#45;&gt;dir_34af9566fa953ec4d674e053f3791c3c -->
<g id="edge2" class="edge">
<title>dir_dbe78ded1acc901006a5b2e17f276b35&#45;&gt;dir_34af9566fa953ec4d674e053f3791c3c</title>
<path fill="none" stroke="black" d="M131.27,-87.7C141.5,-78.97 154.06,-68.24 165.18,-58.75"/>
<polygon fill="black" stroke="black" points="167.63,-61.26 172.96,-52.1 163.09,-55.94 167.63,-61.26"/>
<g id="a_edge2&#45;headlabel"><a xlink:href="dir_000028_000012.html" target="_top" xlink:title="4">
<text text-anchor="middle" x="166.74" y="-63.25" font-family="Helvetica,sans-Serif" font-size="10.00">4</text>
</a>
</g>
</g>
<!-- dir_4ebb9cf478835123b919db691d6366a3 -->
<g id="node5" class="node">
<title>dir_4ebb9cf478835123b919db691d6366a3</title>
<g id="a_node5"><a xlink:href="dir_4ebb9cf478835123b919db691d6366a3.html" target="_top" xlink:title="Kernel">
<polygon fill="none" stroke="red" stroke-dasharray="5,2" points="296,-52 242,-52 242,-16 296,-16 296,-52"/>
<text text-anchor="middle" x="269" y="-31.5" font-family="Helvetica,sans-Serif" font-size="10.00">Kernel</text>
</a>
</g>
</g>
<!-- dir_dbe78ded1acc901006a5b2e17f276b35&#45;&gt;dir_4ebb9cf478835123b919db691d6366a3 -->
<g id="edge3" class="edge">
<title>dir_dbe78ded1acc901006a5b2e17f276b35&#45;&gt;dir_4ebb9cf478835123b919db691d6366a3</title>
<path fill="none" stroke="black" d="M143.75,-91.1C166.36,-81.44 197.32,-68.05 232.41,-52.21"/>
<polygon fill="black" stroke="black" points="234.25,-55.22 241.92,-47.9 231.36,-48.84 234.25,-55.22"/>
<g id="a_edge3&#45;headlabel"><a xlink:href="dir_000028_000046.html" target="_top" xlink:title="10">
<text text-anchor="middle" x="232.15" y="-56.79" font-family="Helvetica,sans-Serif" font-size="10.00">10</text>
</a>
</g>
</g>
<!-- dir_51a21c0b7437cb7a9315edf40b46e55a -->
<g id="node6" class="node">
<title>dir_51a21c0b7437cb7a9315edf40b46e55a</title>
<g id="a_node6"><a xlink:href="dir_51a21c0b7437cb7a9315edf40b46e55a.html" target="_top" xlink:title="Incompressible">
<polygon fill="none" stroke="red" stroke-dasharray="5,2" points="405.5,-52 314.5,-52 314.5,-16 405.5,-16 405.5,-52"/>
<text text-anchor="middle" x="360" y="-31.5" font-family="Helvetica,sans-Serif" font-size="10.00">Incompressible</text>
</a>
</g>
</g>
<!-- dir_dbe78ded1acc901006a5b2e17f276b35&#45;&gt;dir_51a21c0b7437cb7a9315edf40b46e55a -->
<g id="edge4" class="edge">
<title>dir_dbe78ded1acc901006a5b2e17f276b35&#45;&gt;dir_51a21c0b7437cb7a9315edf40b46e55a</title>
<path fill="none" stroke="black" d="M143.7,-96.42C180.45,-86.7 242.12,-70.16 304.76,-52.02"/>
<polygon fill="black" stroke="black" points="305.79,-55.37 314.42,-49.22 303.84,-48.65 305.79,-55.37"/>
<g id="a_edge4&#45;headlabel"><a xlink:href="dir_000028_000041.html" target="_top" xlink:title="2">
<text text-anchor="middle" x="303.13" y="-56.6" font-family="Helvetica,sans-Serif" font-size="10.00">2</text>
</a>
</g>
</g>
</g>
</svg>
