<?xml version="1.0" encoding="UTF-8" standalone="no"?>
<!DOCTYPE svg PUBLIC "-//W3C//DTD SVG 1.1//EN"
 "http://www.w3.org/Graphics/SVG/1.1/DTD/svg11.dtd">
<!-- Generated by graphviz version 2.43.0 (0)
 -->
<!-- Title: src/ThHyd/Dilatable/Weakly_Compressible/Sources Pages: 1 -->
<svg width="283pt" height="167pt"
 viewBox="0.00 0.00 283.00 167.00" xmlns="http://www.w3.org/2000/svg" xmlns:xlink="http://www.w3.org/1999/xlink">
<g id="graph0" class="graph" transform="scale(1 1) rotate(0) translate(4 163)">
<title>src/ThHyd/Dilatable/Weakly_Compressible/Sources</title>
<polygon fill="white" stroke="transparent" points="-4,4 -4,-163 279,-163 279,4 -4,4"/>
<g id="clust1" class="cluster">
<title>clusterdir_f68ca564a2e143a4f6bd7b58dc1f43b7</title>
<g id="a_clust1"><a xlink:href="dir_f68ca564a2e143a4f6bd7b58dc1f43b7.html" target="_top" xlink:title="Weakly_Compressible">
<polygon fill="#edf0f7" stroke="#7f7f7f" stroke-dasharray="5,2" points="8,-8 8,-151 133,-151 133,-8 8,-8"/>
<text text-anchor="middle" x="70.5" y="-139" font-family="Helvetica,sans-Serif" font-size="10.00">Weakly_Compressible</text>
</a>
</g>
</g>
<!-- dir_d81664fe54e3259051126d7dac15c85f -->
<g id="node1" class="node">
<title>dir_d81664fe54e3259051126d7dac15c85f</title>
<g id="a_node1"><a xlink:href="dir_d81664fe54e3259051126d7dac15c85f.html" target="_top" xlink:title="Milieu">
<polygon fill="#a2b4d6" stroke="#404040" points="123,-52 69,-52 69,-16 123,-16 123,-52"/>
<text text-anchor="middle" x="96" y="-31.5" font-family="Helvetica,sans-Serif" font-size="10.00">Milieu</text>
</a>
</g>
</g>
<!-- dir_87d01487d25d547a34c067b48d3334c6 -->
<g id="node2" class="node">
<title>dir_87d01487d25d547a34c067b48d3334c6</title>
<g id="a_node2"><a xlink:href="dir_87d01487d25d547a34c067b48d3334c6.html" target="_top" xlink:title="Sources">
<polygon fill="#edf0f7" stroke="#404040" stroke-width="2" points="124.5,-124 69.5,-124 69.5,-88 124.5,-88 124.5,-124"/>
<text text-anchor="middle" x="97" y="-103.5" font-family="Helvetica,sans-Serif" font-size="10.00">Sources</text>
</a>
</g>
</g>
<!-- dir_87d01487d25d547a34c067b48d3334c6&#45;&gt;dir_d81664fe54e3259051126d7dac15c85f -->
<g id="edge3" class="edge">
<title>dir_87d01487d25d547a34c067b48d3334c6&#45;&gt;dir_d81664fe54e3259051126d7dac15c85f</title>
<path fill="none" stroke="black" d="M96.75,-87.7C96.64,-79.98 96.51,-70.71 96.39,-62.11"/>
<polygon fill="black" stroke="black" points="99.89,-62.05 96.24,-52.1 92.89,-62.15 99.89,-62.05"/>
<g id="a_edge3&#45;headlabel"><a xlink:href="dir_000093_000056.html" target="_top" xlink:title="2">
<text text-anchor="middle" x="102.78" y="-63.11" font-family="Helvetica,sans-Serif" font-size="10.00">2</text>
</a>
</g>
</g>
<!-- dir_34af9566fa953ec4d674e053f3791c3c -->
<g id="node3" class="node">
<title>dir_34af9566fa953ec4d674e053f3791c3c</title>
<g id="a_node3"><a xlink:href="dir_34af9566fa953ec4d674e053f3791c3c.html" target="_top" xlink:title="Common">
<polygon fill="none" stroke="red" stroke-dasharray="5,2" points="202.5,-52 141.5,-52 141.5,-16 202.5,-16 202.5,-52"/>
<text text-anchor="middle" x="172" y="-31.5" font-family="Helvetica,sans-Serif" font-size="10.00">Common</text>
</a>
</g>
</g>
<!-- dir_87d01487d25d547a34c067b48d3334c6&#45;&gt;dir_34af9566fa953ec4d674e053f3791c3c -->
<g id="edge1" class="edge">
<title>dir_87d01487d25d547a34c067b48d3334c6&#45;&gt;dir_34af9566fa953ec4d674e053f3791c3c</title>
<path fill="none" stroke="black" d="M115.54,-87.7C124.8,-79.05 136.16,-68.45 146.26,-59.03"/>
<polygon fill="black" stroke="black" points="148.75,-61.49 153.67,-52.1 143.98,-56.37 148.75,-61.49"/>
<g id="a_edge1&#45;headlabel"><a xlink:href="dir_000093_000012.html" target="_top" xlink:title="1">
<text text-anchor="middle" x="148.06" y="-63.51" font-family="Helvetica,sans-Serif" font-size="10.00">1</text>
</a>
</g>
</g>
<!-- dir_4ebb9cf478835123b919db691d6366a3 -->
<g id="node4" class="node">
<title>dir_4ebb9cf478835123b919db691d6366a3</title>
<g id="a_node4"><a xlink:href="dir_4ebb9cf478835123b919db691d6366a3.html" target="_top" xlink:title="Kernel">
<polygon fill="none" stroke="red" stroke-dasharray="5,2" points="275,-52 221,-52 221,-16 275,-16 275,-52"/>
<text text-anchor="middle" x="248" y="-31.5" font-family="Helvetica,sans-Serif" font-size="10.00">Kernel</text>
</a>
</g>
</g>
<!-- dir_87d01487d25d547a34c067b48d3334c6&#45;&gt;dir_4ebb9cf478835123b919db691d6366a3 -->
<g id="edge2" class="edge">
<title>dir_87d01487d25d547a34c067b48d3334c6&#45;&gt;dir_4ebb9cf478835123b919db691d6366a3</title>
<path fill="none" stroke="black" d="M124.92,-92.22C146.32,-82.41 176.8,-68.39 211.49,-52.22"/>
<polygon fill="black" stroke="black" points="213.3,-55.24 220.89,-47.84 210.34,-48.89 213.3,-55.24"/>
<g id="a_edge2&#45;headlabel"><a xlink:href="dir_000093_000046.html" target="_top" xlink:title="3">
<text text-anchor="middle" x="211.25" y="-56.83" font-family="Helvetica,sans-Serif" font-size="10.00">3</text>
</a>
</g>
</g>
</g>
</svg>
