<?xml version="1.0" encoding="UTF-8" standalone="no"?>
<!DOCTYPE svg PUBLIC "-//W3C//DTD SVG 1.1//EN"
 "http://www.w3.org/Graphics/SVG/1.1/DTD/svg11.dtd">
<!-- Generated by graphviz version 2.43.0 (0)
 -->
<!-- Title: src/ThHyd/Dilatable/Quasi_Compressible/Sources Pages: 1 -->
<svg width="274pt" height="167pt"
 viewBox="0.00 0.00 274.00 167.00" xmlns="http://www.w3.org/2000/svg" xmlns:xlink="http://www.w3.org/1999/xlink">
<g id="graph0" class="graph" transform="scale(1 1) rotate(0) translate(4 163)">
<title>src/ThHyd/Dilatable/Quasi_Compressible/Sources</title>
<polygon fill="white" stroke="transparent" points="-4,4 -4,-163 270,-163 270,4 -4,4"/>
<g id="clust1" class="cluster">
<title>clusterdir_ff1c0327015213079e47006da0573e6e</title>
<g id="a_clust1"><a xlink:href="dir_ff1c0327015213079e47006da0573e6e.html" target="_top" xlink:title="Quasi_Compressible">
<polygon fill="#edf0f7" stroke="#7f7f7f" stroke-dasharray="5,2" points="8,-8 8,-151 124,-151 124,-8 8,-8"/>
<text text-anchor="middle" x="66" y="-139" font-family="Helvetica,sans-Serif" font-size="10.00">Quasi_Compressible</text>
</a>
</g>
</g>
<!-- dir_78accde9745691cdc19ade7d7d422287 -->
<g id="node1" class="node">
<title>dir_78accde9745691cdc19ade7d7d422287</title>
<g id="a_node1"><a xlink:href="dir_78accde9745691cdc19ade7d7d422287.html" target="_top" xlink:title="Milieu">
<polygon fill="#a2b4d6" stroke="#404040" points="114,-52 60,-52 60,-16 114,-16 114,-52"/>
<text text-anchor="middle" x="87" y="-31.5" font-family="Helvetica,sans-Serif" font-size="10.00">Milieu</text>
</a>
</g>
</g>
<!-- dir_4bd51c86ba14e1b3166fddaa7c54329f -->
<g id="node2" class="node">
<title>dir_4bd51c86ba14e1b3166fddaa7c54329f</title>
<g id="a_node2"><a xlink:href="dir_4bd51c86ba14e1b3166fddaa7c54329f.html" target="_top" xlink:title="Sources">
<polygon fill="#edf0f7" stroke="#404040" stroke-width="2" points="115.5,-124 60.5,-124 60.5,-88 115.5,-88 115.5,-124"/>
<text text-anchor="middle" x="88" y="-103.5" font-family="Helvetica,sans-Serif" font-size="10.00">Sources</text>
</a>
</g>
</g>
<!-- dir_4bd51c86ba14e1b3166fddaa7c54329f&#45;&gt;dir_78accde9745691cdc19ade7d7d422287 -->
<g id="edge3" class="edge">
<title>dir_4bd51c86ba14e1b3166fddaa7c54329f&#45;&gt;dir_78accde9745691cdc19ade7d7d422287</title>
<path fill="none" stroke="black" d="M87.75,-87.7C87.64,-79.98 87.51,-70.71 87.39,-62.11"/>
<polygon fill="black" stroke="black" points="90.89,-62.05 87.24,-52.1 83.89,-62.15 90.89,-62.05"/>
<g id="a_edge3&#45;headlabel"><a xlink:href="dir_000092_000055.html" target="_top" xlink:title="4">
<text text-anchor="middle" x="93.78" y="-63.11" font-family="Helvetica,sans-Serif" font-size="10.00">4</text>
</a>
</g>
</g>
<!-- dir_34af9566fa953ec4d674e053f3791c3c -->
<g id="node3" class="node">
<title>dir_34af9566fa953ec4d674e053f3791c3c</title>
<g id="a_node3"><a xlink:href="dir_34af9566fa953ec4d674e053f3791c3c.html" target="_top" xlink:title="Common">
<polygon fill="none" stroke="red" stroke-dasharray="5,2" points="193.5,-52 132.5,-52 132.5,-16 193.5,-16 193.5,-52"/>
<text text-anchor="middle" x="163" y="-31.5" font-family="Helvetica,sans-Serif" font-size="10.00">Common</text>
</a>
</g>
</g>
<!-- dir_4bd51c86ba14e1b3166fddaa7c54329f&#45;&gt;dir_34af9566fa953ec4d674e053f3791c3c -->
<g id="edge1" class="edge">
<title>dir_4bd51c86ba14e1b3166fddaa7c54329f&#45;&gt;dir_34af9566fa953ec4d674e053f3791c3c</title>
<path fill="none" stroke="black" d="M106.54,-87.7C115.8,-79.05 127.16,-68.45 137.26,-59.03"/>
<polygon fill="black" stroke="black" points="139.75,-61.49 144.67,-52.1 134.98,-56.37 139.75,-61.49"/>
<g id="a_edge1&#45;headlabel"><a xlink:href="dir_000092_000012.html" target="_top" xlink:title="3">
<text text-anchor="middle" x="139.06" y="-63.51" font-family="Helvetica,sans-Serif" font-size="10.00">3</text>
</a>
</g>
</g>
<!-- dir_4ebb9cf478835123b919db691d6366a3 -->
<g id="node4" class="node">
<title>dir_4ebb9cf478835123b919db691d6366a3</title>
<g id="a_node4"><a xlink:href="dir_4ebb9cf478835123b919db691d6366a3.html" target="_top" xlink:title="Kernel">
<polygon fill="none" stroke="red" stroke-dasharray="5,2" points="266,-52 212,-52 212,-16 266,-16 266,-52"/>
<text text-anchor="middle" x="239" y="-31.5" font-family="Helvetica,sans-Serif" font-size="10.00">Kernel</text>
</a>
</g>
</g>
<!-- dir_4bd51c86ba14e1b3166fddaa7c54329f&#45;&gt;dir_4ebb9cf478835123b919db691d6366a3 -->
<g id="edge2" class="edge">
<title>dir_4bd51c86ba14e1b3166fddaa7c54329f&#45;&gt;dir_4ebb9cf478835123b919db691d6366a3</title>
<path fill="none" stroke="black" d="M115.92,-92.22C137.32,-82.41 167.8,-68.39 202.49,-52.22"/>
<polygon fill="black" stroke="black" points="204.3,-55.24 211.89,-47.84 201.34,-48.89 204.3,-55.24"/>
<g id="a_edge2&#45;headlabel"><a xlink:href="dir_000092_000046.html" target="_top" xlink:title="9">
<text text-anchor="middle" x="202.25" y="-56.83" font-family="Helvetica,sans-Serif" font-size="10.00">9</text>
</a>
</g>
</g>
</g>
</svg>
