<?xml version="1.0" encoding="UTF-8" standalone="no"?>
<!DOCTYPE svg PUBLIC "-//W3C//DTD SVG 1.1//EN"
 "http://www.w3.org/Graphics/SVG/1.1/DTD/svg11.dtd">
<!-- Generated by graphviz version 2.43.0 (0)
 -->
<!-- Title: src/VDF/Elements Pages: 1 -->
<svg width="156pt" height="167pt"
 viewBox="0.00 0.00 156.00 167.00" xmlns="http://www.w3.org/2000/svg" xmlns:xlink="http://www.w3.org/1999/xlink">
<g id="graph0" class="graph" transform="scale(1 1) rotate(0) translate(4 163)">
<title>src/VDF/Elements</title>
<polygon fill="white" stroke="transparent" points="-4,4 -4,-163 152,-163 152,4 -4,4"/>
<g id="clust1" class="cluster">
<title>clusterdir_f999ad8736097ebdc524243ad7f1213b</title>
<g id="a_clust1"><a xlink:href="dir_f999ad8736097ebdc524243ad7f1213b.html" target="_top" xlink:title="VDF">
<polygon fill="#edf0f7" stroke="#7f7f7f" stroke-dasharray="5,2" points="8,-8 8,-151 86,-151 86,-8 8,-8"/>
<text text-anchor="middle" x="47" y="-139" font-family="Helvetica,sans-Serif" font-size="10.00">VDF</text>
</a>
</g>
</g>
<!-- dir_0fe539761940b9854e54b3f9f72adf5a -->
<g id="node1" class="node">
<title>dir_0fe539761940b9854e54b3f9f72adf5a</title>
<g id="a_node1"><a xlink:href="dir_0fe539761940b9854e54b3f9f72adf5a.html" target="_top" xlink:title="Zones">
<polygon fill="#a2b4d6" stroke="#404040" points="74,-52 20,-52 20,-16 74,-16 74,-52"/>
<text text-anchor="middle" x="47" y="-31.5" font-family="Helvetica,sans-Serif" font-size="10.00">Zones</text>
</a>
</g>
</g>
<!-- dir_273a6d90137f48cfede6d096aadb8ab2 -->
<g id="node2" class="node">
<title>dir_273a6d90137f48cfede6d096aadb8ab2</title>
<g id="a_node2"><a xlink:href="dir_273a6d90137f48cfede6d096aadb8ab2.html" target="_top" xlink:title="Elements">
<polygon fill="#edf0f7" stroke="#404040" stroke-width="2" points="78,-124 16,-124 16,-88 78,-88 78,-124"/>
<text text-anchor="middle" x="47" y="-103.5" font-family="Helvetica,sans-Serif" font-size="10.00">Elements</text>
</a>
</g>
</g>
<!-- dir_273a6d90137f48cfede6d096aadb8ab2&#45;&gt;dir_0fe539761940b9854e54b3f9f72adf5a -->
<g id="edge1" class="edge">
<title>dir_273a6d90137f48cfede6d096aadb8ab2&#45;&gt;dir_0fe539761940b9854e54b3f9f72adf5a</title>
<path fill="none" stroke="black" d="M47,-87.7C47,-79.98 47,-70.71 47,-62.11"/>
<polygon fill="black" stroke="black" points="50.5,-62.1 47,-52.1 43.5,-62.1 50.5,-62.1"/>
<g id="a_edge1&#45;headlabel"><a xlink:href="dir_000026_000122.html" target="_top" xlink:title="2">
<text text-anchor="middle" x="53.34" y="-63.2" font-family="Helvetica,sans-Serif" font-size="10.00">2</text>
</a>
</g>
</g>
<!-- dir_4ebb9cf478835123b919db691d6366a3 -->
<g id="node3" class="node">
<title>dir_4ebb9cf478835123b919db691d6366a3</title>
<g id="a_node3"><a xlink:href="dir_4ebb9cf478835123b919db691d6366a3.html" target="_top" xlink:title="Kernel">
<polygon fill="none" stroke="red" stroke-dasharray="5,2" points="148,-52 94,-52 94,-16 148,-16 148,-52"/>
<text text-anchor="middle" x="121" y="-31.5" font-family="Helvetica,sans-Serif" font-size="10.00">Kernel</text>
</a>
</g>
</g>
<!-- dir_273a6d90137f48cfede6d096aadb8ab2&#45;&gt;dir_4ebb9cf478835123b919db691d6366a3 -->
<g id="edge2" class="edge">
<title>dir_273a6d90137f48cfede6d096aadb8ab2&#45;&gt;dir_4ebb9cf478835123b919db691d6366a3</title>
<path fill="none" stroke="black" d="M65.29,-87.7C74.43,-79.05 85.64,-68.45 95.6,-59.03"/>
<polygon fill="black" stroke="black" points="98.06,-61.52 102.92,-52.1 93.25,-56.43 98.06,-61.52"/>
<g id="a_edge2&#45;headlabel"><a xlink:href="dir_000026_000046.html" target="_top" xlink:title="3">
<text text-anchor="middle" x="97.4" y="-63.55" font-family="Helvetica,sans-Serif" font-size="10.00">3</text>
</a>
</g>
</g>
</g>
</svg>
