<?xml version="1.0" encoding="UTF-8" standalone="no"?>
<!DOCTYPE svg PUBLIC "-//W3C//DTD SVG 1.1//EN"
 "http://www.w3.org/Graphics/SVG/1.1/DTD/svg11.dtd">
<!-- Generated by graphviz version 2.43.0 (0)
 -->
<!-- Title: src/ThHyd/Dilatable/Common/Cond_Lim Pages: 1 -->
<svg width="342pt" height="167pt"
 viewBox="0.00 0.00 341.50 167.00" xmlns="http://www.w3.org/2000/svg" xmlns:xlink="http://www.w3.org/1999/xlink">
<g id="graph0" class="graph" transform="scale(1 1) rotate(0) translate(4 163)">
<title>src/ThHyd/Dilatable/Common/Cond_Lim</title>
<polygon fill="white" stroke="transparent" points="-4,4 -4,-163 337.5,-163 337.5,4 -4,4"/>
<g id="clust1" class="cluster">
<title>clusterdir_34af9566fa953ec4d674e053f3791c3c</title>
<g id="a_clust1"><a xlink:href="dir_34af9566fa953ec4d674e053f3791c3c.html" target="_top" xlink:title="Common">
<polygon fill="#edf0f7" stroke="#7f7f7f" stroke-dasharray="5,2" points="8,-8 8,-151 90,-151 90,-8 8,-8"/>
<text text-anchor="middle" x="49" y="-139" font-family="Helvetica,sans-Serif" font-size="10.00">Common</text>
</a>
</g>
</g>
<!-- dir_554acddbd47a939aa4f4726d36f3573e -->
<g id="node1" class="node">
<title>dir_554acddbd47a939aa4f4726d36f3573e</title>
<g id="a_node1"><a xlink:href="dir_554acddbd47a939aa4f4726d36f3573e.html" target="_top" xlink:title="Milieu">
<polygon fill="#a2b4d6" stroke="#404040" points="76,-52 22,-52 22,-16 76,-16 76,-52"/>
<text text-anchor="middle" x="49" y="-31.5" font-family="Helvetica,sans-Serif" font-size="10.00">Milieu</text>
</a>
</g>
</g>
<!-- dir_412420084d20f27086da1ffb2563fe3f -->
<g id="node2" class="node">
<title>dir_412420084d20f27086da1ffb2563fe3f</title>
<g id="a_node2"><a xlink:href="dir_412420084d20f27086da1ffb2563fe3f.html" target="_top" xlink:title="Cond_Lim">
<polygon fill="#edf0f7" stroke="#404040" stroke-width="2" points="81.5,-124 16.5,-124 16.5,-88 81.5,-88 81.5,-124"/>
<text text-anchor="middle" x="49" y="-103.5" font-family="Helvetica,sans-Serif" font-size="10.00">Cond_Lim</text>
</a>
</g>
</g>
<!-- dir_412420084d20f27086da1ffb2563fe3f&#45;&gt;dir_554acddbd47a939aa4f4726d36f3573e -->
<g id="edge4" class="edge">
<title>dir_412420084d20f27086da1ffb2563fe3f&#45;&gt;dir_554acddbd47a939aa4f4726d36f3573e</title>
<path fill="none" stroke="black" d="M49,-87.7C49,-79.98 49,-70.71 49,-62.11"/>
<polygon fill="black" stroke="black" points="52.5,-62.1 49,-52.1 45.5,-62.1 52.5,-62.1"/>
<g id="a_edge4&#45;headlabel"><a xlink:href="dir_000016_000054.html" target="_top" xlink:title="10">
<text text-anchor="middle" x="55.34" y="-63.2" font-family="Helvetica,sans-Serif" font-size="10.00">10</text>
</a>
</g>
</g>
<!-- dir_13693299dd61556dbbda8b8a807dfaab -->
<g id="node3" class="node">
<title>dir_13693299dd61556dbbda8b8a807dfaab</title>
<g id="a_node3"><a xlink:href="dir_13693299dd61556dbbda8b8a807dfaab.html" target="_top" xlink:title="ThSol">
<polygon fill="none" stroke="#7f7f7f" points="152,-52 98,-52 98,-16 152,-16 152,-52"/>
<text text-anchor="middle" x="125" y="-31.5" font-family="Helvetica,sans-Serif" font-size="10.00">ThSol</text>
</a>
</g>
</g>
<!-- dir_412420084d20f27086da1ffb2563fe3f&#45;&gt;dir_13693299dd61556dbbda8b8a807dfaab -->
<g id="edge1" class="edge">
<title>dir_412420084d20f27086da1ffb2563fe3f&#45;&gt;dir_13693299dd61556dbbda8b8a807dfaab</title>
<path fill="none" stroke="black" d="M67.79,-87.7C77.17,-79.05 88.68,-68.45 98.91,-59.03"/>
<polygon fill="black" stroke="black" points="101.45,-61.45 106.43,-52.1 96.7,-56.3 101.45,-61.45"/>
<g id="a_edge1&#45;headlabel"><a xlink:href="dir_000016_000102.html" target="_top" xlink:title="1">
<text text-anchor="middle" x="100.72" y="-63.48" font-family="Helvetica,sans-Serif" font-size="10.00">1</text>
</a>
</g>
</g>
<!-- dir_4ebb9cf478835123b919db691d6366a3 -->
<g id="node4" class="node">
<title>dir_4ebb9cf478835123b919db691d6366a3</title>
<g id="a_node4"><a xlink:href="dir_4ebb9cf478835123b919db691d6366a3.html" target="_top" xlink:title="Kernel">
<polygon fill="none" stroke="red" stroke-dasharray="5,2" points="224,-52 170,-52 170,-16 224,-16 224,-52"/>
<text text-anchor="middle" x="197" y="-31.5" font-family="Helvetica,sans-Serif" font-size="10.00">Kernel</text>
</a>
</g>
</g>
<!-- dir_412420084d20f27086da1ffb2563fe3f&#45;&gt;dir_4ebb9cf478835123b919db691d6366a3 -->
<g id="edge2" class="edge">
<title>dir_412420084d20f27086da1ffb2563fe3f&#45;&gt;dir_4ebb9cf478835123b919db691d6366a3</title>
<path fill="none" stroke="black" d="M81.85,-89.46C105.15,-78.44 136.44,-63.64 160.52,-52.25"/>
<polygon fill="black" stroke="black" points="162.15,-55.35 169.7,-47.91 159.16,-49.02 162.15,-55.35"/>
<g id="a_edge2&#45;headlabel"><a xlink:href="dir_000016_000046.html" target="_top" xlink:title="11">
<text text-anchor="middle" x="160.12" y="-56.96" font-family="Helvetica,sans-Serif" font-size="10.00">11</text>
</a>
</g>
</g>
<!-- dir_51a21c0b7437cb7a9315edf40b46e55a -->
<g id="node5" class="node">
<title>dir_51a21c0b7437cb7a9315edf40b46e55a</title>
<g id="a_node5"><a xlink:href="dir_51a21c0b7437cb7a9315edf40b46e55a.html" target="_top" xlink:title="Incompressible">
<polygon fill="none" stroke="red" stroke-dasharray="5,2" points="333.5,-52 242.5,-52 242.5,-16 333.5,-16 333.5,-52"/>
<text text-anchor="middle" x="288" y="-31.5" font-family="Helvetica,sans-Serif" font-size="10.00">Incompressible</text>
</a>
</g>
</g>
<!-- dir_412420084d20f27086da1ffb2563fe3f&#45;&gt;dir_51a21c0b7437cb7a9315edf40b46e55a -->
<g id="edge3" class="edge">
<title>dir_412420084d20f27086da1ffb2563fe3f&#45;&gt;dir_51a21c0b7437cb7a9315edf40b46e55a</title>
<path fill="none" stroke="black" d="M81.63,-95.81C116.51,-85.93 173.69,-69.62 232.56,-52.1"/>
<polygon fill="black" stroke="black" points="233.82,-55.38 242.4,-49.17 231.82,-48.67 233.82,-55.38"/>
<g id="a_edge3&#45;headlabel"><a xlink:href="dir_000016_000041.html" target="_top" xlink:title="4">
<text text-anchor="middle" x="231.19" y="-56.63" font-family="Helvetica,sans-Serif" font-size="10.00">4</text>
</a>
</g>
</g>
</g>
</svg>
