<?xml version="1.0" encoding="UTF-8" standalone="no"?>
<!DOCTYPE svg PUBLIC "-//W3C//DTD SVG 1.1//EN"
 "http://www.w3.org/Graphics/SVG/1.1/DTD/svg11.dtd">
<!-- Generated by graphviz version 2.43.0 (0)
 -->
<!-- Title: src/VDF/Operateurs/Eval_Diff_Dift Pages: 1 -->
<svg width="480pt" height="167pt"
 viewBox="0.00 0.00 479.50 167.00" xmlns="http://www.w3.org/2000/svg" xmlns:xlink="http://www.w3.org/1999/xlink">
<g id="graph0" class="graph" transform="scale(1 1) rotate(0) translate(4 163)">
<title>src/VDF/Operateurs/Eval_Diff_Dift</title>
<polygon fill="white" stroke="transparent" points="-4,4 -4,-163 475.5,-163 475.5,4 -4,4"/>
<g id="clust1" class="cluster">
<title>clusterdir_b997c7237227ba6ac7dbb3b0dcd5abb6</title>
<g id="a_clust1"><a xlink:href="dir_b997c7237227ba6ac7dbb3b0dcd5abb6.html" target="_top" xlink:title="Operateurs">
<polygon fill="#edf0f7" stroke="#7f7f7f" stroke-dasharray="5,2" points="8,-8 8,-151 108,-151 108,-8 8,-8"/>
<text text-anchor="middle" x="58" y="-139" font-family="Helvetica,sans-Serif" font-size="10.00">Operateurs</text>
</a>
</g>
</g>
<!-- dir_a91ee8bb42f03e91640e187cda3f14f9 -->
<g id="node1" class="node">
<title>dir_a91ee8bb42f03e91640e187cda3f14f9</title>
<g id="a_node1"><a xlink:href="dir_a91ee8bb42f03e91640e187cda3f14f9.html" target="_top" xlink:title="Eval_Divers">
<polygon fill="#a2b4d6" stroke="#404040" points="95,-52 21,-52 21,-16 95,-16 95,-52"/>
<text text-anchor="middle" x="58" y="-31.5" font-family="Helvetica,sans-Serif" font-size="10.00">Eval_Divers</text>
</a>
</g>
</g>
<!-- dir_1c7744b8583e66b25da22a55e5a85b12 -->
<g id="node2" class="node">
<title>dir_1c7744b8583e66b25da22a55e5a85b12</title>
<g id="a_node2"><a xlink:href="dir_1c7744b8583e66b25da22a55e5a85b12.html" target="_top" xlink:title="Eval_Diff_Dift">
<polygon fill="#edf0f7" stroke="#404040" stroke-width="2" points="99.5,-124 16.5,-124 16.5,-88 99.5,-88 99.5,-124"/>
<text text-anchor="middle" x="58" y="-103.5" font-family="Helvetica,sans-Serif" font-size="10.00">Eval_Diff_Dift</text>
</a>
</g>
</g>
<!-- dir_1c7744b8583e66b25da22a55e5a85b12&#45;&gt;dir_a91ee8bb42f03e91640e187cda3f14f9 -->
<g id="edge4" class="edge">
<title>dir_1c7744b8583e66b25da22a55e5a85b12&#45;&gt;dir_a91ee8bb42f03e91640e187cda3f14f9</title>
<path fill="none" stroke="black" d="M58,-87.7C58,-79.98 58,-70.71 58,-62.11"/>
<polygon fill="black" stroke="black" points="61.5,-62.1 58,-52.1 54.5,-62.1 61.5,-62.1"/>
<g id="a_edge4&#45;headlabel"><a xlink:href="dir_000033_000034.html" target="_top" xlink:title="5">
<text text-anchor="middle" x="64.34" y="-63.2" font-family="Helvetica,sans-Serif" font-size="10.00">5</text>
</a>
</g>
</g>
<!-- dir_0197979fff557feda0433ec01d8934c3 -->
<g id="node3" class="node">
<title>dir_0197979fff557feda0433ec01d8934c3</title>
<g id="a_node3"><a xlink:href="dir_0197979fff557feda0433ec01d8934c3.html" target="_top" xlink:title="Champs">
<polygon fill="none" stroke="#7f7f7f" points="172,-52 116,-52 116,-16 172,-16 172,-52"/>
<text text-anchor="middle" x="144" y="-31.5" font-family="Helvetica,sans-Serif" font-size="10.00">Champs</text>
</a>
</g>
</g>
<!-- dir_1c7744b8583e66b25da22a55e5a85b12&#45;&gt;dir_0197979fff557feda0433ec01d8934c3 -->
<g id="edge1" class="edge">
<title>dir_1c7744b8583e66b25da22a55e5a85b12&#45;&gt;dir_0197979fff557feda0433ec01d8934c3</title>
<path fill="none" stroke="black" d="M79.26,-87.7C90.09,-78.88 103.42,-68.03 115.16,-58.47"/>
<polygon fill="black" stroke="black" points="117.44,-61.13 122.99,-52.1 113.02,-55.7 117.44,-61.13"/>
<g id="a_edge1&#45;headlabel"><a xlink:href="dir_000033_000007.html" target="_top" xlink:title="1">
<text text-anchor="middle" x="116.44" y="-63.1" font-family="Helvetica,sans-Serif" font-size="10.00">1</text>
</a>
</g>
</g>
<!-- dir_0fe539761940b9854e54b3f9f72adf5a -->
<g id="node4" class="node">
<title>dir_0fe539761940b9854e54b3f9f72adf5a</title>
<g id="a_node4"><a xlink:href="dir_0fe539761940b9854e54b3f9f72adf5a.html" target="_top" xlink:title="Zones">
<polygon fill="none" stroke="#7f7f7f" points="244,-52 190,-52 190,-16 244,-16 244,-52"/>
<text text-anchor="middle" x="217" y="-31.5" font-family="Helvetica,sans-Serif" font-size="10.00">Zones</text>
</a>
</g>
</g>
<!-- dir_1c7744b8583e66b25da22a55e5a85b12&#45;&gt;dir_0fe539761940b9854e54b3f9f72adf5a -->
<g id="edge2" class="edge">
<title>dir_1c7744b8583e66b25da22a55e5a85b12&#45;&gt;dir_0fe539761940b9854e54b3f9f72adf5a</title>
<path fill="none" stroke="black" d="M98.59,-87.92C120.58,-78.58 148.38,-66.61 180.69,-52.08"/>
<polygon fill="black" stroke="black" points="182.25,-55.22 189.92,-47.91 179.37,-48.84 182.25,-55.22"/>
<g id="a_edge2&#45;headlabel"><a xlink:href="dir_000033_000122.html" target="_top" xlink:title="5">
<text text-anchor="middle" x="180.14" y="-56.78" font-family="Helvetica,sans-Serif" font-size="10.00">5</text>
</a>
</g>
</g>
<!-- dir_4ebb9cf478835123b919db691d6366a3 -->
<g id="node5" class="node">
<title>dir_4ebb9cf478835123b919db691d6366a3</title>
<g id="a_node5"><a xlink:href="dir_4ebb9cf478835123b919db691d6366a3.html" target="_top" xlink:title="Kernel">
<polygon fill="none" stroke="red" stroke-dasharray="5,2" points="316,-52 262,-52 262,-16 316,-16 316,-52"/>
<text text-anchor="middle" x="289" y="-31.5" font-family="Helvetica,sans-Serif" font-size="10.00">Kernel</text>
</a>
</g>
</g>
<!-- dir_1c7744b8583e66b25da22a55e5a85b12&#45;&gt;dir_4ebb9cf478835123b919db691d6366a3 -->
<g id="edge3" class="edge">
<title>dir_1c7744b8583e66b25da22a55e5a85b12&#45;&gt;dir_4ebb9cf478835123b919db691d6366a3</title>
<path fill="none" stroke="black" d="M99.75,-95.9C137.58,-87.16 194.88,-72.69 252.14,-52.01"/>
<polygon fill="black" stroke="black" points="253.52,-55.23 261.7,-48.5 251.1,-48.66 253.52,-55.23"/>
<g id="a_edge3&#45;headlabel"><a xlink:href="dir_000033_000046.html" target="_top" xlink:title="26">
<text text-anchor="middle" x="251.12" y="-56.64" font-family="Helvetica,sans-Serif" font-size="10.00">26</text>
</a>
</g>
</g>
<!-- dir_b91833fa2d528be7aecedeb7fe4eea36 -->
<g id="node6" class="node">
<title>dir_b91833fa2d528be7aecedeb7fe4eea36</title>
<g id="a_node6"><a xlink:href="dir_b91833fa2d528be7aecedeb7fe4eea36.html" target="_top" xlink:title="ThHyd">
<polygon fill="none" stroke="red" stroke-dasharray="5,2" points="388,-52 334,-52 334,-16 388,-16 388,-52"/>
<text text-anchor="middle" x="361" y="-31.5" font-family="Helvetica,sans-Serif" font-size="10.00">ThHyd</text>
</a>
</g>
</g>
<!-- dir_1c7744b8583e66b25da22a55e5a85b12&#45;&gt;dir_b91833fa2d528be7aecedeb7fe4eea36 -->
<g id="edge5" class="edge">
<title>dir_1c7744b8583e66b25da22a55e5a85b12&#45;&gt;dir_b91833fa2d528be7aecedeb7fe4eea36</title>
<path fill="none" stroke="black" d="M99.51,-99.97C150.74,-93.07 240.39,-78.72 324.12,-51.87"/>
<polygon fill="black" stroke="black" points="325.35,-55.15 333.77,-48.71 323.17,-48.49 325.35,-55.15"/>
<g id="a_edge5&#45;headlabel"><a xlink:href="dir_000033_000101.html" target="_top" xlink:title="6">
<text text-anchor="middle" x="322.82" y="-56.46" font-family="Helvetica,sans-Serif" font-size="10.00">6</text>
</a>
</g>
</g>
<!-- dir_c634a2e9fd6c43191e1ba3ab82cd5cdd -->
<g id="node7" class="node">
<title>dir_c634a2e9fd6c43191e1ba3ab82cd5cdd</title>
<g id="a_node7"><a xlink:href="dir_c634a2e9fd6c43191e1ba3ab82cd5cdd.html" target="_top" xlink:title="Cond_Lim">
<polygon fill="none" stroke="#7f7f7f" points="471.5,-52 406.5,-52 406.5,-16 471.5,-16 471.5,-52"/>
<text text-anchor="middle" x="439" y="-31.5" font-family="Helvetica,sans-Serif" font-size="10.00">Cond_Lim</text>
</a>
</g>
</g>
<!-- dir_1c7744b8583e66b25da22a55e5a85b12&#45;&gt;dir_c634a2e9fd6c43191e1ba3ab82cd5cdd -->
<g id="edge6" class="edge">
<title>dir_1c7744b8583e66b25da22a55e5a85b12&#45;&gt;dir_c634a2e9fd6c43191e1ba3ab82cd5cdd</title>
<path fill="none" stroke="black" d="M99.61,-101.59C162.37,-95.79 284.88,-81.84 396.5,-51.76"/>
<polygon fill="black" stroke="black" points="397.52,-55.12 406.23,-49.09 395.66,-48.37 397.52,-55.12"/>
<g id="a_edge6&#45;headlabel"><a xlink:href="dir_000033_000019.html" target="_top" xlink:title="1">
<text text-anchor="middle" x="394.8" y="-56.31" font-family="Helvetica,sans-Serif" font-size="10.00">1</text>
</a>
</g>
</g>
</g>
</svg>
