<?xml version="1.0" encoding="UTF-8" standalone="no"?>
<!DOCTYPE svg PUBLIC "-//W3C//DTD SVG 1.1//EN"
 "http://www.w3.org/Graphics/SVG/1.1/DTD/svg11.dtd">
<!-- Generated by graphviz version 2.43.0 (0)
 -->
<!-- Title: src/VDF/Solveurs Pages: 1 -->
<svg width="296pt" height="167pt"
 viewBox="0.00 0.00 296.00 167.00" xmlns="http://www.w3.org/2000/svg" xmlns:xlink="http://www.w3.org/1999/xlink">
<g id="graph0" class="graph" transform="scale(1 1) rotate(0) translate(4 163)">
<title>src/VDF/Solveurs</title>
<polygon fill="white" stroke="transparent" points="-4,4 -4,-163 292,-163 292,4 -4,4"/>
<g id="clust1" class="cluster">
<title>clusterdir_f999ad8736097ebdc524243ad7f1213b</title>
<g id="a_clust1"><a xlink:href="dir_f999ad8736097ebdc524243ad7f1213b.html" target="_top" xlink:title="VDF">
<polygon fill="#edf0f7" stroke="#7f7f7f" stroke-dasharray="5,2" points="8,-8 8,-151 152,-151 152,-8 8,-8"/>
<text text-anchor="middle" x="80" y="-139" font-family="Helvetica,sans-Serif" font-size="10.00">VDF</text>
</a>
</g>
</g>
<!-- dir_0197979fff557feda0433ec01d8934c3 -->
<g id="node1" class="node">
<title>dir_0197979fff557feda0433ec01d8934c3</title>
<g id="a_node1"><a xlink:href="dir_0197979fff557feda0433ec01d8934c3.html" target="_top" xlink:title="Champs">
<polygon fill="#a2b4d6" stroke="#404040" points="72,-52 16,-52 16,-16 72,-16 72,-52"/>
<text text-anchor="middle" x="44" y="-31.5" font-family="Helvetica,sans-Serif" font-size="10.00">Champs</text>
</a>
</g>
</g>
<!-- dir_0fe539761940b9854e54b3f9f72adf5a -->
<g id="node2" class="node">
<title>dir_0fe539761940b9854e54b3f9f72adf5a</title>
<g id="a_node2"><a xlink:href="dir_0fe539761940b9854e54b3f9f72adf5a.html" target="_top" xlink:title="Zones">
<polygon fill="#a2b4d6" stroke="#404040" points="144,-52 90,-52 90,-16 144,-16 144,-52"/>
<text text-anchor="middle" x="117" y="-31.5" font-family="Helvetica,sans-Serif" font-size="10.00">Zones</text>
</a>
</g>
</g>
<!-- dir_bc4ffc0cacce4978ffaa1a5dd64c4cc2 -->
<g id="node3" class="node">
<title>dir_bc4ffc0cacce4978ffaa1a5dd64c4cc2</title>
<g id="a_node3"><a xlink:href="dir_bc4ffc0cacce4978ffaa1a5dd64c4cc2.html" target="_top" xlink:title="Solveurs">
<polygon fill="#edf0f7" stroke="#404040" stroke-width="2" points="143.5,-124 84.5,-124 84.5,-88 143.5,-88 143.5,-124"/>
<text text-anchor="middle" x="114" y="-103.5" font-family="Helvetica,sans-Serif" font-size="10.00">Solveurs</text>
</a>
</g>
</g>
<!-- dir_bc4ffc0cacce4978ffaa1a5dd64c4cc2&#45;&gt;dir_0197979fff557feda0433ec01d8934c3 -->
<g id="edge1" class="edge">
<title>dir_bc4ffc0cacce4978ffaa1a5dd64c4cc2&#45;&gt;dir_0197979fff557feda0433ec01d8934c3</title>
<path fill="none" stroke="black" d="M96.7,-87.7C88.14,-79.14 77.66,-68.66 68.3,-59.3"/>
<polygon fill="black" stroke="black" points="70.65,-56.7 61.1,-52.1 65.7,-61.65 70.65,-56.7"/>
<g id="a_edge1&#45;headlabel"><a xlink:href="dir_000086_000007.html" target="_top" xlink:title="1">
<text text-anchor="middle" x="75.2" y="-54.73" font-family="Helvetica,sans-Serif" font-size="10.00">1</text>
</a>
</g>
</g>
<!-- dir_bc4ffc0cacce4978ffaa1a5dd64c4cc2&#45;&gt;dir_0fe539761940b9854e54b3f9f72adf5a -->
<g id="edge2" class="edge">
<title>dir_bc4ffc0cacce4978ffaa1a5dd64c4cc2&#45;&gt;dir_0fe539761940b9854e54b3f9f72adf5a</title>
<path fill="none" stroke="black" d="M114.74,-87.7C115.07,-79.98 115.47,-70.71 115.84,-62.11"/>
<polygon fill="black" stroke="black" points="119.34,-62.25 116.27,-52.1 112.34,-61.95 119.34,-62.25"/>
<g id="a_edge2&#45;headlabel"><a xlink:href="dir_000086_000122.html" target="_top" xlink:title="16">
<text text-anchor="middle" x="122.02" y="-63.46" font-family="Helvetica,sans-Serif" font-size="10.00">16</text>
</a>
</g>
</g>
<!-- dir_4ebb9cf478835123b919db691d6366a3 -->
<g id="node4" class="node">
<title>dir_4ebb9cf478835123b919db691d6366a3</title>
<g id="a_node4"><a xlink:href="dir_4ebb9cf478835123b919db691d6366a3.html" target="_top" xlink:title="Kernel">
<polygon fill="none" stroke="red" stroke-dasharray="5,2" points="216,-52 162,-52 162,-16 216,-16 216,-52"/>
<text text-anchor="middle" x="189" y="-31.5" font-family="Helvetica,sans-Serif" font-size="10.00">Kernel</text>
</a>
</g>
</g>
<!-- dir_bc4ffc0cacce4978ffaa1a5dd64c4cc2&#45;&gt;dir_4ebb9cf478835123b919db691d6366a3 -->
<g id="edge3" class="edge">
<title>dir_bc4ffc0cacce4978ffaa1a5dd64c4cc2&#45;&gt;dir_4ebb9cf478835123b919db691d6366a3</title>
<path fill="none" stroke="black" d="M132.54,-87.7C141.8,-79.05 153.16,-68.45 163.26,-59.03"/>
<polygon fill="black" stroke="black" points="165.75,-61.49 170.67,-52.1 160.98,-56.37 165.75,-61.49"/>
<g id="a_edge3&#45;headlabel"><a xlink:href="dir_000086_000046.html" target="_top" xlink:title="21">
<text text-anchor="middle" x="165.06" y="-63.51" font-family="Helvetica,sans-Serif" font-size="10.00">21</text>
</a>
</g>
</g>
<!-- dir_b91833fa2d528be7aecedeb7fe4eea36 -->
<g id="node5" class="node">
<title>dir_b91833fa2d528be7aecedeb7fe4eea36</title>
<g id="a_node5"><a xlink:href="dir_b91833fa2d528be7aecedeb7fe4eea36.html" target="_top" xlink:title="ThHyd">
<polygon fill="none" stroke="red" stroke-dasharray="5,2" points="288,-52 234,-52 234,-16 288,-16 288,-52"/>
<text text-anchor="middle" x="261" y="-31.5" font-family="Helvetica,sans-Serif" font-size="10.00">ThHyd</text>
</a>
</g>
</g>
<!-- dir_bc4ffc0cacce4978ffaa1a5dd64c4cc2&#45;&gt;dir_b91833fa2d528be7aecedeb7fe4eea36 -->
<g id="edge4" class="edge">
<title>dir_bc4ffc0cacce4978ffaa1a5dd64c4cc2&#45;&gt;dir_b91833fa2d528be7aecedeb7fe4eea36</title>
<path fill="none" stroke="black" d="M143.75,-90.83C167.11,-79.71 199.73,-64.17 224.64,-52.31"/>
<polygon fill="black" stroke="black" points="226.25,-55.42 233.78,-47.96 223.24,-49.1 226.25,-55.42"/>
<g id="a_edge4&#45;headlabel"><a xlink:href="dir_000086_000101.html" target="_top" xlink:title="3">
<text text-anchor="middle" x="224.23" y="-57.03" font-family="Helvetica,sans-Serif" font-size="10.00">3</text>
</a>
</g>
</g>
</g>
</svg>
