<?xml version="1.0" encoding="UTF-8" standalone="no"?>
<!DOCTYPE svg PUBLIC "-//W3C//DTD SVG 1.1//EN"
 "http://www.w3.org/Graphics/SVG/1.1/DTD/svg11.dtd">
<!-- Generated by graphviz version 2.43.0 (0)
 -->
<!-- Title: src/P1NCP1B/Operateurs Pages: 1 -->
<svg width="440pt" height="167pt"
 viewBox="0.00 0.00 440.00 167.00" xmlns="http://www.w3.org/2000/svg" xmlns:xlink="http://www.w3.org/1999/xlink">
<g id="graph0" class="graph" transform="scale(1 1) rotate(0) translate(4 163)">
<title>src/P1NCP1B/Operateurs</title>
<polygon fill="white" stroke="transparent" points="-4,4 -4,-163 436,-163 436,4 -4,4"/>
<g id="clust1" class="cluster">
<title>clusterdir_4d89ae13008c55530f0314bd22416f9b</title>
<g id="a_clust1"><a xlink:href="dir_4d89ae13008c55530f0314bd22416f9b.html" target="_top" xlink:title="P1NCP1B">
<polygon fill="#edf0f7" stroke="#7f7f7f" stroke-dasharray="5,2" points="8,-8 8,-151 152,-151 152,-8 8,-8"/>
<text text-anchor="middle" x="80" y="-139" font-family="Helvetica,sans-Serif" font-size="10.00">P1NCP1B</text>
</a>
</g>
</g>
<!-- dir_14d0515db4d3ac51ae39b8b02c860b69 -->
<g id="node1" class="node">
<title>dir_14d0515db4d3ac51ae39b8b02c860b69</title>
<g id="a_node1"><a xlink:href="dir_14d0515db4d3ac51ae39b8b02c860b69.html" target="_top" xlink:title="Champs">
<polygon fill="#a2b4d6" stroke="#404040" points="72,-52 16,-52 16,-16 72,-16 72,-52"/>
<text text-anchor="middle" x="44" y="-31.5" font-family="Helvetica,sans-Serif" font-size="10.00">Champs</text>
</a>
</g>
</g>
<!-- dir_f5e4962bc8977be13dc1281e51902dcf -->
<g id="node2" class="node">
<title>dir_f5e4962bc8977be13dc1281e51902dcf</title>
<g id="a_node2"><a xlink:href="dir_f5e4962bc8977be13dc1281e51902dcf.html" target="_top" xlink:title="Zones">
<polygon fill="#a2b4d6" stroke="#404040" points="144,-52 90,-52 90,-16 144,-16 144,-52"/>
<text text-anchor="middle" x="117" y="-31.5" font-family="Helvetica,sans-Serif" font-size="10.00">Zones</text>
</a>
</g>
</g>
<!-- dir_ee7d4715bf16e434905d0999ba6f3c22 -->
<g id="node3" class="node">
<title>dir_ee7d4715bf16e434905d0999ba6f3c22</title>
<g id="a_node3"><a xlink:href="dir_ee7d4715bf16e434905d0999ba6f3c22.html" target="_top" xlink:title="Operateurs">
<polygon fill="#edf0f7" stroke="#404040" stroke-width="2" points="143.5,-124 72.5,-124 72.5,-88 143.5,-88 143.5,-124"/>
<text text-anchor="middle" x="108" y="-103.5" font-family="Helvetica,sans-Serif" font-size="10.00">Operateurs</text>
</a>
</g>
</g>
<!-- dir_ee7d4715bf16e434905d0999ba6f3c22&#45;&gt;dir_14d0515db4d3ac51ae39b8b02c860b69 -->
<g id="edge2" class="edge">
<title>dir_ee7d4715bf16e434905d0999ba6f3c22&#45;&gt;dir_14d0515db4d3ac51ae39b8b02c860b69</title>
<path fill="none" stroke="black" d="M92.18,-87.7C84.43,-79.22 74.96,-68.86 66.48,-59.58"/>
<polygon fill="black" stroke="black" points="68.97,-57.12 59.64,-52.1 63.8,-61.85 68.97,-57.12"/>
<g id="a_edge2&#45;headlabel"><a xlink:href="dir_000067_000004.html" target="_top" xlink:title="4">
<text text-anchor="middle" x="73.49" y="-55.36" font-family="Helvetica,sans-Serif" font-size="10.00">4</text>
</a>
</g>
</g>
<!-- dir_ee7d4715bf16e434905d0999ba6f3c22&#45;&gt;dir_f5e4962bc8977be13dc1281e51902dcf -->
<g id="edge6" class="edge">
<title>dir_ee7d4715bf16e434905d0999ba6f3c22&#45;&gt;dir_f5e4962bc8977be13dc1281e51902dcf</title>
<path fill="none" stroke="black" d="M110.22,-87.7C111.22,-79.98 112.41,-70.71 113.51,-62.11"/>
<polygon fill="black" stroke="black" points="117,-62.47 114.8,-52.1 110.05,-61.58 117,-62.47"/>
<g id="a_edge6&#45;headlabel"><a xlink:href="dir_000067_000120.html" target="_top" xlink:title="12">
<text text-anchor="middle" x="119.35" y="-63.9" font-family="Helvetica,sans-Serif" font-size="10.00">12</text>
</a>
</g>
</g>
<!-- dir_13693299dd61556dbbda8b8a807dfaab -->
<g id="node4" class="node">
<title>dir_13693299dd61556dbbda8b8a807dfaab</title>
<g id="a_node4"><a xlink:href="dir_13693299dd61556dbbda8b8a807dfaab.html" target="_top" xlink:title="ThSol">
<polygon fill="none" stroke="#7f7f7f" points="216,-52 162,-52 162,-16 216,-16 216,-52"/>
<text text-anchor="middle" x="189" y="-31.5" font-family="Helvetica,sans-Serif" font-size="10.00">ThSol</text>
</a>
</g>
</g>
<!-- dir_ee7d4715bf16e434905d0999ba6f3c22&#45;&gt;dir_13693299dd61556dbbda8b8a807dfaab -->
<g id="edge1" class="edge">
<title>dir_ee7d4715bf16e434905d0999ba6f3c22&#45;&gt;dir_13693299dd61556dbbda8b8a807dfaab</title>
<path fill="none" stroke="black" d="M128.02,-87.7C138.13,-78.97 150.54,-68.24 161.52,-58.75"/>
<polygon fill="black" stroke="black" points="163.93,-61.29 169.21,-52.1 159.35,-55.99 163.93,-61.29"/>
<g id="a_edge1&#45;headlabel"><a xlink:href="dir_000067_000102.html" target="_top" xlink:title="2">
<text text-anchor="middle" x="163.07" y="-63.29" font-family="Helvetica,sans-Serif" font-size="10.00">2</text>
</a>
</g>
</g>
<!-- dir_2bf20327eb8d166f9acb0c9b72854f51 -->
<g id="node5" class="node">
<title>dir_2bf20327eb8d166f9acb0c9b72854f51</title>
<g id="a_node5"><a xlink:href="dir_2bf20327eb8d166f9acb0c9b72854f51.html" target="_top" xlink:title="VEF">
<polygon fill="none" stroke="red" stroke-dasharray="5,2" points="288,-52 234,-52 234,-16 288,-16 288,-52"/>
<text text-anchor="middle" x="261" y="-31.5" font-family="Helvetica,sans-Serif" font-size="10.00">VEF</text>
</a>
</g>
</g>
<!-- dir_ee7d4715bf16e434905d0999ba6f3c22&#45;&gt;dir_2bf20327eb8d166f9acb0c9b72854f51 -->
<g id="edge3" class="edge">
<title>dir_ee7d4715bf16e434905d0999ba6f3c22&#45;&gt;dir_2bf20327eb8d166f9acb0c9b72854f51</title>
<path fill="none" stroke="black" d="M143.65,-89.03C164.87,-79.48 192.52,-66.97 224.7,-52.11"/>
<polygon fill="black" stroke="black" points="226.29,-55.23 233.89,-47.86 223.35,-48.88 226.29,-55.23"/>
<g id="a_edge3&#45;headlabel"><a xlink:href="dir_000067_000115.html" target="_top" xlink:title="21">
<text text-anchor="middle" x="224.22" y="-56.82" font-family="Helvetica,sans-Serif" font-size="10.00">21</text>
</a>
</g>
</g>
<!-- dir_4ebb9cf478835123b919db691d6366a3 -->
<g id="node6" class="node">
<title>dir_4ebb9cf478835123b919db691d6366a3</title>
<g id="a_node6"><a xlink:href="dir_4ebb9cf478835123b919db691d6366a3.html" target="_top" xlink:title="Kernel">
<polygon fill="none" stroke="red" stroke-dasharray="5,2" points="360,-52 306,-52 306,-16 360,-16 360,-52"/>
<text text-anchor="middle" x="333" y="-31.5" font-family="Helvetica,sans-Serif" font-size="10.00">Kernel</text>
</a>
</g>
</g>
<!-- dir_ee7d4715bf16e434905d0999ba6f3c22&#45;&gt;dir_4ebb9cf478835123b919db691d6366a3 -->
<g id="edge4" class="edge">
<title>dir_ee7d4715bf16e434905d0999ba6f3c22&#45;&gt;dir_4ebb9cf478835123b919db691d6366a3</title>
<path fill="none" stroke="black" d="M143.75,-96.87C180.16,-88.18 238.26,-73.18 296.04,-52.06"/>
<polygon fill="black" stroke="black" points="297.53,-55.24 305.69,-48.48 295.09,-48.68 297.53,-55.24"/>
<g id="a_edge4&#45;headlabel"><a xlink:href="dir_000067_000046.html" target="_top" xlink:title="100">
<text text-anchor="middle" x="295.15" y="-56.66" font-family="Helvetica,sans-Serif" font-size="10.00">100</text>
</a>
</g>
</g>
<!-- dir_b91833fa2d528be7aecedeb7fe4eea36 -->
<g id="node7" class="node">
<title>dir_b91833fa2d528be7aecedeb7fe4eea36</title>
<g id="a_node7"><a xlink:href="dir_b91833fa2d528be7aecedeb7fe4eea36.html" target="_top" xlink:title="ThHyd">
<polygon fill="none" stroke="red" stroke-dasharray="5,2" points="432,-52 378,-52 378,-16 432,-16 432,-52"/>
<text text-anchor="middle" x="405" y="-31.5" font-family="Helvetica,sans-Serif" font-size="10.00">ThHyd</text>
</a>
</g>
</g>
<!-- dir_ee7d4715bf16e434905d0999ba6f3c22&#45;&gt;dir_b91833fa2d528be7aecedeb7fe4eea36 -->
<g id="edge5" class="edge">
<title>dir_ee7d4715bf16e434905d0999ba6f3c22&#45;&gt;dir_b91833fa2d528be7aecedeb7fe4eea36</title>
<path fill="none" stroke="black" d="M143.74,-100.52C192.79,-93.78 283.61,-79.16 368.03,-51.9"/>
<polygon fill="black" stroke="black" points="369.36,-55.15 377.76,-48.69 367.17,-48.5 369.36,-55.15"/>
<g id="a_edge5&#45;headlabel"><a xlink:href="dir_000067_000101.html" target="_top" xlink:title="8">
<text text-anchor="middle" x="366.84" y="-56.47" font-family="Helvetica,sans-Serif" font-size="10.00">8</text>
</a>
</g>
</g>
</g>
</svg>
