<?xml version="1.0" encoding="UTF-8" standalone="no"?>
<!DOCTYPE svg PUBLIC "-//W3C//DTD SVG 1.1//EN"
 "http://www.w3.org/Graphics/SVG/1.1/DTD/svg11.dtd">
<!-- Generated by graphviz version 2.43.0 (0)
 -->
<!-- Title: src/Kernel/Math Pages: 1 -->
<svg width="184pt" height="247pt"
 viewBox="0.00 0.00 184.00 247.00" xmlns="http://www.w3.org/2000/svg" xmlns:xlink="http://www.w3.org/1999/xlink">
<g id="graph0" class="graph" transform="scale(1 1) rotate(0) translate(4 243)">
<title>src/Kernel/Math</title>
<polygon fill="white" stroke="transparent" points="-4,4 -4,-243 180,-243 180,4 -4,4"/>
<g id="clust1" class="cluster">
<title>clusterdir_4ebb9cf478835123b919db691d6366a3</title>
<g id="a_clust1"><a xlink:href="dir_4ebb9cf478835123b919db691d6366a3.html" target="_top" xlink:title="Kernel">
<polygon fill="#edf0f7" stroke="#7f7f7f" stroke-dasharray="5,2" points="8,-8 8,-231 168,-231 168,-8 8,-8"/>
<text text-anchor="middle" x="88" y="-219" font-family="Helvetica,sans-Serif" font-size="10.00">Kernel</text>
</a>
</g>
</g>
<g id="clust2" class="cluster">
<title>clusterdir_65ad971e6c761419c1a7edd88c13347f</title>
<g id="a_clust2"><a xlink:href="dir_65ad971e6c761419c1a7edd88c13347f.html" target="_top">
<polygon fill="#edf0f7" stroke="#404040" stroke-width="2" points="16,-80 16,-204 160,-204 160,-80 16,-80"/>
</a>
</g>
</g>
<!-- dir_cdaacd66118cd3761cec6ba1adfb2dd4 -->
<g id="node1" class="node">
<title>dir_cdaacd66118cd3761cec6ba1adfb2dd4</title>
<g id="a_node1"><a xlink:href="dir_cdaacd66118cd3761cec6ba1adfb2dd4.html" target="_top" xlink:title="Utilitaires">
<polygon fill="#a2b4d6" stroke="#404040" points="135.5,-52 70.5,-52 70.5,-16 135.5,-16 135.5,-52"/>
<text text-anchor="middle" x="103" y="-31.5" font-family="Helvetica,sans-Serif" font-size="10.00">Utilitaires</text>
</a>
</g>
</g>
<!-- dir_65ad971e6c761419c1a7edd88c13347f -->
<g id="node2" class="node">
<title>dir_65ad971e6c761419c1a7edd88c13347f</title>
<text text-anchor="middle" x="125" y="-175.5" font-family="Helvetica,sans-Serif" font-size="10.00">Math</text>
</g>
<!-- dir_65ad971e6c761419c1a7edd88c13347f&#45;&gt;dir_cdaacd66118cd3761cec6ba1adfb2dd4 -->
<g id="edge1" class="edge">
<title>dir_65ad971e6c761419c1a7edd88c13347f&#45;&gt;dir_cdaacd66118cd3761cec6ba1adfb2dd4</title>
<path fill="none" stroke="black" d="M122.35,-159.87C118.6,-135.67 111.71,-91.21 107.24,-62.39"/>
<polygon fill="black" stroke="black" points="110.65,-61.54 105.66,-52.19 103.74,-62.61 110.65,-61.54"/>
<g id="a_edge1&#45;headlabel"><a xlink:href="dir_000051_000107.html" target="_top" xlink:title="99">
<text text-anchor="middle" x="114.01" y="-62.15" font-family="Helvetica,sans-Serif" font-size="10.00">99</text>
</a>
</g>
</g>
<!-- dir_89eaedc415f3dc0dd55a55271d066916 -->
<g id="node3" class="node">
<title>dir_89eaedc415f3dc0dd55a55271d066916</title>
<g id="a_node3"><a xlink:href="dir_89eaedc415f3dc0dd55a55271d066916.html" target="_top" xlink:title="Matrices">
<polygon fill="#a2b4d6" stroke="#404040" points="83.5,-124 24.5,-124 24.5,-88 83.5,-88 83.5,-124"/>
<text text-anchor="middle" x="54" y="-103.5" font-family="Helvetica,sans-Serif" font-size="10.00">Matrices</text>
</a>
</g>
</g>
<!-- dir_89eaedc415f3dc0dd55a55271d066916&#45;&gt;dir_cdaacd66118cd3761cec6ba1adfb2dd4 -->
<g id="edge2" class="edge">
<title>dir_89eaedc415f3dc0dd55a55271d066916&#45;&gt;dir_cdaacd66118cd3761cec6ba1adfb2dd4</title>
<path fill="none" stroke="black" d="M66.11,-87.7C71.87,-79.47 78.86,-69.48 85.21,-60.42"/>
<polygon fill="black" stroke="black" points="88.16,-62.3 91.03,-52.1 82.42,-58.29 88.16,-62.3"/>
<g id="a_edge2&#45;headlabel"><a xlink:href="dir_000052_000107.html" target="_top" xlink:title="9">
<text text-anchor="middle" x="88.42" y="-64.38" font-family="Helvetica,sans-Serif" font-size="10.00">9</text>
</a>
</g>
</g>
<!-- dir_b085c19e57517ff3112021db980587b6 -->
<g id="node4" class="node">
<title>dir_b085c19e57517ff3112021db980587b6</title>
<g id="a_node4"><a xlink:href="dir_b085c19e57517ff3112021db980587b6.html" target="_top" xlink:title="SolvSys">
<polygon fill="#a2b4d6" stroke="#404040" points="79.5,-196 24.5,-196 24.5,-160 79.5,-160 79.5,-196"/>
<text text-anchor="middle" x="52" y="-175.5" font-family="Helvetica,sans-Serif" font-size="10.00">SolvSys</text>
</a>
</g>
</g>
<!-- dir_b085c19e57517ff3112021db980587b6&#45;&gt;dir_cdaacd66118cd3761cec6ba1adfb2dd4 -->
<g id="edge4" class="edge">
<title>dir_b085c19e57517ff3112021db980587b6&#45;&gt;dir_cdaacd66118cd3761cec6ba1adfb2dd4</title>
<path fill="none" stroke="black" d="M69.14,-159.92C77.79,-150.22 87.58,-137.37 93,-124 100.97,-104.34 103.29,-80.35 103.71,-62.23"/>
<polygon fill="black" stroke="black" points="107.21,-62.08 103.77,-52.07 100.21,-62.05 107.21,-62.08"/>
<g id="a_edge4&#45;headlabel"><a xlink:href="dir_000088_000107.html" target="_top" xlink:title="36">
<text text-anchor="middle" x="110.03" y="-63.19" font-family="Helvetica,sans-Serif" font-size="10.00">36</text>
</a>
</g>
</g>
<!-- dir_b085c19e57517ff3112021db980587b6&#45;&gt;dir_89eaedc415f3dc0dd55a55271d066916 -->
<g id="edge3" class="edge">
<title>dir_b085c19e57517ff3112021db980587b6&#45;&gt;dir_89eaedc415f3dc0dd55a55271d066916</title>
<path fill="none" stroke="black" d="M52.49,-159.7C52.71,-151.98 52.98,-142.71 53.23,-134.11"/>
<polygon fill="black" stroke="black" points="56.72,-134.2 53.51,-124.1 49.73,-134 56.72,-134.2"/>
<g id="a_edge3&#45;headlabel"><a xlink:href="dir_000088_000052.html" target="_top" xlink:title="30">
<text text-anchor="middle" x="59.46" y="-135.37" font-family="Helvetica,sans-Serif" font-size="10.00">30</text>
</a>
</g>
</g>
</g>
</svg>
