<?xml version="1.0" encoding="UTF-8" standalone="no"?>
<!DOCTYPE svg PUBLIC "-//W3C//DTD SVG 1.1//EN"
 "http://www.w3.org/Graphics/SVG/1.1/DTD/svg11.dtd">
<!-- Generated by graphviz version 2.43.0 (0)
 -->
<!-- Title: src/Kernel/Utilitaires Pages: 1 -->
<svg width="184pt" height="167pt"
 viewBox="0.00 0.00 184.00 167.00" xmlns="http://www.w3.org/2000/svg" xmlns:xlink="http://www.w3.org/1999/xlink">
<g id="graph0" class="graph" transform="scale(1 1) rotate(0) translate(4 163)">
<title>src/Kernel/Utilitaires</title>
<polygon fill="white" stroke="transparent" points="-4,4 -4,-163 180,-163 180,4 -4,4"/>
<g id="clust1" class="cluster">
<title>clusterdir_4ebb9cf478835123b919db691d6366a3</title>
<g id="a_clust1"><a xlink:href="dir_4ebb9cf478835123b919db691d6366a3.html" target="_top" xlink:title="Kernel">
<polygon fill="#edf0f7" stroke="#7f7f7f" stroke-dasharray="5,2" points="8,-8 8,-151 168,-151 168,-8 8,-8"/>
<text text-anchor="middle" x="88" y="-139" font-family="Helvetica,sans-Serif" font-size="10.00">Kernel</text>
</a>
</g>
</g>
<!-- dir_0a215d9ccf7924e0d75b691c360a5032 -->
<g id="node1" class="node">
<title>dir_0a215d9ccf7924e0d75b691c360a5032</title>
<g id="a_node1"><a xlink:href="dir_0a215d9ccf7924e0d75b691c360a5032.html" target="_top" xlink:title="Framework">
<polygon fill="#a2b4d6" stroke="#404040" points="87.5,-52 16.5,-52 16.5,-16 87.5,-16 87.5,-52"/>
<text text-anchor="middle" x="52" y="-31.5" font-family="Helvetica,sans-Serif" font-size="10.00">Framework</text>
</a>
</g>
</g>
<!-- dir_65ad971e6c761419c1a7edd88c13347f -->
<g id="node2" class="node">
<title>dir_65ad971e6c761419c1a7edd88c13347f</title>
<g id="a_node2"><a xlink:href="dir_65ad971e6c761419c1a7edd88c13347f.html" target="_top" xlink:title="Math">
<polygon fill="#a2b4d6" stroke="red" points="160,-52 106,-52 106,-16 160,-16 160,-52"/>
<text text-anchor="middle" x="133" y="-31.5" font-family="Helvetica,sans-Serif" font-size="10.00">Math</text>
</a>
</g>
</g>
<!-- dir_cdaacd66118cd3761cec6ba1adfb2dd4 -->
<g id="node3" class="node">
<title>dir_cdaacd66118cd3761cec6ba1adfb2dd4</title>
<g id="a_node3"><a xlink:href="dir_cdaacd66118cd3761cec6ba1adfb2dd4.html" target="_top" xlink:title="Utilitaires">
<polygon fill="#edf0f7" stroke="#404040" stroke-width="2" points="121.5,-124 56.5,-124 56.5,-88 121.5,-88 121.5,-124"/>
<text text-anchor="middle" x="89" y="-103.5" font-family="Helvetica,sans-Serif" font-size="10.00">Utilitaires</text>
</a>
</g>
</g>
<!-- dir_cdaacd66118cd3761cec6ba1adfb2dd4&#45;&gt;dir_0a215d9ccf7924e0d75b691c360a5032 -->
<g id="edge1" class="edge">
<title>dir_cdaacd66118cd3761cec6ba1adfb2dd4&#45;&gt;dir_0a215d9ccf7924e0d75b691c360a5032</title>
<path fill="none" stroke="black" d="M79.85,-87.7C75.6,-79.64 70.44,-69.89 65.73,-60.98"/>
<polygon fill="black" stroke="black" points="68.81,-59.31 61.04,-52.1 62.62,-62.58 68.81,-59.31"/>
<g id="a_edge1&#45;headlabel"><a xlink:href="dir_000107_000038.html" target="_top" xlink:title="1">
<text text-anchor="middle" x="73" y="-58.66" font-family="Helvetica,sans-Serif" font-size="10.00">1</text>
</a>
</g>
</g>
<!-- dir_cdaacd66118cd3761cec6ba1adfb2dd4&#45;&gt;dir_65ad971e6c761419c1a7edd88c13347f -->
<g id="edge2" class="edge">
<title>dir_cdaacd66118cd3761cec6ba1adfb2dd4&#45;&gt;dir_65ad971e6c761419c1a7edd88c13347f</title>
<path fill="none" stroke="black" d="M99.88,-87.7C104.99,-79.56 111.2,-69.69 116.84,-60.7"/>
<polygon fill="black" stroke="black" points="119.89,-62.43 122.25,-52.1 113.96,-58.71 119.89,-62.43"/>
<g id="a_edge2&#45;headlabel"><a xlink:href="dir_000107_000051.html" target="_top" xlink:title="25">
<text text-anchor="middle" x="120.38" y="-64.49" font-family="Helvetica,sans-Serif" font-size="10.00">25</text>
</a>
</g>
</g>
</g>
</svg>
