<?xml version="1.0" encoding="UTF-8" standalone="no"?>
<!DOCTYPE svg PUBLIC "-//W3C//DTD SVG 1.1//EN"
 "http://www.w3.org/Graphics/SVG/1.1/DTD/svg11.dtd">
<!-- Generated by graphviz version 2.43.0 (0)
 -->
<!-- Title: src/VEF Pages: 1 -->
<svg width="480pt" height="391pt"
 viewBox="0.00 0.00 480.49 391.00" xmlns="http://www.w3.org/2000/svg" xmlns:xlink="http://www.w3.org/1999/xlink">
<g id="graph0" class="graph" transform="scale(1 1) rotate(0) translate(4 387)">
<title>src/VEF</title>
<polygon fill="white" stroke="transparent" points="-4,4 -4,-387 476.49,-387 476.49,4 -4,4"/>
<g id="clust1" class="cluster">
<title>clusterdir_68267d1309a1af8e8297ef4c3efbcdba</title>
<g id="a_clust1"><a xlink:href="dir_68267d1309a1af8e8297ef4c3efbcdba.html" target="_top" xlink:title="src">
<polygon fill="#edf0f7" stroke="#404040" stroke-dasharray="5,2" points="8,-8 8,-375 458,-375 458,-8 8,-8"/>
<text text-anchor="middle" x="233" y="-363" font-family="Helvetica,sans-Serif" font-size="10.00">src</text>
</a>
</g>
</g>
<g id="clust2" class="cluster">
<title>clusterdir_2bf20327eb8d166f9acb0c9b72854f51</title>
<g id="a_clust2"><a xlink:href="dir_2bf20327eb8d166f9acb0c9b72854f51.html" target="_top">
<polygon fill="#edf0f7" stroke="#404040" stroke-width="2" points="54,-80 54,-348 338,-348 338,-80 54,-80"/>
</a>
</g>
</g>
<!-- dir_13693299dd61556dbbda8b8a807dfaab -->
<g id="node1" class="node">
<title>dir_13693299dd61556dbbda8b8a807dfaab</title>
<g id="a_node1"><a xlink:href="dir_13693299dd61556dbbda8b8a807dfaab.html" target="_top" xlink:title="ThSol">
<polygon fill="#a2b4d6" stroke="#404040" points="410,-124 356,-124 356,-88 410,-88 410,-124"/>
<text text-anchor="middle" x="383" y="-103.5" font-family="Helvetica,sans-Serif" font-size="10.00">ThSol</text>
</a>
</g>
</g>
<!-- dir_4d89ae13008c55530f0314bd22416f9b -->
<g id="node2" class="node">
<title>dir_4d89ae13008c55530f0314bd22416f9b</title>
<g id="a_node2"><a xlink:href="dir_4d89ae13008c55530f0314bd22416f9b.html" target="_top" xlink:title="P1NCP1B">
<polygon fill="#a2b4d6" stroke="red" points="410,-268 348,-268 348,-232 410,-232 410,-268"/>
<text text-anchor="middle" x="379" y="-247.5" font-family="Helvetica,sans-Serif" font-size="10.00">P1NCP1B</text>
</a>
</g>
</g>
<!-- dir_4ebb9cf478835123b919db691d6366a3 -->
<g id="node3" class="node">
<title>dir_4ebb9cf478835123b919db691d6366a3</title>
<g id="a_node3"><a xlink:href="dir_4ebb9cf478835123b919db691d6366a3.html" target="_top" xlink:title="Kernel">
<polygon fill="#a2b4d6" stroke="red" points="344,-52 290,-52 290,-16 344,-16 344,-52"/>
<text text-anchor="middle" x="317" y="-31.5" font-family="Helvetica,sans-Serif" font-size="10.00">Kernel</text>
</a>
</g>
</g>
<!-- dir_b91833fa2d528be7aecedeb7fe4eea36 -->
<g id="node4" class="node">
<title>dir_b91833fa2d528be7aecedeb7fe4eea36</title>
<g id="a_node4"><a xlink:href="dir_b91833fa2d528be7aecedeb7fe4eea36.html" target="_top" xlink:title="ThHyd">
<polygon fill="#a2b4d6" stroke="red" points="104,-52 50,-52 50,-16 104,-16 104,-52"/>
<text text-anchor="middle" x="77" y="-31.5" font-family="Helvetica,sans-Serif" font-size="10.00">ThHyd</text>
</a>
</g>
</g>
<!-- dir_2bf20327eb8d166f9acb0c9b72854f51 -->
<g id="node5" class="node">
<title>dir_2bf20327eb8d166f9acb0c9b72854f51</title>
<text text-anchor="middle" x="109" y="-247.5" font-family="Helvetica,sans-Serif" font-size="10.00">VEF</text>
</g>
<!-- dir_2bf20327eb8d166f9acb0c9b72854f51&#45;&gt;dir_4ebb9cf478835123b919db691d6366a3 -->
<g id="edge2" class="edge">
<title>dir_2bf20327eb8d166f9acb0c9b72854f51&#45;&gt;dir_4ebb9cf478835123b919db691d6366a3</title>
<path fill="none" stroke="black" d="M136.27,-235.39C139.18,-234.16 142.13,-233 145,-232 211.37,-208.86 252.32,-248.55 299,-196 316.1,-176.74 317.95,-102.65 317.61,-62.02"/>
<polygon fill="black" stroke="black" points="321.11,-61.95 317.48,-52 314.11,-62.05 321.11,-61.95"/>
<g id="a_edge2&#45;headlabel"><a xlink:href="dir_000115_000046.html" target="_top" xlink:title="549">
<text text-anchor="middle" x="324" y="-63.01" font-family="Helvetica,sans-Serif" font-size="10.00">549</text>
</a>
</g>
</g>
<!-- dir_2bf20327eb8d166f9acb0c9b72854f51&#45;&gt;dir_b91833fa2d528be7aecedeb7fe4eea36 -->
<g id="edge4" class="edge">
<title>dir_2bf20327eb8d166f9acb0c9b72854f51&#45;&gt;dir_b91833fa2d528be7aecedeb7fe4eea36</title>
<path fill="none" stroke="black" d="M82.42,-231.91C70.76,-222.81 58.31,-210.49 52,-196 31.41,-148.74 39.07,-129.91 52,-80 53.68,-73.53 56.51,-67 59.68,-60.99"/>
<polygon fill="black" stroke="black" points="62.86,-62.49 64.82,-52.07 56.79,-58.99 62.86,-62.49"/>
<g id="a_edge4&#45;headlabel"><a xlink:href="dir_000115_000101.html" target="_top" xlink:title="122">
<text text-anchor="middle" x="63.52" y="-64.52" font-family="Helvetica,sans-Serif" font-size="10.00">122</text>
</a>
</g>
</g>
<!-- dir_a6b51754580b905273f4f6e3400306f6 -->
<g id="node6" class="node">
<title>dir_a6b51754580b905273f4f6e3400306f6</title>
<g id="a_node6"><a xlink:href="dir_a6b51754580b905273f4f6e3400306f6.html" target="_top" xlink:title="Champs">
<polygon fill="#a2b4d6" stroke="#404040" points="290,-196 234,-196 234,-160 290,-160 290,-196"/>
<text text-anchor="middle" x="262" y="-175.5" font-family="Helvetica,sans-Serif" font-size="10.00">Champs</text>
</a>
</g>
</g>
<!-- dir_2bf20327eb8d166f9acb0c9b72854f51&#45;&gt;dir_a6b51754580b905273f4f6e3400306f6 -->
<g id="edge3" class="edge">
<title>dir_2bf20327eb8d166f9acb0c9b72854f51&#45;&gt;dir_a6b51754580b905273f4f6e3400306f6</title>
<path fill="none" stroke="black" d="M136.11,-236.14C139.1,-234.74 142.11,-233.33 145,-232 171.39,-219.79 201.24,-206.27 224.19,-195.94"/>
<polygon fill="black" stroke="black" points="225.89,-199.02 233.57,-191.73 223.02,-192.64 225.89,-199.02"/>
<g id="a_edge3&#45;headlabel"><a xlink:href="dir_000115_000008.html" target="_top" xlink:title="68">
<text text-anchor="middle" x="223.77" y="-200.58" font-family="Helvetica,sans-Serif" font-size="10.00">68</text>
</a>
</g>
</g>
<!-- dir_32b3b22259e957943f6c9c5b74cc92da -->
<g id="node11" class="node">
<title>dir_32b3b22259e957943f6c9c5b74cc92da</title>
<g id="a_node11"><a xlink:href="dir_32b3b22259e957943f6c9c5b74cc92da.html" target="_top" xlink:title="Zones">
<polygon fill="#a2b4d6" stroke="#404040" points="242,-124 188,-124 188,-88 242,-88 242,-124"/>
<text text-anchor="middle" x="215" y="-103.5" font-family="Helvetica,sans-Serif" font-size="10.00">Zones</text>
</a>
</g>
</g>
<!-- dir_2bf20327eb8d166f9acb0c9b72854f51&#45;&gt;dir_32b3b22259e957943f6c9c5b74cc92da -->
<g id="edge1" class="edge">
<title>dir_2bf20327eb8d166f9acb0c9b72854f51&#45;&gt;dir_32b3b22259e957943f6c9c5b74cc92da</title>
<path fill="none" stroke="black" d="M136.23,-233.8C150.85,-224.48 168.24,-211.4 180,-196 194.11,-177.52 203.26,-152.62 208.65,-133.86"/>
<polygon fill="black" stroke="black" points="212.04,-134.71 211.27,-124.14 205.29,-132.89 212.04,-134.71"/>
<g id="a_edge1&#45;headlabel"><a xlink:href="dir_000115_000123.html" target="_top" xlink:title="128">
<text text-anchor="middle" x="213.85" y="-136.42" font-family="Helvetica,sans-Serif" font-size="10.00">128</text>
</a>
</g>
</g>
<!-- dir_a6b51754580b905273f4f6e3400306f6&#45;&gt;dir_13693299dd61556dbbda8b8a807dfaab -->
<g id="edge5" class="edge">
<title>dir_a6b51754580b905273f4f6e3400306f6&#45;&gt;dir_13693299dd61556dbbda8b8a807dfaab</title>
<path fill="none" stroke="black" d="M290.06,-160.76C306.95,-151 328.62,-138.46 346.78,-127.95"/>
<polygon fill="black" stroke="black" points="349.02,-130.7 355.92,-122.67 345.51,-124.64 349.02,-130.7"/>
<g id="a_edge5&#45;headlabel"><a xlink:href="dir_000008_000102.html" target="_top" xlink:title="2">
<text text-anchor="middle" x="347.33" y="-132.46" font-family="Helvetica,sans-Serif" font-size="10.00">2</text>
</a>
</g>
</g>
<!-- dir_a6b51754580b905273f4f6e3400306f6&#45;&gt;dir_4ebb9cf478835123b919db691d6366a3 -->
<g id="edge7" class="edge">
<title>dir_a6b51754580b905273f4f6e3400306f6&#45;&gt;dir_4ebb9cf478835123b919db691d6366a3</title>
<path fill="none" stroke="black" d="M268.63,-159.87C278.09,-135.46 295.53,-90.43 306.68,-61.64"/>
<polygon fill="black" stroke="black" points="309.99,-62.78 310.34,-52.19 303.47,-60.25 309.99,-62.78"/>
<g id="a_edge7&#45;headlabel"><a xlink:href="dir_000008_000046.html" target="_top" xlink:title="106">
<text text-anchor="middle" x="311.34" y="-64.66" font-family="Helvetica,sans-Serif" font-size="10.00">106</text>
</a>
</g>
</g>
<!-- dir_a6b51754580b905273f4f6e3400306f6&#45;&gt;dir_b91833fa2d528be7aecedeb7fe4eea36 -->
<g id="edge8" class="edge">
<title>dir_a6b51754580b905273f4f6e3400306f6&#45;&gt;dir_b91833fa2d528be7aecedeb7fe4eea36</title>
<path fill="none" stroke="black" d="M233.64,-160.34C217.27,-150.37 196.52,-137.12 179,-124 151.77,-103.6 122.71,-77.81 102.61,-59.25"/>
<polygon fill="black" stroke="black" points="104.81,-56.51 95.1,-52.27 100.04,-61.64 104.81,-56.51"/>
<g id="a_edge8&#45;headlabel"><a xlink:href="dir_000008_000101.html" target="_top" xlink:title="17">
<text text-anchor="middle" x="109.37" y="-54.38" font-family="Helvetica,sans-Serif" font-size="10.00">17</text>
</a>
</g>
</g>
<!-- dir_a6b51754580b905273f4f6e3400306f6&#45;&gt;dir_32b3b22259e957943f6c9c5b74cc92da -->
<g id="edge6" class="edge">
<title>dir_a6b51754580b905273f4f6e3400306f6&#45;&gt;dir_32b3b22259e957943f6c9c5b74cc92da</title>
<path fill="none" stroke="black" d="M244.47,-159.7C238.16,-151.56 231.33,-141.69 225.72,-132.7"/>
<polygon fill="black" stroke="black" points="228.72,-130.9 220.59,-124.1 222.71,-134.48 228.72,-130.9"/>
<g id="a_edge6&#45;headlabel"><a xlink:href="dir_000008_000123.html" target="_top" xlink:title="35">
<text text-anchor="middle" x="233" y="-130.03" font-family="Helvetica,sans-Serif" font-size="10.00">35</text>
</a>
</g>
</g>
<!-- dir_7651c176b3eed08cd10b5b5e1a4075be -->
<g id="node7" class="node">
<title>dir_7651c176b3eed08cd10b5b5e1a4075be</title>
<g id="a_node7"><a xlink:href="dir_7651c176b3eed08cd10b5b5e1a4075be.html" target="_top" xlink:title="Cond_Lim">
<polygon fill="#a2b4d6" stroke="#404040" points="219.5,-268 154.5,-268 154.5,-232 219.5,-232 219.5,-268"/>
<text text-anchor="middle" x="187" y="-247.5" font-family="Helvetica,sans-Serif" font-size="10.00">Cond_Lim</text>
</a>
</g>
</g>
<!-- dir_7651c176b3eed08cd10b5b5e1a4075be&#45;&gt;dir_13693299dd61556dbbda8b8a807dfaab -->
<g id="edge9" class="edge">
<title>dir_7651c176b3eed08cd10b5b5e1a4075be&#45;&gt;dir_13693299dd61556dbbda8b8a807dfaab</title>
<path fill="none" stroke="black" d="M219.56,-239.5C266.75,-225.61 349.09,-200.87 354,-196 362.85,-187.21 371.52,-156.97 377.03,-134.16"/>
<polygon fill="black" stroke="black" points="380.47,-134.84 379.34,-124.3 373.65,-133.24 380.47,-134.84"/>
<g id="a_edge9&#45;headlabel"><a xlink:href="dir_000020_000102.html" target="_top" xlink:title="1">
<text text-anchor="middle" x="382.42" y="-136.48" font-family="Helvetica,sans-Serif" font-size="10.00">1</text>
</a>
</g>
</g>
<!-- dir_7651c176b3eed08cd10b5b5e1a4075be&#45;&gt;dir_4ebb9cf478835123b919db691d6366a3 -->
<g id="edge11" class="edge">
<title>dir_7651c176b3eed08cd10b5b5e1a4075be&#45;&gt;dir_4ebb9cf478835123b919db691d6366a3</title>
<path fill="none" stroke="black" d="M219.79,-239.36C260.99,-226.91 327.18,-205.71 334,-196 348.72,-175.05 333.87,-102.35 324.09,-62.19"/>
<polygon fill="black" stroke="black" points="327.43,-61.12 321.61,-52.26 320.64,-62.81 327.43,-61.12"/>
<g id="a_edge11&#45;headlabel"><a xlink:href="dir_000020_000046.html" target="_top" xlink:title="16">
<text text-anchor="middle" x="331.06" y="-61.42" font-family="Helvetica,sans-Serif" font-size="10.00">16</text>
</a>
</g>
</g>
<!-- dir_7651c176b3eed08cd10b5b5e1a4075be&#45;&gt;dir_b91833fa2d528be7aecedeb7fe4eea36 -->
<g id="edge13" class="edge">
<title>dir_7651c176b3eed08cd10b5b5e1a4075be&#45;&gt;dir_b91833fa2d528be7aecedeb7fe4eea36</title>
<path fill="none" stroke="black" d="M154.36,-234.99C121.23,-220.61 74.44,-199.81 72,-196 45.9,-155.23 57.38,-95.99 67.55,-61.89"/>
<polygon fill="black" stroke="black" points="70.95,-62.76 70.63,-52.17 64.28,-60.65 70.95,-62.76"/>
<g id="a_edge13&#45;headlabel"><a xlink:href="dir_000020_000101.html" target="_top" xlink:title="5">
<text text-anchor="middle" x="72.58" y="-64.54" font-family="Helvetica,sans-Serif" font-size="10.00">5</text>
</a>
</g>
</g>
<!-- dir_7651c176b3eed08cd10b5b5e1a4075be&#45;&gt;dir_a6b51754580b905273f4f6e3400306f6 -->
<g id="edge12" class="edge">
<title>dir_7651c176b3eed08cd10b5b5e1a4075be&#45;&gt;dir_a6b51754580b905273f4f6e3400306f6</title>
<path fill="none" stroke="black" d="M205.54,-231.7C214.8,-223.05 226.16,-212.45 236.26,-203.03"/>
<polygon fill="black" stroke="black" points="238.75,-205.49 243.67,-196.1 233.98,-200.37 238.75,-205.49"/>
<g id="a_edge12&#45;headlabel"><a xlink:href="dir_000020_000008.html" target="_top" xlink:title="4">
<text text-anchor="middle" x="238.06" y="-207.51" font-family="Helvetica,sans-Serif" font-size="10.00">4</text>
</a>
</g>
</g>
<!-- dir_7651c176b3eed08cd10b5b5e1a4075be&#45;&gt;dir_32b3b22259e957943f6c9c5b74cc92da -->
<g id="edge10" class="edge">
<title>dir_7651c176b3eed08cd10b5b5e1a4075be&#45;&gt;dir_32b3b22259e957943f6c9c5b74cc92da</title>
<path fill="none" stroke="black" d="M191.54,-231.89C194.19,-221.54 197.51,-208.06 200,-196 204.25,-175.41 208.17,-151.96 210.93,-134.3"/>
<polygon fill="black" stroke="black" points="214.43,-134.55 212.5,-124.13 207.52,-133.48 214.43,-134.55"/>
<g id="a_edge10&#45;headlabel"><a xlink:href="dir_000020_000123.html" target="_top" xlink:title="5">
<text text-anchor="middle" x="216.69" y="-136.03" font-family="Helvetica,sans-Serif" font-size="10.00">5</text>
</a>
</g>
</g>
<!-- dir_8aa9c1dd3c5ade7316757c44275ca69f -->
<g id="node8" class="node">
<title>dir_8aa9c1dd3c5ade7316757c44275ca69f</title>
<g id="a_node8"><a xlink:href="dir_8aa9c1dd3c5ade7316757c44275ca69f.html" target="_top" xlink:title="Operateurs">
<polygon fill="#a2b4d6" stroke="#404040" points="329.5,-268 258.5,-268 258.5,-232 329.5,-232 329.5,-268"/>
<text text-anchor="middle" x="294" y="-247.5" font-family="Helvetica,sans-Serif" font-size="10.00">Operateurs</text>
</a>
</g>
</g>
<!-- dir_8aa9c1dd3c5ade7316757c44275ca69f&#45;&gt;dir_13693299dd61556dbbda8b8a807dfaab -->
<g id="edge14" class="edge">
<title>dir_8aa9c1dd3c5ade7316757c44275ca69f&#45;&gt;dir_13693299dd61556dbbda8b8a807dfaab</title>
<path fill="none" stroke="black" d="M325.53,-231.87C345.28,-220.47 368.06,-205.84 374,-196 385.14,-177.55 386.85,-152.95 386.07,-134.29"/>
<polygon fill="black" stroke="black" points="389.55,-133.82 385.39,-124.08 382.57,-134.3 389.55,-133.82"/>
<g id="a_edge14&#45;headlabel"><a xlink:href="dir_000071_000102.html" target="_top" xlink:title="11">
<text text-anchor="middle" x="392.63" y="-134.72" font-family="Helvetica,sans-Serif" font-size="10.00">11</text>
</a>
</g>
</g>
<!-- dir_8aa9c1dd3c5ade7316757c44275ca69f&#45;&gt;dir_4ebb9cf478835123b919db691d6366a3 -->
<g id="edge16" class="edge">
<title>dir_8aa9c1dd3c5ade7316757c44275ca69f&#45;&gt;dir_4ebb9cf478835123b919db691d6366a3</title>
<path fill="none" stroke="black" d="M328.27,-231.78C350.32,-220.18 376.41,-205.36 385,-196 408.92,-169.92 411.26,-158.53 419,-124 423.28,-104.92 429.68,-96.38 419,-80 404.73,-58.11 377.14,-46.79 354.25,-40.98"/>
<polygon fill="black" stroke="black" points="354.98,-37.56 344.45,-38.75 353.42,-44.39 354.98,-37.56"/>
<g id="a_edge16&#45;headlabel"><a xlink:href="dir_000071_000046.html" target="_top" xlink:title="214">
<text text-anchor="middle" x="359.12" y="-33.09" font-family="Helvetica,sans-Serif" font-size="10.00">214</text>
</a>
</g>
</g>
<!-- dir_8aa9c1dd3c5ade7316757c44275ca69f&#45;&gt;dir_b91833fa2d528be7aecedeb7fe4eea36 -->
<g id="edge18" class="edge">
<title>dir_8aa9c1dd3c5ade7316757c44275ca69f&#45;&gt;dir_b91833fa2d528be7aecedeb7fe4eea36</title>
<path fill="none" stroke="black" d="M258.38,-239.81C248.54,-237.28 237.86,-234.53 228,-232 165.35,-215.93 128.24,-245.82 87,-196 70.69,-176.3 72.56,-102.73 74.98,-62.21"/>
<polygon fill="black" stroke="black" points="78.47,-62.4 75.62,-52.2 71.49,-61.95 78.47,-62.4"/>
<g id="a_edge18&#45;headlabel"><a xlink:href="dir_000071_000101.html" target="_top" xlink:title="40">
<text text-anchor="middle" x="81.07" y="-63.67" font-family="Helvetica,sans-Serif" font-size="10.00">40</text>
</a>
</g>
</g>
<!-- dir_8aa9c1dd3c5ade7316757c44275ca69f&#45;&gt;dir_a6b51754580b905273f4f6e3400306f6 -->
<g id="edge17" class="edge">
<title>dir_8aa9c1dd3c5ade7316757c44275ca69f&#45;&gt;dir_a6b51754580b905273f4f6e3400306f6</title>
<path fill="none" stroke="black" d="M286.09,-231.7C282.45,-223.73 278.05,-214.1 274.01,-205.26"/>
<polygon fill="black" stroke="black" points="277.16,-203.74 269.82,-196.1 270.79,-206.65 277.16,-203.74"/>
<g id="a_edge17&#45;headlabel"><a xlink:href="dir_000071_000008.html" target="_top" xlink:title="34">
<text text-anchor="middle" x="281.24" y="-203.33" font-family="Helvetica,sans-Serif" font-size="10.00">34</text>
</a>
</g>
</g>
<!-- dir_8aa9c1dd3c5ade7316757c44275ca69f&#45;&gt;dir_32b3b22259e957943f6c9c5b74cc92da -->
<g id="edge15" class="edge">
<title>dir_8aa9c1dd3c5ade7316757c44275ca69f&#45;&gt;dir_32b3b22259e957943f6c9c5b74cc92da</title>
<path fill="none" stroke="black" d="M300.12,-231.73C305.69,-212.87 311.33,-182.36 299,-160 296.16,-154.86 272.56,-140.18 251.09,-127.57"/>
<polygon fill="black" stroke="black" points="252.8,-124.52 242.4,-122.51 249.28,-130.57 252.8,-124.52"/>
<g id="a_edge15&#45;headlabel"><a xlink:href="dir_000071_000123.html" target="_top" xlink:title="23">
<text text-anchor="middle" x="257.34" y="-121.37" font-family="Helvetica,sans-Serif" font-size="10.00">23</text>
</a>
</g>
</g>
<!-- dir_76e782e4b410e98a1ee906fdad6366b8 -->
<g id="node9" class="node">
<title>dir_76e782e4b410e98a1ee906fdad6366b8</title>
<g id="a_node9"><a xlink:href="dir_76e782e4b410e98a1ee906fdad6366b8.html" target="_top" xlink:title="Solveurs">
<polygon fill="#a2b4d6" stroke="#404040" points="155.5,-196 96.5,-196 96.5,-160 155.5,-160 155.5,-196"/>
<text text-anchor="middle" x="126" y="-175.5" font-family="Helvetica,sans-Serif" font-size="10.00">Solveurs</text>
</a>
</g>
</g>
<!-- dir_76e782e4b410e98a1ee906fdad6366b8&#45;&gt;dir_4ebb9cf478835123b919db691d6366a3 -->
<g id="edge20" class="edge">
<title>dir_76e782e4b410e98a1ee906fdad6366b8&#45;&gt;dir_4ebb9cf478835123b919db691d6366a3</title>
<path fill="none" stroke="black" d="M155.73,-169.86C182.92,-162.15 223.03,-147.68 251,-124 268.69,-109.02 265.27,-98.67 279,-80 283.94,-73.28 289.59,-66.28 295,-59.85"/>
<polygon fill="black" stroke="black" points="297.8,-61.95 301.64,-52.08 292.48,-57.4 297.8,-61.95"/>
<g id="a_edge20&#45;headlabel"><a xlink:href="dir_000087_000046.html" target="_top" xlink:title="14">
<text text-anchor="middle" x="297.62" y="-64.03" font-family="Helvetica,sans-Serif" font-size="10.00">14</text>
</a>
</g>
</g>
<!-- dir_76e782e4b410e98a1ee906fdad6366b8&#45;&gt;dir_b91833fa2d528be7aecedeb7fe4eea36 -->
<g id="edge21" class="edge">
<title>dir_76e782e4b410e98a1ee906fdad6366b8&#45;&gt;dir_b91833fa2d528be7aecedeb7fe4eea36</title>
<path fill="none" stroke="black" d="M120.09,-159.87C111.7,-135.56 96.26,-90.82 86.32,-62.01"/>
<polygon fill="black" stroke="black" points="89.5,-60.5 82.93,-52.19 82.88,-62.78 89.5,-60.5"/>
<g id="a_edge21&#45;headlabel"><a xlink:href="dir_000087_000101.html" target="_top" xlink:title="1">
<text text-anchor="middle" x="93.36" y="-60.47" font-family="Helvetica,sans-Serif" font-size="10.00">1</text>
</a>
</g>
</g>
<!-- dir_76e782e4b410e98a1ee906fdad6366b8&#45;&gt;dir_32b3b22259e957943f6c9c5b74cc92da -->
<g id="edge19" class="edge">
<title>dir_76e782e4b410e98a1ee906fdad6366b8&#45;&gt;dir_32b3b22259e957943f6c9c5b74cc92da</title>
<path fill="none" stroke="black" d="M148,-159.7C159.21,-150.88 173,-140.03 185.15,-130.47"/>
<polygon fill="black" stroke="black" points="187.56,-133.04 193.25,-124.1 183.23,-127.54 187.56,-133.04"/>
<g id="a_edge19&#45;headlabel"><a xlink:href="dir_000087_000123.html" target="_top" xlink:title="8">
<text text-anchor="middle" x="186.49" y="-134.99" font-family="Helvetica,sans-Serif" font-size="10.00">8</text>
</a>
</g>
</g>
<!-- dir_5ef8fef46ac5f208e61da39ae26a4a53 -->
<g id="node10" class="node">
<title>dir_5ef8fef46ac5f208e61da39ae26a4a53</title>
<g id="a_node10"><a xlink:href="dir_5ef8fef46ac5f208e61da39ae26a4a53.html" target="_top" xlink:title="Sources">
<polygon fill="#a2b4d6" stroke="#404040" points="321.5,-340 266.5,-340 266.5,-304 321.5,-304 321.5,-340"/>
<text text-anchor="middle" x="294" y="-319.5" font-family="Helvetica,sans-Serif" font-size="10.00">Sources</text>
</a>
</g>
</g>
<!-- dir_5ef8fef46ac5f208e61da39ae26a4a53&#45;&gt;dir_13693299dd61556dbbda8b8a807dfaab -->
<g id="edge22" class="edge">
<title>dir_5ef8fef46ac5f208e61da39ae26a4a53&#45;&gt;dir_13693299dd61556dbbda8b8a807dfaab</title>
<path fill="none" stroke="black" d="M321.74,-318.01C351.53,-313.15 397.46,-300.53 419,-268 446.61,-226.31 419.82,-166.6 399.98,-132.84"/>
<polygon fill="black" stroke="black" points="402.82,-130.77 394.63,-124.05 396.84,-134.41 402.82,-130.77"/>
<g id="a_edge22&#45;headlabel"><a xlink:href="dir_000097_000102.html" target="_top" xlink:title="2">
<text text-anchor="middle" x="407.11" y="-129.86" font-family="Helvetica,sans-Serif" font-size="10.00">2</text>
</a>
</g>
</g>
<!-- dir_5ef8fef46ac5f208e61da39ae26a4a53&#45;&gt;dir_4d89ae13008c55530f0314bd22416f9b -->
<g id="edge24" class="edge">
<title>dir_5ef8fef46ac5f208e61da39ae26a4a53&#45;&gt;dir_4d89ae13008c55530f0314bd22416f9b</title>
<path fill="none" stroke="black" d="M315.01,-303.7C325.72,-294.88 338.89,-284.03 350.5,-274.47"/>
<polygon fill="black" stroke="black" points="352.74,-277.16 358.23,-268.1 348.29,-271.76 352.74,-277.16"/>
<g id="a_edge24&#45;headlabel"><a xlink:href="dir_000097_000072.html" target="_top" xlink:title="6">
<text text-anchor="middle" x="351.77" y="-279.14" font-family="Helvetica,sans-Serif" font-size="10.00">6</text>
</a>
</g>
</g>
<!-- dir_5ef8fef46ac5f208e61da39ae26a4a53&#45;&gt;dir_4ebb9cf478835123b919db691d6366a3 -->
<g id="edge25" class="edge">
<title>dir_5ef8fef46ac5f208e61da39ae26a4a53&#45;&gt;dir_4ebb9cf478835123b919db691d6366a3</title>
<path fill="none" stroke="black" d="M321.59,-319.01C353.57,-315.07 404.96,-303.26 429,-268 451.28,-235.32 515.78,-211.37 426,-80 409.86,-56.38 378.86,-45.14 354.03,-39.8"/>
<polygon fill="black" stroke="black" points="354.66,-36.35 344.18,-37.91 353.34,-43.23 354.66,-36.35"/>
<g id="a_edge25&#45;headlabel"><a xlink:href="dir_000097_000046.html" target="_top" xlink:title="139">
<text text-anchor="middle" x="358.72" y="-31.74" font-family="Helvetica,sans-Serif" font-size="10.00">139</text>
</a>
</g>
</g>
<!-- dir_5ef8fef46ac5f208e61da39ae26a4a53&#45;&gt;dir_b91833fa2d528be7aecedeb7fe4eea36 -->
<g id="edge28" class="edge">
<title>dir_5ef8fef46ac5f208e61da39ae26a4a53&#45;&gt;dir_b91833fa2d528be7aecedeb7fe4eea36</title>
<path fill="none" stroke="black" d="M266.41,-318.37C210.59,-312.49 87.03,-296.54 57,-268 -3.88,-210.15 8.16,-158.5 38,-80 40.73,-72.82 45.15,-66.03 50.06,-59.99"/>
<polygon fill="black" stroke="black" points="52.91,-62.06 56.95,-52.27 47.68,-57.4 52.91,-62.06"/>
<g id="a_edge28&#45;headlabel"><a xlink:href="dir_000097_000101.html" target="_top" xlink:title="34">
<text text-anchor="middle" x="52.64" y="-64.13" font-family="Helvetica,sans-Serif" font-size="10.00">34</text>
</a>
</g>
</g>
<!-- dir_5ef8fef46ac5f208e61da39ae26a4a53&#45;&gt;dir_a6b51754580b905273f4f6e3400306f6 -->
<g id="edge27" class="edge">
<title>dir_5ef8fef46ac5f208e61da39ae26a4a53&#45;&gt;dir_a6b51754580b905273f4f6e3400306f6</title>
<path fill="none" stroke="black" d="M273.62,-303.53C264.19,-294.09 253.99,-281.6 249,-268 241.63,-247.93 245.86,-223.88 251.39,-205.84"/>
<polygon fill="black" stroke="black" points="254.75,-206.84 254.63,-196.24 248.11,-204.6 254.75,-206.84"/>
<g id="a_edge27&#45;headlabel"><a xlink:href="dir_000097_000008.html" target="_top" xlink:title="7">
<text text-anchor="middle" x="256.29" y="-208.65" font-family="Helvetica,sans-Serif" font-size="10.00">7</text>
</a>
</g>
</g>
<!-- dir_5ef8fef46ac5f208e61da39ae26a4a53&#45;&gt;dir_8aa9c1dd3c5ade7316757c44275ca69f -->
<g id="edge26" class="edge">
<title>dir_5ef8fef46ac5f208e61da39ae26a4a53&#45;&gt;dir_8aa9c1dd3c5ade7316757c44275ca69f</title>
<path fill="none" stroke="black" d="M294,-303.7C294,-295.98 294,-286.71 294,-278.11"/>
<polygon fill="black" stroke="black" points="297.5,-278.1 294,-268.1 290.5,-278.1 297.5,-278.1"/>
<g id="a_edge26&#45;headlabel"><a xlink:href="dir_000097_000071.html" target="_top" xlink:title="2">
<text text-anchor="middle" x="300.34" y="-279.2" font-family="Helvetica,sans-Serif" font-size="10.00">2</text>
</a>
</g>
</g>
<!-- dir_5ef8fef46ac5f208e61da39ae26a4a53&#45;&gt;dir_32b3b22259e957943f6c9c5b74cc92da -->
<g id="edge23" class="edge">
<title>dir_5ef8fef46ac5f208e61da39ae26a4a53&#45;&gt;dir_32b3b22259e957943f6c9c5b74cc92da</title>
<path fill="none" stroke="black" d="M266.39,-318.55C212.58,-313.15 96.82,-298.21 73,-268 19.24,-199.83 154.08,-205.51 164,-196 176.64,-183.88 171.59,-175.36 180,-160 185.03,-150.81 191.15,-141.14 196.85,-132.62"/>
<polygon fill="black" stroke="black" points="199.84,-134.45 202.58,-124.21 194.06,-130.5 199.84,-134.45"/>
<g id="a_edge23&#45;headlabel"><a xlink:href="dir_000097_000123.html" target="_top" xlink:title="52">
<text text-anchor="middle" x="200.16" y="-136.52" font-family="Helvetica,sans-Serif" font-size="10.00">52</text>
</a>
</g>
</g>
<!-- dir_32b3b22259e957943f6c9c5b74cc92da&#45;&gt;dir_4ebb9cf478835123b919db691d6366a3 -->
<g id="edge29" class="edge">
<title>dir_32b3b22259e957943f6c9c5b74cc92da&#45;&gt;dir_4ebb9cf478835123b919db691d6366a3</title>
<path fill="none" stroke="black" d="M235.42,-87.99C238.9,-85.25 242.52,-82.5 246,-80 257.25,-71.94 269.91,-63.68 281.38,-56.47"/>
<polygon fill="black" stroke="black" points="283.25,-59.43 289.89,-51.18 279.55,-53.49 283.25,-59.43"/>
<g id="a_edge29&#45;headlabel"><a xlink:href="dir_000123_000046.html" target="_top" xlink:title="45">
<text text-anchor="middle" x="281.69" y="-61.24" font-family="Helvetica,sans-Serif" font-size="10.00">45</text>
</a>
</g>
</g>
<!-- dir_32b3b22259e957943f6c9c5b74cc92da&#45;&gt;dir_b91833fa2d528be7aecedeb7fe4eea36 -->
<g id="edge31" class="edge">
<title>dir_32b3b22259e957943f6c9c5b74cc92da&#45;&gt;dir_b91833fa2d528be7aecedeb7fe4eea36</title>
<path fill="none" stroke="black" d="M195.59,-87.99C191.88,-85.13 187.92,-82.34 184,-80 161.89,-66.8 135.2,-55.56 114.01,-47.62"/>
<polygon fill="black" stroke="black" points="114.98,-44.25 104.39,-44.1 112.58,-50.83 114.98,-44.25"/>
<g id="a_edge31&#45;headlabel"><a xlink:href="dir_000123_000101.html" target="_top" xlink:title="7">
<text text-anchor="middle" x="119.34" y="-40.32" font-family="Helvetica,sans-Serif" font-size="10.00">7</text>
</a>
</g>
</g>
<!-- dir_32b3b22259e957943f6c9c5b74cc92da&#45;&gt;dir_a6b51754580b905273f4f6e3400306f6 -->
<g id="edge30" class="edge">
<title>dir_32b3b22259e957943f6c9c5b74cc92da&#45;&gt;dir_a6b51754580b905273f4f6e3400306f6</title>
<path fill="none" stroke="black" d="M232.38,-124.1C238.67,-132.21 245.51,-142.08 251.14,-151.08"/>
<polygon fill="black" stroke="black" points="248.16,-152.91 256.3,-159.7 254.17,-149.32 248.16,-152.91"/>
<g id="a_edge30&#45;headlabel"><a xlink:href="dir_000123_000008.html" target="_top" xlink:title="19">
<text text-anchor="middle" x="243.88" y="-148.79" font-family="Helvetica,sans-Serif" font-size="10.00">19</text>
</a>
</g>
</g>
</g>
</svg>
