<?xml version="1.0" encoding="UTF-8" standalone="no"?>
<!DOCTYPE svg PUBLIC "-//W3C//DTD SVG 1.1//EN"
 "http://www.w3.org/Graphics/SVG/1.1/DTD/svg11.dtd">
<!-- Generated by graphviz version 2.43.0 (0)
 -->
<!-- Title: src/Kernel/Operateurs Pages: 1 -->
<svg width="268pt" height="167pt"
 viewBox="0.00 0.00 268.00 167.00" xmlns="http://www.w3.org/2000/svg" xmlns:xlink="http://www.w3.org/1999/xlink">
<g id="graph0" class="graph" transform="scale(1 1) rotate(0) translate(4 163)">
<title>src/Kernel/Operateurs</title>
<polygon fill="white" stroke="transparent" points="-4,4 -4,-163 264,-163 264,4 -4,4"/>
<g id="clust1" class="cluster">
<title>clusterdir_4ebb9cf478835123b919db691d6366a3</title>
<g id="a_clust1"><a xlink:href="dir_4ebb9cf478835123b919db691d6366a3.html" target="_top" xlink:title="Kernel">
<polygon fill="#edf0f7" stroke="#7f7f7f" stroke-dasharray="5,2" points="8,-8 8,-151 252,-151 252,-8 8,-8"/>
<text text-anchor="middle" x="130" y="-139" font-family="Helvetica,sans-Serif" font-size="10.00">Kernel</text>
</a>
</g>
</g>
<!-- dir_0a215d9ccf7924e0d75b691c360a5032 -->
<g id="node1" class="node">
<title>dir_0a215d9ccf7924e0d75b691c360a5032</title>
<g id="a_node1"><a xlink:href="dir_0a215d9ccf7924e0d75b691c360a5032.html" target="_top" xlink:title="Framework">
<polygon fill="#a2b4d6" stroke="#404040" points="87.5,-52 16.5,-52 16.5,-16 87.5,-16 87.5,-52"/>
<text text-anchor="middle" x="52" y="-31.5" font-family="Helvetica,sans-Serif" font-size="10.00">Framework</text>
</a>
</g>
</g>
<!-- dir_65ad971e6c761419c1a7edd88c13347f -->
<g id="node2" class="node">
<title>dir_65ad971e6c761419c1a7edd88c13347f</title>
<g id="a_node2"><a xlink:href="dir_65ad971e6c761419c1a7edd88c13347f.html" target="_top" xlink:title="Math">
<polygon fill="#a2b4d6" stroke="red" points="160,-52 106,-52 106,-16 160,-16 160,-52"/>
<text text-anchor="middle" x="133" y="-31.5" font-family="Helvetica,sans-Serif" font-size="10.00">Math</text>
</a>
</g>
</g>
<!-- dir_cdaacd66118cd3761cec6ba1adfb2dd4 -->
<g id="node3" class="node">
<title>dir_cdaacd66118cd3761cec6ba1adfb2dd4</title>
<g id="a_node3"><a xlink:href="dir_cdaacd66118cd3761cec6ba1adfb2dd4.html" target="_top" xlink:title="Utilitaires">
<polygon fill="#a2b4d6" stroke="#404040" points="243.5,-52 178.5,-52 178.5,-16 243.5,-16 243.5,-52"/>
<text text-anchor="middle" x="211" y="-31.5" font-family="Helvetica,sans-Serif" font-size="10.00">Utilitaires</text>
</a>
</g>
</g>
<!-- dir_8bc67a5531db7985b2c780e01f178aea -->
<g id="node4" class="node">
<title>dir_8bc67a5531db7985b2c780e01f178aea</title>
<g id="a_node4"><a xlink:href="dir_8bc67a5531db7985b2c780e01f178aea.html" target="_top" xlink:title="Operateurs">
<polygon fill="#edf0f7" stroke="#404040" stroke-width="2" points="168.5,-124 97.5,-124 97.5,-88 168.5,-88 168.5,-124"/>
<text text-anchor="middle" x="133" y="-103.5" font-family="Helvetica,sans-Serif" font-size="10.00">Operateurs</text>
</a>
</g>
</g>
<!-- dir_8bc67a5531db7985b2c780e01f178aea&#45;&gt;dir_0a215d9ccf7924e0d75b691c360a5032 -->
<g id="edge1" class="edge">
<title>dir_8bc67a5531db7985b2c780e01f178aea&#45;&gt;dir_0a215d9ccf7924e0d75b691c360a5032</title>
<path fill="none" stroke="black" d="M112.98,-87.7C102.87,-78.97 90.46,-68.24 79.48,-58.75"/>
<polygon fill="black" stroke="black" points="81.65,-55.99 71.79,-52.1 77.07,-61.29 81.65,-55.99"/>
<g id="a_edge1&#45;headlabel"><a xlink:href="dir_000066_000038.html" target="_top" xlink:title="30">
<text text-anchor="middle" x="86.22" y="-53.7" font-family="Helvetica,sans-Serif" font-size="10.00">30</text>
</a>
</g>
</g>
<!-- dir_8bc67a5531db7985b2c780e01f178aea&#45;&gt;dir_65ad971e6c761419c1a7edd88c13347f -->
<g id="edge2" class="edge">
<title>dir_8bc67a5531db7985b2c780e01f178aea&#45;&gt;dir_65ad971e6c761419c1a7edd88c13347f</title>
<path fill="none" stroke="black" d="M133,-87.7C133,-79.98 133,-70.71 133,-62.11"/>
<polygon fill="black" stroke="black" points="136.5,-62.1 133,-52.1 129.5,-62.1 136.5,-62.1"/>
<g id="a_edge2&#45;headlabel"><a xlink:href="dir_000066_000051.html" target="_top" xlink:title="3">
<text text-anchor="middle" x="139.34" y="-63.2" font-family="Helvetica,sans-Serif" font-size="10.00">3</text>
</a>
</g>
</g>
<!-- dir_8bc67a5531db7985b2c780e01f178aea&#45;&gt;dir_cdaacd66118cd3761cec6ba1adfb2dd4 -->
<g id="edge3" class="edge">
<title>dir_8bc67a5531db7985b2c780e01f178aea&#45;&gt;dir_cdaacd66118cd3761cec6ba1adfb2dd4</title>
<path fill="none" stroke="black" d="M152.28,-87.7C161.92,-79.05 173.73,-68.45 184.23,-59.03"/>
<polygon fill="black" stroke="black" points="186.84,-61.39 191.94,-52.1 182.16,-56.18 186.84,-61.39"/>
<g id="a_edge3&#45;headlabel"><a xlink:href="dir_000066_000107.html" target="_top" xlink:title="4">
<text text-anchor="middle" x="186.06" y="-63.4" font-family="Helvetica,sans-Serif" font-size="10.00">4</text>
</a>
</g>
</g>
</g>
</svg>
