<?xml version="1.0" encoding="UTF-8" standalone="no"?>
<!DOCTYPE svg PUBLIC "-//W3C//DTD SVG 1.1//EN"
 "http://www.w3.org/Graphics/SVG/1.1/DTD/svg11.dtd">
<!-- Generated by graphviz version 2.43.0 (0)
 -->
<!-- Title: src/VDF/Operateurs Pages: 1 -->
<svg width="719pt" height="463pt"
 viewBox="0.00 0.00 719.00 463.00" xmlns="http://www.w3.org/2000/svg" xmlns:xlink="http://www.w3.org/1999/xlink">
<g id="graph0" class="graph" transform="scale(1 1) rotate(0) translate(4 459)">
<title>src/VDF/Operateurs</title>
<polygon fill="white" stroke="transparent" points="-4,4 -4,-459 715,-459 715,4 -4,4"/>
<g id="clust1" class="cluster">
<title>clusterdir_f999ad8736097ebdc524243ad7f1213b</title>
<g id="a_clust1"><a xlink:href="dir_f999ad8736097ebdc524243ad7f1213b.html" target="_top" xlink:title="VDF">
<polygon fill="#edf0f7" stroke="#7f7f7f" stroke-dasharray="5,2" points="172,-8 172,-447 566,-447 566,-8 172,-8"/>
<text text-anchor="middle" x="369" y="-435" font-family="Helvetica,sans-Serif" font-size="10.00">VDF</text>
</a>
</g>
</g>
<g id="clust2" class="cluster">
<title>clusterdir_b997c7237227ba6ac7dbb3b0dcd5abb6</title>
<g id="a_clust2"><a xlink:href="dir_b997c7237227ba6ac7dbb3b0dcd5abb6.html" target="_top">
<polygon fill="#edf0f7" stroke="#404040" stroke-width="2" points="226,-80 226,-420 464,-420 464,-80 226,-80"/>
</a>
</g>
</g>
<!-- dir_0197979fff557feda0433ec01d8934c3 -->
<g id="node1" class="node">
<title>dir_0197979fff557feda0433ec01d8934c3</title>
<g id="a_node1"><a xlink:href="dir_0197979fff557feda0433ec01d8934c3.html" target="_top" xlink:title="Champs">
<polygon fill="#a2b4d6" stroke="#404040" points="267,-52 211,-52 211,-16 267,-16 267,-52"/>
<text text-anchor="middle" x="239" y="-31.5" font-family="Helvetica,sans-Serif" font-size="10.00">Champs</text>
</a>
</g>
</g>
<!-- dir_0fe539761940b9854e54b3f9f72adf5a -->
<g id="node2" class="node">
<title>dir_0fe539761940b9854e54b3f9f72adf5a</title>
<g id="a_node2"><a xlink:href="dir_0fe539761940b9854e54b3f9f72adf5a.html" target="_top" xlink:title="Zones">
<polygon fill="#a2b4d6" stroke="#404040" points="470,-52 416,-52 416,-16 470,-16 470,-52"/>
<text text-anchor="middle" x="443" y="-31.5" font-family="Helvetica,sans-Serif" font-size="10.00">Zones</text>
</a>
</g>
</g>
<!-- dir_c634a2e9fd6c43191e1ba3ab82cd5cdd -->
<g id="node3" class="node">
<title>dir_c634a2e9fd6c43191e1ba3ab82cd5cdd</title>
<g id="a_node3"><a xlink:href="dir_c634a2e9fd6c43191e1ba3ab82cd5cdd.html" target="_top" xlink:title="Cond_Lim">
<polygon fill="#a2b4d6" stroke="#404040" points="537.5,-196 472.5,-196 472.5,-160 537.5,-160 537.5,-196"/>
<text text-anchor="middle" x="505" y="-175.5" font-family="Helvetica,sans-Serif" font-size="10.00">Cond_Lim</text>
</a>
</g>
</g>
<!-- dir_b997c7237227ba6ac7dbb3b0dcd5abb6 -->
<g id="node4" class="node">
<title>dir_b997c7237227ba6ac7dbb3b0dcd5abb6</title>
<text text-anchor="middle" x="420" y="-391.5" font-family="Helvetica,sans-Serif" font-size="10.00">Operateurs</text>
</g>
<!-- dir_e6a29ecdda41fea5fada76bec6ec02e7 -->
<g id="node5" class="node">
<title>dir_e6a29ecdda41fea5fada76bec6ec02e7</title>
<g id="a_node5"><a xlink:href="dir_e6a29ecdda41fea5fada76bec6ec02e7.html" target="_top" xlink:title="Eval_Conv">
<polygon fill="#a2b4d6" stroke="#404040" points="308,-196 240,-196 240,-160 308,-160 308,-196"/>
<text text-anchor="middle" x="274" y="-175.5" font-family="Helvetica,sans-Serif" font-size="10.00">Eval_Conv</text>
</a>
</g>
</g>
<!-- dir_e6a29ecdda41fea5fada76bec6ec02e7&#45;&gt;dir_0197979fff557feda0433ec01d8934c3 -->
<g id="edge1" class="edge">
<title>dir_e6a29ecdda41fea5fada76bec6ec02e7&#45;&gt;dir_0197979fff557feda0433ec01d8934c3</title>
<path fill="none" stroke="black" d="M269.78,-159.87C263.79,-135.56 252.76,-90.82 245.66,-62.01"/>
<polygon fill="black" stroke="black" points="249.03,-61.06 243.24,-52.19 242.23,-62.74 249.03,-61.06"/>
<g id="a_edge1&#45;headlabel"><a xlink:href="dir_000032_000007.html" target="_top" xlink:title="2">
<text text-anchor="middle" x="252.65" y="-61.37" font-family="Helvetica,sans-Serif" font-size="10.00">2</text>
</a>
</g>
</g>
<!-- dir_a91ee8bb42f03e91640e187cda3f14f9 -->
<g id="node7" class="node">
<title>dir_a91ee8bb42f03e91640e187cda3f14f9</title>
<g id="a_node7"><a xlink:href="dir_a91ee8bb42f03e91640e187cda3f14f9.html" target="_top" xlink:title="Eval_Divers">
<polygon fill="#a2b4d6" stroke="#404040" points="414,-124 340,-124 340,-88 414,-88 414,-124"/>
<text text-anchor="middle" x="377" y="-103.5" font-family="Helvetica,sans-Serif" font-size="10.00">Eval_Divers</text>
</a>
</g>
</g>
<!-- dir_e6a29ecdda41fea5fada76bec6ec02e7&#45;&gt;dir_a91ee8bb42f03e91640e187cda3f14f9 -->
<g id="edge3" class="edge">
<title>dir_e6a29ecdda41fea5fada76bec6ec02e7&#45;&gt;dir_a91ee8bb42f03e91640e187cda3f14f9</title>
<path fill="none" stroke="black" d="M299.2,-159.88C312.41,-150.89 328.79,-139.76 343.11,-130.03"/>
<polygon fill="black" stroke="black" points="345.4,-132.71 351.71,-124.19 341.47,-126.92 345.4,-132.71"/>
<g id="a_edge3&#45;headlabel"><a xlink:href="dir_000032_000034.html" target="_top" xlink:title="4">
<text text-anchor="middle" x="344.03" y="-134.57" font-family="Helvetica,sans-Serif" font-size="10.00">4</text>
</a>
</g>
</g>
<!-- dir_4ebb9cf478835123b919db691d6366a3 -->
<g id="node13" class="node">
<title>dir_4ebb9cf478835123b919db691d6366a3</title>
<g id="a_node13"><a xlink:href="dir_4ebb9cf478835123b919db691d6366a3.html" target="_top" xlink:title="Kernel">
<polygon fill="none" stroke="red" stroke-dasharray="5,2" points="700,-52 646,-52 646,-16 700,-16 700,-52"/>
<text text-anchor="middle" x="673" y="-31.5" font-family="Helvetica,sans-Serif" font-size="10.00">Kernel</text>
</a>
</g>
</g>
<!-- dir_e6a29ecdda41fea5fada76bec6ec02e7&#45;&gt;dir_4ebb9cf478835123b919db691d6366a3 -->
<g id="edge2" class="edge">
<title>dir_e6a29ecdda41fea5fada76bec6ec02e7&#45;&gt;dir_4ebb9cf478835123b919db691d6366a3</title>
<path fill="none" stroke="black" d="M308.14,-165.21C338.42,-154.67 383.79,-138.67 423,-124 473.09,-105.26 484.25,-96.88 535,-80 576.82,-66.09 591.13,-68 636.24,-51.95"/>
<polygon fill="black" stroke="black" points="637.5,-55.22 645.69,-48.49 635.1,-48.64 637.5,-55.22"/>
<g id="a_edge2&#45;headlabel"><a xlink:href="dir_000032_000046.html" target="_top" xlink:title="2">
<text text-anchor="middle" x="635.1" y="-56.62" font-family="Helvetica,sans-Serif" font-size="10.00">2</text>
</a>
</g>
</g>
<!-- dir_b91833fa2d528be7aecedeb7fe4eea36 -->
<g id="node14" class="node">
<title>dir_b91833fa2d528be7aecedeb7fe4eea36</title>
<g id="a_node14"><a xlink:href="dir_b91833fa2d528be7aecedeb7fe4eea36.html" target="_top" xlink:title="ThHyd">
<polygon fill="none" stroke="red" stroke-dasharray="5,2" points="122,-52 68,-52 68,-16 122,-16 122,-52"/>
<text text-anchor="middle" x="95" y="-31.5" font-family="Helvetica,sans-Serif" font-size="10.00">ThHyd</text>
</a>
</g>
</g>
<!-- dir_e6a29ecdda41fea5fada76bec6ec02e7&#45;&gt;dir_b91833fa2d528be7aecedeb7fe4eea36 -->
<g id="edge4" class="edge">
<title>dir_e6a29ecdda41fea5fada76bec6ec02e7&#45;&gt;dir_b91833fa2d528be7aecedeb7fe4eea36</title>
<path fill="none" stroke="black" d="M239.79,-171.01C209.77,-164.2 166.56,-150.4 138,-124 119.87,-107.24 108.53,-81.19 102.08,-61.6"/>
<polygon fill="black" stroke="black" points="105.42,-60.56 99.14,-52.03 98.73,-62.62 105.42,-60.56"/>
<g id="a_edge4&#45;headlabel"><a xlink:href="dir_000032_000101.html" target="_top" xlink:title="1">
<text text-anchor="middle" x="109.19" y="-60.67" font-family="Helvetica,sans-Serif" font-size="10.00">1</text>
</a>
</g>
</g>
<!-- dir_1c7744b8583e66b25da22a55e5a85b12 -->
<g id="node6" class="node">
<title>dir_1c7744b8583e66b25da22a55e5a85b12</title>
<g id="a_node6"><a xlink:href="dir_1c7744b8583e66b25da22a55e5a85b12.html" target="_top" xlink:title="Eval_Diff_Dift">
<polygon fill="#a2b4d6" stroke="#404040" points="455.5,-268 372.5,-268 372.5,-232 455.5,-232 455.5,-268"/>
<text text-anchor="middle" x="414" y="-247.5" font-family="Helvetica,sans-Serif" font-size="10.00">Eval_Diff_Dift</text>
</a>
</g>
</g>
<!-- dir_1c7744b8583e66b25da22a55e5a85b12&#45;&gt;dir_0197979fff557feda0433ec01d8934c3 -->
<g id="edge5" class="edge">
<title>dir_1c7744b8583e66b25da22a55e5a85b12&#45;&gt;dir_0197979fff557feda0433ec01d8934c3</title>
<path fill="none" stroke="black" d="M372.36,-239.71C321.08,-227.85 239.64,-207.5 231,-196 201.62,-156.9 216.08,-96.16 228.22,-61.54"/>
<polygon fill="black" stroke="black" points="231.52,-62.7 231.7,-52.1 224.95,-60.27 231.52,-62.7"/>
<g id="a_edge5&#45;headlabel"><a xlink:href="dir_000033_000007.html" target="_top" xlink:title="1">
<text text-anchor="middle" x="232.94" y="-64.55" font-family="Helvetica,sans-Serif" font-size="10.00">1</text>
</a>
</g>
</g>
<!-- dir_1c7744b8583e66b25da22a55e5a85b12&#45;&gt;dir_0fe539761940b9854e54b3f9f72adf5a -->
<g id="edge6" class="edge">
<title>dir_1c7744b8583e66b25da22a55e5a85b12&#45;&gt;dir_0fe539761940b9854e54b3f9f72adf5a</title>
<path fill="none" stroke="black" d="M420.29,-231.57C423.71,-221.34 427.71,-208.09 430,-196 438.76,-149.66 441.62,-94.73 442.55,-62.49"/>
<polygon fill="black" stroke="black" points="446.06,-62.16 442.81,-52.08 439.06,-61.99 446.06,-62.16"/>
<g id="a_edge6&#45;headlabel"><a xlink:href="dir_000033_000122.html" target="_top" xlink:title="5">
<text text-anchor="middle" x="448.81" y="-63.33" font-family="Helvetica,sans-Serif" font-size="10.00">5</text>
</a>
</g>
</g>
<!-- dir_1c7744b8583e66b25da22a55e5a85b12&#45;&gt;dir_c634a2e9fd6c43191e1ba3ab82cd5cdd -->
<g id="edge10" class="edge">
<title>dir_1c7744b8583e66b25da22a55e5a85b12&#45;&gt;dir_c634a2e9fd6c43191e1ba3ab82cd5cdd</title>
<path fill="none" stroke="black" d="M436.49,-231.7C447.96,-222.88 462.06,-212.03 474.48,-202.47"/>
<polygon fill="black" stroke="black" points="476.97,-204.98 482.76,-196.1 472.7,-199.43 476.97,-204.98"/>
<g id="a_edge10&#45;headlabel"><a xlink:href="dir_000033_000019.html" target="_top" xlink:title="1">
<text text-anchor="middle" x="475.85" y="-206.92" font-family="Helvetica,sans-Serif" font-size="10.00">1</text>
</a>
</g>
</g>
<!-- dir_1c7744b8583e66b25da22a55e5a85b12&#45;&gt;dir_a91ee8bb42f03e91640e187cda3f14f9 -->
<g id="edge8" class="edge">
<title>dir_1c7744b8583e66b25da22a55e5a85b12&#45;&gt;dir_a91ee8bb42f03e91640e187cda3f14f9</title>
<path fill="none" stroke="black" d="M420.21,-231.69C425.79,-213.31 431.86,-183.71 423,-160 419.12,-149.62 412.2,-139.93 404.88,-131.74"/>
<polygon fill="black" stroke="black" points="407.27,-129.18 397.82,-124.38 402.22,-134.03 407.27,-129.18"/>
<g id="a_edge8&#45;headlabel"><a xlink:href="dir_000033_000034.html" target="_top" xlink:title="5">
<text text-anchor="middle" x="411.81" y="-127.31" font-family="Helvetica,sans-Serif" font-size="10.00">5</text>
</a>
</g>
</g>
<!-- dir_1c7744b8583e66b25da22a55e5a85b12&#45;&gt;dir_4ebb9cf478835123b919db691d6366a3 -->
<g id="edge7" class="edge">
<title>dir_1c7744b8583e66b25da22a55e5a85b12&#45;&gt;dir_4ebb9cf478835123b919db691d6366a3</title>
<path fill="none" stroke="black" d="M455.72,-248.42C499.54,-245.62 567.97,-234.75 611,-196 621.41,-186.63 649.69,-105.04 664.19,-61.74"/>
<polygon fill="black" stroke="black" points="667.55,-62.71 667.39,-52.12 660.91,-60.5 667.55,-62.71"/>
<g id="a_edge7&#45;headlabel"><a xlink:href="dir_000033_000046.html" target="_top" xlink:title="26">
<text text-anchor="middle" x="669.11" y="-64.52" font-family="Helvetica,sans-Serif" font-size="10.00">26</text>
</a>
</g>
</g>
<!-- dir_1c7744b8583e66b25da22a55e5a85b12&#45;&gt;dir_b91833fa2d528be7aecedeb7fe4eea36 -->
<g id="edge9" class="edge">
<title>dir_1c7744b8583e66b25da22a55e5a85b12&#45;&gt;dir_b91833fa2d528be7aecedeb7fe4eea36</title>
<path fill="none" stroke="black" d="M372.48,-240.76C304.69,-227.21 176.82,-201.19 168,-196 131.36,-174.43 122.16,-162.91 105,-124 96.44,-104.59 94.16,-80.58 93.9,-62.4"/>
<polygon fill="black" stroke="black" points="97.41,-62.2 93.96,-52.18 90.41,-62.16 97.41,-62.2"/>
<g id="a_edge9&#45;headlabel"><a xlink:href="dir_000033_000101.html" target="_top" xlink:title="6">
<text text-anchor="middle" x="100.23" y="-63.31" font-family="Helvetica,sans-Serif" font-size="10.00">6</text>
</a>
</g>
</g>
<!-- dir_a91ee8bb42f03e91640e187cda3f14f9&#45;&gt;dir_0197979fff557feda0433ec01d8934c3 -->
<g id="edge11" class="edge">
<title>dir_a91ee8bb42f03e91640e187cda3f14f9&#45;&gt;dir_0197979fff557feda0433ec01d8934c3</title>
<path fill="none" stroke="black" d="M349.9,-87.89C345.31,-85.16 340.56,-82.44 336,-80 316.62,-69.64 294.43,-59.24 276.16,-51.05"/>
<polygon fill="black" stroke="black" points="277.56,-47.84 267,-46.98 274.72,-54.24 277.56,-47.84"/>
<g id="a_edge11&#45;headlabel"><a xlink:href="dir_000034_000007.html" target="_top" xlink:title="2">
<text text-anchor="middle" x="282" y="-44.21" font-family="Helvetica,sans-Serif" font-size="10.00">2</text>
</a>
</g>
</g>
<!-- dir_a91ee8bb42f03e91640e187cda3f14f9&#45;&gt;dir_0fe539761940b9854e54b3f9f72adf5a -->
<g id="edge12" class="edge">
<title>dir_a91ee8bb42f03e91640e187cda3f14f9&#45;&gt;dir_0fe539761940b9854e54b3f9f72adf5a</title>
<path fill="none" stroke="black" d="M393.31,-87.7C401.31,-79.22 411.07,-68.86 419.82,-59.58"/>
<polygon fill="black" stroke="black" points="422.56,-61.78 426.87,-52.1 417.47,-56.98 422.56,-61.78"/>
<g id="a_edge12&#45;headlabel"><a xlink:href="dir_000034_000122.html" target="_top" xlink:title="3">
<text text-anchor="middle" x="422.16" y="-63.84" font-family="Helvetica,sans-Serif" font-size="10.00">3</text>
</a>
</g>
</g>
<!-- dir_13693299dd61556dbbda8b8a807dfaab -->
<g id="node12" class="node">
<title>dir_13693299dd61556dbbda8b8a807dfaab</title>
<g id="a_node12"><a xlink:href="dir_13693299dd61556dbbda8b8a807dfaab.html" target="_top" xlink:title="ThSol">
<polygon fill="none" stroke="#7f7f7f" points="628,-52 574,-52 574,-16 628,-16 628,-52"/>
<text text-anchor="middle" x="601" y="-31.5" font-family="Helvetica,sans-Serif" font-size="10.00">ThSol</text>
</a>
</g>
</g>
<!-- dir_a91ee8bb42f03e91640e187cda3f14f9&#45;&gt;dir_13693299dd61556dbbda8b8a807dfaab -->
<g id="edge13" class="edge">
<title>dir_a91ee8bb42f03e91640e187cda3f14f9&#45;&gt;dir_13693299dd61556dbbda8b8a807dfaab</title>
<path fill="none" stroke="black" d="M414.12,-97.52C451.45,-89.4 510.59,-74.95 564.49,-54.06"/>
<polygon fill="black" stroke="black" points="565.78,-57.32 573.78,-50.37 563.2,-50.81 565.78,-57.32"/>
<g id="a_edge13&#45;headlabel"><a xlink:href="dir_000034_000102.html" target="_top" xlink:title="2">
<text text-anchor="middle" x="563.49" y="-58.78" font-family="Helvetica,sans-Serif" font-size="10.00">2</text>
</a>
</g>
</g>
<!-- dir_a91ee8bb42f03e91640e187cda3f14f9&#45;&gt;dir_4ebb9cf478835123b919db691d6366a3 -->
<g id="edge14" class="edge">
<title>dir_a91ee8bb42f03e91640e187cda3f14f9&#45;&gt;dir_4ebb9cf478835123b919db691d6366a3</title>
<path fill="none" stroke="black" d="M414.21,-97.93C475.36,-86.24 593.86,-63.27 636.15,-51.6"/>
<polygon fill="black" stroke="black" points="637.2,-54.94 645.76,-48.69 635.18,-48.24 637.2,-54.94"/>
<g id="a_edge14&#45;headlabel"><a xlink:href="dir_000034_000046.html" target="_top" xlink:title="6">
<text text-anchor="middle" x="634.59" y="-56.2" font-family="Helvetica,sans-Serif" font-size="10.00">6</text>
</a>
</g>
</g>
<!-- dir_a91ee8bb42f03e91640e187cda3f14f9&#45;&gt;dir_b91833fa2d528be7aecedeb7fe4eea36 -->
<g id="edge15" class="edge">
<title>dir_a91ee8bb42f03e91640e187cda3f14f9&#45;&gt;dir_b91833fa2d528be7aecedeb7fe4eea36</title>
<path fill="none" stroke="black" d="M339.84,-95.78C285.75,-82.35 185.9,-57.56 131.93,-44.17"/>
<polygon fill="black" stroke="black" points="132.64,-40.74 122.09,-41.72 130.95,-47.53 132.64,-40.74"/>
<g id="a_edge15&#45;headlabel"><a xlink:href="dir_000034_000101.html" target="_top" xlink:title="6">
<text text-anchor="middle" x="136.81" y="-36.35" font-family="Helvetica,sans-Serif" font-size="10.00">6</text>
</a>
</g>
</g>
<!-- dir_2aca9b1822f61dad52b63c72a592d571 -->
<g id="node8" class="node">
<title>dir_2aca9b1822f61dad52b63c72a592d571</title>
<g id="a_node8"><a xlink:href="dir_2aca9b1822f61dad52b63c72a592d571.html" target="_top" xlink:title="Iterateurs">
<polygon fill="#a2b4d6" stroke="#404040" points="325,-340 261,-340 261,-304 325,-304 325,-340"/>
<text text-anchor="middle" x="293" y="-319.5" font-family="Helvetica,sans-Serif" font-size="10.00">Iterateurs</text>
</a>
</g>
</g>
<!-- dir_2aca9b1822f61dad52b63c72a592d571&#45;&gt;dir_0197979fff557feda0433ec01d8934c3 -->
<g id="edge16" class="edge">
<title>dir_2aca9b1822f61dad52b63c72a592d571&#45;&gt;dir_0197979fff557feda0433ec01d8934c3</title>
<path fill="none" stroke="black" d="M269.9,-303.99C258.37,-294.49 245.01,-281.81 236,-268 217.49,-239.63 216.87,-229.36 211,-196 202.07,-145.22 195.44,-129.46 210,-80 211.97,-73.29 215.29,-66.64 219,-60.59"/>
<polygon fill="black" stroke="black" points="221.94,-62.48 224.59,-52.22 216.12,-58.59 221.94,-62.48"/>
<g id="a_edge16&#45;headlabel"><a xlink:href="dir_000043_000007.html" target="_top" xlink:title="1">
<text text-anchor="middle" x="222.31" y="-64.54" font-family="Helvetica,sans-Serif" font-size="10.00">1</text>
</a>
</g>
</g>
<!-- dir_2aca9b1822f61dad52b63c72a592d571&#45;&gt;dir_0fe539761940b9854e54b3f9f72adf5a -->
<g id="edge17" class="edge">
<title>dir_2aca9b1822f61dad52b63c72a592d571&#45;&gt;dir_0fe539761940b9854e54b3f9f72adf5a</title>
<path fill="none" stroke="black" d="M325.39,-317.59C384.67,-309.29 508.08,-281.96 547,-196 570.77,-143.5 514.78,-88.35 476.07,-58.16"/>
<polygon fill="black" stroke="black" points="478.19,-55.38 468.11,-52.11 473.95,-60.95 478.19,-55.38"/>
<g id="a_edge17&#45;headlabel"><a xlink:href="dir_000043_000122.html" target="_top" xlink:title="2">
<text text-anchor="middle" x="482.77" y="-52.79" font-family="Helvetica,sans-Serif" font-size="10.00">2</text>
</a>
</g>
</g>
<!-- dir_2aca9b1822f61dad52b63c72a592d571&#45;&gt;dir_a91ee8bb42f03e91640e187cda3f14f9 -->
<g id="edge19" class="edge">
<title>dir_2aca9b1822f61dad52b63c72a592d571&#45;&gt;dir_a91ee8bb42f03e91640e187cda3f14f9</title>
<path fill="none" stroke="black" d="M272.64,-303.93C253.53,-285.77 229.96,-256.34 245,-232 263.81,-201.57 290.9,-220.47 317,-196 330.51,-183.33 327.83,-175.48 338,-160 344.02,-150.83 351.01,-141.09 357.4,-132.49"/>
<polygon fill="black" stroke="black" points="360.31,-134.43 363.52,-124.33 354.72,-130.23 360.31,-134.43"/>
<g id="a_edge19&#45;headlabel"><a xlink:href="dir_000043_000034.html" target="_top" xlink:title="3">
<text text-anchor="middle" x="360.43" y="-136.51" font-family="Helvetica,sans-Serif" font-size="10.00">3</text>
</a>
</g>
</g>
<!-- dir_e95f542fc4241f0189310ae519dec355 -->
<g id="node9" class="node">
<title>dir_e95f542fc4241f0189310ae519dec355</title>
<g id="a_node9"><a xlink:href="dir_e95f542fc4241f0189310ae519dec355.html" target="_top" xlink:title="Op_Conv">
<polygon fill="#a2b4d6" stroke="#404040" points="314,-268 254,-268 254,-232 314,-232 314,-268"/>
<text text-anchor="middle" x="284" y="-247.5" font-family="Helvetica,sans-Serif" font-size="10.00">Op_Conv</text>
</a>
</g>
</g>
<!-- dir_2aca9b1822f61dad52b63c72a592d571&#45;&gt;dir_e95f542fc4241f0189310ae519dec355 -->
<g id="edge20" class="edge">
<title>dir_2aca9b1822f61dad52b63c72a592d571&#45;&gt;dir_e95f542fc4241f0189310ae519dec355</title>
<path fill="none" stroke="black" d="M284.86,-303.7C283.07,-295.98 281.65,-286.71 280.89,-278.11"/>
<polygon fill="black" stroke="black" points="284.38,-277.88 280.3,-268.1 277.4,-278.29 284.38,-277.88"/>
<g id="a_edge20&#45;headlabel"><a xlink:href="dir_000043_000061.html" target="_top" xlink:title="2">
<text text-anchor="middle" x="287.43" y="-278.8" font-family="Helvetica,sans-Serif" font-size="10.00">2</text>
</a>
</g>
</g>
<!-- dir_2aca9b1822f61dad52b63c72a592d571&#45;&gt;dir_4ebb9cf478835123b919db691d6366a3 -->
<g id="edge18" class="edge">
<title>dir_2aca9b1822f61dad52b63c72a592d571&#45;&gt;dir_4ebb9cf478835123b919db691d6366a3</title>
<path fill="none" stroke="black" d="M325.21,-321.45C379.38,-320.83 490.57,-313.53 570,-268 644.33,-225.39 665.15,-113.85 670.88,-62.09"/>
<polygon fill="black" stroke="black" points="674.37,-62.3 671.88,-52.01 667.41,-61.61 674.37,-62.3"/>
<g id="a_edge18&#45;headlabel"><a xlink:href="dir_000043_000046.html" target="_top" xlink:title="24">
<text text-anchor="middle" x="676.84" y="-63.66" font-family="Helvetica,sans-Serif" font-size="10.00">24</text>
</a>
</g>
</g>
<!-- dir_e95f542fc4241f0189310ae519dec355&#45;&gt;dir_e6a29ecdda41fea5fada76bec6ec02e7 -->
<g id="edge25" class="edge">
<title>dir_e95f542fc4241f0189310ae519dec355&#45;&gt;dir_e6a29ecdda41fea5fada76bec6ec02e7</title>
<path fill="none" stroke="black" d="M281.53,-231.7C280.43,-223.98 279.1,-214.71 277.87,-206.11"/>
<polygon fill="black" stroke="black" points="281.32,-205.51 276.44,-196.1 274.39,-206.5 281.32,-205.51"/>
<g id="a_edge25&#45;headlabel"><a xlink:href="dir_000061_000032.html" target="_top" xlink:title="4">
<text text-anchor="middle" x="284.64" y="-206.17" font-family="Helvetica,sans-Serif" font-size="10.00">4</text>
</a>
</g>
</g>
<!-- dir_e95f542fc4241f0189310ae519dec355&#45;&gt;dir_2aca9b1822f61dad52b63c72a592d571 -->
<g id="edge21" class="edge">
<title>dir_e95f542fc4241f0189310ae519dec355&#45;&gt;dir_2aca9b1822f61dad52b63c72a592d571</title>
<path fill="none" stroke="black" d="M292.09,-268.1C293.89,-275.79 295.32,-285.05 296.09,-293.67"/>
<polygon fill="black" stroke="black" points="292.6,-293.92 296.69,-303.7 299.59,-293.51 292.6,-293.92"/>
<g id="a_edge21&#45;headlabel"><a xlink:href="dir_000061_000043.html" target="_top" xlink:title="4">
<text text-anchor="middle" x="289.55" y="-288.01" font-family="Helvetica,sans-Serif" font-size="10.00">4</text>
</a>
</g>
</g>
<!-- dir_acff013c882e13652555f9d73e2d45f7 -->
<g id="node11" class="node">
<title>dir_acff013c882e13652555f9d73e2d45f7</title>
<g id="a_node11"><a xlink:href="dir_acff013c882e13652555f9d73e2d45f7.html" target="_top" xlink:title="Op_Divers">
<polygon fill="#a2b4d6" stroke="#404040" points="413.5,-196 346.5,-196 346.5,-160 413.5,-160 413.5,-196"/>
<text text-anchor="middle" x="380" y="-175.5" font-family="Helvetica,sans-Serif" font-size="10.00">Op_Divers</text>
</a>
</g>
</g>
<!-- dir_e95f542fc4241f0189310ae519dec355&#45;&gt;dir_acff013c882e13652555f9d73e2d45f7 -->
<g id="edge23" class="edge">
<title>dir_e95f542fc4241f0189310ae519dec355&#45;&gt;dir_acff013c882e13652555f9d73e2d45f7</title>
<path fill="none" stroke="black" d="M307.73,-231.7C319.94,-222.8 334.99,-211.82 348.18,-202.2"/>
<polygon fill="black" stroke="black" points="350.52,-204.82 356.54,-196.1 346.4,-199.17 350.52,-204.82"/>
<g id="a_edge23&#45;headlabel"><a xlink:href="dir_000061_000064.html" target="_top" xlink:title="2">
<text text-anchor="middle" x="349.29" y="-206.74" font-family="Helvetica,sans-Serif" font-size="10.00">2</text>
</a>
</g>
</g>
<!-- dir_e95f542fc4241f0189310ae519dec355&#45;&gt;dir_4ebb9cf478835123b919db691d6366a3 -->
<g id="edge22" class="edge">
<title>dir_e95f542fc4241f0189310ae519dec355&#45;&gt;dir_4ebb9cf478835123b919db691d6366a3</title>
<path fill="none" stroke="black" d="M314.34,-242.28C329.27,-239.04 347.55,-235.18 364,-232 455.25,-214.34 493.65,-249 570,-196 619.09,-161.92 604.47,-129.47 638,-80 642.43,-73.47 647.49,-66.64 652.37,-60.33"/>
<polygon fill="black" stroke="black" points="655.39,-62.15 658.83,-52.13 649.89,-57.82 655.39,-62.15"/>
<g id="a_edge22&#45;headlabel"><a xlink:href="dir_000061_000046.html" target="_top" xlink:title="7">
<text text-anchor="middle" x="655.4" y="-64.23" font-family="Helvetica,sans-Serif" font-size="10.00">7</text>
</a>
</g>
</g>
<!-- dir_e95f542fc4241f0189310ae519dec355&#45;&gt;dir_b91833fa2d528be7aecedeb7fe4eea36 -->
<g id="edge24" class="edge">
<title>dir_e95f542fc4241f0189310ae519dec355&#45;&gt;dir_b91833fa2d528be7aecedeb7fe4eea36</title>
<path fill="none" stroke="black" d="M253.73,-246.32C198.66,-240.74 85.57,-225.86 62,-196 30.06,-155.53 45.96,-129 62,-80 64.23,-73.2 67.92,-66.57 72.04,-60.59"/>
<polygon fill="black" stroke="black" points="75.04,-62.42 78.28,-52.33 69.46,-58.2 75.04,-62.42"/>
<g id="a_edge24&#45;headlabel"><a xlink:href="dir_000061_000101.html" target="_top" xlink:title="1">
<text text-anchor="middle" x="75.14" y="-64.5" font-family="Helvetica,sans-Serif" font-size="10.00">1</text>
</a>
</g>
</g>
<!-- dir_3e34adaf9afb9a826894bc7b9aa55c33 -->
<g id="node10" class="node">
<title>dir_3e34adaf9afb9a826894bc7b9aa55c33</title>
<g id="a_node10"><a xlink:href="dir_3e34adaf9afb9a826894bc7b9aa55c33.html" target="_top" xlink:title="Op_Diff_Dift">
<polygon fill="#a2b4d6" stroke="#404040" points="366.5,-412 291.5,-412 291.5,-376 366.5,-376 366.5,-412"/>
<text text-anchor="middle" x="329" y="-391.5" font-family="Helvetica,sans-Serif" font-size="10.00">Op_Diff_Dift</text>
</a>
</g>
</g>
<!-- dir_3e34adaf9afb9a826894bc7b9aa55c33&#45;&gt;dir_0197979fff557feda0433ec01d8934c3 -->
<g id="edge26" class="edge">
<title>dir_3e34adaf9afb9a826894bc7b9aa55c33&#45;&gt;dir_0197979fff557feda0433ec01d8934c3</title>
<path fill="none" stroke="black" d="M291.27,-376.76C247.42,-355.04 181,-312.07 181,-251 181,-251 181,-251 181,-177 181,-133.31 177.71,-119.21 197,-80 200.58,-72.72 205.73,-65.8 211.21,-59.66"/>
<polygon fill="black" stroke="black" points="213.83,-61.99 218.23,-52.35 208.78,-57.14 213.83,-61.99"/>
<g id="a_edge26&#45;headlabel"><a xlink:href="dir_000062_000007.html" target="_top" xlink:title="4">
<text text-anchor="middle" x="213.39" y="-64.05" font-family="Helvetica,sans-Serif" font-size="10.00">4</text>
</a>
</g>
</g>
<!-- dir_3e34adaf9afb9a826894bc7b9aa55c33&#45;&gt;dir_c634a2e9fd6c43191e1ba3ab82cd5cdd -->
<g id="edge31" class="edge">
<title>dir_3e34adaf9afb9a826894bc7b9aa55c33&#45;&gt;dir_c634a2e9fd6c43191e1ba3ab82cd5cdd</title>
<path fill="none" stroke="black" d="M352.89,-375.91C382.43,-353.78 432.73,-312.73 465,-268 478.8,-248.87 489.42,-224.23 496.24,-205.72"/>
<polygon fill="black" stroke="black" points="499.59,-206.74 499.63,-196.15 492.99,-204.41 499.59,-206.74"/>
<g id="a_edge31&#45;headlabel"><a xlink:href="dir_000062_000019.html" target="_top" xlink:title="2">
<text text-anchor="middle" x="501.06" y="-208.58" font-family="Helvetica,sans-Serif" font-size="10.00">2</text>
</a>
</g>
</g>
<!-- dir_3e34adaf9afb9a826894bc7b9aa55c33&#45;&gt;dir_1c7744b8583e66b25da22a55e5a85b12 -->
<g id="edge27" class="edge">
<title>dir_3e34adaf9afb9a826894bc7b9aa55c33&#45;&gt;dir_1c7744b8583e66b25da22a55e5a85b12</title>
<path fill="none" stroke="black" d="M339.25,-375.87C353.99,-351.24 381.29,-305.64 398.51,-276.88"/>
<polygon fill="black" stroke="black" points="401.58,-278.57 403.71,-268.19 395.57,-274.97 401.58,-278.57"/>
<g id="a_edge27&#45;headlabel"><a xlink:href="dir_000062_000033.html" target="_top" xlink:title="9">
<text text-anchor="middle" x="402.17" y="-280.61" font-family="Helvetica,sans-Serif" font-size="10.00">9</text>
</a>
</g>
</g>
<!-- dir_3e34adaf9afb9a826894bc7b9aa55c33&#45;&gt;dir_2aca9b1822f61dad52b63c72a592d571 -->
<g id="edge28" class="edge">
<title>dir_3e34adaf9afb9a826894bc7b9aa55c33&#45;&gt;dir_2aca9b1822f61dad52b63c72a592d571</title>
<path fill="none" stroke="black" d="M320.1,-375.7C316,-367.73 311.05,-358.1 306.51,-349.26"/>
<polygon fill="black" stroke="black" points="309.48,-347.4 301.8,-340.1 303.26,-350.6 309.48,-347.4"/>
<g id="a_edge28&#45;headlabel"><a xlink:href="dir_000062_000043.html" target="_top" xlink:title="7">
<text text-anchor="middle" x="313.65" y="-346.79" font-family="Helvetica,sans-Serif" font-size="10.00">7</text>
</a>
</g>
</g>
<!-- dir_3e34adaf9afb9a826894bc7b9aa55c33&#45;&gt;dir_acff013c882e13652555f9d73e2d45f7 -->
<g id="edge32" class="edge">
<title>dir_3e34adaf9afb9a826894bc7b9aa55c33&#45;&gt;dir_acff013c882e13652555f9d73e2d45f7</title>
<path fill="none" stroke="black" d="M332.24,-375.97C337.96,-346.48 350.51,-284.06 364,-232 366.23,-223.4 368.93,-214.1 371.48,-205.73"/>
<polygon fill="black" stroke="black" points="374.85,-206.68 374.47,-196.09 368.16,-204.61 374.85,-206.68"/>
<g id="a_edge32&#45;headlabel"><a xlink:href="dir_000062_000064.html" target="_top" xlink:title="4">
<text text-anchor="middle" x="376.5" y="-208.45" font-family="Helvetica,sans-Serif" font-size="10.00">4</text>
</a>
</g>
</g>
<!-- dir_3e34adaf9afb9a826894bc7b9aa55c33&#45;&gt;dir_4ebb9cf478835123b919db691d6366a3 -->
<g id="edge29" class="edge">
<title>dir_3e34adaf9afb9a826894bc7b9aa55c33&#45;&gt;dir_4ebb9cf478835123b919db691d6366a3</title>
<path fill="none" stroke="black" d="M366.54,-378.81C369.72,-377.8 372.9,-376.84 376,-376 529.36,-334.34 711,-409.92 711,-251 711,-251 711,-251 711,-177 711,-135.63 695.77,-89.72 684.59,-61.61"/>
<polygon fill="black" stroke="black" points="687.72,-60.02 680.69,-52.09 681.24,-62.67 687.72,-60.02"/>
<g id="a_edge29&#45;headlabel"><a xlink:href="dir_000062_000046.html" target="_top" xlink:title="17">
<text text-anchor="middle" x="691.71" y="-59.77" font-family="Helvetica,sans-Serif" font-size="10.00">17</text>
</a>
</g>
</g>
<!-- dir_3e34adaf9afb9a826894bc7b9aa55c33&#45;&gt;dir_b91833fa2d528be7aecedeb7fe4eea36 -->
<g id="edge30" class="edge">
<title>dir_3e34adaf9afb9a826894bc7b9aa55c33&#45;&gt;dir_b91833fa2d528be7aecedeb7fe4eea36</title>
<path fill="none" stroke="black" d="M291.26,-393.49C204.84,-392.43 0,-376.67 0,-251 0,-251 0,-251 0,-177 0,-129.66 15.85,-118.06 44,-80 49.67,-72.33 56.84,-65.02 64,-58.61"/>
<polygon fill="black" stroke="black" points="66.37,-61.19 71.69,-52.02 61.82,-55.87 66.37,-61.19"/>
<g id="a_edge30&#45;headlabel"><a xlink:href="dir_000062_000101.html" target="_top" xlink:title="6">
<text text-anchor="middle" x="65.49" y="-63.18" font-family="Helvetica,sans-Serif" font-size="10.00">6</text>
</a>
</g>
</g>
<!-- dir_acff013c882e13652555f9d73e2d45f7&#45;&gt;dir_0197979fff557feda0433ec01d8934c3 -->
<g id="edge33" class="edge">
<title>dir_acff013c882e13652555f9d73e2d45f7&#45;&gt;dir_0197979fff557feda0433ec01d8934c3</title>
<path fill="none" stroke="black" d="M362.99,-159.87C338.11,-134.82 291.68,-88.05 263.23,-59.41"/>
<polygon fill="black" stroke="black" points="265.6,-56.82 256.07,-52.19 260.63,-61.75 265.6,-56.82"/>
<g id="a_edge33&#45;headlabel"><a xlink:href="dir_000064_000007.html" target="_top" xlink:title="1">
<text text-anchor="middle" x="270.15" y="-54.87" font-family="Helvetica,sans-Serif" font-size="10.00">1</text>
</a>
</g>
</g>
<!-- dir_acff013c882e13652555f9d73e2d45f7&#45;&gt;dir_0fe539761940b9854e54b3f9f72adf5a -->
<g id="edge34" class="edge">
<title>dir_acff013c882e13652555f9d73e2d45f7&#45;&gt;dir_0fe539761940b9854e54b3f9f72adf5a</title>
<path fill="none" stroke="black" d="M397.4,-159.8C406.3,-150.07 416.59,-137.22 423,-124 432.47,-104.46 437.53,-80.33 440.19,-62.12"/>
<polygon fill="black" stroke="black" points="443.67,-62.54 441.5,-52.17 436.73,-61.63 443.67,-62.54"/>
<g id="a_edge34&#45;headlabel"><a xlink:href="dir_000064_000122.html" target="_top" xlink:title="11">
<text text-anchor="middle" x="446.02" y="-63.97" font-family="Helvetica,sans-Serif" font-size="10.00">11</text>
</a>
</g>
</g>
<!-- dir_acff013c882e13652555f9d73e2d45f7&#45;&gt;dir_a91ee8bb42f03e91640e187cda3f14f9 -->
<g id="edge37" class="edge">
<title>dir_acff013c882e13652555f9d73e2d45f7&#45;&gt;dir_a91ee8bb42f03e91640e187cda3f14f9</title>
<path fill="none" stroke="black" d="M379.26,-159.7C378.93,-151.98 378.53,-142.71 378.16,-134.11"/>
<polygon fill="black" stroke="black" points="381.66,-133.95 377.73,-124.1 374.66,-134.25 381.66,-133.95"/>
<g id="a_edge37&#45;headlabel"><a xlink:href="dir_000064_000034.html" target="_top" xlink:title="1">
<text text-anchor="middle" x="384.65" y="-134.92" font-family="Helvetica,sans-Serif" font-size="10.00">1</text>
</a>
</g>
</g>
<!-- dir_acff013c882e13652555f9d73e2d45f7&#45;&gt;dir_2aca9b1822f61dad52b63c72a592d571 -->
<g id="edge35" class="edge">
<title>dir_acff013c882e13652555f9d73e2d45f7&#45;&gt;dir_2aca9b1822f61dad52b63c72a592d571</title>
<path fill="none" stroke="black" d="M369.47,-196.19C354.36,-220.85 326.41,-266.46 308.82,-295.19"/>
<polygon fill="black" stroke="black" points="305.73,-293.52 303.49,-303.87 311.7,-297.17 305.73,-293.52"/>
<g id="a_edge35&#45;headlabel"><a xlink:href="dir_000064_000043.html" target="_top" xlink:title="3">
<text text-anchor="middle" x="305.19" y="-286.47" font-family="Helvetica,sans-Serif" font-size="10.00">3</text>
</a>
</g>
</g>
<!-- dir_acff013c882e13652555f9d73e2d45f7&#45;&gt;dir_4ebb9cf478835123b919db691d6366a3 -->
<g id="edge36" class="edge">
<title>dir_acff013c882e13652555f9d73e2d45f7&#45;&gt;dir_4ebb9cf478835123b919db691d6366a3</title>
<path fill="none" stroke="black" d="M413.89,-161.59C415.27,-161.04 416.65,-160.51 418,-160 468.93,-140.86 487.79,-151.04 535,-124 560.11,-109.61 559.16,-96.41 583,-80 587.96,-76.58 613.73,-63.78 636.42,-52.69"/>
<polygon fill="black" stroke="black" points="638.11,-55.77 645.57,-48.24 635.04,-49.47 638.11,-55.77"/>
<g id="a_edge36&#45;headlabel"><a xlink:href="dir_000064_000046.html" target="_top" xlink:title="34">
<text text-anchor="middle" x="636.12" y="-57.39" font-family="Helvetica,sans-Serif" font-size="10.00">34</text>
</a>
</g>
</g>
<!-- dir_acff013c882e13652555f9d73e2d45f7&#45;&gt;dir_b91833fa2d528be7aecedeb7fe4eea36 -->
<g id="edge38" class="edge">
<title>dir_acff013c882e13652555f9d73e2d45f7&#45;&gt;dir_b91833fa2d528be7aecedeb7fe4eea36</title>
<path fill="none" stroke="black" d="M346.37,-167.75C336.88,-165.19 326.55,-162.44 317,-160 251,-143.12 224.34,-162.3 168,-124 148.22,-110.55 152.09,-98.57 137,-80 131.38,-73.09 124.97,-65.9 118.87,-59.36"/>
<polygon fill="black" stroke="black" points="121.35,-56.88 111.93,-52.02 116.26,-61.69 121.35,-56.88"/>
<g id="a_edge38&#45;headlabel"><a xlink:href="dir_000064_000101.html" target="_top" xlink:title="2">
<text text-anchor="middle" x="125.88" y="-55.04" font-family="Helvetica,sans-Serif" font-size="10.00">2</text>
</a>
</g>
</g>
</g>
</svg>
