<?xml version="1.0" encoding="UTF-8" standalone="no"?>
<!DOCTYPE svg PUBLIC "-//W3C//DTD SVG 1.1//EN"
 "http://www.w3.org/Graphics/SVG/1.1/DTD/svg11.dtd">
<!-- Generated by graphviz version 2.43.0 (0)
 -->
<!-- Title: src/ThHyd/Dilatable Pages: 1 -->
<svg width="732pt" height="247pt"
 viewBox="0.00 0.00 732.00 247.00" xmlns="http://www.w3.org/2000/svg" xmlns:xlink="http://www.w3.org/1999/xlink">
<g id="graph0" class="graph" transform="scale(1 1) rotate(0) translate(4 243)">
<title>src/ThHyd/Dilatable</title>
<polygon fill="white" stroke="transparent" points="-4,4 -4,-243 728,-243 728,4 -4,4"/>
<g id="clust1" class="cluster">
<title>clusterdir_b91833fa2d528be7aecedeb7fe4eea36</title>
<g id="a_clust1"><a xlink:href="dir_b91833fa2d528be7aecedeb7fe4eea36.html" target="_top" xlink:title="ThHyd">
<polygon fill="#edf0f7" stroke="#7f7f7f" stroke-dasharray="5,2" points="62,-8 62,-231 366,-231 366,-8 62,-8"/>
<text text-anchor="middle" x="214" y="-219" font-family="Helvetica,sans-Serif" font-size="10.00">ThHyd</text>
</a>
</g>
</g>
<g id="clust2" class="cluster">
<title>clusterdir_5d28da4b4effe2eecad4a7a42f298a36</title>
<g id="a_clust2"><a xlink:href="dir_5d28da4b4effe2eecad4a7a42f298a36.html" target="_top">
<polygon fill="#edf0f7" stroke="#404040" stroke-width="2" points="82,-80 82,-204 358,-204 358,-80 82,-80"/>
</a>
</g>
</g>
<!-- dir_51a21c0b7437cb7a9315edf40b46e55a -->
<g id="node1" class="node">
<title>dir_51a21c0b7437cb7a9315edf40b46e55a</title>
<g id="a_node1"><a xlink:href="dir_51a21c0b7437cb7a9315edf40b46e55a.html" target="_top" xlink:title="Incompressible">
<polygon fill="#a2b4d6" stroke="red" points="198.5,-52 107.5,-52 107.5,-16 198.5,-16 198.5,-52"/>
<text text-anchor="middle" x="153" y="-31.5" font-family="Helvetica,sans-Serif" font-size="10.00">Incompressible</text>
</a>
</g>
</g>
<!-- dir_5d28da4b4effe2eecad4a7a42f298a36 -->
<g id="node2" class="node">
<title>dir_5d28da4b4effe2eecad4a7a42f298a36</title>
<text text-anchor="middle" x="319" y="-175.5" font-family="Helvetica,sans-Serif" font-size="10.00">Dilatable</text>
</g>
<!-- dir_34af9566fa953ec4d674e053f3791c3c -->
<g id="node3" class="node">
<title>dir_34af9566fa953ec4d674e053f3791c3c</title>
<g id="a_node3"><a xlink:href="dir_34af9566fa953ec4d674e053f3791c3c.html" target="_top" xlink:title="Common">
<polygon fill="#a2b4d6" stroke="#404040" points="270.5,-196 209.5,-196 209.5,-160 270.5,-160 270.5,-196"/>
<text text-anchor="middle" x="240" y="-175.5" font-family="Helvetica,sans-Serif" font-size="10.00">Common</text>
</a>
</g>
</g>
<!-- dir_34af9566fa953ec4d674e053f3791c3c&#45;&gt;dir_51a21c0b7437cb7a9315edf40b46e55a -->
<g id="edge3" class="edge">
<title>dir_34af9566fa953ec4d674e053f3791c3c&#45;&gt;dir_51a21c0b7437cb7a9315edf40b46e55a</title>
<path fill="none" stroke="black" d="M209.19,-176.65C172.04,-174.38 110.97,-164.28 82,-124 70.58,-108.12 72.57,-97.13 82,-80 86.91,-71.08 94.41,-63.68 102.73,-57.64"/>
<polygon fill="black" stroke="black" points="104.82,-60.45 111.26,-52.04 100.98,-54.6 104.82,-60.45"/>
<g id="a_edge3&#45;headlabel"><a xlink:href="dir_000012_000041.html" target="_top" xlink:title="21">
<text text-anchor="middle" x="103.38" y="-62.3" font-family="Helvetica,sans-Serif" font-size="10.00">21</text>
</a>
</g>
</g>
<!-- dir_ff1c0327015213079e47006da0573e6e -->
<g id="node4" class="node">
<title>dir_ff1c0327015213079e47006da0573e6e</title>
<g id="a_node4"><a xlink:href="dir_ff1c0327015213079e47006da0573e6e.html" target="_top" xlink:title="Quasi_Compressible">
<polygon fill="#a2b4d6" stroke="#404040" points="350,-124 234,-124 234,-88 350,-88 350,-124"/>
<text text-anchor="middle" x="292" y="-103.5" font-family="Helvetica,sans-Serif" font-size="10.00">Quasi_Compressible</text>
</a>
</g>
</g>
<!-- dir_34af9566fa953ec4d674e053f3791c3c&#45;&gt;dir_ff1c0327015213079e47006da0573e6e -->
<g id="edge5" class="edge">
<title>dir_34af9566fa953ec4d674e053f3791c3c&#45;&gt;dir_ff1c0327015213079e47006da0573e6e</title>
<path fill="none" stroke="black" d="M246.94,-159.7C252.31,-151.3 259.72,-141.07 267.04,-131.86"/>
<polygon fill="black" stroke="black" points="269.77,-134.06 273.4,-124.1 264.35,-129.62 269.77,-134.06"/>
<g id="a_edge5&#45;headlabel"><a xlink:href="dir_000012_000079.html" target="_top" xlink:title="4">
<text text-anchor="middle" x="269.68" y="-136.14" font-family="Helvetica,sans-Serif" font-size="10.00">4</text>
</a>
</g>
</g>
<!-- dir_f68ca564a2e143a4f6bd7b58dc1f43b7 -->
<g id="node5" class="node">
<title>dir_f68ca564a2e143a4f6bd7b58dc1f43b7</title>
<g id="a_node5"><a xlink:href="dir_f68ca564a2e143a4f6bd7b58dc1f43b7.html" target="_top" xlink:title="Weakly_Compressible">
<polygon fill="#a2b4d6" stroke="#404040" points="215.5,-124 90.5,-124 90.5,-88 215.5,-88 215.5,-124"/>
<text text-anchor="middle" x="153" y="-103.5" font-family="Helvetica,sans-Serif" font-size="10.00">Weakly_Compressible</text>
</a>
</g>
</g>
<!-- dir_34af9566fa953ec4d674e053f3791c3c&#45;&gt;dir_f68ca564a2e143a4f6bd7b58dc1f43b7 -->
<g id="edge4" class="edge">
<title>dir_34af9566fa953ec4d674e053f3791c3c&#45;&gt;dir_f68ca564a2e143a4f6bd7b58dc1f43b7</title>
<path fill="none" stroke="black" d="M212.58,-159.7C200.83,-150.97 187.33,-140.24 176.09,-130.75"/>
<polygon fill="black" stroke="black" points="178.23,-127.97 168.36,-124.1 173.66,-133.28 178.23,-127.97"/>
<g id="a_edge4&#45;headlabel"><a xlink:href="dir_000012_000117.html" target="_top" xlink:title="2">
<text text-anchor="middle" x="182.8" y="-125.66" font-family="Helvetica,sans-Serif" font-size="10.00">2</text>
</a>
</g>
</g>
<!-- dir_13693299dd61556dbbda8b8a807dfaab -->
<g id="node6" class="node">
<title>dir_13693299dd61556dbbda8b8a807dfaab</title>
<g id="a_node6"><a xlink:href="dir_13693299dd61556dbbda8b8a807dfaab.html" target="_top" xlink:title="ThSol">
<polygon fill="none" stroke="#7f7f7f" points="500,-52 446,-52 446,-16 500,-16 500,-52"/>
<text text-anchor="middle" x="473" y="-31.5" font-family="Helvetica,sans-Serif" font-size="10.00">ThSol</text>
</a>
</g>
</g>
<!-- dir_34af9566fa953ec4d674e053f3791c3c&#45;&gt;dir_13693299dd61556dbbda8b8a807dfaab -->
<g id="edge2" class="edge">
<title>dir_34af9566fa953ec4d674e053f3791c3c&#45;&gt;dir_13693299dd61556dbbda8b8a807dfaab</title>
<path fill="none" stroke="black" d="M270.92,-163.59C273.97,-162.35 277.04,-161.13 280,-160 326.48,-142.26 343.9,-150.52 386,-124 413.04,-106.97 437.87,-79.92 454.02,-60.11"/>
<polygon fill="black" stroke="black" points="456.9,-62.11 460.39,-52.11 451.42,-57.75 456.9,-62.11"/>
<g id="a_edge2&#45;headlabel"><a xlink:href="dir_000012_000102.html" target="_top" xlink:title="1">
<text text-anchor="middle" x="456.88" y="-64.19" font-family="Helvetica,sans-Serif" font-size="10.00">1</text>
</a>
</g>
</g>
<!-- dir_4ebb9cf478835123b919db691d6366a3 -->
<g id="node7" class="node">
<title>dir_4ebb9cf478835123b919db691d6366a3</title>
<g id="a_node7"><a xlink:href="dir_4ebb9cf478835123b919db691d6366a3.html" target="_top" xlink:title="Kernel">
<polygon fill="none" stroke="red" stroke-dasharray="5,2" points="428,-52 374,-52 374,-16 428,-16 428,-52"/>
<text text-anchor="middle" x="401" y="-31.5" font-family="Helvetica,sans-Serif" font-size="10.00">Kernel</text>
</a>
</g>
</g>
<!-- dir_34af9566fa953ec4d674e053f3791c3c&#45;&gt;dir_4ebb9cf478835123b919db691d6366a3 -->
<g id="edge1" class="edge">
<title>dir_34af9566fa953ec4d674e053f3791c3c&#45;&gt;dir_4ebb9cf478835123b919db691d6366a3</title>
<path fill="none" stroke="black" d="M270.71,-163.95C304.82,-149.37 355.58,-127.34 359,-124 376.39,-106.99 387.43,-81.36 393.8,-61.97"/>
<polygon fill="black" stroke="black" points="397.21,-62.79 396.8,-52.2 390.52,-60.74 397.21,-62.79"/>
<g id="a_edge1&#45;headlabel"><a xlink:href="dir_000012_000046.html" target="_top" xlink:title="142">
<text text-anchor="middle" x="398.87" y="-64.56" font-family="Helvetica,sans-Serif" font-size="10.00">142</text>
</a>
</g>
</g>
<!-- dir_f999ad8736097ebdc524243ad7f1213b -->
<g id="node9" class="node">
<title>dir_f999ad8736097ebdc524243ad7f1213b</title>
<g id="a_node9"><a xlink:href="dir_f999ad8736097ebdc524243ad7f1213b.html" target="_top" xlink:title="VDF">
<polygon fill="none" stroke="red" stroke-dasharray="5,2" points="572,-52 518,-52 518,-16 572,-16 572,-52"/>
<text text-anchor="middle" x="545" y="-31.5" font-family="Helvetica,sans-Serif" font-size="10.00">VDF</text>
</a>
</g>
</g>
<!-- dir_34af9566fa953ec4d674e053f3791c3c&#45;&gt;dir_f999ad8736097ebdc524243ad7f1213b -->
<g id="edge6" class="edge">
<title>dir_34af9566fa953ec4d674e053f3791c3c&#45;&gt;dir_f999ad8736097ebdc524243ad7f1213b</title>
<path fill="none" stroke="black" d="M270.82,-163.33C273.9,-162.14 277,-161.01 280,-160 342.55,-139.03 364.3,-152.07 424,-124 459.67,-107.22 495.41,-79.22 518.7,-59.11"/>
<polygon fill="black" stroke="black" points="521.19,-61.58 526.39,-52.35 516.57,-56.32 521.19,-61.58"/>
<g id="a_edge6&#45;headlabel"><a xlink:href="dir_000012_000111.html" target="_top" xlink:title="7">
<text text-anchor="middle" x="520.36" y="-63.58" font-family="Helvetica,sans-Serif" font-size="10.00">7</text>
</a>
</g>
</g>
<!-- dir_4d89ae13008c55530f0314bd22416f9b -->
<g id="node10" class="node">
<title>dir_4d89ae13008c55530f0314bd22416f9b</title>
<g id="a_node10"><a xlink:href="dir_4d89ae13008c55530f0314bd22416f9b.html" target="_top" xlink:title="P1NCP1B">
<polygon fill="none" stroke="red" stroke-dasharray="5,2" points="652,-52 590,-52 590,-16 652,-16 652,-52"/>
<text text-anchor="middle" x="621" y="-31.5" font-family="Helvetica,sans-Serif" font-size="10.00">P1NCP1B</text>
</a>
</g>
</g>
<!-- dir_34af9566fa953ec4d674e053f3791c3c&#45;&gt;dir_4d89ae13008c55530f0314bd22416f9b -->
<g id="edge7" class="edge">
<title>dir_34af9566fa953ec4d674e053f3791c3c&#45;&gt;dir_4d89ae13008c55530f0314bd22416f9b</title>
<path fill="none" stroke="black" d="M270.76,-163.15C273.85,-161.99 276.97,-160.92 280,-160 363.1,-134.87 390.8,-154.74 472,-124 515.41,-107.56 560.54,-78.68 589.59,-58.28"/>
<polygon fill="black" stroke="black" points="591.95,-60.89 598.07,-52.24 587.89,-55.19 591.95,-60.89"/>
<g id="a_edge7&#45;headlabel"><a xlink:href="dir_000012_000072.html" target="_top" xlink:title="1">
<text text-anchor="middle" x="590.67" y="-62.79" font-family="Helvetica,sans-Serif" font-size="10.00">1</text>
</a>
</g>
</g>
<!-- dir_2bf20327eb8d166f9acb0c9b72854f51 -->
<g id="node11" class="node">
<title>dir_2bf20327eb8d166f9acb0c9b72854f51</title>
<g id="a_node11"><a xlink:href="dir_2bf20327eb8d166f9acb0c9b72854f51.html" target="_top" xlink:title="VEF">
<polygon fill="none" stroke="red" stroke-dasharray="5,2" points="724,-52 670,-52 670,-16 724,-16 724,-52"/>
<text text-anchor="middle" x="697" y="-31.5" font-family="Helvetica,sans-Serif" font-size="10.00">VEF</text>
</a>
</g>
</g>
<!-- dir_34af9566fa953ec4d674e053f3791c3c&#45;&gt;dir_2bf20327eb8d166f9acb0c9b72854f51 -->
<g id="edge8" class="edge">
<title>dir_34af9566fa953ec4d674e053f3791c3c&#45;&gt;dir_2bf20327eb8d166f9acb0c9b72854f51</title>
<path fill="none" stroke="black" d="M270.73,-163.02C273.82,-161.89 276.95,-160.86 280,-160 386.82,-130.06 421.47,-158.21 527,-124 576.53,-107.94 628.95,-78.31 662.27,-57.67"/>
<polygon fill="black" stroke="black" points="664.53,-60.39 671.14,-52.11 660.81,-54.46 664.53,-60.39"/>
<g id="a_edge8&#45;headlabel"><a xlink:href="dir_000012_000115.html" target="_top" xlink:title="6">
<text text-anchor="middle" x="662.99" y="-62.2" font-family="Helvetica,sans-Serif" font-size="10.00">6</text>
</a>
</g>
</g>
<!-- dir_ff1c0327015213079e47006da0573e6e&#45;&gt;dir_51a21c0b7437cb7a9315edf40b46e55a -->
<g id="edge12" class="edge">
<title>dir_ff1c0327015213079e47006da0573e6e&#45;&gt;dir_51a21c0b7437cb7a9315edf40b46e55a</title>
<path fill="none" stroke="black" d="M258,-87.88C239.4,-78.51 216.17,-66.81 196.29,-56.8"/>
<polygon fill="black" stroke="black" points="197.64,-53.56 187.13,-52.19 194.49,-59.81 197.64,-53.56"/>
<g id="a_edge12&#45;headlabel"><a xlink:href="dir_000079_000041.html" target="_top" xlink:title="13">
<text text-anchor="middle" x="202.13" y="-50.14" font-family="Helvetica,sans-Serif" font-size="10.00">13</text>
</a>
</g>
</g>
<!-- dir_ff1c0327015213079e47006da0573e6e&#45;&gt;dir_34af9566fa953ec4d674e053f3791c3c -->
<g id="edge10" class="edge">
<title>dir_ff1c0327015213079e47006da0573e6e&#45;&gt;dir_34af9566fa953ec4d674e053f3791c3c</title>
<path fill="none" stroke="black" d="M285.19,-124.1C279.85,-132.47 272.46,-142.69 265.13,-151.92"/>
<polygon fill="black" stroke="black" points="262.39,-149.74 258.77,-159.7 267.81,-154.17 262.39,-149.74"/>
<g id="a_edge10&#45;headlabel"><a xlink:href="dir_000079_000012.html" target="_top" xlink:title="27">
<text text-anchor="middle" x="262.47" y="-142.66" font-family="Helvetica,sans-Serif" font-size="10.00">27</text>
</a>
</g>
</g>
<!-- dir_ff1c0327015213079e47006da0573e6e&#45;&gt;dir_13693299dd61556dbbda8b8a807dfaab -->
<g id="edge9" class="edge">
<title>dir_ff1c0327015213079e47006da0573e6e&#45;&gt;dir_13693299dd61556dbbda8b8a807dfaab</title>
<path fill="none" stroke="black" d="M342.09,-87.95C368.03,-78.84 400.32,-67.04 436.67,-51.98"/>
<polygon fill="black" stroke="black" points="438.12,-55.16 445.99,-48.08 435.42,-48.71 438.12,-55.16"/>
<g id="a_edge9&#45;headlabel"><a xlink:href="dir_000079_000102.html" target="_top" xlink:title="1">
<text text-anchor="middle" x="435.9" y="-56.67" font-family="Helvetica,sans-Serif" font-size="10.00">1</text>
</a>
</g>
</g>
<!-- dir_ff1c0327015213079e47006da0573e6e&#45;&gt;dir_4ebb9cf478835123b919db691d6366a3 -->
<g id="edge11" class="edge">
<title>dir_ff1c0327015213079e47006da0573e6e&#45;&gt;dir_4ebb9cf478835123b919db691d6366a3</title>
<path fill="none" stroke="black" d="M318.66,-87.88C332.78,-78.81 350.31,-67.55 365.56,-57.76"/>
<polygon fill="black" stroke="black" points="367.71,-60.54 374.23,-52.19 363.93,-54.65 367.71,-60.54"/>
<g id="a_edge11&#45;headlabel"><a xlink:href="dir_000079_000046.html" target="_top" xlink:title="102">
<text text-anchor="middle" x="366.22" y="-62.37" font-family="Helvetica,sans-Serif" font-size="10.00">102</text>
</a>
</g>
</g>
<!-- dir_ce5762a3948b7336bc5fa1d84acdd0a9 -->
<g id="node8" class="node">
<title>dir_ce5762a3948b7336bc5fa1d84acdd0a9</title>
<g id="a_node8"><a xlink:href="dir_ce5762a3948b7336bc5fa1d84acdd0a9.html" target="_top" xlink:title="EF">
<polygon fill="none" stroke="red" stroke-dasharray="5,2" points="54,-52 0,-52 0,-16 54,-16 54,-52"/>
<text text-anchor="middle" x="27" y="-31.5" font-family="Helvetica,sans-Serif" font-size="10.00">EF</text>
</a>
</g>
</g>
<!-- dir_ff1c0327015213079e47006da0573e6e&#45;&gt;dir_ce5762a3948b7336bc5fa1d84acdd0a9 -->
<g id="edge13" class="edge">
<title>dir_ff1c0327015213079e47006da0573e6e&#45;&gt;dir_ce5762a3948b7336bc5fa1d84acdd0a9</title>
<path fill="none" stroke="black" d="M249.86,-87.89C241.71,-84.97 233.16,-82.18 225,-80 155.57,-61.41 131.29,-75.28 63.95,-53.81"/>
<polygon fill="black" stroke="black" points="64.75,-50.38 54.15,-50.54 62.53,-57.02 64.75,-50.38"/>
<g id="a_edge13&#45;headlabel"><a xlink:href="dir_000079_000024.html" target="_top" xlink:title="4">
<text text-anchor="middle" x="69.06" y="-46.33" font-family="Helvetica,sans-Serif" font-size="10.00">4</text>
</a>
</g>
</g>
<!-- dir_ff1c0327015213079e47006da0573e6e&#45;&gt;dir_f999ad8736097ebdc524243ad7f1213b -->
<g id="edge14" class="edge">
<title>dir_ff1c0327015213079e47006da0573e6e&#45;&gt;dir_f999ad8736097ebdc524243ad7f1213b</title>
<path fill="none" stroke="black" d="M350.03,-94.15C391.95,-85.56 449.86,-72.15 508.01,-52"/>
<polygon fill="black" stroke="black" points="509.46,-55.21 517.72,-48.58 507.13,-48.61 509.46,-55.21"/>
<g id="a_edge14&#45;headlabel"><a xlink:href="dir_000079_000111.html" target="_top" xlink:title="19">
<text text-anchor="middle" x="507.01" y="-56.58" font-family="Helvetica,sans-Serif" font-size="10.00">19</text>
</a>
</g>
</g>
<!-- dir_ff1c0327015213079e47006da0573e6e&#45;&gt;dir_4d89ae13008c55530f0314bd22416f9b -->
<g id="edge16" class="edge">
<title>dir_ff1c0327015213079e47006da0573e6e&#45;&gt;dir_4d89ae13008c55530f0314bd22416f9b</title>
<path fill="none" stroke="black" d="M350.19,-98.17C407,-90.64 495.81,-76.59 580.08,-51.93"/>
<polygon fill="black" stroke="black" points="581.22,-55.24 589.8,-49.03 579.22,-48.54 581.22,-55.24"/>
<g id="a_edge16&#45;headlabel"><a xlink:href="dir_000079_000072.html" target="_top" xlink:title="1">
<text text-anchor="middle" x="578.58" y="-56.49" font-family="Helvetica,sans-Serif" font-size="10.00">1</text>
</a>
</g>
</g>
<!-- dir_ff1c0327015213079e47006da0573e6e&#45;&gt;dir_2bf20327eb8d166f9acb0c9b72854f51 -->
<g id="edge15" class="edge">
<title>dir_ff1c0327015213079e47006da0573e6e&#45;&gt;dir_2bf20327eb8d166f9acb0c9b72854f51</title>
<path fill="none" stroke="black" d="M350.04,-102.02C421.62,-97.17 546.74,-84.85 659.95,-51.81"/>
<polygon fill="black" stroke="black" points="661.23,-55.08 669.82,-48.87 659.23,-48.37 661.23,-55.08"/>
<g id="a_edge15&#45;headlabel"><a xlink:href="dir_000079_000115.html" target="_top" xlink:title="21">
<text text-anchor="middle" x="658.6" y="-56.33" font-family="Helvetica,sans-Serif" font-size="10.00">21</text>
</a>
</g>
</g>
<!-- dir_f68ca564a2e143a4f6bd7b58dc1f43b7&#45;&gt;dir_51a21c0b7437cb7a9315edf40b46e55a -->
<g id="edge19" class="edge">
<title>dir_f68ca564a2e143a4f6bd7b58dc1f43b7&#45;&gt;dir_51a21c0b7437cb7a9315edf40b46e55a</title>
<path fill="none" stroke="black" d="M153,-87.7C153,-79.98 153,-70.71 153,-62.11"/>
<polygon fill="black" stroke="black" points="156.5,-62.1 153,-52.1 149.5,-62.1 156.5,-62.1"/>
<g id="a_edge19&#45;headlabel"><a xlink:href="dir_000117_000041.html" target="_top" xlink:title="3">
<text text-anchor="middle" x="159.34" y="-63.2" font-family="Helvetica,sans-Serif" font-size="10.00">3</text>
</a>
</g>
</g>
<!-- dir_f68ca564a2e143a4f6bd7b58dc1f43b7&#45;&gt;dir_34af9566fa953ec4d674e053f3791c3c -->
<g id="edge17" class="edge">
<title>dir_f68ca564a2e143a4f6bd7b58dc1f43b7&#45;&gt;dir_34af9566fa953ec4d674e053f3791c3c</title>
<path fill="none" stroke="black" d="M180.15,-124.1C191.88,-132.8 205.38,-143.52 216.65,-153.03"/>
<polygon fill="black" stroke="black" points="214.54,-155.83 224.41,-159.7 219.11,-150.52 214.54,-155.83"/>
<g id="a_edge17&#45;headlabel"><a xlink:href="dir_000117_000012.html" target="_top" xlink:title="21">
<text text-anchor="middle" x="209.97" y="-153.14" font-family="Helvetica,sans-Serif" font-size="10.00">21</text>
</a>
</g>
</g>
<!-- dir_f68ca564a2e143a4f6bd7b58dc1f43b7&#45;&gt;dir_4ebb9cf478835123b919db691d6366a3 -->
<g id="edge18" class="edge">
<title>dir_f68ca564a2e143a4f6bd7b58dc1f43b7&#45;&gt;dir_4ebb9cf478835123b919db691d6366a3</title>
<path fill="none" stroke="black" d="M199.17,-87.87C207.7,-85.03 216.57,-82.27 225,-80 285.17,-63.83 306.13,-73.2 364.18,-53.86"/>
<polygon fill="black" stroke="black" points="365.54,-57.09 373.83,-50.5 363.24,-50.48 365.54,-57.09"/>
<g id="a_edge18&#45;headlabel"><a xlink:href="dir_000117_000046.html" target="_top" xlink:title="35">
<text text-anchor="middle" x="363.08" y="-58.45" font-family="Helvetica,sans-Serif" font-size="10.00">35</text>
</a>
</g>
</g>
</g>
</svg>
