<?xml version="1.0" encoding="UTF-8" standalone="no"?>
<!DOCTYPE svg PUBLIC "-//W3C//DTD SVG 1.1//EN"
 "http://www.w3.org/Graphics/SVG/1.1/DTD/svg11.dtd">
<!-- Generated by graphviz version 2.43.0 (0)
 -->
<!-- Title: src/VDF/Sources/Sources_It_Eval Pages: 1 -->
<svg width="468pt" height="167pt"
 viewBox="0.00 0.00 468.00 167.00" xmlns="http://www.w3.org/2000/svg" xmlns:xlink="http://www.w3.org/1999/xlink">
<g id="graph0" class="graph" transform="scale(1 1) rotate(0) translate(4 163)">
<title>src/VDF/Sources/Sources_It_Eval</title>
<polygon fill="white" stroke="transparent" points="-4,4 -4,-163 464,-163 464,4 -4,4"/>
<g id="clust1" class="cluster">
<title>clusterdir_69b5eb4a11f152a375d71010aa55dc53</title>
<g id="a_clust1"><a xlink:href="dir_69b5eb4a11f152a375d71010aa55dc53.html" target="_top" xlink:title="Sources">
<polygon fill="#edf0f7" stroke="#7f7f7f" stroke-dasharray="5,2" points="8,-8 8,-151 180,-151 180,-8 8,-8"/>
<text text-anchor="middle" x="94" y="-139" font-family="Helvetica,sans-Serif" font-size="10.00">Sources</text>
</a>
</g>
</g>
<!-- dir_3acd5159bc2dc843b761d254299d2a0d -->
<g id="node1" class="node">
<title>dir_3acd5159bc2dc843b761d254299d2a0d</title>
<g id="a_node1"><a xlink:href="dir_3acd5159bc2dc843b761d254299d2a0d.html" target="_top" xlink:title="Evaluateurs">
<polygon fill="#a2b4d6" stroke="#404040" points="90,-52 16,-52 16,-16 90,-16 90,-52"/>
<text text-anchor="middle" x="53" y="-31.5" font-family="Helvetica,sans-Serif" font-size="10.00">Evaluateurs</text>
</a>
</g>
</g>
<!-- dir_82fc33355bdde8ab8e999a0f10abbd73 -->
<g id="node2" class="node">
<title>dir_82fc33355bdde8ab8e999a0f10abbd73</title>
<g id="a_node2"><a xlink:href="dir_82fc33355bdde8ab8e999a0f10abbd73.html" target="_top" xlink:title="Iterateurs">
<polygon fill="#a2b4d6" stroke="#404040" points="172,-52 108,-52 108,-16 172,-16 172,-52"/>
<text text-anchor="middle" x="140" y="-31.5" font-family="Helvetica,sans-Serif" font-size="10.00">Iterateurs</text>
</a>
</g>
</g>
<!-- dir_7bb2baa038b9beb888bbf434332828f5 -->
<g id="node3" class="node">
<title>dir_7bb2baa038b9beb888bbf434332828f5</title>
<g id="a_node3"><a xlink:href="dir_7bb2baa038b9beb888bbf434332828f5.html" target="_top" xlink:title="Sources_It_Eval">
<polygon fill="#edf0f7" stroke="#404040" stroke-width="2" points="172.5,-124 79.5,-124 79.5,-88 172.5,-88 172.5,-124"/>
<text text-anchor="middle" x="126" y="-103.5" font-family="Helvetica,sans-Serif" font-size="10.00">Sources_It_Eval</text>
</a>
</g>
</g>
<!-- dir_7bb2baa038b9beb888bbf434332828f5&#45;&gt;dir_3acd5159bc2dc843b761d254299d2a0d -->
<g id="edge3" class="edge">
<title>dir_7bb2baa038b9beb888bbf434332828f5&#45;&gt;dir_3acd5159bc2dc843b761d254299d2a0d</title>
<path fill="none" stroke="black" d="M107.96,-87.7C98.94,-79.05 87.88,-68.45 78.06,-59.03"/>
<polygon fill="black" stroke="black" points="80.48,-56.5 70.84,-52.1 75.63,-61.55 80.48,-56.5"/>
<g id="a_edge3&#45;headlabel"><a xlink:href="dir_000098_000035.html" target="_top" xlink:title="8">
<text text-anchor="middle" x="85.04" y="-54.44" font-family="Helvetica,sans-Serif" font-size="10.00">8</text>
</a>
</g>
</g>
<!-- dir_7bb2baa038b9beb888bbf434332828f5&#45;&gt;dir_82fc33355bdde8ab8e999a0f10abbd73 -->
<g id="edge5" class="edge">
<title>dir_7bb2baa038b9beb888bbf434332828f5&#45;&gt;dir_82fc33355bdde8ab8e999a0f10abbd73</title>
<path fill="none" stroke="black" d="M129.46,-87.7C131,-79.98 132.86,-70.71 134.58,-62.11"/>
<polygon fill="black" stroke="black" points="138.05,-62.6 136.58,-52.1 131.19,-61.22 138.05,-62.6"/>
<g id="a_edge5&#45;headlabel"><a xlink:href="dir_000098_000044.html" target="_top" xlink:title="10">
<text text-anchor="middle" x="140.13" y="-64.18" font-family="Helvetica,sans-Serif" font-size="10.00">10</text>
</a>
</g>
</g>
<!-- dir_0fe539761940b9854e54b3f9f72adf5a -->
<g id="node4" class="node">
<title>dir_0fe539761940b9854e54b3f9f72adf5a</title>
<g id="a_node4"><a xlink:href="dir_0fe539761940b9854e54b3f9f72adf5a.html" target="_top" xlink:title="Zones">
<polygon fill="none" stroke="#7f7f7f" points="244,-52 190,-52 190,-16 244,-16 244,-52"/>
<text text-anchor="middle" x="217" y="-31.5" font-family="Helvetica,sans-Serif" font-size="10.00">Zones</text>
</a>
</g>
</g>
<!-- dir_7bb2baa038b9beb888bbf434332828f5&#45;&gt;dir_0fe539761940b9854e54b3f9f72adf5a -->
<g id="edge1" class="edge">
<title>dir_7bb2baa038b9beb888bbf434332828f5&#45;&gt;dir_0fe539761940b9854e54b3f9f72adf5a</title>
<path fill="none" stroke="black" d="M148.49,-87.7C159.96,-78.88 174.06,-68.03 186.48,-58.47"/>
<polygon fill="black" stroke="black" points="188.97,-60.98 194.76,-52.1 184.7,-55.43 188.97,-60.98"/>
<g id="a_edge1&#45;headlabel"><a xlink:href="dir_000098_000122.html" target="_top" xlink:title="1">
<text text-anchor="middle" x="187.85" y="-62.92" font-family="Helvetica,sans-Serif" font-size="10.00">1</text>
</a>
</g>
</g>
<!-- dir_13693299dd61556dbbda8b8a807dfaab -->
<g id="node5" class="node">
<title>dir_13693299dd61556dbbda8b8a807dfaab</title>
<g id="a_node5"><a xlink:href="dir_13693299dd61556dbbda8b8a807dfaab.html" target="_top" xlink:title="ThSol">
<polygon fill="none" stroke="#7f7f7f" points="316,-52 262,-52 262,-16 316,-16 316,-52"/>
<text text-anchor="middle" x="289" y="-31.5" font-family="Helvetica,sans-Serif" font-size="10.00">ThSol</text>
</a>
</g>
</g>
<!-- dir_7bb2baa038b9beb888bbf434332828f5&#45;&gt;dir_13693299dd61556dbbda8b8a807dfaab -->
<g id="edge2" class="edge">
<title>dir_7bb2baa038b9beb888bbf434332828f5&#45;&gt;dir_13693299dd61556dbbda8b8a807dfaab</title>
<path fill="none" stroke="black" d="M168.25,-87.93C190.93,-78.65 219.52,-66.73 252.51,-52.13"/>
<polygon fill="black" stroke="black" points="254.22,-55.2 261.93,-47.94 251.37,-48.81 254.22,-55.2"/>
<g id="a_edge2&#45;headlabel"><a xlink:href="dir_000098_000102.html" target="_top" xlink:title="3">
<text text-anchor="middle" x="252.09" y="-56.76" font-family="Helvetica,sans-Serif" font-size="10.00">3</text>
</a>
</g>
</g>
<!-- dir_4ebb9cf478835123b919db691d6366a3 -->
<g id="node6" class="node">
<title>dir_4ebb9cf478835123b919db691d6366a3</title>
<g id="a_node6"><a xlink:href="dir_4ebb9cf478835123b919db691d6366a3.html" target="_top" xlink:title="Kernel">
<polygon fill="none" stroke="red" stroke-dasharray="5,2" points="388,-52 334,-52 334,-16 388,-16 388,-52"/>
<text text-anchor="middle" x="361" y="-31.5" font-family="Helvetica,sans-Serif" font-size="10.00">Kernel</text>
</a>
</g>
</g>
<!-- dir_7bb2baa038b9beb888bbf434332828f5&#45;&gt;dir_4ebb9cf478835123b919db691d6366a3 -->
<g id="edge4" class="edge">
<title>dir_7bb2baa038b9beb888bbf434332828f5&#45;&gt;dir_4ebb9cf478835123b919db691d6366a3</title>
<path fill="none" stroke="black" d="M172.57,-95.11C211.23,-86.34 267.63,-72.26 324.25,-51.96"/>
<polygon fill="black" stroke="black" points="325.5,-55.23 333.7,-48.52 323.11,-48.65 325.5,-55.23"/>
<g id="a_edge4&#45;headlabel"><a xlink:href="dir_000098_000046.html" target="_top" xlink:title="16">
<text text-anchor="middle" x="323.1" y="-56.63" font-family="Helvetica,sans-Serif" font-size="10.00">16</text>
</a>
</g>
</g>
<!-- dir_b91833fa2d528be7aecedeb7fe4eea36 -->
<g id="node7" class="node">
<title>dir_b91833fa2d528be7aecedeb7fe4eea36</title>
<g id="a_node7"><a xlink:href="dir_b91833fa2d528be7aecedeb7fe4eea36.html" target="_top" xlink:title="ThHyd">
<polygon fill="none" stroke="red" stroke-dasharray="5,2" points="460,-52 406,-52 406,-16 460,-16 460,-52"/>
<text text-anchor="middle" x="433" y="-31.5" font-family="Helvetica,sans-Serif" font-size="10.00">ThHyd</text>
</a>
</g>
</g>
<!-- dir_7bb2baa038b9beb888bbf434332828f5&#45;&gt;dir_b91833fa2d528be7aecedeb7fe4eea36 -->
<g id="edge6" class="edge">
<title>dir_7bb2baa038b9beb888bbf434332828f5&#45;&gt;dir_b91833fa2d528be7aecedeb7fe4eea36</title>
<path fill="none" stroke="black" d="M172.93,-99.42C225.65,-92.37 313.64,-78.22 396.25,-51.82"/>
<polygon fill="black" stroke="black" points="397.35,-55.14 405.77,-48.71 395.18,-48.49 397.35,-55.14"/>
<g id="a_edge6&#45;headlabel"><a xlink:href="dir_000098_000101.html" target="_top" xlink:title="7">
<text text-anchor="middle" x="394.81" y="-56.46" font-family="Helvetica,sans-Serif" font-size="10.00">7</text>
</a>
</g>
</g>
</g>
</svg>
