<?xml version="1.0" encoding="UTF-8" standalone="no"?>
<!DOCTYPE svg PUBLIC "-//W3C//DTD SVG 1.1//EN"
 "http://www.w3.org/Graphics/SVG/1.1/DTD/svg11.dtd">
<!-- Generated by graphviz version 2.43.0 (0)
 -->
<!-- Title: src/ThHyd/Dilatable/Common/Sources Pages: 1 -->
<svg width="284pt" height="167pt"
 viewBox="0.00 0.00 284.00 167.00" xmlns="http://www.w3.org/2000/svg" xmlns:xlink="http://www.w3.org/1999/xlink">
<g id="graph0" class="graph" transform="scale(1 1) rotate(0) translate(4 163)">
<title>src/ThHyd/Dilatable/Common/Sources</title>
<polygon fill="white" stroke="transparent" points="-4,4 -4,-163 280,-163 280,4 -4,4"/>
<g id="clust1" class="cluster">
<title>clusterdir_34af9566fa953ec4d674e053f3791c3c</title>
<g id="a_clust1"><a xlink:href="dir_34af9566fa953ec4d674e053f3791c3c.html" target="_top" xlink:title="Common">
<polygon fill="#edf0f7" stroke="#7f7f7f" stroke-dasharray="5,2" points="8,-8 8,-151 80,-151 80,-8 8,-8"/>
<text text-anchor="middle" x="44" y="-139" font-family="Helvetica,sans-Serif" font-size="10.00">Common</text>
</a>
</g>
</g>
<!-- dir_554acddbd47a939aa4f4726d36f3573e -->
<g id="node1" class="node">
<title>dir_554acddbd47a939aa4f4726d36f3573e</title>
<g id="a_node1"><a xlink:href="dir_554acddbd47a939aa4f4726d36f3573e.html" target="_top" xlink:title="Milieu">
<polygon fill="#a2b4d6" stroke="#404040" points="70,-52 16,-52 16,-16 70,-16 70,-52"/>
<text text-anchor="middle" x="43" y="-31.5" font-family="Helvetica,sans-Serif" font-size="10.00">Milieu</text>
</a>
</g>
</g>
<!-- dir_8ea01aac23484eb6f4e5c3f404fccd49 -->
<g id="node2" class="node">
<title>dir_8ea01aac23484eb6f4e5c3f404fccd49</title>
<g id="a_node2"><a xlink:href="dir_8ea01aac23484eb6f4e5c3f404fccd49.html" target="_top" xlink:title="Sources">
<polygon fill="#edf0f7" stroke="#404040" stroke-width="2" points="71.5,-124 16.5,-124 16.5,-88 71.5,-88 71.5,-124"/>
<text text-anchor="middle" x="44" y="-103.5" font-family="Helvetica,sans-Serif" font-size="10.00">Sources</text>
</a>
</g>
</g>
<!-- dir_8ea01aac23484eb6f4e5c3f404fccd49&#45;&gt;dir_554acddbd47a939aa4f4726d36f3573e -->
<g id="edge2" class="edge">
<title>dir_8ea01aac23484eb6f4e5c3f404fccd49&#45;&gt;dir_554acddbd47a939aa4f4726d36f3573e</title>
<path fill="none" stroke="black" d="M43.75,-87.7C43.64,-79.98 43.51,-70.71 43.39,-62.11"/>
<polygon fill="black" stroke="black" points="46.89,-62.05 43.24,-52.1 39.89,-62.15 46.89,-62.05"/>
<g id="a_edge2&#45;headlabel"><a xlink:href="dir_000091_000054.html" target="_top" xlink:title="4">
<text text-anchor="middle" x="49.78" y="-63.11" font-family="Helvetica,sans-Serif" font-size="10.00">4</text>
</a>
</g>
</g>
<!-- dir_4ebb9cf478835123b919db691d6366a3 -->
<g id="node3" class="node">
<title>dir_4ebb9cf478835123b919db691d6366a3</title>
<g id="a_node3"><a xlink:href="dir_4ebb9cf478835123b919db691d6366a3.html" target="_top" xlink:title="Kernel">
<polygon fill="none" stroke="red" stroke-dasharray="5,2" points="142,-52 88,-52 88,-16 142,-16 142,-52"/>
<text text-anchor="middle" x="115" y="-31.5" font-family="Helvetica,sans-Serif" font-size="10.00">Kernel</text>
</a>
</g>
</g>
<!-- dir_8ea01aac23484eb6f4e5c3f404fccd49&#45;&gt;dir_4ebb9cf478835123b919db691d6366a3 -->
<g id="edge1" class="edge">
<title>dir_8ea01aac23484eb6f4e5c3f404fccd49&#45;&gt;dir_4ebb9cf478835123b919db691d6366a3</title>
<path fill="none" stroke="black" d="M61.55,-87.7C70.23,-79.14 80.86,-68.66 90.35,-59.3"/>
<polygon fill="black" stroke="black" points="92.99,-61.62 97.65,-52.1 88.07,-56.63 92.99,-61.62"/>
<g id="a_edge1&#45;headlabel"><a xlink:href="dir_000091_000046.html" target="_top" xlink:title="9">
<text text-anchor="middle" x="92.42" y="-63.66" font-family="Helvetica,sans-Serif" font-size="10.00">9</text>
</a>
</g>
</g>
<!-- dir_ff1c0327015213079e47006da0573e6e -->
<g id="node4" class="node">
<title>dir_ff1c0327015213079e47006da0573e6e</title>
<g id="a_node4"><a xlink:href="dir_ff1c0327015213079e47006da0573e6e.html" target="_top" xlink:title="Quasi_Compressible">
<polygon fill="none" stroke="red" stroke-dasharray="5,2" points="276,-52 160,-52 160,-16 276,-16 276,-52"/>
<text text-anchor="middle" x="218" y="-31.5" font-family="Helvetica,sans-Serif" font-size="10.00">Quasi_Compressible</text>
</a>
</g>
</g>
<!-- dir_8ea01aac23484eb6f4e5c3f404fccd49&#45;&gt;dir_ff1c0327015213079e47006da0573e6e -->
<g id="edge3" class="edge">
<title>dir_8ea01aac23484eb6f4e5c3f404fccd49&#45;&gt;dir_ff1c0327015213079e47006da0573e6e</title>
<path fill="none" stroke="black" d="M71.57,-93.91C96.93,-83.71 135.19,-68.31 166.24,-55.82"/>
<polygon fill="black" stroke="black" points="167.65,-59.03 175.63,-52.05 165.04,-52.53 167.65,-59.03"/>
<g id="a_edge3&#45;headlabel"><a xlink:href="dir_000091_000079.html" target="_top" xlink:title="1">
<text text-anchor="middle" x="165.38" y="-60.5" font-family="Helvetica,sans-Serif" font-size="10.00">1</text>
</a>
</g>
</g>
</g>
</svg>
