<?xml version="1.0" encoding="UTF-8" standalone="no"?>
<!DOCTYPE svg PUBLIC "-//W3C//DTD SVG 1.1//EN"
 "http://www.w3.org/Graphics/SVG/1.1/DTD/svg11.dtd">
<!-- Generated by graphviz version 2.43.0 (0)
 -->
<!-- Title: src/VEF/Sources/Evaluateurs Pages: 1 -->
<svg width="206pt" height="151pt"
 viewBox="0.00 0.00 206.00 151.00" xmlns="http://www.w3.org/2000/svg" xmlns:xlink="http://www.w3.org/1999/xlink">
<g id="graph0" class="graph" transform="scale(1 1) rotate(0) translate(4 147)">
<title>src/VEF/Sources/Evaluateurs</title>
<polygon fill="white" stroke="transparent" points="-4,4 -4,-147 202,-147 202,4 -4,4"/>
<g id="clust1" class="cluster">
<title>clusterdir_5ef8fef46ac5f208e61da39ae26a4a53</title>
<g id="a_clust1"><a xlink:href="dir_5ef8fef46ac5f208e61da39ae26a4a53.html" target="_top" xlink:title="Sources">
<polygon fill="#edf0f7" stroke="#7f7f7f" stroke-dasharray="5,2" points="54,-64 54,-135 144,-135 144,-64 54,-64"/>
<text text-anchor="middle" x="99" y="-123" font-family="Helvetica,sans-Serif" font-size="10.00">Sources</text>
</a>
</g>
</g>
<!-- dir_9b4c323bc934bb2c11bebaa19bf2be55 -->
<g id="node1" class="node">
<title>dir_9b4c323bc934bb2c11bebaa19bf2be55</title>
<g id="a_node1"><a xlink:href="dir_9b4c323bc934bb2c11bebaa19bf2be55.html" target="_top" xlink:title="Evaluateurs">
<polygon fill="#edf0f7" stroke="#404040" stroke-width="2" points="136,-108 62,-108 62,-72 136,-72 136,-108"/>
<text text-anchor="middle" x="99" y="-87.5" font-family="Helvetica,sans-Serif" font-size="10.00">Evaluateurs</text>
</a>
</g>
</g>
<!-- dir_32b3b22259e957943f6c9c5b74cc92da -->
<g id="node2" class="node">
<title>dir_32b3b22259e957943f6c9c5b74cc92da</title>
<g id="a_node2"><a xlink:href="dir_32b3b22259e957943f6c9c5b74cc92da.html" target="_top" xlink:title="Zones">
<polygon fill="none" stroke="#7f7f7f" points="54,-36 0,-36 0,0 54,0 54,-36"/>
<text text-anchor="middle" x="27" y="-15.5" font-family="Helvetica,sans-Serif" font-size="10.00">Zones</text>
</a>
</g>
</g>
<!-- dir_9b4c323bc934bb2c11bebaa19bf2be55&#45;&gt;dir_32b3b22259e957943f6c9c5b74cc92da -->
<g id="edge1" class="edge">
<title>dir_9b4c323bc934bb2c11bebaa19bf2be55&#45;&gt;dir_32b3b22259e957943f6c9c5b74cc92da</title>
<path fill="none" stroke="black" d="M81.2,-71.7C72.4,-63.14 61.62,-52.66 52,-43.3"/>
<polygon fill="black" stroke="black" points="54.2,-40.57 44.59,-36.1 49.32,-45.58 54.2,-40.57"/>
<g id="a_edge1&#45;headlabel"><a xlink:href="dir_000036_000123.html" target="_top" xlink:title="5">
<text text-anchor="middle" x="58.76" y="-38.54" font-family="Helvetica,sans-Serif" font-size="10.00">5</text>
</a>
</g>
</g>
<!-- dir_4ebb9cf478835123b919db691d6366a3 -->
<g id="node3" class="node">
<title>dir_4ebb9cf478835123b919db691d6366a3</title>
<g id="a_node3"><a xlink:href="dir_4ebb9cf478835123b919db691d6366a3.html" target="_top" xlink:title="Kernel">
<polygon fill="none" stroke="red" stroke-dasharray="5,2" points="126,-36 72,-36 72,0 126,0 126,-36"/>
<text text-anchor="middle" x="99" y="-15.5" font-family="Helvetica,sans-Serif" font-size="10.00">Kernel</text>
</a>
</g>
</g>
<!-- dir_9b4c323bc934bb2c11bebaa19bf2be55&#45;&gt;dir_4ebb9cf478835123b919db691d6366a3 -->
<g id="edge2" class="edge">
<title>dir_9b4c323bc934bb2c11bebaa19bf2be55&#45;&gt;dir_4ebb9cf478835123b919db691d6366a3</title>
<path fill="none" stroke="black" d="M99,-71.7C99,-63.98 99,-54.71 99,-46.11"/>
<polygon fill="black" stroke="black" points="102.5,-46.1 99,-36.1 95.5,-46.1 102.5,-46.1"/>
<g id="a_edge2&#45;headlabel"><a xlink:href="dir_000036_000046.html" target="_top" xlink:title="16">
<text text-anchor="middle" x="105.34" y="-47.2" font-family="Helvetica,sans-Serif" font-size="10.00">16</text>
</a>
</g>
</g>
<!-- dir_b91833fa2d528be7aecedeb7fe4eea36 -->
<g id="node4" class="node">
<title>dir_b91833fa2d528be7aecedeb7fe4eea36</title>
<g id="a_node4"><a xlink:href="dir_b91833fa2d528be7aecedeb7fe4eea36.html" target="_top" xlink:title="ThHyd">
<polygon fill="none" stroke="red" stroke-dasharray="5,2" points="198,-36 144,-36 144,0 198,0 198,-36"/>
<text text-anchor="middle" x="171" y="-15.5" font-family="Helvetica,sans-Serif" font-size="10.00">ThHyd</text>
</a>
</g>
</g>
<!-- dir_9b4c323bc934bb2c11bebaa19bf2be55&#45;&gt;dir_b91833fa2d528be7aecedeb7fe4eea36 -->
<g id="edge3" class="edge">
<title>dir_9b4c323bc934bb2c11bebaa19bf2be55&#45;&gt;dir_b91833fa2d528be7aecedeb7fe4eea36</title>
<path fill="none" stroke="black" d="M116.8,-71.7C125.6,-63.14 136.38,-52.66 146,-43.3"/>
<polygon fill="black" stroke="black" points="148.68,-45.58 153.41,-36.1 143.8,-40.57 148.68,-45.58"/>
<g id="a_edge3&#45;headlabel"><a xlink:href="dir_000036_000101.html" target="_top" xlink:title="2">
<text text-anchor="middle" x="148.08" y="-47.63" font-family="Helvetica,sans-Serif" font-size="10.00">2</text>
</a>
</g>
</g>
</g>
</svg>
