<?xml version="1.0" encoding="UTF-8" standalone="no"?>
<!DOCTYPE svg PUBLIC "-//W3C//DTD SVG 1.1//EN"
 "http://www.w3.org/Graphics/SVG/1.1/DTD/svg11.dtd">
<!-- Generated by graphviz version 2.43.0 (0)
 -->
<!-- Title: src/Kernel/MEDimpl Pages: 1 -->
<svg width="594pt" height="167pt"
 viewBox="0.00 0.00 594.00 167.00" xmlns="http://www.w3.org/2000/svg" xmlns:xlink="http://www.w3.org/1999/xlink">
<g id="graph0" class="graph" transform="scale(1 1) rotate(0) translate(4 163)">
<title>src/Kernel/MEDimpl</title>
<polygon fill="white" stroke="transparent" points="-4,4 -4,-163 590,-163 590,4 -4,4"/>
<g id="clust1" class="cluster">
<title>clusterdir_4ebb9cf478835123b919db691d6366a3</title>
<g id="a_clust1"><a xlink:href="dir_4ebb9cf478835123b919db691d6366a3.html" target="_top" xlink:title="Kernel">
<polygon fill="#edf0f7" stroke="#7f7f7f" stroke-dasharray="5,2" points="8,-8 8,-151 578,-151 578,-8 8,-8"/>
<text text-anchor="middle" x="293" y="-139" font-family="Helvetica,sans-Serif" font-size="10.00">Kernel</text>
</a>
</g>
</g>
<!-- dir_0a215d9ccf7924e0d75b691c360a5032 -->
<g id="node1" class="node">
<title>dir_0a215d9ccf7924e0d75b691c360a5032</title>
<g id="a_node1"><a xlink:href="dir_0a215d9ccf7924e0d75b691c360a5032.html" target="_top" xlink:title="Framework">
<polygon fill="#a2b4d6" stroke="#404040" points="87.5,-52 16.5,-52 16.5,-16 87.5,-16 87.5,-52"/>
<text text-anchor="middle" x="52" y="-31.5" font-family="Helvetica,sans-Serif" font-size="10.00">Framework</text>
</a>
</g>
</g>
<!-- dir_248459fe65344770a2fa593f47170c23 -->
<g id="node2" class="node">
<title>dir_248459fe65344770a2fa593f47170c23</title>
<g id="a_node2"><a xlink:href="dir_248459fe65344770a2fa593f47170c23.html" target="_top" xlink:title="Geometrie">
<polygon fill="#a2b4d6" stroke="red" points="174,-52 106,-52 106,-16 174,-16 174,-52"/>
<text text-anchor="middle" x="140" y="-31.5" font-family="Helvetica,sans-Serif" font-size="10.00">Geometrie</text>
</a>
</g>
</g>
<!-- dir_65ad971e6c761419c1a7edd88c13347f -->
<g id="node3" class="node">
<title>dir_65ad971e6c761419c1a7edd88c13347f</title>
<g id="a_node3"><a xlink:href="dir_65ad971e6c761419c1a7edd88c13347f.html" target="_top" xlink:title="Math">
<polygon fill="#a2b4d6" stroke="red" points="246,-52 192,-52 192,-16 246,-16 246,-52"/>
<text text-anchor="middle" x="219" y="-31.5" font-family="Helvetica,sans-Serif" font-size="10.00">Math</text>
</a>
</g>
</g>
<!-- dir_6dac92f0062453f7a42b7c25128a86b5 -->
<g id="node4" class="node">
<title>dir_6dac92f0062453f7a42b7c25128a86b5</title>
<g id="a_node4"><a xlink:href="dir_6dac92f0062453f7a42b7c25128a86b5.html" target="_top" xlink:title="Champs_dis">
<polygon fill="#a2b4d6" stroke="#404040" points="340,-52 264,-52 264,-16 340,-16 340,-52"/>
<text text-anchor="middle" x="302" y="-31.5" font-family="Helvetica,sans-Serif" font-size="10.00">Champs_dis</text>
</a>
</g>
</g>
<!-- dir_75410551070c442219860822de95c95e -->
<g id="node5" class="node">
<title>dir_75410551070c442219860822de95c95e</title>
<g id="a_node5"><a xlink:href="dir_75410551070c442219860822de95c95e.html" target="_top" xlink:title="Champs">
<polygon fill="#a2b4d6" stroke="red" points="414,-52 358,-52 358,-16 414,-16 414,-52"/>
<text text-anchor="middle" x="386" y="-31.5" font-family="Helvetica,sans-Serif" font-size="10.00">Champs</text>
</a>
</g>
</g>
<!-- dir_be8568a82a3aa3b37d484509da529385 -->
<g id="node6" class="node">
<title>dir_be8568a82a3aa3b37d484509da529385</title>
<g id="a_node6"><a xlink:href="dir_be8568a82a3aa3b37d484509da529385.html" target="_top" xlink:title="VF">
<polygon fill="#a2b4d6" stroke="red" points="486,-52 432,-52 432,-16 486,-16 486,-52"/>
<text text-anchor="middle" x="459" y="-31.5" font-family="Helvetica,sans-Serif" font-size="10.00">VF</text>
</a>
</g>
</g>
<!-- dir_cdaacd66118cd3761cec6ba1adfb2dd4 -->
<g id="node7" class="node">
<title>dir_cdaacd66118cd3761cec6ba1adfb2dd4</title>
<g id="a_node7"><a xlink:href="dir_cdaacd66118cd3761cec6ba1adfb2dd4.html" target="_top" xlink:title="Utilitaires">
<polygon fill="#a2b4d6" stroke="#404040" points="569.5,-52 504.5,-52 504.5,-16 569.5,-16 569.5,-52"/>
<text text-anchor="middle" x="537" y="-31.5" font-family="Helvetica,sans-Serif" font-size="10.00">Utilitaires</text>
</a>
</g>
</g>
<!-- dir_bb7b3c080fc0d81edccd817a561865f4 -->
<g id="node8" class="node">
<title>dir_bb7b3c080fc0d81edccd817a561865f4</title>
<g id="a_node8"><a xlink:href="dir_bb7b3c080fc0d81edccd817a561865f4.html" target="_top" xlink:title="MEDimpl">
<polygon fill="#edf0f7" stroke="#404040" stroke-width="2" points="332.5,-124 271.5,-124 271.5,-88 332.5,-88 332.5,-124"/>
<text text-anchor="middle" x="302" y="-103.5" font-family="Helvetica,sans-Serif" font-size="10.00">MEDimpl</text>
</a>
</g>
</g>
<!-- dir_bb7b3c080fc0d81edccd817a561865f4&#45;&gt;dir_0a215d9ccf7924e0d75b691c360a5032 -->
<g id="edge1" class="edge">
<title>dir_bb7b3c080fc0d81edccd817a561865f4&#45;&gt;dir_0a215d9ccf7924e0d75b691c360a5032</title>
<path fill="none" stroke="black" d="M271.49,-98.2C233.07,-89.41 164.92,-73.02 97.65,-52.03"/>
<polygon fill="black" stroke="black" points="98.33,-48.57 87.74,-48.9 96.22,-55.25 98.33,-48.57"/>
<g id="a_edge1&#45;headlabel"><a xlink:href="dir_000053_000038.html" target="_top" xlink:title="18">
<text text-anchor="middle" x="102.61" y="-44.45" font-family="Helvetica,sans-Serif" font-size="10.00">18</text>
</a>
</g>
</g>
<!-- dir_bb7b3c080fc0d81edccd817a561865f4&#45;&gt;dir_248459fe65344770a2fa593f47170c23 -->
<g id="edge2" class="edge">
<title>dir_bb7b3c080fc0d81edccd817a561865f4&#45;&gt;dir_248459fe65344770a2fa593f47170c23</title>
<path fill="none" stroke="black" d="M271.15,-91.67C246.35,-80.95 211.21,-65.77 183.54,-53.81"/>
<polygon fill="black" stroke="black" points="184.67,-50.49 174.1,-49.73 181.89,-56.91 184.67,-50.49"/>
<g id="a_edge2&#45;headlabel"><a xlink:href="dir_000053_000039.html" target="_top" xlink:title="15">
<text text-anchor="middle" x="189.09" y="-46.81" font-family="Helvetica,sans-Serif" font-size="10.00">15</text>
</a>
</g>
</g>
<!-- dir_bb7b3c080fc0d81edccd817a561865f4&#45;&gt;dir_65ad971e6c761419c1a7edd88c13347f -->
<g id="edge3" class="edge">
<title>dir_bb7b3c080fc0d81edccd817a561865f4&#45;&gt;dir_65ad971e6c761419c1a7edd88c13347f</title>
<path fill="none" stroke="black" d="M281.48,-87.7C271.13,-78.97 258.41,-68.24 247.16,-58.75"/>
<polygon fill="black" stroke="black" points="249.18,-55.88 239.28,-52.1 244.67,-61.23 249.18,-55.88"/>
<g id="a_edge3&#45;headlabel"><a xlink:href="dir_000053_000051.html" target="_top" xlink:title="10">
<text text-anchor="middle" x="253.76" y="-53.52" font-family="Helvetica,sans-Serif" font-size="10.00">10</text>
</a>
</g>
</g>
<!-- dir_bb7b3c080fc0d81edccd817a561865f4&#45;&gt;dir_6dac92f0062453f7a42b7c25128a86b5 -->
<g id="edge4" class="edge">
<title>dir_bb7b3c080fc0d81edccd817a561865f4&#45;&gt;dir_6dac92f0062453f7a42b7c25128a86b5</title>
<path fill="none" stroke="black" d="M302,-87.7C302,-79.98 302,-70.71 302,-62.11"/>
<polygon fill="black" stroke="black" points="305.5,-62.1 302,-52.1 298.5,-62.1 305.5,-62.1"/>
<g id="a_edge4&#45;headlabel"><a xlink:href="dir_000053_000009.html" target="_top" xlink:title="3">
<text text-anchor="middle" x="308.34" y="-63.2" font-family="Helvetica,sans-Serif" font-size="10.00">3</text>
</a>
</g>
</g>
<!-- dir_bb7b3c080fc0d81edccd817a561865f4&#45;&gt;dir_75410551070c442219860822de95c95e -->
<g id="edge5" class="edge">
<title>dir_bb7b3c080fc0d81edccd817a561865f4&#45;&gt;dir_75410551070c442219860822de95c95e</title>
<path fill="none" stroke="black" d="M322.76,-87.7C333.24,-78.97 346.11,-68.24 357.5,-58.75"/>
<polygon fill="black" stroke="black" points="360.03,-61.19 365.47,-52.1 355.55,-55.82 360.03,-61.19"/>
<g id="a_edge5&#45;headlabel"><a xlink:href="dir_000053_000002.html" target="_top" xlink:title="1">
<text text-anchor="middle" x="359.09" y="-63.18" font-family="Helvetica,sans-Serif" font-size="10.00">1</text>
</a>
</g>
</g>
<!-- dir_bb7b3c080fc0d81edccd817a561865f4&#45;&gt;dir_be8568a82a3aa3b37d484509da529385 -->
<g id="edge6" class="edge">
<title>dir_bb7b3c080fc0d81edccd817a561865f4&#45;&gt;dir_be8568a82a3aa3b37d484509da529385</title>
<path fill="none" stroke="black" d="M332.69,-91.84C355.3,-82.09 386.98,-68.28 422.74,-52.07"/>
<polygon fill="black" stroke="black" points="424.26,-55.22 431.91,-47.89 421.36,-48.85 424.26,-55.22"/>
<g id="a_edge6&#45;headlabel"><a xlink:href="dir_000053_000116.html" target="_top" xlink:title="2">
<text text-anchor="middle" x="422.16" y="-56.79" font-family="Helvetica,sans-Serif" font-size="10.00">2</text>
</a>
</g>
</g>
<!-- dir_bb7b3c080fc0d81edccd817a561865f4&#45;&gt;dir_cdaacd66118cd3761cec6ba1adfb2dd4 -->
<g id="edge7" class="edge">
<title>dir_bb7b3c080fc0d81edccd817a561865f4&#45;&gt;dir_cdaacd66118cd3761cec6ba1adfb2dd4</title>
<path fill="none" stroke="black" d="M332.75,-97.73C369.25,-88.85 432.04,-72.77 494.51,-51.97"/>
<polygon fill="black" stroke="black" points="495.76,-55.24 504.12,-48.73 493.53,-48.61 495.76,-55.24"/>
<g id="a_edge7&#45;headlabel"><a xlink:href="dir_000053_000107.html" target="_top" xlink:title="27">
<text text-anchor="middle" x="493.26" y="-56.58" font-family="Helvetica,sans-Serif" font-size="10.00">27</text>
</a>
</g>
</g>
</g>
</svg>
