<?xml version="1.0" encoding="UTF-8" standalone="no"?>
<!DOCTYPE svg PUBLIC "-//W3C//DTD SVG 1.1//EN"
 "http://www.w3.org/Graphics/SVG/1.1/DTD/svg11.dtd">
<!-- Generated by graphviz version 2.43.0 (0)
 -->
<!-- Title: src/ThHyd/Dilatable/Weakly_Compressible/Equations Pages: 1 -->
<svg width="304pt" height="167pt"
 viewBox="0.00 0.00 304.00 167.00" xmlns="http://www.w3.org/2000/svg" xmlns:xlink="http://www.w3.org/1999/xlink">
<g id="graph0" class="graph" transform="scale(1 1) rotate(0) translate(4 163)">
<title>src/ThHyd/Dilatable/Weakly_Compressible/Equations</title>
<polygon fill="white" stroke="transparent" points="-4,4 -4,-163 300,-163 300,4 -4,4"/>
<g id="clust1" class="cluster">
<title>clusterdir_f68ca564a2e143a4f6bd7b58dc1f43b7</title>
<g id="a_clust1"><a xlink:href="dir_f68ca564a2e143a4f6bd7b58dc1f43b7.html" target="_top" xlink:title="Weakly_Compressible">
<polygon fill="#edf0f7" stroke="#7f7f7f" stroke-dasharray="5,2" points="8,-8 8,-151 152,-151 152,-8 8,-8"/>
<text text-anchor="middle" x="80" y="-139" font-family="Helvetica,sans-Serif" font-size="10.00">Weakly_Compressible</text>
</a>
</g>
</g>
<!-- dir_0c7d7af0efbfe5e900ac4d955b147309 -->
<g id="node1" class="node">
<title>dir_0c7d7af0efbfe5e900ac4d955b147309</title>
<g id="a_node1"><a xlink:href="dir_0c7d7af0efbfe5e900ac4d955b147309.html" target="_top" xlink:title="Loi_Etat">
<polygon fill="#a2b4d6" stroke="#404040" points="72,-52 16,-52 16,-16 72,-16 72,-52"/>
<text text-anchor="middle" x="44" y="-31.5" font-family="Helvetica,sans-Serif" font-size="10.00">Loi_Etat</text>
</a>
</g>
</g>
<!-- dir_d81664fe54e3259051126d7dac15c85f -->
<g id="node2" class="node">
<title>dir_d81664fe54e3259051126d7dac15c85f</title>
<g id="a_node2"><a xlink:href="dir_d81664fe54e3259051126d7dac15c85f.html" target="_top" xlink:title="Milieu">
<polygon fill="#a2b4d6" stroke="#404040" points="144,-52 90,-52 90,-16 144,-16 144,-52"/>
<text text-anchor="middle" x="117" y="-31.5" font-family="Helvetica,sans-Serif" font-size="10.00">Milieu</text>
</a>
</g>
</g>
<!-- dir_8ca32724eb7314e9485b03ea0a7798c4 -->
<g id="node3" class="node">
<title>dir_8ca32724eb7314e9485b03ea0a7798c4</title>
<g id="a_node3"><a xlink:href="dir_8ca32724eb7314e9485b03ea0a7798c4.html" target="_top" xlink:title="Equations">
<polygon fill="#edf0f7" stroke="#404040" stroke-width="2" points="143.5,-124 78.5,-124 78.5,-88 143.5,-88 143.5,-124"/>
<text text-anchor="middle" x="111" y="-103.5" font-family="Helvetica,sans-Serif" font-size="10.00">Equations</text>
</a>
</g>
</g>
<!-- dir_8ca32724eb7314e9485b03ea0a7798c4&#45;&gt;dir_0c7d7af0efbfe5e900ac4d955b147309 -->
<g id="edge1" class="edge">
<title>dir_8ca32724eb7314e9485b03ea0a7798c4&#45;&gt;dir_0c7d7af0efbfe5e900ac4d955b147309</title>
<path fill="none" stroke="black" d="M94.44,-87.7C86.32,-79.22 76.41,-68.86 67.53,-59.58"/>
<polygon fill="black" stroke="black" points="69.81,-56.91 60.37,-52.1 64.76,-61.75 69.81,-56.91"/>
<g id="a_edge1&#45;headlabel"><a xlink:href="dir_000029_000049.html" target="_top" xlink:title="2">
<text text-anchor="middle" x="74.35" y="-55.04" font-family="Helvetica,sans-Serif" font-size="10.00">2</text>
</a>
</g>
</g>
<!-- dir_8ca32724eb7314e9485b03ea0a7798c4&#45;&gt;dir_d81664fe54e3259051126d7dac15c85f -->
<g id="edge4" class="edge">
<title>dir_8ca32724eb7314e9485b03ea0a7798c4&#45;&gt;dir_d81664fe54e3259051126d7dac15c85f</title>
<path fill="none" stroke="black" d="M112.48,-87.7C113.14,-79.98 113.94,-70.71 114.68,-62.11"/>
<polygon fill="black" stroke="black" points="118.17,-62.37 115.53,-52.1 111.19,-61.77 118.17,-62.37"/>
<g id="a_edge4&#45;headlabel"><a xlink:href="dir_000029_000056.html" target="_top" xlink:title="3">
<text text-anchor="middle" x="120.69" y="-63.69" font-family="Helvetica,sans-Serif" font-size="10.00">3</text>
</a>
</g>
</g>
<!-- dir_34af9566fa953ec4d674e053f3791c3c -->
<g id="node4" class="node">
<title>dir_34af9566fa953ec4d674e053f3791c3c</title>
<g id="a_node4"><a xlink:href="dir_34af9566fa953ec4d674e053f3791c3c.html" target="_top" xlink:title="Common">
<polygon fill="none" stroke="red" stroke-dasharray="5,2" points="223.5,-52 162.5,-52 162.5,-16 223.5,-16 223.5,-52"/>
<text text-anchor="middle" x="193" y="-31.5" font-family="Helvetica,sans-Serif" font-size="10.00">Common</text>
</a>
</g>
</g>
<!-- dir_8ca32724eb7314e9485b03ea0a7798c4&#45;&gt;dir_34af9566fa953ec4d674e053f3791c3c -->
<g id="edge2" class="edge">
<title>dir_8ca32724eb7314e9485b03ea0a7798c4&#45;&gt;dir_34af9566fa953ec4d674e053f3791c3c</title>
<path fill="none" stroke="black" d="M131.27,-87.7C141.5,-78.97 154.06,-68.24 165.18,-58.75"/>
<polygon fill="black" stroke="black" points="167.63,-61.26 172.96,-52.1 163.09,-55.94 167.63,-61.26"/>
<g id="a_edge2&#45;headlabel"><a xlink:href="dir_000029_000012.html" target="_top" xlink:title="7">
<text text-anchor="middle" x="166.74" y="-63.25" font-family="Helvetica,sans-Serif" font-size="10.00">7</text>
</a>
</g>
</g>
<!-- dir_4ebb9cf478835123b919db691d6366a3 -->
<g id="node5" class="node">
<title>dir_4ebb9cf478835123b919db691d6366a3</title>
<g id="a_node5"><a xlink:href="dir_4ebb9cf478835123b919db691d6366a3.html" target="_top" xlink:title="Kernel">
<polygon fill="none" stroke="red" stroke-dasharray="5,2" points="296,-52 242,-52 242,-16 296,-16 296,-52"/>
<text text-anchor="middle" x="269" y="-31.5" font-family="Helvetica,sans-Serif" font-size="10.00">Kernel</text>
</a>
</g>
</g>
<!-- dir_8ca32724eb7314e9485b03ea0a7798c4&#45;&gt;dir_4ebb9cf478835123b919db691d6366a3 -->
<g id="edge3" class="edge">
<title>dir_8ca32724eb7314e9485b03ea0a7798c4&#45;&gt;dir_4ebb9cf478835123b919db691d6366a3</title>
<path fill="none" stroke="black" d="M143.75,-91.1C166.36,-81.44 197.32,-68.05 232.41,-52.21"/>
<polygon fill="black" stroke="black" points="234.25,-55.22 241.92,-47.9 231.36,-48.84 234.25,-55.22"/>
<g id="a_edge3&#45;headlabel"><a xlink:href="dir_000029_000046.html" target="_top" xlink:title="10">
<text text-anchor="middle" x="232.15" y="-56.79" font-family="Helvetica,sans-Serif" font-size="10.00">10</text>
</a>
</g>
</g>
</g>
</svg>
