<?xml version="1.0" encoding="UTF-8" standalone="no"?>
<!DOCTYPE svg PUBLIC "-//W3C//DTD SVG 1.1//EN"
 "http://www.w3.org/Graphics/SVG/1.1/DTD/svg11.dtd">
<!-- Generated by graphviz version 2.43.0 (0)
 -->
<!-- Title: src/VEF/Zones Pages: 1 -->
<svg width="224pt" height="167pt"
 viewBox="0.00 0.00 224.00 167.00" xmlns="http://www.w3.org/2000/svg" xmlns:xlink="http://www.w3.org/1999/xlink">
<g id="graph0" class="graph" transform="scale(1 1) rotate(0) translate(4 163)">
<title>src/VEF/Zones</title>
<polygon fill="white" stroke="transparent" points="-4,4 -4,-163 220,-163 220,4 -4,4"/>
<g id="clust1" class="cluster">
<title>clusterdir_2bf20327eb8d166f9acb0c9b72854f51</title>
<g id="a_clust1"><a xlink:href="dir_2bf20327eb8d166f9acb0c9b72854f51.html" target="_top" xlink:title="VEF">
<polygon fill="#edf0f7" stroke="#7f7f7f" stroke-dasharray="5,2" points="8,-8 8,-151 80,-151 80,-8 8,-8"/>
<text text-anchor="middle" x="44" y="-139" font-family="Helvetica,sans-Serif" font-size="10.00">VEF</text>
</a>
</g>
</g>
<!-- dir_a6b51754580b905273f4f6e3400306f6 -->
<g id="node1" class="node">
<title>dir_a6b51754580b905273f4f6e3400306f6</title>
<g id="a_node1"><a xlink:href="dir_a6b51754580b905273f4f6e3400306f6.html" target="_top" xlink:title="Champs">
<polygon fill="#a2b4d6" stroke="#404040" points="72,-52 16,-52 16,-16 72,-16 72,-52"/>
<text text-anchor="middle" x="44" y="-31.5" font-family="Helvetica,sans-Serif" font-size="10.00">Champs</text>
</a>
</g>
</g>
<!-- dir_32b3b22259e957943f6c9c5b74cc92da -->
<g id="node2" class="node">
<title>dir_32b3b22259e957943f6c9c5b74cc92da</title>
<g id="a_node2"><a xlink:href="dir_32b3b22259e957943f6c9c5b74cc92da.html" target="_top" xlink:title="Zones">
<polygon fill="#edf0f7" stroke="#404040" stroke-width="2" points="72,-124 18,-124 18,-88 72,-88 72,-124"/>
<text text-anchor="middle" x="45" y="-103.5" font-family="Helvetica,sans-Serif" font-size="10.00">Zones</text>
</a>
</g>
</g>
<!-- dir_32b3b22259e957943f6c9c5b74cc92da&#45;&gt;dir_a6b51754580b905273f4f6e3400306f6 -->
<g id="edge2" class="edge">
<title>dir_32b3b22259e957943f6c9c5b74cc92da&#45;&gt;dir_a6b51754580b905273f4f6e3400306f6</title>
<path fill="none" stroke="black" d="M44.75,-87.7C44.64,-79.98 44.51,-70.71 44.39,-62.11"/>
<polygon fill="black" stroke="black" points="47.89,-62.05 44.24,-52.1 40.89,-62.15 47.89,-62.05"/>
<g id="a_edge2&#45;headlabel"><a xlink:href="dir_000123_000008.html" target="_top" xlink:title="19">
<text text-anchor="middle" x="50.78" y="-63.11" font-family="Helvetica,sans-Serif" font-size="10.00">19</text>
</a>
</g>
</g>
<!-- dir_4ebb9cf478835123b919db691d6366a3 -->
<g id="node3" class="node">
<title>dir_4ebb9cf478835123b919db691d6366a3</title>
<g id="a_node3"><a xlink:href="dir_4ebb9cf478835123b919db691d6366a3.html" target="_top" xlink:title="Kernel">
<polygon fill="none" stroke="red" stroke-dasharray="5,2" points="144,-52 90,-52 90,-16 144,-16 144,-52"/>
<text text-anchor="middle" x="117" y="-31.5" font-family="Helvetica,sans-Serif" font-size="10.00">Kernel</text>
</a>
</g>
</g>
<!-- dir_32b3b22259e957943f6c9c5b74cc92da&#45;&gt;dir_4ebb9cf478835123b919db691d6366a3 -->
<g id="edge1" class="edge">
<title>dir_32b3b22259e957943f6c9c5b74cc92da&#45;&gt;dir_4ebb9cf478835123b919db691d6366a3</title>
<path fill="none" stroke="black" d="M62.8,-87.7C71.6,-79.14 82.38,-68.66 92,-59.3"/>
<polygon fill="black" stroke="black" points="94.68,-61.58 99.41,-52.1 89.8,-56.57 94.68,-61.58"/>
<g id="a_edge1&#45;headlabel"><a xlink:href="dir_000123_000046.html" target="_top" xlink:title="45">
<text text-anchor="middle" x="94.08" y="-63.63" font-family="Helvetica,sans-Serif" font-size="10.00">45</text>
</a>
</g>
</g>
<!-- dir_b91833fa2d528be7aecedeb7fe4eea36 -->
<g id="node4" class="node">
<title>dir_b91833fa2d528be7aecedeb7fe4eea36</title>
<g id="a_node4"><a xlink:href="dir_b91833fa2d528be7aecedeb7fe4eea36.html" target="_top" xlink:title="ThHyd">
<polygon fill="none" stroke="red" stroke-dasharray="5,2" points="216,-52 162,-52 162,-16 216,-16 216,-52"/>
<text text-anchor="middle" x="189" y="-31.5" font-family="Helvetica,sans-Serif" font-size="10.00">ThHyd</text>
</a>
</g>
</g>
<!-- dir_32b3b22259e957943f6c9c5b74cc92da&#45;&gt;dir_b91833fa2d528be7aecedeb7fe4eea36 -->
<g id="edge3" class="edge">
<title>dir_32b3b22259e957943f6c9c5b74cc92da&#45;&gt;dir_b91833fa2d528be7aecedeb7fe4eea36</title>
<path fill="none" stroke="black" d="M72.09,-91.83C94.77,-80.81 127.36,-64.97 152.37,-52.81"/>
<polygon fill="black" stroke="black" points="154.08,-55.87 161.55,-48.35 151.02,-49.57 154.08,-55.87"/>
<g id="a_edge3&#45;headlabel"><a xlink:href="dir_000123_000101.html" target="_top" xlink:title="7">
<text text-anchor="middle" x="152.09" y="-57.49" font-family="Helvetica,sans-Serif" font-size="10.00">7</text>
</a>
</g>
</g>
</g>
</svg>
