<?xml version="1.0" encoding="UTF-8" standalone="no"?>
<!DOCTYPE svg PUBLIC "-//W3C//DTD SVG 1.1//EN"
 "http://www.w3.org/Graphics/SVG/1.1/DTD/svg11.dtd">
<!-- Generated by graphviz version 2.43.0 (0)
 -->
<!-- Title: src/ThHyd/Multiphase/Equations Pages: 1 -->
<svg width="466pt" height="167pt"
 viewBox="0.00 0.00 465.50 167.00" xmlns="http://www.w3.org/2000/svg" xmlns:xlink="http://www.w3.org/1999/xlink">
<g id="graph0" class="graph" transform="scale(1 1) rotate(0) translate(4 163)">
<title>src/ThHyd/Multiphase/Equations</title>
<polygon fill="white" stroke="transparent" points="-4,4 -4,-163 461.5,-163 461.5,4 -4,4"/>
<g id="clust1" class="cluster">
<title>clusterdir_ae1602f8cbc6bb02b6536de9aa826f15</title>
<g id="a_clust1"><a xlink:href="dir_ae1602f8cbc6bb02b6536de9aa826f15.html" target="_top" xlink:title="Multiphase">
<polygon fill="#edf0f7" stroke="#7f7f7f" stroke-dasharray="5,2" points="8,-8 8,-151 212,-151 212,-8 8,-8"/>
<text text-anchor="middle" x="110" y="-139" font-family="Helvetica,sans-Serif" font-size="10.00">Multiphase</text>
</a>
</g>
</g>
<!-- dir_81aa6c0fa59c1676a3e13aed969edf3d -->
<g id="node1" class="node">
<title>dir_81aa6c0fa59c1676a3e13aed969edf3d</title>
<g id="a_node1"><a xlink:href="dir_81aa6c0fa59c1676a3e13aed969edf3d.html" target="_top" xlink:title="Schemas_Temps">
<polygon fill="#a2b4d6" stroke="#404040" points="114,-52 16,-52 16,-16 114,-16 114,-52"/>
<text text-anchor="middle" x="65" y="-31.5" font-family="Helvetica,sans-Serif" font-size="10.00">Schemas_Temps</text>
</a>
</g>
</g>
<!-- dir_fd402a27f7542945def33a3fcaecb53e -->
<g id="node2" class="node">
<title>dir_fd402a27f7542945def33a3fcaecb53e</title>
<g id="a_node2"><a xlink:href="dir_fd402a27f7542945def33a3fcaecb53e.html" target="_top" xlink:title="Operateurs">
<polygon fill="#a2b4d6" stroke="#404040" points="203.5,-52 132.5,-52 132.5,-16 203.5,-16 203.5,-52"/>
<text text-anchor="middle" x="168" y="-31.5" font-family="Helvetica,sans-Serif" font-size="10.00">Operateurs</text>
</a>
</g>
</g>
<!-- dir_3cdd54bd2707fe79b899672dacdbc396 -->
<g id="node3" class="node">
<title>dir_3cdd54bd2707fe79b899672dacdbc396</title>
<g id="a_node3"><a xlink:href="dir_3cdd54bd2707fe79b899672dacdbc396.html" target="_top" xlink:title="Equations">
<polygon fill="#edf0f7" stroke="#404040" stroke-width="2" points="203.5,-124 138.5,-124 138.5,-88 203.5,-88 203.5,-124"/>
<text text-anchor="middle" x="171" y="-103.5" font-family="Helvetica,sans-Serif" font-size="10.00">Equations</text>
</a>
</g>
</g>
<!-- dir_3cdd54bd2707fe79b899672dacdbc396&#45;&gt;dir_81aa6c0fa59c1676a3e13aed969edf3d -->
<g id="edge4" class="edge">
<title>dir_3cdd54bd2707fe79b899672dacdbc396&#45;&gt;dir_81aa6c0fa59c1676a3e13aed969edf3d</title>
<path fill="none" stroke="black" d="M145.07,-87.88C131.34,-78.81 114.29,-67.55 99.46,-57.76"/>
<polygon fill="black" stroke="black" points="101.3,-54.78 91.03,-52.19 97.45,-60.62 101.3,-54.78"/>
<g id="a_edge4&#45;headlabel"><a xlink:href="dir_000031_000081.html" target="_top" xlink:title="2">
<text text-anchor="middle" x="105.87" y="-51.89" font-family="Helvetica,sans-Serif" font-size="10.00">2</text>
</a>
</g>
</g>
<!-- dir_3cdd54bd2707fe79b899672dacdbc396&#45;&gt;dir_fd402a27f7542945def33a3fcaecb53e -->
<g id="edge5" class="edge">
<title>dir_3cdd54bd2707fe79b899672dacdbc396&#45;&gt;dir_fd402a27f7542945def33a3fcaecb53e</title>
<path fill="none" stroke="black" d="M170.26,-87.7C169.93,-79.98 169.53,-70.71 169.16,-62.11"/>
<polygon fill="black" stroke="black" points="172.66,-61.95 168.73,-52.1 165.66,-62.25 172.66,-61.95"/>
<g id="a_edge5&#45;headlabel"><a xlink:href="dir_000031_000069.html" target="_top" xlink:title="3">
<text text-anchor="middle" x="175.65" y="-62.92" font-family="Helvetica,sans-Serif" font-size="10.00">3</text>
</a>
</g>
</g>
<!-- dir_13693299dd61556dbbda8b8a807dfaab -->
<g id="node4" class="node">
<title>dir_13693299dd61556dbbda8b8a807dfaab</title>
<g id="a_node4"><a xlink:href="dir_13693299dd61556dbbda8b8a807dfaab.html" target="_top" xlink:title="ThSol">
<polygon fill="none" stroke="#7f7f7f" points="276,-52 222,-52 222,-16 276,-16 276,-52"/>
<text text-anchor="middle" x="249" y="-31.5" font-family="Helvetica,sans-Serif" font-size="10.00">ThSol</text>
</a>
</g>
</g>
<!-- dir_3cdd54bd2707fe79b899672dacdbc396&#45;&gt;dir_13693299dd61556dbbda8b8a807dfaab -->
<g id="edge1" class="edge">
<title>dir_3cdd54bd2707fe79b899672dacdbc396&#45;&gt;dir_13693299dd61556dbbda8b8a807dfaab</title>
<path fill="none" stroke="black" d="M190.28,-87.7C199.92,-79.05 211.73,-68.45 222.23,-59.03"/>
<polygon fill="black" stroke="black" points="224.84,-61.39 229.94,-52.1 220.16,-56.18 224.84,-61.39"/>
<g id="a_edge1&#45;headlabel"><a xlink:href="dir_000031_000102.html" target="_top" xlink:title="2">
<text text-anchor="middle" x="224.06" y="-63.4" font-family="Helvetica,sans-Serif" font-size="10.00">2</text>
</a>
</g>
</g>
<!-- dir_4ebb9cf478835123b919db691d6366a3 -->
<g id="node5" class="node">
<title>dir_4ebb9cf478835123b919db691d6366a3</title>
<g id="a_node5"><a xlink:href="dir_4ebb9cf478835123b919db691d6366a3.html" target="_top" xlink:title="Kernel">
<polygon fill="none" stroke="red" stroke-dasharray="5,2" points="348,-52 294,-52 294,-16 348,-16 348,-52"/>
<text text-anchor="middle" x="321" y="-31.5" font-family="Helvetica,sans-Serif" font-size="10.00">Kernel</text>
</a>
</g>
</g>
<!-- dir_3cdd54bd2707fe79b899672dacdbc396&#45;&gt;dir_4ebb9cf478835123b919db691d6366a3 -->
<g id="edge2" class="edge">
<title>dir_3cdd54bd2707fe79b899672dacdbc396&#45;&gt;dir_4ebb9cf478835123b919db691d6366a3</title>
<path fill="none" stroke="black" d="M203.95,-89.74C224.77,-80.09 252.46,-67.23 284.68,-52.14"/>
<polygon fill="black" stroke="black" points="286.31,-55.24 293.88,-47.83 283.34,-48.9 286.31,-55.24"/>
<g id="a_edge2&#45;headlabel"><a xlink:href="dir_000031_000046.html" target="_top" xlink:title="40">
<text text-anchor="middle" x="284.26" y="-56.84" font-family="Helvetica,sans-Serif" font-size="10.00">40</text>
</a>
</g>
</g>
<!-- dir_51a21c0b7437cb7a9315edf40b46e55a -->
<g id="node6" class="node">
<title>dir_51a21c0b7437cb7a9315edf40b46e55a</title>
<g id="a_node6"><a xlink:href="dir_51a21c0b7437cb7a9315edf40b46e55a.html" target="_top" xlink:title="Incompressible">
<polygon fill="none" stroke="red" stroke-dasharray="5,2" points="457.5,-52 366.5,-52 366.5,-16 457.5,-16 457.5,-52"/>
<text text-anchor="middle" x="412" y="-31.5" font-family="Helvetica,sans-Serif" font-size="10.00">Incompressible</text>
</a>
</g>
</g>
<!-- dir_3cdd54bd2707fe79b899672dacdbc396&#45;&gt;dir_51a21c0b7437cb7a9315edf40b46e55a -->
<g id="edge3" class="edge">
<title>dir_3cdd54bd2707fe79b899672dacdbc396&#45;&gt;dir_51a21c0b7437cb7a9315edf40b46e55a</title>
<path fill="none" stroke="black" d="M203.66,-95.93C238.96,-86.08 297.12,-69.69 356.81,-52.02"/>
<polygon fill="black" stroke="black" points="357.81,-55.38 366.41,-49.18 355.82,-48.67 357.81,-55.38"/>
<g id="a_edge3&#45;headlabel"><a xlink:href="dir_000031_000041.html" target="_top" xlink:title="19">
<text text-anchor="middle" x="355.17" y="-56.62" font-family="Helvetica,sans-Serif" font-size="10.00">19</text>
</a>
</g>
</g>
</g>
</svg>
