<?xml version="1.0" encoding="UTF-8" standalone="no"?>
<!DOCTYPE svg PUBLIC "-//W3C//DTD SVG 1.1//EN"
 "http://www.w3.org/Graphics/SVG/1.1/DTD/svg11.dtd">
<!-- Generated by graphviz version 2.43.0 (0)
 -->
<!-- Title: src/Kernel/Geometrie Pages: 1 -->
<svg width="368pt" height="247pt"
 viewBox="0.00 0.00 368.00 247.00" xmlns="http://www.w3.org/2000/svg" xmlns:xlink="http://www.w3.org/1999/xlink">
<g id="graph0" class="graph" transform="scale(1 1) rotate(0) translate(4 243)">
<title>src/Kernel/Geometrie</title>
<polygon fill="white" stroke="transparent" points="-4,4 -4,-243 364,-243 364,4 -4,4"/>
<g id="clust1" class="cluster">
<title>clusterdir_4ebb9cf478835123b919db691d6366a3</title>
<g id="a_clust1"><a xlink:href="dir_4ebb9cf478835123b919db691d6366a3.html" target="_top" xlink:title="Kernel">
<polygon fill="#edf0f7" stroke="#7f7f7f" stroke-dasharray="5,2" points="8,-8 8,-231 352,-231 352,-8 8,-8"/>
<text text-anchor="middle" x="180" y="-219" font-family="Helvetica,sans-Serif" font-size="10.00">Kernel</text>
</a>
</g>
</g>
<g id="clust2" class="cluster">
<title>clusterdir_248459fe65344770a2fa593f47170c23</title>
<g id="a_clust2"><a xlink:href="dir_248459fe65344770a2fa593f47170c23.html" target="_top">
<polygon fill="#edf0f7" stroke="#404040" stroke-width="2" points="16,-80 16,-204 222,-204 222,-80 16,-80"/>
</a>
</g>
</g>
<!-- dir_0a215d9ccf7924e0d75b691c360a5032 -->
<g id="node1" class="node">
<title>dir_0a215d9ccf7924e0d75b691c360a5032</title>
<g id="a_node1"><a xlink:href="dir_0a215d9ccf7924e0d75b691c360a5032.html" target="_top" xlink:title="Framework">
<polygon fill="#a2b4d6" stroke="#404040" points="126.5,-52 55.5,-52 55.5,-16 126.5,-16 126.5,-52"/>
<text text-anchor="middle" x="91" y="-31.5" font-family="Helvetica,sans-Serif" font-size="10.00">Framework</text>
</a>
</g>
</g>
<!-- dir_65ad971e6c761419c1a7edd88c13347f -->
<g id="node2" class="node">
<title>dir_65ad971e6c761419c1a7edd88c13347f</title>
<g id="a_node2"><a xlink:href="dir_65ad971e6c761419c1a7edd88c13347f.html" target="_top" xlink:title="Math">
<polygon fill="#a2b4d6" stroke="red" points="226,-52 172,-52 172,-16 226,-16 226,-52"/>
<text text-anchor="middle" x="199" y="-31.5" font-family="Helvetica,sans-Serif" font-size="10.00">Math</text>
</a>
</g>
</g>
<!-- dir_be8568a82a3aa3b37d484509da529385 -->
<g id="node3" class="node">
<title>dir_be8568a82a3aa3b37d484509da529385</title>
<g id="a_node3"><a xlink:href="dir_be8568a82a3aa3b37d484509da529385.html" target="_top" xlink:title="VF">
<polygon fill="#a2b4d6" stroke="red" points="284,-124 230,-124 230,-88 284,-88 284,-124"/>
<text text-anchor="middle" x="257" y="-103.5" font-family="Helvetica,sans-Serif" font-size="10.00">VF</text>
</a>
</g>
</g>
<!-- dir_cdaacd66118cd3761cec6ba1adfb2dd4 -->
<g id="node4" class="node">
<title>dir_cdaacd66118cd3761cec6ba1adfb2dd4</title>
<g id="a_node4"><a xlink:href="dir_cdaacd66118cd3761cec6ba1adfb2dd4.html" target="_top" xlink:title="Utilitaires">
<polygon fill="#a2b4d6" stroke="#404040" points="335.5,-52 270.5,-52 270.5,-16 335.5,-16 335.5,-52"/>
<text text-anchor="middle" x="303" y="-31.5" font-family="Helvetica,sans-Serif" font-size="10.00">Utilitaires</text>
</a>
</g>
</g>
<!-- dir_248459fe65344770a2fa593f47170c23 -->
<g id="node5" class="node">
<title>dir_248459fe65344770a2fa593f47170c23</title>
<text text-anchor="middle" x="58" y="-175.5" font-family="Helvetica,sans-Serif" font-size="10.00">Geometrie</text>
</g>
<!-- dir_248459fe65344770a2fa593f47170c23&#45;&gt;dir_0a215d9ccf7924e0d75b691c360a5032 -->
<g id="edge1" class="edge">
<title>dir_248459fe65344770a2fa593f47170c23&#45;&gt;dir_0a215d9ccf7924e0d75b691c360a5032</title>
<path fill="none" stroke="black" d="M61.98,-159.87C67.63,-135.56 78.03,-90.82 84.72,-62.01"/>
<polygon fill="black" stroke="black" points="88.15,-62.72 87.01,-52.19 81.33,-61.14 88.15,-62.72"/>
<g id="a_edge1&#45;headlabel"><a xlink:href="dir_000039_000038.html" target="_top" xlink:title="26">
<text text-anchor="middle" x="90.1" y="-64.37" font-family="Helvetica,sans-Serif" font-size="10.00">26</text>
</a>
</g>
</g>
<!-- dir_248459fe65344770a2fa593f47170c23&#45;&gt;dir_65ad971e6c761419c1a7edd88c13347f -->
<g id="edge3" class="edge">
<title>dir_248459fe65344770a2fa593f47170c23&#45;&gt;dir_65ad971e6c761419c1a7edd88c13347f</title>
<path fill="none" stroke="black" d="M92.22,-163.65C130.51,-148.63 187.43,-126.07 189,-124 202.18,-106.63 203.92,-81.58 202.8,-62.48"/>
<polygon fill="black" stroke="black" points="206.27,-61.95 201.91,-52.29 199.29,-62.56 206.27,-61.95"/>
<g id="a_edge3&#45;headlabel"><a xlink:href="dir_000039_000051.html" target="_top" xlink:title="115">
<text text-anchor="middle" x="209.41" y="-62.78" font-family="Helvetica,sans-Serif" font-size="10.00">115</text>
</a>
</g>
</g>
<!-- dir_248459fe65344770a2fa593f47170c23&#45;&gt;dir_be8568a82a3aa3b37d484509da529385 -->
<g id="edge4" class="edge">
<title>dir_248459fe65344770a2fa593f47170c23&#45;&gt;dir_be8568a82a3aa3b37d484509da529385</title>
<path fill="none" stroke="black" d="M92,-163.53C95.37,-162.3 98.74,-161.1 102,-160 153.29,-142.68 170.97,-145.52 220.5,-126.1"/>
<polygon fill="black" stroke="black" points="221.81,-129.34 229.78,-122.35 219.19,-122.85 221.81,-129.34"/>
<g id="a_edge4&#45;headlabel"><a xlink:href="dir_000039_000116.html" target="_top" xlink:title="9">
<text text-anchor="middle" x="219.54" y="-130.82" font-family="Helvetica,sans-Serif" font-size="10.00">9</text>
</a>
</g>
</g>
<!-- dir_248459fe65344770a2fa593f47170c23&#45;&gt;dir_cdaacd66118cd3761cec6ba1adfb2dd4 -->
<g id="edge5" class="edge">
<title>dir_248459fe65344770a2fa593f47170c23&#45;&gt;dir_cdaacd66118cd3761cec6ba1adfb2dd4</title>
<path fill="none" stroke="black" d="M92.38,-163.03C95.61,-161.93 98.85,-160.9 102,-160 185.08,-136.34 234.23,-187.31 293,-124 301.08,-115.29 303.08,-85.27 303.37,-62.48"/>
<polygon fill="black" stroke="black" points="306.88,-62.32 303.41,-52.31 299.88,-62.3 306.88,-62.32"/>
<g id="a_edge5&#45;headlabel"><a xlink:href="dir_000039_000107.html" target="_top" xlink:title="177">
<text text-anchor="middle" x="309.7" y="-63.43" font-family="Helvetica,sans-Serif" font-size="10.00">177</text>
</a>
</g>
</g>
<!-- dir_48364cb56822401c138704ae8ea70273 -->
<g id="node6" class="node">
<title>dir_48364cb56822401c138704ae8ea70273</title>
<g id="a_node6"><a xlink:href="dir_48364cb56822401c138704ae8ea70273.html" target="_top" xlink:title="Decoupeur">
<polygon fill="#a2b4d6" stroke="#404040" points="179.5,-124 110.5,-124 110.5,-88 179.5,-88 179.5,-124"/>
<text text-anchor="middle" x="145" y="-103.5" font-family="Helvetica,sans-Serif" font-size="10.00">Decoupeur</text>
</a>
</g>
</g>
<!-- dir_248459fe65344770a2fa593f47170c23&#45;&gt;dir_48364cb56822401c138704ae8ea70273 -->
<g id="edge2" class="edge">
<title>dir_248459fe65344770a2fa593f47170c23&#45;&gt;dir_48364cb56822401c138704ae8ea70273</title>
<path fill="none" stroke="black" d="M79.51,-159.7C90.46,-150.88 103.95,-140.03 115.82,-130.47"/>
<polygon fill="black" stroke="black" points="118.14,-133.1 123.74,-124.1 113.76,-127.65 118.14,-133.1"/>
<g id="a_edge2&#45;headlabel"><a xlink:href="dir_000039_000022.html" target="_top" xlink:title="1">
<text text-anchor="middle" x="117.12" y="-135.07" font-family="Helvetica,sans-Serif" font-size="10.00">1</text>
</a>
</g>
</g>
<!-- dir_48364cb56822401c138704ae8ea70273&#45;&gt;dir_0a215d9ccf7924e0d75b691c360a5032 -->
<g id="edge6" class="edge">
<title>dir_48364cb56822401c138704ae8ea70273&#45;&gt;dir_0a215d9ccf7924e0d75b691c360a5032</title>
<path fill="none" stroke="black" d="M131.65,-87.7C125.24,-79.39 117.44,-69.28 110.39,-60.14"/>
<polygon fill="black" stroke="black" points="113.07,-57.88 104.19,-52.1 107.53,-62.16 113.07,-57.88"/>
<g id="a_edge6&#45;headlabel"><a xlink:href="dir_000022_000038.html" target="_top" xlink:title="1">
<text text-anchor="middle" x="117.52" y="-56.5" font-family="Helvetica,sans-Serif" font-size="10.00">1</text>
</a>
</g>
</g>
<!-- dir_48364cb56822401c138704ae8ea70273&#45;&gt;dir_65ad971e6c761419c1a7edd88c13347f -->
<g id="edge7" class="edge">
<title>dir_48364cb56822401c138704ae8ea70273&#45;&gt;dir_65ad971e6c761419c1a7edd88c13347f</title>
<path fill="none" stroke="black" d="M158.35,-87.7C164.76,-79.39 172.56,-69.28 179.61,-60.14"/>
<polygon fill="black" stroke="black" points="182.47,-62.16 185.81,-52.1 176.93,-57.88 182.47,-62.16"/>
<g id="a_edge7&#45;headlabel"><a xlink:href="dir_000022_000051.html" target="_top" xlink:title="17">
<text text-anchor="middle" x="182.52" y="-64.24" font-family="Helvetica,sans-Serif" font-size="10.00">17</text>
</a>
</g>
</g>
<!-- dir_48364cb56822401c138704ae8ea70273&#45;&gt;dir_cdaacd66118cd3761cec6ba1adfb2dd4 -->
<g id="edge8" class="edge">
<title>dir_48364cb56822401c138704ae8ea70273&#45;&gt;dir_cdaacd66118cd3761cec6ba1adfb2dd4</title>
<path fill="none" stroke="black" d="M170.15,-87.81C174.66,-85.03 179.4,-82.31 184,-80 208.69,-67.59 237.68,-56.56 260.86,-48.53"/>
<polygon fill="black" stroke="black" points="262.07,-51.81 270.41,-45.27 259.81,-45.18 262.07,-51.81"/>
<g id="a_edge8&#45;headlabel"><a xlink:href="dir_000022_000107.html" target="_top" xlink:title="40">
<text text-anchor="middle" x="259.58" y="-53.16" font-family="Helvetica,sans-Serif" font-size="10.00">40</text>
</a>
</g>
</g>
<!-- dir_f568e91d3b054dfbf56e3b7a64a9842e -->
<g id="node7" class="node">
<title>dir_f568e91d3b054dfbf56e3b7a64a9842e</title>
<g id="a_node7"><a xlink:href="dir_f568e91d3b054dfbf56e3b7a64a9842e.html" target="_top" xlink:title="Interpolation_IBM">
<polygon fill="#a2b4d6" stroke="#404040" points="213.5,-196 110.5,-196 110.5,-160 213.5,-160 213.5,-196"/>
<text text-anchor="middle" x="162" y="-175.5" font-family="Helvetica,sans-Serif" font-size="10.00">Interpolation_IBM</text>
</a>
</g>
</g>
<!-- dir_f568e91d3b054dfbf56e3b7a64a9842e&#45;&gt;dir_0a215d9ccf7924e0d75b691c360a5032 -->
<g id="edge9" class="edge">
<title>dir_f568e91d3b054dfbf56e3b7a64a9842e&#45;&gt;dir_0a215d9ccf7924e0d75b691c360a5032</title>
<path fill="none" stroke="black" d="M134.85,-159.82C122.77,-150.69 109.58,-138.39 102,-124 91.99,-105 89.57,-80.64 89.47,-62.21"/>
<polygon fill="black" stroke="black" points="92.97,-62.19 89.64,-52.13 85.97,-62.07 92.97,-62.19"/>
<g id="a_edge9&#45;headlabel"><a xlink:href="dir_000042_000038.html" target="_top" xlink:title="6">
<text text-anchor="middle" x="95.75" y="-63.33" font-family="Helvetica,sans-Serif" font-size="10.00">6</text>
</a>
</g>
</g>
<!-- dir_f568e91d3b054dfbf56e3b7a64a9842e&#45;&gt;dir_65ad971e6c761419c1a7edd88c13347f -->
<g id="edge10" class="edge">
<title>dir_f568e91d3b054dfbf56e3b7a64a9842e&#45;&gt;dir_65ad971e6c761419c1a7edd88c13347f</title>
<path fill="none" stroke="black" d="M213.67,-170.19C242.18,-163.5 275.31,-150.24 293,-124 303.93,-107.79 303.42,-96.55 293,-80 280.49,-60.13 256.51,-48.85 235.9,-42.54"/>
<polygon fill="black" stroke="black" points="236.69,-39.13 226.12,-39.83 234.82,-45.88 236.69,-39.13"/>
<g id="a_edge10&#45;headlabel"><a xlink:href="dir_000042_000051.html" target="_top" xlink:title="6">
<text text-anchor="middle" x="240.91" y="-34.85" font-family="Helvetica,sans-Serif" font-size="10.00">6</text>
</a>
</g>
</g>
<!-- dir_f568e91d3b054dfbf56e3b7a64a9842e&#45;&gt;dir_cdaacd66118cd3761cec6ba1adfb2dd4 -->
<g id="edge11" class="edge">
<title>dir_f568e91d3b054dfbf56e3b7a64a9842e&#45;&gt;dir_cdaacd66118cd3761cec6ba1adfb2dd4</title>
<path fill="none" stroke="black" d="M213.84,-171.74C244.9,-165.63 282.12,-152.44 302,-124 314.47,-106.15 313.52,-80.99 310.14,-61.97"/>
<polygon fill="black" stroke="black" points="313.55,-61.2 308.08,-52.12 306.7,-62.63 313.55,-61.2"/>
<g id="a_edge11&#45;headlabel"><a xlink:href="dir_000042_000107.html" target="_top" xlink:title="10">
<text text-anchor="middle" x="317.07" y="-61.63" font-family="Helvetica,sans-Serif" font-size="10.00">10</text>
</a>
</g>
</g>
</g>
</svg>
