<?xml version="1.0" encoding="UTF-8" standalone="no"?>
<!DOCTYPE svg PUBLIC "-//W3C//DTD SVG 1.1//EN"
 "http://www.w3.org/Graphics/SVG/1.1/DTD/svg11.dtd">
<!-- Generated by graphviz version 2.43.0 (0)
 -->
<!-- Title: src/ThSol/Discret_Thermique.h Pages: 1 -->
<svg width="3886pt" height="329pt"
 viewBox="0.00 0.00 3885.50 329.00" xmlns="http://www.w3.org/2000/svg" xmlns:xlink="http://www.w3.org/1999/xlink">
<g id="graph0" class="graph" transform="scale(1 1) rotate(0) translate(4 325)">
<title>src/ThSol/Discret_Thermique.h</title>
<polygon fill="white" stroke="transparent" points="-4,4 -4,-325 3881.5,-325 3881.5,4 -4,4"/>
<!-- Node1 -->
<g id="node1" class="node">
<title>Node1</title>
<g id="a_node1"><a xlink:title=" ">
<polygon fill="#bfbfbf" stroke="black" points="1921.5,-301.5 1921.5,-320.5 2086.5,-320.5 2086.5,-301.5 1921.5,-301.5"/>
<text text-anchor="middle" x="2004" y="-308.5" font-family="Helvetica,sans-Serif" font-size="10.00">src/ThSol/Discret_Thermique.h</text>
</a>
</g>
</g>
<!-- Node2 -->
<g id="node2" class="node">
<title>Node2</title>
<g id="a_node2"><a xlink:href="Discret__Thyd_8h.html" target="_top" xlink:title=" ">
<polygon fill="white" stroke="black" points="1773.5,-234.5 1773.5,-264.5 1916.5,-264.5 1916.5,-234.5 1773.5,-234.5"/>
<text text-anchor="start" x="1781.5" y="-252.5" font-family="Helvetica,sans-Serif" font-size="10.00">src/ThHyd/Incompressible</text>
<text text-anchor="middle" x="1845" y="-241.5" font-family="Helvetica,sans-Serif" font-size="10.00">/Discret_Thyd.h</text>
</a>
</g>
</g>
<!-- Node1&#45;&gt;Node2 -->
<g id="edge1" class="edge">
<title>Node1&#45;&gt;Node2</title>
<path fill="none" stroke="midnightblue" d="M1971.53,-297.85C1945.7,-288.18 1909.53,-274.65 1882.47,-264.52"/>
<polygon fill="midnightblue" stroke="midnightblue" points="1970.63,-301.25 1981.22,-301.48 1973.08,-294.69 1970.63,-301.25"/>
</g>
<!-- Node37 -->
<g id="node37" class="node">
<title>Node37</title>
<g id="a_node37"><a xlink:href="Conduction_8cpp.html" target="_top" xlink:title=" ">
<polygon fill="white" stroke="black" points="1934.5,-240 1934.5,-259 2073.5,-259 2073.5,-240 1934.5,-240"/>
<text text-anchor="middle" x="2004" y="-247" font-family="Helvetica,sans-Serif" font-size="10.00">src/ThSol/Conduction.cpp</text>
</a>
</g>
</g>
<!-- Node1&#45;&gt;Node37 -->
<g id="edge36" class="edge">
<title>Node1&#45;&gt;Node37</title>
<path fill="none" stroke="midnightblue" d="M2004,-291.32C2004,-280.5 2004,-267.4 2004,-259.01"/>
<polygon fill="midnightblue" stroke="midnightblue" points="2000.5,-291.48 2004,-301.48 2007.5,-291.48 2000.5,-291.48"/>
</g>
<!-- Node38 -->
<g id="node38" class="node">
<title>Node38</title>
<g id="a_node38"><a xlink:href="Discret__Thermique_8cpp.html" target="_top" xlink:title=" ">
<polygon fill="white" stroke="black" points="2092,-240 2092,-259 2268,-259 2268,-240 2092,-240"/>
<text text-anchor="middle" x="2180" y="-247" font-family="Helvetica,sans-Serif" font-size="10.00">src/ThSol/Discret_Thermique.cpp</text>
</a>
</g>
</g>
<!-- Node1&#45;&gt;Node38 -->
<g id="edge37" class="edge">
<title>Node1&#45;&gt;Node38</title>
<path fill="none" stroke="midnightblue" d="M2038.81,-298.23C2073.02,-286.67 2124.4,-269.3 2154.83,-259.01"/>
<polygon fill="midnightblue" stroke="midnightblue" points="2037.57,-294.96 2029.22,-301.48 2039.81,-301.59 2037.57,-294.96"/>
</g>
<!-- Node3 -->
<g id="node3" class="node">
<title>Node3</title>
<g id="a_node3"><a xlink:href="EF__discretisation_8h.html" target="_top" xlink:title=" ">
<polygon fill="white" stroke="black" points="138,-162 138,-181 312,-181 312,-162 138,-162"/>
<text text-anchor="middle" x="225" y="-169" font-family="Helvetica,sans-Serif" font-size="10.00">src/EF/Zones/EF_discretisation.h</text>
</a>
</g>
</g>
<!-- Node2&#45;&gt;Node3 -->
<g id="edge2" class="edge">
<title>Node2&#45;&gt;Node3</title>
<path fill="none" stroke="midnightblue" d="M1763.09,-248.09C1489.28,-246.34 607.17,-237.7 326,-198 300.57,-194.41 272.28,-186.96 252.12,-181.03"/>
<polygon fill="midnightblue" stroke="midnightblue" points="1763.33,-251.59 1773.35,-248.15 1763.38,-244.59 1763.33,-251.59"/>
</g>
<!-- Node7 -->
<g id="node7" class="node">
<title>Node7</title>
<g id="a_node7"><a xlink:href="PolyMAC__discretisation_8h.html" target="_top" xlink:title=" ">
<polygon fill="white" stroke="black" points="335.5,-156.5 335.5,-186.5 492.5,-186.5 492.5,-156.5 335.5,-156.5"/>
<text text-anchor="start" x="343.5" y="-174.5" font-family="Helvetica,sans-Serif" font-size="10.00">src/PolyMAC/Zones/PolyMAC</text>
<text text-anchor="middle" x="414" y="-163.5" font-family="Helvetica,sans-Serif" font-size="10.00">_discretisation.h</text>
</a>
</g>
</g>
<!-- Node2&#45;&gt;Node7 -->
<g id="edge6" class="edge">
<title>Node2&#45;&gt;Node7</title>
<path fill="none" stroke="midnightblue" d="M1763.17,-248.07C1510.66,-246.34 745.93,-237.86 501,-198 485.46,-195.47 468.79,-191.03 454.24,-186.55"/>
<polygon fill="midnightblue" stroke="midnightblue" points="1763.35,-251.58 1773.37,-248.14 1763.4,-244.58 1763.35,-251.58"/>
</g>
<!-- Node13 -->
<g id="node13" class="node">
<title>Node13</title>
<g id="a_node13"><a xlink:href="Convection__Diffusion__Chaleur__Fluide__Dilatable__base_8cpp.html" target="_top" xlink:title=" ">
<polygon fill="white" stroke="black" points="510.5,-145.5 510.5,-197.5 683.5,-197.5 683.5,-145.5 510.5,-145.5"/>
<text text-anchor="start" x="518.5" y="-185.5" font-family="Helvetica,sans-Serif" font-size="10.00">src/ThHyd/Dilatable</text>
<text text-anchor="start" x="518.5" y="-174.5" font-family="Helvetica,sans-Serif" font-size="10.00">/Common/Equations/Convection</text>
<text text-anchor="start" x="518.5" y="-163.5" font-family="Helvetica,sans-Serif" font-size="10.00">_Diffusion_Chaleur_Fluide</text>
<text text-anchor="middle" x="597" y="-152.5" font-family="Helvetica,sans-Serif" font-size="10.00">_Dilatable_base.cpp</text>
</a>
</g>
</g>
<!-- Node2&#45;&gt;Node13 -->
<g id="edge12" class="edge">
<title>Node2&#45;&gt;Node13</title>
<path fill="none" stroke="midnightblue" d="M1762.92,-247.23C1535.21,-243.35 898.73,-229.88 692,-198 689.22,-197.57 686.39,-197.09 683.55,-196.57"/>
<polygon fill="midnightblue" stroke="midnightblue" points="1763.07,-250.74 1773.13,-247.41 1763.19,-243.74 1763.07,-250.74"/>
</g>
<!-- Node14 -->
<g id="node14" class="node">
<title>Node14</title>
<g id="a_node14"><a xlink:href="Convection__Diffusion__Espece__Fluide__Dilatable__base_8cpp.html" target="_top" xlink:title=" ">
<polygon fill="white" stroke="black" points="701.5,-145.5 701.5,-197.5 874.5,-197.5 874.5,-145.5 701.5,-145.5"/>
<text text-anchor="start" x="709.5" y="-185.5" font-family="Helvetica,sans-Serif" font-size="10.00">src/ThHyd/Dilatable</text>
<text text-anchor="start" x="709.5" y="-174.5" font-family="Helvetica,sans-Serif" font-size="10.00">/Common/Equations/Convection</text>
<text text-anchor="start" x="709.5" y="-163.5" font-family="Helvetica,sans-Serif" font-size="10.00">_Diffusion_Espece_Fluide</text>
<text text-anchor="middle" x="788" y="-152.5" font-family="Helvetica,sans-Serif" font-size="10.00">_Dilatable_base.cpp</text>
</a>
</g>
</g>
<!-- Node2&#45;&gt;Node14 -->
<g id="edge13" class="edge">
<title>Node2&#45;&gt;Node14</title>
<path fill="none" stroke="midnightblue" d="M1763.22,-246.38C1563.02,-240.84 1052.4,-224.5 884,-198 880.93,-197.52 877.82,-196.98 874.69,-196.39"/>
<polygon fill="midnightblue" stroke="midnightblue" points="1763.28,-249.88 1773.38,-246.66 1763.48,-242.89 1763.28,-249.88"/>
</g>
<!-- Node15 -->
<g id="node15" class="node">
<title>Node15</title>
<g id="a_node15"><a xlink:href="Navier__Stokes__Fluide__Dilatable__base_8cpp.html" target="_top" xlink:title=" ">
<polygon fill="white" stroke="black" points="893,-145.5 893,-197.5 1043,-197.5 1043,-145.5 893,-145.5"/>
<text text-anchor="start" x="901" y="-185.5" font-family="Helvetica,sans-Serif" font-size="10.00">src/ThHyd/Dilatable</text>
<text text-anchor="start" x="901" y="-174.5" font-family="Helvetica,sans-Serif" font-size="10.00">/Common/Equations/Navier</text>
<text text-anchor="start" x="901" y="-163.5" font-family="Helvetica,sans-Serif" font-size="10.00">_Stokes_Fluide_Dilatable</text>
<text text-anchor="middle" x="968" y="-152.5" font-family="Helvetica,sans-Serif" font-size="10.00">_base.cpp</text>
</a>
</g>
</g>
<!-- Node2&#45;&gt;Node15 -->
<g id="edge14" class="edge">
<title>Node2&#45;&gt;Node15</title>
<path fill="none" stroke="midnightblue" d="M1763.12,-249.48C1618.41,-249.84 1308.51,-244.46 1052,-198 1049.15,-197.48 1046.26,-196.9 1043.35,-196.27"/>
<polygon fill="midnightblue" stroke="midnightblue" points="1763.26,-252.98 1773.25,-249.45 1763.24,-245.98 1763.26,-252.98"/>
</g>
<!-- Node16 -->
<g id="node16" class="node">
<title>Node16</title>
<g id="a_node16"><a xlink:href="Convection__Diffusion__Chaleur__QC_8cpp.html" target="_top" xlink:title=" ">
<polygon fill="white" stroke="black" points="1061,-145.5 1061,-197.5 1209,-197.5 1209,-145.5 1061,-145.5"/>
<text text-anchor="start" x="1069" y="-185.5" font-family="Helvetica,sans-Serif" font-size="10.00">src/ThHyd/Dilatable</text>
<text text-anchor="start" x="1069" y="-174.5" font-family="Helvetica,sans-Serif" font-size="10.00">/Quasi_Compressible</text>
<text text-anchor="start" x="1069" y="-163.5" font-family="Helvetica,sans-Serif" font-size="10.00">/Equations/Convection</text>
<text text-anchor="middle" x="1135" y="-152.5" font-family="Helvetica,sans-Serif" font-size="10.00">_Diffusion_Chaleur_QC.cpp</text>
</a>
</g>
</g>
<!-- Node2&#45;&gt;Node16 -->
<g id="edge15" class="edge">
<title>Node2&#45;&gt;Node16</title>
<path fill="none" stroke="midnightblue" d="M1763.08,-247.57C1642.62,-244.92 1411.07,-234.97 1218,-198 1215.04,-197.43 1212.03,-196.8 1209.01,-196.11"/>
<polygon fill="midnightblue" stroke="midnightblue" points="1763.26,-251.07 1773.33,-247.78 1763.4,-244.07 1763.26,-251.07"/>
</g>
<!-- Node17 -->
<g id="node17" class="node">
<title>Node17</title>
<g id="a_node17"><a xlink:href="Discret__Thyd_8cpp.html" target="_top" xlink:title=" ">
<polygon fill="white" stroke="black" points="1227.5,-156.5 1227.5,-186.5 1370.5,-186.5 1370.5,-156.5 1227.5,-156.5"/>
<text text-anchor="start" x="1235.5" y="-174.5" font-family="Helvetica,sans-Serif" font-size="10.00">src/ThHyd/Incompressible</text>
<text text-anchor="middle" x="1299" y="-163.5" font-family="Helvetica,sans-Serif" font-size="10.00">/Discret_Thyd.cpp</text>
</a>
</g>
</g>
<!-- Node2&#45;&gt;Node17 -->
<g id="edge16" class="edge">
<title>Node2&#45;&gt;Node17</title>
<path fill="none" stroke="midnightblue" d="M1763.18,-244.49C1669.7,-238.79 1512.53,-225.77 1380,-198 1366.15,-195.1 1351.29,-190.79 1338.14,-186.53"/>
<polygon fill="midnightblue" stroke="midnightblue" points="1763.23,-248 1773.42,-245.1 1763.64,-241.01 1763.23,-248"/>
</g>
<!-- Node18 -->
<g id="node18" class="node">
<title>Node18</title>
<g id="a_node18"><a xlink:href="Convection__Diffusion__Concentration_8cpp.html" target="_top" xlink:title=" ">
<polygon fill="white" stroke="black" points="1389,-151 1389,-192 1563,-192 1563,-151 1389,-151"/>
<text text-anchor="start" x="1397" y="-180" font-family="Helvetica,sans-Serif" font-size="10.00">src/ThHyd/Incompressible</text>
<text text-anchor="start" x="1397" y="-169" font-family="Helvetica,sans-Serif" font-size="10.00">/Equations/Convection_Diffusion</text>
<text text-anchor="middle" x="1476" y="-158" font-family="Helvetica,sans-Serif" font-size="10.00">_Concentration.cpp</text>
</a>
</g>
</g>
<!-- Node2&#45;&gt;Node18 -->
<g id="edge17" class="edge">
<title>Node2&#45;&gt;Node18</title>
<path fill="none" stroke="midnightblue" d="M1763.48,-235.1C1709.04,-225.75 1635.97,-212.39 1572,-198 1563.92,-196.18 1555.5,-194.15 1547.15,-192.05"/>
<polygon fill="midnightblue" stroke="midnightblue" points="1762.97,-238.57 1773.42,-236.8 1764.15,-231.67 1762.97,-238.57"/>
</g>
<!-- Node19 -->
<g id="node19" class="node">
<title>Node19</title>
<g id="a_node19"><a xlink:href="Convection__Diffusion__Temperature_8cpp.html" target="_top" xlink:title=" ">
<polygon fill="white" stroke="black" points="1581,-151 1581,-192 1755,-192 1755,-151 1581,-151"/>
<text text-anchor="start" x="1589" y="-180" font-family="Helvetica,sans-Serif" font-size="10.00">src/ThHyd/Incompressible</text>
<text text-anchor="start" x="1589" y="-169" font-family="Helvetica,sans-Serif" font-size="10.00">/Equations/Convection_Diffusion</text>
<text text-anchor="middle" x="1668" y="-158" font-family="Helvetica,sans-Serif" font-size="10.00">_Temperature.cpp</text>
</a>
</g>
</g>
<!-- Node2&#45;&gt;Node19 -->
<g id="edge18" class="edge">
<title>Node2&#45;&gt;Node19</title>
<path fill="none" stroke="midnightblue" d="M1802.63,-230.31C1775.81,-218.79 1741.15,-203.91 1713.71,-192.13"/>
<polygon fill="midnightblue" stroke="midnightblue" points="1801.55,-233.65 1812.12,-234.38 1804.31,-227.22 1801.55,-233.65"/>
</g>
<!-- Node20 -->
<g id="node20" class="node">
<title>Node20</title>
<g id="a_node20"><a xlink:href="Navier__Stokes__std_8cpp.html" target="_top" xlink:title=" ">
<polygon fill="white" stroke="black" points="1773.5,-151 1773.5,-192 1916.5,-192 1916.5,-151 1773.5,-151"/>
<text text-anchor="start" x="1781.5" y="-180" font-family="Helvetica,sans-Serif" font-size="10.00">src/ThHyd/Incompressible</text>
<text text-anchor="start" x="1781.5" y="-169" font-family="Helvetica,sans-Serif" font-size="10.00">/Equations/Navier_Stokes</text>
<text text-anchor="middle" x="1845" y="-158" font-family="Helvetica,sans-Serif" font-size="10.00">_std.cpp</text>
</a>
</g>
</g>
<!-- Node2&#45;&gt;Node20 -->
<g id="edge19" class="edge">
<title>Node2&#45;&gt;Node20</title>
<path fill="none" stroke="midnightblue" d="M1845,-224.16C1845,-213.83 1845,-201.94 1845,-192.18"/>
<polygon fill="midnightblue" stroke="midnightblue" points="1841.5,-224.2 1845,-234.2 1848.5,-224.21 1841.5,-224.2"/>
</g>
<!-- Node21 -->
<g id="node21" class="node">
<title>Node21</title>
<g id="a_node21"><a xlink:href="Fluide__Ostwald_8cpp.html" target="_top" xlink:title=" ">
<polygon fill="white" stroke="black" points="1935,-156.5 1935,-186.5 2083,-186.5 2083,-156.5 1935,-156.5"/>
<text text-anchor="start" x="1943" y="-174.5" font-family="Helvetica,sans-Serif" font-size="10.00">src/ThHyd/Incompressible</text>
<text text-anchor="middle" x="2009" y="-163.5" font-family="Helvetica,sans-Serif" font-size="10.00">/Milieu/Fluide_Ostwald.cpp</text>
</a>
</g>
</g>
<!-- Node2&#45;&gt;Node21 -->
<g id="edge20" class="edge">
<title>Node2&#45;&gt;Node21</title>
<path fill="none" stroke="midnightblue" d="M1884.87,-230.02C1913.78,-216.63 1952.28,-198.78 1978.7,-186.54"/>
<polygon fill="midnightblue" stroke="midnightblue" points="1883.06,-227 1875.46,-234.38 1886.01,-233.35 1883.06,-227"/>
</g>
<!-- Node22 -->
<g id="node22" class="node">
<title>Node22</title>
<g id="a_node22"><a xlink:href="Diametre__bulles__champ_8cpp.html" target="_top" xlink:title=" ">
<polygon fill="white" stroke="black" points="2101,-151 2101,-192 2229,-192 2229,-151 2101,-151"/>
<text text-anchor="start" x="2109" y="-180" font-family="Helvetica,sans-Serif" font-size="10.00">src/ThHyd/Multiphase</text>
<text text-anchor="start" x="2109" y="-169" font-family="Helvetica,sans-Serif" font-size="10.00">/Correlations/Diametre</text>
<text text-anchor="middle" x="2165" y="-158" font-family="Helvetica,sans-Serif" font-size="10.00">_bulles_champ.cpp</text>
</a>
</g>
</g>
<!-- Node2&#45;&gt;Node22 -->
<g id="edge21" class="edge">
<title>Node2&#45;&gt;Node22</title>
<path fill="none" stroke="midnightblue" d="M1926.66,-233.03C1986.12,-221.53 2061.39,-206.44 2092,-198 2098.34,-196.25 2104.93,-194.24 2111.44,-192.13"/>
<polygon fill="midnightblue" stroke="midnightblue" points="1925.66,-229.66 1916.51,-234.99 1926.99,-236.53 1925.66,-229.66"/>
</g>
<!-- Node23 -->
<g id="node23" class="node">
<title>Node23</title>
<g id="a_node23"><a xlink:href="Diametre__bulles__constant_8cpp.html" target="_top" xlink:title=" ">
<polygon fill="white" stroke="black" points="2247,-151 2247,-192 2375,-192 2375,-151 2247,-151"/>
<text text-anchor="start" x="2255" y="-180" font-family="Helvetica,sans-Serif" font-size="10.00">src/ThHyd/Multiphase</text>
<text text-anchor="start" x="2255" y="-169" font-family="Helvetica,sans-Serif" font-size="10.00">/Correlations/Diametre</text>
<text text-anchor="middle" x="2311" y="-158" font-family="Helvetica,sans-Serif" font-size="10.00">_bulles_constant.cpp</text>
</a>
</g>
</g>
<!-- Node2&#45;&gt;Node23 -->
<g id="edge22" class="edge">
<title>Node2&#45;&gt;Node23</title>
<path fill="none" stroke="midnightblue" d="M1927.05,-233.77C2065.35,-214.22 2104.71,-228.55 2238,-198 2245.07,-196.38 2252.4,-194.31 2259.57,-192.05"/>
<polygon fill="midnightblue" stroke="midnightblue" points="1926.32,-230.34 1916.92,-235.24 1927.32,-237.27 1926.32,-230.34"/>
</g>
<!-- Node24 -->
<g id="node24" class="node">
<title>Node24</title>
<g id="a_node24"><a xlink:href="Aire__interfaciale_8cpp.html" target="_top" xlink:title=" ">
<polygon fill="white" stroke="black" points="2393.5,-156.5 2393.5,-186.5 2564.5,-186.5 2564.5,-156.5 2393.5,-156.5"/>
<text text-anchor="start" x="2401.5" y="-174.5" font-family="Helvetica,sans-Serif" font-size="10.00">src/ThHyd/Multiphase</text>
<text text-anchor="middle" x="2479" y="-163.5" font-family="Helvetica,sans-Serif" font-size="10.00">/Equations/Aire_interfaciale.cpp</text>
</a>
</g>
</g>
<!-- Node2&#45;&gt;Node24 -->
<g id="edge23" class="edge">
<title>Node2&#45;&gt;Node24</title>
<path fill="none" stroke="midnightblue" d="M1926.99,-233.83C2129.72,-208.51 2185.58,-232.11 2384,-198 2400.33,-195.19 2417.92,-190.85 2433.47,-186.54"/>
<polygon fill="midnightblue" stroke="midnightblue" points="1926.38,-230.38 1916.9,-235.11 1927.27,-237.32 1926.38,-230.38"/>
</g>
<!-- Node25 -->
<g id="node25" class="node">
<title>Node25</title>
<g id="a_node25"><a xlink:href="Energie__Multiphase_8cpp.html" target="_top" xlink:title=" ">
<polygon fill="white" stroke="black" points="2582.5,-156.5 2582.5,-186.5 2769.5,-186.5 2769.5,-156.5 2582.5,-156.5"/>
<text text-anchor="start" x="2590.5" y="-174.5" font-family="Helvetica,sans-Serif" font-size="10.00">src/ThHyd/Multiphase</text>
<text text-anchor="middle" x="2676" y="-163.5" font-family="Helvetica,sans-Serif" font-size="10.00">/Equations/Energie_Multiphase.cpp</text>
</a>
</g>
</g>
<!-- Node2&#45;&gt;Node25 -->
<g id="edge24" class="edge">
<title>Node2&#45;&gt;Node25</title>
<path fill="none" stroke="midnightblue" d="M1927.16,-233.84C2213.28,-201.15 2291.1,-240.34 2573,-198 2590.94,-195.3 2610.33,-190.91 2627.39,-186.52"/>
<polygon fill="midnightblue" stroke="midnightblue" points="1926.42,-230.4 1916.9,-235.04 1927.23,-237.36 1926.42,-230.4"/>
</g>
<!-- Node26 -->
<g id="node26" class="node">
<title>Node26</title>
<g id="a_node26"><a xlink:href="Masse__Multiphase_8cpp.html" target="_top" xlink:title=" ">
<polygon fill="white" stroke="black" points="2788,-156.5 2788,-186.5 2970,-186.5 2970,-156.5 2788,-156.5"/>
<text text-anchor="start" x="2796" y="-174.5" font-family="Helvetica,sans-Serif" font-size="10.00">src/ThHyd/Multiphase</text>
<text text-anchor="middle" x="2879" y="-163.5" font-family="Helvetica,sans-Serif" font-size="10.00">/Equations/Masse_Multiphase.cpp</text>
</a>
</g>
</g>
<!-- Node2&#45;&gt;Node26 -->
<g id="edge25" class="edge">
<title>Node2&#45;&gt;Node26</title>
<path fill="none" stroke="midnightblue" d="M1926.98,-233.88C2303.91,-193.12 2405.82,-252.25 2778,-198 2795.81,-195.4 2815.03,-190.97 2831.88,-186.53"/>
<polygon fill="midnightblue" stroke="midnightblue" points="1926.45,-230.42 1916.89,-234.99 1927.21,-237.38 1926.45,-230.42"/>
</g>
<!-- Node27 -->
<g id="node27" class="node">
<title>Node27</title>
<g id="a_node27"><a xlink:href="QDM__Multiphase_8cpp.html" target="_top" xlink:title=" ">
<polygon fill="white" stroke="black" points="2988,-156.5 2988,-186.5 3162,-186.5 3162,-156.5 2988,-156.5"/>
<text text-anchor="start" x="2996" y="-174.5" font-family="Helvetica,sans-Serif" font-size="10.00">src/ThHyd/Multiphase</text>
<text text-anchor="middle" x="3075" y="-163.5" font-family="Helvetica,sans-Serif" font-size="10.00">/Equations/QDM_Multiphase.cpp</text>
</a>
</g>
</g>
<!-- Node2&#45;&gt;Node27 -->
<g id="edge26" class="edge">
<title>Node2&#45;&gt;Node27</title>
<path fill="none" stroke="midnightblue" d="M1926.91,-233.9C2392.83,-185.23 2518.61,-266.12 2979,-198 2996.06,-195.48 3014.44,-191.03 3030.51,-186.56"/>
<polygon fill="midnightblue" stroke="midnightblue" points="1926.46,-230.43 1916.89,-234.96 1927.2,-237.39 1926.46,-230.43"/>
</g>
<!-- Node28 -->
<g id="node28" class="node">
<title>Node28</title>
<g id="a_node28"><a xlink:href="VDF__discretisation_8h.html" target="_top" xlink:title=" ">
<polygon fill="white" stroke="black" points="3180.5,-162 3180.5,-181 3371.5,-181 3371.5,-162 3180.5,-162"/>
<text text-anchor="middle" x="3276" y="-169" font-family="Helvetica,sans-Serif" font-size="10.00">src/VDF/Zones/VDF_discretisation.h</text>
</a>
</g>
</g>
<!-- Node2&#45;&gt;Node28 -->
<g id="edge27" class="edge">
<title>Node2&#45;&gt;Node28</title>
<path fill="none" stroke="midnightblue" d="M1927.08,-233.89C2477.81,-177.59 2625.28,-271.33 3171,-198 3197.4,-194.45 3226.82,-186.99 3247.78,-181.06"/>
<polygon fill="midnightblue" stroke="midnightblue" points="1926.47,-230.43 1916.89,-234.94 1927.19,-237.4 1926.47,-230.43"/>
</g>
<!-- Node30 -->
<g id="node30" class="node">
<title>Node30</title>
<g id="a_node30"><a xlink:href="VEF__discretisation_8h.html" target="_top" xlink:title=" ">
<polygon fill="white" stroke="black" points="3463,-162 3463,-181 3651,-181 3651,-162 3463,-162"/>
<text text-anchor="middle" x="3557" y="-169" font-family="Helvetica,sans-Serif" font-size="10.00">src/VEF/Zones/VEF_discretisation.h</text>
</a>
</g>
</g>
<!-- Node2&#45;&gt;Node30 -->
<g id="edge29" class="edge">
<title>Node2&#45;&gt;Node30</title>
<path fill="none" stroke="midnightblue" d="M1926.87,-233.91C2570.23,-168.98 2738.72,-251.94 3380,-198 3423.78,-194.32 3473.24,-186.92 3508.72,-181.03"/>
<polygon fill="midnightblue" stroke="midnightblue" points="1926.48,-230.44 1916.88,-234.93 1927.19,-237.4 1926.48,-230.44"/>
</g>
<!-- Node4 -->
<g id="node4" class="node">
<title>Node4</title>
<g id="a_node4"><a xlink:href="EF__axi__discretisation_8h.html" target="_top" xlink:title=" ">
<polygon fill="white" stroke="black" points="0,-78.5 0,-108.5 114,-108.5 114,-78.5 0,-78.5"/>
<text text-anchor="start" x="8" y="-96.5" font-family="Helvetica,sans-Serif" font-size="10.00">src/EF/Zones/EF_axi</text>
<text text-anchor="middle" x="57" y="-85.5" font-family="Helvetica,sans-Serif" font-size="10.00">_discretisation.h</text>
</a>
</g>
</g>
<!-- Node3&#45;&gt;Node4 -->
<g id="edge3" class="edge">
<title>Node3&#45;&gt;Node4</title>
<path fill="none" stroke="midnightblue" d="M196.56,-157.64C166.49,-144.03 119.18,-122.63 88.13,-108.58"/>
<polygon fill="midnightblue" stroke="midnightblue" points="195.5,-161 206.05,-161.93 198.39,-154.62 195.5,-161"/>
</g>
<!-- Node6 -->
<g id="node6" class="node">
<title>Node6</title>
<g id="a_node6"><a xlink:href="EF__discretisation_8cpp.html" target="_top" xlink:title=" ">
<polygon fill="white" stroke="black" points="132.5,-84 132.5,-103 317.5,-103 317.5,-84 132.5,-84"/>
<text text-anchor="middle" x="225" y="-91" font-family="Helvetica,sans-Serif" font-size="10.00">src/EF/Zones/EF_discretisation.cpp</text>
</a>
</g>
</g>
<!-- Node3&#45;&gt;Node6 -->
<g id="edge5" class="edge">
<title>Node3&#45;&gt;Node6</title>
<path fill="none" stroke="midnightblue" d="M225,-151.72C225,-136.2 225,-114.86 225,-103.12"/>
<polygon fill="midnightblue" stroke="midnightblue" points="221.5,-151.78 225,-161.78 228.5,-151.78 221.5,-151.78"/>
</g>
<!-- Node5 -->
<g id="node5" class="node">
<title>Node5</title>
<g id="a_node5"><a xlink:href="EF__axi__discretisation_8cpp.html" target="_top" xlink:title=" ">
<polygon fill="white" stroke="black" points="0,-6 0,-36 114,-36 114,-6 0,-6"/>
<text text-anchor="start" x="8" y="-24" font-family="Helvetica,sans-Serif" font-size="10.00">src/EF/Zones/EF_axi</text>
<text text-anchor="middle" x="57" y="-13" font-family="Helvetica,sans-Serif" font-size="10.00">_discretisation.cpp</text>
</a>
</g>
</g>
<!-- Node4&#45;&gt;Node5 -->
<g id="edge4" class="edge">
<title>Node4&#45;&gt;Node5</title>
<path fill="none" stroke="midnightblue" d="M57,-68.23C57,-57.57 57,-45.41 57,-36.25"/>
<polygon fill="midnightblue" stroke="midnightblue" points="53.5,-68.23 57,-78.23 60.5,-68.23 53.5,-68.23"/>
</g>
<!-- Node8 -->
<g id="node8" class="node">
<title>Node8</title>
<g id="a_node8"><a xlink:href="PolyMAC__P0__discretisation_8h.html" target="_top" xlink:title=" ">
<polygon fill="white" stroke="black" points="335.5,-78.5 335.5,-108.5 492.5,-108.5 492.5,-78.5 335.5,-78.5"/>
<text text-anchor="start" x="343.5" y="-96.5" font-family="Helvetica,sans-Serif" font-size="10.00">src/PolyMAC/Zones/PolyMAC</text>
<text text-anchor="middle" x="414" y="-85.5" font-family="Helvetica,sans-Serif" font-size="10.00">_P0_discretisation.h</text>
</a>
</g>
</g>
<!-- Node7&#45;&gt;Node8 -->
<g id="edge7" class="edge">
<title>Node7&#45;&gt;Node8</title>
<path fill="none" stroke="midnightblue" d="M414,-146.09C414,-133.76 414,-119.22 414,-108.73"/>
<polygon fill="midnightblue" stroke="midnightblue" points="410.5,-146.2 414,-156.2 417.5,-146.21 410.5,-146.2"/>
</g>
<!-- Node12 -->
<g id="node12" class="node">
<title>Node12</title>
<g id="a_node12"><a xlink:href="PolyMAC__discretisation_8cpp.html" target="_top" xlink:title=" ">
<polygon fill="white" stroke="black" points="510.5,-78.5 510.5,-108.5 667.5,-108.5 667.5,-78.5 510.5,-78.5"/>
<text text-anchor="start" x="518.5" y="-96.5" font-family="Helvetica,sans-Serif" font-size="10.00">src/PolyMAC/Zones/PolyMAC</text>
<text text-anchor="middle" x="589" y="-85.5" font-family="Helvetica,sans-Serif" font-size="10.00">_discretisation.cpp</text>
</a>
</g>
</g>
<!-- Node7&#45;&gt;Node12 -->
<g id="edge11" class="edge">
<title>Node7&#45;&gt;Node12</title>
<path fill="none" stroke="midnightblue" d="M455.74,-152.37C486.68,-138.94 528.24,-120.89 556.67,-108.54"/>
<polygon fill="midnightblue" stroke="midnightblue" points="454.28,-149.19 446.51,-156.38 457.07,-155.61 454.28,-149.19"/>
</g>
<!-- Node9 -->
<g id="node9" class="node">
<title>Node9</title>
<g id="a_node9"><a xlink:href="Op__Diff__Turbulent__PolyMAC__P0__Elem_8cpp.html" target="_top" xlink:title=" ">
<polygon fill="white" stroke="black" points="163.5,-0.5 163.5,-41.5 318.5,-41.5 318.5,-0.5 163.5,-0.5"/>
<text text-anchor="start" x="171.5" y="-29.5" font-family="Helvetica,sans-Serif" font-size="10.00">src/PolyMAC/Operateurs</text>
<text text-anchor="start" x="171.5" y="-18.5" font-family="Helvetica,sans-Serif" font-size="10.00">/Op_Diff_Turbulent_PolyMAC</text>
<text text-anchor="middle" x="241" y="-7.5" font-family="Helvetica,sans-Serif" font-size="10.00">_P0_Elem.cpp</text>
</a>
</g>
</g>
<!-- Node8&#45;&gt;Node9 -->
<g id="edge8" class="edge">
<title>Node8&#45;&gt;Node9</title>
<path fill="none" stroke="midnightblue" d="M369.91,-74.53C345.18,-64.45 314.3,-51.87 288.96,-41.55"/>
<polygon fill="midnightblue" stroke="midnightblue" points="368.83,-77.87 379.41,-78.4 371.47,-71.39 368.83,-77.87"/>
</g>
<!-- Node10 -->
<g id="node10" class="node">
<title>Node10</title>
<g id="a_node10"><a xlink:href="Op__Diff__Turbulent__PolyMAC__P0__Face_8cpp.html" target="_top" xlink:title=" ">
<polygon fill="white" stroke="black" points="336.5,-0.5 336.5,-41.5 491.5,-41.5 491.5,-0.5 336.5,-0.5"/>
<text text-anchor="start" x="344.5" y="-29.5" font-family="Helvetica,sans-Serif" font-size="10.00">src/PolyMAC/Operateurs</text>
<text text-anchor="start" x="344.5" y="-18.5" font-family="Helvetica,sans-Serif" font-size="10.00">/Op_Diff_Turbulent_PolyMAC</text>
<text text-anchor="middle" x="414" y="-7.5" font-family="Helvetica,sans-Serif" font-size="10.00">_P0_Face.cpp</text>
</a>
</g>
</g>
<!-- Node8&#45;&gt;Node10 -->
<g id="edge9" class="edge">
<title>Node8&#45;&gt;Node10</title>
<path fill="none" stroke="midnightblue" d="M414,-67.98C414,-59.35 414,-49.76 414,-41.59"/>
<polygon fill="midnightblue" stroke="midnightblue" points="410.5,-68.23 414,-78.23 417.5,-68.23 410.5,-68.23"/>
</g>
<!-- Node11 -->
<g id="node11" class="node">
<title>Node11</title>
<g id="a_node11"><a xlink:href="PolyMAC__P0__discretisation_8cpp.html" target="_top" xlink:title=" ">
<polygon fill="white" stroke="black" points="509.5,-6 509.5,-36 666.5,-36 666.5,-6 509.5,-6"/>
<text text-anchor="start" x="517.5" y="-24" font-family="Helvetica,sans-Serif" font-size="10.00">src/PolyMAC/Zones/PolyMAC</text>
<text text-anchor="middle" x="588" y="-13" font-family="Helvetica,sans-Serif" font-size="10.00">_P0_discretisation.cpp</text>
</a>
</g>
</g>
<!-- Node8&#45;&gt;Node11 -->
<g id="edge10" class="edge">
<title>Node8&#45;&gt;Node11</title>
<path fill="none" stroke="midnightblue" d="M458.43,-74.5C487.9,-62.56 526.02,-47.11 553.27,-36.07"/>
<polygon fill="midnightblue" stroke="midnightblue" points="456.75,-71.4 448.79,-78.4 459.38,-77.89 456.75,-71.4"/>
</g>
<!-- Node29 -->
<g id="node29" class="node">
<title>Node29</title>
<g id="a_node29"><a xlink:href="VDF__discretisation_8cpp.html" target="_top" xlink:title=" ">
<polygon fill="white" stroke="black" points="3138,-84 3138,-103 3340,-103 3340,-84 3138,-84"/>
<text text-anchor="middle" x="3239" y="-91" font-family="Helvetica,sans-Serif" font-size="10.00">src/VDF/Zones/VDF_discretisation.cpp</text>
</a>
</g>
</g>
<!-- Node28&#45;&gt;Node29 -->
<g id="edge28" class="edge">
<title>Node28&#45;&gt;Node29</title>
<path fill="none" stroke="midnightblue" d="M3267.3,-152.62C3259.71,-137.03 3249.02,-115.09 3243.19,-103.12"/>
<polygon fill="midnightblue" stroke="midnightblue" points="3264.23,-154.32 3271.76,-161.78 3270.53,-151.26 3264.23,-154.32"/>
</g>
<!-- Node31 -->
<g id="node31" class="node">
<title>Node31</title>
<g id="a_node31"><a xlink:href="VEFPreP1B_8h.html" target="_top" xlink:title=" ">
<polygon fill="white" stroke="black" points="3358.5,-78.5 3358.5,-108.5 3507.5,-108.5 3507.5,-78.5 3358.5,-78.5"/>
<text text-anchor="start" x="3366.5" y="-96.5" font-family="Helvetica,sans-Serif" font-size="10.00">src/P1NCP1B/Zones/VEFPre</text>
<text text-anchor="middle" x="3433" y="-85.5" font-family="Helvetica,sans-Serif" font-size="10.00">P1B.h</text>
</a>
</g>
</g>
<!-- Node30&#45;&gt;Node31 -->
<g id="edge30" class="edge">
<title>Node30&#45;&gt;Node31</title>
<path fill="none" stroke="midnightblue" d="M3533.98,-156.39C3511.7,-142.74 3478.11,-122.15 3455.87,-108.52"/>
<polygon fill="midnightblue" stroke="midnightblue" points="3532.42,-159.54 3542.78,-161.78 3536.08,-153.57 3532.42,-159.54"/>
</g>
<!-- Node34 -->
<g id="node34" class="node">
<title>Node34</title>
<g id="a_node34"><a xlink:href="VEF__1D_8h.html" target="_top" xlink:title=" ">
<polygon fill="white" stroke="black" points="3525.5,-84 3525.5,-103 3660.5,-103 3660.5,-84 3525.5,-84"/>
<text text-anchor="middle" x="3593" y="-91" font-family="Helvetica,sans-Serif" font-size="10.00">src/VEF/Zones/VEF_1D.h</text>
</a>
</g>
</g>
<!-- Node30&#45;&gt;Node34 -->
<g id="edge33" class="edge">
<title>Node30&#45;&gt;Node34</title>
<path fill="none" stroke="midnightblue" d="M3565.47,-152.62C3572.85,-137.03 3583.25,-115.09 3588.92,-103.12"/>
<polygon fill="midnightblue" stroke="midnightblue" points="3562.25,-151.25 3561.13,-161.78 3568.57,-154.24 3562.25,-151.25"/>
</g>
<!-- Node36 -->
<g id="node36" class="node">
<title>Node36</title>
<g id="a_node36"><a xlink:href="VEF__discretisation_8cpp.html" target="_top" xlink:title=" ">
<polygon fill="white" stroke="black" points="3678.5,-84 3678.5,-103 3877.5,-103 3877.5,-84 3678.5,-84"/>
<text text-anchor="middle" x="3778" y="-91" font-family="Helvetica,sans-Serif" font-size="10.00">src/VEF/Zones/VEF_discretisation.cpp</text>
</a>
</g>
</g>
<!-- Node30&#45;&gt;Node36 -->
<g id="edge35" class="edge">
<title>Node30&#45;&gt;Node36</title>
<path fill="none" stroke="midnightblue" d="M3591.52,-158.63C3636.38,-143.2 3713.66,-116.63 3753.17,-103.04"/>
<polygon fill="midnightblue" stroke="midnightblue" points="3590.24,-155.37 3581.92,-161.93 3592.52,-161.99 3590.24,-155.37"/>
</g>
<!-- Node32 -->
<g id="node32" class="node">
<title>Node32</title>
<g id="a_node32"><a xlink:href="VEFPreP1B_8cpp.html" target="_top" xlink:title=" ">
<polygon fill="white" stroke="black" points="3195.5,-6 3195.5,-36 3344.5,-36 3344.5,-6 3195.5,-6"/>
<text text-anchor="start" x="3203.5" y="-24" font-family="Helvetica,sans-Serif" font-size="10.00">src/P1NCP1B/Zones/VEFPre</text>
<text text-anchor="middle" x="3270" y="-13" font-family="Helvetica,sans-Serif" font-size="10.00">P1B.cpp</text>
</a>
</g>
</g>
<!-- Node31&#45;&gt;Node32 -->
<g id="edge31" class="edge">
<title>Node31&#45;&gt;Node32</title>
<path fill="none" stroke="midnightblue" d="M3391.02,-74.34C3363.46,-62.42 3327.95,-47.07 3302.54,-36.07"/>
<polygon fill="midnightblue" stroke="midnightblue" points="3389.84,-77.65 3400.41,-78.4 3392.62,-71.22 3389.84,-77.65"/>
</g>
<!-- Node33 -->
<g id="node33" class="node">
<title>Node33</title>
<g id="a_node33"><a xlink:href="Zone__VEF__PreP1b_8cpp.html" target="_top" xlink:title=" ">
<polygon fill="white" stroke="black" points="3363,-6 3363,-36 3503,-36 3503,-6 3363,-6"/>
<text text-anchor="start" x="3371" y="-24" font-family="Helvetica,sans-Serif" font-size="10.00">src/P1NCP1B/Zones/Zone</text>
<text text-anchor="middle" x="3433" y="-13" font-family="Helvetica,sans-Serif" font-size="10.00">_VEF_PreP1b.cpp</text>
</a>
</g>
</g>
<!-- Node31&#45;&gt;Node33 -->
<g id="edge32" class="edge">
<title>Node31&#45;&gt;Node33</title>
<path fill="none" stroke="midnightblue" d="M3433,-68.23C3433,-57.57 3433,-45.41 3433,-36.25"/>
<polygon fill="midnightblue" stroke="midnightblue" points="3429.5,-68.23 3433,-78.23 3436.5,-68.23 3429.5,-68.23"/>
</g>
<!-- Node35 -->
<g id="node35" class="node">
<title>Node35</title>
<g id="a_node35"><a xlink:href="VEF__1D_8cpp.html" target="_top" xlink:title=" ">
<polygon fill="white" stroke="black" points="3521,-11.5 3521,-30.5 3667,-30.5 3667,-11.5 3521,-11.5"/>
<text text-anchor="middle" x="3594" y="-18.5" font-family="Helvetica,sans-Serif" font-size="10.00">src/VEF/Zones/VEF_1D.cpp</text>
</a>
</g>
</g>
<!-- Node34&#45;&gt;Node35 -->
<g id="edge34" class="edge">
<title>Node34&#45;&gt;Node35</title>
<path fill="none" stroke="midnightblue" d="M3593.27,-73.44C3593.47,-59.53 3593.73,-41.32 3593.88,-30.72"/>
<polygon fill="midnightblue" stroke="midnightblue" points="3589.76,-73.81 3593.12,-83.86 3596.76,-73.91 3589.76,-73.81"/>
</g>
</g>
</svg>
