<?xml version="1.0" encoding="UTF-8" standalone="no"?>
<!DOCTYPE svg PUBLIC "-//W3C//DTD SVG 1.1//EN"
 "http://www.w3.org/Graphics/SVG/1.1/DTD/svg11.dtd">
<!-- Generated by graphviz version 2.43.0 (0)
 -->
<!-- Title: src/PolyMAC/Cond_Lim/Echange_contact_PolyMAC_P0.h Pages: 1 -->
<svg width="1016pt" height="117pt"
 viewBox="0.00 0.00 1015.50 117.00" xmlns="http://www.w3.org/2000/svg" xmlns:xlink="http://www.w3.org/1999/xlink">
<g id="graph0" class="graph" transform="scale(1 1) rotate(0) translate(4 113)">
<title>src/PolyMAC/Cond_Lim/Echange_contact_PolyMAC_P0.h</title>
<polygon fill="white" stroke="transparent" points="-4,4 -4,-113 1011.5,-113 1011.5,4 -4,4"/>
<!-- Node1 -->
<g id="node1" class="node">
<title>Node1</title>
<g id="a_node1"><a xlink:title=" ">
<polygon fill="#bfbfbf" stroke="black" points="399,-78.5 399,-108.5 576,-108.5 576,-78.5 399,-78.5"/>
<text text-anchor="start" x="407" y="-96.5" font-family="Helvetica,sans-Serif" font-size="10.00">src/PolyMAC/Cond_Lim</text>
<text text-anchor="middle" x="487.5" y="-85.5" font-family="Helvetica,sans-Serif" font-size="10.00">/Echange_contact_PolyMAC_P0.h</text>
</a>
</g>
</g>
<!-- Node2 -->
<g id="node2" class="node">
<title>Node2</title>
<g id="a_node2"><a xlink:href="Champ__Elem__PolyMAC_8cpp.html" target="_top" xlink:title=" ">
<polygon fill="white" stroke="black" points="0,-6 0,-36 153,-36 153,-6 0,-6"/>
<text text-anchor="start" x="8" y="-24" font-family="Helvetica,sans-Serif" font-size="10.00">src/PolyMAC/Champs</text>
<text text-anchor="middle" x="76.5" y="-13" font-family="Helvetica,sans-Serif" font-size="10.00">/Champ_Elem_PolyMAC.cpp</text>
</a>
</g>
</g>
<!-- Node1&#45;&gt;Node2 -->
<g id="edge1" class="edge">
<title>Node1&#45;&gt;Node2</title>
<path fill="none" stroke="midnightblue" d="M388.76,-79.23C323.93,-70.02 237.41,-56.79 161.5,-42 152.42,-40.23 142.85,-38.17 133.52,-36.06"/>
<polygon fill="midnightblue" stroke="midnightblue" points="388.58,-82.74 398.97,-80.68 389.56,-75.81 388.58,-82.74"/>
</g>
<!-- Node3 -->
<g id="node3" class="node">
<title>Node3</title>
<g id="a_node3"><a xlink:href="Champ__Elem__PolyMAC__P0_8cpp.html" target="_top" xlink:title=" ">
<polygon fill="white" stroke="black" points="171,-0.5 171,-41.5 304,-41.5 304,-0.5 171,-0.5"/>
<text text-anchor="start" x="179" y="-29.5" font-family="Helvetica,sans-Serif" font-size="10.00">src/PolyMAC/Champs</text>
<text text-anchor="start" x="179" y="-18.5" font-family="Helvetica,sans-Serif" font-size="10.00">/Champ_Elem_PolyMAC</text>
<text text-anchor="middle" x="237.5" y="-7.5" font-family="Helvetica,sans-Serif" font-size="10.00">_P0.cpp</text>
</a>
</g>
</g>
<!-- Node1&#45;&gt;Node3 -->
<g id="edge2" class="edge">
<title>Node1&#45;&gt;Node3</title>
<path fill="none" stroke="midnightblue" d="M428.09,-75.75C390.83,-65.24 342.71,-51.67 304.15,-40.79"/>
<polygon fill="midnightblue" stroke="midnightblue" points="427.23,-79.14 437.81,-78.49 429.13,-72.4 427.23,-79.14"/>
</g>
<!-- Node4 -->
<g id="node4" class="node">
<title>Node4</title>
<g id="a_node4"><a xlink:href="Echange__contact__PolyMAC__P0_8cpp.html" target="_top" xlink:title=" ">
<polygon fill="white" stroke="black" points="322,-0.5 322,-41.5 473,-41.5 473,-0.5 322,-0.5"/>
<text text-anchor="start" x="330" y="-29.5" font-family="Helvetica,sans-Serif" font-size="10.00">src/PolyMAC/Cond_Lim</text>
<text text-anchor="start" x="330" y="-18.5" font-family="Helvetica,sans-Serif" font-size="10.00">/Echange_contact_PolyMAC</text>
<text text-anchor="middle" x="397.5" y="-7.5" font-family="Helvetica,sans-Serif" font-size="10.00">_P0.cpp</text>
</a>
</g>
</g>
<!-- Node1&#45;&gt;Node4 -->
<g id="edge3" class="edge">
<title>Node1&#45;&gt;Node4</title>
<path fill="none" stroke="midnightblue" d="M461.24,-71.93C449.03,-62.36 434.56,-51.03 422.51,-41.59"/>
<polygon fill="midnightblue" stroke="midnightblue" points="459.26,-74.82 469.29,-78.23 463.57,-69.31 459.26,-74.82"/>
</g>
<!-- Node5 -->
<g id="node5" class="node">
<title>Node5</title>
<g id="a_node5"><a xlink:href="Op__Diff__PolyMAC__P0__Elem_8cpp.html" target="_top" xlink:title=" ">
<polygon fill="white" stroke="black" points="491.5,-6 491.5,-36 663.5,-36 663.5,-6 491.5,-6"/>
<text text-anchor="start" x="499.5" y="-24" font-family="Helvetica,sans-Serif" font-size="10.00">src/PolyMAC/Operateurs</text>
<text text-anchor="middle" x="577.5" y="-13" font-family="Helvetica,sans-Serif" font-size="10.00">/Op_Diff_PolyMAC_P0_Elem.cpp</text>
</a>
</g>
</g>
<!-- Node1&#45;&gt;Node5 -->
<g id="edge4" class="edge">
<title>Node1&#45;&gt;Node5</title>
<path fill="none" stroke="midnightblue" d="M513.94,-71.79C528.65,-60.27 546.56,-46.23 559.62,-36"/>
<polygon fill="midnightblue" stroke="midnightblue" points="511.43,-69.31 505.71,-78.23 515.74,-74.82 511.43,-69.31"/>
</g>
<!-- Node6 -->
<g id="node6" class="node">
<title>Node6</title>
<g id="a_node6"><a xlink:href="Op__Diff__PolyMAC__P0__base_8cpp.html" target="_top" xlink:title=" ">
<polygon fill="white" stroke="black" points="681.5,-6 681.5,-36 851.5,-36 851.5,-6 681.5,-6"/>
<text text-anchor="start" x="689.5" y="-24" font-family="Helvetica,sans-Serif" font-size="10.00">src/PolyMAC/Operateurs</text>
<text text-anchor="middle" x="766.5" y="-13" font-family="Helvetica,sans-Serif" font-size="10.00">/Op_Diff_PolyMAC_P0_base.cpp</text>
</a>
</g>
</g>
<!-- Node1&#45;&gt;Node6 -->
<g id="edge5" class="edge">
<title>Node1&#45;&gt;Node6</title>
<path fill="none" stroke="midnightblue" d="M552.92,-75.97C600.83,-63.86 665.17,-47.6 710.67,-36.11"/>
<polygon fill="midnightblue" stroke="midnightblue" points="551.79,-72.64 542.95,-78.49 553.51,-79.43 551.79,-72.64"/>
</g>
<!-- Node7 -->
<g id="node7" class="node">
<title>Node7</title>
<g id="a_node7"><a xlink:href="Zone__PolyMAC__P0_8cpp.html" target="_top" xlink:title=" ">
<polygon fill="white" stroke="black" points="869.5,-6 869.5,-36 1007.5,-36 1007.5,-6 869.5,-6"/>
<text text-anchor="start" x="877.5" y="-24" font-family="Helvetica,sans-Serif" font-size="10.00">src/PolyMAC/Zones/Zone</text>
<text text-anchor="middle" x="938.5" y="-13" font-family="Helvetica,sans-Serif" font-size="10.00">_PolyMAC_P0.cpp</text>
</a>
</g>
</g>
<!-- Node1&#45;&gt;Node7 -->
<g id="edge6" class="edge">
<title>Node1&#45;&gt;Node7</title>
<path fill="none" stroke="midnightblue" d="M586.13,-82.32C661.62,-73.76 768.12,-60.03 860.5,-42 869.14,-40.31 878.26,-38.24 887.09,-36.09"/>
<polygon fill="midnightblue" stroke="midnightblue" points="585.7,-78.84 576.15,-83.44 586.48,-85.8 585.7,-78.84"/>
</g>
</g>
</svg>
