<?xml version="1.0" encoding="UTF-8" standalone="no"?>
<!DOCTYPE svg PUBLIC "-//W3C//DTD SVG 1.1//EN"
 "http://www.w3.org/Graphics/SVG/1.1/DTD/svg11.dtd">
<!-- Generated by graphviz version 2.43.0 (0)
 -->
<!-- Title: src/PolyMAC/Cond_Lim/Echange_contact_PolyMAC.h Pages: 1 -->
<svg width="694pt" height="106pt"
 viewBox="0.00 0.00 694.00 106.00" xmlns="http://www.w3.org/2000/svg" xmlns:xlink="http://www.w3.org/1999/xlink">
<g id="graph0" class="graph" transform="scale(1 1) rotate(0) translate(4 102)">
<title>src/PolyMAC/Cond_Lim/Echange_contact_PolyMAC.h</title>
<polygon fill="white" stroke="transparent" points="-4,4 -4,-102 690,-102 690,4 -4,4"/>
<!-- Node1 -->
<g id="node1" class="node">
<title>Node1</title>
<g id="a_node1"><a xlink:title=" ">
<polygon fill="#bfbfbf" stroke="black" points="266.5,-67.5 266.5,-97.5 426.5,-97.5 426.5,-67.5 266.5,-67.5"/>
<text text-anchor="start" x="274.5" y="-85.5" font-family="Helvetica,sans-Serif" font-size="10.00">src/PolyMAC/Cond_Lim</text>
<text text-anchor="middle" x="346.5" y="-74.5" font-family="Helvetica,sans-Serif" font-size="10.00">/Echange_contact_PolyMAC.h</text>
</a>
</g>
</g>
<!-- Node2 -->
<g id="node2" class="node">
<title>Node2</title>
<g id="a_node2"><a xlink:href="Champ__Elem__PolyMAC_8cpp.html" target="_top" xlink:title=" ">
<polygon fill="white" stroke="black" points="0,-0.5 0,-30.5 153,-30.5 153,-0.5 0,-0.5"/>
<text text-anchor="start" x="8" y="-18.5" font-family="Helvetica,sans-Serif" font-size="10.00">src/PolyMAC/Champs</text>
<text text-anchor="middle" x="76.5" y="-7.5" font-family="Helvetica,sans-Serif" font-size="10.00">/Champ_Elem_PolyMAC.cpp</text>
</a>
</g>
</g>
<!-- Node1&#45;&gt;Node2 -->
<g id="edge1" class="edge">
<title>Node1&#45;&gt;Node2</title>
<path fill="none" stroke="midnightblue" d="M278.45,-65.12C234.27,-54.48 177.28,-40.76 135.11,-30.61"/>
<polygon fill="midnightblue" stroke="midnightblue" points="277.7,-68.54 288.25,-67.48 279.34,-61.73 277.7,-68.54"/>
</g>
<!-- Node3 -->
<g id="node3" class="node">
<title>Node3</title>
<g id="a_node3"><a xlink:href="Echange__contact__PolyMAC_8cpp.html" target="_top" xlink:title=" ">
<polygon fill="white" stroke="black" points="171,-0.5 171,-30.5 342,-30.5 342,-0.5 171,-0.5"/>
<text text-anchor="start" x="179" y="-18.5" font-family="Helvetica,sans-Serif" font-size="10.00">src/PolyMAC/Cond_Lim</text>
<text text-anchor="middle" x="256.5" y="-7.5" font-family="Helvetica,sans-Serif" font-size="10.00">/Echange_contact_PolyMAC.cpp</text>
</a>
</g>
</g>
<!-- Node1&#45;&gt;Node3 -->
<g id="edge2" class="edge">
<title>Node1&#45;&gt;Node3</title>
<path fill="none" stroke="midnightblue" d="M318.74,-61.45C304.89,-51.45 288.48,-39.6 275.99,-30.58"/>
<polygon fill="midnightblue" stroke="midnightblue" points="316.82,-64.38 326.97,-67.4 320.91,-58.7 316.82,-64.38"/>
</g>
<!-- Node4 -->
<g id="node4" class="node">
<title>Node4</title>
<g id="a_node4"><a xlink:href="Op__Diff__PolyMAC__Elem_8cpp.html" target="_top" xlink:title=" ">
<polygon fill="white" stroke="black" points="360,-0.5 360,-30.5 515,-30.5 515,-0.5 360,-0.5"/>
<text text-anchor="start" x="368" y="-18.5" font-family="Helvetica,sans-Serif" font-size="10.00">src/PolyMAC/Operateurs</text>
<text text-anchor="middle" x="437.5" y="-7.5" font-family="Helvetica,sans-Serif" font-size="10.00">/Op_Diff_PolyMAC_Elem.cpp</text>
</a>
</g>
</g>
<!-- Node1&#45;&gt;Node4 -->
<g id="edge3" class="edge">
<title>Node1&#45;&gt;Node4</title>
<path fill="none" stroke="midnightblue" d="M374.57,-61.45C388.57,-51.45 405.16,-39.6 417.79,-30.58"/>
<polygon fill="midnightblue" stroke="midnightblue" points="372.35,-58.74 366.25,-67.4 376.42,-64.43 372.35,-58.74"/>
</g>
<!-- Node5 -->
<g id="node5" class="node">
<title>Node5</title>
<g id="a_node5"><a xlink:href="Op__Diff__PolyMAC__base_8cpp.html" target="_top" xlink:title=" ">
<polygon fill="white" stroke="black" points="533,-0.5 533,-30.5 686,-30.5 686,-0.5 533,-0.5"/>
<text text-anchor="start" x="541" y="-18.5" font-family="Helvetica,sans-Serif" font-size="10.00">src/PolyMAC/Operateurs</text>
<text text-anchor="middle" x="609.5" y="-7.5" font-family="Helvetica,sans-Serif" font-size="10.00">/Op_Diff_PolyMAC_base.cpp</text>
</a>
</g>
</g>
<!-- Node1&#45;&gt;Node5 -->
<g id="edge4" class="edge">
<title>Node1&#45;&gt;Node5</title>
<path fill="none" stroke="midnightblue" d="M413.05,-65.05C456.05,-54.43 511.42,-40.74 552.41,-30.61"/>
<polygon fill="midnightblue" stroke="midnightblue" points="412.11,-61.68 403.24,-67.48 413.79,-68.47 412.11,-61.68"/>
</g>
</g>
</svg>
