<?xml version="1.0" encoding="UTF-8" standalone="no"?>
<!DOCTYPE svg PUBLIC "-//W3C//DTD SVG 1.1//EN"
 "http://www.w3.org/Graphics/SVG/1.1/DTD/svg11.dtd">
<!-- Generated by graphviz version 2.43.0 (0)
 -->
<!-- Title: src/ThSol/Echange_interne_global_parfait.h Pages: 1 -->
<svg width="564pt" height="106pt"
 viewBox="0.00 0.00 564.00 106.00" xmlns="http://www.w3.org/2000/svg" xmlns:xlink="http://www.w3.org/1999/xlink">
<g id="graph0" class="graph" transform="scale(1 1) rotate(0) translate(4 102)">
<title>src/ThSol/Echange_interne_global_parfait.h</title>
<polygon fill="white" stroke="transparent" points="-4,4 -4,-102 560,-102 560,4 -4,4"/>
<!-- Node1 -->
<g id="node1" class="node">
<title>Node1</title>
<g id="a_node1"><a xlink:title=" ">
<polygon fill="#bfbfbf" stroke="black" points="192,-67.5 192,-97.5 337,-97.5 337,-67.5 192,-67.5"/>
<text text-anchor="start" x="200" y="-85.5" font-family="Helvetica,sans-Serif" font-size="10.00">src/ThSol/Echange_interne</text>
<text text-anchor="middle" x="264.5" y="-74.5" font-family="Helvetica,sans-Serif" font-size="10.00">_global_parfait.h</text>
</a>
</g>
</g>
<!-- Node2 -->
<g id="node2" class="node">
<title>Node2</title>
<g id="a_node2"><a xlink:href="Op__Diff__EF_8cpp.html" target="_top" xlink:title=" ">
<polygon fill="white" stroke="black" points="0,-0.5 0,-30.5 119,-30.5 119,-0.5 0,-0.5"/>
<text text-anchor="start" x="8" y="-18.5" font-family="Helvetica,sans-Serif" font-size="10.00">src/EF/Operateurs/Op</text>
<text text-anchor="middle" x="59.5" y="-7.5" font-family="Helvetica,sans-Serif" font-size="10.00">_Diff_EF.cpp</text>
</a>
</g>
</g>
<!-- Node1&#45;&gt;Node2 -->
<g id="edge1" class="edge">
<title>Node1&#45;&gt;Node2</title>
<path fill="none" stroke="midnightblue" d="M210.71,-64.44C177.48,-53.91 135.35,-40.55 104,-30.61"/>
<polygon fill="midnightblue" stroke="midnightblue" points="209.68,-67.79 220.27,-67.48 211.8,-61.12 209.68,-67.79"/>
</g>
<!-- Node3 -->
<g id="node3" class="node">
<title>Node3</title>
<g id="a_node3"><a xlink:href="Op__Dift__EF__Q1_8cpp.html" target="_top" xlink:title=" ">
<polygon fill="white" stroke="black" points="137,-0.5 137,-30.5 256,-30.5 256,-0.5 137,-0.5"/>
<text text-anchor="start" x="145" y="-18.5" font-family="Helvetica,sans-Serif" font-size="10.00">src/EF/Operateurs/Op</text>
<text text-anchor="middle" x="196.5" y="-7.5" font-family="Helvetica,sans-Serif" font-size="10.00">_Dift_EF_Q1.cpp</text>
</a>
</g>
</g>
<!-- Node1&#45;&gt;Node3 -->
<g id="edge2" class="edge">
<title>Node1&#45;&gt;Node3</title>
<path fill="none" stroke="midnightblue" d="M242.33,-60.31C232.13,-50.56 220.31,-39.26 211.23,-30.58"/>
<polygon fill="midnightblue" stroke="midnightblue" points="240.1,-63.02 249.75,-67.4 244.93,-57.96 240.1,-63.02"/>
</g>
<!-- Node4 -->
<g id="node4" class="node">
<title>Node4</title>
<g id="a_node4"><a xlink:href="Op__EF__base_8cpp.html" target="_top" xlink:title=" ">
<polygon fill="white" stroke="black" points="274,-0.5 274,-30.5 393,-30.5 393,-0.5 274,-0.5"/>
<text text-anchor="start" x="282" y="-18.5" font-family="Helvetica,sans-Serif" font-size="10.00">src/EF/Operateurs/Op</text>
<text text-anchor="middle" x="333.5" y="-7.5" font-family="Helvetica,sans-Serif" font-size="10.00">_EF_base.cpp</text>
</a>
</g>
</g>
<!-- Node1&#45;&gt;Node4 -->
<g id="edge3" class="edge">
<title>Node1&#45;&gt;Node4</title>
<path fill="none" stroke="midnightblue" d="M286.99,-60.31C297.34,-50.56 309.34,-39.26 318.56,-30.58"/>
<polygon fill="midnightblue" stroke="midnightblue" points="284.35,-57.99 279.47,-67.4 289.15,-63.09 284.35,-57.99"/>
</g>
<!-- Node5 -->
<g id="node5" class="node">
<title>Node5</title>
<g id="a_node5"><a xlink:href="Echange__interne__global__parfait_8cpp.html" target="_top" xlink:title=" ">
<polygon fill="white" stroke="black" points="411,-0.5 411,-30.5 556,-30.5 556,-0.5 411,-0.5"/>
<text text-anchor="start" x="419" y="-18.5" font-family="Helvetica,sans-Serif" font-size="10.00">src/ThSol/Echange_interne</text>
<text text-anchor="middle" x="483.5" y="-7.5" font-family="Helvetica,sans-Serif" font-size="10.00">_global_parfait.cpp</text>
</a>
</g>
</g>
<!-- Node1&#45;&gt;Node5 -->
<g id="edge4" class="edge">
<title>Node1&#45;&gt;Node5</title>
<path fill="none" stroke="midnightblue" d="M321.51,-64.58C357.08,-54.02 402.33,-40.59 435.96,-30.61"/>
<polygon fill="midnightblue" stroke="midnightblue" points="320.34,-61.28 311.75,-67.48 322.33,-67.99 320.34,-61.28"/>
</g>
</g>
</svg>
