<?xml version="1.0" encoding="UTF-8" standalone="no"?>
<!DOCTYPE svg PUBLIC "-//W3C//DTD SVG 1.1//EN"
 "http://www.w3.org/Graphics/SVG/1.1/DTD/svg11.dtd">
<!-- Generated by graphviz version 2.43.0 (0)
 -->
<!-- Title: src/Kernel/Utilitaires/EcrFicCollecte.cpp Pages: 1 -->
<svg width="1147pt" height="823pt"
 viewBox="0.00 0.00 1147.00 823.00" xmlns="http://www.w3.org/2000/svg" xmlns:xlink="http://www.w3.org/1999/xlink">
<g id="graph0" class="graph" transform="scale(1 1) rotate(0) translate(4 819)">
<title>src/Kernel/Utilitaires/EcrFicCollecte.cpp</title>
<polygon fill="white" stroke="transparent" points="-4,4 -4,-819 1143,-819 1143,4 -4,4"/>
<!-- Node1 -->
<g id="node1" class="node">
<title>Node1</title>
<g id="a_node1"><a xlink:title=" ">
<polygon fill="#bfbfbf" stroke="black" points="756,-784.5 756,-814.5 872,-814.5 872,-784.5 756,-784.5"/>
<text text-anchor="start" x="764" y="-802.5" font-family="Helvetica,sans-Serif" font-size="10.00">src/Kernel/Utilitaires</text>
<text text-anchor="middle" x="814" y="-791.5" font-family="Helvetica,sans-Serif" font-size="10.00">/EcrFicCollecte.cpp</text>
</a>
</g>
</g>
<!-- Node2 -->
<g id="node2" class="node">
<title>Node2</title>
<g id="a_node2"><a xlink:href="EcrFicCollecte_8h.html" target="_top" xlink:title=" ">
<polygon fill="white" stroke="black" points="835,-392.5 835,-411.5 929,-411.5 929,-392.5 835,-392.5"/>
<text text-anchor="middle" x="882" y="-399.5" font-family="Helvetica,sans-Serif" font-size="10.00">EcrFicCollecte.h</text>
</a>
</g>
</g>
<!-- Node1&#45;&gt;Node2 -->
<g id="edge1" class="edge">
<title>Node1&#45;&gt;Node2</title>
<path fill="none" stroke="midnightblue" d="M825.93,-784.23C842.11,-763.38 869,-722.76 869,-683 869,-683 869,-683 869,-513 869,-480.58 874.64,-443.15 878.49,-421.37"/>
<polygon fill="midnightblue" stroke="midnightblue" points="881.93,-421.99 880.3,-411.52 875.05,-420.72 881.93,-421.99"/>
</g>
<!-- Node23 -->
<g id="node23" class="node">
<title>Node23</title>
<g id="a_node23"><a xlink:href="communications_8h.html" target="_top" xlink:title=" ">
<polygon fill="white" stroke="black" points="716.5,-728.5 716.5,-747.5 823.5,-747.5 823.5,-728.5 716.5,-728.5"/>
<text text-anchor="middle" x="770" y="-735.5" font-family="Helvetica,sans-Serif" font-size="10.00">communications.h</text>
</a>
</g>
</g>
<!-- Node1&#45;&gt;Node23 -->
<g id="edge30" class="edge">
<title>Node1&#45;&gt;Node23</title>
<path fill="none" stroke="midnightblue" d="M803.57,-784.4C797.24,-775.84 789.13,-764.87 782.47,-755.86"/>
<polygon fill="midnightblue" stroke="midnightblue" points="785.16,-753.62 776.4,-747.66 779.53,-757.78 785.16,-753.62"/>
</g>
<!-- Node3 -->
<g id="node3" class="node">
<title>Node3</title>
<g id="a_node3"><a xlink:href="SFichier_8h.html" target="_top" xlink:title=" ">
<polygon fill="white" stroke="black" points="873.5,-336.5 873.5,-355.5 936.5,-355.5 936.5,-336.5 873.5,-336.5"/>
<text text-anchor="middle" x="905" y="-343.5" font-family="Helvetica,sans-Serif" font-size="10.00">SFichier.h</text>
</a>
</g>
</g>
<!-- Node2&#45;&gt;Node3 -->
<g id="edge2" class="edge">
<title>Node2&#45;&gt;Node3</title>
<path fill="none" stroke="midnightblue" d="M885.8,-392.08C888.91,-384.77 893.42,-374.18 897.29,-365.1"/>
<polygon fill="midnightblue" stroke="midnightblue" points="900.57,-366.32 901.27,-355.75 894.13,-363.58 900.57,-366.32"/>
</g>
<!-- Node21 -->
<g id="node21" class="node">
<title>Node21</title>
<g id="a_node21"><a xlink:href="Process_8h.html" target="_top" xlink:title=" ">
<polygon fill="white" stroke="black" points="742.5,-56.5 742.5,-75.5 805.5,-75.5 805.5,-56.5 742.5,-56.5"/>
<text text-anchor="middle" x="774" y="-63.5" font-family="Helvetica,sans-Serif" font-size="10.00">Process.h</text>
</a>
</g>
</g>
<!-- Node2&#45;&gt;Node21 -->
<g id="edge29" class="edge">
<title>Node2&#45;&gt;Node21</title>
<path fill="none" stroke="midnightblue" d="M903.48,-392.36C918.39,-385.09 937.11,-373.12 946,-356 950.1,-348.11 948.49,-344.53 946,-336 914.49,-228.21 825.13,-122.56 789.22,-83.17"/>
<polygon fill="midnightblue" stroke="midnightblue" points="791.76,-80.76 782.41,-75.79 786.62,-85.51 791.76,-80.76"/>
</g>
<!-- Node4 -->
<g id="node4" class="node">
<title>Node4</title>
<g id="a_node4"><a xlink:href="Sortie__Fichier__base_8h.html" target="_top" xlink:title=" ">
<polygon fill="white" stroke="black" points="741,-280.5 741,-299.5 861,-299.5 861,-280.5 741,-280.5"/>
<text text-anchor="middle" x="801" y="-287.5" font-family="Helvetica,sans-Serif" font-size="10.00">Sortie_Fichier_base.h</text>
</a>
</g>
</g>
<!-- Node3&#45;&gt;Node4 -->
<g id="edge3" class="edge">
<title>Node3&#45;&gt;Node4</title>
<path fill="none" stroke="midnightblue" d="M888.29,-336.32C871.69,-327.7 846,-314.36 826.78,-304.39"/>
<polygon fill="midnightblue" stroke="midnightblue" points="828.16,-301.16 817.67,-299.65 824.93,-307.37 828.16,-301.16"/>
</g>
<!-- Node5 -->
<g id="node5" class="node">
<title>Node5</title>
<g id="a_node5"><a xlink:href="Sortie_8h.html" target="_top" xlink:title=" ">
<polygon fill="white" stroke="black" points="692,-112.5 692,-131.5 746,-131.5 746,-112.5 692,-112.5"/>
<text text-anchor="middle" x="719" y="-119.5" font-family="Helvetica,sans-Serif" font-size="10.00">Sortie.h</text>
</a>
</g>
</g>
<!-- Node4&#45;&gt;Node5 -->
<g id="edge4" class="edge">
<title>Node4&#45;&gt;Node5</title>
<path fill="none" stroke="midnightblue" d="M796.59,-280.08C783.57,-253.72 745.12,-175.88 727.72,-140.66"/>
<polygon fill="midnightblue" stroke="midnightblue" points="730.8,-138.98 723.23,-131.57 724.52,-142.08 730.8,-138.98"/>
</g>
<!-- Node11 -->
<g id="node11" class="node">
<title>Node11</title>
<g id="a_node11"><a xlink:href="Objet__U_8h.html" target="_top" xlink:title=" ">
<polygon fill="white" stroke="black" points="581.5,-224.5 581.5,-243.5 646.5,-243.5 646.5,-224.5 581.5,-224.5"/>
<text text-anchor="middle" x="614" y="-231.5" font-family="Helvetica,sans-Serif" font-size="10.00">Objet_U.h</text>
</a>
</g>
</g>
<!-- Node4&#45;&gt;Node11 -->
<g id="edge10" class="edge">
<title>Node4&#45;&gt;Node11</title>
<path fill="none" stroke="midnightblue" d="M771.37,-280.44C739.5,-271.24 688.67,-256.56 653.44,-246.39"/>
<polygon fill="midnightblue" stroke="midnightblue" points="654.07,-242.93 643.49,-243.52 652.13,-249.65 654.07,-242.93"/>
</g>
<!-- Node6 -->
<g id="node6" class="node">
<title>Node6</title>
<g id="a_node6"><a xlink:title=" ">
<polygon fill="white" stroke="#bfbfbf" points="519,-56.5 519,-75.5 579,-75.5 579,-56.5 519,-56.5"/>
<text text-anchor="middle" x="549" y="-63.5" font-family="Helvetica,sans-Serif" font-size="10.00">iostream</text>
</a>
</g>
</g>
<!-- Node5&#45;&gt;Node6 -->
<g id="edge5" class="edge">
<title>Node5&#45;&gt;Node6</title>
<path fill="none" stroke="midnightblue" d="M692.06,-112.44C663.34,-103.32 617.67,-88.81 585.68,-78.65"/>
<polygon fill="midnightblue" stroke="midnightblue" points="586.4,-75.21 575.81,-75.52 584.28,-81.88 586.4,-75.21"/>
</g>
<!-- Node7 -->
<g id="node7" class="node">
<title>Node7</title>
<g id="a_node7"><a xlink:title=" ">
<polygon fill="white" stroke="#bfbfbf" points="879,-56.5 879,-75.5 935,-75.5 935,-56.5 879,-56.5"/>
<text text-anchor="middle" x="907" y="-63.5" font-family="Helvetica,sans-Serif" font-size="10.00">assert.h</text>
</a>
</g>
</g>
<!-- Node5&#45;&gt;Node7 -->
<g id="edge6" class="edge">
<title>Node5&#45;&gt;Node7</title>
<path fill="none" stroke="midnightblue" d="M746.34,-113.15C778.64,-103.87 832.58,-88.38 868.95,-77.93"/>
<polygon fill="midnightblue" stroke="midnightblue" points="870.06,-81.25 878.71,-75.13 868.13,-74.52 870.06,-81.25"/>
</g>
<!-- Node8 -->
<g id="node8" class="node">
<title>Node8</title>
<g id="a_node8"><a xlink:href="arch_8h.html" target="_top" xlink:title=" ">
<polygon fill="white" stroke="black" points="231.5,-56.5 231.5,-75.5 278.5,-75.5 278.5,-56.5 231.5,-56.5"/>
<text text-anchor="middle" x="255" y="-63.5" font-family="Helvetica,sans-Serif" font-size="10.00">arch.h</text>
</a>
</g>
</g>
<!-- Node5&#45;&gt;Node8 -->
<g id="edge7" class="edge">
<title>Node5&#45;&gt;Node8</title>
<path fill="none" stroke="midnightblue" d="M691.96,-113.81C688.95,-113.14 685.92,-112.52 683,-112 537.78,-86.34 362.08,-73.5 289.22,-68.96"/>
<polygon fill="midnightblue" stroke="midnightblue" points="289.02,-65.44 278.83,-68.33 288.59,-72.43 289.02,-65.44"/>
</g>
<!-- Node10 -->
<g id="node10" class="node">
<title>Node10</title>
<g id="a_node10"><a xlink:title=" ">
<polygon fill="white" stroke="#bfbfbf" points="1044,-56.5 1044,-75.5 1088,-75.5 1088,-56.5 1044,-56.5"/>
<text text-anchor="middle" x="1066" y="-63.5" font-family="Helvetica,sans-Serif" font-size="10.00">string</text>
</a>
</g>
</g>
<!-- Node5&#45;&gt;Node10 -->
<g id="edge9" class="edge">
<title>Node5&#45;&gt;Node10</title>
<path fill="none" stroke="midnightblue" d="M746.23,-116.76C809.47,-106.92 966.05,-82.55 1033.85,-72"/>
<polygon fill="midnightblue" stroke="midnightblue" points="1034.6,-75.43 1043.94,-70.43 1033.52,-68.51 1034.6,-75.43"/>
</g>
<!-- Node9 -->
<g id="node9" class="node">
<title>Node9</title>
<g id="a_node9"><a xlink:href="generique_8h.html" target="_top" xlink:title=" ">
<polygon fill="white" stroke="black" points="218,-0.5 218,-19.5 292,-19.5 292,-0.5 218,-0.5"/>
<text text-anchor="middle" x="255" y="-7.5" font-family="Helvetica,sans-Serif" font-size="10.00">generique.h</text>
</a>
</g>
</g>
<!-- Node8&#45;&gt;Node9 -->
<g id="edge8" class="edge">
<title>Node8&#45;&gt;Node9</title>
<path fill="none" stroke="midnightblue" d="M255,-56.08C255,-49.01 255,-38.86 255,-29.99"/>
<polygon fill="midnightblue" stroke="midnightblue" points="258.5,-29.75 255,-19.75 251.5,-29.75 258.5,-29.75"/>
</g>
<!-- Node11&#45;&gt;Node7 -->
<g id="edge11" class="edge">
<title>Node11&#45;&gt;Node7</title>
<path fill="none" stroke="midnightblue" d="M638.41,-224.44C660.91,-216.21 694.95,-202.84 723,-188 785.71,-154.82 854.18,-106.17 887.11,-81.91"/>
<polygon fill="midnightblue" stroke="midnightblue" points="889.48,-84.51 895.43,-75.74 885.31,-78.89 889.48,-84.51"/>
</g>
<!-- Node12 -->
<g id="node12" class="node">
<title>Node12</title>
<g id="a_node12"><a xlink:href="DecBaseInst_8h.html" target="_top" xlink:title=" ">
<polygon fill="white" stroke="black" points="313,-168.5 313,-187.5 399,-187.5 399,-168.5 313,-168.5"/>
<text text-anchor="middle" x="356" y="-175.5" font-family="Helvetica,sans-Serif" font-size="10.00">DecBaseInst.h</text>
</a>
</g>
</g>
<!-- Node11&#45;&gt;Node12 -->
<g id="edge12" class="edge">
<title>Node11&#45;&gt;Node12</title>
<path fill="none" stroke="midnightblue" d="M581.32,-226.16C537.34,-216.96 458.65,-200.48 406.88,-189.65"/>
<polygon fill="midnightblue" stroke="midnightblue" points="407.41,-186.18 396.9,-187.56 405.97,-193.04 407.41,-186.18"/>
</g>
<!-- Node17 -->
<g id="node17" class="node">
<title>Node17</title>
<g id="a_node17"><a xlink:href="EntreeSortie_8h.html" target="_top" xlink:title=" ">
<polygon fill="white" stroke="black" points="585,-168.5 585,-187.5 671,-187.5 671,-168.5 585,-168.5"/>
<text text-anchor="middle" x="628" y="-175.5" font-family="Helvetica,sans-Serif" font-size="10.00">EntreeSortie.h</text>
</a>
</g>
</g>
<!-- Node11&#45;&gt;Node17 -->
<g id="edge18" class="edge">
<title>Node11&#45;&gt;Node17</title>
<path fill="none" stroke="midnightblue" d="M616.31,-224.08C618.17,-216.93 620.84,-206.64 623.15,-197.69"/>
<polygon fill="midnightblue" stroke="midnightblue" points="626.61,-198.31 625.73,-187.75 619.83,-196.55 626.61,-198.31"/>
</g>
<!-- Node11&#45;&gt;Node21 -->
<g id="edge28" class="edge">
<title>Node11&#45;&gt;Node21</title>
<path fill="none" stroke="midnightblue" d="M633.69,-224.33C664.38,-209.78 723.4,-177.51 755,-132 764.53,-118.27 769.34,-99.74 771.73,-85.98"/>
<polygon fill="midnightblue" stroke="midnightblue" points="775.24,-86.15 773.21,-75.75 768.31,-85.14 775.24,-86.15"/>
</g>
<!-- Node13 -->
<g id="node13" class="node">
<title>Node13</title>
<g id="a_node13"><a xlink:href="Cast_8h.html" target="_top" xlink:title=" ">
<polygon fill="white" stroke="black" points="69.5,-56.5 69.5,-75.5 116.5,-75.5 116.5,-56.5 69.5,-56.5"/>
<text text-anchor="middle" x="93" y="-63.5" font-family="Helvetica,sans-Serif" font-size="10.00">Cast.h</text>
</a>
</g>
</g>
<!-- Node12&#45;&gt;Node13 -->
<g id="edge13" class="edge">
<title>Node12&#45;&gt;Node13</title>
<path fill="none" stroke="midnightblue" d="M312.8,-175.92C246.11,-173.26 122.82,-164.02 95,-132 84.14,-119.5 85.07,-100 87.84,-85.61"/>
<polygon fill="midnightblue" stroke="midnightblue" points="91.26,-86.35 90.15,-75.81 84.45,-84.74 91.26,-86.35"/>
</g>
<!-- Node14 -->
<g id="node14" class="node">
<title>Node14</title>
<g id="a_node14"><a xlink:href="Type__info_8h.html" target="_top" xlink:title=" ">
<polygon fill="white" stroke="black" points="320,-112.5 320,-131.5 392,-131.5 392,-112.5 320,-112.5"/>
<text text-anchor="middle" x="356" y="-119.5" font-family="Helvetica,sans-Serif" font-size="10.00">Type_info.h</text>
</a>
</g>
</g>
<!-- Node12&#45;&gt;Node14 -->
<g id="edge14" class="edge">
<title>Node12&#45;&gt;Node14</title>
<path fill="none" stroke="midnightblue" d="M356,-168.08C356,-161.01 356,-150.86 356,-141.99"/>
<polygon fill="midnightblue" stroke="midnightblue" points="359.5,-141.75 356,-131.75 352.5,-141.75 359.5,-141.75"/>
</g>
<!-- Node15 -->
<g id="node15" class="node">
<title>Node15</title>
<g id="a_node15"><a xlink:href="Declare__Base_8h.html" target="_top" xlink:title=" ">
<polygon fill="white" stroke="black" points="410,-112.5 410,-131.5 502,-131.5 502,-112.5 410,-112.5"/>
<text text-anchor="middle" x="456" y="-119.5" font-family="Helvetica,sans-Serif" font-size="10.00">Declare_Base.h</text>
</a>
</g>
</g>
<!-- Node12&#45;&gt;Node15 -->
<g id="edge15" class="edge">
<title>Node12&#45;&gt;Node15</title>
<path fill="none" stroke="midnightblue" d="M372.07,-168.32C387.96,-159.74 412.51,-146.49 430.96,-136.52"/>
<polygon fill="midnightblue" stroke="midnightblue" points="432.84,-139.49 439.97,-131.65 429.51,-133.33 432.84,-139.49"/>
</g>
<!-- Node16 -->
<g id="node16" class="node">
<title>Node16</title>
<g id="a_node16"><a xlink:href="Declare__Inst_8h.html" target="_top" xlink:title=" ">
<polygon fill="white" stroke="black" points="104,-112.5 104,-131.5 190,-131.5 190,-112.5 104,-112.5"/>
<text text-anchor="middle" x="147" y="-119.5" font-family="Helvetica,sans-Serif" font-size="10.00">Declare_Inst.h</text>
</a>
</g>
</g>
<!-- Node12&#45;&gt;Node16 -->
<g id="edge16" class="edge">
<title>Node12&#45;&gt;Node16</title>
<path fill="none" stroke="midnightblue" d="M322.88,-168.44C286.88,-159.14 229.23,-144.25 189.81,-134.06"/>
<polygon fill="midnightblue" stroke="midnightblue" points="190.52,-130.63 179.96,-131.52 188.77,-137.41 190.52,-130.63"/>
</g>
<!-- Node16&#45;&gt;Node13 -->
<g id="edge17" class="edge">
<title>Node16&#45;&gt;Node13</title>
<path fill="none" stroke="midnightblue" d="M138.08,-112.08C130.22,-104.22 118.57,-92.57 109.08,-83.08"/>
<polygon fill="midnightblue" stroke="midnightblue" points="111.3,-80.35 101.75,-75.75 106.35,-85.3 111.3,-80.35"/>
</g>
<!-- Node17&#45;&gt;Node5 -->
<g id="edge26" class="edge">
<title>Node17&#45;&gt;Node5</title>
<path fill="none" stroke="midnightblue" d="M642.62,-168.32C656.95,-159.82 679.01,-146.73 695.75,-136.8"/>
<polygon fill="midnightblue" stroke="midnightblue" points="697.6,-139.77 704.42,-131.65 694.03,-133.75 697.6,-139.77"/>
</g>
<!-- Node18 -->
<g id="node18" class="node">
<title>Node18</title>
<g id="a_node18"><a xlink:href="Entree_8h.html" target="_top" xlink:title=" ">
<polygon fill="white" stroke="black" points="520.5,-112.5 520.5,-131.5 577.5,-131.5 577.5,-112.5 520.5,-112.5"/>
<text text-anchor="middle" x="549" y="-119.5" font-family="Helvetica,sans-Serif" font-size="10.00">Entree.h</text>
</a>
</g>
</g>
<!-- Node17&#45;&gt;Node18 -->
<g id="edge19" class="edge">
<title>Node17&#45;&gt;Node18</title>
<path fill="none" stroke="midnightblue" d="M615.31,-168.32C603.1,-159.98 584.42,-147.21 570,-137.35"/>
<polygon fill="midnightblue" stroke="midnightblue" points="571.89,-134.41 561.66,-131.65 567.94,-140.19 571.89,-134.41"/>
</g>
<!-- Node22 -->
<g id="node22" class="node">
<title>Node22</title>
<g id="a_node22"><a xlink:href="Separateur_8h.html" target="_top" xlink:title=" ">
<polygon fill="white" stroke="black" points="596,-112.5 596,-131.5 674,-131.5 674,-112.5 596,-112.5"/>
<text text-anchor="middle" x="635" y="-119.5" font-family="Helvetica,sans-Serif" font-size="10.00">Separateur.h</text>
</a>
</g>
</g>
<!-- Node17&#45;&gt;Node22 -->
<g id="edge27" class="edge">
<title>Node17&#45;&gt;Node22</title>
<path fill="none" stroke="midnightblue" d="M629.16,-168.08C630.08,-160.93 631.42,-150.64 632.58,-141.69"/>
<polygon fill="midnightblue" stroke="midnightblue" points="636.05,-142.12 633.87,-131.75 629.11,-141.22 636.05,-142.12"/>
</g>
<!-- Node18&#45;&gt;Node6 -->
<g id="edge22" class="edge">
<title>Node18&#45;&gt;Node6</title>
<path fill="none" stroke="midnightblue" d="M549,-112.08C549,-105.01 549,-94.86 549,-85.99"/>
<polygon fill="midnightblue" stroke="midnightblue" points="552.5,-85.75 549,-75.75 545.5,-85.75 552.5,-85.75"/>
</g>
<!-- Node18&#45;&gt;Node7 -->
<g id="edge23" class="edge">
<title>Node18&#45;&gt;Node7</title>
<path fill="none" stroke="midnightblue" d="M577.57,-113.93C580.74,-113.24 583.94,-112.58 587,-112 687.9,-93 808.08,-78.17 868.4,-71.25"/>
<polygon fill="midnightblue" stroke="midnightblue" points="869.06,-74.7 878.6,-70.1 868.27,-67.75 869.06,-74.7"/>
</g>
<!-- Node18&#45;&gt;Node8 -->
<g id="edge25" class="edge">
<title>Node18&#45;&gt;Node8</title>
<path fill="none" stroke="midnightblue" d="M520.41,-114.04C517.24,-113.32 514.05,-112.63 511,-112 431.74,-95.66 337.89,-80.13 288.8,-72.29"/>
<polygon fill="midnightblue" stroke="midnightblue" points="289.16,-68.81 278.73,-70.7 288.06,-75.72 289.16,-68.81"/>
</g>
<!-- Node19 -->
<g id="node19" class="node">
<title>Node19</title>
<g id="a_node19"><a xlink:title=" ">
<polygon fill="white" stroke="#bfbfbf" points="597,-56.5 597,-75.5 647,-75.5 647,-56.5 597,-56.5"/>
<text text-anchor="middle" x="622" y="-63.5" font-family="Helvetica,sans-Serif" font-size="10.00">stdio.h</text>
</a>
</g>
</g>
<!-- Node18&#45;&gt;Node19 -->
<g id="edge20" class="edge">
<title>Node18&#45;&gt;Node19</title>
<path fill="none" stroke="midnightblue" d="M560.73,-112.32C571.84,-104.11 588.74,-91.6 601.98,-81.81"/>
<polygon fill="midnightblue" stroke="midnightblue" points="604.1,-84.59 610.06,-75.83 599.94,-78.97 604.1,-84.59"/>
</g>
<!-- Node20 -->
<g id="node20" class="node">
<title>Node20</title>
<g id="a_node20"><a xlink:title=" ">
<polygon fill="white" stroke="#bfbfbf" points="455,-56.5 455,-75.5 501,-75.5 501,-56.5 455,-56.5"/>
<text text-anchor="middle" x="478" y="-63.5" font-family="Helvetica,sans-Serif" font-size="10.00">cstdio</text>
</a>
</g>
</g>
<!-- Node18&#45;&gt;Node20 -->
<g id="edge21" class="edge">
<title>Node18&#45;&gt;Node20</title>
<path fill="none" stroke="midnightblue" d="M537.59,-112.32C526.89,-104.18 510.66,-91.84 497.84,-82.09"/>
<polygon fill="midnightblue" stroke="midnightblue" points="499.69,-79.1 489.61,-75.83 495.46,-84.67 499.69,-79.1"/>
</g>
<!-- Node18&#45;&gt;Node21 -->
<g id="edge24" class="edge">
<title>Node18&#45;&gt;Node21</title>
<path fill="none" stroke="midnightblue" d="M577.95,-114.05C617.15,-104.64 687.36,-87.79 732.25,-77.02"/>
<polygon fill="midnightblue" stroke="midnightblue" points="733.35,-80.36 742.26,-74.62 731.72,-73.55 733.35,-80.36"/>
</g>
<!-- Node24 -->
<g id="node24" class="node">
<title>Node24</title>
<g id="a_node24"><a xlink:href="communications__array_8h.html" target="_top" xlink:title=" ">
<polygon fill="white" stroke="black" points="533,-616.5 533,-635.5 669,-635.5 669,-616.5 533,-616.5"/>
<text text-anchor="middle" x="601" y="-623.5" font-family="Helvetica,sans-Serif" font-size="10.00">communications_array.h</text>
</a>
</g>
</g>
<!-- Node23&#45;&gt;Node24 -->
<g id="edge31" class="edge">
<title>Node23&#45;&gt;Node24</title>
<path fill="none" stroke="midnightblue" d="M757.06,-728.29C738.36,-715.74 702.66,-691.88 672,-672 655.73,-661.45 637.22,-649.73 623.18,-640.89"/>
<polygon fill="midnightblue" stroke="midnightblue" points="624.99,-637.9 614.66,-635.54 621.27,-643.83 624.99,-637.9"/>
</g>
<!-- Node46 -->
<g id="node46" class="node">
<title>Node46</title>
<g id="a_node46"><a xlink:href="TRUSTTabs__forward_8h.html" target="_top" xlink:title=" ">
<polygon fill="white" stroke="black" points="719,-504.5 719,-523.5 841,-523.5 841,-504.5 719,-504.5"/>
<text text-anchor="middle" x="780" y="-511.5" font-family="Helvetica,sans-Serif" font-size="10.00">TRUSTTabs_forward.h</text>
</a>
</g>
</g>
<!-- Node23&#45;&gt;Node46 -->
<g id="edge67" class="edge">
<title>Node23&#45;&gt;Node46</title>
<path fill="none" stroke="midnightblue" d="M771.7,-728.42C773.39,-719.39 775.9,-704.76 777,-692 781.92,-634.73 781.25,-566.67 780.53,-534.15"/>
<polygon fill="midnightblue" stroke="midnightblue" points="784.03,-533.77 780.28,-523.86 777.03,-533.95 784.03,-533.77"/>
</g>
<!-- Node47 -->
<g id="node47" class="node">
<title>Node47</title>
<g id="a_node47"><a xlink:title=" ">
<polygon fill="white" stroke="#bfbfbf" points="594.5,-672.5 594.5,-691.5 663.5,-691.5 663.5,-672.5 594.5,-672.5"/>
<text text-anchor="middle" x="629" y="-679.5" font-family="Helvetica,sans-Serif" font-size="10.00">type_traits</text>
</a>
</g>
</g>
<!-- Node23&#45;&gt;Node47 -->
<g id="edge68" class="edge">
<title>Node23&#45;&gt;Node47</title>
<path fill="none" stroke="midnightblue" d="M747.66,-728.44C724.25,-719.48 687.26,-705.31 660.81,-695.18"/>
<polygon fill="midnightblue" stroke="midnightblue" points="661.83,-691.82 651.24,-691.52 659.32,-698.36 661.83,-691.82"/>
</g>
<!-- Node48 -->
<g id="node48" class="node">
<title>Node48</title>
<g id="a_node48"><a xlink:href="Vect_8h.html" target="_top" xlink:title=" ">
<polygon fill="white" stroke="black" points="938.5,-672.5 938.5,-691.5 985.5,-691.5 985.5,-672.5 938.5,-672.5"/>
<text text-anchor="middle" x="962" y="-679.5" font-family="Helvetica,sans-Serif" font-size="10.00">Vect.h</text>
</a>
</g>
</g>
<!-- Node23&#45;&gt;Node48 -->
<g id="edge69" class="edge">
<title>Node23&#45;&gt;Node48</title>
<path fill="none" stroke="midnightblue" d="M800.42,-728.44C835.26,-718.65 892.17,-702.64 928.32,-692.47"/>
<polygon fill="midnightblue" stroke="midnightblue" points="929.7,-695.72 938.38,-689.64 927.8,-688.98 929.7,-695.72"/>
</g>
<!-- Node54 -->
<g id="node54" class="node">
<title>Node54</title>
<g id="a_node54"><a xlink:title=" ">
<polygon fill="white" stroke="#bfbfbf" points="720.5,-672.5 720.5,-691.5 767.5,-691.5 767.5,-672.5 720.5,-672.5"/>
<text text-anchor="middle" x="744" y="-679.5" font-family="Helvetica,sans-Serif" font-size="10.00">vector</text>
</a>
</g>
</g>
<!-- Node23&#45;&gt;Node54 -->
<g id="edge82" class="edge">
<title>Node23&#45;&gt;Node54</title>
<path fill="none" stroke="midnightblue" d="M765.71,-728.08C762.15,-720.69 756.98,-709.95 752.58,-700.81"/>
<polygon fill="midnightblue" stroke="midnightblue" points="755.71,-699.24 748.21,-691.75 749.4,-702.28 755.71,-699.24"/>
</g>
<!-- Node24&#45;&gt;Node8 -->
<g id="edge66" class="edge">
<title>Node24&#45;&gt;Node8</title>
<path fill="none" stroke="midnightblue" d="M532.93,-619.61C375.59,-606.23 0,-568.67 0,-515 0,-515 0,-515 0,-177 0,-81.81 151.68,-68.02 221.07,-66.69"/>
<polygon fill="midnightblue" stroke="midnightblue" points="221.51,-70.19 231.47,-66.57 221.43,-63.19 221.51,-70.19"/>
</g>
<!-- Node25 -->
<g id="node25" class="node">
<title>Node25</title>
<g id="a_node25"><a xlink:href="Comm__Group_8h.html" target="_top" xlink:title=" ">
<polygon fill="white" stroke="black" points="503,-560.5 503,-579.5 595,-579.5 595,-560.5 503,-560.5"/>
<text text-anchor="middle" x="549" y="-567.5" font-family="Helvetica,sans-Serif" font-size="10.00">Comm_Group.h</text>
</a>
</g>
</g>
<!-- Node24&#45;&gt;Node25 -->
<g id="edge32" class="edge">
<title>Node24&#45;&gt;Node25</title>
<path fill="none" stroke="midnightblue" d="M592.41,-616.08C584.84,-608.22 573.62,-596.57 564.49,-587.08"/>
<polygon fill="midnightblue" stroke="midnightblue" points="566.88,-584.53 557.43,-579.75 561.84,-589.38 566.88,-584.53"/>
</g>
<!-- Node45 -->
<g id="node45" class="node">
<title>Node45</title>
<g id="a_node45"><a xlink:href="PE__Groups_8h.html" target="_top" xlink:title=" ">
<polygon fill="white" stroke="black" points="613.5,-560.5 613.5,-579.5 690.5,-579.5 690.5,-560.5 613.5,-560.5"/>
<text text-anchor="middle" x="652" y="-567.5" font-family="Helvetica,sans-Serif" font-size="10.00">PE_Groups.h</text>
</a>
</g>
</g>
<!-- Node24&#45;&gt;Node45 -->
<g id="edge63" class="edge">
<title>Node24&#45;&gt;Node45</title>
<path fill="none" stroke="midnightblue" d="M609.42,-616.08C616.85,-608.22 627.85,-596.57 636.81,-587.08"/>
<polygon fill="midnightblue" stroke="midnightblue" points="639.41,-589.42 643.74,-579.75 634.32,-584.62 639.41,-589.42"/>
</g>
<!-- Node25&#45;&gt;Node7 -->
<g id="edge33" class="edge">
<title>Node25&#45;&gt;Node7</title>
<path fill="none" stroke="midnightblue" d="M550.15,-560.49C552.19,-547.55 557.26,-522.51 568,-504 585.35,-474.09 593.72,-467.9 622,-448 653.89,-425.56 666.61,-428.36 702,-412 754.69,-387.64 770.89,-386.96 820,-356 853.41,-334.94 865.68,-331.87 889,-300 934.04,-238.45 921.96,-208.24 924,-132 924.24,-123.11 925.6,-120.74 924,-112 922.31,-102.76 918.83,-92.95 915.45,-84.85"/>
<polygon fill="midnightblue" stroke="midnightblue" points="918.63,-83.4 911.37,-75.69 912.24,-86.25 918.63,-83.4"/>
</g>
<!-- Node26 -->
<g id="node26" class="node">
<title>Node26</title>
<g id="a_node26"><a xlink:href="TRUSTArray_8h.html" target="_top" xlink:title=" ">
<polygon fill="white" stroke="black" points="369,-448.5 369,-467.5 451,-467.5 451,-448.5 369,-448.5"/>
<text text-anchor="middle" x="410" y="-455.5" font-family="Helvetica,sans-Serif" font-size="10.00">TRUSTArray.h</text>
</a>
</g>
</g>
<!-- Node25&#45;&gt;Node26 -->
<g id="edge34" class="edge">
<title>Node25&#45;&gt;Node26</title>
<path fill="none" stroke="midnightblue" d="M538.09,-560.37C514.44,-541.65 458.21,-497.15 428.74,-473.83"/>
<polygon fill="midnightblue" stroke="midnightblue" points="430.87,-471.05 420.86,-467.59 426.53,-476.54 430.87,-471.05"/>
</g>
<!-- Node40 -->
<g id="node40" class="node">
<title>Node40</title>
<g id="a_node40"><a xlink:href="Deriv__Comm__Group_8h.html" target="_top" xlink:title=" ">
<polygon fill="white" stroke="black" points="577,-504.5 577,-523.5 701,-523.5 701,-504.5 577,-504.5"/>
<text text-anchor="middle" x="639" y="-511.5" font-family="Helvetica,sans-Serif" font-size="10.00">Deriv_Comm_Group.h</text>
</a>
</g>
</g>
<!-- Node25&#45;&gt;Node40 -->
<g id="edge57" class="edge">
<title>Node25&#45;&gt;Node40</title>
<path fill="none" stroke="midnightblue" d="M563.46,-560.32C577.5,-551.9 599.05,-538.97 615.54,-529.07"/>
<polygon fill="midnightblue" stroke="midnightblue" points="617.8,-531.8 624.58,-523.65 614.2,-525.8 617.8,-531.8"/>
</g>
<!-- Node27 -->
<g id="node27" class="node">
<title>Node27</title>
<g id="a_node27"><a xlink:href="TRUSTIterator_8h.html" target="_top" xlink:title=" ">
<polygon fill="white" stroke="black" points="208.5,-112.5 208.5,-131.5 301.5,-131.5 301.5,-112.5 208.5,-112.5"/>
<text text-anchor="middle" x="255" y="-119.5" font-family="Helvetica,sans-Serif" font-size="10.00">TRUSTIterator.h</text>
</a>
</g>
</g>
<!-- Node26&#45;&gt;Node27 -->
<g id="edge35" class="edge">
<title>Node26&#45;&gt;Node27</title>
<path fill="none" stroke="midnightblue" d="M368.99,-457.05C295.59,-456.18 146.4,-449.7 114,-412 37.15,-322.58 183.07,-184 236.5,-138.24"/>
<polygon fill="midnightblue" stroke="midnightblue" points="238.84,-140.84 244.23,-131.71 234.33,-135.49 238.84,-140.84"/>
</g>
<!-- Node28 -->
<g id="node28" class="node">
<title>Node28</title>
<g id="a_node28"><a xlink:href="VTRUSTdata_8h.html" target="_top" xlink:title=" ">
<polygon fill="white" stroke="black" points="517,-392.5 517,-411.5 603,-411.5 603,-392.5 517,-392.5"/>
<text text-anchor="middle" x="560" y="-399.5" font-family="Helvetica,sans-Serif" font-size="10.00">VTRUSTdata.h</text>
</a>
</g>
</g>
<!-- Node26&#45;&gt;Node28 -->
<g id="edge38" class="edge">
<title>Node26&#45;&gt;Node28</title>
<path fill="none" stroke="midnightblue" d="M433.77,-448.44C458.89,-439.4 498.71,-425.06 526.9,-414.92"/>
<polygon fill="midnightblue" stroke="midnightblue" points="528.12,-418.2 536.34,-411.52 525.75,-411.61 528.12,-418.2"/>
</g>
<!-- Node29 -->
<g id="node29" class="node">
<title>Node29</title>
<g id="a_node29"><a xlink:href="Array__base_8h.html" target="_top" xlink:title=" ">
<polygon fill="white" stroke="black" points="422,-336.5 422,-355.5 502,-355.5 502,-336.5 422,-336.5"/>
<text text-anchor="middle" x="462" y="-343.5" font-family="Helvetica,sans-Serif" font-size="10.00">Array_base.h</text>
</a>
</g>
</g>
<!-- Node26&#45;&gt;Node29 -->
<g id="edge47" class="edge">
<title>Node26&#45;&gt;Node29</title>
<path fill="none" stroke="midnightblue" d="M429.3,-448.48C443.43,-441.08 461.56,-428.89 470,-412 477.3,-397.4 473.89,-378.72 469.49,-365.14"/>
<polygon fill="midnightblue" stroke="midnightblue" points="472.69,-363.68 465.94,-355.51 466.12,-366.11 472.69,-363.68"/>
</g>
<!-- Node33 -->
<g id="node33" class="node">
<title>Node33</title>
<g id="a_node33"><a xlink:href="Double_8h.html" target="_top" xlink:title=" ">
<polygon fill="white" stroke="black" points="353,-280.5 353,-299.5 413,-299.5 413,-280.5 353,-280.5"/>
<text text-anchor="middle" x="383" y="-287.5" font-family="Helvetica,sans-Serif" font-size="10.00">Double.h</text>
</a>
</g>
</g>
<!-- Node26&#45;&gt;Node33 -->
<g id="edge48" class="edge">
<title>Node26&#45;&gt;Node33</title>
<path fill="none" stroke="midnightblue" d="M408.41,-448.38C406.76,-439.33 404.12,-424.68 402,-412 395.94,-375.77 389.41,-333.35 385.8,-309.58"/>
<polygon fill="midnightblue" stroke="midnightblue" points="389.23,-308.88 384.28,-299.52 382.31,-309.93 389.23,-308.88"/>
</g>
<!-- Node36 -->
<g id="node36" class="node">
<title>Node36</title>
<g id="a_node36"><a xlink:title=" ">
<polygon fill="white" stroke="#bfbfbf" points="411,-392.5 411,-411.5 461,-411.5 461,-392.5 411,-392.5"/>
<text text-anchor="middle" x="436" y="-399.5" font-family="Helvetica,sans-Serif" font-size="10.00">climits</text>
</a>
</g>
</g>
<!-- Node26&#45;&gt;Node36 -->
<g id="edge53" class="edge">
<title>Node26&#45;&gt;Node36</title>
<path fill="none" stroke="midnightblue" d="M414.29,-448.08C417.85,-440.69 423.02,-429.95 427.42,-420.81"/>
<polygon fill="midnightblue" stroke="midnightblue" points="430.6,-422.28 431.79,-411.75 424.29,-419.24 430.6,-422.28"/>
</g>
<!-- Node37 -->
<g id="node37" class="node">
<title>Node37</title>
<g id="a_node37"><a xlink:href="TRUSTArray__tools_8tpp.html" target="_top" xlink:title=" ">
<polygon fill="white" stroke="black" points="123,-392.5 123,-411.5 245,-411.5 245,-392.5 123,-392.5"/>
<text text-anchor="middle" x="184" y="-399.5" font-family="Helvetica,sans-Serif" font-size="10.00">TRUSTArray_tools.tpp</text>
</a>
</g>
</g>
<!-- Node26&#45;&gt;Node37 -->
<g id="edge54" class="edge">
<title>Node26&#45;&gt;Node37</title>
<path fill="none" stroke="midnightblue" d="M374.19,-448.44C335.01,-439.08 272.12,-424.06 229.48,-413.87"/>
<polygon fill="midnightblue" stroke="midnightblue" points="230.18,-410.44 219.64,-411.52 228.56,-417.24 230.18,-410.44"/>
</g>
<!-- Node38 -->
<g id="node38" class="node">
<title>Node38</title>
<g id="a_node38"><a xlink:href="TRUSTArray_8tpp.html" target="_top" xlink:title=" ">
<polygon fill="white" stroke="black" points="263,-392.5 263,-411.5 355,-411.5 355,-392.5 263,-392.5"/>
<text text-anchor="middle" x="309" y="-399.5" font-family="Helvetica,sans-Serif" font-size="10.00">TRUSTArray.tpp</text>
</a>
</g>
</g>
<!-- Node26&#45;&gt;Node38 -->
<g id="edge55" class="edge">
<title>Node26&#45;&gt;Node38</title>
<path fill="none" stroke="midnightblue" d="M393.77,-448.32C377.65,-439.7 352.7,-426.36 334.04,-416.39"/>
<polygon fill="midnightblue" stroke="midnightblue" points="335.66,-413.28 325.19,-411.65 332.36,-419.46 335.66,-413.28"/>
</g>
<!-- Node27&#45;&gt;Node6 -->
<g id="edge36" class="edge">
<title>Node27&#45;&gt;Node6</title>
<path fill="none" stroke="midnightblue" d="M301.67,-113.51C350.81,-105.47 430.65,-91.91 508.79,-76.17"/>
<polygon fill="midnightblue" stroke="midnightblue" points="509.7,-79.55 518.8,-74.13 508.3,-72.69 509.7,-79.55"/>
</g>
<!-- Node27&#45;&gt;Node8 -->
<g id="edge37" class="edge">
<title>Node27&#45;&gt;Node8</title>
<path fill="none" stroke="midnightblue" d="M255,-112.08C255,-105.01 255,-94.86 255,-85.99"/>
<polygon fill="midnightblue" stroke="midnightblue" points="258.5,-85.75 255,-75.75 251.5,-85.75 258.5,-85.75"/>
</g>
<!-- Node28&#45;&gt;Node7 -->
<g id="edge45" class="edge">
<title>Node28&#45;&gt;Node7</title>
<path fill="none" stroke="midnightblue" d="M603.16,-393.45C664.45,-382.58 771.19,-363.05 788,-356 808.35,-347.47 858.19,-318.64 870,-300 913.67,-231.05 911.77,-128.27 908.79,-86.1"/>
<polygon fill="midnightblue" stroke="midnightblue" points="912.26,-85.57 907.95,-75.89 905.28,-86.14 912.26,-85.57"/>
</g>
<!-- Node28&#45;&gt;Node29 -->
<g id="edge39" class="edge">
<title>Node28&#45;&gt;Node29</title>
<path fill="none" stroke="midnightblue" d="M544.25,-392.32C528.68,-383.74 504.62,-370.49 486.54,-360.52"/>
<polygon fill="midnightblue" stroke="midnightblue" points="488.15,-357.42 477.71,-355.65 484.78,-363.55 488.15,-357.42"/>
</g>
<!-- Node30 -->
<g id="node30" class="node">
<title>Node30</title>
<g id="a_node30"><a xlink:href="Memoire_8h.html" target="_top" xlink:title=" ">
<polygon fill="white" stroke="black" points="709.5,-336.5 709.5,-355.5 778.5,-355.5 778.5,-336.5 709.5,-336.5"/>
<text text-anchor="middle" x="744" y="-343.5" font-family="Helvetica,sans-Serif" font-size="10.00">Memoire.h</text>
</a>
</g>
</g>
<!-- Node28&#45;&gt;Node30 -->
<g id="edge41" class="edge">
<title>Node28&#45;&gt;Node30</title>
<path fill="none" stroke="midnightblue" d="M589.16,-392.44C620.51,-383.24 670.53,-368.56 705.2,-358.39"/>
<polygon fill="midnightblue" stroke="midnightblue" points="706.37,-361.69 714.98,-355.52 704.4,-354.97 706.37,-361.69"/>
</g>
<!-- Node32 -->
<g id="node32" class="node">
<title>Node32</title>
<g id="a_node32"><a xlink:title=" ">
<polygon fill="white" stroke="#bfbfbf" points="520.5,-336.5 520.5,-355.5 577.5,-355.5 577.5,-336.5 520.5,-336.5"/>
<text text-anchor="middle" x="549" y="-343.5" font-family="Helvetica,sans-Serif" font-size="10.00">typeinfo</text>
</a>
</g>
</g>
<!-- Node28&#45;&gt;Node32 -->
<g id="edge46" class="edge">
<title>Node28&#45;&gt;Node32</title>
<path fill="none" stroke="midnightblue" d="M558.18,-392.08C556.73,-384.93 554.63,-374.64 552.81,-365.69"/>
<polygon fill="midnightblue" stroke="midnightblue" points="556.21,-364.85 550.78,-355.75 549.35,-366.25 556.21,-364.85"/>
</g>
<!-- Node29&#45;&gt;Node11 -->
<g id="edge40" class="edge">
<title>Node29&#45;&gt;Node11</title>
<path fill="none" stroke="midnightblue" d="M465.88,-336.23C472.35,-322.51 486.59,-295.87 506,-280 525.01,-264.46 550.14,-253.57 571.38,-246.39"/>
<polygon fill="midnightblue" stroke="midnightblue" points="572.68,-249.65 581.13,-243.26 570.54,-242.98 572.68,-249.65"/>
</g>
<!-- Node31 -->
<g id="node31" class="node">
<title>Node31</title>
<g id="a_node31"><a xlink:href="Memoire__ptr_8h.html" target="_top" xlink:title=" ">
<polygon fill="white" stroke="black" points="635.5,-280.5 635.5,-299.5 722.5,-299.5 722.5,-280.5 635.5,-280.5"/>
<text text-anchor="middle" x="679" y="-287.5" font-family="Helvetica,sans-Serif" font-size="10.00">Memoire_ptr.h</text>
</a>
</g>
</g>
<!-- Node30&#45;&gt;Node31 -->
<g id="edge42" class="edge">
<title>Node30&#45;&gt;Node31</title>
<path fill="none" stroke="midnightblue" d="M733.56,-336.32C723.85,-328.26 709.18,-316.08 697.5,-306.37"/>
<polygon fill="midnightblue" stroke="midnightblue" points="699.56,-303.53 689.63,-299.83 695.09,-308.92 699.56,-303.53"/>
</g>
<!-- Node31&#45;&gt;Node7 -->
<g id="edge44" class="edge">
<title>Node31&#45;&gt;Node7</title>
<path fill="none" stroke="midnightblue" d="M688.52,-280.31C714.19,-256.83 786.82,-189.94 845,-132 861.47,-115.6 879.78,-96.26 892.21,-82.96"/>
<polygon fill="midnightblue" stroke="midnightblue" points="894.86,-85.25 899.11,-75.55 889.73,-80.48 894.86,-85.25"/>
</g>
<!-- Node31&#45;&gt;Node11 -->
<g id="edge43" class="edge">
<title>Node31&#45;&gt;Node11</title>
<path fill="none" stroke="midnightblue" d="M668.56,-280.32C658.85,-272.26 644.18,-260.08 632.5,-250.37"/>
<polygon fill="midnightblue" stroke="midnightblue" points="634.56,-247.53 624.63,-243.83 630.09,-252.92 634.56,-247.53"/>
</g>
<!-- Node33&#45;&gt;Node11 -->
<g id="edge51" class="edge">
<title>Node33&#45;&gt;Node11</title>
<path fill="none" stroke="midnightblue" d="M413.2,-281.94C453.56,-272.51 525.32,-255.73 571.23,-245"/>
<polygon fill="midnightblue" stroke="midnightblue" points="572.24,-248.36 581.18,-242.67 570.65,-241.54 572.24,-248.36"/>
</g>
<!-- Node34 -->
<g id="node34" class="node">
<title>Node34</title>
<g id="a_node34"><a xlink:href="blas1_8h.html" target="_top" xlink:title=" ">
<polygon fill="white" stroke="black" points="28,-168.5 28,-187.5 80,-187.5 80,-168.5 28,-168.5"/>
<text text-anchor="middle" x="54" y="-175.5" font-family="Helvetica,sans-Serif" font-size="10.00">blas1.h</text>
</a>
</g>
</g>
<!-- Node33&#45;&gt;Node34 -->
<g id="edge49" class="edge">
<title>Node33&#45;&gt;Node34</title>
<path fill="none" stroke="midnightblue" d="M357.46,-280.46C299.15,-260.97 156.17,-213.16 89.41,-190.84"/>
<polygon fill="midnightblue" stroke="midnightblue" points="90.35,-187.46 79.75,-187.61 88.13,-194.1 90.35,-187.46"/>
</g>
<!-- Node35 -->
<g id="node35" class="node">
<title>Node35</title>
<g id="a_node35"><a xlink:title=" ">
<polygon fill="white" stroke="#bfbfbf" points="359.5,-224.5 359.5,-243.5 406.5,-243.5 406.5,-224.5 359.5,-224.5"/>
<text text-anchor="middle" x="383" y="-231.5" font-family="Helvetica,sans-Serif" font-size="10.00">cmath</text>
</a>
</g>
</g>
<!-- Node33&#45;&gt;Node35 -->
<g id="edge52" class="edge">
<title>Node33&#45;&gt;Node35</title>
<path fill="none" stroke="midnightblue" d="M383,-280.08C383,-273.01 383,-262.86 383,-253.99"/>
<polygon fill="midnightblue" stroke="midnightblue" points="386.5,-253.75 383,-243.75 379.5,-253.75 386.5,-253.75"/>
</g>
<!-- Node34&#45;&gt;Node8 -->
<g id="edge50" class="edge">
<title>Node34&#45;&gt;Node8</title>
<path fill="none" stroke="midnightblue" d="M57.06,-168.41C62.48,-154.43 75.11,-126.84 95,-112 132.41,-84.08 186.43,-73.48 221.13,-69.45"/>
<polygon fill="midnightblue" stroke="midnightblue" points="221.65,-72.92 231.24,-68.41 220.93,-65.96 221.65,-72.92"/>
</g>
<!-- Node39 -->
<g id="node39" class="node">
<title>Node39</title>
<g id="a_node39"><a xlink:title=" ">
<polygon fill="white" stroke="#bfbfbf" points="282.5,-336.5 282.5,-355.5 335.5,-355.5 335.5,-336.5 282.5,-336.5"/>
<text text-anchor="middle" x="309" y="-343.5" font-family="Helvetica,sans-Serif" font-size="10.00">string.h</text>
</a>
</g>
</g>
<!-- Node38&#45;&gt;Node39 -->
<g id="edge56" class="edge">
<title>Node38&#45;&gt;Node39</title>
<path fill="none" stroke="midnightblue" d="M309,-392.08C309,-385.01 309,-374.86 309,-365.99"/>
<polygon fill="midnightblue" stroke="midnightblue" points="312.5,-365.75 309,-355.75 305.5,-365.75 312.5,-365.75"/>
</g>
<!-- Node41 -->
<g id="node41" class="node">
<title>Node41</title>
<g id="a_node41"><a xlink:href="Deriv_8h.html" target="_top" xlink:title=" ">
<polygon fill="white" stroke="black" points="631.5,-448.5 631.5,-467.5 682.5,-467.5 682.5,-448.5 631.5,-448.5"/>
<text text-anchor="middle" x="657" y="-455.5" font-family="Helvetica,sans-Serif" font-size="10.00">Deriv.h</text>
</a>
</g>
</g>
<!-- Node40&#45;&gt;Node41 -->
<g id="edge58" class="edge">
<title>Node40&#45;&gt;Node41</title>
<path fill="none" stroke="midnightblue" d="M641.97,-504.08C644.38,-496.85 647.86,-486.41 650.87,-477.4"/>
<polygon fill="midnightblue" stroke="midnightblue" points="654.24,-478.34 654.08,-467.75 647.6,-476.13 654.24,-478.34"/>
</g>
<!-- Node42 -->
<g id="node42" class="node">
<title>Node42</title>
<g id="a_node42"><a xlink:href="MacDeriv_8h.html" target="_top" xlink:title=" ">
<polygon fill="white" stroke="black" points="621.5,-392.5 621.5,-411.5 692.5,-411.5 692.5,-392.5 621.5,-392.5"/>
<text text-anchor="middle" x="657" y="-399.5" font-family="Helvetica,sans-Serif" font-size="10.00">MacDeriv.h</text>
</a>
</g>
</g>
<!-- Node41&#45;&gt;Node42 -->
<g id="edge59" class="edge">
<title>Node41&#45;&gt;Node42</title>
<path fill="none" stroke="midnightblue" d="M657,-448.08C657,-441.01 657,-430.86 657,-421.99"/>
<polygon fill="midnightblue" stroke="midnightblue" points="660.5,-421.75 657,-411.75 653.5,-421.75 660.5,-421.75"/>
</g>
<!-- Node43 -->
<g id="node43" class="node">
<title>Node43</title>
<g id="a_node43"><a xlink:href="Deriv___8h.html" target="_top" xlink:title=" ">
<polygon fill="white" stroke="black" points="595.5,-336.5 595.5,-355.5 652.5,-355.5 652.5,-336.5 595.5,-336.5"/>
<text text-anchor="middle" x="624" y="-343.5" font-family="Helvetica,sans-Serif" font-size="10.00">Deriv_.h</text>
</a>
</g>
</g>
<!-- Node42&#45;&gt;Node43 -->
<g id="edge60" class="edge">
<title>Node42&#45;&gt;Node43</title>
<path fill="none" stroke="midnightblue" d="M651.55,-392.08C646.99,-384.61 640.33,-373.72 634.71,-364.52"/>
<polygon fill="midnightblue" stroke="midnightblue" points="637.55,-362.46 629.35,-355.75 631.58,-366.11 637.55,-362.46"/>
</g>
<!-- Node44 -->
<g id="node44" class="node">
<title>Node44</title>
<g id="a_node44"><a xlink:href="O__U__Ptr_8h.html" target="_top" xlink:title=" ">
<polygon fill="white" stroke="black" points="515,-280.5 515,-299.5 579,-299.5 579,-280.5 515,-280.5"/>
<text text-anchor="middle" x="547" y="-287.5" font-family="Helvetica,sans-Serif" font-size="10.00">O_U_Ptr.h</text>
</a>
</g>
</g>
<!-- Node43&#45;&gt;Node44 -->
<g id="edge61" class="edge">
<title>Node43&#45;&gt;Node44</title>
<path fill="none" stroke="midnightblue" d="M611.63,-336.32C599.84,-328.06 581.87,-315.45 567.86,-305.63"/>
<polygon fill="midnightblue" stroke="midnightblue" points="569.54,-302.53 559.34,-299.65 565.52,-308.26 569.54,-302.53"/>
</g>
<!-- Node44&#45;&gt;Node11 -->
<g id="edge62" class="edge">
<title>Node44&#45;&gt;Node11</title>
<path fill="none" stroke="midnightblue" d="M557.76,-280.32C567.77,-272.26 582.89,-260.08 594.93,-250.37"/>
<polygon fill="midnightblue" stroke="midnightblue" points="597.45,-252.83 603.04,-243.83 593.06,-247.38 597.45,-252.83"/>
</g>
<!-- Node45&#45;&gt;Node40 -->
<g id="edge65" class="edge">
<title>Node45&#45;&gt;Node40</title>
<path fill="none" stroke="midnightblue" d="M649.85,-560.08C648.13,-552.93 645.65,-542.64 643.5,-533.69"/>
<polygon fill="midnightblue" stroke="midnightblue" points="646.85,-532.65 641.11,-523.75 640.04,-534.29 646.85,-532.65"/>
</g>
<!-- Node45&#45;&gt;Node46 -->
<g id="edge64" class="edge">
<title>Node45&#45;&gt;Node46</title>
<path fill="none" stroke="midnightblue" d="M672.28,-560.44C693.35,-551.56 726.52,-537.56 750.49,-527.45"/>
<polygon fill="midnightblue" stroke="midnightblue" points="751.96,-530.63 759.81,-523.52 749.24,-524.18 751.96,-530.63"/>
</g>
<!-- Node49 -->
<g id="node49" class="node">
<title>Node49</title>
<g id="a_node49"><a xlink:href="MacVect_8h.html" target="_top" xlink:title=" ">
<polygon fill="white" stroke="black" points="969.5,-616.5 969.5,-635.5 1036.5,-635.5 1036.5,-616.5 969.5,-616.5"/>
<text text-anchor="middle" x="1003" y="-623.5" font-family="Helvetica,sans-Serif" font-size="10.00">MacVect.h</text>
</a>
</g>
</g>
<!-- Node48&#45;&gt;Node49 -->
<g id="edge70" class="edge">
<title>Node48&#45;&gt;Node49</title>
<path fill="none" stroke="midnightblue" d="M968.77,-672.08C974.56,-664.46 983.06,-653.26 990.14,-643.94"/>
<polygon fill="midnightblue" stroke="midnightblue" points="993.1,-645.83 996.36,-635.75 987.52,-641.6 993.1,-645.83"/>
</g>
<!-- Node49&#45;&gt;Node7 -->
<g id="edge75" class="edge">
<title>Node49&#45;&gt;Node7</title>
<path fill="none" stroke="midnightblue" d="M1028.15,-616.49C1045.64,-609.34 1068.2,-597.46 1082,-580 1100.66,-556.38 1101,-545.1 1101,-515 1101,-515 1101,-515 1101,-177 1101,-106.11 1001.75,-80.35 945.23,-71.43"/>
<polygon fill="midnightblue" stroke="midnightblue" points="945.61,-67.95 935.21,-69.96 944.59,-74.88 945.61,-67.95"/>
</g>
<!-- Node50 -->
<g id="node50" class="node">
<title>Node50</title>
<g id="a_node50"><a xlink:href="Nom_8h.html" target="_top" xlink:title=" ">
<polygon fill="white" stroke="black" points="954.5,-448.5 954.5,-467.5 1003.5,-467.5 1003.5,-448.5 954.5,-448.5"/>
<text text-anchor="middle" x="979" y="-455.5" font-family="Helvetica,sans-Serif" font-size="10.00">Nom.h</text>
</a>
</g>
</g>
<!-- Node49&#45;&gt;Node50 -->
<g id="edge71" class="edge">
<title>Node49&#45;&gt;Node50</title>
<path fill="none" stroke="midnightblue" d="M1000.01,-616.49C996.99,-607.53 992.44,-592.95 990,-580 983.26,-544.19 980.61,-501.62 979.6,-477.71"/>
<polygon fill="midnightblue" stroke="midnightblue" points="983.09,-477.45 979.22,-467.59 976.09,-477.71 983.09,-477.45"/>
</g>
<!-- Node52 -->
<g id="node52" class="node">
<title>Node52</title>
<g id="a_node52"><a xlink:href="vect__impl_8h.html" target="_top" xlink:title=" ">
<polygon fill="white" stroke="black" points="999,-560.5 999,-579.5 1073,-579.5 1073,-560.5 999,-560.5"/>
<text text-anchor="middle" x="1036" y="-567.5" font-family="Helvetica,sans-Serif" font-size="10.00">vect_impl.h</text>
</a>
</g>
</g>
<!-- Node49&#45;&gt;Node52 -->
<g id="edge76" class="edge">
<title>Node49&#45;&gt;Node52</title>
<path fill="none" stroke="midnightblue" d="M1008.45,-616.08C1013.01,-608.61 1019.67,-597.72 1025.29,-588.52"/>
<polygon fill="midnightblue" stroke="midnightblue" points="1028.42,-590.11 1030.65,-579.75 1022.45,-586.46 1028.42,-590.11"/>
</g>
<!-- Node50&#45;&gt;Node10 -->
<g id="edge74" class="edge">
<title>Node50&#45;&gt;Node10</title>
<path fill="none" stroke="midnightblue" d="M991.82,-448.32C1029.79,-421.46 1139,-335.48 1139,-235 1139,-235 1139,-235 1139,-177 1139,-146.2 1132.15,-137.58 1115,-112 1107.34,-100.57 1096.2,-90.04 1086.47,-82.04"/>
<polygon fill="midnightblue" stroke="midnightblue" points="1088.44,-79.13 1078.42,-75.7 1084.12,-84.64 1088.44,-79.13"/>
</g>
<!-- Node50&#45;&gt;Node11 -->
<g id="edge72" class="edge">
<title>Node50&#45;&gt;Node11</title>
<path fill="none" stroke="midnightblue" d="M954.26,-451.27C904.04,-438.94 787.55,-406.86 701,-356 665.13,-334.92 647.96,-335.33 626,-300 617.39,-286.14 614.64,-267.63 613.9,-253.9"/>
<polygon fill="midnightblue" stroke="midnightblue" points="617.39,-253.62 613.67,-243.71 610.4,-253.78 617.39,-253.62"/>
</g>
<!-- Node51 -->
<g id="node51" class="node">
<title>Node51</title>
<g id="a_node51"><a xlink:title=" ">
<polygon fill="white" stroke="#bfbfbf" points="947,-392.5 947,-411.5 997,-411.5 997,-392.5 947,-392.5"/>
<text text-anchor="middle" x="972" y="-399.5" font-family="Helvetica,sans-Serif" font-size="10.00">cstring</text>
</a>
</g>
</g>
<!-- Node50&#45;&gt;Node51 -->
<g id="edge73" class="edge">
<title>Node50&#45;&gt;Node51</title>
<path fill="none" stroke="midnightblue" d="M977.84,-448.08C976.92,-440.93 975.58,-430.64 974.42,-421.69"/>
<polygon fill="midnightblue" stroke="midnightblue" points="977.89,-421.22 973.13,-411.75 970.95,-422.12 977.89,-421.22"/>
</g>
<!-- Node52&#45;&gt;Node7 -->
<g id="edge78" class="edge">
<title>Node52&#45;&gt;Node7</title>
<path fill="none" stroke="midnightblue" d="M1039.64,-560.34C1047.01,-542 1063,-497.74 1063,-459 1063,-459 1063,-459 1063,-177 1063,-119.42 991.14,-89.33 944.96,-75.94"/>
<polygon fill="midnightblue" stroke="midnightblue" points="945.82,-72.54 935.25,-73.25 943.96,-79.29 945.82,-72.54"/>
</g>
<!-- Node52&#45;&gt;Node50 -->
<g id="edge77" class="edge">
<title>Node52&#45;&gt;Node50</title>
<path fill="none" stroke="midnightblue" d="M1031.53,-560.37C1022.2,-542.38 1000.53,-500.55 988.13,-476.63"/>
<polygon fill="midnightblue" stroke="midnightblue" points="991.16,-474.86 983.45,-467.59 984.95,-478.08 991.16,-474.86"/>
</g>
<!-- Node53 -->
<g id="node53" class="node">
<title>Node53</title>
<g id="a_node53"><a xlink:href="DerOu___8h.html" target="_top" xlink:title=" ">
<polygon fill="white" stroke="black" points="897,-504.5 897,-523.5 959,-523.5 959,-504.5 897,-504.5"/>
<text text-anchor="middle" x="928" y="-511.5" font-family="Helvetica,sans-Serif" font-size="10.00">DerOu_.h</text>
</a>
</g>
</g>
<!-- Node52&#45;&gt;Node53 -->
<g id="edge79" class="edge">
<title>Node52&#45;&gt;Node53</title>
<path fill="none" stroke="midnightblue" d="M1018.65,-560.32C1001.33,-551.66 974.48,-538.24 954.5,-528.25"/>
<polygon fill="midnightblue" stroke="midnightblue" points="955.82,-525 945.31,-523.65 952.69,-531.26 955.82,-525"/>
</g>
<!-- Node53&#45;&gt;Node41 -->
<g id="edge80" class="edge">
<title>Node53&#45;&gt;Node41</title>
<path fill="none" stroke="midnightblue" d="M896.91,-506.81C846.21,-496.7 746.02,-476.74 692.56,-466.09"/>
<polygon fill="midnightblue" stroke="midnightblue" points="693.01,-462.61 682.52,-464.09 691.64,-469.47 693.01,-462.61"/>
</g>
<!-- Node53&#45;&gt;Node50 -->
<g id="edge81" class="edge">
<title>Node53&#45;&gt;Node50</title>
<path fill="none" stroke="midnightblue" d="M936.42,-504.08C943.85,-496.22 954.85,-484.57 963.81,-475.08"/>
<polygon fill="midnightblue" stroke="midnightblue" points="966.41,-477.42 970.74,-467.75 961.32,-472.62 966.41,-477.42"/>
</g>
</g>
</svg>
