<?xml version="1.0" encoding="UTF-8" standalone="no"?>
<!DOCTYPE svg PUBLIC "-//W3C//DTD SVG 1.1//EN"
 "http://www.w3.org/Graphics/SVG/1.1/DTD/svg11.dtd">
<!-- Generated by graphviz version 2.43.0 (0)
 -->
<!-- Title: src/Kernel/Utilitaires/EcrFicPartageMPIIO.h Pages: 1 -->
<svg width="785pt" height="431pt"
 viewBox="0.00 0.00 784.76 431.00" xmlns="http://www.w3.org/2000/svg" xmlns:xlink="http://www.w3.org/1999/xlink">
<g id="graph0" class="graph" transform="scale(1 1) rotate(0) translate(4 427)">
<title>src/Kernel/Utilitaires/EcrFicPartageMPIIO.h</title>
<polygon fill="white" stroke="transparent" points="-4,4 -4,-427 780.76,-427 780.76,4 -4,4"/>
<!-- Node1 -->
<g id="node1" class="node">
<title>Node1</title>
<g id="a_node1"><a xlink:title=" ">
<polygon fill="#bfbfbf" stroke="black" points="608.26,-392.5 608.26,-422.5 730.26,-422.5 730.26,-392.5 608.26,-392.5"/>
<text text-anchor="start" x="616.26" y="-410.5" font-family="Helvetica,sans-Serif" font-size="10.00">src/Kernel/Utilitaires</text>
<text text-anchor="middle" x="669.26" y="-399.5" font-family="Helvetica,sans-Serif" font-size="10.00">/EcrFicPartageMPIIO.h</text>
</a>
</g>
</g>
<!-- Node2 -->
<g id="node2" class="node">
<title>Node2</title>
<g id="a_node2"><a xlink:href="Nom_8h.html" target="_top" xlink:title=" ">
<polygon fill="white" stroke="black" points="646.76,-280.5 646.76,-299.5 695.76,-299.5 695.76,-280.5 646.76,-280.5"/>
<text text-anchor="middle" x="671.26" y="-287.5" font-family="Helvetica,sans-Serif" font-size="10.00">Nom.h</text>
</a>
</g>
</g>
<!-- Node1&#45;&gt;Node2 -->
<g id="edge1" class="edge">
<title>Node1&#45;&gt;Node2</title>
<path fill="none" stroke="midnightblue" d="M669.51,-392.34C669.86,-371.62 670.53,-333.02 670.93,-309.9"/>
<polygon fill="midnightblue" stroke="midnightblue" points="674.44,-309.73 671.11,-299.67 667.44,-309.61 674.44,-309.73"/>
</g>
<!-- Node22 -->
<g id="node22" class="node">
<title>Node22</title>
<g id="a_node22"><a xlink:href="SFichier_8h.html" target="_top" xlink:title=" ">
<polygon fill="white" stroke="black" points="557.76,-336.5 557.76,-355.5 620.76,-355.5 620.76,-336.5 557.76,-336.5"/>
<text text-anchor="middle" x="589.26" y="-343.5" font-family="Helvetica,sans-Serif" font-size="10.00">SFichier.h</text>
</a>
</g>
</g>
<!-- Node1&#45;&gt;Node22 -->
<g id="edge28" class="edge">
<title>Node1&#45;&gt;Node22</title>
<path fill="none" stroke="midnightblue" d="M650.3,-392.4C637.84,-383.13 621.56,-371.03 608.95,-361.65"/>
<polygon fill="midnightblue" stroke="midnightblue" points="611.01,-358.82 600.9,-355.66 606.84,-364.43 611.01,-358.82"/>
</g>
<!-- Node24 -->
<g id="node24" class="node">
<title>Node24</title>
<g id="a_node24"><a xlink:href="comm__incl_8h.html" target="_top" xlink:title=" ">
<polygon fill="white" stroke="black" points="697.76,-336.5 697.76,-355.5 776.76,-355.5 776.76,-336.5 697.76,-336.5"/>
<text text-anchor="middle" x="737.26" y="-343.5" font-family="Helvetica,sans-Serif" font-size="10.00">comm_incl.h</text>
</a>
</g>
</g>
<!-- Node1&#45;&gt;Node24 -->
<g id="edge32" class="edge">
<title>Node1&#45;&gt;Node24</title>
<path fill="none" stroke="midnightblue" d="M685.37,-392.4C695.66,-383.4 709.01,-371.72 719.59,-362.47"/>
<polygon fill="midnightblue" stroke="midnightblue" points="722.14,-364.88 727.37,-355.66 717.53,-359.61 722.14,-364.88"/>
</g>
<!-- Node3 -->
<g id="node3" class="node">
<title>Node3</title>
<g id="a_node3"><a xlink:href="Objet__U_8h.html" target="_top" xlink:title=" ">
<polygon fill="white" stroke="black" points="368.76,-224.5 368.76,-243.5 433.76,-243.5 433.76,-224.5 368.76,-224.5"/>
<text text-anchor="middle" x="401.26" y="-231.5" font-family="Helvetica,sans-Serif" font-size="10.00">Objet_U.h</text>
</a>
</g>
</g>
<!-- Node2&#45;&gt;Node3 -->
<g id="edge2" class="edge">
<title>Node2&#45;&gt;Node3</title>
<path fill="none" stroke="midnightblue" d="M646.43,-282.21C643.35,-281.43 640.24,-280.68 637.26,-280 570,-264.71 491.16,-250.39 443.77,-242.18"/>
<polygon fill="midnightblue" stroke="midnightblue" points="444.31,-238.72 433.86,-240.47 443.12,-245.62 444.31,-238.72"/>
</g>
<!-- Node19 -->
<g id="node19" class="node">
<title>Node19</title>
<g id="a_node19"><a xlink:title=" ">
<polygon fill="white" stroke="#bfbfbf" points="673.26,-56.5 673.26,-75.5 717.26,-75.5 717.26,-56.5 673.26,-56.5"/>
<text text-anchor="middle" x="695.26" y="-63.5" font-family="Helvetica,sans-Serif" font-size="10.00">string</text>
</a>
</g>
</g>
<!-- Node2&#45;&gt;Node19 -->
<g id="edge27" class="edge">
<title>Node2&#45;&gt;Node19</title>
<path fill="none" stroke="midnightblue" d="M672.2,-280.3C675.73,-247.63 688.25,-131.87 693.21,-85.96"/>
<polygon fill="midnightblue" stroke="midnightblue" points="696.7,-86.2 694.3,-75.88 689.74,-85.45 696.7,-86.2"/>
</g>
<!-- Node21 -->
<g id="node21" class="node">
<title>Node21</title>
<g id="a_node21"><a xlink:title=" ">
<polygon fill="white" stroke="#bfbfbf" points="699.26,-224.5 699.26,-243.5 749.26,-243.5 749.26,-224.5 699.26,-224.5"/>
<text text-anchor="middle" x="724.26" y="-231.5" font-family="Helvetica,sans-Serif" font-size="10.00">cstring</text>
</a>
</g>
</g>
<!-- Node2&#45;&gt;Node21 -->
<g id="edge26" class="edge">
<title>Node2&#45;&gt;Node21</title>
<path fill="none" stroke="midnightblue" d="M680.01,-280.08C687.73,-272.22 699.16,-260.57 708.48,-251.08"/>
<polygon fill="midnightblue" stroke="midnightblue" points="711.16,-253.34 715.67,-243.75 706.17,-248.44 711.16,-253.34"/>
</g>
<!-- Node4 -->
<g id="node4" class="node">
<title>Node4</title>
<g id="a_node4"><a xlink:title=" ">
<polygon fill="white" stroke="#bfbfbf" points="323.26,-56.5 323.26,-75.5 379.26,-75.5 379.26,-56.5 323.26,-56.5"/>
<text text-anchor="middle" x="351.26" y="-63.5" font-family="Helvetica,sans-Serif" font-size="10.00">assert.h</text>
</a>
</g>
</g>
<!-- Node3&#45;&gt;Node4 -->
<g id="edge3" class="edge">
<title>Node3&#45;&gt;Node4</title>
<path fill="none" stroke="midnightblue" d="M398.57,-224.08C390.7,-197.95 367.59,-121.21 356.86,-85.58"/>
<polygon fill="midnightblue" stroke="midnightblue" points="360.08,-84.13 353.84,-75.57 353.37,-86.15 360.08,-84.13"/>
</g>
<!-- Node5 -->
<g id="node5" class="node">
<title>Node5</title>
<g id="a_node5"><a xlink:href="DecBaseInst_8h.html" target="_top" xlink:title=" ">
<polygon fill="white" stroke="black" points="103.26,-168.5 103.26,-187.5 189.26,-187.5 189.26,-168.5 103.26,-168.5"/>
<text text-anchor="middle" x="146.26" y="-175.5" font-family="Helvetica,sans-Serif" font-size="10.00">DecBaseInst.h</text>
</a>
</g>
</g>
<!-- Node3&#45;&gt;Node5 -->
<g id="edge4" class="edge">
<title>Node3&#45;&gt;Node5</title>
<path fill="none" stroke="midnightblue" d="M368.7,-226.11C325.15,-216.88 247.5,-200.44 196.44,-189.63"/>
<polygon fill="midnightblue" stroke="midnightblue" points="197.1,-186.19 186.6,-187.54 195.65,-193.04 197.1,-186.19"/>
</g>
<!-- Node10 -->
<g id="node10" class="node">
<title>Node10</title>
<g id="a_node10"><a xlink:href="EntreeSortie_8h.html" target="_top" xlink:title=" ">
<polygon fill="white" stroke="black" points="429.26,-168.5 429.26,-187.5 515.26,-187.5 515.26,-168.5 429.26,-168.5"/>
<text text-anchor="middle" x="472.26" y="-175.5" font-family="Helvetica,sans-Serif" font-size="10.00">EntreeSortie.h</text>
</a>
</g>
</g>
<!-- Node3&#45;&gt;Node10 -->
<g id="edge10" class="edge">
<title>Node3&#45;&gt;Node10</title>
<path fill="none" stroke="midnightblue" d="M412.67,-224.32C423.37,-216.18 439.6,-203.84 452.42,-194.09"/>
<polygon fill="midnightblue" stroke="midnightblue" points="454.8,-196.67 460.64,-187.83 450.57,-191.1 454.8,-196.67"/>
</g>
<!-- Node15 -->
<g id="node15" class="node">
<title>Node15</title>
<g id="a_node15"><a xlink:href="Process_8h.html" target="_top" xlink:title=" ">
<polygon fill="white" stroke="black" points="241.76,-56.5 241.76,-75.5 304.76,-75.5 304.76,-56.5 241.76,-56.5"/>
<text text-anchor="middle" x="273.26" y="-63.5" font-family="Helvetica,sans-Serif" font-size="10.00">Process.h</text>
</a>
</g>
</g>
<!-- Node3&#45;&gt;Node15 -->
<g id="edge25" class="edge">
<title>Node3&#45;&gt;Node15</title>
<path fill="none" stroke="midnightblue" d="M394.74,-224.48C379.59,-204.7 340.83,-154.13 308.26,-112 300.98,-102.59 292.82,-92.09 286.21,-83.6"/>
<polygon fill="midnightblue" stroke="midnightblue" points="288.89,-81.35 279.98,-75.62 283.37,-85.65 288.89,-81.35"/>
</g>
<!-- Node6 -->
<g id="node6" class="node">
<title>Node6</title>
<g id="a_node6"><a xlink:href="Cast_8h.html" target="_top" xlink:title=" ">
<polygon fill="white" stroke="black" points="42.76,-56.5 42.76,-75.5 89.76,-75.5 89.76,-56.5 42.76,-56.5"/>
<text text-anchor="middle" x="66.26" y="-63.5" font-family="Helvetica,sans-Serif" font-size="10.00">Cast.h</text>
</a>
</g>
</g>
<!-- Node5&#45;&gt;Node6 -->
<g id="edge5" class="edge">
<title>Node5&#45;&gt;Node6</title>
<path fill="none" stroke="midnightblue" d="M103.17,-176.16C70.2,-172.96 26.72,-162.67 4.26,-132 -9.99,-112.54 15.62,-92.86 38.12,-80.34"/>
<polygon fill="midnightblue" stroke="midnightblue" points="39.92,-83.35 47.13,-75.59 36.65,-77.15 39.92,-83.35"/>
</g>
<!-- Node7 -->
<g id="node7" class="node">
<title>Node7</title>
<g id="a_node7"><a xlink:href="Type__info_8h.html" target="_top" xlink:title=" ">
<polygon fill="white" stroke="black" points="13.26,-112.5 13.26,-131.5 85.26,-131.5 85.26,-112.5 13.26,-112.5"/>
<text text-anchor="middle" x="49.26" y="-119.5" font-family="Helvetica,sans-Serif" font-size="10.00">Type_info.h</text>
</a>
</g>
</g>
<!-- Node5&#45;&gt;Node7 -->
<g id="edge6" class="edge">
<title>Node5&#45;&gt;Node7</title>
<path fill="none" stroke="midnightblue" d="M130.68,-168.32C115.26,-159.74 91.45,-146.49 73.55,-136.52"/>
<polygon fill="midnightblue" stroke="midnightblue" points="75.25,-133.46 64.81,-131.65 71.84,-139.58 75.25,-133.46"/>
</g>
<!-- Node8 -->
<g id="node8" class="node">
<title>Node8</title>
<g id="a_node8"><a xlink:href="Declare__Base_8h.html" target="_top" xlink:title=" ">
<polygon fill="white" stroke="black" points="207.26,-112.5 207.26,-131.5 299.26,-131.5 299.26,-112.5 207.26,-112.5"/>
<text text-anchor="middle" x="253.26" y="-119.5" font-family="Helvetica,sans-Serif" font-size="10.00">Declare_Base.h</text>
</a>
</g>
</g>
<!-- Node5&#45;&gt;Node8 -->
<g id="edge7" class="edge">
<title>Node5&#45;&gt;Node8</title>
<path fill="none" stroke="midnightblue" d="M163.45,-168.32C180.61,-159.66 207.21,-146.24 227.01,-136.25"/>
<polygon fill="midnightblue" stroke="midnightblue" points="228.76,-139.28 236.11,-131.65 225.61,-133.04 228.76,-139.28"/>
</g>
<!-- Node9 -->
<g id="node9" class="node">
<title>Node9</title>
<g id="a_node9"><a xlink:href="Declare__Inst_8h.html" target="_top" xlink:title=" ">
<polygon fill="white" stroke="black" points="103.26,-112.5 103.26,-131.5 189.26,-131.5 189.26,-112.5 103.26,-112.5"/>
<text text-anchor="middle" x="146.26" y="-119.5" font-family="Helvetica,sans-Serif" font-size="10.00">Declare_Inst.h</text>
</a>
</g>
</g>
<!-- Node5&#45;&gt;Node9 -->
<g id="edge8" class="edge">
<title>Node5&#45;&gt;Node9</title>
<path fill="none" stroke="midnightblue" d="M146.26,-168.08C146.26,-161.01 146.26,-150.86 146.26,-141.99"/>
<polygon fill="midnightblue" stroke="midnightblue" points="149.76,-141.75 146.26,-131.75 142.76,-141.75 149.76,-141.75"/>
</g>
<!-- Node9&#45;&gt;Node6 -->
<g id="edge9" class="edge">
<title>Node9&#45;&gt;Node6</title>
<path fill="none" stroke="midnightblue" d="M133.41,-112.32C121.04,-103.98 102.13,-91.21 87.52,-81.35"/>
<polygon fill="midnightblue" stroke="midnightblue" points="89.33,-78.35 79.08,-75.65 85.41,-84.15 89.33,-78.35"/>
</g>
<!-- Node11 -->
<g id="node11" class="node">
<title>Node11</title>
<g id="a_node11"><a xlink:href="Entree_8h.html" target="_top" xlink:title=" ">
<polygon fill="white" stroke="black" points="393.76,-112.5 393.76,-131.5 450.76,-131.5 450.76,-112.5 393.76,-112.5"/>
<text text-anchor="middle" x="422.26" y="-119.5" font-family="Helvetica,sans-Serif" font-size="10.00">Entree.h</text>
</a>
</g>
</g>
<!-- Node10&#45;&gt;Node11 -->
<g id="edge11" class="edge">
<title>Node10&#45;&gt;Node11</title>
<path fill="none" stroke="midnightblue" d="M464,-168.08C456.8,-160.3 446.15,-148.8 437.41,-139.37"/>
<polygon fill="midnightblue" stroke="midnightblue" points="439.72,-136.71 430.36,-131.75 434.59,-141.47 439.72,-136.71"/>
</g>
<!-- Node18 -->
<g id="node18" class="node">
<title>Node18</title>
<g id="a_node18"><a xlink:href="Sortie_8h.html" target="_top" xlink:title=" ">
<polygon fill="white" stroke="black" points="565.26,-112.5 565.26,-131.5 619.26,-131.5 619.26,-112.5 565.26,-112.5"/>
<text text-anchor="middle" x="592.26" y="-119.5" font-family="Helvetica,sans-Serif" font-size="10.00">Sortie.h</text>
</a>
</g>
</g>
<!-- Node10&#45;&gt;Node18 -->
<g id="edge19" class="edge">
<title>Node10&#45;&gt;Node18</title>
<path fill="none" stroke="midnightblue" d="M491.27,-168.44C510.85,-159.64 541.57,-145.81 563.99,-135.72"/>
<polygon fill="midnightblue" stroke="midnightblue" points="565.65,-138.81 573.33,-131.52 562.78,-132.43 565.65,-138.81"/>
</g>
<!-- Node20 -->
<g id="node20" class="node">
<title>Node20</title>
<g id="a_node20"><a xlink:href="Separateur_8h.html" target="_top" xlink:title=" ">
<polygon fill="white" stroke="black" points="469.26,-112.5 469.26,-131.5 547.26,-131.5 547.26,-112.5 469.26,-112.5"/>
<text text-anchor="middle" x="508.26" y="-119.5" font-family="Helvetica,sans-Serif" font-size="10.00">Separateur.h</text>
</a>
</g>
</g>
<!-- Node10&#45;&gt;Node20 -->
<g id="edge24" class="edge">
<title>Node10&#45;&gt;Node20</title>
<path fill="none" stroke="midnightblue" d="M478.2,-168.08C483.24,-160.53 490.6,-149.49 496.77,-140.23"/>
<polygon fill="midnightblue" stroke="midnightblue" points="499.79,-142.01 502.43,-131.75 493.97,-138.13 499.79,-142.01"/>
</g>
<!-- Node11&#45;&gt;Node4 -->
<g id="edge15" class="edge">
<title>Node11&#45;&gt;Node4</title>
<path fill="none" stroke="midnightblue" d="M410.85,-112.32C400.15,-104.18 383.92,-91.84 371.1,-82.09"/>
<polygon fill="midnightblue" stroke="midnightblue" points="372.95,-79.1 362.87,-75.83 368.72,-84.67 372.95,-79.1"/>
</g>
<!-- Node12 -->
<g id="node12" class="node">
<title>Node12</title>
<g id="a_node12"><a xlink:title=" ">
<polygon fill="white" stroke="#bfbfbf" points="397.26,-56.5 397.26,-75.5 447.26,-75.5 447.26,-56.5 397.26,-56.5"/>
<text text-anchor="middle" x="422.26" y="-63.5" font-family="Helvetica,sans-Serif" font-size="10.00">stdio.h</text>
</a>
</g>
</g>
<!-- Node11&#45;&gt;Node12 -->
<g id="edge12" class="edge">
<title>Node11&#45;&gt;Node12</title>
<path fill="none" stroke="midnightblue" d="M422.26,-112.08C422.26,-105.01 422.26,-94.86 422.26,-85.99"/>
<polygon fill="midnightblue" stroke="midnightblue" points="425.76,-85.75 422.26,-75.75 418.76,-85.75 425.76,-85.75"/>
</g>
<!-- Node13 -->
<g id="node13" class="node">
<title>Node13</title>
<g id="a_node13"><a xlink:title=" ">
<polygon fill="white" stroke="#bfbfbf" points="465.26,-56.5 465.26,-75.5 511.26,-75.5 511.26,-56.5 465.26,-56.5"/>
<text text-anchor="middle" x="488.26" y="-63.5" font-family="Helvetica,sans-Serif" font-size="10.00">cstdio</text>
</a>
</g>
</g>
<!-- Node11&#45;&gt;Node13 -->
<g id="edge13" class="edge">
<title>Node11&#45;&gt;Node13</title>
<path fill="none" stroke="midnightblue" d="M432.86,-112.32C442.72,-104.26 457.61,-92.08 469.47,-82.37"/>
<polygon fill="midnightblue" stroke="midnightblue" points="471.94,-84.88 477.46,-75.83 467.51,-79.46 471.94,-84.88"/>
</g>
<!-- Node14 -->
<g id="node14" class="node">
<title>Node14</title>
<g id="a_node14"><a xlink:title=" ">
<polygon fill="white" stroke="#bfbfbf" points="529.26,-56.5 529.26,-75.5 589.26,-75.5 589.26,-56.5 529.26,-56.5"/>
<text text-anchor="middle" x="559.26" y="-63.5" font-family="Helvetica,sans-Serif" font-size="10.00">iostream</text>
</a>
</g>
</g>
<!-- Node11&#45;&gt;Node14 -->
<g id="edge14" class="edge">
<title>Node11&#45;&gt;Node14</title>
<path fill="none" stroke="midnightblue" d="M443.97,-112.44C466.61,-103.52 502.33,-89.44 528.01,-79.32"/>
<polygon fill="midnightblue" stroke="midnightblue" points="529.63,-82.44 537.65,-75.52 527.07,-75.93 529.63,-82.44"/>
</g>
<!-- Node11&#45;&gt;Node15 -->
<g id="edge16" class="edge">
<title>Node11&#45;&gt;Node15</title>
<path fill="none" stroke="midnightblue" d="M398.65,-112.44C373.8,-103.44 334.49,-89.19 306.51,-79.05"/>
<polygon fill="midnightblue" stroke="midnightblue" points="307.35,-75.63 296.76,-75.52 304.97,-82.21 307.35,-75.63"/>
</g>
<!-- Node16 -->
<g id="node16" class="node">
<title>Node16</title>
<g id="a_node16"><a xlink:href="arch_8h.html" target="_top" xlink:title=" ">
<polygon fill="white" stroke="black" points="607.76,-56.5 607.76,-75.5 654.76,-75.5 654.76,-56.5 607.76,-56.5"/>
<text text-anchor="middle" x="631.26" y="-63.5" font-family="Helvetica,sans-Serif" font-size="10.00">arch.h</text>
</a>
</g>
</g>
<!-- Node11&#45;&gt;Node16 -->
<g id="edge17" class="edge">
<title>Node11&#45;&gt;Node16</title>
<path fill="none" stroke="midnightblue" d="M450.95,-113.81C483.91,-105.52 539.87,-91.35 597.47,-76.18"/>
<polygon fill="midnightblue" stroke="midnightblue" points="598.7,-79.47 607.48,-73.53 596.92,-72.7 598.7,-79.47"/>
</g>
<!-- Node17 -->
<g id="node17" class="node">
<title>Node17</title>
<g id="a_node17"><a xlink:href="generique_8h.html" target="_top" xlink:title=" ">
<polygon fill="white" stroke="black" points="594.26,-0.5 594.26,-19.5 668.26,-19.5 668.26,-0.5 594.26,-0.5"/>
<text text-anchor="middle" x="631.26" y="-7.5" font-family="Helvetica,sans-Serif" font-size="10.00">generique.h</text>
</a>
</g>
</g>
<!-- Node16&#45;&gt;Node17 -->
<g id="edge18" class="edge">
<title>Node16&#45;&gt;Node17</title>
<path fill="none" stroke="midnightblue" d="M631.26,-56.08C631.26,-49.01 631.26,-38.86 631.26,-29.99"/>
<polygon fill="midnightblue" stroke="midnightblue" points="634.76,-29.75 631.26,-19.75 627.76,-29.75 634.76,-29.75"/>
</g>
<!-- Node18&#45;&gt;Node4 -->
<g id="edge21" class="edge">
<title>Node18&#45;&gt;Node4</title>
<path fill="none" stroke="midnightblue" d="M565.16,-114.12C562.16,-113.39 559.15,-112.67 556.26,-112 484.93,-95.45 464.37,-93.19 389.44,-76.22"/>
<polygon fill="midnightblue" stroke="midnightblue" points="390.05,-72.77 379.52,-73.96 388.49,-79.59 390.05,-72.77"/>
</g>
<!-- Node18&#45;&gt;Node14 -->
<g id="edge20" class="edge">
<title>Node18&#45;&gt;Node14</title>
<path fill="none" stroke="midnightblue" d="M586.81,-112.08C582.25,-104.61 575.59,-93.72 569.97,-84.52"/>
<polygon fill="midnightblue" stroke="midnightblue" points="572.81,-82.46 564.61,-75.75 566.84,-86.11 572.81,-82.46"/>
</g>
<!-- Node18&#45;&gt;Node16 -->
<g id="edge22" class="edge">
<title>Node18&#45;&gt;Node16</title>
<path fill="none" stroke="midnightblue" d="M598.7,-112.08C604.21,-104.46 612.29,-93.26 619.02,-83.94"/>
<polygon fill="midnightblue" stroke="midnightblue" points="621.92,-85.91 624.94,-75.75 616.25,-81.81 621.92,-85.91"/>
</g>
<!-- Node18&#45;&gt;Node19 -->
<g id="edge23" class="edge">
<title>Node18&#45;&gt;Node19</title>
<path fill="none" stroke="midnightblue" d="M608.81,-112.32C625.25,-103.7 650.69,-90.36 669.73,-80.39"/>
<polygon fill="midnightblue" stroke="midnightblue" points="671.52,-83.4 678.75,-75.65 668.27,-77.2 671.52,-83.4"/>
</g>
<!-- Node23 -->
<g id="node23" class="node">
<title>Node23</title>
<g id="a_node23"><a xlink:href="Sortie__Fichier__base_8h.html" target="_top" xlink:title=" ">
<polygon fill="white" stroke="black" points="508.26,-280.5 508.26,-299.5 628.26,-299.5 628.26,-280.5 508.26,-280.5"/>
<text text-anchor="middle" x="568.26" y="-287.5" font-family="Helvetica,sans-Serif" font-size="10.00">Sortie_Fichier_base.h</text>
</a>
</g>
</g>
<!-- Node22&#45;&gt;Node23 -->
<g id="edge29" class="edge">
<title>Node22&#45;&gt;Node23</title>
<path fill="none" stroke="midnightblue" d="M585.79,-336.08C582.95,-328.77 578.83,-318.18 575.3,-309.1"/>
<polygon fill="midnightblue" stroke="midnightblue" points="578.55,-307.8 571.66,-299.75 572.03,-310.34 578.55,-307.8"/>
</g>
<!-- Node23&#45;&gt;Node3 -->
<g id="edge31" class="edge">
<title>Node23&#45;&gt;Node3</title>
<path fill="none" stroke="midnightblue" d="M541.8,-280.44C513.58,-271.32 468.72,-256.81 437.29,-246.65"/>
<polygon fill="midnightblue" stroke="midnightblue" points="438.19,-243.26 427.6,-243.52 436.04,-249.92 438.19,-243.26"/>
</g>
<!-- Node23&#45;&gt;Node18 -->
<g id="edge30" class="edge">
<title>Node23&#45;&gt;Node18</title>
<path fill="none" stroke="midnightblue" d="M569.55,-280.08C573.33,-253.95 584.42,-177.21 589.57,-141.58"/>
<polygon fill="midnightblue" stroke="midnightblue" points="593.05,-141.97 591.02,-131.57 586.13,-140.96 593.05,-141.97"/>
</g>
<!-- Node25 -->
<g id="node25" class="node">
<title>Node25</title>
<g id="a_node25"><a xlink:title=" ">
<polygon fill="white" stroke="#bfbfbf" points="715.26,-280.5 715.26,-299.5 759.26,-299.5 759.26,-280.5 715.26,-280.5"/>
<text text-anchor="middle" x="737.26" y="-287.5" font-family="Helvetica,sans-Serif" font-size="10.00">mpi.h</text>
</a>
</g>
</g>
<!-- Node24&#45;&gt;Node25 -->
<g id="edge33" class="edge">
<title>Node24&#45;&gt;Node25</title>
<path fill="none" stroke="midnightblue" d="M737.26,-336.08C737.26,-329.01 737.26,-318.86 737.26,-309.99"/>
<polygon fill="midnightblue" stroke="midnightblue" points="740.76,-309.75 737.26,-299.75 733.76,-309.75 740.76,-309.75"/>
</g>
</g>
</svg>
