<?xml version="1.0" encoding="UTF-8" standalone="no"?>
<!DOCTYPE svg PUBLIC "-//W3C//DTD SVG 1.1//EN"
 "http://www.w3.org/Graphics/SVG/1.1/DTD/svg11.dtd">
<!-- Generated by graphviz version 2.43.0 (0)
 -->
<!-- Title: src/Kernel/VF/Zones/EcritureLectureSpecial.h Pages: 1 -->
<svg width="2566pt" height="128pt"
 viewBox="0.00 0.00 2565.50 128.00" xmlns="http://www.w3.org/2000/svg" xmlns:xlink="http://www.w3.org/1999/xlink">
<g id="graph0" class="graph" transform="scale(1 1) rotate(0) translate(4 124)">
<title>src/Kernel/VF/Zones/EcritureLectureSpecial.h</title>
<polygon fill="white" stroke="transparent" points="-4,4 -4,-124 2561.5,-124 2561.5,4 -4,4"/>
<!-- Node1 -->
<g id="node1" class="node">
<title>Node1</title>
<g id="a_node1"><a xlink:title=" ">
<polygon fill="#bfbfbf" stroke="black" points="1099,-89.5 1099,-119.5 1236,-119.5 1236,-89.5 1099,-89.5"/>
<text text-anchor="start" x="1107" y="-107.5" font-family="Helvetica,sans-Serif" font-size="10.00">src/Kernel/VF/Zones</text>
<text text-anchor="middle" x="1167.5" y="-96.5" font-family="Helvetica,sans-Serif" font-size="10.00">/EcritureLectureSpecial.h</text>
</a>
</g>
</g>
<!-- Node2 -->
<g id="node2" class="node">
<title>Node2</title>
<g id="a_node2"><a xlink:href="Champ__Fonc__base_8cpp.html" target="_top" xlink:title=" ">
<polygon fill="white" stroke="black" points="0,-11.5 0,-41.5 131,-41.5 131,-11.5 0,-11.5"/>
<text text-anchor="start" x="8" y="-29.5" font-family="Helvetica,sans-Serif" font-size="10.00">src/Kernel/Framework</text>
<text text-anchor="middle" x="65.5" y="-18.5" font-family="Helvetica,sans-Serif" font-size="10.00">/Champ_Fonc_base.cpp</text>
</a>
</g>
</g>
<!-- Node1&#45;&gt;Node2 -->
<g id="edge1" class="edge">
<title>Node1&#45;&gt;Node2</title>
<path fill="none" stroke="midnightblue" d="M1088.62,-102.46C880.82,-99.25 321.89,-87.59 140.5,-53 127.13,-50.45 112.88,-46.06 100.44,-41.63"/>
<polygon fill="midnightblue" stroke="midnightblue" points="1088.79,-105.96 1098.84,-102.61 1088.9,-98.96 1088.79,-105.96"/>
</g>
<!-- Node3 -->
<g id="node3" class="node">
<title>Node3</title>
<g id="a_node3"><a xlink:href="Champ__Inc__base_8cpp.html" target="_top" xlink:title=" ">
<polygon fill="white" stroke="black" points="149.5,-11.5 149.5,-41.5 271.5,-41.5 271.5,-11.5 149.5,-11.5"/>
<text text-anchor="start" x="157.5" y="-29.5" font-family="Helvetica,sans-Serif" font-size="10.00">src/Kernel/Framework</text>
<text text-anchor="middle" x="210.5" y="-18.5" font-family="Helvetica,sans-Serif" font-size="10.00">/Champ_Inc_base.cpp</text>
</a>
</g>
</g>
<!-- Node1&#45;&gt;Node3 -->
<g id="edge2" class="edge">
<title>Node1&#45;&gt;Node3</title>
<path fill="none" stroke="midnightblue" d="M1088.94,-101.96C901.8,-97.83 433.85,-84.58 280.5,-53 267.96,-50.42 254.65,-46.02 243.04,-41.59"/>
<polygon fill="midnightblue" stroke="midnightblue" points="1088.91,-105.46 1098.98,-102.18 1089.06,-98.47 1088.91,-105.46"/>
</g>
<!-- Node4 -->
<g id="node4" class="node">
<title>Node4</title>
<g id="a_node4"><a xlink:href="Postraitement_8cpp.html" target="_top" xlink:title=" ">
<polygon fill="white" stroke="black" points="289.5,-11.5 289.5,-41.5 411.5,-41.5 411.5,-11.5 289.5,-11.5"/>
<text text-anchor="start" x="297.5" y="-29.5" font-family="Helvetica,sans-Serif" font-size="10.00">src/Kernel/Framework</text>
<text text-anchor="middle" x="350.5" y="-18.5" font-family="Helvetica,sans-Serif" font-size="10.00">/Postraitement.cpp</text>
</a>
</g>
</g>
<!-- Node1&#45;&gt;Node4 -->
<g id="edge3" class="edge">
<title>Node1&#45;&gt;Node4</title>
<path fill="none" stroke="midnightblue" d="M1088.87,-100.99C923.86,-95.25 546.31,-79.61 420.5,-53 407.97,-50.35 394.67,-45.94 383.06,-41.52"/>
<polygon fill="midnightblue" stroke="midnightblue" points="1088.84,-104.49 1098.95,-101.33 1089.08,-97.49 1088.84,-104.49"/>
</g>
<!-- Node5 -->
<g id="node5" class="node">
<title>Node5</title>
<g id="a_node5"><a xlink:href="Probleme__base_8cpp.html" target="_top" xlink:title=" ">
<polygon fill="white" stroke="black" points="429.5,-11.5 429.5,-41.5 551.5,-41.5 551.5,-11.5 429.5,-11.5"/>
<text text-anchor="start" x="437.5" y="-29.5" font-family="Helvetica,sans-Serif" font-size="10.00">src/Kernel/Framework</text>
<text text-anchor="middle" x="490.5" y="-18.5" font-family="Helvetica,sans-Serif" font-size="10.00">/Probleme_base.cpp</text>
</a>
</g>
</g>
<!-- Node1&#45;&gt;Node5 -->
<g id="edge4" class="edge">
<title>Node1&#45;&gt;Node5</title>
<path fill="none" stroke="midnightblue" d="M1088.53,-103.59C971.75,-102.24 746.73,-93.9 560.5,-53 548.12,-50.28 534.96,-45.91 523.43,-41.54"/>
<polygon fill="midnightblue" stroke="midnightblue" points="1088.77,-107.09 1098.8,-103.7 1088.84,-100.1 1088.77,-107.09"/>
</g>
<!-- Node6 -->
<g id="node6" class="node">
<title>Node6</title>
<g id="a_node6"><a xlink:href="Operateurs__Statistique__tps_8cpp.html" target="_top" xlink:title=" ">
<polygon fill="white" stroke="black" points="570,-6 570,-47 737,-47 737,-6 570,-6"/>
<text text-anchor="start" x="578" y="-35" font-family="Helvetica,sans-Serif" font-size="10.00">src/Kernel/Statistiques</text>
<text text-anchor="start" x="578" y="-24" font-family="Helvetica,sans-Serif" font-size="10.00">_temps/Operateurs_Statistique</text>
<text text-anchor="middle" x="653.5" y="-13" font-family="Helvetica,sans-Serif" font-size="10.00">_tps.cpp</text>
</a>
</g>
</g>
<!-- Node1&#45;&gt;Node6 -->
<g id="edge5" class="edge">
<title>Node1&#45;&gt;Node6</title>
<path fill="none" stroke="midnightblue" d="M1088.54,-97.64C1003.34,-90.49 863.93,-76.36 745.5,-53 736.96,-51.32 728.06,-49.25 719.3,-47.03"/>
<polygon fill="midnightblue" stroke="midnightblue" points="1088.41,-101.14 1098.66,-98.48 1088.98,-94.17 1088.41,-101.14"/>
</g>
<!-- Node7 -->
<g id="node7" class="node">
<title>Node7</title>
<g id="a_node7"><a xlink:href="Champ__Fonc__reprise_8cpp.html" target="_top" xlink:title=" ">
<polygon fill="white" stroke="black" points="755,-11.5 755,-41.5 896,-41.5 896,-11.5 755,-11.5"/>
<text text-anchor="start" x="763" y="-29.5" font-family="Helvetica,sans-Serif" font-size="10.00">src/Kernel/VF/Champs</text>
<text text-anchor="middle" x="825.5" y="-18.5" font-family="Helvetica,sans-Serif" font-size="10.00">/Champ_Fonc_reprise.cpp</text>
</a>
</g>
</g>
<!-- Node1&#45;&gt;Node7 -->
<g id="edge6" class="edge">
<title>Node1&#45;&gt;Node7</title>
<path fill="none" stroke="midnightblue" d="M1088.94,-91.01C1036.38,-82.02 965.85,-68.73 904.5,-53 891.8,-49.74 878.14,-45.58 865.82,-41.57"/>
<polygon fill="midnightblue" stroke="midnightblue" points="1088.43,-94.47 1098.88,-92.69 1089.6,-87.57 1088.43,-94.47"/>
</g>
<!-- Node8 -->
<g id="node8" class="node">
<title>Node8</title>
<g id="a_node8"><a xlink:href="EcritureLectureSpecial_8cpp.html" target="_top" xlink:title=" ">
<polygon fill="white" stroke="black" points="914,-11.5 914,-41.5 1063,-41.5 1063,-11.5 914,-11.5"/>
<text text-anchor="start" x="922" y="-29.5" font-family="Helvetica,sans-Serif" font-size="10.00">src/Kernel/VF/Zones</text>
<text text-anchor="middle" x="988.5" y="-18.5" font-family="Helvetica,sans-Serif" font-size="10.00">/EcritureLectureSpecial.cpp</text>
</a>
</g>
</g>
<!-- Node1&#45;&gt;Node8 -->
<g id="edge7" class="edge">
<title>Node1&#45;&gt;Node8</title>
<path fill="none" stroke="midnightblue" d="M1124.81,-85.37C1093.16,-71.94 1050.65,-53.89 1021.57,-41.54"/>
<polygon fill="midnightblue" stroke="midnightblue" points="1123.68,-88.7 1134.25,-89.38 1126.41,-82.25 1123.68,-88.7"/>
</g>
<!-- Node9 -->
<g id="node9" class="node">
<title>Node9</title>
<g id="a_node9"><a xlink:href="Convection__Diffusion__Chaleur__Fluide__Dilatable__base_8cpp.html" target="_top" xlink:title=" ">
<polygon fill="white" stroke="black" points="1081,-0.5 1081,-52.5 1254,-52.5 1254,-0.5 1081,-0.5"/>
<text text-anchor="start" x="1089" y="-40.5" font-family="Helvetica,sans-Serif" font-size="10.00">src/ThHyd/Dilatable</text>
<text text-anchor="start" x="1089" y="-29.5" font-family="Helvetica,sans-Serif" font-size="10.00">/Common/Equations/Convection</text>
<text text-anchor="start" x="1089" y="-18.5" font-family="Helvetica,sans-Serif" font-size="10.00">_Diffusion_Chaleur_Fluide</text>
<text text-anchor="middle" x="1167.5" y="-7.5" font-family="Helvetica,sans-Serif" font-size="10.00">_Dilatable_base.cpp</text>
</a>
</g>
</g>
<!-- Node1&#45;&gt;Node9 -->
<g id="edge8" class="edge">
<title>Node1&#45;&gt;Node9</title>
<path fill="none" stroke="midnightblue" d="M1167.5,-79.14C1167.5,-70.63 1167.5,-61.07 1167.5,-52.5"/>
<polygon fill="midnightblue" stroke="midnightblue" points="1164,-79.2 1167.5,-89.2 1171,-79.21 1164,-79.2"/>
</g>
<!-- Node10 -->
<g id="node10" class="node">
<title>Node10</title>
<g id="a_node10"><a xlink:href="Convection__Diffusion__Fluide__Dilatable__Proto_8cpp.html" target="_top" xlink:title=" ">
<polygon fill="white" stroke="black" points="1272,-0.5 1272,-52.5 1445,-52.5 1445,-0.5 1272,-0.5"/>
<text text-anchor="start" x="1280" y="-40.5" font-family="Helvetica,sans-Serif" font-size="10.00">src/ThHyd/Dilatable</text>
<text text-anchor="start" x="1280" y="-29.5" font-family="Helvetica,sans-Serif" font-size="10.00">/Common/Equations/Convection</text>
<text text-anchor="start" x="1280" y="-18.5" font-family="Helvetica,sans-Serif" font-size="10.00">_Diffusion_Fluide_Dilatable</text>
<text text-anchor="middle" x="1358.5" y="-7.5" font-family="Helvetica,sans-Serif" font-size="10.00">_Proto.cpp</text>
</a>
</g>
</g>
<!-- Node1&#45;&gt;Node10 -->
<g id="edge9" class="edge">
<title>Node1&#45;&gt;Node10</title>
<path fill="none" stroke="midnightblue" d="M1212.46,-85.61C1237.19,-75.77 1268.26,-63.41 1295.38,-52.62"/>
<polygon fill="midnightblue" stroke="midnightblue" points="1210.98,-82.43 1202.98,-89.38 1213.56,-88.94 1210.98,-82.43"/>
</g>
<!-- Node11 -->
<g id="node11" class="node">
<title>Node11</title>
<g id="a_node11"><a xlink:href="Mod__turb__hyd__base_8cpp.html" target="_top" xlink:title=" ">
<polygon fill="white" stroke="black" points="1463.5,-11.5 1463.5,-41.5 1629.5,-41.5 1629.5,-11.5 1463.5,-11.5"/>
<text text-anchor="start" x="1471.5" y="-29.5" font-family="Helvetica,sans-Serif" font-size="10.00">src/ThHyd/Modele_turbulence</text>
<text text-anchor="middle" x="1546.5" y="-18.5" font-family="Helvetica,sans-Serif" font-size="10.00">_base/Mod_turb_hyd_base.cpp</text>
</a>
</g>
</g>
<!-- Node1&#45;&gt;Node11 -->
<g id="edge10" class="edge">
<title>Node1&#45;&gt;Node11</title>
<path fill="none" stroke="midnightblue" d="M1246.18,-91.75C1304.08,-82.59 1384.56,-68.81 1454.5,-53 1469.05,-49.71 1484.74,-45.58 1498.97,-41.61"/>
<polygon fill="midnightblue" stroke="midnightblue" points="1245.34,-88.34 1236,-93.35 1246.43,-95.25 1245.34,-88.34"/>
</g>
<!-- Node12 -->
<g id="node12" class="node">
<title>Node12</title>
<g id="a_node12"><a xlink:href="Modele__turbulence__scal__base_8cpp.html" target="_top" xlink:title=" ">
<polygon fill="white" stroke="black" points="1648,-6 1648,-47 1809,-47 1809,-6 1648,-6"/>
<text text-anchor="start" x="1656" y="-35" font-family="Helvetica,sans-Serif" font-size="10.00">src/ThHyd/Modele_turbulence</text>
<text text-anchor="start" x="1656" y="-24" font-family="Helvetica,sans-Serif" font-size="10.00">_base/Modele_turbulence</text>
<text text-anchor="middle" x="1728.5" y="-13" font-family="Helvetica,sans-Serif" font-size="10.00">_scal_base.cpp</text>
</a>
</g>
</g>
<!-- Node1&#45;&gt;Node12 -->
<g id="edge11" class="edge">
<title>Node1&#45;&gt;Node12</title>
<path fill="none" stroke="midnightblue" d="M1246.3,-99.14C1340.33,-93 1501.98,-79.46 1638.5,-53 1646.95,-51.36 1655.76,-49.31 1664.42,-47.08"/>
<polygon fill="midnightblue" stroke="midnightblue" points="1246.05,-95.65 1236.29,-99.78 1246.49,-102.63 1246.05,-95.65"/>
</g>
<!-- Node13 -->
<g id="node13" class="node">
<title>Node13</title>
<g id="a_node13"><a xlink:href="Aire__interfaciale_8cpp.html" target="_top" xlink:title=" ">
<polygon fill="white" stroke="black" points="1827,-11.5 1827,-41.5 1998,-41.5 1998,-11.5 1827,-11.5"/>
<text text-anchor="start" x="1835" y="-29.5" font-family="Helvetica,sans-Serif" font-size="10.00">src/ThHyd/Multiphase</text>
<text text-anchor="middle" x="1912.5" y="-18.5" font-family="Helvetica,sans-Serif" font-size="10.00">/Equations/Aire_interfaciale.cpp</text>
</a>
</g>
</g>
<!-- Node1&#45;&gt;Node13 -->
<g id="edge12" class="edge">
<title>Node1&#45;&gt;Node13</title>
<path fill="none" stroke="midnightblue" d="M1246.53,-102.13C1369.63,-98.94 1614.24,-88.31 1818.5,-53 1834.66,-50.21 1852.07,-45.87 1867.46,-41.56"/>
<polygon fill="midnightblue" stroke="midnightblue" points="1246.35,-98.64 1236.44,-102.39 1246.53,-105.64 1246.35,-98.64"/>
</g>
<!-- Node14 -->
<g id="node14" class="node">
<title>Node14</title>
<g id="a_node14"><a xlink:href="Energie__Multiphase_8cpp.html" target="_top" xlink:title=" ">
<polygon fill="white" stroke="black" points="2016,-11.5 2016,-41.5 2203,-41.5 2203,-11.5 2016,-11.5"/>
<text text-anchor="start" x="2024" y="-29.5" font-family="Helvetica,sans-Serif" font-size="10.00">src/ThHyd/Multiphase</text>
<text text-anchor="middle" x="2109.5" y="-18.5" font-family="Helvetica,sans-Serif" font-size="10.00">/Equations/Energie_Multiphase.cpp</text>
</a>
</g>
</g>
<!-- Node1&#45;&gt;Node14 -->
<g id="edge13" class="edge">
<title>Node1&#45;&gt;Node14</title>
<path fill="none" stroke="midnightblue" d="M1246.44,-103.6C1395.89,-102.72 1730.05,-95.65 2007.5,-53 2025.18,-50.28 2044.27,-45.91 2061.1,-41.54"/>
<polygon fill="midnightblue" stroke="midnightblue" points="1245.99,-100.1 1236,-103.65 1246.02,-107.1 1245.99,-100.1"/>
</g>
<!-- Node15 -->
<g id="node15" class="node">
<title>Node15</title>
<g id="a_node15"><a xlink:href="Masse__Multiphase_8cpp.html" target="_top" xlink:title=" ">
<polygon fill="white" stroke="black" points="2221.5,-11.5 2221.5,-41.5 2403.5,-41.5 2403.5,-11.5 2221.5,-11.5"/>
<text text-anchor="start" x="2229.5" y="-29.5" font-family="Helvetica,sans-Serif" font-size="10.00">src/ThHyd/Multiphase</text>
<text text-anchor="middle" x="2312.5" y="-18.5" font-family="Helvetica,sans-Serif" font-size="10.00">/Equations/Masse_Multiphase.cpp</text>
</a>
</g>
</g>
<!-- Node1&#45;&gt;Node15 -->
<g id="edge14" class="edge">
<title>Node1&#45;&gt;Node15</title>
<path fill="none" stroke="midnightblue" d="M1246.19,-101.75C1456.14,-96.75 2026.27,-80.95 2212.5,-53 2230.04,-50.37 2248.97,-45.96 2265.59,-41.54"/>
<polygon fill="midnightblue" stroke="midnightblue" points="1246.08,-98.25 1236.16,-101.99 1246.24,-105.25 1246.08,-98.25"/>
</g>
<!-- Node16 -->
<g id="node16" class="node">
<title>Node16</title>
<g id="a_node16"><a xlink:href="Modele__turbulence__hyd__nul_8cpp.html" target="_top" xlink:title=" ">
<polygon fill="white" stroke="black" points="2421.5,-6 2421.5,-47 2557.5,-47 2557.5,-6 2421.5,-6"/>
<text text-anchor="start" x="2429.5" y="-35" font-family="Helvetica,sans-Serif" font-size="10.00">src/ThHyd/Turbulence</text>
<text text-anchor="start" x="2429.5" y="-24" font-family="Helvetica,sans-Serif" font-size="10.00">/Modele_turbulence_hyd</text>
<text text-anchor="middle" x="2489.5" y="-13" font-family="Helvetica,sans-Serif" font-size="10.00">_nul.cpp</text>
</a>
</g>
</g>
<!-- Node1&#45;&gt;Node16 -->
<g id="edge15" class="edge">
<title>Node1&#45;&gt;Node16</title>
<path fill="none" stroke="midnightblue" d="M1246.53,-103.17C1483.78,-101.73 2187.33,-94.01 2412.5,-53 2420.54,-51.54 2428.88,-49.43 2436.99,-47.04"/>
<polygon fill="midnightblue" stroke="midnightblue" points="1246.24,-99.67 1236.26,-103.23 1246.28,-106.67 1246.24,-99.67"/>
</g>
</g>
</svg>
