<?xml version="1.0" encoding="UTF-8" standalone="no"?>
<!DOCTYPE svg PUBLIC "-//W3C//DTD SVG 1.1//EN"
 "http://www.w3.org/Graphics/SVG/1.1/DTD/svg11.dtd">
<!-- Generated by graphviz version 2.43.0 (0)
 -->
<!-- Title: src/EF/Zones/EF_discretisation.h Pages: 1 -->
<svg width="326pt" height="162pt"
 viewBox="0.00 0.00 325.50 162.00" xmlns="http://www.w3.org/2000/svg" xmlns:xlink="http://www.w3.org/1999/xlink">
<g id="graph0" class="graph" transform="scale(1 1) rotate(0) translate(4 158)">
<title>src/EF/Zones/EF_discretisation.h</title>
<polygon fill="white" stroke="transparent" points="-4,4 -4,-158 321.5,-158 321.5,4 -4,4"/>
<!-- Node1 -->
<g id="node1" class="node">
<title>Node1</title>
<g id="a_node1"><a xlink:title=" ">
<polygon fill="#bfbfbf" stroke="black" points="54,-134.5 54,-153.5 228,-153.5 228,-134.5 54,-134.5"/>
<text text-anchor="middle" x="141" y="-141.5" font-family="Helvetica,sans-Serif" font-size="10.00">src/EF/Zones/EF_discretisation.h</text>
</a>
</g>
</g>
<!-- Node2 -->
<g id="node2" class="node">
<title>Node2</title>
<g id="a_node2"><a xlink:href="EF__axi__discretisation_8h.html" target="_top" xlink:title=" ">
<polygon fill="white" stroke="black" points="0,-67.5 0,-97.5 114,-97.5 114,-67.5 0,-67.5"/>
<text text-anchor="start" x="8" y="-85.5" font-family="Helvetica,sans-Serif" font-size="10.00">src/EF/Zones/EF_axi</text>
<text text-anchor="middle" x="57" y="-74.5" font-family="Helvetica,sans-Serif" font-size="10.00">_discretisation.h</text>
</a>
</g>
</g>
<!-- Node1&#45;&gt;Node2 -->
<g id="edge1" class="edge">
<title>Node1&#45;&gt;Node2</title>
<path fill="none" stroke="midnightblue" d="M120.48,-128.47C107.18,-119.05 89.95,-106.84 76.8,-97.52"/>
<polygon fill="midnightblue" stroke="midnightblue" points="118.78,-131.55 128.96,-134.48 122.83,-125.84 118.78,-131.55"/>
</g>
<!-- Node4 -->
<g id="node4" class="node">
<title>Node4</title>
<g id="a_node4"><a xlink:href="EF__discretisation_8cpp.html" target="_top" xlink:title=" ">
<polygon fill="white" stroke="black" points="132.5,-73 132.5,-92 317.5,-92 317.5,-73 132.5,-73"/>
<text text-anchor="middle" x="225" y="-80" font-family="Helvetica,sans-Serif" font-size="10.00">src/EF/Zones/EF_discretisation.cpp</text>
</a>
</g>
</g>
<!-- Node1&#45;&gt;Node4 -->
<g id="edge3" class="edge">
<title>Node1&#45;&gt;Node4</title>
<path fill="none" stroke="midnightblue" d="M161.31,-128.61C177.47,-117.17 199.52,-101.55 212.99,-92.01"/>
<polygon fill="midnightblue" stroke="midnightblue" points="159.17,-125.84 153.04,-134.48 163.22,-131.55 159.17,-125.84"/>
</g>
<!-- Node3 -->
<g id="node3" class="node">
<title>Node3</title>
<g id="a_node3"><a xlink:href="EF__axi__discretisation_8cpp.html" target="_top" xlink:title=" ">
<polygon fill="white" stroke="black" points="0,-0.5 0,-30.5 114,-30.5 114,-0.5 0,-0.5"/>
<text text-anchor="start" x="8" y="-18.5" font-family="Helvetica,sans-Serif" font-size="10.00">src/EF/Zones/EF_axi</text>
<text text-anchor="middle" x="57" y="-7.5" font-family="Helvetica,sans-Serif" font-size="10.00">_discretisation.cpp</text>
</a>
</g>
</g>
<!-- Node2&#45;&gt;Node3 -->
<g id="edge2" class="edge">
<title>Node2&#45;&gt;Node3</title>
<path fill="none" stroke="midnightblue" d="M57,-57.11C57,-48.15 57,-38.32 57,-30.58"/>
<polygon fill="midnightblue" stroke="midnightblue" points="53.5,-57.4 57,-67.4 60.5,-57.4 53.5,-57.4"/>
</g>
</g>
</svg>
