<?xml version="1.0" encoding="UTF-8" standalone="no"?>
<!DOCTYPE svg PUBLIC "-//W3C//DTD SVG 1.1//EN"
 "http://www.w3.org/Graphics/SVG/1.1/DTD/svg11.dtd">
<!-- Generated by graphviz version 2.43.0 (0)
 -->
<!-- Title: src/Kernel/Utilitaires/EFichierBin.h Pages: 1 -->
<svg width="844pt" height="117pt"
 viewBox="0.00 0.00 843.50 117.00" xmlns="http://www.w3.org/2000/svg" xmlns:xlink="http://www.w3.org/1999/xlink">
<g id="graph0" class="graph" transform="scale(1 1) rotate(0) translate(4 113)">
<title>src/Kernel/Utilitaires/EFichierBin.h</title>
<polygon fill="white" stroke="transparent" points="-4,4 -4,-113 839.5,-113 839.5,4 -4,4"/>
<!-- Node1 -->
<g id="node1" class="node">
<title>Node1</title>
<g id="a_node1"><a xlink:title=" ">
<polygon fill="#bfbfbf" stroke="black" points="334.5,-78.5 334.5,-108.5 450.5,-108.5 450.5,-78.5 334.5,-78.5"/>
<text text-anchor="start" x="342.5" y="-96.5" font-family="Helvetica,sans-Serif" font-size="10.00">src/Kernel/Utilitaires</text>
<text text-anchor="middle" x="392.5" y="-85.5" font-family="Helvetica,sans-Serif" font-size="10.00">/EFichierBin.h</text>
</a>
</g>
</g>
<!-- Node2 -->
<g id="node2" class="node">
<title>Node2</title>
<g id="a_node2"><a xlink:href="Scatter_8cpp.html" target="_top" xlink:title=" ">
<polygon fill="white" stroke="black" points="0,-6 0,-36 119,-36 119,-6 0,-6"/>
<text text-anchor="start" x="8" y="-24" font-family="Helvetica,sans-Serif" font-size="10.00">src/Kernel/Geometrie</text>
<text text-anchor="middle" x="59.5" y="-13" font-family="Helvetica,sans-Serif" font-size="10.00">/Scatter.cpp</text>
</a>
</g>
</g>
<!-- Node1&#45;&gt;Node2 -->
<g id="edge1" class="edge">
<title>Node1&#45;&gt;Node2</title>
<path fill="none" stroke="midnightblue" d="M324.43,-81.28C270.9,-72.02 194.57,-57.86 128.5,-42 121.1,-40.22 113.31,-38.16 105.74,-36.04"/>
<polygon fill="midnightblue" stroke="midnightblue" points="324.04,-84.76 334.49,-83 325.23,-77.86 324.04,-84.76"/>
</g>
<!-- Node3 -->
<g id="node3" class="node">
<title>Node3</title>
<g id="a_node3"><a xlink:href="LataToMED_8cpp.html" target="_top" xlink:title=" ">
<polygon fill="white" stroke="black" points="137.5,-6 137.5,-36 249.5,-36 249.5,-6 137.5,-6"/>
<text text-anchor="start" x="145.5" y="-24" font-family="Helvetica,sans-Serif" font-size="10.00">src/Kernel/MEDimpl</text>
<text text-anchor="middle" x="193.5" y="-13" font-family="Helvetica,sans-Serif" font-size="10.00">/LataToMED.cpp</text>
</a>
</g>
</g>
<!-- Node1&#45;&gt;Node3 -->
<g id="edge2" class="edge">
<title>Node1&#45;&gt;Node3</title>
<path fill="none" stroke="midnightblue" d="M343,-74.96C309.12,-62.96 264.79,-47.26 233.22,-36.07"/>
<polygon fill="midnightblue" stroke="midnightblue" points="342.11,-78.36 352.71,-78.4 344.45,-71.76 342.11,-78.36"/>
</g>
<!-- Node4 -->
<g id="node4" class="node">
<title>Node4</title>
<g id="a_node4"><a xlink:href="EFichierBin_8cpp.html" target="_top" xlink:title=" ">
<polygon fill="white" stroke="black" points="267.5,-6 267.5,-36 383.5,-36 383.5,-6 267.5,-6"/>
<text text-anchor="start" x="275.5" y="-24" font-family="Helvetica,sans-Serif" font-size="10.00">src/Kernel/Utilitaires</text>
<text text-anchor="middle" x="325.5" y="-13" font-family="Helvetica,sans-Serif" font-size="10.00">/EFichierBin.cpp</text>
</a>
</g>
</g>
<!-- Node1&#45;&gt;Node4 -->
<g id="edge3" class="edge">
<title>Node1&#45;&gt;Node4</title>
<path fill="none" stroke="midnightblue" d="M371.94,-70.86C361.25,-59.61 348.48,-46.18 339.04,-36.25"/>
<polygon fill="midnightblue" stroke="midnightblue" points="369.52,-73.4 378.94,-78.23 374.59,-68.57 369.52,-73.4"/>
</g>
<!-- Node5 -->
<g id="node5" class="node">
<title>Node5</title>
<g id="a_node5"><a xlink:href="Lire__Fichier_8cpp.html" target="_top" xlink:title=" ">
<polygon fill="white" stroke="black" points="401.5,-6 401.5,-36 517.5,-36 517.5,-6 401.5,-6"/>
<text text-anchor="start" x="409.5" y="-24" font-family="Helvetica,sans-Serif" font-size="10.00">src/Kernel/Utilitaires</text>
<text text-anchor="middle" x="459.5" y="-13" font-family="Helvetica,sans-Serif" font-size="10.00">/Lire_Fichier.cpp</text>
</a>
</g>
</g>
<!-- Node1&#45;&gt;Node5 -->
<g id="edge4" class="edge">
<title>Node1&#45;&gt;Node5</title>
<path fill="none" stroke="midnightblue" d="M413.06,-70.86C423.75,-59.61 436.52,-46.18 445.96,-36.25"/>
<polygon fill="midnightblue" stroke="midnightblue" points="410.41,-68.57 406.06,-78.23 415.48,-73.4 410.41,-68.57"/>
</g>
<!-- Node6 -->
<g id="node6" class="node">
<title>Node6</title>
<g id="a_node6"><a xlink:href="Read__unsupported__ASCII__file__from__ICEM_8cpp.html" target="_top" xlink:title=" ">
<polygon fill="white" stroke="black" points="536,-0.5 536,-41.5 677,-41.5 677,-0.5 536,-0.5"/>
<text text-anchor="start" x="544" y="-29.5" font-family="Helvetica,sans-Serif" font-size="10.00">src/Kernel/Utilitaires</text>
<text text-anchor="start" x="544" y="-18.5" font-family="Helvetica,sans-Serif" font-size="10.00">/Read_unsupported_ASCII</text>
<text text-anchor="middle" x="606.5" y="-7.5" font-family="Helvetica,sans-Serif" font-size="10.00">_file_from_ICEM.cpp</text>
</a>
</g>
</g>
<!-- Node1&#45;&gt;Node6 -->
<g id="edge5" class="edge">
<title>Node1&#45;&gt;Node6</title>
<path fill="none" stroke="midnightblue" d="M444.76,-75.28C475.67,-65.1 514.93,-52.17 547.03,-41.59"/>
<polygon fill="midnightblue" stroke="midnightblue" points="443.44,-72.03 435.04,-78.49 445.63,-78.68 443.44,-72.03"/>
</g>
<!-- Node7 -->
<g id="node7" class="node">
<title>Node7</title>
<g id="a_node7"><a xlink:href="Zone__VEF__PreP1b_8cpp.html" target="_top" xlink:title=" ">
<polygon fill="white" stroke="black" points="695.5,-6 695.5,-36 835.5,-36 835.5,-6 695.5,-6"/>
<text text-anchor="start" x="703.5" y="-24" font-family="Helvetica,sans-Serif" font-size="10.00">src/P1NCP1B/Zones/Zone</text>
<text text-anchor="middle" x="765.5" y="-13" font-family="Helvetica,sans-Serif" font-size="10.00">_VEF_PreP1b.cpp</text>
</a>
</g>
</g>
<!-- Node1&#45;&gt;Node7 -->
<g id="edge6" class="edge">
<title>Node1&#45;&gt;Node7</title>
<path fill="none" stroke="midnightblue" d="M460.84,-82.31C520.61,-73.02 609.63,-58.31 686.5,-42 694.94,-40.21 703.85,-38.14 712.51,-36.02"/>
<polygon fill="midnightblue" stroke="midnightblue" points="460.12,-78.88 450.77,-83.86 461.19,-85.79 460.12,-78.88"/>
</g>
</g>
</svg>
