<?xml version="1.0" encoding="UTF-8" standalone="no"?>
<!DOCTYPE svg PUBLIC "-//W3C//DTD SVG 1.1//EN"
 "http://www.w3.org/Graphics/SVG/1.1/DTD/svg11.dtd">
<!-- Generated by graphviz version 2.43.0 (0)
 -->
<!-- Title: src/Kernel/VF/Zones/Elem_poly.cpp Pages: 1 -->
<svg width="810pt" height="599pt"
 viewBox="0.00 0.00 810.00 599.00" xmlns="http://www.w3.org/2000/svg" xmlns:xlink="http://www.w3.org/1999/xlink">
<g id="graph0" class="graph" transform="scale(1 1) rotate(0) translate(4 595)">
<title>src/Kernel/VF/Zones/Elem_poly.cpp</title>
<polygon fill="white" stroke="transparent" points="-4,4 -4,-595 806,-595 806,4 -4,4"/>
<!-- Node1 -->
<g id="node1" class="node">
<title>Node1</title>
<g id="a_node1"><a xlink:title=" ">
<polygon fill="#bfbfbf" stroke="black" points="220,-560.5 220,-590.5 333,-590.5 333,-560.5 220,-560.5"/>
<text text-anchor="start" x="228" y="-578.5" font-family="Helvetica,sans-Serif" font-size="10.00">src/Kernel/VF/Zones</text>
<text text-anchor="middle" x="276.5" y="-567.5" font-family="Helvetica,sans-Serif" font-size="10.00">/Elem_poly.cpp</text>
</a>
</g>
</g>
<!-- Node2 -->
<g id="node2" class="node">
<title>Node2</title>
<g id="a_node2"><a xlink:href="Elem__poly_8h.html" target="_top" xlink:title=" ">
<polygon fill="white" stroke="black" points="0,-504.5 0,-523.5 75,-523.5 75,-504.5 0,-504.5"/>
<text text-anchor="middle" x="37.5" y="-511.5" font-family="Helvetica,sans-Serif" font-size="10.00">Elem_poly.h</text>
</a>
</g>
</g>
<!-- Node1&#45;&gt;Node2 -->
<g id="edge1" class="edge">
<title>Node1&#45;&gt;Node2</title>
<path fill="none" stroke="midnightblue" d="M220.16,-560.47C177.85,-549.94 120.71,-535.72 81.68,-526"/>
<polygon fill="midnightblue" stroke="midnightblue" points="82.22,-522.53 71.67,-523.51 80.53,-529.32 82.22,-522.53"/>
</g>
<!-- Node27 -->
<g id="node27" class="node">
<title>Node27</title>
<g id="a_node27"><a xlink:href="Tri__poly_8h.html" target="_top" xlink:title=" ">
<polygon fill="white" stroke="black" points="381.5,-504.5 381.5,-523.5 443.5,-523.5 443.5,-504.5 381.5,-504.5"/>
<text text-anchor="middle" x="412.5" y="-511.5" font-family="Helvetica,sans-Serif" font-size="10.00">Tri_poly.h</text>
</a>
</g>
</g>
<!-- Node1&#45;&gt;Node27 -->
<g id="edge34" class="edge">
<title>Node1&#45;&gt;Node27</title>
<path fill="none" stroke="midnightblue" d="M308.73,-560.4C331.34,-550.51 361.34,-537.38 383.26,-527.79"/>
<polygon fill="midnightblue" stroke="midnightblue" points="384.95,-530.87 392.71,-523.66 382.15,-524.46 384.95,-530.87"/>
</g>
<!-- Node28 -->
<g id="node28" class="node">
<title>Node28</title>
<g id="a_node28"><a xlink:href="Tetra__poly_8h.html" target="_top" xlink:title=" ">
<polygon fill="white" stroke="black" points="93.5,-504.5 93.5,-523.5 167.5,-523.5 167.5,-504.5 93.5,-504.5"/>
<text text-anchor="middle" x="130.5" y="-511.5" font-family="Helvetica,sans-Serif" font-size="10.00">Tetra_poly.h</text>
</a>
</g>
</g>
<!-- Node1&#45;&gt;Node28 -->
<g id="edge36" class="edge">
<title>Node1&#45;&gt;Node28</title>
<path fill="none" stroke="midnightblue" d="M241.9,-560.4C217.4,-550.42 184.84,-537.15 161.25,-527.53"/>
<polygon fill="midnightblue" stroke="midnightblue" points="162.33,-524.19 151.74,-523.66 159.68,-530.67 162.33,-524.19"/>
</g>
<!-- Node29 -->
<g id="node29" class="node">
<title>Node29</title>
<g id="a_node29"><a xlink:href="Quadri__poly_8h.html" target="_top" xlink:title=" ">
<polygon fill="white" stroke="black" points="186,-504.5 186,-523.5 269,-523.5 269,-504.5 186,-504.5"/>
<text text-anchor="middle" x="227.5" y="-511.5" font-family="Helvetica,sans-Serif" font-size="10.00">Quadri_poly.h</text>
</a>
</g>
</g>
<!-- Node1&#45;&gt;Node29 -->
<g id="edge38" class="edge">
<title>Node1&#45;&gt;Node29</title>
<path fill="none" stroke="midnightblue" d="M264.89,-560.4C257.77,-551.75 248.62,-540.64 241.15,-531.58"/>
<polygon fill="midnightblue" stroke="midnightblue" points="243.69,-529.15 234.63,-523.66 238.29,-533.6 243.69,-529.15"/>
</g>
<!-- Node30 -->
<g id="node30" class="node">
<title>Node30</title>
<g id="a_node30"><a xlink:href="Hexa__poly_8h.html" target="_top" xlink:title=" ">
<polygon fill="white" stroke="black" points="287.5,-504.5 287.5,-523.5 363.5,-523.5 363.5,-504.5 287.5,-504.5"/>
<text text-anchor="middle" x="325.5" y="-511.5" font-family="Helvetica,sans-Serif" font-size="10.00">Hexa_poly.h</text>
</a>
</g>
</g>
<!-- Node1&#45;&gt;Node30 -->
<g id="edge40" class="edge">
<title>Node1&#45;&gt;Node30</title>
<path fill="none" stroke="midnightblue" d="M288.11,-560.4C295.23,-551.75 304.38,-540.64 311.85,-531.58"/>
<polygon fill="midnightblue" stroke="midnightblue" points="314.71,-533.6 318.37,-523.66 309.31,-529.15 314.71,-533.6"/>
</g>
<!-- Node31 -->
<g id="node31" class="node">
<title>Node31</title>
<g id="a_node31"><a xlink:href="Nom_8h.html" target="_top" xlink:title=" ">
<polygon fill="white" stroke="black" points="422,-280.5 422,-299.5 471,-299.5 471,-280.5 422,-280.5"/>
<text text-anchor="middle" x="446.5" y="-287.5" font-family="Helvetica,sans-Serif" font-size="10.00">Nom.h</text>
</a>
</g>
</g>
<!-- Node1&#45;&gt;Node31 -->
<g id="edge42" class="edge">
<title>Node1&#45;&gt;Node31</title>
<path fill="none" stroke="midnightblue" d="M333.14,-572.08C371.63,-567.46 421.07,-555.28 452.5,-524 473.84,-502.77 471.5,-489.1 471.5,-459 471.5,-459 471.5,-459 471.5,-401 471.5,-368 460.67,-330.77 453.26,-309.19"/>
<polygon fill="midnightblue" stroke="midnightblue" points="456.53,-307.93 449.87,-299.69 449.93,-310.28 456.53,-307.93"/>
</g>
<!-- Node3 -->
<g id="node3" class="node">
<title>Node3</title>
<g id="a_node3"><a xlink:href="Elem__poly__base_8h.html" target="_top" xlink:title=" ">
<polygon fill="white" stroke="black" points="175,-448.5 175,-467.5 280,-467.5 280,-448.5 175,-448.5"/>
<text text-anchor="middle" x="227.5" y="-455.5" font-family="Helvetica,sans-Serif" font-size="10.00">Elem_poly_base.h</text>
</a>
</g>
</g>
<!-- Node2&#45;&gt;Node3 -->
<g id="edge2" class="edge">
<title>Node2&#45;&gt;Node3</title>
<path fill="none" stroke="midnightblue" d="M67.61,-504.44C100.13,-495.2 152.08,-480.44 187.89,-470.26"/>
<polygon fill="midnightblue" stroke="midnightblue" points="188.87,-473.62 197.53,-467.52 186.96,-466.88 188.87,-473.62"/>
</g>
<!-- Node4 -->
<g id="node4" class="node">
<title>Node4</title>
<g id="a_node4"><a xlink:href="TRUSTTabs__forward_8h.html" target="_top" xlink:title=" ">
<polygon fill="white" stroke="black" points="91.5,-392.5 91.5,-411.5 213.5,-411.5 213.5,-392.5 91.5,-392.5"/>
<text text-anchor="middle" x="152.5" y="-399.5" font-family="Helvetica,sans-Serif" font-size="10.00">TRUSTTabs_forward.h</text>
</a>
</g>
</g>
<!-- Node2&#45;&gt;Node4 -->
<g id="edge28" class="edge">
<title>Node2&#45;&gt;Node4</title>
<path fill="none" stroke="midnightblue" d="M46.52,-504.37C65.84,-485.89 111.42,-442.29 136.04,-418.74"/>
<polygon fill="midnightblue" stroke="midnightblue" points="138.71,-421.03 143.52,-411.59 133.87,-415.97 138.71,-421.03"/>
</g>
<!-- Node23 -->
<g id="node23" class="node">
<title>Node23</title>
<g id="a_node23"><a xlink:href="Deriv_8h.html" target="_top" xlink:title=" ">
<polygon fill="white" stroke="black" points="12,-448.5 12,-467.5 63,-467.5 63,-448.5 12,-448.5"/>
<text text-anchor="middle" x="37.5" y="-455.5" font-family="Helvetica,sans-Serif" font-size="10.00">Deriv.h</text>
</a>
</g>
</g>
<!-- Node2&#45;&gt;Node23 -->
<g id="edge29" class="edge">
<title>Node2&#45;&gt;Node23</title>
<path fill="none" stroke="midnightblue" d="M37.5,-504.08C37.5,-497.01 37.5,-486.86 37.5,-477.99"/>
<polygon fill="midnightblue" stroke="midnightblue" points="41,-477.75 37.5,-467.75 34,-477.75 41,-477.75"/>
</g>
<!-- Node3&#45;&gt;Node4 -->
<g id="edge3" class="edge">
<title>Node3&#45;&gt;Node4</title>
<path fill="none" stroke="midnightblue" d="M215.45,-448.32C204.04,-440.11 186.67,-427.6 173.07,-417.81"/>
<polygon fill="midnightblue" stroke="midnightblue" points="174.93,-414.84 164.77,-411.83 170.84,-420.52 174.93,-414.84"/>
</g>
<!-- Node5 -->
<g id="node5" class="node">
<title>Node5</title>
<g id="a_node5"><a xlink:href="Objet__U_8h.html" target="_top" xlink:title=" ">
<polygon fill="white" stroke="black" points="209,-224.5 209,-243.5 274,-243.5 274,-224.5 209,-224.5"/>
<text text-anchor="middle" x="241.5" y="-231.5" font-family="Helvetica,sans-Serif" font-size="10.00">Objet_U.h</text>
</a>
</g>
</g>
<!-- Node3&#45;&gt;Node5 -->
<g id="edge4" class="edge">
<title>Node3&#45;&gt;Node5</title>
<path fill="none" stroke="midnightblue" d="M228.05,-448.3C230.11,-415.63 237.41,-299.87 240.3,-253.96"/>
<polygon fill="midnightblue" stroke="midnightblue" points="243.8,-254.08 240.94,-243.88 236.82,-253.64 243.8,-254.08"/>
</g>
<!-- Node6 -->
<g id="node6" class="node">
<title>Node6</title>
<g id="a_node6"><a xlink:title=" ">
<polygon fill="white" stroke="#bfbfbf" points="124.5,-56.5 124.5,-75.5 180.5,-75.5 180.5,-56.5 124.5,-56.5"/>
<text text-anchor="middle" x="152.5" y="-63.5" font-family="Helvetica,sans-Serif" font-size="10.00">assert.h</text>
</a>
</g>
</g>
<!-- Node5&#45;&gt;Node6 -->
<g id="edge5" class="edge">
<title>Node5&#45;&gt;Node6</title>
<path fill="none" stroke="midnightblue" d="M236.16,-224.47C230.6,-215.48 221.69,-200.89 214.5,-188 194.36,-151.91 172.76,-108.59 161.13,-84.81"/>
<polygon fill="midnightblue" stroke="midnightblue" points="164.18,-83.08 156.65,-75.62 157.89,-86.14 164.18,-83.08"/>
</g>
<!-- Node7 -->
<g id="node7" class="node">
<title>Node7</title>
<g id="a_node7"><a xlink:href="DecBaseInst_8h.html" target="_top" xlink:title=" ">
<polygon fill="white" stroke="black" points="603.5,-168.5 603.5,-187.5 689.5,-187.5 689.5,-168.5 603.5,-168.5"/>
<text text-anchor="middle" x="646.5" y="-175.5" font-family="Helvetica,sans-Serif" font-size="10.00">DecBaseInst.h</text>
</a>
</g>
</g>
<!-- Node5&#45;&gt;Node7 -->
<g id="edge6" class="edge">
<title>Node5&#45;&gt;Node7</title>
<path fill="none" stroke="midnightblue" d="M274.3,-228.63C344.24,-219.3 508.56,-197.39 593.54,-186.06"/>
<polygon fill="midnightblue" stroke="midnightblue" points="594.04,-189.53 603.49,-184.73 593.12,-182.59 594.04,-189.53"/>
</g>
<!-- Node12 -->
<g id="node12" class="node">
<title>Node12</title>
<g id="a_node12"><a xlink:href="EntreeSortie_8h.html" target="_top" xlink:title=" ">
<polygon fill="white" stroke="black" points="223.5,-168.5 223.5,-187.5 309.5,-187.5 309.5,-168.5 223.5,-168.5"/>
<text text-anchor="middle" x="266.5" y="-175.5" font-family="Helvetica,sans-Serif" font-size="10.00">EntreeSortie.h</text>
</a>
</g>
</g>
<!-- Node5&#45;&gt;Node12 -->
<g id="edge12" class="edge">
<title>Node5&#45;&gt;Node12</title>
<path fill="none" stroke="midnightblue" d="M245.63,-224.08C249.01,-216.77 253.92,-206.18 258.12,-197.1"/>
<polygon fill="midnightblue" stroke="midnightblue" points="261.42,-198.3 262.45,-187.75 255.07,-195.36 261.42,-198.3"/>
</g>
<!-- Node17 -->
<g id="node17" class="node">
<title>Node17</title>
<g id="a_node17"><a xlink:href="Process_8h.html" target="_top" xlink:title=" ">
<polygon fill="white" stroke="black" points="43,-56.5 43,-75.5 106,-75.5 106,-56.5 43,-56.5"/>
<text text-anchor="middle" x="74.5" y="-63.5" font-family="Helvetica,sans-Serif" font-size="10.00">Process.h</text>
</a>
</g>
</g>
<!-- Node5&#45;&gt;Node17 -->
<g id="edge27" class="edge">
<title>Node5&#45;&gt;Node17</title>
<path fill="none" stroke="midnightblue" d="M232.52,-224.08C205.55,-197.27 124.99,-117.19 90.48,-82.89"/>
<polygon fill="midnightblue" stroke="midnightblue" points="92.68,-80.14 83.12,-75.57 87.74,-85.1 92.68,-80.14"/>
</g>
<!-- Node8 -->
<g id="node8" class="node">
<title>Node8</title>
<g id="a_node8"><a xlink:href="Cast_8h.html" target="_top" xlink:title=" ">
<polygon fill="white" stroke="black" points="755,-56.5 755,-75.5 802,-75.5 802,-56.5 755,-56.5"/>
<text text-anchor="middle" x="778.5" y="-63.5" font-family="Helvetica,sans-Serif" font-size="10.00">Cast.h</text>
</a>
</g>
</g>
<!-- Node7&#45;&gt;Node8 -->
<g id="edge7" class="edge">
<title>Node7&#45;&gt;Node8</title>
<path fill="none" stroke="midnightblue" d="M689.55,-176.98C724.33,-174.4 771.33,-164.54 795.5,-132 805.78,-118.15 798.51,-98.61 790.54,-84.58"/>
<polygon fill="midnightblue" stroke="midnightblue" points="793.38,-82.51 785.11,-75.88 787.44,-86.22 793.38,-82.51"/>
</g>
<!-- Node9 -->
<g id="node9" class="node">
<title>Node9</title>
<g id="a_node9"><a xlink:href="Type__info_8h.html" target="_top" xlink:title=" ">
<polygon fill="white" stroke="black" points="610.5,-112.5 610.5,-131.5 682.5,-131.5 682.5,-112.5 610.5,-112.5"/>
<text text-anchor="middle" x="646.5" y="-119.5" font-family="Helvetica,sans-Serif" font-size="10.00">Type_info.h</text>
</a>
</g>
</g>
<!-- Node7&#45;&gt;Node9 -->
<g id="edge8" class="edge">
<title>Node7&#45;&gt;Node9</title>
<path fill="none" stroke="midnightblue" d="M646.5,-168.08C646.5,-161.01 646.5,-150.86 646.5,-141.99"/>
<polygon fill="midnightblue" stroke="midnightblue" points="650,-141.75 646.5,-131.75 643,-141.75 650,-141.75"/>
</g>
<!-- Node10 -->
<g id="node10" class="node">
<title>Node10</title>
<g id="a_node10"><a xlink:href="Declare__Base_8h.html" target="_top" xlink:title=" ">
<polygon fill="white" stroke="black" points="500.5,-112.5 500.5,-131.5 592.5,-131.5 592.5,-112.5 500.5,-112.5"/>
<text text-anchor="middle" x="546.5" y="-119.5" font-family="Helvetica,sans-Serif" font-size="10.00">Declare_Base.h</text>
</a>
</g>
</g>
<!-- Node7&#45;&gt;Node10 -->
<g id="edge9" class="edge">
<title>Node7&#45;&gt;Node10</title>
<path fill="none" stroke="midnightblue" d="M630.43,-168.32C614.54,-159.74 589.99,-146.49 571.54,-136.52"/>
<polygon fill="midnightblue" stroke="midnightblue" points="572.99,-133.33 562.53,-131.65 569.66,-139.49 572.99,-133.33"/>
</g>
<!-- Node11 -->
<g id="node11" class="node">
<title>Node11</title>
<g id="a_node11"><a xlink:href="Declare__Inst_8h.html" target="_top" xlink:title=" ">
<polygon fill="white" stroke="black" points="700.5,-112.5 700.5,-131.5 786.5,-131.5 786.5,-112.5 700.5,-112.5"/>
<text text-anchor="middle" x="743.5" y="-119.5" font-family="Helvetica,sans-Serif" font-size="10.00">Declare_Inst.h</text>
</a>
</g>
</g>
<!-- Node7&#45;&gt;Node11 -->
<g id="edge10" class="edge">
<title>Node7&#45;&gt;Node11</title>
<path fill="none" stroke="midnightblue" d="M662.08,-168.32C677.5,-159.74 701.31,-146.49 719.21,-136.52"/>
<polygon fill="midnightblue" stroke="midnightblue" points="720.92,-139.58 727.95,-131.65 717.51,-133.46 720.92,-139.58"/>
</g>
<!-- Node11&#45;&gt;Node8 -->
<g id="edge11" class="edge">
<title>Node11&#45;&gt;Node8</title>
<path fill="none" stroke="midnightblue" d="M749.28,-112.08C754.17,-104.53 761.33,-93.49 767.33,-84.23"/>
<polygon fill="midnightblue" stroke="midnightblue" points="770.33,-86.05 772.83,-75.75 764.45,-82.24 770.33,-86.05"/>
</g>
<!-- Node13 -->
<g id="node13" class="node">
<title>Node13</title>
<g id="a_node13"><a xlink:href="Entree_8h.html" target="_top" xlink:title=" ">
<polygon fill="white" stroke="black" points="195,-112.5 195,-131.5 252,-131.5 252,-112.5 195,-112.5"/>
<text text-anchor="middle" x="223.5" y="-119.5" font-family="Helvetica,sans-Serif" font-size="10.00">Entree.h</text>
</a>
</g>
</g>
<!-- Node12&#45;&gt;Node13 -->
<g id="edge13" class="edge">
<title>Node12&#45;&gt;Node13</title>
<path fill="none" stroke="midnightblue" d="M259.4,-168.08C253.26,-160.38 244.23,-149.03 236.76,-139.65"/>
<polygon fill="midnightblue" stroke="midnightblue" points="239.44,-137.39 230.47,-131.75 233.96,-141.75 239.44,-137.39"/>
</g>
<!-- Node20 -->
<g id="node20" class="node">
<title>Node20</title>
<g id="a_node20"><a xlink:href="Sortie_8h.html" target="_top" xlink:title=" ">
<polygon fill="white" stroke="black" points="366.5,-112.5 366.5,-131.5 420.5,-131.5 420.5,-112.5 366.5,-112.5"/>
<text text-anchor="middle" x="393.5" y="-119.5" font-family="Helvetica,sans-Serif" font-size="10.00">Sortie.h</text>
</a>
</g>
</g>
<!-- Node12&#45;&gt;Node20 -->
<g id="edge21" class="edge">
<title>Node12&#45;&gt;Node20</title>
<path fill="none" stroke="midnightblue" d="M286.62,-168.44C307.52,-159.56 340.43,-145.56 364.22,-135.45"/>
<polygon fill="midnightblue" stroke="midnightblue" points="365.64,-138.65 373.47,-131.52 362.9,-132.21 365.64,-138.65"/>
</g>
<!-- Node22 -->
<g id="node22" class="node">
<title>Node22</title>
<g id="a_node22"><a xlink:href="Separateur_8h.html" target="_top" xlink:title=" ">
<polygon fill="white" stroke="black" points="270.5,-112.5 270.5,-131.5 348.5,-131.5 348.5,-112.5 270.5,-112.5"/>
<text text-anchor="middle" x="309.5" y="-119.5" font-family="Helvetica,sans-Serif" font-size="10.00">Separateur.h</text>
</a>
</g>
</g>
<!-- Node12&#45;&gt;Node22 -->
<g id="edge26" class="edge">
<title>Node12&#45;&gt;Node22</title>
<path fill="none" stroke="midnightblue" d="M273.6,-168.08C279.74,-160.38 288.77,-149.03 296.24,-139.65"/>
<polygon fill="midnightblue" stroke="midnightblue" points="299.04,-141.75 302.53,-131.75 293.56,-137.39 299.04,-141.75"/>
</g>
<!-- Node13&#45;&gt;Node6 -->
<g id="edge17" class="edge">
<title>Node13&#45;&gt;Node6</title>
<path fill="none" stroke="midnightblue" d="M212.09,-112.32C201.39,-104.18 185.16,-91.84 172.34,-82.09"/>
<polygon fill="midnightblue" stroke="midnightblue" points="174.19,-79.1 164.11,-75.83 169.96,-84.67 174.19,-79.1"/>
</g>
<!-- Node14 -->
<g id="node14" class="node">
<title>Node14</title>
<g id="a_node14"><a xlink:title=" ">
<polygon fill="white" stroke="#bfbfbf" points="198.5,-56.5 198.5,-75.5 248.5,-75.5 248.5,-56.5 198.5,-56.5"/>
<text text-anchor="middle" x="223.5" y="-63.5" font-family="Helvetica,sans-Serif" font-size="10.00">stdio.h</text>
</a>
</g>
</g>
<!-- Node13&#45;&gt;Node14 -->
<g id="edge14" class="edge">
<title>Node13&#45;&gt;Node14</title>
<path fill="none" stroke="midnightblue" d="M223.5,-112.08C223.5,-105.01 223.5,-94.86 223.5,-85.99"/>
<polygon fill="midnightblue" stroke="midnightblue" points="227,-85.75 223.5,-75.75 220,-85.75 227,-85.75"/>
</g>
<!-- Node15 -->
<g id="node15" class="node">
<title>Node15</title>
<g id="a_node15"><a xlink:title=" ">
<polygon fill="white" stroke="#bfbfbf" points="266.5,-56.5 266.5,-75.5 312.5,-75.5 312.5,-56.5 266.5,-56.5"/>
<text text-anchor="middle" x="289.5" y="-63.5" font-family="Helvetica,sans-Serif" font-size="10.00">cstdio</text>
</a>
</g>
</g>
<!-- Node13&#45;&gt;Node15 -->
<g id="edge15" class="edge">
<title>Node13&#45;&gt;Node15</title>
<path fill="none" stroke="midnightblue" d="M234.1,-112.32C243.96,-104.26 258.85,-92.08 270.72,-82.37"/>
<polygon fill="midnightblue" stroke="midnightblue" points="273.18,-84.88 278.7,-75.83 268.75,-79.46 273.18,-84.88"/>
</g>
<!-- Node16 -->
<g id="node16" class="node">
<title>Node16</title>
<g id="a_node16"><a xlink:title=" ">
<polygon fill="white" stroke="#bfbfbf" points="396.5,-56.5 396.5,-75.5 456.5,-75.5 456.5,-56.5 396.5,-56.5"/>
<text text-anchor="middle" x="426.5" y="-63.5" font-family="Helvetica,sans-Serif" font-size="10.00">iostream</text>
</a>
</g>
</g>
<!-- Node13&#45;&gt;Node16 -->
<g id="edge16" class="edge">
<title>Node13&#45;&gt;Node16</title>
<path fill="none" stroke="midnightblue" d="M252.15,-113.38C287.24,-104.04 346.88,-88.18 386.48,-77.65"/>
<polygon fill="midnightblue" stroke="midnightblue" points="387.57,-80.98 396.34,-75.02 385.77,-74.21 387.57,-80.98"/>
</g>
<!-- Node13&#45;&gt;Node17 -->
<g id="edge18" class="edge">
<title>Node13&#45;&gt;Node17</title>
<path fill="none" stroke="midnightblue" d="M199.89,-112.44C175.04,-103.44 135.73,-89.19 107.75,-79.05"/>
<polygon fill="midnightblue" stroke="midnightblue" points="108.59,-75.63 98,-75.52 106.21,-82.21 108.59,-75.63"/>
</g>
<!-- Node18 -->
<g id="node18" class="node">
<title>Node18</title>
<g id="a_node18"><a xlink:href="arch_8h.html" target="_top" xlink:title=" ">
<polygon fill="white" stroke="black" points="331,-56.5 331,-75.5 378,-75.5 378,-56.5 331,-56.5"/>
<text text-anchor="middle" x="354.5" y="-63.5" font-family="Helvetica,sans-Serif" font-size="10.00">arch.h</text>
</a>
</g>
</g>
<!-- Node13&#45;&gt;Node18 -->
<g id="edge19" class="edge">
<title>Node13&#45;&gt;Node18</title>
<path fill="none" stroke="midnightblue" d="M244.26,-112.44C265.82,-103.56 299.76,-89.56 324.29,-79.45"/>
<polygon fill="midnightblue" stroke="midnightblue" points="325.93,-82.56 333.84,-75.52 323.26,-76.09 325.93,-82.56"/>
</g>
<!-- Node19 -->
<g id="node19" class="node">
<title>Node19</title>
<g id="a_node19"><a xlink:href="generique_8h.html" target="_top" xlink:title=" ">
<polygon fill="white" stroke="black" points="317.5,-0.5 317.5,-19.5 391.5,-19.5 391.5,-0.5 317.5,-0.5"/>
<text text-anchor="middle" x="354.5" y="-7.5" font-family="Helvetica,sans-Serif" font-size="10.00">generique.h</text>
</a>
</g>
</g>
<!-- Node18&#45;&gt;Node19 -->
<g id="edge20" class="edge">
<title>Node18&#45;&gt;Node19</title>
<path fill="none" stroke="midnightblue" d="M354.5,-56.08C354.5,-49.01 354.5,-38.86 354.5,-29.99"/>
<polygon fill="midnightblue" stroke="midnightblue" points="358,-29.75 354.5,-19.75 351,-29.75 358,-29.75"/>
</g>
<!-- Node20&#45;&gt;Node6 -->
<g id="edge23" class="edge">
<title>Node20&#45;&gt;Node6</title>
<path fill="none" stroke="midnightblue" d="M366.4,-114.12C363.4,-113.39 360.39,-112.67 357.5,-112 286.17,-95.45 265.61,-93.19 190.68,-76.22"/>
<polygon fill="midnightblue" stroke="midnightblue" points="191.29,-72.77 180.76,-73.96 189.74,-79.59 191.29,-72.77"/>
</g>
<!-- Node20&#45;&gt;Node16 -->
<g id="edge22" class="edge">
<title>Node20&#45;&gt;Node16</title>
<path fill="none" stroke="midnightblue" d="M398.95,-112.08C403.51,-104.61 410.17,-93.72 415.79,-84.52"/>
<polygon fill="midnightblue" stroke="midnightblue" points="418.92,-86.11 421.15,-75.75 412.95,-82.46 418.92,-86.11"/>
</g>
<!-- Node20&#45;&gt;Node18 -->
<g id="edge24" class="edge">
<title>Node20&#45;&gt;Node18</title>
<path fill="none" stroke="midnightblue" d="M387.06,-112.08C381.55,-104.46 373.47,-93.26 366.74,-83.94"/>
<polygon fill="midnightblue" stroke="midnightblue" points="369.51,-81.81 360.82,-75.75 363.84,-85.91 369.51,-81.81"/>
</g>
<!-- Node21 -->
<g id="node21" class="node">
<title>Node21</title>
<g id="a_node21"><a xlink:title=" ">
<polygon fill="white" stroke="#bfbfbf" points="474.5,-56.5 474.5,-75.5 518.5,-75.5 518.5,-56.5 474.5,-56.5"/>
<text text-anchor="middle" x="496.5" y="-63.5" font-family="Helvetica,sans-Serif" font-size="10.00">string</text>
</a>
</g>
</g>
<!-- Node20&#45;&gt;Node21 -->
<g id="edge25" class="edge">
<title>Node20&#45;&gt;Node21</title>
<path fill="none" stroke="midnightblue" d="M410.05,-112.32C426.49,-103.7 451.93,-90.36 470.97,-80.39"/>
<polygon fill="midnightblue" stroke="midnightblue" points="472.76,-83.4 479.99,-75.65 469.51,-77.2 472.76,-83.4"/>
</g>
<!-- Node24 -->
<g id="node24" class="node">
<title>Node24</title>
<g id="a_node24"><a xlink:href="MacDeriv_8h.html" target="_top" xlink:title=" ">
<polygon fill="white" stroke="black" points="2,-392.5 2,-411.5 73,-411.5 73,-392.5 2,-392.5"/>
<text text-anchor="middle" x="37.5" y="-399.5" font-family="Helvetica,sans-Serif" font-size="10.00">MacDeriv.h</text>
</a>
</g>
</g>
<!-- Node23&#45;&gt;Node24 -->
<g id="edge30" class="edge">
<title>Node23&#45;&gt;Node24</title>
<path fill="none" stroke="midnightblue" d="M37.5,-448.08C37.5,-441.01 37.5,-430.86 37.5,-421.99"/>
<polygon fill="midnightblue" stroke="midnightblue" points="41,-421.75 37.5,-411.75 34,-421.75 41,-421.75"/>
</g>
<!-- Node25 -->
<g id="node25" class="node">
<title>Node25</title>
<g id="a_node25"><a xlink:href="Deriv___8h.html" target="_top" xlink:title=" ">
<polygon fill="white" stroke="black" points="45,-336.5 45,-355.5 102,-355.5 102,-336.5 45,-336.5"/>
<text text-anchor="middle" x="73.5" y="-343.5" font-family="Helvetica,sans-Serif" font-size="10.00">Deriv_.h</text>
</a>
</g>
</g>
<!-- Node24&#45;&gt;Node25 -->
<g id="edge31" class="edge">
<title>Node24&#45;&gt;Node25</title>
<path fill="none" stroke="midnightblue" d="M43.44,-392.08C48.48,-384.53 55.84,-373.49 62.01,-364.23"/>
<polygon fill="midnightblue" stroke="midnightblue" points="65.03,-366.01 67.67,-355.75 59.21,-362.13 65.03,-366.01"/>
</g>
<!-- Node26 -->
<g id="node26" class="node">
<title>Node26</title>
<g id="a_node26"><a xlink:href="O__U__Ptr_8h.html" target="_top" xlink:title=" ">
<polygon fill="white" stroke="black" points="113.5,-280.5 113.5,-299.5 177.5,-299.5 177.5,-280.5 113.5,-280.5"/>
<text text-anchor="middle" x="145.5" y="-287.5" font-family="Helvetica,sans-Serif" font-size="10.00">O_U_Ptr.h</text>
</a>
</g>
</g>
<!-- Node25&#45;&gt;Node26 -->
<g id="edge32" class="edge">
<title>Node25&#45;&gt;Node26</title>
<path fill="none" stroke="midnightblue" d="M85.07,-336.32C95.92,-328.18 112.38,-315.84 125.38,-306.09"/>
<polygon fill="midnightblue" stroke="midnightblue" points="127.82,-308.63 133.72,-299.83 123.62,-303.03 127.82,-308.63"/>
</g>
<!-- Node26&#45;&gt;Node5 -->
<g id="edge33" class="edge">
<title>Node26&#45;&gt;Node5</title>
<path fill="none" stroke="midnightblue" d="M160.92,-280.32C176.04,-271.82 199.32,-258.73 216.97,-248.8"/>
<polygon fill="midnightblue" stroke="midnightblue" points="219.11,-251.61 226.11,-243.65 215.68,-245.51 219.11,-251.61"/>
</g>
<!-- Node27&#45;&gt;Node3 -->
<g id="edge35" class="edge">
<title>Node27&#45;&gt;Node3</title>
<path fill="none" stroke="midnightblue" d="M383.19,-504.44C351.66,-495.24 301.37,-480.56 266.51,-470.39"/>
<polygon fill="midnightblue" stroke="midnightblue" points="267.26,-466.96 256.68,-467.52 265.3,-473.68 267.26,-466.96"/>
</g>
<!-- Node28&#45;&gt;Node3 -->
<g id="edge37" class="edge">
<title>Node28&#45;&gt;Node3</title>
<path fill="none" stroke="midnightblue" d="M146.08,-504.32C161.5,-495.74 185.31,-482.49 203.21,-472.52"/>
<polygon fill="midnightblue" stroke="midnightblue" points="204.92,-475.58 211.95,-467.65 201.51,-469.46 204.92,-475.58"/>
</g>
<!-- Node29&#45;&gt;Node3 -->
<g id="edge39" class="edge">
<title>Node29&#45;&gt;Node3</title>
<path fill="none" stroke="midnightblue" d="M227.5,-504.08C227.5,-497.01 227.5,-486.86 227.5,-477.99"/>
<polygon fill="midnightblue" stroke="midnightblue" points="231,-477.75 227.5,-467.75 224,-477.75 231,-477.75"/>
</g>
<!-- Node30&#45;&gt;Node3 -->
<g id="edge41" class="edge">
<title>Node30&#45;&gt;Node3</title>
<path fill="none" stroke="midnightblue" d="M309.75,-504.32C294.18,-495.74 270.12,-482.49 252.04,-472.52"/>
<polygon fill="midnightblue" stroke="midnightblue" points="253.65,-469.42 243.21,-467.65 250.28,-475.55 253.65,-469.42"/>
</g>
<!-- Node31&#45;&gt;Node5 -->
<g id="edge43" class="edge">
<title>Node31&#45;&gt;Node5</title>
<path fill="none" stroke="midnightblue" d="M421.77,-282.49C387.63,-273.49 325.58,-257.15 283.94,-246.18"/>
<polygon fill="midnightblue" stroke="midnightblue" points="284.65,-242.75 274.09,-243.58 282.86,-249.52 284.65,-242.75"/>
</g>
<!-- Node31&#45;&gt;Node21 -->
<g id="edge45" class="edge">
<title>Node31&#45;&gt;Node21</title>
<path fill="none" stroke="midnightblue" d="M448.46,-280.3C455.83,-247.56 482,-131.38 492.3,-85.67"/>
<polygon fill="midnightblue" stroke="midnightblue" points="495.72,-86.41 494.5,-75.88 488.89,-84.87 495.72,-86.41"/>
</g>
<!-- Node32 -->
<g id="node32" class="node">
<title>Node32</title>
<g id="a_node32"><a xlink:title=" ">
<polygon fill="white" stroke="#bfbfbf" points="394.5,-224.5 394.5,-243.5 444.5,-243.5 444.5,-224.5 394.5,-224.5"/>
<text text-anchor="middle" x="419.5" y="-231.5" font-family="Helvetica,sans-Serif" font-size="10.00">cstring</text>
</a>
</g>
</g>
<!-- Node31&#45;&gt;Node32 -->
<g id="edge44" class="edge">
<title>Node31&#45;&gt;Node32</title>
<path fill="none" stroke="midnightblue" d="M442.04,-280.08C438.35,-272.69 432.98,-261.95 428.41,-252.81"/>
<polygon fill="midnightblue" stroke="midnightblue" points="431.48,-251.13 423.88,-243.75 425.22,-254.26 431.48,-251.13"/>
</g>
</g>
</svg>
