<?xml version="1.0" encoding="UTF-8" standalone="no"?>
<!DOCTYPE svg PUBLIC "-//W3C//DTD SVG 1.1//EN"
 "http://www.w3.org/Graphics/SVG/1.1/DTD/svg11.dtd">
<!-- Generated by graphviz version 2.43.0 (0)
 -->
<!-- Title: src/Kernel/Utilitaires/Entree.cpp Pages: 1 -->
<svg width="824pt" height="375pt"
 viewBox="0.00 0.00 823.50 375.00" xmlns="http://www.w3.org/2000/svg" xmlns:xlink="http://www.w3.org/1999/xlink">
<g id="graph0" class="graph" transform="scale(1 1) rotate(0) translate(4 371)">
<title>src/Kernel/Utilitaires/Entree.cpp</title>
<polygon fill="white" stroke="transparent" points="-4,4 -4,-371 819.5,-371 819.5,4 -4,4"/>
<!-- Node1 -->
<g id="node1" class="node">
<title>Node1</title>
<g id="a_node1"><a xlink:title=" ">
<polygon fill="#bfbfbf" stroke="black" points="591,-336.5 591,-366.5 707,-366.5 707,-336.5 591,-336.5"/>
<text text-anchor="start" x="599" y="-354.5" font-family="Helvetica,sans-Serif" font-size="10.00">src/Kernel/Utilitaires</text>
<text text-anchor="middle" x="649" y="-343.5" font-family="Helvetica,sans-Serif" font-size="10.00">/Entree.cpp</text>
</a>
</g>
</g>
<!-- Node2 -->
<g id="node2" class="node">
<title>Node2</title>
<g id="a_node2"><a xlink:href="Entree_8h.html" target="_top" xlink:title=" ">
<polygon fill="white" stroke="black" points="342.5,-112.5 342.5,-131.5 399.5,-131.5 399.5,-112.5 342.5,-112.5"/>
<text text-anchor="middle" x="371" y="-119.5" font-family="Helvetica,sans-Serif" font-size="10.00">Entree.h</text>
</a>
</g>
</g>
<!-- Node1&#45;&gt;Node2 -->
<g id="edge1" class="edge">
<title>Node1&#45;&gt;Node2</title>
<path fill="none" stroke="midnightblue" d="M631.61,-336.27C582.06,-295.72 440.42,-179.81 389.51,-138.15"/>
<polygon fill="midnightblue" stroke="midnightblue" points="391.58,-135.32 381.62,-131.69 387.14,-140.73 391.58,-135.32"/>
</g>
<!-- Node10 -->
<g id="node10" class="node">
<title>Node10</title>
<g id="a_node10"><a xlink:href="Objet__U_8h.html" target="_top" xlink:title=" ">
<polygon fill="white" stroke="black" points="563.5,-224.5 563.5,-243.5 628.5,-243.5 628.5,-224.5 563.5,-224.5"/>
<text text-anchor="middle" x="596" y="-231.5" font-family="Helvetica,sans-Serif" font-size="10.00">Objet_U.h</text>
</a>
</g>
</g>
<!-- Node1&#45;&gt;Node10 -->
<g id="edge9" class="edge">
<title>Node1&#45;&gt;Node10</title>
<path fill="none" stroke="midnightblue" d="M637.61,-336.19C630.32,-326.45 621.1,-313.01 615,-300 607.98,-285.03 602.94,-266.89 599.82,-253.59"/>
<polygon fill="midnightblue" stroke="midnightblue" points="603.22,-252.73 597.65,-243.72 596.38,-254.24 603.22,-252.73"/>
</g>
<!-- Node20 -->
<g id="node20" class="node">
<title>Node20</title>
<g id="a_node20"><a xlink:href="Nom_8h.html" target="_top" xlink:title=" ">
<polygon fill="white" stroke="black" points="624.5,-280.5 624.5,-299.5 673.5,-299.5 673.5,-280.5 624.5,-280.5"/>
<text text-anchor="middle" x="649" y="-287.5" font-family="Helvetica,sans-Serif" font-size="10.00">Nom.h</text>
</a>
</g>
</g>
<!-- Node1&#45;&gt;Node20 -->
<g id="edge26" class="edge">
<title>Node1&#45;&gt;Node20</title>
<path fill="none" stroke="midnightblue" d="M649,-336.4C649,-328.47 649,-318.46 649,-309.86"/>
<polygon fill="midnightblue" stroke="midnightblue" points="652.5,-309.66 649,-299.66 645.5,-309.66 652.5,-309.66"/>
</g>
<!-- Node22 -->
<g id="node22" class="node">
<title>Node22</title>
<g id="a_node22"><a xlink:title=" ">
<polygon fill="white" stroke="#bfbfbf" points="691.5,-280.5 691.5,-299.5 742.5,-299.5 742.5,-280.5 691.5,-280.5"/>
<text text-anchor="middle" x="717" y="-287.5" font-family="Helvetica,sans-Serif" font-size="10.00">errno.h</text>
</a>
</g>
</g>
<!-- Node1&#45;&gt;Node22 -->
<g id="edge30" class="edge">
<title>Node1&#45;&gt;Node22</title>
<path fill="none" stroke="midnightblue" d="M665.12,-336.4C675.4,-327.4 688.75,-315.72 699.33,-306.47"/>
<polygon fill="midnightblue" stroke="midnightblue" points="701.88,-308.88 707.11,-299.66 697.27,-303.61 701.88,-308.88"/>
</g>
<!-- Node23 -->
<g id="node23" class="node">
<title>Node23</title>
<g id="a_node23"><a xlink:title=" ">
<polygon fill="white" stroke="#bfbfbf" points="760.5,-280.5 760.5,-299.5 815.5,-299.5 815.5,-280.5 760.5,-280.5"/>
<text text-anchor="middle" x="788" y="-287.5" font-family="Helvetica,sans-Serif" font-size="10.00">fstream</text>
</a>
</g>
</g>
<!-- Node1&#45;&gt;Node23 -->
<g id="edge31" class="edge">
<title>Node1&#45;&gt;Node23</title>
<path fill="none" stroke="midnightblue" d="M681.94,-336.4C705.16,-326.46 735.99,-313.26 758.42,-303.66"/>
<polygon fill="midnightblue" stroke="midnightblue" points="759.96,-306.81 767.77,-299.66 757.2,-300.38 759.96,-306.81"/>
</g>
<!-- Node3 -->
<g id="node3" class="node">
<title>Node3</title>
<g id="a_node3"><a xlink:title=" ">
<polygon fill="white" stroke="#bfbfbf" points="217,-56.5 217,-75.5 267,-75.5 267,-56.5 217,-56.5"/>
<text text-anchor="middle" x="242" y="-63.5" font-family="Helvetica,sans-Serif" font-size="10.00">stdio.h</text>
</a>
</g>
</g>
<!-- Node2&#45;&gt;Node3 -->
<g id="edge2" class="edge">
<title>Node2&#45;&gt;Node3</title>
<path fill="none" stroke="midnightblue" d="M350.56,-112.44C329.33,-103.56 295.9,-89.56 271.75,-79.45"/>
<polygon fill="midnightblue" stroke="midnightblue" points="272.92,-76.15 262.34,-75.52 270.22,-82.61 272.92,-76.15"/>
</g>
<!-- Node4 -->
<g id="node4" class="node">
<title>Node4</title>
<g id="a_node4"><a xlink:title=" ">
<polygon fill="white" stroke="#bfbfbf" points="285,-56.5 285,-75.5 331,-75.5 331,-56.5 285,-56.5"/>
<text text-anchor="middle" x="308" y="-63.5" font-family="Helvetica,sans-Serif" font-size="10.00">cstdio</text>
</a>
</g>
</g>
<!-- Node2&#45;&gt;Node4 -->
<g id="edge3" class="edge">
<title>Node2&#45;&gt;Node4</title>
<path fill="none" stroke="midnightblue" d="M360.88,-112.32C351.47,-104.26 337.26,-92.08 325.93,-82.37"/>
<polygon fill="midnightblue" stroke="midnightblue" points="328.18,-79.68 318.31,-75.83 323.62,-85 328.18,-79.68"/>
</g>
<!-- Node5 -->
<g id="node5" class="node">
<title>Node5</title>
<g id="a_node5"><a xlink:title=" ">
<polygon fill="white" stroke="#bfbfbf" points="415,-56.5 415,-75.5 475,-75.5 475,-56.5 415,-56.5"/>
<text text-anchor="middle" x="445" y="-63.5" font-family="Helvetica,sans-Serif" font-size="10.00">iostream</text>
</a>
</g>
</g>
<!-- Node2&#45;&gt;Node5 -->
<g id="edge4" class="edge">
<title>Node2&#45;&gt;Node5</title>
<path fill="none" stroke="midnightblue" d="M382.89,-112.32C394.15,-104.11 411.29,-91.6 424.71,-81.81"/>
<polygon fill="midnightblue" stroke="midnightblue" points="426.88,-84.56 432.89,-75.83 422.75,-78.9 426.88,-84.56"/>
</g>
<!-- Node6 -->
<g id="node6" class="node">
<title>Node6</title>
<g id="a_node6"><a xlink:title=" ">
<polygon fill="white" stroke="#bfbfbf" points="493,-56.5 493,-75.5 549,-75.5 549,-56.5 493,-56.5"/>
<text text-anchor="middle" x="521" y="-63.5" font-family="Helvetica,sans-Serif" font-size="10.00">assert.h</text>
</a>
</g>
</g>
<!-- Node2&#45;&gt;Node6 -->
<g id="edge5" class="edge">
<title>Node2&#45;&gt;Node6</title>
<path fill="none" stroke="midnightblue" d="M394.77,-112.44C419.89,-103.4 459.71,-89.06 487.9,-78.92"/>
<polygon fill="midnightblue" stroke="midnightblue" points="489.12,-82.2 497.34,-75.52 486.75,-75.61 489.12,-82.2"/>
</g>
<!-- Node7 -->
<g id="node7" class="node">
<title>Node7</title>
<g id="a_node7"><a xlink:href="Process_8h.html" target="_top" xlink:title=" ">
<polygon fill="white" stroke="black" points="567.5,-56.5 567.5,-75.5 630.5,-75.5 630.5,-56.5 567.5,-56.5"/>
<text text-anchor="middle" x="599" y="-63.5" font-family="Helvetica,sans-Serif" font-size="10.00">Process.h</text>
</a>
</g>
</g>
<!-- Node2&#45;&gt;Node7 -->
<g id="edge6" class="edge">
<title>Node2&#45;&gt;Node7</title>
<path fill="none" stroke="midnightblue" d="M399.88,-114.16C439.76,-104.72 511.93,-87.62 557.56,-76.81"/>
<polygon fill="midnightblue" stroke="midnightblue" points="558.51,-80.19 567.44,-74.48 556.9,-73.37 558.51,-80.19"/>
</g>
<!-- Node8 -->
<g id="node8" class="node">
<title>Node8</title>
<g id="a_node8"><a xlink:href="arch_8h.html" target="_top" xlink:title=" ">
<polygon fill="white" stroke="black" points="349.5,-56.5 349.5,-75.5 396.5,-75.5 396.5,-56.5 349.5,-56.5"/>
<text text-anchor="middle" x="373" y="-63.5" font-family="Helvetica,sans-Serif" font-size="10.00">arch.h</text>
</a>
</g>
</g>
<!-- Node2&#45;&gt;Node8 -->
<g id="edge7" class="edge">
<title>Node2&#45;&gt;Node8</title>
<path fill="none" stroke="midnightblue" d="M371.33,-112.08C371.59,-105.01 371.97,-94.86 372.3,-85.99"/>
<polygon fill="midnightblue" stroke="midnightblue" points="375.8,-85.87 372.68,-75.75 368.81,-85.61 375.8,-85.87"/>
</g>
<!-- Node9 -->
<g id="node9" class="node">
<title>Node9</title>
<g id="a_node9"><a xlink:href="generique_8h.html" target="_top" xlink:title=" ">
<polygon fill="white" stroke="black" points="336,-0.5 336,-19.5 410,-19.5 410,-0.5 336,-0.5"/>
<text text-anchor="middle" x="373" y="-7.5" font-family="Helvetica,sans-Serif" font-size="10.00">generique.h</text>
</a>
</g>
</g>
<!-- Node8&#45;&gt;Node9 -->
<g id="edge8" class="edge">
<title>Node8&#45;&gt;Node9</title>
<path fill="none" stroke="midnightblue" d="M373,-56.08C373,-49.01 373,-38.86 373,-29.99"/>
<polygon fill="midnightblue" stroke="midnightblue" points="376.5,-29.75 373,-19.75 369.5,-29.75 376.5,-29.75"/>
</g>
<!-- Node10&#45;&gt;Node6 -->
<g id="edge10" class="edge">
<title>Node10&#45;&gt;Node6</title>
<path fill="none" stroke="midnightblue" d="M596.68,-224.39C597.9,-203.55 598.63,-149.36 577,-112 569.65,-99.31 557.24,-88.78 545.97,-81.11"/>
<polygon fill="midnightblue" stroke="midnightblue" points="547.61,-78 537.29,-75.58 543.84,-83.91 547.61,-78"/>
</g>
<!-- Node10&#45;&gt;Node7 -->
<g id="edge25" class="edge">
<title>Node10&#45;&gt;Node7</title>
<path fill="none" stroke="midnightblue" d="M599.6,-224.22C603.06,-215.28 608.03,-200.94 610,-188 615.07,-154.61 614.04,-145.54 610,-112 608.93,-103.11 606.71,-93.43 604.54,-85.34"/>
<polygon fill="midnightblue" stroke="midnightblue" points="607.84,-84.17 601.73,-75.51 601.11,-86.09 607.84,-84.17"/>
</g>
<!-- Node11 -->
<g id="node11" class="node">
<title>Node11</title>
<g id="a_node11"><a xlink:href="DecBaseInst_8h.html" target="_top" xlink:title=" ">
<polygon fill="white" stroke="black" points="181,-168.5 181,-187.5 267,-187.5 267,-168.5 181,-168.5"/>
<text text-anchor="middle" x="224" y="-175.5" font-family="Helvetica,sans-Serif" font-size="10.00">DecBaseInst.h</text>
</a>
</g>
</g>
<!-- Node10&#45;&gt;Node11 -->
<g id="edge11" class="edge">
<title>Node10&#45;&gt;Node11</title>
<path fill="none" stroke="midnightblue" d="M563.31,-228.26C499.01,-218.92 355.52,-198.09 277.32,-186.74"/>
<polygon fill="midnightblue" stroke="midnightblue" points="277.59,-183.24 267.19,-185.27 276.58,-190.17 277.59,-183.24"/>
</g>
<!-- Node16 -->
<g id="node16" class="node">
<title>Node16</title>
<g id="a_node16"><a xlink:href="EntreeSortie_8h.html" target="_top" xlink:title=" ">
<polygon fill="white" stroke="black" points="461,-168.5 461,-187.5 547,-187.5 547,-168.5 461,-168.5"/>
<text text-anchor="middle" x="504" y="-175.5" font-family="Helvetica,sans-Serif" font-size="10.00">EntreeSortie.h</text>
</a>
</g>
</g>
<!-- Node10&#45;&gt;Node16 -->
<g id="edge17" class="edge">
<title>Node10&#45;&gt;Node16</title>
<path fill="none" stroke="midnightblue" d="M581.22,-224.32C566.73,-215.82 544.43,-202.73 527.51,-192.8"/>
<polygon fill="midnightblue" stroke="midnightblue" points="529.14,-189.7 518.74,-187.65 525.6,-195.74 529.14,-189.7"/>
</g>
<!-- Node12 -->
<g id="node12" class="node">
<title>Node12</title>
<g id="a_node12"><a xlink:href="Cast_8h.html" target="_top" xlink:title=" ">
<polygon fill="white" stroke="black" points="140.5,-56.5 140.5,-75.5 187.5,-75.5 187.5,-56.5 140.5,-56.5"/>
<text text-anchor="middle" x="164" y="-63.5" font-family="Helvetica,sans-Serif" font-size="10.00">Cast.h</text>
</a>
</g>
</g>
<!-- Node11&#45;&gt;Node12 -->
<g id="edge12" class="edge">
<title>Node11&#45;&gt;Node12</title>
<path fill="none" stroke="midnightblue" d="M222.71,-168.09C220.55,-155.09 215.36,-130.45 205,-112 198.88,-101.11 189.67,-90.68 181.53,-82.61"/>
<polygon fill="midnightblue" stroke="midnightblue" points="183.85,-79.99 174.19,-75.65 179.04,-85.07 183.85,-79.99"/>
</g>
<!-- Node13 -->
<g id="node13" class="node">
<title>Node13</title>
<g id="a_node13"><a xlink:href="Type__info_8h.html" target="_top" xlink:title=" ">
<polygon fill="white" stroke="black" points="252,-112.5 252,-131.5 324,-131.5 324,-112.5 252,-112.5"/>
<text text-anchor="middle" x="288" y="-119.5" font-family="Helvetica,sans-Serif" font-size="10.00">Type_info.h</text>
</a>
</g>
</g>
<!-- Node11&#45;&gt;Node13 -->
<g id="edge13" class="edge">
<title>Node11&#45;&gt;Node13</title>
<path fill="none" stroke="midnightblue" d="M234.28,-168.32C243.84,-160.26 258.28,-148.08 269.78,-138.37"/>
<polygon fill="midnightblue" stroke="midnightblue" points="272.14,-140.96 277.53,-131.83 267.63,-135.61 272.14,-140.96"/>
</g>
<!-- Node14 -->
<g id="node14" class="node">
<title>Node14</title>
<g id="a_node14"><a xlink:href="Declare__Base_8h.html" target="_top" xlink:title=" ">
<polygon fill="white" stroke="black" points="0,-112.5 0,-131.5 92,-131.5 92,-112.5 0,-112.5"/>
<text text-anchor="middle" x="46" y="-119.5" font-family="Helvetica,sans-Serif" font-size="10.00">Declare_Base.h</text>
</a>
</g>
</g>
<!-- Node11&#45;&gt;Node14 -->
<g id="edge14" class="edge">
<title>Node11&#45;&gt;Node14</title>
<path fill="none" stroke="midnightblue" d="M195.8,-168.44C165.59,-159.28 117.49,-144.69 83.97,-134.52"/>
<polygon fill="midnightblue" stroke="midnightblue" points="84.66,-131.07 74.07,-131.52 82.63,-137.77 84.66,-131.07"/>
</g>
<!-- Node15 -->
<g id="node15" class="node">
<title>Node15</title>
<g id="a_node15"><a xlink:href="Declare__Inst_8h.html" target="_top" xlink:title=" ">
<polygon fill="white" stroke="black" points="110,-112.5 110,-131.5 196,-131.5 196,-112.5 110,-112.5"/>
<text text-anchor="middle" x="153" y="-119.5" font-family="Helvetica,sans-Serif" font-size="10.00">Declare_Inst.h</text>
</a>
</g>
</g>
<!-- Node11&#45;&gt;Node15 -->
<g id="edge15" class="edge">
<title>Node11&#45;&gt;Node15</title>
<path fill="none" stroke="midnightblue" d="M212.59,-168.32C201.89,-160.18 185.66,-147.84 172.84,-138.09"/>
<polygon fill="midnightblue" stroke="midnightblue" points="174.69,-135.1 164.61,-131.83 170.46,-140.67 174.69,-135.1"/>
</g>
<!-- Node15&#45;&gt;Node12 -->
<g id="edge16" class="edge">
<title>Node15&#45;&gt;Node12</title>
<path fill="none" stroke="midnightblue" d="M154.82,-112.08C156.27,-104.93 158.37,-94.64 160.19,-85.69"/>
<polygon fill="midnightblue" stroke="midnightblue" points="163.65,-86.25 162.22,-75.75 156.79,-84.85 163.65,-86.25"/>
</g>
<!-- Node16&#45;&gt;Node2 -->
<g id="edge18" class="edge">
<title>Node16&#45;&gt;Node2</title>
<path fill="none" stroke="midnightblue" d="M482.93,-168.44C460.94,-159.52 426.27,-145.44 401.34,-135.32"/>
<polygon fill="midnightblue" stroke="midnightblue" points="402.56,-132.04 391.98,-131.52 399.92,-138.52 402.56,-132.04"/>
</g>
<!-- Node17 -->
<g id="node17" class="node">
<title>Node17</title>
<g id="a_node17"><a xlink:href="Sortie_8h.html" target="_top" xlink:title=" ">
<polygon fill="white" stroke="black" points="418,-112.5 418,-131.5 472,-131.5 472,-112.5 418,-112.5"/>
<text text-anchor="middle" x="445" y="-119.5" font-family="Helvetica,sans-Serif" font-size="10.00">Sortie.h</text>
</a>
</g>
</g>
<!-- Node16&#45;&gt;Node17 -->
<g id="edge19" class="edge">
<title>Node16&#45;&gt;Node17</title>
<path fill="none" stroke="midnightblue" d="M494.52,-168.32C485.8,-160.34 472.66,-148.31 462.1,-138.65"/>
<polygon fill="midnightblue" stroke="midnightblue" points="464.39,-136 454.65,-131.83 459.67,-141.17 464.39,-136"/>
</g>
<!-- Node19 -->
<g id="node19" class="node">
<title>Node19</title>
<g id="a_node19"><a xlink:href="Separateur_8h.html" target="_top" xlink:title=" ">
<polygon fill="white" stroke="black" points="490,-112.5 490,-131.5 568,-131.5 568,-112.5 490,-112.5"/>
<text text-anchor="middle" x="529" y="-119.5" font-family="Helvetica,sans-Serif" font-size="10.00">Separateur.h</text>
</a>
</g>
</g>
<!-- Node16&#45;&gt;Node19 -->
<g id="edge24" class="edge">
<title>Node16&#45;&gt;Node19</title>
<path fill="none" stroke="midnightblue" d="M508.13,-168.08C511.51,-160.77 516.42,-150.18 520.62,-141.1"/>
<polygon fill="midnightblue" stroke="midnightblue" points="523.92,-142.3 524.95,-131.75 517.57,-139.36 523.92,-142.3"/>
</g>
<!-- Node17&#45;&gt;Node5 -->
<g id="edge20" class="edge">
<title>Node17&#45;&gt;Node5</title>
<path fill="none" stroke="midnightblue" d="M445,-112.08C445,-105.01 445,-94.86 445,-85.99"/>
<polygon fill="midnightblue" stroke="midnightblue" points="448.5,-85.75 445,-75.75 441.5,-85.75 448.5,-85.75"/>
</g>
<!-- Node17&#45;&gt;Node6 -->
<g id="edge21" class="edge">
<title>Node17&#45;&gt;Node6</title>
<path fill="none" stroke="midnightblue" d="M457.21,-112.32C468.78,-104.11 486.38,-91.6 500.16,-81.81"/>
<polygon fill="midnightblue" stroke="midnightblue" points="502.44,-84.48 508.57,-75.83 498.39,-78.77 502.44,-84.48"/>
</g>
<!-- Node17&#45;&gt;Node8 -->
<g id="edge22" class="edge">
<title>Node17&#45;&gt;Node8</title>
<path fill="none" stroke="midnightblue" d="M433.43,-112.32C422.58,-104.18 406.12,-91.84 393.12,-82.09"/>
<polygon fill="midnightblue" stroke="midnightblue" points="394.88,-79.03 384.78,-75.83 390.68,-84.63 394.88,-79.03"/>
</g>
<!-- Node18 -->
<g id="node18" class="node">
<title>Node18</title>
<g id="a_node18"><a xlink:title=" ">
<polygon fill="white" stroke="#bfbfbf" points="649,-56.5 649,-75.5 693,-75.5 693,-56.5 649,-56.5"/>
<text text-anchor="middle" x="671" y="-63.5" font-family="Helvetica,sans-Serif" font-size="10.00">string</text>
</a>
</g>
</g>
<!-- Node17&#45;&gt;Node18 -->
<g id="edge23" class="edge">
<title>Node17&#45;&gt;Node18</title>
<path fill="none" stroke="midnightblue" d="M472.11,-114.16C475.11,-113.42 478.12,-112.69 481,-112 548.04,-95.98 567.55,-93.91 638.75,-75.96"/>
<polygon fill="midnightblue" stroke="midnightblue" points="639.83,-79.29 648.66,-73.44 638.1,-72.51 639.83,-79.29"/>
</g>
<!-- Node20&#45;&gt;Node10 -->
<g id="edge27" class="edge">
<title>Node20&#45;&gt;Node10</title>
<path fill="none" stroke="midnightblue" d="M640.25,-280.08C632.53,-272.22 621.1,-260.57 611.78,-251.08"/>
<polygon fill="midnightblue" stroke="midnightblue" points="614.09,-248.44 604.59,-243.75 609.1,-253.34 614.09,-248.44"/>
</g>
<!-- Node20&#45;&gt;Node18 -->
<g id="edge29" class="edge">
<title>Node20&#45;&gt;Node18</title>
<path fill="none" stroke="midnightblue" d="M649.86,-280.3C653.1,-247.63 664.57,-131.87 669.12,-85.96"/>
<polygon fill="midnightblue" stroke="midnightblue" points="672.62,-86.18 670.12,-75.88 665.65,-85.49 672.62,-86.18"/>
</g>
<!-- Node21 -->
<g id="node21" class="node">
<title>Node21</title>
<g id="a_node21"><a xlink:title=" ">
<polygon fill="white" stroke="#bfbfbf" points="700,-224.5 700,-243.5 750,-243.5 750,-224.5 700,-224.5"/>
<text text-anchor="middle" x="725" y="-231.5" font-family="Helvetica,sans-Serif" font-size="10.00">cstring</text>
</a>
</g>
</g>
<!-- Node20&#45;&gt;Node21 -->
<g id="edge28" class="edge">
<title>Node20&#45;&gt;Node21</title>
<path fill="none" stroke="midnightblue" d="M661.21,-280.32C672.78,-272.11 690.38,-259.6 704.16,-249.81"/>
<polygon fill="midnightblue" stroke="midnightblue" points="706.44,-252.48 712.57,-243.83 702.39,-246.77 706.44,-252.48"/>
</g>
</g>
</svg>
