<?xml version="1.0" encoding="UTF-8" standalone="no"?>
<!DOCTYPE svg PUBLIC "-//W3C//DTD SVG 1.1//EN"
 "http://www.w3.org/Graphics/SVG/1.1/DTD/svg11.dtd">
<!-- Generated by graphviz version 2.43.0 (0)
 -->
<!-- Title: src/Kernel/Utilitaires/Entree.h Pages: 1 -->
<svg width="434pt" height="151pt"
 viewBox="0.00 0.00 434.00 151.00" xmlns="http://www.w3.org/2000/svg" xmlns:xlink="http://www.w3.org/1999/xlink">
<g id="graph0" class="graph" transform="scale(1 1) rotate(0) translate(4 147)">
<title>src/Kernel/Utilitaires/Entree.h</title>
<polygon fill="white" stroke="transparent" points="-4,4 -4,-147 430,-147 430,4 -4,4"/>
<!-- Node1 -->
<g id="node1" class="node">
<title>Node1</title>
<g id="a_node1"><a xlink:title=" ">
<polygon fill="#bfbfbf" stroke="black" points="142,-112.5 142,-142.5 258,-142.5 258,-112.5 142,-112.5"/>
<text text-anchor="start" x="150" y="-130.5" font-family="Helvetica,sans-Serif" font-size="10.00">src/Kernel/Utilitaires</text>
<text text-anchor="middle" x="200" y="-119.5" font-family="Helvetica,sans-Serif" font-size="10.00">/Entree.h</text>
</a>
</g>
</g>
<!-- Node2 -->
<g id="node2" class="node">
<title>Node2</title>
<g id="a_node2"><a xlink:title=" ">
<polygon fill="white" stroke="#bfbfbf" points="0,-56.5 0,-75.5 50,-75.5 50,-56.5 0,-56.5"/>
<text text-anchor="middle" x="25" y="-63.5" font-family="Helvetica,sans-Serif" font-size="10.00">stdio.h</text>
</a>
</g>
</g>
<!-- Node1&#45;&gt;Node2 -->
<g id="edge1" class="edge">
<title>Node1&#45;&gt;Node2</title>
<path fill="none" stroke="midnightblue" d="M158.53,-112.4C128.42,-102.16 88.15,-88.47 59.73,-78.81"/>
<polygon fill="midnightblue" stroke="midnightblue" points="60.8,-75.48 50.21,-75.57 58.55,-82.1 60.8,-75.48"/>
</g>
<!-- Node3 -->
<g id="node3" class="node">
<title>Node3</title>
<g id="a_node3"><a xlink:title=" ">
<polygon fill="white" stroke="#bfbfbf" points="68,-56.5 68,-75.5 114,-75.5 114,-56.5 68,-56.5"/>
<text text-anchor="middle" x="91" y="-63.5" font-family="Helvetica,sans-Serif" font-size="10.00">cstdio</text>
</a>
</g>
</g>
<!-- Node1&#45;&gt;Node3 -->
<g id="edge2" class="edge">
<title>Node1&#45;&gt;Node3</title>
<path fill="none" stroke="midnightblue" d="M174.17,-112.4C156.53,-102.77 133.3,-90.09 115.87,-80.58"/>
<polygon fill="midnightblue" stroke="midnightblue" points="117.31,-77.38 106.86,-75.66 113.96,-83.52 117.31,-77.38"/>
</g>
<!-- Node4 -->
<g id="node4" class="node">
<title>Node4</title>
<g id="a_node4"><a xlink:title=" ">
<polygon fill="white" stroke="#bfbfbf" points="132,-56.5 132,-75.5 192,-75.5 192,-56.5 132,-56.5"/>
<text text-anchor="middle" x="162" y="-63.5" font-family="Helvetica,sans-Serif" font-size="10.00">iostream</text>
</a>
</g>
</g>
<!-- Node1&#45;&gt;Node4 -->
<g id="edge3" class="edge">
<title>Node1&#45;&gt;Node4</title>
<path fill="none" stroke="midnightblue" d="M190.99,-112.4C185.59,-103.93 178.67,-93.1 172.95,-84.14"/>
<polygon fill="midnightblue" stroke="midnightblue" points="175.86,-82.2 167.53,-75.66 169.96,-85.97 175.86,-82.2"/>
</g>
<!-- Node5 -->
<g id="node5" class="node">
<title>Node5</title>
<g id="a_node5"><a xlink:title=" ">
<polygon fill="white" stroke="#bfbfbf" points="210,-56.5 210,-75.5 266,-75.5 266,-56.5 210,-56.5"/>
<text text-anchor="middle" x="238" y="-63.5" font-family="Helvetica,sans-Serif" font-size="10.00">assert.h</text>
</a>
</g>
</g>
<!-- Node1&#45;&gt;Node5 -->
<g id="edge4" class="edge">
<title>Node1&#45;&gt;Node5</title>
<path fill="none" stroke="midnightblue" d="M209.01,-112.4C214.41,-103.93 221.33,-93.1 227.05,-84.14"/>
<polygon fill="midnightblue" stroke="midnightblue" points="230.04,-85.97 232.47,-75.66 224.14,-82.2 230.04,-85.97"/>
</g>
<!-- Node6 -->
<g id="node6" class="node">
<title>Node6</title>
<g id="a_node6"><a xlink:href="Process_8h.html" target="_top" xlink:title=" ">
<polygon fill="white" stroke="black" points="284.5,-56.5 284.5,-75.5 347.5,-75.5 347.5,-56.5 284.5,-56.5"/>
<text text-anchor="middle" x="316" y="-63.5" font-family="Helvetica,sans-Serif" font-size="10.00">Process.h</text>
</a>
</g>
</g>
<!-- Node1&#45;&gt;Node6 -->
<g id="edge5" class="edge">
<title>Node1&#45;&gt;Node6</title>
<path fill="none" stroke="midnightblue" d="M227.49,-112.4C246.43,-102.68 271.44,-89.86 290.04,-80.31"/>
<polygon fill="midnightblue" stroke="midnightblue" points="291.82,-83.34 299.12,-75.66 288.63,-77.11 291.82,-83.34"/>
</g>
<!-- Node7 -->
<g id="node7" class="node">
<title>Node7</title>
<g id="a_node7"><a xlink:href="arch_8h.html" target="_top" xlink:title=" ">
<polygon fill="white" stroke="black" points="365.5,-56.5 365.5,-75.5 412.5,-75.5 412.5,-56.5 365.5,-56.5"/>
<text text-anchor="middle" x="389" y="-63.5" font-family="Helvetica,sans-Serif" font-size="10.00">arch.h</text>
</a>
</g>
</g>
<!-- Node1&#45;&gt;Node7 -->
<g id="edge6" class="edge">
<title>Node1&#45;&gt;Node7</title>
<path fill="none" stroke="midnightblue" d="M244.79,-112.4C278.72,-101.72 324.61,-87.27 355.43,-77.57"/>
<polygon fill="midnightblue" stroke="midnightblue" points="356.78,-80.81 365.26,-74.47 354.67,-74.14 356.78,-80.81"/>
</g>
<!-- Node8 -->
<g id="node8" class="node">
<title>Node8</title>
<g id="a_node8"><a xlink:href="generique_8h.html" target="_top" xlink:title=" ">
<polygon fill="white" stroke="black" points="352,-0.5 352,-19.5 426,-19.5 426,-0.5 352,-0.5"/>
<text text-anchor="middle" x="389" y="-7.5" font-family="Helvetica,sans-Serif" font-size="10.00">generique.h</text>
</a>
</g>
</g>
<!-- Node7&#45;&gt;Node8 -->
<g id="edge7" class="edge">
<title>Node7&#45;&gt;Node8</title>
<path fill="none" stroke="midnightblue" d="M389,-56.08C389,-49.01 389,-38.86 389,-29.99"/>
<polygon fill="midnightblue" stroke="midnightblue" points="392.5,-29.75 389,-19.75 385.5,-29.75 392.5,-29.75"/>
</g>
</g>
</svg>
