<?xml version="1.0" encoding="UTF-8" standalone="no"?>
<!DOCTYPE svg PUBLIC "-//W3C//DTD SVG 1.1//EN"
 "http://www.w3.org/Graphics/SVG/1.1/DTD/svg11.dtd">
<!-- Generated by graphviz version 2.43.0 (0)
 -->
<!-- Title: src/Kernel/Utilitaires/Entree_Brute.cpp Pages: 1 -->
<svg width="484pt" height="263pt"
 viewBox="0.00 0.00 483.50 263.00" xmlns="http://www.w3.org/2000/svg" xmlns:xlink="http://www.w3.org/1999/xlink">
<g id="graph0" class="graph" transform="scale(1 1) rotate(0) translate(4 259)">
<title>src/Kernel/Utilitaires/Entree_Brute.cpp</title>
<polygon fill="white" stroke="transparent" points="-4,4 -4,-259 479.5,-259 479.5,4 -4,4"/>
<!-- Node1 -->
<g id="node1" class="node">
<title>Node1</title>
<g id="a_node1"><a xlink:title=" ">
<polygon fill="#bfbfbf" stroke="black" points="301,-224.5 301,-254.5 417,-254.5 417,-224.5 301,-224.5"/>
<text text-anchor="start" x="309" y="-242.5" font-family="Helvetica,sans-Serif" font-size="10.00">src/Kernel/Utilitaires</text>
<text text-anchor="middle" x="359" y="-231.5" font-family="Helvetica,sans-Serif" font-size="10.00">/Entree_Brute.cpp</text>
</a>
</g>
</g>
<!-- Node2 -->
<g id="node2" class="node">
<title>Node2</title>
<g id="a_node2"><a xlink:href="Entree__Brute_8h.html" target="_top" xlink:title=" ">
<polygon fill="white" stroke="black" points="278.5,-168.5 278.5,-187.5 367.5,-187.5 367.5,-168.5 278.5,-168.5"/>
<text text-anchor="middle" x="323" y="-175.5" font-family="Helvetica,sans-Serif" font-size="10.00">Entree_Brute.h</text>
</a>
</g>
</g>
<!-- Node1&#45;&gt;Node2 -->
<g id="edge1" class="edge">
<title>Node1&#45;&gt;Node2</title>
<path fill="none" stroke="midnightblue" d="M350.47,-224.4C345.4,-216.02 338.93,-205.33 333.54,-196.42"/>
<polygon fill="midnightblue" stroke="midnightblue" points="336.41,-194.4 328.24,-187.66 330.42,-198.03 336.41,-194.4"/>
</g>
<!-- Node8 -->
<g id="node8" class="node">
<title>Node8</title>
<g id="a_node8"><a xlink:href="Process_8h.html" target="_top" xlink:title=" ">
<polygon fill="white" stroke="black" points="412.5,-56.5 412.5,-75.5 475.5,-75.5 475.5,-56.5 412.5,-56.5"/>
<text text-anchor="middle" x="444" y="-63.5" font-family="Helvetica,sans-Serif" font-size="10.00">Process.h</text>
</a>
</g>
</g>
<!-- Node1&#45;&gt;Node8 -->
<g id="edge11" class="edge">
<title>Node1&#45;&gt;Node8</title>
<path fill="none" stroke="midnightblue" d="M368.98,-224.19C375.78,-214.23 384.8,-200.53 392,-188 405.86,-163.87 408.94,-157.54 420,-132 426.72,-116.48 433.3,-98.39 437.87,-85.25"/>
<polygon fill="midnightblue" stroke="midnightblue" points="441.26,-86.13 441.19,-75.53 434.64,-83.86 441.26,-86.13"/>
</g>
<!-- Node11 -->
<g id="node11" class="node">
<title>Node11</title>
<g id="a_node11"><a xlink:title=" ">
<polygon fill="white" stroke="#bfbfbf" points="355,-112.5 355,-131.5 411,-131.5 411,-112.5 355,-112.5"/>
<text text-anchor="middle" x="383" y="-119.5" font-family="Helvetica,sans-Serif" font-size="10.00">sstream</text>
</a>
</g>
</g>
<!-- Node1&#45;&gt;Node11 -->
<g id="edge20" class="edge">
<title>Node1&#45;&gt;Node11</title>
<path fill="none" stroke="midnightblue" d="M364.76,-224.15C368.54,-214.17 373.26,-200.47 376,-188 379.39,-172.57 381.16,-154.7 382.07,-141.6"/>
<polygon fill="midnightblue" stroke="midnightblue" points="385.57,-141.7 382.67,-131.51 378.59,-141.28 385.57,-141.7"/>
</g>
<!-- Node12 -->
<g id="node12" class="node">
<title>Node12</title>
<g id="a_node12"><a xlink:href="EntreeSortie_8h.html" target="_top" xlink:title=" ">
<polygon fill="white" stroke="black" points="174,-168.5 174,-187.5 260,-187.5 260,-168.5 174,-168.5"/>
<text text-anchor="middle" x="217" y="-175.5" font-family="Helvetica,sans-Serif" font-size="10.00">EntreeSortie.h</text>
</a>
</g>
</g>
<!-- Node1&#45;&gt;Node12 -->
<g id="edge12" class="edge">
<title>Node1&#45;&gt;Node12</title>
<path fill="none" stroke="midnightblue" d="M325.35,-224.4C301.52,-214.42 269.85,-201.15 246.91,-191.53"/>
<polygon fill="midnightblue" stroke="midnightblue" points="248.24,-188.29 237.66,-187.66 245.53,-194.75 248.24,-188.29"/>
</g>
<!-- Node3 -->
<g id="node3" class="node">
<title>Node3</title>
<g id="a_node3"><a xlink:href="Entree_8h.html" target="_top" xlink:title=" ">
<polygon fill="white" stroke="black" points="274.5,-112.5 274.5,-131.5 331.5,-131.5 331.5,-112.5 274.5,-112.5"/>
<text text-anchor="middle" x="303" y="-119.5" font-family="Helvetica,sans-Serif" font-size="10.00">Entree.h</text>
</a>
</g>
</g>
<!-- Node2&#45;&gt;Node3 -->
<g id="edge2" class="edge">
<title>Node2&#45;&gt;Node3</title>
<path fill="none" stroke="midnightblue" d="M319.7,-168.08C317.02,-160.85 313.15,-150.41 309.81,-141.4"/>
<polygon fill="midnightblue" stroke="midnightblue" points="313,-139.91 306.24,-131.75 306.43,-142.34 313,-139.91"/>
</g>
<!-- Node2&#45;&gt;Node11 -->
<g id="edge10" class="edge">
<title>Node2&#45;&gt;Node11</title>
<path fill="none" stroke="midnightblue" d="M332.64,-168.32C341.51,-160.34 354.87,-148.31 365.61,-138.65"/>
<polygon fill="midnightblue" stroke="midnightblue" points="368.09,-141.13 373.18,-131.83 363.41,-135.92 368.09,-141.13"/>
</g>
<!-- Node4 -->
<g id="node4" class="node">
<title>Node4</title>
<g id="a_node4"><a xlink:title=" ">
<polygon fill="white" stroke="#bfbfbf" points="344,-56.5 344,-75.5 394,-75.5 394,-56.5 344,-56.5"/>
<text text-anchor="middle" x="369" y="-63.5" font-family="Helvetica,sans-Serif" font-size="10.00">stdio.h</text>
</a>
</g>
</g>
<!-- Node3&#45;&gt;Node4 -->
<g id="edge3" class="edge">
<title>Node3&#45;&gt;Node4</title>
<path fill="none" stroke="midnightblue" d="M313.6,-112.32C323.46,-104.26 338.35,-92.08 350.22,-82.37"/>
<polygon fill="midnightblue" stroke="midnightblue" points="352.68,-84.88 358.2,-75.83 348.25,-79.46 352.68,-84.88"/>
</g>
<!-- Node5 -->
<g id="node5" class="node">
<title>Node5</title>
<g id="a_node5"><a xlink:title=" ">
<polygon fill="white" stroke="#bfbfbf" points="280,-56.5 280,-75.5 326,-75.5 326,-56.5 280,-56.5"/>
<text text-anchor="middle" x="303" y="-63.5" font-family="Helvetica,sans-Serif" font-size="10.00">cstdio</text>
</a>
</g>
</g>
<!-- Node3&#45;&gt;Node5 -->
<g id="edge4" class="edge">
<title>Node3&#45;&gt;Node5</title>
<path fill="none" stroke="midnightblue" d="M303,-112.08C303,-105.01 303,-94.86 303,-85.99"/>
<polygon fill="midnightblue" stroke="midnightblue" points="306.5,-85.75 303,-75.75 299.5,-85.75 306.5,-85.75"/>
</g>
<!-- Node6 -->
<g id="node6" class="node">
<title>Node6</title>
<g id="a_node6"><a xlink:title=" ">
<polygon fill="white" stroke="#bfbfbf" points="202,-56.5 202,-75.5 262,-75.5 262,-56.5 202,-56.5"/>
<text text-anchor="middle" x="232" y="-63.5" font-family="Helvetica,sans-Serif" font-size="10.00">iostream</text>
</a>
</g>
</g>
<!-- Node3&#45;&gt;Node6 -->
<g id="edge5" class="edge">
<title>Node3&#45;&gt;Node6</title>
<path fill="none" stroke="midnightblue" d="M291.59,-112.32C280.89,-104.18 264.66,-91.84 251.84,-82.09"/>
<polygon fill="midnightblue" stroke="midnightblue" points="253.69,-79.1 243.61,-75.83 249.46,-84.67 253.69,-79.1"/>
</g>
<!-- Node7 -->
<g id="node7" class="node">
<title>Node7</title>
<g id="a_node7"><a xlink:title=" ">
<polygon fill="white" stroke="#bfbfbf" points="62,-56.5 62,-75.5 118,-75.5 118,-56.5 62,-56.5"/>
<text text-anchor="middle" x="90" y="-63.5" font-family="Helvetica,sans-Serif" font-size="10.00">assert.h</text>
</a>
</g>
</g>
<!-- Node3&#45;&gt;Node7 -->
<g id="edge6" class="edge">
<title>Node3&#45;&gt;Node7</title>
<path fill="none" stroke="midnightblue" d="M274.27,-113.72C236.51,-104.14 170.05,-87.3 128.11,-76.66"/>
<polygon fill="midnightblue" stroke="midnightblue" points="128.82,-73.23 118.27,-74.17 127.1,-80.02 128.82,-73.23"/>
</g>
<!-- Node3&#45;&gt;Node8 -->
<g id="edge7" class="edge">
<title>Node3&#45;&gt;Node8</title>
<path fill="none" stroke="midnightblue" d="M325.34,-112.44C348.75,-103.48 385.74,-89.31 412.19,-79.18"/>
<polygon fill="midnightblue" stroke="midnightblue" points="413.68,-82.36 421.76,-75.52 411.17,-75.82 413.68,-82.36"/>
</g>
<!-- Node9 -->
<g id="node9" class="node">
<title>Node9</title>
<g id="a_node9"><a xlink:href="arch_8h.html" target="_top" xlink:title=" ">
<polygon fill="white" stroke="black" points="136.5,-56.5 136.5,-75.5 183.5,-75.5 183.5,-56.5 136.5,-56.5"/>
<text text-anchor="middle" x="160" y="-63.5" font-family="Helvetica,sans-Serif" font-size="10.00">arch.h</text>
</a>
</g>
</g>
<!-- Node3&#45;&gt;Node9 -->
<g id="edge8" class="edge">
<title>Node3&#45;&gt;Node9</title>
<path fill="none" stroke="midnightblue" d="M280.34,-112.44C256.6,-103.48 219.09,-89.31 192.26,-79.18"/>
<polygon fill="midnightblue" stroke="midnightblue" points="193.14,-75.77 182.55,-75.52 190.67,-82.32 193.14,-75.77"/>
</g>
<!-- Node10 -->
<g id="node10" class="node">
<title>Node10</title>
<g id="a_node10"><a xlink:href="generique_8h.html" target="_top" xlink:title=" ">
<polygon fill="white" stroke="black" points="123,-0.5 123,-19.5 197,-19.5 197,-0.5 123,-0.5"/>
<text text-anchor="middle" x="160" y="-7.5" font-family="Helvetica,sans-Serif" font-size="10.00">generique.h</text>
</a>
</g>
</g>
<!-- Node9&#45;&gt;Node10 -->
<g id="edge9" class="edge">
<title>Node9&#45;&gt;Node10</title>
<path fill="none" stroke="midnightblue" d="M160,-56.08C160,-49.01 160,-38.86 160,-29.99"/>
<polygon fill="midnightblue" stroke="midnightblue" points="163.5,-29.75 160,-19.75 156.5,-29.75 163.5,-29.75"/>
</g>
<!-- Node12&#45;&gt;Node3 -->
<g id="edge13" class="edge">
<title>Node12&#45;&gt;Node3</title>
<path fill="none" stroke="midnightblue" d="M230.82,-168.32C244.23,-159.9 264.82,-146.97 280.59,-137.07"/>
<polygon fill="midnightblue" stroke="midnightblue" points="282.61,-139.94 289.22,-131.65 278.89,-134.01 282.61,-139.94"/>
</g>
<!-- Node13 -->
<g id="node13" class="node">
<title>Node13</title>
<g id="a_node13"><a xlink:href="Sortie_8h.html" target="_top" xlink:title=" ">
<polygon fill="white" stroke="black" points="106,-112.5 106,-131.5 160,-131.5 160,-112.5 106,-112.5"/>
<text text-anchor="middle" x="133" y="-119.5" font-family="Helvetica,sans-Serif" font-size="10.00">Sortie.h</text>
</a>
</g>
</g>
<!-- Node12&#45;&gt;Node13 -->
<g id="edge14" class="edge">
<title>Node12&#45;&gt;Node13</title>
<path fill="none" stroke="midnightblue" d="M203.5,-168.32C190.4,-159.9 170.29,-146.97 154.89,-137.07"/>
<polygon fill="midnightblue" stroke="midnightblue" points="156.77,-134.12 146.46,-131.65 152.98,-140.01 156.77,-134.12"/>
</g>
<!-- Node15 -->
<g id="node15" class="node">
<title>Node15</title>
<g id="a_node15"><a xlink:href="Separateur_8h.html" target="_top" xlink:title=" ">
<polygon fill="white" stroke="black" points="178,-112.5 178,-131.5 256,-131.5 256,-112.5 178,-112.5"/>
<text text-anchor="middle" x="217" y="-119.5" font-family="Helvetica,sans-Serif" font-size="10.00">Separateur.h</text>
</a>
</g>
</g>
<!-- Node12&#45;&gt;Node15 -->
<g id="edge19" class="edge">
<title>Node12&#45;&gt;Node15</title>
<path fill="none" stroke="midnightblue" d="M217,-168.08C217,-161.01 217,-150.86 217,-141.99"/>
<polygon fill="midnightblue" stroke="midnightblue" points="220.5,-141.75 217,-131.75 213.5,-141.75 220.5,-141.75"/>
</g>
<!-- Node13&#45;&gt;Node6 -->
<g id="edge15" class="edge">
<title>Node13&#45;&gt;Node6</title>
<path fill="none" stroke="midnightblue" d="M148.91,-112.32C164.64,-103.74 188.94,-90.49 207.21,-80.52"/>
<polygon fill="midnightblue" stroke="midnightblue" points="209.03,-83.52 216.13,-75.65 205.68,-77.37 209.03,-83.52"/>
</g>
<!-- Node13&#45;&gt;Node7 -->
<g id="edge16" class="edge">
<title>Node13&#45;&gt;Node7</title>
<path fill="none" stroke="midnightblue" d="M125.9,-112.08C119.76,-104.38 110.73,-93.03 103.26,-83.65"/>
<polygon fill="midnightblue" stroke="midnightblue" points="105.94,-81.39 96.97,-75.75 100.46,-85.75 105.94,-81.39"/>
</g>
<!-- Node13&#45;&gt;Node9 -->
<g id="edge17" class="edge">
<title>Node13&#45;&gt;Node9</title>
<path fill="none" stroke="midnightblue" d="M137.46,-112.08C141.15,-104.69 146.52,-93.95 151.09,-84.81"/>
<polygon fill="midnightblue" stroke="midnightblue" points="154.28,-86.26 155.62,-75.75 148.02,-83.13 154.28,-86.26"/>
</g>
<!-- Node14 -->
<g id="node14" class="node">
<title>Node14</title>
<g id="a_node14"><a xlink:title=" ">
<polygon fill="white" stroke="#bfbfbf" points="0,-56.5 0,-75.5 44,-75.5 44,-56.5 0,-56.5"/>
<text text-anchor="middle" x="22" y="-63.5" font-family="Helvetica,sans-Serif" font-size="10.00">string</text>
</a>
</g>
</g>
<!-- Node13&#45;&gt;Node14 -->
<g id="edge18" class="edge">
<title>Node13&#45;&gt;Node14</title>
<path fill="none" stroke="midnightblue" d="M115.17,-112.32C97.28,-103.62 69.52,-90.12 48.95,-80.11"/>
<polygon fill="midnightblue" stroke="midnightblue" points="50.31,-76.88 39.79,-75.65 47.25,-83.18 50.31,-76.88"/>
</g>
</g>
</svg>
