<?xml version="1.0" encoding="UTF-8" standalone="no"?>
<!DOCTYPE svg PUBLIC "-//W3C//DTD SVG 1.1//EN"
 "http://www.w3.org/Graphics/SVG/1.1/DTD/svg11.dtd">
<!-- Generated by graphviz version 2.43.0 (0)
 -->
<!-- Title: src/Kernel/Utilitaires/Entree_complete.h Pages: 1 -->
<svg width="1196pt" height="117pt"
 viewBox="0.00 0.00 1196.00 117.00" xmlns="http://www.w3.org/2000/svg" xmlns:xlink="http://www.w3.org/1999/xlink">
<g id="graph0" class="graph" transform="scale(1 1) rotate(0) translate(4 113)">
<title>src/Kernel/Utilitaires/Entree_complete.h</title>
<polygon fill="white" stroke="transparent" points="-4,4 -4,-113 1192,-113 1192,4 -4,4"/>
<!-- Node1 -->
<g id="node1" class="node">
<title>Node1</title>
<g id="a_node1"><a xlink:title=" ">
<polygon fill="#bfbfbf" stroke="black" points="565.5,-78.5 565.5,-108.5 681.5,-108.5 681.5,-78.5 565.5,-78.5"/>
<text text-anchor="start" x="573.5" y="-96.5" font-family="Helvetica,sans-Serif" font-size="10.00">src/Kernel/Utilitaires</text>
<text text-anchor="middle" x="623.5" y="-85.5" font-family="Helvetica,sans-Serif" font-size="10.00">/Entree_complete.h</text>
</a>
</g>
</g>
<!-- Node2 -->
<g id="node2" class="node">
<title>Node2</title>
<g id="a_node2"><a xlink:href="Champ__Generique__Predefini_8cpp.html" target="_top" xlink:title=" ">
<polygon fill="white" stroke="black" points="0,-6 0,-36 145,-36 145,-6 0,-6"/>
<text text-anchor="start" x="8" y="-24" font-family="Helvetica,sans-Serif" font-size="10.00">src/Kernel/Champs/Champ</text>
<text text-anchor="middle" x="72.5" y="-13" font-family="Helvetica,sans-Serif" font-size="10.00">_Generique_Predefini.cpp</text>
</a>
</g>
</g>
<!-- Node1&#45;&gt;Node2 -->
<g id="edge1" class="edge">
<title>Node1&#45;&gt;Node2</title>
<path fill="none" stroke="midnightblue" d="M555.26,-88.07C463.45,-81.45 295.28,-67 153.5,-42 144.23,-40.36 134.44,-38.27 125,-36.06"/>
<polygon fill="midnightblue" stroke="midnightblue" points="555.04,-91.56 565.26,-88.78 555.53,-84.58 555.04,-91.56"/>
</g>
<!-- Node3 -->
<g id="node3" class="node">
<title>Node3</title>
<g id="a_node3"><a xlink:href="Champ__Generique__Transformation_8cpp.html" target="_top" xlink:title=" ">
<polygon fill="white" stroke="black" points="163,-6 163,-36 334,-36 334,-6 163,-6"/>
<text text-anchor="start" x="171" y="-24" font-family="Helvetica,sans-Serif" font-size="10.00">src/Kernel/Champs/Champ</text>
<text text-anchor="middle" x="248.5" y="-13" font-family="Helvetica,sans-Serif" font-size="10.00">_Generique_Transformation.cpp</text>
</a>
</g>
</g>
<!-- Node1&#45;&gt;Node3 -->
<g id="edge2" class="edge">
<title>Node1&#45;&gt;Node3</title>
<path fill="none" stroke="midnightblue" d="M555.56,-80.82C498.79,-70.92 415.76,-56.12 343.5,-42 333.91,-40.13 323.78,-38.07 313.86,-36.02"/>
<polygon fill="midnightblue" stroke="midnightblue" points="555.04,-84.28 565.49,-82.54 556.24,-77.38 555.04,-84.28"/>
</g>
<!-- Node4 -->
<g id="node4" class="node">
<title>Node4</title>
<g id="a_node4"><a xlink:href="Cond__lim__utilisateur__base_8cpp.html" target="_top" xlink:title=" ">
<polygon fill="white" stroke="black" points="352.5,-0.5 352.5,-41.5 474.5,-41.5 474.5,-0.5 352.5,-0.5"/>
<text text-anchor="start" x="360.5" y="-29.5" font-family="Helvetica,sans-Serif" font-size="10.00">src/Kernel/Framework</text>
<text text-anchor="start" x="360.5" y="-18.5" font-family="Helvetica,sans-Serif" font-size="10.00">/Cond_lim_utilisateur</text>
<text text-anchor="middle" x="413.5" y="-7.5" font-family="Helvetica,sans-Serif" font-size="10.00">_base.cpp</text>
</a>
</g>
</g>
<!-- Node1&#45;&gt;Node4 -->
<g id="edge3" class="edge">
<title>Node1&#45;&gt;Node4</title>
<path fill="none" stroke="midnightblue" d="M572.22,-75.28C541.88,-65.1 503.36,-52.17 471.86,-41.59"/>
<polygon fill="midnightblue" stroke="midnightblue" points="571.17,-78.62 581.76,-78.49 573.39,-71.99 571.17,-78.62"/>
</g>
<!-- Node5 -->
<g id="node5" class="node">
<title>Node5</title>
<g id="a_node5"><a xlink:href="Postraitement_8cpp.html" target="_top" xlink:title=" ">
<polygon fill="white" stroke="black" points="492.5,-6 492.5,-36 614.5,-36 614.5,-6 492.5,-6"/>
<text text-anchor="start" x="500.5" y="-24" font-family="Helvetica,sans-Serif" font-size="10.00">src/Kernel/Framework</text>
<text text-anchor="middle" x="553.5" y="-13" font-family="Helvetica,sans-Serif" font-size="10.00">/Postraitement.cpp</text>
</a>
</g>
</g>
<!-- Node1&#45;&gt;Node5 -->
<g id="edge4" class="edge">
<title>Node1&#45;&gt;Node5</title>
<path fill="none" stroke="midnightblue" d="M602.02,-70.86C590.85,-59.61 577.51,-46.18 567.64,-36.25"/>
<polygon fill="midnightblue" stroke="midnightblue" points="599.8,-73.6 609.33,-78.23 604.77,-68.67 599.8,-73.6"/>
</g>
<!-- Node6 -->
<g id="node6" class="node">
<title>Node6</title>
<g id="a_node6"><a xlink:href="Sonde_8cpp.html" target="_top" xlink:title=" ">
<polygon fill="white" stroke="black" points="632.5,-6 632.5,-36 754.5,-36 754.5,-6 632.5,-6"/>
<text text-anchor="start" x="640.5" y="-24" font-family="Helvetica,sans-Serif" font-size="10.00">src/Kernel/Framework</text>
<text text-anchor="middle" x="693.5" y="-13" font-family="Helvetica,sans-Serif" font-size="10.00">/Sonde.cpp</text>
</a>
</g>
</g>
<!-- Node1&#45;&gt;Node6 -->
<g id="edge5" class="edge">
<title>Node1&#45;&gt;Node6</title>
<path fill="none" stroke="midnightblue" d="M644.98,-70.86C656.15,-59.61 669.49,-46.18 679.36,-36.25"/>
<polygon fill="midnightblue" stroke="midnightblue" points="642.23,-68.67 637.67,-78.23 647.2,-73.6 642.23,-68.67"/>
</g>
<!-- Node7 -->
<g id="node7" class="node">
<title>Node7</title>
<g id="a_node7"><a xlink:href="Entree__complete_8cpp.html" target="_top" xlink:title=" ">
<polygon fill="white" stroke="black" points="772.5,-6 772.5,-36 894.5,-36 894.5,-6 772.5,-6"/>
<text text-anchor="start" x="780.5" y="-24" font-family="Helvetica,sans-Serif" font-size="10.00">src/Kernel/Utilitaires</text>
<text text-anchor="middle" x="833.5" y="-13" font-family="Helvetica,sans-Serif" font-size="10.00">/Entree_complete.cpp</text>
</a>
</g>
</g>
<!-- Node1&#45;&gt;Node7 -->
<g id="edge6" class="edge">
<title>Node1&#45;&gt;Node7</title>
<path fill="none" stroke="midnightblue" d="M675.02,-75.2C710.82,-63.18 757.95,-47.36 791.48,-36.11"/>
<polygon fill="midnightblue" stroke="midnightblue" points="673.61,-71.99 665.24,-78.49 675.83,-78.62 673.61,-71.99"/>
</g>
<!-- Node8 -->
<g id="node8" class="node">
<title>Node8</title>
<g id="a_node8"><a xlink:href="Objet__a__lire_8cpp.html" target="_top" xlink:title=" ">
<polygon fill="white" stroke="black" points="912.5,-6 912.5,-36 1028.5,-36 1028.5,-6 912.5,-6"/>
<text text-anchor="start" x="920.5" y="-24" font-family="Helvetica,sans-Serif" font-size="10.00">src/Kernel/Utilitaires</text>
<text text-anchor="middle" x="970.5" y="-13" font-family="Helvetica,sans-Serif" font-size="10.00">/Objet_a_lire.cpp</text>
</a>
</g>
</g>
<!-- Node1&#45;&gt;Node8 -->
<g id="edge7" class="edge">
<title>Node1&#45;&gt;Node8</title>
<path fill="none" stroke="midnightblue" d="M691.51,-82.41C748.48,-73.44 831.77,-59.12 903.5,-42 910.82,-40.25 918.53,-38.18 926,-36.04"/>
<polygon fill="midnightblue" stroke="midnightblue" points="690.88,-78.97 681.54,-83.97 691.96,-85.89 690.88,-78.97"/>
</g>
<!-- Node9 -->
<g id="node9" class="node">
<title>Node9</title>
<g id="a_node9"><a xlink:href="Champ__Fonc__reprise_8cpp.html" target="_top" xlink:title=" ">
<polygon fill="white" stroke="black" points="1047,-6 1047,-36 1188,-36 1188,-6 1047,-6"/>
<text text-anchor="start" x="1055" y="-24" font-family="Helvetica,sans-Serif" font-size="10.00">src/Kernel/VF/Champs</text>
<text text-anchor="middle" x="1117.5" y="-13" font-family="Helvetica,sans-Serif" font-size="10.00">/Champ_Fonc_reprise.cpp</text>
</a>
</g>
</g>
<!-- Node1&#45;&gt;Node9 -->
<g id="edge8" class="edge">
<title>Node1&#45;&gt;Node9</title>
<path fill="none" stroke="midnightblue" d="M691.77,-86.78C774.16,-79.28 916.7,-64.38 1037.5,-42 1046.51,-40.33 1056.01,-38.25 1065.2,-36.06"/>
<polygon fill="midnightblue" stroke="midnightblue" points="691.43,-83.3 681.78,-87.68 692.06,-90.27 691.43,-83.3"/>
</g>
</g>
</svg>
