<?xml version="1.0" encoding="UTF-8" standalone="no"?>
<!DOCTYPE svg PUBLIC "-//W3C//DTD SVG 1.1//EN"
 "http://www.w3.org/Graphics/SVG/1.1/DTD/svg11.dtd">
<!-- Generated by graphviz version 2.43.0 (0)
 -->
<!-- Title: src/ThHyd/Incompressible/Cond_Lim/Entree_fluide_vitesse_imposee_libre.h Pages: 1 -->
<svg width="581pt" height="217pt"
 viewBox="0.00 0.00 581.00 217.00" xmlns="http://www.w3.org/2000/svg" xmlns:xlink="http://www.w3.org/1999/xlink">
<g id="graph0" class="graph" transform="scale(1 1) rotate(0) translate(4 213)">
<title>src/ThHyd/Incompressible/Cond_Lim/Entree_fluide_vitesse_imposee_libre.h</title>
<polygon fill="white" stroke="transparent" points="-4,4 -4,-213 577,-213 577,4 -4,4"/>
<!-- Node1 -->
<g id="node1" class="node">
<title>Node1</title>
<g id="a_node1"><a xlink:title=" ">
<polygon fill="#bfbfbf" stroke="black" points="264,-167.5 264,-208.5 407,-208.5 407,-167.5 264,-167.5"/>
<text text-anchor="start" x="272" y="-196.5" font-family="Helvetica,sans-Serif" font-size="10.00">src/ThHyd/Incompressible</text>
<text text-anchor="start" x="272" y="-185.5" font-family="Helvetica,sans-Serif" font-size="10.00">/Cond_Lim/Entree_fluide</text>
<text text-anchor="middle" x="335.5" y="-174.5" font-family="Helvetica,sans-Serif" font-size="10.00">_vitesse_imposee_libre.h</text>
</a>
</g>
</g>
<!-- Node2 -->
<g id="node2" class="node">
<title>Node2</title>
<g id="a_node2"><a xlink:href="Frontiere__ouverte__rho__u__impose_8h.html" target="_top" xlink:title=" ">
<polygon fill="white" stroke="black" points="80,-89.5 80,-130.5 241,-130.5 241,-89.5 80,-89.5"/>
<text text-anchor="start" x="88" y="-118.5" font-family="Helvetica,sans-Serif" font-size="10.00">src/ThHyd/Dilatable</text>
<text text-anchor="start" x="88" y="-107.5" font-family="Helvetica,sans-Serif" font-size="10.00">/Common/Cond_Lim/Frontiere</text>
<text text-anchor="middle" x="160.5" y="-96.5" font-family="Helvetica,sans-Serif" font-size="10.00">_ouverte_rho_u_impose.h</text>
</a>
</g>
</g>
<!-- Node1&#45;&gt;Node2 -->
<g id="edge1" class="edge">
<title>Node1&#45;&gt;Node2</title>
<path fill="none" stroke="midnightblue" d="M280.99,-163.33C256.71,-152.78 228.46,-140.51 205.41,-130.51"/>
<polygon fill="midnightblue" stroke="midnightblue" points="279.87,-166.65 290.43,-167.43 282.65,-160.23 279.87,-166.65"/>
</g>
<!-- Node5 -->
<g id="node5" class="node">
<title>Node5</title>
<g id="a_node5"><a xlink:href="Entree__fluide__vitesse__imposee__libre_8cpp.html" target="_top" xlink:title=" ">
<polygon fill="white" stroke="black" points="259.5,-89.5 259.5,-130.5 411.5,-130.5 411.5,-89.5 259.5,-89.5"/>
<text text-anchor="start" x="267.5" y="-118.5" font-family="Helvetica,sans-Serif" font-size="10.00">src/ThHyd/Incompressible</text>
<text text-anchor="start" x="267.5" y="-107.5" font-family="Helvetica,sans-Serif" font-size="10.00">/Cond_Lim/Entree_fluide</text>
<text text-anchor="middle" x="335.5" y="-96.5" font-family="Helvetica,sans-Serif" font-size="10.00">_vitesse_imposee_libre.cpp</text>
</a>
</g>
</g>
<!-- Node1&#45;&gt;Node5 -->
<g id="edge4" class="edge">
<title>Node1&#45;&gt;Node5</title>
<path fill="none" stroke="midnightblue" d="M335.5,-157.3C335.5,-148.3 335.5,-138.65 335.5,-130.51"/>
<polygon fill="midnightblue" stroke="midnightblue" points="332,-157.43 335.5,-167.43 339,-157.43 332,-157.43"/>
</g>
<!-- Node6 -->
<g id="node6" class="node">
<title>Node6</title>
<g id="a_node6"><a xlink:href="Verif__Cl_8cpp.html" target="_top" xlink:title=" ">
<polygon fill="white" stroke="black" points="430,-95 430,-125 573,-125 573,-95 430,-95"/>
<text text-anchor="start" x="438" y="-113" font-family="Helvetica,sans-Serif" font-size="10.00">src/ThHyd/Incompressible</text>
<text text-anchor="middle" x="501.5" y="-102" font-family="Helvetica,sans-Serif" font-size="10.00">/Cond_Lim/Verif_Cl.cpp</text>
</a>
</g>
</g>
<!-- Node1&#45;&gt;Node6 -->
<g id="edge5" class="edge">
<title>Node1&#45;&gt;Node6</title>
<path fill="none" stroke="midnightblue" d="M387.66,-163.12C414.95,-150.63 447.42,-135.76 470.69,-125.11"/>
<polygon fill="midnightblue" stroke="midnightblue" points="385.88,-160.08 378.25,-167.43 388.8,-166.45 385.88,-160.08"/>
</g>
<!-- Node3 -->
<g id="node3" class="node">
<title>Node3</title>
<g id="a_node3"><a xlink:href="Frontiere__ouverte__rho__u__impose_8cpp.html" target="_top" xlink:title=" ">
<polygon fill="white" stroke="black" points="0,-6 0,-47 161,-47 161,-6 0,-6"/>
<text text-anchor="start" x="8" y="-35" font-family="Helvetica,sans-Serif" font-size="10.00">src/ThHyd/Dilatable</text>
<text text-anchor="start" x="8" y="-24" font-family="Helvetica,sans-Serif" font-size="10.00">/Common/Cond_Lim/Frontiere</text>
<text text-anchor="middle" x="80.5" y="-13" font-family="Helvetica,sans-Serif" font-size="10.00">_ouverte_rho_u_impose.cpp</text>
</a>
</g>
</g>
<!-- Node2&#45;&gt;Node3 -->
<g id="edge2" class="edge">
<title>Node2&#45;&gt;Node3</title>
<path fill="none" stroke="midnightblue" d="M134.03,-82.04C122.81,-70.6 109.98,-57.53 99.69,-47.05"/>
<polygon fill="midnightblue" stroke="midnightblue" points="131.63,-84.59 141.13,-89.27 136.63,-79.68 131.63,-84.59"/>
</g>
<!-- Node4 -->
<g id="node4" class="node">
<title>Node4</title>
<g id="a_node4"><a xlink:href="EDO__Pression__th__VEF__Gaz__Parfait_8cpp.html" target="_top" xlink:title=" ">
<polygon fill="white" stroke="black" points="179.5,-0.5 179.5,-52.5 303.5,-52.5 303.5,-0.5 179.5,-0.5"/>
<text text-anchor="start" x="187.5" y="-40.5" font-family="Helvetica,sans-Serif" font-size="10.00">src/ThHyd/Dilatable</text>
<text text-anchor="start" x="187.5" y="-29.5" font-family="Helvetica,sans-Serif" font-size="10.00">/Quasi_Compressible</text>
<text text-anchor="start" x="187.5" y="-18.5" font-family="Helvetica,sans-Serif" font-size="10.00">/VEF/EDO_Pression_th</text>
<text text-anchor="middle" x="241.5" y="-7.5" font-family="Helvetica,sans-Serif" font-size="10.00">_VEF_Gaz_Parfait.cpp</text>
</a>
</g>
</g>
<!-- Node2&#45;&gt;Node4 -->
<g id="edge3" class="edge">
<title>Node2&#45;&gt;Node4</title>
<path fill="none" stroke="midnightblue" d="M187.37,-81.96C196.78,-72.5 207.3,-61.91 216.55,-52.61"/>
<polygon fill="midnightblue" stroke="midnightblue" points="184.67,-79.71 180.11,-89.27 189.64,-84.65 184.67,-79.71"/>
</g>
</g>
</svg>
