<?xml version="1.0" encoding="UTF-8" standalone="no"?>
<!DOCTYPE svg PUBLIC "-//W3C//DTD SVG 1.1//EN"
 "http://www.w3.org/Graphics/SVG/1.1/DTD/svg11.dtd">
<!-- Generated by graphviz version 2.43.0 (0)
 -->
<!-- Title: src/Kernel/Utilitaires/Entree_Brute.h Pages: 1 -->
<svg width="1022pt" height="240pt"
 viewBox="0.00 0.00 1022.00 240.00" xmlns="http://www.w3.org/2000/svg" xmlns:xlink="http://www.w3.org/1999/xlink">
<g id="graph0" class="graph" transform="scale(1 1) rotate(0) translate(4 236)">
<title>src/Kernel/Utilitaires/Entree_Brute.h</title>
<polygon fill="white" stroke="transparent" points="-4,4 -4,-236 1018,-236 1018,4 -4,4"/>
<!-- Node1 -->
<g id="node1" class="node">
<title>Node1</title>
<g id="a_node1"><a xlink:title=" ">
<polygon fill="#bfbfbf" stroke="black" points="152.5,-201.5 152.5,-231.5 268.5,-231.5 268.5,-201.5 152.5,-201.5"/>
<text text-anchor="start" x="160.5" y="-219.5" font-family="Helvetica,sans-Serif" font-size="10.00">src/Kernel/Utilitaires</text>
<text text-anchor="middle" x="210.5" y="-208.5" font-family="Helvetica,sans-Serif" font-size="10.00">/Entree_Brute.h</text>
</a>
</g>
</g>
<!-- Node2 -->
<g id="node2" class="node">
<title>Node2</title>
<g id="a_node2"><a xlink:href="Scatter_8cpp.html" target="_top" xlink:title=" ">
<polygon fill="white" stroke="black" points="0,-0.5 0,-30.5 119,-30.5 119,-0.5 0,-0.5"/>
<text text-anchor="start" x="8" y="-18.5" font-family="Helvetica,sans-Serif" font-size="10.00">src/Kernel/Geometrie</text>
<text text-anchor="middle" x="59.5" y="-7.5" font-family="Helvetica,sans-Serif" font-size="10.00">/Scatter.cpp</text>
</a>
</g>
</g>
<!-- Node1&#45;&gt;Node2 -->
<g id="edge1" class="edge">
<title>Node1&#45;&gt;Node2</title>
<path fill="none" stroke="midnightblue" d="M178.73,-195.62C166.77,-187.15 153.62,-176.55 143.5,-165 105.62,-121.79 76.91,-58.79 65.23,-30.81"/>
<polygon fill="midnightblue" stroke="midnightblue" points="176.95,-198.64 187.18,-201.4 180.9,-192.86 176.95,-198.64"/>
</g>
<!-- Node3 -->
<g id="node3" class="node">
<title>Node3</title>
<g id="a_node3"><a xlink:href="Entree__Brute_8cpp.html" target="_top" xlink:title=" ">
<polygon fill="white" stroke="black" points="152.5,-134.5 152.5,-164.5 268.5,-164.5 268.5,-134.5 152.5,-134.5"/>
<text text-anchor="start" x="160.5" y="-152.5" font-family="Helvetica,sans-Serif" font-size="10.00">src/Kernel/Utilitaires</text>
<text text-anchor="middle" x="210.5" y="-141.5" font-family="Helvetica,sans-Serif" font-size="10.00">/Entree_Brute.cpp</text>
</a>
</g>
</g>
<!-- Node1&#45;&gt;Node3 -->
<g id="edge2" class="edge">
<title>Node1&#45;&gt;Node3</title>
<path fill="none" stroke="midnightblue" d="M210.5,-191.11C210.5,-182.15 210.5,-172.32 210.5,-164.58"/>
<polygon fill="midnightblue" stroke="midnightblue" points="207,-191.4 210.5,-201.4 214,-191.4 207,-191.4"/>
</g>
<!-- Node4 -->
<g id="node4" class="node">
<title>Node4</title>
<g id="a_node4"><a xlink:href="FichierHDF_8h.html" target="_top" xlink:title=" ">
<polygon fill="white" stroke="black" points="297.5,-134.5 297.5,-164.5 413.5,-164.5 413.5,-134.5 297.5,-134.5"/>
<text text-anchor="start" x="305.5" y="-152.5" font-family="Helvetica,sans-Serif" font-size="10.00">src/Kernel/Utilitaires</text>
<text text-anchor="middle" x="355.5" y="-141.5" font-family="Helvetica,sans-Serif" font-size="10.00">/FichierHDF.h</text>
</a>
</g>
</g>
<!-- Node1&#45;&gt;Node4 -->
<g id="edge3" class="edge">
<title>Node1&#45;&gt;Node4</title>
<path fill="none" stroke="midnightblue" d="M251.17,-197.27C274.26,-186.92 302.74,-174.15 324.1,-164.58"/>
<polygon fill="midnightblue" stroke="midnightblue" points="249.66,-194.11 241.96,-201.4 252.52,-200.5 249.66,-194.11"/>
</g>
<!-- Node5 -->
<g id="node5" class="node">
<title>Node5</title>
<g id="a_node5"><a xlink:href="FichierHDF_8cpp.html" target="_top" xlink:title=" ">
<polygon fill="white" stroke="black" points="297.5,-67.5 297.5,-97.5 413.5,-97.5 413.5,-67.5 297.5,-67.5"/>
<text text-anchor="start" x="305.5" y="-85.5" font-family="Helvetica,sans-Serif" font-size="10.00">src/Kernel/Utilitaires</text>
<text text-anchor="middle" x="355.5" y="-74.5" font-family="Helvetica,sans-Serif" font-size="10.00">/FichierHDF.cpp</text>
</a>
</g>
</g>
<!-- Node4&#45;&gt;Node5 -->
<g id="edge4" class="edge">
<title>Node4&#45;&gt;Node5</title>
<path fill="none" stroke="midnightblue" d="M355.5,-124.11C355.5,-115.15 355.5,-105.32 355.5,-97.58"/>
<polygon fill="midnightblue" stroke="midnightblue" points="352,-124.4 355.5,-134.4 359,-124.4 352,-124.4"/>
</g>
<!-- Node6 -->
<g id="node6" class="node">
<title>Node6</title>
<g id="a_node6"><a xlink:href="FichierHDFPar_8h.html" target="_top" xlink:title=" ">
<polygon fill="white" stroke="black" points="436.5,-67.5 436.5,-97.5 552.5,-97.5 552.5,-67.5 436.5,-67.5"/>
<text text-anchor="start" x="444.5" y="-85.5" font-family="Helvetica,sans-Serif" font-size="10.00">src/Kernel/Utilitaires</text>
<text text-anchor="middle" x="494.5" y="-74.5" font-family="Helvetica,sans-Serif" font-size="10.00">/FichierHDFPar.h</text>
</a>
</g>
</g>
<!-- Node4&#45;&gt;Node6 -->
<g id="edge5" class="edge">
<title>Node4&#45;&gt;Node6</title>
<path fill="none" stroke="midnightblue" d="M394.78,-130.13C416.87,-119.8 444.01,-107.11 464.4,-97.58"/>
<polygon fill="midnightblue" stroke="midnightblue" points="393.24,-126.99 385.66,-134.4 396.2,-133.33 393.24,-126.99"/>
</g>
<!-- Node6&#45;&gt;Node2 -->
<g id="edge9" class="edge">
<title>Node6&#45;&gt;Node2</title>
<path fill="none" stroke="midnightblue" d="M426.36,-67.64C425.06,-67.42 423.77,-67.21 422.5,-67 292.54,-45.99 258.37,-52.56 128.5,-31 125.48,-30.5 122.39,-29.96 119.28,-29.39"/>
<polygon fill="midnightblue" stroke="midnightblue" points="425.96,-71.12 436.41,-69.4 427.17,-64.23 425.96,-71.12"/>
</g>
<!-- Node7 -->
<g id="node7" class="node">
<title>Node7</title>
<g id="a_node7"><a xlink:href="Probleme__base_8cpp.html" target="_top" xlink:title=" ">
<polygon fill="white" stroke="black" points="137.5,-0.5 137.5,-30.5 259.5,-30.5 259.5,-0.5 137.5,-0.5"/>
<text text-anchor="start" x="145.5" y="-18.5" font-family="Helvetica,sans-Serif" font-size="10.00">src/Kernel/Framework</text>
<text text-anchor="middle" x="198.5" y="-7.5" font-family="Helvetica,sans-Serif" font-size="10.00">/Probleme_base.cpp</text>
</a>
</g>
</g>
<!-- Node6&#45;&gt;Node7 -->
<g id="edge6" class="edge">
<title>Node6&#45;&gt;Node7</title>
<path fill="none" stroke="midnightblue" d="M426.55,-66.58C376.2,-55.52 308.17,-40.58 259.55,-29.91"/>
<polygon fill="midnightblue" stroke="midnightblue" points="425.86,-70.01 436.37,-68.74 427.36,-63.17 425.86,-70.01"/>
</g>
<!-- Node8 -->
<g id="node8" class="node">
<title>Node8</title>
<g id="a_node8"><a xlink:href="DomaineCutter_8cpp.html" target="_top" xlink:title=" ">
<polygon fill="white" stroke="black" points="278,-0.5 278,-30.5 397,-30.5 397,-0.5 278,-0.5"/>
<text text-anchor="start" x="286" y="-18.5" font-family="Helvetica,sans-Serif" font-size="10.00">src/Kernel/Geometrie</text>
<text text-anchor="middle" x="337.5" y="-7.5" font-family="Helvetica,sans-Serif" font-size="10.00">/DomaineCutter.cpp</text>
</a>
</g>
</g>
<!-- Node6&#45;&gt;Node8 -->
<g id="edge7" class="edge">
<title>Node6&#45;&gt;Node8</title>
<path fill="none" stroke="midnightblue" d="M451.13,-63.54C426.01,-53.14 394.84,-40.24 371.5,-30.58"/>
<polygon fill="midnightblue" stroke="midnightblue" points="449.86,-66.8 460.43,-67.4 452.53,-60.34 449.86,-66.8"/>
</g>
<!-- Node9 -->
<g id="node9" class="node">
<title>Node9</title>
<g id="a_node9"><a xlink:href="Raffiner__isotrope__parallele_8cpp.html" target="_top" xlink:title=" ">
<polygon fill="white" stroke="black" points="415,-0.5 415,-30.5 586,-30.5 586,-0.5 415,-0.5"/>
<text text-anchor="start" x="423" y="-18.5" font-family="Helvetica,sans-Serif" font-size="10.00">src/Kernel/Geometrie</text>
<text text-anchor="middle" x="500.5" y="-7.5" font-family="Helvetica,sans-Serif" font-size="10.00">/Raffiner_isotrope_parallele.cpp</text>
</a>
</g>
</g>
<!-- Node6&#45;&gt;Node9 -->
<g id="edge8" class="edge">
<title>Node6&#45;&gt;Node9</title>
<path fill="none" stroke="midnightblue" d="M496.72,-57.4C497.56,-48.37 498.48,-38.41 499.2,-30.58"/>
<polygon fill="midnightblue" stroke="midnightblue" points="493.24,-57.12 495.8,-67.4 500.21,-57.76 493.24,-57.12"/>
</g>
<!-- Node10 -->
<g id="node10" class="node">
<title>Node10</title>
<g id="a_node10"><a xlink:href="FichierHDFPar_8cpp.html" target="_top" xlink:title=" ">
<polygon fill="white" stroke="black" points="604.5,-0.5 604.5,-30.5 720.5,-30.5 720.5,-0.5 604.5,-0.5"/>
<text text-anchor="start" x="612.5" y="-18.5" font-family="Helvetica,sans-Serif" font-size="10.00">src/Kernel/Utilitaires</text>
<text text-anchor="middle" x="662.5" y="-7.5" font-family="Helvetica,sans-Serif" font-size="10.00">/FichierHDFPar.cpp</text>
</a>
</g>
</g>
<!-- Node6&#45;&gt;Node10 -->
<g id="edge10" class="edge">
<title>Node6&#45;&gt;Node10</title>
<path fill="none" stroke="midnightblue" d="M540.55,-63.68C567.5,-53.26 601.04,-40.28 626.12,-30.58"/>
<polygon fill="midnightblue" stroke="midnightblue" points="539.02,-60.52 530.95,-67.4 541.54,-67.05 539.02,-60.52"/>
</g>
<!-- Node11 -->
<g id="node11" class="node">
<title>Node11</title>
<g id="a_node11"><a xlink:href="Process_8cpp.html" target="_top" xlink:title=" ">
<polygon fill="white" stroke="black" points="738.5,-0.5 738.5,-30.5 854.5,-30.5 854.5,-0.5 738.5,-0.5"/>
<text text-anchor="start" x="746.5" y="-18.5" font-family="Helvetica,sans-Serif" font-size="10.00">src/Kernel/Utilitaires</text>
<text text-anchor="middle" x="796.5" y="-7.5" font-family="Helvetica,sans-Serif" font-size="10.00">/Process.cpp</text>
</a>
</g>
</g>
<!-- Node6&#45;&gt;Node11 -->
<g id="edge11" class="edge">
<title>Node6&#45;&gt;Node11</title>
<path fill="none" stroke="midnightblue" d="M562.97,-66.81C609.86,-56.75 673.44,-43.09 729.5,-31 732.41,-30.37 735.39,-29.73 738.4,-29.08"/>
<polygon fill="midnightblue" stroke="midnightblue" points="561.98,-63.45 552.93,-68.97 563.44,-70.29 561.98,-63.45"/>
</g>
<!-- Node12 -->
<g id="node12" class="node">
<title>Node12</title>
<g id="a_node12"><a xlink:href="Champ__Fonc__reprise_8cpp.html" target="_top" xlink:title=" ">
<polygon fill="white" stroke="black" points="873,-0.5 873,-30.5 1014,-30.5 1014,-0.5 873,-0.5"/>
<text text-anchor="start" x="881" y="-18.5" font-family="Helvetica,sans-Serif" font-size="10.00">src/Kernel/VF/Champs</text>
<text text-anchor="middle" x="943.5" y="-7.5" font-family="Helvetica,sans-Serif" font-size="10.00">/Champ_Fonc_reprise.cpp</text>
</a>
</g>
</g>
<!-- Node6&#45;&gt;Node12 -->
<g id="edge12" class="edge">
<title>Node6&#45;&gt;Node12</title>
<path fill="none" stroke="midnightblue" d="M562.92,-73.04C637.09,-63.65 758.9,-47.63 863.5,-31 866.57,-30.51 869.7,-30 872.86,-29.48"/>
<polygon fill="midnightblue" stroke="midnightblue" points="562.26,-69.59 552.77,-74.32 563.13,-76.54 562.26,-69.59"/>
</g>
</g>
</svg>
