<?xml version="1.0" encoding="UTF-8" standalone="no"?>
<!DOCTYPE svg PUBLIC "-//W3C//DTD SVG 1.1//EN"
 "http://www.w3.org/Graphics/SVG/1.1/DTD/svg11.dtd">
<!-- Generated by graphviz version 2.43.0 (0)
 -->
<!-- Title: src/ThHyd/Incompressible/Cond_Lim/Entree_fluide_vitesse_imposee.h Pages: 1 -->
<svg width="714pt" height="295pt"
 viewBox="0.00 0.00 713.50 295.00" xmlns="http://www.w3.org/2000/svg" xmlns:xlink="http://www.w3.org/1999/xlink">
<g id="graph0" class="graph" transform="scale(1 1) rotate(0) translate(4 291)">
<title>src/ThHyd/Incompressible/Cond_Lim/Entree_fluide_vitesse_imposee.h</title>
<polygon fill="white" stroke="transparent" points="-4,4 -4,-291 709.5,-291 709.5,4 -4,4"/>
<!-- Node1 -->
<g id="node1" class="node">
<title>Node1</title>
<g id="a_node1"><a xlink:title=" ">
<polygon fill="#bfbfbf" stroke="black" points="346,-245.5 346,-286.5 489,-286.5 489,-245.5 346,-245.5"/>
<text text-anchor="start" x="354" y="-274.5" font-family="Helvetica,sans-Serif" font-size="10.00">src/ThHyd/Incompressible</text>
<text text-anchor="start" x="354" y="-263.5" font-family="Helvetica,sans-Serif" font-size="10.00">/Cond_Lim/Entree_fluide</text>
<text text-anchor="middle" x="417.5" y="-252.5" font-family="Helvetica,sans-Serif" font-size="10.00">_vitesse_imposee.h</text>
</a>
</g>
</g>
<!-- Node2 -->
<g id="node2" class="node">
<title>Node2</title>
<g id="a_node2"><a xlink:href="Assembleur__P__VEFPreP1B_8cpp.html" target="_top" xlink:title=" ">
<polygon fill="white" stroke="black" points="0,-173 0,-203 167,-203 167,-173 0,-173"/>
<text text-anchor="start" x="8" y="-191" font-family="Helvetica,sans-Serif" font-size="10.00">src/P1NCP1B/Solveurs</text>
<text text-anchor="middle" x="83.5" y="-180" font-family="Helvetica,sans-Serif" font-size="10.00">/Assembleur_P_VEFPreP1B.cpp</text>
</a>
</g>
</g>
<!-- Node1&#45;&gt;Node2 -->
<g id="edge1" class="edge">
<title>Node1&#45;&gt;Node2</title>
<path fill="none" stroke="midnightblue" d="M335.84,-246.42C277.02,-233.03 198.87,-215.25 145.22,-203.04"/>
<polygon fill="midnightblue" stroke="midnightblue" points="335.32,-249.89 345.85,-248.7 336.87,-243.06 335.32,-249.89"/>
</g>
<!-- Node3 -->
<g id="node3" class="node">
<title>Node3</title>
<g id="a_node3"><a xlink:href="Entree__fluide__vitesse__imposee_8cpp.html" target="_top" xlink:title=" ">
<polygon fill="white" stroke="black" points="185,-167.5 185,-208.5 328,-208.5 328,-167.5 185,-167.5"/>
<text text-anchor="start" x="193" y="-196.5" font-family="Helvetica,sans-Serif" font-size="10.00">src/ThHyd/Incompressible</text>
<text text-anchor="start" x="193" y="-185.5" font-family="Helvetica,sans-Serif" font-size="10.00">/Cond_Lim/Entree_fluide</text>
<text text-anchor="middle" x="256.5" y="-174.5" font-family="Helvetica,sans-Serif" font-size="10.00">_vitesse_imposee.cpp</text>
</a>
</g>
</g>
<!-- Node1&#45;&gt;Node3 -->
<g id="edge2" class="edge">
<title>Node1&#45;&gt;Node3</title>
<path fill="none" stroke="midnightblue" d="M366.76,-241.05C344.56,-230.57 318.83,-218.42 297.82,-208.51"/>
<polygon fill="midnightblue" stroke="midnightblue" points="365.5,-244.32 376.04,-245.43 368.49,-237.99 365.5,-244.32"/>
</g>
<!-- Node4 -->
<g id="node4" class="node">
<title>Node4</title>
<g id="a_node4"><a xlink:href="Entree__fluide__vitesse__imposee__libre_8h.html" target="_top" xlink:title=" ">
<polygon fill="white" stroke="black" points="346,-167.5 346,-208.5 489,-208.5 489,-167.5 346,-167.5"/>
<text text-anchor="start" x="354" y="-196.5" font-family="Helvetica,sans-Serif" font-size="10.00">src/ThHyd/Incompressible</text>
<text text-anchor="start" x="354" y="-185.5" font-family="Helvetica,sans-Serif" font-size="10.00">/Cond_Lim/Entree_fluide</text>
<text text-anchor="middle" x="417.5" y="-174.5" font-family="Helvetica,sans-Serif" font-size="10.00">_vitesse_imposee_libre.h</text>
</a>
</g>
</g>
<!-- Node1&#45;&gt;Node4 -->
<g id="edge3" class="edge">
<title>Node1&#45;&gt;Node4</title>
<path fill="none" stroke="midnightblue" d="M417.5,-235.3C417.5,-226.3 417.5,-216.65 417.5,-208.51"/>
<polygon fill="midnightblue" stroke="midnightblue" points="414,-235.43 417.5,-245.43 421,-235.43 414,-235.43"/>
</g>
<!-- Node9 -->
<g id="node9" class="node">
<title>Node9</title>
<g id="a_node9"><a xlink:href="Verif__Cl_8cpp.html" target="_top" xlink:title=" ">
<polygon fill="white" stroke="black" points="479,-95 479,-125 622,-125 622,-95 479,-95"/>
<text text-anchor="start" x="487" y="-113" font-family="Helvetica,sans-Serif" font-size="10.00">src/ThHyd/Incompressible</text>
<text text-anchor="middle" x="550.5" y="-102" font-family="Helvetica,sans-Serif" font-size="10.00">/Cond_Lim/Verif_Cl.cpp</text>
</a>
</g>
</g>
<!-- Node1&#45;&gt;Node9 -->
<g id="edge9" class="edge">
<title>Node1&#45;&gt;Node9</title>
<path fill="none" stroke="midnightblue" d="M462.19,-239.69C474.94,-231.06 488.16,-220.63 498.5,-209 521.41,-183.24 537.71,-145.59 545.43,-125.27"/>
<polygon fill="midnightblue" stroke="midnightblue" points="459.95,-236.97 453.48,-245.36 463.77,-242.83 459.95,-236.97"/>
</g>
<!-- Node10 -->
<g id="node10" class="node">
<title>Node10</title>
<g id="a_node10"><a xlink:href="Assembleur__P__VDF_8cpp.html" target="_top" xlink:title=" ">
<polygon fill="white" stroke="black" points="545.5,-173 545.5,-203 705.5,-203 705.5,-173 545.5,-173"/>
<text text-anchor="start" x="553.5" y="-191" font-family="Helvetica,sans-Serif" font-size="10.00">src/VDF/Solveurs/Assembleur</text>
<text text-anchor="middle" x="625.5" y="-180" font-family="Helvetica,sans-Serif" font-size="10.00">_P_VDF.cpp</text>
</a>
</g>
</g>
<!-- Node1&#45;&gt;Node10 -->
<g id="edge10" class="edge">
<title>Node1&#45;&gt;Node10</title>
<path fill="none" stroke="midnightblue" d="M480.63,-241.93C515.27,-229.28 557.1,-213.99 586.89,-203.11"/>
<polygon fill="midnightblue" stroke="midnightblue" points="479.26,-238.71 471.07,-245.43 481.66,-245.28 479.26,-238.71"/>
</g>
<!-- Node5 -->
<g id="node5" class="node">
<title>Node5</title>
<g id="a_node5"><a xlink:href="Frontiere__ouverte__rho__u__impose_8h.html" target="_top" xlink:title=" ">
<polygon fill="white" stroke="black" points="129,-89.5 129,-130.5 290,-130.5 290,-89.5 129,-89.5"/>
<text text-anchor="start" x="137" y="-118.5" font-family="Helvetica,sans-Serif" font-size="10.00">src/ThHyd/Dilatable</text>
<text text-anchor="start" x="137" y="-107.5" font-family="Helvetica,sans-Serif" font-size="10.00">/Common/Cond_Lim/Frontiere</text>
<text text-anchor="middle" x="209.5" y="-96.5" font-family="Helvetica,sans-Serif" font-size="10.00">_ouverte_rho_u_impose.h</text>
</a>
</g>
</g>
<!-- Node4&#45;&gt;Node5 -->
<g id="edge4" class="edge">
<title>Node4&#45;&gt;Node5</title>
<path fill="none" stroke="midnightblue" d="M354.24,-163.89C325.05,-153.22 290.76,-140.69 262.88,-130.51"/>
<polygon fill="midnightblue" stroke="midnightblue" points="353.34,-167.28 363.93,-167.43 355.74,-160.71 353.34,-167.28"/>
</g>
<!-- Node8 -->
<g id="node8" class="node">
<title>Node8</title>
<g id="a_node8"><a xlink:href="Entree__fluide__vitesse__imposee__libre_8cpp.html" target="_top" xlink:title=" ">
<polygon fill="white" stroke="black" points="308.5,-89.5 308.5,-130.5 460.5,-130.5 460.5,-89.5 308.5,-89.5"/>
<text text-anchor="start" x="316.5" y="-118.5" font-family="Helvetica,sans-Serif" font-size="10.00">src/ThHyd/Incompressible</text>
<text text-anchor="start" x="316.5" y="-107.5" font-family="Helvetica,sans-Serif" font-size="10.00">/Cond_Lim/Entree_fluide</text>
<text text-anchor="middle" x="384.5" y="-96.5" font-family="Helvetica,sans-Serif" font-size="10.00">_vitesse_imposee_libre.cpp</text>
</a>
</g>
</g>
<!-- Node4&#45;&gt;Node8 -->
<g id="edge7" class="edge">
<title>Node4&#45;&gt;Node8</title>
<path fill="none" stroke="midnightblue" d="M404.98,-158.17C400.97,-148.93 396.62,-138.92 392.97,-130.51"/>
<polygon fill="midnightblue" stroke="midnightblue" points="401.81,-159.65 409,-167.43 408.23,-156.86 401.81,-159.65"/>
</g>
<!-- Node4&#45;&gt;Node9 -->
<g id="edge8" class="edge">
<title>Node4&#45;&gt;Node9</title>
<path fill="none" stroke="midnightblue" d="M460.7,-162.31C482.18,-150.04 507.38,-135.64 525.61,-125.23"/>
<polygon fill="midnightblue" stroke="midnightblue" points="458.7,-159.43 451.75,-167.43 462.17,-165.51 458.7,-159.43"/>
</g>
<!-- Node6 -->
<g id="node6" class="node">
<title>Node6</title>
<g id="a_node6"><a xlink:href="Frontiere__ouverte__rho__u__impose_8cpp.html" target="_top" xlink:title=" ">
<polygon fill="white" stroke="black" points="49,-6 49,-47 210,-47 210,-6 49,-6"/>
<text text-anchor="start" x="57" y="-35" font-family="Helvetica,sans-Serif" font-size="10.00">src/ThHyd/Dilatable</text>
<text text-anchor="start" x="57" y="-24" font-family="Helvetica,sans-Serif" font-size="10.00">/Common/Cond_Lim/Frontiere</text>
<text text-anchor="middle" x="129.5" y="-13" font-family="Helvetica,sans-Serif" font-size="10.00">_ouverte_rho_u_impose.cpp</text>
</a>
</g>
</g>
<!-- Node5&#45;&gt;Node6 -->
<g id="edge5" class="edge">
<title>Node5&#45;&gt;Node6</title>
<path fill="none" stroke="midnightblue" d="M183.03,-82.04C171.81,-70.6 158.98,-57.53 148.69,-47.05"/>
<polygon fill="midnightblue" stroke="midnightblue" points="180.63,-84.59 190.13,-89.27 185.63,-79.68 180.63,-84.59"/>
</g>
<!-- Node7 -->
<g id="node7" class="node">
<title>Node7</title>
<g id="a_node7"><a xlink:href="EDO__Pression__th__VEF__Gaz__Parfait_8cpp.html" target="_top" xlink:title=" ">
<polygon fill="white" stroke="black" points="228.5,-0.5 228.5,-52.5 352.5,-52.5 352.5,-0.5 228.5,-0.5"/>
<text text-anchor="start" x="236.5" y="-40.5" font-family="Helvetica,sans-Serif" font-size="10.00">src/ThHyd/Dilatable</text>
<text text-anchor="start" x="236.5" y="-29.5" font-family="Helvetica,sans-Serif" font-size="10.00">/Quasi_Compressible</text>
<text text-anchor="start" x="236.5" y="-18.5" font-family="Helvetica,sans-Serif" font-size="10.00">/VEF/EDO_Pression_th</text>
<text text-anchor="middle" x="290.5" y="-7.5" font-family="Helvetica,sans-Serif" font-size="10.00">_VEF_Gaz_Parfait.cpp</text>
</a>
</g>
</g>
<!-- Node5&#45;&gt;Node7 -->
<g id="edge6" class="edge">
<title>Node5&#45;&gt;Node7</title>
<path fill="none" stroke="midnightblue" d="M236.37,-81.96C245.78,-72.5 256.3,-61.91 265.55,-52.61"/>
<polygon fill="midnightblue" stroke="midnightblue" points="233.67,-79.71 229.11,-89.27 238.64,-84.65 233.67,-79.71"/>
</g>
</g>
</svg>
