<?xml version="1.0" encoding="UTF-8" standalone="no"?>
<!DOCTYPE svg PUBLIC "-//W3C//DTD SVG 1.1//EN"
 "http://www.w3.org/Graphics/SVG/1.1/DTD/svg11.dtd">
<!-- Generated by graphviz version 2.43.0 (0)
 -->
<!-- Title: src/Kernel/Utilitaires/Entree_complete.cpp Pages: 1 -->
<svg width="1124pt" height="823pt"
 viewBox="0.00 0.00 1124.00 823.00" xmlns="http://www.w3.org/2000/svg" xmlns:xlink="http://www.w3.org/1999/xlink">
<g id="graph0" class="graph" transform="scale(1 1) rotate(0) translate(4 819)">
<title>src/Kernel/Utilitaires/Entree_complete.cpp</title>
<polygon fill="white" stroke="transparent" points="-4,4 -4,-819 1120,-819 1120,4 -4,4"/>
<!-- Node1 -->
<g id="node1" class="node">
<title>Node1</title>
<g id="a_node1"><a xlink:title=" ">
<polygon fill="#bfbfbf" stroke="black" points="644,-784.5 644,-814.5 766,-814.5 766,-784.5 644,-784.5"/>
<text text-anchor="start" x="652" y="-802.5" font-family="Helvetica,sans-Serif" font-size="10.00">src/Kernel/Utilitaires</text>
<text text-anchor="middle" x="705" y="-791.5" font-family="Helvetica,sans-Serif" font-size="10.00">/Entree_complete.cpp</text>
</a>
</g>
</g>
<!-- Node2 -->
<g id="node2" class="node">
<title>Node2</title>
<g id="a_node2"><a xlink:href="Entree__complete_8h.html" target="_top" xlink:title=" ">
<polygon fill="white" stroke="black" points="337,-728.5 337,-747.5 445,-747.5 445,-728.5 337,-728.5"/>
<text text-anchor="middle" x="391" y="-735.5" font-family="Helvetica,sans-Serif" font-size="10.00">Entree_complete.h</text>
</a>
</g>
</g>
<!-- Node1&#45;&gt;Node2 -->
<g id="edge1" class="edge">
<title>Node1&#45;&gt;Node2</title>
<path fill="none" stroke="midnightblue" d="M643.71,-786.89C586.25,-776 501.13,-759.87 445.85,-749.39"/>
<polygon fill="midnightblue" stroke="midnightblue" points="446.37,-745.93 435.89,-747.51 445.07,-752.81 446.37,-745.93"/>
</g>
<!-- Node9 -->
<g id="node9" class="node">
<title>Node9</title>
<g id="a_node9"><a xlink:href="Process_8h.html" target="_top" xlink:title=" ">
<polygon fill="white" stroke="black" points="1046.5,-56.5 1046.5,-75.5 1109.5,-75.5 1109.5,-56.5 1046.5,-56.5"/>
<text text-anchor="middle" x="1078" y="-63.5" font-family="Helvetica,sans-Serif" font-size="10.00">Process.h</text>
</a>
</g>
</g>
<!-- Node1&#45;&gt;Node9 -->
<g id="edge12" class="edge">
<title>Node1&#45;&gt;Node9</title>
<path fill="none" stroke="midnightblue" d="M766.09,-794.07C880.58,-784.08 1116,-754.8 1116,-683 1116,-683 1116,-683 1116,-177 1116,-142.81 1099.4,-105.76 1088.14,-84.57"/>
<polygon fill="midnightblue" stroke="midnightblue" points="1091.18,-82.83 1083.28,-75.77 1085.05,-86.22 1091.18,-82.83"/>
</g>
<!-- Node13 -->
<g id="node13" class="node">
<title>Node13</title>
<g id="a_node13"><a xlink:href="communications_8h.html" target="_top" xlink:title=" ">
<polygon fill="white" stroke="black" points="651.5,-728.5 651.5,-747.5 758.5,-747.5 758.5,-728.5 651.5,-728.5"/>
<text text-anchor="middle" x="705" y="-735.5" font-family="Helvetica,sans-Serif" font-size="10.00">communications.h</text>
</a>
</g>
</g>
<!-- Node1&#45;&gt;Node13 -->
<g id="edge13" class="edge">
<title>Node1&#45;&gt;Node13</title>
<path fill="none" stroke="midnightblue" d="M705,-784.4C705,-776.47 705,-766.46 705,-757.86"/>
<polygon fill="midnightblue" stroke="midnightblue" points="708.5,-757.66 705,-747.66 701.5,-757.66 708.5,-757.66"/>
</g>
<!-- Node14 -->
<g id="node14" class="node">
<title>Node14</title>
<g id="a_node14"><a xlink:href="communications__array_8h.html" target="_top" xlink:title=" ">
<polygon fill="white" stroke="black" points="765,-616.5 765,-635.5 901,-635.5 901,-616.5 765,-616.5"/>
<text text-anchor="middle" x="833" y="-623.5" font-family="Helvetica,sans-Serif" font-size="10.00">communications_array.h</text>
</a>
</g>
</g>
<!-- Node1&#45;&gt;Node14 -->
<g id="edge82" class="edge">
<title>Node1&#45;&gt;Node14</title>
<path fill="none" stroke="midnightblue" d="M725.76,-784.19C750.66,-765.86 791.69,-731.67 813,-692 820.86,-677.37 826.12,-659.2 829.26,-645.8"/>
<polygon fill="midnightblue" stroke="midnightblue" points="832.72,-646.35 831.42,-635.84 825.88,-644.87 832.72,-646.35"/>
</g>
<!-- Node50 -->
<g id="node50" class="node">
<title>Node50</title>
<g id="a_node50"><a xlink:href="Nom_8h.html" target="_top" xlink:title=" ">
<polygon fill="white" stroke="black" points="142.5,-448.5 142.5,-467.5 191.5,-467.5 191.5,-448.5 142.5,-448.5"/>
<text text-anchor="middle" x="167" y="-455.5" font-family="Helvetica,sans-Serif" font-size="10.00">Nom.h</text>
</a>
</g>
</g>
<!-- Node1&#45;&gt;Node50 -->
<g id="edge83" class="edge">
<title>Node1&#45;&gt;Node50</title>
<path fill="none" stroke="midnightblue" d="M643.98,-794.9C472.71,-783.99 0,-748 0,-683 0,-683 0,-683 0,-569 0,-506.12 83.59,-477.15 132.49,-465.59"/>
<polygon fill="midnightblue" stroke="midnightblue" points="133.37,-468.98 142.36,-463.38 131.84,-462.15 133.37,-468.98"/>
</g>
<!-- Node3 -->
<g id="node3" class="node">
<title>Node3</title>
<g id="a_node3"><a xlink:href="EChaine_8h.html" target="_top" xlink:title=" ">
<polygon fill="white" stroke="black" points="263.5,-672.5 263.5,-691.5 328.5,-691.5 328.5,-672.5 263.5,-672.5"/>
<text text-anchor="middle" x="296" y="-679.5" font-family="Helvetica,sans-Serif" font-size="10.00">EChaine.h</text>
</a>
</g>
</g>
<!-- Node2&#45;&gt;Node3 -->
<g id="edge2" class="edge">
<title>Node2&#45;&gt;Node3</title>
<path fill="none" stroke="midnightblue" d="M375.74,-728.32C360.78,-719.82 337.75,-706.73 320.27,-696.8"/>
<polygon fill="midnightblue" stroke="midnightblue" points="321.65,-693.55 311.23,-691.65 318.19,-699.64 321.65,-693.55"/>
</g>
<!-- Node4 -->
<g id="node4" class="node">
<title>Node4</title>
<g id="a_node4"><a xlink:href="Entree_8h.html" target="_top" xlink:title=" ">
<polygon fill="white" stroke="black" points="366.5,-112.5 366.5,-131.5 423.5,-131.5 423.5,-112.5 366.5,-112.5"/>
<text text-anchor="middle" x="395" y="-119.5" font-family="Helvetica,sans-Serif" font-size="10.00">Entree.h</text>
</a>
</g>
</g>
<!-- Node3&#45;&gt;Node4 -->
<g id="edge3" class="edge">
<title>Node3&#45;&gt;Node4</title>
<path fill="none" stroke="midnightblue" d="M296,-672.44C296,-653.94 296,-608.81 296,-571 296,-571 296,-571 296,-289 296,-226.09 349.1,-166.29 377.53,-138.78"/>
<polygon fill="midnightblue" stroke="midnightblue" points="380.26,-141.02 385.15,-131.61 375.46,-135.92 380.26,-141.02"/>
</g>
<!-- Node12 -->
<g id="node12" class="node">
<title>Node12</title>
<g id="a_node12"><a xlink:title=" ">
<polygon fill="white" stroke="#bfbfbf" points="91,-616.5 91,-635.5 147,-635.5 147,-616.5 91,-616.5"/>
<text text-anchor="middle" x="119" y="-623.5" font-family="Helvetica,sans-Serif" font-size="10.00">sstream</text>
</a>
</g>
</g>
<!-- Node3&#45;&gt;Node12 -->
<g id="edge11" class="edge">
<title>Node3&#45;&gt;Node12</title>
<path fill="none" stroke="midnightblue" d="M267.95,-672.44C237.92,-663.28 190.09,-648.69 156.76,-638.52"/>
<polygon fill="midnightblue" stroke="midnightblue" points="157.5,-635.09 146.91,-635.52 155.46,-641.78 157.5,-635.09"/>
</g>
<!-- Node5 -->
<g id="node5" class="node">
<title>Node5</title>
<g id="a_node5"><a xlink:title=" ">
<polygon fill="white" stroke="#bfbfbf" points="384,-56.5 384,-75.5 434,-75.5 434,-56.5 384,-56.5"/>
<text text-anchor="middle" x="409" y="-63.5" font-family="Helvetica,sans-Serif" font-size="10.00">stdio.h</text>
</a>
</g>
</g>
<!-- Node4&#45;&gt;Node5 -->
<g id="edge4" class="edge">
<title>Node4&#45;&gt;Node5</title>
<path fill="none" stroke="midnightblue" d="M397.31,-112.08C399.17,-104.93 401.84,-94.64 404.15,-85.69"/>
<polygon fill="midnightblue" stroke="midnightblue" points="407.61,-86.31 406.73,-75.75 400.83,-84.55 407.61,-86.31"/>
</g>
<!-- Node6 -->
<g id="node6" class="node">
<title>Node6</title>
<g id="a_node6"><a xlink:title=" ">
<polygon fill="white" stroke="#bfbfbf" points="452,-56.5 452,-75.5 498,-75.5 498,-56.5 452,-56.5"/>
<text text-anchor="middle" x="475" y="-63.5" font-family="Helvetica,sans-Serif" font-size="10.00">cstdio</text>
</a>
</g>
</g>
<!-- Node4&#45;&gt;Node6 -->
<g id="edge5" class="edge">
<title>Node4&#45;&gt;Node6</title>
<path fill="none" stroke="midnightblue" d="M407.85,-112.32C420.22,-103.98 439.13,-91.21 453.74,-81.35"/>
<polygon fill="midnightblue" stroke="midnightblue" points="455.85,-84.15 462.18,-75.65 451.93,-78.35 455.85,-84.15"/>
</g>
<!-- Node7 -->
<g id="node7" class="node">
<title>Node7</title>
<g id="a_node7"><a xlink:title=" ">
<polygon fill="white" stroke="#bfbfbf" points="306,-56.5 306,-75.5 366,-75.5 366,-56.5 306,-56.5"/>
<text text-anchor="middle" x="336" y="-63.5" font-family="Helvetica,sans-Serif" font-size="10.00">iostream</text>
</a>
</g>
</g>
<!-- Node4&#45;&gt;Node7 -->
<g id="edge6" class="edge">
<title>Node4&#45;&gt;Node7</title>
<path fill="none" stroke="midnightblue" d="M385.52,-112.32C376.8,-104.34 363.66,-92.31 353.1,-82.65"/>
<polygon fill="midnightblue" stroke="midnightblue" points="355.39,-80 345.65,-75.83 350.67,-85.17 355.39,-80"/>
</g>
<!-- Node8 -->
<g id="node8" class="node">
<title>Node8</title>
<g id="a_node8"><a xlink:title=" ">
<polygon fill="white" stroke="#bfbfbf" points="143,-56.5 143,-75.5 199,-75.5 199,-56.5 143,-56.5"/>
<text text-anchor="middle" x="171" y="-63.5" font-family="Helvetica,sans-Serif" font-size="10.00">assert.h</text>
</a>
</g>
</g>
<!-- Node4&#45;&gt;Node8 -->
<g id="edge7" class="edge">
<title>Node4&#45;&gt;Node8</title>
<path fill="none" stroke="midnightblue" d="M366.17,-114.05C326.05,-104.38 253.31,-86.84 208.85,-76.13"/>
<polygon fill="midnightblue" stroke="midnightblue" points="209.55,-72.69 199.01,-73.75 207.91,-79.5 209.55,-72.69"/>
</g>
<!-- Node4&#45;&gt;Node9 -->
<g id="edge8" class="edge">
<title>Node4&#45;&gt;Node9</title>
<path fill="none" stroke="midnightblue" d="M423.54,-113.71C426.71,-113.06 429.92,-112.47 433,-112 665.12,-76.83 725.84,-92.93 960,-76 985.3,-74.17 1013.64,-72.01 1036.2,-70.27"/>
<polygon fill="midnightblue" stroke="midnightblue" points="1036.75,-73.74 1046.45,-69.47 1036.21,-66.76 1036.75,-73.74"/>
</g>
<!-- Node10 -->
<g id="node10" class="node">
<title>Node10</title>
<g id="a_node10"><a xlink:href="arch_8h.html" target="_top" xlink:title=" ">
<polygon fill="white" stroke="black" points="903.5,-56.5 903.5,-75.5 950.5,-75.5 950.5,-56.5 903.5,-56.5"/>
<text text-anchor="middle" x="927" y="-63.5" font-family="Helvetica,sans-Serif" font-size="10.00">arch.h</text>
</a>
</g>
</g>
<!-- Node4&#45;&gt;Node10 -->
<g id="edge9" class="edge">
<title>Node4&#45;&gt;Node10</title>
<path fill="none" stroke="midnightblue" d="M423.55,-113.78C426.72,-113.11 429.92,-112.5 433,-112 478.15,-104.63 788.67,-78.5 892.94,-69.82"/>
<polygon fill="midnightblue" stroke="midnightblue" points="893.54,-73.28 903.21,-68.97 892.96,-66.31 893.54,-73.28"/>
</g>
<!-- Node11 -->
<g id="node11" class="node">
<title>Node11</title>
<g id="a_node11"><a xlink:href="generique_8h.html" target="_top" xlink:title=" ">
<polygon fill="white" stroke="black" points="890,-0.5 890,-19.5 964,-19.5 964,-0.5 890,-0.5"/>
<text text-anchor="middle" x="927" y="-7.5" font-family="Helvetica,sans-Serif" font-size="10.00">generique.h</text>
</a>
</g>
</g>
<!-- Node10&#45;&gt;Node11 -->
<g id="edge10" class="edge">
<title>Node10&#45;&gt;Node11</title>
<path fill="none" stroke="midnightblue" d="M927,-56.08C927,-49.01 927,-38.86 927,-29.99"/>
<polygon fill="midnightblue" stroke="midnightblue" points="930.5,-29.75 927,-19.75 923.5,-29.75 930.5,-29.75"/>
</g>
<!-- Node13&#45;&gt;Node14 -->
<g id="edge14" class="edge">
<title>Node13&#45;&gt;Node14</title>
<path fill="none" stroke="midnightblue" d="M691.71,-728.35C673.85,-715.66 646.01,-691.42 661,-672 673.37,-655.97 718.23,-644.56 759.03,-637.23"/>
<polygon fill="midnightblue" stroke="midnightblue" points="759.76,-640.66 769.02,-635.5 758.57,-633.76 759.76,-640.66"/>
</g>
<!-- Node46 -->
<g id="node46" class="node">
<title>Node46</title>
<g id="a_node46"><a xlink:href="TRUSTTabs__forward_8h.html" target="_top" xlink:title=" ">
<polygon fill="white" stroke="black" points="962,-504.5 962,-523.5 1084,-523.5 1084,-504.5 962,-504.5"/>
<text text-anchor="middle" x="1023" y="-511.5" font-family="Helvetica,sans-Serif" font-size="10.00">TRUSTTabs_forward.h</text>
</a>
</g>
</g>
<!-- Node13&#45;&gt;Node46 -->
<g id="edge66" class="edge">
<title>Node13&#45;&gt;Node46</title>
<path fill="none" stroke="midnightblue" d="M757.95,-728.48C832.24,-713.35 964.73,-674.02 1022,-580 1030.43,-566.16 1029.72,-547.39 1027.47,-533.58"/>
<polygon fill="midnightblue" stroke="midnightblue" points="1030.89,-532.86 1025.48,-523.76 1024.03,-534.25 1030.89,-532.86"/>
</g>
<!-- Node47 -->
<g id="node47" class="node">
<title>Node47</title>
<g id="a_node47"><a xlink:title=" ">
<polygon fill="white" stroke="#bfbfbf" points="670.5,-672.5 670.5,-691.5 739.5,-691.5 739.5,-672.5 670.5,-672.5"/>
<text text-anchor="middle" x="705" y="-679.5" font-family="Helvetica,sans-Serif" font-size="10.00">type_traits</text>
</a>
</g>
</g>
<!-- Node13&#45;&gt;Node47 -->
<g id="edge67" class="edge">
<title>Node13&#45;&gt;Node47</title>
<path fill="none" stroke="midnightblue" d="M705,-728.08C705,-721.01 705,-710.86 705,-701.99"/>
<polygon fill="midnightblue" stroke="midnightblue" points="708.5,-701.75 705,-691.75 701.5,-701.75 708.5,-701.75"/>
</g>
<!-- Node48 -->
<g id="node48" class="node">
<title>Node48</title>
<g id="a_node48"><a xlink:href="Vect_8h.html" target="_top" xlink:title=" ">
<polygon fill="white" stroke="black" points="502.5,-672.5 502.5,-691.5 549.5,-691.5 549.5,-672.5 502.5,-672.5"/>
<text text-anchor="middle" x="526" y="-679.5" font-family="Helvetica,sans-Serif" font-size="10.00">Vect.h</text>
</a>
</g>
</g>
<!-- Node13&#45;&gt;Node48 -->
<g id="edge68" class="edge">
<title>Node13&#45;&gt;Node48</title>
<path fill="none" stroke="midnightblue" d="M676.64,-728.44C644.83,-718.85 593.3,-703.3 559.53,-693.11"/>
<polygon fill="midnightblue" stroke="midnightblue" points="560.24,-689.67 549.66,-690.14 558.22,-696.38 560.24,-689.67"/>
</g>
<!-- Node54 -->
<g id="node54" class="node">
<title>Node54</title>
<g id="a_node54"><a xlink:title=" ">
<polygon fill="white" stroke="#bfbfbf" points="757.5,-672.5 757.5,-691.5 804.5,-691.5 804.5,-672.5 757.5,-672.5"/>
<text text-anchor="middle" x="781" y="-679.5" font-family="Helvetica,sans-Serif" font-size="10.00">vector</text>
</a>
</g>
</g>
<!-- Node13&#45;&gt;Node54 -->
<g id="edge81" class="edge">
<title>Node13&#45;&gt;Node54</title>
<path fill="none" stroke="midnightblue" d="M717.21,-728.32C728.78,-720.11 746.38,-707.6 760.16,-697.81"/>
<polygon fill="midnightblue" stroke="midnightblue" points="762.44,-700.48 768.57,-691.83 758.39,-694.77 762.44,-700.48"/>
</g>
<!-- Node14&#45;&gt;Node10 -->
<g id="edge65" class="edge">
<title>Node14&#45;&gt;Node10</title>
<path fill="none" stroke="midnightblue" d="M839.73,-616.47C852.87,-599.55 882.38,-560.22 902,-524 977.46,-384.7 1002.97,-345.39 1021,-188 1025,-153.06 1021.47,-139.05 999,-112 987.72,-98.42 971.23,-87.7 956.88,-80.13"/>
<polygon fill="midnightblue" stroke="midnightblue" points="958.35,-76.95 947.84,-75.62 955.22,-83.21 958.35,-76.95"/>
</g>
<!-- Node15 -->
<g id="node15" class="node">
<title>Node15</title>
<g id="a_node15"><a xlink:href="Comm__Group_8h.html" target="_top" xlink:title=" ">
<polygon fill="white" stroke="black" points="732,-560.5 732,-579.5 824,-579.5 824,-560.5 732,-560.5"/>
<text text-anchor="middle" x="778" y="-567.5" font-family="Helvetica,sans-Serif" font-size="10.00">Comm_Group.h</text>
</a>
</g>
</g>
<!-- Node14&#45;&gt;Node15 -->
<g id="edge15" class="edge">
<title>Node14&#45;&gt;Node15</title>
<path fill="none" stroke="midnightblue" d="M823.92,-616.08C815.83,-608.14 803.8,-596.34 794.09,-586.8"/>
<polygon fill="midnightblue" stroke="midnightblue" points="796.5,-584.26 786.91,-579.75 791.6,-589.25 796.5,-584.26"/>
</g>
<!-- Node45 -->
<g id="node45" class="node">
<title>Node45</title>
<g id="a_node45"><a xlink:href="PE__Groups_8h.html" target="_top" xlink:title=" ">
<polygon fill="white" stroke="black" points="935.5,-560.5 935.5,-579.5 1012.5,-579.5 1012.5,-560.5 935.5,-560.5"/>
<text text-anchor="middle" x="974" y="-567.5" font-family="Helvetica,sans-Serif" font-size="10.00">PE_Groups.h</text>
</a>
</g>
</g>
<!-- Node14&#45;&gt;Node45 -->
<g id="edge62" class="edge">
<title>Node14&#45;&gt;Node45</title>
<path fill="none" stroke="midnightblue" d="M855.34,-616.44C878.75,-607.48 915.74,-593.31 942.19,-583.18"/>
<polygon fill="midnightblue" stroke="midnightblue" points="943.68,-586.36 951.76,-579.52 941.17,-579.82 943.68,-586.36"/>
</g>
<!-- Node15&#45;&gt;Node8 -->
<g id="edge16" class="edge">
<title>Node15&#45;&gt;Node8</title>
<path fill="none" stroke="midnightblue" d="M731.87,-563.88C629.63,-551.73 388.03,-518.36 325,-468 199.12,-367.43 176.03,-151 171.88,-85.9"/>
<polygon fill="midnightblue" stroke="midnightblue" points="175.36,-85.36 171.31,-75.57 168.37,-85.75 175.36,-85.36"/>
</g>
<!-- Node16 -->
<g id="node16" class="node">
<title>Node16</title>
<g id="a_node16"><a xlink:href="TRUSTArray_8h.html" target="_top" xlink:title=" ">
<polygon fill="white" stroke="black" points="700,-448.5 700,-467.5 782,-467.5 782,-448.5 700,-448.5"/>
<text text-anchor="middle" x="741" y="-455.5" font-family="Helvetica,sans-Serif" font-size="10.00">TRUSTArray.h</text>
</a>
</g>
</g>
<!-- Node15&#45;&gt;Node16 -->
<g id="edge17" class="edge">
<title>Node15&#45;&gt;Node16</title>
<path fill="none" stroke="midnightblue" d="M774.3,-560.47C770.48,-551.48 764.45,-536.88 760,-524 754.66,-508.55 749.52,-490.7 745.93,-477.62"/>
<polygon fill="midnightblue" stroke="midnightblue" points="749.3,-476.66 743.31,-467.92 742.54,-478.48 749.3,-476.66"/>
</g>
<!-- Node40 -->
<g id="node40" class="node">
<title>Node40</title>
<g id="a_node40"><a xlink:href="Deriv__Comm__Group_8h.html" target="_top" xlink:title=" ">
<polygon fill="white" stroke="black" points="769,-504.5 769,-523.5 893,-523.5 893,-504.5 769,-504.5"/>
<text text-anchor="middle" x="831" y="-511.5" font-family="Helvetica,sans-Serif" font-size="10.00">Deriv_Comm_Group.h</text>
</a>
</g>
</g>
<!-- Node15&#45;&gt;Node40 -->
<g id="edge56" class="edge">
<title>Node15&#45;&gt;Node40</title>
<path fill="none" stroke="midnightblue" d="M786.75,-560.08C794.47,-552.22 805.9,-540.57 815.22,-531.08"/>
<polygon fill="midnightblue" stroke="midnightblue" points="817.9,-533.34 822.41,-523.75 812.91,-528.44 817.9,-533.34"/>
</g>
<!-- Node17 -->
<g id="node17" class="node">
<title>Node17</title>
<g id="a_node17"><a xlink:href="TRUSTIterator_8h.html" target="_top" xlink:title=" ">
<polygon fill="white" stroke="black" points="880.5,-112.5 880.5,-131.5 973.5,-131.5 973.5,-112.5 880.5,-112.5"/>
<text text-anchor="middle" x="927" y="-119.5" font-family="Helvetica,sans-Serif" font-size="10.00">TRUSTIterator.h</text>
</a>
</g>
</g>
<!-- Node16&#45;&gt;Node17 -->
<g id="edge18" class="edge">
<title>Node16&#45;&gt;Node17</title>
<path fill="none" stroke="midnightblue" d="M782.31,-453.7C812.95,-449.11 853.65,-438.14 879,-412 899.95,-390.39 898,-377.1 898,-347 898,-347 898,-347 898,-233 898,-199.72 910.57,-162.58 919.16,-141.09"/>
<polygon fill="midnightblue" stroke="midnightblue" points="922.48,-142.21 923.09,-131.64 916.02,-139.53 922.48,-142.21"/>
</g>
<!-- Node18 -->
<g id="node18" class="node">
<title>Node18</title>
<g id="a_node18"><a xlink:href="VTRUSTdata_8h.html" target="_top" xlink:title=" ">
<polygon fill="white" stroke="black" points="428,-392.5 428,-411.5 514,-411.5 514,-392.5 428,-392.5"/>
<text text-anchor="middle" x="471" y="-399.5" font-family="Helvetica,sans-Serif" font-size="10.00">VTRUSTdata.h</text>
</a>
</g>
</g>
<!-- Node16&#45;&gt;Node18 -->
<g id="edge21" class="edge">
<title>Node16&#45;&gt;Node18</title>
<path fill="none" stroke="midnightblue" d="M699.99,-448.8C652.83,-439.37 575.29,-423.86 523.69,-413.54"/>
<polygon fill="midnightblue" stroke="midnightblue" points="524.23,-410.08 513.73,-411.55 522.85,-416.94 524.23,-410.08"/>
</g>
<!-- Node19 -->
<g id="node19" class="node">
<title>Node19</title>
<g id="a_node19"><a xlink:href="Array__base_8h.html" target="_top" xlink:title=" ">
<polygon fill="white" stroke="black" points="562,-336.5 562,-355.5 642,-355.5 642,-336.5 562,-336.5"/>
<text text-anchor="middle" x="602" y="-343.5" font-family="Helvetica,sans-Serif" font-size="10.00">Array_base.h</text>
</a>
</g>
</g>
<!-- Node16&#45;&gt;Node19 -->
<g id="edge46" class="edge">
<title>Node16&#45;&gt;Node19</title>
<path fill="none" stroke="midnightblue" d="M699.83,-452.54C652.13,-446.42 577.9,-433.64 561,-412 548.34,-395.79 565.79,-375.54 581.68,-361.99"/>
<polygon fill="midnightblue" stroke="midnightblue" points="584.07,-364.56 589.68,-355.57 579.69,-359.1 584.07,-364.56"/>
</g>
<!-- Node33 -->
<g id="node33" class="node">
<title>Node33</title>
<g id="a_node33"><a xlink:href="Double_8h.html" target="_top" xlink:title=" ">
<polygon fill="white" stroke="black" points="926,-280.5 926,-299.5 986,-299.5 986,-280.5 926,-280.5"/>
<text text-anchor="middle" x="956" y="-287.5" font-family="Helvetica,sans-Serif" font-size="10.00">Double.h</text>
</a>
</g>
</g>
<!-- Node16&#45;&gt;Node33 -->
<g id="edge47" class="edge">
<title>Node16&#45;&gt;Node33</title>
<path fill="none" stroke="midnightblue" d="M782.33,-456.57C820.51,-453.99 876.51,-444.38 912,-412 941.62,-384.97 951.33,-336.42 954.49,-309.77"/>
<polygon fill="midnightblue" stroke="midnightblue" points="957.98,-310.11 955.49,-299.82 951.01,-309.42 957.98,-310.11"/>
</g>
<!-- Node36 -->
<g id="node36" class="node">
<title>Node36</title>
<g id="a_node36"><a xlink:title=" ">
<polygon fill="white" stroke="#bfbfbf" points="820,-392.5 820,-411.5 870,-411.5 870,-392.5 820,-392.5"/>
<text text-anchor="middle" x="845" y="-399.5" font-family="Helvetica,sans-Serif" font-size="10.00">climits</text>
</a>
</g>
</g>
<!-- Node16&#45;&gt;Node36 -->
<g id="edge52" class="edge">
<title>Node16&#45;&gt;Node36</title>
<path fill="none" stroke="midnightblue" d="M757.71,-448.32C774.31,-439.7 800,-426.36 819.22,-416.39"/>
<polygon fill="midnightblue" stroke="midnightblue" points="821.07,-419.37 828.33,-411.65 817.84,-413.16 821.07,-419.37"/>
</g>
<!-- Node37 -->
<g id="node37" class="node">
<title>Node37</title>
<g id="a_node37"><a xlink:href="TRUSTArray__tools_8tpp.html" target="_top" xlink:title=" ">
<polygon fill="white" stroke="black" points="680,-392.5 680,-411.5 802,-411.5 802,-392.5 680,-392.5"/>
<text text-anchor="middle" x="741" y="-399.5" font-family="Helvetica,sans-Serif" font-size="10.00">TRUSTArray_tools.tpp</text>
</a>
</g>
</g>
<!-- Node16&#45;&gt;Node37 -->
<g id="edge53" class="edge">
<title>Node16&#45;&gt;Node37</title>
<path fill="none" stroke="midnightblue" d="M741,-448.08C741,-441.01 741,-430.86 741,-421.99"/>
<polygon fill="midnightblue" stroke="midnightblue" points="744.5,-421.75 741,-411.75 737.5,-421.75 744.5,-421.75"/>
</g>
<!-- Node38 -->
<g id="node38" class="node">
<title>Node38</title>
<g id="a_node38"><a xlink:href="TRUSTArray_8tpp.html" target="_top" xlink:title=" ">
<polygon fill="white" stroke="black" points="570,-392.5 570,-411.5 662,-411.5 662,-392.5 570,-392.5"/>
<text text-anchor="middle" x="616" y="-399.5" font-family="Helvetica,sans-Serif" font-size="10.00">TRUSTArray.tpp</text>
</a>
</g>
</g>
<!-- Node16&#45;&gt;Node38 -->
<g id="edge54" class="edge">
<title>Node16&#45;&gt;Node38</title>
<path fill="none" stroke="midnightblue" d="M721.19,-448.44C700.71,-439.6 668.52,-425.69 645.14,-415.59"/>
<polygon fill="midnightblue" stroke="midnightblue" points="646.28,-412.27 635.71,-411.52 643.51,-418.7 646.28,-412.27"/>
</g>
<!-- Node17&#45;&gt;Node7 -->
<g id="edge19" class="edge">
<title>Node17&#45;&gt;Node7</title>
<path fill="none" stroke="midnightblue" d="M880.29,-113.18C877.15,-112.75 874.03,-112.35 871,-112 654.78,-86.83 595.34,-108.28 376.36,-75.97"/>
<polygon fill="midnightblue" stroke="midnightblue" points="376.55,-72.46 366.15,-74.44 375.52,-79.38 376.55,-72.46"/>
</g>
<!-- Node17&#45;&gt;Node10 -->
<g id="edge20" class="edge">
<title>Node17&#45;&gt;Node10</title>
<path fill="none" stroke="midnightblue" d="M927,-112.08C927,-105.01 927,-94.86 927,-85.99"/>
<polygon fill="midnightblue" stroke="midnightblue" points="930.5,-85.75 927,-75.75 923.5,-85.75 930.5,-85.75"/>
</g>
<!-- Node18&#45;&gt;Node8 -->
<g id="edge44" class="edge">
<title>Node18&#45;&gt;Node8</title>
<path fill="none" stroke="midnightblue" d="M427.82,-392.61C387.87,-384.14 332.16,-370.3 315,-356 225.31,-281.27 186.25,-136.88 174.8,-85.61"/>
<polygon fill="midnightblue" stroke="midnightblue" points="178.18,-84.69 172.67,-75.65 171.34,-86.16 178.18,-84.69"/>
</g>
<!-- Node18&#45;&gt;Node19 -->
<g id="edge22" class="edge">
<title>Node18&#45;&gt;Node19</title>
<path fill="none" stroke="midnightblue" d="M491.76,-392.44C513.32,-383.56 547.26,-369.56 571.79,-359.45"/>
<polygon fill="midnightblue" stroke="midnightblue" points="573.43,-362.56 581.34,-355.52 570.76,-356.09 573.43,-362.56"/>
</g>
<!-- Node30 -->
<g id="node30" class="node">
<title>Node30</title>
<g id="a_node30"><a xlink:href="Memoire_8h.html" target="_top" xlink:title=" ">
<polygon fill="white" stroke="black" points="399.5,-336.5 399.5,-355.5 468.5,-355.5 468.5,-336.5 399.5,-336.5"/>
<text text-anchor="middle" x="434" y="-343.5" font-family="Helvetica,sans-Serif" font-size="10.00">Memoire.h</text>
</a>
</g>
</g>
<!-- Node18&#45;&gt;Node30 -->
<g id="edge40" class="edge">
<title>Node18&#45;&gt;Node30</title>
<path fill="none" stroke="midnightblue" d="M464.89,-392.08C459.72,-384.53 452.15,-373.49 445.81,-364.23"/>
<polygon fill="midnightblue" stroke="midnightblue" points="448.54,-362.02 440,-355.75 442.76,-365.98 448.54,-362.02"/>
</g>
<!-- Node32 -->
<g id="node32" class="node">
<title>Node32</title>
<g id="a_node32"><a xlink:title=" ">
<polygon fill="white" stroke="#bfbfbf" points="486.5,-336.5 486.5,-355.5 543.5,-355.5 543.5,-336.5 486.5,-336.5"/>
<text text-anchor="middle" x="515" y="-343.5" font-family="Helvetica,sans-Serif" font-size="10.00">typeinfo</text>
</a>
</g>
</g>
<!-- Node18&#45;&gt;Node32 -->
<g id="edge45" class="edge">
<title>Node18&#45;&gt;Node32</title>
<path fill="none" stroke="midnightblue" d="M478.27,-392.08C484.54,-384.38 493.79,-373.03 501.43,-363.65"/>
<polygon fill="midnightblue" stroke="midnightblue" points="504.27,-365.71 507.87,-355.75 498.84,-361.29 504.27,-365.71"/>
</g>
<!-- Node20 -->
<g id="node20" class="node">
<title>Node20</title>
<g id="a_node20"><a xlink:href="Objet__U_8h.html" target="_top" xlink:title=" ">
<polygon fill="white" stroke="black" points="472.5,-224.5 472.5,-243.5 537.5,-243.5 537.5,-224.5 472.5,-224.5"/>
<text text-anchor="middle" x="505" y="-231.5" font-family="Helvetica,sans-Serif" font-size="10.00">Objet_U.h</text>
</a>
</g>
</g>
<!-- Node19&#45;&gt;Node20 -->
<g id="edge23" class="edge">
<title>Node19&#45;&gt;Node20</title>
<path fill="none" stroke="midnightblue" d="M594.47,-336.1C583.79,-323.52 563.58,-299.84 546,-280 537.4,-270.29 527.61,-259.54 519.76,-250.99"/>
<polygon fill="midnightblue" stroke="midnightblue" points="522.28,-248.55 512.93,-243.56 517.13,-253.29 522.28,-248.55"/>
</g>
<!-- Node20&#45;&gt;Node8 -->
<g id="edge24" class="edge">
<title>Node20&#45;&gt;Node8</title>
<path fill="none" stroke="midnightblue" d="M479.02,-224.4C454.61,-216.03 417.26,-202.49 386,-188 313.27,-154.3 231.98,-105.21 193.51,-81.24"/>
<polygon fill="midnightblue" stroke="midnightblue" points="195.02,-78.05 184.69,-75.71 191.3,-83.99 195.02,-78.05"/>
</g>
<!-- Node20&#45;&gt;Node9 -->
<g id="edge39" class="edge">
<title>Node20&#45;&gt;Node9</title>
<path fill="none" stroke="midnightblue" d="M537.79,-232.02C645.13,-228.56 981.4,-215.61 1021,-188 1055.66,-163.84 1069.84,-112.91 1075.15,-85.46"/>
<polygon fill="midnightblue" stroke="midnightblue" points="1078.6,-86.03 1076.87,-75.58 1071.71,-84.83 1078.6,-86.03"/>
</g>
<!-- Node21 -->
<g id="node21" class="node">
<title>Node21</title>
<g id="a_node21"><a xlink:href="DecBaseInst_8h.html" target="_top" xlink:title=" ">
<polygon fill="white" stroke="black" points="641,-168.5 641,-187.5 727,-187.5 727,-168.5 641,-168.5"/>
<text text-anchor="middle" x="684" y="-175.5" font-family="Helvetica,sans-Serif" font-size="10.00">DecBaseInst.h</text>
</a>
</g>
</g>
<!-- Node20&#45;&gt;Node21 -->
<g id="edge25" class="edge">
<title>Node20&#45;&gt;Node21</title>
<path fill="none" stroke="midnightblue" d="M533.36,-224.44C563.74,-215.28 612.11,-200.69 645.82,-190.52"/>
<polygon fill="midnightblue" stroke="midnightblue" points="647.21,-193.76 655.77,-187.52 645.18,-187.05 647.21,-193.76"/>
</g>
<!-- Node26 -->
<g id="node26" class="node">
<title>Node26</title>
<g id="a_node26"><a xlink:href="EntreeSortie_8h.html" target="_top" xlink:title=" ">
<polygon fill="white" stroke="black" points="395,-168.5 395,-187.5 481,-187.5 481,-168.5 395,-168.5"/>
<text text-anchor="middle" x="438" y="-175.5" font-family="Helvetica,sans-Serif" font-size="10.00">EntreeSortie.h</text>
</a>
</g>
</g>
<!-- Node20&#45;&gt;Node26 -->
<g id="edge31" class="edge">
<title>Node20&#45;&gt;Node26</title>
<path fill="none" stroke="midnightblue" d="M494.24,-224.32C484.23,-216.26 469.11,-204.08 457.07,-194.37"/>
<polygon fill="midnightblue" stroke="midnightblue" points="458.94,-191.38 448.96,-187.83 454.55,-196.83 458.94,-191.38"/>
</g>
<!-- Node22 -->
<g id="node22" class="node">
<title>Node22</title>
<g id="a_node22"><a xlink:href="Cast_8h.html" target="_top" xlink:title=" ">
<polygon fill="white" stroke="black" points="759.5,-56.5 759.5,-75.5 806.5,-75.5 806.5,-56.5 759.5,-56.5"/>
<text text-anchor="middle" x="783" y="-63.5" font-family="Helvetica,sans-Serif" font-size="10.00">Cast.h</text>
</a>
</g>
</g>
<!-- Node21&#45;&gt;Node22 -->
<g id="edge26" class="edge">
<title>Node21&#45;&gt;Node22</title>
<path fill="none" stroke="midnightblue" d="M693.21,-168.27C702.49,-159.38 717.09,-145.06 729,-132 743.6,-115.99 759.32,-96.83 770.01,-83.47"/>
<polygon fill="midnightblue" stroke="midnightblue" points="772.77,-85.63 776.25,-75.63 767.29,-81.27 772.77,-85.63"/>
</g>
<!-- Node23 -->
<g id="node23" class="node">
<title>Node23</title>
<g id="a_node23"><a xlink:href="Type__info_8h.html" target="_top" xlink:title=" ">
<polygon fill="white" stroke="black" points="648,-112.5 648,-131.5 720,-131.5 720,-112.5 648,-112.5"/>
<text text-anchor="middle" x="684" y="-119.5" font-family="Helvetica,sans-Serif" font-size="10.00">Type_info.h</text>
</a>
</g>
</g>
<!-- Node21&#45;&gt;Node23 -->
<g id="edge27" class="edge">
<title>Node21&#45;&gt;Node23</title>
<path fill="none" stroke="midnightblue" d="M684,-168.08C684,-161.01 684,-150.86 684,-141.99"/>
<polygon fill="midnightblue" stroke="midnightblue" points="687.5,-141.75 684,-131.75 680.5,-141.75 687.5,-141.75"/>
</g>
<!-- Node24 -->
<g id="node24" class="node">
<title>Node24</title>
<g id="a_node24"><a xlink:href="Declare__Base_8h.html" target="_top" xlink:title=" ">
<polygon fill="white" stroke="black" points="538,-112.5 538,-131.5 630,-131.5 630,-112.5 538,-112.5"/>
<text text-anchor="middle" x="584" y="-119.5" font-family="Helvetica,sans-Serif" font-size="10.00">Declare_Base.h</text>
</a>
</g>
</g>
<!-- Node21&#45;&gt;Node24 -->
<g id="edge28" class="edge">
<title>Node21&#45;&gt;Node24</title>
<path fill="none" stroke="midnightblue" d="M667.93,-168.32C652.04,-159.74 627.49,-146.49 609.04,-136.52"/>
<polygon fill="midnightblue" stroke="midnightblue" points="610.49,-133.33 600.03,-131.65 607.16,-139.49 610.49,-133.33"/>
</g>
<!-- Node25 -->
<g id="node25" class="node">
<title>Node25</title>
<g id="a_node25"><a xlink:href="Declare__Inst_8h.html" target="_top" xlink:title=" ">
<polygon fill="white" stroke="black" points="776,-112.5 776,-131.5 862,-131.5 862,-112.5 776,-112.5"/>
<text text-anchor="middle" x="819" y="-119.5" font-family="Helvetica,sans-Serif" font-size="10.00">Declare_Inst.h</text>
</a>
</g>
</g>
<!-- Node21&#45;&gt;Node25 -->
<g id="edge29" class="edge">
<title>Node21&#45;&gt;Node25</title>
<path fill="none" stroke="midnightblue" d="M705.39,-168.44C727.71,-159.52 762.9,-145.44 788.21,-135.32"/>
<polygon fill="midnightblue" stroke="midnightblue" points="789.72,-138.48 797.71,-131.52 787.12,-131.98 789.72,-138.48"/>
</g>
<!-- Node25&#45;&gt;Node22 -->
<g id="edge30" class="edge">
<title>Node25&#45;&gt;Node22</title>
<path fill="none" stroke="midnightblue" d="M813.06,-112.08C808.02,-104.53 800.66,-93.49 794.49,-84.23"/>
<polygon fill="midnightblue" stroke="midnightblue" points="797.29,-82.13 788.83,-75.75 791.47,-86.01 797.29,-82.13"/>
</g>
<!-- Node26&#45;&gt;Node4 -->
<g id="edge32" class="edge">
<title>Node26&#45;&gt;Node4</title>
<path fill="none" stroke="midnightblue" d="M430.9,-168.08C424.76,-160.38 415.73,-149.03 408.26,-139.65"/>
<polygon fill="midnightblue" stroke="midnightblue" points="410.94,-137.39 401.97,-131.75 405.46,-141.75 410.94,-137.39"/>
</g>
<!-- Node27 -->
<g id="node27" class="node">
<title>Node27</title>
<g id="a_node27"><a xlink:href="Sortie_8h.html" target="_top" xlink:title=" ">
<polygon fill="white" stroke="black" points="294,-112.5 294,-131.5 348,-131.5 348,-112.5 294,-112.5"/>
<text text-anchor="middle" x="321" y="-119.5" font-family="Helvetica,sans-Serif" font-size="10.00">Sortie.h</text>
</a>
</g>
</g>
<!-- Node26&#45;&gt;Node27 -->
<g id="edge33" class="edge">
<title>Node26&#45;&gt;Node27</title>
<path fill="none" stroke="midnightblue" d="M419.46,-168.44C400.38,-159.64 370.43,-145.81 348.56,-135.72"/>
<polygon fill="midnightblue" stroke="midnightblue" points="350,-132.53 339.45,-131.52 347.07,-138.88 350,-132.53"/>
</g>
<!-- Node29 -->
<g id="node29" class="node">
<title>Node29</title>
<g id="a_node29"><a xlink:href="Separateur_8h.html" target="_top" xlink:title=" ">
<polygon fill="white" stroke="black" points="442,-112.5 442,-131.5 520,-131.5 520,-112.5 442,-112.5"/>
<text text-anchor="middle" x="481" y="-119.5" font-family="Helvetica,sans-Serif" font-size="10.00">Separateur.h</text>
</a>
</g>
</g>
<!-- Node26&#45;&gt;Node29 -->
<g id="edge38" class="edge">
<title>Node26&#45;&gt;Node29</title>
<path fill="none" stroke="midnightblue" d="M445.1,-168.08C451.24,-160.38 460.27,-149.03 467.74,-139.65"/>
<polygon fill="midnightblue" stroke="midnightblue" points="470.54,-141.75 474.03,-131.75 465.06,-137.39 470.54,-141.75"/>
</g>
<!-- Node27&#45;&gt;Node7 -->
<g id="edge34" class="edge">
<title>Node27&#45;&gt;Node7</title>
<path fill="none" stroke="midnightblue" d="M323.48,-112.08C325.49,-104.85 328.39,-94.41 330.89,-85.4"/>
<polygon fill="midnightblue" stroke="midnightblue" points="334.26,-86.32 333.57,-75.75 327.52,-84.45 334.26,-86.32"/>
</g>
<!-- Node27&#45;&gt;Node8 -->
<g id="edge35" class="edge">
<title>Node27&#45;&gt;Node8</title>
<path fill="none" stroke="midnightblue" d="M297.23,-112.44C272.11,-103.4 232.29,-89.06 204.1,-78.92"/>
<polygon fill="midnightblue" stroke="midnightblue" points="205.25,-75.61 194.66,-75.52 202.88,-82.2 205.25,-75.61"/>
</g>
<!-- Node27&#45;&gt;Node10 -->
<g id="edge36" class="edge">
<title>Node27&#45;&gt;Node10</title>
<path fill="none" stroke="midnightblue" d="M348.03,-113.73C351.04,-113.07 354.08,-112.48 357,-112 558.52,-79.13 611.46,-92.18 815,-76 841.24,-73.91 870.93,-71.53 893.14,-69.74"/>
<polygon fill="midnightblue" stroke="midnightblue" points="893.72,-73.2 903.4,-68.91 893.15,-66.22 893.72,-73.2"/>
</g>
<!-- Node28 -->
<g id="node28" class="node">
<title>Node28</title>
<g id="a_node28"><a xlink:title=" ">
<polygon fill="white" stroke="#bfbfbf" points="244,-56.5 244,-75.5 288,-75.5 288,-56.5 244,-56.5"/>
<text text-anchor="middle" x="266" y="-63.5" font-family="Helvetica,sans-Serif" font-size="10.00">string</text>
</a>
</g>
</g>
<!-- Node27&#45;&gt;Node28 -->
<g id="edge37" class="edge">
<title>Node27&#45;&gt;Node28</title>
<path fill="none" stroke="midnightblue" d="M311.92,-112.08C303.83,-104.14 291.8,-92.34 282.09,-82.8"/>
<polygon fill="midnightblue" stroke="midnightblue" points="284.5,-80.26 274.91,-75.75 279.6,-85.25 284.5,-80.26"/>
</g>
<!-- Node31 -->
<g id="node31" class="node">
<title>Node31</title>
<g id="a_node31"><a xlink:href="Memoire__ptr_8h.html" target="_top" xlink:title=" ">
<polygon fill="white" stroke="black" points="367.5,-280.5 367.5,-299.5 454.5,-299.5 454.5,-280.5 367.5,-280.5"/>
<text text-anchor="middle" x="411" y="-287.5" font-family="Helvetica,sans-Serif" font-size="10.00">Memoire_ptr.h</text>
</a>
</g>
</g>
<!-- Node30&#45;&gt;Node31 -->
<g id="edge41" class="edge">
<title>Node30&#45;&gt;Node31</title>
<path fill="none" stroke="midnightblue" d="M430.2,-336.08C427.09,-328.77 422.58,-318.18 418.71,-309.1"/>
<polygon fill="midnightblue" stroke="midnightblue" points="421.87,-307.58 414.73,-299.75 415.43,-310.32 421.87,-307.58"/>
</g>
<!-- Node31&#45;&gt;Node8 -->
<g id="edge43" class="edge">
<title>Node31&#45;&gt;Node8</title>
<path fill="none" stroke="midnightblue" d="M401.78,-280.5C376.22,-256.94 302.31,-188.78 241,-132 222.89,-115.23 202.19,-96 188.02,-82.83"/>
<polygon fill="midnightblue" stroke="midnightblue" points="190.21,-80.09 180.5,-75.84 185.44,-85.21 190.21,-80.09"/>
</g>
<!-- Node31&#45;&gt;Node20 -->
<g id="edge42" class="edge">
<title>Node31&#45;&gt;Node20</title>
<path fill="none" stroke="midnightblue" d="M426.1,-280.32C440.9,-271.82 463.69,-258.73 480.98,-248.8"/>
<polygon fill="midnightblue" stroke="midnightblue" points="483.01,-251.67 489.93,-243.65 479.52,-245.6 483.01,-251.67"/>
</g>
<!-- Node33&#45;&gt;Node20 -->
<g id="edge50" class="edge">
<title>Node33&#45;&gt;Node20</title>
<path fill="none" stroke="midnightblue" d="M925.71,-285.37C847.44,-276 638.27,-250.96 547.74,-240.12"/>
<polygon fill="midnightblue" stroke="midnightblue" points="547.91,-236.61 537.57,-238.9 547.08,-243.56 547.91,-236.61"/>
</g>
<!-- Node34 -->
<g id="node34" class="node">
<title>Node34</title>
<g id="a_node34"><a xlink:href="blas1_8h.html" target="_top" xlink:title=" ">
<polygon fill="white" stroke="black" points="960,-168.5 960,-187.5 1012,-187.5 1012,-168.5 960,-168.5"/>
<text text-anchor="middle" x="986" y="-175.5" font-family="Helvetica,sans-Serif" font-size="10.00">blas1.h</text>
</a>
</g>
</g>
<!-- Node33&#45;&gt;Node34 -->
<g id="edge48" class="edge">
<title>Node33&#45;&gt;Node34</title>
<path fill="none" stroke="midnightblue" d="M963.01,-280.32C969.53,-271.69 978.84,-257.78 983,-244 987.55,-228.94 988.04,-211.04 987.54,-197.84"/>
<polygon fill="midnightblue" stroke="midnightblue" points="991.02,-197.41 986.92,-187.64 984.03,-197.83 991.02,-197.41"/>
</g>
<!-- Node35 -->
<g id="node35" class="node">
<title>Node35</title>
<g id="a_node35"><a xlink:title=" ">
<polygon fill="white" stroke="#bfbfbf" points="926.5,-224.5 926.5,-243.5 973.5,-243.5 973.5,-224.5 926.5,-224.5"/>
<text text-anchor="middle" x="950" y="-231.5" font-family="Helvetica,sans-Serif" font-size="10.00">cmath</text>
</a>
</g>
</g>
<!-- Node33&#45;&gt;Node35 -->
<g id="edge51" class="edge">
<title>Node33&#45;&gt;Node35</title>
<path fill="none" stroke="midnightblue" d="M955.01,-280.08C954.21,-272.93 953.07,-262.64 952.08,-253.69"/>
<polygon fill="midnightblue" stroke="midnightblue" points="955.56,-253.3 950.97,-243.75 948.6,-254.08 955.56,-253.3"/>
</g>
<!-- Node34&#45;&gt;Node10 -->
<g id="edge49" class="edge">
<title>Node34&#45;&gt;Node10</title>
<path fill="none" stroke="midnightblue" d="M987.73,-168.44C989.9,-155.45 992.31,-130.33 983,-112 976.45,-99.1 964.34,-88.65 953.05,-81.08"/>
<polygon fill="midnightblue" stroke="midnightblue" points="954.64,-77.95 944.3,-75.64 950.94,-83.89 954.64,-77.95"/>
</g>
<!-- Node39 -->
<g id="node39" class="node">
<title>Node39</title>
<g id="a_node39"><a xlink:title=" ">
<polygon fill="white" stroke="#bfbfbf" points="660.5,-336.5 660.5,-355.5 713.5,-355.5 713.5,-336.5 660.5,-336.5"/>
<text text-anchor="middle" x="687" y="-343.5" font-family="Helvetica,sans-Serif" font-size="10.00">string.h</text>
</a>
</g>
</g>
<!-- Node38&#45;&gt;Node39 -->
<g id="edge55" class="edge">
<title>Node38&#45;&gt;Node39</title>
<path fill="none" stroke="midnightblue" d="M627.41,-392.32C638.11,-384.18 654.34,-371.84 667.16,-362.09"/>
<polygon fill="midnightblue" stroke="midnightblue" points="669.54,-364.67 675.39,-355.83 665.31,-359.1 669.54,-364.67"/>
</g>
<!-- Node41 -->
<g id="node41" class="node">
<title>Node41</title>
<g id="a_node41"><a xlink:href="Deriv_8h.html" target="_top" xlink:title=" ">
<polygon fill="white" stroke="black" points="334.5,-448.5 334.5,-467.5 385.5,-467.5 385.5,-448.5 334.5,-448.5"/>
<text text-anchor="middle" x="360" y="-455.5" font-family="Helvetica,sans-Serif" font-size="10.00">Deriv.h</text>
</a>
</g>
</g>
<!-- Node40&#45;&gt;Node41 -->
<g id="edge57" class="edge">
<title>Node40&#45;&gt;Node41</title>
<path fill="none" stroke="midnightblue" d="M768.94,-505.88C669.01,-494.43 475.59,-472.25 395.78,-463.1"/>
<polygon fill="midnightblue" stroke="midnightblue" points="396.07,-459.61 385.73,-461.95 395.27,-466.57 396.07,-459.61"/>
</g>
<!-- Node42 -->
<g id="node42" class="node">
<title>Node42</title>
<g id="a_node42"><a xlink:href="MacDeriv_8h.html" target="_top" xlink:title=" ">
<polygon fill="white" stroke="black" points="324.5,-392.5 324.5,-411.5 395.5,-411.5 395.5,-392.5 324.5,-392.5"/>
<text text-anchor="middle" x="360" y="-399.5" font-family="Helvetica,sans-Serif" font-size="10.00">MacDeriv.h</text>
</a>
</g>
</g>
<!-- Node41&#45;&gt;Node42 -->
<g id="edge58" class="edge">
<title>Node41&#45;&gt;Node42</title>
<path fill="none" stroke="midnightblue" d="M360,-448.08C360,-441.01 360,-430.86 360,-421.99"/>
<polygon fill="midnightblue" stroke="midnightblue" points="363.5,-421.75 360,-411.75 356.5,-421.75 363.5,-421.75"/>
</g>
<!-- Node43 -->
<g id="node43" class="node">
<title>Node43</title>
<g id="a_node43"><a xlink:href="Deriv___8h.html" target="_top" xlink:title=" ">
<polygon fill="white" stroke="black" points="324.5,-336.5 324.5,-355.5 381.5,-355.5 381.5,-336.5 324.5,-336.5"/>
<text text-anchor="middle" x="353" y="-343.5" font-family="Helvetica,sans-Serif" font-size="10.00">Deriv_.h</text>
</a>
</g>
</g>
<!-- Node42&#45;&gt;Node43 -->
<g id="edge59" class="edge">
<title>Node42&#45;&gt;Node43</title>
<path fill="none" stroke="midnightblue" d="M358.84,-392.08C357.92,-384.93 356.58,-374.64 355.42,-365.69"/>
<polygon fill="midnightblue" stroke="midnightblue" points="358.89,-365.22 354.13,-355.75 351.95,-366.12 358.89,-365.22"/>
</g>
<!-- Node44 -->
<g id="node44" class="node">
<title>Node44</title>
<g id="a_node44"><a xlink:href="O__U__Ptr_8h.html" target="_top" xlink:title=" ">
<polygon fill="white" stroke="black" points="473,-280.5 473,-299.5 537,-299.5 537,-280.5 473,-280.5"/>
<text text-anchor="middle" x="505" y="-287.5" font-family="Helvetica,sans-Serif" font-size="10.00">O_U_Ptr.h</text>
</a>
</g>
</g>
<!-- Node43&#45;&gt;Node44 -->
<g id="edge60" class="edge">
<title>Node43&#45;&gt;Node44</title>
<path fill="none" stroke="midnightblue" d="M377.08,-336.44C402.54,-327.4 442.89,-313.06 471.46,-302.92"/>
<polygon fill="midnightblue" stroke="midnightblue" points="472.78,-306.16 481.03,-299.52 470.43,-299.57 472.78,-306.16"/>
</g>
<!-- Node44&#45;&gt;Node20 -->
<g id="edge61" class="edge">
<title>Node44&#45;&gt;Node20</title>
<path fill="none" stroke="midnightblue" d="M505,-280.08C505,-273.01 505,-262.86 505,-253.99"/>
<polygon fill="midnightblue" stroke="midnightblue" points="508.5,-253.75 505,-243.75 501.5,-253.75 508.5,-253.75"/>
</g>
<!-- Node45&#45;&gt;Node40 -->
<g id="edge64" class="edge">
<title>Node45&#45;&gt;Node40</title>
<path fill="none" stroke="midnightblue" d="M951.34,-560.44C927.6,-551.48 890.09,-537.31 863.26,-527.18"/>
<polygon fill="midnightblue" stroke="midnightblue" points="864.14,-523.77 853.55,-523.52 861.67,-530.32 864.14,-523.77"/>
</g>
<!-- Node45&#45;&gt;Node46 -->
<g id="edge63" class="edge">
<title>Node45&#45;&gt;Node46</title>
<path fill="none" stroke="midnightblue" d="M982.09,-560.08C989.16,-552.3 999.59,-540.8 1008.15,-531.37"/>
<polygon fill="midnightblue" stroke="midnightblue" points="1010.93,-533.51 1015.06,-523.75 1005.75,-528.8 1010.93,-533.51"/>
</g>
<!-- Node49 -->
<g id="node49" class="node">
<title>Node49</title>
<g id="a_node49"><a xlink:href="MacVect_8h.html" target="_top" xlink:title=" ">
<polygon fill="white" stroke="black" points="165.5,-616.5 165.5,-635.5 232.5,-635.5 232.5,-616.5 165.5,-616.5"/>
<text text-anchor="middle" x="199" y="-623.5" font-family="Helvetica,sans-Serif" font-size="10.00">MacVect.h</text>
</a>
</g>
</g>
<!-- Node48&#45;&gt;Node49 -->
<g id="edge69" class="edge">
<title>Node48&#45;&gt;Node49</title>
<path fill="none" stroke="midnightblue" d="M502.48,-677.12C448.16,-668.15 313.24,-645.87 243.03,-634.27"/>
<polygon fill="midnightblue" stroke="midnightblue" points="243.19,-630.75 232.75,-632.57 242.05,-637.66 243.19,-630.75"/>
</g>
<!-- Node49&#45;&gt;Node8 -->
<g id="edge74" class="edge">
<title>Node49&#45;&gt;Node8</title>
<path fill="none" stroke="midnightblue" d="M175.58,-616.42C139.89,-601.66 76,-567.86 76,-515 76,-515 76,-515 76,-177 76,-133.74 118.61,-99.09 146.75,-80.91"/>
<polygon fill="midnightblue" stroke="midnightblue" points="148.66,-83.85 155.31,-75.6 144.97,-77.9 148.66,-83.85"/>
</g>
<!-- Node49&#45;&gt;Node50 -->
<g id="edge70" class="edge">
<title>Node49&#45;&gt;Node50</title>
<path fill="none" stroke="midnightblue" d="M185.21,-616.19C174.17,-608.24 159.5,-595.45 153,-580 138.57,-545.7 150.59,-501.39 159.52,-477.03"/>
<polygon fill="midnightblue" stroke="midnightblue" points="162.81,-478.21 163.18,-467.62 156.29,-475.67 162.81,-478.21"/>
</g>
<!-- Node52 -->
<g id="node52" class="node">
<title>Node52</title>
<g id="a_node52"><a xlink:href="vect__impl_8h.html" target="_top" xlink:title=" ">
<polygon fill="white" stroke="black" points="162,-560.5 162,-579.5 236,-579.5 236,-560.5 162,-560.5"/>
<text text-anchor="middle" x="199" y="-567.5" font-family="Helvetica,sans-Serif" font-size="10.00">vect_impl.h</text>
</a>
</g>
</g>
<!-- Node49&#45;&gt;Node52 -->
<g id="edge75" class="edge">
<title>Node49&#45;&gt;Node52</title>
<path fill="none" stroke="midnightblue" d="M199,-616.08C199,-609.01 199,-598.86 199,-589.99"/>
<polygon fill="midnightblue" stroke="midnightblue" points="202.5,-589.75 199,-579.75 195.5,-589.75 202.5,-589.75"/>
</g>
<!-- Node50&#45;&gt;Node20 -->
<g id="edge71" class="edge">
<title>Node50&#45;&gt;Node20</title>
<path fill="none" stroke="midnightblue" d="M173.97,-448.17C197.02,-419.52 274.15,-328.26 358,-280 390.63,-261.22 431.93,-249.47 462.44,-242.71"/>
<polygon fill="midnightblue" stroke="midnightblue" points="463.29,-246.11 472.35,-240.61 461.84,-239.26 463.29,-246.11"/>
</g>
<!-- Node50&#45;&gt;Node28 -->
<g id="edge73" class="edge">
<title>Node50&#45;&gt;Node28</title>
<path fill="none" stroke="midnightblue" d="M158.92,-448.34C151.27,-439.72 139.95,-425.82 133,-412 119.48,-385.11 114,-377.1 114,-347 114,-347 114,-347 114,-289 114,-196.55 204.86,-114.36 246.08,-81.82"/>
<polygon fill="midnightblue" stroke="midnightblue" points="248.3,-84.53 254.07,-75.64 244.02,-78.99 248.3,-84.53"/>
</g>
<!-- Node51 -->
<g id="node51" class="node">
<title>Node51</title>
<g id="a_node51"><a xlink:title=" ">
<polygon fill="white" stroke="#bfbfbf" points="142,-392.5 142,-411.5 192,-411.5 192,-392.5 142,-392.5"/>
<text text-anchor="middle" x="167" y="-399.5" font-family="Helvetica,sans-Serif" font-size="10.00">cstring</text>
</a>
</g>
</g>
<!-- Node50&#45;&gt;Node51 -->
<g id="edge72" class="edge">
<title>Node50&#45;&gt;Node51</title>
<path fill="none" stroke="midnightblue" d="M167,-448.08C167,-441.01 167,-430.86 167,-421.99"/>
<polygon fill="midnightblue" stroke="midnightblue" points="170.5,-421.75 167,-411.75 163.5,-421.75 170.5,-421.75"/>
</g>
<!-- Node52&#45;&gt;Node8 -->
<g id="edge77" class="edge">
<title>Node52&#45;&gt;Node8</title>
<path fill="none" stroke="midnightblue" d="M161.66,-560.94C114.1,-548.23 38,-518.58 38,-459 38,-459 38,-459 38,-177 38,-146.2 40.64,-134.18 62,-112 80.93,-92.34 109.69,-80.96 132.92,-74.56"/>
<polygon fill="midnightblue" stroke="midnightblue" points="133.99,-77.9 142.81,-72.03 132.26,-71.11 133.99,-77.9"/>
</g>
<!-- Node52&#45;&gt;Node50 -->
<g id="edge76" class="edge">
<title>Node52&#45;&gt;Node50</title>
<path fill="none" stroke="midnightblue" d="M196.49,-560.37C191.3,-542.54 179.3,-501.3 172.32,-477.27"/>
<polygon fill="midnightblue" stroke="midnightblue" points="175.65,-476.22 169.5,-467.59 168.93,-478.17 175.65,-476.22"/>
</g>
<!-- Node53 -->
<g id="node53" class="node">
<title>Node53</title>
<g id="a_node53"><a xlink:href="DerOu___8h.html" target="_top" xlink:title=" ">
<polygon fill="white" stroke="black" points="200,-504.5 200,-523.5 262,-523.5 262,-504.5 200,-504.5"/>
<text text-anchor="middle" x="231" y="-511.5" font-family="Helvetica,sans-Serif" font-size="10.00">DerOu_.h</text>
</a>
</g>
</g>
<!-- Node52&#45;&gt;Node53 -->
<g id="edge78" class="edge">
<title>Node52&#45;&gt;Node53</title>
<path fill="none" stroke="midnightblue" d="M204.28,-560.08C208.71,-552.61 215.16,-541.72 220.62,-532.52"/>
<polygon fill="midnightblue" stroke="midnightblue" points="223.73,-534.14 225.81,-523.75 217.71,-530.57 223.73,-534.14"/>
</g>
<!-- Node53&#45;&gt;Node41 -->
<g id="edge79" class="edge">
<title>Node53&#45;&gt;Node41</title>
<path fill="none" stroke="midnightblue" d="M251.44,-504.44C272.67,-495.56 306.1,-481.56 330.25,-471.45"/>
<polygon fill="midnightblue" stroke="midnightblue" points="331.78,-474.61 339.66,-467.52 329.08,-468.15 331.78,-474.61"/>
</g>
<!-- Node53&#45;&gt;Node50 -->
<g id="edge80" class="edge">
<title>Node53&#45;&gt;Node50</title>
<path fill="none" stroke="midnightblue" d="M220.72,-504.32C211.16,-496.26 196.72,-484.08 185.22,-474.37"/>
<polygon fill="midnightblue" stroke="midnightblue" points="187.37,-471.61 177.47,-467.83 182.86,-476.96 187.37,-471.61"/>
</g>
</g>
</svg>
