<?xml version="1.0" encoding="UTF-8" standalone="no"?>
<!DOCTYPE svg PUBLIC "-//W3C//DTD SVG 1.1//EN"
 "http://www.w3.org/Graphics/SVG/1.1/DTD/svg11.dtd">
<!-- Generated by graphviz version 2.43.0 (0)
 -->
<!-- Title: src/EF/Sources/Evaluateur_Source_EF_Som.h Pages: 1 -->
<svg width="617pt" height="295pt"
 viewBox="0.00 0.00 617.00 295.00" xmlns="http://www.w3.org/2000/svg" xmlns:xlink="http://www.w3.org/1999/xlink">
<g id="graph0" class="graph" transform="scale(1 1) rotate(0) translate(4 291)">
<title>src/EF/Sources/Evaluateur_Source_EF_Som.h</title>
<polygon fill="white" stroke="transparent" points="-4,4 -4,-291 613,-291 613,4 -4,4"/>
<!-- Node1 -->
<g id="node1" class="node">
<title>Node1</title>
<g id="a_node1"><a xlink:title=" ">
<polygon fill="#bfbfbf" stroke="black" points="195,-256.5 195,-286.5 338,-286.5 338,-256.5 195,-256.5"/>
<text text-anchor="start" x="203" y="-274.5" font-family="Helvetica,sans-Serif" font-size="10.00">src/EF/Sources/Evaluateur</text>
<text text-anchor="middle" x="266.5" y="-263.5" font-family="Helvetica,sans-Serif" font-size="10.00">_Source_EF_Som.h</text>
</a>
</g>
</g>
<!-- Node2 -->
<g id="node2" class="node">
<title>Node2</title>
<g id="a_node2"><a xlink:href="Eval__Puiss__Th__EF_8h.html" target="_top" xlink:title=" ">
<polygon fill="white" stroke="black" points="66,-184 66,-214 177,-214 177,-184 66,-184"/>
<text text-anchor="start" x="74" y="-202" font-family="Helvetica,sans-Serif" font-size="10.00">src/EF/Sources/Eval</text>
<text text-anchor="middle" x="121.5" y="-191" font-family="Helvetica,sans-Serif" font-size="10.00">_Puiss_Th_EF.h</text>
</a>
</g>
</g>
<!-- Node1&#45;&gt;Node2 -->
<g id="edge1" class="edge">
<title>Node1&#45;&gt;Node2</title>
<path fill="none" stroke="midnightblue" d="M228.51,-252.03C204.09,-240.16 172.86,-224.97 150.44,-214.07"/>
<polygon fill="midnightblue" stroke="midnightblue" points="226.98,-255.18 237.51,-256.4 230.04,-248.88 226.98,-255.18"/>
</g>
<!-- Node6 -->
<g id="node6" class="node">
<title>Node6</title>
<g id="a_node6"><a xlink:href="Evaluateur__Source__EF__Som_8cpp.html" target="_top" xlink:title=" ">
<polygon fill="white" stroke="black" points="195,-184 195,-214 338,-214 338,-184 195,-184"/>
<text text-anchor="start" x="203" y="-202" font-family="Helvetica,sans-Serif" font-size="10.00">src/EF/Sources/Evaluateur</text>
<text text-anchor="middle" x="266.5" y="-191" font-family="Helvetica,sans-Serif" font-size="10.00">_Source_EF_Som.cpp</text>
</a>
</g>
</g>
<!-- Node1&#45;&gt;Node6 -->
<g id="edge5" class="edge">
<title>Node1&#45;&gt;Node6</title>
<path fill="none" stroke="midnightblue" d="M266.5,-246.23C266.5,-235.57 266.5,-223.41 266.5,-214.25"/>
<polygon fill="midnightblue" stroke="midnightblue" points="263,-246.23 266.5,-256.23 270,-246.23 263,-246.23"/>
</g>
<!-- Node7 -->
<g id="node7" class="node">
<title>Node7</title>
<g id="a_node7"><a xlink:href="Eval__Puiss__Th__QC__EF_8h.html" target="_top" xlink:title=" ">
<polygon fill="white" stroke="black" points="356.5,-178.5 356.5,-219.5 504.5,-219.5 504.5,-178.5 356.5,-178.5"/>
<text text-anchor="start" x="364.5" y="-207.5" font-family="Helvetica,sans-Serif" font-size="10.00">src/ThHyd/Dilatable</text>
<text text-anchor="start" x="364.5" y="-196.5" font-family="Helvetica,sans-Serif" font-size="10.00">/Quasi_Compressible</text>
<text text-anchor="middle" x="430.5" y="-185.5" font-family="Helvetica,sans-Serif" font-size="10.00">/EF/Eval_Puiss_Th_QC_EF.h</text>
</a>
</g>
</g>
<!-- Node1&#45;&gt;Node7 -->
<g id="edge6" class="edge">
<title>Node1&#45;&gt;Node7</title>
<path fill="none" stroke="midnightblue" d="M308.61,-252.4C332,-242.34 361.12,-229.83 385.03,-219.55"/>
<polygon fill="midnightblue" stroke="midnightblue" points="307.1,-249.24 299.29,-256.4 309.86,-255.67 307.1,-249.24"/>
</g>
<!-- Node3 -->
<g id="node3" class="node">
<title>Node3</title>
<g id="a_node3"><a xlink:href="Eval__Puiss__Th__EF_8cpp.html" target="_top" xlink:title=" ">
<polygon fill="white" stroke="black" points="0,-100.5 0,-130.5 111,-130.5 111,-100.5 0,-100.5"/>
<text text-anchor="start" x="8" y="-118.5" font-family="Helvetica,sans-Serif" font-size="10.00">src/EF/Sources/Eval</text>
<text text-anchor="middle" x="55.5" y="-107.5" font-family="Helvetica,sans-Serif" font-size="10.00">_Puiss_Th_EF.cpp</text>
</a>
</g>
</g>
<!-- Node2&#45;&gt;Node3 -->
<g id="edge2" class="edge">
<title>Node2&#45;&gt;Node3</title>
<path fill="none" stroke="midnightblue" d="M103.55,-175.83C91.85,-161.39 76.95,-142.99 66.86,-130.53"/>
<polygon fill="midnightblue" stroke="midnightblue" points="100.99,-178.24 110,-183.8 106.43,-173.83 100.99,-178.24"/>
</g>
<!-- Node4 -->
<g id="node4" class="node">
<title>Node4</title>
<g id="a_node4"><a xlink:href="Puissance__Thermique__EF_8h.html" target="_top" xlink:title=" ">
<polygon fill="white" stroke="black" points="129,-100.5 129,-130.5 268,-130.5 268,-100.5 129,-100.5"/>
<text text-anchor="start" x="137" y="-118.5" font-family="Helvetica,sans-Serif" font-size="10.00">src/EF/Sources/Puissance</text>
<text text-anchor="middle" x="198.5" y="-107.5" font-family="Helvetica,sans-Serif" font-size="10.00">_Thermique_EF.h</text>
</a>
</g>
</g>
<!-- Node2&#45;&gt;Node4 -->
<g id="edge3" class="edge">
<title>Node2&#45;&gt;Node4</title>
<path fill="none" stroke="midnightblue" d="M142.06,-176.24C155.76,-161.74 173.37,-143.1 185.24,-130.53"/>
<polygon fill="midnightblue" stroke="midnightblue" points="139.24,-174.13 134.91,-183.8 144.32,-178.94 139.24,-174.13"/>
</g>
<!-- Node5 -->
<g id="node5" class="node">
<title>Node5</title>
<g id="a_node5"><a xlink:href="Puissance__Thermique__EF_8cpp.html" target="_top" xlink:title=" ">
<polygon fill="white" stroke="black" points="129,-11.5 129,-41.5 268,-41.5 268,-11.5 129,-11.5"/>
<text text-anchor="start" x="137" y="-29.5" font-family="Helvetica,sans-Serif" font-size="10.00">src/EF/Sources/Puissance</text>
<text text-anchor="middle" x="198.5" y="-18.5" font-family="Helvetica,sans-Serif" font-size="10.00">_Thermique_EF.cpp</text>
</a>
</g>
</g>
<!-- Node4&#45;&gt;Node5 -->
<g id="edge4" class="edge">
<title>Node4&#45;&gt;Node5</title>
<path fill="none" stroke="midnightblue" d="M198.5,-90.09C198.5,-74.44 198.5,-54.68 198.5,-41.6"/>
<polygon fill="midnightblue" stroke="midnightblue" points="195,-90.13 198.5,-100.13 202,-90.13 195,-90.13"/>
</g>
<!-- Node8 -->
<g id="node8" class="node">
<title>Node8</title>
<g id="a_node8"><a xlink:href="Eval__Puiss__Th__QC__EF_8cpp.html" target="_top" xlink:title=" ">
<polygon fill="white" stroke="black" points="327,-89.5 327,-141.5 450,-141.5 450,-89.5 327,-89.5"/>
<text text-anchor="start" x="335" y="-129.5" font-family="Helvetica,sans-Serif" font-size="10.00">src/ThHyd/Dilatable</text>
<text text-anchor="start" x="335" y="-118.5" font-family="Helvetica,sans-Serif" font-size="10.00">/Quasi_Compressible</text>
<text text-anchor="start" x="335" y="-107.5" font-family="Helvetica,sans-Serif" font-size="10.00">/EF/Eval_Puiss_Th_QC</text>
<text text-anchor="middle" x="388.5" y="-96.5" font-family="Helvetica,sans-Serif" font-size="10.00">_EF.cpp</text>
</a>
</g>
</g>
<!-- Node7&#45;&gt;Node8 -->
<g id="edge7" class="edge">
<title>Node7&#45;&gt;Node8</title>
<path fill="none" stroke="midnightblue" d="M415.69,-169.27C411.04,-160.24 405.95,-150.36 401.44,-141.61"/>
<polygon fill="midnightblue" stroke="midnightblue" points="412.64,-170.99 420.33,-178.27 418.86,-167.78 412.64,-170.99"/>
</g>
<!-- Node9 -->
<g id="node9" class="node">
<title>Node9</title>
<g id="a_node9"><a xlink:href="Puissance__Thermique__QC__EF_8h.html" target="_top" xlink:title=" ">
<polygon fill="white" stroke="black" points="468,-89.5 468,-141.5 609,-141.5 609,-89.5 468,-89.5"/>
<text text-anchor="start" x="476" y="-129.5" font-family="Helvetica,sans-Serif" font-size="10.00">src/ThHyd/Dilatable</text>
<text text-anchor="start" x="476" y="-118.5" font-family="Helvetica,sans-Serif" font-size="10.00">/Quasi_Compressible</text>
<text text-anchor="start" x="476" y="-107.5" font-family="Helvetica,sans-Serif" font-size="10.00">/EF/Puissance_Thermique</text>
<text text-anchor="middle" x="538.5" y="-96.5" font-family="Helvetica,sans-Serif" font-size="10.00">_QC_EF.h</text>
</a>
</g>
</g>
<!-- Node7&#45;&gt;Node9 -->
<g id="edge8" class="edge">
<title>Node7&#45;&gt;Node9</title>
<path fill="none" stroke="midnightblue" d="M464.57,-172.29C477.5,-162.53 492.2,-151.44 505.07,-141.73"/>
<polygon fill="midnightblue" stroke="midnightblue" points="462.24,-169.66 456.37,-178.48 466.46,-175.25 462.24,-169.66"/>
</g>
<!-- Node10 -->
<g id="node10" class="node">
<title>Node10</title>
<g id="a_node10"><a xlink:href="Puissance__Thermique__QC__EF_8cpp.html" target="_top" xlink:title=" ">
<polygon fill="white" stroke="black" points="468,-0.5 468,-52.5 609,-52.5 609,-0.5 468,-0.5"/>
<text text-anchor="start" x="476" y="-40.5" font-family="Helvetica,sans-Serif" font-size="10.00">src/ThHyd/Dilatable</text>
<text text-anchor="start" x="476" y="-29.5" font-family="Helvetica,sans-Serif" font-size="10.00">/Quasi_Compressible</text>
<text text-anchor="start" x="476" y="-18.5" font-family="Helvetica,sans-Serif" font-size="10.00">/EF/Puissance_Thermique</text>
<text text-anchor="middle" x="538.5" y="-7.5" font-family="Helvetica,sans-Serif" font-size="10.00">_QC_EF.cpp</text>
</a>
</g>
</g>
<!-- Node9&#45;&gt;Node10 -->
<g id="edge9" class="edge">
<title>Node9&#45;&gt;Node10</title>
<path fill="none" stroke="midnightblue" d="M538.5,-79.19C538.5,-70.28 538.5,-60.9 538.5,-52.61"/>
<polygon fill="midnightblue" stroke="midnightblue" points="535,-79.34 538.5,-89.34 542,-79.34 535,-79.34"/>
</g>
</g>
</svg>
