<?xml version="1.0" encoding="UTF-8" standalone="no"?>
<!DOCTYPE svg PUBLIC "-//W3C//DTD SVG 1.1//EN"
 "http://www.w3.org/Graphics/SVG/1.1/DTD/svg11.dtd">
<!-- Generated by graphviz version 2.43.0 (0)
 -->
<!-- Title: src/PolyMAC/Sources/Evaluateur_Source_PolyMAC_Elem.h Pages: 1 -->
<svg width="660pt" height="284pt"
 viewBox="0.00 0.00 660.00 284.00" xmlns="http://www.w3.org/2000/svg" xmlns:xlink="http://www.w3.org/1999/xlink">
<g id="graph0" class="graph" transform="scale(1 1) rotate(0) translate(4 280)">
<title>src/PolyMAC/Sources/Evaluateur_Source_PolyMAC_Elem.h</title>
<polygon fill="white" stroke="transparent" points="-4,4 -4,-280 656,-280 656,4 -4,4"/>
<!-- Node1 -->
<g id="node1" class="node">
<title>Node1</title>
<g id="a_node1"><a xlink:title=" ">
<polygon fill="#bfbfbf" stroke="black" points="325,-234.5 325,-275.5 484,-275.5 484,-234.5 325,-234.5"/>
<text text-anchor="start" x="333" y="-263.5" font-family="Helvetica,sans-Serif" font-size="10.00">src/PolyMAC/Sources</text>
<text text-anchor="start" x="333" y="-252.5" font-family="Helvetica,sans-Serif" font-size="10.00">/Evaluateur_Source_PolyMAC</text>
<text text-anchor="middle" x="404.5" y="-241.5" font-family="Helvetica,sans-Serif" font-size="10.00">_Elem.h</text>
</a>
</g>
</g>
<!-- Node2 -->
<g id="node2" class="node">
<title>Node2</title>
<g id="a_node2"><a xlink:href="Eval__Puiss__Th__PolyMAC__Elem_8h.html" target="_top" xlink:title=" ">
<polygon fill="white" stroke="black" points="167,-156.5 167,-197.5 304,-197.5 304,-156.5 167,-156.5"/>
<text text-anchor="start" x="175" y="-185.5" font-family="Helvetica,sans-Serif" font-size="10.00">src/PolyMAC/Sources</text>
<text text-anchor="start" x="175" y="-174.5" font-family="Helvetica,sans-Serif" font-size="10.00">/Eval_Puiss_Th_PolyMAC</text>
<text text-anchor="middle" x="235.5" y="-163.5" font-family="Helvetica,sans-Serif" font-size="10.00">_Elem.h</text>
</a>
</g>
</g>
<!-- Node1&#45;&gt;Node2 -->
<g id="edge1" class="edge">
<title>Node1&#45;&gt;Node2</title>
<path fill="none" stroke="midnightblue" d="M351.55,-230.19C328.17,-219.67 301.03,-207.47 278.87,-197.51"/>
<polygon fill="midnightblue" stroke="midnightblue" points="350.42,-233.52 360.98,-234.43 353.29,-227.13 350.42,-233.52"/>
</g>
<!-- Node6 -->
<g id="node6" class="node">
<title>Node6</title>
<g id="a_node6"><a xlink:href="Eval__Source__C__PolyMAC__Elem_8h.html" target="_top" xlink:title=" ">
<polygon fill="white" stroke="black" points="334.5,-156.5 334.5,-197.5 474.5,-197.5 474.5,-156.5 334.5,-156.5"/>
<text text-anchor="start" x="342.5" y="-185.5" font-family="Helvetica,sans-Serif" font-size="10.00">src/PolyMAC/Sources</text>
<text text-anchor="start" x="342.5" y="-174.5" font-family="Helvetica,sans-Serif" font-size="10.00">/Eval_Source_C_PolyMAC</text>
<text text-anchor="middle" x="404.5" y="-163.5" font-family="Helvetica,sans-Serif" font-size="10.00">_Elem.h</text>
</a>
</g>
</g>
<!-- Node1&#45;&gt;Node6 -->
<g id="edge5" class="edge">
<title>Node1&#45;&gt;Node6</title>
<path fill="none" stroke="midnightblue" d="M404.5,-224.3C404.5,-215.3 404.5,-205.65 404.5,-197.51"/>
<polygon fill="midnightblue" stroke="midnightblue" points="401,-224.43 404.5,-234.43 408,-224.43 401,-224.43"/>
</g>
<!-- Node10 -->
<g id="node10" class="node">
<title>Node10</title>
<g id="a_node10"><a xlink:href="Evaluateur__Source__PolyMAC__Elem_8cpp.html" target="_top" xlink:title=" ">
<polygon fill="white" stroke="black" points="493,-156.5 493,-197.5 652,-197.5 652,-156.5 493,-156.5"/>
<text text-anchor="start" x="501" y="-185.5" font-family="Helvetica,sans-Serif" font-size="10.00">src/PolyMAC/Sources</text>
<text text-anchor="start" x="501" y="-174.5" font-family="Helvetica,sans-Serif" font-size="10.00">/Evaluateur_Source_PolyMAC</text>
<text text-anchor="middle" x="572.5" y="-163.5" font-family="Helvetica,sans-Serif" font-size="10.00">_Elem.cpp</text>
</a>
</g>
</g>
<!-- Node1&#45;&gt;Node10 -->
<g id="edge9" class="edge">
<title>Node1&#45;&gt;Node10</title>
<path fill="none" stroke="midnightblue" d="M457.13,-230.19C480.38,-219.67 507.36,-207.47 529.38,-197.51"/>
<polygon fill="midnightblue" stroke="midnightblue" points="455.43,-227.12 447.76,-234.43 458.32,-233.5 455.43,-227.12"/>
</g>
<!-- Node3 -->
<g id="node3" class="node">
<title>Node3</title>
<g id="a_node3"><a xlink:href="Eval__Puiss__Th__PolyMAC__Elem_8cpp.html" target="_top" xlink:title=" ">
<polygon fill="white" stroke="black" points="0,-78.5 0,-119.5 137,-119.5 137,-78.5 0,-78.5"/>
<text text-anchor="start" x="8" y="-107.5" font-family="Helvetica,sans-Serif" font-size="10.00">src/PolyMAC/Sources</text>
<text text-anchor="start" x="8" y="-96.5" font-family="Helvetica,sans-Serif" font-size="10.00">/Eval_Puiss_Th_PolyMAC</text>
<text text-anchor="middle" x="68.5" y="-85.5" font-family="Helvetica,sans-Serif" font-size="10.00">_Elem.cpp</text>
</a>
</g>
</g>
<!-- Node2&#45;&gt;Node3 -->
<g id="edge2" class="edge">
<title>Node2&#45;&gt;Node3</title>
<path fill="none" stroke="midnightblue" d="M183.18,-152.19C160.08,-141.67 133.25,-129.47 111.36,-119.51"/>
<polygon fill="midnightblue" stroke="midnightblue" points="181.94,-155.47 192.49,-156.43 184.84,-149.1 181.94,-155.47"/>
</g>
<!-- Node4 -->
<g id="node4" class="node">
<title>Node4</title>
<g id="a_node4"><a xlink:href="Terme__Puissance__Thermique__PolyMAC__Elem_8h.html" target="_top" xlink:title=" ">
<polygon fill="white" stroke="black" points="155,-78.5 155,-119.5 316,-119.5 316,-78.5 155,-78.5"/>
<text text-anchor="start" x="163" y="-107.5" font-family="Helvetica,sans-Serif" font-size="10.00">src/PolyMAC/Sources</text>
<text text-anchor="start" x="163" y="-96.5" font-family="Helvetica,sans-Serif" font-size="10.00">/Terme_Puissance_Thermique</text>
<text text-anchor="middle" x="235.5" y="-85.5" font-family="Helvetica,sans-Serif" font-size="10.00">_PolyMAC_Elem.h</text>
</a>
</g>
</g>
<!-- Node2&#45;&gt;Node4 -->
<g id="edge3" class="edge">
<title>Node2&#45;&gt;Node4</title>
<path fill="none" stroke="midnightblue" d="M235.5,-146.3C235.5,-137.3 235.5,-127.65 235.5,-119.51"/>
<polygon fill="midnightblue" stroke="midnightblue" points="232,-146.43 235.5,-156.43 239,-146.43 232,-146.43"/>
</g>
<!-- Node5 -->
<g id="node5" class="node">
<title>Node5</title>
<g id="a_node5"><a xlink:href="Terme__Puissance__Thermique__PolyMAC__Elem_8cpp.html" target="_top" xlink:title=" ">
<polygon fill="white" stroke="black" points="155,-0.5 155,-41.5 316,-41.5 316,-0.5 155,-0.5"/>
<text text-anchor="start" x="163" y="-29.5" font-family="Helvetica,sans-Serif" font-size="10.00">src/PolyMAC/Sources</text>
<text text-anchor="start" x="163" y="-18.5" font-family="Helvetica,sans-Serif" font-size="10.00">/Terme_Puissance_Thermique</text>
<text text-anchor="middle" x="235.5" y="-7.5" font-family="Helvetica,sans-Serif" font-size="10.00">_PolyMAC_Elem.cpp</text>
</a>
</g>
</g>
<!-- Node4&#45;&gt;Node5 -->
<g id="edge4" class="edge">
<title>Node4&#45;&gt;Node5</title>
<path fill="none" stroke="midnightblue" d="M235.5,-68.3C235.5,-59.3 235.5,-49.65 235.5,-41.51"/>
<polygon fill="midnightblue" stroke="midnightblue" points="232,-68.43 235.5,-78.43 239,-68.43 232,-68.43"/>
</g>
<!-- Node7 -->
<g id="node7" class="node">
<title>Node7</title>
<g id="a_node7"><a xlink:href="Eval__Source__C__PolyMAC__Elem_8cpp.html" target="_top" xlink:title=" ">
<polygon fill="white" stroke="black" points="334.5,-78.5 334.5,-119.5 474.5,-119.5 474.5,-78.5 334.5,-78.5"/>
<text text-anchor="start" x="342.5" y="-107.5" font-family="Helvetica,sans-Serif" font-size="10.00">src/PolyMAC/Sources</text>
<text text-anchor="start" x="342.5" y="-96.5" font-family="Helvetica,sans-Serif" font-size="10.00">/Eval_Source_C_PolyMAC</text>
<text text-anchor="middle" x="404.5" y="-85.5" font-family="Helvetica,sans-Serif" font-size="10.00">_Elem.cpp</text>
</a>
</g>
</g>
<!-- Node6&#45;&gt;Node7 -->
<g id="edge6" class="edge">
<title>Node6&#45;&gt;Node7</title>
<path fill="none" stroke="midnightblue" d="M404.5,-146.3C404.5,-137.3 404.5,-127.65 404.5,-119.51"/>
<polygon fill="midnightblue" stroke="midnightblue" points="401,-146.43 404.5,-156.43 408,-146.43 401,-146.43"/>
</g>
<!-- Node8 -->
<g id="node8" class="node">
<title>Node8</title>
<g id="a_node8"><a xlink:href="Terme__Source__Constituant__PolyMAC__Elem_8h.html" target="_top" xlink:title=" ">
<polygon fill="white" stroke="black" points="493,-78.5 493,-119.5 642,-119.5 642,-78.5 493,-78.5"/>
<text text-anchor="start" x="501" y="-107.5" font-family="Helvetica,sans-Serif" font-size="10.00">src/PolyMAC/Sources</text>
<text text-anchor="start" x="501" y="-96.5" font-family="Helvetica,sans-Serif" font-size="10.00">/Terme_Source_Constituant</text>
<text text-anchor="middle" x="567.5" y="-85.5" font-family="Helvetica,sans-Serif" font-size="10.00">_PolyMAC_Elem.h</text>
</a>
</g>
</g>
<!-- Node6&#45;&gt;Node8 -->
<g id="edge7" class="edge">
<title>Node6&#45;&gt;Node8</title>
<path fill="none" stroke="midnightblue" d="M455.57,-152.19C478.12,-141.67 504.3,-129.47 525.67,-119.51"/>
<polygon fill="midnightblue" stroke="midnightblue" points="454.06,-149.03 446.48,-156.43 457.02,-155.37 454.06,-149.03"/>
</g>
<!-- Node9 -->
<g id="node9" class="node">
<title>Node9</title>
<g id="a_node9"><a xlink:href="Terme__Source__Constituant__PolyMAC__Elem_8cpp.html" target="_top" xlink:title=" ">
<polygon fill="white" stroke="black" points="493,-0.5 493,-41.5 642,-41.5 642,-0.5 493,-0.5"/>
<text text-anchor="start" x="501" y="-29.5" font-family="Helvetica,sans-Serif" font-size="10.00">src/PolyMAC/Sources</text>
<text text-anchor="start" x="501" y="-18.5" font-family="Helvetica,sans-Serif" font-size="10.00">/Terme_Source_Constituant</text>
<text text-anchor="middle" x="567.5" y="-7.5" font-family="Helvetica,sans-Serif" font-size="10.00">_PolyMAC_Elem.cpp</text>
</a>
</g>
</g>
<!-- Node8&#45;&gt;Node9 -->
<g id="edge8" class="edge">
<title>Node8&#45;&gt;Node9</title>
<path fill="none" stroke="midnightblue" d="M567.5,-68.3C567.5,-59.3 567.5,-49.65 567.5,-41.51"/>
<polygon fill="midnightblue" stroke="midnightblue" points="564,-68.43 567.5,-78.43 571,-68.43 564,-68.43"/>
</g>
</g>
</svg>
