<?xml version="1.0" encoding="UTF-8" standalone="no"?>
<!DOCTYPE svg PUBLIC "-//W3C//DTD SVG 1.1//EN"
 "http://www.w3.org/Graphics/SVG/1.1/DTD/svg11.dtd">
<!-- Generated by graphviz version 2.43.0 (0)
 -->
<!-- Title: src/VDF/Sources/Evaluateurs/Evaluateur_Source_VDF_Face.h Pages: 1 -->
<svg width="868pt" height="340pt"
 viewBox="0.00 0.00 868.00 340.00" xmlns="http://www.w3.org/2000/svg" xmlns:xlink="http://www.w3.org/1999/xlink">
<g id="graph0" class="graph" transform="scale(1 1) rotate(0) translate(4 336)">
<title>src/VDF/Sources/Evaluateurs/Evaluateur_Source_VDF_Face.h</title>
<polygon fill="white" stroke="transparent" points="-4,4 -4,-336 864,-336 864,4 -4,4"/>
<!-- Node1 -->
<g id="node1" class="node">
<title>Node1</title>
<g id="a_node1"><a xlink:title=" ">
<polygon fill="#bfbfbf" stroke="black" points="404.5,-301.5 404.5,-331.5 576.5,-331.5 576.5,-301.5 404.5,-301.5"/>
<text text-anchor="start" x="412.5" y="-319.5" font-family="Helvetica,sans-Serif" font-size="10.00">src/VDF/Sources/Evaluateurs</text>
<text text-anchor="middle" x="490.5" y="-308.5" font-family="Helvetica,sans-Serif" font-size="10.00">/Evaluateur_Source_VDF_Face.h</text>
</a>
</g>
</g>
<!-- Node2 -->
<g id="node2" class="node">
<title>Node2</title>
<g id="a_node2"><a xlink:href="Eval__Darcy__VDF__Face_8h.html" target="_top" xlink:title=" ">
<polygon fill="white" stroke="black" points="142.5,-234.5 142.5,-264.5 298.5,-264.5 298.5,-234.5 142.5,-234.5"/>
<text text-anchor="start" x="150.5" y="-252.5" font-family="Helvetica,sans-Serif" font-size="10.00">src/VDF/Sources/Evaluateurs</text>
<text text-anchor="middle" x="220.5" y="-241.5" font-family="Helvetica,sans-Serif" font-size="10.00">/Eval_Darcy_VDF_Face.h</text>
</a>
</g>
</g>
<!-- Node1&#45;&gt;Node2 -->
<g id="edge1" class="edge">
<title>Node1&#45;&gt;Node2</title>
<path fill="none" stroke="midnightblue" d="M422.45,-299.12C378.27,-288.48 321.28,-274.76 279.11,-264.61"/>
<polygon fill="midnightblue" stroke="midnightblue" points="421.7,-302.54 432.25,-301.48 423.34,-295.73 421.7,-302.54"/>
</g>
<!-- Node7 -->
<g id="node7" class="node">
<title>Node7</title>
<g id="a_node7"><a xlink:href="Eval__Forchheimer__VDF__Face_8h.html" target="_top" xlink:title=" ">
<polygon fill="white" stroke="black" points="316.5,-234.5 316.5,-264.5 484.5,-264.5 484.5,-234.5 316.5,-234.5"/>
<text text-anchor="start" x="324.5" y="-252.5" font-family="Helvetica,sans-Serif" font-size="10.00">src/VDF/Sources/Evaluateurs</text>
<text text-anchor="middle" x="400.5" y="-241.5" font-family="Helvetica,sans-Serif" font-size="10.00">/Eval_Forchheimer_VDF_Face.h</text>
</a>
</g>
</g>
<!-- Node1&#45;&gt;Node7 -->
<g id="edge6" class="edge">
<title>Node1&#45;&gt;Node7</title>
<path fill="none" stroke="midnightblue" d="M462.74,-295.45C448.89,-285.45 432.48,-273.6 419.99,-264.58"/>
<polygon fill="midnightblue" stroke="midnightblue" points="460.82,-298.38 470.97,-301.4 464.91,-292.7 460.82,-298.38"/>
</g>
<!-- Node10 -->
<g id="node10" class="node">
<title>Node10</title>
<g id="a_node10"><a xlink:href="Eval__Gravite__VDF__Face_8h.html" target="_top" xlink:title=" ">
<polygon fill="white" stroke="black" points="502.5,-234.5 502.5,-264.5 658.5,-264.5 658.5,-234.5 502.5,-234.5"/>
<text text-anchor="start" x="510.5" y="-252.5" font-family="Helvetica,sans-Serif" font-size="10.00">src/VDF/Sources/Evaluateurs</text>
<text text-anchor="middle" x="580.5" y="-241.5" font-family="Helvetica,sans-Serif" font-size="10.00">/Eval_Gravite_VDF_Face.h</text>
</a>
</g>
</g>
<!-- Node1&#45;&gt;Node10 -->
<g id="edge10" class="edge">
<title>Node1&#45;&gt;Node10</title>
<path fill="none" stroke="midnightblue" d="M518.26,-295.45C532.11,-285.45 548.52,-273.6 561.01,-264.58"/>
<polygon fill="midnightblue" stroke="midnightblue" points="516.09,-292.7 510.03,-301.4 520.18,-298.38 516.09,-292.7"/>
</g>
<!-- Node13 -->
<g id="node13" class="node">
<title>Node13</title>
<g id="a_node13"><a xlink:href="Evaluateur__Source__VDF__Face_8cpp.html" target="_top" xlink:title=" ">
<polygon fill="white" stroke="black" points="677,-234.5 677,-264.5 860,-264.5 860,-234.5 677,-234.5"/>
<text text-anchor="start" x="685" y="-252.5" font-family="Helvetica,sans-Serif" font-size="10.00">src/VDF/Sources/Evaluateurs</text>
<text text-anchor="middle" x="768.5" y="-241.5" font-family="Helvetica,sans-Serif" font-size="10.00">/Evaluateur_Source_VDF_Face.cpp</text>
</a>
</g>
</g>
<!-- Node1&#45;&gt;Node13 -->
<g id="edge13" class="edge">
<title>Node1&#45;&gt;Node13</title>
<path fill="none" stroke="midnightblue" d="M560.28,-299.19C605.8,-288.54 664.64,-274.78 708.15,-264.61"/>
<polygon fill="midnightblue" stroke="midnightblue" points="559.42,-295.79 550.48,-301.48 561.01,-302.61 559.42,-295.79"/>
</g>
<!-- Node3 -->
<g id="node3" class="node">
<title>Node3</title>
<g id="a_node3"><a xlink:href="Source__Darcy__VDF__Face_8h.html" target="_top" xlink:title=" ">
<polygon fill="white" stroke="black" points="152,-156.5 152,-197.5 289,-197.5 289,-156.5 152,-156.5"/>
<text text-anchor="start" x="160" y="-185.5" font-family="Helvetica,sans-Serif" font-size="10.00">src/VDF/Sources/Sources</text>
<text text-anchor="start" x="160" y="-174.5" font-family="Helvetica,sans-Serif" font-size="10.00">_It_Eval/Source_Darcy</text>
<text text-anchor="middle" x="220.5" y="-163.5" font-family="Helvetica,sans-Serif" font-size="10.00">_VDF_Face.h</text>
</a>
</g>
</g>
<!-- Node2&#45;&gt;Node3 -->
<g id="edge2" class="edge">
<title>Node2&#45;&gt;Node3</title>
<path fill="none" stroke="midnightblue" d="M220.5,-223.98C220.5,-215.35 220.5,-205.76 220.5,-197.59"/>
<polygon fill="midnightblue" stroke="midnightblue" points="217,-224.23 220.5,-234.23 224,-224.23 217,-224.23"/>
</g>
<!-- Node4 -->
<g id="node4" class="node">
<title>Node4</title>
<g id="a_node4"><a xlink:href="Source__QC__VDF__Face_8h.html" target="_top" xlink:title=" ">
<polygon fill="white" stroke="black" points="155,-78.5 155,-119.5 312,-119.5 312,-78.5 155,-78.5"/>
<text text-anchor="start" x="163" y="-107.5" font-family="Helvetica,sans-Serif" font-size="10.00">src/ThHyd/Dilatable</text>
<text text-anchor="start" x="163" y="-96.5" font-family="Helvetica,sans-Serif" font-size="10.00">/Quasi_Compressible</text>
<text text-anchor="middle" x="233.5" y="-85.5" font-family="Helvetica,sans-Serif" font-size="10.00">/VDF/Source_QC_VDF_Face.h</text>
</a>
</g>
</g>
<!-- Node3&#45;&gt;Node4 -->
<g id="edge3" class="edge">
<title>Node3&#45;&gt;Node4</title>
<path fill="none" stroke="midnightblue" d="M225.58,-146.3C227.12,-137.3 228.77,-127.65 230.16,-119.51"/>
<polygon fill="midnightblue" stroke="midnightblue" points="222.08,-145.98 223.85,-156.43 228.98,-147.16 222.08,-145.98"/>
</g>
<!-- Node6 -->
<g id="node6" class="node">
<title>Node6</title>
<g id="a_node6"><a xlink:href="Source__Darcy__VDF__Face_8cpp.html" target="_top" xlink:title=" ">
<polygon fill="white" stroke="black" points="0,-78.5 0,-119.5 137,-119.5 137,-78.5 0,-78.5"/>
<text text-anchor="start" x="8" y="-107.5" font-family="Helvetica,sans-Serif" font-size="10.00">src/VDF/Sources/Sources</text>
<text text-anchor="start" x="8" y="-96.5" font-family="Helvetica,sans-Serif" font-size="10.00">_It_Eval/Source_Darcy</text>
<text text-anchor="middle" x="68.5" y="-85.5" font-family="Helvetica,sans-Serif" font-size="10.00">_VDF_Face.cpp</text>
</a>
</g>
</g>
<!-- Node3&#45;&gt;Node6 -->
<g id="edge5" class="edge">
<title>Node3&#45;&gt;Node6</title>
<path fill="none" stroke="midnightblue" d="M172.32,-151.91C151.42,-141.46 127.26,-129.38 107.51,-119.51"/>
<polygon fill="midnightblue" stroke="midnightblue" points="170.85,-155.09 181.36,-156.43 173.98,-148.83 170.85,-155.09"/>
</g>
<!-- Node5 -->
<g id="node5" class="node">
<title>Node5</title>
<g id="a_node5"><a xlink:href="Source__QC__VDF__Face_8cpp.html" target="_top" xlink:title=" ">
<polygon fill="white" stroke="black" points="149.5,-0.5 149.5,-41.5 317.5,-41.5 317.5,-0.5 149.5,-0.5"/>
<text text-anchor="start" x="157.5" y="-29.5" font-family="Helvetica,sans-Serif" font-size="10.00">src/ThHyd/Dilatable</text>
<text text-anchor="start" x="157.5" y="-18.5" font-family="Helvetica,sans-Serif" font-size="10.00">/Quasi_Compressible</text>
<text text-anchor="middle" x="233.5" y="-7.5" font-family="Helvetica,sans-Serif" font-size="10.00">/VDF/Source_QC_VDF_Face.cpp</text>
</a>
</g>
</g>
<!-- Node4&#45;&gt;Node5 -->
<g id="edge4" class="edge">
<title>Node4&#45;&gt;Node5</title>
<path fill="none" stroke="midnightblue" d="M233.5,-68.3C233.5,-59.3 233.5,-49.65 233.5,-41.51"/>
<polygon fill="midnightblue" stroke="midnightblue" points="230,-68.43 233.5,-78.43 237,-68.43 230,-68.43"/>
</g>
<!-- Node8 -->
<g id="node8" class="node">
<title>Node8</title>
<g id="a_node8"><a xlink:href="Source__Forchheimer__VDF__Face_8h.html" target="_top" xlink:title=" ">
<polygon fill="white" stroke="black" points="322,-156.5 322,-197.5 479,-197.5 479,-156.5 322,-156.5"/>
<text text-anchor="start" x="330" y="-185.5" font-family="Helvetica,sans-Serif" font-size="10.00">src/VDF/Sources/Sources</text>
<text text-anchor="start" x="330" y="-174.5" font-family="Helvetica,sans-Serif" font-size="10.00">_It_Eval/Source_Forchheimer</text>
<text text-anchor="middle" x="400.5" y="-163.5" font-family="Helvetica,sans-Serif" font-size="10.00">_VDF_Face.h</text>
</a>
</g>
</g>
<!-- Node7&#45;&gt;Node8 -->
<g id="edge7" class="edge">
<title>Node7&#45;&gt;Node8</title>
<path fill="none" stroke="midnightblue" d="M400.5,-223.98C400.5,-215.35 400.5,-205.76 400.5,-197.59"/>
<polygon fill="midnightblue" stroke="midnightblue" points="397,-224.23 400.5,-234.23 404,-224.23 397,-224.23"/>
</g>
<!-- Node8&#45;&gt;Node4 -->
<g id="edge8" class="edge">
<title>Node8&#45;&gt;Node4</title>
<path fill="none" stroke="midnightblue" d="M348.18,-152.19C325.08,-141.67 298.25,-129.47 276.36,-119.51"/>
<polygon fill="midnightblue" stroke="midnightblue" points="346.94,-155.47 357.49,-156.43 349.84,-149.1 346.94,-155.47"/>
</g>
<!-- Node9 -->
<g id="node9" class="node">
<title>Node9</title>
<g id="a_node9"><a xlink:href="Source__Forchheimer__VDF__Face_8cpp.html" target="_top" xlink:title=" ">
<polygon fill="white" stroke="black" points="330,-78.5 330,-119.5 487,-119.5 487,-78.5 330,-78.5"/>
<text text-anchor="start" x="338" y="-107.5" font-family="Helvetica,sans-Serif" font-size="10.00">src/VDF/Sources/Sources</text>
<text text-anchor="start" x="338" y="-96.5" font-family="Helvetica,sans-Serif" font-size="10.00">_It_Eval/Source_Forchheimer</text>
<text text-anchor="middle" x="408.5" y="-85.5" font-family="Helvetica,sans-Serif" font-size="10.00">_VDF_Face.cpp</text>
</a>
</g>
</g>
<!-- Node8&#45;&gt;Node9 -->
<g id="edge9" class="edge">
<title>Node8&#45;&gt;Node9</title>
<path fill="none" stroke="midnightblue" d="M403.63,-146.3C404.57,-137.3 405.59,-127.65 406.45,-119.51"/>
<polygon fill="midnightblue" stroke="midnightblue" points="400.13,-146.12 402.56,-156.43 407.09,-146.85 400.13,-146.12"/>
</g>
<!-- Node11 -->
<g id="node11" class="node">
<title>Node11</title>
<g id="a_node11"><a xlink:href="Terme__Gravite__VDF__Face_8h.html" target="_top" xlink:title=" ">
<polygon fill="white" stroke="black" points="512,-156.5 512,-197.5 649,-197.5 649,-156.5 512,-156.5"/>
<text text-anchor="start" x="520" y="-185.5" font-family="Helvetica,sans-Serif" font-size="10.00">src/VDF/Sources/Sources</text>
<text text-anchor="start" x="520" y="-174.5" font-family="Helvetica,sans-Serif" font-size="10.00">_It_Eval/Terme_Gravite</text>
<text text-anchor="middle" x="580.5" y="-163.5" font-family="Helvetica,sans-Serif" font-size="10.00">_VDF_Face.h</text>
</a>
</g>
</g>
<!-- Node10&#45;&gt;Node11 -->
<g id="edge11" class="edge">
<title>Node10&#45;&gt;Node11</title>
<path fill="none" stroke="midnightblue" d="M580.5,-223.98C580.5,-215.35 580.5,-205.76 580.5,-197.59"/>
<polygon fill="midnightblue" stroke="midnightblue" points="577,-224.23 580.5,-234.23 584,-224.23 577,-224.23"/>
</g>
<!-- Node12 -->
<g id="node12" class="node">
<title>Node12</title>
<g id="a_node12"><a xlink:href="Terme__Gravite__VDF__Face_8cpp.html" target="_top" xlink:title=" ">
<polygon fill="white" stroke="black" points="512,-78.5 512,-119.5 649,-119.5 649,-78.5 512,-78.5"/>
<text text-anchor="start" x="520" y="-107.5" font-family="Helvetica,sans-Serif" font-size="10.00">src/VDF/Sources/Sources</text>
<text text-anchor="start" x="520" y="-96.5" font-family="Helvetica,sans-Serif" font-size="10.00">_It_Eval/Terme_Gravite</text>
<text text-anchor="middle" x="580.5" y="-85.5" font-family="Helvetica,sans-Serif" font-size="10.00">_VDF_Face.cpp</text>
</a>
</g>
</g>
<!-- Node11&#45;&gt;Node12 -->
<g id="edge12" class="edge">
<title>Node11&#45;&gt;Node12</title>
<path fill="none" stroke="midnightblue" d="M580.5,-146.3C580.5,-137.3 580.5,-127.65 580.5,-119.51"/>
<polygon fill="midnightblue" stroke="midnightblue" points="577,-146.43 580.5,-156.43 584,-146.43 577,-146.43"/>
</g>
</g>
</svg>
