<?xml version="1.0" encoding="UTF-8" standalone="no"?>
<!DOCTYPE svg PUBLIC "-//W3C//DTD SVG 1.1//EN"
 "http://www.w3.org/Graphics/SVG/1.1/DTD/svg11.dtd">
<!-- Generated by graphviz version 2.43.0 (0)
 -->
<!-- Title: src/Kernel/Framework/Field_base.h Pages: 1 -->
<svg width="796pt" height="823pt"
 viewBox="0.00 0.00 795.65 823.00" xmlns="http://www.w3.org/2000/svg" xmlns:xlink="http://www.w3.org/1999/xlink">
<g id="graph0" class="graph" transform="scale(1 1) rotate(0) translate(4 819)">
<title>src/Kernel/Framework/Field_base.h</title>
<polygon fill="white" stroke="transparent" points="-4,4 -4,-819 791.65,-819 791.65,4 -4,4"/>
<!-- Node1 -->
<g id="node1" class="node">
<title>Node1</title>
<g id="a_node1"><a xlink:title=" ">
<polygon fill="#bfbfbf" stroke="black" points="409.65,-784.5 409.65,-814.5 531.65,-814.5 531.65,-784.5 409.65,-784.5"/>
<text text-anchor="start" x="417.65" y="-802.5" font-family="Helvetica,sans-Serif" font-size="10.00">src/Kernel/Framework</text>
<text text-anchor="middle" x="470.65" y="-791.5" font-family="Helvetica,sans-Serif" font-size="10.00">/Field_base.h</text>
</a>
</g>
</g>
<!-- Node2 -->
<g id="node2" class="node">
<title>Node2</title>
<g id="a_node2"><a xlink:href="Objet__U_8h.html" target="_top" xlink:title=" ">
<polygon fill="white" stroke="black" points="426.15,-224.5 426.15,-243.5 491.15,-243.5 491.15,-224.5 426.15,-224.5"/>
<text text-anchor="middle" x="458.65" y="-231.5" font-family="Helvetica,sans-Serif" font-size="10.00">Objet_U.h</text>
</a>
</g>
</g>
<!-- Node1&#45;&gt;Node2 -->
<g id="edge1" class="edge">
<title>Node1&#45;&gt;Node2</title>
<path fill="none" stroke="midnightblue" d="M465.06,-784.17C457.15,-762.58 443.65,-720.27 443.65,-683 443.65,-683 443.65,-683 443.65,-345 443.65,-312.5 450.16,-275.1 454.6,-253.34"/>
<polygon fill="midnightblue" stroke="midnightblue" points="458.04,-254.01 456.69,-243.5 451.19,-252.56 458.04,-254.01"/>
</g>
<!-- Node20 -->
<g id="node20" class="node">
<title>Node20</title>
<g id="a_node20"><a xlink:href="Noms_8h.html" target="_top" xlink:title=" ">
<polygon fill="white" stroke="black" points="505.65,-728.5 505.65,-747.5 559.65,-747.5 559.65,-728.5 505.65,-728.5"/>
<text text-anchor="middle" x="532.65" y="-735.5" font-family="Helvetica,sans-Serif" font-size="10.00">Noms.h</text>
</a>
</g>
</g>
<!-- Node1&#45;&gt;Node20 -->
<g id="edge25" class="edge">
<title>Node1&#45;&gt;Node20</title>
<path fill="none" stroke="midnightblue" d="M485.34,-784.4C494.63,-775.49 506.65,-763.95 516.25,-754.74"/>
<polygon fill="midnightblue" stroke="midnightblue" points="518.84,-757.11 523.63,-747.66 513.99,-752.06 518.84,-757.11"/>
</g>
<!-- Node3 -->
<g id="node3" class="node">
<title>Node3</title>
<g id="a_node3"><a xlink:title=" ">
<polygon fill="white" stroke="#bfbfbf" points="581.65,-56.5 581.65,-75.5 637.65,-75.5 637.65,-56.5 581.65,-56.5"/>
<text text-anchor="middle" x="609.65" y="-63.5" font-family="Helvetica,sans-Serif" font-size="10.00">assert.h</text>
</a>
</g>
</g>
<!-- Node2&#45;&gt;Node3 -->
<g id="edge2" class="edge">
<title>Node2&#45;&gt;Node3</title>
<path fill="none" stroke="midnightblue" d="M476.05,-224.4C504.37,-209.52 560.3,-176.27 590.65,-132 600.1,-118.21 604.92,-99.69 607.33,-85.94"/>
<polygon fill="midnightblue" stroke="midnightblue" points="610.84,-86.13 608.84,-75.73 603.91,-85.11 610.84,-86.13"/>
</g>
<!-- Node4 -->
<g id="node4" class="node">
<title>Node4</title>
<g id="a_node4"><a xlink:href="DecBaseInst_8h.html" target="_top" xlink:title=" ">
<polygon fill="white" stroke="black" points="155.65,-168.5 155.65,-187.5 241.65,-187.5 241.65,-168.5 155.65,-168.5"/>
<text text-anchor="middle" x="198.65" y="-175.5" font-family="Helvetica,sans-Serif" font-size="10.00">DecBaseInst.h</text>
</a>
</g>
</g>
<!-- Node2&#45;&gt;Node4 -->
<g id="edge3" class="edge">
<title>Node2&#45;&gt;Node4</title>
<path fill="none" stroke="midnightblue" d="M425.99,-226.22C381.74,-217.03 302.31,-200.53 250.04,-189.67"/>
<polygon fill="midnightblue" stroke="midnightblue" points="250.47,-186.19 239.96,-187.58 249.04,-193.04 250.47,-186.19"/>
</g>
<!-- Node9 -->
<g id="node9" class="node">
<title>Node9</title>
<g id="a_node9"><a xlink:href="EntreeSortie_8h.html" target="_top" xlink:title=" ">
<polygon fill="white" stroke="black" points="415.65,-168.5 415.65,-187.5 501.65,-187.5 501.65,-168.5 415.65,-168.5"/>
<text text-anchor="middle" x="458.65" y="-175.5" font-family="Helvetica,sans-Serif" font-size="10.00">EntreeSortie.h</text>
</a>
</g>
</g>
<!-- Node2&#45;&gt;Node9 -->
<g id="edge9" class="edge">
<title>Node2&#45;&gt;Node9</title>
<path fill="none" stroke="midnightblue" d="M458.65,-224.08C458.65,-217.01 458.65,-206.86 458.65,-197.99"/>
<polygon fill="midnightblue" stroke="midnightblue" points="462.15,-197.75 458.65,-187.75 455.15,-197.75 462.15,-197.75"/>
</g>
<!-- Node14 -->
<g id="node14" class="node">
<title>Node14</title>
<g id="a_node14"><a xlink:href="Process_8h.html" target="_top" xlink:title=" ">
<polygon fill="white" stroke="black" points="114.15,-56.5 114.15,-75.5 177.15,-75.5 177.15,-56.5 114.15,-56.5"/>
<text text-anchor="middle" x="145.65" y="-63.5" font-family="Helvetica,sans-Serif" font-size="10.00">Process.h</text>
</a>
</g>
</g>
<!-- Node2&#45;&gt;Node14 -->
<g id="edge24" class="edge">
<title>Node2&#45;&gt;Node14</title>
<path fill="none" stroke="midnightblue" d="M426.11,-233.4C353.68,-233.52 182.74,-229.32 146.65,-188 121.86,-159.62 131.32,-111.6 139.2,-85.4"/>
<polygon fill="midnightblue" stroke="midnightblue" points="142.62,-86.22 142.38,-75.63 135.96,-84.06 142.62,-86.22"/>
</g>
<!-- Node5 -->
<g id="node5" class="node">
<title>Node5</title>
<g id="a_node5"><a xlink:href="Cast_8h.html" target="_top" xlink:title=" ">
<polygon fill="white" stroke="black" points="15.15,-56.5 15.15,-75.5 62.15,-75.5 62.15,-56.5 15.15,-56.5"/>
<text text-anchor="middle" x="38.65" y="-63.5" font-family="Helvetica,sans-Serif" font-size="10.00">Cast.h</text>
</a>
</g>
</g>
<!-- Node4&#45;&gt;Node5 -->
<g id="edge4" class="edge">
<title>Node4&#45;&gt;Node5</title>
<path fill="none" stroke="midnightblue" d="M155.22,-173.12C103.89,-167.52 23.1,-155.21 4.65,-132 -7.52,-116.69 7.15,-96.36 20.83,-82.54"/>
<polygon fill="midnightblue" stroke="midnightblue" points="23.3,-85.02 28.16,-75.6 18.49,-79.94 23.3,-85.02"/>
</g>
<!-- Node6 -->
<g id="node6" class="node">
<title>Node6</title>
<g id="a_node6"><a xlink:href="Type__info_8h.html" target="_top" xlink:title=" ">
<polygon fill="white" stroke="black" points="155.65,-112.5 155.65,-131.5 227.65,-131.5 227.65,-112.5 155.65,-112.5"/>
<text text-anchor="middle" x="191.65" y="-119.5" font-family="Helvetica,sans-Serif" font-size="10.00">Type_info.h</text>
</a>
</g>
</g>
<!-- Node4&#45;&gt;Node6 -->
<g id="edge5" class="edge">
<title>Node4&#45;&gt;Node6</title>
<path fill="none" stroke="midnightblue" d="M197.5,-168.08C196.57,-160.93 195.23,-150.64 194.07,-141.69"/>
<polygon fill="midnightblue" stroke="midnightblue" points="197.54,-141.22 192.79,-131.75 190.6,-142.12 197.54,-141.22"/>
</g>
<!-- Node7 -->
<g id="node7" class="node">
<title>Node7</title>
<g id="a_node7"><a xlink:href="Declare__Base_8h.html" target="_top" xlink:title=" ">
<polygon fill="white" stroke="black" points="245.65,-112.5 245.65,-131.5 337.65,-131.5 337.65,-112.5 245.65,-112.5"/>
<text text-anchor="middle" x="291.65" y="-119.5" font-family="Helvetica,sans-Serif" font-size="10.00">Declare_Base.h</text>
</a>
</g>
</g>
<!-- Node4&#45;&gt;Node7 -->
<g id="edge6" class="edge">
<title>Node4&#45;&gt;Node7</title>
<path fill="none" stroke="midnightblue" d="M213.59,-168.32C228.24,-159.82 250.78,-146.73 267.89,-136.8"/>
<polygon fill="midnightblue" stroke="midnightblue" points="269.86,-139.7 276.75,-131.65 266.34,-133.65 269.86,-139.7"/>
</g>
<!-- Node8 -->
<g id="node8" class="node">
<title>Node8</title>
<g id="a_node8"><a xlink:href="Declare__Inst_8h.html" target="_top" xlink:title=" ">
<polygon fill="white" stroke="black" points="13.65,-112.5 13.65,-131.5 99.65,-131.5 99.65,-112.5 13.65,-112.5"/>
<text text-anchor="middle" x="56.65" y="-119.5" font-family="Helvetica,sans-Serif" font-size="10.00">Declare_Inst.h</text>
</a>
</g>
</g>
<!-- Node4&#45;&gt;Node8 -->
<g id="edge7" class="edge">
<title>Node4&#45;&gt;Node8</title>
<path fill="none" stroke="midnightblue" d="M176.15,-168.44C152.57,-159.48 115.33,-145.31 88.69,-135.18"/>
<polygon fill="midnightblue" stroke="midnightblue" points="89.64,-131.8 79.05,-131.52 87.15,-138.34 89.64,-131.8"/>
</g>
<!-- Node8&#45;&gt;Node5 -->
<g id="edge8" class="edge">
<title>Node8&#45;&gt;Node5</title>
<path fill="none" stroke="midnightblue" d="M53.68,-112.08C51.27,-104.85 47.79,-94.41 44.78,-85.4"/>
<polygon fill="midnightblue" stroke="midnightblue" points="48.05,-84.13 41.57,-75.75 41.41,-86.34 48.05,-84.13"/>
</g>
<!-- Node10 -->
<g id="node10" class="node">
<title>Node10</title>
<g id="a_node10"><a xlink:href="Entree_8h.html" target="_top" xlink:title=" ">
<polygon fill="white" stroke="black" points="356.15,-112.5 356.15,-131.5 413.15,-131.5 413.15,-112.5 356.15,-112.5"/>
<text text-anchor="middle" x="384.65" y="-119.5" font-family="Helvetica,sans-Serif" font-size="10.00">Entree.h</text>
</a>
</g>
</g>
<!-- Node9&#45;&gt;Node10 -->
<g id="edge10" class="edge">
<title>Node9&#45;&gt;Node10</title>
<path fill="none" stroke="midnightblue" d="M446.76,-168.32C435.5,-160.11 418.36,-147.6 404.94,-137.81"/>
<polygon fill="midnightblue" stroke="midnightblue" points="406.9,-134.9 396.76,-131.83 402.77,-140.56 406.9,-134.9"/>
</g>
<!-- Node17 -->
<g id="node17" class="node">
<title>Node17</title>
<g id="a_node17"><a xlink:href="Sortie_8h.html" target="_top" xlink:title=" ">
<polygon fill="white" stroke="black" points="431.65,-112.5 431.65,-131.5 485.65,-131.5 485.65,-112.5 431.65,-112.5"/>
<text text-anchor="middle" x="458.65" y="-119.5" font-family="Helvetica,sans-Serif" font-size="10.00">Sortie.h</text>
</a>
</g>
</g>
<!-- Node9&#45;&gt;Node17 -->
<g id="edge18" class="edge">
<title>Node9&#45;&gt;Node17</title>
<path fill="none" stroke="midnightblue" d="M458.65,-168.08C458.65,-161.01 458.65,-150.86 458.65,-141.99"/>
<polygon fill="midnightblue" stroke="midnightblue" points="462.15,-141.75 458.65,-131.75 455.15,-141.75 462.15,-141.75"/>
</g>
<!-- Node19 -->
<g id="node19" class="node">
<title>Node19</title>
<g id="a_node19"><a xlink:href="Separateur_8h.html" target="_top" xlink:title=" ">
<polygon fill="white" stroke="black" points="503.65,-112.5 503.65,-131.5 581.65,-131.5 581.65,-112.5 503.65,-112.5"/>
<text text-anchor="middle" x="542.65" y="-119.5" font-family="Helvetica,sans-Serif" font-size="10.00">Separateur.h</text>
</a>
</g>
</g>
<!-- Node9&#45;&gt;Node19 -->
<g id="edge23" class="edge">
<title>Node9&#45;&gt;Node19</title>
<path fill="none" stroke="midnightblue" d="M472.15,-168.32C485.25,-159.9 505.36,-146.97 520.76,-137.07"/>
<polygon fill="midnightblue" stroke="midnightblue" points="522.67,-140.01 529.19,-131.65 518.88,-134.12 522.67,-140.01"/>
</g>
<!-- Node10&#45;&gt;Node3 -->
<g id="edge14" class="edge">
<title>Node10&#45;&gt;Node3</title>
<path fill="none" stroke="midnightblue" d="M413.61,-114.05C453.91,-104.38 526.98,-86.84 571.63,-76.13"/>
<polygon fill="midnightblue" stroke="midnightblue" points="572.61,-79.49 581.52,-73.75 570.97,-72.68 572.61,-79.49"/>
</g>
<!-- Node11 -->
<g id="node11" class="node">
<title>Node11</title>
<g id="a_node11"><a xlink:title=" ">
<polygon fill="white" stroke="#bfbfbf" points="258.65,-56.5 258.65,-75.5 308.65,-75.5 308.65,-56.5 258.65,-56.5"/>
<text text-anchor="middle" x="283.65" y="-63.5" font-family="Helvetica,sans-Serif" font-size="10.00">stdio.h</text>
</a>
</g>
</g>
<!-- Node10&#45;&gt;Node11 -->
<g id="edge11" class="edge">
<title>Node10&#45;&gt;Node11</title>
<path fill="none" stroke="midnightblue" d="M368.42,-112.32C352.3,-103.7 327.35,-90.36 308.69,-80.39"/>
<polygon fill="midnightblue" stroke="midnightblue" points="310.31,-77.28 299.84,-75.65 307.01,-83.46 310.31,-77.28"/>
</g>
<!-- Node12 -->
<g id="node12" class="node">
<title>Node12</title>
<g id="a_node12"><a xlink:title=" ">
<polygon fill="white" stroke="#bfbfbf" points="326.65,-56.5 326.65,-75.5 372.65,-75.5 372.65,-56.5 326.65,-56.5"/>
<text text-anchor="middle" x="349.65" y="-63.5" font-family="Helvetica,sans-Serif" font-size="10.00">cstdio</text>
</a>
</g>
</g>
<!-- Node10&#45;&gt;Node12 -->
<g id="edge12" class="edge">
<title>Node10&#45;&gt;Node12</title>
<path fill="none" stroke="midnightblue" d="M378.87,-112.08C373.98,-104.53 366.82,-93.49 360.82,-84.23"/>
<polygon fill="midnightblue" stroke="midnightblue" points="363.7,-82.24 355.32,-75.75 357.82,-86.05 363.7,-82.24"/>
</g>
<!-- Node13 -->
<g id="node13" class="node">
<title>Node13</title>
<g id="a_node13"><a xlink:title=" ">
<polygon fill="white" stroke="#bfbfbf" points="390.65,-56.5 390.65,-75.5 450.65,-75.5 450.65,-56.5 390.65,-56.5"/>
<text text-anchor="middle" x="420.65" y="-63.5" font-family="Helvetica,sans-Serif" font-size="10.00">iostream</text>
</a>
</g>
</g>
<!-- Node10&#45;&gt;Node13 -->
<g id="edge13" class="edge">
<title>Node10&#45;&gt;Node13</title>
<path fill="none" stroke="midnightblue" d="M390.6,-112.08C395.63,-104.53 402.99,-93.49 409.16,-84.23"/>
<polygon fill="midnightblue" stroke="midnightblue" points="412.18,-86.01 414.82,-75.75 406.36,-82.13 412.18,-86.01"/>
</g>
<!-- Node10&#45;&gt;Node14 -->
<g id="edge15" class="edge">
<title>Node10&#45;&gt;Node14</title>
<path fill="none" stroke="midnightblue" d="M356.03,-114.18C352.86,-113.44 349.69,-112.7 346.65,-112 291.56,-99.31 227.85,-85.13 187.18,-76.14"/>
<polygon fill="midnightblue" stroke="midnightblue" points="187.88,-72.71 177.36,-73.97 186.37,-79.55 187.88,-72.71"/>
</g>
<!-- Node15 -->
<g id="node15" class="node">
<title>Node15</title>
<g id="a_node15"><a xlink:href="arch_8h.html" target="_top" xlink:title=" ">
<polygon fill="white" stroke="black" points="469.15,-56.5 469.15,-75.5 516.15,-75.5 516.15,-56.5 469.15,-56.5"/>
<text text-anchor="middle" x="492.65" y="-63.5" font-family="Helvetica,sans-Serif" font-size="10.00">arch.h</text>
</a>
</g>
</g>
<!-- Node10&#45;&gt;Node15 -->
<g id="edge16" class="edge">
<title>Node10&#45;&gt;Node15</title>
<path fill="none" stroke="midnightblue" d="M402,-112.32C419.32,-103.66 446.17,-90.24 466.15,-80.25"/>
<polygon fill="midnightblue" stroke="midnightblue" points="467.96,-83.26 475.34,-75.65 464.83,-77 467.96,-83.26"/>
</g>
<!-- Node16 -->
<g id="node16" class="node">
<title>Node16</title>
<g id="a_node16"><a xlink:href="generique_8h.html" target="_top" xlink:title=" ">
<polygon fill="white" stroke="black" points="455.65,-0.5 455.65,-19.5 529.65,-19.5 529.65,-0.5 455.65,-0.5"/>
<text text-anchor="middle" x="492.65" y="-7.5" font-family="Helvetica,sans-Serif" font-size="10.00">generique.h</text>
</a>
</g>
</g>
<!-- Node15&#45;&gt;Node16 -->
<g id="edge17" class="edge">
<title>Node15&#45;&gt;Node16</title>
<path fill="none" stroke="midnightblue" d="M492.65,-56.08C492.65,-49.01 492.65,-38.86 492.65,-29.99"/>
<polygon fill="midnightblue" stroke="midnightblue" points="496.15,-29.75 492.65,-19.75 489.15,-29.75 496.15,-29.75"/>
</g>
<!-- Node17&#45;&gt;Node3 -->
<g id="edge20" class="edge">
<title>Node17&#45;&gt;Node3</title>
<path fill="none" stroke="midnightblue" d="M482.58,-112.44C507.87,-103.4 547.95,-89.06 576.33,-78.92"/>
<polygon fill="midnightblue" stroke="midnightblue" points="577.6,-82.18 585.84,-75.52 575.24,-75.59 577.6,-82.18"/>
</g>
<!-- Node17&#45;&gt;Node13 -->
<g id="edge19" class="edge">
<title>Node17&#45;&gt;Node13</title>
<path fill="none" stroke="midnightblue" d="M452.38,-112.08C447.01,-104.46 439.13,-93.26 432.57,-83.94"/>
<polygon fill="midnightblue" stroke="midnightblue" points="435.43,-81.91 426.81,-75.75 429.7,-85.94 435.43,-81.91"/>
</g>
<!-- Node17&#45;&gt;Node15 -->
<g id="edge21" class="edge">
<title>Node17&#45;&gt;Node15</title>
<path fill="none" stroke="midnightblue" d="M464.27,-112.08C469.02,-104.53 475.97,-93.49 481.8,-84.23"/>
<polygon fill="midnightblue" stroke="midnightblue" points="484.77,-86.08 487.14,-75.75 478.85,-82.35 484.77,-86.08"/>
</g>
<!-- Node18 -->
<g id="node18" class="node">
<title>Node18</title>
<g id="a_node18"><a xlink:title=" ">
<polygon fill="white" stroke="#bfbfbf" points="678.65,-56.5 678.65,-75.5 722.65,-75.5 722.65,-56.5 678.65,-56.5"/>
<text text-anchor="middle" x="700.65" y="-63.5" font-family="Helvetica,sans-Serif" font-size="10.00">string</text>
</a>
</g>
</g>
<!-- Node17&#45;&gt;Node18 -->
<g id="edge22" class="edge">
<title>Node17&#45;&gt;Node18</title>
<path fill="none" stroke="midnightblue" d="M485.76,-114.13C488.75,-113.4 491.77,-112.68 494.65,-112 555.97,-97.64 627.9,-82.26 668.49,-73.71"/>
<polygon fill="midnightblue" stroke="midnightblue" points="669.28,-77.12 678.35,-71.64 667.84,-70.27 669.28,-77.12"/>
</g>
<!-- Node21 -->
<g id="node21" class="node">
<title>Node21</title>
<g id="a_node21"><a xlink:href="Vect_8h.html" target="_top" xlink:title=" ">
<polygon fill="white" stroke="black" points="556.15,-672.5 556.15,-691.5 603.15,-691.5 603.15,-672.5 556.15,-672.5"/>
<text text-anchor="middle" x="579.65" y="-679.5" font-family="Helvetica,sans-Serif" font-size="10.00">Vect.h</text>
</a>
</g>
</g>
<!-- Node20&#45;&gt;Node21 -->
<g id="edge26" class="edge">
<title>Node20&#45;&gt;Node21</title>
<path fill="none" stroke="midnightblue" d="M540.41,-728.08C547.19,-720.3 557.19,-708.8 565.41,-699.37"/>
<polygon fill="midnightblue" stroke="midnightblue" points="568.11,-701.59 572.03,-691.75 562.83,-697 568.11,-701.59"/>
</g>
<!-- Node22 -->
<g id="node22" class="node">
<title>Node22</title>
<g id="a_node22"><a xlink:href="MacVect_8h.html" target="_top" xlink:title=" ">
<polygon fill="white" stroke="black" points="593.15,-616.5 593.15,-635.5 660.15,-635.5 660.15,-616.5 593.15,-616.5"/>
<text text-anchor="middle" x="626.65" y="-623.5" font-family="Helvetica,sans-Serif" font-size="10.00">MacVect.h</text>
</a>
</g>
</g>
<!-- Node21&#45;&gt;Node22 -->
<g id="edge27" class="edge">
<title>Node21&#45;&gt;Node22</title>
<path fill="none" stroke="midnightblue" d="M587.41,-672.08C594.19,-664.3 604.19,-652.8 612.41,-643.37"/>
<polygon fill="midnightblue" stroke="midnightblue" points="615.11,-645.59 619.03,-635.75 609.83,-641 615.11,-645.59"/>
</g>
<!-- Node22&#45;&gt;Node3 -->
<g id="edge32" class="edge">
<title>Node22&#45;&gt;Node3</title>
<path fill="none" stroke="midnightblue" d="M621.96,-616.42C612.94,-599.41 593.51,-559.94 586.65,-524 562.05,-395.05 647.65,-366.27 647.65,-235 647.65,-235 647.65,-235 647.65,-177 647.65,-142.81 631.05,-105.76 619.79,-84.57"/>
<polygon fill="midnightblue" stroke="midnightblue" points="622.83,-82.83 614.93,-75.77 616.7,-86.22 622.83,-82.83"/>
</g>
<!-- Node23 -->
<g id="node23" class="node">
<title>Node23</title>
<g id="a_node23"><a xlink:href="Nom_8h.html" target="_top" xlink:title=" ">
<polygon fill="white" stroke="black" points="654.15,-448.5 654.15,-467.5 703.15,-467.5 703.15,-448.5 654.15,-448.5"/>
<text text-anchor="middle" x="678.65" y="-455.5" font-family="Helvetica,sans-Serif" font-size="10.00">Nom.h</text>
</a>
</g>
</g>
<!-- Node22&#45;&gt;Node23 -->
<g id="edge28" class="edge">
<title>Node22&#45;&gt;Node23</title>
<path fill="none" stroke="midnightblue" d="M630.78,-616.28C638.79,-599.04 656.55,-559.16 666.65,-524 671.06,-508.65 674.23,-490.77 676.19,-477.65"/>
<polygon fill="midnightblue" stroke="midnightblue" points="679.69,-477.93 677.61,-467.54 672.76,-476.95 679.69,-477.93"/>
</g>
<!-- Node25 -->
<g id="node25" class="node">
<title>Node25</title>
<g id="a_node25"><a xlink:href="vect__impl_8h.html" target="_top" xlink:title=" ">
<polygon fill="white" stroke="black" points="713.65,-560.5 713.65,-579.5 787.65,-579.5 787.65,-560.5 713.65,-560.5"/>
<text text-anchor="middle" x="750.65" y="-567.5" font-family="Helvetica,sans-Serif" font-size="10.00">vect_impl.h</text>
</a>
</g>
</g>
<!-- Node22&#45;&gt;Node25 -->
<g id="edge33" class="edge">
<title>Node22&#45;&gt;Node25</title>
<path fill="none" stroke="midnightblue" d="M646.3,-616.44C666.62,-607.6 698.55,-593.69 721.75,-583.59"/>
<polygon fill="midnightblue" stroke="midnightblue" points="723.32,-586.72 731.09,-579.52 720.53,-580.3 723.32,-586.72"/>
</g>
<!-- Node23&#45;&gt;Node2 -->
<g id="edge29" class="edge">
<title>Node23&#45;&gt;Node2</title>
<path fill="none" stroke="midnightblue" d="M669.88,-448.38C661.09,-439.57 647.37,-425.32 636.65,-412 592,-356.47 599.11,-327.11 545.65,-280 529.83,-266.06 508.91,-255.06 491.56,-247.43"/>
<polygon fill="midnightblue" stroke="midnightblue" points="492.91,-244.2 482.34,-243.54 490.19,-250.65 492.91,-244.2"/>
</g>
<!-- Node23&#45;&gt;Node18 -->
<g id="edge31" class="edge">
<title>Node23&#45;&gt;Node18</title>
<path fill="none" stroke="midnightblue" d="M684.91,-448.37C697.27,-430.44 723.65,-387.44 723.65,-347 723.65,-347 723.65,-347 723.65,-177 723.65,-144.12 713.68,-106.86 706.87,-85.24"/>
<polygon fill="midnightblue" stroke="midnightblue" points="710.19,-84.12 703.75,-75.71 703.54,-86.3 710.19,-84.12"/>
</g>
<!-- Node24 -->
<g id="node24" class="node">
<title>Node24</title>
<g id="a_node24"><a xlink:title=" ">
<polygon fill="white" stroke="#bfbfbf" points="645.65,-392.5 645.65,-411.5 695.65,-411.5 695.65,-392.5 645.65,-392.5"/>
<text text-anchor="middle" x="670.65" y="-399.5" font-family="Helvetica,sans-Serif" font-size="10.00">cstring</text>
</a>
</g>
</g>
<!-- Node23&#45;&gt;Node24 -->
<g id="edge30" class="edge">
<title>Node23&#45;&gt;Node24</title>
<path fill="none" stroke="midnightblue" d="M677.33,-448.08C676.27,-440.93 674.75,-430.64 673.42,-421.69"/>
<polygon fill="midnightblue" stroke="midnightblue" points="676.88,-421.13 671.95,-411.75 669.95,-422.16 676.88,-421.13"/>
</g>
<!-- Node25&#45;&gt;Node3 -->
<g id="edge35" class="edge">
<title>Node25&#45;&gt;Node3</title>
<path fill="none" stroke="midnightblue" d="M752.09,-560.47C755.07,-542.02 761.65,-497 761.65,-459 761.65,-459 761.65,-459 761.65,-233 761.65,-159.46 679.51,-104.34 635.99,-80.29"/>
<polygon fill="midnightblue" stroke="midnightblue" points="637.55,-77.16 627.09,-75.51 634.24,-83.32 637.55,-77.16"/>
</g>
<!-- Node25&#45;&gt;Node23 -->
<g id="edge34" class="edge">
<title>Node25&#45;&gt;Node23</title>
<path fill="none" stroke="midnightblue" d="M745,-560.37C733.12,-542.22 705.36,-499.8 689.77,-475.99"/>
<polygon fill="midnightblue" stroke="midnightblue" points="692.68,-474.04 684.27,-467.59 686.82,-477.88 692.68,-474.04"/>
</g>
<!-- Node26 -->
<g id="node26" class="node">
<title>Node26</title>
<g id="a_node26"><a xlink:href="DerOu___8h.html" target="_top" xlink:title=" ">
<polygon fill="white" stroke="black" points="595.65,-504.5 595.65,-523.5 657.65,-523.5 657.65,-504.5 595.65,-504.5"/>
<text text-anchor="middle" x="626.65" y="-511.5" font-family="Helvetica,sans-Serif" font-size="10.00">DerOu_.h</text>
</a>
</g>
</g>
<!-- Node25&#45;&gt;Node26 -->
<g id="edge36" class="edge">
<title>Node25&#45;&gt;Node26</title>
<path fill="none" stroke="midnightblue" d="M731,-560.44C710.69,-551.6 678.75,-537.69 655.55,-527.59"/>
<polygon fill="midnightblue" stroke="midnightblue" points="656.77,-524.3 646.21,-523.52 653.98,-530.72 656.77,-524.3"/>
</g>
<!-- Node26&#45;&gt;Node23 -->
<g id="edge42" class="edge">
<title>Node26&#45;&gt;Node23</title>
<path fill="none" stroke="midnightblue" d="M635.24,-504.08C642.81,-496.22 654.03,-484.57 663.17,-475.08"/>
<polygon fill="midnightblue" stroke="midnightblue" points="665.81,-477.38 670.22,-467.75 660.77,-472.53 665.81,-477.38"/>
</g>
<!-- Node27 -->
<g id="node27" class="node">
<title>Node27</title>
<g id="a_node27"><a xlink:href="Deriv_8h.html" target="_top" xlink:title=" ">
<polygon fill="white" stroke="black" points="486.15,-448.5 486.15,-467.5 537.15,-467.5 537.15,-448.5 486.15,-448.5"/>
<text text-anchor="middle" x="511.65" y="-455.5" font-family="Helvetica,sans-Serif" font-size="10.00">Deriv.h</text>
</a>
</g>
</g>
<!-- Node26&#45;&gt;Node27 -->
<g id="edge37" class="edge">
<title>Node26&#45;&gt;Node27</title>
<path fill="none" stroke="midnightblue" d="M608.43,-504.44C589.76,-495.68 560.5,-481.94 539.03,-471.86"/>
<polygon fill="midnightblue" stroke="midnightblue" points="540.33,-468.6 529.79,-467.52 537.35,-474.93 540.33,-468.6"/>
</g>
<!-- Node28 -->
<g id="node28" class="node">
<title>Node28</title>
<g id="a_node28"><a xlink:href="MacDeriv_8h.html" target="_top" xlink:title=" ">
<polygon fill="white" stroke="black" points="472.15,-392.5 472.15,-411.5 543.15,-411.5 543.15,-392.5 472.15,-392.5"/>
<text text-anchor="middle" x="507.65" y="-399.5" font-family="Helvetica,sans-Serif" font-size="10.00">MacDeriv.h</text>
</a>
</g>
</g>
<!-- Node27&#45;&gt;Node28 -->
<g id="edge38" class="edge">
<title>Node27&#45;&gt;Node28</title>
<path fill="none" stroke="midnightblue" d="M510.99,-448.08C510.47,-441.01 509.71,-430.86 509.06,-421.99"/>
<polygon fill="midnightblue" stroke="midnightblue" points="512.53,-421.47 508.3,-411.75 505.55,-421.98 512.53,-421.47"/>
</g>
<!-- Node29 -->
<g id="node29" class="node">
<title>Node29</title>
<g id="a_node29"><a xlink:href="Deriv___8h.html" target="_top" xlink:title=" ">
<polygon fill="white" stroke="black" points="478.15,-336.5 478.15,-355.5 535.15,-355.5 535.15,-336.5 478.15,-336.5"/>
<text text-anchor="middle" x="506.65" y="-343.5" font-family="Helvetica,sans-Serif" font-size="10.00">Deriv_.h</text>
</a>
</g>
</g>
<!-- Node28&#45;&gt;Node29 -->
<g id="edge39" class="edge">
<title>Node28&#45;&gt;Node29</title>
<path fill="none" stroke="midnightblue" d="M507.49,-392.08C507.35,-385.01 507.17,-374.86 507,-365.99"/>
<polygon fill="midnightblue" stroke="midnightblue" points="510.5,-365.68 506.81,-355.75 503.5,-365.81 510.5,-365.68"/>
</g>
<!-- Node30 -->
<g id="node30" class="node">
<title>Node30</title>
<g id="a_node30"><a xlink:href="O__U__Ptr_8h.html" target="_top" xlink:title=" ">
<polygon fill="white" stroke="black" points="472.65,-280.5 472.65,-299.5 536.65,-299.5 536.65,-280.5 472.65,-280.5"/>
<text text-anchor="middle" x="504.65" y="-287.5" font-family="Helvetica,sans-Serif" font-size="10.00">O_U_Ptr.h</text>
</a>
</g>
</g>
<!-- Node29&#45;&gt;Node30 -->
<g id="edge40" class="edge">
<title>Node29&#45;&gt;Node30</title>
<path fill="none" stroke="midnightblue" d="M506.32,-336.08C506.06,-329.01 505.68,-318.86 505.35,-309.99"/>
<polygon fill="midnightblue" stroke="midnightblue" points="508.84,-309.61 504.98,-299.75 501.85,-309.87 508.84,-309.61"/>
</g>
<!-- Node30&#45;&gt;Node2 -->
<g id="edge41" class="edge">
<title>Node30&#45;&gt;Node2</title>
<path fill="none" stroke="midnightblue" d="M497.06,-280.08C490.42,-272.3 480.63,-260.8 472.59,-251.37"/>
<polygon fill="midnightblue" stroke="midnightblue" points="475.25,-249.09 466.11,-243.75 469.93,-253.63 475.25,-249.09"/>
</g>
</g>
</svg>
