<?xml version="1.0" encoding="UTF-8" standalone="no"?>
<!DOCTYPE svg PUBLIC "-//W3C//DTD SVG 1.1//EN"
 "http://www.w3.org/Graphics/SVG/1.1/DTD/svg11.dtd">
<!-- Generated by graphviz version 2.43.0 (0)
 -->
<!-- Title: src/ThHyd/Incompressible/Milieu/Fluide_Incompressible.h Pages: 1 -->
<svg width="5175pt" height="195pt"
 viewBox="0.00 0.00 5174.50 195.00" xmlns="http://www.w3.org/2000/svg" xmlns:xlink="http://www.w3.org/1999/xlink">
<g id="graph0" class="graph" transform="scale(1 1) rotate(0) translate(4 191)">
<title>src/ThHyd/Incompressible/Milieu/Fluide_Incompressible.h</title>
<polygon fill="white" stroke="transparent" points="-4,4 -4,-191 5170.5,-191 5170.5,4 -4,4"/>
<!-- Node1 -->
<g id="node1" class="node">
<title>Node1</title>
<g id="a_node1"><a xlink:title=" ">
<polygon fill="#bfbfbf" stroke="black" points="2640,-156.5 2640,-186.5 2811,-186.5 2811,-156.5 2640,-156.5"/>
<text text-anchor="start" x="2648" y="-174.5" font-family="Helvetica,sans-Serif" font-size="10.00">src/ThHyd/Incompressible</text>
<text text-anchor="middle" x="2725.5" y="-163.5" font-family="Helvetica,sans-Serif" font-size="10.00">/Milieu/Fluide_Incompressible.h</text>
</a>
</g>
</g>
<!-- Node2 -->
<g id="node2" class="node">
<title>Node2</title>
<g id="a_node2"><a xlink:href="Perte__Charge__Circulaire__PolyMAC__Face_8cpp.html" target="_top" xlink:title=" ">
<polygon fill="white" stroke="black" points="0,-78.5 0,-119.5 137,-119.5 137,-78.5 0,-78.5"/>
<text text-anchor="start" x="8" y="-107.5" font-family="Helvetica,sans-Serif" font-size="10.00">src/PolyMAC/Sources</text>
<text text-anchor="start" x="8" y="-96.5" font-family="Helvetica,sans-Serif" font-size="10.00">/Perte_Charge_Circulaire</text>
<text text-anchor="middle" x="68.5" y="-85.5" font-family="Helvetica,sans-Serif" font-size="10.00">_PolyMAC_Face.cpp</text>
</a>
</g>
</g>
<!-- Node1&#45;&gt;Node2 -->
<g id="edge1" class="edge">
<title>Node1&#45;&gt;Node2</title>
<path fill="none" stroke="midnightblue" d="M2629.9,-169.94C2192.86,-167.19 395.67,-153.92 146.5,-120 143.45,-119.59 140.35,-119.09 137.23,-118.54"/>
<polygon fill="midnightblue" stroke="midnightblue" points="2629.95,-173.44 2639.97,-170 2629.99,-166.44 2629.95,-173.44"/>
</g>
<!-- Node3 -->
<g id="node3" class="node">
<title>Node3</title>
<g id="a_node3"><a xlink:href="Perte__Charge__PolyMAC_8cpp.html" target="_top" xlink:title=" ">
<polygon fill="white" stroke="black" points="155.5,-84 155.5,-114 309.5,-114 309.5,-84 155.5,-84"/>
<text text-anchor="start" x="163.5" y="-102" font-family="Helvetica,sans-Serif" font-size="10.00">src/PolyMAC/Sources</text>
<text text-anchor="middle" x="232.5" y="-91" font-family="Helvetica,sans-Serif" font-size="10.00">/Perte_Charge_PolyMAC.cpp</text>
</a>
</g>
</g>
<!-- Node1&#45;&gt;Node3 -->
<g id="edge2" class="edge">
<title>Node1&#45;&gt;Node3</title>
<path fill="none" stroke="midnightblue" d="M2629.5,-169.66C2210.2,-165.85 550.1,-149.04 318.5,-120 307.55,-118.63 295.96,-116.44 284.95,-114.02"/>
<polygon fill="midnightblue" stroke="midnightblue" points="2629.73,-173.17 2639.77,-169.76 2629.8,-166.17 2629.73,-173.17"/>
</g>
<!-- Node4 -->
<g id="node4" class="node">
<title>Node4</title>
<g id="a_node4"><a xlink:href="Perte__Charge__PolyMAC__Face_8cpp.html" target="_top" xlink:title=" ">
<polygon fill="white" stroke="black" points="327.5,-78.5 327.5,-119.5 461.5,-119.5 461.5,-78.5 327.5,-78.5"/>
<text text-anchor="start" x="335.5" y="-107.5" font-family="Helvetica,sans-Serif" font-size="10.00">src/PolyMAC/Sources</text>
<text text-anchor="start" x="335.5" y="-96.5" font-family="Helvetica,sans-Serif" font-size="10.00">/Perte_Charge_PolyMAC</text>
<text text-anchor="middle" x="394.5" y="-85.5" font-family="Helvetica,sans-Serif" font-size="10.00">_Face.cpp</text>
</a>
</g>
</g>
<!-- Node1&#45;&gt;Node4 -->
<g id="edge3" class="edge">
<title>Node1&#45;&gt;Node4</title>
<path fill="none" stroke="midnightblue" d="M2629.61,-169.68C2227.23,-166.06 685.97,-150.33 470.5,-120 467.66,-119.6 464.78,-119.13 461.88,-118.61"/>
<polygon fill="midnightblue" stroke="midnightblue" points="2629.72,-173.18 2639.76,-169.77 2629.79,-166.18 2629.72,-173.18"/>
</g>
<!-- Node5 -->
<g id="node5" class="node">
<title>Node5</title>
<g id="a_node5"><a xlink:href="Terme__Boussinesq__PolyMAC__Face_8cpp.html" target="_top" xlink:title=" ">
<polygon fill="white" stroke="black" points="480,-78.5 480,-119.5 639,-119.5 639,-78.5 480,-78.5"/>
<text text-anchor="start" x="488" y="-107.5" font-family="Helvetica,sans-Serif" font-size="10.00">src/PolyMAC/Sources</text>
<text text-anchor="start" x="488" y="-96.5" font-family="Helvetica,sans-Serif" font-size="10.00">/Terme_Boussinesq_PolyMAC</text>
<text text-anchor="middle" x="559.5" y="-85.5" font-family="Helvetica,sans-Serif" font-size="10.00">_Face.cpp</text>
</a>
</g>
</g>
<!-- Node1&#45;&gt;Node5 -->
<g id="edge4" class="edge">
<title>Node1&#45;&gt;Node5</title>
<path fill="none" stroke="midnightblue" d="M2629.54,-170.7C2274.88,-171.06 1038.57,-168.7 647.5,-120 644.86,-119.67 642.18,-119.3 639.48,-118.89"/>
<polygon fill="midnightblue" stroke="midnightblue" points="2629.77,-174.2 2639.77,-170.69 2629.77,-167.2 2629.77,-174.2"/>
</g>
<!-- Node6 -->
<g id="node6" class="node">
<title>Node6</title>
<g id="a_node6"><a xlink:href="Terme__Puissance__Thermique__Echange__Impose__Elem__PolyMAC_8cpp.html" target="_top" xlink:title=" ">
<polygon fill="white" stroke="black" points="657,-78.5 657,-119.5 860,-119.5 860,-78.5 657,-78.5"/>
<text text-anchor="start" x="665" y="-107.5" font-family="Helvetica,sans-Serif" font-size="10.00">src/PolyMAC/Sources</text>
<text text-anchor="start" x="665" y="-96.5" font-family="Helvetica,sans-Serif" font-size="10.00">/Terme_Puissance_Thermique</text>
<text text-anchor="middle" x="758.5" y="-85.5" font-family="Helvetica,sans-Serif" font-size="10.00">_Echange_Impose_Elem_PolyMAC.cpp</text>
</a>
</g>
</g>
<!-- Node1&#45;&gt;Node6 -->
<g id="edge5" class="edge">
<title>Node1&#45;&gt;Node6</title>
<path fill="none" stroke="midnightblue" d="M2629.5,-169.8C2299.94,-167.12 1215.94,-155.72 869.5,-120 866.38,-119.68 863.22,-119.32 860.04,-118.93"/>
<polygon fill="midnightblue" stroke="midnightblue" points="2629.94,-173.31 2639.97,-169.89 2630,-166.31 2629.94,-173.31"/>
</g>
<!-- Node7 -->
<g id="node7" class="node">
<title>Node7</title>
<g id="a_node7"><a xlink:href="Champ__front__pression__from__u_8cpp.html" target="_top" xlink:title=" ">
<polygon fill="white" stroke="black" points="878.5,-78.5 878.5,-119.5 1050.5,-119.5 1050.5,-78.5 878.5,-78.5"/>
<text text-anchor="start" x="886.5" y="-107.5" font-family="Helvetica,sans-Serif" font-size="10.00">src/ThHyd/Incompressible</text>
<text text-anchor="start" x="886.5" y="-96.5" font-family="Helvetica,sans-Serif" font-size="10.00">/Champs/Champ_front_pression</text>
<text text-anchor="middle" x="964.5" y="-85.5" font-family="Helvetica,sans-Serif" font-size="10.00">_from_u.cpp</text>
</a>
</g>
</g>
<!-- Node1&#45;&gt;Node7 -->
<g id="edge6" class="edge">
<title>Node1&#45;&gt;Node7</title>
<path fill="none" stroke="midnightblue" d="M2629.74,-169.83C2322.97,-167.32 1366.68,-156.7 1059.5,-120 1056.57,-119.65 1053.6,-119.25 1050.6,-118.82"/>
<polygon fill="midnightblue" stroke="midnightblue" points="2629.92,-173.33 2639.94,-169.91 2629.97,-166.33 2629.92,-173.33"/>
</g>
<!-- Node8 -->
<g id="node8" class="node">
<title>Node8</title>
<g id="a_node8"><a xlink:href="Sortie__libre__pression__imposee_8cpp.html" target="_top" xlink:title=" ">
<polygon fill="white" stroke="black" points="1069,-78.5 1069,-119.5 1212,-119.5 1212,-78.5 1069,-78.5"/>
<text text-anchor="start" x="1077" y="-107.5" font-family="Helvetica,sans-Serif" font-size="10.00">src/ThHyd/Incompressible</text>
<text text-anchor="start" x="1077" y="-96.5" font-family="Helvetica,sans-Serif" font-size="10.00">/Cond_Lim/Sortie_libre</text>
<text text-anchor="middle" x="1140.5" y="-85.5" font-family="Helvetica,sans-Serif" font-size="10.00">_pression_imposee.cpp</text>
</a>
</g>
</g>
<!-- Node1&#45;&gt;Node8 -->
<g id="edge7" class="edge">
<title>Node1&#45;&gt;Node8</title>
<path fill="none" stroke="midnightblue" d="M2629.31,-169.89C2342.31,-167.65 1495.02,-157.94 1221.5,-120 1218.49,-119.58 1215.42,-119.1 1212.34,-118.56"/>
<polygon fill="midnightblue" stroke="midnightblue" points="2629.67,-173.39 2639.7,-169.97 2629.72,-166.39 2629.67,-173.39"/>
</g>
<!-- Node9 -->
<g id="node9" class="node">
<title>Node9</title>
<g id="a_node9"><a xlink:href="Fluide__Incompressible_8cpp.html" target="_top" xlink:title=" ">
<polygon fill="white" stroke="black" points="1230.5,-84 1230.5,-114 1412.5,-114 1412.5,-84 1230.5,-84"/>
<text text-anchor="start" x="1238.5" y="-102" font-family="Helvetica,sans-Serif" font-size="10.00">src/ThHyd/Incompressible</text>
<text text-anchor="middle" x="1321.5" y="-91" font-family="Helvetica,sans-Serif" font-size="10.00">/Milieu/Fluide_Incompressible.cpp</text>
</a>
</g>
</g>
<!-- Node1&#45;&gt;Node9 -->
<g id="edge8" class="edge">
<title>Node1&#45;&gt;Node9</title>
<path fill="none" stroke="midnightblue" d="M2629.81,-168.74C2370.17,-163.65 1656.3,-147.51 1422.5,-120 1410.07,-118.54 1396.89,-116.38 1384.29,-114.02"/>
<polygon fill="midnightblue" stroke="midnightblue" points="2629.9,-172.24 2639.97,-168.94 2630.04,-165.24 2629.9,-172.24"/>
</g>
<!-- Node10 -->
<g id="node10" class="node">
<title>Node10</title>
<g id="a_node10"><a xlink:href="Fluide__Ostwald_8h.html" target="_top" xlink:title=" ">
<polygon fill="white" stroke="black" points="1431,-84 1431,-114 1574,-114 1574,-84 1431,-84"/>
<text text-anchor="start" x="1439" y="-102" font-family="Helvetica,sans-Serif" font-size="10.00">src/ThHyd/Incompressible</text>
<text text-anchor="middle" x="1502.5" y="-91" font-family="Helvetica,sans-Serif" font-size="10.00">/Milieu/Fluide_Ostwald.h</text>
</a>
</g>
</g>
<!-- Node1&#45;&gt;Node10 -->
<g id="edge9" class="edge">
<title>Node1&#45;&gt;Node10</title>
<path fill="none" stroke="midnightblue" d="M2629.26,-168.69C2392.08,-163.85 1784.19,-148.92 1583.5,-120 1573.46,-118.55 1562.86,-116.4 1552.75,-114.04"/>
<polygon fill="midnightblue" stroke="midnightblue" points="2629.52,-172.2 2639.59,-168.9 2629.67,-165.2 2629.52,-172.2"/>
</g>
<!-- Node20 -->
<g id="node20" class="node">
<title>Node20</title>
<g id="a_node20"><a xlink:href="Ref__Fluide__Incompressible_8cpp.html" target="_top" xlink:title=" ">
<polygon fill="white" stroke="black" points="1592.5,-84 1592.5,-114 1796.5,-114 1796.5,-84 1592.5,-84"/>
<text text-anchor="start" x="1600.5" y="-102" font-family="Helvetica,sans-Serif" font-size="10.00">src/ThHyd/Incompressible</text>
<text text-anchor="middle" x="1694.5" y="-91" font-family="Helvetica,sans-Serif" font-size="10.00">/Milieu/Ref_Fluide_Incompressible.cpp</text>
</a>
</g>
</g>
<!-- Node1&#45;&gt;Node20 -->
<g id="edge19" class="edge">
<title>Node1&#45;&gt;Node20</title>
<path fill="none" stroke="midnightblue" d="M2629.98,-169.08C2462.63,-165.74 2105.72,-154.81 1806.5,-120 1793.16,-118.45 1779,-116.31 1765.41,-114.01"/>
<polygon fill="midnightblue" stroke="midnightblue" points="2629.93,-172.58 2640,-169.27 2630.07,-165.58 2629.93,-172.58"/>
</g>
<!-- Node21 -->
<g id="node21" class="node">
<title>Node21</title>
<g id="a_node21"><a xlink:href="Pb__Hydraulique__Concentration_8cpp.html" target="_top" xlink:title=" ">
<polygon fill="white" stroke="black" points="1815,-78.5 1815,-119.5 1960,-119.5 1960,-78.5 1815,-78.5"/>
<text text-anchor="start" x="1823" y="-107.5" font-family="Helvetica,sans-Serif" font-size="10.00">src/ThHyd/Incompressible</text>
<text text-anchor="start" x="1823" y="-96.5" font-family="Helvetica,sans-Serif" font-size="10.00">/Problems/Pb_Hydraulique</text>
<text text-anchor="middle" x="1887.5" y="-85.5" font-family="Helvetica,sans-Serif" font-size="10.00">_Concentration.cpp</text>
</a>
</g>
</g>
<!-- Node1&#45;&gt;Node21 -->
<g id="edge20" class="edge">
<title>Node1&#45;&gt;Node21</title>
<path fill="none" stroke="midnightblue" d="M2629.81,-169.38C2485.77,-166.52 2205.01,-156.31 1969.5,-120 1966.46,-119.53 1963.36,-119 1960.25,-118.43"/>
<polygon fill="midnightblue" stroke="midnightblue" points="2629.88,-172.89 2639.94,-169.58 2630.01,-165.89 2629.88,-172.89"/>
</g>
<!-- Node22 -->
<g id="node22" class="node">
<title>Node22</title>
<g id="a_node22"><a xlink:href="Pb__Thermohydraulique__Concentration_8cpp.html" target="_top" xlink:title=" ">
<polygon fill="white" stroke="black" points="1978,-78.5 1978,-119.5 2159,-119.5 2159,-78.5 1978,-78.5"/>
<text text-anchor="start" x="1986" y="-107.5" font-family="Helvetica,sans-Serif" font-size="10.00">src/ThHyd/Incompressible</text>
<text text-anchor="start" x="1986" y="-96.5" font-family="Helvetica,sans-Serif" font-size="10.00">/Problems/Pb_Thermohydraulique</text>
<text text-anchor="middle" x="2068.5" y="-85.5" font-family="Helvetica,sans-Serif" font-size="10.00">_Concentration.cpp</text>
</a>
</g>
</g>
<!-- Node1&#45;&gt;Node22 -->
<g id="edge21" class="edge">
<title>Node1&#45;&gt;Node22</title>
<path fill="none" stroke="midnightblue" d="M2629.57,-164.93C2518.29,-157.75 2329.48,-143.33 2168.5,-120 2165.43,-119.56 2162.32,-119.08 2159.18,-118.58"/>
<polygon fill="midnightblue" stroke="midnightblue" points="2629.56,-168.44 2639.76,-165.58 2630.01,-161.45 2629.56,-168.44"/>
</g>
<!-- Node23 -->
<g id="node23" class="node">
<title>Node23</title>
<g id="a_node23"><a xlink:href="Terme__Source__Canal__perio_8cpp.html" target="_top" xlink:title=" ">
<polygon fill="white" stroke="black" points="2177.5,-78.5 2177.5,-119.5 2339.5,-119.5 2339.5,-78.5 2177.5,-78.5"/>
<text text-anchor="start" x="2185.5" y="-107.5" font-family="Helvetica,sans-Serif" font-size="10.00">src/ThHyd/Incompressible</text>
<text text-anchor="start" x="2185.5" y="-96.5" font-family="Helvetica,sans-Serif" font-size="10.00">/Sources/Terme_Source_Canal</text>
<text text-anchor="middle" x="2258.5" y="-85.5" font-family="Helvetica,sans-Serif" font-size="10.00">_perio.cpp</text>
</a>
</g>
</g>
<!-- Node1&#45;&gt;Node23 -->
<g id="edge22" class="edge">
<title>Node1&#45;&gt;Node23</title>
<path fill="none" stroke="midnightblue" d="M2629.75,-159.97C2553.33,-151.01 2443.7,-136.92 2348.5,-120 2345.66,-119.5 2342.78,-118.96 2339.87,-118.41"/>
<polygon fill="midnightblue" stroke="midnightblue" points="2629.49,-163.46 2639.83,-161.14 2630.3,-156.51 2629.49,-163.46"/>
</g>
<!-- Node24 -->
<g id="node24" class="node">
<title>Node24</title>
<g id="a_node24"><a xlink:href="Perte__Charge__Reguliere__VDF__Face_8cpp.html" target="_top" xlink:title=" ">
<polygon fill="white" stroke="black" points="2357.5,-78.5 2357.5,-119.5 2491.5,-119.5 2491.5,-78.5 2357.5,-78.5"/>
<text text-anchor="start" x="2365.5" y="-107.5" font-family="Helvetica,sans-Serif" font-size="10.00">src/VDF/Sources/Perte</text>
<text text-anchor="start" x="2365.5" y="-96.5" font-family="Helvetica,sans-Serif" font-size="10.00">_Charge_Reguliere_VDF</text>
<text text-anchor="middle" x="2424.5" y="-85.5" font-family="Helvetica,sans-Serif" font-size="10.00">_Face.cpp</text>
</a>
</g>
</g>
<!-- Node1&#45;&gt;Node24 -->
<g id="edge23" class="edge">
<title>Node1&#45;&gt;Node24</title>
<path fill="none" stroke="midnightblue" d="M2650.72,-154.28C2607.11,-144.66 2551.1,-132.03 2501.5,-120 2498.28,-119.22 2494.98,-118.41 2491.66,-117.58"/>
<polygon fill="midnightblue" stroke="midnightblue" points="2650.16,-157.74 2660.68,-156.47 2651.66,-150.9 2650.16,-157.74"/>
</g>
<!-- Node25 -->
<g id="node25" class="node">
<title>Node25</title>
<g id="a_node25"><a xlink:href="Perte__Charge__VDF__Face_8cpp.html" target="_top" xlink:title=" ">
<polygon fill="white" stroke="black" points="2510,-84 2510,-114 2639,-114 2639,-84 2510,-84"/>
<text text-anchor="start" x="2518" y="-102" font-family="Helvetica,sans-Serif" font-size="10.00">src/VDF/Sources/Perte</text>
<text text-anchor="middle" x="2574.5" y="-91" font-family="Helvetica,sans-Serif" font-size="10.00">_Charge_VDF_Face.cpp</text>
</a>
</g>
</g>
<!-- Node1&#45;&gt;Node25 -->
<g id="edge24" class="edge">
<title>Node1&#45;&gt;Node25</title>
<path fill="none" stroke="midnightblue" d="M2685.94,-152.03C2660.51,-140.16 2627.98,-124.97 2604.64,-114.07"/>
<polygon fill="midnightblue" stroke="midnightblue" points="2684.76,-155.34 2695.31,-156.4 2687.73,-149 2684.76,-155.34"/>
</g>
<!-- Node26 -->
<g id="node26" class="node">
<title>Node26</title>
<g id="a_node26"><a xlink:href="Source__Darcy__VDF__Face_8cpp.html" target="_top" xlink:title=" ">
<polygon fill="white" stroke="black" points="2657,-78.5 2657,-119.5 2794,-119.5 2794,-78.5 2657,-78.5"/>
<text text-anchor="start" x="2665" y="-107.5" font-family="Helvetica,sans-Serif" font-size="10.00">src/VDF/Sources/Sources</text>
<text text-anchor="start" x="2665" y="-96.5" font-family="Helvetica,sans-Serif" font-size="10.00">_It_Eval/Source_Darcy</text>
<text text-anchor="middle" x="2725.5" y="-85.5" font-family="Helvetica,sans-Serif" font-size="10.00">_VDF_Face.cpp</text>
</a>
</g>
</g>
<!-- Node1&#45;&gt;Node26 -->
<g id="edge25" class="edge">
<title>Node1&#45;&gt;Node26</title>
<path fill="none" stroke="midnightblue" d="M2725.5,-145.98C2725.5,-137.35 2725.5,-127.76 2725.5,-119.59"/>
<polygon fill="midnightblue" stroke="midnightblue" points="2722,-146.23 2725.5,-156.23 2729,-146.23 2722,-146.23"/>
</g>
<!-- Node27 -->
<g id="node27" class="node">
<title>Node27</title>
<g id="a_node27"><a xlink:href="Source__Dirac__VDF__Elem_8cpp.html" target="_top" xlink:title=" ">
<polygon fill="white" stroke="black" points="2812,-78.5 2812,-119.5 2949,-119.5 2949,-78.5 2812,-78.5"/>
<text text-anchor="start" x="2820" y="-107.5" font-family="Helvetica,sans-Serif" font-size="10.00">src/VDF/Sources/Sources</text>
<text text-anchor="start" x="2820" y="-96.5" font-family="Helvetica,sans-Serif" font-size="10.00">_It_Eval/Source_Dirac</text>
<text text-anchor="middle" x="2880.5" y="-85.5" font-family="Helvetica,sans-Serif" font-size="10.00">_VDF_Elem.cpp</text>
</a>
</g>
</g>
<!-- Node1&#45;&gt;Node27 -->
<g id="edge26" class="edge">
<title>Node1&#45;&gt;Node27</title>
<path fill="none" stroke="midnightblue" d="M2765.89,-152.13C2787.89,-142.12 2815.13,-129.73 2837.53,-119.55"/>
<polygon fill="midnightblue" stroke="midnightblue" points="2764.15,-149.08 2756.49,-156.4 2767.05,-155.45 2764.15,-149.08"/>
</g>
<!-- Node28 -->
<g id="node28" class="node">
<title>Node28</title>
<g id="a_node28"><a xlink:href="Terme__Boussinesq__VDF__Face_8cpp.html" target="_top" xlink:title=" ">
<polygon fill="white" stroke="black" points="2967.5,-84 2967.5,-114 3117.5,-114 3117.5,-84 2967.5,-84"/>
<text text-anchor="start" x="2975.5" y="-102" font-family="Helvetica,sans-Serif" font-size="10.00">src/VDF/Sources/Terme</text>
<text text-anchor="middle" x="3042.5" y="-91" font-family="Helvetica,sans-Serif" font-size="10.00">_Boussinesq_VDF_Face.cpp</text>
</a>
</g>
</g>
<!-- Node1&#45;&gt;Node28 -->
<g id="edge27" class="edge">
<title>Node1&#45;&gt;Node28</title>
<path fill="none" stroke="midnightblue" d="M2801.67,-154.4C2847.22,-144.67 2906.23,-131.88 2958.5,-120 2966.83,-118.11 2975.62,-116.06 2984.24,-114.03"/>
<polygon fill="midnightblue" stroke="midnightblue" points="2800.91,-150.98 2791.86,-156.49 2802.37,-157.83 2800.91,-150.98"/>
</g>
<!-- Node29 -->
<g id="node29" class="node">
<title>Node29</title>
<g id="a_node29"><a xlink:href="Terme__Puissance__Thermique__Echange__Impose__P0__VDF_8cpp.html" target="_top" xlink:title=" ">
<polygon fill="white" stroke="black" points="3135.5,-78.5 3135.5,-119.5 3301.5,-119.5 3301.5,-78.5 3135.5,-78.5"/>
<text text-anchor="start" x="3143.5" y="-107.5" font-family="Helvetica,sans-Serif" font-size="10.00">src/VDF/Sources/Terme</text>
<text text-anchor="start" x="3143.5" y="-96.5" font-family="Helvetica,sans-Serif" font-size="10.00">_Puissance_Thermique</text>
<text text-anchor="middle" x="3218.5" y="-85.5" font-family="Helvetica,sans-Serif" font-size="10.00">_Echange_Impose_P0_VDF.cpp</text>
</a>
</g>
</g>
<!-- Node1&#45;&gt;Node29 -->
<g id="edge28" class="edge">
<title>Node1&#45;&gt;Node29</title>
<path fill="none" stroke="midnightblue" d="M2821.33,-160.85C2902.79,-152.07 3022.7,-137.78 3126.5,-120 3129.4,-119.5 3132.35,-118.98 3135.32,-118.43"/>
<polygon fill="midnightblue" stroke="midnightblue" points="2820.66,-157.4 2811.09,-161.95 2821.41,-164.36 2820.66,-157.4"/>
</g>
<!-- Node30 -->
<g id="node30" class="node">
<title>Node30</title>
<g id="a_node30"><a xlink:href="Champ__front__contact__fictif__VEF_8cpp.html" target="_top" xlink:title=" ">
<polygon fill="white" stroke="black" points="3320,-78.5 3320,-119.5 3453,-119.5 3453,-78.5 3320,-78.5"/>
<text text-anchor="start" x="3328" y="-107.5" font-family="Helvetica,sans-Serif" font-size="10.00">src/VEF/Champs/Champ</text>
<text text-anchor="start" x="3328" y="-96.5" font-family="Helvetica,sans-Serif" font-size="10.00">_front_contact_fictif</text>
<text text-anchor="middle" x="3386.5" y="-85.5" font-family="Helvetica,sans-Serif" font-size="10.00">_VEF.cpp</text>
</a>
</g>
</g>
<!-- Node1&#45;&gt;Node30 -->
<g id="edge29" class="edge">
<title>Node1&#45;&gt;Node30</title>
<path fill="none" stroke="midnightblue" d="M2821.65,-167.25C2938.11,-162.15 3139.88,-149.59 3310.5,-120 3313.59,-119.46 3316.74,-118.86 3319.91,-118.21"/>
<polygon fill="midnightblue" stroke="midnightblue" points="2821.19,-163.76 2811.35,-167.69 2821.49,-170.76 2821.19,-163.76"/>
</g>
<!-- Node31 -->
<g id="node31" class="node">
<title>Node31</title>
<g id="a_node31"><a xlink:href="Perte__Charge__Circulaire__VEF__P1NC_8cpp.html" target="_top" xlink:title=" ">
<polygon fill="white" stroke="black" points="3471.5,-78.5 3471.5,-119.5 3603.5,-119.5 3603.5,-78.5 3471.5,-78.5"/>
<text text-anchor="start" x="3479.5" y="-107.5" font-family="Helvetica,sans-Serif" font-size="10.00">src/VEF/Sources/Perte</text>
<text text-anchor="start" x="3479.5" y="-96.5" font-family="Helvetica,sans-Serif" font-size="10.00">_Charge_Circulaire_VEF</text>
<text text-anchor="middle" x="3537.5" y="-85.5" font-family="Helvetica,sans-Serif" font-size="10.00">_P1NC.cpp</text>
</a>
</g>
</g>
<!-- Node1&#45;&gt;Node31 -->
<g id="edge30" class="edge">
<title>Node1&#45;&gt;Node31</title>
<path fill="none" stroke="midnightblue" d="M2821.59,-169.79C2962.93,-167.41 3234.77,-157.81 3462.5,-120 3465.42,-119.51 3468.4,-118.96 3471.4,-118.37"/>
<polygon fill="midnightblue" stroke="midnightblue" points="2821.17,-166.29 2811.23,-169.95 2821.29,-173.29 2821.17,-166.29"/>
</g>
<!-- Node32 -->
<g id="node32" class="node">
<title>Node32</title>
<g id="a_node32"><a xlink:href="Perte__Charge__Reguliere__VEF__P1NC_8cpp.html" target="_top" xlink:title=" ">
<polygon fill="white" stroke="black" points="3621.5,-78.5 3621.5,-119.5 3753.5,-119.5 3753.5,-78.5 3621.5,-78.5"/>
<text text-anchor="start" x="3629.5" y="-107.5" font-family="Helvetica,sans-Serif" font-size="10.00">src/VEF/Sources/Perte</text>
<text text-anchor="start" x="3629.5" y="-96.5" font-family="Helvetica,sans-Serif" font-size="10.00">_Charge_Reguliere_VEF</text>
<text text-anchor="middle" x="3687.5" y="-85.5" font-family="Helvetica,sans-Serif" font-size="10.00">_P1NC.cpp</text>
</a>
</g>
</g>
<!-- Node1&#45;&gt;Node32 -->
<g id="edge31" class="edge">
<title>Node1&#45;&gt;Node32</title>
<path fill="none" stroke="midnightblue" d="M2821.15,-171.41C2984.48,-171.54 3327.19,-165.67 3612.5,-120 3615.43,-119.53 3618.41,-119 3621.4,-118.41"/>
<polygon fill="midnightblue" stroke="midnightblue" points="2821.13,-167.91 2811.13,-171.39 2821.12,-174.91 2821.13,-167.91"/>
</g>
<!-- Node33 -->
<g id="node33" class="node">
<title>Node33</title>
<g id="a_node33"><a xlink:href="Perte__Charge__VEF_8cpp.html" target="_top" xlink:title=" ">
<polygon fill="white" stroke="black" points="3771.5,-84 3771.5,-114 3893.5,-114 3893.5,-84 3771.5,-84"/>
<text text-anchor="start" x="3779.5" y="-102" font-family="Helvetica,sans-Serif" font-size="10.00">src/VEF/Sources/Perte</text>
<text text-anchor="middle" x="3832.5" y="-91" font-family="Helvetica,sans-Serif" font-size="10.00">_Charge_VEF.cpp</text>
</a>
</g>
</g>
<!-- Node1&#45;&gt;Node33 -->
<g id="edge32" class="edge">
<title>Node1&#45;&gt;Node33</title>
<path fill="none" stroke="midnightblue" d="M2821.55,-168.64C3042.81,-163.9 3583.17,-149.58 3762.5,-120 3771.23,-118.56 3780.42,-116.41 3789.16,-114.05"/>
<polygon fill="midnightblue" stroke="midnightblue" points="2821.18,-165.15 2811.26,-168.86 2821.33,-172.14 2821.18,-165.15"/>
</g>
<!-- Node34 -->
<g id="node34" class="node">
<title>Node34</title>
<g id="a_node34"><a xlink:href="Perte__Charge__VEF__Face_8cpp.html" target="_top" xlink:title=" ">
<polygon fill="white" stroke="black" points="3911.5,-84 3911.5,-114 4039.5,-114 4039.5,-84 3911.5,-84"/>
<text text-anchor="start" x="3919.5" y="-102" font-family="Helvetica,sans-Serif" font-size="10.00">src/VEF/Sources/Perte</text>
<text text-anchor="middle" x="3975.5" y="-91" font-family="Helvetica,sans-Serif" font-size="10.00">_Charge_VEF_Face.cpp</text>
</a>
</g>
</g>
<!-- Node1&#45;&gt;Node34 -->
<g id="edge33" class="edge">
<title>Node1&#45;&gt;Node34</title>
<path fill="none" stroke="midnightblue" d="M2821.3,-169.16C3063.37,-165.33 3695.07,-152.44 3902.5,-120 3911.59,-118.58 3921.16,-116.44 3930.28,-114.08"/>
<polygon fill="midnightblue" stroke="midnightblue" points="2821.05,-165.66 2811.11,-169.32 2821.16,-172.66 2821.05,-165.66"/>
</g>
<!-- Node35 -->
<g id="node35" class="node">
<title>Node35</title>
<g id="a_node35"><a xlink:href="Source__Darcy__VEF__Face_8cpp.html" target="_top" xlink:title=" ">
<polygon fill="white" stroke="black" points="4057.5,-84 4057.5,-114 4187.5,-114 4187.5,-84 4057.5,-84"/>
<text text-anchor="start" x="4065.5" y="-102" font-family="Helvetica,sans-Serif" font-size="10.00">src/VEF/Sources/Source</text>
<text text-anchor="middle" x="4122.5" y="-91" font-family="Helvetica,sans-Serif" font-size="10.00">_Darcy_VEF_Face.cpp</text>
</a>
</g>
</g>
<!-- Node1&#45;&gt;Node35 -->
<g id="edge34" class="edge">
<title>Node1&#45;&gt;Node35</title>
<path fill="none" stroke="midnightblue" d="M2821.37,-169.65C3084.11,-166.86 3811.79,-156.03 4048.5,-120 4057.84,-118.58 4067.69,-116.41 4077.05,-114.01"/>
<polygon fill="midnightblue" stroke="midnightblue" points="2821.06,-166.15 2811.09,-169.75 2821.13,-173.15 2821.06,-166.15"/>
</g>
<!-- Node36 -->
<g id="node36" class="node">
<title>Node36</title>
<g id="a_node36"><a xlink:href="Source__Dirac__VEF__Face_8cpp.html" target="_top" xlink:title=" ">
<polygon fill="white" stroke="black" points="4205.5,-84 4205.5,-114 4335.5,-114 4335.5,-84 4205.5,-84"/>
<text text-anchor="start" x="4213.5" y="-102" font-family="Helvetica,sans-Serif" font-size="10.00">src/VEF/Sources/Source</text>
<text text-anchor="middle" x="4270.5" y="-91" font-family="Helvetica,sans-Serif" font-size="10.00">_Dirac_VEF_Face.cpp</text>
</a>
</g>
</g>
<!-- Node1&#45;&gt;Node36 -->
<g id="edge35" class="edge">
<title>Node1&#45;&gt;Node36</title>
<path fill="none" stroke="midnightblue" d="M2821.59,-170.08C3104.3,-168.38 3930.04,-160.04 4196.5,-120 4205.84,-118.6 4215.7,-116.43 4225.06,-114.04"/>
<polygon fill="midnightblue" stroke="midnightblue" points="2821.34,-166.58 2811.36,-170.14 2821.38,-173.58 2821.34,-166.58"/>
</g>
<!-- Node37 -->
<g id="node37" class="node">
<title>Node37</title>
<g id="a_node37"><a xlink:href="Terme__Boussinesq__VEFPreP1B__Face_8cpp.html" target="_top" xlink:title=" ">
<polygon fill="white" stroke="black" points="4353.5,-78.5 4353.5,-119.5 4489.5,-119.5 4489.5,-78.5 4353.5,-78.5"/>
<text text-anchor="start" x="4361.5" y="-107.5" font-family="Helvetica,sans-Serif" font-size="10.00">src/VEF/Sources/Terme</text>
<text text-anchor="start" x="4361.5" y="-96.5" font-family="Helvetica,sans-Serif" font-size="10.00">_Boussinesq_VEFPreP1B</text>
<text text-anchor="middle" x="4421.5" y="-85.5" font-family="Helvetica,sans-Serif" font-size="10.00">_Face.cpp</text>
</a>
</g>
</g>
<!-- Node1&#45;&gt;Node37 -->
<g id="edge36" class="edge">
<title>Node1&#45;&gt;Node37</title>
<path fill="none" stroke="midnightblue" d="M2821.23,-170.31C3122.35,-169.28 4047.77,-162.62 4344.5,-120 4347.37,-119.59 4350.29,-119.11 4353.23,-118.58"/>
<polygon fill="midnightblue" stroke="midnightblue" points="2821.2,-166.81 2811.22,-170.34 2821.23,-173.81 2821.2,-166.81"/>
</g>
<!-- Node38 -->
<g id="node38" class="node">
<title>Node38</title>
<g id="a_node38"><a xlink:href="Terme__Boussinesq__VEF__Face_8cpp.html" target="_top" xlink:title=" ">
<polygon fill="white" stroke="black" points="4508,-84 4508,-114 4657,-114 4657,-84 4508,-84"/>
<text text-anchor="start" x="4516" y="-102" font-family="Helvetica,sans-Serif" font-size="10.00">src/VEF/Sources/Terme</text>
<text text-anchor="middle" x="4582.5" y="-91" font-family="Helvetica,sans-Serif" font-size="10.00">_Boussinesq_VEF_Face.cpp</text>
</a>
</g>
</g>
<!-- Node1&#45;&gt;Node38 -->
<g id="edge37" class="edge">
<title>Node1&#45;&gt;Node38</title>
<path fill="none" stroke="midnightblue" d="M2821.38,-170.36C3141.25,-169.49 4170.06,-163.31 4498.5,-120 4509.05,-118.61 4520.21,-116.45 4530.83,-114.06"/>
<polygon fill="midnightblue" stroke="midnightblue" points="2821.2,-166.86 2811.21,-170.39 2821.22,-173.86 2821.2,-166.86"/>
</g>
<!-- Node39 -->
<g id="node39" class="node">
<title>Node39</title>
<g id="a_node39"><a xlink:href="Terme__Puissance__Thermique__Echange__Impose__VEF__Face_8cpp.html" target="_top" xlink:title=" ">
<polygon fill="white" stroke="black" points="4674.5,-78.5 4674.5,-119.5 4850.5,-119.5 4850.5,-78.5 4674.5,-78.5"/>
<text text-anchor="start" x="4682.5" y="-107.5" font-family="Helvetica,sans-Serif" font-size="10.00">src/VEF/Sources/Terme</text>
<text text-anchor="start" x="4682.5" y="-96.5" font-family="Helvetica,sans-Serif" font-size="10.00">_Puissance_Thermique</text>
<text text-anchor="middle" x="4762.5" y="-85.5" font-family="Helvetica,sans-Serif" font-size="10.00">_Echange_Impose_VEF_Face.cpp</text>
</a>
</g>
</g>
<!-- Node1&#45;&gt;Node39 -->
<g id="edge38" class="edge">
<title>Node1&#45;&gt;Node39</title>
<path fill="none" stroke="midnightblue" d="M2821.07,-170.28C3159.92,-169.16 4303,-162.25 4666.5,-120 4669.12,-119.7 4671.78,-119.35 4674.45,-118.98"/>
<polygon fill="midnightblue" stroke="midnightblue" points="2821.03,-166.78 2811.04,-170.32 2821.05,-173.78 2821.03,-166.78"/>
</g>
<!-- Node40 -->
<g id="node40" class="node">
<title>Node40</title>
<g id="a_node40"><a xlink:href="Traitement__particulier__NS__Brech__VEF_8cpp.html" target="_top" xlink:title=" ">
<polygon fill="white" stroke="black" points="4869,-78.5 4869,-119.5 4992,-119.5 4992,-78.5 4869,-78.5"/>
<text text-anchor="start" x="4877" y="-107.5" font-family="Helvetica,sans-Serif" font-size="10.00">src/VEF/Traitement</text>
<text text-anchor="start" x="4877" y="-96.5" font-family="Helvetica,sans-Serif" font-size="10.00">_particulier_NS_Brech</text>
<text text-anchor="middle" x="4930.5" y="-85.5" font-family="Helvetica,sans-Serif" font-size="10.00">_VEF.cpp</text>
</a>
</g>
</g>
<!-- Node1&#45;&gt;Node40 -->
<g id="edge39" class="edge">
<title>Node1&#45;&gt;Node40</title>
<path fill="none" stroke="midnightblue" d="M2821.38,-169.65C3210,-165.99 4656.76,-150.46 4859.5,-120 4862.54,-119.54 4865.63,-119 4868.74,-118.38"/>
<polygon fill="midnightblue" stroke="midnightblue" points="2821.26,-166.15 2811.3,-169.74 2821.33,-173.15 2821.26,-166.15"/>
</g>
<!-- Node41 -->
<g id="node41" class="node">
<title>Node41</title>
<g id="a_node41"><a xlink:href="Traitement__particulier__NS__temperature__VEF_8cpp.html" target="_top" xlink:title=" ">
<polygon fill="white" stroke="black" points="5010.5,-78.5 5010.5,-119.5 5166.5,-119.5 5166.5,-78.5 5010.5,-78.5"/>
<text text-anchor="start" x="5018.5" y="-107.5" font-family="Helvetica,sans-Serif" font-size="10.00">src/VEF/Traitement</text>
<text text-anchor="start" x="5018.5" y="-96.5" font-family="Helvetica,sans-Serif" font-size="10.00">_particulier_NS_temperature</text>
<text text-anchor="middle" x="5088.5" y="-85.5" font-family="Helvetica,sans-Serif" font-size="10.00">_VEF.cpp</text>
</a>
</g>
</g>
<!-- Node1&#45;&gt;Node41 -->
<g id="edge40" class="edge">
<title>Node1&#45;&gt;Node41</title>
<path fill="none" stroke="midnightblue" d="M2821.03,-170.97C3196.26,-172.42 4569.61,-173.86 5001.5,-120 5004.42,-119.64 5007.39,-119.22 5010.38,-118.75"/>
<polygon fill="midnightblue" stroke="midnightblue" points="2821.03,-167.47 2811.02,-170.93 2821.01,-174.47 2821.03,-167.47"/>
</g>
<!-- Node11 -->
<g id="node11" class="node">
<title>Node11</title>
<g id="a_node11"><a xlink:href="Convection__Diffusion__Temperature_8cpp.html" target="_top" xlink:title=" ">
<polygon fill="white" stroke="black" points="672.5,-0.5 672.5,-41.5 846.5,-41.5 846.5,-0.5 672.5,-0.5"/>
<text text-anchor="start" x="680.5" y="-29.5" font-family="Helvetica,sans-Serif" font-size="10.00">src/ThHyd/Incompressible</text>
<text text-anchor="start" x="680.5" y="-18.5" font-family="Helvetica,sans-Serif" font-size="10.00">/Equations/Convection_Diffusion</text>
<text text-anchor="middle" x="759.5" y="-7.5" font-family="Helvetica,sans-Serif" font-size="10.00">_Temperature.cpp</text>
</a>
</g>
</g>
<!-- Node10&#45;&gt;Node11 -->
<g id="edge10" class="edge">
<title>Node10&#45;&gt;Node11</title>
<path fill="none" stroke="midnightblue" d="M1441.56,-81.72C1434.83,-80.29 1428.04,-79.01 1421.5,-78 1172.37,-39.64 1105.29,-75.79 855.5,-42 852.55,-41.6 849.55,-41.16 846.53,-40.69"/>
<polygon fill="midnightblue" stroke="midnightblue" points="1440.84,-85.15 1451.36,-83.91 1442.36,-78.32 1440.84,-85.15"/>
</g>
<!-- Node12 -->
<g id="node12" class="node">
<title>Node12</title>
<g id="a_node12"><a xlink:href="Fluide__Ostwald_8cpp.html" target="_top" xlink:title=" ">
<polygon fill="white" stroke="black" points="864.5,-6 864.5,-36 1012.5,-36 1012.5,-6 864.5,-6"/>
<text text-anchor="start" x="872.5" y="-24" font-family="Helvetica,sans-Serif" font-size="10.00">src/ThHyd/Incompressible</text>
<text text-anchor="middle" x="938.5" y="-13" font-family="Helvetica,sans-Serif" font-size="10.00">/Milieu/Fluide_Ostwald.cpp</text>
</a>
</g>
</g>
<!-- Node10&#45;&gt;Node12 -->
<g id="edge11" class="edge">
<title>Node10&#45;&gt;Node12</title>
<path fill="none" stroke="midnightblue" d="M1440.48,-81.67C1434.1,-80.29 1427.69,-79.04 1421.5,-78 1245.45,-48.52 1197.63,-70.99 1021.5,-42 1011.85,-40.41 1001.65,-38.31 991.84,-36.07"/>
<polygon fill="midnightblue" stroke="midnightblue" points="1439.93,-85.13 1450.46,-83.91 1441.47,-78.3 1439.93,-85.13"/>
</g>
<!-- Node13 -->
<g id="node13" class="node">
<title>Node13</title>
<g id="a_node13"><a xlink:href="Ref__Fluide__Ostwald_8cpp.html" target="_top" xlink:title=" ">
<polygon fill="white" stroke="black" points="1030.5,-6 1030.5,-36 1200.5,-36 1200.5,-6 1030.5,-6"/>
<text text-anchor="start" x="1038.5" y="-24" font-family="Helvetica,sans-Serif" font-size="10.00">src/ThHyd/Incompressible</text>
<text text-anchor="middle" x="1115.5" y="-13" font-family="Helvetica,sans-Serif" font-size="10.00">/Milieu/Ref_Fluide_Ostwald.cpp</text>
</a>
</g>
</g>
<!-- Node10&#45;&gt;Node13 -->
<g id="edge12" class="edge">
<title>Node10&#45;&gt;Node13</title>
<path fill="none" stroke="midnightblue" d="M1438.1,-81.64C1432.5,-80.36 1426.91,-79.12 1421.5,-78 1327.93,-58.53 1303.37,-59.95 1209.5,-42 1199.83,-40.15 1189.63,-38.09 1179.65,-36.02"/>
<polygon fill="midnightblue" stroke="midnightblue" points="1437.63,-85.13 1448.16,-84 1439.22,-78.31 1437.63,-85.13"/>
</g>
<!-- Node14 -->
<g id="node14" class="node">
<title>Node14</title>
<g id="a_node14"><a xlink:href="Pb__Hydraulique_8cpp.html" target="_top" xlink:title=" ">
<polygon fill="white" stroke="black" points="1219,-6 1219,-36 1384,-36 1384,-6 1219,-6"/>
<text text-anchor="start" x="1227" y="-24" font-family="Helvetica,sans-Serif" font-size="10.00">src/ThHyd/Incompressible</text>
<text text-anchor="middle" x="1301.5" y="-13" font-family="Helvetica,sans-Serif" font-size="10.00">/Problems/Pb_Hydraulique.cpp</text>
</a>
</g>
</g>
<!-- Node10&#45;&gt;Node14 -->
<g id="edge13" class="edge">
<title>Node10&#45;&gt;Node14</title>
<path fill="none" stroke="midnightblue" d="M1455.47,-80.22C1419.85,-66.75 1371.57,-48.5 1338.64,-36.04"/>
<polygon fill="midnightblue" stroke="midnightblue" points="1454.57,-83.62 1465.16,-83.88 1457.05,-77.07 1454.57,-83.62"/>
</g>
<!-- Node15 -->
<g id="node15" class="node">
<title>Node15</title>
<g id="a_node15"><a xlink:href="Pb__Thermohydraulique_8cpp.html" target="_top" xlink:title=" ">
<polygon fill="white" stroke="black" points="1402,-6 1402,-36 1603,-36 1603,-6 1402,-6"/>
<text text-anchor="start" x="1410" y="-24" font-family="Helvetica,sans-Serif" font-size="10.00">src/ThHyd/Incompressible</text>
<text text-anchor="middle" x="1502.5" y="-13" font-family="Helvetica,sans-Serif" font-size="10.00">/Problems/Pb_Thermohydraulique.cpp</text>
</a>
</g>
</g>
<!-- Node10&#45;&gt;Node15 -->
<g id="edge14" class="edge">
<title>Node10&#45;&gt;Node15</title>
<path fill="none" stroke="midnightblue" d="M1502.5,-73.59C1502.5,-61.26 1502.5,-46.72 1502.5,-36.23"/>
<polygon fill="midnightblue" stroke="midnightblue" points="1499,-73.7 1502.5,-83.7 1506,-73.71 1499,-73.7"/>
</g>
<!-- Node16 -->
<g id="node16" class="node">
<title>Node16</title>
<g id="a_node16"><a xlink:href="Champ__Ostwald__VDF_8cpp.html" target="_top" xlink:title=" ">
<polygon fill="white" stroke="black" points="1621.5,-6 1621.5,-36 1755.5,-36 1755.5,-6 1621.5,-6"/>
<text text-anchor="start" x="1629.5" y="-24" font-family="Helvetica,sans-Serif" font-size="10.00">src/VDF/Champs/Champ</text>
<text text-anchor="middle" x="1688.5" y="-13" font-family="Helvetica,sans-Serif" font-size="10.00">_Ostwald_VDF.cpp</text>
</a>
</g>
</g>
<!-- Node10&#45;&gt;Node16 -->
<g id="edge15" class="edge">
<title>Node10&#45;&gt;Node16</title>
<path fill="none" stroke="midnightblue" d="M1546.44,-80.05C1579.36,-66.59 1623.79,-48.44 1654.14,-36.04"/>
<polygon fill="midnightblue" stroke="midnightblue" points="1544.98,-76.86 1537.05,-83.88 1547.63,-83.34 1544.98,-76.86"/>
</g>
<!-- Node17 -->
<g id="node17" class="node">
<title>Node17</title>
<g id="a_node17"><a xlink:href="VDF__discretisation_8cpp.html" target="_top" xlink:title=" ">
<polygon fill="white" stroke="black" points="1773.5,-11.5 1773.5,-30.5 1975.5,-30.5 1975.5,-11.5 1773.5,-11.5"/>
<text text-anchor="middle" x="1874.5" y="-18.5" font-family="Helvetica,sans-Serif" font-size="10.00">src/VDF/Zones/VDF_discretisation.cpp</text>
</a>
</g>
</g>
<!-- Node10&#45;&gt;Node17 -->
<g id="edge16" class="edge">
<title>Node10&#45;&gt;Node17</title>
<path fill="none" stroke="midnightblue" d="M1567.88,-81.55C1573.16,-80.31 1578.41,-79.12 1583.5,-78 1629.54,-67.89 1758.78,-43.56 1828.51,-30.55"/>
<polygon fill="midnightblue" stroke="midnightblue" points="1566.67,-78.24 1557.75,-83.95 1568.28,-85.05 1566.67,-78.24"/>
</g>
<!-- Node18 -->
<g id="node18" class="node">
<title>Node18</title>
<g id="a_node18"><a xlink:href="Champ__Ostwald__VEF_8cpp.html" target="_top" xlink:title=" ">
<polygon fill="white" stroke="black" points="1994,-6 1994,-36 2127,-36 2127,-6 1994,-6"/>
<text text-anchor="start" x="2002" y="-24" font-family="Helvetica,sans-Serif" font-size="10.00">src/VEF/Champs/Champ</text>
<text text-anchor="middle" x="2060.5" y="-13" font-family="Helvetica,sans-Serif" font-size="10.00">_Ostwald_VEF.cpp</text>
</a>
</g>
</g>
<!-- Node10&#45;&gt;Node18 -->
<g id="edge17" class="edge">
<title>Node10&#45;&gt;Node18</title>
<path fill="none" stroke="midnightblue" d="M1564.52,-81.67C1570.9,-80.29 1577.31,-79.04 1583.5,-78 1759.99,-48.47 1808.25,-72.88 1984.5,-42 1993.5,-40.42 2003,-38.3 2012.12,-36.03"/>
<polygon fill="midnightblue" stroke="midnightblue" points="1563.53,-78.3 1554.54,-83.91 1565.07,-85.13 1563.53,-78.3"/>
</g>
<!-- Node19 -->
<g id="node19" class="node">
<title>Node19</title>
<g id="a_node19"><a xlink:href="VEF__discretisation_8cpp.html" target="_top" xlink:title=" ">
<polygon fill="white" stroke="black" points="2145,-11.5 2145,-30.5 2344,-30.5 2344,-11.5 2145,-11.5"/>
<text text-anchor="middle" x="2244.5" y="-18.5" font-family="Helvetica,sans-Serif" font-size="10.00">src/VEF/Zones/VEF_discretisation.cpp</text>
</a>
</g>
</g>
<!-- Node10&#45;&gt;Node19 -->
<g id="edge18" class="edge">
<title>Node10&#45;&gt;Node19</title>
<path fill="none" stroke="midnightblue" d="M1563.44,-81.73C1570.17,-80.3 1576.96,-79.01 1583.5,-78 1826.9,-40.33 1892.09,-72.48 2136.5,-42 2159.21,-39.17 2184.36,-34.6 2204.67,-30.54"/>
<polygon fill="midnightblue" stroke="midnightblue" points="1562.64,-78.33 1553.64,-83.92 1564.16,-85.16 1562.64,-78.33"/>
</g>
</g>
</svg>
