<?xml version="1.0" encoding="UTF-8" standalone="no"?>
<!DOCTYPE svg PUBLIC "-//W3C//DTD SVG 1.1//EN"
 "http://www.w3.org/Graphics/SVG/1.1/DTD/svg11.dtd">
<!-- Generated by graphviz version 2.43.0 (0)
 -->
<!-- Title: src/ThHyd/Multiphase/PolyMAC/Flux_interfacial_PolyMAC.h Pages: 1 -->
<svg width="340pt" height="128pt"
 viewBox="0.00 0.00 340.00 128.00" xmlns="http://www.w3.org/2000/svg" xmlns:xlink="http://www.w3.org/1999/xlink">
<g id="graph0" class="graph" transform="scale(1 1) rotate(0) translate(4 124)">
<title>src/ThHyd/Multiphase/PolyMAC/Flux_interfacial_PolyMAC.h</title>
<polygon fill="white" stroke="transparent" points="-4,4 -4,-124 336,-124 336,4 -4,4"/>
<!-- Node1 -->
<g id="node1" class="node">
<title>Node1</title>
<g id="a_node1"><a xlink:title=" ">
<polygon fill="#bfbfbf" stroke="black" points="102,-78.5 102,-119.5 244,-119.5 244,-78.5 102,-78.5"/>
<text text-anchor="start" x="110" y="-107.5" font-family="Helvetica,sans-Serif" font-size="10.00">src/ThHyd/Multiphase</text>
<text text-anchor="start" x="110" y="-96.5" font-family="Helvetica,sans-Serif" font-size="10.00">/PolyMAC/Flux_interfacial</text>
<text text-anchor="middle" x="173" y="-85.5" font-family="Helvetica,sans-Serif" font-size="10.00">_PolyMAC.h</text>
</a>
</g>
</g>
<!-- Node2 -->
<g id="node2" class="node">
<title>Node2</title>
<g id="a_node2"><a xlink:href="Op__Diff__PolyMAC__P0__Elem_8cpp.html" target="_top" xlink:title=" ">
<polygon fill="white" stroke="black" points="0,-6 0,-36 172,-36 172,-6 0,-6"/>
<text text-anchor="start" x="8" y="-24" font-family="Helvetica,sans-Serif" font-size="10.00">src/PolyMAC/Operateurs</text>
<text text-anchor="middle" x="86" y="-13" font-family="Helvetica,sans-Serif" font-size="10.00">/Op_Diff_PolyMAC_P0_Elem.cpp</text>
</a>
</g>
</g>
<!-- Node1&#45;&gt;Node2 -->
<g id="edge1" class="edge">
<title>Node1&#45;&gt;Node2</title>
<path fill="none" stroke="midnightblue" d="M142.85,-71.66C129.23,-59.76 113.67,-46.18 102.28,-36.23"/>
<polygon fill="midnightblue" stroke="midnightblue" points="140.76,-74.49 150.6,-78.43 145.37,-69.21 140.76,-74.49"/>
</g>
<!-- Node3 -->
<g id="node3" class="node">
<title>Node3</title>
<g id="a_node3"><a xlink:href="Flux__interfacial__PolyMAC_8cpp.html" target="_top" xlink:title=" ">
<polygon fill="white" stroke="black" points="190,-0.5 190,-41.5 332,-41.5 332,-0.5 190,-0.5"/>
<text text-anchor="start" x="198" y="-29.5" font-family="Helvetica,sans-Serif" font-size="10.00">src/ThHyd/Multiphase</text>
<text text-anchor="start" x="198" y="-18.5" font-family="Helvetica,sans-Serif" font-size="10.00">/PolyMAC/Flux_interfacial</text>
<text text-anchor="middle" x="261" y="-7.5" font-family="Helvetica,sans-Serif" font-size="10.00">_PolyMAC.cpp</text>
</a>
</g>
</g>
<!-- Node1&#45;&gt;Node3 -->
<g id="edge2" class="edge">
<title>Node1&#45;&gt;Node3</title>
<path fill="none" stroke="midnightblue" d="M203.36,-71.78C214.87,-61.84 227.75,-50.72 238.41,-41.51"/>
<polygon fill="midnightblue" stroke="midnightblue" points="200.94,-69.24 195.66,-78.43 205.52,-74.54 200.94,-69.24"/>
</g>
</g>
</svg>
