<?xml version="1.0" encoding="UTF-8" standalone="no"?>
<!DOCTYPE svg PUBLIC "-//W3C//DTD SVG 1.1//EN"
 "http://www.w3.org/Graphics/SVG/1.1/DTD/svg11.dtd">
<!-- Generated by graphviz version 2.43.0 (0)
 -->
<!-- Title: src/ThHyd/Multiphase/Correlations/Flux_parietal_base.h Pages: 1 -->
<svg width="878pt" height="128pt"
 viewBox="0.00 0.00 877.50 128.00" xmlns="http://www.w3.org/2000/svg" xmlns:xlink="http://www.w3.org/1999/xlink">
<g id="graph0" class="graph" transform="scale(1 1) rotate(0) translate(4 124)">
<title>src/ThHyd/Multiphase/Correlations/Flux_parietal_base.h</title>
<polygon fill="white" stroke="transparent" points="-4,4 -4,-124 873.5,-124 873.5,4 -4,4"/>
<!-- Node1 -->
<g id="node1" class="node">
<title>Node1</title>
<g id="a_node1"><a xlink:title=" ">
<polygon fill="#bfbfbf" stroke="black" points="375.5,-78.5 375.5,-119.5 521.5,-119.5 521.5,-78.5 375.5,-78.5"/>
<text text-anchor="start" x="383.5" y="-107.5" font-family="Helvetica,sans-Serif" font-size="10.00">src/ThHyd/Multiphase</text>
<text text-anchor="start" x="383.5" y="-96.5" font-family="Helvetica,sans-Serif" font-size="10.00">/Correlations/Flux_parietal</text>
<text text-anchor="middle" x="448.5" y="-85.5" font-family="Helvetica,sans-Serif" font-size="10.00">_base.h</text>
</a>
</g>
</g>
<!-- Node2 -->
<g id="node2" class="node">
<title>Node2</title>
<g id="a_node2"><a xlink:href="Op__Diff__PolyMAC__Elem_8cpp.html" target="_top" xlink:title=" ">
<polygon fill="white" stroke="black" points="0,-6 0,-36 155,-36 155,-6 0,-6"/>
<text text-anchor="start" x="8" y="-24" font-family="Helvetica,sans-Serif" font-size="10.00">src/PolyMAC/Operateurs</text>
<text text-anchor="middle" x="77.5" y="-13" font-family="Helvetica,sans-Serif" font-size="10.00">/Op_Diff_PolyMAC_Elem.cpp</text>
</a>
</g>
</g>
<!-- Node1&#45;&gt;Node2 -->
<g id="edge1" class="edge">
<title>Node1&#45;&gt;Node2</title>
<path fill="none" stroke="midnightblue" d="M365.42,-82.33C308.72,-71.46 231.96,-56.4 164.5,-42 155.71,-40.12 146.44,-38.07 137.35,-36.02"/>
<polygon fill="midnightblue" stroke="midnightblue" points="364.93,-85.8 375.41,-84.24 366.25,-78.92 364.93,-85.8"/>
</g>
<!-- Node3 -->
<g id="node3" class="node">
<title>Node3</title>
<g id="a_node3"><a xlink:href="Op__Diff__PolyMAC__P0__Elem_8cpp.html" target="_top" xlink:title=" ">
<polygon fill="white" stroke="black" points="173.5,-6 173.5,-36 345.5,-36 345.5,-6 173.5,-6"/>
<text text-anchor="start" x="181.5" y="-24" font-family="Helvetica,sans-Serif" font-size="10.00">src/PolyMAC/Operateurs</text>
<text text-anchor="middle" x="259.5" y="-13" font-family="Helvetica,sans-Serif" font-size="10.00">/Op_Diff_PolyMAC_P0_Elem.cpp</text>
</a>
</g>
</g>
<!-- Node1&#45;&gt;Node3 -->
<g id="edge2" class="edge">
<title>Node1&#45;&gt;Node3</title>
<path fill="none" stroke="midnightblue" d="M390.33,-74.61C359.01,-62.02 321.42,-46.9 294.58,-36.11"/>
<polygon fill="midnightblue" stroke="midnightblue" points="389.24,-77.94 399.83,-78.43 391.86,-71.45 389.24,-77.94"/>
</g>
<!-- Node4 -->
<g id="node4" class="node">
<title>Node4</title>
<g id="a_node4"><a xlink:href="Op__Diff__PolyMAC__P0__base_8cpp.html" target="_top" xlink:title=" ">
<polygon fill="white" stroke="black" points="363.5,-6 363.5,-36 533.5,-36 533.5,-6 363.5,-6"/>
<text text-anchor="start" x="371.5" y="-24" font-family="Helvetica,sans-Serif" font-size="10.00">src/PolyMAC/Operateurs</text>
<text text-anchor="middle" x="448.5" y="-13" font-family="Helvetica,sans-Serif" font-size="10.00">/Op_Diff_PolyMAC_P0_base.cpp</text>
</a>
</g>
</g>
<!-- Node1&#45;&gt;Node4 -->
<g id="edge3" class="edge">
<title>Node1&#45;&gt;Node4</title>
<path fill="none" stroke="midnightblue" d="M448.5,-68.28C448.5,-57.25 448.5,-45.25 448.5,-36.23"/>
<polygon fill="midnightblue" stroke="midnightblue" points="445,-68.43 448.5,-78.43 452,-68.43 445,-68.43"/>
</g>
<!-- Node5 -->
<g id="node5" class="node">
<title>Node5</title>
<g id="a_node5"><a xlink:href="Op__Diff__PolyMAC__base_8cpp.html" target="_top" xlink:title=" ">
<polygon fill="white" stroke="black" points="552,-6 552,-36 705,-36 705,-6 552,-6"/>
<text text-anchor="start" x="560" y="-24" font-family="Helvetica,sans-Serif" font-size="10.00">src/PolyMAC/Operateurs</text>
<text text-anchor="middle" x="628.5" y="-13" font-family="Helvetica,sans-Serif" font-size="10.00">/Op_Diff_PolyMAC_base.cpp</text>
</a>
</g>
</g>
<!-- Node1&#45;&gt;Node5 -->
<g id="edge4" class="edge">
<title>Node1&#45;&gt;Node5</title>
<path fill="none" stroke="midnightblue" d="M504.29,-74.45C534.03,-61.89 569.64,-46.85 595.09,-36.11"/>
<polygon fill="midnightblue" stroke="midnightblue" points="502.71,-71.31 494.85,-78.43 505.43,-77.76 502.71,-71.31"/>
</g>
<!-- Node6 -->
<g id="node6" class="node">
<title>Node6</title>
<g id="a_node6"><a xlink:href="Flux__parietal__base_8cpp.html" target="_top" xlink:title=" ">
<polygon fill="white" stroke="black" points="723.5,-0.5 723.5,-41.5 869.5,-41.5 869.5,-0.5 723.5,-0.5"/>
<text text-anchor="start" x="731.5" y="-29.5" font-family="Helvetica,sans-Serif" font-size="10.00">src/ThHyd/Multiphase</text>
<text text-anchor="start" x="731.5" y="-18.5" font-family="Helvetica,sans-Serif" font-size="10.00">/Correlations/Flux_parietal</text>
<text text-anchor="middle" x="796.5" y="-7.5" font-family="Helvetica,sans-Serif" font-size="10.00">_base.cpp</text>
</a>
</g>
</g>
<!-- Node1&#45;&gt;Node6 -->
<g id="edge5" class="edge">
<title>Node1&#45;&gt;Node6</title>
<path fill="none" stroke="midnightblue" d="M531.68,-81.2C584.2,-70.41 653.43,-55.87 714.5,-42 717.36,-41.35 720.27,-40.68 723.21,-40"/>
<polygon fill="midnightblue" stroke="midnightblue" points="530.83,-77.8 521.74,-83.23 532.24,-84.65 530.83,-77.8"/>
</g>
</g>
</svg>
