<?xml version="1.0" encoding="UTF-8" standalone="no"?>
<!DOCTYPE svg PUBLIC "-//W3C//DTD SVG 1.1//EN"
 "http://www.w3.org/Graphics/SVG/1.1/DTD/svg11.dtd">
<!-- Generated by graphviz version 2.43.0 (0)
 -->
<!-- Title: src/Kernel/Framework/Format_Post.h Pages: 1 -->
<svg width="4122pt" height="340pt"
 viewBox="0.00 0.00 4121.50 340.00" xmlns="http://www.w3.org/2000/svg" xmlns:xlink="http://www.w3.org/1999/xlink">
<g id="graph0" class="graph" transform="scale(1 1) rotate(0) translate(4 336)">
<title>src/Kernel/Framework/Format_Post.h</title>
<polygon fill="white" stroke="transparent" points="-4,4 -4,-336 4117.5,-336 4117.5,4 -4,4"/>
<!-- Node1 -->
<g id="node1" class="node">
<title>Node1</title>
<g id="a_node1"><a xlink:title=" ">
<polygon fill="#bfbfbf" stroke="black" points="2423.5,-301.5 2423.5,-331.5 2545.5,-331.5 2545.5,-301.5 2423.5,-301.5"/>
<text text-anchor="start" x="2431.5" y="-319.5" font-family="Helvetica,sans-Serif" font-size="10.00">src/Kernel/Framework</text>
<text text-anchor="middle" x="2484.5" y="-308.5" font-family="Helvetica,sans-Serif" font-size="10.00">/Format_Post.h</text>
</a>
</g>
</g>
<!-- Node2 -->
<g id="node2" class="node">
<title>Node2</title>
<g id="a_node2"><a xlink:href="Format__Post_8cpp.html" target="_top" xlink:title=" ">
<polygon fill="white" stroke="black" points="2024.5,-234.5 2024.5,-264.5 2146.5,-264.5 2146.5,-234.5 2024.5,-234.5"/>
<text text-anchor="start" x="2032.5" y="-252.5" font-family="Helvetica,sans-Serif" font-size="10.00">src/Kernel/Framework</text>
<text text-anchor="middle" x="2085.5" y="-241.5" font-family="Helvetica,sans-Serif" font-size="10.00">/Format_Post.cpp</text>
</a>
</g>
</g>
<!-- Node1&#45;&gt;Node2 -->
<g id="edge1" class="edge">
<title>Node1&#45;&gt;Node2</title>
<path fill="none" stroke="midnightblue" d="M2413.41,-305.68C2346.66,-296.19 2244.08,-280.96 2155.5,-265 2152.57,-264.47 2149.57,-263.92 2146.55,-263.34"/>
<polygon fill="midnightblue" stroke="midnightblue" points="2413.01,-309.15 2423.4,-307.09 2413.99,-302.22 2413.01,-309.15"/>
</g>
<!-- Node3 -->
<g id="node3" class="node">
<title>Node3</title>
<g id="a_node3"><a xlink:href="Postraitement_8h.html" target="_top" xlink:title=" ">
<polygon fill="white" stroke="black" points="2164.5,-234.5 2164.5,-264.5 2286.5,-264.5 2286.5,-234.5 2164.5,-234.5"/>
<text text-anchor="start" x="2172.5" y="-252.5" font-family="Helvetica,sans-Serif" font-size="10.00">src/Kernel/Framework</text>
<text text-anchor="middle" x="2225.5" y="-241.5" font-family="Helvetica,sans-Serif" font-size="10.00">/Postraitement.h</text>
</a>
</g>
</g>
<!-- Node1&#45;&gt;Node3 -->
<g id="edge2" class="edge">
<title>Node1&#45;&gt;Node3</title>
<path fill="none" stroke="midnightblue" d="M2418.69,-298.98C2376.39,-288.37 2322.01,-274.72 2281.73,-264.61"/>
<polygon fill="midnightblue" stroke="midnightblue" points="2418.07,-302.44 2428.62,-301.48 2419.77,-295.65 2418.07,-302.44"/>
</g>
<!-- Node38 -->
<g id="node38" class="node">
<title>Node38</title>
<g id="a_node38"><a xlink:href="Corriger__frontiere__periodique_8cpp.html" target="_top" xlink:title=" ">
<polygon fill="white" stroke="black" points="2305,-234.5 2305,-264.5 2488,-264.5 2488,-234.5 2305,-234.5"/>
<text text-anchor="start" x="2313" y="-252.5" font-family="Helvetica,sans-Serif" font-size="10.00">src/Kernel/Geometrie</text>
<text text-anchor="middle" x="2396.5" y="-241.5" font-family="Helvetica,sans-Serif" font-size="10.00">/Corriger_frontiere_periodique.cpp</text>
</a>
</g>
</g>
<!-- Node1&#45;&gt;Node38 -->
<g id="edge41" class="edge">
<title>Node1&#45;&gt;Node38</title>
<path fill="none" stroke="midnightblue" d="M2457.36,-295.45C2443.82,-285.45 2427.77,-273.6 2415.56,-264.58"/>
<polygon fill="midnightblue" stroke="midnightblue" points="2455.28,-298.27 2465.41,-301.4 2459.44,-292.64 2455.28,-298.27"/>
</g>
<!-- Node39 -->
<g id="node39" class="node">
<title>Node39</title>
<g id="a_node39"><a xlink:href="Postraiter__domaine_8cpp.html" target="_top" xlink:title=" ">
<polygon fill="white" stroke="black" points="2506,-234.5 2506,-264.5 2641,-264.5 2641,-234.5 2506,-234.5"/>
<text text-anchor="start" x="2514" y="-252.5" font-family="Helvetica,sans-Serif" font-size="10.00">src/Kernel/Geometrie</text>
<text text-anchor="middle" x="2573.5" y="-241.5" font-family="Helvetica,sans-Serif" font-size="10.00">/Postraiter_domaine.cpp</text>
</a>
</g>
</g>
<!-- Node1&#45;&gt;Node39 -->
<g id="edge42" class="edge">
<title>Node1&#45;&gt;Node39</title>
<path fill="none" stroke="midnightblue" d="M2511.95,-295.45C2525.64,-285.45 2541.87,-273.6 2554.23,-264.58"/>
<polygon fill="midnightblue" stroke="midnightblue" points="2509.82,-292.67 2503.81,-301.4 2513.95,-298.32 2509.82,-292.67"/>
</g>
<!-- Node40 -->
<g id="node40" class="node">
<title>Node40</title>
<g id="a_node40"><a xlink:href="Ecrire__Champ__MED_8cpp.html" target="_top" xlink:title=" ">
<polygon fill="white" stroke="black" points="2659,-234.5 2659,-264.5 2794,-264.5 2794,-234.5 2659,-234.5"/>
<text text-anchor="start" x="2667" y="-252.5" font-family="Helvetica,sans-Serif" font-size="10.00">src/Kernel/MEDimpl</text>
<text text-anchor="middle" x="2726.5" y="-241.5" font-family="Helvetica,sans-Serif" font-size="10.00">/Ecrire_Champ_MED.cpp</text>
</a>
</g>
</g>
<!-- Node1&#45;&gt;Node40 -->
<g id="edge43" class="edge">
<title>Node1&#45;&gt;Node40</title>
<path fill="none" stroke="midnightblue" d="M2546.49,-298.85C2585.95,-288.25 2636.49,-274.68 2673.96,-264.61"/>
<polygon fill="midnightblue" stroke="midnightblue" points="2545.46,-295.5 2536.71,-301.48 2547.28,-302.26 2545.46,-295.5"/>
</g>
<!-- Node41 -->
<g id="node41" class="node">
<title>Node41</title>
<g id="a_node41"><a xlink:href="LataToMED_8cpp.html" target="_top" xlink:title=" ">
<polygon fill="white" stroke="black" points="2812.5,-234.5 2812.5,-264.5 2924.5,-264.5 2924.5,-234.5 2812.5,-234.5"/>
<text text-anchor="start" x="2820.5" y="-252.5" font-family="Helvetica,sans-Serif" font-size="10.00">src/Kernel/MEDimpl</text>
<text text-anchor="middle" x="2868.5" y="-241.5" font-family="Helvetica,sans-Serif" font-size="10.00">/LataToMED.cpp</text>
</a>
</g>
</g>
<!-- Node1&#45;&gt;Node41 -->
<g id="edge44" class="edge">
<title>Node1&#45;&gt;Node41</title>
<path fill="none" stroke="midnightblue" d="M2555.66,-305.54C2620.45,-296.15 2718.67,-281.16 2803.5,-265 2806.34,-264.46 2809.24,-263.89 2812.17,-263.29"/>
<polygon fill="midnightblue" stroke="midnightblue" points="2554.95,-302.1 2545.55,-306.99 2555.95,-309.03 2554.95,-302.1"/>
</g>
<!-- Node4 -->
<g id="node4" class="node">
<title>Node4</title>
<g id="a_node4"><a xlink:href="Champ__Generique__Correlation_8cpp.html" target="_top" xlink:title=" ">
<polygon fill="white" stroke="black" points="768.5,-156.5 768.5,-186.5 920.5,-186.5 920.5,-156.5 768.5,-156.5"/>
<text text-anchor="start" x="776.5" y="-174.5" font-family="Helvetica,sans-Serif" font-size="10.00">src/Kernel/Champs/Champ</text>
<text text-anchor="middle" x="844.5" y="-163.5" font-family="Helvetica,sans-Serif" font-size="10.00">_Generique_Correlation.cpp</text>
</a>
</g>
</g>
<!-- Node3&#45;&gt;Node4 -->
<g id="edge3" class="edge">
<title>Node3&#45;&gt;Node4</title>
<path fill="none" stroke="midnightblue" d="M2154.11,-233.99C1612.29,-171.86 1464.34,-284.54 929.5,-198 914.29,-195.54 897.99,-191.11 883.78,-186.63"/>
<polygon fill="midnightblue" stroke="midnightblue" points="2153.8,-237.48 2164.14,-235.16 2154.61,-230.53 2153.8,-237.48"/>
</g>
<!-- Node5 -->
<g id="node5" class="node">
<title>Node5</title>
<g id="a_node5"><a xlink:href="Champ__Generique__Ecart__Type_8cpp.html" target="_top" xlink:title=" ">
<polygon fill="white" stroke="black" points="938.5,-156.5 938.5,-186.5 1088.5,-186.5 1088.5,-156.5 938.5,-156.5"/>
<text text-anchor="start" x="946.5" y="-174.5" font-family="Helvetica,sans-Serif" font-size="10.00">src/Kernel/Champs/Champ</text>
<text text-anchor="middle" x="1013.5" y="-163.5" font-family="Helvetica,sans-Serif" font-size="10.00">_Generique_Ecart_Type.cpp</text>
</a>
</g>
</g>
<!-- Node3&#45;&gt;Node5 -->
<g id="edge4" class="edge">
<title>Node3&#45;&gt;Node5</title>
<path fill="none" stroke="midnightblue" d="M2154.13,-233.99C1688.76,-179.61 1561.77,-270.52 1102.5,-198 1086.62,-195.49 1069.57,-191.05 1054.68,-186.57"/>
<polygon fill="midnightblue" stroke="midnightblue" points="2153.79,-237.47 2164.14,-235.17 2154.62,-230.52 2153.79,-237.47"/>
</g>
<!-- Node6 -->
<g id="node6" class="node">
<title>Node6</title>
<g id="a_node6"><a xlink:href="Champ__Generique__Extraction_8cpp.html" target="_top" xlink:title=" ">
<polygon fill="white" stroke="black" points="0,-73 0,-103 147,-103 147,-73 0,-73"/>
<text text-anchor="start" x="8" y="-91" font-family="Helvetica,sans-Serif" font-size="10.00">src/Kernel/Champs/Champ</text>
<text text-anchor="middle" x="73.5" y="-80" font-family="Helvetica,sans-Serif" font-size="10.00">_Generique_Extraction.cpp</text>
</a>
</g>
</g>
<!-- Node3&#45;&gt;Node6 -->
<g id="edge5" class="edge">
<title>Node3&#45;&gt;Node6</title>
<path fill="none" stroke="midnightblue" d="M2154.05,-234.18C2003.9,-221.92 1233.01,-250.27 1135.5,-198 1109.95,-184.31 1123.03,-158.73 1097.5,-145 1005.35,-95.43 260.15,-123.33 156.5,-109 146.22,-107.58 135.36,-105.44 125,-103.08"/>
<polygon fill="midnightblue" stroke="midnightblue" points="2153.84,-237.68 2164.14,-235.18 2154.53,-230.71 2153.84,-237.68"/>
</g>
<!-- Node7 -->
<g id="node7" class="node">
<title>Node7</title>
<g id="a_node7"><a xlink:href="Champ__Generique__Interpolation_8cpp.html" target="_top" xlink:title=" ">
<polygon fill="white" stroke="black" points="1422.5,-156.5 1422.5,-186.5 1582.5,-186.5 1582.5,-156.5 1422.5,-156.5"/>
<text text-anchor="start" x="1430.5" y="-174.5" font-family="Helvetica,sans-Serif" font-size="10.00">src/Kernel/Champs/Champ</text>
<text text-anchor="middle" x="1502.5" y="-163.5" font-family="Helvetica,sans-Serif" font-size="10.00">_Generique_Interpolation.cpp</text>
</a>
</g>
</g>
<!-- Node3&#45;&gt;Node7 -->
<g id="edge6" class="edge">
<title>Node3&#45;&gt;Node7</title>
<path fill="none" stroke="midnightblue" d="M2154.05,-233.94C1905.21,-201.53 1836.36,-239.85 1592.5,-198 1576.81,-195.31 1559.95,-190.94 1545.11,-186.57"/>
<polygon fill="midnightblue" stroke="midnightblue" points="2153.75,-237.43 2164.12,-235.28 2154.67,-230.49 2153.75,-237.43"/>
</g>
<!-- Node8 -->
<g id="node8" class="node">
<title>Node8</title>
<g id="a_node8"><a xlink:href="Champ__Generique__Moyenne_8cpp.html" target="_top" xlink:title=" ">
<polygon fill="white" stroke="black" points="1601,-156.5 1601,-186.5 1746,-186.5 1746,-156.5 1601,-156.5"/>
<text text-anchor="start" x="1609" y="-174.5" font-family="Helvetica,sans-Serif" font-size="10.00">src/Kernel/Champs/Champ</text>
<text text-anchor="middle" x="1673.5" y="-163.5" font-family="Helvetica,sans-Serif" font-size="10.00">_Generique_Moyenne.cpp</text>
</a>
</g>
</g>
<!-- Node3&#45;&gt;Node8 -->
<g id="edge7" class="edge">
<title>Node3&#45;&gt;Node8</title>
<path fill="none" stroke="midnightblue" d="M2154.57,-233.99C1977.14,-208.73 1927.43,-232.07 1755.5,-198 1741.31,-195.19 1726.11,-190.85 1712.69,-186.54"/>
<polygon fill="midnightblue" stroke="midnightblue" points="2154.09,-237.46 2164.49,-235.43 2155.1,-230.53 2154.09,-237.46"/>
</g>
<!-- Node9 -->
<g id="node9" class="node">
<title>Node9</title>
<g id="a_node9"><a xlink:href="Champ__Generique__Transformation_8cpp.html" target="_top" xlink:title=" ">
<polygon fill="white" stroke="black" points="1764,-156.5 1764,-186.5 1935,-186.5 1935,-156.5 1764,-156.5"/>
<text text-anchor="start" x="1772" y="-174.5" font-family="Helvetica,sans-Serif" font-size="10.00">src/Kernel/Champs/Champ</text>
<text text-anchor="middle" x="1849.5" y="-163.5" font-family="Helvetica,sans-Serif" font-size="10.00">_Generique_Transformation.cpp</text>
</a>
</g>
</g>
<!-- Node3&#45;&gt;Node9 -->
<g id="edge8" class="edge">
<title>Node3&#45;&gt;Node9</title>
<path fill="none" stroke="midnightblue" d="M2154.49,-233.86C2060.31,-216.46 2034.34,-217.68 1944.5,-198 1929.49,-194.71 1913.29,-190.58 1898.59,-186.61"/>
<polygon fill="midnightblue" stroke="midnightblue" points="2153.97,-237.32 2164.44,-235.72 2155.26,-230.44 2153.97,-237.32"/>
</g>
<!-- Node10 -->
<g id="node10" class="node">
<title>Node10</title>
<g id="a_node10"><a xlink:href="Champ__Generique__refChamp_8h.html" target="_top" xlink:title=" ">
<polygon fill="white" stroke="black" points="1145,-156.5 1145,-186.5 1290,-186.5 1290,-156.5 1145,-156.5"/>
<text text-anchor="start" x="1153" y="-174.5" font-family="Helvetica,sans-Serif" font-size="10.00">src/Kernel/Champs/Champ</text>
<text text-anchor="middle" x="1217.5" y="-163.5" font-family="Helvetica,sans-Serif" font-size="10.00">_Generique_refChamp.h</text>
</a>
</g>
</g>
<!-- Node3&#45;&gt;Node10 -->
<g id="edge9" class="edge">
<title>Node3&#45;&gt;Node10</title>
<path fill="none" stroke="midnightblue" d="M2154.07,-233.97C1778,-188.71 1674.72,-259.15 1304.5,-198 1288.97,-195.43 1272.3,-190.98 1257.75,-186.51"/>
<polygon fill="midnightblue" stroke="midnightblue" points="2153.78,-237.46 2164.13,-235.2 2154.63,-230.51 2153.78,-237.46"/>
</g>
<!-- Node20 -->
<g id="node20" class="node">
<title>Node20</title>
<g id="a_node20"><a xlink:href="Champ__Post__Operateur__Eqn_8cpp.html" target="_top" xlink:title=" ">
<polygon fill="white" stroke="black" points="1559.5,-67.5 1559.5,-108.5 1693.5,-108.5 1693.5,-67.5 1559.5,-67.5"/>
<text text-anchor="start" x="1567.5" y="-96.5" font-family="Helvetica,sans-Serif" font-size="10.00">src/Kernel/Champs_dis</text>
<text text-anchor="start" x="1567.5" y="-85.5" font-family="Helvetica,sans-Serif" font-size="10.00">/Champ_Post_Operateur</text>
<text text-anchor="middle" x="1626.5" y="-74.5" font-family="Helvetica,sans-Serif" font-size="10.00">_Eqn.cpp</text>
</a>
</g>
</g>
<!-- Node3&#45;&gt;Node20 -->
<g id="edge24" class="edge">
<title>Node3&#45;&gt;Node20</title>
<path fill="none" stroke="midnightblue" d="M2154.12,-234.41C2052.72,-228.57 1392.65,-228.51 1363.5,-198 1347.23,-180.97 1348.5,-163.16 1363.5,-145 1417.39,-79.74 1467.97,-127.78 1550.5,-109 1553.43,-108.33 1556.41,-107.63 1559.42,-106.91"/>
<polygon fill="midnightblue" stroke="midnightblue" points="2153.88,-237.9 2164.13,-235.21 2154.44,-230.92 2153.88,-237.9"/>
</g>
<!-- Node21 -->
<g id="node21" class="node">
<title>Node21</title>
<g id="a_node21"><a xlink:href="Postraitement_8cpp.html" target="_top" xlink:title=" ">
<polygon fill="white" stroke="black" points="1711.5,-73 1711.5,-103 1833.5,-103 1833.5,-73 1711.5,-73"/>
<text text-anchor="start" x="1719.5" y="-91" font-family="Helvetica,sans-Serif" font-size="10.00">src/Kernel/Framework</text>
<text text-anchor="middle" x="1772.5" y="-80" font-family="Helvetica,sans-Serif" font-size="10.00">/Postraitement.cpp</text>
</a>
</g>
</g>
<!-- Node3&#45;&gt;Node21 -->
<g id="edge26" class="edge">
<title>Node3&#45;&gt;Node21</title>
<path fill="none" stroke="midnightblue" d="M2153.89,-234.39C2054.42,-228.63 1424.35,-227.21 1396.5,-198 1310.93,-108.27 1420.73,-165.44 1702.5,-109 1710.56,-107.39 1719.03,-105.3 1727.2,-103.09"/>
<polygon fill="midnightblue" stroke="midnightblue" points="2153.88,-237.91 2164.13,-235.22 2154.44,-230.93 2153.88,-237.91"/>
</g>
<!-- Node22 -->
<g id="node22" class="node">
<title>Node22</title>
<g id="a_node22"><a xlink:href="Sonde_8cpp.html" target="_top" xlink:title=" ">
<polygon fill="white" stroke="black" points="1851.5,-73 1851.5,-103 1973.5,-103 1973.5,-73 1851.5,-73"/>
<text text-anchor="start" x="1859.5" y="-91" font-family="Helvetica,sans-Serif" font-size="10.00">src/Kernel/Framework</text>
<text text-anchor="middle" x="1912.5" y="-80" font-family="Helvetica,sans-Serif" font-size="10.00">/Sonde.cpp</text>
</a>
</g>
</g>
<!-- Node3&#45;&gt;Node22 -->
<g id="edge31" class="edge">
<title>Node3&#45;&gt;Node22</title>
<path fill="none" stroke="midnightblue" d="M2154.09,-234.41C2056.69,-228.66 1440.72,-226.57 1413.5,-198 1397.25,-180.94 1397.56,-162.34 1413.5,-145 1445.88,-109.79 1795.45,-117.61 1842.5,-109 1850.95,-107.45 1859.86,-105.32 1868.37,-103.01"/>
<polygon fill="midnightblue" stroke="midnightblue" points="2153.88,-237.9 2164.13,-235.22 2154.45,-230.92 2153.88,-237.9"/>
</g>
<!-- Node24 -->
<g id="node24" class="node">
<title>Node24</title>
<g id="a_node24"><a xlink:href="Equation__base_8cpp.html" target="_top" xlink:title=" ">
<polygon fill="white" stroke="black" points="1953.5,-156.5 1953.5,-186.5 2075.5,-186.5 2075.5,-156.5 1953.5,-156.5"/>
<text text-anchor="start" x="1961.5" y="-174.5" font-family="Helvetica,sans-Serif" font-size="10.00">src/Kernel/Framework</text>
<text text-anchor="middle" x="2014.5" y="-163.5" font-family="Helvetica,sans-Serif" font-size="10.00">/Equation_base.cpp</text>
</a>
</g>
</g>
<!-- Node3&#45;&gt;Node24 -->
<g id="edge25" class="edge">
<title>Node3&#45;&gt;Node24</title>
<path fill="none" stroke="midnightblue" d="M2176.33,-230.96C2149.23,-221.28 2114.99,-209.01 2084.5,-198 2074.28,-194.31 2063.23,-190.29 2053,-186.57"/>
<polygon fill="midnightblue" stroke="midnightblue" points="2175.38,-234.34 2185.97,-234.41 2177.73,-227.75 2175.38,-234.34"/>
</g>
<!-- Node25 -->
<g id="node25" class="node">
<title>Node25</title>
<g id="a_node25"><a xlink:href="Postraitements_8cpp.html" target="_top" xlink:title=" ">
<polygon fill="white" stroke="black" points="2093.5,-156.5 2093.5,-186.5 2215.5,-186.5 2215.5,-156.5 2093.5,-156.5"/>
<text text-anchor="start" x="2101.5" y="-174.5" font-family="Helvetica,sans-Serif" font-size="10.00">src/Kernel/Framework</text>
<text text-anchor="middle" x="2154.5" y="-163.5" font-family="Helvetica,sans-Serif" font-size="10.00">/Postraitements.cpp</text>
</a>
</g>
</g>
<!-- Node3&#45;&gt;Node25 -->
<g id="edge27" class="edge">
<title>Node3&#45;&gt;Node25</title>
<path fill="none" stroke="midnightblue" d="M2205.11,-226.67C2193.11,-213.83 2178.29,-197.97 2167.79,-186.73"/>
<polygon fill="midnightblue" stroke="midnightblue" points="2202.76,-229.29 2212.15,-234.2 2207.88,-224.51 2202.76,-229.29"/>
</g>
<!-- Node26 -->
<g id="node26" class="node">
<title>Node26</title>
<g id="a_node26"><a xlink:href="Probleme__Couple_8cpp.html" target="_top" xlink:title=" ">
<polygon fill="white" stroke="black" points="2234,-156.5 2234,-186.5 2359,-186.5 2359,-156.5 2234,-156.5"/>
<text text-anchor="start" x="2242" y="-174.5" font-family="Helvetica,sans-Serif" font-size="10.00">src/Kernel/Framework</text>
<text text-anchor="middle" x="2296.5" y="-163.5" font-family="Helvetica,sans-Serif" font-size="10.00">/Probleme_Couple.cpp</text>
</a>
</g>
</g>
<!-- Node3&#45;&gt;Node26 -->
<g id="edge28" class="edge">
<title>Node3&#45;&gt;Node26</title>
<path fill="none" stroke="midnightblue" d="M2245.89,-226.67C2257.89,-213.83 2272.71,-197.97 2283.21,-186.73"/>
<polygon fill="midnightblue" stroke="midnightblue" points="2243.12,-224.51 2238.85,-234.2 2248.24,-229.29 2243.12,-224.51"/>
</g>
<!-- Node27 -->
<g id="node27" class="node">
<title>Node27</title>
<g id="a_node27"><a xlink:href="Probleme__base_8cpp.html" target="_top" xlink:title=" ">
<polygon fill="white" stroke="black" points="2377.5,-156.5 2377.5,-186.5 2499.5,-186.5 2499.5,-156.5 2377.5,-156.5"/>
<text text-anchor="start" x="2385.5" y="-174.5" font-family="Helvetica,sans-Serif" font-size="10.00">src/Kernel/Framework</text>
<text text-anchor="middle" x="2438.5" y="-163.5" font-family="Helvetica,sans-Serif" font-size="10.00">/Probleme_base.cpp</text>
</a>
</g>
</g>
<!-- Node3&#45;&gt;Node27 -->
<g id="edge29" class="edge">
<title>Node3&#45;&gt;Node27</title>
<path fill="none" stroke="midnightblue" d="M2275.38,-231.02C2302.88,-221.35 2337.6,-209.08 2368.5,-198 2378.73,-194.33 2389.78,-190.33 2400.01,-186.6"/>
<polygon fill="midnightblue" stroke="midnightblue" points="2273.88,-227.84 2265.6,-234.46 2276.2,-234.44 2273.88,-227.84"/>
</g>
<!-- Node28 -->
<g id="node28" class="node">
<title>Node28</title>
<g id="a_node28"><a xlink:href="Ref__Postraitement_8cpp.html" target="_top" xlink:title=" ">
<polygon fill="white" stroke="black" points="2518,-156.5 2518,-186.5 2649,-186.5 2649,-156.5 2518,-156.5"/>
<text text-anchor="start" x="2526" y="-174.5" font-family="Helvetica,sans-Serif" font-size="10.00">src/Kernel/Framework</text>
<text text-anchor="middle" x="2583.5" y="-163.5" font-family="Helvetica,sans-Serif" font-size="10.00">/Ref_Postraitement.cpp</text>
</a>
</g>
</g>
<!-- Node3&#45;&gt;Node28 -->
<g id="edge30" class="edge">
<title>Node3&#45;&gt;Node28</title>
<path fill="none" stroke="midnightblue" d="M2296.2,-234.06C2296.3,-234.04 2296.4,-234.02 2296.5,-234 2390.44,-216.44 2415.85,-221.46 2508.5,-198 2520.9,-194.86 2534.19,-190.64 2546.08,-186.53"/>
<polygon fill="midnightblue" stroke="midnightblue" points="2295.83,-230.56 2286.67,-235.87 2297.14,-237.44 2295.83,-230.56"/>
</g>
<!-- Node29 -->
<g id="node29" class="node">
<title>Node29</title>
<g id="a_node29"><a xlink:href="Sonde__Int_8cpp.html" target="_top" xlink:title=" ">
<polygon fill="white" stroke="black" points="2667.5,-156.5 2667.5,-186.5 2789.5,-186.5 2789.5,-156.5 2667.5,-156.5"/>
<text text-anchor="start" x="2675.5" y="-174.5" font-family="Helvetica,sans-Serif" font-size="10.00">src/Kernel/Framework</text>
<text text-anchor="middle" x="2728.5" y="-163.5" font-family="Helvetica,sans-Serif" font-size="10.00">/Sonde_Int.cpp</text>
</a>
</g>
</g>
<!-- Node3&#45;&gt;Node29 -->
<g id="edge32" class="edge">
<title>Node3&#45;&gt;Node29</title>
<path fill="none" stroke="midnightblue" d="M2296.2,-234.05C2296.3,-234.03 2296.4,-234.02 2296.5,-234 2456.36,-209.79 2500.87,-233.95 2658.5,-198 2670.73,-195.21 2683.74,-190.87 2695.19,-186.56"/>
<polygon fill="midnightblue" stroke="midnightblue" points="2295.93,-230.54 2286.62,-235.6 2297.05,-237.45 2295.93,-230.54"/>
</g>
<!-- Node30 -->
<g id="node30" class="node">
<title>Node30</title>
<g id="a_node30"><a xlink:href="Sondes_8cpp.html" target="_top" xlink:title=" ">
<polygon fill="white" stroke="black" points="2807.5,-156.5 2807.5,-186.5 2929.5,-186.5 2929.5,-156.5 2807.5,-156.5"/>
<text text-anchor="start" x="2815.5" y="-174.5" font-family="Helvetica,sans-Serif" font-size="10.00">src/Kernel/Framework</text>
<text text-anchor="middle" x="2868.5" y="-163.5" font-family="Helvetica,sans-Serif" font-size="10.00">/Sondes.cpp</text>
</a>
</g>
</g>
<!-- Node3&#45;&gt;Node30 -->
<g id="edge33" class="edge">
<title>Node3&#45;&gt;Node30</title>
<path fill="none" stroke="midnightblue" d="M2296.2,-234.04C2296.3,-234.03 2296.4,-234.01 2296.5,-234 2518.1,-203.56 2579.75,-244.73 2798.5,-198 2810.9,-195.35 2824.06,-190.99 2835.59,-186.62"/>
<polygon fill="midnightblue" stroke="midnightblue" points="2295.97,-230.54 2286.6,-235.5 2297.02,-237.46 2295.97,-230.54"/>
</g>
<!-- Node31 -->
<g id="node31" class="node">
<title>Node31</title>
<g id="a_node31"><a xlink:href="Sondes__Int_8cpp.html" target="_top" xlink:title=" ">
<polygon fill="white" stroke="black" points="2947.5,-156.5 2947.5,-186.5 3069.5,-186.5 3069.5,-156.5 2947.5,-156.5"/>
<text text-anchor="start" x="2955.5" y="-174.5" font-family="Helvetica,sans-Serif" font-size="10.00">src/Kernel/Framework</text>
<text text-anchor="middle" x="3008.5" y="-163.5" font-family="Helvetica,sans-Serif" font-size="10.00">/Sondes_Int.cpp</text>
</a>
</g>
</g>
<!-- Node3&#45;&gt;Node31 -->
<g id="edge34" class="edge">
<title>Node3&#45;&gt;Node31</title>
<path fill="none" stroke="midnightblue" d="M2296.2,-234.04C2296.3,-234.03 2296.4,-234.01 2296.5,-234 2579.92,-197.31 2658.57,-255.53 2938.5,-198 2951.04,-195.42 2964.35,-191.02 2975.96,-186.6"/>
<polygon fill="midnightblue" stroke="midnightblue" points="2295.99,-230.53 2286.6,-235.44 2297,-237.46 2295.99,-230.53"/>
</g>
<!-- Node32 -->
<g id="node32" class="node">
<title>Node32</title>
<g id="a_node32"><a xlink:href="Source__Generique__base_8cpp.html" target="_top" xlink:title=" ">
<polygon fill="white" stroke="black" points="3088,-156.5 3088,-186.5 3245,-186.5 3245,-156.5 3088,-156.5"/>
<text text-anchor="start" x="3096" y="-174.5" font-family="Helvetica,sans-Serif" font-size="10.00">src/Kernel/Framework</text>
<text text-anchor="middle" x="3166.5" y="-163.5" font-family="Helvetica,sans-Serif" font-size="10.00">/Source_Generique_base.cpp</text>
</a>
</g>
</g>
<!-- Node3&#45;&gt;Node32 -->
<g id="edge35" class="edge">
<title>Node3&#45;&gt;Node32</title>
<path fill="none" stroke="midnightblue" d="M2296.2,-234.04C2296.3,-234.03 2296.4,-234.01 2296.5,-234 2641.76,-191.06 2735.25,-254.81 3078.5,-198 3094.04,-195.43 3110.72,-191.03 3125.33,-186.61"/>
<polygon fill="midnightblue" stroke="midnightblue" points="2296,-230.53 2286.59,-235.4 2296.98,-237.46 2296,-230.53"/>
</g>
<!-- Node33 -->
<g id="node33" class="node">
<title>Node33</title>
<g id="a_node33"><a xlink:href="Pb__MED_8cpp.html" target="_top" xlink:title=" ">
<polygon fill="white" stroke="black" points="3263.5,-156.5 3263.5,-186.5 3375.5,-186.5 3375.5,-156.5 3263.5,-156.5"/>
<text text-anchor="start" x="3271.5" y="-174.5" font-family="Helvetica,sans-Serif" font-size="10.00">src/Kernel/MEDimpl</text>
<text text-anchor="middle" x="3319.5" y="-163.5" font-family="Helvetica,sans-Serif" font-size="10.00">/Pb_MED.cpp</text>
</a>
</g>
</g>
<!-- Node3&#45;&gt;Node33 -->
<g id="edge36" class="edge">
<title>Node3&#45;&gt;Node33</title>
<path fill="none" stroke="midnightblue" d="M2296.2,-234.04C2296.3,-234.02 2296.4,-234.01 2296.5,-234 2508.02,-208.6 3045.95,-241.52 3254.5,-198 3266.37,-195.52 3278.88,-191.09 3289.73,-186.61"/>
<polygon fill="midnightblue" stroke="midnightblue" points="2296.01,-230.53 2286.59,-235.36 2296.97,-237.46 2296.01,-230.53"/>
</g>
<!-- Node34 -->
<g id="node34" class="node">
<title>Node34</title>
<g id="a_node34"><a xlink:href="Moyenne__volumique_8cpp.html" target="_top" xlink:title=" ">
<polygon fill="white" stroke="black" points="3393.5,-156.5 3393.5,-186.5 3571.5,-186.5 3571.5,-156.5 3393.5,-156.5"/>
<text text-anchor="start" x="3401.5" y="-174.5" font-family="Helvetica,sans-Serif" font-size="10.00">src/Kernel/Statistiques</text>
<text text-anchor="middle" x="3482.5" y="-163.5" font-family="Helvetica,sans-Serif" font-size="10.00">_temps/Moyenne_volumique.cpp</text>
</a>
</g>
</g>
<!-- Node3&#45;&gt;Node34 -->
<g id="edge37" class="edge">
<title>Node3&#45;&gt;Node34</title>
<path fill="none" stroke="midnightblue" d="M2296.2,-234.04C2296.3,-234.02 2296.4,-234.01 2296.5,-234 2777,-177.39 2905.67,-267.34 3384.5,-198 3401.9,-195.48 3420.66,-191.04 3437.06,-186.56"/>
<polygon fill="midnightblue" stroke="midnightblue" points="2296.02,-230.53 2286.59,-235.35 2296.97,-237.46 2296.02,-230.53"/>
</g>
<!-- Node35 -->
<g id="node35" class="node">
<title>Node35</title>
<g id="a_node35"><a xlink:href="Operateurs__Statistique__tps_8cpp.html" target="_top" xlink:title=" ">
<polygon fill="white" stroke="black" points="3589,-151 3589,-192 3756,-192 3756,-151 3589,-151"/>
<text text-anchor="start" x="3597" y="-180" font-family="Helvetica,sans-Serif" font-size="10.00">src/Kernel/Statistiques</text>
<text text-anchor="start" x="3597" y="-169" font-family="Helvetica,sans-Serif" font-size="10.00">_temps/Operateurs_Statistique</text>
<text text-anchor="middle" x="3672.5" y="-158" font-family="Helvetica,sans-Serif" font-size="10.00">_tps.cpp</text>
</a>
</g>
</g>
<!-- Node3&#45;&gt;Node35 -->
<g id="edge38" class="edge">
<title>Node3&#45;&gt;Node35</title>
<path fill="none" stroke="midnightblue" d="M2296.2,-234.04C2296.3,-234.02 2296.4,-234.01 2296.5,-234 2863.64,-168.64 3015.95,-282.87 3580.5,-198 3590.01,-196.57 3599.93,-194.48 3609.59,-192.1"/>
<polygon fill="midnightblue" stroke="midnightblue" points="2296.03,-230.53 2286.58,-235.33 2296.96,-237.46 2296.03,-230.53"/>
</g>
<!-- Node36 -->
<g id="node36" class="node">
<title>Node36</title>
<g id="a_node36"><a xlink:href="Champ__Generique__modifier__pour__QC_8cpp.html" target="_top" xlink:title=" ">
<polygon fill="white" stroke="black" points="3774,-145.5 3774,-197.5 3929,-197.5 3929,-145.5 3774,-145.5"/>
<text text-anchor="start" x="3782" y="-185.5" font-family="Helvetica,sans-Serif" font-size="10.00">src/ThHyd/Dilatable</text>
<text text-anchor="start" x="3782" y="-174.5" font-family="Helvetica,sans-Serif" font-size="10.00">/Quasi_Compressible</text>
<text text-anchor="start" x="3782" y="-163.5" font-family="Helvetica,sans-Serif" font-size="10.00">/Champ_Generique_modifier</text>
<text text-anchor="middle" x="3851.5" y="-152.5" font-family="Helvetica,sans-Serif" font-size="10.00">_pour_QC.cpp</text>
</a>
</g>
</g>
<!-- Node3&#45;&gt;Node36 -->
<g id="edge39" class="edge">
<title>Node3&#45;&gt;Node36</title>
<path fill="none" stroke="midnightblue" d="M2296.2,-234.03C2296.3,-234.02 2296.4,-234.01 2296.5,-234 2620.96,-197.19 3442.94,-248.86 3765.5,-198 3768.27,-197.56 3771.07,-197.06 3773.9,-196.51"/>
<polygon fill="midnightblue" stroke="midnightblue" points="2296.03,-230.53 2286.58,-235.31 2296.95,-237.46 2296.03,-230.53"/>
</g>
<!-- Node37 -->
<g id="node37" class="node">
<title>Node37</title>
<g id="a_node37"><a xlink:href="Mod__turb__hyd__base_8cpp.html" target="_top" xlink:title=" ">
<polygon fill="white" stroke="black" points="3947.5,-156.5 3947.5,-186.5 4113.5,-186.5 4113.5,-156.5 3947.5,-156.5"/>
<text text-anchor="start" x="3955.5" y="-174.5" font-family="Helvetica,sans-Serif" font-size="10.00">src/ThHyd/Modele_turbulence</text>
<text text-anchor="middle" x="4030.5" y="-163.5" font-family="Helvetica,sans-Serif" font-size="10.00">_base/Mod_turb_hyd_base.cpp</text>
</a>
</g>
</g>
<!-- Node3&#45;&gt;Node37 -->
<g id="edge40" class="edge">
<title>Node3&#45;&gt;Node37</title>
<path fill="none" stroke="midnightblue" d="M2296.2,-234.03C2296.3,-234.02 2296.4,-234.01 2296.5,-234 2659.2,-193.32 3577.41,-251.15 3938.5,-198 3955.06,-195.56 3972.88,-191.08 3988.38,-186.54"/>
<polygon fill="midnightblue" stroke="midnightblue" points="2296.04,-230.52 2286.58,-235.3 2296.95,-237.46 2296.04,-230.52"/>
</g>
<!-- Node10&#45;&gt;Node6 -->
<g id="edge14" class="edge">
<title>Node10&#45;&gt;Node6</title>
<path fill="none" stroke="midnightblue" d="M1167.44,-153.53C1155.47,-150.11 1142.64,-146.97 1130.5,-145 702.92,-75.54 585.64,-168.03 156.5,-109 146.22,-107.59 135.36,-105.45 125,-103.09"/>
<polygon fill="midnightblue" stroke="midnightblue" points="1166.68,-156.96 1177.26,-156.44 1168.67,-150.24 1166.68,-156.96"/>
</g>
<!-- Node11 -->
<g id="node11" class="node">
<title>Node11</title>
<g id="a_node11"><a xlink:href="Champ__Gen__de__Champs__Gen_8cpp.html" target="_top" xlink:title=" ">
<polygon fill="white" stroke="black" points="895,-73 895,-103 1044,-103 1044,-73 895,-73"/>
<text text-anchor="start" x="903" y="-91" font-family="Helvetica,sans-Serif" font-size="10.00">src/Kernel/Champs/Champ</text>
<text text-anchor="middle" x="969.5" y="-80" font-family="Helvetica,sans-Serif" font-size="10.00">_Gen_de_Champs_Gen.cpp</text>
</a>
</g>
</g>
<!-- Node10&#45;&gt;Node11 -->
<g id="edge10" class="edge">
<title>Node10&#45;&gt;Node11</title>
<path fill="none" stroke="midnightblue" d="M1165.2,-153.31C1119.79,-138.39 1054.82,-117.04 1012.41,-103.1"/>
<polygon fill="midnightblue" stroke="midnightblue" points="1164.27,-156.69 1174.87,-156.49 1166.46,-150.04 1164.27,-156.69"/>
</g>
<!-- Node12 -->
<g id="node12" class="node">
<title>Node12</title>
<g id="a_node12"><a xlink:href="Champ__Generique__Champ_8h.html" target="_top" xlink:title=" ">
<polygon fill="white" stroke="black" points="1062,-73 1062,-103 1207,-103 1207,-73 1062,-73"/>
<text text-anchor="start" x="1070" y="-91" font-family="Helvetica,sans-Serif" font-size="10.00">src/Kernel/Champs/Champ</text>
<text text-anchor="middle" x="1134.5" y="-80" font-family="Helvetica,sans-Serif" font-size="10.00">_Generique_Champ.h</text>
</a>
</g>
</g>
<!-- Node10&#45;&gt;Node12 -->
<g id="edge11" class="edge">
<title>Node10&#45;&gt;Node12</title>
<path fill="none" stroke="midnightblue" d="M1195.75,-149.14C1180.92,-134.58 1161.71,-115.72 1148.79,-103.03"/>
<polygon fill="midnightblue" stroke="midnightblue" points="1193.46,-151.79 1203.04,-156.3 1198.36,-146.8 1193.46,-151.79"/>
</g>
<!-- Node14 -->
<g id="node14" class="node">
<title>Node14</title>
<g id="a_node14"><a xlink:href="Champ__Generique__Divergence_8cpp.html" target="_top" xlink:title=" ">
<polygon fill="white" stroke="black" points="1225,-73 1225,-103 1378,-103 1378,-73 1225,-73"/>
<text text-anchor="start" x="1233" y="-91" font-family="Helvetica,sans-Serif" font-size="10.00">src/Kernel/Champs/Champ</text>
<text text-anchor="middle" x="1301.5" y="-80" font-family="Helvetica,sans-Serif" font-size="10.00">_Generique_Divergence.cpp</text>
</a>
</g>
</g>
<!-- Node10&#45;&gt;Node14 -->
<g id="edge13" class="edge">
<title>Node10&#45;&gt;Node14</title>
<path fill="none" stroke="midnightblue" d="M1239.52,-149.14C1254.52,-134.58 1273.96,-115.72 1287.04,-103.03"/>
<polygon fill="midnightblue" stroke="midnightblue" points="1236.87,-146.83 1232.13,-156.3 1241.75,-151.85 1236.87,-146.83"/>
</g>
<!-- Node15 -->
<g id="node15" class="node">
<title>Node15</title>
<g id="a_node15"><a xlink:href="Champ__Generique__Gradient_8cpp.html" target="_top" xlink:title=" ">
<polygon fill="white" stroke="black" points="1396,-73 1396,-103 1541,-103 1541,-73 1396,-73"/>
<text text-anchor="start" x="1404" y="-91" font-family="Helvetica,sans-Serif" font-size="10.00">src/Kernel/Champs/Champ</text>
<text text-anchor="middle" x="1468.5" y="-80" font-family="Helvetica,sans-Serif" font-size="10.00">_Generique_Gradient.cpp</text>
</a>
</g>
</g>
<!-- Node10&#45;&gt;Node15 -->
<g id="edge15" class="edge">
<title>Node10&#45;&gt;Node15</title>
<path fill="none" stroke="midnightblue" d="M1270.43,-153.31C1316.39,-138.39 1382.14,-117.04 1425.07,-103.1"/>
<polygon fill="midnightblue" stroke="midnightblue" points="1269.08,-150.07 1260.65,-156.49 1271.24,-156.73 1269.08,-150.07"/>
</g>
<!-- Node16 -->
<g id="node16" class="node">
<title>Node16</title>
<g id="a_node16"><a xlink:href="Champ__Generique__Morceau__Equation_8cpp.html" target="_top" xlink:title=" ">
<polygon fill="white" stroke="black" points="165.5,-73 165.5,-103 353.5,-103 353.5,-73 165.5,-73"/>
<text text-anchor="start" x="173.5" y="-91" font-family="Helvetica,sans-Serif" font-size="10.00">src/Kernel/Champs/Champ</text>
<text text-anchor="middle" x="259.5" y="-80" font-family="Helvetica,sans-Serif" font-size="10.00">_Generique_Morceau_Equation.cpp</text>
</a>
</g>
</g>
<!-- Node10&#45;&gt;Node16 -->
<g id="edge16" class="edge">
<title>Node10&#45;&gt;Node16</title>
<path fill="none" stroke="midnightblue" d="M1167.07,-153.52C1155.2,-150.13 1142.51,-147.01 1130.5,-145 793.49,-88.54 701.78,-149.67 362.5,-109 350.02,-107.5 336.79,-105.36 324.11,-103.03"/>
<polygon fill="midnightblue" stroke="midnightblue" points="1166.23,-156.92 1176.81,-156.4 1168.21,-150.2 1166.23,-156.92"/>
</g>
<!-- Node17 -->
<g id="node17" class="node">
<title>Node17</title>
<g id="a_node17"><a xlink:href="Champ__Generique__refChamp_8cpp.html" target="_top" xlink:title=" ">
<polygon fill="white" stroke="black" points="371.5,-73 371.5,-103 517.5,-103 517.5,-73 371.5,-73"/>
<text text-anchor="start" x="379.5" y="-91" font-family="Helvetica,sans-Serif" font-size="10.00">src/Kernel/Champs/Champ</text>
<text text-anchor="middle" x="444.5" y="-80" font-family="Helvetica,sans-Serif" font-size="10.00">_Generique_refChamp.cpp</text>
</a>
</g>
</g>
<!-- Node10&#45;&gt;Node17 -->
<g id="edge17" class="edge">
<title>Node10&#45;&gt;Node17</title>
<path fill="none" stroke="midnightblue" d="M1166.69,-153.52C1154.92,-150.18 1142.37,-147.07 1130.5,-145 865.56,-98.89 792.43,-149.02 526.5,-109 516.5,-107.5 505.94,-105.35 495.84,-103.02"/>
<polygon fill="midnightblue" stroke="midnightblue" points="1165.77,-156.9 1176.35,-156.37 1167.75,-150.19 1165.77,-156.9"/>
</g>
<!-- Node18 -->
<g id="node18" class="node">
<title>Node18</title>
<g id="a_node18"><a xlink:href="Champ__Generique__refChamp__special_8h.html" target="_top" xlink:title=" ">
<polygon fill="white" stroke="black" points="535.5,-73 535.5,-103 709.5,-103 709.5,-73 535.5,-73"/>
<text text-anchor="start" x="543.5" y="-91" font-family="Helvetica,sans-Serif" font-size="10.00">src/Kernel/Champs/Champ</text>
<text text-anchor="middle" x="622.5" y="-80" font-family="Helvetica,sans-Serif" font-size="10.00">_Generique_refChamp_special.h</text>
</a>
</g>
</g>
<!-- Node10&#45;&gt;Node18 -->
<g id="edge18" class="edge">
<title>Node10&#45;&gt;Node18</title>
<path fill="none" stroke="midnightblue" d="M1165.93,-153.56C1154.38,-150.28 1142.1,-147.19 1130.5,-145 949.87,-110.98 900.35,-135.79 718.5,-109 707.47,-107.37 695.8,-105.27 684.54,-103.04"/>
<polygon fill="midnightblue" stroke="midnightblue" points="1165.29,-157.02 1175.87,-156.48 1167.26,-150.3 1165.29,-157.02"/>
</g>
<!-- Node10&#45;&gt;Node20 -->
<g id="edge20" class="edge">
<title>Node10&#45;&gt;Node20</title>
<path fill="none" stroke="midnightblue" d="M1270.94,-153.56C1281.96,-150.43 1293.55,-147.39 1304.5,-145 1412.45,-121.4 1442.23,-131.1 1550.5,-109 1553.44,-108.4 1556.44,-107.76 1559.46,-107.08"/>
<polygon fill="midnightblue" stroke="midnightblue" points="1269.63,-150.3 1261,-156.45 1271.58,-157.02 1269.63,-150.3"/>
</g>
<!-- Node10&#45;&gt;Node21 -->
<g id="edge21" class="edge">
<title>Node10&#45;&gt;Node21</title>
<path fill="none" stroke="midnightblue" d="M1289.88,-154.44C1307.07,-150.98 1325.38,-147.59 1342.5,-145 1501.48,-120.9 1544.56,-139.21 1702.5,-109 1710.82,-107.41 1719.58,-105.28 1727.97,-103.01"/>
<polygon fill="midnightblue" stroke="midnightblue" points="1289,-151.04 1279.91,-156.47 1290.41,-157.9 1289,-151.04"/>
</g>
<!-- Node10&#45;&gt;Node22 -->
<g id="edge22" class="edge">
<title>Node10&#45;&gt;Node22</title>
<path fill="none" stroke="midnightblue" d="M1300.41,-156.26C1326.03,-152.2 1354.38,-148.06 1380.5,-145 1585.06,-121.07 1639.8,-145.47 1842.5,-109 1850.96,-107.48 1859.86,-105.35 1868.38,-103.05"/>
<polygon fill="midnightblue" stroke="midnightblue" points="1299.68,-152.83 1290.36,-157.87 1300.79,-159.74 1299.68,-152.83"/>
</g>
<!-- Node23 -->
<g id="node23" class="node">
<title>Node23</title>
<g id="a_node23"><a xlink:href="Op__Correlation_8cpp.html" target="_top" xlink:title=" ">
<polygon fill="white" stroke="black" points="728,-73 728,-103 877,-103 877,-73 728,-73"/>
<text text-anchor="start" x="736" y="-91" font-family="Helvetica,sans-Serif" font-size="10.00">src/Kernel/Statistiques</text>
<text text-anchor="middle" x="802.5" y="-80" font-family="Helvetica,sans-Serif" font-size="10.00">_temps/Op_Correlation.cpp</text>
</a>
</g>
</g>
<!-- Node10&#45;&gt;Node23 -->
<g id="edge23" class="edge">
<title>Node10&#45;&gt;Node23</title>
<path fill="none" stroke="midnightblue" d="M1164.06,-153.57C1153.04,-150.43 1141.45,-147.4 1130.5,-145 1022.99,-121.46 993.55,-129.91 885.5,-109 876.48,-107.25 866.96,-105.18 857.71,-103.04"/>
<polygon fill="midnightblue" stroke="midnightblue" points="1163.41,-157.02 1173.99,-156.46 1165.37,-150.3 1163.41,-157.02"/>
</g>
<!-- Node13 -->
<g id="node13" class="node">
<title>Node13</title>
<g id="a_node13"><a xlink:href="Champ__Generique__Champ_8cpp.html" target="_top" xlink:title=" ">
<polygon fill="white" stroke="black" points="1062,-0.5 1062,-30.5 1207,-30.5 1207,-0.5 1062,-0.5"/>
<text text-anchor="start" x="1070" y="-18.5" font-family="Helvetica,sans-Serif" font-size="10.00">src/Kernel/Champs/Champ</text>
<text text-anchor="middle" x="1134.5" y="-7.5" font-family="Helvetica,sans-Serif" font-size="10.00">_Generique_Champ.cpp</text>
</a>
</g>
</g>
<!-- Node12&#45;&gt;Node13 -->
<g id="edge12" class="edge">
<title>Node12&#45;&gt;Node13</title>
<path fill="none" stroke="midnightblue" d="M1134.5,-62.73C1134.5,-52.07 1134.5,-39.91 1134.5,-30.75"/>
<polygon fill="midnightblue" stroke="midnightblue" points="1131,-62.73 1134.5,-72.73 1138,-62.73 1131,-62.73"/>
</g>
<!-- Node19 -->
<g id="node19" class="node">
<title>Node19</title>
<g id="a_node19"><a xlink:href="Champ__Generique__refChamp__special_8cpp.html" target="_top" xlink:title=" ">
<polygon fill="white" stroke="black" points="530,-0.5 530,-30.5 715,-30.5 715,-0.5 530,-0.5"/>
<text text-anchor="start" x="538" y="-18.5" font-family="Helvetica,sans-Serif" font-size="10.00">src/Kernel/Champs/Champ</text>
<text text-anchor="middle" x="622.5" y="-7.5" font-family="Helvetica,sans-Serif" font-size="10.00">_Generique_refChamp_special.cpp</text>
</a>
</g>
</g>
<!-- Node18&#45;&gt;Node19 -->
<g id="edge19" class="edge">
<title>Node18&#45;&gt;Node19</title>
<path fill="none" stroke="midnightblue" d="M622.5,-62.73C622.5,-52.07 622.5,-39.91 622.5,-30.75"/>
<polygon fill="midnightblue" stroke="midnightblue" points="619,-62.73 622.5,-72.73 626,-62.73 619,-62.73"/>
</g>
</g>
</svg>
