<?xml version="1.0" encoding="UTF-8" standalone="no"?>
<!DOCTYPE svg PUBLIC "-//W3C//DTD SVG 1.1//EN"
 "http://www.w3.org/Graphics/SVG/1.1/DTD/svg11.dtd">
<!-- Generated by graphviz version 2.43.0 (0)
 -->
<!-- Title: src/VEF/Zones/Hexa_VEF.h Pages: 1 -->
<svg width="897pt" height="106pt"
 viewBox="0.00 0.00 897.00 106.00" xmlns="http://www.w3.org/2000/svg" xmlns:xlink="http://www.w3.org/1999/xlink">
<g id="graph0" class="graph" transform="scale(1 1) rotate(0) translate(4 102)">
<title>src/VEF/Zones/Hexa_VEF.h</title>
<polygon fill="white" stroke="transparent" points="-4,4 -4,-102 893,-102 893,4 -4,4"/>
<!-- Node1 -->
<g id="node1" class="node">
<title>Node1</title>
<g id="a_node1"><a xlink:title=" ">
<polygon fill="#bfbfbf" stroke="black" points="374.5,-67.5 374.5,-97.5 488.5,-97.5 488.5,-67.5 374.5,-67.5"/>
<text text-anchor="start" x="382.5" y="-85.5" font-family="Helvetica,sans-Serif" font-size="10.00">src/VEF/Zones/Hexa</text>
<text text-anchor="middle" x="431.5" y="-74.5" font-family="Helvetica,sans-Serif" font-size="10.00">_VEF.h</text>
</a>
</g>
</g>
<!-- Node2 -->
<g id="node2" class="node">
<title>Node2</title>
<g id="a_node2"><a xlink:href="Elem__VEF_8cpp.html" target="_top" xlink:title=" ">
<polygon fill="white" stroke="black" points="0,-0.5 0,-30.5 113,-30.5 113,-0.5 0,-0.5"/>
<text text-anchor="start" x="8" y="-18.5" font-family="Helvetica,sans-Serif" font-size="10.00">src/VEF/Zones/Elem</text>
<text text-anchor="middle" x="56.5" y="-7.5" font-family="Helvetica,sans-Serif" font-size="10.00">_VEF.cpp</text>
</a>
</g>
</g>
<!-- Node1&#45;&gt;Node2 -->
<g id="edge1" class="edge">
<title>Node1&#45;&gt;Node2</title>
<path fill="none" stroke="midnightblue" d="M364.23,-71.58C301.51,-62.08 205.44,-46.88 122.5,-31 119.5,-30.43 116.44,-29.82 113.34,-29.19"/>
<polygon fill="midnightblue" stroke="midnightblue" points="363.97,-75.08 374.39,-73.12 365.02,-68.16 363.97,-75.08"/>
</g>
<!-- Node3 -->
<g id="node3" class="node">
<title>Node3</title>
<g id="a_node3"><a xlink:href="Hexa__VEF_8cpp.html" target="_top" xlink:title=" ">
<polygon fill="white" stroke="black" points="131.5,-0.5 131.5,-30.5 245.5,-30.5 245.5,-0.5 131.5,-0.5"/>
<text text-anchor="start" x="139.5" y="-18.5" font-family="Helvetica,sans-Serif" font-size="10.00">src/VEF/Zones/Hexa</text>
<text text-anchor="middle" x="188.5" y="-7.5" font-family="Helvetica,sans-Serif" font-size="10.00">_VEF.cpp</text>
</a>
</g>
</g>
<!-- Node1&#45;&gt;Node3 -->
<g id="edge2" class="edge">
<title>Node1&#45;&gt;Node3</title>
<path fill="none" stroke="midnightblue" d="M369.25,-64.85C329.64,-54.25 278.89,-40.68 241.25,-30.61"/>
<polygon fill="midnightblue" stroke="midnightblue" points="368.51,-68.27 379.07,-67.48 370.32,-61.51 368.51,-68.27"/>
</g>
<!-- Node4 -->
<g id="node4" class="node">
<title>Node4</title>
<g id="a_node4"><a xlink:href="VEF__1D_8cpp.html" target="_top" xlink:title=" ">
<polygon fill="white" stroke="black" points="263.5,-6 263.5,-25 409.5,-25 409.5,-6 263.5,-6"/>
<text text-anchor="middle" x="336.5" y="-13" font-family="Helvetica,sans-Serif" font-size="10.00">src/VEF/Zones/VEF_1D.cpp</text>
</a>
</g>
</g>
<!-- Node1&#45;&gt;Node4 -->
<g id="edge3" class="edge">
<title>Node1&#45;&gt;Node4</title>
<path fill="none" stroke="midnightblue" d="M402.48,-61.64C384.55,-49.37 362.46,-34.26 348.93,-25.01"/>
<polygon fill="midnightblue" stroke="midnightblue" points="400.66,-64.64 410.89,-67.4 404.61,-58.86 400.66,-64.64"/>
</g>
<!-- Node5 -->
<g id="node5" class="node">
<title>Node5</title>
<g id="a_node5"><a xlink:href="VEF__discretisation_8cpp.html" target="_top" xlink:title=" ">
<polygon fill="white" stroke="black" points="428,-6 428,-25 627,-25 627,-6 428,-6"/>
<text text-anchor="middle" x="527.5" y="-13" font-family="Helvetica,sans-Serif" font-size="10.00">src/VEF/Zones/VEF_discretisation.cpp</text>
</a>
</g>
</g>
<!-- Node1&#45;&gt;Node5 -->
<g id="edge4" class="edge">
<title>Node1&#45;&gt;Node5</title>
<path fill="none" stroke="midnightblue" d="M460.83,-61.64C478.95,-49.37 501.27,-34.26 514.94,-25.01"/>
<polygon fill="midnightblue" stroke="midnightblue" points="458.65,-58.89 452.33,-67.4 462.57,-64.69 458.65,-58.89"/>
</g>
<!-- Node6 -->
<g id="node6" class="node">
<title>Node6</title>
<g id="a_node6"><a xlink:href="Zone__Cl__VEF_8cpp.html" target="_top" xlink:title=" ">
<polygon fill="white" stroke="black" points="645,-0.5 645,-30.5 758,-30.5 758,-0.5 645,-0.5"/>
<text text-anchor="start" x="653" y="-18.5" font-family="Helvetica,sans-Serif" font-size="10.00">src/VEF/Zones/Zone</text>
<text text-anchor="middle" x="701.5" y="-7.5" font-family="Helvetica,sans-Serif" font-size="10.00">_Cl_VEF.cpp</text>
</a>
</g>
</g>
<!-- Node1&#45;&gt;Node6 -->
<g id="edge5" class="edge">
<title>Node1&#45;&gt;Node6</title>
<path fill="none" stroke="midnightblue" d="M498.72,-65.32C543.68,-54.49 602.18,-40.41 644.79,-30.15"/>
<polygon fill="midnightblue" stroke="midnightblue" points="497.66,-61.97 488.76,-67.72 499.3,-68.78 497.66,-61.97"/>
</g>
<!-- Node7 -->
<g id="node7" class="node">
<title>Node7</title>
<g id="a_node7"><a xlink:href="Zone__VEF_8cpp.html" target="_top" xlink:title=" ">
<polygon fill="white" stroke="black" points="776,-0.5 776,-30.5 889,-30.5 889,-0.5 776,-0.5"/>
<text text-anchor="start" x="784" y="-18.5" font-family="Helvetica,sans-Serif" font-size="10.00">src/VEF/Zones/Zone</text>
<text text-anchor="middle" x="832.5" y="-7.5" font-family="Helvetica,sans-Serif" font-size="10.00">_VEF.cpp</text>
</a>
</g>
</g>
<!-- Node1&#45;&gt;Node7 -->
<g id="edge6" class="edge">
<title>Node1&#45;&gt;Node7</title>
<path fill="none" stroke="midnightblue" d="M498.93,-72.78C566.94,-63.66 674.84,-48.28 767.5,-31 770.23,-30.49 773.02,-29.95 775.83,-29.39"/>
<polygon fill="midnightblue" stroke="midnightblue" points="498.23,-69.35 488.78,-74.14 499.15,-76.29 498.23,-69.35"/>
</g>
</g>
</svg>
