<?xml version="1.0" encoding="UTF-8" standalone="no"?>
<!DOCTYPE svg PUBLIC "-//W3C//DTD SVG 1.1//EN"
 "http://www.w3.org/Graphics/SVG/1.1/DTD/svg11.dtd">
<!-- Generated by graphviz version 2.43.0 (0)
 -->
<!-- Title: src/EF/Zones/Hexa_EF.h Pages: 1 -->
<svg width="676pt" height="84pt"
 viewBox="0.00 0.00 676.00 84.00" xmlns="http://www.w3.org/2000/svg" xmlns:xlink="http://www.w3.org/1999/xlink">
<g id="graph0" class="graph" transform="scale(1 1) rotate(0) translate(4 80)">
<title>src/EF/Zones/Hexa_EF.h</title>
<polygon fill="white" stroke="transparent" points="-4,4 -4,-80 672,-80 672,4 -4,4"/>
<!-- Node1 -->
<g id="node1" class="node">
<title>Node1</title>
<g id="a_node1"><a xlink:title=" ">
<polygon fill="#bfbfbf" stroke="black" points="288.5,-56.5 288.5,-75.5 420.5,-75.5 420.5,-56.5 288.5,-56.5"/>
<text text-anchor="middle" x="354.5" y="-63.5" font-family="Helvetica,sans-Serif" font-size="10.00">src/EF/Zones/Hexa_EF.h</text>
</a>
</g>
</g>
<!-- Node2 -->
<g id="node2" class="node">
<title>Node2</title>
<g id="a_node2"><a xlink:href="EF__discretisation_8cpp.html" target="_top" xlink:title=" ">
<polygon fill="white" stroke="black" points="0,-0.5 0,-19.5 185,-19.5 185,-0.5 0,-0.5"/>
<text text-anchor="middle" x="92.5" y="-7.5" font-family="Helvetica,sans-Serif" font-size="10.00">src/EF/Zones/EF_discretisation.cpp</text>
</a>
</g>
</g>
<!-- Node1&#45;&gt;Node2 -->
<g id="edge1" class="edge">
<title>Node1&#45;&gt;Node2</title>
<path fill="none" stroke="midnightblue" d="M303.12,-54.41C253.6,-44.2 179.64,-28.96 133.82,-19.52"/>
<polygon fill="midnightblue" stroke="midnightblue" points="302.48,-57.85 312.99,-56.44 303.9,-51 302.48,-57.85"/>
</g>
<!-- Node3 -->
<g id="node3" class="node">
<title>Node3</title>
<g id="a_node3"><a xlink:href="Elem__EF_8cpp.html" target="_top" xlink:title=" ">
<polygon fill="white" stroke="black" points="203,-0.5 203,-19.5 346,-19.5 346,-0.5 203,-0.5"/>
<text text-anchor="middle" x="274.5" y="-7.5" font-family="Helvetica,sans-Serif" font-size="10.00">src/EF/Zones/Elem_EF.cpp</text>
</a>
</g>
</g>
<!-- Node1&#45;&gt;Node3 -->
<g id="edge2" class="edge">
<title>Node1&#45;&gt;Node3</title>
<path fill="none" stroke="midnightblue" d="M333.2,-50.62C318.58,-40.76 299.67,-27.99 287.32,-19.65"/>
<polygon fill="midnightblue" stroke="midnightblue" points="331.4,-53.63 341.65,-56.32 335.32,-47.83 331.4,-53.63"/>
</g>
<!-- Node4 -->
<g id="node4" class="node">
<title>Node4</title>
<g id="a_node4"><a xlink:href="Hexa__EF_8cpp.html" target="_top" xlink:title=" ">
<polygon fill="white" stroke="black" points="364,-0.5 364,-19.5 507,-19.5 507,-0.5 364,-0.5"/>
<text text-anchor="middle" x="435.5" y="-7.5" font-family="Helvetica,sans-Serif" font-size="10.00">src/EF/Zones/Hexa_EF.cpp</text>
</a>
</g>
</g>
<!-- Node1&#45;&gt;Node4 -->
<g id="edge3" class="edge">
<title>Node1&#45;&gt;Node4</title>
<path fill="none" stroke="midnightblue" d="M376.07,-50.62C390.86,-40.76 410.01,-27.99 422.52,-19.65"/>
<polygon fill="midnightblue" stroke="midnightblue" points="373.89,-47.86 367.51,-56.32 377.78,-53.69 373.89,-47.86"/>
</g>
<!-- Node5 -->
<g id="node5" class="node">
<title>Node5</title>
<g id="a_node5"><a xlink:href="Zone__EF_8cpp.html" target="_top" xlink:title=" ">
<polygon fill="white" stroke="black" points="525,-0.5 525,-19.5 668,-19.5 668,-0.5 525,-0.5"/>
<text text-anchor="middle" x="596.5" y="-7.5" font-family="Helvetica,sans-Serif" font-size="10.00">src/EF/Zones/Zone_EF.cpp</text>
</a>
</g>
</g>
<!-- Node1&#45;&gt;Node5 -->
<g id="edge4" class="edge">
<title>Node1&#45;&gt;Node5</title>
<path fill="none" stroke="midnightblue" d="M402.82,-54.22C448.55,-44.01 516.28,-28.9 558.33,-19.52"/>
<polygon fill="midnightblue" stroke="midnightblue" points="401.84,-50.85 392.85,-56.44 403.37,-57.68 401.84,-50.85"/>
</g>
</g>
</svg>
