<?xml version="1.0" encoding="UTF-8" standalone="no"?>
<!DOCTYPE svg PUBLIC "-//W3C//DTD SVG 1.1//EN"
 "http://www.w3.org/Graphics/SVG/1.1/DTD/svg11.dtd">
<!-- Generated by graphviz version 2.43.0 (0)
 -->
<!-- Title: src/Kernel/Geometrie/Hexaedre_VEF.h Pages: 1 -->
<svg width="1314pt" height="117pt"
 viewBox="0.00 0.00 1314.00 117.00" xmlns="http://www.w3.org/2000/svg" xmlns:xlink="http://www.w3.org/1999/xlink">
<g id="graph0" class="graph" transform="scale(1 1) rotate(0) translate(4 113)">
<title>src/Kernel/Geometrie/Hexaedre_VEF.h</title>
<polygon fill="white" stroke="transparent" points="-4,4 -4,-113 1310,-113 1310,4 -4,4"/>
<!-- Node1 -->
<g id="node1" class="node">
<title>Node1</title>
<g id="a_node1"><a xlink:title=" ">
<polygon fill="#bfbfbf" stroke="black" points="588,-78.5 588,-108.5 707,-108.5 707,-78.5 588,-78.5"/>
<text text-anchor="start" x="596" y="-96.5" font-family="Helvetica,sans-Serif" font-size="10.00">src/Kernel/Geometrie</text>
<text text-anchor="middle" x="647.5" y="-85.5" font-family="Helvetica,sans-Serif" font-size="10.00">/Hexaedre_VEF.h</text>
</a>
</g>
</g>
<!-- Node2 -->
<g id="node2" class="node">
<title>Node2</title>
<g id="a_node2"><a xlink:href="Zone__EF_8cpp.html" target="_top" xlink:title=" ">
<polygon fill="white" stroke="black" points="0,-11.5 0,-30.5 143,-30.5 143,-11.5 0,-11.5"/>
<text text-anchor="middle" x="71.5" y="-18.5" font-family="Helvetica,sans-Serif" font-size="10.00">src/EF/Zones/Zone_EF.cpp</text>
</a>
</g>
</g>
<!-- Node1&#45;&gt;Node2 -->
<g id="edge1" class="edge">
<title>Node1&#45;&gt;Node2</title>
<path fill="none" stroke="midnightblue" d="M577.75,-88.56C481.36,-82.41 302.25,-68.38 151.5,-42 134.72,-39.06 116.25,-34.54 101.29,-30.53"/>
<polygon fill="midnightblue" stroke="midnightblue" points="577.75,-92.07 587.95,-89.21 578.19,-85.09 577.75,-92.07"/>
</g>
<!-- Node3 -->
<g id="node3" class="node">
<title>Node3</title>
<g id="a_node3"><a xlink:href="Hexaedre__VEF_8cpp.html" target="_top" xlink:title=" ">
<polygon fill="white" stroke="black" points="161,-6 161,-36 280,-36 280,-6 161,-6"/>
<text text-anchor="start" x="169" y="-24" font-family="Helvetica,sans-Serif" font-size="10.00">src/Kernel/Geometrie</text>
<text text-anchor="middle" x="220.5" y="-13" font-family="Helvetica,sans-Serif" font-size="10.00">/Hexaedre_VEF.cpp</text>
</a>
</g>
</g>
<!-- Node1&#45;&gt;Node3 -->
<g id="edge2" class="edge">
<title>Node1&#45;&gt;Node3</title>
<path fill="none" stroke="midnightblue" d="M577.99,-85.77C505.29,-78.02 388.09,-63.53 288.5,-42 280.8,-40.34 272.7,-38.25 264.89,-36.07"/>
<polygon fill="midnightblue" stroke="midnightblue" points="577.64,-89.25 587.95,-86.82 578.37,-82.29 577.64,-89.25"/>
</g>
<!-- Node4 -->
<g id="node4" class="node">
<title>Node4</title>
<g id="a_node4"><a xlink:href="Redresser__hexaedres__vdf_8cpp.html" target="_top" xlink:title=" ">
<polygon fill="white" stroke="black" points="298,-0.5 298,-41.5 423,-41.5 423,-0.5 298,-0.5"/>
<text text-anchor="start" x="306" y="-29.5" font-family="Helvetica,sans-Serif" font-size="10.00">src/Kernel/Geometrie</text>
<text text-anchor="start" x="306" y="-18.5" font-family="Helvetica,sans-Serif" font-size="10.00">/Redresser_hexaedres</text>
<text text-anchor="middle" x="360.5" y="-7.5" font-family="Helvetica,sans-Serif" font-size="10.00">_vdf.cpp</text>
</a>
</g>
</g>
<!-- Node1&#45;&gt;Node4 -->
<g id="edge3" class="edge">
<title>Node1&#45;&gt;Node4</title>
<path fill="none" stroke="midnightblue" d="M577.79,-77.04C535.38,-67.42 480.18,-54.54 431.5,-42 428.77,-41.3 425.99,-40.57 423.18,-39.82"/>
<polygon fill="midnightblue" stroke="midnightblue" points="577.2,-80.49 587.73,-79.28 578.75,-73.67 577.2,-80.49"/>
</g>
<!-- Node5 -->
<g id="node5" class="node">
<title>Node5</title>
<g id="a_node5"><a xlink:href="Zone__Poly__base_8cpp.html" target="_top" xlink:title=" ">
<polygon fill="white" stroke="black" points="441,-6 441,-36 560,-36 560,-6 441,-6"/>
<text text-anchor="start" x="449" y="-24" font-family="Helvetica,sans-Serif" font-size="10.00">src/Kernel/VF/Zones</text>
<text text-anchor="middle" x="500.5" y="-13" font-family="Helvetica,sans-Serif" font-size="10.00">/Zone_Poly_base.cpp</text>
</a>
</g>
</g>
<!-- Node1&#45;&gt;Node5 -->
<g id="edge4" class="edge">
<title>Node1&#45;&gt;Node5</title>
<path fill="none" stroke="midnightblue" d="M608.99,-74.03C584.23,-62.16 552.56,-46.97 529.84,-36.07"/>
<polygon fill="midnightblue" stroke="midnightblue" points="607.58,-77.23 618.11,-78.4 610.6,-70.92 607.58,-77.23"/>
</g>
<!-- Node6 -->
<g id="node6" class="node">
<title>Node6</title>
<g id="a_node6"><a xlink:href="Zone__PolyMAC__P0_8cpp.html" target="_top" xlink:title=" ">
<polygon fill="white" stroke="black" points="578.5,-6 578.5,-36 716.5,-36 716.5,-6 578.5,-6"/>
<text text-anchor="start" x="586.5" y="-24" font-family="Helvetica,sans-Serif" font-size="10.00">src/PolyMAC/Zones/Zone</text>
<text text-anchor="middle" x="647.5" y="-13" font-family="Helvetica,sans-Serif" font-size="10.00">_PolyMAC_P0.cpp</text>
</a>
</g>
</g>
<!-- Node1&#45;&gt;Node6 -->
<g id="edge5" class="edge">
<title>Node1&#45;&gt;Node6</title>
<path fill="none" stroke="midnightblue" d="M647.5,-68.23C647.5,-57.57 647.5,-45.41 647.5,-36.25"/>
<polygon fill="midnightblue" stroke="midnightblue" points="644,-68.23 647.5,-78.23 651,-68.23 644,-68.23"/>
</g>
<!-- Node7 -->
<g id="node7" class="node">
<title>Node7</title>
<g id="a_node7"><a xlink:href="Op__Conv__AmontNew__VEF__Face_8cpp.html" target="_top" xlink:title=" ">
<polygon fill="white" stroke="black" points="734.5,-0.5 734.5,-41.5 880.5,-41.5 880.5,-0.5 734.5,-0.5"/>
<text text-anchor="start" x="742.5" y="-29.5" font-family="Helvetica,sans-Serif" font-size="10.00">src/VEF/Operateurs</text>
<text text-anchor="start" x="742.5" y="-18.5" font-family="Helvetica,sans-Serif" font-size="10.00">/Op_Conv_AmontNew_VEF</text>
<text text-anchor="middle" x="807.5" y="-7.5" font-family="Helvetica,sans-Serif" font-size="10.00">_Face.cpp</text>
</a>
</g>
</g>
<!-- Node1&#45;&gt;Node7 -->
<g id="edge6" class="edge">
<title>Node1&#45;&gt;Node7</title>
<path fill="none" stroke="midnightblue" d="M688.89,-74.26C711.66,-64.23 739.92,-51.78 763.14,-41.55"/>
<polygon fill="midnightblue" stroke="midnightblue" points="687.23,-71.17 679.49,-78.4 690.06,-77.57 687.23,-71.17"/>
</g>
<!-- Node8 -->
<g id="node8" class="node">
<title>Node8</title>
<g id="a_node8"><a xlink:href="Op__Conv__Amont__old__VEF__Face_8cpp.html" target="_top" xlink:title=" ">
<polygon fill="white" stroke="black" points="899,-0.5 899,-41.5 1044,-41.5 1044,-0.5 899,-0.5"/>
<text text-anchor="start" x="907" y="-29.5" font-family="Helvetica,sans-Serif" font-size="10.00">src/VEF/Operateurs</text>
<text text-anchor="start" x="907" y="-18.5" font-family="Helvetica,sans-Serif" font-size="10.00">/Op_Conv_Amont_old_VEF</text>
<text text-anchor="middle" x="971.5" y="-7.5" font-family="Helvetica,sans-Serif" font-size="10.00">_Face.cpp</text>
</a>
</g>
</g>
<!-- Node1&#45;&gt;Node8 -->
<g id="edge7" class="edge">
<title>Node1&#45;&gt;Node8</title>
<path fill="none" stroke="midnightblue" d="M717.35,-78.57C765.76,-68.76 831.66,-55.08 889.5,-42 892.5,-41.32 895.56,-40.62 898.65,-39.9"/>
<polygon fill="midnightblue" stroke="midnightblue" points="716.4,-75.19 707.29,-80.6 717.79,-82.05 716.4,-75.19"/>
</g>
<!-- Node9 -->
<g id="node9" class="node">
<title>Node9</title>
<g id="a_node9"><a xlink:href="Zone__Cl__VEF_8cpp.html" target="_top" xlink:title=" ">
<polygon fill="white" stroke="black" points="1062,-6 1062,-36 1175,-36 1175,-6 1062,-6"/>
<text text-anchor="start" x="1070" y="-24" font-family="Helvetica,sans-Serif" font-size="10.00">src/VEF/Zones/Zone</text>
<text text-anchor="middle" x="1118.5" y="-13" font-family="Helvetica,sans-Serif" font-size="10.00">_Cl_VEF.cpp</text>
</a>
</g>
</g>
<!-- Node1&#45;&gt;Node9 -->
<g id="edge8" class="edge">
<title>Node1&#45;&gt;Node9</title>
<path fill="none" stroke="midnightblue" d="M717.34,-87.54C798.73,-80.91 936.94,-66.98 1053.5,-42 1061,-40.39 1068.89,-38.31 1076.47,-36.1"/>
<polygon fill="midnightblue" stroke="midnightblue" points="716.9,-84.07 707.21,-88.36 717.46,-91.05 716.9,-84.07"/>
</g>
<!-- Node10 -->
<g id="node10" class="node">
<title>Node10</title>
<g id="a_node10"><a xlink:href="Zone__VEF_8cpp.html" target="_top" xlink:title=" ">
<polygon fill="white" stroke="black" points="1193,-6 1193,-36 1306,-36 1306,-6 1193,-6"/>
<text text-anchor="start" x="1201" y="-24" font-family="Helvetica,sans-Serif" font-size="10.00">src/VEF/Zones/Zone</text>
<text text-anchor="middle" x="1249.5" y="-13" font-family="Helvetica,sans-Serif" font-size="10.00">_VEF.cpp</text>
</a>
</g>
</g>
<!-- Node1&#45;&gt;Node10 -->
<g id="edge9" class="edge">
<title>Node1&#45;&gt;Node10</title>
<path fill="none" stroke="midnightblue" d="M717.56,-90.48C820.71,-86.48 1019.12,-74.86 1184.5,-42 1192.26,-40.46 1200.41,-38.35 1208.21,-36.09"/>
<polygon fill="midnightblue" stroke="midnightblue" points="717.14,-86.99 707.27,-90.87 717.4,-93.99 717.14,-86.99"/>
</g>
</g>
</svg>
