<?xml version="1.0" encoding="UTF-8" standalone="no"?>
<!DOCTYPE svg PUBLIC "-//W3C//DTD SVG 1.1//EN"
 "http://www.w3.org/Graphics/SVG/1.1/DTD/svg11.dtd">
<!-- Generated by graphviz version 2.43.0 (0)
 -->
<!-- Title: Graphical Class Hierarchy Pages: 1 -->
<svg width="479pt" height="66pt"
 viewBox="0.00 0.00 479.00 66.00" xmlns="http://www.w3.org/2000/svg" xmlns:xlink="http://www.w3.org/1999/xlink">
<g id="graph0" class="graph" transform="scale(1 1) rotate(0) translate(4 62)">
<title>Graphical Class Hierarchy</title>
<polygon fill="white" stroke="transparent" points="-4,4 -4,-62 475,-62 475,4 -4,4"/>
<!-- Node0 -->
<g id="node1" class="node">
<title>Node0</title>
<g id="a_node1"><a xlink:href="classEvaluateur__Source__EF.html" target="_top" xlink:title=" ">
<polygon fill="white" stroke="black" points="0,-19.5 0,-38.5 125,-38.5 125,-19.5 0,-19.5"/>
<text text-anchor="middle" x="62.5" y="-26.5" font-family="Helvetica,sans-Serif" font-size="10.00">Evaluateur_Source_EF</text>
</a>
</g>
</g>
<!-- Node1 -->
<g id="node2" class="node">
<title>Node1</title>
<g id="a_node2"><a xlink:href="classEvaluateur__Source__EF__Som.html" target="_top" xlink:title=" ">
<polygon fill="white" stroke="black" points="161,-19.5 161,-38.5 313,-38.5 313,-19.5 161,-19.5"/>
<text text-anchor="middle" x="237" y="-26.5" font-family="Helvetica,sans-Serif" font-size="10.00">Evaluateur_Source_EF_Som</text>
</a>
</g>
</g>
<!-- Node0&#45;&gt;Node1 -->
<g id="edge1" class="edge">
<title>Node0&#45;&gt;Node1</title>
<path fill="none" stroke="midnightblue" d="M135.4,-29C143.79,-29 152.36,-29 160.78,-29"/>
<polygon fill="midnightblue" stroke="midnightblue" points="135.29,-25.5 125.29,-29 135.29,-32.5 135.29,-25.5"/>
</g>
<!-- Node2 -->
<g id="node3" class="node">
<title>Node2</title>
<g id="a_node3"><a xlink:href="classEval__Puiss__Th__EF.html" target="_top" xlink:title=" ">
<polygon fill="white" stroke="black" points="358.5,-38.5 358.5,-57.5 461.5,-57.5 461.5,-38.5 358.5,-38.5"/>
<text text-anchor="middle" x="410" y="-45.5" font-family="Helvetica,sans-Serif" font-size="10.00">Eval_Puiss_Th_EF</text>
</a>
</g>
</g>
<!-- Node1&#45;&gt;Node2 -->
<g id="edge2" class="edge">
<title>Node1&#45;&gt;Node2</title>
<path fill="none" stroke="midnightblue" d="M323.06,-38.45C335.06,-39.78 347.07,-41.12 358.14,-42.35"/>
<polygon fill="midnightblue" stroke="midnightblue" points="323.33,-34.96 313,-37.33 322.56,-41.92 323.33,-34.96"/>
</g>
<!-- Node3 -->
<g id="node4" class="node">
<title>Node3</title>
<g id="a_node4"><a xlink:href="classEval__Puiss__Th__QC__EF.html" target="_top" xlink:title=" ">
<polygon fill="white" stroke="black" points="349,-0.5 349,-19.5 471,-19.5 471,-0.5 349,-0.5"/>
<text text-anchor="middle" x="410" y="-7.5" font-family="Helvetica,sans-Serif" font-size="10.00">Eval_Puiss_Th_QC_EF</text>
</a>
</g>
</g>
<!-- Node1&#45;&gt;Node3 -->
<g id="edge3" class="edge">
<title>Node1&#45;&gt;Node3</title>
<path fill="none" stroke="midnightblue" d="M323.19,-19.53C331.9,-18.57 340.6,-17.6 348.95,-16.67"/>
<polygon fill="midnightblue" stroke="midnightblue" points="322.56,-16.08 313,-20.67 323.33,-23.04 322.56,-16.08"/>
</g>
</g>
</svg>
