<?xml version="1.0" encoding="UTF-8" standalone="no"?>
<!DOCTYPE svg PUBLIC "-//W3C//DTD SVG 1.1//EN"
 "http://www.w3.org/Graphics/SVG/1.1/DTD/svg11.dtd">
<!-- Generated by graphviz version 2.43.0 (0)
 -->
<!-- Title: src/Kernel/Geometrie/Interpolation_IBM/Interpolation_IBM.h Pages: 1 -->
<svg width="644pt" height="273pt"
 viewBox="0.00 0.00 644.00 273.00" xmlns="http://www.w3.org/2000/svg" xmlns:xlink="http://www.w3.org/1999/xlink">
<g id="graph0" class="graph" transform="scale(1 1) rotate(0) translate(4 269)">
<title>src/Kernel/Geometrie/Interpolation_IBM/Interpolation_IBM.h</title>
<polygon fill="white" stroke="transparent" points="-4,4 -4,-269 640,-269 640,4 -4,4"/>
<!-- Node1 -->
<g id="node1" class="node">
<title>Node1</title>
<g id="a_node1"><a xlink:title=" ">
<polygon fill="#bfbfbf" stroke="black" points="119.5,-223.5 119.5,-264.5 295.5,-264.5 295.5,-223.5 119.5,-223.5"/>
<text text-anchor="start" x="127.5" y="-252.5" font-family="Helvetica,sans-Serif" font-size="10.00">src/Kernel/Geometrie</text>
<text text-anchor="start" x="127.5" y="-241.5" font-family="Helvetica,sans-Serif" font-size="10.00">/Interpolation_IBM/Interpolation_</text>
<text text-anchor="middle" x="207.5" y="-230.5" font-family="Helvetica,sans-Serif" font-size="10.00">IBM.h</text>
</a>
</g>
</g>
<!-- Node2 -->
<g id="node2" class="node">
<title>Node2</title>
<g id="a_node2"><a xlink:href="Interpolation__IBM_8cpp.html" target="_top" xlink:title=" ">
<polygon fill="white" stroke="black" points="31,-145.5 31,-186.5 202,-186.5 202,-145.5 31,-145.5"/>
<text text-anchor="start" x="39" y="-174.5" font-family="Helvetica,sans-Serif" font-size="10.00">src/Kernel/Geometrie</text>
<text text-anchor="start" x="39" y="-163.5" font-family="Helvetica,sans-Serif" font-size="10.00">/Interpolation_IBM/Interpolation</text>
<text text-anchor="middle" x="116.5" y="-152.5" font-family="Helvetica,sans-Serif" font-size="10.00">_IBM.cpp</text>
</a>
</g>
</g>
<!-- Node1&#45;&gt;Node2 -->
<g id="edge1" class="edge">
<title>Node1&#45;&gt;Node2</title>
<path fill="none" stroke="midnightblue" d="M176.1,-216.78C164.21,-206.84 150.88,-195.72 139.86,-186.51"/>
<polygon fill="midnightblue" stroke="midnightblue" points="174.15,-219.7 184.07,-223.43 178.63,-214.33 174.15,-219.7"/>
</g>
<!-- Node3 -->
<g id="node3" class="node">
<title>Node3</title>
<g id="a_node3"><a xlink:href="Source__PDF__base_8h.html" target="_top" xlink:title=" ">
<polygon fill="white" stroke="black" points="220.5,-151 220.5,-181 376.5,-181 376.5,-151 220.5,-151"/>
<text text-anchor="start" x="228.5" y="-169" font-family="Helvetica,sans-Serif" font-size="10.00">src/ThHyd/Incompressible</text>
<text text-anchor="middle" x="298.5" y="-158" font-family="Helvetica,sans-Serif" font-size="10.00">/Sources/Source_PDF_base.h</text>
</a>
</g>
</g>
<!-- Node1&#45;&gt;Node3 -->
<g id="edge2" class="edge">
<title>Node1&#45;&gt;Node3</title>
<path fill="none" stroke="midnightblue" d="M238.64,-216.99C252.98,-205.02 269.44,-191.27 281.47,-181.23"/>
<polygon fill="midnightblue" stroke="midnightblue" points="236.37,-214.33 230.93,-223.43 240.85,-219.7 236.37,-214.33"/>
</g>
<!-- Node4 -->
<g id="node4" class="node">
<title>Node4</title>
<g id="a_node4"><a xlink:href="Source__PDF__EF_8h.html" target="_top" xlink:title=" ">
<polygon fill="white" stroke="black" points="0,-73 0,-103 123,-103 123,-73 0,-73"/>
<text text-anchor="start" x="8" y="-91" font-family="Helvetica,sans-Serif" font-size="10.00">src/EF/Sources/Source</text>
<text text-anchor="middle" x="61.5" y="-80" font-family="Helvetica,sans-Serif" font-size="10.00">_PDF_EF.h</text>
</a>
</g>
</g>
<!-- Node3&#45;&gt;Node4 -->
<g id="edge3" class="edge">
<title>Node3&#45;&gt;Node4</title>
<path fill="none" stroke="midnightblue" d="M245.21,-147.91C203.05,-134.39 144.9,-115.74 105.39,-103.07"/>
<polygon fill="midnightblue" stroke="midnightblue" points="244.16,-151.25 254.75,-150.97 246.3,-144.59 244.16,-151.25"/>
</g>
<!-- Node6 -->
<g id="node6" class="node">
<title>Node6</title>
<g id="a_node6"><a xlink:href="Navier__Stokes__std_8cpp.html" target="_top" xlink:title=" ">
<polygon fill="white" stroke="black" points="141,-67.5 141,-108.5 284,-108.5 284,-67.5 141,-67.5"/>
<text text-anchor="start" x="149" y="-96.5" font-family="Helvetica,sans-Serif" font-size="10.00">src/ThHyd/Incompressible</text>
<text text-anchor="start" x="149" y="-85.5" font-family="Helvetica,sans-Serif" font-size="10.00">/Equations/Navier_Stokes</text>
<text text-anchor="middle" x="212.5" y="-74.5" font-family="Helvetica,sans-Serif" font-size="10.00">_std.cpp</text>
</a>
</g>
</g>
<!-- Node3&#45;&gt;Node6 -->
<g id="edge5" class="edge">
<title>Node3&#45;&gt;Node6</title>
<path fill="none" stroke="midnightblue" d="M274.58,-143.86C262.12,-132.85 246.98,-119.47 234.77,-108.68"/>
<polygon fill="midnightblue" stroke="midnightblue" points="272.51,-146.71 282.32,-150.7 277.15,-141.46 272.51,-146.71"/>
</g>
<!-- Node7 -->
<g id="node7" class="node">
<title>Node7</title>
<g id="a_node7"><a xlink:href="Source__PDF__base_8cpp.html" target="_top" xlink:title=" ">
<polygon fill="white" stroke="black" points="302,-73 302,-103 469,-103 469,-73 302,-73"/>
<text text-anchor="start" x="310" y="-91" font-family="Helvetica,sans-Serif" font-size="10.00">src/ThHyd/Incompressible</text>
<text text-anchor="middle" x="385.5" y="-80" font-family="Helvetica,sans-Serif" font-size="10.00">/Sources/Source_PDF_base.cpp</text>
</a>
</g>
</g>
<!-- Node3&#45;&gt;Node7 -->
<g id="edge6" class="edge">
<title>Node3&#45;&gt;Node7</title>
<path fill="none" stroke="midnightblue" d="M322.66,-143.89C337.5,-130.93 356.11,-114.68 369.21,-103.23"/>
<polygon fill="midnightblue" stroke="midnightblue" points="320.09,-141.49 314.86,-150.7 324.7,-146.76 320.09,-141.49"/>
</g>
<!-- Node8 -->
<g id="node8" class="node">
<title>Node8</title>
<g id="a_node8"><a xlink:href="Piso_8cpp.html" target="_top" xlink:title=" ">
<polygon fill="white" stroke="black" points="487,-73 487,-103 636,-103 636,-73 487,-73"/>
<text text-anchor="start" x="495" y="-91" font-family="Helvetica,sans-Serif" font-size="10.00">src/ThHyd/Schemas_Temps</text>
<text text-anchor="middle" x="561.5" y="-80" font-family="Helvetica,sans-Serif" font-size="10.00">/Piso.cpp</text>
</a>
</g>
</g>
<!-- Node3&#45;&gt;Node8 -->
<g id="edge7" class="edge">
<title>Node3&#45;&gt;Node8</title>
<path fill="none" stroke="midnightblue" d="M356.75,-148.17C403.61,-134.63 468.68,-115.82 512.79,-103.07"/>
<polygon fill="midnightblue" stroke="midnightblue" points="355.68,-144.83 347.04,-150.97 357.62,-151.56 355.68,-144.83"/>
</g>
<!-- Node5 -->
<g id="node5" class="node">
<title>Node5</title>
<g id="a_node5"><a xlink:href="Source__PDF__EF_8cpp.html" target="_top" xlink:title=" ">
<polygon fill="white" stroke="black" points="0,-0.5 0,-30.5 123,-30.5 123,-0.5 0,-0.5"/>
<text text-anchor="start" x="8" y="-18.5" font-family="Helvetica,sans-Serif" font-size="10.00">src/EF/Sources/Source</text>
<text text-anchor="middle" x="61.5" y="-7.5" font-family="Helvetica,sans-Serif" font-size="10.00">_PDF_EF.cpp</text>
</a>
</g>
</g>
<!-- Node4&#45;&gt;Node5 -->
<g id="edge4" class="edge">
<title>Node4&#45;&gt;Node5</title>
<path fill="none" stroke="midnightblue" d="M61.5,-62.73C61.5,-52.07 61.5,-39.91 61.5,-30.75"/>
<polygon fill="midnightblue" stroke="midnightblue" points="58,-62.73 61.5,-72.73 65,-62.73 58,-62.73"/>
</g>
</g>
</svg>
