<?xml version="1.0" encoding="UTF-8" standalone="no"?>
<!DOCTYPE svg PUBLIC "-//W3C//DTD SVG 1.1//EN"
 "http://www.w3.org/Graphics/SVG/1.1/DTD/svg11.dtd">
<!-- Generated by graphviz version 2.43.0 (0)
 -->
<!-- Title: src/Kernel/Statistiques_temps/Integrale_tps_produit_champs.h Pages: 1 -->
<svg width="410pt" height="262pt"
 viewBox="0.00 0.00 410.00 262.00" xmlns="http://www.w3.org/2000/svg" xmlns:xlink="http://www.w3.org/1999/xlink">
<g id="graph0" class="graph" transform="scale(1 1) rotate(0) translate(4 258)">
<title>src/Kernel/Statistiques_temps/Integrale_tps_produit_champs.h</title>
<polygon fill="white" stroke="transparent" points="-4,4 -4,-258 406,-258 406,4 -4,4"/>
<!-- Node1 -->
<g id="node1" class="node">
<title>Node1</title>
<g id="a_node1"><a xlink:title=" ">
<polygon fill="#bfbfbf" stroke="black" points="83,-212.5 83,-253.5 242,-253.5 242,-212.5 83,-212.5"/>
<text text-anchor="start" x="91" y="-241.5" font-family="Helvetica,sans-Serif" font-size="10.00">src/Kernel/Statistiques</text>
<text text-anchor="start" x="91" y="-230.5" font-family="Helvetica,sans-Serif" font-size="10.00">_temps/Integrale_tps_produit</text>
<text text-anchor="middle" x="162.5" y="-219.5" font-family="Helvetica,sans-Serif" font-size="10.00">_champs.h</text>
</a>
</g>
</g>
<!-- Node2 -->
<g id="node2" class="node">
<title>Node2</title>
<g id="a_node2"><a xlink:href="Integrale__tps__produit__champs_8cpp.html" target="_top" xlink:title=" ">
<polygon fill="white" stroke="black" points="0,-134.5 0,-175.5 159,-175.5 159,-134.5 0,-134.5"/>
<text text-anchor="start" x="8" y="-163.5" font-family="Helvetica,sans-Serif" font-size="10.00">src/Kernel/Statistiques</text>
<text text-anchor="start" x="8" y="-152.5" font-family="Helvetica,sans-Serif" font-size="10.00">_temps/Integrale_tps_produit</text>
<text text-anchor="middle" x="79.5" y="-141.5" font-family="Helvetica,sans-Serif" font-size="10.00">_champs.cpp</text>
</a>
</g>
</g>
<!-- Node1&#45;&gt;Node2 -->
<g id="edge1" class="edge">
<title>Node1&#45;&gt;Node2</title>
<path fill="none" stroke="midnightblue" d="M133.55,-205.49C122.78,-195.63 110.76,-184.63 100.8,-175.51"/>
<polygon fill="midnightblue" stroke="midnightblue" points="131.39,-208.26 141.13,-212.43 136.11,-203.09 131.39,-208.26"/>
</g>
<!-- Node3 -->
<g id="node3" class="node">
<title>Node3</title>
<g id="a_node3"><a xlink:href="Op__Correlation_8h.html" target="_top" xlink:title=" ">
<polygon fill="white" stroke="black" points="177,-140 177,-170 314,-170 314,-140 177,-140"/>
<text text-anchor="start" x="185" y="-158" font-family="Helvetica,sans-Serif" font-size="10.00">src/Kernel/Statistiques</text>
<text text-anchor="middle" x="245.5" y="-147" font-family="Helvetica,sans-Serif" font-size="10.00">_temps/Op_Correlation.h</text>
</a>
</g>
</g>
<!-- Node1&#45;&gt;Node3 -->
<g id="edge2" class="edge">
<title>Node1&#45;&gt;Node3</title>
<path fill="none" stroke="midnightblue" d="M191.27,-205.66C204.26,-193.76 219.1,-180.18 229.96,-170.23"/>
<polygon fill="midnightblue" stroke="midnightblue" points="188.89,-203.09 183.87,-212.43 193.61,-208.26 188.89,-203.09"/>
</g>
<!-- Node4 -->
<g id="node4" class="node">
<title>Node4</title>
<g id="a_node4"><a xlink:href="Champ__Generique__Correlation_8h.html" target="_top" xlink:title=" ">
<polygon fill="white" stroke="black" points="90,-67.5 90,-97.5 235,-97.5 235,-67.5 90,-67.5"/>
<text text-anchor="start" x="98" y="-85.5" font-family="Helvetica,sans-Serif" font-size="10.00">src/Kernel/Champs/Champ</text>
<text text-anchor="middle" x="162.5" y="-74.5" font-family="Helvetica,sans-Serif" font-size="10.00">_Generique_Correlation.h</text>
</a>
</g>
</g>
<!-- Node3&#45;&gt;Node4 -->
<g id="edge3" class="edge">
<title>Node3&#45;&gt;Node4</title>
<path fill="none" stroke="midnightblue" d="M220.73,-132.96C207.24,-121.5 190.92,-107.64 178.99,-97.5"/>
<polygon fill="midnightblue" stroke="midnightblue" points="218.82,-135.93 228.7,-139.73 223.35,-130.59 218.82,-135.93"/>
</g>
<!-- Node7 -->
<g id="node7" class="node">
<title>Node7</title>
<g id="a_node7"><a xlink:href="Op__Correlation_8cpp.html" target="_top" xlink:title=" ">
<polygon fill="white" stroke="black" points="253,-67.5 253,-97.5 402,-97.5 402,-67.5 253,-67.5"/>
<text text-anchor="start" x="261" y="-85.5" font-family="Helvetica,sans-Serif" font-size="10.00">src/Kernel/Statistiques</text>
<text text-anchor="middle" x="327.5" y="-74.5" font-family="Helvetica,sans-Serif" font-size="10.00">_temps/Op_Correlation.cpp</text>
</a>
</g>
</g>
<!-- Node3&#45;&gt;Node7 -->
<g id="edge6" class="edge">
<title>Node3&#45;&gt;Node7</title>
<path fill="none" stroke="midnightblue" d="M269.97,-132.96C283.3,-121.5 299.43,-107.64 311.21,-97.5"/>
<polygon fill="midnightblue" stroke="midnightblue" points="267.39,-130.56 262.09,-139.73 271.96,-135.87 267.39,-130.56"/>
</g>
<!-- Node5 -->
<g id="node5" class="node">
<title>Node5</title>
<g id="a_node5"><a xlink:href="Champ__Generique__Correlation_8cpp.html" target="_top" xlink:title=" ">
<polygon fill="white" stroke="black" points="9.5,-0.5 9.5,-30.5 161.5,-30.5 161.5,-0.5 9.5,-0.5"/>
<text text-anchor="start" x="17.5" y="-18.5" font-family="Helvetica,sans-Serif" font-size="10.00">src/Kernel/Champs/Champ</text>
<text text-anchor="middle" x="85.5" y="-7.5" font-family="Helvetica,sans-Serif" font-size="10.00">_Generique_Correlation.cpp</text>
</a>
</g>
</g>
<!-- Node4&#45;&gt;Node5 -->
<g id="edge4" class="edge">
<title>Node4&#45;&gt;Node5</title>
<path fill="none" stroke="midnightblue" d="M138.08,-60.88C126.38,-51.01 112.66,-39.43 102.18,-30.58"/>
<polygon fill="midnightblue" stroke="midnightblue" points="135.89,-63.62 145.79,-67.4 140.41,-58.27 135.89,-63.62"/>
</g>
<!-- Node6 -->
<g id="node6" class="node">
<title>Node6</title>
<g id="a_node6"><a xlink:href="Postraitement_8cpp.html" target="_top" xlink:title=" ">
<polygon fill="white" stroke="black" points="179.5,-0.5 179.5,-30.5 301.5,-30.5 301.5,-0.5 179.5,-0.5"/>
<text text-anchor="start" x="187.5" y="-18.5" font-family="Helvetica,sans-Serif" font-size="10.00">src/Kernel/Framework</text>
<text text-anchor="middle" x="240.5" y="-7.5" font-family="Helvetica,sans-Serif" font-size="10.00">/Postraitement.cpp</text>
</a>
</g>
</g>
<!-- Node4&#45;&gt;Node6 -->
<g id="edge5" class="edge">
<title>Node4&#45;&gt;Node6</title>
<path fill="none" stroke="midnightblue" d="M187.24,-60.88C199.09,-51.01 212.98,-39.43 223.61,-30.58"/>
<polygon fill="midnightblue" stroke="midnightblue" points="184.87,-58.31 179.42,-67.4 189.35,-63.68 184.87,-58.31"/>
</g>
</g>
</svg>
