<?xml version="1.0" encoding="UTF-8" standalone="no"?>
<!DOCTYPE svg PUBLIC "-//W3C//DTD SVG 1.1//EN"
 "http://www.w3.org/Graphics/SVG/1.1/DTD/svg11.dtd">
<!-- Generated by graphviz version 2.43.0 (0)
 -->
<!-- Title: src/Kernel/Geometrie/Interpolation_IBM/Interpolation_IBM_elem_fluid.h Pages: 1 -->
<svg width="621pt" height="206pt"
 viewBox="0.00 0.00 621.00 206.00" xmlns="http://www.w3.org/2000/svg" xmlns:xlink="http://www.w3.org/1999/xlink">
<g id="graph0" class="graph" transform="scale(1 1) rotate(0) translate(4 202)">
<title>src/Kernel/Geometrie/Interpolation_IBM/Interpolation_IBM_elem_fluid.h</title>
<polygon fill="white" stroke="transparent" points="-4,4 -4,-202 617,-202 617,4 -4,4"/>
<!-- Node1 -->
<g id="node1" class="node">
<title>Node1</title>
<g id="a_node1"><a xlink:title=" ">
<polygon fill="#bfbfbf" stroke="black" points="246,-156.5 246,-197.5 417,-197.5 417,-156.5 246,-156.5"/>
<text text-anchor="start" x="254" y="-185.5" font-family="Helvetica,sans-Serif" font-size="10.00">src/Kernel/Geometrie</text>
<text text-anchor="start" x="254" y="-174.5" font-family="Helvetica,sans-Serif" font-size="10.00">/Interpolation_IBM/Interpolation</text>
<text text-anchor="middle" x="331.5" y="-163.5" font-family="Helvetica,sans-Serif" font-size="10.00">_IBM_elem_fluid.h</text>
</a>
</g>
</g>
<!-- Node2 -->
<g id="node2" class="node">
<title>Node2</title>
<g id="a_node2"><a xlink:href="Source__PDF__EF_8cpp.html" target="_top" xlink:title=" ">
<polygon fill="white" stroke="black" points="301,-6 301,-36 424,-36 424,-6 301,-6"/>
<text text-anchor="start" x="309" y="-24" font-family="Helvetica,sans-Serif" font-size="10.00">src/EF/Sources/Source</text>
<text text-anchor="middle" x="362.5" y="-13" font-family="Helvetica,sans-Serif" font-size="10.00">_PDF_EF.cpp</text>
</a>
</g>
</g>
<!-- Node1&#45;&gt;Node2 -->
<g id="edge1" class="edge">
<title>Node1&#45;&gt;Node2</title>
<path fill="none" stroke="midnightblue" d="M355.09,-148.22C360.96,-139.7 366.45,-129.94 369.5,-120 378.32,-91.3 371.7,-55.74 366.71,-36.32"/>
<polygon fill="midnightblue" stroke="midnightblue" points="352.27,-146.15 349.17,-156.28 357.91,-150.29 352.27,-146.15"/>
</g>
<!-- Node3 -->
<g id="node3" class="node">
<title>Node3</title>
<g id="a_node3"><a xlink:href="Interpolation__IBM__elem__fluid_8cpp.html" target="_top" xlink:title=" ">
<polygon fill="white" stroke="black" points="189,-78.5 189,-119.5 360,-119.5 360,-78.5 189,-78.5"/>
<text text-anchor="start" x="197" y="-107.5" font-family="Helvetica,sans-Serif" font-size="10.00">src/Kernel/Geometrie</text>
<text text-anchor="start" x="197" y="-96.5" font-family="Helvetica,sans-Serif" font-size="10.00">/Interpolation_IBM/Interpolation</text>
<text text-anchor="middle" x="274.5" y="-85.5" font-family="Helvetica,sans-Serif" font-size="10.00">_IBM_elem_fluid.cpp</text>
</a>
</g>
</g>
<!-- Node1&#45;&gt;Node3 -->
<g id="edge2" class="edge">
<title>Node1&#45;&gt;Node3</title>
<path fill="none" stroke="midnightblue" d="M310.75,-148.34C303.58,-138.78 295.7,-128.27 289.13,-119.51"/>
<polygon fill="midnightblue" stroke="midnightblue" points="308.02,-150.53 316.82,-156.43 313.62,-146.33 308.02,-150.53"/>
</g>
<!-- Node4 -->
<g id="node4" class="node">
<title>Node4</title>
<g id="a_node4"><a xlink:href="Interpolation__IBM__hybrid_8h.html" target="_top" xlink:title=" ">
<polygon fill="white" stroke="black" points="0,-78.5 0,-119.5 171,-119.5 171,-78.5 0,-78.5"/>
<text text-anchor="start" x="8" y="-107.5" font-family="Helvetica,sans-Serif" font-size="10.00">src/Kernel/Geometrie</text>
<text text-anchor="start" x="8" y="-96.5" font-family="Helvetica,sans-Serif" font-size="10.00">/Interpolation_IBM/Interpolation</text>
<text text-anchor="middle" x="85.5" y="-85.5" font-family="Helvetica,sans-Serif" font-size="10.00">_IBM_hybrid.h</text>
</a>
</g>
</g>
<!-- Node1&#45;&gt;Node4 -->
<g id="edge3" class="edge">
<title>Node1&#45;&gt;Node4</title>
<path fill="none" stroke="midnightblue" d="M258.48,-153.44C223.57,-142.66 182.18,-129.87 148.64,-119.51"/>
<polygon fill="midnightblue" stroke="midnightblue" points="257.56,-156.82 268.15,-156.43 259.63,-150.13 257.56,-156.82"/>
</g>
<!-- Node6 -->
<g id="node6" class="node">
<title>Node6</title>
<g id="a_node6"><a xlink:href="Interpolation__IBM__power__law__tbl_8h.html" target="_top" xlink:title=" ">
<polygon fill="white" stroke="black" points="417,-78.5 417,-119.5 588,-119.5 588,-78.5 417,-78.5"/>
<text text-anchor="start" x="425" y="-107.5" font-family="Helvetica,sans-Serif" font-size="10.00">src/Kernel/Geometrie</text>
<text text-anchor="start" x="425" y="-96.5" font-family="Helvetica,sans-Serif" font-size="10.00">/Interpolation_IBM/Interpolation</text>
<text text-anchor="middle" x="502.5" y="-85.5" font-family="Helvetica,sans-Serif" font-size="10.00">_IBM_power_law_tbl.h</text>
</a>
</g>
</g>
<!-- Node1&#45;&gt;Node6 -->
<g id="edge6" class="edge">
<title>Node1&#45;&gt;Node6</title>
<path fill="none" stroke="midnightblue" d="M384.76,-152.33C408.49,-141.78 436.1,-129.51 458.61,-119.51"/>
<polygon fill="midnightblue" stroke="midnightblue" points="383.25,-149.17 375.54,-156.43 386.1,-155.57 383.25,-149.17"/>
</g>
<!-- Node4&#45;&gt;Node2 -->
<g id="edge4" class="edge">
<title>Node4&#45;&gt;Node2</title>
<path fill="none" stroke="midnightblue" d="M166.63,-75.74C213.31,-62.93 270.57,-47.22 311.09,-36.11"/>
<polygon fill="midnightblue" stroke="midnightblue" points="165.55,-72.41 156.83,-78.43 167.4,-79.16 165.55,-72.41"/>
</g>
<!-- Node5 -->
<g id="node5" class="node">
<title>Node5</title>
<g id="a_node5"><a xlink:href="Interpolation__IBM__hybrid_8cpp.html" target="_top" xlink:title=" ">
<polygon fill="white" stroke="black" points="0,-0.5 0,-41.5 171,-41.5 171,-0.5 0,-0.5"/>
<text text-anchor="start" x="8" y="-29.5" font-family="Helvetica,sans-Serif" font-size="10.00">src/Kernel/Geometrie</text>
<text text-anchor="start" x="8" y="-18.5" font-family="Helvetica,sans-Serif" font-size="10.00">/Interpolation_IBM/Interpolation</text>
<text text-anchor="middle" x="85.5" y="-7.5" font-family="Helvetica,sans-Serif" font-size="10.00">_IBM_hybrid.cpp</text>
</a>
</g>
</g>
<!-- Node4&#45;&gt;Node5 -->
<g id="edge5" class="edge">
<title>Node4&#45;&gt;Node5</title>
<path fill="none" stroke="midnightblue" d="M85.5,-68.3C85.5,-59.3 85.5,-49.65 85.5,-41.51"/>
<polygon fill="midnightblue" stroke="midnightblue" points="82,-68.43 85.5,-78.43 89,-68.43 82,-68.43"/>
</g>
<!-- Node6&#45;&gt;Node2 -->
<g id="edge7" class="edge">
<title>Node6&#45;&gt;Node2</title>
<path fill="none" stroke="midnightblue" d="M457.63,-73.64C434.89,-61.3 408.06,-46.73 388.7,-36.23"/>
<polygon fill="midnightblue" stroke="midnightblue" points="455.99,-76.73 466.45,-78.43 459.33,-70.58 455.99,-76.73"/>
</g>
<!-- Node7 -->
<g id="node7" class="node">
<title>Node7</title>
<g id="a_node7"><a xlink:href="Interpolation__IBM__power__law__tbl_8cpp.html" target="_top" xlink:title=" ">
<polygon fill="white" stroke="black" points="442,-0.5 442,-41.5 613,-41.5 613,-0.5 442,-0.5"/>
<text text-anchor="start" x="450" y="-29.5" font-family="Helvetica,sans-Serif" font-size="10.00">src/Kernel/Geometrie</text>
<text text-anchor="start" x="450" y="-18.5" font-family="Helvetica,sans-Serif" font-size="10.00">/Interpolation_IBM/Interpolation</text>
<text text-anchor="middle" x="527.5" y="-7.5" font-family="Helvetica,sans-Serif" font-size="10.00">_IBM_power_law_tbl.cpp</text>
</a>
</g>
</g>
<!-- Node6&#45;&gt;Node7 -->
<g id="edge8" class="edge">
<title>Node6&#45;&gt;Node7</title>
<path fill="none" stroke="midnightblue" d="M512.08,-68.88C515.09,-59.72 518.35,-49.83 521.08,-41.51"/>
<polygon fill="midnightblue" stroke="midnightblue" points="508.74,-67.84 508.94,-78.43 515.39,-70.02 508.74,-67.84"/>
</g>
</g>
</svg>
