<?xml version="1.0" encoding="UTF-8" standalone="no"?>
<!DOCTYPE svg PUBLIC "-//W3C//DTD SVG 1.1//EN"
 "http://www.w3.org/Graphics/SVG/1.1/DTD/svg11.dtd">
<!-- Generated by graphviz version 2.43.0 (0)
 -->
<!-- Title: src/Kernel/Math/IntListsListe.cpp Pages: 1 -->
<svg width="916pt" height="543pt"
 viewBox="0.00 0.00 916.00 543.00" xmlns="http://www.w3.org/2000/svg" xmlns:xlink="http://www.w3.org/1999/xlink">
<g id="graph0" class="graph" transform="scale(1 1) rotate(0) translate(4 539)">
<title>src/Kernel/Math/IntListsListe.cpp</title>
<polygon fill="white" stroke="transparent" points="-4,4 -4,-539 912,-539 912,4 -4,4"/>
<!-- Node1 -->
<g id="node1" class="node">
<title>Node1</title>
<g id="a_node1"><a xlink:title=" ">
<polygon fill="#bfbfbf" stroke="black" points="441.5,-504.5 441.5,-534.5 572.5,-534.5 572.5,-504.5 441.5,-504.5"/>
<text text-anchor="start" x="449.5" y="-522.5" font-family="Helvetica,sans-Serif" font-size="10.00">src/Kernel/Math/IntLists</text>
<text text-anchor="middle" x="507" y="-511.5" font-family="Helvetica,sans-Serif" font-size="10.00">Liste.cpp</text>
</a>
</g>
</g>
<!-- Node2 -->
<g id="node2" class="node">
<title>Node2</title>
<g id="a_node2"><a xlink:href="IntListsListe_8h.html" target="_top" xlink:title=" ">
<polygon fill="white" stroke="black" points="430,-448.5 430,-467.5 514,-467.5 514,-448.5 430,-448.5"/>
<text text-anchor="middle" x="472" y="-455.5" font-family="Helvetica,sans-Serif" font-size="10.00">IntListsListe.h</text>
</a>
</g>
</g>
<!-- Node1&#45;&gt;Node2 -->
<g id="edge1" class="edge">
<title>Node1&#45;&gt;Node2</title>
<path fill="none" stroke="midnightblue" d="M498.71,-504.4C493.78,-496.02 487.49,-485.33 482.25,-476.42"/>
<polygon fill="midnightblue" stroke="midnightblue" points="485.18,-474.5 477.09,-467.66 479.15,-478.05 485.18,-474.5"/>
</g>
<!-- Node27 -->
<g id="node27" class="node">
<title>Node27</title>
<g id="a_node27"><a xlink:href="Nom_8h.html" target="_top" xlink:title=" ">
<polygon fill="white" stroke="black" points="517.5,-280.5 517.5,-299.5 566.5,-299.5 566.5,-280.5 517.5,-280.5"/>
<text text-anchor="middle" x="542" y="-287.5" font-family="Helvetica,sans-Serif" font-size="10.00">Nom.h</text>
</a>
</g>
</g>
<!-- Node1&#45;&gt;Node27 -->
<g id="edge40" class="edge">
<title>Node1&#45;&gt;Node27</title>
<path fill="none" stroke="midnightblue" d="M512.4,-504.12C515.95,-494.13 520.39,-480.42 523,-468 534.93,-411.16 539.58,-342.39 541.21,-309.84"/>
<polygon fill="midnightblue" stroke="midnightblue" points="544.72,-309.72 541.69,-299.57 537.73,-309.4 544.72,-309.72"/>
</g>
<!-- Node3 -->
<g id="node3" class="node">
<title>Node3</title>
<g id="a_node3"><a xlink:href="TRUSTLists_8h.html" target="_top" xlink:title=" ">
<polygon fill="white" stroke="black" points="432,-392.5 432,-411.5 512,-411.5 512,-392.5 432,-392.5"/>
<text text-anchor="middle" x="472" y="-399.5" font-family="Helvetica,sans-Serif" font-size="10.00">TRUSTLists.h</text>
</a>
</g>
</g>
<!-- Node2&#45;&gt;Node3 -->
<g id="edge2" class="edge">
<title>Node2&#45;&gt;Node3</title>
<path fill="none" stroke="midnightblue" d="M472,-448.08C472,-441.01 472,-430.86 472,-421.99"/>
<polygon fill="midnightblue" stroke="midnightblue" points="475.5,-421.75 472,-411.75 468.5,-421.75 475.5,-421.75"/>
</g>
<!-- Node4 -->
<g id="node4" class="node">
<title>Node4</title>
<g id="a_node4"><a xlink:href="TRUSTList_8h.html" target="_top" xlink:title=" ">
<polygon fill="white" stroke="black" points="434.5,-336.5 434.5,-355.5 509.5,-355.5 509.5,-336.5 434.5,-336.5"/>
<text text-anchor="middle" x="472" y="-343.5" font-family="Helvetica,sans-Serif" font-size="10.00">TRUSTList.h</text>
</a>
</g>
</g>
<!-- Node3&#45;&gt;Node4 -->
<g id="edge3" class="edge">
<title>Node3&#45;&gt;Node4</title>
<path fill="none" stroke="midnightblue" d="M472,-392.08C472,-385.01 472,-374.86 472,-365.99"/>
<polygon fill="midnightblue" stroke="midnightblue" points="475.5,-365.75 472,-355.75 468.5,-365.75 475.5,-365.75"/>
</g>
<!-- Node5 -->
<g id="node5" class="node">
<title>Node5</title>
<g id="a_node5"><a xlink:href="TRUSTListElem_8h.html" target="_top" xlink:title=" ">
<polygon fill="white" stroke="black" points="428,-112.5 428,-131.5 528,-131.5 528,-112.5 428,-112.5"/>
<text text-anchor="middle" x="478" y="-119.5" font-family="Helvetica,sans-Serif" font-size="10.00">TRUSTListElem.h</text>
</a>
</g>
</g>
<!-- Node4&#45;&gt;Node5 -->
<g id="edge4" class="edge">
<title>Node4&#45;&gt;Node5</title>
<path fill="none" stroke="midnightblue" d="M472.24,-336.3C473.12,-303.63 476.25,-187.87 477.49,-141.96"/>
<polygon fill="midnightblue" stroke="midnightblue" points="480.99,-141.97 477.76,-131.88 473.99,-141.79 480.99,-141.97"/>
</g>
<!-- Node9 -->
<g id="node9" class="node">
<title>Node9</title>
<g id="a_node9"><a xlink:href="Double_8h.html" target="_top" xlink:title=" ">
<polygon fill="white" stroke="black" points="289,-280.5 289,-299.5 349,-299.5 349,-280.5 289,-280.5"/>
<text text-anchor="middle" x="319" y="-287.5" font-family="Helvetica,sans-Serif" font-size="10.00">Double.h</text>
</a>
</g>
</g>
<!-- Node4&#45;&gt;Node9 -->
<g id="edge8" class="edge">
<title>Node4&#45;&gt;Node9</title>
<path fill="none" stroke="midnightblue" d="M447.76,-336.44C422.13,-327.4 381.51,-313.06 352.76,-302.92"/>
<polygon fill="midnightblue" stroke="midnightblue" points="353.72,-299.54 343.13,-299.52 351.39,-306.15 353.72,-299.54"/>
</g>
<!-- Node4&#45;&gt;Node27 -->
<g id="edge35" class="edge">
<title>Node4&#45;&gt;Node27</title>
<path fill="none" stroke="midnightblue" d="M483.25,-336.32C493.8,-328.18 509.8,-315.84 522.44,-306.09"/>
<polygon fill="midnightblue" stroke="midnightblue" points="524.77,-308.71 530.55,-299.83 520.49,-303.17 524.77,-308.71"/>
</g>
<!-- Node29 -->
<g id="node29" class="node">
<title>Node29</title>
<g id="a_node29"><a xlink:href="TRUSTList_8tpp.html" target="_top" xlink:title=" ">
<polygon fill="white" stroke="black" points="367.5,-280.5 367.5,-299.5 452.5,-299.5 452.5,-280.5 367.5,-280.5"/>
<text text-anchor="middle" x="410" y="-287.5" font-family="Helvetica,sans-Serif" font-size="10.00">TRUSTList.tpp</text>
</a>
</g>
</g>
<!-- Node4&#45;&gt;Node29 -->
<g id="edge39" class="edge">
<title>Node4&#45;&gt;Node29</title>
<path fill="none" stroke="midnightblue" d="M462.04,-336.32C452.87,-328.34 439.06,-316.31 427.97,-306.65"/>
<polygon fill="midnightblue" stroke="midnightblue" points="429.98,-303.76 420.14,-299.83 425.38,-309.04 429.98,-303.76"/>
</g>
<!-- Node6 -->
<g id="node6" class="node">
<title>Node6</title>
<g id="a_node6"><a xlink:title=" ">
<polygon fill="white" stroke="#bfbfbf" points="380,-56.5 380,-75.5 436,-75.5 436,-56.5 380,-56.5"/>
<text text-anchor="middle" x="408" y="-63.5" font-family="Helvetica,sans-Serif" font-size="10.00">assert.h</text>
</a>
</g>
</g>
<!-- Node5&#45;&gt;Node6 -->
<g id="edge5" class="edge">
<title>Node5&#45;&gt;Node6</title>
<path fill="none" stroke="midnightblue" d="M466.75,-112.32C456.2,-104.18 440.2,-91.84 427.56,-82.09"/>
<polygon fill="midnightblue" stroke="midnightblue" points="429.51,-79.17 419.45,-75.83 425.23,-84.71 429.51,-79.17"/>
</g>
<!-- Node7 -->
<g id="node7" class="node">
<title>Node7</title>
<g id="a_node7"><a xlink:href="arch_8h.html" target="_top" xlink:title=" ">
<polygon fill="white" stroke="black" points="314.5,-56.5 314.5,-75.5 361.5,-75.5 361.5,-56.5 314.5,-56.5"/>
<text text-anchor="middle" x="338" y="-63.5" font-family="Helvetica,sans-Serif" font-size="10.00">arch.h</text>
</a>
</g>
</g>
<!-- Node5&#45;&gt;Node7 -->
<g id="edge6" class="edge">
<title>Node5&#45;&gt;Node7</title>
<path fill="none" stroke="midnightblue" d="M455.82,-112.44C432.57,-103.48 395.85,-89.31 369.58,-79.18"/>
<polygon fill="midnightblue" stroke="midnightblue" points="370.67,-75.85 360.08,-75.52 368.15,-82.38 370.67,-75.85"/>
</g>
<!-- Node8 -->
<g id="node8" class="node">
<title>Node8</title>
<g id="a_node8"><a xlink:href="generique_8h.html" target="_top" xlink:title=" ">
<polygon fill="white" stroke="black" points="301,-0.5 301,-19.5 375,-19.5 375,-0.5 301,-0.5"/>
<text text-anchor="middle" x="338" y="-7.5" font-family="Helvetica,sans-Serif" font-size="10.00">generique.h</text>
</a>
</g>
</g>
<!-- Node7&#45;&gt;Node8 -->
<g id="edge7" class="edge">
<title>Node7&#45;&gt;Node8</title>
<path fill="none" stroke="midnightblue" d="M338,-56.08C338,-49.01 338,-38.86 338,-29.99"/>
<polygon fill="midnightblue" stroke="midnightblue" points="341.5,-29.75 338,-19.75 334.5,-29.75 341.5,-29.75"/>
</g>
<!-- Node10 -->
<g id="node10" class="node">
<title>Node10</title>
<g id="a_node10"><a xlink:href="blas1_8h.html" target="_top" xlink:title=" ">
<polygon fill="white" stroke="black" points="0,-168.5 0,-187.5 52,-187.5 52,-168.5 0,-168.5"/>
<text text-anchor="middle" x="26" y="-175.5" font-family="Helvetica,sans-Serif" font-size="10.00">blas1.h</text>
</a>
</g>
</g>
<!-- Node9&#45;&gt;Node10 -->
<g id="edge9" class="edge">
<title>Node9&#45;&gt;Node10</title>
<path fill="none" stroke="midnightblue" d="M296.01,-280.37C244.23,-260.93 118.36,-213.67 58.57,-191.23"/>
<polygon fill="midnightblue" stroke="midnightblue" points="59.48,-187.83 48.88,-187.59 57.02,-194.38 59.48,-187.83"/>
</g>
<!-- Node11 -->
<g id="node11" class="node">
<title>Node11</title>
<g id="a_node11"><a xlink:href="Objet__U_8h.html" target="_top" xlink:title=" ">
<polygon fill="white" stroke="black" points="362.5,-224.5 362.5,-243.5 427.5,-243.5 427.5,-224.5 362.5,-224.5"/>
<text text-anchor="middle" x="395" y="-231.5" font-family="Helvetica,sans-Serif" font-size="10.00">Objet_U.h</text>
</a>
</g>
</g>
<!-- Node9&#45;&gt;Node11 -->
<g id="edge11" class="edge">
<title>Node9&#45;&gt;Node11</title>
<path fill="none" stroke="midnightblue" d="M331.21,-280.32C342.78,-272.11 360.38,-259.6 374.16,-249.81"/>
<polygon fill="midnightblue" stroke="midnightblue" points="376.44,-252.48 382.57,-243.83 372.39,-246.77 376.44,-252.48"/>
</g>
<!-- Node26 -->
<g id="node26" class="node">
<title>Node26</title>
<g id="a_node26"><a xlink:title=" ">
<polygon fill="white" stroke="#bfbfbf" points="295.5,-224.5 295.5,-243.5 342.5,-243.5 342.5,-224.5 295.5,-224.5"/>
<text text-anchor="middle" x="319" y="-231.5" font-family="Helvetica,sans-Serif" font-size="10.00">cmath</text>
</a>
</g>
</g>
<!-- Node9&#45;&gt;Node26 -->
<g id="edge34" class="edge">
<title>Node9&#45;&gt;Node26</title>
<path fill="none" stroke="midnightblue" d="M319,-280.08C319,-273.01 319,-262.86 319,-253.99"/>
<polygon fill="midnightblue" stroke="midnightblue" points="322.5,-253.75 319,-243.75 315.5,-253.75 322.5,-253.75"/>
</g>
<!-- Node10&#45;&gt;Node7 -->
<g id="edge10" class="edge">
<title>Node10&#45;&gt;Node7</title>
<path fill="none" stroke="midnightblue" d="M52.09,-170.74C82.25,-163.13 133.12,-149.16 175,-132 192.66,-124.76 195.53,-119.7 213,-112 243.37,-98.62 279.09,-86.06 304.56,-77.63"/>
<polygon fill="midnightblue" stroke="midnightblue" points="305.7,-80.94 314.12,-74.5 303.52,-74.29 305.7,-80.94"/>
</g>
<!-- Node11&#45;&gt;Node6 -->
<g id="edge12" class="edge">
<title>Node11&#45;&gt;Node6</title>
<path fill="none" stroke="midnightblue" d="M395.7,-224.08C397.75,-197.95 403.75,-121.21 406.55,-85.58"/>
<polygon fill="midnightblue" stroke="midnightblue" points="410.04,-85.81 407.33,-75.57 403.06,-85.26 410.04,-85.81"/>
</g>
<!-- Node12 -->
<g id="node12" class="node">
<title>Node12</title>
<g id="a_node12"><a xlink:href="DecBaseInst_8h.html" target="_top" xlink:title=" ">
<polygon fill="white" stroke="black" points="642,-168.5 642,-187.5 728,-187.5 728,-168.5 642,-168.5"/>
<text text-anchor="middle" x="685" y="-175.5" font-family="Helvetica,sans-Serif" font-size="10.00">DecBaseInst.h</text>
</a>
</g>
</g>
<!-- Node11&#45;&gt;Node12 -->
<g id="edge13" class="edge">
<title>Node11&#45;&gt;Node12</title>
<path fill="none" stroke="midnightblue" d="M427.7,-226.91C477.27,-217.68 571.96,-200.05 631.61,-188.94"/>
<polygon fill="midnightblue" stroke="midnightblue" points="632.41,-192.35 641.6,-187.08 631.12,-185.47 632.41,-192.35"/>
</g>
<!-- Node17 -->
<g id="node17" class="node">
<title>Node17</title>
<g id="a_node17"><a xlink:href="EntreeSortie_8h.html" target="_top" xlink:title=" ">
<polygon fill="white" stroke="black" points="252,-168.5 252,-187.5 338,-187.5 338,-168.5 252,-168.5"/>
<text text-anchor="middle" x="295" y="-175.5" font-family="Helvetica,sans-Serif" font-size="10.00">EntreeSortie.h</text>
</a>
</g>
</g>
<!-- Node11&#45;&gt;Node17 -->
<g id="edge19" class="edge">
<title>Node11&#45;&gt;Node17</title>
<path fill="none" stroke="midnightblue" d="M378.93,-224.32C363.04,-215.74 338.49,-202.49 320.04,-192.52"/>
<polygon fill="midnightblue" stroke="midnightblue" points="321.49,-189.33 311.03,-187.65 318.16,-195.49 321.49,-189.33"/>
</g>
<!-- Node22 -->
<g id="node22" class="node">
<title>Node22</title>
<g id="a_node22"><a xlink:href="Process_8h.html" target="_top" xlink:title=" ">
<polygon fill="white" stroke="black" points="22.5,-56.5 22.5,-75.5 85.5,-75.5 85.5,-56.5 22.5,-56.5"/>
<text text-anchor="middle" x="54" y="-63.5" font-family="Helvetica,sans-Serif" font-size="10.00">Process.h</text>
</a>
</g>
</g>
<!-- Node11&#45;&gt;Node22 -->
<g id="edge33" class="edge">
<title>Node11&#45;&gt;Node22</title>
<path fill="none" stroke="midnightblue" d="M362.42,-224.75C294.82,-207.17 142.1,-164.95 100,-132 83.72,-119.26 70.77,-99.23 62.81,-84.77"/>
<polygon fill="midnightblue" stroke="midnightblue" points="65.86,-83.05 58.12,-75.81 59.65,-86.29 65.86,-83.05"/>
</g>
<!-- Node13 -->
<g id="node13" class="node">
<title>Node13</title>
<g id="a_node13"><a xlink:href="Cast_8h.html" target="_top" xlink:title=" ">
<polygon fill="white" stroke="black" points="805.5,-56.5 805.5,-75.5 852.5,-75.5 852.5,-56.5 805.5,-56.5"/>
<text text-anchor="middle" x="829" y="-63.5" font-family="Helvetica,sans-Serif" font-size="10.00">Cast.h</text>
</a>
</g>
</g>
<!-- Node12&#45;&gt;Node13 -->
<g id="edge14" class="edge">
<title>Node12&#45;&gt;Node13</title>
<path fill="none" stroke="midnightblue" d="M696.3,-168.37C720.8,-149.65 779.06,-105.15 809.58,-81.83"/>
<polygon fill="midnightblue" stroke="midnightblue" points="811.93,-84.44 817.75,-75.59 807.68,-78.88 811.93,-84.44"/>
</g>
<!-- Node14 -->
<g id="node14" class="node">
<title>Node14</title>
<g id="a_node14"><a xlink:href="Type__info_8h.html" target="_top" xlink:title=" ">
<polygon fill="white" stroke="black" points="656,-112.5 656,-131.5 728,-131.5 728,-112.5 656,-112.5"/>
<text text-anchor="middle" x="692" y="-119.5" font-family="Helvetica,sans-Serif" font-size="10.00">Type_info.h</text>
</a>
</g>
</g>
<!-- Node12&#45;&gt;Node14 -->
<g id="edge15" class="edge">
<title>Node12&#45;&gt;Node14</title>
<path fill="none" stroke="midnightblue" d="M686.16,-168.08C687.08,-160.93 688.42,-150.64 689.58,-141.69"/>
<polygon fill="midnightblue" stroke="midnightblue" points="693.05,-142.12 690.87,-131.75 686.11,-141.22 693.05,-142.12"/>
</g>
<!-- Node15 -->
<g id="node15" class="node">
<title>Node15</title>
<g id="a_node15"><a xlink:href="Declare__Base_8h.html" target="_top" xlink:title=" ">
<polygon fill="white" stroke="black" points="546,-112.5 546,-131.5 638,-131.5 638,-112.5 546,-112.5"/>
<text text-anchor="middle" x="592" y="-119.5" font-family="Helvetica,sans-Serif" font-size="10.00">Declare_Base.h</text>
</a>
</g>
</g>
<!-- Node12&#45;&gt;Node15 -->
<g id="edge16" class="edge">
<title>Node12&#45;&gt;Node15</title>
<path fill="none" stroke="midnightblue" d="M670.06,-168.32C655.41,-159.82 632.87,-146.73 615.76,-136.8"/>
<polygon fill="midnightblue" stroke="midnightblue" points="617.31,-133.65 606.9,-131.65 613.8,-139.7 617.31,-133.65"/>
</g>
<!-- Node16 -->
<g id="node16" class="node">
<title>Node16</title>
<g id="a_node16"><a xlink:href="Declare__Inst_8h.html" target="_top" xlink:title=" ">
<polygon fill="white" stroke="black" points="822,-112.5 822,-131.5 908,-131.5 908,-112.5 822,-112.5"/>
<text text-anchor="middle" x="865" y="-119.5" font-family="Helvetica,sans-Serif" font-size="10.00">Declare_Inst.h</text>
</a>
</g>
</g>
<!-- Node12&#45;&gt;Node16 -->
<g id="edge17" class="edge">
<title>Node12&#45;&gt;Node16</title>
<path fill="none" stroke="midnightblue" d="M713.52,-168.44C744.07,-159.28 792.71,-144.69 826.6,-134.52"/>
<polygon fill="midnightblue" stroke="midnightblue" points="828.04,-137.74 836.61,-131.52 826.03,-131.04 828.04,-137.74"/>
</g>
<!-- Node16&#45;&gt;Node13 -->
<g id="edge18" class="edge">
<title>Node16&#45;&gt;Node13</title>
<path fill="none" stroke="midnightblue" d="M859.06,-112.08C854.02,-104.53 846.66,-93.49 840.49,-84.23"/>
<polygon fill="midnightblue" stroke="midnightblue" points="843.29,-82.13 834.83,-75.75 837.47,-86.01 843.29,-82.13"/>
</g>
<!-- Node18 -->
<g id="node18" class="node">
<title>Node18</title>
<g id="a_node18"><a xlink:href="Entree_8h.html" target="_top" xlink:title=" ">
<polygon fill="white" stroke="black" points="108.5,-112.5 108.5,-131.5 165.5,-131.5 165.5,-112.5 108.5,-112.5"/>
<text text-anchor="middle" x="137" y="-119.5" font-family="Helvetica,sans-Serif" font-size="10.00">Entree.h</text>
</a>
</g>
</g>
<!-- Node17&#45;&gt;Node18 -->
<g id="edge20" class="edge">
<title>Node17&#45;&gt;Node18</title>
<path fill="none" stroke="midnightblue" d="M269.96,-168.44C243.38,-159.36 201.19,-144.94 171.48,-134.78"/>
<polygon fill="midnightblue" stroke="midnightblue" points="172.51,-131.44 161.92,-131.52 170.25,-138.06 172.51,-131.44"/>
</g>
<!-- Node23 -->
<g id="node23" class="node">
<title>Node23</title>
<g id="a_node23"><a xlink:href="Sortie_8h.html" target="_top" xlink:title=" ">
<polygon fill="white" stroke="black" points="318,-112.5 318,-131.5 372,-131.5 372,-112.5 318,-112.5"/>
<text text-anchor="middle" x="345" y="-119.5" font-family="Helvetica,sans-Serif" font-size="10.00">Sortie.h</text>
</a>
</g>
</g>
<!-- Node17&#45;&gt;Node23 -->
<g id="edge27" class="edge">
<title>Node17&#45;&gt;Node23</title>
<path fill="none" stroke="midnightblue" d="M303.26,-168.08C310.46,-160.3 321.11,-148.8 329.85,-139.37"/>
<polygon fill="midnightblue" stroke="midnightblue" points="332.67,-141.47 336.9,-131.75 327.53,-136.71 332.67,-141.47"/>
</g>
<!-- Node25 -->
<g id="node25" class="node">
<title>Node25</title>
<g id="a_node25"><a xlink:href="Separateur_8h.html" target="_top" xlink:title=" ">
<polygon fill="white" stroke="black" points="222,-112.5 222,-131.5 300,-131.5 300,-112.5 222,-112.5"/>
<text text-anchor="middle" x="261" y="-119.5" font-family="Helvetica,sans-Serif" font-size="10.00">Separateur.h</text>
</a>
</g>
</g>
<!-- Node17&#45;&gt;Node25 -->
<g id="edge32" class="edge">
<title>Node17&#45;&gt;Node25</title>
<path fill="none" stroke="midnightblue" d="M289.39,-168.08C284.63,-160.53 277.68,-149.49 271.85,-140.23"/>
<polygon fill="midnightblue" stroke="midnightblue" points="274.8,-138.35 266.51,-131.75 268.88,-142.08 274.8,-138.35"/>
</g>
<!-- Node18&#45;&gt;Node6 -->
<g id="edge24" class="edge">
<title>Node18&#45;&gt;Node6</title>
<path fill="none" stroke="midnightblue" d="M165.55,-115.97C207.91,-108.41 290.12,-93.36 369.57,-76.23"/>
<polygon fill="midnightblue" stroke="midnightblue" points="370.72,-79.56 379.75,-74.02 369.24,-72.72 370.72,-79.56"/>
</g>
<!-- Node18&#45;&gt;Node7 -->
<g id="edge26" class="edge">
<title>Node18&#45;&gt;Node7</title>
<path fill="none" stroke="midnightblue" d="M165.55,-113.4C197.09,-104.98 249.64,-90.94 304.34,-76.17"/>
<polygon fill="midnightblue" stroke="midnightblue" points="305.47,-79.49 314.21,-73.5 303.64,-72.73 305.47,-79.49"/>
</g>
<!-- Node19 -->
<g id="node19" class="node">
<title>Node19</title>
<g id="a_node19"><a xlink:title=" ">
<polygon fill="white" stroke="#bfbfbf" points="168,-56.5 168,-75.5 218,-75.5 218,-56.5 168,-56.5"/>
<text text-anchor="middle" x="193" y="-63.5" font-family="Helvetica,sans-Serif" font-size="10.00">stdio.h</text>
</a>
</g>
</g>
<!-- Node18&#45;&gt;Node19 -->
<g id="edge21" class="edge">
<title>Node18&#45;&gt;Node19</title>
<path fill="none" stroke="midnightblue" d="M146,-112.32C154.19,-104.42 166.51,-92.55 176.47,-82.94"/>
<polygon fill="midnightblue" stroke="midnightblue" points="179.07,-85.29 183.84,-75.83 174.21,-80.26 179.07,-85.29"/>
</g>
<!-- Node20 -->
<g id="node20" class="node">
<title>Node20</title>
<g id="a_node20"><a xlink:title=" ">
<polygon fill="white" stroke="#bfbfbf" points="104,-56.5 104,-75.5 150,-75.5 150,-56.5 104,-56.5"/>
<text text-anchor="middle" x="127" y="-63.5" font-family="Helvetica,sans-Serif" font-size="10.00">cstdio</text>
</a>
</g>
</g>
<!-- Node18&#45;&gt;Node20 -->
<g id="edge22" class="edge">
<title>Node18&#45;&gt;Node20</title>
<path fill="none" stroke="midnightblue" d="M135.35,-112.08C134.02,-104.93 132.12,-94.64 130.46,-85.69"/>
<polygon fill="midnightblue" stroke="midnightblue" points="133.88,-84.95 128.62,-75.75 127,-86.22 133.88,-84.95"/>
</g>
<!-- Node21 -->
<g id="node21" class="node">
<title>Node21</title>
<g id="a_node21"><a xlink:title=" ">
<polygon fill="white" stroke="#bfbfbf" points="236,-56.5 236,-75.5 296,-75.5 296,-56.5 236,-56.5"/>
<text text-anchor="middle" x="266" y="-63.5" font-family="Helvetica,sans-Serif" font-size="10.00">iostream</text>
</a>
</g>
</g>
<!-- Node18&#45;&gt;Node21 -->
<g id="edge23" class="edge">
<title>Node18&#45;&gt;Node21</title>
<path fill="none" stroke="midnightblue" d="M157.44,-112.44C178.67,-103.56 212.1,-89.56 236.25,-79.45"/>
<polygon fill="midnightblue" stroke="midnightblue" points="237.78,-82.61 245.66,-75.52 235.08,-76.15 237.78,-82.61"/>
</g>
<!-- Node18&#45;&gt;Node22 -->
<g id="edge25" class="edge">
<title>Node18&#45;&gt;Node22</title>
<path fill="none" stroke="midnightblue" d="M123.66,-112.32C110.84,-103.98 91.22,-91.21 76.06,-81.35"/>
<polygon fill="midnightblue" stroke="midnightblue" points="77.59,-78.17 67.3,-75.65 73.78,-84.04 77.59,-78.17"/>
</g>
<!-- Node23&#45;&gt;Node6 -->
<g id="edge29" class="edge">
<title>Node23&#45;&gt;Node6</title>
<path fill="none" stroke="midnightblue" d="M355.12,-112.32C364.53,-104.26 378.74,-92.08 390.07,-82.37"/>
<polygon fill="midnightblue" stroke="midnightblue" points="392.38,-85 397.69,-75.83 387.82,-79.68 392.38,-85"/>
</g>
<!-- Node23&#45;&gt;Node7 -->
<g id="edge30" class="edge">
<title>Node23&#45;&gt;Node7</title>
<path fill="none" stroke="midnightblue" d="M343.84,-112.08C342.92,-104.93 341.58,-94.64 340.42,-85.69"/>
<polygon fill="midnightblue" stroke="midnightblue" points="343.89,-85.22 339.13,-75.75 336.95,-86.12 343.89,-85.22"/>
</g>
<!-- Node23&#45;&gt;Node21 -->
<g id="edge28" class="edge">
<title>Node23&#45;&gt;Node21</title>
<path fill="none" stroke="midnightblue" d="M332.31,-112.32C320.1,-103.98 301.42,-91.21 287,-81.35"/>
<polygon fill="midnightblue" stroke="midnightblue" points="288.89,-78.41 278.66,-75.65 284.94,-84.19 288.89,-78.41"/>
</g>
<!-- Node24 -->
<g id="node24" class="node">
<title>Node24</title>
<g id="a_node24"><a xlink:title=" ">
<polygon fill="white" stroke="#bfbfbf" points="620,-56.5 620,-75.5 664,-75.5 664,-56.5 620,-56.5"/>
<text text-anchor="middle" x="642" y="-63.5" font-family="Helvetica,sans-Serif" font-size="10.00">string</text>
</a>
</g>
</g>
<!-- Node23&#45;&gt;Node24 -->
<g id="edge31" class="edge">
<title>Node23&#45;&gt;Node24</title>
<path fill="none" stroke="midnightblue" d="M372.14,-116.06C427.12,-106.07 551.4,-83.47 610.12,-72.8"/>
<polygon fill="midnightblue" stroke="midnightblue" points="610.75,-76.24 619.96,-71.01 609.5,-69.35 610.75,-76.24"/>
</g>
<!-- Node27&#45;&gt;Node11 -->
<g id="edge36" class="edge">
<title>Node27&#45;&gt;Node11</title>
<path fill="none" stroke="midnightblue" d="M518.71,-280.44C494.19,-271.44 455.4,-257.19 427.8,-247.05"/>
<polygon fill="midnightblue" stroke="midnightblue" points="428.78,-243.68 418.18,-243.52 426.36,-250.25 428.78,-243.68"/>
</g>
<!-- Node27&#45;&gt;Node24 -->
<g id="edge38" class="edge">
<title>Node27&#45;&gt;Node24</title>
<path fill="none" stroke="midnightblue" d="M566.69,-284.66C610.18,-275.55 699.36,-249.89 737,-188 754.55,-159.14 755.06,-140.54 737,-112 723.27,-90.3 695.93,-78.86 674.09,-72.96"/>
<polygon fill="midnightblue" stroke="midnightblue" points="674.75,-69.51 664.21,-70.55 673.09,-76.32 674.75,-69.51"/>
</g>
<!-- Node28 -->
<g id="node28" class="node">
<title>Node28</title>
<g id="a_node28"><a xlink:title=" ">
<polygon fill="white" stroke="#bfbfbf" points="784,-224.5 784,-243.5 834,-243.5 834,-224.5 784,-224.5"/>
<text text-anchor="middle" x="809" y="-231.5" font-family="Helvetica,sans-Serif" font-size="10.00">cstring</text>
</a>
</g>
</g>
<!-- Node27&#45;&gt;Node28 -->
<g id="edge37" class="edge">
<title>Node27&#45;&gt;Node28</title>
<path fill="none" stroke="midnightblue" d="M566.68,-284.4C608.57,-276.52 696.22,-259.79 770,-244 771.26,-243.73 772.54,-243.45 773.84,-243.17"/>
<polygon fill="midnightblue" stroke="midnightblue" points="774.86,-246.53 783.85,-240.93 773.33,-239.7 774.86,-246.53"/>
</g>
</g>
</svg>
