<?xml version="1.0" encoding="UTF-8" standalone="no"?>
<!DOCTYPE svg PUBLIC "-//W3C//DTD SVG 1.1//EN"
 "http://www.w3.org/Graphics/SVG/1.1/DTD/svg11.dtd">
<!-- Generated by graphviz version 2.43.0 (0)
 -->
<!-- Title: src/VDF/Sources/Iterateurs/Iterateur_Source_VDF.h Pages: 1 -->
<svg width="1637pt" height="373pt"
 viewBox="0.00 0.00 1636.50 373.00" xmlns="http://www.w3.org/2000/svg" xmlns:xlink="http://www.w3.org/1999/xlink">
<g id="graph0" class="graph" transform="scale(1 1) rotate(0) translate(4 369)">
<title>src/VDF/Sources/Iterateurs/Iterateur_Source_VDF.h</title>
<polygon fill="white" stroke="transparent" points="-4,4 -4,-369 1632.5,-369 1632.5,4 -4,4"/>
<!-- Node1 -->
<g id="node1" class="node">
<title>Node1</title>
<g id="a_node1"><a xlink:title=" ">
<polygon fill="#bfbfbf" stroke="black" points="481.5,-334.5 481.5,-364.5 627.5,-364.5 627.5,-334.5 481.5,-334.5"/>
<text text-anchor="start" x="489.5" y="-352.5" font-family="Helvetica,sans-Serif" font-size="10.00">src/VDF/Sources/Iterateurs</text>
<text text-anchor="middle" x="554.5" y="-341.5" font-family="Helvetica,sans-Serif" font-size="10.00">/Iterateur_Source_VDF.h</text>
</a>
</g>
</g>
<!-- Node2 -->
<g id="node2" class="node">
<title>Node2</title>
<g id="a_node2"><a xlink:href="Iterateur__Source__VDF_8cpp.html" target="_top" xlink:title=" ">
<polygon fill="white" stroke="black" points="323.5,-262 323.5,-292 469.5,-292 469.5,-262 323.5,-262"/>
<text text-anchor="start" x="331.5" y="-280" font-family="Helvetica,sans-Serif" font-size="10.00">src/VDF/Sources/Iterateurs</text>
<text text-anchor="middle" x="396.5" y="-269" font-family="Helvetica,sans-Serif" font-size="10.00">/Iterateur_Source_VDF.cpp</text>
</a>
</g>
</g>
<!-- Node1&#45;&gt;Node2 -->
<g id="edge1" class="edge">
<title>Node1&#45;&gt;Node2</title>
<path fill="none" stroke="midnightblue" d="M513.46,-330.19C486.8,-318.29 452.57,-303.02 428.04,-292.07"/>
<polygon fill="midnightblue" stroke="midnightblue" points="512.35,-333.52 522.91,-334.4 515.2,-327.13 512.35,-333.52"/>
</g>
<!-- Node3 -->
<g id="node3" class="node">
<title>Node3</title>
<g id="a_node3"><a xlink:href="Source__Darcy__VDF__Face_8h.html" target="_top" xlink:title=" ">
<polygon fill="white" stroke="black" points="170,-178.5 170,-219.5 307,-219.5 307,-178.5 170,-178.5"/>
<text text-anchor="start" x="178" y="-207.5" font-family="Helvetica,sans-Serif" font-size="10.00">src/VDF/Sources/Sources</text>
<text text-anchor="start" x="178" y="-196.5" font-family="Helvetica,sans-Serif" font-size="10.00">_It_Eval/Source_Darcy</text>
<text text-anchor="middle" x="238.5" y="-185.5" font-family="Helvetica,sans-Serif" font-size="10.00">_VDF_Face.h</text>
</a>
</g>
</g>
<!-- Node1&#45;&gt;Node3 -->
<g id="edge2" class="edge">
<title>Node1&#45;&gt;Node3</title>
<path fill="none" stroke="midnightblue" d="M535.72,-326.83C528.12,-317.96 519.32,-307.55 511.5,-298 496.47,-279.63 498.56,-268.7 478.5,-256 417.65,-217.47 390.6,-236.53 320.5,-220 316.22,-218.99 311.82,-217.94 307.38,-216.88"/>
<polygon fill="midnightblue" stroke="midnightblue" points="533.13,-329.18 542.3,-334.48 538.43,-324.61 533.13,-329.18"/>
</g>
<!-- Node7 -->
<g id="node7" class="node">
<title>Node7</title>
<g id="a_node7"><a xlink:href="Source__Forchheimer__VDF__Face_8h.html" target="_top" xlink:title=" ">
<polygon fill="white" stroke="black" points="330,-178.5 330,-219.5 487,-219.5 487,-178.5 330,-178.5"/>
<text text-anchor="start" x="338" y="-207.5" font-family="Helvetica,sans-Serif" font-size="10.00">src/VDF/Sources/Sources</text>
<text text-anchor="start" x="338" y="-196.5" font-family="Helvetica,sans-Serif" font-size="10.00">_It_Eval/Source_Forchheimer</text>
<text text-anchor="middle" x="408.5" y="-185.5" font-family="Helvetica,sans-Serif" font-size="10.00">_VDF_Face.h</text>
</a>
</g>
</g>
<!-- Node1&#45;&gt;Node7 -->
<g id="edge6" class="edge">
<title>Node1&#45;&gt;Node7</title>
<path fill="none" stroke="midnightblue" d="M548.05,-324.65C541.57,-304.39 529.88,-275.57 511.5,-256 497.08,-240.64 477.48,-228.55 459.25,-219.59"/>
<polygon fill="midnightblue" stroke="midnightblue" points="544.74,-325.8 550.97,-334.37 551.44,-323.79 544.74,-325.8"/>
</g>
<!-- Node9 -->
<g id="node9" class="node">
<title>Node9</title>
<g id="a_node9"><a xlink:href="Source__Neutronique__VDF_8h.html" target="_top" xlink:title=" ">
<polygon fill="white" stroke="black" points="1031,-262 1031,-292 1220,-292 1220,-262 1031,-262"/>
<text text-anchor="start" x="1039" y="-280" font-family="Helvetica,sans-Serif" font-size="10.00">src/VDF/Sources/Sources</text>
<text text-anchor="middle" x="1125.5" y="-269" font-family="Helvetica,sans-Serif" font-size="10.00">_It_Eval/Source_Neutronique_VDF.h</text>
</a>
</g>
</g>
<!-- Node1&#45;&gt;Node9 -->
<g id="edge9" class="edge">
<title>Node1&#45;&gt;Node9</title>
<path fill="none" stroke="midnightblue" d="M637.88,-338.21C742.44,-325.3 921.25,-303.22 1030.84,-289.69"/>
<polygon fill="midnightblue" stroke="midnightblue" points="637.18,-334.76 627.69,-339.46 638.04,-341.71 637.18,-334.76"/>
</g>
<!-- Node11 -->
<g id="node11" class="node">
<title>Node11</title>
<g id="a_node11"><a xlink:href="Terme__Gravite__VDF__Face_8h.html" target="_top" xlink:title=" ">
<polygon fill="white" stroke="black" points="505,-178.5 505,-219.5 642,-219.5 642,-178.5 505,-178.5"/>
<text text-anchor="start" x="513" y="-207.5" font-family="Helvetica,sans-Serif" font-size="10.00">src/VDF/Sources/Sources</text>
<text text-anchor="start" x="513" y="-196.5" font-family="Helvetica,sans-Serif" font-size="10.00">_It_Eval/Terme_Gravite</text>
<text text-anchor="middle" x="573.5" y="-185.5" font-family="Helvetica,sans-Serif" font-size="10.00">_VDF_Face.h</text>
</a>
</g>
</g>
<!-- Node1&#45;&gt;Node11 -->
<g id="edge11" class="edge">
<title>Node1&#45;&gt;Node11</title>
<path fill="none" stroke="midnightblue" d="M557.63,-324.08C561.37,-294.83 567.56,-246.44 571,-219.55"/>
<polygon fill="midnightblue" stroke="midnightblue" points="554.12,-323.9 556.32,-334.26 561.06,-324.79 554.12,-323.9"/>
</g>
<!-- Node13 -->
<g id="node13" class="node">
<title>Node13</title>
<g id="a_node13"><a xlink:href="Terme__Source__VDF__base_8h.html" target="_top" xlink:title=" ">
<polygon fill="white" stroke="black" points="631,-256.5 631,-297.5 768,-297.5 768,-256.5 631,-256.5"/>
<text text-anchor="start" x="639" y="-285.5" font-family="Helvetica,sans-Serif" font-size="10.00">src/VDF/Sources/Sources</text>
<text text-anchor="start" x="639" y="-274.5" font-family="Helvetica,sans-Serif" font-size="10.00">_It_Eval/Terme_Source</text>
<text text-anchor="middle" x="699.5" y="-263.5" font-family="Helvetica,sans-Serif" font-size="10.00">_VDF_base.h</text>
</a>
</g>
</g>
<!-- Node1&#45;&gt;Node13 -->
<g id="edge13" class="edge">
<title>Node1&#45;&gt;Node13</title>
<path fill="none" stroke="midnightblue" d="M592.56,-330C613.1,-320.01 638.44,-307.69 659.3,-297.55"/>
<polygon fill="midnightblue" stroke="midnightblue" points="590.96,-326.88 583.49,-334.4 594.02,-333.18 590.96,-326.88"/>
</g>
<!-- Node4 -->
<g id="node4" class="node">
<title>Node4</title>
<g id="a_node4"><a xlink:href="Source__QC__VDF__Face_8h.html" target="_top" xlink:title=" ">
<polygon fill="white" stroke="black" points="155,-95 155,-136 312,-136 312,-95 155,-95"/>
<text text-anchor="start" x="163" y="-124" font-family="Helvetica,sans-Serif" font-size="10.00">src/ThHyd/Dilatable</text>
<text text-anchor="start" x="163" y="-113" font-family="Helvetica,sans-Serif" font-size="10.00">/Quasi_Compressible</text>
<text text-anchor="middle" x="233.5" y="-102" font-family="Helvetica,sans-Serif" font-size="10.00">/VDF/Source_QC_VDF_Face.h</text>
</a>
</g>
</g>
<!-- Node3&#45;&gt;Node4 -->
<g id="edge3" class="edge">
<title>Node3&#45;&gt;Node4</title>
<path fill="none" stroke="midnightblue" d="M236.66,-168.06C236.01,-157.38 235.29,-145.63 234.7,-136.05"/>
<polygon fill="midnightblue" stroke="midnightblue" points="233.18,-168.5 237.29,-178.27 240.17,-168.08 233.18,-168.5"/>
</g>
<!-- Node6 -->
<g id="node6" class="node">
<title>Node6</title>
<g id="a_node6"><a xlink:href="Source__Darcy__VDF__Face_8cpp.html" target="_top" xlink:title=" ">
<polygon fill="white" stroke="black" points="0,-95 0,-136 137,-136 137,-95 0,-95"/>
<text text-anchor="start" x="8" y="-124" font-family="Helvetica,sans-Serif" font-size="10.00">src/VDF/Sources/Sources</text>
<text text-anchor="start" x="8" y="-113" font-family="Helvetica,sans-Serif" font-size="10.00">_It_Eval/Source_Darcy</text>
<text text-anchor="middle" x="68.5" y="-102" font-family="Helvetica,sans-Serif" font-size="10.00">_VDF_Face.cpp</text>
</a>
</g>
</g>
<!-- Node3&#45;&gt;Node6 -->
<g id="edge5" class="edge">
<title>Node3&#45;&gt;Node6</title>
<path fill="none" stroke="midnightblue" d="M188.71,-174.13C163.41,-162 133.06,-147.45 109.18,-136"/>
<polygon fill="midnightblue" stroke="midnightblue" points="187.25,-177.31 197.78,-178.48 190.28,-171 187.25,-177.31"/>
</g>
<!-- Node5 -->
<g id="node5" class="node">
<title>Node5</title>
<g id="a_node5"><a xlink:href="Source__QC__VDF__Face_8cpp.html" target="_top" xlink:title=" ">
<polygon fill="white" stroke="black" points="149.5,-6 149.5,-47 317.5,-47 317.5,-6 149.5,-6"/>
<text text-anchor="start" x="157.5" y="-35" font-family="Helvetica,sans-Serif" font-size="10.00">src/ThHyd/Dilatable</text>
<text text-anchor="start" x="157.5" y="-24" font-family="Helvetica,sans-Serif" font-size="10.00">/Quasi_Compressible</text>
<text text-anchor="middle" x="233.5" y="-13" font-family="Helvetica,sans-Serif" font-size="10.00">/VDF/Source_QC_VDF_Face.cpp</text>
</a>
</g>
</g>
<!-- Node4&#45;&gt;Node5 -->
<g id="edge4" class="edge">
<title>Node4&#45;&gt;Node5</title>
<path fill="none" stroke="midnightblue" d="M233.5,-84.44C233.5,-72.1 233.5,-58.16 233.5,-47.16"/>
<polygon fill="midnightblue" stroke="midnightblue" points="230,-84.76 233.5,-94.76 237,-84.76 230,-84.76"/>
</g>
<!-- Node7&#45;&gt;Node4 -->
<g id="edge7" class="edge">
<title>Node7&#45;&gt;Node4</title>
<path fill="none" stroke="midnightblue" d="M357.25,-174.13C331.2,-162 299.96,-147.45 275.38,-136"/>
<polygon fill="midnightblue" stroke="midnightblue" points="356.04,-177.43 366.58,-178.48 359,-171.08 356.04,-177.43"/>
</g>
<!-- Node8 -->
<g id="node8" class="node">
<title>Node8</title>
<g id="a_node8"><a xlink:href="Source__Forchheimer__VDF__Face_8cpp.html" target="_top" xlink:title=" ">
<polygon fill="white" stroke="black" points="330,-95 330,-136 487,-136 487,-95 330,-95"/>
<text text-anchor="start" x="338" y="-124" font-family="Helvetica,sans-Serif" font-size="10.00">src/VDF/Sources/Sources</text>
<text text-anchor="start" x="338" y="-113" font-family="Helvetica,sans-Serif" font-size="10.00">_It_Eval/Source_Forchheimer</text>
<text text-anchor="middle" x="408.5" y="-102" font-family="Helvetica,sans-Serif" font-size="10.00">_VDF_Face.cpp</text>
</a>
</g>
</g>
<!-- Node7&#45;&gt;Node8 -->
<g id="edge8" class="edge">
<title>Node7&#45;&gt;Node8</title>
<path fill="none" stroke="midnightblue" d="M408.5,-168.06C408.5,-157.38 408.5,-145.63 408.5,-136.05"/>
<polygon fill="midnightblue" stroke="midnightblue" points="405,-168.27 408.5,-178.27 412,-168.27 405,-168.27"/>
</g>
<!-- Node10 -->
<g id="node10" class="node">
<title>Node10</title>
<g id="a_node10"><a xlink:href="Source__Neutronique__VDF_8cpp.html" target="_top" xlink:title=" ">
<polygon fill="white" stroke="black" points="1292.5,-178.5 1292.5,-219.5 1448.5,-219.5 1448.5,-178.5 1292.5,-178.5"/>
<text text-anchor="start" x="1300.5" y="-207.5" font-family="Helvetica,sans-Serif" font-size="10.00">src/VDF/Sources/Sources</text>
<text text-anchor="start" x="1300.5" y="-196.5" font-family="Helvetica,sans-Serif" font-size="10.00">_It_Eval/Source_Neutronique</text>
<text text-anchor="middle" x="1370.5" y="-185.5" font-family="Helvetica,sans-Serif" font-size="10.00">_VDF.cpp</text>
</a>
</g>
</g>
<!-- Node9&#45;&gt;Node10 -->
<g id="edge10" class="edge">
<title>Node9&#45;&gt;Node10</title>
<path fill="none" stroke="midnightblue" d="M1180.51,-258.94C1218.19,-247.25 1268.26,-231.71 1307.54,-219.53"/>
<polygon fill="midnightblue" stroke="midnightblue" points="1179.24,-255.67 1170.72,-261.97 1181.31,-262.35 1179.24,-255.67"/>
</g>
<!-- Node12 -->
<g id="node12" class="node">
<title>Node12</title>
<g id="a_node12"><a xlink:href="Terme__Gravite__VDF__Face_8cpp.html" target="_top" xlink:title=" ">
<polygon fill="white" stroke="black" points="505,-95 505,-136 642,-136 642,-95 505,-95"/>
<text text-anchor="start" x="513" y="-124" font-family="Helvetica,sans-Serif" font-size="10.00">src/VDF/Sources/Sources</text>
<text text-anchor="start" x="513" y="-113" font-family="Helvetica,sans-Serif" font-size="10.00">_It_Eval/Terme_Gravite</text>
<text text-anchor="middle" x="573.5" y="-102" font-family="Helvetica,sans-Serif" font-size="10.00">_VDF_Face.cpp</text>
</a>
</g>
</g>
<!-- Node11&#45;&gt;Node12 -->
<g id="edge12" class="edge">
<title>Node11&#45;&gt;Node12</title>
<path fill="none" stroke="midnightblue" d="M573.5,-168.06C573.5,-157.38 573.5,-145.63 573.5,-136.05"/>
<polygon fill="midnightblue" stroke="midnightblue" points="570,-168.27 573.5,-178.27 577,-168.27 570,-168.27"/>
</g>
<!-- Node13&#45;&gt;Node3 -->
<g id="edge14" class="edge">
<title>Node13&#45;&gt;Node3</title>
<path fill="none" stroke="midnightblue" d="M620.61,-266.51C543.7,-256.74 423.58,-240.14 320.5,-220 316.19,-219.16 311.76,-218.24 307.3,-217.27"/>
<polygon fill="midnightblue" stroke="midnightblue" points="620.35,-270 630.71,-267.78 621.22,-263.06 620.35,-270"/>
</g>
<!-- Node13&#45;&gt;Node7 -->
<g id="edge17" class="edge">
<title>Node13&#45;&gt;Node7</title>
<path fill="none" stroke="midnightblue" d="M621.09,-255.52C578.26,-244.34 525.51,-230.56 483.27,-219.53"/>
<polygon fill="midnightblue" stroke="midnightblue" points="620.35,-258.94 630.91,-258.09 622.11,-252.17 620.35,-258.94"/>
</g>
<!-- Node13&#45;&gt;Node11 -->
<g id="edge18" class="edge">
<title>Node13&#45;&gt;Node11</title>
<path fill="none" stroke="midnightblue" d="M658.39,-251.2C641.34,-240.92 621.84,-229.16 605.84,-219.51"/>
<polygon fill="midnightblue" stroke="midnightblue" points="656.68,-254.26 667.05,-256.43 660.3,-248.27 656.68,-254.26"/>
</g>
<!-- Node14 -->
<g id="node14" class="node">
<title>Node14</title>
<g id="a_node14"><a xlink:href="Source__Echange__Th__VDF_8h.html" target="_top" xlink:title=" ">
<polygon fill="white" stroke="black" points="660,-178.5 660,-219.5 797,-219.5 797,-178.5 660,-178.5"/>
<text text-anchor="start" x="668" y="-207.5" font-family="Helvetica,sans-Serif" font-size="10.00">src/VDF/Sources/Sources</text>
<text text-anchor="start" x="668" y="-196.5" font-family="Helvetica,sans-Serif" font-size="10.00">_It_Eval/Source_Echange</text>
<text text-anchor="middle" x="728.5" y="-185.5" font-family="Helvetica,sans-Serif" font-size="10.00">_Th_VDF.h</text>
</a>
</g>
</g>
<!-- Node13&#45;&gt;Node14 -->
<g id="edge15" class="edge">
<title>Node13&#45;&gt;Node14</title>
<path fill="none" stroke="midnightblue" d="M710.61,-246.88C714.11,-237.72 717.88,-227.83 721.06,-219.51"/>
<polygon fill="midnightblue" stroke="midnightblue" points="707.26,-245.84 706.97,-256.43 713.8,-248.33 707.26,-245.84"/>
</g>
<!-- Node16 -->
<g id="node16" class="node">
<title>Node16</title>
<g id="a_node16"><a xlink:href="Terme__Puissance__Thermique__VDF__base_8h.html" target="_top" xlink:title=" ">
<polygon fill="white" stroke="black" points="815.5,-178.5 815.5,-219.5 957.5,-219.5 957.5,-178.5 815.5,-178.5"/>
<text text-anchor="start" x="823.5" y="-207.5" font-family="Helvetica,sans-Serif" font-size="10.00">src/VDF/Sources/Sources</text>
<text text-anchor="start" x="823.5" y="-196.5" font-family="Helvetica,sans-Serif" font-size="10.00">_It_Eval/Terme_Puissance</text>
<text text-anchor="middle" x="886.5" y="-185.5" font-family="Helvetica,sans-Serif" font-size="10.00">_Thermique_VDF_base.h</text>
</a>
</g>
</g>
<!-- Node13&#45;&gt;Node16 -->
<g id="edge19" class="edge">
<title>Node13&#45;&gt;Node16</title>
<path fill="none" stroke="midnightblue" d="M757.06,-252.61C783.16,-242 813.66,-229.6 838.51,-219.51"/>
<polygon fill="midnightblue" stroke="midnightblue" points="755.6,-249.42 747.66,-256.43 758.24,-255.91 755.6,-249.42"/>
</g>
<!-- Node24 -->
<g id="node24" class="node">
<title>Node24</title>
<g id="a_node24"><a xlink:href="Terme__Source__Constituant__VDF__Elem_8h.html" target="_top" xlink:title=" ">
<polygon fill="white" stroke="black" points="976,-178.5 976,-219.5 1119,-219.5 1119,-178.5 976,-178.5"/>
<text text-anchor="start" x="984" y="-207.5" font-family="Helvetica,sans-Serif" font-size="10.00">src/VDF/Sources/Sources</text>
<text text-anchor="start" x="984" y="-196.5" font-family="Helvetica,sans-Serif" font-size="10.00">_It_Eval/Terme_Source</text>
<text text-anchor="middle" x="1047.5" y="-185.5" font-family="Helvetica,sans-Serif" font-size="10.00">_Constituant_VDF_Elem.h</text>
</a>
</g>
</g>
<!-- Node13&#45;&gt;Node24 -->
<g id="edge27" class="edge">
<title>Node13&#45;&gt;Node24</title>
<path fill="none" stroke="midnightblue" d="M778.3,-260.23C831.55,-249.39 903.38,-234.41 966.5,-220 969.61,-219.29 972.78,-218.56 975.98,-217.8"/>
<polygon fill="midnightblue" stroke="midnightblue" points="777.34,-256.86 768.24,-262.28 778.74,-263.72 777.34,-256.86"/>
</g>
<!-- Node26 -->
<g id="node26" class="node">
<title>Node26</title>
<g id="a_node26"><a xlink:href="Terme__Source__VDF__base_8cpp.html" target="_top" xlink:title=" ">
<polygon fill="white" stroke="black" points="1137,-178.5 1137,-219.5 1274,-219.5 1274,-178.5 1137,-178.5"/>
<text text-anchor="start" x="1145" y="-207.5" font-family="Helvetica,sans-Serif" font-size="10.00">src/VDF/Sources/Sources</text>
<text text-anchor="start" x="1145" y="-196.5" font-family="Helvetica,sans-Serif" font-size="10.00">_It_Eval/Terme_Source</text>
<text text-anchor="middle" x="1205.5" y="-185.5" font-family="Helvetica,sans-Serif" font-size="10.00">_VDF_base.cpp</text>
</a>
</g>
</g>
<!-- Node13&#45;&gt;Node26 -->
<g id="edge29" class="edge">
<title>Node13&#45;&gt;Node26</title>
<path fill="none" stroke="midnightblue" d="M778.08,-268.6C864.27,-259.81 1006.47,-243.35 1127.5,-220 1130.52,-219.42 1133.6,-218.79 1136.7,-218.12"/>
<polygon fill="midnightblue" stroke="midnightblue" points="777.7,-265.12 768.11,-269.61 778.41,-272.08 777.7,-265.12"/>
</g>
<!-- Node15 -->
<g id="node15" class="node">
<title>Node15</title>
<g id="a_node15"><a xlink:href="Source__Echange__Th__VDF_8cpp.html" target="_top" xlink:title=" ">
<polygon fill="white" stroke="black" points="660,-95 660,-136 797,-136 797,-95 660,-95"/>
<text text-anchor="start" x="668" y="-124" font-family="Helvetica,sans-Serif" font-size="10.00">src/VDF/Sources/Sources</text>
<text text-anchor="start" x="668" y="-113" font-family="Helvetica,sans-Serif" font-size="10.00">_It_Eval/Source_Echange</text>
<text text-anchor="middle" x="728.5" y="-102" font-family="Helvetica,sans-Serif" font-size="10.00">_Th_VDF.cpp</text>
</a>
</g>
</g>
<!-- Node14&#45;&gt;Node15 -->
<g id="edge16" class="edge">
<title>Node14&#45;&gt;Node15</title>
<path fill="none" stroke="midnightblue" d="M728.5,-168.06C728.5,-157.38 728.5,-145.63 728.5,-136.05"/>
<polygon fill="midnightblue" stroke="midnightblue" points="725,-168.27 728.5,-178.27 732,-168.27 725,-168.27"/>
</g>
<!-- Node17 -->
<g id="node17" class="node">
<title>Node17</title>
<g id="a_node17"><a xlink:href="Terme__Puissance__Thermique__QC__VDF__Elem_8h.html" target="_top" xlink:title=" ">
<polygon fill="white" stroke="black" points="1142.5,-89.5 1142.5,-141.5 1300.5,-141.5 1300.5,-89.5 1142.5,-89.5"/>
<text text-anchor="start" x="1150.5" y="-129.5" font-family="Helvetica,sans-Serif" font-size="10.00">src/ThHyd/Dilatable</text>
<text text-anchor="start" x="1150.5" y="-118.5" font-family="Helvetica,sans-Serif" font-size="10.00">/Quasi_Compressible</text>
<text text-anchor="start" x="1150.5" y="-107.5" font-family="Helvetica,sans-Serif" font-size="10.00">/VDF/Terme_Puissance</text>
<text text-anchor="middle" x="1221.5" y="-96.5" font-family="Helvetica,sans-Serif" font-size="10.00">_Thermique_QC_VDF_Elem.h</text>
</a>
</g>
</g>
<!-- Node16&#45;&gt;Node17 -->
<g id="edge20" class="edge">
<title>Node16&#45;&gt;Node17</title>
<path fill="none" stroke="midnightblue" d="M967.46,-177.82C1042.14,-160.74 1062.9,-159.82 1133.5,-142 1136.43,-141.26 1139.41,-140.49 1142.42,-139.7"/>
<polygon fill="midnightblue" stroke="midnightblue" points="966.53,-174.44 957.57,-180.1 968.1,-181.26 966.53,-174.44"/>
</g>
<!-- Node19 -->
<g id="node19" class="node">
<title>Node19</title>
<g id="a_node19"><a xlink:href="Source__Dirac__VDF__Elem_8h.html" target="_top" xlink:title=" ">
<polygon fill="white" stroke="black" points="1319,-95 1319,-136 1456,-136 1456,-95 1319,-95"/>
<text text-anchor="start" x="1327" y="-124" font-family="Helvetica,sans-Serif" font-size="10.00">src/VDF/Sources/Sources</text>
<text text-anchor="start" x="1327" y="-113" font-family="Helvetica,sans-Serif" font-size="10.00">_It_Eval/Source_Dirac</text>
<text text-anchor="middle" x="1387.5" y="-102" font-family="Helvetica,sans-Serif" font-size="10.00">_VDF_Elem.h</text>
</a>
</g>
</g>
<!-- Node16&#45;&gt;Node19 -->
<g id="edge22" class="edge">
<title>Node16&#45;&gt;Node19</title>
<path fill="none" stroke="midnightblue" d="M968.04,-177.86C1119.31,-152.29 1162.81,-173.31 1309.5,-142 1317.02,-140.39 1324.84,-138.33 1332.5,-136.08"/>
<polygon fill="midnightblue" stroke="midnightblue" points="967.18,-174.46 957.92,-179.62 968.37,-181.36 967.18,-174.46"/>
</g>
<!-- Node21 -->
<g id="node21" class="node">
<title>Node21</title>
<g id="a_node21"><a xlink:href="Terme__Puissance__Thermique__VDF__Elem_8h.html" target="_top" xlink:title=" ">
<polygon fill="white" stroke="black" points="815.5,-95 815.5,-136 957.5,-136 957.5,-95 815.5,-95"/>
<text text-anchor="start" x="823.5" y="-124" font-family="Helvetica,sans-Serif" font-size="10.00">src/VDF/Sources/Sources</text>
<text text-anchor="start" x="823.5" y="-113" font-family="Helvetica,sans-Serif" font-size="10.00">_It_Eval/Terme_Puissance</text>
<text text-anchor="middle" x="886.5" y="-102" font-family="Helvetica,sans-Serif" font-size="10.00">_Thermique_VDF_Elem.h</text>
</a>
</g>
</g>
<!-- Node16&#45;&gt;Node21 -->
<g id="edge24" class="edge">
<title>Node16&#45;&gt;Node21</title>
<path fill="none" stroke="midnightblue" d="M886.5,-168.06C886.5,-157.38 886.5,-145.63 886.5,-136.05"/>
<polygon fill="midnightblue" stroke="midnightblue" points="883,-168.27 886.5,-178.27 890,-168.27 883,-168.27"/>
</g>
<!-- Node23 -->
<g id="node23" class="node">
<title>Node23</title>
<g id="a_node23"><a xlink:href="Terme__Puissance__Thermique__VDF__base_8cpp.html" target="_top" xlink:title=" ">
<polygon fill="white" stroke="black" points="976,-95 976,-136 1125,-136 1125,-95 976,-95"/>
<text text-anchor="start" x="984" y="-124" font-family="Helvetica,sans-Serif" font-size="10.00">src/VDF/Sources/Sources</text>
<text text-anchor="start" x="984" y="-113" font-family="Helvetica,sans-Serif" font-size="10.00">_It_Eval/Terme_Puissance</text>
<text text-anchor="middle" x="1050.5" y="-102" font-family="Helvetica,sans-Serif" font-size="10.00">_Thermique_VDF_base.cpp</text>
</a>
</g>
</g>
<!-- Node16&#45;&gt;Node23 -->
<g id="edge26" class="edge">
<title>Node16&#45;&gt;Node23</title>
<path fill="none" stroke="midnightblue" d="M934.85,-173.97C959.2,-161.87 988.32,-147.4 1011.25,-136"/>
<polygon fill="midnightblue" stroke="midnightblue" points="933.18,-170.89 925.78,-178.48 936.29,-177.16 933.18,-170.89"/>
</g>
<!-- Node18 -->
<g id="node18" class="node">
<title>Node18</title>
<g id="a_node18"><a xlink:href="Terme__Puissance__Thermique__QC__VDF__Elem_8cpp.html" target="_top" xlink:title=" ">
<polygon fill="white" stroke="black" points="1133.5,-0.5 1133.5,-52.5 1303.5,-52.5 1303.5,-0.5 1133.5,-0.5"/>
<text text-anchor="start" x="1141.5" y="-40.5" font-family="Helvetica,sans-Serif" font-size="10.00">src/ThHyd/Dilatable</text>
<text text-anchor="start" x="1141.5" y="-29.5" font-family="Helvetica,sans-Serif" font-size="10.00">/Quasi_Compressible</text>
<text text-anchor="start" x="1141.5" y="-18.5" font-family="Helvetica,sans-Serif" font-size="10.00">/VDF/Terme_Puissance</text>
<text text-anchor="middle" x="1218.5" y="-7.5" font-family="Helvetica,sans-Serif" font-size="10.00">_Thermique_QC_VDF_Elem.cpp</text>
</a>
</g>
</g>
<!-- Node17&#45;&gt;Node18 -->
<g id="edge21" class="edge">
<title>Node17&#45;&gt;Node18</title>
<path fill="none" stroke="midnightblue" d="M1220.28,-79.19C1219.98,-70.28 1219.65,-60.9 1219.37,-52.61"/>
<polygon fill="midnightblue" stroke="midnightblue" points="1216.79,-79.46 1220.63,-89.34 1223.79,-79.22 1216.79,-79.46"/>
</g>
<!-- Node20 -->
<g id="node20" class="node">
<title>Node20</title>
<g id="a_node20"><a xlink:href="Source__Dirac__VDF__Elem_8cpp.html" target="_top" xlink:title=" ">
<polygon fill="white" stroke="black" points="1322,-6 1322,-47 1459,-47 1459,-6 1322,-6"/>
<text text-anchor="start" x="1330" y="-35" font-family="Helvetica,sans-Serif" font-size="10.00">src/VDF/Sources/Sources</text>
<text text-anchor="start" x="1330" y="-24" font-family="Helvetica,sans-Serif" font-size="10.00">_It_Eval/Source_Dirac</text>
<text text-anchor="middle" x="1390.5" y="-13" font-family="Helvetica,sans-Serif" font-size="10.00">_VDF_Elem.cpp</text>
</a>
</g>
</g>
<!-- Node19&#45;&gt;Node20 -->
<g id="edge23" class="edge">
<title>Node19&#45;&gt;Node20</title>
<path fill="none" stroke="midnightblue" d="M1388.54,-84.44C1388.96,-72.1 1389.44,-58.16 1389.82,-47.16"/>
<polygon fill="midnightblue" stroke="midnightblue" points="1385.03,-84.64 1388.18,-94.76 1392.02,-84.88 1385.03,-84.64"/>
</g>
<!-- Node22 -->
<g id="node22" class="node">
<title>Node22</title>
<g id="a_node22"><a xlink:href="Terme__Puissance__Thermique__VDF__Elem_8cpp.html" target="_top" xlink:title=" ">
<polygon fill="white" stroke="black" points="811.5,-6 811.5,-47 961.5,-47 961.5,-6 811.5,-6"/>
<text text-anchor="start" x="819.5" y="-35" font-family="Helvetica,sans-Serif" font-size="10.00">src/VDF/Sources/Sources</text>
<text text-anchor="start" x="819.5" y="-24" font-family="Helvetica,sans-Serif" font-size="10.00">_It_Eval/Terme_Puissance</text>
<text text-anchor="middle" x="886.5" y="-13" font-family="Helvetica,sans-Serif" font-size="10.00">_Thermique_VDF_Elem.cpp</text>
</a>
</g>
</g>
<!-- Node21&#45;&gt;Node22 -->
<g id="edge25" class="edge">
<title>Node21&#45;&gt;Node22</title>
<path fill="none" stroke="midnightblue" d="M886.5,-84.44C886.5,-72.1 886.5,-58.16 886.5,-47.16"/>
<polygon fill="midnightblue" stroke="midnightblue" points="883,-84.76 886.5,-94.76 890,-84.76 883,-84.76"/>
</g>
<!-- Node25 -->
<g id="node25" class="node">
<title>Node25</title>
<g id="a_node25"><a xlink:href="Terme__Source__Constituant__VDF__Elem_8cpp.html" target="_top" xlink:title=" ">
<polygon fill="white" stroke="black" points="1474.5,-95 1474.5,-136 1628.5,-136 1628.5,-95 1474.5,-95"/>
<text text-anchor="start" x="1482.5" y="-124" font-family="Helvetica,sans-Serif" font-size="10.00">src/VDF/Sources/Sources</text>
<text text-anchor="start" x="1482.5" y="-113" font-family="Helvetica,sans-Serif" font-size="10.00">_It_Eval/Terme_Source</text>
<text text-anchor="middle" x="1551.5" y="-102" font-family="Helvetica,sans-Serif" font-size="10.00">_Constituant_VDF_Elem.cpp</text>
</a>
</g>
</g>
<!-- Node24&#45;&gt;Node25 -->
<g id="edge28" class="edge">
<title>Node24&#45;&gt;Node25</title>
<path fill="none" stroke="midnightblue" d="M1129.28,-177.81C1277.62,-152.49 1319.92,-170.67 1464.5,-142 1472.68,-140.38 1481.21,-138.33 1489.58,-136.11"/>
<polygon fill="midnightblue" stroke="midnightblue" points="1128.61,-174.37 1119.36,-179.54 1129.81,-181.27 1128.61,-174.37"/>
</g>
</g>
</svg>
