<?xml version="1.0" encoding="UTF-8" standalone="no"?>
<!DOCTYPE svg PUBLIC "-//W3C//DTD SVG 1.1//EN"
 "http://www.w3.org/Graphics/SVG/1.1/DTD/svg11.dtd">
<!-- Generated by graphviz version 2.43.0 (0)
 -->
<!-- Title: src/Kernel/Utilitaires/LecFicDistribueBin.h Pages: 1 -->
<svg width="888pt" height="128pt"
 viewBox="0.00 0.00 888.00 128.00" xmlns="http://www.w3.org/2000/svg" xmlns:xlink="http://www.w3.org/1999/xlink">
<g id="graph0" class="graph" transform="scale(1 1) rotate(0) translate(4 124)">
<title>src/Kernel/Utilitaires/LecFicDistribueBin.h</title>
<polygon fill="white" stroke="transparent" points="-4,4 -4,-124 884,-124 884,4 -4,4"/>
<!-- Node1 -->
<g id="node1" class="node">
<title>Node1</title>
<g id="a_node1"><a xlink:title=" ">
<polygon fill="#bfbfbf" stroke="black" points="370,-89.5 370,-119.5 489,-119.5 489,-89.5 370,-89.5"/>
<text text-anchor="start" x="378" y="-107.5" font-family="Helvetica,sans-Serif" font-size="10.00">src/Kernel/Utilitaires</text>
<text text-anchor="middle" x="429.5" y="-96.5" font-family="Helvetica,sans-Serif" font-size="10.00">/LecFicDistribueBin.h</text>
</a>
</g>
</g>
<!-- Node2 -->
<g id="node2" class="node">
<title>Node2</title>
<g id="a_node2"><a xlink:href="Scatter_8cpp.html" target="_top" xlink:title=" ">
<polygon fill="white" stroke="black" points="0,-11.5 0,-41.5 119,-41.5 119,-11.5 0,-11.5"/>
<text text-anchor="start" x="8" y="-29.5" font-family="Helvetica,sans-Serif" font-size="10.00">src/Kernel/Geometrie</text>
<text text-anchor="middle" x="59.5" y="-18.5" font-family="Helvetica,sans-Serif" font-size="10.00">/Scatter.cpp</text>
</a>
</g>
</g>
<!-- Node1&#45;&gt;Node2 -->
<g id="edge1" class="edge">
<title>Node1&#45;&gt;Node2</title>
<path fill="none" stroke="midnightblue" d="M359.99,-95.6C298.47,-87.73 206.59,-73.78 128.5,-53 116.9,-49.91 104.51,-45.65 93.49,-41.5"/>
<polygon fill="midnightblue" stroke="midnightblue" points="359.61,-99.08 369.97,-96.86 360.49,-92.14 359.61,-99.08"/>
</g>
<!-- Node3 -->
<g id="node3" class="node">
<title>Node3</title>
<g id="a_node3"><a xlink:href="Solv__Optimal_8cpp.html" target="_top" xlink:title=" ">
<polygon fill="white" stroke="black" points="137.5,-11.5 137.5,-41.5 271.5,-41.5 271.5,-11.5 137.5,-11.5"/>
<text text-anchor="start" x="145.5" y="-29.5" font-family="Helvetica,sans-Serif" font-size="10.00">src/Kernel/Math/SolvSys</text>
<text text-anchor="middle" x="204.5" y="-18.5" font-family="Helvetica,sans-Serif" font-size="10.00">/Solv_Optimal.cpp</text>
</a>
</g>
</g>
<!-- Node1&#45;&gt;Node3 -->
<g id="edge2" class="edge">
<title>Node1&#45;&gt;Node3</title>
<path fill="none" stroke="midnightblue" d="M378.4,-86.24C338.42,-72.73 283.52,-54.19 246.17,-41.57"/>
<polygon fill="midnightblue" stroke="midnightblue" points="377.38,-89.59 387.97,-89.47 379.62,-82.96 377.38,-89.59"/>
</g>
<!-- Node4 -->
<g id="node4" class="node">
<title>Node4</title>
<g id="a_node4"><a xlink:href="LecFicDistribueBin_8cpp.html" target="_top" xlink:title=" ">
<polygon fill="white" stroke="black" points="289.5,-11.5 289.5,-41.5 419.5,-41.5 419.5,-11.5 289.5,-11.5"/>
<text text-anchor="start" x="297.5" y="-29.5" font-family="Helvetica,sans-Serif" font-size="10.00">src/Kernel/Utilitaires</text>
<text text-anchor="middle" x="354.5" y="-18.5" font-family="Helvetica,sans-Serif" font-size="10.00">/LecFicDistribueBin.cpp</text>
</a>
</g>
</g>
<!-- Node1&#45;&gt;Node4 -->
<g id="edge3" class="edge">
<title>Node1&#45;&gt;Node4</title>
<path fill="none" stroke="midnightblue" d="M408.32,-82.03C395.58,-69.13 379.74,-53.07 368.54,-41.73"/>
<polygon fill="midnightblue" stroke="midnightblue" points="405.88,-84.55 415.39,-89.2 410.86,-79.63 405.88,-84.55"/>
</g>
<!-- Node5 -->
<g id="node5" class="node">
<title>Node5</title>
<g id="a_node5"><a xlink:href="Op__Diff__RotRot_8cpp.html" target="_top" xlink:title=" ">
<polygon fill="white" stroke="black" points="437.5,-11.5 437.5,-41.5 573.5,-41.5 573.5,-11.5 437.5,-11.5"/>
<text text-anchor="start" x="445.5" y="-29.5" font-family="Helvetica,sans-Serif" font-size="10.00">src/P1NCP1B/Operateurs</text>
<text text-anchor="middle" x="505.5" y="-18.5" font-family="Helvetica,sans-Serif" font-size="10.00">/Op_Diff_RotRot.cpp</text>
</a>
</g>
</g>
<!-- Node1&#45;&gt;Node5 -->
<g id="edge4" class="edge">
<title>Node1&#45;&gt;Node5</title>
<path fill="none" stroke="midnightblue" d="M450.97,-82.03C463.87,-69.13 479.93,-53.07 491.27,-41.73"/>
<polygon fill="midnightblue" stroke="midnightblue" points="448.39,-79.66 443.8,-89.2 453.34,-84.61 448.39,-79.66"/>
</g>
<!-- Node6 -->
<g id="node6" class="node">
<title>Node6</title>
<g id="a_node6"><a xlink:href="Traitement__particulier__NS__Profils_8cpp.html" target="_top" xlink:title=" ">
<polygon fill="white" stroke="black" points="592,-0.5 592,-52.5 735,-52.5 735,-0.5 592,-0.5"/>
<text text-anchor="start" x="600" y="-40.5" font-family="Helvetica,sans-Serif" font-size="10.00">src/ThHyd/Incompressible</text>
<text text-anchor="start" x="600" y="-29.5" font-family="Helvetica,sans-Serif" font-size="10.00">/Traitement_particulier</text>
<text text-anchor="start" x="600" y="-18.5" font-family="Helvetica,sans-Serif" font-size="10.00">/Traitement_particulier</text>
<text text-anchor="middle" x="663.5" y="-7.5" font-family="Helvetica,sans-Serif" font-size="10.00">_NS_Profils.cpp</text>
</a>
</g>
</g>
<!-- Node1&#45;&gt;Node6 -->
<g id="edge5" class="edge">
<title>Node1&#45;&gt;Node6</title>
<path fill="none" stroke="midnightblue" d="M482.39,-86.32C514.67,-75.84 556.36,-62.3 591.6,-50.85"/>
<polygon fill="midnightblue" stroke="midnightblue" points="481.12,-83.05 472.69,-89.47 483.28,-89.71 481.12,-83.05"/>
</g>
<!-- Node7 -->
<g id="node7" class="node">
<title>Node7</title>
<g id="a_node7"><a xlink:href="Traitement__particulier__NS__Profils__thermo__VDF_8cpp.html" target="_top" xlink:title=" ">
<polygon fill="white" stroke="black" points="753,-0.5 753,-52.5 880,-52.5 880,-0.5 753,-0.5"/>
<text text-anchor="start" x="761" y="-40.5" font-family="Helvetica,sans-Serif" font-size="10.00">src/VDF/Traitement</text>
<text text-anchor="start" x="761" y="-29.5" font-family="Helvetica,sans-Serif" font-size="10.00">_particulier/Traitement</text>
<text text-anchor="start" x="761" y="-18.5" font-family="Helvetica,sans-Serif" font-size="10.00">_particulier_NS_Profils</text>
<text text-anchor="middle" x="816.5" y="-7.5" font-family="Helvetica,sans-Serif" font-size="10.00">_thermo_VDF.cpp</text>
</a>
</g>
</g>
<!-- Node1&#45;&gt;Node7 -->
<g id="edge6" class="edge">
<title>Node1&#45;&gt;Node7</title>
<path fill="none" stroke="midnightblue" d="M499.11,-96.02C563.43,-88.24 661.34,-74.21 744.5,-53 747.2,-52.31 749.94,-51.57 752.7,-50.77"/>
<polygon fill="midnightblue" stroke="midnightblue" points="498.6,-92.56 489.08,-97.21 499.43,-99.51 498.6,-92.56"/>
</g>
</g>
</svg>
