<?xml version="1.0" encoding="UTF-8" standalone="no"?>
<!DOCTYPE svg PUBLIC "-//W3C//DTD SVG 1.1//EN"
 "http://www.w3.org/Graphics/SVG/1.1/DTD/svg11.dtd">
<!-- Generated by graphviz version 2.43.0 (0)
 -->
<!-- Title: src/Kernel/Utilitaires/LecFicDiffuse_JDD.h Pages: 1 -->
<svg width="842pt" height="106pt"
 viewBox="0.00 0.00 841.50 106.00" xmlns="http://www.w3.org/2000/svg" xmlns:xlink="http://www.w3.org/1999/xlink">
<g id="graph0" class="graph" transform="scale(1 1) rotate(0) translate(4 102)">
<title>src/Kernel/Utilitaires/LecFicDiffuse_JDD.h</title>
<polygon fill="white" stroke="transparent" points="-4,4 -4,-102 837.5,-102 837.5,4 -4,4"/>
<!-- Node1 -->
<g id="node1" class="node">
<title>Node1</title>
<g id="a_node1"><a xlink:title=" ">
<polygon fill="#bfbfbf" stroke="black" points="353,-67.5 353,-97.5 469,-97.5 469,-67.5 353,-67.5"/>
<text text-anchor="start" x="361" y="-85.5" font-family="Helvetica,sans-Serif" font-size="10.00">src/Kernel/Utilitaires</text>
<text text-anchor="middle" x="411" y="-74.5" font-family="Helvetica,sans-Serif" font-size="10.00">/LecFicDiffuse_JDD.h</text>
</a>
</g>
</g>
<!-- Node2 -->
<g id="node2" class="node">
<title>Node2</title>
<g id="a_node2"><a xlink:href="Postraitement_8cpp.html" target="_top" xlink:title=" ">
<polygon fill="white" stroke="black" points="0,-0.5 0,-30.5 122,-30.5 122,-0.5 0,-0.5"/>
<text text-anchor="start" x="8" y="-18.5" font-family="Helvetica,sans-Serif" font-size="10.00">src/Kernel/Framework</text>
<text text-anchor="middle" x="61" y="-7.5" font-family="Helvetica,sans-Serif" font-size="10.00">/Postraitement.cpp</text>
</a>
</g>
</g>
<!-- Node1&#45;&gt;Node2 -->
<g id="edge1" class="edge">
<title>Node1&#45;&gt;Node2</title>
<path fill="none" stroke="midnightblue" d="M342.8,-69.71C286.05,-59.77 203.17,-44.98 131,-31 128.08,-30.43 125.08,-29.85 122.06,-29.25"/>
<polygon fill="midnightblue" stroke="midnightblue" points="342.28,-73.17 352.73,-71.44 343.49,-66.27 342.28,-73.17"/>
</g>
<!-- Node3 -->
<g id="node3" class="node">
<title>Node3</title>
<g id="a_node3"><a xlink:href="Sondes_8cpp.html" target="_top" xlink:title=" ">
<polygon fill="white" stroke="black" points="140,-0.5 140,-30.5 262,-30.5 262,-0.5 140,-0.5"/>
<text text-anchor="start" x="148" y="-18.5" font-family="Helvetica,sans-Serif" font-size="10.00">src/Kernel/Framework</text>
<text text-anchor="middle" x="201" y="-7.5" font-family="Helvetica,sans-Serif" font-size="10.00">/Sondes.cpp</text>
</a>
</g>
</g>
<!-- Node1&#45;&gt;Node3 -->
<g id="edge2" class="edge">
<title>Node1&#45;&gt;Node3</title>
<path fill="none" stroke="midnightblue" d="M355.9,-64.44C321.86,-53.91 278.7,-40.55 246.59,-30.61"/>
<polygon fill="midnightblue" stroke="midnightblue" points="355.1,-67.86 365.69,-67.48 357.17,-61.18 355.1,-67.86"/>
</g>
<!-- Node4 -->
<g id="node4" class="node">
<title>Node4</title>
<g id="a_node4"><a xlink:href="Execute__parallel_8cpp.html" target="_top" xlink:title=" ">
<polygon fill="white" stroke="black" points="280,-0.5 280,-30.5 400,-30.5 400,-0.5 280,-0.5"/>
<text text-anchor="start" x="288" y="-18.5" font-family="Helvetica,sans-Serif" font-size="10.00">src/Kernel/Utilitaires</text>
<text text-anchor="middle" x="340" y="-7.5" font-family="Helvetica,sans-Serif" font-size="10.00">/Execute_parallel.cpp</text>
</a>
</g>
</g>
<!-- Node1&#45;&gt;Node4 -->
<g id="edge3" class="edge">
<title>Node1&#45;&gt;Node4</title>
<path fill="none" stroke="midnightblue" d="M388.17,-60.6C377.45,-50.78 364.95,-39.34 355.38,-30.58"/>
<polygon fill="midnightblue" stroke="midnightblue" points="385.85,-63.22 395.59,-67.4 390.58,-58.06 385.85,-63.22"/>
</g>
<!-- Node5 -->
<g id="node5" class="node">
<title>Node5</title>
<g id="a_node5"><a xlink:href="LecFicDiffuse__JDD_8cpp.html" target="_top" xlink:title=" ">
<polygon fill="white" stroke="black" points="418,-0.5 418,-30.5 546,-30.5 546,-0.5 418,-0.5"/>
<text text-anchor="start" x="426" y="-18.5" font-family="Helvetica,sans-Serif" font-size="10.00">src/Kernel/Utilitaires</text>
<text text-anchor="middle" x="482" y="-7.5" font-family="Helvetica,sans-Serif" font-size="10.00">/LecFicDiffuse_JDD.cpp</text>
</a>
</g>
</g>
<!-- Node1&#45;&gt;Node5 -->
<g id="edge4" class="edge">
<title>Node1&#45;&gt;Node5</title>
<path fill="none" stroke="midnightblue" d="M433.83,-60.6C444.55,-50.78 457.05,-39.34 466.62,-30.58"/>
<polygon fill="midnightblue" stroke="midnightblue" points="431.42,-58.06 426.41,-67.4 436.15,-63.22 431.42,-58.06"/>
</g>
<!-- Node6 -->
<g id="node6" class="node">
<title>Node6</title>
<g id="a_node6"><a xlink:href="Lire__Fichier_8cpp.html" target="_top" xlink:title=" ">
<polygon fill="white" stroke="black" points="564,-0.5 564,-30.5 680,-30.5 680,-0.5 564,-0.5"/>
<text text-anchor="start" x="572" y="-18.5" font-family="Helvetica,sans-Serif" font-size="10.00">src/Kernel/Utilitaires</text>
<text text-anchor="middle" x="622" y="-7.5" font-family="Helvetica,sans-Serif" font-size="10.00">/Lire_Fichier.cpp</text>
</a>
</g>
</g>
<!-- Node1&#45;&gt;Node6 -->
<g id="edge5" class="edge">
<title>Node1&#45;&gt;Node6</title>
<path fill="none" stroke="midnightblue" d="M466.37,-64.44C500.57,-53.91 543.93,-40.55 576.19,-30.61"/>
<polygon fill="midnightblue" stroke="midnightblue" points="465.05,-61.19 456.52,-67.48 467.11,-67.88 465.05,-61.19"/>
</g>
<!-- Node7 -->
<g id="node7" class="node">
<title>Node7</title>
<g id="a_node7"><a xlink:href="mon__main_8cpp.html" target="_top" xlink:title=" ">
<polygon fill="white" stroke="black" points="698.5,-6 698.5,-25 833.5,-25 833.5,-6 698.5,-6"/>
<text text-anchor="middle" x="766" y="-13" font-family="Helvetica,sans-Serif" font-size="10.00">src/MAIN/mon_main.cpp</text>
</a>
</g>
</g>
<!-- Node1&#45;&gt;Node7 -->
<g id="edge6" class="edge">
<title>Node1&#45;&gt;Node7</title>
<path fill="none" stroke="midnightblue" d="M478.91,-69.29C535.21,-59.14 617.33,-44.26 689,-31 699.3,-29.09 710.37,-27.02 720.81,-25.06"/>
<polygon fill="midnightblue" stroke="midnightblue" points="478.28,-65.85 469.06,-71.07 479.52,-72.74 478.28,-65.85"/>
</g>
</g>
</svg>
