<?xml version="1.0" encoding="UTF-8" standalone="no"?>
<!DOCTYPE svg PUBLIC "-//W3C//DTD SVG 1.1//EN"
 "http://www.w3.org/Graphics/SVG/1.1/DTD/svg11.dtd">
<!-- Generated by graphviz version 2.43.0 (0)
 -->
<!-- Title: src/Kernel/Utilitaires/Lire.cpp Pages: 1 -->
<svg width="828pt" height="879pt"
 viewBox="0.00 0.00 828.00 879.00" xmlns="http://www.w3.org/2000/svg" xmlns:xlink="http://www.w3.org/1999/xlink">
<g id="graph0" class="graph" transform="scale(1 1) rotate(0) translate(4 875)">
<title>src/Kernel/Utilitaires/Lire.cpp</title>
<polygon fill="white" stroke="transparent" points="-4,4 -4,-875 824,-875 824,4 -4,4"/>
<!-- Node1 -->
<g id="node1" class="node">
<title>Node1</title>
<g id="a_node1"><a xlink:title=" ">
<polygon fill="#bfbfbf" stroke="black" points="585,-840.5 585,-870.5 701,-870.5 701,-840.5 585,-840.5"/>
<text text-anchor="start" x="593" y="-858.5" font-family="Helvetica,sans-Serif" font-size="10.00">src/Kernel/Utilitaires</text>
<text text-anchor="middle" x="643" y="-847.5" font-family="Helvetica,sans-Serif" font-size="10.00">/Lire.cpp</text>
</a>
</g>
</g>
<!-- Node2 -->
<g id="node2" class="node">
<title>Node2</title>
<g id="a_node2"><a xlink:href="Lire_8h.html" target="_top" xlink:title=" ">
<polygon fill="white" stroke="black" points="621,-784.5 621,-803.5 665,-803.5 665,-784.5 621,-784.5"/>
<text text-anchor="middle" x="643" y="-791.5" font-family="Helvetica,sans-Serif" font-size="10.00">Lire.h</text>
</a>
</g>
</g>
<!-- Node1&#45;&gt;Node2 -->
<g id="edge1" class="edge">
<title>Node1&#45;&gt;Node2</title>
<path fill="none" stroke="midnightblue" d="M643,-840.4C643,-832.47 643,-822.46 643,-813.86"/>
<polygon fill="midnightblue" stroke="midnightblue" points="646.5,-813.66 643,-803.66 639.5,-813.66 646.5,-813.66"/>
</g>
<!-- Node28 -->
<g id="node28" class="node">
<title>Node28</title>
<g id="a_node28"><a xlink:href="Synonyme__info_8h.html" target="_top" xlink:title=" ">
<polygon fill="white" stroke="black" points="677.5,-672.5 677.5,-691.5 778.5,-691.5 778.5,-672.5 677.5,-672.5"/>
<text text-anchor="middle" x="728" y="-679.5" font-family="Helvetica,sans-Serif" font-size="10.00">Synonyme_info.h</text>
</a>
</g>
</g>
<!-- Node1&#45;&gt;Node28 -->
<g id="edge35" class="edge">
<title>Node1&#45;&gt;Node28</title>
<path fill="none" stroke="midnightblue" d="M652.47,-840.21C658.89,-830.25 667.38,-816.56 674,-804 692.7,-768.53 710.97,-725.27 720.72,-701.27"/>
<polygon fill="midnightblue" stroke="midnightblue" points="724.09,-702.28 724.58,-691.69 717.6,-699.66 724.09,-702.28"/>
</g>
<!-- Node29 -->
<g id="node29" class="node">
<title>Node29</title>
<g id="a_node29"><a xlink:href="Interprete__bloc_8h.html" target="_top" xlink:title=" ">
<polygon fill="white" stroke="black" points="497.5,-784.5 497.5,-803.5 596.5,-803.5 596.5,-784.5 497.5,-784.5"/>
<text text-anchor="middle" x="547" y="-791.5" font-family="Helvetica,sans-Serif" font-size="10.00">Interprete_bloc.h</text>
</a>
</g>
</g>
<!-- Node1&#45;&gt;Node29 -->
<g id="edge37" class="edge">
<title>Node1&#45;&gt;Node29</title>
<path fill="none" stroke="midnightblue" d="M620.25,-840.4C605.01,-830.95 585.01,-818.56 569.76,-809.11"/>
<polygon fill="midnightblue" stroke="midnightblue" points="571.31,-805.95 560.97,-803.66 567.62,-811.9 571.31,-805.95"/>
</g>
<!-- Node3 -->
<g id="node3" class="node">
<title>Node3</title>
<g id="a_node3"><a xlink:href="Interprete_8h.html" target="_top" xlink:title=" ">
<polygon fill="white" stroke="black" points="606,-728.5 606,-747.5 680,-747.5 680,-728.5 606,-728.5"/>
<text text-anchor="middle" x="643" y="-735.5" font-family="Helvetica,sans-Serif" font-size="10.00">Interprete.h</text>
</a>
</g>
</g>
<!-- Node2&#45;&gt;Node3 -->
<g id="edge2" class="edge">
<title>Node2&#45;&gt;Node3</title>
<path fill="none" stroke="midnightblue" d="M643,-784.08C643,-777.01 643,-766.86 643,-757.99"/>
<polygon fill="midnightblue" stroke="midnightblue" points="646.5,-757.75 643,-747.75 639.5,-757.75 646.5,-757.75"/>
</g>
<!-- Node4 -->
<g id="node4" class="node">
<title>Node4</title>
<g id="a_node4"><a xlink:href="Ref_8h.html" target="_top" xlink:title=" ">
<polygon fill="white" stroke="black" points="629.5,-616.5 629.5,-635.5 670.5,-635.5 670.5,-616.5 629.5,-616.5"/>
<text text-anchor="middle" x="650" y="-623.5" font-family="Helvetica,sans-Serif" font-size="10.00">Ref.h</text>
</a>
</g>
</g>
<!-- Node3&#45;&gt;Node4 -->
<g id="edge3" class="edge">
<title>Node3&#45;&gt;Node4</title>
<path fill="none" stroke="midnightblue" d="M643.55,-728.37C644.68,-710.62 647.28,-669.67 648.82,-645.6"/>
<polygon fill="midnightblue" stroke="midnightblue" points="652.31,-645.79 649.45,-635.59 645.33,-645.35 652.31,-645.79"/>
</g>
<!-- Node5 -->
<g id="node5" class="node">
<title>Node5</title>
<g id="a_node5"><a xlink:href="MacRef_8h.html" target="_top" xlink:title=" ">
<polygon fill="white" stroke="black" points="622,-560.5 622,-579.5 684,-579.5 684,-560.5 622,-560.5"/>
<text text-anchor="middle" x="653" y="-567.5" font-family="Helvetica,sans-Serif" font-size="10.00">MacRef.h</text>
</a>
</g>
</g>
<!-- Node4&#45;&gt;Node5 -->
<g id="edge4" class="edge">
<title>Node4&#45;&gt;Node5</title>
<path fill="none" stroke="midnightblue" d="M650.5,-616.08C650.89,-609.01 651.45,-598.86 651.95,-589.99"/>
<polygon fill="midnightblue" stroke="midnightblue" points="655.45,-589.93 652.51,-579.75 648.46,-589.54 655.45,-589.93"/>
</g>
<!-- Node6 -->
<g id="node6" class="node">
<title>Node6</title>
<g id="a_node6"><a xlink:href="Ref___8h.html" target="_top" xlink:title=" ">
<polygon fill="white" stroke="black" points="629.5,-504.5 629.5,-523.5 676.5,-523.5 676.5,-504.5 629.5,-504.5"/>
<text text-anchor="middle" x="653" y="-511.5" font-family="Helvetica,sans-Serif" font-size="10.00">Ref_.h</text>
</a>
</g>
</g>
<!-- Node5&#45;&gt;Node6 -->
<g id="edge5" class="edge">
<title>Node5&#45;&gt;Node6</title>
<path fill="none" stroke="midnightblue" d="M653,-560.08C653,-553.01 653,-542.86 653,-533.99"/>
<polygon fill="midnightblue" stroke="midnightblue" points="656.5,-533.75 653,-523.75 649.5,-533.75 656.5,-533.75"/>
</g>
<!-- Node7 -->
<g id="node7" class="node">
<title>Node7</title>
<g id="a_node7"><a xlink:href="O__U__Ptr_8h.html" target="_top" xlink:title=" ">
<polygon fill="white" stroke="black" points="439,-280.5 439,-299.5 503,-299.5 503,-280.5 439,-280.5"/>
<text text-anchor="middle" x="471" y="-287.5" font-family="Helvetica,sans-Serif" font-size="10.00">O_U_Ptr.h</text>
</a>
</g>
</g>
<!-- Node6&#45;&gt;Node7 -->
<g id="edge6" class="edge">
<title>Node6&#45;&gt;Node7</title>
<path fill="none" stroke="midnightblue" d="M655.78,-504.31C661.96,-483.3 674.63,-428.75 653,-392 622.9,-340.86 556.53,-313.77 512.81,-300.92"/>
<polygon fill="midnightblue" stroke="midnightblue" points="513.6,-297.51 503.03,-298.17 511.71,-304.25 513.6,-297.51"/>
</g>
<!-- Node26 -->
<g id="node26" class="node">
<title>Node26</title>
<g id="a_node26"><a xlink:href="Nom_8h.html" target="_top" xlink:title=" ">
<polygon fill="white" stroke="black" points="569.5,-448.5 569.5,-467.5 618.5,-467.5 618.5,-448.5 569.5,-448.5"/>
<text text-anchor="middle" x="594" y="-455.5" font-family="Helvetica,sans-Serif" font-size="10.00">Nom.h</text>
</a>
</g>
</g>
<!-- Node6&#45;&gt;Node26 -->
<g id="edge31" class="edge">
<title>Node6&#45;&gt;Node26</title>
<path fill="none" stroke="midnightblue" d="M643.52,-504.32C634.8,-496.34 621.66,-484.31 611.1,-474.65"/>
<polygon fill="midnightblue" stroke="midnightblue" points="613.39,-472 603.65,-467.83 608.67,-477.17 613.39,-472"/>
</g>
<!-- Node8 -->
<g id="node8" class="node">
<title>Node8</title>
<g id="a_node8"><a xlink:href="Objet__U_8h.html" target="_top" xlink:title=" ">
<polygon fill="white" stroke="black" points="435.5,-224.5 435.5,-243.5 500.5,-243.5 500.5,-224.5 435.5,-224.5"/>
<text text-anchor="middle" x="468" y="-231.5" font-family="Helvetica,sans-Serif" font-size="10.00">Objet_U.h</text>
</a>
</g>
</g>
<!-- Node7&#45;&gt;Node8 -->
<g id="edge7" class="edge">
<title>Node7&#45;&gt;Node8</title>
<path fill="none" stroke="midnightblue" d="M470.5,-280.08C470.11,-273.01 469.55,-262.86 469.05,-253.99"/>
<polygon fill="midnightblue" stroke="midnightblue" points="472.54,-253.54 468.49,-243.75 465.55,-253.93 472.54,-253.54"/>
</g>
<!-- Node9 -->
<g id="node9" class="node">
<title>Node9</title>
<g id="a_node9"><a xlink:title=" ">
<polygon fill="white" stroke="#bfbfbf" points="426,-56.5 426,-75.5 482,-75.5 482,-56.5 426,-56.5"/>
<text text-anchor="middle" x="454" y="-63.5" font-family="Helvetica,sans-Serif" font-size="10.00">assert.h</text>
</a>
</g>
</g>
<!-- Node8&#45;&gt;Node9 -->
<g id="edge8" class="edge">
<title>Node8&#45;&gt;Node9</title>
<path fill="none" stroke="midnightblue" d="M467.25,-224.08C465.04,-197.95 458.57,-121.21 455.57,-85.58"/>
<polygon fill="midnightblue" stroke="midnightblue" points="459.05,-85.24 454.72,-75.57 452.08,-85.83 459.05,-85.24"/>
</g>
<!-- Node10 -->
<g id="node10" class="node">
<title>Node10</title>
<g id="a_node10"><a xlink:href="DecBaseInst_8h.html" target="_top" xlink:title=" ">
<polygon fill="white" stroke="black" points="259,-168.5 259,-187.5 345,-187.5 345,-168.5 259,-168.5"/>
<text text-anchor="middle" x="302" y="-175.5" font-family="Helvetica,sans-Serif" font-size="10.00">DecBaseInst.h</text>
</a>
</g>
</g>
<!-- Node8&#45;&gt;Node10 -->
<g id="edge9" class="edge">
<title>Node8&#45;&gt;Node10</title>
<path fill="none" stroke="midnightblue" d="M441.7,-224.44C413.65,-215.32 369.06,-200.81 337.82,-190.65"/>
<polygon fill="midnightblue" stroke="midnightblue" points="338.77,-187.28 328.18,-187.52 336.61,-193.94 338.77,-187.28"/>
</g>
<!-- Node15 -->
<g id="node15" class="node">
<title>Node15</title>
<g id="a_node15"><a xlink:href="EntreeSortie_8h.html" target="_top" xlink:title=" ">
<polygon fill="white" stroke="black" points="535,-168.5 535,-187.5 621,-187.5 621,-168.5 535,-168.5"/>
<text text-anchor="middle" x="578" y="-175.5" font-family="Helvetica,sans-Serif" font-size="10.00">EntreeSortie.h</text>
</a>
</g>
</g>
<!-- Node8&#45;&gt;Node15 -->
<g id="edge15" class="edge">
<title>Node8&#45;&gt;Node15</title>
<path fill="none" stroke="midnightblue" d="M485.67,-224.32C503.39,-215.62 530.9,-202.12 551.29,-192.11"/>
<polygon fill="midnightblue" stroke="midnightblue" points="552.94,-195.2 560.37,-187.65 549.85,-188.92 552.94,-195.2"/>
</g>
<!-- Node20 -->
<g id="node20" class="node">
<title>Node20</title>
<g id="a_node20"><a xlink:href="Process_8h.html" target="_top" xlink:title=" ">
<polygon fill="white" stroke="black" points="257.5,-56.5 257.5,-75.5 320.5,-75.5 320.5,-56.5 257.5,-56.5"/>
<text text-anchor="middle" x="289" y="-63.5" font-family="Helvetica,sans-Serif" font-size="10.00">Process.h</text>
</a>
</g>
</g>
<!-- Node8&#45;&gt;Node20 -->
<g id="edge30" class="edge">
<title>Node8&#45;&gt;Node20</title>
<path fill="none" stroke="midnightblue" d="M435.48,-231.02C380.72,-226.96 273.75,-215.61 250,-188 227.96,-162.37 234.6,-143.45 247,-112 251.51,-100.55 260.47,-90.29 268.95,-82.47"/>
<polygon fill="midnightblue" stroke="midnightblue" points="271.47,-84.93 276.79,-75.76 266.91,-79.61 271.47,-84.93"/>
</g>
<!-- Node11 -->
<g id="node11" class="node">
<title>Node11</title>
<g id="a_node11"><a xlink:href="Cast_8h.html" target="_top" xlink:title=" ">
<polygon fill="white" stroke="black" points="92.5,-56.5 92.5,-75.5 139.5,-75.5 139.5,-56.5 92.5,-56.5"/>
<text text-anchor="middle" x="116" y="-63.5" font-family="Helvetica,sans-Serif" font-size="10.00">Cast.h</text>
</a>
</g>
</g>
<!-- Node10&#45;&gt;Node11 -->
<g id="edge10" class="edge">
<title>Node10&#45;&gt;Node11</title>
<path fill="none" stroke="midnightblue" d="M287.4,-168.37C255.35,-149.41 178.56,-104 139.58,-80.94"/>
<polygon fill="midnightblue" stroke="midnightblue" points="140.92,-77.67 130.53,-75.59 137.35,-83.69 140.92,-77.67"/>
</g>
<!-- Node12 -->
<g id="node12" class="node">
<title>Node12</title>
<g id="a_node12"><a xlink:href="Type__info_8h.html" target="_top" xlink:title=" ">
<polygon fill="white" stroke="black" points="366,-112.5 366,-131.5 438,-131.5 438,-112.5 366,-112.5"/>
<text text-anchor="middle" x="402" y="-119.5" font-family="Helvetica,sans-Serif" font-size="10.00">Type_info.h</text>
</a>
</g>
</g>
<!-- Node10&#45;&gt;Node12 -->
<g id="edge11" class="edge">
<title>Node10&#45;&gt;Node12</title>
<path fill="none" stroke="midnightblue" d="M318.07,-168.32C333.96,-159.74 358.51,-146.49 376.96,-136.52"/>
<polygon fill="midnightblue" stroke="midnightblue" points="378.84,-139.49 385.97,-131.65 375.51,-133.33 378.84,-139.49"/>
</g>
<!-- Node13 -->
<g id="node13" class="node">
<title>Node13</title>
<g id="a_node13"><a xlink:href="Declare__Base_8h.html" target="_top" xlink:title=" ">
<polygon fill="white" stroke="black" points="256,-112.5 256,-131.5 348,-131.5 348,-112.5 256,-112.5"/>
<text text-anchor="middle" x="302" y="-119.5" font-family="Helvetica,sans-Serif" font-size="10.00">Declare_Base.h</text>
</a>
</g>
</g>
<!-- Node10&#45;&gt;Node13 -->
<g id="edge12" class="edge">
<title>Node10&#45;&gt;Node13</title>
<path fill="none" stroke="midnightblue" d="M302,-168.08C302,-161.01 302,-150.86 302,-141.99"/>
<polygon fill="midnightblue" stroke="midnightblue" points="305.5,-141.75 302,-131.75 298.5,-141.75 305.5,-141.75"/>
</g>
<!-- Node14 -->
<g id="node14" class="node">
<title>Node14</title>
<g id="a_node14"><a xlink:href="Declare__Inst_8h.html" target="_top" xlink:title=" ">
<polygon fill="white" stroke="black" points="0,-112.5 0,-131.5 86,-131.5 86,-112.5 0,-112.5"/>
<text text-anchor="middle" x="43" y="-119.5" font-family="Helvetica,sans-Serif" font-size="10.00">Declare_Inst.h</text>
</a>
</g>
</g>
<!-- Node10&#45;&gt;Node14 -->
<g id="edge13" class="edge">
<title>Node10&#45;&gt;Node14</title>
<path fill="none" stroke="midnightblue" d="M260.96,-168.44C215.68,-159 142.77,-143.8 93.89,-133.61"/>
<polygon fill="midnightblue" stroke="midnightblue" points="94.35,-130.13 83.85,-131.52 92.92,-136.98 94.35,-130.13"/>
</g>
<!-- Node14&#45;&gt;Node11 -->
<g id="edge14" class="edge">
<title>Node14&#45;&gt;Node11</title>
<path fill="none" stroke="midnightblue" d="M54.73,-112.32C65.84,-104.11 82.74,-91.6 95.98,-81.81"/>
<polygon fill="midnightblue" stroke="midnightblue" points="98.1,-84.59 104.06,-75.83 93.94,-78.97 98.1,-84.59"/>
</g>
<!-- Node16 -->
<g id="node16" class="node">
<title>Node16</title>
<g id="a_node16"><a xlink:href="Entree_8h.html" target="_top" xlink:title=" ">
<polygon fill="white" stroke="black" points="590.5,-112.5 590.5,-131.5 647.5,-131.5 647.5,-112.5 590.5,-112.5"/>
<text text-anchor="middle" x="619" y="-119.5" font-family="Helvetica,sans-Serif" font-size="10.00">Entree.h</text>
</a>
</g>
</g>
<!-- Node15&#45;&gt;Node16 -->
<g id="edge16" class="edge">
<title>Node15&#45;&gt;Node16</title>
<path fill="none" stroke="midnightblue" d="M584.77,-168.08C590.56,-160.46 599.06,-149.26 606.14,-139.94"/>
<polygon fill="midnightblue" stroke="midnightblue" points="609.1,-141.83 612.36,-131.75 603.52,-137.6 609.1,-141.83"/>
</g>
<!-- Node23 -->
<g id="node23" class="node">
<title>Node23</title>
<g id="a_node23"><a xlink:href="Sortie_8h.html" target="_top" xlink:title=" ">
<polygon fill="white" stroke="black" points="666,-112.5 666,-131.5 720,-131.5 720,-112.5 666,-112.5"/>
<text text-anchor="middle" x="693" y="-119.5" font-family="Helvetica,sans-Serif" font-size="10.00">Sortie.h</text>
</a>
</g>
</g>
<!-- Node15&#45;&gt;Node23 -->
<g id="edge24" class="edge">
<title>Node15&#45;&gt;Node23</title>
<path fill="none" stroke="midnightblue" d="M596.22,-168.44C614.9,-159.68 644.16,-145.94 665.62,-135.86"/>
<polygon fill="midnightblue" stroke="midnightblue" points="667.3,-138.93 674.86,-131.52 664.32,-132.6 667.3,-138.93"/>
</g>
<!-- Node25 -->
<g id="node25" class="node">
<title>Node25</title>
<g id="a_node25"><a xlink:href="Separateur_8h.html" target="_top" xlink:title=" ">
<polygon fill="white" stroke="black" points="494,-112.5 494,-131.5 572,-131.5 572,-112.5 494,-112.5"/>
<text text-anchor="middle" x="533" y="-119.5" font-family="Helvetica,sans-Serif" font-size="10.00">Separateur.h</text>
</a>
</g>
</g>
<!-- Node15&#45;&gt;Node25 -->
<g id="edge29" class="edge">
<title>Node15&#45;&gt;Node25</title>
<path fill="none" stroke="midnightblue" d="M570.57,-168.08C564.15,-160.38 554.69,-149.03 546.88,-139.65"/>
<polygon fill="midnightblue" stroke="midnightblue" points="549.38,-137.19 540.29,-131.75 544.01,-141.67 549.38,-137.19"/>
</g>
<!-- Node16&#45;&gt;Node9 -->
<g id="edge20" class="edge">
<title>Node16&#45;&gt;Node9</title>
<path fill="none" stroke="midnightblue" d="M592.86,-112.44C564.98,-103.32 520.65,-88.81 489.6,-78.65"/>
<polygon fill="midnightblue" stroke="midnightblue" points="490.62,-75.3 480.02,-75.52 488.44,-81.95 490.62,-75.3"/>
</g>
<!-- Node17 -->
<g id="node17" class="node">
<title>Node17</title>
<g id="a_node17"><a xlink:title=" ">
<polygon fill="white" stroke="#bfbfbf" points="564,-56.5 564,-75.5 614,-75.5 614,-56.5 564,-56.5"/>
<text text-anchor="middle" x="589" y="-63.5" font-family="Helvetica,sans-Serif" font-size="10.00">stdio.h</text>
</a>
</g>
</g>
<!-- Node16&#45;&gt;Node17 -->
<g id="edge17" class="edge">
<title>Node16&#45;&gt;Node17</title>
<path fill="none" stroke="midnightblue" d="M614.05,-112.08C609.9,-104.61 603.85,-93.72 598.73,-84.52"/>
<polygon fill="midnightblue" stroke="midnightblue" points="601.78,-82.79 593.86,-75.75 595.66,-86.19 601.78,-82.79"/>
</g>
<!-- Node18 -->
<g id="node18" class="node">
<title>Node18</title>
<g id="a_node18"><a xlink:title=" ">
<polygon fill="white" stroke="#bfbfbf" points="500,-56.5 500,-75.5 546,-75.5 546,-56.5 500,-56.5"/>
<text text-anchor="middle" x="523" y="-63.5" font-family="Helvetica,sans-Serif" font-size="10.00">cstdio</text>
</a>
</g>
</g>
<!-- Node16&#45;&gt;Node18 -->
<g id="edge18" class="edge">
<title>Node16&#45;&gt;Node18</title>
<path fill="none" stroke="midnightblue" d="M603.58,-112.32C588.46,-103.82 565.18,-90.73 547.53,-80.8"/>
<polygon fill="midnightblue" stroke="midnightblue" points="548.82,-77.51 538.39,-75.65 545.39,-83.61 548.82,-77.51"/>
</g>
<!-- Node19 -->
<g id="node19" class="node">
<title>Node19</title>
<g id="a_node19"><a xlink:title=" ">
<polygon fill="white" stroke="#bfbfbf" points="632,-56.5 632,-75.5 692,-75.5 692,-56.5 632,-56.5"/>
<text text-anchor="middle" x="662" y="-63.5" font-family="Helvetica,sans-Serif" font-size="10.00">iostream</text>
</a>
</g>
</g>
<!-- Node16&#45;&gt;Node19 -->
<g id="edge19" class="edge">
<title>Node16&#45;&gt;Node19</title>
<path fill="none" stroke="midnightblue" d="M626.1,-112.08C632.24,-104.38 641.27,-93.03 648.74,-83.65"/>
<polygon fill="midnightblue" stroke="midnightblue" points="651.54,-85.75 655.03,-75.75 646.06,-81.39 651.54,-85.75"/>
</g>
<!-- Node16&#45;&gt;Node20 -->
<g id="edge21" class="edge">
<title>Node16&#45;&gt;Node20</title>
<path fill="none" stroke="midnightblue" d="M590.42,-113.97C587.25,-113.27 584.06,-112.6 581,-112 492.37,-94.7 387.56,-79.92 330.72,-72.37"/>
<polygon fill="midnightblue" stroke="midnightblue" points="331.06,-68.88 320.69,-71.04 330.14,-75.82 331.06,-68.88"/>
</g>
<!-- Node21 -->
<g id="node21" class="node">
<title>Node21</title>
<g id="a_node21"><a xlink:href="arch_8h.html" target="_top" xlink:title=" ">
<polygon fill="white" stroke="black" points="710.5,-56.5 710.5,-75.5 757.5,-75.5 757.5,-56.5 710.5,-56.5"/>
<text text-anchor="middle" x="734" y="-63.5" font-family="Helvetica,sans-Serif" font-size="10.00">arch.h</text>
</a>
</g>
</g>
<!-- Node16&#45;&gt;Node21 -->
<g id="edge22" class="edge">
<title>Node16&#45;&gt;Node21</title>
<path fill="none" stroke="midnightblue" d="M637.22,-112.44C655.9,-103.68 685.16,-89.94 706.62,-79.86"/>
<polygon fill="midnightblue" stroke="midnightblue" points="708.3,-82.93 715.86,-75.52 705.32,-76.6 708.3,-82.93"/>
</g>
<!-- Node22 -->
<g id="node22" class="node">
<title>Node22</title>
<g id="a_node22"><a xlink:href="generique_8h.html" target="_top" xlink:title=" ">
<polygon fill="white" stroke="black" points="697,-0.5 697,-19.5 771,-19.5 771,-0.5 697,-0.5"/>
<text text-anchor="middle" x="734" y="-7.5" font-family="Helvetica,sans-Serif" font-size="10.00">generique.h</text>
</a>
</g>
</g>
<!-- Node21&#45;&gt;Node22 -->
<g id="edge23" class="edge">
<title>Node21&#45;&gt;Node22</title>
<path fill="none" stroke="midnightblue" d="M734,-56.08C734,-49.01 734,-38.86 734,-29.99"/>
<polygon fill="midnightblue" stroke="midnightblue" points="737.5,-29.75 734,-19.75 730.5,-29.75 737.5,-29.75"/>
</g>
<!-- Node23&#45;&gt;Node9 -->
<g id="edge26" class="edge">
<title>Node23&#45;&gt;Node9</title>
<path fill="none" stroke="midnightblue" d="M665.9,-114.13C662.9,-113.4 659.89,-112.67 657,-112 586.5,-95.55 566.21,-93.11 492.08,-76.2"/>
<polygon fill="midnightblue" stroke="midnightblue" points="492.79,-72.78 482.26,-73.95 491.23,-79.6 492.79,-72.78"/>
</g>
<!-- Node23&#45;&gt;Node19 -->
<g id="edge25" class="edge">
<title>Node23&#45;&gt;Node19</title>
<path fill="none" stroke="midnightblue" d="M687.88,-112.08C683.59,-104.61 677.34,-93.72 672.06,-84.52"/>
<polygon fill="midnightblue" stroke="midnightblue" points="675.04,-82.68 667.02,-75.75 668.97,-86.17 675.04,-82.68"/>
</g>
<!-- Node23&#45;&gt;Node21 -->
<g id="edge27" class="edge">
<title>Node23&#45;&gt;Node21</title>
<path fill="none" stroke="midnightblue" d="M699.77,-112.08C705.56,-104.46 714.06,-93.26 721.14,-83.94"/>
<polygon fill="midnightblue" stroke="midnightblue" points="724.1,-85.83 727.36,-75.75 718.52,-81.6 724.1,-85.83"/>
</g>
<!-- Node24 -->
<g id="node24" class="node">
<title>Node24</title>
<g id="a_node24"><a xlink:title=" ">
<polygon fill="white" stroke="#bfbfbf" points="776,-56.5 776,-75.5 820,-75.5 820,-56.5 776,-56.5"/>
<text text-anchor="middle" x="798" y="-63.5" font-family="Helvetica,sans-Serif" font-size="10.00">string</text>
</a>
</g>
</g>
<!-- Node23&#45;&gt;Node24 -->
<g id="edge28" class="edge">
<title>Node23&#45;&gt;Node24</title>
<path fill="none" stroke="midnightblue" d="M709.87,-112.32C726.71,-103.66 752.81,-90.24 772.24,-80.25"/>
<polygon fill="midnightblue" stroke="midnightblue" points="773.88,-83.34 781.17,-75.65 770.68,-77.12 773.88,-83.34"/>
</g>
<!-- Node26&#45;&gt;Node8 -->
<g id="edge32" class="edge">
<title>Node26&#45;&gt;Node8</title>
<path fill="none" stroke="midnightblue" d="M591.18,-448.35C582.25,-421.7 552.78,-339.09 512,-280 504.59,-269.26 494.51,-258.74 485.88,-250.58"/>
<polygon fill="midnightblue" stroke="midnightblue" points="488.21,-247.97 478.46,-243.81 483.49,-253.14 488.21,-247.97"/>
</g>
<!-- Node26&#45;&gt;Node24 -->
<g id="edge34" class="edge">
<title>Node26&#45;&gt;Node24</title>
<path fill="none" stroke="midnightblue" d="M609.37,-448.42C622.46,-440.45 641.02,-427.49 653,-412 736.7,-303.82 780.8,-140.25 793.82,-85.55"/>
<polygon fill="midnightblue" stroke="midnightblue" points="797.28,-86.12 796.13,-75.59 790.46,-84.54 797.28,-86.12"/>
</g>
<!-- Node27 -->
<g id="node27" class="node">
<title>Node27</title>
<g id="a_node27"><a xlink:title=" ">
<polygon fill="white" stroke="#bfbfbf" points="594,-392.5 594,-411.5 644,-411.5 644,-392.5 594,-392.5"/>
<text text-anchor="middle" x="619" y="-399.5" font-family="Helvetica,sans-Serif" font-size="10.00">cstring</text>
</a>
</g>
</g>
<!-- Node26&#45;&gt;Node27 -->
<g id="edge33" class="edge">
<title>Node26&#45;&gt;Node27</title>
<path fill="none" stroke="midnightblue" d="M598.13,-448.08C601.51,-440.77 606.42,-430.18 610.62,-421.1"/>
<polygon fill="midnightblue" stroke="midnightblue" points="613.92,-422.3 614.95,-411.75 607.57,-419.36 613.92,-422.3"/>
</g>
<!-- Node28&#45;&gt;Node21 -->
<g id="edge36" class="edge">
<title>Node28&#45;&gt;Node21</title>
<path fill="none" stroke="midnightblue" d="M730.7,-672.26C736.16,-653.77 748,-609.24 748,-571 748,-571 748,-571 748,-177 748,-144.54 741.93,-107.12 737.78,-85.36"/>
<polygon fill="midnightblue" stroke="midnightblue" points="741.21,-84.64 735.83,-75.51 734.34,-86 741.21,-84.64"/>
</g>
<!-- Node29&#45;&gt;Node3 -->
<g id="edge38" class="edge">
<title>Node29&#45;&gt;Node3</title>
<path fill="none" stroke="midnightblue" d="M562.42,-784.32C577.54,-775.82 600.82,-762.73 618.47,-752.8"/>
<polygon fill="midnightblue" stroke="midnightblue" points="620.61,-755.61 627.61,-747.65 617.18,-749.51 620.61,-755.61"/>
</g>
<!-- Node30 -->
<g id="node30" class="node">
<title>Node30</title>
<g id="a_node30"><a xlink:href="Noms_8h.html" target="_top" xlink:title=" ">
<polygon fill="white" stroke="black" points="508,-728.5 508,-747.5 562,-747.5 562,-728.5 508,-728.5"/>
<text text-anchor="middle" x="535" y="-735.5" font-family="Helvetica,sans-Serif" font-size="10.00">Noms.h</text>
</a>
</g>
</g>
<!-- Node29&#45;&gt;Node30 -->
<g id="edge39" class="edge">
<title>Node29&#45;&gt;Node30</title>
<path fill="none" stroke="midnightblue" d="M545.02,-784.08C543.43,-776.93 541.14,-766.64 539.15,-757.69"/>
<polygon fill="midnightblue" stroke="midnightblue" points="542.53,-756.75 536.94,-747.75 535.7,-758.27 542.53,-756.75"/>
</g>
<!-- Node38 -->
<g id="node38" class="node">
<title>Node38</title>
<g id="a_node38"><a xlink:href="liste_8h.html" target="_top" xlink:title=" ">
<polygon fill="white" stroke="black" points="443.5,-672.5 443.5,-691.5 490.5,-691.5 490.5,-672.5 443.5,-672.5"/>
<text text-anchor="middle" x="467" y="-679.5" font-family="Helvetica,sans-Serif" font-size="10.00">liste.h</text>
</a>
</g>
</g>
<!-- Node29&#45;&gt;Node38 -->
<g id="edge53" class="edge">
<title>Node29&#45;&gt;Node38</title>
<path fill="none" stroke="midnightblue" d="M535.6,-784.32C525.11,-775.9 509.61,-762.32 499,-748 488.25,-733.49 479.49,-714.8 473.87,-701.19"/>
<polygon fill="midnightblue" stroke="midnightblue" points="476.99,-699.56 470.06,-691.54 470.48,-702.13 476.99,-699.56"/>
</g>
<!-- Node31 -->
<g id="node31" class="node">
<title>Node31</title>
<g id="a_node31"><a xlink:href="Vect_8h.html" target="_top" xlink:title=" ">
<polygon fill="white" stroke="black" points="510.5,-672.5 510.5,-691.5 557.5,-691.5 557.5,-672.5 510.5,-672.5"/>
<text text-anchor="middle" x="534" y="-679.5" font-family="Helvetica,sans-Serif" font-size="10.00">Vect.h</text>
</a>
</g>
</g>
<!-- Node30&#45;&gt;Node31 -->
<g id="edge40" class="edge">
<title>Node30&#45;&gt;Node31</title>
<path fill="none" stroke="midnightblue" d="M534.83,-728.08C534.7,-721.01 534.52,-710.86 534.35,-701.99"/>
<polygon fill="midnightblue" stroke="midnightblue" points="537.85,-701.68 534.16,-691.75 530.85,-701.81 537.85,-701.68"/>
</g>
<!-- Node32 -->
<g id="node32" class="node">
<title>Node32</title>
<g id="a_node32"><a xlink:href="MacVect_8h.html" target="_top" xlink:title=" ">
<polygon fill="white" stroke="black" points="498.5,-616.5 498.5,-635.5 565.5,-635.5 565.5,-616.5 498.5,-616.5"/>
<text text-anchor="middle" x="532" y="-623.5" font-family="Helvetica,sans-Serif" font-size="10.00">MacVect.h</text>
</a>
</g>
</g>
<!-- Node31&#45;&gt;Node32 -->
<g id="edge41" class="edge">
<title>Node31&#45;&gt;Node32</title>
<path fill="none" stroke="midnightblue" d="M533.67,-672.08C533.41,-665.01 533.03,-654.86 532.7,-645.99"/>
<polygon fill="midnightblue" stroke="midnightblue" points="536.19,-645.61 532.32,-635.75 529.2,-645.87 536.19,-645.61"/>
</g>
<!-- Node32&#45;&gt;Node9 -->
<g id="edge43" class="edge">
<title>Node32&#45;&gt;Node9</title>
<path fill="none" stroke="midnightblue" d="M498.28,-622.5C405.28,-614.67 152,-586.77 152,-515 152,-515 152,-515 152,-177 152,-132.21 188.66,-131.45 229,-112 290.09,-82.55 369.43,-72.37 415.73,-68.85"/>
<polygon fill="midnightblue" stroke="midnightblue" points="416.19,-72.33 425.93,-68.14 415.71,-65.34 416.19,-72.33"/>
</g>
<!-- Node32&#45;&gt;Node26 -->
<g id="edge42" class="edge">
<title>Node32&#45;&gt;Node26</title>
<path fill="none" stroke="midnightblue" d="M543.53,-616.37C553.56,-608.17 567.62,-594.92 575,-580 591.44,-546.76 594.3,-502.66 594.45,-477.92"/>
<polygon fill="midnightblue" stroke="midnightblue" points="597.95,-477.71 594.36,-467.74 590.95,-477.77 597.95,-477.71"/>
</g>
<!-- Node33 -->
<g id="node33" class="node">
<title>Node33</title>
<g id="a_node33"><a xlink:href="vect__impl_8h.html" target="_top" xlink:title=" ">
<polygon fill="white" stroke="black" points="492,-560.5 492,-579.5 566,-579.5 566,-560.5 492,-560.5"/>
<text text-anchor="middle" x="529" y="-567.5" font-family="Helvetica,sans-Serif" font-size="10.00">vect_impl.h</text>
</a>
</g>
</g>
<!-- Node32&#45;&gt;Node33 -->
<g id="edge44" class="edge">
<title>Node32&#45;&gt;Node33</title>
<path fill="none" stroke="midnightblue" d="M531.5,-616.08C531.11,-609.01 530.55,-598.86 530.05,-589.99"/>
<polygon fill="midnightblue" stroke="midnightblue" points="533.54,-589.54 529.49,-579.75 526.55,-589.93 533.54,-589.54"/>
</g>
<!-- Node33&#45;&gt;Node9 -->
<g id="edge46" class="edge">
<title>Node33&#45;&gt;Node9</title>
<path fill="none" stroke="midnightblue" d="M491.79,-563.45C411.26,-550.39 228,-514.57 228,-459 228,-459 228,-459 228,-177 228,-146.9 224.98,-132.52 247,-112 271.09,-89.55 362.75,-76.49 415.67,-70.67"/>
<polygon fill="midnightblue" stroke="midnightblue" points="416.14,-74.14 425.71,-69.6 415.4,-67.18 416.14,-74.14"/>
</g>
<!-- Node33&#45;&gt;Node26 -->
<g id="edge45" class="edge">
<title>Node33&#45;&gt;Node26</title>
<path fill="none" stroke="midnightblue" d="M534.1,-560.37C544.78,-542.3 569.67,-500.18 583.77,-476.31"/>
<polygon fill="midnightblue" stroke="midnightblue" points="586.85,-477.98 588.92,-467.59 580.82,-474.42 586.85,-477.98"/>
</g>
<!-- Node34 -->
<g id="node34" class="node">
<title>Node34</title>
<g id="a_node34"><a xlink:href="DerOu___8h.html" target="_top" xlink:title=" ">
<polygon fill="white" stroke="black" points="447,-504.5 447,-523.5 509,-523.5 509,-504.5 447,-504.5"/>
<text text-anchor="middle" x="478" y="-511.5" font-family="Helvetica,sans-Serif" font-size="10.00">DerOu_.h</text>
</a>
</g>
</g>
<!-- Node33&#45;&gt;Node34 -->
<g id="edge47" class="edge">
<title>Node33&#45;&gt;Node34</title>
<path fill="none" stroke="midnightblue" d="M520.58,-560.08C513.15,-552.22 502.15,-540.57 493.19,-531.08"/>
<polygon fill="midnightblue" stroke="midnightblue" points="495.68,-528.62 486.26,-523.75 490.59,-533.42 495.68,-528.62"/>
</g>
<!-- Node34&#45;&gt;Node26 -->
<g id="edge52" class="edge">
<title>Node34&#45;&gt;Node26</title>
<path fill="none" stroke="midnightblue" d="M496.38,-504.44C515.22,-495.68 544.73,-481.94 566.38,-471.86"/>
<polygon fill="midnightblue" stroke="midnightblue" points="568.12,-474.91 575.71,-467.52 565.16,-468.56 568.12,-474.91"/>
</g>
<!-- Node35 -->
<g id="node35" class="node">
<title>Node35</title>
<g id="a_node35"><a xlink:href="Deriv_8h.html" target="_top" xlink:title=" ">
<polygon fill="white" stroke="black" points="449.5,-448.5 449.5,-467.5 500.5,-467.5 500.5,-448.5 449.5,-448.5"/>
<text text-anchor="middle" x="475" y="-455.5" font-family="Helvetica,sans-Serif" font-size="10.00">Deriv.h</text>
</a>
</g>
</g>
<!-- Node34&#45;&gt;Node35 -->
<g id="edge48" class="edge">
<title>Node34&#45;&gt;Node35</title>
<path fill="none" stroke="midnightblue" d="M477.5,-504.08C477.11,-497.01 476.55,-486.86 476.05,-477.99"/>
<polygon fill="midnightblue" stroke="midnightblue" points="479.54,-477.54 475.49,-467.75 472.55,-477.93 479.54,-477.54"/>
</g>
<!-- Node36 -->
<g id="node36" class="node">
<title>Node36</title>
<g id="a_node36"><a xlink:href="MacDeriv_8h.html" target="_top" xlink:title=" ">
<polygon fill="white" stroke="black" points="437.5,-392.5 437.5,-411.5 508.5,-411.5 508.5,-392.5 437.5,-392.5"/>
<text text-anchor="middle" x="473" y="-399.5" font-family="Helvetica,sans-Serif" font-size="10.00">MacDeriv.h</text>
</a>
</g>
</g>
<!-- Node35&#45;&gt;Node36 -->
<g id="edge49" class="edge">
<title>Node35&#45;&gt;Node36</title>
<path fill="none" stroke="midnightblue" d="M474.67,-448.08C474.41,-441.01 474.03,-430.86 473.7,-421.99"/>
<polygon fill="midnightblue" stroke="midnightblue" points="477.19,-421.61 473.32,-411.75 470.2,-421.87 477.19,-421.61"/>
</g>
<!-- Node37 -->
<g id="node37" class="node">
<title>Node37</title>
<g id="a_node37"><a xlink:href="Deriv___8h.html" target="_top" xlink:title=" ">
<polygon fill="white" stroke="black" points="442.5,-336.5 442.5,-355.5 499.5,-355.5 499.5,-336.5 442.5,-336.5"/>
<text text-anchor="middle" x="471" y="-343.5" font-family="Helvetica,sans-Serif" font-size="10.00">Deriv_.h</text>
</a>
</g>
</g>
<!-- Node36&#45;&gt;Node37 -->
<g id="edge50" class="edge">
<title>Node36&#45;&gt;Node37</title>
<path fill="none" stroke="midnightblue" d="M472.67,-392.08C472.41,-385.01 472.03,-374.86 471.7,-365.99"/>
<polygon fill="midnightblue" stroke="midnightblue" points="475.19,-365.61 471.32,-355.75 468.2,-365.87 475.19,-365.61"/>
</g>
<!-- Node37&#45;&gt;Node7 -->
<g id="edge51" class="edge">
<title>Node37&#45;&gt;Node7</title>
<path fill="none" stroke="midnightblue" d="M471,-336.08C471,-329.01 471,-318.86 471,-309.99"/>
<polygon fill="midnightblue" stroke="midnightblue" points="474.5,-309.75 471,-299.75 467.5,-309.75 474.5,-309.75"/>
</g>
<!-- Node38&#45;&gt;Node34 -->
<g id="edge54" class="edge">
<title>Node38&#45;&gt;Node34</title>
<path fill="none" stroke="midnightblue" d="M467.59,-672.08C469.32,-645.95 474.41,-569.21 476.77,-533.58"/>
<polygon fill="midnightblue" stroke="midnightblue" points="480.26,-533.78 477.43,-523.57 473.28,-533.31 480.26,-533.78"/>
</g>
</g>
</svg>
