<?xml version="1.0" encoding="UTF-8" standalone="no"?>
<!DOCTYPE svg PUBLIC "-//W3C//DTD SVG 1.1//EN"
 "http://www.w3.org/Graphics/SVG/1.1/DTD/svg11.dtd">
<!-- Generated by graphviz version 2.43.0 (0)
 -->
<!-- Title: src/Kernel/Framework/List_Ref_Loi_Fermeture_base.cpp Pages: 1 -->
<svg width="756pt" height="1013pt"
 viewBox="0.00 0.00 756.00 1013.00" xmlns="http://www.w3.org/2000/svg" xmlns:xlink="http://www.w3.org/1999/xlink">
<g id="graph0" class="graph" transform="scale(1 1) rotate(0) translate(4 1009)">
<title>src/Kernel/Framework/List_Ref_Loi_Fermeture_base.cpp</title>
<polygon fill="white" stroke="transparent" points="-4,4 -4,-1009 752,-1009 752,4 -4,4"/>
<!-- Node1 -->
<g id="node1" class="node">
<title>Node1</title>
<g id="a_node1"><a xlink:title=" ">
<polygon fill="#bfbfbf" stroke="black" points="427,-963.5 427,-1004.5 561,-1004.5 561,-963.5 427,-963.5"/>
<text text-anchor="start" x="435" y="-992.5" font-family="Helvetica,sans-Serif" font-size="10.00">src/Kernel/Framework</text>
<text text-anchor="start" x="435" y="-981.5" font-family="Helvetica,sans-Serif" font-size="10.00">/List_Ref_Loi_Fermeture</text>
<text text-anchor="middle" x="494" y="-970.5" font-family="Helvetica,sans-Serif" font-size="10.00">_base.cpp</text>
</a>
</g>
</g>
<!-- Node2 -->
<g id="node2" class="node">
<title>Node2</title>
<g id="a_node2"><a xlink:href="List__Ref__Loi__Fermeture__base_8h.html" target="_top" xlink:title=" ">
<polygon fill="white" stroke="black" points="475.5,-896.5 475.5,-926.5 606.5,-926.5 606.5,-896.5 475.5,-896.5"/>
<text text-anchor="start" x="483.5" y="-914.5" font-family="Helvetica,sans-Serif" font-size="10.00">List_Ref_Loi_Fermeture</text>
<text text-anchor="middle" x="541" y="-903.5" font-family="Helvetica,sans-Serif" font-size="10.00">_base.h</text>
</a>
</g>
</g>
<!-- Node1&#45;&gt;Node2 -->
<g id="edge1" class="edge">
<title>Node1&#45;&gt;Node2</title>
<path fill="none" stroke="midnightblue" d="M507.09,-963.36C512.88,-954.68 519.72,-944.42 525.73,-935.4"/>
<polygon fill="midnightblue" stroke="midnightblue" points="528.77,-937.15 531.41,-926.89 522.95,-933.27 528.77,-937.15"/>
</g>
<!-- Node35 -->
<g id="node35" class="node">
<title>Node35</title>
<g id="a_node35"><a xlink:href="Ref__Loi__Fermeture__base_8h.html" target="_top" xlink:title=" ">
<polygon fill="white" stroke="black" points="374,-840.5 374,-859.5 520,-859.5 520,-840.5 374,-840.5"/>
<text text-anchor="middle" x="447" y="-847.5" font-family="Helvetica,sans-Serif" font-size="10.00">Ref_Loi_Fermeture_base.h</text>
</a>
</g>
</g>
<!-- Node1&#45;&gt;Node35 -->
<g id="edge53" class="edge">
<title>Node1&#45;&gt;Node35</title>
<path fill="none" stroke="midnightblue" d="M483.43,-963.45C478.01,-952.87 471.59,-939.46 467,-927 459.93,-907.84 454.29,-885.11 450.83,-869.53"/>
<polygon fill="midnightblue" stroke="midnightblue" points="454.22,-868.64 448.7,-859.6 447.37,-870.11 454.22,-868.64"/>
</g>
<!-- Node3 -->
<g id="node3" class="node">
<title>Node3</title>
<g id="a_node3"><a xlink:href="List_8h.html" target="_top" xlink:title=" ">
<polygon fill="white" stroke="black" points="538.5,-840.5 538.5,-859.5 581.5,-859.5 581.5,-840.5 538.5,-840.5"/>
<text text-anchor="middle" x="560" y="-847.5" font-family="Helvetica,sans-Serif" font-size="10.00">List.h</text>
</a>
</g>
</g>
<!-- Node2&#45;&gt;Node3 -->
<g id="edge2" class="edge">
<title>Node2&#45;&gt;Node3</title>
<path fill="none" stroke="midnightblue" d="M545.5,-896.4C548.09,-888.29 551.38,-878.01 554.16,-869.28"/>
<polygon fill="midnightblue" stroke="midnightblue" points="557.53,-870.25 557.24,-859.66 550.86,-868.12 557.53,-870.25"/>
</g>
<!-- Node2&#45;&gt;Node35 -->
<g id="edge47" class="edge">
<title>Node2&#45;&gt;Node35</title>
<path fill="none" stroke="midnightblue" d="M518.72,-896.4C503.8,-886.95 484.22,-874.56 469.29,-865.11"/>
<polygon fill="midnightblue" stroke="midnightblue" points="471,-862.05 460.68,-859.66 467.26,-867.96 471,-862.05"/>
</g>
<!-- Node4 -->
<g id="node4" class="node">
<title>Node4</title>
<g id="a_node4"><a xlink:href="MacList_8h.html" target="_top" xlink:title=" ">
<polygon fill="white" stroke="black" points="528.5,-784.5 528.5,-803.5 591.5,-803.5 591.5,-784.5 528.5,-784.5"/>
<text text-anchor="middle" x="560" y="-791.5" font-family="Helvetica,sans-Serif" font-size="10.00">MacList.h</text>
</a>
</g>
</g>
<!-- Node3&#45;&gt;Node4 -->
<g id="edge3" class="edge">
<title>Node3&#45;&gt;Node4</title>
<path fill="none" stroke="midnightblue" d="M560,-840.08C560,-833.01 560,-822.86 560,-813.99"/>
<polygon fill="midnightblue" stroke="midnightblue" points="563.5,-813.75 560,-803.75 556.5,-813.75 563.5,-813.75"/>
</g>
<!-- Node5 -->
<g id="node5" class="node">
<title>Node5</title>
<g id="a_node5"><a xlink:href="liste_8h.html" target="_top" xlink:title=" ">
<polygon fill="white" stroke="black" points="510.5,-672.5 510.5,-691.5 557.5,-691.5 557.5,-672.5 510.5,-672.5"/>
<text text-anchor="middle" x="534" y="-679.5" font-family="Helvetica,sans-Serif" font-size="10.00">liste.h</text>
</a>
</g>
</g>
<!-- Node4&#45;&gt;Node5 -->
<g id="edge4" class="edge">
<title>Node4&#45;&gt;Node5</title>
<path fill="none" stroke="midnightblue" d="M557.96,-784.37C553.76,-766.62 544.08,-725.67 538.4,-701.6"/>
<polygon fill="midnightblue" stroke="midnightblue" points="541.74,-700.52 536.03,-691.59 534.92,-702.13 541.74,-700.52"/>
</g>
<!-- Node31 -->
<g id="node31" class="node">
<title>Node31</title>
<g id="a_node31"><a xlink:href="Motcle_8h.html" target="_top" xlink:title=" ">
<polygon fill="white" stroke="black" points="584.5,-728.5 584.5,-747.5 643.5,-747.5 643.5,-728.5 584.5,-728.5"/>
<text text-anchor="middle" x="614" y="-735.5" font-family="Helvetica,sans-Serif" font-size="10.00">Motcle.h</text>
</a>
</g>
</g>
<!-- Node4&#45;&gt;Node31 -->
<g id="edge38" class="edge">
<title>Node4&#45;&gt;Node31</title>
<path fill="none" stroke="midnightblue" d="M568.92,-784.08C576.78,-776.22 588.43,-764.57 597.92,-755.08"/>
<polygon fill="midnightblue" stroke="midnightblue" points="600.65,-757.3 605.25,-747.75 595.7,-752.35 600.65,-757.3"/>
</g>
<!-- Node6 -->
<g id="node6" class="node">
<title>Node6</title>
<g id="a_node6"><a xlink:href="DerOu___8h.html" target="_top" xlink:title=" ">
<polygon fill="white" stroke="black" points="499,-504.5 499,-523.5 561,-523.5 561,-504.5 499,-504.5"/>
<text text-anchor="middle" x="530" y="-511.5" font-family="Helvetica,sans-Serif" font-size="10.00">DerOu_.h</text>
</a>
</g>
</g>
<!-- Node5&#45;&gt;Node6 -->
<g id="edge5" class="edge">
<title>Node5&#45;&gt;Node6</title>
<path fill="none" stroke="midnightblue" d="M533.78,-672.08C533.16,-645.95 531.31,-569.21 530.45,-533.58"/>
<polygon fill="midnightblue" stroke="midnightblue" points="533.95,-533.48 530.21,-523.57 526.95,-533.65 533.95,-533.48"/>
</g>
<!-- Node7 -->
<g id="node7" class="node">
<title>Node7</title>
<g id="a_node7"><a xlink:href="Deriv_8h.html" target="_top" xlink:title=" ">
<polygon fill="white" stroke="black" points="463.5,-448.5 463.5,-467.5 514.5,-467.5 514.5,-448.5 463.5,-448.5"/>
<text text-anchor="middle" x="489" y="-455.5" font-family="Helvetica,sans-Serif" font-size="10.00">Deriv.h</text>
</a>
</g>
</g>
<!-- Node6&#45;&gt;Node7 -->
<g id="edge6" class="edge">
<title>Node6&#45;&gt;Node7</title>
<path fill="none" stroke="midnightblue" d="M523.23,-504.08C517.44,-496.46 508.94,-485.26 501.86,-475.94"/>
<polygon fill="midnightblue" stroke="midnightblue" points="504.48,-473.6 495.64,-467.75 498.9,-477.83 504.48,-473.6"/>
</g>
<!-- Node29 -->
<g id="node29" class="node">
<title>Node29</title>
<g id="a_node29"><a xlink:href="Nom_8h.html" target="_top" xlink:title=" ">
<polygon fill="white" stroke="black" points="556.5,-448.5 556.5,-467.5 605.5,-467.5 605.5,-448.5 556.5,-448.5"/>
<text text-anchor="middle" x="581" y="-455.5" font-family="Helvetica,sans-Serif" font-size="10.00">Nom.h</text>
</a>
</g>
</g>
<!-- Node6&#45;&gt;Node29 -->
<g id="edge34" class="edge">
<title>Node6&#45;&gt;Node29</title>
<path fill="none" stroke="midnightblue" d="M538.42,-504.08C545.85,-496.22 556.85,-484.57 565.81,-475.08"/>
<polygon fill="midnightblue" stroke="midnightblue" points="568.41,-477.42 572.74,-467.75 563.32,-472.62 568.41,-477.42"/>
</g>
<!-- Node8 -->
<g id="node8" class="node">
<title>Node8</title>
<g id="a_node8"><a xlink:href="MacDeriv_8h.html" target="_top" xlink:title=" ">
<polygon fill="white" stroke="black" points="428.5,-392.5 428.5,-411.5 499.5,-411.5 499.5,-392.5 428.5,-392.5"/>
<text text-anchor="middle" x="464" y="-399.5" font-family="Helvetica,sans-Serif" font-size="10.00">MacDeriv.h</text>
</a>
</g>
</g>
<!-- Node7&#45;&gt;Node8 -->
<g id="edge7" class="edge">
<title>Node7&#45;&gt;Node8</title>
<path fill="none" stroke="midnightblue" d="M484.87,-448.08C481.49,-440.77 476.58,-430.18 472.38,-421.1"/>
<polygon fill="midnightblue" stroke="midnightblue" points="475.43,-419.36 468.05,-411.75 469.08,-422.3 475.43,-419.36"/>
</g>
<!-- Node9 -->
<g id="node9" class="node">
<title>Node9</title>
<g id="a_node9"><a xlink:href="Deriv___8h.html" target="_top" xlink:title=" ">
<polygon fill="white" stroke="black" points="435.5,-336.5 435.5,-355.5 492.5,-355.5 492.5,-336.5 435.5,-336.5"/>
<text text-anchor="middle" x="464" y="-343.5" font-family="Helvetica,sans-Serif" font-size="10.00">Deriv_.h</text>
</a>
</g>
</g>
<!-- Node8&#45;&gt;Node9 -->
<g id="edge8" class="edge">
<title>Node8&#45;&gt;Node9</title>
<path fill="none" stroke="midnightblue" d="M464,-392.08C464,-385.01 464,-374.86 464,-365.99"/>
<polygon fill="midnightblue" stroke="midnightblue" points="467.5,-365.75 464,-355.75 460.5,-365.75 467.5,-365.75"/>
</g>
<!-- Node10 -->
<g id="node10" class="node">
<title>Node10</title>
<g id="a_node10"><a xlink:href="O__U__Ptr_8h.html" target="_top" xlink:title=" ">
<polygon fill="white" stroke="black" points="432,-280.5 432,-299.5 496,-299.5 496,-280.5 432,-280.5"/>
<text text-anchor="middle" x="464" y="-287.5" font-family="Helvetica,sans-Serif" font-size="10.00">O_U_Ptr.h</text>
</a>
</g>
</g>
<!-- Node9&#45;&gt;Node10 -->
<g id="edge9" class="edge">
<title>Node9&#45;&gt;Node10</title>
<path fill="none" stroke="midnightblue" d="M464,-336.08C464,-329.01 464,-318.86 464,-309.99"/>
<polygon fill="midnightblue" stroke="midnightblue" points="467.5,-309.75 464,-299.75 460.5,-309.75 467.5,-309.75"/>
</g>
<!-- Node11 -->
<g id="node11" class="node">
<title>Node11</title>
<g id="a_node11"><a xlink:href="Objet__U_8h.html" target="_top" xlink:title=" ">
<polygon fill="white" stroke="black" points="440.5,-224.5 440.5,-243.5 505.5,-243.5 505.5,-224.5 440.5,-224.5"/>
<text text-anchor="middle" x="473" y="-231.5" font-family="Helvetica,sans-Serif" font-size="10.00">Objet_U.h</text>
</a>
</g>
</g>
<!-- Node10&#45;&gt;Node11 -->
<g id="edge10" class="edge">
<title>Node10&#45;&gt;Node11</title>
<path fill="none" stroke="midnightblue" d="M465.49,-280.08C466.68,-272.93 468.39,-262.64 469.88,-253.69"/>
<polygon fill="midnightblue" stroke="midnightblue" points="473.35,-254.19 471.54,-243.75 466.45,-253.04 473.35,-254.19"/>
</g>
<!-- Node12 -->
<g id="node12" class="node">
<title>Node12</title>
<g id="a_node12"><a xlink:title=" ">
<polygon fill="white" stroke="#bfbfbf" points="656,-56.5 656,-75.5 712,-75.5 712,-56.5 656,-56.5"/>
<text text-anchor="middle" x="684" y="-63.5" font-family="Helvetica,sans-Serif" font-size="10.00">assert.h</text>
</a>
</g>
</g>
<!-- Node11&#45;&gt;Node12 -->
<g id="edge11" class="edge">
<title>Node11&#45;&gt;Node12</title>
<path fill="none" stroke="midnightblue" d="M486.36,-224.39C512.07,-207.63 569.85,-169.03 615,-132 634.15,-116.3 654.62,-96.6 668.25,-83.02"/>
<polygon fill="midnightblue" stroke="midnightblue" points="670.85,-85.38 675.42,-75.82 665.89,-80.44 670.85,-85.38"/>
</g>
<!-- Node13 -->
<g id="node13" class="node">
<title>Node13</title>
<g id="a_node13"><a xlink:href="DecBaseInst_8h.html" target="_top" xlink:title=" ">
<polygon fill="white" stroke="black" points="135,-168.5 135,-187.5 221,-187.5 221,-168.5 135,-168.5"/>
<text text-anchor="middle" x="178" y="-175.5" font-family="Helvetica,sans-Serif" font-size="10.00">DecBaseInst.h</text>
</a>
</g>
</g>
<!-- Node11&#45;&gt;Node13 -->
<g id="edge12" class="edge">
<title>Node11&#45;&gt;Node13</title>
<path fill="none" stroke="midnightblue" d="M440.3,-227.01C389.82,-217.77 292.38,-199.94 231.52,-188.8"/>
<polygon fill="midnightblue" stroke="midnightblue" points="231.81,-185.29 221.34,-186.93 230.55,-192.18 231.81,-185.29"/>
</g>
<!-- Node18 -->
<g id="node18" class="node">
<title>Node18</title>
<g id="a_node18"><a xlink:href="EntreeSortie_8h.html" target="_top" xlink:title=" ">
<polygon fill="white" stroke="black" points="435,-168.5 435,-187.5 521,-187.5 521,-168.5 435,-168.5"/>
<text text-anchor="middle" x="478" y="-175.5" font-family="Helvetica,sans-Serif" font-size="10.00">EntreeSortie.h</text>
</a>
</g>
</g>
<!-- Node11&#45;&gt;Node18 -->
<g id="edge18" class="edge">
<title>Node11&#45;&gt;Node18</title>
<path fill="none" stroke="midnightblue" d="M473.83,-224.08C474.48,-217.01 475.42,-206.86 476.24,-197.99"/>
<polygon fill="midnightblue" stroke="midnightblue" points="479.75,-198.03 477.19,-187.75 472.78,-197.39 479.75,-198.03"/>
</g>
<!-- Node23 -->
<g id="node23" class="node">
<title>Node23</title>
<g id="a_node23"><a xlink:href="Process_8h.html" target="_top" xlink:title=" ">
<polygon fill="white" stroke="black" points="236.5,-56.5 236.5,-75.5 299.5,-75.5 299.5,-56.5 236.5,-56.5"/>
<text text-anchor="middle" x="268" y="-63.5" font-family="Helvetica,sans-Serif" font-size="10.00">Process.h</text>
</a>
</g>
</g>
<!-- Node11&#45;&gt;Node23 -->
<g id="edge33" class="edge">
<title>Node11&#45;&gt;Node23</title>
<path fill="none" stroke="midnightblue" d="M463.79,-224.42C441.81,-204.1 384.3,-151.74 333,-112 319.03,-101.18 302.67,-89.86 289.86,-81.28"/>
<polygon fill="midnightblue" stroke="midnightblue" points="291.51,-78.18 281.24,-75.56 287.64,-84.01 291.51,-78.18"/>
</g>
<!-- Node14 -->
<g id="node14" class="node">
<title>Node14</title>
<g id="a_node14"><a xlink:href="Cast_8h.html" target="_top" xlink:title=" ">
<polygon fill="white" stroke="black" points="55.5,-56.5 55.5,-75.5 102.5,-75.5 102.5,-56.5 55.5,-56.5"/>
<text text-anchor="middle" x="79" y="-63.5" font-family="Helvetica,sans-Serif" font-size="10.00">Cast.h</text>
</a>
</g>
</g>
<!-- Node13&#45;&gt;Node14 -->
<g id="edge13" class="edge">
<title>Node13&#45;&gt;Node14</title>
<path fill="none" stroke="midnightblue" d="M168.79,-168.27C159.51,-159.38 144.91,-145.06 133,-132 118.4,-115.99 102.68,-96.83 91.99,-83.47"/>
<polygon fill="midnightblue" stroke="midnightblue" points="94.71,-81.27 85.75,-75.63 89.23,-85.63 94.71,-81.27"/>
</g>
<!-- Node15 -->
<g id="node15" class="node">
<title>Node15</title>
<g id="a_node15"><a xlink:href="Type__info_8h.html" target="_top" xlink:title=" ">
<polygon fill="white" stroke="black" points="142,-112.5 142,-131.5 214,-131.5 214,-112.5 142,-112.5"/>
<text text-anchor="middle" x="178" y="-119.5" font-family="Helvetica,sans-Serif" font-size="10.00">Type_info.h</text>
</a>
</g>
</g>
<!-- Node13&#45;&gt;Node15 -->
<g id="edge14" class="edge">
<title>Node13&#45;&gt;Node15</title>
<path fill="none" stroke="midnightblue" d="M178,-168.08C178,-161.01 178,-150.86 178,-141.99"/>
<polygon fill="midnightblue" stroke="midnightblue" points="181.5,-141.75 178,-131.75 174.5,-141.75 181.5,-141.75"/>
</g>
<!-- Node16 -->
<g id="node16" class="node">
<title>Node16</title>
<g id="a_node16"><a xlink:href="Declare__Base_8h.html" target="_top" xlink:title=" ">
<polygon fill="white" stroke="black" points="232,-112.5 232,-131.5 324,-131.5 324,-112.5 232,-112.5"/>
<text text-anchor="middle" x="278" y="-119.5" font-family="Helvetica,sans-Serif" font-size="10.00">Declare_Base.h</text>
</a>
</g>
</g>
<!-- Node13&#45;&gt;Node16 -->
<g id="edge15" class="edge">
<title>Node13&#45;&gt;Node16</title>
<path fill="none" stroke="midnightblue" d="M194.07,-168.32C209.96,-159.74 234.51,-146.49 252.96,-136.52"/>
<polygon fill="midnightblue" stroke="midnightblue" points="254.84,-139.49 261.97,-131.65 251.51,-133.33 254.84,-139.49"/>
</g>
<!-- Node17 -->
<g id="node17" class="node">
<title>Node17</title>
<g id="a_node17"><a xlink:href="Declare__Inst_8h.html" target="_top" xlink:title=" ">
<polygon fill="white" stroke="black" points="0,-112.5 0,-131.5 86,-131.5 86,-112.5 0,-112.5"/>
<text text-anchor="middle" x="43" y="-119.5" font-family="Helvetica,sans-Serif" font-size="10.00">Declare_Inst.h</text>
</a>
</g>
</g>
<!-- Node13&#45;&gt;Node17 -->
<g id="edge16" class="edge">
<title>Node13&#45;&gt;Node17</title>
<path fill="none" stroke="midnightblue" d="M156.61,-168.44C134.29,-159.52 99.1,-145.44 73.79,-135.32"/>
<polygon fill="midnightblue" stroke="midnightblue" points="74.88,-131.98 64.29,-131.52 72.28,-138.48 74.88,-131.98"/>
</g>
<!-- Node17&#45;&gt;Node14 -->
<g id="edge17" class="edge">
<title>Node17&#45;&gt;Node14</title>
<path fill="none" stroke="midnightblue" d="M48.94,-112.08C53.98,-104.53 61.34,-93.49 67.51,-84.23"/>
<polygon fill="midnightblue" stroke="midnightblue" points="70.53,-86.01 73.17,-75.75 64.71,-82.13 70.53,-86.01"/>
</g>
<!-- Node19 -->
<g id="node19" class="node">
<title>Node19</title>
<g id="a_node19"><a xlink:href="Entree_8h.html" target="_top" xlink:title=" ">
<polygon fill="white" stroke="black" points="380.5,-112.5 380.5,-131.5 437.5,-131.5 437.5,-112.5 380.5,-112.5"/>
<text text-anchor="middle" x="409" y="-119.5" font-family="Helvetica,sans-Serif" font-size="10.00">Entree.h</text>
</a>
</g>
</g>
<!-- Node18&#45;&gt;Node19 -->
<g id="edge19" class="edge">
<title>Node18&#45;&gt;Node19</title>
<path fill="none" stroke="midnightblue" d="M466.91,-168.32C456.51,-160.18 440.74,-147.84 428.28,-138.09"/>
<polygon fill="midnightblue" stroke="midnightblue" points="430.32,-135.24 420.29,-131.83 426.01,-140.75 430.32,-135.24"/>
</g>
<!-- Node26 -->
<g id="node26" class="node">
<title>Node26</title>
<g id="a_node26"><a xlink:href="Sortie_8h.html" target="_top" xlink:title=" ">
<polygon fill="white" stroke="black" points="456,-112.5 456,-131.5 510,-131.5 510,-112.5 456,-112.5"/>
<text text-anchor="middle" x="483" y="-119.5" font-family="Helvetica,sans-Serif" font-size="10.00">Sortie.h</text>
</a>
</g>
</g>
<!-- Node18&#45;&gt;Node26 -->
<g id="edge27" class="edge">
<title>Node18&#45;&gt;Node26</title>
<path fill="none" stroke="midnightblue" d="M478.83,-168.08C479.48,-161.01 480.42,-150.86 481.24,-141.99"/>
<polygon fill="midnightblue" stroke="midnightblue" points="484.75,-142.03 482.19,-131.75 477.78,-141.39 484.75,-142.03"/>
</g>
<!-- Node28 -->
<g id="node28" class="node">
<title>Node28</title>
<g id="a_node28"><a xlink:href="Separateur_8h.html" target="_top" xlink:title=" ">
<polygon fill="white" stroke="black" points="528,-112.5 528,-131.5 606,-131.5 606,-112.5 528,-112.5"/>
<text text-anchor="middle" x="567" y="-119.5" font-family="Helvetica,sans-Serif" font-size="10.00">Separateur.h</text>
</a>
</g>
</g>
<!-- Node18&#45;&gt;Node28 -->
<g id="edge32" class="edge">
<title>Node18&#45;&gt;Node28</title>
<path fill="none" stroke="midnightblue" d="M492.3,-168.32C506.18,-159.9 527.49,-146.97 543.8,-137.07"/>
<polygon fill="midnightblue" stroke="midnightblue" points="546,-139.83 552.74,-131.65 542.37,-133.85 546,-139.83"/>
</g>
<!-- Node19&#45;&gt;Node12 -->
<g id="edge23" class="edge">
<title>Node19&#45;&gt;Node12</title>
<path fill="none" stroke="midnightblue" d="M437.6,-114.05C440.76,-113.33 443.95,-112.64 447,-112 532.31,-94.23 556.92,-94.63 645.78,-76.15"/>
<polygon fill="midnightblue" stroke="midnightblue" points="646.69,-79.54 655.76,-74.06 645.25,-72.69 646.69,-79.54"/>
</g>
<!-- Node20 -->
<g id="node20" class="node">
<title>Node20</title>
<g id="a_node20"><a xlink:title=" ">
<polygon fill="white" stroke="#bfbfbf" points="318,-56.5 318,-75.5 368,-75.5 368,-56.5 318,-56.5"/>
<text text-anchor="middle" x="343" y="-63.5" font-family="Helvetica,sans-Serif" font-size="10.00">stdio.h</text>
</a>
</g>
</g>
<!-- Node19&#45;&gt;Node20 -->
<g id="edge20" class="edge">
<title>Node19&#45;&gt;Node20</title>
<path fill="none" stroke="midnightblue" d="M398.4,-112.32C388.54,-104.26 373.65,-92.08 361.78,-82.37"/>
<polygon fill="midnightblue" stroke="midnightblue" points="363.75,-79.46 353.8,-75.83 359.32,-84.88 363.75,-79.46"/>
</g>
<!-- Node21 -->
<g id="node21" class="node">
<title>Node21</title>
<g id="a_node21"><a xlink:title=" ">
<polygon fill="white" stroke="#bfbfbf" points="386,-56.5 386,-75.5 432,-75.5 432,-56.5 386,-56.5"/>
<text text-anchor="middle" x="409" y="-63.5" font-family="Helvetica,sans-Serif" font-size="10.00">cstdio</text>
</a>
</g>
</g>
<!-- Node19&#45;&gt;Node21 -->
<g id="edge21" class="edge">
<title>Node19&#45;&gt;Node21</title>
<path fill="none" stroke="midnightblue" d="M409,-112.08C409,-105.01 409,-94.86 409,-85.99"/>
<polygon fill="midnightblue" stroke="midnightblue" points="412.5,-85.75 409,-75.75 405.5,-85.75 412.5,-85.75"/>
</g>
<!-- Node22 -->
<g id="node22" class="node">
<title>Node22</title>
<g id="a_node22"><a xlink:title=" ">
<polygon fill="white" stroke="#bfbfbf" points="516,-56.5 516,-75.5 576,-75.5 576,-56.5 516,-56.5"/>
<text text-anchor="middle" x="546" y="-63.5" font-family="Helvetica,sans-Serif" font-size="10.00">iostream</text>
</a>
</g>
</g>
<!-- Node19&#45;&gt;Node22 -->
<g id="edge22" class="edge">
<title>Node19&#45;&gt;Node22</title>
<path fill="none" stroke="midnightblue" d="M430.71,-112.44C453.35,-103.52 489.07,-89.44 514.75,-79.32"/>
<polygon fill="midnightblue" stroke="midnightblue" points="516.37,-82.44 524.39,-75.52 513.81,-75.93 516.37,-82.44"/>
</g>
<!-- Node19&#45;&gt;Node23 -->
<g id="edge24" class="edge">
<title>Node19&#45;&gt;Node23</title>
<path fill="none" stroke="midnightblue" d="M386.66,-112.44C363.25,-103.48 326.26,-89.31 299.81,-79.18"/>
<polygon fill="midnightblue" stroke="midnightblue" points="300.83,-75.82 290.24,-75.52 298.32,-82.36 300.83,-75.82"/>
</g>
<!-- Node24 -->
<g id="node24" class="node">
<title>Node24</title>
<g id="a_node24"><a xlink:href="arch_8h.html" target="_top" xlink:title=" ">
<polygon fill="white" stroke="black" points="450.5,-56.5 450.5,-75.5 497.5,-75.5 497.5,-56.5 450.5,-56.5"/>
<text text-anchor="middle" x="474" y="-63.5" font-family="Helvetica,sans-Serif" font-size="10.00">arch.h</text>
</a>
</g>
</g>
<!-- Node19&#45;&gt;Node24 -->
<g id="edge25" class="edge">
<title>Node19&#45;&gt;Node24</title>
<path fill="none" stroke="midnightblue" d="M419.44,-112.32C429.15,-104.26 443.82,-92.08 455.5,-82.37"/>
<polygon fill="midnightblue" stroke="midnightblue" points="457.91,-84.92 463.37,-75.83 453.44,-79.53 457.91,-84.92"/>
</g>
<!-- Node25 -->
<g id="node25" class="node">
<title>Node25</title>
<g id="a_node25"><a xlink:href="generique_8h.html" target="_top" xlink:title=" ">
<polygon fill="white" stroke="black" points="437,-0.5 437,-19.5 511,-19.5 511,-0.5 437,-0.5"/>
<text text-anchor="middle" x="474" y="-7.5" font-family="Helvetica,sans-Serif" font-size="10.00">generique.h</text>
</a>
</g>
</g>
<!-- Node24&#45;&gt;Node25 -->
<g id="edge26" class="edge">
<title>Node24&#45;&gt;Node25</title>
<path fill="none" stroke="midnightblue" d="M474,-56.08C474,-49.01 474,-38.86 474,-29.99"/>
<polygon fill="midnightblue" stroke="midnightblue" points="477.5,-29.75 474,-19.75 470.5,-29.75 477.5,-29.75"/>
</g>
<!-- Node26&#45;&gt;Node12 -->
<g id="edge29" class="edge">
<title>Node26&#45;&gt;Node12</title>
<path fill="none" stroke="midnightblue" d="M510.11,-113.72C545.1,-104.32 606.2,-87.9 645.87,-77.24"/>
<polygon fill="midnightblue" stroke="midnightblue" points="646.96,-80.58 655.71,-74.6 645.14,-73.82 646.96,-80.58"/>
</g>
<!-- Node26&#45;&gt;Node22 -->
<g id="edge28" class="edge">
<title>Node26&#45;&gt;Node22</title>
<path fill="none" stroke="midnightblue" d="M493.12,-112.32C502.53,-104.26 516.74,-92.08 528.07,-82.37"/>
<polygon fill="midnightblue" stroke="midnightblue" points="530.38,-85 535.69,-75.83 525.82,-79.68 530.38,-85"/>
</g>
<!-- Node26&#45;&gt;Node24 -->
<g id="edge30" class="edge">
<title>Node26&#45;&gt;Node24</title>
<path fill="none" stroke="midnightblue" d="M481.51,-112.08C480.32,-104.93 478.61,-94.64 477.12,-85.69"/>
<polygon fill="midnightblue" stroke="midnightblue" points="480.55,-85.04 475.46,-75.75 473.65,-86.19 480.55,-85.04"/>
</g>
<!-- Node27 -->
<g id="node27" class="node">
<title>Node27</title>
<g id="a_node27"><a xlink:title=" ">
<polygon fill="white" stroke="#bfbfbf" points="594,-56.5 594,-75.5 638,-75.5 638,-56.5 594,-56.5"/>
<text text-anchor="middle" x="616" y="-63.5" font-family="Helvetica,sans-Serif" font-size="10.00">string</text>
</a>
</g>
</g>
<!-- Node26&#45;&gt;Node27 -->
<g id="edge31" class="edge">
<title>Node26&#45;&gt;Node27</title>
<path fill="none" stroke="midnightblue" d="M504.07,-112.44C526.06,-103.52 560.73,-89.44 585.66,-79.32"/>
<polygon fill="midnightblue" stroke="midnightblue" points="587.08,-82.52 595.02,-75.52 584.44,-76.04 587.08,-82.52"/>
</g>
<!-- Node29&#45;&gt;Node11 -->
<g id="edge35" class="edge">
<title>Node29&#45;&gt;Node11</title>
<path fill="none" stroke="midnightblue" d="M572.99,-448.31C565.4,-439.66 554.11,-425.74 547,-412 518.7,-357.32 532.5,-335.08 505,-280 500.03,-270.05 492.99,-259.87 486.78,-251.72"/>
<polygon fill="midnightblue" stroke="midnightblue" points="489.45,-249.45 480.5,-243.78 483.96,-253.79 489.45,-249.45"/>
</g>
<!-- Node29&#45;&gt;Node27 -->
<g id="edge37" class="edge">
<title>Node29&#45;&gt;Node27</title>
<path fill="none" stroke="midnightblue" d="M589.08,-448.34C596.73,-439.72 608.05,-425.82 615,-412 628.52,-385.11 634,-377.1 634,-347 634,-347 634,-347 634,-177 634,-144.54 626.27,-107.38 620.94,-85.63"/>
<polygon fill="midnightblue" stroke="midnightblue" points="624.29,-84.59 618.43,-75.76 617.51,-86.32 624.29,-84.59"/>
</g>
<!-- Node30 -->
<g id="node30" class="node">
<title>Node30</title>
<g id="a_node30"><a xlink:title=" ">
<polygon fill="white" stroke="#bfbfbf" points="556,-392.5 556,-411.5 606,-411.5 606,-392.5 556,-392.5"/>
<text text-anchor="middle" x="581" y="-399.5" font-family="Helvetica,sans-Serif" font-size="10.00">cstring</text>
</a>
</g>
</g>
<!-- Node29&#45;&gt;Node30 -->
<g id="edge36" class="edge">
<title>Node29&#45;&gt;Node30</title>
<path fill="none" stroke="midnightblue" d="M581,-448.08C581,-441.01 581,-430.86 581,-421.99"/>
<polygon fill="midnightblue" stroke="midnightblue" points="584.5,-421.75 581,-411.75 577.5,-421.75 584.5,-421.75"/>
</g>
<!-- Node32 -->
<g id="node32" class="node">
<title>Node32</title>
<g id="a_node32"><a xlink:href="Vect_8h.html" target="_top" xlink:title=" ">
<polygon fill="white" stroke="black" points="598.5,-672.5 598.5,-691.5 645.5,-691.5 645.5,-672.5 598.5,-672.5"/>
<text text-anchor="middle" x="622" y="-679.5" font-family="Helvetica,sans-Serif" font-size="10.00">Vect.h</text>
</a>
</g>
</g>
<!-- Node31&#45;&gt;Node32 -->
<g id="edge39" class="edge">
<title>Node31&#45;&gt;Node32</title>
<path fill="none" stroke="midnightblue" d="M615.32,-728.08C616.38,-720.93 617.91,-710.64 619.23,-701.69"/>
<polygon fill="midnightblue" stroke="midnightblue" points="622.7,-702.16 620.7,-691.75 615.78,-701.13 622.7,-702.16"/>
</g>
<!-- Node33 -->
<g id="node33" class="node">
<title>Node33</title>
<g id="a_node33"><a xlink:href="MacVect_8h.html" target="_top" xlink:title=" ">
<polygon fill="white" stroke="black" points="606.5,-616.5 606.5,-635.5 673.5,-635.5 673.5,-616.5 606.5,-616.5"/>
<text text-anchor="middle" x="640" y="-623.5" font-family="Helvetica,sans-Serif" font-size="10.00">MacVect.h</text>
</a>
</g>
</g>
<!-- Node32&#45;&gt;Node33 -->
<g id="edge40" class="edge">
<title>Node32&#45;&gt;Node33</title>
<path fill="none" stroke="midnightblue" d="M624.97,-672.08C627.38,-664.85 630.86,-654.41 633.87,-645.4"/>
<polygon fill="midnightblue" stroke="midnightblue" points="637.24,-646.34 637.08,-635.75 630.6,-644.13 637.24,-646.34"/>
</g>
<!-- Node33&#45;&gt;Node12 -->
<g id="edge42" class="edge">
<title>Node33&#45;&gt;Node12</title>
<path fill="none" stroke="midnightblue" d="M658.81,-616.49C689.75,-601.05 748,-565.31 748,-515 748,-515 748,-515 748,-177 748,-139.33 719.61,-103.04 700.65,-83.01"/>
<polygon fill="midnightblue" stroke="midnightblue" points="702.95,-80.36 693.44,-75.69 697.96,-85.27 702.95,-80.36"/>
</g>
<!-- Node33&#45;&gt;Node29 -->
<g id="edge41" class="edge">
<title>Node33&#45;&gt;Node29</title>
<path fill="none" stroke="midnightblue" d="M641.4,-616.4C643.15,-603.78 645.31,-579.61 640,-560 631.21,-527.51 609.07,-494.75 594.55,-475.69"/>
<polygon fill="midnightblue" stroke="midnightblue" points="597.23,-473.44 588.31,-467.72 591.72,-477.76 597.23,-473.44"/>
</g>
<!-- Node34 -->
<g id="node34" class="node">
<title>Node34</title>
<g id="a_node34"><a xlink:href="vect__impl_8h.html" target="_top" xlink:title=" ">
<polygon fill="white" stroke="black" points="557,-560.5 557,-579.5 631,-579.5 631,-560.5 557,-560.5"/>
<text text-anchor="middle" x="594" y="-567.5" font-family="Helvetica,sans-Serif" font-size="10.00">vect_impl.h</text>
</a>
</g>
</g>
<!-- Node33&#45;&gt;Node34 -->
<g id="edge43" class="edge">
<title>Node33&#45;&gt;Node34</title>
<path fill="none" stroke="midnightblue" d="M632.4,-616.08C625.77,-608.3 615.98,-596.8 607.94,-587.37"/>
<polygon fill="midnightblue" stroke="midnightblue" points="610.6,-585.09 601.45,-579.75 605.27,-589.63 610.6,-585.09"/>
</g>
<!-- Node34&#45;&gt;Node6 -->
<g id="edge46" class="edge">
<title>Node34&#45;&gt;Node6</title>
<path fill="none" stroke="midnightblue" d="M583.72,-560.32C574.16,-552.26 559.72,-540.08 548.22,-530.37"/>
<polygon fill="midnightblue" stroke="midnightblue" points="550.37,-527.61 540.47,-523.83 545.86,-532.96 550.37,-527.61"/>
</g>
<!-- Node34&#45;&gt;Node12 -->
<g id="edge45" class="edge">
<title>Node34&#45;&gt;Node12</title>
<path fill="none" stroke="midnightblue" d="M615.28,-560.4C648.76,-545.3 710,-510.62 710,-459 710,-459 710,-459 710,-177 710,-143.93 698.73,-106.73 691.03,-85.17"/>
<polygon fill="midnightblue" stroke="midnightblue" points="694.27,-83.83 687.51,-75.68 687.71,-86.27 694.27,-83.83"/>
</g>
<!-- Node34&#45;&gt;Node29 -->
<g id="edge44" class="edge">
<title>Node34&#45;&gt;Node29</title>
<path fill="none" stroke="midnightblue" d="M592.98,-560.37C590.88,-542.62 586.04,-501.67 583.2,-477.6"/>
<polygon fill="midnightblue" stroke="midnightblue" points="586.66,-477.11 582.02,-467.59 579.71,-477.93 586.66,-477.11"/>
</g>
<!-- Node36 -->
<g id="node36" class="node">
<title>Node36</title>
<g id="a_node36"><a xlink:href="Ref_8h.html" target="_top" xlink:title=" ">
<polygon fill="white" stroke="black" points="426.5,-784.5 426.5,-803.5 467.5,-803.5 467.5,-784.5 426.5,-784.5"/>
<text text-anchor="middle" x="447" y="-791.5" font-family="Helvetica,sans-Serif" font-size="10.00">Ref.h</text>
</a>
</g>
</g>
<!-- Node35&#45;&gt;Node36 -->
<g id="edge48" class="edge">
<title>Node35&#45;&gt;Node36</title>
<path fill="none" stroke="midnightblue" d="M447,-840.08C447,-833.01 447,-822.86 447,-813.99"/>
<polygon fill="midnightblue" stroke="midnightblue" points="450.5,-813.75 447,-803.75 443.5,-813.75 450.5,-813.75"/>
</g>
<!-- Node37 -->
<g id="node37" class="node">
<title>Node37</title>
<g id="a_node37"><a xlink:href="MacRef_8h.html" target="_top" xlink:title=" ">
<polygon fill="white" stroke="black" points="416,-728.5 416,-747.5 478,-747.5 478,-728.5 416,-728.5"/>
<text text-anchor="middle" x="447" y="-735.5" font-family="Helvetica,sans-Serif" font-size="10.00">MacRef.h</text>
</a>
</g>
</g>
<!-- Node36&#45;&gt;Node37 -->
<g id="edge49" class="edge">
<title>Node36&#45;&gt;Node37</title>
<path fill="none" stroke="midnightblue" d="M447,-784.08C447,-777.01 447,-766.86 447,-757.99"/>
<polygon fill="midnightblue" stroke="midnightblue" points="450.5,-757.75 447,-747.75 443.5,-757.75 450.5,-757.75"/>
</g>
<!-- Node38 -->
<g id="node38" class="node">
<title>Node38</title>
<g id="a_node38"><a xlink:href="Ref___8h.html" target="_top" xlink:title=" ">
<polygon fill="white" stroke="black" points="423.5,-504.5 423.5,-523.5 470.5,-523.5 470.5,-504.5 423.5,-504.5"/>
<text text-anchor="middle" x="447" y="-511.5" font-family="Helvetica,sans-Serif" font-size="10.00">Ref_.h</text>
</a>
</g>
</g>
<!-- Node37&#45;&gt;Node38 -->
<g id="edge50" class="edge">
<title>Node37&#45;&gt;Node38</title>
<path fill="none" stroke="midnightblue" d="M447,-728.3C447,-695.63 447,-579.87 447,-533.96"/>
<polygon fill="midnightblue" stroke="midnightblue" points="450.5,-533.88 447,-523.88 443.5,-533.88 450.5,-533.88"/>
</g>
<!-- Node38&#45;&gt;Node10 -->
<g id="edge51" class="edge">
<title>Node38&#45;&gt;Node10</title>
<path fill="none" stroke="midnightblue" d="M443.13,-504.45C431.81,-478.09 401.09,-396.22 427,-336 431.68,-325.13 439.81,-314.8 447.26,-306.78"/>
<polygon fill="midnightblue" stroke="midnightblue" points="449.8,-309.18 454.33,-299.6 444.82,-304.27 449.8,-309.18"/>
</g>
<!-- Node38&#45;&gt;Node29 -->
<g id="edge52" class="edge">
<title>Node38&#45;&gt;Node29</title>
<path fill="none" stroke="midnightblue" d="M468.23,-504.44C490.38,-495.52 525.32,-481.44 550.44,-471.32"/>
<polygon fill="midnightblue" stroke="midnightblue" points="551.9,-474.5 559.87,-467.52 549.28,-468.01 551.9,-474.5"/>
</g>
</g>
</svg>
