<?xml version="1.0" encoding="UTF-8" standalone="no"?>
<!DOCTYPE svg PUBLIC "-//W3C//DTD SVG 1.1//EN"
 "http://www.w3.org/Graphics/SVG/1.1/DTD/svg11.dtd">
<!-- Generated by graphviz version 2.43.0 (0)
 -->
<!-- Title: src/Kernel/Framework/List_Ref_Equation_base.cpp Pages: 1 -->
<svg width="756pt" height="991pt"
 viewBox="0.00 0.00 756.00 991.00" xmlns="http://www.w3.org/2000/svg" xmlns:xlink="http://www.w3.org/1999/xlink">
<g id="graph0" class="graph" transform="scale(1 1) rotate(0) translate(4 987)">
<title>src/Kernel/Framework/List_Ref_Equation_base.cpp</title>
<polygon fill="white" stroke="transparent" points="-4,4 -4,-987 752,-987 752,4 -4,4"/>
<!-- Node1 -->
<g id="node1" class="node">
<title>Node1</title>
<g id="a_node1"><a xlink:title=" ">
<polygon fill="#bfbfbf" stroke="black" points="413.5,-952.5 413.5,-982.5 568.5,-982.5 568.5,-952.5 413.5,-952.5"/>
<text text-anchor="start" x="421.5" y="-970.5" font-family="Helvetica,sans-Serif" font-size="10.00">src/Kernel/Framework</text>
<text text-anchor="middle" x="491" y="-959.5" font-family="Helvetica,sans-Serif" font-size="10.00">/List_Ref_Equation_base.cpp</text>
</a>
</g>
</g>
<!-- Node2 -->
<g id="node2" class="node">
<title>Node2</title>
<g id="a_node2"><a xlink:href="List__Ref__Equation__base_8h.html" target="_top" xlink:title=" ">
<polygon fill="white" stroke="black" points="420.5,-896.5 420.5,-915.5 561.5,-915.5 561.5,-896.5 420.5,-896.5"/>
<text text-anchor="middle" x="491" y="-903.5" font-family="Helvetica,sans-Serif" font-size="10.00">List_Ref_Equation_base.h</text>
</a>
</g>
</g>
<!-- Node1&#45;&gt;Node2 -->
<g id="edge1" class="edge">
<title>Node1&#45;&gt;Node2</title>
<path fill="none" stroke="midnightblue" d="M491,-952.4C491,-944.47 491,-934.46 491,-925.86"/>
<polygon fill="midnightblue" stroke="midnightblue" points="494.5,-925.66 491,-915.66 487.5,-925.66 494.5,-925.66"/>
</g>
<!-- Node3 -->
<g id="node3" class="node">
<title>Node3</title>
<g id="a_node3"><a xlink:href="List_8h.html" target="_top" xlink:title=" ">
<polygon fill="white" stroke="black" points="519.5,-840.5 519.5,-859.5 562.5,-859.5 562.5,-840.5 519.5,-840.5"/>
<text text-anchor="middle" x="541" y="-847.5" font-family="Helvetica,sans-Serif" font-size="10.00">List.h</text>
</a>
</g>
</g>
<!-- Node2&#45;&gt;Node3 -->
<g id="edge2" class="edge">
<title>Node2&#45;&gt;Node3</title>
<path fill="none" stroke="midnightblue" d="M499.26,-896.08C506.46,-888.3 517.11,-876.8 525.85,-867.37"/>
<polygon fill="midnightblue" stroke="midnightblue" points="528.67,-869.47 532.9,-859.75 523.53,-864.71 528.67,-869.47"/>
</g>
<!-- Node35 -->
<g id="node35" class="node">
<title>Node35</title>
<g id="a_node35"><a xlink:href="Ref__Equation__base_8h.html" target="_top" xlink:title=" ">
<polygon fill="white" stroke="black" points="382.5,-840.5 382.5,-859.5 501.5,-859.5 501.5,-840.5 382.5,-840.5"/>
<text text-anchor="middle" x="442" y="-847.5" font-family="Helvetica,sans-Serif" font-size="10.00">Ref_Equation_base.h</text>
</a>
</g>
</g>
<!-- Node2&#45;&gt;Node35 -->
<g id="edge47" class="edge">
<title>Node2&#45;&gt;Node35</title>
<path fill="none" stroke="midnightblue" d="M482.91,-896.08C475.84,-888.3 465.41,-876.8 456.85,-867.37"/>
<polygon fill="midnightblue" stroke="midnightblue" points="459.25,-864.8 449.94,-859.75 454.07,-869.51 459.25,-864.8"/>
</g>
<!-- Node4 -->
<g id="node4" class="node">
<title>Node4</title>
<g id="a_node4"><a xlink:href="MacList_8h.html" target="_top" xlink:title=" ">
<polygon fill="white" stroke="black" points="509.5,-784.5 509.5,-803.5 572.5,-803.5 572.5,-784.5 509.5,-784.5"/>
<text text-anchor="middle" x="541" y="-791.5" font-family="Helvetica,sans-Serif" font-size="10.00">MacList.h</text>
</a>
</g>
</g>
<!-- Node3&#45;&gt;Node4 -->
<g id="edge3" class="edge">
<title>Node3&#45;&gt;Node4</title>
<path fill="none" stroke="midnightblue" d="M541,-840.08C541,-833.01 541,-822.86 541,-813.99"/>
<polygon fill="midnightblue" stroke="midnightblue" points="544.5,-813.75 541,-803.75 537.5,-813.75 544.5,-813.75"/>
</g>
<!-- Node5 -->
<g id="node5" class="node">
<title>Node5</title>
<g id="a_node5"><a xlink:href="liste_8h.html" target="_top" xlink:title=" ">
<polygon fill="white" stroke="black" points="511.5,-728.5 511.5,-747.5 558.5,-747.5 558.5,-728.5 511.5,-728.5"/>
<text text-anchor="middle" x="535" y="-735.5" font-family="Helvetica,sans-Serif" font-size="10.00">liste.h</text>
</a>
</g>
</g>
<!-- Node4&#45;&gt;Node5 -->
<g id="edge4" class="edge">
<title>Node4&#45;&gt;Node5</title>
<path fill="none" stroke="midnightblue" d="M540.01,-784.08C539.21,-776.93 538.07,-766.64 537.08,-757.69"/>
<polygon fill="midnightblue" stroke="midnightblue" points="540.56,-757.3 535.97,-747.75 533.6,-758.08 540.56,-757.3"/>
</g>
<!-- Node31 -->
<g id="node31" class="node">
<title>Node31</title>
<g id="a_node31"><a xlink:href="Motcle_8h.html" target="_top" xlink:title=" ">
<polygon fill="white" stroke="black" points="605.5,-728.5 605.5,-747.5 664.5,-747.5 664.5,-728.5 605.5,-728.5"/>
<text text-anchor="middle" x="635" y="-735.5" font-family="Helvetica,sans-Serif" font-size="10.00">Motcle.h</text>
</a>
</g>
</g>
<!-- Node4&#45;&gt;Node31 -->
<g id="edge38" class="edge">
<title>Node4&#45;&gt;Node31</title>
<path fill="none" stroke="midnightblue" d="M556.1,-784.32C570.9,-775.82 593.69,-762.73 610.98,-752.8"/>
<polygon fill="midnightblue" stroke="midnightblue" points="613.01,-755.67 619.93,-747.65 609.52,-749.6 613.01,-755.67"/>
</g>
<!-- Node6 -->
<g id="node6" class="node">
<title>Node6</title>
<g id="a_node6"><a xlink:href="DerOu___8h.html" target="_top" xlink:title=" ">
<polygon fill="white" stroke="black" points="500,-504.5 500,-523.5 562,-523.5 562,-504.5 500,-504.5"/>
<text text-anchor="middle" x="531" y="-511.5" font-family="Helvetica,sans-Serif" font-size="10.00">DerOu_.h</text>
</a>
</g>
</g>
<!-- Node5&#45;&gt;Node6 -->
<g id="edge5" class="edge">
<title>Node5&#45;&gt;Node6</title>
<path fill="none" stroke="midnightblue" d="M534.84,-728.3C534.25,-695.63 532.17,-579.87 531.34,-533.96"/>
<polygon fill="midnightblue" stroke="midnightblue" points="534.84,-533.82 531.16,-523.88 527.84,-533.95 534.84,-533.82"/>
</g>
<!-- Node7 -->
<g id="node7" class="node">
<title>Node7</title>
<g id="a_node7"><a xlink:href="Deriv_8h.html" target="_top" xlink:title=" ">
<polygon fill="white" stroke="black" points="462.5,-448.5 462.5,-467.5 513.5,-467.5 513.5,-448.5 462.5,-448.5"/>
<text text-anchor="middle" x="488" y="-455.5" font-family="Helvetica,sans-Serif" font-size="10.00">Deriv.h</text>
</a>
</g>
</g>
<!-- Node6&#45;&gt;Node7 -->
<g id="edge6" class="edge">
<title>Node6&#45;&gt;Node7</title>
<path fill="none" stroke="midnightblue" d="M523.9,-504.08C517.76,-496.38 508.73,-485.03 501.26,-475.65"/>
<polygon fill="midnightblue" stroke="midnightblue" points="503.94,-473.39 494.97,-467.75 498.46,-477.75 503.94,-473.39"/>
</g>
<!-- Node29 -->
<g id="node29" class="node">
<title>Node29</title>
<g id="a_node29"><a xlink:href="Nom_8h.html" target="_top" xlink:title=" ">
<polygon fill="white" stroke="black" points="556.5,-448.5 556.5,-467.5 605.5,-467.5 605.5,-448.5 556.5,-448.5"/>
<text text-anchor="middle" x="581" y="-455.5" font-family="Helvetica,sans-Serif" font-size="10.00">Nom.h</text>
</a>
</g>
</g>
<!-- Node6&#45;&gt;Node29 -->
<g id="edge34" class="edge">
<title>Node6&#45;&gt;Node29</title>
<path fill="none" stroke="midnightblue" d="M539.26,-504.08C546.46,-496.3 557.11,-484.8 565.85,-475.37"/>
<polygon fill="midnightblue" stroke="midnightblue" points="568.67,-477.47 572.9,-467.75 563.53,-472.71 568.67,-477.47"/>
</g>
<!-- Node8 -->
<g id="node8" class="node">
<title>Node8</title>
<g id="a_node8"><a xlink:href="MacDeriv_8h.html" target="_top" xlink:title=" ">
<polygon fill="white" stroke="black" points="428.5,-392.5 428.5,-411.5 499.5,-411.5 499.5,-392.5 428.5,-392.5"/>
<text text-anchor="middle" x="464" y="-399.5" font-family="Helvetica,sans-Serif" font-size="10.00">MacDeriv.h</text>
</a>
</g>
</g>
<!-- Node7&#45;&gt;Node8 -->
<g id="edge7" class="edge">
<title>Node7&#45;&gt;Node8</title>
<path fill="none" stroke="midnightblue" d="M484.04,-448.08C480.79,-440.77 476.08,-430.18 472.05,-421.1"/>
<polygon fill="midnightblue" stroke="midnightblue" points="475.15,-419.47 467.89,-411.75 468.75,-422.31 475.15,-419.47"/>
</g>
<!-- Node9 -->
<g id="node9" class="node">
<title>Node9</title>
<g id="a_node9"><a xlink:href="Deriv___8h.html" target="_top" xlink:title=" ">
<polygon fill="white" stroke="black" points="435.5,-336.5 435.5,-355.5 492.5,-355.5 492.5,-336.5 435.5,-336.5"/>
<text text-anchor="middle" x="464" y="-343.5" font-family="Helvetica,sans-Serif" font-size="10.00">Deriv_.h</text>
</a>
</g>
</g>
<!-- Node8&#45;&gt;Node9 -->
<g id="edge8" class="edge">
<title>Node8&#45;&gt;Node9</title>
<path fill="none" stroke="midnightblue" d="M464,-392.08C464,-385.01 464,-374.86 464,-365.99"/>
<polygon fill="midnightblue" stroke="midnightblue" points="467.5,-365.75 464,-355.75 460.5,-365.75 467.5,-365.75"/>
</g>
<!-- Node10 -->
<g id="node10" class="node">
<title>Node10</title>
<g id="a_node10"><a xlink:href="O__U__Ptr_8h.html" target="_top" xlink:title=" ">
<polygon fill="white" stroke="black" points="432,-280.5 432,-299.5 496,-299.5 496,-280.5 432,-280.5"/>
<text text-anchor="middle" x="464" y="-287.5" font-family="Helvetica,sans-Serif" font-size="10.00">O_U_Ptr.h</text>
</a>
</g>
</g>
<!-- Node9&#45;&gt;Node10 -->
<g id="edge9" class="edge">
<title>Node9&#45;&gt;Node10</title>
<path fill="none" stroke="midnightblue" d="M464,-336.08C464,-329.01 464,-318.86 464,-309.99"/>
<polygon fill="midnightblue" stroke="midnightblue" points="467.5,-309.75 464,-299.75 460.5,-309.75 467.5,-309.75"/>
</g>
<!-- Node11 -->
<g id="node11" class="node">
<title>Node11</title>
<g id="a_node11"><a xlink:href="Objet__U_8h.html" target="_top" xlink:title=" ">
<polygon fill="white" stroke="black" points="440.5,-224.5 440.5,-243.5 505.5,-243.5 505.5,-224.5 440.5,-224.5"/>
<text text-anchor="middle" x="473" y="-231.5" font-family="Helvetica,sans-Serif" font-size="10.00">Objet_U.h</text>
</a>
</g>
</g>
<!-- Node10&#45;&gt;Node11 -->
<g id="edge10" class="edge">
<title>Node10&#45;&gt;Node11</title>
<path fill="none" stroke="midnightblue" d="M465.49,-280.08C466.68,-272.93 468.39,-262.64 469.88,-253.69"/>
<polygon fill="midnightblue" stroke="midnightblue" points="473.35,-254.19 471.54,-243.75 466.45,-253.04 473.35,-254.19"/>
</g>
<!-- Node12 -->
<g id="node12" class="node">
<title>Node12</title>
<g id="a_node12"><a xlink:title=" ">
<polygon fill="white" stroke="#bfbfbf" points="656,-56.5 656,-75.5 712,-75.5 712,-56.5 656,-56.5"/>
<text text-anchor="middle" x="684" y="-63.5" font-family="Helvetica,sans-Serif" font-size="10.00">assert.h</text>
</a>
</g>
</g>
<!-- Node11&#45;&gt;Node12 -->
<g id="edge11" class="edge">
<title>Node11&#45;&gt;Node12</title>
<path fill="none" stroke="midnightblue" d="M486.36,-224.39C512.07,-207.63 569.85,-169.03 615,-132 634.15,-116.3 654.62,-96.6 668.25,-83.02"/>
<polygon fill="midnightblue" stroke="midnightblue" points="670.85,-85.38 675.42,-75.82 665.89,-80.44 670.85,-85.38"/>
</g>
<!-- Node13 -->
<g id="node13" class="node">
<title>Node13</title>
<g id="a_node13"><a xlink:href="DecBaseInst_8h.html" target="_top" xlink:title=" ">
<polygon fill="white" stroke="black" points="135,-168.5 135,-187.5 221,-187.5 221,-168.5 135,-168.5"/>
<text text-anchor="middle" x="178" y="-175.5" font-family="Helvetica,sans-Serif" font-size="10.00">DecBaseInst.h</text>
</a>
</g>
</g>
<!-- Node11&#45;&gt;Node13 -->
<g id="edge12" class="edge">
<title>Node11&#45;&gt;Node13</title>
<path fill="none" stroke="midnightblue" d="M440.3,-227.01C389.82,-217.77 292.38,-199.94 231.52,-188.8"/>
<polygon fill="midnightblue" stroke="midnightblue" points="231.81,-185.29 221.34,-186.93 230.55,-192.18 231.81,-185.29"/>
</g>
<!-- Node18 -->
<g id="node18" class="node">
<title>Node18</title>
<g id="a_node18"><a xlink:href="EntreeSortie_8h.html" target="_top" xlink:title=" ">
<polygon fill="white" stroke="black" points="435,-168.5 435,-187.5 521,-187.5 521,-168.5 435,-168.5"/>
<text text-anchor="middle" x="478" y="-175.5" font-family="Helvetica,sans-Serif" font-size="10.00">EntreeSortie.h</text>
</a>
</g>
</g>
<!-- Node11&#45;&gt;Node18 -->
<g id="edge18" class="edge">
<title>Node11&#45;&gt;Node18</title>
<path fill="none" stroke="midnightblue" d="M473.83,-224.08C474.48,-217.01 475.42,-206.86 476.24,-197.99"/>
<polygon fill="midnightblue" stroke="midnightblue" points="479.75,-198.03 477.19,-187.75 472.78,-197.39 479.75,-198.03"/>
</g>
<!-- Node23 -->
<g id="node23" class="node">
<title>Node23</title>
<g id="a_node23"><a xlink:href="Process_8h.html" target="_top" xlink:title=" ">
<polygon fill="white" stroke="black" points="236.5,-56.5 236.5,-75.5 299.5,-75.5 299.5,-56.5 236.5,-56.5"/>
<text text-anchor="middle" x="268" y="-63.5" font-family="Helvetica,sans-Serif" font-size="10.00">Process.h</text>
</a>
</g>
</g>
<!-- Node11&#45;&gt;Node23 -->
<g id="edge33" class="edge">
<title>Node11&#45;&gt;Node23</title>
<path fill="none" stroke="midnightblue" d="M463.79,-224.42C441.81,-204.1 384.3,-151.74 333,-112 319.03,-101.18 302.67,-89.86 289.86,-81.28"/>
<polygon fill="midnightblue" stroke="midnightblue" points="291.51,-78.18 281.24,-75.56 287.64,-84.01 291.51,-78.18"/>
</g>
<!-- Node14 -->
<g id="node14" class="node">
<title>Node14</title>
<g id="a_node14"><a xlink:href="Cast_8h.html" target="_top" xlink:title=" ">
<polygon fill="white" stroke="black" points="55.5,-56.5 55.5,-75.5 102.5,-75.5 102.5,-56.5 55.5,-56.5"/>
<text text-anchor="middle" x="79" y="-63.5" font-family="Helvetica,sans-Serif" font-size="10.00">Cast.h</text>
</a>
</g>
</g>
<!-- Node13&#45;&gt;Node14 -->
<g id="edge13" class="edge">
<title>Node13&#45;&gt;Node14</title>
<path fill="none" stroke="midnightblue" d="M168.79,-168.27C159.51,-159.38 144.91,-145.06 133,-132 118.4,-115.99 102.68,-96.83 91.99,-83.47"/>
<polygon fill="midnightblue" stroke="midnightblue" points="94.71,-81.27 85.75,-75.63 89.23,-85.63 94.71,-81.27"/>
</g>
<!-- Node15 -->
<g id="node15" class="node">
<title>Node15</title>
<g id="a_node15"><a xlink:href="Type__info_8h.html" target="_top" xlink:title=" ">
<polygon fill="white" stroke="black" points="142,-112.5 142,-131.5 214,-131.5 214,-112.5 142,-112.5"/>
<text text-anchor="middle" x="178" y="-119.5" font-family="Helvetica,sans-Serif" font-size="10.00">Type_info.h</text>
</a>
</g>
</g>
<!-- Node13&#45;&gt;Node15 -->
<g id="edge14" class="edge">
<title>Node13&#45;&gt;Node15</title>
<path fill="none" stroke="midnightblue" d="M178,-168.08C178,-161.01 178,-150.86 178,-141.99"/>
<polygon fill="midnightblue" stroke="midnightblue" points="181.5,-141.75 178,-131.75 174.5,-141.75 181.5,-141.75"/>
</g>
<!-- Node16 -->
<g id="node16" class="node">
<title>Node16</title>
<g id="a_node16"><a xlink:href="Declare__Base_8h.html" target="_top" xlink:title=" ">
<polygon fill="white" stroke="black" points="232,-112.5 232,-131.5 324,-131.5 324,-112.5 232,-112.5"/>
<text text-anchor="middle" x="278" y="-119.5" font-family="Helvetica,sans-Serif" font-size="10.00">Declare_Base.h</text>
</a>
</g>
</g>
<!-- Node13&#45;&gt;Node16 -->
<g id="edge15" class="edge">
<title>Node13&#45;&gt;Node16</title>
<path fill="none" stroke="midnightblue" d="M194.07,-168.32C209.96,-159.74 234.51,-146.49 252.96,-136.52"/>
<polygon fill="midnightblue" stroke="midnightblue" points="254.84,-139.49 261.97,-131.65 251.51,-133.33 254.84,-139.49"/>
</g>
<!-- Node17 -->
<g id="node17" class="node">
<title>Node17</title>
<g id="a_node17"><a xlink:href="Declare__Inst_8h.html" target="_top" xlink:title=" ">
<polygon fill="white" stroke="black" points="0,-112.5 0,-131.5 86,-131.5 86,-112.5 0,-112.5"/>
<text text-anchor="middle" x="43" y="-119.5" font-family="Helvetica,sans-Serif" font-size="10.00">Declare_Inst.h</text>
</a>
</g>
</g>
<!-- Node13&#45;&gt;Node17 -->
<g id="edge16" class="edge">
<title>Node13&#45;&gt;Node17</title>
<path fill="none" stroke="midnightblue" d="M156.61,-168.44C134.29,-159.52 99.1,-145.44 73.79,-135.32"/>
<polygon fill="midnightblue" stroke="midnightblue" points="74.88,-131.98 64.29,-131.52 72.28,-138.48 74.88,-131.98"/>
</g>
<!-- Node17&#45;&gt;Node14 -->
<g id="edge17" class="edge">
<title>Node17&#45;&gt;Node14</title>
<path fill="none" stroke="midnightblue" d="M48.94,-112.08C53.98,-104.53 61.34,-93.49 67.51,-84.23"/>
<polygon fill="midnightblue" stroke="midnightblue" points="70.53,-86.01 73.17,-75.75 64.71,-82.13 70.53,-86.01"/>
</g>
<!-- Node19 -->
<g id="node19" class="node">
<title>Node19</title>
<g id="a_node19"><a xlink:href="Entree_8h.html" target="_top" xlink:title=" ">
<polygon fill="white" stroke="black" points="380.5,-112.5 380.5,-131.5 437.5,-131.5 437.5,-112.5 380.5,-112.5"/>
<text text-anchor="middle" x="409" y="-119.5" font-family="Helvetica,sans-Serif" font-size="10.00">Entree.h</text>
</a>
</g>
</g>
<!-- Node18&#45;&gt;Node19 -->
<g id="edge19" class="edge">
<title>Node18&#45;&gt;Node19</title>
<path fill="none" stroke="midnightblue" d="M466.91,-168.32C456.51,-160.18 440.74,-147.84 428.28,-138.09"/>
<polygon fill="midnightblue" stroke="midnightblue" points="430.32,-135.24 420.29,-131.83 426.01,-140.75 430.32,-135.24"/>
</g>
<!-- Node26 -->
<g id="node26" class="node">
<title>Node26</title>
<g id="a_node26"><a xlink:href="Sortie_8h.html" target="_top" xlink:title=" ">
<polygon fill="white" stroke="black" points="456,-112.5 456,-131.5 510,-131.5 510,-112.5 456,-112.5"/>
<text text-anchor="middle" x="483" y="-119.5" font-family="Helvetica,sans-Serif" font-size="10.00">Sortie.h</text>
</a>
</g>
</g>
<!-- Node18&#45;&gt;Node26 -->
<g id="edge27" class="edge">
<title>Node18&#45;&gt;Node26</title>
<path fill="none" stroke="midnightblue" d="M478.83,-168.08C479.48,-161.01 480.42,-150.86 481.24,-141.99"/>
<polygon fill="midnightblue" stroke="midnightblue" points="484.75,-142.03 482.19,-131.75 477.78,-141.39 484.75,-142.03"/>
</g>
<!-- Node28 -->
<g id="node28" class="node">
<title>Node28</title>
<g id="a_node28"><a xlink:href="Separateur_8h.html" target="_top" xlink:title=" ">
<polygon fill="white" stroke="black" points="528,-112.5 528,-131.5 606,-131.5 606,-112.5 528,-112.5"/>
<text text-anchor="middle" x="567" y="-119.5" font-family="Helvetica,sans-Serif" font-size="10.00">Separateur.h</text>
</a>
</g>
</g>
<!-- Node18&#45;&gt;Node28 -->
<g id="edge32" class="edge">
<title>Node18&#45;&gt;Node28</title>
<path fill="none" stroke="midnightblue" d="M492.3,-168.32C506.18,-159.9 527.49,-146.97 543.8,-137.07"/>
<polygon fill="midnightblue" stroke="midnightblue" points="546,-139.83 552.74,-131.65 542.37,-133.85 546,-139.83"/>
</g>
<!-- Node19&#45;&gt;Node12 -->
<g id="edge23" class="edge">
<title>Node19&#45;&gt;Node12</title>
<path fill="none" stroke="midnightblue" d="M437.6,-114.05C440.76,-113.33 443.95,-112.64 447,-112 532.31,-94.23 556.92,-94.63 645.78,-76.15"/>
<polygon fill="midnightblue" stroke="midnightblue" points="646.69,-79.54 655.76,-74.06 645.25,-72.69 646.69,-79.54"/>
</g>
<!-- Node20 -->
<g id="node20" class="node">
<title>Node20</title>
<g id="a_node20"><a xlink:title=" ">
<polygon fill="white" stroke="#bfbfbf" points="318,-56.5 318,-75.5 368,-75.5 368,-56.5 318,-56.5"/>
<text text-anchor="middle" x="343" y="-63.5" font-family="Helvetica,sans-Serif" font-size="10.00">stdio.h</text>
</a>
</g>
</g>
<!-- Node19&#45;&gt;Node20 -->
<g id="edge20" class="edge">
<title>Node19&#45;&gt;Node20</title>
<path fill="none" stroke="midnightblue" d="M398.4,-112.32C388.54,-104.26 373.65,-92.08 361.78,-82.37"/>
<polygon fill="midnightblue" stroke="midnightblue" points="363.75,-79.46 353.8,-75.83 359.32,-84.88 363.75,-79.46"/>
</g>
<!-- Node21 -->
<g id="node21" class="node">
<title>Node21</title>
<g id="a_node21"><a xlink:title=" ">
<polygon fill="white" stroke="#bfbfbf" points="386,-56.5 386,-75.5 432,-75.5 432,-56.5 386,-56.5"/>
<text text-anchor="middle" x="409" y="-63.5" font-family="Helvetica,sans-Serif" font-size="10.00">cstdio</text>
</a>
</g>
</g>
<!-- Node19&#45;&gt;Node21 -->
<g id="edge21" class="edge">
<title>Node19&#45;&gt;Node21</title>
<path fill="none" stroke="midnightblue" d="M409,-112.08C409,-105.01 409,-94.86 409,-85.99"/>
<polygon fill="midnightblue" stroke="midnightblue" points="412.5,-85.75 409,-75.75 405.5,-85.75 412.5,-85.75"/>
</g>
<!-- Node22 -->
<g id="node22" class="node">
<title>Node22</title>
<g id="a_node22"><a xlink:title=" ">
<polygon fill="white" stroke="#bfbfbf" points="516,-56.5 516,-75.5 576,-75.5 576,-56.5 516,-56.5"/>
<text text-anchor="middle" x="546" y="-63.5" font-family="Helvetica,sans-Serif" font-size="10.00">iostream</text>
</a>
</g>
</g>
<!-- Node19&#45;&gt;Node22 -->
<g id="edge22" class="edge">
<title>Node19&#45;&gt;Node22</title>
<path fill="none" stroke="midnightblue" d="M430.71,-112.44C453.35,-103.52 489.07,-89.44 514.75,-79.32"/>
<polygon fill="midnightblue" stroke="midnightblue" points="516.37,-82.44 524.39,-75.52 513.81,-75.93 516.37,-82.44"/>
</g>
<!-- Node19&#45;&gt;Node23 -->
<g id="edge24" class="edge">
<title>Node19&#45;&gt;Node23</title>
<path fill="none" stroke="midnightblue" d="M386.66,-112.44C363.25,-103.48 326.26,-89.31 299.81,-79.18"/>
<polygon fill="midnightblue" stroke="midnightblue" points="300.83,-75.82 290.24,-75.52 298.32,-82.36 300.83,-75.82"/>
</g>
<!-- Node24 -->
<g id="node24" class="node">
<title>Node24</title>
<g id="a_node24"><a xlink:href="arch_8h.html" target="_top" xlink:title=" ">
<polygon fill="white" stroke="black" points="450.5,-56.5 450.5,-75.5 497.5,-75.5 497.5,-56.5 450.5,-56.5"/>
<text text-anchor="middle" x="474" y="-63.5" font-family="Helvetica,sans-Serif" font-size="10.00">arch.h</text>
</a>
</g>
</g>
<!-- Node19&#45;&gt;Node24 -->
<g id="edge25" class="edge">
<title>Node19&#45;&gt;Node24</title>
<path fill="none" stroke="midnightblue" d="M419.44,-112.32C429.15,-104.26 443.82,-92.08 455.5,-82.37"/>
<polygon fill="midnightblue" stroke="midnightblue" points="457.91,-84.92 463.37,-75.83 453.44,-79.53 457.91,-84.92"/>
</g>
<!-- Node25 -->
<g id="node25" class="node">
<title>Node25</title>
<g id="a_node25"><a xlink:href="generique_8h.html" target="_top" xlink:title=" ">
<polygon fill="white" stroke="black" points="437,-0.5 437,-19.5 511,-19.5 511,-0.5 437,-0.5"/>
<text text-anchor="middle" x="474" y="-7.5" font-family="Helvetica,sans-Serif" font-size="10.00">generique.h</text>
</a>
</g>
</g>
<!-- Node24&#45;&gt;Node25 -->
<g id="edge26" class="edge">
<title>Node24&#45;&gt;Node25</title>
<path fill="none" stroke="midnightblue" d="M474,-56.08C474,-49.01 474,-38.86 474,-29.99"/>
<polygon fill="midnightblue" stroke="midnightblue" points="477.5,-29.75 474,-19.75 470.5,-29.75 477.5,-29.75"/>
</g>
<!-- Node26&#45;&gt;Node12 -->
<g id="edge29" class="edge">
<title>Node26&#45;&gt;Node12</title>
<path fill="none" stroke="midnightblue" d="M510.11,-113.72C545.1,-104.32 606.2,-87.9 645.87,-77.24"/>
<polygon fill="midnightblue" stroke="midnightblue" points="646.96,-80.58 655.71,-74.6 645.14,-73.82 646.96,-80.58"/>
</g>
<!-- Node26&#45;&gt;Node22 -->
<g id="edge28" class="edge">
<title>Node26&#45;&gt;Node22</title>
<path fill="none" stroke="midnightblue" d="M493.12,-112.32C502.53,-104.26 516.74,-92.08 528.07,-82.37"/>
<polygon fill="midnightblue" stroke="midnightblue" points="530.38,-85 535.69,-75.83 525.82,-79.68 530.38,-85"/>
</g>
<!-- Node26&#45;&gt;Node24 -->
<g id="edge30" class="edge">
<title>Node26&#45;&gt;Node24</title>
<path fill="none" stroke="midnightblue" d="M481.51,-112.08C480.32,-104.93 478.61,-94.64 477.12,-85.69"/>
<polygon fill="midnightblue" stroke="midnightblue" points="480.55,-85.04 475.46,-75.75 473.65,-86.19 480.55,-85.04"/>
</g>
<!-- Node27 -->
<g id="node27" class="node">
<title>Node27</title>
<g id="a_node27"><a xlink:title=" ">
<polygon fill="white" stroke="#bfbfbf" points="594,-56.5 594,-75.5 638,-75.5 638,-56.5 594,-56.5"/>
<text text-anchor="middle" x="616" y="-63.5" font-family="Helvetica,sans-Serif" font-size="10.00">string</text>
</a>
</g>
</g>
<!-- Node26&#45;&gt;Node27 -->
<g id="edge31" class="edge">
<title>Node26&#45;&gt;Node27</title>
<path fill="none" stroke="midnightblue" d="M504.07,-112.44C526.06,-103.52 560.73,-89.44 585.66,-79.32"/>
<polygon fill="midnightblue" stroke="midnightblue" points="587.08,-82.52 595.02,-75.52 584.44,-76.04 587.08,-82.52"/>
</g>
<!-- Node29&#45;&gt;Node11 -->
<g id="edge35" class="edge">
<title>Node29&#45;&gt;Node11</title>
<path fill="none" stroke="midnightblue" d="M572.99,-448.31C565.4,-439.66 554.11,-425.74 547,-412 518.7,-357.32 532.5,-335.08 505,-280 500.03,-270.05 492.99,-259.87 486.78,-251.72"/>
<polygon fill="midnightblue" stroke="midnightblue" points="489.45,-249.45 480.5,-243.78 483.96,-253.79 489.45,-249.45"/>
</g>
<!-- Node29&#45;&gt;Node27 -->
<g id="edge37" class="edge">
<title>Node29&#45;&gt;Node27</title>
<path fill="none" stroke="midnightblue" d="M589.08,-448.34C596.73,-439.72 608.05,-425.82 615,-412 628.52,-385.11 634,-377.1 634,-347 634,-347 634,-347 634,-177 634,-144.54 626.27,-107.38 620.94,-85.63"/>
<polygon fill="midnightblue" stroke="midnightblue" points="624.29,-84.59 618.43,-75.76 617.51,-86.32 624.29,-84.59"/>
</g>
<!-- Node30 -->
<g id="node30" class="node">
<title>Node30</title>
<g id="a_node30"><a xlink:title=" ">
<polygon fill="white" stroke="#bfbfbf" points="556,-392.5 556,-411.5 606,-411.5 606,-392.5 556,-392.5"/>
<text text-anchor="middle" x="581" y="-399.5" font-family="Helvetica,sans-Serif" font-size="10.00">cstring</text>
</a>
</g>
</g>
<!-- Node29&#45;&gt;Node30 -->
<g id="edge36" class="edge">
<title>Node29&#45;&gt;Node30</title>
<path fill="none" stroke="midnightblue" d="M581,-448.08C581,-441.01 581,-430.86 581,-421.99"/>
<polygon fill="midnightblue" stroke="midnightblue" points="584.5,-421.75 581,-411.75 577.5,-421.75 584.5,-421.75"/>
</g>
<!-- Node32 -->
<g id="node32" class="node">
<title>Node32</title>
<g id="a_node32"><a xlink:href="Vect_8h.html" target="_top" xlink:title=" ">
<polygon fill="white" stroke="black" points="617.5,-672.5 617.5,-691.5 664.5,-691.5 664.5,-672.5 617.5,-672.5"/>
<text text-anchor="middle" x="641" y="-679.5" font-family="Helvetica,sans-Serif" font-size="10.00">Vect.h</text>
</a>
</g>
</g>
<!-- Node31&#45;&gt;Node32 -->
<g id="edge39" class="edge">
<title>Node31&#45;&gt;Node32</title>
<path fill="none" stroke="midnightblue" d="M635.99,-728.08C636.79,-720.93 637.93,-710.64 638.92,-701.69"/>
<polygon fill="midnightblue" stroke="midnightblue" points="642.4,-702.08 640.03,-691.75 635.44,-701.3 642.4,-702.08"/>
</g>
<!-- Node33 -->
<g id="node33" class="node">
<title>Node33</title>
<g id="a_node33"><a xlink:href="MacVect_8h.html" target="_top" xlink:title=" ">
<polygon fill="white" stroke="black" points="619.5,-616.5 619.5,-635.5 686.5,-635.5 686.5,-616.5 619.5,-616.5"/>
<text text-anchor="middle" x="653" y="-623.5" font-family="Helvetica,sans-Serif" font-size="10.00">MacVect.h</text>
</a>
</g>
</g>
<!-- Node32&#45;&gt;Node33 -->
<g id="edge40" class="edge">
<title>Node32&#45;&gt;Node33</title>
<path fill="none" stroke="midnightblue" d="M642.98,-672.08C644.57,-664.93 646.86,-654.64 648.85,-645.69"/>
<polygon fill="midnightblue" stroke="midnightblue" points="652.3,-646.27 651.06,-635.75 645.47,-644.75 652.3,-646.27"/>
</g>
<!-- Node33&#45;&gt;Node12 -->
<g id="edge42" class="edge">
<title>Node33&#45;&gt;Node12</title>
<path fill="none" stroke="midnightblue" d="M668.69,-616.4C695.67,-600.31 748,-562.94 748,-515 748,-515 748,-515 748,-177 748,-139.33 719.61,-103.04 700.65,-83.01"/>
<polygon fill="midnightblue" stroke="midnightblue" points="702.95,-80.36 693.44,-75.69 697.96,-85.27 702.95,-80.36"/>
</g>
<!-- Node33&#45;&gt;Node29 -->
<g id="edge41" class="edge">
<title>Node33&#45;&gt;Node29</title>
<path fill="none" stroke="midnightblue" d="M652.19,-616.34C650.79,-603.63 647.36,-579.36 640,-560 628.04,-528.51 606.81,-495.43 593.34,-476.04"/>
<polygon fill="midnightblue" stroke="midnightblue" points="596.07,-473.82 587.43,-467.68 590.35,-477.87 596.07,-473.82"/>
</g>
<!-- Node34 -->
<g id="node34" class="node">
<title>Node34</title>
<g id="a_node34"><a xlink:href="vect__impl_8h.html" target="_top" xlink:title=" ">
<polygon fill="white" stroke="black" points="557,-560.5 557,-579.5 631,-579.5 631,-560.5 557,-560.5"/>
<text text-anchor="middle" x="594" y="-567.5" font-family="Helvetica,sans-Serif" font-size="10.00">vect_impl.h</text>
</a>
</g>
</g>
<!-- Node33&#45;&gt;Node34 -->
<g id="edge43" class="edge">
<title>Node33&#45;&gt;Node34</title>
<path fill="none" stroke="midnightblue" d="M643.52,-616.32C634.8,-608.34 621.66,-596.31 611.1,-586.65"/>
<polygon fill="midnightblue" stroke="midnightblue" points="613.39,-584 603.65,-579.83 608.67,-589.17 613.39,-584"/>
</g>
<!-- Node34&#45;&gt;Node6 -->
<g id="edge46" class="edge">
<title>Node34&#45;&gt;Node6</title>
<path fill="none" stroke="midnightblue" d="M583.88,-560.32C574.47,-552.26 560.26,-540.08 548.93,-530.37"/>
<polygon fill="midnightblue" stroke="midnightblue" points="551.18,-527.68 541.31,-523.83 546.62,-533 551.18,-527.68"/>
</g>
<!-- Node34&#45;&gt;Node12 -->
<g id="edge45" class="edge">
<title>Node34&#45;&gt;Node12</title>
<path fill="none" stroke="midnightblue" d="M615.28,-560.4C648.76,-545.3 710,-510.62 710,-459 710,-459 710,-459 710,-177 710,-143.93 698.73,-106.73 691.03,-85.17"/>
<polygon fill="midnightblue" stroke="midnightblue" points="694.27,-83.83 687.51,-75.68 687.71,-86.27 694.27,-83.83"/>
</g>
<!-- Node34&#45;&gt;Node29 -->
<g id="edge44" class="edge">
<title>Node34&#45;&gt;Node29</title>
<path fill="none" stroke="midnightblue" d="M592.98,-560.37C590.88,-542.62 586.04,-501.67 583.2,-477.6"/>
<polygon fill="midnightblue" stroke="midnightblue" points="586.66,-477.11 582.02,-467.59 579.71,-477.93 586.66,-477.11"/>
</g>
<!-- Node36 -->
<g id="node36" class="node">
<title>Node36</title>
<g id="a_node36"><a xlink:href="Ref_8h.html" target="_top" xlink:title=" ">
<polygon fill="white" stroke="black" points="421.5,-784.5 421.5,-803.5 462.5,-803.5 462.5,-784.5 421.5,-784.5"/>
<text text-anchor="middle" x="442" y="-791.5" font-family="Helvetica,sans-Serif" font-size="10.00">Ref.h</text>
</a>
</g>
</g>
<!-- Node35&#45;&gt;Node36 -->
<g id="edge48" class="edge">
<title>Node35&#45;&gt;Node36</title>
<path fill="none" stroke="midnightblue" d="M442,-840.08C442,-833.01 442,-822.86 442,-813.99"/>
<polygon fill="midnightblue" stroke="midnightblue" points="445.5,-813.75 442,-803.75 438.5,-813.75 445.5,-813.75"/>
</g>
<!-- Node37 -->
<g id="node37" class="node">
<title>Node37</title>
<g id="a_node37"><a xlink:href="MacRef_8h.html" target="_top" xlink:title=" ">
<polygon fill="white" stroke="black" points="411,-672.5 411,-691.5 473,-691.5 473,-672.5 411,-672.5"/>
<text text-anchor="middle" x="442" y="-679.5" font-family="Helvetica,sans-Serif" font-size="10.00">MacRef.h</text>
</a>
</g>
</g>
<!-- Node36&#45;&gt;Node37 -->
<g id="edge49" class="edge">
<title>Node36&#45;&gt;Node37</title>
<path fill="none" stroke="midnightblue" d="M442,-784.37C442,-766.62 442,-725.67 442,-701.6"/>
<polygon fill="midnightblue" stroke="midnightblue" points="445.5,-701.59 442,-691.59 438.5,-701.59 445.5,-701.59"/>
</g>
<!-- Node38 -->
<g id="node38" class="node">
<title>Node38</title>
<g id="a_node38"><a xlink:href="Ref___8h.html" target="_top" xlink:title=" ">
<polygon fill="white" stroke="black" points="418.5,-504.5 418.5,-523.5 465.5,-523.5 465.5,-504.5 418.5,-504.5"/>
<text text-anchor="middle" x="442" y="-511.5" font-family="Helvetica,sans-Serif" font-size="10.00">Ref_.h</text>
</a>
</g>
</g>
<!-- Node37&#45;&gt;Node38 -->
<g id="edge50" class="edge">
<title>Node37&#45;&gt;Node38</title>
<path fill="none" stroke="midnightblue" d="M442,-672.08C442,-645.95 442,-569.21 442,-533.58"/>
<polygon fill="midnightblue" stroke="midnightblue" points="445.5,-533.57 442,-523.57 438.5,-533.57 445.5,-533.57"/>
</g>
<!-- Node38&#45;&gt;Node10 -->
<g id="edge51" class="edge">
<title>Node38&#45;&gt;Node10</title>
<path fill="none" stroke="midnightblue" d="M438.53,-504.43C428.41,-478.03 401.16,-396.06 427,-336 431.68,-325.13 439.81,-314.8 447.26,-306.78"/>
<polygon fill="midnightblue" stroke="midnightblue" points="449.8,-309.18 454.33,-299.6 444.82,-304.27 449.8,-309.18"/>
</g>
<!-- Node38&#45;&gt;Node29 -->
<g id="edge52" class="edge">
<title>Node38&#45;&gt;Node29</title>
<path fill="none" stroke="midnightblue" d="M464.02,-504.44C487.1,-495.48 523.56,-481.31 549.64,-471.18"/>
<polygon fill="midnightblue" stroke="midnightblue" points="551.02,-474.4 559.08,-467.52 548.49,-467.88 551.02,-474.4"/>
</g>
</g>
</svg>
