<?xml version="1.0" encoding="UTF-8" standalone="no"?>
<!DOCTYPE svg PUBLIC "-//W3C//DTD SVG 1.1//EN"
 "http://www.w3.org/Graphics/SVG/1.1/DTD/svg11.dtd">
<!-- Generated by graphviz version 2.43.0 (0)
 -->
<!-- Title: src/Kernel/Utilitaires/List_List_Nom.h Pages: 1 -->
<svg width="812pt" height="991pt"
 viewBox="0.00 0.00 812.00 991.00" xmlns="http://www.w3.org/2000/svg" xmlns:xlink="http://www.w3.org/1999/xlink">
<g id="graph0" class="graph" transform="scale(1 1) rotate(0) translate(4 987)">
<title>src/Kernel/Utilitaires/List_List_Nom.h</title>
<polygon fill="white" stroke="transparent" points="-4,4 -4,-987 808,-987 808,4 -4,4"/>
<!-- Node1 -->
<g id="node1" class="node">
<title>Node1</title>
<g id="a_node1"><a xlink:title=" ">
<polygon fill="#bfbfbf" stroke="black" points="500,-952.5 500,-982.5 616,-982.5 616,-952.5 500,-952.5"/>
<text text-anchor="start" x="508" y="-970.5" font-family="Helvetica,sans-Serif" font-size="10.00">src/Kernel/Utilitaires</text>
<text text-anchor="middle" x="558" y="-959.5" font-family="Helvetica,sans-Serif" font-size="10.00">/List_List_Nom.h</text>
</a>
</g>
</g>
<!-- Node2 -->
<g id="node2" class="node">
<title>Node2</title>
<g id="a_node2"><a xlink:href="List__Nom_8h.html" target="_top" xlink:title=" ">
<polygon fill="white" stroke="black" points="522.5,-896.5 522.5,-915.5 593.5,-915.5 593.5,-896.5 522.5,-896.5"/>
<text text-anchor="middle" x="558" y="-903.5" font-family="Helvetica,sans-Serif" font-size="10.00">List_Nom.h</text>
</a>
</g>
</g>
<!-- Node1&#45;&gt;Node2 -->
<g id="edge1" class="edge">
<title>Node1&#45;&gt;Node2</title>
<path fill="none" stroke="midnightblue" d="M558,-952.4C558,-944.47 558,-934.46 558,-925.86"/>
<polygon fill="midnightblue" stroke="midnightblue" points="561.5,-925.66 558,-915.66 554.5,-925.66 561.5,-925.66"/>
</g>
<!-- Node3 -->
<g id="node3" class="node">
<title>Node3</title>
<g id="a_node3"><a xlink:href="List_8h.html" target="_top" xlink:title=" ">
<polygon fill="white" stroke="black" points="536.5,-840.5 536.5,-859.5 579.5,-859.5 579.5,-840.5 536.5,-840.5"/>
<text text-anchor="middle" x="558" y="-847.5" font-family="Helvetica,sans-Serif" font-size="10.00">List.h</text>
</a>
</g>
</g>
<!-- Node2&#45;&gt;Node3 -->
<g id="edge2" class="edge">
<title>Node2&#45;&gt;Node3</title>
<path fill="none" stroke="midnightblue" d="M558,-896.08C558,-889.01 558,-878.86 558,-869.99"/>
<polygon fill="midnightblue" stroke="midnightblue" points="561.5,-869.75 558,-859.75 554.5,-869.75 561.5,-869.75"/>
</g>
<!-- Node4 -->
<g id="node4" class="node">
<title>Node4</title>
<g id="a_node4"><a xlink:href="MacList_8h.html" target="_top" xlink:title=" ">
<polygon fill="white" stroke="black" points="526.5,-784.5 526.5,-803.5 589.5,-803.5 589.5,-784.5 526.5,-784.5"/>
<text text-anchor="middle" x="558" y="-791.5" font-family="Helvetica,sans-Serif" font-size="10.00">MacList.h</text>
</a>
</g>
</g>
<!-- Node3&#45;&gt;Node4 -->
<g id="edge3" class="edge">
<title>Node3&#45;&gt;Node4</title>
<path fill="none" stroke="midnightblue" d="M558,-840.08C558,-833.01 558,-822.86 558,-813.99"/>
<polygon fill="midnightblue" stroke="midnightblue" points="561.5,-813.75 558,-803.75 554.5,-813.75 561.5,-813.75"/>
</g>
<!-- Node5 -->
<g id="node5" class="node">
<title>Node5</title>
<g id="a_node5"><a xlink:href="liste_8h.html" target="_top" xlink:title=" ">
<polygon fill="white" stroke="black" points="502.5,-672.5 502.5,-691.5 549.5,-691.5 549.5,-672.5 502.5,-672.5"/>
<text text-anchor="middle" x="526" y="-679.5" font-family="Helvetica,sans-Serif" font-size="10.00">liste.h</text>
</a>
</g>
</g>
<!-- Node4&#45;&gt;Node5 -->
<g id="edge4" class="edge">
<title>Node4&#45;&gt;Node5</title>
<path fill="none" stroke="midnightblue" d="M555.49,-784.37C550.3,-766.54 538.3,-725.3 531.32,-701.27"/>
<polygon fill="midnightblue" stroke="midnightblue" points="534.65,-700.22 528.5,-691.59 527.93,-702.17 534.65,-700.22"/>
</g>
<!-- Node31 -->
<g id="node31" class="node">
<title>Node31</title>
<g id="a_node31"><a xlink:href="Motcle_8h.html" target="_top" xlink:title=" ">
<polygon fill="white" stroke="black" points="559.5,-728.5 559.5,-747.5 618.5,-747.5 618.5,-728.5 559.5,-728.5"/>
<text text-anchor="middle" x="589" y="-735.5" font-family="Helvetica,sans-Serif" font-size="10.00">Motcle.h</text>
</a>
</g>
</g>
<!-- Node4&#45;&gt;Node31 -->
<g id="edge38" class="edge">
<title>Node4&#45;&gt;Node31</title>
<path fill="none" stroke="midnightblue" d="M563.12,-784.08C567.41,-776.61 573.66,-765.72 578.94,-756.52"/>
<polygon fill="midnightblue" stroke="midnightblue" points="582.03,-758.17 583.98,-747.75 575.96,-754.68 582.03,-758.17"/>
</g>
<!-- Node6 -->
<g id="node6" class="node">
<title>Node6</title>
<g id="a_node6"><a xlink:href="DerOu___8h.html" target="_top" xlink:title=" ">
<polygon fill="white" stroke="black" points="560,-504.5 560,-523.5 622,-523.5 622,-504.5 560,-504.5"/>
<text text-anchor="middle" x="591" y="-511.5" font-family="Helvetica,sans-Serif" font-size="10.00">DerOu_.h</text>
</a>
</g>
</g>
<!-- Node5&#45;&gt;Node6 -->
<g id="edge5" class="edge">
<title>Node5&#45;&gt;Node6</title>
<path fill="none" stroke="midnightblue" d="M528.7,-672.36C535.03,-652.34 551.63,-601.31 569,-560 572.83,-550.88 577.61,-540.98 581.72,-532.8"/>
<polygon fill="midnightblue" stroke="midnightblue" points="584.87,-534.32 586.31,-523.83 578.64,-531.13 584.87,-534.32"/>
</g>
<!-- Node7 -->
<g id="node7" class="node">
<title>Node7</title>
<g id="a_node7"><a xlink:href="Deriv_8h.html" target="_top" xlink:title=" ">
<polygon fill="white" stroke="black" points="565.5,-448.5 565.5,-467.5 616.5,-467.5 616.5,-448.5 565.5,-448.5"/>
<text text-anchor="middle" x="591" y="-455.5" font-family="Helvetica,sans-Serif" font-size="10.00">Deriv.h</text>
</a>
</g>
</g>
<!-- Node6&#45;&gt;Node7 -->
<g id="edge6" class="edge">
<title>Node6&#45;&gt;Node7</title>
<path fill="none" stroke="midnightblue" d="M591,-504.08C591,-497.01 591,-486.86 591,-477.99"/>
<polygon fill="midnightblue" stroke="midnightblue" points="594.5,-477.75 591,-467.75 587.5,-477.75 594.5,-477.75"/>
</g>
<!-- Node29 -->
<g id="node29" class="node">
<title>Node29</title>
<g id="a_node29"><a xlink:href="Nom_8h.html" target="_top" xlink:title=" ">
<polygon fill="white" stroke="black" points="649.5,-448.5 649.5,-467.5 698.5,-467.5 698.5,-448.5 649.5,-448.5"/>
<text text-anchor="middle" x="674" y="-455.5" font-family="Helvetica,sans-Serif" font-size="10.00">Nom.h</text>
</a>
</g>
</g>
<!-- Node6&#45;&gt;Node29 -->
<g id="edge34" class="edge">
<title>Node6&#45;&gt;Node29</title>
<path fill="none" stroke="midnightblue" d="M604.34,-504.32C617.16,-495.98 636.78,-483.21 651.94,-473.35"/>
<polygon fill="midnightblue" stroke="midnightblue" points="654.22,-476.04 660.7,-467.65 650.41,-470.17 654.22,-476.04"/>
</g>
<!-- Node8 -->
<g id="node8" class="node">
<title>Node8</title>
<g id="a_node8"><a xlink:href="MacDeriv_8h.html" target="_top" xlink:title=" ">
<polygon fill="white" stroke="black" points="560.5,-392.5 560.5,-411.5 631.5,-411.5 631.5,-392.5 560.5,-392.5"/>
<text text-anchor="middle" x="596" y="-399.5" font-family="Helvetica,sans-Serif" font-size="10.00">MacDeriv.h</text>
</a>
</g>
</g>
<!-- Node7&#45;&gt;Node8 -->
<g id="edge7" class="edge">
<title>Node7&#45;&gt;Node8</title>
<path fill="none" stroke="midnightblue" d="M591.83,-448.08C592.48,-441.01 593.42,-430.86 594.24,-421.99"/>
<polygon fill="midnightblue" stroke="midnightblue" points="597.75,-422.03 595.19,-411.75 590.78,-421.39 597.75,-422.03"/>
</g>
<!-- Node9 -->
<g id="node9" class="node">
<title>Node9</title>
<g id="a_node9"><a xlink:href="Deriv___8h.html" target="_top" xlink:title=" ">
<polygon fill="white" stroke="black" points="566.5,-336.5 566.5,-355.5 623.5,-355.5 623.5,-336.5 566.5,-336.5"/>
<text text-anchor="middle" x="595" y="-343.5" font-family="Helvetica,sans-Serif" font-size="10.00">Deriv_.h</text>
</a>
</g>
</g>
<!-- Node8&#45;&gt;Node9 -->
<g id="edge8" class="edge">
<title>Node8&#45;&gt;Node9</title>
<path fill="none" stroke="midnightblue" d="M595.83,-392.08C595.7,-385.01 595.52,-374.86 595.35,-365.99"/>
<polygon fill="midnightblue" stroke="midnightblue" points="598.85,-365.68 595.16,-355.75 591.85,-365.81 598.85,-365.68"/>
</g>
<!-- Node10 -->
<g id="node10" class="node">
<title>Node10</title>
<g id="a_node10"><a xlink:href="O__U__Ptr_8h.html" target="_top" xlink:title=" ">
<polygon fill="white" stroke="black" points="563,-280.5 563,-299.5 627,-299.5 627,-280.5 563,-280.5"/>
<text text-anchor="middle" x="595" y="-287.5" font-family="Helvetica,sans-Serif" font-size="10.00">O_U_Ptr.h</text>
</a>
</g>
</g>
<!-- Node9&#45;&gt;Node10 -->
<g id="edge9" class="edge">
<title>Node9&#45;&gt;Node10</title>
<path fill="none" stroke="midnightblue" d="M595,-336.08C595,-329.01 595,-318.86 595,-309.99"/>
<polygon fill="midnightblue" stroke="midnightblue" points="598.5,-309.75 595,-299.75 591.5,-309.75 598.5,-309.75"/>
</g>
<!-- Node11 -->
<g id="node11" class="node">
<title>Node11</title>
<g id="a_node11"><a xlink:href="Objet__U_8h.html" target="_top" xlink:title=" ">
<polygon fill="white" stroke="black" points="506.5,-224.5 506.5,-243.5 571.5,-243.5 571.5,-224.5 506.5,-224.5"/>
<text text-anchor="middle" x="539" y="-231.5" font-family="Helvetica,sans-Serif" font-size="10.00">Objet_U.h</text>
</a>
</g>
</g>
<!-- Node10&#45;&gt;Node11 -->
<g id="edge10" class="edge">
<title>Node10&#45;&gt;Node11</title>
<path fill="none" stroke="midnightblue" d="M586,-280.32C577.81,-272.42 565.49,-260.55 555.53,-250.94"/>
<polygon fill="midnightblue" stroke="midnightblue" points="557.79,-248.26 548.16,-243.83 552.93,-253.29 557.79,-248.26"/>
</g>
<!-- Node12 -->
<g id="node12" class="node">
<title>Node12</title>
<g id="a_node12"><a xlink:title=" ">
<polygon fill="white" stroke="#bfbfbf" points="606,-56.5 606,-75.5 662,-75.5 662,-56.5 606,-56.5"/>
<text text-anchor="middle" x="634" y="-63.5" font-family="Helvetica,sans-Serif" font-size="10.00">assert.h</text>
</a>
</g>
</g>
<!-- Node11&#45;&gt;Node12 -->
<g id="edge11" class="edge">
<title>Node11&#45;&gt;Node12</title>
<path fill="none" stroke="midnightblue" d="M547.33,-224.28C562.81,-207.64 596.12,-169.66 615,-132 622.41,-117.22 627.41,-99.06 630.42,-85.7"/>
<polygon fill="midnightblue" stroke="midnightblue" points="633.87,-86.29 632.48,-75.78 627.02,-84.86 633.87,-86.29"/>
</g>
<!-- Node13 -->
<g id="node13" class="node">
<title>Node13</title>
<g id="a_node13"><a xlink:href="DecBaseInst_8h.html" target="_top" xlink:title=" ">
<polygon fill="white" stroke="black" points="135,-168.5 135,-187.5 221,-187.5 221,-168.5 135,-168.5"/>
<text text-anchor="middle" x="178" y="-175.5" font-family="Helvetica,sans-Serif" font-size="10.00">DecBaseInst.h</text>
</a>
</g>
</g>
<!-- Node11&#45;&gt;Node13 -->
<g id="edge12" class="edge">
<title>Node11&#45;&gt;Node13</title>
<path fill="none" stroke="midnightblue" d="M506.33,-228.11C443.92,-218.78 307.22,-198.33 231.37,-186.98"/>
<polygon fill="midnightblue" stroke="midnightblue" points="231.49,-183.46 221.09,-185.44 230.46,-190.39 231.49,-183.46"/>
</g>
<!-- Node18 -->
<g id="node18" class="node">
<title>Node18</title>
<g id="a_node18"><a xlink:href="EntreeSortie_8h.html" target="_top" xlink:title=" ">
<polygon fill="white" stroke="black" points="468,-168.5 468,-187.5 554,-187.5 554,-168.5 468,-168.5"/>
<text text-anchor="middle" x="511" y="-175.5" font-family="Helvetica,sans-Serif" font-size="10.00">EntreeSortie.h</text>
</a>
</g>
</g>
<!-- Node11&#45;&gt;Node18 -->
<g id="edge18" class="edge">
<title>Node11&#45;&gt;Node18</title>
<path fill="none" stroke="midnightblue" d="M534.38,-224.08C530.54,-216.69 524.98,-205.95 520.24,-196.81"/>
<polygon fill="midnightblue" stroke="midnightblue" points="523.25,-195.02 515.54,-187.75 517.03,-198.24 523.25,-195.02"/>
</g>
<!-- Node23 -->
<g id="node23" class="node">
<title>Node23</title>
<g id="a_node23"><a xlink:href="Process_8h.html" target="_top" xlink:title=" ">
<polygon fill="white" stroke="black" points="240.5,-56.5 240.5,-75.5 303.5,-75.5 303.5,-56.5 240.5,-56.5"/>
<text text-anchor="middle" x="272" y="-63.5" font-family="Helvetica,sans-Serif" font-size="10.00">Process.h</text>
</a>
</g>
</g>
<!-- Node11&#45;&gt;Node23 -->
<g id="edge33" class="edge">
<title>Node11&#45;&gt;Node23</title>
<path fill="none" stroke="midnightblue" d="M523.21,-224.48C506.95,-215.62 480.98,-201.24 459,-188 397.84,-151.16 327.63,-104.52 293.23,-81.38"/>
<polygon fill="midnightblue" stroke="midnightblue" points="294.77,-78.19 284.52,-75.5 290.85,-83.99 294.77,-78.19"/>
</g>
<!-- Node14 -->
<g id="node14" class="node">
<title>Node14</title>
<g id="a_node14"><a xlink:href="Cast_8h.html" target="_top" xlink:title=" ">
<polygon fill="white" stroke="black" points="55.5,-56.5 55.5,-75.5 102.5,-75.5 102.5,-56.5 55.5,-56.5"/>
<text text-anchor="middle" x="79" y="-63.5" font-family="Helvetica,sans-Serif" font-size="10.00">Cast.h</text>
</a>
</g>
</g>
<!-- Node13&#45;&gt;Node14 -->
<g id="edge13" class="edge">
<title>Node13&#45;&gt;Node14</title>
<path fill="none" stroke="midnightblue" d="M168.79,-168.27C159.51,-159.38 144.91,-145.06 133,-132 118.4,-115.99 102.68,-96.83 91.99,-83.47"/>
<polygon fill="midnightblue" stroke="midnightblue" points="94.71,-81.27 85.75,-75.63 89.23,-85.63 94.71,-81.27"/>
</g>
<!-- Node15 -->
<g id="node15" class="node">
<title>Node15</title>
<g id="a_node15"><a xlink:href="Type__info_8h.html" target="_top" xlink:title=" ">
<polygon fill="white" stroke="black" points="142,-112.5 142,-131.5 214,-131.5 214,-112.5 142,-112.5"/>
<text text-anchor="middle" x="178" y="-119.5" font-family="Helvetica,sans-Serif" font-size="10.00">Type_info.h</text>
</a>
</g>
</g>
<!-- Node13&#45;&gt;Node15 -->
<g id="edge14" class="edge">
<title>Node13&#45;&gt;Node15</title>
<path fill="none" stroke="midnightblue" d="M178,-168.08C178,-161.01 178,-150.86 178,-141.99"/>
<polygon fill="midnightblue" stroke="midnightblue" points="181.5,-141.75 178,-131.75 174.5,-141.75 181.5,-141.75"/>
</g>
<!-- Node16 -->
<g id="node16" class="node">
<title>Node16</title>
<g id="a_node16"><a xlink:href="Declare__Base_8h.html" target="_top" xlink:title=" ">
<polygon fill="white" stroke="black" points="232,-112.5 232,-131.5 324,-131.5 324,-112.5 232,-112.5"/>
<text text-anchor="middle" x="278" y="-119.5" font-family="Helvetica,sans-Serif" font-size="10.00">Declare_Base.h</text>
</a>
</g>
</g>
<!-- Node13&#45;&gt;Node16 -->
<g id="edge15" class="edge">
<title>Node13&#45;&gt;Node16</title>
<path fill="none" stroke="midnightblue" d="M194.07,-168.32C209.96,-159.74 234.51,-146.49 252.96,-136.52"/>
<polygon fill="midnightblue" stroke="midnightblue" points="254.84,-139.49 261.97,-131.65 251.51,-133.33 254.84,-139.49"/>
</g>
<!-- Node17 -->
<g id="node17" class="node">
<title>Node17</title>
<g id="a_node17"><a xlink:href="Declare__Inst_8h.html" target="_top" xlink:title=" ">
<polygon fill="white" stroke="black" points="0,-112.5 0,-131.5 86,-131.5 86,-112.5 0,-112.5"/>
<text text-anchor="middle" x="43" y="-119.5" font-family="Helvetica,sans-Serif" font-size="10.00">Declare_Inst.h</text>
</a>
</g>
</g>
<!-- Node13&#45;&gt;Node17 -->
<g id="edge16" class="edge">
<title>Node13&#45;&gt;Node17</title>
<path fill="none" stroke="midnightblue" d="M156.61,-168.44C134.29,-159.52 99.1,-145.44 73.79,-135.32"/>
<polygon fill="midnightblue" stroke="midnightblue" points="74.88,-131.98 64.29,-131.52 72.28,-138.48 74.88,-131.98"/>
</g>
<!-- Node17&#45;&gt;Node14 -->
<g id="edge17" class="edge">
<title>Node17&#45;&gt;Node14</title>
<path fill="none" stroke="midnightblue" d="M48.94,-112.08C53.98,-104.53 61.34,-93.49 67.51,-84.23"/>
<polygon fill="midnightblue" stroke="midnightblue" points="70.53,-86.01 73.17,-75.75 64.71,-82.13 70.53,-86.01"/>
</g>
<!-- Node19 -->
<g id="node19" class="node">
<title>Node19</title>
<g id="a_node19"><a xlink:href="Entree_8h.html" target="_top" xlink:title=" ">
<polygon fill="white" stroke="black" points="380.5,-112.5 380.5,-131.5 437.5,-131.5 437.5,-112.5 380.5,-112.5"/>
<text text-anchor="middle" x="409" y="-119.5" font-family="Helvetica,sans-Serif" font-size="10.00">Entree.h</text>
</a>
</g>
</g>
<!-- Node18&#45;&gt;Node19 -->
<g id="edge19" class="edge">
<title>Node18&#45;&gt;Node19</title>
<path fill="none" stroke="midnightblue" d="M494.61,-168.32C478.33,-159.7 453.13,-146.36 434.28,-136.39"/>
<polygon fill="midnightblue" stroke="midnightblue" points="435.82,-133.24 425.35,-131.65 432.55,-139.43 435.82,-133.24"/>
</g>
<!-- Node26 -->
<g id="node26" class="node">
<title>Node26</title>
<g id="a_node26"><a xlink:href="Sortie_8h.html" target="_top" xlink:title=" ">
<polygon fill="white" stroke="black" points="456,-112.5 456,-131.5 510,-131.5 510,-112.5 456,-112.5"/>
<text text-anchor="middle" x="483" y="-119.5" font-family="Helvetica,sans-Serif" font-size="10.00">Sortie.h</text>
</a>
</g>
</g>
<!-- Node18&#45;&gt;Node26 -->
<g id="edge27" class="edge">
<title>Node18&#45;&gt;Node26</title>
<path fill="none" stroke="midnightblue" d="M506.38,-168.08C502.54,-160.69 496.98,-149.95 492.24,-140.81"/>
<polygon fill="midnightblue" stroke="midnightblue" points="495.25,-139.02 487.54,-131.75 489.03,-142.24 495.25,-139.02"/>
</g>
<!-- Node28 -->
<g id="node28" class="node">
<title>Node28</title>
<g id="a_node28"><a xlink:href="Separateur_8h.html" target="_top" xlink:title=" ">
<polygon fill="white" stroke="black" points="528,-112.5 528,-131.5 606,-131.5 606,-112.5 528,-112.5"/>
<text text-anchor="middle" x="567" y="-119.5" font-family="Helvetica,sans-Serif" font-size="10.00">Separateur.h</text>
</a>
</g>
</g>
<!-- Node18&#45;&gt;Node28 -->
<g id="edge32" class="edge">
<title>Node18&#45;&gt;Node28</title>
<path fill="none" stroke="midnightblue" d="M520,-168.32C528.19,-160.42 540.51,-148.55 550.47,-138.94"/>
<polygon fill="midnightblue" stroke="midnightblue" points="553.07,-141.29 557.84,-131.83 548.21,-136.26 553.07,-141.29"/>
</g>
<!-- Node19&#45;&gt;Node12 -->
<g id="edge23" class="edge">
<title>Node19&#45;&gt;Node12</title>
<path fill="none" stroke="midnightblue" d="M437.95,-114.05C478.26,-104.38 551.33,-86.84 595.98,-76.13"/>
<polygon fill="midnightblue" stroke="midnightblue" points="596.96,-79.49 605.86,-73.75 595.32,-72.68 596.96,-79.49"/>
</g>
<!-- Node20 -->
<g id="node20" class="node">
<title>Node20</title>
<g id="a_node20"><a xlink:title=" ">
<polygon fill="white" stroke="#bfbfbf" points="322,-56.5 322,-75.5 372,-75.5 372,-56.5 322,-56.5"/>
<text text-anchor="middle" x="347" y="-63.5" font-family="Helvetica,sans-Serif" font-size="10.00">stdio.h</text>
</a>
</g>
</g>
<!-- Node19&#45;&gt;Node20 -->
<g id="edge20" class="edge">
<title>Node19&#45;&gt;Node20</title>
<path fill="none" stroke="midnightblue" d="M399.04,-112.32C389.87,-104.34 376.06,-92.31 364.97,-82.65"/>
<polygon fill="midnightblue" stroke="midnightblue" points="366.98,-79.76 357.14,-75.83 362.38,-85.04 366.98,-79.76"/>
</g>
<!-- Node21 -->
<g id="node21" class="node">
<title>Node21</title>
<g id="a_node21"><a xlink:title=" ">
<polygon fill="white" stroke="#bfbfbf" points="390,-56.5 390,-75.5 436,-75.5 436,-56.5 390,-56.5"/>
<text text-anchor="middle" x="413" y="-63.5" font-family="Helvetica,sans-Serif" font-size="10.00">cstdio</text>
</a>
</g>
</g>
<!-- Node19&#45;&gt;Node21 -->
<g id="edge21" class="edge">
<title>Node19&#45;&gt;Node21</title>
<path fill="none" stroke="midnightblue" d="M409.66,-112.08C410.18,-105.01 410.94,-94.86 411.59,-85.99"/>
<polygon fill="midnightblue" stroke="midnightblue" points="415.1,-85.98 412.35,-75.75 408.12,-85.47 415.1,-85.98"/>
</g>
<!-- Node22 -->
<g id="node22" class="node">
<title>Node22</title>
<g id="a_node22"><a xlink:title=" ">
<polygon fill="white" stroke="#bfbfbf" points="520,-56.5 520,-75.5 580,-75.5 580,-56.5 520,-56.5"/>
<text text-anchor="middle" x="550" y="-63.5" font-family="Helvetica,sans-Serif" font-size="10.00">iostream</text>
</a>
</g>
</g>
<!-- Node19&#45;&gt;Node22 -->
<g id="edge22" class="edge">
<title>Node19&#45;&gt;Node22</title>
<path fill="none" stroke="midnightblue" d="M431.34,-112.44C454.75,-103.48 491.74,-89.31 518.19,-79.18"/>
<polygon fill="midnightblue" stroke="midnightblue" points="519.68,-82.36 527.76,-75.52 517.17,-75.82 519.68,-82.36"/>
</g>
<!-- Node19&#45;&gt;Node23 -->
<g id="edge24" class="edge">
<title>Node19&#45;&gt;Node23</title>
<path fill="none" stroke="midnightblue" d="M387.29,-112.44C364.65,-103.52 328.93,-89.44 303.25,-79.32"/>
<polygon fill="midnightblue" stroke="midnightblue" points="304.19,-75.93 293.61,-75.52 301.63,-82.44 304.19,-75.93"/>
</g>
<!-- Node24 -->
<g id="node24" class="node">
<title>Node24</title>
<g id="a_node24"><a xlink:href="arch_8h.html" target="_top" xlink:title=" ">
<polygon fill="white" stroke="black" points="454.5,-56.5 454.5,-75.5 501.5,-75.5 501.5,-56.5 454.5,-56.5"/>
<text text-anchor="middle" x="478" y="-63.5" font-family="Helvetica,sans-Serif" font-size="10.00">arch.h</text>
</a>
</g>
</g>
<!-- Node19&#45;&gt;Node24 -->
<g id="edge25" class="edge">
<title>Node19&#45;&gt;Node24</title>
<path fill="none" stroke="midnightblue" d="M420.09,-112.32C430.49,-104.18 446.26,-91.84 458.72,-82.09"/>
<polygon fill="midnightblue" stroke="midnightblue" points="460.99,-84.75 466.71,-75.83 456.68,-79.24 460.99,-84.75"/>
</g>
<!-- Node25 -->
<g id="node25" class="node">
<title>Node25</title>
<g id="a_node25"><a xlink:href="generique_8h.html" target="_top" xlink:title=" ">
<polygon fill="white" stroke="black" points="441,-0.5 441,-19.5 515,-19.5 515,-0.5 441,-0.5"/>
<text text-anchor="middle" x="478" y="-7.5" font-family="Helvetica,sans-Serif" font-size="10.00">generique.h</text>
</a>
</g>
</g>
<!-- Node24&#45;&gt;Node25 -->
<g id="edge26" class="edge">
<title>Node24&#45;&gt;Node25</title>
<path fill="none" stroke="midnightblue" d="M478,-56.08C478,-49.01 478,-38.86 478,-29.99"/>
<polygon fill="midnightblue" stroke="midnightblue" points="481.5,-29.75 478,-19.75 474.5,-29.75 481.5,-29.75"/>
</g>
<!-- Node26&#45;&gt;Node12 -->
<g id="edge29" class="edge">
<title>Node26&#45;&gt;Node12</title>
<path fill="none" stroke="midnightblue" d="M506.93,-112.44C532.22,-103.4 572.3,-89.06 600.68,-78.92"/>
<polygon fill="midnightblue" stroke="midnightblue" points="601.95,-82.18 610.19,-75.52 599.59,-75.59 601.95,-82.18"/>
</g>
<!-- Node26&#45;&gt;Node22 -->
<g id="edge28" class="edge">
<title>Node26&#45;&gt;Node22</title>
<path fill="none" stroke="midnightblue" d="M493.76,-112.32C503.77,-104.26 518.89,-92.08 530.93,-82.37"/>
<polygon fill="midnightblue" stroke="midnightblue" points="533.45,-84.83 539.04,-75.83 529.06,-79.38 533.45,-84.83"/>
</g>
<!-- Node26&#45;&gt;Node24 -->
<g id="edge30" class="edge">
<title>Node26&#45;&gt;Node24</title>
<path fill="none" stroke="midnightblue" d="M482.17,-112.08C481.52,-105.01 480.58,-94.86 479.76,-85.99"/>
<polygon fill="midnightblue" stroke="midnightblue" points="483.22,-85.39 478.81,-75.75 476.25,-86.03 483.22,-85.39"/>
</g>
<!-- Node27 -->
<g id="node27" class="node">
<title>Node27</title>
<g id="a_node27"><a xlink:title=" ">
<polygon fill="white" stroke="#bfbfbf" points="712,-56.5 712,-75.5 756,-75.5 756,-56.5 712,-56.5"/>
<text text-anchor="middle" x="734" y="-63.5" font-family="Helvetica,sans-Serif" font-size="10.00">string</text>
</a>
</g>
</g>
<!-- Node26&#45;&gt;Node27 -->
<g id="edge31" class="edge">
<title>Node26&#45;&gt;Node27</title>
<path fill="none" stroke="midnightblue" d="M510.1,-114.11C513.1,-113.38 516.11,-112.66 519,-112 583.76,-97.13 659.96,-81.66 702.03,-73.29"/>
<polygon fill="midnightblue" stroke="midnightblue" points="702.84,-76.7 711.96,-71.32 701.47,-69.83 702.84,-76.7"/>
</g>
<!-- Node29&#45;&gt;Node11 -->
<g id="edge35" class="edge">
<title>Node29&#45;&gt;Node11</title>
<path fill="none" stroke="midnightblue" d="M674.68,-448.12C676.34,-420.11 677.78,-332.31 636,-280 622.32,-262.88 600.63,-251.98 581.23,-245.2"/>
<polygon fill="midnightblue" stroke="midnightblue" points="582.23,-241.85 571.64,-242.11 580.08,-248.51 582.23,-241.85"/>
</g>
<!-- Node29&#45;&gt;Node27 -->
<g id="edge37" class="edge">
<title>Node29&#45;&gt;Node27</title>
<path fill="none" stroke="midnightblue" d="M696.23,-448.49C712.53,-441.16 734,-429.05 747,-412 765.25,-388.06 766,-377.1 766,-347 766,-347 766,-347 766,-177 766,-143.33 752.01,-106.08 742.53,-84.72"/>
<polygon fill="midnightblue" stroke="midnightblue" points="745.68,-83.21 738.32,-75.59 739.33,-86.14 745.68,-83.21"/>
</g>
<!-- Node30 -->
<g id="node30" class="node">
<title>Node30</title>
<g id="a_node30"><a xlink:title=" ">
<polygon fill="white" stroke="#bfbfbf" points="688,-392.5 688,-411.5 738,-411.5 738,-392.5 688,-392.5"/>
<text text-anchor="middle" x="713" y="-399.5" font-family="Helvetica,sans-Serif" font-size="10.00">cstring</text>
</a>
</g>
</g>
<!-- Node29&#45;&gt;Node30 -->
<g id="edge36" class="edge">
<title>Node29&#45;&gt;Node30</title>
<path fill="none" stroke="midnightblue" d="M680.44,-448.08C685.95,-440.46 694.03,-429.26 700.76,-419.94"/>
<polygon fill="midnightblue" stroke="midnightblue" points="703.66,-421.91 706.68,-411.75 697.99,-417.81 703.66,-421.91"/>
</g>
<!-- Node32 -->
<g id="node32" class="node">
<title>Node32</title>
<g id="a_node32"><a xlink:href="Vect_8h.html" target="_top" xlink:title=" ">
<polygon fill="white" stroke="black" points="583.5,-672.5 583.5,-691.5 630.5,-691.5 630.5,-672.5 583.5,-672.5"/>
<text text-anchor="middle" x="607" y="-679.5" font-family="Helvetica,sans-Serif" font-size="10.00">Vect.h</text>
</a>
</g>
</g>
<!-- Node31&#45;&gt;Node32 -->
<g id="edge39" class="edge">
<title>Node31&#45;&gt;Node32</title>
<path fill="none" stroke="midnightblue" d="M591.97,-728.08C594.38,-720.85 597.86,-710.41 600.87,-701.4"/>
<polygon fill="midnightblue" stroke="midnightblue" points="604.24,-702.34 604.08,-691.75 597.6,-700.13 604.24,-702.34"/>
</g>
<!-- Node33 -->
<g id="node33" class="node">
<title>Node33</title>
<g id="a_node33"><a xlink:href="MacVect_8h.html" target="_top" xlink:title=" ">
<polygon fill="white" stroke="black" points="577.5,-616.5 577.5,-635.5 644.5,-635.5 644.5,-616.5 577.5,-616.5"/>
<text text-anchor="middle" x="611" y="-623.5" font-family="Helvetica,sans-Serif" font-size="10.00">MacVect.h</text>
</a>
</g>
</g>
<!-- Node32&#45;&gt;Node33 -->
<g id="edge40" class="edge">
<title>Node32&#45;&gt;Node33</title>
<path fill="none" stroke="midnightblue" d="M607.66,-672.08C608.18,-665.01 608.94,-654.86 609.59,-645.99"/>
<polygon fill="midnightblue" stroke="midnightblue" points="613.1,-645.98 610.35,-635.75 606.12,-645.47 613.1,-645.98"/>
</g>
<!-- Node33&#45;&gt;Node12 -->
<g id="edge42" class="edge">
<title>Node33&#45;&gt;Node12</title>
<path fill="none" stroke="midnightblue" d="M598.66,-616.28C576.44,-599.45 532,-560.14 532,-515 532,-515 532,-515 532,-457 532,-377.73 524.33,-353.51 554,-280 561.48,-261.45 570.73,-261.16 581,-244 609.17,-196.9 620.75,-185.5 633,-132 636.51,-116.68 636.49,-98.8 635.75,-85.68"/>
<polygon fill="midnightblue" stroke="midnightblue" points="639.23,-85.26 634.99,-75.55 632.25,-85.78 639.23,-85.26"/>
</g>
<!-- Node33&#45;&gt;Node29 -->
<g id="edge41" class="edge">
<title>Node33&#45;&gt;Node29</title>
<path fill="none" stroke="midnightblue" d="M625.52,-616.27C637.23,-608.37 653.03,-595.6 661,-580 677.85,-547.03 677.72,-502.5 675.97,-477.68"/>
<polygon fill="midnightblue" stroke="midnightblue" points="679.43,-477.16 675.07,-467.5 672.46,-477.77 679.43,-477.16"/>
</g>
<!-- Node34 -->
<g id="node34" class="node">
<title>Node34</title>
<g id="a_node34"><a xlink:href="vect__impl_8h.html" target="_top" xlink:title=" ">
<polygon fill="white" stroke="black" points="578,-560.5 578,-579.5 652,-579.5 652,-560.5 578,-560.5"/>
<text text-anchor="middle" x="615" y="-567.5" font-family="Helvetica,sans-Serif" font-size="10.00">vect_impl.h</text>
</a>
</g>
</g>
<!-- Node33&#45;&gt;Node34 -->
<g id="edge43" class="edge">
<title>Node33&#45;&gt;Node34</title>
<path fill="none" stroke="midnightblue" d="M611.66,-616.08C612.18,-609.01 612.94,-598.86 613.59,-589.99"/>
<polygon fill="midnightblue" stroke="midnightblue" points="617.1,-589.98 614.35,-579.75 610.12,-589.47 617.1,-589.98"/>
</g>
<!-- Node34&#45;&gt;Node6 -->
<g id="edge46" class="edge">
<title>Node34&#45;&gt;Node6</title>
<path fill="none" stroke="midnightblue" d="M611.04,-560.08C607.79,-552.77 603.08,-542.18 599.05,-533.1"/>
<polygon fill="midnightblue" stroke="midnightblue" points="602.15,-531.47 594.89,-523.75 595.75,-534.31 602.15,-531.47"/>
</g>
<!-- Node34&#45;&gt;Node12 -->
<g id="edge45" class="edge">
<title>Node34&#45;&gt;Node12</title>
<path fill="none" stroke="midnightblue" d="M652.34,-564.22C707.42,-554.83 804,-528.48 804,-459 804,-459 804,-459 804,-233 804,-155.65 712.8,-102.56 664,-79.68"/>
<polygon fill="midnightblue" stroke="midnightblue" points="665.4,-76.47 654.85,-75.51 662.49,-82.84 665.4,-76.47"/>
</g>
<!-- Node34&#45;&gt;Node29 -->
<g id="edge44" class="edge">
<title>Node34&#45;&gt;Node29</title>
<path fill="none" stroke="midnightblue" d="M619.63,-560.37C629.28,-542.38 651.71,-500.55 664.55,-476.63"/>
<polygon fill="midnightblue" stroke="midnightblue" points="667.75,-478.06 669.39,-467.59 661.58,-474.75 667.75,-478.06"/>
</g>
</g>
</svg>
