<?xml version="1.0" encoding="UTF-8" standalone="no"?>
<!DOCTYPE svg PUBLIC "-//W3C//DTD SVG 1.1//EN"
 "http://www.w3.org/Graphics/SVG/1.1/DTD/svg11.dtd">
<!-- Generated by graphviz version 2.43.0 (0)
 -->
<!-- Title: src/Kernel/Utilitaires/List_Noms.h Pages: 1 -->
<svg width="756pt" height="935pt"
 viewBox="0.00 0.00 756.00 935.00" xmlns="http://www.w3.org/2000/svg" xmlns:xlink="http://www.w3.org/1999/xlink">
<g id="graph0" class="graph" transform="scale(1 1) rotate(0) translate(4 931)">
<title>src/Kernel/Utilitaires/List_Noms.h</title>
<polygon fill="white" stroke="transparent" points="-4,4 -4,-931 752,-931 752,4 -4,4"/>
<!-- Node1 -->
<g id="node1" class="node">
<title>Node1</title>
<g id="a_node1"><a xlink:title=" ">
<polygon fill="#bfbfbf" stroke="black" points="564,-896.5 564,-926.5 680,-926.5 680,-896.5 564,-896.5"/>
<text text-anchor="start" x="572" y="-914.5" font-family="Helvetica,sans-Serif" font-size="10.00">src/Kernel/Utilitaires</text>
<text text-anchor="middle" x="622" y="-903.5" font-family="Helvetica,sans-Serif" font-size="10.00">/List_Noms.h</text>
</a>
</g>
</g>
<!-- Node2 -->
<g id="node2" class="node">
<title>Node2</title>
<g id="a_node2"><a xlink:href="Noms_8h.html" target="_top" xlink:title=" ">
<polygon fill="white" stroke="black" points="634,-784.5 634,-803.5 688,-803.5 688,-784.5 634,-784.5"/>
<text text-anchor="middle" x="661" y="-791.5" font-family="Helvetica,sans-Serif" font-size="10.00">Noms.h</text>
</a>
</g>
</g>
<!-- Node1&#45;&gt;Node2 -->
<g id="edge1" class="edge">
<title>Node1&#45;&gt;Node2</title>
<path fill="none" stroke="midnightblue" d="M626.78,-896.34C633.84,-875.43 647.05,-836.31 654.83,-813.27"/>
<polygon fill="midnightblue" stroke="midnightblue" points="658.19,-814.26 658.07,-803.67 651.56,-812.02 658.19,-814.26"/>
</g>
<!-- Node31 -->
<g id="node31" class="node">
<title>Node31</title>
<g id="a_node31"><a xlink:href="List_8h.html" target="_top" xlink:title=" ">
<polygon fill="white" stroke="black" points="575.5,-840.5 575.5,-859.5 618.5,-859.5 618.5,-840.5 575.5,-840.5"/>
<text text-anchor="middle" x="597" y="-847.5" font-family="Helvetica,sans-Serif" font-size="10.00">List.h</text>
</a>
</g>
</g>
<!-- Node1&#45;&gt;Node31 -->
<g id="edge42" class="edge">
<title>Node1&#45;&gt;Node31</title>
<path fill="none" stroke="midnightblue" d="M616.08,-896.4C612.63,-888.2 608.25,-877.78 604.56,-868.99"/>
<polygon fill="midnightblue" stroke="midnightblue" points="607.74,-867.52 600.64,-859.66 601.28,-870.23 607.74,-867.52"/>
</g>
<!-- Node3 -->
<g id="node3" class="node">
<title>Node3</title>
<g id="a_node3"><a xlink:href="Vect_8h.html" target="_top" xlink:title=" ">
<polygon fill="white" stroke="black" points="637.5,-672.5 637.5,-691.5 684.5,-691.5 684.5,-672.5 637.5,-672.5"/>
<text text-anchor="middle" x="661" y="-679.5" font-family="Helvetica,sans-Serif" font-size="10.00">Vect.h</text>
</a>
</g>
</g>
<!-- Node2&#45;&gt;Node3 -->
<g id="edge2" class="edge">
<title>Node2&#45;&gt;Node3</title>
<path fill="none" stroke="midnightblue" d="M661,-784.37C661,-766.62 661,-725.67 661,-701.6"/>
<polygon fill="midnightblue" stroke="midnightblue" points="664.5,-701.59 661,-691.59 657.5,-701.59 664.5,-701.59"/>
</g>
<!-- Node4 -->
<g id="node4" class="node">
<title>Node4</title>
<g id="a_node4"><a xlink:href="MacVect_8h.html" target="_top" xlink:title=" ">
<polygon fill="white" stroke="black" points="627.5,-616.5 627.5,-635.5 694.5,-635.5 694.5,-616.5 627.5,-616.5"/>
<text text-anchor="middle" x="661" y="-623.5" font-family="Helvetica,sans-Serif" font-size="10.00">MacVect.h</text>
</a>
</g>
</g>
<!-- Node3&#45;&gt;Node4 -->
<g id="edge3" class="edge">
<title>Node3&#45;&gt;Node4</title>
<path fill="none" stroke="midnightblue" d="M661,-672.08C661,-665.01 661,-654.86 661,-645.99"/>
<polygon fill="midnightblue" stroke="midnightblue" points="664.5,-645.75 661,-635.75 657.5,-645.75 664.5,-645.75"/>
</g>
<!-- Node5 -->
<g id="node5" class="node">
<title>Node5</title>
<g id="a_node5"><a xlink:href="Nom_8h.html" target="_top" xlink:title=" ">
<polygon fill="white" stroke="black" points="581.5,-448.5 581.5,-467.5 630.5,-467.5 630.5,-448.5 581.5,-448.5"/>
<text text-anchor="middle" x="606" y="-455.5" font-family="Helvetica,sans-Serif" font-size="10.00">Nom.h</text>
</a>
</g>
</g>
<!-- Node4&#45;&gt;Node5 -->
<g id="edge4" class="edge">
<title>Node4&#45;&gt;Node5</title>
<path fill="none" stroke="midnightblue" d="M647.94,-616.38C637.04,-608.37 622.16,-595.4 615,-580 599.51,-546.69 600.95,-502.62 603.44,-477.9"/>
<polygon fill="midnightblue" stroke="midnightblue" points="606.94,-478.07 604.64,-467.73 599.99,-477.25 606.94,-478.07"/>
</g>
<!-- Node7 -->
<g id="node7" class="node">
<title>Node7</title>
<g id="a_node7"><a xlink:title=" ">
<polygon fill="white" stroke="#bfbfbf" points="614,-56.5 614,-75.5 670,-75.5 670,-56.5 614,-56.5"/>
<text text-anchor="middle" x="642" y="-63.5" font-family="Helvetica,sans-Serif" font-size="10.00">assert.h</text>
</a>
</g>
</g>
<!-- Node4&#45;&gt;Node7 -->
<g id="edge31" class="edge">
<title>Node4&#45;&gt;Node7</title>
<path fill="none" stroke="midnightblue" d="M674.98,-616.32C699.57,-599.85 748,-561.51 748,-515 748,-515 748,-515 748,-177 748,-131.81 701.05,-98.05 669.64,-80.52"/>
<polygon fill="midnightblue" stroke="midnightblue" points="670.93,-77.24 660.46,-75.61 667.63,-83.41 670.93,-77.24"/>
</g>
<!-- Node25 -->
<g id="node25" class="node">
<title>Node25</title>
<g id="a_node25"><a xlink:href="vect__impl_8h.html" target="_top" xlink:title=" ">
<polygon fill="white" stroke="black" points="624,-560.5 624,-579.5 698,-579.5 698,-560.5 624,-560.5"/>
<text text-anchor="middle" x="661" y="-567.5" font-family="Helvetica,sans-Serif" font-size="10.00">vect_impl.h</text>
</a>
</g>
</g>
<!-- Node4&#45;&gt;Node25 -->
<g id="edge32" class="edge">
<title>Node4&#45;&gt;Node25</title>
<path fill="none" stroke="midnightblue" d="M661,-616.08C661,-609.01 661,-598.86 661,-589.99"/>
<polygon fill="midnightblue" stroke="midnightblue" points="664.5,-589.75 661,-579.75 657.5,-589.75 664.5,-589.75"/>
</g>
<!-- Node6 -->
<g id="node6" class="node">
<title>Node6</title>
<g id="a_node6"><a xlink:href="Objet__U_8h.html" target="_top" xlink:title=" ">
<polygon fill="white" stroke="black" points="462.5,-224.5 462.5,-243.5 527.5,-243.5 527.5,-224.5 462.5,-224.5"/>
<text text-anchor="middle" x="495" y="-231.5" font-family="Helvetica,sans-Serif" font-size="10.00">Objet_U.h</text>
</a>
</g>
</g>
<!-- Node5&#45;&gt;Node6 -->
<g id="edge5" class="edge">
<title>Node5&#45;&gt;Node6</title>
<path fill="none" stroke="midnightblue" d="M599.74,-448.4C593.56,-439.6 584.17,-425.37 578,-412 552.21,-356.1 566.78,-333.32 536,-280 529.82,-269.29 520.72,-258.97 512.67,-250.92"/>
<polygon fill="midnightblue" stroke="midnightblue" points="514.76,-248.08 505.11,-243.7 509.92,-253.14 514.76,-248.08"/>
</g>
<!-- Node22 -->
<g id="node22" class="node">
<title>Node22</title>
<g id="a_node22"><a xlink:title=" ">
<polygon fill="white" stroke="#bfbfbf" points="688,-56.5 688,-75.5 732,-75.5 732,-56.5 688,-56.5"/>
<text text-anchor="middle" x="710" y="-63.5" font-family="Helvetica,sans-Serif" font-size="10.00">string</text>
</a>
</g>
</g>
<!-- Node5&#45;&gt;Node22 -->
<g id="edge30" class="edge">
<title>Node5&#45;&gt;Node22</title>
<path fill="none" stroke="midnightblue" d="M624.12,-448.3C653.91,-432.57 710,-396.41 710,-347 710,-347 710,-347 710,-177 710,-144.95 710,-107.64 710,-85.75"/>
<polygon fill="midnightblue" stroke="midnightblue" points="713.5,-85.56 710,-75.56 706.5,-85.56 713.5,-85.56"/>
</g>
<!-- Node24 -->
<g id="node24" class="node">
<title>Node24</title>
<g id="a_node24"><a xlink:title=" ">
<polygon fill="white" stroke="#bfbfbf" points="587,-392.5 587,-411.5 637,-411.5 637,-392.5 587,-392.5"/>
<text text-anchor="middle" x="612" y="-399.5" font-family="Helvetica,sans-Serif" font-size="10.00">cstring</text>
</a>
</g>
</g>
<!-- Node5&#45;&gt;Node24 -->
<g id="edge29" class="edge">
<title>Node5&#45;&gt;Node24</title>
<path fill="none" stroke="midnightblue" d="M606.99,-448.08C607.79,-440.93 608.93,-430.64 609.92,-421.69"/>
<polygon fill="midnightblue" stroke="midnightblue" points="613.4,-422.08 611.03,-411.75 606.44,-421.3 613.4,-422.08"/>
</g>
<!-- Node6&#45;&gt;Node7 -->
<g id="edge6" class="edge">
<title>Node6&#45;&gt;Node7</title>
<path fill="none" stroke="midnightblue" d="M509.11,-224.4C533.67,-208.78 584.58,-173.51 615,-132 625.37,-117.85 632.6,-99.12 636.96,-85.4"/>
<polygon fill="midnightblue" stroke="midnightblue" points="640.36,-86.24 639.83,-75.66 633.64,-84.26 640.36,-86.24"/>
</g>
<!-- Node8 -->
<g id="node8" class="node">
<title>Node8</title>
<g id="a_node8"><a xlink:href="DecBaseInst_8h.html" target="_top" xlink:title=" ">
<polygon fill="white" stroke="black" points="145,-168.5 145,-187.5 231,-187.5 231,-168.5 145,-168.5"/>
<text text-anchor="middle" x="188" y="-175.5" font-family="Helvetica,sans-Serif" font-size="10.00">DecBaseInst.h</text>
</a>
</g>
</g>
<!-- Node6&#45;&gt;Node8 -->
<g id="edge7" class="edge">
<title>Node6&#45;&gt;Node8</title>
<path fill="none" stroke="midnightblue" d="M462.44,-227.27C409.63,-217.98 304.82,-199.55 241.11,-188.34"/>
<polygon fill="midnightblue" stroke="midnightblue" points="241.71,-184.89 231.25,-186.61 240.5,-191.79 241.71,-184.89"/>
</g>
<!-- Node13 -->
<g id="node13" class="node">
<title>Node13</title>
<g id="a_node13"><a xlink:href="EntreeSortie_8h.html" target="_top" xlink:title=" ">
<polygon fill="white" stroke="black" points="452,-168.5 452,-187.5 538,-187.5 538,-168.5 452,-168.5"/>
<text text-anchor="middle" x="495" y="-175.5" font-family="Helvetica,sans-Serif" font-size="10.00">EntreeSortie.h</text>
</a>
</g>
</g>
<!-- Node6&#45;&gt;Node13 -->
<g id="edge13" class="edge">
<title>Node6&#45;&gt;Node13</title>
<path fill="none" stroke="midnightblue" d="M495,-224.08C495,-217.01 495,-206.86 495,-197.99"/>
<polygon fill="midnightblue" stroke="midnightblue" points="498.5,-197.75 495,-187.75 491.5,-197.75 498.5,-197.75"/>
</g>
<!-- Node18 -->
<g id="node18" class="node">
<title>Node18</title>
<g id="a_node18"><a xlink:href="Process_8h.html" target="_top" xlink:title=" ">
<polygon fill="white" stroke="black" points="256.5,-56.5 256.5,-75.5 319.5,-75.5 319.5,-56.5 256.5,-56.5"/>
<text text-anchor="middle" x="288" y="-63.5" font-family="Helvetica,sans-Serif" font-size="10.00">Process.h</text>
</a>
</g>
</g>
<!-- Node6&#45;&gt;Node18 -->
<g id="edge28" class="edge">
<title>Node6&#45;&gt;Node18</title>
<path fill="none" stroke="midnightblue" d="M484.16,-224.31C450.7,-197.47 348.72,-115.69 306.55,-81.88"/>
<polygon fill="midnightblue" stroke="midnightblue" points="308.72,-79.13 298.73,-75.61 304.34,-84.59 308.72,-79.13"/>
</g>
<!-- Node9 -->
<g id="node9" class="node">
<title>Node9</title>
<g id="a_node9"><a xlink:href="Cast_8h.html" target="_top" xlink:title=" ">
<polygon fill="white" stroke="black" points="55.5,-56.5 55.5,-75.5 102.5,-75.5 102.5,-56.5 55.5,-56.5"/>
<text text-anchor="middle" x="79" y="-63.5" font-family="Helvetica,sans-Serif" font-size="10.00">Cast.h</text>
</a>
</g>
</g>
<!-- Node8&#45;&gt;Node9 -->
<g id="edge8" class="edge">
<title>Node8&#45;&gt;Node9</title>
<path fill="none" stroke="midnightblue" d="M176.07,-168.3C164.54,-159.65 146.84,-145.73 133,-132 117.63,-116.74 102.02,-97.46 91.57,-83.87"/>
<polygon fill="midnightblue" stroke="midnightblue" points="94.33,-81.72 85.5,-75.87 88.75,-85.95 94.33,-81.72"/>
</g>
<!-- Node10 -->
<g id="node10" class="node">
<title>Node10</title>
<g id="a_node10"><a xlink:href="Type__info_8h.html" target="_top" xlink:title=" ">
<polygon fill="white" stroke="black" points="252,-112.5 252,-131.5 324,-131.5 324,-112.5 252,-112.5"/>
<text text-anchor="middle" x="288" y="-119.5" font-family="Helvetica,sans-Serif" font-size="10.00">Type_info.h</text>
</a>
</g>
</g>
<!-- Node8&#45;&gt;Node10 -->
<g id="edge9" class="edge">
<title>Node8&#45;&gt;Node10</title>
<path fill="none" stroke="midnightblue" d="M204.07,-168.32C219.96,-159.74 244.51,-146.49 262.96,-136.52"/>
<polygon fill="midnightblue" stroke="midnightblue" points="264.84,-139.49 271.97,-131.65 261.51,-133.33 264.84,-139.49"/>
</g>
<!-- Node11 -->
<g id="node11" class="node">
<title>Node11</title>
<g id="a_node11"><a xlink:href="Declare__Base_8h.html" target="_top" xlink:title=" ">
<polygon fill="white" stroke="black" points="142,-112.5 142,-131.5 234,-131.5 234,-112.5 142,-112.5"/>
<text text-anchor="middle" x="188" y="-119.5" font-family="Helvetica,sans-Serif" font-size="10.00">Declare_Base.h</text>
</a>
</g>
</g>
<!-- Node8&#45;&gt;Node11 -->
<g id="edge10" class="edge">
<title>Node8&#45;&gt;Node11</title>
<path fill="none" stroke="midnightblue" d="M188,-168.08C188,-161.01 188,-150.86 188,-141.99"/>
<polygon fill="midnightblue" stroke="midnightblue" points="191.5,-141.75 188,-131.75 184.5,-141.75 191.5,-141.75"/>
</g>
<!-- Node12 -->
<g id="node12" class="node">
<title>Node12</title>
<g id="a_node12"><a xlink:href="Declare__Inst_8h.html" target="_top" xlink:title=" ">
<polygon fill="white" stroke="black" points="0,-112.5 0,-131.5 86,-131.5 86,-112.5 0,-112.5"/>
<text text-anchor="middle" x="43" y="-119.5" font-family="Helvetica,sans-Serif" font-size="10.00">Declare_Inst.h</text>
</a>
</g>
</g>
<!-- Node8&#45;&gt;Node12 -->
<g id="edge11" class="edge">
<title>Node8&#45;&gt;Node12</title>
<path fill="none" stroke="midnightblue" d="M165.02,-168.44C140.84,-159.44 102.58,-145.19 75.35,-135.05"/>
<polygon fill="midnightblue" stroke="midnightblue" points="76.46,-131.73 65.87,-131.52 74.02,-138.29 76.46,-131.73"/>
</g>
<!-- Node12&#45;&gt;Node9 -->
<g id="edge12" class="edge">
<title>Node12&#45;&gt;Node9</title>
<path fill="none" stroke="midnightblue" d="M48.94,-112.08C53.98,-104.53 61.34,-93.49 67.51,-84.23"/>
<polygon fill="midnightblue" stroke="midnightblue" points="70.53,-86.01 73.17,-75.75 64.71,-82.13 70.53,-86.01"/>
</g>
<!-- Node14 -->
<g id="node14" class="node">
<title>Node14</title>
<g id="a_node14"><a xlink:href="Entree_8h.html" target="_top" xlink:title=" ">
<polygon fill="white" stroke="black" points="380.5,-112.5 380.5,-131.5 437.5,-131.5 437.5,-112.5 380.5,-112.5"/>
<text text-anchor="middle" x="409" y="-119.5" font-family="Helvetica,sans-Serif" font-size="10.00">Entree.h</text>
</a>
</g>
</g>
<!-- Node13&#45;&gt;Node14 -->
<g id="edge14" class="edge">
<title>Node13&#45;&gt;Node14</title>
<path fill="none" stroke="midnightblue" d="M481.18,-168.32C467.77,-159.9 447.18,-146.97 431.41,-137.07"/>
<polygon fill="midnightblue" stroke="midnightblue" points="433.11,-134.01 422.78,-131.65 429.39,-139.94 433.11,-134.01"/>
</g>
<!-- Node21 -->
<g id="node21" class="node">
<title>Node21</title>
<g id="a_node21"><a xlink:href="Sortie_8h.html" target="_top" xlink:title=" ">
<polygon fill="white" stroke="black" points="552,-112.5 552,-131.5 606,-131.5 606,-112.5 552,-112.5"/>
<text text-anchor="middle" x="579" y="-119.5" font-family="Helvetica,sans-Serif" font-size="10.00">Sortie.h</text>
</a>
</g>
</g>
<!-- Node13&#45;&gt;Node21 -->
<g id="edge22" class="edge">
<title>Node13&#45;&gt;Node21</title>
<path fill="none" stroke="midnightblue" d="M508.5,-168.32C521.6,-159.9 541.71,-146.97 557.11,-137.07"/>
<polygon fill="midnightblue" stroke="midnightblue" points="559.02,-140.01 565.54,-131.65 555.23,-134.12 559.02,-140.01"/>
</g>
<!-- Node23 -->
<g id="node23" class="node">
<title>Node23</title>
<g id="a_node23"><a xlink:href="Separateur_8h.html" target="_top" xlink:title=" ">
<polygon fill="white" stroke="black" points="456,-112.5 456,-131.5 534,-131.5 534,-112.5 456,-112.5"/>
<text text-anchor="middle" x="495" y="-119.5" font-family="Helvetica,sans-Serif" font-size="10.00">Separateur.h</text>
</a>
</g>
</g>
<!-- Node13&#45;&gt;Node23 -->
<g id="edge27" class="edge">
<title>Node13&#45;&gt;Node23</title>
<path fill="none" stroke="midnightblue" d="M495,-168.08C495,-161.01 495,-150.86 495,-141.99"/>
<polygon fill="midnightblue" stroke="midnightblue" points="498.5,-141.75 495,-131.75 491.5,-141.75 498.5,-141.75"/>
</g>
<!-- Node14&#45;&gt;Node7 -->
<g id="edge18" class="edge">
<title>Node14&#45;&gt;Node7</title>
<path fill="none" stroke="midnightblue" d="M437.63,-114.19C440.79,-113.45 443.96,-112.71 447,-112 514.14,-96.4 533.27,-92.81 603.9,-76.24"/>
<polygon fill="midnightblue" stroke="midnightblue" points="604.8,-79.62 613.73,-73.92 603.19,-72.81 604.8,-79.62"/>
</g>
<!-- Node15 -->
<g id="node15" class="node">
<title>Node15</title>
<g id="a_node15"><a xlink:title=" ">
<polygon fill="white" stroke="#bfbfbf" points="402,-56.5 402,-75.5 452,-75.5 452,-56.5 402,-56.5"/>
<text text-anchor="middle" x="427" y="-63.5" font-family="Helvetica,sans-Serif" font-size="10.00">stdio.h</text>
</a>
</g>
</g>
<!-- Node14&#45;&gt;Node15 -->
<g id="edge15" class="edge">
<title>Node14&#45;&gt;Node15</title>
<path fill="none" stroke="midnightblue" d="M411.97,-112.08C414.38,-104.85 417.86,-94.41 420.87,-85.4"/>
<polygon fill="midnightblue" stroke="midnightblue" points="424.24,-86.34 424.08,-75.75 417.6,-84.13 424.24,-86.34"/>
</g>
<!-- Node16 -->
<g id="node16" class="node">
<title>Node16</title>
<g id="a_node16"><a xlink:title=" ">
<polygon fill="white" stroke="#bfbfbf" points="338,-56.5 338,-75.5 384,-75.5 384,-56.5 338,-56.5"/>
<text text-anchor="middle" x="361" y="-63.5" font-family="Helvetica,sans-Serif" font-size="10.00">cstdio</text>
</a>
</g>
</g>
<!-- Node14&#45;&gt;Node16 -->
<g id="edge16" class="edge">
<title>Node14&#45;&gt;Node16</title>
<path fill="none" stroke="midnightblue" d="M401.07,-112.08C394.15,-104.3 383.93,-92.8 375.55,-83.37"/>
<polygon fill="midnightblue" stroke="midnightblue" points="378.04,-80.9 368.78,-75.75 372.81,-85.55 378.04,-80.9"/>
</g>
<!-- Node17 -->
<g id="node17" class="node">
<title>Node17</title>
<g id="a_node17"><a xlink:title=" ">
<polygon fill="white" stroke="#bfbfbf" points="470,-56.5 470,-75.5 530,-75.5 530,-56.5 470,-56.5"/>
<text text-anchor="middle" x="500" y="-63.5" font-family="Helvetica,sans-Serif" font-size="10.00">iostream</text>
</a>
</g>
</g>
<!-- Node14&#45;&gt;Node17 -->
<g id="edge17" class="edge">
<title>Node14&#45;&gt;Node17</title>
<path fill="none" stroke="midnightblue" d="M423.62,-112.32C437.95,-103.82 460.01,-90.73 476.75,-80.8"/>
<polygon fill="midnightblue" stroke="midnightblue" points="478.6,-83.77 485.42,-75.65 475.03,-77.75 478.6,-83.77"/>
</g>
<!-- Node14&#45;&gt;Node18 -->
<g id="edge19" class="edge">
<title>Node14&#45;&gt;Node18</title>
<path fill="none" stroke="midnightblue" d="M389.83,-112.44C370.09,-103.64 339.11,-89.81 316.51,-79.72"/>
<polygon fill="midnightblue" stroke="midnightblue" points="317.64,-76.4 307.08,-75.52 314.79,-82.79 317.64,-76.4"/>
</g>
<!-- Node19 -->
<g id="node19" class="node">
<title>Node19</title>
<g id="a_node19"><a xlink:href="arch_8h.html" target="_top" xlink:title=" ">
<polygon fill="white" stroke="black" points="548.5,-56.5 548.5,-75.5 595.5,-75.5 595.5,-56.5 548.5,-56.5"/>
<text text-anchor="middle" x="572" y="-63.5" font-family="Helvetica,sans-Serif" font-size="10.00">arch.h</text>
</a>
</g>
</g>
<!-- Node14&#45;&gt;Node19 -->
<g id="edge20" class="edge">
<title>Node14&#45;&gt;Node19</title>
<path fill="none" stroke="midnightblue" d="M434.83,-112.44C462.89,-103.15 507.83,-88.26 538.57,-78.07"/>
<polygon fill="midnightblue" stroke="midnightblue" points="540.02,-81.28 548.41,-74.82 537.82,-74.64 540.02,-81.28"/>
</g>
<!-- Node20 -->
<g id="node20" class="node">
<title>Node20</title>
<g id="a_node20"><a xlink:href="generique_8h.html" target="_top" xlink:title=" ">
<polygon fill="white" stroke="black" points="535,-0.5 535,-19.5 609,-19.5 609,-0.5 535,-0.5"/>
<text text-anchor="middle" x="572" y="-7.5" font-family="Helvetica,sans-Serif" font-size="10.00">generique.h</text>
</a>
</g>
</g>
<!-- Node19&#45;&gt;Node20 -->
<g id="edge21" class="edge">
<title>Node19&#45;&gt;Node20</title>
<path fill="none" stroke="midnightblue" d="M572,-56.08C572,-49.01 572,-38.86 572,-29.99"/>
<polygon fill="midnightblue" stroke="midnightblue" points="575.5,-29.75 572,-19.75 568.5,-29.75 575.5,-29.75"/>
</g>
<!-- Node21&#45;&gt;Node7 -->
<g id="edge24" class="edge">
<title>Node21&#45;&gt;Node7</title>
<path fill="none" stroke="midnightblue" d="M589.12,-112.32C598.53,-104.26 612.74,-92.08 624.07,-82.37"/>
<polygon fill="midnightblue" stroke="midnightblue" points="626.38,-85 631.69,-75.83 621.82,-79.68 626.38,-85"/>
</g>
<!-- Node21&#45;&gt;Node17 -->
<g id="edge23" class="edge">
<title>Node21&#45;&gt;Node17</title>
<path fill="none" stroke="midnightblue" d="M566.31,-112.32C554.1,-103.98 535.42,-91.21 521,-81.35"/>
<polygon fill="midnightblue" stroke="midnightblue" points="522.89,-78.41 512.66,-75.65 518.94,-84.19 522.89,-78.41"/>
</g>
<!-- Node21&#45;&gt;Node19 -->
<g id="edge25" class="edge">
<title>Node21&#45;&gt;Node19</title>
<path fill="none" stroke="midnightblue" d="M577.84,-112.08C576.92,-104.93 575.58,-94.64 574.42,-85.69"/>
<polygon fill="midnightblue" stroke="midnightblue" points="577.89,-85.22 573.13,-75.75 570.95,-86.12 577.89,-85.22"/>
</g>
<!-- Node21&#45;&gt;Node22 -->
<g id="edge26" class="edge">
<title>Node21&#45;&gt;Node22</title>
<path fill="none" stroke="midnightblue" d="M599.76,-112.44C621.32,-103.56 655.26,-89.56 679.79,-79.45"/>
<polygon fill="midnightblue" stroke="midnightblue" points="681.43,-82.56 689.34,-75.52 678.76,-76.09 681.43,-82.56"/>
</g>
<!-- Node25&#45;&gt;Node5 -->
<g id="edge33" class="edge">
<title>Node25&#45;&gt;Node5</title>
<path fill="none" stroke="midnightblue" d="M656.68,-560.37C647.69,-542.38 626.78,-500.55 614.81,-476.63"/>
<polygon fill="midnightblue" stroke="midnightblue" points="617.9,-474.97 610.3,-467.59 611.64,-478.1 617.9,-474.97"/>
</g>
<!-- Node25&#45;&gt;Node7 -->
<g id="edge34" class="edge">
<title>Node25&#45;&gt;Node7</title>
<path fill="none" stroke="midnightblue" d="M662.44,-560.47C665.42,-542.02 672,-497 672,-459 672,-459 672,-459 672,-177 672,-143.64 659,-106.53 650.11,-85.07"/>
<polygon fill="midnightblue" stroke="midnightblue" points="653.22,-83.42 646.05,-75.62 646.79,-86.19 653.22,-83.42"/>
</g>
<!-- Node26 -->
<g id="node26" class="node">
<title>Node26</title>
<g id="a_node26"><a xlink:href="DerOu___8h.html" target="_top" xlink:title=" ">
<polygon fill="white" stroke="black" points="506,-504.5 506,-523.5 568,-523.5 568,-504.5 506,-504.5"/>
<text text-anchor="middle" x="537" y="-511.5" font-family="Helvetica,sans-Serif" font-size="10.00">DerOu_.h</text>
</a>
</g>
</g>
<!-- Node25&#45;&gt;Node26 -->
<g id="edge35" class="edge">
<title>Node25&#45;&gt;Node26</title>
<path fill="none" stroke="midnightblue" d="M641.35,-560.44C621.04,-551.6 589.1,-537.69 565.9,-527.59"/>
<polygon fill="midnightblue" stroke="midnightblue" points="567.12,-524.3 556.56,-523.52 564.33,-530.72 567.12,-524.3"/>
</g>
<!-- Node26&#45;&gt;Node5 -->
<g id="edge41" class="edge">
<title>Node26&#45;&gt;Node5</title>
<path fill="none" stroke="midnightblue" d="M548.09,-504.32C558.49,-496.18 574.26,-483.84 586.72,-474.09"/>
<polygon fill="midnightblue" stroke="midnightblue" points="588.99,-476.75 594.71,-467.83 584.68,-471.24 588.99,-476.75"/>
</g>
<!-- Node27 -->
<g id="node27" class="node">
<title>Node27</title>
<g id="a_node27"><a xlink:href="Deriv_8h.html" target="_top" xlink:title=" ">
<polygon fill="white" stroke="black" points="507.5,-448.5 507.5,-467.5 558.5,-467.5 558.5,-448.5 507.5,-448.5"/>
<text text-anchor="middle" x="533" y="-455.5" font-family="Helvetica,sans-Serif" font-size="10.00">Deriv.h</text>
</a>
</g>
</g>
<!-- Node26&#45;&gt;Node27 -->
<g id="edge36" class="edge">
<title>Node26&#45;&gt;Node27</title>
<path fill="none" stroke="midnightblue" d="M536.34,-504.08C535.82,-497.01 535.06,-486.86 534.41,-477.99"/>
<polygon fill="midnightblue" stroke="midnightblue" points="537.88,-477.47 533.65,-467.75 530.9,-477.98 537.88,-477.47"/>
</g>
<!-- Node28 -->
<g id="node28" class="node">
<title>Node28</title>
<g id="a_node28"><a xlink:href="MacDeriv_8h.html" target="_top" xlink:title=" ">
<polygon fill="white" stroke="black" points="459.5,-392.5 459.5,-411.5 530.5,-411.5 530.5,-392.5 459.5,-392.5"/>
<text text-anchor="middle" x="495" y="-399.5" font-family="Helvetica,sans-Serif" font-size="10.00">MacDeriv.h</text>
</a>
</g>
</g>
<!-- Node27&#45;&gt;Node28 -->
<g id="edge37" class="edge">
<title>Node27&#45;&gt;Node28</title>
<path fill="none" stroke="midnightblue" d="M526.73,-448.08C521.36,-440.46 513.48,-429.26 506.92,-419.94"/>
<polygon fill="midnightblue" stroke="midnightblue" points="509.78,-417.91 501.16,-411.75 504.05,-421.94 509.78,-417.91"/>
</g>
<!-- Node29 -->
<g id="node29" class="node">
<title>Node29</title>
<g id="a_node29"><a xlink:href="Deriv___8h.html" target="_top" xlink:title=" ">
<polygon fill="white" stroke="black" points="466.5,-336.5 466.5,-355.5 523.5,-355.5 523.5,-336.5 466.5,-336.5"/>
<text text-anchor="middle" x="495" y="-343.5" font-family="Helvetica,sans-Serif" font-size="10.00">Deriv_.h</text>
</a>
</g>
</g>
<!-- Node28&#45;&gt;Node29 -->
<g id="edge38" class="edge">
<title>Node28&#45;&gt;Node29</title>
<path fill="none" stroke="midnightblue" d="M495,-392.08C495,-385.01 495,-374.86 495,-365.99"/>
<polygon fill="midnightblue" stroke="midnightblue" points="498.5,-365.75 495,-355.75 491.5,-365.75 498.5,-365.75"/>
</g>
<!-- Node30 -->
<g id="node30" class="node">
<title>Node30</title>
<g id="a_node30"><a xlink:href="O__U__Ptr_8h.html" target="_top" xlink:title=" ">
<polygon fill="white" stroke="black" points="463,-280.5 463,-299.5 527,-299.5 527,-280.5 463,-280.5"/>
<text text-anchor="middle" x="495" y="-287.5" font-family="Helvetica,sans-Serif" font-size="10.00">O_U_Ptr.h</text>
</a>
</g>
</g>
<!-- Node29&#45;&gt;Node30 -->
<g id="edge39" class="edge">
<title>Node29&#45;&gt;Node30</title>
<path fill="none" stroke="midnightblue" d="M495,-336.08C495,-329.01 495,-318.86 495,-309.99"/>
<polygon fill="midnightblue" stroke="midnightblue" points="498.5,-309.75 495,-299.75 491.5,-309.75 498.5,-309.75"/>
</g>
<!-- Node30&#45;&gt;Node6 -->
<g id="edge40" class="edge">
<title>Node30&#45;&gt;Node6</title>
<path fill="none" stroke="midnightblue" d="M495,-280.08C495,-273.01 495,-262.86 495,-253.99"/>
<polygon fill="midnightblue" stroke="midnightblue" points="498.5,-253.75 495,-243.75 491.5,-253.75 498.5,-253.75"/>
</g>
<!-- Node32 -->
<g id="node32" class="node">
<title>Node32</title>
<g id="a_node32"><a xlink:href="MacList_8h.html" target="_top" xlink:title=" ">
<polygon fill="white" stroke="black" points="552.5,-784.5 552.5,-803.5 615.5,-803.5 615.5,-784.5 552.5,-784.5"/>
<text text-anchor="middle" x="584" y="-791.5" font-family="Helvetica,sans-Serif" font-size="10.00">MacList.h</text>
</a>
</g>
</g>
<!-- Node31&#45;&gt;Node32 -->
<g id="edge43" class="edge">
<title>Node31&#45;&gt;Node32</title>
<path fill="none" stroke="midnightblue" d="M594.85,-840.08C593.13,-832.93 590.65,-822.64 588.5,-813.69"/>
<polygon fill="midnightblue" stroke="midnightblue" points="591.85,-812.65 586.11,-803.75 585.04,-814.29 591.85,-812.65"/>
</g>
<!-- Node33 -->
<g id="node33" class="node">
<title>Node33</title>
<g id="a_node33"><a xlink:href="liste_8h.html" target="_top" xlink:title=" ">
<polygon fill="white" stroke="black" points="518.5,-672.5 518.5,-691.5 565.5,-691.5 565.5,-672.5 518.5,-672.5"/>
<text text-anchor="middle" x="542" y="-679.5" font-family="Helvetica,sans-Serif" font-size="10.00">liste.h</text>
</a>
</g>
</g>
<!-- Node32&#45;&gt;Node33 -->
<g id="edge44" class="edge">
<title>Node32&#45;&gt;Node33</title>
<path fill="none" stroke="midnightblue" d="M580.2,-784.44C576.26,-775.43 569.97,-760.81 565,-748 558.98,-732.48 552.72,-714.64 548.25,-701.58"/>
<polygon fill="midnightblue" stroke="midnightblue" points="551.49,-700.24 544.96,-691.89 544.86,-702.49 551.49,-700.24"/>
</g>
<!-- Node34 -->
<g id="node34" class="node">
<title>Node34</title>
<g id="a_node34"><a xlink:href="Motcle_8h.html" target="_top" xlink:title=" ">
<polygon fill="white" stroke="black" points="573.5,-728.5 573.5,-747.5 632.5,-747.5 632.5,-728.5 573.5,-728.5"/>
<text text-anchor="middle" x="603" y="-735.5" font-family="Helvetica,sans-Serif" font-size="10.00">Motcle.h</text>
</a>
</g>
</g>
<!-- Node32&#45;&gt;Node34 -->
<g id="edge46" class="edge">
<title>Node32&#45;&gt;Node34</title>
<path fill="none" stroke="midnightblue" d="M587.14,-784.08C589.68,-776.85 593.36,-766.41 596.53,-757.4"/>
<polygon fill="midnightblue" stroke="midnightblue" points="599.9,-758.35 599.92,-747.75 593.3,-756.02 599.9,-758.35"/>
</g>
<!-- Node33&#45;&gt;Node26 -->
<g id="edge45" class="edge">
<title>Node33&#45;&gt;Node26</title>
<path fill="none" stroke="midnightblue" d="M541.73,-672.08C540.94,-645.95 538.63,-569.21 537.56,-533.58"/>
<polygon fill="midnightblue" stroke="midnightblue" points="541.06,-533.46 537.26,-523.57 534.06,-533.67 541.06,-533.46"/>
</g>
<!-- Node34&#45;&gt;Node3 -->
<g id="edge47" class="edge">
<title>Node34&#45;&gt;Node3</title>
<path fill="none" stroke="midnightblue" d="M612.32,-728.32C620.89,-720.34 633.81,-708.31 644.19,-698.65"/>
<polygon fill="midnightblue" stroke="midnightblue" points="646.58,-701.21 651.51,-691.83 641.81,-696.09 646.58,-701.21"/>
</g>
</g>
</svg>
