<?xml version="1.0" encoding="UTF-8" standalone="no"?>
<!DOCTYPE svg PUBLIC "-//W3C//DTD SVG 1.1//EN"
 "http://www.w3.org/Graphics/SVG/1.1/DTD/svg11.dtd">
<!-- Generated by graphviz version 2.43.0 (0)
 -->
<!-- Title: src/Kernel/Framework/List_Ref_IntVect.h Pages: 1 -->
<svg width="828pt" height="935pt"
 viewBox="0.00 0.00 828.00 935.00" xmlns="http://www.w3.org/2000/svg" xmlns:xlink="http://www.w3.org/1999/xlink">
<g id="graph0" class="graph" transform="scale(1 1) rotate(0) translate(4 931)">
<title>src/Kernel/Framework/List_Ref_IntVect.h</title>
<polygon fill="white" stroke="transparent" points="-4,4 -4,-931 824,-931 824,4 -4,4"/>
<!-- Node1 -->
<g id="node1" class="node">
<title>Node1</title>
<g id="a_node1"><a xlink:title=" ">
<polygon fill="#bfbfbf" stroke="black" points="559,-896.5 559,-926.5 681,-926.5 681,-896.5 559,-896.5"/>
<text text-anchor="start" x="567" y="-914.5" font-family="Helvetica,sans-Serif" font-size="10.00">src/Kernel/Framework</text>
<text text-anchor="middle" x="620" y="-903.5" font-family="Helvetica,sans-Serif" font-size="10.00">/List_Ref_IntVect.h</text>
</a>
</g>
</g>
<!-- Node2 -->
<g id="node2" class="node">
<title>Node2</title>
<g id="a_node2"><a xlink:href="List_8h.html" target="_top" xlink:title=" ">
<polygon fill="white" stroke="black" points="573.5,-840.5 573.5,-859.5 616.5,-859.5 616.5,-840.5 573.5,-840.5"/>
<text text-anchor="middle" x="595" y="-847.5" font-family="Helvetica,sans-Serif" font-size="10.00">List.h</text>
</a>
</g>
</g>
<!-- Node1&#45;&gt;Node2 -->
<g id="edge1" class="edge">
<title>Node1&#45;&gt;Node2</title>
<path fill="none" stroke="midnightblue" d="M614.08,-896.4C610.63,-888.2 606.25,-877.78 602.56,-868.99"/>
<polygon fill="midnightblue" stroke="midnightblue" points="605.74,-867.52 598.64,-859.66 599.28,-870.23 605.74,-867.52"/>
</g>
<!-- Node34 -->
<g id="node34" class="node">
<title>Node34</title>
<g id="a_node34"><a xlink:href="Ref__IntVect_8h.html" target="_top" xlink:title=" ">
<polygon fill="white" stroke="black" points="620.5,-672.5 620.5,-691.5 701.5,-691.5 701.5,-672.5 620.5,-672.5"/>
<text text-anchor="middle" x="661" y="-679.5" font-family="Helvetica,sans-Serif" font-size="10.00">Ref_IntVect.h</text>
</a>
</g>
</g>
<!-- Node1&#45;&gt;Node34 -->
<g id="edge46" class="edge">
<title>Node1&#45;&gt;Node34</title>
<path fill="none" stroke="midnightblue" d="M622.56,-896.27C629.66,-856.89 649.56,-746.49 657.58,-701.97"/>
<polygon fill="midnightblue" stroke="midnightblue" points="661.06,-702.39 659.39,-691.93 654.17,-701.15 661.06,-702.39"/>
</g>
<!-- Node3 -->
<g id="node3" class="node">
<title>Node3</title>
<g id="a_node3"><a xlink:href="MacList_8h.html" target="_top" xlink:title=" ">
<polygon fill="white" stroke="black" points="547.5,-784.5 547.5,-803.5 610.5,-803.5 610.5,-784.5 547.5,-784.5"/>
<text text-anchor="middle" x="579" y="-791.5" font-family="Helvetica,sans-Serif" font-size="10.00">MacList.h</text>
</a>
</g>
</g>
<!-- Node2&#45;&gt;Node3 -->
<g id="edge2" class="edge">
<title>Node2&#45;&gt;Node3</title>
<path fill="none" stroke="midnightblue" d="M592.36,-840.08C590.21,-832.85 587.12,-822.41 584.45,-813.4"/>
<polygon fill="midnightblue" stroke="midnightblue" points="587.79,-812.34 581.59,-803.75 581.08,-814.33 587.79,-812.34"/>
</g>
<!-- Node4 -->
<g id="node4" class="node">
<title>Node4</title>
<g id="a_node4"><a xlink:href="liste_8h.html" target="_top" xlink:title=" ">
<polygon fill="white" stroke="black" points="466.5,-728.5 466.5,-747.5 513.5,-747.5 513.5,-728.5 466.5,-728.5"/>
<text text-anchor="middle" x="490" y="-735.5" font-family="Helvetica,sans-Serif" font-size="10.00">liste.h</text>
</a>
</g>
</g>
<!-- Node3&#45;&gt;Node4 -->
<g id="edge3" class="edge">
<title>Node3&#45;&gt;Node4</title>
<path fill="none" stroke="midnightblue" d="M564.7,-784.32C550.82,-775.9 529.51,-762.97 513.2,-753.07"/>
<polygon fill="midnightblue" stroke="midnightblue" points="514.63,-749.85 504.26,-747.65 511,-755.83 514.63,-749.85"/>
</g>
<!-- Node30 -->
<g id="node30" class="node">
<title>Node30</title>
<g id="a_node30"><a xlink:href="Motcle_8h.html" target="_top" xlink:title=" ">
<polygon fill="white" stroke="black" points="549.5,-728.5 549.5,-747.5 608.5,-747.5 608.5,-728.5 549.5,-728.5"/>
<text text-anchor="middle" x="579" y="-735.5" font-family="Helvetica,sans-Serif" font-size="10.00">Motcle.h</text>
</a>
</g>
</g>
<!-- Node3&#45;&gt;Node30 -->
<g id="edge37" class="edge">
<title>Node3&#45;&gt;Node30</title>
<path fill="none" stroke="midnightblue" d="M579,-784.08C579,-777.01 579,-766.86 579,-757.99"/>
<polygon fill="midnightblue" stroke="midnightblue" points="582.5,-757.75 579,-747.75 575.5,-757.75 582.5,-757.75"/>
</g>
<!-- Node5 -->
<g id="node5" class="node">
<title>Node5</title>
<g id="a_node5"><a xlink:href="DerOu___8h.html" target="_top" xlink:title=" ">
<polygon fill="white" stroke="black" points="442,-504.5 442,-523.5 504,-523.5 504,-504.5 442,-504.5"/>
<text text-anchor="middle" x="473" y="-511.5" font-family="Helvetica,sans-Serif" font-size="10.00">DerOu_.h</text>
</a>
</g>
</g>
<!-- Node4&#45;&gt;Node5 -->
<g id="edge4" class="edge">
<title>Node4&#45;&gt;Node5</title>
<path fill="none" stroke="midnightblue" d="M489.33,-728.3C486.83,-695.63 477.97,-579.87 474.45,-533.96"/>
<polygon fill="midnightblue" stroke="midnightblue" points="477.93,-533.59 473.68,-523.88 470.95,-534.12 477.93,-533.59"/>
</g>
<!-- Node6 -->
<g id="node6" class="node">
<title>Node6</title>
<g id="a_node6"><a xlink:href="Deriv_8h.html" target="_top" xlink:title=" ">
<polygon fill="white" stroke="black" points="422.5,-448.5 422.5,-467.5 473.5,-467.5 473.5,-448.5 422.5,-448.5"/>
<text text-anchor="middle" x="448" y="-455.5" font-family="Helvetica,sans-Serif" font-size="10.00">Deriv.h</text>
</a>
</g>
</g>
<!-- Node5&#45;&gt;Node6 -->
<g id="edge5" class="edge">
<title>Node5&#45;&gt;Node6</title>
<path fill="none" stroke="midnightblue" d="M468.87,-504.08C465.49,-496.77 460.58,-486.18 456.38,-477.1"/>
<polygon fill="midnightblue" stroke="midnightblue" points="459.43,-475.36 452.05,-467.75 453.08,-478.3 459.43,-475.36"/>
</g>
<!-- Node28 -->
<g id="node28" class="node">
<title>Node28</title>
<g id="a_node28"><a xlink:href="Nom_8h.html" target="_top" xlink:title=" ">
<polygon fill="white" stroke="black" points="517.5,-448.5 517.5,-467.5 566.5,-467.5 566.5,-448.5 517.5,-448.5"/>
<text text-anchor="middle" x="542" y="-455.5" font-family="Helvetica,sans-Serif" font-size="10.00">Nom.h</text>
</a>
</g>
</g>
<!-- Node5&#45;&gt;Node28 -->
<g id="edge33" class="edge">
<title>Node5&#45;&gt;Node28</title>
<path fill="none" stroke="midnightblue" d="M484.09,-504.32C494.49,-496.18 510.26,-483.84 522.72,-474.09"/>
<polygon fill="midnightblue" stroke="midnightblue" points="524.99,-476.75 530.71,-467.83 520.68,-471.24 524.99,-476.75"/>
</g>
<!-- Node7 -->
<g id="node7" class="node">
<title>Node7</title>
<g id="a_node7"><a xlink:href="MacDeriv_8h.html" target="_top" xlink:title=" ">
<polygon fill="white" stroke="black" points="382.5,-392.5 382.5,-411.5 453.5,-411.5 453.5,-392.5 382.5,-392.5"/>
<text text-anchor="middle" x="418" y="-399.5" font-family="Helvetica,sans-Serif" font-size="10.00">MacDeriv.h</text>
</a>
</g>
</g>
<!-- Node6&#45;&gt;Node7 -->
<g id="edge6" class="edge">
<title>Node6&#45;&gt;Node7</title>
<path fill="none" stroke="midnightblue" d="M443.05,-448.08C438.9,-440.61 432.85,-429.72 427.73,-420.52"/>
<polygon fill="midnightblue" stroke="midnightblue" points="430.78,-418.79 422.86,-411.75 424.66,-422.19 430.78,-418.79"/>
</g>
<!-- Node8 -->
<g id="node8" class="node">
<title>Node8</title>
<g id="a_node8"><a xlink:href="Deriv___8h.html" target="_top" xlink:title=" ">
<polygon fill="white" stroke="black" points="510.5,-336.5 510.5,-355.5 567.5,-355.5 567.5,-336.5 510.5,-336.5"/>
<text text-anchor="middle" x="539" y="-343.5" font-family="Helvetica,sans-Serif" font-size="10.00">Deriv_.h</text>
</a>
</g>
</g>
<!-- Node7&#45;&gt;Node8 -->
<g id="edge7" class="edge">
<title>Node7&#45;&gt;Node8</title>
<path fill="none" stroke="midnightblue" d="M437.17,-392.44C456.91,-383.64 487.89,-369.81 510.49,-359.72"/>
<polygon fill="midnightblue" stroke="midnightblue" points="512.21,-362.79 519.92,-355.52 509.36,-356.4 512.21,-362.79"/>
</g>
<!-- Node9 -->
<g id="node9" class="node">
<title>Node9</title>
<g id="a_node9"><a xlink:href="O__U__Ptr_8h.html" target="_top" xlink:title=" ">
<polygon fill="white" stroke="black" points="510,-280.5 510,-299.5 574,-299.5 574,-280.5 510,-280.5"/>
<text text-anchor="middle" x="542" y="-287.5" font-family="Helvetica,sans-Serif" font-size="10.00">O_U_Ptr.h</text>
</a>
</g>
</g>
<!-- Node8&#45;&gt;Node9 -->
<g id="edge8" class="edge">
<title>Node8&#45;&gt;Node9</title>
<path fill="none" stroke="midnightblue" d="M539.5,-336.08C539.89,-329.01 540.45,-318.86 540.95,-309.99"/>
<polygon fill="midnightblue" stroke="midnightblue" points="544.45,-309.93 541.51,-299.75 537.46,-309.54 544.45,-309.93"/>
</g>
<!-- Node10 -->
<g id="node10" class="node">
<title>Node10</title>
<g id="a_node10"><a xlink:href="Objet__U_8h.html" target="_top" xlink:title=" ">
<polygon fill="white" stroke="black" points="449.5,-224.5 449.5,-243.5 514.5,-243.5 514.5,-224.5 449.5,-224.5"/>
<text text-anchor="middle" x="482" y="-231.5" font-family="Helvetica,sans-Serif" font-size="10.00">Objet_U.h</text>
</a>
</g>
</g>
<!-- Node9&#45;&gt;Node10 -->
<g id="edge9" class="edge">
<title>Node9&#45;&gt;Node10</title>
<path fill="none" stroke="midnightblue" d="M532.36,-280.32C523.49,-272.34 510.13,-260.31 499.39,-250.65"/>
<polygon fill="midnightblue" stroke="midnightblue" points="501.59,-247.92 491.82,-243.83 496.91,-253.13 501.59,-247.92"/>
</g>
<!-- Node11 -->
<g id="node11" class="node">
<title>Node11</title>
<g id="a_node11"><a xlink:title=" ">
<polygon fill="white" stroke="#bfbfbf" points="656,-56.5 656,-75.5 712,-75.5 712,-56.5 656,-56.5"/>
<text text-anchor="middle" x="684" y="-63.5" font-family="Helvetica,sans-Serif" font-size="10.00">assert.h</text>
</a>
</g>
</g>
<!-- Node10&#45;&gt;Node11 -->
<g id="edge10" class="edge">
<title>Node10&#45;&gt;Node11</title>
<path fill="none" stroke="midnightblue" d="M494.07,-224.49C517.83,-207.61 572.07,-168.34 615,-132 633.9,-116 654.42,-96.35 668.13,-82.87"/>
<polygon fill="midnightblue" stroke="midnightblue" points="670.7,-85.25 675.34,-75.72 665.78,-80.27 670.7,-85.25"/>
</g>
<!-- Node12 -->
<g id="node12" class="node">
<title>Node12</title>
<g id="a_node12"><a xlink:href="DecBaseInst_8h.html" target="_top" xlink:title=" ">
<polygon fill="white" stroke="black" points="135,-168.5 135,-187.5 221,-187.5 221,-168.5 135,-168.5"/>
<text text-anchor="middle" x="178" y="-175.5" font-family="Helvetica,sans-Serif" font-size="10.00">DecBaseInst.h</text>
</a>
</g>
</g>
<!-- Node10&#45;&gt;Node12 -->
<g id="edge11" class="edge">
<title>Node10&#45;&gt;Node12</title>
<path fill="none" stroke="midnightblue" d="M449.47,-227.22C397.31,-217.96 294.44,-199.68 231.39,-188.48"/>
<polygon fill="midnightblue" stroke="midnightblue" points="231.71,-184.99 221.25,-186.68 230.48,-191.88 231.71,-184.99"/>
</g>
<!-- Node17 -->
<g id="node17" class="node">
<title>Node17</title>
<g id="a_node17"><a xlink:href="EntreeSortie_8h.html" target="_top" xlink:title=" ">
<polygon fill="white" stroke="black" points="440,-168.5 440,-187.5 526,-187.5 526,-168.5 440,-168.5"/>
<text text-anchor="middle" x="483" y="-175.5" font-family="Helvetica,sans-Serif" font-size="10.00">EntreeSortie.h</text>
</a>
</g>
</g>
<!-- Node10&#45;&gt;Node17 -->
<g id="edge17" class="edge">
<title>Node10&#45;&gt;Node17</title>
<path fill="none" stroke="midnightblue" d="M482.17,-224.08C482.3,-217.01 482.48,-206.86 482.65,-197.99"/>
<polygon fill="midnightblue" stroke="midnightblue" points="486.15,-197.81 482.84,-187.75 479.15,-197.68 486.15,-197.81"/>
</g>
<!-- Node22 -->
<g id="node22" class="node">
<title>Node22</title>
<g id="a_node22"><a xlink:href="Process_8h.html" target="_top" xlink:title=" ">
<polygon fill="white" stroke="black" points="236.5,-56.5 236.5,-75.5 299.5,-75.5 299.5,-56.5 236.5,-56.5"/>
<text text-anchor="middle" x="268" y="-63.5" font-family="Helvetica,sans-Serif" font-size="10.00">Process.h</text>
</a>
</g>
</g>
<!-- Node10&#45;&gt;Node22 -->
<g id="edge32" class="edge">
<title>Node10&#45;&gt;Node22</title>
<path fill="none" stroke="midnightblue" d="M471.74,-224.21C447.87,-203.87 386.57,-152.2 333,-112 318.87,-101.39 302.51,-90.07 289.74,-81.44"/>
<polygon fill="midnightblue" stroke="midnightblue" points="291.41,-78.35 281.16,-75.68 287.51,-84.16 291.41,-78.35"/>
</g>
<!-- Node13 -->
<g id="node13" class="node">
<title>Node13</title>
<g id="a_node13"><a xlink:href="Cast_8h.html" target="_top" xlink:title=" ">
<polygon fill="white" stroke="black" points="55.5,-56.5 55.5,-75.5 102.5,-75.5 102.5,-56.5 55.5,-56.5"/>
<text text-anchor="middle" x="79" y="-63.5" font-family="Helvetica,sans-Serif" font-size="10.00">Cast.h</text>
</a>
</g>
</g>
<!-- Node12&#45;&gt;Node13 -->
<g id="edge12" class="edge">
<title>Node12&#45;&gt;Node13</title>
<path fill="none" stroke="midnightblue" d="M168.79,-168.27C159.51,-159.38 144.91,-145.06 133,-132 118.4,-115.99 102.68,-96.83 91.99,-83.47"/>
<polygon fill="midnightblue" stroke="midnightblue" points="94.71,-81.27 85.75,-75.63 89.23,-85.63 94.71,-81.27"/>
</g>
<!-- Node14 -->
<g id="node14" class="node">
<title>Node14</title>
<g id="a_node14"><a xlink:href="Type__info_8h.html" target="_top" xlink:title=" ">
<polygon fill="white" stroke="black" points="142,-112.5 142,-131.5 214,-131.5 214,-112.5 142,-112.5"/>
<text text-anchor="middle" x="178" y="-119.5" font-family="Helvetica,sans-Serif" font-size="10.00">Type_info.h</text>
</a>
</g>
</g>
<!-- Node12&#45;&gt;Node14 -->
<g id="edge13" class="edge">
<title>Node12&#45;&gt;Node14</title>
<path fill="none" stroke="midnightblue" d="M178,-168.08C178,-161.01 178,-150.86 178,-141.99"/>
<polygon fill="midnightblue" stroke="midnightblue" points="181.5,-141.75 178,-131.75 174.5,-141.75 181.5,-141.75"/>
</g>
<!-- Node15 -->
<g id="node15" class="node">
<title>Node15</title>
<g id="a_node15"><a xlink:href="Declare__Base_8h.html" target="_top" xlink:title=" ">
<polygon fill="white" stroke="black" points="232,-112.5 232,-131.5 324,-131.5 324,-112.5 232,-112.5"/>
<text text-anchor="middle" x="278" y="-119.5" font-family="Helvetica,sans-Serif" font-size="10.00">Declare_Base.h</text>
</a>
</g>
</g>
<!-- Node12&#45;&gt;Node15 -->
<g id="edge14" class="edge">
<title>Node12&#45;&gt;Node15</title>
<path fill="none" stroke="midnightblue" d="M194.07,-168.32C209.96,-159.74 234.51,-146.49 252.96,-136.52"/>
<polygon fill="midnightblue" stroke="midnightblue" points="254.84,-139.49 261.97,-131.65 251.51,-133.33 254.84,-139.49"/>
</g>
<!-- Node16 -->
<g id="node16" class="node">
<title>Node16</title>
<g id="a_node16"><a xlink:href="Declare__Inst_8h.html" target="_top" xlink:title=" ">
<polygon fill="white" stroke="black" points="0,-112.5 0,-131.5 86,-131.5 86,-112.5 0,-112.5"/>
<text text-anchor="middle" x="43" y="-119.5" font-family="Helvetica,sans-Serif" font-size="10.00">Declare_Inst.h</text>
</a>
</g>
</g>
<!-- Node12&#45;&gt;Node16 -->
<g id="edge15" class="edge">
<title>Node12&#45;&gt;Node16</title>
<path fill="none" stroke="midnightblue" d="M156.61,-168.44C134.29,-159.52 99.1,-145.44 73.79,-135.32"/>
<polygon fill="midnightblue" stroke="midnightblue" points="74.88,-131.98 64.29,-131.52 72.28,-138.48 74.88,-131.98"/>
</g>
<!-- Node16&#45;&gt;Node13 -->
<g id="edge16" class="edge">
<title>Node16&#45;&gt;Node13</title>
<path fill="none" stroke="midnightblue" d="M48.94,-112.08C53.98,-104.53 61.34,-93.49 67.51,-84.23"/>
<polygon fill="midnightblue" stroke="midnightblue" points="70.53,-86.01 73.17,-75.75 64.71,-82.13 70.53,-86.01"/>
</g>
<!-- Node18 -->
<g id="node18" class="node">
<title>Node18</title>
<g id="a_node18"><a xlink:href="Entree_8h.html" target="_top" xlink:title=" ">
<polygon fill="white" stroke="black" points="380.5,-112.5 380.5,-131.5 437.5,-131.5 437.5,-112.5 380.5,-112.5"/>
<text text-anchor="middle" x="409" y="-119.5" font-family="Helvetica,sans-Serif" font-size="10.00">Entree.h</text>
</a>
</g>
</g>
<!-- Node17&#45;&gt;Node18 -->
<g id="edge18" class="edge">
<title>Node17&#45;&gt;Node18</title>
<path fill="none" stroke="midnightblue" d="M471.11,-168.32C459.85,-160.11 442.71,-147.6 429.29,-137.81"/>
<polygon fill="midnightblue" stroke="midnightblue" points="431.25,-134.9 421.11,-131.83 427.12,-140.56 431.25,-134.9"/>
</g>
<!-- Node25 -->
<g id="node25" class="node">
<title>Node25</title>
<g id="a_node25"><a xlink:href="Sortie_8h.html" target="_top" xlink:title=" ">
<polygon fill="white" stroke="black" points="456,-112.5 456,-131.5 510,-131.5 510,-112.5 456,-112.5"/>
<text text-anchor="middle" x="483" y="-119.5" font-family="Helvetica,sans-Serif" font-size="10.00">Sortie.h</text>
</a>
</g>
</g>
<!-- Node17&#45;&gt;Node25 -->
<g id="edge26" class="edge">
<title>Node17&#45;&gt;Node25</title>
<path fill="none" stroke="midnightblue" d="M483,-168.08C483,-161.01 483,-150.86 483,-141.99"/>
<polygon fill="midnightblue" stroke="midnightblue" points="486.5,-141.75 483,-131.75 479.5,-141.75 486.5,-141.75"/>
</g>
<!-- Node27 -->
<g id="node27" class="node">
<title>Node27</title>
<g id="a_node27"><a xlink:href="Separateur_8h.html" target="_top" xlink:title=" ">
<polygon fill="white" stroke="black" points="528,-112.5 528,-131.5 606,-131.5 606,-112.5 528,-112.5"/>
<text text-anchor="middle" x="567" y="-119.5" font-family="Helvetica,sans-Serif" font-size="10.00">Separateur.h</text>
</a>
</g>
</g>
<!-- Node17&#45;&gt;Node27 -->
<g id="edge31" class="edge">
<title>Node17&#45;&gt;Node27</title>
<path fill="none" stroke="midnightblue" d="M496.5,-168.32C509.6,-159.9 529.71,-146.97 545.11,-137.07"/>
<polygon fill="midnightblue" stroke="midnightblue" points="547.02,-140.01 553.54,-131.65 543.23,-134.12 547.02,-140.01"/>
</g>
<!-- Node18&#45;&gt;Node11 -->
<g id="edge22" class="edge">
<title>Node18&#45;&gt;Node11</title>
<path fill="none" stroke="midnightblue" d="M437.6,-114.05C440.76,-113.33 443.95,-112.64 447,-112 532.31,-94.23 556.92,-94.63 645.78,-76.15"/>
<polygon fill="midnightblue" stroke="midnightblue" points="646.69,-79.54 655.76,-74.06 645.25,-72.69 646.69,-79.54"/>
</g>
<!-- Node19 -->
<g id="node19" class="node">
<title>Node19</title>
<g id="a_node19"><a xlink:title=" ">
<polygon fill="white" stroke="#bfbfbf" points="318,-56.5 318,-75.5 368,-75.5 368,-56.5 318,-56.5"/>
<text text-anchor="middle" x="343" y="-63.5" font-family="Helvetica,sans-Serif" font-size="10.00">stdio.h</text>
</a>
</g>
</g>
<!-- Node18&#45;&gt;Node19 -->
<g id="edge19" class="edge">
<title>Node18&#45;&gt;Node19</title>
<path fill="none" stroke="midnightblue" d="M398.4,-112.32C388.54,-104.26 373.65,-92.08 361.78,-82.37"/>
<polygon fill="midnightblue" stroke="midnightblue" points="363.75,-79.46 353.8,-75.83 359.32,-84.88 363.75,-79.46"/>
</g>
<!-- Node20 -->
<g id="node20" class="node">
<title>Node20</title>
<g id="a_node20"><a xlink:title=" ">
<polygon fill="white" stroke="#bfbfbf" points="386,-56.5 386,-75.5 432,-75.5 432,-56.5 386,-56.5"/>
<text text-anchor="middle" x="409" y="-63.5" font-family="Helvetica,sans-Serif" font-size="10.00">cstdio</text>
</a>
</g>
</g>
<!-- Node18&#45;&gt;Node20 -->
<g id="edge20" class="edge">
<title>Node18&#45;&gt;Node20</title>
<path fill="none" stroke="midnightblue" d="M409,-112.08C409,-105.01 409,-94.86 409,-85.99"/>
<polygon fill="midnightblue" stroke="midnightblue" points="412.5,-85.75 409,-75.75 405.5,-85.75 412.5,-85.75"/>
</g>
<!-- Node21 -->
<g id="node21" class="node">
<title>Node21</title>
<g id="a_node21"><a xlink:title=" ">
<polygon fill="white" stroke="#bfbfbf" points="516,-56.5 516,-75.5 576,-75.5 576,-56.5 516,-56.5"/>
<text text-anchor="middle" x="546" y="-63.5" font-family="Helvetica,sans-Serif" font-size="10.00">iostream</text>
</a>
</g>
</g>
<!-- Node18&#45;&gt;Node21 -->
<g id="edge21" class="edge">
<title>Node18&#45;&gt;Node21</title>
<path fill="none" stroke="midnightblue" d="M430.71,-112.44C453.35,-103.52 489.07,-89.44 514.75,-79.32"/>
<polygon fill="midnightblue" stroke="midnightblue" points="516.37,-82.44 524.39,-75.52 513.81,-75.93 516.37,-82.44"/>
</g>
<!-- Node18&#45;&gt;Node22 -->
<g id="edge23" class="edge">
<title>Node18&#45;&gt;Node22</title>
<path fill="none" stroke="midnightblue" d="M386.66,-112.44C363.25,-103.48 326.26,-89.31 299.81,-79.18"/>
<polygon fill="midnightblue" stroke="midnightblue" points="300.83,-75.82 290.24,-75.52 298.32,-82.36 300.83,-75.82"/>
</g>
<!-- Node23 -->
<g id="node23" class="node">
<title>Node23</title>
<g id="a_node23"><a xlink:href="arch_8h.html" target="_top" xlink:title=" ">
<polygon fill="white" stroke="black" points="450.5,-56.5 450.5,-75.5 497.5,-75.5 497.5,-56.5 450.5,-56.5"/>
<text text-anchor="middle" x="474" y="-63.5" font-family="Helvetica,sans-Serif" font-size="10.00">arch.h</text>
</a>
</g>
</g>
<!-- Node18&#45;&gt;Node23 -->
<g id="edge24" class="edge">
<title>Node18&#45;&gt;Node23</title>
<path fill="none" stroke="midnightblue" d="M419.44,-112.32C429.15,-104.26 443.82,-92.08 455.5,-82.37"/>
<polygon fill="midnightblue" stroke="midnightblue" points="457.91,-84.92 463.37,-75.83 453.44,-79.53 457.91,-84.92"/>
</g>
<!-- Node24 -->
<g id="node24" class="node">
<title>Node24</title>
<g id="a_node24"><a xlink:href="generique_8h.html" target="_top" xlink:title=" ">
<polygon fill="white" stroke="black" points="437,-0.5 437,-19.5 511,-19.5 511,-0.5 437,-0.5"/>
<text text-anchor="middle" x="474" y="-7.5" font-family="Helvetica,sans-Serif" font-size="10.00">generique.h</text>
</a>
</g>
</g>
<!-- Node23&#45;&gt;Node24 -->
<g id="edge25" class="edge">
<title>Node23&#45;&gt;Node24</title>
<path fill="none" stroke="midnightblue" d="M474,-56.08C474,-49.01 474,-38.86 474,-29.99"/>
<polygon fill="midnightblue" stroke="midnightblue" points="477.5,-29.75 474,-19.75 470.5,-29.75 477.5,-29.75"/>
</g>
<!-- Node25&#45;&gt;Node11 -->
<g id="edge28" class="edge">
<title>Node25&#45;&gt;Node11</title>
<path fill="none" stroke="midnightblue" d="M510.11,-113.72C545.1,-104.32 606.2,-87.9 645.87,-77.24"/>
<polygon fill="midnightblue" stroke="midnightblue" points="646.96,-80.58 655.71,-74.6 645.14,-73.82 646.96,-80.58"/>
</g>
<!-- Node25&#45;&gt;Node21 -->
<g id="edge27" class="edge">
<title>Node25&#45;&gt;Node21</title>
<path fill="none" stroke="midnightblue" d="M493.12,-112.32C502.53,-104.26 516.74,-92.08 528.07,-82.37"/>
<polygon fill="midnightblue" stroke="midnightblue" points="530.38,-85 535.69,-75.83 525.82,-79.68 530.38,-85"/>
</g>
<!-- Node25&#45;&gt;Node23 -->
<g id="edge29" class="edge">
<title>Node25&#45;&gt;Node23</title>
<path fill="none" stroke="midnightblue" d="M481.51,-112.08C480.32,-104.93 478.61,-94.64 477.12,-85.69"/>
<polygon fill="midnightblue" stroke="midnightblue" points="480.55,-85.04 475.46,-75.75 473.65,-86.19 480.55,-85.04"/>
</g>
<!-- Node26 -->
<g id="node26" class="node">
<title>Node26</title>
<g id="a_node26"><a xlink:title=" ">
<polygon fill="white" stroke="#bfbfbf" points="594,-56.5 594,-75.5 638,-75.5 638,-56.5 594,-56.5"/>
<text text-anchor="middle" x="616" y="-63.5" font-family="Helvetica,sans-Serif" font-size="10.00">string</text>
</a>
</g>
</g>
<!-- Node25&#45;&gt;Node26 -->
<g id="edge30" class="edge">
<title>Node25&#45;&gt;Node26</title>
<path fill="none" stroke="midnightblue" d="M504.07,-112.44C526.06,-103.52 560.73,-89.44 585.66,-79.32"/>
<polygon fill="midnightblue" stroke="midnightblue" points="587.08,-82.52 595.02,-75.52 584.44,-76.04 587.08,-82.52"/>
</g>
<!-- Node28&#45;&gt;Node10 -->
<g id="edge34" class="edge">
<title>Node28&#45;&gt;Node10</title>
<path fill="none" stroke="midnightblue" d="M533.19,-448.22C525.23,-439.72 513.9,-426.09 508,-412 485.26,-357.67 481.94,-286.7 481.75,-253.56"/>
<polygon fill="midnightblue" stroke="midnightblue" points="485.25,-253.52 481.79,-243.51 478.25,-253.49 485.25,-253.52"/>
</g>
<!-- Node28&#45;&gt;Node26 -->
<g id="edge36" class="edge">
<title>Node28&#45;&gt;Node26</title>
<path fill="none" stroke="midnightblue" d="M551.16,-448.24C574.43,-425 634,-358.88 634,-291 634,-291 634,-291 634,-177 634,-144.54 626.27,-107.38 620.94,-85.63"/>
<polygon fill="midnightblue" stroke="midnightblue" points="624.29,-84.59 618.43,-75.76 617.51,-86.32 624.29,-84.59"/>
</g>
<!-- Node29 -->
<g id="node29" class="node">
<title>Node29</title>
<g id="a_node29"><a xlink:title=" ">
<polygon fill="white" stroke="#bfbfbf" points="517,-392.5 517,-411.5 567,-411.5 567,-392.5 517,-392.5"/>
<text text-anchor="middle" x="542" y="-399.5" font-family="Helvetica,sans-Serif" font-size="10.00">cstring</text>
</a>
</g>
</g>
<!-- Node28&#45;&gt;Node29 -->
<g id="edge35" class="edge">
<title>Node28&#45;&gt;Node29</title>
<path fill="none" stroke="midnightblue" d="M542,-448.08C542,-441.01 542,-430.86 542,-421.99"/>
<polygon fill="midnightblue" stroke="midnightblue" points="545.5,-421.75 542,-411.75 538.5,-421.75 545.5,-421.75"/>
</g>
<!-- Node31 -->
<g id="node31" class="node">
<title>Node31</title>
<g id="a_node31"><a xlink:href="Vect_8h.html" target="_top" xlink:title=" ">
<polygon fill="white" stroke="black" points="555.5,-672.5 555.5,-691.5 602.5,-691.5 602.5,-672.5 555.5,-672.5"/>
<text text-anchor="middle" x="579" y="-679.5" font-family="Helvetica,sans-Serif" font-size="10.00">Vect.h</text>
</a>
</g>
</g>
<!-- Node30&#45;&gt;Node31 -->
<g id="edge38" class="edge">
<title>Node30&#45;&gt;Node31</title>
<path fill="none" stroke="midnightblue" d="M579,-728.08C579,-721.01 579,-710.86 579,-701.99"/>
<polygon fill="midnightblue" stroke="midnightblue" points="582.5,-701.75 579,-691.75 575.5,-701.75 582.5,-701.75"/>
</g>
<!-- Node32 -->
<g id="node32" class="node">
<title>Node32</title>
<g id="a_node32"><a xlink:href="MacVect_8h.html" target="_top" xlink:title=" ">
<polygon fill="white" stroke="black" points="548.5,-616.5 548.5,-635.5 615.5,-635.5 615.5,-616.5 548.5,-616.5"/>
<text text-anchor="middle" x="582" y="-623.5" font-family="Helvetica,sans-Serif" font-size="10.00">MacVect.h</text>
</a>
</g>
</g>
<!-- Node31&#45;&gt;Node32 -->
<g id="edge39" class="edge">
<title>Node31&#45;&gt;Node32</title>
<path fill="none" stroke="midnightblue" d="M579.5,-672.08C579.89,-665.01 580.45,-654.86 580.95,-645.99"/>
<polygon fill="midnightblue" stroke="midnightblue" points="584.45,-645.93 581.51,-635.75 577.46,-645.54 584.45,-645.93"/>
</g>
<!-- Node32&#45;&gt;Node11 -->
<g id="edge41" class="edge">
<title>Node32&#45;&gt;Node11</title>
<path fill="none" stroke="midnightblue" d="M615.59,-618.51C664.1,-606.97 748,-577.92 748,-515 748,-515 748,-515 748,-177 748,-139.33 719.61,-103.04 700.65,-83.01"/>
<polygon fill="midnightblue" stroke="midnightblue" points="702.95,-80.36 693.44,-75.69 697.96,-85.27 702.95,-80.36"/>
</g>
<!-- Node32&#45;&gt;Node28 -->
<g id="edge40" class="edge">
<title>Node32&#45;&gt;Node28</title>
<path fill="none" stroke="midnightblue" d="M582.81,-616.49C583.8,-603.98 584.88,-579.94 581,-560 575.08,-529.52 560.56,-496.32 551,-476.6"/>
<polygon fill="midnightblue" stroke="midnightblue" points="554.12,-475 546.53,-467.6 547.85,-478.12 554.12,-475"/>
</g>
<!-- Node33 -->
<g id="node33" class="node">
<title>Node33</title>
<g id="a_node33"><a xlink:href="vect__impl_8h.html" target="_top" xlink:title=" ">
<polygon fill="white" stroke="black" points="498,-560.5 498,-579.5 572,-579.5 572,-560.5 498,-560.5"/>
<text text-anchor="middle" x="535" y="-567.5" font-family="Helvetica,sans-Serif" font-size="10.00">vect_impl.h</text>
</a>
</g>
</g>
<!-- Node32&#45;&gt;Node33 -->
<g id="edge42" class="edge">
<title>Node32&#45;&gt;Node33</title>
<path fill="none" stroke="midnightblue" d="M574.24,-616.08C567.46,-608.3 557.46,-596.8 549.24,-587.37"/>
<polygon fill="midnightblue" stroke="midnightblue" points="551.82,-585 542.62,-579.75 546.54,-589.59 551.82,-585"/>
</g>
<!-- Node33&#45;&gt;Node5 -->
<g id="edge45" class="edge">
<title>Node33&#45;&gt;Node5</title>
<path fill="none" stroke="midnightblue" d="M525.04,-560.32C515.87,-552.34 502.06,-540.31 490.97,-530.65"/>
<polygon fill="midnightblue" stroke="midnightblue" points="492.98,-527.76 483.14,-523.83 488.38,-533.04 492.98,-527.76"/>
</g>
<!-- Node33&#45;&gt;Node11 -->
<g id="edge44" class="edge">
<title>Node33&#45;&gt;Node11</title>
<path fill="none" stroke="midnightblue" d="M572.19,-566.89C605.62,-563.1 654.09,-552.65 685,-524 707.7,-502.96 710,-489.95 710,-459 710,-459 710,-459 710,-177 710,-143.93 698.73,-106.73 691.03,-85.17"/>
<polygon fill="midnightblue" stroke="midnightblue" points="694.27,-83.83 687.51,-75.68 687.71,-86.27 694.27,-83.83"/>
</g>
<!-- Node33&#45;&gt;Node28 -->
<g id="edge43" class="edge">
<title>Node33&#45;&gt;Node28</title>
<path fill="none" stroke="midnightblue" d="M535.55,-560.37C536.68,-542.62 539.28,-501.67 540.82,-477.6"/>
<polygon fill="midnightblue" stroke="midnightblue" points="544.31,-477.79 541.45,-467.59 537.33,-477.35 544.31,-477.79"/>
</g>
<!-- Node35 -->
<g id="node35" class="node">
<title>Node35</title>
<g id="a_node35"><a xlink:href="TRUSTTabs__forward_8h.html" target="_top" xlink:title=" ">
<polygon fill="white" stroke="black" points="698,-616.5 698,-635.5 820,-635.5 820,-616.5 698,-616.5"/>
<text text-anchor="middle" x="759" y="-623.5" font-family="Helvetica,sans-Serif" font-size="10.00">TRUSTTabs_forward.h</text>
</a>
</g>
</g>
<!-- Node34&#45;&gt;Node35 -->
<g id="edge47" class="edge">
<title>Node34&#45;&gt;Node35</title>
<path fill="none" stroke="midnightblue" d="M676.75,-672.32C692.32,-663.74 716.38,-650.49 734.46,-640.52"/>
<polygon fill="midnightblue" stroke="midnightblue" points="736.22,-643.55 743.29,-635.65 732.85,-637.42 736.22,-643.55"/>
</g>
<!-- Node36 -->
<g id="node36" class="node">
<title>Node36</title>
<g id="a_node36"><a xlink:href="Ref_8h.html" target="_top" xlink:title=" ">
<polygon fill="white" stroke="black" points="638.5,-616.5 638.5,-635.5 679.5,-635.5 679.5,-616.5 638.5,-616.5"/>
<text text-anchor="middle" x="659" y="-623.5" font-family="Helvetica,sans-Serif" font-size="10.00">Ref.h</text>
</a>
</g>
</g>
<!-- Node34&#45;&gt;Node36 -->
<g id="edge48" class="edge">
<title>Node34&#45;&gt;Node36</title>
<path fill="none" stroke="midnightblue" d="M660.67,-672.08C660.41,-665.01 660.03,-654.86 659.7,-645.99"/>
<polygon fill="midnightblue" stroke="midnightblue" points="663.19,-645.61 659.32,-635.75 656.2,-645.87 663.19,-645.61"/>
</g>
<!-- Node37 -->
<g id="node37" class="node">
<title>Node37</title>
<g id="a_node37"><a xlink:href="MacRef_8h.html" target="_top" xlink:title=" ">
<polygon fill="white" stroke="black" points="628,-560.5 628,-579.5 690,-579.5 690,-560.5 628,-560.5"/>
<text text-anchor="middle" x="659" y="-567.5" font-family="Helvetica,sans-Serif" font-size="10.00">MacRef.h</text>
</a>
</g>
</g>
<!-- Node36&#45;&gt;Node37 -->
<g id="edge49" class="edge">
<title>Node36&#45;&gt;Node37</title>
<path fill="none" stroke="midnightblue" d="M659,-616.08C659,-609.01 659,-598.86 659,-589.99"/>
<polygon fill="midnightblue" stroke="midnightblue" points="662.5,-589.75 659,-579.75 655.5,-589.75 662.5,-589.75"/>
</g>
<!-- Node38 -->
<g id="node38" class="node">
<title>Node38</title>
<g id="a_node38"><a xlink:href="Ref___8h.html" target="_top" xlink:title=" ">
<polygon fill="white" stroke="black" points="628.5,-504.5 628.5,-523.5 675.5,-523.5 675.5,-504.5 628.5,-504.5"/>
<text text-anchor="middle" x="652" y="-511.5" font-family="Helvetica,sans-Serif" font-size="10.00">Ref_.h</text>
</a>
</g>
</g>
<!-- Node37&#45;&gt;Node38 -->
<g id="edge50" class="edge">
<title>Node37&#45;&gt;Node38</title>
<path fill="none" stroke="midnightblue" d="M657.84,-560.08C656.92,-552.93 655.58,-542.64 654.42,-533.69"/>
<polygon fill="midnightblue" stroke="midnightblue" points="657.89,-533.22 653.13,-523.75 650.95,-534.12 657.89,-533.22"/>
</g>
<!-- Node38&#45;&gt;Node9 -->
<g id="edge51" class="edge">
<title>Node38&#45;&gt;Node9</title>
<path fill="none" stroke="midnightblue" d="M649.17,-504.14C640.49,-477.59 612.66,-396.73 577,-336 571.12,-325.99 563.29,-315.71 556.52,-307.51"/>
<polygon fill="midnightblue" stroke="midnightblue" points="559.12,-305.16 549.98,-299.81 553.79,-309.69 559.12,-305.16"/>
</g>
<!-- Node38&#45;&gt;Node28 -->
<g id="edge52" class="edge">
<title>Node38&#45;&gt;Node28</title>
<path fill="none" stroke="midnightblue" d="M634.33,-504.32C616.61,-495.62 589.1,-482.12 568.71,-472.11"/>
<polygon fill="midnightblue" stroke="midnightblue" points="570.15,-468.92 559.63,-467.65 567.06,-475.2 570.15,-468.92"/>
</g>
</g>
</svg>
