<?xml version="1.0" encoding="UTF-8" standalone="no"?>
<!DOCTYPE svg PUBLIC "-//W3C//DTD SVG 1.1//EN"
 "http://www.w3.org/Graphics/SVG/1.1/DTD/svg11.dtd">
<!-- Generated by graphviz version 2.43.0 (0)
 -->
<!-- Title: src/ThHyd/Dilatable/Quasi_Compressible/Loi_Etat/Loi_Etat_Binaire_GP_QC.h Pages: 1 -->
<svg width="312pt" height="161pt"
 viewBox="0.00 0.00 311.50 161.00" xmlns="http://www.w3.org/2000/svg" xmlns:xlink="http://www.w3.org/1999/xlink">
<g id="graph0" class="graph" transform="scale(1 1) rotate(0) translate(4 157)">
<title>src/ThHyd/Dilatable/Quasi_Compressible/Loi_Etat/Loi_Etat_Binaire_GP_QC.h</title>
<polygon fill="white" stroke="transparent" points="-4,4 -4,-157 307.5,-157 307.5,4 -4,4"/>
<!-- Node1 -->
<g id="node1" class="node">
<title>Node1</title>
<g id="a_node1"><a xlink:title=" ">
<polygon fill="#bfbfbf" stroke="black" points="82.5,-100.5 82.5,-152.5 222.5,-152.5 222.5,-100.5 82.5,-100.5"/>
<text text-anchor="start" x="90.5" y="-140.5" font-family="Helvetica,sans-Serif" font-size="10.00">src/ThHyd/Dilatable</text>
<text text-anchor="start" x="90.5" y="-129.5" font-family="Helvetica,sans-Serif" font-size="10.00">/Quasi_Compressible</text>
<text text-anchor="start" x="90.5" y="-118.5" font-family="Helvetica,sans-Serif" font-size="10.00">/Loi_Etat/Loi_Etat_Binaire</text>
<text text-anchor="middle" x="152.5" y="-107.5" font-family="Helvetica,sans-Serif" font-size="10.00">_GP_QC.h</text>
</a>
</g>
</g>
<!-- Node2 -->
<g id="node2" class="node">
<title>Node2</title>
<g id="a_node2"><a xlink:href="Convection__Diffusion__Espece__Binaire__QC_8cpp.html" target="_top" xlink:title=" ">
<polygon fill="white" stroke="black" points="0,-0.5 0,-63.5 145,-63.5 145,-0.5 0,-0.5"/>
<text text-anchor="start" x="8" y="-51.5" font-family="Helvetica,sans-Serif" font-size="10.00">src/ThHyd/Dilatable</text>
<text text-anchor="start" x="8" y="-40.5" font-family="Helvetica,sans-Serif" font-size="10.00">/Quasi_Compressible</text>
<text text-anchor="start" x="8" y="-29.5" font-family="Helvetica,sans-Serif" font-size="10.00">/Equations/Convection</text>
<text text-anchor="start" x="8" y="-18.5" font-family="Helvetica,sans-Serif" font-size="10.00">_Diffusion_Espece_Binaire</text>
<text text-anchor="middle" x="72.5" y="-7.5" font-family="Helvetica,sans-Serif" font-size="10.00">_QC.cpp</text>
</a>
</g>
</g>
<!-- Node1&#45;&gt;Node2 -->
<g id="edge1" class="edge">
<title>Node1&#45;&gt;Node2</title>
<path fill="none" stroke="midnightblue" d="M123.97,-92.51C115.8,-83.06 106.93,-72.81 98.89,-63.51"/>
<polygon fill="midnightblue" stroke="midnightblue" points="121.45,-94.95 130.64,-100.22 126.75,-90.37 121.45,-94.95"/>
</g>
<!-- Node3 -->
<g id="node3" class="node">
<title>Node3</title>
<g id="a_node3"><a xlink:href="Loi__Etat__Binaire__GP__QC_8cpp.html" target="_top" xlink:title=" ">
<polygon fill="white" stroke="black" points="163.5,-6 163.5,-58 303.5,-58 303.5,-6 163.5,-6"/>
<text text-anchor="start" x="171.5" y="-46" font-family="Helvetica,sans-Serif" font-size="10.00">src/ThHyd/Dilatable</text>
<text text-anchor="start" x="171.5" y="-35" font-family="Helvetica,sans-Serif" font-size="10.00">/Quasi_Compressible</text>
<text text-anchor="start" x="171.5" y="-24" font-family="Helvetica,sans-Serif" font-size="10.00">/Loi_Etat/Loi_Etat_Binaire</text>
<text text-anchor="middle" x="233.5" y="-13" font-family="Helvetica,sans-Serif" font-size="10.00">_GP_QC.cpp</text>
</a>
</g>
</g>
<!-- Node1&#45;&gt;Node3 -->
<g id="edge2" class="edge">
<title>Node1&#45;&gt;Node3</title>
<path fill="none" stroke="midnightblue" d="M181.29,-92.62C191.19,-81.32 202.11,-68.85 211.39,-58.25"/>
<polygon fill="midnightblue" stroke="midnightblue" points="178.59,-90.39 174.63,-100.22 183.85,-95.01 178.59,-90.39"/>
</g>
</g>
</svg>
