<?xml version="1.0" encoding="UTF-8" standalone="no"?>
<!DOCTYPE svg PUBLIC "-//W3C//DTD SVG 1.1//EN"
 "http://www.w3.org/Graphics/SVG/1.1/DTD/svg11.dtd">
<!-- Generated by graphviz version 2.43.0 (0)
 -->
<!-- Title: src/Kernel/Math/Matrices/Matrice_Diagonale.h Pages: 1 -->
<svg width="954pt" height="184pt"
 viewBox="0.00 0.00 954.00 184.00" xmlns="http://www.w3.org/2000/svg" xmlns:xlink="http://www.w3.org/1999/xlink">
<g id="graph0" class="graph" transform="scale(1 1) rotate(0) translate(4 180)">
<title>src/Kernel/Math/Matrices/Matrice_Diagonale.h</title>
<polygon fill="white" stroke="transparent" points="-4,4 -4,-180 950,-180 950,4 -4,4"/>
<!-- Node1 -->
<g id="node1" class="node">
<title>Node1</title>
<g id="a_node1"><a xlink:title=" ">
<polygon fill="#bfbfbf" stroke="black" points="393,-145.5 393,-175.5 530,-175.5 530,-145.5 393,-145.5"/>
<text text-anchor="start" x="401" y="-163.5" font-family="Helvetica,sans-Serif" font-size="10.00">src/Kernel/Math/Matrices</text>
<text text-anchor="middle" x="461.5" y="-152.5" font-family="Helvetica,sans-Serif" font-size="10.00">/Matrice_Diagonale.h</text>
</a>
</g>
</g>
<!-- Node2 -->
<g id="node2" class="node">
<title>Node2</title>
<g id="a_node2"><a xlink:href="Matrice__Diagonale_8cpp.html" target="_top" xlink:title=" ">
<polygon fill="white" stroke="black" points="0,-73 0,-103 137,-103 137,-73 0,-73"/>
<text text-anchor="start" x="8" y="-91" font-family="Helvetica,sans-Serif" font-size="10.00">src/Kernel/Math/Matrices</text>
<text text-anchor="middle" x="68.5" y="-80" font-family="Helvetica,sans-Serif" font-size="10.00">/Matrice_Diagonale.cpp</text>
</a>
</g>
</g>
<!-- Node1&#45;&gt;Node2 -->
<g id="edge1" class="edge">
<title>Node1&#45;&gt;Node2</title>
<path fill="none" stroke="midnightblue" d="M382.95,-148.96C319,-139.88 226.54,-125.64 146.5,-109 138.01,-107.24 129.06,-105.15 120.37,-103.01"/>
<polygon fill="midnightblue" stroke="midnightblue" points="382.57,-152.44 392.96,-150.37 383.55,-145.51 382.57,-152.44"/>
</g>
<!-- Node3 -->
<g id="node3" class="node">
<title>Node3</title>
<g id="a_node3"><a xlink:href="Matrice__Morse__Diag_8h.html" target="_top" xlink:title=" ">
<polygon fill="white" stroke="black" points="155,-73 155,-103 292,-103 292,-73 155,-73"/>
<text text-anchor="start" x="163" y="-91" font-family="Helvetica,sans-Serif" font-size="10.00">src/Kernel/Math/Matrices</text>
<text text-anchor="middle" x="223.5" y="-80" font-family="Helvetica,sans-Serif" font-size="10.00">/Matrice_Morse_Diag.h</text>
</a>
</g>
</g>
<!-- Node1&#45;&gt;Node3 -->
<g id="edge2" class="edge">
<title>Node1&#45;&gt;Node3</title>
<path fill="none" stroke="midnightblue" d="M404.41,-142.59C363.68,-130.52 309.53,-114.48 271.12,-103.11"/>
<polygon fill="midnightblue" stroke="midnightblue" points="403.61,-146 414.19,-145.49 405.6,-139.29 403.61,-146"/>
</g>
<!-- Node7 -->
<g id="node7" class="node">
<title>Node7</title>
<g id="a_node7"><a xlink:href="Matrix__tools_8cpp.html" target="_top" xlink:title=" ">
<polygon fill="white" stroke="black" points="310,-73 310,-103 447,-103 447,-73 310,-73"/>
<text text-anchor="start" x="318" y="-91" font-family="Helvetica,sans-Serif" font-size="10.00">src/Kernel/Math/Matrices</text>
<text text-anchor="middle" x="378.5" y="-80" font-family="Helvetica,sans-Serif" font-size="10.00">/Matrix_tools.cpp</text>
</a>
</g>
</g>
<!-- Node1&#45;&gt;Node7 -->
<g id="edge6" class="edge">
<title>Node1&#45;&gt;Node7</title>
<path fill="none" stroke="midnightblue" d="M436.73,-138.46C423.24,-127 406.92,-113.14 394.99,-103"/>
<polygon fill="midnightblue" stroke="midnightblue" points="434.82,-141.43 444.7,-145.23 439.35,-136.09 434.82,-141.43"/>
</g>
<!-- Node8 -->
<g id="node8" class="node">
<title>Node8</title>
<g id="a_node8"><a xlink:href="Assembleur__P__PolyMAC_8cpp.html" target="_top" xlink:title=" ">
<polygon fill="white" stroke="black" points="465.5,-73 465.5,-103 623.5,-103 623.5,-73 465.5,-73"/>
<text text-anchor="start" x="473.5" y="-91" font-family="Helvetica,sans-Serif" font-size="10.00">src/PolyMAC/Solveurs</text>
<text text-anchor="middle" x="544.5" y="-80" font-family="Helvetica,sans-Serif" font-size="10.00">/Assembleur_P_PolyMAC.cpp</text>
</a>
</g>
</g>
<!-- Node1&#45;&gt;Node8 -->
<g id="edge7" class="edge">
<title>Node1&#45;&gt;Node8</title>
<path fill="none" stroke="midnightblue" d="M486.27,-138.46C499.76,-127 516.08,-113.14 528.01,-103"/>
<polygon fill="midnightblue" stroke="midnightblue" points="483.65,-136.09 478.3,-145.23 488.18,-141.43 483.65,-136.09"/>
</g>
<!-- Node9 -->
<g id="node9" class="node">
<title>Node9</title>
<g id="a_node9"><a xlink:href="Assembleur__P__PolyMAC__P0_8cpp.html" target="_top" xlink:title=" ">
<polygon fill="white" stroke="black" points="642,-67.5 642,-108.5 779,-108.5 779,-67.5 642,-67.5"/>
<text text-anchor="start" x="650" y="-96.5" font-family="Helvetica,sans-Serif" font-size="10.00">src/PolyMAC/Solveurs</text>
<text text-anchor="start" x="650" y="-85.5" font-family="Helvetica,sans-Serif" font-size="10.00">/Assembleur_P_PolyMAC</text>
<text text-anchor="middle" x="710.5" y="-74.5" font-family="Helvetica,sans-Serif" font-size="10.00">_P0.cpp</text>
</a>
</g>
</g>
<!-- Node1&#45;&gt;Node9 -->
<g id="edge8" class="edge">
<title>Node1&#45;&gt;Node9</title>
<path fill="none" stroke="midnightblue" d="M520.95,-142.67C557.27,-132.38 603.87,-119.19 641.77,-108.46"/>
<polygon fill="midnightblue" stroke="midnightblue" points="519.66,-139.4 510.99,-145.49 521.57,-146.13 519.66,-139.4"/>
</g>
<!-- Node10 -->
<g id="node10" class="node">
<title>Node10</title>
<g id="a_node10"><a xlink:href="Solveur__U__P_8cpp.html" target="_top" xlink:title=" ">
<polygon fill="white" stroke="black" points="797,-73 797,-103 946,-103 946,-73 797,-73"/>
<text text-anchor="start" x="805" y="-91" font-family="Helvetica,sans-Serif" font-size="10.00">src/ThHyd/Schemas_Temps</text>
<text text-anchor="middle" x="871.5" y="-80" font-family="Helvetica,sans-Serif" font-size="10.00">/Solveur_U_P.cpp</text>
</a>
</g>
</g>
<!-- Node1&#45;&gt;Node10 -->
<g id="edge9" class="edge">
<title>Node1&#45;&gt;Node10</title>
<path fill="none" stroke="midnightblue" d="M540.04,-149.24C606.48,-140.12 704.07,-125.66 788.5,-109 797.37,-107.25 806.73,-105.2 815.83,-103.09"/>
<polygon fill="midnightblue" stroke="midnightblue" points="539.49,-145.78 530.06,-150.6 540.44,-152.72 539.49,-145.78"/>
</g>
<!-- Node4 -->
<g id="node4" class="node">
<title>Node4</title>
<g id="a_node4"><a xlink:href="Equation__base_8cpp.html" target="_top" xlink:title=" ">
<polygon fill="white" stroke="black" points="13.5,-0.5 13.5,-30.5 135.5,-30.5 135.5,-0.5 13.5,-0.5"/>
<text text-anchor="start" x="21.5" y="-18.5" font-family="Helvetica,sans-Serif" font-size="10.00">src/Kernel/Framework</text>
<text text-anchor="middle" x="74.5" y="-7.5" font-family="Helvetica,sans-Serif" font-size="10.00">/Equation_base.cpp</text>
</a>
</g>
</g>
<!-- Node3&#45;&gt;Node4 -->
<g id="edge3" class="edge">
<title>Node3&#45;&gt;Node4</title>
<path fill="none" stroke="midnightblue" d="M184.46,-68.53C159.37,-56.66 127.27,-41.47 104.24,-30.57"/>
<polygon fill="midnightblue" stroke="midnightblue" points="183.17,-71.79 193.71,-72.9 186.16,-65.46 183.17,-71.79"/>
</g>
<!-- Node5 -->
<g id="node5" class="node">
<title>Node5</title>
<g id="a_node5"><a xlink:href="Matrice__Morse__Diag_8cpp.html" target="_top" xlink:title=" ">
<polygon fill="white" stroke="black" points="153.5,-0.5 153.5,-30.5 293.5,-30.5 293.5,-0.5 153.5,-0.5"/>
<text text-anchor="start" x="161.5" y="-18.5" font-family="Helvetica,sans-Serif" font-size="10.00">src/Kernel/Math/Matrices</text>
<text text-anchor="middle" x="223.5" y="-7.5" font-family="Helvetica,sans-Serif" font-size="10.00">/Matrice_Morse_Diag.cpp</text>
</a>
</g>
</g>
<!-- Node3&#45;&gt;Node5 -->
<g id="edge4" class="edge">
<title>Node3&#45;&gt;Node5</title>
<path fill="none" stroke="midnightblue" d="M223.5,-62.73C223.5,-52.07 223.5,-39.91 223.5,-30.75"/>
<polygon fill="midnightblue" stroke="midnightblue" points="220,-62.73 223.5,-72.73 227,-62.73 220,-62.73"/>
</g>
<!-- Node6 -->
<g id="node6" class="node">
<title>Node6</title>
<g id="a_node6"><a xlink:href="Op__VEF__Face_8cpp.html" target="_top" xlink:title=" ">
<polygon fill="white" stroke="black" points="311.5,-0.5 311.5,-30.5 421.5,-30.5 421.5,-0.5 311.5,-0.5"/>
<text text-anchor="start" x="319.5" y="-18.5" font-family="Helvetica,sans-Serif" font-size="10.00">src/VEF/Operateurs</text>
<text text-anchor="middle" x="366.5" y="-7.5" font-family="Helvetica,sans-Serif" font-size="10.00">/Op_VEF_Face.cpp</text>
</a>
</g>
</g>
<!-- Node3&#45;&gt;Node6 -->
<g id="edge5" class="edge">
<title>Node3&#45;&gt;Node6</title>
<path fill="none" stroke="midnightblue" d="M261.28,-68.37C285.32,-56.52 315.95,-41.42 337.96,-30.57"/>
<polygon fill="midnightblue" stroke="midnightblue" points="259.52,-65.34 252.09,-72.9 262.61,-71.62 259.52,-65.34"/>
</g>
</g>
</svg>
