<?xml version="1.0" encoding="UTF-8" standalone="no"?>
<!DOCTYPE svg PUBLIC "-//W3C//DTD SVG 1.1//EN"
 "http://www.w3.org/Graphics/SVG/1.1/DTD/svg11.dtd">
<!-- Generated by graphviz version 2.43.0 (0)
 -->
<!-- Title: src/Kernel/Math/MD_Vector_base2.h Pages: 1 -->
<svg width="1087pt" height="543pt"
 viewBox="0.00 0.00 1087.00 543.00" xmlns="http://www.w3.org/2000/svg" xmlns:xlink="http://www.w3.org/1999/xlink">
<g id="graph0" class="graph" transform="scale(1 1) rotate(0) translate(4 539)">
<title>src/Kernel/Math/MD_Vector_base2.h</title>
<polygon fill="white" stroke="transparent" points="-4,4 -4,-539 1083,-539 1083,4 -4,4"/>
<!-- Node1 -->
<g id="node1" class="node">
<title>Node1</title>
<g id="a_node1"><a xlink:title=" ">
<polygon fill="#bfbfbf" stroke="black" points="430,-504.5 430,-534.5 542,-534.5 542,-504.5 430,-504.5"/>
<text text-anchor="start" x="438" y="-522.5" font-family="Helvetica,sans-Serif" font-size="10.00">src/Kernel/Math/MD</text>
<text text-anchor="middle" x="486" y="-511.5" font-family="Helvetica,sans-Serif" font-size="10.00">_Vector_base2.h</text>
</a>
</g>
</g>
<!-- Node2 -->
<g id="node2" class="node">
<title>Node2</title>
<g id="a_node2"><a xlink:href="MD__Vector__base_8h.html" target="_top" xlink:title=" ">
<polygon fill="white" stroke="black" points="96.5,-448.5 96.5,-467.5 203.5,-467.5 203.5,-448.5 96.5,-448.5"/>
<text text-anchor="middle" x="150" y="-455.5" font-family="Helvetica,sans-Serif" font-size="10.00">MD_Vector_base.h</text>
</a>
</g>
</g>
<!-- Node1&#45;&gt;Node2 -->
<g id="edge1" class="edge">
<title>Node1&#45;&gt;Node2</title>
<path fill="none" stroke="midnightblue" d="M429.76,-508.54C368.35,-497.67 270.49,-480.34 208.28,-469.32"/>
<polygon fill="midnightblue" stroke="midnightblue" points="208.7,-465.84 198.24,-467.54 207.48,-472.73 208.7,-465.84"/>
</g>
<!-- Node22 -->
<g id="node22" class="node">
<title>Node22</title>
<g id="a_node22"><a xlink:href="TRUSTArray_8h.html" target="_top" xlink:title=" ">
<polygon fill="white" stroke="black" points="691,-448.5 691,-467.5 773,-467.5 773,-448.5 691,-448.5"/>
<text text-anchor="middle" x="732" y="-455.5" font-family="Helvetica,sans-Serif" font-size="10.00">TRUSTArray.h</text>
</a>
</g>
</g>
<!-- Node1&#45;&gt;Node22 -->
<g id="edge27" class="edge">
<title>Node1&#45;&gt;Node22</title>
<path fill="none" stroke="midnightblue" d="M542.13,-504.92C585.92,-494.33 645.97,-479.81 686.72,-469.95"/>
<polygon fill="midnightblue" stroke="midnightblue" points="687.75,-473.3 696.65,-467.55 686.1,-466.5 687.75,-473.3"/>
</g>
<!-- Node3 -->
<g id="node3" class="node">
<title>Node3</title>
<g id="a_node3"><a xlink:href="TRUSTTabs__forward_8h.html" target="_top" xlink:title=" ">
<polygon fill="white" stroke="black" points="0,-392.5 0,-411.5 122,-411.5 122,-392.5 0,-392.5"/>
<text text-anchor="middle" x="61" y="-399.5" font-family="Helvetica,sans-Serif" font-size="10.00">TRUSTTabs_forward.h</text>
</a>
</g>
</g>
<!-- Node2&#45;&gt;Node3 -->
<g id="edge2" class="edge">
<title>Node2&#45;&gt;Node3</title>
<path fill="none" stroke="midnightblue" d="M135.7,-448.32C121.82,-439.9 100.51,-426.97 84.2,-417.07"/>
<polygon fill="midnightblue" stroke="midnightblue" points="85.63,-413.85 75.26,-411.65 82,-419.83 85.63,-413.85"/>
</g>
<!-- Node4 -->
<g id="node4" class="node">
<title>Node4</title>
<g id="a_node4"><a xlink:href="Objet__U_8h.html" target="_top" xlink:title=" ">
<polygon fill="white" stroke="black" points="500.5,-224.5 500.5,-243.5 565.5,-243.5 565.5,-224.5 500.5,-224.5"/>
<text text-anchor="middle" x="533" y="-231.5" font-family="Helvetica,sans-Serif" font-size="10.00">Objet_U.h</text>
</a>
</g>
</g>
<!-- Node2&#45;&gt;Node4 -->
<g id="edge3" class="edge">
<title>Node2&#45;&gt;Node4</title>
<path fill="none" stroke="midnightblue" d="M148.89,-448.4C146.61,-427.12 143.58,-371.15 169,-336 200.91,-291.86 226.38,-297.37 278,-280 350.35,-255.65 438.91,-243.81 490.34,-238.59"/>
<polygon fill="midnightblue" stroke="midnightblue" points="490.82,-242.06 500.43,-237.6 490.14,-235.09 490.82,-242.06"/>
</g>
<!-- Node5 -->
<g id="node5" class="node">
<title>Node5</title>
<g id="a_node5"><a xlink:title=" ">
<polygon fill="white" stroke="#bfbfbf" points="438,-56.5 438,-75.5 494,-75.5 494,-56.5 438,-56.5"/>
<text text-anchor="middle" x="466" y="-63.5" font-family="Helvetica,sans-Serif" font-size="10.00">assert.h</text>
</a>
</g>
</g>
<!-- Node4&#45;&gt;Node5 -->
<g id="edge4" class="edge">
<title>Node4&#45;&gt;Node5</title>
<path fill="none" stroke="midnightblue" d="M530.68,-224.27C525.18,-204.04 510.39,-152.61 492,-112 487.72,-102.55 482.04,-92.51 477.08,-84.31"/>
<polygon fill="midnightblue" stroke="midnightblue" points="479.97,-82.33 471.71,-75.69 474.02,-86.03 479.97,-82.33"/>
</g>
<!-- Node6 -->
<g id="node6" class="node">
<title>Node6</title>
<g id="a_node6"><a xlink:href="DecBaseInst_8h.html" target="_top" xlink:title=" ">
<polygon fill="white" stroke="black" points="388,-168.5 388,-187.5 474,-187.5 474,-168.5 388,-168.5"/>
<text text-anchor="middle" x="431" y="-175.5" font-family="Helvetica,sans-Serif" font-size="10.00">DecBaseInst.h</text>
</a>
</g>
</g>
<!-- Node4&#45;&gt;Node6 -->
<g id="edge5" class="edge">
<title>Node4&#45;&gt;Node6</title>
<path fill="none" stroke="midnightblue" d="M516.61,-224.32C500.33,-215.7 475.13,-202.36 456.28,-192.39"/>
<polygon fill="midnightblue" stroke="midnightblue" points="457.82,-189.24 447.35,-187.65 454.55,-195.43 457.82,-189.24"/>
</g>
<!-- Node11 -->
<g id="node11" class="node">
<title>Node11</title>
<g id="a_node11"><a xlink:href="EntreeSortie_8h.html" target="_top" xlink:title=" ">
<polygon fill="white" stroke="black" points="599,-168.5 599,-187.5 685,-187.5 685,-168.5 599,-168.5"/>
<text text-anchor="middle" x="642" y="-175.5" font-family="Helvetica,sans-Serif" font-size="10.00">EntreeSortie.h</text>
</a>
</g>
</g>
<!-- Node4&#45;&gt;Node11 -->
<g id="edge11" class="edge">
<title>Node4&#45;&gt;Node11</title>
<path fill="none" stroke="midnightblue" d="M550.51,-224.32C568.07,-215.62 595.33,-202.12 615.53,-192.11"/>
<polygon fill="midnightblue" stroke="midnightblue" points="617.12,-195.23 624.53,-187.65 614.02,-188.96 617.12,-195.23"/>
</g>
<!-- Node16 -->
<g id="node16" class="node">
<title>Node16</title>
<g id="a_node16"><a xlink:href="Process_8h.html" target="_top" xlink:title=" ">
<polygon fill="white" stroke="black" points="512.5,-56.5 512.5,-75.5 575.5,-75.5 575.5,-56.5 512.5,-56.5"/>
<text text-anchor="middle" x="544" y="-63.5" font-family="Helvetica,sans-Serif" font-size="10.00">Process.h</text>
</a>
</g>
</g>
<!-- Node4&#45;&gt;Node16 -->
<g id="edge26" class="edge">
<title>Node4&#45;&gt;Node16</title>
<path fill="none" stroke="midnightblue" d="M536.6,-224.22C540.06,-215.28 545.03,-200.94 547,-188 552.45,-152.11 549.18,-109.57 546.48,-85.69"/>
<polygon fill="midnightblue" stroke="midnightblue" points="549.93,-85.07 545.23,-75.57 542.98,-85.93 549.93,-85.07"/>
</g>
<!-- Node7 -->
<g id="node7" class="node">
<title>Node7</title>
<g id="a_node7"><a xlink:href="Cast_8h.html" target="_top" xlink:title=" ">
<polygon fill="white" stroke="black" points="286.5,-56.5 286.5,-75.5 333.5,-75.5 333.5,-56.5 286.5,-56.5"/>
<text text-anchor="middle" x="310" y="-63.5" font-family="Helvetica,sans-Serif" font-size="10.00">Cast.h</text>
</a>
</g>
</g>
<!-- Node6&#45;&gt;Node7 -->
<g id="edge6" class="edge">
<title>Node6&#45;&gt;Node7</title>
<path fill="none" stroke="midnightblue" d="M444.51,-168.4C462.67,-155.79 491.01,-131.62 476,-112 460,-91.09 387.26,-77.63 343.55,-71.28"/>
<polygon fill="midnightblue" stroke="midnightblue" points="344.04,-67.82 333.65,-69.89 343.06,-74.75 344.04,-67.82"/>
</g>
<!-- Node8 -->
<g id="node8" class="node">
<title>Node8</title>
<g id="a_node8"><a xlink:href="Type__info_8h.html" target="_top" xlink:title=" ">
<polygon fill="white" stroke="black" points="395,-112.5 395,-131.5 467,-131.5 467,-112.5 395,-112.5"/>
<text text-anchor="middle" x="431" y="-119.5" font-family="Helvetica,sans-Serif" font-size="10.00">Type_info.h</text>
</a>
</g>
</g>
<!-- Node6&#45;&gt;Node8 -->
<g id="edge7" class="edge">
<title>Node6&#45;&gt;Node8</title>
<path fill="none" stroke="midnightblue" d="M431,-168.08C431,-161.01 431,-150.86 431,-141.99"/>
<polygon fill="midnightblue" stroke="midnightblue" points="434.5,-141.75 431,-131.75 427.5,-141.75 434.5,-141.75"/>
</g>
<!-- Node9 -->
<g id="node9" class="node">
<title>Node9</title>
<g id="a_node9"><a xlink:href="Declare__Base_8h.html" target="_top" xlink:title=" ">
<polygon fill="white" stroke="black" points="285,-112.5 285,-131.5 377,-131.5 377,-112.5 285,-112.5"/>
<text text-anchor="middle" x="331" y="-119.5" font-family="Helvetica,sans-Serif" font-size="10.00">Declare_Base.h</text>
</a>
</g>
</g>
<!-- Node6&#45;&gt;Node9 -->
<g id="edge8" class="edge">
<title>Node6&#45;&gt;Node9</title>
<path fill="none" stroke="midnightblue" d="M414.93,-168.32C399.04,-159.74 374.49,-146.49 356.04,-136.52"/>
<polygon fill="midnightblue" stroke="midnightblue" points="357.49,-133.33 347.03,-131.65 354.16,-139.49 357.49,-133.33"/>
</g>
<!-- Node10 -->
<g id="node10" class="node">
<title>Node10</title>
<g id="a_node10"><a xlink:href="Declare__Inst_8h.html" target="_top" xlink:title=" ">
<polygon fill="white" stroke="black" points="181,-112.5 181,-131.5 267,-131.5 267,-112.5 181,-112.5"/>
<text text-anchor="middle" x="224" y="-119.5" font-family="Helvetica,sans-Serif" font-size="10.00">Declare_Inst.h</text>
</a>
</g>
</g>
<!-- Node6&#45;&gt;Node10 -->
<g id="edge9" class="edge">
<title>Node6&#45;&gt;Node10</title>
<path fill="none" stroke="midnightblue" d="M398.2,-168.44C362.62,-159.16 305.69,-144.31 266.65,-134.13"/>
<polygon fill="midnightblue" stroke="midnightblue" points="267.21,-130.65 256.65,-131.52 265.44,-137.43 267.21,-130.65"/>
</g>
<!-- Node10&#45;&gt;Node7 -->
<g id="edge10" class="edge">
<title>Node10&#45;&gt;Node7</title>
<path fill="none" stroke="midnightblue" d="M237.82,-112.32C251.23,-103.9 271.82,-90.97 287.59,-81.07"/>
<polygon fill="midnightblue" stroke="midnightblue" points="289.61,-83.94 296.22,-75.65 285.89,-78.01 289.61,-83.94"/>
</g>
<!-- Node12 -->
<g id="node12" class="node">
<title>Node12</title>
<g id="a_node12"><a xlink:href="Entree_8h.html" target="_top" xlink:title=" ">
<polygon fill="white" stroke="black" points="599.5,-112.5 599.5,-131.5 656.5,-131.5 656.5,-112.5 599.5,-112.5"/>
<text text-anchor="middle" x="628" y="-119.5" font-family="Helvetica,sans-Serif" font-size="10.00">Entree.h</text>
</a>
</g>
</g>
<!-- Node11&#45;&gt;Node12 -->
<g id="edge12" class="edge">
<title>Node11&#45;&gt;Node12</title>
<path fill="none" stroke="midnightblue" d="M639.69,-168.08C637.83,-160.93 635.16,-150.64 632.85,-141.69"/>
<polygon fill="midnightblue" stroke="midnightblue" points="636.17,-140.55 630.27,-131.75 629.39,-142.31 636.17,-140.55"/>
</g>
<!-- Node19 -->
<g id="node19" class="node">
<title>Node19</title>
<g id="a_node19"><a xlink:href="Sortie_8h.html" target="_top" xlink:title=" ">
<polygon fill="white" stroke="black" points="675,-112.5 675,-131.5 729,-131.5 729,-112.5 675,-112.5"/>
<text text-anchor="middle" x="702" y="-119.5" font-family="Helvetica,sans-Serif" font-size="10.00">Sortie.h</text>
</a>
</g>
</g>
<!-- Node11&#45;&gt;Node19 -->
<g id="edge20" class="edge">
<title>Node11&#45;&gt;Node19</title>
<path fill="none" stroke="midnightblue" d="M651.64,-168.32C660.51,-160.34 673.87,-148.31 684.61,-138.65"/>
<polygon fill="midnightblue" stroke="midnightblue" points="687.09,-141.13 692.18,-131.83 682.41,-135.92 687.09,-141.13"/>
</g>
<!-- Node21 -->
<g id="node21" class="node">
<title>Node21</title>
<g id="a_node21"><a xlink:href="Separateur_8h.html" target="_top" xlink:title=" ">
<polygon fill="white" stroke="black" points="747,-112.5 747,-131.5 825,-131.5 825,-112.5 747,-112.5"/>
<text text-anchor="middle" x="786" y="-119.5" font-family="Helvetica,sans-Serif" font-size="10.00">Separateur.h</text>
</a>
</g>
</g>
<!-- Node11&#45;&gt;Node21 -->
<g id="edge25" class="edge">
<title>Node11&#45;&gt;Node21</title>
<path fill="none" stroke="midnightblue" d="M664.82,-168.44C688.83,-159.44 726.83,-145.19 753.87,-135.05"/>
<polygon fill="midnightblue" stroke="midnightblue" points="755.16,-138.3 763.29,-131.52 752.7,-131.75 755.16,-138.3"/>
</g>
<!-- Node12&#45;&gt;Node5 -->
<g id="edge16" class="edge">
<title>Node12&#45;&gt;Node5</title>
<path fill="none" stroke="midnightblue" d="M602.33,-112.44C575.08,-103.36 531.82,-88.94 501.35,-78.78"/>
<polygon fill="midnightblue" stroke="midnightblue" points="502.14,-75.36 491.55,-75.52 499.93,-82 502.14,-75.36"/>
</g>
<!-- Node13 -->
<g id="node13" class="node">
<title>Node13</title>
<g id="a_node13"><a xlink:title=" ">
<polygon fill="white" stroke="#bfbfbf" points="658,-56.5 658,-75.5 708,-75.5 708,-56.5 658,-56.5"/>
<text text-anchor="middle" x="683" y="-63.5" font-family="Helvetica,sans-Serif" font-size="10.00">stdio.h</text>
</a>
</g>
</g>
<!-- Node12&#45;&gt;Node13 -->
<g id="edge13" class="edge">
<title>Node12&#45;&gt;Node13</title>
<path fill="none" stroke="midnightblue" d="M637.08,-112.08C645.17,-104.14 657.2,-92.34 666.91,-82.8"/>
<polygon fill="midnightblue" stroke="midnightblue" points="669.4,-85.25 674.09,-75.75 664.5,-80.26 669.4,-85.25"/>
</g>
<!-- Node14 -->
<g id="node14" class="node">
<title>Node14</title>
<g id="a_node14"><a xlink:title=" ">
<polygon fill="white" stroke="#bfbfbf" points="594,-56.5 594,-75.5 640,-75.5 640,-56.5 594,-56.5"/>
<text text-anchor="middle" x="617" y="-63.5" font-family="Helvetica,sans-Serif" font-size="10.00">cstdio</text>
</a>
</g>
</g>
<!-- Node12&#45;&gt;Node14 -->
<g id="edge14" class="edge">
<title>Node12&#45;&gt;Node14</title>
<path fill="none" stroke="midnightblue" d="M626.18,-112.08C624.73,-104.93 622.63,-94.64 620.81,-85.69"/>
<polygon fill="midnightblue" stroke="midnightblue" points="624.21,-84.85 618.78,-75.75 617.35,-86.25 624.21,-84.85"/>
</g>
<!-- Node15 -->
<g id="node15" class="node">
<title>Node15</title>
<g id="a_node15"><a xlink:title=" ">
<polygon fill="white" stroke="#bfbfbf" points="788,-56.5 788,-75.5 848,-75.5 848,-56.5 788,-56.5"/>
<text text-anchor="middle" x="818" y="-63.5" font-family="Helvetica,sans-Serif" font-size="10.00">iostream</text>
</a>
</g>
</g>
<!-- Node12&#45;&gt;Node15 -->
<g id="edge15" class="edge">
<title>Node12&#45;&gt;Node15</title>
<path fill="none" stroke="midnightblue" d="M656.86,-112.8C689.21,-103.6 741.9,-88.63 778.16,-78.32"/>
<polygon fill="midnightblue" stroke="midnightblue" points="779.27,-81.65 787.93,-75.55 777.35,-74.91 779.27,-81.65"/>
</g>
<!-- Node12&#45;&gt;Node16 -->
<g id="edge17" class="edge">
<title>Node12&#45;&gt;Node16</title>
<path fill="none" stroke="midnightblue" d="M614.5,-112.32C601.4,-103.9 581.29,-90.97 565.89,-81.07"/>
<polygon fill="midnightblue" stroke="midnightblue" points="567.77,-78.12 557.46,-75.65 563.98,-84.01 567.77,-78.12"/>
</g>
<!-- Node17 -->
<g id="node17" class="node">
<title>Node17</title>
<g id="a_node17"><a xlink:href="arch_8h.html" target="_top" xlink:title=" ">
<polygon fill="white" stroke="black" points="866.5,-56.5 866.5,-75.5 913.5,-75.5 913.5,-56.5 866.5,-56.5"/>
<text text-anchor="middle" x="890" y="-63.5" font-family="Helvetica,sans-Serif" font-size="10.00">arch.h</text>
</a>
</g>
</g>
<!-- Node12&#45;&gt;Node17 -->
<g id="edge18" class="edge">
<title>Node12&#45;&gt;Node17</title>
<path fill="none" stroke="midnightblue" d="M656.6,-114.08C659.77,-113.35 662.95,-112.65 666,-112 747.44,-94.69 771.12,-95.31 856.41,-75.98"/>
<polygon fill="midnightblue" stroke="midnightblue" points="857.3,-79.36 866.26,-73.72 855.73,-72.54 857.3,-79.36"/>
</g>
<!-- Node18 -->
<g id="node18" class="node">
<title>Node18</title>
<g id="a_node18"><a xlink:href="generique_8h.html" target="_top" xlink:title=" ">
<polygon fill="white" stroke="black" points="853,-0.5 853,-19.5 927,-19.5 927,-0.5 853,-0.5"/>
<text text-anchor="middle" x="890" y="-7.5" font-family="Helvetica,sans-Serif" font-size="10.00">generique.h</text>
</a>
</g>
</g>
<!-- Node17&#45;&gt;Node18 -->
<g id="edge19" class="edge">
<title>Node17&#45;&gt;Node18</title>
<path fill="none" stroke="midnightblue" d="M890,-56.08C890,-49.01 890,-38.86 890,-29.99"/>
<polygon fill="midnightblue" stroke="midnightblue" points="893.5,-29.75 890,-19.75 886.5,-29.75 893.5,-29.75"/>
</g>
<!-- Node19&#45;&gt;Node5 -->
<g id="edge22" class="edge">
<title>Node19&#45;&gt;Node5</title>
<path fill="none" stroke="midnightblue" d="M674.89,-114.14C671.89,-113.41 668.88,-112.68 666,-112 594.22,-95.05 575.89,-92.5 504,-76 503.9,-75.98 503.8,-75.95 503.7,-75.93"/>
<polygon fill="midnightblue" stroke="midnightblue" points="504.74,-72.58 494.21,-73.73 503.16,-79.4 504.74,-72.58"/>
</g>
<!-- Node19&#45;&gt;Node15 -->
<g id="edge21" class="edge">
<title>Node19&#45;&gt;Node15</title>
<path fill="none" stroke="midnightblue" d="M720.38,-112.44C739.22,-103.68 768.73,-89.94 790.38,-79.86"/>
<polygon fill="midnightblue" stroke="midnightblue" points="792.12,-82.91 799.71,-75.52 789.16,-76.56 792.12,-82.91"/>
</g>
<!-- Node19&#45;&gt;Node17 -->
<g id="edge23" class="edge">
<title>Node19&#45;&gt;Node17</title>
<path fill="none" stroke="midnightblue" d="M729.34,-113.15C763.13,-103.44 820.6,-86.94 856.86,-76.52"/>
<polygon fill="midnightblue" stroke="midnightblue" points="857.85,-79.88 866.49,-73.75 855.91,-73.15 857.85,-79.88"/>
</g>
<!-- Node20 -->
<g id="node20" class="node">
<title>Node20</title>
<g id="a_node20"><a xlink:title=" ">
<polygon fill="white" stroke="#bfbfbf" points="726,-56.5 726,-75.5 770,-75.5 770,-56.5 726,-56.5"/>
<text text-anchor="middle" x="748" y="-63.5" font-family="Helvetica,sans-Serif" font-size="10.00">string</text>
</a>
</g>
</g>
<!-- Node19&#45;&gt;Node20 -->
<g id="edge24" class="edge">
<title>Node19&#45;&gt;Node20</title>
<path fill="none" stroke="midnightblue" d="M709.6,-112.08C716.23,-104.3 726.02,-92.8 734.06,-83.37"/>
<polygon fill="midnightblue" stroke="midnightblue" points="736.73,-85.63 740.55,-75.75 731.4,-81.09 736.73,-85.63"/>
</g>
<!-- Node23 -->
<g id="node23" class="node">
<title>Node23</title>
<g id="a_node23"><a xlink:href="TRUSTIterator_8h.html" target="_top" xlink:title=" ">
<polygon fill="white" stroke="black" points="843.5,-112.5 843.5,-131.5 936.5,-131.5 936.5,-112.5 843.5,-112.5"/>
<text text-anchor="middle" x="890" y="-119.5" font-family="Helvetica,sans-Serif" font-size="10.00">TRUSTIterator.h</text>
</a>
</g>
</g>
<!-- Node22&#45;&gt;Node23 -->
<g id="edge28" class="edge">
<title>Node22&#45;&gt;Node23</title>
<path fill="none" stroke="midnightblue" d="M729.44,-448.25C724.25,-429.74 713,-385.18 713,-347 713,-347 713,-347 713,-233 713,-175.22 781.89,-146.72 833.71,-133.46"/>
<polygon fill="midnightblue" stroke="midnightblue" points="834.61,-136.84 843.5,-131.08 832.95,-130.04 834.61,-136.84"/>
</g>
<!-- Node24 -->
<g id="node24" class="node">
<title>Node24</title>
<g id="a_node24"><a xlink:href="VTRUSTdata_8h.html" target="_top" xlink:title=" ">
<polygon fill="white" stroke="black" points="288,-392.5 288,-411.5 374,-411.5 374,-392.5 288,-392.5"/>
<text text-anchor="middle" x="331" y="-399.5" font-family="Helvetica,sans-Serif" font-size="10.00">VTRUSTdata.h</text>
</a>
</g>
</g>
<!-- Node22&#45;&gt;Node24 -->
<g id="edge31" class="edge">
<title>Node22&#45;&gt;Node24</title>
<path fill="none" stroke="midnightblue" d="M690.97,-451.47C617.85,-441.63 465.08,-421.06 384.08,-410.15"/>
<polygon fill="midnightblue" stroke="midnightblue" points="384.47,-406.67 374.09,-408.8 383.53,-413.61 384.47,-406.67"/>
</g>
<!-- Node25 -->
<g id="node25" class="node">
<title>Node25</title>
<g id="a_node25"><a xlink:href="Array__base_8h.html" target="_top" xlink:title=" ">
<polygon fill="white" stroke="black" points="493,-336.5 493,-355.5 573,-355.5 573,-336.5 493,-336.5"/>
<text text-anchor="middle" x="533" y="-343.5" font-family="Helvetica,sans-Serif" font-size="10.00">Array_base.h</text>
</a>
</g>
</g>
<!-- Node22&#45;&gt;Node25 -->
<g id="edge40" class="edge">
<title>Node22&#45;&gt;Node25</title>
<path fill="none" stroke="midnightblue" d="M716.38,-448.37C681.87,-429.29 598.89,-383.42 557.43,-360.51"/>
<polygon fill="midnightblue" stroke="midnightblue" points="558.99,-357.37 548.54,-355.59 555.6,-363.49 558.99,-357.37"/>
</g>
<!-- Node29 -->
<g id="node29" class="node">
<title>Node29</title>
<g id="a_node29"><a xlink:href="Double_8h.html" target="_top" xlink:title=" ">
<polygon fill="white" stroke="black" points="741,-280.5 741,-299.5 801,-299.5 801,-280.5 741,-280.5"/>
<text text-anchor="middle" x="771" y="-287.5" font-family="Helvetica,sans-Serif" font-size="10.00">Double.h</text>
</a>
</g>
</g>
<!-- Node22&#45;&gt;Node29 -->
<g id="edge41" class="edge">
<title>Node22&#45;&gt;Node29</title>
<path fill="none" stroke="midnightblue" d="M734.1,-448.08C740.24,-421.95 758.26,-345.21 766.64,-309.58"/>
<polygon fill="midnightblue" stroke="midnightblue" points="770.11,-310.1 768.99,-299.57 763.29,-308.5 770.11,-310.1"/>
</g>
<!-- Node32 -->
<g id="node32" class="node">
<title>Node32</title>
<g id="a_node32"><a xlink:title=" ">
<polygon fill="white" stroke="#bfbfbf" points="889,-392.5 889,-411.5 939,-411.5 939,-392.5 889,-392.5"/>
<text text-anchor="middle" x="914" y="-399.5" font-family="Helvetica,sans-Serif" font-size="10.00">climits</text>
</a>
</g>
</g>
<!-- Node22&#45;&gt;Node32 -->
<g id="edge46" class="edge">
<title>Node22&#45;&gt;Node32</title>
<path fill="none" stroke="midnightblue" d="M760.84,-448.44C792.95,-438.92 844.84,-423.52 879.19,-413.33"/>
<polygon fill="midnightblue" stroke="midnightblue" points="880.22,-416.67 888.81,-410.47 878.23,-409.96 880.22,-416.67"/>
</g>
<!-- Node33 -->
<g id="node33" class="node">
<title>Node33</title>
<g id="a_node33"><a xlink:href="TRUSTArray__tools_8tpp.html" target="_top" xlink:title=" ">
<polygon fill="white" stroke="black" points="957,-392.5 957,-411.5 1079,-411.5 1079,-392.5 957,-392.5"/>
<text text-anchor="middle" x="1018" y="-399.5" font-family="Helvetica,sans-Serif" font-size="10.00">TRUSTArray_tools.tpp</text>
</a>
</g>
</g>
<!-- Node22&#45;&gt;Node33 -->
<g id="edge47" class="edge">
<title>Node22&#45;&gt;Node33</title>
<path fill="none" stroke="midnightblue" d="M773.28,-449.21C823.23,-439.77 907.51,-423.86 962.95,-413.39"/>
<polygon fill="midnightblue" stroke="midnightblue" points="963.78,-416.8 972.96,-411.5 962.48,-409.92 963.78,-416.8"/>
</g>
<!-- Node34 -->
<g id="node34" class="node">
<title>Node34</title>
<g id="a_node34"><a xlink:href="TRUSTArray_8tpp.html" target="_top" xlink:title=" ">
<polygon fill="white" stroke="black" points="779,-392.5 779,-411.5 871,-411.5 871,-392.5 779,-392.5"/>
<text text-anchor="middle" x="825" y="-399.5" font-family="Helvetica,sans-Serif" font-size="10.00">TRUSTArray.tpp</text>
</a>
</g>
</g>
<!-- Node22&#45;&gt;Node34 -->
<g id="edge48" class="edge">
<title>Node22&#45;&gt;Node34</title>
<path fill="none" stroke="midnightblue" d="M746.94,-448.32C761.59,-439.82 784.13,-426.73 801.24,-416.8"/>
<polygon fill="midnightblue" stroke="midnightblue" points="803.2,-419.7 810.1,-411.65 799.69,-413.65 803.2,-419.7"/>
</g>
<!-- Node23&#45;&gt;Node15 -->
<g id="edge29" class="edge">
<title>Node23&#45;&gt;Node15</title>
<path fill="none" stroke="midnightblue" d="M878.43,-112.32C867.58,-104.18 851.12,-91.84 838.12,-82.09"/>
<polygon fill="midnightblue" stroke="midnightblue" points="839.88,-79.03 829.78,-75.83 835.68,-84.63 839.88,-79.03"/>
</g>
<!-- Node23&#45;&gt;Node17 -->
<g id="edge30" class="edge">
<title>Node23&#45;&gt;Node17</title>
<path fill="none" stroke="midnightblue" d="M890,-112.08C890,-105.01 890,-94.86 890,-85.99"/>
<polygon fill="midnightblue" stroke="midnightblue" points="893.5,-85.75 890,-75.75 886.5,-85.75 893.5,-85.75"/>
</g>
<!-- Node24&#45;&gt;Node5 -->
<g id="edge38" class="edge">
<title>Node24&#45;&gt;Node5</title>
<path fill="none" stroke="midnightblue" d="M318.16,-392.26C265.55,-355.42 73.1,-210.21 158,-112 175.43,-91.84 348.81,-76.04 427.5,-69.84"/>
<polygon fill="midnightblue" stroke="midnightblue" points="428.25,-73.29 437.95,-69.03 427.71,-66.31 428.25,-73.29"/>
</g>
<!-- Node24&#45;&gt;Node25 -->
<g id="edge32" class="edge">
<title>Node24&#45;&gt;Node25</title>
<path fill="none" stroke="midnightblue" d="M363.01,-392.44C397.73,-383.16 453.29,-368.31 491.38,-358.13"/>
<polygon fill="midnightblue" stroke="midnightblue" points="492.39,-361.48 501.14,-355.52 490.58,-354.72 492.39,-361.48"/>
</g>
<!-- Node26 -->
<g id="node26" class="node">
<title>Node26</title>
<g id="a_node26"><a xlink:href="Memoire_8h.html" target="_top" xlink:title=" ">
<polygon fill="white" stroke="black" points="296.5,-336.5 296.5,-355.5 365.5,-355.5 365.5,-336.5 296.5,-336.5"/>
<text text-anchor="middle" x="331" y="-343.5" font-family="Helvetica,sans-Serif" font-size="10.00">Memoire.h</text>
</a>
</g>
</g>
<!-- Node24&#45;&gt;Node26 -->
<g id="edge34" class="edge">
<title>Node24&#45;&gt;Node26</title>
<path fill="none" stroke="midnightblue" d="M331,-392.08C331,-385.01 331,-374.86 331,-365.99"/>
<polygon fill="midnightblue" stroke="midnightblue" points="334.5,-365.75 331,-355.75 327.5,-365.75 334.5,-365.75"/>
</g>
<!-- Node28 -->
<g id="node28" class="node">
<title>Node28</title>
<g id="a_node28"><a xlink:title=" ">
<polygon fill="white" stroke="#bfbfbf" points="178.5,-336.5 178.5,-355.5 235.5,-355.5 235.5,-336.5 178.5,-336.5"/>
<text text-anchor="middle" x="207" y="-343.5" font-family="Helvetica,sans-Serif" font-size="10.00">typeinfo</text>
</a>
</g>
</g>
<!-- Node24&#45;&gt;Node28 -->
<g id="edge39" class="edge">
<title>Node24&#45;&gt;Node28</title>
<path fill="none" stroke="midnightblue" d="M311.35,-392.44C291.04,-383.6 259.1,-369.69 235.9,-359.59"/>
<polygon fill="midnightblue" stroke="midnightblue" points="237.12,-356.3 226.56,-355.52 234.33,-362.72 237.12,-356.3"/>
</g>
<!-- Node25&#45;&gt;Node4 -->
<g id="edge33" class="edge">
<title>Node25&#45;&gt;Node4</title>
<path fill="none" stroke="midnightblue" d="M533,-336.37C533,-318.62 533,-277.67 533,-253.6"/>
<polygon fill="midnightblue" stroke="midnightblue" points="536.5,-253.59 533,-243.59 529.5,-253.59 536.5,-253.59"/>
</g>
<!-- Node27 -->
<g id="node27" class="node">
<title>Node27</title>
<g id="a_node27"><a xlink:href="Memoire__ptr_8h.html" target="_top" xlink:title=" ">
<polygon fill="white" stroke="black" points="287.5,-280.5 287.5,-299.5 374.5,-299.5 374.5,-280.5 287.5,-280.5"/>
<text text-anchor="middle" x="331" y="-287.5" font-family="Helvetica,sans-Serif" font-size="10.00">Memoire_ptr.h</text>
</a>
</g>
</g>
<!-- Node26&#45;&gt;Node27 -->
<g id="edge35" class="edge">
<title>Node26&#45;&gt;Node27</title>
<path fill="none" stroke="midnightblue" d="M331,-336.08C331,-329.01 331,-318.86 331,-309.99"/>
<polygon fill="midnightblue" stroke="midnightblue" points="334.5,-309.75 331,-299.75 327.5,-309.75 334.5,-309.75"/>
</g>
<!-- Node27&#45;&gt;Node4 -->
<g id="edge36" class="edge">
<title>Node27&#45;&gt;Node4</title>
<path fill="none" stroke="midnightblue" d="M363.01,-280.44C397.73,-271.16 453.29,-256.31 491.38,-246.13"/>
<polygon fill="midnightblue" stroke="midnightblue" points="492.39,-249.48 501.14,-243.52 490.58,-242.72 492.39,-249.48"/>
</g>
<!-- Node27&#45;&gt;Node5 -->
<g id="edge37" class="edge">
<title>Node27&#45;&gt;Node5</title>
<path fill="none" stroke="midnightblue" d="M312.35,-280.47C259.37,-255.12 115.36,-177.97 172,-112 188.48,-92.8 352.11,-76.62 427.87,-70.09"/>
<polygon fill="midnightblue" stroke="midnightblue" points="428.29,-73.57 437.95,-69.23 427.69,-66.59 428.29,-73.57"/>
</g>
<!-- Node29&#45;&gt;Node4 -->
<g id="edge44" class="edge">
<title>Node29&#45;&gt;Node4</title>
<path fill="none" stroke="midnightblue" d="M740.86,-282.16C699.02,-272.67 623.15,-255.45 575.56,-244.66"/>
<polygon fill="midnightblue" stroke="midnightblue" points="576.09,-241.19 565.56,-242.39 574.54,-248.01 576.09,-241.19"/>
</g>
<!-- Node30 -->
<g id="node30" class="node">
<title>Node30</title>
<g id="a_node30"><a xlink:href="blas1_8h.html" target="_top" xlink:title=" ">
<polygon fill="white" stroke="black" points="903,-168.5 903,-187.5 955,-187.5 955,-168.5 903,-168.5"/>
<text text-anchor="middle" x="929" y="-175.5" font-family="Helvetica,sans-Serif" font-size="10.00">blas1.h</text>
</a>
</g>
</g>
<!-- Node29&#45;&gt;Node30 -->
<g id="edge42" class="edge">
<title>Node29&#45;&gt;Node30</title>
<path fill="none" stroke="midnightblue" d="M783.4,-280.37C810.4,-261.57 874.75,-216.77 908.12,-193.53"/>
<polygon fill="midnightblue" stroke="midnightblue" points="910.45,-196.18 916.66,-187.59 906.45,-190.43 910.45,-196.18"/>
</g>
<!-- Node31 -->
<g id="node31" class="node">
<title>Node31</title>
<g id="a_node31"><a xlink:title=" ">
<polygon fill="white" stroke="#bfbfbf" points="747.5,-224.5 747.5,-243.5 794.5,-243.5 794.5,-224.5 747.5,-224.5"/>
<text text-anchor="middle" x="771" y="-231.5" font-family="Helvetica,sans-Serif" font-size="10.00">cmath</text>
</a>
</g>
</g>
<!-- Node29&#45;&gt;Node31 -->
<g id="edge45" class="edge">
<title>Node29&#45;&gt;Node31</title>
<path fill="none" stroke="midnightblue" d="M771,-280.08C771,-273.01 771,-262.86 771,-253.99"/>
<polygon fill="midnightblue" stroke="midnightblue" points="774.5,-253.75 771,-243.75 767.5,-253.75 774.5,-253.75"/>
</g>
<!-- Node30&#45;&gt;Node17 -->
<g id="edge43" class="edge">
<title>Node30&#45;&gt;Node17</title>
<path fill="none" stroke="midnightblue" d="M935,-168.22C942.98,-155.38 955.07,-130.93 946,-112 939.75,-98.95 927.66,-88.49 916.32,-80.95"/>
<polygon fill="midnightblue" stroke="midnightblue" points="917.85,-77.79 907.5,-75.54 914.19,-83.75 917.85,-77.79"/>
</g>
<!-- Node35 -->
<g id="node35" class="node">
<title>Node35</title>
<g id="a_node35"><a xlink:title=" ">
<polygon fill="white" stroke="#bfbfbf" points="798.5,-336.5 798.5,-355.5 851.5,-355.5 851.5,-336.5 798.5,-336.5"/>
<text text-anchor="middle" x="825" y="-343.5" font-family="Helvetica,sans-Serif" font-size="10.00">string.h</text>
</a>
</g>
</g>
<!-- Node34&#45;&gt;Node35 -->
<g id="edge49" class="edge">
<title>Node34&#45;&gt;Node35</title>
<path fill="none" stroke="midnightblue" d="M825,-392.08C825,-385.01 825,-374.86 825,-365.99"/>
<polygon fill="midnightblue" stroke="midnightblue" points="828.5,-365.75 825,-355.75 821.5,-365.75 828.5,-365.75"/>
</g>
</g>
</svg>
