<?xml version="1.0" encoding="UTF-8" standalone="no"?>
<!DOCTYPE svg PUBLIC "-//W3C//DTD SVG 1.1//EN"
 "http://www.w3.org/Graphics/SVG/1.1/DTD/svg11.dtd">
<!-- Generated by graphviz version 2.43.0 (0)
 -->
<!-- Title: src/Kernel/Math/MD_Vector.cpp Pages: 1 -->
<svg width="793pt" height="655pt"
 viewBox="0.00 0.00 792.50 655.00" xmlns="http://www.w3.org/2000/svg" xmlns:xlink="http://www.w3.org/1999/xlink">
<g id="graph0" class="graph" transform="scale(1 1) rotate(0) translate(4 651)">
<title>src/Kernel/Math/MD_Vector.cpp</title>
<polygon fill="white" stroke="transparent" points="-4,4 -4,-651 788.5,-651 788.5,4 -4,4"/>
<!-- Node1 -->
<g id="node1" class="node">
<title>Node1</title>
<g id="a_node1"><a xlink:title=" ">
<polygon fill="#bfbfbf" stroke="black" points="590,-616.5 590,-646.5 702,-646.5 702,-616.5 590,-616.5"/>
<text text-anchor="start" x="598" y="-634.5" font-family="Helvetica,sans-Serif" font-size="10.00">src/Kernel/Math/MD</text>
<text text-anchor="middle" x="646" y="-623.5" font-family="Helvetica,sans-Serif" font-size="10.00">_Vector.cpp</text>
</a>
</g>
</g>
<!-- Node2 -->
<g id="node2" class="node">
<title>Node2</title>
<g id="a_node2"><a xlink:href="MD__Vector_8h.html" target="_top" xlink:title=" ">
<polygon fill="white" stroke="black" points="607.5,-560.5 607.5,-579.5 684.5,-579.5 684.5,-560.5 607.5,-560.5"/>
<text text-anchor="middle" x="646" y="-567.5" font-family="Helvetica,sans-Serif" font-size="10.00">MD_Vector.h</text>
</a>
</g>
</g>
<!-- Node1&#45;&gt;Node2 -->
<g id="edge1" class="edge">
<title>Node1&#45;&gt;Node2</title>
<path fill="none" stroke="midnightblue" d="M646,-616.4C646,-608.47 646,-598.46 646,-589.86"/>
<polygon fill="midnightblue" stroke="midnightblue" points="649.5,-589.66 646,-579.66 642.5,-589.66 649.5,-589.66"/>
</g>
<!-- Node26 -->
<g id="node26" class="node">
<title>Node26</title>
<g id="a_node26"><a xlink:href="MD__Vector__base_8h.html" target="_top" xlink:title=" ">
<polygon fill="white" stroke="black" points="444.5,-560.5 444.5,-579.5 551.5,-579.5 551.5,-560.5 444.5,-560.5"/>
<text text-anchor="middle" x="498" y="-567.5" font-family="Helvetica,sans-Serif" font-size="10.00">MD_Vector_base.h</text>
</a>
</g>
</g>
<!-- Node1&#45;&gt;Node26 -->
<g id="edge31" class="edge">
<title>Node1&#45;&gt;Node26</title>
<path fill="none" stroke="midnightblue" d="M610.93,-616.4C585.98,-606.37 552.79,-593.03 528.86,-583.4"/>
<polygon fill="midnightblue" stroke="midnightblue" points="530.12,-580.14 519.54,-579.66 527.51,-586.64 530.12,-580.14"/>
</g>
<!-- Node28 -->
<g id="node28" class="node">
<title>Node28</title>
<g id="a_node28"><a xlink:href="Memoire_8h.html" target="_top" xlink:title=" ">
<polygon fill="white" stroke="black" points="707.5,-448.5 707.5,-467.5 776.5,-467.5 776.5,-448.5 707.5,-448.5"/>
<text text-anchor="middle" x="742" y="-455.5" font-family="Helvetica,sans-Serif" font-size="10.00">Memoire.h</text>
</a>
</g>
</g>
<!-- Node1&#45;&gt;Node28 -->
<g id="edge34" class="edge">
<title>Node1&#45;&gt;Node28</title>
<path fill="none" stroke="midnightblue" d="M661.4,-616.4C671.42,-606.75 684.36,-593.33 694,-580 710.54,-557.12 713.5,-550.21 724,-524 730.12,-508.71 734.95,-490.61 738.06,-477.39"/>
<polygon fill="midnightblue" stroke="midnightblue" points="741.48,-478.14 740.25,-467.61 734.65,-476.6 741.48,-478.14"/>
</g>
<!-- Node3 -->
<g id="node3" class="node">
<title>Node3</title>
<g id="a_node3"><a xlink:href="Deriv__MD__Vector__base_8h.html" target="_top" xlink:title=" ">
<polygon fill="white" stroke="black" points="577,-504.5 577,-523.5 715,-523.5 715,-504.5 577,-504.5"/>
<text text-anchor="middle" x="646" y="-511.5" font-family="Helvetica,sans-Serif" font-size="10.00">Deriv_MD_Vector_base.h</text>
</a>
</g>
</g>
<!-- Node2&#45;&gt;Node3 -->
<g id="edge2" class="edge">
<title>Node2&#45;&gt;Node3</title>
<path fill="none" stroke="midnightblue" d="M646,-560.08C646,-553.01 646,-542.86 646,-533.99"/>
<polygon fill="midnightblue" stroke="midnightblue" points="649.5,-533.75 646,-523.75 642.5,-533.75 649.5,-533.75"/>
</g>
<!-- Node4 -->
<g id="node4" class="node">
<title>Node4</title>
<g id="a_node4"><a xlink:href="Deriv_8h.html" target="_top" xlink:title=" ">
<polygon fill="white" stroke="black" points="620.5,-448.5 620.5,-467.5 671.5,-467.5 671.5,-448.5 620.5,-448.5"/>
<text text-anchor="middle" x="646" y="-455.5" font-family="Helvetica,sans-Serif" font-size="10.00">Deriv.h</text>
</a>
</g>
</g>
<!-- Node3&#45;&gt;Node4 -->
<g id="edge3" class="edge">
<title>Node3&#45;&gt;Node4</title>
<path fill="none" stroke="midnightblue" d="M646,-504.08C646,-497.01 646,-486.86 646,-477.99"/>
<polygon fill="midnightblue" stroke="midnightblue" points="649.5,-477.75 646,-467.75 642.5,-477.75 649.5,-477.75"/>
</g>
<!-- Node5 -->
<g id="node5" class="node">
<title>Node5</title>
<g id="a_node5"><a xlink:href="MacDeriv_8h.html" target="_top" xlink:title=" ">
<polygon fill="white" stroke="black" points="610.5,-392.5 610.5,-411.5 681.5,-411.5 681.5,-392.5 610.5,-392.5"/>
<text text-anchor="middle" x="646" y="-399.5" font-family="Helvetica,sans-Serif" font-size="10.00">MacDeriv.h</text>
</a>
</g>
</g>
<!-- Node4&#45;&gt;Node5 -->
<g id="edge4" class="edge">
<title>Node4&#45;&gt;Node5</title>
<path fill="none" stroke="midnightblue" d="M646,-448.08C646,-441.01 646,-430.86 646,-421.99"/>
<polygon fill="midnightblue" stroke="midnightblue" points="649.5,-421.75 646,-411.75 642.5,-421.75 649.5,-421.75"/>
</g>
<!-- Node6 -->
<g id="node6" class="node">
<title>Node6</title>
<g id="a_node6"><a xlink:href="Deriv___8h.html" target="_top" xlink:title=" ">
<polygon fill="white" stroke="black" points="617.5,-336.5 617.5,-355.5 674.5,-355.5 674.5,-336.5 617.5,-336.5"/>
<text text-anchor="middle" x="646" y="-343.5" font-family="Helvetica,sans-Serif" font-size="10.00">Deriv_.h</text>
</a>
</g>
</g>
<!-- Node5&#45;&gt;Node6 -->
<g id="edge5" class="edge">
<title>Node5&#45;&gt;Node6</title>
<path fill="none" stroke="midnightblue" d="M646,-392.08C646,-385.01 646,-374.86 646,-365.99"/>
<polygon fill="midnightblue" stroke="midnightblue" points="649.5,-365.75 646,-355.75 642.5,-365.75 649.5,-365.75"/>
</g>
<!-- Node7 -->
<g id="node7" class="node">
<title>Node7</title>
<g id="a_node7"><a xlink:href="O__U__Ptr_8h.html" target="_top" xlink:title=" ">
<polygon fill="white" stroke="black" points="614,-280.5 614,-299.5 678,-299.5 678,-280.5 614,-280.5"/>
<text text-anchor="middle" x="646" y="-287.5" font-family="Helvetica,sans-Serif" font-size="10.00">O_U_Ptr.h</text>
</a>
</g>
</g>
<!-- Node6&#45;&gt;Node7 -->
<g id="edge6" class="edge">
<title>Node6&#45;&gt;Node7</title>
<path fill="none" stroke="midnightblue" d="M646,-336.08C646,-329.01 646,-318.86 646,-309.99"/>
<polygon fill="midnightblue" stroke="midnightblue" points="649.5,-309.75 646,-299.75 642.5,-309.75 649.5,-309.75"/>
</g>
<!-- Node8 -->
<g id="node8" class="node">
<title>Node8</title>
<g id="a_node8"><a xlink:href="Objet__U_8h.html" target="_top" xlink:title=" ">
<polygon fill="white" stroke="black" points="613.5,-224.5 613.5,-243.5 678.5,-243.5 678.5,-224.5 613.5,-224.5"/>
<text text-anchor="middle" x="646" y="-231.5" font-family="Helvetica,sans-Serif" font-size="10.00">Objet_U.h</text>
</a>
</g>
</g>
<!-- Node7&#45;&gt;Node8 -->
<g id="edge7" class="edge">
<title>Node7&#45;&gt;Node8</title>
<path fill="none" stroke="midnightblue" d="M646,-280.08C646,-273.01 646,-262.86 646,-253.99"/>
<polygon fill="midnightblue" stroke="midnightblue" points="649.5,-253.75 646,-243.75 642.5,-253.75 649.5,-253.75"/>
</g>
<!-- Node9 -->
<g id="node9" class="node">
<title>Node9</title>
<g id="a_node9"><a xlink:title=" ">
<polygon fill="white" stroke="#bfbfbf" points="705,-56.5 705,-75.5 761,-75.5 761,-56.5 705,-56.5"/>
<text text-anchor="middle" x="733" y="-63.5" font-family="Helvetica,sans-Serif" font-size="10.00">assert.h</text>
</a>
</g>
</g>
<!-- Node8&#45;&gt;Node9 -->
<g id="edge8" class="edge">
<title>Node8&#45;&gt;Node9</title>
<path fill="none" stroke="midnightblue" d="M650.68,-224.08C664.49,-197.72 705.29,-119.88 723.74,-84.66"/>
<polygon fill="midnightblue" stroke="midnightblue" points="726.97,-86.05 728.51,-75.57 720.77,-82.8 726.97,-86.05"/>
</g>
<!-- Node10 -->
<g id="node10" class="node">
<title>Node10</title>
<g id="a_node10"><a xlink:href="DecBaseInst_8h.html" target="_top" xlink:title=" ">
<polygon fill="white" stroke="black" points="200,-168.5 200,-187.5 286,-187.5 286,-168.5 200,-168.5"/>
<text text-anchor="middle" x="243" y="-175.5" font-family="Helvetica,sans-Serif" font-size="10.00">DecBaseInst.h</text>
</a>
</g>
</g>
<!-- Node8&#45;&gt;Node10 -->
<g id="edge9" class="edge">
<title>Node8&#45;&gt;Node10</title>
<path fill="none" stroke="midnightblue" d="M613.36,-228.63C543.86,-219.31 380.68,-197.45 296.03,-186.11"/>
<polygon fill="midnightblue" stroke="midnightblue" points="296.48,-182.64 286.11,-184.78 295.56,-189.57 296.48,-182.64"/>
</g>
<!-- Node15 -->
<g id="node15" class="node">
<title>Node15</title>
<g id="a_node15"><a xlink:href="EntreeSortie_8h.html" target="_top" xlink:title=" ">
<polygon fill="white" stroke="black" points="511,-168.5 511,-187.5 597,-187.5 597,-168.5 511,-168.5"/>
<text text-anchor="middle" x="554" y="-175.5" font-family="Helvetica,sans-Serif" font-size="10.00">EntreeSortie.h</text>
</a>
</g>
</g>
<!-- Node8&#45;&gt;Node15 -->
<g id="edge15" class="edge">
<title>Node8&#45;&gt;Node15</title>
<path fill="none" stroke="midnightblue" d="M631.22,-224.32C616.73,-215.82 594.43,-202.73 577.51,-192.8"/>
<polygon fill="midnightblue" stroke="midnightblue" points="579.14,-189.7 568.74,-187.65 575.6,-195.74 579.14,-189.7"/>
</g>
<!-- Node20 -->
<g id="node20" class="node">
<title>Node20</title>
<g id="a_node20"><a xlink:href="Process_8h.html" target="_top" xlink:title=" ">
<polygon fill="white" stroke="black" points="623.5,-56.5 623.5,-75.5 686.5,-75.5 686.5,-56.5 623.5,-56.5"/>
<text text-anchor="middle" x="655" y="-63.5" font-family="Helvetica,sans-Serif" font-size="10.00">Process.h</text>
</a>
</g>
</g>
<!-- Node8&#45;&gt;Node20 -->
<g id="edge30" class="edge">
<title>Node8&#45;&gt;Node20</title>
<path fill="none" stroke="midnightblue" d="M646.48,-224.08C647.9,-197.95 652.06,-121.21 653.99,-85.58"/>
<polygon fill="midnightblue" stroke="midnightblue" points="657.49,-85.74 654.54,-75.57 650.5,-85.36 657.49,-85.74"/>
</g>
<!-- Node11 -->
<g id="node11" class="node">
<title>Node11</title>
<g id="a_node11"><a xlink:href="Cast_8h.html" target="_top" xlink:title=" ">
<polygon fill="white" stroke="black" points="219.5,-56.5 219.5,-75.5 266.5,-75.5 266.5,-56.5 219.5,-56.5"/>
<text text-anchor="middle" x="243" y="-63.5" font-family="Helvetica,sans-Serif" font-size="10.00">Cast.h</text>
</a>
</g>
</g>
<!-- Node10&#45;&gt;Node11 -->
<g id="edge10" class="edge">
<title>Node10&#45;&gt;Node11</title>
<path fill="none" stroke="midnightblue" d="M258.81,-168.3C277.67,-156.68 305.45,-134.87 295,-112 289.22,-99.36 277.95,-88.91 267.37,-81.27"/>
<polygon fill="midnightblue" stroke="midnightblue" points="269.04,-78.18 258.78,-75.53 265.15,-84 269.04,-78.18"/>
</g>
<!-- Node12 -->
<g id="node12" class="node">
<title>Node12</title>
<g id="a_node12"><a xlink:href="Type__info_8h.html" target="_top" xlink:title=" ">
<polygon fill="white" stroke="black" points="0,-112.5 0,-131.5 72,-131.5 72,-112.5 0,-112.5"/>
<text text-anchor="middle" x="36" y="-119.5" font-family="Helvetica,sans-Serif" font-size="10.00">Type_info.h</text>
</a>
</g>
</g>
<!-- Node10&#45;&gt;Node12 -->
<g id="edge11" class="edge">
<title>Node10&#45;&gt;Node12</title>
<path fill="none" stroke="midnightblue" d="M210.2,-168.44C174.62,-159.16 117.69,-144.31 78.65,-134.13"/>
<polygon fill="midnightblue" stroke="midnightblue" points="79.21,-130.65 68.65,-131.52 77.44,-137.43 79.21,-130.65"/>
</g>
<!-- Node13 -->
<g id="node13" class="node">
<title>Node13</title>
<g id="a_node13"><a xlink:href="Declare__Base_8h.html" target="_top" xlink:title=" ">
<polygon fill="white" stroke="black" points="90,-112.5 90,-131.5 182,-131.5 182,-112.5 90,-112.5"/>
<text text-anchor="middle" x="136" y="-119.5" font-family="Helvetica,sans-Serif" font-size="10.00">Declare_Base.h</text>
</a>
</g>
</g>
<!-- Node10&#45;&gt;Node13 -->
<g id="edge12" class="edge">
<title>Node10&#45;&gt;Node13</title>
<path fill="none" stroke="midnightblue" d="M225.81,-168.32C208.65,-159.66 182.05,-146.24 162.25,-136.25"/>
<polygon fill="midnightblue" stroke="midnightblue" points="163.65,-133.04 153.15,-131.65 160.5,-139.28 163.65,-133.04"/>
</g>
<!-- Node14 -->
<g id="node14" class="node">
<title>Node14</title>
<g id="a_node14"><a xlink:href="Declare__Inst_8h.html" target="_top" xlink:title=" ">
<polygon fill="white" stroke="black" points="200,-112.5 200,-131.5 286,-131.5 286,-112.5 200,-112.5"/>
<text text-anchor="middle" x="243" y="-119.5" font-family="Helvetica,sans-Serif" font-size="10.00">Declare_Inst.h</text>
</a>
</g>
</g>
<!-- Node10&#45;&gt;Node14 -->
<g id="edge13" class="edge">
<title>Node10&#45;&gt;Node14</title>
<path fill="none" stroke="midnightblue" d="M243,-168.08C243,-161.01 243,-150.86 243,-141.99"/>
<polygon fill="midnightblue" stroke="midnightblue" points="246.5,-141.75 243,-131.75 239.5,-141.75 246.5,-141.75"/>
</g>
<!-- Node14&#45;&gt;Node11 -->
<g id="edge14" class="edge">
<title>Node14&#45;&gt;Node11</title>
<path fill="none" stroke="midnightblue" d="M243,-112.08C243,-105.01 243,-94.86 243,-85.99"/>
<polygon fill="midnightblue" stroke="midnightblue" points="246.5,-85.75 243,-75.75 239.5,-85.75 246.5,-85.75"/>
</g>
<!-- Node16 -->
<g id="node16" class="node">
<title>Node16</title>
<g id="a_node16"><a xlink:href="Entree_8h.html" target="_top" xlink:title=" ">
<polygon fill="white" stroke="black" points="411.5,-112.5 411.5,-131.5 468.5,-131.5 468.5,-112.5 411.5,-112.5"/>
<text text-anchor="middle" x="440" y="-119.5" font-family="Helvetica,sans-Serif" font-size="10.00">Entree.h</text>
</a>
</g>
</g>
<!-- Node15&#45;&gt;Node16 -->
<g id="edge16" class="edge">
<title>Node15&#45;&gt;Node16</title>
<path fill="none" stroke="midnightblue" d="M535.94,-168.44C517.43,-159.68 488.42,-145.94 467.14,-135.86"/>
<polygon fill="midnightblue" stroke="midnightblue" points="468.51,-132.63 457.98,-131.52 465.52,-138.96 468.51,-132.63"/>
</g>
<!-- Node23 -->
<g id="node23" class="node">
<title>Node23</title>
<g id="a_node23"><a xlink:href="Sortie_8h.html" target="_top" xlink:title=" ">
<polygon fill="white" stroke="black" points="487,-112.5 487,-131.5 541,-131.5 541,-112.5 487,-112.5"/>
<text text-anchor="middle" x="514" y="-119.5" font-family="Helvetica,sans-Serif" font-size="10.00">Sortie.h</text>
</a>
</g>
</g>
<!-- Node15&#45;&gt;Node23 -->
<g id="edge24" class="edge">
<title>Node15&#45;&gt;Node23</title>
<path fill="none" stroke="midnightblue" d="M547.39,-168.08C541.74,-160.46 533.46,-149.26 526.55,-139.94"/>
<polygon fill="midnightblue" stroke="midnightblue" points="529.25,-137.7 520.48,-131.75 523.62,-141.87 529.25,-137.7"/>
</g>
<!-- Node25 -->
<g id="node25" class="node">
<title>Node25</title>
<g id="a_node25"><a xlink:href="Separateur_8h.html" target="_top" xlink:title=" ">
<polygon fill="white" stroke="black" points="559,-112.5 559,-131.5 637,-131.5 637,-112.5 559,-112.5"/>
<text text-anchor="middle" x="598" y="-119.5" font-family="Helvetica,sans-Serif" font-size="10.00">Separateur.h</text>
</a>
</g>
</g>
<!-- Node15&#45;&gt;Node25 -->
<g id="edge29" class="edge">
<title>Node15&#45;&gt;Node25</title>
<path fill="none" stroke="midnightblue" d="M561.27,-168.08C567.54,-160.38 576.79,-149.03 584.43,-139.65"/>
<polygon fill="midnightblue" stroke="midnightblue" points="587.27,-141.71 590.87,-131.75 581.84,-137.29 587.27,-141.71"/>
</g>
<!-- Node16&#45;&gt;Node9 -->
<g id="edge20" class="edge">
<title>Node16&#45;&gt;Node9</title>
<path fill="none" stroke="midnightblue" d="M468.59,-114.01C471.76,-113.3 474.94,-112.61 478,-112 571.18,-93.3 598.06,-95.45 694.86,-76.1"/>
<polygon fill="midnightblue" stroke="midnightblue" points="695.66,-79.51 704.77,-74.1 694.27,-72.65 695.66,-79.51"/>
</g>
<!-- Node17 -->
<g id="node17" class="node">
<title>Node17</title>
<g id="a_node17"><a xlink:title=" ">
<polygon fill="white" stroke="#bfbfbf" points="285,-56.5 285,-75.5 335,-75.5 335,-56.5 285,-56.5"/>
<text text-anchor="middle" x="310" y="-63.5" font-family="Helvetica,sans-Serif" font-size="10.00">stdio.h</text>
</a>
</g>
</g>
<!-- Node16&#45;&gt;Node17 -->
<g id="edge17" class="edge">
<title>Node16&#45;&gt;Node17</title>
<path fill="none" stroke="midnightblue" d="M419.4,-112.44C398.01,-103.56 364.32,-89.56 339.98,-79.45"/>
<polygon fill="midnightblue" stroke="midnightblue" points="341.08,-76.12 330.5,-75.52 338.39,-82.58 341.08,-76.12"/>
</g>
<!-- Node18 -->
<g id="node18" class="node">
<title>Node18</title>
<g id="a_node18"><a xlink:title=" ">
<polygon fill="white" stroke="#bfbfbf" points="353,-56.5 353,-75.5 399,-75.5 399,-56.5 353,-56.5"/>
<text text-anchor="middle" x="376" y="-63.5" font-family="Helvetica,sans-Serif" font-size="10.00">cstdio</text>
</a>
</g>
</g>
<!-- Node16&#45;&gt;Node18 -->
<g id="edge18" class="edge">
<title>Node16&#45;&gt;Node18</title>
<path fill="none" stroke="midnightblue" d="M429.72,-112.32C420.16,-104.26 405.72,-92.08 394.22,-82.37"/>
<polygon fill="midnightblue" stroke="midnightblue" points="396.37,-79.61 386.47,-75.83 391.86,-84.96 396.37,-79.61"/>
</g>
<!-- Node19 -->
<g id="node19" class="node">
<title>Node19</title>
<g id="a_node19"><a xlink:title=" ">
<polygon fill="white" stroke="#bfbfbf" points="483,-56.5 483,-75.5 543,-75.5 543,-56.5 483,-56.5"/>
<text text-anchor="middle" x="513" y="-63.5" font-family="Helvetica,sans-Serif" font-size="10.00">iostream</text>
</a>
</g>
</g>
<!-- Node16&#45;&gt;Node19 -->
<g id="edge19" class="edge">
<title>Node16&#45;&gt;Node19</title>
<path fill="none" stroke="midnightblue" d="M451.73,-112.32C462.84,-104.11 479.74,-91.6 492.98,-81.81"/>
<polygon fill="midnightblue" stroke="midnightblue" points="495.1,-84.59 501.06,-75.83 490.94,-78.97 495.1,-84.59"/>
</g>
<!-- Node16&#45;&gt;Node20 -->
<g id="edge21" class="edge">
<title>Node16&#45;&gt;Node20</title>
<path fill="none" stroke="midnightblue" d="M468.55,-113.83C505.67,-104.51 570.77,-88.15 613.39,-77.45"/>
<polygon fill="midnightblue" stroke="midnightblue" points="614.33,-80.82 623.18,-74.99 612.63,-74.03 614.33,-80.82"/>
</g>
<!-- Node21 -->
<g id="node21" class="node">
<title>Node21</title>
<g id="a_node21"><a xlink:href="arch_8h.html" target="_top" xlink:title=" ">
<polygon fill="white" stroke="black" points="417.5,-56.5 417.5,-75.5 464.5,-75.5 464.5,-56.5 417.5,-56.5"/>
<text text-anchor="middle" x="441" y="-63.5" font-family="Helvetica,sans-Serif" font-size="10.00">arch.h</text>
</a>
</g>
</g>
<!-- Node16&#45;&gt;Node21 -->
<g id="edge22" class="edge">
<title>Node16&#45;&gt;Node21</title>
<path fill="none" stroke="midnightblue" d="M440.17,-112.08C440.3,-105.01 440.48,-94.86 440.65,-85.99"/>
<polygon fill="midnightblue" stroke="midnightblue" points="444.15,-85.81 440.84,-75.75 437.15,-85.68 444.15,-85.81"/>
</g>
<!-- Node22 -->
<g id="node22" class="node">
<title>Node22</title>
<g id="a_node22"><a xlink:href="generique_8h.html" target="_top" xlink:title=" ">
<polygon fill="white" stroke="black" points="404,-0.5 404,-19.5 478,-19.5 478,-0.5 404,-0.5"/>
<text text-anchor="middle" x="441" y="-7.5" font-family="Helvetica,sans-Serif" font-size="10.00">generique.h</text>
</a>
</g>
</g>
<!-- Node21&#45;&gt;Node22 -->
<g id="edge23" class="edge">
<title>Node21&#45;&gt;Node22</title>
<path fill="none" stroke="midnightblue" d="M441,-56.08C441,-49.01 441,-38.86 441,-29.99"/>
<polygon fill="midnightblue" stroke="midnightblue" points="444.5,-29.75 441,-19.75 437.5,-29.75 444.5,-29.75"/>
</g>
<!-- Node23&#45;&gt;Node9 -->
<g id="edge26" class="edge">
<title>Node23&#45;&gt;Node9</title>
<path fill="none" stroke="midnightblue" d="M541.12,-114.21C544.12,-113.46 547.12,-112.71 550,-112 600.07,-99.58 657.89,-85.39 694.91,-76.32"/>
<polygon fill="midnightblue" stroke="midnightblue" points="695.9,-79.68 704.78,-73.9 694.23,-72.88 695.9,-79.68"/>
</g>
<!-- Node23&#45;&gt;Node19 -->
<g id="edge25" class="edge">
<title>Node23&#45;&gt;Node19</title>
<path fill="none" stroke="midnightblue" d="M513.83,-112.08C513.7,-105.01 513.52,-94.86 513.35,-85.99"/>
<polygon fill="midnightblue" stroke="midnightblue" points="516.85,-85.68 513.16,-75.75 509.85,-85.81 516.85,-85.68"/>
</g>
<!-- Node23&#45;&gt;Node21 -->
<g id="edge27" class="edge">
<title>Node23&#45;&gt;Node21</title>
<path fill="none" stroke="midnightblue" d="M502.27,-112.32C491.16,-104.11 474.26,-91.6 461.02,-81.81"/>
<polygon fill="midnightblue" stroke="midnightblue" points="463.06,-78.97 452.94,-75.83 458.9,-84.59 463.06,-78.97"/>
</g>
<!-- Node24 -->
<g id="node24" class="node">
<title>Node24</title>
<g id="a_node24"><a xlink:title=" ">
<polygon fill="white" stroke="#bfbfbf" points="561,-56.5 561,-75.5 605,-75.5 605,-56.5 561,-56.5"/>
<text text-anchor="middle" x="583" y="-63.5" font-family="Helvetica,sans-Serif" font-size="10.00">string</text>
</a>
</g>
</g>
<!-- Node23&#45;&gt;Node24 -->
<g id="edge28" class="edge">
<title>Node23&#45;&gt;Node24</title>
<path fill="none" stroke="midnightblue" d="M525.09,-112.32C535.49,-104.18 551.26,-91.84 563.72,-82.09"/>
<polygon fill="midnightblue" stroke="midnightblue" points="565.99,-84.75 571.71,-75.83 561.68,-79.24 565.99,-84.75"/>
</g>
<!-- Node26&#45;&gt;Node8 -->
<g id="edge33" class="edge">
<title>Node26&#45;&gt;Node8</title>
<path fill="none" stroke="midnightblue" d="M477.01,-560.42C461.33,-552.99 440.54,-540.78 428,-524 409.98,-499.89 409,-489.1 409,-459 409,-459 409,-459 409,-345 409,-260.43 534.69,-240.7 603,-236.22"/>
<polygon fill="midnightblue" stroke="midnightblue" points="603.26,-239.71 613.05,-235.64 602.86,-232.72 603.26,-239.71"/>
</g>
<!-- Node27 -->
<g id="node27" class="node">
<title>Node27</title>
<g id="a_node27"><a xlink:href="TRUSTTabs__forward_8h.html" target="_top" xlink:title=" ">
<polygon fill="white" stroke="black" points="437,-504.5 437,-523.5 559,-523.5 559,-504.5 437,-504.5"/>
<text text-anchor="middle" x="498" y="-511.5" font-family="Helvetica,sans-Serif" font-size="10.00">TRUSTTabs_forward.h</text>
</a>
</g>
</g>
<!-- Node26&#45;&gt;Node27 -->
<g id="edge32" class="edge">
<title>Node26&#45;&gt;Node27</title>
<path fill="none" stroke="midnightblue" d="M498,-560.08C498,-553.01 498,-542.86 498,-533.99"/>
<polygon fill="midnightblue" stroke="midnightblue" points="501.5,-533.75 498,-523.75 494.5,-533.75 501.5,-533.75"/>
</g>
<!-- Node29 -->
<g id="node29" class="node">
<title>Node29</title>
<g id="a_node29"><a xlink:href="Memoire__ptr_8h.html" target="_top" xlink:title=" ">
<polygon fill="white" stroke="black" points="697.5,-280.5 697.5,-299.5 784.5,-299.5 784.5,-280.5 697.5,-280.5"/>
<text text-anchor="middle" x="741" y="-287.5" font-family="Helvetica,sans-Serif" font-size="10.00">Memoire_ptr.h</text>
</a>
</g>
</g>
<!-- Node28&#45;&gt;Node29 -->
<g id="edge35" class="edge">
<title>Node28&#45;&gt;Node29</title>
<path fill="none" stroke="midnightblue" d="M741.95,-448.08C741.79,-421.95 741.33,-345.21 741.11,-309.58"/>
<polygon fill="midnightblue" stroke="midnightblue" points="744.61,-309.55 741.05,-299.57 737.61,-309.59 744.61,-309.55"/>
</g>
<!-- Node29&#45;&gt;Node8 -->
<g id="edge36" class="edge">
<title>Node29&#45;&gt;Node8</title>
<path fill="none" stroke="midnightblue" d="M725.74,-280.32C710.78,-271.82 687.75,-258.73 670.27,-248.8"/>
<polygon fill="midnightblue" stroke="midnightblue" points="671.65,-245.55 661.23,-243.65 668.19,-251.64 671.65,-245.55"/>
</g>
<!-- Node29&#45;&gt;Node9 -->
<g id="edge37" class="edge">
<title>Node29&#45;&gt;Node9</title>
<path fill="none" stroke="midnightblue" d="M740.69,-280.3C739.51,-247.63 735.34,-131.87 733.68,-85.96"/>
<polygon fill="midnightblue" stroke="midnightblue" points="737.18,-85.75 733.32,-75.88 730.18,-86 737.18,-85.75"/>
</g>
</g>
</svg>
