<?xml version="1.0" encoding="UTF-8" standalone="no"?>
<!DOCTYPE svg PUBLIC "-//W3C//DTD SVG 1.1//EN"
 "http://www.w3.org/Graphics/SVG/1.1/DTD/svg11.dtd">
<!-- Generated by graphviz version 2.43.0 (0)
 -->
<!-- Title: src/Kernel/Math/MD_Vector_base2.cpp Pages: 1 -->
<svg width="1056pt" height="1103pt"
 viewBox="0.00 0.00 1056.00 1103.00" xmlns="http://www.w3.org/2000/svg" xmlns:xlink="http://www.w3.org/1999/xlink">
<g id="graph0" class="graph" transform="scale(1 1) rotate(0) translate(4 1099)">
<title>src/Kernel/Math/MD_Vector_base2.cpp</title>
<polygon fill="white" stroke="transparent" points="-4,4 -4,-1099 1052,-1099 1052,4 -4,4"/>
<!-- Node1 -->
<g id="node1" class="node">
<title>Node1</title>
<g id="a_node1"><a xlink:title=" ">
<polygon fill="#bfbfbf" stroke="black" points="456,-1064.5 456,-1094.5 568,-1094.5 568,-1064.5 456,-1064.5"/>
<text text-anchor="start" x="464" y="-1082.5" font-family="Helvetica,sans-Serif" font-size="10.00">src/Kernel/Math/MD</text>
<text text-anchor="middle" x="512" y="-1071.5" font-family="Helvetica,sans-Serif" font-size="10.00">_Vector_base2.cpp</text>
</a>
</g>
</g>
<!-- Node2 -->
<g id="node2" class="node">
<title>Node2</title>
<g id="a_node2"><a xlink:href="MD__Vector__base2_8h.html" target="_top" xlink:title=" ">
<polygon fill="white" stroke="black" points="404.5,-1008.5 404.5,-1027.5 517.5,-1027.5 517.5,-1008.5 404.5,-1008.5"/>
<text text-anchor="middle" x="461" y="-1015.5" font-family="Helvetica,sans-Serif" font-size="10.00">MD_Vector_base2.h</text>
</a>
</g>
</g>
<!-- Node1&#45;&gt;Node2 -->
<g id="edge1" class="edge">
<title>Node1&#45;&gt;Node2</title>
<path fill="none" stroke="midnightblue" d="M499.91,-1064.4C492.43,-1055.66 482.78,-1044.41 474.97,-1035.3"/>
<polygon fill="midnightblue" stroke="midnightblue" points="477.59,-1032.97 468.42,-1027.66 472.27,-1037.53 477.59,-1032.97"/>
</g>
<!-- Node37 -->
<g id="node37" class="node">
<title>Node37</title>
<g id="a_node37"><a xlink:href="Param_8h.html" target="_top" xlink:title=" ">
<polygon fill="white" stroke="black" points="536,-1008.5 536,-1027.5 592,-1027.5 592,-1008.5 536,-1008.5"/>
<text text-anchor="middle" x="564" y="-1015.5" font-family="Helvetica,sans-Serif" font-size="10.00">Param.h</text>
</a>
</g>
</g>
<!-- Node1&#45;&gt;Node37 -->
<g id="edge51" class="edge">
<title>Node1&#45;&gt;Node37</title>
<path fill="none" stroke="midnightblue" d="M524.32,-1064.4C531.96,-1055.66 541.79,-1044.41 549.76,-1035.3"/>
<polygon fill="midnightblue" stroke="midnightblue" points="552.49,-1037.49 556.43,-1027.66 547.22,-1032.88 552.49,-1037.49"/>
</g>
<!-- Node3 -->
<g id="node3" class="node">
<title>Node3</title>
<g id="a_node3"><a xlink:href="MD__Vector__base_8h.html" target="_top" xlink:title=" ">
<polygon fill="white" stroke="black" points="411.5,-952.5 411.5,-971.5 518.5,-971.5 518.5,-952.5 411.5,-952.5"/>
<text text-anchor="middle" x="465" y="-959.5" font-family="Helvetica,sans-Serif" font-size="10.00">MD_Vector_base.h</text>
</a>
</g>
</g>
<!-- Node2&#45;&gt;Node3 -->
<g id="edge2" class="edge">
<title>Node2&#45;&gt;Node3</title>
<path fill="none" stroke="midnightblue" d="M461.66,-1008.08C462.18,-1001.01 462.94,-990.86 463.59,-981.99"/>
<polygon fill="midnightblue" stroke="midnightblue" points="467.1,-981.98 464.35,-971.75 460.12,-981.47 467.1,-981.98"/>
</g>
<!-- Node23 -->
<g id="node23" class="node">
<title>Node23</title>
<g id="a_node23"><a xlink:href="TRUSTArray_8h.html" target="_top" xlink:title=" ">
<polygon fill="white" stroke="black" points="290,-448.5 290,-467.5 372,-467.5 372,-448.5 290,-448.5"/>
<text text-anchor="middle" x="331" y="-455.5" font-family="Helvetica,sans-Serif" font-size="10.00">TRUSTArray.h</text>
</a>
</g>
</g>
<!-- Node2&#45;&gt;Node23 -->
<g id="edge28" class="edge">
<title>Node2&#45;&gt;Node23</title>
<path fill="none" stroke="midnightblue" d="M442.88,-1008.3C413.09,-992.57 357,-956.41 357,-907 357,-907 357,-907 357,-569 357,-535.93 345.73,-498.73 338.03,-477.17"/>
<polygon fill="midnightblue" stroke="midnightblue" points="341.27,-475.83 334.51,-467.68 334.71,-478.27 341.27,-475.83"/>
</g>
<!-- Node4 -->
<g id="node4" class="node">
<title>Node4</title>
<g id="a_node4"><a xlink:href="TRUSTTabs__forward_8h.html" target="_top" xlink:title=" ">
<polygon fill="white" stroke="black" points="493,-896.5 493,-915.5 615,-915.5 615,-896.5 493,-896.5"/>
<text text-anchor="middle" x="554" y="-903.5" font-family="Helvetica,sans-Serif" font-size="10.00">TRUSTTabs_forward.h</text>
</a>
</g>
</g>
<!-- Node3&#45;&gt;Node4 -->
<g id="edge3" class="edge">
<title>Node3&#45;&gt;Node4</title>
<path fill="none" stroke="midnightblue" d="M479.3,-952.32C493.18,-943.9 514.49,-930.97 530.8,-921.07"/>
<polygon fill="midnightblue" stroke="midnightblue" points="533,-923.83 539.74,-915.65 529.37,-917.85 533,-923.83"/>
</g>
<!-- Node5 -->
<g id="node5" class="node">
<title>Node5</title>
<g id="a_node5"><a xlink:href="Objet__U_8h.html" target="_top" xlink:title=" ">
<polygon fill="white" stroke="black" points="578.5,-224.5 578.5,-243.5 643.5,-243.5 643.5,-224.5 578.5,-224.5"/>
<text text-anchor="middle" x="611" y="-231.5" font-family="Helvetica,sans-Serif" font-size="10.00">Objet_U.h</text>
</a>
</g>
</g>
<!-- Node3&#45;&gt;Node5 -->
<g id="edge4" class="edge">
<title>Node3&#45;&gt;Node5</title>
<path fill="none" stroke="midnightblue" d="M465,-952.44C465,-933.94 465,-888.81 465,-851 465,-851 465,-851 465,-345 465,-292.44 526.09,-261.85 569.24,-246.8"/>
<polygon fill="midnightblue" stroke="midnightblue" points="570.58,-250.05 578.96,-243.56 568.37,-243.4 570.58,-250.05"/>
</g>
<!-- Node6 -->
<g id="node6" class="node">
<title>Node6</title>
<g id="a_node6"><a xlink:title=" ">
<polygon fill="white" stroke="#bfbfbf" points="816,-56.5 816,-75.5 872,-75.5 872,-56.5 816,-56.5"/>
<text text-anchor="middle" x="844" y="-63.5" font-family="Helvetica,sans-Serif" font-size="10.00">assert.h</text>
</a>
</g>
</g>
<!-- Node5&#45;&gt;Node6 -->
<g id="edge5" class="edge">
<title>Node5&#45;&gt;Node6</title>
<path fill="none" stroke="midnightblue" d="M628.87,-224.38C660.96,-208.48 729.82,-172.43 781,-132 799.59,-117.32 818.13,-97.39 830.23,-83.49"/>
<polygon fill="midnightblue" stroke="midnightblue" points="833.04,-85.59 836.88,-75.71 827.72,-81.04 833.04,-85.59"/>
</g>
<!-- Node7 -->
<g id="node7" class="node">
<title>Node7</title>
<g id="a_node7"><a xlink:href="DecBaseInst_8h.html" target="_top" xlink:title=" ">
<polygon fill="white" stroke="black" points="301,-168.5 301,-187.5 387,-187.5 387,-168.5 301,-168.5"/>
<text text-anchor="middle" x="344" y="-175.5" font-family="Helvetica,sans-Serif" font-size="10.00">DecBaseInst.h</text>
</a>
</g>
</g>
<!-- Node5&#45;&gt;Node7 -->
<g id="edge6" class="edge">
<title>Node5&#45;&gt;Node7</title>
<path fill="none" stroke="midnightblue" d="M578.26,-226.38C532.87,-217.2 450.31,-200.5 396.32,-189.58"/>
<polygon fill="midnightblue" stroke="midnightblue" points="396.75,-186.1 386.25,-187.55 395.36,-192.96 396.75,-186.1"/>
</g>
<!-- Node12 -->
<g id="node12" class="node">
<title>Node12</title>
<g id="a_node12"><a xlink:href="EntreeSortie_8h.html" target="_top" xlink:title=" ">
<polygon fill="white" stroke="black" points="586,-168.5 586,-187.5 672,-187.5 672,-168.5 586,-168.5"/>
<text text-anchor="middle" x="629" y="-175.5" font-family="Helvetica,sans-Serif" font-size="10.00">EntreeSortie.h</text>
</a>
</g>
</g>
<!-- Node5&#45;&gt;Node12 -->
<g id="edge12" class="edge">
<title>Node5&#45;&gt;Node12</title>
<path fill="none" stroke="midnightblue" d="M613.97,-224.08C616.38,-216.85 619.86,-206.41 622.87,-197.4"/>
<polygon fill="midnightblue" stroke="midnightblue" points="626.24,-198.34 626.08,-187.75 619.6,-196.13 626.24,-198.34"/>
</g>
<!-- Node17 -->
<g id="node17" class="node">
<title>Node17</title>
<g id="a_node17"><a xlink:href="Process_8h.html" target="_top" xlink:title=" ">
<polygon fill="white" stroke="black" points="462.5,-56.5 462.5,-75.5 525.5,-75.5 525.5,-56.5 462.5,-56.5"/>
<text text-anchor="middle" x="494" y="-63.5" font-family="Helvetica,sans-Serif" font-size="10.00">Process.h</text>
</a>
</g>
</g>
<!-- Node5&#45;&gt;Node17 -->
<g id="edge27" class="edge">
<title>Node5&#45;&gt;Node17</title>
<path fill="none" stroke="midnightblue" d="M604.38,-224.45C597.46,-215.45 586.32,-200.84 577,-188 550.57,-151.58 521.09,-107.8 505.36,-84.17"/>
<polygon fill="midnightblue" stroke="midnightblue" points="508.13,-82.01 499.68,-75.62 502.3,-85.88 508.13,-82.01"/>
</g>
<!-- Node8 -->
<g id="node8" class="node">
<title>Node8</title>
<g id="a_node8"><a xlink:href="Cast_8h.html" target="_top" xlink:title=" ">
<polygon fill="white" stroke="black" points="108.5,-56.5 108.5,-75.5 155.5,-75.5 155.5,-56.5 108.5,-56.5"/>
<text text-anchor="middle" x="132" y="-63.5" font-family="Helvetica,sans-Serif" font-size="10.00">Cast.h</text>
</a>
</g>
</g>
<!-- Node7&#45;&gt;Node8 -->
<g id="edge7" class="edge">
<title>Node7&#45;&gt;Node8</title>
<path fill="none" stroke="midnightblue" d="M300.86,-171.6C267.63,-165.87 221.65,-154.4 187,-132 168.06,-119.76 152.16,-99.02 142.4,-84.26"/>
<polygon fill="midnightblue" stroke="midnightblue" points="145.21,-82.15 136.91,-75.57 139.3,-85.9 145.21,-82.15"/>
</g>
<!-- Node9 -->
<g id="node9" class="node">
<title>Node9</title>
<g id="a_node9"><a xlink:href="Type__info_8h.html" target="_top" xlink:title=" ">
<polygon fill="white" stroke="black" points="308,-112.5 308,-131.5 380,-131.5 380,-112.5 308,-112.5"/>
<text text-anchor="middle" x="344" y="-119.5" font-family="Helvetica,sans-Serif" font-size="10.00">Type_info.h</text>
</a>
</g>
</g>
<!-- Node7&#45;&gt;Node9 -->
<g id="edge8" class="edge">
<title>Node7&#45;&gt;Node9</title>
<path fill="none" stroke="midnightblue" d="M344,-168.08C344,-161.01 344,-150.86 344,-141.99"/>
<polygon fill="midnightblue" stroke="midnightblue" points="347.5,-141.75 344,-131.75 340.5,-141.75 347.5,-141.75"/>
</g>
<!-- Node10 -->
<g id="node10" class="node">
<title>Node10</title>
<g id="a_node10"><a xlink:href="Declare__Base_8h.html" target="_top" xlink:title=" ">
<polygon fill="white" stroke="black" points="398,-112.5 398,-131.5 490,-131.5 490,-112.5 398,-112.5"/>
<text text-anchor="middle" x="444" y="-119.5" font-family="Helvetica,sans-Serif" font-size="10.00">Declare_Base.h</text>
</a>
</g>
</g>
<!-- Node7&#45;&gt;Node10 -->
<g id="edge9" class="edge">
<title>Node7&#45;&gt;Node10</title>
<path fill="none" stroke="midnightblue" d="M360.07,-168.32C375.96,-159.74 400.51,-146.49 418.96,-136.52"/>
<polygon fill="midnightblue" stroke="midnightblue" points="420.84,-139.49 427.97,-131.65 417.51,-133.33 420.84,-139.49"/>
</g>
<!-- Node11 -->
<g id="node11" class="node">
<title>Node11</title>
<g id="a_node11"><a xlink:href="Declare__Inst_8h.html" target="_top" xlink:title=" ">
<polygon fill="white" stroke="black" points="54,-112.5 54,-131.5 140,-131.5 140,-112.5 54,-112.5"/>
<text text-anchor="middle" x="97" y="-119.5" font-family="Helvetica,sans-Serif" font-size="10.00">Declare_Inst.h</text>
</a>
</g>
</g>
<!-- Node7&#45;&gt;Node11 -->
<g id="edge10" class="edge">
<title>Node7&#45;&gt;Node11</title>
<path fill="none" stroke="midnightblue" d="M304.86,-168.44C261.77,-159.02 192.44,-143.87 145.83,-133.68"/>
<polygon fill="midnightblue" stroke="midnightblue" points="146.47,-130.23 135.95,-131.52 144.98,-137.07 146.47,-130.23"/>
</g>
<!-- Node11&#45;&gt;Node8 -->
<g id="edge11" class="edge">
<title>Node11&#45;&gt;Node8</title>
<path fill="none" stroke="midnightblue" d="M102.78,-112.08C107.67,-104.53 114.83,-93.49 120.83,-84.23"/>
<polygon fill="midnightblue" stroke="midnightblue" points="123.83,-86.05 126.33,-75.75 117.95,-82.24 123.83,-86.05"/>
</g>
<!-- Node13 -->
<g id="node13" class="node">
<title>Node13</title>
<g id="a_node13"><a xlink:href="Entree_8h.html" target="_top" xlink:title=" ">
<polygon fill="white" stroke="black" points="546.5,-112.5 546.5,-131.5 603.5,-131.5 603.5,-112.5 546.5,-112.5"/>
<text text-anchor="middle" x="575" y="-119.5" font-family="Helvetica,sans-Serif" font-size="10.00">Entree.h</text>
</a>
</g>
</g>
<!-- Node12&#45;&gt;Node13 -->
<g id="edge13" class="edge">
<title>Node12&#45;&gt;Node13</title>
<path fill="none" stroke="midnightblue" d="M620.08,-168.08C612.22,-160.22 600.57,-148.57 591.08,-139.08"/>
<polygon fill="midnightblue" stroke="midnightblue" points="593.3,-136.35 583.75,-131.75 588.35,-141.3 593.3,-136.35"/>
</g>
<!-- Node20 -->
<g id="node20" class="node">
<title>Node20</title>
<g id="a_node20"><a xlink:href="Sortie_8h.html" target="_top" xlink:title=" ">
<polygon fill="white" stroke="black" points="622,-112.5 622,-131.5 676,-131.5 676,-112.5 622,-112.5"/>
<text text-anchor="middle" x="649" y="-119.5" font-family="Helvetica,sans-Serif" font-size="10.00">Sortie.h</text>
</a>
</g>
</g>
<!-- Node12&#45;&gt;Node20 -->
<g id="edge21" class="edge">
<title>Node12&#45;&gt;Node20</title>
<path fill="none" stroke="midnightblue" d="M632.3,-168.08C634.98,-160.85 638.85,-150.41 642.19,-141.4"/>
<polygon fill="midnightblue" stroke="midnightblue" points="645.57,-142.34 645.76,-131.75 639,-139.91 645.57,-142.34"/>
</g>
<!-- Node22 -->
<g id="node22" class="node">
<title>Node22</title>
<g id="a_node22"><a xlink:href="Separateur_8h.html" target="_top" xlink:title=" ">
<polygon fill="white" stroke="black" points="694,-112.5 694,-131.5 772,-131.5 772,-112.5 694,-112.5"/>
<text text-anchor="middle" x="733" y="-119.5" font-family="Helvetica,sans-Serif" font-size="10.00">Separateur.h</text>
</a>
</g>
</g>
<!-- Node12&#45;&gt;Node22 -->
<g id="edge26" class="edge">
<title>Node12&#45;&gt;Node22</title>
<path fill="none" stroke="midnightblue" d="M645.71,-168.32C662.31,-159.7 688,-146.36 707.22,-136.39"/>
<polygon fill="midnightblue" stroke="midnightblue" points="709.07,-139.37 716.33,-131.65 705.84,-133.16 709.07,-139.37"/>
</g>
<!-- Node13&#45;&gt;Node6 -->
<g id="edge17" class="edge">
<title>Node13&#45;&gt;Node6</title>
<path fill="none" stroke="midnightblue" d="M603.6,-114.07C606.77,-113.35 609.95,-112.64 613,-112 695.7,-94.54 719.55,-94.36 805.79,-76.16"/>
<polygon fill="midnightblue" stroke="midnightblue" points="806.7,-79.55 815.76,-74.04 805.25,-72.7 806.7,-79.55"/>
</g>
<!-- Node14 -->
<g id="node14" class="node">
<title>Node14</title>
<g id="a_node14"><a xlink:title=" ">
<polygon fill="white" stroke="#bfbfbf" points="544,-56.5 544,-75.5 594,-75.5 594,-56.5 544,-56.5"/>
<text text-anchor="middle" x="569" y="-63.5" font-family="Helvetica,sans-Serif" font-size="10.00">stdio.h</text>
</a>
</g>
</g>
<!-- Node13&#45;&gt;Node14 -->
<g id="edge14" class="edge">
<title>Node13&#45;&gt;Node14</title>
<path fill="none" stroke="midnightblue" d="M574.01,-112.08C573.21,-104.93 572.07,-94.64 571.08,-85.69"/>
<polygon fill="midnightblue" stroke="midnightblue" points="574.56,-85.3 569.97,-75.75 567.6,-86.08 574.56,-85.3"/>
</g>
<!-- Node15 -->
<g id="node15" class="node">
<title>Node15</title>
<g id="a_node15"><a xlink:title=" ">
<polygon fill="white" stroke="#bfbfbf" points="690,-56.5 690,-75.5 736,-75.5 736,-56.5 690,-56.5"/>
<text text-anchor="middle" x="713" y="-63.5" font-family="Helvetica,sans-Serif" font-size="10.00">cstdio</text>
</a>
</g>
</g>
<!-- Node13&#45;&gt;Node15 -->
<g id="edge15" class="edge">
<title>Node13&#45;&gt;Node15</title>
<path fill="none" stroke="midnightblue" d="M596.87,-112.44C619.78,-103.48 655.98,-89.31 681.87,-79.18"/>
<polygon fill="midnightblue" stroke="midnightblue" points="683.2,-82.42 691.24,-75.52 680.65,-75.9 683.2,-82.42"/>
</g>
<!-- Node16 -->
<g id="node16" class="node">
<title>Node16</title>
<g id="a_node16"><a xlink:title=" ">
<polygon fill="white" stroke="#bfbfbf" points="612,-56.5 612,-75.5 672,-75.5 672,-56.5 612,-56.5"/>
<text text-anchor="middle" x="642" y="-63.5" font-family="Helvetica,sans-Serif" font-size="10.00">iostream</text>
</a>
</g>
</g>
<!-- Node13&#45;&gt;Node16 -->
<g id="edge16" class="edge">
<title>Node13&#45;&gt;Node16</title>
<path fill="none" stroke="midnightblue" d="M585.76,-112.32C595.77,-104.26 610.89,-92.08 622.93,-82.37"/>
<polygon fill="midnightblue" stroke="midnightblue" points="625.45,-84.83 631.04,-75.83 621.06,-79.38 625.45,-84.83"/>
</g>
<!-- Node13&#45;&gt;Node17 -->
<g id="edge18" class="edge">
<title>Node13&#45;&gt;Node17</title>
<path fill="none" stroke="midnightblue" d="M561.99,-112.32C549.47,-103.98 530.32,-91.21 515.53,-81.35"/>
<polygon fill="midnightblue" stroke="midnightblue" points="517.24,-78.29 506.98,-75.65 513.36,-84.11 517.24,-78.29"/>
</g>
<!-- Node18 -->
<g id="node18" class="node">
<title>Node18</title>
<g id="a_node18"><a xlink:href="arch_8h.html" target="_top" xlink:title=" ">
<polygon fill="white" stroke="black" points="311.5,-56.5 311.5,-75.5 358.5,-75.5 358.5,-56.5 311.5,-56.5"/>
<text text-anchor="middle" x="335" y="-63.5" font-family="Helvetica,sans-Serif" font-size="10.00">arch.h</text>
</a>
</g>
</g>
<!-- Node13&#45;&gt;Node18 -->
<g id="edge19" class="edge">
<title>Node13&#45;&gt;Node18</title>
<path fill="none" stroke="midnightblue" d="M546.05,-114.49C501.33,-104.42 415.69,-85.16 368.41,-74.52"/>
<polygon fill="midnightblue" stroke="midnightblue" points="369.18,-71.1 358.65,-72.32 367.64,-77.93 369.18,-71.1"/>
</g>
<!-- Node19 -->
<g id="node19" class="node">
<title>Node19</title>
<g id="a_node19"><a xlink:href="generique_8h.html" target="_top" xlink:title=" ">
<polygon fill="white" stroke="black" points="298,-0.5 298,-19.5 372,-19.5 372,-0.5 298,-0.5"/>
<text text-anchor="middle" x="335" y="-7.5" font-family="Helvetica,sans-Serif" font-size="10.00">generique.h</text>
</a>
</g>
</g>
<!-- Node18&#45;&gt;Node19 -->
<g id="edge20" class="edge">
<title>Node18&#45;&gt;Node19</title>
<path fill="none" stroke="midnightblue" d="M335,-56.08C335,-49.01 335,-38.86 335,-29.99"/>
<polygon fill="midnightblue" stroke="midnightblue" points="338.5,-29.75 335,-19.75 331.5,-29.75 338.5,-29.75"/>
</g>
<!-- Node20&#45;&gt;Node6 -->
<g id="edge23" class="edge">
<title>Node20&#45;&gt;Node6</title>
<path fill="none" stroke="midnightblue" d="M676.11,-113.49C709.93,-104.13 767.93,-88.07 806.12,-77.49"/>
<polygon fill="midnightblue" stroke="midnightblue" points="807.15,-80.84 815.85,-74.79 805.28,-74.09 807.15,-80.84"/>
</g>
<!-- Node20&#45;&gt;Node16 -->
<g id="edge22" class="edge">
<title>Node20&#45;&gt;Node16</title>
<path fill="none" stroke="midnightblue" d="M647.84,-112.08C646.92,-104.93 645.58,-94.64 644.42,-85.69"/>
<polygon fill="midnightblue" stroke="midnightblue" points="647.89,-85.22 643.13,-75.75 640.95,-86.12 647.89,-85.22"/>
</g>
<!-- Node20&#45;&gt;Node18 -->
<g id="edge24" class="edge">
<title>Node20&#45;&gt;Node18</title>
<path fill="none" stroke="midnightblue" d="M621.93,-113.97C618.92,-113.27 615.9,-112.6 613,-112 525.41,-94 421.07,-78.75 368.63,-71.51"/>
<polygon fill="midnightblue" stroke="midnightblue" points="368.94,-68.02 358.55,-70.13 367.99,-74.95 368.94,-68.02"/>
</g>
<!-- Node21 -->
<g id="node21" class="node">
<title>Node21</title>
<g id="a_node21"><a xlink:title=" ">
<polygon fill="white" stroke="#bfbfbf" points="754,-56.5 754,-75.5 798,-75.5 798,-56.5 754,-56.5"/>
<text text-anchor="middle" x="776" y="-63.5" font-family="Helvetica,sans-Serif" font-size="10.00">string</text>
</a>
</g>
</g>
<!-- Node20&#45;&gt;Node21 -->
<g id="edge25" class="edge">
<title>Node20&#45;&gt;Node21</title>
<path fill="none" stroke="midnightblue" d="M669.12,-112.44C690.02,-103.56 722.93,-89.56 746.72,-79.45"/>
<polygon fill="midnightblue" stroke="midnightblue" points="748.14,-82.65 755.97,-75.52 745.4,-76.21 748.14,-82.65"/>
</g>
<!-- Node24 -->
<g id="node24" class="node">
<title>Node24</title>
<g id="a_node24"><a xlink:href="TRUSTIterator_8h.html" target="_top" xlink:title=" ">
<polygon fill="white" stroke="black" points="196.5,-112.5 196.5,-131.5 289.5,-131.5 289.5,-112.5 196.5,-112.5"/>
<text text-anchor="middle" x="243" y="-119.5" font-family="Helvetica,sans-Serif" font-size="10.00">TRUSTIterator.h</text>
</a>
</g>
</g>
<!-- Node23&#45;&gt;Node24 -->
<g id="edge29" class="edge">
<title>Node23&#45;&gt;Node24</title>
<path fill="none" stroke="midnightblue" d="M316.27,-448.5C303.8,-440.57 286.35,-427.64 276,-412 259.39,-386.9 257,-377.1 257,-347 257,-347 257,-347 257,-233 257,-200.54 250.93,-163.12 246.78,-141.36"/>
<polygon fill="midnightblue" stroke="midnightblue" points="250.21,-140.64 244.83,-131.51 243.34,-142 250.21,-140.64"/>
</g>
<!-- Node25 -->
<g id="node25" class="node">
<title>Node25</title>
<g id="a_node25"><a xlink:href="VTRUSTdata_8h.html" target="_top" xlink:title=" ">
<polygon fill="white" stroke="black" points="493,-392.5 493,-411.5 579,-411.5 579,-392.5 493,-392.5"/>
<text text-anchor="middle" x="536" y="-399.5" font-family="Helvetica,sans-Serif" font-size="10.00">VTRUSTdata.h</text>
</a>
</g>
</g>
<!-- Node23&#45;&gt;Node25 -->
<g id="edge32" class="edge">
<title>Node23&#45;&gt;Node25</title>
<path fill="none" stroke="midnightblue" d="M363.48,-448.44C398.72,-439.16 455.1,-424.31 493.76,-414.13"/>
<polygon fill="midnightblue" stroke="midnightblue" points="494.89,-417.45 503.67,-411.52 493.11,-410.68 494.89,-417.45"/>
</g>
<!-- Node26 -->
<g id="node26" class="node">
<title>Node26</title>
<g id="a_node26"><a xlink:href="Array__base_8h.html" target="_top" xlink:title=" ">
<polygon fill="white" stroke="black" points="357,-336.5 357,-355.5 437,-355.5 437,-336.5 357,-336.5"/>
<text text-anchor="middle" x="397" y="-343.5" font-family="Helvetica,sans-Serif" font-size="10.00">Array_base.h</text>
</a>
</g>
</g>
<!-- Node23&#45;&gt;Node26 -->
<g id="edge41" class="edge">
<title>Node23&#45;&gt;Node26</title>
<path fill="none" stroke="midnightblue" d="M346.7,-448.47C359.42,-440.7 376.7,-428 386,-412 394.18,-397.93 396.66,-379.44 397.26,-365.78"/>
<polygon fill="midnightblue" stroke="midnightblue" points="400.76,-365.69 397.4,-355.64 393.76,-365.59 400.76,-365.69"/>
</g>
<!-- Node30 -->
<g id="node30" class="node">
<title>Node30</title>
<g id="a_node30"><a xlink:href="Double_8h.html" target="_top" xlink:title=" ">
<polygon fill="white" stroke="black" points="22,-280.5 22,-299.5 82,-299.5 82,-280.5 22,-280.5"/>
<text text-anchor="middle" x="52" y="-287.5" font-family="Helvetica,sans-Serif" font-size="10.00">Double.h</text>
</a>
</g>
</g>
<!-- Node23&#45;&gt;Node30 -->
<g id="edge42" class="edge">
<title>Node23&#45;&gt;Node30</title>
<path fill="none" stroke="midnightblue" d="M289.89,-457.17C215.47,-456.51 63.07,-450.38 30,-412 4.67,-382.6 26.4,-333.94 41.14,-308.2"/>
<polygon fill="midnightblue" stroke="midnightblue" points="44.18,-309.92 46.33,-299.55 38.18,-306.32 44.18,-309.92"/>
</g>
<!-- Node33 -->
<g id="node33" class="node">
<title>Node33</title>
<g id="a_node33"><a xlink:title=" ">
<polygon fill="white" stroke="#bfbfbf" points="39,-392.5 39,-411.5 89,-411.5 89,-392.5 39,-392.5"/>
<text text-anchor="middle" x="64" y="-399.5" font-family="Helvetica,sans-Serif" font-size="10.00">climits</text>
</a>
</g>
</g>
<!-- Node23&#45;&gt;Node33 -->
<g id="edge47" class="edge">
<title>Node23&#45;&gt;Node33</title>
<path fill="none" stroke="midnightblue" d="M290,-449.95C245.32,-442.08 171.55,-428.52 98.97,-412.1"/>
<polygon fill="midnightblue" stroke="midnightblue" points="99.73,-408.69 89.2,-409.88 98.17,-415.51 99.73,-408.69"/>
</g>
<!-- Node34 -->
<g id="node34" class="node">
<title>Node34</title>
<g id="a_node34"><a xlink:href="TRUSTArray__tools_8tpp.html" target="_top" xlink:title=" ">
<polygon fill="white" stroke="black" points="107,-392.5 107,-411.5 229,-411.5 229,-392.5 107,-392.5"/>
<text text-anchor="middle" x="168" y="-399.5" font-family="Helvetica,sans-Serif" font-size="10.00">TRUSTArray_tools.tpp</text>
</a>
</g>
</g>
<!-- Node23&#45;&gt;Node34 -->
<g id="edge48" class="edge">
<title>Node23&#45;&gt;Node34</title>
<path fill="none" stroke="midnightblue" d="M305.17,-448.44C277.75,-439.36 234.22,-424.94 203.57,-414.78"/>
<polygon fill="midnightblue" stroke="midnightblue" points="204.3,-411.34 193.71,-411.52 202.1,-417.98 204.3,-411.34"/>
</g>
<!-- Node35 -->
<g id="node35" class="node">
<title>Node35</title>
<g id="a_node35"><a xlink:href="TRUSTArray_8tpp.html" target="_top" xlink:title=" ">
<polygon fill="white" stroke="black" points="285,-392.5 285,-411.5 377,-411.5 377,-392.5 285,-392.5"/>
<text text-anchor="middle" x="331" y="-399.5" font-family="Helvetica,sans-Serif" font-size="10.00">TRUSTArray.tpp</text>
</a>
</g>
</g>
<!-- Node23&#45;&gt;Node35 -->
<g id="edge49" class="edge">
<title>Node23&#45;&gt;Node35</title>
<path fill="none" stroke="midnightblue" d="M331,-448.08C331,-441.01 331,-430.86 331,-421.99"/>
<polygon fill="midnightblue" stroke="midnightblue" points="334.5,-421.75 331,-411.75 327.5,-421.75 334.5,-421.75"/>
</g>
<!-- Node24&#45;&gt;Node16 -->
<g id="edge30" class="edge">
<title>Node24&#45;&gt;Node16</title>
<path fill="none" stroke="midnightblue" d="M289.73,-113.34C292.86,-112.87 295.98,-112.42 299,-112 430.59,-93.64 467.26,-99.06 601.96,-76.01"/>
<polygon fill="midnightblue" stroke="midnightblue" points="602.58,-79.46 611.83,-74.3 601.38,-72.56 602.58,-79.46"/>
</g>
<!-- Node24&#45;&gt;Node18 -->
<g id="edge31" class="edge">
<title>Node24&#45;&gt;Node18</title>
<path fill="none" stroke="midnightblue" d="M257.78,-112.32C272.27,-103.82 294.57,-90.73 311.49,-80.8"/>
<polygon fill="midnightblue" stroke="midnightblue" points="313.4,-83.74 320.26,-75.65 309.86,-77.7 313.4,-83.74"/>
</g>
<!-- Node25&#45;&gt;Node6 -->
<g id="edge39" class="edge">
<title>Node25&#45;&gt;Node6</title>
<path fill="none" stroke="midnightblue" d="M569.34,-392.38C592.66,-385.23 623.66,-373.41 647,-356 698.08,-317.9 797.02,-188.75 826,-132 833.49,-117.34 838.18,-99.17 840.89,-85.77"/>
<polygon fill="midnightblue" stroke="midnightblue" points="844.35,-86.29 842.72,-75.82 837.47,-85.03 844.35,-86.29"/>
</g>
<!-- Node25&#45;&gt;Node26 -->
<g id="edge33" class="edge">
<title>Node25&#45;&gt;Node26</title>
<path fill="none" stroke="midnightblue" d="M513.98,-392.44C490.9,-383.48 454.44,-369.31 428.36,-359.18"/>
<polygon fill="midnightblue" stroke="midnightblue" points="429.51,-355.88 418.92,-355.52 426.98,-362.4 429.51,-355.88"/>
</g>
<!-- Node27 -->
<g id="node27" class="node">
<title>Node27</title>
<g id="a_node27"><a xlink:href="Memoire_8h.html" target="_top" xlink:title=" ">
<polygon fill="white" stroke="black" points="568.5,-336.5 568.5,-355.5 637.5,-355.5 637.5,-336.5 568.5,-336.5"/>
<text text-anchor="middle" x="603" y="-343.5" font-family="Helvetica,sans-Serif" font-size="10.00">Memoire.h</text>
</a>
</g>
</g>
<!-- Node25&#45;&gt;Node27 -->
<g id="edge35" class="edge">
<title>Node25&#45;&gt;Node27</title>
<path fill="none" stroke="midnightblue" d="M546.76,-392.32C556.77,-384.26 571.89,-372.08 583.93,-362.37"/>
<polygon fill="midnightblue" stroke="midnightblue" points="586.45,-364.83 592.04,-355.83 582.06,-359.38 586.45,-364.83"/>
</g>
<!-- Node29 -->
<g id="node29" class="node">
<title>Node29</title>
<g id="a_node29"><a xlink:title=" ">
<polygon fill="white" stroke="#bfbfbf" points="493.5,-336.5 493.5,-355.5 550.5,-355.5 550.5,-336.5 493.5,-336.5"/>
<text text-anchor="middle" x="522" y="-343.5" font-family="Helvetica,sans-Serif" font-size="10.00">typeinfo</text>
</a>
</g>
</g>
<!-- Node25&#45;&gt;Node29 -->
<g id="edge40" class="edge">
<title>Node25&#45;&gt;Node29</title>
<path fill="none" stroke="midnightblue" d="M533.69,-392.08C531.83,-384.93 529.16,-374.64 526.85,-365.69"/>
<polygon fill="midnightblue" stroke="midnightblue" points="530.17,-364.55 524.27,-355.75 523.39,-366.31 530.17,-364.55"/>
</g>
<!-- Node26&#45;&gt;Node5 -->
<g id="edge34" class="edge">
<title>Node26&#45;&gt;Node5</title>
<path fill="none" stroke="midnightblue" d="M401.77,-336.41C409.98,-322.44 428.11,-294.86 451,-280 486.64,-256.86 534.22,-245.45 568.21,-239.93"/>
<polygon fill="midnightblue" stroke="midnightblue" points="568.94,-243.36 578.3,-238.4 567.89,-236.44 568.94,-243.36"/>
</g>
<!-- Node28 -->
<g id="node28" class="node">
<title>Node28</title>
<g id="a_node28"><a xlink:href="Memoire__ptr_8h.html" target="_top" xlink:title=" ">
<polygon fill="white" stroke="black" points="550.5,-280.5 550.5,-299.5 637.5,-299.5 637.5,-280.5 550.5,-280.5"/>
<text text-anchor="middle" x="594" y="-287.5" font-family="Helvetica,sans-Serif" font-size="10.00">Memoire_ptr.h</text>
</a>
</g>
</g>
<!-- Node27&#45;&gt;Node28 -->
<g id="edge36" class="edge">
<title>Node27&#45;&gt;Node28</title>
<path fill="none" stroke="midnightblue" d="M601.51,-336.08C600.32,-328.93 598.61,-318.64 597.12,-309.69"/>
<polygon fill="midnightblue" stroke="midnightblue" points="600.55,-309.04 595.46,-299.75 593.65,-310.19 600.55,-309.04"/>
</g>
<!-- Node28&#45;&gt;Node5 -->
<g id="edge37" class="edge">
<title>Node28&#45;&gt;Node5</title>
<path fill="none" stroke="midnightblue" d="M596.81,-280.08C599.08,-272.85 602.37,-262.41 605.21,-253.4"/>
<polygon fill="midnightblue" stroke="midnightblue" points="608.58,-254.34 608.25,-243.75 601.9,-252.24 608.58,-254.34"/>
</g>
<!-- Node28&#45;&gt;Node6 -->
<g id="edge38" class="edge">
<title>Node28&#45;&gt;Node6</title>
<path fill="none" stroke="midnightblue" d="M609.39,-280.43C646.56,-259.17 742.79,-200.71 805,-132 817.81,-117.85 828.62,-98.87 835.59,-85.08"/>
<polygon fill="midnightblue" stroke="midnightblue" points="838.92,-86.23 840.14,-75.7 832.62,-83.17 838.92,-86.23"/>
</g>
<!-- Node30&#45;&gt;Node5 -->
<g id="edge45" class="edge">
<title>Node30&#45;&gt;Node5</title>
<path fill="none" stroke="midnightblue" d="M82.05,-286.1C175.22,-277.1 459.42,-249.64 568.11,-239.14"/>
<polygon fill="midnightblue" stroke="midnightblue" points="568.75,-242.6 578.37,-238.15 568.08,-235.63 568.75,-242.6"/>
</g>
<!-- Node31 -->
<g id="node31" class="node">
<title>Node31</title>
<g id="a_node31"><a xlink:href="blas1_8h.html" target="_top" xlink:title=" ">
<polygon fill="white" stroke="black" points="0,-168.5 0,-187.5 52,-187.5 52,-168.5 0,-168.5"/>
<text text-anchor="middle" x="26" y="-175.5" font-family="Helvetica,sans-Serif" font-size="10.00">blas1.h</text>
</a>
</g>
</g>
<!-- Node30&#45;&gt;Node31 -->
<g id="edge43" class="edge">
<title>Node30&#45;&gt;Node31</title>
<path fill="none" stroke="midnightblue" d="M49.96,-280.37C45.76,-262.62 36.08,-221.67 30.4,-197.6"/>
<polygon fill="midnightblue" stroke="midnightblue" points="33.74,-196.52 28.03,-187.59 26.92,-198.13 33.74,-196.52"/>
</g>
<!-- Node32 -->
<g id="node32" class="node">
<title>Node32</title>
<g id="a_node32"><a xlink:title=" ">
<polygon fill="white" stroke="#bfbfbf" points="54.5,-224.5 54.5,-243.5 101.5,-243.5 101.5,-224.5 54.5,-224.5"/>
<text text-anchor="middle" x="78" y="-231.5" font-family="Helvetica,sans-Serif" font-size="10.00">cmath</text>
</a>
</g>
</g>
<!-- Node30&#45;&gt;Node32 -->
<g id="edge46" class="edge">
<title>Node30&#45;&gt;Node32</title>
<path fill="none" stroke="midnightblue" d="M56.29,-280.08C59.85,-272.69 65.02,-261.95 69.42,-252.81"/>
<polygon fill="midnightblue" stroke="midnightblue" points="72.6,-254.28 73.79,-243.75 66.29,-251.24 72.6,-254.28"/>
</g>
<!-- Node31&#45;&gt;Node18 -->
<g id="edge44" class="edge">
<title>Node31&#45;&gt;Node18</title>
<path fill="none" stroke="midnightblue" d="M25.8,-168.31C25.98,-154.2 28.56,-126.42 45,-112 82.53,-79.07 232.61,-70.18 300.88,-67.83"/>
<polygon fill="midnightblue" stroke="midnightblue" points="301.22,-71.32 311.1,-67.51 300.99,-64.32 301.22,-71.32"/>
</g>
<!-- Node36 -->
<g id="node36" class="node">
<title>Node36</title>
<g id="a_node36"><a xlink:title=" ">
<polygon fill="white" stroke="#bfbfbf" points="285.5,-336.5 285.5,-355.5 338.5,-355.5 338.5,-336.5 285.5,-336.5"/>
<text text-anchor="middle" x="312" y="-343.5" font-family="Helvetica,sans-Serif" font-size="10.00">string.h</text>
</a>
</g>
</g>
<!-- Node35&#45;&gt;Node36 -->
<g id="edge50" class="edge">
<title>Node35&#45;&gt;Node36</title>
<path fill="none" stroke="midnightblue" d="M327.86,-392.08C325.32,-384.85 321.64,-374.41 318.47,-365.4"/>
<polygon fill="midnightblue" stroke="midnightblue" points="321.7,-364.02 315.08,-355.75 315.1,-366.35 321.7,-364.02"/>
</g>
<!-- Node37&#45;&gt;Node4 -->
<g id="edge52" class="edge">
<title>Node37&#45;&gt;Node4</title>
<path fill="none" stroke="midnightblue" d="M563.22,-1008.37C561.6,-990.62 557.88,-949.67 555.69,-925.6"/>
<polygon fill="midnightblue" stroke="midnightblue" points="559.17,-925.23 554.78,-915.59 552.2,-925.87 559.17,-925.23"/>
</g>
<!-- Node38 -->
<g id="node38" class="node">
<title>Node38</title>
<g id="a_node38"><a xlink:href="Objet__a__lire_8h.html" target="_top" xlink:title=" ">
<polygon fill="white" stroke="black" points="654,-952.5 654,-971.5 738,-971.5 738,-952.5 654,-952.5"/>
<text text-anchor="middle" x="696" y="-959.5" font-family="Helvetica,sans-Serif" font-size="10.00">Objet_a_lire.h</text>
</a>
</g>
</g>
<!-- Node37&#45;&gt;Node38 -->
<g id="edge53" class="edge">
<title>Node37&#45;&gt;Node38</title>
<path fill="none" stroke="midnightblue" d="M584.92,-1008.44C606.74,-999.52 641.15,-985.44 665.89,-975.32"/>
<polygon fill="midnightblue" stroke="midnightblue" points="667.25,-978.54 675.18,-971.52 664.6,-972.06 667.25,-978.54"/>
</g>
<!-- Node38&#45;&gt;Node5 -->
<g id="edge81" class="edge">
<title>Node38&#45;&gt;Node5</title>
<path fill="none" stroke="midnightblue" d="M696,-952.44C696,-933.94 696,-888.81 696,-851 696,-851 696,-851 696,-457 696,-375.37 684.14,-352.69 647,-280 641.66,-269.55 633.66,-259.23 626.56,-251.12"/>
<polygon fill="midnightblue" stroke="midnightblue" points="628.96,-248.56 619.63,-243.55 623.79,-253.29 628.96,-248.56"/>
</g>
<!-- Node38&#45;&gt;Node23 -->
<g id="edge54" class="edge">
<title>Node38&#45;&gt;Node23</title>
<path fill="none" stroke="midnightblue" d="M690.35,-952.34C659.7,-905.48 509.57,-678.04 371,-504 363.19,-494.19 353.91,-483.69 346.26,-475.3"/>
<polygon fill="midnightblue" stroke="midnightblue" points="348.62,-472.69 339.26,-467.72 343.47,-477.44 348.62,-472.69"/>
</g>
<!-- Node39 -->
<g id="node39" class="node">
<title>Node39</title>
<g id="a_node39"><a xlink:href="List__Nom_8h.html" target="_top" xlink:title=" ">
<polygon fill="white" stroke="black" points="773.5,-896.5 773.5,-915.5 844.5,-915.5 844.5,-896.5 773.5,-896.5"/>
<text text-anchor="middle" x="809" y="-903.5" font-family="Helvetica,sans-Serif" font-size="10.00">List_Nom.h</text>
</a>
</g>
</g>
<!-- Node38&#45;&gt;Node39 -->
<g id="edge55" class="edge">
<title>Node38&#45;&gt;Node39</title>
<path fill="none" stroke="midnightblue" d="M713.91,-952.44C732.25,-943.68 761.01,-929.94 782.09,-919.86"/>
<polygon fill="midnightblue" stroke="midnightblue" points="783.67,-922.99 791.18,-915.52 780.65,-916.67 783.67,-922.99"/>
</g>
<!-- Node54 -->
<g id="node54" class="node">
<title>Node54</title>
<g id="a_node54"><a xlink:href="ptrParam_8h.html" target="_top" xlink:title=" ">
<polygon fill="white" stroke="black" points="938,-728.5 938,-747.5 1008,-747.5 1008,-728.5 938,-728.5"/>
<text text-anchor="middle" x="973" y="-735.5" font-family="Helvetica,sans-Serif" font-size="10.00">ptrParam.h</text>
</a>
</g>
</g>
<!-- Node38&#45;&gt;Node54 -->
<g id="edge78" class="edge">
<title>Node38&#45;&gt;Node54</title>
<path fill="none" stroke="midnightblue" d="M738.06,-957.03C772.05,-952.05 819.73,-940.89 854,-916 912.37,-873.6 950.83,-793.21 965.87,-757.22"/>
<polygon fill="midnightblue" stroke="midnightblue" points="969.26,-758.15 969.78,-747.57 962.78,-755.52 969.26,-758.15"/>
</g>
<!-- Node40 -->
<g id="node40" class="node">
<title>Node40</title>
<g id="a_node40"><a xlink:href="List_8h.html" target="_top" xlink:title=" ">
<polygon fill="white" stroke="black" points="795.5,-840.5 795.5,-859.5 838.5,-859.5 838.5,-840.5 795.5,-840.5"/>
<text text-anchor="middle" x="817" y="-847.5" font-family="Helvetica,sans-Serif" font-size="10.00">List.h</text>
</a>
</g>
</g>
<!-- Node39&#45;&gt;Node40 -->
<g id="edge56" class="edge">
<title>Node39&#45;&gt;Node40</title>
<path fill="none" stroke="midnightblue" d="M810.32,-896.08C811.38,-888.93 812.91,-878.64 814.23,-869.69"/>
<polygon fill="midnightblue" stroke="midnightblue" points="817.7,-870.16 815.7,-859.75 810.78,-869.13 817.7,-870.16"/>
</g>
<!-- Node41 -->
<g id="node41" class="node">
<title>Node41</title>
<g id="a_node41"><a xlink:href="MacList_8h.html" target="_top" xlink:title=" ">
<polygon fill="white" stroke="black" points="800.5,-784.5 800.5,-803.5 863.5,-803.5 863.5,-784.5 800.5,-784.5"/>
<text text-anchor="middle" x="832" y="-791.5" font-family="Helvetica,sans-Serif" font-size="10.00">MacList.h</text>
</a>
</g>
</g>
<!-- Node40&#45;&gt;Node41 -->
<g id="edge57" class="edge">
<title>Node40&#45;&gt;Node41</title>
<path fill="none" stroke="midnightblue" d="M819.48,-840.08C821.49,-832.85 824.39,-822.41 826.89,-813.4"/>
<polygon fill="midnightblue" stroke="midnightblue" points="830.26,-814.32 829.57,-803.75 823.52,-812.45 830.26,-814.32"/>
</g>
<!-- Node42 -->
<g id="node42" class="node">
<title>Node42</title>
<g id="a_node42"><a xlink:href="liste_8h.html" target="_top" xlink:title=" ">
<polygon fill="white" stroke="black" points="808.5,-672.5 808.5,-691.5 855.5,-691.5 855.5,-672.5 808.5,-672.5"/>
<text text-anchor="middle" x="832" y="-679.5" font-family="Helvetica,sans-Serif" font-size="10.00">liste.h</text>
</a>
</g>
</g>
<!-- Node41&#45;&gt;Node42 -->
<g id="edge58" class="edge">
<title>Node41&#45;&gt;Node42</title>
<path fill="none" stroke="midnightblue" d="M832,-784.37C832,-766.62 832,-725.67 832,-701.6"/>
<polygon fill="midnightblue" stroke="midnightblue" points="835.5,-701.59 832,-691.59 828.5,-701.59 835.5,-701.59"/>
</g>
<!-- Node50 -->
<g id="node50" class="node">
<title>Node50</title>
<g id="a_node50"><a xlink:href="Motcle_8h.html" target="_top" xlink:title=" ">
<polygon fill="white" stroke="black" points="860.5,-728.5 860.5,-747.5 919.5,-747.5 919.5,-728.5 860.5,-728.5"/>
<text text-anchor="middle" x="890" y="-735.5" font-family="Helvetica,sans-Serif" font-size="10.00">Motcle.h</text>
</a>
</g>
</g>
<!-- Node41&#45;&gt;Node50 -->
<g id="edge69" class="edge">
<title>Node41&#45;&gt;Node50</title>
<path fill="none" stroke="midnightblue" d="M841.32,-784.32C849.89,-776.34 862.81,-764.31 873.19,-754.65"/>
<polygon fill="midnightblue" stroke="midnightblue" points="875.58,-757.21 880.51,-747.83 870.81,-752.09 875.58,-757.21"/>
</g>
<!-- Node43 -->
<g id="node43" class="node">
<title>Node43</title>
<g id="a_node43"><a xlink:href="DerOu___8h.html" target="_top" xlink:title=" ">
<polygon fill="white" stroke="black" points="804,-504.5 804,-523.5 866,-523.5 866,-504.5 804,-504.5"/>
<text text-anchor="middle" x="835" y="-511.5" font-family="Helvetica,sans-Serif" font-size="10.00">DerOu_.h</text>
</a>
</g>
</g>
<!-- Node42&#45;&gt;Node43 -->
<g id="edge59" class="edge">
<title>Node42&#45;&gt;Node43</title>
<path fill="none" stroke="midnightblue" d="M832.16,-672.08C832.63,-645.95 834.02,-569.21 834.66,-533.58"/>
<polygon fill="midnightblue" stroke="midnightblue" points="838.16,-533.63 834.85,-523.57 831.16,-533.5 838.16,-533.63"/>
</g>
<!-- Node44 -->
<g id="node44" class="node">
<title>Node44</title>
<g id="a_node44"><a xlink:href="Deriv_8h.html" target="_top" xlink:title=" ">
<polygon fill="white" stroke="black" points="764.5,-448.5 764.5,-467.5 815.5,-467.5 815.5,-448.5 764.5,-448.5"/>
<text text-anchor="middle" x="790" y="-455.5" font-family="Helvetica,sans-Serif" font-size="10.00">Deriv.h</text>
</a>
</g>
</g>
<!-- Node43&#45;&gt;Node44 -->
<g id="edge60" class="edge">
<title>Node43&#45;&gt;Node44</title>
<path fill="none" stroke="midnightblue" d="M827.57,-504.08C821.15,-496.38 811.69,-485.03 803.88,-475.65"/>
<polygon fill="midnightblue" stroke="midnightblue" points="806.38,-473.19 797.29,-467.75 801.01,-477.67 806.38,-473.19"/>
</g>
<!-- Node48 -->
<g id="node48" class="node">
<title>Node48</title>
<g id="a_node48"><a xlink:href="Nom_8h.html" target="_top" xlink:title=" ">
<polygon fill="white" stroke="black" points="863.5,-448.5 863.5,-467.5 912.5,-467.5 912.5,-448.5 863.5,-448.5"/>
<text text-anchor="middle" x="888" y="-455.5" font-family="Helvetica,sans-Serif" font-size="10.00">Nom.h</text>
</a>
</g>
</g>
<!-- Node43&#45;&gt;Node48 -->
<g id="edge65" class="edge">
<title>Node43&#45;&gt;Node48</title>
<path fill="none" stroke="midnightblue" d="M843.75,-504.08C851.47,-496.22 862.9,-484.57 872.22,-475.08"/>
<polygon fill="midnightblue" stroke="midnightblue" points="874.9,-477.34 879.41,-467.75 869.91,-472.44 874.9,-477.34"/>
</g>
<!-- Node45 -->
<g id="node45" class="node">
<title>Node45</title>
<g id="a_node45"><a xlink:href="MacDeriv_8h.html" target="_top" xlink:title=" ">
<polygon fill="white" stroke="black" points="724.5,-392.5 724.5,-411.5 795.5,-411.5 795.5,-392.5 724.5,-392.5"/>
<text text-anchor="middle" x="760" y="-399.5" font-family="Helvetica,sans-Serif" font-size="10.00">MacDeriv.h</text>
</a>
</g>
</g>
<!-- Node44&#45;&gt;Node45 -->
<g id="edge61" class="edge">
<title>Node44&#45;&gt;Node45</title>
<path fill="none" stroke="midnightblue" d="M785.05,-448.08C780.9,-440.61 774.85,-429.72 769.73,-420.52"/>
<polygon fill="midnightblue" stroke="midnightblue" points="772.78,-418.79 764.86,-411.75 766.66,-422.19 772.78,-418.79"/>
</g>
<!-- Node46 -->
<g id="node46" class="node">
<title>Node46</title>
<g id="a_node46"><a xlink:href="Deriv___8h.html" target="_top" xlink:title=" ">
<polygon fill="white" stroke="black" points="734.5,-336.5 734.5,-355.5 791.5,-355.5 791.5,-336.5 734.5,-336.5"/>
<text text-anchor="middle" x="763" y="-343.5" font-family="Helvetica,sans-Serif" font-size="10.00">Deriv_.h</text>
</a>
</g>
</g>
<!-- Node45&#45;&gt;Node46 -->
<g id="edge62" class="edge">
<title>Node45&#45;&gt;Node46</title>
<path fill="none" stroke="midnightblue" d="M760.5,-392.08C760.89,-385.01 761.45,-374.86 761.95,-365.99"/>
<polygon fill="midnightblue" stroke="midnightblue" points="765.45,-365.93 762.51,-355.75 758.46,-365.54 765.45,-365.93"/>
</g>
<!-- Node47 -->
<g id="node47" class="node">
<title>Node47</title>
<g id="a_node47"><a xlink:href="O__U__Ptr_8h.html" target="_top" xlink:title=" ">
<polygon fill="white" stroke="black" points="732,-280.5 732,-299.5 796,-299.5 796,-280.5 732,-280.5"/>
<text text-anchor="middle" x="764" y="-287.5" font-family="Helvetica,sans-Serif" font-size="10.00">O_U_Ptr.h</text>
</a>
</g>
</g>
<!-- Node46&#45;&gt;Node47 -->
<g id="edge63" class="edge">
<title>Node46&#45;&gt;Node47</title>
<path fill="none" stroke="midnightblue" d="M763.17,-336.08C763.3,-329.01 763.48,-318.86 763.65,-309.99"/>
<polygon fill="midnightblue" stroke="midnightblue" points="767.15,-309.81 763.84,-299.75 760.15,-309.68 767.15,-309.81"/>
</g>
<!-- Node47&#45;&gt;Node5 -->
<g id="edge64" class="edge">
<title>Node47&#45;&gt;Node5</title>
<path fill="none" stroke="midnightblue" d="M739.76,-280.44C714.13,-271.4 673.51,-257.06 644.76,-246.92"/>
<polygon fill="midnightblue" stroke="midnightblue" points="645.72,-243.54 635.13,-243.52 643.39,-250.15 645.72,-243.54"/>
</g>
<!-- Node48&#45;&gt;Node5 -->
<g id="edge66" class="edge">
<title>Node48&#45;&gt;Node5</title>
<path fill="none" stroke="midnightblue" d="M876.38,-448.24C866.17,-439.96 851.64,-426.66 843,-412 811.99,-359.41 849.28,-322.02 805,-280 783.53,-259.63 704.01,-246.38 653.69,-239.84"/>
<polygon fill="midnightblue" stroke="midnightblue" points="654.09,-236.36 643.73,-238.58 653.21,-243.3 654.09,-236.36"/>
</g>
<!-- Node48&#45;&gt;Node21 -->
<g id="edge68" class="edge">
<title>Node48&#45;&gt;Node21</title>
<path fill="none" stroke="midnightblue" d="M894.03,-448.17C899.63,-439.43 907.59,-425.44 911,-412 924.24,-359.86 914,-344.79 914,-291 914,-291 914,-291 914,-233 914,-162.57 839.63,-106.08 800.08,-81.03"/>
<polygon fill="midnightblue" stroke="midnightblue" points="801.65,-77.88 791.3,-75.62 797.97,-83.84 801.65,-77.88"/>
</g>
<!-- Node49 -->
<g id="node49" class="node">
<title>Node49</title>
<g id="a_node49"><a xlink:title=" ">
<polygon fill="white" stroke="#bfbfbf" points="852,-392.5 852,-411.5 902,-411.5 902,-392.5 852,-392.5"/>
<text text-anchor="middle" x="877" y="-399.5" font-family="Helvetica,sans-Serif" font-size="10.00">cstring</text>
</a>
</g>
</g>
<!-- Node48&#45;&gt;Node49 -->
<g id="edge67" class="edge">
<title>Node48&#45;&gt;Node49</title>
<path fill="none" stroke="midnightblue" d="M886.18,-448.08C884.73,-440.93 882.63,-430.64 880.81,-421.69"/>
<polygon fill="midnightblue" stroke="midnightblue" points="884.21,-420.85 878.78,-411.75 877.35,-422.25 884.21,-420.85"/>
</g>
<!-- Node51 -->
<g id="node51" class="node">
<title>Node51</title>
<g id="a_node51"><a xlink:href="Vect_8h.html" target="_top" xlink:title=" ">
<polygon fill="white" stroke="black" points="948.5,-672.5 948.5,-691.5 995.5,-691.5 995.5,-672.5 948.5,-672.5"/>
<text text-anchor="middle" x="972" y="-679.5" font-family="Helvetica,sans-Serif" font-size="10.00">Vect.h</text>
</a>
</g>
</g>
<!-- Node50&#45;&gt;Node51 -->
<g id="edge70" class="edge">
<title>Node50&#45;&gt;Node51</title>
<path fill="none" stroke="midnightblue" d="M903.17,-728.32C915.85,-719.98 935.23,-707.21 950.21,-697.35"/>
<polygon fill="midnightblue" stroke="midnightblue" points="952.43,-700.08 958.86,-691.65 948.58,-694.23 952.43,-700.08"/>
</g>
<!-- Node52 -->
<g id="node52" class="node">
<title>Node52</title>
<g id="a_node52"><a xlink:href="MacVect_8h.html" target="_top" xlink:title=" ">
<polygon fill="white" stroke="black" points="938.5,-616.5 938.5,-635.5 1005.5,-635.5 1005.5,-616.5 938.5,-616.5"/>
<text text-anchor="middle" x="972" y="-623.5" font-family="Helvetica,sans-Serif" font-size="10.00">MacVect.h</text>
</a>
</g>
</g>
<!-- Node51&#45;&gt;Node52 -->
<g id="edge71" class="edge">
<title>Node51&#45;&gt;Node52</title>
<path fill="none" stroke="midnightblue" d="M972,-672.08C972,-665.01 972,-654.86 972,-645.99"/>
<polygon fill="midnightblue" stroke="midnightblue" points="975.5,-645.75 972,-635.75 968.5,-645.75 975.5,-645.75"/>
</g>
<!-- Node52&#45;&gt;Node6 -->
<g id="edge73" class="edge">
<title>Node52&#45;&gt;Node6</title>
<path fill="none" stroke="midnightblue" d="M976.08,-616.1C991.31,-582.01 1044,-456.19 1044,-347 1044,-347 1044,-347 1044,-177 1044,-103.92 940.2,-79.04 882.16,-70.85"/>
<polygon fill="midnightblue" stroke="midnightblue" points="882.6,-67.38 872.23,-69.55 881.69,-74.32 882.6,-67.38"/>
</g>
<!-- Node52&#45;&gt;Node48 -->
<g id="edge72" class="edge">
<title>Node52&#45;&gt;Node48</title>
<path fill="none" stroke="midnightblue" d="M969.93,-616.33C966.72,-603.63 960,-579.36 951,-560 936.48,-528.76 914.15,-495.37 900.34,-475.88"/>
<polygon fill="midnightblue" stroke="midnightblue" points="903,-473.58 894.32,-467.51 897.32,-477.67 903,-473.58"/>
</g>
<!-- Node53 -->
<g id="node53" class="node">
<title>Node53</title>
<g id="a_node53"><a xlink:href="vect__impl_8h.html" target="_top" xlink:title=" ">
<polygon fill="white" stroke="black" points="868,-560.5 868,-579.5 942,-579.5 942,-560.5 868,-560.5"/>
<text text-anchor="middle" x="905" y="-567.5" font-family="Helvetica,sans-Serif" font-size="10.00">vect_impl.h</text>
</a>
</g>
</g>
<!-- Node52&#45;&gt;Node53 -->
<g id="edge74" class="edge">
<title>Node52&#45;&gt;Node53</title>
<path fill="none" stroke="midnightblue" d="M961.24,-616.32C951.23,-608.26 936.11,-596.08 924.07,-586.37"/>
<polygon fill="midnightblue" stroke="midnightblue" points="925.94,-583.38 915.96,-579.83 921.55,-588.83 925.94,-583.38"/>
</g>
<!-- Node53&#45;&gt;Node6 -->
<g id="edge76" class="edge">
<title>Node53&#45;&gt;Node6</title>
<path fill="none" stroke="midnightblue" d="M909.81,-560.18C927.79,-526.4 990,-401.53 990,-291 990,-291 990,-291 990,-177 990,-122.83 925.08,-91.99 881.82,-77.45"/>
<polygon fill="midnightblue" stroke="midnightblue" points="882.74,-74.07 872.15,-74.35 880.6,-80.74 882.74,-74.07"/>
</g>
<!-- Node53&#45;&gt;Node43 -->
<g id="edge77" class="edge">
<title>Node53&#45;&gt;Node43</title>
<path fill="none" stroke="midnightblue" d="M893.75,-560.32C883.2,-552.18 867.2,-539.84 854.56,-530.09"/>
<polygon fill="midnightblue" stroke="midnightblue" points="856.51,-527.17 846.45,-523.83 852.23,-532.71 856.51,-527.17"/>
</g>
<!-- Node53&#45;&gt;Node48 -->
<g id="edge75" class="edge">
<title>Node53&#45;&gt;Node48</title>
<path fill="none" stroke="midnightblue" d="M903.67,-560.37C900.92,-542.62 894.59,-501.67 890.87,-477.6"/>
<polygon fill="midnightblue" stroke="midnightblue" points="894.31,-476.94 889.33,-467.59 887.4,-478.01 894.31,-476.94"/>
</g>
<!-- Node54&#45;&gt;Node5 -->
<g id="edge79" class="edge">
<title>Node54&#45;&gt;Node5</title>
<path fill="none" stroke="midnightblue" d="M984.39,-728.4C1005.37,-711.48 1048,-671.61 1048,-627 1048,-627 1048,-627 1048,-513 1048,-369.97 950.98,-349.57 826,-280 771.59,-249.71 699.13,-239.76 653.77,-236.51"/>
<polygon fill="midnightblue" stroke="midnightblue" points="653.89,-233.02 643.68,-235.87 653.44,-240 653.89,-233.02"/>
</g>
<!-- Node54&#45;&gt;Node51 -->
<g id="edge80" class="edge">
<title>Node54&#45;&gt;Node51</title>
<path fill="none" stroke="midnightblue" d="M972.83,-728.08C972.7,-721.01 972.52,-710.86 972.35,-701.99"/>
<polygon fill="midnightblue" stroke="midnightblue" points="975.85,-701.68 972.16,-691.75 968.85,-701.81 975.85,-701.68"/>
</g>
</g>
</svg>
