<?xml version="1.0" encoding="UTF-8" standalone="no"?>
<!DOCTYPE svg PUBLIC "-//W3C//DTD SVG 1.1//EN"
 "http://www.w3.org/Graphics/SVG/1.1/DTD/svg11.dtd">
<!-- Generated by graphviz version 2.43.0 (0)
 -->
<!-- Title: src/Kernel/Utilitaires/Memoire.h Pages: 1 -->
<svg width="684pt" height="375pt"
 viewBox="0.00 0.00 683.51 375.00" xmlns="http://www.w3.org/2000/svg" xmlns:xlink="http://www.w3.org/1999/xlink">
<g id="graph0" class="graph" transform="scale(1 1) rotate(0) translate(4 371)">
<title>src/Kernel/Utilitaires/Memoire.h</title>
<polygon fill="white" stroke="transparent" points="-4,4 -4,-371 679.51,-371 679.51,4 -4,4"/>
<!-- Node1 -->
<g id="node1" class="node">
<title>Node1</title>
<g id="a_node1"><a xlink:title=" ">
<polygon fill="#bfbfbf" stroke="black" points="65,-336.5 65,-366.5 181,-366.5 181,-336.5 65,-336.5"/>
<text text-anchor="start" x="73" y="-354.5" font-family="Helvetica,sans-Serif" font-size="10.00">src/Kernel/Utilitaires</text>
<text text-anchor="middle" x="123" y="-343.5" font-family="Helvetica,sans-Serif" font-size="10.00">/Memoire.h</text>
</a>
</g>
</g>
<!-- Node2 -->
<g id="node2" class="node">
<title>Node2</title>
<g id="a_node2"><a xlink:href="Memoire__ptr_8h.html" target="_top" xlink:title=" ">
<polygon fill="white" stroke="black" points="79.5,-280.5 79.5,-299.5 166.5,-299.5 166.5,-280.5 79.5,-280.5"/>
<text text-anchor="middle" x="123" y="-287.5" font-family="Helvetica,sans-Serif" font-size="10.00">Memoire_ptr.h</text>
</a>
</g>
</g>
<!-- Node1&#45;&gt;Node2 -->
<g id="edge1" class="edge">
<title>Node1&#45;&gt;Node2</title>
<path fill="none" stroke="midnightblue" d="M123,-336.4C123,-328.47 123,-318.46 123,-309.86"/>
<polygon fill="midnightblue" stroke="midnightblue" points="126.5,-309.66 123,-299.66 119.5,-309.66 126.5,-309.66"/>
</g>
<!-- Node3 -->
<g id="node3" class="node">
<title>Node3</title>
<g id="a_node3"><a xlink:href="Objet__U_8h.html" target="_top" xlink:title=" ">
<polygon fill="white" stroke="black" points="186.5,-224.5 186.5,-243.5 251.5,-243.5 251.5,-224.5 186.5,-224.5"/>
<text text-anchor="middle" x="219" y="-231.5" font-family="Helvetica,sans-Serif" font-size="10.00">Objet_U.h</text>
</a>
</g>
</g>
<!-- Node2&#45;&gt;Node3 -->
<g id="edge2" class="edge">
<title>Node2&#45;&gt;Node3</title>
<path fill="none" stroke="midnightblue" d="M138.42,-280.32C153.54,-271.82 176.82,-258.73 194.47,-248.8"/>
<polygon fill="midnightblue" stroke="midnightblue" points="196.61,-251.61 203.61,-243.65 193.18,-245.51 196.61,-251.61"/>
</g>
<!-- Node4 -->
<g id="node4" class="node">
<title>Node4</title>
<g id="a_node4"><a xlink:title=" ">
<polygon fill="white" stroke="#bfbfbf" points="0,-56.5 0,-75.5 56,-75.5 56,-56.5 0,-56.5"/>
<text text-anchor="middle" x="28" y="-63.5" font-family="Helvetica,sans-Serif" font-size="10.00">assert.h</text>
</a>
</g>
</g>
<!-- Node2&#45;&gt;Node4 -->
<g id="edge26" class="edge">
<title>Node2&#45;&gt;Node4</title>
<path fill="none" stroke="midnightblue" d="M119.28,-280.3C105.21,-247.42 55.13,-130.39 35.74,-85.09"/>
<polygon fill="midnightblue" stroke="midnightblue" points="38.95,-83.7 31.8,-75.88 32.52,-86.45 38.95,-83.7"/>
</g>
<!-- Node3&#45;&gt;Node4 -->
<g id="edge3" class="edge">
<title>Node3&#45;&gt;Node4</title>
<path fill="none" stroke="midnightblue" d="M205.75,-224.36C180.87,-207.84 125.99,-170.06 85,-132 68.76,-116.92 52.29,-97.61 41.26,-83.97"/>
<polygon fill="midnightblue" stroke="midnightblue" points="43.82,-81.57 34.85,-75.92 38.35,-85.93 43.82,-81.57"/>
</g>
<!-- Node5 -->
<g id="node5" class="node">
<title>Node5</title>
<g id="a_node5"><a xlink:href="DecBaseInst_8h.html" target="_top" xlink:title=" ">
<polygon fill="white" stroke="black" points="466,-168.5 466,-187.5 552,-187.5 552,-168.5 466,-168.5"/>
<text text-anchor="middle" x="509" y="-175.5" font-family="Helvetica,sans-Serif" font-size="10.00">DecBaseInst.h</text>
</a>
</g>
</g>
<!-- Node3&#45;&gt;Node5 -->
<g id="edge4" class="edge">
<title>Node3&#45;&gt;Node5</title>
<path fill="none" stroke="midnightblue" d="M251.7,-226.91C301.27,-217.68 395.96,-200.05 455.61,-188.94"/>
<polygon fill="midnightblue" stroke="midnightblue" points="456.41,-192.35 465.6,-187.08 455.12,-185.47 456.41,-192.35"/>
</g>
<!-- Node10 -->
<g id="node10" class="node">
<title>Node10</title>
<g id="a_node10"><a xlink:href="EntreeSortie_8h.html" target="_top" xlink:title=" ">
<polygon fill="white" stroke="black" points="176,-168.5 176,-187.5 262,-187.5 262,-168.5 176,-168.5"/>
<text text-anchor="middle" x="219" y="-175.5" font-family="Helvetica,sans-Serif" font-size="10.00">EntreeSortie.h</text>
</a>
</g>
</g>
<!-- Node3&#45;&gt;Node10 -->
<g id="edge10" class="edge">
<title>Node3&#45;&gt;Node10</title>
<path fill="none" stroke="midnightblue" d="M219,-224.08C219,-217.01 219,-206.86 219,-197.99"/>
<polygon fill="midnightblue" stroke="midnightblue" points="222.5,-197.75 219,-187.75 215.5,-197.75 222.5,-197.75"/>
</g>
<!-- Node15 -->
<g id="node15" class="node">
<title>Node15</title>
<g id="a_node15"><a xlink:href="Process_8h.html" target="_top" xlink:title=" ">
<polygon fill="white" stroke="black" points="349.5,-56.5 349.5,-75.5 412.5,-75.5 412.5,-56.5 349.5,-56.5"/>
<text text-anchor="middle" x="381" y="-63.5" font-family="Helvetica,sans-Serif" font-size="10.00">Process.h</text>
</a>
</g>
</g>
<!-- Node3&#45;&gt;Node15 -->
<g id="edge25" class="edge">
<title>Node3&#45;&gt;Node15</title>
<path fill="none" stroke="midnightblue" d="M229.51,-224.2C240.11,-215.24 256.9,-200.89 271,-188 297.45,-163.82 304.87,-158.49 329,-132 343.23,-116.38 358.18,-97.39 368.37,-83.98"/>
<polygon fill="midnightblue" stroke="midnightblue" points="371.39,-85.79 374.6,-75.7 365.79,-81.59 371.39,-85.79"/>
</g>
<!-- Node6 -->
<g id="node6" class="node">
<title>Node6</title>
<g id="a_node6"><a xlink:href="Cast_8h.html" target="_top" xlink:title=" ">
<polygon fill="white" stroke="black" points="579.5,-56.5 579.5,-75.5 626.5,-75.5 626.5,-56.5 579.5,-56.5"/>
<text text-anchor="middle" x="603" y="-63.5" font-family="Helvetica,sans-Serif" font-size="10.00">Cast.h</text>
</a>
</g>
</g>
<!-- Node5&#45;&gt;Node6 -->
<g id="edge5" class="edge">
<title>Node5&#45;&gt;Node6</title>
<path fill="none" stroke="midnightblue" d="M552.3,-170.93C595.24,-163.92 656.65,-150.88 671,-132 686.34,-111.82 658.09,-92.23 633.47,-79.92"/>
<polygon fill="midnightblue" stroke="midnightblue" points="634.84,-76.69 624.31,-75.57 631.84,-83.02 634.84,-76.69"/>
</g>
<!-- Node7 -->
<g id="node7" class="node">
<title>Node7</title>
<g id="a_node7"><a xlink:href="Type__info_8h.html" target="_top" xlink:title=" ">
<polygon fill="white" stroke="black" points="376,-112.5 376,-131.5 448,-131.5 448,-112.5 376,-112.5"/>
<text text-anchor="middle" x="412" y="-119.5" font-family="Helvetica,sans-Serif" font-size="10.00">Type_info.h</text>
</a>
</g>
</g>
<!-- Node5&#45;&gt;Node7 -->
<g id="edge6" class="edge">
<title>Node5&#45;&gt;Node7</title>
<path fill="none" stroke="midnightblue" d="M493.42,-168.32C478,-159.74 454.19,-146.49 436.29,-136.52"/>
<polygon fill="midnightblue" stroke="midnightblue" points="437.99,-133.46 427.55,-131.65 434.58,-139.58 437.99,-133.46"/>
</g>
<!-- Node8 -->
<g id="node8" class="node">
<title>Node8</title>
<g id="a_node8"><a xlink:href="Declare__Base_8h.html" target="_top" xlink:title=" ">
<polygon fill="white" stroke="black" points="570,-112.5 570,-131.5 662,-131.5 662,-112.5 570,-112.5"/>
<text text-anchor="middle" x="616" y="-119.5" font-family="Helvetica,sans-Serif" font-size="10.00">Declare_Base.h</text>
</a>
</g>
</g>
<!-- Node5&#45;&gt;Node8 -->
<g id="edge7" class="edge">
<title>Node5&#45;&gt;Node8</title>
<path fill="none" stroke="midnightblue" d="M526.19,-168.32C543.35,-159.66 569.95,-146.24 589.75,-136.25"/>
<polygon fill="midnightblue" stroke="midnightblue" points="591.5,-139.28 598.85,-131.65 588.35,-133.04 591.5,-139.28"/>
</g>
<!-- Node9 -->
<g id="node9" class="node">
<title>Node9</title>
<g id="a_node9"><a xlink:href="Declare__Inst_8h.html" target="_top" xlink:title=" ">
<polygon fill="white" stroke="black" points="466,-112.5 466,-131.5 552,-131.5 552,-112.5 466,-112.5"/>
<text text-anchor="middle" x="509" y="-119.5" font-family="Helvetica,sans-Serif" font-size="10.00">Declare_Inst.h</text>
</a>
</g>
</g>
<!-- Node5&#45;&gt;Node9 -->
<g id="edge8" class="edge">
<title>Node5&#45;&gt;Node9</title>
<path fill="none" stroke="midnightblue" d="M509,-168.08C509,-161.01 509,-150.86 509,-141.99"/>
<polygon fill="midnightblue" stroke="midnightblue" points="512.5,-141.75 509,-131.75 505.5,-141.75 512.5,-141.75"/>
</g>
<!-- Node9&#45;&gt;Node6 -->
<g id="edge9" class="edge">
<title>Node9&#45;&gt;Node6</title>
<path fill="none" stroke="midnightblue" d="M524.1,-112.32C538.9,-103.82 561.69,-90.73 578.98,-80.8"/>
<polygon fill="midnightblue" stroke="midnightblue" points="581.01,-83.67 587.93,-75.65 577.52,-77.6 581.01,-83.67"/>
</g>
<!-- Node11 -->
<g id="node11" class="node">
<title>Node11</title>
<g id="a_node11"><a xlink:href="Entree_8h.html" target="_top" xlink:title=" ">
<polygon fill="white" stroke="black" points="190.5,-112.5 190.5,-131.5 247.5,-131.5 247.5,-112.5 190.5,-112.5"/>
<text text-anchor="middle" x="219" y="-119.5" font-family="Helvetica,sans-Serif" font-size="10.00">Entree.h</text>
</a>
</g>
</g>
<!-- Node10&#45;&gt;Node11 -->
<g id="edge11" class="edge">
<title>Node10&#45;&gt;Node11</title>
<path fill="none" stroke="midnightblue" d="M219,-168.08C219,-161.01 219,-150.86 219,-141.99"/>
<polygon fill="midnightblue" stroke="midnightblue" points="222.5,-141.75 219,-131.75 215.5,-141.75 222.5,-141.75"/>
</g>
<!-- Node18 -->
<g id="node18" class="node">
<title>Node18</title>
<g id="a_node18"><a xlink:href="Sortie_8h.html" target="_top" xlink:title=" ">
<polygon fill="white" stroke="black" points="266,-112.5 266,-131.5 320,-131.5 320,-112.5 266,-112.5"/>
<text text-anchor="middle" x="293" y="-119.5" font-family="Helvetica,sans-Serif" font-size="10.00">Sortie.h</text>
</a>
</g>
</g>
<!-- Node10&#45;&gt;Node18 -->
<g id="edge19" class="edge">
<title>Node10&#45;&gt;Node18</title>
<path fill="none" stroke="midnightblue" d="M230.89,-168.32C242.15,-160.11 259.29,-147.6 272.71,-137.81"/>
<polygon fill="midnightblue" stroke="midnightblue" points="274.88,-140.56 280.89,-131.83 270.75,-134.9 274.88,-140.56"/>
</g>
<!-- Node20 -->
<g id="node20" class="node">
<title>Node20</title>
<g id="a_node20"><a xlink:href="Separateur_8h.html" target="_top" xlink:title=" ">
<polygon fill="white" stroke="black" points="94,-112.5 94,-131.5 172,-131.5 172,-112.5 94,-112.5"/>
<text text-anchor="middle" x="133" y="-119.5" font-family="Helvetica,sans-Serif" font-size="10.00">Separateur.h</text>
</a>
</g>
</g>
<!-- Node10&#45;&gt;Node20 -->
<g id="edge24" class="edge">
<title>Node10&#45;&gt;Node20</title>
<path fill="none" stroke="midnightblue" d="M205.18,-168.32C191.77,-159.9 171.18,-146.97 155.41,-137.07"/>
<polygon fill="midnightblue" stroke="midnightblue" points="157.11,-134.01 146.78,-131.65 153.39,-139.94 157.11,-134.01"/>
</g>
<!-- Node11&#45;&gt;Node4 -->
<g id="edge15" class="edge">
<title>Node11&#45;&gt;Node4</title>
<path fill="none" stroke="midnightblue" d="M190.41,-112.92C157.3,-103.56 102.65,-88.1 65.99,-77.74"/>
<polygon fill="midnightblue" stroke="midnightblue" points="66.74,-74.32 56.17,-74.96 64.84,-81.05 66.74,-74.32"/>
</g>
<!-- Node12 -->
<g id="node12" class="node">
<title>Node12</title>
<g id="a_node12"><a xlink:title=" ">
<polygon fill="white" stroke="#bfbfbf" points="138,-56.5 138,-75.5 188,-75.5 188,-56.5 138,-56.5"/>
<text text-anchor="middle" x="163" y="-63.5" font-family="Helvetica,sans-Serif" font-size="10.00">stdio.h</text>
</a>
</g>
</g>
<!-- Node11&#45;&gt;Node12 -->
<g id="edge12" class="edge">
<title>Node11&#45;&gt;Node12</title>
<path fill="none" stroke="midnightblue" d="M210,-112.32C201.81,-104.42 189.49,-92.55 179.53,-82.94"/>
<polygon fill="midnightblue" stroke="midnightblue" points="181.79,-80.26 172.16,-75.83 176.93,-85.29 181.79,-80.26"/>
</g>
<!-- Node13 -->
<g id="node13" class="node">
<title>Node13</title>
<g id="a_node13"><a xlink:title=" ">
<polygon fill="white" stroke="#bfbfbf" points="74,-56.5 74,-75.5 120,-75.5 120,-56.5 74,-56.5"/>
<text text-anchor="middle" x="97" y="-63.5" font-family="Helvetica,sans-Serif" font-size="10.00">cstdio</text>
</a>
</g>
</g>
<!-- Node11&#45;&gt;Node13 -->
<g id="edge13" class="edge">
<title>Node11&#45;&gt;Node13</title>
<path fill="none" stroke="midnightblue" d="M199.67,-112.44C179.68,-103.6 148.26,-89.69 125.44,-79.59"/>
<polygon fill="midnightblue" stroke="midnightblue" points="126.8,-76.36 116.24,-75.52 123.97,-82.76 126.8,-76.36"/>
</g>
<!-- Node14 -->
<g id="node14" class="node">
<title>Node14</title>
<g id="a_node14"><a xlink:title=" ">
<polygon fill="white" stroke="#bfbfbf" points="206,-56.5 206,-75.5 266,-75.5 266,-56.5 206,-56.5"/>
<text text-anchor="middle" x="236" y="-63.5" font-family="Helvetica,sans-Serif" font-size="10.00">iostream</text>
</a>
</g>
</g>
<!-- Node11&#45;&gt;Node14 -->
<g id="edge14" class="edge">
<title>Node11&#45;&gt;Node14</title>
<path fill="none" stroke="midnightblue" d="M221.81,-112.08C224.08,-104.85 227.37,-94.41 230.21,-85.4"/>
<polygon fill="midnightblue" stroke="midnightblue" points="233.58,-86.34 233.25,-75.75 226.9,-84.24 233.58,-86.34"/>
</g>
<!-- Node11&#45;&gt;Node15 -->
<g id="edge16" class="edge">
<title>Node11&#45;&gt;Node15</title>
<path fill="none" stroke="midnightblue" d="M244.67,-112.44C271.92,-103.36 315.18,-88.94 345.65,-78.78"/>
<polygon fill="midnightblue" stroke="midnightblue" points="347.07,-82 355.45,-75.52 344.86,-75.36 347.07,-82"/>
</g>
<!-- Node16 -->
<g id="node16" class="node">
<title>Node16</title>
<g id="a_node16"><a xlink:href="arch_8h.html" target="_top" xlink:title=" ">
<polygon fill="white" stroke="black" points="284.5,-56.5 284.5,-75.5 331.5,-75.5 331.5,-56.5 284.5,-56.5"/>
<text text-anchor="middle" x="308" y="-63.5" font-family="Helvetica,sans-Serif" font-size="10.00">arch.h</text>
</a>
</g>
</g>
<!-- Node11&#45;&gt;Node16 -->
<g id="edge17" class="edge">
<title>Node11&#45;&gt;Node16</title>
<path fill="none" stroke="midnightblue" d="M233.3,-112.32C247.18,-103.9 268.49,-90.97 284.8,-81.07"/>
<polygon fill="midnightblue" stroke="midnightblue" points="287,-83.83 293.74,-75.65 283.37,-77.85 287,-83.83"/>
</g>
<!-- Node17 -->
<g id="node17" class="node">
<title>Node17</title>
<g id="a_node17"><a xlink:href="generique_8h.html" target="_top" xlink:title=" ">
<polygon fill="white" stroke="black" points="271,-0.5 271,-19.5 345,-19.5 345,-0.5 271,-0.5"/>
<text text-anchor="middle" x="308" y="-7.5" font-family="Helvetica,sans-Serif" font-size="10.00">generique.h</text>
</a>
</g>
</g>
<!-- Node16&#45;&gt;Node17 -->
<g id="edge18" class="edge">
<title>Node16&#45;&gt;Node17</title>
<path fill="none" stroke="midnightblue" d="M308,-56.08C308,-49.01 308,-38.86 308,-29.99"/>
<polygon fill="midnightblue" stroke="midnightblue" points="311.5,-29.75 308,-19.75 304.5,-29.75 311.5,-29.75"/>
</g>
<!-- Node18&#45;&gt;Node4 -->
<g id="edge21" class="edge">
<title>Node18&#45;&gt;Node4</title>
<path fill="none" stroke="midnightblue" d="M265.96,-114.25C262.61,-113.47 259.23,-112.7 256,-112 174.61,-94.44 151.12,-94.21 66.08,-76.14"/>
<polygon fill="midnightblue" stroke="midnightblue" points="66.76,-72.71 56.25,-74.03 65.29,-79.55 66.76,-72.71"/>
</g>
<!-- Node18&#45;&gt;Node14 -->
<g id="edge20" class="edge">
<title>Node18&#45;&gt;Node14</title>
<path fill="none" stroke="midnightblue" d="M283.84,-112.32C275.5,-104.42 262.97,-92.55 252.82,-82.94"/>
<polygon fill="midnightblue" stroke="midnightblue" points="254.99,-80.17 245.32,-75.83 250.18,-85.25 254.99,-80.17"/>
</g>
<!-- Node18&#45;&gt;Node16 -->
<g id="edge22" class="edge">
<title>Node18&#45;&gt;Node16</title>
<path fill="none" stroke="midnightblue" d="M295.48,-112.08C297.49,-104.85 300.39,-94.41 302.89,-85.4"/>
<polygon fill="midnightblue" stroke="midnightblue" points="306.26,-86.32 305.57,-75.75 299.52,-84.45 306.26,-86.32"/>
</g>
<!-- Node19 -->
<g id="node19" class="node">
<title>Node19</title>
<g id="a_node19"><a xlink:title=" ">
<polygon fill="white" stroke="#bfbfbf" points="431,-56.5 431,-75.5 475,-75.5 475,-56.5 431,-56.5"/>
<text text-anchor="middle" x="453" y="-63.5" font-family="Helvetica,sans-Serif" font-size="10.00">string</text>
</a>
</g>
</g>
<!-- Node18&#45;&gt;Node19 -->
<g id="edge23" class="edge">
<title>Node18&#45;&gt;Node19</title>
<path fill="none" stroke="midnightblue" d="M318.35,-112.44C346.22,-103.04 391.03,-87.91 421.22,-77.72"/>
<polygon fill="midnightblue" stroke="midnightblue" points="422.5,-80.99 430.86,-74.47 420.26,-74.35 422.5,-80.99"/>
</g>
</g>
</svg>
