<?xml version="1.0" encoding="UTF-8" standalone="no"?>
<!DOCTYPE svg PUBLIC "-//W3C//DTD SVG 1.1//EN"
 "http://www.w3.org/Graphics/SVG/1.1/DTD/svg11.dtd">
<!-- Generated by graphviz version 2.43.0 (0)
 -->
<!-- Title: src/Kernel/MEDimpl/MergeMEDfiles.cpp Pages: 1 -->
<svg width="918pt" height="655pt"
 viewBox="0.00 0.00 917.50 655.00" xmlns="http://www.w3.org/2000/svg" xmlns:xlink="http://www.w3.org/1999/xlink">
<g id="graph0" class="graph" transform="scale(1 1) rotate(0) translate(4 651)">
<title>src/Kernel/MEDimpl/MergeMEDfiles.cpp</title>
<polygon fill="white" stroke="transparent" points="-4,4 -4,-651 913.5,-651 913.5,4 -4,4"/>
<!-- Node1 -->
<g id="node1" class="node">
<title>Node1</title>
<g id="a_node1"><a xlink:title=" ">
<polygon fill="#bfbfbf" stroke="black" points="660.5,-616.5 660.5,-646.5 773.5,-646.5 773.5,-616.5 660.5,-616.5"/>
<text text-anchor="start" x="668.5" y="-634.5" font-family="Helvetica,sans-Serif" font-size="10.00">src/Kernel/MEDimpl</text>
<text text-anchor="middle" x="717" y="-623.5" font-family="Helvetica,sans-Serif" font-size="10.00">/MergeMEDfiles.cpp</text>
</a>
</g>
</g>
<!-- Node2 -->
<g id="node2" class="node">
<title>Node2</title>
<g id="a_node2"><a xlink:href="MergeMEDfiles_8h.html" target="_top" xlink:title=" ">
<polygon fill="white" stroke="black" points="622.5,-560.5 622.5,-579.5 721.5,-579.5 721.5,-560.5 622.5,-560.5"/>
<text text-anchor="middle" x="672" y="-567.5" font-family="Helvetica,sans-Serif" font-size="10.00">MergeMEDfiles.h</text>
</a>
</g>
</g>
<!-- Node1&#45;&gt;Node2 -->
<g id="edge1" class="edge">
<title>Node1&#45;&gt;Node2</title>
<path fill="none" stroke="midnightblue" d="M706.34,-616.4C699.86,-607.84 691.57,-596.87 684.75,-587.86"/>
<polygon fill="midnightblue" stroke="midnightblue" points="687.37,-585.52 678.55,-579.66 681.79,-589.74 687.37,-585.52"/>
</g>
<!-- Node26 -->
<g id="node26" class="node">
<title>Node26</title>
<g id="a_node26"><a xlink:href="Nom_8h.html" target="_top" xlink:title=" ">
<polygon fill="white" stroke="black" points="544.5,-280.5 544.5,-299.5 593.5,-299.5 593.5,-280.5 544.5,-280.5"/>
<text text-anchor="middle" x="569" y="-287.5" font-family="Helvetica,sans-Serif" font-size="10.00">Nom.h</text>
</a>
</g>
</g>
<!-- Node1&#45;&gt;Node26 -->
<g id="edge37" class="edge">
<title>Node1&#45;&gt;Node26</title>
<path fill="none" stroke="midnightblue" d="M669.12,-616.43C649.63,-608.54 628.35,-596.81 614,-580 594.37,-557.01 594,-545.23 594,-515 594,-515 594,-515 594,-401 594,-368 583.17,-330.77 575.76,-309.19"/>
<polygon fill="midnightblue" stroke="midnightblue" points="579.03,-307.93 572.37,-299.69 572.43,-310.28 579.03,-307.93"/>
</g>
<!-- Node29 -->
<g id="node29" class="node">
<title>Node29</title>
<g id="a_node29"><a xlink:title=" ">
<polygon fill="white" stroke="#bfbfbf" points="739.5,-560.5 739.5,-579.5 786.5,-579.5 786.5,-560.5 739.5,-560.5"/>
<text text-anchor="middle" x="763" y="-567.5" font-family="Helvetica,sans-Serif" font-size="10.00">glob.h</text>
</a>
</g>
</g>
<!-- Node1&#45;&gt;Node29 -->
<g id="edge38" class="edge">
<title>Node1&#45;&gt;Node29</title>
<path fill="none" stroke="midnightblue" d="M727.9,-616.4C734.59,-607.75 743.18,-596.64 750.18,-587.58"/>
<polygon fill="midnightblue" stroke="midnightblue" points="752.96,-589.71 756.31,-579.66 747.42,-585.43 752.96,-589.71"/>
</g>
<!-- Node30 -->
<g id="node30" class="node">
<title>Node30</title>
<g id="a_node30"><a xlink:title=" ">
<polygon fill="white" stroke="#bfbfbf" points="804.5,-560.5 804.5,-579.5 909.5,-579.5 909.5,-560.5 804.5,-560.5"/>
<text text-anchor="middle" x="857" y="-567.5" font-family="Helvetica,sans-Serif" font-size="10.00">medcoupling++.h</text>
</a>
</g>
</g>
<!-- Node1&#45;&gt;Node30 -->
<g id="edge39" class="edge">
<title>Node1&#45;&gt;Node30</title>
<path fill="none" stroke="midnightblue" d="M750.18,-616.4C773.56,-606.46 804.61,-593.26 827.21,-583.66"/>
<polygon fill="midnightblue" stroke="midnightblue" points="828.79,-586.79 836.63,-579.66 826.06,-580.35 828.79,-586.79"/>
</g>
<!-- Node3 -->
<g id="node3" class="node">
<title>Node3</title>
<g id="a_node3"><a xlink:href="Interprete_8h.html" target="_top" xlink:title=" ">
<polygon fill="white" stroke="black" points="492,-504.5 492,-523.5 566,-523.5 566,-504.5 492,-504.5"/>
<text text-anchor="middle" x="529" y="-511.5" font-family="Helvetica,sans-Serif" font-size="10.00">Interprete.h</text>
</a>
</g>
</g>
<!-- Node2&#45;&gt;Node3 -->
<g id="edge2" class="edge">
<title>Node2&#45;&gt;Node3</title>
<path fill="none" stroke="midnightblue" d="M649.34,-560.44C625.6,-551.48 588.09,-537.31 561.26,-527.18"/>
<polygon fill="midnightblue" stroke="midnightblue" points="562.14,-523.77 551.55,-523.52 559.67,-530.32 562.14,-523.77"/>
</g>
<!-- Node24 -->
<g id="node24" class="node">
<title>Node24</title>
<g id="a_node24"><a xlink:title=" ">
<polygon fill="white" stroke="#bfbfbf" points="673,-56.5 673,-75.5 717,-75.5 717,-56.5 673,-56.5"/>
<text text-anchor="middle" x="695" y="-63.5" font-family="Helvetica,sans-Serif" font-size="10.00">string</text>
</a>
</g>
</g>
<!-- Node2&#45;&gt;Node24 -->
<g id="edge36" class="edge">
<title>Node2&#45;&gt;Node24</title>
<path fill="none" stroke="midnightblue" d="M672,-560.44C672,-541.94 672,-496.81 672,-459 672,-459 672,-459 672,-177 672,-144.12 681.97,-106.86 688.78,-85.24"/>
<polygon fill="midnightblue" stroke="midnightblue" points="692.11,-86.3 691.9,-75.71 685.46,-84.12 692.11,-86.3"/>
</g>
<!-- Node28 -->
<g id="node28" class="node">
<title>Node28</title>
<g id="a_node28"><a xlink:title=" ">
<polygon fill="white" stroke="#bfbfbf" points="700.5,-504.5 700.5,-523.5 747.5,-523.5 747.5,-504.5 700.5,-504.5"/>
<text text-anchor="middle" x="724" y="-511.5" font-family="Helvetica,sans-Serif" font-size="10.00">vector</text>
</a>
</g>
</g>
<!-- Node2&#45;&gt;Node28 -->
<g id="edge35" class="edge">
<title>Node2&#45;&gt;Node28</title>
<path fill="none" stroke="midnightblue" d="M680.59,-560.08C688.16,-552.22 699.38,-540.57 708.51,-531.08"/>
<polygon fill="midnightblue" stroke="midnightblue" points="711.16,-533.38 715.57,-523.75 706.12,-528.53 711.16,-533.38"/>
</g>
<!-- Node4 -->
<g id="node4" class="node">
<title>Node4</title>
<g id="a_node4"><a xlink:href="Ref_8h.html" target="_top" xlink:title=" ">
<polygon fill="white" stroke="black" points="508.5,-448.5 508.5,-467.5 549.5,-467.5 549.5,-448.5 508.5,-448.5"/>
<text text-anchor="middle" x="529" y="-455.5" font-family="Helvetica,sans-Serif" font-size="10.00">Ref.h</text>
</a>
</g>
</g>
<!-- Node3&#45;&gt;Node4 -->
<g id="edge3" class="edge">
<title>Node3&#45;&gt;Node4</title>
<path fill="none" stroke="midnightblue" d="M529,-504.08C529,-497.01 529,-486.86 529,-477.99"/>
<polygon fill="midnightblue" stroke="midnightblue" points="532.5,-477.75 529,-467.75 525.5,-477.75 532.5,-477.75"/>
</g>
<!-- Node5 -->
<g id="node5" class="node">
<title>Node5</title>
<g id="a_node5"><a xlink:href="MacRef_8h.html" target="_top" xlink:title=" ">
<polygon fill="white" stroke="black" points="498,-392.5 498,-411.5 560,-411.5 560,-392.5 498,-392.5"/>
<text text-anchor="middle" x="529" y="-399.5" font-family="Helvetica,sans-Serif" font-size="10.00">MacRef.h</text>
</a>
</g>
</g>
<!-- Node4&#45;&gt;Node5 -->
<g id="edge4" class="edge">
<title>Node4&#45;&gt;Node5</title>
<path fill="none" stroke="midnightblue" d="M529,-448.08C529,-441.01 529,-430.86 529,-421.99"/>
<polygon fill="midnightblue" stroke="midnightblue" points="532.5,-421.75 529,-411.75 525.5,-421.75 532.5,-421.75"/>
</g>
<!-- Node6 -->
<g id="node6" class="node">
<title>Node6</title>
<g id="a_node6"><a xlink:href="Ref___8h.html" target="_top" xlink:title=" ">
<polygon fill="white" stroke="black" points="505.5,-336.5 505.5,-355.5 552.5,-355.5 552.5,-336.5 505.5,-336.5"/>
<text text-anchor="middle" x="529" y="-343.5" font-family="Helvetica,sans-Serif" font-size="10.00">Ref_.h</text>
</a>
</g>
</g>
<!-- Node5&#45;&gt;Node6 -->
<g id="edge5" class="edge">
<title>Node5&#45;&gt;Node6</title>
<path fill="none" stroke="midnightblue" d="M529,-392.08C529,-385.01 529,-374.86 529,-365.99"/>
<polygon fill="midnightblue" stroke="midnightblue" points="532.5,-365.75 529,-355.75 525.5,-365.75 532.5,-365.75"/>
</g>
<!-- Node7 -->
<g id="node7" class="node">
<title>Node7</title>
<g id="a_node7"><a xlink:href="O__U__Ptr_8h.html" target="_top" xlink:title=" ">
<polygon fill="white" stroke="black" points="462,-280.5 462,-299.5 526,-299.5 526,-280.5 462,-280.5"/>
<text text-anchor="middle" x="494" y="-287.5" font-family="Helvetica,sans-Serif" font-size="10.00">O_U_Ptr.h</text>
</a>
</g>
</g>
<!-- Node6&#45;&gt;Node7 -->
<g id="edge6" class="edge">
<title>Node6&#45;&gt;Node7</title>
<path fill="none" stroke="midnightblue" d="M523.22,-336.08C518.33,-328.53 511.17,-317.49 505.17,-308.23"/>
<polygon fill="midnightblue" stroke="midnightblue" points="508.05,-306.24 499.67,-299.75 502.17,-310.05 508.05,-306.24"/>
</g>
<!-- Node6&#45;&gt;Node26 -->
<g id="edge31" class="edge">
<title>Node6&#45;&gt;Node26</title>
<path fill="none" stroke="midnightblue" d="M535.61,-336.08C541.26,-328.46 549.54,-317.26 556.45,-307.94"/>
<polygon fill="midnightblue" stroke="midnightblue" points="559.38,-309.87 562.52,-299.75 553.75,-305.7 559.38,-309.87"/>
</g>
<!-- Node8 -->
<g id="node8" class="node">
<title>Node8</title>
<g id="a_node8"><a xlink:href="Objet__U_8h.html" target="_top" xlink:title=" ">
<polygon fill="white" stroke="black" points="432.5,-224.5 432.5,-243.5 497.5,-243.5 497.5,-224.5 432.5,-224.5"/>
<text text-anchor="middle" x="465" y="-231.5" font-family="Helvetica,sans-Serif" font-size="10.00">Objet_U.h</text>
</a>
</g>
</g>
<!-- Node7&#45;&gt;Node8 -->
<g id="edge7" class="edge">
<title>Node7&#45;&gt;Node8</title>
<path fill="none" stroke="midnightblue" d="M489.21,-280.08C485.24,-272.69 479.47,-261.95 474.57,-252.81"/>
<polygon fill="midnightblue" stroke="midnightblue" points="477.51,-250.91 469.7,-243.75 471.35,-254.22 477.51,-250.91"/>
</g>
<!-- Node9 -->
<g id="node9" class="node">
<title>Node9</title>
<g id="a_node9"><a xlink:title=" ">
<polygon fill="white" stroke="#bfbfbf" points="391,-56.5 391,-75.5 447,-75.5 447,-56.5 391,-56.5"/>
<text text-anchor="middle" x="419" y="-63.5" font-family="Helvetica,sans-Serif" font-size="10.00">assert.h</text>
</a>
</g>
</g>
<!-- Node8&#45;&gt;Node9 -->
<g id="edge8" class="edge">
<title>Node8&#45;&gt;Node9</title>
<path fill="none" stroke="midnightblue" d="M457.85,-224.26C444.79,-207.59 417.71,-169.55 410,-132 406.81,-116.48 409.75,-98.64 413.09,-85.58"/>
<polygon fill="midnightblue" stroke="midnightblue" points="416.47,-86.47 415.87,-75.89 409.75,-84.54 416.47,-86.47"/>
</g>
<!-- Node10 -->
<g id="node10" class="node">
<title>Node10</title>
<g id="a_node10"><a xlink:href="DecBaseInst_8h.html" target="_top" xlink:title=" ">
<polygon fill="white" stroke="black" points="135,-168.5 135,-187.5 221,-187.5 221,-168.5 135,-168.5"/>
<text text-anchor="middle" x="178" y="-175.5" font-family="Helvetica,sans-Serif" font-size="10.00">DecBaseInst.h</text>
</a>
</g>
</g>
<!-- Node8&#45;&gt;Node10 -->
<g id="edge9" class="edge">
<title>Node8&#45;&gt;Node10</title>
<path fill="none" stroke="midnightblue" d="M432.36,-226.86C383.33,-217.63 290.17,-200.1 231.22,-189.01"/>
<polygon fill="midnightblue" stroke="midnightblue" points="231.82,-185.57 221.35,-187.16 230.53,-192.45 231.82,-185.57"/>
</g>
<!-- Node15 -->
<g id="node15" class="node">
<title>Node15</title>
<g id="a_node15"><a xlink:href="EntreeSortie_8h.html" target="_top" xlink:title=" ">
<polygon fill="white" stroke="black" points="443,-168.5 443,-187.5 529,-187.5 529,-168.5 443,-168.5"/>
<text text-anchor="middle" x="486" y="-175.5" font-family="Helvetica,sans-Serif" font-size="10.00">EntreeSortie.h</text>
</a>
</g>
</g>
<!-- Node8&#45;&gt;Node15 -->
<g id="edge15" class="edge">
<title>Node8&#45;&gt;Node15</title>
<path fill="none" stroke="midnightblue" d="M468.47,-224.08C471.31,-216.77 475.43,-206.18 478.96,-197.1"/>
<polygon fill="midnightblue" stroke="midnightblue" points="482.23,-198.34 482.6,-187.75 475.71,-195.8 482.23,-198.34"/>
</g>
<!-- Node20 -->
<g id="node20" class="node">
<title>Node20</title>
<g id="a_node20"><a xlink:href="Process_8h.html" target="_top" xlink:title=" ">
<polygon fill="white" stroke="black" points="241.5,-56.5 241.5,-75.5 304.5,-75.5 304.5,-56.5 241.5,-56.5"/>
<text text-anchor="middle" x="273" y="-63.5" font-family="Helvetica,sans-Serif" font-size="10.00">Process.h</text>
</a>
</g>
</g>
<!-- Node8&#45;&gt;Node20 -->
<g id="edge30" class="edge">
<title>Node8&#45;&gt;Node20</title>
<path fill="none" stroke="midnightblue" d="M456.31,-224.47C435.57,-204.26 381.32,-152.1 333,-112 320.22,-101.4 305.29,-90.19 293.52,-81.62"/>
<polygon fill="midnightblue" stroke="midnightblue" points="295.38,-78.64 285.22,-75.63 291.28,-84.32 295.38,-78.64"/>
</g>
<!-- Node11 -->
<g id="node11" class="node">
<title>Node11</title>
<g id="a_node11"><a xlink:href="Cast_8h.html" target="_top" xlink:title=" ">
<polygon fill="white" stroke="black" points="55.5,-56.5 55.5,-75.5 102.5,-75.5 102.5,-56.5 55.5,-56.5"/>
<text text-anchor="middle" x="79" y="-63.5" font-family="Helvetica,sans-Serif" font-size="10.00">Cast.h</text>
</a>
</g>
</g>
<!-- Node10&#45;&gt;Node11 -->
<g id="edge10" class="edge">
<title>Node10&#45;&gt;Node11</title>
<path fill="none" stroke="midnightblue" d="M168.79,-168.27C159.51,-159.38 144.91,-145.06 133,-132 118.4,-115.99 102.68,-96.83 91.99,-83.47"/>
<polygon fill="midnightblue" stroke="midnightblue" points="94.71,-81.27 85.75,-75.63 89.23,-85.63 94.71,-81.27"/>
</g>
<!-- Node12 -->
<g id="node12" class="node">
<title>Node12</title>
<g id="a_node12"><a xlink:href="Type__info_8h.html" target="_top" xlink:title=" ">
<polygon fill="white" stroke="black" points="142,-112.5 142,-131.5 214,-131.5 214,-112.5 142,-112.5"/>
<text text-anchor="middle" x="178" y="-119.5" font-family="Helvetica,sans-Serif" font-size="10.00">Type_info.h</text>
</a>
</g>
</g>
<!-- Node10&#45;&gt;Node12 -->
<g id="edge11" class="edge">
<title>Node10&#45;&gt;Node12</title>
<path fill="none" stroke="midnightblue" d="M178,-168.08C178,-161.01 178,-150.86 178,-141.99"/>
<polygon fill="midnightblue" stroke="midnightblue" points="181.5,-141.75 178,-131.75 174.5,-141.75 181.5,-141.75"/>
</g>
<!-- Node13 -->
<g id="node13" class="node">
<title>Node13</title>
<g id="a_node13"><a xlink:href="Declare__Base_8h.html" target="_top" xlink:title=" ">
<polygon fill="white" stroke="black" points="232,-112.5 232,-131.5 324,-131.5 324,-112.5 232,-112.5"/>
<text text-anchor="middle" x="278" y="-119.5" font-family="Helvetica,sans-Serif" font-size="10.00">Declare_Base.h</text>
</a>
</g>
</g>
<!-- Node10&#45;&gt;Node13 -->
<g id="edge12" class="edge">
<title>Node10&#45;&gt;Node13</title>
<path fill="none" stroke="midnightblue" d="M194.07,-168.32C209.96,-159.74 234.51,-146.49 252.96,-136.52"/>
<polygon fill="midnightblue" stroke="midnightblue" points="254.84,-139.49 261.97,-131.65 251.51,-133.33 254.84,-139.49"/>
</g>
<!-- Node14 -->
<g id="node14" class="node">
<title>Node14</title>
<g id="a_node14"><a xlink:href="Declare__Inst_8h.html" target="_top" xlink:title=" ">
<polygon fill="white" stroke="black" points="0,-112.5 0,-131.5 86,-131.5 86,-112.5 0,-112.5"/>
<text text-anchor="middle" x="43" y="-119.5" font-family="Helvetica,sans-Serif" font-size="10.00">Declare_Inst.h</text>
</a>
</g>
</g>
<!-- Node10&#45;&gt;Node14 -->
<g id="edge13" class="edge">
<title>Node10&#45;&gt;Node14</title>
<path fill="none" stroke="midnightblue" d="M156.61,-168.44C134.29,-159.52 99.1,-145.44 73.79,-135.32"/>
<polygon fill="midnightblue" stroke="midnightblue" points="74.88,-131.98 64.29,-131.52 72.28,-138.48 74.88,-131.98"/>
</g>
<!-- Node14&#45;&gt;Node11 -->
<g id="edge14" class="edge">
<title>Node14&#45;&gt;Node11</title>
<path fill="none" stroke="midnightblue" d="M48.94,-112.08C53.98,-104.53 61.34,-93.49 67.51,-84.23"/>
<polygon fill="midnightblue" stroke="midnightblue" points="70.53,-86.01 73.17,-75.75 64.71,-82.13 70.53,-86.01"/>
</g>
<!-- Node16 -->
<g id="node16" class="node">
<title>Node16</title>
<g id="a_node16"><a xlink:href="Entree_8h.html" target="_top" xlink:title=" ">
<polygon fill="white" stroke="black" points="418.5,-112.5 418.5,-131.5 475.5,-131.5 475.5,-112.5 418.5,-112.5"/>
<text text-anchor="middle" x="447" y="-119.5" font-family="Helvetica,sans-Serif" font-size="10.00">Entree.h</text>
</a>
</g>
</g>
<!-- Node15&#45;&gt;Node16 -->
<g id="edge16" class="edge">
<title>Node15&#45;&gt;Node16</title>
<path fill="none" stroke="midnightblue" d="M479.56,-168.08C474.05,-160.46 465.97,-149.26 459.24,-139.94"/>
<polygon fill="midnightblue" stroke="midnightblue" points="462.01,-137.81 453.32,-131.75 456.34,-141.91 462.01,-137.81"/>
</g>
<!-- Node23 -->
<g id="node23" class="node">
<title>Node23</title>
<g id="a_node23"><a xlink:href="Sortie_8h.html" target="_top" xlink:title=" ">
<polygon fill="white" stroke="black" points="590,-112.5 590,-131.5 644,-131.5 644,-112.5 590,-112.5"/>
<text text-anchor="middle" x="617" y="-119.5" font-family="Helvetica,sans-Serif" font-size="10.00">Sortie.h</text>
</a>
</g>
</g>
<!-- Node15&#45;&gt;Node23 -->
<g id="edge24" class="edge">
<title>Node15&#45;&gt;Node23</title>
<path fill="none" stroke="midnightblue" d="M506.76,-168.44C528.32,-159.56 562.26,-145.56 586.79,-135.45"/>
<polygon fill="midnightblue" stroke="midnightblue" points="588.43,-138.56 596.34,-131.52 585.76,-132.09 588.43,-138.56"/>
</g>
<!-- Node25 -->
<g id="node25" class="node">
<title>Node25</title>
<g id="a_node25"><a xlink:href="Separateur_8h.html" target="_top" xlink:title=" ">
<polygon fill="white" stroke="black" points="494,-112.5 494,-131.5 572,-131.5 572,-112.5 494,-112.5"/>
<text text-anchor="middle" x="533" y="-119.5" font-family="Helvetica,sans-Serif" font-size="10.00">Separateur.h</text>
</a>
</g>
</g>
<!-- Node15&#45;&gt;Node25 -->
<g id="edge29" class="edge">
<title>Node15&#45;&gt;Node25</title>
<path fill="none" stroke="midnightblue" d="M493.76,-168.08C500.54,-160.3 510.54,-148.8 518.76,-139.37"/>
<polygon fill="midnightblue" stroke="midnightblue" points="521.46,-141.59 525.38,-131.75 516.18,-137 521.46,-141.59"/>
</g>
<!-- Node16&#45;&gt;Node9 -->
<g id="edge20" class="edge">
<title>Node16&#45;&gt;Node9</title>
<path fill="none" stroke="midnightblue" d="M442.38,-112.08C438.54,-104.69 432.98,-93.95 428.24,-84.81"/>
<polygon fill="midnightblue" stroke="midnightblue" points="431.25,-83.02 423.54,-75.75 425.03,-86.24 431.25,-83.02"/>
</g>
<!-- Node17 -->
<g id="node17" class="node">
<title>Node17</title>
<g id="a_node17"><a xlink:title=" ">
<polygon fill="white" stroke="#bfbfbf" points="323,-56.5 323,-75.5 373,-75.5 373,-56.5 323,-56.5"/>
<text text-anchor="middle" x="348" y="-63.5" font-family="Helvetica,sans-Serif" font-size="10.00">stdio.h</text>
</a>
</g>
</g>
<!-- Node16&#45;&gt;Node17 -->
<g id="edge17" class="edge">
<title>Node16&#45;&gt;Node17</title>
<path fill="none" stroke="midnightblue" d="M431.09,-112.32C415.36,-103.74 391.06,-90.49 372.79,-80.52"/>
<polygon fill="midnightblue" stroke="midnightblue" points="374.32,-77.37 363.87,-75.65 370.97,-83.52 374.32,-77.37"/>
</g>
<!-- Node18 -->
<g id="node18" class="node">
<title>Node18</title>
<g id="a_node18"><a xlink:title=" ">
<polygon fill="white" stroke="#bfbfbf" points="465,-56.5 465,-75.5 511,-75.5 511,-56.5 465,-56.5"/>
<text text-anchor="middle" x="488" y="-63.5" font-family="Helvetica,sans-Serif" font-size="10.00">cstdio</text>
</a>
</g>
</g>
<!-- Node16&#45;&gt;Node18 -->
<g id="edge18" class="edge">
<title>Node16&#45;&gt;Node18</title>
<path fill="none" stroke="midnightblue" d="M453.77,-112.08C459.56,-104.46 468.06,-93.26 475.14,-83.94"/>
<polygon fill="midnightblue" stroke="midnightblue" points="478.1,-85.83 481.36,-75.75 472.52,-81.6 478.1,-85.83"/>
</g>
<!-- Node19 -->
<g id="node19" class="node">
<title>Node19</title>
<g id="a_node19"><a xlink:title=" ">
<polygon fill="white" stroke="#bfbfbf" points="529,-56.5 529,-75.5 589,-75.5 589,-56.5 529,-56.5"/>
<text text-anchor="middle" x="559" y="-63.5" font-family="Helvetica,sans-Serif" font-size="10.00">iostream</text>
</a>
</g>
</g>
<!-- Node16&#45;&gt;Node19 -->
<g id="edge19" class="edge">
<title>Node16&#45;&gt;Node19</title>
<path fill="none" stroke="midnightblue" d="M464.99,-112.32C483.04,-103.62 511.05,-90.12 531.8,-80.11"/>
<polygon fill="midnightblue" stroke="midnightblue" points="533.56,-83.15 541.05,-75.65 530.52,-76.84 533.56,-83.15"/>
</g>
<!-- Node16&#45;&gt;Node20 -->
<g id="edge21" class="edge">
<title>Node16&#45;&gt;Node20</title>
<path fill="none" stroke="midnightblue" d="M419.43,-112.44C389.9,-103.28 342.88,-88.69 310.12,-78.52"/>
<polygon fill="midnightblue" stroke="midnightblue" points="311.03,-75.14 300.44,-75.52 308.96,-81.82 311.03,-75.14"/>
</g>
<!-- Node21 -->
<g id="node21" class="node">
<title>Node21</title>
<g id="a_node21"><a xlink:href="arch_8h.html" target="_top" xlink:title=" ">
<polygon fill="white" stroke="black" points="607.5,-56.5 607.5,-75.5 654.5,-75.5 654.5,-56.5 607.5,-56.5"/>
<text text-anchor="middle" x="631" y="-63.5" font-family="Helvetica,sans-Serif" font-size="10.00">arch.h</text>
</a>
</g>
</g>
<!-- Node16&#45;&gt;Node21 -->
<g id="edge22" class="edge">
<title>Node16&#45;&gt;Node21</title>
<path fill="none" stroke="midnightblue" d="M475.75,-112.56C508.78,-102.87 562.88,-86.99 597.7,-76.77"/>
<polygon fill="midnightblue" stroke="midnightblue" points="598.81,-80.1 607.42,-73.92 596.83,-73.38 598.81,-80.1"/>
</g>
<!-- Node22 -->
<g id="node22" class="node">
<title>Node22</title>
<g id="a_node22"><a xlink:href="generique_8h.html" target="_top" xlink:title=" ">
<polygon fill="white" stroke="black" points="594,-0.5 594,-19.5 668,-19.5 668,-0.5 594,-0.5"/>
<text text-anchor="middle" x="631" y="-7.5" font-family="Helvetica,sans-Serif" font-size="10.00">generique.h</text>
</a>
</g>
</g>
<!-- Node21&#45;&gt;Node22 -->
<g id="edge23" class="edge">
<title>Node21&#45;&gt;Node22</title>
<path fill="none" stroke="midnightblue" d="M631,-56.08C631,-49.01 631,-38.86 631,-29.99"/>
<polygon fill="midnightblue" stroke="midnightblue" points="634.5,-29.75 631,-19.75 627.5,-29.75 634.5,-29.75"/>
</g>
<!-- Node23&#45;&gt;Node9 -->
<g id="edge26" class="edge">
<title>Node23&#45;&gt;Node9</title>
<path fill="none" stroke="midnightblue" d="M589.88,-113.6C555.47,-104.22 495.9,-87.97 456.97,-77.36"/>
<polygon fill="midnightblue" stroke="midnightblue" points="457.63,-73.91 447.06,-74.65 455.79,-80.66 457.63,-73.91"/>
</g>
<!-- Node23&#45;&gt;Node19 -->
<g id="edge25" class="edge">
<title>Node23&#45;&gt;Node19</title>
<path fill="none" stroke="midnightblue" d="M607.68,-112.32C599.11,-104.34 586.19,-92.31 575.81,-82.65"/>
<polygon fill="midnightblue" stroke="midnightblue" points="578.19,-80.09 568.49,-75.83 573.42,-85.21 578.19,-80.09"/>
</g>
<!-- Node23&#45;&gt;Node21 -->
<g id="edge27" class="edge">
<title>Node23&#45;&gt;Node21</title>
<path fill="none" stroke="midnightblue" d="M619.31,-112.08C621.17,-104.93 623.84,-94.64 626.15,-85.69"/>
<polygon fill="midnightblue" stroke="midnightblue" points="629.61,-86.31 628.73,-75.75 622.83,-84.55 629.61,-86.31"/>
</g>
<!-- Node23&#45;&gt;Node24 -->
<g id="edge28" class="edge">
<title>Node23&#45;&gt;Node24</title>
<path fill="none" stroke="midnightblue" d="M629.53,-112.32C641.59,-103.98 660.03,-91.21 674.27,-81.35"/>
<polygon fill="midnightblue" stroke="midnightblue" points="676.27,-84.22 682.5,-75.65 672.28,-78.47 676.27,-84.22"/>
</g>
<!-- Node26&#45;&gt;Node8 -->
<g id="edge32" class="edge">
<title>Node26&#45;&gt;Node8</title>
<path fill="none" stroke="midnightblue" d="M552.29,-280.32C535.69,-271.7 510,-258.36 490.78,-248.39"/>
<polygon fill="midnightblue" stroke="midnightblue" points="492.16,-245.16 481.67,-243.65 488.93,-251.37 492.16,-245.16"/>
</g>
<!-- Node26&#45;&gt;Node24 -->
<g id="edge34" class="edge">
<title>Node26&#45;&gt;Node24</title>
<path fill="none" stroke="midnightblue" d="M577.94,-280.47C600.48,-258.38 659.66,-196.51 686,-132 692,-117.32 694.13,-99.38 694.83,-86.07"/>
<polygon fill="midnightblue" stroke="midnightblue" points="698.34,-85.87 695.14,-75.77 691.34,-85.66 698.34,-85.87"/>
</g>
<!-- Node27 -->
<g id="node27" class="node">
<title>Node27</title>
<g id="a_node27"><a xlink:title=" ">
<polygon fill="white" stroke="#bfbfbf" points="544,-224.5 544,-243.5 594,-243.5 594,-224.5 544,-224.5"/>
<text text-anchor="middle" x="569" y="-231.5" font-family="Helvetica,sans-Serif" font-size="10.00">cstring</text>
</a>
</g>
</g>
<!-- Node26&#45;&gt;Node27 -->
<g id="edge33" class="edge">
<title>Node26&#45;&gt;Node27</title>
<path fill="none" stroke="midnightblue" d="M569,-280.08C569,-273.01 569,-262.86 569,-253.99"/>
<polygon fill="midnightblue" stroke="midnightblue" points="572.5,-253.75 569,-243.75 565.5,-253.75 572.5,-253.75"/>
</g>
</g>
</svg>
