<?xml version="1.0" encoding="UTF-8" standalone="no"?>
<!DOCTYPE svg PUBLIC "-//W3C//DTD SVG 1.1//EN"
 "http://www.w3.org/Graphics/SVG/1.1/DTD/svg11.dtd">
<!-- Generated by graphviz version 2.43.0 (0)
 -->
<!-- Title: src/ThHyd/Dilatable/Common/Modifier_pour_fluide_dilatable.h Pages: 1 -->
<svg width="943pt" height="295pt"
 viewBox="0.00 0.00 943.00 295.00" xmlns="http://www.w3.org/2000/svg" xmlns:xlink="http://www.w3.org/1999/xlink">
<g id="graph0" class="graph" transform="scale(1 1) rotate(0) translate(4 291)">
<title>src/ThHyd/Dilatable/Common/Modifier_pour_fluide_dilatable.h</title>
<polygon fill="white" stroke="transparent" points="-4,4 -4,-291 939,-291 939,4 -4,4"/>
<!-- Node1 -->
<g id="node1" class="node">
<title>Node1</title>
<g id="a_node1"><a xlink:title=" ">
<polygon fill="#bfbfbf" stroke="black" points="405,-245.5 405,-286.5 539,-286.5 539,-245.5 405,-245.5"/>
<text text-anchor="start" x="413" y="-274.5" font-family="Helvetica,sans-Serif" font-size="10.00">src/ThHyd/Dilatable</text>
<text text-anchor="start" x="413" y="-263.5" font-family="Helvetica,sans-Serif" font-size="10.00">/Common/Modifier_pour</text>
<text text-anchor="middle" x="472" y="-252.5" font-family="Helvetica,sans-Serif" font-size="10.00">_fluide_dilatable.h</text>
</a>
</g>
</g>
<!-- Node2 -->
<g id="node2" class="node">
<title>Node2</title>
<g id="a_node2"><a xlink:href="Modifier__pour__fluide__dilatable_8cpp.html" target="_top" xlink:title=" ">
<polygon fill="white" stroke="black" points="0,-162 0,-203 134,-203 134,-162 0,-162"/>
<text text-anchor="start" x="8" y="-191" font-family="Helvetica,sans-Serif" font-size="10.00">src/ThHyd/Dilatable</text>
<text text-anchor="start" x="8" y="-180" font-family="Helvetica,sans-Serif" font-size="10.00">/Common/Modifier_pour</text>
<text text-anchor="middle" x="67" y="-169" font-family="Helvetica,sans-Serif" font-size="10.00">_fluide_dilatable.cpp</text>
</a>
</g>
</g>
<!-- Node1&#45;&gt;Node2 -->
<g id="edge1" class="edge">
<title>Node1&#45;&gt;Node2</title>
<path fill="none" stroke="midnightblue" d="M394.76,-255.16C327.85,-245.85 228.77,-230.14 144,-209 137.03,-207.26 129.78,-205.2 122.64,-203.02"/>
<polygon fill="midnightblue" stroke="midnightblue" points="394.41,-258.65 404.8,-256.55 395.37,-251.72 394.41,-258.65"/>
</g>
<!-- Node3 -->
<g id="node3" class="node">
<title>Node3</title>
<g id="a_node3"><a xlink:href="Source__Fluide__Dilatable__Face_8h.html" target="_top" xlink:title=" ">
<polygon fill="white" stroke="black" points="152.5,-162 152.5,-203 293.5,-203 293.5,-162 152.5,-162"/>
<text text-anchor="start" x="160.5" y="-191" font-family="Helvetica,sans-Serif" font-size="10.00">src/ThHyd/Dilatable</text>
<text text-anchor="start" x="160.5" y="-180" font-family="Helvetica,sans-Serif" font-size="10.00">/Common/Sources/Source</text>
<text text-anchor="middle" x="223" y="-169" font-family="Helvetica,sans-Serif" font-size="10.00">_Fluide_Dilatable_Face.h</text>
</a>
</g>
</g>
<!-- Node1&#45;&gt;Node3 -->
<g id="edge2" class="edge">
<title>Node1&#45;&gt;Node3</title>
<path fill="none" stroke="midnightblue" d="M402.46,-242.24C364.76,-229.9 318.63,-214.8 282.59,-203"/>
<polygon fill="midnightblue" stroke="midnightblue" points="401.77,-245.69 412.36,-245.48 403.94,-239.04 401.77,-245.69"/>
</g>
<!-- Node8 -->
<g id="node8" class="node">
<title>Node8</title>
<g id="a_node8"><a xlink:href="Champ__Generique__modifier__pour__QC_8cpp.html" target="_top" xlink:title=" ">
<polygon fill="white" stroke="black" points="311.5,-156.5 311.5,-208.5 466.5,-208.5 466.5,-156.5 311.5,-156.5"/>
<text text-anchor="start" x="319.5" y="-196.5" font-family="Helvetica,sans-Serif" font-size="10.00">src/ThHyd/Dilatable</text>
<text text-anchor="start" x="319.5" y="-185.5" font-family="Helvetica,sans-Serif" font-size="10.00">/Quasi_Compressible</text>
<text text-anchor="start" x="319.5" y="-174.5" font-family="Helvetica,sans-Serif" font-size="10.00">/Champ_Generique_modifier</text>
<text text-anchor="middle" x="389" y="-163.5" font-family="Helvetica,sans-Serif" font-size="10.00">_pour_QC.cpp</text>
</a>
</g>
</g>
<!-- Node1&#45;&gt;Node8 -->
<g id="edge7" class="edge">
<title>Node1&#45;&gt;Node8</title>
<path fill="none" stroke="midnightblue" d="M444.75,-238.24C435.04,-228.71 424.14,-218 414.57,-208.61"/>
<polygon fill="midnightblue" stroke="midnightblue" points="442.32,-240.76 451.91,-245.27 447.22,-235.77 442.32,-240.76"/>
</g>
<!-- Node9 -->
<g id="node9" class="node">
<title>Node9</title>
<g id="a_node9"><a xlink:href="Source__QC__QDM__Gen_8cpp.html" target="_top" xlink:title=" ">
<polygon fill="white" stroke="black" points="484.5,-156.5 484.5,-208.5 627.5,-208.5 627.5,-156.5 484.5,-156.5"/>
<text text-anchor="start" x="492.5" y="-196.5" font-family="Helvetica,sans-Serif" font-size="10.00">src/ThHyd/Dilatable</text>
<text text-anchor="start" x="492.5" y="-185.5" font-family="Helvetica,sans-Serif" font-size="10.00">/Quasi_Compressible</text>
<text text-anchor="start" x="492.5" y="-174.5" font-family="Helvetica,sans-Serif" font-size="10.00">/Sources/Source_QC_QDM</text>
<text text-anchor="middle" x="556" y="-163.5" font-family="Helvetica,sans-Serif" font-size="10.00">_Gen.cpp</text>
</a>
</g>
</g>
<!-- Node1&#45;&gt;Node9 -->
<g id="edge8" class="edge">
<title>Node1&#45;&gt;Node9</title>
<path fill="none" stroke="midnightblue" d="M499.58,-238.24C509.41,-228.71 520.44,-218 530.12,-208.61"/>
<polygon fill="midnightblue" stroke="midnightblue" points="497.07,-235.8 492.33,-245.27 501.95,-240.82 497.07,-235.8"/>
</g>
<!-- Node10 -->
<g id="node10" class="node">
<title>Node10</title>
<g id="a_node10"><a xlink:href="Op__Conv__VDF__base_8cpp.html" target="_top" xlink:title=" ">
<polygon fill="white" stroke="black" points="645.5,-162 645.5,-203 780.5,-203 780.5,-162 645.5,-162"/>
<text text-anchor="start" x="653.5" y="-191" font-family="Helvetica,sans-Serif" font-size="10.00">src/VDF/Operateurs</text>
<text text-anchor="start" x="653.5" y="-180" font-family="Helvetica,sans-Serif" font-size="10.00">/Op_Conv/Op_Conv_VDF</text>
<text text-anchor="middle" x="713" y="-169" font-family="Helvetica,sans-Serif" font-size="10.00">_base.cpp</text>
</a>
</g>
</g>
<!-- Node1&#45;&gt;Node10 -->
<g id="edge9" class="edge">
<title>Node1&#45;&gt;Node10</title>
<path fill="none" stroke="midnightblue" d="M539.3,-242.24C575.8,-229.9 620.44,-214.8 655.33,-203"/>
<polygon fill="midnightblue" stroke="midnightblue" points="538.08,-238.96 529.73,-245.48 540.32,-245.59 538.08,-238.96"/>
</g>
<!-- Node11 -->
<g id="node11" class="node">
<title>Node11</title>
<g id="a_node11"><a xlink:href="Op__Conv__VEF__base_8cpp.html" target="_top" xlink:title=" ">
<polygon fill="white" stroke="black" points="799,-167.5 799,-197.5 935,-197.5 935,-167.5 799,-167.5"/>
<text text-anchor="start" x="807" y="-185.5" font-family="Helvetica,sans-Serif" font-size="10.00">src/VEF/Operateurs</text>
<text text-anchor="middle" x="867" y="-174.5" font-family="Helvetica,sans-Serif" font-size="10.00">/Op_Conv_VEF_base.cpp</text>
</a>
</g>
</g>
<!-- Node1&#45;&gt;Node11 -->
<g id="edge10" class="edge">
<title>Node1&#45;&gt;Node11</title>
<path fill="none" stroke="midnightblue" d="M549.43,-254.58C614.24,-245.1 708.87,-229.46 790,-209 802.56,-205.83 816.04,-201.65 828.15,-197.59"/>
<polygon fill="midnightblue" stroke="midnightblue" points="548.69,-251.16 539.29,-256.05 549.69,-258.08 548.69,-251.16"/>
</g>
<!-- Node4 -->
<g id="node4" class="node">
<title>Node4</title>
<g id="a_node4"><a xlink:href="Source__QC__VDF__Face_8h.html" target="_top" xlink:title=" ">
<polygon fill="white" stroke="black" points="54.5,-78.5 54.5,-119.5 211.5,-119.5 211.5,-78.5 54.5,-78.5"/>
<text text-anchor="start" x="62.5" y="-107.5" font-family="Helvetica,sans-Serif" font-size="10.00">src/ThHyd/Dilatable</text>
<text text-anchor="start" x="62.5" y="-96.5" font-family="Helvetica,sans-Serif" font-size="10.00">/Quasi_Compressible</text>
<text text-anchor="middle" x="133" y="-85.5" font-family="Helvetica,sans-Serif" font-size="10.00">/VDF/Source_QC_VDF_Face.h</text>
</a>
</g>
</g>
<!-- Node3&#45;&gt;Node4 -->
<g id="edge3" class="edge">
<title>Node3&#45;&gt;Node4</title>
<path fill="none" stroke="midnightblue" d="M193.59,-154.86C180.88,-143.35 166.27,-130.13 154.59,-119.55"/>
<polygon fill="midnightblue" stroke="midnightblue" points="191.45,-157.65 201.21,-161.77 196.15,-152.46 191.45,-157.65"/>
</g>
<!-- Node6 -->
<g id="node6" class="node">
<title>Node6</title>
<g id="a_node6"><a xlink:href="Source__QC__VEF__P1NC_8h.html" target="_top" xlink:title=" ">
<polygon fill="white" stroke="black" points="233,-78.5 233,-119.5 391,-119.5 391,-78.5 233,-78.5"/>
<text text-anchor="start" x="241" y="-107.5" font-family="Helvetica,sans-Serif" font-size="10.00">src/ThHyd/Dilatable</text>
<text text-anchor="start" x="241" y="-96.5" font-family="Helvetica,sans-Serif" font-size="10.00">/Quasi_Compressible</text>
<text text-anchor="middle" x="312" y="-85.5" font-family="Helvetica,sans-Serif" font-size="10.00">/VEF/Source_QC_VEF_P1NC.h</text>
</a>
</g>
</g>
<!-- Node3&#45;&gt;Node6 -->
<g id="edge5" class="edge">
<title>Node3&#45;&gt;Node6</title>
<path fill="none" stroke="midnightblue" d="M252.09,-154.86C264.66,-143.35 279.1,-130.13 290.65,-119.55"/>
<polygon fill="midnightblue" stroke="midnightblue" points="249.56,-152.44 244.54,-161.77 254.28,-157.6 249.56,-152.44"/>
</g>
<!-- Node5 -->
<g id="node5" class="node">
<title>Node5</title>
<g id="a_node5"><a xlink:href="Source__QC__VDF__Face_8cpp.html" target="_top" xlink:title=" ">
<polygon fill="white" stroke="black" points="44,-0.5 44,-41.5 212,-41.5 212,-0.5 44,-0.5"/>
<text text-anchor="start" x="52" y="-29.5" font-family="Helvetica,sans-Serif" font-size="10.00">src/ThHyd/Dilatable</text>
<text text-anchor="start" x="52" y="-18.5" font-family="Helvetica,sans-Serif" font-size="10.00">/Quasi_Compressible</text>
<text text-anchor="middle" x="128" y="-7.5" font-family="Helvetica,sans-Serif" font-size="10.00">/VDF/Source_QC_VDF_Face.cpp</text>
</a>
</g>
</g>
<!-- Node4&#45;&gt;Node5 -->
<g id="edge4" class="edge">
<title>Node4&#45;&gt;Node5</title>
<path fill="none" stroke="midnightblue" d="M131.05,-68.3C130.45,-59.3 129.82,-49.65 129.28,-41.51"/>
<polygon fill="midnightblue" stroke="midnightblue" points="127.56,-68.68 131.71,-78.43 134.55,-68.22 127.56,-68.68"/>
</g>
<!-- Node7 -->
<g id="node7" class="node">
<title>Node7</title>
<g id="a_node7"><a xlink:href="Source__QC__VEF__P1NC_8cpp.html" target="_top" xlink:title=" ">
<polygon fill="white" stroke="black" points="230,-0.5 230,-41.5 400,-41.5 400,-0.5 230,-0.5"/>
<text text-anchor="start" x="238" y="-29.5" font-family="Helvetica,sans-Serif" font-size="10.00">src/ThHyd/Dilatable</text>
<text text-anchor="start" x="238" y="-18.5" font-family="Helvetica,sans-Serif" font-size="10.00">/Quasi_Compressible</text>
<text text-anchor="middle" x="315" y="-7.5" font-family="Helvetica,sans-Serif" font-size="10.00">/VEF/Source_QC_VEF_P1NC.cpp</text>
</a>
</g>
</g>
<!-- Node6&#45;&gt;Node7 -->
<g id="edge6" class="edge">
<title>Node6&#45;&gt;Node7</title>
<path fill="none" stroke="midnightblue" d="M313.17,-68.3C313.53,-59.3 313.91,-49.65 314.23,-41.51"/>
<polygon fill="midnightblue" stroke="midnightblue" points="309.67,-68.3 312.77,-78.43 316.66,-68.57 309.67,-68.3"/>
</g>
</g>
</svg>
