<?xml version="1.0" encoding="UTF-8" standalone="no"?>
<!DOCTYPE svg PUBLIC "-//W3C//DTD SVG 1.1//EN"
 "http://www.w3.org/Graphics/SVG/1.1/DTD/svg11.dtd">
<!-- Generated by graphviz version 2.43.0 (0)
 -->
<!-- Title: src/Kernel/Utilitaires/Objet_a_lire.cpp Pages: 1 -->
<svg width="962pt" height="1103pt"
 viewBox="0.00 0.00 962.00 1103.00" xmlns="http://www.w3.org/2000/svg" xmlns:xlink="http://www.w3.org/1999/xlink">
<g id="graph0" class="graph" transform="scale(1 1) rotate(0) translate(4 1099)">
<title>src/Kernel/Utilitaires/Objet_a_lire.cpp</title>
<polygon fill="white" stroke="transparent" points="-4,4 -4,-1099 958,-1099 958,4 -4,4"/>
<!-- Node1 -->
<g id="node1" class="node">
<title>Node1</title>
<g id="a_node1"><a xlink:title=" ">
<polygon fill="#bfbfbf" stroke="black" points="503,-1064.5 503,-1094.5 619,-1094.5 619,-1064.5 503,-1064.5"/>
<text text-anchor="start" x="511" y="-1082.5" font-family="Helvetica,sans-Serif" font-size="10.00">src/Kernel/Utilitaires</text>
<text text-anchor="middle" x="561" y="-1071.5" font-family="Helvetica,sans-Serif" font-size="10.00">/Objet_a_lire.cpp</text>
</a>
</g>
</g>
<!-- Node2 -->
<g id="node2" class="node">
<title>Node2</title>
<g id="a_node2"><a xlink:href="Entree__complete_8h.html" target="_top" xlink:title=" ">
<polygon fill="white" stroke="black" points="235,-1008.5 235,-1027.5 343,-1027.5 343,-1008.5 235,-1008.5"/>
<text text-anchor="middle" x="289" y="-1015.5" font-family="Helvetica,sans-Serif" font-size="10.00">Entree_complete.h</text>
</a>
</g>
</g>
<!-- Node1&#45;&gt;Node2 -->
<g id="edge1" class="edge">
<title>Node1&#45;&gt;Node2</title>
<path fill="none" stroke="midnightblue" d="M502.98,-1065.81C453.85,-1055.06 384.21,-1039.83 337.88,-1029.69"/>
<polygon fill="midnightblue" stroke="midnightblue" points="338.59,-1026.26 328.07,-1027.55 337.09,-1033.1 338.59,-1026.26"/>
</g>
<!-- Node13 -->
<g id="node13" class="node">
<title>Node13</title>
<g id="a_node13"><a xlink:href="Objet__a__lire_8h.html" target="_top" xlink:title=" ">
<polygon fill="white" stroke="black" points="547,-952.5 547,-971.5 631,-971.5 631,-952.5 547,-952.5"/>
<text text-anchor="middle" x="589" y="-959.5" font-family="Helvetica,sans-Serif" font-size="10.00">Objet_a_lire.h</text>
</a>
</g>
</g>
<!-- Node1&#45;&gt;Node13 -->
<g id="edge12" class="edge">
<title>Node1&#45;&gt;Node13</title>
<path fill="none" stroke="midnightblue" d="M564.43,-1064.34C569.48,-1043.53 578.9,-1004.66 584.49,-981.58"/>
<polygon fill="midnightblue" stroke="midnightblue" points="587.94,-982.21 586.9,-971.67 581.14,-980.56 587.94,-982.21"/>
</g>
<!-- Node54 -->
<g id="node54" class="node">
<title>Node54</title>
<g id="a_node54"><a xlink:href="Param_8h.html" target="_top" xlink:title=" ">
<polygon fill="white" stroke="black" points="589,-1008.5 589,-1027.5 645,-1027.5 645,-1008.5 589,-1008.5"/>
<text text-anchor="middle" x="617" y="-1015.5" font-family="Helvetica,sans-Serif" font-size="10.00">Param.h</text>
</a>
</g>
</g>
<!-- Node1&#45;&gt;Node54 -->
<g id="edge79" class="edge">
<title>Node1&#45;&gt;Node54</title>
<path fill="none" stroke="midnightblue" d="M574.27,-1064.4C582.58,-1055.58 593.3,-1044.18 601.92,-1035.02"/>
<polygon fill="midnightblue" stroke="midnightblue" points="604.55,-1037.34 608.85,-1027.66 599.45,-1032.54 604.55,-1037.34"/>
</g>
<!-- Node3 -->
<g id="node3" class="node">
<title>Node3</title>
<g id="a_node3"><a xlink:href="EChaine_8h.html" target="_top" xlink:title=" ">
<polygon fill="white" stroke="black" points="132.5,-952.5 132.5,-971.5 197.5,-971.5 197.5,-952.5 132.5,-952.5"/>
<text text-anchor="middle" x="165" y="-959.5" font-family="Helvetica,sans-Serif" font-size="10.00">EChaine.h</text>
</a>
</g>
</g>
<!-- Node2&#45;&gt;Node3 -->
<g id="edge2" class="edge">
<title>Node2&#45;&gt;Node3</title>
<path fill="none" stroke="midnightblue" d="M269.35,-1008.44C249.04,-999.6 217.1,-985.69 193.9,-975.59"/>
<polygon fill="midnightblue" stroke="midnightblue" points="195.12,-972.3 184.56,-971.52 192.33,-978.72 195.12,-972.3"/>
</g>
<!-- Node4 -->
<g id="node4" class="node">
<title>Node4</title>
<g id="a_node4"><a xlink:href="Entree_8h.html" target="_top" xlink:title=" ">
<polygon fill="white" stroke="black" points="168.5,-112.5 168.5,-131.5 225.5,-131.5 225.5,-112.5 168.5,-112.5"/>
<text text-anchor="middle" x="197" y="-119.5" font-family="Helvetica,sans-Serif" font-size="10.00">Entree.h</text>
</a>
</g>
</g>
<!-- Node3&#45;&gt;Node4 -->
<g id="edge3" class="edge">
<title>Node3&#45;&gt;Node4</title>
<path fill="none" stroke="midnightblue" d="M132.4,-954.64C84.32,-943.14 0,-914 0,-851 0,-851 0,-851 0,-289 0,-216.88 72.31,-235.02 127,-188 145.92,-171.73 166.78,-152.13 180.77,-138.74"/>
<polygon fill="midnightblue" stroke="midnightblue" points="183.36,-141.1 188.14,-131.64 178.51,-136.05 183.36,-141.1"/>
</g>
<!-- Node12 -->
<g id="node12" class="node">
<title>Node12</title>
<g id="a_node12"><a xlink:title=" ">
<polygon fill="white" stroke="#bfbfbf" points="137,-896.5 137,-915.5 193,-915.5 193,-896.5 137,-896.5"/>
<text text-anchor="middle" x="165" y="-903.5" font-family="Helvetica,sans-Serif" font-size="10.00">sstream</text>
</a>
</g>
</g>
<!-- Node3&#45;&gt;Node12 -->
<g id="edge11" class="edge">
<title>Node3&#45;&gt;Node12</title>
<path fill="none" stroke="midnightblue" d="M165,-952.08C165,-945.01 165,-934.86 165,-925.99"/>
<polygon fill="midnightblue" stroke="midnightblue" points="168.5,-925.75 165,-915.75 161.5,-925.75 168.5,-925.75"/>
</g>
<!-- Node5 -->
<g id="node5" class="node">
<title>Node5</title>
<g id="a_node5"><a xlink:title=" ">
<polygon fill="white" stroke="#bfbfbf" points="91,-56.5 91,-75.5 141,-75.5 141,-56.5 91,-56.5"/>
<text text-anchor="middle" x="116" y="-63.5" font-family="Helvetica,sans-Serif" font-size="10.00">stdio.h</text>
</a>
</g>
</g>
<!-- Node4&#45;&gt;Node5 -->
<g id="edge4" class="edge">
<title>Node4&#45;&gt;Node5</title>
<path fill="none" stroke="midnightblue" d="M183.99,-112.32C171.47,-103.98 152.32,-91.21 137.53,-81.35"/>
<polygon fill="midnightblue" stroke="midnightblue" points="139.24,-78.29 128.98,-75.65 135.36,-84.11 139.24,-78.29"/>
</g>
<!-- Node6 -->
<g id="node6" class="node">
<title>Node6</title>
<g id="a_node6"><a xlink:title=" ">
<polygon fill="white" stroke="#bfbfbf" points="237,-56.5 237,-75.5 283,-75.5 283,-56.5 237,-56.5"/>
<text text-anchor="middle" x="260" y="-63.5" font-family="Helvetica,sans-Serif" font-size="10.00">cstdio</text>
</a>
</g>
</g>
<!-- Node4&#45;&gt;Node6 -->
<g id="edge5" class="edge">
<title>Node4&#45;&gt;Node6</title>
<path fill="none" stroke="midnightblue" d="M207.12,-112.32C216.53,-104.26 230.74,-92.08 242.07,-82.37"/>
<polygon fill="midnightblue" stroke="midnightblue" points="244.38,-85 249.69,-75.83 239.82,-79.68 244.38,-85"/>
</g>
<!-- Node7 -->
<g id="node7" class="node">
<title>Node7</title>
<g id="a_node7"><a xlink:title=" ">
<polygon fill="white" stroke="#bfbfbf" points="159,-56.5 159,-75.5 219,-75.5 219,-56.5 159,-56.5"/>
<text text-anchor="middle" x="189" y="-63.5" font-family="Helvetica,sans-Serif" font-size="10.00">iostream</text>
</a>
</g>
</g>
<!-- Node4&#45;&gt;Node7 -->
<g id="edge6" class="edge">
<title>Node4&#45;&gt;Node7</title>
<path fill="none" stroke="midnightblue" d="M195.68,-112.08C194.62,-104.93 193.09,-94.64 191.77,-85.69"/>
<polygon fill="midnightblue" stroke="midnightblue" points="195.22,-85.13 190.3,-75.75 188.3,-86.16 195.22,-85.13"/>
</g>
<!-- Node8 -->
<g id="node8" class="node">
<title>Node8</title>
<g id="a_node8"><a xlink:title=" ">
<polygon fill="white" stroke="#bfbfbf" points="383,-56.5 383,-75.5 439,-75.5 439,-56.5 383,-56.5"/>
<text text-anchor="middle" x="411" y="-63.5" font-family="Helvetica,sans-Serif" font-size="10.00">assert.h</text>
</a>
</g>
</g>
<!-- Node4&#45;&gt;Node8 -->
<g id="edge7" class="edge">
<title>Node4&#45;&gt;Node8</title>
<path fill="none" stroke="midnightblue" d="M225.86,-113.72C263.91,-104.12 330.94,-87.2 373.06,-76.57"/>
<polygon fill="midnightblue" stroke="midnightblue" points="374.1,-79.92 382.94,-74.08 372.38,-73.13 374.1,-79.92"/>
</g>
<!-- Node9 -->
<g id="node9" class="node">
<title>Node9</title>
<g id="a_node9"><a xlink:href="Process_8h.html" target="_top" xlink:title=" ">
<polygon fill="white" stroke="black" points="301.5,-56.5 301.5,-75.5 364.5,-75.5 364.5,-56.5 301.5,-56.5"/>
<text text-anchor="middle" x="333" y="-63.5" font-family="Helvetica,sans-Serif" font-size="10.00">Process.h</text>
</a>
</g>
</g>
<!-- Node4&#45;&gt;Node9 -->
<g id="edge8" class="edge">
<title>Node4&#45;&gt;Node9</title>
<path fill="none" stroke="midnightblue" d="M218.55,-112.44C241.03,-103.52 276.49,-89.44 301.98,-79.32"/>
<polygon fill="midnightblue" stroke="midnightblue" points="303.55,-82.46 311.55,-75.52 300.97,-75.95 303.55,-82.46"/>
</g>
<!-- Node10 -->
<g id="node10" class="node">
<title>Node10</title>
<g id="a_node10"><a xlink:href="arch_8h.html" target="_top" xlink:title=" ">
<polygon fill="white" stroke="black" points="25.5,-56.5 25.5,-75.5 72.5,-75.5 72.5,-56.5 25.5,-56.5"/>
<text text-anchor="middle" x="49" y="-63.5" font-family="Helvetica,sans-Serif" font-size="10.00">arch.h</text>
</a>
</g>
</g>
<!-- Node4&#45;&gt;Node10 -->
<g id="edge9" class="edge">
<title>Node4&#45;&gt;Node10</title>
<path fill="none" stroke="midnightblue" d="M173.55,-112.44C148.87,-103.44 109.81,-89.19 82.02,-79.05"/>
<polygon fill="midnightblue" stroke="midnightblue" points="82.94,-75.66 72.34,-75.52 80.54,-82.23 82.94,-75.66"/>
</g>
<!-- Node11 -->
<g id="node11" class="node">
<title>Node11</title>
<g id="a_node11"><a xlink:href="generique_8h.html" target="_top" xlink:title=" ">
<polygon fill="white" stroke="black" points="12,-0.5 12,-19.5 86,-19.5 86,-0.5 12,-0.5"/>
<text text-anchor="middle" x="49" y="-7.5" font-family="Helvetica,sans-Serif" font-size="10.00">generique.h</text>
</a>
</g>
</g>
<!-- Node10&#45;&gt;Node11 -->
<g id="edge10" class="edge">
<title>Node10&#45;&gt;Node11</title>
<path fill="none" stroke="midnightblue" d="M49,-56.08C49,-49.01 49,-38.86 49,-29.99"/>
<polygon fill="midnightblue" stroke="midnightblue" points="52.5,-29.75 49,-19.75 45.5,-29.75 52.5,-29.75"/>
</g>
<!-- Node14 -->
<g id="node14" class="node">
<title>Node14</title>
<g id="a_node14"><a xlink:href="TRUSTArray_8h.html" target="_top" xlink:title=" ">
<polygon fill="white" stroke="black" points="254,-448.5 254,-467.5 336,-467.5 336,-448.5 254,-448.5"/>
<text text-anchor="middle" x="295" y="-455.5" font-family="Helvetica,sans-Serif" font-size="10.00">TRUSTArray.h</text>
</a>
</g>
</g>
<!-- Node13&#45;&gt;Node14 -->
<g id="edge13" class="edge">
<title>Node13&#45;&gt;Node14</title>
<path fill="none" stroke="midnightblue" d="M546.58,-955.32C490.86,-945.21 400,-918.39 400,-851 400,-851 400,-851 400,-569 400,-524.02 353.49,-490.19 322.38,-472.59"/>
<polygon fill="midnightblue" stroke="midnightblue" points="323.75,-469.35 313.29,-467.65 320.41,-475.5 323.75,-469.35"/>
</g>
<!-- Node18 -->
<g id="node18" class="node">
<title>Node18</title>
<g id="a_node18"><a xlink:href="Objet__U_8h.html" target="_top" xlink:title=" ">
<polygon fill="white" stroke="black" points="503.5,-224.5 503.5,-243.5 568.5,-243.5 568.5,-224.5 503.5,-224.5"/>
<text text-anchor="middle" x="536" y="-231.5" font-family="Helvetica,sans-Serif" font-size="10.00">Objet_U.h</text>
</a>
</g>
</g>
<!-- Node13&#45;&gt;Node18 -->
<g id="edge78" class="edge">
<title>Node13&#45;&gt;Node18</title>
<path fill="none" stroke="midnightblue" d="M589,-952.44C589,-933.94 589,-888.81 589,-851 589,-851 589,-851 589,-345 589,-308.99 565.67,-272.34 549.96,-251.75"/>
<polygon fill="midnightblue" stroke="midnightblue" points="552.55,-249.38 543.59,-243.72 547.07,-253.73 552.55,-249.38"/>
</g>
<!-- Node38 -->
<g id="node38" class="node">
<title>Node38</title>
<g id="a_node38"><a xlink:href="List__Nom_8h.html" target="_top" xlink:title=" ">
<polygon fill="white" stroke="black" points="670.5,-896.5 670.5,-915.5 741.5,-915.5 741.5,-896.5 670.5,-896.5"/>
<text text-anchor="middle" x="706" y="-903.5" font-family="Helvetica,sans-Serif" font-size="10.00">List_Nom.h</text>
</a>
</g>
</g>
<!-- Node13&#45;&gt;Node38 -->
<g id="edge52" class="edge">
<title>Node13&#45;&gt;Node38</title>
<path fill="none" stroke="midnightblue" d="M607.54,-952.44C626.62,-943.64 656.57,-929.81 678.44,-919.72"/>
<polygon fill="midnightblue" stroke="midnightblue" points="679.93,-922.88 687.55,-915.52 677,-916.53 679.93,-922.88"/>
</g>
<!-- Node53 -->
<g id="node53" class="node">
<title>Node53</title>
<g id="a_node53"><a xlink:href="ptrParam_8h.html" target="_top" xlink:title=" ">
<polygon fill="white" stroke="black" points="617,-728.5 617,-747.5 687,-747.5 687,-728.5 617,-728.5"/>
<text text-anchor="middle" x="652" y="-735.5" font-family="Helvetica,sans-Serif" font-size="10.00">ptrParam.h</text>
</a>
</g>
</g>
<!-- Node13&#45;&gt;Node53 -->
<g id="edge75" class="edge">
<title>Node13&#45;&gt;Node53</title>
<path fill="none" stroke="midnightblue" d="M591.76,-952.4C594.65,-943.36 599.26,-928.72 603,-916 619.97,-858.26 638.55,-789.45 647.14,-757.27"/>
<polygon fill="midnightblue" stroke="midnightblue" points="650.56,-758.07 649.75,-747.5 643.79,-756.26 650.56,-758.07"/>
</g>
<!-- Node15 -->
<g id="node15" class="node">
<title>Node15</title>
<g id="a_node15"><a xlink:href="TRUSTIterator_8h.html" target="_top" xlink:title=" ">
<polygon fill="white" stroke="black" points="57.5,-112.5 57.5,-131.5 150.5,-131.5 150.5,-112.5 57.5,-112.5"/>
<text text-anchor="middle" x="104" y="-119.5" font-family="Helvetica,sans-Serif" font-size="10.00">TRUSTIterator.h</text>
</a>
</g>
</g>
<!-- Node14&#45;&gt;Node15 -->
<g id="edge14" class="edge">
<title>Node14&#45;&gt;Node15</title>
<path fill="none" stroke="midnightblue" d="M253.99,-457.26C181.44,-455.35 38,-439.82 38,-347 38,-347 38,-347 38,-233 38,-202.9 41.38,-193.73 57,-168 63.98,-156.5 74.64,-145.96 84.05,-137.97"/>
<polygon fill="midnightblue" stroke="midnightblue" points="86.29,-140.67 91.86,-131.66 81.89,-135.22 86.29,-140.67"/>
</g>
<!-- Node16 -->
<g id="node16" class="node">
<title>Node16</title>
<g id="a_node16"><a xlink:href="VTRUSTdata_8h.html" target="_top" xlink:title=" ">
<polygon fill="white" stroke="black" points="422,-392.5 422,-411.5 508,-411.5 508,-392.5 422,-392.5"/>
<text text-anchor="middle" x="465" y="-399.5" font-family="Helvetica,sans-Serif" font-size="10.00">VTRUSTdata.h</text>
</a>
</g>
</g>
<!-- Node14&#45;&gt;Node16 -->
<g id="edge17" class="edge">
<title>Node14&#45;&gt;Node16</title>
<path fill="none" stroke="midnightblue" d="M321.94,-448.44C350.66,-439.32 396.33,-424.81 428.32,-414.65"/>
<polygon fill="midnightblue" stroke="midnightblue" points="429.72,-417.88 438.19,-411.52 427.6,-411.21 429.72,-417.88"/>
</g>
<!-- Node17 -->
<g id="node17" class="node">
<title>Node17</title>
<g id="a_node17"><a xlink:href="Array__base_8h.html" target="_top" xlink:title=" ">
<polygon fill="white" stroke="black" points="481,-336.5 481,-355.5 561,-355.5 561,-336.5 481,-336.5"/>
<text text-anchor="middle" x="521" y="-343.5" font-family="Helvetica,sans-Serif" font-size="10.00">Array_base.h</text>
</a>
</g>
</g>
<!-- Node14&#45;&gt;Node17 -->
<g id="edge42" class="edge">
<title>Node14&#45;&gt;Node17</title>
<path fill="none" stroke="midnightblue" d="M336.42,-454.48C394.01,-450.04 493.83,-438.62 517,-412 527.78,-399.62 527.62,-380.37 525.46,-366.03"/>
<polygon fill="midnightblue" stroke="midnightblue" points="528.81,-364.96 523.47,-355.81 521.94,-366.29 528.81,-364.96"/>
</g>
<!-- Node31 -->
<g id="node31" class="node">
<title>Node31</title>
<g id="a_node31"><a xlink:href="Double_8h.html" target="_top" xlink:title=" ">
<polygon fill="white" stroke="black" points="90,-280.5 90,-299.5 150,-299.5 150,-280.5 90,-280.5"/>
<text text-anchor="middle" x="120" y="-287.5" font-family="Helvetica,sans-Serif" font-size="10.00">Double.h</text>
</a>
</g>
</g>
<!-- Node14&#45;&gt;Node31 -->
<g id="edge43" class="edge">
<title>Node14&#45;&gt;Node31</title>
<path fill="none" stroke="midnightblue" d="M253.9,-453.68C201.26,-448.49 114.51,-436.39 95,-412 70.76,-381.7 93.26,-333.81 108.55,-308.31"/>
<polygon fill="midnightblue" stroke="midnightblue" points="111.59,-310.05 113.94,-299.72 105.66,-306.33 111.59,-310.05"/>
</g>
<!-- Node34 -->
<g id="node34" class="node">
<title>Node34</title>
<g id="a_node34"><a xlink:title=" ">
<polygon fill="white" stroke="#bfbfbf" points="104,-392.5 104,-411.5 154,-411.5 154,-392.5 104,-392.5"/>
<text text-anchor="middle" x="129" y="-399.5" font-family="Helvetica,sans-Serif" font-size="10.00">climits</text>
</a>
</g>
</g>
<!-- Node14&#45;&gt;Node34 -->
<g id="edge48" class="edge">
<title>Node14&#45;&gt;Node34</title>
<path fill="none" stroke="midnightblue" d="M268.7,-448.44C240.32,-439.21 195,-424.47 163.72,-414.29"/>
<polygon fill="midnightblue" stroke="midnightblue" points="164.69,-410.93 154.09,-411.16 162.52,-417.58 164.69,-410.93"/>
</g>
<!-- Node35 -->
<g id="node35" class="node">
<title>Node35</title>
<g id="a_node35"><a xlink:href="TRUSTArray__tools_8tpp.html" target="_top" xlink:title=" ">
<polygon fill="white" stroke="black" points="172,-392.5 172,-411.5 294,-411.5 294,-392.5 172,-392.5"/>
<text text-anchor="middle" x="233" y="-399.5" font-family="Helvetica,sans-Serif" font-size="10.00">TRUSTArray_tools.tpp</text>
</a>
</g>
</g>
<!-- Node14&#45;&gt;Node35 -->
<g id="edge49" class="edge">
<title>Node14&#45;&gt;Node35</title>
<path fill="none" stroke="midnightblue" d="M285.04,-448.32C275.87,-440.34 262.06,-428.31 250.97,-418.65"/>
<polygon fill="midnightblue" stroke="midnightblue" points="252.98,-415.76 243.14,-411.83 248.38,-421.04 252.98,-415.76"/>
</g>
<!-- Node36 -->
<g id="node36" class="node">
<title>Node36</title>
<g id="a_node36"><a xlink:href="TRUSTArray_8tpp.html" target="_top" xlink:title=" ">
<polygon fill="white" stroke="black" points="312,-392.5 312,-411.5 404,-411.5 404,-392.5 312,-392.5"/>
<text text-anchor="middle" x="358" y="-399.5" font-family="Helvetica,sans-Serif" font-size="10.00">TRUSTArray.tpp</text>
</a>
</g>
</g>
<!-- Node14&#45;&gt;Node36 -->
<g id="edge50" class="edge">
<title>Node14&#45;&gt;Node36</title>
<path fill="none" stroke="midnightblue" d="M305.12,-448.32C314.53,-440.26 328.74,-428.08 340.07,-418.37"/>
<polygon fill="midnightblue" stroke="midnightblue" points="342.38,-421 347.69,-411.83 337.82,-415.68 342.38,-421"/>
</g>
<!-- Node15&#45;&gt;Node7 -->
<g id="edge15" class="edge">
<title>Node15&#45;&gt;Node7</title>
<path fill="none" stroke="midnightblue" d="M117.66,-112.32C130.92,-103.9 151.27,-90.97 166.85,-81.07"/>
<polygon fill="midnightblue" stroke="midnightblue" points="168.81,-83.97 175.38,-75.65 165.06,-78.06 168.81,-83.97"/>
</g>
<!-- Node15&#45;&gt;Node10 -->
<g id="edge16" class="edge">
<title>Node15&#45;&gt;Node10</title>
<path fill="none" stroke="midnightblue" d="M94.92,-112.08C86.83,-104.14 74.8,-92.34 65.09,-82.8"/>
<polygon fill="midnightblue" stroke="midnightblue" points="67.5,-80.26 57.91,-75.75 62.6,-85.25 67.5,-80.26"/>
</g>
<!-- Node16&#45;&gt;Node8 -->
<g id="edge40" class="edge">
<title>Node16&#45;&gt;Node8</title>
<path fill="none" stroke="midnightblue" d="M425.83,-392.44C386.25,-383.32 328.28,-368.49 309,-356 277.24,-335.43 254,-328.84 254,-291 254,-291 254,-291 254,-177 254,-138.58 280.11,-134.85 311,-112 330.12,-97.86 354.38,-86.81 374.22,-79.19"/>
<polygon fill="midnightblue" stroke="midnightblue" points="375.69,-82.38 383.85,-75.63 373.26,-75.82 375.69,-82.38"/>
</g>
<!-- Node16&#45;&gt;Node17 -->
<g id="edge18" class="edge">
<title>Node16&#45;&gt;Node17</title>
<path fill="none" stroke="midnightblue" d="M474,-392.32C482.19,-384.42 494.51,-372.55 504.47,-362.94"/>
<polygon fill="midnightblue" stroke="midnightblue" points="507.07,-365.29 511.84,-355.83 502.21,-360.26 507.07,-365.29"/>
</g>
<!-- Node28 -->
<g id="node28" class="node">
<title>Node28</title>
<g id="a_node28"><a xlink:href="Memoire_8h.html" target="_top" xlink:title=" ">
<polygon fill="white" stroke="black" points="393.5,-336.5 393.5,-355.5 462.5,-355.5 462.5,-336.5 393.5,-336.5"/>
<text text-anchor="middle" x="428" y="-343.5" font-family="Helvetica,sans-Serif" font-size="10.00">Memoire.h</text>
</a>
</g>
</g>
<!-- Node16&#45;&gt;Node28 -->
<g id="edge36" class="edge">
<title>Node16&#45;&gt;Node28</title>
<path fill="none" stroke="midnightblue" d="M458.89,-392.08C453.72,-384.53 446.15,-373.49 439.81,-364.23"/>
<polygon fill="midnightblue" stroke="midnightblue" points="442.54,-362.02 434,-355.75 436.76,-365.98 442.54,-362.02"/>
</g>
<!-- Node30 -->
<g id="node30" class="node">
<title>Node30</title>
<g id="a_node30"><a xlink:title=" ">
<polygon fill="white" stroke="#bfbfbf" points="318.5,-336.5 318.5,-355.5 375.5,-355.5 375.5,-336.5 318.5,-336.5"/>
<text text-anchor="middle" x="347" y="-343.5" font-family="Helvetica,sans-Serif" font-size="10.00">typeinfo</text>
</a>
</g>
</g>
<!-- Node16&#45;&gt;Node30 -->
<g id="edge41" class="edge">
<title>Node16&#45;&gt;Node30</title>
<path fill="none" stroke="midnightblue" d="M446.3,-392.44C427.06,-383.64 396.85,-369.81 374.8,-359.72"/>
<polygon fill="midnightblue" stroke="midnightblue" points="376.16,-356.5 365.61,-355.52 373.25,-362.86 376.16,-356.5"/>
</g>
<!-- Node17&#45;&gt;Node18 -->
<g id="edge19" class="edge">
<title>Node17&#45;&gt;Node18</title>
<path fill="none" stroke="midnightblue" d="M522.18,-336.37C524.6,-318.62 530.18,-277.67 533.46,-253.6"/>
<polygon fill="midnightblue" stroke="midnightblue" points="536.95,-253.97 534.83,-243.59 530.01,-253.03 536.95,-253.97"/>
</g>
<!-- Node18&#45;&gt;Node8 -->
<g id="edge20" class="edge">
<title>Node18&#45;&gt;Node8</title>
<path fill="none" stroke="midnightblue" d="M537.27,-224.28C539.91,-202.73 543.68,-146.2 517,-112 500.5,-90.85 472.19,-79.51 448.97,-73.51"/>
<polygon fill="midnightblue" stroke="midnightblue" points="449.59,-70.06 439.05,-71.18 447.99,-76.87 449.59,-70.06"/>
</g>
<!-- Node18&#45;&gt;Node9 -->
<g id="edge35" class="edge">
<title>Node18&#45;&gt;Node9</title>
<path fill="none" stroke="midnightblue" d="M503.41,-229.79C451.42,-222.68 351.45,-200.35 311,-132 302.13,-117.01 310.57,-97.93 319.44,-84.33"/>
<polygon fill="midnightblue" stroke="midnightblue" points="322.49,-86.08 325.45,-75.91 316.79,-82.02 322.49,-86.08"/>
</g>
<!-- Node19 -->
<g id="node19" class="node">
<title>Node19</title>
<g id="a_node19"><a xlink:href="DecBaseInst_8h.html" target="_top" xlink:title=" ">
<polygon fill="white" stroke="black" points="657,-168.5 657,-187.5 743,-187.5 743,-168.5 657,-168.5"/>
<text text-anchor="middle" x="700" y="-175.5" font-family="Helvetica,sans-Serif" font-size="10.00">DecBaseInst.h</text>
</a>
</g>
</g>
<!-- Node18&#45;&gt;Node19 -->
<g id="edge21" class="edge">
<title>Node18&#45;&gt;Node19</title>
<path fill="none" stroke="midnightblue" d="M561.99,-224.44C589.7,-215.32 633.75,-200.81 664.62,-190.65"/>
<polygon fill="midnightblue" stroke="midnightblue" points="665.73,-193.97 674.14,-187.52 663.54,-187.32 665.73,-193.97"/>
</g>
<!-- Node24 -->
<g id="node24" class="node">
<title>Node24</title>
<g id="a_node24"><a xlink:href="EntreeSortie_8h.html" target="_top" xlink:title=" ">
<polygon fill="white" stroke="black" points="422,-168.5 422,-187.5 508,-187.5 508,-168.5 422,-168.5"/>
<text text-anchor="middle" x="465" y="-175.5" font-family="Helvetica,sans-Serif" font-size="10.00">EntreeSortie.h</text>
</a>
</g>
</g>
<!-- Node18&#45;&gt;Node24 -->
<g id="edge27" class="edge">
<title>Node18&#45;&gt;Node24</title>
<path fill="none" stroke="midnightblue" d="M524.59,-224.32C513.89,-216.18 497.66,-203.84 484.84,-194.09"/>
<polygon fill="midnightblue" stroke="midnightblue" points="486.69,-191.1 476.61,-187.83 482.46,-196.67 486.69,-191.1"/>
</g>
<!-- Node20 -->
<g id="node20" class="node">
<title>Node20</title>
<g id="a_node20"><a xlink:href="Cast_8h.html" target="_top" xlink:title=" ">
<polygon fill="white" stroke="black" points="875.5,-56.5 875.5,-75.5 922.5,-75.5 922.5,-56.5 875.5,-56.5"/>
<text text-anchor="middle" x="899" y="-63.5" font-family="Helvetica,sans-Serif" font-size="10.00">Cast.h</text>
</a>
</g>
</g>
<!-- Node19&#45;&gt;Node20 -->
<g id="edge22" class="edge">
<title>Node19&#45;&gt;Node20</title>
<path fill="none" stroke="midnightblue" d="M743.29,-173.36C777.61,-168.57 825.25,-157.52 859,-132 874.82,-120.04 885.81,-99.84 892.22,-85.13"/>
<polygon fill="midnightblue" stroke="midnightblue" points="895.57,-86.17 896.07,-75.59 889.08,-83.55 895.57,-86.17"/>
</g>
<!-- Node21 -->
<g id="node21" class="node">
<title>Node21</title>
<g id="a_node21"><a xlink:href="Type__info_8h.html" target="_top" xlink:title=" ">
<polygon fill="white" stroke="black" points="564,-112.5 564,-131.5 636,-131.5 636,-112.5 564,-112.5"/>
<text text-anchor="middle" x="600" y="-119.5" font-family="Helvetica,sans-Serif" font-size="10.00">Type_info.h</text>
</a>
</g>
</g>
<!-- Node19&#45;&gt;Node21 -->
<g id="edge23" class="edge">
<title>Node19&#45;&gt;Node21</title>
<path fill="none" stroke="midnightblue" d="M683.93,-168.32C668.04,-159.74 643.49,-146.49 625.04,-136.52"/>
<polygon fill="midnightblue" stroke="midnightblue" points="626.49,-133.33 616.03,-131.65 623.16,-139.49 626.49,-133.33"/>
</g>
<!-- Node22 -->
<g id="node22" class="node">
<title>Node22</title>
<g id="a_node22"><a xlink:href="Declare__Base_8h.html" target="_top" xlink:title=" ">
<polygon fill="white" stroke="black" points="654,-112.5 654,-131.5 746,-131.5 746,-112.5 654,-112.5"/>
<text text-anchor="middle" x="700" y="-119.5" font-family="Helvetica,sans-Serif" font-size="10.00">Declare_Base.h</text>
</a>
</g>
</g>
<!-- Node19&#45;&gt;Node22 -->
<g id="edge24" class="edge">
<title>Node19&#45;&gt;Node22</title>
<path fill="none" stroke="midnightblue" d="M700,-168.08C700,-161.01 700,-150.86 700,-141.99"/>
<polygon fill="midnightblue" stroke="midnightblue" points="703.5,-141.75 700,-131.75 696.5,-141.75 703.5,-141.75"/>
</g>
<!-- Node23 -->
<g id="node23" class="node">
<title>Node23</title>
<g id="a_node23"><a xlink:href="Declare__Inst_8h.html" target="_top" xlink:title=" ">
<polygon fill="white" stroke="black" points="764,-112.5 764,-131.5 850,-131.5 850,-112.5 764,-112.5"/>
<text text-anchor="middle" x="807" y="-119.5" font-family="Helvetica,sans-Serif" font-size="10.00">Declare_Inst.h</text>
</a>
</g>
</g>
<!-- Node19&#45;&gt;Node23 -->
<g id="edge25" class="edge">
<title>Node19&#45;&gt;Node23</title>
<path fill="none" stroke="midnightblue" d="M717.19,-168.32C734.35,-159.66 760.95,-146.24 780.75,-136.25"/>
<polygon fill="midnightblue" stroke="midnightblue" points="782.5,-139.28 789.85,-131.65 779.35,-133.04 782.5,-139.28"/>
</g>
<!-- Node23&#45;&gt;Node20 -->
<g id="edge26" class="edge">
<title>Node23&#45;&gt;Node20</title>
<path fill="none" stroke="midnightblue" d="M821.78,-112.32C836.27,-103.82 858.57,-90.73 875.49,-80.8"/>
<polygon fill="midnightblue" stroke="midnightblue" points="877.4,-83.74 884.26,-75.65 873.86,-77.7 877.4,-83.74"/>
</g>
<!-- Node24&#45;&gt;Node4 -->
<g id="edge28" class="edge">
<title>Node24&#45;&gt;Node4</title>
<path fill="none" stroke="midnightblue" d="M422.53,-168.44C371.14,-158.09 285.33,-140.8 235.69,-130.8"/>
<polygon fill="midnightblue" stroke="midnightblue" points="236.16,-127.32 225.67,-128.78 234.78,-134.18 236.16,-127.32"/>
</g>
<!-- Node25 -->
<g id="node25" class="node">
<title>Node25</title>
<g id="a_node25"><a xlink:href="Sortie_8h.html" target="_top" xlink:title=" ">
<polygon fill="white" stroke="black" points="320,-112.5 320,-131.5 374,-131.5 374,-112.5 320,-112.5"/>
<text text-anchor="middle" x="347" y="-119.5" font-family="Helvetica,sans-Serif" font-size="10.00">Sortie.h</text>
</a>
</g>
</g>
<!-- Node24&#45;&gt;Node25 -->
<g id="edge29" class="edge">
<title>Node24&#45;&gt;Node25</title>
<path fill="none" stroke="midnightblue" d="M446.3,-168.44C427.06,-159.64 396.85,-145.81 374.8,-135.72"/>
<polygon fill="midnightblue" stroke="midnightblue" points="376.16,-132.5 365.61,-131.52 373.25,-138.86 376.16,-132.5"/>
</g>
<!-- Node27 -->
<g id="node27" class="node">
<title>Node27</title>
<g id="a_node27"><a xlink:href="Separateur_8h.html" target="_top" xlink:title=" ">
<polygon fill="white" stroke="black" points="430,-112.5 430,-131.5 508,-131.5 508,-112.5 430,-112.5"/>
<text text-anchor="middle" x="469" y="-119.5" font-family="Helvetica,sans-Serif" font-size="10.00">Separateur.h</text>
</a>
</g>
</g>
<!-- Node24&#45;&gt;Node27 -->
<g id="edge34" class="edge">
<title>Node24&#45;&gt;Node27</title>
<path fill="none" stroke="midnightblue" d="M465.66,-168.08C466.18,-161.01 466.94,-150.86 467.59,-141.99"/>
<polygon fill="midnightblue" stroke="midnightblue" points="471.1,-141.98 468.35,-131.75 464.12,-141.47 471.1,-141.98"/>
</g>
<!-- Node25&#45;&gt;Node7 -->
<g id="edge30" class="edge">
<title>Node25&#45;&gt;Node7</title>
<path fill="none" stroke="midnightblue" d="M321.96,-112.44C295.38,-103.36 253.19,-88.94 223.48,-78.78"/>
<polygon fill="midnightblue" stroke="midnightblue" points="224.51,-75.44 213.92,-75.52 222.25,-82.06 224.51,-75.44"/>
</g>
<!-- Node25&#45;&gt;Node8 -->
<g id="edge31" class="edge">
<title>Node25&#45;&gt;Node8</title>
<path fill="none" stroke="midnightblue" d="M357.28,-112.32C366.84,-104.26 381.28,-92.08 392.78,-82.37"/>
<polygon fill="midnightblue" stroke="midnightblue" points="395.14,-84.96 400.53,-75.83 390.63,-79.61 395.14,-84.96"/>
</g>
<!-- Node25&#45;&gt;Node10 -->
<g id="edge32" class="edge">
<title>Node25&#45;&gt;Node10</title>
<path fill="none" stroke="midnightblue" d="M319.74,-117.27C273.17,-110.71 175.13,-96.06 82.53,-75.93"/>
<polygon fill="midnightblue" stroke="midnightblue" points="83.24,-72.5 72.72,-73.77 81.74,-79.34 83.24,-72.5"/>
</g>
<!-- Node26 -->
<g id="node26" class="node">
<title>Node26</title>
<g id="a_node26"><a xlink:title=" ">
<polygon fill="white" stroke="#bfbfbf" points="685,-56.5 685,-75.5 729,-75.5 729,-56.5 685,-56.5"/>
<text text-anchor="middle" x="707" y="-63.5" font-family="Helvetica,sans-Serif" font-size="10.00">string</text>
</a>
</g>
</g>
<!-- Node25&#45;&gt;Node26 -->
<g id="edge33" class="edge">
<title>Node25&#45;&gt;Node26</title>
<path fill="none" stroke="midnightblue" d="M374.06,-116.94C439.23,-107.17 604.67,-82.35 674.8,-71.83"/>
<polygon fill="midnightblue" stroke="midnightblue" points="675.45,-75.27 684.82,-70.33 674.41,-68.35 675.45,-75.27"/>
</g>
<!-- Node29 -->
<g id="node29" class="node">
<title>Node29</title>
<g id="a_node29"><a xlink:href="Memoire__ptr_8h.html" target="_top" xlink:title=" ">
<polygon fill="white" stroke="black" points="384.5,-280.5 384.5,-299.5 471.5,-299.5 471.5,-280.5 384.5,-280.5"/>
<text text-anchor="middle" x="428" y="-287.5" font-family="Helvetica,sans-Serif" font-size="10.00">Memoire_ptr.h</text>
</a>
</g>
</g>
<!-- Node28&#45;&gt;Node29 -->
<g id="edge37" class="edge">
<title>Node28&#45;&gt;Node29</title>
<path fill="none" stroke="midnightblue" d="M428,-336.08C428,-329.01 428,-318.86 428,-309.99"/>
<polygon fill="midnightblue" stroke="midnightblue" points="431.5,-309.75 428,-299.75 424.5,-309.75 431.5,-309.75"/>
</g>
<!-- Node29&#45;&gt;Node8 -->
<g id="edge39" class="edge">
<title>Node29&#45;&gt;Node8</title>
<path fill="none" stroke="midnightblue" d="M426.33,-280.4C423.05,-263.02 415.83,-222.45 413,-188 410.03,-151.83 410.16,-109.38 410.55,-85.6"/>
<polygon fill="midnightblue" stroke="midnightblue" points="414.05,-85.6 410.76,-75.53 407.06,-85.45 414.05,-85.6"/>
</g>
<!-- Node29&#45;&gt;Node18 -->
<g id="edge38" class="edge">
<title>Node29&#45;&gt;Node18</title>
<path fill="none" stroke="midnightblue" d="M445.35,-280.32C462.67,-271.66 489.52,-258.24 509.5,-248.25"/>
<polygon fill="midnightblue" stroke="midnightblue" points="511.31,-251.26 518.69,-243.65 508.18,-245 511.31,-251.26"/>
</g>
<!-- Node31&#45;&gt;Node18 -->
<g id="edge46" class="edge">
<title>Node31&#45;&gt;Node18</title>
<path fill="none" stroke="midnightblue" d="M150.25,-285.07C223.21,-275.6 409.03,-251.48 493.3,-240.54"/>
<polygon fill="midnightblue" stroke="midnightblue" points="493.83,-244 503.3,-239.25 492.93,-237.06 493.83,-244"/>
</g>
<!-- Node32 -->
<g id="node32" class="node">
<title>Node32</title>
<g id="a_node32"><a xlink:href="blas1_8h.html" target="_top" xlink:title=" ">
<polygon fill="white" stroke="black" points="66,-168.5 66,-187.5 118,-187.5 118,-168.5 66,-168.5"/>
<text text-anchor="middle" x="92" y="-175.5" font-family="Helvetica,sans-Serif" font-size="10.00">blas1.h</text>
</a>
</g>
</g>
<!-- Node31&#45;&gt;Node32 -->
<g id="edge44" class="edge">
<title>Node31&#45;&gt;Node32</title>
<path fill="none" stroke="midnightblue" d="M117.8,-280.37C113.28,-262.62 102.86,-221.67 96.73,-197.6"/>
<polygon fill="midnightblue" stroke="midnightblue" points="100.05,-196.42 94.19,-187.59 93.26,-198.15 100.05,-196.42"/>
</g>
<!-- Node33 -->
<g id="node33" class="node">
<title>Node33</title>
<g id="a_node33"><a xlink:title=" ">
<polygon fill="white" stroke="#bfbfbf" points="120.5,-224.5 120.5,-243.5 167.5,-243.5 167.5,-224.5 120.5,-224.5"/>
<text text-anchor="middle" x="144" y="-231.5" font-family="Helvetica,sans-Serif" font-size="10.00">cmath</text>
</a>
</g>
</g>
<!-- Node31&#45;&gt;Node33 -->
<g id="edge47" class="edge">
<title>Node31&#45;&gt;Node33</title>
<path fill="none" stroke="midnightblue" d="M123.96,-280.08C127.21,-272.77 131.92,-262.18 135.95,-253.1"/>
<polygon fill="midnightblue" stroke="midnightblue" points="139.25,-254.31 140.11,-243.75 132.85,-251.47 139.25,-254.31"/>
</g>
<!-- Node32&#45;&gt;Node10 -->
<g id="edge45" class="edge">
<title>Node32&#45;&gt;Node10</title>
<path fill="none" stroke="midnightblue" d="M79.22,-168.37C68.61,-160.36 54.27,-147.38 48,-132 42.01,-117.3 42.9,-99.14 44.92,-85.75"/>
<polygon fill="midnightblue" stroke="midnightblue" points="48.38,-86.28 46.76,-75.81 41.5,-85.01 48.38,-86.28"/>
</g>
<!-- Node37 -->
<g id="node37" class="node">
<title>Node37</title>
<g id="a_node37"><a xlink:title=" ">
<polygon fill="white" stroke="#bfbfbf" points="172.5,-336.5 172.5,-355.5 225.5,-355.5 225.5,-336.5 172.5,-336.5"/>
<text text-anchor="middle" x="199" y="-343.5" font-family="Helvetica,sans-Serif" font-size="10.00">string.h</text>
</a>
</g>
</g>
<!-- Node36&#45;&gt;Node37 -->
<g id="edge51" class="edge">
<title>Node36&#45;&gt;Node37</title>
<path fill="none" stroke="midnightblue" d="M332.81,-392.44C306.06,-383.36 263.6,-368.94 233.69,-358.78"/>
<polygon fill="midnightblue" stroke="midnightblue" points="234.67,-355.42 224.08,-355.52 232.42,-362.05 234.67,-355.42"/>
</g>
<!-- Node39 -->
<g id="node39" class="node">
<title>Node39</title>
<g id="a_node39"><a xlink:href="List_8h.html" target="_top" xlink:title=" ">
<polygon fill="white" stroke="black" points="687.5,-840.5 687.5,-859.5 730.5,-859.5 730.5,-840.5 687.5,-840.5"/>
<text text-anchor="middle" x="709" y="-847.5" font-family="Helvetica,sans-Serif" font-size="10.00">List.h</text>
</a>
</g>
</g>
<!-- Node38&#45;&gt;Node39 -->
<g id="edge53" class="edge">
<title>Node38&#45;&gt;Node39</title>
<path fill="none" stroke="midnightblue" d="M706.5,-896.08C706.89,-889.01 707.45,-878.86 707.95,-869.99"/>
<polygon fill="midnightblue" stroke="midnightblue" points="711.45,-869.93 708.51,-859.75 704.46,-869.54 711.45,-869.93"/>
</g>
<!-- Node40 -->
<g id="node40" class="node">
<title>Node40</title>
<g id="a_node40"><a xlink:href="MacList_8h.html" target="_top" xlink:title=" ">
<polygon fill="white" stroke="black" points="683.5,-784.5 683.5,-803.5 746.5,-803.5 746.5,-784.5 683.5,-784.5"/>
<text text-anchor="middle" x="715" y="-791.5" font-family="Helvetica,sans-Serif" font-size="10.00">MacList.h</text>
</a>
</g>
</g>
<!-- Node39&#45;&gt;Node40 -->
<g id="edge54" class="edge">
<title>Node39&#45;&gt;Node40</title>
<path fill="none" stroke="midnightblue" d="M709.99,-840.08C710.79,-832.93 711.93,-822.64 712.92,-813.69"/>
<polygon fill="midnightblue" stroke="midnightblue" points="716.4,-814.08 714.03,-803.75 709.44,-813.3 716.4,-814.08"/>
</g>
<!-- Node41 -->
<g id="node41" class="node">
<title>Node41</title>
<g id="a_node41"><a xlink:href="liste_8h.html" target="_top" xlink:title=" ">
<polygon fill="white" stroke="black" points="689.5,-672.5 689.5,-691.5 736.5,-691.5 736.5,-672.5 689.5,-672.5"/>
<text text-anchor="middle" x="713" y="-679.5" font-family="Helvetica,sans-Serif" font-size="10.00">liste.h</text>
</a>
</g>
</g>
<!-- Node40&#45;&gt;Node41 -->
<g id="edge55" class="edge">
<title>Node40&#45;&gt;Node41</title>
<path fill="none" stroke="midnightblue" d="M714.84,-784.37C714.52,-766.62 713.78,-725.67 713.34,-701.6"/>
<polygon fill="midnightblue" stroke="midnightblue" points="716.84,-701.53 713.16,-691.59 709.84,-701.65 716.84,-701.53"/>
</g>
<!-- Node49 -->
<g id="node49" class="node">
<title>Node49</title>
<g id="a_node49"><a xlink:href="Motcle_8h.html" target="_top" xlink:title=" ">
<polygon fill="white" stroke="black" points="746.5,-728.5 746.5,-747.5 805.5,-747.5 805.5,-728.5 746.5,-728.5"/>
<text text-anchor="middle" x="776" y="-735.5" font-family="Helvetica,sans-Serif" font-size="10.00">Motcle.h</text>
</a>
</g>
</g>
<!-- Node40&#45;&gt;Node49 -->
<g id="edge66" class="edge">
<title>Node40&#45;&gt;Node49</title>
<path fill="none" stroke="midnightblue" d="M724.8,-784.32C733.82,-776.34 747.41,-764.31 758.32,-754.65"/>
<polygon fill="midnightblue" stroke="midnightblue" points="760.85,-757.08 766.02,-747.83 756.21,-751.84 760.85,-757.08"/>
</g>
<!-- Node42 -->
<g id="node42" class="node">
<title>Node42</title>
<g id="a_node42"><a xlink:href="DerOu___8h.html" target="_top" xlink:title=" ">
<polygon fill="white" stroke="black" points="682,-504.5 682,-523.5 744,-523.5 744,-504.5 682,-504.5"/>
<text text-anchor="middle" x="713" y="-511.5" font-family="Helvetica,sans-Serif" font-size="10.00">DerOu_.h</text>
</a>
</g>
</g>
<!-- Node41&#45;&gt;Node42 -->
<g id="edge56" class="edge">
<title>Node41&#45;&gt;Node42</title>
<path fill="none" stroke="midnightblue" d="M713,-672.08C713,-645.95 713,-569.21 713,-533.58"/>
<polygon fill="midnightblue" stroke="midnightblue" points="716.5,-533.57 713,-523.57 709.5,-533.57 716.5,-533.57"/>
</g>
<!-- Node43 -->
<g id="node43" class="node">
<title>Node43</title>
<g id="a_node43"><a xlink:href="Deriv_8h.html" target="_top" xlink:title=" ">
<polygon fill="white" stroke="black" points="682.5,-448.5 682.5,-467.5 733.5,-467.5 733.5,-448.5 682.5,-448.5"/>
<text text-anchor="middle" x="708" y="-455.5" font-family="Helvetica,sans-Serif" font-size="10.00">Deriv.h</text>
</a>
</g>
</g>
<!-- Node42&#45;&gt;Node43 -->
<g id="edge57" class="edge">
<title>Node42&#45;&gt;Node43</title>
<path fill="none" stroke="midnightblue" d="M712.17,-504.08C711.52,-497.01 710.58,-486.86 709.76,-477.99"/>
<polygon fill="midnightblue" stroke="midnightblue" points="713.22,-477.39 708.81,-467.75 706.25,-478.03 713.22,-477.39"/>
</g>
<!-- Node47 -->
<g id="node47" class="node">
<title>Node47</title>
<g id="a_node47"><a xlink:href="Nom_8h.html" target="_top" xlink:title=" ">
<polygon fill="white" stroke="black" points="811.5,-448.5 811.5,-467.5 860.5,-467.5 860.5,-448.5 811.5,-448.5"/>
<text text-anchor="middle" x="836" y="-455.5" font-family="Helvetica,sans-Serif" font-size="10.00">Nom.h</text>
</a>
</g>
</g>
<!-- Node42&#45;&gt;Node47 -->
<g id="edge62" class="edge">
<title>Node42&#45;&gt;Node47</title>
<path fill="none" stroke="midnightblue" d="M732.49,-504.44C752.64,-495.6 784.32,-481.69 807.33,-471.59"/>
<polygon fill="midnightblue" stroke="midnightblue" points="808.85,-474.74 816.6,-467.52 806.04,-468.33 808.85,-474.74"/>
</g>
<!-- Node44 -->
<g id="node44" class="node">
<title>Node44</title>
<g id="a_node44"><a xlink:href="MacDeriv_8h.html" target="_top" xlink:title=" ">
<polygon fill="white" stroke="black" points="668.5,-392.5 668.5,-411.5 739.5,-411.5 739.5,-392.5 668.5,-392.5"/>
<text text-anchor="middle" x="704" y="-399.5" font-family="Helvetica,sans-Serif" font-size="10.00">MacDeriv.h</text>
</a>
</g>
</g>
<!-- Node43&#45;&gt;Node44 -->
<g id="edge58" class="edge">
<title>Node43&#45;&gt;Node44</title>
<path fill="none" stroke="midnightblue" d="M707.34,-448.08C706.82,-441.01 706.06,-430.86 705.41,-421.99"/>
<polygon fill="midnightblue" stroke="midnightblue" points="708.88,-421.47 704.65,-411.75 701.9,-421.98 708.88,-421.47"/>
</g>
<!-- Node45 -->
<g id="node45" class="node">
<title>Node45</title>
<g id="a_node45"><a xlink:href="Deriv___8h.html" target="_top" xlink:title=" ">
<polygon fill="white" stroke="black" points="671.5,-336.5 671.5,-355.5 728.5,-355.5 728.5,-336.5 671.5,-336.5"/>
<text text-anchor="middle" x="700" y="-343.5" font-family="Helvetica,sans-Serif" font-size="10.00">Deriv_.h</text>
</a>
</g>
</g>
<!-- Node44&#45;&gt;Node45 -->
<g id="edge59" class="edge">
<title>Node44&#45;&gt;Node45</title>
<path fill="none" stroke="midnightblue" d="M703.34,-392.08C702.82,-385.01 702.06,-374.86 701.41,-365.99"/>
<polygon fill="midnightblue" stroke="midnightblue" points="704.88,-365.47 700.65,-355.75 697.9,-365.98 704.88,-365.47"/>
</g>
<!-- Node46 -->
<g id="node46" class="node">
<title>Node46</title>
<g id="a_node46"><a xlink:href="O__U__Ptr_8h.html" target="_top" xlink:title=" ">
<polygon fill="white" stroke="black" points="664,-280.5 664,-299.5 728,-299.5 728,-280.5 664,-280.5"/>
<text text-anchor="middle" x="696" y="-287.5" font-family="Helvetica,sans-Serif" font-size="10.00">O_U_Ptr.h</text>
</a>
</g>
</g>
<!-- Node45&#45;&gt;Node46 -->
<g id="edge60" class="edge">
<title>Node45&#45;&gt;Node46</title>
<path fill="none" stroke="midnightblue" d="M699.34,-336.08C698.82,-329.01 698.06,-318.86 697.41,-309.99"/>
<polygon fill="midnightblue" stroke="midnightblue" points="700.88,-309.47 696.65,-299.75 693.9,-309.98 700.88,-309.47"/>
</g>
<!-- Node46&#45;&gt;Node18 -->
<g id="edge61" class="edge">
<title>Node46&#45;&gt;Node18</title>
<path fill="none" stroke="midnightblue" d="M670.65,-280.44C643.73,-271.36 601,-256.94 570.91,-246.78"/>
<polygon fill="midnightblue" stroke="midnightblue" points="571.83,-243.4 561.23,-243.52 569.59,-250.03 571.83,-243.4"/>
</g>
<!-- Node47&#45;&gt;Node18 -->
<g id="edge63" class="edge">
<title>Node47&#45;&gt;Node18</title>
<path fill="none" stroke="midnightblue" d="M833.87,-448.32C826.27,-419.34 797.69,-325.24 737,-280 690.55,-245.38 622.39,-236.55 578.6,-234.74"/>
<polygon fill="midnightblue" stroke="midnightblue" points="578.67,-231.24 568.56,-234.43 578.45,-238.24 578.67,-231.24"/>
</g>
<!-- Node47&#45;&gt;Node26 -->
<g id="edge65" class="edge">
<title>Node47&#45;&gt;Node26</title>
<path fill="none" stroke="midnightblue" d="M853.18,-448.41C866.95,-440.68 885.77,-428.07 897,-412 914.24,-387.33 916,-377.1 916,-347 916,-347 916,-347 916,-177 916,-146.2 914.99,-132.49 892,-112 849.3,-73.95 779.8,-66.78 739.24,-66.13"/>
<polygon fill="midnightblue" stroke="midnightblue" points="739.11,-62.63 729.1,-66.09 739.09,-69.63 739.11,-62.63"/>
</g>
<!-- Node48 -->
<g id="node48" class="node">
<title>Node48</title>
<g id="a_node48"><a xlink:title=" ">
<polygon fill="white" stroke="#bfbfbf" points="838,-392.5 838,-411.5 888,-411.5 888,-392.5 838,-392.5"/>
<text text-anchor="middle" x="863" y="-399.5" font-family="Helvetica,sans-Serif" font-size="10.00">cstring</text>
</a>
</g>
</g>
<!-- Node47&#45;&gt;Node48 -->
<g id="edge64" class="edge">
<title>Node47&#45;&gt;Node48</title>
<path fill="none" stroke="midnightblue" d="M840.46,-448.08C844.15,-440.69 849.52,-429.95 854.09,-420.81"/>
<polygon fill="midnightblue" stroke="midnightblue" points="857.28,-422.26 858.62,-411.75 851.02,-419.13 857.28,-422.26"/>
</g>
<!-- Node50 -->
<g id="node50" class="node">
<title>Node50</title>
<g id="a_node50"><a xlink:href="Vect_8h.html" target="_top" xlink:title=" ">
<polygon fill="white" stroke="black" points="754.5,-672.5 754.5,-691.5 801.5,-691.5 801.5,-672.5 754.5,-672.5"/>
<text text-anchor="middle" x="778" y="-679.5" font-family="Helvetica,sans-Serif" font-size="10.00">Vect.h</text>
</a>
</g>
</g>
<!-- Node49&#45;&gt;Node50 -->
<g id="edge67" class="edge">
<title>Node49&#45;&gt;Node50</title>
<path fill="none" stroke="midnightblue" d="M776.33,-728.08C776.59,-721.01 776.97,-710.86 777.3,-701.99"/>
<polygon fill="midnightblue" stroke="midnightblue" points="780.8,-701.87 777.68,-691.75 773.81,-701.61 780.8,-701.87"/>
</g>
<!-- Node51 -->
<g id="node51" class="node">
<title>Node51</title>
<g id="a_node51"><a xlink:href="MacVect_8h.html" target="_top" xlink:title=" ">
<polygon fill="white" stroke="black" points="746.5,-616.5 746.5,-635.5 813.5,-635.5 813.5,-616.5 746.5,-616.5"/>
<text text-anchor="middle" x="780" y="-623.5" font-family="Helvetica,sans-Serif" font-size="10.00">MacVect.h</text>
</a>
</g>
</g>
<!-- Node50&#45;&gt;Node51 -->
<g id="edge68" class="edge">
<title>Node50&#45;&gt;Node51</title>
<path fill="none" stroke="midnightblue" d="M778.33,-672.08C778.59,-665.01 778.97,-654.86 779.3,-645.99"/>
<polygon fill="midnightblue" stroke="midnightblue" points="782.8,-645.87 779.68,-635.75 775.81,-645.61 782.8,-645.87"/>
</g>
<!-- Node51&#45;&gt;Node8 -->
<g id="edge70" class="edge">
<title>Node51&#45;&gt;Node8</title>
<path fill="none" stroke="midnightblue" d="M813.55,-619.4C864.11,-608.82 954,-580.76 954,-515 954,-515 954,-515 954,-177 954,-132.89 919.54,-129.38 879,-112 801.9,-78.95 546.91,-69.96 449.39,-67.7"/>
<polygon fill="midnightblue" stroke="midnightblue" points="449.18,-64.2 439.1,-67.48 449.02,-71.2 449.18,-64.2"/>
</g>
<!-- Node51&#45;&gt;Node47 -->
<g id="edge69" class="edge">
<title>Node51&#45;&gt;Node47</title>
<path fill="none" stroke="midnightblue" d="M793.03,-616.36C803.91,-608.35 818.78,-595.37 826,-580 841.64,-546.73 840.61,-502.64 838.37,-477.91"/>
<polygon fill="midnightblue" stroke="midnightblue" points="841.82,-477.3 837.27,-467.74 834.86,-478.05 841.82,-477.3"/>
</g>
<!-- Node52 -->
<g id="node52" class="node">
<title>Node52</title>
<g id="a_node52"><a xlink:href="vect__impl_8h.html" target="_top" xlink:title=" ">
<polygon fill="white" stroke="black" points="743,-560.5 743,-579.5 817,-579.5 817,-560.5 743,-560.5"/>
<text text-anchor="middle" x="780" y="-567.5" font-family="Helvetica,sans-Serif" font-size="10.00">vect_impl.h</text>
</a>
</g>
</g>
<!-- Node51&#45;&gt;Node52 -->
<g id="edge71" class="edge">
<title>Node51&#45;&gt;Node52</title>
<path fill="none" stroke="midnightblue" d="M780,-616.08C780,-609.01 780,-598.86 780,-589.99"/>
<polygon fill="midnightblue" stroke="midnightblue" points="783.5,-589.75 780,-579.75 776.5,-589.75 783.5,-589.75"/>
</g>
<!-- Node52&#45;&gt;Node8 -->
<g id="edge73" class="edge">
<title>Node52&#45;&gt;Node8</title>
<path fill="none" stroke="midnightblue" d="M778.95,-560.46C776.79,-541.98 772,-496.91 772,-459 772,-459 772,-459 772,-401 772,-266.86 948.99,-211.48 859,-112 831.72,-81.84 552.75,-70.98 449.31,-67.97"/>
<polygon fill="midnightblue" stroke="midnightblue" points="449.39,-64.47 439.3,-67.69 449.19,-71.47 449.39,-64.47"/>
</g>
<!-- Node52&#45;&gt;Node42 -->
<g id="edge74" class="edge">
<title>Node52&#45;&gt;Node42</title>
<path fill="none" stroke="midnightblue" d="M769.24,-560.32C759.23,-552.26 744.11,-540.08 732.07,-530.37"/>
<polygon fill="midnightblue" stroke="midnightblue" points="733.94,-527.38 723.96,-523.83 729.55,-532.83 733.94,-527.38"/>
</g>
<!-- Node52&#45;&gt;Node47 -->
<g id="edge72" class="edge">
<title>Node52&#45;&gt;Node47</title>
<path fill="none" stroke="midnightblue" d="M784.39,-560.37C793.55,-542.38 814.85,-500.55 827.03,-476.63"/>
<polygon fill="midnightblue" stroke="midnightblue" points="830.21,-478.09 831.63,-467.59 823.97,-474.92 830.21,-478.09"/>
</g>
<!-- Node53&#45;&gt;Node18 -->
<g id="edge76" class="edge">
<title>Node53&#45;&gt;Node18</title>
<path fill="none" stroke="midnightblue" d="M649.57,-728.24C644.66,-709.71 634,-665.12 634,-627 634,-627 634,-627 634,-345 634,-312.99 623.92,-304.23 603,-280 591.84,-267.07 576.12,-256.26 562.71,-248.47"/>
<polygon fill="midnightblue" stroke="midnightblue" points="564.33,-245.36 553.88,-243.57 560.93,-251.48 564.33,-245.36"/>
</g>
<!-- Node53&#45;&gt;Node50 -->
<g id="edge77" class="edge">
<title>Node53&#45;&gt;Node50</title>
<path fill="none" stroke="midnightblue" d="M671.97,-728.44C692.61,-719.6 725.06,-705.69 748.63,-695.59"/>
<polygon fill="midnightblue" stroke="midnightblue" points="750.32,-698.67 758.13,-691.52 747.56,-692.24 750.32,-698.67"/>
</g>
<!-- Node54&#45;&gt;Node13 -->
<g id="edge81" class="edge">
<title>Node54&#45;&gt;Node13</title>
<path fill="none" stroke="midnightblue" d="M612.38,-1008.08C608.54,-1000.69 602.98,-989.95 598.24,-980.81"/>
<polygon fill="midnightblue" stroke="midnightblue" points="601.25,-979.02 593.54,-971.75 595.03,-982.24 601.25,-979.02"/>
</g>
<!-- Node55 -->
<g id="node55" class="node">
<title>Node55</title>
<g id="a_node55"><a xlink:href="TRUSTTabs__forward_8h.html" target="_top" xlink:title=" ">
<polygon fill="white" stroke="black" points="649,-952.5 649,-971.5 771,-971.5 771,-952.5 649,-952.5"/>
<text text-anchor="middle" x="710" y="-959.5" font-family="Helvetica,sans-Serif" font-size="10.00">TRUSTTabs_forward.h</text>
</a>
</g>
</g>
<!-- Node54&#45;&gt;Node55 -->
<g id="edge80" class="edge">
<title>Node54&#45;&gt;Node55</title>
<path fill="none" stroke="midnightblue" d="M631.94,-1008.32C646.59,-999.82 669.13,-986.73 686.24,-976.8"/>
<polygon fill="midnightblue" stroke="midnightblue" points="688.2,-979.7 695.1,-971.65 684.69,-973.65 688.2,-979.7"/>
</g>
</g>
</svg>
