<?xml version="1.0" encoding="UTF-8" standalone="no"?>
<!DOCTYPE svg PUBLIC "-//W3C//DTD SVG 1.1//EN"
 "http://www.w3.org/Graphics/SVG/1.1/DTD/svg11.dtd">
<!-- Generated by graphviz version 2.43.0 (0)
 -->
<!-- Title: src/P1NCP1B/Operateurs/Op_Diff_VEFP1NCP1B_Face_Var.h Pages: 1 -->
<svg width="189pt" height="117pt"
 viewBox="0.00 0.00 189.00 117.00" xmlns="http://www.w3.org/2000/svg" xmlns:xlink="http://www.w3.org/1999/xlink">
<g id="graph0" class="graph" transform="scale(1 1) rotate(0) translate(4 113)">
<title>src/P1NCP1B/Operateurs/Op_Diff_VEFP1NCP1B_Face_Var.h</title>
<polygon fill="white" stroke="transparent" points="-4,4 -4,-113 185,-113 185,4 -4,4"/>
<!-- Node1 -->
<g id="node1" class="node">
<title>Node1</title>
<g id="a_node1"><a xlink:title=" ">
<polygon fill="#bfbfbf" stroke="black" points="0,-78.5 0,-108.5 181,-108.5 181,-78.5 0,-78.5"/>
<text text-anchor="start" x="8" y="-96.5" font-family="Helvetica,sans-Serif" font-size="10.00">src/P1NCP1B/Operateurs</text>
<text text-anchor="middle" x="90.5" y="-85.5" font-family="Helvetica,sans-Serif" font-size="10.00">/Op_Diff_VEFP1NCP1B_Face_Var.h</text>
</a>
</g>
</g>
<!-- Node2 -->
<g id="node2" class="node">
<title>Node2</title>
<g id="a_node2"><a xlink:href="Op__Diff__VEFP1NCP1B__Face__Var_8cpp.html" target="_top" xlink:title=" ">
<polygon fill="white" stroke="black" points="14.5,-0.5 14.5,-41.5 166.5,-41.5 166.5,-0.5 14.5,-0.5"/>
<text text-anchor="start" x="22.5" y="-29.5" font-family="Helvetica,sans-Serif" font-size="10.00">src/P1NCP1B/Operateurs</text>
<text text-anchor="start" x="22.5" y="-18.5" font-family="Helvetica,sans-Serif" font-size="10.00">/Op_Diff_VEFP1NCP1B_Face</text>
<text text-anchor="middle" x="90.5" y="-7.5" font-family="Helvetica,sans-Serif" font-size="10.00">_Var.cpp</text>
</a>
</g>
</g>
<!-- Node1&#45;&gt;Node2 -->
<g id="edge1" class="edge">
<title>Node1&#45;&gt;Node2</title>
<path fill="none" stroke="midnightblue" d="M90.5,-67.98C90.5,-59.35 90.5,-49.76 90.5,-41.59"/>
<polygon fill="midnightblue" stroke="midnightblue" points="87,-68.23 90.5,-78.23 94,-68.23 87,-68.23"/>
</g>
</g>
</svg>
