<?xml version="1.0" encoding="UTF-8" standalone="no"?>
<!DOCTYPE svg PUBLIC "-//W3C//DTD SVG 1.1//EN"
 "http://www.w3.org/Graphics/SVG/1.1/DTD/svg11.dtd">
<!-- Generated by graphviz version 2.43.0 (0)
 -->
<!-- Title: src/PolyMAC/Operateurs/Op_Diff_PolyMAC_P0_Elem.h Pages: 1 -->
<svg width="1189pt" height="195pt"
 viewBox="0.00 0.00 1189.00 195.00" xmlns="http://www.w3.org/2000/svg" xmlns:xlink="http://www.w3.org/1999/xlink">
<g id="graph0" class="graph" transform="scale(1 1) rotate(0) translate(4 191)">
<title>src/PolyMAC/Operateurs/Op_Diff_PolyMAC_P0_Elem.h</title>
<polygon fill="white" stroke="transparent" points="-4,4 -4,-191 1185,-191 1185,4 -4,4"/>
<!-- Node1 -->
<g id="node1" class="node">
<title>Node1</title>
<g id="a_node1"><a xlink:title=" ">
<polygon fill="#bfbfbf" stroke="black" points="726,-156.5 726,-186.5 887,-186.5 887,-156.5 726,-156.5"/>
<text text-anchor="start" x="734" y="-174.5" font-family="Helvetica,sans-Serif" font-size="10.00">src/PolyMAC/Operateurs</text>
<text text-anchor="middle" x="806.5" y="-163.5" font-family="Helvetica,sans-Serif" font-size="10.00">/Op_Diff_PolyMAC_P0_Elem.h</text>
</a>
</g>
</g>
<!-- Node2 -->
<g id="node2" class="node">
<title>Node2</title>
<g id="a_node2"><a xlink:href="Echange__contact__PolyMAC__P0_8cpp.html" target="_top" xlink:title=" ">
<polygon fill="white" stroke="black" points="0,-0.5 0,-41.5 151,-41.5 151,-0.5 0,-0.5"/>
<text text-anchor="start" x="8" y="-29.5" font-family="Helvetica,sans-Serif" font-size="10.00">src/PolyMAC/Cond_Lim</text>
<text text-anchor="start" x="8" y="-18.5" font-family="Helvetica,sans-Serif" font-size="10.00">/Echange_contact_PolyMAC</text>
<text text-anchor="middle" x="75.5" y="-7.5" font-family="Helvetica,sans-Serif" font-size="10.00">_P0.cpp</text>
</a>
</g>
</g>
<!-- Node1&#45;&gt;Node2 -->
<g id="edge1" class="edge">
<title>Node1&#45;&gt;Node2</title>
<path fill="none" stroke="midnightblue" d="M715.99,-158.69C649.92,-149.56 558.33,-135.82 478.5,-120 361.96,-96.9 228.23,-62.87 147.89,-41.59"/>
<polygon fill="midnightblue" stroke="midnightblue" points="715.58,-162.17 725.96,-160.06 716.53,-155.23 715.58,-162.17"/>
</g>
<!-- Node3 -->
<g id="node3" class="node">
<title>Node3</title>
<g id="a_node3"><a xlink:href="Echange__contact__PolyMAC__P0_8h.html" target="_top" xlink:title=" ">
<polygon fill="white" stroke="black" points="488,-84 488,-114 665,-114 665,-84 488,-84"/>
<text text-anchor="start" x="496" y="-102" font-family="Helvetica,sans-Serif" font-size="10.00">src/PolyMAC/Cond_Lim</text>
<text text-anchor="middle" x="576.5" y="-91" font-family="Helvetica,sans-Serif" font-size="10.00">/Echange_contact_PolyMAC_P0.h</text>
</a>
</g>
</g>
<!-- Node1&#45;&gt;Node3 -->
<g id="edge2" class="edge">
<title>Node1&#45;&gt;Node3</title>
<path fill="none" stroke="midnightblue" d="M751.08,-153.51C711.74,-141.46 659.56,-125.46 622.52,-114.11"/>
<polygon fill="midnightblue" stroke="midnightblue" points="750.2,-156.9 760.78,-156.49 752.25,-150.21 750.2,-156.9"/>
</g>
<!-- Node6 -->
<g id="node6" class="node">
<title>Node6</title>
<g id="a_node6"><a xlink:href="Op__Diff__PolyMAC__P0__Elem_8cpp.html" target="_top" xlink:title=" ">
<polygon fill="white" stroke="black" points="835.5,-6 835.5,-36 1007.5,-36 1007.5,-6 835.5,-6"/>
<text text-anchor="start" x="843.5" y="-24" font-family="Helvetica,sans-Serif" font-size="10.00">src/PolyMAC/Operateurs</text>
<text text-anchor="middle" x="921.5" y="-13" font-family="Helvetica,sans-Serif" font-size="10.00">/Op_Diff_PolyMAC_P0_Elem.cpp</text>
</a>
</g>
</g>
<!-- Node1&#45;&gt;Node6 -->
<g id="edge9" class="edge">
<title>Node1&#45;&gt;Node6</title>
<path fill="none" stroke="midnightblue" d="M806.54,-146.07C807.72,-126.05 812.13,-97.89 826.5,-78 840.29,-58.91 862.76,-45.24 882.38,-36.18"/>
<polygon fill="midnightblue" stroke="midnightblue" points="803.04,-146.13 806.17,-156.25 810.03,-146.38 803.04,-146.13"/>
</g>
<!-- Node9 -->
<g id="node9" class="node">
<title>Node9</title>
<g id="a_node9"><a xlink:href="Op__Diff__Turbulent__PolyMAC__P0__Elem_8h.html" target="_top" xlink:title=" ">
<polygon fill="white" stroke="black" points="835,-78.5 835,-119.5 990,-119.5 990,-78.5 835,-78.5"/>
<text text-anchor="start" x="843" y="-107.5" font-family="Helvetica,sans-Serif" font-size="10.00">src/PolyMAC/Operateurs</text>
<text text-anchor="start" x="843" y="-96.5" font-family="Helvetica,sans-Serif" font-size="10.00">/Op_Diff_Turbulent_PolyMAC</text>
<text text-anchor="middle" x="912.5" y="-85.5" font-family="Helvetica,sans-Serif" font-size="10.00">_P0_Elem.h</text>
</a>
</g>
</g>
<!-- Node1&#45;&gt;Node9 -->
<g id="edge10" class="edge">
<title>Node1&#45;&gt;Node9</title>
<path fill="none" stroke="midnightblue" d="M836.34,-150.65C850.9,-140.97 868.38,-129.35 882.91,-119.68"/>
<polygon fill="midnightblue" stroke="midnightblue" points="834.08,-147.95 827.7,-156.4 837.96,-153.78 834.08,-147.95"/>
</g>
<!-- Node11 -->
<g id="node11" class="node">
<title>Node11</title>
<g id="a_node11"><a xlink:href="Flux__interfacial__PolyMAC_8cpp.html" target="_top" xlink:title=" ">
<polygon fill="white" stroke="black" points="1008.5,-78.5 1008.5,-119.5 1150.5,-119.5 1150.5,-78.5 1008.5,-78.5"/>
<text text-anchor="start" x="1016.5" y="-107.5" font-family="Helvetica,sans-Serif" font-size="10.00">src/ThHyd/Multiphase</text>
<text text-anchor="start" x="1016.5" y="-96.5" font-family="Helvetica,sans-Serif" font-size="10.00">/PolyMAC/Flux_interfacial</text>
<text text-anchor="middle" x="1079.5" y="-85.5" font-family="Helvetica,sans-Serif" font-size="10.00">_PolyMAC.cpp</text>
</a>
</g>
</g>
<!-- Node1&#45;&gt;Node11 -->
<g id="edge12" class="edge">
<title>Node1&#45;&gt;Node11</title>
<path fill="none" stroke="midnightblue" d="M870.45,-153.99C911.76,-143.32 965.57,-129.42 1008.25,-118.4"/>
<polygon fill="midnightblue" stroke="midnightblue" points="869.57,-150.6 860.76,-156.49 871.32,-157.38 869.57,-150.6"/>
</g>
<!-- Node3&#45;&gt;Node2 -->
<g id="edge5" class="edge">
<title>Node3&#45;&gt;Node2</title>
<path fill="none" stroke="midnightblue" d="M477.69,-87.56C392.92,-77.93 267.68,-62.09 159.5,-42 156.85,-41.51 154.15,-40.99 151.43,-40.44"/>
<polygon fill="midnightblue" stroke="midnightblue" points="477.5,-91.06 487.83,-88.7 478.28,-84.1 477.5,-91.06"/>
</g>
<!-- Node4 -->
<g id="node4" class="node">
<title>Node4</title>
<g id="a_node4"><a xlink:href="Champ__Elem__PolyMAC_8cpp.html" target="_top" xlink:title=" ">
<polygon fill="white" stroke="black" points="169,-6 169,-36 322,-36 322,-6 169,-6"/>
<text text-anchor="start" x="177" y="-24" font-family="Helvetica,sans-Serif" font-size="10.00">src/PolyMAC/Champs</text>
<text text-anchor="middle" x="245.5" y="-13" font-family="Helvetica,sans-Serif" font-size="10.00">/Champ_Elem_PolyMAC.cpp</text>
</a>
</g>
</g>
<!-- Node3&#45;&gt;Node4 -->
<g id="edge3" class="edge">
<title>Node3&#45;&gt;Node4</title>
<path fill="none" stroke="midnightblue" d="M504.41,-81.73C455.36,-70.63 388.99,-55.54 330.5,-42 322.23,-40.09 313.51,-38.05 304.93,-36.04"/>
<polygon fill="midnightblue" stroke="midnightblue" points="503.77,-85.18 514.29,-83.97 505.31,-78.35 503.77,-85.18"/>
</g>
<!-- Node5 -->
<g id="node5" class="node">
<title>Node5</title>
<g id="a_node5"><a xlink:href="Champ__Elem__PolyMAC__P0_8cpp.html" target="_top" xlink:title=" ">
<polygon fill="white" stroke="black" points="340,-0.5 340,-41.5 473,-41.5 473,-0.5 340,-0.5"/>
<text text-anchor="start" x="348" y="-29.5" font-family="Helvetica,sans-Serif" font-size="10.00">src/PolyMAC/Champs</text>
<text text-anchor="start" x="348" y="-18.5" font-family="Helvetica,sans-Serif" font-size="10.00">/Champ_Elem_PolyMAC</text>
<text text-anchor="middle" x="406.5" y="-7.5" font-family="Helvetica,sans-Serif" font-size="10.00">_P0.cpp</text>
</a>
</g>
</g>
<!-- Node3&#45;&gt;Node5 -->
<g id="edge4" class="edge">
<title>Node3&#45;&gt;Node5</title>
<path fill="none" stroke="midnightblue" d="M535.46,-79.65C509.75,-68.16 476.64,-53.36 450.4,-41.63"/>
<polygon fill="midnightblue" stroke="midnightblue" points="534.36,-83 544.92,-83.88 537.22,-76.61 534.36,-83"/>
</g>
<!-- Node3&#45;&gt;Node6 -->
<g id="edge6" class="edge">
<title>Node3&#45;&gt;Node6</title>
<path fill="none" stroke="midnightblue" d="M650.25,-81.75C711.99,-68.15 799.18,-48.95 857.9,-36.01"/>
<polygon fill="midnightblue" stroke="midnightblue" points="649.19,-78.4 640.18,-83.97 650.7,-85.24 649.19,-78.4"/>
</g>
<!-- Node7 -->
<g id="node7" class="node">
<title>Node7</title>
<g id="a_node7"><a xlink:href="Op__Diff__PolyMAC__P0__base_8cpp.html" target="_top" xlink:title=" ">
<polygon fill="white" stroke="black" points="491.5,-6 491.5,-36 661.5,-36 661.5,-6 491.5,-6"/>
<text text-anchor="start" x="499.5" y="-24" font-family="Helvetica,sans-Serif" font-size="10.00">src/PolyMAC/Operateurs</text>
<text text-anchor="middle" x="576.5" y="-13" font-family="Helvetica,sans-Serif" font-size="10.00">/Op_Diff_PolyMAC_P0_base.cpp</text>
</a>
</g>
</g>
<!-- Node3&#45;&gt;Node7 -->
<g id="edge7" class="edge">
<title>Node3&#45;&gt;Node7</title>
<path fill="none" stroke="midnightblue" d="M576.5,-73.59C576.5,-61.26 576.5,-46.72 576.5,-36.23"/>
<polygon fill="midnightblue" stroke="midnightblue" points="573,-73.7 576.5,-83.7 580,-73.71 573,-73.7"/>
</g>
<!-- Node8 -->
<g id="node8" class="node">
<title>Node8</title>
<g id="a_node8"><a xlink:href="Zone__PolyMAC__P0_8cpp.html" target="_top" xlink:title=" ">
<polygon fill="white" stroke="black" points="679.5,-6 679.5,-36 817.5,-36 817.5,-6 679.5,-6"/>
<text text-anchor="start" x="687.5" y="-24" font-family="Helvetica,sans-Serif" font-size="10.00">src/PolyMAC/Zones/Zone</text>
<text text-anchor="middle" x="748.5" y="-13" font-family="Helvetica,sans-Serif" font-size="10.00">_PolyMAC_P0.cpp</text>
</a>
</g>
</g>
<!-- Node3&#45;&gt;Node8 -->
<g id="edge8" class="edge">
<title>Node3&#45;&gt;Node8</title>
<path fill="none" stroke="midnightblue" d="M617.92,-79.7C648.28,-66.28 688.9,-48.34 716.72,-36.04"/>
<polygon fill="midnightblue" stroke="midnightblue" points="616.18,-76.64 608.45,-83.88 619.01,-83.04 616.18,-76.64"/>
</g>
<!-- Node10 -->
<g id="node10" class="node">
<title>Node10</title>
<g id="a_node10"><a xlink:href="Op__Diff__Turbulent__PolyMAC__P0__Elem_8cpp.html" target="_top" xlink:title=" ">
<polygon fill="white" stroke="black" points="1026,-0.5 1026,-41.5 1181,-41.5 1181,-0.5 1026,-0.5"/>
<text text-anchor="start" x="1034" y="-29.5" font-family="Helvetica,sans-Serif" font-size="10.00">src/PolyMAC/Operateurs</text>
<text text-anchor="start" x="1034" y="-18.5" font-family="Helvetica,sans-Serif" font-size="10.00">/Op_Diff_Turbulent_PolyMAC</text>
<text text-anchor="middle" x="1103.5" y="-7.5" font-family="Helvetica,sans-Serif" font-size="10.00">_P0_Elem.cpp</text>
</a>
</g>
</g>
<!-- Node9&#45;&gt;Node10 -->
<g id="edge11" class="edge">
<title>Node9&#45;&gt;Node10</title>
<path fill="none" stroke="midnightblue" d="M971.29,-74.61C997.95,-64 1029.11,-51.6 1054.48,-41.51"/>
<polygon fill="midnightblue" stroke="midnightblue" points="969.68,-71.48 961.69,-78.43 972.27,-77.98 969.68,-71.48"/>
</g>
</g>
</svg>
