<?xml version="1.0" encoding="UTF-8" standalone="no"?>
<!DOCTYPE svg PUBLIC "-//W3C//DTD SVG 1.1//EN"
 "http://www.w3.org/Graphics/SVG/1.1/DTD/svg11.dtd">
<!-- Generated by graphviz version 2.43.0 (0)
 -->
<!-- Title: src/VEF/Operateurs/Op_Conv_VEF_Face.h Pages: 1 -->
<svg width="1124pt" height="195pt"
 viewBox="0.00 0.00 1124.00 195.00" xmlns="http://www.w3.org/2000/svg" xmlns:xlink="http://www.w3.org/1999/xlink">
<g id="graph0" class="graph" transform="scale(1 1) rotate(0) translate(4 191)">
<title>src/VEF/Operateurs/Op_Conv_VEF_Face.h</title>
<polygon fill="white" stroke="transparent" points="-4,4 -4,-191 1120,-191 1120,4 -4,4"/>
<!-- Node1 -->
<g id="node1" class="node">
<title>Node1</title>
<g id="a_node1"><a xlink:title=" ">
<polygon fill="#bfbfbf" stroke="black" points="490.5,-156.5 490.5,-186.5 613.5,-186.5 613.5,-156.5 490.5,-156.5"/>
<text text-anchor="start" x="498.5" y="-174.5" font-family="Helvetica,sans-Serif" font-size="10.00">src/VEF/Operateurs</text>
<text text-anchor="middle" x="552" y="-163.5" font-family="Helvetica,sans-Serif" font-size="10.00">/Op_Conv_VEF_Face.h</text>
</a>
</g>
</g>
<!-- Node2 -->
<g id="node2" class="node">
<title>Node2</title>
<g id="a_node2"><a xlink:href="Op__Conv__Amont__VEF__Face_8h.html" target="_top" xlink:title=" ">
<polygon fill="white" stroke="black" points="8.5,-84 8.5,-114 169.5,-114 169.5,-84 8.5,-84"/>
<text text-anchor="start" x="16.5" y="-102" font-family="Helvetica,sans-Serif" font-size="10.00">src/VEF/Operateurs</text>
<text text-anchor="middle" x="89" y="-91" font-family="Helvetica,sans-Serif" font-size="10.00">/Op_Conv_Amont_VEF_Face.h</text>
</a>
</g>
</g>
<!-- Node1&#45;&gt;Node2 -->
<g id="edge1" class="edge">
<title>Node1&#45;&gt;Node2</title>
<path fill="none" stroke="midnightblue" d="M480.13,-162.42C405.2,-153.6 284.48,-138.26 181,-120 171.02,-118.24 160.48,-116.16 150.23,-114.01"/>
<polygon fill="midnightblue" stroke="midnightblue" points="480.05,-165.93 490.39,-163.62 480.86,-158.98 480.05,-165.93"/>
</g>
<!-- Node4 -->
<g id="node4" class="node">
<title>Node4</title>
<g id="a_node4"><a xlink:href="Op__Conv__Centre__VEF__Face_8h.html" target="_top" xlink:title=" ">
<polygon fill="white" stroke="black" points="190.5,-78.5 190.5,-119.5 315.5,-119.5 315.5,-78.5 190.5,-78.5"/>
<text text-anchor="start" x="198.5" y="-107.5" font-family="Helvetica,sans-Serif" font-size="10.00">src/VEF/Operateurs</text>
<text text-anchor="start" x="198.5" y="-96.5" font-family="Helvetica,sans-Serif" font-size="10.00">/Op_Conv_Centre_VEF</text>
<text text-anchor="middle" x="253" y="-85.5" font-family="Helvetica,sans-Serif" font-size="10.00">_Face.h</text>
</a>
</g>
</g>
<!-- Node1&#45;&gt;Node4 -->
<g id="edge3" class="edge">
<title>Node1&#45;&gt;Node4</title>
<path fill="none" stroke="midnightblue" d="M480.23,-155.53C435.45,-145.95 376.71,-132.92 325,-120 321.98,-119.25 318.89,-118.46 315.78,-117.65"/>
<polygon fill="midnightblue" stroke="midnightblue" points="479.62,-158.98 490.14,-157.65 481.09,-152.14 479.62,-158.98"/>
</g>
<!-- Node6 -->
<g id="node6" class="node">
<title>Node6</title>
<g id="a_node6"><a xlink:href="Op__Conv__EF__VEF__P1NC__Stab_8h.html" target="_top" xlink:title=" ">
<polygon fill="white" stroke="black" points="334,-78.5 334,-119.5 470,-119.5 470,-78.5 334,-78.5"/>
<text text-anchor="start" x="342" y="-107.5" font-family="Helvetica,sans-Serif" font-size="10.00">src/VEF/Operateurs</text>
<text text-anchor="start" x="342" y="-96.5" font-family="Helvetica,sans-Serif" font-size="10.00">/Op_Conv_EF_VEF_P1NC</text>
<text text-anchor="middle" x="402" y="-85.5" font-family="Helvetica,sans-Serif" font-size="10.00">_Stab.h</text>
</a>
</g>
</g>
<!-- Node1&#45;&gt;Node6 -->
<g id="edge5" class="edge">
<title>Node1&#45;&gt;Node6</title>
<path fill="none" stroke="midnightblue" d="M512.91,-152.13C491.62,-142.12 465.26,-129.73 443.59,-119.55"/>
<polygon fill="midnightblue" stroke="midnightblue" points="511.47,-155.32 522.01,-156.4 514.44,-148.98 511.47,-155.32"/>
</g>
<!-- Node8 -->
<g id="node8" class="node">
<title>Node8</title>
<g id="a_node8"><a xlink:href="Op__Conv__Muscl3__VEF__Face_8h.html" target="_top" xlink:title=" ">
<polygon fill="white" stroke="black" points="488.5,-78.5 488.5,-119.5 615.5,-119.5 615.5,-78.5 488.5,-78.5"/>
<text text-anchor="start" x="496.5" y="-107.5" font-family="Helvetica,sans-Serif" font-size="10.00">src/VEF/Operateurs</text>
<text text-anchor="start" x="496.5" y="-96.5" font-family="Helvetica,sans-Serif" font-size="10.00">/Op_Conv_Muscl3_VEF</text>
<text text-anchor="middle" x="552" y="-85.5" font-family="Helvetica,sans-Serif" font-size="10.00">_Face.h</text>
</a>
</g>
</g>
<!-- Node1&#45;&gt;Node8 -->
<g id="edge7" class="edge">
<title>Node1&#45;&gt;Node8</title>
<path fill="none" stroke="midnightblue" d="M552,-145.98C552,-137.35 552,-127.76 552,-119.59"/>
<polygon fill="midnightblue" stroke="midnightblue" points="548.5,-146.23 552,-156.23 555.5,-146.23 548.5,-146.23"/>
</g>
<!-- Node10 -->
<g id="node10" class="node">
<title>Node10</title>
<g id="a_node10"><a xlink:href="Op__Conv__Muscl__New__VEF__Face_8h.html" target="_top" xlink:title=" ">
<polygon fill="white" stroke="black" points="634,-78.5 634,-119.5 782,-119.5 782,-78.5 634,-78.5"/>
<text text-anchor="start" x="642" y="-107.5" font-family="Helvetica,sans-Serif" font-size="10.00">src/VEF/Operateurs</text>
<text text-anchor="start" x="642" y="-96.5" font-family="Helvetica,sans-Serif" font-size="10.00">/Op_Conv_Muscl_New_VEF</text>
<text text-anchor="middle" x="708" y="-85.5" font-family="Helvetica,sans-Serif" font-size="10.00">_Face.h</text>
</a>
</g>
</g>
<!-- Node1&#45;&gt;Node10 -->
<g id="edge9" class="edge">
<title>Node1&#45;&gt;Node10</title>
<path fill="none" stroke="midnightblue" d="M592.35,-152.26C614.55,-142.23 642.11,-129.78 664.75,-119.55"/>
<polygon fill="midnightblue" stroke="midnightblue" points="590.87,-149.1 583.19,-156.4 593.75,-155.47 590.87,-149.1"/>
</g>
<!-- Node12 -->
<g id="node12" class="node">
<title>Node12</title>
<g id="a_node12"><a xlink:href="Op__Conv__Muscl__VEF__Face_8h.html" target="_top" xlink:title=" ">
<polygon fill="white" stroke="black" points="802.5,-84 802.5,-114 959.5,-114 959.5,-84 802.5,-84"/>
<text text-anchor="start" x="810.5" y="-102" font-family="Helvetica,sans-Serif" font-size="10.00">src/VEF/Operateurs</text>
<text text-anchor="middle" x="881" y="-91" font-family="Helvetica,sans-Serif" font-size="10.00">/Op_Conv_Muscl_VEF_Face.h</text>
</a>
</g>
</g>
<!-- Node1&#45;&gt;Node12 -->
<g id="edge11" class="edge">
<title>Node1&#45;&gt;Node12</title>
<path fill="none" stroke="midnightblue" d="M623.82,-155.53C671.29,-145.58 734.89,-132.16 791,-120 799.76,-118.1 808.99,-116.08 818.08,-114.07"/>
<polygon fill="midnightblue" stroke="midnightblue" points="623.01,-152.12 613.94,-157.6 624.44,-158.97 623.01,-152.12"/>
</g>
<!-- Node15 -->
<g id="node15" class="node">
<title>Node15</title>
<g id="a_node15"><a xlink:href="Op__Conv__VEF__Face_8cpp.html" target="_top" xlink:title=" ">
<polygon fill="white" stroke="black" points="978,-84 978,-114 1112,-114 1112,-84 978,-84"/>
<text text-anchor="start" x="986" y="-102" font-family="Helvetica,sans-Serif" font-size="10.00">src/VEF/Operateurs</text>
<text text-anchor="middle" x="1045" y="-91" font-family="Helvetica,sans-Serif" font-size="10.00">/Op_Conv_VEF_Face.cpp</text>
</a>
</g>
</g>
<!-- Node1&#45;&gt;Node15 -->
<g id="edge14" class="edge">
<title>Node1&#45;&gt;Node15</title>
<path fill="none" stroke="midnightblue" d="M623.66,-164.82C707.1,-157.52 848.84,-142.97 969,-120 977.71,-118.33 986.9,-116.23 995.76,-114.01"/>
<polygon fill="midnightblue" stroke="midnightblue" points="623.19,-161.35 613.53,-165.7 623.79,-168.33 623.19,-161.35"/>
</g>
<!-- Node3 -->
<g id="node3" class="node">
<title>Node3</title>
<g id="a_node3"><a xlink:href="Op__Conv__Amont__VEF__Face_8cpp.html" target="_top" xlink:title=" ">
<polygon fill="white" stroke="black" points="0,-6 0,-36 172,-36 172,-6 0,-6"/>
<text text-anchor="start" x="8" y="-24" font-family="Helvetica,sans-Serif" font-size="10.00">src/VEF/Operateurs</text>
<text text-anchor="middle" x="86" y="-13" font-family="Helvetica,sans-Serif" font-size="10.00">/Op_Conv_Amont_VEF_Face.cpp</text>
</a>
</g>
</g>
<!-- Node2&#45;&gt;Node3 -->
<g id="edge2" class="edge">
<title>Node2&#45;&gt;Node3</title>
<path fill="none" stroke="midnightblue" d="M88.04,-73.59C87.55,-61.26 86.98,-46.72 86.56,-36.23"/>
<polygon fill="midnightblue" stroke="midnightblue" points="84.54,-73.85 88.44,-83.7 91.54,-73.57 84.54,-73.85"/>
</g>
<!-- Node5 -->
<g id="node5" class="node">
<title>Node5</title>
<g id="a_node5"><a xlink:href="Op__Conv__Centre__VEF__Face_8cpp.html" target="_top" xlink:title=" ">
<polygon fill="white" stroke="black" points="190.5,-0.5 190.5,-41.5 315.5,-41.5 315.5,-0.5 190.5,-0.5"/>
<text text-anchor="start" x="198.5" y="-29.5" font-family="Helvetica,sans-Serif" font-size="10.00">src/VEF/Operateurs</text>
<text text-anchor="start" x="198.5" y="-18.5" font-family="Helvetica,sans-Serif" font-size="10.00">/Op_Conv_Centre_VEF</text>
<text text-anchor="middle" x="253" y="-7.5" font-family="Helvetica,sans-Serif" font-size="10.00">_Face.cpp</text>
</a>
</g>
</g>
<!-- Node4&#45;&gt;Node5 -->
<g id="edge4" class="edge">
<title>Node4&#45;&gt;Node5</title>
<path fill="none" stroke="midnightblue" d="M253,-68.3C253,-59.3 253,-49.65 253,-41.51"/>
<polygon fill="midnightblue" stroke="midnightblue" points="249.5,-68.43 253,-78.43 256.5,-68.43 249.5,-68.43"/>
</g>
<!-- Node7 -->
<g id="node7" class="node">
<title>Node7</title>
<g id="a_node7"><a xlink:href="Op__Conv__EF__VEF__P1NC__Stab_8cpp.html" target="_top" xlink:title=" ">
<polygon fill="white" stroke="black" points="334,-0.5 334,-41.5 470,-41.5 470,-0.5 334,-0.5"/>
<text text-anchor="start" x="342" y="-29.5" font-family="Helvetica,sans-Serif" font-size="10.00">src/VEF/Operateurs</text>
<text text-anchor="start" x="342" y="-18.5" font-family="Helvetica,sans-Serif" font-size="10.00">/Op_Conv_EF_VEF_P1NC</text>
<text text-anchor="middle" x="402" y="-7.5" font-family="Helvetica,sans-Serif" font-size="10.00">_Stab.cpp</text>
</a>
</g>
</g>
<!-- Node6&#45;&gt;Node7 -->
<g id="edge6" class="edge">
<title>Node6&#45;&gt;Node7</title>
<path fill="none" stroke="midnightblue" d="M402,-68.3C402,-59.3 402,-49.65 402,-41.51"/>
<polygon fill="midnightblue" stroke="midnightblue" points="398.5,-68.43 402,-78.43 405.5,-68.43 398.5,-68.43"/>
</g>
<!-- Node9 -->
<g id="node9" class="node">
<title>Node9</title>
<g id="a_node9"><a xlink:href="Op__Conv__Muscl3__VEF__Face_8cpp.html" target="_top" xlink:title=" ">
<polygon fill="white" stroke="black" points="488.5,-0.5 488.5,-41.5 615.5,-41.5 615.5,-0.5 488.5,-0.5"/>
<text text-anchor="start" x="496.5" y="-29.5" font-family="Helvetica,sans-Serif" font-size="10.00">src/VEF/Operateurs</text>
<text text-anchor="start" x="496.5" y="-18.5" font-family="Helvetica,sans-Serif" font-size="10.00">/Op_Conv_Muscl3_VEF</text>
<text text-anchor="middle" x="552" y="-7.5" font-family="Helvetica,sans-Serif" font-size="10.00">_Face.cpp</text>
</a>
</g>
</g>
<!-- Node8&#45;&gt;Node9 -->
<g id="edge8" class="edge">
<title>Node8&#45;&gt;Node9</title>
<path fill="none" stroke="midnightblue" d="M552,-68.3C552,-59.3 552,-49.65 552,-41.51"/>
<polygon fill="midnightblue" stroke="midnightblue" points="548.5,-68.43 552,-78.43 555.5,-68.43 548.5,-68.43"/>
</g>
<!-- Node11 -->
<g id="node11" class="node">
<title>Node11</title>
<g id="a_node11"><a xlink:href="Op__Conv__Muscl__New__VEF__Face_8cpp.html" target="_top" xlink:title=" ">
<polygon fill="white" stroke="black" points="634,-0.5 634,-41.5 782,-41.5 782,-0.5 634,-0.5"/>
<text text-anchor="start" x="642" y="-29.5" font-family="Helvetica,sans-Serif" font-size="10.00">src/VEF/Operateurs</text>
<text text-anchor="start" x="642" y="-18.5" font-family="Helvetica,sans-Serif" font-size="10.00">/Op_Conv_Muscl_New_VEF</text>
<text text-anchor="middle" x="708" y="-7.5" font-family="Helvetica,sans-Serif" font-size="10.00">_Face.cpp</text>
</a>
</g>
</g>
<!-- Node10&#45;&gt;Node11 -->
<g id="edge10" class="edge">
<title>Node10&#45;&gt;Node11</title>
<path fill="none" stroke="midnightblue" d="M708,-68.3C708,-59.3 708,-49.65 708,-41.51"/>
<polygon fill="midnightblue" stroke="midnightblue" points="704.5,-68.43 708,-78.43 711.5,-68.43 704.5,-68.43"/>
</g>
<!-- Node13 -->
<g id="node13" class="node">
<title>Node13</title>
<g id="a_node13"><a xlink:href="Op__Conv__Muscl__VEF__Face_8cpp.html" target="_top" xlink:title=" ">
<polygon fill="white" stroke="black" points="800,-6 800,-36 968,-36 968,-6 800,-6"/>
<text text-anchor="start" x="808" y="-24" font-family="Helvetica,sans-Serif" font-size="10.00">src/VEF/Operateurs</text>
<text text-anchor="middle" x="884" y="-13" font-family="Helvetica,sans-Serif" font-size="10.00">/Op_Conv_Muscl_VEF_Face.cpp</text>
</a>
</g>
</g>
<!-- Node12&#45;&gt;Node13 -->
<g id="edge12" class="edge">
<title>Node12&#45;&gt;Node13</title>
<path fill="none" stroke="midnightblue" d="M881.96,-73.59C882.45,-61.26 883.02,-46.72 883.44,-36.23"/>
<polygon fill="midnightblue" stroke="midnightblue" points="878.46,-73.57 881.56,-83.7 885.46,-73.85 878.46,-73.57"/>
</g>
<!-- Node14 -->
<g id="node14" class="node">
<title>Node14</title>
<g id="a_node14"><a xlink:href="Terme__Source__Th__TdivU__VEF__Face_8cpp.html" target="_top" xlink:title=" ">
<polygon fill="white" stroke="black" points="986,-0.5 986,-41.5 1116,-41.5 1116,-0.5 986,-0.5"/>
<text text-anchor="start" x="994" y="-29.5" font-family="Helvetica,sans-Serif" font-size="10.00">src/VEF/Sources/Terme</text>
<text text-anchor="start" x="994" y="-18.5" font-family="Helvetica,sans-Serif" font-size="10.00">_Source_Th_TdivU_VEF</text>
<text text-anchor="middle" x="1051" y="-7.5" font-family="Helvetica,sans-Serif" font-size="10.00">_Face.cpp</text>
</a>
</g>
</g>
<!-- Node12&#45;&gt;Node14 -->
<g id="edge13" class="edge">
<title>Node12&#45;&gt;Node14</title>
<path fill="none" stroke="midnightblue" d="M922.04,-79.65C947.75,-68.16 980.86,-53.36 1007.1,-41.63"/>
<polygon fill="midnightblue" stroke="midnightblue" points="920.28,-76.61 912.58,-83.88 923.14,-83 920.28,-76.61"/>
</g>
</g>
</svg>
