<?xml version="1.0" encoding="UTF-8" standalone="no"?>
<!DOCTYPE svg PUBLIC "-//W3C//DTD SVG 1.1//EN"
 "http://www.w3.org/Graphics/SVG/1.1/DTD/svg11.dtd">
<!-- Generated by graphviz version 2.43.0 (0)
 -->
<!-- Title: src/VDF/Operateurs/Op_Diff_Dift/Op_Diff_Dift_base/Op_Diff_VDF_base.h Pages: 1 -->
<svg width="1170pt" height="495pt"
 viewBox="0.00 0.00 1170.00 495.00" xmlns="http://www.w3.org/2000/svg" xmlns:xlink="http://www.w3.org/1999/xlink">
<g id="graph0" class="graph" transform="scale(1 1) rotate(0) translate(4 491)">
<title>src/VDF/Operateurs/Op_Diff_Dift/Op_Diff_Dift_base/Op_Diff_VDF_base.h</title>
<polygon fill="white" stroke="transparent" points="-4,4 -4,-491 1166,-491 1166,4 -4,4"/>
<!-- Node1 -->
<g id="node1" class="node">
<title>Node1</title>
<g id="a_node1"><a xlink:title=" ">
<polygon fill="#bfbfbf" stroke="black" points="484,-434.5 484,-486.5 616,-486.5 616,-434.5 484,-434.5"/>
<text text-anchor="start" x="492" y="-474.5" font-family="Helvetica,sans-Serif" font-size="10.00">src/VDF/Operateurs</text>
<text text-anchor="start" x="492" y="-463.5" font-family="Helvetica,sans-Serif" font-size="10.00">/Op_Diff_Dift/Op_Diff</text>
<text text-anchor="start" x="492" y="-452.5" font-family="Helvetica,sans-Serif" font-size="10.00">_Dift_base/Op_Diff_VDF</text>
<text text-anchor="middle" x="550" y="-441.5" font-family="Helvetica,sans-Serif" font-size="10.00">_base.h</text>
</a>
</g>
</g>
<!-- Node2 -->
<g id="node2" class="node">
<title>Node2</title>
<g id="a_node2"><a xlink:href="Op__Diff__VDF__Elem__base_8h.html" target="_top" xlink:title=" ">
<polygon fill="white" stroke="black" points="144,-345.5 144,-397.5 276,-397.5 276,-345.5 144,-345.5"/>
<text text-anchor="start" x="152" y="-385.5" font-family="Helvetica,sans-Serif" font-size="10.00">src/VDF/Operateurs</text>
<text text-anchor="start" x="152" y="-374.5" font-family="Helvetica,sans-Serif" font-size="10.00">/Op_Diff_Dift/Op_Diff</text>
<text text-anchor="start" x="152" y="-363.5" font-family="Helvetica,sans-Serif" font-size="10.00">_Dift_base/Op_Diff_VDF</text>
<text text-anchor="middle" x="210" y="-352.5" font-family="Helvetica,sans-Serif" font-size="10.00">_Elem_base.h</text>
</a>
</g>
</g>
<!-- Node1&#45;&gt;Node2 -->
<g id="edge1" class="edge">
<title>Node1&#45;&gt;Node2</title>
<path fill="none" stroke="midnightblue" d="M473.94,-440.04C414.56,-424.84 332.9,-403.95 276.2,-389.44"/>
<polygon fill="midnightblue" stroke="midnightblue" points="473.08,-443.43 483.64,-442.52 474.82,-436.65 473.08,-443.43"/>
</g>
<!-- Node6 -->
<g id="node6" class="node">
<title>Node6</title>
<g id="a_node6"><a xlink:href="Op__Diff__VDF__Face__base_8h.html" target="_top" xlink:title=" ">
<polygon fill="white" stroke="black" points="409,-345.5 409,-397.5 541,-397.5 541,-345.5 409,-345.5"/>
<text text-anchor="start" x="417" y="-385.5" font-family="Helvetica,sans-Serif" font-size="10.00">src/VDF/Operateurs</text>
<text text-anchor="start" x="417" y="-374.5" font-family="Helvetica,sans-Serif" font-size="10.00">/Op_Diff_Dift/Op_Diff</text>
<text text-anchor="start" x="417" y="-363.5" font-family="Helvetica,sans-Serif" font-size="10.00">_Dift_base/Op_Diff_VDF</text>
<text text-anchor="middle" x="475" y="-352.5" font-family="Helvetica,sans-Serif" font-size="10.00">_Face_base.h</text>
</a>
</g>
</g>
<!-- Node1&#45;&gt;Node6 -->
<g id="edge5" class="edge">
<title>Node1&#45;&gt;Node6</title>
<path fill="none" stroke="midnightblue" d="M521.55,-426.5C513.3,-416.92 504.41,-406.62 496.64,-397.61"/>
<polygon fill="midnightblue" stroke="midnightblue" points="519.13,-429.05 528.31,-434.34 524.43,-424.48 519.13,-429.05"/>
</g>
<!-- Node12 -->
<g id="node12" class="node">
<title>Node12</title>
<g id="a_node12"><a xlink:href="Op__Diff__VDF__base_8cpp.html" target="_top" xlink:title=" ">
<polygon fill="white" stroke="black" points="559,-345.5 559,-397.5 691,-397.5 691,-345.5 559,-345.5"/>
<text text-anchor="start" x="567" y="-385.5" font-family="Helvetica,sans-Serif" font-size="10.00">src/VDF/Operateurs</text>
<text text-anchor="start" x="567" y="-374.5" font-family="Helvetica,sans-Serif" font-size="10.00">/Op_Diff_Dift/Op_Diff</text>
<text text-anchor="start" x="567" y="-363.5" font-family="Helvetica,sans-Serif" font-size="10.00">_Dift_base/Op_Diff_VDF</text>
<text text-anchor="middle" x="625" y="-352.5" font-family="Helvetica,sans-Serif" font-size="10.00">_base.cpp</text>
</a>
</g>
</g>
<!-- Node1&#45;&gt;Node12 -->
<g id="edge12" class="edge">
<title>Node1&#45;&gt;Node12</title>
<path fill="none" stroke="midnightblue" d="M578.45,-426.5C586.7,-416.92 595.59,-406.62 603.36,-397.61"/>
<polygon fill="midnightblue" stroke="midnightblue" points="575.57,-424.48 571.69,-434.34 580.87,-429.05 575.57,-424.48"/>
</g>
<!-- Node13 -->
<g id="node13" class="node">
<title>Node13</title>
<g id="a_node13"><a xlink:href="Op__Dift__VDF__base_8h.html" target="_top" xlink:title=" ">
<polygon fill="white" stroke="black" points="776,-345.5 776,-397.5 908,-397.5 908,-345.5 776,-345.5"/>
<text text-anchor="start" x="784" y="-385.5" font-family="Helvetica,sans-Serif" font-size="10.00">src/VDF/Operateurs</text>
<text text-anchor="start" x="784" y="-374.5" font-family="Helvetica,sans-Serif" font-size="10.00">/Op_Diff_Dift/Op_Diff</text>
<text text-anchor="start" x="784" y="-363.5" font-family="Helvetica,sans-Serif" font-size="10.00">_Dift_base/Op_Dift_VDF</text>
<text text-anchor="middle" x="842" y="-352.5" font-family="Helvetica,sans-Serif" font-size="10.00">_base.h</text>
</a>
</g>
</g>
<!-- Node1&#45;&gt;Node13 -->
<g id="edge13" class="edge">
<title>Node1&#45;&gt;Node13</title>
<path fill="none" stroke="midnightblue" d="M625.97,-436.87C672.4,-423.03 731.22,-405.51 775.75,-392.24"/>
<polygon fill="midnightblue" stroke="midnightblue" points="624.84,-433.55 616.26,-439.76 626.84,-440.26 624.84,-433.55"/>
</g>
<!-- Node3 -->
<g id="node3" class="node">
<title>Node3</title>
<g id="a_node3"><a xlink:href="Op__Diff__VDF__Elem__base_8cpp.html" target="_top" xlink:title=" ">
<polygon fill="white" stroke="black" points="0,-256.5 0,-308.5 132,-308.5 132,-256.5 0,-256.5"/>
<text text-anchor="start" x="8" y="-296.5" font-family="Helvetica,sans-Serif" font-size="10.00">src/VDF/Operateurs</text>
<text text-anchor="start" x="8" y="-285.5" font-family="Helvetica,sans-Serif" font-size="10.00">/Op_Diff_Dift/Op_Diff</text>
<text text-anchor="start" x="8" y="-274.5" font-family="Helvetica,sans-Serif" font-size="10.00">_Dift_base/Op_Diff_VDF</text>
<text text-anchor="middle" x="66" y="-263.5" font-family="Helvetica,sans-Serif" font-size="10.00">_Elem_base.cpp</text>
</a>
</g>
</g>
<!-- Node2&#45;&gt;Node3 -->
<g id="edge2" class="edge">
<title>Node2&#45;&gt;Node3</title>
<path fill="none" stroke="midnightblue" d="M159.63,-340.07C142.61,-329.79 123.82,-318.43 107.56,-308.61"/>
<polygon fill="midnightblue" stroke="midnightblue" points="157.98,-343.16 168.35,-345.34 161.6,-337.17 157.98,-343.16"/>
</g>
<!-- Node4 -->
<g id="node4" class="node">
<title>Node4</title>
<g id="a_node4"><a xlink:href="Op__Diff__VDF__Elem__leaves_8h.html" target="_top" xlink:title=" ">
<polygon fill="white" stroke="black" points="150.5,-262 150.5,-303 269.5,-303 269.5,-262 150.5,-262"/>
<text text-anchor="start" x="158.5" y="-291" font-family="Helvetica,sans-Serif" font-size="10.00">src/VDF/Operateurs</text>
<text text-anchor="start" x="158.5" y="-280" font-family="Helvetica,sans-Serif" font-size="10.00">/Op_Diff_Dift/Op_Diff</text>
<text text-anchor="middle" x="210" y="-269" font-family="Helvetica,sans-Serif" font-size="10.00">_VDF_Elem_leaves.h</text>
</a>
</g>
</g>
<!-- Node2&#45;&gt;Node4 -->
<g id="edge3" class="edge">
<title>Node2&#45;&gt;Node4</title>
<path fill="none" stroke="midnightblue" d="M210,-335.16C210,-324.21 210,-312.55 210,-303.08"/>
<polygon fill="midnightblue" stroke="midnightblue" points="206.5,-335.34 210,-345.34 213.5,-335.34 206.5,-335.34"/>
</g>
<!-- Node5 -->
<g id="node5" class="node">
<title>Node5</title>
<g id="a_node5"><a xlink:href="Op__Diff__VDF__Elem__leaves_8cpp.html" target="_top" xlink:title=" ">
<polygon fill="white" stroke="black" points="118,-173 118,-214 248,-214 248,-173 118,-173"/>
<text text-anchor="start" x="126" y="-202" font-family="Helvetica,sans-Serif" font-size="10.00">src/VDF/Operateurs</text>
<text text-anchor="start" x="126" y="-191" font-family="Helvetica,sans-Serif" font-size="10.00">/Op_Diff_Dift/Op_Diff</text>
<text text-anchor="middle" x="183" y="-180" font-family="Helvetica,sans-Serif" font-size="10.00">_VDF_Elem_leaves.cpp</text>
</a>
</g>
</g>
<!-- Node4&#45;&gt;Node5 -->
<g id="edge4" class="edge">
<title>Node4&#45;&gt;Node5</title>
<path fill="none" stroke="midnightblue" d="M200.9,-252.19C197.02,-239.67 192.58,-225.38 189.1,-214.16"/>
<polygon fill="midnightblue" stroke="midnightblue" points="197.57,-253.25 203.87,-261.76 204.25,-251.17 197.57,-253.25"/>
</g>
<!-- Node7 -->
<g id="node7" class="node">
<title>Node7</title>
<g id="a_node7"><a xlink:href="Op__Diff__VDF__Face__Axi__base_8h.html" target="_top" xlink:title=" ">
<polygon fill="white" stroke="black" points="315,-256.5 315,-308.5 447,-308.5 447,-256.5 315,-256.5"/>
<text text-anchor="start" x="323" y="-296.5" font-family="Helvetica,sans-Serif" font-size="10.00">src/VDF/Operateurs</text>
<text text-anchor="start" x="323" y="-285.5" font-family="Helvetica,sans-Serif" font-size="10.00">/Op_Diff_Dift/Op_Diff</text>
<text text-anchor="start" x="323" y="-274.5" font-family="Helvetica,sans-Serif" font-size="10.00">_Dift_base/Op_Diff_VDF</text>
<text text-anchor="middle" x="381" y="-263.5" font-family="Helvetica,sans-Serif" font-size="10.00">_Face_Axi_base.h</text>
</a>
</g>
</g>
<!-- Node6&#45;&gt;Node7 -->
<g id="edge6" class="edge">
<title>Node6&#45;&gt;Node7</title>
<path fill="none" stroke="midnightblue" d="M440.28,-338.36C429.67,-328.54 418.16,-317.89 408.13,-308.61"/>
<polygon fill="midnightblue" stroke="midnightblue" points="438.09,-341.11 447.81,-345.34 442.85,-335.97 438.09,-341.11"/>
</g>
<!-- Node9 -->
<g id="node9" class="node">
<title>Node9</title>
<g id="a_node9"><a xlink:href="Op__Diff__VDF__Face__leaves_8h.html" target="_top" xlink:title=" ">
<polygon fill="white" stroke="black" points="416.5,-173 416.5,-214 533.5,-214 533.5,-173 416.5,-173"/>
<text text-anchor="start" x="424.5" y="-202" font-family="Helvetica,sans-Serif" font-size="10.00">src/VDF/Operateurs</text>
<text text-anchor="start" x="424.5" y="-191" font-family="Helvetica,sans-Serif" font-size="10.00">/Op_Diff_Dift/Op_Diff</text>
<text text-anchor="middle" x="475" y="-180" font-family="Helvetica,sans-Serif" font-size="10.00">_VDF_Face_leaves.h</text>
</a>
</g>
</g>
<!-- Node6&#45;&gt;Node9 -->
<g id="edge11" class="edge">
<title>Node6&#45;&gt;Node9</title>
<path fill="none" stroke="midnightblue" d="M475,-335.11C475,-298.76 475,-243.46 475,-214.22"/>
<polygon fill="midnightblue" stroke="midnightblue" points="471.5,-335.28 475,-345.28 478.5,-335.28 471.5,-335.28"/>
</g>
<!-- Node11 -->
<g id="node11" class="node">
<title>Node11</title>
<g id="a_node11"><a xlink:href="Op__Diff__VDF__Face__base_8cpp.html" target="_top" xlink:title=" ">
<polygon fill="white" stroke="black" points="503,-256.5 503,-308.5 635,-308.5 635,-256.5 503,-256.5"/>
<text text-anchor="start" x="511" y="-296.5" font-family="Helvetica,sans-Serif" font-size="10.00">src/VDF/Operateurs</text>
<text text-anchor="start" x="511" y="-285.5" font-family="Helvetica,sans-Serif" font-size="10.00">/Op_Diff_Dift/Op_Diff</text>
<text text-anchor="start" x="511" y="-274.5" font-family="Helvetica,sans-Serif" font-size="10.00">_Dift_base/Op_Diff_VDF</text>
<text text-anchor="middle" x="569" y="-263.5" font-family="Helvetica,sans-Serif" font-size="10.00">_Face_base.cpp</text>
</a>
</g>
</g>
<!-- Node6&#45;&gt;Node11 -->
<g id="edge10" class="edge">
<title>Node6&#45;&gt;Node11</title>
<path fill="none" stroke="midnightblue" d="M509.72,-338.36C520.33,-328.54 531.84,-317.89 541.87,-308.61"/>
<polygon fill="midnightblue" stroke="midnightblue" points="507.15,-335.97 502.19,-345.34 511.91,-341.11 507.15,-335.97"/>
</g>
<!-- Node8 -->
<g id="node8" class="node">
<title>Node8</title>
<g id="a_node8"><a xlink:href="Op__Diff__VDF__Face__Axi__base_8cpp.html" target="_top" xlink:title=" ">
<polygon fill="white" stroke="black" points="266,-167.5 266,-219.5 398,-219.5 398,-167.5 266,-167.5"/>
<text text-anchor="start" x="274" y="-207.5" font-family="Helvetica,sans-Serif" font-size="10.00">src/VDF/Operateurs</text>
<text text-anchor="start" x="274" y="-196.5" font-family="Helvetica,sans-Serif" font-size="10.00">/Op_Diff_Dift/Op_Diff</text>
<text text-anchor="start" x="274" y="-185.5" font-family="Helvetica,sans-Serif" font-size="10.00">_Dift_base/Op_Diff_VDF</text>
<text text-anchor="middle" x="332" y="-174.5" font-family="Helvetica,sans-Serif" font-size="10.00">_Face_Axi_base.cpp</text>
</a>
</g>
</g>
<!-- Node7&#45;&gt;Node8 -->
<g id="edge7" class="edge">
<title>Node7&#45;&gt;Node8</title>
<path fill="none" stroke="midnightblue" d="M361.77,-247.35C356.56,-238.1 351.01,-228.26 346.14,-219.61"/>
<polygon fill="midnightblue" stroke="midnightblue" points="358.87,-249.34 366.83,-256.34 364.97,-245.91 358.87,-249.34"/>
</g>
<!-- Node7&#45;&gt;Node9 -->
<g id="edge8" class="edge">
<title>Node7&#45;&gt;Node9</title>
<path fill="none" stroke="midnightblue" d="M415.56,-249.51C428.39,-237.64 442.56,-224.53 453.84,-214.08"/>
<polygon fill="midnightblue" stroke="midnightblue" points="413.15,-246.97 408.19,-256.34 417.91,-252.11 413.15,-246.97"/>
</g>
<!-- Node10 -->
<g id="node10" class="node">
<title>Node10</title>
<g id="a_node10"><a xlink:href="Op__Diff__VDF__Face__leaves_8cpp.html" target="_top" xlink:title=" ">
<polygon fill="white" stroke="black" points="411.5,-84 411.5,-125 538.5,-125 538.5,-84 411.5,-84"/>
<text text-anchor="start" x="419.5" y="-113" font-family="Helvetica,sans-Serif" font-size="10.00">src/VDF/Operateurs</text>
<text text-anchor="start" x="419.5" y="-102" font-family="Helvetica,sans-Serif" font-size="10.00">/Op_Diff_Dift/Op_Diff</text>
<text text-anchor="middle" x="475" y="-91" font-family="Helvetica,sans-Serif" font-size="10.00">_VDF_Face_leaves.cpp</text>
</a>
</g>
</g>
<!-- Node9&#45;&gt;Node10 -->
<g id="edge9" class="edge">
<title>Node9&#45;&gt;Node10</title>
<path fill="none" stroke="midnightblue" d="M475,-162.44C475,-150.1 475,-136.16 475,-125.16"/>
<polygon fill="midnightblue" stroke="midnightblue" points="471.5,-162.76 475,-172.76 478.5,-162.76 471.5,-162.76"/>
</g>
<!-- Node14 -->
<g id="node14" class="node">
<title>Node14</title>
<g id="a_node14"><a xlink:href="Op__Dift__VDF__Elem__base_8h.html" target="_top" xlink:title=" ">
<polygon fill="white" stroke="black" points="693,-256.5 693,-308.5 825,-308.5 825,-256.5 693,-256.5"/>
<text text-anchor="start" x="701" y="-296.5" font-family="Helvetica,sans-Serif" font-size="10.00">src/VDF/Operateurs</text>
<text text-anchor="start" x="701" y="-285.5" font-family="Helvetica,sans-Serif" font-size="10.00">/Op_Diff_Dift/Op_Diff</text>
<text text-anchor="start" x="701" y="-274.5" font-family="Helvetica,sans-Serif" font-size="10.00">_Dift_base/Op_Dift_VDF</text>
<text text-anchor="middle" x="759" y="-263.5" font-family="Helvetica,sans-Serif" font-size="10.00">_Elem_base.h</text>
</a>
</g>
</g>
<!-- Node13&#45;&gt;Node14 -->
<g id="edge14" class="edge">
<title>Node13&#45;&gt;Node14</title>
<path fill="none" stroke="midnightblue" d="M811.07,-338.08C801.77,-328.34 791.72,-317.8 782.95,-308.61"/>
<polygon fill="midnightblue" stroke="midnightblue" points="808.56,-340.52 817.99,-345.34 813.62,-335.68 808.56,-340.52"/>
</g>
<!-- Node18 -->
<g id="node18" class="node">
<title>Node18</title>
<g id="a_node18"><a xlink:href="Op__Dift__VDF__Face__base_8h.html" target="_top" xlink:title=" ">
<polygon fill="white" stroke="black" points="843,-256.5 843,-308.5 975,-308.5 975,-256.5 843,-256.5"/>
<text text-anchor="start" x="851" y="-296.5" font-family="Helvetica,sans-Serif" font-size="10.00">src/VDF/Operateurs</text>
<text text-anchor="start" x="851" y="-285.5" font-family="Helvetica,sans-Serif" font-size="10.00">/Op_Diff_Dift/Op_Diff</text>
<text text-anchor="start" x="851" y="-274.5" font-family="Helvetica,sans-Serif" font-size="10.00">_Dift_base/Op_Dift_VDF</text>
<text text-anchor="middle" x="909" y="-263.5" font-family="Helvetica,sans-Serif" font-size="10.00">_Face_base.h</text>
</a>
</g>
</g>
<!-- Node13&#45;&gt;Node18 -->
<g id="edge18" class="edge">
<title>Node13&#45;&gt;Node18</title>
<path fill="none" stroke="midnightblue" d="M867.63,-337.22C874.95,-327.72 882.79,-317.53 889.66,-308.61"/>
<polygon fill="midnightblue" stroke="midnightblue" points="864.71,-335.28 861.38,-345.34 870.25,-339.55 864.71,-335.28"/>
</g>
<!-- Node24 -->
<g id="node24" class="node">
<title>Node24</title>
<g id="a_node24"><a xlink:href="Op__Dift__VDF__base_8cpp.html" target="_top" xlink:title=" ">
<polygon fill="white" stroke="black" points="993,-256.5 993,-308.5 1125,-308.5 1125,-256.5 993,-256.5"/>
<text text-anchor="start" x="1001" y="-296.5" font-family="Helvetica,sans-Serif" font-size="10.00">src/VDF/Operateurs</text>
<text text-anchor="start" x="1001" y="-285.5" font-family="Helvetica,sans-Serif" font-size="10.00">/Op_Diff_Dift/Op_Diff</text>
<text text-anchor="start" x="1001" y="-274.5" font-family="Helvetica,sans-Serif" font-size="10.00">_Dift_base/Op_Dift_VDF</text>
<text text-anchor="middle" x="1059" y="-263.5" font-family="Helvetica,sans-Serif" font-size="10.00">_base.cpp</text>
</a>
</g>
</g>
<!-- Node13&#45;&gt;Node24 -->
<g id="edge25" class="edge">
<title>Node13&#45;&gt;Node24</title>
<path fill="none" stroke="midnightblue" d="M913.79,-341.72C940.57,-330.98 970.73,-318.89 996.59,-308.52"/>
<polygon fill="midnightblue" stroke="midnightblue" points="912.45,-338.48 904.47,-345.45 915.06,-344.98 912.45,-338.48"/>
</g>
<!-- Node15 -->
<g id="node15" class="node">
<title>Node15</title>
<g id="a_node15"><a xlink:href="Op__Dift__VDF__Elem__base_8cpp.html" target="_top" xlink:title=" ">
<polygon fill="white" stroke="black" points="552,-167.5 552,-219.5 684,-219.5 684,-167.5 552,-167.5"/>
<text text-anchor="start" x="560" y="-207.5" font-family="Helvetica,sans-Serif" font-size="10.00">src/VDF/Operateurs</text>
<text text-anchor="start" x="560" y="-196.5" font-family="Helvetica,sans-Serif" font-size="10.00">/Op_Diff_Dift/Op_Diff</text>
<text text-anchor="start" x="560" y="-185.5" font-family="Helvetica,sans-Serif" font-size="10.00">_Dift_base/Op_Dift_VDF</text>
<text text-anchor="middle" x="618" y="-174.5" font-family="Helvetica,sans-Serif" font-size="10.00">_Elem_base.cpp</text>
</a>
</g>
</g>
<!-- Node14&#45;&gt;Node15 -->
<g id="edge15" class="edge">
<title>Node14&#45;&gt;Node15</title>
<path fill="none" stroke="midnightblue" d="M709.68,-251.07C693.02,-240.79 674.61,-229.43 658.69,-219.61"/>
<polygon fill="midnightblue" stroke="midnightblue" points="707.87,-254.06 718.22,-256.34 711.54,-248.11 707.87,-254.06"/>
</g>
<!-- Node16 -->
<g id="node16" class="node">
<title>Node16</title>
<g id="a_node16"><a xlink:href="Op__Dift__VDF__Elem__leaves_8h.html" target="_top" xlink:title=" ">
<polygon fill="white" stroke="black" points="702.5,-173 702.5,-214 821.5,-214 821.5,-173 702.5,-173"/>
<text text-anchor="start" x="710.5" y="-202" font-family="Helvetica,sans-Serif" font-size="10.00">src/VDF/Operateurs</text>
<text text-anchor="start" x="710.5" y="-191" font-family="Helvetica,sans-Serif" font-size="10.00">/Op_Diff_Dift/Op_Dift</text>
<text text-anchor="middle" x="762" y="-180" font-family="Helvetica,sans-Serif" font-size="10.00">_VDF_Elem_leaves.h</text>
</a>
</g>
</g>
<!-- Node14&#45;&gt;Node16 -->
<g id="edge16" class="edge">
<title>Node14&#45;&gt;Node16</title>
<path fill="none" stroke="midnightblue" d="M760.22,-246.16C760.6,-235.21 761,-223.55 761.32,-214.08"/>
<polygon fill="midnightblue" stroke="midnightblue" points="756.71,-246.22 759.87,-256.34 763.71,-246.46 756.71,-246.22"/>
</g>
<!-- Node17 -->
<g id="node17" class="node">
<title>Node17</title>
<g id="a_node17"><a xlink:href="Op__Dift__VDF__Elem__leaves_8cpp.html" target="_top" xlink:title=" ">
<polygon fill="white" stroke="black" points="669,-84 669,-125 799,-125 799,-84 669,-84"/>
<text text-anchor="start" x="677" y="-113" font-family="Helvetica,sans-Serif" font-size="10.00">src/VDF/Operateurs</text>
<text text-anchor="start" x="677" y="-102" font-family="Helvetica,sans-Serif" font-size="10.00">/Op_Diff_Dift/Op_Dift</text>
<text text-anchor="middle" x="734" y="-91" font-family="Helvetica,sans-Serif" font-size="10.00">_VDF_Elem_leaves.cpp</text>
</a>
</g>
</g>
<!-- Node16&#45;&gt;Node17 -->
<g id="edge17" class="edge">
<title>Node16&#45;&gt;Node17</title>
<path fill="none" stroke="midnightblue" d="M752.57,-163.19C748.54,-150.67 743.94,-136.38 740.33,-125.16"/>
<polygon fill="midnightblue" stroke="midnightblue" points="749.25,-164.31 755.65,-172.76 755.91,-162.17 749.25,-164.31"/>
</g>
<!-- Node19 -->
<g id="node19" class="node">
<title>Node19</title>
<g id="a_node19"><a xlink:href="Op__Dift__VDF__Face__Axi__base_8h.html" target="_top" xlink:title=" ">
<polygon fill="white" stroke="black" points="842,-167.5 842,-219.5 974,-219.5 974,-167.5 842,-167.5"/>
<text text-anchor="start" x="850" y="-207.5" font-family="Helvetica,sans-Serif" font-size="10.00">src/VDF/Operateurs</text>
<text text-anchor="start" x="850" y="-196.5" font-family="Helvetica,sans-Serif" font-size="10.00">/Op_Diff_Dift/Op_Diff</text>
<text text-anchor="start" x="850" y="-185.5" font-family="Helvetica,sans-Serif" font-size="10.00">_Dift_base/Op_Dift_VDF</text>
<text text-anchor="middle" x="908" y="-174.5" font-family="Helvetica,sans-Serif" font-size="10.00">_Face_Axi_base.h</text>
</a>
</g>
</g>
<!-- Node18&#45;&gt;Node19 -->
<g id="edge19" class="edge">
<title>Node18&#45;&gt;Node19</title>
<path fill="none" stroke="midnightblue" d="M908.59,-246.19C908.49,-237.28 908.38,-227.9 908.29,-219.61"/>
<polygon fill="midnightblue" stroke="midnightblue" points="905.1,-246.38 908.71,-256.34 912.1,-246.3 905.1,-246.38"/>
</g>
<!-- Node21 -->
<g id="node21" class="node">
<title>Node21</title>
<g id="a_node21"><a xlink:href="Op__Dift__VDF__Face__leaves_8h.html" target="_top" xlink:title=" ">
<polygon fill="white" stroke="black" points="967.5,-84 967.5,-125 1084.5,-125 1084.5,-84 967.5,-84"/>
<text text-anchor="start" x="975.5" y="-113" font-family="Helvetica,sans-Serif" font-size="10.00">src/VDF/Operateurs</text>
<text text-anchor="start" x="975.5" y="-102" font-family="Helvetica,sans-Serif" font-size="10.00">/Op_Diff_Dift/Op_Dift</text>
<text text-anchor="middle" x="1026" y="-91" font-family="Helvetica,sans-Serif" font-size="10.00">_VDF_Face_leaves.h</text>
</a>
</g>
</g>
<!-- Node18&#45;&gt;Node21 -->
<g id="edge24" class="edge">
<title>Node18&#45;&gt;Node21</title>
<path fill="none" stroke="midnightblue" d="M954.67,-249.86C965,-241.1 975.21,-230.96 983,-220 1004.05,-190.41 1016.16,-149.26 1021.89,-125.2"/>
<polygon fill="midnightblue" stroke="midnightblue" points="952.32,-247.26 946.78,-256.28 956.74,-252.69 952.32,-247.26"/>
</g>
<!-- Node23 -->
<g id="node23" class="node">
<title>Node23</title>
<g id="a_node23"><a xlink:href="Op__Dift__VDF__Face__base_8cpp.html" target="_top" xlink:title=" ">
<polygon fill="white" stroke="black" points="1030,-167.5 1030,-219.5 1162,-219.5 1162,-167.5 1030,-167.5"/>
<text text-anchor="start" x="1038" y="-207.5" font-family="Helvetica,sans-Serif" font-size="10.00">src/VDF/Operateurs</text>
<text text-anchor="start" x="1038" y="-196.5" font-family="Helvetica,sans-Serif" font-size="10.00">/Op_Diff_Dift/Op_Diff</text>
<text text-anchor="start" x="1038" y="-185.5" font-family="Helvetica,sans-Serif" font-size="10.00">_Dift_base/Op_Dift_VDF</text>
<text text-anchor="middle" x="1096" y="-174.5" font-family="Helvetica,sans-Serif" font-size="10.00">_Face_base.cpp</text>
</a>
</g>
</g>
<!-- Node18&#45;&gt;Node23 -->
<g id="edge23" class="edge">
<title>Node18&#45;&gt;Node23</title>
<path fill="none" stroke="midnightblue" d="M972.08,-252.15C994.85,-241.56 1020.32,-229.71 1042.22,-219.52"/>
<polygon fill="midnightblue" stroke="midnightblue" points="970.43,-249.06 962.84,-256.45 973.38,-255.41 970.43,-249.06"/>
</g>
<!-- Node20 -->
<g id="node20" class="node">
<title>Node20</title>
<g id="a_node20"><a xlink:href="Op__Dift__VDF__Face__Axi__base_8cpp.html" target="_top" xlink:title=" ">
<polygon fill="white" stroke="black" points="817,-78.5 817,-130.5 949,-130.5 949,-78.5 817,-78.5"/>
<text text-anchor="start" x="825" y="-118.5" font-family="Helvetica,sans-Serif" font-size="10.00">src/VDF/Operateurs</text>
<text text-anchor="start" x="825" y="-107.5" font-family="Helvetica,sans-Serif" font-size="10.00">/Op_Diff_Dift/Op_Diff</text>
<text text-anchor="start" x="825" y="-96.5" font-family="Helvetica,sans-Serif" font-size="10.00">_Dift_base/Op_Dift_VDF</text>
<text text-anchor="middle" x="883" y="-85.5" font-family="Helvetica,sans-Serif" font-size="10.00">_Face_Axi_base.cpp</text>
</a>
</g>
</g>
<!-- Node19&#45;&gt;Node20 -->
<g id="edge20" class="edge">
<title>Node19&#45;&gt;Node20</title>
<path fill="none" stroke="midnightblue" d="M897.94,-157.48C895.35,-148.49 892.62,-138.99 890.21,-130.61"/>
<polygon fill="midnightblue" stroke="midnightblue" points="894.64,-158.69 900.77,-167.34 901.37,-156.76 894.64,-158.69"/>
</g>
<!-- Node19&#45;&gt;Node21 -->
<g id="edge21" class="edge">
<title>Node19&#45;&gt;Node21</title>
<path fill="none" stroke="midnightblue" d="M950.48,-161.18C966.83,-149.13 985.01,-135.72 999.44,-125.08"/>
<polygon fill="midnightblue" stroke="midnightblue" points="948.1,-158.58 942.13,-167.34 952.26,-164.22 948.1,-158.58"/>
</g>
<!-- Node22 -->
<g id="node22" class="node">
<title>Node22</title>
<g id="a_node22"><a xlink:href="Op__Dift__VDF__Face__leaves_8cpp.html" target="_top" xlink:title=" ">
<polygon fill="white" stroke="black" points="962.5,-0.5 962.5,-41.5 1089.5,-41.5 1089.5,-0.5 962.5,-0.5"/>
<text text-anchor="start" x="970.5" y="-29.5" font-family="Helvetica,sans-Serif" font-size="10.00">src/VDF/Operateurs</text>
<text text-anchor="start" x="970.5" y="-18.5" font-family="Helvetica,sans-Serif" font-size="10.00">/Op_Diff_Dift/Op_Dift</text>
<text text-anchor="middle" x="1026" y="-7.5" font-family="Helvetica,sans-Serif" font-size="10.00">_VDF_Face_leaves.cpp</text>
</a>
</g>
</g>
<!-- Node21&#45;&gt;Node22 -->
<g id="edge22" class="edge">
<title>Node21&#45;&gt;Node22</title>
<path fill="none" stroke="midnightblue" d="M1026,-73.56C1026,-62.88 1026,-51.13 1026,-41.55"/>
<polygon fill="midnightblue" stroke="midnightblue" points="1022.5,-73.77 1026,-83.77 1029.5,-73.77 1022.5,-73.77"/>
</g>
</g>
</svg>
