<?xml version="1.0" encoding="UTF-8" standalone="no"?>
<!DOCTYPE svg PUBLIC "-//W3C//DTD SVG 1.1//EN"
 "http://www.w3.org/Graphics/SVG/1.1/DTD/svg11.dtd">
<!-- Generated by graphviz version 2.43.0 (0)
 -->
<!-- Title: src/ThHyd/Incompressible/Op_Conv_ALE.h Pages: 1 -->
<svg width="312pt" height="117pt"
 viewBox="0.00 0.00 312.00 117.00" xmlns="http://www.w3.org/2000/svg" xmlns:xlink="http://www.w3.org/1999/xlink">
<g id="graph0" class="graph" transform="scale(1 1) rotate(0) translate(4 113)">
<title>src/ThHyd/Incompressible/Op_Conv_ALE.h</title>
<polygon fill="white" stroke="transparent" points="-4,4 -4,-113 308,-113 308,4 -4,4"/>
<!-- Node1 -->
<g id="node1" class="node">
<title>Node1</title>
<g id="a_node1"><a xlink:title=" ">
<polygon fill="#bfbfbf" stroke="black" points="80,-78.5 80,-108.5 223,-108.5 223,-78.5 80,-78.5"/>
<text text-anchor="start" x="88" y="-96.5" font-family="Helvetica,sans-Serif" font-size="10.00">src/ThHyd/Incompressible</text>
<text text-anchor="middle" x="151.5" y="-85.5" font-family="Helvetica,sans-Serif" font-size="10.00">/Op_Conv_ALE.h</text>
</a>
</g>
</g>
<!-- Node2 -->
<g id="node2" class="node">
<title>Node2</title>
<g id="a_node2"><a xlink:href="Navier__Stokes__std_8cpp.html" target="_top" xlink:title=" ">
<polygon fill="white" stroke="black" points="0,-0.5 0,-41.5 143,-41.5 143,-0.5 0,-0.5"/>
<text text-anchor="start" x="8" y="-29.5" font-family="Helvetica,sans-Serif" font-size="10.00">src/ThHyd/Incompressible</text>
<text text-anchor="start" x="8" y="-18.5" font-family="Helvetica,sans-Serif" font-size="10.00">/Equations/Navier_Stokes</text>
<text text-anchor="middle" x="71.5" y="-7.5" font-family="Helvetica,sans-Serif" font-size="10.00">_std.cpp</text>
</a>
</g>
</g>
<!-- Node1&#45;&gt;Node2 -->
<g id="edge1" class="edge">
<title>Node1&#45;&gt;Node2</title>
<path fill="none" stroke="midnightblue" d="M127.53,-71.38C116.81,-61.93 104.24,-50.85 93.73,-41.59"/>
<polygon fill="midnightblue" stroke="midnightblue" points="125.49,-74.25 135.31,-78.23 130.12,-69 125.49,-74.25"/>
</g>
<!-- Node3 -->
<g id="node3" class="node">
<title>Node3</title>
<g id="a_node3"><a xlink:href="Op__Conv__ALE_8cpp.html" target="_top" xlink:title=" ">
<polygon fill="white" stroke="black" points="161,-6 161,-36 304,-36 304,-6 161,-6"/>
<text text-anchor="start" x="169" y="-24" font-family="Helvetica,sans-Serif" font-size="10.00">src/ThHyd/Incompressible</text>
<text text-anchor="middle" x="232.5" y="-13" font-family="Helvetica,sans-Serif" font-size="10.00">/Op_Conv_ALE.cpp</text>
</a>
</g>
</g>
<!-- Node1&#45;&gt;Node3 -->
<g id="edge2" class="edge">
<title>Node1&#45;&gt;Node3</title>
<path fill="none" stroke="midnightblue" d="M175.67,-71.46C188.84,-60 204.77,-46.14 216.41,-36"/>
<polygon fill="midnightblue" stroke="midnightblue" points="173.14,-69.03 167.89,-78.23 177.73,-74.31 173.14,-69.03"/>
</g>
</g>
</svg>
