<?xml version="1.0" encoding="UTF-8" standalone="no"?>
<!DOCTYPE svg PUBLIC "-//W3C//DTD SVG 1.1//EN"
 "http://www.w3.org/Graphics/SVG/1.1/DTD/svg11.dtd">
<!-- Generated by graphviz version 2.43.0 (0)
 -->
<!-- Title: src/VDF/Operateurs/Op_Diff_Dift/Op_Diff_Dift_base/Op_Dift_VDF_base.h Pages: 1 -->
<svg width="631pt" height="406pt"
 viewBox="0.00 0.00 631.00 406.00" xmlns="http://www.w3.org/2000/svg" xmlns:xlink="http://www.w3.org/1999/xlink">
<g id="graph0" class="graph" transform="scale(1 1) rotate(0) translate(4 402)">
<title>src/VDF/Operateurs/Op_Diff_Dift/Op_Diff_Dift_base/Op_Dift_VDF_base.h</title>
<polygon fill="white" stroke="transparent" points="-4,4 -4,-402 627,-402 627,4 -4,4"/>
<!-- Node1 -->
<g id="node1" class="node">
<title>Node1</title>
<g id="a_node1"><a xlink:title=" ">
<polygon fill="#bfbfbf" stroke="black" points="318,-345.5 318,-397.5 450,-397.5 450,-345.5 318,-345.5"/>
<text text-anchor="start" x="326" y="-385.5" font-family="Helvetica,sans-Serif" font-size="10.00">src/VDF/Operateurs</text>
<text text-anchor="start" x="326" y="-374.5" font-family="Helvetica,sans-Serif" font-size="10.00">/Op_Diff_Dift/Op_Diff</text>
<text text-anchor="start" x="326" y="-363.5" font-family="Helvetica,sans-Serif" font-size="10.00">_Dift_base/Op_Dift_VDF</text>
<text text-anchor="middle" x="384" y="-352.5" font-family="Helvetica,sans-Serif" font-size="10.00">_base.h</text>
</a>
</g>
</g>
<!-- Node2 -->
<g id="node2" class="node">
<title>Node2</title>
<g id="a_node2"><a xlink:href="Op__Dift__VDF__Elem__base_8h.html" target="_top" xlink:title=" ">
<polygon fill="white" stroke="black" points="144,-256.5 144,-308.5 276,-308.5 276,-256.5 144,-256.5"/>
<text text-anchor="start" x="152" y="-296.5" font-family="Helvetica,sans-Serif" font-size="10.00">src/VDF/Operateurs</text>
<text text-anchor="start" x="152" y="-285.5" font-family="Helvetica,sans-Serif" font-size="10.00">/Op_Diff_Dift/Op_Diff</text>
<text text-anchor="start" x="152" y="-274.5" font-family="Helvetica,sans-Serif" font-size="10.00">_Dift_base/Op_Dift_VDF</text>
<text text-anchor="middle" x="210" y="-263.5" font-family="Helvetica,sans-Serif" font-size="10.00">_Elem_base.h</text>
</a>
</g>
</g>
<!-- Node1&#45;&gt;Node2 -->
<g id="edge1" class="edge">
<title>Node1&#45;&gt;Node2</title>
<path fill="none" stroke="midnightblue" d="M324.55,-340.78C303.62,-330.31 280.31,-318.66 260.21,-308.61"/>
<polygon fill="midnightblue" stroke="midnightblue" points="323.16,-343.99 333.67,-345.34 326.29,-337.73 323.16,-343.99"/>
</g>
<!-- Node6 -->
<g id="node6" class="node">
<title>Node6</title>
<g id="a_node6"><a xlink:href="Op__Dift__VDF__Face__base_8h.html" target="_top" xlink:title=" ">
<polygon fill="white" stroke="black" points="318,-256.5 318,-308.5 450,-308.5 450,-256.5 318,-256.5"/>
<text text-anchor="start" x="326" y="-296.5" font-family="Helvetica,sans-Serif" font-size="10.00">src/VDF/Operateurs</text>
<text text-anchor="start" x="326" y="-285.5" font-family="Helvetica,sans-Serif" font-size="10.00">/Op_Diff_Dift/Op_Diff</text>
<text text-anchor="start" x="326" y="-274.5" font-family="Helvetica,sans-Serif" font-size="10.00">_Dift_base/Op_Dift_VDF</text>
<text text-anchor="middle" x="384" y="-263.5" font-family="Helvetica,sans-Serif" font-size="10.00">_Face_base.h</text>
</a>
</g>
</g>
<!-- Node1&#45;&gt;Node6 -->
<g id="edge5" class="edge">
<title>Node1&#45;&gt;Node6</title>
<path fill="none" stroke="midnightblue" d="M384,-335.19C384,-326.28 384,-316.9 384,-308.61"/>
<polygon fill="midnightblue" stroke="midnightblue" points="380.5,-335.34 384,-345.34 387.5,-335.34 380.5,-335.34"/>
</g>
<!-- Node12 -->
<g id="node12" class="node">
<title>Node12</title>
<g id="a_node12"><a xlink:href="Op__Dift__VDF__base_8cpp.html" target="_top" xlink:title=" ">
<polygon fill="white" stroke="black" points="468,-256.5 468,-308.5 600,-308.5 600,-256.5 468,-256.5"/>
<text text-anchor="start" x="476" y="-296.5" font-family="Helvetica,sans-Serif" font-size="10.00">src/VDF/Operateurs</text>
<text text-anchor="start" x="476" y="-285.5" font-family="Helvetica,sans-Serif" font-size="10.00">/Op_Diff_Dift/Op_Diff</text>
<text text-anchor="start" x="476" y="-274.5" font-family="Helvetica,sans-Serif" font-size="10.00">_Dift_base/Op_Dift_VDF</text>
<text text-anchor="middle" x="534" y="-263.5" font-family="Helvetica,sans-Serif" font-size="10.00">_base.cpp</text>
</a>
</g>
</g>
<!-- Node1&#45;&gt;Node12 -->
<g id="edge12" class="edge">
<title>Node1&#45;&gt;Node12</title>
<path fill="none" stroke="midnightblue" d="M436.46,-340.07C454.19,-329.79 473.77,-318.43 490.71,-308.61"/>
<polygon fill="midnightblue" stroke="midnightblue" points="434.28,-337.29 427.39,-345.34 437.79,-343.35 434.28,-337.29"/>
</g>
<!-- Node3 -->
<g id="node3" class="node">
<title>Node3</title>
<g id="a_node3"><a xlink:href="Op__Dift__VDF__Elem__base_8cpp.html" target="_top" xlink:title=" ">
<polygon fill="white" stroke="black" points="0,-167.5 0,-219.5 132,-219.5 132,-167.5 0,-167.5"/>
<text text-anchor="start" x="8" y="-207.5" font-family="Helvetica,sans-Serif" font-size="10.00">src/VDF/Operateurs</text>
<text text-anchor="start" x="8" y="-196.5" font-family="Helvetica,sans-Serif" font-size="10.00">/Op_Diff_Dift/Op_Diff</text>
<text text-anchor="start" x="8" y="-185.5" font-family="Helvetica,sans-Serif" font-size="10.00">_Dift_base/Op_Dift_VDF</text>
<text text-anchor="middle" x="66" y="-174.5" font-family="Helvetica,sans-Serif" font-size="10.00">_Elem_base.cpp</text>
</a>
</g>
</g>
<!-- Node2&#45;&gt;Node3 -->
<g id="edge2" class="edge">
<title>Node2&#45;&gt;Node3</title>
<path fill="none" stroke="midnightblue" d="M159.63,-251.07C142.61,-240.79 123.82,-229.43 107.56,-219.61"/>
<polygon fill="midnightblue" stroke="midnightblue" points="157.98,-254.16 168.35,-256.34 161.6,-248.17 157.98,-254.16"/>
</g>
<!-- Node4 -->
<g id="node4" class="node">
<title>Node4</title>
<g id="a_node4"><a xlink:href="Op__Dift__VDF__Elem__leaves_8h.html" target="_top" xlink:title=" ">
<polygon fill="white" stroke="black" points="150.5,-173 150.5,-214 269.5,-214 269.5,-173 150.5,-173"/>
<text text-anchor="start" x="158.5" y="-202" font-family="Helvetica,sans-Serif" font-size="10.00">src/VDF/Operateurs</text>
<text text-anchor="start" x="158.5" y="-191" font-family="Helvetica,sans-Serif" font-size="10.00">/Op_Diff_Dift/Op_Dift</text>
<text text-anchor="middle" x="210" y="-180" font-family="Helvetica,sans-Serif" font-size="10.00">_VDF_Elem_leaves.h</text>
</a>
</g>
</g>
<!-- Node2&#45;&gt;Node4 -->
<g id="edge3" class="edge">
<title>Node2&#45;&gt;Node4</title>
<path fill="none" stroke="midnightblue" d="M210,-246.16C210,-235.21 210,-223.55 210,-214.08"/>
<polygon fill="midnightblue" stroke="midnightblue" points="206.5,-246.34 210,-256.34 213.5,-246.34 206.5,-246.34"/>
</g>
<!-- Node5 -->
<g id="node5" class="node">
<title>Node5</title>
<g id="a_node5"><a xlink:href="Op__Dift__VDF__Elem__leaves_8cpp.html" target="_top" xlink:title=" ">
<polygon fill="white" stroke="black" points="118,-84 118,-125 248,-125 248,-84 118,-84"/>
<text text-anchor="start" x="126" y="-113" font-family="Helvetica,sans-Serif" font-size="10.00">src/VDF/Operateurs</text>
<text text-anchor="start" x="126" y="-102" font-family="Helvetica,sans-Serif" font-size="10.00">/Op_Diff_Dift/Op_Dift</text>
<text text-anchor="middle" x="183" y="-91" font-family="Helvetica,sans-Serif" font-size="10.00">_VDF_Elem_leaves.cpp</text>
</a>
</g>
</g>
<!-- Node4&#45;&gt;Node5 -->
<g id="edge4" class="edge">
<title>Node4&#45;&gt;Node5</title>
<path fill="none" stroke="midnightblue" d="M200.9,-163.19C197.02,-150.67 192.58,-136.38 189.1,-125.16"/>
<polygon fill="midnightblue" stroke="midnightblue" points="197.57,-164.25 203.87,-172.76 204.25,-162.17 197.57,-164.25"/>
</g>
<!-- Node7 -->
<g id="node7" class="node">
<title>Node7</title>
<g id="a_node7"><a xlink:href="Op__Dift__VDF__Face__Axi__base_8h.html" target="_top" xlink:title=" ">
<polygon fill="white" stroke="black" points="303,-167.5 303,-219.5 435,-219.5 435,-167.5 303,-167.5"/>
<text text-anchor="start" x="311" y="-207.5" font-family="Helvetica,sans-Serif" font-size="10.00">src/VDF/Operateurs</text>
<text text-anchor="start" x="311" y="-196.5" font-family="Helvetica,sans-Serif" font-size="10.00">/Op_Diff_Dift/Op_Diff</text>
<text text-anchor="start" x="311" y="-185.5" font-family="Helvetica,sans-Serif" font-size="10.00">_Dift_base/Op_Dift_VDF</text>
<text text-anchor="middle" x="369" y="-174.5" font-family="Helvetica,sans-Serif" font-size="10.00">_Face_Axi_base.h</text>
</a>
</g>
</g>
<!-- Node6&#45;&gt;Node7 -->
<g id="edge6" class="edge">
<title>Node6&#45;&gt;Node7</title>
<path fill="none" stroke="midnightblue" d="M377.96,-246.48C376.41,-237.49 374.77,-227.99 373.33,-219.61"/>
<polygon fill="midnightblue" stroke="midnightblue" points="374.51,-247.08 379.66,-256.34 381.41,-245.89 374.51,-247.08"/>
</g>
<!-- Node9 -->
<g id="node9" class="node">
<title>Node9</title>
<g id="a_node9"><a xlink:href="Op__Dift__VDF__Face__leaves_8h.html" target="_top" xlink:title=" ">
<polygon fill="white" stroke="black" points="416.5,-84 416.5,-125 533.5,-125 533.5,-84 416.5,-84"/>
<text text-anchor="start" x="424.5" y="-113" font-family="Helvetica,sans-Serif" font-size="10.00">src/VDF/Operateurs</text>
<text text-anchor="start" x="424.5" y="-102" font-family="Helvetica,sans-Serif" font-size="10.00">/Op_Diff_Dift/Op_Dift</text>
<text text-anchor="middle" x="475" y="-91" font-family="Helvetica,sans-Serif" font-size="10.00">_VDF_Face_leaves.h</text>
</a>
</g>
</g>
<!-- Node6&#45;&gt;Node9 -->
<g id="edge11" class="edge">
<title>Node6&#45;&gt;Node9</title>
<path fill="none" stroke="midnightblue" d="M421.31,-249.37C429.75,-240.56 437.99,-230.53 444,-220 461.36,-189.6 469.33,-149.08 472.73,-125.29"/>
<polygon fill="midnightblue" stroke="midnightblue" points="418.81,-246.91 414.2,-256.45 423.76,-251.87 418.81,-246.91"/>
</g>
<!-- Node11 -->
<g id="node11" class="node">
<title>Node11</title>
<g id="a_node11"><a xlink:href="Op__Dift__VDF__Face__base_8cpp.html" target="_top" xlink:title=" ">
<polygon fill="white" stroke="black" points="491,-167.5 491,-219.5 623,-219.5 623,-167.5 491,-167.5"/>
<text text-anchor="start" x="499" y="-207.5" font-family="Helvetica,sans-Serif" font-size="10.00">src/VDF/Operateurs</text>
<text text-anchor="start" x="499" y="-196.5" font-family="Helvetica,sans-Serif" font-size="10.00">/Op_Diff_Dift/Op_Diff</text>
<text text-anchor="start" x="499" y="-185.5" font-family="Helvetica,sans-Serif" font-size="10.00">_Dift_base/Op_Dift_VDF</text>
<text text-anchor="middle" x="557" y="-174.5" font-family="Helvetica,sans-Serif" font-size="10.00">_Face_base.cpp</text>
</a>
</g>
</g>
<!-- Node6&#45;&gt;Node11 -->
<g id="edge10" class="edge">
<title>Node6&#45;&gt;Node11</title>
<path fill="none" stroke="midnightblue" d="M443.11,-251.78C463.92,-241.31 487.09,-229.66 507.07,-219.61"/>
<polygon fill="midnightblue" stroke="midnightblue" points="441.4,-248.72 434.04,-256.34 444.55,-254.97 441.4,-248.72"/>
</g>
<!-- Node8 -->
<g id="node8" class="node">
<title>Node8</title>
<g id="a_node8"><a xlink:href="Op__Dift__VDF__Face__Axi__base_8cpp.html" target="_top" xlink:title=" ">
<polygon fill="white" stroke="black" points="266,-78.5 266,-130.5 398,-130.5 398,-78.5 266,-78.5"/>
<text text-anchor="start" x="274" y="-118.5" font-family="Helvetica,sans-Serif" font-size="10.00">src/VDF/Operateurs</text>
<text text-anchor="start" x="274" y="-107.5" font-family="Helvetica,sans-Serif" font-size="10.00">/Op_Diff_Dift/Op_Diff</text>
<text text-anchor="start" x="274" y="-96.5" font-family="Helvetica,sans-Serif" font-size="10.00">_Dift_base/Op_Dift_VDF</text>
<text text-anchor="middle" x="332" y="-85.5" font-family="Helvetica,sans-Serif" font-size="10.00">_Face_Axi_base.cpp</text>
</a>
</g>
</g>
<!-- Node7&#45;&gt;Node8 -->
<g id="edge7" class="edge">
<title>Node7&#45;&gt;Node8</title>
<path fill="none" stroke="midnightblue" d="M354.35,-158.06C350.46,-148.9 346.32,-139.17 342.68,-130.61"/>
<polygon fill="midnightblue" stroke="midnightblue" points="351.16,-159.5 358.3,-167.34 357.61,-156.76 351.16,-159.5"/>
</g>
<!-- Node7&#45;&gt;Node9 -->
<g id="edge8" class="edge">
<title>Node7&#45;&gt;Node9</title>
<path fill="none" stroke="midnightblue" d="M407.57,-160.85C422.14,-148.88 438.3,-135.62 451.14,-125.08"/>
<polygon fill="midnightblue" stroke="midnightblue" points="405.17,-158.29 399.66,-167.34 409.61,-163.7 405.17,-158.29"/>
</g>
<!-- Node10 -->
<g id="node10" class="node">
<title>Node10</title>
<g id="a_node10"><a xlink:href="Op__Dift__VDF__Face__leaves_8cpp.html" target="_top" xlink:title=" ">
<polygon fill="white" stroke="black" points="411.5,-0.5 411.5,-41.5 538.5,-41.5 538.5,-0.5 411.5,-0.5"/>
<text text-anchor="start" x="419.5" y="-29.5" font-family="Helvetica,sans-Serif" font-size="10.00">src/VDF/Operateurs</text>
<text text-anchor="start" x="419.5" y="-18.5" font-family="Helvetica,sans-Serif" font-size="10.00">/Op_Diff_Dift/Op_Dift</text>
<text text-anchor="middle" x="475" y="-7.5" font-family="Helvetica,sans-Serif" font-size="10.00">_VDF_Face_leaves.cpp</text>
</a>
</g>
</g>
<!-- Node9&#45;&gt;Node10 -->
<g id="edge9" class="edge">
<title>Node9&#45;&gt;Node10</title>
<path fill="none" stroke="midnightblue" d="M475,-73.56C475,-62.88 475,-51.13 475,-41.55"/>
<polygon fill="midnightblue" stroke="midnightblue" points="471.5,-73.77 475,-83.77 478.5,-73.77 471.5,-73.77"/>
</g>
</g>
</svg>
