<?xml version="1.0" encoding="UTF-8" standalone="no"?>
<!DOCTYPE svg PUBLIC "-//W3C//DTD SVG 1.1//EN"
 "http://www.w3.org/Graphics/SVG/1.1/DTD/svg11.dtd">
<!-- Generated by graphviz version 2.43.0 (0)
 -->
<!-- Title: src/VDF/Operateurs/Op_Divers/Op_VDF_Face.h Pages: 1 -->
<svg width="997pt" height="384pt"
 viewBox="0.00 0.00 996.50 384.00" xmlns="http://www.w3.org/2000/svg" xmlns:xlink="http://www.w3.org/1999/xlink">
<g id="graph0" class="graph" transform="scale(1 1) rotate(0) translate(4 380)">
<title>src/VDF/Operateurs/Op_Divers/Op_VDF_Face.h</title>
<polygon fill="white" stroke="transparent" points="-4,4 -4,-380 992.5,-380 992.5,4 -4,4"/>
<!-- Node1 -->
<g id="node1" class="node">
<title>Node1</title>
<g id="a_node1"><a xlink:title=" ">
<polygon fill="#bfbfbf" stroke="black" points="585.5,-345.5 585.5,-375.5 733.5,-375.5 733.5,-345.5 585.5,-345.5"/>
<text text-anchor="start" x="593.5" y="-363.5" font-family="Helvetica,sans-Serif" font-size="10.00">src/VDF/Operateurs</text>
<text text-anchor="middle" x="659.5" y="-352.5" font-family="Helvetica,sans-Serif" font-size="10.00">/Op_Divers/Op_VDF_Face.h</text>
</a>
</g>
</g>
<!-- Node2 -->
<g id="node2" class="node">
<title>Node2</title>
<g id="a_node2"><a xlink:href="Op__Conv__VDF_8h.html" target="_top" xlink:title=" ">
<polygon fill="white" stroke="black" points="149,-267.5 149,-297.5 292,-297.5 292,-267.5 149,-267.5"/>
<text text-anchor="start" x="157" y="-285.5" font-family="Helvetica,sans-Serif" font-size="10.00">src/VDF/Operateurs</text>
<text text-anchor="middle" x="220.5" y="-274.5" font-family="Helvetica,sans-Serif" font-size="10.00">/Op_Conv/Op_Conv_VDF.h</text>
</a>
</g>
</g>
<!-- Node1&#45;&gt;Node2 -->
<g id="edge1" class="edge">
<title>Node1&#45;&gt;Node2</title>
<path fill="none" stroke="midnightblue" d="M574.97,-344.87C492.83,-330.65 369.47,-309.29 292.05,-295.89"/>
<polygon fill="midnightblue" stroke="midnightblue" points="574.58,-348.35 585.03,-346.61 575.77,-341.45 574.58,-348.35"/>
</g>
<!-- Node7 -->
<g id="node7" class="node">
<title>Node7</title>
<g id="a_node7"><a xlink:href="Op__Diff__VDF__Face__base_8h.html" target="_top" xlink:title=" ">
<polygon fill="white" stroke="black" points="471.5,-256.5 471.5,-308.5 603.5,-308.5 603.5,-256.5 471.5,-256.5"/>
<text text-anchor="start" x="479.5" y="-296.5" font-family="Helvetica,sans-Serif" font-size="10.00">src/VDF/Operateurs</text>
<text text-anchor="start" x="479.5" y="-285.5" font-family="Helvetica,sans-Serif" font-size="10.00">/Op_Diff_Dift/Op_Diff</text>
<text text-anchor="start" x="479.5" y="-274.5" font-family="Helvetica,sans-Serif" font-size="10.00">_Dift_base/Op_Diff_VDF</text>
<text text-anchor="middle" x="537.5" y="-263.5" font-family="Helvetica,sans-Serif" font-size="10.00">_Face_base.h</text>
</a>
</g>
</g>
<!-- Node1&#45;&gt;Node7 -->
<g id="edge6" class="edge">
<title>Node1&#45;&gt;Node7</title>
<path fill="none" stroke="midnightblue" d="M628.23,-340.02C612.89,-330.46 594.22,-318.83 577.82,-308.62"/>
<polygon fill="midnightblue" stroke="midnightblue" points="626.5,-343.07 636.84,-345.38 630.2,-337.12 626.5,-343.07"/>
</g>
<!-- Node13 -->
<g id="node13" class="node">
<title>Node13</title>
<g id="a_node13"><a xlink:href="Op__Dift__VDF__Face__base_8h.html" target="_top" xlink:title=" ">
<polygon fill="white" stroke="black" points="668.5,-256.5 668.5,-308.5 800.5,-308.5 800.5,-256.5 668.5,-256.5"/>
<text text-anchor="start" x="676.5" y="-296.5" font-family="Helvetica,sans-Serif" font-size="10.00">src/VDF/Operateurs</text>
<text text-anchor="start" x="676.5" y="-285.5" font-family="Helvetica,sans-Serif" font-size="10.00">/Op_Diff_Dift/Op_Diff</text>
<text text-anchor="start" x="676.5" y="-274.5" font-family="Helvetica,sans-Serif" font-size="10.00">_Dift_base/Op_Dift_VDF</text>
<text text-anchor="middle" x="734.5" y="-263.5" font-family="Helvetica,sans-Serif" font-size="10.00">_Face_base.h</text>
</a>
</g>
</g>
<!-- Node1&#45;&gt;Node13 -->
<g id="edge13" class="edge">
<title>Node1&#45;&gt;Node13</title>
<path fill="none" stroke="midnightblue" d="M680.78,-337.94C689.83,-328.77 700.44,-318.02 709.83,-308.5"/>
<polygon fill="midnightblue" stroke="midnightblue" points="678.14,-335.63 673.61,-345.2 683.12,-340.55 678.14,-335.63"/>
</g>
<!-- Node19 -->
<g id="node19" class="node">
<title>Node19</title>
<g id="a_node19"><a xlink:href="Op__VDF__Face_8cpp.html" target="_top" xlink:title=" ">
<polygon fill="white" stroke="black" points="819,-267.5 819,-297.5 978,-297.5 978,-267.5 819,-267.5"/>
<text text-anchor="start" x="827" y="-285.5" font-family="Helvetica,sans-Serif" font-size="10.00">src/VDF/Operateurs</text>
<text text-anchor="middle" x="898.5" y="-274.5" font-family="Helvetica,sans-Serif" font-size="10.00">/Op_Divers/Op_VDF_Face.cpp</text>
</a>
</g>
</g>
<!-- Node1&#45;&gt;Node19 -->
<g id="edge20" class="edge">
<title>Node1&#45;&gt;Node19</title>
<path fill="none" stroke="midnightblue" d="M713.24,-342.41C755.76,-328.89 814.4,-310.24 854.24,-297.57"/>
<polygon fill="midnightblue" stroke="midnightblue" points="712.08,-339.11 703.61,-345.47 714.21,-345.78 712.08,-339.11"/>
</g>
<!-- Node3 -->
<g id="node3" class="node">
<title>Node3</title>
<g id="a_node3"><a xlink:href="Op__Conv__VDF__Elem__leaves_8h.html" target="_top" xlink:title=" ">
<polygon fill="white" stroke="black" points="0,-173 0,-214 135,-214 135,-173 0,-173"/>
<text text-anchor="start" x="8" y="-202" font-family="Helvetica,sans-Serif" font-size="10.00">src/VDF/Operateurs</text>
<text text-anchor="start" x="8" y="-191" font-family="Helvetica,sans-Serif" font-size="10.00">/Op_Conv/Op_Conv_VDF</text>
<text text-anchor="middle" x="67.5" y="-180" font-family="Helvetica,sans-Serif" font-size="10.00">_Elem_leaves.h</text>
</a>
</g>
</g>
<!-- Node2&#45;&gt;Node3 -->
<g id="edge2" class="edge">
<title>Node2&#45;&gt;Node3</title>
<path fill="none" stroke="midnightblue" d="M186.73,-262.3C161.52,-247.96 127.19,-228.44 101.84,-214.03"/>
<polygon fill="midnightblue" stroke="midnightblue" points="185.15,-265.43 195.58,-267.33 188.61,-259.34 185.15,-265.43"/>
</g>
<!-- Node5 -->
<g id="node5" class="node">
<title>Node5</title>
<g id="a_node5"><a xlink:href="Op__Conv__VDF__Face__leaves_8h.html" target="_top" xlink:title=" ">
<polygon fill="white" stroke="black" points="153,-173 153,-214 288,-214 288,-173 153,-173"/>
<text text-anchor="start" x="161" y="-202" font-family="Helvetica,sans-Serif" font-size="10.00">src/VDF/Operateurs</text>
<text text-anchor="start" x="161" y="-191" font-family="Helvetica,sans-Serif" font-size="10.00">/Op_Conv/Op_Conv_VDF</text>
<text text-anchor="middle" x="220.5" y="-180" font-family="Helvetica,sans-Serif" font-size="10.00">_Face_leaves.h</text>
</a>
</g>
</g>
<!-- Node2&#45;&gt;Node5 -->
<g id="edge4" class="edge">
<title>Node2&#45;&gt;Node5</title>
<path fill="none" stroke="midnightblue" d="M220.5,-257.04C220.5,-243.47 220.5,-226.81 220.5,-214.1"/>
<polygon fill="midnightblue" stroke="midnightblue" points="217,-257.13 220.5,-267.13 224,-257.13 217,-257.13"/>
</g>
<!-- Node4 -->
<g id="node4" class="node">
<title>Node4</title>
<g id="a_node4"><a xlink:href="Op__Conv__VDF__Elem__leaves_8cpp.html" target="_top" xlink:title=" ">
<polygon fill="white" stroke="black" points="0,-84 0,-125 135,-125 135,-84 0,-84"/>
<text text-anchor="start" x="8" y="-113" font-family="Helvetica,sans-Serif" font-size="10.00">src/VDF/Operateurs</text>
<text text-anchor="start" x="8" y="-102" font-family="Helvetica,sans-Serif" font-size="10.00">/Op_Conv/Op_Conv_VDF</text>
<text text-anchor="middle" x="67.5" y="-91" font-family="Helvetica,sans-Serif" font-size="10.00">_Elem_leaves.cpp</text>
</a>
</g>
</g>
<!-- Node3&#45;&gt;Node4 -->
<g id="edge3" class="edge">
<title>Node3&#45;&gt;Node4</title>
<path fill="none" stroke="midnightblue" d="M67.5,-162.44C67.5,-150.1 67.5,-136.16 67.5,-125.16"/>
<polygon fill="midnightblue" stroke="midnightblue" points="64,-162.76 67.5,-172.76 71,-162.76 64,-162.76"/>
</g>
<!-- Node6 -->
<g id="node6" class="node">
<title>Node6</title>
<g id="a_node6"><a xlink:href="Op__Conv__VDF__Face__leaves_8cpp.html" target="_top" xlink:title=" ">
<polygon fill="white" stroke="black" points="153,-84 153,-125 288,-125 288,-84 153,-84"/>
<text text-anchor="start" x="161" y="-113" font-family="Helvetica,sans-Serif" font-size="10.00">src/VDF/Operateurs</text>
<text text-anchor="start" x="161" y="-102" font-family="Helvetica,sans-Serif" font-size="10.00">/Op_Conv/Op_Conv_VDF</text>
<text text-anchor="middle" x="220.5" y="-91" font-family="Helvetica,sans-Serif" font-size="10.00">_Face_leaves.cpp</text>
</a>
</g>
</g>
<!-- Node5&#45;&gt;Node6 -->
<g id="edge5" class="edge">
<title>Node5&#45;&gt;Node6</title>
<path fill="none" stroke="midnightblue" d="M220.5,-162.44C220.5,-150.1 220.5,-136.16 220.5,-125.16"/>
<polygon fill="midnightblue" stroke="midnightblue" points="217,-162.76 220.5,-172.76 224,-162.76 217,-162.76"/>
</g>
<!-- Node8 -->
<g id="node8" class="node">
<title>Node8</title>
<g id="a_node8"><a xlink:href="Op__Diff__VDF__Face__Axi__base_8h.html" target="_top" xlink:title=" ">
<polygon fill="white" stroke="black" points="330.5,-167.5 330.5,-219.5 462.5,-219.5 462.5,-167.5 330.5,-167.5"/>
<text text-anchor="start" x="338.5" y="-207.5" font-family="Helvetica,sans-Serif" font-size="10.00">src/VDF/Operateurs</text>
<text text-anchor="start" x="338.5" y="-196.5" font-family="Helvetica,sans-Serif" font-size="10.00">/Op_Diff_Dift/Op_Diff</text>
<text text-anchor="start" x="338.5" y="-185.5" font-family="Helvetica,sans-Serif" font-size="10.00">_Dift_base/Op_Diff_VDF</text>
<text text-anchor="middle" x="396.5" y="-174.5" font-family="Helvetica,sans-Serif" font-size="10.00">_Face_Axi_base.h</text>
</a>
</g>
</g>
<!-- Node7&#45;&gt;Node8 -->
<g id="edge7" class="edge">
<title>Node7&#45;&gt;Node8</title>
<path fill="none" stroke="midnightblue" d="M488.18,-251.07C471.52,-240.79 453.11,-229.43 437.19,-219.61"/>
<polygon fill="midnightblue" stroke="midnightblue" points="486.37,-254.06 496.72,-256.34 490.04,-248.11 486.37,-254.06"/>
</g>
<!-- Node10 -->
<g id="node10" class="node">
<title>Node10</title>
<g id="a_node10"><a xlink:href="Op__Diff__VDF__Face__leaves_8h.html" target="_top" xlink:title=" ">
<polygon fill="white" stroke="black" points="457,-84 457,-125 574,-125 574,-84 457,-84"/>
<text text-anchor="start" x="465" y="-113" font-family="Helvetica,sans-Serif" font-size="10.00">src/VDF/Operateurs</text>
<text text-anchor="start" x="465" y="-102" font-family="Helvetica,sans-Serif" font-size="10.00">/Op_Diff_Dift/Op_Diff</text>
<text text-anchor="middle" x="515.5" y="-91" font-family="Helvetica,sans-Serif" font-size="10.00">_VDF_Face_leaves.h</text>
</a>
</g>
</g>
<!-- Node7&#45;&gt;Node10 -->
<g id="edge12" class="edge">
<title>Node7&#45;&gt;Node10</title>
<path fill="none" stroke="midnightblue" d="M518.7,-247.01C514.9,-238.43 511.47,-229.08 509.5,-220 502.41,-187.32 507.21,-148.22 511.35,-125.2"/>
<polygon fill="midnightblue" stroke="midnightblue" points="515.66,-248.76 523.09,-256.32 521.99,-245.78 515.66,-248.76"/>
</g>
<!-- Node12 -->
<g id="node12" class="node">
<title>Node12</title>
<g id="a_node12"><a xlink:href="Op__Diff__VDF__Face__base_8cpp.html" target="_top" xlink:title=" ">
<polygon fill="white" stroke="black" points="518.5,-167.5 518.5,-219.5 650.5,-219.5 650.5,-167.5 518.5,-167.5"/>
<text text-anchor="start" x="526.5" y="-207.5" font-family="Helvetica,sans-Serif" font-size="10.00">src/VDF/Operateurs</text>
<text text-anchor="start" x="526.5" y="-196.5" font-family="Helvetica,sans-Serif" font-size="10.00">/Op_Diff_Dift/Op_Diff</text>
<text text-anchor="start" x="526.5" y="-185.5" font-family="Helvetica,sans-Serif" font-size="10.00">_Dift_base/Op_Diff_VDF</text>
<text text-anchor="middle" x="584.5" y="-174.5" font-family="Helvetica,sans-Serif" font-size="10.00">_Face_base.cpp</text>
</a>
</g>
</g>
<!-- Node7&#45;&gt;Node12 -->
<g id="edge11" class="edge">
<title>Node7&#45;&gt;Node12</title>
<path fill="none" stroke="midnightblue" d="M555.95,-247.35C560.95,-238.1 566.26,-228.26 570.94,-219.61"/>
<polygon fill="midnightblue" stroke="midnightblue" points="552.77,-245.87 551.09,-256.34 558.93,-249.2 552.77,-245.87"/>
</g>
<!-- Node9 -->
<g id="node9" class="node">
<title>Node9</title>
<g id="a_node9"><a xlink:href="Op__Diff__VDF__Face__Axi__base_8cpp.html" target="_top" xlink:title=" ">
<polygon fill="white" stroke="black" points="306.5,-78.5 306.5,-130.5 438.5,-130.5 438.5,-78.5 306.5,-78.5"/>
<text text-anchor="start" x="314.5" y="-118.5" font-family="Helvetica,sans-Serif" font-size="10.00">src/VDF/Operateurs</text>
<text text-anchor="start" x="314.5" y="-107.5" font-family="Helvetica,sans-Serif" font-size="10.00">/Op_Diff_Dift/Op_Diff</text>
<text text-anchor="start" x="314.5" y="-96.5" font-family="Helvetica,sans-Serif" font-size="10.00">_Dift_base/Op_Diff_VDF</text>
<text text-anchor="middle" x="372.5" y="-85.5" font-family="Helvetica,sans-Serif" font-size="10.00">_Face_Axi_base.cpp</text>
</a>
</g>
</g>
<!-- Node8&#45;&gt;Node9 -->
<g id="edge8" class="edge">
<title>Node8&#45;&gt;Node9</title>
<path fill="none" stroke="midnightblue" d="M386.84,-157.48C384.36,-148.49 381.74,-138.99 379.43,-130.61"/>
<polygon fill="midnightblue" stroke="midnightblue" points="383.52,-158.63 389.56,-167.34 390.27,-156.77 383.52,-158.63"/>
</g>
<!-- Node8&#45;&gt;Node10 -->
<g id="edge9" class="edge">
<title>Node8&#45;&gt;Node10</title>
<path fill="none" stroke="midnightblue" d="M439.34,-161.18C455.82,-149.13 474.16,-135.72 488.72,-125.08"/>
<polygon fill="midnightblue" stroke="midnightblue" points="436.93,-158.61 430.92,-167.34 441.06,-164.26 436.93,-158.61"/>
</g>
<!-- Node11 -->
<g id="node11" class="node">
<title>Node11</title>
<g id="a_node11"><a xlink:href="Op__Diff__VDF__Face__leaves_8cpp.html" target="_top" xlink:title=" ">
<polygon fill="white" stroke="black" points="452,-0.5 452,-41.5 579,-41.5 579,-0.5 452,-0.5"/>
<text text-anchor="start" x="460" y="-29.5" font-family="Helvetica,sans-Serif" font-size="10.00">src/VDF/Operateurs</text>
<text text-anchor="start" x="460" y="-18.5" font-family="Helvetica,sans-Serif" font-size="10.00">/Op_Diff_Dift/Op_Diff</text>
<text text-anchor="middle" x="515.5" y="-7.5" font-family="Helvetica,sans-Serif" font-size="10.00">_VDF_Face_leaves.cpp</text>
</a>
</g>
</g>
<!-- Node10&#45;&gt;Node11 -->
<g id="edge10" class="edge">
<title>Node10&#45;&gt;Node11</title>
<path fill="none" stroke="midnightblue" d="M515.5,-73.56C515.5,-62.88 515.5,-51.13 515.5,-41.55"/>
<polygon fill="midnightblue" stroke="midnightblue" points="512,-73.77 515.5,-83.77 519,-73.77 512,-73.77"/>
</g>
<!-- Node14 -->
<g id="node14" class="node">
<title>Node14</title>
<g id="a_node14"><a xlink:href="Op__Dift__VDF__Face__Axi__base_8h.html" target="_top" xlink:title=" ">
<polygon fill="white" stroke="black" points="668.5,-167.5 668.5,-219.5 800.5,-219.5 800.5,-167.5 668.5,-167.5"/>
<text text-anchor="start" x="676.5" y="-207.5" font-family="Helvetica,sans-Serif" font-size="10.00">src/VDF/Operateurs</text>
<text text-anchor="start" x="676.5" y="-196.5" font-family="Helvetica,sans-Serif" font-size="10.00">/Op_Diff_Dift/Op_Diff</text>
<text text-anchor="start" x="676.5" y="-185.5" font-family="Helvetica,sans-Serif" font-size="10.00">_Dift_base/Op_Dift_VDF</text>
<text text-anchor="middle" x="734.5" y="-174.5" font-family="Helvetica,sans-Serif" font-size="10.00">_Face_Axi_base.h</text>
</a>
</g>
</g>
<!-- Node13&#45;&gt;Node14 -->
<g id="edge14" class="edge">
<title>Node13&#45;&gt;Node14</title>
<path fill="none" stroke="midnightblue" d="M734.5,-246.19C734.5,-237.28 734.5,-227.9 734.5,-219.61"/>
<polygon fill="midnightblue" stroke="midnightblue" points="731,-246.34 734.5,-256.34 738,-246.34 731,-246.34"/>
</g>
<!-- Node16 -->
<g id="node16" class="node">
<title>Node16</title>
<g id="a_node16"><a xlink:href="Op__Dift__VDF__Face__leaves_8h.html" target="_top" xlink:title=" ">
<polygon fill="white" stroke="black" points="770,-84 770,-125 887,-125 887,-84 770,-84"/>
<text text-anchor="start" x="778" y="-113" font-family="Helvetica,sans-Serif" font-size="10.00">src/VDF/Operateurs</text>
<text text-anchor="start" x="778" y="-102" font-family="Helvetica,sans-Serif" font-size="10.00">/Op_Diff_Dift/Op_Dift</text>
<text text-anchor="middle" x="828.5" y="-91" font-family="Helvetica,sans-Serif" font-size="10.00">_VDF_Face_leaves.h</text>
</a>
</g>
</g>
<!-- Node13&#45;&gt;Node16 -->
<g id="edge19" class="edge">
<title>Node13&#45;&gt;Node16</title>
<path fill="none" stroke="midnightblue" d="M783.28,-250.17C793.37,-241.55 802.92,-231.38 809.5,-220 826.75,-190.17 829.43,-149.1 829.31,-125.12"/>
<polygon fill="midnightblue" stroke="midnightblue" points="781.08,-247.45 775.5,-256.46 785.48,-252.9 781.08,-247.45"/>
</g>
<!-- Node18 -->
<g id="node18" class="node">
<title>Node18</title>
<g id="a_node18"><a xlink:href="Op__Dift__VDF__Face__base_8cpp.html" target="_top" xlink:title=" ">
<polygon fill="white" stroke="black" points="856.5,-167.5 856.5,-219.5 988.5,-219.5 988.5,-167.5 856.5,-167.5"/>
<text text-anchor="start" x="864.5" y="-207.5" font-family="Helvetica,sans-Serif" font-size="10.00">src/VDF/Operateurs</text>
<text text-anchor="start" x="864.5" y="-196.5" font-family="Helvetica,sans-Serif" font-size="10.00">/Op_Diff_Dift/Op_Diff</text>
<text text-anchor="start" x="864.5" y="-185.5" font-family="Helvetica,sans-Serif" font-size="10.00">_Dift_base/Op_Dift_VDF</text>
<text text-anchor="middle" x="922.5" y="-174.5" font-family="Helvetica,sans-Serif" font-size="10.00">_Face_base.cpp</text>
</a>
</g>
</g>
<!-- Node13&#45;&gt;Node18 -->
<g id="edge18" class="edge">
<title>Node13&#45;&gt;Node18</title>
<path fill="none" stroke="midnightblue" d="M797.92,-252.15C820.81,-241.56 846.41,-229.71 868.43,-219.52"/>
<polygon fill="midnightblue" stroke="midnightblue" points="796.23,-249.08 788.63,-256.45 799.17,-255.43 796.23,-249.08"/>
</g>
<!-- Node15 -->
<g id="node15" class="node">
<title>Node15</title>
<g id="a_node15"><a xlink:href="Op__Dift__VDF__Face__Axi__base_8cpp.html" target="_top" xlink:title=" ">
<polygon fill="white" stroke="black" points="619.5,-78.5 619.5,-130.5 751.5,-130.5 751.5,-78.5 619.5,-78.5"/>
<text text-anchor="start" x="627.5" y="-118.5" font-family="Helvetica,sans-Serif" font-size="10.00">src/VDF/Operateurs</text>
<text text-anchor="start" x="627.5" y="-107.5" font-family="Helvetica,sans-Serif" font-size="10.00">/Op_Diff_Dift/Op_Diff</text>
<text text-anchor="start" x="627.5" y="-96.5" font-family="Helvetica,sans-Serif" font-size="10.00">_Dift_base/Op_Dift_VDF</text>
<text text-anchor="middle" x="685.5" y="-85.5" font-family="Helvetica,sans-Serif" font-size="10.00">_Face_Axi_base.cpp</text>
</a>
</g>
</g>
<!-- Node14&#45;&gt;Node15 -->
<g id="edge15" class="edge">
<title>Node14&#45;&gt;Node15</title>
<path fill="none" stroke="midnightblue" d="M715.27,-158.35C710.06,-149.1 704.51,-139.26 699.64,-130.61"/>
<polygon fill="midnightblue" stroke="midnightblue" points="712.37,-160.34 720.33,-167.34 718.47,-156.91 712.37,-160.34"/>
</g>
<!-- Node14&#45;&gt;Node16 -->
<g id="edge16" class="edge">
<title>Node14&#45;&gt;Node16</title>
<path fill="none" stroke="midnightblue" d="M769.06,-160.51C781.89,-148.64 796.06,-135.53 807.34,-125.08"/>
<polygon fill="midnightblue" stroke="midnightblue" points="766.65,-157.97 761.69,-167.34 771.41,-163.11 766.65,-157.97"/>
</g>
<!-- Node17 -->
<g id="node17" class="node">
<title>Node17</title>
<g id="a_node17"><a xlink:href="Op__Dift__VDF__Face__leaves_8cpp.html" target="_top" xlink:title=" ">
<polygon fill="white" stroke="black" points="765,-0.5 765,-41.5 892,-41.5 892,-0.5 765,-0.5"/>
<text text-anchor="start" x="773" y="-29.5" font-family="Helvetica,sans-Serif" font-size="10.00">src/VDF/Operateurs</text>
<text text-anchor="start" x="773" y="-18.5" font-family="Helvetica,sans-Serif" font-size="10.00">/Op_Diff_Dift/Op_Dift</text>
<text text-anchor="middle" x="828.5" y="-7.5" font-family="Helvetica,sans-Serif" font-size="10.00">_VDF_Face_leaves.cpp</text>
</a>
</g>
</g>
<!-- Node16&#45;&gt;Node17 -->
<g id="edge17" class="edge">
<title>Node16&#45;&gt;Node17</title>
<path fill="none" stroke="midnightblue" d="M828.5,-73.56C828.5,-62.88 828.5,-51.13 828.5,-41.55"/>
<polygon fill="midnightblue" stroke="midnightblue" points="825,-73.77 828.5,-83.77 832,-73.77 825,-73.77"/>
</g>
</g>
</svg>
