<?xml version="1.0" encoding="UTF-8" standalone="no"?>
<!DOCTYPE svg PUBLIC "-//W3C//DTD SVG 1.1//EN"
 "http://www.w3.org/Graphics/SVG/1.1/DTD/svg11.dtd">
<!-- Generated by graphviz version 2.43.0 (0)
 -->
<!-- Title: src/EF/Operateurs/Op_EF_base.h Pages: 1 -->
<svg width="954pt" height="374pt"
 viewBox="0.00 0.00 954.00 374.00" xmlns="http://www.w3.org/2000/svg" xmlns:xlink="http://www.w3.org/1999/xlink">
<g id="graph0" class="graph" transform="scale(1 1) rotate(0) translate(4 370)">
<title>src/EF/Operateurs/Op_EF_base.h</title>
<polygon fill="white" stroke="transparent" points="-4,4 -4,-370 950,-370 950,4 -4,4"/>
<!-- Node1 -->
<g id="node1" class="node">
<title>Node1</title>
<g id="a_node1"><a xlink:title=" ">
<polygon fill="#bfbfbf" stroke="black" points="514,-335.5 514,-365.5 633,-365.5 633,-335.5 514,-335.5"/>
<text text-anchor="start" x="522" y="-353.5" font-family="Helvetica,sans-Serif" font-size="10.00">src/EF/Operateurs/Op</text>
<text text-anchor="middle" x="573.5" y="-342.5" font-family="Helvetica,sans-Serif" font-size="10.00">_EF_base.h</text>
</a>
</g>
</g>
<!-- Node2 -->
<g id="node2" class="node">
<title>Node2</title>
<g id="a_node2"><a xlink:href="Op__Conv__EF__base_8h.html" target="_top" xlink:title=" ">
<polygon fill="white" stroke="black" points="240,-268.5 240,-298.5 359,-298.5 359,-268.5 240,-268.5"/>
<text text-anchor="start" x="248" y="-286.5" font-family="Helvetica,sans-Serif" font-size="10.00">src/EF/Operateurs/Op</text>
<text text-anchor="middle" x="299.5" y="-275.5" font-family="Helvetica,sans-Serif" font-size="10.00">_Conv_EF_base.h</text>
</a>
</g>
</g>
<!-- Node1&#45;&gt;Node2 -->
<g id="edge1" class="edge">
<title>Node1&#45;&gt;Node2</title>
<path fill="none" stroke="midnightblue" d="M504.45,-333.12C459.61,-322.48 401.78,-308.76 358.98,-298.61"/>
<polygon fill="midnightblue" stroke="midnightblue" points="503.85,-336.57 514.38,-335.48 505.46,-329.76 503.85,-336.57"/>
</g>
<!-- Node11 -->
<g id="node11" class="node">
<title>Node11</title>
<g id="a_node11"><a xlink:href="Op__Diff__EF_8h.html" target="_top" xlink:title=" ">
<polygon fill="white" stroke="black" points="377,-201.5 377,-231.5 496,-231.5 496,-201.5 377,-201.5"/>
<text text-anchor="start" x="385" y="-219.5" font-family="Helvetica,sans-Serif" font-size="10.00">src/EF/Operateurs/Op</text>
<text text-anchor="middle" x="436.5" y="-208.5" font-family="Helvetica,sans-Serif" font-size="10.00">_Diff_EF.h</text>
</a>
</g>
</g>
<!-- Node1&#45;&gt;Node11 -->
<g id="edge10" class="edge">
<title>Node1&#45;&gt;Node11</title>
<path fill="none" stroke="midnightblue" d="M543,-329.59C530.53,-320.85 516.29,-310.06 504.5,-299 481.66,-277.56 459.17,-248.66 446.63,-231.66"/>
<polygon fill="midnightblue" stroke="midnightblue" points="541.08,-332.52 551.31,-335.3 545.05,-326.75 541.08,-332.52"/>
</g>
<!-- Node12 -->
<g id="node12" class="node">
<title>Node12</title>
<g id="a_node12"><a xlink:href="Op__Diff__EF__base_8h.html" target="_top" xlink:title=" ">
<polygon fill="white" stroke="black" points="514,-268.5 514,-298.5 633,-298.5 633,-268.5 514,-268.5"/>
<text text-anchor="start" x="522" y="-286.5" font-family="Helvetica,sans-Serif" font-size="10.00">src/EF/Operateurs/Op</text>
<text text-anchor="middle" x="573.5" y="-275.5" font-family="Helvetica,sans-Serif" font-size="10.00">_Diff_EF_base.h</text>
</a>
</g>
</g>
<!-- Node1&#45;&gt;Node12 -->
<g id="edge13" class="edge">
<title>Node1&#45;&gt;Node12</title>
<path fill="none" stroke="midnightblue" d="M573.5,-325.11C573.5,-316.15 573.5,-306.32 573.5,-298.58"/>
<polygon fill="midnightblue" stroke="midnightblue" points="570,-325.4 573.5,-335.4 577,-325.4 570,-325.4"/>
</g>
<!-- Node15 -->
<g id="node15" class="node">
<title>Node15</title>
<g id="a_node15"><a xlink:href="Op__Dift__EF__Q1_8h.html" target="_top" xlink:title=" ">
<polygon fill="white" stroke="black" points="638,-134.5 638,-164.5 757,-164.5 757,-134.5 638,-134.5"/>
<text text-anchor="start" x="646" y="-152.5" font-family="Helvetica,sans-Serif" font-size="10.00">src/EF/Operateurs/Op</text>
<text text-anchor="middle" x="697.5" y="-141.5" font-family="Helvetica,sans-Serif" font-size="10.00">_Dift_EF_Q1.h</text>
</a>
</g>
</g>
<!-- Node1&#45;&gt;Node15 -->
<g id="edge20" class="edge">
<title>Node1&#45;&gt;Node15</title>
<path fill="none" stroke="midnightblue" d="M637.02,-332.07C685.26,-315.12 748.29,-284.13 778.5,-232 785.41,-220.08 785.19,-213.05 778.5,-201 769.33,-184.48 752.27,-172.66 736.16,-164.63"/>
<polygon fill="midnightblue" stroke="midnightblue" points="635.62,-328.85 627.28,-335.38 637.87,-335.48 635.62,-328.85"/>
</g>
<!-- Node17 -->
<g id="node17" class="node">
<title>Node17</title>
<g id="a_node17"><a xlink:href="Op__EF__base_8cpp.html" target="_top" xlink:title=" ">
<polygon fill="white" stroke="black" points="827,-268.5 827,-298.5 946,-298.5 946,-268.5 827,-268.5"/>
<text text-anchor="start" x="835" y="-286.5" font-family="Helvetica,sans-Serif" font-size="10.00">src/EF/Operateurs/Op</text>
<text text-anchor="middle" x="886.5" y="-275.5" font-family="Helvetica,sans-Serif" font-size="10.00">_EF_base.cpp</text>
</a>
</g>
</g>
<!-- Node1&#45;&gt;Node17 -->
<g id="edge21" class="edge">
<title>Node1&#45;&gt;Node17</title>
<path fill="none" stroke="midnightblue" d="M643.15,-335.04C698.29,-323.58 774.49,-307.76 826.85,-296.89"/>
<polygon fill="midnightblue" stroke="midnightblue" points="642.19,-331.66 633.11,-337.12 643.61,-338.51 642.19,-331.66"/>
</g>
<!-- Node3 -->
<g id="node3" class="node">
<title>Node3</title>
<g id="a_node3"><a xlink:href="Op__Conv__EF_8h.html" target="_top" xlink:title=" ">
<polygon fill="white" stroke="black" points="276,-134.5 276,-164.5 395,-164.5 395,-134.5 276,-134.5"/>
<text text-anchor="start" x="284" y="-152.5" font-family="Helvetica,sans-Serif" font-size="10.00">src/EF/Operateurs/Op</text>
<text text-anchor="middle" x="335.5" y="-141.5" font-family="Helvetica,sans-Serif" font-size="10.00">_Conv_EF.h</text>
</a>
</g>
</g>
<!-- Node2&#45;&gt;Node3 -->
<g id="edge2" class="edge">
<title>Node2&#45;&gt;Node3</title>
<path fill="none" stroke="midnightblue" d="M260.09,-263.01C248.4,-255.11 236.99,-244.78 230.5,-232 224.27,-219.71 223.17,-212.66 230.5,-201 241.37,-183.7 260.01,-172.2 278.59,-164.6"/>
<polygon fill="midnightblue" stroke="midnightblue" points="258.26,-265.99 268.59,-268.34 261.98,-260.06 258.26,-265.99"/>
</g>
<!-- Node10 -->
<g id="node10" class="node">
<title>Node10</title>
<g id="a_node10"><a xlink:href="Op__Conv__EF__base_8cpp.html" target="_top" xlink:title=" ">
<polygon fill="white" stroke="black" points="240,-201.5 240,-231.5 359,-231.5 359,-201.5 240,-201.5"/>
<text text-anchor="start" x="248" y="-219.5" font-family="Helvetica,sans-Serif" font-size="10.00">src/EF/Operateurs/Op</text>
<text text-anchor="middle" x="299.5" y="-208.5" font-family="Helvetica,sans-Serif" font-size="10.00">_Conv_EF_base.cpp</text>
</a>
</g>
</g>
<!-- Node2&#45;&gt;Node10 -->
<g id="edge9" class="edge">
<title>Node2&#45;&gt;Node10</title>
<path fill="none" stroke="midnightblue" d="M299.5,-258.11C299.5,-249.15 299.5,-239.32 299.5,-231.58"/>
<polygon fill="midnightblue" stroke="midnightblue" points="296,-258.4 299.5,-268.4 303,-258.4 296,-258.4"/>
</g>
<!-- Node4 -->
<g id="node4" class="node">
<title>Node4</title>
<g id="a_node4"><a xlink:href="Op__Conv__EF_8cpp.html" target="_top" xlink:title=" ">
<polygon fill="white" stroke="black" points="0,-67.5 0,-97.5 119,-97.5 119,-67.5 0,-67.5"/>
<text text-anchor="start" x="8" y="-85.5" font-family="Helvetica,sans-Serif" font-size="10.00">src/EF/Operateurs/Op</text>
<text text-anchor="middle" x="59.5" y="-74.5" font-family="Helvetica,sans-Serif" font-size="10.00">_Conv_EF.cpp</text>
</a>
</g>
</g>
<!-- Node3&#45;&gt;Node4 -->
<g id="edge3" class="edge">
<title>Node3&#45;&gt;Node4</title>
<path fill="none" stroke="midnightblue" d="M265.94,-132.12C220.78,-121.48 162.52,-107.76 119.42,-97.61"/>
<polygon fill="midnightblue" stroke="midnightblue" points="265.42,-135.59 275.95,-134.48 267.02,-128.78 265.42,-135.59"/>
</g>
<!-- Node5 -->
<g id="node5" class="node">
<title>Node5</title>
<g id="a_node5"><a xlink:href="Op__Conv__SUPG__EF_8h.html" target="_top" xlink:title=" ">
<polygon fill="white" stroke="black" points="137,-67.5 137,-97.5 256,-97.5 256,-67.5 137,-67.5"/>
<text text-anchor="start" x="145" y="-85.5" font-family="Helvetica,sans-Serif" font-size="10.00">src/EF/Operateurs/Op</text>
<text text-anchor="middle" x="196.5" y="-74.5" font-family="Helvetica,sans-Serif" font-size="10.00">_Conv_SUPG_EF.h</text>
</a>
</g>
</g>
<!-- Node3&#45;&gt;Node5 -->
<g id="edge4" class="edge">
<title>Node3&#45;&gt;Node5</title>
<path fill="none" stroke="midnightblue" d="M296.22,-130.13C274.13,-119.8 246.99,-107.11 226.6,-97.58"/>
<polygon fill="midnightblue" stroke="midnightblue" points="294.8,-133.33 305.34,-134.4 297.76,-126.99 294.8,-133.33"/>
</g>
<!-- Node7 -->
<g id="node7" class="node">
<title>Node7</title>
<g id="a_node7"><a xlink:href="Op__Diff__EF_8cpp.html" target="_top" xlink:title=" ">
<polygon fill="white" stroke="black" points="415,-67.5 415,-97.5 534,-97.5 534,-67.5 415,-67.5"/>
<text text-anchor="start" x="423" y="-85.5" font-family="Helvetica,sans-Serif" font-size="10.00">src/EF/Operateurs/Op</text>
<text text-anchor="middle" x="474.5" y="-74.5" font-family="Helvetica,sans-Serif" font-size="10.00">_Diff_EF.cpp</text>
</a>
</g>
</g>
<!-- Node3&#45;&gt;Node7 -->
<g id="edge6" class="edge">
<title>Node3&#45;&gt;Node7</title>
<path fill="none" stroke="midnightblue" d="M374.78,-130.13C396.87,-119.8 424.01,-107.11 444.4,-97.58"/>
<polygon fill="midnightblue" stroke="midnightblue" points="373.24,-126.99 365.66,-134.4 376.2,-133.33 373.24,-126.99"/>
</g>
<!-- Node8 -->
<g id="node8" class="node">
<title>Node8</title>
<g id="a_node8"><a xlink:href="Op__Dift__EF__Q1_8cpp.html" target="_top" xlink:title=" ">
<polygon fill="white" stroke="black" points="595,-67.5 595,-97.5 714,-97.5 714,-67.5 595,-67.5"/>
<text text-anchor="start" x="603" y="-85.5" font-family="Helvetica,sans-Serif" font-size="10.00">src/EF/Operateurs/Op</text>
<text text-anchor="middle" x="654.5" y="-74.5" font-family="Helvetica,sans-Serif" font-size="10.00">_Dift_EF_Q1.cpp</text>
</a>
</g>
</g>
<!-- Node3&#45;&gt;Node8 -->
<g id="edge7" class="edge">
<title>Node3&#45;&gt;Node8</title>
<path fill="none" stroke="midnightblue" d="M405.09,-134.32C461.81,-122.76 541.06,-106.61 594.9,-95.65"/>
<polygon fill="midnightblue" stroke="midnightblue" points="404.23,-130.92 395.13,-136.35 405.62,-137.78 404.23,-130.92"/>
</g>
<!-- Node9 -->
<g id="node9" class="node">
<title>Node9</title>
<g id="a_node9"><a xlink:href="Source__PDF__EF_8cpp.html" target="_top" xlink:title=" ">
<polygon fill="white" stroke="black" points="274,-67.5 274,-97.5 397,-97.5 397,-67.5 274,-67.5"/>
<text text-anchor="start" x="282" y="-85.5" font-family="Helvetica,sans-Serif" font-size="10.00">src/EF/Sources/Source</text>
<text text-anchor="middle" x="335.5" y="-74.5" font-family="Helvetica,sans-Serif" font-size="10.00">_PDF_EF.cpp</text>
</a>
</g>
</g>
<!-- Node3&#45;&gt;Node9 -->
<g id="edge8" class="edge">
<title>Node3&#45;&gt;Node9</title>
<path fill="none" stroke="midnightblue" d="M335.5,-124.11C335.5,-115.15 335.5,-105.32 335.5,-97.58"/>
<polygon fill="midnightblue" stroke="midnightblue" points="332,-124.4 335.5,-134.4 339,-124.4 332,-124.4"/>
</g>
<!-- Node6 -->
<g id="node6" class="node">
<title>Node6</title>
<g id="a_node6"><a xlink:href="Op__Conv__SUPG__EF_8cpp.html" target="_top" xlink:title=" ">
<polygon fill="white" stroke="black" points="137,-0.5 137,-30.5 256,-30.5 256,-0.5 137,-0.5"/>
<text text-anchor="start" x="145" y="-18.5" font-family="Helvetica,sans-Serif" font-size="10.00">src/EF/Operateurs/Op</text>
<text text-anchor="middle" x="196.5" y="-7.5" font-family="Helvetica,sans-Serif" font-size="10.00">_Conv_SUPG_EF.cpp</text>
</a>
</g>
</g>
<!-- Node5&#45;&gt;Node6 -->
<g id="edge5" class="edge">
<title>Node5&#45;&gt;Node6</title>
<path fill="none" stroke="midnightblue" d="M196.5,-57.11C196.5,-48.15 196.5,-38.32 196.5,-30.58"/>
<polygon fill="midnightblue" stroke="midnightblue" points="193,-57.4 196.5,-67.4 200,-57.4 193,-57.4"/>
</g>
<!-- Node11&#45;&gt;Node3 -->
<g id="edge11" class="edge">
<title>Node11&#45;&gt;Node3</title>
<path fill="none" stroke="midnightblue" d="M405.79,-195.73C390.16,-185.68 371.53,-173.68 357.37,-164.58"/>
<polygon fill="midnightblue" stroke="midnightblue" points="404.28,-198.93 414.58,-201.4 408.07,-193.04 404.28,-198.93"/>
</g>
<!-- Node11&#45;&gt;Node7 -->
<g id="edge12" class="edge">
<title>Node11&#45;&gt;Node7</title>
<path fill="none" stroke="midnightblue" d="M443.34,-191.75C451.24,-164.29 464,-119.99 470.46,-97.52"/>
<polygon fill="midnightblue" stroke="midnightblue" points="439.97,-190.8 440.57,-201.37 446.7,-192.73 439.97,-190.8"/>
</g>
<!-- Node12&#45;&gt;Node11 -->
<g id="edge14" class="edge">
<title>Node12&#45;&gt;Node11</title>
<path fill="none" stroke="midnightblue" d="M534.49,-263.99C512.78,-253.69 486.17,-241.07 466.17,-231.58"/>
<polygon fill="midnightblue" stroke="midnightblue" points="533.24,-267.27 543.77,-268.4 536.24,-260.95 533.24,-267.27"/>
</g>
<!-- Node13 -->
<g id="node13" class="node">
<title>Node13</title>
<g id="a_node13"><a xlink:href="Op__Diff__EF__base_8cpp.html" target="_top" xlink:title=" ">
<polygon fill="white" stroke="black" points="651,-201.5 651,-231.5 770,-231.5 770,-201.5 651,-201.5"/>
<text text-anchor="start" x="659" y="-219.5" font-family="Helvetica,sans-Serif" font-size="10.00">src/EF/Operateurs/Op</text>
<text text-anchor="middle" x="710.5" y="-208.5" font-family="Helvetica,sans-Serif" font-size="10.00">_Diff_EF_base.cpp</text>
</a>
</g>
</g>
<!-- Node12&#45;&gt;Node13 -->
<g id="edge15" class="edge">
<title>Node12&#45;&gt;Node13</title>
<path fill="none" stroke="midnightblue" d="M612.51,-263.99C634.22,-253.69 660.83,-241.07 680.83,-231.58"/>
<polygon fill="midnightblue" stroke="midnightblue" points="610.76,-260.95 603.23,-268.4 613.76,-267.27 610.76,-260.95"/>
</g>
<!-- Node14 -->
<g id="node14" class="node">
<title>Node14</title>
<g id="a_node14"><a xlink:href="Op__Dift__EF__base_8h.html" target="_top" xlink:title=" ">
<polygon fill="white" stroke="black" points="514,-201.5 514,-231.5 633,-231.5 633,-201.5 514,-201.5"/>
<text text-anchor="start" x="522" y="-219.5" font-family="Helvetica,sans-Serif" font-size="10.00">src/EF/Operateurs/Op</text>
<text text-anchor="middle" x="573.5" y="-208.5" font-family="Helvetica,sans-Serif" font-size="10.00">_Dift_EF_base.h</text>
</a>
</g>
</g>
<!-- Node12&#45;&gt;Node14 -->
<g id="edge16" class="edge">
<title>Node12&#45;&gt;Node14</title>
<path fill="none" stroke="midnightblue" d="M573.5,-258.11C573.5,-249.15 573.5,-239.32 573.5,-231.58"/>
<polygon fill="midnightblue" stroke="midnightblue" points="570,-258.4 573.5,-268.4 577,-258.4 570,-258.4"/>
</g>
<!-- Node14&#45;&gt;Node15 -->
<g id="edge17" class="edge">
<title>Node14&#45;&gt;Node15</title>
<path fill="none" stroke="midnightblue" d="M609.34,-196.71C628.89,-186.46 652.7,-173.98 670.65,-164.58"/>
<polygon fill="midnightblue" stroke="midnightblue" points="607.64,-193.65 600.41,-201.4 610.89,-199.85 607.64,-193.65"/>
</g>
<!-- Node16 -->
<g id="node16" class="node">
<title>Node16</title>
<g id="a_node16"><a xlink:href="Op__Dift__EF__base_8cpp.html" target="_top" xlink:title=" ">
<polygon fill="white" stroke="black" points="501,-134.5 501,-164.5 620,-164.5 620,-134.5 501,-134.5"/>
<text text-anchor="start" x="509" y="-152.5" font-family="Helvetica,sans-Serif" font-size="10.00">src/EF/Operateurs/Op</text>
<text text-anchor="middle" x="560.5" y="-141.5" font-family="Helvetica,sans-Serif" font-size="10.00">_Dift_EF_base.cpp</text>
</a>
</g>
</g>
<!-- Node14&#45;&gt;Node16 -->
<g id="edge19" class="edge">
<title>Node14&#45;&gt;Node16</title>
<path fill="none" stroke="midnightblue" d="M568.68,-191.4C566.87,-182.37 564.88,-172.41 563.32,-164.58"/>
<polygon fill="midnightblue" stroke="midnightblue" points="565.29,-192.28 570.68,-201.4 572.15,-190.9 565.29,-192.28"/>
</g>
<!-- Node15&#45;&gt;Node8 -->
<g id="edge18" class="edge">
<title>Node15&#45;&gt;Node8</title>
<path fill="none" stroke="midnightblue" d="M682.53,-125.87C676.3,-116.46 669.27,-105.83 663.81,-97.58"/>
<polygon fill="midnightblue" stroke="midnightblue" points="679.73,-127.99 688.17,-134.4 685.57,-124.12 679.73,-127.99"/>
</g>
</g>
</svg>
