<?xml version="1.0" encoding="UTF-8" standalone="no"?>
<!DOCTYPE svg PUBLIC "-//W3C//DTD SVG 1.1//EN"
 "http://www.w3.org/Graphics/SVG/1.1/DTD/svg11.dtd">
<!-- Generated by graphviz version 2.43.0 (0)
 -->
<!-- Title: src/Kernel/Operateurs/Operateur_negligeable.h Pages: 1 -->
<svg width="1883pt" height="206pt"
 viewBox="0.00 0.00 1883.00 206.00" xmlns="http://www.w3.org/2000/svg" xmlns:xlink="http://www.w3.org/1999/xlink">
<g id="graph0" class="graph" transform="scale(1 1) rotate(0) translate(4 202)">
<title>src/Kernel/Operateurs/Operateur_negligeable.h</title>
<polygon fill="white" stroke="transparent" points="-4,4 -4,-202 1879,-202 1879,4 -4,4"/>
<!-- Node1 -->
<g id="node1" class="node">
<title>Node1</title>
<g id="a_node1"><a xlink:title=" ">
<polygon fill="#bfbfbf" stroke="black" points="1130,-167.5 1130,-197.5 1270,-197.5 1270,-167.5 1130,-167.5"/>
<text text-anchor="start" x="1138" y="-185.5" font-family="Helvetica,sans-Serif" font-size="10.00">src/Kernel/Operateurs</text>
<text text-anchor="middle" x="1200" y="-174.5" font-family="Helvetica,sans-Serif" font-size="10.00">/Operateur_negligeable.h</text>
</a>
</g>
</g>
<!-- Node2 -->
<g id="node2" class="node">
<title>Node2</title>
<g id="a_node2"><a xlink:href="Op__Conv__negligeable_8h.html" target="_top" xlink:title=" ">
<polygon fill="white" stroke="black" points="778,-100.5 778,-130.5 912,-130.5 912,-100.5 778,-100.5"/>
<text text-anchor="start" x="786" y="-118.5" font-family="Helvetica,sans-Serif" font-size="10.00">src/Kernel/Operateurs</text>
<text text-anchor="middle" x="845" y="-107.5" font-family="Helvetica,sans-Serif" font-size="10.00">/Op_Conv_negligeable.h</text>
</a>
</g>
</g>
<!-- Node1&#45;&gt;Node2 -->
<g id="edge1" class="edge">
<title>Node1&#45;&gt;Node2</title>
<path fill="none" stroke="midnightblue" d="M1120.03,-166.86C1057.43,-155.4 971.37,-139.64 912.28,-128.82"/>
<polygon fill="midnightblue" stroke="midnightblue" points="1119.4,-170.3 1129.86,-168.66 1120.66,-163.41 1119.4,-170.3"/>
</g>
<!-- Node12 -->
<g id="node12" class="node">
<title>Node12</title>
<g id="a_node12"><a xlink:href="Op__Diff__negligeable_8h.html" target="_top" xlink:title=" ">
<polygon fill="white" stroke="black" points="1574.5,-100.5 1574.5,-130.5 1701.5,-130.5 1701.5,-100.5 1574.5,-100.5"/>
<text text-anchor="start" x="1582.5" y="-118.5" font-family="Helvetica,sans-Serif" font-size="10.00">src/Kernel/Operateurs</text>
<text text-anchor="middle" x="1638" y="-107.5" font-family="Helvetica,sans-Serif" font-size="10.00">/Op_Diff_negligeable.h</text>
</a>
</g>
</g>
<!-- Node1&#45;&gt;Node12 -->
<g id="edge11" class="edge">
<title>Node1&#45;&gt;Node12</title>
<path fill="none" stroke="midnightblue" d="M1280.45,-169.56C1365.06,-157.01 1496.48,-137.5 1574.21,-125.97"/>
<polygon fill="midnightblue" stroke="midnightblue" points="1279.75,-166.13 1270.37,-171.06 1280.78,-173.05 1279.75,-166.13"/>
</g>
<!-- Node3 -->
<g id="node3" class="node">
<title>Node3</title>
<g id="a_node3"><a xlink:href="Equation__base_8cpp.html" target="_top" xlink:title=" ">
<polygon fill="white" stroke="black" points="0,-17 0,-47 122,-47 122,-17 0,-17"/>
<text text-anchor="start" x="8" y="-35" font-family="Helvetica,sans-Serif" font-size="10.00">src/Kernel/Framework</text>
<text text-anchor="middle" x="61" y="-24" font-family="Helvetica,sans-Serif" font-size="10.00">/Equation_base.cpp</text>
</a>
</g>
</g>
<!-- Node2&#45;&gt;Node3 -->
<g id="edge2" class="edge">
<title>Node2&#45;&gt;Node3</title>
<path fill="none" stroke="midnightblue" d="M767.75,-112.4C608.75,-107.53 249.81,-93.55 131,-64 115.78,-60.21 99.72,-53.33 86.82,-47.01"/>
<polygon fill="midnightblue" stroke="midnightblue" points="767.83,-115.9 777.93,-112.71 768.04,-108.91 767.83,-115.9"/>
</g>
<!-- Node4 -->
<g id="node4" class="node">
<title>Node4</title>
<g id="a_node4"><a xlink:href="Op__Conv__negligeable_8cpp.html" target="_top" xlink:title=" ">
<polygon fill="white" stroke="black" points="140,-17 140,-47 286,-47 286,-17 140,-17"/>
<text text-anchor="start" x="148" y="-35" font-family="Helvetica,sans-Serif" font-size="10.00">src/Kernel/Operateurs</text>
<text text-anchor="middle" x="213" y="-24" font-family="Helvetica,sans-Serif" font-size="10.00">/Op_Conv_negligeable.cpp</text>
</a>
</g>
</g>
<!-- Node2&#45;&gt;Node4 -->
<g id="edge3" class="edge">
<title>Node2&#45;&gt;Node4</title>
<path fill="none" stroke="midnightblue" d="M767.52,-113.93C660.09,-111.67 460.42,-102.12 295,-64 277.8,-60.04 259.35,-53.3 244.31,-47.12"/>
<polygon fill="midnightblue" stroke="midnightblue" points="767.55,-117.43 777.62,-114.13 767.69,-110.43 767.55,-117.43"/>
</g>
<!-- Node5 -->
<g id="node5" class="node">
<title>Node5</title>
<g id="a_node5"><a xlink:href="Convection__Diffusion__Espece__Binaire__base_8cpp.html" target="_top" xlink:title=" ">
<polygon fill="white" stroke="black" points="304.5,-6 304.5,-58 477.5,-58 477.5,-6 304.5,-6"/>
<text text-anchor="start" x="312.5" y="-46" font-family="Helvetica,sans-Serif" font-size="10.00">src/ThHyd/Dilatable</text>
<text text-anchor="start" x="312.5" y="-35" font-family="Helvetica,sans-Serif" font-size="10.00">/Common/Equations/Convection</text>
<text text-anchor="start" x="312.5" y="-24" font-family="Helvetica,sans-Serif" font-size="10.00">_Diffusion_Espece_Binaire</text>
<text text-anchor="middle" x="391" y="-13" font-family="Helvetica,sans-Serif" font-size="10.00">_base.cpp</text>
</a>
</g>
</g>
<!-- Node2&#45;&gt;Node5 -->
<g id="edge4" class="edge">
<title>Node2&#45;&gt;Node5</title>
<path fill="none" stroke="midnightblue" d="M767.8,-107.6C694.61,-100.13 581.9,-86.21 486,-64 478.56,-62.28 470.88,-60.23 463.25,-58.02"/>
<polygon fill="midnightblue" stroke="midnightblue" points="767.56,-111.09 777.86,-108.61 768.26,-104.13 767.56,-111.09"/>
</g>
<!-- Node6 -->
<g id="node6" class="node">
<title>Node6</title>
<g id="a_node6"><a xlink:href="Convection__Diffusion__Fluide__Dilatable__Proto_8cpp.html" target="_top" xlink:title=" ">
<polygon fill="white" stroke="black" points="495.5,-6 495.5,-58 668.5,-58 668.5,-6 495.5,-6"/>
<text text-anchor="start" x="503.5" y="-46" font-family="Helvetica,sans-Serif" font-size="10.00">src/ThHyd/Dilatable</text>
<text text-anchor="start" x="503.5" y="-35" font-family="Helvetica,sans-Serif" font-size="10.00">/Common/Equations/Convection</text>
<text text-anchor="start" x="503.5" y="-24" font-family="Helvetica,sans-Serif" font-size="10.00">_Diffusion_Fluide_Dilatable</text>
<text text-anchor="middle" x="582" y="-13" font-family="Helvetica,sans-Serif" font-size="10.00">_Proto.cpp</text>
</a>
</g>
</g>
<!-- Node2&#45;&gt;Node6 -->
<g id="edge5" class="edge">
<title>Node2&#45;&gt;Node6</title>
<path fill="none" stroke="midnightblue" d="M788.05,-97.57C755.73,-87.88 714.55,-75.43 678,-64 671.9,-62.09 665.59,-60.1 659.25,-58.08"/>
<polygon fill="midnightblue" stroke="midnightblue" points="787.2,-100.96 797.78,-100.48 789.2,-94.26 787.2,-100.96"/>
</g>
<!-- Node7 -->
<g id="node7" class="node">
<title>Node7</title>
<g id="a_node7"><a xlink:href="Convection__Diffusion__Chaleur__QC_8cpp.html" target="_top" xlink:title=" ">
<polygon fill="white" stroke="black" points="687,-6 687,-58 835,-58 835,-6 687,-6"/>
<text text-anchor="start" x="695" y="-46" font-family="Helvetica,sans-Serif" font-size="10.00">src/ThHyd/Dilatable</text>
<text text-anchor="start" x="695" y="-35" font-family="Helvetica,sans-Serif" font-size="10.00">/Quasi_Compressible</text>
<text text-anchor="start" x="695" y="-24" font-family="Helvetica,sans-Serif" font-size="10.00">/Equations/Convection</text>
<text text-anchor="middle" x="761" y="-13" font-family="Helvetica,sans-Serif" font-size="10.00">_Diffusion_Chaleur_QC.cpp</text>
</a>
</g>
</g>
<!-- Node2&#45;&gt;Node7 -->
<g id="edge6" class="edge">
<title>Node2&#45;&gt;Node7</title>
<path fill="none" stroke="midnightblue" d="M823.15,-93.3C812.09,-82.57 798.59,-69.47 787,-58.22"/>
<polygon fill="midnightblue" stroke="midnightblue" points="820.75,-95.85 830.37,-100.3 825.63,-90.83 820.75,-95.85"/>
</g>
<!-- Node8 -->
<g id="node8" class="node">
<title>Node8</title>
<g id="a_node8"><a xlink:href="Convection__Diffusion__Chaleur__WC_8cpp.html" target="_top" xlink:title=" ">
<polygon fill="white" stroke="black" points="853,-6 853,-58 1003,-58 1003,-6 853,-6"/>
<text text-anchor="start" x="861" y="-46" font-family="Helvetica,sans-Serif" font-size="10.00">src/ThHyd/Dilatable</text>
<text text-anchor="start" x="861" y="-35" font-family="Helvetica,sans-Serif" font-size="10.00">/Weakly_Compressible</text>
<text text-anchor="start" x="861" y="-24" font-family="Helvetica,sans-Serif" font-size="10.00">/Equations/Convection</text>
<text text-anchor="middle" x="928" y="-13" font-family="Helvetica,sans-Serif" font-size="10.00">_Diffusion_Chaleur_WC.cpp</text>
</a>
</g>
</g>
<!-- Node2&#45;&gt;Node8 -->
<g id="edge7" class="edge">
<title>Node2&#45;&gt;Node8</title>
<path fill="none" stroke="midnightblue" d="M866.9,-92.99C877.77,-82.32 890.97,-69.36 902.31,-58.22"/>
<polygon fill="midnightblue" stroke="midnightblue" points="864.14,-90.8 859.46,-100.3 869.04,-95.79 864.14,-90.8"/>
</g>
<!-- Node9 -->
<g id="node9" class="node">
<title>Node9</title>
<g id="a_node9"><a xlink:href="Convection__Diffusion__Espece__Multi__WC_8cpp.html" target="_top" xlink:title=" ">
<polygon fill="white" stroke="black" points="1021.5,-0.5 1021.5,-63.5 1156.5,-63.5 1156.5,-0.5 1021.5,-0.5"/>
<text text-anchor="start" x="1029.5" y="-51.5" font-family="Helvetica,sans-Serif" font-size="10.00">src/ThHyd/Dilatable</text>
<text text-anchor="start" x="1029.5" y="-40.5" font-family="Helvetica,sans-Serif" font-size="10.00">/Weakly_Compressible</text>
<text text-anchor="start" x="1029.5" y="-29.5" font-family="Helvetica,sans-Serif" font-size="10.00">/Equations/Convection</text>
<text text-anchor="start" x="1029.5" y="-18.5" font-family="Helvetica,sans-Serif" font-size="10.00">_Diffusion_Espece_Multi</text>
<text text-anchor="middle" x="1089" y="-7.5" font-family="Helvetica,sans-Serif" font-size="10.00">_WC.cpp</text>
</a>
</g>
</g>
<!-- Node2&#45;&gt;Node9 -->
<g id="edge8" class="edge">
<title>Node2&#45;&gt;Node9</title>
<path fill="none" stroke="midnightblue" d="M905.44,-97.63C937.36,-88.37 977.04,-76.3 1012,-64 1014.99,-62.95 1018.04,-61.85 1021.1,-60.72"/>
<polygon fill="midnightblue" stroke="midnightblue" points="904.44,-94.28 895.8,-100.41 906.38,-101 904.44,-94.28"/>
</g>
<!-- Node10 -->
<g id="node10" class="node">
<title>Node10</title>
<g id="a_node10"><a xlink:href="Aire__interfaciale_8cpp.html" target="_top" xlink:title=" ">
<polygon fill="white" stroke="black" points="1174.5,-17 1174.5,-47 1345.5,-47 1345.5,-17 1174.5,-17"/>
<text text-anchor="start" x="1182.5" y="-35" font-family="Helvetica,sans-Serif" font-size="10.00">src/ThHyd/Multiphase</text>
<text text-anchor="middle" x="1260" y="-24" font-family="Helvetica,sans-Serif" font-size="10.00">/Equations/Aire_interfaciale.cpp</text>
</a>
</g>
</g>
<!-- Node2&#45;&gt;Node10 -->
<g id="edge9" class="edge">
<title>Node2&#45;&gt;Node10</title>
<path fill="none" stroke="midnightblue" d="M922.31,-105.8C987.54,-97.62 1083.12,-83.69 1165,-64 1183.89,-59.46 1204.44,-52.96 1221.57,-47.08"/>
<polygon fill="midnightblue" stroke="midnightblue" points="921.6,-102.36 912.1,-107.06 922.46,-109.31 921.6,-102.36"/>
</g>
<!-- Node11 -->
<g id="node11" class="node">
<title>Node11</title>
<g id="a_node11"><a xlink:href="Energie__Multiphase_8cpp.html" target="_top" xlink:title=" ">
<polygon fill="white" stroke="black" points="1363.5,-17 1363.5,-47 1550.5,-47 1550.5,-17 1363.5,-17"/>
<text text-anchor="start" x="1371.5" y="-35" font-family="Helvetica,sans-Serif" font-size="10.00">src/ThHyd/Multiphase</text>
<text text-anchor="middle" x="1457" y="-24" font-family="Helvetica,sans-Serif" font-size="10.00">/Equations/Energie_Multiphase.cpp</text>
</a>
</g>
</g>
<!-- Node2&#45;&gt;Node11 -->
<g id="edge10" class="edge">
<title>Node2&#45;&gt;Node11</title>
<path fill="none" stroke="midnightblue" d="M922.36,-111.48C1022.71,-106.5 1202.83,-93.95 1354,-64 1375.07,-59.83 1397.99,-53.15 1416.85,-47.05"/>
<polygon fill="midnightblue" stroke="midnightblue" points="922.12,-107.99 912.31,-111.97 922.46,-114.98 922.12,-107.99"/>
</g>
<!-- Node13 -->
<g id="node13" class="node">
<title>Node13</title>
<g id="a_node13"><a xlink:href="Op__Diff__negligeable_8cpp.html" target="_top" xlink:title=" ">
<polygon fill="white" stroke="black" points="1569,-17 1569,-47 1707,-47 1707,-17 1569,-17"/>
<text text-anchor="start" x="1577" y="-35" font-family="Helvetica,sans-Serif" font-size="10.00">src/Kernel/Operateurs</text>
<text text-anchor="middle" x="1638" y="-24" font-family="Helvetica,sans-Serif" font-size="10.00">/Op_Diff_negligeable.cpp</text>
</a>
</g>
</g>
<!-- Node12&#45;&gt;Node13 -->
<g id="edge12" class="edge">
<title>Node12&#45;&gt;Node13</title>
<path fill="none" stroke="midnightblue" d="M1638,-90.28C1638,-76.18 1638,-58.9 1638,-47.03"/>
<polygon fill="midnightblue" stroke="midnightblue" points="1634.5,-90.3 1638,-100.3 1641.5,-90.3 1634.5,-90.3"/>
</g>
<!-- Node14 -->
<g id="node14" class="node">
<title>Node14</title>
<g id="a_node14"><a xlink:href="Masse__PolyMAC__Elem_8cpp.html" target="_top" xlink:title=" ">
<polygon fill="white" stroke="black" points="1725,-17 1725,-47 1875,-47 1875,-17 1725,-17"/>
<text text-anchor="start" x="1733" y="-35" font-family="Helvetica,sans-Serif" font-size="10.00">src/PolyMAC/Solveurs</text>
<text text-anchor="middle" x="1800" y="-24" font-family="Helvetica,sans-Serif" font-size="10.00">/Masse_PolyMAC_Elem.cpp</text>
</a>
</g>
</g>
<!-- Node12&#45;&gt;Node14 -->
<g id="edge13" class="edge">
<title>Node12&#45;&gt;Node14</title>
<path fill="none" stroke="midnightblue" d="M1675,-95.89C1704.48,-81.05 1745.14,-60.6 1771.97,-47.1"/>
<polygon fill="midnightblue" stroke="midnightblue" points="1673.21,-92.87 1665.85,-100.49 1676.36,-99.12 1673.21,-92.87"/>
</g>
</g>
</svg>
