<?xml version="1.0" encoding="UTF-8" standalone="no"?>
<!DOCTYPE svg PUBLIC "-//W3C//DTD SVG 1.1//EN"
 "http://www.w3.org/Graphics/SVG/1.1/DTD/svg11.dtd">
<!-- Generated by graphviz version 2.43.0 (0)
 -->
<!-- Title: src/Kernel/Solveurs/Parametre_diffusion_implicite.h Pages: 1 -->
<svg width="266pt" height="128pt"
 viewBox="0.00 0.00 265.50 128.00" xmlns="http://www.w3.org/2000/svg" xmlns:xlink="http://www.w3.org/1999/xlink">
<g id="graph0" class="graph" transform="scale(1 1) rotate(0) translate(4 124)">
<title>src/Kernel/Solveurs/Parametre_diffusion_implicite.h</title>
<polygon fill="white" stroke="transparent" points="-4,4 -4,-124 261.5,-124 261.5,4 -4,4"/>
<!-- Node1 -->
<g id="node1" class="node">
<title>Node1</title>
<g id="a_node1"><a xlink:title=" ">
<polygon fill="#bfbfbf" stroke="black" points="71.5,-78.5 71.5,-119.5 188.5,-119.5 188.5,-78.5 71.5,-78.5"/>
<text text-anchor="start" x="79.5" y="-107.5" font-family="Helvetica,sans-Serif" font-size="10.00">src/Kernel/Solveurs</text>
<text text-anchor="start" x="79.5" y="-96.5" font-family="Helvetica,sans-Serif" font-size="10.00">/Parametre_diffusion</text>
<text text-anchor="middle" x="130" y="-85.5" font-family="Helvetica,sans-Serif" font-size="10.00">_implicite.h</text>
</a>
</g>
</g>
<!-- Node2 -->
<g id="node2" class="node">
<title>Node2</title>
<g id="a_node2"><a xlink:href="Equation__base_8cpp.html" target="_top" xlink:title=" ">
<polygon fill="white" stroke="black" points="0,-6 0,-36 122,-36 122,-6 0,-6"/>
<text text-anchor="start" x="8" y="-24" font-family="Helvetica,sans-Serif" font-size="10.00">src/Kernel/Framework</text>
<text text-anchor="middle" x="61" y="-13" font-family="Helvetica,sans-Serif" font-size="10.00">/Equation_base.cpp</text>
</a>
</g>
</g>
<!-- Node1&#45;&gt;Node2 -->
<g id="edge1" class="edge">
<title>Node1&#45;&gt;Node2</title>
<path fill="none" stroke="midnightblue" d="M105.48,-70.99C94.82,-59.25 82.78,-45.99 73.92,-36.23"/>
<polygon fill="midnightblue" stroke="midnightblue" points="102.92,-73.38 112.23,-78.43 108.1,-68.67 102.92,-73.38"/>
</g>
<!-- Node3 -->
<g id="node3" class="node">
<title>Node3</title>
<g id="a_node3"><a xlink:href="Parametre__diffusion__implicite_8cpp.html" target="_top" xlink:title=" ">
<polygon fill="white" stroke="black" points="140.5,-0.5 140.5,-41.5 257.5,-41.5 257.5,-0.5 140.5,-0.5"/>
<text text-anchor="start" x="148.5" y="-29.5" font-family="Helvetica,sans-Serif" font-size="10.00">src/Kernel/Solveurs</text>
<text text-anchor="start" x="148.5" y="-18.5" font-family="Helvetica,sans-Serif" font-size="10.00">/Parametre_diffusion</text>
<text text-anchor="middle" x="199" y="-7.5" font-family="Helvetica,sans-Serif" font-size="10.00">_implicite.cpp</text>
</a>
</g>
</g>
<!-- Node1&#45;&gt;Node3 -->
<g id="edge2" class="edge">
<title>Node1&#45;&gt;Node3</title>
<path fill="none" stroke="midnightblue" d="M154.59,-70.92C163.41,-61.2 173.17,-50.45 181.29,-41.51"/>
<polygon fill="midnightblue" stroke="midnightblue" points="151.9,-68.67 147.77,-78.43 157.08,-73.38 151.9,-68.67"/>
</g>
</g>
</svg>
