<?xml version="1.0" encoding="UTF-8" standalone="no"?>
<!DOCTYPE svg PUBLIC "-//W3C//DTD SVG 1.1//EN"
 "http://www.w3.org/Graphics/SVG/1.1/DTD/svg11.dtd">
<!-- Generated by graphviz version 2.43.0 (0)
 -->
<!-- Title: src/Kernel/Geometrie/Decoupeur/Partitionneur_Tranche.h Pages: 1 -->
<svg width="756pt" height="890pt"
 viewBox="0.00 0.00 756.00 890.00" xmlns="http://www.w3.org/2000/svg" xmlns:xlink="http://www.w3.org/1999/xlink">
<g id="graph0" class="graph" transform="scale(1 1) rotate(0) translate(4 886)">
<title>src/Kernel/Geometrie/Decoupeur/Partitionneur_Tranche.h</title>
<polygon fill="white" stroke="transparent" points="-4,4 -4,-886 752,-886 752,4 -4,4"/>
<!-- Node1 -->
<g id="node1" class="node">
<title>Node1</title>
<g id="a_node1"><a xlink:title=" ">
<polygon fill="#bfbfbf" stroke="black" points="320.5,-840.5 320.5,-881.5 457.5,-881.5 457.5,-840.5 320.5,-840.5"/>
<text text-anchor="start" x="328.5" y="-869.5" font-family="Helvetica,sans-Serif" font-size="10.00">src/Kernel/Geometrie</text>
<text text-anchor="start" x="328.5" y="-858.5" font-family="Helvetica,sans-Serif" font-size="10.00">/Decoupeur/Partitionneur</text>
<text text-anchor="middle" x="389" y="-847.5" font-family="Helvetica,sans-Serif" font-size="10.00">_Tranche.h</text>
</a>
</g>
</g>
<!-- Node2 -->
<g id="node2" class="node">
<title>Node2</title>
<g id="a_node2"><a xlink:href="Partitionneur__base_8h.html" target="_top" xlink:title=" ">
<polygon fill="white" stroke="black" points="418,-784.5 418,-803.5 534,-803.5 534,-784.5 418,-784.5"/>
<text text-anchor="middle" x="476" y="-791.5" font-family="Helvetica,sans-Serif" font-size="10.00">Partitionneur_base.h</text>
</a>
</g>
</g>
<!-- Node1&#45;&gt;Node2 -->
<g id="edge1" class="edge">
<title>Node1&#45;&gt;Node2</title>
<path fill="none" stroke="midnightblue" d="M415.1,-840.5C428.31,-830.63 444.09,-818.84 456.27,-809.74"/>
<polygon fill="midnightblue" stroke="midnightblue" points="458.5,-812.44 464.42,-803.65 454.31,-806.83 458.5,-812.44"/>
</g>
<!-- Node3 -->
<g id="node3" class="node">
<title>Node3</title>
<g id="a_node3"><a xlink:href="TRUSTTabs__forward_8h.html" target="_top" xlink:title=" ">
<polygon fill="white" stroke="black" points="328,-728.5 328,-747.5 450,-747.5 450,-728.5 328,-728.5"/>
<text text-anchor="middle" x="389" y="-735.5" font-family="Helvetica,sans-Serif" font-size="10.00">TRUSTTabs_forward.h</text>
</a>
</g>
</g>
<!-- Node1&#45;&gt;Node3 -->
<g id="edge45" class="edge">
<title>Node1&#45;&gt;Node3</title>
<path fill="none" stroke="midnightblue" d="M389,-840.29C389,-817.48 389,-780.19 389,-757.78"/>
<polygon fill="midnightblue" stroke="midnightblue" points="392.5,-757.57 389,-747.57 385.5,-757.57 392.5,-757.57"/>
</g>
<!-- Node33 -->
<g id="node33" class="node">
<title>Node33</title>
<g id="a_node33"><a xlink:href="Ref__Domaine_8h.html" target="_top" xlink:title=" ">
<polygon fill="white" stroke="black" points="262,-784.5 262,-803.5 354,-803.5 354,-784.5 262,-784.5"/>
<text text-anchor="middle" x="308" y="-791.5" font-family="Helvetica,sans-Serif" font-size="10.00">Ref_Domaine.h</text>
</a>
</g>
</g>
<!-- Node1&#45;&gt;Node33 -->
<g id="edge46" class="edge">
<title>Node1&#45;&gt;Node33</title>
<path fill="none" stroke="midnightblue" d="M364.7,-840.5C352.52,-830.72 338,-819.07 326.7,-810.01"/>
<polygon fill="midnightblue" stroke="midnightblue" points="328.77,-807.18 318.78,-803.65 324.39,-812.64 328.77,-807.18"/>
</g>
<!-- Node2&#45;&gt;Node3 -->
<g id="edge2" class="edge">
<title>Node2&#45;&gt;Node3</title>
<path fill="none" stroke="midnightblue" d="M462.02,-784.32C448.45,-775.9 427.62,-762.97 411.68,-753.07"/>
<polygon fill="midnightblue" stroke="midnightblue" points="413.29,-749.95 402.94,-747.65 409.59,-755.9 413.29,-749.95"/>
</g>
<!-- Node4 -->
<g id="node4" class="node">
<title>Node4</title>
<g id="a_node4"><a xlink:href="Deriv_8h.html" target="_top" xlink:title=" ">
<polygon fill="white" stroke="black" points="457.5,-448.5 457.5,-467.5 508.5,-467.5 508.5,-448.5 457.5,-448.5"/>
<text text-anchor="middle" x="483" y="-455.5" font-family="Helvetica,sans-Serif" font-size="10.00">Deriv.h</text>
</a>
</g>
</g>
<!-- Node2&#45;&gt;Node4 -->
<g id="edge3" class="edge">
<title>Node2&#45;&gt;Node4</title>
<path fill="none" stroke="midnightblue" d="M476.26,-784.44C476.8,-765.94 478,-720.82 478,-683 478,-683 478,-683 478,-569 478,-536.91 480.15,-499.62 481.63,-477.74"/>
<polygon fill="midnightblue" stroke="midnightblue" points="485.14,-477.77 482.35,-467.55 478.15,-477.28 485.14,-477.77"/>
</g>
<!-- Node26 -->
<g id="node26" class="node">
<title>Node26</title>
<g id="a_node26"><a xlink:href="Noms_8h.html" target="_top" xlink:title=" ">
<polygon fill="white" stroke="black" points="509,-728.5 509,-747.5 563,-747.5 563,-728.5 509,-728.5"/>
<text text-anchor="middle" x="536" y="-735.5" font-family="Helvetica,sans-Serif" font-size="10.00">Noms.h</text>
</a>
</g>
</g>
<!-- Node2&#45;&gt;Node26 -->
<g id="edge31" class="edge">
<title>Node2&#45;&gt;Node26</title>
<path fill="none" stroke="midnightblue" d="M485.64,-784.32C494.51,-776.34 507.87,-764.31 518.61,-754.65"/>
<polygon fill="midnightblue" stroke="midnightblue" points="521.09,-757.13 526.18,-747.83 516.41,-751.92 521.09,-757.13"/>
</g>
<!-- Node5 -->
<g id="node5" class="node">
<title>Node5</title>
<g id="a_node5"><a xlink:href="MacDeriv_8h.html" target="_top" xlink:title=" ">
<polygon fill="white" stroke="black" points="447.5,-392.5 447.5,-411.5 518.5,-411.5 518.5,-392.5 447.5,-392.5"/>
<text text-anchor="middle" x="483" y="-399.5" font-family="Helvetica,sans-Serif" font-size="10.00">MacDeriv.h</text>
</a>
</g>
</g>
<!-- Node4&#45;&gt;Node5 -->
<g id="edge4" class="edge">
<title>Node4&#45;&gt;Node5</title>
<path fill="none" stroke="midnightblue" d="M483,-448.08C483,-441.01 483,-430.86 483,-421.99"/>
<polygon fill="midnightblue" stroke="midnightblue" points="486.5,-421.75 483,-411.75 479.5,-421.75 486.5,-421.75"/>
</g>
<!-- Node6 -->
<g id="node6" class="node">
<title>Node6</title>
<g id="a_node6"><a xlink:href="Deriv___8h.html" target="_top" xlink:title=" ">
<polygon fill="white" stroke="black" points="454.5,-336.5 454.5,-355.5 511.5,-355.5 511.5,-336.5 454.5,-336.5"/>
<text text-anchor="middle" x="483" y="-343.5" font-family="Helvetica,sans-Serif" font-size="10.00">Deriv_.h</text>
</a>
</g>
</g>
<!-- Node5&#45;&gt;Node6 -->
<g id="edge5" class="edge">
<title>Node5&#45;&gt;Node6</title>
<path fill="none" stroke="midnightblue" d="M483,-392.08C483,-385.01 483,-374.86 483,-365.99"/>
<polygon fill="midnightblue" stroke="midnightblue" points="486.5,-365.75 483,-355.75 479.5,-365.75 486.5,-365.75"/>
</g>
<!-- Node7 -->
<g id="node7" class="node">
<title>Node7</title>
<g id="a_node7"><a xlink:href="O__U__Ptr_8h.html" target="_top" xlink:title=" ">
<polygon fill="white" stroke="black" points="451,-280.5 451,-299.5 515,-299.5 515,-280.5 451,-280.5"/>
<text text-anchor="middle" x="483" y="-287.5" font-family="Helvetica,sans-Serif" font-size="10.00">O_U_Ptr.h</text>
</a>
</g>
</g>
<!-- Node6&#45;&gt;Node7 -->
<g id="edge6" class="edge">
<title>Node6&#45;&gt;Node7</title>
<path fill="none" stroke="midnightblue" d="M483,-336.08C483,-329.01 483,-318.86 483,-309.99"/>
<polygon fill="midnightblue" stroke="midnightblue" points="486.5,-309.75 483,-299.75 479.5,-309.75 486.5,-309.75"/>
</g>
<!-- Node8 -->
<g id="node8" class="node">
<title>Node8</title>
<g id="a_node8"><a xlink:href="Objet__U_8h.html" target="_top" xlink:title=" ">
<polygon fill="white" stroke="black" points="450.5,-224.5 450.5,-243.5 515.5,-243.5 515.5,-224.5 450.5,-224.5"/>
<text text-anchor="middle" x="483" y="-231.5" font-family="Helvetica,sans-Serif" font-size="10.00">Objet_U.h</text>
</a>
</g>
</g>
<!-- Node7&#45;&gt;Node8 -->
<g id="edge7" class="edge">
<title>Node7&#45;&gt;Node8</title>
<path fill="none" stroke="midnightblue" d="M483,-280.08C483,-273.01 483,-262.86 483,-253.99"/>
<polygon fill="midnightblue" stroke="midnightblue" points="486.5,-253.75 483,-243.75 479.5,-253.75 486.5,-253.75"/>
</g>
<!-- Node9 -->
<g id="node9" class="node">
<title>Node9</title>
<g id="a_node9"><a xlink:title=" ">
<polygon fill="white" stroke="#bfbfbf" points="606,-56.5 606,-75.5 662,-75.5 662,-56.5 606,-56.5"/>
<text text-anchor="middle" x="634" y="-63.5" font-family="Helvetica,sans-Serif" font-size="10.00">assert.h</text>
</a>
</g>
</g>
<!-- Node8&#45;&gt;Node9 -->
<g id="edge8" class="edge">
<title>Node8&#45;&gt;Node9</title>
<path fill="none" stroke="midnightblue" d="M500.4,-224.4C528.72,-209.52 584.65,-176.27 615,-132 624.45,-118.21 629.27,-99.69 631.68,-85.94"/>
<polygon fill="midnightblue" stroke="midnightblue" points="635.19,-86.13 633.19,-75.73 628.26,-85.11 635.19,-86.13"/>
</g>
<!-- Node10 -->
<g id="node10" class="node">
<title>Node10</title>
<g id="a_node10"><a xlink:href="DecBaseInst_8h.html" target="_top" xlink:title=" ">
<polygon fill="white" stroke="black" points="135,-168.5 135,-187.5 221,-187.5 221,-168.5 135,-168.5"/>
<text text-anchor="middle" x="178" y="-175.5" font-family="Helvetica,sans-Serif" font-size="10.00">DecBaseInst.h</text>
</a>
</g>
</g>
<!-- Node8&#45;&gt;Node10 -->
<g id="edge9" class="edge">
<title>Node8&#45;&gt;Node10</title>
<path fill="none" stroke="midnightblue" d="M450.36,-227.22C397.95,-217.94 294.53,-199.63 231.3,-188.44"/>
<polygon fill="midnightblue" stroke="midnightblue" points="231.59,-184.93 221.13,-186.64 230.37,-191.83 231.59,-184.93"/>
</g>
<!-- Node15 -->
<g id="node15" class="node">
<title>Node15</title>
<g id="a_node15"><a xlink:href="EntreeSortie_8h.html" target="_top" xlink:title=" ">
<polygon fill="white" stroke="black" points="440,-168.5 440,-187.5 526,-187.5 526,-168.5 440,-168.5"/>
<text text-anchor="middle" x="483" y="-175.5" font-family="Helvetica,sans-Serif" font-size="10.00">EntreeSortie.h</text>
</a>
</g>
</g>
<!-- Node8&#45;&gt;Node15 -->
<g id="edge15" class="edge">
<title>Node8&#45;&gt;Node15</title>
<path fill="none" stroke="midnightblue" d="M483,-224.08C483,-217.01 483,-206.86 483,-197.99"/>
<polygon fill="midnightblue" stroke="midnightblue" points="486.5,-197.75 483,-187.75 479.5,-197.75 486.5,-197.75"/>
</g>
<!-- Node20 -->
<g id="node20" class="node">
<title>Node20</title>
<g id="a_node20"><a xlink:href="Process_8h.html" target="_top" xlink:title=" ">
<polygon fill="white" stroke="black" points="238.5,-56.5 238.5,-75.5 301.5,-75.5 301.5,-56.5 238.5,-56.5"/>
<text text-anchor="middle" x="270" y="-63.5" font-family="Helvetica,sans-Serif" font-size="10.00">Process.h</text>
</a>
</g>
</g>
<!-- Node8&#45;&gt;Node20 -->
<g id="edge30" class="edge">
<title>Node8&#45;&gt;Node20</title>
<path fill="none" stroke="midnightblue" d="M472.62,-224.28C448.48,-204.07 386.56,-152.67 333,-112 319.22,-101.53 303.36,-90.21 291.01,-81.54"/>
<polygon fill="midnightblue" stroke="midnightblue" points="292.91,-78.6 282.71,-75.75 288.9,-84.34 292.91,-78.6"/>
</g>
<!-- Node11 -->
<g id="node11" class="node">
<title>Node11</title>
<g id="a_node11"><a xlink:href="Cast_8h.html" target="_top" xlink:title=" ">
<polygon fill="white" stroke="black" points="55.5,-56.5 55.5,-75.5 102.5,-75.5 102.5,-56.5 55.5,-56.5"/>
<text text-anchor="middle" x="79" y="-63.5" font-family="Helvetica,sans-Serif" font-size="10.00">Cast.h</text>
</a>
</g>
</g>
<!-- Node10&#45;&gt;Node11 -->
<g id="edge10" class="edge">
<title>Node10&#45;&gt;Node11</title>
<path fill="none" stroke="midnightblue" d="M168.79,-168.27C159.51,-159.38 144.91,-145.06 133,-132 118.4,-115.99 102.68,-96.83 91.99,-83.47"/>
<polygon fill="midnightblue" stroke="midnightblue" points="94.71,-81.27 85.75,-75.63 89.23,-85.63 94.71,-81.27"/>
</g>
<!-- Node12 -->
<g id="node12" class="node">
<title>Node12</title>
<g id="a_node12"><a xlink:href="Type__info_8h.html" target="_top" xlink:title=" ">
<polygon fill="white" stroke="black" points="142,-112.5 142,-131.5 214,-131.5 214,-112.5 142,-112.5"/>
<text text-anchor="middle" x="178" y="-119.5" font-family="Helvetica,sans-Serif" font-size="10.00">Type_info.h</text>
</a>
</g>
</g>
<!-- Node10&#45;&gt;Node12 -->
<g id="edge11" class="edge">
<title>Node10&#45;&gt;Node12</title>
<path fill="none" stroke="midnightblue" d="M178,-168.08C178,-161.01 178,-150.86 178,-141.99"/>
<polygon fill="midnightblue" stroke="midnightblue" points="181.5,-141.75 178,-131.75 174.5,-141.75 181.5,-141.75"/>
</g>
<!-- Node13 -->
<g id="node13" class="node">
<title>Node13</title>
<g id="a_node13"><a xlink:href="Declare__Base_8h.html" target="_top" xlink:title=" ">
<polygon fill="white" stroke="black" points="232,-112.5 232,-131.5 324,-131.5 324,-112.5 232,-112.5"/>
<text text-anchor="middle" x="278" y="-119.5" font-family="Helvetica,sans-Serif" font-size="10.00">Declare_Base.h</text>
</a>
</g>
</g>
<!-- Node10&#45;&gt;Node13 -->
<g id="edge12" class="edge">
<title>Node10&#45;&gt;Node13</title>
<path fill="none" stroke="midnightblue" d="M194.07,-168.32C209.96,-159.74 234.51,-146.49 252.96,-136.52"/>
<polygon fill="midnightblue" stroke="midnightblue" points="254.84,-139.49 261.97,-131.65 251.51,-133.33 254.84,-139.49"/>
</g>
<!-- Node14 -->
<g id="node14" class="node">
<title>Node14</title>
<g id="a_node14"><a xlink:href="Declare__Inst_8h.html" target="_top" xlink:title=" ">
<polygon fill="white" stroke="black" points="0,-112.5 0,-131.5 86,-131.5 86,-112.5 0,-112.5"/>
<text text-anchor="middle" x="43" y="-119.5" font-family="Helvetica,sans-Serif" font-size="10.00">Declare_Inst.h</text>
</a>
</g>
</g>
<!-- Node10&#45;&gt;Node14 -->
<g id="edge13" class="edge">
<title>Node10&#45;&gt;Node14</title>
<path fill="none" stroke="midnightblue" d="M156.61,-168.44C134.29,-159.52 99.1,-145.44 73.79,-135.32"/>
<polygon fill="midnightblue" stroke="midnightblue" points="74.88,-131.98 64.29,-131.52 72.28,-138.48 74.88,-131.98"/>
</g>
<!-- Node14&#45;&gt;Node11 -->
<g id="edge14" class="edge">
<title>Node14&#45;&gt;Node11</title>
<path fill="none" stroke="midnightblue" d="M48.94,-112.08C53.98,-104.53 61.34,-93.49 67.51,-84.23"/>
<polygon fill="midnightblue" stroke="midnightblue" points="70.53,-86.01 73.17,-75.75 64.71,-82.13 70.53,-86.01"/>
</g>
<!-- Node16 -->
<g id="node16" class="node">
<title>Node16</title>
<g id="a_node16"><a xlink:href="Entree_8h.html" target="_top" xlink:title=" ">
<polygon fill="white" stroke="black" points="380.5,-112.5 380.5,-131.5 437.5,-131.5 437.5,-112.5 380.5,-112.5"/>
<text text-anchor="middle" x="409" y="-119.5" font-family="Helvetica,sans-Serif" font-size="10.00">Entree.h</text>
</a>
</g>
</g>
<!-- Node15&#45;&gt;Node16 -->
<g id="edge16" class="edge">
<title>Node15&#45;&gt;Node16</title>
<path fill="none" stroke="midnightblue" d="M471.11,-168.32C459.85,-160.11 442.71,-147.6 429.29,-137.81"/>
<polygon fill="midnightblue" stroke="midnightblue" points="431.25,-134.9 421.11,-131.83 427.12,-140.56 431.25,-134.9"/>
</g>
<!-- Node23 -->
<g id="node23" class="node">
<title>Node23</title>
<g id="a_node23"><a xlink:href="Sortie_8h.html" target="_top" xlink:title=" ">
<polygon fill="white" stroke="black" points="456,-112.5 456,-131.5 510,-131.5 510,-112.5 456,-112.5"/>
<text text-anchor="middle" x="483" y="-119.5" font-family="Helvetica,sans-Serif" font-size="10.00">Sortie.h</text>
</a>
</g>
</g>
<!-- Node15&#45;&gt;Node23 -->
<g id="edge24" class="edge">
<title>Node15&#45;&gt;Node23</title>
<path fill="none" stroke="midnightblue" d="M483,-168.08C483,-161.01 483,-150.86 483,-141.99"/>
<polygon fill="midnightblue" stroke="midnightblue" points="486.5,-141.75 483,-131.75 479.5,-141.75 486.5,-141.75"/>
</g>
<!-- Node25 -->
<g id="node25" class="node">
<title>Node25</title>
<g id="a_node25"><a xlink:href="Separateur_8h.html" target="_top" xlink:title=" ">
<polygon fill="white" stroke="black" points="528,-112.5 528,-131.5 606,-131.5 606,-112.5 528,-112.5"/>
<text text-anchor="middle" x="567" y="-119.5" font-family="Helvetica,sans-Serif" font-size="10.00">Separateur.h</text>
</a>
</g>
</g>
<!-- Node15&#45;&gt;Node25 -->
<g id="edge29" class="edge">
<title>Node15&#45;&gt;Node25</title>
<path fill="none" stroke="midnightblue" d="M496.5,-168.32C509.6,-159.9 529.71,-146.97 545.11,-137.07"/>
<polygon fill="midnightblue" stroke="midnightblue" points="547.02,-140.01 553.54,-131.65 543.23,-134.12 547.02,-140.01"/>
</g>
<!-- Node16&#45;&gt;Node9 -->
<g id="edge20" class="edge">
<title>Node16&#45;&gt;Node9</title>
<path fill="none" stroke="midnightblue" d="M437.95,-114.05C478.26,-104.38 551.33,-86.84 595.98,-76.13"/>
<polygon fill="midnightblue" stroke="midnightblue" points="596.96,-79.49 605.86,-73.75 595.32,-72.68 596.96,-79.49"/>
</g>
<!-- Node17 -->
<g id="node17" class="node">
<title>Node17</title>
<g id="a_node17"><a xlink:title=" ">
<polygon fill="white" stroke="#bfbfbf" points="384,-56.5 384,-75.5 434,-75.5 434,-56.5 384,-56.5"/>
<text text-anchor="middle" x="409" y="-63.5" font-family="Helvetica,sans-Serif" font-size="10.00">stdio.h</text>
</a>
</g>
</g>
<!-- Node16&#45;&gt;Node17 -->
<g id="edge17" class="edge">
<title>Node16&#45;&gt;Node17</title>
<path fill="none" stroke="midnightblue" d="M409,-112.08C409,-105.01 409,-94.86 409,-85.99"/>
<polygon fill="midnightblue" stroke="midnightblue" points="412.5,-85.75 409,-75.75 405.5,-85.75 412.5,-85.75"/>
</g>
<!-- Node18 -->
<g id="node18" class="node">
<title>Node18</title>
<g id="a_node18"><a xlink:title=" ">
<polygon fill="white" stroke="#bfbfbf" points="320,-56.5 320,-75.5 366,-75.5 366,-56.5 320,-56.5"/>
<text text-anchor="middle" x="343" y="-63.5" font-family="Helvetica,sans-Serif" font-size="10.00">cstdio</text>
</a>
</g>
</g>
<!-- Node16&#45;&gt;Node18 -->
<g id="edge18" class="edge">
<title>Node16&#45;&gt;Node18</title>
<path fill="none" stroke="midnightblue" d="M398.4,-112.32C388.54,-104.26 373.65,-92.08 361.78,-82.37"/>
<polygon fill="midnightblue" stroke="midnightblue" points="363.75,-79.46 353.8,-75.83 359.32,-84.88 363.75,-79.46"/>
</g>
<!-- Node19 -->
<g id="node19" class="node">
<title>Node19</title>
<g id="a_node19"><a xlink:title=" ">
<polygon fill="white" stroke="#bfbfbf" points="452,-56.5 452,-75.5 512,-75.5 512,-56.5 452,-56.5"/>
<text text-anchor="middle" x="482" y="-63.5" font-family="Helvetica,sans-Serif" font-size="10.00">iostream</text>
</a>
</g>
</g>
<!-- Node16&#45;&gt;Node19 -->
<g id="edge19" class="edge">
<title>Node16&#45;&gt;Node19</title>
<path fill="none" stroke="midnightblue" d="M420.73,-112.32C431.84,-104.11 448.74,-91.6 461.98,-81.81"/>
<polygon fill="midnightblue" stroke="midnightblue" points="464.1,-84.59 470.06,-75.83 459.94,-78.97 464.1,-84.59"/>
</g>
<!-- Node16&#45;&gt;Node20 -->
<g id="edge21" class="edge">
<title>Node16&#45;&gt;Node20</title>
<path fill="none" stroke="midnightblue" d="M386.98,-112.44C363.9,-103.48 327.44,-89.31 301.36,-79.18"/>
<polygon fill="midnightblue" stroke="midnightblue" points="302.51,-75.88 291.92,-75.52 299.98,-82.4 302.51,-75.88"/>
</g>
<!-- Node21 -->
<g id="node21" class="node">
<title>Node21</title>
<g id="a_node21"><a xlink:href="arch_8h.html" target="_top" xlink:title=" ">
<polygon fill="white" stroke="black" points="530.5,-56.5 530.5,-75.5 577.5,-75.5 577.5,-56.5 530.5,-56.5"/>
<text text-anchor="middle" x="554" y="-63.5" font-family="Helvetica,sans-Serif" font-size="10.00">arch.h</text>
</a>
</g>
</g>
<!-- Node16&#45;&gt;Node21 -->
<g id="edge22" class="edge">
<title>Node16&#45;&gt;Node21</title>
<path fill="none" stroke="midnightblue" d="M431.98,-112.44C456.16,-103.44 494.42,-89.19 521.65,-79.05"/>
<polygon fill="midnightblue" stroke="midnightblue" points="522.98,-82.29 531.13,-75.52 520.54,-75.73 522.98,-82.29"/>
</g>
<!-- Node22 -->
<g id="node22" class="node">
<title>Node22</title>
<g id="a_node22"><a xlink:href="generique_8h.html" target="_top" xlink:title=" ">
<polygon fill="white" stroke="black" points="517,-0.5 517,-19.5 591,-19.5 591,-0.5 517,-0.5"/>
<text text-anchor="middle" x="554" y="-7.5" font-family="Helvetica,sans-Serif" font-size="10.00">generique.h</text>
</a>
</g>
</g>
<!-- Node21&#45;&gt;Node22 -->
<g id="edge23" class="edge">
<title>Node21&#45;&gt;Node22</title>
<path fill="none" stroke="midnightblue" d="M554,-56.08C554,-49.01 554,-38.86 554,-29.99"/>
<polygon fill="midnightblue" stroke="midnightblue" points="557.5,-29.75 554,-19.75 550.5,-29.75 557.5,-29.75"/>
</g>
<!-- Node23&#45;&gt;Node9 -->
<g id="edge26" class="edge">
<title>Node23&#45;&gt;Node9</title>
<path fill="none" stroke="midnightblue" d="M506.93,-112.44C532.22,-103.4 572.3,-89.06 600.68,-78.92"/>
<polygon fill="midnightblue" stroke="midnightblue" points="601.95,-82.18 610.19,-75.52 599.59,-75.59 601.95,-82.18"/>
</g>
<!-- Node23&#45;&gt;Node19 -->
<g id="edge25" class="edge">
<title>Node23&#45;&gt;Node19</title>
<path fill="none" stroke="midnightblue" d="M482.83,-112.08C482.7,-105.01 482.52,-94.86 482.35,-85.99"/>
<polygon fill="midnightblue" stroke="midnightblue" points="485.85,-85.68 482.16,-75.75 478.85,-85.81 485.85,-85.68"/>
</g>
<!-- Node23&#45;&gt;Node21 -->
<g id="edge27" class="edge">
<title>Node23&#45;&gt;Node21</title>
<path fill="none" stroke="midnightblue" d="M494.41,-112.32C505.11,-104.18 521.34,-91.84 534.16,-82.09"/>
<polygon fill="midnightblue" stroke="midnightblue" points="536.54,-84.67 542.39,-75.83 532.31,-79.1 536.54,-84.67"/>
</g>
<!-- Node24 -->
<g id="node24" class="node">
<title>Node24</title>
<g id="a_node24"><a xlink:title=" ">
<polygon fill="white" stroke="#bfbfbf" points="684,-56.5 684,-75.5 728,-75.5 728,-56.5 684,-56.5"/>
<text text-anchor="middle" x="706" y="-63.5" font-family="Helvetica,sans-Serif" font-size="10.00">string</text>
</a>
</g>
</g>
<!-- Node23&#45;&gt;Node24 -->
<g id="edge28" class="edge">
<title>Node23&#45;&gt;Node24</title>
<path fill="none" stroke="midnightblue" d="M510.12,-114.18C513.11,-113.44 516.12,-112.7 519,-112 586.45,-95.58 603.6,-92.65 671,-76 671.91,-75.78 672.82,-75.55 673.75,-75.32"/>
<polygon fill="midnightblue" stroke="midnightblue" points="674.96,-78.62 683.8,-72.78 673.24,-71.84 674.96,-78.62"/>
</g>
<!-- Node27 -->
<g id="node27" class="node">
<title>Node27</title>
<g id="a_node27"><a xlink:href="Vect_8h.html" target="_top" xlink:title=" ">
<polygon fill="white" stroke="black" points="537.5,-672.5 537.5,-691.5 584.5,-691.5 584.5,-672.5 537.5,-672.5"/>
<text text-anchor="middle" x="561" y="-679.5" font-family="Helvetica,sans-Serif" font-size="10.00">Vect.h</text>
</a>
</g>
</g>
<!-- Node26&#45;&gt;Node27 -->
<g id="edge32" class="edge">
<title>Node26&#45;&gt;Node27</title>
<path fill="none" stroke="midnightblue" d="M540.13,-728.08C543.51,-720.77 548.42,-710.18 552.62,-701.1"/>
<polygon fill="midnightblue" stroke="midnightblue" points="555.92,-702.3 556.95,-691.75 549.57,-699.36 555.92,-702.3"/>
</g>
<!-- Node28 -->
<g id="node28" class="node">
<title>Node28</title>
<g id="a_node28"><a xlink:href="MacVect_8h.html" target="_top" xlink:title=" ">
<polygon fill="white" stroke="black" points="553.5,-616.5 553.5,-635.5 620.5,-635.5 620.5,-616.5 553.5,-616.5"/>
<text text-anchor="middle" x="587" y="-623.5" font-family="Helvetica,sans-Serif" font-size="10.00">MacVect.h</text>
</a>
</g>
</g>
<!-- Node27&#45;&gt;Node28 -->
<g id="edge33" class="edge">
<title>Node27&#45;&gt;Node28</title>
<path fill="none" stroke="midnightblue" d="M565.29,-672.08C568.85,-664.69 574.02,-653.95 578.42,-644.81"/>
<polygon fill="midnightblue" stroke="midnightblue" points="581.6,-646.28 582.79,-635.75 575.29,-643.24 581.6,-646.28"/>
</g>
<!-- Node28&#45;&gt;Node9 -->
<g id="edge38" class="edge">
<title>Node28&#45;&gt;Node9</title>
<path fill="none" stroke="midnightblue" d="M620.75,-617.88C667.96,-605.73 748,-576.1 748,-515 748,-515 748,-515 748,-177 748,-130.11 697.45,-96.89 663.67,-79.93"/>
<polygon fill="midnightblue" stroke="midnightblue" points="665.17,-76.77 654.64,-75.58 662.13,-83.07 665.17,-76.77"/>
</g>
<!-- Node29 -->
<g id="node29" class="node">
<title>Node29</title>
<g id="a_node29"><a xlink:href="Nom_8h.html" target="_top" xlink:title=" ">
<polygon fill="white" stroke="black" points="550.5,-448.5 550.5,-467.5 599.5,-467.5 599.5,-448.5 550.5,-448.5"/>
<text text-anchor="middle" x="575" y="-455.5" font-family="Helvetica,sans-Serif" font-size="10.00">Nom.h</text>
</a>
</g>
</g>
<!-- Node28&#45;&gt;Node29 -->
<g id="edge34" class="edge">
<title>Node28&#45;&gt;Node29</title>
<path fill="none" stroke="midnightblue" d="M580.73,-616.38C568.97,-599.61 543.96,-560.99 535,-524 532.91,-515.36 531.84,-512.31 535,-504 539.34,-492.6 548.03,-482.24 556.21,-474.34"/>
<polygon fill="midnightblue" stroke="midnightblue" points="558.64,-476.86 563.73,-467.57 553.96,-471.66 558.64,-476.86"/>
</g>
<!-- Node31 -->
<g id="node31" class="node">
<title>Node31</title>
<g id="a_node31"><a xlink:href="vect__impl_8h.html" target="_top" xlink:title=" ">
<polygon fill="white" stroke="black" points="574,-560.5 574,-579.5 648,-579.5 648,-560.5 574,-560.5"/>
<text text-anchor="middle" x="611" y="-567.5" font-family="Helvetica,sans-Serif" font-size="10.00">vect_impl.h</text>
</a>
</g>
</g>
<!-- Node28&#45;&gt;Node31 -->
<g id="edge39" class="edge">
<title>Node28&#45;&gt;Node31</title>
<path fill="none" stroke="midnightblue" d="M590.96,-616.08C594.21,-608.77 598.92,-598.18 602.95,-589.1"/>
<polygon fill="midnightblue" stroke="midnightblue" points="606.25,-590.31 607.11,-579.75 599.85,-587.47 606.25,-590.31"/>
</g>
<!-- Node29&#45;&gt;Node8 -->
<g id="edge35" class="edge">
<title>Node29&#45;&gt;Node8</title>
<path fill="none" stroke="midnightblue" d="M581.32,-448.22C589.47,-435.77 601.95,-412.25 596,-392 578.5,-332.43 527.35,-277.02 500.27,-250.83"/>
<polygon fill="midnightblue" stroke="midnightblue" points="502.37,-248 492.7,-243.67 497.56,-253.08 502.37,-248"/>
</g>
<!-- Node29&#45;&gt;Node24 -->
<g id="edge37" class="edge">
<title>Node29&#45;&gt;Node24</title>
<path fill="none" stroke="midnightblue" d="M599.76,-449.44C638.73,-435.82 710,-403.23 710,-347 710,-347 710,-347 710,-177 710,-144.93 708.28,-107.63 707.1,-85.74"/>
<polygon fill="midnightblue" stroke="midnightblue" points="710.58,-85.34 706.52,-75.55 703.59,-85.73 710.58,-85.34"/>
</g>
<!-- Node30 -->
<g id="node30" class="node">
<title>Node30</title>
<g id="a_node30"><a xlink:title=" ">
<polygon fill="white" stroke="#bfbfbf" points="537,-392.5 537,-411.5 587,-411.5 587,-392.5 537,-392.5"/>
<text text-anchor="middle" x="562" y="-399.5" font-family="Helvetica,sans-Serif" font-size="10.00">cstring</text>
</a>
</g>
</g>
<!-- Node29&#45;&gt;Node30 -->
<g id="edge36" class="edge">
<title>Node29&#45;&gt;Node30</title>
<path fill="none" stroke="midnightblue" d="M572.85,-448.08C571.13,-440.93 568.65,-430.64 566.5,-421.69"/>
<polygon fill="midnightblue" stroke="midnightblue" points="569.85,-420.65 564.11,-411.75 563.04,-422.29 569.85,-420.65"/>
</g>
<!-- Node31&#45;&gt;Node9 -->
<g id="edge41" class="edge">
<title>Node31&#45;&gt;Node9</title>
<path fill="none" stroke="midnightblue" d="M619.74,-560.49C636.61,-543.12 672,-501.58 672,-459 672,-459 672,-459 672,-177 672,-142.81 655.4,-105.76 644.14,-84.57"/>
<polygon fill="midnightblue" stroke="midnightblue" points="647.18,-82.83 639.28,-75.77 641.05,-86.22 647.18,-82.83"/>
</g>
<!-- Node31&#45;&gt;Node29 -->
<g id="edge40" class="edge">
<title>Node31&#45;&gt;Node29</title>
<path fill="none" stroke="midnightblue" d="M613.76,-560.24C617.32,-547.43 622.23,-523.02 615,-504 610.66,-492.6 601.97,-482.24 593.79,-474.34"/>
<polygon fill="midnightblue" stroke="midnightblue" points="596.04,-471.66 586.27,-467.57 591.36,-476.86 596.04,-471.66"/>
</g>
<!-- Node32 -->
<g id="node32" class="node">
<title>Node32</title>
<g id="a_node32"><a xlink:href="DerOu___8h.html" target="_top" xlink:title=" ">
<polygon fill="white" stroke="black" points="544,-504.5 544,-523.5 606,-523.5 606,-504.5 544,-504.5"/>
<text text-anchor="middle" x="575" y="-511.5" font-family="Helvetica,sans-Serif" font-size="10.00">DerOu_.h</text>
</a>
</g>
</g>
<!-- Node31&#45;&gt;Node32 -->
<g id="edge42" class="edge">
<title>Node31&#45;&gt;Node32</title>
<path fill="none" stroke="midnightblue" d="M605.06,-560.08C600.02,-552.53 592.66,-541.49 586.49,-532.23"/>
<polygon fill="midnightblue" stroke="midnightblue" points="589.29,-530.13 580.83,-523.75 583.47,-534.01 589.29,-530.13"/>
</g>
<!-- Node32&#45;&gt;Node4 -->
<g id="edge43" class="edge">
<title>Node32&#45;&gt;Node4</title>
<path fill="none" stroke="midnightblue" d="M560.22,-504.32C545.73,-495.82 523.43,-482.73 506.51,-472.8"/>
<polygon fill="midnightblue" stroke="midnightblue" points="508.14,-469.7 497.74,-467.65 504.6,-475.74 508.14,-469.7"/>
</g>
<!-- Node32&#45;&gt;Node29 -->
<g id="edge44" class="edge">
<title>Node32&#45;&gt;Node29</title>
<path fill="none" stroke="midnightblue" d="M575,-504.08C575,-497.01 575,-486.86 575,-477.99"/>
<polygon fill="midnightblue" stroke="midnightblue" points="578.5,-477.75 575,-467.75 571.5,-477.75 578.5,-477.75"/>
</g>
<!-- Node34 -->
<g id="node34" class="node">
<title>Node34</title>
<g id="a_node34"><a xlink:href="Ref_8h.html" target="_top" xlink:title=" ">
<polygon fill="white" stroke="black" points="338.5,-672.5 338.5,-691.5 379.5,-691.5 379.5,-672.5 338.5,-672.5"/>
<text text-anchor="middle" x="359" y="-679.5" font-family="Helvetica,sans-Serif" font-size="10.00">Ref.h</text>
</a>
</g>
</g>
<!-- Node33&#45;&gt;Node34 -->
<g id="edge47" class="edge">
<title>Node33&#45;&gt;Node34</title>
<path fill="none" stroke="midnightblue" d="M307.98,-784.13C308.27,-771.16 310.09,-746.58 319,-728 324.29,-716.97 333.1,-706.63 341.11,-698.64"/>
<polygon fill="midnightblue" stroke="midnightblue" points="343.8,-700.91 348.69,-691.5 339.01,-695.81 343.8,-700.91"/>
</g>
<!-- Node35 -->
<g id="node35" class="node">
<title>Node35</title>
<g id="a_node35"><a xlink:href="MacRef_8h.html" target="_top" xlink:title=" ">
<polygon fill="white" stroke="black" points="358,-616.5 358,-635.5 420,-635.5 420,-616.5 358,-616.5"/>
<text text-anchor="middle" x="389" y="-623.5" font-family="Helvetica,sans-Serif" font-size="10.00">MacRef.h</text>
</a>
</g>
</g>
<!-- Node34&#45;&gt;Node35 -->
<g id="edge48" class="edge">
<title>Node34&#45;&gt;Node35</title>
<path fill="none" stroke="midnightblue" d="M363.95,-672.08C368.1,-664.61 374.15,-653.72 379.27,-644.52"/>
<polygon fill="midnightblue" stroke="midnightblue" points="382.34,-646.19 384.14,-635.75 376.22,-642.79 382.34,-646.19"/>
</g>
<!-- Node36 -->
<g id="node36" class="node">
<title>Node36</title>
<g id="a_node36"><a xlink:href="Ref___8h.html" target="_top" xlink:title=" ">
<polygon fill="white" stroke="black" points="395.5,-504.5 395.5,-523.5 442.5,-523.5 442.5,-504.5 395.5,-504.5"/>
<text text-anchor="middle" x="419" y="-511.5" font-family="Helvetica,sans-Serif" font-size="10.00">Ref_.h</text>
</a>
</g>
</g>
<!-- Node35&#45;&gt;Node36 -->
<g id="edge49" class="edge">
<title>Node35&#45;&gt;Node36</title>
<path fill="none" stroke="midnightblue" d="M391.35,-616.37C396.22,-598.54 407.46,-557.3 414.02,-533.27"/>
<polygon fill="midnightblue" stroke="midnightblue" points="417.4,-534.16 416.66,-523.59 410.65,-532.32 417.4,-534.16"/>
</g>
<!-- Node36&#45;&gt;Node7 -->
<g id="edge50" class="edge">
<title>Node36&#45;&gt;Node7</title>
<path fill="none" stroke="midnightblue" d="M418.74,-504.44C418.25,-478.07 419.14,-396.18 446,-336 450.82,-325.19 458.97,-314.87 466.39,-306.84"/>
<polygon fill="midnightblue" stroke="midnightblue" points="468.93,-309.24 473.42,-299.64 463.93,-304.35 468.93,-309.24"/>
</g>
<!-- Node36&#45;&gt;Node29 -->
<g id="edge51" class="edge">
<title>Node36&#45;&gt;Node29</title>
<path fill="none" stroke="midnightblue" d="M442.69,-504.8C468.81,-495.76 511.04,-481.14 540.75,-470.85"/>
<polygon fill="midnightblue" stroke="midnightblue" points="542,-474.13 550.31,-467.55 539.71,-467.51 542,-474.13"/>
</g>
</g>
</svg>
