<?xml version="1.0" encoding="UTF-8" standalone="no"?>
<!DOCTYPE svg PUBLIC "-//W3C//DTD SVG 1.1//EN"
 "http://www.w3.org/Graphics/SVG/1.1/DTD/svg11.dtd">
<!-- Generated by graphviz version 2.43.0 (0)
 -->
<!-- Title: src/Kernel/Geometrie/Decoupeur/Partitionneur_base.h Pages: 1 -->
<svg width="2368pt" height="284pt"
 viewBox="0.00 0.00 2368.00 284.00" xmlns="http://www.w3.org/2000/svg" xmlns:xlink="http://www.w3.org/1999/xlink">
<g id="graph0" class="graph" transform="scale(1 1) rotate(0) translate(4 280)">
<title>src/Kernel/Geometrie/Decoupeur/Partitionneur_base.h</title>
<polygon fill="white" stroke="transparent" points="-4,4 -4,-280 2364,-280 2364,4 -4,4"/>
<!-- Node1 -->
<g id="node1" class="node">
<title>Node1</title>
<g id="a_node1"><a xlink:title=" ">
<polygon fill="#bfbfbf" stroke="black" points="1293,-234.5 1293,-275.5 1430,-275.5 1430,-234.5 1293,-234.5"/>
<text text-anchor="start" x="1301" y="-263.5" font-family="Helvetica,sans-Serif" font-size="10.00">src/Kernel/Geometrie</text>
<text text-anchor="start" x="1301" y="-252.5" font-family="Helvetica,sans-Serif" font-size="10.00">/Decoupeur/Partitionneur</text>
<text text-anchor="middle" x="1361.5" y="-241.5" font-family="Helvetica,sans-Serif" font-size="10.00">_base.h</text>
</a>
</g>
</g>
<!-- Node2 -->
<g id="node2" class="node">
<title>Node2</title>
<g id="a_node2"><a xlink:href="Decouper_8h.html" target="_top" xlink:title=" ">
<polygon fill="white" stroke="black" points="338.5,-162 338.5,-192 468.5,-192 468.5,-162 338.5,-162"/>
<text text-anchor="start" x="346.5" y="-180" font-family="Helvetica,sans-Serif" font-size="10.00">src/Kernel/Geometrie</text>
<text text-anchor="middle" x="403.5" y="-169" font-family="Helvetica,sans-Serif" font-size="10.00">/Decoupeur/Decouper.h</text>
</a>
</g>
</g>
<!-- Node1&#45;&gt;Node2 -->
<g id="edge1" class="edge">
<title>Node1&#45;&gt;Node2</title>
<path fill="none" stroke="midnightblue" d="M1282.37,-254.29C1126.99,-253.68 771.54,-246.54 477.5,-198 468.44,-196.5 458.89,-194.36 449.77,-192.03"/>
<polygon fill="midnightblue" stroke="midnightblue" points="1282.75,-257.79 1292.76,-254.32 1282.77,-250.79 1282.75,-257.79"/>
</g>
<!-- Node9 -->
<g id="node9" class="node">
<title>Node9</title>
<g id="a_node9"><a xlink:href="Domain__Graph_8cpp.html" target="_top" xlink:title=" ">
<polygon fill="white" stroke="black" points="486.5,-162 486.5,-192 654.5,-192 654.5,-162 486.5,-162"/>
<text text-anchor="start" x="494.5" y="-180" font-family="Helvetica,sans-Serif" font-size="10.00">src/Kernel/Geometrie</text>
<text text-anchor="middle" x="570.5" y="-169" font-family="Helvetica,sans-Serif" font-size="10.00">/Decoupeur/Domain_Graph.cpp</text>
</a>
</g>
</g>
<!-- Node1&#45;&gt;Node9 -->
<g id="edge9" class="edge">
<title>Node1&#45;&gt;Node9</title>
<path fill="none" stroke="midnightblue" d="M1282.56,-251.06C1152.81,-245.46 886.59,-230.79 663.5,-198 652.72,-196.41 641.31,-194.32 630.32,-192.08"/>
<polygon fill="midnightblue" stroke="midnightblue" points="1282.66,-254.56 1292.8,-251.49 1282.96,-247.57 1282.66,-254.56"/>
</g>
<!-- Node10 -->
<g id="node10" class="node">
<title>Node10</title>
<g id="a_node10"><a xlink:href="Partitionneur__Fichier__Decoupage_8h.html" target="_top" xlink:title=" ">
<polygon fill="white" stroke="black" points="673,-156.5 673,-197.5 810,-197.5 810,-156.5 673,-156.5"/>
<text text-anchor="start" x="681" y="-185.5" font-family="Helvetica,sans-Serif" font-size="10.00">src/Kernel/Geometrie</text>
<text text-anchor="start" x="681" y="-174.5" font-family="Helvetica,sans-Serif" font-size="10.00">/Decoupeur/Partitionneur</text>
<text text-anchor="middle" x="741.5" y="-163.5" font-family="Helvetica,sans-Serif" font-size="10.00">_Fichier_Decoupage.h</text>
</a>
</g>
</g>
<!-- Node1&#45;&gt;Node10 -->
<g id="edge10" class="edge">
<title>Node1&#45;&gt;Node10</title>
<path fill="none" stroke="midnightblue" d="M1282.9,-249.64C1176.83,-242.9 982.26,-227.54 818.5,-198 815.78,-197.51 813.02,-196.97 810.23,-196.4"/>
<polygon fill="midnightblue" stroke="midnightblue" points="1282.69,-253.13 1292.89,-250.26 1283.12,-246.15 1282.69,-253.13"/>
</g>
<!-- Node12 -->
<g id="node12" class="node">
<title>Node12</title>
<g id="a_node12"><a xlink:href="Partitionneur__Fichier__MED_8h.html" target="_top" xlink:title=" ">
<polygon fill="white" stroke="black" points="828,-156.5 828,-197.5 965,-197.5 965,-156.5 828,-156.5"/>
<text text-anchor="start" x="836" y="-185.5" font-family="Helvetica,sans-Serif" font-size="10.00">src/Kernel/Geometrie</text>
<text text-anchor="start" x="836" y="-174.5" font-family="Helvetica,sans-Serif" font-size="10.00">/Decoupeur/Partitionneur</text>
<text text-anchor="middle" x="896.5" y="-163.5" font-family="Helvetica,sans-Serif" font-size="10.00">_Fichier_MED.h</text>
</a>
</g>
</g>
<!-- Node1&#45;&gt;Node12 -->
<g id="edge12" class="edge">
<title>Node1&#45;&gt;Node12</title>
<path fill="none" stroke="midnightblue" d="M1282.45,-245.19C1203.73,-235.81 1079.66,-219.38 973.5,-198 970.79,-197.45 968.04,-196.87 965.26,-196.26"/>
<polygon fill="midnightblue" stroke="midnightblue" points="1282.43,-248.72 1292.77,-246.41 1283.25,-241.76 1282.43,-248.72"/>
</g>
<!-- Node14 -->
<g id="node14" class="node">
<title>Node14</title>
<g id="a_node14"><a xlink:href="Partitionneur__Metis_8h.html" target="_top" xlink:title=" ">
<polygon fill="white" stroke="black" points="983,-156.5 983,-197.5 1120,-197.5 1120,-156.5 983,-156.5"/>
<text text-anchor="start" x="991" y="-185.5" font-family="Helvetica,sans-Serif" font-size="10.00">src/Kernel/Geometrie</text>
<text text-anchor="start" x="991" y="-174.5" font-family="Helvetica,sans-Serif" font-size="10.00">/Decoupeur/Partitionneur</text>
<text text-anchor="middle" x="1051.5" y="-163.5" font-family="Helvetica,sans-Serif" font-size="10.00">_Metis.h</text>
</a>
</g>
</g>
<!-- Node1&#45;&gt;Node14 -->
<g id="edge14" class="edge">
<title>Node1&#45;&gt;Node14</title>
<path fill="none" stroke="midnightblue" d="M1283.11,-235.54C1237.87,-224.79 1179.92,-210.86 1128.5,-198 1125.82,-197.33 1123.09,-196.64 1120.33,-195.94"/>
<polygon fill="midnightblue" stroke="midnightblue" points="1282.32,-238.95 1292.86,-237.85 1283.94,-232.13 1282.32,-238.95"/>
</g>
<!-- Node16 -->
<g id="node16" class="node">
<title>Node16</title>
<g id="a_node16"><a xlink:href="Partitionneur__Parmetis_8h.html" target="_top" xlink:title=" ">
<polygon fill="white" stroke="black" points="1138,-156.5 1138,-197.5 1275,-197.5 1275,-156.5 1138,-156.5"/>
<text text-anchor="start" x="1146" y="-185.5" font-family="Helvetica,sans-Serif" font-size="10.00">src/Kernel/Geometrie</text>
<text text-anchor="start" x="1146" y="-174.5" font-family="Helvetica,sans-Serif" font-size="10.00">/Decoupeur/Partitionneur</text>
<text text-anchor="middle" x="1206.5" y="-163.5" font-family="Helvetica,sans-Serif" font-size="10.00">_Parmetis.h</text>
</a>
</g>
</g>
<!-- Node1&#45;&gt;Node16 -->
<g id="edge16" class="edge">
<title>Node1&#45;&gt;Node16</title>
<path fill="none" stroke="midnightblue" d="M1312.37,-229.91C1291.05,-219.46 1266.42,-207.38 1246.28,-197.51"/>
<polygon fill="midnightblue" stroke="midnightblue" points="1311.06,-233.17 1321.58,-234.43 1314.15,-226.88 1311.06,-233.17"/>
</g>
<!-- Node18 -->
<g id="node18" class="node">
<title>Node18</title>
<g id="a_node18"><a xlink:href="Partitionneur__Partition_8h.html" target="_top" xlink:title=" ">
<polygon fill="white" stroke="black" points="1293,-156.5 1293,-197.5 1430,-197.5 1430,-156.5 1293,-156.5"/>
<text text-anchor="start" x="1301" y="-185.5" font-family="Helvetica,sans-Serif" font-size="10.00">src/Kernel/Geometrie</text>
<text text-anchor="start" x="1301" y="-174.5" font-family="Helvetica,sans-Serif" font-size="10.00">/Decoupeur/Partitionneur</text>
<text text-anchor="middle" x="1361.5" y="-163.5" font-family="Helvetica,sans-Serif" font-size="10.00">_Partition.h</text>
</a>
</g>
</g>
<!-- Node1&#45;&gt;Node18 -->
<g id="edge18" class="edge">
<title>Node1&#45;&gt;Node18</title>
<path fill="none" stroke="midnightblue" d="M1361.5,-224.3C1361.5,-215.3 1361.5,-205.65 1361.5,-197.51"/>
<polygon fill="midnightblue" stroke="midnightblue" points="1358,-224.43 1361.5,-234.43 1365,-224.43 1358,-224.43"/>
</g>
<!-- Node20 -->
<g id="node20" class="node">
<title>Node20</title>
<g id="a_node20"><a xlink:href="Partitionneur__Ptscotch_8h.html" target="_top" xlink:title=" ">
<polygon fill="white" stroke="black" points="1448,-156.5 1448,-197.5 1585,-197.5 1585,-156.5 1448,-156.5"/>
<text text-anchor="start" x="1456" y="-185.5" font-family="Helvetica,sans-Serif" font-size="10.00">src/Kernel/Geometrie</text>
<text text-anchor="start" x="1456" y="-174.5" font-family="Helvetica,sans-Serif" font-size="10.00">/Decoupeur/Partitionneur</text>
<text text-anchor="middle" x="1516.5" y="-163.5" font-family="Helvetica,sans-Serif" font-size="10.00">_Ptscotch.h</text>
</a>
</g>
</g>
<!-- Node1&#45;&gt;Node20 -->
<g id="edge20" class="edge">
<title>Node1&#45;&gt;Node20</title>
<path fill="none" stroke="midnightblue" d="M1410.63,-229.91C1431.95,-219.46 1456.58,-207.38 1476.72,-197.51"/>
<polygon fill="midnightblue" stroke="midnightblue" points="1408.85,-226.88 1401.42,-234.43 1411.94,-233.17 1408.85,-226.88"/>
</g>
<!-- Node22 -->
<g id="node22" class="node">
<title>Node22</title>
<g id="a_node22"><a xlink:href="Partitionneur__Sous__Domaine_8h.html" target="_top" xlink:title=" ">
<polygon fill="white" stroke="black" points="1603,-156.5 1603,-197.5 1740,-197.5 1740,-156.5 1603,-156.5"/>
<text text-anchor="start" x="1611" y="-185.5" font-family="Helvetica,sans-Serif" font-size="10.00">src/Kernel/Geometrie</text>
<text text-anchor="start" x="1611" y="-174.5" font-family="Helvetica,sans-Serif" font-size="10.00">/Decoupeur/Partitionneur</text>
<text text-anchor="middle" x="1671.5" y="-163.5" font-family="Helvetica,sans-Serif" font-size="10.00">_Sous_Domaine.h</text>
</a>
</g>
</g>
<!-- Node1&#45;&gt;Node22 -->
<g id="edge22" class="edge">
<title>Node1&#45;&gt;Node22</title>
<path fill="none" stroke="midnightblue" d="M1440.06,-235.33C1485.03,-224.57 1542.48,-210.7 1593.5,-198 1596.48,-197.26 1599.53,-196.49 1602.61,-195.72"/>
<polygon fill="midnightblue" stroke="midnightblue" points="1439,-231.98 1430.08,-237.71 1440.62,-238.79 1439,-231.98"/>
</g>
<!-- Node24 -->
<g id="node24" class="node">
<title>Node24</title>
<g id="a_node24"><a xlink:href="Partitionneur__Sous__Zones_8h.html" target="_top" xlink:title=" ">
<polygon fill="white" stroke="black" points="1758,-156.5 1758,-197.5 1895,-197.5 1895,-156.5 1758,-156.5"/>
<text text-anchor="start" x="1766" y="-185.5" font-family="Helvetica,sans-Serif" font-size="10.00">src/Kernel/Geometrie</text>
<text text-anchor="start" x="1766" y="-174.5" font-family="Helvetica,sans-Serif" font-size="10.00">/Decoupeur/Partitionneur</text>
<text text-anchor="middle" x="1826.5" y="-163.5" font-family="Helvetica,sans-Serif" font-size="10.00">_Sous_Zones.h</text>
</a>
</g>
</g>
<!-- Node1&#45;&gt;Node24 -->
<g id="edge24" class="edge">
<title>Node1&#45;&gt;Node24</title>
<path fill="none" stroke="midnightblue" d="M1440.33,-245.11C1518.84,-235.66 1642.58,-219.18 1748.5,-198 1751.52,-197.4 1754.59,-196.75 1757.69,-196.07"/>
<polygon fill="midnightblue" stroke="midnightblue" points="1439.55,-241.68 1430.04,-246.34 1440.38,-248.63 1439.55,-241.68"/>
</g>
<!-- Node26 -->
<g id="node26" class="node">
<title>Node26</title>
<g id="a_node26"><a xlink:href="Partitionneur__Tranche_8h.html" target="_top" xlink:title=" ">
<polygon fill="white" stroke="black" points="1913,-156.5 1913,-197.5 2050,-197.5 2050,-156.5 1913,-156.5"/>
<text text-anchor="start" x="1921" y="-185.5" font-family="Helvetica,sans-Serif" font-size="10.00">src/Kernel/Geometrie</text>
<text text-anchor="start" x="1921" y="-174.5" font-family="Helvetica,sans-Serif" font-size="10.00">/Decoupeur/Partitionneur</text>
<text text-anchor="middle" x="1981.5" y="-163.5" font-family="Helvetica,sans-Serif" font-size="10.00">_Tranche.h</text>
</a>
</g>
</g>
<!-- Node1&#45;&gt;Node26 -->
<g id="edge26" class="edge">
<title>Node1&#45;&gt;Node26</title>
<path fill="none" stroke="midnightblue" d="M1440.7,-249.5C1546.73,-242.64 1740.38,-227.17 1903.5,-198 1906.53,-197.46 1909.61,-196.86 1912.72,-196.23"/>
<polygon fill="midnightblue" stroke="midnightblue" points="1440.16,-246.03 1430.4,-250.16 1440.61,-253.02 1440.16,-246.03"/>
</g>
<!-- Node28 -->
<g id="node28" class="node">
<title>Node28</title>
<g id="a_node28"><a xlink:href="Partitionneur__Union_8h.html" target="_top" xlink:title=" ">
<polygon fill="white" stroke="black" points="2068,-156.5 2068,-197.5 2205,-197.5 2205,-156.5 2068,-156.5"/>
<text text-anchor="start" x="2076" y="-185.5" font-family="Helvetica,sans-Serif" font-size="10.00">src/Kernel/Geometrie</text>
<text text-anchor="start" x="2076" y="-174.5" font-family="Helvetica,sans-Serif" font-size="10.00">/Decoupeur/Partitionneur</text>
<text text-anchor="middle" x="2136.5" y="-163.5" font-family="Helvetica,sans-Serif" font-size="10.00">_Union.h</text>
</a>
</g>
</g>
<!-- Node1&#45;&gt;Node28 -->
<g id="edge28" class="edge">
<title>Node1&#45;&gt;Node28</title>
<path fill="none" stroke="midnightblue" d="M1440.61,-252.13C1570.6,-248.06 1837.16,-235.5 2059.5,-198 2062.22,-197.54 2064.99,-197.03 2067.78,-196.48"/>
<polygon fill="midnightblue" stroke="midnightblue" points="1440.24,-248.64 1430.35,-252.44 1440.45,-255.64 1440.24,-248.64"/>
</g>
<!-- Node30 -->
<g id="node30" class="node">
<title>Node30</title>
<g id="a_node30"><a xlink:href="Partitionneur__base_8cpp.html" target="_top" xlink:title=" ">
<polygon fill="white" stroke="black" points="2223,-156.5 2223,-197.5 2360,-197.5 2360,-156.5 2223,-156.5"/>
<text text-anchor="start" x="2231" y="-185.5" font-family="Helvetica,sans-Serif" font-size="10.00">src/Kernel/Geometrie</text>
<text text-anchor="start" x="2231" y="-174.5" font-family="Helvetica,sans-Serif" font-size="10.00">/Decoupeur/Partitionneur</text>
<text text-anchor="middle" x="2291.5" y="-163.5" font-family="Helvetica,sans-Serif" font-size="10.00">_base.cpp</text>
</a>
</g>
</g>
<!-- Node1&#45;&gt;Node30 -->
<g id="edge30" class="edge">
<title>Node1&#45;&gt;Node30</title>
<path fill="none" stroke="midnightblue" d="M1440.39,-253.77C1591.57,-252.24 1932.17,-243.52 2214.5,-198 2217.23,-197.56 2220,-197.07 2222.79,-196.53"/>
<polygon fill="midnightblue" stroke="midnightblue" points="1440.24,-250.27 1430.27,-253.86 1440.3,-257.27 1440.24,-250.27"/>
</g>
<!-- Node3 -->
<g id="node3" class="node">
<title>Node3</title>
<g id="a_node3"><a xlink:href="Decouper_8cpp.html" target="_top" xlink:title=" ">
<polygon fill="white" stroke="black" points="497,-6 497,-36 638,-36 638,-6 497,-6"/>
<text text-anchor="start" x="505" y="-24" font-family="Helvetica,sans-Serif" font-size="10.00">src/Kernel/Geometrie</text>
<text text-anchor="middle" x="567.5" y="-13" font-family="Helvetica,sans-Serif" font-size="10.00">/Decoupeur/Decouper.cpp</text>
</a>
</g>
</g>
<!-- Node2&#45;&gt;Node3 -->
<g id="edge2" class="edge">
<title>Node2&#45;&gt;Node3</title>
<path fill="none" stroke="midnightblue" d="M429.84,-155.39C442.68,-145.08 458.19,-132.21 471.5,-120 502.57,-91.5 536.57,-55.56 554.59,-36.1"/>
<polygon fill="midnightblue" stroke="midnightblue" points="427.48,-152.8 421.84,-161.77 431.84,-158.28 427.48,-152.8"/>
</g>
<!-- Node4 -->
<g id="node4" class="node">
<title>Node4</title>
<g id="a_node4"><a xlink:href="Decouper__multi_8h.html" target="_top" xlink:title=" ">
<polygon fill="white" stroke="black" points="86,-84 86,-114 247,-114 247,-84 86,-84"/>
<text text-anchor="start" x="94" y="-102" font-family="Helvetica,sans-Serif" font-size="10.00">src/Kernel/Geometrie</text>
<text text-anchor="middle" x="166.5" y="-91" font-family="Helvetica,sans-Serif" font-size="10.00">/Decoupeur/Decouper_multi.h</text>
</a>
</g>
</g>
<!-- Node2&#45;&gt;Node4 -->
<g id="edge3" class="edge">
<title>Node2&#45;&gt;Node4</title>
<path fill="none" stroke="midnightblue" d="M350.21,-158.91C308.05,-145.39 249.9,-126.74 210.39,-114.07"/>
<polygon fill="midnightblue" stroke="midnightblue" points="349.16,-162.25 359.75,-161.97 351.3,-155.59 349.16,-162.25"/>
</g>
<!-- Node6 -->
<g id="node6" class="node">
<title>Node6</title>
<g id="a_node6"><a xlink:href="DomaineCutter_8h.html" target="_top" xlink:title=" ">
<polygon fill="white" stroke="black" points="344,-84 344,-114 463,-114 463,-84 344,-84"/>
<text text-anchor="start" x="352" y="-102" font-family="Helvetica,sans-Serif" font-size="10.00">src/Kernel/Geometrie</text>
<text text-anchor="middle" x="403.5" y="-91" font-family="Helvetica,sans-Serif" font-size="10.00">/DomaineCutter.h</text>
</a>
</g>
</g>
<!-- Node2&#45;&gt;Node6 -->
<g id="edge5" class="edge">
<title>Node2&#45;&gt;Node6</title>
<path fill="none" stroke="midnightblue" d="M403.5,-151.59C403.5,-139.26 403.5,-124.72 403.5,-114.23"/>
<polygon fill="midnightblue" stroke="midnightblue" points="400,-151.7 403.5,-161.7 407,-151.71 400,-151.7"/>
</g>
<!-- Node5 -->
<g id="node5" class="node">
<title>Node5</title>
<g id="a_node5"><a xlink:href="Decouper__multi_8cpp.html" target="_top" xlink:title=" ">
<polygon fill="white" stroke="black" points="0,-6 0,-36 173,-36 173,-6 0,-6"/>
<text text-anchor="start" x="8" y="-24" font-family="Helvetica,sans-Serif" font-size="10.00">src/Kernel/Geometrie</text>
<text text-anchor="middle" x="86.5" y="-13" font-family="Helvetica,sans-Serif" font-size="10.00">/Decoupeur/Decouper_multi.cpp</text>
</a>
</g>
</g>
<!-- Node4&#45;&gt;Node5 -->
<g id="edge4" class="edge">
<title>Node4&#45;&gt;Node5</title>
<path fill="none" stroke="midnightblue" d="M143.9,-76.53C130.32,-63.63 113.42,-47.57 101.48,-36.23"/>
<polygon fill="midnightblue" stroke="midnightblue" points="141.79,-79.35 151.45,-83.7 146.61,-74.28 141.79,-79.35"/>
</g>
<!-- Node6&#45;&gt;Node3 -->
<g id="edge7" class="edge">
<title>Node6&#45;&gt;Node3</title>
<path fill="none" stroke="midnightblue" d="M443.37,-79.52C472.28,-66.13 510.78,-48.28 537.2,-36.04"/>
<polygon fill="midnightblue" stroke="midnightblue" points="441.56,-76.5 433.96,-83.88 444.51,-82.85 441.56,-76.5"/>
</g>
<!-- Node7 -->
<g id="node7" class="node">
<title>Node7</title>
<g id="a_node7"><a xlink:href="Create__domain__from__sous__zone_8cpp.html" target="_top" xlink:title=" ">
<polygon fill="white" stroke="black" points="328.5,-0.5 328.5,-41.5 478.5,-41.5 478.5,-0.5 328.5,-0.5"/>
<text text-anchor="start" x="336.5" y="-29.5" font-family="Helvetica,sans-Serif" font-size="10.00">src/Kernel/Geometrie</text>
<text text-anchor="start" x="336.5" y="-18.5" font-family="Helvetica,sans-Serif" font-size="10.00">/Create_domain_from_sous</text>
<text text-anchor="middle" x="403.5" y="-7.5" font-family="Helvetica,sans-Serif" font-size="10.00">_zone.cpp</text>
</a>
</g>
</g>
<!-- Node6&#45;&gt;Node7 -->
<g id="edge6" class="edge">
<title>Node6&#45;&gt;Node7</title>
<path fill="none" stroke="midnightblue" d="M403.5,-73.66C403.5,-63.33 403.5,-51.44 403.5,-41.68"/>
<polygon fill="midnightblue" stroke="midnightblue" points="400,-73.7 403.5,-83.7 407,-73.71 400,-73.7"/>
</g>
<!-- Node8 -->
<g id="node8" class="node">
<title>Node8</title>
<g id="a_node8"><a xlink:href="DomaineCutter_8cpp.html" target="_top" xlink:title=" ">
<polygon fill="white" stroke="black" points="191,-6 191,-36 310,-36 310,-6 191,-6"/>
<text text-anchor="start" x="199" y="-24" font-family="Helvetica,sans-Serif" font-size="10.00">src/Kernel/Geometrie</text>
<text text-anchor="middle" x="250.5" y="-13" font-family="Helvetica,sans-Serif" font-size="10.00">/DomaineCutter.cpp</text>
</a>
</g>
</g>
<!-- Node6&#45;&gt;Node8 -->
<g id="edge8" class="edge">
<title>Node6&#45;&gt;Node8</title>
<path fill="none" stroke="midnightblue" d="M365.95,-79.35C339.02,-65.97 303.3,-48.23 278.77,-36.04"/>
<polygon fill="midnightblue" stroke="midnightblue" points="364.57,-82.57 375.08,-83.88 367.68,-76.3 364.57,-82.57"/>
</g>
<!-- Node11 -->
<g id="node11" class="node">
<title>Node11</title>
<g id="a_node11"><a xlink:href="Partitionneur__Fichier__Decoupage_8cpp.html" target="_top" xlink:title=" ">
<polygon fill="white" stroke="black" points="673,-78.5 673,-119.5 810,-119.5 810,-78.5 673,-78.5"/>
<text text-anchor="start" x="681" y="-107.5" font-family="Helvetica,sans-Serif" font-size="10.00">src/Kernel/Geometrie</text>
<text text-anchor="start" x="681" y="-96.5" font-family="Helvetica,sans-Serif" font-size="10.00">/Decoupeur/Partitionneur</text>
<text text-anchor="middle" x="741.5" y="-85.5" font-family="Helvetica,sans-Serif" font-size="10.00">_Fichier_Decoupage.cpp</text>
</a>
</g>
</g>
<!-- Node10&#45;&gt;Node11 -->
<g id="edge11" class="edge">
<title>Node10&#45;&gt;Node11</title>
<path fill="none" stroke="midnightblue" d="M741.5,-146.3C741.5,-137.3 741.5,-127.65 741.5,-119.51"/>
<polygon fill="midnightblue" stroke="midnightblue" points="738,-146.43 741.5,-156.43 745,-146.43 738,-146.43"/>
</g>
<!-- Node13 -->
<g id="node13" class="node">
<title>Node13</title>
<g id="a_node13"><a xlink:href="Partitionneur__Fichier__MED_8cpp.html" target="_top" xlink:title=" ">
<polygon fill="white" stroke="black" points="828,-78.5 828,-119.5 965,-119.5 965,-78.5 828,-78.5"/>
<text text-anchor="start" x="836" y="-107.5" font-family="Helvetica,sans-Serif" font-size="10.00">src/Kernel/Geometrie</text>
<text text-anchor="start" x="836" y="-96.5" font-family="Helvetica,sans-Serif" font-size="10.00">/Decoupeur/Partitionneur</text>
<text text-anchor="middle" x="896.5" y="-85.5" font-family="Helvetica,sans-Serif" font-size="10.00">_Fichier_MED.cpp</text>
</a>
</g>
</g>
<!-- Node12&#45;&gt;Node13 -->
<g id="edge13" class="edge">
<title>Node12&#45;&gt;Node13</title>
<path fill="none" stroke="midnightblue" d="M896.5,-146.3C896.5,-137.3 896.5,-127.65 896.5,-119.51"/>
<polygon fill="midnightblue" stroke="midnightblue" points="893,-146.43 896.5,-156.43 900,-146.43 893,-146.43"/>
</g>
<!-- Node15 -->
<g id="node15" class="node">
<title>Node15</title>
<g id="a_node15"><a xlink:href="Partitionneur__Metis_8cpp.html" target="_top" xlink:title=" ">
<polygon fill="white" stroke="black" points="983,-78.5 983,-119.5 1120,-119.5 1120,-78.5 983,-78.5"/>
<text text-anchor="start" x="991" y="-107.5" font-family="Helvetica,sans-Serif" font-size="10.00">src/Kernel/Geometrie</text>
<text text-anchor="start" x="991" y="-96.5" font-family="Helvetica,sans-Serif" font-size="10.00">/Decoupeur/Partitionneur</text>
<text text-anchor="middle" x="1051.5" y="-85.5" font-family="Helvetica,sans-Serif" font-size="10.00">_Metis.cpp</text>
</a>
</g>
</g>
<!-- Node14&#45;&gt;Node15 -->
<g id="edge15" class="edge">
<title>Node14&#45;&gt;Node15</title>
<path fill="none" stroke="midnightblue" d="M1051.5,-146.3C1051.5,-137.3 1051.5,-127.65 1051.5,-119.51"/>
<polygon fill="midnightblue" stroke="midnightblue" points="1048,-146.43 1051.5,-156.43 1055,-146.43 1048,-146.43"/>
</g>
<!-- Node17 -->
<g id="node17" class="node">
<title>Node17</title>
<g id="a_node17"><a xlink:href="Partitionneur__Parmetis_8cpp.html" target="_top" xlink:title=" ">
<polygon fill="white" stroke="black" points="1138,-78.5 1138,-119.5 1275,-119.5 1275,-78.5 1138,-78.5"/>
<text text-anchor="start" x="1146" y="-107.5" font-family="Helvetica,sans-Serif" font-size="10.00">src/Kernel/Geometrie</text>
<text text-anchor="start" x="1146" y="-96.5" font-family="Helvetica,sans-Serif" font-size="10.00">/Decoupeur/Partitionneur</text>
<text text-anchor="middle" x="1206.5" y="-85.5" font-family="Helvetica,sans-Serif" font-size="10.00">_Parmetis.cpp</text>
</a>
</g>
</g>
<!-- Node16&#45;&gt;Node17 -->
<g id="edge17" class="edge">
<title>Node16&#45;&gt;Node17</title>
<path fill="none" stroke="midnightblue" d="M1206.5,-146.3C1206.5,-137.3 1206.5,-127.65 1206.5,-119.51"/>
<polygon fill="midnightblue" stroke="midnightblue" points="1203,-146.43 1206.5,-156.43 1210,-146.43 1203,-146.43"/>
</g>
<!-- Node19 -->
<g id="node19" class="node">
<title>Node19</title>
<g id="a_node19"><a xlink:href="Partitionneur__Partition_8cpp.html" target="_top" xlink:title=" ">
<polygon fill="white" stroke="black" points="1293,-78.5 1293,-119.5 1430,-119.5 1430,-78.5 1293,-78.5"/>
<text text-anchor="start" x="1301" y="-107.5" font-family="Helvetica,sans-Serif" font-size="10.00">src/Kernel/Geometrie</text>
<text text-anchor="start" x="1301" y="-96.5" font-family="Helvetica,sans-Serif" font-size="10.00">/Decoupeur/Partitionneur</text>
<text text-anchor="middle" x="1361.5" y="-85.5" font-family="Helvetica,sans-Serif" font-size="10.00">_Partition.cpp</text>
</a>
</g>
</g>
<!-- Node18&#45;&gt;Node19 -->
<g id="edge19" class="edge">
<title>Node18&#45;&gt;Node19</title>
<path fill="none" stroke="midnightblue" d="M1361.5,-146.3C1361.5,-137.3 1361.5,-127.65 1361.5,-119.51"/>
<polygon fill="midnightblue" stroke="midnightblue" points="1358,-146.43 1361.5,-156.43 1365,-146.43 1358,-146.43"/>
</g>
<!-- Node21 -->
<g id="node21" class="node">
<title>Node21</title>
<g id="a_node21"><a xlink:href="Partitionneur__Ptscotch_8cpp.html" target="_top" xlink:title=" ">
<polygon fill="white" stroke="black" points="1448,-78.5 1448,-119.5 1585,-119.5 1585,-78.5 1448,-78.5"/>
<text text-anchor="start" x="1456" y="-107.5" font-family="Helvetica,sans-Serif" font-size="10.00">src/Kernel/Geometrie</text>
<text text-anchor="start" x="1456" y="-96.5" font-family="Helvetica,sans-Serif" font-size="10.00">/Decoupeur/Partitionneur</text>
<text text-anchor="middle" x="1516.5" y="-85.5" font-family="Helvetica,sans-Serif" font-size="10.00">_Ptscotch.cpp</text>
</a>
</g>
</g>
<!-- Node20&#45;&gt;Node21 -->
<g id="edge21" class="edge">
<title>Node20&#45;&gt;Node21</title>
<path fill="none" stroke="midnightblue" d="M1516.5,-146.3C1516.5,-137.3 1516.5,-127.65 1516.5,-119.51"/>
<polygon fill="midnightblue" stroke="midnightblue" points="1513,-146.43 1516.5,-156.43 1520,-146.43 1513,-146.43"/>
</g>
<!-- Node23 -->
<g id="node23" class="node">
<title>Node23</title>
<g id="a_node23"><a xlink:href="Partitionneur__Sous__Domaine_8cpp.html" target="_top" xlink:title=" ">
<polygon fill="white" stroke="black" points="1603,-78.5 1603,-119.5 1740,-119.5 1740,-78.5 1603,-78.5"/>
<text text-anchor="start" x="1611" y="-107.5" font-family="Helvetica,sans-Serif" font-size="10.00">src/Kernel/Geometrie</text>
<text text-anchor="start" x="1611" y="-96.5" font-family="Helvetica,sans-Serif" font-size="10.00">/Decoupeur/Partitionneur</text>
<text text-anchor="middle" x="1671.5" y="-85.5" font-family="Helvetica,sans-Serif" font-size="10.00">_Sous_Domaine.cpp</text>
</a>
</g>
</g>
<!-- Node22&#45;&gt;Node23 -->
<g id="edge23" class="edge">
<title>Node22&#45;&gt;Node23</title>
<path fill="none" stroke="midnightblue" d="M1671.5,-146.3C1671.5,-137.3 1671.5,-127.65 1671.5,-119.51"/>
<polygon fill="midnightblue" stroke="midnightblue" points="1668,-146.43 1671.5,-156.43 1675,-146.43 1668,-146.43"/>
</g>
<!-- Node25 -->
<g id="node25" class="node">
<title>Node25</title>
<g id="a_node25"><a xlink:href="Partitionneur__Sous__Zones_8cpp.html" target="_top" xlink:title=" ">
<polygon fill="white" stroke="black" points="1758,-78.5 1758,-119.5 1895,-119.5 1895,-78.5 1758,-78.5"/>
<text text-anchor="start" x="1766" y="-107.5" font-family="Helvetica,sans-Serif" font-size="10.00">src/Kernel/Geometrie</text>
<text text-anchor="start" x="1766" y="-96.5" font-family="Helvetica,sans-Serif" font-size="10.00">/Decoupeur/Partitionneur</text>
<text text-anchor="middle" x="1826.5" y="-85.5" font-family="Helvetica,sans-Serif" font-size="10.00">_Sous_Zones.cpp</text>
</a>
</g>
</g>
<!-- Node24&#45;&gt;Node25 -->
<g id="edge25" class="edge">
<title>Node24&#45;&gt;Node25</title>
<path fill="none" stroke="midnightblue" d="M1826.5,-146.3C1826.5,-137.3 1826.5,-127.65 1826.5,-119.51"/>
<polygon fill="midnightblue" stroke="midnightblue" points="1823,-146.43 1826.5,-156.43 1830,-146.43 1823,-146.43"/>
</g>
<!-- Node27 -->
<g id="node27" class="node">
<title>Node27</title>
<g id="a_node27"><a xlink:href="Partitionneur__Tranche_8cpp.html" target="_top" xlink:title=" ">
<polygon fill="white" stroke="black" points="1913,-78.5 1913,-119.5 2050,-119.5 2050,-78.5 1913,-78.5"/>
<text text-anchor="start" x="1921" y="-107.5" font-family="Helvetica,sans-Serif" font-size="10.00">src/Kernel/Geometrie</text>
<text text-anchor="start" x="1921" y="-96.5" font-family="Helvetica,sans-Serif" font-size="10.00">/Decoupeur/Partitionneur</text>
<text text-anchor="middle" x="1981.5" y="-85.5" font-family="Helvetica,sans-Serif" font-size="10.00">_Tranche.cpp</text>
</a>
</g>
</g>
<!-- Node26&#45;&gt;Node27 -->
<g id="edge27" class="edge">
<title>Node26&#45;&gt;Node27</title>
<path fill="none" stroke="midnightblue" d="M1981.5,-146.3C1981.5,-137.3 1981.5,-127.65 1981.5,-119.51"/>
<polygon fill="midnightblue" stroke="midnightblue" points="1978,-146.43 1981.5,-156.43 1985,-146.43 1978,-146.43"/>
</g>
<!-- Node29 -->
<g id="node29" class="node">
<title>Node29</title>
<g id="a_node29"><a xlink:href="Partitionneur__Union_8cpp.html" target="_top" xlink:title=" ">
<polygon fill="white" stroke="black" points="2068,-78.5 2068,-119.5 2205,-119.5 2205,-78.5 2068,-78.5"/>
<text text-anchor="start" x="2076" y="-107.5" font-family="Helvetica,sans-Serif" font-size="10.00">src/Kernel/Geometrie</text>
<text text-anchor="start" x="2076" y="-96.5" font-family="Helvetica,sans-Serif" font-size="10.00">/Decoupeur/Partitionneur</text>
<text text-anchor="middle" x="2136.5" y="-85.5" font-family="Helvetica,sans-Serif" font-size="10.00">_Union.cpp</text>
</a>
</g>
</g>
<!-- Node28&#45;&gt;Node29 -->
<g id="edge29" class="edge">
<title>Node28&#45;&gt;Node29</title>
<path fill="none" stroke="midnightblue" d="M2136.5,-146.3C2136.5,-137.3 2136.5,-127.65 2136.5,-119.51"/>
<polygon fill="midnightblue" stroke="midnightblue" points="2133,-146.43 2136.5,-156.43 2140,-146.43 2133,-146.43"/>
</g>
</g>
</svg>
