<?xml version="1.0" encoding="UTF-8" standalone="no"?>
<!DOCTYPE svg PUBLIC "-//W3C//DTD SVG 1.1//EN"
 "http://www.w3.org/Graphics/SVG/1.1/DTD/svg11.dtd">
<!-- Generated by graphviz version 2.43.0 (0)
 -->
<!-- Title: src/ThHyd/Dilatable/Quasi_Compressible/Problems/Pb_QC_base.h Pages: 1 -->
<svg width="619pt" height="306pt"
 viewBox="0.00 0.00 619.00 306.00" xmlns="http://www.w3.org/2000/svg" xmlns:xlink="http://www.w3.org/1999/xlink">
<g id="graph0" class="graph" transform="scale(1 1) rotate(0) translate(4 302)">
<title>src/ThHyd/Dilatable/Quasi_Compressible/Problems/Pb_QC_base.h</title>
<polygon fill="white" stroke="transparent" points="-4,4 -4,-302 615,-302 615,4 -4,4"/>
<!-- Node1 -->
<g id="node1" class="node">
<title>Node1</title>
<g id="a_node1"><a xlink:title=" ">
<polygon fill="#bfbfbf" stroke="black" points="169,-256.5 169,-297.5 306,-297.5 306,-256.5 169,-256.5"/>
<text text-anchor="start" x="177" y="-285.5" font-family="Helvetica,sans-Serif" font-size="10.00">src/ThHyd/Dilatable</text>
<text text-anchor="start" x="177" y="-274.5" font-family="Helvetica,sans-Serif" font-size="10.00">/Quasi_Compressible</text>
<text text-anchor="middle" x="237.5" y="-263.5" font-family="Helvetica,sans-Serif" font-size="10.00">/Problems/Pb_QC_base.h</text>
</a>
</g>
</g>
<!-- Node2 -->
<g id="node2" class="node">
<title>Node2</title>
<g id="a_node2"><a xlink:href="Pb__Hydraulique__Melange__Binaire__QC_8h.html" target="_top" xlink:title=" ">
<polygon fill="white" stroke="black" points="0,-167.5 0,-219.5 145,-219.5 145,-167.5 0,-167.5"/>
<text text-anchor="start" x="8" y="-207.5" font-family="Helvetica,sans-Serif" font-size="10.00">src/ThHyd/Dilatable</text>
<text text-anchor="start" x="8" y="-196.5" font-family="Helvetica,sans-Serif" font-size="10.00">/Quasi_Compressible</text>
<text text-anchor="start" x="8" y="-185.5" font-family="Helvetica,sans-Serif" font-size="10.00">/Problems/Pb_Hydraulique</text>
<text text-anchor="middle" x="72.5" y="-174.5" font-family="Helvetica,sans-Serif" font-size="10.00">_Melange_Binaire_QC.h</text>
</a>
</g>
</g>
<!-- Node1&#45;&gt;Node2 -->
<g id="edge1" class="edge">
<title>Node1&#45;&gt;Node2</title>
<path fill="none" stroke="midnightblue" d="M188.76,-251.93C168.14,-241.74 144.11,-229.87 123.27,-219.58"/>
<polygon fill="midnightblue" stroke="midnightblue" points="187.46,-255.19 197.98,-256.48 190.56,-248.91 187.46,-255.19"/>
</g>
<!-- Node4 -->
<g id="node4" class="node">
<title>Node4</title>
<g id="a_node4"><a xlink:href="Pb__QC__base_8cpp.html" target="_top" xlink:title=" ">
<polygon fill="white" stroke="black" points="163,-173 163,-214 312,-214 312,-173 163,-173"/>
<text text-anchor="start" x="171" y="-202" font-family="Helvetica,sans-Serif" font-size="10.00">src/ThHyd/Dilatable</text>
<text text-anchor="start" x="171" y="-191" font-family="Helvetica,sans-Serif" font-size="10.00">/Quasi_Compressible</text>
<text text-anchor="middle" x="237.5" y="-180" font-family="Helvetica,sans-Serif" font-size="10.00">/Problems/Pb_QC_base.cpp</text>
</a>
</g>
</g>
<!-- Node1&#45;&gt;Node4 -->
<g id="edge3" class="edge">
<title>Node1&#45;&gt;Node4</title>
<path fill="none" stroke="midnightblue" d="M237.5,-246.06C237.5,-235.38 237.5,-223.63 237.5,-214.05"/>
<polygon fill="midnightblue" stroke="midnightblue" points="234,-246.27 237.5,-256.27 241,-246.27 234,-246.27"/>
</g>
<!-- Node5 -->
<g id="node5" class="node">
<title>Node5</title>
<g id="a_node5"><a xlink:href="Pb__Thermohydraulique__QC_8h.html" target="_top" xlink:title=" ">
<polygon fill="white" stroke="black" points="330,-173 330,-214 539,-214 539,-173 330,-173"/>
<text text-anchor="start" x="338" y="-202" font-family="Helvetica,sans-Serif" font-size="10.00">src/ThHyd/Dilatable</text>
<text text-anchor="start" x="338" y="-191" font-family="Helvetica,sans-Serif" font-size="10.00">/Quasi_Compressible</text>
<text text-anchor="middle" x="434.5" y="-180" font-family="Helvetica,sans-Serif" font-size="10.00">/Problems/Pb_Thermohydraulique_QC.h</text>
</a>
</g>
</g>
<!-- Node1&#45;&gt;Node5 -->
<g id="edge4" class="edge">
<title>Node1&#45;&gt;Node5</title>
<path fill="none" stroke="midnightblue" d="M294.04,-252.61C323.59,-240.39 359.32,-225.6 387.36,-214"/>
<polygon fill="midnightblue" stroke="midnightblue" points="292.59,-249.42 284.69,-256.48 295.26,-255.89 292.59,-249.42"/>
</g>
<!-- Node3 -->
<g id="node3" class="node">
<title>Node3</title>
<g id="a_node3"><a xlink:href="Pb__Hydraulique__Melange__Binaire__QC_8cpp.html" target="_top" xlink:title=" ">
<polygon fill="white" stroke="black" points="0,-78.5 0,-130.5 145,-130.5 145,-78.5 0,-78.5"/>
<text text-anchor="start" x="8" y="-118.5" font-family="Helvetica,sans-Serif" font-size="10.00">src/ThHyd/Dilatable</text>
<text text-anchor="start" x="8" y="-107.5" font-family="Helvetica,sans-Serif" font-size="10.00">/Quasi_Compressible</text>
<text text-anchor="start" x="8" y="-96.5" font-family="Helvetica,sans-Serif" font-size="10.00">/Problems/Pb_Hydraulique</text>
<text text-anchor="middle" x="72.5" y="-85.5" font-family="Helvetica,sans-Serif" font-size="10.00">_Melange_Binaire_QC.cpp</text>
</a>
</g>
</g>
<!-- Node2&#45;&gt;Node3 -->
<g id="edge2" class="edge">
<title>Node2&#45;&gt;Node3</title>
<path fill="none" stroke="midnightblue" d="M72.5,-157.19C72.5,-148.28 72.5,-138.9 72.5,-130.61"/>
<polygon fill="midnightblue" stroke="midnightblue" points="69,-157.34 72.5,-167.34 76,-157.34 69,-157.34"/>
</g>
<!-- Node6 -->
<g id="node6" class="node">
<title>Node6</title>
<g id="a_node6"><a xlink:href="Pb__Multi__Especes_8h.html" target="_top" xlink:title=" ">
<polygon fill="white" stroke="black" points="283.5,-84 283.5,-125 411.5,-125 411.5,-84 283.5,-84"/>
<text text-anchor="start" x="291.5" y="-113" font-family="Helvetica,sans-Serif" font-size="10.00">src/ThHyd/Dilatable</text>
<text text-anchor="start" x="291.5" y="-102" font-family="Helvetica,sans-Serif" font-size="10.00">/Common/Problems/Pb</text>
<text text-anchor="middle" x="347.5" y="-91" font-family="Helvetica,sans-Serif" font-size="10.00">_Multi_Especes.h</text>
</a>
</g>
</g>
<!-- Node5&#45;&gt;Node6 -->
<g id="edge5" class="edge">
<title>Node5&#45;&gt;Node6</title>
<path fill="none" stroke="midnightblue" d="M407.4,-165.4C394.37,-152.37 379.05,-137.05 367.16,-125.16"/>
<polygon fill="midnightblue" stroke="midnightblue" points="405.21,-168.16 414.76,-172.76 410.16,-163.21 405.21,-168.16"/>
</g>
<!-- Node8 -->
<g id="node8" class="node">
<title>Node8</title>
<g id="a_node8"><a xlink:href="Pb__Thermohydraulique__QC_8cpp.html" target="_top" xlink:title=" ">
<polygon fill="white" stroke="black" points="430,-78.5 430,-130.5 611,-130.5 611,-78.5 430,-78.5"/>
<text text-anchor="start" x="438" y="-118.5" font-family="Helvetica,sans-Serif" font-size="10.00">src/ThHyd/Dilatable</text>
<text text-anchor="start" x="438" y="-107.5" font-family="Helvetica,sans-Serif" font-size="10.00">/Quasi_Compressible</text>
<text text-anchor="start" x="438" y="-96.5" font-family="Helvetica,sans-Serif" font-size="10.00">/Problems/Pb_Thermohydraulique</text>
<text text-anchor="middle" x="520.5" y="-85.5" font-family="Helvetica,sans-Serif" font-size="10.00">_QC.cpp</text>
</a>
</g>
</g>
<!-- Node5&#45;&gt;Node8 -->
<g id="edge7" class="edge">
<title>Node5&#45;&gt;Node8</title>
<path fill="none" stroke="midnightblue" d="M461.27,-165.41C472.2,-154.36 484.77,-141.65 495.5,-130.79"/>
<polygon fill="midnightblue" stroke="midnightblue" points="458.56,-163.19 454.01,-172.76 463.53,-168.11 458.56,-163.19"/>
</g>
<!-- Node7 -->
<g id="node7" class="node">
<title>Node7</title>
<g id="a_node7"><a xlink:href="Pb__Multi__Especes_8cpp.html" target="_top" xlink:title=" ">
<polygon fill="white" stroke="black" points="283.5,-0.5 283.5,-41.5 411.5,-41.5 411.5,-0.5 283.5,-0.5"/>
<text text-anchor="start" x="291.5" y="-29.5" font-family="Helvetica,sans-Serif" font-size="10.00">src/ThHyd/Dilatable</text>
<text text-anchor="start" x="291.5" y="-18.5" font-family="Helvetica,sans-Serif" font-size="10.00">/Common/Problems/Pb</text>
<text text-anchor="middle" x="347.5" y="-7.5" font-family="Helvetica,sans-Serif" font-size="10.00">_Multi_Especes.cpp</text>
</a>
</g>
</g>
<!-- Node6&#45;&gt;Node7 -->
<g id="edge6" class="edge">
<title>Node6&#45;&gt;Node7</title>
<path fill="none" stroke="midnightblue" d="M347.5,-73.56C347.5,-62.88 347.5,-51.13 347.5,-41.55"/>
<polygon fill="midnightblue" stroke="midnightblue" points="344,-73.77 347.5,-83.77 351,-73.77 344,-73.77"/>
</g>
</g>
</svg>
