<?xml version="1.0" encoding="UTF-8" standalone="no"?>
<!DOCTYPE svg PUBLIC "-//W3C//DTD SVG 1.1//EN"
 "http://www.w3.org/Graphics/SVG/1.1/DTD/svg11.dtd">
<!-- Generated by graphviz version 2.43.0 (0)
 -->
<!-- Title: src/VEF/Sources/Perte_Charge_VEF.h Pages: 1 -->
<svg width="817pt" height="273pt"
 viewBox="0.00 0.00 817.00 273.00" xmlns="http://www.w3.org/2000/svg" xmlns:xlink="http://www.w3.org/1999/xlink">
<g id="graph0" class="graph" transform="scale(1 1) rotate(0) translate(4 269)">
<title>src/VEF/Sources/Perte_Charge_VEF.h</title>
<polygon fill="white" stroke="transparent" points="-4,4 -4,-269 813,-269 813,4 -4,4"/>
<!-- Node1 -->
<g id="node1" class="node">
<title>Node1</title>
<g id="a_node1"><a xlink:title=" ">
<polygon fill="#bfbfbf" stroke="black" points="389,-234.5 389,-264.5 511,-264.5 511,-234.5 389,-234.5"/>
<text text-anchor="start" x="397" y="-252.5" font-family="Helvetica,sans-Serif" font-size="10.00">src/VEF/Sources/Perte</text>
<text text-anchor="middle" x="450" y="-241.5" font-family="Helvetica,sans-Serif" font-size="10.00">_Charge_VEF.h</text>
</a>
</g>
</g>
<!-- Node2 -->
<g id="node2" class="node">
<title>Node2</title>
<g id="a_node2"><a xlink:href="Perte__Charge__Anisotrope__VEF__P1NC_8h.html" target="_top" xlink:title=" ">
<polygon fill="white" stroke="black" points="531,-156.5 531,-197.5 669,-197.5 669,-156.5 531,-156.5"/>
<text text-anchor="start" x="539" y="-185.5" font-family="Helvetica,sans-Serif" font-size="10.00">src/VEF/Sources/Perte</text>
<text text-anchor="start" x="539" y="-174.5" font-family="Helvetica,sans-Serif" font-size="10.00">_Charge_Anisotrope_VEF</text>
<text text-anchor="middle" x="600" y="-163.5" font-family="Helvetica,sans-Serif" font-size="10.00">_P1NC.h</text>
</a>
</g>
</g>
<!-- Node1&#45;&gt;Node2 -->
<g id="edge1" class="edge">
<title>Node1&#45;&gt;Node2</title>
<path fill="none" stroke="midnightblue" d="M489.09,-230.13C510.38,-220.12 536.74,-207.73 558.41,-197.55"/>
<polygon fill="midnightblue" stroke="midnightblue" points="487.56,-226.98 479.99,-234.4 490.53,-233.32 487.56,-226.98"/>
</g>
<!-- Node6 -->
<g id="node6" class="node">
<title>Node6</title>
<g id="a_node6"><a xlink:href="Perte__Charge__Circulaire__VEF__P1NC_8h.html" target="_top" xlink:title=" ">
<polygon fill="white" stroke="black" points="89,-156.5 89,-197.5 221,-197.5 221,-156.5 89,-156.5"/>
<text text-anchor="start" x="97" y="-185.5" font-family="Helvetica,sans-Serif" font-size="10.00">src/VEF/Sources/Perte</text>
<text text-anchor="start" x="97" y="-174.5" font-family="Helvetica,sans-Serif" font-size="10.00">_Charge_Circulaire_VEF</text>
<text text-anchor="middle" x="155" y="-163.5" font-family="Helvetica,sans-Serif" font-size="10.00">_P1NC.h</text>
</a>
</g>
</g>
<!-- Node1&#45;&gt;Node6 -->
<g id="edge5" class="edge">
<title>Node1&#45;&gt;Node6</title>
<path fill="none" stroke="midnightblue" d="M378.86,-232.83C335.7,-223.16 279.58,-210.3 230,-198 227.12,-197.29 224.19,-196.55 221.22,-195.79"/>
<polygon fill="midnightblue" stroke="midnightblue" points="378.17,-236.27 388.7,-235.03 379.7,-229.43 378.17,-236.27"/>
</g>
<!-- Node8 -->
<g id="node8" class="node">
<title>Node8</title>
<g id="a_node8"><a xlink:href="Perte__Charge__Directionnelle__VEF__P1NC_8h.html" target="_top" xlink:title=" ">
<polygon fill="white" stroke="black" points="239,-156.5 239,-197.5 369,-197.5 369,-156.5 239,-156.5"/>
<text text-anchor="start" x="247" y="-185.5" font-family="Helvetica,sans-Serif" font-size="10.00">src/VEF/Sources/Perte</text>
<text text-anchor="start" x="247" y="-174.5" font-family="Helvetica,sans-Serif" font-size="10.00">_Charge_Directionnelle</text>
<text text-anchor="middle" x="304" y="-163.5" font-family="Helvetica,sans-Serif" font-size="10.00">_VEF_P1NC.h</text>
</a>
</g>
</g>
<!-- Node1&#45;&gt;Node8 -->
<g id="edge8" class="edge">
<title>Node1&#45;&gt;Node8</title>
<path fill="none" stroke="midnightblue" d="M411.68,-230C391,-220.01 365.48,-207.69 344.48,-197.55"/>
<polygon fill="midnightblue" stroke="midnightblue" points="410.28,-233.21 420.81,-234.4 413.32,-226.9 410.28,-233.21"/>
</g>
<!-- Node10 -->
<g id="node10" class="node">
<title>Node10</title>
<g id="a_node10"><a xlink:href="Perte__Charge__Isotrope__VEF__P1NC_8h.html" target="_top" xlink:title=" ">
<polygon fill="white" stroke="black" points="387.5,-156.5 387.5,-197.5 512.5,-197.5 512.5,-156.5 387.5,-156.5"/>
<text text-anchor="start" x="395.5" y="-185.5" font-family="Helvetica,sans-Serif" font-size="10.00">src/VEF/Sources/Perte</text>
<text text-anchor="start" x="395.5" y="-174.5" font-family="Helvetica,sans-Serif" font-size="10.00">_Charge_Isotrope_VEF</text>
<text text-anchor="middle" x="450" y="-163.5" font-family="Helvetica,sans-Serif" font-size="10.00">_P1NC.h</text>
</a>
</g>
</g>
<!-- Node1&#45;&gt;Node10 -->
<g id="edge11" class="edge">
<title>Node1&#45;&gt;Node10</title>
<path fill="none" stroke="midnightblue" d="M450,-223.98C450,-215.35 450,-205.76 450,-197.59"/>
<polygon fill="midnightblue" stroke="midnightblue" points="446.5,-224.23 450,-234.23 453.5,-224.23 446.5,-224.23"/>
</g>
<!-- Node12 -->
<g id="node12" class="node">
<title>Node12</title>
<g id="a_node12"><a xlink:href="Perte__Charge__VEF_8cpp.html" target="_top" xlink:title=" ">
<polygon fill="white" stroke="black" points="687,-162 687,-192 809,-192 809,-162 687,-162"/>
<text text-anchor="start" x="695" y="-180" font-family="Helvetica,sans-Serif" font-size="10.00">src/VEF/Sources/Perte</text>
<text text-anchor="middle" x="748" y="-169" font-family="Helvetica,sans-Serif" font-size="10.00">_Charge_VEF.cpp</text>
</a>
</g>
</g>
<!-- Node1&#45;&gt;Node12 -->
<g id="edge14" class="edge">
<title>Node1&#45;&gt;Node12</title>
<path fill="none" stroke="midnightblue" d="M521.18,-233.89C566.28,-224.35 625.75,-211.24 678,-198 685.23,-196.17 692.84,-194.12 700.28,-192.05"/>
<polygon fill="midnightblue" stroke="midnightblue" points="520.27,-230.5 511.2,-235.99 521.71,-237.35 520.27,-230.5"/>
</g>
<!-- Node3 -->
<g id="node3" class="node">
<title>Node3</title>
<g id="a_node3"><a xlink:href="Source__QC__VEF__P1NC_8h.html" target="_top" xlink:title=" ">
<polygon fill="white" stroke="black" points="298,-78.5 298,-119.5 456,-119.5 456,-78.5 298,-78.5"/>
<text text-anchor="start" x="306" y="-107.5" font-family="Helvetica,sans-Serif" font-size="10.00">src/ThHyd/Dilatable</text>
<text text-anchor="start" x="306" y="-96.5" font-family="Helvetica,sans-Serif" font-size="10.00">/Quasi_Compressible</text>
<text text-anchor="middle" x="377" y="-85.5" font-family="Helvetica,sans-Serif" font-size="10.00">/VEF/Source_QC_VEF_P1NC.h</text>
</a>
</g>
</g>
<!-- Node2&#45;&gt;Node3 -->
<g id="edge2" class="edge">
<title>Node2&#45;&gt;Node3</title>
<path fill="none" stroke="midnightblue" d="M533,-153.17C501.52,-142.44 464.38,-129.78 434.23,-119.51"/>
<polygon fill="midnightblue" stroke="midnightblue" points="531.98,-156.52 542.57,-156.43 534.24,-149.89 531.98,-156.52"/>
</g>
<!-- Node5 -->
<g id="node5" class="node">
<title>Node5</title>
<g id="a_node5"><a xlink:href="Perte__Charge__Anisotrope__VEF__P1NC_8cpp.html" target="_top" xlink:title=" ">
<polygon fill="white" stroke="black" points="617,-78.5 617,-119.5 755,-119.5 755,-78.5 617,-78.5"/>
<text text-anchor="start" x="625" y="-107.5" font-family="Helvetica,sans-Serif" font-size="10.00">src/VEF/Sources/Perte</text>
<text text-anchor="start" x="625" y="-96.5" font-family="Helvetica,sans-Serif" font-size="10.00">_Charge_Anisotrope_VEF</text>
<text text-anchor="middle" x="686" y="-85.5" font-family="Helvetica,sans-Serif" font-size="10.00">_P1NC.cpp</text>
</a>
</g>
</g>
<!-- Node2&#45;&gt;Node5 -->
<g id="edge4" class="edge">
<title>Node2&#45;&gt;Node5</title>
<path fill="none" stroke="midnightblue" d="M629.67,-149.78C640.91,-139.84 653.51,-128.72 663.93,-119.51"/>
<polygon fill="midnightblue" stroke="midnightblue" points="627.32,-147.18 622.15,-156.43 631.96,-152.43 627.32,-147.18"/>
</g>
<!-- Node4 -->
<g id="node4" class="node">
<title>Node4</title>
<g id="a_node4"><a xlink:href="Source__QC__VEF__P1NC_8cpp.html" target="_top" xlink:title=" ">
<polygon fill="white" stroke="black" points="292,-0.5 292,-41.5 462,-41.5 462,-0.5 292,-0.5"/>
<text text-anchor="start" x="300" y="-29.5" font-family="Helvetica,sans-Serif" font-size="10.00">src/ThHyd/Dilatable</text>
<text text-anchor="start" x="300" y="-18.5" font-family="Helvetica,sans-Serif" font-size="10.00">/Quasi_Compressible</text>
<text text-anchor="middle" x="377" y="-7.5" font-family="Helvetica,sans-Serif" font-size="10.00">/VEF/Source_QC_VEF_P1NC.cpp</text>
</a>
</g>
</g>
<!-- Node3&#45;&gt;Node4 -->
<g id="edge3" class="edge">
<title>Node3&#45;&gt;Node4</title>
<path fill="none" stroke="midnightblue" d="M377,-68.3C377,-59.3 377,-49.65 377,-41.51"/>
<polygon fill="midnightblue" stroke="midnightblue" points="373.5,-68.43 377,-78.43 380.5,-68.43 373.5,-68.43"/>
</g>
<!-- Node6&#45;&gt;Node3 -->
<g id="edge6" class="edge">
<title>Node6&#45;&gt;Node3</title>
<path fill="none" stroke="midnightblue" d="M221.7,-153.17C253.04,-142.44 290.02,-129.78 320.02,-119.51"/>
<polygon fill="midnightblue" stroke="midnightblue" points="220.5,-149.88 212.17,-156.43 222.77,-156.5 220.5,-149.88"/>
</g>
<!-- Node7 -->
<g id="node7" class="node">
<title>Node7</title>
<g id="a_node7"><a xlink:href="Perte__Charge__Circulaire__VEF__P1NC_8cpp.html" target="_top" xlink:title=" ">
<polygon fill="white" stroke="black" points="0,-78.5 0,-119.5 132,-119.5 132,-78.5 0,-78.5"/>
<text text-anchor="start" x="8" y="-107.5" font-family="Helvetica,sans-Serif" font-size="10.00">src/VEF/Sources/Perte</text>
<text text-anchor="start" x="8" y="-96.5" font-family="Helvetica,sans-Serif" font-size="10.00">_Charge_Circulaire_VEF</text>
<text text-anchor="middle" x="66" y="-85.5" font-family="Helvetica,sans-Serif" font-size="10.00">_P1NC.cpp</text>
</a>
</g>
</g>
<!-- Node6&#45;&gt;Node7 -->
<g id="edge7" class="edge">
<title>Node6&#45;&gt;Node7</title>
<path fill="none" stroke="midnightblue" d="M124.29,-149.78C112.66,-139.84 99.63,-128.72 88.84,-119.51"/>
<polygon fill="midnightblue" stroke="midnightblue" points="122.2,-152.6 132.08,-156.43 126.75,-147.27 122.2,-152.6"/>
</g>
<!-- Node8&#45;&gt;Node3 -->
<g id="edge9" class="edge">
<title>Node8&#45;&gt;Node3</title>
<path fill="none" stroke="midnightblue" d="M329.74,-149.2C339.14,-139.42 349.59,-128.54 358.26,-119.51"/>
<polygon fill="midnightblue" stroke="midnightblue" points="327.2,-146.79 322.8,-156.43 332.25,-151.64 327.2,-146.79"/>
</g>
<!-- Node9 -->
<g id="node9" class="node">
<title>Node9</title>
<g id="a_node9"><a xlink:href="Perte__Charge__Directionnelle__VEF__P1NC_8cpp.html" target="_top" xlink:title=" ">
<polygon fill="white" stroke="black" points="150,-78.5 150,-119.5 280,-119.5 280,-78.5 150,-78.5"/>
<text text-anchor="start" x="158" y="-107.5" font-family="Helvetica,sans-Serif" font-size="10.00">src/VEF/Sources/Perte</text>
<text text-anchor="start" x="158" y="-96.5" font-family="Helvetica,sans-Serif" font-size="10.00">_Charge_Directionnelle</text>
<text text-anchor="middle" x="215" y="-85.5" font-family="Helvetica,sans-Serif" font-size="10.00">_VEF_P1NC.cpp</text>
</a>
</g>
</g>
<!-- Node8&#45;&gt;Node9 -->
<g id="edge10" class="edge">
<title>Node8&#45;&gt;Node9</title>
<path fill="none" stroke="midnightblue" d="M273.29,-149.78C261.66,-139.84 248.63,-128.72 237.84,-119.51"/>
<polygon fill="midnightblue" stroke="midnightblue" points="271.2,-152.6 281.08,-156.43 275.75,-147.27 271.2,-152.6"/>
</g>
<!-- Node10&#45;&gt;Node3 -->
<g id="edge12" class="edge">
<title>Node10&#45;&gt;Node3</title>
<path fill="none" stroke="midnightblue" d="M424.26,-149.2C414.86,-139.42 404.41,-128.54 395.74,-119.51"/>
<polygon fill="midnightblue" stroke="midnightblue" points="421.75,-151.64 431.2,-156.43 426.8,-146.79 421.75,-151.64"/>
</g>
<!-- Node11 -->
<g id="node11" class="node">
<title>Node11</title>
<g id="a_node11"><a xlink:href="Perte__Charge__Isotrope__VEF__P1NC_8cpp.html" target="_top" xlink:title=" ">
<polygon fill="white" stroke="black" points="473.5,-78.5 473.5,-119.5 598.5,-119.5 598.5,-78.5 473.5,-78.5"/>
<text text-anchor="start" x="481.5" y="-107.5" font-family="Helvetica,sans-Serif" font-size="10.00">src/VEF/Sources/Perte</text>
<text text-anchor="start" x="481.5" y="-96.5" font-family="Helvetica,sans-Serif" font-size="10.00">_Charge_Isotrope_VEF</text>
<text text-anchor="middle" x="536" y="-85.5" font-family="Helvetica,sans-Serif" font-size="10.00">_P1NC.cpp</text>
</a>
</g>
</g>
<!-- Node10&#45;&gt;Node11 -->
<g id="edge13" class="edge">
<title>Node10&#45;&gt;Node11</title>
<path fill="none" stroke="midnightblue" d="M479.67,-149.78C490.91,-139.84 503.51,-128.72 513.93,-119.51"/>
<polygon fill="midnightblue" stroke="midnightblue" points="477.32,-147.18 472.15,-156.43 481.96,-152.43 477.32,-147.18"/>
</g>
</g>
</svg>
