<?xml version="1.0" encoding="UTF-8" standalone="no"?>
<!DOCTYPE svg PUBLIC "-//W3C//DTD SVG 1.1//EN"
 "http://www.w3.org/Graphics/SVG/1.1/DTD/svg11.dtd">
<!-- Generated by graphviz version 2.43.0 (0)
 -->
<!-- Title: src/VEF/Sources/Perte_Charge_Directionnelle_VEF_P1NC.h Pages: 1 -->
<svg width="320pt" height="206pt"
 viewBox="0.00 0.00 320.00 206.00" xmlns="http://www.w3.org/2000/svg" xmlns:xlink="http://www.w3.org/1999/xlink">
<g id="graph0" class="graph" transform="scale(1 1) rotate(0) translate(4 202)">
<title>src/VEF/Sources/Perte_Charge_Directionnelle_VEF_P1NC.h</title>
<polygon fill="white" stroke="transparent" points="-4,4 -4,-202 316,-202 316,4 -4,4"/>
<!-- Node1 -->
<g id="node1" class="node">
<title>Node1</title>
<g id="a_node1"><a xlink:title=" ">
<polygon fill="#bfbfbf" stroke="black" points="101,-156.5 101,-197.5 231,-197.5 231,-156.5 101,-156.5"/>
<text text-anchor="start" x="109" y="-185.5" font-family="Helvetica,sans-Serif" font-size="10.00">src/VEF/Sources/Perte</text>
<text text-anchor="start" x="109" y="-174.5" font-family="Helvetica,sans-Serif" font-size="10.00">_Charge_Directionnelle</text>
<text text-anchor="middle" x="166" y="-163.5" font-family="Helvetica,sans-Serif" font-size="10.00">_VEF_P1NC.h</text>
</a>
</g>
</g>
<!-- Node2 -->
<g id="node2" class="node">
<title>Node2</title>
<g id="a_node2"><a xlink:href="Source__QC__VEF__P1NC_8h.html" target="_top" xlink:title=" ">
<polygon fill="white" stroke="black" points="6,-78.5 6,-119.5 164,-119.5 164,-78.5 6,-78.5"/>
<text text-anchor="start" x="14" y="-107.5" font-family="Helvetica,sans-Serif" font-size="10.00">src/ThHyd/Dilatable</text>
<text text-anchor="start" x="14" y="-96.5" font-family="Helvetica,sans-Serif" font-size="10.00">/Quasi_Compressible</text>
<text text-anchor="middle" x="85" y="-85.5" font-family="Helvetica,sans-Serif" font-size="10.00">/VEF/Source_QC_VEF_P1NC.h</text>
</a>
</g>
</g>
<!-- Node1&#45;&gt;Node2 -->
<g id="edge1" class="edge">
<title>Node1&#45;&gt;Node2</title>
<path fill="none" stroke="midnightblue" d="M137.75,-149.49C127.24,-139.63 115.51,-128.63 105.79,-119.51"/>
<polygon fill="midnightblue" stroke="midnightblue" points="135.45,-152.14 145.14,-156.43 140.24,-147.03 135.45,-152.14"/>
</g>
<!-- Node4 -->
<g id="node4" class="node">
<title>Node4</title>
<g id="a_node4"><a xlink:href="Perte__Charge__Directionnelle__VEF__P1NC_8cpp.html" target="_top" xlink:title=" ">
<polygon fill="white" stroke="black" points="182,-78.5 182,-119.5 312,-119.5 312,-78.5 182,-78.5"/>
<text text-anchor="start" x="190" y="-107.5" font-family="Helvetica,sans-Serif" font-size="10.00">src/VEF/Sources/Perte</text>
<text text-anchor="start" x="190" y="-96.5" font-family="Helvetica,sans-Serif" font-size="10.00">_Charge_Directionnelle</text>
<text text-anchor="middle" x="247" y="-85.5" font-family="Helvetica,sans-Serif" font-size="10.00">_VEF_P1NC.cpp</text>
</a>
</g>
</g>
<!-- Node1&#45;&gt;Node4 -->
<g id="edge3" class="edge">
<title>Node1&#45;&gt;Node4</title>
<path fill="none" stroke="midnightblue" d="M194.25,-149.49C204.76,-139.63 216.49,-128.63 226.21,-119.51"/>
<polygon fill="midnightblue" stroke="midnightblue" points="191.76,-147.03 186.86,-156.43 196.55,-152.14 191.76,-147.03"/>
</g>
<!-- Node3 -->
<g id="node3" class="node">
<title>Node3</title>
<g id="a_node3"><a xlink:href="Source__QC__VEF__P1NC_8cpp.html" target="_top" xlink:title=" ">
<polygon fill="white" stroke="black" points="0,-0.5 0,-41.5 170,-41.5 170,-0.5 0,-0.5"/>
<text text-anchor="start" x="8" y="-29.5" font-family="Helvetica,sans-Serif" font-size="10.00">src/ThHyd/Dilatable</text>
<text text-anchor="start" x="8" y="-18.5" font-family="Helvetica,sans-Serif" font-size="10.00">/Quasi_Compressible</text>
<text text-anchor="middle" x="85" y="-7.5" font-family="Helvetica,sans-Serif" font-size="10.00">/VEF/Source_QC_VEF_P1NC.cpp</text>
</a>
</g>
</g>
<!-- Node2&#45;&gt;Node3 -->
<g id="edge2" class="edge">
<title>Node2&#45;&gt;Node3</title>
<path fill="none" stroke="midnightblue" d="M85,-68.3C85,-59.3 85,-49.65 85,-41.51"/>
<polygon fill="midnightblue" stroke="midnightblue" points="81.5,-68.43 85,-78.43 88.5,-68.43 81.5,-68.43"/>
</g>
</g>
</svg>
