<?xml version="1.0" encoding="UTF-8" standalone="no"?>
<!DOCTYPE svg PUBLIC "-//W3C//DTD SVG 1.1//EN"
 "http://www.w3.org/Graphics/SVG/1.1/DTD/svg11.dtd">
<!-- Generated by graphviz version 2.43.0 (0)
 -->
<!-- Title: src/PolyMAC/Zones/PolyMAC_discretisation.h Pages: 1 -->
<svg width="512pt" height="184pt"
 viewBox="0.00 0.00 512.00 184.00" xmlns="http://www.w3.org/2000/svg" xmlns:xlink="http://www.w3.org/1999/xlink">
<g id="graph0" class="graph" transform="scale(1 1) rotate(0) translate(4 180)">
<title>src/PolyMAC/Zones/PolyMAC_discretisation.h</title>
<polygon fill="white" stroke="transparent" points="-4,4 -4,-180 508,-180 508,4 -4,4"/>
<!-- Node1 -->
<g id="node1" class="node">
<title>Node1</title>
<g id="a_node1"><a xlink:title=" ">
<polygon fill="#bfbfbf" stroke="black" points="259,-145.5 259,-175.5 416,-175.5 416,-145.5 259,-145.5"/>
<text text-anchor="start" x="267" y="-163.5" font-family="Helvetica,sans-Serif" font-size="10.00">src/PolyMAC/Zones/PolyMAC</text>
<text text-anchor="middle" x="337.5" y="-152.5" font-family="Helvetica,sans-Serif" font-size="10.00">_discretisation.h</text>
</a>
</g>
</g>
<!-- Node2 -->
<g id="node2" class="node">
<title>Node2</title>
<g id="a_node2"><a xlink:href="PolyMAC__P0__discretisation_8h.html" target="_top" xlink:title=" ">
<polygon fill="white" stroke="black" points="172,-78.5 172,-108.5 329,-108.5 329,-78.5 172,-78.5"/>
<text text-anchor="start" x="180" y="-96.5" font-family="Helvetica,sans-Serif" font-size="10.00">src/PolyMAC/Zones/PolyMAC</text>
<text text-anchor="middle" x="250.5" y="-85.5" font-family="Helvetica,sans-Serif" font-size="10.00">_P0_discretisation.h</text>
</a>
</g>
</g>
<!-- Node1&#45;&gt;Node2 -->
<g id="edge1" class="edge">
<title>Node1&#45;&gt;Node2</title>
<path fill="none" stroke="midnightblue" d="M310.29,-139.17C296.98,-129.23 281.3,-117.51 269.34,-108.58"/>
<polygon fill="midnightblue" stroke="midnightblue" points="308.52,-142.21 318.62,-145.4 312.71,-136.61 308.52,-142.21"/>
</g>
<!-- Node6 -->
<g id="node6" class="node">
<title>Node6</title>
<g id="a_node6"><a xlink:href="PolyMAC__discretisation_8cpp.html" target="_top" xlink:title=" ">
<polygon fill="white" stroke="black" points="347,-78.5 347,-108.5 504,-108.5 504,-78.5 347,-78.5"/>
<text text-anchor="start" x="355" y="-96.5" font-family="Helvetica,sans-Serif" font-size="10.00">src/PolyMAC/Zones/PolyMAC</text>
<text text-anchor="middle" x="425.5" y="-85.5" font-family="Helvetica,sans-Serif" font-size="10.00">_discretisation.cpp</text>
</a>
</g>
</g>
<!-- Node1&#45;&gt;Node6 -->
<g id="edge5" class="edge">
<title>Node1&#45;&gt;Node6</title>
<path fill="none" stroke="midnightblue" d="M364.64,-139.45C378.18,-129.45 394.23,-117.6 406.44,-108.58"/>
<polygon fill="midnightblue" stroke="midnightblue" points="362.56,-136.64 356.59,-145.4 366.72,-142.27 362.56,-136.64"/>
</g>
<!-- Node3 -->
<g id="node3" class="node">
<title>Node3</title>
<g id="a_node3"><a xlink:href="Op__Diff__Turbulent__PolyMAC__P0__Elem_8cpp.html" target="_top" xlink:title=" ">
<polygon fill="white" stroke="black" points="0,-0.5 0,-41.5 155,-41.5 155,-0.5 0,-0.5"/>
<text text-anchor="start" x="8" y="-29.5" font-family="Helvetica,sans-Serif" font-size="10.00">src/PolyMAC/Operateurs</text>
<text text-anchor="start" x="8" y="-18.5" font-family="Helvetica,sans-Serif" font-size="10.00">/Op_Diff_Turbulent_PolyMAC</text>
<text text-anchor="middle" x="77.5" y="-7.5" font-family="Helvetica,sans-Serif" font-size="10.00">_P0_Elem.cpp</text>
</a>
</g>
</g>
<!-- Node2&#45;&gt;Node3 -->
<g id="edge2" class="edge">
<title>Node2&#45;&gt;Node3</title>
<path fill="none" stroke="midnightblue" d="M206.41,-74.53C181.68,-64.45 150.8,-51.87 125.46,-41.55"/>
<polygon fill="midnightblue" stroke="midnightblue" points="205.33,-77.87 215.91,-78.4 207.97,-71.39 205.33,-77.87"/>
</g>
<!-- Node4 -->
<g id="node4" class="node">
<title>Node4</title>
<g id="a_node4"><a xlink:href="Op__Diff__Turbulent__PolyMAC__P0__Face_8cpp.html" target="_top" xlink:title=" ">
<polygon fill="white" stroke="black" points="173,-0.5 173,-41.5 328,-41.5 328,-0.5 173,-0.5"/>
<text text-anchor="start" x="181" y="-29.5" font-family="Helvetica,sans-Serif" font-size="10.00">src/PolyMAC/Operateurs</text>
<text text-anchor="start" x="181" y="-18.5" font-family="Helvetica,sans-Serif" font-size="10.00">/Op_Diff_Turbulent_PolyMAC</text>
<text text-anchor="middle" x="250.5" y="-7.5" font-family="Helvetica,sans-Serif" font-size="10.00">_P0_Face.cpp</text>
</a>
</g>
</g>
<!-- Node2&#45;&gt;Node4 -->
<g id="edge3" class="edge">
<title>Node2&#45;&gt;Node4</title>
<path fill="none" stroke="midnightblue" d="M250.5,-67.98C250.5,-59.35 250.5,-49.76 250.5,-41.59"/>
<polygon fill="midnightblue" stroke="midnightblue" points="247,-68.23 250.5,-78.23 254,-68.23 247,-68.23"/>
</g>
<!-- Node5 -->
<g id="node5" class="node">
<title>Node5</title>
<g id="a_node5"><a xlink:href="PolyMAC__P0__discretisation_8cpp.html" target="_top" xlink:title=" ">
<polygon fill="white" stroke="black" points="346,-6 346,-36 503,-36 503,-6 346,-6"/>
<text text-anchor="start" x="354" y="-24" font-family="Helvetica,sans-Serif" font-size="10.00">src/PolyMAC/Zones/PolyMAC</text>
<text text-anchor="middle" x="424.5" y="-13" font-family="Helvetica,sans-Serif" font-size="10.00">_P0_discretisation.cpp</text>
</a>
</g>
</g>
<!-- Node2&#45;&gt;Node5 -->
<g id="edge4" class="edge">
<title>Node2&#45;&gt;Node5</title>
<path fill="none" stroke="midnightblue" d="M294.93,-74.5C324.4,-62.56 362.52,-47.11 389.77,-36.07"/>
<polygon fill="midnightblue" stroke="midnightblue" points="293.25,-71.4 285.29,-78.4 295.88,-77.89 293.25,-71.4"/>
</g>
</g>
</svg>
