<?xml version="1.0" encoding="UTF-8" standalone="no"?>
<!DOCTYPE svg PUBLIC "-//W3C//DTD SVG 1.1//EN"
 "http://www.w3.org/Graphics/SVG/1.1/DTD/svg11.dtd">
<!-- Generated by graphviz version 2.43.0 (0)
 -->
<!-- Title: src/ThHyd/Multiphase/Correlations/Portance_interfaciale_base.h Pages: 1 -->
<svg width="489pt" height="206pt"
 viewBox="0.00 0.00 489.00 206.00" xmlns="http://www.w3.org/2000/svg" xmlns:xlink="http://www.w3.org/1999/xlink">
<g id="graph0" class="graph" transform="scale(1 1) rotate(0) translate(4 202)">
<title>src/ThHyd/Multiphase/Correlations/Portance_interfaciale_base.h</title>
<polygon fill="white" stroke="transparent" points="-4,4 -4,-202 485,-202 485,4 -4,4"/>
<!-- Node1 -->
<g id="node1" class="node">
<title>Node1</title>
<g id="a_node1"><a xlink:title=" ">
<polygon fill="#bfbfbf" stroke="black" points="167.5,-156.5 167.5,-197.5 292.5,-197.5 292.5,-156.5 167.5,-156.5"/>
<text text-anchor="start" x="175.5" y="-185.5" font-family="Helvetica,sans-Serif" font-size="10.00">src/ThHyd/Multiphase</text>
<text text-anchor="start" x="175.5" y="-174.5" font-family="Helvetica,sans-Serif" font-size="10.00">/Correlations/Portance</text>
<text text-anchor="middle" x="230" y="-163.5" font-family="Helvetica,sans-Serif" font-size="10.00">_interfaciale_base.h</text>
</a>
</g>
</g>
<!-- Node2 -->
<g id="node2" class="node">
<title>Node2</title>
<g id="a_node2"><a xlink:href="Portance__interfaciale__Tomiyama_8h.html" target="_top" xlink:title=" ">
<polygon fill="white" stroke="black" points="5.5,-78.5 5.5,-119.5 148.5,-119.5 148.5,-78.5 5.5,-78.5"/>
<text text-anchor="start" x="13.5" y="-107.5" font-family="Helvetica,sans-Serif" font-size="10.00">src/ThHyd/Multiphase</text>
<text text-anchor="start" x="13.5" y="-96.5" font-family="Helvetica,sans-Serif" font-size="10.00">/Correlations/Portance</text>
<text text-anchor="middle" x="77" y="-85.5" font-family="Helvetica,sans-Serif" font-size="10.00">_interfaciale_Tomiyama.h</text>
</a>
</g>
</g>
<!-- Node1&#45;&gt;Node2 -->
<g id="edge1" class="edge">
<title>Node1&#45;&gt;Node2</title>
<path fill="none" stroke="midnightblue" d="M181.5,-151.91C160.46,-141.46 136.15,-129.38 116.27,-119.51"/>
<polygon fill="midnightblue" stroke="midnightblue" points="180.09,-155.11 190.6,-156.43 183.2,-148.84 180.09,-155.11"/>
</g>
<!-- Node4 -->
<g id="node4" class="node">
<title>Node4</title>
<g id="a_node4"><a xlink:href="Portance__interfaciale__base_8cpp.html" target="_top" xlink:title=" ">
<polygon fill="white" stroke="black" points="167,-78.5 167,-119.5 293,-119.5 293,-78.5 167,-78.5"/>
<text text-anchor="start" x="175" y="-107.5" font-family="Helvetica,sans-Serif" font-size="10.00">src/ThHyd/Multiphase</text>
<text text-anchor="start" x="175" y="-96.5" font-family="Helvetica,sans-Serif" font-size="10.00">/Correlations/Portance</text>
<text text-anchor="middle" x="230" y="-85.5" font-family="Helvetica,sans-Serif" font-size="10.00">_interfaciale_base.cpp</text>
</a>
</g>
</g>
<!-- Node1&#45;&gt;Node4 -->
<g id="edge3" class="edge">
<title>Node1&#45;&gt;Node4</title>
<path fill="none" stroke="midnightblue" d="M230,-146.3C230,-137.3 230,-127.65 230,-119.51"/>
<polygon fill="midnightblue" stroke="midnightblue" points="226.5,-146.43 230,-156.43 233.5,-146.43 226.5,-146.43"/>
</g>
<!-- Node5 -->
<g id="node5" class="node">
<title>Node5</title>
<g id="a_node5"><a xlink:href="Portance__interfaciale__PolyMAC__P0_8cpp.html" target="_top" xlink:title=" ">
<polygon fill="white" stroke="black" points="311,-78.5 311,-119.5 481,-119.5 481,-78.5 311,-78.5"/>
<text text-anchor="start" x="319" y="-107.5" font-family="Helvetica,sans-Serif" font-size="10.00">src/ThHyd/Multiphase</text>
<text text-anchor="start" x="319" y="-96.5" font-family="Helvetica,sans-Serif" font-size="10.00">/PolyMAC/Portance_interfaciale</text>
<text text-anchor="middle" x="396" y="-85.5" font-family="Helvetica,sans-Serif" font-size="10.00">_PolyMAC_P0.cpp</text>
</a>
</g>
</g>
<!-- Node1&#45;&gt;Node5 -->
<g id="edge4" class="edge">
<title>Node1&#45;&gt;Node5</title>
<path fill="none" stroke="midnightblue" d="M282.01,-152.19C304.97,-141.67 331.63,-129.47 353.4,-119.51"/>
<polygon fill="midnightblue" stroke="midnightblue" points="280.38,-149.08 272.75,-156.43 283.3,-155.45 280.38,-149.08"/>
</g>
<!-- Node3 -->
<g id="node3" class="node">
<title>Node3</title>
<g id="a_node3"><a xlink:href="Portance__interfaciale__Tomiyama_8cpp.html" target="_top" xlink:title=" ">
<polygon fill="white" stroke="black" points="0,-0.5 0,-41.5 154,-41.5 154,-0.5 0,-0.5"/>
<text text-anchor="start" x="8" y="-29.5" font-family="Helvetica,sans-Serif" font-size="10.00">src/ThHyd/Multiphase</text>
<text text-anchor="start" x="8" y="-18.5" font-family="Helvetica,sans-Serif" font-size="10.00">/Correlations/Portance</text>
<text text-anchor="middle" x="77" y="-7.5" font-family="Helvetica,sans-Serif" font-size="10.00">_interfaciale_Tomiyama.cpp</text>
</a>
</g>
</g>
<!-- Node2&#45;&gt;Node3 -->
<g id="edge2" class="edge">
<title>Node2&#45;&gt;Node3</title>
<path fill="none" stroke="midnightblue" d="M77,-68.3C77,-59.3 77,-49.65 77,-41.51"/>
<polygon fill="midnightblue" stroke="midnightblue" points="73.5,-68.43 77,-78.43 80.5,-68.43 73.5,-68.43"/>
</g>
</g>
</svg>
