<?xml version="1.0" encoding="UTF-8" standalone="no"?>
<!DOCTYPE svg PUBLIC "-//W3C//DTD SVG 1.1//EN"
 "http://www.w3.org/Graphics/SVG/1.1/DTD/svg11.dtd">
<!-- Generated by graphviz version 2.43.0 (0)
 -->
<!-- Title: src/Kernel/Framework/Postraitement_base.h Pages: 1 -->
<svg width="3801pt" height="340pt"
 viewBox="0.00 0.00 3800.50 340.00" xmlns="http://www.w3.org/2000/svg" xmlns:xlink="http://www.w3.org/1999/xlink">
<g id="graph0" class="graph" transform="scale(1 1) rotate(0) translate(4 336)">
<title>src/Kernel/Framework/Postraitement_base.h</title>
<polygon fill="white" stroke="transparent" points="-4,4 -4,-336 3796.5,-336 3796.5,4 -4,4"/>
<!-- Node1 -->
<g id="node1" class="node">
<title>Node1</title>
<g id="a_node1"><a xlink:title=" ">
<polygon fill="#bfbfbf" stroke="black" points="2593,-301.5 2593,-331.5 2719,-331.5 2719,-301.5 2593,-301.5"/>
<text text-anchor="start" x="2601" y="-319.5" font-family="Helvetica,sans-Serif" font-size="10.00">src/Kernel/Framework</text>
<text text-anchor="middle" x="2656" y="-308.5" font-family="Helvetica,sans-Serif" font-size="10.00">/Postraitement_base.h</text>
</a>
</g>
</g>
<!-- Node2 -->
<g id="node2" class="node">
<title>Node2</title>
<g id="a_node2"><a xlink:href="Postraitement_8h.html" target="_top" xlink:title=" ">
<polygon fill="white" stroke="black" points="1821,-234.5 1821,-264.5 1943,-264.5 1943,-234.5 1821,-234.5"/>
<text text-anchor="start" x="1829" y="-252.5" font-family="Helvetica,sans-Serif" font-size="10.00">src/Kernel/Framework</text>
<text text-anchor="middle" x="1882" y="-241.5" font-family="Helvetica,sans-Serif" font-size="10.00">/Postraitement.h</text>
</a>
</g>
</g>
<!-- Node1&#45;&gt;Node2 -->
<g id="edge1" class="edge">
<title>Node1&#45;&gt;Node2</title>
<path fill="none" stroke="midnightblue" d="M2582.83,-309.36C2430.94,-296.6 2083.86,-267.45 1943.05,-255.63"/>
<polygon fill="midnightblue" stroke="midnightblue" points="2582.73,-312.86 2592.99,-310.21 2583.32,-305.88 2582.73,-312.86"/>
</g>
<!-- Node24 -->
<g id="node24" class="node">
<title>Node24</title>
<g id="a_node24"><a xlink:href="Postraitements_8cpp.html" target="_top" xlink:title=" ">
<polygon fill="white" stroke="black" points="0,-156.5 0,-186.5 122,-186.5 122,-156.5 0,-156.5"/>
<text text-anchor="start" x="8" y="-174.5" font-family="Helvetica,sans-Serif" font-size="10.00">src/Kernel/Framework</text>
<text text-anchor="middle" x="61" y="-163.5" font-family="Helvetica,sans-Serif" font-size="10.00">/Postraitements.cpp</text>
</a>
</g>
</g>
<!-- Node1&#45;&gt;Node24 -->
<g id="edge45" class="edge">
<title>Node1&#45;&gt;Node24</title>
<path fill="none" stroke="midnightblue" d="M2582.9,-315.07C2220.92,-312.51 618.44,-295.76 131,-198 118.32,-195.46 104.86,-191.01 93.17,-186.53"/>
<polygon fill="midnightblue" stroke="midnightblue" points="2582.97,-318.57 2592.99,-315.14 2583.01,-311.57 2582.97,-318.57"/>
</g>
<!-- Node37 -->
<g id="node37" class="node">
<title>Node37</title>
<g id="a_node37"><a xlink:href="Postraitement__base_8cpp.html" target="_top" xlink:title=" ">
<polygon fill="white" stroke="black" points="2587.5,-234.5 2587.5,-264.5 2724.5,-264.5 2724.5,-234.5 2587.5,-234.5"/>
<text text-anchor="start" x="2595.5" y="-252.5" font-family="Helvetica,sans-Serif" font-size="10.00">src/Kernel/Framework</text>
<text text-anchor="middle" x="2656" y="-241.5" font-family="Helvetica,sans-Serif" font-size="10.00">/Postraitement_base.cpp</text>
</a>
</g>
</g>
<!-- Node1&#45;&gt;Node37 -->
<g id="edge40" class="edge">
<title>Node1&#45;&gt;Node37</title>
<path fill="none" stroke="midnightblue" d="M2656,-291.11C2656,-282.15 2656,-272.32 2656,-264.58"/>
<polygon fill="midnightblue" stroke="midnightblue" points="2652.5,-291.4 2656,-301.4 2659.5,-291.4 2652.5,-291.4"/>
</g>
<!-- Node38 -->
<g id="node38" class="node">
<title>Node38</title>
<g id="a_node38"><a xlink:href="Postraitement__lata_8h.html" target="_top" xlink:title=" ">
<polygon fill="white" stroke="black" points="3369,-234.5 3369,-264.5 3491,-264.5 3491,-234.5 3369,-234.5"/>
<text text-anchor="start" x="3377" y="-252.5" font-family="Helvetica,sans-Serif" font-size="10.00">src/Kernel/Framework</text>
<text text-anchor="middle" x="3430" y="-241.5" font-family="Helvetica,sans-Serif" font-size="10.00">/Postraitement_lata.h</text>
</a>
</g>
</g>
<!-- Node1&#45;&gt;Node38 -->
<g id="edge41" class="edge">
<title>Node1&#45;&gt;Node38</title>
<path fill="none" stroke="midnightblue" d="M2729.17,-309.36C2881.06,-296.6 3228.14,-267.45 3368.95,-255.63"/>
<polygon fill="midnightblue" stroke="midnightblue" points="2728.68,-305.88 2719.01,-310.21 2729.27,-312.86 2728.68,-305.88"/>
</g>
<!-- Node42 -->
<g id="node42" class="node">
<title>Node42</title>
<g id="a_node42"><a xlink:href="VDF__discretisation_8cpp.html" target="_top" xlink:title=" ">
<polygon fill="white" stroke="black" points="3509,-240 3509,-259 3711,-259 3711,-240 3509,-240"/>
<text text-anchor="middle" x="3610" y="-247" font-family="Helvetica,sans-Serif" font-size="10.00">src/VDF/Zones/VDF_discretisation.cpp</text>
</a>
</g>
</g>
<!-- Node1&#45;&gt;Node42 -->
<g id="edge46" class="edge">
<title>Node1&#45;&gt;Node42</title>
<path fill="none" stroke="midnightblue" d="M2729.34,-312.87C2875.97,-307.23 3215.68,-292.21 3500,-265 3516.68,-263.4 3534.73,-261.22 3551.29,-259.03"/>
<polygon fill="midnightblue" stroke="midnightblue" points="2728.98,-309.38 2719.12,-313.26 2729.24,-316.38 2728.98,-309.38"/>
</g>
<!-- Node3 -->
<g id="node3" class="node">
<title>Node3</title>
<g id="a_node3"><a xlink:href="Champ__Generique__Correlation_8cpp.html" target="_top" xlink:title=" ">
<polygon fill="white" stroke="black" points="2531,-156.5 2531,-186.5 2683,-186.5 2683,-156.5 2531,-156.5"/>
<text text-anchor="start" x="2539" y="-174.5" font-family="Helvetica,sans-Serif" font-size="10.00">src/Kernel/Champs/Champ</text>
<text text-anchor="middle" x="2607" y="-163.5" font-family="Helvetica,sans-Serif" font-size="10.00">_Generique_Correlation.cpp</text>
</a>
</g>
</g>
<!-- Node2&#45;&gt;Node3 -->
<g id="edge2" class="edge">
<title>Node2&#45;&gt;Node3</title>
<path fill="none" stroke="midnightblue" d="M1953.07,-247.81C2071.87,-245.56 2317.88,-236.22 2522,-198 2536.69,-195.25 2552.45,-190.92 2566.36,-186.61"/>
<polygon fill="midnightblue" stroke="midnightblue" points="1952.94,-244.31 1943.01,-247.99 1953.07,-251.31 1952.94,-244.31"/>
</g>
<!-- Node4 -->
<g id="node4" class="node">
<title>Node4</title>
<g id="a_node4"><a xlink:href="Champ__Generique__Ecart__Type_8cpp.html" target="_top" xlink:title=" ">
<polygon fill="white" stroke="black" points="2701,-156.5 2701,-186.5 2851,-186.5 2851,-156.5 2701,-156.5"/>
<text text-anchor="start" x="2709" y="-174.5" font-family="Helvetica,sans-Serif" font-size="10.00">src/Kernel/Champs/Champ</text>
<text text-anchor="middle" x="2776" y="-163.5" font-family="Helvetica,sans-Serif" font-size="10.00">_Generique_Ecart_Type.cpp</text>
</a>
</g>
</g>
<!-- Node2&#45;&gt;Node4 -->
<g id="edge3" class="edge">
<title>Node2&#45;&gt;Node4</title>
<path fill="none" stroke="midnightblue" d="M1953.12,-246.19C2123.46,-240.31 2551.11,-223.42 2692,-198 2706.7,-195.35 2722.45,-190.99 2736.3,-186.62"/>
<polygon fill="midnightblue" stroke="midnightblue" points="1952.88,-242.69 1943.01,-246.53 1953.12,-249.69 1952.88,-242.69"/>
</g>
<!-- Node5 -->
<g id="node5" class="node">
<title>Node5</title>
<g id="a_node5"><a xlink:href="Champ__Generique__Extraction_8cpp.html" target="_top" xlink:title=" ">
<polygon fill="white" stroke="black" points="1800.5,-73 1800.5,-103 1947.5,-103 1947.5,-73 1800.5,-73"/>
<text text-anchor="start" x="1808.5" y="-91" font-family="Helvetica,sans-Serif" font-size="10.00">src/Kernel/Champs/Champ</text>
<text text-anchor="middle" x="1874" y="-80" font-family="Helvetica,sans-Serif" font-size="10.00">_Generique_Extraction.cpp</text>
</a>
</g>
</g>
<!-- Node2&#45;&gt;Node5 -->
<g id="edge4" class="edge">
<title>Node2&#45;&gt;Node5</title>
<path fill="none" stroke="midnightblue" d="M1953.27,-247.48C2173.28,-243.97 2828.85,-230.8 2860,-198 2876.22,-180.92 2876.32,-161.98 2860,-145 2825.21,-108.8 2006.73,-115.91 1957,-109 1946.72,-107.57 1935.86,-105.43 1925.5,-103.07"/>
<polygon fill="midnightblue" stroke="midnightblue" points="1953.07,-243.98 1943.13,-247.64 1953.18,-250.98 1953.07,-243.98"/>
</g>
<!-- Node6 -->
<g id="node6" class="node">
<title>Node6</title>
<g id="a_node6"><a xlink:href="Champ__Generique__Interpolation_8cpp.html" target="_top" xlink:title=" ">
<polygon fill="white" stroke="black" points="3185,-156.5 3185,-186.5 3345,-186.5 3345,-156.5 3185,-156.5"/>
<text text-anchor="start" x="3193" y="-174.5" font-family="Helvetica,sans-Serif" font-size="10.00">src/Kernel/Champs/Champ</text>
<text text-anchor="middle" x="3265" y="-163.5" font-family="Helvetica,sans-Serif" font-size="10.00">_Generique_Interpolation.cpp</text>
</a>
</g>
</g>
<!-- Node2&#45;&gt;Node6 -->
<g id="edge5" class="edge">
<title>Node2&#45;&gt;Node6</title>
<path fill="none" stroke="midnightblue" d="M1953.43,-246.64C2206.38,-239.94 3050.77,-216.42 3171,-198 3187.71,-195.44 3205.71,-190.99 3221.44,-186.51"/>
<polygon fill="midnightblue" stroke="midnightblue" points="1953.16,-243.15 1943.26,-246.91 1953.35,-250.15 1953.16,-243.15"/>
</g>
<!-- Node7 -->
<g id="node7" class="node">
<title>Node7</title>
<g id="a_node7"><a xlink:href="Champ__Generique__Moyenne_8cpp.html" target="_top" xlink:title=" ">
<polygon fill="white" stroke="black" points="140.5,-156.5 140.5,-186.5 285.5,-186.5 285.5,-156.5 140.5,-156.5"/>
<text text-anchor="start" x="148.5" y="-174.5" font-family="Helvetica,sans-Serif" font-size="10.00">src/Kernel/Champs/Champ</text>
<text text-anchor="middle" x="213" y="-163.5" font-family="Helvetica,sans-Serif" font-size="10.00">_Generique_Moyenne.cpp</text>
</a>
</g>
</g>
<!-- Node2&#45;&gt;Node7 -->
<g id="edge6" class="edge">
<title>Node2&#45;&gt;Node7</title>
<path fill="none" stroke="midnightblue" d="M1810.54,-247.38C1521.13,-242.67 444.42,-223.57 294,-198 279.47,-195.53 263.93,-191.1 250.39,-186.61"/>
<polygon fill="midnightblue" stroke="midnightblue" points="1810.85,-250.88 1820.9,-247.54 1810.96,-243.88 1810.85,-250.88"/>
</g>
<!-- Node8 -->
<g id="node8" class="node">
<title>Node8</title>
<g id="a_node8"><a xlink:href="Champ__Generique__Transformation_8cpp.html" target="_top" xlink:title=" ">
<polygon fill="white" stroke="black" points="303.5,-156.5 303.5,-186.5 474.5,-186.5 474.5,-156.5 303.5,-156.5"/>
<text text-anchor="start" x="311.5" y="-174.5" font-family="Helvetica,sans-Serif" font-size="10.00">src/Kernel/Champs/Champ</text>
<text text-anchor="middle" x="389" y="-163.5" font-family="Helvetica,sans-Serif" font-size="10.00">_Generique_Transformation.cpp</text>
</a>
</g>
</g>
<!-- Node2&#45;&gt;Node8 -->
<g id="edge7" class="edge">
<title>Node2&#45;&gt;Node8</title>
<path fill="none" stroke="midnightblue" d="M1810.62,-248.05C1563.28,-246.17 743.85,-237.05 484,-198 467.11,-195.46 448.92,-191.02 433.02,-186.54"/>
<polygon fill="midnightblue" stroke="midnightblue" points="1810.9,-251.55 1820.92,-248.13 1810.95,-244.55 1810.9,-251.55"/>
</g>
<!-- Node9 -->
<g id="node9" class="node">
<title>Node9</title>
<g id="a_node9"><a xlink:href="Champ__Generique__refChamp_8h.html" target="_top" xlink:title=" ">
<polygon fill="white" stroke="black" points="2907.5,-156.5 2907.5,-186.5 3052.5,-186.5 3052.5,-156.5 2907.5,-156.5"/>
<text text-anchor="start" x="2915.5" y="-174.5" font-family="Helvetica,sans-Serif" font-size="10.00">src/Kernel/Champs/Champ</text>
<text text-anchor="middle" x="2980" y="-163.5" font-family="Helvetica,sans-Serif" font-size="10.00">_Generique_refChamp.h</text>
</a>
</g>
</g>
<!-- Node2&#45;&gt;Node9 -->
<g id="edge8" class="edge">
<title>Node2&#45;&gt;Node9</title>
<path fill="none" stroke="midnightblue" d="M1953.08,-247.12C2152.05,-242.92 2711.82,-228.64 2893,-198 2908.36,-195.4 2924.86,-191 2939.31,-186.58"/>
<polygon fill="midnightblue" stroke="midnightblue" points="1952.96,-243.62 1943.04,-247.33 1953.11,-250.62 1952.96,-243.62"/>
</g>
<!-- Node19 -->
<g id="node19" class="node">
<title>Node19</title>
<g id="a_node19"><a xlink:href="Champ__Post__Operateur__Eqn_8cpp.html" target="_top" xlink:title=" ">
<polygon fill="white" stroke="black" points="3360,-67.5 3360,-108.5 3494,-108.5 3494,-67.5 3360,-67.5"/>
<text text-anchor="start" x="3368" y="-96.5" font-family="Helvetica,sans-Serif" font-size="10.00">src/Kernel/Champs_dis</text>
<text text-anchor="start" x="3368" y="-85.5" font-family="Helvetica,sans-Serif" font-size="10.00">/Champ_Post_Operateur</text>
<text text-anchor="middle" x="3427" y="-74.5" font-family="Helvetica,sans-Serif" font-size="10.00">_Eqn.cpp</text>
</a>
</g>
</g>
<!-- Node2&#45;&gt;Node19 -->
<g id="edge23" class="edge">
<title>Node2&#45;&gt;Node19</title>
<path fill="none" stroke="midnightblue" d="M1953.52,-247.03C2201.4,-241.74 3011.3,-222.65 3061,-198 3088.43,-184.4 3078.3,-159.99 3105,-145 3201.35,-90.9 3242.73,-131.1 3351,-109 3353.94,-108.4 3356.94,-107.76 3359.96,-107.08"/>
<polygon fill="midnightblue" stroke="midnightblue" points="1953.12,-243.54 1943.19,-247.25 1953.26,-250.54 1953.12,-243.54"/>
</g>
<!-- Node20 -->
<g id="node20" class="node">
<title>Node20</title>
<g id="a_node20"><a xlink:href="Postraitement_8cpp.html" target="_top" xlink:title=" ">
<polygon fill="white" stroke="black" points="3512,-73 3512,-103 3634,-103 3634,-73 3512,-73"/>
<text text-anchor="start" x="3520" y="-91" font-family="Helvetica,sans-Serif" font-size="10.00">src/Kernel/Framework</text>
<text text-anchor="middle" x="3573" y="-80" font-family="Helvetica,sans-Serif" font-size="10.00">/Postraitement.cpp</text>
</a>
</g>
</g>
<!-- Node2&#45;&gt;Node20 -->
<g id="edge25" class="edge">
<title>Node2&#45;&gt;Node20</title>
<path fill="none" stroke="midnightblue" d="M1953.58,-247.09C2206.43,-241.9 3045.35,-222.87 3097,-198 3125.1,-184.47 3115.3,-159.34 3143,-145 3285.79,-71.06 3345.06,-139.21 3503,-109 3511.32,-107.41 3520.08,-105.28 3528.47,-103.01"/>
<polygon fill="midnightblue" stroke="midnightblue" points="1953.33,-243.59 1943.4,-247.3 1953.47,-250.59 1953.33,-243.59"/>
</g>
<!-- Node21 -->
<g id="node21" class="node">
<title>Node21</title>
<g id="a_node21"><a xlink:href="Sonde_8cpp.html" target="_top" xlink:title=" ">
<polygon fill="white" stroke="black" points="3652,-73 3652,-103 3774,-103 3774,-73 3652,-73"/>
<text text-anchor="start" x="3660" y="-91" font-family="Helvetica,sans-Serif" font-size="10.00">src/Kernel/Framework</text>
<text text-anchor="middle" x="3713" y="-80" font-family="Helvetica,sans-Serif" font-size="10.00">/Sonde.cpp</text>
</a>
</g>
</g>
<!-- Node2&#45;&gt;Node21 -->
<g id="edge30" class="edge">
<title>Node2&#45;&gt;Node21</title>
<path fill="none" stroke="midnightblue" d="M1953.59,-247.26C2211.57,-242.57 3081.2,-224.85 3134,-198 3160.79,-184.38 3149.46,-159.11 3176,-145 3267.9,-96.12 3540.55,-127.39 3643,-109 3651.46,-107.48 3660.36,-105.36 3668.88,-103.06"/>
<polygon fill="midnightblue" stroke="midnightblue" points="1953.15,-243.77 1943.22,-247.45 1953.28,-250.77 1953.15,-243.77"/>
</g>
<!-- Node23 -->
<g id="node23" class="node">
<title>Node23</title>
<g id="a_node23"><a xlink:href="Equation__base_8cpp.html" target="_top" xlink:title=" ">
<polygon fill="white" stroke="black" points="493,-156.5 493,-186.5 615,-186.5 615,-156.5 493,-156.5"/>
<text text-anchor="start" x="501" y="-174.5" font-family="Helvetica,sans-Serif" font-size="10.00">src/Kernel/Framework</text>
<text text-anchor="middle" x="554" y="-163.5" font-family="Helvetica,sans-Serif" font-size="10.00">/Equation_base.cpp</text>
</a>
</g>
</g>
<!-- Node2&#45;&gt;Node23 -->
<g id="edge24" class="edge">
<title>Node2&#45;&gt;Node23</title>
<path fill="none" stroke="midnightblue" d="M1810.33,-248.52C1578.94,-248.14 853.55,-243.27 624,-198 611.31,-195.5 597.85,-191.06 586.16,-186.58"/>
<polygon fill="midnightblue" stroke="midnightblue" points="1810.64,-252.02 1820.65,-248.54 1810.65,-245.02 1810.64,-252.02"/>
</g>
<!-- Node2&#45;&gt;Node24 -->
<g id="edge26" class="edge">
<title>Node2&#45;&gt;Node24</title>
<path fill="none" stroke="midnightblue" d="M1810.97,-247.09C1493.28,-240.68 214.66,-214.01 131,-198 118.17,-195.54 104.57,-191.06 92.8,-186.52"/>
<polygon fill="midnightblue" stroke="midnightblue" points="1810.9,-250.59 1820.97,-247.29 1811.05,-243.59 1810.9,-250.59"/>
</g>
<!-- Node25 -->
<g id="node25" class="node">
<title>Node25</title>
<g id="a_node25"><a xlink:href="Probleme__Couple_8cpp.html" target="_top" xlink:title=" ">
<polygon fill="white" stroke="black" points="633.5,-156.5 633.5,-186.5 758.5,-186.5 758.5,-156.5 633.5,-156.5"/>
<text text-anchor="start" x="641.5" y="-174.5" font-family="Helvetica,sans-Serif" font-size="10.00">src/Kernel/Framework</text>
<text text-anchor="middle" x="696" y="-163.5" font-family="Helvetica,sans-Serif" font-size="10.00">/Probleme_Couple.cpp</text>
</a>
</g>
</g>
<!-- Node2&#45;&gt;Node25 -->
<g id="edge27" class="edge">
<title>Node2&#45;&gt;Node25</title>
<path fill="none" stroke="midnightblue" d="M1810.67,-248.01C1597.71,-246.1 968.86,-237.22 768,-198 754.98,-195.46 741.15,-191.01 729.13,-186.54"/>
<polygon fill="midnightblue" stroke="midnightblue" points="1810.77,-251.51 1820.8,-248.1 1810.83,-244.51 1810.77,-251.51"/>
</g>
<!-- Node26 -->
<g id="node26" class="node">
<title>Node26</title>
<g id="a_node26"><a xlink:href="Probleme__base_8cpp.html" target="_top" xlink:title=" ">
<polygon fill="white" stroke="black" points="777,-156.5 777,-186.5 899,-186.5 899,-156.5 777,-156.5"/>
<text text-anchor="start" x="785" y="-174.5" font-family="Helvetica,sans-Serif" font-size="10.00">src/Kernel/Framework</text>
<text text-anchor="middle" x="838" y="-163.5" font-family="Helvetica,sans-Serif" font-size="10.00">/Probleme_base.cpp</text>
</a>
</g>
</g>
<!-- Node2&#45;&gt;Node26 -->
<g id="edge28" class="edge">
<title>Node2&#45;&gt;Node26</title>
<path fill="none" stroke="midnightblue" d="M1810.74,-247.55C1616.48,-244.51 1080.69,-233.11 908,-198 895.45,-195.45 882.14,-191.06 870.53,-186.63"/>
<polygon fill="midnightblue" stroke="midnightblue" points="1810.78,-251.05 1820.83,-247.7 1810.89,-244.05 1810.78,-251.05"/>
</g>
<!-- Node27 -->
<g id="node27" class="node">
<title>Node27</title>
<g id="a_node27"><a xlink:href="Ref__Postraitement_8cpp.html" target="_top" xlink:title=" ">
<polygon fill="white" stroke="black" points="917.5,-156.5 917.5,-186.5 1048.5,-186.5 1048.5,-156.5 917.5,-156.5"/>
<text text-anchor="start" x="925.5" y="-174.5" font-family="Helvetica,sans-Serif" font-size="10.00">src/Kernel/Framework</text>
<text text-anchor="middle" x="983" y="-163.5" font-family="Helvetica,sans-Serif" font-size="10.00">/Ref_Postraitement.cpp</text>
</a>
</g>
</g>
<!-- Node2&#45;&gt;Node27 -->
<g id="edge29" class="edge">
<title>Node2&#45;&gt;Node27</title>
<path fill="none" stroke="midnightblue" d="M1810.53,-246.56C1637.76,-241.48 1201.15,-226.19 1058,-198 1044.64,-195.37 1030.4,-190.96 1017.95,-186.54"/>
<polygon fill="midnightblue" stroke="midnightblue" points="1810.69,-250.07 1820.79,-246.86 1810.89,-243.07 1810.69,-250.07"/>
</g>
<!-- Node28 -->
<g id="node28" class="node">
<title>Node28</title>
<g id="a_node28"><a xlink:href="Sonde__Int_8cpp.html" target="_top" xlink:title=" ">
<polygon fill="white" stroke="black" points="1067,-156.5 1067,-186.5 1189,-186.5 1189,-156.5 1067,-156.5"/>
<text text-anchor="start" x="1075" y="-174.5" font-family="Helvetica,sans-Serif" font-size="10.00">src/Kernel/Framework</text>
<text text-anchor="middle" x="1128" y="-163.5" font-family="Helvetica,sans-Serif" font-size="10.00">/Sonde_Int.cpp</text>
</a>
</g>
</g>
<!-- Node2&#45;&gt;Node28 -->
<g id="edge31" class="edge">
<title>Node2&#45;&gt;Node28</title>
<path fill="none" stroke="midnightblue" d="M1810.78,-245.73C1660.08,-239.46 1313.37,-222.77 1198,-198 1185.61,-195.34 1172.44,-190.98 1160.92,-186.61"/>
<polygon fill="midnightblue" stroke="midnightblue" points="1810.71,-249.23 1820.85,-246.14 1811,-242.23 1810.71,-249.23"/>
</g>
<!-- Node29 -->
<g id="node29" class="node">
<title>Node29</title>
<g id="a_node29"><a xlink:href="Sondes_8cpp.html" target="_top" xlink:title=" ">
<polygon fill="white" stroke="black" points="1207,-156.5 1207,-186.5 1329,-186.5 1329,-156.5 1207,-156.5"/>
<text text-anchor="start" x="1215" y="-174.5" font-family="Helvetica,sans-Serif" font-size="10.00">src/Kernel/Framework</text>
<text text-anchor="middle" x="1268" y="-163.5" font-family="Helvetica,sans-Serif" font-size="10.00">/Sondes.cpp</text>
</a>
</g>
</g>
<!-- Node2&#45;&gt;Node29 -->
<g id="edge32" class="edge">
<title>Node2&#45;&gt;Node29</title>
<path fill="none" stroke="midnightblue" d="M1810.69,-247.68C1705.87,-245.18 1504.59,-235.42 1338,-198 1325.76,-195.25 1312.74,-190.92 1301.3,-186.61"/>
<polygon fill="midnightblue" stroke="midnightblue" points="1810.76,-251.19 1820.83,-247.91 1810.91,-244.19 1810.76,-251.19"/>
</g>
<!-- Node30 -->
<g id="node30" class="node">
<title>Node30</title>
<g id="a_node30"><a xlink:href="Sondes__Int_8cpp.html" target="_top" xlink:title=" ">
<polygon fill="white" stroke="black" points="1347,-156.5 1347,-186.5 1469,-186.5 1469,-156.5 1347,-156.5"/>
<text text-anchor="start" x="1355" y="-174.5" font-family="Helvetica,sans-Serif" font-size="10.00">src/Kernel/Framework</text>
<text text-anchor="middle" x="1408" y="-163.5" font-family="Helvetica,sans-Serif" font-size="10.00">/Sondes_Int.cpp</text>
</a>
</g>
</g>
<!-- Node2&#45;&gt;Node30 -->
<g id="edge33" class="edge">
<title>Node2&#45;&gt;Node30</title>
<path fill="none" stroke="midnightblue" d="M1810.52,-244.44C1729.09,-238.69 1592.49,-225.64 1478,-198 1465.93,-195.09 1453.07,-190.77 1441.71,-186.52"/>
<polygon fill="midnightblue" stroke="midnightblue" points="1810.44,-247.94 1820.66,-245.14 1810.92,-240.96 1810.44,-247.94"/>
</g>
<!-- Node31 -->
<g id="node31" class="node">
<title>Node31</title>
<g id="a_node31"><a xlink:href="Source__Generique__base_8cpp.html" target="_top" xlink:title=" ">
<polygon fill="white" stroke="black" points="1487.5,-156.5 1487.5,-186.5 1644.5,-186.5 1644.5,-156.5 1487.5,-156.5"/>
<text text-anchor="start" x="1495.5" y="-174.5" font-family="Helvetica,sans-Serif" font-size="10.00">src/Kernel/Framework</text>
<text text-anchor="middle" x="1566" y="-163.5" font-family="Helvetica,sans-Serif" font-size="10.00">/Source_Generique_base.cpp</text>
</a>
</g>
</g>
<!-- Node2&#45;&gt;Node31 -->
<g id="edge34" class="edge">
<title>Node2&#45;&gt;Node31</title>
<path fill="none" stroke="midnightblue" d="M1810.8,-233.96C1765.7,-224.44 1706.22,-211.34 1654,-198 1640.44,-194.54 1625.8,-190.44 1612.43,-186.56"/>
<polygon fill="midnightblue" stroke="midnightblue" points="1810.28,-237.42 1820.78,-236.05 1811.71,-230.57 1810.28,-237.42"/>
</g>
<!-- Node32 -->
<g id="node32" class="node">
<title>Node32</title>
<g id="a_node32"><a xlink:href="Pb__MED_8cpp.html" target="_top" xlink:title=" ">
<polygon fill="white" stroke="black" points="1663,-156.5 1663,-186.5 1775,-186.5 1775,-156.5 1663,-156.5"/>
<text text-anchor="start" x="1671" y="-174.5" font-family="Helvetica,sans-Serif" font-size="10.00">src/Kernel/MEDimpl</text>
<text text-anchor="middle" x="1719" y="-163.5" font-family="Helvetica,sans-Serif" font-size="10.00">/Pb_MED.cpp</text>
</a>
</g>
</g>
<!-- Node2&#45;&gt;Node32 -->
<g id="edge35" class="edge">
<title>Node2&#45;&gt;Node32</title>
<path fill="none" stroke="midnightblue" d="M1842.37,-230.02C1813.64,-216.63 1775.37,-198.78 1749.11,-186.54"/>
<polygon fill="midnightblue" stroke="midnightblue" points="1841.18,-233.33 1851.72,-234.38 1844.14,-226.99 1841.18,-233.33"/>
</g>
<!-- Node33 -->
<g id="node33" class="node">
<title>Node33</title>
<g id="a_node33"><a xlink:href="Moyenne__volumique_8cpp.html" target="_top" xlink:title=" ">
<polygon fill="white" stroke="black" points="1793,-156.5 1793,-186.5 1971,-186.5 1971,-156.5 1793,-156.5"/>
<text text-anchor="start" x="1801" y="-174.5" font-family="Helvetica,sans-Serif" font-size="10.00">src/Kernel/Statistiques</text>
<text text-anchor="middle" x="1882" y="-163.5" font-family="Helvetica,sans-Serif" font-size="10.00">_temps/Moyenne_volumique.cpp</text>
</a>
</g>
</g>
<!-- Node2&#45;&gt;Node33 -->
<g id="edge36" class="edge">
<title>Node2&#45;&gt;Node33</title>
<path fill="none" stroke="midnightblue" d="M1882,-224.09C1882,-211.76 1882,-197.22 1882,-186.73"/>
<polygon fill="midnightblue" stroke="midnightblue" points="1878.5,-224.2 1882,-234.2 1885.5,-224.21 1878.5,-224.2"/>
</g>
<!-- Node34 -->
<g id="node34" class="node">
<title>Node34</title>
<g id="a_node34"><a xlink:href="Operateurs__Statistique__tps_8cpp.html" target="_top" xlink:title=" ">
<polygon fill="white" stroke="black" points="1988.5,-151 1988.5,-192 2155.5,-192 2155.5,-151 1988.5,-151"/>
<text text-anchor="start" x="1996.5" y="-180" font-family="Helvetica,sans-Serif" font-size="10.00">src/Kernel/Statistiques</text>
<text text-anchor="start" x="1996.5" y="-169" font-family="Helvetica,sans-Serif" font-size="10.00">_temps/Operateurs_Statistique</text>
<text text-anchor="middle" x="2072" y="-158" font-family="Helvetica,sans-Serif" font-size="10.00">_tps.cpp</text>
</a>
</g>
</g>
<!-- Node2&#45;&gt;Node34 -->
<g id="edge37" class="edge">
<title>Node2&#45;&gt;Node34</title>
<path fill="none" stroke="midnightblue" d="M1926.73,-230.61C1955.62,-219.05 1993.22,-204.01 2022.93,-192.13"/>
<polygon fill="midnightblue" stroke="midnightblue" points="1925.28,-227.42 1917.29,-234.38 1927.88,-233.92 1925.28,-227.42"/>
</g>
<!-- Node35 -->
<g id="node35" class="node">
<title>Node35</title>
<g id="a_node35"><a xlink:href="Champ__Generique__modifier__pour__QC_8cpp.html" target="_top" xlink:title=" ">
<polygon fill="white" stroke="black" points="2173.5,-145.5 2173.5,-197.5 2328.5,-197.5 2328.5,-145.5 2173.5,-145.5"/>
<text text-anchor="start" x="2181.5" y="-185.5" font-family="Helvetica,sans-Serif" font-size="10.00">src/ThHyd/Dilatable</text>
<text text-anchor="start" x="2181.5" y="-174.5" font-family="Helvetica,sans-Serif" font-size="10.00">/Quasi_Compressible</text>
<text text-anchor="start" x="2181.5" y="-163.5" font-family="Helvetica,sans-Serif" font-size="10.00">/Champ_Generique_modifier</text>
<text text-anchor="middle" x="2251" y="-152.5" font-family="Helvetica,sans-Serif" font-size="10.00">_pour_QC.cpp</text>
</a>
</g>
</g>
<!-- Node2&#45;&gt;Node35 -->
<g id="edge38" class="edge">
<title>Node2&#45;&gt;Node35</title>
<path fill="none" stroke="midnightblue" d="M1953.21,-237.93C2010.49,-228.9 2092.87,-214.74 2164,-198 2167.06,-197.28 2170.18,-196.51 2173.32,-195.72"/>
<polygon fill="midnightblue" stroke="midnightblue" points="1952.51,-234.49 1943.18,-239.5 1953.6,-241.41 1952.51,-234.49"/>
</g>
<!-- Node36 -->
<g id="node36" class="node">
<title>Node36</title>
<g id="a_node36"><a xlink:href="Mod__turb__hyd__base_8cpp.html" target="_top" xlink:title=" ">
<polygon fill="white" stroke="black" points="2347,-156.5 2347,-186.5 2513,-186.5 2513,-156.5 2347,-156.5"/>
<text text-anchor="start" x="2355" y="-174.5" font-family="Helvetica,sans-Serif" font-size="10.00">src/ThHyd/Modele_turbulence</text>
<text text-anchor="middle" x="2430" y="-163.5" font-family="Helvetica,sans-Serif" font-size="10.00">_base/Mod_turb_hyd_base.cpp</text>
</a>
</g>
</g>
<!-- Node2&#45;&gt;Node36 -->
<g id="edge39" class="edge">
<title>Node2&#45;&gt;Node36</title>
<path fill="none" stroke="midnightblue" d="M1953.26,-244.07C2043.28,-237.68 2202.64,-223.71 2337,-198 2352.62,-195.01 2369.46,-190.73 2384.45,-186.52"/>
<polygon fill="midnightblue" stroke="midnightblue" points="1952.9,-240.59 1943.17,-244.77 1953.39,-247.57 1952.9,-240.59"/>
</g>
<!-- Node9&#45;&gt;Node5 -->
<g id="edge13" class="edge">
<title>Node9&#45;&gt;Node5</title>
<path fill="none" stroke="midnightblue" d="M2929.94,-153.54C2917.97,-150.13 2905.14,-146.98 2893,-145 2482.13,-77.94 2369.38,-166.04 1957,-109 1946.72,-107.58 1935.86,-105.44 1925.5,-103.08"/>
<polygon fill="midnightblue" stroke="midnightblue" points="2929.18,-156.97 2939.76,-156.46 2931.17,-150.26 2929.18,-156.97"/>
</g>
<!-- Node10 -->
<g id="node10" class="node">
<title>Node10</title>
<g id="a_node10"><a xlink:href="Champ__Gen__de__Champs__Gen_8cpp.html" target="_top" xlink:title=" ">
<polygon fill="white" stroke="black" points="2489.5,-73 2489.5,-103 2638.5,-103 2638.5,-73 2489.5,-73"/>
<text text-anchor="start" x="2497.5" y="-91" font-family="Helvetica,sans-Serif" font-size="10.00">src/Kernel/Champs/Champ</text>
<text text-anchor="middle" x="2564" y="-80" font-family="Helvetica,sans-Serif" font-size="10.00">_Gen_de_Champs_Gen.cpp</text>
</a>
</g>
</g>
<!-- Node9&#45;&gt;Node10 -->
<g id="edge9" class="edge">
<title>Node9&#45;&gt;Node10</title>
<path fill="none" stroke="midnightblue" d="M2926.56,-153.56C2915.54,-150.43 2903.95,-147.39 2893,-145 2785.05,-121.4 2755.49,-129.96 2647,-109 2637.98,-107.26 2628.46,-105.18 2619.21,-103.05"/>
<polygon fill="midnightblue" stroke="midnightblue" points="2925.92,-157.02 2936.5,-156.45 2927.87,-150.3 2925.92,-157.02"/>
</g>
<!-- Node11 -->
<g id="node11" class="node">
<title>Node11</title>
<g id="a_node11"><a xlink:href="Champ__Generique__Champ_8h.html" target="_top" xlink:title=" ">
<polygon fill="white" stroke="black" points="2656.5,-73 2656.5,-103 2801.5,-103 2801.5,-73 2656.5,-73"/>
<text text-anchor="start" x="2664.5" y="-91" font-family="Helvetica,sans-Serif" font-size="10.00">src/Kernel/Champs/Champ</text>
<text text-anchor="middle" x="2729" y="-80" font-family="Helvetica,sans-Serif" font-size="10.00">_Generique_Champ.h</text>
</a>
</g>
</g>
<!-- Node9&#45;&gt;Node11 -->
<g id="edge10" class="edge">
<title>Node9&#45;&gt;Node11</title>
<path fill="none" stroke="midnightblue" d="M2927.07,-153.31C2881.11,-138.39 2815.36,-117.04 2772.43,-103.1"/>
<polygon fill="midnightblue" stroke="midnightblue" points="2926.26,-156.73 2936.85,-156.49 2928.42,-150.07 2926.26,-156.73"/>
</g>
<!-- Node13 -->
<g id="node13" class="node">
<title>Node13</title>
<g id="a_node13"><a xlink:href="Champ__Generique__Divergence_8cpp.html" target="_top" xlink:title=" ">
<polygon fill="white" stroke="black" points="2819.5,-73 2819.5,-103 2972.5,-103 2972.5,-73 2819.5,-73"/>
<text text-anchor="start" x="2827.5" y="-91" font-family="Helvetica,sans-Serif" font-size="10.00">src/Kernel/Champs/Champ</text>
<text text-anchor="middle" x="2896" y="-80" font-family="Helvetica,sans-Serif" font-size="10.00">_Generique_Divergence.cpp</text>
</a>
</g>
</g>
<!-- Node9&#45;&gt;Node13 -->
<g id="edge12" class="edge">
<title>Node9&#45;&gt;Node13</title>
<path fill="none" stroke="midnightblue" d="M2957.98,-149.14C2942.98,-134.58 2923.54,-115.72 2910.46,-103.03"/>
<polygon fill="midnightblue" stroke="midnightblue" points="2955.75,-151.85 2965.37,-156.3 2960.63,-146.83 2955.75,-151.85"/>
</g>
<!-- Node14 -->
<g id="node14" class="node">
<title>Node14</title>
<g id="a_node14"><a xlink:href="Champ__Generique__Gradient_8cpp.html" target="_top" xlink:title=" ">
<polygon fill="white" stroke="black" points="2990.5,-73 2990.5,-103 3135.5,-103 3135.5,-73 2990.5,-73"/>
<text text-anchor="start" x="2998.5" y="-91" font-family="Helvetica,sans-Serif" font-size="10.00">src/Kernel/Champs/Champ</text>
<text text-anchor="middle" x="3063" y="-80" font-family="Helvetica,sans-Serif" font-size="10.00">_Generique_Gradient.cpp</text>
</a>
</g>
</g>
<!-- Node9&#45;&gt;Node14 -->
<g id="edge14" class="edge">
<title>Node9&#45;&gt;Node14</title>
<path fill="none" stroke="midnightblue" d="M3001.75,-149.14C3016.58,-134.58 3035.79,-115.72 3048.71,-103.03"/>
<polygon fill="midnightblue" stroke="midnightblue" points="2999.14,-146.8 2994.46,-156.3 3004.04,-151.79 2999.14,-146.8"/>
</g>
<!-- Node15 -->
<g id="node15" class="node">
<title>Node15</title>
<g id="a_node15"><a xlink:href="Champ__Generique__Morceau__Equation_8cpp.html" target="_top" xlink:title=" ">
<polygon fill="white" stroke="black" points="3154,-73 3154,-103 3342,-103 3342,-73 3154,-73"/>
<text text-anchor="start" x="3162" y="-91" font-family="Helvetica,sans-Serif" font-size="10.00">src/Kernel/Champs/Champ</text>
<text text-anchor="middle" x="3248" y="-80" font-family="Helvetica,sans-Serif" font-size="10.00">_Generique_Morceau_Equation.cpp</text>
</a>
</g>
</g>
<!-- Node9&#45;&gt;Node15 -->
<g id="edge15" class="edge">
<title>Node9&#45;&gt;Node15</title>
<path fill="none" stroke="midnightblue" d="M3035.9,-153.5C3085,-138.57 3155.6,-117.1 3201.63,-103.1"/>
<polygon fill="midnightblue" stroke="midnightblue" points="3034.62,-150.23 3026.07,-156.49 3036.66,-156.93 3034.62,-150.23"/>
</g>
<!-- Node16 -->
<g id="node16" class="node">
<title>Node16</title>
<g id="a_node16"><a xlink:href="Champ__Generique__refChamp_8cpp.html" target="_top" xlink:title=" ">
<polygon fill="white" stroke="black" points="1966,-73 1966,-103 2112,-103 2112,-73 1966,-73"/>
<text text-anchor="start" x="1974" y="-91" font-family="Helvetica,sans-Serif" font-size="10.00">src/Kernel/Champs/Champ</text>
<text text-anchor="middle" x="2039" y="-80" font-family="Helvetica,sans-Serif" font-size="10.00">_Generique_refChamp.cpp</text>
</a>
</g>
</g>
<!-- Node9&#45;&gt;Node16 -->
<g id="edge16" class="edge">
<title>Node9&#45;&gt;Node16</title>
<path fill="none" stroke="midnightblue" d="M2929.57,-153.51C2917.7,-150.13 2905.01,-147.01 2893,-145 2554.23,-88.29 2460.98,-157.92 2121,-109 2110.85,-107.54 2100.12,-105.38 2089.88,-103.02"/>
<polygon fill="midnightblue" stroke="midnightblue" points="2928.73,-156.91 2939.31,-156.39 2930.71,-150.2 2928.73,-156.91"/>
</g>
<!-- Node17 -->
<g id="node17" class="node">
<title>Node17</title>
<g id="a_node17"><a xlink:href="Champ__Generique__refChamp__special_8h.html" target="_top" xlink:title=" ">
<polygon fill="white" stroke="black" points="2130,-73 2130,-103 2304,-103 2304,-73 2130,-73"/>
<text text-anchor="start" x="2138" y="-91" font-family="Helvetica,sans-Serif" font-size="10.00">src/Kernel/Champs/Champ</text>
<text text-anchor="middle" x="2217" y="-80" font-family="Helvetica,sans-Serif" font-size="10.00">_Generique_refChamp_special.h</text>
</a>
</g>
</g>
<!-- Node9&#45;&gt;Node17 -->
<g id="edge17" class="edge">
<title>Node9&#45;&gt;Node17</title>
<path fill="none" stroke="midnightblue" d="M2929.18,-153.55C2917.42,-150.2 2904.87,-147.08 2893,-145 2638.61,-100.4 2568.97,-143.43 2313,-109 2301.53,-107.46 2289.38,-105.32 2277.72,-103.02"/>
<polygon fill="midnightblue" stroke="midnightblue" points="2928.27,-156.92 2938.85,-156.39 2930.25,-150.21 2928.27,-156.92"/>
</g>
<!-- Node9&#45;&gt;Node19 -->
<g id="edge19" class="edge">
<title>Node9&#45;&gt;Node19</title>
<path fill="none" stroke="midnightblue" d="M3032.71,-153.59C3043.94,-150.4 3055.8,-147.34 3067,-145 3191.55,-119.02 3226.1,-133.24 3351,-109 3353.95,-108.43 3356.95,-107.81 3359.97,-107.15"/>
<polygon fill="midnightblue" stroke="midnightblue" points="3031.64,-150.26 3023.02,-156.42 3033.6,-156.98 3031.64,-150.26"/>
</g>
<!-- Node9&#45;&gt;Node20 -->
<g id="edge20" class="edge">
<title>Node9&#45;&gt;Node20</title>
<path fill="none" stroke="midnightblue" d="M3051.81,-154.43C3069.16,-150.94 3087.69,-147.54 3105,-145 3280.73,-119.21 3328.4,-141.54 3503,-109 3511.32,-107.45 3520.09,-105.34 3528.49,-103.07"/>
<polygon fill="midnightblue" stroke="midnightblue" points="3050.85,-151.05 3041.75,-156.49 3052.25,-157.91 3050.85,-151.05"/>
</g>
<!-- Node9&#45;&gt;Node21 -->
<g id="edge21" class="edge">
<title>Node9&#45;&gt;Node21</title>
<path fill="none" stroke="midnightblue" d="M3062.9,-156.16C3088.52,-152.1 3116.87,-147.98 3143,-145 3364.36,-119.76 3423.61,-147.81 3643,-109 3651.46,-107.5 3660.37,-105.39 3668.89,-103.09"/>
<polygon fill="midnightblue" stroke="midnightblue" points="3062.17,-152.74 3052.85,-157.78 3063.28,-159.65 3062.17,-152.74"/>
</g>
<!-- Node22 -->
<g id="node22" class="node">
<title>Node22</title>
<g id="a_node22"><a xlink:href="Op__Correlation_8cpp.html" target="_top" xlink:title=" ">
<polygon fill="white" stroke="black" points="2322.5,-73 2322.5,-103 2471.5,-103 2471.5,-73 2322.5,-73"/>
<text text-anchor="start" x="2330.5" y="-91" font-family="Helvetica,sans-Serif" font-size="10.00">src/Kernel/Statistiques</text>
<text text-anchor="middle" x="2397" y="-80" font-family="Helvetica,sans-Serif" font-size="10.00">_temps/Op_Correlation.cpp</text>
</a>
</g>
</g>
<!-- Node9&#45;&gt;Node22 -->
<g id="edge22" class="edge">
<title>Node9&#45;&gt;Node22</title>
<path fill="none" stroke="midnightblue" d="M2928.44,-153.56C2916.88,-150.28 2904.6,-147.18 2893,-145 2711.93,-110.92 2661.85,-138.66 2480,-109 2470.34,-107.43 2460.15,-105.33 2450.34,-103.09"/>
<polygon fill="midnightblue" stroke="midnightblue" points="2927.79,-157.02 2938.37,-156.48 2929.76,-150.3 2927.79,-157.02"/>
</g>
<!-- Node12 -->
<g id="node12" class="node">
<title>Node12</title>
<g id="a_node12"><a xlink:href="Champ__Generique__Champ_8cpp.html" target="_top" xlink:title=" ">
<polygon fill="white" stroke="black" points="2656.5,-0.5 2656.5,-30.5 2801.5,-30.5 2801.5,-0.5 2656.5,-0.5"/>
<text text-anchor="start" x="2664.5" y="-18.5" font-family="Helvetica,sans-Serif" font-size="10.00">src/Kernel/Champs/Champ</text>
<text text-anchor="middle" x="2729" y="-7.5" font-family="Helvetica,sans-Serif" font-size="10.00">_Generique_Champ.cpp</text>
</a>
</g>
</g>
<!-- Node11&#45;&gt;Node12 -->
<g id="edge11" class="edge">
<title>Node11&#45;&gt;Node12</title>
<path fill="none" stroke="midnightblue" d="M2729,-62.73C2729,-52.07 2729,-39.91 2729,-30.75"/>
<polygon fill="midnightblue" stroke="midnightblue" points="2725.5,-62.73 2729,-72.73 2732.5,-62.73 2725.5,-62.73"/>
</g>
<!-- Node18 -->
<g id="node18" class="node">
<title>Node18</title>
<g id="a_node18"><a xlink:href="Champ__Generique__refChamp__special_8cpp.html" target="_top" xlink:title=" ">
<polygon fill="white" stroke="black" points="2124.5,-0.5 2124.5,-30.5 2309.5,-30.5 2309.5,-0.5 2124.5,-0.5"/>
<text text-anchor="start" x="2132.5" y="-18.5" font-family="Helvetica,sans-Serif" font-size="10.00">src/Kernel/Champs/Champ</text>
<text text-anchor="middle" x="2217" y="-7.5" font-family="Helvetica,sans-Serif" font-size="10.00">_Generique_refChamp_special.cpp</text>
</a>
</g>
</g>
<!-- Node17&#45;&gt;Node18 -->
<g id="edge18" class="edge">
<title>Node17&#45;&gt;Node18</title>
<path fill="none" stroke="midnightblue" d="M2217,-62.73C2217,-52.07 2217,-39.91 2217,-30.75"/>
<polygon fill="midnightblue" stroke="midnightblue" points="2213.5,-62.73 2217,-72.73 2220.5,-62.73 2213.5,-62.73"/>
</g>
<!-- Node39 -->
<g id="node39" class="node">
<title>Node39</title>
<g id="a_node39"><a xlink:href="Postraitement__lata_8cpp.html" target="_top" xlink:title=" ">
<polygon fill="white" stroke="black" points="3363.5,-156.5 3363.5,-186.5 3496.5,-186.5 3496.5,-156.5 3363.5,-156.5"/>
<text text-anchor="start" x="3371.5" y="-174.5" font-family="Helvetica,sans-Serif" font-size="10.00">src/Kernel/Framework</text>
<text text-anchor="middle" x="3430" y="-163.5" font-family="Helvetica,sans-Serif" font-size="10.00">/Postraitement_lata.cpp</text>
</a>
</g>
</g>
<!-- Node38&#45;&gt;Node39 -->
<g id="edge42" class="edge">
<title>Node38&#45;&gt;Node39</title>
<path fill="none" stroke="midnightblue" d="M3430,-224.09C3430,-211.76 3430,-197.22 3430,-186.73"/>
<polygon fill="midnightblue" stroke="midnightblue" points="3426.5,-224.2 3430,-234.2 3433.5,-224.21 3426.5,-224.2"/>
</g>
<!-- Node40 -->
<g id="node40" class="node">
<title>Node40</title>
<g id="a_node40"><a xlink:href="Decouper_8cpp.html" target="_top" xlink:title=" ">
<polygon fill="white" stroke="black" points="3514.5,-156.5 3514.5,-186.5 3655.5,-186.5 3655.5,-156.5 3514.5,-156.5"/>
<text text-anchor="start" x="3522.5" y="-174.5" font-family="Helvetica,sans-Serif" font-size="10.00">src/Kernel/Geometrie</text>
<text text-anchor="middle" x="3585" y="-163.5" font-family="Helvetica,sans-Serif" font-size="10.00">/Decoupeur/Decouper.cpp</text>
</a>
</g>
</g>
<!-- Node38&#45;&gt;Node40 -->
<g id="edge43" class="edge">
<title>Node38&#45;&gt;Node40</title>
<path fill="none" stroke="midnightblue" d="M3468.04,-229.85C3495.32,-216.47 3531.51,-198.73 3556.36,-186.54"/>
<polygon fill="midnightblue" stroke="midnightblue" points="3466.23,-226.84 3458.79,-234.38 3469.31,-233.12 3466.23,-226.84"/>
</g>
<!-- Node41 -->
<g id="node41" class="node">
<title>Node41</title>
<g id="a_node41"><a xlink:href="Scatter_8cpp.html" target="_top" xlink:title=" ">
<polygon fill="white" stroke="black" points="3673.5,-156.5 3673.5,-186.5 3792.5,-186.5 3792.5,-156.5 3673.5,-156.5"/>
<text text-anchor="start" x="3681.5" y="-174.5" font-family="Helvetica,sans-Serif" font-size="10.00">src/Kernel/Geometrie</text>
<text text-anchor="middle" x="3733" y="-163.5" font-family="Helvetica,sans-Serif" font-size="10.00">/Scatter.cpp</text>
</a>
</g>
</g>
<!-- Node38&#45;&gt;Node41 -->
<g id="edge44" class="edge">
<title>Node38&#45;&gt;Node41</title>
<path fill="none" stroke="midnightblue" d="M3501.08,-233.78C3564.35,-220.58 3649.27,-202.61 3665,-198 3676.01,-194.77 3687.78,-190.62 3698.39,-186.6"/>
<polygon fill="midnightblue" stroke="midnightblue" points="3500.21,-230.38 3491.13,-235.85 3501.63,-237.24 3500.21,-230.38"/>
</g>
</g>
</svg>
