<?xml version="1.0" encoding="UTF-8" standalone="no"?>
<!DOCTYPE svg PUBLIC "-//W3C//DTD SVG 1.1//EN"
 "http://www.w3.org/Graphics/SVG/1.1/DTD/svg11.dtd">
<!-- Generated by graphviz version 2.43.0 (0)
 -->
<!-- Title: src/Kernel/Utilitaires/ptrParam.cpp Pages: 1 -->
<svg width="956pt" height="1103pt"
 viewBox="0.00 0.00 956.40 1103.00" xmlns="http://www.w3.org/2000/svg" xmlns:xlink="http://www.w3.org/1999/xlink">
<g id="graph0" class="graph" transform="scale(1 1) rotate(0) translate(4 1099)">
<title>src/Kernel/Utilitaires/ptrParam.cpp</title>
<polygon fill="white" stroke="transparent" points="-4,4 -4,-1099 952.4,-1099 952.4,4 -4,4"/>
<!-- Node1 -->
<g id="node1" class="node">
<title>Node1</title>
<g id="a_node1"><a xlink:title=" ">
<polygon fill="#bfbfbf" stroke="black" points="556,-1064.5 556,-1094.5 672,-1094.5 672,-1064.5 556,-1064.5"/>
<text text-anchor="start" x="564" y="-1082.5" font-family="Helvetica,sans-Serif" font-size="10.00">src/Kernel/Utilitaires</text>
<text text-anchor="middle" x="614" y="-1071.5" font-family="Helvetica,sans-Serif" font-size="10.00">/ptrParam.cpp</text>
</a>
</g>
</g>
<!-- Node2 -->
<g id="node2" class="node">
<title>Node2</title>
<g id="a_node2"><a xlink:href="TRUSTArray_8h.html" target="_top" xlink:title=" ">
<polygon fill="white" stroke="black" points="594,-448.5 594,-467.5 676,-467.5 676,-448.5 594,-448.5"/>
<text text-anchor="middle" x="635" y="-455.5" font-family="Helvetica,sans-Serif" font-size="10.00">TRUSTArray.h</text>
</a>
</g>
</g>
<!-- Node1&#45;&gt;Node2 -->
<g id="edge1" class="edge">
<title>Node1&#45;&gt;Node2</title>
<path fill="none" stroke="midnightblue" d="M672.22,-1077.13C748.32,-1071.89 872,-1049.99 872,-963 872,-963 872,-963 872,-569 872,-487.78 756.05,-466.36 686.36,-460.83"/>
<polygon fill="midnightblue" stroke="midnightblue" points="686.23,-457.31 676.01,-460.09 685.74,-464.29 686.23,-457.31"/>
</g>
<!-- Node34 -->
<g id="node34" class="node">
<title>Node34</title>
<g id="a_node34"><a xlink:href="ptrParam_8h.html" target="_top" xlink:title=" ">
<polygon fill="white" stroke="black" points="375,-840.5 375,-859.5 445,-859.5 445,-840.5 375,-840.5"/>
<text text-anchor="middle" x="410" y="-847.5" font-family="Helvetica,sans-Serif" font-size="10.00">ptrParam.h</text>
</a>
</g>
</g>
<!-- Node1&#45;&gt;Node34 -->
<g id="edge47" class="edge">
<title>Node1&#45;&gt;Node34</title>
<path fill="none" stroke="midnightblue" d="M597.83,-1064.39C575.53,-1044.64 534.55,-1007.2 503,-972 471.47,-936.81 438.74,-891.93 421.78,-867.94"/>
<polygon fill="midnightblue" stroke="midnightblue" points="424.51,-865.74 415.9,-859.56 418.78,-869.76 424.51,-865.74"/>
</g>
<!-- Node45 -->
<g id="node45" class="node">
<title>Node45</title>
<g id="a_node45"><a xlink:href="Param_8h.html" target="_top" xlink:title=" ">
<polygon fill="white" stroke="black" points="586,-1008.5 586,-1027.5 642,-1027.5 642,-1008.5 586,-1008.5"/>
<text text-anchor="middle" x="614" y="-1015.5" font-family="Helvetica,sans-Serif" font-size="10.00">Param.h</text>
</a>
</g>
</g>
<!-- Node1&#45;&gt;Node45 -->
<g id="edge66" class="edge">
<title>Node1&#45;&gt;Node45</title>
<path fill="none" stroke="midnightblue" d="M614,-1064.4C614,-1056.47 614,-1046.46 614,-1037.86"/>
<polygon fill="midnightblue" stroke="midnightblue" points="617.5,-1037.66 614,-1027.66 610.5,-1037.66 617.5,-1037.66"/>
</g>
<!-- Node3 -->
<g id="node3" class="node">
<title>Node3</title>
<g id="a_node3"><a xlink:href="TRUSTIterator_8h.html" target="_top" xlink:title=" ">
<polygon fill="white" stroke="black" points="842.5,-112.5 842.5,-131.5 935.5,-131.5 935.5,-112.5 842.5,-112.5"/>
<text text-anchor="middle" x="889" y="-119.5" font-family="Helvetica,sans-Serif" font-size="10.00">TRUSTIterator.h</text>
</a>
</g>
</g>
<!-- Node2&#45;&gt;Node3 -->
<g id="edge2" class="edge">
<title>Node2&#45;&gt;Node3</title>
<path fill="none" stroke="midnightblue" d="M676.09,-457.23C719.93,-455.49 789.46,-446.81 837,-412 883.43,-378 887.04,-355.58 902,-300 917.25,-243.35 910.22,-226.09 902,-168 900.73,-159.04 898.11,-149.37 895.55,-141.3"/>
<polygon fill="midnightblue" stroke="midnightblue" points="898.86,-140.16 892.34,-131.8 892.23,-142.4 898.86,-140.16"/>
</g>
<!-- Node7 -->
<g id="node7" class="node">
<title>Node7</title>
<g id="a_node7"><a xlink:href="VTRUSTdata_8h.html" target="_top" xlink:title=" ">
<polygon fill="white" stroke="black" points="364,-392.5 364,-411.5 450,-411.5 450,-392.5 364,-392.5"/>
<text text-anchor="middle" x="407" y="-399.5" font-family="Helvetica,sans-Serif" font-size="10.00">VTRUSTdata.h</text>
</a>
</g>
</g>
<!-- Node2&#45;&gt;Node7 -->
<g id="edge6" class="edge">
<title>Node2&#45;&gt;Node7</title>
<path fill="none" stroke="midnightblue" d="M598.87,-448.44C559.35,-439.08 495.9,-424.06 452.89,-413.87"/>
<polygon fill="midnightblue" stroke="midnightblue" points="453.5,-410.42 442.96,-411.52 451.88,-417.23 453.5,-410.42"/>
</g>
<!-- Node8 -->
<g id="node8" class="node">
<title>Node8</title>
<g id="a_node8"><a xlink:href="Array__base_8h.html" target="_top" xlink:title=" ">
<polygon fill="white" stroke="black" points="535,-336.5 535,-355.5 615,-355.5 615,-336.5 535,-336.5"/>
<text text-anchor="middle" x="575" y="-343.5" font-family="Helvetica,sans-Serif" font-size="10.00">Array_base.h</text>
</a>
</g>
</g>
<!-- Node2&#45;&gt;Node8 -->
<g id="edge37" class="edge">
<title>Node2&#45;&gt;Node8</title>
<path fill="none" stroke="midnightblue" d="M593.74,-455.85C561.61,-452.51 518.91,-442.18 497,-412 481.12,-390.11 512.28,-371.12 539.81,-359.4"/>
<polygon fill="midnightblue" stroke="midnightblue" points="541.35,-362.56 549.31,-355.57 538.73,-356.07 541.35,-362.56"/>
</g>
<!-- Node27 -->
<g id="node27" class="node">
<title>Node27</title>
<g id="a_node27"><a xlink:href="Double_8h.html" target="_top" xlink:title=" ">
<polygon fill="white" stroke="black" points="833,-280.5 833,-299.5 893,-299.5 893,-280.5 833,-280.5"/>
<text text-anchor="middle" x="863" y="-287.5" font-family="Helvetica,sans-Serif" font-size="10.00">Double.h</text>
</a>
</g>
</g>
<!-- Node2&#45;&gt;Node27 -->
<g id="edge38" class="edge">
<title>Node2&#45;&gt;Node27</title>
<path fill="none" stroke="midnightblue" d="M676.35,-457.04C716.36,-454.92 776.46,-445.74 815,-412 845.65,-385.17 856.94,-336.13 860.93,-309.47"/>
<polygon fill="midnightblue" stroke="midnightblue" points="864.4,-309.9 862.23,-299.54 857.46,-309 864.4,-309.9"/>
</g>
<!-- Node30 -->
<g id="node30" class="node">
<title>Node30</title>
<g id="a_node30"><a xlink:title=" ">
<polygon fill="white" stroke="#bfbfbf" points="506,-392.5 506,-411.5 556,-411.5 556,-392.5 506,-392.5"/>
<text text-anchor="middle" x="531" y="-399.5" font-family="Helvetica,sans-Serif" font-size="10.00">climits</text>
</a>
</g>
</g>
<!-- Node2&#45;&gt;Node30 -->
<g id="edge43" class="edge">
<title>Node2&#45;&gt;Node30</title>
<path fill="none" stroke="midnightblue" d="M618.29,-448.32C601.69,-439.7 576,-426.36 556.78,-416.39"/>
<polygon fill="midnightblue" stroke="midnightblue" points="558.16,-413.16 547.67,-411.65 554.93,-419.37 558.16,-413.16"/>
</g>
<!-- Node31 -->
<g id="node31" class="node">
<title>Node31</title>
<g id="a_node31"><a xlink:href="TRUSTArray__tools_8tpp.html" target="_top" xlink:title=" ">
<polygon fill="white" stroke="black" points="574,-392.5 574,-411.5 696,-411.5 696,-392.5 574,-392.5"/>
<text text-anchor="middle" x="635" y="-399.5" font-family="Helvetica,sans-Serif" font-size="10.00">TRUSTArray_tools.tpp</text>
</a>
</g>
</g>
<!-- Node2&#45;&gt;Node31 -->
<g id="edge44" class="edge">
<title>Node2&#45;&gt;Node31</title>
<path fill="none" stroke="midnightblue" d="M635,-448.08C635,-441.01 635,-430.86 635,-421.99"/>
<polygon fill="midnightblue" stroke="midnightblue" points="638.5,-421.75 635,-411.75 631.5,-421.75 638.5,-421.75"/>
</g>
<!-- Node32 -->
<g id="node32" class="node">
<title>Node32</title>
<g id="a_node32"><a xlink:href="TRUSTArray_8tpp.html" target="_top" xlink:title=" ">
<polygon fill="white" stroke="black" points="714,-392.5 714,-411.5 806,-411.5 806,-392.5 714,-392.5"/>
<text text-anchor="middle" x="760" y="-399.5" font-family="Helvetica,sans-Serif" font-size="10.00">TRUSTArray.tpp</text>
</a>
</g>
</g>
<!-- Node2&#45;&gt;Node32 -->
<g id="edge45" class="edge">
<title>Node2&#45;&gt;Node32</title>
<path fill="none" stroke="midnightblue" d="M654.81,-448.44C675.29,-439.6 707.48,-425.69 730.86,-415.59"/>
<polygon fill="midnightblue" stroke="midnightblue" points="732.49,-418.7 740.29,-411.52 729.72,-412.27 732.49,-418.7"/>
</g>
<!-- Node4 -->
<g id="node4" class="node">
<title>Node4</title>
<g id="a_node4"><a xlink:title=" ">
<polygon fill="white" stroke="#bfbfbf" points="588,-56.5 588,-75.5 648,-75.5 648,-56.5 588,-56.5"/>
<text text-anchor="middle" x="618" y="-63.5" font-family="Helvetica,sans-Serif" font-size="10.00">iostream</text>
</a>
</g>
</g>
<!-- Node3&#45;&gt;Node4 -->
<g id="edge3" class="edge">
<title>Node3&#45;&gt;Node4</title>
<path fill="none" stroke="midnightblue" d="M842.24,-112.43C797.43,-104.11 727.63,-90.85 658.03,-76.16"/>
<polygon fill="midnightblue" stroke="midnightblue" points="658.72,-72.73 648.21,-74.08 657.27,-79.58 658.72,-72.73"/>
</g>
<!-- Node5 -->
<g id="node5" class="node">
<title>Node5</title>
<g id="a_node5"><a xlink:href="arch_8h.html" target="_top" xlink:title=" ">
<polygon fill="white" stroke="black" points="879.5,-56.5 879.5,-75.5 926.5,-75.5 926.5,-56.5 879.5,-56.5"/>
<text text-anchor="middle" x="903" y="-63.5" font-family="Helvetica,sans-Serif" font-size="10.00">arch.h</text>
</a>
</g>
</g>
<!-- Node3&#45;&gt;Node5 -->
<g id="edge4" class="edge">
<title>Node3&#45;&gt;Node5</title>
<path fill="none" stroke="midnightblue" d="M891.31,-112.08C893.17,-104.93 895.84,-94.64 898.15,-85.69"/>
<polygon fill="midnightblue" stroke="midnightblue" points="901.61,-86.31 900.73,-75.75 894.83,-84.55 901.61,-86.31"/>
</g>
<!-- Node6 -->
<g id="node6" class="node">
<title>Node6</title>
<g id="a_node6"><a xlink:href="generique_8h.html" target="_top" xlink:title=" ">
<polygon fill="white" stroke="black" points="866,-0.5 866,-19.5 940,-19.5 940,-0.5 866,-0.5"/>
<text text-anchor="middle" x="903" y="-7.5" font-family="Helvetica,sans-Serif" font-size="10.00">generique.h</text>
</a>
</g>
</g>
<!-- Node5&#45;&gt;Node6 -->
<g id="edge5" class="edge">
<title>Node5&#45;&gt;Node6</title>
<path fill="none" stroke="midnightblue" d="M903,-56.08C903,-49.01 903,-38.86 903,-29.99"/>
<polygon fill="midnightblue" stroke="midnightblue" points="906.5,-29.75 903,-19.75 899.5,-29.75 906.5,-29.75"/>
</g>
<!-- Node7&#45;&gt;Node8 -->
<g id="edge7" class="edge">
<title>Node7&#45;&gt;Node8</title>
<path fill="none" stroke="midnightblue" d="M433.62,-392.44C462.01,-383.32 507.14,-368.81 538.75,-358.65"/>
<polygon fill="midnightblue" stroke="midnightblue" points="540.06,-361.91 548.5,-355.52 537.91,-355.24 540.06,-361.91"/>
</g>
<!-- Node10 -->
<g id="node10" class="node">
<title>Node10</title>
<g id="a_node10"><a xlink:title=" ">
<polygon fill="white" stroke="#bfbfbf" points="86,-56.5 86,-75.5 142,-75.5 142,-56.5 86,-56.5"/>
<text text-anchor="middle" x="114" y="-63.5" font-family="Helvetica,sans-Serif" font-size="10.00">assert.h</text>
</a>
</g>
</g>
<!-- Node7&#45;&gt;Node10 -->
<g id="edge35" class="edge">
<title>Node7&#45;&gt;Node10</title>
<path fill="none" stroke="midnightblue" d="M390.8,-392.36C366.93,-379.68 320.81,-355.44 281,-336 246.69,-319.24 229.07,-327.89 203,-300 143.56,-236.4 122.59,-129 116.33,-85.82"/>
<polygon fill="midnightblue" stroke="midnightblue" points="119.79,-85.3 114.98,-75.85 112.85,-86.23 119.79,-85.3"/>
</g>
<!-- Node24 -->
<g id="node24" class="node">
<title>Node24</title>
<g id="a_node24"><a xlink:href="Memoire_8h.html" target="_top" xlink:title=" ">
<polygon fill="white" stroke="black" points="372.5,-336.5 372.5,-355.5 441.5,-355.5 441.5,-336.5 372.5,-336.5"/>
<text text-anchor="middle" x="407" y="-343.5" font-family="Helvetica,sans-Serif" font-size="10.00">Memoire.h</text>
</a>
</g>
</g>
<!-- Node7&#45;&gt;Node24 -->
<g id="edge31" class="edge">
<title>Node7&#45;&gt;Node24</title>
<path fill="none" stroke="midnightblue" d="M407,-392.08C407,-385.01 407,-374.86 407,-365.99"/>
<polygon fill="midnightblue" stroke="midnightblue" points="410.5,-365.75 407,-355.75 403.5,-365.75 410.5,-365.75"/>
</g>
<!-- Node26 -->
<g id="node26" class="node">
<title>Node26</title>
<g id="a_node26"><a xlink:title=" ">
<polygon fill="white" stroke="#bfbfbf" points="459.5,-336.5 459.5,-355.5 516.5,-355.5 516.5,-336.5 459.5,-336.5"/>
<text text-anchor="middle" x="488" y="-343.5" font-family="Helvetica,sans-Serif" font-size="10.00">typeinfo</text>
</a>
</g>
</g>
<!-- Node7&#45;&gt;Node26 -->
<g id="edge36" class="edge">
<title>Node7&#45;&gt;Node26</title>
<path fill="none" stroke="midnightblue" d="M420.01,-392.32C432.53,-383.98 451.68,-371.21 466.47,-361.35"/>
<polygon fill="midnightblue" stroke="midnightblue" points="468.64,-364.11 475.02,-355.65 464.76,-358.29 468.64,-364.11"/>
</g>
<!-- Node9 -->
<g id="node9" class="node">
<title>Node9</title>
<g id="a_node9"><a xlink:href="Objet__U_8h.html" target="_top" xlink:title=" ">
<polygon fill="white" stroke="black" points="377.5,-224.5 377.5,-243.5 442.5,-243.5 442.5,-224.5 377.5,-224.5"/>
<text text-anchor="middle" x="410" y="-231.5" font-family="Helvetica,sans-Serif" font-size="10.00">Objet_U.h</text>
</a>
</g>
</g>
<!-- Node8&#45;&gt;Node9 -->
<g id="edge8" class="edge">
<title>Node8&#45;&gt;Node9</title>
<path fill="none" stroke="midnightblue" d="M562.05,-336.37C533.74,-317.49 466.08,-272.38 431.36,-249.24"/>
<polygon fill="midnightblue" stroke="midnightblue" points="433.15,-246.23 422.89,-243.59 429.27,-252.05 433.15,-246.23"/>
</g>
<!-- Node9&#45;&gt;Node10 -->
<g id="edge9" class="edge">
<title>Node9&#45;&gt;Node10</title>
<path fill="none" stroke="midnightblue" d="M387.94,-224.43C348.67,-208.72 264.68,-173.15 200,-132 175.53,-116.43 149.17,-95.89 132.17,-82.1"/>
<polygon fill="midnightblue" stroke="midnightblue" points="134.15,-79.2 124.2,-75.57 129.72,-84.62 134.15,-79.2"/>
</g>
<!-- Node11 -->
<g id="node11" class="node">
<title>Node11</title>
<g id="a_node11"><a xlink:href="DecBaseInst_8h.html" target="_top" xlink:title=" ">
<polygon fill="white" stroke="black" points="315,-168.5 315,-187.5 401,-187.5 401,-168.5 315,-168.5"/>
<text text-anchor="middle" x="358" y="-175.5" font-family="Helvetica,sans-Serif" font-size="10.00">DecBaseInst.h</text>
</a>
</g>
</g>
<!-- Node9&#45;&gt;Node11 -->
<g id="edge10" class="edge">
<title>Node9&#45;&gt;Node11</title>
<path fill="none" stroke="midnightblue" d="M401.41,-224.08C393.84,-216.22 382.62,-204.57 373.49,-195.08"/>
<polygon fill="midnightblue" stroke="midnightblue" points="375.88,-192.53 366.43,-187.75 370.84,-197.38 375.88,-192.53"/>
</g>
<!-- Node16 -->
<g id="node16" class="node">
<title>Node16</title>
<g id="a_node16"><a xlink:href="EntreeSortie_8h.html" target="_top" xlink:title=" ">
<polygon fill="white" stroke="black" points="582,-168.5 582,-187.5 668,-187.5 668,-168.5 582,-168.5"/>
<text text-anchor="middle" x="625" y="-175.5" font-family="Helvetica,sans-Serif" font-size="10.00">EntreeSortie.h</text>
</a>
</g>
</g>
<!-- Node9&#45;&gt;Node16 -->
<g id="edge16" class="edge">
<title>Node9&#45;&gt;Node16</title>
<path fill="none" stroke="midnightblue" d="M442.65,-224.8C479.66,-215.5 540.16,-200.31 581.23,-189.99"/>
<polygon fill="midnightblue" stroke="midnightblue" points="582.13,-193.38 590.97,-187.55 580.42,-186.59 582.13,-193.38"/>
</g>
<!-- Node20 -->
<g id="node20" class="node">
<title>Node20</title>
<g id="a_node20"><a xlink:href="Process_8h.html" target="_top" xlink:title=" ">
<polygon fill="white" stroke="black" points="798.5,-56.5 798.5,-75.5 861.5,-75.5 861.5,-56.5 798.5,-56.5"/>
<text text-anchor="middle" x="830" y="-63.5" font-family="Helvetica,sans-Serif" font-size="10.00">Process.h</text>
</a>
</g>
</g>
<!-- Node9&#45;&gt;Node20 -->
<g id="edge30" class="edge">
<title>Node9&#45;&gt;Node20</title>
<path fill="none" stroke="midnightblue" d="M442.73,-230.41C493.77,-225.73 594.95,-213.84 677,-188 732.37,-170.57 752.92,-171.99 795,-132 808.62,-119.05 818.12,-99.61 823.75,-85.37"/>
<polygon fill="midnightblue" stroke="midnightblue" points="827.15,-86.27 827.31,-75.68 820.58,-83.86 827.15,-86.27"/>
</g>
<!-- Node12 -->
<g id="node12" class="node">
<title>Node12</title>
<g id="a_node12"><a xlink:href="Cast_8h.html" target="_top" xlink:title=" ">
<polygon fill="white" stroke="black" points="201.5,-56.5 201.5,-75.5 248.5,-75.5 248.5,-56.5 201.5,-56.5"/>
<text text-anchor="middle" x="225" y="-63.5" font-family="Helvetica,sans-Serif" font-size="10.00">Cast.h</text>
</a>
</g>
</g>
<!-- Node11&#45;&gt;Node12 -->
<g id="edge11" class="edge">
<title>Node11&#45;&gt;Node12</title>
<path fill="none" stroke="midnightblue" d="M314.95,-176.98C280.17,-174.4 233.17,-164.54 209,-132 198.75,-118.2 205.68,-98.66 213.37,-84.61"/>
<polygon fill="midnightblue" stroke="midnightblue" points="216.45,-86.27 218.6,-75.9 210.45,-82.66 216.45,-86.27"/>
</g>
<!-- Node13 -->
<g id="node13" class="node">
<title>Node13</title>
<g id="a_node13"><a xlink:href="Type__info_8h.html" target="_top" xlink:title=" ">
<polygon fill="white" stroke="black" points="322,-112.5 322,-131.5 394,-131.5 394,-112.5 322,-112.5"/>
<text text-anchor="middle" x="358" y="-119.5" font-family="Helvetica,sans-Serif" font-size="10.00">Type_info.h</text>
</a>
</g>
</g>
<!-- Node11&#45;&gt;Node13 -->
<g id="edge12" class="edge">
<title>Node11&#45;&gt;Node13</title>
<path fill="none" stroke="midnightblue" d="M358,-168.08C358,-161.01 358,-150.86 358,-141.99"/>
<polygon fill="midnightblue" stroke="midnightblue" points="361.5,-141.75 358,-131.75 354.5,-141.75 361.5,-141.75"/>
</g>
<!-- Node14 -->
<g id="node14" class="node">
<title>Node14</title>
<g id="a_node14"><a xlink:href="Declare__Base_8h.html" target="_top" xlink:title=" ">
<polygon fill="white" stroke="black" points="412,-112.5 412,-131.5 504,-131.5 504,-112.5 412,-112.5"/>
<text text-anchor="middle" x="458" y="-119.5" font-family="Helvetica,sans-Serif" font-size="10.00">Declare_Base.h</text>
</a>
</g>
</g>
<!-- Node11&#45;&gt;Node14 -->
<g id="edge13" class="edge">
<title>Node11&#45;&gt;Node14</title>
<path fill="none" stroke="midnightblue" d="M374.07,-168.32C389.96,-159.74 414.51,-146.49 432.96,-136.52"/>
<polygon fill="midnightblue" stroke="midnightblue" points="434.84,-139.49 441.97,-131.65 431.51,-133.33 434.84,-139.49"/>
</g>
<!-- Node15 -->
<g id="node15" class="node">
<title>Node15</title>
<g id="a_node15"><a xlink:href="Declare__Inst_8h.html" target="_top" xlink:title=" ">
<polygon fill="white" stroke="black" points="218,-112.5 218,-131.5 304,-131.5 304,-112.5 218,-112.5"/>
<text text-anchor="middle" x="261" y="-119.5" font-family="Helvetica,sans-Serif" font-size="10.00">Declare_Inst.h</text>
</a>
</g>
</g>
<!-- Node11&#45;&gt;Node15 -->
<g id="edge14" class="edge">
<title>Node11&#45;&gt;Node15</title>
<path fill="none" stroke="midnightblue" d="M342.42,-168.32C327,-159.74 303.19,-146.49 285.29,-136.52"/>
<polygon fill="midnightblue" stroke="midnightblue" points="286.99,-133.46 276.55,-131.65 283.58,-139.58 286.99,-133.46"/>
</g>
<!-- Node15&#45;&gt;Node12 -->
<g id="edge15" class="edge">
<title>Node15&#45;&gt;Node12</title>
<path fill="none" stroke="midnightblue" d="M255.06,-112.08C250.02,-104.53 242.66,-93.49 236.49,-84.23"/>
<polygon fill="midnightblue" stroke="midnightblue" points="239.29,-82.13 230.83,-75.75 233.47,-86.01 239.29,-82.13"/>
</g>
<!-- Node17 -->
<g id="node17" class="node">
<title>Node17</title>
<g id="a_node17"><a xlink:href="Entree_8h.html" target="_top" xlink:title=" ">
<polygon fill="white" stroke="black" points="728.5,-112.5 728.5,-131.5 785.5,-131.5 785.5,-112.5 728.5,-112.5"/>
<text text-anchor="middle" x="757" y="-119.5" font-family="Helvetica,sans-Serif" font-size="10.00">Entree.h</text>
</a>
</g>
</g>
<!-- Node16&#45;&gt;Node17 -->
<g id="edge17" class="edge">
<title>Node16&#45;&gt;Node17</title>
<path fill="none" stroke="midnightblue" d="M645.92,-168.44C667.74,-159.52 702.15,-145.44 726.89,-135.32"/>
<polygon fill="midnightblue" stroke="midnightblue" points="728.25,-138.54 736.18,-131.52 725.6,-132.06 728.25,-138.54"/>
</g>
<!-- Node21 -->
<g id="node21" class="node">
<title>Node21</title>
<g id="a_node21"><a xlink:href="Sortie_8h.html" target="_top" xlink:title=" ">
<polygon fill="white" stroke="black" points="656,-112.5 656,-131.5 710,-131.5 710,-112.5 656,-112.5"/>
<text text-anchor="middle" x="683" y="-119.5" font-family="Helvetica,sans-Serif" font-size="10.00">Sortie.h</text>
</a>
</g>
</g>
<!-- Node16&#45;&gt;Node21 -->
<g id="edge24" class="edge">
<title>Node16&#45;&gt;Node21</title>
<path fill="none" stroke="midnightblue" d="M634.32,-168.32C642.89,-160.34 655.81,-148.31 666.19,-138.65"/>
<polygon fill="midnightblue" stroke="midnightblue" points="668.58,-141.21 673.51,-131.83 663.81,-136.09 668.58,-141.21"/>
</g>
<!-- Node23 -->
<g id="node23" class="node">
<title>Node23</title>
<g id="a_node23"><a xlink:href="Separateur_8h.html" target="_top" xlink:title=" ">
<polygon fill="white" stroke="black" points="560,-112.5 560,-131.5 638,-131.5 638,-112.5 560,-112.5"/>
<text text-anchor="middle" x="599" y="-119.5" font-family="Helvetica,sans-Serif" font-size="10.00">Separateur.h</text>
</a>
</g>
</g>
<!-- Node16&#45;&gt;Node23 -->
<g id="edge29" class="edge">
<title>Node16&#45;&gt;Node23</title>
<path fill="none" stroke="midnightblue" d="M620.71,-168.08C617.15,-160.69 611.98,-149.95 607.58,-140.81"/>
<polygon fill="midnightblue" stroke="midnightblue" points="610.71,-139.24 603.21,-131.75 604.4,-142.28 610.71,-139.24"/>
</g>
<!-- Node17&#45;&gt;Node4 -->
<g id="edge20" class="edge">
<title>Node17&#45;&gt;Node4</title>
<path fill="none" stroke="midnightblue" d="M734.98,-112.44C711.9,-103.48 675.44,-89.31 649.36,-79.18"/>
<polygon fill="midnightblue" stroke="midnightblue" points="650.51,-75.88 639.92,-75.52 647.98,-82.4 650.51,-75.88"/>
</g>
<!-- Node17&#45;&gt;Node5 -->
<g id="edge23" class="edge">
<title>Node17&#45;&gt;Node5</title>
<path fill="none" stroke="midnightblue" d="M780.13,-112.44C804.48,-103.44 843.01,-89.19 870.42,-79.05"/>
<polygon fill="midnightblue" stroke="midnightblue" points="871.81,-82.27 879.97,-75.52 869.38,-75.7 871.81,-82.27"/>
</g>
<!-- Node17&#45;&gt;Node10 -->
<g id="edge21" class="edge">
<title>Node17&#45;&gt;Node10</title>
<path fill="none" stroke="midnightblue" d="M728.46,-113.71C725.29,-113.06 722.08,-112.47 719,-112 486.88,-76.83 425.79,-97.46 192,-76 179.06,-74.81 164.95,-73.26 152.32,-71.78"/>
<polygon fill="midnightblue" stroke="midnightblue" points="152.47,-68.28 142.13,-70.57 151.64,-75.23 152.47,-68.28"/>
</g>
<!-- Node18 -->
<g id="node18" class="node">
<title>Node18</title>
<g id="a_node18"><a xlink:title=" ">
<polygon fill="white" stroke="#bfbfbf" points="666,-56.5 666,-75.5 716,-75.5 716,-56.5 666,-56.5"/>
<text text-anchor="middle" x="691" y="-63.5" font-family="Helvetica,sans-Serif" font-size="10.00">stdio.h</text>
</a>
</g>
</g>
<!-- Node17&#45;&gt;Node18 -->
<g id="edge18" class="edge">
<title>Node17&#45;&gt;Node18</title>
<path fill="none" stroke="midnightblue" d="M746.4,-112.32C736.54,-104.26 721.65,-92.08 709.78,-82.37"/>
<polygon fill="midnightblue" stroke="midnightblue" points="711.75,-79.46 701.8,-75.83 707.32,-84.88 711.75,-79.46"/>
</g>
<!-- Node19 -->
<g id="node19" class="node">
<title>Node19</title>
<g id="a_node19"><a xlink:title=" ">
<polygon fill="white" stroke="#bfbfbf" points="734,-56.5 734,-75.5 780,-75.5 780,-56.5 734,-56.5"/>
<text text-anchor="middle" x="757" y="-63.5" font-family="Helvetica,sans-Serif" font-size="10.00">cstdio</text>
</a>
</g>
</g>
<!-- Node17&#45;&gt;Node19 -->
<g id="edge19" class="edge">
<title>Node17&#45;&gt;Node19</title>
<path fill="none" stroke="midnightblue" d="M757,-112.08C757,-105.01 757,-94.86 757,-85.99"/>
<polygon fill="midnightblue" stroke="midnightblue" points="760.5,-85.75 757,-75.75 753.5,-85.75 760.5,-85.75"/>
</g>
<!-- Node17&#45;&gt;Node20 -->
<g id="edge22" class="edge">
<title>Node17&#45;&gt;Node20</title>
<path fill="none" stroke="midnightblue" d="M768.73,-112.32C779.84,-104.11 796.74,-91.6 809.98,-81.81"/>
<polygon fill="midnightblue" stroke="midnightblue" points="812.1,-84.59 818.06,-75.83 807.94,-78.97 812.1,-84.59"/>
</g>
<!-- Node21&#45;&gt;Node4 -->
<g id="edge25" class="edge">
<title>Node21&#45;&gt;Node4</title>
<path fill="none" stroke="midnightblue" d="M672.56,-112.32C662.85,-104.26 648.18,-92.08 636.5,-82.37"/>
<polygon fill="midnightblue" stroke="midnightblue" points="638.56,-79.53 628.63,-75.83 634.09,-84.92 638.56,-79.53"/>
</g>
<!-- Node21&#45;&gt;Node5 -->
<g id="edge27" class="edge">
<title>Node21&#45;&gt;Node5</title>
<path fill="none" stroke="midnightblue" d="M710.07,-114.4C713.42,-113.59 716.79,-112.77 720,-112 784.06,-96.57 802.58,-93.6 869.49,-76.32"/>
<polygon fill="midnightblue" stroke="midnightblue" points="870.46,-79.69 879.26,-73.79 868.7,-72.91 870.46,-79.69"/>
</g>
<!-- Node21&#45;&gt;Node10 -->
<g id="edge26" class="edge">
<title>Node21&#45;&gt;Node10</title>
<path fill="none" stroke="midnightblue" d="M655.97,-113.73C652.96,-113.07 649.92,-112.48 647,-112 446.8,-79.29 393.9,-95.63 192,-76 179.07,-74.74 164.95,-73.17 152.33,-71.7"/>
<polygon fill="midnightblue" stroke="midnightblue" points="152.48,-68.19 142.13,-70.49 151.65,-75.14 152.48,-68.19"/>
</g>
<!-- Node22 -->
<g id="node22" class="node">
<title>Node22</title>
<g id="a_node22"><a xlink:title=" ">
<polygon fill="white" stroke="#bfbfbf" points="518,-56.5 518,-75.5 562,-75.5 562,-56.5 518,-56.5"/>
<text text-anchor="middle" x="540" y="-63.5" font-family="Helvetica,sans-Serif" font-size="10.00">string</text>
</a>
</g>
</g>
<!-- Node21&#45;&gt;Node22 -->
<g id="edge28" class="edge">
<title>Node21&#45;&gt;Node22</title>
<path fill="none" stroke="midnightblue" d="M660.34,-112.44C636.46,-103.42 598.65,-89.15 571.79,-79"/>
<polygon fill="midnightblue" stroke="midnightblue" points="572.67,-75.6 562.08,-75.34 570.2,-82.15 572.67,-75.6"/>
</g>
<!-- Node25 -->
<g id="node25" class="node">
<title>Node25</title>
<g id="a_node25"><a xlink:href="Memoire__ptr_8h.html" target="_top" xlink:title=" ">
<polygon fill="white" stroke="black" points="294.5,-280.5 294.5,-299.5 381.5,-299.5 381.5,-280.5 294.5,-280.5"/>
<text text-anchor="middle" x="338" y="-287.5" font-family="Helvetica,sans-Serif" font-size="10.00">Memoire_ptr.h</text>
</a>
</g>
</g>
<!-- Node24&#45;&gt;Node25 -->
<g id="edge32" class="edge">
<title>Node24&#45;&gt;Node25</title>
<path fill="none" stroke="midnightblue" d="M395.91,-336.32C385.51,-328.18 369.74,-315.84 357.28,-306.09"/>
<polygon fill="midnightblue" stroke="midnightblue" points="359.32,-303.24 349.29,-299.83 355.01,-308.75 359.32,-303.24"/>
</g>
<!-- Node25&#45;&gt;Node9 -->
<g id="edge33" class="edge">
<title>Node25&#45;&gt;Node9</title>
<path fill="none" stroke="midnightblue" d="M349.57,-280.32C360.42,-272.18 376.88,-259.84 389.88,-250.09"/>
<polygon fill="midnightblue" stroke="midnightblue" points="392.32,-252.63 398.22,-243.83 388.12,-247.03 392.32,-252.63"/>
</g>
<!-- Node25&#45;&gt;Node10 -->
<g id="edge34" class="edge">
<title>Node25&#45;&gt;Node10</title>
<path fill="none" stroke="midnightblue" d="M327.7,-280.2C300.68,-256.97 225.97,-191.67 169,-132 153.93,-116.21 137.94,-97.01 127.12,-83.59"/>
<polygon fill="midnightblue" stroke="midnightblue" points="129.78,-81.32 120.81,-75.7 124.32,-85.69 129.78,-81.32"/>
</g>
<!-- Node27&#45;&gt;Node9 -->
<g id="edge41" class="edge">
<title>Node27&#45;&gt;Node9</title>
<path fill="none" stroke="midnightblue" d="M832.77,-282.43C828.17,-281.55 823.47,-280.7 819,-280 686.32,-259.18 527.93,-244.67 453.15,-238.43"/>
<polygon fill="midnightblue" stroke="midnightblue" points="453,-234.91 442.74,-237.57 452.42,-241.88 453,-234.91"/>
</g>
<!-- Node28 -->
<g id="node28" class="node">
<title>Node28</title>
<g id="a_node28"><a xlink:href="blas1_8h.html" target="_top" xlink:title=" ">
<polygon fill="white" stroke="black" points="841,-168.5 841,-187.5 893,-187.5 893,-168.5 841,-168.5"/>
<text text-anchor="middle" x="867" y="-175.5" font-family="Helvetica,sans-Serif" font-size="10.00">blas1.h</text>
</a>
</g>
</g>
<!-- Node27&#45;&gt;Node28 -->
<g id="edge39" class="edge">
<title>Node27&#45;&gt;Node28</title>
<path fill="none" stroke="midnightblue" d="M863.31,-280.37C863.96,-262.62 865.45,-221.67 866.32,-197.6"/>
<polygon fill="midnightblue" stroke="midnightblue" points="869.82,-197.71 866.69,-187.59 862.83,-197.46 869.82,-197.71"/>
</g>
<!-- Node29 -->
<g id="node29" class="node">
<title>Node29</title>
<g id="a_node29"><a xlink:title=" ">
<polygon fill="white" stroke="#bfbfbf" points="791.5,-224.5 791.5,-243.5 838.5,-243.5 838.5,-224.5 791.5,-224.5"/>
<text text-anchor="middle" x="815" y="-231.5" font-family="Helvetica,sans-Serif" font-size="10.00">cmath</text>
</a>
</g>
</g>
<!-- Node27&#45;&gt;Node29 -->
<g id="edge42" class="edge">
<title>Node27&#45;&gt;Node29</title>
<path fill="none" stroke="midnightblue" d="M855.07,-280.08C848.15,-272.3 837.93,-260.8 829.55,-251.37"/>
<polygon fill="midnightblue" stroke="midnightblue" points="832.04,-248.9 822.78,-243.75 826.81,-253.55 832.04,-248.9"/>
</g>
<!-- Node28&#45;&gt;Node5 -->
<g id="edge40" class="edge">
<title>Node28&#45;&gt;Node5</title>
<path fill="none" stroke="midnightblue" d="M893.02,-169.61C911.11,-162.97 933.9,-151.22 945,-132 955.09,-114.53 938.89,-95.18 923.77,-82.18"/>
<polygon fill="midnightblue" stroke="midnightblue" points="925.64,-79.19 915.65,-75.66 921.25,-84.65 925.64,-79.19"/>
</g>
<!-- Node33 -->
<g id="node33" class="node">
<title>Node33</title>
<g id="a_node33"><a xlink:title=" ">
<polygon fill="white" stroke="#bfbfbf" points="733.5,-336.5 733.5,-355.5 786.5,-355.5 786.5,-336.5 733.5,-336.5"/>
<text text-anchor="middle" x="760" y="-343.5" font-family="Helvetica,sans-Serif" font-size="10.00">string.h</text>
</a>
</g>
</g>
<!-- Node32&#45;&gt;Node33 -->
<g id="edge46" class="edge">
<title>Node32&#45;&gt;Node33</title>
<path fill="none" stroke="midnightblue" d="M760,-392.08C760,-385.01 760,-374.86 760,-365.99"/>
<polygon fill="midnightblue" stroke="midnightblue" points="763.5,-365.75 760,-355.75 756.5,-365.75 763.5,-365.75"/>
</g>
<!-- Node34&#45;&gt;Node9 -->
<g id="edge48" class="edge">
<title>Node34&#45;&gt;Node9</title>
<path fill="none" stroke="midnightblue" d="M393.38,-840.27C365.42,-824.26 312,-787.34 312,-739 312,-739 312,-739 312,-457 312,-398.64 333.94,-386.61 363,-336 372.96,-318.66 380.92,-317.82 390,-300 397.53,-285.2 402.83,-267.05 406.07,-253.69"/>
<polygon fill="midnightblue" stroke="midnightblue" points="409.52,-254.3 408.31,-243.78 402.69,-252.76 409.52,-254.3"/>
</g>
<!-- Node35 -->
<g id="node35" class="node">
<title>Node35</title>
<g id="a_node35"><a xlink:href="Vect_8h.html" target="_top" xlink:title=" ">
<polygon fill="white" stroke="black" points="142.5,-672.5 142.5,-691.5 189.5,-691.5 189.5,-672.5 142.5,-672.5"/>
<text text-anchor="middle" x="166" y="-679.5" font-family="Helvetica,sans-Serif" font-size="10.00">Vect.h</text>
</a>
</g>
</g>
<!-- Node34&#45;&gt;Node35 -->
<g id="edge49" class="edge">
<title>Node34&#45;&gt;Node35</title>
<path fill="none" stroke="midnightblue" d="M380.55,-840.4C357.13,-832.82 324.07,-820.41 298,-804 249.79,-773.64 202.95,-724.73 180.23,-699.39"/>
<polygon fill="midnightblue" stroke="midnightblue" points="182.73,-696.94 173.48,-691.77 177.49,-701.58 182.73,-696.94"/>
</g>
<!-- Node36 -->
<g id="node36" class="node">
<title>Node36</title>
<g id="a_node36"><a xlink:href="MacVect_8h.html" target="_top" xlink:title=" ">
<polygon fill="white" stroke="black" points="102.5,-616.5 102.5,-635.5 169.5,-635.5 169.5,-616.5 102.5,-616.5"/>
<text text-anchor="middle" x="136" y="-623.5" font-family="Helvetica,sans-Serif" font-size="10.00">MacVect.h</text>
</a>
</g>
</g>
<!-- Node35&#45;&gt;Node36 -->
<g id="edge50" class="edge">
<title>Node35&#45;&gt;Node36</title>
<path fill="none" stroke="midnightblue" d="M161.05,-672.08C156.9,-664.61 150.85,-653.72 145.73,-644.52"/>
<polygon fill="midnightblue" stroke="midnightblue" points="148.78,-642.79 140.86,-635.75 142.66,-646.19 148.78,-642.79"/>
</g>
<!-- Node36&#45;&gt;Node10 -->
<g id="edge55" class="edge">
<title>Node36&#45;&gt;Node10</title>
<path fill="none" stroke="midnightblue" d="M108.15,-616.48C68.36,-602.37 0,-570.12 0,-515 0,-515 0,-515 0,-177 0,-130.11 50.55,-96.89 84.33,-79.93"/>
<polygon fill="midnightblue" stroke="midnightblue" points="85.87,-83.07 93.36,-75.58 82.83,-76.77 85.87,-83.07"/>
</g>
<!-- Node37 -->
<g id="node37" class="node">
<title>Node37</title>
<g id="a_node37"><a xlink:href="Nom_8h.html" target="_top" xlink:title=" ">
<polygon fill="white" stroke="black" points="128.5,-448.5 128.5,-467.5 177.5,-467.5 177.5,-448.5 128.5,-448.5"/>
<text text-anchor="middle" x="153" y="-455.5" font-family="Helvetica,sans-Serif" font-size="10.00">Nom.h</text>
</a>
</g>
</g>
<!-- Node36&#45;&gt;Node37 -->
<g id="edge51" class="edge">
<title>Node36&#45;&gt;Node37</title>
<path fill="none" stroke="midnightblue" d="M139.25,-616.18C142.39,-607.22 146.96,-592.85 149,-580 154.68,-544.14 154.52,-501.58 153.81,-477.69"/>
<polygon fill="midnightblue" stroke="midnightblue" points="157.3,-477.44 153.44,-467.58 150.31,-477.7 157.3,-477.44"/>
</g>
<!-- Node39 -->
<g id="node39" class="node">
<title>Node39</title>
<g id="a_node39"><a xlink:href="vect__impl_8h.html" target="_top" xlink:title=" ">
<polygon fill="white" stroke="black" points="66,-560.5 66,-579.5 140,-579.5 140,-560.5 66,-560.5"/>
<text text-anchor="middle" x="103" y="-567.5" font-family="Helvetica,sans-Serif" font-size="10.00">vect_impl.h</text>
</a>
</g>
</g>
<!-- Node36&#45;&gt;Node39 -->
<g id="edge56" class="edge">
<title>Node36&#45;&gt;Node39</title>
<path fill="none" stroke="midnightblue" d="M130.55,-616.08C125.99,-608.61 119.33,-597.72 113.71,-588.52"/>
<polygon fill="midnightblue" stroke="midnightblue" points="116.55,-586.46 108.35,-579.75 110.58,-590.11 116.55,-586.46"/>
</g>
<!-- Node37&#45;&gt;Node9 -->
<g id="edge52" class="edge">
<title>Node37&#45;&gt;Node9</title>
<path fill="none" stroke="midnightblue" d="M154.24,-448.48C159.05,-416.46 177.53,-303.96 203,-280 226.29,-258.09 313.47,-245.18 366.98,-239.16"/>
<polygon fill="midnightblue" stroke="midnightblue" points="367.64,-242.6 377.2,-238.04 366.88,-235.65 367.64,-242.6"/>
</g>
<!-- Node37&#45;&gt;Node22 -->
<g id="edge54" class="edge">
<title>Node37&#45;&gt;Node22</title>
<path fill="none" stroke="midnightblue" d="M151.78,-448.24C148.34,-419.83 141.59,-329.21 187,-280 294.91,-163.06 406.5,-250.23 513,-132 524.87,-118.82 531.96,-99.68 535.88,-85.58"/>
<polygon fill="midnightblue" stroke="midnightblue" points="539.35,-86.12 538.37,-75.57 532.56,-84.43 539.35,-86.12"/>
</g>
<!-- Node38 -->
<g id="node38" class="node">
<title>Node38</title>
<g id="a_node38"><a xlink:title=" ">
<polygon fill="white" stroke="#bfbfbf" points="68,-392.5 68,-411.5 118,-411.5 118,-392.5 68,-392.5"/>
<text text-anchor="middle" x="93" y="-399.5" font-family="Helvetica,sans-Serif" font-size="10.00">cstring</text>
</a>
</g>
</g>
<!-- Node37&#45;&gt;Node38 -->
<g id="edge53" class="edge">
<title>Node37&#45;&gt;Node38</title>
<path fill="none" stroke="midnightblue" d="M143.36,-448.32C134.49,-440.34 121.13,-428.31 110.39,-418.65"/>
<polygon fill="midnightblue" stroke="midnightblue" points="112.59,-415.92 102.82,-411.83 107.91,-421.13 112.59,-415.92"/>
</g>
<!-- Node39&#45;&gt;Node10 -->
<g id="edge58" class="edge">
<title>Node39&#45;&gt;Node10</title>
<path fill="none" stroke="midnightblue" d="M93.41,-560.34C75.33,-543.02 38,-502.03 38,-459 38,-459 38,-459 38,-177 38,-137.28 71.96,-101.5 94.48,-82.15"/>
<polygon fill="midnightblue" stroke="midnightblue" points="96.98,-84.63 102.46,-75.57 92.52,-79.24 96.98,-84.63"/>
</g>
<!-- Node39&#45;&gt;Node37 -->
<g id="edge57" class="edge">
<title>Node39&#45;&gt;Node37</title>
<path fill="none" stroke="midnightblue" d="M106.92,-560.37C115.07,-542.46 133.94,-500.92 144.84,-476.95"/>
<polygon fill="midnightblue" stroke="midnightblue" points="148.14,-478.14 149.09,-467.59 141.77,-475.25 148.14,-478.14"/>
</g>
<!-- Node40 -->
<g id="node40" class="node">
<title>Node40</title>
<g id="a_node40"><a xlink:href="DerOu___8h.html" target="_top" xlink:title=" ">
<polygon fill="white" stroke="black" points="200,-504.5 200,-523.5 262,-523.5 262,-504.5 200,-504.5"/>
<text text-anchor="middle" x="231" y="-511.5" font-family="Helvetica,sans-Serif" font-size="10.00">DerOu_.h</text>
</a>
</g>
</g>
<!-- Node39&#45;&gt;Node40 -->
<g id="edge59" class="edge">
<title>Node39&#45;&gt;Node40</title>
<path fill="none" stroke="midnightblue" d="M123.28,-560.44C144.35,-551.56 177.52,-537.56 201.49,-527.45"/>
<polygon fill="midnightblue" stroke="midnightblue" points="202.96,-530.63 210.81,-523.52 200.24,-524.18 202.96,-530.63"/>
</g>
<!-- Node40&#45;&gt;Node37 -->
<g id="edge65" class="edge">
<title>Node40&#45;&gt;Node37</title>
<path fill="none" stroke="midnightblue" d="M218.47,-504.32C206.41,-495.98 187.97,-483.21 173.73,-473.35"/>
<polygon fill="midnightblue" stroke="midnightblue" points="175.72,-470.47 165.5,-467.65 171.73,-476.22 175.72,-470.47"/>
</g>
<!-- Node41 -->
<g id="node41" class="node">
<title>Node41</title>
<g id="a_node41"><a xlink:href="Deriv_8h.html" target="_top" xlink:title=" ">
<polygon fill="white" stroke="black" points="208.5,-448.5 208.5,-467.5 259.5,-467.5 259.5,-448.5 208.5,-448.5"/>
<text text-anchor="middle" x="234" y="-455.5" font-family="Helvetica,sans-Serif" font-size="10.00">Deriv.h</text>
</a>
</g>
</g>
<!-- Node40&#45;&gt;Node41 -->
<g id="edge60" class="edge">
<title>Node40&#45;&gt;Node41</title>
<path fill="none" stroke="midnightblue" d="M231.5,-504.08C231.89,-497.01 232.45,-486.86 232.95,-477.99"/>
<polygon fill="midnightblue" stroke="midnightblue" points="236.45,-477.93 233.51,-467.75 229.46,-477.54 236.45,-477.93"/>
</g>
<!-- Node42 -->
<g id="node42" class="node">
<title>Node42</title>
<g id="a_node42"><a xlink:href="MacDeriv_8h.html" target="_top" xlink:title=" ">
<polygon fill="white" stroke="black" points="212.5,-392.5 212.5,-411.5 283.5,-411.5 283.5,-392.5 212.5,-392.5"/>
<text text-anchor="middle" x="248" y="-399.5" font-family="Helvetica,sans-Serif" font-size="10.00">MacDeriv.h</text>
</a>
</g>
</g>
<!-- Node41&#45;&gt;Node42 -->
<g id="edge61" class="edge">
<title>Node41&#45;&gt;Node42</title>
<path fill="none" stroke="midnightblue" d="M236.31,-448.08C238.17,-440.93 240.84,-430.64 243.15,-421.69"/>
<polygon fill="midnightblue" stroke="midnightblue" points="246.61,-422.31 245.73,-411.75 239.83,-420.55 246.61,-422.31"/>
</g>
<!-- Node43 -->
<g id="node43" class="node">
<title>Node43</title>
<g id="a_node43"><a xlink:href="Deriv___8h.html" target="_top" xlink:title=" ">
<polygon fill="white" stroke="black" points="215.5,-336.5 215.5,-355.5 272.5,-355.5 272.5,-336.5 215.5,-336.5"/>
<text text-anchor="middle" x="244" y="-343.5" font-family="Helvetica,sans-Serif" font-size="10.00">Deriv_.h</text>
</a>
</g>
</g>
<!-- Node42&#45;&gt;Node43 -->
<g id="edge62" class="edge">
<title>Node42&#45;&gt;Node43</title>
<path fill="none" stroke="midnightblue" d="M247.34,-392.08C246.82,-385.01 246.06,-374.86 245.41,-365.99"/>
<polygon fill="midnightblue" stroke="midnightblue" points="248.88,-365.47 244.65,-355.75 241.9,-365.98 248.88,-365.47"/>
</g>
<!-- Node44 -->
<g id="node44" class="node">
<title>Node44</title>
<g id="a_node44"><a xlink:href="O__U__Ptr_8h.html" target="_top" xlink:title=" ">
<polygon fill="white" stroke="black" points="212,-280.5 212,-299.5 276,-299.5 276,-280.5 212,-280.5"/>
<text text-anchor="middle" x="244" y="-287.5" font-family="Helvetica,sans-Serif" font-size="10.00">O_U_Ptr.h</text>
</a>
</g>
</g>
<!-- Node43&#45;&gt;Node44 -->
<g id="edge63" class="edge">
<title>Node43&#45;&gt;Node44</title>
<path fill="none" stroke="midnightblue" d="M244,-336.08C244,-329.01 244,-318.86 244,-309.99"/>
<polygon fill="midnightblue" stroke="midnightblue" points="247.5,-309.75 244,-299.75 240.5,-309.75 247.5,-309.75"/>
</g>
<!-- Node44&#45;&gt;Node9 -->
<g id="edge64" class="edge">
<title>Node44&#45;&gt;Node9</title>
<path fill="none" stroke="midnightblue" d="M270.3,-280.44C298.35,-271.32 342.94,-256.81 374.18,-246.65"/>
<polygon fill="midnightblue" stroke="midnightblue" points="375.39,-249.94 383.82,-243.52 373.23,-243.28 375.39,-249.94"/>
</g>
<!-- Node46 -->
<g id="node46" class="node">
<title>Node46</title>
<g id="a_node46"><a xlink:href="TRUSTTabs__forward_8h.html" target="_top" xlink:title=" ">
<polygon fill="white" stroke="black" points="614,-952.5 614,-971.5 736,-971.5 736,-952.5 614,-952.5"/>
<text text-anchor="middle" x="675" y="-959.5" font-family="Helvetica,sans-Serif" font-size="10.00">TRUSTTabs_forward.h</text>
</a>
</g>
</g>
<!-- Node45&#45;&gt;Node46 -->
<g id="edge67" class="edge">
<title>Node45&#45;&gt;Node46</title>
<path fill="none" stroke="midnightblue" d="M623.8,-1008.32C632.82,-1000.34 646.41,-988.31 657.32,-978.65"/>
<polygon fill="midnightblue" stroke="midnightblue" points="659.85,-981.08 665.02,-971.83 655.21,-975.84 659.85,-981.08"/>
</g>
<!-- Node47 -->
<g id="node47" class="node">
<title>Node47</title>
<g id="a_node47"><a xlink:href="Objet__a__lire_8h.html" target="_top" xlink:title=" ">
<polygon fill="white" stroke="black" points="512,-952.5 512,-971.5 596,-971.5 596,-952.5 512,-952.5"/>
<text text-anchor="middle" x="554" y="-959.5" font-family="Helvetica,sans-Serif" font-size="10.00">Objet_a_lire.h</text>
</a>
</g>
</g>
<!-- Node45&#45;&gt;Node47 -->
<g id="edge68" class="edge">
<title>Node45&#45;&gt;Node47</title>
<path fill="none" stroke="midnightblue" d="M604.36,-1008.32C595.49,-1000.34 582.13,-988.31 571.39,-978.65"/>
<polygon fill="midnightblue" stroke="midnightblue" points="573.59,-975.92 563.82,-971.83 568.91,-981.13 573.59,-975.92"/>
</g>
<!-- Node47&#45;&gt;Node2 -->
<g id="edge69" class="edge">
<title>Node47&#45;&gt;Node2</title>
<path fill="none" stroke="midnightblue" d="M554.39,-952.44C555.21,-933.94 557,-888.83 557,-851 557,-851 557,-851 557,-569 557,-528.97 591.8,-493.34 614.91,-474.09"/>
<polygon fill="midnightblue" stroke="midnightblue" points="617.2,-476.74 622.81,-467.76 612.82,-471.28 617.2,-476.74"/>
</g>
<!-- Node47&#45;&gt;Node9 -->
<g id="edge78" class="edge">
<title>Node47&#45;&gt;Node9</title>
<path fill="none" stroke="midnightblue" d="M596.22,-953.51C674.44,-938.42 834,-901.47 834,-851 834,-851 834,-851 834,-625 834,-495.45 890.81,-424.29 796,-336 745.84,-289.28 542.53,-254.43 452.85,-241.02"/>
<polygon fill="midnightblue" stroke="midnightblue" points="453.15,-237.53 442.75,-239.53 452.13,-244.46 453.15,-237.53"/>
</g>
<!-- Node47&#45;&gt;Node34 -->
<g id="edge77" class="edge">
<title>Node47&#45;&gt;Node34</title>
<path fill="none" stroke="midnightblue" d="M542.7,-952.37C518.2,-933.65 459.94,-889.15 429.42,-865.83"/>
<polygon fill="midnightblue" stroke="midnightblue" points="431.32,-862.88 421.25,-859.59 427.07,-868.44 431.32,-862.88"/>
</g>
<!-- Node48 -->
<g id="node48" class="node">
<title>Node48</title>
<g id="a_node48"><a xlink:href="List__Nom_8h.html" target="_top" xlink:title=" ">
<polygon fill="white" stroke="black" points="297.5,-896.5 297.5,-915.5 368.5,-915.5 368.5,-896.5 297.5,-896.5"/>
<text text-anchor="middle" x="333" y="-903.5" font-family="Helvetica,sans-Serif" font-size="10.00">List_Nom.h</text>
</a>
</g>
</g>
<!-- Node47&#45;&gt;Node48 -->
<g id="edge70" class="edge">
<title>Node47&#45;&gt;Node48</title>
<path fill="none" stroke="midnightblue" d="M518.98,-952.44C480.75,-943.1 419.43,-928.12 377.74,-917.93"/>
<polygon fill="midnightblue" stroke="midnightblue" points="378.4,-914.49 367.85,-915.52 376.74,-921.29 378.4,-914.49"/>
</g>
<!-- Node49 -->
<g id="node49" class="node">
<title>Node49</title>
<g id="a_node49"><a xlink:href="List_8h.html" target="_top" xlink:title=" ">
<polygon fill="white" stroke="black" points="295.5,-840.5 295.5,-859.5 338.5,-859.5 338.5,-840.5 295.5,-840.5"/>
<text text-anchor="middle" x="317" y="-847.5" font-family="Helvetica,sans-Serif" font-size="10.00">List.h</text>
</a>
</g>
</g>
<!-- Node48&#45;&gt;Node49 -->
<g id="edge71" class="edge">
<title>Node48&#45;&gt;Node49</title>
<path fill="none" stroke="midnightblue" d="M330.36,-896.08C328.21,-888.85 325.12,-878.41 322.45,-869.4"/>
<polygon fill="midnightblue" stroke="midnightblue" points="325.79,-868.34 319.59,-859.75 319.08,-870.33 325.79,-868.34"/>
</g>
<!-- Node50 -->
<g id="node50" class="node">
<title>Node50</title>
<g id="a_node50"><a xlink:href="MacList_8h.html" target="_top" xlink:title=" ">
<polygon fill="white" stroke="black" points="134.5,-784.5 134.5,-803.5 197.5,-803.5 197.5,-784.5 134.5,-784.5"/>
<text text-anchor="middle" x="166" y="-791.5" font-family="Helvetica,sans-Serif" font-size="10.00">MacList.h</text>
</a>
</g>
</g>
<!-- Node49&#45;&gt;Node50 -->
<g id="edge72" class="edge">
<title>Node49&#45;&gt;Node50</title>
<path fill="none" stroke="midnightblue" d="M295.37,-841.26C270.34,-832.32 228.85,-817.48 199.62,-807.02"/>
<polygon fill="midnightblue" stroke="midnightblue" points="200.43,-803.6 189.84,-803.52 198.07,-810.19 200.43,-803.6"/>
</g>
<!-- Node51 -->
<g id="node51" class="node">
<title>Node51</title>
<g id="a_node51"><a xlink:href="liste_8h.html" target="_top" xlink:title=" ">
<polygon fill="white" stroke="black" points="230.5,-672.5 230.5,-691.5 277.5,-691.5 277.5,-672.5 230.5,-672.5"/>
<text text-anchor="middle" x="254" y="-679.5" font-family="Helvetica,sans-Serif" font-size="10.00">liste.h</text>
</a>
</g>
</g>
<!-- Node50&#45;&gt;Node51 -->
<g id="edge73" class="edge">
<title>Node50&#45;&gt;Node51</title>
<path fill="none" stroke="midnightblue" d="M173.4,-784.47C181.15,-775.49 193.6,-760.9 204,-748 217.07,-731.79 231.52,-712.89 241.52,-699.66"/>
<polygon fill="midnightblue" stroke="midnightblue" points="244.43,-701.6 247.65,-691.51 238.84,-697.39 244.43,-701.6"/>
</g>
<!-- Node52 -->
<g id="node52" class="node">
<title>Node52</title>
<g id="a_node52"><a xlink:href="Motcle_8h.html" target="_top" xlink:title=" ">
<polygon fill="white" stroke="black" points="136.5,-728.5 136.5,-747.5 195.5,-747.5 195.5,-728.5 136.5,-728.5"/>
<text text-anchor="middle" x="166" y="-735.5" font-family="Helvetica,sans-Serif" font-size="10.00">Motcle.h</text>
</a>
</g>
</g>
<!-- Node50&#45;&gt;Node52 -->
<g id="edge75" class="edge">
<title>Node50&#45;&gt;Node52</title>
<path fill="none" stroke="midnightblue" d="M166,-784.08C166,-777.01 166,-766.86 166,-757.99"/>
<polygon fill="midnightblue" stroke="midnightblue" points="169.5,-757.75 166,-747.75 162.5,-757.75 169.5,-757.75"/>
</g>
<!-- Node51&#45;&gt;Node40 -->
<g id="edge74" class="edge">
<title>Node51&#45;&gt;Node40</title>
<path fill="none" stroke="midnightblue" d="M252.76,-672.08C249.14,-645.95 238.51,-569.21 233.57,-533.58"/>
<polygon fill="midnightblue" stroke="midnightblue" points="237.03,-532.99 232.19,-523.57 230.09,-533.95 237.03,-532.99"/>
</g>
<!-- Node52&#45;&gt;Node35 -->
<g id="edge76" class="edge">
<title>Node52&#45;&gt;Node35</title>
<path fill="none" stroke="midnightblue" d="M166,-728.08C166,-721.01 166,-710.86 166,-701.99"/>
<polygon fill="midnightblue" stroke="midnightblue" points="169.5,-701.75 166,-691.75 162.5,-701.75 169.5,-701.75"/>
</g>
</g>
</svg>
