<?xml version="1.0" encoding="UTF-8" standalone="no"?>
<!DOCTYPE svg PUBLIC "-//W3C//DTD SVG 1.1//EN"
 "http://www.w3.org/Graphics/SVG/1.1/DTD/svg11.dtd">
<!-- Generated by graphviz version 2.43.0 (0)
 -->
<!-- Title: src/Kernel/Geometrie/Quadrangle_VEF.h Pages: 1 -->
<svg width="856pt" height="117pt"
 viewBox="0.00 0.00 856.00 117.00" xmlns="http://www.w3.org/2000/svg" xmlns:xlink="http://www.w3.org/1999/xlink">
<g id="graph0" class="graph" transform="scale(1 1) rotate(0) translate(4 113)">
<title>src/Kernel/Geometrie/Quadrangle_VEF.h</title>
<polygon fill="white" stroke="transparent" points="-4,4 -4,-113 852,-113 852,4 -4,4"/>
<!-- Node1 -->
<g id="node1" class="node">
<title>Node1</title>
<g id="a_node1"><a xlink:title=" ">
<polygon fill="#bfbfbf" stroke="black" points="371,-78.5 371,-108.5 490,-108.5 490,-78.5 371,-78.5"/>
<text text-anchor="start" x="379" y="-96.5" font-family="Helvetica,sans-Serif" font-size="10.00">src/Kernel/Geometrie</text>
<text text-anchor="middle" x="430.5" y="-85.5" font-family="Helvetica,sans-Serif" font-size="10.00">/Quadrangle_VEF.h</text>
</a>
</g>
</g>
<!-- Node2 -->
<g id="node2" class="node">
<title>Node2</title>
<g id="a_node2"><a xlink:href="Zone__EF_8cpp.html" target="_top" xlink:title=" ">
<polygon fill="white" stroke="black" points="0,-11.5 0,-30.5 143,-30.5 143,-11.5 0,-11.5"/>
<text text-anchor="middle" x="71.5" y="-18.5" font-family="Helvetica,sans-Serif" font-size="10.00">src/EF/Zones/Zone_EF.cpp</text>
</a>
</g>
</g>
<!-- Node1&#45;&gt;Node2 -->
<g id="edge1" class="edge">
<title>Node1&#45;&gt;Node2</title>
<path fill="none" stroke="midnightblue" d="M361.04,-81.24C304.44,-71.74 222.55,-57.29 151.5,-42 135.68,-38.6 118.24,-34.3 103.69,-30.56"/>
<polygon fill="midnightblue" stroke="midnightblue" points="360.51,-84.7 370.95,-82.89 361.66,-77.79 360.51,-84.7"/>
</g>
<!-- Node3 -->
<g id="node3" class="node">
<title>Node3</title>
<g id="a_node3"><a xlink:href="Quadrangle__VEF_8cpp.html" target="_top" xlink:title=" ">
<polygon fill="white" stroke="black" points="161,-6 161,-36 280,-36 280,-6 161,-6"/>
<text text-anchor="start" x="169" y="-24" font-family="Helvetica,sans-Serif" font-size="10.00">src/Kernel/Geometrie</text>
<text text-anchor="middle" x="220.5" y="-13" font-family="Helvetica,sans-Serif" font-size="10.00">/Quadrangle_VEF.cpp</text>
</a>
</g>
</g>
<!-- Node1&#45;&gt;Node3 -->
<g id="edge2" class="edge">
<title>Node1&#45;&gt;Node3</title>
<path fill="none" stroke="midnightblue" d="M378.98,-75.2C343.18,-63.18 296.05,-47.36 262.52,-36.11"/>
<polygon fill="midnightblue" stroke="midnightblue" points="378.17,-78.62 388.76,-78.49 380.39,-71.99 378.17,-78.62"/>
</g>
<!-- Node4 -->
<g id="node4" class="node">
<title>Node4</title>
<g id="a_node4"><a xlink:href="Redresser__hexaedres__vdf_8cpp.html" target="_top" xlink:title=" ">
<polygon fill="white" stroke="black" points="298,-0.5 298,-41.5 423,-41.5 423,-0.5 298,-0.5"/>
<text text-anchor="start" x="306" y="-29.5" font-family="Helvetica,sans-Serif" font-size="10.00">src/Kernel/Geometrie</text>
<text text-anchor="start" x="306" y="-18.5" font-family="Helvetica,sans-Serif" font-size="10.00">/Redresser_hexaedres</text>
<text text-anchor="middle" x="360.5" y="-7.5" font-family="Helvetica,sans-Serif" font-size="10.00">_vdf.cpp</text>
</a>
</g>
</g>
<!-- Node1&#45;&gt;Node4 -->
<g id="edge3" class="edge">
<title>Node1&#45;&gt;Node4</title>
<path fill="none" stroke="midnightblue" d="M409.25,-71.1C399.93,-61.71 389.06,-50.76 379.95,-41.59"/>
<polygon fill="midnightblue" stroke="midnightblue" points="406.8,-73.6 416.33,-78.23 411.77,-68.67 406.8,-73.6"/>
</g>
<!-- Node5 -->
<g id="node5" class="node">
<title>Node5</title>
<g id="a_node5"><a xlink:href="Zone__Poly__base_8cpp.html" target="_top" xlink:title=" ">
<polygon fill="white" stroke="black" points="441,-6 441,-36 560,-36 560,-6 441,-6"/>
<text text-anchor="start" x="449" y="-24" font-family="Helvetica,sans-Serif" font-size="10.00">src/Kernel/VF/Zones</text>
<text text-anchor="middle" x="500.5" y="-13" font-family="Helvetica,sans-Serif" font-size="10.00">/Zone_Poly_base.cpp</text>
</a>
</g>
</g>
<!-- Node1&#45;&gt;Node5 -->
<g id="edge4" class="edge">
<title>Node1&#45;&gt;Node5</title>
<path fill="none" stroke="midnightblue" d="M451.98,-70.86C463.15,-59.61 476.49,-46.18 486.36,-36.25"/>
<polygon fill="midnightblue" stroke="midnightblue" points="449.23,-68.67 444.67,-78.23 454.2,-73.6 449.23,-68.67"/>
</g>
<!-- Node6 -->
<g id="node6" class="node">
<title>Node6</title>
<g id="a_node6"><a xlink:href="Zone__PolyMAC__P0_8cpp.html" target="_top" xlink:title=" ">
<polygon fill="white" stroke="black" points="578.5,-6 578.5,-36 716.5,-36 716.5,-6 578.5,-6"/>
<text text-anchor="start" x="586.5" y="-24" font-family="Helvetica,sans-Serif" font-size="10.00">src/PolyMAC/Zones/Zone</text>
<text text-anchor="middle" x="647.5" y="-13" font-family="Helvetica,sans-Serif" font-size="10.00">_PolyMAC_P0.cpp</text>
</a>
</g>
</g>
<!-- Node1&#45;&gt;Node6 -->
<g id="edge5" class="edge">
<title>Node1&#45;&gt;Node6</title>
<path fill="none" stroke="midnightblue" d="M483.26,-75.36C520.32,-63.32 569.28,-47.41 604.08,-36.11"/>
<polygon fill="midnightblue" stroke="midnightblue" points="482.06,-72.07 473.63,-78.49 484.22,-78.73 482.06,-72.07"/>
</g>
<!-- Node7 -->
<g id="node7" class="node">
<title>Node7</title>
<g id="a_node7"><a xlink:href="Zone__VEF_8cpp.html" target="_top" xlink:title=" ">
<polygon fill="white" stroke="black" points="735,-6 735,-36 848,-36 848,-6 735,-6"/>
<text text-anchor="start" x="743" y="-24" font-family="Helvetica,sans-Serif" font-size="10.00">src/VEF/Zones/Zone</text>
<text text-anchor="middle" x="791.5" y="-13" font-family="Helvetica,sans-Serif" font-size="10.00">_VEF.cpp</text>
</a>
</g>
</g>
<!-- Node1&#45;&gt;Node7 -->
<g id="edge6" class="edge">
<title>Node1&#45;&gt;Node7</title>
<path fill="none" stroke="midnightblue" d="M500.4,-83.04C560.49,-74.32 649.25,-60 725.5,-42 732.84,-40.27 740.57,-38.17 748.04,-36.01"/>
<polygon fill="midnightblue" stroke="midnightblue" points="499.67,-79.61 490.27,-84.5 500.66,-86.54 499.67,-79.61"/>
</g>
</g>
</svg>
