<?xml version="1.0" encoding="UTF-8" standalone="no"?>
<!DOCTYPE svg PUBLIC "-//W3C//DTD SVG 1.1//EN"
 "http://www.w3.org/Graphics/SVG/1.1/DTD/svg11.dtd">
<!-- Generated by graphviz version 2.43.0 (0)
 -->
<!-- Title: src/Kernel/Geometrie/Raffiner_Simplexes.h Pages: 1 -->
<svg width="326pt" height="173pt"
 viewBox="0.00 0.00 325.50 173.00" xmlns="http://www.w3.org/2000/svg" xmlns:xlink="http://www.w3.org/1999/xlink">
<g id="graph0" class="graph" transform="scale(1 1) rotate(0) translate(4 169)">
<title>src/Kernel/Geometrie/Raffiner_Simplexes.h</title>
<polygon fill="white" stroke="transparent" points="-4,4 -4,-169 321.5,-169 321.5,4 -4,4"/>
<!-- Node1 -->
<g id="node1" class="node">
<title>Node1</title>
<g id="a_node1"><a xlink:title=" ">
<polygon fill="#bfbfbf" stroke="black" points="88,-134.5 88,-164.5 210,-164.5 210,-134.5 88,-134.5"/>
<text text-anchor="start" x="96" y="-152.5" font-family="Helvetica,sans-Serif" font-size="10.00">src/Kernel/Geometrie</text>
<text text-anchor="middle" x="149" y="-141.5" font-family="Helvetica,sans-Serif" font-size="10.00">/Raffiner_Simplexes.h</text>
</a>
</g>
</g>
<!-- Node2 -->
<g id="node2" class="node">
<title>Node2</title>
<g id="a_node2"><a xlink:href="Raffiner__Simplexes_8cpp.html" target="_top" xlink:title=" ">
<polygon fill="white" stroke="black" points="0,-67.5 0,-97.5 134,-97.5 134,-67.5 0,-67.5"/>
<text text-anchor="start" x="8" y="-85.5" font-family="Helvetica,sans-Serif" font-size="10.00">src/Kernel/Geometrie</text>
<text text-anchor="middle" x="67" y="-74.5" font-family="Helvetica,sans-Serif" font-size="10.00">/Raffiner_Simplexes.cpp</text>
</a>
</g>
</g>
<!-- Node1&#45;&gt;Node2 -->
<g id="edge1" class="edge">
<title>Node1&#45;&gt;Node2</title>
<path fill="none" stroke="midnightblue" d="M123.35,-128.17C110.81,-118.23 96.03,-106.51 84.76,-97.58"/>
<polygon fill="midnightblue" stroke="midnightblue" points="121.2,-130.93 131.21,-134.4 125.54,-125.44 121.2,-130.93"/>
</g>
<!-- Node3 -->
<g id="node3" class="node">
<title>Node3</title>
<g id="a_node3"><a xlink:href="Raffiner__isotrope__parallele_8h.html" target="_top" xlink:title=" ">
<polygon fill="white" stroke="black" points="152,-67.5 152,-97.5 312,-97.5 312,-67.5 152,-67.5"/>
<text text-anchor="start" x="160" y="-85.5" font-family="Helvetica,sans-Serif" font-size="10.00">src/Kernel/Geometrie</text>
<text text-anchor="middle" x="232" y="-74.5" font-family="Helvetica,sans-Serif" font-size="10.00">/Raffiner_isotrope_parallele.h</text>
</a>
</g>
</g>
<!-- Node1&#45;&gt;Node3 -->
<g id="edge2" class="edge">
<title>Node1&#45;&gt;Node3</title>
<path fill="none" stroke="midnightblue" d="M174.96,-128.17C187.65,-118.23 202.61,-106.51 214.03,-97.58"/>
<polygon fill="midnightblue" stroke="midnightblue" points="172.72,-125.47 167.01,-134.4 177.04,-130.99 172.72,-125.47"/>
</g>
<!-- Node4 -->
<g id="node4" class="node">
<title>Node4</title>
<g id="a_node4"><a xlink:href="Raffiner__isotrope__parallele_8cpp.html" target="_top" xlink:title=" ">
<polygon fill="white" stroke="black" points="146.5,-0.5 146.5,-30.5 317.5,-30.5 317.5,-0.5 146.5,-0.5"/>
<text text-anchor="start" x="154.5" y="-18.5" font-family="Helvetica,sans-Serif" font-size="10.00">src/Kernel/Geometrie</text>
<text text-anchor="middle" x="232" y="-7.5" font-family="Helvetica,sans-Serif" font-size="10.00">/Raffiner_isotrope_parallele.cpp</text>
</a>
</g>
</g>
<!-- Node3&#45;&gt;Node4 -->
<g id="edge3" class="edge">
<title>Node3&#45;&gt;Node4</title>
<path fill="none" stroke="midnightblue" d="M232,-57.11C232,-48.15 232,-38.32 232,-30.58"/>
<polygon fill="midnightblue" stroke="midnightblue" points="228.5,-57.4 232,-67.4 235.5,-57.4 228.5,-57.4"/>
</g>
</g>
</svg>
