<?xml version="1.0" encoding="UTF-8" standalone="no"?>
<!DOCTYPE svg PUBLIC "-//W3C//DTD SVG 1.1//EN"
 "http://www.w3.org/Graphics/SVG/1.1/DTD/svg11.dtd">
<!-- Generated by graphviz version 2.43.0 (0)
 -->
<!-- Title: src/PolyMAC/Champs/Ref_Champ_Face_PolyMAC_P0.h Pages: 1 -->
<svg width="2321pt" height="195pt"
 viewBox="0.00 0.00 2321.00 195.00" xmlns="http://www.w3.org/2000/svg" xmlns:xlink="http://www.w3.org/1999/xlink">
<g id="graph0" class="graph" transform="scale(1 1) rotate(0) translate(4 191)">
<title>src/PolyMAC/Champs/Ref_Champ_Face_PolyMAC_P0.h</title>
<polygon fill="white" stroke="transparent" points="-4,4 -4,-191 2317,-191 2317,4 -4,4"/>
<!-- Node1 -->
<g id="node1" class="node">
<title>Node1</title>
<g id="a_node1"><a xlink:title=" ">
<polygon fill="#bfbfbf" stroke="black" points="520.5,-156.5 520.5,-186.5 698.5,-186.5 698.5,-156.5 520.5,-156.5"/>
<text text-anchor="start" x="528.5" y="-174.5" font-family="Helvetica,sans-Serif" font-size="10.00">src/PolyMAC/Champs</text>
<text text-anchor="middle" x="609.5" y="-163.5" font-family="Helvetica,sans-Serif" font-size="10.00">/Ref_Champ_Face_PolyMAC_P0.h</text>
</a>
</g>
</g>
<!-- Node2 -->
<g id="node2" class="node">
<title>Node2</title>
<g id="a_node2"><a xlink:href="Champ__Fonc__Elem__PolyMAC__P0__TC_8h.html" target="_top" xlink:title=" ">
<polygon fill="white" stroke="black" points="149,-78.5 149,-119.5 310,-119.5 310,-78.5 149,-78.5"/>
<text text-anchor="start" x="157" y="-107.5" font-family="Helvetica,sans-Serif" font-size="10.00">src/PolyMAC/Champs</text>
<text text-anchor="start" x="157" y="-96.5" font-family="Helvetica,sans-Serif" font-size="10.00">/Champ_Fonc_Elem_PolyMAC</text>
<text text-anchor="middle" x="229.5" y="-85.5" font-family="Helvetica,sans-Serif" font-size="10.00">_P0_TC.h</text>
</a>
</g>
</g>
<!-- Node1&#45;&gt;Node2 -->
<g id="edge1" class="edge">
<title>Node1&#45;&gt;Node2</title>
<path fill="none" stroke="midnightblue" d="M512.05,-154.82C455.42,-145.4 382.78,-132.79 318.5,-120 315.86,-119.47 313.18,-118.93 310.47,-118.37"/>
<polygon fill="midnightblue" stroke="midnightblue" points="511.63,-158.3 522.07,-156.48 512.77,-151.39 511.63,-158.3"/>
</g>
<!-- Node5 -->
<g id="node5" class="node">
<title>Node5</title>
<g id="a_node5"><a xlink:href="Champ__Fonc__Elem__PolyMAC__P0__rot_8h.html" target="_top" xlink:title=" ">
<polygon fill="white" stroke="black" points="529,-78.5 529,-119.5 690,-119.5 690,-78.5 529,-78.5"/>
<text text-anchor="start" x="537" y="-107.5" font-family="Helvetica,sans-Serif" font-size="10.00">src/PolyMAC/Champs</text>
<text text-anchor="start" x="537" y="-96.5" font-family="Helvetica,sans-Serif" font-size="10.00">/Champ_Fonc_Elem_PolyMAC</text>
<text text-anchor="middle" x="609.5" y="-85.5" font-family="Helvetica,sans-Serif" font-size="10.00">_P0_rot.h</text>
</a>
</g>
</g>
<!-- Node1&#45;&gt;Node5 -->
<g id="edge4" class="edge">
<title>Node1&#45;&gt;Node5</title>
<path fill="none" stroke="midnightblue" d="M609.5,-145.98C609.5,-137.35 609.5,-127.76 609.5,-119.59"/>
<polygon fill="midnightblue" stroke="midnightblue" points="606,-146.23 609.5,-156.23 613,-146.23 606,-146.23"/>
</g>
<!-- Node7 -->
<g id="node7" class="node">
<title>Node7</title>
<g id="a_node7"><a xlink:href="Ref__Champ__Face__PolyMAC__P0_8cpp.html" target="_top" xlink:title=" ">
<polygon fill="white" stroke="black" points="708.5,-78.5 708.5,-119.5 860.5,-119.5 860.5,-78.5 708.5,-78.5"/>
<text text-anchor="start" x="716.5" y="-107.5" font-family="Helvetica,sans-Serif" font-size="10.00">src/PolyMAC/Champs</text>
<text text-anchor="start" x="716.5" y="-96.5" font-family="Helvetica,sans-Serif" font-size="10.00">/Ref_Champ_Face_PolyMAC</text>
<text text-anchor="middle" x="784.5" y="-85.5" font-family="Helvetica,sans-Serif" font-size="10.00">_P0.cpp</text>
</a>
</g>
</g>
<!-- Node1&#45;&gt;Node7 -->
<g id="edge7" class="edge">
<title>Node1&#45;&gt;Node7</title>
<path fill="none" stroke="midnightblue" d="M654.1,-152.53C679.12,-142.45 710.35,-129.87 735.98,-119.55"/>
<polygon fill="midnightblue" stroke="midnightblue" points="652.46,-149.42 644.49,-156.4 655.08,-155.91 652.46,-149.42"/>
</g>
<!-- Node8 -->
<g id="node8" class="node">
<title>Node8</title>
<g id="a_node8"><a xlink:href="grad__Champ__Face__PolyMAC__P0_8h.html" target="_top" xlink:title=" ">
<polygon fill="white" stroke="black" points="328,-84 328,-114 511,-114 511,-84 328,-84"/>
<text text-anchor="start" x="336" y="-102" font-family="Helvetica,sans-Serif" font-size="10.00">src/PolyMAC/Champs</text>
<text text-anchor="middle" x="419.5" y="-91" font-family="Helvetica,sans-Serif" font-size="10.00">/grad_Champ_Face_PolyMAC_P0.h</text>
</a>
</g>
</g>
<!-- Node1&#45;&gt;Node8 -->
<g id="edge8" class="edge">
<title>Node1&#45;&gt;Node8</title>
<path fill="none" stroke="midnightblue" d="M561.82,-152.81C529.53,-140.83 487.44,-125.21 457.43,-114.07"/>
<polygon fill="midnightblue" stroke="midnightblue" points="560.91,-156.21 571.51,-156.4 563.35,-149.64 560.91,-156.21"/>
</g>
<!-- Node10 -->
<g id="node10" class="node">
<title>Node10</title>
<g id="a_node10"><a xlink:href="Op__Grad__PolyMAC__P0__Face_8h.html" target="_top" xlink:title=" ">
<polygon fill="white" stroke="black" points="1294.5,-84 1294.5,-114 1458.5,-114 1458.5,-84 1294.5,-84"/>
<text text-anchor="start" x="1302.5" y="-102" font-family="Helvetica,sans-Serif" font-size="10.00">src/PolyMAC/Operateurs</text>
<text text-anchor="middle" x="1376.5" y="-91" font-family="Helvetica,sans-Serif" font-size="10.00">/Op_Grad_PolyMAC_P0_Face.h</text>
</a>
</g>
</g>
<!-- Node1&#45;&gt;Node10 -->
<g id="edge13" class="edge">
<title>Node1&#45;&gt;Node10</title>
<path fill="none" stroke="midnightblue" d="M708.94,-161.36C862.05,-147.29 1152.63,-120.58 1294.47,-107.54"/>
<polygon fill="midnightblue" stroke="midnightblue" points="708.25,-157.91 698.61,-162.31 708.89,-164.88 708.25,-157.91"/>
</g>
<!-- Node3 -->
<g id="node3" class="node">
<title>Node3</title>
<g id="a_node3"><a xlink:href="Champ__Fonc__Elem__PolyMAC__P0__TC_8cpp.html" target="_top" xlink:title=" ">
<polygon fill="white" stroke="black" points="0,-0.5 0,-41.5 161,-41.5 161,-0.5 0,-0.5"/>
<text text-anchor="start" x="8" y="-29.5" font-family="Helvetica,sans-Serif" font-size="10.00">src/PolyMAC/Champs</text>
<text text-anchor="start" x="8" y="-18.5" font-family="Helvetica,sans-Serif" font-size="10.00">/Champ_Fonc_Elem_PolyMAC</text>
<text text-anchor="middle" x="80.5" y="-7.5" font-family="Helvetica,sans-Serif" font-size="10.00">_P0_TC.cpp</text>
</a>
</g>
</g>
<!-- Node2&#45;&gt;Node3 -->
<g id="edge2" class="edge">
<title>Node2&#45;&gt;Node3</title>
<path fill="none" stroke="midnightblue" d="M181.99,-73.77C161.57,-63.35 138.01,-51.34 118.74,-41.51"/>
<polygon fill="midnightblue" stroke="midnightblue" points="180.63,-77 191.13,-78.43 183.81,-70.77 180.63,-77"/>
</g>
<!-- Node4 -->
<g id="node4" class="node">
<title>Node4</title>
<g id="a_node4"><a xlink:href="PolyMAC__P0__discretisation_8cpp.html" target="_top" xlink:title=" ">
<polygon fill="white" stroke="black" points="354,-6 354,-36 511,-36 511,-6 354,-6"/>
<text text-anchor="start" x="362" y="-24" font-family="Helvetica,sans-Serif" font-size="10.00">src/PolyMAC/Zones/PolyMAC</text>
<text text-anchor="middle" x="432.5" y="-13" font-family="Helvetica,sans-Serif" font-size="10.00">_P0_discretisation.cpp</text>
</a>
</g>
</g>
<!-- Node2&#45;&gt;Node4 -->
<g id="edge3" class="edge">
<title>Node2&#45;&gt;Node4</title>
<path fill="none" stroke="midnightblue" d="M291.55,-74.77C325.27,-62.15 365.87,-46.94 394.82,-36.11"/>
<polygon fill="midnightblue" stroke="midnightblue" points="289.92,-71.64 281.78,-78.43 292.37,-78.2 289.92,-71.64"/>
</g>
<!-- Node5&#45;&gt;Node4 -->
<g id="edge6" class="edge">
<title>Node5&#45;&gt;Node4</title>
<path fill="none" stroke="midnightblue" d="M554.64,-74.45C525.39,-61.89 490.38,-46.85 465.35,-36.11"/>
<polygon fill="midnightblue" stroke="midnightblue" points="553.35,-77.7 563.92,-78.43 556.11,-71.27 553.35,-77.7"/>
</g>
<!-- Node6 -->
<g id="node6" class="node">
<title>Node6</title>
<g id="a_node6"><a xlink:href="Champ__Fonc__Elem__PolyMAC__P0__rot_8cpp.html" target="_top" xlink:title=" ">
<polygon fill="white" stroke="black" points="529,-0.5 529,-41.5 690,-41.5 690,-0.5 529,-0.5"/>
<text text-anchor="start" x="537" y="-29.5" font-family="Helvetica,sans-Serif" font-size="10.00">src/PolyMAC/Champs</text>
<text text-anchor="start" x="537" y="-18.5" font-family="Helvetica,sans-Serif" font-size="10.00">/Champ_Fonc_Elem_PolyMAC</text>
<text text-anchor="middle" x="609.5" y="-7.5" font-family="Helvetica,sans-Serif" font-size="10.00">_P0_rot.cpp</text>
</a>
</g>
</g>
<!-- Node5&#45;&gt;Node6 -->
<g id="edge5" class="edge">
<title>Node5&#45;&gt;Node6</title>
<path fill="none" stroke="midnightblue" d="M609.5,-68.3C609.5,-59.3 609.5,-49.65 609.5,-41.51"/>
<polygon fill="midnightblue" stroke="midnightblue" points="606,-68.43 609.5,-78.43 613,-68.43 606,-68.43"/>
</g>
<!-- Node8&#45;&gt;Node3 -->
<g id="edge9" class="edge">
<title>Node8&#45;&gt;Node3</title>
<path fill="none" stroke="midnightblue" d="M346.78,-81.72C296.89,-70.56 229.19,-55.39 169.5,-42 166.72,-41.38 163.89,-40.74 161.03,-40.1"/>
<polygon fill="midnightblue" stroke="midnightblue" points="346.3,-85.2 356.82,-83.97 347.83,-78.37 346.3,-85.2"/>
</g>
<!-- Node8&#45;&gt;Node4 -->
<g id="edge12" class="edge">
<title>Node8&#45;&gt;Node4</title>
<path fill="none" stroke="midnightblue" d="M423.68,-73.59C425.79,-61.26 428.27,-46.72 430.07,-36.23"/>
<polygon fill="midnightblue" stroke="midnightblue" points="420.18,-73.26 421.95,-83.7 427.08,-74.44 420.18,-73.26"/>
</g>
<!-- Node8&#45;&gt;Node6 -->
<g id="edge10" class="edge">
<title>Node8&#45;&gt;Node6</title>
<path fill="none" stroke="midnightblue" d="M464.23,-80.11C493.12,-68.55 530.72,-53.51 560.43,-41.63"/>
<polygon fill="midnightblue" stroke="midnightblue" points="462.78,-76.92 454.79,-83.88 465.38,-83.42 462.78,-76.92"/>
</g>
<!-- Node9 -->
<g id="node9" class="node">
<title>Node9</title>
<g id="a_node9"><a xlink:href="grad__Champ__Face__PolyMAC__P0_8cpp.html" target="_top" xlink:title=" ">
<polygon fill="white" stroke="black" points="179,-0.5 179,-41.5 336,-41.5 336,-0.5 179,-0.5"/>
<text text-anchor="start" x="187" y="-29.5" font-family="Helvetica,sans-Serif" font-size="10.00">src/PolyMAC/Champs</text>
<text text-anchor="start" x="187" y="-18.5" font-family="Helvetica,sans-Serif" font-size="10.00">/grad_Champ_Face_PolyMAC</text>
<text text-anchor="middle" x="257.5" y="-7.5" font-family="Helvetica,sans-Serif" font-size="10.00">_P0.cpp</text>
</a>
</g>
</g>
<!-- Node8&#45;&gt;Node9 -->
<g id="edge11" class="edge">
<title>Node8&#45;&gt;Node9</title>
<path fill="none" stroke="midnightblue" d="M380.07,-79.5C355.62,-68.03 324.23,-53.3 299.34,-41.63"/>
<polygon fill="midnightblue" stroke="midnightblue" points="378.87,-82.8 389.41,-83.88 381.84,-76.47 378.87,-82.8"/>
</g>
<!-- Node11 -->
<g id="node11" class="node">
<title>Node11</title>
<g id="a_node11"><a xlink:href="Op__Conv__EF__Stab__PolyMAC__P0__Face_8cpp.html" target="_top" xlink:title=" ">
<polygon fill="white" stroke="black" points="1776.5,-0.5 1776.5,-41.5 1932.5,-41.5 1932.5,-0.5 1776.5,-0.5"/>
<text text-anchor="start" x="1784.5" y="-29.5" font-family="Helvetica,sans-Serif" font-size="10.00">src/PolyMAC/Operateurs</text>
<text text-anchor="start" x="1784.5" y="-18.5" font-family="Helvetica,sans-Serif" font-size="10.00">/Op_Conv_EF_Stab_PolyMAC</text>
<text text-anchor="middle" x="1854.5" y="-7.5" font-family="Helvetica,sans-Serif" font-size="10.00">_P0_Face.cpp</text>
</a>
</g>
</g>
<!-- Node10&#45;&gt;Node11 -->
<g id="edge14" class="edge">
<title>Node10&#45;&gt;Node11</title>
<path fill="none" stroke="midnightblue" d="M1468.81,-86.99C1548.27,-76.99 1665.84,-60.93 1767.5,-42 1770.39,-41.46 1773.34,-40.89 1776.31,-40.3"/>
<polygon fill="midnightblue" stroke="midnightblue" points="1468.32,-83.53 1458.83,-88.24 1469.19,-90.47 1468.32,-83.53"/>
</g>
<!-- Node12 -->
<g id="node12" class="node">
<title>Node12</title>
<g id="a_node12"><a xlink:href="Op__Diff__PolyMAC__P0__Face_8cpp.html" target="_top" xlink:title=" ">
<polygon fill="white" stroke="black" points="1951,-6 1951,-36 2120,-36 2120,-6 1951,-6"/>
<text text-anchor="start" x="1959" y="-24" font-family="Helvetica,sans-Serif" font-size="10.00">src/PolyMAC/Operateurs</text>
<text text-anchor="middle" x="2035.5" y="-13" font-family="Helvetica,sans-Serif" font-size="10.00">/Op_Diff_PolyMAC_P0_Face.cpp</text>
</a>
</g>
</g>
<!-- Node10&#45;&gt;Node12 -->
<g id="edge15" class="edge">
<title>Node10&#45;&gt;Node12</title>
<path fill="none" stroke="midnightblue" d="M1469,-91.99C1581.22,-83.98 1775.97,-67.73 1941.5,-42 1952.22,-40.33 1963.55,-38.22 1974.5,-36"/>
<polygon fill="midnightblue" stroke="midnightblue" points="1468.46,-88.52 1458.73,-92.72 1468.95,-95.51 1468.46,-88.52"/>
</g>
<!-- Node13 -->
<g id="node13" class="node">
<title>Node13</title>
<g id="a_node13"><a xlink:href="Op__Grad__PolyMAC__P0__Face_8cpp.html" target="_top" xlink:title=" ">
<polygon fill="white" stroke="black" points="2138,-6 2138,-36 2313,-36 2313,-6 2138,-6"/>
<text text-anchor="start" x="2146" y="-24" font-family="Helvetica,sans-Serif" font-size="10.00">src/PolyMAC/Operateurs</text>
<text text-anchor="middle" x="2225.5" y="-13" font-family="Helvetica,sans-Serif" font-size="10.00">/Op_Grad_PolyMAC_P0_Face.cpp</text>
</a>
</g>
</g>
<!-- Node10&#45;&gt;Node13 -->
<g id="edge16" class="edge">
<title>Node10&#45;&gt;Node13</title>
<path fill="none" stroke="midnightblue" d="M1468.78,-95.04C1611.17,-89.58 1892.76,-75.32 2129.5,-42 2140.8,-40.41 2152.75,-38.28 2164.25,-36.01"/>
<polygon fill="midnightblue" stroke="midnightblue" points="1468.63,-91.54 1458.77,-95.41 1468.9,-98.53 1468.63,-91.54"/>
</g>
<!-- Node14 -->
<g id="node14" class="node">
<title>Node14</title>
<g id="a_node14"><a xlink:href="Assembleur__P__PolyMAC__P0_8cpp.html" target="_top" xlink:title=" ">
<polygon fill="white" stroke="black" points="708,-0.5 708,-41.5 845,-41.5 845,-0.5 708,-0.5"/>
<text text-anchor="start" x="716" y="-29.5" font-family="Helvetica,sans-Serif" font-size="10.00">src/PolyMAC/Solveurs</text>
<text text-anchor="start" x="716" y="-18.5" font-family="Helvetica,sans-Serif" font-size="10.00">/Assembleur_P_PolyMAC</text>
<text text-anchor="middle" x="776.5" y="-7.5" font-family="Helvetica,sans-Serif" font-size="10.00">_P0.cpp</text>
</a>
</g>
</g>
<!-- Node10&#45;&gt;Node14 -->
<g id="edge17" class="edge">
<title>Node10&#45;&gt;Node14</title>
<path fill="none" stroke="midnightblue" d="M1283.92,-92.12C1179.12,-84.52 1003.58,-68.96 854.5,-42 851.47,-41.45 848.39,-40.85 845.29,-40.21"/>
<polygon fill="midnightblue" stroke="midnightblue" points="1283.93,-95.63 1294.15,-92.85 1284.43,-88.64 1283.93,-95.63"/>
</g>
<!-- Node15 -->
<g id="node15" class="node">
<title>Node15</title>
<g id="a_node15"><a xlink:href="Masse__PolyMAC__P0__Face_8cpp.html" target="_top" xlink:title=" ">
<polygon fill="white" stroke="black" points="863.5,-6 863.5,-36 1027.5,-36 1027.5,-6 863.5,-6"/>
<text text-anchor="start" x="871.5" y="-24" font-family="Helvetica,sans-Serif" font-size="10.00">src/PolyMAC/Solveurs</text>
<text text-anchor="middle" x="945.5" y="-13" font-family="Helvetica,sans-Serif" font-size="10.00">/Masse_PolyMAC_P0_Face.cpp</text>
</a>
</g>
</g>
<!-- Node10&#45;&gt;Node15 -->
<g id="edge18" class="edge">
<title>Node10&#45;&gt;Node15</title>
<path fill="none" stroke="midnightblue" d="M1284.28,-84.17C1215.75,-73.56 1120.07,-58.05 1036.5,-42 1027.13,-40.2 1017.24,-38.17 1007.58,-36.1"/>
<polygon fill="midnightblue" stroke="midnightblue" points="1283.77,-87.63 1294.18,-85.7 1284.84,-80.71 1283.77,-87.63"/>
</g>
<!-- Node16 -->
<g id="node16" class="node">
<title>Node16</title>
<g id="a_node16"><a xlink:href="Force__Tchen__PolyMAC__P0_8cpp.html" target="_top" xlink:title=" ">
<polygon fill="white" stroke="black" points="1046,-0.5 1046,-41.5 1171,-41.5 1171,-0.5 1046,-0.5"/>
<text text-anchor="start" x="1054" y="-29.5" font-family="Helvetica,sans-Serif" font-size="10.00">src/ThHyd/Multiphase</text>
<text text-anchor="start" x="1054" y="-18.5" font-family="Helvetica,sans-Serif" font-size="10.00">/PolyMAC/Force_Tchen</text>
<text text-anchor="middle" x="1108.5" y="-7.5" font-family="Helvetica,sans-Serif" font-size="10.00">_PolyMAC_P0.cpp</text>
</a>
</g>
</g>
<!-- Node10&#45;&gt;Node16 -->
<g id="edge19" class="edge">
<title>Node10&#45;&gt;Node16</title>
<path fill="none" stroke="midnightblue" d="M1317.22,-81.19C1273.97,-68.92 1215.46,-52.33 1171.39,-39.83"/>
<polygon fill="midnightblue" stroke="midnightblue" points="1316.46,-84.61 1327.03,-83.97 1318.37,-77.88 1316.46,-84.61"/>
</g>
<!-- Node17 -->
<g id="node17" class="node">
<title>Node17</title>
<g id="a_node17"><a xlink:href="Frottement__interfacial__PolyMAC__P0_8cpp.html" target="_top" xlink:title=" ">
<polygon fill="white" stroke="black" points="1189,-0.5 1189,-41.5 1364,-41.5 1364,-0.5 1189,-0.5"/>
<text text-anchor="start" x="1197" y="-29.5" font-family="Helvetica,sans-Serif" font-size="10.00">src/ThHyd/Multiphase</text>
<text text-anchor="start" x="1197" y="-18.5" font-family="Helvetica,sans-Serif" font-size="10.00">/PolyMAC/Frottement_interfacial</text>
<text text-anchor="middle" x="1276.5" y="-7.5" font-family="Helvetica,sans-Serif" font-size="10.00">_PolyMAC_P0.cpp</text>
</a>
</g>
</g>
<!-- Node10&#45;&gt;Node17 -->
<g id="edge20" class="edge">
<title>Node10&#45;&gt;Node17</title>
<path fill="none" stroke="midnightblue" d="M1349.51,-77.49C1334.87,-66.36 1316.86,-52.68 1302.39,-41.68"/>
<polygon fill="midnightblue" stroke="midnightblue" points="1347.61,-80.44 1357.69,-83.7 1351.85,-74.87 1347.61,-80.44"/>
</g>
<!-- Node18 -->
<g id="node18" class="node">
<title>Node18</title>
<g id="a_node18"><a xlink:href="Op__Evanescence__Homogene__PolyMAC__P0__Face_8cpp.html" target="_top" xlink:title=" ">
<polygon fill="white" stroke="black" points="1382.5,-0.5 1382.5,-41.5 1570.5,-41.5 1570.5,-0.5 1382.5,-0.5"/>
<text text-anchor="start" x="1390.5" y="-29.5" font-family="Helvetica,sans-Serif" font-size="10.00">src/ThHyd/Multiphase</text>
<text text-anchor="start" x="1390.5" y="-18.5" font-family="Helvetica,sans-Serif" font-size="10.00">/PolyMAC/Op_Evanescence</text>
<text text-anchor="middle" x="1476.5" y="-7.5" font-family="Helvetica,sans-Serif" font-size="10.00">_Homogene_PolyMAC_P0_Face.cpp</text>
</a>
</g>
</g>
<!-- Node10&#45;&gt;Node18 -->
<g id="edge21" class="edge">
<title>Node10&#45;&gt;Node18</title>
<path fill="none" stroke="midnightblue" d="M1403.49,-77.49C1418.13,-66.36 1436.14,-52.68 1450.61,-41.68"/>
<polygon fill="midnightblue" stroke="midnightblue" points="1401.15,-74.87 1395.31,-83.7 1405.39,-80.44 1401.15,-74.87"/>
</g>
<!-- Node19 -->
<g id="node19" class="node">
<title>Node19</title>
<g id="a_node19"><a xlink:href="Portance__interfaciale__PolyMAC__P0_8cpp.html" target="_top" xlink:title=" ">
<polygon fill="white" stroke="black" points="1588.5,-0.5 1588.5,-41.5 1758.5,-41.5 1758.5,-0.5 1588.5,-0.5"/>
<text text-anchor="start" x="1596.5" y="-29.5" font-family="Helvetica,sans-Serif" font-size="10.00">src/ThHyd/Multiphase</text>
<text text-anchor="start" x="1596.5" y="-18.5" font-family="Helvetica,sans-Serif" font-size="10.00">/PolyMAC/Portance_interfaciale</text>
<text text-anchor="middle" x="1673.5" y="-7.5" font-family="Helvetica,sans-Serif" font-size="10.00">_PolyMAC_P0.cpp</text>
</a>
</g>
</g>
<!-- Node10&#45;&gt;Node19 -->
<g id="edge22" class="edge">
<title>Node10&#45;&gt;Node19</title>
<path fill="none" stroke="midnightblue" d="M1441.16,-81.45C1487.06,-69.71 1548.86,-53.9 1597.18,-41.53"/>
<polygon fill="midnightblue" stroke="midnightblue" points="1440.14,-78.1 1431.32,-83.97 1441.88,-84.88 1440.14,-78.1"/>
</g>
</g>
</svg>
