<?xml version="1.0" encoding="UTF-8" standalone="no"?>
<!DOCTYPE svg PUBLIC "-//W3C//DTD SVG 1.1//EN"
 "http://www.w3.org/Graphics/SVG/1.1/DTD/svg11.dtd">
<!-- Generated by graphviz version 2.43.0 (0)
 -->
<!-- Title: src/ThHyd/Dilatable/Weakly_Compressible/Milieu/Ref_Fluide_Weakly_Compressible.h Pages: 1 -->
<svg width="566pt" height="317pt"
 viewBox="0.00 0.00 566.00 317.00" xmlns="http://www.w3.org/2000/svg" xmlns:xlink="http://www.w3.org/1999/xlink">
<g id="graph0" class="graph" transform="scale(1 1) rotate(0) translate(4 313)">
<title>src/ThHyd/Dilatable/Weakly_Compressible/Milieu/Ref_Fluide_Weakly_Compressible.h</title>
<polygon fill="white" stroke="transparent" points="-4,4 -4,-313 562,-313 562,4 -4,4"/>
<!-- Node1 -->
<g id="node1" class="node">
<title>Node1</title>
<g id="a_node1"><a xlink:title=" ">
<polygon fill="#bfbfbf" stroke="black" points="122,-256.5 122,-308.5 268,-308.5 268,-256.5 122,-256.5"/>
<text text-anchor="start" x="130" y="-296.5" font-family="Helvetica,sans-Serif" font-size="10.00">src/ThHyd/Dilatable</text>
<text text-anchor="start" x="130" y="-285.5" font-family="Helvetica,sans-Serif" font-size="10.00">/Weakly_Compressible</text>
<text text-anchor="start" x="130" y="-274.5" font-family="Helvetica,sans-Serif" font-size="10.00">/Milieu/Ref_Fluide_Weakly</text>
<text text-anchor="middle" x="195" y="-263.5" font-family="Helvetica,sans-Serif" font-size="10.00">_Compressible.h</text>
</a>
</g>
</g>
<!-- Node2 -->
<g id="node2" class="node">
<title>Node2</title>
<g id="a_node2"><a xlink:href="Ref__Fluide__Weakly__Compressible_8cpp.html" target="_top" xlink:title=" ">
<polygon fill="white" stroke="black" points="35,-167.5 35,-219.5 181,-219.5 181,-167.5 35,-167.5"/>
<text text-anchor="start" x="43" y="-207.5" font-family="Helvetica,sans-Serif" font-size="10.00">src/ThHyd/Dilatable</text>
<text text-anchor="start" x="43" y="-196.5" font-family="Helvetica,sans-Serif" font-size="10.00">/Weakly_Compressible</text>
<text text-anchor="start" x="43" y="-185.5" font-family="Helvetica,sans-Serif" font-size="10.00">/Milieu/Ref_Fluide_Weakly</text>
<text text-anchor="middle" x="108" y="-174.5" font-family="Helvetica,sans-Serif" font-size="10.00">_Compressible.cpp</text>
</a>
</g>
</g>
<!-- Node1&#45;&gt;Node2 -->
<g id="edge1" class="edge">
<title>Node1&#45;&gt;Node2</title>
<path fill="none" stroke="midnightblue" d="M162.58,-249.08C152.84,-239.34 142.3,-228.8 133.11,-219.61"/>
<polygon fill="midnightblue" stroke="midnightblue" points="160.29,-251.74 169.84,-256.34 165.24,-246.79 160.29,-251.74"/>
</g>
<!-- Node3 -->
<g id="node3" class="node">
<title>Node3</title>
<g id="a_node3"><a xlink:href="Source__WC__Chaleur_8h.html" target="_top" xlink:title=" ">
<polygon fill="white" stroke="black" points="199.5,-173 199.5,-214 366.5,-214 366.5,-173 199.5,-173"/>
<text text-anchor="start" x="207.5" y="-202" font-family="Helvetica,sans-Serif" font-size="10.00">src/ThHyd/Dilatable</text>
<text text-anchor="start" x="207.5" y="-191" font-family="Helvetica,sans-Serif" font-size="10.00">/Weakly_Compressible</text>
<text text-anchor="middle" x="283" y="-180" font-family="Helvetica,sans-Serif" font-size="10.00">/Sources/Source_WC_Chaleur.h</text>
</a>
</g>
</g>
<!-- Node1&#45;&gt;Node3 -->
<g id="edge2" class="edge">
<title>Node1&#45;&gt;Node3</title>
<path fill="none" stroke="midnightblue" d="M227.69,-249.18C239.61,-237.39 252.73,-224.43 263.19,-214.08"/>
<polygon fill="midnightblue" stroke="midnightblue" points="225.1,-246.82 220.45,-256.34 230.03,-251.79 225.1,-246.82"/>
</g>
<!-- Node4 -->
<g id="node4" class="node">
<title>Node4</title>
<g id="a_node4"><a xlink:href="Source__WC__Chaleur_8cpp.html" target="_top" xlink:title=" ">
<polygon fill="white" stroke="black" points="0,-89.5 0,-130.5 178,-130.5 178,-89.5 0,-89.5"/>
<text text-anchor="start" x="8" y="-118.5" font-family="Helvetica,sans-Serif" font-size="10.00">src/ThHyd/Dilatable</text>
<text text-anchor="start" x="8" y="-107.5" font-family="Helvetica,sans-Serif" font-size="10.00">/Weakly_Compressible</text>
<text text-anchor="middle" x="89" y="-96.5" font-family="Helvetica,sans-Serif" font-size="10.00">/Sources/Source_WC_Chaleur.cpp</text>
</a>
</g>
</g>
<!-- Node3&#45;&gt;Node4 -->
<g id="edge3" class="edge">
<title>Node3&#45;&gt;Node4</title>
<path fill="none" stroke="midnightblue" d="M226.94,-168.95C197.92,-156.76 162.91,-142.05 135.42,-130.5"/>
<polygon fill="midnightblue" stroke="midnightblue" points="225.96,-172.33 236.53,-172.98 228.67,-165.88 225.96,-172.33"/>
</g>
<!-- Node5 -->
<g id="node5" class="node">
<title>Node5</title>
<g id="a_node5"><a xlink:href="Source__WC__Chaleur__VDF_8h.html" target="_top" xlink:title=" ">
<polygon fill="white" stroke="black" points="196.5,-89.5 196.5,-130.5 369.5,-130.5 369.5,-89.5 196.5,-89.5"/>
<text text-anchor="start" x="204.5" y="-118.5" font-family="Helvetica,sans-Serif" font-size="10.00">src/ThHyd/Dilatable</text>
<text text-anchor="start" x="204.5" y="-107.5" font-family="Helvetica,sans-Serif" font-size="10.00">/Weakly_Compressible</text>
<text text-anchor="middle" x="283" y="-96.5" font-family="Helvetica,sans-Serif" font-size="10.00">/VDF/Source_WC_Chaleur_VDF.h</text>
</a>
</g>
</g>
<!-- Node3&#45;&gt;Node5 -->
<g id="edge4" class="edge">
<title>Node3&#45;&gt;Node5</title>
<path fill="none" stroke="midnightblue" d="M283,-162.56C283,-151.88 283,-140.13 283,-130.55"/>
<polygon fill="midnightblue" stroke="midnightblue" points="279.5,-162.77 283,-172.77 286.5,-162.77 279.5,-162.77"/>
</g>
<!-- Node7 -->
<g id="node7" class="node">
<title>Node7</title>
<g id="a_node7"><a xlink:href="Source__WC__Chaleur__VEF_8h.html" target="_top" xlink:title=" ">
<polygon fill="white" stroke="black" points="388,-89.5 388,-130.5 558,-130.5 558,-89.5 388,-89.5"/>
<text text-anchor="start" x="396" y="-118.5" font-family="Helvetica,sans-Serif" font-size="10.00">src/ThHyd/Dilatable</text>
<text text-anchor="start" x="396" y="-107.5" font-family="Helvetica,sans-Serif" font-size="10.00">/Weakly_Compressible</text>
<text text-anchor="middle" x="473" y="-96.5" font-family="Helvetica,sans-Serif" font-size="10.00">/VEF/Source_WC_Chaleur_VEF.h</text>
</a>
</g>
</g>
<!-- Node3&#45;&gt;Node7 -->
<g id="edge6" class="edge">
<title>Node3&#45;&gt;Node7</title>
<path fill="none" stroke="midnightblue" d="M337.9,-168.95C366.33,-156.76 400.61,-142.05 427.53,-130.5"/>
<polygon fill="midnightblue" stroke="midnightblue" points="336.32,-165.82 328.51,-172.98 339.08,-172.25 336.32,-165.82"/>
</g>
<!-- Node6 -->
<g id="node6" class="node">
<title>Node6</title>
<g id="a_node6"><a xlink:href="Source__WC__Chaleur__VDF_8cpp.html" target="_top" xlink:title=" ">
<polygon fill="white" stroke="black" points="213,-0.5 213,-52.5 353,-52.5 353,-0.5 213,-0.5"/>
<text text-anchor="start" x="221" y="-40.5" font-family="Helvetica,sans-Serif" font-size="10.00">src/ThHyd/Dilatable</text>
<text text-anchor="start" x="221" y="-29.5" font-family="Helvetica,sans-Serif" font-size="10.00">/Weakly_Compressible</text>
<text text-anchor="start" x="221" y="-18.5" font-family="Helvetica,sans-Serif" font-size="10.00">/VDF/Source_WC_Chaleur</text>
<text text-anchor="middle" x="283" y="-7.5" font-family="Helvetica,sans-Serif" font-size="10.00">_VDF.cpp</text>
</a>
</g>
</g>
<!-- Node5&#45;&gt;Node6 -->
<g id="edge5" class="edge">
<title>Node5&#45;&gt;Node6</title>
<path fill="none" stroke="midnightblue" d="M283,-79.12C283,-70.41 283,-60.99 283,-52.61"/>
<polygon fill="midnightblue" stroke="midnightblue" points="279.5,-79.27 283,-89.27 286.5,-79.27 279.5,-79.27"/>
</g>
<!-- Node8 -->
<g id="node8" class="node">
<title>Node8</title>
<g id="a_node8"><a xlink:href="Source__WC__Chaleur__VEF_8cpp.html" target="_top" xlink:title=" ">
<polygon fill="white" stroke="black" points="403.5,-0.5 403.5,-52.5 542.5,-52.5 542.5,-0.5 403.5,-0.5"/>
<text text-anchor="start" x="411.5" y="-40.5" font-family="Helvetica,sans-Serif" font-size="10.00">src/ThHyd/Dilatable</text>
<text text-anchor="start" x="411.5" y="-29.5" font-family="Helvetica,sans-Serif" font-size="10.00">/Weakly_Compressible</text>
<text text-anchor="start" x="411.5" y="-18.5" font-family="Helvetica,sans-Serif" font-size="10.00">/VEF/Source_WC_Chaleur</text>
<text text-anchor="middle" x="473" y="-7.5" font-family="Helvetica,sans-Serif" font-size="10.00">_VEF.cpp</text>
</a>
</g>
</g>
<!-- Node7&#45;&gt;Node8 -->
<g id="edge7" class="edge">
<title>Node7&#45;&gt;Node8</title>
<path fill="none" stroke="midnightblue" d="M473,-79.12C473,-70.41 473,-60.99 473,-52.61"/>
<polygon fill="midnightblue" stroke="midnightblue" points="469.5,-79.27 473,-89.27 476.5,-79.27 469.5,-79.27"/>
</g>
</g>
</svg>
