<?xml version="1.0" encoding="UTF-8" standalone="no"?>
<!DOCTYPE svg PUBLIC "-//W3C//DTD SVG 1.1//EN"
 "http://www.w3.org/Graphics/SVG/1.1/DTD/svg11.dtd">
<!-- Generated by graphviz version 2.43.0 (0)
 -->
<!-- Title: src/VEF/Champs/Ref_Champ_P0_VEF.h Pages: 1 -->
<svg width="1019pt" height="340pt"
 viewBox="0.00 0.00 1018.50 340.00" xmlns="http://www.w3.org/2000/svg" xmlns:xlink="http://www.w3.org/1999/xlink">
<g id="graph0" class="graph" transform="scale(1 1) rotate(0) translate(4 336)">
<title>src/VEF/Champs/Ref_Champ_P0_VEF.h</title>
<polygon fill="white" stroke="transparent" points="-4,4 -4,-336 1014.5,-336 1014.5,4 -4,4"/>
<!-- Node1 -->
<g id="node1" class="node">
<title>Node1</title>
<g id="a_node1"><a xlink:title=" ">
<polygon fill="#bfbfbf" stroke="black" points="313,-301.5 313,-331.5 428,-331.5 428,-301.5 313,-301.5"/>
<text text-anchor="start" x="321" y="-319.5" font-family="Helvetica,sans-Serif" font-size="10.00">src/VEF/Champs/Ref</text>
<text text-anchor="middle" x="370.5" y="-308.5" font-family="Helvetica,sans-Serif" font-size="10.00">_Champ_P0_VEF.h</text>
</a>
</g>
</g>
<!-- Node2 -->
<g id="node2" class="node">
<title>Node2</title>
<g id="a_node2"><a xlink:href="Ref__Champ__P0__VEF_8cpp.html" target="_top" xlink:title=" ">
<polygon fill="white" stroke="black" points="90.5,-229 90.5,-259 206.5,-259 206.5,-229 90.5,-229"/>
<text text-anchor="start" x="98.5" y="-247" font-family="Helvetica,sans-Serif" font-size="10.00">src/VEF/Champs/Ref</text>
<text text-anchor="middle" x="148.5" y="-236" font-family="Helvetica,sans-Serif" font-size="10.00">_Champ_P0_VEF.cpp</text>
</a>
</g>
</g>
<!-- Node1&#45;&gt;Node2 -->
<g id="edge1" class="edge">
<title>Node1&#45;&gt;Node2</title>
<path fill="none" stroke="midnightblue" d="M316.52,-298.36C278.61,-286.32 228.52,-270.41 192.92,-259.11"/>
<polygon fill="midnightblue" stroke="midnightblue" points="315.78,-301.8 326.37,-301.49 317.9,-295.12 315.78,-301.8"/>
</g>
<!-- Node3 -->
<g id="node3" class="node">
<title>Node3</title>
<g id="a_node3"><a xlink:href="Sortie__libre__Gradient__Pression__impose__VEF_8h.html" target="_top" xlink:title=" ">
<polygon fill="white" stroke="black" points="225,-223.5 225,-264.5 362,-264.5 362,-223.5 225,-223.5"/>
<text text-anchor="start" x="233" y="-252.5" font-family="Helvetica,sans-Serif" font-size="10.00">src/VEF/Cond_Lim/Sortie</text>
<text text-anchor="start" x="233" y="-241.5" font-family="Helvetica,sans-Serif" font-size="10.00">_libre_Gradient_Pression</text>
<text text-anchor="middle" x="293.5" y="-230.5" font-family="Helvetica,sans-Serif" font-size="10.00">_impose_VEF.h</text>
</a>
</g>
</g>
<!-- Node1&#45;&gt;Node3 -->
<g id="edge2" class="edge">
<title>Node1&#45;&gt;Node3</title>
<path fill="none" stroke="midnightblue" d="M347.43,-294.38C337.11,-284.93 325.01,-273.85 314.89,-264.59"/>
<polygon fill="midnightblue" stroke="midnightblue" points="345.18,-297.06 354.92,-301.23 349.91,-291.9 345.18,-297.06"/>
</g>
<!-- Node7 -->
<g id="node7" class="node">
<title>Node7</title>
<g id="a_node7"><a xlink:href="Sortie__libre__Gradient__Pression__libre__VEF_8h.html" target="_top" xlink:title=" ">
<polygon fill="white" stroke="black" points="380,-223.5 380,-264.5 517,-264.5 517,-223.5 380,-223.5"/>
<text text-anchor="start" x="388" y="-252.5" font-family="Helvetica,sans-Serif" font-size="10.00">src/VEF/Cond_Lim/Sortie</text>
<text text-anchor="start" x="388" y="-241.5" font-family="Helvetica,sans-Serif" font-size="10.00">_libre_Gradient_Pression</text>
<text text-anchor="middle" x="448.5" y="-230.5" font-family="Helvetica,sans-Serif" font-size="10.00">_libre_VEF.h</text>
</a>
</g>
</g>
<!-- Node1&#45;&gt;Node7 -->
<g id="edge6" class="edge">
<title>Node1&#45;&gt;Node7</title>
<path fill="none" stroke="midnightblue" d="M393.87,-294.38C404.32,-284.93 416.58,-273.85 426.83,-264.59"/>
<polygon fill="midnightblue" stroke="midnightblue" points="391.36,-291.93 386.28,-301.23 396.05,-297.12 391.36,-291.93"/>
</g>
<!-- Node9 -->
<g id="node9" class="node">
<title>Node9</title>
<g id="a_node9"><a xlink:href="Op__Grad__VEF__Face_8h.html" target="_top" xlink:title=" ">
<polygon fill="white" stroke="black" points="635.5,-229 635.5,-259 757.5,-259 757.5,-229 635.5,-229"/>
<text text-anchor="start" x="643.5" y="-247" font-family="Helvetica,sans-Serif" font-size="10.00">src/VEF/Operateurs</text>
<text text-anchor="middle" x="696.5" y="-236" font-family="Helvetica,sans-Serif" font-size="10.00">/Op_Grad_VEF_Face.h</text>
</a>
</g>
</g>
<!-- Node1&#45;&gt;Node9 -->
<g id="edge8" class="edge">
<title>Node1&#45;&gt;Node9</title>
<path fill="none" stroke="midnightblue" d="M437.86,-300.93C495.97,-288.37 579.18,-270.37 635.39,-258.21"/>
<polygon fill="midnightblue" stroke="midnightblue" points="437.07,-297.52 428.03,-303.06 438.55,-304.37 437.07,-297.52"/>
</g>
<!-- Node4 -->
<g id="node4" class="node">
<title>Node4</title>
<g id="a_node4"><a xlink:href="Sortie__libre__Gradient__Pression__impose__VEFPreP1B_8h.html" target="_top" xlink:title=" ">
<polygon fill="white" stroke="black" points="24.5,-145.5 24.5,-186.5 196.5,-186.5 196.5,-145.5 24.5,-145.5"/>
<text text-anchor="start" x="32.5" y="-174.5" font-family="Helvetica,sans-Serif" font-size="10.00">src/P1NCP1B/Cond_Lim</text>
<text text-anchor="start" x="32.5" y="-163.5" font-family="Helvetica,sans-Serif" font-size="10.00">/Sortie_libre_Gradient</text>
<text text-anchor="middle" x="110.5" y="-152.5" font-family="Helvetica,sans-Serif" font-size="10.00">_Pression_impose_VEFPreP1B.h</text>
</a>
</g>
</g>
<!-- Node3&#45;&gt;Node4 -->
<g id="edge3" class="edge">
<title>Node3&#45;&gt;Node4</title>
<path fill="none" stroke="midnightblue" d="M236.84,-219.47C211.37,-208.89 181.67,-196.56 157.47,-186.51"/>
<polygon fill="midnightblue" stroke="midnightblue" points="235.8,-222.82 246.37,-223.43 238.48,-216.36 235.8,-222.82"/>
</g>
<!-- Node6 -->
<g id="node6" class="node">
<title>Node6</title>
<g id="a_node6"><a xlink:href="Sortie__libre__Gradient__Pression__impose__VEF_8cpp.html" target="_top" xlink:title=" ">
<polygon fill="white" stroke="black" points="225,-145.5 225,-186.5 362,-186.5 362,-145.5 225,-145.5"/>
<text text-anchor="start" x="233" y="-174.5" font-family="Helvetica,sans-Serif" font-size="10.00">src/VEF/Cond_Lim/Sortie</text>
<text text-anchor="start" x="233" y="-163.5" font-family="Helvetica,sans-Serif" font-size="10.00">_libre_Gradient_Pression</text>
<text text-anchor="middle" x="293.5" y="-152.5" font-family="Helvetica,sans-Serif" font-size="10.00">_impose_VEF.cpp</text>
</a>
</g>
</g>
<!-- Node3&#45;&gt;Node6 -->
<g id="edge5" class="edge">
<title>Node3&#45;&gt;Node6</title>
<path fill="none" stroke="midnightblue" d="M293.5,-213.3C293.5,-204.3 293.5,-194.65 293.5,-186.51"/>
<polygon fill="midnightblue" stroke="midnightblue" points="290,-213.43 293.5,-223.43 297,-213.43 290,-213.43"/>
</g>
<!-- Node5 -->
<g id="node5" class="node">
<title>Node5</title>
<g id="a_node5"><a xlink:href="Sortie__libre__Gradient__Pression__impose__VEFPreP1B_8cpp.html" target="_top" xlink:title=" ">
<polygon fill="white" stroke="black" points="0,-67.5 0,-108.5 183,-108.5 183,-67.5 0,-67.5"/>
<text text-anchor="start" x="8" y="-96.5" font-family="Helvetica,sans-Serif" font-size="10.00">src/P1NCP1B/Cond_Lim</text>
<text text-anchor="start" x="8" y="-85.5" font-family="Helvetica,sans-Serif" font-size="10.00">/Sortie_libre_Gradient</text>
<text text-anchor="middle" x="91.5" y="-74.5" font-family="Helvetica,sans-Serif" font-size="10.00">_Pression_impose_VEFPreP1B.cpp</text>
</a>
</g>
</g>
<!-- Node4&#45;&gt;Node5 -->
<g id="edge4" class="edge">
<title>Node4&#45;&gt;Node5</title>
<path fill="none" stroke="midnightblue" d="M103.15,-135.59C100.88,-126.51 98.44,-116.74 96.38,-108.51"/>
<polygon fill="midnightblue" stroke="midnightblue" points="99.79,-136.58 105.61,-145.43 106.58,-134.88 99.79,-136.58"/>
</g>
<!-- Node8 -->
<g id="node8" class="node">
<title>Node8</title>
<g id="a_node8"><a xlink:href="Sortie__libre__Gradient__Pression__libre__VEF_8cpp.html" target="_top" xlink:title=" ">
<polygon fill="white" stroke="black" points="380,-145.5 380,-186.5 517,-186.5 517,-145.5 380,-145.5"/>
<text text-anchor="start" x="388" y="-174.5" font-family="Helvetica,sans-Serif" font-size="10.00">src/VEF/Cond_Lim/Sortie</text>
<text text-anchor="start" x="388" y="-163.5" font-family="Helvetica,sans-Serif" font-size="10.00">_libre_Gradient_Pression</text>
<text text-anchor="middle" x="448.5" y="-152.5" font-family="Helvetica,sans-Serif" font-size="10.00">_libre_VEF.cpp</text>
</a>
</g>
</g>
<!-- Node7&#45;&gt;Node8 -->
<g id="edge7" class="edge">
<title>Node7&#45;&gt;Node8</title>
<path fill="none" stroke="midnightblue" d="M448.5,-213.3C448.5,-204.3 448.5,-194.65 448.5,-186.51"/>
<polygon fill="midnightblue" stroke="midnightblue" points="445,-213.43 448.5,-223.43 452,-213.43 445,-213.43"/>
</g>
<!-- Node10 -->
<g id="node10" class="node">
<title>Node10</title>
<g id="a_node10"><a xlink:href="Op__Grad__VEF__P1B__Face_8h.html" target="_top" xlink:title=" ">
<polygon fill="white" stroke="black" points="540.5,-151 540.5,-181 686.5,-181 686.5,-151 540.5,-151"/>
<text text-anchor="start" x="548.5" y="-169" font-family="Helvetica,sans-Serif" font-size="10.00">src/P1NCP1B/Operateurs</text>
<text text-anchor="middle" x="613.5" y="-158" font-family="Helvetica,sans-Serif" font-size="10.00">/Op_Grad_VEF_P1B_Face.h</text>
</a>
</g>
</g>
<!-- Node9&#45;&gt;Node10 -->
<g id="edge9" class="edge">
<title>Node9&#45;&gt;Node10</title>
<path fill="none" stroke="midnightblue" d="M673.45,-221.89C659.29,-208.93 641.54,-192.68 629.04,-181.23"/>
<polygon fill="midnightblue" stroke="midnightblue" points="671.15,-224.53 680.89,-228.7 675.88,-219.37 671.15,-224.53"/>
</g>
<!-- Node14 -->
<g id="node14" class="node">
<title>Node14</title>
<g id="a_node14"><a xlink:href="Op__Rot__VEFP1B_8h.html" target="_top" xlink:title=" ">
<polygon fill="white" stroke="black" points="712.5,-151 712.5,-181 848.5,-181 848.5,-151 712.5,-151"/>
<text text-anchor="start" x="720.5" y="-169" font-family="Helvetica,sans-Serif" font-size="10.00">src/P1NCP1B/Operateurs</text>
<text text-anchor="middle" x="780.5" y="-158" font-family="Helvetica,sans-Serif" font-size="10.00">/Op_Rot_VEFP1B.h</text>
</a>
</g>
</g>
<!-- Node9&#45;&gt;Node14 -->
<g id="edge13" class="edge">
<title>Node9&#45;&gt;Node14</title>
<path fill="none" stroke="midnightblue" d="M719.83,-221.89C734.15,-208.93 752.12,-192.68 764.77,-181.23"/>
<polygon fill="midnightblue" stroke="midnightblue" points="717.37,-219.4 712.3,-228.7 722.06,-224.59 717.37,-219.4"/>
</g>
<!-- Node18 -->
<g id="node18" class="node">
<title>Node18</title>
<g id="a_node18"><a xlink:href="Op__Grad__VEF__Face_8cpp.html" target="_top" xlink:title=" ">
<polygon fill="white" stroke="black" points="867,-151 867,-181 1000,-181 1000,-151 867,-151"/>
<text text-anchor="start" x="875" y="-169" font-family="Helvetica,sans-Serif" font-size="10.00">src/VEF/Operateurs</text>
<text text-anchor="middle" x="933.5" y="-158" font-family="Helvetica,sans-Serif" font-size="10.00">/Op_Grad_VEF_Face.cpp</text>
</a>
</g>
</g>
<!-- Node9&#45;&gt;Node18 -->
<g id="edge17" class="edge">
<title>Node9&#45;&gt;Node18</title>
<path fill="none" stroke="midnightblue" d="M749.79,-225.91C791.95,-212.39 850.1,-193.74 889.61,-181.07"/>
<polygon fill="midnightblue" stroke="midnightblue" points="748.7,-222.59 740.25,-228.97 750.84,-229.25 748.7,-222.59"/>
</g>
<!-- Node11 -->
<g id="node11" class="node">
<title>Node11</title>
<g id="a_node11"><a xlink:href="Op__Grad__VEF__P1B__Face_8cpp.html" target="_top" xlink:title=" ">
<polygon fill="white" stroke="black" points="201,-73 201,-103 358,-103 358,-73 201,-73"/>
<text text-anchor="start" x="209" y="-91" font-family="Helvetica,sans-Serif" font-size="10.00">src/P1NCP1B/Operateurs</text>
<text text-anchor="middle" x="279.5" y="-80" font-family="Helvetica,sans-Serif" font-size="10.00">/Op_Grad_VEF_P1B_Face.cpp</text>
</a>
</g>
</g>
<!-- Node10&#45;&gt;Node11 -->
<g id="edge10" class="edge">
<title>Node10&#45;&gt;Node11</title>
<path fill="none" stroke="midnightblue" d="M541.74,-148.67C481.98,-135.07 397.8,-115.92 341.07,-103.01"/>
<polygon fill="midnightblue" stroke="midnightblue" points="541.32,-152.17 551.85,-150.97 542.88,-145.34 541.32,-152.17"/>
</g>
<!-- Node12 -->
<g id="node12" class="node">
<title>Node12</title>
<g id="a_node12"><a xlink:href="AssembleurPP1BUtil_8cpp.html" target="_top" xlink:title=" ">
<polygon fill="white" stroke="black" points="376.5,-73 376.5,-103 516.5,-103 516.5,-73 376.5,-73"/>
<text text-anchor="start" x="384.5" y="-91" font-family="Helvetica,sans-Serif" font-size="10.00">src/P1NCP1B/Solveurs</text>
<text text-anchor="middle" x="446.5" y="-80" font-family="Helvetica,sans-Serif" font-size="10.00">/AssembleurPP1BUtil.cpp</text>
</a>
</g>
</g>
<!-- Node10&#45;&gt;Node12 -->
<g id="edge11" class="edge">
<title>Node10&#45;&gt;Node12</title>
<path fill="none" stroke="midnightblue" d="M573.29,-146.7C543.8,-133.28 504.37,-115.34 477.35,-103.04"/>
<polygon fill="midnightblue" stroke="midnightblue" points="571.93,-149.93 582.48,-150.88 574.83,-143.56 571.93,-149.93"/>
</g>
<!-- Node13 -->
<g id="node13" class="node">
<title>Node13</title>
<g id="a_node13"><a xlink:href="Assembleur__P__VEFPreP1B_8cpp.html" target="_top" xlink:title=" ">
<polygon fill="white" stroke="black" points="535,-73 535,-103 702,-103 702,-73 535,-73"/>
<text text-anchor="start" x="543" y="-91" font-family="Helvetica,sans-Serif" font-size="10.00">src/P1NCP1B/Solveurs</text>
<text text-anchor="middle" x="618.5" y="-80" font-family="Helvetica,sans-Serif" font-size="10.00">/Assembleur_P_VEFPreP1B.cpp</text>
</a>
</g>
</g>
<!-- Node10&#45;&gt;Node13 -->
<g id="edge12" class="edge">
<title>Node10&#45;&gt;Node13</title>
<path fill="none" stroke="midnightblue" d="M615.11,-140.59C615.92,-128.26 616.87,-113.72 617.56,-103.23"/>
<polygon fill="midnightblue" stroke="midnightblue" points="611.6,-140.5 614.44,-150.7 618.59,-140.96 611.6,-140.5"/>
</g>
<!-- Node15 -->
<g id="node15" class="node">
<title>Node15</title>
<g id="a_node15"><a xlink:href="Op__Diff__RotRot_8h.html" target="_top" xlink:title=" ">
<polygon fill="white" stroke="black" points="720.5,-73 720.5,-103 856.5,-103 856.5,-73 720.5,-73"/>
<text text-anchor="start" x="728.5" y="-91" font-family="Helvetica,sans-Serif" font-size="10.00">src/P1NCP1B/Operateurs</text>
<text text-anchor="middle" x="788.5" y="-80" font-family="Helvetica,sans-Serif" font-size="10.00">/Op_Diff_RotRot.h</text>
</a>
</g>
</g>
<!-- Node14&#45;&gt;Node15 -->
<g id="edge14" class="edge">
<title>Node14&#45;&gt;Node15</title>
<path fill="none" stroke="midnightblue" d="M783.07,-140.59C784.37,-128.26 785.9,-113.72 787,-103.23"/>
<polygon fill="midnightblue" stroke="midnightblue" points="779.57,-140.39 782,-150.7 786.53,-141.13 779.57,-140.39"/>
</g>
<!-- Node17 -->
<g id="node17" class="node">
<title>Node17</title>
<g id="a_node17"><a xlink:href="Op__Rot__VEFP1B_8cpp.html" target="_top" xlink:title=" ">
<polygon fill="white" stroke="black" points="874.5,-73 874.5,-103 1010.5,-103 1010.5,-73 874.5,-73"/>
<text text-anchor="start" x="882.5" y="-91" font-family="Helvetica,sans-Serif" font-size="10.00">src/P1NCP1B/Operateurs</text>
<text text-anchor="middle" x="942.5" y="-80" font-family="Helvetica,sans-Serif" font-size="10.00">/Op_Rot_VEFP1B.cpp</text>
</a>
</g>
</g>
<!-- Node14&#45;&gt;Node17 -->
<g id="edge16" class="edge">
<title>Node14&#45;&gt;Node17</title>
<path fill="none" stroke="midnightblue" d="M819.88,-146.52C848.44,-133.13 886.48,-115.28 912.57,-103.04"/>
<polygon fill="midnightblue" stroke="midnightblue" points="818.16,-143.47 810.59,-150.88 821.13,-149.8 818.16,-143.47"/>
</g>
<!-- Node16 -->
<g id="node16" class="node">
<title>Node16</title>
<g id="a_node16"><a xlink:href="Op__Diff__RotRot_8cpp.html" target="_top" xlink:title=" ">
<polygon fill="white" stroke="black" points="720.5,-0.5 720.5,-30.5 856.5,-30.5 856.5,-0.5 720.5,-0.5"/>
<text text-anchor="start" x="728.5" y="-18.5" font-family="Helvetica,sans-Serif" font-size="10.00">src/P1NCP1B/Operateurs</text>
<text text-anchor="middle" x="788.5" y="-7.5" font-family="Helvetica,sans-Serif" font-size="10.00">/Op_Diff_RotRot.cpp</text>
</a>
</g>
</g>
<!-- Node15&#45;&gt;Node16 -->
<g id="edge15" class="edge">
<title>Node15&#45;&gt;Node16</title>
<path fill="none" stroke="midnightblue" d="M788.5,-62.73C788.5,-52.07 788.5,-39.91 788.5,-30.75"/>
<polygon fill="midnightblue" stroke="midnightblue" points="785,-62.73 788.5,-72.73 792,-62.73 785,-62.73"/>
</g>
</g>
</svg>
