<?xml version="1.0" encoding="UTF-8" standalone="no"?>
<!DOCTYPE svg PUBLIC "-//W3C//DTD SVG 1.1//EN"
 "http://www.w3.org/Graphics/SVG/1.1/DTD/svg11.dtd">
<!-- Generated by graphviz version 2.43.0 (0)
 -->
<!-- Title: src/ThHyd/Dilatable/Quasi_Compressible/Milieu/Ref_Espece.h Pages: 1 -->
<svg width="863pt" height="239pt"
 viewBox="0.00 0.00 863.00 239.00" xmlns="http://www.w3.org/2000/svg" xmlns:xlink="http://www.w3.org/1999/xlink">
<g id="graph0" class="graph" transform="scale(1 1) rotate(0) translate(4 235)">
<title>src/ThHyd/Dilatable/Quasi_Compressible/Milieu/Ref_Espece.h</title>
<polygon fill="white" stroke="transparent" points="-4,4 -4,-235 859,-235 859,4 -4,4"/>
<!-- Node1 -->
<g id="node1" class="node">
<title>Node1</title>
<g id="a_node1"><a xlink:title=" ">
<polygon fill="#bfbfbf" stroke="black" points="452.5,-189.5 452.5,-230.5 571.5,-230.5 571.5,-189.5 452.5,-189.5"/>
<text text-anchor="start" x="460.5" y="-218.5" font-family="Helvetica,sans-Serif" font-size="10.00">src/ThHyd/Dilatable</text>
<text text-anchor="start" x="460.5" y="-207.5" font-family="Helvetica,sans-Serif" font-size="10.00">/Quasi_Compressible</text>
<text text-anchor="middle" x="512" y="-196.5" font-family="Helvetica,sans-Serif" font-size="10.00">/Milieu/Ref_Espece.h</text>
</a>
</g>
</g>
<!-- Node2 -->
<g id="node2" class="node">
<title>Node2</title>
<g id="a_node2"><a xlink:href="Loi__Etat__Multi__GP__QC_8h.html" target="_top" xlink:title=" ">
<polygon fill="white" stroke="black" points="372.5,-100.5 372.5,-152.5 503.5,-152.5 503.5,-100.5 372.5,-100.5"/>
<text text-anchor="start" x="380.5" y="-140.5" font-family="Helvetica,sans-Serif" font-size="10.00">src/ThHyd/Dilatable</text>
<text text-anchor="start" x="380.5" y="-129.5" font-family="Helvetica,sans-Serif" font-size="10.00">/Quasi_Compressible</text>
<text text-anchor="start" x="380.5" y="-118.5" font-family="Helvetica,sans-Serif" font-size="10.00">/Loi_Etat/Loi_Etat_Multi</text>
<text text-anchor="middle" x="438" y="-107.5" font-family="Helvetica,sans-Serif" font-size="10.00">_GP_QC.h</text>
</a>
</g>
</g>
<!-- Node1&#45;&gt;Node2 -->
<g id="edge1" class="edge">
<title>Node1&#45;&gt;Node2</title>
<path fill="none" stroke="midnightblue" d="M487.2,-181.68C478.67,-172.29 469.16,-161.82 460.8,-152.61"/>
<polygon fill="midnightblue" stroke="midnightblue" points="484.77,-184.22 494.09,-189.27 489.96,-179.51 484.77,-184.22"/>
</g>
<!-- Node9 -->
<g id="node9" class="node">
<title>Node9</title>
<g id="a_node9"><a xlink:href="Ref__Espece_8cpp.html" target="_top" xlink:title=" ">
<polygon fill="white" stroke="black" points="521.5,-106 521.5,-147 650.5,-147 650.5,-106 521.5,-106"/>
<text text-anchor="start" x="529.5" y="-135" font-family="Helvetica,sans-Serif" font-size="10.00">src/ThHyd/Dilatable</text>
<text text-anchor="start" x="529.5" y="-124" font-family="Helvetica,sans-Serif" font-size="10.00">/Quasi_Compressible</text>
<text text-anchor="middle" x="586" y="-113" font-family="Helvetica,sans-Serif" font-size="10.00">/Milieu/Ref_Espece.cpp</text>
</a>
</g>
</g>
<!-- Node1&#45;&gt;Node9 -->
<g id="edge8" class="edge">
<title>Node1&#45;&gt;Node9</title>
<path fill="none" stroke="midnightblue" d="M536.78,-181.71C547.09,-170.36 558.83,-157.43 568.25,-147.05"/>
<polygon fill="midnightblue" stroke="midnightblue" points="534.04,-179.51 529.91,-189.27 539.23,-184.22 534.04,-179.51"/>
</g>
<!-- Node3 -->
<g id="node3" class="node">
<title>Node3</title>
<g id="a_node3"><a xlink:href="Fluide__Dilatable__base_8cpp.html" target="_top" xlink:title=" ">
<polygon fill="white" stroke="black" points="0,-11.5 0,-52.5 130,-52.5 130,-11.5 0,-11.5"/>
<text text-anchor="start" x="8" y="-40.5" font-family="Helvetica,sans-Serif" font-size="10.00">src/ThHyd/Dilatable</text>
<text text-anchor="start" x="8" y="-29.5" font-family="Helvetica,sans-Serif" font-size="10.00">/Common/Milieu/Fluide</text>
<text text-anchor="middle" x="65" y="-18.5" font-family="Helvetica,sans-Serif" font-size="10.00">_Dilatable_base.cpp</text>
</a>
</g>
</g>
<!-- Node2&#45;&gt;Node3 -->
<g id="edge2" class="edge">
<title>Node2&#45;&gt;Node3</title>
<path fill="none" stroke="midnightblue" d="M362.4,-114.12C301.33,-103.94 213.58,-87.05 139,-64 128.75,-60.83 117.98,-56.77 107.91,-52.63"/>
<polygon fill="midnightblue" stroke="midnightblue" points="361.9,-117.59 372.34,-115.76 363.04,-110.68 361.9,-117.59"/>
</g>
<!-- Node4 -->
<g id="node4" class="node">
<title>Node4</title>
<g id="a_node4"><a xlink:href="Convection__Diffusion__Espece__Multi__QC_8cpp.html" target="_top" xlink:title=" ">
<polygon fill="white" stroke="black" points="148.5,-0.5 148.5,-63.5 283.5,-63.5 283.5,-0.5 148.5,-0.5"/>
<text text-anchor="start" x="156.5" y="-51.5" font-family="Helvetica,sans-Serif" font-size="10.00">src/ThHyd/Dilatable</text>
<text text-anchor="start" x="156.5" y="-40.5" font-family="Helvetica,sans-Serif" font-size="10.00">/Quasi_Compressible</text>
<text text-anchor="start" x="156.5" y="-29.5" font-family="Helvetica,sans-Serif" font-size="10.00">/Equations/Convection</text>
<text text-anchor="start" x="156.5" y="-18.5" font-family="Helvetica,sans-Serif" font-size="10.00">_Diffusion_Espece_Multi</text>
<text text-anchor="middle" x="216" y="-7.5" font-family="Helvetica,sans-Serif" font-size="10.00">_QC.cpp</text>
</a>
</g>
</g>
<!-- Node2&#45;&gt;Node4 -->
<g id="edge3" class="edge">
<title>Node2&#45;&gt;Node4</title>
<path fill="none" stroke="midnightblue" d="M368.51,-96.55C341.42,-85.26 310.47,-72.36 283.56,-61.15"/>
<polygon fill="midnightblue" stroke="midnightblue" points="367.35,-99.85 377.92,-100.47 370.04,-93.39 367.35,-99.85"/>
</g>
<!-- Node5 -->
<g id="node5" class="node">
<title>Node5</title>
<g id="a_node5"><a xlink:href="Loi__Etat__Multi__GP__QC_8cpp.html" target="_top" xlink:title=" ">
<polygon fill="white" stroke="black" points="301.5,-6 301.5,-58 432.5,-58 432.5,-6 301.5,-6"/>
<text text-anchor="start" x="309.5" y="-46" font-family="Helvetica,sans-Serif" font-size="10.00">src/ThHyd/Dilatable</text>
<text text-anchor="start" x="309.5" y="-35" font-family="Helvetica,sans-Serif" font-size="10.00">/Quasi_Compressible</text>
<text text-anchor="start" x="309.5" y="-24" font-family="Helvetica,sans-Serif" font-size="10.00">/Loi_Etat/Loi_Etat_Multi</text>
<text text-anchor="middle" x="367" y="-13" font-family="Helvetica,sans-Serif" font-size="10.00">_GP_QC.cpp</text>
</a>
</g>
</g>
<!-- Node2&#45;&gt;Node5 -->
<g id="edge4" class="edge">
<title>Node2&#45;&gt;Node5</title>
<path fill="none" stroke="midnightblue" d="M412.26,-91.97C403.72,-80.84 394.36,-68.64 386.38,-58.25"/>
<polygon fill="midnightblue" stroke="midnightblue" points="409.73,-94.42 418.6,-100.22 415.29,-90.16 409.73,-94.42"/>
</g>
<!-- Node6 -->
<g id="node6" class="node">
<title>Node6</title>
<g id="a_node6"><a xlink:href="Fluide__Quasi__Compressible_8cpp.html" target="_top" xlink:title=" ">
<polygon fill="white" stroke="black" points="450.5,-6 450.5,-58 569.5,-58 569.5,-6 450.5,-6"/>
<text text-anchor="start" x="458.5" y="-46" font-family="Helvetica,sans-Serif" font-size="10.00">src/ThHyd/Dilatable</text>
<text text-anchor="start" x="458.5" y="-35" font-family="Helvetica,sans-Serif" font-size="10.00">/Quasi_Compressible</text>
<text text-anchor="start" x="458.5" y="-24" font-family="Helvetica,sans-Serif" font-size="10.00">/Milieu/Fluide_Quasi</text>
<text text-anchor="middle" x="510" y="-13" font-family="Helvetica,sans-Serif" font-size="10.00">_Compressible.cpp</text>
</a>
</g>
</g>
<!-- Node2&#45;&gt;Node6 -->
<g id="edge5" class="edge">
<title>Node2&#45;&gt;Node6</title>
<path fill="none" stroke="midnightblue" d="M463.85,-92.29C472.58,-81.08 482.18,-68.74 490.35,-58.25"/>
<polygon fill="midnightblue" stroke="midnightblue" points="461.05,-90.18 457.67,-100.22 466.58,-94.48 461.05,-90.18"/>
</g>
<!-- Node7 -->
<g id="node7" class="node">
<title>Node7</title>
<g id="a_node7"><a xlink:href="EDO__Pression__th__VDF_8cpp.html" target="_top" xlink:title=" ">
<polygon fill="white" stroke="black" points="587.5,-6 587.5,-58 712.5,-58 712.5,-6 587.5,-6"/>
<text text-anchor="start" x="595.5" y="-46" font-family="Helvetica,sans-Serif" font-size="10.00">src/ThHyd/Dilatable</text>
<text text-anchor="start" x="595.5" y="-35" font-family="Helvetica,sans-Serif" font-size="10.00">/Quasi_Compressible</text>
<text text-anchor="start" x="595.5" y="-24" font-family="Helvetica,sans-Serif" font-size="10.00">/VDF/EDO_Pression_th</text>
<text text-anchor="middle" x="650" y="-13" font-family="Helvetica,sans-Serif" font-size="10.00">_VDF.cpp</text>
</a>
</g>
</g>
<!-- Node2&#45;&gt;Node7 -->
<g id="edge6" class="edge">
<title>Node2&#45;&gt;Node7</title>
<path fill="none" stroke="midnightblue" d="M504.8,-96.37C528.26,-86.14 554.8,-74.56 579,-64 583.44,-62.06 588.03,-60.06 592.65,-58.04"/>
<polygon fill="midnightblue" stroke="midnightblue" points="503.39,-93.16 495.63,-100.37 506.19,-99.58 503.39,-93.16"/>
</g>
<!-- Node8 -->
<g id="node8" class="node">
<title>Node8</title>
<g id="a_node8"><a xlink:href="EDO__Pression__th__VEF_8cpp.html" target="_top" xlink:title=" ">
<polygon fill="white" stroke="black" points="731,-6 731,-58 855,-58 855,-6 731,-6"/>
<text text-anchor="start" x="739" y="-46" font-family="Helvetica,sans-Serif" font-size="10.00">src/ThHyd/Dilatable</text>
<text text-anchor="start" x="739" y="-35" font-family="Helvetica,sans-Serif" font-size="10.00">/Quasi_Compressible</text>
<text text-anchor="start" x="739" y="-24" font-family="Helvetica,sans-Serif" font-size="10.00">/VEF/EDO_Pression_th</text>
<text text-anchor="middle" x="793" y="-13" font-family="Helvetica,sans-Serif" font-size="10.00">_VEF.cpp</text>
</a>
</g>
</g>
<!-- Node2&#45;&gt;Node8 -->
<g id="edge7" class="edge">
<title>Node2&#45;&gt;Node8</title>
<path fill="none" stroke="midnightblue" d="M513.46,-100.08C606.23,-77.66 634.71,-90.16 722,-64 727.67,-62.3 733.49,-60.27 739.23,-58.07"/>
<polygon fill="midnightblue" stroke="midnightblue" points="512.53,-96.71 503.67,-102.52 514.22,-103.5 512.53,-96.71"/>
</g>
</g>
</svg>
