<?xml version="1.0" encoding="UTF-8" standalone="no"?>
<!DOCTYPE svg PUBLIC "-//W3C//DTD SVG 1.1//EN"
 "http://www.w3.org/Graphics/SVG/1.1/DTD/svg11.dtd">
<!-- Generated by graphviz version 2.43.0 (0)
 -->
<!-- Title: src/Kernel/Statistiques_temps/Ref_Op_Moyenne.h Pages: 1 -->
<svg width="914pt" height="240pt"
 viewBox="0.00 0.00 914.00 240.00" xmlns="http://www.w3.org/2000/svg" xmlns:xlink="http://www.w3.org/1999/xlink">
<g id="graph0" class="graph" transform="scale(1 1) rotate(0) translate(4 236)">
<title>src/Kernel/Statistiques_temps/Ref_Op_Moyenne.h</title>
<polygon fill="white" stroke="transparent" points="-4,4 -4,-236 910,-236 910,4 -4,4"/>
<!-- Node1 -->
<g id="node1" class="node">
<title>Node1</title>
<g id="a_node1"><a xlink:title=" ">
<polygon fill="#bfbfbf" stroke="black" points="490,-201.5 490,-231.5 640,-231.5 640,-201.5 490,-201.5"/>
<text text-anchor="start" x="498" y="-219.5" font-family="Helvetica,sans-Serif" font-size="10.00">src/Kernel/Statistiques</text>
<text text-anchor="middle" x="565" y="-208.5" font-family="Helvetica,sans-Serif" font-size="10.00">_temps/Ref_Op_Moyenne.h</text>
</a>
</g>
</g>
<!-- Node2 -->
<g id="node2" class="node">
<title>Node2</title>
<g id="a_node2"><a xlink:href="Op__Correlation_8h.html" target="_top" xlink:title=" ">
<polygon fill="white" stroke="black" points="249.5,-134.5 249.5,-164.5 386.5,-164.5 386.5,-134.5 249.5,-134.5"/>
<text text-anchor="start" x="257.5" y="-152.5" font-family="Helvetica,sans-Serif" font-size="10.00">src/Kernel/Statistiques</text>
<text text-anchor="middle" x="318" y="-141.5" font-family="Helvetica,sans-Serif" font-size="10.00">_temps/Op_Correlation.h</text>
</a>
</g>
</g>
<!-- Node1&#45;&gt;Node2 -->
<g id="edge1" class="edge">
<title>Node1&#45;&gt;Node2</title>
<path fill="none" stroke="midnightblue" d="M501.99,-198.92C461.68,-188.31 409.96,-174.7 371.62,-164.61"/>
<polygon fill="midnightblue" stroke="midnightblue" points="501.15,-202.32 511.71,-201.48 502.93,-195.55 501.15,-202.32"/>
</g>
<!-- Node7 -->
<g id="node7" class="node">
<title>Node7</title>
<g id="a_node7"><a xlink:href="Op__Ecart__type_8h.html" target="_top" xlink:title=" ">
<polygon fill="white" stroke="black" points="497.5,-134.5 497.5,-164.5 632.5,-164.5 632.5,-134.5 497.5,-134.5"/>
<text text-anchor="start" x="505.5" y="-152.5" font-family="Helvetica,sans-Serif" font-size="10.00">src/Kernel/Statistiques</text>
<text text-anchor="middle" x="565" y="-141.5" font-family="Helvetica,sans-Serif" font-size="10.00">_temps/Op_Ecart_type.h</text>
</a>
</g>
</g>
<!-- Node1&#45;&gt;Node7 -->
<g id="edge6" class="edge">
<title>Node1&#45;&gt;Node7</title>
<path fill="none" stroke="midnightblue" d="M565,-191.11C565,-182.15 565,-172.32 565,-164.58"/>
<polygon fill="midnightblue" stroke="midnightblue" points="561.5,-191.4 565,-201.4 568.5,-191.4 561.5,-191.4"/>
</g>
<!-- Node12 -->
<g id="node12" class="node">
<title>Node12</title>
<g id="a_node12"><a xlink:href="Ref__Op__Moyenne_8cpp.html" target="_top" xlink:title=" ">
<polygon fill="white" stroke="black" points="650.5,-134.5 650.5,-164.5 811.5,-164.5 811.5,-134.5 650.5,-134.5"/>
<text text-anchor="start" x="658.5" y="-152.5" font-family="Helvetica,sans-Serif" font-size="10.00">src/Kernel/Statistiques</text>
<text text-anchor="middle" x="731" y="-141.5" font-family="Helvetica,sans-Serif" font-size="10.00">_temps/Ref_Op_Moyenne.cpp</text>
</a>
</g>
</g>
<!-- Node1&#45;&gt;Node12 -->
<g id="edge11" class="edge">
<title>Node1&#45;&gt;Node12</title>
<path fill="none" stroke="midnightblue" d="M610.51,-197.68C637.13,-187.26 670.27,-174.28 695.05,-164.58"/>
<polygon fill="midnightblue" stroke="midnightblue" points="609.05,-194.49 601.02,-201.4 611.61,-201.01 609.05,-194.49"/>
</g>
<!-- Node3 -->
<g id="node3" class="node">
<title>Node3</title>
<g id="a_node3"><a xlink:href="Champ__Generique__Correlation_8h.html" target="_top" xlink:title=" ">
<polygon fill="white" stroke="black" points="80.5,-67.5 80.5,-97.5 225.5,-97.5 225.5,-67.5 80.5,-67.5"/>
<text text-anchor="start" x="88.5" y="-85.5" font-family="Helvetica,sans-Serif" font-size="10.00">src/Kernel/Champs/Champ</text>
<text text-anchor="middle" x="153" y="-74.5" font-family="Helvetica,sans-Serif" font-size="10.00">_Generique_Correlation.h</text>
</a>
</g>
</g>
<!-- Node2&#45;&gt;Node3 -->
<g id="edge2" class="edge">
<title>Node2&#45;&gt;Node3</title>
<path fill="none" stroke="midnightblue" d="M272.77,-130.68C246.31,-120.26 213.37,-107.28 188.73,-97.58"/>
<polygon fill="midnightblue" stroke="midnightblue" points="271.61,-133.99 282.2,-134.4 274.18,-127.47 271.61,-133.99"/>
</g>
<!-- Node6 -->
<g id="node6" class="node">
<title>Node6</title>
<g id="a_node6"><a xlink:href="Op__Correlation_8cpp.html" target="_top" xlink:title=" ">
<polygon fill="white" stroke="black" points="243.5,-67.5 243.5,-97.5 392.5,-97.5 392.5,-67.5 243.5,-67.5"/>
<text text-anchor="start" x="251.5" y="-85.5" font-family="Helvetica,sans-Serif" font-size="10.00">src/Kernel/Statistiques</text>
<text text-anchor="middle" x="318" y="-74.5" font-family="Helvetica,sans-Serif" font-size="10.00">_temps/Op_Correlation.cpp</text>
</a>
</g>
</g>
<!-- Node2&#45;&gt;Node6 -->
<g id="edge5" class="edge">
<title>Node2&#45;&gt;Node6</title>
<path fill="none" stroke="midnightblue" d="M318,-124.11C318,-115.15 318,-105.32 318,-97.58"/>
<polygon fill="midnightblue" stroke="midnightblue" points="314.5,-124.4 318,-134.4 321.5,-124.4 314.5,-124.4"/>
</g>
<!-- Node4 -->
<g id="node4" class="node">
<title>Node4</title>
<g id="a_node4"><a xlink:href="Champ__Generique__Correlation_8cpp.html" target="_top" xlink:title=" ">
<polygon fill="white" stroke="black" points="0,-0.5 0,-30.5 152,-30.5 152,-0.5 0,-0.5"/>
<text text-anchor="start" x="8" y="-18.5" font-family="Helvetica,sans-Serif" font-size="10.00">src/Kernel/Champs/Champ</text>
<text text-anchor="middle" x="76" y="-7.5" font-family="Helvetica,sans-Serif" font-size="10.00">_Generique_Correlation.cpp</text>
</a>
</g>
</g>
<!-- Node3&#45;&gt;Node4 -->
<g id="edge3" class="edge">
<title>Node3&#45;&gt;Node4</title>
<path fill="none" stroke="midnightblue" d="M128.58,-60.88C116.88,-51.01 103.16,-39.43 92.68,-30.58"/>
<polygon fill="midnightblue" stroke="midnightblue" points="126.39,-63.62 136.29,-67.4 130.91,-58.27 126.39,-63.62"/>
</g>
<!-- Node5 -->
<g id="node5" class="node">
<title>Node5</title>
<g id="a_node5"><a xlink:href="Postraitement_8cpp.html" target="_top" xlink:title=" ">
<polygon fill="white" stroke="black" points="170,-0.5 170,-30.5 292,-30.5 292,-0.5 170,-0.5"/>
<text text-anchor="start" x="178" y="-18.5" font-family="Helvetica,sans-Serif" font-size="10.00">src/Kernel/Framework</text>
<text text-anchor="middle" x="231" y="-7.5" font-family="Helvetica,sans-Serif" font-size="10.00">/Postraitement.cpp</text>
</a>
</g>
</g>
<!-- Node3&#45;&gt;Node5 -->
<g id="edge4" class="edge">
<title>Node3&#45;&gt;Node5</title>
<path fill="none" stroke="midnightblue" d="M177.74,-60.88C189.59,-51.01 203.48,-39.43 214.11,-30.58"/>
<polygon fill="midnightblue" stroke="midnightblue" points="175.37,-58.31 169.92,-67.4 179.85,-63.68 175.37,-58.31"/>
</g>
<!-- Node8 -->
<g id="node8" class="node">
<title>Node8</title>
<g id="a_node8"><a xlink:href="Champ__Generique__Ecart__Type_8h.html" target="_top" xlink:title=" ">
<polygon fill="white" stroke="black" points="410.5,-67.5 410.5,-97.5 555.5,-97.5 555.5,-67.5 410.5,-67.5"/>
<text text-anchor="start" x="418.5" y="-85.5" font-family="Helvetica,sans-Serif" font-size="10.00">src/Kernel/Champs/Champ</text>
<text text-anchor="middle" x="483" y="-74.5" font-family="Helvetica,sans-Serif" font-size="10.00">_Generique_Ecart_Type.h</text>
</a>
</g>
</g>
<!-- Node7&#45;&gt;Node8 -->
<g id="edge7" class="edge">
<title>Node7&#45;&gt;Node8</title>
<path fill="none" stroke="midnightblue" d="M539.35,-128.17C526.81,-118.23 512.03,-106.51 500.76,-97.58"/>
<polygon fill="midnightblue" stroke="midnightblue" points="537.2,-130.93 547.21,-134.4 541.54,-125.44 537.2,-130.93"/>
</g>
<!-- Node10 -->
<g id="node10" class="node">
<title>Node10</title>
<g id="a_node10"><a xlink:href="Op__Ecart__type_8cpp.html" target="_top" xlink:title=" ">
<polygon fill="white" stroke="black" points="574,-67.5 574,-97.5 720,-97.5 720,-67.5 574,-67.5"/>
<text text-anchor="start" x="582" y="-85.5" font-family="Helvetica,sans-Serif" font-size="10.00">src/Kernel/Statistiques</text>
<text text-anchor="middle" x="647" y="-74.5" font-family="Helvetica,sans-Serif" font-size="10.00">_temps/Op_Ecart_type.cpp</text>
</a>
</g>
</g>
<!-- Node7&#45;&gt;Node10 -->
<g id="edge9" class="edge">
<title>Node7&#45;&gt;Node10</title>
<path fill="none" stroke="midnightblue" d="M590.65,-128.17C603.19,-118.23 617.97,-106.51 629.24,-97.58"/>
<polygon fill="midnightblue" stroke="midnightblue" points="588.46,-125.44 582.79,-134.4 592.8,-130.93 588.46,-125.44"/>
</g>
<!-- Node11 -->
<g id="node11" class="node">
<title>Node11</title>
<g id="a_node11"><a xlink:href="Ref__Op__Ecart__type_8cpp.html" target="_top" xlink:title=" ">
<polygon fill="white" stroke="black" points="738,-67.5 738,-97.5 906,-97.5 906,-67.5 738,-67.5"/>
<text text-anchor="start" x="746" y="-85.5" font-family="Helvetica,sans-Serif" font-size="10.00">src/Kernel/Statistiques</text>
<text text-anchor="middle" x="822" y="-74.5" font-family="Helvetica,sans-Serif" font-size="10.00">_temps/Ref_Op_Ecart_type.cpp</text>
</a>
</g>
</g>
<!-- Node7&#45;&gt;Node11 -->
<g id="edge10" class="edge">
<title>Node7&#45;&gt;Node11</title>
<path fill="none" stroke="midnightblue" d="M630.3,-131.98C672.28,-121.37 726.24,-107.72 766.21,-97.61"/>
<polygon fill="midnightblue" stroke="midnightblue" points="629.29,-128.63 620.45,-134.48 631,-135.42 629.29,-128.63"/>
</g>
<!-- Node9 -->
<g id="node9" class="node">
<title>Node9</title>
<g id="a_node9"><a xlink:href="Champ__Generique__Ecart__Type_8cpp.html" target="_top" xlink:title=" ">
<polygon fill="white" stroke="black" points="408,-0.5 408,-30.5 558,-30.5 558,-0.5 408,-0.5"/>
<text text-anchor="start" x="416" y="-18.5" font-family="Helvetica,sans-Serif" font-size="10.00">src/Kernel/Champs/Champ</text>
<text text-anchor="middle" x="483" y="-7.5" font-family="Helvetica,sans-Serif" font-size="10.00">_Generique_Ecart_Type.cpp</text>
</a>
</g>
</g>
<!-- Node8&#45;&gt;Node9 -->
<g id="edge8" class="edge">
<title>Node8&#45;&gt;Node9</title>
<path fill="none" stroke="midnightblue" d="M483,-57.11C483,-48.15 483,-38.32 483,-30.58"/>
<polygon fill="midnightblue" stroke="midnightblue" points="479.5,-57.4 483,-67.4 486.5,-57.4 479.5,-57.4"/>
</g>
</g>
</svg>
