<?xml version="1.0" encoding="UTF-8" standalone="no"?>
<!DOCTYPE svg PUBLIC "-//W3C//DTD SVG 1.1//EN"
 "http://www.w3.org/Graphics/SVG/1.1/DTD/svg11.dtd">
<!-- Generated by graphviz version 2.43.0 (0)
 -->
<!-- Title: src/ThHyd/Incompressible/Milieu/Ref_Constituant.h Pages: 1 -->
<svg width="1877pt" height="351pt"
 viewBox="0.00 0.00 1876.50 351.00" xmlns="http://www.w3.org/2000/svg" xmlns:xlink="http://www.w3.org/1999/xlink">
<g id="graph0" class="graph" transform="scale(1 1) rotate(0) translate(4 347)">
<title>src/ThHyd/Incompressible/Milieu/Ref_Constituant.h</title>
<polygon fill="white" stroke="transparent" points="-4,4 -4,-347 1872.5,-347 1872.5,4 -4,4"/>
<!-- Node1 -->
<g id="node1" class="node">
<title>Node1</title>
<g id="a_node1"><a xlink:title=" ">
<polygon fill="#bfbfbf" stroke="black" points="988,-312.5 988,-342.5 1131,-342.5 1131,-312.5 988,-312.5"/>
<text text-anchor="start" x="996" y="-330.5" font-family="Helvetica,sans-Serif" font-size="10.00">src/ThHyd/Incompressible</text>
<text text-anchor="middle" x="1059.5" y="-319.5" font-family="Helvetica,sans-Serif" font-size="10.00">/Milieu/Ref_Constituant.h</text>
</a>
</g>
</g>
<!-- Node2 -->
<g id="node2" class="node">
<title>Node2</title>
<g id="a_node2"><a xlink:href="Convection__Diffusion__Concentration_8h.html" target="_top" xlink:title=" ">
<polygon fill="white" stroke="black" points="882.5,-234.5 882.5,-275.5 1056.5,-275.5 1056.5,-234.5 882.5,-234.5"/>
<text text-anchor="start" x="890.5" y="-263.5" font-family="Helvetica,sans-Serif" font-size="10.00">src/ThHyd/Incompressible</text>
<text text-anchor="start" x="890.5" y="-252.5" font-family="Helvetica,sans-Serif" font-size="10.00">/Equations/Convection_Diffusion</text>
<text text-anchor="middle" x="969.5" y="-241.5" font-family="Helvetica,sans-Serif" font-size="10.00">_Concentration.h</text>
</a>
</g>
</g>
<!-- Node1&#45;&gt;Node2 -->
<g id="edge1" class="edge">
<title>Node1&#45;&gt;Node2</title>
<path fill="none" stroke="midnightblue" d="M1033.24,-305.93C1021.03,-296.36 1006.56,-285.03 994.51,-275.59"/>
<polygon fill="midnightblue" stroke="midnightblue" points="1031.26,-308.82 1041.29,-312.23 1035.57,-303.31 1031.26,-308.82"/>
</g>
<!-- Node18 -->
<g id="node18" class="node">
<title>Node18</title>
<g id="a_node18"><a xlink:href="Ref__Constituant_8cpp.html" target="_top" xlink:title=" ">
<polygon fill="white" stroke="black" points="1075,-240 1075,-270 1226,-270 1226,-240 1075,-240"/>
<text text-anchor="start" x="1083" y="-258" font-family="Helvetica,sans-Serif" font-size="10.00">src/ThHyd/Incompressible</text>
<text text-anchor="middle" x="1150.5" y="-247" font-family="Helvetica,sans-Serif" font-size="10.00">/Milieu/Ref_Constituant.cpp</text>
</a>
</g>
</g>
<!-- Node1&#45;&gt;Node18 -->
<g id="edge18" class="edge">
<title>Node1&#45;&gt;Node18</title>
<path fill="none" stroke="midnightblue" d="M1086.24,-305.79C1101.11,-294.27 1119.22,-280.23 1132.42,-270"/>
<polygon fill="midnightblue" stroke="midnightblue" points="1083.68,-303.34 1077.92,-312.23 1087.96,-308.88 1083.68,-303.34"/>
</g>
<!-- Node3 -->
<g id="node3" class="node">
<title>Node3</title>
<g id="a_node3"><a xlink:href="Terme__Source__Constituant__PolyMAC__Elem_8cpp.html" target="_top" xlink:title=" ">
<polygon fill="white" stroke="black" points="0,-156.5 0,-197.5 149,-197.5 149,-156.5 0,-156.5"/>
<text text-anchor="start" x="8" y="-185.5" font-family="Helvetica,sans-Serif" font-size="10.00">src/PolyMAC/Sources</text>
<text text-anchor="start" x="8" y="-174.5" font-family="Helvetica,sans-Serif" font-size="10.00">/Terme_Source_Constituant</text>
<text text-anchor="middle" x="74.5" y="-163.5" font-family="Helvetica,sans-Serif" font-size="10.00">_PolyMAC_Elem.cpp</text>
</a>
</g>
</g>
<!-- Node2&#45;&gt;Node3 -->
<g id="edge2" class="edge">
<title>Node2&#45;&gt;Node3</title>
<path fill="none" stroke="midnightblue" d="M872.15,-252.55C719.16,-249.08 413.49,-237.38 157.5,-198 154.72,-197.57 151.89,-197.1 149.04,-196.58"/>
<polygon fill="midnightblue" stroke="midnightblue" points="872.37,-256.05 882.45,-252.77 872.53,-249.05 872.37,-256.05"/>
</g>
<!-- Node4 -->
<g id="node4" class="node">
<title>Node4</title>
<g id="a_node4"><a xlink:href="Chimie_8cpp.html" target="_top" xlink:title=" ">
<polygon fill="white" stroke="black" points="167,-167.5 167,-186.5 328,-186.5 328,-167.5 167,-167.5"/>
<text text-anchor="middle" x="247.5" y="-174.5" font-family="Helvetica,sans-Serif" font-size="10.00">src/ThHyd/Chimie/Chimie.cpp</text>
</a>
</g>
</g>
<!-- Node2&#45;&gt;Node4 -->
<g id="edge3" class="edge">
<title>Node2&#45;&gt;Node4</title>
<path fill="none" stroke="midnightblue" d="M872.16,-249.32C747.64,-242.43 525.57,-227.1 337.5,-198 318.68,-195.09 297.91,-190.56 281.07,-186.55"/>
<polygon fill="midnightblue" stroke="midnightblue" points="872.25,-252.83 882.43,-249.88 872.64,-245.84 872.25,-252.83"/>
</g>
<!-- Node5 -->
<g id="node5" class="node">
<title>Node5</title>
<g id="a_node5"><a xlink:href="Convection__Diffusion__Concentration_8cpp.html" target="_top" xlink:title=" ">
<polygon fill="white" stroke="black" points="346.5,-156.5 346.5,-197.5 520.5,-197.5 520.5,-156.5 346.5,-156.5"/>
<text text-anchor="start" x="354.5" y="-185.5" font-family="Helvetica,sans-Serif" font-size="10.00">src/ThHyd/Incompressible</text>
<text text-anchor="start" x="354.5" y="-174.5" font-family="Helvetica,sans-Serif" font-size="10.00">/Equations/Convection_Diffusion</text>
<text text-anchor="middle" x="433.5" y="-163.5" font-family="Helvetica,sans-Serif" font-size="10.00">_Concentration.cpp</text>
</a>
</g>
</g>
<!-- Node2&#45;&gt;Node5 -->
<g id="edge4" class="edge">
<title>Node2&#45;&gt;Node5</title>
<path fill="none" stroke="midnightblue" d="M872.26,-243.85C782.88,-233.99 646.87,-217.66 529.5,-198 526.56,-197.51 523.58,-196.99 520.56,-196.45"/>
<polygon fill="midnightblue" stroke="midnightblue" points="872.06,-247.35 882.38,-244.96 872.82,-240.39 872.06,-247.35"/>
</g>
<!-- Node6 -->
<g id="node6" class="node">
<title>Node6</title>
<g id="a_node6"><a xlink:href="Ref__Convection__Diffusion__Concentration_8cpp.html" target="_top" xlink:title=" ">
<polygon fill="white" stroke="black" points="539,-156.5 539,-197.5 698,-197.5 698,-156.5 539,-156.5"/>
<text text-anchor="start" x="547" y="-185.5" font-family="Helvetica,sans-Serif" font-size="10.00">src/ThHyd/Incompressible</text>
<text text-anchor="start" x="547" y="-174.5" font-family="Helvetica,sans-Serif" font-size="10.00">/Equations/Ref_Convection</text>
<text text-anchor="middle" x="618.5" y="-163.5" font-family="Helvetica,sans-Serif" font-size="10.00">_Diffusion_Concentration.cpp</text>
</a>
</g>
</g>
<!-- Node2&#45;&gt;Node6 -->
<g id="edge5" class="edge">
<title>Node2&#45;&gt;Node6</title>
<path fill="none" stroke="midnightblue" d="M872.28,-233.63C822.64,-223.15 761.31,-210.06 706.5,-198 703.75,-197.39 700.94,-196.77 698.11,-196.15"/>
<polygon fill="midnightblue" stroke="midnightblue" points="871.86,-237.12 882.37,-235.76 873.31,-230.27 871.86,-237.12"/>
</g>
<!-- Node7 -->
<g id="node7" class="node">
<title>Node7</title>
<g id="a_node7"><a xlink:href="Pb__Hydraulique__Concentration_8h.html" target="_top" xlink:title=" ">
<polygon fill="white" stroke="black" points="716,-156.5 716,-197.5 861,-197.5 861,-156.5 716,-156.5"/>
<text text-anchor="start" x="724" y="-185.5" font-family="Helvetica,sans-Serif" font-size="10.00">src/ThHyd/Incompressible</text>
<text text-anchor="start" x="724" y="-174.5" font-family="Helvetica,sans-Serif" font-size="10.00">/Problems/Pb_Hydraulique</text>
<text text-anchor="middle" x="788.5" y="-163.5" font-family="Helvetica,sans-Serif" font-size="10.00">_Concentration.h</text>
</a>
</g>
</g>
<!-- Node2&#45;&gt;Node7 -->
<g id="edge6" class="edge">
<title>Node2&#45;&gt;Node7</title>
<path fill="none" stroke="midnightblue" d="M913.46,-230.47C888.27,-219.89 858.89,-207.56 834.95,-197.51"/>
<polygon fill="midnightblue" stroke="midnightblue" points="912.31,-233.78 922.89,-234.43 915.02,-227.33 912.31,-233.78"/>
</g>
<!-- Node11 -->
<g id="node11" class="node">
<title>Node11</title>
<g id="a_node11"><a xlink:href="Pb__Thermohydraulique__Concentration_8h.html" target="_top" xlink:title=" ">
<polygon fill="white" stroke="black" points="879,-156.5 879,-197.5 1060,-197.5 1060,-156.5 879,-156.5"/>
<text text-anchor="start" x="887" y="-185.5" font-family="Helvetica,sans-Serif" font-size="10.00">src/ThHyd/Incompressible</text>
<text text-anchor="start" x="887" y="-174.5" font-family="Helvetica,sans-Serif" font-size="10.00">/Problems/Pb_Thermohydraulique</text>
<text text-anchor="middle" x="969.5" y="-163.5" font-family="Helvetica,sans-Serif" font-size="10.00">_Concentration.h</text>
</a>
</g>
</g>
<!-- Node2&#45;&gt;Node11 -->
<g id="edge10" class="edge">
<title>Node2&#45;&gt;Node11</title>
<path fill="none" stroke="midnightblue" d="M969.5,-224.3C969.5,-215.3 969.5,-205.65 969.5,-197.51"/>
<polygon fill="midnightblue" stroke="midnightblue" points="966,-224.43 969.5,-234.43 973,-224.43 966,-224.43"/>
</g>
<!-- Node13 -->
<g id="node13" class="node">
<title>Node13</title>
<g id="a_node13"><a xlink:href="Neumann__loi__paroi_8cpp.html" target="_top" xlink:title=" ">
<polygon fill="white" stroke="black" points="1078.5,-156.5 1078.5,-197.5 1218.5,-197.5 1218.5,-156.5 1078.5,-156.5"/>
<text text-anchor="start" x="1086.5" y="-185.5" font-family="Helvetica,sans-Serif" font-size="10.00">src/ThHyd/Multiphase</text>
<text text-anchor="start" x="1086.5" y="-174.5" font-family="Helvetica,sans-Serif" font-size="10.00">/Turbulence/Neumann_loi</text>
<text text-anchor="middle" x="1148.5" y="-163.5" font-family="Helvetica,sans-Serif" font-size="10.00">_paroi.cpp</text>
</a>
</g>
</g>
<!-- Node2&#45;&gt;Node13 -->
<g id="edge13" class="edge">
<title>Node2&#45;&gt;Node13</title>
<path fill="none" stroke="midnightblue" d="M1024.92,-230.47C1049.83,-219.89 1078.88,-207.56 1102.56,-197.51"/>
<polygon fill="midnightblue" stroke="midnightblue" points="1023.43,-227.3 1015.6,-234.43 1026.17,-233.74 1023.43,-227.3"/>
</g>
<!-- Node14 -->
<g id="node14" class="node">
<title>Node14</title>
<g id="a_node14"><a xlink:href="Terme__Source__Constituant__VDF__Elem_8cpp.html" target="_top" xlink:title=" ">
<polygon fill="white" stroke="black" points="1236.5,-156.5 1236.5,-197.5 1390.5,-197.5 1390.5,-156.5 1236.5,-156.5"/>
<text text-anchor="start" x="1244.5" y="-185.5" font-family="Helvetica,sans-Serif" font-size="10.00">src/VDF/Sources/Sources</text>
<text text-anchor="start" x="1244.5" y="-174.5" font-family="Helvetica,sans-Serif" font-size="10.00">_It_Eval/Terme_Source</text>
<text text-anchor="middle" x="1313.5" y="-163.5" font-family="Helvetica,sans-Serif" font-size="10.00">_Constituant_VDF_Elem.cpp</text>
</a>
</g>
</g>
<!-- Node2&#45;&gt;Node14 -->
<g id="edge14" class="edge">
<title>Node2&#45;&gt;Node14</title>
<path fill="none" stroke="midnightblue" d="M1066.59,-233.28C1114.98,-222.86 1174.37,-209.94 1227.5,-198 1230.34,-197.36 1233.24,-196.71 1236.16,-196.04"/>
<polygon fill="midnightblue" stroke="midnightblue" points="1065.79,-229.87 1056.75,-235.4 1067.26,-236.72 1065.79,-229.87"/>
</g>
<!-- Node15 -->
<g id="node15" class="node">
<title>Node15</title>
<g id="a_node15"><a xlink:href="Terme__Boussinesq__VDF__Face_8cpp.html" target="_top" xlink:title=" ">
<polygon fill="white" stroke="black" points="1408.5,-162 1408.5,-192 1558.5,-192 1558.5,-162 1408.5,-162"/>
<text text-anchor="start" x="1416.5" y="-180" font-family="Helvetica,sans-Serif" font-size="10.00">src/VDF/Sources/Terme</text>
<text text-anchor="middle" x="1483.5" y="-169" font-family="Helvetica,sans-Serif" font-size="10.00">_Boussinesq_VDF_Face.cpp</text>
</a>
</g>
</g>
<!-- Node2&#45;&gt;Node15 -->
<g id="edge15" class="edge">
<title>Node2&#45;&gt;Node15</title>
<path fill="none" stroke="midnightblue" d="M1066.63,-234.08C1215.3,-211.46 1255.95,-222.75 1399.5,-198 1409.1,-196.34 1419.24,-194.24 1429.03,-192.02"/>
<polygon fill="midnightblue" stroke="midnightblue" points="1066.02,-230.63 1056.68,-235.62 1067.1,-237.54 1066.02,-230.63"/>
</g>
<!-- Node16 -->
<g id="node16" class="node">
<title>Node16</title>
<g id="a_node16"><a xlink:href="Champ__front__contact__VEF_8cpp.html" target="_top" xlink:title=" ">
<polygon fill="white" stroke="black" points="1577,-162 1577,-192 1710,-192 1710,-162 1577,-162"/>
<text text-anchor="start" x="1585" y="-180" font-family="Helvetica,sans-Serif" font-size="10.00">src/VEF/Champs/Champ</text>
<text text-anchor="middle" x="1643.5" y="-169" font-family="Helvetica,sans-Serif" font-size="10.00">_front_contact_VEF.cpp</text>
</a>
</g>
</g>
<!-- Node2&#45;&gt;Node16 -->
<g id="edge16" class="edge">
<title>Node2&#45;&gt;Node16</title>
<path fill="none" stroke="midnightblue" d="M1066.7,-234.1C1289.41,-204.29 1350.5,-234.03 1567.5,-198 1576.65,-196.48 1586.3,-194.36 1595.55,-192.06"/>
<polygon fill="midnightblue" stroke="midnightblue" points="1066.09,-230.65 1056.66,-235.47 1067.04,-237.58 1066.09,-230.65"/>
</g>
<!-- Node17 -->
<g id="node17" class="node">
<title>Node17</title>
<g id="a_node17"><a xlink:href="Terme__Source__Constituant__VEF__Face_8cpp.html" target="_top" xlink:title=" ">
<polygon fill="white" stroke="black" points="1728.5,-156.5 1728.5,-197.5 1868.5,-197.5 1868.5,-156.5 1728.5,-156.5"/>
<text text-anchor="start" x="1736.5" y="-185.5" font-family="Helvetica,sans-Serif" font-size="10.00">src/VEF/Sources/Terme</text>
<text text-anchor="start" x="1736.5" y="-174.5" font-family="Helvetica,sans-Serif" font-size="10.00">_Source_Constituant_VEF</text>
<text text-anchor="middle" x="1798.5" y="-163.5" font-family="Helvetica,sans-Serif" font-size="10.00">_Face.cpp</text>
</a>
</g>
</g>
<!-- Node2&#45;&gt;Node17 -->
<g id="edge17" class="edge">
<title>Node2&#45;&gt;Node17</title>
<path fill="none" stroke="midnightblue" d="M1066.61,-234.12C1356.51,-197.56 1435.39,-241.38 1719.5,-198 1722.44,-197.55 1725.42,-197.04 1728.43,-196.48"/>
<polygon fill="midnightblue" stroke="midnightblue" points="1066.12,-230.65 1056.65,-235.4 1067.01,-237.6 1066.12,-230.65"/>
</g>
<!-- Node8 -->
<g id="node8" class="node">
<title>Node8</title>
<g id="a_node8"><a xlink:href="Pb__Hydraulique__Concentration_8cpp.html" target="_top" xlink:title=" ">
<polygon fill="white" stroke="black" points="628,-78.5 628,-119.5 773,-119.5 773,-78.5 628,-78.5"/>
<text text-anchor="start" x="636" y="-107.5" font-family="Helvetica,sans-Serif" font-size="10.00">src/ThHyd/Incompressible</text>
<text text-anchor="start" x="636" y="-96.5" font-family="Helvetica,sans-Serif" font-size="10.00">/Problems/Pb_Hydraulique</text>
<text text-anchor="middle" x="700.5" y="-85.5" font-family="Helvetica,sans-Serif" font-size="10.00">_Concentration.cpp</text>
</a>
</g>
</g>
<!-- Node7&#45;&gt;Node8 -->
<g id="edge7" class="edge">
<title>Node7&#45;&gt;Node8</title>
<path fill="none" stroke="midnightblue" d="M758.14,-149.78C746.63,-139.84 733.75,-128.72 723.09,-119.51"/>
<polygon fill="midnightblue" stroke="midnightblue" points="755.98,-152.54 765.84,-156.43 760.56,-147.24 755.98,-152.54"/>
</g>
<!-- Node9 -->
<g id="node9" class="node">
<title>Node9</title>
<g id="a_node9"><a xlink:href="Problemes__Scalaires__Passifs_8h.html" target="_top" xlink:title=" ">
<polygon fill="white" stroke="black" points="791.5,-78.5 791.5,-119.5 961.5,-119.5 961.5,-78.5 791.5,-78.5"/>
<text text-anchor="start" x="799.5" y="-107.5" font-family="Helvetica,sans-Serif" font-size="10.00">src/ThHyd/Incompressible</text>
<text text-anchor="start" x="799.5" y="-96.5" font-family="Helvetica,sans-Serif" font-size="10.00">/Problems/Problemes_Scalaires</text>
<text text-anchor="middle" x="876.5" y="-85.5" font-family="Helvetica,sans-Serif" font-size="10.00">_Passifs.h</text>
</a>
</g>
</g>
<!-- Node7&#45;&gt;Node9 -->
<g id="edge8" class="edge">
<title>Node7&#45;&gt;Node9</title>
<path fill="none" stroke="midnightblue" d="M818.86,-149.78C830.37,-139.84 843.25,-128.72 853.91,-119.51"/>
<polygon fill="midnightblue" stroke="midnightblue" points="816.44,-147.24 811.16,-156.43 821.02,-152.54 816.44,-147.24"/>
</g>
<!-- Node10 -->
<g id="node10" class="node">
<title>Node10</title>
<g id="a_node10"><a xlink:href="Problemes__Scalaires__Passifs_8cpp.html" target="_top" xlink:title=" ">
<polygon fill="white" stroke="black" points="791.5,-0.5 791.5,-41.5 961.5,-41.5 961.5,-0.5 791.5,-0.5"/>
<text text-anchor="start" x="799.5" y="-29.5" font-family="Helvetica,sans-Serif" font-size="10.00">src/ThHyd/Incompressible</text>
<text text-anchor="start" x="799.5" y="-18.5" font-family="Helvetica,sans-Serif" font-size="10.00">/Problems/Problemes_Scalaires</text>
<text text-anchor="middle" x="876.5" y="-7.5" font-family="Helvetica,sans-Serif" font-size="10.00">_Passifs.cpp</text>
</a>
</g>
</g>
<!-- Node9&#45;&gt;Node10 -->
<g id="edge9" class="edge">
<title>Node9&#45;&gt;Node10</title>
<path fill="none" stroke="midnightblue" d="M876.5,-68.3C876.5,-59.3 876.5,-49.65 876.5,-41.51"/>
<polygon fill="midnightblue" stroke="midnightblue" points="873,-68.43 876.5,-78.43 880,-68.43 873,-68.43"/>
</g>
<!-- Node11&#45;&gt;Node9 -->
<g id="edge12" class="edge">
<title>Node11&#45;&gt;Node9</title>
<path fill="none" stroke="midnightblue" d="M937.76,-150.06C925.52,-140.06 911.75,-128.8 900.37,-119.51"/>
<polygon fill="midnightblue" stroke="midnightblue" points="935.59,-152.81 945.55,-156.43 940.02,-147.39 935.59,-152.81"/>
</g>
<!-- Node12 -->
<g id="node12" class="node">
<title>Node12</title>
<g id="a_node12"><a xlink:href="Pb__Thermohydraulique__Concentration_8cpp.html" target="_top" xlink:title=" ">
<polygon fill="white" stroke="black" points="980,-78.5 980,-119.5 1161,-119.5 1161,-78.5 980,-78.5"/>
<text text-anchor="start" x="988" y="-107.5" font-family="Helvetica,sans-Serif" font-size="10.00">src/ThHyd/Incompressible</text>
<text text-anchor="start" x="988" y="-96.5" font-family="Helvetica,sans-Serif" font-size="10.00">/Problems/Pb_Thermohydraulique</text>
<text text-anchor="middle" x="1070.5" y="-85.5" font-family="Helvetica,sans-Serif" font-size="10.00">_Concentration.cpp</text>
</a>
</g>
</g>
<!-- Node11&#45;&gt;Node12 -->
<g id="edge11" class="edge">
<title>Node11&#45;&gt;Node12</title>
<path fill="none" stroke="midnightblue" d="M1003.59,-150.35C1016.98,-140.27 1032.1,-128.89 1044.58,-119.51"/>
<polygon fill="midnightblue" stroke="midnightblue" points="1001.4,-147.62 995.51,-156.43 1005.6,-153.21 1001.4,-147.62"/>
</g>
</g>
</svg>
