<?xml version="1.0" encoding="UTF-8" standalone="no"?>
<!DOCTYPE svg PUBLIC "-//W3C//DTD SVG 1.1//EN"
 "http://www.w3.org/Graphics/SVG/1.1/DTD/svg11.dtd">
<!-- Generated by graphviz version 2.43.0 (0)
 -->
<!-- Title: src/P1NCP1B/Zones/Ref_Zone_VEF_PreP1b.h Pages: 1 -->
<svg width="2485pt" height="340pt"
 viewBox="0.00 0.00 2484.50 340.00" xmlns="http://www.w3.org/2000/svg" xmlns:xlink="http://www.w3.org/1999/xlink">
<g id="graph0" class="graph" transform="scale(1 1) rotate(0) translate(4 336)">
<title>src/P1NCP1B/Zones/Ref_Zone_VEF_PreP1b.h</title>
<polygon fill="white" stroke="transparent" points="-4,4 -4,-336 2480.5,-336 2480.5,4 -4,4"/>
<!-- Node1 -->
<g id="node1" class="node">
<title>Node1</title>
<g id="a_node1"><a xlink:title=" ">
<polygon fill="#bfbfbf" stroke="black" points="1815.5,-301.5 1815.5,-331.5 1946.5,-331.5 1946.5,-301.5 1815.5,-301.5"/>
<text text-anchor="start" x="1823.5" y="-319.5" font-family="Helvetica,sans-Serif" font-size="10.00">src/P1NCP1B/Zones/Ref</text>
<text text-anchor="middle" x="1881" y="-308.5" font-family="Helvetica,sans-Serif" font-size="10.00">_Zone_VEF_PreP1b.h</text>
</a>
</g>
</g>
<!-- Node2 -->
<g id="node2" class="node">
<title>Node2</title>
<g id="a_node2"><a xlink:href="Champ__Fonc__P1__isoP1Bulle_8h.html" target="_top" xlink:title=" ">
<polygon fill="white" stroke="black" points="196,-229 196,-259 360,-259 360,-229 196,-229"/>
<text text-anchor="start" x="204" y="-247" font-family="Helvetica,sans-Serif" font-size="10.00">src/P1NCP1B/Champs</text>
<text text-anchor="middle" x="278" y="-236" font-family="Helvetica,sans-Serif" font-size="10.00">/Champ_Fonc_P1_isoP1Bulle.h</text>
</a>
</g>
</g>
<!-- Node1&#45;&gt;Node2 -->
<g id="edge1" class="edge">
<title>Node1&#45;&gt;Node2</title>
<path fill="none" stroke="midnightblue" d="M1805.42,-312.18C1538.03,-300.42 637.92,-260.83 360.26,-248.62"/>
<polygon fill="midnightblue" stroke="midnightblue" points="1805.28,-315.67 1815.42,-312.62 1805.59,-308.68 1805.28,-315.67"/>
</g>
<!-- Node6 -->
<g id="node6" class="node">
<title>Node6</title>
<g id="a_node6"><a xlink:href="Champ__P1__isoP1Bulle_8h.html" target="_top" xlink:title=" ">
<polygon fill="white" stroke="black" points="1039.5,-229 1039.5,-259 1176.5,-259 1176.5,-229 1039.5,-229"/>
<text text-anchor="start" x="1047.5" y="-247" font-family="Helvetica,sans-Serif" font-size="10.00">src/P1NCP1B/Champs</text>
<text text-anchor="middle" x="1108" y="-236" font-family="Helvetica,sans-Serif" font-size="10.00">/Champ_P1_isoP1Bulle.h</text>
</a>
</g>
</g>
<!-- Node1&#45;&gt;Node6 -->
<g id="edge5" class="edge">
<title>Node1&#45;&gt;Node6</title>
<path fill="none" stroke="midnightblue" d="M1805.36,-308.6C1655.06,-294.89 1320.9,-264.42 1176.57,-251.25"/>
<polygon fill="midnightblue" stroke="midnightblue" points="1805.15,-312.1 1815.43,-309.52 1805.79,-305.13 1805.15,-312.1"/>
</g>
<!-- Node21 -->
<g id="node21" class="node">
<title>Node21</title>
<g id="a_node21"><a xlink:href="Op__Diff__P1NC__barprim_8h.html" target="_top" xlink:title=" ">
<polygon fill="white" stroke="black" points="1726,-229 1726,-259 1866,-259 1866,-229 1726,-229"/>
<text text-anchor="start" x="1734" y="-247" font-family="Helvetica,sans-Serif" font-size="10.00">src/P1NCP1B/Operateurs</text>
<text text-anchor="middle" x="1796" y="-236" font-family="Helvetica,sans-Serif" font-size="10.00">/Op_Diff_P1NC_barprim.h</text>
</a>
</g>
</g>
<!-- Node1&#45;&gt;Node21 -->
<g id="edge21" class="edge">
<title>Node1&#45;&gt;Node21</title>
<path fill="none" stroke="midnightblue" d="M1856.03,-294.79C1842.14,-283.27 1825.22,-269.23 1812.89,-259"/>
<polygon fill="midnightblue" stroke="midnightblue" points="1853.87,-297.54 1863.8,-301.23 1858.34,-292.16 1853.87,-297.54"/>
</g>
<!-- Node23 -->
<g id="node23" class="node">
<title>Node23</title>
<g id="a_node23"><a xlink:href="Op__Dift__VEF__P1NCP1B__Face_8h.html" target="_top" xlink:title=" ">
<polygon fill="white" stroke="black" points="1884,-229 1884,-259 2050,-259 2050,-229 1884,-229"/>
<text text-anchor="start" x="1892" y="-247" font-family="Helvetica,sans-Serif" font-size="10.00">src/P1NCP1B/Operateurs</text>
<text text-anchor="middle" x="1967" y="-236" font-family="Helvetica,sans-Serif" font-size="10.00">/Op_Dift_VEF_P1NCP1B_Face.h</text>
</a>
</g>
</g>
<!-- Node1&#45;&gt;Node23 -->
<g id="edge23" class="edge">
<title>Node1&#45;&gt;Node23</title>
<path fill="none" stroke="midnightblue" d="M1906.27,-294.79C1920.32,-283.27 1937.44,-269.23 1949.92,-259"/>
<polygon fill="midnightblue" stroke="midnightblue" points="1903.92,-292.19 1898.4,-301.23 1908.36,-297.6 1903.92,-292.19"/>
</g>
<!-- Node25 -->
<g id="node25" class="node">
<title>Node25</title>
<g id="a_node25"><a xlink:href="Ref__Zone__VEF__PreP1b_8cpp.html" target="_top" xlink:title=" ">
<polygon fill="white" stroke="black" points="2068.5,-229 2068.5,-259 2199.5,-259 2199.5,-229 2068.5,-229"/>
<text text-anchor="start" x="2076.5" y="-247" font-family="Helvetica,sans-Serif" font-size="10.00">src/P1NCP1B/Zones/Ref</text>
<text text-anchor="middle" x="2134" y="-236" font-family="Helvetica,sans-Serif" font-size="10.00">_Zone_VEF_PreP1b.cpp</text>
</a>
</g>
</g>
<!-- Node1&#45;&gt;Node25 -->
<g id="edge25" class="edge">
<title>Node1&#45;&gt;Node25</title>
<path fill="none" stroke="midnightblue" d="M1941.14,-298.74C1984.5,-286.66 2042.37,-270.53 2083.38,-259.11"/>
<polygon fill="midnightblue" stroke="midnightblue" points="1939.98,-295.43 1931.29,-301.49 1941.86,-302.17 1939.98,-295.43"/>
</g>
<!-- Node26 -->
<g id="node26" class="node">
<title>Node26</title>
<g id="a_node26"><a xlink:href="Terme__Source__Acceleration__VEF__Face_8h.html" target="_top" xlink:title=" ">
<polygon fill="white" stroke="black" points="2217.5,-223.5 2217.5,-264.5 2344.5,-264.5 2344.5,-223.5 2217.5,-223.5"/>
<text text-anchor="start" x="2225.5" y="-252.5" font-family="Helvetica,sans-Serif" font-size="10.00">src/VEF/Sources/Terme</text>
<text text-anchor="start" x="2225.5" y="-241.5" font-family="Helvetica,sans-Serif" font-size="10.00">_Source_Acceleration</text>
<text text-anchor="middle" x="2281" y="-230.5" font-family="Helvetica,sans-Serif" font-size="10.00">_VEF_Face.h</text>
</a>
</g>
</g>
<!-- Node1&#45;&gt;Node26 -->
<g id="edge26" class="edge">
<title>Node1&#45;&gt;Node26</title>
<path fill="none" stroke="midnightblue" d="M1956.78,-306.42C2023.56,-297.8 2123.28,-283.44 2209,-265 2211.79,-264.4 2214.63,-263.76 2217.5,-263.08"/>
<polygon fill="midnightblue" stroke="midnightblue" points="1956.24,-302.96 1946.76,-307.7 1957.12,-309.9 1956.24,-302.96"/>
</g>
<!-- Node3 -->
<g id="node3" class="node">
<title>Node3</title>
<g id="a_node3"><a xlink:href="Champ__Fonc__P1__isoP1Bulle_8cpp.html" target="_top" xlink:title=" ">
<polygon fill="white" stroke="black" points="0,-151 0,-181 176,-181 176,-151 0,-151"/>
<text text-anchor="start" x="8" y="-169" font-family="Helvetica,sans-Serif" font-size="10.00">src/P1NCP1B/Champs</text>
<text text-anchor="middle" x="88" y="-158" font-family="Helvetica,sans-Serif" font-size="10.00">/Champ_Fonc_P1_isoP1Bulle.cpp</text>
</a>
</g>
</g>
<!-- Node2&#45;&gt;Node3 -->
<g id="edge2" class="edge">
<title>Node2&#45;&gt;Node3</title>
<path fill="none" stroke="midnightblue" d="M233.12,-225.05C199.48,-211.59 154.11,-193.44 123.1,-181.04"/>
<polygon fill="midnightblue" stroke="midnightblue" points="232.12,-228.42 242.71,-228.88 234.72,-221.92 232.12,-228.42"/>
</g>
<!-- Node4 -->
<g id="node4" class="node">
<title>Node4</title>
<g id="a_node4"><a xlink:href="Traitement__particulier__NS__Pression__VEF_8h.html" target="_top" xlink:title=" ">
<polygon fill="white" stroke="black" points="194,-151 194,-181 362,-181 362,-151 194,-151"/>
<text text-anchor="start" x="202" y="-169" font-family="Helvetica,sans-Serif" font-size="10.00">src/P1NCP1B/Traitement</text>
<text text-anchor="middle" x="278" y="-158" font-family="Helvetica,sans-Serif" font-size="10.00">_particulier_NS_Pression_VEF.h</text>
</a>
</g>
</g>
<!-- Node2&#45;&gt;Node4 -->
<g id="edge3" class="edge">
<title>Node2&#45;&gt;Node4</title>
<path fill="none" stroke="midnightblue" d="M278,-218.59C278,-206.26 278,-191.72 278,-181.23"/>
<polygon fill="midnightblue" stroke="midnightblue" points="274.5,-218.7 278,-228.7 281.5,-218.71 274.5,-218.7"/>
</g>
<!-- Node5 -->
<g id="node5" class="node">
<title>Node5</title>
<g id="a_node5"><a xlink:href="Traitement__particulier__NS__Pression__VEF_8cpp.html" target="_top" xlink:title=" ">
<polygon fill="white" stroke="black" points="209.5,-67.5 209.5,-108.5 346.5,-108.5 346.5,-67.5 209.5,-67.5"/>
<text text-anchor="start" x="217.5" y="-96.5" font-family="Helvetica,sans-Serif" font-size="10.00">src/P1NCP1B/Traitement</text>
<text text-anchor="start" x="217.5" y="-85.5" font-family="Helvetica,sans-Serif" font-size="10.00">_particulier_NS_Pression</text>
<text text-anchor="middle" x="278" y="-74.5" font-family="Helvetica,sans-Serif" font-size="10.00">_VEF.cpp</text>
</a>
</g>
</g>
<!-- Node4&#45;&gt;Node5 -->
<g id="edge4" class="edge">
<title>Node4&#45;&gt;Node5</title>
<path fill="none" stroke="midnightblue" d="M278,-140.66C278,-130.33 278,-118.44 278,-108.68"/>
<polygon fill="midnightblue" stroke="midnightblue" points="274.5,-140.7 278,-150.7 281.5,-140.71 274.5,-140.7"/>
</g>
<!-- Node6&#45;&gt;Node4 -->
<g id="edge19" class="edge">
<title>Node6&#45;&gt;Node4</title>
<path fill="none" stroke="midnightblue" d="M1029.06,-240.52C893.76,-235.5 609.1,-221.49 371,-187 360.05,-185.41 348.46,-183.29 337.32,-181.01"/>
<polygon fill="midnightblue" stroke="midnightblue" points="1029.21,-244.03 1039.33,-240.9 1029.46,-237.04 1029.21,-244.03"/>
</g>
<!-- Node7 -->
<g id="node7" class="node">
<title>Node7</title>
<g id="a_node7"><a xlink:href="Champ__P1__isoP1Bulle_8cpp.html" target="_top" xlink:title=" ">
<polygon fill="white" stroke="black" points="380,-151 380,-181 528,-181 528,-151 380,-151"/>
<text text-anchor="start" x="388" y="-169" font-family="Helvetica,sans-Serif" font-size="10.00">src/P1NCP1B/Champs</text>
<text text-anchor="middle" x="454" y="-158" font-family="Helvetica,sans-Serif" font-size="10.00">/Champ_P1_isoP1Bulle.cpp</text>
</a>
</g>
</g>
<!-- Node6&#45;&gt;Node7 -->
<g id="edge6" class="edge">
<title>Node6&#45;&gt;Node7</title>
<path fill="none" stroke="midnightblue" d="M1029.41,-238.75C918.9,-231.99 711.54,-216.44 537,-187 527.35,-185.37 517.16,-183.26 507.35,-181.01"/>
<polygon fill="midnightblue" stroke="midnightblue" points="1029.28,-242.25 1039.48,-239.36 1029.71,-235.26 1029.28,-242.25"/>
</g>
<!-- Node8 -->
<g id="node8" class="node">
<title>Node8</title>
<g id="a_node8"><a xlink:href="Ref__Champ__P1__isoP1Bulle_8cpp.html" target="_top" xlink:title=" ">
<polygon fill="white" stroke="black" points="546,-151 546,-181 716,-181 716,-151 546,-151"/>
<text text-anchor="start" x="554" y="-169" font-family="Helvetica,sans-Serif" font-size="10.00">src/P1NCP1B/Champs</text>
<text text-anchor="middle" x="631" y="-158" font-family="Helvetica,sans-Serif" font-size="10.00">/Ref_Champ_P1_isoP1Bulle.cpp</text>
</a>
</g>
</g>
<!-- Node6&#45;&gt;Node8 -->
<g id="edge7" class="edge">
<title>Node6&#45;&gt;Node8</title>
<path fill="none" stroke="midnightblue" d="M1029.11,-232.98C951.5,-222.76 829.77,-205.78 725,-187 714.98,-185.2 704.4,-183.13 694.09,-181.01"/>
<polygon fill="midnightblue" stroke="midnightblue" points="1028.92,-236.48 1039.29,-234.31 1029.83,-229.54 1028.92,-236.48"/>
</g>
<!-- Node9 -->
<g id="node9" class="node">
<title>Node9</title>
<g id="a_node9"><a xlink:href="Sortie__libre__Gradient__Pression__impose__VEFPreP1B_8cpp.html" target="_top" xlink:title=" ">
<polygon fill="white" stroke="black" points="734.5,-145.5 734.5,-186.5 917.5,-186.5 917.5,-145.5 734.5,-145.5"/>
<text text-anchor="start" x="742.5" y="-174.5" font-family="Helvetica,sans-Serif" font-size="10.00">src/P1NCP1B/Cond_Lim</text>
<text text-anchor="start" x="742.5" y="-163.5" font-family="Helvetica,sans-Serif" font-size="10.00">/Sortie_libre_Gradient</text>
<text text-anchor="middle" x="826" y="-152.5" font-family="Helvetica,sans-Serif" font-size="10.00">_Pression_impose_VEFPreP1B.cpp</text>
</a>
</g>
</g>
<!-- Node6&#45;&gt;Node9 -->
<g id="edge8" class="edge">
<title>Node6&#45;&gt;Node9</title>
<path fill="none" stroke="midnightblue" d="M1046.06,-226.31C1002.53,-214.58 944.16,-198.84 898.47,-186.53"/>
<polygon fill="midnightblue" stroke="midnightblue" points="1045.38,-229.75 1055.95,-228.97 1047.2,-222.99 1045.38,-229.75"/>
</g>
<!-- Node10 -->
<g id="node10" class="node">
<title>Node10</title>
<g id="a_node10"><a xlink:href="Sortie__libre__Gradient__Pression__libre__VEFPreP1B_8cpp.html" target="_top" xlink:title=" ">
<polygon fill="white" stroke="black" points="935.5,-145.5 935.5,-186.5 1104.5,-186.5 1104.5,-145.5 935.5,-145.5"/>
<text text-anchor="start" x="943.5" y="-174.5" font-family="Helvetica,sans-Serif" font-size="10.00">src/P1NCP1B/Cond_Lim</text>
<text text-anchor="start" x="943.5" y="-163.5" font-family="Helvetica,sans-Serif" font-size="10.00">/Sortie_libre_Gradient</text>
<text text-anchor="middle" x="1020" y="-152.5" font-family="Helvetica,sans-Serif" font-size="10.00">_Pression_libre_VEFPreP1B.cpp</text>
</a>
</g>
</g>
<!-- Node6&#45;&gt;Node10 -->
<g id="edge9" class="edge">
<title>Node6&#45;&gt;Node10</title>
<path fill="none" stroke="midnightblue" d="M1083.52,-221.86C1070.77,-210.85 1055.28,-197.47 1042.79,-186.68"/>
<polygon fill="midnightblue" stroke="midnightblue" points="1081.59,-224.82 1091.45,-228.7 1086.17,-219.52 1081.59,-224.82"/>
</g>
<!-- Node11 -->
<g id="node11" class="node">
<title>Node11</title>
<g id="a_node11"><a xlink:href="Op__Grad__VEF__P1B__Face_8h.html" target="_top" xlink:title=" ">
<polygon fill="white" stroke="black" points="1123,-151 1123,-181 1269,-181 1269,-151 1123,-151"/>
<text text-anchor="start" x="1131" y="-169" font-family="Helvetica,sans-Serif" font-size="10.00">src/P1NCP1B/Operateurs</text>
<text text-anchor="middle" x="1196" y="-158" font-family="Helvetica,sans-Serif" font-size="10.00">/Op_Grad_VEF_P1B_Face.h</text>
</a>
</g>
</g>
<!-- Node6&#45;&gt;Node11 -->
<g id="edge10" class="edge">
<title>Node6&#45;&gt;Node11</title>
<path fill="none" stroke="midnightblue" d="M1132.44,-221.89C1147.45,-208.93 1166.27,-192.68 1179.52,-181.23"/>
<polygon fill="midnightblue" stroke="midnightblue" points="1129.83,-219.52 1124.55,-228.7 1134.41,-224.82 1129.83,-219.52"/>
</g>
<!-- Node15 -->
<g id="node15" class="node">
<title>Node15</title>
<g id="a_node15"><a xlink:href="Op__Rot__VEFP1B_8h.html" target="_top" xlink:title=" ">
<polygon fill="white" stroke="black" points="1287,-151 1287,-181 1423,-181 1423,-151 1287,-151"/>
<text text-anchor="start" x="1295" y="-169" font-family="Helvetica,sans-Serif" font-size="10.00">src/P1NCP1B/Operateurs</text>
<text text-anchor="middle" x="1355" y="-158" font-family="Helvetica,sans-Serif" font-size="10.00">/Op_Rot_VEFP1B.h</text>
</a>
</g>
</g>
<!-- Node6&#45;&gt;Node15 -->
<g id="edge14" class="edge">
<title>Node6&#45;&gt;Node15</title>
<path fill="none" stroke="midnightblue" d="M1163.26,-226C1207.22,-212.47 1268,-193.77 1309.26,-181.07"/>
<polygon fill="midnightblue" stroke="midnightblue" points="1162.12,-222.69 1153.59,-228.97 1164.18,-229.38 1162.12,-222.69"/>
</g>
<!-- Node19 -->
<g id="node19" class="node">
<title>Node19</title>
<g id="a_node19"><a xlink:href="SolveurPP1B_8cpp.html" target="_top" xlink:title=" ">
<polygon fill="white" stroke="black" points="1441,-151 1441,-181 1565,-181 1565,-151 1441,-151"/>
<text text-anchor="start" x="1449" y="-169" font-family="Helvetica,sans-Serif" font-size="10.00">src/P1NCP1B/Solveurs</text>
<text text-anchor="middle" x="1503" y="-158" font-family="Helvetica,sans-Serif" font-size="10.00">/SolveurPP1B.cpp</text>
</a>
</g>
</g>
<!-- Node6&#45;&gt;Node19 -->
<g id="edge18" class="edge">
<title>Node6&#45;&gt;Node19</title>
<path fill="none" stroke="midnightblue" d="M1186.57,-231.75C1252.47,-221.76 1348.86,-205.84 1432,-187 1439.74,-185.25 1447.9,-183.17 1455.82,-181.03"/>
<polygon fill="midnightblue" stroke="midnightblue" points="1186.04,-228.29 1176.67,-233.24 1187.08,-235.21 1186.04,-228.29"/>
</g>
<!-- Node20 -->
<g id="node20" class="node">
<title>Node20</title>
<g id="a_node20"><a xlink:href="VEFPreP1B_8cpp.html" target="_top" xlink:title=" ">
<polygon fill="white" stroke="black" points="1583.5,-151 1583.5,-181 1732.5,-181 1732.5,-151 1583.5,-151"/>
<text text-anchor="start" x="1591.5" y="-169" font-family="Helvetica,sans-Serif" font-size="10.00">src/P1NCP1B/Zones/VEFPre</text>
<text text-anchor="middle" x="1658" y="-158" font-family="Helvetica,sans-Serif" font-size="10.00">P1B.cpp</text>
</a>
</g>
</g>
<!-- Node6&#45;&gt;Node20 -->
<g id="edge20" class="edge">
<title>Node6&#45;&gt;Node20</title>
<path fill="none" stroke="midnightblue" d="M1186.84,-236.29C1279.84,-227.74 1438.89,-211.12 1574,-187 1583.44,-185.31 1593.42,-183.22 1603.06,-181.03"/>
<polygon fill="midnightblue" stroke="midnightblue" points="1186.31,-232.83 1176.67,-237.22 1186.94,-239.8 1186.31,-232.83"/>
</g>
<!-- Node12 -->
<g id="node12" class="node">
<title>Node12</title>
<g id="a_node12"><a xlink:href="Op__Grad__VEF__P1B__Face_8cpp.html" target="_top" xlink:title=" ">
<polygon fill="white" stroke="black" points="778.5,-73 778.5,-103 935.5,-103 935.5,-73 778.5,-73"/>
<text text-anchor="start" x="786.5" y="-91" font-family="Helvetica,sans-Serif" font-size="10.00">src/P1NCP1B/Operateurs</text>
<text text-anchor="middle" x="857" y="-80" font-family="Helvetica,sans-Serif" font-size="10.00">/Op_Grad_VEF_P1B_Face.cpp</text>
</a>
</g>
</g>
<!-- Node11&#45;&gt;Node12 -->
<g id="edge11" class="edge">
<title>Node11&#45;&gt;Node12</title>
<path fill="none" stroke="midnightblue" d="M1128.42,-148.57C1123.21,-147.34 1118.02,-146.14 1113,-145 1038.54,-128.05 1019.57,-125.46 945,-109 936.43,-107.11 927.4,-105.09 918.52,-103.08"/>
<polygon fill="midnightblue" stroke="midnightblue" points="1127.91,-152.04 1138.45,-150.93 1129.52,-145.23 1127.91,-152.04"/>
</g>
<!-- Node13 -->
<g id="node13" class="node">
<title>Node13</title>
<g id="a_node13"><a xlink:href="AssembleurPP1BUtil_8cpp.html" target="_top" xlink:title=" ">
<polygon fill="white" stroke="black" points="954,-73 954,-103 1094,-103 1094,-73 954,-73"/>
<text text-anchor="start" x="962" y="-91" font-family="Helvetica,sans-Serif" font-size="10.00">src/P1NCP1B/Solveurs</text>
<text text-anchor="middle" x="1024" y="-80" font-family="Helvetica,sans-Serif" font-size="10.00">/AssembleurPP1BUtil.cpp</text>
</a>
</g>
</g>
<!-- Node11&#45;&gt;Node13 -->
<g id="edge12" class="edge">
<title>Node11&#45;&gt;Node13</title>
<path fill="none" stroke="midnightblue" d="M1154.58,-146.7C1124.22,-133.28 1083.6,-115.34 1055.78,-103.04"/>
<polygon fill="midnightblue" stroke="midnightblue" points="1153.49,-150.04 1164.05,-150.88 1156.32,-143.64 1153.49,-150.04"/>
</g>
<!-- Node14 -->
<g id="node14" class="node">
<title>Node14</title>
<g id="a_node14"><a xlink:href="Assembleur__P__VEFPreP1B_8cpp.html" target="_top" xlink:title=" ">
<polygon fill="white" stroke="black" points="1112.5,-73 1112.5,-103 1279.5,-103 1279.5,-73 1112.5,-73"/>
<text text-anchor="start" x="1120.5" y="-91" font-family="Helvetica,sans-Serif" font-size="10.00">src/P1NCP1B/Solveurs</text>
<text text-anchor="middle" x="1196" y="-80" font-family="Helvetica,sans-Serif" font-size="10.00">/Assembleur_P_VEFPreP1B.cpp</text>
</a>
</g>
</g>
<!-- Node11&#45;&gt;Node14 -->
<g id="edge13" class="edge">
<title>Node11&#45;&gt;Node14</title>
<path fill="none" stroke="midnightblue" d="M1196,-140.59C1196,-128.26 1196,-113.72 1196,-103.23"/>
<polygon fill="midnightblue" stroke="midnightblue" points="1192.5,-140.7 1196,-150.7 1199.5,-140.71 1192.5,-140.7"/>
</g>
<!-- Node16 -->
<g id="node16" class="node">
<title>Node16</title>
<g id="a_node16"><a xlink:href="Op__Diff__RotRot_8h.html" target="_top" xlink:title=" ">
<polygon fill="white" stroke="black" points="1298,-73 1298,-103 1434,-103 1434,-73 1298,-73"/>
<text text-anchor="start" x="1306" y="-91" font-family="Helvetica,sans-Serif" font-size="10.00">src/P1NCP1B/Operateurs</text>
<text text-anchor="middle" x="1366" y="-80" font-family="Helvetica,sans-Serif" font-size="10.00">/Op_Diff_RotRot.h</text>
</a>
</g>
</g>
<!-- Node15&#45;&gt;Node16 -->
<g id="edge15" class="edge">
<title>Node15&#45;&gt;Node16</title>
<path fill="none" stroke="midnightblue" d="M1358.53,-140.59C1360.32,-128.26 1362.42,-113.72 1363.94,-103.23"/>
<polygon fill="midnightblue" stroke="midnightblue" points="1355.04,-140.31 1357.07,-150.7 1361.97,-141.31 1355.04,-140.31"/>
</g>
<!-- Node18 -->
<g id="node18" class="node">
<title>Node18</title>
<g id="a_node18"><a xlink:href="Op__Rot__VEFP1B_8cpp.html" target="_top" xlink:title=" ">
<polygon fill="white" stroke="black" points="1452,-73 1452,-103 1588,-103 1588,-73 1452,-73"/>
<text text-anchor="start" x="1460" y="-91" font-family="Helvetica,sans-Serif" font-size="10.00">src/P1NCP1B/Operateurs</text>
<text text-anchor="middle" x="1520" y="-80" font-family="Helvetica,sans-Serif" font-size="10.00">/Op_Rot_VEFP1B.cpp</text>
</a>
</g>
</g>
<!-- Node15&#45;&gt;Node18 -->
<g id="edge17" class="edge">
<title>Node15&#45;&gt;Node18</title>
<path fill="none" stroke="midnightblue" d="M1394.73,-146.7C1423.86,-133.28 1462.82,-115.34 1489.52,-103.04"/>
<polygon fill="midnightblue" stroke="midnightblue" points="1393.27,-143.52 1385.65,-150.88 1396.2,-149.88 1393.27,-143.52"/>
</g>
<!-- Node17 -->
<g id="node17" class="node">
<title>Node17</title>
<g id="a_node17"><a xlink:href="Op__Diff__RotRot_8cpp.html" target="_top" xlink:title=" ">
<polygon fill="white" stroke="black" points="1298,-0.5 1298,-30.5 1434,-30.5 1434,-0.5 1298,-0.5"/>
<text text-anchor="start" x="1306" y="-18.5" font-family="Helvetica,sans-Serif" font-size="10.00">src/P1NCP1B/Operateurs</text>
<text text-anchor="middle" x="1366" y="-7.5" font-family="Helvetica,sans-Serif" font-size="10.00">/Op_Diff_RotRot.cpp</text>
</a>
</g>
</g>
<!-- Node16&#45;&gt;Node17 -->
<g id="edge16" class="edge">
<title>Node16&#45;&gt;Node17</title>
<path fill="none" stroke="midnightblue" d="M1366,-62.73C1366,-52.07 1366,-39.91 1366,-30.75"/>
<polygon fill="midnightblue" stroke="midnightblue" points="1362.5,-62.73 1366,-72.73 1369.5,-62.73 1362.5,-62.73"/>
</g>
<!-- Node22 -->
<g id="node22" class="node">
<title>Node22</title>
<g id="a_node22"><a xlink:href="Op__Diff__P1NC__barprim_8cpp.html" target="_top" xlink:title=" ">
<polygon fill="white" stroke="black" points="1750.5,-151 1750.5,-181 1901.5,-181 1901.5,-151 1750.5,-151"/>
<text text-anchor="start" x="1758.5" y="-169" font-family="Helvetica,sans-Serif" font-size="10.00">src/P1NCP1B/Operateurs</text>
<text text-anchor="middle" x="1826" y="-158" font-family="Helvetica,sans-Serif" font-size="10.00">/Op_Diff_P1NC_barprim.cpp</text>
</a>
</g>
</g>
<!-- Node21&#45;&gt;Node22 -->
<g id="edge22" class="edge">
<title>Node21&#45;&gt;Node22</title>
<path fill="none" stroke="midnightblue" d="M1805.34,-219.33C1810.27,-206.85 1816.16,-191.94 1820.38,-181.23"/>
<polygon fill="midnightblue" stroke="midnightblue" points="1802.06,-218.12 1801.64,-228.7 1808.57,-220.69 1802.06,-218.12"/>
</g>
<!-- Node24 -->
<g id="node24" class="node">
<title>Node24</title>
<g id="a_node24"><a xlink:href="Op__Dift__VEF__P1NCP1B__Face_8cpp.html" target="_top" xlink:title=" ">
<polygon fill="white" stroke="black" points="1919.5,-151 1919.5,-181 2096.5,-181 2096.5,-151 1919.5,-151"/>
<text text-anchor="start" x="1927.5" y="-169" font-family="Helvetica,sans-Serif" font-size="10.00">src/P1NCP1B/Operateurs</text>
<text text-anchor="middle" x="2008" y="-158" font-family="Helvetica,sans-Serif" font-size="10.00">/Op_Dift_VEF_P1NCP1B_Face.cpp</text>
</a>
</g>
</g>
<!-- Node23&#45;&gt;Node24 -->
<g id="edge24" class="edge">
<title>Node23&#45;&gt;Node24</title>
<path fill="none" stroke="midnightblue" d="M1979.57,-219.7C1986.34,-207.14 1994.49,-192.04 2000.32,-181.23"/>
<polygon fill="midnightblue" stroke="midnightblue" points="1976.38,-218.24 1974.71,-228.7 1982.54,-221.57 1976.38,-218.24"/>
</g>
<!-- Node27 -->
<g id="node27" class="node">
<title>Node27</title>
<g id="a_node27"><a xlink:href="Source__QC__VEF__P1NC_8h.html" target="_top" xlink:title=" ">
<polygon fill="white" stroke="black" points="2173,-145.5 2173,-186.5 2331,-186.5 2331,-145.5 2173,-145.5"/>
<text text-anchor="start" x="2181" y="-174.5" font-family="Helvetica,sans-Serif" font-size="10.00">src/ThHyd/Dilatable</text>
<text text-anchor="start" x="2181" y="-163.5" font-family="Helvetica,sans-Serif" font-size="10.00">/Quasi_Compressible</text>
<text text-anchor="middle" x="2252" y="-152.5" font-family="Helvetica,sans-Serif" font-size="10.00">/VEF/Source_QC_VEF_P1NC.h</text>
</a>
</g>
</g>
<!-- Node26&#45;&gt;Node27 -->
<g id="edge27" class="edge">
<title>Node26&#45;&gt;Node27</title>
<path fill="none" stroke="midnightblue" d="M2269.89,-213.88C2266.39,-204.72 2262.62,-194.83 2259.44,-186.51"/>
<polygon fill="midnightblue" stroke="midnightblue" points="2266.7,-215.33 2273.53,-223.43 2273.24,-212.84 2266.7,-215.33"/>
</g>
<!-- Node29 -->
<g id="node29" class="node">
<title>Node29</title>
<g id="a_node29"><a xlink:href="Terme__Source__Acceleration__VEF__Face_8cpp.html" target="_top" xlink:title=" ">
<polygon fill="white" stroke="black" points="2349.5,-145.5 2349.5,-186.5 2476.5,-186.5 2476.5,-145.5 2349.5,-145.5"/>
<text text-anchor="start" x="2357.5" y="-174.5" font-family="Helvetica,sans-Serif" font-size="10.00">src/VEF/Sources/Terme</text>
<text text-anchor="start" x="2357.5" y="-163.5" font-family="Helvetica,sans-Serif" font-size="10.00">_Source_Acceleration</text>
<text text-anchor="middle" x="2413" y="-152.5" font-family="Helvetica,sans-Serif" font-size="10.00">_VEF_Face.cpp</text>
</a>
</g>
</g>
<!-- Node26&#45;&gt;Node29 -->
<g id="edge29" class="edge">
<title>Node26&#45;&gt;Node29</title>
<path fill="none" stroke="midnightblue" d="M2324.07,-218.2C2341.93,-207.92 2362.36,-196.16 2379.12,-186.51"/>
<polygon fill="midnightblue" stroke="midnightblue" points="2321.91,-215.41 2314.99,-223.43 2325.41,-221.47 2321.91,-215.41"/>
</g>
<!-- Node28 -->
<g id="node28" class="node">
<title>Node28</title>
<g id="a_node28"><a xlink:href="Source__QC__VEF__P1NC_8cpp.html" target="_top" xlink:title=" ">
<polygon fill="white" stroke="black" points="2167,-67.5 2167,-108.5 2337,-108.5 2337,-67.5 2167,-67.5"/>
<text text-anchor="start" x="2175" y="-96.5" font-family="Helvetica,sans-Serif" font-size="10.00">src/ThHyd/Dilatable</text>
<text text-anchor="start" x="2175" y="-85.5" font-family="Helvetica,sans-Serif" font-size="10.00">/Quasi_Compressible</text>
<text text-anchor="middle" x="2252" y="-74.5" font-family="Helvetica,sans-Serif" font-size="10.00">/VEF/Source_QC_VEF_P1NC.cpp</text>
</a>
</g>
</g>
<!-- Node27&#45;&gt;Node28 -->
<g id="edge28" class="edge">
<title>Node27&#45;&gt;Node28</title>
<path fill="none" stroke="midnightblue" d="M2252,-135.3C2252,-126.3 2252,-116.65 2252,-108.51"/>
<polygon fill="midnightblue" stroke="midnightblue" points="2248.5,-135.43 2252,-145.43 2255.5,-135.43 2248.5,-135.43"/>
</g>
</g>
</svg>
