<?xml version="1.0" encoding="UTF-8" standalone="no"?>
<!DOCTYPE svg PUBLIC "-//W3C//DTD SVG 1.1//EN"
 "http://www.w3.org/Graphics/SVG/1.1/DTD/svg11.dtd">
<!-- Generated by graphviz version 2.43.0 (0)
 -->
<!-- Title: src/P1NCP1B/Zones/Ref_Zone_Cl_VEFP1B.h Pages: 1 -->
<svg width="738pt" height="273pt"
 viewBox="0.00 0.00 738.00 273.00" xmlns="http://www.w3.org/2000/svg" xmlns:xlink="http://www.w3.org/1999/xlink">
<g id="graph0" class="graph" transform="scale(1 1) rotate(0) translate(4 269)">
<title>src/P1NCP1B/Zones/Ref_Zone_Cl_VEFP1B.h</title>
<polygon fill="white" stroke="transparent" points="-4,4 -4,-269 734,-269 734,4 -4,4"/>
<!-- Node1 -->
<g id="node1" class="node">
<title>Node1</title>
<g id="a_node1"><a xlink:title=" ">
<polygon fill="#bfbfbf" stroke="black" points="272,-234.5 272,-264.5 403,-264.5 403,-234.5 272,-234.5"/>
<text text-anchor="start" x="280" y="-252.5" font-family="Helvetica,sans-Serif" font-size="10.00">src/P1NCP1B/Zones/Ref</text>
<text text-anchor="middle" x="337.5" y="-241.5" font-family="Helvetica,sans-Serif" font-size="10.00">_Zone_Cl_VEFP1B.h</text>
</a>
</g>
</g>
<!-- Node2 -->
<g id="node2" class="node">
<title>Node2</title>
<g id="a_node2"><a xlink:href="Op__Diff__P1NC__barprim_8h.html" target="_top" xlink:title=" ">
<polygon fill="white" stroke="black" points="10.5,-162 10.5,-192 150.5,-192 150.5,-162 10.5,-162"/>
<text text-anchor="start" x="18.5" y="-180" font-family="Helvetica,sans-Serif" font-size="10.00">src/P1NCP1B/Operateurs</text>
<text text-anchor="middle" x="80.5" y="-169" font-family="Helvetica,sans-Serif" font-size="10.00">/Op_Diff_P1NC_barprim.h</text>
</a>
</g>
</g>
<!-- Node1&#45;&gt;Node2 -->
<g id="edge1" class="edge">
<title>Node1&#45;&gt;Node2</title>
<path fill="none" stroke="midnightblue" d="M276.69,-231.82C232.61,-219.73 173.66,-203.56 131.93,-192.11"/>
<polygon fill="midnightblue" stroke="midnightblue" points="275.85,-235.22 286.42,-234.49 277.7,-228.47 275.85,-235.22"/>
</g>
<!-- Node4 -->
<g id="node4" class="node">
<title>Node4</title>
<g id="a_node4"><a xlink:href="Op__Dift__VEF__P1NCP1B__Face_8h.html" target="_top" xlink:title=" ">
<polygon fill="white" stroke="black" points="171.5,-162 171.5,-192 337.5,-192 337.5,-162 171.5,-162"/>
<text text-anchor="start" x="179.5" y="-180" font-family="Helvetica,sans-Serif" font-size="10.00">src/P1NCP1B/Operateurs</text>
<text text-anchor="middle" x="254.5" y="-169" font-family="Helvetica,sans-Serif" font-size="10.00">/Op_Dift_VEF_P1NCP1B_Face.h</text>
</a>
</g>
</g>
<!-- Node1&#45;&gt;Node4 -->
<g id="edge3" class="edge">
<title>Node1&#45;&gt;Node4</title>
<path fill="none" stroke="midnightblue" d="M312.73,-227.46C299.24,-216 282.92,-202.14 270.99,-192"/>
<polygon fill="midnightblue" stroke="midnightblue" points="310.82,-230.43 320.7,-234.23 315.35,-225.09 310.82,-230.43"/>
</g>
<!-- Node6 -->
<g id="node6" class="node">
<title>Node6</title>
<g id="a_node6"><a xlink:href="Ref__Zone__Cl__VEFP1B_8cpp.html" target="_top" xlink:title=" ">
<polygon fill="white" stroke="black" points="356,-162 356,-192 487,-192 487,-162 356,-162"/>
<text text-anchor="start" x="364" y="-180" font-family="Helvetica,sans-Serif" font-size="10.00">src/P1NCP1B/Zones/Ref</text>
<text text-anchor="middle" x="421.5" y="-169" font-family="Helvetica,sans-Serif" font-size="10.00">_Zone_Cl_VEFP1B.cpp</text>
</a>
</g>
</g>
<!-- Node1&#45;&gt;Node6 -->
<g id="edge5" class="edge">
<title>Node1&#45;&gt;Node6</title>
<path fill="none" stroke="midnightblue" d="M362.18,-227.79C375.91,-216.27 392.63,-202.23 404.81,-192"/>
<polygon fill="midnightblue" stroke="midnightblue" points="359.91,-225.12 354.5,-234.23 364.41,-230.49 359.91,-225.12"/>
</g>
<!-- Node7 -->
<g id="node7" class="node">
<title>Node7</title>
<g id="a_node7"><a xlink:href="Terme__Source__Acceleration__VEF__Face_8h.html" target="_top" xlink:title=" ">
<polygon fill="white" stroke="black" points="505,-156.5 505,-197.5 632,-197.5 632,-156.5 505,-156.5"/>
<text text-anchor="start" x="513" y="-185.5" font-family="Helvetica,sans-Serif" font-size="10.00">src/VEF/Sources/Terme</text>
<text text-anchor="start" x="513" y="-174.5" font-family="Helvetica,sans-Serif" font-size="10.00">_Source_Acceleration</text>
<text text-anchor="middle" x="568.5" y="-163.5" font-family="Helvetica,sans-Serif" font-size="10.00">_VEF_Face.h</text>
</a>
</g>
</g>
<!-- Node1&#45;&gt;Node7 -->
<g id="edge6" class="edge">
<title>Node1&#45;&gt;Node7</title>
<path fill="none" stroke="midnightblue" d="M393.08,-231.54C426.72,-221.27 469.73,-208.14 504.74,-197.46"/>
<polygon fill="midnightblue" stroke="midnightblue" points="391.96,-228.22 383.41,-234.49 394,-234.92 391.96,-228.22"/>
</g>
<!-- Node3 -->
<g id="node3" class="node">
<title>Node3</title>
<g id="a_node3"><a xlink:href="Op__Diff__P1NC__barprim_8cpp.html" target="_top" xlink:title=" ">
<polygon fill="white" stroke="black" points="0,-84 0,-114 151,-114 151,-84 0,-84"/>
<text text-anchor="start" x="8" y="-102" font-family="Helvetica,sans-Serif" font-size="10.00">src/P1NCP1B/Operateurs</text>
<text text-anchor="middle" x="75.5" y="-91" font-family="Helvetica,sans-Serif" font-size="10.00">/Op_Diff_P1NC_barprim.cpp</text>
</a>
</g>
</g>
<!-- Node2&#45;&gt;Node3 -->
<g id="edge2" class="edge">
<title>Node2&#45;&gt;Node3</title>
<path fill="none" stroke="midnightblue" d="M78.89,-151.59C78.08,-139.26 77.13,-124.72 76.44,-114.23"/>
<polygon fill="midnightblue" stroke="midnightblue" points="75.41,-151.96 79.56,-161.7 82.4,-151.5 75.41,-151.96"/>
</g>
<!-- Node5 -->
<g id="node5" class="node">
<title>Node5</title>
<g id="a_node5"><a xlink:href="Op__Dift__VEF__P1NCP1B__Face_8cpp.html" target="_top" xlink:title=" ">
<polygon fill="white" stroke="black" points="169,-84 169,-114 346,-114 346,-84 169,-84"/>
<text text-anchor="start" x="177" y="-102" font-family="Helvetica,sans-Serif" font-size="10.00">src/P1NCP1B/Operateurs</text>
<text text-anchor="middle" x="257.5" y="-91" font-family="Helvetica,sans-Serif" font-size="10.00">/Op_Dift_VEF_P1NCP1B_Face.cpp</text>
</a>
</g>
</g>
<!-- Node4&#45;&gt;Node5 -->
<g id="edge4" class="edge">
<title>Node4&#45;&gt;Node5</title>
<path fill="none" stroke="midnightblue" d="M255.46,-151.59C255.95,-139.26 256.52,-124.72 256.94,-114.23"/>
<polygon fill="midnightblue" stroke="midnightblue" points="251.96,-151.57 255.06,-161.7 258.96,-151.85 251.96,-151.57"/>
</g>
<!-- Node8 -->
<g id="node8" class="node">
<title>Node8</title>
<g id="a_node8"><a xlink:href="Source__QC__VEF__P1NC_8h.html" target="_top" xlink:title=" ">
<polygon fill="white" stroke="black" points="426.5,-78.5 426.5,-119.5 584.5,-119.5 584.5,-78.5 426.5,-78.5"/>
<text text-anchor="start" x="434.5" y="-107.5" font-family="Helvetica,sans-Serif" font-size="10.00">src/ThHyd/Dilatable</text>
<text text-anchor="start" x="434.5" y="-96.5" font-family="Helvetica,sans-Serif" font-size="10.00">/Quasi_Compressible</text>
<text text-anchor="middle" x="505.5" y="-85.5" font-family="Helvetica,sans-Serif" font-size="10.00">/VEF/Source_QC_VEF_P1NC.h</text>
</a>
</g>
</g>
<!-- Node7&#45;&gt;Node8 -->
<g id="edge7" class="edge">
<title>Node7&#45;&gt;Node8</title>
<path fill="none" stroke="midnightblue" d="M545.81,-148.63C537.82,-138.99 529.01,-128.36 521.67,-119.51"/>
<polygon fill="midnightblue" stroke="midnightblue" points="543.2,-150.96 552.28,-156.43 548.59,-146.5 543.2,-150.96"/>
</g>
<!-- Node10 -->
<g id="node10" class="node">
<title>Node10</title>
<g id="a_node10"><a xlink:href="Terme__Source__Acceleration__VEF__Face_8cpp.html" target="_top" xlink:title=" ">
<polygon fill="white" stroke="black" points="603,-78.5 603,-119.5 730,-119.5 730,-78.5 603,-78.5"/>
<text text-anchor="start" x="611" y="-107.5" font-family="Helvetica,sans-Serif" font-size="10.00">src/VEF/Sources/Terme</text>
<text text-anchor="start" x="611" y="-96.5" font-family="Helvetica,sans-Serif" font-size="10.00">_Source_Acceleration</text>
<text text-anchor="middle" x="666.5" y="-85.5" font-family="Helvetica,sans-Serif" font-size="10.00">_VEF_Face.cpp</text>
</a>
</g>
</g>
<!-- Node7&#45;&gt;Node10 -->
<g id="edge9" class="edge">
<title>Node7&#45;&gt;Node10</title>
<path fill="none" stroke="midnightblue" d="M601.94,-150.06C614.85,-140.06 629.36,-128.8 641.35,-119.51"/>
<polygon fill="midnightblue" stroke="midnightblue" points="599.49,-147.53 593.74,-156.43 603.78,-153.07 599.49,-147.53"/>
</g>
<!-- Node9 -->
<g id="node9" class="node">
<title>Node9</title>
<g id="a_node9"><a xlink:href="Source__QC__VEF__P1NC_8cpp.html" target="_top" xlink:title=" ">
<polygon fill="white" stroke="black" points="420.5,-0.5 420.5,-41.5 590.5,-41.5 590.5,-0.5 420.5,-0.5"/>
<text text-anchor="start" x="428.5" y="-29.5" font-family="Helvetica,sans-Serif" font-size="10.00">src/ThHyd/Dilatable</text>
<text text-anchor="start" x="428.5" y="-18.5" font-family="Helvetica,sans-Serif" font-size="10.00">/Quasi_Compressible</text>
<text text-anchor="middle" x="505.5" y="-7.5" font-family="Helvetica,sans-Serif" font-size="10.00">/VEF/Source_QC_VEF_P1NC.cpp</text>
</a>
</g>
</g>
<!-- Node8&#45;&gt;Node9 -->
<g id="edge8" class="edge">
<title>Node8&#45;&gt;Node9</title>
<path fill="none" stroke="midnightblue" d="M505.5,-68.3C505.5,-59.3 505.5,-49.65 505.5,-41.51"/>
<polygon fill="midnightblue" stroke="midnightblue" points="502,-68.43 505.5,-78.43 509,-68.43 502,-68.43"/>
</g>
</g>
</svg>
