<?xml version="1.0" encoding="UTF-8" standalone="no"?>
<!DOCTYPE svg PUBLIC "-//W3C//DTD SVG 1.1//EN"
 "http://www.w3.org/Graphics/SVG/1.1/DTD/svg11.dtd">
<!-- Generated by graphviz version 2.43.0 (0)
 -->
<!-- Title: src/Kernel/Geometrie/Reordonner_faces_periodiques.h Pages: 1 -->
<svg width="1413pt" height="117pt"
 viewBox="0.00 0.00 1413.00 117.00" xmlns="http://www.w3.org/2000/svg" xmlns:xlink="http://www.w3.org/1999/xlink">
<g id="graph0" class="graph" transform="scale(1 1) rotate(0) translate(4 113)">
<title>src/Kernel/Geometrie/Reordonner_faces_periodiques.h</title>
<polygon fill="white" stroke="transparent" points="-4,4 -4,-113 1409,-113 1409,4 -4,4"/>
<!-- Node1 -->
<g id="node1" class="node">
<title>Node1</title>
<g id="a_node1"><a xlink:title=" ">
<polygon fill="#bfbfbf" stroke="black" points="636,-78.5 636,-108.5 815,-108.5 815,-78.5 636,-78.5"/>
<text text-anchor="start" x="644" y="-96.5" font-family="Helvetica,sans-Serif" font-size="10.00">src/Kernel/Geometrie</text>
<text text-anchor="middle" x="725.5" y="-85.5" font-family="Helvetica,sans-Serif" font-size="10.00">/Reordonner_faces_periodiques.h</text>
</a>
</g>
</g>
<!-- Node2 -->
<g id="node2" class="node">
<title>Node2</title>
<g id="a_node2"><a xlink:href="Corriger__frontiere__periodique_8cpp.html" target="_top" xlink:title=" ">
<polygon fill="white" stroke="black" points="0,-6 0,-36 183,-36 183,-6 0,-6"/>
<text text-anchor="start" x="8" y="-24" font-family="Helvetica,sans-Serif" font-size="10.00">src/Kernel/Geometrie</text>
<text text-anchor="middle" x="91.5" y="-13" font-family="Helvetica,sans-Serif" font-size="10.00">/Corriger_frontiere_periodique.cpp</text>
</a>
</g>
</g>
<!-- Node1&#45;&gt;Node2 -->
<g id="edge1" class="edge">
<title>Node1&#45;&gt;Node2</title>
<path fill="none" stroke="midnightblue" d="M625.68,-86.15C518.13,-78.58 342.12,-64.12 191.5,-42 180.2,-40.34 168.25,-38.25 156.69,-36.04"/>
<polygon fill="midnightblue" stroke="midnightblue" points="625.66,-89.65 635.87,-86.86 626.14,-82.67 625.66,-89.65"/>
</g>
<!-- Node3 -->
<g id="node3" class="node">
<title>Node3</title>
<g id="a_node3"><a xlink:href="Partitionneur__Partition_8cpp.html" target="_top" xlink:title=" ">
<polygon fill="white" stroke="black" points="201,-0.5 201,-41.5 338,-41.5 338,-0.5 201,-0.5"/>
<text text-anchor="start" x="209" y="-29.5" font-family="Helvetica,sans-Serif" font-size="10.00">src/Kernel/Geometrie</text>
<text text-anchor="start" x="209" y="-18.5" font-family="Helvetica,sans-Serif" font-size="10.00">/Decoupeur/Partitionneur</text>
<text text-anchor="middle" x="269.5" y="-7.5" font-family="Helvetica,sans-Serif" font-size="10.00">_Partition.cpp</text>
</a>
</g>
</g>
<!-- Node1&#45;&gt;Node3 -->
<g id="edge2" class="edge">
<title>Node1&#45;&gt;Node3</title>
<path fill="none" stroke="midnightblue" d="M625.65,-82.55C548.91,-74.1 440.48,-60.4 346.5,-42 343.79,-41.47 341.03,-40.9 338.25,-40.3"/>
<polygon fill="midnightblue" stroke="midnightblue" points="625.47,-86.05 635.79,-83.66 626.23,-79.09 625.47,-86.05"/>
</g>
<!-- Node4 -->
<g id="node4" class="node">
<title>Node4</title>
<g id="a_node4"><a xlink:href="Partitionneur__Tranche_8cpp.html" target="_top" xlink:title=" ">
<polygon fill="white" stroke="black" points="356,-0.5 356,-41.5 493,-41.5 493,-0.5 356,-0.5"/>
<text text-anchor="start" x="364" y="-29.5" font-family="Helvetica,sans-Serif" font-size="10.00">src/Kernel/Geometrie</text>
<text text-anchor="start" x="364" y="-18.5" font-family="Helvetica,sans-Serif" font-size="10.00">/Decoupeur/Partitionneur</text>
<text text-anchor="middle" x="424.5" y="-7.5" font-family="Helvetica,sans-Serif" font-size="10.00">_Tranche.cpp</text>
</a>
</g>
</g>
<!-- Node1&#45;&gt;Node4 -->
<g id="edge3" class="edge">
<title>Node1&#45;&gt;Node4</title>
<path fill="none" stroke="midnightblue" d="M650.72,-76.28C607.11,-66.66 551.1,-54.03 501.5,-42 498.82,-41.35 496.08,-40.68 493.32,-39.99"/>
<polygon fill="midnightblue" stroke="midnightblue" points="650.16,-79.74 660.68,-78.47 651.66,-72.9 650.16,-79.74"/>
</g>
<!-- Node5 -->
<g id="node5" class="node">
<title>Node5</title>
<g id="a_node5"><a xlink:href="Partitionneur__base_8cpp.html" target="_top" xlink:title=" ">
<polygon fill="white" stroke="black" points="511,-0.5 511,-41.5 648,-41.5 648,-0.5 511,-0.5"/>
<text text-anchor="start" x="519" y="-29.5" font-family="Helvetica,sans-Serif" font-size="10.00">src/Kernel/Geometrie</text>
<text text-anchor="start" x="519" y="-18.5" font-family="Helvetica,sans-Serif" font-size="10.00">/Decoupeur/Partitionneur</text>
<text text-anchor="middle" x="579.5" y="-7.5" font-family="Helvetica,sans-Serif" font-size="10.00">_base.cpp</text>
</a>
</g>
</g>
<!-- Node1&#45;&gt;Node5 -->
<g id="edge4" class="edge">
<title>Node1&#45;&gt;Node5</title>
<path fill="none" stroke="midnightblue" d="M687.18,-74C666.5,-64.01 640.98,-51.69 619.98,-41.55"/>
<polygon fill="midnightblue" stroke="midnightblue" points="685.78,-77.21 696.31,-78.4 688.82,-70.9 685.78,-77.21"/>
</g>
<!-- Node6 -->
<g id="node6" class="node">
<title>Node6</title>
<g id="a_node6"><a xlink:href="Domaine_8cpp.html" target="_top" xlink:title=" ">
<polygon fill="white" stroke="black" points="666,-6 666,-36 785,-36 785,-6 666,-6"/>
<text text-anchor="start" x="674" y="-24" font-family="Helvetica,sans-Serif" font-size="10.00">src/Kernel/Geometrie</text>
<text text-anchor="middle" x="725.5" y="-13" font-family="Helvetica,sans-Serif" font-size="10.00">/Domaine.cpp</text>
</a>
</g>
</g>
<!-- Node1&#45;&gt;Node6 -->
<g id="edge5" class="edge">
<title>Node1&#45;&gt;Node6</title>
<path fill="none" stroke="midnightblue" d="M725.5,-68.23C725.5,-57.57 725.5,-45.41 725.5,-36.25"/>
<polygon fill="midnightblue" stroke="midnightblue" points="722,-68.23 725.5,-78.23 729,-68.23 722,-68.23"/>
</g>
<!-- Node7 -->
<g id="node7" class="node">
<title>Node7</title>
<g id="a_node7"><a xlink:href="MaillerParallel_8cpp.html" target="_top" xlink:title=" ">
<polygon fill="white" stroke="black" points="803,-6 803,-36 922,-36 922,-6 803,-6"/>
<text text-anchor="start" x="811" y="-24" font-family="Helvetica,sans-Serif" font-size="10.00">src/Kernel/Geometrie</text>
<text text-anchor="middle" x="862.5" y="-13" font-family="Helvetica,sans-Serif" font-size="10.00">/MaillerParallel.cpp</text>
</a>
</g>
</g>
<!-- Node1&#45;&gt;Node7 -->
<g id="edge6" class="edge">
<title>Node1&#45;&gt;Node7</title>
<path fill="none" stroke="midnightblue" d="M762,-73.72C784.99,-61.89 814.16,-46.87 835.15,-36.07"/>
<polygon fill="midnightblue" stroke="midnightblue" points="760.18,-70.71 752.89,-78.4 763.39,-76.94 760.18,-70.71"/>
</g>
<!-- Node8 -->
<g id="node8" class="node">
<title>Node8</title>
<g id="a_node8"><a xlink:href="Periodique_8cpp.html" target="_top" xlink:title=" ">
<polygon fill="white" stroke="black" points="940,-6 940,-36 1059,-36 1059,-6 940,-6"/>
<text text-anchor="start" x="948" y="-24" font-family="Helvetica,sans-Serif" font-size="10.00">src/Kernel/Geometrie</text>
<text text-anchor="middle" x="999.5" y="-13" font-family="Helvetica,sans-Serif" font-size="10.00">/Periodique.cpp</text>
</a>
</g>
</g>
<!-- Node1&#45;&gt;Node8 -->
<g id="edge7" class="edge">
<title>Node1&#45;&gt;Node8</title>
<path fill="none" stroke="midnightblue" d="M795.98,-76.06C835.86,-66.55 886.6,-54.1 931.5,-42 938.39,-40.14 945.65,-38.1 952.76,-36.05"/>
<polygon fill="midnightblue" stroke="midnightblue" points="795,-72.7 786.08,-78.42 796.62,-79.51 795,-72.7"/>
</g>
<!-- Node9 -->
<g id="node9" class="node">
<title>Node9</title>
<g id="a_node9"><a xlink:href="Reordonner__faces__periodiques_8cpp.html" target="_top" xlink:title=" ">
<polygon fill="white" stroke="black" points="1077.5,-6 1077.5,-36 1267.5,-36 1267.5,-6 1077.5,-6"/>
<text text-anchor="start" x="1085.5" y="-24" font-family="Helvetica,sans-Serif" font-size="10.00">src/Kernel/Geometrie</text>
<text text-anchor="middle" x="1172.5" y="-13" font-family="Helvetica,sans-Serif" font-size="10.00">/Reordonner_faces_periodiques.cpp</text>
</a>
</g>
</g>
<!-- Node1&#45;&gt;Node9 -->
<g id="edge8" class="edge">
<title>Node1&#45;&gt;Node9</title>
<path fill="none" stroke="midnightblue" d="M825.15,-79C893.7,-69.43 986.77,-55.87 1068.5,-42 1079.29,-40.17 1090.68,-38.11 1101.81,-36.03"/>
<polygon fill="midnightblue" stroke="midnightblue" points="824.64,-75.54 815.22,-80.39 825.61,-82.47 824.64,-75.54"/>
</g>
<!-- Node10 -->
<g id="node10" class="node">
<title>Node10</title>
<g id="a_node10"><a xlink:href="Scatter_8cpp.html" target="_top" xlink:title=" ">
<polygon fill="white" stroke="black" points="1286,-6 1286,-36 1405,-36 1405,-6 1286,-6"/>
<text text-anchor="start" x="1294" y="-24" font-family="Helvetica,sans-Serif" font-size="10.00">src/Kernel/Geometrie</text>
<text text-anchor="middle" x="1345.5" y="-13" font-family="Helvetica,sans-Serif" font-size="10.00">/Scatter.cpp</text>
</a>
</g>
</g>
<!-- Node1&#45;&gt;Node10 -->
<g id="edge9" class="edge">
<title>Node1&#45;&gt;Node10</title>
<path fill="none" stroke="midnightblue" d="M825.64,-89.06C936.67,-83.92 1120.67,-71.45 1276.5,-42 1284.71,-40.45 1293.35,-38.34 1301.63,-36.07"/>
<polygon fill="midnightblue" stroke="midnightblue" points="825.29,-85.57 815.46,-89.52 825.61,-92.56 825.29,-85.57"/>
</g>
</g>
</svg>
