<?xml version="1.0" encoding="UTF-8" standalone="no"?>
<!DOCTYPE svg PUBLIC "-//W3C//DTD SVG 1.1//EN"
 "http://www.w3.org/Graphics/SVG/1.1/DTD/svg11.dtd">
<!-- Generated by graphviz version 2.43.0 (0)
 -->
<!-- Title: src/Kernel/Framework/Resoudre.cpp Pages: 1 -->
<svg width="855pt" height="666pt"
 viewBox="0.00 0.00 854.50 666.00" xmlns="http://www.w3.org/2000/svg" xmlns:xlink="http://www.w3.org/1999/xlink">
<g id="graph0" class="graph" transform="scale(1 1) rotate(0) translate(4 662)">
<title>src/Kernel/Framework/Resoudre.cpp</title>
<polygon fill="white" stroke="transparent" points="-4,4 -4,-662 850.5,-662 850.5,4 -4,4"/>
<!-- Node1 -->
<g id="node1" class="node">
<title>Node1</title>
<g id="a_node1"><a xlink:title=" ">
<polygon fill="#bfbfbf" stroke="black" points="414,-627.5 414,-657.5 536,-657.5 536,-627.5 414,-627.5"/>
<text text-anchor="start" x="422" y="-645.5" font-family="Helvetica,sans-Serif" font-size="10.00">src/Kernel/Framework</text>
<text text-anchor="middle" x="475" y="-634.5" font-family="Helvetica,sans-Serif" font-size="10.00">/Resoudre.cpp</text>
</a>
</g>
</g>
<!-- Node2 -->
<g id="node2" class="node">
<title>Node2</title>
<g id="a_node2"><a xlink:href="Resoudre_8h.html" target="_top" xlink:title=" ">
<polygon fill="white" stroke="black" points="407.5,-571.5 407.5,-590.5 478.5,-590.5 478.5,-571.5 407.5,-571.5"/>
<text text-anchor="middle" x="443" y="-578.5" font-family="Helvetica,sans-Serif" font-size="10.00">Resoudre.h</text>
</a>
</g>
</g>
<!-- Node1&#45;&gt;Node2 -->
<g id="edge1" class="edge">
<title>Node1&#45;&gt;Node2</title>
<path fill="none" stroke="midnightblue" d="M467.42,-627.4C462.96,-619.11 457.28,-608.55 452.52,-599.71"/>
<polygon fill="midnightblue" stroke="midnightblue" points="455.48,-597.81 447.66,-590.66 449.31,-601.12 455.48,-597.81"/>
</g>
<!-- Node28 -->
<g id="node28" class="node">
<title>Node28</title>
<g id="a_node28"><a xlink:href="Probleme__U_8h.html" target="_top" xlink:title=" ">
<polygon fill="white" stroke="black" points="228.5,-571.5 228.5,-590.5 313.5,-590.5 313.5,-571.5 228.5,-571.5"/>
<text text-anchor="middle" x="271" y="-578.5" font-family="Helvetica,sans-Serif" font-size="10.00">Probleme_U.h</text>
</a>
</g>
</g>
<!-- Node1&#45;&gt;Node28 -->
<g id="edge35" class="edge">
<title>Node1&#45;&gt;Node28</title>
<path fill="none" stroke="midnightblue" d="M426.91,-627.47C391.26,-617.08 343.27,-603.08 309.99,-593.37"/>
<polygon fill="midnightblue" stroke="midnightblue" points="310.74,-589.95 300.16,-590.51 308.78,-596.67 310.74,-589.95"/>
</g>
<!-- Node33 -->
<g id="node33" class="node">
<title>Node33</title>
<g id="a_node33"><a xlink:href="Catch__SIGINIT_8h.html" target="_top" xlink:title=" ">
<polygon fill="white" stroke="black" points="460,-336.5 460,-355.5 554,-355.5 554,-336.5 460,-336.5"/>
<text text-anchor="middle" x="507" y="-343.5" font-family="Helvetica,sans-Serif" font-size="10.00">Catch_SIGINIT.h</text>
</a>
</g>
</g>
<!-- Node1&#45;&gt;Node33 -->
<g id="edge44" class="edge">
<title>Node1&#45;&gt;Node33</title>
<path fill="none" stroke="midnightblue" d="M481.32,-627.29C490.65,-605.01 507,-560.26 507,-520.5 507,-520.5 507,-520.5 507,-457 507,-424.95 507,-387.64 507,-365.75"/>
<polygon fill="midnightblue" stroke="midnightblue" points="510.5,-365.56 507,-355.56 503.5,-365.56 510.5,-365.56"/>
</g>
<!-- Node34 -->
<g id="node34" class="node">
<title>Node34</title>
<g id="a_node34"><a xlink:title=" ">
<polygon fill="white" stroke="#bfbfbf" points="535.5,-571.5 535.5,-590.5 590.5,-590.5 590.5,-571.5 535.5,-571.5"/>
<text text-anchor="middle" x="563" y="-578.5" font-family="Helvetica,sans-Serif" font-size="10.00">signal.h</text>
</a>
</g>
</g>
<!-- Node1&#45;&gt;Node34 -->
<g id="edge47" class="edge">
<title>Node1&#45;&gt;Node34</title>
<path fill="none" stroke="midnightblue" d="M495.85,-627.4C509.7,-618.04 527.81,-605.79 541.74,-596.38"/>
<polygon fill="midnightblue" stroke="midnightblue" points="543.87,-599.16 550.2,-590.66 539.95,-593.36 543.87,-599.16"/>
</g>
<!-- Node3 -->
<g id="node3" class="node">
<title>Node3</title>
<g id="a_node3"><a xlink:href="Interprete_8h.html" target="_top" xlink:title=" ">
<polygon fill="white" stroke="black" points="405,-510 405,-529 479,-529 479,-510 405,-510"/>
<text text-anchor="middle" x="442" y="-517" font-family="Helvetica,sans-Serif" font-size="10.00">Interprete.h</text>
</a>
</g>
</g>
<!-- Node2&#45;&gt;Node3 -->
<g id="edge2" class="edge">
<title>Node2&#45;&gt;Node3</title>
<path fill="none" stroke="midnightblue" d="M442.86,-571.48C442.72,-563.08 442.5,-549.98 442.31,-539.16"/>
<polygon fill="midnightblue" stroke="midnightblue" points="445.81,-538.95 442.14,-529.01 438.81,-539.07 445.81,-538.95"/>
</g>
<!-- Node4 -->
<g id="node4" class="node">
<title>Node4</title>
<g id="a_node4"><a xlink:href="Ref_8h.html" target="_top" xlink:title=" ">
<polygon fill="white" stroke="black" points="327.5,-448.5 327.5,-467.5 368.5,-467.5 368.5,-448.5 327.5,-448.5"/>
<text text-anchor="middle" x="348" y="-455.5" font-family="Helvetica,sans-Serif" font-size="10.00">Ref.h</text>
</a>
</g>
</g>
<!-- Node3&#45;&gt;Node4 -->
<g id="edge3" class="edge">
<title>Node3&#45;&gt;Node4</title>
<path fill="none" stroke="midnightblue" d="M428.53,-509.98C413.32,-500.34 388.31,-484.52 370.2,-473.05"/>
<polygon fill="midnightblue" stroke="midnightblue" points="371.76,-469.9 361.44,-467.51 368.02,-475.81 371.76,-469.9"/>
</g>
<!-- Node5 -->
<g id="node5" class="node">
<title>Node5</title>
<g id="a_node5"><a xlink:href="MacRef_8h.html" target="_top" xlink:title=" ">
<polygon fill="white" stroke="black" points="337,-392.5 337,-411.5 399,-411.5 399,-392.5 337,-392.5"/>
<text text-anchor="middle" x="368" y="-399.5" font-family="Helvetica,sans-Serif" font-size="10.00">MacRef.h</text>
</a>
</g>
</g>
<!-- Node4&#45;&gt;Node5 -->
<g id="edge4" class="edge">
<title>Node4&#45;&gt;Node5</title>
<path fill="none" stroke="midnightblue" d="M351.3,-448.08C353.98,-440.85 357.85,-430.41 361.19,-421.4"/>
<polygon fill="midnightblue" stroke="midnightblue" points="364.57,-422.34 364.76,-411.75 358,-419.91 364.57,-422.34"/>
</g>
<!-- Node6 -->
<g id="node6" class="node">
<title>Node6</title>
<g id="a_node6"><a xlink:href="Ref___8h.html" target="_top" xlink:title=" ">
<polygon fill="white" stroke="black" points="354.5,-336.5 354.5,-355.5 401.5,-355.5 401.5,-336.5 354.5,-336.5"/>
<text text-anchor="middle" x="378" y="-343.5" font-family="Helvetica,sans-Serif" font-size="10.00">Ref_.h</text>
</a>
</g>
</g>
<!-- Node5&#45;&gt;Node6 -->
<g id="edge5" class="edge">
<title>Node5&#45;&gt;Node6</title>
<path fill="none" stroke="midnightblue" d="M369.65,-392.08C370.98,-384.93 372.88,-374.64 374.54,-365.69"/>
<polygon fill="midnightblue" stroke="midnightblue" points="378,-366.22 376.38,-355.75 371.12,-364.95 378,-366.22"/>
</g>
<!-- Node7 -->
<g id="node7" class="node">
<title>Node7</title>
<g id="a_node7"><a xlink:href="O__U__Ptr_8h.html" target="_top" xlink:title=" ">
<polygon fill="white" stroke="black" points="428,-280.5 428,-299.5 492,-299.5 492,-280.5 428,-280.5"/>
<text text-anchor="middle" x="460" y="-287.5" font-family="Helvetica,sans-Serif" font-size="10.00">O_U_Ptr.h</text>
</a>
</g>
</g>
<!-- Node6&#45;&gt;Node7 -->
<g id="edge6" class="edge">
<title>Node6&#45;&gt;Node7</title>
<path fill="none" stroke="midnightblue" d="M391.17,-336.32C403.85,-327.98 423.23,-315.21 438.21,-305.35"/>
<polygon fill="midnightblue" stroke="midnightblue" points="440.43,-308.08 446.86,-299.65 436.58,-302.23 440.43,-308.08"/>
</g>
<!-- Node26 -->
<g id="node26" class="node">
<title>Node26</title>
<g id="a_node26"><a xlink:href="Nom_8h.html" target="_top" xlink:title=" ">
<polygon fill="white" stroke="black" points="353.5,-280.5 353.5,-299.5 402.5,-299.5 402.5,-280.5 353.5,-280.5"/>
<text text-anchor="middle" x="378" y="-287.5" font-family="Helvetica,sans-Serif" font-size="10.00">Nom.h</text>
</a>
</g>
</g>
<!-- Node6&#45;&gt;Node26 -->
<g id="edge31" class="edge">
<title>Node6&#45;&gt;Node26</title>
<path fill="none" stroke="midnightblue" d="M378,-336.08C378,-329.01 378,-318.86 378,-309.99"/>
<polygon fill="midnightblue" stroke="midnightblue" points="381.5,-309.75 378,-299.75 374.5,-309.75 381.5,-309.75"/>
</g>
<!-- Node8 -->
<g id="node8" class="node">
<title>Node8</title>
<g id="a_node8"><a xlink:href="Objet__U_8h.html" target="_top" xlink:title=" ">
<polygon fill="white" stroke="black" points="433.5,-224.5 433.5,-243.5 498.5,-243.5 498.5,-224.5 433.5,-224.5"/>
<text text-anchor="middle" x="466" y="-231.5" font-family="Helvetica,sans-Serif" font-size="10.00">Objet_U.h</text>
</a>
</g>
</g>
<!-- Node7&#45;&gt;Node8 -->
<g id="edge7" class="edge">
<title>Node7&#45;&gt;Node8</title>
<path fill="none" stroke="midnightblue" d="M460.99,-280.08C461.79,-272.93 462.93,-262.64 463.92,-253.69"/>
<polygon fill="midnightblue" stroke="midnightblue" points="467.4,-254.08 465.03,-243.75 460.44,-253.3 467.4,-254.08"/>
</g>
<!-- Node9 -->
<g id="node9" class="node">
<title>Node9</title>
<g id="a_node9"><a xlink:title=" ">
<polygon fill="white" stroke="#bfbfbf" points="433,-56.5 433,-75.5 489,-75.5 489,-56.5 433,-56.5"/>
<text text-anchor="middle" x="461" y="-63.5" font-family="Helvetica,sans-Serif" font-size="10.00">assert.h</text>
</a>
</g>
</g>
<!-- Node8&#45;&gt;Node9 -->
<g id="edge8" class="edge">
<title>Node8&#45;&gt;Node9</title>
<path fill="none" stroke="midnightblue" d="M466.16,-224.48C466.5,-204.72 467.05,-154.18 465,-112 464.58,-103.37 463.78,-93.84 463.01,-85.78"/>
<polygon fill="midnightblue" stroke="midnightblue" points="466.47,-85.21 461.97,-75.61 459.5,-85.92 466.47,-85.21"/>
</g>
<!-- Node10 -->
<g id="node10" class="node">
<title>Node10</title>
<g id="a_node10"><a xlink:href="DecBaseInst_8h.html" target="_top" xlink:title=" ">
<polygon fill="white" stroke="black" points="313,-168.5 313,-187.5 399,-187.5 399,-168.5 313,-168.5"/>
<text text-anchor="middle" x="356" y="-175.5" font-family="Helvetica,sans-Serif" font-size="10.00">DecBaseInst.h</text>
</a>
</g>
</g>
<!-- Node8&#45;&gt;Node10 -->
<g id="edge9" class="edge">
<title>Node8&#45;&gt;Node10</title>
<path fill="none" stroke="midnightblue" d="M448.33,-224.32C430.61,-215.62 403.1,-202.12 382.71,-192.11"/>
<polygon fill="midnightblue" stroke="midnightblue" points="384.15,-188.92 373.63,-187.65 381.06,-195.2 384.15,-188.92"/>
</g>
<!-- Node15 -->
<g id="node15" class="node">
<title>Node15</title>
<g id="a_node15"><a xlink:href="EntreeSortie_8h.html" target="_top" xlink:title=" ">
<polygon fill="white" stroke="black" points="541,-168.5 541,-187.5 627,-187.5 627,-168.5 541,-168.5"/>
<text text-anchor="middle" x="584" y="-175.5" font-family="Helvetica,sans-Serif" font-size="10.00">EntreeSortie.h</text>
</a>
</g>
</g>
<!-- Node8&#45;&gt;Node15 -->
<g id="edge15" class="edge">
<title>Node8&#45;&gt;Node15</title>
<path fill="none" stroke="midnightblue" d="M484.7,-224.44C503.94,-215.64 534.15,-201.81 556.2,-191.72"/>
<polygon fill="midnightblue" stroke="midnightblue" points="557.75,-194.86 565.39,-187.52 554.84,-188.5 557.75,-194.86"/>
</g>
<!-- Node20 -->
<g id="node20" class="node">
<title>Node20</title>
<g id="a_node20"><a xlink:href="Process_8h.html" target="_top" xlink:title=" ">
<polygon fill="white" stroke="black" points="783.5,-56.5 783.5,-75.5 846.5,-75.5 846.5,-56.5 783.5,-56.5"/>
<text text-anchor="middle" x="815" y="-63.5" font-family="Helvetica,sans-Serif" font-size="10.00">Process.h</text>
</a>
</g>
</g>
<!-- Node8&#45;&gt;Node20 -->
<g id="edge30" class="edge">
<title>Node8&#45;&gt;Node20</title>
<path fill="none" stroke="midnightblue" d="M498.54,-227.22C553.77,-216.19 667.61,-188.08 747,-132 767.29,-117.66 787.48,-97.41 800.53,-83.34"/>
<polygon fill="midnightblue" stroke="midnightblue" points="803.19,-85.61 807.32,-75.85 798.01,-80.9 803.19,-85.61"/>
</g>
<!-- Node11 -->
<g id="node11" class="node">
<title>Node11</title>
<g id="a_node11"><a xlink:href="Cast_8h.html" target="_top" xlink:title=" ">
<polygon fill="white" stroke="black" points="242.5,-56.5 242.5,-75.5 289.5,-75.5 289.5,-56.5 242.5,-56.5"/>
<text text-anchor="middle" x="266" y="-63.5" font-family="Helvetica,sans-Serif" font-size="10.00">Cast.h</text>
</a>
</g>
</g>
<!-- Node10&#45;&gt;Node11 -->
<g id="edge10" class="edge">
<title>Node10&#45;&gt;Node11</title>
<path fill="none" stroke="midnightblue" d="M355.38,-168.13C354.04,-154.74 349.87,-129.1 337,-112 326.56,-98.13 310.5,-87.43 296.29,-79.96"/>
<polygon fill="midnightblue" stroke="midnightblue" points="297.81,-76.81 287.29,-75.51 294.7,-83.08 297.81,-76.81"/>
</g>
<!-- Node12 -->
<g id="node12" class="node">
<title>Node12</title>
<g id="a_node12"><a xlink:href="Type__info_8h.html" target="_top" xlink:title=" ">
<polygon fill="white" stroke="black" points="384,-112.5 384,-131.5 456,-131.5 456,-112.5 384,-112.5"/>
<text text-anchor="middle" x="420" y="-119.5" font-family="Helvetica,sans-Serif" font-size="10.00">Type_info.h</text>
</a>
</g>
</g>
<!-- Node10&#45;&gt;Node12 -->
<g id="edge11" class="edge">
<title>Node10&#45;&gt;Node12</title>
<path fill="none" stroke="midnightblue" d="M366.28,-168.32C375.84,-160.26 390.28,-148.08 401.78,-138.37"/>
<polygon fill="midnightblue" stroke="midnightblue" points="404.14,-140.96 409.53,-131.83 399.63,-135.61 404.14,-140.96"/>
</g>
<!-- Node13 -->
<g id="node13" class="node">
<title>Node13</title>
<g id="a_node13"><a xlink:href="Declare__Base_8h.html" target="_top" xlink:title=" ">
<polygon fill="white" stroke="black" points="236,-112.5 236,-131.5 328,-131.5 328,-112.5 236,-112.5"/>
<text text-anchor="middle" x="282" y="-119.5" font-family="Helvetica,sans-Serif" font-size="10.00">Declare_Base.h</text>
</a>
</g>
</g>
<!-- Node10&#45;&gt;Node13 -->
<g id="edge12" class="edge">
<title>Node10&#45;&gt;Node13</title>
<path fill="none" stroke="midnightblue" d="M344.11,-168.32C332.85,-160.11 315.71,-147.6 302.29,-137.81"/>
<polygon fill="midnightblue" stroke="midnightblue" points="304.25,-134.9 294.11,-131.83 300.12,-140.56 304.25,-134.9"/>
</g>
<!-- Node14 -->
<g id="node14" class="node">
<title>Node14</title>
<g id="a_node14"><a xlink:href="Declare__Inst_8h.html" target="_top" xlink:title=" ">
<polygon fill="white" stroke="black" points="132,-112.5 132,-131.5 218,-131.5 218,-112.5 132,-112.5"/>
<text text-anchor="middle" x="175" y="-119.5" font-family="Helvetica,sans-Serif" font-size="10.00">Declare_Inst.h</text>
</a>
</g>
</g>
<!-- Node10&#45;&gt;Node14 -->
<g id="edge13" class="edge">
<title>Node10&#45;&gt;Node14</title>
<path fill="none" stroke="midnightblue" d="M327.32,-168.44C296.47,-159.24 247.27,-144.56 213.17,-134.39"/>
<polygon fill="midnightblue" stroke="midnightblue" points="214.13,-131.02 203.55,-131.52 212.13,-137.73 214.13,-131.02"/>
</g>
<!-- Node14&#45;&gt;Node11 -->
<g id="edge14" class="edge">
<title>Node14&#45;&gt;Node11</title>
<path fill="none" stroke="midnightblue" d="M189.62,-112.32C203.95,-103.82 226.01,-90.73 242.75,-80.8"/>
<polygon fill="midnightblue" stroke="midnightblue" points="244.6,-83.77 251.42,-75.65 241.03,-77.75 244.6,-83.77"/>
</g>
<!-- Node16 -->
<g id="node16" class="node">
<title>Node16</title>
<g id="a_node16"><a xlink:href="Entree_8h.html" target="_top" xlink:title=" ">
<polygon fill="white" stroke="black" points="584.5,-112.5 584.5,-131.5 641.5,-131.5 641.5,-112.5 584.5,-112.5"/>
<text text-anchor="middle" x="613" y="-119.5" font-family="Helvetica,sans-Serif" font-size="10.00">Entree.h</text>
</a>
</g>
</g>
<!-- Node15&#45;&gt;Node16 -->
<g id="edge16" class="edge">
<title>Node15&#45;&gt;Node16</title>
<path fill="none" stroke="midnightblue" d="M588.79,-168.08C592.76,-160.69 598.53,-149.95 603.43,-140.81"/>
<polygon fill="midnightblue" stroke="midnightblue" points="606.65,-142.22 608.3,-131.75 600.49,-138.91 606.65,-142.22"/>
</g>
<!-- Node23 -->
<g id="node23" class="node">
<title>Node23</title>
<g id="a_node23"><a xlink:href="Sortie_8h.html" target="_top" xlink:title=" ">
<polygon fill="white" stroke="black" points="512,-112.5 512,-131.5 566,-131.5 566,-112.5 512,-112.5"/>
<text text-anchor="middle" x="539" y="-119.5" font-family="Helvetica,sans-Serif" font-size="10.00">Sortie.h</text>
</a>
</g>
</g>
<!-- Node15&#45;&gt;Node23 -->
<g id="edge24" class="edge">
<title>Node15&#45;&gt;Node23</title>
<path fill="none" stroke="midnightblue" d="M576.57,-168.08C570.15,-160.38 560.69,-149.03 552.88,-139.65"/>
<polygon fill="midnightblue" stroke="midnightblue" points="555.38,-137.19 546.29,-131.75 550.01,-141.67 555.38,-137.19"/>
</g>
<!-- Node25 -->
<g id="node25" class="node">
<title>Node25</title>
<g id="a_node25"><a xlink:href="Separateur_8h.html" target="_top" xlink:title=" ">
<polygon fill="white" stroke="black" points="660,-112.5 660,-131.5 738,-131.5 738,-112.5 660,-112.5"/>
<text text-anchor="middle" x="699" y="-119.5" font-family="Helvetica,sans-Serif" font-size="10.00">Separateur.h</text>
</a>
</g>
</g>
<!-- Node15&#45;&gt;Node25 -->
<g id="edge29" class="edge">
<title>Node15&#45;&gt;Node25</title>
<path fill="none" stroke="midnightblue" d="M602.22,-168.44C620.9,-159.68 650.16,-145.94 671.62,-135.86"/>
<polygon fill="midnightblue" stroke="midnightblue" points="673.3,-138.93 680.86,-131.52 670.32,-132.6 673.3,-138.93"/>
</g>
<!-- Node16&#45;&gt;Node9 -->
<g id="edge20" class="edge">
<title>Node16&#45;&gt;Node9</title>
<path fill="none" stroke="midnightblue" d="M588.92,-112.44C563.46,-103.4 523.11,-89.06 494.54,-78.92"/>
<polygon fill="midnightblue" stroke="midnightblue" points="495.57,-75.57 484.97,-75.52 493.22,-82.16 495.57,-75.57"/>
</g>
<!-- Node17 -->
<g id="node17" class="node">
<title>Node17</title>
<g id="a_node17"><a xlink:title=" ">
<polygon fill="white" stroke="#bfbfbf" points="715,-56.5 715,-75.5 765,-75.5 765,-56.5 715,-56.5"/>
<text text-anchor="middle" x="740" y="-63.5" font-family="Helvetica,sans-Serif" font-size="10.00">stdio.h</text>
</a>
</g>
</g>
<!-- Node16&#45;&gt;Node17 -->
<g id="edge17" class="edge">
<title>Node16&#45;&gt;Node17</title>
<path fill="none" stroke="midnightblue" d="M633.12,-112.44C654.02,-103.56 686.93,-89.56 710.72,-79.45"/>
<polygon fill="midnightblue" stroke="midnightblue" points="712.14,-82.65 719.97,-75.52 709.4,-76.21 712.14,-82.65"/>
</g>
<!-- Node18 -->
<g id="node18" class="node">
<title>Node18</title>
<g id="a_node18"><a xlink:title=" ">
<polygon fill="white" stroke="#bfbfbf" points="651,-56.5 651,-75.5 697,-75.5 697,-56.5 651,-56.5"/>
<text text-anchor="middle" x="674" y="-63.5" font-family="Helvetica,sans-Serif" font-size="10.00">cstdio</text>
</a>
</g>
</g>
<!-- Node16&#45;&gt;Node18 -->
<g id="edge18" class="edge">
<title>Node16&#45;&gt;Node18</title>
<path fill="none" stroke="midnightblue" d="M622.8,-112.32C631.82,-104.34 645.41,-92.31 656.32,-82.65"/>
<polygon fill="midnightblue" stroke="midnightblue" points="658.85,-85.08 664.02,-75.83 654.21,-79.84 658.85,-85.08"/>
</g>
<!-- Node19 -->
<g id="node19" class="node">
<title>Node19</title>
<g id="a_node19"><a xlink:title=" ">
<polygon fill="white" stroke="#bfbfbf" points="507,-56.5 507,-75.5 567,-75.5 567,-56.5 507,-56.5"/>
<text text-anchor="middle" x="537" y="-63.5" font-family="Helvetica,sans-Serif" font-size="10.00">iostream</text>
</a>
</g>
</g>
<!-- Node16&#45;&gt;Node19 -->
<g id="edge19" class="edge">
<title>Node16&#45;&gt;Node19</title>
<path fill="none" stroke="midnightblue" d="M600.79,-112.32C589.22,-104.11 571.62,-91.6 557.84,-81.81"/>
<polygon fill="midnightblue" stroke="midnightblue" points="559.61,-78.77 549.43,-75.83 555.56,-84.48 559.61,-78.77"/>
</g>
<!-- Node16&#45;&gt;Node20 -->
<g id="edge21" class="edge">
<title>Node16&#45;&gt;Node20</title>
<path fill="none" stroke="midnightblue" d="M641.51,-113.38C675.93,-104.18 734.08,-88.63 773.47,-78.1"/>
<polygon fill="midnightblue" stroke="midnightblue" points="774.55,-81.44 783.31,-75.47 772.74,-74.67 774.55,-81.44"/>
</g>
<!-- Node21 -->
<g id="node21" class="node">
<title>Node21</title>
<g id="a_node21"><a xlink:href="arch_8h.html" target="_top" xlink:title=" ">
<polygon fill="white" stroke="black" points="585.5,-56.5 585.5,-75.5 632.5,-75.5 632.5,-56.5 585.5,-56.5"/>
<text text-anchor="middle" x="609" y="-63.5" font-family="Helvetica,sans-Serif" font-size="10.00">arch.h</text>
</a>
</g>
</g>
<!-- Node16&#45;&gt;Node21 -->
<g id="edge22" class="edge">
<title>Node16&#45;&gt;Node21</title>
<path fill="none" stroke="midnightblue" d="M612.34,-112.08C611.82,-105.01 611.06,-94.86 610.41,-85.99"/>
<polygon fill="midnightblue" stroke="midnightblue" points="613.88,-85.47 609.65,-75.75 606.9,-85.98 613.88,-85.47"/>
</g>
<!-- Node22 -->
<g id="node22" class="node">
<title>Node22</title>
<g id="a_node22"><a xlink:href="generique_8h.html" target="_top" xlink:title=" ">
<polygon fill="white" stroke="black" points="572,-0.5 572,-19.5 646,-19.5 646,-0.5 572,-0.5"/>
<text text-anchor="middle" x="609" y="-7.5" font-family="Helvetica,sans-Serif" font-size="10.00">generique.h</text>
</a>
</g>
</g>
<!-- Node21&#45;&gt;Node22 -->
<g id="edge23" class="edge">
<title>Node21&#45;&gt;Node22</title>
<path fill="none" stroke="midnightblue" d="M609,-56.08C609,-49.01 609,-38.86 609,-29.99"/>
<polygon fill="midnightblue" stroke="midnightblue" points="612.5,-29.75 609,-19.75 605.5,-29.75 612.5,-29.75"/>
</g>
<!-- Node23&#45;&gt;Node9 -->
<g id="edge26" class="edge">
<title>Node23&#45;&gt;Node9</title>
<path fill="none" stroke="midnightblue" d="M526.47,-112.32C514.41,-103.98 495.97,-91.21 481.73,-81.35"/>
<polygon fill="midnightblue" stroke="midnightblue" points="483.72,-78.47 473.5,-75.65 479.73,-84.22 483.72,-78.47"/>
</g>
<!-- Node23&#45;&gt;Node19 -->
<g id="edge25" class="edge">
<title>Node23&#45;&gt;Node19</title>
<path fill="none" stroke="midnightblue" d="M538.67,-112.08C538.41,-105.01 538.03,-94.86 537.7,-85.99"/>
<polygon fill="midnightblue" stroke="midnightblue" points="541.19,-85.61 537.32,-75.75 534.2,-85.87 541.19,-85.61"/>
</g>
<!-- Node23&#45;&gt;Node21 -->
<g id="edge27" class="edge">
<title>Node23&#45;&gt;Node21</title>
<path fill="none" stroke="midnightblue" d="M550.25,-112.32C560.8,-104.18 576.8,-91.84 589.44,-82.09"/>
<polygon fill="midnightblue" stroke="midnightblue" points="591.77,-84.71 597.55,-75.83 587.49,-79.17 591.77,-84.71"/>
</g>
<!-- Node24 -->
<g id="node24" class="node">
<title>Node24</title>
<g id="a_node24"><a xlink:title=" ">
<polygon fill="white" stroke="#bfbfbf" points="82,-56.5 82,-75.5 126,-75.5 126,-56.5 82,-56.5"/>
<text text-anchor="middle" x="104" y="-63.5" font-family="Helvetica,sans-Serif" font-size="10.00">string</text>
</a>
</g>
</g>
<!-- Node23&#45;&gt;Node24 -->
<g id="edge28" class="edge">
<title>Node23&#45;&gt;Node24</title>
<path fill="none" stroke="midnightblue" d="M511.79,-117.62C435.26,-108.12 218.37,-81.2 136.14,-70.99"/>
<polygon fill="midnightblue" stroke="midnightblue" points="136.48,-67.51 126.13,-69.75 135.62,-74.45 136.48,-67.51"/>
</g>
<!-- Node26&#45;&gt;Node8 -->
<g id="edge32" class="edge">
<title>Node26&#45;&gt;Node8</title>
<path fill="none" stroke="midnightblue" d="M392.14,-280.32C405.87,-271.9 426.94,-258.97 443.06,-249.07"/>
<polygon fill="midnightblue" stroke="midnightblue" points="445.2,-251.87 451.9,-243.65 441.54,-245.9 445.2,-251.87"/>
</g>
<!-- Node26&#45;&gt;Node24 -->
<g id="edge34" class="edge">
<title>Node26&#45;&gt;Node24</title>
<path fill="none" stroke="midnightblue" d="M353.12,-280.66C302.04,-262.26 184.96,-213.22 123,-132 112.76,-118.58 108.03,-99.76 105.85,-85.82"/>
<polygon fill="midnightblue" stroke="midnightblue" points="109.32,-85.37 104.59,-75.89 102.38,-86.25 109.32,-85.37"/>
</g>
<!-- Node27 -->
<g id="node27" class="node">
<title>Node27</title>
<g id="a_node27"><a xlink:title=" ">
<polygon fill="white" stroke="#bfbfbf" points="353,-224.5 353,-243.5 403,-243.5 403,-224.5 353,-224.5"/>
<text text-anchor="middle" x="378" y="-231.5" font-family="Helvetica,sans-Serif" font-size="10.00">cstring</text>
</a>
</g>
</g>
<!-- Node26&#45;&gt;Node27 -->
<g id="edge33" class="edge">
<title>Node26&#45;&gt;Node27</title>
<path fill="none" stroke="midnightblue" d="M378,-280.08C378,-273.01 378,-262.86 378,-253.99"/>
<polygon fill="midnightblue" stroke="midnightblue" points="381.5,-253.75 378,-243.75 374.5,-253.75 381.5,-253.75"/>
</g>
<!-- Node29 -->
<g id="node29" class="node">
<title>Node29</title>
<g id="a_node29"><a xlink:href="Ref__Field__base_8h.html" target="_top" xlink:title=" ">
<polygon fill="white" stroke="black" points="287.5,-510 287.5,-529 386.5,-529 386.5,-510 287.5,-510"/>
<text text-anchor="middle" x="337" y="-517" font-family="Helvetica,sans-Serif" font-size="10.00">Ref_Field_base.h</text>
</a>
</g>
</g>
<!-- Node28&#45;&gt;Node29 -->
<g id="edge36" class="edge">
<title>Node28&#45;&gt;Node29</title>
<path fill="none" stroke="midnightblue" d="M280.46,-571.48C290.75,-562.2 307.42,-547.17 319.99,-535.83"/>
<polygon fill="midnightblue" stroke="midnightblue" points="322.48,-538.3 327.56,-529.01 317.79,-533.11 322.48,-538.3"/>
</g>
<!-- Node30 -->
<g id="node30" class="node">
<title>Node30</title>
<g id="a_node30"><a xlink:href="Ref__Champ__Generique__base_8h.html" target="_top" xlink:title=" ">
<polygon fill="white" stroke="black" points="141,-504.5 141,-534.5 269,-534.5 269,-504.5 141,-504.5"/>
<text text-anchor="start" x="149" y="-522.5" font-family="Helvetica,sans-Serif" font-size="10.00">Ref_Champ_Generique</text>
<text text-anchor="middle" x="205" y="-511.5" font-family="Helvetica,sans-Serif" font-size="10.00">_base.h</text>
</a>
</g>
</g>
<!-- Node28&#45;&gt;Node30 -->
<g id="edge38" class="edge">
<title>Node28&#45;&gt;Node30</title>
<path fill="none" stroke="midnightblue" d="M261.54,-571.48C252.86,-563.64 239.62,-551.71 228.14,-541.37"/>
<polygon fill="midnightblue" stroke="midnightblue" points="230.33,-538.62 220.55,-534.52 225.64,-543.82 230.33,-538.62"/>
</g>
<!-- Node31 -->
<g id="node31" class="node">
<title>Node31</title>
<g id="a_node31"><a xlink:href="ScalarRegister_8h.html" target="_top" xlink:title=" ">
<polygon fill="white" stroke="black" points="27.5,-336.5 27.5,-355.5 122.5,-355.5 122.5,-336.5 27.5,-336.5"/>
<text text-anchor="middle" x="75" y="-343.5" font-family="Helvetica,sans-Serif" font-size="10.00">ScalarRegister.h</text>
</a>
</g>
</g>
<!-- Node28&#45;&gt;Node31 -->
<g id="edge40" class="edge">
<title>Node28&#45;&gt;Node31</title>
<path fill="none" stroke="midnightblue" d="M228.19,-576.52C197.52,-571.82 157.32,-560.8 132,-535 85.45,-487.57 76.74,-403.43 75.24,-365.94"/>
<polygon fill="midnightblue" stroke="midnightblue" points="78.73,-365.8 74.97,-355.89 71.74,-365.99 78.73,-365.8"/>
</g>
<!-- Node29&#45;&gt;Node4 -->
<g id="edge37" class="edge">
<title>Node29&#45;&gt;Node4</title>
<path fill="none" stroke="midnightblue" d="M338.58,-509.98C340.13,-501.58 342.55,-488.48 344.55,-477.66"/>
<polygon fill="midnightblue" stroke="midnightblue" points="348.05,-477.98 346.43,-467.51 341.17,-476.71 348.05,-477.98"/>
</g>
<!-- Node30&#45;&gt;Node4 -->
<g id="edge39" class="edge">
<title>Node30&#45;&gt;Node4</title>
<path fill="none" stroke="midnightblue" d="M238.89,-504.4C262.88,-494.42 294.77,-481.15 317.88,-471.53"/>
<polygon fill="midnightblue" stroke="midnightblue" points="319.3,-474.73 327.19,-467.66 316.61,-468.27 319.3,-474.73"/>
</g>
<!-- Node31&#45;&gt;Node24 -->
<g id="edge41" class="edge">
<title>Node31&#45;&gt;Node24</title>
<path fill="none" stroke="midnightblue" d="M73.82,-336.46C71.38,-317.99 66,-272.94 66,-235 66,-235 66,-235 66,-177 66,-142.81 82.6,-105.76 93.86,-84.57"/>
<polygon fill="midnightblue" stroke="midnightblue" points="96.95,-86.22 98.72,-75.77 90.82,-82.83 96.95,-86.22"/>
</g>
<!-- Node31&#45;&gt;Node26 -->
<g id="edge43" class="edge">
<title>Node31&#45;&gt;Node26</title>
<path fill="none" stroke="midnightblue" d="M122.68,-336.5C183.92,-325.59 288.79,-306.9 343.1,-297.22"/>
<polygon fill="midnightblue" stroke="midnightblue" points="344.03,-300.61 353.26,-295.41 342.81,-293.72 344.03,-300.61"/>
</g>
<!-- Node32 -->
<g id="node32" class="node">
<title>Node32</title>
<g id="a_node32"><a xlink:title=" ">
<polygon fill="white" stroke="#bfbfbf" points="0,-280.5 0,-299.5 38,-299.5 38,-280.5 0,-280.5"/>
<text text-anchor="middle" x="19" y="-287.5" font-family="Helvetica,sans-Serif" font-size="10.00">map</text>
</a>
</g>
</g>
<!-- Node31&#45;&gt;Node32 -->
<g id="edge42" class="edge">
<title>Node31&#45;&gt;Node32</title>
<path fill="none" stroke="midnightblue" d="M66,-336.32C57.81,-328.42 45.49,-316.55 35.53,-306.94"/>
<polygon fill="midnightblue" stroke="midnightblue" points="37.79,-304.26 28.16,-299.83 32.93,-309.29 37.79,-304.26"/>
</g>
<!-- Node33&#45;&gt;Node20 -->
<g id="edge45" class="edge">
<title>Node33&#45;&gt;Node20</title>
<path fill="none" stroke="midnightblue" d="M554.14,-338.08C639.98,-324.15 813,-289.34 813,-235 813,-235 813,-235 813,-177 813,-144.94 813.86,-107.64 814.45,-85.75"/>
<polygon fill="midnightblue" stroke="midnightblue" points="817.96,-85.65 814.74,-75.56 810.96,-85.45 817.96,-85.65"/>
</g>
<!-- Node33&#45;&gt;Node26 -->
<g id="edge46" class="edge">
<title>Node33&#45;&gt;Node26</title>
<path fill="none" stroke="midnightblue" d="M486.56,-336.44C465.33,-327.56 431.9,-313.56 407.75,-303.45"/>
<polygon fill="midnightblue" stroke="midnightblue" points="408.92,-300.15 398.34,-299.52 406.22,-306.61 408.92,-300.15"/>
</g>
</g>
</svg>
