<?xml version="1.0" encoding="UTF-8" standalone="no"?>
<!DOCTYPE svg PUBLIC "-//W3C//DTD SVG 1.1//EN"
 "http://www.w3.org/Graphics/SVG/1.1/DTD/svg11.dtd">
<!-- Generated by graphviz version 2.43.0 (0)
 -->
<!-- Title: src/Kernel/Math/RTabInt.h Pages: 1 -->
<svg width="296pt" height="95pt"
 viewBox="0.00 0.00 296.00 95.00" xmlns="http://www.w3.org/2000/svg" xmlns:xlink="http://www.w3.org/1999/xlink">
<g id="graph0" class="graph" transform="scale(1 1) rotate(0) translate(4 91)">
<title>src/Kernel/Math/RTabInt.h</title>
<polygon fill="white" stroke="transparent" points="-4,4 -4,-91 292,-91 292,4 -4,4"/>
<!-- Node1 -->
<g id="node1" class="node">
<title>Node1</title>
<g id="a_node1"><a xlink:title=" ">
<polygon fill="#bfbfbf" stroke="black" points="65.5,-67.5 65.5,-86.5 205.5,-86.5 205.5,-67.5 65.5,-67.5"/>
<text text-anchor="middle" x="135.5" y="-74.5" font-family="Helvetica,sans-Serif" font-size="10.00">src/Kernel/Math/RTabInt.h</text>
</a>
</g>
</g>
<!-- Node2 -->
<g id="node2" class="node">
<title>Node2</title>
<g id="a_node2"><a xlink:href="Octree_8cpp.html" target="_top" xlink:title=" ">
<polygon fill="white" stroke="black" points="0,-0.5 0,-30.5 119,-30.5 119,-0.5 0,-0.5"/>
<text text-anchor="start" x="8" y="-18.5" font-family="Helvetica,sans-Serif" font-size="10.00">src/Kernel/Geometrie</text>
<text text-anchor="middle" x="59.5" y="-7.5" font-family="Helvetica,sans-Serif" font-size="10.00">/Octree.cpp</text>
</a>
</g>
</g>
<!-- Node1&#45;&gt;Node2 -->
<g id="edge1" class="edge">
<title>Node1&#45;&gt;Node2</title>
<path fill="none" stroke="midnightblue" d="M116.59,-61.2C104.61,-51.81 89.2,-39.75 77.41,-30.52"/>
<polygon fill="midnightblue" stroke="midnightblue" points="114.58,-64.07 124.61,-67.48 118.89,-58.55 114.58,-64.07"/>
</g>
<!-- Node3 -->
<g id="node3" class="node">
<title>Node3</title>
<g id="a_node3"><a xlink:href="RTabInt_8cpp.html" target="_top" xlink:title=" ">
<polygon fill="white" stroke="black" points="137,-6 137,-25 288,-25 288,-6 137,-6"/>
<text text-anchor="middle" x="212.5" y="-13" font-family="Helvetica,sans-Serif" font-size="10.00">src/Kernel/Math/RTabInt.cpp</text>
</a>
</g>
</g>
<!-- Node1&#45;&gt;Node3 -->
<g id="edge2" class="edge">
<title>Node1&#45;&gt;Node3</title>
<path fill="none" stroke="midnightblue" d="M154.53,-61.29C169.3,-49.88 189.26,-34.46 201.49,-25.01"/>
<polygon fill="midnightblue" stroke="midnightblue" points="152.31,-58.59 146.53,-67.48 156.59,-64.13 152.31,-58.59"/>
</g>
</g>
</svg>
