<?xml version="1.0" encoding="UTF-8" standalone="no"?>
<!DOCTYPE svg PUBLIC "-//W3C//DTD SVG 1.1//EN"
 "http://www.w3.org/Graphics/SVG/1.1/DTD/svg11.dtd">
<!-- Generated by graphviz version 2.43.0 (0)
 -->
<!-- Title: src/Kernel/Utilitaires/SChaine.cpp Pages: 1 -->
<svg width="487pt" height="263pt"
 viewBox="0.00 0.00 487.00 263.00" xmlns="http://www.w3.org/2000/svg" xmlns:xlink="http://www.w3.org/1999/xlink">
<g id="graph0" class="graph" transform="scale(1 1) rotate(0) translate(4 259)">
<title>src/Kernel/Utilitaires/SChaine.cpp</title>
<polygon fill="white" stroke="transparent" points="-4,4 -4,-259 483,-259 483,4 -4,4"/>
<!-- Node1 -->
<g id="node1" class="node">
<title>Node1</title>
<g id="a_node1"><a xlink:title=" ">
<polygon fill="#bfbfbf" stroke="black" points="286,-224.5 286,-254.5 402,-254.5 402,-224.5 286,-224.5"/>
<text text-anchor="start" x="294" y="-242.5" font-family="Helvetica,sans-Serif" font-size="10.00">src/Kernel/Utilitaires</text>
<text text-anchor="middle" x="344" y="-231.5" font-family="Helvetica,sans-Serif" font-size="10.00">/SChaine.cpp</text>
</a>
</g>
</g>
<!-- Node2 -->
<g id="node2" class="node">
<title>Node2</title>
<g id="a_node2"><a xlink:href="SChaine_8h.html" target="_top" xlink:title=" ">
<polygon fill="white" stroke="black" points="151.5,-168.5 151.5,-187.5 216.5,-187.5 216.5,-168.5 151.5,-168.5"/>
<text text-anchor="middle" x="184" y="-175.5" font-family="Helvetica,sans-Serif" font-size="10.00">SChaine.h</text>
</a>
</g>
</g>
<!-- Node1&#45;&gt;Node2 -->
<g id="edge1" class="edge">
<title>Node1&#45;&gt;Node2</title>
<path fill="none" stroke="midnightblue" d="M306.08,-224.4C278.88,-214.28 242.6,-200.79 216.67,-191.15"/>
<polygon fill="midnightblue" stroke="midnightblue" points="217.87,-187.86 207.28,-187.66 215.43,-194.42 217.87,-187.86"/>
</g>
<!-- Node9 -->
<g id="node9" class="node">
<title>Node9</title>
<g id="a_node9"><a xlink:href="EntreeSortie_8h.html" target="_top" xlink:title=" ">
<polygon fill="white" stroke="black" points="266,-168.5 266,-187.5 352,-187.5 352,-168.5 266,-168.5"/>
<text text-anchor="middle" x="309" y="-175.5" font-family="Helvetica,sans-Serif" font-size="10.00">EntreeSortie.h</text>
</a>
</g>
</g>
<!-- Node1&#45;&gt;Node9 -->
<g id="edge8" class="edge">
<title>Node1&#45;&gt;Node9</title>
<path fill="none" stroke="midnightblue" d="M335.71,-224.4C330.78,-216.02 324.49,-205.33 319.25,-196.42"/>
<polygon fill="midnightblue" stroke="midnightblue" points="322.18,-194.5 314.09,-187.66 316.15,-198.05 322.18,-194.5"/>
</g>
<!-- Node13 -->
<g id="node13" class="node">
<title>Node13</title>
<g id="a_node13"><a xlink:href="Process_8h.html" target="_top" xlink:title=" ">
<polygon fill="white" stroke="black" points="412.5,-56.5 412.5,-75.5 475.5,-75.5 475.5,-56.5 412.5,-56.5"/>
<text text-anchor="middle" x="444" y="-63.5" font-family="Helvetica,sans-Serif" font-size="10.00">Process.h</text>
</a>
</g>
</g>
<!-- Node1&#45;&gt;Node13 -->
<g id="edge19" class="edge">
<title>Node1&#45;&gt;Node13</title>
<path fill="none" stroke="midnightblue" d="M352.18,-224.47C370.35,-193.3 414.02,-118.41 433.87,-84.37"/>
<polygon fill="midnightblue" stroke="midnightblue" points="437,-85.96 439.01,-75.56 430.95,-82.44 437,-85.96"/>
</g>
<!-- Node15 -->
<g id="node15" class="node">
<title>Node15</title>
<g id="a_node15"><a xlink:title=" ">
<polygon fill="white" stroke="#bfbfbf" points="423,-168.5 423,-187.5 479,-187.5 479,-168.5 423,-168.5"/>
<text text-anchor="middle" x="451" y="-175.5" font-family="Helvetica,sans-Serif" font-size="10.00">sstream</text>
</a>
</g>
</g>
<!-- Node1&#45;&gt;Node15 -->
<g id="edge18" class="edge">
<title>Node1&#45;&gt;Node15</title>
<path fill="none" stroke="midnightblue" d="M369.36,-224.4C386.67,-214.77 409.48,-202.09 426.58,-192.58"/>
<polygon fill="midnightblue" stroke="midnightblue" points="428.39,-195.58 435.43,-187.66 424.99,-189.46 428.39,-195.58"/>
</g>
<!-- Node3 -->
<g id="node3" class="node">
<title>Node3</title>
<g id="a_node3"><a xlink:href="Sortie_8h.html" target="_top" xlink:title=" ">
<polygon fill="white" stroke="black" points="141,-112.5 141,-131.5 195,-131.5 195,-112.5 141,-112.5"/>
<text text-anchor="middle" x="168" y="-119.5" font-family="Helvetica,sans-Serif" font-size="10.00">Sortie.h</text>
</a>
</g>
</g>
<!-- Node2&#45;&gt;Node3 -->
<g id="edge2" class="edge">
<title>Node2&#45;&gt;Node3</title>
<path fill="none" stroke="midnightblue" d="M181.36,-168.08C179.21,-160.85 176.12,-150.41 173.45,-141.4"/>
<polygon fill="midnightblue" stroke="midnightblue" points="176.79,-140.34 170.59,-131.75 170.08,-142.33 176.79,-140.34"/>
</g>
<!-- Node4 -->
<g id="node4" class="node">
<title>Node4</title>
<g id="a_node4"><a xlink:title=" ">
<polygon fill="white" stroke="#bfbfbf" points="62,-56.5 62,-75.5 122,-75.5 122,-56.5 62,-56.5"/>
<text text-anchor="middle" x="92" y="-63.5" font-family="Helvetica,sans-Serif" font-size="10.00">iostream</text>
</a>
</g>
</g>
<!-- Node3&#45;&gt;Node4 -->
<g id="edge3" class="edge">
<title>Node3&#45;&gt;Node4</title>
<path fill="none" stroke="midnightblue" d="M155.79,-112.32C144.22,-104.11 126.62,-91.6 112.84,-81.81"/>
<polygon fill="midnightblue" stroke="midnightblue" points="114.61,-78.77 104.43,-75.83 110.56,-84.48 114.61,-78.77"/>
</g>
<!-- Node5 -->
<g id="node5" class="node">
<title>Node5</title>
<g id="a_node5"><a xlink:title=" ">
<polygon fill="white" stroke="#bfbfbf" points="140,-56.5 140,-75.5 196,-75.5 196,-56.5 140,-56.5"/>
<text text-anchor="middle" x="168" y="-63.5" font-family="Helvetica,sans-Serif" font-size="10.00">assert.h</text>
</a>
</g>
</g>
<!-- Node3&#45;&gt;Node5 -->
<g id="edge4" class="edge">
<title>Node3&#45;&gt;Node5</title>
<path fill="none" stroke="midnightblue" d="M168,-112.08C168,-105.01 168,-94.86 168,-85.99"/>
<polygon fill="midnightblue" stroke="midnightblue" points="171.5,-85.75 168,-75.75 164.5,-85.75 171.5,-85.75"/>
</g>
<!-- Node6 -->
<g id="node6" class="node">
<title>Node6</title>
<g id="a_node6"><a xlink:href="arch_8h.html" target="_top" xlink:title=" ">
<polygon fill="white" stroke="black" points="214.5,-56.5 214.5,-75.5 261.5,-75.5 261.5,-56.5 214.5,-56.5"/>
<text text-anchor="middle" x="238" y="-63.5" font-family="Helvetica,sans-Serif" font-size="10.00">arch.h</text>
</a>
</g>
</g>
<!-- Node3&#45;&gt;Node6 -->
<g id="edge5" class="edge">
<title>Node3&#45;&gt;Node6</title>
<path fill="none" stroke="midnightblue" d="M179.25,-112.32C189.8,-104.18 205.8,-91.84 218.44,-82.09"/>
<polygon fill="midnightblue" stroke="midnightblue" points="220.77,-84.71 226.55,-75.83 216.49,-79.17 220.77,-84.71"/>
</g>
<!-- Node8 -->
<g id="node8" class="node">
<title>Node8</title>
<g id="a_node8"><a xlink:title=" ">
<polygon fill="white" stroke="#bfbfbf" points="0,-56.5 0,-75.5 44,-75.5 44,-56.5 0,-56.5"/>
<text text-anchor="middle" x="22" y="-63.5" font-family="Helvetica,sans-Serif" font-size="10.00">string</text>
</a>
</g>
</g>
<!-- Node3&#45;&gt;Node8 -->
<g id="edge7" class="edge">
<title>Node3&#45;&gt;Node8</title>
<path fill="none" stroke="midnightblue" d="M144.87,-112.44C120.23,-103.33 81.08,-88.85 53.61,-78.69"/>
<polygon fill="midnightblue" stroke="midnightblue" points="54.66,-75.35 44.07,-75.16 52.24,-81.91 54.66,-75.35"/>
</g>
<!-- Node7 -->
<g id="node7" class="node">
<title>Node7</title>
<g id="a_node7"><a xlink:href="generique_8h.html" target="_top" xlink:title=" ">
<polygon fill="white" stroke="black" points="201,-0.5 201,-19.5 275,-19.5 275,-0.5 201,-0.5"/>
<text text-anchor="middle" x="238" y="-7.5" font-family="Helvetica,sans-Serif" font-size="10.00">generique.h</text>
</a>
</g>
</g>
<!-- Node6&#45;&gt;Node7 -->
<g id="edge6" class="edge">
<title>Node6&#45;&gt;Node7</title>
<path fill="none" stroke="midnightblue" d="M238,-56.08C238,-49.01 238,-38.86 238,-29.99"/>
<polygon fill="midnightblue" stroke="midnightblue" points="241.5,-29.75 238,-19.75 234.5,-29.75 241.5,-29.75"/>
</g>
<!-- Node9&#45;&gt;Node3 -->
<g id="edge16" class="edge">
<title>Node9&#45;&gt;Node3</title>
<path fill="none" stroke="midnightblue" d="M286.66,-168.44C263.25,-159.48 226.26,-145.31 199.81,-135.18"/>
<polygon fill="midnightblue" stroke="midnightblue" points="200.83,-131.82 190.24,-131.52 198.32,-138.36 200.83,-131.82"/>
</g>
<!-- Node10 -->
<g id="node10" class="node">
<title>Node10</title>
<g id="a_node10"><a xlink:href="Entree_8h.html" target="_top" xlink:title=" ">
<polygon fill="white" stroke="black" points="213.5,-112.5 213.5,-131.5 270.5,-131.5 270.5,-112.5 213.5,-112.5"/>
<text text-anchor="middle" x="242" y="-119.5" font-family="Helvetica,sans-Serif" font-size="10.00">Entree.h</text>
</a>
</g>
</g>
<!-- Node9&#45;&gt;Node10 -->
<g id="edge9" class="edge">
<title>Node9&#45;&gt;Node10</title>
<path fill="none" stroke="midnightblue" d="M298.24,-168.32C288.23,-160.26 273.11,-148.08 261.07,-138.37"/>
<polygon fill="midnightblue" stroke="midnightblue" points="262.94,-135.38 252.96,-131.83 258.55,-140.83 262.94,-135.38"/>
</g>
<!-- Node14 -->
<g id="node14" class="node">
<title>Node14</title>
<g id="a_node14"><a xlink:href="Separateur_8h.html" target="_top" xlink:title=" ">
<polygon fill="white" stroke="black" points="289,-112.5 289,-131.5 367,-131.5 367,-112.5 289,-112.5"/>
<text text-anchor="middle" x="328" y="-119.5" font-family="Helvetica,sans-Serif" font-size="10.00">Separateur.h</text>
</a>
</g>
</g>
<!-- Node9&#45;&gt;Node14 -->
<g id="edge17" class="edge">
<title>Node9&#45;&gt;Node14</title>
<path fill="none" stroke="midnightblue" d="M312.14,-168.08C314.68,-160.85 318.36,-150.41 321.53,-141.4"/>
<polygon fill="midnightblue" stroke="midnightblue" points="324.9,-142.35 324.92,-131.75 318.3,-140.02 324.9,-142.35"/>
</g>
<!-- Node10&#45;&gt;Node4 -->
<g id="edge12" class="edge">
<title>Node10&#45;&gt;Node4</title>
<path fill="none" stroke="midnightblue" d="M218.23,-112.44C193.11,-103.4 153.29,-89.06 125.1,-78.92"/>
<polygon fill="midnightblue" stroke="midnightblue" points="126.25,-75.61 115.66,-75.52 123.88,-82.2 126.25,-75.61"/>
</g>
<!-- Node10&#45;&gt;Node5 -->
<g id="edge13" class="edge">
<title>Node10&#45;&gt;Node5</title>
<path fill="none" stroke="midnightblue" d="M230.11,-112.32C218.85,-104.11 201.71,-91.6 188.29,-81.81"/>
<polygon fill="midnightblue" stroke="midnightblue" points="190.25,-78.9 180.11,-75.83 186.12,-84.56 190.25,-78.9"/>
</g>
<!-- Node10&#45;&gt;Node6 -->
<g id="edge15" class="edge">
<title>Node10&#45;&gt;Node6</title>
<path fill="none" stroke="midnightblue" d="M241.34,-112.08C240.82,-105.01 240.06,-94.86 239.41,-85.99"/>
<polygon fill="midnightblue" stroke="midnightblue" points="242.88,-85.47 238.65,-75.75 235.9,-85.98 242.88,-85.47"/>
</g>
<!-- Node11 -->
<g id="node11" class="node">
<title>Node11</title>
<g id="a_node11"><a xlink:title=" ">
<polygon fill="white" stroke="#bfbfbf" points="344,-56.5 344,-75.5 394,-75.5 394,-56.5 344,-56.5"/>
<text text-anchor="middle" x="369" y="-63.5" font-family="Helvetica,sans-Serif" font-size="10.00">stdio.h</text>
</a>
</g>
</g>
<!-- Node10&#45;&gt;Node11 -->
<g id="edge10" class="edge">
<title>Node10&#45;&gt;Node11</title>
<path fill="none" stroke="midnightblue" d="M262.12,-112.44C283.02,-103.56 315.93,-89.56 339.72,-79.45"/>
<polygon fill="midnightblue" stroke="midnightblue" points="341.14,-82.65 348.97,-75.52 338.4,-76.21 341.14,-82.65"/>
</g>
<!-- Node12 -->
<g id="node12" class="node">
<title>Node12</title>
<g id="a_node12"><a xlink:title=" ">
<polygon fill="white" stroke="#bfbfbf" points="280,-56.5 280,-75.5 326,-75.5 326,-56.5 280,-56.5"/>
<text text-anchor="middle" x="303" y="-63.5" font-family="Helvetica,sans-Serif" font-size="10.00">cstdio</text>
</a>
</g>
</g>
<!-- Node10&#45;&gt;Node12 -->
<g id="edge11" class="edge">
<title>Node10&#45;&gt;Node12</title>
<path fill="none" stroke="midnightblue" d="M251.8,-112.32C260.82,-104.34 274.41,-92.31 285.32,-82.65"/>
<polygon fill="midnightblue" stroke="midnightblue" points="287.85,-85.08 293.02,-75.83 283.21,-79.84 287.85,-85.08"/>
</g>
<!-- Node10&#45;&gt;Node13 -->
<g id="edge14" class="edge">
<title>Node10&#45;&gt;Node13</title>
<path fill="none" stroke="midnightblue" d="M270.51,-113.38C304.93,-104.18 363.08,-88.63 402.47,-78.1"/>
<polygon fill="midnightblue" stroke="midnightblue" points="403.55,-81.44 412.31,-75.47 401.74,-74.67 403.55,-81.44"/>
</g>
</g>
</svg>
