<?xml version="1.0" encoding="UTF-8" standalone="no"?>
<!DOCTYPE svg PUBLIC "-//W3C//DTD SVG 1.1//EN"
 "http://www.w3.org/Graphics/SVG/1.1/DTD/svg11.dtd">
<!-- Generated by graphviz version 2.43.0 (0)
 -->
<!-- Title: src/Kernel/Utilitaires/Schema_Comm_Vecteurs.h Pages: 1 -->
<svg width="978pt" height="543pt"
 viewBox="0.00 0.00 978.00 543.00" xmlns="http://www.w3.org/2000/svg" xmlns:xlink="http://www.w3.org/1999/xlink">
<g id="graph0" class="graph" transform="scale(1 1) rotate(0) translate(4 539)">
<title>src/Kernel/Utilitaires/Schema_Comm_Vecteurs.h</title>
<polygon fill="white" stroke="transparent" points="-4,4 -4,-539 974,-539 974,4 -4,4"/>
<!-- Node1 -->
<g id="node1" class="node">
<title>Node1</title>
<g id="a_node1"><a xlink:title=" ">
<polygon fill="#bfbfbf" stroke="black" points="533,-504.5 533,-534.5 685,-534.5 685,-504.5 533,-504.5"/>
<text text-anchor="start" x="541" y="-522.5" font-family="Helvetica,sans-Serif" font-size="10.00">src/Kernel/Utilitaires</text>
<text text-anchor="middle" x="609" y="-511.5" font-family="Helvetica,sans-Serif" font-size="10.00">/Schema_Comm_Vecteurs.h</text>
</a>
</g>
</g>
<!-- Node2 -->
<g id="node2" class="node">
<title>Node2</title>
<g id="a_node2"><a xlink:href="TRUSTArray_8h.html" target="_top" xlink:title=" ">
<polygon fill="white" stroke="black" points="568,-448.5 568,-467.5 650,-467.5 650,-448.5 568,-448.5"/>
<text text-anchor="middle" x="609" y="-455.5" font-family="Helvetica,sans-Serif" font-size="10.00">TRUSTArray.h</text>
</a>
</g>
</g>
<!-- Node1&#45;&gt;Node2 -->
<g id="edge1" class="edge">
<title>Node1&#45;&gt;Node2</title>
<path fill="none" stroke="midnightblue" d="M609,-504.4C609,-496.47 609,-486.46 609,-477.86"/>
<polygon fill="midnightblue" stroke="midnightblue" points="612.5,-477.66 609,-467.66 605.5,-477.66 612.5,-477.66"/>
</g>
<!-- Node3 -->
<g id="node3" class="node">
<title>Node3</title>
<g id="a_node3"><a xlink:href="TRUSTIterator_8h.html" target="_top" xlink:title=" ">
<polygon fill="white" stroke="black" points="29.5,-112.5 29.5,-131.5 122.5,-131.5 122.5,-112.5 29.5,-112.5"/>
<text text-anchor="middle" x="76" y="-119.5" font-family="Helvetica,sans-Serif" font-size="10.00">TRUSTIterator.h</text>
</a>
</g>
</g>
<!-- Node2&#45;&gt;Node3 -->
<g id="edge2" class="edge">
<title>Node2&#45;&gt;Node3</title>
<path fill="none" stroke="midnightblue" d="M567.77,-455.22C460.14,-449.45 179,-426.75 179,-347 179,-347 179,-347 179,-233 179,-188.43 133.38,-154.46 102.86,-136.73"/>
<polygon fill="midnightblue" stroke="midnightblue" points="104.38,-133.57 93.94,-131.75 100.97,-139.68 104.38,-133.57"/>
</g>
<!-- Node7 -->
<g id="node7" class="node">
<title>Node7</title>
<g id="a_node7"><a xlink:href="VTRUSTdata_8h.html" target="_top" xlink:title=" ">
<polygon fill="white" stroke="black" points="566,-392.5 566,-411.5 652,-411.5 652,-392.5 566,-392.5"/>
<text text-anchor="middle" x="609" y="-399.5" font-family="Helvetica,sans-Serif" font-size="10.00">VTRUSTdata.h</text>
</a>
</g>
</g>
<!-- Node2&#45;&gt;Node7 -->
<g id="edge6" class="edge">
<title>Node2&#45;&gt;Node7</title>
<path fill="none" stroke="midnightblue" d="M609,-448.08C609,-441.01 609,-430.86 609,-421.99"/>
<polygon fill="midnightblue" stroke="midnightblue" points="612.5,-421.75 609,-411.75 605.5,-421.75 612.5,-421.75"/>
</g>
<!-- Node8 -->
<g id="node8" class="node">
<title>Node8</title>
<g id="a_node8"><a xlink:href="Array__base_8h.html" target="_top" xlink:title=" ">
<polygon fill="white" stroke="black" points="498,-336.5 498,-355.5 578,-355.5 578,-336.5 498,-336.5"/>
<text text-anchor="middle" x="538" y="-343.5" font-family="Helvetica,sans-Serif" font-size="10.00">Array_base.h</text>
</a>
</g>
</g>
<!-- Node2&#45;&gt;Node8 -->
<g id="edge37" class="edge">
<title>Node2&#45;&gt;Node8</title>
<path fill="none" stroke="midnightblue" d="M595.08,-448.31C583.3,-440.27 566.81,-427.27 557,-412 547.97,-397.93 543.11,-379.44 540.57,-365.78"/>
<polygon fill="midnightblue" stroke="midnightblue" points="543.98,-364.96 538.95,-355.64 537.07,-366.07 543.98,-364.96"/>
</g>
<!-- Node27 -->
<g id="node27" class="node">
<title>Node27</title>
<g id="a_node27"><a xlink:href="Double_8h.html" target="_top" xlink:title=" ">
<polygon fill="white" stroke="black" points="438,-280.5 438,-299.5 498,-299.5 498,-280.5 438,-280.5"/>
<text text-anchor="middle" x="468" y="-287.5" font-family="Helvetica,sans-Serif" font-size="10.00">Double.h</text>
</a>
</g>
</g>
<!-- Node2&#45;&gt;Node27 -->
<g id="edge38" class="edge">
<title>Node2&#45;&gt;Node27</title>
<path fill="none" stroke="midnightblue" d="M593.29,-448.44C567.25,-433.37 515.37,-399.56 489,-356 480.27,-341.58 474.76,-323.12 471.58,-309.57"/>
<polygon fill="midnightblue" stroke="midnightblue" points="474.95,-308.58 469.45,-299.53 468.1,-310.03 474.95,-308.58"/>
</g>
<!-- Node30 -->
<g id="node30" class="node">
<title>Node30</title>
<g id="a_node30"><a xlink:title=" ">
<polygon fill="white" stroke="#bfbfbf" points="670,-392.5 670,-411.5 720,-411.5 720,-392.5 670,-392.5"/>
<text text-anchor="middle" x="695" y="-399.5" font-family="Helvetica,sans-Serif" font-size="10.00">climits</text>
</a>
</g>
</g>
<!-- Node2&#45;&gt;Node30 -->
<g id="edge43" class="edge">
<title>Node2&#45;&gt;Node30</title>
<path fill="none" stroke="midnightblue" d="M622.82,-448.32C636.23,-439.9 656.82,-426.97 672.59,-417.07"/>
<polygon fill="midnightblue" stroke="midnightblue" points="674.61,-419.94 681.22,-411.65 670.89,-414.01 674.61,-419.94"/>
</g>
<!-- Node31 -->
<g id="node31" class="node">
<title>Node31</title>
<g id="a_node31"><a xlink:href="TRUSTArray__tools_8tpp.html" target="_top" xlink:title=" ">
<polygon fill="white" stroke="black" points="738,-392.5 738,-411.5 860,-411.5 860,-392.5 738,-392.5"/>
<text text-anchor="middle" x="799" y="-399.5" font-family="Helvetica,sans-Serif" font-size="10.00">TRUSTArray_tools.tpp</text>
</a>
</g>
</g>
<!-- Node2&#45;&gt;Node31 -->
<g id="edge44" class="edge">
<title>Node2&#45;&gt;Node31</title>
<path fill="none" stroke="midnightblue" d="M639.11,-448.44C671.63,-439.2 723.58,-424.44 759.39,-414.26"/>
<polygon fill="midnightblue" stroke="midnightblue" points="760.37,-417.62 769.03,-411.52 758.46,-410.88 760.37,-417.62"/>
</g>
<!-- Node32 -->
<g id="node32" class="node">
<title>Node32</title>
<g id="a_node32"><a xlink:href="TRUSTArray_8tpp.html" target="_top" xlink:title=" ">
<polygon fill="white" stroke="black" points="878,-392.5 878,-411.5 970,-411.5 970,-392.5 878,-392.5"/>
<text text-anchor="middle" x="924" y="-399.5" font-family="Helvetica,sans-Serif" font-size="10.00">TRUSTArray.tpp</text>
</a>
</g>
</g>
<!-- Node2&#45;&gt;Node32 -->
<g id="edge45" class="edge">
<title>Node2&#45;&gt;Node32</title>
<path fill="none" stroke="midnightblue" d="M650.18,-449.94C705.87,-440.39 805.38,-423.33 867.87,-412.62"/>
<polygon fill="midnightblue" stroke="midnightblue" points="868.69,-416.03 877.95,-410.89 867.5,-409.13 868.69,-416.03"/>
</g>
<!-- Node4 -->
<g id="node4" class="node">
<title>Node4</title>
<g id="a_node4"><a xlink:title=" ">
<polygon fill="white" stroke="#bfbfbf" points="112,-56.5 112,-75.5 172,-75.5 172,-56.5 112,-56.5"/>
<text text-anchor="middle" x="142" y="-63.5" font-family="Helvetica,sans-Serif" font-size="10.00">iostream</text>
</a>
</g>
</g>
<!-- Node3&#45;&gt;Node4 -->
<g id="edge3" class="edge">
<title>Node3&#45;&gt;Node4</title>
<path fill="none" stroke="midnightblue" d="M86.6,-112.32C96.46,-104.26 111.35,-92.08 123.22,-82.37"/>
<polygon fill="midnightblue" stroke="midnightblue" points="125.68,-84.88 131.2,-75.83 121.25,-79.46 125.68,-84.88"/>
</g>
<!-- Node5 -->
<g id="node5" class="node">
<title>Node5</title>
<g id="a_node5"><a xlink:href="arch_8h.html" target="_top" xlink:title=" ">
<polygon fill="white" stroke="black" points="46.5,-56.5 46.5,-75.5 93.5,-75.5 93.5,-56.5 46.5,-56.5"/>
<text text-anchor="middle" x="70" y="-63.5" font-family="Helvetica,sans-Serif" font-size="10.00">arch.h</text>
</a>
</g>
</g>
<!-- Node3&#45;&gt;Node5 -->
<g id="edge4" class="edge">
<title>Node3&#45;&gt;Node5</title>
<path fill="none" stroke="midnightblue" d="M75.01,-112.08C74.21,-104.93 73.07,-94.64 72.08,-85.69"/>
<polygon fill="midnightblue" stroke="midnightblue" points="75.56,-85.3 70.97,-75.75 68.6,-86.08 75.56,-85.3"/>
</g>
<!-- Node6 -->
<g id="node6" class="node">
<title>Node6</title>
<g id="a_node6"><a xlink:href="generique_8h.html" target="_top" xlink:title=" ">
<polygon fill="white" stroke="black" points="33,-0.5 33,-19.5 107,-19.5 107,-0.5 33,-0.5"/>
<text text-anchor="middle" x="70" y="-7.5" font-family="Helvetica,sans-Serif" font-size="10.00">generique.h</text>
</a>
</g>
</g>
<!-- Node5&#45;&gt;Node6 -->
<g id="edge5" class="edge">
<title>Node5&#45;&gt;Node6</title>
<path fill="none" stroke="midnightblue" d="M70,-56.08C70,-49.01 70,-38.86 70,-29.99"/>
<polygon fill="midnightblue" stroke="midnightblue" points="73.5,-29.75 70,-19.75 66.5,-29.75 73.5,-29.75"/>
</g>
<!-- Node7&#45;&gt;Node8 -->
<g id="edge7" class="edge">
<title>Node7&#45;&gt;Node8</title>
<path fill="none" stroke="midnightblue" d="M597.59,-392.32C586.89,-384.18 570.66,-371.84 557.84,-362.09"/>
<polygon fill="midnightblue" stroke="midnightblue" points="559.69,-359.1 549.61,-355.83 555.46,-364.67 559.69,-359.1"/>
</g>
<!-- Node10 -->
<g id="node10" class="node">
<title>Node10</title>
<g id="a_node10"><a xlink:title=" ">
<polygon fill="white" stroke="#bfbfbf" points="747,-56.5 747,-75.5 803,-75.5 803,-56.5 747,-56.5"/>
<text text-anchor="middle" x="775" y="-63.5" font-family="Helvetica,sans-Serif" font-size="10.00">assert.h</text>
</a>
</g>
</g>
<!-- Node7&#45;&gt;Node10 -->
<g id="edge35" class="edge">
<title>Node7&#45;&gt;Node10</title>
<path fill="none" stroke="midnightblue" d="M645.49,-392.45C713.1,-375.54 851,-335.59 851,-291 851,-291 851,-291 851,-177 851,-137.28 817.04,-101.5 794.52,-82.15"/>
<polygon fill="midnightblue" stroke="midnightblue" points="796.48,-79.24 786.54,-75.57 792.02,-84.63 796.48,-79.24"/>
</g>
<!-- Node24 -->
<g id="node24" class="node">
<title>Node24</title>
<g id="a_node24"><a xlink:href="Memoire_8h.html" target="_top" xlink:title=" ">
<polygon fill="white" stroke="black" points="596.5,-336.5 596.5,-355.5 665.5,-355.5 665.5,-336.5 596.5,-336.5"/>
<text text-anchor="middle" x="631" y="-343.5" font-family="Helvetica,sans-Serif" font-size="10.00">Memoire.h</text>
</a>
</g>
</g>
<!-- Node7&#45;&gt;Node24 -->
<g id="edge31" class="edge">
<title>Node7&#45;&gt;Node24</title>
<path fill="none" stroke="midnightblue" d="M612.63,-392.08C615.61,-384.77 619.93,-374.18 623.62,-365.1"/>
<polygon fill="midnightblue" stroke="midnightblue" points="626.9,-366.33 627.43,-355.75 620.42,-363.69 626.9,-366.33"/>
</g>
<!-- Node26 -->
<g id="node26" class="node">
<title>Node26</title>
<g id="a_node26"><a xlink:title=" ">
<polygon fill="white" stroke="#bfbfbf" points="683.5,-336.5 683.5,-355.5 740.5,-355.5 740.5,-336.5 683.5,-336.5"/>
<text text-anchor="middle" x="712" y="-343.5" font-family="Helvetica,sans-Serif" font-size="10.00">typeinfo</text>
</a>
</g>
</g>
<!-- Node7&#45;&gt;Node26 -->
<g id="edge36" class="edge">
<title>Node7&#45;&gt;Node26</title>
<path fill="none" stroke="midnightblue" d="M625.55,-392.32C641.99,-383.7 667.43,-370.36 686.47,-360.39"/>
<polygon fill="midnightblue" stroke="midnightblue" points="688.26,-363.4 695.49,-355.65 685.01,-357.2 688.26,-363.4"/>
</g>
<!-- Node9 -->
<g id="node9" class="node">
<title>Node9</title>
<g id="a_node9"><a xlink:href="Objet__U_8h.html" target="_top" xlink:title=" ">
<polygon fill="white" stroke="black" points="509.5,-224.5 509.5,-243.5 574.5,-243.5 574.5,-224.5 509.5,-224.5"/>
<text text-anchor="middle" x="542" y="-231.5" font-family="Helvetica,sans-Serif" font-size="10.00">Objet_U.h</text>
</a>
</g>
</g>
<!-- Node8&#45;&gt;Node9 -->
<g id="edge8" class="edge">
<title>Node8&#45;&gt;Node9</title>
<path fill="none" stroke="midnightblue" d="M538.31,-336.37C538.96,-318.62 540.45,-277.67 541.32,-253.6"/>
<polygon fill="midnightblue" stroke="midnightblue" points="544.82,-253.71 541.69,-243.59 537.83,-253.46 544.82,-253.71"/>
</g>
<!-- Node9&#45;&gt;Node10 -->
<g id="edge9" class="edge">
<title>Node9&#45;&gt;Node10</title>
<path fill="none" stroke="midnightblue" d="M574.68,-226.45C621.68,-215.31 707.96,-188.22 756,-132 767.09,-119.02 771.71,-99.86 773.64,-85.7"/>
<polygon fill="midnightblue" stroke="midnightblue" points="777.13,-85.94 774.67,-75.63 770.17,-85.22 777.13,-85.94"/>
</g>
<!-- Node11 -->
<g id="node11" class="node">
<title>Node11</title>
<g id="a_node11"><a xlink:href="DecBaseInst_8h.html" target="_top" xlink:title=" ">
<polygon fill="white" stroke="black" points="516,-168.5 516,-187.5 602,-187.5 602,-168.5 516,-168.5"/>
<text text-anchor="middle" x="559" y="-175.5" font-family="Helvetica,sans-Serif" font-size="10.00">DecBaseInst.h</text>
</a>
</g>
</g>
<!-- Node9&#45;&gt;Node11 -->
<g id="edge10" class="edge">
<title>Node9&#45;&gt;Node11</title>
<path fill="none" stroke="midnightblue" d="M544.81,-224.08C547.08,-216.85 550.37,-206.41 553.21,-197.4"/>
<polygon fill="midnightblue" stroke="midnightblue" points="556.58,-198.34 556.25,-187.75 549.9,-196.24 556.58,-198.34"/>
</g>
<!-- Node16 -->
<g id="node16" class="node">
<title>Node16</title>
<g id="a_node16"><a xlink:href="EntreeSortie_8h.html" target="_top" xlink:title=" ">
<polygon fill="white" stroke="black" points="256,-168.5 256,-187.5 342,-187.5 342,-168.5 256,-168.5"/>
<text text-anchor="middle" x="299" y="-175.5" font-family="Helvetica,sans-Serif" font-size="10.00">EntreeSortie.h</text>
</a>
</g>
</g>
<!-- Node9&#45;&gt;Node16 -->
<g id="edge16" class="edge">
<title>Node9&#45;&gt;Node16</title>
<path fill="none" stroke="midnightblue" d="M509.48,-225.77C467.83,-216.52 395.28,-200.4 347.2,-189.71"/>
<polygon fill="midnightblue" stroke="midnightblue" points="347.85,-186.27 337.33,-187.52 346.33,-193.1 347.85,-186.27"/>
</g>
<!-- Node20 -->
<g id="node20" class="node">
<title>Node20</title>
<g id="a_node20"><a xlink:href="Process_8h.html" target="_top" xlink:title=" ">
<polygon fill="white" stroke="black" points="384.5,-56.5 384.5,-75.5 447.5,-75.5 447.5,-56.5 384.5,-56.5"/>
<text text-anchor="middle" x="416" y="-63.5" font-family="Helvetica,sans-Serif" font-size="10.00">Process.h</text>
</a>
</g>
</g>
<!-- Node9&#45;&gt;Node20 -->
<g id="edge30" class="edge">
<title>Node9&#45;&gt;Node20</title>
<path fill="none" stroke="midnightblue" d="M522.22,-224.42C492.3,-210.2 436.6,-178.61 414,-132 407,-117.55 408.39,-99.1 411.01,-85.55"/>
<polygon fill="midnightblue" stroke="midnightblue" points="414.49,-86.05 413.35,-75.52 407.67,-84.47 414.49,-86.05"/>
</g>
<!-- Node12 -->
<g id="node12" class="node">
<title>Node12</title>
<g id="a_node12"><a xlink:href="Cast_8h.html" target="_top" xlink:title=" ">
<polygon fill="white" stroke="black" points="644.5,-56.5 644.5,-75.5 691.5,-75.5 691.5,-56.5 644.5,-56.5"/>
<text text-anchor="middle" x="668" y="-63.5" font-family="Helvetica,sans-Serif" font-size="10.00">Cast.h</text>
</a>
</g>
</g>
<!-- Node11&#45;&gt;Node12 -->
<g id="edge11" class="edge">
<title>Node11&#45;&gt;Node12</title>
<path fill="none" stroke="midnightblue" d="M570.93,-168.3C582.46,-159.65 600.16,-145.73 614,-132 629.37,-116.74 644.98,-97.46 655.43,-83.87"/>
<polygon fill="midnightblue" stroke="midnightblue" points="658.25,-85.95 661.5,-75.87 652.67,-81.72 658.25,-85.95"/>
</g>
<!-- Node13 -->
<g id="node13" class="node">
<title>Node13</title>
<g id="a_node13"><a xlink:href="Type__info_8h.html" target="_top" xlink:title=" ">
<polygon fill="white" stroke="black" points="423,-112.5 423,-131.5 495,-131.5 495,-112.5 423,-112.5"/>
<text text-anchor="middle" x="459" y="-119.5" font-family="Helvetica,sans-Serif" font-size="10.00">Type_info.h</text>
</a>
</g>
</g>
<!-- Node11&#45;&gt;Node13 -->
<g id="edge12" class="edge">
<title>Node11&#45;&gt;Node13</title>
<path fill="none" stroke="midnightblue" d="M542.93,-168.32C527.04,-159.74 502.49,-146.49 484.04,-136.52"/>
<polygon fill="midnightblue" stroke="midnightblue" points="485.49,-133.33 475.03,-131.65 482.16,-139.49 485.49,-133.33"/>
</g>
<!-- Node14 -->
<g id="node14" class="node">
<title>Node14</title>
<g id="a_node14"><a xlink:href="Declare__Base_8h.html" target="_top" xlink:title=" ">
<polygon fill="white" stroke="black" points="513,-112.5 513,-131.5 605,-131.5 605,-112.5 513,-112.5"/>
<text text-anchor="middle" x="559" y="-119.5" font-family="Helvetica,sans-Serif" font-size="10.00">Declare_Base.h</text>
</a>
</g>
</g>
<!-- Node11&#45;&gt;Node14 -->
<g id="edge13" class="edge">
<title>Node11&#45;&gt;Node14</title>
<path fill="none" stroke="midnightblue" d="M559,-168.08C559,-161.01 559,-150.86 559,-141.99"/>
<polygon fill="midnightblue" stroke="midnightblue" points="562.5,-141.75 559,-131.75 555.5,-141.75 562.5,-141.75"/>
</g>
<!-- Node15 -->
<g id="node15" class="node">
<title>Node15</title>
<g id="a_node15"><a xlink:href="Declare__Inst_8h.html" target="_top" xlink:title=" ">
<polygon fill="white" stroke="black" points="661,-112.5 661,-131.5 747,-131.5 747,-112.5 661,-112.5"/>
<text text-anchor="middle" x="704" y="-119.5" font-family="Helvetica,sans-Serif" font-size="10.00">Declare_Inst.h</text>
</a>
</g>
</g>
<!-- Node11&#45;&gt;Node15 -->
<g id="edge14" class="edge">
<title>Node11&#45;&gt;Node15</title>
<path fill="none" stroke="midnightblue" d="M581.98,-168.44C606.16,-159.44 644.42,-145.19 671.65,-135.05"/>
<polygon fill="midnightblue" stroke="midnightblue" points="672.98,-138.29 681.13,-131.52 670.54,-131.73 672.98,-138.29"/>
</g>
<!-- Node15&#45;&gt;Node12 -->
<g id="edge15" class="edge">
<title>Node15&#45;&gt;Node12</title>
<path fill="none" stroke="midnightblue" d="M698.06,-112.08C693.02,-104.53 685.66,-93.49 679.49,-84.23"/>
<polygon fill="midnightblue" stroke="midnightblue" points="682.29,-82.13 673.83,-75.75 676.47,-86.01 682.29,-82.13"/>
</g>
<!-- Node17 -->
<g id="node17" class="node">
<title>Node17</title>
<g id="a_node17"><a xlink:href="Entree_8h.html" target="_top" xlink:title=" ">
<polygon fill="white" stroke="black" points="309.5,-112.5 309.5,-131.5 366.5,-131.5 366.5,-112.5 309.5,-112.5"/>
<text text-anchor="middle" x="338" y="-119.5" font-family="Helvetica,sans-Serif" font-size="10.00">Entree.h</text>
</a>
</g>
</g>
<!-- Node16&#45;&gt;Node17 -->
<g id="edge17" class="edge">
<title>Node16&#45;&gt;Node17</title>
<path fill="none" stroke="midnightblue" d="M305.44,-168.08C310.95,-160.46 319.03,-149.26 325.76,-139.94"/>
<polygon fill="midnightblue" stroke="midnightblue" points="328.66,-141.91 331.68,-131.75 322.99,-137.81 328.66,-141.91"/>
</g>
<!-- Node21 -->
<g id="node21" class="node">
<title>Node21</title>
<g id="a_node21"><a xlink:href="Sortie_8h.html" target="_top" xlink:title=" ">
<polygon fill="white" stroke="black" points="141,-112.5 141,-131.5 195,-131.5 195,-112.5 141,-112.5"/>
<text text-anchor="middle" x="168" y="-119.5" font-family="Helvetica,sans-Serif" font-size="10.00">Sortie.h</text>
</a>
</g>
</g>
<!-- Node16&#45;&gt;Node21 -->
<g id="edge24" class="edge">
<title>Node16&#45;&gt;Node21</title>
<path fill="none" stroke="midnightblue" d="M278.24,-168.44C256.68,-159.56 222.74,-145.56 198.21,-135.45"/>
<polygon fill="midnightblue" stroke="midnightblue" points="199.24,-132.09 188.66,-131.52 196.57,-138.56 199.24,-132.09"/>
</g>
<!-- Node23 -->
<g id="node23" class="node">
<title>Node23</title>
<g id="a_node23"><a xlink:href="Separateur_8h.html" target="_top" xlink:title=" ">
<polygon fill="white" stroke="black" points="213,-112.5 213,-131.5 291,-131.5 291,-112.5 213,-112.5"/>
<text text-anchor="middle" x="252" y="-119.5" font-family="Helvetica,sans-Serif" font-size="10.00">Separateur.h</text>
</a>
</g>
</g>
<!-- Node16&#45;&gt;Node23 -->
<g id="edge29" class="edge">
<title>Node16&#45;&gt;Node23</title>
<path fill="none" stroke="midnightblue" d="M291.24,-168.08C284.46,-160.3 274.46,-148.8 266.24,-139.37"/>
<polygon fill="midnightblue" stroke="midnightblue" points="268.82,-137 259.62,-131.75 263.54,-141.59 268.82,-137"/>
</g>
<!-- Node17&#45;&gt;Node4 -->
<g id="edge20" class="edge">
<title>Node17&#45;&gt;Node4</title>
<path fill="none" stroke="midnightblue" d="M309.5,-113.15C275.88,-103.88 219.76,-88.42 181.84,-77.98"/>
<polygon fill="midnightblue" stroke="midnightblue" points="182.71,-74.59 172.14,-75.31 180.86,-81.34 182.71,-74.59"/>
</g>
<!-- Node17&#45;&gt;Node5 -->
<g id="edge23" class="edge">
<title>Node17&#45;&gt;Node5</title>
<path fill="none" stroke="midnightblue" d="M309.4,-114.06C306.23,-113.34 303.05,-112.64 300,-112 215.95,-94.38 191.49,-95.61 103.6,-75.97"/>
<polygon fill="midnightblue" stroke="midnightblue" points="104.26,-72.53 93.73,-73.73 102.71,-79.35 104.26,-72.53"/>
</g>
<!-- Node17&#45;&gt;Node10 -->
<g id="edge21" class="edge">
<title>Node17&#45;&gt;Node10</title>
<path fill="none" stroke="midnightblue" d="M366.67,-117.46C442.87,-108.04 650.43,-82.39 736.65,-71.74"/>
<polygon fill="midnightblue" stroke="midnightblue" points="737.29,-75.19 746.79,-70.49 736.44,-68.24 737.29,-75.19"/>
</g>
<!-- Node18 -->
<g id="node18" class="node">
<title>Node18</title>
<g id="a_node18"><a xlink:title=" ">
<polygon fill="white" stroke="#bfbfbf" points="252,-56.5 252,-75.5 302,-75.5 302,-56.5 252,-56.5"/>
<text text-anchor="middle" x="277" y="-63.5" font-family="Helvetica,sans-Serif" font-size="10.00">stdio.h</text>
</a>
</g>
</g>
<!-- Node17&#45;&gt;Node18 -->
<g id="edge18" class="edge">
<title>Node17&#45;&gt;Node18</title>
<path fill="none" stroke="midnightblue" d="M328.2,-112.32C319.18,-104.34 305.59,-92.31 294.68,-82.65"/>
<polygon fill="midnightblue" stroke="midnightblue" points="296.79,-79.84 286.98,-75.83 292.15,-85.08 296.79,-79.84"/>
</g>
<!-- Node19 -->
<g id="node19" class="node">
<title>Node19</title>
<g id="a_node19"><a xlink:title=" ">
<polygon fill="white" stroke="#bfbfbf" points="320,-56.5 320,-75.5 366,-75.5 366,-56.5 320,-56.5"/>
<text text-anchor="middle" x="343" y="-63.5" font-family="Helvetica,sans-Serif" font-size="10.00">cstdio</text>
</a>
</g>
</g>
<!-- Node17&#45;&gt;Node19 -->
<g id="edge19" class="edge">
<title>Node17&#45;&gt;Node19</title>
<path fill="none" stroke="midnightblue" d="M338.83,-112.08C339.48,-105.01 340.42,-94.86 341.24,-85.99"/>
<polygon fill="midnightblue" stroke="midnightblue" points="344.75,-86.03 342.19,-75.75 337.78,-85.39 344.75,-86.03"/>
</g>
<!-- Node17&#45;&gt;Node20 -->
<g id="edge22" class="edge">
<title>Node17&#45;&gt;Node20</title>
<path fill="none" stroke="midnightblue" d="M350.53,-112.32C362.59,-103.98 381.03,-91.21 395.27,-81.35"/>
<polygon fill="midnightblue" stroke="midnightblue" points="397.27,-84.22 403.5,-75.65 393.28,-78.47 397.27,-84.22"/>
</g>
<!-- Node21&#45;&gt;Node4 -->
<g id="edge25" class="edge">
<title>Node21&#45;&gt;Node4</title>
<path fill="none" stroke="midnightblue" d="M163.71,-112.08C160.15,-104.69 154.98,-93.95 150.58,-84.81"/>
<polygon fill="midnightblue" stroke="midnightblue" points="153.71,-83.24 146.21,-75.75 147.4,-86.28 153.71,-83.24"/>
</g>
<!-- Node21&#45;&gt;Node5 -->
<g id="edge27" class="edge">
<title>Node21&#45;&gt;Node5</title>
<path fill="none" stroke="midnightblue" d="M152.25,-112.32C136.68,-103.74 112.62,-90.49 94.54,-80.52"/>
<polygon fill="midnightblue" stroke="midnightblue" points="96.15,-77.42 85.71,-75.65 92.78,-83.55 96.15,-77.42"/>
</g>
<!-- Node21&#45;&gt;Node10 -->
<g id="edge26" class="edge">
<title>Node21&#45;&gt;Node10</title>
<path fill="none" stroke="midnightblue" d="M195.02,-113.71C198.04,-113.06 201.07,-112.47 204,-112 422.69,-77.01 480.57,-97.38 701,-76 712.64,-74.87 725.28,-73.42 736.76,-72.01"/>
<polygon fill="midnightblue" stroke="midnightblue" points="737.43,-75.45 746.92,-70.74 736.57,-68.51 737.43,-75.45"/>
</g>
<!-- Node22 -->
<g id="node22" class="node">
<title>Node22</title>
<g id="a_node22"><a xlink:title=" ">
<polygon fill="white" stroke="#bfbfbf" points="190,-56.5 190,-75.5 234,-75.5 234,-56.5 190,-56.5"/>
<text text-anchor="middle" x="212" y="-63.5" font-family="Helvetica,sans-Serif" font-size="10.00">string</text>
</a>
</g>
</g>
<!-- Node21&#45;&gt;Node22 -->
<g id="edge28" class="edge">
<title>Node21&#45;&gt;Node22</title>
<path fill="none" stroke="midnightblue" d="M175.27,-112.08C181.54,-104.38 190.79,-93.03 198.43,-83.65"/>
<polygon fill="midnightblue" stroke="midnightblue" points="201.27,-85.71 204.87,-75.75 195.84,-81.29 201.27,-85.71"/>
</g>
<!-- Node25 -->
<g id="node25" class="node">
<title>Node25</title>
<g id="a_node25"><a xlink:href="Memoire__ptr_8h.html" target="_top" xlink:title=" ">
<polygon fill="white" stroke="black" points="587.5,-280.5 587.5,-299.5 674.5,-299.5 674.5,-280.5 587.5,-280.5"/>
<text text-anchor="middle" x="631" y="-287.5" font-family="Helvetica,sans-Serif" font-size="10.00">Memoire_ptr.h</text>
</a>
</g>
</g>
<!-- Node24&#45;&gt;Node25 -->
<g id="edge32" class="edge">
<title>Node24&#45;&gt;Node25</title>
<path fill="none" stroke="midnightblue" d="M631,-336.08C631,-329.01 631,-318.86 631,-309.99"/>
<polygon fill="midnightblue" stroke="midnightblue" points="634.5,-309.75 631,-299.75 627.5,-309.75 634.5,-309.75"/>
</g>
<!-- Node25&#45;&gt;Node9 -->
<g id="edge33" class="edge">
<title>Node25&#45;&gt;Node9</title>
<path fill="none" stroke="midnightblue" d="M616.7,-280.32C602.82,-271.9 581.51,-258.97 565.2,-249.07"/>
<polygon fill="midnightblue" stroke="midnightblue" points="566.63,-245.85 556.26,-243.65 563,-251.83 566.63,-245.85"/>
</g>
<!-- Node25&#45;&gt;Node10 -->
<g id="edge34" class="edge">
<title>Node25&#45;&gt;Node10</title>
<path fill="none" stroke="midnightblue" d="M643.9,-280.28C673.91,-259.12 747.91,-201.62 775,-132 780.76,-117.21 780.19,-99.06 778.51,-85.7"/>
<polygon fill="midnightblue" stroke="midnightblue" points="781.96,-85.11 776.95,-75.78 775.04,-86.2 781.96,-85.11"/>
</g>
<!-- Node27&#45;&gt;Node9 -->
<g id="edge41" class="edge">
<title>Node27&#45;&gt;Node9</title>
<path fill="none" stroke="midnightblue" d="M479.89,-280.32C491.15,-272.11 508.29,-259.6 521.71,-249.81"/>
<polygon fill="midnightblue" stroke="midnightblue" points="523.88,-252.56 529.89,-243.83 519.75,-246.9 523.88,-252.56"/>
</g>
<!-- Node28 -->
<g id="node28" class="node">
<title>Node28</title>
<g id="a_node28"><a xlink:href="blas1_8h.html" target="_top" xlink:title=" ">
<polygon fill="white" stroke="black" points="0,-168.5 0,-187.5 52,-187.5 52,-168.5 0,-168.5"/>
<text text-anchor="middle" x="26" y="-175.5" font-family="Helvetica,sans-Serif" font-size="10.00">blas1.h</text>
</a>
</g>
</g>
<!-- Node27&#45;&gt;Node28 -->
<g id="edge39" class="edge">
<title>Node27&#45;&gt;Node28</title>
<path fill="none" stroke="midnightblue" d="M437.97,-281.53C359.17,-261.92 146.77,-209.05 61.82,-187.91"/>
<polygon fill="midnightblue" stroke="midnightblue" points="62.66,-184.52 52.11,-185.5 60.97,-191.31 62.66,-184.52"/>
</g>
<!-- Node29 -->
<g id="node29" class="node">
<title>Node29</title>
<g id="a_node29"><a xlink:title=" ">
<polygon fill="white" stroke="#bfbfbf" points="444.5,-224.5 444.5,-243.5 491.5,-243.5 491.5,-224.5 444.5,-224.5"/>
<text text-anchor="middle" x="468" y="-231.5" font-family="Helvetica,sans-Serif" font-size="10.00">cmath</text>
</a>
</g>
</g>
<!-- Node27&#45;&gt;Node29 -->
<g id="edge42" class="edge">
<title>Node27&#45;&gt;Node29</title>
<path fill="none" stroke="midnightblue" d="M468,-280.08C468,-273.01 468,-262.86 468,-253.99"/>
<polygon fill="midnightblue" stroke="midnightblue" points="471.5,-253.75 468,-243.75 464.5,-253.75 471.5,-253.75"/>
</g>
<!-- Node28&#45;&gt;Node5 -->
<g id="edge40" class="edge">
<title>Node28&#45;&gt;Node5</title>
<path fill="none" stroke="midnightblue" d="M22.53,-168.14C18.04,-155.2 11.7,-130.63 20,-112 25.57,-99.5 36.52,-89.01 46.75,-81.32"/>
<polygon fill="midnightblue" stroke="midnightblue" points="48.85,-84.12 55.05,-75.53 44.84,-78.38 48.85,-84.12"/>
</g>
<!-- Node33 -->
<g id="node33" class="node">
<title>Node33</title>
<g id="a_node33"><a xlink:title=" ">
<polygon fill="white" stroke="#bfbfbf" points="897.5,-336.5 897.5,-355.5 950.5,-355.5 950.5,-336.5 897.5,-336.5"/>
<text text-anchor="middle" x="924" y="-343.5" font-family="Helvetica,sans-Serif" font-size="10.00">string.h</text>
</a>
</g>
</g>
<!-- Node32&#45;&gt;Node33 -->
<g id="edge46" class="edge">
<title>Node32&#45;&gt;Node33</title>
<path fill="none" stroke="midnightblue" d="M924,-392.08C924,-385.01 924,-374.86 924,-365.99"/>
<polygon fill="midnightblue" stroke="midnightblue" points="927.5,-365.75 924,-355.75 920.5,-365.75 927.5,-365.75"/>
</g>
</g>
</svg>
