<?xml version="1.0" encoding="UTF-8" standalone="no"?>
<!DOCTYPE svg PUBLIC "-//W3C//DTD SVG 1.1//EN"
 "http://www.w3.org/Graphics/SVG/1.1/DTD/svg11.dtd">
<!-- Generated by graphviz version 2.43.0 (0)
 -->
<!-- Title: src/ThHyd/Multiphase/Schemas_Temps/SETS.h Pages: 1 -->
<svg width="1116pt" height="117pt"
 viewBox="0.00 0.00 1116.00 117.00" xmlns="http://www.w3.org/2000/svg" xmlns:xlink="http://www.w3.org/1999/xlink">
<g id="graph0" class="graph" transform="scale(1 1) rotate(0) translate(4 113)">
<title>src/ThHyd/Multiphase/Schemas_Temps/SETS.h</title>
<polygon fill="white" stroke="transparent" points="-4,4 -4,-113 1112,-113 1112,4 -4,4"/>
<!-- Node1 -->
<g id="node1" class="node">
<title>Node1</title>
<g id="a_node1"><a xlink:title=" ">
<polygon fill="#bfbfbf" stroke="black" points="512,-78.5 512,-108.5 649,-108.5 649,-78.5 512,-78.5"/>
<text text-anchor="start" x="520" y="-96.5" font-family="Helvetica,sans-Serif" font-size="10.00">src/ThHyd/Multiphase</text>
<text text-anchor="middle" x="580.5" y="-85.5" font-family="Helvetica,sans-Serif" font-size="10.00">/Schemas_Temps/SETS.h</text>
</a>
</g>
</g>
<!-- Node2 -->
<g id="node2" class="node">
<title>Node2</title>
<g id="a_node2"><a xlink:href="Aire__interfaciale_8cpp.html" target="_top" xlink:title=" ">
<polygon fill="white" stroke="black" points="0,-6 0,-36 171,-36 171,-6 0,-6"/>
<text text-anchor="start" x="8" y="-24" font-family="Helvetica,sans-Serif" font-size="10.00">src/ThHyd/Multiphase</text>
<text text-anchor="middle" x="85.5" y="-13" font-family="Helvetica,sans-Serif" font-size="10.00">/Equations/Aire_interfaciale.cpp</text>
</a>
</g>
</g>
<!-- Node1&#45;&gt;Node2 -->
<g id="edge1" class="edge">
<title>Node1&#45;&gt;Node2</title>
<path fill="none" stroke="midnightblue" d="M501.64,-84.56C420.57,-75.92 290.8,-60.81 179.5,-42 169.22,-40.26 158.35,-38.18 147.8,-36.03"/>
<polygon fill="midnightblue" stroke="midnightblue" points="501.46,-88.06 511.77,-85.63 502.19,-81.1 501.46,-88.06"/>
</g>
<!-- Node3 -->
<g id="node3" class="node">
<title>Node3</title>
<g id="a_node3"><a xlink:href="Energie__Multiphase_8cpp.html" target="_top" xlink:title=" ">
<polygon fill="white" stroke="black" points="189,-6 189,-36 376,-36 376,-6 189,-6"/>
<text text-anchor="start" x="197" y="-24" font-family="Helvetica,sans-Serif" font-size="10.00">src/ThHyd/Multiphase</text>
<text text-anchor="middle" x="282.5" y="-13" font-family="Helvetica,sans-Serif" font-size="10.00">/Equations/Energie_Multiphase.cpp</text>
</a>
</g>
</g>
<!-- Node1&#45;&gt;Node3 -->
<g id="edge2" class="edge">
<title>Node1&#45;&gt;Node3</title>
<path fill="none" stroke="midnightblue" d="M511.25,-76.12C459.92,-63.97 390.69,-47.59 341.87,-36.05"/>
<polygon fill="midnightblue" stroke="midnightblue" points="510.73,-79.59 521.27,-78.49 512.34,-72.78 510.73,-79.59"/>
</g>
<!-- Node4 -->
<g id="node4" class="node">
<title>Node4</title>
<g id="a_node4"><a xlink:href="Op__Evanescence__Homogene__PolyMAC__Elem_8cpp.html" target="_top" xlink:title=" ">
<polygon fill="white" stroke="black" points="394.5,-0.5 394.5,-41.5 568.5,-41.5 568.5,-0.5 394.5,-0.5"/>
<text text-anchor="start" x="402.5" y="-29.5" font-family="Helvetica,sans-Serif" font-size="10.00">src/ThHyd/Multiphase</text>
<text text-anchor="start" x="402.5" y="-18.5" font-family="Helvetica,sans-Serif" font-size="10.00">/PolyMAC/Op_Evanescence</text>
<text text-anchor="middle" x="481.5" y="-7.5" font-family="Helvetica,sans-Serif" font-size="10.00">_Homogene_PolyMAC_Elem.cpp</text>
</a>
</g>
</g>
<!-- Node1&#45;&gt;Node4 -->
<g id="edge3" class="edge">
<title>Node1&#45;&gt;Node4</title>
<path fill="none" stroke="midnightblue" d="M552.01,-72.21C538.49,-62.58 522.4,-51.12 509.01,-41.59"/>
<polygon fill="midnightblue" stroke="midnightblue" points="550.29,-75.28 560.47,-78.23 554.35,-69.58 550.29,-75.28"/>
</g>
<!-- Node5 -->
<g id="node5" class="node">
<title>Node5</title>
<g id="a_node5"><a xlink:href="Op__Evanescence__Homogene__PolyMAC__P0__Face_8cpp.html" target="_top" xlink:title=" ">
<polygon fill="white" stroke="black" points="586.5,-0.5 586.5,-41.5 774.5,-41.5 774.5,-0.5 586.5,-0.5"/>
<text text-anchor="start" x="594.5" y="-29.5" font-family="Helvetica,sans-Serif" font-size="10.00">src/ThHyd/Multiphase</text>
<text text-anchor="start" x="594.5" y="-18.5" font-family="Helvetica,sans-Serif" font-size="10.00">/PolyMAC/Op_Evanescence</text>
<text text-anchor="middle" x="680.5" y="-7.5" font-family="Helvetica,sans-Serif" font-size="10.00">_Homogene_PolyMAC_P0_Face.cpp</text>
</a>
</g>
</g>
<!-- Node1&#45;&gt;Node5 -->
<g id="edge4" class="edge">
<title>Node1&#45;&gt;Node5</title>
<path fill="none" stroke="midnightblue" d="M609.28,-72.21C622.94,-62.58 639.19,-51.12 652.71,-41.59"/>
<polygon fill="midnightblue" stroke="midnightblue" points="606.89,-69.61 600.74,-78.23 610.93,-75.33 606.89,-69.61"/>
</g>
<!-- Node6 -->
<g id="node6" class="node">
<title>Node6</title>
<g id="a_node6"><a xlink:href="SETS_8cpp.html" target="_top" xlink:title=" ">
<polygon fill="white" stroke="black" points="792.5,-6 792.5,-36 940.5,-36 940.5,-6 792.5,-6"/>
<text text-anchor="start" x="800.5" y="-24" font-family="Helvetica,sans-Serif" font-size="10.00">src/ThHyd/Multiphase</text>
<text text-anchor="middle" x="866.5" y="-13" font-family="Helvetica,sans-Serif" font-size="10.00">/Schemas_Temps/SETS.cpp</text>
</a>
</g>
</g>
<!-- Node1&#45;&gt;Node6 -->
<g id="edge5" class="edge">
<title>Node1&#45;&gt;Node6</title>
<path fill="none" stroke="midnightblue" d="M647.25,-76.05C696.4,-63.93 762.53,-47.63 809.27,-36.11"/>
<polygon fill="midnightblue" stroke="midnightblue" points="646.22,-72.7 637.35,-78.49 647.89,-79.49 646.22,-72.7"/>
</g>
<!-- Node7 -->
<g id="node7" class="node">
<title>Node7</title>
<g id="a_node7"><a xlink:href="Simple_8cpp.html" target="_top" xlink:title=" ">
<polygon fill="white" stroke="black" points="959,-6 959,-36 1108,-36 1108,-6 959,-6"/>
<text text-anchor="start" x="967" y="-24" font-family="Helvetica,sans-Serif" font-size="10.00">src/ThHyd/Schemas_Temps</text>
<text text-anchor="middle" x="1033.5" y="-13" font-family="Helvetica,sans-Serif" font-size="10.00">/Simple.cpp</text>
</a>
</g>
</g>
<!-- Node1&#45;&gt;Node7 -->
<g id="edge6" class="edge">
<title>Node1&#45;&gt;Node7</title>
<path fill="none" stroke="midnightblue" d="M659.47,-83.96C734.43,-75.31 850.1,-60.59 949.5,-42 958.78,-40.26 968.58,-38.17 978.09,-36"/>
<polygon fill="midnightblue" stroke="midnightblue" points="658.71,-80.52 649.17,-85.14 659.5,-87.48 658.71,-80.52"/>
</g>
</g>
</svg>
