<?xml version="1.0" encoding="UTF-8" standalone="no"?>
<!DOCTYPE svg PUBLIC "-//W3C//DTD SVG 1.1//EN"
 "http://www.w3.org/Graphics/SVG/1.1/DTD/svg11.dtd">
<!-- Generated by graphviz version 2.43.0 (0)
 -->
<!-- Title: src/Kernel/Utilitaires/SFichierBin.cpp Pages: 1 -->
<svg width="782pt" height="487pt"
 viewBox="0.00 0.00 782.00 487.00" xmlns="http://www.w3.org/2000/svg" xmlns:xlink="http://www.w3.org/1999/xlink">
<g id="graph0" class="graph" transform="scale(1 1) rotate(0) translate(4 483)">
<title>src/Kernel/Utilitaires/SFichierBin.cpp</title>
<polygon fill="white" stroke="transparent" points="-4,4 -4,-483 778,-483 778,4 -4,4"/>
<!-- Node1 -->
<g id="node1" class="node">
<title>Node1</title>
<g id="a_node1"><a xlink:title=" ">
<polygon fill="#bfbfbf" stroke="black" points="403,-448.5 403,-478.5 519,-478.5 519,-448.5 403,-448.5"/>
<text text-anchor="start" x="411" y="-466.5" font-family="Helvetica,sans-Serif" font-size="10.00">src/Kernel/Utilitaires</text>
<text text-anchor="middle" x="461" y="-455.5" font-family="Helvetica,sans-Serif" font-size="10.00">/SFichierBin.cpp</text>
</a>
</g>
</g>
<!-- Node2 -->
<g id="node2" class="node">
<title>Node2</title>
<g id="a_node2"><a xlink:href="SFichierBin_8h.html" target="_top" xlink:title=" ">
<polygon fill="white" stroke="black" points="421,-392.5 421,-411.5 501,-411.5 501,-392.5 421,-392.5"/>
<text text-anchor="middle" x="461" y="-399.5" font-family="Helvetica,sans-Serif" font-size="10.00">SFichierBin.h</text>
</a>
</g>
</g>
<!-- Node1&#45;&gt;Node2 -->
<g id="edge1" class="edge">
<title>Node1&#45;&gt;Node2</title>
<path fill="none" stroke="midnightblue" d="M461,-448.4C461,-440.47 461,-430.46 461,-421.86"/>
<polygon fill="midnightblue" stroke="midnightblue" points="464.5,-421.66 461,-411.66 457.5,-421.66 464.5,-421.66"/>
</g>
<!-- Node3 -->
<g id="node3" class="node">
<title>Node3</title>
<g id="a_node3"><a xlink:href="SFichier_8h.html" target="_top" xlink:title=" ">
<polygon fill="white" stroke="black" points="429.5,-336.5 429.5,-355.5 492.5,-355.5 492.5,-336.5 429.5,-336.5"/>
<text text-anchor="middle" x="461" y="-343.5" font-family="Helvetica,sans-Serif" font-size="10.00">SFichier.h</text>
</a>
</g>
</g>
<!-- Node2&#45;&gt;Node3 -->
<g id="edge2" class="edge">
<title>Node2&#45;&gt;Node3</title>
<path fill="none" stroke="midnightblue" d="M461,-392.08C461,-385.01 461,-374.86 461,-365.99"/>
<polygon fill="midnightblue" stroke="midnightblue" points="464.5,-365.75 461,-355.75 457.5,-365.75 464.5,-365.75"/>
</g>
<!-- Node4 -->
<g id="node4" class="node">
<title>Node4</title>
<g id="a_node4"><a xlink:href="Sortie__Fichier__base_8h.html" target="_top" xlink:title=" ">
<polygon fill="white" stroke="black" points="401,-280.5 401,-299.5 521,-299.5 521,-280.5 401,-280.5"/>
<text text-anchor="middle" x="461" y="-287.5" font-family="Helvetica,sans-Serif" font-size="10.00">Sortie_Fichier_base.h</text>
</a>
</g>
</g>
<!-- Node3&#45;&gt;Node4 -->
<g id="edge3" class="edge">
<title>Node3&#45;&gt;Node4</title>
<path fill="none" stroke="midnightblue" d="M461,-336.08C461,-329.01 461,-318.86 461,-309.99"/>
<polygon fill="midnightblue" stroke="midnightblue" points="464.5,-309.75 461,-299.75 457.5,-309.75 464.5,-309.75"/>
</g>
<!-- Node5 -->
<g id="node5" class="node">
<title>Node5</title>
<g id="a_node5"><a xlink:href="Sortie_8h.html" target="_top" xlink:title=" ">
<polygon fill="white" stroke="black" points="590,-112.5 590,-131.5 644,-131.5 644,-112.5 590,-112.5"/>
<text text-anchor="middle" x="617" y="-119.5" font-family="Helvetica,sans-Serif" font-size="10.00">Sortie.h</text>
</a>
</g>
</g>
<!-- Node4&#45;&gt;Node5 -->
<g id="edge4" class="edge">
<title>Node4&#45;&gt;Node5</title>
<path fill="none" stroke="midnightblue" d="M469.39,-280.08C494.58,-253.27 569.83,-173.19 602.07,-138.89"/>
<polygon fill="midnightblue" stroke="midnightblue" points="604.65,-141.25 608.95,-131.57 599.55,-136.46 604.65,-141.25"/>
</g>
<!-- Node11 -->
<g id="node11" class="node">
<title>Node11</title>
<g id="a_node11"><a xlink:href="Objet__U_8h.html" target="_top" xlink:title=" ">
<polygon fill="white" stroke="black" points="357.5,-224.5 357.5,-243.5 422.5,-243.5 422.5,-224.5 357.5,-224.5"/>
<text text-anchor="middle" x="390" y="-231.5" font-family="Helvetica,sans-Serif" font-size="10.00">Objet_U.h</text>
</a>
</g>
</g>
<!-- Node4&#45;&gt;Node11 -->
<g id="edge10" class="edge">
<title>Node4&#45;&gt;Node11</title>
<path fill="none" stroke="midnightblue" d="M449.59,-280.32C438.89,-272.18 422.66,-259.84 409.84,-250.09"/>
<polygon fill="midnightblue" stroke="midnightblue" points="411.69,-247.1 401.61,-243.83 407.46,-252.67 411.69,-247.1"/>
</g>
<!-- Node6 -->
<g id="node6" class="node">
<title>Node6</title>
<g id="a_node6"><a xlink:title=" ">
<polygon fill="white" stroke="#bfbfbf" points="586,-56.5 586,-75.5 646,-75.5 646,-56.5 586,-56.5"/>
<text text-anchor="middle" x="616" y="-63.5" font-family="Helvetica,sans-Serif" font-size="10.00">iostream</text>
</a>
</g>
</g>
<!-- Node5&#45;&gt;Node6 -->
<g id="edge5" class="edge">
<title>Node5&#45;&gt;Node6</title>
<path fill="none" stroke="midnightblue" d="M616.83,-112.08C616.7,-105.01 616.52,-94.86 616.35,-85.99"/>
<polygon fill="midnightblue" stroke="midnightblue" points="619.85,-85.68 616.16,-75.75 612.85,-85.81 619.85,-85.68"/>
</g>
<!-- Node7 -->
<g id="node7" class="node">
<title>Node7</title>
<g id="a_node7"><a xlink:title=" ">
<polygon fill="white" stroke="#bfbfbf" points="444,-56.5 444,-75.5 500,-75.5 500,-56.5 444,-56.5"/>
<text text-anchor="middle" x="472" y="-63.5" font-family="Helvetica,sans-Serif" font-size="10.00">assert.h</text>
</a>
</g>
</g>
<!-- Node5&#45;&gt;Node7 -->
<g id="edge6" class="edge">
<title>Node5&#45;&gt;Node7</title>
<path fill="none" stroke="midnightblue" d="M594.02,-112.44C569.84,-103.44 531.58,-89.19 504.35,-79.05"/>
<polygon fill="midnightblue" stroke="midnightblue" points="505.46,-75.73 494.87,-75.52 503.02,-82.29 505.46,-75.73"/>
</g>
<!-- Node8 -->
<g id="node8" class="node">
<title>Node8</title>
<g id="a_node8"><a xlink:href="arch_8h.html" target="_top" xlink:title=" ">
<polygon fill="white" stroke="black" points="664.5,-56.5 664.5,-75.5 711.5,-75.5 711.5,-56.5 664.5,-56.5"/>
<text text-anchor="middle" x="688" y="-63.5" font-family="Helvetica,sans-Serif" font-size="10.00">arch.h</text>
</a>
</g>
</g>
<!-- Node5&#45;&gt;Node8 -->
<g id="edge7" class="edge">
<title>Node5&#45;&gt;Node8</title>
<path fill="none" stroke="midnightblue" d="M628.41,-112.32C639.11,-104.18 655.34,-91.84 668.16,-82.09"/>
<polygon fill="midnightblue" stroke="midnightblue" points="670.54,-84.67 676.39,-75.83 666.31,-79.1 670.54,-84.67"/>
</g>
<!-- Node10 -->
<g id="node10" class="node">
<title>Node10</title>
<g id="a_node10"><a xlink:title=" ">
<polygon fill="white" stroke="#bfbfbf" points="730,-56.5 730,-75.5 774,-75.5 774,-56.5 730,-56.5"/>
<text text-anchor="middle" x="752" y="-63.5" font-family="Helvetica,sans-Serif" font-size="10.00">string</text>
</a>
</g>
</g>
<!-- Node5&#45;&gt;Node10 -->
<g id="edge9" class="edge">
<title>Node5&#45;&gt;Node10</title>
<path fill="none" stroke="midnightblue" d="M638.39,-112.44C660.71,-103.52 695.9,-89.44 721.21,-79.32"/>
<polygon fill="midnightblue" stroke="midnightblue" points="722.72,-82.48 730.71,-75.52 720.12,-75.98 722.72,-82.48"/>
</g>
<!-- Node9 -->
<g id="node9" class="node">
<title>Node9</title>
<g id="a_node9"><a xlink:href="generique_8h.html" target="_top" xlink:title=" ">
<polygon fill="white" stroke="black" points="651,-0.5 651,-19.5 725,-19.5 725,-0.5 651,-0.5"/>
<text text-anchor="middle" x="688" y="-7.5" font-family="Helvetica,sans-Serif" font-size="10.00">generique.h</text>
</a>
</g>
</g>
<!-- Node8&#45;&gt;Node9 -->
<g id="edge8" class="edge">
<title>Node8&#45;&gt;Node9</title>
<path fill="none" stroke="midnightblue" d="M688,-56.08C688,-49.01 688,-38.86 688,-29.99"/>
<polygon fill="midnightblue" stroke="midnightblue" points="691.5,-29.75 688,-19.75 684.5,-29.75 691.5,-29.75"/>
</g>
<!-- Node11&#45;&gt;Node7 -->
<g id="edge11" class="edge">
<title>Node11&#45;&gt;Node7</title>
<path fill="none" stroke="midnightblue" d="M389.19,-224.31C387.66,-203.29 386.32,-148.73 409,-112 417.3,-98.56 431.25,-87.98 443.91,-80.47"/>
<polygon fill="midnightblue" stroke="midnightblue" points="445.76,-83.44 452.81,-75.54 442.37,-77.32 445.76,-83.44"/>
</g>
<!-- Node12 -->
<g id="node12" class="node">
<title>Node12</title>
<g id="a_node12"><a xlink:href="DecBaseInst_8h.html" target="_top" xlink:title=" ">
<polygon fill="white" stroke="black" points="135,-168.5 135,-187.5 221,-187.5 221,-168.5 135,-168.5"/>
<text text-anchor="middle" x="178" y="-175.5" font-family="Helvetica,sans-Serif" font-size="10.00">DecBaseInst.h</text>
</a>
</g>
</g>
<!-- Node11&#45;&gt;Node12 -->
<g id="edge12" class="edge">
<title>Node11&#45;&gt;Node12</title>
<path fill="none" stroke="midnightblue" d="M357.34,-224.68C320.83,-215.38 261.54,-200.28 221.22,-190.01"/>
<polygon fill="midnightblue" stroke="midnightblue" points="221.95,-186.58 211.4,-187.51 220.22,-193.37 221.95,-186.58"/>
</g>
<!-- Node17 -->
<g id="node17" class="node">
<title>Node17</title>
<g id="a_node17"><a xlink:href="EntreeSortie_8h.html" target="_top" xlink:title=" ">
<polygon fill="white" stroke="black" points="459,-168.5 459,-187.5 545,-187.5 545,-168.5 459,-168.5"/>
<text text-anchor="middle" x="502" y="-175.5" font-family="Helvetica,sans-Serif" font-size="10.00">EntreeSortie.h</text>
</a>
</g>
</g>
<!-- Node11&#45;&gt;Node17 -->
<g id="edge18" class="edge">
<title>Node11&#45;&gt;Node17</title>
<path fill="none" stroke="midnightblue" d="M407.99,-224.32C426.04,-215.62 454.05,-202.12 474.8,-192.11"/>
<polygon fill="midnightblue" stroke="midnightblue" points="476.56,-195.15 484.05,-187.65 473.52,-188.84 476.56,-195.15"/>
</g>
<!-- Node21 -->
<g id="node21" class="node">
<title>Node21</title>
<g id="a_node21"><a xlink:href="Process_8h.html" target="_top" xlink:title=" ">
<polygon fill="white" stroke="black" points="298.5,-56.5 298.5,-75.5 361.5,-75.5 361.5,-56.5 298.5,-56.5"/>
<text text-anchor="middle" x="330" y="-63.5" font-family="Helvetica,sans-Serif" font-size="10.00">Process.h</text>
</a>
</g>
</g>
<!-- Node11&#45;&gt;Node21 -->
<g id="edge28" class="edge">
<title>Node11&#45;&gt;Node21</title>
<path fill="none" stroke="midnightblue" d="M386.77,-224.08C377.29,-197.83 349.35,-120.55 336.55,-85.12"/>
<polygon fill="midnightblue" stroke="midnightblue" points="339.79,-83.78 333.1,-75.57 333.2,-86.16 339.79,-83.78"/>
</g>
<!-- Node13 -->
<g id="node13" class="node">
<title>Node13</title>
<g id="a_node13"><a xlink:href="Cast_8h.html" target="_top" xlink:title=" ">
<polygon fill="white" stroke="black" points="55.5,-56.5 55.5,-75.5 102.5,-75.5 102.5,-56.5 55.5,-56.5"/>
<text text-anchor="middle" x="79" y="-63.5" font-family="Helvetica,sans-Serif" font-size="10.00">Cast.h</text>
</a>
</g>
</g>
<!-- Node12&#45;&gt;Node13 -->
<g id="edge13" class="edge">
<title>Node12&#45;&gt;Node13</title>
<path fill="none" stroke="midnightblue" d="M168.79,-168.27C159.51,-159.38 144.91,-145.06 133,-132 118.4,-115.99 102.68,-96.83 91.99,-83.47"/>
<polygon fill="midnightblue" stroke="midnightblue" points="94.71,-81.27 85.75,-75.63 89.23,-85.63 94.71,-81.27"/>
</g>
<!-- Node14 -->
<g id="node14" class="node">
<title>Node14</title>
<g id="a_node14"><a xlink:href="Type__info_8h.html" target="_top" xlink:title=" ">
<polygon fill="white" stroke="black" points="142,-112.5 142,-131.5 214,-131.5 214,-112.5 142,-112.5"/>
<text text-anchor="middle" x="178" y="-119.5" font-family="Helvetica,sans-Serif" font-size="10.00">Type_info.h</text>
</a>
</g>
</g>
<!-- Node12&#45;&gt;Node14 -->
<g id="edge14" class="edge">
<title>Node12&#45;&gt;Node14</title>
<path fill="none" stroke="midnightblue" d="M178,-168.08C178,-161.01 178,-150.86 178,-141.99"/>
<polygon fill="midnightblue" stroke="midnightblue" points="181.5,-141.75 178,-131.75 174.5,-141.75 181.5,-141.75"/>
</g>
<!-- Node15 -->
<g id="node15" class="node">
<title>Node15</title>
<g id="a_node15"><a xlink:href="Declare__Base_8h.html" target="_top" xlink:title=" ">
<polygon fill="white" stroke="black" points="232,-112.5 232,-131.5 324,-131.5 324,-112.5 232,-112.5"/>
<text text-anchor="middle" x="278" y="-119.5" font-family="Helvetica,sans-Serif" font-size="10.00">Declare_Base.h</text>
</a>
</g>
</g>
<!-- Node12&#45;&gt;Node15 -->
<g id="edge15" class="edge">
<title>Node12&#45;&gt;Node15</title>
<path fill="none" stroke="midnightblue" d="M194.07,-168.32C209.96,-159.74 234.51,-146.49 252.96,-136.52"/>
<polygon fill="midnightblue" stroke="midnightblue" points="254.84,-139.49 261.97,-131.65 251.51,-133.33 254.84,-139.49"/>
</g>
<!-- Node16 -->
<g id="node16" class="node">
<title>Node16</title>
<g id="a_node16"><a xlink:href="Declare__Inst_8h.html" target="_top" xlink:title=" ">
<polygon fill="white" stroke="black" points="0,-112.5 0,-131.5 86,-131.5 86,-112.5 0,-112.5"/>
<text text-anchor="middle" x="43" y="-119.5" font-family="Helvetica,sans-Serif" font-size="10.00">Declare_Inst.h</text>
</a>
</g>
</g>
<!-- Node12&#45;&gt;Node16 -->
<g id="edge16" class="edge">
<title>Node12&#45;&gt;Node16</title>
<path fill="none" stroke="midnightblue" d="M156.61,-168.44C134.29,-159.52 99.1,-145.44 73.79,-135.32"/>
<polygon fill="midnightblue" stroke="midnightblue" points="74.88,-131.98 64.29,-131.52 72.28,-138.48 74.88,-131.98"/>
</g>
<!-- Node16&#45;&gt;Node13 -->
<g id="edge17" class="edge">
<title>Node16&#45;&gt;Node13</title>
<path fill="none" stroke="midnightblue" d="M48.94,-112.08C53.98,-104.53 61.34,-93.49 67.51,-84.23"/>
<polygon fill="midnightblue" stroke="midnightblue" points="70.53,-86.01 73.17,-75.75 64.71,-82.13 70.53,-86.01"/>
</g>
<!-- Node17&#45;&gt;Node5 -->
<g id="edge26" class="edge">
<title>Node17&#45;&gt;Node5</title>
<path fill="none" stroke="midnightblue" d="M520.22,-168.44C538.9,-159.68 568.16,-145.94 589.62,-135.86"/>
<polygon fill="midnightblue" stroke="midnightblue" points="591.3,-138.93 598.86,-131.52 588.32,-132.6 591.3,-138.93"/>
</g>
<!-- Node18 -->
<g id="node18" class="node">
<title>Node18</title>
<g id="a_node18"><a xlink:href="Entree_8h.html" target="_top" xlink:title=" ">
<polygon fill="white" stroke="black" points="514.5,-112.5 514.5,-131.5 571.5,-131.5 571.5,-112.5 514.5,-112.5"/>
<text text-anchor="middle" x="543" y="-119.5" font-family="Helvetica,sans-Serif" font-size="10.00">Entree.h</text>
</a>
</g>
</g>
<!-- Node17&#45;&gt;Node18 -->
<g id="edge19" class="edge">
<title>Node17&#45;&gt;Node18</title>
<path fill="none" stroke="midnightblue" d="M508.77,-168.08C514.56,-160.46 523.06,-149.26 530.14,-139.94"/>
<polygon fill="midnightblue" stroke="midnightblue" points="533.1,-141.83 536.36,-131.75 527.52,-137.6 533.1,-141.83"/>
</g>
<!-- Node22 -->
<g id="node22" class="node">
<title>Node22</title>
<g id="a_node22"><a xlink:href="Separateur_8h.html" target="_top" xlink:title=" ">
<polygon fill="white" stroke="black" points="418,-112.5 418,-131.5 496,-131.5 496,-112.5 418,-112.5"/>
<text text-anchor="middle" x="457" y="-119.5" font-family="Helvetica,sans-Serif" font-size="10.00">Separateur.h</text>
</a>
</g>
</g>
<!-- Node17&#45;&gt;Node22 -->
<g id="edge27" class="edge">
<title>Node17&#45;&gt;Node22</title>
<path fill="none" stroke="midnightblue" d="M494.57,-168.08C488.15,-160.38 478.69,-149.03 470.88,-139.65"/>
<polygon fill="midnightblue" stroke="midnightblue" points="473.38,-137.19 464.29,-131.75 468.01,-141.67 473.38,-137.19"/>
</g>
<!-- Node18&#45;&gt;Node6 -->
<g id="edge22" class="edge">
<title>Node18&#45;&gt;Node6</title>
<path fill="none" stroke="midnightblue" d="M554.73,-112.32C565.84,-104.11 582.74,-91.6 595.98,-81.81"/>
<polygon fill="midnightblue" stroke="midnightblue" points="598.1,-84.59 604.06,-75.83 593.94,-78.97 598.1,-84.59"/>
</g>
<!-- Node18&#45;&gt;Node7 -->
<g id="edge23" class="edge">
<title>Node18&#45;&gt;Node7</title>
<path fill="none" stroke="midnightblue" d="M531.59,-112.32C520.89,-104.18 504.66,-91.84 491.84,-82.09"/>
<polygon fill="midnightblue" stroke="midnightblue" points="493.69,-79.1 483.61,-75.83 489.46,-84.67 493.69,-79.1"/>
</g>
<!-- Node18&#45;&gt;Node8 -->
<g id="edge25" class="edge">
<title>Node18&#45;&gt;Node8</title>
<path fill="none" stroke="midnightblue" d="M565.98,-112.44C590.16,-103.44 628.42,-89.19 655.65,-79.05"/>
<polygon fill="midnightblue" stroke="midnightblue" points="656.98,-82.29 665.13,-75.52 654.54,-75.73 656.98,-82.29"/>
</g>
<!-- Node19 -->
<g id="node19" class="node">
<title>Node19</title>
<g id="a_node19"><a xlink:title=" ">
<polygon fill="white" stroke="#bfbfbf" points="518,-56.5 518,-75.5 568,-75.5 568,-56.5 518,-56.5"/>
<text text-anchor="middle" x="543" y="-63.5" font-family="Helvetica,sans-Serif" font-size="10.00">stdio.h</text>
</a>
</g>
</g>
<!-- Node18&#45;&gt;Node19 -->
<g id="edge20" class="edge">
<title>Node18&#45;&gt;Node19</title>
<path fill="none" stroke="midnightblue" d="M543,-112.08C543,-105.01 543,-94.86 543,-85.99"/>
<polygon fill="midnightblue" stroke="midnightblue" points="546.5,-85.75 543,-75.75 539.5,-85.75 546.5,-85.75"/>
</g>
<!-- Node20 -->
<g id="node20" class="node">
<title>Node20</title>
<g id="a_node20"><a xlink:title=" ">
<polygon fill="white" stroke="#bfbfbf" points="380,-56.5 380,-75.5 426,-75.5 426,-56.5 380,-56.5"/>
<text text-anchor="middle" x="403" y="-63.5" font-family="Helvetica,sans-Serif" font-size="10.00">cstdio</text>
</a>
</g>
</g>
<!-- Node18&#45;&gt;Node20 -->
<g id="edge21" class="edge">
<title>Node18&#45;&gt;Node20</title>
<path fill="none" stroke="midnightblue" d="M520.82,-112.44C497.57,-103.48 460.85,-89.31 434.58,-79.18"/>
<polygon fill="midnightblue" stroke="midnightblue" points="435.67,-75.85 425.08,-75.52 433.15,-82.38 435.67,-75.85"/>
</g>
<!-- Node18&#45;&gt;Node21 -->
<g id="edge24" class="edge">
<title>Node18&#45;&gt;Node21</title>
<path fill="none" stroke="midnightblue" d="M514.27,-113.72C477.56,-104.41 413.72,-88.23 371.67,-77.56"/>
<polygon fill="midnightblue" stroke="midnightblue" points="372.29,-74.11 361.73,-75.05 370.57,-80.9 372.29,-74.11"/>
</g>
</g>
</svg>
