<?xml version="1.0" encoding="UTF-8" standalone="no"?>
<!DOCTYPE svg PUBLIC "-//W3C//DTD SVG 1.1//EN"
 "http://www.w3.org/Graphics/SVG/1.1/DTD/svg11.dtd">
<!-- Generated by graphviz version 2.43.0 (0)
 -->
<!-- Title: src/Kernel/Utilitaires/SFichierBin.h Pages: 1 -->
<svg width="558pt" height="117pt"
 viewBox="0.00 0.00 557.50 117.00" xmlns="http://www.w3.org/2000/svg" xmlns:xlink="http://www.w3.org/1999/xlink">
<g id="graph0" class="graph" transform="scale(1 1) rotate(0) translate(4 113)">
<title>src/Kernel/Utilitaires/SFichierBin.h</title>
<polygon fill="white" stroke="transparent" points="-4,4 -4,-113 553.5,-113 553.5,4 -4,4"/>
<!-- Node1 -->
<g id="node1" class="node">
<title>Node1</title>
<g id="a_node1"><a xlink:title=" ">
<polygon fill="#bfbfbf" stroke="black" points="212.5,-78.5 212.5,-108.5 328.5,-108.5 328.5,-78.5 212.5,-78.5"/>
<text text-anchor="start" x="220.5" y="-96.5" font-family="Helvetica,sans-Serif" font-size="10.00">src/Kernel/Utilitaires</text>
<text text-anchor="middle" x="270.5" y="-85.5" font-family="Helvetica,sans-Serif" font-size="10.00">/SFichierBin.h</text>
</a>
</g>
</g>
<!-- Node2 -->
<g id="node2" class="node">
<title>Node2</title>
<g id="a_node2"><a xlink:href="Distanceparoi_8cpp.html" target="_top" xlink:title=" ">
<polygon fill="white" stroke="black" points="0,-6 0,-36 119,-36 119,-6 0,-6"/>
<text text-anchor="start" x="8" y="-24" font-family="Helvetica,sans-Serif" font-size="10.00">src/Kernel/Geometrie</text>
<text text-anchor="middle" x="59.5" y="-13" font-family="Helvetica,sans-Serif" font-size="10.00">/Distanceparoi.cpp</text>
</a>
</g>
</g>
<!-- Node1&#45;&gt;Node2 -->
<g id="edge1" class="edge">
<title>Node1&#45;&gt;Node2</title>
<path fill="none" stroke="midnightblue" d="M218.74,-75.2C182.76,-63.18 135.41,-47.36 101.72,-36.11"/>
<polygon fill="midnightblue" stroke="midnightblue" points="217.97,-78.64 228.56,-78.49 220.19,-72 217.97,-78.64"/>
</g>
<!-- Node3 -->
<g id="node3" class="node">
<title>Node3</title>
<g id="a_node3"><a xlink:href="DomaineCutter_8cpp.html" target="_top" xlink:title=" ">
<polygon fill="white" stroke="black" points="137,-6 137,-36 256,-36 256,-6 137,-6"/>
<text text-anchor="start" x="145" y="-24" font-family="Helvetica,sans-Serif" font-size="10.00">src/Kernel/Geometrie</text>
<text text-anchor="middle" x="196.5" y="-13" font-family="Helvetica,sans-Serif" font-size="10.00">/DomaineCutter.cpp</text>
</a>
</g>
</g>
<!-- Node1&#45;&gt;Node3 -->
<g id="edge2" class="edge">
<title>Node1&#45;&gt;Node3</title>
<path fill="none" stroke="midnightblue" d="M248.13,-71.19C236.25,-59.87 221.98,-46.27 211.45,-36.25"/>
<polygon fill="midnightblue" stroke="midnightblue" points="245.87,-73.87 255.52,-78.23 250.7,-68.8 245.87,-73.87"/>
</g>
<!-- Node4 -->
<g id="node4" class="node">
<title>Node4</title>
<g id="a_node4"><a xlink:href="Read__unsupported__ASCII__file__from__ICEM_8cpp.html" target="_top" xlink:title=" ">
<polygon fill="white" stroke="black" points="274,-0.5 274,-41.5 415,-41.5 415,-0.5 274,-0.5"/>
<text text-anchor="start" x="282" y="-29.5" font-family="Helvetica,sans-Serif" font-size="10.00">src/Kernel/Utilitaires</text>
<text text-anchor="start" x="282" y="-18.5" font-family="Helvetica,sans-Serif" font-size="10.00">/Read_unsupported_ASCII</text>
<text text-anchor="middle" x="344.5" y="-7.5" font-family="Helvetica,sans-Serif" font-size="10.00">_file_from_ICEM.cpp</text>
</a>
</g>
</g>
<!-- Node1&#45;&gt;Node4 -->
<g id="edge3" class="edge">
<title>Node1&#45;&gt;Node4</title>
<path fill="none" stroke="midnightblue" d="M292.96,-71.1C302.82,-61.71 314.31,-50.76 323.94,-41.59"/>
<polygon fill="midnightblue" stroke="midnightblue" points="290.3,-68.8 285.48,-78.23 295.13,-73.87 290.3,-68.8"/>
</g>
<!-- Node5 -->
<g id="node5" class="node">
<title>Node5</title>
<g id="a_node5"><a xlink:href="SFichierBin_8cpp.html" target="_top" xlink:title=" ">
<polygon fill="white" stroke="black" points="433.5,-6 433.5,-36 549.5,-36 549.5,-6 433.5,-6"/>
<text text-anchor="start" x="441.5" y="-24" font-family="Helvetica,sans-Serif" font-size="10.00">src/Kernel/Utilitaires</text>
<text text-anchor="middle" x="491.5" y="-13" font-family="Helvetica,sans-Serif" font-size="10.00">/SFichierBin.cpp</text>
</a>
</g>
</g>
<!-- Node1&#45;&gt;Node5 -->
<g id="edge4" class="edge">
<title>Node1&#45;&gt;Node5</title>
<path fill="none" stroke="midnightblue" d="M324.23,-75.36C361.97,-63.32 411.84,-47.41 447.28,-36.11"/>
<polygon fill="midnightblue" stroke="midnightblue" points="322.89,-72.11 314.43,-78.49 325.02,-78.78 322.89,-72.11"/>
</g>
</g>
</svg>
