<?xml version="1.0" encoding="UTF-8" standalone="no"?>
<!DOCTYPE svg PUBLIC "-//W3C//DTD SVG 1.1//EN"
 "http://www.w3.org/Graphics/SVG/1.1/DTD/svg11.dtd">
<!-- Generated by graphviz version 2.43.0 (0)
 -->
<!-- Title: src/ThHyd/Schemas_Temps/Simpler.h Pages: 1 -->
<svg width="1786pt" height="184pt"
 viewBox="0.00 0.00 1786.00 184.00" xmlns="http://www.w3.org/2000/svg" xmlns:xlink="http://www.w3.org/1999/xlink">
<g id="graph0" class="graph" transform="scale(1 1) rotate(0) translate(4 180)">
<title>src/ThHyd/Schemas_Temps/Simpler.h</title>
<polygon fill="white" stroke="transparent" points="-4,4 -4,-180 1782,-180 1782,4 -4,4"/>
<!-- Node1 -->
<g id="node1" class="node">
<title>Node1</title>
<g id="a_node1"><a xlink:title=" ">
<polygon fill="#bfbfbf" stroke="black" points="1280,-145.5 1280,-175.5 1429,-175.5 1429,-145.5 1280,-145.5"/>
<text text-anchor="start" x="1288" y="-163.5" font-family="Helvetica,sans-Serif" font-size="10.00">src/ThHyd/Schemas_Temps</text>
<text text-anchor="middle" x="1354.5" y="-152.5" font-family="Helvetica,sans-Serif" font-size="10.00">/Simpler.h</text>
</a>
</g>
</g>
<!-- Node2 -->
<g id="node2" class="node">
<title>Node2</title>
<g id="a_node2"><a xlink:href="SETS_8h.html" target="_top" xlink:title=" ">
<polygon fill="white" stroke="black" points="612,-78.5 612,-108.5 749,-108.5 749,-78.5 612,-78.5"/>
<text text-anchor="start" x="620" y="-96.5" font-family="Helvetica,sans-Serif" font-size="10.00">src/ThHyd/Multiphase</text>
<text text-anchor="middle" x="680.5" y="-85.5" font-family="Helvetica,sans-Serif" font-size="10.00">/Schemas_Temps/SETS.h</text>
</a>
</g>
</g>
<!-- Node1&#45;&gt;Node2 -->
<g id="edge1" class="edge">
<title>Node1&#45;&gt;Node2</title>
<path fill="none" stroke="midnightblue" d="M1269.5,-151.3C1134.5,-138.28 873.65,-113.13 749.46,-101.15"/>
<polygon fill="midnightblue" stroke="midnightblue" points="1269.51,-154.82 1279.79,-152.3 1270.18,-147.85 1269.51,-154.82"/>
</g>
<!-- Node9 -->
<g id="node9" class="node">
<title>Node9</title>
<g id="a_node9"><a xlink:href="Piso_8h.html" target="_top" xlink:title=" ">
<polygon fill="white" stroke="black" points="1280,-78.5 1280,-108.5 1429,-108.5 1429,-78.5 1280,-78.5"/>
<text text-anchor="start" x="1288" y="-96.5" font-family="Helvetica,sans-Serif" font-size="10.00">src/ThHyd/Schemas_Temps</text>
<text text-anchor="middle" x="1354.5" y="-85.5" font-family="Helvetica,sans-Serif" font-size="10.00">/Piso.h</text>
</a>
</g>
</g>
<!-- Node1&#45;&gt;Node9 -->
<g id="edge8" class="edge">
<title>Node1&#45;&gt;Node9</title>
<path fill="none" stroke="midnightblue" d="M1354.5,-135.11C1354.5,-126.15 1354.5,-116.32 1354.5,-108.58"/>
<polygon fill="midnightblue" stroke="midnightblue" points="1351,-135.4 1354.5,-145.4 1358,-135.4 1351,-135.4"/>
</g>
<!-- Node14 -->
<g id="node14" class="node">
<title>Node14</title>
<g id="a_node14"><a xlink:href="Simpler_8cpp.html" target="_top" xlink:title=" ">
<polygon fill="white" stroke="black" points="1447,-78.5 1447,-108.5 1596,-108.5 1596,-78.5 1447,-78.5"/>
<text text-anchor="start" x="1455" y="-96.5" font-family="Helvetica,sans-Serif" font-size="10.00">src/ThHyd/Schemas_Temps</text>
<text text-anchor="middle" x="1521.5" y="-85.5" font-family="Helvetica,sans-Serif" font-size="10.00">/Simpler.cpp</text>
</a>
</g>
</g>
<!-- Node1&#45;&gt;Node14 -->
<g id="edge13" class="edge">
<title>Node1&#45;&gt;Node14</title>
<path fill="none" stroke="midnightblue" d="M1400.28,-141.68C1427.06,-131.26 1460.4,-118.28 1485.33,-108.58"/>
<polygon fill="midnightblue" stroke="midnightblue" points="1398.79,-138.51 1390.74,-145.4 1401.33,-145.03 1398.79,-138.51"/>
</g>
<!-- Node3 -->
<g id="node3" class="node">
<title>Node3</title>
<g id="a_node3"><a xlink:href="Aire__interfaciale_8cpp.html" target="_top" xlink:title=" ">
<polygon fill="white" stroke="black" points="0,-6 0,-36 171,-36 171,-6 0,-6"/>
<text text-anchor="start" x="8" y="-24" font-family="Helvetica,sans-Serif" font-size="10.00">src/ThHyd/Multiphase</text>
<text text-anchor="middle" x="85.5" y="-13" font-family="Helvetica,sans-Serif" font-size="10.00">/Equations/Aire_interfaciale.cpp</text>
</a>
</g>
</g>
<!-- Node2&#45;&gt;Node3 -->
<g id="edge2" class="edge">
<title>Node2&#45;&gt;Node3</title>
<path fill="none" stroke="midnightblue" d="M601.5,-87.22C502.49,-79.98 327.78,-65.18 179.5,-42 168.87,-40.34 157.63,-38.24 146.76,-36.04"/>
<polygon fill="midnightblue" stroke="midnightblue" points="601.49,-90.72 611.72,-87.96 602,-83.74 601.49,-90.72"/>
</g>
<!-- Node4 -->
<g id="node4" class="node">
<title>Node4</title>
<g id="a_node4"><a xlink:href="Energie__Multiphase_8cpp.html" target="_top" xlink:title=" ">
<polygon fill="white" stroke="black" points="189,-6 189,-36 376,-36 376,-6 189,-6"/>
<text text-anchor="start" x="197" y="-24" font-family="Helvetica,sans-Serif" font-size="10.00">src/ThHyd/Multiphase</text>
<text text-anchor="middle" x="282.5" y="-13" font-family="Helvetica,sans-Serif" font-size="10.00">/Equations/Energie_Multiphase.cpp</text>
</a>
</g>
</g>
<!-- Node2&#45;&gt;Node4 -->
<g id="edge3" class="edge">
<title>Node2&#45;&gt;Node4</title>
<path fill="none" stroke="midnightblue" d="M601.8,-79.52C542.33,-69.59 458.7,-55.37 385.5,-42 375.2,-40.12 364.32,-38.07 353.66,-36.03"/>
<polygon fill="midnightblue" stroke="midnightblue" points="601.43,-83 611.87,-81.2 602.59,-76.1 601.43,-83"/>
</g>
<!-- Node5 -->
<g id="node5" class="node">
<title>Node5</title>
<g id="a_node5"><a xlink:href="Op__Evanescence__Homogene__PolyMAC__Elem_8cpp.html" target="_top" xlink:title=" ">
<polygon fill="white" stroke="black" points="394.5,-0.5 394.5,-41.5 568.5,-41.5 568.5,-0.5 394.5,-0.5"/>
<text text-anchor="start" x="402.5" y="-29.5" font-family="Helvetica,sans-Serif" font-size="10.00">src/ThHyd/Multiphase</text>
<text text-anchor="start" x="402.5" y="-18.5" font-family="Helvetica,sans-Serif" font-size="10.00">/PolyMAC/Op_Evanescence</text>
<text text-anchor="middle" x="481.5" y="-7.5" font-family="Helvetica,sans-Serif" font-size="10.00">_Homogene_PolyMAC_Elem.cpp</text>
</a>
</g>
</g>
<!-- Node2&#45;&gt;Node5 -->
<g id="edge4" class="edge">
<title>Node2&#45;&gt;Node5</title>
<path fill="none" stroke="midnightblue" d="M630.91,-74.93C602.28,-64.79 566.2,-52.01 536.67,-41.55"/>
<polygon fill="midnightblue" stroke="midnightblue" points="630.11,-78.36 640.71,-78.4 632.45,-71.76 630.11,-78.36"/>
</g>
<!-- Node6 -->
<g id="node6" class="node">
<title>Node6</title>
<g id="a_node6"><a xlink:href="Op__Evanescence__Homogene__PolyMAC__P0__Face_8cpp.html" target="_top" xlink:title=" ">
<polygon fill="white" stroke="black" points="586.5,-0.5 586.5,-41.5 774.5,-41.5 774.5,-0.5 586.5,-0.5"/>
<text text-anchor="start" x="594.5" y="-29.5" font-family="Helvetica,sans-Serif" font-size="10.00">src/ThHyd/Multiphase</text>
<text text-anchor="start" x="594.5" y="-18.5" font-family="Helvetica,sans-Serif" font-size="10.00">/PolyMAC/Op_Evanescence</text>
<text text-anchor="middle" x="680.5" y="-7.5" font-family="Helvetica,sans-Serif" font-size="10.00">_Homogene_PolyMAC_P0_Face.cpp</text>
</a>
</g>
</g>
<!-- Node2&#45;&gt;Node6 -->
<g id="edge5" class="edge">
<title>Node2&#45;&gt;Node6</title>
<path fill="none" stroke="midnightblue" d="M680.5,-67.98C680.5,-59.35 680.5,-49.76 680.5,-41.59"/>
<polygon fill="midnightblue" stroke="midnightblue" points="677,-68.23 680.5,-78.23 684,-68.23 677,-68.23"/>
</g>
<!-- Node7 -->
<g id="node7" class="node">
<title>Node7</title>
<g id="a_node7"><a xlink:href="SETS_8cpp.html" target="_top" xlink:title=" ">
<polygon fill="white" stroke="black" points="792.5,-6 792.5,-36 940.5,-36 940.5,-6 792.5,-6"/>
<text text-anchor="start" x="800.5" y="-24" font-family="Helvetica,sans-Serif" font-size="10.00">src/ThHyd/Multiphase</text>
<text text-anchor="middle" x="866.5" y="-13" font-family="Helvetica,sans-Serif" font-size="10.00">/Schemas_Temps/SETS.cpp</text>
</a>
</g>
</g>
<!-- Node2&#45;&gt;Node7 -->
<g id="edge6" class="edge">
<title>Node2&#45;&gt;Node7</title>
<path fill="none" stroke="midnightblue" d="M727.17,-74.81C758.78,-62.83 799.99,-47.21 829.37,-36.07"/>
<polygon fill="midnightblue" stroke="midnightblue" points="725.8,-71.59 717.69,-78.4 728.28,-78.13 725.8,-71.59"/>
</g>
<!-- Node8 -->
<g id="node8" class="node">
<title>Node8</title>
<g id="a_node8"><a xlink:href="Simple_8cpp.html" target="_top" xlink:title=" ">
<polygon fill="white" stroke="black" points="959,-6 959,-36 1108,-36 1108,-6 959,-6"/>
<text text-anchor="start" x="967" y="-24" font-family="Helvetica,sans-Serif" font-size="10.00">src/ThHyd/Schemas_Temps</text>
<text text-anchor="middle" x="1033.5" y="-13" font-family="Helvetica,sans-Serif" font-size="10.00">/Simple.cpp</text>
</a>
</g>
</g>
<!-- Node2&#45;&gt;Node8 -->
<g id="edge7" class="edge">
<title>Node2&#45;&gt;Node8</title>
<path fill="none" stroke="midnightblue" d="M759.37,-78.73C813.09,-69.09 885.75,-55.56 949.5,-42 958.15,-40.16 967.28,-38.1 976.2,-36.03"/>
<polygon fill="midnightblue" stroke="midnightblue" points="758.46,-75.33 749.23,-80.54 759.69,-82.22 758.46,-75.33"/>
</g>
<!-- Node10 -->
<g id="node10" class="node">
<title>Node10</title>
<g id="a_node10"><a xlink:href="Assembleur__P__PolyMAC__P0_8cpp.html" target="_top" xlink:title=" ">
<polygon fill="white" stroke="black" points="1126,-0.5 1126,-41.5 1263,-41.5 1263,-0.5 1126,-0.5"/>
<text text-anchor="start" x="1134" y="-29.5" font-family="Helvetica,sans-Serif" font-size="10.00">src/PolyMAC/Solveurs</text>
<text text-anchor="start" x="1134" y="-18.5" font-family="Helvetica,sans-Serif" font-size="10.00">/Assembleur_P_PolyMAC</text>
<text text-anchor="middle" x="1194.5" y="-7.5" font-family="Helvetica,sans-Serif" font-size="10.00">_P0.cpp</text>
</a>
</g>
</g>
<!-- Node9&#45;&gt;Node10 -->
<g id="edge9" class="edge">
<title>Node9&#45;&gt;Node10</title>
<path fill="none" stroke="midnightblue" d="M1313.11,-74.26C1290.34,-64.23 1262.08,-51.78 1238.86,-41.55"/>
<polygon fill="midnightblue" stroke="midnightblue" points="1311.94,-77.57 1322.51,-78.4 1314.77,-71.17 1311.94,-77.57"/>
</g>
<!-- Node11 -->
<g id="node11" class="node">
<title>Node11</title>
<g id="a_node11"><a xlink:href="Masse__PolyMAC__Face_8cpp.html" target="_top" xlink:title=" ">
<polygon fill="white" stroke="black" points="1281,-6 1281,-36 1428,-36 1428,-6 1281,-6"/>
<text text-anchor="start" x="1289" y="-24" font-family="Helvetica,sans-Serif" font-size="10.00">src/PolyMAC/Solveurs</text>
<text text-anchor="middle" x="1354.5" y="-13" font-family="Helvetica,sans-Serif" font-size="10.00">/Masse_PolyMAC_Face.cpp</text>
</a>
</g>
</g>
<!-- Node9&#45;&gt;Node11 -->
<g id="edge10" class="edge">
<title>Node9&#45;&gt;Node11</title>
<path fill="none" stroke="midnightblue" d="M1354.5,-68.23C1354.5,-57.57 1354.5,-45.41 1354.5,-36.25"/>
<polygon fill="midnightblue" stroke="midnightblue" points="1351,-68.23 1354.5,-78.23 1358,-68.23 1351,-68.23"/>
</g>
<!-- Node12 -->
<g id="node12" class="node">
<title>Node12</title>
<g id="a_node12"><a xlink:href="Masse__PolyMAC__P0__Face_8cpp.html" target="_top" xlink:title=" ">
<polygon fill="white" stroke="black" points="1446.5,-6 1446.5,-36 1610.5,-36 1610.5,-6 1446.5,-6"/>
<text text-anchor="start" x="1454.5" y="-24" font-family="Helvetica,sans-Serif" font-size="10.00">src/PolyMAC/Solveurs</text>
<text text-anchor="middle" x="1528.5" y="-13" font-family="Helvetica,sans-Serif" font-size="10.00">/Masse_PolyMAC_P0_Face.cpp</text>
</a>
</g>
</g>
<!-- Node9&#45;&gt;Node12 -->
<g id="edge11" class="edge">
<title>Node9&#45;&gt;Node12</title>
<path fill="none" stroke="midnightblue" d="M1398.93,-74.5C1428.4,-62.56 1466.52,-47.11 1493.77,-36.07"/>
<polygon fill="midnightblue" stroke="midnightblue" points="1397.25,-71.4 1389.29,-78.4 1399.88,-77.89 1397.25,-71.4"/>
</g>
<!-- Node13 -->
<g id="node13" class="node">
<title>Node13</title>
<g id="a_node13"><a xlink:href="Piso_8cpp.html" target="_top" xlink:title=" ">
<polygon fill="white" stroke="black" points="1629,-6 1629,-36 1778,-36 1778,-6 1629,-6"/>
<text text-anchor="start" x="1637" y="-24" font-family="Helvetica,sans-Serif" font-size="10.00">src/ThHyd/Schemas_Temps</text>
<text text-anchor="middle" x="1703.5" y="-13" font-family="Helvetica,sans-Serif" font-size="10.00">/Piso.cpp</text>
</a>
</g>
</g>
<!-- Node9&#45;&gt;Node13 -->
<g id="edge12" class="edge">
<title>Node9&#45;&gt;Node13</title>
<path fill="none" stroke="midnightblue" d="M1439.09,-77.39C1491.22,-67.83 1559.38,-54.88 1619.5,-42 1628.15,-40.15 1637.27,-38.09 1646.19,-36.01"/>
<polygon fill="midnightblue" stroke="midnightblue" points="1438.42,-73.96 1429.21,-79.2 1439.68,-80.84 1438.42,-73.96"/>
</g>
</g>
</svg>
