<?xml version="1.0" encoding="UTF-8" standalone="no"?>
<!DOCTYPE svg PUBLIC "-//W3C//DTD SVG 1.1//EN"
 "http://www.w3.org/Graphics/SVG/1.1/DTD/svg11.dtd">
<!-- Generated by graphviz version 2.43.0 (0)
 -->
<!-- Title: src/Kernel/Solveurs/Solveur_lineaire.h Pages: 1 -->
<svg width="282pt" height="173pt"
 viewBox="0.00 0.00 281.50 173.00" xmlns="http://www.w3.org/2000/svg" xmlns:xlink="http://www.w3.org/1999/xlink">
<g id="graph0" class="graph" transform="scale(1 1) rotate(0) translate(4 169)">
<title>src/Kernel/Solveurs/Solveur_lineaire.h</title>
<polygon fill="white" stroke="transparent" points="-4,4 -4,-169 277.5,-169 277.5,4 -4,4"/>
<!-- Node1 -->
<g id="node1" class="node">
<title>Node1</title>
<g id="a_node1"><a xlink:title=" ">
<polygon fill="#bfbfbf" stroke="black" points="87,-134.5 87,-164.5 197,-164.5 197,-134.5 87,-134.5"/>
<text text-anchor="start" x="95" y="-152.5" font-family="Helvetica,sans-Serif" font-size="10.00">src/Kernel/Solveurs</text>
<text text-anchor="middle" x="142" y="-141.5" font-family="Helvetica,sans-Serif" font-size="10.00">/Solveur_lineaire.h</text>
</a>
</g>
</g>
<!-- Node2 -->
<g id="node2" class="node">
<title>Node2</title>
<g id="a_node2"><a xlink:href="Solveur__Lineaire__Std_8h.html" target="_top" xlink:title=" ">
<polygon fill="white" stroke="black" points="5.5,-67.5 5.5,-97.5 136.5,-97.5 136.5,-67.5 5.5,-67.5"/>
<text text-anchor="start" x="13.5" y="-85.5" font-family="Helvetica,sans-Serif" font-size="10.00">src/Kernel/Solveurs</text>
<text text-anchor="middle" x="71" y="-74.5" font-family="Helvetica,sans-Serif" font-size="10.00">/Solveur_Lineaire_Std.h</text>
</a>
</g>
</g>
<!-- Node1&#45;&gt;Node2 -->
<g id="edge1" class="edge">
<title>Node1&#45;&gt;Node2</title>
<path fill="none" stroke="midnightblue" d="M119.17,-127.6C108.45,-117.78 95.95,-106.34 86.38,-97.58"/>
<polygon fill="midnightblue" stroke="midnightblue" points="116.85,-130.22 126.59,-134.4 121.58,-125.06 116.85,-130.22"/>
</g>
<!-- Node4 -->
<g id="node4" class="node">
<title>Node4</title>
<g id="a_node4"><a xlink:href="Solveur__lineaire_8cpp.html" target="_top" xlink:title=" ">
<polygon fill="white" stroke="black" points="154.5,-67.5 154.5,-97.5 273.5,-97.5 273.5,-67.5 154.5,-67.5"/>
<text text-anchor="start" x="162.5" y="-85.5" font-family="Helvetica,sans-Serif" font-size="10.00">src/Kernel/Solveurs</text>
<text text-anchor="middle" x="214" y="-74.5" font-family="Helvetica,sans-Serif" font-size="10.00">/Solveur_lineaire.cpp</text>
</a>
</g>
</g>
<!-- Node1&#45;&gt;Node4 -->
<g id="edge3" class="edge">
<title>Node1&#45;&gt;Node4</title>
<path fill="none" stroke="midnightblue" d="M165.15,-127.6C176.02,-117.78 188.7,-106.34 198.41,-97.58"/>
<polygon fill="midnightblue" stroke="midnightblue" points="162.7,-125.1 157.62,-134.4 167.39,-130.29 162.7,-125.1"/>
</g>
<!-- Node3 -->
<g id="node3" class="node">
<title>Node3</title>
<g id="a_node3"><a xlink:href="Solveur__Lineaire__Std_8cpp.html" target="_top" xlink:title=" ">
<polygon fill="white" stroke="black" points="0,-0.5 0,-30.5 142,-30.5 142,-0.5 0,-0.5"/>
<text text-anchor="start" x="8" y="-18.5" font-family="Helvetica,sans-Serif" font-size="10.00">src/Kernel/Solveurs</text>
<text text-anchor="middle" x="71" y="-7.5" font-family="Helvetica,sans-Serif" font-size="10.00">/Solveur_Lineaire_Std.cpp</text>
</a>
</g>
</g>
<!-- Node2&#45;&gt;Node3 -->
<g id="edge2" class="edge">
<title>Node2&#45;&gt;Node3</title>
<path fill="none" stroke="midnightblue" d="M71,-57.11C71,-48.15 71,-38.32 71,-30.58"/>
<polygon fill="midnightblue" stroke="midnightblue" points="67.5,-57.4 71,-67.4 74.5,-57.4 67.5,-57.4"/>
</g>
</g>
</svg>
