<?xml version="1.0" encoding="UTF-8" standalone="no"?>
<!DOCTYPE svg PUBLIC "-//W3C//DTD SVG 1.1//EN"
 "http://www.w3.org/Graphics/SVG/1.1/DTD/svg11.dtd">
<!-- Generated by graphviz version 2.43.0 (0)
 -->
<!-- Title: src/Kernel/Math/SolvSys/SolvElem.h Pages: 1 -->
<svg width="294pt" height="173pt"
 viewBox="0.00 0.00 294.00 173.00" xmlns="http://www.w3.org/2000/svg" xmlns:xlink="http://www.w3.org/1999/xlink">
<g id="graph0" class="graph" transform="scale(1 1) rotate(0) translate(4 169)">
<title>src/Kernel/Math/SolvSys/SolvElem.h</title>
<polygon fill="white" stroke="transparent" points="-4,4 -4,-169 290,-169 290,4 -4,4"/>
<!-- Node1 -->
<g id="node1" class="node">
<title>Node1</title>
<g id="a_node1"><a xlink:title=" ">
<polygon fill="#bfbfbf" stroke="black" points="76,-134.5 76,-164.5 210,-164.5 210,-134.5 76,-134.5"/>
<text text-anchor="start" x="84" y="-152.5" font-family="Helvetica,sans-Serif" font-size="10.00">src/Kernel/Math/SolvSys</text>
<text text-anchor="middle" x="143" y="-141.5" font-family="Helvetica,sans-Serif" font-size="10.00">/SolvElem.h</text>
</a>
</g>
</g>
<!-- Node2 -->
<g id="node2" class="node">
<title>Node2</title>
<g id="a_node2"><a xlink:href="SolvElem_8cpp.html" target="_top" xlink:title=" ">
<polygon fill="white" stroke="black" points="0,-67.5 0,-97.5 134,-97.5 134,-67.5 0,-67.5"/>
<text text-anchor="start" x="8" y="-85.5" font-family="Helvetica,sans-Serif" font-size="10.00">src/Kernel/Math/SolvSys</text>
<text text-anchor="middle" x="67" y="-74.5" font-family="Helvetica,sans-Serif" font-size="10.00">/SolvElem.cpp</text>
</a>
</g>
</g>
<!-- Node1&#45;&gt;Node2 -->
<g id="edge1" class="edge">
<title>Node1&#45;&gt;Node2</title>
<path fill="none" stroke="midnightblue" d="M118.89,-127.88C107.34,-118.01 93.81,-106.43 83.46,-97.58"/>
<polygon fill="midnightblue" stroke="midnightblue" points="116.63,-130.56 126.51,-134.4 121.18,-125.24 116.63,-130.56"/>
</g>
<!-- Node3 -->
<g id="node3" class="node">
<title>Node3</title>
<g id="a_node3"><a xlink:href="Solv__Gen_8h.html" target="_top" xlink:title=" ">
<polygon fill="white" stroke="black" points="152,-67.5 152,-97.5 286,-97.5 286,-67.5 152,-67.5"/>
<text text-anchor="start" x="160" y="-85.5" font-family="Helvetica,sans-Serif" font-size="10.00">src/Kernel/Math/SolvSys</text>
<text text-anchor="middle" x="219" y="-74.5" font-family="Helvetica,sans-Serif" font-size="10.00">/Solv_Gen.h</text>
</a>
</g>
</g>
<!-- Node1&#45;&gt;Node3 -->
<g id="edge2" class="edge">
<title>Node1&#45;&gt;Node3</title>
<path fill="none" stroke="midnightblue" d="M167.11,-127.88C178.66,-118.01 192.19,-106.43 202.54,-97.58"/>
<polygon fill="midnightblue" stroke="midnightblue" points="164.82,-125.24 159.49,-134.4 169.37,-130.56 164.82,-125.24"/>
</g>
<!-- Node4 -->
<g id="node4" class="node">
<title>Node4</title>
<g id="a_node4"><a xlink:href="Solv__Gen_8cpp.html" target="_top" xlink:title=" ">
<polygon fill="white" stroke="black" points="152,-0.5 152,-30.5 286,-30.5 286,-0.5 152,-0.5"/>
<text text-anchor="start" x="160" y="-18.5" font-family="Helvetica,sans-Serif" font-size="10.00">src/Kernel/Math/SolvSys</text>
<text text-anchor="middle" x="219" y="-7.5" font-family="Helvetica,sans-Serif" font-size="10.00">/Solv_Gen.cpp</text>
</a>
</g>
</g>
<!-- Node3&#45;&gt;Node4 -->
<g id="edge3" class="edge">
<title>Node3&#45;&gt;Node4</title>
<path fill="none" stroke="midnightblue" d="M219,-57.11C219,-48.15 219,-38.32 219,-30.58"/>
<polygon fill="midnightblue" stroke="midnightblue" points="215.5,-57.4 219,-67.4 222.5,-57.4 215.5,-57.4"/>
</g>
</g>
</svg>
