<?xml version="1.0" encoding="UTF-8" standalone="no"?>
<!DOCTYPE svg PUBLIC "-//W3C//DTD SVG 1.1//EN"
 "http://www.w3.org/Graphics/SVG/1.1/DTD/svg11.dtd">
<!-- Generated by graphviz version 2.43.0 (0)
 -->
<!-- Title: src/Kernel/Solveurs/Solveur_non_lineaire.h Pages: 1 -->
<svg width="1786pt" height="385pt"
 viewBox="0.00 0.00 1786.00 385.00" xmlns="http://www.w3.org/2000/svg" xmlns:xlink="http://www.w3.org/1999/xlink">
<g id="graph0" class="graph" transform="scale(1 1) rotate(0) translate(4 381)">
<title>src/Kernel/Solveurs/Solveur_non_lineaire.h</title>
<polygon fill="white" stroke="transparent" points="-4,4 -4,-381 1782,-381 1782,4 -4,4"/>
<!-- Node1 -->
<g id="node1" class="node">
<title>Node1</title>
<g id="a_node1"><a xlink:title=" ">
<polygon fill="#bfbfbf" stroke="black" points="1127,-346.5 1127,-376.5 1258,-376.5 1258,-346.5 1127,-346.5"/>
<text text-anchor="start" x="1135" y="-364.5" font-family="Helvetica,sans-Serif" font-size="10.00">src/Kernel/Solveurs</text>
<text text-anchor="middle" x="1192.5" y="-353.5" font-family="Helvetica,sans-Serif" font-size="10.00">/Solveur_non_lineaire.h</text>
</a>
</g>
</g>
<!-- Node2 -->
<g id="node2" class="node">
<title>Node2</title>
<g id="a_node2"><a xlink:href="Solveur__non__lineaire_8cpp.html" target="_top" xlink:title=" ">
<polygon fill="white" stroke="black" points="1039.5,-279.5 1039.5,-309.5 1181.5,-309.5 1181.5,-279.5 1039.5,-279.5"/>
<text text-anchor="start" x="1047.5" y="-297.5" font-family="Helvetica,sans-Serif" font-size="10.00">src/Kernel/Solveurs</text>
<text text-anchor="middle" x="1110.5" y="-286.5" font-family="Helvetica,sans-Serif" font-size="10.00">/Solveur_non_lineaire.cpp</text>
</a>
</g>
</g>
<!-- Node1&#45;&gt;Node2 -->
<g id="edge1" class="edge">
<title>Node1&#45;&gt;Node2</title>
<path fill="none" stroke="midnightblue" d="M1166.85,-340.17C1154.31,-330.23 1139.53,-318.51 1128.26,-309.58"/>
<polygon fill="midnightblue" stroke="midnightblue" points="1164.7,-342.93 1174.71,-346.4 1169.04,-337.44 1164.7,-342.93"/>
</g>
<!-- Node3 -->
<g id="node3" class="node">
<title>Node3</title>
<g id="a_node3"><a xlink:href="Simpler__Base_8h.html" target="_top" xlink:title=" ">
<polygon fill="white" stroke="black" points="1200,-279.5 1200,-309.5 1349,-309.5 1349,-279.5 1200,-279.5"/>
<text text-anchor="start" x="1208" y="-297.5" font-family="Helvetica,sans-Serif" font-size="10.00">src/ThHyd/Schemas_Temps</text>
<text text-anchor="middle" x="1274.5" y="-286.5" font-family="Helvetica,sans-Serif" font-size="10.00">/Simpler_Base.h</text>
</a>
</g>
</g>
<!-- Node1&#45;&gt;Node3 -->
<g id="edge2" class="edge">
<title>Node1&#45;&gt;Node3</title>
<path fill="none" stroke="midnightblue" d="M1218.15,-340.17C1230.69,-330.23 1245.47,-318.51 1256.74,-309.58"/>
<polygon fill="midnightblue" stroke="midnightblue" points="1215.96,-337.44 1210.29,-346.4 1220.3,-342.93 1215.96,-337.44"/>
</g>
<!-- Node4 -->
<g id="node4" class="node">
<title>Node4</title>
<g id="a_node4"><a xlink:href="Op__Diff__PolyMAC__base_8cpp.html" target="_top" xlink:title=" ">
<polygon fill="white" stroke="black" points="1029,-212.5 1029,-242.5 1182,-242.5 1182,-212.5 1029,-212.5"/>
<text text-anchor="start" x="1037" y="-230.5" font-family="Helvetica,sans-Serif" font-size="10.00">src/PolyMAC/Operateurs</text>
<text text-anchor="middle" x="1105.5" y="-219.5" font-family="Helvetica,sans-Serif" font-size="10.00">/Op_Diff_PolyMAC_base.cpp</text>
</a>
</g>
</g>
<!-- Node3&#45;&gt;Node4 -->
<g id="edge3" class="edge">
<title>Node3&#45;&gt;Node4</title>
<path fill="none" stroke="midnightblue" d="M1228.17,-275.68C1201.07,-265.26 1167.33,-252.28 1142.1,-242.58"/>
<polygon fill="midnightblue" stroke="midnightblue" points="1227.24,-279.07 1237.83,-279.4 1229.75,-272.54 1227.24,-279.07"/>
</g>
<!-- Node5 -->
<g id="node5" class="node">
<title>Node5</title>
<g id="a_node5"><a xlink:href="Simple_8h.html" target="_top" xlink:title=" ">
<polygon fill="white" stroke="black" points="1200,-212.5 1200,-242.5 1349,-242.5 1349,-212.5 1200,-212.5"/>
<text text-anchor="start" x="1208" y="-230.5" font-family="Helvetica,sans-Serif" font-size="10.00">src/ThHyd/Schemas_Temps</text>
<text text-anchor="middle" x="1274.5" y="-219.5" font-family="Helvetica,sans-Serif" font-size="10.00">/Simple.h</text>
</a>
</g>
</g>
<!-- Node3&#45;&gt;Node5 -->
<g id="edge4" class="edge">
<title>Node3&#45;&gt;Node5</title>
<path fill="none" stroke="midnightblue" d="M1274.5,-269.11C1274.5,-260.15 1274.5,-250.32 1274.5,-242.58"/>
<polygon fill="midnightblue" stroke="midnightblue" points="1271,-269.4 1274.5,-279.4 1278,-269.4 1271,-269.4"/>
</g>
<!-- Node22 -->
<g id="node22" class="node">
<title>Node22</title>
<g id="a_node22"><a xlink:href="Simpler__Base_8cpp.html" target="_top" xlink:title=" ">
<polygon fill="white" stroke="black" points="1367,-212.5 1367,-242.5 1516,-242.5 1516,-212.5 1367,-212.5"/>
<text text-anchor="start" x="1375" y="-230.5" font-family="Helvetica,sans-Serif" font-size="10.00">src/ThHyd/Schemas_Temps</text>
<text text-anchor="middle" x="1441.5" y="-219.5" font-family="Helvetica,sans-Serif" font-size="10.00">/Simpler_Base.cpp</text>
</a>
</g>
</g>
<!-- Node3&#45;&gt;Node22 -->
<g id="edge22" class="edge">
<title>Node3&#45;&gt;Node22</title>
<path fill="none" stroke="midnightblue" d="M1320.28,-275.68C1347.06,-265.26 1380.4,-252.28 1405.33,-242.58"/>
<polygon fill="midnightblue" stroke="midnightblue" points="1318.79,-272.51 1310.74,-279.4 1321.33,-279.03 1318.79,-272.51"/>
</g>
<!-- Node6 -->
<g id="node6" class="node">
<title>Node6</title>
<g id="a_node6"><a xlink:href="Simple_8cpp.html" target="_top" xlink:title=" ">
<polygon fill="white" stroke="black" points="0,-6 0,-36 149,-36 149,-6 0,-6"/>
<text text-anchor="start" x="8" y="-24" font-family="Helvetica,sans-Serif" font-size="10.00">src/ThHyd/Schemas_Temps</text>
<text text-anchor="middle" x="74.5" y="-13" font-family="Helvetica,sans-Serif" font-size="10.00">/Simple.cpp</text>
</a>
</g>
</g>
<!-- Node5&#45;&gt;Node6 -->
<g id="edge5" class="edge">
<title>Node5&#45;&gt;Node6</title>
<path fill="none" stroke="midnightblue" d="M1189.96,-211.92C730,-134.64 610.3,-133.68 157.5,-42 148.64,-40.21 139.29,-38.13 130.18,-36.01"/>
<polygon fill="midnightblue" stroke="midnightblue" points="1189.41,-215.37 1199.85,-213.58 1190.57,-208.47 1189.41,-215.37"/>
</g>
<!-- Node7 -->
<g id="node7" class="node">
<title>Node7</title>
<g id="a_node7"><a xlink:href="Simpler_8h.html" target="_top" xlink:title=" ">
<polygon fill="white" stroke="black" points="1200,-145.5 1200,-175.5 1349,-175.5 1349,-145.5 1200,-145.5"/>
<text text-anchor="start" x="1208" y="-163.5" font-family="Helvetica,sans-Serif" font-size="10.00">src/ThHyd/Schemas_Temps</text>
<text text-anchor="middle" x="1274.5" y="-152.5" font-family="Helvetica,sans-Serif" font-size="10.00">/Simpler.h</text>
</a>
</g>
</g>
<!-- Node5&#45;&gt;Node7 -->
<g id="edge6" class="edge">
<title>Node5&#45;&gt;Node7</title>
<path fill="none" stroke="midnightblue" d="M1274.5,-202.11C1274.5,-193.15 1274.5,-183.32 1274.5,-175.58"/>
<polygon fill="midnightblue" stroke="midnightblue" points="1271,-202.4 1274.5,-212.4 1278,-202.4 1271,-202.4"/>
</g>
<!-- Node20 -->
<g id="node20" class="node">
<title>Node20</title>
<g id="a_node20"><a xlink:href="Solveur__U__P_8h.html" target="_top" xlink:title=" ">
<polygon fill="white" stroke="black" points="1450,-145.5 1450,-175.5 1599,-175.5 1599,-145.5 1450,-145.5"/>
<text text-anchor="start" x="1458" y="-163.5" font-family="Helvetica,sans-Serif" font-size="10.00">src/ThHyd/Schemas_Temps</text>
<text text-anchor="middle" x="1524.5" y="-152.5" font-family="Helvetica,sans-Serif" font-size="10.00">/Solveur_U_P.h</text>
</a>
</g>
</g>
<!-- Node5&#45;&gt;Node20 -->
<g id="edge20" class="edge">
<title>Node5&#45;&gt;Node20</title>
<path fill="none" stroke="midnightblue" d="M1338.28,-209.92C1379.08,-199.31 1431.43,-185.7 1470.23,-175.61"/>
<polygon fill="midnightblue" stroke="midnightblue" points="1337.24,-206.57 1328.44,-212.48 1339,-213.35 1337.24,-206.57"/>
</g>
<!-- Node8 -->
<g id="node8" class="node">
<title>Node8</title>
<g id="a_node8"><a xlink:href="SETS_8h.html" target="_top" xlink:title=" ">
<polygon fill="white" stroke="black" points="580,-78.5 580,-108.5 717,-108.5 717,-78.5 580,-78.5"/>
<text text-anchor="start" x="588" y="-96.5" font-family="Helvetica,sans-Serif" font-size="10.00">src/ThHyd/Multiphase</text>
<text text-anchor="middle" x="648.5" y="-85.5" font-family="Helvetica,sans-Serif" font-size="10.00">/Schemas_Temps/SETS.h</text>
</a>
</g>
</g>
<!-- Node7&#45;&gt;Node8 -->
<g id="edge7" class="edge">
<title>Node7&#45;&gt;Node8</title>
<path fill="none" stroke="midnightblue" d="M1189.62,-150.69C1064.41,-137.69 832.62,-113.62 717.33,-101.65"/>
<polygon fill="midnightblue" stroke="midnightblue" points="1189.61,-154.2 1199.92,-151.76 1190.34,-147.24 1189.61,-154.2"/>
</g>
<!-- Node14 -->
<g id="node14" class="node">
<title>Node14</title>
<g id="a_node14"><a xlink:href="Piso_8h.html" target="_top" xlink:title=" ">
<polygon fill="white" stroke="black" points="1200,-78.5 1200,-108.5 1349,-108.5 1349,-78.5 1200,-78.5"/>
<text text-anchor="start" x="1208" y="-96.5" font-family="Helvetica,sans-Serif" font-size="10.00">src/ThHyd/Schemas_Temps</text>
<text text-anchor="middle" x="1274.5" y="-85.5" font-family="Helvetica,sans-Serif" font-size="10.00">/Piso.h</text>
</a>
</g>
</g>
<!-- Node7&#45;&gt;Node14 -->
<g id="edge14" class="edge">
<title>Node7&#45;&gt;Node14</title>
<path fill="none" stroke="midnightblue" d="M1274.5,-135.11C1274.5,-126.15 1274.5,-116.32 1274.5,-108.58"/>
<polygon fill="midnightblue" stroke="midnightblue" points="1271,-135.4 1274.5,-145.4 1278,-135.4 1271,-135.4"/>
</g>
<!-- Node19 -->
<g id="node19" class="node">
<title>Node19</title>
<g id="a_node19"><a xlink:href="Simpler_8cpp.html" target="_top" xlink:title=" ">
<polygon fill="white" stroke="black" points="1367,-78.5 1367,-108.5 1516,-108.5 1516,-78.5 1367,-78.5"/>
<text text-anchor="start" x="1375" y="-96.5" font-family="Helvetica,sans-Serif" font-size="10.00">src/ThHyd/Schemas_Temps</text>
<text text-anchor="middle" x="1441.5" y="-85.5" font-family="Helvetica,sans-Serif" font-size="10.00">/Simpler.cpp</text>
</a>
</g>
</g>
<!-- Node7&#45;&gt;Node19 -->
<g id="edge19" class="edge">
<title>Node7&#45;&gt;Node19</title>
<path fill="none" stroke="midnightblue" d="M1320.28,-141.68C1347.06,-131.26 1380.4,-118.28 1405.33,-108.58"/>
<polygon fill="midnightblue" stroke="midnightblue" points="1318.79,-138.51 1310.74,-145.4 1321.33,-145.03 1318.79,-138.51"/>
</g>
<!-- Node8&#45;&gt;Node6 -->
<g id="edge13" class="edge">
<title>Node8&#45;&gt;Node6</title>
<path fill="none" stroke="midnightblue" d="M569.74,-87.66C472.39,-80.94 301.89,-66.71 157.5,-42 148,-40.38 137.98,-38.29 128.31,-36.07"/>
<polygon fill="midnightblue" stroke="midnightblue" points="569.58,-91.16 579.8,-88.35 570.06,-84.18 569.58,-91.16"/>
</g>
<!-- Node9 -->
<g id="node9" class="node">
<title>Node9</title>
<g id="a_node9"><a xlink:href="Aire__interfaciale_8cpp.html" target="_top" xlink:title=" ">
<polygon fill="white" stroke="black" points="167,-6 167,-36 338,-36 338,-6 167,-6"/>
<text text-anchor="start" x="175" y="-24" font-family="Helvetica,sans-Serif" font-size="10.00">src/ThHyd/Multiphase</text>
<text text-anchor="middle" x="252.5" y="-13" font-family="Helvetica,sans-Serif" font-size="10.00">/Equations/Aire_interfaciale.cpp</text>
</a>
</g>
</g>
<!-- Node8&#45;&gt;Node9 -->
<g id="edge8" class="edge">
<title>Node8&#45;&gt;Node9</title>
<path fill="none" stroke="midnightblue" d="M570.03,-80.35C508.97,-70.66 422.19,-56.37 346.5,-42 336.83,-40.16 326.62,-38.11 316.64,-36.04"/>
<polygon fill="midnightblue" stroke="midnightblue" points="569.56,-83.82 579.98,-81.92 570.65,-76.9 569.56,-83.82"/>
</g>
<!-- Node10 -->
<g id="node10" class="node">
<title>Node10</title>
<g id="a_node10"><a xlink:href="Energie__Multiphase_8cpp.html" target="_top" xlink:title=" ">
<polygon fill="white" stroke="black" points="356,-6 356,-36 543,-36 543,-6 356,-6"/>
<text text-anchor="start" x="364" y="-24" font-family="Helvetica,sans-Serif" font-size="10.00">src/ThHyd/Multiphase</text>
<text text-anchor="middle" x="449.5" y="-13" font-family="Helvetica,sans-Serif" font-size="10.00">/Equations/Energie_Multiphase.cpp</text>
</a>
</g>
</g>
<!-- Node8&#45;&gt;Node10 -->
<g id="edge9" class="edge">
<title>Node8&#45;&gt;Node10</title>
<path fill="none" stroke="midnightblue" d="M599,-74.96C565.12,-62.96 520.79,-47.26 489.22,-36.07"/>
<polygon fill="midnightblue" stroke="midnightblue" points="598.11,-78.36 608.71,-78.4 600.45,-71.76 598.11,-78.36"/>
</g>
<!-- Node11 -->
<g id="node11" class="node">
<title>Node11</title>
<g id="a_node11"><a xlink:href="Op__Evanescence__Homogene__PolyMAC__Elem_8cpp.html" target="_top" xlink:title=" ">
<polygon fill="white" stroke="black" points="561.5,-0.5 561.5,-41.5 735.5,-41.5 735.5,-0.5 561.5,-0.5"/>
<text text-anchor="start" x="569.5" y="-29.5" font-family="Helvetica,sans-Serif" font-size="10.00">src/ThHyd/Multiphase</text>
<text text-anchor="start" x="569.5" y="-18.5" font-family="Helvetica,sans-Serif" font-size="10.00">/PolyMAC/Op_Evanescence</text>
<text text-anchor="middle" x="648.5" y="-7.5" font-family="Helvetica,sans-Serif" font-size="10.00">_Homogene_PolyMAC_Elem.cpp</text>
</a>
</g>
</g>
<!-- Node8&#45;&gt;Node11 -->
<g id="edge10" class="edge">
<title>Node8&#45;&gt;Node11</title>
<path fill="none" stroke="midnightblue" d="M648.5,-67.98C648.5,-59.35 648.5,-49.76 648.5,-41.59"/>
<polygon fill="midnightblue" stroke="midnightblue" points="645,-68.23 648.5,-78.23 652,-68.23 645,-68.23"/>
</g>
<!-- Node12 -->
<g id="node12" class="node">
<title>Node12</title>
<g id="a_node12"><a xlink:href="Op__Evanescence__Homogene__PolyMAC__P0__Face_8cpp.html" target="_top" xlink:title=" ">
<polygon fill="white" stroke="black" points="753.5,-0.5 753.5,-41.5 941.5,-41.5 941.5,-0.5 753.5,-0.5"/>
<text text-anchor="start" x="761.5" y="-29.5" font-family="Helvetica,sans-Serif" font-size="10.00">src/ThHyd/Multiphase</text>
<text text-anchor="start" x="761.5" y="-18.5" font-family="Helvetica,sans-Serif" font-size="10.00">/PolyMAC/Op_Evanescence</text>
<text text-anchor="middle" x="847.5" y="-7.5" font-family="Helvetica,sans-Serif" font-size="10.00">_Homogene_PolyMAC_P0_Face.cpp</text>
</a>
</g>
</g>
<!-- Node8&#45;&gt;Node12 -->
<g id="edge11" class="edge">
<title>Node8&#45;&gt;Node12</title>
<path fill="none" stroke="midnightblue" d="M698.09,-74.93C726.72,-64.79 762.8,-52.01 792.33,-41.55"/>
<polygon fill="midnightblue" stroke="midnightblue" points="696.55,-71.76 688.29,-78.4 698.89,-78.36 696.55,-71.76"/>
</g>
<!-- Node13 -->
<g id="node13" class="node">
<title>Node13</title>
<g id="a_node13"><a xlink:href="SETS_8cpp.html" target="_top" xlink:title=" ">
<polygon fill="white" stroke="black" points="959.5,-6 959.5,-36 1107.5,-36 1107.5,-6 959.5,-6"/>
<text text-anchor="start" x="967.5" y="-24" font-family="Helvetica,sans-Serif" font-size="10.00">src/ThHyd/Multiphase</text>
<text text-anchor="middle" x="1033.5" y="-13" font-family="Helvetica,sans-Serif" font-size="10.00">/Schemas_Temps/SETS.cpp</text>
</a>
</g>
</g>
<!-- Node8&#45;&gt;Node13 -->
<g id="edge12" class="edge">
<title>Node8&#45;&gt;Node13</title>
<path fill="none" stroke="midnightblue" d="M727.08,-80.92C788.2,-71.54 875.01,-57.39 950.5,-42 959.21,-40.22 968.4,-38.18 977.36,-36.1"/>
<polygon fill="midnightblue" stroke="midnightblue" points="726.48,-77.47 717.12,-82.44 727.54,-84.39 726.48,-77.47"/>
</g>
<!-- Node15 -->
<g id="node15" class="node">
<title>Node15</title>
<g id="a_node15"><a xlink:href="Assembleur__P__PolyMAC__P0_8cpp.html" target="_top" xlink:title=" ">
<polygon fill="white" stroke="black" points="1126,-0.5 1126,-41.5 1263,-41.5 1263,-0.5 1126,-0.5"/>
<text text-anchor="start" x="1134" y="-29.5" font-family="Helvetica,sans-Serif" font-size="10.00">src/PolyMAC/Solveurs</text>
<text text-anchor="start" x="1134" y="-18.5" font-family="Helvetica,sans-Serif" font-size="10.00">/Assembleur_P_PolyMAC</text>
<text text-anchor="middle" x="1194.5" y="-7.5" font-family="Helvetica,sans-Serif" font-size="10.00">_P0.cpp</text>
</a>
</g>
</g>
<!-- Node14&#45;&gt;Node15 -->
<g id="edge15" class="edge">
<title>Node14&#45;&gt;Node15</title>
<path fill="none" stroke="midnightblue" d="M1250.53,-71.38C1239.81,-61.93 1227.24,-50.85 1216.73,-41.59"/>
<polygon fill="midnightblue" stroke="midnightblue" points="1248.49,-74.25 1258.31,-78.23 1253.12,-69 1248.49,-74.25"/>
</g>
<!-- Node16 -->
<g id="node16" class="node">
<title>Node16</title>
<g id="a_node16"><a xlink:href="Masse__PolyMAC__Face_8cpp.html" target="_top" xlink:title=" ">
<polygon fill="white" stroke="black" points="1281,-6 1281,-36 1428,-36 1428,-6 1281,-6"/>
<text text-anchor="start" x="1289" y="-24" font-family="Helvetica,sans-Serif" font-size="10.00">src/PolyMAC/Solveurs</text>
<text text-anchor="middle" x="1354.5" y="-13" font-family="Helvetica,sans-Serif" font-size="10.00">/Masse_PolyMAC_Face.cpp</text>
</a>
</g>
</g>
<!-- Node14&#45;&gt;Node16 -->
<g id="edge16" class="edge">
<title>Node14&#45;&gt;Node16</title>
<path fill="none" stroke="midnightblue" d="M1298.37,-71.46C1311.37,-60 1327.11,-46.14 1338.61,-36"/>
<polygon fill="midnightblue" stroke="midnightblue" points="1295.88,-69 1290.69,-78.23 1300.51,-74.25 1295.88,-69"/>
</g>
<!-- Node17 -->
<g id="node17" class="node">
<title>Node17</title>
<g id="a_node17"><a xlink:href="Masse__PolyMAC__P0__Face_8cpp.html" target="_top" xlink:title=" ">
<polygon fill="white" stroke="black" points="1446.5,-6 1446.5,-36 1610.5,-36 1610.5,-6 1446.5,-6"/>
<text text-anchor="start" x="1454.5" y="-24" font-family="Helvetica,sans-Serif" font-size="10.00">src/PolyMAC/Solveurs</text>
<text text-anchor="middle" x="1528.5" y="-13" font-family="Helvetica,sans-Serif" font-size="10.00">/Masse_PolyMAC_P0_Face.cpp</text>
</a>
</g>
</g>
<!-- Node14&#45;&gt;Node17 -->
<g id="edge17" class="edge">
<title>Node14&#45;&gt;Node17</title>
<path fill="none" stroke="midnightblue" d="M1334.88,-75.74C1378.41,-63.66 1436.51,-47.53 1477.68,-36.11"/>
<polygon fill="midnightblue" stroke="midnightblue" points="1333.69,-72.44 1324.99,-78.49 1335.56,-79.19 1333.69,-72.44"/>
</g>
<!-- Node18 -->
<g id="node18" class="node">
<title>Node18</title>
<g id="a_node18"><a xlink:href="Piso_8cpp.html" target="_top" xlink:title=" ">
<polygon fill="white" stroke="black" points="1629,-6 1629,-36 1778,-36 1778,-6 1629,-6"/>
<text text-anchor="start" x="1637" y="-24" font-family="Helvetica,sans-Serif" font-size="10.00">src/ThHyd/Schemas_Temps</text>
<text text-anchor="middle" x="1703.5" y="-13" font-family="Helvetica,sans-Serif" font-size="10.00">/Piso.cpp</text>
</a>
</g>
</g>
<!-- Node14&#45;&gt;Node18 -->
<g id="edge18" class="edge">
<title>Node14&#45;&gt;Node18</title>
<path fill="none" stroke="midnightblue" d="M1359.14,-77.79C1475.36,-60.07 1507.13,-63.05 1619.5,-42 1628.64,-40.29 1638.27,-38.23 1647.63,-36.1"/>
<polygon fill="midnightblue" stroke="midnightblue" points="1358.48,-74.34 1349.14,-79.33 1359.55,-81.26 1358.48,-74.34"/>
</g>
<!-- Node21 -->
<g id="node21" class="node">
<title>Node21</title>
<g id="a_node21"><a xlink:href="Solveur__U__P_8cpp.html" target="_top" xlink:title=" ">
<polygon fill="white" stroke="black" points="1534,-78.5 1534,-108.5 1683,-108.5 1683,-78.5 1534,-78.5"/>
<text text-anchor="start" x="1542" y="-96.5" font-family="Helvetica,sans-Serif" font-size="10.00">src/ThHyd/Schemas_Temps</text>
<text text-anchor="middle" x="1608.5" y="-85.5" font-family="Helvetica,sans-Serif" font-size="10.00">/Solveur_U_P.cpp</text>
</a>
</g>
</g>
<!-- Node20&#45;&gt;Node21 -->
<g id="edge21" class="edge">
<title>Node20&#45;&gt;Node21</title>
<path fill="none" stroke="midnightblue" d="M1550.78,-139.17C1563.62,-129.23 1578.76,-117.51 1590.31,-108.58"/>
<polygon fill="midnightblue" stroke="midnightblue" points="1548.49,-136.51 1542.73,-145.4 1552.78,-142.04 1548.49,-136.51"/>
</g>
</g>
</svg>
