<?xml version="1.0" encoding="UTF-8" standalone="no"?>
<!DOCTYPE svg PUBLIC "-//W3C//DTD SVG 1.1//EN"
 "http://www.w3.org/Graphics/SVG/1.1/DTD/svg11.dtd">
<!-- Generated by graphviz version 2.43.0 (0)
 -->
<!-- Title: src/Kernel/Utilitaires/Sortie.cpp Pages: 1 -->
<svg width="789pt" height="319pt"
 viewBox="0.00 0.00 789.00 319.00" xmlns="http://www.w3.org/2000/svg" xmlns:xlink="http://www.w3.org/1999/xlink">
<g id="graph0" class="graph" transform="scale(1 1) rotate(0) translate(4 315)">
<title>src/Kernel/Utilitaires/Sortie.cpp</title>
<polygon fill="white" stroke="transparent" points="-4,4 -4,-315 785,-315 785,4 -4,4"/>
<!-- Node1 -->
<g id="node1" class="node">
<title>Node1</title>
<g id="a_node1"><a xlink:title=" ">
<polygon fill="#bfbfbf" stroke="black" points="333,-280.5 333,-310.5 449,-310.5 449,-280.5 333,-280.5"/>
<text text-anchor="start" x="341" y="-298.5" font-family="Helvetica,sans-Serif" font-size="10.00">src/Kernel/Utilitaires</text>
<text text-anchor="middle" x="391" y="-287.5" font-family="Helvetica,sans-Serif" font-size="10.00">/Sortie.cpp</text>
</a>
</g>
</g>
<!-- Node2 -->
<g id="node2" class="node">
<title>Node2</title>
<g id="a_node2"><a xlink:href="Sortie_8h.html" target="_top" xlink:title=" ">
<polygon fill="white" stroke="black" points="137,-112.5 137,-131.5 191,-131.5 191,-112.5 137,-112.5"/>
<text text-anchor="middle" x="164" y="-119.5" font-family="Helvetica,sans-Serif" font-size="10.00">Sortie.h</text>
</a>
</g>
</g>
<!-- Node1&#45;&gt;Node2 -->
<g id="edge1" class="edge">
<title>Node1&#45;&gt;Node2</title>
<path fill="none" stroke="midnightblue" d="M364.41,-280.37C330.2,-261.59 269.76,-226.28 224,-188 206.41,-173.29 188.93,-153.63 177.42,-139.8"/>
<polygon fill="midnightblue" stroke="midnightblue" points="179.8,-137.19 170.77,-131.66 174.38,-141.62 179.8,-137.19"/>
</g>
<!-- Node3 -->
<g id="node3" class="node">
<title>Node3</title>
<g id="a_node3"><a xlink:title=" ">
<polygon fill="white" stroke="#bfbfbf" points="0,-56.5 0,-75.5 60,-75.5 60,-56.5 0,-56.5"/>
<text text-anchor="middle" x="30" y="-63.5" font-family="Helvetica,sans-Serif" font-size="10.00">iostream</text>
</a>
</g>
</g>
<!-- Node1&#45;&gt;Node3 -->
<g id="edge27" class="edge">
<title>Node1&#45;&gt;Node3</title>
<path fill="none" stroke="midnightblue" d="M350.63,-280.44C326.55,-271.38 295.75,-258.59 270,-244 180.8,-193.47 85.99,-115.2 47.63,-82.35"/>
<polygon fill="midnightblue" stroke="midnightblue" points="49.78,-79.58 39.92,-75.7 45.21,-84.88 49.78,-79.58"/>
</g>
<!-- Node8 -->
<g id="node8" class="node">
<title>Node8</title>
<g id="a_node8"><a xlink:href="Objet__U_8h.html" target="_top" xlink:title=" ">
<polygon fill="white" stroke="black" points="389.5,-224.5 389.5,-243.5 454.5,-243.5 454.5,-224.5 389.5,-224.5"/>
<text text-anchor="middle" x="422" y="-231.5" font-family="Helvetica,sans-Serif" font-size="10.00">Objet_U.h</text>
</a>
</g>
</g>
<!-- Node1&#45;&gt;Node8 -->
<g id="edge7" class="edge">
<title>Node1&#45;&gt;Node8</title>
<path fill="none" stroke="midnightblue" d="M398.35,-280.4C402.67,-272.11 408.17,-261.55 412.77,-252.71"/>
<polygon fill="midnightblue" stroke="midnightblue" points="415.97,-254.14 417.49,-243.66 409.76,-250.91 415.97,-254.14"/>
</g>
<!-- Node19 -->
<g id="node19" class="node">
<title>Node19</title>
<g id="a_node19"><a xlink:href="Separateur_8h.html" target="_top" xlink:title=" ">
<polygon fill="white" stroke="black" points="323,-112.5 323,-131.5 401,-131.5 401,-112.5 323,-112.5"/>
<text text-anchor="middle" x="362" y="-119.5" font-family="Helvetica,sans-Serif" font-size="10.00">Separateur.h</text>
</a>
</g>
</g>
<!-- Node1&#45;&gt;Node19 -->
<g id="edge26" class="edge">
<title>Node1&#45;&gt;Node19</title>
<path fill="none" stroke="midnightblue" d="M388.05,-280.38C385.97,-270.27 383.19,-256.32 381,-244 374.58,-207.83 368.17,-165.38 364.69,-141.6"/>
<polygon fill="midnightblue" stroke="midnightblue" points="368.12,-140.92 363.22,-131.53 361.2,-141.93 368.12,-140.92"/>
</g>
<!-- Node20 -->
<g id="node20" class="node">
<title>Node20</title>
<g id="a_node20"><a xlink:title=" ">
<polygon fill="white" stroke="#bfbfbf" points="473,-224.5 473,-243.5 529,-243.5 529,-224.5 473,-224.5"/>
<text text-anchor="middle" x="501" y="-231.5" font-family="Helvetica,sans-Serif" font-size="10.00">iomanip</text>
</a>
</g>
</g>
<!-- Node1&#45;&gt;Node20 -->
<g id="edge28" class="edge">
<title>Node1&#45;&gt;Node20</title>
<path fill="none" stroke="midnightblue" d="M417.07,-280.4C434.87,-270.77 458.31,-258.09 475.9,-248.58"/>
<polygon fill="midnightblue" stroke="midnightblue" points="477.86,-251.49 484.99,-243.66 474.53,-245.34 477.86,-251.49"/>
</g>
<!-- Node21 -->
<g id="node21" class="node">
<title>Node21</title>
<g id="a_node21"><a xlink:title=" ">
<polygon fill="white" stroke="#bfbfbf" points="547,-224.5 547,-243.5 597,-243.5 597,-224.5 547,-224.5"/>
<text text-anchor="middle" x="572" y="-231.5" font-family="Helvetica,sans-Serif" font-size="10.00">cstring</text>
</a>
</g>
</g>
<!-- Node1&#45;&gt;Node21 -->
<g id="edge29" class="edge">
<title>Node1&#45;&gt;Node21</title>
<path fill="none" stroke="midnightblue" d="M433.89,-280.4C465.41,-270.04 507.69,-256.14 537.13,-246.46"/>
<polygon fill="midnightblue" stroke="midnightblue" points="538.57,-249.67 546.97,-243.23 536.38,-243.02 538.57,-249.67"/>
</g>
<!-- Node2&#45;&gt;Node3 -->
<g id="edge2" class="edge">
<title>Node2&#45;&gt;Node3</title>
<path fill="none" stroke="midnightblue" d="M142.77,-112.44C120.62,-103.52 85.68,-89.44 60.56,-79.32"/>
<polygon fill="midnightblue" stroke="midnightblue" points="61.72,-76.01 51.13,-75.52 59.1,-82.5 61.72,-76.01"/>
</g>
<!-- Node4 -->
<g id="node4" class="node">
<title>Node4</title>
<g id="a_node4"><a xlink:title=" ">
<polygon fill="white" stroke="#bfbfbf" points="206,-56.5 206,-75.5 262,-75.5 262,-56.5 206,-56.5"/>
<text text-anchor="middle" x="234" y="-63.5" font-family="Helvetica,sans-Serif" font-size="10.00">assert.h</text>
</a>
</g>
</g>
<!-- Node2&#45;&gt;Node4 -->
<g id="edge3" class="edge">
<title>Node2&#45;&gt;Node4</title>
<path fill="none" stroke="midnightblue" d="M175.25,-112.32C185.8,-104.18 201.8,-91.84 214.44,-82.09"/>
<polygon fill="midnightblue" stroke="midnightblue" points="216.77,-84.71 222.55,-75.83 212.49,-79.17 216.77,-84.71"/>
</g>
<!-- Node5 -->
<g id="node5" class="node">
<title>Node5</title>
<g id="a_node5"><a xlink:href="arch_8h.html" target="_top" xlink:title=" ">
<polygon fill="white" stroke="black" points="140.5,-56.5 140.5,-75.5 187.5,-75.5 187.5,-56.5 140.5,-56.5"/>
<text text-anchor="middle" x="164" y="-63.5" font-family="Helvetica,sans-Serif" font-size="10.00">arch.h</text>
</a>
</g>
</g>
<!-- Node2&#45;&gt;Node5 -->
<g id="edge4" class="edge">
<title>Node2&#45;&gt;Node5</title>
<path fill="none" stroke="midnightblue" d="M164,-112.08C164,-105.01 164,-94.86 164,-85.99"/>
<polygon fill="midnightblue" stroke="midnightblue" points="167.5,-85.75 164,-75.75 160.5,-85.75 167.5,-85.75"/>
</g>
<!-- Node7 -->
<g id="node7" class="node">
<title>Node7</title>
<g id="a_node7"><a xlink:title=" ">
<polygon fill="white" stroke="#bfbfbf" points="78,-56.5 78,-75.5 122,-75.5 122,-56.5 78,-56.5"/>
<text text-anchor="middle" x="100" y="-63.5" font-family="Helvetica,sans-Serif" font-size="10.00">string</text>
</a>
</g>
</g>
<!-- Node2&#45;&gt;Node7 -->
<g id="edge6" class="edge">
<title>Node2&#45;&gt;Node7</title>
<path fill="none" stroke="midnightblue" d="M153.72,-112.32C144.16,-104.26 129.72,-92.08 118.22,-82.37"/>
<polygon fill="midnightblue" stroke="midnightblue" points="120.37,-79.61 110.47,-75.83 115.86,-84.96 120.37,-79.61"/>
</g>
<!-- Node6 -->
<g id="node6" class="node">
<title>Node6</title>
<g id="a_node6"><a xlink:href="generique_8h.html" target="_top" xlink:title=" ">
<polygon fill="white" stroke="black" points="127,-0.5 127,-19.5 201,-19.5 201,-0.5 127,-0.5"/>
<text text-anchor="middle" x="164" y="-7.5" font-family="Helvetica,sans-Serif" font-size="10.00">generique.h</text>
</a>
</g>
</g>
<!-- Node5&#45;&gt;Node6 -->
<g id="edge5" class="edge">
<title>Node5&#45;&gt;Node6</title>
<path fill="none" stroke="midnightblue" d="M164,-56.08C164,-49.01 164,-38.86 164,-29.99"/>
<polygon fill="midnightblue" stroke="midnightblue" points="167.5,-29.75 164,-19.75 160.5,-29.75 167.5,-29.75"/>
</g>
<!-- Node8&#45;&gt;Node4 -->
<g id="edge8" class="edge">
<title>Node8&#45;&gt;Node4</title>
<path fill="none" stroke="midnightblue" d="M389.49,-229.72C341.91,-224.18 256.86,-211.23 238,-188 214.24,-158.73 221.81,-111.07 228.47,-85.17"/>
<polygon fill="midnightblue" stroke="midnightblue" points="231.85,-86.08 231.18,-75.51 225.11,-84.2 231.85,-86.08"/>
</g>
<!-- Node9 -->
<g id="node9" class="node">
<title>Node9</title>
<g id="a_node9"><a xlink:href="DecBaseInst_8h.html" target="_top" xlink:title=" ">
<polygon fill="white" stroke="black" points="495,-168.5 495,-187.5 581,-187.5 581,-168.5 495,-168.5"/>
<text text-anchor="middle" x="538" y="-175.5" font-family="Helvetica,sans-Serif" font-size="10.00">DecBaseInst.h</text>
</a>
</g>
</g>
<!-- Node8&#45;&gt;Node9 -->
<g id="edge9" class="edge">
<title>Node8&#45;&gt;Node9</title>
<path fill="none" stroke="midnightblue" d="M440.38,-224.44C459.22,-215.68 488.73,-201.94 510.38,-191.86"/>
<polygon fill="midnightblue" stroke="midnightblue" points="512.12,-194.91 519.71,-187.52 509.16,-188.56 512.12,-194.91"/>
</g>
<!-- Node14 -->
<g id="node14" class="node">
<title>Node14</title>
<g id="a_node14"><a xlink:href="EntreeSortie_8h.html" target="_top" xlink:title=" ">
<polygon fill="white" stroke="black" points="247,-168.5 247,-187.5 333,-187.5 333,-168.5 247,-168.5"/>
<text text-anchor="middle" x="290" y="-175.5" font-family="Helvetica,sans-Serif" font-size="10.00">EntreeSortie.h</text>
</a>
</g>
</g>
<!-- Node8&#45;&gt;Node14 -->
<g id="edge15" class="edge">
<title>Node8&#45;&gt;Node14</title>
<path fill="none" stroke="midnightblue" d="M401.08,-224.44C379.26,-215.52 344.85,-201.44 320.11,-191.32"/>
<polygon fill="midnightblue" stroke="midnightblue" points="321.4,-188.06 310.82,-187.52 318.75,-194.54 321.4,-188.06"/>
</g>
<!-- Node18 -->
<g id="node18" class="node">
<title>Node18</title>
<g id="a_node18"><a xlink:href="Process_8h.html" target="_top" xlink:title=" ">
<polygon fill="white" stroke="black" points="412.5,-56.5 412.5,-75.5 475.5,-75.5 475.5,-56.5 412.5,-56.5"/>
<text text-anchor="middle" x="444" y="-63.5" font-family="Helvetica,sans-Serif" font-size="10.00">Process.h</text>
</a>
</g>
</g>
<!-- Node8&#45;&gt;Node18 -->
<g id="edge25" class="edge">
<title>Node8&#45;&gt;Node18</title>
<path fill="none" stroke="midnightblue" d="M423.18,-224.08C426.65,-197.95 436.82,-121.21 441.54,-85.58"/>
<polygon fill="midnightblue" stroke="midnightblue" points="445.02,-85.94 442.86,-75.57 438.08,-85.02 445.02,-85.94"/>
</g>
<!-- Node10 -->
<g id="node10" class="node">
<title>Node10</title>
<g id="a_node10"><a xlink:href="Cast_8h.html" target="_top" xlink:title=" ">
<polygon fill="white" stroke="black" points="504.5,-56.5 504.5,-75.5 551.5,-75.5 551.5,-56.5 504.5,-56.5"/>
<text text-anchor="middle" x="528" y="-63.5" font-family="Helvetica,sans-Serif" font-size="10.00">Cast.h</text>
</a>
</g>
</g>
<!-- Node9&#45;&gt;Node10 -->
<g id="edge10" class="edge">
<title>Node9&#45;&gt;Node10</title>
<path fill="none" stroke="midnightblue" d="M522.22,-168.47C509.8,-160.77 493.39,-148.18 486,-132 477.66,-113.75 493.34,-94.67 507.86,-81.94"/>
<polygon fill="midnightblue" stroke="midnightblue" points="510.12,-84.61 515.65,-75.57 505.69,-79.2 510.12,-84.61"/>
</g>
<!-- Node11 -->
<g id="node11" class="node">
<title>Node11</title>
<g id="a_node11"><a xlink:href="Type__info_8h.html" target="_top" xlink:title=" ">
<polygon fill="white" stroke="black" points="599,-112.5 599,-131.5 671,-131.5 671,-112.5 599,-112.5"/>
<text text-anchor="middle" x="635" y="-119.5" font-family="Helvetica,sans-Serif" font-size="10.00">Type_info.h</text>
</a>
</g>
</g>
<!-- Node9&#45;&gt;Node11 -->
<g id="edge11" class="edge">
<title>Node9&#45;&gt;Node11</title>
<path fill="none" stroke="midnightblue" d="M553.58,-168.32C569,-159.74 592.81,-146.49 610.71,-136.52"/>
<polygon fill="midnightblue" stroke="midnightblue" points="612.42,-139.58 619.45,-131.65 609.01,-133.46 612.42,-139.58"/>
</g>
<!-- Node12 -->
<g id="node12" class="node">
<title>Node12</title>
<g id="a_node12"><a xlink:href="Declare__Base_8h.html" target="_top" xlink:title=" ">
<polygon fill="white" stroke="black" points="689,-112.5 689,-131.5 781,-131.5 781,-112.5 689,-112.5"/>
<text text-anchor="middle" x="735" y="-119.5" font-family="Helvetica,sans-Serif" font-size="10.00">Declare_Base.h</text>
</a>
</g>
</g>
<!-- Node9&#45;&gt;Node12 -->
<g id="edge12" class="edge">
<title>Node9&#45;&gt;Node12</title>
<path fill="none" stroke="midnightblue" d="M569.22,-168.44C602.93,-159.2 656.8,-144.44 693.93,-134.26"/>
<polygon fill="midnightblue" stroke="midnightblue" points="695.21,-137.54 703.93,-131.52 693.36,-130.78 695.21,-137.54"/>
</g>
<!-- Node13 -->
<g id="node13" class="node">
<title>Node13</title>
<g id="a_node13"><a xlink:href="Declare__Inst_8h.html" target="_top" xlink:title=" ">
<polygon fill="white" stroke="black" points="495,-112.5 495,-131.5 581,-131.5 581,-112.5 495,-112.5"/>
<text text-anchor="middle" x="538" y="-119.5" font-family="Helvetica,sans-Serif" font-size="10.00">Declare_Inst.h</text>
</a>
</g>
</g>
<!-- Node9&#45;&gt;Node13 -->
<g id="edge13" class="edge">
<title>Node9&#45;&gt;Node13</title>
<path fill="none" stroke="midnightblue" d="M538,-168.08C538,-161.01 538,-150.86 538,-141.99"/>
<polygon fill="midnightblue" stroke="midnightblue" points="541.5,-141.75 538,-131.75 534.5,-141.75 541.5,-141.75"/>
</g>
<!-- Node13&#45;&gt;Node10 -->
<g id="edge14" class="edge">
<title>Node13&#45;&gt;Node10</title>
<path fill="none" stroke="midnightblue" d="M536.35,-112.08C535.02,-104.93 533.12,-94.64 531.46,-85.69"/>
<polygon fill="midnightblue" stroke="midnightblue" points="534.88,-84.95 529.62,-75.75 528,-86.22 534.88,-84.95"/>
</g>
<!-- Node14&#45;&gt;Node2 -->
<g id="edge23" class="edge">
<title>Node14&#45;&gt;Node2</title>
<path fill="none" stroke="midnightblue" d="M270.03,-168.44C249.39,-159.6 216.94,-145.69 193.37,-135.59"/>
<polygon fill="midnightblue" stroke="midnightblue" points="194.44,-132.24 183.87,-131.52 191.68,-138.67 194.44,-132.24"/>
</g>
<!-- Node15 -->
<g id="node15" class="node">
<title>Node15</title>
<g id="a_node15"><a xlink:href="Entree_8h.html" target="_top" xlink:title=" ">
<polygon fill="white" stroke="black" points="247.5,-112.5 247.5,-131.5 304.5,-131.5 304.5,-112.5 247.5,-112.5"/>
<text text-anchor="middle" x="276" y="-119.5" font-family="Helvetica,sans-Serif" font-size="10.00">Entree.h</text>
</a>
</g>
</g>
<!-- Node14&#45;&gt;Node15 -->
<g id="edge16" class="edge">
<title>Node14&#45;&gt;Node15</title>
<path fill="none" stroke="midnightblue" d="M287.69,-168.08C285.83,-160.93 283.16,-150.64 280.85,-141.69"/>
<polygon fill="midnightblue" stroke="midnightblue" points="284.17,-140.55 278.27,-131.75 277.39,-142.31 284.17,-140.55"/>
</g>
<!-- Node14&#45;&gt;Node19 -->
<g id="edge24" class="edge">
<title>Node14&#45;&gt;Node19</title>
<path fill="none" stroke="midnightblue" d="M301.57,-168.32C312.42,-160.18 328.88,-147.84 341.88,-138.09"/>
<polygon fill="midnightblue" stroke="midnightblue" points="344.32,-140.63 350.22,-131.83 340.12,-135.03 344.32,-140.63"/>
</g>
<!-- Node15&#45;&gt;Node3 -->
<g id="edge19" class="edge">
<title>Node15&#45;&gt;Node3</title>
<path fill="none" stroke="midnightblue" d="M247.18,-114.86C209.03,-106.7 139.44,-91.72 70.4,-76.29"/>
<polygon fill="midnightblue" stroke="midnightblue" points="70.75,-72.78 60.23,-74.01 69.22,-79.62 70.75,-72.78"/>
</g>
<!-- Node15&#45;&gt;Node4 -->
<g id="edge20" class="edge">
<title>Node15&#45;&gt;Node4</title>
<path fill="none" stroke="midnightblue" d="M269.06,-112.08C263.07,-104.38 254.25,-93.03 246.95,-83.65"/>
<polygon fill="midnightblue" stroke="midnightblue" points="249.71,-81.5 240.81,-75.75 244.18,-85.79 249.71,-81.5"/>
</g>
<!-- Node15&#45;&gt;Node5 -->
<g id="edge22" class="edge">
<title>Node15&#45;&gt;Node5</title>
<path fill="none" stroke="midnightblue" d="M258.01,-112.32C239.96,-103.62 211.95,-90.12 191.2,-80.11"/>
<polygon fill="midnightblue" stroke="midnightblue" points="192.48,-76.84 181.95,-75.65 189.44,-83.15 192.48,-76.84"/>
</g>
<!-- Node16 -->
<g id="node16" class="node">
<title>Node16</title>
<g id="a_node16"><a xlink:title=" ">
<polygon fill="white" stroke="#bfbfbf" points="344,-56.5 344,-75.5 394,-75.5 394,-56.5 344,-56.5"/>
<text text-anchor="middle" x="369" y="-63.5" font-family="Helvetica,sans-Serif" font-size="10.00">stdio.h</text>
</a>
</g>
</g>
<!-- Node15&#45;&gt;Node16 -->
<g id="edge17" class="edge">
<title>Node15&#45;&gt;Node16</title>
<path fill="none" stroke="midnightblue" d="M290.94,-112.32C305.59,-103.82 328.13,-90.73 345.24,-80.8"/>
<polygon fill="midnightblue" stroke="midnightblue" points="347.2,-83.7 354.1,-75.65 343.69,-77.65 347.2,-83.7"/>
</g>
<!-- Node17 -->
<g id="node17" class="node">
<title>Node17</title>
<g id="a_node17"><a xlink:title=" ">
<polygon fill="white" stroke="#bfbfbf" points="280,-56.5 280,-75.5 326,-75.5 326,-56.5 280,-56.5"/>
<text text-anchor="middle" x="303" y="-63.5" font-family="Helvetica,sans-Serif" font-size="10.00">cstdio</text>
</a>
</g>
</g>
<!-- Node15&#45;&gt;Node17 -->
<g id="edge18" class="edge">
<title>Node15&#45;&gt;Node17</title>
<path fill="none" stroke="midnightblue" d="M280.46,-112.08C284.15,-104.69 289.52,-93.95 294.09,-84.81"/>
<polygon fill="midnightblue" stroke="midnightblue" points="297.28,-86.26 298.62,-75.75 291.02,-83.13 297.28,-86.26"/>
</g>
<!-- Node15&#45;&gt;Node18 -->
<g id="edge21" class="edge">
<title>Node15&#45;&gt;Node18</title>
<path fill="none" stroke="midnightblue" d="M302.62,-112.44C331.01,-103.32 376.14,-88.81 407.75,-78.65"/>
<polygon fill="midnightblue" stroke="midnightblue" points="409.06,-81.91 417.5,-75.52 406.91,-75.24 409.06,-81.91"/>
</g>
</g>
</svg>
