<?xml version="1.0" encoding="UTF-8" standalone="no"?>
<!DOCTYPE svg PUBLIC "-//W3C//DTD SVG 1.1//EN"
 "http://www.w3.org/Graphics/SVG/1.1/DTD/svg11.dtd">
<!-- Generated by graphviz version 2.43.0 (0)
 -->
<!-- Title: src/Kernel/Framework/Source_dep_inco_base.h Pages: 1 -->
<svg width="1099pt" height="340pt"
 viewBox="0.00 0.00 1098.50 340.00" xmlns="http://www.w3.org/2000/svg" xmlns:xlink="http://www.w3.org/1999/xlink">
<g id="graph0" class="graph" transform="scale(1 1) rotate(0) translate(4 336)">
<title>src/Kernel/Framework/Source_dep_inco_base.h</title>
<polygon fill="white" stroke="transparent" points="-4,4 -4,-336 1094.5,-336 1094.5,4 -4,4"/>
<!-- Node1 -->
<g id="node1" class="node">
<title>Node1</title>
<g id="a_node1"><a xlink:title=" ">
<polygon fill="#bfbfbf" stroke="black" points="230.5,-301.5 230.5,-331.5 369.5,-331.5 369.5,-301.5 230.5,-301.5"/>
<text text-anchor="start" x="238.5" y="-319.5" font-family="Helvetica,sans-Serif" font-size="10.00">src/Kernel/Framework</text>
<text text-anchor="middle" x="300" y="-308.5" font-family="Helvetica,sans-Serif" font-size="10.00">/Source_dep_inco_base.h</text>
</a>
</g>
</g>
<!-- Node2 -->
<g id="node2" class="node">
<title>Node2</title>
<g id="a_node2"><a xlink:href="Equation__base_8cpp.html" target="_top" xlink:title=" ">
<polygon fill="white" stroke="black" points="0,-234.5 0,-264.5 122,-264.5 122,-234.5 0,-234.5"/>
<text text-anchor="start" x="8" y="-252.5" font-family="Helvetica,sans-Serif" font-size="10.00">src/Kernel/Framework</text>
<text text-anchor="middle" x="61" y="-241.5" font-family="Helvetica,sans-Serif" font-size="10.00">/Equation_base.cpp</text>
</a>
</g>
</g>
<!-- Node1&#45;&gt;Node2 -->
<g id="edge1" class="edge">
<title>Node1&#45;&gt;Node2</title>
<path fill="none" stroke="midnightblue" d="M238.78,-298.85C199.81,-288.25 149.9,-274.68 112.88,-264.61"/>
<polygon fill="midnightblue" stroke="midnightblue" points="237.87,-302.23 248.43,-301.48 239.7,-295.47 237.87,-302.23"/>
</g>
<!-- Node3 -->
<g id="node3" class="node">
<title>Node3</title>
<g id="a_node3"><a xlink:href="Source__dep__inco__base_8cpp.html" target="_top" xlink:title=" ">
<polygon fill="white" stroke="black" points="140,-234.5 140,-264.5 290,-264.5 290,-234.5 140,-234.5"/>
<text text-anchor="start" x="148" y="-252.5" font-family="Helvetica,sans-Serif" font-size="10.00">src/Kernel/Framework</text>
<text text-anchor="middle" x="215" y="-241.5" font-family="Helvetica,sans-Serif" font-size="10.00">/Source_dep_inco_base.cpp</text>
</a>
</g>
</g>
<!-- Node1&#45;&gt;Node3 -->
<g id="edge2" class="edge">
<title>Node1&#45;&gt;Node3</title>
<path fill="none" stroke="midnightblue" d="M273.41,-295.17C260.41,-285.23 245.1,-273.51 233.41,-264.58"/>
<polygon fill="midnightblue" stroke="midnightblue" points="271.49,-298.1 281.56,-301.4 275.74,-292.54 271.49,-298.1"/>
</g>
<!-- Node4 -->
<g id="node4" class="node">
<title>Node4</title>
<g id="a_node4"><a xlink:href="Source__PDF__base_8h.html" target="_top" xlink:title=" ">
<polygon fill="white" stroke="black" points="308,-234.5 308,-264.5 464,-264.5 464,-234.5 308,-234.5"/>
<text text-anchor="start" x="316" y="-252.5" font-family="Helvetica,sans-Serif" font-size="10.00">src/ThHyd/Incompressible</text>
<text text-anchor="middle" x="386" y="-241.5" font-family="Helvetica,sans-Serif" font-size="10.00">/Sources/Source_PDF_base.h</text>
</a>
</g>
</g>
<!-- Node1&#45;&gt;Node4 -->
<g id="edge3" class="edge">
<title>Node1&#45;&gt;Node4</title>
<path fill="none" stroke="midnightblue" d="M326.9,-295.17C340.05,-285.23 355.55,-273.51 367.38,-264.58"/>
<polygon fill="midnightblue" stroke="midnightblue" points="324.53,-292.57 318.66,-301.4 328.75,-298.16 324.53,-292.57"/>
</g>
<!-- Node10 -->
<g id="node10" class="node">
<title>Node10</title>
<g id="a_node10"><a xlink:href="Perte__Charge__VDF__Face_8h.html" target="_top" xlink:title=" ">
<polygon fill="white" stroke="black" points="736,-234.5 736,-264.5 860,-264.5 860,-234.5 736,-234.5"/>
<text text-anchor="start" x="744" y="-252.5" font-family="Helvetica,sans-Serif" font-size="10.00">src/VDF/Sources/Perte</text>
<text text-anchor="middle" x="798" y="-241.5" font-family="Helvetica,sans-Serif" font-size="10.00">_Charge_VDF_Face.h</text>
</a>
</g>
</g>
<!-- Node1&#45;&gt;Node10 -->
<g id="edge9" class="edge">
<title>Node1&#45;&gt;Node10</title>
<path fill="none" stroke="midnightblue" d="M379.46,-305.13C478.43,-292.21 645.47,-270.41 735.69,-258.63"/>
<polygon fill="midnightblue" stroke="midnightblue" points="378.97,-301.66 369.51,-306.43 379.88,-308.6 378.97,-301.66"/>
</g>
<!-- Node5 -->
<g id="node5" class="node">
<title>Node5</title>
<g id="a_node5"><a xlink:href="Source__PDF__EF_8h.html" target="_top" xlink:title=" ">
<polygon fill="white" stroke="black" points="0.5,-162 0.5,-192 123.5,-192 123.5,-162 0.5,-162"/>
<text text-anchor="start" x="8.5" y="-180" font-family="Helvetica,sans-Serif" font-size="10.00">src/EF/Sources/Source</text>
<text text-anchor="middle" x="62" y="-169" font-family="Helvetica,sans-Serif" font-size="10.00">_PDF_EF.h</text>
</a>
</g>
</g>
<!-- Node4&#45;&gt;Node5 -->
<g id="edge4" class="edge">
<title>Node4&#45;&gt;Node5</title>
<path fill="none" stroke="midnightblue" d="M297.87,-232.82C248.82,-223.63 186.78,-211.25 132,-198 124.63,-196.22 116.87,-194.17 109.3,-192.08"/>
<polygon fill="midnightblue" stroke="midnightblue" points="297.35,-236.28 307.82,-234.67 298.63,-229.4 297.35,-236.28"/>
</g>
<!-- Node7 -->
<g id="node7" class="node">
<title>Node7</title>
<g id="a_node7"><a xlink:href="Navier__Stokes__std_8cpp.html" target="_top" xlink:title=" ">
<polygon fill="white" stroke="black" points="141.5,-156.5 141.5,-197.5 284.5,-197.5 284.5,-156.5 141.5,-156.5"/>
<text text-anchor="start" x="149.5" y="-185.5" font-family="Helvetica,sans-Serif" font-size="10.00">src/ThHyd/Incompressible</text>
<text text-anchor="start" x="149.5" y="-174.5" font-family="Helvetica,sans-Serif" font-size="10.00">/Equations/Navier_Stokes</text>
<text text-anchor="middle" x="213" y="-163.5" font-family="Helvetica,sans-Serif" font-size="10.00">_std.cpp</text>
</a>
</g>
</g>
<!-- Node4&#45;&gt;Node7 -->
<g id="edge6" class="edge">
<title>Node4&#45;&gt;Node7</title>
<path fill="none" stroke="midnightblue" d="M341.91,-230.53C317.18,-220.45 286.3,-207.87 260.96,-197.55"/>
<polygon fill="midnightblue" stroke="midnightblue" points="340.83,-233.87 351.41,-234.4 343.47,-227.39 340.83,-233.87"/>
</g>
<!-- Node8 -->
<g id="node8" class="node">
<title>Node8</title>
<g id="a_node8"><a xlink:href="Source__PDF__base_8cpp.html" target="_top" xlink:title=" ">
<polygon fill="white" stroke="black" points="302.5,-162 302.5,-192 469.5,-192 469.5,-162 302.5,-162"/>
<text text-anchor="start" x="310.5" y="-180" font-family="Helvetica,sans-Serif" font-size="10.00">src/ThHyd/Incompressible</text>
<text text-anchor="middle" x="386" y="-169" font-family="Helvetica,sans-Serif" font-size="10.00">/Sources/Source_PDF_base.cpp</text>
</a>
</g>
</g>
<!-- Node4&#45;&gt;Node8 -->
<g id="edge7" class="edge">
<title>Node4&#45;&gt;Node8</title>
<path fill="none" stroke="midnightblue" d="M386,-224.23C386,-213.57 386,-201.41 386,-192.25"/>
<polygon fill="midnightblue" stroke="midnightblue" points="382.5,-224.23 386,-234.23 389.5,-224.23 382.5,-224.23"/>
</g>
<!-- Node9 -->
<g id="node9" class="node">
<title>Node9</title>
<g id="a_node9"><a xlink:href="Piso_8cpp.html" target="_top" xlink:title=" ">
<polygon fill="white" stroke="black" points="487.5,-162 487.5,-192 636.5,-192 636.5,-162 487.5,-162"/>
<text text-anchor="start" x="495.5" y="-180" font-family="Helvetica,sans-Serif" font-size="10.00">src/ThHyd/Schemas_Temps</text>
<text text-anchor="middle" x="562" y="-169" font-family="Helvetica,sans-Serif" font-size="10.00">/Piso.cpp</text>
</a>
</g>
</g>
<!-- Node4&#45;&gt;Node9 -->
<g id="edge8" class="edge">
<title>Node4&#45;&gt;Node9</title>
<path fill="none" stroke="midnightblue" d="M430.55,-230.65C460.41,-218.69 499.19,-203.16 526.87,-192.07"/>
<polygon fill="midnightblue" stroke="midnightblue" points="429.17,-227.44 421.19,-234.4 431.78,-233.93 429.17,-227.44"/>
</g>
<!-- Node6 -->
<g id="node6" class="node">
<title>Node6</title>
<g id="a_node6"><a xlink:href="Source__PDF__EF_8cpp.html" target="_top" xlink:title=" ">
<polygon fill="white" stroke="black" points="0.5,-84 0.5,-114 123.5,-114 123.5,-84 0.5,-84"/>
<text text-anchor="start" x="8.5" y="-102" font-family="Helvetica,sans-Serif" font-size="10.00">src/EF/Sources/Source</text>
<text text-anchor="middle" x="62" y="-91" font-family="Helvetica,sans-Serif" font-size="10.00">_PDF_EF.cpp</text>
</a>
</g>
</g>
<!-- Node5&#45;&gt;Node6 -->
<g id="edge5" class="edge">
<title>Node5&#45;&gt;Node6</title>
<path fill="none" stroke="midnightblue" d="M62,-151.59C62,-139.26 62,-124.72 62,-114.23"/>
<polygon fill="midnightblue" stroke="midnightblue" points="58.5,-151.7 62,-161.7 65.5,-151.71 58.5,-151.7"/>
</g>
<!-- Node11 -->
<g id="node11" class="node">
<title>Node11</title>
<g id="a_node11"><a xlink:href="Perte__Charge__Reguliere__VDF__Face_8h.html" target="_top" xlink:title=" ">
<polygon fill="white" stroke="black" points="655,-156.5 655,-197.5 789,-197.5 789,-156.5 655,-156.5"/>
<text text-anchor="start" x="663" y="-185.5" font-family="Helvetica,sans-Serif" font-size="10.00">src/VDF/Sources/Perte</text>
<text text-anchor="start" x="663" y="-174.5" font-family="Helvetica,sans-Serif" font-size="10.00">_Charge_Reguliere_VDF</text>
<text text-anchor="middle" x="722" y="-163.5" font-family="Helvetica,sans-Serif" font-size="10.00">_Face.h</text>
</a>
</g>
</g>
<!-- Node10&#45;&gt;Node11 -->
<g id="edge10" class="edge">
<title>Node10&#45;&gt;Node11</title>
<path fill="none" stroke="midnightblue" d="M775.23,-227.38C765.04,-217.93 753.1,-206.85 743.12,-197.59"/>
<polygon fill="midnightblue" stroke="midnightblue" points="772.91,-230 782.62,-234.23 777.67,-224.87 772.91,-230"/>
</g>
<!-- Node15 -->
<g id="node15" class="node">
<title>Node15</title>
<g id="a_node15"><a xlink:href="Perte__Charge__Singuliere__VDF__Face_8h.html" target="_top" xlink:title=" ">
<polygon fill="white" stroke="black" points="807,-156.5 807,-197.5 943,-197.5 943,-156.5 807,-156.5"/>
<text text-anchor="start" x="815" y="-185.5" font-family="Helvetica,sans-Serif" font-size="10.00">src/VDF/Sources/Perte</text>
<text text-anchor="start" x="815" y="-174.5" font-family="Helvetica,sans-Serif" font-size="10.00">_Charge_Singuliere_VDF</text>
<text text-anchor="middle" x="875" y="-163.5" font-family="Helvetica,sans-Serif" font-size="10.00">_Face.h</text>
</a>
</g>
</g>
<!-- Node10&#45;&gt;Node15 -->
<g id="edge14" class="edge">
<title>Node10&#45;&gt;Node15</title>
<path fill="none" stroke="midnightblue" d="M821.07,-227.38C831.39,-217.93 843.49,-206.85 853.61,-197.59"/>
<polygon fill="midnightblue" stroke="midnightblue" points="818.59,-224.9 813.58,-234.23 823.32,-230.06 818.59,-224.9"/>
</g>
<!-- Node17 -->
<g id="node17" class="node">
<title>Node17</title>
<g id="a_node17"><a xlink:href="Perte__Charge__VDF__Face_8cpp.html" target="_top" xlink:title=" ">
<polygon fill="white" stroke="black" points="961.5,-162 961.5,-192 1090.5,-192 1090.5,-162 961.5,-162"/>
<text text-anchor="start" x="969.5" y="-180" font-family="Helvetica,sans-Serif" font-size="10.00">src/VDF/Sources/Perte</text>
<text text-anchor="middle" x="1026" y="-169" font-family="Helvetica,sans-Serif" font-size="10.00">_Charge_VDF_Face.cpp</text>
</a>
</g>
</g>
<!-- Node10&#45;&gt;Node17 -->
<g id="edge17" class="edge">
<title>Node10&#45;&gt;Node17</title>
<path fill="none" stroke="midnightblue" d="M852.94,-231.51C891.93,-219.46 943.66,-203.46 980.38,-192.11"/>
<polygon fill="midnightblue" stroke="midnightblue" points="851.84,-228.19 843.32,-234.49 853.91,-234.88 851.84,-228.19"/>
</g>
<!-- Node12 -->
<g id="node12" class="node">
<title>Node12</title>
<g id="a_node12"><a xlink:href="Source__QC__VDF__Face_8h.html" target="_top" xlink:title=" ">
<polygon fill="white" stroke="black" points="719.5,-78.5 719.5,-119.5 876.5,-119.5 876.5,-78.5 719.5,-78.5"/>
<text text-anchor="start" x="727.5" y="-107.5" font-family="Helvetica,sans-Serif" font-size="10.00">src/ThHyd/Dilatable</text>
<text text-anchor="start" x="727.5" y="-96.5" font-family="Helvetica,sans-Serif" font-size="10.00">/Quasi_Compressible</text>
<text text-anchor="middle" x="798" y="-85.5" font-family="Helvetica,sans-Serif" font-size="10.00">/VDF/Source_QC_VDF_Face.h</text>
</a>
</g>
</g>
<!-- Node11&#45;&gt;Node12 -->
<g id="edge11" class="edge">
<title>Node11&#45;&gt;Node12</title>
<path fill="none" stroke="midnightblue" d="M748.8,-149.2C758.58,-139.42 769.46,-128.54 778.49,-119.51"/>
<polygon fill="midnightblue" stroke="midnightblue" points="746.17,-146.88 741.57,-156.43 751.12,-151.83 746.17,-146.88"/>
</g>
<!-- Node14 -->
<g id="node14" class="node">
<title>Node14</title>
<g id="a_node14"><a xlink:href="Perte__Charge__Reguliere__VDF__Face_8cpp.html" target="_top" xlink:title=" ">
<polygon fill="white" stroke="black" points="567,-78.5 567,-119.5 701,-119.5 701,-78.5 567,-78.5"/>
<text text-anchor="start" x="575" y="-107.5" font-family="Helvetica,sans-Serif" font-size="10.00">src/VDF/Sources/Perte</text>
<text text-anchor="start" x="575" y="-96.5" font-family="Helvetica,sans-Serif" font-size="10.00">_Charge_Reguliere_VDF</text>
<text text-anchor="middle" x="634" y="-85.5" font-family="Helvetica,sans-Serif" font-size="10.00">_Face.cpp</text>
</a>
</g>
</g>
<!-- Node11&#45;&gt;Node14 -->
<g id="edge13" class="edge">
<title>Node11&#45;&gt;Node14</title>
<path fill="none" stroke="midnightblue" d="M691.64,-149.78C680.13,-139.84 667.25,-128.72 656.59,-119.51"/>
<polygon fill="midnightblue" stroke="midnightblue" points="689.48,-152.54 699.34,-156.43 694.06,-147.24 689.48,-152.54"/>
</g>
<!-- Node13 -->
<g id="node13" class="node">
<title>Node13</title>
<g id="a_node13"><a xlink:href="Source__QC__VDF__Face_8cpp.html" target="_top" xlink:title=" ">
<polygon fill="white" stroke="black" points="714,-0.5 714,-41.5 882,-41.5 882,-0.5 714,-0.5"/>
<text text-anchor="start" x="722" y="-29.5" font-family="Helvetica,sans-Serif" font-size="10.00">src/ThHyd/Dilatable</text>
<text text-anchor="start" x="722" y="-18.5" font-family="Helvetica,sans-Serif" font-size="10.00">/Quasi_Compressible</text>
<text text-anchor="middle" x="798" y="-7.5" font-family="Helvetica,sans-Serif" font-size="10.00">/VDF/Source_QC_VDF_Face.cpp</text>
</a>
</g>
</g>
<!-- Node12&#45;&gt;Node13 -->
<g id="edge12" class="edge">
<title>Node12&#45;&gt;Node13</title>
<path fill="none" stroke="midnightblue" d="M798,-68.3C798,-59.3 798,-49.65 798,-41.51"/>
<polygon fill="midnightblue" stroke="midnightblue" points="794.5,-68.43 798,-78.43 801.5,-68.43 794.5,-68.43"/>
</g>
<!-- Node15&#45;&gt;Node12 -->
<g id="edge15" class="edge">
<title>Node15&#45;&gt;Node12</title>
<path fill="none" stroke="midnightblue" d="M847.85,-149.2C837.93,-139.42 826.91,-128.54 817.76,-119.51"/>
<polygon fill="midnightblue" stroke="midnightblue" points="845.59,-151.89 855.17,-156.43 850.51,-146.91 845.59,-151.89"/>
</g>
<!-- Node16 -->
<g id="node16" class="node">
<title>Node16</title>
<g id="a_node16"><a xlink:href="Perte__Charge__Singuliere__VDF__Face_8cpp.html" target="_top" xlink:title=" ">
<polygon fill="white" stroke="black" points="895,-78.5 895,-119.5 1031,-119.5 1031,-78.5 895,-78.5"/>
<text text-anchor="start" x="903" y="-107.5" font-family="Helvetica,sans-Serif" font-size="10.00">src/VDF/Sources/Perte</text>
<text text-anchor="start" x="903" y="-96.5" font-family="Helvetica,sans-Serif" font-size="10.00">_Charge_Singuliere_VDF</text>
<text text-anchor="middle" x="963" y="-85.5" font-family="Helvetica,sans-Serif" font-size="10.00">_Face.cpp</text>
</a>
</g>
</g>
<!-- Node15&#45;&gt;Node16 -->
<g id="edge16" class="edge">
<title>Node15&#45;&gt;Node16</title>
<path fill="none" stroke="midnightblue" d="M905.36,-149.78C916.87,-139.84 929.75,-128.72 940.41,-119.51"/>
<polygon fill="midnightblue" stroke="midnightblue" points="902.94,-147.24 897.66,-156.43 907.52,-152.54 902.94,-147.24"/>
</g>
</g>
</svg>
