<?xml version="1.0" encoding="UTF-8" standalone="no"?>
<!DOCTYPE svg PUBLIC "-//W3C//DTD SVG 1.1//EN"
 "http://www.w3.org/Graphics/SVG/1.1/DTD/svg11.dtd">
<!-- Generated by graphviz version 2.43.0 (0)
 -->
<!-- Title: src/Kernel/Utilitaires/StatComm.cpp Pages: 1 -->
<svg width="745pt" height="431pt"
 viewBox="0.00 0.00 745.26 431.00" xmlns="http://www.w3.org/2000/svg" xmlns:xlink="http://www.w3.org/1999/xlink">
<g id="graph0" class="graph" transform="scale(1 1) rotate(0) translate(4 427)">
<title>src/Kernel/Utilitaires/StatComm.cpp</title>
<polygon fill="white" stroke="transparent" points="-4,4 -4,-427 741.26,-427 741.26,4 -4,4"/>
<!-- Node1 -->
<g id="node1" class="node">
<title>Node1</title>
<g id="a_node1"><a xlink:title=" ">
<polygon fill="#bfbfbf" stroke="black" points="549.26,-392.5 549.26,-422.5 665.26,-422.5 665.26,-392.5 549.26,-392.5"/>
<text text-anchor="start" x="557.26" y="-410.5" font-family="Helvetica,sans-Serif" font-size="10.00">src/Kernel/Utilitaires</text>
<text text-anchor="middle" x="607.26" y="-399.5" font-family="Helvetica,sans-Serif" font-size="10.00">/StatComm.cpp</text>
</a>
</g>
</g>
<!-- Node2 -->
<g id="node2" class="node">
<title>Node2</title>
<g id="a_node2"><a xlink:href="StatComm_8h.html" target="_top" xlink:title=" ">
<polygon fill="white" stroke="black" points="450.76,-336.5 450.76,-355.5 527.76,-355.5 527.76,-336.5 450.76,-336.5"/>
<text text-anchor="middle" x="489.26" y="-343.5" font-family="Helvetica,sans-Serif" font-size="10.00">StatComm.h</text>
</a>
</g>
</g>
<!-- Node1&#45;&gt;Node2 -->
<g id="edge1" class="edge">
<title>Node1&#45;&gt;Node2</title>
<path fill="none" stroke="midnightblue" d="M579.3,-392.4C559.94,-382.64 534.35,-369.74 515.4,-360.18"/>
<polygon fill="midnightblue" stroke="midnightblue" points="516.93,-357.04 506.43,-355.66 513.78,-363.29 516.93,-357.04"/>
</g>
<!-- Node3 -->
<g id="node3" class="node">
<title>Node3</title>
<g id="a_node3"><a xlink:href="Nom_8h.html" target="_top" xlink:title=" ">
<polygon fill="white" stroke="black" points="634.76,-280.5 634.76,-299.5 683.76,-299.5 683.76,-280.5 634.76,-280.5"/>
<text text-anchor="middle" x="659.26" y="-287.5" font-family="Helvetica,sans-Serif" font-size="10.00">Nom.h</text>
</a>
</g>
</g>
<!-- Node1&#45;&gt;Node3 -->
<g id="edge2" class="edge">
<title>Node1&#45;&gt;Node3</title>
<path fill="none" stroke="midnightblue" d="M613.64,-392.34C623.09,-371.34 640.82,-331.96 651.17,-308.96"/>
<polygon fill="midnightblue" stroke="midnightblue" points="654.44,-310.22 655.36,-299.67 648.06,-307.35 654.44,-310.22"/>
</g>
<!-- Node23 -->
<g id="node23" class="node">
<title>Node23</title>
<g id="a_node23"><a xlink:href="SFichier_8h.html" target="_top" xlink:title=" ">
<polygon fill="white" stroke="black" points="545.76,-336.5 545.76,-355.5 608.76,-355.5 608.76,-336.5 545.76,-336.5"/>
<text text-anchor="middle" x="577.26" y="-343.5" font-family="Helvetica,sans-Serif" font-size="10.00">SFichier.h</text>
</a>
</g>
</g>
<!-- Node1&#45;&gt;Node23 -->
<g id="edge29" class="edge">
<title>Node1&#45;&gt;Node23</title>
<path fill="none" stroke="midnightblue" d="M600.15,-392.4C595.97,-384.11 590.65,-373.55 586.19,-364.71"/>
<polygon fill="midnightblue" stroke="midnightblue" points="589.25,-363.01 581.63,-355.66 583,-366.16 589.25,-363.01"/>
</g>
<!-- Node25 -->
<g id="node25" class="node">
<title>Node25</title>
<g id="a_node25"><a xlink:title=" ">
<polygon fill="white" stroke="#bfbfbf" points="665.76,-336.5 665.76,-355.5 720.76,-355.5 720.76,-336.5 665.76,-336.5"/>
<text text-anchor="middle" x="693.26" y="-343.5" font-family="Helvetica,sans-Serif" font-size="10.00">fstream</text>
</a>
</g>
</g>
<!-- Node1&#45;&gt;Node25 -->
<g id="edge33" class="edge">
<title>Node1&#45;&gt;Node25</title>
<path fill="none" stroke="midnightblue" d="M627.64,-392.4C641.17,-383.04 658.87,-370.79 672.48,-361.38"/>
<polygon fill="midnightblue" stroke="midnightblue" points="674.51,-364.23 680.75,-355.66 670.53,-358.47 674.51,-364.23"/>
</g>
<!-- Node4 -->
<g id="node4" class="node">
<title>Node4</title>
<g id="a_node4"><a xlink:href="Objet__U_8h.html" target="_top" xlink:title=" ">
<polygon fill="white" stroke="black" points="368.76,-224.5 368.76,-243.5 433.76,-243.5 433.76,-224.5 368.76,-224.5"/>
<text text-anchor="middle" x="401.26" y="-231.5" font-family="Helvetica,sans-Serif" font-size="10.00">Objet_U.h</text>
</a>
</g>
</g>
<!-- Node3&#45;&gt;Node4 -->
<g id="edge3" class="edge">
<title>Node3&#45;&gt;Node4</title>
<path fill="none" stroke="midnightblue" d="M634.42,-282.24C631.34,-281.46 628.23,-280.69 625.26,-280 562.53,-265.41 489.28,-251.23 444.07,-242.8"/>
<polygon fill="midnightblue" stroke="midnightblue" points="444.51,-239.32 434.04,-240.94 443.23,-246.21 444.51,-239.32"/>
</g>
<!-- Node20 -->
<g id="node20" class="node">
<title>Node20</title>
<g id="a_node20"><a xlink:title=" ">
<polygon fill="white" stroke="#bfbfbf" points="673.26,-56.5 673.26,-75.5 717.26,-75.5 717.26,-56.5 673.26,-56.5"/>
<text text-anchor="middle" x="695.26" y="-63.5" font-family="Helvetica,sans-Serif" font-size="10.00">string</text>
</a>
</g>
</g>
<!-- Node3&#45;&gt;Node20 -->
<g id="edge28" class="edge">
<title>Node3&#45;&gt;Node20</title>
<path fill="none" stroke="midnightblue" d="M660.67,-280.3C665.97,-247.63 684.74,-131.87 692.19,-85.96"/>
<polygon fill="midnightblue" stroke="midnightblue" points="695.67,-86.32 693.82,-75.88 688.76,-85.19 695.67,-86.32"/>
</g>
<!-- Node22 -->
<g id="node22" class="node">
<title>Node22</title>
<g id="a_node22"><a xlink:title=" ">
<polygon fill="white" stroke="#bfbfbf" points="687.26,-224.5 687.26,-243.5 737.26,-243.5 737.26,-224.5 687.26,-224.5"/>
<text text-anchor="middle" x="712.26" y="-231.5" font-family="Helvetica,sans-Serif" font-size="10.00">cstring</text>
</a>
</g>
</g>
<!-- Node3&#45;&gt;Node22 -->
<g id="edge27" class="edge">
<title>Node3&#45;&gt;Node22</title>
<path fill="none" stroke="midnightblue" d="M668.01,-280.08C675.73,-272.22 687.16,-260.57 696.48,-251.08"/>
<polygon fill="midnightblue" stroke="midnightblue" points="699.16,-253.34 703.67,-243.75 694.17,-248.44 699.16,-253.34"/>
</g>
<!-- Node5 -->
<g id="node5" class="node">
<title>Node5</title>
<g id="a_node5"><a xlink:title=" ">
<polygon fill="white" stroke="#bfbfbf" points="323.26,-56.5 323.26,-75.5 379.26,-75.5 379.26,-56.5 323.26,-56.5"/>
<text text-anchor="middle" x="351.26" y="-63.5" font-family="Helvetica,sans-Serif" font-size="10.00">assert.h</text>
</a>
</g>
</g>
<!-- Node4&#45;&gt;Node5 -->
<g id="edge4" class="edge">
<title>Node4&#45;&gt;Node5</title>
<path fill="none" stroke="midnightblue" d="M398.57,-224.08C390.7,-197.95 367.59,-121.21 356.86,-85.58"/>
<polygon fill="midnightblue" stroke="midnightblue" points="360.08,-84.13 353.84,-75.57 353.37,-86.15 360.08,-84.13"/>
</g>
<!-- Node6 -->
<g id="node6" class="node">
<title>Node6</title>
<g id="a_node6"><a xlink:href="DecBaseInst_8h.html" target="_top" xlink:title=" ">
<polygon fill="white" stroke="black" points="103.26,-168.5 103.26,-187.5 189.26,-187.5 189.26,-168.5 103.26,-168.5"/>
<text text-anchor="middle" x="146.26" y="-175.5" font-family="Helvetica,sans-Serif" font-size="10.00">DecBaseInst.h</text>
</a>
</g>
</g>
<!-- Node4&#45;&gt;Node6 -->
<g id="edge5" class="edge">
<title>Node4&#45;&gt;Node6</title>
<path fill="none" stroke="midnightblue" d="M368.7,-226.11C325.15,-216.88 247.5,-200.44 196.44,-189.63"/>
<polygon fill="midnightblue" stroke="midnightblue" points="197.1,-186.19 186.6,-187.54 195.65,-193.04 197.1,-186.19"/>
</g>
<!-- Node11 -->
<g id="node11" class="node">
<title>Node11</title>
<g id="a_node11"><a xlink:href="EntreeSortie_8h.html" target="_top" xlink:title=" ">
<polygon fill="white" stroke="black" points="429.26,-168.5 429.26,-187.5 515.26,-187.5 515.26,-168.5 429.26,-168.5"/>
<text text-anchor="middle" x="472.26" y="-175.5" font-family="Helvetica,sans-Serif" font-size="10.00">EntreeSortie.h</text>
</a>
</g>
</g>
<!-- Node4&#45;&gt;Node11 -->
<g id="edge11" class="edge">
<title>Node4&#45;&gt;Node11</title>
<path fill="none" stroke="midnightblue" d="M412.67,-224.32C423.37,-216.18 439.6,-203.84 452.42,-194.09"/>
<polygon fill="midnightblue" stroke="midnightblue" points="454.8,-196.67 460.64,-187.83 450.57,-191.1 454.8,-196.67"/>
</g>
<!-- Node16 -->
<g id="node16" class="node">
<title>Node16</title>
<g id="a_node16"><a xlink:href="Process_8h.html" target="_top" xlink:title=" ">
<polygon fill="white" stroke="black" points="241.76,-56.5 241.76,-75.5 304.76,-75.5 304.76,-56.5 241.76,-56.5"/>
<text text-anchor="middle" x="273.26" y="-63.5" font-family="Helvetica,sans-Serif" font-size="10.00">Process.h</text>
</a>
</g>
</g>
<!-- Node4&#45;&gt;Node16 -->
<g id="edge26" class="edge">
<title>Node4&#45;&gt;Node16</title>
<path fill="none" stroke="midnightblue" d="M394.74,-224.48C379.59,-204.7 340.83,-154.13 308.26,-112 300.98,-102.59 292.82,-92.09 286.21,-83.6"/>
<polygon fill="midnightblue" stroke="midnightblue" points="288.89,-81.35 279.98,-75.62 283.37,-85.65 288.89,-81.35"/>
</g>
<!-- Node7 -->
<g id="node7" class="node">
<title>Node7</title>
<g id="a_node7"><a xlink:href="Cast_8h.html" target="_top" xlink:title=" ">
<polygon fill="white" stroke="black" points="42.76,-56.5 42.76,-75.5 89.76,-75.5 89.76,-56.5 42.76,-56.5"/>
<text text-anchor="middle" x="66.26" y="-63.5" font-family="Helvetica,sans-Serif" font-size="10.00">Cast.h</text>
</a>
</g>
</g>
<!-- Node6&#45;&gt;Node7 -->
<g id="edge6" class="edge">
<title>Node6&#45;&gt;Node7</title>
<path fill="none" stroke="midnightblue" d="M103.17,-176.16C70.2,-172.96 26.72,-162.67 4.26,-132 -9.99,-112.54 15.62,-92.86 38.12,-80.34"/>
<polygon fill="midnightblue" stroke="midnightblue" points="39.92,-83.35 47.13,-75.59 36.65,-77.15 39.92,-83.35"/>
</g>
<!-- Node8 -->
<g id="node8" class="node">
<title>Node8</title>
<g id="a_node8"><a xlink:href="Type__info_8h.html" target="_top" xlink:title=" ">
<polygon fill="white" stroke="black" points="13.26,-112.5 13.26,-131.5 85.26,-131.5 85.26,-112.5 13.26,-112.5"/>
<text text-anchor="middle" x="49.26" y="-119.5" font-family="Helvetica,sans-Serif" font-size="10.00">Type_info.h</text>
</a>
</g>
</g>
<!-- Node6&#45;&gt;Node8 -->
<g id="edge7" class="edge">
<title>Node6&#45;&gt;Node8</title>
<path fill="none" stroke="midnightblue" d="M130.68,-168.32C115.26,-159.74 91.45,-146.49 73.55,-136.52"/>
<polygon fill="midnightblue" stroke="midnightblue" points="75.25,-133.46 64.81,-131.65 71.84,-139.58 75.25,-133.46"/>
</g>
<!-- Node9 -->
<g id="node9" class="node">
<title>Node9</title>
<g id="a_node9"><a xlink:href="Declare__Base_8h.html" target="_top" xlink:title=" ">
<polygon fill="white" stroke="black" points="207.26,-112.5 207.26,-131.5 299.26,-131.5 299.26,-112.5 207.26,-112.5"/>
<text text-anchor="middle" x="253.26" y="-119.5" font-family="Helvetica,sans-Serif" font-size="10.00">Declare_Base.h</text>
</a>
</g>
</g>
<!-- Node6&#45;&gt;Node9 -->
<g id="edge8" class="edge">
<title>Node6&#45;&gt;Node9</title>
<path fill="none" stroke="midnightblue" d="M163.45,-168.32C180.61,-159.66 207.21,-146.24 227.01,-136.25"/>
<polygon fill="midnightblue" stroke="midnightblue" points="228.76,-139.28 236.11,-131.65 225.61,-133.04 228.76,-139.28"/>
</g>
<!-- Node10 -->
<g id="node10" class="node">
<title>Node10</title>
<g id="a_node10"><a xlink:href="Declare__Inst_8h.html" target="_top" xlink:title=" ">
<polygon fill="white" stroke="black" points="103.26,-112.5 103.26,-131.5 189.26,-131.5 189.26,-112.5 103.26,-112.5"/>
<text text-anchor="middle" x="146.26" y="-119.5" font-family="Helvetica,sans-Serif" font-size="10.00">Declare_Inst.h</text>
</a>
</g>
</g>
<!-- Node6&#45;&gt;Node10 -->
<g id="edge9" class="edge">
<title>Node6&#45;&gt;Node10</title>
<path fill="none" stroke="midnightblue" d="M146.26,-168.08C146.26,-161.01 146.26,-150.86 146.26,-141.99"/>
<polygon fill="midnightblue" stroke="midnightblue" points="149.76,-141.75 146.26,-131.75 142.76,-141.75 149.76,-141.75"/>
</g>
<!-- Node10&#45;&gt;Node7 -->
<g id="edge10" class="edge">
<title>Node10&#45;&gt;Node7</title>
<path fill="none" stroke="midnightblue" d="M133.41,-112.32C121.04,-103.98 102.13,-91.21 87.52,-81.35"/>
<polygon fill="midnightblue" stroke="midnightblue" points="89.33,-78.35 79.08,-75.65 85.41,-84.15 89.33,-78.35"/>
</g>
<!-- Node12 -->
<g id="node12" class="node">
<title>Node12</title>
<g id="a_node12"><a xlink:href="Entree_8h.html" target="_top" xlink:title=" ">
<polygon fill="white" stroke="black" points="393.76,-112.5 393.76,-131.5 450.76,-131.5 450.76,-112.5 393.76,-112.5"/>
<text text-anchor="middle" x="422.26" y="-119.5" font-family="Helvetica,sans-Serif" font-size="10.00">Entree.h</text>
</a>
</g>
</g>
<!-- Node11&#45;&gt;Node12 -->
<g id="edge12" class="edge">
<title>Node11&#45;&gt;Node12</title>
<path fill="none" stroke="midnightblue" d="M464,-168.08C456.8,-160.3 446.15,-148.8 437.41,-139.37"/>
<polygon fill="midnightblue" stroke="midnightblue" points="439.72,-136.71 430.36,-131.75 434.59,-141.47 439.72,-136.71"/>
</g>
<!-- Node19 -->
<g id="node19" class="node">
<title>Node19</title>
<g id="a_node19"><a xlink:href="Sortie_8h.html" target="_top" xlink:title=" ">
<polygon fill="white" stroke="black" points="565.26,-112.5 565.26,-131.5 619.26,-131.5 619.26,-112.5 565.26,-112.5"/>
<text text-anchor="middle" x="592.26" y="-119.5" font-family="Helvetica,sans-Serif" font-size="10.00">Sortie.h</text>
</a>
</g>
</g>
<!-- Node11&#45;&gt;Node19 -->
<g id="edge20" class="edge">
<title>Node11&#45;&gt;Node19</title>
<path fill="none" stroke="midnightblue" d="M491.27,-168.44C510.85,-159.64 541.57,-145.81 563.99,-135.72"/>
<polygon fill="midnightblue" stroke="midnightblue" points="565.65,-138.81 573.33,-131.52 562.78,-132.43 565.65,-138.81"/>
</g>
<!-- Node21 -->
<g id="node21" class="node">
<title>Node21</title>
<g id="a_node21"><a xlink:href="Separateur_8h.html" target="_top" xlink:title=" ">
<polygon fill="white" stroke="black" points="469.26,-112.5 469.26,-131.5 547.26,-131.5 547.26,-112.5 469.26,-112.5"/>
<text text-anchor="middle" x="508.26" y="-119.5" font-family="Helvetica,sans-Serif" font-size="10.00">Separateur.h</text>
</a>
</g>
</g>
<!-- Node11&#45;&gt;Node21 -->
<g id="edge25" class="edge">
<title>Node11&#45;&gt;Node21</title>
<path fill="none" stroke="midnightblue" d="M478.2,-168.08C483.24,-160.53 490.6,-149.49 496.77,-140.23"/>
<polygon fill="midnightblue" stroke="midnightblue" points="499.79,-142.01 502.43,-131.75 493.97,-138.13 499.79,-142.01"/>
</g>
<!-- Node12&#45;&gt;Node5 -->
<g id="edge16" class="edge">
<title>Node12&#45;&gt;Node5</title>
<path fill="none" stroke="midnightblue" d="M410.85,-112.32C400.15,-104.18 383.92,-91.84 371.1,-82.09"/>
<polygon fill="midnightblue" stroke="midnightblue" points="372.95,-79.1 362.87,-75.83 368.72,-84.67 372.95,-79.1"/>
</g>
<!-- Node13 -->
<g id="node13" class="node">
<title>Node13</title>
<g id="a_node13"><a xlink:title=" ">
<polygon fill="white" stroke="#bfbfbf" points="397.26,-56.5 397.26,-75.5 447.26,-75.5 447.26,-56.5 397.26,-56.5"/>
<text text-anchor="middle" x="422.26" y="-63.5" font-family="Helvetica,sans-Serif" font-size="10.00">stdio.h</text>
</a>
</g>
</g>
<!-- Node12&#45;&gt;Node13 -->
<g id="edge13" class="edge">
<title>Node12&#45;&gt;Node13</title>
<path fill="none" stroke="midnightblue" d="M422.26,-112.08C422.26,-105.01 422.26,-94.86 422.26,-85.99"/>
<polygon fill="midnightblue" stroke="midnightblue" points="425.76,-85.75 422.26,-75.75 418.76,-85.75 425.76,-85.75"/>
</g>
<!-- Node14 -->
<g id="node14" class="node">
<title>Node14</title>
<g id="a_node14"><a xlink:title=" ">
<polygon fill="white" stroke="#bfbfbf" points="465.26,-56.5 465.26,-75.5 511.26,-75.5 511.26,-56.5 465.26,-56.5"/>
<text text-anchor="middle" x="488.26" y="-63.5" font-family="Helvetica,sans-Serif" font-size="10.00">cstdio</text>
</a>
</g>
</g>
<!-- Node12&#45;&gt;Node14 -->
<g id="edge14" class="edge">
<title>Node12&#45;&gt;Node14</title>
<path fill="none" stroke="midnightblue" d="M432.86,-112.32C442.72,-104.26 457.61,-92.08 469.47,-82.37"/>
<polygon fill="midnightblue" stroke="midnightblue" points="471.94,-84.88 477.46,-75.83 467.51,-79.46 471.94,-84.88"/>
</g>
<!-- Node15 -->
<g id="node15" class="node">
<title>Node15</title>
<g id="a_node15"><a xlink:title=" ">
<polygon fill="white" stroke="#bfbfbf" points="529.26,-56.5 529.26,-75.5 589.26,-75.5 589.26,-56.5 529.26,-56.5"/>
<text text-anchor="middle" x="559.26" y="-63.5" font-family="Helvetica,sans-Serif" font-size="10.00">iostream</text>
</a>
</g>
</g>
<!-- Node12&#45;&gt;Node15 -->
<g id="edge15" class="edge">
<title>Node12&#45;&gt;Node15</title>
<path fill="none" stroke="midnightblue" d="M443.97,-112.44C466.61,-103.52 502.33,-89.44 528.01,-79.32"/>
<polygon fill="midnightblue" stroke="midnightblue" points="529.63,-82.44 537.65,-75.52 527.07,-75.93 529.63,-82.44"/>
</g>
<!-- Node12&#45;&gt;Node16 -->
<g id="edge17" class="edge">
<title>Node12&#45;&gt;Node16</title>
<path fill="none" stroke="midnightblue" d="M398.65,-112.44C373.8,-103.44 334.49,-89.19 306.51,-79.05"/>
<polygon fill="midnightblue" stroke="midnightblue" points="307.35,-75.63 296.76,-75.52 304.97,-82.21 307.35,-75.63"/>
</g>
<!-- Node17 -->
<g id="node17" class="node">
<title>Node17</title>
<g id="a_node17"><a xlink:href="arch_8h.html" target="_top" xlink:title=" ">
<polygon fill="white" stroke="black" points="607.76,-56.5 607.76,-75.5 654.76,-75.5 654.76,-56.5 607.76,-56.5"/>
<text text-anchor="middle" x="631.26" y="-63.5" font-family="Helvetica,sans-Serif" font-size="10.00">arch.h</text>
</a>
</g>
</g>
<!-- Node12&#45;&gt;Node17 -->
<g id="edge18" class="edge">
<title>Node12&#45;&gt;Node17</title>
<path fill="none" stroke="midnightblue" d="M450.95,-113.81C483.91,-105.52 539.87,-91.35 597.47,-76.18"/>
<polygon fill="midnightblue" stroke="midnightblue" points="598.7,-79.47 607.48,-73.53 596.92,-72.7 598.7,-79.47"/>
</g>
<!-- Node18 -->
<g id="node18" class="node">
<title>Node18</title>
<g id="a_node18"><a xlink:href="generique_8h.html" target="_top" xlink:title=" ">
<polygon fill="white" stroke="black" points="594.26,-0.5 594.26,-19.5 668.26,-19.5 668.26,-0.5 594.26,-0.5"/>
<text text-anchor="middle" x="631.26" y="-7.5" font-family="Helvetica,sans-Serif" font-size="10.00">generique.h</text>
</a>
</g>
</g>
<!-- Node17&#45;&gt;Node18 -->
<g id="edge19" class="edge">
<title>Node17&#45;&gt;Node18</title>
<path fill="none" stroke="midnightblue" d="M631.26,-56.08C631.26,-49.01 631.26,-38.86 631.26,-29.99"/>
<polygon fill="midnightblue" stroke="midnightblue" points="634.76,-29.75 631.26,-19.75 627.76,-29.75 634.76,-29.75"/>
</g>
<!-- Node19&#45;&gt;Node5 -->
<g id="edge22" class="edge">
<title>Node19&#45;&gt;Node5</title>
<path fill="none" stroke="midnightblue" d="M565.16,-114.12C562.16,-113.39 559.15,-112.67 556.26,-112 484.93,-95.45 464.37,-93.19 389.44,-76.22"/>
<polygon fill="midnightblue" stroke="midnightblue" points="390.05,-72.77 379.52,-73.96 388.49,-79.59 390.05,-72.77"/>
</g>
<!-- Node19&#45;&gt;Node15 -->
<g id="edge21" class="edge">
<title>Node19&#45;&gt;Node15</title>
<path fill="none" stroke="midnightblue" d="M586.81,-112.08C582.25,-104.61 575.59,-93.72 569.97,-84.52"/>
<polygon fill="midnightblue" stroke="midnightblue" points="572.81,-82.46 564.61,-75.75 566.84,-86.11 572.81,-82.46"/>
</g>
<!-- Node19&#45;&gt;Node17 -->
<g id="edge23" class="edge">
<title>Node19&#45;&gt;Node17</title>
<path fill="none" stroke="midnightblue" d="M598.7,-112.08C604.21,-104.46 612.29,-93.26 619.02,-83.94"/>
<polygon fill="midnightblue" stroke="midnightblue" points="621.92,-85.91 624.94,-75.75 616.25,-81.81 621.92,-85.91"/>
</g>
<!-- Node19&#45;&gt;Node20 -->
<g id="edge24" class="edge">
<title>Node19&#45;&gt;Node20</title>
<path fill="none" stroke="midnightblue" d="M608.81,-112.32C625.25,-103.7 650.69,-90.36 669.73,-80.39"/>
<polygon fill="midnightblue" stroke="midnightblue" points="671.52,-83.4 678.75,-75.65 668.27,-77.2 671.52,-83.4"/>
</g>
<!-- Node24 -->
<g id="node24" class="node">
<title>Node24</title>
<g id="a_node24"><a xlink:href="Sortie__Fichier__base_8h.html" target="_top" xlink:title=" ">
<polygon fill="white" stroke="black" points="496.26,-280.5 496.26,-299.5 616.26,-299.5 616.26,-280.5 496.26,-280.5"/>
<text text-anchor="middle" x="556.26" y="-287.5" font-family="Helvetica,sans-Serif" font-size="10.00">Sortie_Fichier_base.h</text>
</a>
</g>
</g>
<!-- Node23&#45;&gt;Node24 -->
<g id="edge30" class="edge">
<title>Node23&#45;&gt;Node24</title>
<path fill="none" stroke="midnightblue" d="M573.79,-336.08C570.95,-328.77 566.83,-318.18 563.3,-309.1"/>
<polygon fill="midnightblue" stroke="midnightblue" points="566.55,-307.8 559.66,-299.75 560.03,-310.34 566.55,-307.8"/>
</g>
<!-- Node24&#45;&gt;Node4 -->
<g id="edge32" class="edge">
<title>Node24&#45;&gt;Node4</title>
<path fill="none" stroke="midnightblue" d="M531.7,-280.44C505.74,-271.4 464.59,-257.06 435.46,-246.92"/>
<polygon fill="midnightblue" stroke="midnightblue" points="436.3,-243.5 425.71,-243.52 434,-250.11 436.3,-243.5"/>
</g>
<!-- Node24&#45;&gt;Node19 -->
<g id="edge31" class="edge">
<title>Node24&#45;&gt;Node19</title>
<path fill="none" stroke="midnightblue" d="M558.2,-280.08C563.86,-253.95 580.5,-177.21 588.23,-141.58"/>
<polygon fill="midnightblue" stroke="midnightblue" points="591.7,-142.08 590.4,-131.57 584.86,-140.6 591.7,-142.08"/>
</g>
</g>
</svg>
