<?xml version="1.0" encoding="UTF-8" standalone="no"?>
<!DOCTYPE svg PUBLIC "-//W3C//DTD SVG 1.1//EN"
 "http://www.w3.org/Graphics/SVG/1.1/DTD/svg11.dtd">
<!-- Generated by graphviz version 2.43.0 (0)
 -->
<!-- Title: src/Kernel/Utilitaires/stat_counters.cpp Pages: 1 -->
<svg width="815pt" height="487pt"
 viewBox="0.00 0.00 815.00 487.00" xmlns="http://www.w3.org/2000/svg" xmlns:xlink="http://www.w3.org/1999/xlink">
<g id="graph0" class="graph" transform="scale(1 1) rotate(0) translate(4 483)">
<title>src/Kernel/Utilitaires/stat_counters.cpp</title>
<polygon fill="white" stroke="transparent" points="-4,4 -4,-483 811,-483 811,4 -4,4"/>
<!-- Node1 -->
<g id="node1" class="node">
<title>Node1</title>
<g id="a_node1"><a xlink:title=" ">
<polygon fill="#bfbfbf" stroke="black" points="197,-448.5 197,-478.5 313,-478.5 313,-448.5 197,-448.5"/>
<text text-anchor="start" x="205" y="-466.5" font-family="Helvetica,sans-Serif" font-size="10.00">src/Kernel/Utilitaires</text>
<text text-anchor="middle" x="255" y="-455.5" font-family="Helvetica,sans-Serif" font-size="10.00">/stat_counters.cpp</text>
</a>
</g>
</g>
<!-- Node2 -->
<g id="node2" class="node">
<title>Node2</title>
<g id="a_node2"><a xlink:href="stat__counters_8h.html" target="_top" xlink:title=" ">
<polygon fill="white" stroke="black" points="95,-392.5 95,-411.5 187,-411.5 187,-392.5 95,-392.5"/>
<text text-anchor="middle" x="141" y="-399.5" font-family="Helvetica,sans-Serif" font-size="10.00">stat_counters.h</text>
</a>
</g>
</g>
<!-- Node1&#45;&gt;Node2 -->
<g id="edge1" class="edge">
<title>Node1&#45;&gt;Node2</title>
<path fill="none" stroke="midnightblue" d="M227.98,-448.4C209.37,-438.68 184.79,-425.86 166.51,-416.31"/>
<polygon fill="midnightblue" stroke="midnightblue" points="168.07,-413.18 157.59,-411.66 164.83,-419.39 168.07,-413.18"/>
</g>
<!-- Node5 -->
<g id="node5" class="node">
<title>Node5</title>
<g id="a_node5"><a xlink:title=" ">
<polygon fill="white" stroke="#bfbfbf" points="561.5,-392.5 561.5,-411.5 612.5,-411.5 612.5,-392.5 561.5,-392.5"/>
<text text-anchor="middle" x="587" y="-399.5" font-family="Helvetica,sans-Serif" font-size="10.00">math.h</text>
</a>
</g>
</g>
<!-- Node1&#45;&gt;Node5 -->
<g id="edge4" class="edge">
<title>Node1&#45;&gt;Node5</title>
<path fill="none" stroke="midnightblue" d="M313.05,-453.34C372.09,-443.82 466.14,-428.08 547,-412 548.44,-411.71 549.91,-411.42 551.39,-411.11"/>
<polygon fill="midnightblue" stroke="midnightblue" points="552.18,-414.52 561.22,-409 550.71,-407.67 552.18,-414.52"/>
</g>
<!-- Node6 -->
<g id="node6" class="node">
<title>Node6</title>
<g id="a_node6"><a xlink:href="EcrFicCollecte_8h.html" target="_top" xlink:title=" ">
<polygon fill="white" stroke="black" points="247,-392.5 247,-411.5 341,-411.5 341,-392.5 247,-392.5"/>
<text text-anchor="middle" x="294" y="-399.5" font-family="Helvetica,sans-Serif" font-size="10.00">EcrFicCollecte.h</text>
</a>
</g>
</g>
<!-- Node1&#45;&gt;Node6 -->
<g id="edge5" class="edge">
<title>Node1&#45;&gt;Node6</title>
<path fill="none" stroke="midnightblue" d="M264.24,-448.4C269.79,-439.93 276.89,-429.1 282.77,-420.14"/>
<polygon fill="midnightblue" stroke="midnightblue" points="285.77,-421.94 288.33,-411.66 279.92,-418.1 285.77,-421.94"/>
</g>
<!-- Node26 -->
<g id="node26" class="node">
<title>Node26</title>
<g id="a_node26"><a xlink:href="Nom_8h.html" target="_top" xlink:title=" ">
<polygon fill="white" stroke="black" points="37.5,-280.5 37.5,-299.5 86.5,-299.5 86.5,-280.5 37.5,-280.5"/>
<text text-anchor="middle" x="62" y="-287.5" font-family="Helvetica,sans-Serif" font-size="10.00">Nom.h</text>
</a>
</g>
</g>
<!-- Node1&#45;&gt;Node26 -->
<g id="edge34" class="edge">
<title>Node1&#45;&gt;Node26</title>
<path fill="none" stroke="midnightblue" d="M196.88,-459.92C159.97,-455.13 114.02,-442.81 86,-412 60.27,-383.71 58.76,-336.01 60.2,-309.75"/>
<polygon fill="midnightblue" stroke="midnightblue" points="63.7,-309.86 60.96,-299.63 56.72,-309.33 63.7,-309.86"/>
</g>
<!-- Node28 -->
<g id="node28" class="node">
<title>Node28</title>
<g id="a_node28"><a xlink:href="Double_8h.html" target="_top" xlink:title=" ">
<polygon fill="white" stroke="black" points="429,-280.5 429,-299.5 489,-299.5 489,-280.5 429,-280.5"/>
<text text-anchor="middle" x="459" y="-287.5" font-family="Helvetica,sans-Serif" font-size="10.00">Double.h</text>
</a>
</g>
</g>
<!-- Node1&#45;&gt;Node28 -->
<g id="edge38" class="edge">
<title>Node1&#45;&gt;Node28</title>
<path fill="none" stroke="midnightblue" d="M287.92,-448.5C307.04,-439.54 331.01,-426.83 350,-412 390.49,-380.38 428.41,-332.7 447.01,-307.68"/>
<polygon fill="midnightblue" stroke="midnightblue" points="449.88,-309.69 452.96,-299.55 444.23,-305.55 449.88,-309.69"/>
</g>
<!-- Node31 -->
<g id="node31" class="node">
<title>Node31</title>
<g id="a_node31"><a xlink:href="SChaine_8h.html" target="_top" xlink:title=" ">
<polygon fill="white" stroke="black" points="161.5,-336.5 161.5,-355.5 226.5,-355.5 226.5,-336.5 161.5,-336.5"/>
<text text-anchor="middle" x="194" y="-343.5" font-family="Helvetica,sans-Serif" font-size="10.00">SChaine.h</text>
</a>
</g>
</g>
<!-- Node1&#45;&gt;Node31 -->
<g id="edge43" class="edge">
<title>Node1&#45;&gt;Node31</title>
<path fill="none" stroke="midnightblue" d="M247.52,-448.34C236.38,-427.24 215.44,-387.6 203.32,-364.65"/>
<polygon fill="midnightblue" stroke="midnightblue" points="206.34,-362.88 198.58,-355.67 200.15,-366.15 206.34,-362.88"/>
</g>
<!-- Node3 -->
<g id="node3" class="node">
<title>Node3</title>
<g id="a_node3"><a xlink:href="Statistiques_8h.html" target="_top" xlink:title=" ">
<polygon fill="white" stroke="black" points="38.5,-168.5 38.5,-187.5 121.5,-187.5 121.5,-168.5 38.5,-168.5"/>
<text text-anchor="middle" x="80" y="-175.5" font-family="Helvetica,sans-Serif" font-size="10.00">Statistiques.h</text>
</a>
</g>
</g>
<!-- Node2&#45;&gt;Node3 -->
<g id="edge2" class="edge">
<title>Node2&#45;&gt;Node3</title>
<path fill="none" stroke="midnightblue" d="M139.12,-392.45C133.41,-366.74 115.47,-288.01 96,-224 93.28,-215.06 89.86,-205.28 86.88,-197.12"/>
<polygon fill="midnightblue" stroke="midnightblue" points="90.08,-195.7 83.31,-187.55 83.52,-198.14 90.08,-195.7"/>
</g>
<!-- Node4 -->
<g id="node4" class="node">
<title>Node4</title>
<g id="a_node4"><a xlink:title=" ">
<polygon fill="white" stroke="#bfbfbf" points="70,-56.5 70,-75.5 126,-75.5 126,-56.5 70,-56.5"/>
<text text-anchor="middle" x="98" y="-63.5" font-family="Helvetica,sans-Serif" font-size="10.00">assert.h</text>
</a>
</g>
</g>
<!-- Node3&#45;&gt;Node4 -->
<g id="edge3" class="edge">
<title>Node3&#45;&gt;Node4</title>
<path fill="none" stroke="midnightblue" d="M79.64,-168.08C79.31,-155.47 79.32,-131.77 83,-112 84.68,-102.99 87.73,-93.32 90.64,-85.25"/>
<polygon fill="midnightblue" stroke="midnightblue" points="93.97,-86.36 94.27,-75.77 87.43,-83.86 93.97,-86.36"/>
</g>
<!-- Node7 -->
<g id="node7" class="node">
<title>Node7</title>
<g id="a_node7"><a xlink:href="SFichier_8h.html" target="_top" xlink:title=" ">
<polygon fill="white" stroke="black" points="262.5,-336.5 262.5,-355.5 325.5,-355.5 325.5,-336.5 262.5,-336.5"/>
<text text-anchor="middle" x="294" y="-343.5" font-family="Helvetica,sans-Serif" font-size="10.00">SFichier.h</text>
</a>
</g>
</g>
<!-- Node6&#45;&gt;Node7 -->
<g id="edge6" class="edge">
<title>Node6&#45;&gt;Node7</title>
<path fill="none" stroke="midnightblue" d="M294,-392.08C294,-385.01 294,-374.86 294,-365.99"/>
<polygon fill="midnightblue" stroke="midnightblue" points="297.5,-365.75 294,-355.75 290.5,-365.75 297.5,-365.75"/>
</g>
<!-- Node24 -->
<g id="node24" class="node">
<title>Node24</title>
<g id="a_node24"><a xlink:href="Process_8h.html" target="_top" xlink:title=" ">
<polygon fill="white" stroke="black" points="425.5,-56.5 425.5,-75.5 488.5,-75.5 488.5,-56.5 425.5,-56.5"/>
<text text-anchor="middle" x="457" y="-63.5" font-family="Helvetica,sans-Serif" font-size="10.00">Process.h</text>
</a>
</g>
</g>
<!-- Node6&#45;&gt;Node24 -->
<g id="edge33" class="edge">
<title>Node6&#45;&gt;Node24</title>
<path fill="none" stroke="midnightblue" d="M327.42,-392.48C400.06,-371.89 570.79,-311.73 633,-188 648.19,-157.8 656.79,-138.66 636,-112 619.3,-90.58 546.19,-77.79 498.73,-71.6"/>
<polygon fill="midnightblue" stroke="midnightblue" points="499.09,-68.12 488.73,-70.34 498.21,-75.06 499.09,-68.12"/>
</g>
<!-- Node8 -->
<g id="node8" class="node">
<title>Node8</title>
<g id="a_node8"><a xlink:href="Sortie__Fichier__base_8h.html" target="_top" xlink:title=" ">
<polygon fill="white" stroke="black" points="234,-280.5 234,-299.5 354,-299.5 354,-280.5 234,-280.5"/>
<text text-anchor="middle" x="294" y="-287.5" font-family="Helvetica,sans-Serif" font-size="10.00">Sortie_Fichier_base.h</text>
</a>
</g>
</g>
<!-- Node7&#45;&gt;Node8 -->
<g id="edge7" class="edge">
<title>Node7&#45;&gt;Node8</title>
<path fill="none" stroke="midnightblue" d="M294,-336.08C294,-329.01 294,-318.86 294,-309.99"/>
<polygon fill="midnightblue" stroke="midnightblue" points="297.5,-309.75 294,-299.75 290.5,-309.75 297.5,-309.75"/>
</g>
<!-- Node9 -->
<g id="node9" class="node">
<title>Node9</title>
<g id="a_node9"><a xlink:href="Sortie_8h.html" target="_top" xlink:title=" ">
<polygon fill="white" stroke="black" points="125,-112.5 125,-131.5 179,-131.5 179,-112.5 125,-112.5"/>
<text text-anchor="middle" x="152" y="-119.5" font-family="Helvetica,sans-Serif" font-size="10.00">Sortie.h</text>
</a>
</g>
</g>
<!-- Node8&#45;&gt;Node9 -->
<g id="edge8" class="edge">
<title>Node8&#45;&gt;Node9</title>
<path fill="none" stroke="midnightblue" d="M286.37,-280.08C263.53,-253.38 195.51,-173.87 165.96,-139.32"/>
<polygon fill="midnightblue" stroke="midnightblue" points="168.49,-136.89 159.33,-131.57 163.17,-141.44 168.49,-136.89"/>
</g>
<!-- Node14 -->
<g id="node14" class="node">
<title>Node14</title>
<g id="a_node14"><a xlink:href="Objet__U_8h.html" target="_top" xlink:title=" ">
<polygon fill="white" stroke="black" points="266.5,-224.5 266.5,-243.5 331.5,-243.5 331.5,-224.5 266.5,-224.5"/>
<text text-anchor="middle" x="299" y="-231.5" font-family="Helvetica,sans-Serif" font-size="10.00">Objet_U.h</text>
</a>
</g>
</g>
<!-- Node8&#45;&gt;Node14 -->
<g id="edge14" class="edge">
<title>Node8&#45;&gt;Node14</title>
<path fill="none" stroke="midnightblue" d="M294.83,-280.08C295.48,-273.01 296.42,-262.86 297.24,-253.99"/>
<polygon fill="midnightblue" stroke="midnightblue" points="300.75,-254.03 298.19,-243.75 293.78,-253.39 300.75,-254.03"/>
</g>
<!-- Node9&#45;&gt;Node4 -->
<g id="edge10" class="edge">
<title>Node9&#45;&gt;Node4</title>
<path fill="none" stroke="midnightblue" d="M143.08,-112.08C135.22,-104.22 123.57,-92.57 114.08,-83.08"/>
<polygon fill="midnightblue" stroke="midnightblue" points="116.3,-80.35 106.75,-75.75 111.35,-85.3 116.3,-80.35"/>
</g>
<!-- Node10 -->
<g id="node10" class="node">
<title>Node10</title>
<g id="a_node10"><a xlink:title=" ">
<polygon fill="white" stroke="#bfbfbf" points="146,-56.5 146,-75.5 206,-75.5 206,-56.5 146,-56.5"/>
<text text-anchor="middle" x="176" y="-63.5" font-family="Helvetica,sans-Serif" font-size="10.00">iostream</text>
</a>
</g>
</g>
<!-- Node9&#45;&gt;Node10 -->
<g id="edge9" class="edge">
<title>Node9&#45;&gt;Node10</title>
<path fill="none" stroke="midnightblue" d="M155.96,-112.08C159.21,-104.77 163.92,-94.18 167.95,-85.1"/>
<polygon fill="midnightblue" stroke="midnightblue" points="171.25,-86.31 172.11,-75.75 164.85,-83.47 171.25,-86.31"/>
</g>
<!-- Node11 -->
<g id="node11" class="node">
<title>Node11</title>
<g id="a_node11"><a xlink:href="arch_8h.html" target="_top" xlink:title=" ">
<polygon fill="white" stroke="black" points="227.5,-56.5 227.5,-75.5 274.5,-75.5 274.5,-56.5 227.5,-56.5"/>
<text text-anchor="middle" x="251" y="-63.5" font-family="Helvetica,sans-Serif" font-size="10.00">arch.h</text>
</a>
</g>
</g>
<!-- Node9&#45;&gt;Node11 -->
<g id="edge11" class="edge">
<title>Node9&#45;&gt;Node11</title>
<path fill="none" stroke="midnightblue" d="M167.91,-112.32C183.64,-103.74 207.94,-90.49 226.21,-80.52"/>
<polygon fill="midnightblue" stroke="midnightblue" points="228.03,-83.52 235.13,-75.65 224.68,-77.37 228.03,-83.52"/>
</g>
<!-- Node13 -->
<g id="node13" class="node">
<title>Node13</title>
<g id="a_node13"><a xlink:title=" ">
<polygon fill="white" stroke="#bfbfbf" points="0,-56.5 0,-75.5 44,-75.5 44,-56.5 0,-56.5"/>
<text text-anchor="middle" x="22" y="-63.5" font-family="Helvetica,sans-Serif" font-size="10.00">string</text>
</a>
</g>
</g>
<!-- Node9&#45;&gt;Node13 -->
<g id="edge13" class="edge">
<title>Node9&#45;&gt;Node13</title>
<path fill="none" stroke="midnightblue" d="M131.4,-112.44C110.01,-103.56 76.32,-89.56 51.98,-79.45"/>
<polygon fill="midnightblue" stroke="midnightblue" points="53.08,-76.12 42.5,-75.52 50.39,-82.58 53.08,-76.12"/>
</g>
<!-- Node12 -->
<g id="node12" class="node">
<title>Node12</title>
<g id="a_node12"><a xlink:href="generique_8h.html" target="_top" xlink:title=" ">
<polygon fill="white" stroke="black" points="214,-0.5 214,-19.5 288,-19.5 288,-0.5 214,-0.5"/>
<text text-anchor="middle" x="251" y="-7.5" font-family="Helvetica,sans-Serif" font-size="10.00">generique.h</text>
</a>
</g>
</g>
<!-- Node11&#45;&gt;Node12 -->
<g id="edge12" class="edge">
<title>Node11&#45;&gt;Node12</title>
<path fill="none" stroke="midnightblue" d="M251,-56.08C251,-49.01 251,-38.86 251,-29.99"/>
<polygon fill="midnightblue" stroke="midnightblue" points="254.5,-29.75 251,-19.75 247.5,-29.75 254.5,-29.75"/>
</g>
<!-- Node14&#45;&gt;Node4 -->
<g id="edge15" class="edge">
<title>Node14&#45;&gt;Node4</title>
<path fill="none" stroke="midnightblue" d="M268.85,-224.48C228.05,-211.4 155.8,-182.41 116,-132 105.47,-118.66 101.09,-99.54 99.28,-85.49"/>
<polygon fill="midnightblue" stroke="midnightblue" points="102.76,-85.13 98.3,-75.52 95.79,-85.81 102.76,-85.13"/>
</g>
<!-- Node15 -->
<g id="node15" class="node">
<title>Node15</title>
<g id="a_node15"><a xlink:href="DecBaseInst_8h.html" target="_top" xlink:title=" ">
<polygon fill="white" stroke="black" points="538,-168.5 538,-187.5 624,-187.5 624,-168.5 538,-168.5"/>
<text text-anchor="middle" x="581" y="-175.5" font-family="Helvetica,sans-Serif" font-size="10.00">DecBaseInst.h</text>
</a>
</g>
</g>
<!-- Node14&#45;&gt;Node15 -->
<g id="edge16" class="edge">
<title>Node14&#45;&gt;Node15</title>
<path fill="none" stroke="midnightblue" d="M331.62,-226.75C379.63,-217.56 469.84,-200.29 527.59,-189.23"/>
<polygon fill="midnightblue" stroke="midnightblue" points="528.47,-192.62 537.63,-187.31 527.15,-185.75 528.47,-192.62"/>
</g>
<!-- Node20 -->
<g id="node20" class="node">
<title>Node20</title>
<g id="a_node20"><a xlink:href="EntreeSortie_8h.html" target="_top" xlink:title=" ">
<polygon fill="white" stroke="black" points="256,-168.5 256,-187.5 342,-187.5 342,-168.5 256,-168.5"/>
<text text-anchor="middle" x="299" y="-175.5" font-family="Helvetica,sans-Serif" font-size="10.00">EntreeSortie.h</text>
</a>
</g>
</g>
<!-- Node14&#45;&gt;Node20 -->
<g id="edge22" class="edge">
<title>Node14&#45;&gt;Node20</title>
<path fill="none" stroke="midnightblue" d="M299,-224.08C299,-217.01 299,-206.86 299,-197.99"/>
<polygon fill="midnightblue" stroke="midnightblue" points="302.5,-197.75 299,-187.75 295.5,-197.75 302.5,-197.75"/>
</g>
<!-- Node14&#45;&gt;Node24 -->
<g id="edge32" class="edge">
<title>Node14&#45;&gt;Node24</title>
<path fill="none" stroke="midnightblue" d="M309.74,-224.44C320.53,-215.68 337.45,-201.47 351,-188 386.48,-152.74 424.2,-107.58 443.66,-83.64"/>
<polygon fill="midnightblue" stroke="midnightblue" points="446.62,-85.55 450.18,-75.57 441.17,-81.15 446.62,-85.55"/>
</g>
<!-- Node16 -->
<g id="node16" class="node">
<title>Node16</title>
<g id="a_node16"><a xlink:href="Cast_8h.html" target="_top" xlink:title=" ">
<polygon fill="white" stroke="black" points="704.5,-56.5 704.5,-75.5 751.5,-75.5 751.5,-56.5 704.5,-56.5"/>
<text text-anchor="middle" x="728" y="-63.5" font-family="Helvetica,sans-Serif" font-size="10.00">Cast.h</text>
</a>
</g>
</g>
<!-- Node15&#45;&gt;Node16 -->
<g id="edge17" class="edge">
<title>Node15&#45;&gt;Node16</title>
<path fill="none" stroke="midnightblue" d="M592.53,-168.37C617.55,-149.65 677.02,-105.15 708.18,-81.83"/>
<polygon fill="midnightblue" stroke="midnightblue" points="710.61,-84.39 716.52,-75.59 706.42,-78.78 710.61,-84.39"/>
</g>
<!-- Node17 -->
<g id="node17" class="node">
<title>Node17</title>
<g id="a_node17"><a xlink:href="Type__info_8h.html" target="_top" xlink:title=" ">
<polygon fill="white" stroke="black" points="445,-112.5 445,-131.5 517,-131.5 517,-112.5 445,-112.5"/>
<text text-anchor="middle" x="481" y="-119.5" font-family="Helvetica,sans-Serif" font-size="10.00">Type_info.h</text>
</a>
</g>
</g>
<!-- Node15&#45;&gt;Node17 -->
<g id="edge18" class="edge">
<title>Node15&#45;&gt;Node17</title>
<path fill="none" stroke="midnightblue" d="M564.93,-168.32C549.04,-159.74 524.49,-146.49 506.04,-136.52"/>
<polygon fill="midnightblue" stroke="midnightblue" points="507.49,-133.33 497.03,-131.65 504.16,-139.49 507.49,-133.33"/>
</g>
<!-- Node18 -->
<g id="node18" class="node">
<title>Node18</title>
<g id="a_node18"><a xlink:href="Declare__Base_8h.html" target="_top" xlink:title=" ">
<polygon fill="white" stroke="black" points="535,-112.5 535,-131.5 627,-131.5 627,-112.5 535,-112.5"/>
<text text-anchor="middle" x="581" y="-119.5" font-family="Helvetica,sans-Serif" font-size="10.00">Declare_Base.h</text>
</a>
</g>
</g>
<!-- Node15&#45;&gt;Node18 -->
<g id="edge19" class="edge">
<title>Node15&#45;&gt;Node18</title>
<path fill="none" stroke="midnightblue" d="M581,-168.08C581,-161.01 581,-150.86 581,-141.99"/>
<polygon fill="midnightblue" stroke="midnightblue" points="584.5,-141.75 581,-131.75 577.5,-141.75 584.5,-141.75"/>
</g>
<!-- Node19 -->
<g id="node19" class="node">
<title>Node19</title>
<g id="a_node19"><a xlink:href="Declare__Inst_8h.html" target="_top" xlink:title=" ">
<polygon fill="white" stroke="black" points="721,-112.5 721,-131.5 807,-131.5 807,-112.5 721,-112.5"/>
<text text-anchor="middle" x="764" y="-119.5" font-family="Helvetica,sans-Serif" font-size="10.00">Declare_Inst.h</text>
</a>
</g>
</g>
<!-- Node15&#45;&gt;Node19 -->
<g id="edge20" class="edge">
<title>Node15&#45;&gt;Node19</title>
<path fill="none" stroke="midnightblue" d="M610,-168.44C641.18,-159.24 690.93,-144.56 725.41,-134.39"/>
<polygon fill="midnightblue" stroke="midnightblue" points="726.54,-137.7 735.14,-131.52 724.56,-130.99 726.54,-137.7"/>
</g>
<!-- Node19&#45;&gt;Node16 -->
<g id="edge21" class="edge">
<title>Node19&#45;&gt;Node16</title>
<path fill="none" stroke="midnightblue" d="M758.06,-112.08C753.02,-104.53 745.66,-93.49 739.49,-84.23"/>
<polygon fill="midnightblue" stroke="midnightblue" points="742.29,-82.13 733.83,-75.75 736.47,-86.01 742.29,-82.13"/>
</g>
<!-- Node20&#45;&gt;Node9 -->
<g id="edge30" class="edge">
<title>Node20&#45;&gt;Node9</title>
<path fill="none" stroke="midnightblue" d="M275.71,-168.44C251.19,-159.44 212.4,-145.19 184.8,-135.05"/>
<polygon fill="midnightblue" stroke="midnightblue" points="185.78,-131.68 175.18,-131.52 183.36,-138.25 185.78,-131.68"/>
</g>
<!-- Node21 -->
<g id="node21" class="node">
<title>Node21</title>
<g id="a_node21"><a xlink:href="Entree_8h.html" target="_top" xlink:title=" ">
<polygon fill="white" stroke="black" points="293.5,-112.5 293.5,-131.5 350.5,-131.5 350.5,-112.5 293.5,-112.5"/>
<text text-anchor="middle" x="322" y="-119.5" font-family="Helvetica,sans-Serif" font-size="10.00">Entree.h</text>
</a>
</g>
</g>
<!-- Node20&#45;&gt;Node21 -->
<g id="edge23" class="edge">
<title>Node20&#45;&gt;Node21</title>
<path fill="none" stroke="midnightblue" d="M302.8,-168.08C305.91,-160.77 310.42,-150.18 314.29,-141.1"/>
<polygon fill="midnightblue" stroke="midnightblue" points="317.57,-142.32 318.27,-131.75 311.13,-139.58 317.57,-142.32"/>
</g>
<!-- Node25 -->
<g id="node25" class="node">
<title>Node25</title>
<g id="a_node25"><a xlink:href="Separateur_8h.html" target="_top" xlink:title=" ">
<polygon fill="white" stroke="black" points="197,-112.5 197,-131.5 275,-131.5 275,-112.5 197,-112.5"/>
<text text-anchor="middle" x="236" y="-119.5" font-family="Helvetica,sans-Serif" font-size="10.00">Separateur.h</text>
</a>
</g>
</g>
<!-- Node20&#45;&gt;Node25 -->
<g id="edge31" class="edge">
<title>Node20&#45;&gt;Node25</title>
<path fill="none" stroke="midnightblue" d="M288.88,-168.32C279.47,-160.26 265.26,-148.08 253.93,-138.37"/>
<polygon fill="midnightblue" stroke="midnightblue" points="256.18,-135.68 246.31,-131.83 251.62,-141 256.18,-135.68"/>
</g>
<!-- Node21&#45;&gt;Node4 -->
<g id="edge27" class="edge">
<title>Node21&#45;&gt;Node4</title>
<path fill="none" stroke="midnightblue" d="M293.17,-114.05C253.05,-104.38 180.31,-86.84 135.85,-76.13"/>
<polygon fill="midnightblue" stroke="midnightblue" points="136.55,-72.69 126.01,-73.75 134.91,-79.5 136.55,-72.69"/>
</g>
<!-- Node21&#45;&gt;Node10 -->
<g id="edge26" class="edge">
<title>Node21&#45;&gt;Node10</title>
<path fill="none" stroke="midnightblue" d="M298.87,-112.44C274.52,-103.44 235.99,-89.19 208.58,-79.05"/>
<polygon fill="midnightblue" stroke="midnightblue" points="209.62,-75.7 199.03,-75.52 207.19,-82.27 209.62,-75.7"/>
</g>
<!-- Node21&#45;&gt;Node11 -->
<g id="edge29" class="edge">
<title>Node21&#45;&gt;Node11</title>
<path fill="none" stroke="midnightblue" d="M310.59,-112.32C299.89,-104.18 283.66,-91.84 270.84,-82.09"/>
<polygon fill="midnightblue" stroke="midnightblue" points="272.69,-79.1 262.61,-75.83 268.46,-84.67 272.69,-79.1"/>
</g>
<!-- Node22 -->
<g id="node22" class="node">
<title>Node22</title>
<g id="a_node22"><a xlink:title=" ">
<polygon fill="white" stroke="#bfbfbf" points="357,-56.5 357,-75.5 407,-75.5 407,-56.5 357,-56.5"/>
<text text-anchor="middle" x="382" y="-63.5" font-family="Helvetica,sans-Serif" font-size="10.00">stdio.h</text>
</a>
</g>
</g>
<!-- Node21&#45;&gt;Node22 -->
<g id="edge24" class="edge">
<title>Node21&#45;&gt;Node22</title>
<path fill="none" stroke="midnightblue" d="M331.64,-112.32C340.51,-104.34 353.87,-92.31 364.61,-82.65"/>
<polygon fill="midnightblue" stroke="midnightblue" points="367.09,-85.13 372.18,-75.83 362.41,-79.92 367.09,-85.13"/>
</g>
<!-- Node23 -->
<g id="node23" class="node">
<title>Node23</title>
<g id="a_node23"><a xlink:title=" ">
<polygon fill="white" stroke="#bfbfbf" points="293,-56.5 293,-75.5 339,-75.5 339,-56.5 293,-56.5"/>
<text text-anchor="middle" x="316" y="-63.5" font-family="Helvetica,sans-Serif" font-size="10.00">cstdio</text>
</a>
</g>
</g>
<!-- Node21&#45;&gt;Node23 -->
<g id="edge25" class="edge">
<title>Node21&#45;&gt;Node23</title>
<path fill="none" stroke="midnightblue" d="M321.01,-112.08C320.21,-104.93 319.07,-94.64 318.08,-85.69"/>
<polygon fill="midnightblue" stroke="midnightblue" points="321.56,-85.3 316.97,-75.75 314.6,-86.08 321.56,-85.3"/>
</g>
<!-- Node21&#45;&gt;Node24 -->
<g id="edge28" class="edge">
<title>Node21&#45;&gt;Node24</title>
<path fill="none" stroke="midnightblue" d="M343.39,-112.44C365.71,-103.52 400.9,-89.44 426.21,-79.32"/>
<polygon fill="midnightblue" stroke="midnightblue" points="427.72,-82.48 435.71,-75.52 425.12,-75.98 427.72,-82.48"/>
</g>
<!-- Node26&#45;&gt;Node13 -->
<g id="edge37" class="edge">
<title>Node26&#45;&gt;Node13</title>
<path fill="none" stroke="midnightblue" d="M52.82,-280.36C44.61,-271.96 33.1,-258.4 28,-244 8.62,-189.3 14.56,-119.04 19.01,-85.9"/>
<polygon fill="midnightblue" stroke="midnightblue" points="22.5,-86.22 20.48,-75.82 15.58,-85.21 22.5,-86.22"/>
</g>
<!-- Node26&#45;&gt;Node14 -->
<g id="edge35" class="edge">
<title>Node26&#45;&gt;Node14</title>
<path fill="none" stroke="midnightblue" d="M86.92,-283.32C127.16,-274.15 206.96,-255.97 256.38,-244.71"/>
<polygon fill="midnightblue" stroke="midnightblue" points="257.16,-248.12 266.13,-242.49 255.61,-241.3 257.16,-248.12"/>
</g>
<!-- Node27 -->
<g id="node27" class="node">
<title>Node27</title>
<g id="a_node27"><a xlink:title=" ">
<polygon fill="white" stroke="#bfbfbf" points="37,-224.5 37,-243.5 87,-243.5 87,-224.5 37,-224.5"/>
<text text-anchor="middle" x="62" y="-231.5" font-family="Helvetica,sans-Serif" font-size="10.00">cstring</text>
</a>
</g>
</g>
<!-- Node26&#45;&gt;Node27 -->
<g id="edge36" class="edge">
<title>Node26&#45;&gt;Node27</title>
<path fill="none" stroke="midnightblue" d="M62,-280.08C62,-273.01 62,-262.86 62,-253.99"/>
<polygon fill="midnightblue" stroke="midnightblue" points="65.5,-253.75 62,-243.75 58.5,-253.75 65.5,-253.75"/>
</g>
<!-- Node28&#45;&gt;Node14 -->
<g id="edge41" class="edge">
<title>Node28&#45;&gt;Node14</title>
<path fill="none" stroke="midnightblue" d="M433.65,-280.44C406.73,-271.36 364,-256.94 333.91,-246.78"/>
<polygon fill="midnightblue" stroke="midnightblue" points="334.83,-243.4 324.23,-243.52 332.59,-250.03 334.83,-243.4"/>
</g>
<!-- Node29 -->
<g id="node29" class="node">
<title>Node29</title>
<g id="a_node29"><a xlink:href="blas1_8h.html" target="_top" xlink:title=" ">
<polygon fill="white" stroke="black" points="407,-168.5 407,-187.5 459,-187.5 459,-168.5 407,-168.5"/>
<text text-anchor="middle" x="433" y="-175.5" font-family="Helvetica,sans-Serif" font-size="10.00">blas1.h</text>
</a>
</g>
</g>
<!-- Node28&#45;&gt;Node29 -->
<g id="edge39" class="edge">
<title>Node28&#45;&gt;Node29</title>
<path fill="none" stroke="midnightblue" d="M456.96,-280.37C452.76,-262.62 443.08,-221.67 437.4,-197.6"/>
<polygon fill="midnightblue" stroke="midnightblue" points="440.74,-196.52 435.03,-187.59 433.92,-198.13 440.74,-196.52"/>
</g>
<!-- Node30 -->
<g id="node30" class="node">
<title>Node30</title>
<g id="a_node30"><a xlink:title=" ">
<polygon fill="white" stroke="#bfbfbf" points="461.5,-224.5 461.5,-243.5 508.5,-243.5 508.5,-224.5 461.5,-224.5"/>
<text text-anchor="middle" x="485" y="-231.5" font-family="Helvetica,sans-Serif" font-size="10.00">cmath</text>
</a>
</g>
</g>
<!-- Node28&#45;&gt;Node30 -->
<g id="edge42" class="edge">
<title>Node28&#45;&gt;Node30</title>
<path fill="none" stroke="midnightblue" d="M463.29,-280.08C466.85,-272.69 472.02,-261.95 476.42,-252.81"/>
<polygon fill="midnightblue" stroke="midnightblue" points="479.6,-254.28 480.79,-243.75 473.29,-251.24 479.6,-254.28"/>
</g>
<!-- Node29&#45;&gt;Node11 -->
<g id="edge40" class="edge">
<title>Node29&#45;&gt;Node11</title>
<path fill="none" stroke="midnightblue" d="M425.2,-168.4C412.6,-154.9 386.46,-128.57 360,-112 336.23,-97.11 306.68,-85.27 284.34,-77.48"/>
<polygon fill="midnightblue" stroke="midnightblue" points="285.23,-74.08 274.64,-74.19 282.98,-80.71 285.23,-74.08"/>
</g>
<!-- Node31&#45;&gt;Node9 -->
<g id="edge44" class="edge">
<title>Node31&#45;&gt;Node9</title>
<path fill="none" stroke="midnightblue" d="M192.35,-336.3C186.17,-303.63 164.27,-187.87 155.59,-141.96"/>
<polygon fill="midnightblue" stroke="midnightblue" points="158.98,-141.06 153.68,-131.88 152.1,-142.36 158.98,-141.06"/>
</g>
</g>
</svg>
