<?xml version="1.0" encoding="UTF-8" standalone="no"?>
<!DOCTYPE svg PUBLIC "-//W3C//DTD SVG 1.1//EN"
 "http://www.w3.org/Graphics/SVG/1.1/DTD/svg11.dtd">
<!-- Generated by graphviz version 2.43.0 (0)
 -->
<!-- Title: src/Kernel/Math/StdFunction.h Pages: 1 -->
<svg width="529pt" height="95pt"
 viewBox="0.00 0.00 529.00 95.00" xmlns="http://www.w3.org/2000/svg" xmlns:xlink="http://www.w3.org/1999/xlink">
<g id="graph0" class="graph" transform="scale(1 1) rotate(0) translate(4 91)">
<title>src/Kernel/Math/StdFunction.h</title>
<polygon fill="white" stroke="transparent" points="-4,4 -4,-91 525,-91 525,4 -4,4"/>
<!-- Node1 -->
<g id="node1" class="node">
<title>Node1</title>
<g id="a_node1"><a xlink:title=" ">
<polygon fill="#bfbfbf" stroke="black" points="177,-67.5 177,-86.5 338,-86.5 338,-67.5 177,-67.5"/>
<text text-anchor="middle" x="257.5" y="-74.5" font-family="Helvetica,sans-Serif" font-size="10.00">src/Kernel/Math/StdFunction.h</text>
</a>
</g>
</g>
<!-- Node2 -->
<g id="node2" class="node">
<title>Node2</title>
<g id="a_node2"><a xlink:href="Ensemble__Lagrange__base_8cpp.html" target="_top" xlink:title=" ">
<polygon fill="white" stroke="black" points="0,-0.5 0,-30.5 167,-30.5 167,-0.5 0,-0.5"/>
<text text-anchor="start" x="8" y="-18.5" font-family="Helvetica,sans-Serif" font-size="10.00">src/Kernel/Geometrie</text>
<text text-anchor="middle" x="83.5" y="-7.5" font-family="Helvetica,sans-Serif" font-size="10.00">/Ensemble_Lagrange_base.cpp</text>
</a>
</g>
</g>
<!-- Node1&#45;&gt;Node2 -->
<g id="edge1" class="edge">
<title>Node1&#45;&gt;Node2</title>
<path fill="none" stroke="midnightblue" d="M223.08,-64.23C194.75,-54.54 154.51,-40.78 124.51,-30.52"/>
<polygon fill="midnightblue" stroke="midnightblue" points="221.98,-67.55 232.57,-67.48 224.24,-60.93 221.98,-67.55"/>
</g>
<!-- Node3 -->
<g id="node3" class="node">
<title>Node3</title>
<g id="a_node3"><a xlink:href="Parser_8cpp.html" target="_top" xlink:title=" ">
<polygon fill="white" stroke="black" points="185,-6 185,-25 330,-25 330,-6 185,-6"/>
<text text-anchor="middle" x="257.5" y="-13" font-family="Helvetica,sans-Serif" font-size="10.00">src/Kernel/Math/Parser.cpp</text>
</a>
</g>
</g>
<!-- Node1&#45;&gt;Node3 -->
<g id="edge2" class="edge">
<title>Node1&#45;&gt;Node3</title>
<path fill="none" stroke="midnightblue" d="M257.5,-57.32C257.5,-46.5 257.5,-33.4 257.5,-25.01"/>
<polygon fill="midnightblue" stroke="midnightblue" points="254,-57.48 257.5,-67.48 261,-57.48 254,-57.48"/>
</g>
<!-- Node4 -->
<g id="node4" class="node">
<title>Node4</title>
<g id="a_node4"><a xlink:href="StdFunction_8cpp.html" target="_top" xlink:title=" ">
<polygon fill="white" stroke="black" points="348,-6 348,-25 521,-25 521,-6 348,-6"/>
<text text-anchor="middle" x="434.5" y="-13" font-family="Helvetica,sans-Serif" font-size="10.00">src/Kernel/Math/StdFunction.cpp</text>
</a>
</g>
</g>
<!-- Node1&#45;&gt;Node4 -->
<g id="edge3" class="edge">
<title>Node1&#45;&gt;Node4</title>
<path fill="none" stroke="midnightblue" d="M292.51,-64.23C326.91,-52.67 378.58,-35.3 409.19,-25.01"/>
<polygon fill="midnightblue" stroke="midnightblue" points="291.22,-60.97 282.86,-67.48 293.45,-67.61 291.22,-60.97"/>
</g>
</g>
</svg>
