<?xml version="1.0" encoding="UTF-8" standalone="no"?>
<!DOCTYPE svg PUBLIC "-//W3C//DTD SVG 1.1//EN"
 "http://www.w3.org/Graphics/SVG/1.1/DTD/svg11.dtd">
<!-- Generated by graphviz version 2.43.0 (0)
 -->
<!-- Title: src/Kernel/Math/StringTokenizer.cpp Pages: 1 -->
<svg width="695pt" height="308pt"
 viewBox="0.00 0.00 694.50 308.00" xmlns="http://www.w3.org/2000/svg" xmlns:xlink="http://www.w3.org/1999/xlink">
<g id="graph0" class="graph" transform="scale(1 1) rotate(0) translate(4 304)">
<title>src/Kernel/Math/StringTokenizer.cpp</title>
<polygon fill="white" stroke="transparent" points="-4,4 -4,-304 690.5,-304 690.5,4 -4,4"/>
<!-- Node1 -->
<g id="node1" class="node">
<title>Node1</title>
<g id="a_node1"><a xlink:title=" ">
<polygon fill="#bfbfbf" stroke="black" points="346.5,-280.5 346.5,-299.5 535.5,-299.5 535.5,-280.5 346.5,-280.5"/>
<text text-anchor="middle" x="441" y="-287.5" font-family="Helvetica,sans-Serif" font-size="10.00">src/Kernel/Math/StringTokenizer.cpp</text>
</a>
</g>
</g>
<!-- Node2 -->
<g id="node2" class="node">
<title>Node2</title>
<g id="a_node2"><a xlink:href="StringTokenizer_8h.html" target="_top" xlink:title=" ">
<polygon fill="white" stroke="black" points="12.5,-168.5 12.5,-187.5 111.5,-187.5 111.5,-168.5 12.5,-168.5"/>
<text text-anchor="middle" x="62" y="-175.5" font-family="Helvetica,sans-Serif" font-size="10.00">StringTokenizer.h</text>
</a>
</g>
</g>
<!-- Node1&#45;&gt;Node2 -->
<g id="edge1" class="edge">
<title>Node1&#45;&gt;Node2</title>
<path fill="none" stroke="midnightblue" d="M409.08,-280.42C376.18,-271.52 323.41,-257.1 278,-244 215.12,-225.86 142.3,-203.71 99.3,-190.51"/>
<polygon fill="midnightblue" stroke="midnightblue" points="100.15,-187.11 89.56,-187.51 98.09,-193.8 100.15,-187.11"/>
</g>
<!-- Node4 -->
<g id="node4" class="node">
<title>Node4</title>
<g id="a_node4"><a xlink:href="Char__ptr_8h.html" target="_top" xlink:title=" ">
<polygon fill="white" stroke="black" points="370,-224.5 370,-243.5 436,-243.5 436,-224.5 370,-224.5"/>
<text text-anchor="middle" x="403" y="-231.5" font-family="Helvetica,sans-Serif" font-size="10.00">Char_ptr.h</text>
</a>
</g>
</g>
<!-- Node1&#45;&gt;Node4 -->
<g id="edge3" class="edge">
<title>Node1&#45;&gt;Node4</title>
<path fill="none" stroke="midnightblue" d="M434.73,-280.08C429.36,-272.46 421.48,-261.26 414.92,-251.94"/>
<polygon fill="midnightblue" stroke="midnightblue" points="417.78,-249.91 409.16,-243.75 412.05,-253.94 417.78,-249.91"/>
</g>
<!-- Node5 -->
<g id="node5" class="node">
<title>Node5</title>
<g id="a_node5"><a xlink:href="Objet__U_8h.html" target="_top" xlink:title=" ">
<polygon fill="white" stroke="black" points="286.5,-224.5 286.5,-243.5 351.5,-243.5 351.5,-224.5 286.5,-224.5"/>
<text text-anchor="middle" x="319" y="-231.5" font-family="Helvetica,sans-Serif" font-size="10.00">Objet_U.h</text>
</a>
</g>
</g>
<!-- Node1&#45;&gt;Node5 -->
<g id="edge4" class="edge">
<title>Node1&#45;&gt;Node5</title>
<path fill="none" stroke="midnightblue" d="M421.67,-280.44C401.68,-271.6 370.26,-257.69 347.44,-247.59"/>
<polygon fill="midnightblue" stroke="midnightblue" points="348.8,-244.36 338.24,-243.52 345.97,-250.76 348.8,-244.36"/>
</g>
<!-- Node22 -->
<g id="node22" class="node">
<title>Node22</title>
<g id="a_node22"><a xlink:title=" ">
<polygon fill="white" stroke="#bfbfbf" points="454.5,-224.5 454.5,-243.5 505.5,-243.5 505.5,-224.5 454.5,-224.5"/>
<text text-anchor="middle" x="480" y="-231.5" font-family="Helvetica,sans-Serif" font-size="10.00">math.h</text>
</a>
</g>
</g>
<!-- Node1&#45;&gt;Node22 -->
<g id="edge28" class="edge">
<title>Node1&#45;&gt;Node22</title>
<path fill="none" stroke="midnightblue" d="M447.44,-280.08C452.95,-272.46 461.03,-261.26 467.76,-251.94"/>
<polygon fill="midnightblue" stroke="midnightblue" points="470.66,-253.91 473.68,-243.75 464.99,-249.81 470.66,-253.91"/>
</g>
<!-- Node23 -->
<g id="node23" class="node">
<title>Node23</title>
<g id="a_node23"><a xlink:title=" ">
<polygon fill="white" stroke="#bfbfbf" points="523.5,-224.5 523.5,-243.5 576.5,-243.5 576.5,-224.5 523.5,-224.5"/>
<text text-anchor="middle" x="550" y="-231.5" font-family="Helvetica,sans-Serif" font-size="10.00">string.h</text>
</a>
</g>
</g>
<!-- Node1&#45;&gt;Node23 -->
<g id="edge29" class="edge">
<title>Node1&#45;&gt;Node23</title>
<path fill="none" stroke="midnightblue" d="M458.51,-280.32C476.07,-271.62 503.33,-258.12 523.53,-248.11"/>
<polygon fill="midnightblue" stroke="midnightblue" points="525.12,-251.23 532.53,-243.65 522.02,-244.96 525.12,-251.23"/>
</g>
<!-- Node24 -->
<g id="node24" class="node">
<title>Node24</title>
<g id="a_node24"><a xlink:title=" ">
<polygon fill="white" stroke="#bfbfbf" points="595,-224.5 595,-243.5 651,-243.5 651,-224.5 595,-224.5"/>
<text text-anchor="middle" x="623" y="-231.5" font-family="Helvetica,sans-Serif" font-size="10.00">sstream</text>
</a>
</g>
</g>
<!-- Node1&#45;&gt;Node24 -->
<g id="edge30" class="edge">
<title>Node1&#45;&gt;Node24</title>
<path fill="none" stroke="midnightblue" d="M469.84,-280.44C501.04,-271.19 550.91,-256.39 585.22,-246.21"/>
<polygon fill="midnightblue" stroke="midnightblue" points="586.3,-249.54 594.89,-243.34 584.31,-242.83 586.3,-249.54"/>
</g>
<!-- Node3 -->
<g id="node3" class="node">
<title>Node3</title>
<g id="a_node3"><a xlink:title=" ">
<polygon fill="white" stroke="#bfbfbf" points="0,-56.5 0,-75.5 44,-75.5 44,-56.5 0,-56.5"/>
<text text-anchor="middle" x="22" y="-63.5" font-family="Helvetica,sans-Serif" font-size="10.00">string</text>
</a>
</g>
</g>
<!-- Node2&#45;&gt;Node3 -->
<g id="edge2" class="edge">
<title>Node2&#45;&gt;Node3</title>
<path fill="none" stroke="midnightblue" d="M58.86,-168.37C52.38,-150.54 37.38,-109.3 28.64,-85.27"/>
<polygon fill="midnightblue" stroke="midnightblue" points="31.83,-83.79 25.12,-75.59 25.25,-86.19 31.83,-83.79"/>
</g>
<!-- Node6 -->
<g id="node6" class="node">
<title>Node6</title>
<g id="a_node6"><a xlink:title=" ">
<polygon fill="white" stroke="#bfbfbf" points="206,-56.5 206,-75.5 262,-75.5 262,-56.5 206,-56.5"/>
<text text-anchor="middle" x="234" y="-63.5" font-family="Helvetica,sans-Serif" font-size="10.00">assert.h</text>
</a>
</g>
</g>
<!-- Node5&#45;&gt;Node6 -->
<g id="edge5" class="edge">
<title>Node5&#45;&gt;Node6</title>
<path fill="none" stroke="midnightblue" d="M319.86,-224.28C321.5,-203.19 323.08,-148.48 300,-112 291.33,-98.29 276.79,-87.71 263.57,-80.27"/>
<polygon fill="midnightblue" stroke="midnightblue" points="265.19,-77.16 254.71,-75.61 261.94,-83.36 265.19,-77.16"/>
</g>
<!-- Node7 -->
<g id="node7" class="node">
<title>Node7</title>
<g id="a_node7"><a xlink:href="DecBaseInst_8h.html" target="_top" xlink:title=" ">
<polygon fill="white" stroke="black" points="478,-168.5 478,-187.5 564,-187.5 564,-168.5 478,-168.5"/>
<text text-anchor="middle" x="521" y="-175.5" font-family="Helvetica,sans-Serif" font-size="10.00">DecBaseInst.h</text>
</a>
</g>
</g>
<!-- Node5&#45;&gt;Node7 -->
<g id="edge6" class="edge">
<title>Node5&#45;&gt;Node7</title>
<path fill="none" stroke="midnightblue" d="M351.01,-224.44C385.73,-215.16 441.29,-200.31 479.38,-190.13"/>
<polygon fill="midnightblue" stroke="midnightblue" points="480.39,-193.48 489.14,-187.52 478.58,-186.72 480.39,-193.48"/>
</g>
<!-- Node12 -->
<g id="node12" class="node">
<title>Node12</title>
<g id="a_node12"><a xlink:href="EntreeSortie_8h.html" target="_top" xlink:title=" ">
<polygon fill="white" stroke="black" points="180,-168.5 180,-187.5 266,-187.5 266,-168.5 180,-168.5"/>
<text text-anchor="middle" x="223" y="-175.5" font-family="Helvetica,sans-Serif" font-size="10.00">EntreeSortie.h</text>
</a>
</g>
</g>
<!-- Node5&#45;&gt;Node12 -->
<g id="edge12" class="edge">
<title>Node5&#45;&gt;Node12</title>
<path fill="none" stroke="midnightblue" d="M303.58,-224.32C288.46,-215.82 265.18,-202.73 247.53,-192.8"/>
<polygon fill="midnightblue" stroke="midnightblue" points="248.82,-189.51 238.39,-187.65 245.39,-195.61 248.82,-189.51"/>
</g>
<!-- Node17 -->
<g id="node17" class="node">
<title>Node17</title>
<g id="a_node17"><a xlink:href="Process_8h.html" target="_top" xlink:title=" ">
<polygon fill="white" stroke="black" points="412.5,-56.5 412.5,-75.5 475.5,-75.5 475.5,-56.5 412.5,-56.5"/>
<text text-anchor="middle" x="444" y="-63.5" font-family="Helvetica,sans-Serif" font-size="10.00">Process.h</text>
</a>
</g>
</g>
<!-- Node5&#45;&gt;Node17 -->
<g id="edge27" class="edge">
<title>Node5&#45;&gt;Node17</title>
<path fill="none" stroke="midnightblue" d="M321.26,-224.49C327.21,-203.39 345.01,-147.82 376,-112 387.21,-99.04 403.03,-88.27 416.58,-80.52"/>
<polygon fill="midnightblue" stroke="midnightblue" points="418.42,-83.51 425.52,-75.65 415.07,-77.36 418.42,-83.51"/>
</g>
<!-- Node8 -->
<g id="node8" class="node">
<title>Node8</title>
<g id="a_node8"><a xlink:href="Cast_8h.html" target="_top" xlink:title=" ">
<polygon fill="white" stroke="black" points="639.5,-56.5 639.5,-75.5 686.5,-75.5 686.5,-56.5 639.5,-56.5"/>
<text text-anchor="middle" x="663" y="-63.5" font-family="Helvetica,sans-Serif" font-size="10.00">Cast.h</text>
</a>
</g>
</g>
<!-- Node7&#45;&gt;Node8 -->
<g id="edge7" class="edge">
<title>Node7&#45;&gt;Node8</title>
<path fill="none" stroke="midnightblue" d="M564.29,-170.68C606.4,-163.55 666.03,-150.48 680,-132 690.4,-118.24 683.12,-98.69 675.1,-84.63"/>
<polygon fill="midnightblue" stroke="midnightblue" points="677.92,-82.53 669.65,-75.91 671.99,-86.24 677.92,-82.53"/>
</g>
<!-- Node9 -->
<g id="node9" class="node">
<title>Node9</title>
<g id="a_node9"><a xlink:href="Type__info_8h.html" target="_top" xlink:title=" ">
<polygon fill="white" stroke="black" points="385,-112.5 385,-131.5 457,-131.5 457,-112.5 385,-112.5"/>
<text text-anchor="middle" x="421" y="-119.5" font-family="Helvetica,sans-Serif" font-size="10.00">Type_info.h</text>
</a>
</g>
</g>
<!-- Node7&#45;&gt;Node9 -->
<g id="edge8" class="edge">
<title>Node7&#45;&gt;Node9</title>
<path fill="none" stroke="midnightblue" d="M504.93,-168.32C489.04,-159.74 464.49,-146.49 446.04,-136.52"/>
<polygon fill="midnightblue" stroke="midnightblue" points="447.49,-133.33 437.03,-131.65 444.16,-139.49 447.49,-133.33"/>
</g>
<!-- Node10 -->
<g id="node10" class="node">
<title>Node10</title>
<g id="a_node10"><a xlink:href="Declare__Base_8h.html" target="_top" xlink:title=" ">
<polygon fill="white" stroke="black" points="475,-112.5 475,-131.5 567,-131.5 567,-112.5 475,-112.5"/>
<text text-anchor="middle" x="521" y="-119.5" font-family="Helvetica,sans-Serif" font-size="10.00">Declare_Base.h</text>
</a>
</g>
</g>
<!-- Node7&#45;&gt;Node10 -->
<g id="edge9" class="edge">
<title>Node7&#45;&gt;Node10</title>
<path fill="none" stroke="midnightblue" d="M521,-168.08C521,-161.01 521,-150.86 521,-141.99"/>
<polygon fill="midnightblue" stroke="midnightblue" points="524.5,-141.75 521,-131.75 517.5,-141.75 524.5,-141.75"/>
</g>
<!-- Node11 -->
<g id="node11" class="node">
<title>Node11</title>
<g id="a_node11"><a xlink:href="Declare__Inst_8h.html" target="_top" xlink:title=" ">
<polygon fill="white" stroke="black" points="585,-112.5 585,-131.5 671,-131.5 671,-112.5 585,-112.5"/>
<text text-anchor="middle" x="628" y="-119.5" font-family="Helvetica,sans-Serif" font-size="10.00">Declare_Inst.h</text>
</a>
</g>
</g>
<!-- Node7&#45;&gt;Node11 -->
<g id="edge10" class="edge">
<title>Node7&#45;&gt;Node11</title>
<path fill="none" stroke="midnightblue" d="M538.19,-168.32C555.35,-159.66 581.95,-146.24 601.75,-136.25"/>
<polygon fill="midnightblue" stroke="midnightblue" points="603.5,-139.28 610.85,-131.65 600.35,-133.04 603.5,-139.28"/>
</g>
<!-- Node11&#45;&gt;Node8 -->
<g id="edge11" class="edge">
<title>Node11&#45;&gt;Node8</title>
<path fill="none" stroke="midnightblue" d="M633.78,-112.08C638.67,-104.53 645.83,-93.49 651.83,-84.23"/>
<polygon fill="midnightblue" stroke="midnightblue" points="654.83,-86.05 657.33,-75.75 648.95,-82.24 654.83,-86.05"/>
</g>
<!-- Node13 -->
<g id="node13" class="node">
<title>Node13</title>
<g id="a_node13"><a xlink:href="Entree_8h.html" target="_top" xlink:title=" ">
<polygon fill="white" stroke="black" points="233.5,-112.5 233.5,-131.5 290.5,-131.5 290.5,-112.5 233.5,-112.5"/>
<text text-anchor="middle" x="262" y="-119.5" font-family="Helvetica,sans-Serif" font-size="10.00">Entree.h</text>
</a>
</g>
</g>
<!-- Node12&#45;&gt;Node13 -->
<g id="edge13" class="edge">
<title>Node12&#45;&gt;Node13</title>
<path fill="none" stroke="midnightblue" d="M229.44,-168.08C234.95,-160.46 243.03,-149.26 249.76,-139.94"/>
<polygon fill="midnightblue" stroke="midnightblue" points="252.66,-141.91 255.68,-131.75 246.99,-137.81 252.66,-141.91"/>
</g>
<!-- Node20 -->
<g id="node20" class="node">
<title>Node20</title>
<g id="a_node20"><a xlink:href="Sortie_8h.html" target="_top" xlink:title=" ">
<polygon fill="white" stroke="black" points="65,-112.5 65,-131.5 119,-131.5 119,-112.5 65,-112.5"/>
<text text-anchor="middle" x="92" y="-119.5" font-family="Helvetica,sans-Serif" font-size="10.00">Sortie.h</text>
</a>
</g>
</g>
<!-- Node12&#45;&gt;Node20 -->
<g id="edge21" class="edge">
<title>Node12&#45;&gt;Node20</title>
<path fill="none" stroke="midnightblue" d="M202.24,-168.44C180.68,-159.56 146.74,-145.56 122.21,-135.45"/>
<polygon fill="midnightblue" stroke="midnightblue" points="123.24,-132.09 112.66,-131.52 120.57,-138.56 123.24,-132.09"/>
</g>
<!-- Node21 -->
<g id="node21" class="node">
<title>Node21</title>
<g id="a_node21"><a xlink:href="Separateur_8h.html" target="_top" xlink:title=" ">
<polygon fill="white" stroke="black" points="137,-112.5 137,-131.5 215,-131.5 215,-112.5 137,-112.5"/>
<text text-anchor="middle" x="176" y="-119.5" font-family="Helvetica,sans-Serif" font-size="10.00">Separateur.h</text>
</a>
</g>
</g>
<!-- Node12&#45;&gt;Node21 -->
<g id="edge26" class="edge">
<title>Node12&#45;&gt;Node21</title>
<path fill="none" stroke="midnightblue" d="M215.24,-168.08C208.46,-160.3 198.46,-148.8 190.24,-139.37"/>
<polygon fill="midnightblue" stroke="midnightblue" points="192.82,-137 183.62,-131.75 187.54,-141.59 192.82,-137"/>
</g>
<!-- Node13&#45;&gt;Node6 -->
<g id="edge17" class="edge">
<title>Node13&#45;&gt;Node6</title>
<path fill="none" stroke="midnightblue" d="M257.38,-112.08C253.54,-104.69 247.98,-93.95 243.24,-84.81"/>
<polygon fill="midnightblue" stroke="midnightblue" points="246.25,-83.02 238.54,-75.75 240.03,-86.24 246.25,-83.02"/>
</g>
<!-- Node14 -->
<g id="node14" class="node">
<title>Node14</title>
<g id="a_node14"><a xlink:title=" ">
<polygon fill="white" stroke="#bfbfbf" points="344,-56.5 344,-75.5 394,-75.5 394,-56.5 344,-56.5"/>
<text text-anchor="middle" x="369" y="-63.5" font-family="Helvetica,sans-Serif" font-size="10.00">stdio.h</text>
</a>
</g>
</g>
<!-- Node13&#45;&gt;Node14 -->
<g id="edge14" class="edge">
<title>Node13&#45;&gt;Node14</title>
<path fill="none" stroke="midnightblue" d="M279.19,-112.32C296.35,-103.66 322.95,-90.24 342.75,-80.25"/>
<polygon fill="midnightblue" stroke="midnightblue" points="344.5,-83.28 351.85,-75.65 341.35,-77.04 344.5,-83.28"/>
</g>
<!-- Node15 -->
<g id="node15" class="node">
<title>Node15</title>
<g id="a_node15"><a xlink:title=" ">
<polygon fill="white" stroke="#bfbfbf" points="280,-56.5 280,-75.5 326,-75.5 326,-56.5 280,-56.5"/>
<text text-anchor="middle" x="303" y="-63.5" font-family="Helvetica,sans-Serif" font-size="10.00">cstdio</text>
</a>
</g>
</g>
<!-- Node13&#45;&gt;Node15 -->
<g id="edge15" class="edge">
<title>Node13&#45;&gt;Node15</title>
<path fill="none" stroke="midnightblue" d="M268.77,-112.08C274.56,-104.46 283.06,-93.26 290.14,-83.94"/>
<polygon fill="midnightblue" stroke="midnightblue" points="293.1,-85.83 296.36,-75.75 287.52,-81.6 293.1,-85.83"/>
</g>
<!-- Node16 -->
<g id="node16" class="node">
<title>Node16</title>
<g id="a_node16"><a xlink:title=" ">
<polygon fill="white" stroke="#bfbfbf" points="62,-56.5 62,-75.5 122,-75.5 122,-56.5 62,-56.5"/>
<text text-anchor="middle" x="92" y="-63.5" font-family="Helvetica,sans-Serif" font-size="10.00">iostream</text>
</a>
</g>
</g>
<!-- Node13&#45;&gt;Node16 -->
<g id="edge16" class="edge">
<title>Node13&#45;&gt;Node16</title>
<path fill="none" stroke="midnightblue" d="M235.06,-112.44C206.34,-103.32 160.67,-88.81 128.68,-78.65"/>
<polygon fill="midnightblue" stroke="midnightblue" points="129.4,-75.21 118.81,-75.52 127.28,-81.88 129.4,-75.21"/>
</g>
<!-- Node13&#45;&gt;Node17 -->
<g id="edge18" class="edge">
<title>Node13&#45;&gt;Node17</title>
<path fill="none" stroke="midnightblue" d="M290.84,-112.44C321.86,-103.24 371.33,-88.56 405.62,-78.39"/>
<polygon fill="midnightblue" stroke="midnightblue" points="406.71,-81.72 415.3,-75.52 404.71,-75.01 406.71,-81.72"/>
</g>
<!-- Node18 -->
<g id="node18" class="node">
<title>Node18</title>
<g id="a_node18"><a xlink:href="arch_8h.html" target="_top" xlink:title=" ">
<polygon fill="white" stroke="black" points="140.5,-56.5 140.5,-75.5 187.5,-75.5 187.5,-56.5 140.5,-56.5"/>
<text text-anchor="middle" x="164" y="-63.5" font-family="Helvetica,sans-Serif" font-size="10.00">arch.h</text>
</a>
</g>
</g>
<!-- Node13&#45;&gt;Node18 -->
<g id="edge19" class="edge">
<title>Node13&#45;&gt;Node18</title>
<path fill="none" stroke="midnightblue" d="M246.25,-112.32C230.68,-103.74 206.62,-90.49 188.54,-80.52"/>
<polygon fill="midnightblue" stroke="midnightblue" points="190.15,-77.42 179.71,-75.65 186.78,-83.55 190.15,-77.42"/>
</g>
<!-- Node19 -->
<g id="node19" class="node">
<title>Node19</title>
<g id="a_node19"><a xlink:href="generique_8h.html" target="_top" xlink:title=" ">
<polygon fill="white" stroke="black" points="127,-0.5 127,-19.5 201,-19.5 201,-0.5 127,-0.5"/>
<text text-anchor="middle" x="164" y="-7.5" font-family="Helvetica,sans-Serif" font-size="10.00">generique.h</text>
</a>
</g>
</g>
<!-- Node18&#45;&gt;Node19 -->
<g id="edge20" class="edge">
<title>Node18&#45;&gt;Node19</title>
<path fill="none" stroke="midnightblue" d="M164,-56.08C164,-49.01 164,-38.86 164,-29.99"/>
<polygon fill="midnightblue" stroke="midnightblue" points="167.5,-29.75 164,-19.75 160.5,-29.75 167.5,-29.75"/>
</g>
<!-- Node20&#45;&gt;Node3 -->
<g id="edge25" class="edge">
<title>Node20&#45;&gt;Node3</title>
<path fill="none" stroke="midnightblue" d="M80.75,-112.32C70.2,-104.18 54.2,-91.84 41.56,-82.09"/>
<polygon fill="midnightblue" stroke="midnightblue" points="43.51,-79.17 33.45,-75.83 39.23,-84.71 43.51,-79.17"/>
</g>
<!-- Node20&#45;&gt;Node6 -->
<g id="edge23" class="edge">
<title>Node20&#45;&gt;Node6</title>
<path fill="none" stroke="midnightblue" d="M114.5,-112.44C138.08,-103.48 175.32,-89.31 201.96,-79.18"/>
<polygon fill="midnightblue" stroke="midnightblue" points="203.5,-82.34 211.6,-75.52 201.01,-75.8 203.5,-82.34"/>
</g>
<!-- Node20&#45;&gt;Node16 -->
<g id="edge22" class="edge">
<title>Node20&#45;&gt;Node16</title>
<path fill="none" stroke="midnightblue" d="M92,-112.08C92,-105.01 92,-94.86 92,-85.99"/>
<polygon fill="midnightblue" stroke="midnightblue" points="95.5,-85.75 92,-75.75 88.5,-85.75 95.5,-85.75"/>
</g>
<!-- Node20&#45;&gt;Node18 -->
<g id="edge24" class="edge">
<title>Node20&#45;&gt;Node18</title>
<path fill="none" stroke="midnightblue" d="M103.57,-112.32C114.42,-104.18 130.88,-91.84 143.88,-82.09"/>
<polygon fill="midnightblue" stroke="midnightblue" points="146.32,-84.63 152.22,-75.83 142.12,-79.03 146.32,-84.63"/>
</g>
</g>
</svg>
