<?xml version="1.0" encoding="UTF-8" standalone="no"?>
<!DOCTYPE svg PUBLIC "-//W3C//DTD SVG 1.1//EN"
 "http://www.w3.org/Graphics/SVG/1.1/DTD/svg11.dtd">
<!-- Generated by graphviz version 2.43.0 (0)
 -->
<!-- Title: src/VDF/Operateurs/Iterateurs/T_It_VDF_Face.tpp Pages: 1 -->
<svg width="820pt" height="540pt"
 viewBox="0.00 0.00 819.50 540.00" xmlns="http://www.w3.org/2000/svg" xmlns:xlink="http://www.w3.org/1999/xlink">
<g id="graph0" class="graph" transform="scale(1 1) rotate(0) translate(4 536)">
<title>src/VDF/Operateurs/Iterateurs/T_It_VDF_Face.tpp</title>
<polygon fill="white" stroke="transparent" points="-4,4 -4,-536 815.5,-536 815.5,4 -4,4"/>
<!-- Node1 -->
<g id="node1" class="node">
<title>Node1</title>
<g id="a_node1"><a xlink:title=" ">
<polygon fill="#bfbfbf" stroke="black" points="257,-490.5 257,-531.5 370,-531.5 370,-490.5 257,-490.5"/>
<text text-anchor="start" x="265" y="-519.5" font-family="Helvetica,sans-Serif" font-size="10.00">src/VDF/Operateurs</text>
<text text-anchor="start" x="265" y="-508.5" font-family="Helvetica,sans-Serif" font-size="10.00">/Iterateurs/T_It_VDF</text>
<text text-anchor="middle" x="313.5" y="-497.5" font-family="Helvetica,sans-Serif" font-size="10.00">_Face.tpp</text>
</a>
</g>
</g>
<!-- Node2 -->
<g id="node2" class="node">
<title>Node2</title>
<g id="a_node2"><a xlink:href="T__It__VDF__Face_8h.html" target="_top" xlink:title=" ">
<polygon fill="white" stroke="black" points="257,-412.5 257,-453.5 370,-453.5 370,-412.5 257,-412.5"/>
<text text-anchor="start" x="265" y="-441.5" font-family="Helvetica,sans-Serif" font-size="10.00">src/VDF/Operateurs</text>
<text text-anchor="start" x="265" y="-430.5" font-family="Helvetica,sans-Serif" font-size="10.00">/Iterateurs/T_It_VDF</text>
<text text-anchor="middle" x="313.5" y="-419.5" font-family="Helvetica,sans-Serif" font-size="10.00">_Face.h</text>
</a>
</g>
</g>
<!-- Node1&#45;&gt;Node2 -->
<g id="edge1" class="edge">
<title>Node1&#45;&gt;Node2</title>
<path fill="none" stroke="midnightblue" d="M313.5,-480.3C313.5,-471.3 313.5,-461.65 313.5,-453.51"/>
<polygon fill="midnightblue" stroke="midnightblue" points="310,-480.43 313.5,-490.43 317,-480.43 310,-480.43"/>
</g>
<!-- Node3 -->
<g id="node3" class="node">
<title>Node3</title>
<g id="a_node3"><a xlink:href="ItVDFFa_8h.html" target="_top" xlink:title=" ">
<polygon fill="white" stroke="black" points="255.5,-345.5 255.5,-375.5 371.5,-375.5 371.5,-345.5 255.5,-345.5"/>
<text text-anchor="start" x="263.5" y="-363.5" font-family="Helvetica,sans-Serif" font-size="10.00">src/VDF/Operateurs</text>
<text text-anchor="middle" x="313.5" y="-352.5" font-family="Helvetica,sans-Serif" font-size="10.00">/Iterateurs/ItVDFFa.h</text>
</a>
</g>
</g>
<!-- Node2&#45;&gt;Node3 -->
<g id="edge2" class="edge">
<title>Node2&#45;&gt;Node3</title>
<path fill="none" stroke="midnightblue" d="M313.5,-402.08C313.5,-393.01 313.5,-383.45 313.5,-375.89"/>
<polygon fill="midnightblue" stroke="midnightblue" points="310,-402.36 313.5,-412.36 317,-402.36 310,-402.36"/>
</g>
<!-- Node4 -->
<g id="node4" class="node">
<title>Node4</title>
<g id="a_node4"><a xlink:href="Op__Conv__VDF__Face__leaves_8h.html" target="_top" xlink:title=" ">
<polygon fill="white" stroke="black" points="47,-262 47,-303 182,-303 182,-262 47,-262"/>
<text text-anchor="start" x="55" y="-291" font-family="Helvetica,sans-Serif" font-size="10.00">src/VDF/Operateurs</text>
<text text-anchor="start" x="55" y="-280" font-family="Helvetica,sans-Serif" font-size="10.00">/Op_Conv/Op_Conv_VDF</text>
<text text-anchor="middle" x="114.5" y="-269" font-family="Helvetica,sans-Serif" font-size="10.00">_Face_leaves.h</text>
</a>
</g>
</g>
<!-- Node3&#45;&gt;Node4 -->
<g id="edge3" class="edge">
<title>Node3&#45;&gt;Node4</title>
<path fill="none" stroke="midnightblue" d="M267.04,-341.76C236.73,-330.18 197.15,-315.06 165.89,-303.13"/>
<polygon fill="midnightblue" stroke="midnightblue" points="265.95,-345.08 276.54,-345.38 268.44,-338.55 265.95,-345.08"/>
</g>
<!-- Node6 -->
<g id="node6" class="node">
<title>Node6</title>
<g id="a_node6"><a xlink:href="Op__Diff__VDF__Face__base_8h.html" target="_top" xlink:title=" ">
<polygon fill="white" stroke="black" points="247.5,-256.5 247.5,-308.5 379.5,-308.5 379.5,-256.5 247.5,-256.5"/>
<text text-anchor="start" x="255.5" y="-296.5" font-family="Helvetica,sans-Serif" font-size="10.00">src/VDF/Operateurs</text>
<text text-anchor="start" x="255.5" y="-285.5" font-family="Helvetica,sans-Serif" font-size="10.00">/Op_Diff_Dift/Op_Diff</text>
<text text-anchor="start" x="255.5" y="-274.5" font-family="Helvetica,sans-Serif" font-size="10.00">_Dift_base/Op_Diff_VDF</text>
<text text-anchor="middle" x="313.5" y="-263.5" font-family="Helvetica,sans-Serif" font-size="10.00">_Face_base.h</text>
</a>
</g>
</g>
<!-- Node3&#45;&gt;Node6 -->
<g id="edge5" class="edge">
<title>Node3&#45;&gt;Node6</title>
<path fill="none" stroke="midnightblue" d="M313.5,-335.14C313.5,-326.63 313.5,-317.07 313.5,-308.5"/>
<polygon fill="midnightblue" stroke="midnightblue" points="310,-335.2 313.5,-345.2 317,-335.21 310,-335.2"/>
</g>
<!-- Node12 -->
<g id="node12" class="node">
<title>Node12</title>
<g id="a_node12"><a xlink:href="Op__Dift__VDF__Face__base_8h.html" target="_top" xlink:title=" ">
<polygon fill="white" stroke="black" points="538.5,-256.5 538.5,-308.5 670.5,-308.5 670.5,-256.5 538.5,-256.5"/>
<text text-anchor="start" x="546.5" y="-296.5" font-family="Helvetica,sans-Serif" font-size="10.00">src/VDF/Operateurs</text>
<text text-anchor="start" x="546.5" y="-285.5" font-family="Helvetica,sans-Serif" font-size="10.00">/Op_Diff_Dift/Op_Diff</text>
<text text-anchor="start" x="546.5" y="-274.5" font-family="Helvetica,sans-Serif" font-size="10.00">_Dift_base/Op_Dift_VDF</text>
<text text-anchor="middle" x="604.5" y="-263.5" font-family="Helvetica,sans-Serif" font-size="10.00">_Face_base.h</text>
</a>
</g>
</g>
<!-- Node3&#45;&gt;Node12 -->
<g id="edge12" class="edge">
<title>Node3&#45;&gt;Node12</title>
<path fill="none" stroke="midnightblue" d="M377.12,-342.88C424.85,-330.42 490.01,-313.4 538.34,-300.78"/>
<polygon fill="midnightblue" stroke="midnightblue" points="376,-339.56 367.21,-345.47 377.77,-346.33 376,-339.56"/>
</g>
<!-- Node5 -->
<g id="node5" class="node">
<title>Node5</title>
<g id="a_node5"><a xlink:href="Op__Conv__VDF__Face__leaves_8cpp.html" target="_top" xlink:title=" ">
<polygon fill="white" stroke="black" points="0,-173 0,-214 135,-214 135,-173 0,-173"/>
<text text-anchor="start" x="8" y="-202" font-family="Helvetica,sans-Serif" font-size="10.00">src/VDF/Operateurs</text>
<text text-anchor="start" x="8" y="-191" font-family="Helvetica,sans-Serif" font-size="10.00">/Op_Conv/Op_Conv_VDF</text>
<text text-anchor="middle" x="67.5" y="-180" font-family="Helvetica,sans-Serif" font-size="10.00">_Face_leaves.cpp</text>
</a>
</g>
</g>
<!-- Node4&#45;&gt;Node5 -->
<g id="edge4" class="edge">
<title>Node4&#45;&gt;Node5</title>
<path fill="none" stroke="midnightblue" d="M99.06,-252.93C92.21,-240.23 84.3,-225.61 78.12,-214.16"/>
<polygon fill="midnightblue" stroke="midnightblue" points="96,-254.62 103.83,-261.76 102.16,-251.3 96,-254.62"/>
</g>
<!-- Node7 -->
<g id="node7" class="node">
<title>Node7</title>
<g id="a_node7"><a xlink:href="Op__Diff__VDF__Face__Axi__base_8h.html" target="_top" xlink:title=" ">
<polygon fill="white" stroke="black" points="153.5,-167.5 153.5,-219.5 285.5,-219.5 285.5,-167.5 153.5,-167.5"/>
<text text-anchor="start" x="161.5" y="-207.5" font-family="Helvetica,sans-Serif" font-size="10.00">src/VDF/Operateurs</text>
<text text-anchor="start" x="161.5" y="-196.5" font-family="Helvetica,sans-Serif" font-size="10.00">/Op_Diff_Dift/Op_Diff</text>
<text text-anchor="start" x="161.5" y="-185.5" font-family="Helvetica,sans-Serif" font-size="10.00">_Dift_base/Op_Diff_VDF</text>
<text text-anchor="middle" x="219.5" y="-174.5" font-family="Helvetica,sans-Serif" font-size="10.00">_Face_Axi_base.h</text>
</a>
</g>
</g>
<!-- Node6&#45;&gt;Node7 -->
<g id="edge6" class="edge">
<title>Node6&#45;&gt;Node7</title>
<path fill="none" stroke="midnightblue" d="M278.78,-249.36C268.17,-239.54 256.66,-228.89 246.63,-219.61"/>
<polygon fill="midnightblue" stroke="midnightblue" points="276.59,-252.11 286.31,-256.34 281.35,-246.97 276.59,-252.11"/>
</g>
<!-- Node9 -->
<g id="node9" class="node">
<title>Node9</title>
<g id="a_node9"><a xlink:href="Op__Diff__VDF__Face__leaves_8h.html" target="_top" xlink:title=" ">
<polygon fill="white" stroke="black" points="255,-84 255,-125 372,-125 372,-84 255,-84"/>
<text text-anchor="start" x="263" y="-113" font-family="Helvetica,sans-Serif" font-size="10.00">src/VDF/Operateurs</text>
<text text-anchor="start" x="263" y="-102" font-family="Helvetica,sans-Serif" font-size="10.00">/Op_Diff_Dift/Op_Diff</text>
<text text-anchor="middle" x="313.5" y="-91" font-family="Helvetica,sans-Serif" font-size="10.00">_VDF_Face_leaves.h</text>
</a>
</g>
</g>
<!-- Node6&#45;&gt;Node9 -->
<g id="edge11" class="edge">
<title>Node6&#45;&gt;Node9</title>
<path fill="none" stroke="midnightblue" d="M313.5,-246.11C313.5,-209.76 313.5,-154.46 313.5,-125.22"/>
<polygon fill="midnightblue" stroke="midnightblue" points="310,-246.28 313.5,-256.28 317,-246.28 310,-246.28"/>
</g>
<!-- Node11 -->
<g id="node11" class="node">
<title>Node11</title>
<g id="a_node11"><a xlink:href="Op__Diff__VDF__Face__base_8cpp.html" target="_top" xlink:title=" ">
<polygon fill="white" stroke="black" points="341.5,-167.5 341.5,-219.5 473.5,-219.5 473.5,-167.5 341.5,-167.5"/>
<text text-anchor="start" x="349.5" y="-207.5" font-family="Helvetica,sans-Serif" font-size="10.00">src/VDF/Operateurs</text>
<text text-anchor="start" x="349.5" y="-196.5" font-family="Helvetica,sans-Serif" font-size="10.00">/Op_Diff_Dift/Op_Diff</text>
<text text-anchor="start" x="349.5" y="-185.5" font-family="Helvetica,sans-Serif" font-size="10.00">_Dift_base/Op_Diff_VDF</text>
<text text-anchor="middle" x="407.5" y="-174.5" font-family="Helvetica,sans-Serif" font-size="10.00">_Face_base.cpp</text>
</a>
</g>
</g>
<!-- Node6&#45;&gt;Node11 -->
<g id="edge10" class="edge">
<title>Node6&#45;&gt;Node11</title>
<path fill="none" stroke="midnightblue" d="M348.22,-249.36C358.83,-239.54 370.34,-228.89 380.37,-219.61"/>
<polygon fill="midnightblue" stroke="midnightblue" points="345.65,-246.97 340.69,-256.34 350.41,-252.11 345.65,-246.97"/>
</g>
<!-- Node8 -->
<g id="node8" class="node">
<title>Node8</title>
<g id="a_node8"><a xlink:href="Op__Diff__VDF__Face__Axi__base_8cpp.html" target="_top" xlink:title=" ">
<polygon fill="white" stroke="black" points="104.5,-78.5 104.5,-130.5 236.5,-130.5 236.5,-78.5 104.5,-78.5"/>
<text text-anchor="start" x="112.5" y="-118.5" font-family="Helvetica,sans-Serif" font-size="10.00">src/VDF/Operateurs</text>
<text text-anchor="start" x="112.5" y="-107.5" font-family="Helvetica,sans-Serif" font-size="10.00">/Op_Diff_Dift/Op_Diff</text>
<text text-anchor="start" x="112.5" y="-96.5" font-family="Helvetica,sans-Serif" font-size="10.00">_Dift_base/Op_Diff_VDF</text>
<text text-anchor="middle" x="170.5" y="-85.5" font-family="Helvetica,sans-Serif" font-size="10.00">_Face_Axi_base.cpp</text>
</a>
</g>
</g>
<!-- Node7&#45;&gt;Node8 -->
<g id="edge7" class="edge">
<title>Node7&#45;&gt;Node8</title>
<path fill="none" stroke="midnightblue" d="M200.27,-158.35C195.06,-149.1 189.51,-139.26 184.64,-130.61"/>
<polygon fill="midnightblue" stroke="midnightblue" points="197.37,-160.34 205.33,-167.34 203.47,-156.91 197.37,-160.34"/>
</g>
<!-- Node7&#45;&gt;Node9 -->
<g id="edge8" class="edge">
<title>Node7&#45;&gt;Node9</title>
<path fill="none" stroke="midnightblue" d="M254.06,-160.51C266.89,-148.64 281.06,-135.53 292.34,-125.08"/>
<polygon fill="midnightblue" stroke="midnightblue" points="251.65,-157.97 246.69,-167.34 256.41,-163.11 251.65,-157.97"/>
</g>
<!-- Node10 -->
<g id="node10" class="node">
<title>Node10</title>
<g id="a_node10"><a xlink:href="Op__Diff__VDF__Face__leaves_8cpp.html" target="_top" xlink:title=" ">
<polygon fill="white" stroke="black" points="250,-0.5 250,-41.5 377,-41.5 377,-0.5 250,-0.5"/>
<text text-anchor="start" x="258" y="-29.5" font-family="Helvetica,sans-Serif" font-size="10.00">src/VDF/Operateurs</text>
<text text-anchor="start" x="258" y="-18.5" font-family="Helvetica,sans-Serif" font-size="10.00">/Op_Diff_Dift/Op_Diff</text>
<text text-anchor="middle" x="313.5" y="-7.5" font-family="Helvetica,sans-Serif" font-size="10.00">_VDF_Face_leaves.cpp</text>
</a>
</g>
</g>
<!-- Node9&#45;&gt;Node10 -->
<g id="edge9" class="edge">
<title>Node9&#45;&gt;Node10</title>
<path fill="none" stroke="midnightblue" d="M313.5,-73.56C313.5,-62.88 313.5,-51.13 313.5,-41.55"/>
<polygon fill="midnightblue" stroke="midnightblue" points="310,-73.77 313.5,-83.77 317,-73.77 310,-73.77"/>
</g>
<!-- Node13 -->
<g id="node13" class="node">
<title>Node13</title>
<g id="a_node13"><a xlink:href="Op__Dift__VDF__Face__Axi__base_8h.html" target="_top" xlink:title=" ">
<polygon fill="white" stroke="black" points="491.5,-167.5 491.5,-219.5 623.5,-219.5 623.5,-167.5 491.5,-167.5"/>
<text text-anchor="start" x="499.5" y="-207.5" font-family="Helvetica,sans-Serif" font-size="10.00">src/VDF/Operateurs</text>
<text text-anchor="start" x="499.5" y="-196.5" font-family="Helvetica,sans-Serif" font-size="10.00">/Op_Diff_Dift/Op_Diff</text>
<text text-anchor="start" x="499.5" y="-185.5" font-family="Helvetica,sans-Serif" font-size="10.00">_Dift_base/Op_Dift_VDF</text>
<text text-anchor="middle" x="557.5" y="-174.5" font-family="Helvetica,sans-Serif" font-size="10.00">_Face_Axi_base.h</text>
</a>
</g>
</g>
<!-- Node12&#45;&gt;Node13 -->
<g id="edge13" class="edge">
<title>Node12&#45;&gt;Node13</title>
<path fill="none" stroke="midnightblue" d="M586.05,-247.35C581.05,-238.1 575.74,-228.26 571.06,-219.61"/>
<polygon fill="midnightblue" stroke="midnightblue" points="583.07,-249.2 590.91,-256.34 589.23,-245.87 583.07,-249.2"/>
</g>
<!-- Node15 -->
<g id="node15" class="node">
<title>Node15</title>
<g id="a_node15"><a xlink:href="Op__Dift__VDF__Face__leaves_8h.html" target="_top" xlink:title=" ">
<polygon fill="white" stroke="black" points="593,-84 593,-125 710,-125 710,-84 593,-84"/>
<text text-anchor="start" x="601" y="-113" font-family="Helvetica,sans-Serif" font-size="10.00">src/VDF/Operateurs</text>
<text text-anchor="start" x="601" y="-102" font-family="Helvetica,sans-Serif" font-size="10.00">/Op_Diff_Dift/Op_Dift</text>
<text text-anchor="middle" x="651.5" y="-91" font-family="Helvetica,sans-Serif" font-size="10.00">_VDF_Face_leaves.h</text>
</a>
</g>
</g>
<!-- Node12&#45;&gt;Node15 -->
<g id="edge18" class="edge">
<title>Node12&#45;&gt;Node15</title>
<path fill="none" stroke="midnightblue" d="M622.01,-247.25C625.93,-238.53 629.74,-229.07 632.5,-220 642.37,-187.62 647.47,-148.43 649.81,-125.31"/>
<polygon fill="midnightblue" stroke="midnightblue" points="618.82,-245.81 617.76,-256.35 625.16,-248.77 618.82,-245.81"/>
</g>
<!-- Node17 -->
<g id="node17" class="node">
<title>Node17</title>
<g id="a_node17"><a xlink:href="Op__Dift__VDF__Face__base_8cpp.html" target="_top" xlink:title=" ">
<polygon fill="white" stroke="black" points="679.5,-167.5 679.5,-219.5 811.5,-219.5 811.5,-167.5 679.5,-167.5"/>
<text text-anchor="start" x="687.5" y="-207.5" font-family="Helvetica,sans-Serif" font-size="10.00">src/VDF/Operateurs</text>
<text text-anchor="start" x="687.5" y="-196.5" font-family="Helvetica,sans-Serif" font-size="10.00">/Op_Diff_Dift/Op_Diff</text>
<text text-anchor="start" x="687.5" y="-185.5" font-family="Helvetica,sans-Serif" font-size="10.00">_Dift_base/Op_Dift_VDF</text>
<text text-anchor="middle" x="745.5" y="-174.5" font-family="Helvetica,sans-Serif" font-size="10.00">_Face_base.cpp</text>
</a>
</g>
</g>
<!-- Node12&#45;&gt;Node17 -->
<g id="edge17" class="edge">
<title>Node12&#45;&gt;Node17</title>
<path fill="none" stroke="midnightblue" d="M653.82,-251.07C670.48,-240.79 688.89,-229.43 704.81,-219.61"/>
<polygon fill="midnightblue" stroke="midnightblue" points="651.96,-248.11 645.28,-256.34 655.63,-254.06 651.96,-248.11"/>
</g>
<!-- Node14 -->
<g id="node14" class="node">
<title>Node14</title>
<g id="a_node14"><a xlink:href="Op__Dift__VDF__Face__Axi__base_8cpp.html" target="_top" xlink:title=" ">
<polygon fill="white" stroke="black" points="442.5,-78.5 442.5,-130.5 574.5,-130.5 574.5,-78.5 442.5,-78.5"/>
<text text-anchor="start" x="450.5" y="-118.5" font-family="Helvetica,sans-Serif" font-size="10.00">src/VDF/Operateurs</text>
<text text-anchor="start" x="450.5" y="-107.5" font-family="Helvetica,sans-Serif" font-size="10.00">/Op_Diff_Dift/Op_Diff</text>
<text text-anchor="start" x="450.5" y="-96.5" font-family="Helvetica,sans-Serif" font-size="10.00">_Dift_base/Op_Dift_VDF</text>
<text text-anchor="middle" x="508.5" y="-85.5" font-family="Helvetica,sans-Serif" font-size="10.00">_Face_Axi_base.cpp</text>
</a>
</g>
</g>
<!-- Node13&#45;&gt;Node14 -->
<g id="edge14" class="edge">
<title>Node13&#45;&gt;Node14</title>
<path fill="none" stroke="midnightblue" d="M538.27,-158.35C533.06,-149.1 527.51,-139.26 522.64,-130.61"/>
<polygon fill="midnightblue" stroke="midnightblue" points="535.37,-160.34 543.33,-167.34 541.47,-156.91 535.37,-160.34"/>
</g>
<!-- Node13&#45;&gt;Node15 -->
<g id="edge15" class="edge">
<title>Node13&#45;&gt;Node15</title>
<path fill="none" stroke="midnightblue" d="M592.06,-160.51C604.89,-148.64 619.06,-135.53 630.34,-125.08"/>
<polygon fill="midnightblue" stroke="midnightblue" points="589.65,-157.97 584.69,-167.34 594.41,-163.11 589.65,-157.97"/>
</g>
<!-- Node16 -->
<g id="node16" class="node">
<title>Node16</title>
<g id="a_node16"><a xlink:href="Op__Dift__VDF__Face__leaves_8cpp.html" target="_top" xlink:title=" ">
<polygon fill="white" stroke="black" points="588,-0.5 588,-41.5 715,-41.5 715,-0.5 588,-0.5"/>
<text text-anchor="start" x="596" y="-29.5" font-family="Helvetica,sans-Serif" font-size="10.00">src/VDF/Operateurs</text>
<text text-anchor="start" x="596" y="-18.5" font-family="Helvetica,sans-Serif" font-size="10.00">/Op_Diff_Dift/Op_Dift</text>
<text text-anchor="middle" x="651.5" y="-7.5" font-family="Helvetica,sans-Serif" font-size="10.00">_VDF_Face_leaves.cpp</text>
</a>
</g>
</g>
<!-- Node15&#45;&gt;Node16 -->
<g id="edge16" class="edge">
<title>Node15&#45;&gt;Node16</title>
<path fill="none" stroke="midnightblue" d="M651.5,-73.56C651.5,-62.88 651.5,-51.13 651.5,-41.55"/>
<polygon fill="midnightblue" stroke="midnightblue" points="648,-73.77 651.5,-83.77 655,-73.77 648,-73.77"/>
</g>
</g>
</svg>
