<?xml version="1.0" encoding="UTF-8" standalone="no"?>
<!DOCTYPE svg PUBLIC "-//W3C//DTD SVG 1.1//EN"
 "http://www.w3.org/Graphics/SVG/1.1/DTD/svg11.dtd">
<!-- Generated by graphviz version 2.43.0 (0)
 -->
<!-- Title: src/ThHyd/Multiphase/Schemas_Temps/TablePrinter.h Pages: 1 -->
<svg width="529pt" height="207pt"
 viewBox="0.00 0.00 528.50 207.00" xmlns="http://www.w3.org/2000/svg" xmlns:xlink="http://www.w3.org/1999/xlink">
<g id="graph0" class="graph" transform="scale(1 1) rotate(0) translate(4 203)">
<title>src/ThHyd/Multiphase/Schemas_Temps/TablePrinter.h</title>
<polygon fill="white" stroke="transparent" points="-4,4 -4,-203 524.5,-203 524.5,4 -4,4"/>
<!-- Node1 -->
<g id="node1" class="node">
<title>Node1</title>
<g id="a_node1"><a xlink:title=" ">
<polygon fill="#bfbfbf" stroke="black" points="155,-168.5 155,-198.5 325,-198.5 325,-168.5 155,-168.5"/>
<text text-anchor="start" x="163" y="-186.5" font-family="Helvetica,sans-Serif" font-size="10.00">src/ThHyd/Multiphase</text>
<text text-anchor="middle" x="240" y="-175.5" font-family="Helvetica,sans-Serif" font-size="10.00">/Schemas_Temps/TablePrinter.h</text>
</a>
</g>
</g>
<!-- Node2 -->
<g id="node2" class="node">
<title>Node2</title>
<g id="a_node2"><a xlink:title=" ">
<polygon fill="white" stroke="#bfbfbf" points="0,-112.5 0,-131.5 60,-131.5 60,-112.5 0,-112.5"/>
<text text-anchor="middle" x="30" y="-119.5" font-family="Helvetica,sans-Serif" font-size="10.00">iostream</text>
</a>
</g>
</g>
<!-- Node1&#45;&gt;Node2 -->
<g id="edge1" class="edge">
<title>Node1&#45;&gt;Node2</title>
<path fill="none" stroke="midnightblue" d="M190.5,-168.47C153.64,-158.03 103.97,-143.96 69.69,-134.25"/>
<polygon fill="midnightblue" stroke="midnightblue" points="70.6,-130.87 60.02,-131.51 68.69,-137.6 70.6,-130.87"/>
</g>
<!-- Node3 -->
<g id="node3" class="node">
<title>Node3</title>
<g id="a_node3"><a xlink:title=" ">
<polygon fill="white" stroke="#bfbfbf" points="78,-112.5 78,-131.5 134,-131.5 134,-112.5 78,-112.5"/>
<text text-anchor="middle" x="106" y="-119.5" font-family="Helvetica,sans-Serif" font-size="10.00">iomanip</text>
</a>
</g>
</g>
<!-- Node1&#45;&gt;Node3 -->
<g id="edge2" class="edge">
<title>Node1&#45;&gt;Node3</title>
<path fill="none" stroke="midnightblue" d="M208.24,-168.4C185.96,-158.51 156.41,-145.38 134.81,-135.79"/>
<polygon fill="midnightblue" stroke="midnightblue" points="136.06,-132.52 125.5,-131.66 133.22,-138.91 136.06,-132.52"/>
</g>
<!-- Node4 -->
<g id="node4" class="node">
<title>Node4</title>
<g id="a_node4"><a xlink:title=" ">
<polygon fill="white" stroke="#bfbfbf" points="152.5,-112.5 152.5,-131.5 199.5,-131.5 199.5,-112.5 152.5,-112.5"/>
<text text-anchor="middle" x="176" y="-119.5" font-family="Helvetica,sans-Serif" font-size="10.00">vector</text>
</a>
</g>
</g>
<!-- Node1&#45;&gt;Node4 -->
<g id="edge3" class="edge">
<title>Node1&#45;&gt;Node4</title>
<path fill="none" stroke="midnightblue" d="M224.83,-168.4C215.25,-159.49 202.84,-147.95 192.93,-138.74"/>
<polygon fill="midnightblue" stroke="midnightblue" points="195.02,-135.9 185.31,-131.66 190.25,-141.03 195.02,-135.9"/>
</g>
<!-- Node5 -->
<g id="node5" class="node">
<title>Node5</title>
<g id="a_node5"><a xlink:title=" ">
<polygon fill="white" stroke="#bfbfbf" points="218,-112.5 218,-131.5 262,-131.5 262,-112.5 218,-112.5"/>
<text text-anchor="middle" x="240" y="-119.5" font-family="Helvetica,sans-Serif" font-size="10.00">string</text>
</a>
</g>
</g>
<!-- Node1&#45;&gt;Node5 -->
<g id="edge4" class="edge">
<title>Node1&#45;&gt;Node5</title>
<path fill="none" stroke="midnightblue" d="M240,-168.4C240,-160.47 240,-150.46 240,-141.86"/>
<polygon fill="midnightblue" stroke="midnightblue" points="243.5,-141.66 240,-131.66 236.5,-141.66 243.5,-141.66"/>
</g>
<!-- Node6 -->
<g id="node6" class="node">
<title>Node6</title>
<g id="a_node6"><a xlink:title=" ">
<polygon fill="white" stroke="#bfbfbf" points="280,-112.5 280,-131.5 336,-131.5 336,-112.5 280,-112.5"/>
<text text-anchor="middle" x="308" y="-119.5" font-family="Helvetica,sans-Serif" font-size="10.00">sstream</text>
</a>
</g>
</g>
<!-- Node1&#45;&gt;Node6 -->
<g id="edge5" class="edge">
<title>Node1&#45;&gt;Node6</title>
<path fill="none" stroke="midnightblue" d="M256.12,-168.4C266.4,-159.4 279.75,-147.72 290.33,-138.47"/>
<polygon fill="midnightblue" stroke="midnightblue" points="292.88,-140.88 298.11,-131.66 288.27,-135.61 292.88,-140.88"/>
</g>
<!-- Node7 -->
<g id="node7" class="node">
<title>Node7</title>
<g id="a_node7"><a xlink:title=" ">
<polygon fill="white" stroke="#bfbfbf" points="354.5,-112.5 354.5,-131.5 401.5,-131.5 401.5,-112.5 354.5,-112.5"/>
<text text-anchor="middle" x="378" y="-119.5" font-family="Helvetica,sans-Serif" font-size="10.00">cmath</text>
</a>
</g>
</g>
<!-- Node1&#45;&gt;Node7 -->
<g id="edge6" class="edge">
<title>Node1&#45;&gt;Node7</title>
<path fill="none" stroke="midnightblue" d="M272.7,-168.4C295.75,-158.46 326.36,-145.26 348.63,-135.66"/>
<polygon fill="midnightblue" stroke="midnightblue" points="350.12,-138.83 357.92,-131.66 347.35,-132.4 350.12,-138.83"/>
</g>
<!-- Node8 -->
<g id="node8" class="node">
<title>Node8</title>
<g id="a_node8"><a xlink:href="TablePrinter_8tpp_8h.html" target="_top" xlink:title=" ">
<polygon fill="white" stroke="black" points="419.5,-112.5 419.5,-131.5 520.5,-131.5 520.5,-112.5 419.5,-112.5"/>
<text text-anchor="middle" x="470" y="-119.5" font-family="Helvetica,sans-Serif" font-size="10.00">TablePrinter.tpp.h</text>
</a>
</g>
</g>
<!-- Node1&#45;&gt;Node8 -->
<g id="edge7" class="edge">
<title>Node1&#45;&gt;Node8</title>
<path fill="none" stroke="midnightblue" d="M294.22,-168.47C334.76,-157.99 389.45,-143.84 427.01,-134.12"/>
<polygon fill="midnightblue" stroke="midnightblue" points="428.31,-137.4 437.12,-131.51 426.56,-130.62 428.31,-137.4"/>
</g>
<!-- Node9 -->
<g id="node9" class="node">
<title>Node9</title>
<g id="a_node9"><a xlink:href="arch_8h.html" target="_top" xlink:title=" ">
<polygon fill="white" stroke="black" points="446.5,-56.5 446.5,-75.5 493.5,-75.5 493.5,-56.5 446.5,-56.5"/>
<text text-anchor="middle" x="470" y="-63.5" font-family="Helvetica,sans-Serif" font-size="10.00">arch.h</text>
</a>
</g>
</g>
<!-- Node8&#45;&gt;Node9 -->
<g id="edge8" class="edge">
<title>Node8&#45;&gt;Node9</title>
<path fill="none" stroke="midnightblue" d="M470,-112.08C470,-105.01 470,-94.86 470,-85.99"/>
<polygon fill="midnightblue" stroke="midnightblue" points="473.5,-85.75 470,-75.75 466.5,-85.75 473.5,-85.75"/>
</g>
<!-- Node10 -->
<g id="node10" class="node">
<title>Node10</title>
<g id="a_node10"><a xlink:href="generique_8h.html" target="_top" xlink:title=" ">
<polygon fill="white" stroke="black" points="433,-0.5 433,-19.5 507,-19.5 507,-0.5 433,-0.5"/>
<text text-anchor="middle" x="470" y="-7.5" font-family="Helvetica,sans-Serif" font-size="10.00">generique.h</text>
</a>
</g>
</g>
<!-- Node9&#45;&gt;Node10 -->
<g id="edge9" class="edge">
<title>Node9&#45;&gt;Node10</title>
<path fill="none" stroke="midnightblue" d="M470,-56.08C470,-49.01 470,-38.86 470,-29.99"/>
<polygon fill="midnightblue" stroke="midnightblue" points="473.5,-29.75 470,-19.75 466.5,-29.75 473.5,-29.75"/>
</g>
</g>
</svg>
