<?xml version="1.0" encoding="UTF-8" standalone="no"?>
<!DOCTYPE svg PUBLIC "-//W3C//DTD SVG 1.1//EN"
 "http://www.w3.org/Graphics/SVG/1.1/DTD/svg11.dtd">
<!-- Generated by graphviz version 2.43.0 (0)
 -->
<!-- Title: src/VEF/Champs/Taux_cisaillement_P0_VEF.h Pages: 1 -->
<svg width="368pt" height="106pt"
 viewBox="0.00 0.00 367.50 106.00" xmlns="http://www.w3.org/2000/svg" xmlns:xlink="http://www.w3.org/1999/xlink">
<g id="graph0" class="graph" transform="scale(1 1) rotate(0) translate(4 102)">
<title>src/VEF/Champs/Taux_cisaillement_P0_VEF.h</title>
<polygon fill="white" stroke="transparent" points="-4,4 -4,-102 363.5,-102 363.5,4 -4,4"/>
<!-- Node1 -->
<g id="node1" class="node">
<title>Node1</title>
<g id="a_node1"><a xlink:title=" ">
<polygon fill="#bfbfbf" stroke="black" points="99.5,-67.5 99.5,-97.5 230.5,-97.5 230.5,-67.5 99.5,-67.5"/>
<text text-anchor="start" x="107.5" y="-85.5" font-family="Helvetica,sans-Serif" font-size="10.00">src/VEF/Champs/Taux</text>
<text text-anchor="middle" x="165" y="-74.5" font-family="Helvetica,sans-Serif" font-size="10.00">_cisaillement_P0_VEF.h</text>
</a>
</g>
</g>
<!-- Node2 -->
<g id="node2" class="node">
<title>Node2</title>
<g id="a_node2"><a xlink:href="Taux__cisaillement__P0__VEF_8cpp.html" target="_top" xlink:title=" ">
<polygon fill="white" stroke="black" points="0,-0.5 0,-30.5 142,-30.5 142,-0.5 0,-0.5"/>
<text text-anchor="start" x="8" y="-18.5" font-family="Helvetica,sans-Serif" font-size="10.00">src/VEF/Champs/Taux</text>
<text text-anchor="middle" x="71" y="-7.5" font-family="Helvetica,sans-Serif" font-size="10.00">_cisaillement_P0_VEF.cpp</text>
</a>
</g>
</g>
<!-- Node1&#45;&gt;Node2 -->
<g id="edge1" class="edge">
<title>Node1&#45;&gt;Node2</title>
<path fill="none" stroke="midnightblue" d="M136.01,-61.45C121.55,-51.45 104.41,-39.6 91.36,-30.58"/>
<polygon fill="midnightblue" stroke="midnightblue" points="134.39,-64.59 144.6,-67.4 138.37,-58.83 134.39,-64.59"/>
</g>
<!-- Node3 -->
<g id="node3" class="node">
<title>Node3</title>
<g id="a_node3"><a xlink:href="VEF__discretisation_8cpp.html" target="_top" xlink:title=" ">
<polygon fill="white" stroke="black" points="160.5,-6 160.5,-25 359.5,-25 359.5,-6 160.5,-6"/>
<text text-anchor="middle" x="260" y="-13" font-family="Helvetica,sans-Serif" font-size="10.00">src/VEF/Zones/VEF_discretisation.cpp</text>
</a>
</g>
</g>
<!-- Node1&#45;&gt;Node3 -->
<g id="edge2" class="edge">
<title>Node1&#45;&gt;Node3</title>
<path fill="none" stroke="midnightblue" d="M194.02,-61.64C211.95,-49.37 234.04,-34.26 247.57,-25.01"/>
<polygon fill="midnightblue" stroke="midnightblue" points="191.89,-58.86 185.61,-67.4 195.84,-64.64 191.89,-58.86"/>
</g>
</g>
</svg>
