<?xml version="1.0" encoding="UTF-8" standalone="no"?>
<!DOCTYPE svg PUBLIC "-//W3C//DTD SVG 1.1//EN"
 "http://www.w3.org/Graphics/SVG/1.1/DTD/svg11.dtd">
<!-- Generated by graphviz version 2.43.0 (0)
 -->
<!-- Title: src/ThHyd/Incompressible/Cond_Lim/Temperature_imposee_paroi.h Pages: 1 -->
<svg width="718pt" height="206pt"
 viewBox="0.00 0.00 717.50 206.00" xmlns="http://www.w3.org/2000/svg" xmlns:xlink="http://www.w3.org/1999/xlink">
<g id="graph0" class="graph" transform="scale(1 1) rotate(0) translate(4 202)">
<title>src/ThHyd/Incompressible/Cond_Lim/Temperature_imposee_paroi.h</title>
<polygon fill="white" stroke="transparent" points="-4,4 -4,-202 713.5,-202 713.5,4 -4,4"/>
<!-- Node1 -->
<g id="node1" class="node">
<title>Node1</title>
<g id="a_node1"><a xlink:title=" ">
<polygon fill="#bfbfbf" stroke="black" points="268,-156.5 268,-197.5 447,-197.5 447,-156.5 268,-156.5"/>
<text text-anchor="start" x="276" y="-185.5" font-family="Helvetica,sans-Serif" font-size="10.00">src/ThHyd/Incompressible</text>
<text text-anchor="start" x="276" y="-174.5" font-family="Helvetica,sans-Serif" font-size="10.00">/Cond_Lim/Temperature_imposee</text>
<text text-anchor="middle" x="357.5" y="-163.5" font-family="Helvetica,sans-Serif" font-size="10.00">_paroi.h</text>
</a>
</g>
</g>
<!-- Node2 -->
<g id="node2" class="node">
<title>Node2</title>
<g id="a_node2"><a xlink:href="Temperature__imposee__paroi__H_8h.html" target="_top" xlink:title=" ">
<polygon fill="white" stroke="black" points="0,-78.5 0,-119.5 179,-119.5 179,-78.5 0,-78.5"/>
<text text-anchor="start" x="8" y="-107.5" font-family="Helvetica,sans-Serif" font-size="10.00">src/ThHyd/Dilatable</text>
<text text-anchor="start" x="8" y="-96.5" font-family="Helvetica,sans-Serif" font-size="10.00">/Common/Cond_Lim/Temperature</text>
<text text-anchor="middle" x="89.5" y="-85.5" font-family="Helvetica,sans-Serif" font-size="10.00">_imposee_paroi_H.h</text>
</a>
</g>
</g>
<!-- Node1&#45;&gt;Node2 -->
<g id="edge1" class="edge">
<title>Node1&#45;&gt;Node2</title>
<path fill="none" stroke="midnightblue" d="M278.44,-153.58C240.3,-142.76 194.98,-129.91 158.28,-119.51"/>
<polygon fill="midnightblue" stroke="midnightblue" points="277.91,-157.07 288.48,-156.43 279.82,-150.33 277.91,-157.07"/>
</g>
<!-- Node4 -->
<g id="node4" class="node">
<title>Node4</title>
<g id="a_node4"><a xlink:href="Les__Cl_8h.html" target="_top" xlink:title=" ">
<polygon fill="white" stroke="black" points="197,-84 197,-114 340,-114 340,-84 197,-84"/>
<text text-anchor="start" x="205" y="-102" font-family="Helvetica,sans-Serif" font-size="10.00">src/ThHyd/Incompressible</text>
<text text-anchor="middle" x="268.5" y="-91" font-family="Helvetica,sans-Serif" font-size="10.00">/Cond_Lim/Les_Cl.h</text>
</a>
</g>
</g>
<!-- Node1&#45;&gt;Node4 -->
<g id="edge3" class="edge">
<title>Node1&#45;&gt;Node4</title>
<path fill="none" stroke="midnightblue" d="M326.65,-149.66C312.72,-137.76 296.81,-124.18 285.16,-114.23"/>
<polygon fill="midnightblue" stroke="midnightblue" points="324.7,-152.6 334.58,-156.43 329.25,-147.27 324.7,-152.6"/>
</g>
<!-- Node5 -->
<g id="node5" class="node">
<title>Node5</title>
<g id="a_node5"><a xlink:href="Temperature__imposee__paroi_8cpp.html" target="_top" xlink:title=" ">
<polygon fill="white" stroke="black" points="358,-78.5 358,-119.5 537,-119.5 537,-78.5 358,-78.5"/>
<text text-anchor="start" x="366" y="-107.5" font-family="Helvetica,sans-Serif" font-size="10.00">src/ThHyd/Incompressible</text>
<text text-anchor="start" x="366" y="-96.5" font-family="Helvetica,sans-Serif" font-size="10.00">/Cond_Lim/Temperature_imposee</text>
<text text-anchor="middle" x="447.5" y="-85.5" font-family="Helvetica,sans-Serif" font-size="10.00">_paroi.cpp</text>
</a>
</g>
</g>
<!-- Node1&#45;&gt;Node5 -->
<g id="edge4" class="edge">
<title>Node1&#45;&gt;Node5</title>
<path fill="none" stroke="midnightblue" d="M388.55,-149.78C400.32,-139.84 413.49,-128.72 424.4,-119.51"/>
<polygon fill="midnightblue" stroke="midnightblue" points="386.06,-147.3 380.68,-156.43 390.58,-152.65 386.06,-147.3"/>
</g>
<!-- Node6 -->
<g id="node6" class="node">
<title>Node6</title>
<g id="a_node6"><a xlink:href="Echange__contact__Correlation__VEF_8h.html" target="_top" xlink:title=" ">
<polygon fill="white" stroke="black" points="555,-84 555,-114 704,-114 704,-84 555,-84"/>
<text text-anchor="start" x="563" y="-102" font-family="Helvetica,sans-Serif" font-size="10.00">src/VEF/Cond_Lim/Echange</text>
<text text-anchor="middle" x="629.5" y="-91" font-family="Helvetica,sans-Serif" font-size="10.00">_contact_Correlation_VEF.h</text>
</a>
</g>
</g>
<!-- Node1&#45;&gt;Node6 -->
<g id="edge5" class="edge">
<title>Node1&#45;&gt;Node6</title>
<path fill="none" stroke="midnightblue" d="M437.45,-153.66C483.24,-140.87 539.31,-125.2 579.01,-114.11"/>
<polygon fill="midnightblue" stroke="midnightblue" points="436.24,-150.37 427.55,-156.43 438.12,-157.11 436.24,-150.37"/>
</g>
<!-- Node3 -->
<g id="node3" class="node">
<title>Node3</title>
<g id="a_node3"><a xlink:href="Temperature__imposee__paroi__H_8cpp.html" target="_top" xlink:title=" ">
<polygon fill="white" stroke="black" points="0,-0.5 0,-41.5 179,-41.5 179,-0.5 0,-0.5"/>
<text text-anchor="start" x="8" y="-29.5" font-family="Helvetica,sans-Serif" font-size="10.00">src/ThHyd/Dilatable</text>
<text text-anchor="start" x="8" y="-18.5" font-family="Helvetica,sans-Serif" font-size="10.00">/Common/Cond_Lim/Temperature</text>
<text text-anchor="middle" x="89.5" y="-7.5" font-family="Helvetica,sans-Serif" font-size="10.00">_imposee_paroi_H.cpp</text>
</a>
</g>
</g>
<!-- Node2&#45;&gt;Node3 -->
<g id="edge2" class="edge">
<title>Node2&#45;&gt;Node3</title>
<path fill="none" stroke="midnightblue" d="M89.5,-68.3C89.5,-59.3 89.5,-49.65 89.5,-41.51"/>
<polygon fill="midnightblue" stroke="midnightblue" points="86,-68.43 89.5,-78.43 93,-68.43 86,-68.43"/>
</g>
<!-- Node7 -->
<g id="node7" class="node">
<title>Node7</title>
<g id="a_node7"><a xlink:href="Echange__contact__Correlation__VEF_8cpp.html" target="_top" xlink:title=" ">
<polygon fill="white" stroke="black" points="549.5,-6 549.5,-36 709.5,-36 709.5,-6 549.5,-6"/>
<text text-anchor="start" x="557.5" y="-24" font-family="Helvetica,sans-Serif" font-size="10.00">src/VEF/Cond_Lim/Echange</text>
<text text-anchor="middle" x="629.5" y="-13" font-family="Helvetica,sans-Serif" font-size="10.00">_contact_Correlation_VEF.cpp</text>
</a>
</g>
</g>
<!-- Node6&#45;&gt;Node7 -->
<g id="edge6" class="edge">
<title>Node6&#45;&gt;Node7</title>
<path fill="none" stroke="midnightblue" d="M629.5,-73.59C629.5,-61.26 629.5,-46.72 629.5,-36.23"/>
<polygon fill="midnightblue" stroke="midnightblue" points="626,-73.7 629.5,-83.7 633,-73.71 626,-73.7"/>
</g>
</g>
</svg>
