<?xml version="1.0" encoding="UTF-8" standalone="no"?>
<!DOCTYPE svg PUBLIC "-//W3C//DTD SVG 1.1//EN"
 "http://www.w3.org/Graphics/SVG/1.1/DTD/svg11.dtd">
<!-- Generated by graphviz version 2.43.0 (0)
 -->
<!-- Title: src/ThHyd/Incompressible/Sources/Terme_Source_Coriolis.h Pages: 1 -->
<svg width="346pt" height="195pt"
 viewBox="0.00 0.00 345.50 195.00" xmlns="http://www.w3.org/2000/svg" xmlns:xlink="http://www.w3.org/1999/xlink">
<g id="graph0" class="graph" transform="scale(1 1) rotate(0) translate(4 191)">
<title>src/ThHyd/Incompressible/Sources/Terme_Source_Coriolis.h</title>
<polygon fill="white" stroke="transparent" points="-4,4 -4,-191 341.5,-191 341.5,4 -4,4"/>
<!-- Node1 -->
<g id="node1" class="node">
<title>Node1</title>
<g id="a_node1"><a xlink:title=" ">
<polygon fill="#bfbfbf" stroke="black" points="94.5,-156.5 94.5,-186.5 274.5,-186.5 274.5,-156.5 94.5,-156.5"/>
<text text-anchor="start" x="102.5" y="-174.5" font-family="Helvetica,sans-Serif" font-size="10.00">src/ThHyd/Incompressible</text>
<text text-anchor="middle" x="184.5" y="-163.5" font-family="Helvetica,sans-Serif" font-size="10.00">/Sources/Terme_Source_Coriolis.h</text>
</a>
</g>
</g>
<!-- Node2 -->
<g id="node2" class="node">
<title>Node2</title>
<g id="a_node2"><a xlink:href="Terme__Source__Coriolis_8cpp.html" target="_top" xlink:title=" ">
<polygon fill="white" stroke="black" points="0,-84 0,-114 191,-114 191,-84 0,-84"/>
<text text-anchor="start" x="8" y="-102" font-family="Helvetica,sans-Serif" font-size="10.00">src/ThHyd/Incompressible</text>
<text text-anchor="middle" x="95.5" y="-91" font-family="Helvetica,sans-Serif" font-size="10.00">/Sources/Terme_Source_Coriolis.cpp</text>
</a>
</g>
</g>
<!-- Node1&#45;&gt;Node2 -->
<g id="edge1" class="edge">
<title>Node1&#45;&gt;Node2</title>
<path fill="none" stroke="midnightblue" d="M158.35,-149.79C143.81,-138.27 126.09,-124.23 113.18,-114"/>
<polygon fill="midnightblue" stroke="midnightblue" points="156.48,-152.77 166.49,-156.23 160.82,-147.28 156.48,-152.77"/>
</g>
<!-- Node3 -->
<g id="node3" class="node">
<title>Node3</title>
<g id="a_node3"><a xlink:href="Terme__Source__Coriolis__VDF__Face_8h.html" target="_top" xlink:title=" ">
<polygon fill="white" stroke="black" points="209.5,-78.5 209.5,-119.5 337.5,-119.5 337.5,-78.5 209.5,-78.5"/>
<text text-anchor="start" x="217.5" y="-107.5" font-family="Helvetica,sans-Serif" font-size="10.00">src/VDF/Sources/Terme</text>
<text text-anchor="start" x="217.5" y="-96.5" font-family="Helvetica,sans-Serif" font-size="10.00">_Source_Coriolis_VDF</text>
<text text-anchor="middle" x="273.5" y="-85.5" font-family="Helvetica,sans-Serif" font-size="10.00">_Face.h</text>
</a>
</g>
</g>
<!-- Node1&#45;&gt;Node3 -->
<g id="edge2" class="edge">
<title>Node1&#45;&gt;Node3</title>
<path fill="none" stroke="midnightblue" d="M210.46,-149.93C222.55,-140.36 236.85,-129.03 248.77,-119.59"/>
<polygon fill="midnightblue" stroke="midnightblue" points="208.18,-147.28 202.51,-156.23 212.52,-152.77 208.18,-147.28"/>
</g>
<!-- Node4 -->
<g id="node4" class="node">
<title>Node4</title>
<g id="a_node4"><a xlink:href="Terme__Source__Coriolis__VDF__Face_8cpp.html" target="_top" xlink:title=" ">
<polygon fill="white" stroke="black" points="209.5,-0.5 209.5,-41.5 337.5,-41.5 337.5,-0.5 209.5,-0.5"/>
<text text-anchor="start" x="217.5" y="-29.5" font-family="Helvetica,sans-Serif" font-size="10.00">src/VDF/Sources/Terme</text>
<text text-anchor="start" x="217.5" y="-18.5" font-family="Helvetica,sans-Serif" font-size="10.00">_Source_Coriolis_VDF</text>
<text text-anchor="middle" x="273.5" y="-7.5" font-family="Helvetica,sans-Serif" font-size="10.00">_Face.cpp</text>
</a>
</g>
</g>
<!-- Node3&#45;&gt;Node4 -->
<g id="edge3" class="edge">
<title>Node3&#45;&gt;Node4</title>
<path fill="none" stroke="midnightblue" d="M273.5,-68.3C273.5,-59.3 273.5,-49.65 273.5,-41.51"/>
<polygon fill="midnightblue" stroke="midnightblue" points="270,-68.43 273.5,-78.43 277,-68.43 270,-68.43"/>
</g>
</g>
</svg>
