<?xml version="1.0" encoding="UTF-8" standalone="no"?>
<!DOCTYPE svg PUBLIC "-//W3C//DTD SVG 1.1//EN"
 "http://www.w3.org/Graphics/SVG/1.1/DTD/svg11.dtd">
<!-- Generated by graphviz version 2.43.0 (0)
 -->
<!-- Title: src/EF/Sources/Terme_Source_EF_base.h Pages: 1 -->
<svg width="445pt" height="217pt"
 viewBox="0.00 0.00 445.00 217.00" xmlns="http://www.w3.org/2000/svg" xmlns:xlink="http://www.w3.org/1999/xlink">
<g id="graph0" class="graph" transform="scale(1 1) rotate(0) translate(4 213)">
<title>src/EF/Sources/Terme_Source_EF_base.h</title>
<polygon fill="white" stroke="transparent" points="-4,4 -4,-213 441,-213 441,4 -4,4"/>
<!-- Node1 -->
<g id="node1" class="node">
<title>Node1</title>
<g id="a_node1"><a xlink:title=" ">
<polygon fill="#bfbfbf" stroke="black" points="157.5,-178.5 157.5,-208.5 277.5,-208.5 277.5,-178.5 157.5,-178.5"/>
<text text-anchor="start" x="165.5" y="-196.5" font-family="Helvetica,sans-Serif" font-size="10.00">src/EF/Sources/Terme</text>
<text text-anchor="middle" x="217.5" y="-185.5" font-family="Helvetica,sans-Serif" font-size="10.00">_Source_EF_base.h</text>
</a>
</g>
</g>
<!-- Node2 -->
<g id="node2" class="node">
<title>Node2</title>
<g id="a_node2"><a xlink:href="Puissance__Thermique__EF_8h.html" target="_top" xlink:title=" ">
<polygon fill="white" stroke="black" points="0,-100.5 0,-130.5 139,-130.5 139,-100.5 0,-100.5"/>
<text text-anchor="start" x="8" y="-118.5" font-family="Helvetica,sans-Serif" font-size="10.00">src/EF/Sources/Puissance</text>
<text text-anchor="middle" x="69.5" y="-107.5" font-family="Helvetica,sans-Serif" font-size="10.00">_Thermique_EF.h</text>
</a>
</g>
</g>
<!-- Node1&#45;&gt;Node2 -->
<g id="edge1" class="edge">
<title>Node1&#45;&gt;Node2</title>
<path fill="none" stroke="midnightblue" d="M180.84,-173.67C154.83,-160.32 120.47,-142.68 96.84,-130.54"/>
<polygon fill="midnightblue" stroke="midnightblue" points="179.51,-176.93 190.01,-178.38 182.71,-170.7 179.51,-176.93"/>
</g>
<!-- Node4 -->
<g id="node4" class="node">
<title>Node4</title>
<g id="a_node4"><a xlink:href="Terme__Source__EF__base_8cpp.html" target="_top" xlink:title=" ">
<polygon fill="white" stroke="black" points="157,-100.5 157,-130.5 278,-130.5 278,-100.5 157,-100.5"/>
<text text-anchor="start" x="165" y="-118.5" font-family="Helvetica,sans-Serif" font-size="10.00">src/EF/Sources/Terme</text>
<text text-anchor="middle" x="217.5" y="-107.5" font-family="Helvetica,sans-Serif" font-size="10.00">_Source_EF_base.cpp</text>
</a>
</g>
</g>
<!-- Node1&#45;&gt;Node4 -->
<g id="edge3" class="edge">
<title>Node1&#45;&gt;Node4</title>
<path fill="none" stroke="midnightblue" d="M217.5,-168.09C217.5,-155.76 217.5,-141.22 217.5,-130.73"/>
<polygon fill="midnightblue" stroke="midnightblue" points="214,-168.2 217.5,-178.2 221,-168.21 214,-168.2"/>
</g>
<!-- Node5 -->
<g id="node5" class="node">
<title>Node5</title>
<g id="a_node5"><a xlink:href="Puissance__Thermique__QC__EF_8h.html" target="_top" xlink:title=" ">
<polygon fill="white" stroke="black" points="296,-89.5 296,-141.5 437,-141.5 437,-89.5 296,-89.5"/>
<text text-anchor="start" x="304" y="-129.5" font-family="Helvetica,sans-Serif" font-size="10.00">src/ThHyd/Dilatable</text>
<text text-anchor="start" x="304" y="-118.5" font-family="Helvetica,sans-Serif" font-size="10.00">/Quasi_Compressible</text>
<text text-anchor="start" x="304" y="-107.5" font-family="Helvetica,sans-Serif" font-size="10.00">/EF/Puissance_Thermique</text>
<text text-anchor="middle" x="366.5" y="-96.5" font-family="Helvetica,sans-Serif" font-size="10.00">_QC_EF.h</text>
</a>
</g>
</g>
<!-- Node1&#45;&gt;Node5 -->
<g id="edge4" class="edge">
<title>Node1&#45;&gt;Node5</title>
<path fill="none" stroke="midnightblue" d="M254.12,-173.82C273.15,-164.12 296.67,-152.12 317.26,-141.62"/>
<polygon fill="midnightblue" stroke="midnightblue" points="252.49,-170.72 245.18,-178.38 255.68,-176.96 252.49,-170.72"/>
</g>
<!-- Node3 -->
<g id="node3" class="node">
<title>Node3</title>
<g id="a_node3"><a xlink:href="Puissance__Thermique__EF_8cpp.html" target="_top" xlink:title=" ">
<polygon fill="white" stroke="black" points="0,-11.5 0,-41.5 139,-41.5 139,-11.5 0,-11.5"/>
<text text-anchor="start" x="8" y="-29.5" font-family="Helvetica,sans-Serif" font-size="10.00">src/EF/Sources/Puissance</text>
<text text-anchor="middle" x="69.5" y="-18.5" font-family="Helvetica,sans-Serif" font-size="10.00">_Thermique_EF.cpp</text>
</a>
</g>
</g>
<!-- Node2&#45;&gt;Node3 -->
<g id="edge2" class="edge">
<title>Node2&#45;&gt;Node3</title>
<path fill="none" stroke="midnightblue" d="M69.5,-90.09C69.5,-74.44 69.5,-54.68 69.5,-41.6"/>
<polygon fill="midnightblue" stroke="midnightblue" points="66,-90.13 69.5,-100.13 73,-90.13 66,-90.13"/>
</g>
<!-- Node6 -->
<g id="node6" class="node">
<title>Node6</title>
<g id="a_node6"><a xlink:href="Puissance__Thermique__QC__EF_8cpp.html" target="_top" xlink:title=" ">
<polygon fill="white" stroke="black" points="296,-0.5 296,-52.5 437,-52.5 437,-0.5 296,-0.5"/>
<text text-anchor="start" x="304" y="-40.5" font-family="Helvetica,sans-Serif" font-size="10.00">src/ThHyd/Dilatable</text>
<text text-anchor="start" x="304" y="-29.5" font-family="Helvetica,sans-Serif" font-size="10.00">/Quasi_Compressible</text>
<text text-anchor="start" x="304" y="-18.5" font-family="Helvetica,sans-Serif" font-size="10.00">/EF/Puissance_Thermique</text>
<text text-anchor="middle" x="366.5" y="-7.5" font-family="Helvetica,sans-Serif" font-size="10.00">_QC_EF.cpp</text>
</a>
</g>
</g>
<!-- Node5&#45;&gt;Node6 -->
<g id="edge5" class="edge">
<title>Node5&#45;&gt;Node6</title>
<path fill="none" stroke="midnightblue" d="M366.5,-79.19C366.5,-70.28 366.5,-60.9 366.5,-52.61"/>
<polygon fill="midnightblue" stroke="midnightblue" points="363,-79.34 366.5,-89.34 370,-79.34 363,-79.34"/>
</g>
</g>
</svg>
