<?xml version="1.0" encoding="UTF-8" standalone="no"?>
<!DOCTYPE svg PUBLIC "-//W3C//DTD SVG 1.1//EN"
 "http://www.w3.org/Graphics/SVG/1.1/DTD/svg11.dtd">
<!-- Generated by graphviz version 2.43.0 (0)
 -->
<!-- Title: src/ThHyd/Incompressible/Sources/Terme_Source_Canal_perio.h Pages: 1 -->
<svg width="505pt" height="284pt"
 viewBox="0.00 0.00 505.00 284.00" xmlns="http://www.w3.org/2000/svg" xmlns:xlink="http://www.w3.org/1999/xlink">
<g id="graph0" class="graph" transform="scale(1 1) rotate(0) translate(4 280)">
<title>src/ThHyd/Incompressible/Sources/Terme_Source_Canal_perio.h</title>
<polygon fill="white" stroke="transparent" points="-4,4 -4,-280 501,-280 501,4 -4,4"/>
<!-- Node1 -->
<g id="node1" class="node">
<title>Node1</title>
<g id="a_node1"><a xlink:title=" ">
<polygon fill="#bfbfbf" stroke="black" points="171,-234.5 171,-275.5 333,-275.5 333,-234.5 171,-234.5"/>
<text text-anchor="start" x="179" y="-263.5" font-family="Helvetica,sans-Serif" font-size="10.00">src/ThHyd/Incompressible</text>
<text text-anchor="start" x="179" y="-252.5" font-family="Helvetica,sans-Serif" font-size="10.00">/Sources/Terme_Source_Canal</text>
<text text-anchor="middle" x="252" y="-241.5" font-family="Helvetica,sans-Serif" font-size="10.00">_perio.h</text>
</a>
</g>
</g>
<!-- Node2 -->
<g id="node2" class="node">
<title>Node2</title>
<g id="a_node2"><a xlink:href="Terme__Source__Canal__perio_8cpp.html" target="_top" xlink:title=" ">
<polygon fill="white" stroke="black" points="0,-156.5 0,-197.5 162,-197.5 162,-156.5 0,-156.5"/>
<text text-anchor="start" x="8" y="-185.5" font-family="Helvetica,sans-Serif" font-size="10.00">src/ThHyd/Incompressible</text>
<text text-anchor="start" x="8" y="-174.5" font-family="Helvetica,sans-Serif" font-size="10.00">/Sources/Terme_Source_Canal</text>
<text text-anchor="middle" x="81" y="-163.5" font-family="Helvetica,sans-Serif" font-size="10.00">_perio.cpp</text>
</a>
</g>
</g>
<!-- Node1&#45;&gt;Node2 -->
<g id="edge1" class="edge">
<title>Node1&#45;&gt;Node2</title>
<path fill="none" stroke="midnightblue" d="M198.74,-230.33C175.01,-219.78 147.4,-207.51 124.89,-197.51"/>
<polygon fill="midnightblue" stroke="midnightblue" points="197.4,-233.57 207.96,-234.43 200.25,-227.17 197.4,-233.57"/>
</g>
<!-- Node3 -->
<g id="node3" class="node">
<title>Node3</title>
<g id="a_node3"><a xlink:href="Terme__Source__Canal__perio__VDF__Face_8h.html" target="_top" xlink:title=" ">
<polygon fill="white" stroke="black" points="180.5,-156.5 180.5,-197.5 323.5,-197.5 323.5,-156.5 180.5,-156.5"/>
<text text-anchor="start" x="188.5" y="-185.5" font-family="Helvetica,sans-Serif" font-size="10.00">src/VDF/Sources/Terme</text>
<text text-anchor="start" x="188.5" y="-174.5" font-family="Helvetica,sans-Serif" font-size="10.00">_Source_Canal_perio_VDF</text>
<text text-anchor="middle" x="252" y="-163.5" font-family="Helvetica,sans-Serif" font-size="10.00">_Face.h</text>
</a>
</g>
</g>
<!-- Node1&#45;&gt;Node3 -->
<g id="edge2" class="edge">
<title>Node1&#45;&gt;Node3</title>
<path fill="none" stroke="midnightblue" d="M252,-224.3C252,-215.3 252,-205.65 252,-197.51"/>
<polygon fill="midnightblue" stroke="midnightblue" points="248.5,-224.43 252,-234.43 255.5,-224.43 248.5,-224.43"/>
</g>
<!-- Node7 -->
<g id="node7" class="node">
<title>Node7</title>
<g id="a_node7"><a xlink:href="Terme__Source__Canal__perio__VEF__P1NC_8h.html" target="_top" xlink:title=" ">
<polygon fill="white" stroke="black" points="348,-156.5 348,-197.5 490,-197.5 490,-156.5 348,-156.5"/>
<text text-anchor="start" x="356" y="-185.5" font-family="Helvetica,sans-Serif" font-size="10.00">src/VEF/Sources/Terme</text>
<text text-anchor="start" x="356" y="-174.5" font-family="Helvetica,sans-Serif" font-size="10.00">_Source_Canal_perio_VEF</text>
<text text-anchor="middle" x="419" y="-163.5" font-family="Helvetica,sans-Serif" font-size="10.00">_P1NC.h</text>
</a>
</g>
</g>
<!-- Node1&#45;&gt;Node7 -->
<g id="edge6" class="edge">
<title>Node1&#45;&gt;Node7</title>
<path fill="none" stroke="midnightblue" d="M304.32,-230.19C327.42,-219.67 354.25,-207.47 376.14,-197.51"/>
<polygon fill="midnightblue" stroke="midnightblue" points="302.66,-227.1 295.01,-234.43 305.56,-233.47 302.66,-227.1"/>
</g>
<!-- Node4 -->
<g id="node4" class="node">
<title>Node4</title>
<g id="a_node4"><a xlink:href="Terme__Source__Canal__perio__VDF__Face_8cpp.html" target="_top" xlink:title=" ">
<polygon fill="white" stroke="black" points="5.5,-78.5 5.5,-119.5 148.5,-119.5 148.5,-78.5 5.5,-78.5"/>
<text text-anchor="start" x="13.5" y="-107.5" font-family="Helvetica,sans-Serif" font-size="10.00">src/VDF/Sources/Terme</text>
<text text-anchor="start" x="13.5" y="-96.5" font-family="Helvetica,sans-Serif" font-size="10.00">_Source_Canal_perio_VDF</text>
<text text-anchor="middle" x="77" y="-85.5" font-family="Helvetica,sans-Serif" font-size="10.00">_Face.cpp</text>
</a>
</g>
</g>
<!-- Node3&#45;&gt;Node4 -->
<g id="edge3" class="edge">
<title>Node3&#45;&gt;Node4</title>
<path fill="none" stroke="midnightblue" d="M197.49,-152.33C173.21,-141.78 144.96,-129.51 121.91,-119.51"/>
<polygon fill="midnightblue" stroke="midnightblue" points="196.37,-155.65 206.93,-156.43 199.15,-149.23 196.37,-155.65"/>
</g>
<!-- Node5 -->
<g id="node5" class="node">
<title>Node5</title>
<g id="a_node5"><a xlink:href="Terme__Source__Canal__perio__VDF__P0_8h.html" target="_top" xlink:title=" ">
<polygon fill="white" stroke="black" points="167,-84 167,-114 337,-114 337,-84 167,-84"/>
<text text-anchor="start" x="175" y="-102" font-family="Helvetica,sans-Serif" font-size="10.00">src/VDF/Sources/Terme</text>
<text text-anchor="middle" x="252" y="-91" font-family="Helvetica,sans-Serif" font-size="10.00">_Source_Canal_perio_VDF_P0.h</text>
</a>
</g>
</g>
<!-- Node3&#45;&gt;Node5 -->
<g id="edge4" class="edge">
<title>Node3&#45;&gt;Node5</title>
<path fill="none" stroke="midnightblue" d="M252,-146.28C252,-135.25 252,-123.25 252,-114.23"/>
<polygon fill="midnightblue" stroke="midnightblue" points="248.5,-146.43 252,-156.43 255.5,-146.43 248.5,-146.43"/>
</g>
<!-- Node6 -->
<g id="node6" class="node">
<title>Node6</title>
<g id="a_node6"><a xlink:href="Terme__Source__Canal__perio__VDF__P0_8cpp.html" target="_top" xlink:title=" ">
<polygon fill="white" stroke="black" points="180.5,-0.5 180.5,-41.5 323.5,-41.5 323.5,-0.5 180.5,-0.5"/>
<text text-anchor="start" x="188.5" y="-29.5" font-family="Helvetica,sans-Serif" font-size="10.00">src/VDF/Sources/Terme</text>
<text text-anchor="start" x="188.5" y="-18.5" font-family="Helvetica,sans-Serif" font-size="10.00">_Source_Canal_perio_VDF</text>
<text text-anchor="middle" x="252" y="-7.5" font-family="Helvetica,sans-Serif" font-size="10.00">_P0.cpp</text>
</a>
</g>
</g>
<!-- Node5&#45;&gt;Node6 -->
<g id="edge5" class="edge">
<title>Node5&#45;&gt;Node6</title>
<path fill="none" stroke="midnightblue" d="M252,-73.66C252,-63.33 252,-51.44 252,-41.68"/>
<polygon fill="midnightblue" stroke="midnightblue" points="248.5,-73.7 252,-83.7 255.5,-73.71 248.5,-73.7"/>
</g>
<!-- Node8 -->
<g id="node8" class="node">
<title>Node8</title>
<g id="a_node8"><a xlink:href="Terme__Source__Canal__perio__VEF__P1NC_8cpp.html" target="_top" xlink:title=" ">
<polygon fill="white" stroke="black" points="355,-78.5 355,-119.5 497,-119.5 497,-78.5 355,-78.5"/>
<text text-anchor="start" x="363" y="-107.5" font-family="Helvetica,sans-Serif" font-size="10.00">src/VEF/Sources/Terme</text>
<text text-anchor="start" x="363" y="-96.5" font-family="Helvetica,sans-Serif" font-size="10.00">_Source_Canal_perio_VEF</text>
<text text-anchor="middle" x="426" y="-85.5" font-family="Helvetica,sans-Serif" font-size="10.00">_P1NC.cpp</text>
</a>
</g>
</g>
<!-- Node7&#45;&gt;Node8 -->
<g id="edge7" class="edge">
<title>Node7&#45;&gt;Node8</title>
<path fill="none" stroke="midnightblue" d="M421.74,-146.3C422.56,-137.3 423.45,-127.65 424.2,-119.51"/>
<polygon fill="midnightblue" stroke="midnightblue" points="418.23,-146.15 420.8,-156.43 425.21,-146.79 418.23,-146.15"/>
</g>
</g>
</svg>
