<?xml version="1.0" encoding="UTF-8" standalone="no"?>
<!DOCTYPE svg PUBLIC "-//W3C//DTD SVG 1.1//EN"
 "http://www.w3.org/Graphics/SVG/1.1/DTD/svg11.dtd">
<!-- Generated by graphviz version 2.43.0 (0)
 -->
<!-- Title: src/VDF/Sources/Sources_It_Eval/Terme_Source_VDF_base.h Pages: 1 -->
<svg width="1637pt" height="306pt"
 viewBox="0.00 0.00 1636.50 306.00" xmlns="http://www.w3.org/2000/svg" xmlns:xlink="http://www.w3.org/1999/xlink">
<g id="graph0" class="graph" transform="scale(1 1) rotate(0) translate(4 302)">
<title>src/VDF/Sources/Sources_It_Eval/Terme_Source_VDF_base.h</title>
<polygon fill="white" stroke="transparent" points="-4,4 -4,-302 1632.5,-302 1632.5,4 -4,4"/>
<!-- Node1 -->
<g id="node1" class="node">
<title>Node1</title>
<g id="a_node1"><a xlink:title=" ">
<polygon fill="#bfbfbf" stroke="black" points="660,-256.5 660,-297.5 797,-297.5 797,-256.5 660,-256.5"/>
<text text-anchor="start" x="668" y="-285.5" font-family="Helvetica,sans-Serif" font-size="10.00">src/VDF/Sources/Sources</text>
<text text-anchor="start" x="668" y="-274.5" font-family="Helvetica,sans-Serif" font-size="10.00">_It_Eval/Terme_Source</text>
<text text-anchor="middle" x="728.5" y="-263.5" font-family="Helvetica,sans-Serif" font-size="10.00">_VDF_base.h</text>
</a>
</g>
</g>
<!-- Node2 -->
<g id="node2" class="node">
<title>Node2</title>
<g id="a_node2"><a xlink:href="Source__Darcy__VDF__Face_8h.html" target="_top" xlink:title=" ">
<polygon fill="white" stroke="black" points="165,-178.5 165,-219.5 302,-219.5 302,-178.5 165,-178.5"/>
<text text-anchor="start" x="173" y="-207.5" font-family="Helvetica,sans-Serif" font-size="10.00">src/VDF/Sources/Sources</text>
<text text-anchor="start" x="173" y="-196.5" font-family="Helvetica,sans-Serif" font-size="10.00">_It_Eval/Source_Darcy</text>
<text text-anchor="middle" x="233.5" y="-185.5" font-family="Helvetica,sans-Serif" font-size="10.00">_VDF_Face.h</text>
</a>
</g>
</g>
<!-- Node1&#45;&gt;Node2 -->
<g id="edge1" class="edge">
<title>Node1&#45;&gt;Node2</title>
<path fill="none" stroke="midnightblue" d="M649.94,-267.33C567.54,-257.75 434.43,-240.87 320.5,-220 314.55,-218.91 308.4,-217.69 302.24,-216.4"/>
<polygon fill="midnightblue" stroke="midnightblue" points="649.65,-270.82 659.98,-268.5 650.45,-263.87 649.65,-270.82"/>
</g>
<!-- Node6 -->
<g id="node6" class="node">
<title>Node6</title>
<g id="a_node6"><a xlink:href="Source__Echange__Th__VDF_8h.html" target="_top" xlink:title=" ">
<polygon fill="white" stroke="black" points="505,-178.5 505,-219.5 642,-219.5 642,-178.5 505,-178.5"/>
<text text-anchor="start" x="513" y="-207.5" font-family="Helvetica,sans-Serif" font-size="10.00">src/VDF/Sources/Sources</text>
<text text-anchor="start" x="513" y="-196.5" font-family="Helvetica,sans-Serif" font-size="10.00">_It_Eval/Source_Echange</text>
<text text-anchor="middle" x="573.5" y="-185.5" font-family="Helvetica,sans-Serif" font-size="10.00">_Th_VDF.h</text>
</a>
</g>
</g>
<!-- Node1&#45;&gt;Node6 -->
<g id="edge5" class="edge">
<title>Node1&#45;&gt;Node6</title>
<path fill="none" stroke="midnightblue" d="M679.37,-251.91C658.05,-241.46 633.42,-229.38 613.28,-219.51"/>
<polygon fill="midnightblue" stroke="midnightblue" points="678.06,-255.17 688.58,-256.43 681.15,-248.88 678.06,-255.17"/>
</g>
<!-- Node8 -->
<g id="node8" class="node">
<title>Node8</title>
<g id="a_node8"><a xlink:href="Source__Forchheimer__VDF__Face_8h.html" target="_top" xlink:title=" ">
<polygon fill="white" stroke="black" points="330,-178.5 330,-219.5 487,-219.5 487,-178.5 330,-178.5"/>
<text text-anchor="start" x="338" y="-207.5" font-family="Helvetica,sans-Serif" font-size="10.00">src/VDF/Sources/Sources</text>
<text text-anchor="start" x="338" y="-196.5" font-family="Helvetica,sans-Serif" font-size="10.00">_It_Eval/Source_Forchheimer</text>
<text text-anchor="middle" x="408.5" y="-185.5" font-family="Helvetica,sans-Serif" font-size="10.00">_VDF_Face.h</text>
</a>
</g>
</g>
<!-- Node1&#45;&gt;Node8 -->
<g id="edge7" class="edge">
<title>Node1&#45;&gt;Node8</title>
<path fill="none" stroke="midnightblue" d="M649.83,-257.32C600.33,-245.56 536.68,-230.44 487.17,-218.68"/>
<polygon fill="midnightblue" stroke="midnightblue" points="649.31,-260.79 659.85,-259.7 650.93,-253.98 649.31,-260.79"/>
</g>
<!-- Node10 -->
<g id="node10" class="node">
<title>Node10</title>
<g id="a_node10"><a xlink:href="Terme__Gravite__VDF__Face_8h.html" target="_top" xlink:title=" ">
<polygon fill="white" stroke="black" points="660,-178.5 660,-219.5 797,-219.5 797,-178.5 660,-178.5"/>
<text text-anchor="start" x="668" y="-207.5" font-family="Helvetica,sans-Serif" font-size="10.00">src/VDF/Sources/Sources</text>
<text text-anchor="start" x="668" y="-196.5" font-family="Helvetica,sans-Serif" font-size="10.00">_It_Eval/Terme_Gravite</text>
<text text-anchor="middle" x="728.5" y="-185.5" font-family="Helvetica,sans-Serif" font-size="10.00">_VDF_Face.h</text>
</a>
</g>
</g>
<!-- Node1&#45;&gt;Node10 -->
<g id="edge10" class="edge">
<title>Node1&#45;&gt;Node10</title>
<path fill="none" stroke="midnightblue" d="M728.5,-246.3C728.5,-237.3 728.5,-227.65 728.5,-219.51"/>
<polygon fill="midnightblue" stroke="midnightblue" points="725,-246.43 728.5,-256.43 732,-246.43 725,-246.43"/>
</g>
<!-- Node12 -->
<g id="node12" class="node">
<title>Node12</title>
<g id="a_node12"><a xlink:href="Terme__Puissance__Thermique__VDF__base_8h.html" target="_top" xlink:title=" ">
<polygon fill="white" stroke="black" points="897.5,-178.5 897.5,-219.5 1039.5,-219.5 1039.5,-178.5 897.5,-178.5"/>
<text text-anchor="start" x="905.5" y="-207.5" font-family="Helvetica,sans-Serif" font-size="10.00">src/VDF/Sources/Sources</text>
<text text-anchor="start" x="905.5" y="-196.5" font-family="Helvetica,sans-Serif" font-size="10.00">_It_Eval/Terme_Puissance</text>
<text text-anchor="middle" x="968.5" y="-185.5" font-family="Helvetica,sans-Serif" font-size="10.00">_Thermique_VDF_base.h</text>
</a>
</g>
</g>
<!-- Node1&#45;&gt;Node12 -->
<g id="edge12" class="edge">
<title>Node1&#45;&gt;Node12</title>
<path fill="none" stroke="midnightblue" d="M800.17,-253.3C834.14,-242.55 874.32,-229.82 906.9,-219.51"/>
<polygon fill="midnightblue" stroke="midnightblue" points="798.78,-250.07 790.31,-256.43 800.9,-256.75 798.78,-250.07"/>
</g>
<!-- Node20 -->
<g id="node20" class="node">
<title>Node20</title>
<g id="a_node20"><a xlink:href="Terme__Source__Constituant__VDF__Elem_8h.html" target="_top" xlink:title=" ">
<polygon fill="white" stroke="black" points="1058,-178.5 1058,-219.5 1201,-219.5 1201,-178.5 1058,-178.5"/>
<text text-anchor="start" x="1066" y="-207.5" font-family="Helvetica,sans-Serif" font-size="10.00">src/VDF/Sources/Sources</text>
<text text-anchor="start" x="1066" y="-196.5" font-family="Helvetica,sans-Serif" font-size="10.00">_It_Eval/Terme_Source</text>
<text text-anchor="middle" x="1129.5" y="-185.5" font-family="Helvetica,sans-Serif" font-size="10.00">_Constituant_VDF_Elem.h</text>
</a>
</g>
</g>
<!-- Node1&#45;&gt;Node20 -->
<g id="edge20" class="edge">
<title>Node1&#45;&gt;Node20</title>
<path fill="none" stroke="midnightblue" d="M807.28,-263.76C872.23,-253.31 966.65,-237.25 1048.5,-220 1051.48,-219.37 1054.51,-218.71 1057.57,-218.03"/>
<polygon fill="midnightblue" stroke="midnightblue" points="806.43,-260.36 797.11,-265.39 807.54,-267.27 806.43,-260.36"/>
</g>
<!-- Node22 -->
<g id="node22" class="node">
<title>Node22</title>
<g id="a_node22"><a xlink:href="Terme__Source__VDF__base_8cpp.html" target="_top" xlink:title=" ">
<polygon fill="white" stroke="black" points="1219,-178.5 1219,-219.5 1356,-219.5 1356,-178.5 1219,-178.5"/>
<text text-anchor="start" x="1227" y="-207.5" font-family="Helvetica,sans-Serif" font-size="10.00">src/VDF/Sources/Sources</text>
<text text-anchor="start" x="1227" y="-196.5" font-family="Helvetica,sans-Serif" font-size="10.00">_It_Eval/Terme_Source</text>
<text text-anchor="middle" x="1287.5" y="-185.5" font-family="Helvetica,sans-Serif" font-size="10.00">_VDF_base.cpp</text>
</a>
</g>
</g>
<!-- Node1&#45;&gt;Node22 -->
<g id="edge22" class="edge">
<title>Node1&#45;&gt;Node22</title>
<path fill="none" stroke="midnightblue" d="M807.39,-270.21C903.26,-262.39 1069.68,-246.34 1210.5,-220 1213.22,-219.49 1215.98,-218.94 1218.76,-218.36"/>
<polygon fill="midnightblue" stroke="midnightblue" points="806.88,-266.74 797.19,-271.03 807.44,-273.71 806.88,-266.74"/>
</g>
<!-- Node3 -->
<g id="node3" class="node">
<title>Node3</title>
<g id="a_node3"><a xlink:href="Source__QC__VDF__Face_8h.html" target="_top" xlink:title=" ">
<polygon fill="white" stroke="black" points="155,-95 155,-136 312,-136 312,-95 155,-95"/>
<text text-anchor="start" x="163" y="-124" font-family="Helvetica,sans-Serif" font-size="10.00">src/ThHyd/Dilatable</text>
<text text-anchor="start" x="163" y="-113" font-family="Helvetica,sans-Serif" font-size="10.00">/Quasi_Compressible</text>
<text text-anchor="middle" x="233.5" y="-102" font-family="Helvetica,sans-Serif" font-size="10.00">/VDF/Source_QC_VDF_Face.h</text>
</a>
</g>
</g>
<!-- Node2&#45;&gt;Node3 -->
<g id="edge2" class="edge">
<title>Node2&#45;&gt;Node3</title>
<path fill="none" stroke="midnightblue" d="M233.5,-168.06C233.5,-157.38 233.5,-145.63 233.5,-136.05"/>
<polygon fill="midnightblue" stroke="midnightblue" points="230,-168.27 233.5,-178.27 237,-168.27 230,-168.27"/>
</g>
<!-- Node5 -->
<g id="node5" class="node">
<title>Node5</title>
<g id="a_node5"><a xlink:href="Source__Darcy__VDF__Face_8cpp.html" target="_top" xlink:title=" ">
<polygon fill="white" stroke="black" points="0,-95 0,-136 137,-136 137,-95 0,-95"/>
<text text-anchor="start" x="8" y="-124" font-family="Helvetica,sans-Serif" font-size="10.00">src/VDF/Sources/Sources</text>
<text text-anchor="start" x="8" y="-113" font-family="Helvetica,sans-Serif" font-size="10.00">_It_Eval/Source_Darcy</text>
<text text-anchor="middle" x="68.5" y="-102" font-family="Helvetica,sans-Serif" font-size="10.00">_VDF_Face.cpp</text>
</a>
</g>
</g>
<!-- Node2&#45;&gt;Node5 -->
<g id="edge4" class="edge">
<title>Node2&#45;&gt;Node5</title>
<path fill="none" stroke="midnightblue" d="M184.85,-173.97C160.36,-161.87 131.06,-147.4 107.98,-136"/>
<polygon fill="midnightblue" stroke="midnightblue" points="183.46,-177.19 193.98,-178.48 186.56,-170.91 183.46,-177.19"/>
</g>
<!-- Node4 -->
<g id="node4" class="node">
<title>Node4</title>
<g id="a_node4"><a xlink:href="Source__QC__VDF__Face_8cpp.html" target="_top" xlink:title=" ">
<polygon fill="white" stroke="black" points="149.5,-6 149.5,-47 317.5,-47 317.5,-6 149.5,-6"/>
<text text-anchor="start" x="157.5" y="-35" font-family="Helvetica,sans-Serif" font-size="10.00">src/ThHyd/Dilatable</text>
<text text-anchor="start" x="157.5" y="-24" font-family="Helvetica,sans-Serif" font-size="10.00">/Quasi_Compressible</text>
<text text-anchor="middle" x="233.5" y="-13" font-family="Helvetica,sans-Serif" font-size="10.00">/VDF/Source_QC_VDF_Face.cpp</text>
</a>
</g>
</g>
<!-- Node3&#45;&gt;Node4 -->
<g id="edge3" class="edge">
<title>Node3&#45;&gt;Node4</title>
<path fill="none" stroke="midnightblue" d="M233.5,-84.44C233.5,-72.1 233.5,-58.16 233.5,-47.16"/>
<polygon fill="midnightblue" stroke="midnightblue" points="230,-84.76 233.5,-94.76 237,-84.76 230,-84.76"/>
</g>
<!-- Node7 -->
<g id="node7" class="node">
<title>Node7</title>
<g id="a_node7"><a xlink:href="Source__Echange__Th__VDF_8cpp.html" target="_top" xlink:title=" ">
<polygon fill="white" stroke="black" points="505,-95 505,-136 642,-136 642,-95 505,-95"/>
<text text-anchor="start" x="513" y="-124" font-family="Helvetica,sans-Serif" font-size="10.00">src/VDF/Sources/Sources</text>
<text text-anchor="start" x="513" y="-113" font-family="Helvetica,sans-Serif" font-size="10.00">_It_Eval/Source_Echange</text>
<text text-anchor="middle" x="573.5" y="-102" font-family="Helvetica,sans-Serif" font-size="10.00">_Th_VDF.cpp</text>
</a>
</g>
</g>
<!-- Node6&#45;&gt;Node7 -->
<g id="edge6" class="edge">
<title>Node6&#45;&gt;Node7</title>
<path fill="none" stroke="midnightblue" d="M573.5,-168.06C573.5,-157.38 573.5,-145.63 573.5,-136.05"/>
<polygon fill="midnightblue" stroke="midnightblue" points="570,-168.27 573.5,-178.27 577,-168.27 570,-168.27"/>
</g>
<!-- Node8&#45;&gt;Node3 -->
<g id="edge8" class="edge">
<title>Node8&#45;&gt;Node3</title>
<path fill="none" stroke="midnightblue" d="M357.25,-174.13C331.2,-162 299.96,-147.45 275.38,-136"/>
<polygon fill="midnightblue" stroke="midnightblue" points="356.04,-177.43 366.58,-178.48 359,-171.08 356.04,-177.43"/>
</g>
<!-- Node9 -->
<g id="node9" class="node">
<title>Node9</title>
<g id="a_node9"><a xlink:href="Source__Forchheimer__VDF__Face_8cpp.html" target="_top" xlink:title=" ">
<polygon fill="white" stroke="black" points="330,-95 330,-136 487,-136 487,-95 330,-95"/>
<text text-anchor="start" x="338" y="-124" font-family="Helvetica,sans-Serif" font-size="10.00">src/VDF/Sources/Sources</text>
<text text-anchor="start" x="338" y="-113" font-family="Helvetica,sans-Serif" font-size="10.00">_It_Eval/Source_Forchheimer</text>
<text text-anchor="middle" x="408.5" y="-102" font-family="Helvetica,sans-Serif" font-size="10.00">_VDF_Face.cpp</text>
</a>
</g>
</g>
<!-- Node8&#45;&gt;Node9 -->
<g id="edge9" class="edge">
<title>Node8&#45;&gt;Node9</title>
<path fill="none" stroke="midnightblue" d="M408.5,-168.06C408.5,-157.38 408.5,-145.63 408.5,-136.05"/>
<polygon fill="midnightblue" stroke="midnightblue" points="405,-168.27 408.5,-178.27 412,-168.27 405,-168.27"/>
</g>
<!-- Node11 -->
<g id="node11" class="node">
<title>Node11</title>
<g id="a_node11"><a xlink:href="Terme__Gravite__VDF__Face_8cpp.html" target="_top" xlink:title=" ">
<polygon fill="white" stroke="black" points="660,-95 660,-136 797,-136 797,-95 660,-95"/>
<text text-anchor="start" x="668" y="-124" font-family="Helvetica,sans-Serif" font-size="10.00">src/VDF/Sources/Sources</text>
<text text-anchor="start" x="668" y="-113" font-family="Helvetica,sans-Serif" font-size="10.00">_It_Eval/Terme_Gravite</text>
<text text-anchor="middle" x="728.5" y="-102" font-family="Helvetica,sans-Serif" font-size="10.00">_VDF_Face.cpp</text>
</a>
</g>
</g>
<!-- Node10&#45;&gt;Node11 -->
<g id="edge11" class="edge">
<title>Node10&#45;&gt;Node11</title>
<path fill="none" stroke="midnightblue" d="M728.5,-168.06C728.5,-157.38 728.5,-145.63 728.5,-136.05"/>
<polygon fill="midnightblue" stroke="midnightblue" points="725,-168.27 728.5,-178.27 732,-168.27 725,-168.27"/>
</g>
<!-- Node13 -->
<g id="node13" class="node">
<title>Node13</title>
<g id="a_node13"><a xlink:href="Terme__Puissance__Thermique__QC__VDF__Elem_8h.html" target="_top" xlink:title=" ">
<polygon fill="white" stroke="black" points="1142.5,-89.5 1142.5,-141.5 1300.5,-141.5 1300.5,-89.5 1142.5,-89.5"/>
<text text-anchor="start" x="1150.5" y="-129.5" font-family="Helvetica,sans-Serif" font-size="10.00">src/ThHyd/Dilatable</text>
<text text-anchor="start" x="1150.5" y="-118.5" font-family="Helvetica,sans-Serif" font-size="10.00">/Quasi_Compressible</text>
<text text-anchor="start" x="1150.5" y="-107.5" font-family="Helvetica,sans-Serif" font-size="10.00">/VDF/Terme_Puissance</text>
<text text-anchor="middle" x="1221.5" y="-96.5" font-family="Helvetica,sans-Serif" font-size="10.00">_Thermique_QC_VDF_Elem.h</text>
</a>
</g>
</g>
<!-- Node12&#45;&gt;Node13 -->
<g id="edge13" class="edge">
<title>Node12&#45;&gt;Node13</title>
<path fill="none" stroke="midnightblue" d="M1038.99,-175.29C1071.52,-164.81 1110.26,-152.33 1143.66,-141.58"/>
<polygon fill="midnightblue" stroke="midnightblue" points="1037.54,-172.08 1029.1,-178.48 1039.69,-178.74 1037.54,-172.08"/>
</g>
<!-- Node15 -->
<g id="node15" class="node">
<title>Node15</title>
<g id="a_node15"><a xlink:href="Source__Dirac__VDF__Elem_8h.html" target="_top" xlink:title=" ">
<polygon fill="white" stroke="black" points="1319,-95 1319,-136 1456,-136 1456,-95 1319,-95"/>
<text text-anchor="start" x="1327" y="-124" font-family="Helvetica,sans-Serif" font-size="10.00">src/VDF/Sources/Sources</text>
<text text-anchor="start" x="1327" y="-113" font-family="Helvetica,sans-Serif" font-size="10.00">_It_Eval/Source_Dirac</text>
<text text-anchor="middle" x="1387.5" y="-102" font-family="Helvetica,sans-Serif" font-size="10.00">_VDF_Elem.h</text>
</a>
</g>
</g>
<!-- Node12&#45;&gt;Node15 -->
<g id="edge15" class="edge">
<title>Node12&#45;&gt;Node15</title>
<path fill="none" stroke="midnightblue" d="M1049.19,-178.06C1049.3,-178.04 1049.4,-178.02 1049.5,-178 1164.06,-155.99 1195.83,-168.23 1309.5,-142 1316.72,-140.33 1324.22,-138.29 1331.6,-136.1"/>
<polygon fill="midnightblue" stroke="midnightblue" points="1048.63,-174.6 1039.53,-180.02 1050.02,-181.46 1048.63,-174.6"/>
</g>
<!-- Node17 -->
<g id="node17" class="node">
<title>Node17</title>
<g id="a_node17"><a xlink:href="Terme__Puissance__Thermique__VDF__Elem_8h.html" target="_top" xlink:title=" ">
<polygon fill="white" stroke="black" points="815.5,-95 815.5,-136 957.5,-136 957.5,-95 815.5,-95"/>
<text text-anchor="start" x="823.5" y="-124" font-family="Helvetica,sans-Serif" font-size="10.00">src/VDF/Sources/Sources</text>
<text text-anchor="start" x="823.5" y="-113" font-family="Helvetica,sans-Serif" font-size="10.00">_It_Eval/Terme_Puissance</text>
<text text-anchor="middle" x="886.5" y="-102" font-family="Helvetica,sans-Serif" font-size="10.00">_Thermique_VDF_Elem.h</text>
</a>
</g>
</g>
<!-- Node12&#45;&gt;Node17 -->
<g id="edge17" class="edge">
<title>Node12&#45;&gt;Node17</title>
<path fill="none" stroke="midnightblue" d="M941.37,-171.04C929.87,-159.6 916.71,-146.53 906.17,-136.05"/>
<polygon fill="midnightblue" stroke="midnightblue" points="939.09,-173.7 948.65,-178.27 944.02,-168.74 939.09,-173.7"/>
</g>
<!-- Node19 -->
<g id="node19" class="node">
<title>Node19</title>
<g id="a_node19"><a xlink:href="Terme__Puissance__Thermique__VDF__base_8cpp.html" target="_top" xlink:title=" ">
<polygon fill="white" stroke="black" points="976,-95 976,-136 1125,-136 1125,-95 976,-95"/>
<text text-anchor="start" x="984" y="-124" font-family="Helvetica,sans-Serif" font-size="10.00">src/VDF/Sources/Sources</text>
<text text-anchor="start" x="984" y="-113" font-family="Helvetica,sans-Serif" font-size="10.00">_It_Eval/Terme_Puissance</text>
<text text-anchor="middle" x="1050.5" y="-102" font-family="Helvetica,sans-Serif" font-size="10.00">_Thermique_VDF_base.cpp</text>
</a>
</g>
</g>
<!-- Node12&#45;&gt;Node19 -->
<g id="edge19" class="edge">
<title>Node12&#45;&gt;Node19</title>
<path fill="none" stroke="midnightblue" d="M995.63,-171.04C1007.13,-159.6 1020.29,-146.53 1030.83,-136.05"/>
<polygon fill="midnightblue" stroke="midnightblue" points="992.98,-168.74 988.35,-178.27 997.91,-173.7 992.98,-168.74"/>
</g>
<!-- Node14 -->
<g id="node14" class="node">
<title>Node14</title>
<g id="a_node14"><a xlink:href="Terme__Puissance__Thermique__QC__VDF__Elem_8cpp.html" target="_top" xlink:title=" ">
<polygon fill="white" stroke="black" points="1133.5,-0.5 1133.5,-52.5 1303.5,-52.5 1303.5,-0.5 1133.5,-0.5"/>
<text text-anchor="start" x="1141.5" y="-40.5" font-family="Helvetica,sans-Serif" font-size="10.00">src/ThHyd/Dilatable</text>
<text text-anchor="start" x="1141.5" y="-29.5" font-family="Helvetica,sans-Serif" font-size="10.00">/Quasi_Compressible</text>
<text text-anchor="start" x="1141.5" y="-18.5" font-family="Helvetica,sans-Serif" font-size="10.00">/VDF/Terme_Puissance</text>
<text text-anchor="middle" x="1218.5" y="-7.5" font-family="Helvetica,sans-Serif" font-size="10.00">_Thermique_QC_VDF_Elem.cpp</text>
</a>
</g>
</g>
<!-- Node13&#45;&gt;Node14 -->
<g id="edge14" class="edge">
<title>Node13&#45;&gt;Node14</title>
<path fill="none" stroke="midnightblue" d="M1220.28,-79.19C1219.98,-70.28 1219.65,-60.9 1219.37,-52.61"/>
<polygon fill="midnightblue" stroke="midnightblue" points="1216.79,-79.46 1220.63,-89.34 1223.79,-79.22 1216.79,-79.46"/>
</g>
<!-- Node16 -->
<g id="node16" class="node">
<title>Node16</title>
<g id="a_node16"><a xlink:href="Source__Dirac__VDF__Elem_8cpp.html" target="_top" xlink:title=" ">
<polygon fill="white" stroke="black" points="1322,-6 1322,-47 1459,-47 1459,-6 1322,-6"/>
<text text-anchor="start" x="1330" y="-35" font-family="Helvetica,sans-Serif" font-size="10.00">src/VDF/Sources/Sources</text>
<text text-anchor="start" x="1330" y="-24" font-family="Helvetica,sans-Serif" font-size="10.00">_It_Eval/Source_Dirac</text>
<text text-anchor="middle" x="1390.5" y="-13" font-family="Helvetica,sans-Serif" font-size="10.00">_VDF_Elem.cpp</text>
</a>
</g>
</g>
<!-- Node15&#45;&gt;Node16 -->
<g id="edge16" class="edge">
<title>Node15&#45;&gt;Node16</title>
<path fill="none" stroke="midnightblue" d="M1388.54,-84.44C1388.96,-72.1 1389.44,-58.16 1389.82,-47.16"/>
<polygon fill="midnightblue" stroke="midnightblue" points="1385.03,-84.64 1388.18,-94.76 1392.02,-84.88 1385.03,-84.64"/>
</g>
<!-- Node18 -->
<g id="node18" class="node">
<title>Node18</title>
<g id="a_node18"><a xlink:href="Terme__Puissance__Thermique__VDF__Elem_8cpp.html" target="_top" xlink:title=" ">
<polygon fill="white" stroke="black" points="811.5,-6 811.5,-47 961.5,-47 961.5,-6 811.5,-6"/>
<text text-anchor="start" x="819.5" y="-35" font-family="Helvetica,sans-Serif" font-size="10.00">src/VDF/Sources/Sources</text>
<text text-anchor="start" x="819.5" y="-24" font-family="Helvetica,sans-Serif" font-size="10.00">_It_Eval/Terme_Puissance</text>
<text text-anchor="middle" x="886.5" y="-13" font-family="Helvetica,sans-Serif" font-size="10.00">_Thermique_VDF_Elem.cpp</text>
</a>
</g>
</g>
<!-- Node17&#45;&gt;Node18 -->
<g id="edge18" class="edge">
<title>Node17&#45;&gt;Node18</title>
<path fill="none" stroke="midnightblue" d="M886.5,-84.44C886.5,-72.1 886.5,-58.16 886.5,-47.16"/>
<polygon fill="midnightblue" stroke="midnightblue" points="883,-84.76 886.5,-94.76 890,-84.76 883,-84.76"/>
</g>
<!-- Node21 -->
<g id="node21" class="node">
<title>Node21</title>
<g id="a_node21"><a xlink:href="Terme__Source__Constituant__VDF__Elem_8cpp.html" target="_top" xlink:title=" ">
<polygon fill="white" stroke="black" points="1474.5,-95 1474.5,-136 1628.5,-136 1628.5,-95 1474.5,-95"/>
<text text-anchor="start" x="1482.5" y="-124" font-family="Helvetica,sans-Serif" font-size="10.00">src/VDF/Sources/Sources</text>
<text text-anchor="start" x="1482.5" y="-113" font-family="Helvetica,sans-Serif" font-size="10.00">_It_Eval/Terme_Source</text>
<text text-anchor="middle" x="1551.5" y="-102" font-family="Helvetica,sans-Serif" font-size="10.00">_Constituant_VDF_Elem.cpp</text>
</a>
</g>
</g>
<!-- Node20&#45;&gt;Node21 -->
<g id="edge21" class="edge">
<title>Node20&#45;&gt;Node21</title>
<path fill="none" stroke="midnightblue" d="M1211.51,-177.92C1324.68,-156.8 1356.83,-165.65 1465.5,-142 1473.26,-140.31 1481.34,-138.28 1489.31,-136.12"/>
<polygon fill="midnightblue" stroke="midnightblue" points="1210.57,-174.53 1201.4,-179.84 1211.88,-181.41 1210.57,-174.53"/>
</g>
</g>
</svg>
