<?xml version="1.0" encoding="UTF-8" standalone="no"?>
<!DOCTYPE svg PUBLIC "-//W3C//DTD SVG 1.1//EN"
 "http://www.w3.org/Graphics/SVG/1.1/DTD/svg11.dtd">
<!-- Generated by graphviz version 2.43.0 (0)
 -->
<!-- Title: src/EF/Zones/Tetra_EF.h Pages: 1 -->
<svg width="780pt" height="95pt"
 viewBox="0.00 0.00 780.00 95.00" xmlns="http://www.w3.org/2000/svg" xmlns:xlink="http://www.w3.org/1999/xlink">
<g id="graph0" class="graph" transform="scale(1 1) rotate(0) translate(4 91)">
<title>src/EF/Zones/Tetra_EF.h</title>
<polygon fill="white" stroke="transparent" points="-4,4 -4,-91 776,-91 776,4 -4,4"/>
<!-- Node1 -->
<g id="node1" class="node">
<title>Node1</title>
<g id="a_node1"><a xlink:title=" ">
<polygon fill="#bfbfbf" stroke="black" points="352,-67.5 352,-86.5 483,-86.5 483,-67.5 352,-67.5"/>
<text text-anchor="middle" x="417.5" y="-74.5" font-family="Helvetica,sans-Serif" font-size="10.00">src/EF/Zones/Tetra_EF.h</text>
</a>
</g>
</g>
<!-- Node2 -->
<g id="node2" class="node">
<title>Node2</title>
<g id="a_node2"><a xlink:href="EF__discretisation_8cpp.html" target="_top" xlink:title=" ">
<polygon fill="white" stroke="black" points="0,-6 0,-25 185,-25 185,-6 0,-6"/>
<text text-anchor="middle" x="92.5" y="-13" font-family="Helvetica,sans-Serif" font-size="10.00">src/EF/Zones/EF_discretisation.cpp</text>
</a>
</g>
</g>
<!-- Node1&#45;&gt;Node2 -->
<g id="edge1" class="edge">
<title>Node1&#45;&gt;Node2</title>
<path fill="none" stroke="midnightblue" d="M360.79,-65.62C297.85,-54.09 197.46,-35.72 138.98,-25.01"/>
<polygon fill="midnightblue" stroke="midnightblue" points="360.47,-69.12 370.94,-67.48 361.73,-62.23 360.47,-69.12"/>
</g>
<!-- Node3 -->
<g id="node3" class="node">
<title>Node3</title>
<g id="a_node3"><a xlink:href="Elem__EF_8cpp.html" target="_top" xlink:title=" ">
<polygon fill="white" stroke="black" points="203,-6 203,-25 346,-25 346,-6 203,-6"/>
<text text-anchor="middle" x="274.5" y="-13" font-family="Helvetica,sans-Serif" font-size="10.00">src/EF/Zones/Elem_EF.cpp</text>
</a>
</g>
</g>
<!-- Node1&#45;&gt;Node3 -->
<g id="edge2" class="edge">
<title>Node1&#45;&gt;Node3</title>
<path fill="none" stroke="midnightblue" d="M387.77,-63.63C359.99,-52.07 319.25,-35.12 294.95,-25.01"/>
<polygon fill="midnightblue" stroke="midnightblue" points="386.43,-66.86 397.01,-67.48 389.12,-60.4 386.43,-66.86"/>
</g>
<!-- Node4 -->
<g id="node4" class="node">
<title>Node4</title>
<g id="a_node4"><a xlink:href="Tetra__EF_8cpp.html" target="_top" xlink:title=" ">
<polygon fill="white" stroke="black" points="364.5,-0.5 364.5,-30.5 470.5,-30.5 470.5,-0.5 364.5,-0.5"/>
<text text-anchor="start" x="372.5" y="-18.5" font-family="Helvetica,sans-Serif" font-size="10.00">src/EF/Zones/Tetra</text>
<text text-anchor="middle" x="417.5" y="-7.5" font-family="Helvetica,sans-Serif" font-size="10.00">_EF.cpp</text>
</a>
</g>
</g>
<!-- Node1&#45;&gt;Node4 -->
<g id="edge3" class="edge">
<title>Node1&#45;&gt;Node4</title>
<path fill="none" stroke="midnightblue" d="M417.5,-57.23C417.5,-48.59 417.5,-38.5 417.5,-30.52"/>
<polygon fill="midnightblue" stroke="midnightblue" points="414,-57.48 417.5,-67.48 421,-57.48 414,-57.48"/>
</g>
<!-- Node5 -->
<g id="node5" class="node">
<title>Node5</title>
<g id="a_node5"><a xlink:href="Zone__Cl__EF_8cpp.html" target="_top" xlink:title=" ">
<polygon fill="white" stroke="black" points="488.5,-0.5 488.5,-30.5 610.5,-30.5 610.5,-0.5 488.5,-0.5"/>
<text text-anchor="start" x="496.5" y="-18.5" font-family="Helvetica,sans-Serif" font-size="10.00">src/EF/Zones/Zone_Cl</text>
<text text-anchor="middle" x="549.5" y="-7.5" font-family="Helvetica,sans-Serif" font-size="10.00">_EF.cpp</text>
</a>
</g>
</g>
<!-- Node1&#45;&gt;Node5 -->
<g id="edge4" class="edge">
<title>Node1&#45;&gt;Node5</title>
<path fill="none" stroke="midnightblue" d="M445.61,-63.33C466.96,-53.7 496.33,-40.47 518.39,-30.52"/>
<polygon fill="midnightblue" stroke="midnightblue" points="444.09,-60.17 436.41,-67.48 446.97,-66.56 444.09,-60.17"/>
</g>
<!-- Node6 -->
<g id="node6" class="node">
<title>Node6</title>
<g id="a_node6"><a xlink:href="Zone__EF_8cpp.html" target="_top" xlink:title=" ">
<polygon fill="white" stroke="black" points="629,-6 629,-25 772,-25 772,-6 629,-6"/>
<text text-anchor="middle" x="700.5" y="-13" font-family="Helvetica,sans-Serif" font-size="10.00">src/EF/Zones/Zone_EF.cpp</text>
</a>
</g>
</g>
<!-- Node1&#45;&gt;Node6 -->
<g id="edge5" class="edge">
<title>Node1&#45;&gt;Node6</title>
<path fill="none" stroke="midnightblue" d="M467.91,-65.4C522.77,-53.87 609.42,-35.65 660.03,-25.01"/>
<polygon fill="midnightblue" stroke="midnightblue" points="467.11,-61.99 458.05,-67.48 468.55,-68.84 467.11,-61.99"/>
</g>
</g>
</svg>
