<?xml version="1.0" encoding="UTF-8" standalone="no"?>
<!DOCTYPE svg PUBLIC "-//W3C//DTD SVG 1.1//EN"
 "http://www.w3.org/Graphics/SVG/1.1/DTD/svg11.dtd">
<!-- Generated by graphviz version 2.43.0 (0)
 -->
<!-- Title: src/Kernel/Geometrie/Tetraedre.h Pages: 1 -->
<svg width="869pt" height="106pt"
 viewBox="0.00 0.00 869.00 106.00" xmlns="http://www.w3.org/2000/svg" xmlns:xlink="http://www.w3.org/1999/xlink">
<g id="graph0" class="graph" transform="scale(1 1) rotate(0) translate(4 102)">
<title>src/Kernel/Geometrie/Tetraedre.h</title>
<polygon fill="white" stroke="transparent" points="-4,4 -4,-102 865,-102 865,4 -4,4"/>
<!-- Node1 -->
<g id="node1" class="node">
<title>Node1</title>
<g id="a_node1"><a xlink:title=" ">
<polygon fill="#bfbfbf" stroke="black" points="371,-67.5 371,-97.5 490,-97.5 490,-67.5 371,-67.5"/>
<text text-anchor="start" x="379" y="-85.5" font-family="Helvetica,sans-Serif" font-size="10.00">src/Kernel/Geometrie</text>
<text text-anchor="middle" x="430.5" y="-74.5" font-family="Helvetica,sans-Serif" font-size="10.00">/Tetraedre.h</text>
</a>
</g>
</g>
<!-- Node2 -->
<g id="node2" class="node">
<title>Node2</title>
<g id="a_node2"><a xlink:href="Zone__EF_8cpp.html" target="_top" xlink:title=" ">
<polygon fill="white" stroke="black" points="0,-6 0,-25 143,-25 143,-6 0,-6"/>
<text text-anchor="middle" x="71.5" y="-13" font-family="Helvetica,sans-Serif" font-size="10.00">src/EF/Zones/Zone_EF.cpp</text>
</a>
</g>
</g>
<!-- Node1&#45;&gt;Node2 -->
<g id="edge1" class="edge">
<title>Node1&#45;&gt;Node2</title>
<path fill="none" stroke="midnightblue" d="M361.02,-68.93C304.57,-58.71 222.9,-43.93 151.5,-31 140.81,-29.06 129.31,-26.98 118.46,-25.01"/>
<polygon fill="midnightblue" stroke="midnightblue" points="360.44,-72.38 370.9,-70.72 361.69,-65.49 360.44,-72.38"/>
</g>
<!-- Node3 -->
<g id="node3" class="node">
<title>Node3</title>
<g id="a_node3"><a xlink:href="Tetraedre_8cpp.html" target="_top" xlink:title=" ">
<polygon fill="white" stroke="black" points="161,-0.5 161,-30.5 280,-30.5 280,-0.5 161,-0.5"/>
<text text-anchor="start" x="169" y="-18.5" font-family="Helvetica,sans-Serif" font-size="10.00">src/Kernel/Geometrie</text>
<text text-anchor="middle" x="220.5" y="-7.5" font-family="Helvetica,sans-Serif" font-size="10.00">/Tetraedre.cpp</text>
</a>
</g>
</g>
<!-- Node1&#45;&gt;Node3 -->
<g id="edge2" class="edge">
<title>Node1&#45;&gt;Node3</title>
<path fill="none" stroke="midnightblue" d="M375.4,-64.44C341.36,-53.91 298.2,-40.55 266.09,-30.61"/>
<polygon fill="midnightblue" stroke="midnightblue" points="374.6,-67.86 385.19,-67.48 376.67,-61.18 374.6,-67.86"/>
</g>
<!-- Node4 -->
<g id="node4" class="node">
<title>Node4</title>
<g id="a_node4"><a xlink:href="Zone__Poly__base_8cpp.html" target="_top" xlink:title=" ">
<polygon fill="white" stroke="black" points="298,-0.5 298,-30.5 417,-30.5 417,-0.5 298,-0.5"/>
<text text-anchor="start" x="306" y="-18.5" font-family="Helvetica,sans-Serif" font-size="10.00">src/Kernel/VF/Zones</text>
<text text-anchor="middle" x="357.5" y="-7.5" font-family="Helvetica,sans-Serif" font-size="10.00">/Zone_Poly_base.cpp</text>
</a>
</g>
</g>
<!-- Node1&#45;&gt;Node4 -->
<g id="edge3" class="edge">
<title>Node1&#45;&gt;Node4</title>
<path fill="none" stroke="midnightblue" d="M407.03,-60.6C396,-50.78 383.16,-39.34 373.31,-30.58"/>
<polygon fill="midnightblue" stroke="midnightblue" points="404.86,-63.36 414.66,-67.4 409.52,-58.13 404.86,-63.36"/>
</g>
<!-- Node5 -->
<g id="node5" class="node">
<title>Node5</title>
<g id="a_node5"><a xlink:href="Zone__PolyMAC_8cpp.html" target="_top" xlink:title=" ">
<polygon fill="white" stroke="black" points="435.5,-0.5 435.5,-30.5 573.5,-30.5 573.5,-0.5 435.5,-0.5"/>
<text text-anchor="start" x="443.5" y="-18.5" font-family="Helvetica,sans-Serif" font-size="10.00">src/PolyMAC/Zones/Zone</text>
<text text-anchor="middle" x="504.5" y="-7.5" font-family="Helvetica,sans-Serif" font-size="10.00">_PolyMAC.cpp</text>
</a>
</g>
</g>
<!-- Node1&#45;&gt;Node5 -->
<g id="edge4" class="edge">
<title>Node1&#45;&gt;Node5</title>
<path fill="none" stroke="midnightblue" d="M454.3,-60.6C465.47,-50.78 478.49,-39.34 488.47,-30.58"/>
<polygon fill="midnightblue" stroke="midnightblue" points="451.76,-58.17 446.56,-67.4 456.38,-63.43 451.76,-58.17"/>
</g>
<!-- Node6 -->
<g id="node6" class="node">
<title>Node6</title>
<g id="a_node6"><a xlink:href="Zone__PolyMAC__P0_8cpp.html" target="_top" xlink:title=" ">
<polygon fill="white" stroke="black" points="591.5,-0.5 591.5,-30.5 729.5,-30.5 729.5,-0.5 591.5,-0.5"/>
<text text-anchor="start" x="599.5" y="-18.5" font-family="Helvetica,sans-Serif" font-size="10.00">src/PolyMAC/Zones/Zone</text>
<text text-anchor="middle" x="660.5" y="-7.5" font-family="Helvetica,sans-Serif" font-size="10.00">_PolyMAC_P0.cpp</text>
</a>
</g>
</g>
<!-- Node1&#45;&gt;Node6 -->
<g id="edge5" class="edge">
<title>Node1&#45;&gt;Node6</title>
<path fill="none" stroke="midnightblue" d="M489.89,-64.71C527.32,-54.14 575.1,-40.63 610.57,-30.61"/>
<polygon fill="midnightblue" stroke="midnightblue" points="488.79,-61.39 480.12,-67.48 490.7,-68.12 488.79,-61.39"/>
</g>
<!-- Node7 -->
<g id="node7" class="node">
<title>Node7</title>
<g id="a_node7"><a xlink:href="Zone__VEF_8cpp.html" target="_top" xlink:title=" ">
<polygon fill="white" stroke="black" points="748,-0.5 748,-30.5 861,-30.5 861,-0.5 748,-0.5"/>
<text text-anchor="start" x="756" y="-18.5" font-family="Helvetica,sans-Serif" font-size="10.00">src/VEF/Zones/Zone</text>
<text text-anchor="middle" x="804.5" y="-7.5" font-family="Helvetica,sans-Serif" font-size="10.00">_VEF.cpp</text>
</a>
</g>
</g>
<!-- Node1&#45;&gt;Node7 -->
<g id="edge6" class="edge">
<title>Node1&#45;&gt;Node7</title>
<path fill="none" stroke="midnightblue" d="M500.14,-71.17C562.69,-61.64 656.96,-46.63 738.5,-31 741.5,-30.43 744.56,-29.82 747.66,-29.19"/>
<polygon fill="midnightblue" stroke="midnightblue" points="499.36,-67.75 490,-72.71 500.41,-74.67 499.36,-67.75"/>
</g>
</g>
</svg>
