<?xml version="1.0" encoding="UTF-8" standalone="no"?>
<!DOCTYPE svg PUBLIC "-//W3C//DTD SVG 1.1//EN"
 "http://www.w3.org/Graphics/SVG/1.1/DTD/svg11.dtd">
<!-- Generated by graphviz version 2.43.0 (0)
 -->
<!-- Title: src/MAIN/the_main.cpp Pages: 1 -->
<svg width="1100pt" height="924pt"
 viewBox="0.00 0.00 1100.00 924.00" xmlns="http://www.w3.org/2000/svg" xmlns:xlink="http://www.w3.org/1999/xlink">
<g id="graph0" class="graph" transform="scale(1 1) rotate(0) translate(4 920)">
<title>src/MAIN/the_main.cpp</title>
<polygon fill="white" stroke="transparent" points="-4,4 -4,-920 1096,-920 1096,4 -4,4"/>
<!-- Node1 -->
<g id="node1" class="node">
<title>Node1</title>
<g id="a_node1"><a xlink:title=" ">
<polygon fill="#bfbfbf" stroke="black" points="349.5,-896.5 349.5,-915.5 478.5,-915.5 478.5,-896.5 349.5,-896.5"/>
<text text-anchor="middle" x="414" y="-903.5" font-family="Helvetica,sans-Serif" font-size="10.00">src/MAIN/the_main.cpp</text>
</a>
</g>
</g>
<!-- Node2 -->
<g id="node2" class="node">
<title>Node2</title>
<g id="a_node2"><a xlink:href="MAIN_8h.html" target="_top" xlink:title=" ">
<polygon fill="white" stroke="black" points="347,-840.5 347,-859.5 399,-859.5 399,-840.5 347,-840.5"/>
<text text-anchor="middle" x="373" y="-847.5" font-family="Helvetica,sans-Serif" font-size="10.00">MAIN.h</text>
</a>
</g>
</g>
<!-- Node1&#45;&gt;Node2 -->
<g id="edge1" class="edge">
<title>Node1&#45;&gt;Node2</title>
<path fill="none" stroke="midnightblue" d="M407.23,-896.08C401.44,-888.46 392.94,-877.26 385.86,-867.94"/>
<polygon fill="midnightblue" stroke="midnightblue" points="388.48,-865.6 379.64,-859.75 382.9,-869.83 388.48,-865.6"/>
</g>
<!-- Node3 -->
<g id="node3" class="node">
<title>Node3</title>
<g id="a_node3"><a xlink:href="mon__main_8h.html" target="_top" xlink:title=" ">
<polygon fill="white" stroke="black" points="417.5,-840.5 417.5,-859.5 494.5,-859.5 494.5,-840.5 417.5,-840.5"/>
<text text-anchor="middle" x="456" y="-847.5" font-family="Helvetica,sans-Serif" font-size="10.00">mon_main.h</text>
</a>
</g>
</g>
<!-- Node1&#45;&gt;Node3 -->
<g id="edge2" class="edge">
<title>Node1&#45;&gt;Node3</title>
<path fill="none" stroke="midnightblue" d="M420.94,-896.08C426.93,-888.38 435.75,-877.03 443.05,-867.65"/>
<polygon fill="midnightblue" stroke="midnightblue" points="445.82,-869.79 449.19,-859.75 440.29,-865.5 445.82,-869.79"/>
</g>
<!-- Node4 -->
<g id="node4" class="node">
<title>Node4</title>
<g id="a_node4"><a xlink:href="Process_8h.html" target="_top" xlink:title=" ">
<polygon fill="white" stroke="black" points="987.5,-56.5 987.5,-75.5 1050.5,-75.5 1050.5,-56.5 987.5,-56.5"/>
<text text-anchor="middle" x="1019" y="-63.5" font-family="Helvetica,sans-Serif" font-size="10.00">Process.h</text>
</a>
</g>
</g>
<!-- Node3&#45;&gt;Node4 -->
<g id="edge3" class="edge">
<title>Node3&#45;&gt;Node4</title>
<path fill="none" stroke="midnightblue" d="M494.83,-846.42C632.91,-836.73 1092,-799.93 1092,-739 1092,-739 1092,-739 1092,-177 1092,-137.78 1059.38,-101.84 1037.75,-82.32"/>
<polygon fill="midnightblue" stroke="midnightblue" points="1039.93,-79.58 1030.09,-75.67 1035.35,-84.87 1039.93,-79.58"/>
</g>
<!-- Node5 -->
<g id="node5" class="node">
<title>Node5</title>
<g id="a_node5"><a xlink:href="Interprete__bloc_8h.html" target="_top" xlink:title=" ">
<polygon fill="white" stroke="black" points="176.5,-784.5 176.5,-803.5 275.5,-803.5 275.5,-784.5 176.5,-784.5"/>
<text text-anchor="middle" x="226" y="-791.5" font-family="Helvetica,sans-Serif" font-size="10.00">Interprete_bloc.h</text>
</a>
</g>
</g>
<!-- Node3&#45;&gt;Node5 -->
<g id="edge4" class="edge">
<title>Node3&#45;&gt;Node5</title>
<path fill="none" stroke="midnightblue" d="M419.56,-840.44C379.6,-831.06 315.41,-815.99 272.02,-805.8"/>
<polygon fill="midnightblue" stroke="midnightblue" points="272.81,-802.39 262.27,-803.52 271.21,-809.21 272.81,-802.39"/>
</g>
<!-- Node39 -->
<g id="node39" class="node">
<title>Node39</title>
<g id="a_node39"><a xlink:href="Comm__Group_8h.html" target="_top" xlink:title=" ">
<polygon fill="white" stroke="black" points="410,-560.5 410,-579.5 502,-579.5 502,-560.5 410,-560.5"/>
<text text-anchor="middle" x="456" y="-567.5" font-family="Helvetica,sans-Serif" font-size="10.00">Comm_Group.h</text>
</a>
</g>
</g>
<!-- Node3&#45;&gt;Node39 -->
<g id="edge54" class="edge">
<title>Node3&#45;&gt;Node39</title>
<path fill="none" stroke="midnightblue" d="M456,-840.44C456,-821.94 456,-776.81 456,-739 456,-739 456,-739 456,-681 456,-648.95 456,-611.64 456,-589.75"/>
<polygon fill="midnightblue" stroke="midnightblue" points="459.5,-589.56 456,-579.56 452.5,-589.56 459.5,-589.56"/>
</g>
<!-- Node6 -->
<g id="node6" class="node">
<title>Node6</title>
<g id="a_node6"><a xlink:href="Interprete_8h.html" target="_top" xlink:title=" ">
<polygon fill="white" stroke="black" points="228,-728.5 228,-747.5 302,-747.5 302,-728.5 228,-728.5"/>
<text text-anchor="middle" x="265" y="-735.5" font-family="Helvetica,sans-Serif" font-size="10.00">Interprete.h</text>
</a>
</g>
</g>
<!-- Node5&#45;&gt;Node6 -->
<g id="edge5" class="edge">
<title>Node5&#45;&gt;Node6</title>
<path fill="none" stroke="midnightblue" d="M232.44,-784.08C237.95,-776.46 246.03,-765.26 252.76,-755.94"/>
<polygon fill="midnightblue" stroke="midnightblue" points="255.66,-757.91 258.68,-747.75 249.99,-753.81 255.66,-757.91"/>
</g>
<!-- Node30 -->
<g id="node30" class="node">
<title>Node30</title>
<g id="a_node30"><a xlink:href="Noms_8h.html" target="_top" xlink:title=" ">
<polygon fill="white" stroke="black" points="76,-728.5 76,-747.5 130,-747.5 130,-728.5 76,-728.5"/>
<text text-anchor="middle" x="103" y="-735.5" font-family="Helvetica,sans-Serif" font-size="10.00">Noms.h</text>
</a>
</g>
</g>
<!-- Node5&#45;&gt;Node30 -->
<g id="edge38" class="edge">
<title>Node5&#45;&gt;Node30</title>
<path fill="none" stroke="midnightblue" d="M206.51,-784.44C186.36,-775.6 154.68,-761.69 131.67,-751.59"/>
<polygon fill="midnightblue" stroke="midnightblue" points="132.96,-748.33 122.4,-747.52 130.15,-754.74 132.96,-748.33"/>
</g>
<!-- Node38 -->
<g id="node38" class="node">
<title>Node38</title>
<g id="a_node38"><a xlink:href="liste_8h.html" target="_top" xlink:title=" ">
<polygon fill="white" stroke="black" points="162.5,-728.5 162.5,-747.5 209.5,-747.5 209.5,-728.5 162.5,-728.5"/>
<text text-anchor="middle" x="186" y="-735.5" font-family="Helvetica,sans-Serif" font-size="10.00">liste.h</text>
</a>
</g>
</g>
<!-- Node5&#45;&gt;Node38 -->
<g id="edge52" class="edge">
<title>Node5&#45;&gt;Node38</title>
<path fill="none" stroke="midnightblue" d="M219.39,-784.08C213.74,-776.46 205.46,-765.26 198.55,-755.94"/>
<polygon fill="midnightblue" stroke="midnightblue" points="201.25,-753.7 192.48,-747.75 195.62,-757.87 201.25,-753.7"/>
</g>
<!-- Node7 -->
<g id="node7" class="node">
<title>Node7</title>
<g id="a_node7"><a xlink:href="Ref_8h.html" target="_top" xlink:title=" ">
<polygon fill="white" stroke="black" points="243.5,-672.5 243.5,-691.5 284.5,-691.5 284.5,-672.5 243.5,-672.5"/>
<text text-anchor="middle" x="264" y="-679.5" font-family="Helvetica,sans-Serif" font-size="10.00">Ref.h</text>
</a>
</g>
</g>
<!-- Node6&#45;&gt;Node7 -->
<g id="edge6" class="edge">
<title>Node6&#45;&gt;Node7</title>
<path fill="none" stroke="midnightblue" d="M264.83,-728.08C264.7,-721.01 264.52,-710.86 264.35,-701.99"/>
<polygon fill="midnightblue" stroke="midnightblue" points="267.85,-701.68 264.16,-691.75 260.85,-701.81 267.85,-701.68"/>
</g>
<!-- Node8 -->
<g id="node8" class="node">
<title>Node8</title>
<g id="a_node8"><a xlink:href="MacRef_8h.html" target="_top" xlink:title=" ">
<polygon fill="white" stroke="black" points="232,-616.5 232,-635.5 294,-635.5 294,-616.5 232,-616.5"/>
<text text-anchor="middle" x="263" y="-623.5" font-family="Helvetica,sans-Serif" font-size="10.00">MacRef.h</text>
</a>
</g>
</g>
<!-- Node7&#45;&gt;Node8 -->
<g id="edge7" class="edge">
<title>Node7&#45;&gt;Node8</title>
<path fill="none" stroke="midnightblue" d="M263.83,-672.08C263.7,-665.01 263.52,-654.86 263.35,-645.99"/>
<polygon fill="midnightblue" stroke="midnightblue" points="266.85,-645.68 263.16,-635.75 259.85,-645.81 266.85,-645.68"/>
</g>
<!-- Node9 -->
<g id="node9" class="node">
<title>Node9</title>
<g id="a_node9"><a xlink:href="Ref___8h.html" target="_top" xlink:title=" ">
<polygon fill="white" stroke="black" points="238.5,-504.5 238.5,-523.5 285.5,-523.5 285.5,-504.5 238.5,-504.5"/>
<text text-anchor="middle" x="262" y="-511.5" font-family="Helvetica,sans-Serif" font-size="10.00">Ref_.h</text>
</a>
</g>
</g>
<!-- Node8&#45;&gt;Node9 -->
<g id="edge8" class="edge">
<title>Node8&#45;&gt;Node9</title>
<path fill="none" stroke="midnightblue" d="M262.92,-616.37C262.76,-598.62 262.39,-557.67 262.17,-533.6"/>
<polygon fill="midnightblue" stroke="midnightblue" points="265.67,-533.56 262.08,-523.59 258.67,-533.62 265.67,-533.56"/>
</g>
<!-- Node10 -->
<g id="node10" class="node">
<title>Node10</title>
<g id="a_node10"><a xlink:href="O__U__Ptr_8h.html" target="_top" xlink:title=" ">
<polygon fill="white" stroke="black" points="277,-280.5 277,-299.5 341,-299.5 341,-280.5 277,-280.5"/>
<text text-anchor="middle" x="309" y="-287.5" font-family="Helvetica,sans-Serif" font-size="10.00">O_U_Ptr.h</text>
</a>
</g>
</g>
<!-- Node9&#45;&gt;Node10 -->
<g id="edge9" class="edge">
<title>Node9&#45;&gt;Node10</title>
<path fill="none" stroke="midnightblue" d="M261.59,-504.23C260.63,-477.92 259.76,-397.65 281,-336 284.44,-326.01 290.43,-315.93 295.98,-307.85"/>
<polygon fill="midnightblue" stroke="midnightblue" points="298.87,-309.84 301.91,-299.69 293.2,-305.72 298.87,-309.84"/>
</g>
<!-- Node28 -->
<g id="node28" class="node">
<title>Node28</title>
<g id="a_node28"><a xlink:href="Nom_8h.html" target="_top" xlink:title=" ">
<polygon fill="white" stroke="black" points="146.5,-448.5 146.5,-467.5 195.5,-467.5 195.5,-448.5 146.5,-448.5"/>
<text text-anchor="middle" x="171" y="-455.5" font-family="Helvetica,sans-Serif" font-size="10.00">Nom.h</text>
</a>
</g>
</g>
<!-- Node9&#45;&gt;Node28 -->
<g id="edge34" class="edge">
<title>Node9&#45;&gt;Node28</title>
<path fill="none" stroke="midnightblue" d="M247.38,-504.32C233.05,-495.82 210.99,-482.73 194.25,-472.8"/>
<polygon fill="midnightblue" stroke="midnightblue" points="195.97,-469.75 185.58,-467.65 192.4,-475.77 195.97,-469.75"/>
</g>
<!-- Node11 -->
<g id="node11" class="node">
<title>Node11</title>
<g id="a_node11"><a xlink:href="Objet__U_8h.html" target="_top" xlink:title=" ">
<polygon fill="white" stroke="black" points="449.5,-224.5 449.5,-243.5 514.5,-243.5 514.5,-224.5 449.5,-224.5"/>
<text text-anchor="middle" x="482" y="-231.5" font-family="Helvetica,sans-Serif" font-size="10.00">Objet_U.h</text>
</a>
</g>
</g>
<!-- Node10&#45;&gt;Node11 -->
<g id="edge10" class="edge">
<title>Node10&#45;&gt;Node11</title>
<path fill="none" stroke="midnightblue" d="M336.41,-280.44C365.77,-271.28 412.52,-256.69 445.1,-246.52"/>
<polygon fill="midnightblue" stroke="midnightblue" points="446.21,-249.84 454.72,-243.52 444.13,-243.16 446.21,-249.84"/>
</g>
<!-- Node11&#45;&gt;Node4 -->
<g id="edge33" class="edge">
<title>Node11&#45;&gt;Node4</title>
<path fill="none" stroke="midnightblue" d="M514.78,-233.5C596.64,-233.29 814.08,-223.5 962,-132 981.48,-119.95 997.98,-99.18 1008.14,-84.36"/>
<polygon fill="midnightblue" stroke="midnightblue" points="1011.31,-85.91 1013.87,-75.63 1005.46,-82.07 1011.31,-85.91"/>
</g>
<!-- Node12 -->
<g id="node12" class="node">
<title>Node12</title>
<g id="a_node12"><a xlink:title=" ">
<polygon fill="white" stroke="#bfbfbf" points="123,-56.5 123,-75.5 179,-75.5 179,-56.5 123,-56.5"/>
<text text-anchor="middle" x="151" y="-63.5" font-family="Helvetica,sans-Serif" font-size="10.00">assert.h</text>
</a>
</g>
</g>
<!-- Node11&#45;&gt;Node12 -->
<g id="edge11" class="edge">
<title>Node11&#45;&gt;Node12</title>
<path fill="none" stroke="midnightblue" d="M462.29,-224.48C423.86,-207.73 336.44,-168.91 265,-132 232.8,-115.36 196.6,-94.3 173.8,-80.74"/>
<polygon fill="midnightblue" stroke="midnightblue" points="175.57,-77.72 165.19,-75.59 171.98,-83.73 175.57,-77.72"/>
</g>
<!-- Node13 -->
<g id="node13" class="node">
<title>Node13</title>
<g id="a_node13"><a xlink:href="DecBaseInst_8h.html" target="_top" xlink:title=" ">
<polygon fill="white" stroke="black" points="439,-168.5 439,-187.5 525,-187.5 525,-168.5 439,-168.5"/>
<text text-anchor="middle" x="482" y="-175.5" font-family="Helvetica,sans-Serif" font-size="10.00">DecBaseInst.h</text>
</a>
</g>
</g>
<!-- Node11&#45;&gt;Node13 -->
<g id="edge12" class="edge">
<title>Node11&#45;&gt;Node13</title>
<path fill="none" stroke="midnightblue" d="M482,-224.08C482,-217.01 482,-206.86 482,-197.99"/>
<polygon fill="midnightblue" stroke="midnightblue" points="485.5,-197.75 482,-187.75 478.5,-197.75 485.5,-197.75"/>
</g>
<!-- Node18 -->
<g id="node18" class="node">
<title>Node18</title>
<g id="a_node18"><a xlink:href="EntreeSortie_8h.html" target="_top" xlink:title=" ">
<polygon fill="white" stroke="black" points="654,-168.5 654,-187.5 740,-187.5 740,-168.5 654,-168.5"/>
<text text-anchor="middle" x="697" y="-175.5" font-family="Helvetica,sans-Serif" font-size="10.00">EntreeSortie.h</text>
</a>
</g>
</g>
<!-- Node11&#45;&gt;Node18 -->
<g id="edge18" class="edge">
<title>Node11&#45;&gt;Node18</title>
<path fill="none" stroke="midnightblue" d="M514.65,-224.8C551.66,-215.5 612.16,-200.31 653.23,-189.99"/>
<polygon fill="midnightblue" stroke="midnightblue" points="654.13,-193.38 662.97,-187.55 652.42,-186.59 654.13,-193.38"/>
</g>
<!-- Node14 -->
<g id="node14" class="node">
<title>Node14</title>
<g id="a_node14"><a xlink:href="Cast_8h.html" target="_top" xlink:title=" ">
<polygon fill="white" stroke="black" points="496.5,-56.5 496.5,-75.5 543.5,-75.5 543.5,-56.5 496.5,-56.5"/>
<text text-anchor="middle" x="520" y="-63.5" font-family="Helvetica,sans-Serif" font-size="10.00">Cast.h</text>
</a>
</g>
</g>
<!-- Node13&#45;&gt;Node14 -->
<g id="edge13" class="edge">
<title>Node13&#45;&gt;Node14</title>
<path fill="none" stroke="midnightblue" d="M484.72,-168.12C488.6,-155.57 496.02,-131.92 503,-112 506.11,-103.12 509.77,-93.34 512.9,-85.18"/>
<polygon fill="midnightblue" stroke="midnightblue" points="516.27,-86.17 516.62,-75.58 509.74,-83.64 516.27,-86.17"/>
</g>
<!-- Node15 -->
<g id="node15" class="node">
<title>Node15</title>
<g id="a_node15"><a xlink:href="Type__info_8h.html" target="_top" xlink:title=" ">
<polygon fill="white" stroke="black" points="274,-112.5 274,-131.5 346,-131.5 346,-112.5 274,-112.5"/>
<text text-anchor="middle" x="310" y="-119.5" font-family="Helvetica,sans-Serif" font-size="10.00">Type_info.h</text>
</a>
</g>
</g>
<!-- Node13&#45;&gt;Node15 -->
<g id="edge14" class="edge">
<title>Node13&#45;&gt;Node15</title>
<path fill="none" stroke="midnightblue" d="M454.75,-168.44C425.56,-159.28 379.08,-144.69 346.69,-134.52"/>
<polygon fill="midnightblue" stroke="midnightblue" points="347.72,-131.17 337.13,-131.52 345.62,-137.85 347.72,-131.17"/>
</g>
<!-- Node16 -->
<g id="node16" class="node">
<title>Node16</title>
<g id="a_node16"><a xlink:href="Declare__Base_8h.html" target="_top" xlink:title=" ">
<polygon fill="white" stroke="black" points="364,-112.5 364,-131.5 456,-131.5 456,-112.5 364,-112.5"/>
<text text-anchor="middle" x="410" y="-119.5" font-family="Helvetica,sans-Serif" font-size="10.00">Declare_Base.h</text>
</a>
</g>
</g>
<!-- Node13&#45;&gt;Node16 -->
<g id="edge15" class="edge">
<title>Node13&#45;&gt;Node16</title>
<path fill="none" stroke="midnightblue" d="M470.43,-168.32C459.58,-160.18 443.12,-147.84 430.12,-138.09"/>
<polygon fill="midnightblue" stroke="midnightblue" points="431.88,-135.03 421.78,-131.83 427.68,-140.63 431.88,-135.03"/>
</g>
<!-- Node17 -->
<g id="node17" class="node">
<title>Node17</title>
<g id="a_node17"><a xlink:href="Declare__Inst_8h.html" target="_top" xlink:title=" ">
<polygon fill="white" stroke="black" points="512,-112.5 512,-131.5 598,-131.5 598,-112.5 512,-112.5"/>
<text text-anchor="middle" x="555" y="-119.5" font-family="Helvetica,sans-Serif" font-size="10.00">Declare_Inst.h</text>
</a>
</g>
</g>
<!-- Node13&#45;&gt;Node17 -->
<g id="edge16" class="edge">
<title>Node13&#45;&gt;Node17</title>
<path fill="none" stroke="midnightblue" d="M493.73,-168.32C504.84,-160.11 521.74,-147.6 534.98,-137.81"/>
<polygon fill="midnightblue" stroke="midnightblue" points="537.1,-140.59 543.06,-131.83 532.94,-134.97 537.1,-140.59"/>
</g>
<!-- Node17&#45;&gt;Node14 -->
<g id="edge17" class="edge">
<title>Node17&#45;&gt;Node14</title>
<path fill="none" stroke="midnightblue" d="M549.22,-112.08C544.33,-104.53 537.17,-93.49 531.17,-84.23"/>
<polygon fill="midnightblue" stroke="midnightblue" points="534.05,-82.24 525.67,-75.75 528.17,-86.05 534.05,-82.24"/>
</g>
<!-- Node19 -->
<g id="node19" class="node">
<title>Node19</title>
<g id="a_node19"><a xlink:href="Entree_8h.html" target="_top" xlink:title=" ">
<polygon fill="white" stroke="black" points="784.5,-112.5 784.5,-131.5 841.5,-131.5 841.5,-112.5 784.5,-112.5"/>
<text text-anchor="middle" x="813" y="-119.5" font-family="Helvetica,sans-Serif" font-size="10.00">Entree.h</text>
</a>
</g>
</g>
<!-- Node18&#45;&gt;Node19 -->
<g id="edge19" class="edge">
<title>Node18&#45;&gt;Node19</title>
<path fill="none" stroke="midnightblue" d="M715.38,-168.44C734.22,-159.68 763.73,-145.94 785.38,-135.86"/>
<polygon fill="midnightblue" stroke="midnightblue" points="787.12,-138.91 794.71,-131.52 784.16,-132.56 787.12,-138.91"/>
</g>
<!-- Node25 -->
<g id="node25" class="node">
<title>Node25</title>
<g id="a_node25"><a xlink:href="Sortie_8h.html" target="_top" xlink:title=" ">
<polygon fill="white" stroke="black" points="712,-112.5 712,-131.5 766,-131.5 766,-112.5 712,-112.5"/>
<text text-anchor="middle" x="739" y="-119.5" font-family="Helvetica,sans-Serif" font-size="10.00">Sortie.h</text>
</a>
</g>
</g>
<!-- Node18&#45;&gt;Node25 -->
<g id="edge27" class="edge">
<title>Node18&#45;&gt;Node25</title>
<path fill="none" stroke="midnightblue" d="M703.94,-168.08C709.93,-160.38 718.75,-149.03 726.05,-139.65"/>
<polygon fill="midnightblue" stroke="midnightblue" points="728.82,-141.79 732.19,-131.75 723.29,-137.5 728.82,-141.79"/>
</g>
<!-- Node27 -->
<g id="node27" class="node">
<title>Node27</title>
<g id="a_node27"><a xlink:href="Separateur_8h.html" target="_top" xlink:title=" ">
<polygon fill="white" stroke="black" points="616,-112.5 616,-131.5 694,-131.5 694,-112.5 616,-112.5"/>
<text text-anchor="middle" x="655" y="-119.5" font-family="Helvetica,sans-Serif" font-size="10.00">Separateur.h</text>
</a>
</g>
</g>
<!-- Node18&#45;&gt;Node27 -->
<g id="edge32" class="edge">
<title>Node18&#45;&gt;Node27</title>
<path fill="none" stroke="midnightblue" d="M690.06,-168.08C684.07,-160.38 675.25,-149.03 667.95,-139.65"/>
<polygon fill="midnightblue" stroke="midnightblue" points="670.71,-137.5 661.81,-131.75 665.18,-141.79 670.71,-137.5"/>
</g>
<!-- Node19&#45;&gt;Node4 -->
<g id="edge24" class="edge">
<title>Node19&#45;&gt;Node4</title>
<path fill="none" stroke="midnightblue" d="M841.64,-113.49C876.91,-104.25 937.07,-88.48 977.42,-77.9"/>
<polygon fill="midnightblue" stroke="midnightblue" points="978.44,-81.25 987.22,-75.33 976.66,-74.48 978.44,-81.25"/>
</g>
<!-- Node19&#45;&gt;Node12 -->
<g id="edge23" class="edge">
<title>Node19&#45;&gt;Node12</title>
<path fill="none" stroke="midnightblue" d="M784.46,-113.72C781.28,-113.07 778.08,-112.47 775,-112 554.88,-78.22 287.09,-69.68 189.18,-67.62"/>
<polygon fill="midnightblue" stroke="midnightblue" points="189.23,-64.12 179.17,-67.42 189.09,-71.12 189.23,-64.12"/>
</g>
<!-- Node20 -->
<g id="node20" class="node">
<title>Node20</title>
<g id="a_node20"><a xlink:title=" ">
<polygon fill="white" stroke="#bfbfbf" points="736,-56.5 736,-75.5 786,-75.5 786,-56.5 736,-56.5"/>
<text text-anchor="middle" x="761" y="-63.5" font-family="Helvetica,sans-Serif" font-size="10.00">stdio.h</text>
</a>
</g>
</g>
<!-- Node19&#45;&gt;Node20 -->
<g id="edge20" class="edge">
<title>Node19&#45;&gt;Node20</title>
<path fill="none" stroke="midnightblue" d="M804.41,-112.08C796.84,-104.22 785.62,-92.57 776.49,-83.08"/>
<polygon fill="midnightblue" stroke="midnightblue" points="778.88,-80.53 769.43,-75.75 773.84,-85.38 778.88,-80.53"/>
</g>
<!-- Node21 -->
<g id="node21" class="node">
<title>Node21</title>
<g id="a_node21"><a xlink:title=" ">
<polygon fill="white" stroke="#bfbfbf" points="672,-56.5 672,-75.5 718,-75.5 718,-56.5 672,-56.5"/>
<text text-anchor="middle" x="695" y="-63.5" font-family="Helvetica,sans-Serif" font-size="10.00">cstdio</text>
</a>
</g>
</g>
<!-- Node19&#45;&gt;Node21 -->
<g id="edge21" class="edge">
<title>Node19&#45;&gt;Node21</title>
<path fill="none" stroke="midnightblue" d="M794.3,-112.44C775.06,-103.64 744.85,-89.81 722.8,-79.72"/>
<polygon fill="midnightblue" stroke="midnightblue" points="724.16,-76.5 713.61,-75.52 721.25,-82.86 724.16,-76.5"/>
</g>
<!-- Node22 -->
<g id="node22" class="node">
<title>Node22</title>
<g id="a_node22"><a xlink:title=" ">
<polygon fill="white" stroke="#bfbfbf" points="804,-56.5 804,-75.5 864,-75.5 864,-56.5 804,-56.5"/>
<text text-anchor="middle" x="834" y="-63.5" font-family="Helvetica,sans-Serif" font-size="10.00">iostream</text>
</a>
</g>
</g>
<!-- Node19&#45;&gt;Node22 -->
<g id="edge22" class="edge">
<title>Node19&#45;&gt;Node22</title>
<path fill="none" stroke="midnightblue" d="M816.47,-112.08C819.31,-104.77 823.43,-94.18 826.96,-85.1"/>
<polygon fill="midnightblue" stroke="midnightblue" points="830.23,-86.34 830.6,-75.75 823.71,-83.8 830.23,-86.34"/>
</g>
<!-- Node23 -->
<g id="node23" class="node">
<title>Node23</title>
<g id="a_node23"><a xlink:href="arch_8h.html" target="_top" xlink:title=" ">
<polygon fill="white" stroke="black" points="882.5,-56.5 882.5,-75.5 929.5,-75.5 929.5,-56.5 882.5,-56.5"/>
<text text-anchor="middle" x="906" y="-63.5" font-family="Helvetica,sans-Serif" font-size="10.00">arch.h</text>
</a>
</g>
</g>
<!-- Node19&#45;&gt;Node23 -->
<g id="edge25" class="edge">
<title>Node19&#45;&gt;Node23</title>
<path fill="none" stroke="midnightblue" d="M827.94,-112.32C842.59,-103.82 865.13,-90.73 882.24,-80.8"/>
<polygon fill="midnightblue" stroke="midnightblue" points="884.2,-83.7 891.1,-75.65 880.69,-77.65 884.2,-83.7"/>
</g>
<!-- Node24 -->
<g id="node24" class="node">
<title>Node24</title>
<g id="a_node24"><a xlink:href="generique_8h.html" target="_top" xlink:title=" ">
<polygon fill="white" stroke="black" points="869,-0.5 869,-19.5 943,-19.5 943,-0.5 869,-0.5"/>
<text text-anchor="middle" x="906" y="-7.5" font-family="Helvetica,sans-Serif" font-size="10.00">generique.h</text>
</a>
</g>
</g>
<!-- Node23&#45;&gt;Node24 -->
<g id="edge26" class="edge">
<title>Node23&#45;&gt;Node24</title>
<path fill="none" stroke="midnightblue" d="M906,-56.08C906,-49.01 906,-38.86 906,-29.99"/>
<polygon fill="midnightblue" stroke="midnightblue" points="909.5,-29.75 906,-19.75 902.5,-29.75 909.5,-29.75"/>
</g>
<!-- Node25&#45;&gt;Node12 -->
<g id="edge29" class="edge">
<title>Node25&#45;&gt;Node12</title>
<path fill="none" stroke="midnightblue" d="M711.97,-113.74C708.96,-113.08 705.92,-112.48 703,-112 511.58,-80.49 279.01,-70.7 189.06,-67.96"/>
<polygon fill="midnightblue" stroke="midnightblue" points="189.15,-64.46 179.06,-67.67 188.95,-71.46 189.15,-64.46"/>
</g>
<!-- Node25&#45;&gt;Node22 -->
<g id="edge28" class="edge">
<title>Node25&#45;&gt;Node22</title>
<path fill="none" stroke="midnightblue" d="M754.26,-112.32C769.22,-103.82 792.25,-90.73 809.73,-80.8"/>
<polygon fill="midnightblue" stroke="midnightblue" points="811.81,-83.64 818.77,-75.65 808.35,-77.55 811.81,-83.64"/>
</g>
<!-- Node25&#45;&gt;Node23 -->
<g id="edge30" class="edge">
<title>Node25&#45;&gt;Node23</title>
<path fill="none" stroke="midnightblue" d="M765.46,-112.44C794.51,-103.05 841.19,-87.96 872.71,-77.77"/>
<polygon fill="midnightblue" stroke="midnightblue" points="873.92,-81.05 882.36,-74.64 871.77,-74.39 873.92,-81.05"/>
</g>
<!-- Node26 -->
<g id="node26" class="node">
<title>Node26</title>
<g id="a_node26"><a xlink:title=" ">
<polygon fill="white" stroke="#bfbfbf" points="604,-56.5 604,-75.5 648,-75.5 648,-56.5 604,-56.5"/>
<text text-anchor="middle" x="626" y="-63.5" font-family="Helvetica,sans-Serif" font-size="10.00">string</text>
</a>
</g>
</g>
<!-- Node25&#45;&gt;Node26 -->
<g id="edge31" class="edge">
<title>Node25&#45;&gt;Node26</title>
<path fill="none" stroke="midnightblue" d="M721.09,-112.44C702.75,-103.68 673.99,-89.94 652.91,-79.86"/>
<polygon fill="midnightblue" stroke="midnightblue" points="654.35,-76.67 643.82,-75.52 651.33,-82.99 654.35,-76.67"/>
</g>
<!-- Node28&#45;&gt;Node11 -->
<g id="edge35" class="edge">
<title>Node28&#45;&gt;Node11</title>
<path fill="none" stroke="midnightblue" d="M178.32,-448.41C185.62,-439.62 196.86,-425.39 205,-412 238.77,-356.45 216.9,-320.18 268,-280 294.14,-259.44 384.74,-245.94 439.32,-239.47"/>
<polygon fill="midnightblue" stroke="midnightblue" points="439.87,-242.93 449.4,-238.31 439.06,-235.98 439.87,-242.93"/>
</g>
<!-- Node28&#45;&gt;Node26 -->
<g id="edge37" class="edge">
<title>Node28&#45;&gt;Node26</title>
<path fill="none" stroke="midnightblue" d="M161.71,-448.39C153.42,-440.02 141.86,-426.48 137,-412 134.17,-403.57 135.11,-400.69 137,-392 166.11,-258.3 154.68,-192.95 265,-112 265.42,-111.69 505.78,-81.89 594.01,-70.96"/>
<polygon fill="midnightblue" stroke="midnightblue" points="594.5,-74.43 603.99,-69.73 593.64,-67.48 594.5,-74.43"/>
</g>
<!-- Node29 -->
<g id="node29" class="node">
<title>Node29</title>
<g id="a_node29"><a xlink:title=" ">
<polygon fill="white" stroke="#bfbfbf" points="146,-392.5 146,-411.5 196,-411.5 196,-392.5 146,-392.5"/>
<text text-anchor="middle" x="171" y="-399.5" font-family="Helvetica,sans-Serif" font-size="10.00">cstring</text>
</a>
</g>
</g>
<!-- Node28&#45;&gt;Node29 -->
<g id="edge36" class="edge">
<title>Node28&#45;&gt;Node29</title>
<path fill="none" stroke="midnightblue" d="M171,-448.08C171,-441.01 171,-430.86 171,-421.99"/>
<polygon fill="midnightblue" stroke="midnightblue" points="174.5,-421.75 171,-411.75 167.5,-421.75 174.5,-421.75"/>
</g>
<!-- Node31 -->
<g id="node31" class="node">
<title>Node31</title>
<g id="a_node31"><a xlink:href="Vect_8h.html" target="_top" xlink:title=" ">
<polygon fill="white" stroke="black" points="52.5,-672.5 52.5,-691.5 99.5,-691.5 99.5,-672.5 52.5,-672.5"/>
<text text-anchor="middle" x="76" y="-679.5" font-family="Helvetica,sans-Serif" font-size="10.00">Vect.h</text>
</a>
</g>
</g>
<!-- Node30&#45;&gt;Node31 -->
<g id="edge39" class="edge">
<title>Node30&#45;&gt;Node31</title>
<path fill="none" stroke="midnightblue" d="M98.54,-728.08C94.85,-720.69 89.48,-709.95 84.91,-700.81"/>
<polygon fill="midnightblue" stroke="midnightblue" points="87.98,-699.13 80.38,-691.75 81.72,-702.26 87.98,-699.13"/>
</g>
<!-- Node32 -->
<g id="node32" class="node">
<title>Node32</title>
<g id="a_node32"><a xlink:href="MacVect_8h.html" target="_top" xlink:title=" ">
<polygon fill="white" stroke="black" points="36.5,-616.5 36.5,-635.5 103.5,-635.5 103.5,-616.5 36.5,-616.5"/>
<text text-anchor="middle" x="70" y="-623.5" font-family="Helvetica,sans-Serif" font-size="10.00">MacVect.h</text>
</a>
</g>
</g>
<!-- Node31&#45;&gt;Node32 -->
<g id="edge40" class="edge">
<title>Node31&#45;&gt;Node32</title>
<path fill="none" stroke="midnightblue" d="M75.01,-672.08C74.21,-664.93 73.07,-654.64 72.08,-645.69"/>
<polygon fill="midnightblue" stroke="midnightblue" points="75.56,-645.3 70.97,-635.75 68.6,-646.08 75.56,-645.3"/>
</g>
<!-- Node32&#45;&gt;Node12 -->
<g id="edge42" class="edge">
<title>Node32&#45;&gt;Node12</title>
<path fill="none" stroke="midnightblue" d="M56.35,-616.25C44.8,-608.17 28.63,-595.15 19,-580 2.86,-554.6 0,-545.1 0,-515 0,-515 0,-515 0,-177 0,-121.07 68.53,-90.57 113.25,-76.63"/>
<polygon fill="midnightblue" stroke="midnightblue" points="114.36,-79.95 122.95,-73.74 112.37,-73.24 114.36,-79.95"/>
</g>
<!-- Node32&#45;&gt;Node28 -->
<g id="edge41" class="edge">
<title>Node32&#45;&gt;Node28</title>
<path fill="none" stroke="midnightblue" d="M79.28,-616.33C88.17,-607.7 101.58,-593.79 111,-580 112.6,-577.66 145.9,-510.06 162.19,-476.94"/>
<polygon fill="midnightblue" stroke="midnightblue" points="165.37,-478.39 166.64,-467.88 159.09,-475.31 165.37,-478.39"/>
</g>
<!-- Node33 -->
<g id="node33" class="node">
<title>Node33</title>
<g id="a_node33"><a xlink:href="vect__impl_8h.html" target="_top" xlink:title=" ">
<polygon fill="white" stroke="black" points="28,-560.5 28,-579.5 102,-579.5 102,-560.5 28,-560.5"/>
<text text-anchor="middle" x="65" y="-567.5" font-family="Helvetica,sans-Serif" font-size="10.00">vect_impl.h</text>
</a>
</g>
</g>
<!-- Node32&#45;&gt;Node33 -->
<g id="edge43" class="edge">
<title>Node32&#45;&gt;Node33</title>
<path fill="none" stroke="midnightblue" d="M69.17,-616.08C68.52,-609.01 67.58,-598.86 66.76,-589.99"/>
<polygon fill="midnightblue" stroke="midnightblue" points="70.22,-589.39 65.81,-579.75 63.25,-590.03 70.22,-589.39"/>
</g>
<!-- Node33&#45;&gt;Node12 -->
<g id="edge45" class="edge">
<title>Node33&#45;&gt;Node12</title>
<path fill="none" stroke="midnightblue" d="M63.56,-560.47C60.58,-542.02 54,-497 54,-459 54,-459 54,-459 54,-177 54,-145.89 60.12,-135.93 80,-112 91.25,-98.46 107.65,-87.7 121.86,-80.09"/>
<polygon fill="midnightblue" stroke="midnightblue" points="123.47,-83.2 130.8,-75.55 120.3,-76.96 123.47,-83.2"/>
</g>
<!-- Node33&#45;&gt;Node28 -->
<g id="edge44" class="edge">
<title>Node33&#45;&gt;Node28</title>
<path fill="none" stroke="midnightblue" d="M71.04,-560.09C80.06,-547.09 97.93,-522.44 116,-504 126.76,-493.01 140.09,-482.05 150.93,-473.7"/>
<polygon fill="midnightblue" stroke="midnightblue" points="153.12,-476.43 158.99,-467.61 148.9,-470.85 153.12,-476.43"/>
</g>
<!-- Node34 -->
<g id="node34" class="node">
<title>Node34</title>
<g id="a_node34"><a xlink:href="DerOu___8h.html" target="_top" xlink:title=" ">
<polygon fill="white" stroke="black" points="158,-504.5 158,-523.5 220,-523.5 220,-504.5 158,-504.5"/>
<text text-anchor="middle" x="189" y="-511.5" font-family="Helvetica,sans-Serif" font-size="10.00">DerOu_.h</text>
</a>
</g>
</g>
<!-- Node33&#45;&gt;Node34 -->
<g id="edge46" class="edge">
<title>Node33&#45;&gt;Node34</title>
<path fill="none" stroke="midnightblue" d="M84.65,-560.44C104.96,-551.6 136.9,-537.69 160.1,-527.59"/>
<polygon fill="midnightblue" stroke="midnightblue" points="161.67,-530.72 169.44,-523.52 158.88,-524.3 161.67,-530.72"/>
</g>
<!-- Node34&#45;&gt;Node28 -->
<g id="edge51" class="edge">
<title>Node34&#45;&gt;Node28</title>
<path fill="none" stroke="midnightblue" d="M186.03,-504.08C183.62,-496.85 180.14,-486.41 177.13,-477.4"/>
<polygon fill="midnightblue" stroke="midnightblue" points="180.4,-476.13 173.92,-467.75 173.76,-478.34 180.4,-476.13"/>
</g>
<!-- Node35 -->
<g id="node35" class="node">
<title>Node35</title>
<g id="a_node35"><a xlink:href="Deriv_8h.html" target="_top" xlink:title=" ">
<polygon fill="white" stroke="black" points="300.5,-448.5 300.5,-467.5 351.5,-467.5 351.5,-448.5 300.5,-448.5"/>
<text text-anchor="middle" x="326" y="-455.5" font-family="Helvetica,sans-Serif" font-size="10.00">Deriv.h</text>
</a>
</g>
</g>
<!-- Node34&#45;&gt;Node35 -->
<g id="edge47" class="edge">
<title>Node34&#45;&gt;Node35</title>
<path fill="none" stroke="midnightblue" d="M210.71,-504.44C233.35,-495.52 269.07,-481.44 294.75,-471.32"/>
<polygon fill="midnightblue" stroke="midnightblue" points="296.37,-474.44 304.39,-467.52 293.81,-467.93 296.37,-474.44"/>
</g>
<!-- Node36 -->
<g id="node36" class="node">
<title>Node36</title>
<g id="a_node36"><a xlink:href="MacDeriv_8h.html" target="_top" xlink:title=" ">
<polygon fill="white" stroke="black" points="290.5,-392.5 290.5,-411.5 361.5,-411.5 361.5,-392.5 290.5,-392.5"/>
<text text-anchor="middle" x="326" y="-399.5" font-family="Helvetica,sans-Serif" font-size="10.00">MacDeriv.h</text>
</a>
</g>
</g>
<!-- Node35&#45;&gt;Node36 -->
<g id="edge48" class="edge">
<title>Node35&#45;&gt;Node36</title>
<path fill="none" stroke="midnightblue" d="M326,-448.08C326,-441.01 326,-430.86 326,-421.99"/>
<polygon fill="midnightblue" stroke="midnightblue" points="329.5,-421.75 326,-411.75 322.5,-421.75 329.5,-421.75"/>
</g>
<!-- Node37 -->
<g id="node37" class="node">
<title>Node37</title>
<g id="a_node37"><a xlink:href="Deriv___8h.html" target="_top" xlink:title=" ">
<polygon fill="white" stroke="black" points="290.5,-336.5 290.5,-355.5 347.5,-355.5 347.5,-336.5 290.5,-336.5"/>
<text text-anchor="middle" x="319" y="-343.5" font-family="Helvetica,sans-Serif" font-size="10.00">Deriv_.h</text>
</a>
</g>
</g>
<!-- Node36&#45;&gt;Node37 -->
<g id="edge49" class="edge">
<title>Node36&#45;&gt;Node37</title>
<path fill="none" stroke="midnightblue" d="M324.84,-392.08C323.92,-384.93 322.58,-374.64 321.42,-365.69"/>
<polygon fill="midnightblue" stroke="midnightblue" points="324.89,-365.22 320.13,-355.75 317.95,-366.12 324.89,-365.22"/>
</g>
<!-- Node37&#45;&gt;Node10 -->
<g id="edge50" class="edge">
<title>Node37&#45;&gt;Node10</title>
<path fill="none" stroke="midnightblue" d="M317.35,-336.08C316.02,-328.93 314.12,-318.64 312.46,-309.69"/>
<polygon fill="midnightblue" stroke="midnightblue" points="315.88,-308.95 310.62,-299.75 309,-310.22 315.88,-308.95"/>
</g>
<!-- Node38&#45;&gt;Node34 -->
<g id="edge53" class="edge">
<title>Node38&#45;&gt;Node34</title>
<path fill="none" stroke="midnightblue" d="M186.12,-728.3C186.56,-695.63 188.12,-579.87 188.74,-533.96"/>
<polygon fill="midnightblue" stroke="midnightblue" points="192.24,-533.93 188.88,-523.88 185.25,-533.84 192.24,-533.93"/>
</g>
<!-- Node39&#45;&gt;Node12 -->
<g id="edge55" class="edge">
<title>Node39&#45;&gt;Node12</title>
<path fill="none" stroke="midnightblue" d="M454.98,-560.39C450.15,-522.86 426.47,-371.4 350,-280 330.29,-256.44 317.03,-260.31 291,-244 252.04,-219.58 238.18,-218.76 204,-188 180.27,-166.64 171.42,-161.41 159,-132 152.84,-117.42 151.01,-99.47 150.63,-86.14"/>
<polygon fill="midnightblue" stroke="midnightblue" points="154.13,-85.79 150.59,-75.8 147.13,-85.81 154.13,-85.79"/>
</g>
<!-- Node40 -->
<g id="node40" class="node">
<title>Node40</title>
<g id="a_node40"><a xlink:href="TRUSTArray_8h.html" target="_top" xlink:title=" ">
<polygon fill="white" stroke="black" points="683,-448.5 683,-467.5 765,-467.5 765,-448.5 683,-448.5"/>
<text text-anchor="middle" x="724" y="-455.5" font-family="Helvetica,sans-Serif" font-size="10.00">TRUSTArray.h</text>
</a>
</g>
</g>
<!-- Node39&#45;&gt;Node40 -->
<g id="edge56" class="edge">
<title>Node39&#45;&gt;Node40</title>
<path fill="none" stroke="midnightblue" d="M477.03,-560.37C524.19,-541.01 638.57,-494.06 693.53,-471.51"/>
<polygon fill="midnightblue" stroke="midnightblue" points="695.15,-474.63 703.07,-467.59 692.49,-468.15 695.15,-474.63"/>
</g>
<!-- Node54 -->
<g id="node54" class="node">
<title>Node54</title>
<g id="a_node54"><a xlink:href="Deriv__Comm__Group_8h.html" target="_top" xlink:title=" ">
<polygon fill="white" stroke="black" points="304,-504.5 304,-523.5 428,-523.5 428,-504.5 304,-504.5"/>
<text text-anchor="middle" x="366" y="-511.5" font-family="Helvetica,sans-Serif" font-size="10.00">Deriv_Comm_Group.h</text>
</a>
</g>
</g>
<!-- Node39&#45;&gt;Node54 -->
<g id="edge79" class="edge">
<title>Node39&#45;&gt;Node54</title>
<path fill="none" stroke="midnightblue" d="M441.54,-560.32C427.5,-551.9 405.95,-538.97 389.46,-529.07"/>
<polygon fill="midnightblue" stroke="midnightblue" points="390.8,-525.8 380.42,-523.65 387.2,-531.8 390.8,-525.8"/>
</g>
<!-- Node41 -->
<g id="node41" class="node">
<title>Node41</title>
<g id="a_node41"><a xlink:href="TRUSTIterator_8h.html" target="_top" xlink:title=" ">
<polygon fill="white" stroke="black" points="859.5,-112.5 859.5,-131.5 952.5,-131.5 952.5,-112.5 859.5,-112.5"/>
<text text-anchor="middle" x="906" y="-119.5" font-family="Helvetica,sans-Serif" font-size="10.00">TRUSTIterator.h</text>
</a>
</g>
</g>
<!-- Node40&#45;&gt;Node41 -->
<g id="edge57" class="edge">
<title>Node40&#45;&gt;Node41</title>
<path fill="none" stroke="midnightblue" d="M765.19,-451.46C791.69,-445.83 824.97,-434.53 846,-412 866.54,-390 865,-377.1 865,-347 865,-347 865,-347 865,-233 865,-198.52 882.91,-161.56 895.06,-140.47"/>
<polygon fill="midnightblue" stroke="midnightblue" points="898.16,-142.09 900.3,-131.71 892.16,-138.49 898.16,-142.09"/>
</g>
<!-- Node42 -->
<g id="node42" class="node">
<title>Node42</title>
<g id="a_node42"><a xlink:href="VTRUSTdata_8h.html" target="_top" xlink:title=" ">
<polygon fill="white" stroke="black" points="505,-392.5 505,-411.5 591,-411.5 591,-392.5 505,-392.5"/>
<text text-anchor="middle" x="548" y="-399.5" font-family="Helvetica,sans-Serif" font-size="10.00">VTRUSTdata.h</text>
</a>
</g>
</g>
<!-- Node40&#45;&gt;Node42 -->
<g id="edge60" class="edge">
<title>Node40&#45;&gt;Node42</title>
<path fill="none" stroke="midnightblue" d="M696.11,-448.44C666.25,-439.28 618.69,-424.69 585.54,-414.52"/>
<polygon fill="midnightblue" stroke="midnightblue" points="586.34,-411.1 575.76,-411.52 584.29,-417.8 586.34,-411.1"/>
</g>
<!-- Node43 -->
<g id="node43" class="node">
<title>Node43</title>
<g id="a_node43"><a xlink:href="Array__base_8h.html" target="_top" xlink:title=" ">
<polygon fill="white" stroke="black" points="605,-336.5 605,-355.5 685,-355.5 685,-336.5 605,-336.5"/>
<text text-anchor="middle" x="645" y="-343.5" font-family="Helvetica,sans-Serif" font-size="10.00">Array_base.h</text>
</a>
</g>
</g>
<!-- Node40&#45;&gt;Node43 -->
<g id="edge69" class="edge">
<title>Node40&#45;&gt;Node43</title>
<path fill="none" stroke="midnightblue" d="M689.82,-448.49C671.01,-441.88 649.26,-430.6 638,-412 629.48,-397.92 632.86,-378.93 637.39,-365.11"/>
<polygon fill="midnightblue" stroke="midnightblue" points="640.68,-366.32 640.9,-355.72 634.12,-363.86 640.68,-366.32"/>
</g>
<!-- Node47 -->
<g id="node47" class="node">
<title>Node47</title>
<g id="a_node47"><a xlink:href="Double_8h.html" target="_top" xlink:title=" ">
<polygon fill="white" stroke="black" points="974,-280.5 974,-299.5 1034,-299.5 1034,-280.5 974,-280.5"/>
<text text-anchor="middle" x="1004" y="-287.5" font-family="Helvetica,sans-Serif" font-size="10.00">Double.h</text>
</a>
</g>
</g>
<!-- Node40&#45;&gt;Node47 -->
<g id="edge70" class="edge">
<title>Node40&#45;&gt;Node47</title>
<path fill="none" stroke="midnightblue" d="M765.17,-456.1C833.01,-453.68 963.83,-444.78 994,-412 1019.61,-384.18 1014.24,-335.94 1008.73,-309.56"/>
<polygon fill="midnightblue" stroke="midnightblue" points="1012.12,-308.66 1006.45,-299.71 1005.3,-310.24 1012.12,-308.66"/>
</g>
<!-- Node50 -->
<g id="node50" class="node">
<title>Node50</title>
<g id="a_node50"><a xlink:title=" ">
<polygon fill="white" stroke="#bfbfbf" points="647,-392.5 647,-411.5 697,-411.5 697,-392.5 647,-392.5"/>
<text text-anchor="middle" x="672" y="-399.5" font-family="Helvetica,sans-Serif" font-size="10.00">climits</text>
</a>
</g>
</g>
<!-- Node40&#45;&gt;Node50 -->
<g id="edge75" class="edge">
<title>Node40&#45;&gt;Node50</title>
<path fill="none" stroke="midnightblue" d="M715.41,-448.08C707.84,-440.22 696.62,-428.57 687.49,-419.08"/>
<polygon fill="midnightblue" stroke="midnightblue" points="689.88,-416.53 680.43,-411.75 684.84,-421.38 689.88,-416.53"/>
</g>
<!-- Node51 -->
<g id="node51" class="node">
<title>Node51</title>
<g id="a_node51"><a xlink:href="TRUSTArray__tools_8tpp.html" target="_top" xlink:title=" ">
<polygon fill="white" stroke="black" points="715,-392.5 715,-411.5 837,-411.5 837,-392.5 715,-392.5"/>
<text text-anchor="middle" x="776" y="-399.5" font-family="Helvetica,sans-Serif" font-size="10.00">TRUSTArray_tools.tpp</text>
</a>
</g>
</g>
<!-- Node40&#45;&gt;Node51 -->
<g id="edge76" class="edge">
<title>Node40&#45;&gt;Node51</title>
<path fill="none" stroke="midnightblue" d="M732.59,-448.08C740.16,-440.22 751.38,-428.57 760.51,-419.08"/>
<polygon fill="midnightblue" stroke="midnightblue" points="763.16,-421.38 767.57,-411.75 758.12,-416.53 763.16,-421.38"/>
</g>
<!-- Node52 -->
<g id="node52" class="node">
<title>Node52</title>
<g id="a_node52"><a xlink:href="TRUSTArray_8tpp.html" target="_top" xlink:title=" ">
<polygon fill="white" stroke="black" points="893,-392.5 893,-411.5 985,-411.5 985,-392.5 893,-392.5"/>
<text text-anchor="middle" x="939" y="-399.5" font-family="Helvetica,sans-Serif" font-size="10.00">TRUSTArray.tpp</text>
</a>
</g>
</g>
<!-- Node40&#45;&gt;Node52 -->
<g id="edge77" class="edge">
<title>Node40&#45;&gt;Node52</title>
<path fill="none" stroke="midnightblue" d="M758.07,-448.44C795.18,-439.12 854.66,-424.18 895.21,-414"/>
<polygon fill="midnightblue" stroke="midnightblue" points="896.25,-417.35 905.09,-411.52 894.54,-410.56 896.25,-417.35"/>
</g>
<!-- Node41&#45;&gt;Node22 -->
<g id="edge58" class="edge">
<title>Node41&#45;&gt;Node22</title>
<path fill="none" stroke="midnightblue" d="M894.43,-112.32C883.58,-104.18 867.12,-91.84 854.12,-82.09"/>
<polygon fill="midnightblue" stroke="midnightblue" points="855.88,-79.03 845.78,-75.83 851.68,-84.63 855.88,-79.03"/>
</g>
<!-- Node41&#45;&gt;Node23 -->
<g id="edge59" class="edge">
<title>Node41&#45;&gt;Node23</title>
<path fill="none" stroke="midnightblue" d="M906,-112.08C906,-105.01 906,-94.86 906,-85.99"/>
<polygon fill="midnightblue" stroke="midnightblue" points="909.5,-85.75 906,-75.75 902.5,-85.75 909.5,-85.75"/>
</g>
<!-- Node42&#45;&gt;Node12 -->
<g id="edge67" class="edge">
<title>Node42&#45;&gt;Node12</title>
<path fill="none" stroke="midnightblue" d="M510.02,-392.48C486.01,-385.65 455.41,-374.15 433,-356 401.58,-330.55 411.91,-308.26 383,-280 369.22,-266.53 251.42,-199.55 236,-188 206.02,-165.54 193.69,-163.23 173,-132 163.64,-117.88 157.89,-99.39 154.63,-85.75"/>
<polygon fill="midnightblue" stroke="midnightblue" points="157.98,-84.66 152.45,-75.62 151.13,-86.14 157.98,-84.66"/>
</g>
<!-- Node42&#45;&gt;Node43 -->
<g id="edge61" class="edge">
<title>Node42&#45;&gt;Node43</title>
<path fill="none" stroke="midnightblue" d="M563.58,-392.32C579,-383.74 602.81,-370.49 620.71,-360.52"/>
<polygon fill="midnightblue" stroke="midnightblue" points="622.42,-363.58 629.45,-355.65 619.01,-357.46 622.42,-363.58"/>
</g>
<!-- Node44 -->
<g id="node44" class="node">
<title>Node44</title>
<g id="a_node44"><a xlink:href="Memoire_8h.html" target="_top" xlink:title=" ">
<polygon fill="white" stroke="black" points="442.5,-336.5 442.5,-355.5 511.5,-355.5 511.5,-336.5 442.5,-336.5"/>
<text text-anchor="middle" x="477" y="-343.5" font-family="Helvetica,sans-Serif" font-size="10.00">Memoire.h</text>
</a>
</g>
</g>
<!-- Node42&#45;&gt;Node44 -->
<g id="edge63" class="edge">
<title>Node42&#45;&gt;Node44</title>
<path fill="none" stroke="midnightblue" d="M536.59,-392.32C525.89,-384.18 509.66,-371.84 496.84,-362.09"/>
<polygon fill="midnightblue" stroke="midnightblue" points="498.69,-359.1 488.61,-355.83 494.46,-364.67 498.69,-359.1"/>
</g>
<!-- Node46 -->
<g id="node46" class="node">
<title>Node46</title>
<g id="a_node46"><a xlink:title=" ">
<polygon fill="white" stroke="#bfbfbf" points="529.5,-336.5 529.5,-355.5 586.5,-355.5 586.5,-336.5 529.5,-336.5"/>
<text text-anchor="middle" x="558" y="-343.5" font-family="Helvetica,sans-Serif" font-size="10.00">typeinfo</text>
</a>
</g>
</g>
<!-- Node42&#45;&gt;Node46 -->
<g id="edge68" class="edge">
<title>Node42&#45;&gt;Node46</title>
<path fill="none" stroke="midnightblue" d="M549.65,-392.08C550.98,-384.93 552.88,-374.64 554.54,-365.69"/>
<polygon fill="midnightblue" stroke="midnightblue" points="558,-366.22 556.38,-355.75 551.12,-364.95 558,-366.22"/>
</g>
<!-- Node43&#45;&gt;Node11 -->
<g id="edge62" class="edge">
<title>Node43&#45;&gt;Node11</title>
<path fill="none" stroke="midnightblue" d="M632.21,-336.37C604.24,-317.49 537.4,-272.38 503.1,-249.24"/>
<polygon fill="midnightblue" stroke="midnightblue" points="504.98,-246.28 494.73,-243.59 501.06,-252.09 504.98,-246.28"/>
</g>
<!-- Node45 -->
<g id="node45" class="node">
<title>Node45</title>
<g id="a_node45"><a xlink:href="Memoire__ptr_8h.html" target="_top" xlink:title=" ">
<polygon fill="white" stroke="black" points="435.5,-280.5 435.5,-299.5 522.5,-299.5 522.5,-280.5 435.5,-280.5"/>
<text text-anchor="middle" x="479" y="-287.5" font-family="Helvetica,sans-Serif" font-size="10.00">Memoire_ptr.h</text>
</a>
</g>
</g>
<!-- Node44&#45;&gt;Node45 -->
<g id="edge64" class="edge">
<title>Node44&#45;&gt;Node45</title>
<path fill="none" stroke="midnightblue" d="M477.33,-336.08C477.59,-329.01 477.97,-318.86 478.3,-309.99"/>
<polygon fill="midnightblue" stroke="midnightblue" points="481.8,-309.87 478.68,-299.75 474.81,-309.61 481.8,-309.87"/>
</g>
<!-- Node45&#45;&gt;Node11 -->
<g id="edge65" class="edge">
<title>Node45&#45;&gt;Node11</title>
<path fill="none" stroke="midnightblue" d="M479.5,-280.08C479.89,-273.01 480.45,-262.86 480.95,-253.99"/>
<polygon fill="midnightblue" stroke="midnightblue" points="484.45,-253.93 481.51,-243.75 477.46,-253.54 484.45,-253.93"/>
</g>
<!-- Node45&#45;&gt;Node12 -->
<g id="edge66" class="edge">
<title>Node45&#45;&gt;Node12</title>
<path fill="none" stroke="midnightblue" d="M455.2,-280.45C403.02,-260.81 276.64,-208.21 194,-132 179.27,-118.42 167.2,-98.8 159.63,-84.68"/>
<polygon fill="midnightblue" stroke="midnightblue" points="162.62,-82.83 154.95,-75.53 156.39,-86.02 162.62,-82.83"/>
</g>
<!-- Node47&#45;&gt;Node11 -->
<g id="edge73" class="edge">
<title>Node47&#45;&gt;Node11</title>
<path fill="none" stroke="midnightblue" d="M973.68,-285.86C885.22,-276.71 627.25,-250.03 524.73,-239.42"/>
<polygon fill="midnightblue" stroke="midnightblue" points="525.04,-235.93 514.73,-238.39 524.32,-242.9 525.04,-235.93"/>
</g>
<!-- Node48 -->
<g id="node48" class="node">
<title>Node48</title>
<g id="a_node48"><a xlink:href="blas1_8h.html" target="_top" xlink:title=" ">
<polygon fill="white" stroke="black" points="1012,-168.5 1012,-187.5 1064,-187.5 1064,-168.5 1012,-168.5"/>
<text text-anchor="middle" x="1038" y="-175.5" font-family="Helvetica,sans-Serif" font-size="10.00">blas1.h</text>
</a>
</g>
</g>
<!-- Node47&#45;&gt;Node48 -->
<g id="edge71" class="edge">
<title>Node47&#45;&gt;Node48</title>
<path fill="none" stroke="midnightblue" d="M1006.97,-280.4C1010.07,-271.37 1015.02,-256.73 1019,-244 1023.88,-228.4 1029.06,-210.56 1032.78,-197.53"/>
<polygon fill="midnightblue" stroke="midnightblue" points="1036.16,-198.44 1035.52,-187.86 1029.43,-196.53 1036.16,-198.44"/>
</g>
<!-- Node49 -->
<g id="node49" class="node">
<title>Node49</title>
<g id="a_node49"><a xlink:title=" ">
<polygon fill="white" stroke="#bfbfbf" points="962.5,-224.5 962.5,-243.5 1009.5,-243.5 1009.5,-224.5 962.5,-224.5"/>
<text text-anchor="middle" x="986" y="-231.5" font-family="Helvetica,sans-Serif" font-size="10.00">cmath</text>
</a>
</g>
</g>
<!-- Node47&#45;&gt;Node49 -->
<g id="edge74" class="edge">
<title>Node47&#45;&gt;Node49</title>
<path fill="none" stroke="midnightblue" d="M1001.03,-280.08C998.62,-272.85 995.14,-262.41 992.13,-253.4"/>
<polygon fill="midnightblue" stroke="midnightblue" points="995.4,-252.13 988.92,-243.75 988.76,-254.34 995.4,-252.13"/>
</g>
<!-- Node48&#45;&gt;Node23 -->
<g id="edge72" class="edge">
<title>Node48&#45;&gt;Node23</title>
<path fill="none" stroke="midnightblue" d="M1028.24,-168.49C1013.86,-155.98 986.06,-131.95 962,-112 949.73,-101.82 935.75,-90.59 924.83,-81.89"/>
<polygon fill="midnightblue" stroke="midnightblue" points="926.82,-79.01 916.81,-75.53 922.47,-84.49 926.82,-79.01"/>
</g>
<!-- Node53 -->
<g id="node53" class="node">
<title>Node53</title>
<g id="a_node53"><a xlink:title=" ">
<polygon fill="white" stroke="#bfbfbf" points="912.5,-336.5 912.5,-355.5 965.5,-355.5 965.5,-336.5 912.5,-336.5"/>
<text text-anchor="middle" x="939" y="-343.5" font-family="Helvetica,sans-Serif" font-size="10.00">string.h</text>
</a>
</g>
</g>
<!-- Node52&#45;&gt;Node53 -->
<g id="edge78" class="edge">
<title>Node52&#45;&gt;Node53</title>
<path fill="none" stroke="midnightblue" d="M939,-392.08C939,-385.01 939,-374.86 939,-365.99"/>
<polygon fill="midnightblue" stroke="midnightblue" points="942.5,-365.75 939,-355.75 935.5,-365.75 942.5,-365.75"/>
</g>
<!-- Node54&#45;&gt;Node35 -->
<g id="edge80" class="edge">
<title>Node54&#45;&gt;Node35</title>
<path fill="none" stroke="midnightblue" d="M359.39,-504.08C353.74,-496.46 345.46,-485.26 338.55,-475.94"/>
<polygon fill="midnightblue" stroke="midnightblue" points="341.25,-473.7 332.48,-467.75 335.62,-477.87 341.25,-473.7"/>
</g>
</g>
</svg>
