<?xml version="1.0" encoding="UTF-8" standalone="no"?>
<!DOCTYPE svg PUBLIC "-//W3C//DTD SVG 1.1//EN"
 "http://www.w3.org/Graphics/SVG/1.1/DTD/svg11.dtd">
<!-- Generated by graphviz version 2.43.0 (0)
 -->
<!-- Title: src/ThHyd/Incompressible/Traitement_particulier/Traitement_particulier_NS_Pression.h Pages: 1 -->
<svg width="526pt" height="239pt"
 viewBox="0.00 0.00 526.00 239.00" xmlns="http://www.w3.org/2000/svg" xmlns:xlink="http://www.w3.org/1999/xlink">
<g id="graph0" class="graph" transform="scale(1 1) rotate(0) translate(4 235)">
<title>src/ThHyd/Incompressible/Traitement_particulier/Traitement_particulier_NS_Pression.h</title>
<polygon fill="white" stroke="transparent" points="-4,4 -4,-235 522,-235 522,4 -4,4"/>
<!-- Node1 -->
<g id="node1" class="node">
<title>Node1</title>
<g id="a_node1"><a xlink:title=" ">
<polygon fill="#bfbfbf" stroke="black" points="186.5,-178.5 186.5,-230.5 329.5,-230.5 329.5,-178.5 186.5,-178.5"/>
<text text-anchor="start" x="194.5" y="-218.5" font-family="Helvetica,sans-Serif" font-size="10.00">src/ThHyd/Incompressible</text>
<text text-anchor="start" x="194.5" y="-207.5" font-family="Helvetica,sans-Serif" font-size="10.00">/Traitement_particulier</text>
<text text-anchor="start" x="194.5" y="-196.5" font-family="Helvetica,sans-Serif" font-size="10.00">/Traitement_particulier</text>
<text text-anchor="middle" x="258" y="-185.5" font-family="Helvetica,sans-Serif" font-size="10.00">_NS_Pression.h</text>
</a>
</g>
</g>
<!-- Node2 -->
<g id="node2" class="node">
<title>Node2</title>
<g id="a_node2"><a xlink:href="Traitement__particulier__NS__Pression__VEF_8h.html" target="_top" xlink:title=" ">
<polygon fill="white" stroke="black" points="0,-100.5 0,-130.5 168,-130.5 168,-100.5 0,-100.5"/>
<text text-anchor="start" x="8" y="-118.5" font-family="Helvetica,sans-Serif" font-size="10.00">src/P1NCP1B/Traitement</text>
<text text-anchor="middle" x="84" y="-107.5" font-family="Helvetica,sans-Serif" font-size="10.00">_particulier_NS_Pression_VEF.h</text>
</a>
</g>
</g>
<!-- Node1&#45;&gt;Node2 -->
<g id="edge1" class="edge">
<title>Node1&#45;&gt;Node2</title>
<path fill="none" stroke="midnightblue" d="M198.36,-173.68C169.11,-159.05 135.27,-142.13 112.03,-130.52"/>
<polygon fill="midnightblue" stroke="midnightblue" points="197.16,-176.99 207.67,-178.34 200.29,-170.73 197.16,-176.99"/>
</g>
<!-- Node4 -->
<g id="node4" class="node">
<title>Node4</title>
<g id="a_node4"><a xlink:href="Traitement__particulier__NS__Pression_8cpp.html" target="_top" xlink:title=" ">
<polygon fill="white" stroke="black" points="186.5,-89.5 186.5,-141.5 329.5,-141.5 329.5,-89.5 186.5,-89.5"/>
<text text-anchor="start" x="194.5" y="-129.5" font-family="Helvetica,sans-Serif" font-size="10.00">src/ThHyd/Incompressible</text>
<text text-anchor="start" x="194.5" y="-118.5" font-family="Helvetica,sans-Serif" font-size="10.00">/Traitement_particulier</text>
<text text-anchor="start" x="194.5" y="-107.5" font-family="Helvetica,sans-Serif" font-size="10.00">/Traitement_particulier</text>
<text text-anchor="middle" x="258" y="-96.5" font-family="Helvetica,sans-Serif" font-size="10.00">_NS_Pression.cpp</text>
</a>
</g>
</g>
<!-- Node1&#45;&gt;Node4 -->
<g id="edge3" class="edge">
<title>Node1&#45;&gt;Node4</title>
<path fill="none" stroke="midnightblue" d="M258,-168.19C258,-159.28 258,-149.9 258,-141.61"/>
<polygon fill="midnightblue" stroke="midnightblue" points="254.5,-168.34 258,-178.34 261.5,-168.34 254.5,-168.34"/>
</g>
<!-- Node5 -->
<g id="node5" class="node">
<title>Node5</title>
<g id="a_node5"><a xlink:href="Traitement__particulier__NS__Pression__VDF_8h.html" target="_top" xlink:title=" ">
<polygon fill="white" stroke="black" points="348,-95 348,-136 518,-136 518,-95 348,-95"/>
<text text-anchor="start" x="356" y="-124" font-family="Helvetica,sans-Serif" font-size="10.00">src/VDF/Traitement</text>
<text text-anchor="start" x="356" y="-113" font-family="Helvetica,sans-Serif" font-size="10.00">_particulier/Traitement</text>
<text text-anchor="middle" x="433" y="-102" font-family="Helvetica,sans-Serif" font-size="10.00">_particulier_NS_Pression_VDF.h</text>
</a>
</g>
</g>
<!-- Node1&#45;&gt;Node5 -->
<g id="edge4" class="edge">
<title>Node1&#45;&gt;Node5</title>
<path fill="none" stroke="midnightblue" d="M317.68,-173.83C342.76,-161.36 371.23,-147.21 393.61,-136.08"/>
<polygon fill="midnightblue" stroke="midnightblue" points="316.01,-170.75 308.62,-178.34 319.13,-177.02 316.01,-170.75"/>
</g>
<!-- Node3 -->
<g id="node3" class="node">
<title>Node3</title>
<g id="a_node3"><a xlink:href="Traitement__particulier__NS__Pression__VEF_8cpp.html" target="_top" xlink:title=" ">
<polygon fill="white" stroke="black" points="15.5,-6 15.5,-47 152.5,-47 152.5,-6 15.5,-6"/>
<text text-anchor="start" x="23.5" y="-35" font-family="Helvetica,sans-Serif" font-size="10.00">src/P1NCP1B/Traitement</text>
<text text-anchor="start" x="23.5" y="-24" font-family="Helvetica,sans-Serif" font-size="10.00">_particulier_NS_Pression</text>
<text text-anchor="middle" x="84" y="-13" font-family="Helvetica,sans-Serif" font-size="10.00">_VEF.cpp</text>
</a>
</g>
</g>
<!-- Node2&#45;&gt;Node3 -->
<g id="edge2" class="edge">
<title>Node2&#45;&gt;Node3</title>
<path fill="none" stroke="midnightblue" d="M84,-90.04C84,-76.47 84,-59.81 84,-47.1"/>
<polygon fill="midnightblue" stroke="midnightblue" points="80.5,-90.13 84,-100.13 87.5,-90.13 80.5,-90.13"/>
</g>
<!-- Node6 -->
<g id="node6" class="node">
<title>Node6</title>
<g id="a_node6"><a xlink:href="Traitement__particulier__NS__Pression__VDF_8cpp.html" target="_top" xlink:title=" ">
<polygon fill="white" stroke="black" points="364.5,-0.5 364.5,-52.5 501.5,-52.5 501.5,-0.5 364.5,-0.5"/>
<text text-anchor="start" x="372.5" y="-40.5" font-family="Helvetica,sans-Serif" font-size="10.00">src/VDF/Traitement</text>
<text text-anchor="start" x="372.5" y="-29.5" font-family="Helvetica,sans-Serif" font-size="10.00">_particulier/Traitement</text>
<text text-anchor="start" x="372.5" y="-18.5" font-family="Helvetica,sans-Serif" font-size="10.00">_particulier_NS_Pression</text>
<text text-anchor="middle" x="433" y="-7.5" font-family="Helvetica,sans-Serif" font-size="10.00">_VDF.cpp</text>
</a>
</g>
</g>
<!-- Node5&#45;&gt;Node6 -->
<g id="edge5" class="edge">
<title>Node5&#45;&gt;Node6</title>
<path fill="none" stroke="midnightblue" d="M433,-84.51C433,-74.17 433,-62.71 433,-52.79"/>
<polygon fill="midnightblue" stroke="midnightblue" points="429.5,-84.76 433,-94.76 436.5,-84.76 429.5,-84.76"/>
</g>
</g>
</svg>
