<?xml version="1.0" encoding="UTF-8" standalone="no"?>
<!DOCTYPE svg PUBLIC "-//W3C//DTD SVG 1.1//EN"
 "http://www.w3.org/Graphics/SVG/1.1/DTD/svg11.dtd">
<!-- Generated by graphviz version 2.43.0 (0)
 -->
<!-- Title: src/ThSol/Traitement_particulier_Solide_base.h Pages: 1 -->
<svg width="2471pt" height="429pt"
 viewBox="0.00 0.00 2470.50 429.00" xmlns="http://www.w3.org/2000/svg" xmlns:xlink="http://www.w3.org/1999/xlink">
<g id="graph0" class="graph" transform="scale(1 1) rotate(0) translate(4 425)">
<title>src/ThSol/Traitement_particulier_Solide_base.h</title>
<polygon fill="white" stroke="transparent" points="-4,4 -4,-425 2466.5,-425 2466.5,4 -4,4"/>
<!-- Node1 -->
<g id="node1" class="node">
<title>Node1</title>
<g id="a_node1"><a xlink:title=" ">
<polygon fill="#bfbfbf" stroke="black" points="1980.5,-390.5 1980.5,-420.5 2124.5,-420.5 2124.5,-390.5 1980.5,-390.5"/>
<text text-anchor="start" x="1988.5" y="-408.5" font-family="Helvetica,sans-Serif" font-size="10.00">src/ThSol/Traitement</text>
<text text-anchor="middle" x="2052.5" y="-397.5" font-family="Helvetica,sans-Serif" font-size="10.00">_particulier_Solide_base.h</text>
</a>
</g>
</g>
<!-- Node2 -->
<g id="node2" class="node">
<title>Node2</title>
<g id="a_node2"><a xlink:href="Traitement__particulier__Solide_8h.html" target="_top" xlink:title=" ">
<polygon fill="white" stroke="black" points="1176.5,-323.5 1176.5,-353.5 1292.5,-353.5 1292.5,-323.5 1176.5,-323.5"/>
<text text-anchor="start" x="1184.5" y="-341.5" font-family="Helvetica,sans-Serif" font-size="10.00">src/ThSol/Traitement</text>
<text text-anchor="middle" x="1234.5" y="-330.5" font-family="Helvetica,sans-Serif" font-size="10.00">_particulier_Solide.h</text>
</a>
</g>
</g>
<!-- Node1&#45;&gt;Node2 -->
<g id="edge1" class="edge">
<title>Node1&#45;&gt;Node2</title>
<path fill="none" stroke="midnightblue" d="M1970.15,-397.96C1804.74,-384.81 1435.73,-355.49 1292.71,-344.13"/>
<polygon fill="midnightblue" stroke="midnightblue" points="1970.02,-401.46 1980.27,-398.76 1970.58,-394.48 1970.02,-401.46"/>
</g>
<!-- Node15 -->
<g id="node15" class="node">
<title>Node15</title>
<g id="a_node15"><a xlink:href="Traitement__particulier__Solide__base_8cpp.html" target="_top" xlink:title=" ">
<polygon fill="white" stroke="black" points="1975,-167.5 1975,-197.5 2130,-197.5 2130,-167.5 1975,-167.5"/>
<text text-anchor="start" x="1983" y="-185.5" font-family="Helvetica,sans-Serif" font-size="10.00">src/ThSol/Traitement</text>
<text text-anchor="middle" x="2052.5" y="-174.5" font-family="Helvetica,sans-Serif" font-size="10.00">_particulier_Solide_base.cpp</text>
</a>
</g>
</g>
<!-- Node1&#45;&gt;Node15 -->
<g id="edge25" class="edge">
<title>Node1&#45;&gt;Node15</title>
<path fill="none" stroke="midnightblue" d="M2052.5,-380.3C2052.5,-334.04 2052.5,-234.36 2052.5,-197.54"/>
<polygon fill="midnightblue" stroke="midnightblue" points="2049,-380.34 2052.5,-390.34 2056,-380.34 2049,-380.34"/>
</g>
<!-- Node25 -->
<g id="node25" class="node">
<title>Node25</title>
<g id="a_node25"><a xlink:href="Traitement__particulier__Solide__canal_8h.html" target="_top" xlink:title=" ">
<polygon fill="white" stroke="black" points="2144,-323.5 2144,-353.5 2291,-353.5 2291,-323.5 2144,-323.5"/>
<text text-anchor="start" x="2152" y="-341.5" font-family="Helvetica,sans-Serif" font-size="10.00">src/ThSol/Traitement</text>
<text text-anchor="middle" x="2217.5" y="-330.5" font-family="Helvetica,sans-Serif" font-size="10.00">_particulier_Solide_canal.h</text>
</a>
</g>
</g>
<!-- Node1&#45;&gt;Node25 -->
<g id="edge26" class="edge">
<title>Node1&#45;&gt;Node25</title>
<path fill="none" stroke="midnightblue" d="M2097.73,-386.68C2124.19,-376.26 2157.13,-363.28 2181.77,-353.58"/>
<polygon fill="midnightblue" stroke="midnightblue" points="2096.32,-383.47 2088.3,-390.4 2098.89,-389.99 2096.32,-383.47"/>
</g>
<!-- Node3 -->
<g id="node3" class="node">
<title>Node3</title>
<g id="a_node3"><a xlink:href="Conduction_8h.html" target="_top" xlink:title=" ">
<polygon fill="white" stroke="black" points="1170.5,-256.5 1170.5,-275.5 1298.5,-275.5 1298.5,-256.5 1170.5,-256.5"/>
<text text-anchor="middle" x="1234.5" y="-263.5" font-family="Helvetica,sans-Serif" font-size="10.00">src/ThSol/Conduction.h</text>
</a>
</g>
</g>
<!-- Node2&#45;&gt;Node3 -->
<g id="edge2" class="edge">
<title>Node2&#45;&gt;Node3</title>
<path fill="none" stroke="midnightblue" d="M1234.5,-313.09C1234.5,-300.21 1234.5,-285.2 1234.5,-275.89"/>
<polygon fill="midnightblue" stroke="midnightblue" points="1231,-313.23 1234.5,-323.23 1238,-313.23 1231,-313.23"/>
</g>
<!-- Node14 -->
<g id="node14" class="node">
<title>Node14</title>
<g id="a_node14"><a xlink:href="Traitement__particulier__Solide_8cpp.html" target="_top" xlink:title=" ">
<polygon fill="white" stroke="black" points="0,-167.5 0,-197.5 127,-197.5 127,-167.5 0,-167.5"/>
<text text-anchor="start" x="8" y="-185.5" font-family="Helvetica,sans-Serif" font-size="10.00">src/ThSol/Traitement</text>
<text text-anchor="middle" x="63.5" y="-174.5" font-family="Helvetica,sans-Serif" font-size="10.00">_particulier_Solide.cpp</text>
</a>
</g>
</g>
<!-- Node2&#45;&gt;Node14 -->
<g id="edge24" class="edge">
<title>Node2&#45;&gt;Node14</title>
<path fill="none" stroke="midnightblue" d="M1166.18,-334.82C992.12,-326.87 518.69,-298.07 135.5,-209 123.1,-206.12 109.88,-201.81 98.19,-197.55"/>
<polygon fill="midnightblue" stroke="midnightblue" points="1166.07,-338.32 1176.22,-335.28 1166.39,-331.33 1166.07,-338.32"/>
</g>
<!-- Node4 -->
<g id="node4" class="node">
<title>Node4</title>
<g id="a_node4"><a xlink:href="Op__Diff__VEFP1NCP1B__Face_8cpp.html" target="_top" xlink:title=" ">
<polygon fill="white" stroke="black" points="312.5,-167.5 312.5,-197.5 484.5,-197.5 484.5,-167.5 312.5,-167.5"/>
<text text-anchor="start" x="320.5" y="-185.5" font-family="Helvetica,sans-Serif" font-size="10.00">src/P1NCP1B/Operateurs</text>
<text text-anchor="middle" x="398.5" y="-174.5" font-family="Helvetica,sans-Serif" font-size="10.00">/Op_Diff_VEFP1NCP1B_Face.cpp</text>
</a>
</g>
</g>
<!-- Node3&#45;&gt;Node4 -->
<g id="edge3" class="edge">
<title>Node3&#45;&gt;Node4</title>
<path fill="none" stroke="midnightblue" d="M1159.91,-263.96C1025.67,-261.06 734.89,-250.15 493.5,-209 477.17,-206.22 459.58,-201.88 444.02,-197.57"/>
<polygon fill="midnightblue" stroke="midnightblue" points="1160.01,-267.46 1170.08,-264.17 1160.15,-260.46 1160.01,-267.46"/>
</g>
<!-- Node5 -->
<g id="node5" class="node">
<title>Node5</title>
<g id="a_node5"><a xlink:href="Zone__Cl__VEFP1B_8cpp.html" target="_top" xlink:title=" ">
<polygon fill="white" stroke="black" points="502.5,-167.5 502.5,-197.5 642.5,-197.5 642.5,-167.5 502.5,-167.5"/>
<text text-anchor="start" x="510.5" y="-185.5" font-family="Helvetica,sans-Serif" font-size="10.00">src/P1NCP1B/Zones/Zone</text>
<text text-anchor="middle" x="572.5" y="-174.5" font-family="Helvetica,sans-Serif" font-size="10.00">_Cl_VEFP1B.cpp</text>
</a>
</g>
</g>
<!-- Node3&#45;&gt;Node5 -->
<g id="edge4" class="edge">
<title>Node3&#45;&gt;Node5</title>
<path fill="none" stroke="midnightblue" d="M1159.98,-262.89C1048.55,-258.6 832.34,-245.88 652.5,-209 638.65,-206.16 623.81,-201.81 610.72,-197.5"/>
<polygon fill="midnightblue" stroke="midnightblue" points="1159.99,-266.39 1170.11,-263.27 1160.25,-259.4 1159.99,-266.39"/>
</g>
<!-- Node6 -->
<g id="node6" class="node">
<title>Node6</title>
<g id="a_node6"><a xlink:href="Conduction_8cpp.html" target="_top" xlink:title=" ">
<polygon fill="white" stroke="black" points="661,-173 661,-192 800,-192 800,-173 661,-173"/>
<text text-anchor="middle" x="730.5" y="-180" font-family="Helvetica,sans-Serif" font-size="10.00">src/ThSol/Conduction.cpp</text>
</a>
</g>
</g>
<!-- Node3&#45;&gt;Node6 -->
<g id="edge5" class="edge">
<title>Node3&#45;&gt;Node6</title>
<path fill="none" stroke="midnightblue" d="M1160.02,-259.3C1074.6,-251.82 930.72,-236.31 809.5,-209 790.24,-204.66 768.97,-197.66 753.35,-192.09"/>
<polygon fill="midnightblue" stroke="midnightblue" points="1159.88,-262.8 1170.14,-260.17 1160.48,-255.83 1159.88,-262.8"/>
</g>
<!-- Node7 -->
<g id="node7" class="node">
<title>Node7</title>
<g id="a_node7"><a xlink:href="Pb__Conduction_8h.html" target="_top" xlink:title=" ">
<polygon fill="white" stroke="black" points="818,-173 818,-192 963,-192 963,-173 818,-173"/>
<text text-anchor="middle" x="890.5" y="-180" font-family="Helvetica,sans-Serif" font-size="10.00">src/ThSol/Pb_Conduction.h</text>
</a>
</g>
</g>
<!-- Node3&#45;&gt;Node7 -->
<g id="edge6" class="edge">
<title>Node3&#45;&gt;Node7</title>
<path fill="none" stroke="midnightblue" d="M1178.36,-254.54C1125.07,-244.24 1042.88,-227.43 972.5,-209 953.32,-203.98 931.93,-197.29 915.81,-192.03"/>
<polygon fill="midnightblue" stroke="midnightblue" points="1177.81,-257.99 1188.29,-256.44 1179.13,-251.12 1177.81,-257.99"/>
</g>
<!-- Node13 -->
<g id="node13" class="node">
<title>Node13</title>
<g id="a_node13"><a xlink:href="Ref__Conduction_8cpp.html" target="_top" xlink:title=" ">
<polygon fill="white" stroke="black" points="981,-173 981,-192 1142,-192 1142,-173 981,-173"/>
<text text-anchor="middle" x="1061.5" y="-180" font-family="Helvetica,sans-Serif" font-size="10.00">src/ThSol/Ref_Conduction.cpp</text>
</a>
</g>
</g>
<!-- Node3&#45;&gt;Node13 -->
<g id="edge12" class="edge">
<title>Node3&#45;&gt;Node13</title>
<path fill="none" stroke="midnightblue" d="M1206.98,-252.03C1171.3,-235.23 1110.08,-206.39 1079.7,-192.08"/>
<polygon fill="midnightblue" stroke="midnightblue" points="1205.77,-255.34 1216.31,-256.43 1208.76,-249 1205.77,-255.34"/>
</g>
<!-- Node3&#45;&gt;Node14 -->
<g id="edge13" class="edge">
<title>Node3&#45;&gt;Node14</title>
<path fill="none" stroke="midnightblue" d="M1159.87,-262.45C928.88,-254.38 235.22,-228.76 135.5,-209 122.62,-206.45 108.94,-202.06 96.99,-197.63"/>
<polygon fill="midnightblue" stroke="midnightblue" points="1160.07,-265.96 1170.19,-262.81 1160.31,-258.96 1160.07,-265.96"/>
</g>
<!-- Node3&#45;&gt;Node15 -->
<g id="edge14" class="edge">
<title>Node3&#45;&gt;Node15</title>
<path fill="none" stroke="midnightblue" d="M1308.69,-264.41C1441.5,-262.22 1728.16,-252.38 1965.5,-209 1980.52,-206.25 1996.65,-201.93 2010.89,-197.61"/>
<polygon fill="midnightblue" stroke="midnightblue" points="1308.57,-260.91 1298.63,-264.56 1308.68,-267.91 1308.57,-260.91"/>
</g>
<!-- Node16 -->
<g id="node16" class="node">
<title>Node16</title>
<g id="a_node16"><a xlink:href="Traitement__particulier__Solide__canal_8cpp.html" target="_top" xlink:title=" ">
<polygon fill="white" stroke="black" points="2304.5,-167.5 2304.5,-197.5 2462.5,-197.5 2462.5,-167.5 2304.5,-167.5"/>
<text text-anchor="start" x="2312.5" y="-185.5" font-family="Helvetica,sans-Serif" font-size="10.00">src/ThSol/Traitement</text>
<text text-anchor="middle" x="2383.5" y="-174.5" font-family="Helvetica,sans-Serif" font-size="10.00">_particulier_Solide_canal.cpp</text>
</a>
</g>
</g>
<!-- Node3&#45;&gt;Node16 -->
<g id="edge15" class="edge">
<title>Node3&#45;&gt;Node16</title>
<path fill="none" stroke="midnightblue" d="M1308.78,-263.29C1517.31,-258.15 2105.24,-241.15 2295.5,-209 2311.03,-206.38 2327.71,-201.97 2342.32,-197.55"/>
<polygon fill="midnightblue" stroke="midnightblue" points="1308.46,-259.8 1298.55,-263.54 1308.63,-266.8 1308.46,-259.8"/>
</g>
<!-- Node17 -->
<g id="node17" class="node">
<title>Node17</title>
<g id="a_node17"><a xlink:href="Echange__contact__Colburn__VDF_8cpp.html" target="_top" xlink:title=" ">
<polygon fill="white" stroke="black" points="1160,-167.5 1160,-197.5 1309,-197.5 1309,-167.5 1160,-167.5"/>
<text text-anchor="start" x="1168" y="-185.5" font-family="Helvetica,sans-Serif" font-size="10.00">src/VDF/Cond_Lim/Echange</text>
<text text-anchor="middle" x="1234.5" y="-174.5" font-family="Helvetica,sans-Serif" font-size="10.00">_contact_Colburn_VDF.cpp</text>
</a>
</g>
</g>
<!-- Node3&#45;&gt;Node17 -->
<g id="edge16" class="edge">
<title>Node3&#45;&gt;Node17</title>
<path fill="none" stroke="midnightblue" d="M1234.5,-246.23C1234.5,-231.41 1234.5,-211.05 1234.5,-197.6"/>
<polygon fill="midnightblue" stroke="midnightblue" points="1231,-246.28 1234.5,-256.28 1238,-246.28 1231,-246.28"/>
</g>
<!-- Node18 -->
<g id="node18" class="node">
<title>Node18</title>
<g id="a_node18"><a xlink:href="Echange__contact__Correlation__VDF_8cpp.html" target="_top" xlink:title=" ">
<polygon fill="white" stroke="black" points="1327,-167.5 1327,-197.5 1488,-197.5 1488,-167.5 1327,-167.5"/>
<text text-anchor="start" x="1335" y="-185.5" font-family="Helvetica,sans-Serif" font-size="10.00">src/VDF/Cond_Lim/Echange</text>
<text text-anchor="middle" x="1407.5" y="-174.5" font-family="Helvetica,sans-Serif" font-size="10.00">_contact_Correlation_VDF.cpp</text>
</a>
</g>
</g>
<!-- Node3&#45;&gt;Node18 -->
<g id="edge17" class="edge">
<title>Node3&#45;&gt;Node18</title>
<path fill="none" stroke="midnightblue" d="M1261.79,-252.14C1293.37,-237.27 1345.18,-212.86 1377.76,-197.51"/>
<polygon fill="midnightblue" stroke="midnightblue" points="1260.24,-249 1252.69,-256.43 1263.23,-255.34 1260.24,-249"/>
</g>
<!-- Node19 -->
<g id="node19" class="node">
<title>Node19</title>
<g id="a_node19"><a xlink:href="Echange__contact__VDF__Plaque__Flux__Cte_8cpp.html" target="_top" xlink:title=" ">
<polygon fill="white" stroke="black" points="1506,-162 1506,-203 1655,-203 1655,-162 1506,-162"/>
<text text-anchor="start" x="1514" y="-191" font-family="Helvetica,sans-Serif" font-size="10.00">src/VDF/Cond_Lim/Echange</text>
<text text-anchor="start" x="1514" y="-180" font-family="Helvetica,sans-Serif" font-size="10.00">_contact_VDF_Plaque_Flux</text>
<text text-anchor="middle" x="1580.5" y="-169" font-family="Helvetica,sans-Serif" font-size="10.00">_Cte.cpp</text>
</a>
</g>
</g>
<!-- Node3&#45;&gt;Node19 -->
<g id="edge18" class="edge">
<title>Node3&#45;&gt;Node19</title>
<path fill="none" stroke="midnightblue" d="M1290.84,-254.5C1344.33,-244.18 1426.82,-227.34 1497.5,-209 1504.5,-207.18 1511.8,-205.15 1519.03,-203.05"/>
<polygon fill="midnightblue" stroke="midnightblue" points="1290.03,-251.09 1280.87,-256.41 1291.35,-257.96 1290.03,-251.09"/>
</g>
<!-- Node20 -->
<g id="node20" class="node">
<title>Node20</title>
<g id="a_node20"><a xlink:href="Source__Echange__Th__VDF_8cpp.html" target="_top" xlink:title=" ">
<polygon fill="white" stroke="black" points="1673,-162 1673,-203 1810,-203 1810,-162 1673,-162"/>
<text text-anchor="start" x="1681" y="-191" font-family="Helvetica,sans-Serif" font-size="10.00">src/VDF/Sources/Sources</text>
<text text-anchor="start" x="1681" y="-180" font-family="Helvetica,sans-Serif" font-size="10.00">_It_Eval/Source_Echange</text>
<text text-anchor="middle" x="1741.5" y="-169" font-family="Helvetica,sans-Serif" font-size="10.00">_Th_VDF.cpp</text>
</a>
</g>
</g>
<!-- Node3&#45;&gt;Node20 -->
<g id="edge19" class="edge">
<title>Node3&#45;&gt;Node20</title>
<path fill="none" stroke="midnightblue" d="M1308.78,-259.64C1395.1,-252.43 1541.43,-237.12 1664.5,-209 1671.78,-207.34 1679.34,-205.27 1686.76,-203.04"/>
<polygon fill="midnightblue" stroke="midnightblue" points="1308.24,-256.18 1298.56,-260.48 1308.81,-263.15 1308.24,-256.18"/>
</g>
<!-- Node21 -->
<g id="node21" class="node">
<title>Node21</title>
<g id="a_node21"><a xlink:href="Terme__Source__Solide__SWIFT__VDF_8cpp.html" target="_top" xlink:title=" ">
<polygon fill="white" stroke="black" points="1828.5,-162 1828.5,-203 1956.5,-203 1956.5,-162 1828.5,-162"/>
<text text-anchor="start" x="1836.5" y="-191" font-family="Helvetica,sans-Serif" font-size="10.00">src/VDF/Sources/Terme</text>
<text text-anchor="start" x="1836.5" y="-180" font-family="Helvetica,sans-Serif" font-size="10.00">_Source_Solide_SWIFT</text>
<text text-anchor="middle" x="1892.5" y="-169" font-family="Helvetica,sans-Serif" font-size="10.00">_VDF.cpp</text>
</a>
</g>
</g>
<!-- Node3&#45;&gt;Node21 -->
<g id="edge20" class="edge">
<title>Node3&#45;&gt;Node21</title>
<path fill="none" stroke="midnightblue" d="M1309.09,-263.58C1421.13,-260.17 1639.02,-248.55 1819.5,-209 1826.71,-207.42 1834.2,-205.34 1841.5,-203.05"/>
<polygon fill="midnightblue" stroke="midnightblue" points="1308.8,-260.09 1298.9,-263.88 1309,-267.09 1308.8,-260.09"/>
</g>
<!-- Node22 -->
<g id="node22" class="node">
<title>Node22</title>
<g id="a_node22"><a xlink:href="Traitement__particulier__Solide__canal__VDF_8cpp.html" target="_top" xlink:title=" ">
<polygon fill="white" stroke="black" points="2148.5,-156.5 2148.5,-208.5 2286.5,-208.5 2286.5,-156.5 2148.5,-156.5"/>
<text text-anchor="start" x="2156.5" y="-196.5" font-family="Helvetica,sans-Serif" font-size="10.00">src/VDF/Traitement</text>
<text text-anchor="start" x="2156.5" y="-185.5" font-family="Helvetica,sans-Serif" font-size="10.00">_particulier/Traitement</text>
<text text-anchor="start" x="2156.5" y="-174.5" font-family="Helvetica,sans-Serif" font-size="10.00">_particulier_Solide_canal</text>
<text text-anchor="middle" x="2217.5" y="-163.5" font-family="Helvetica,sans-Serif" font-size="10.00">_VDF.cpp</text>
</a>
</g>
</g>
<!-- Node3&#45;&gt;Node22 -->
<g id="edge21" class="edge">
<title>Node3&#45;&gt;Node22</title>
<path fill="none" stroke="midnightblue" d="M1308.8,-262.83C1495.54,-257 1980.94,-239.31 2139.5,-209 2142.44,-208.44 2145.42,-207.8 2148.42,-207.09"/>
<polygon fill="midnightblue" stroke="midnightblue" points="1308.68,-259.34 1298.79,-263.14 1308.9,-266.33 1308.68,-259.34"/>
</g>
<!-- Node23 -->
<g id="node23" class="node">
<title>Node23</title>
<g id="a_node23"><a xlink:href="Echange__contact__Correlation__VEF_8h.html" target="_top" xlink:title=" ">
<polygon fill="white" stroke="black" points="145,-167.5 145,-197.5 294,-197.5 294,-167.5 145,-167.5"/>
<text text-anchor="start" x="153" y="-185.5" font-family="Helvetica,sans-Serif" font-size="10.00">src/VEF/Cond_Lim/Echange</text>
<text text-anchor="middle" x="219.5" y="-174.5" font-family="Helvetica,sans-Serif" font-size="10.00">_contact_Correlation_VEF.h</text>
</a>
</g>
</g>
<!-- Node3&#45;&gt;Node23 -->
<g id="edge22" class="edge">
<title>Node3&#45;&gt;Node23</title>
<path fill="none" stroke="midnightblue" d="M1160.17,-262.78C969.68,-256.73 467.53,-238.41 303.5,-209 288.65,-206.34 272.72,-201.92 258.77,-197.5"/>
<polygon fill="midnightblue" stroke="midnightblue" points="1160.25,-266.28 1170.36,-263.1 1160.47,-259.29 1160.25,-266.28"/>
</g>
<!-- Node8 -->
<g id="node8" class="node">
<title>Node8</title>
<g id="a_node8"><a xlink:href="Problemes__Scalaires__Passifs_8h.html" target="_top" xlink:title=" ">
<polygon fill="white" stroke="black" points="716.5,-78.5 716.5,-119.5 886.5,-119.5 886.5,-78.5 716.5,-78.5"/>
<text text-anchor="start" x="724.5" y="-107.5" font-family="Helvetica,sans-Serif" font-size="10.00">src/ThHyd/Incompressible</text>
<text text-anchor="start" x="724.5" y="-96.5" font-family="Helvetica,sans-Serif" font-size="10.00">/Problems/Problemes_Scalaires</text>
<text text-anchor="middle" x="801.5" y="-85.5" font-family="Helvetica,sans-Serif" font-size="10.00">_Passifs.h</text>
</a>
</g>
</g>
<!-- Node7&#45;&gt;Node8 -->
<g id="edge7" class="edge">
<title>Node7&#45;&gt;Node8</title>
<path fill="none" stroke="midnightblue" d="M873.34,-165.78C859.01,-152.67 838.52,-133.9 823.08,-119.76"/>
<polygon fill="midnightblue" stroke="midnightblue" points="871.24,-168.61 880.98,-172.78 875.96,-163.44 871.24,-168.61"/>
</g>
<!-- Node10 -->
<g id="node10" class="node">
<title>Node10</title>
<g id="a_node10"><a xlink:href="SETS_8cpp.html" target="_top" xlink:title=" ">
<polygon fill="white" stroke="black" points="904.5,-84 904.5,-114 1052.5,-114 1052.5,-84 904.5,-84"/>
<text text-anchor="start" x="912.5" y="-102" font-family="Helvetica,sans-Serif" font-size="10.00">src/ThHyd/Multiphase</text>
<text text-anchor="middle" x="978.5" y="-91" font-family="Helvetica,sans-Serif" font-size="10.00">/Schemas_Temps/SETS.cpp</text>
</a>
</g>
</g>
<!-- Node7&#45;&gt;Node10 -->
<g id="edge9" class="edge">
<title>Node7&#45;&gt;Node10</title>
<path fill="none" stroke="midnightblue" d="M907.56,-165.7C923.72,-150.73 947.76,-128.47 963.28,-114.1"/>
<polygon fill="midnightblue" stroke="midnightblue" points="904.88,-163.42 899.92,-172.78 909.63,-168.55 904.88,-163.42"/>
</g>
<!-- Node11 -->
<g id="node11" class="node">
<title>Node11</title>
<g id="a_node11"><a xlink:href="Pb__Conduction_8cpp.html" target="_top" xlink:title=" ">
<polygon fill="white" stroke="black" points="1070.5,-89.5 1070.5,-108.5 1226.5,-108.5 1226.5,-89.5 1070.5,-89.5"/>
<text text-anchor="middle" x="1148.5" y="-96.5" font-family="Helvetica,sans-Serif" font-size="10.00">src/ThSol/Pb_Conduction.cpp</text>
</a>
</g>
</g>
<!-- Node7&#45;&gt;Node11 -->
<g id="edge10" class="edge">
<title>Node7&#45;&gt;Node11</title>
<path fill="none" stroke="midnightblue" d="M927.2,-169.91C979.64,-153.34 1074.79,-123.29 1121.35,-108.58"/>
<polygon fill="midnightblue" stroke="midnightblue" points="926.1,-166.58 917.62,-172.93 928.21,-173.26 926.1,-166.58"/>
</g>
<!-- Node12 -->
<g id="node12" class="node">
<title>Node12</title>
<g id="a_node12"><a xlink:href="Champ__front__contact__VEF_8cpp.html" target="_top" xlink:title=" ">
<polygon fill="white" stroke="black" points="565,-84 565,-114 698,-114 698,-84 565,-84"/>
<text text-anchor="start" x="573" y="-102" font-family="Helvetica,sans-Serif" font-size="10.00">src/VEF/Champs/Champ</text>
<text text-anchor="middle" x="631.5" y="-91" font-family="Helvetica,sans-Serif" font-size="10.00">_front_contact_VEF.cpp</text>
</a>
</g>
</g>
<!-- Node7&#45;&gt;Node12 -->
<g id="edge11" class="edge">
<title>Node7&#45;&gt;Node12</title>
<path fill="none" stroke="midnightblue" d="M853.81,-169.95C839.93,-165.58 823.98,-160.56 809.5,-156 764.07,-141.7 712.13,-125.36 676.12,-114.04"/>
<polygon fill="midnightblue" stroke="midnightblue" points="852.91,-173.33 863.5,-173 855.01,-166.66 852.91,-173.33"/>
</g>
<!-- Node9 -->
<g id="node9" class="node">
<title>Node9</title>
<g id="a_node9"><a xlink:href="Problemes__Scalaires__Passifs_8cpp.html" target="_top" xlink:title=" ">
<polygon fill="white" stroke="black" points="716.5,-0.5 716.5,-41.5 886.5,-41.5 886.5,-0.5 716.5,-0.5"/>
<text text-anchor="start" x="724.5" y="-29.5" font-family="Helvetica,sans-Serif" font-size="10.00">src/ThHyd/Incompressible</text>
<text text-anchor="start" x="724.5" y="-18.5" font-family="Helvetica,sans-Serif" font-size="10.00">/Problems/Problemes_Scalaires</text>
<text text-anchor="middle" x="801.5" y="-7.5" font-family="Helvetica,sans-Serif" font-size="10.00">_Passifs.cpp</text>
</a>
</g>
</g>
<!-- Node8&#45;&gt;Node9 -->
<g id="edge8" class="edge">
<title>Node8&#45;&gt;Node9</title>
<path fill="none" stroke="midnightblue" d="M801.5,-68.3C801.5,-59.3 801.5,-49.65 801.5,-41.51"/>
<polygon fill="midnightblue" stroke="midnightblue" points="798,-68.43 801.5,-78.43 805,-68.43 798,-68.43"/>
</g>
<!-- Node24 -->
<g id="node24" class="node">
<title>Node24</title>
<g id="a_node24"><a xlink:href="Echange__contact__Correlation__VEF_8cpp.html" target="_top" xlink:title=" ">
<polygon fill="white" stroke="black" points="139.5,-84 139.5,-114 299.5,-114 299.5,-84 139.5,-84"/>
<text text-anchor="start" x="147.5" y="-102" font-family="Helvetica,sans-Serif" font-size="10.00">src/VEF/Cond_Lim/Echange</text>
<text text-anchor="middle" x="219.5" y="-91" font-family="Helvetica,sans-Serif" font-size="10.00">_contact_Correlation_VEF.cpp</text>
</a>
</g>
</g>
<!-- Node23&#45;&gt;Node24 -->
<g id="edge23" class="edge">
<title>Node23&#45;&gt;Node24</title>
<path fill="none" stroke="midnightblue" d="M219.5,-157.28C219.5,-143.18 219.5,-125.9 219.5,-114.03"/>
<polygon fill="midnightblue" stroke="midnightblue" points="216,-157.3 219.5,-167.3 223,-157.3 216,-157.3"/>
</g>
<!-- Node25&#45;&gt;Node16 -->
<g id="edge27" class="edge">
<title>Node25&#45;&gt;Node16</title>
<path fill="none" stroke="midnightblue" d="M2262.58,-319.07C2279.4,-310.83 2297.93,-300.02 2312.5,-287 2342.08,-260.58 2365.48,-219.41 2376.55,-197.82"/>
<polygon fill="midnightblue" stroke="midnightblue" points="2261,-315.94 2253.45,-323.37 2263.99,-322.27 2261,-315.94"/>
</g>
<!-- Node26 -->
<g id="node26" class="node">
<title>Node26</title>
<g id="a_node26"><a xlink:href="Traitement__particulier__Solide__canal__VDF_8h.html" target="_top" xlink:title=" ">
<polygon fill="white" stroke="black" points="2132,-245.5 2132,-286.5 2303,-286.5 2303,-245.5 2132,-245.5"/>
<text text-anchor="start" x="2140" y="-274.5" font-family="Helvetica,sans-Serif" font-size="10.00">src/VDF/Traitement</text>
<text text-anchor="start" x="2140" y="-263.5" font-family="Helvetica,sans-Serif" font-size="10.00">_particulier/Traitement</text>
<text text-anchor="middle" x="2217.5" y="-252.5" font-family="Helvetica,sans-Serif" font-size="10.00">_particulier_Solide_canal_VDF.h</text>
</a>
</g>
</g>
<!-- Node25&#45;&gt;Node26 -->
<g id="edge28" class="edge">
<title>Node25&#45;&gt;Node26</title>
<path fill="none" stroke="midnightblue" d="M2217.5,-312.98C2217.5,-304.35 2217.5,-294.76 2217.5,-286.59"/>
<polygon fill="midnightblue" stroke="midnightblue" points="2214,-313.23 2217.5,-323.23 2221,-313.23 2214,-313.23"/>
</g>
<!-- Node26&#45;&gt;Node22 -->
<g id="edge29" class="edge">
<title>Node26&#45;&gt;Node22</title>
<path fill="none" stroke="midnightblue" d="M2217.5,-235.12C2217.5,-226.41 2217.5,-216.99 2217.5,-208.61"/>
<polygon fill="midnightblue" stroke="midnightblue" points="2214,-235.27 2217.5,-245.27 2221,-235.27 2214,-235.27"/>
</g>
</g>
</svg>
