<?xml version="1.0" encoding="UTF-8" standalone="no"?>
<!DOCTYPE svg PUBLIC "-//W3C//DTD SVG 1.1//EN"
 "http://www.w3.org/Graphics/SVG/1.1/DTD/svg11.dtd">
<!-- Generated by graphviz version 2.43.0 (0)
 -->
<!-- Title: src/ThHyd/Incompressible/Traitement_particulier/Traitement_particulier_NS_EC.h Pages: 1 -->
<svg width="482pt" height="228pt"
 viewBox="0.00 0.00 482.00 228.00" xmlns="http://www.w3.org/2000/svg" xmlns:xlink="http://www.w3.org/1999/xlink">
<g id="graph0" class="graph" transform="scale(1 1) rotate(0) translate(4 224)">
<title>src/ThHyd/Incompressible/Traitement_particulier/Traitement_particulier_NS_EC.h</title>
<polygon fill="white" stroke="transparent" points="-4,4 -4,-224 478,-224 478,4 -4,4"/>
<!-- Node1 -->
<g id="node1" class="node">
<title>Node1</title>
<g id="a_node1"><a xlink:title=" ">
<polygon fill="#bfbfbf" stroke="black" points="160,-167.5 160,-219.5 303,-219.5 303,-167.5 160,-167.5"/>
<text text-anchor="start" x="168" y="-207.5" font-family="Helvetica,sans-Serif" font-size="10.00">src/ThHyd/Incompressible</text>
<text text-anchor="start" x="168" y="-196.5" font-family="Helvetica,sans-Serif" font-size="10.00">/Traitement_particulier</text>
<text text-anchor="start" x="168" y="-185.5" font-family="Helvetica,sans-Serif" font-size="10.00">/Traitement_particulier</text>
<text text-anchor="middle" x="231.5" y="-174.5" font-family="Helvetica,sans-Serif" font-size="10.00">_NS_EC.h</text>
</a>
</g>
</g>
<!-- Node2 -->
<g id="node2" class="node">
<title>Node2</title>
<g id="a_node2"><a xlink:href="Traitement__particulier__NS__EC_8cpp.html" target="_top" xlink:title=" ">
<polygon fill="white" stroke="black" points="0,-78.5 0,-130.5 143,-130.5 143,-78.5 0,-78.5"/>
<text text-anchor="start" x="8" y="-118.5" font-family="Helvetica,sans-Serif" font-size="10.00">src/ThHyd/Incompressible</text>
<text text-anchor="start" x="8" y="-107.5" font-family="Helvetica,sans-Serif" font-size="10.00">/Traitement_particulier</text>
<text text-anchor="start" x="8" y="-96.5" font-family="Helvetica,sans-Serif" font-size="10.00">/Traitement_particulier</text>
<text text-anchor="middle" x="71.5" y="-85.5" font-family="Helvetica,sans-Serif" font-size="10.00">_NS_EC.cpp</text>
</a>
</g>
</g>
<!-- Node1&#45;&gt;Node2 -->
<g id="edge1" class="edge">
<title>Node1&#45;&gt;Node2</title>
<path fill="none" stroke="midnightblue" d="M176.32,-162.49C157.2,-152.1 135.99,-140.57 117.67,-130.61"/>
<polygon fill="midnightblue" stroke="midnightblue" points="174.76,-165.63 185.22,-167.34 178.11,-159.48 174.76,-165.63"/>
</g>
<!-- Node3 -->
<g id="node3" class="node">
<title>Node3</title>
<g id="a_node3"><a xlink:href="Traitement__particulier__NS__EC__VDF_8h.html" target="_top" xlink:title=" ">
<polygon fill="white" stroke="black" points="161,-84 161,-125 302,-125 302,-84 161,-84"/>
<text text-anchor="start" x="169" y="-113" font-family="Helvetica,sans-Serif" font-size="10.00">src/VDF/Traitement</text>
<text text-anchor="start" x="169" y="-102" font-family="Helvetica,sans-Serif" font-size="10.00">_particulier/Traitement</text>
<text text-anchor="middle" x="231.5" y="-91" font-family="Helvetica,sans-Serif" font-size="10.00">_particulier_NS_EC_VDF.h</text>
</a>
</g>
</g>
<!-- Node1&#45;&gt;Node3 -->
<g id="edge2" class="edge">
<title>Node1&#45;&gt;Node3</title>
<path fill="none" stroke="midnightblue" d="M231.5,-157.16C231.5,-146.21 231.5,-134.55 231.5,-125.08"/>
<polygon fill="midnightblue" stroke="midnightblue" points="228,-157.34 231.5,-167.34 235,-157.34 228,-157.34"/>
</g>
<!-- Node5 -->
<g id="node5" class="node">
<title>Node5</title>
<g id="a_node5"><a xlink:href="Traitement__particulier__NS__EC__VEF_8h.html" target="_top" xlink:title=" ">
<polygon fill="white" stroke="black" points="325.5,-89.5 325.5,-119.5 465.5,-119.5 465.5,-89.5 325.5,-89.5"/>
<text text-anchor="start" x="333.5" y="-107.5" font-family="Helvetica,sans-Serif" font-size="10.00">src/VEF/Traitement</text>
<text text-anchor="middle" x="395.5" y="-96.5" font-family="Helvetica,sans-Serif" font-size="10.00">_particulier_NS_EC_VEF.h</text>
</a>
</g>
</g>
<!-- Node1&#45;&gt;Node5 -->
<g id="edge4" class="edge">
<title>Node1&#45;&gt;Node5</title>
<path fill="none" stroke="midnightblue" d="M288.07,-162.49C315.56,-147.91 347.27,-131.08 369.08,-119.52"/>
<polygon fill="midnightblue" stroke="midnightblue" points="286.13,-159.56 278.94,-167.34 289.41,-165.74 286.13,-159.56"/>
</g>
<!-- Node4 -->
<g id="node4" class="node">
<title>Node4</title>
<g id="a_node4"><a xlink:href="Traitement__particulier__NS__EC__VDF_8cpp.html" target="_top" xlink:title=" ">
<polygon fill="white" stroke="black" points="152.5,-0.5 152.5,-41.5 304.5,-41.5 304.5,-0.5 152.5,-0.5"/>
<text text-anchor="start" x="160.5" y="-29.5" font-family="Helvetica,sans-Serif" font-size="10.00">src/VDF/Traitement</text>
<text text-anchor="start" x="160.5" y="-18.5" font-family="Helvetica,sans-Serif" font-size="10.00">_particulier/Traitement</text>
<text text-anchor="middle" x="228.5" y="-7.5" font-family="Helvetica,sans-Serif" font-size="10.00">_particulier_NS_EC_VDF.cpp</text>
</a>
</g>
</g>
<!-- Node3&#45;&gt;Node4 -->
<g id="edge3" class="edge">
<title>Node3&#45;&gt;Node4</title>
<path fill="none" stroke="midnightblue" d="M230.4,-73.56C230,-62.88 229.57,-51.13 229.22,-41.55"/>
<polygon fill="midnightblue" stroke="midnightblue" points="226.91,-73.91 230.77,-83.77 233.9,-73.65 226.91,-73.91"/>
</g>
<!-- Node6 -->
<g id="node6" class="node">
<title>Node6</title>
<g id="a_node6"><a xlink:href="Traitement__particulier__NS__EC__VEF_8cpp.html" target="_top" xlink:title=" ">
<polygon fill="white" stroke="black" points="323,-6 323,-36 474,-36 474,-6 323,-6"/>
<text text-anchor="start" x="331" y="-24" font-family="Helvetica,sans-Serif" font-size="10.00">src/VEF/Traitement</text>
<text text-anchor="middle" x="398.5" y="-13" font-family="Helvetica,sans-Serif" font-size="10.00">_particulier_NS_EC_VEF.cpp</text>
</a>
</g>
</g>
<!-- Node5&#45;&gt;Node6 -->
<g id="edge5" class="edge">
<title>Node5&#45;&gt;Node6</title>
<path fill="none" stroke="midnightblue" d="M396.39,-79.28C396.91,-65.18 397.55,-47.9 397.98,-36.03"/>
<polygon fill="midnightblue" stroke="midnightblue" points="392.89,-79.18 396.02,-89.3 399.89,-79.44 392.89,-79.18"/>
</g>
</g>
</svg>
