<?xml version="1.0" encoding="UTF-8" standalone="no"?>
<!DOCTYPE svg PUBLIC "-//W3C//DTD SVG 1.1//EN"
 "http://www.w3.org/Graphics/SVG/1.1/DTD/svg11.dtd">
<!-- Generated by graphviz version 2.43.0 (0)
 -->
<!-- Title: src/ThSol/Traitement_particulier_Solide.h Pages: 1 -->
<svg width="2476pt" height="340pt"
 viewBox="0.00 0.00 2475.50 340.00" xmlns="http://www.w3.org/2000/svg" xmlns:xlink="http://www.w3.org/1999/xlink">
<g id="graph0" class="graph" transform="scale(1 1) rotate(0) translate(4 336)">
<title>src/ThSol/Traitement_particulier_Solide.h</title>
<polygon fill="white" stroke="transparent" points="-4,4 -4,-336 2471.5,-336 2471.5,4 -4,4"/>
<!-- Node1 -->
<g id="node1" class="node">
<title>Node1</title>
<g id="a_node1"><a xlink:title=" ">
<polygon fill="#bfbfbf" stroke="black" points="596.5,-301.5 596.5,-331.5 712.5,-331.5 712.5,-301.5 596.5,-301.5"/>
<text text-anchor="start" x="604.5" y="-319.5" font-family="Helvetica,sans-Serif" font-size="10.00">src/ThSol/Traitement</text>
<text text-anchor="middle" x="654.5" y="-308.5" font-family="Helvetica,sans-Serif" font-size="10.00">_particulier_Solide.h</text>
</a>
</g>
</g>
<!-- Node2 -->
<g id="node2" class="node">
<title>Node2</title>
<g id="a_node2"><a xlink:href="Conduction_8h.html" target="_top" xlink:title=" ">
<polygon fill="white" stroke="black" points="1093.5,-245.5 1093.5,-264.5 1221.5,-264.5 1221.5,-245.5 1093.5,-245.5"/>
<text text-anchor="middle" x="1157.5" y="-252.5" font-family="Helvetica,sans-Serif" font-size="10.00">src/ThSol/Conduction.h</text>
</a>
</g>
</g>
<!-- Node1&#45;&gt;Node2 -->
<g id="edge1" class="edge">
<title>Node1&#45;&gt;Node2</title>
<path fill="none" stroke="midnightblue" d="M722.73,-307.43C820.15,-295.91 997.85,-274.88 1093.11,-263.62"/>
<polygon fill="midnightblue" stroke="midnightblue" points="722.21,-303.97 712.69,-308.62 723.03,-310.92 722.21,-303.97"/>
</g>
<!-- Node13 -->
<g id="node13" class="node">
<title>Node13</title>
<g id="a_node13"><a xlink:href="Traitement__particulier__Solide_8cpp.html" target="_top" xlink:title=" ">
<polygon fill="white" stroke="black" points="0,-167.5 0,-197.5 127,-197.5 127,-167.5 0,-167.5"/>
<text text-anchor="start" x="8" y="-185.5" font-family="Helvetica,sans-Serif" font-size="10.00">src/ThSol/Traitement</text>
<text text-anchor="middle" x="63.5" y="-174.5" font-family="Helvetica,sans-Serif" font-size="10.00">_particulier_Solide.cpp</text>
</a>
</g>
</g>
<!-- Node1&#45;&gt;Node13 -->
<g id="edge23" class="edge">
<title>Node1&#45;&gt;Node13</title>
<path fill="none" stroke="midnightblue" d="M586.47,-304.5C486.8,-287.7 295.64,-252.94 136.5,-209 124.72,-205.75 112.1,-201.59 100.71,-197.57"/>
<polygon fill="midnightblue" stroke="midnightblue" points="585.97,-307.96 596.41,-306.16 587.13,-301.06 585.97,-307.96"/>
</g>
<!-- Node3 -->
<g id="node3" class="node">
<title>Node3</title>
<g id="a_node3"><a xlink:href="Op__Diff__VEFP1NCP1B__Face_8cpp.html" target="_top" xlink:title=" ">
<polygon fill="white" stroke="black" points="145.5,-167.5 145.5,-197.5 317.5,-197.5 317.5,-167.5 145.5,-167.5"/>
<text text-anchor="start" x="153.5" y="-185.5" font-family="Helvetica,sans-Serif" font-size="10.00">src/P1NCP1B/Operateurs</text>
<text text-anchor="middle" x="231.5" y="-174.5" font-family="Helvetica,sans-Serif" font-size="10.00">/Op_Diff_VEFP1NCP1B_Face.cpp</text>
</a>
</g>
</g>
<!-- Node2&#45;&gt;Node3 -->
<g id="edge2" class="edge">
<title>Node2&#45;&gt;Node3</title>
<path fill="none" stroke="midnightblue" d="M1083.27,-251.96C907.75,-246.82 471.11,-232.07 326.5,-209 309.8,-206.34 291.82,-201.92 276.03,-197.5"/>
<polygon fill="midnightblue" stroke="midnightblue" points="1083.34,-255.46 1093.44,-252.26 1083.55,-248.47 1083.34,-255.46"/>
</g>
<!-- Node4 -->
<g id="node4" class="node">
<title>Node4</title>
<g id="a_node4"><a xlink:href="Zone__Cl__VEFP1B_8cpp.html" target="_top" xlink:title=" ">
<polygon fill="white" stroke="black" points="335.5,-167.5 335.5,-197.5 475.5,-197.5 475.5,-167.5 335.5,-167.5"/>
<text text-anchor="start" x="343.5" y="-185.5" font-family="Helvetica,sans-Serif" font-size="10.00">src/P1NCP1B/Zones/Zone</text>
<text text-anchor="middle" x="405.5" y="-174.5" font-family="Helvetica,sans-Serif" font-size="10.00">_Cl_VEFP1B.cpp</text>
</a>
</g>
</g>
<!-- Node2&#45;&gt;Node4 -->
<g id="edge3" class="edge">
<title>Node2&#45;&gt;Node4</title>
<path fill="none" stroke="midnightblue" d="M1083.06,-254.95C958.16,-255.22 698.99,-250.14 484.5,-209 470.63,-206.34 455.8,-201.98 442.78,-197.61"/>
<polygon fill="midnightblue" stroke="midnightblue" points="1083.29,-258.45 1093.27,-254.91 1083.26,-251.45 1083.29,-258.45"/>
</g>
<!-- Node5 -->
<g id="node5" class="node">
<title>Node5</title>
<g id="a_node5"><a xlink:href="Conduction_8cpp.html" target="_top" xlink:title=" ">
<polygon fill="white" stroke="black" points="494,-173 494,-192 633,-192 633,-173 494,-173"/>
<text text-anchor="middle" x="563.5" y="-180" font-family="Helvetica,sans-Serif" font-size="10.00">src/ThSol/Conduction.cpp</text>
</a>
</g>
</g>
<!-- Node2&#45;&gt;Node5 -->
<g id="edge4" class="edge">
<title>Node2&#45;&gt;Node5</title>
<path fill="none" stroke="midnightblue" d="M1083.18,-252.84C982.21,-250.06 796.53,-240.66 641.5,-209 621.96,-205.01 600.46,-197.76 584.99,-192"/>
<polygon fill="midnightblue" stroke="midnightblue" points="1083.19,-256.34 1093.27,-253.1 1083.37,-249.34 1083.19,-256.34"/>
</g>
<!-- Node6 -->
<g id="node6" class="node">
<title>Node6</title>
<g id="a_node6"><a xlink:href="Pb__Conduction_8h.html" target="_top" xlink:title=" ">
<polygon fill="white" stroke="black" points="651,-173 651,-192 796,-192 796,-173 651,-173"/>
<text text-anchor="middle" x="723.5" y="-180" font-family="Helvetica,sans-Serif" font-size="10.00">src/ThSol/Pb_Conduction.h</text>
</a>
</g>
</g>
<!-- Node2&#45;&gt;Node6 -->
<g id="edge5" class="edge">
<title>Node2&#45;&gt;Node6</title>
<path fill="none" stroke="midnightblue" d="M1083.15,-248.4C1011.26,-242.07 899.55,-229.85 804.5,-209 784.77,-204.67 762.96,-197.67 746.95,-192.1"/>
<polygon fill="midnightblue" stroke="midnightblue" points="1083.2,-251.92 1093.47,-249.29 1083.8,-244.94 1083.2,-251.92"/>
</g>
<!-- Node12 -->
<g id="node12" class="node">
<title>Node12</title>
<g id="a_node12"><a xlink:href="Ref__Conduction_8cpp.html" target="_top" xlink:title=" ">
<polygon fill="white" stroke="black" points="814,-173 814,-192 975,-192 975,-173 814,-173"/>
<text text-anchor="middle" x="894.5" y="-180" font-family="Helvetica,sans-Serif" font-size="10.00">src/ThSol/Ref_Conduction.cpp</text>
</a>
</g>
</g>
<!-- Node2&#45;&gt;Node12 -->
<g id="edge11" class="edge">
<title>Node2&#45;&gt;Node12</title>
<path fill="none" stroke="midnightblue" d="M1113.46,-242.95C1078.24,-234.02 1027.61,-221.02 983.5,-209 963.5,-203.55 941.05,-197.12 923.71,-192.08"/>
<polygon fill="midnightblue" stroke="midnightblue" points="1112.87,-246.41 1123.42,-245.47 1114.59,-239.62 1112.87,-246.41"/>
</g>
<!-- Node2&#45;&gt;Node13 -->
<g id="edge12" class="edge">
<title>Node2&#45;&gt;Node13</title>
<path fill="none" stroke="midnightblue" d="M1083.13,-253.53C879.84,-251.8 317.92,-243.9 136.5,-209 123.32,-206.46 109.29,-202.02 97.1,-197.54"/>
<polygon fill="midnightblue" stroke="midnightblue" points="1083.38,-257.03 1093.41,-253.61 1083.44,-250.03 1083.38,-257.03"/>
</g>
<!-- Node14 -->
<g id="node14" class="node">
<title>Node14</title>
<g id="a_node14"><a xlink:href="Traitement__particulier__Solide__base_8cpp.html" target="_top" xlink:title=" ">
<polygon fill="white" stroke="black" points="993,-167.5 993,-197.5 1148,-197.5 1148,-167.5 993,-167.5"/>
<text text-anchor="start" x="1001" y="-185.5" font-family="Helvetica,sans-Serif" font-size="10.00">src/ThSol/Traitement</text>
<text text-anchor="middle" x="1070.5" y="-174.5" font-family="Helvetica,sans-Serif" font-size="10.00">_particulier_Solide_base.cpp</text>
</a>
</g>
</g>
<!-- Node2&#45;&gt;Node14 -->
<g id="edge13" class="edge">
<title>Node2&#45;&gt;Node14</title>
<path fill="none" stroke="midnightblue" d="M1138.72,-238.78C1123.63,-226.55 1102.58,-209.5 1087.87,-197.58"/>
<polygon fill="midnightblue" stroke="midnightblue" points="1136.86,-241.78 1146.83,-245.36 1141.27,-236.34 1136.86,-241.78"/>
</g>
<!-- Node15 -->
<g id="node15" class="node">
<title>Node15</title>
<g id="a_node15"><a xlink:href="Traitement__particulier__Solide__canal_8cpp.html" target="_top" xlink:title=" ">
<polygon fill="white" stroke="black" points="1166.5,-167.5 1166.5,-197.5 1324.5,-197.5 1324.5,-167.5 1166.5,-167.5"/>
<text text-anchor="start" x="1174.5" y="-185.5" font-family="Helvetica,sans-Serif" font-size="10.00">src/ThSol/Traitement</text>
<text text-anchor="middle" x="1245.5" y="-174.5" font-family="Helvetica,sans-Serif" font-size="10.00">_particulier_Solide_canal.cpp</text>
</a>
</g>
</g>
<!-- Node2&#45;&gt;Node15 -->
<g id="edge14" class="edge">
<title>Node2&#45;&gt;Node15</title>
<path fill="none" stroke="midnightblue" d="M1176.49,-238.78C1191.76,-226.55 1213.05,-209.5 1227.93,-197.58"/>
<polygon fill="midnightblue" stroke="midnightblue" points="1173.91,-236.37 1168.29,-245.36 1178.28,-241.83 1173.91,-236.37"/>
</g>
<!-- Node16 -->
<g id="node16" class="node">
<title>Node16</title>
<g id="a_node16"><a xlink:href="Echange__contact__Colburn__VDF_8cpp.html" target="_top" xlink:title=" ">
<polygon fill="white" stroke="black" points="1342,-167.5 1342,-197.5 1491,-197.5 1491,-167.5 1342,-167.5"/>
<text text-anchor="start" x="1350" y="-185.5" font-family="Helvetica,sans-Serif" font-size="10.00">src/VDF/Cond_Lim/Echange</text>
<text text-anchor="middle" x="1416.5" y="-174.5" font-family="Helvetica,sans-Serif" font-size="10.00">_contact_Colburn_VDF.cpp</text>
</a>
</g>
</g>
<!-- Node2&#45;&gt;Node16 -->
<g id="edge15" class="edge">
<title>Node2&#45;&gt;Node16</title>
<path fill="none" stroke="midnightblue" d="M1203.12,-242.97C1238.74,-234.2 1289.43,-221.4 1333.5,-209 1346.12,-205.45 1359.75,-201.37 1372.25,-197.52"/>
<polygon fill="midnightblue" stroke="midnightblue" points="1201.91,-239.66 1193.03,-245.44 1203.57,-246.46 1201.91,-239.66"/>
</g>
<!-- Node17 -->
<g id="node17" class="node">
<title>Node17</title>
<g id="a_node17"><a xlink:href="Echange__contact__Correlation__VDF_8cpp.html" target="_top" xlink:title=" ">
<polygon fill="white" stroke="black" points="1509,-167.5 1509,-197.5 1670,-197.5 1670,-167.5 1509,-167.5"/>
<text text-anchor="start" x="1517" y="-185.5" font-family="Helvetica,sans-Serif" font-size="10.00">src/VDF/Cond_Lim/Echange</text>
<text text-anchor="middle" x="1589.5" y="-174.5" font-family="Helvetica,sans-Serif" font-size="10.00">_contact_Correlation_VDF.cpp</text>
</a>
</g>
</g>
<!-- Node2&#45;&gt;Node17 -->
<g id="edge16" class="edge">
<title>Node2&#45;&gt;Node17</title>
<path fill="none" stroke="midnightblue" d="M1231.62,-247.38C1301.25,-240.43 1408.1,-227.86 1499.5,-209 1514.45,-205.92 1530.56,-201.66 1544.95,-197.5"/>
<polygon fill="midnightblue" stroke="midnightblue" points="1231.23,-243.91 1221.63,-248.37 1231.92,-250.87 1231.23,-243.91"/>
</g>
<!-- Node18 -->
<g id="node18" class="node">
<title>Node18</title>
<g id="a_node18"><a xlink:href="Echange__contact__VDF__Plaque__Flux__Cte_8cpp.html" target="_top" xlink:title=" ">
<polygon fill="white" stroke="black" points="1688,-162 1688,-203 1837,-203 1837,-162 1688,-162"/>
<text text-anchor="start" x="1696" y="-191" font-family="Helvetica,sans-Serif" font-size="10.00">src/VDF/Cond_Lim/Echange</text>
<text text-anchor="start" x="1696" y="-180" font-family="Helvetica,sans-Serif" font-size="10.00">_contact_VDF_Plaque_Flux</text>
<text text-anchor="middle" x="1762.5" y="-169" font-family="Helvetica,sans-Serif" font-size="10.00">_Cte.cpp</text>
</a>
</g>
</g>
<!-- Node2&#45;&gt;Node18 -->
<g id="edge17" class="edge">
<title>Node2&#45;&gt;Node18</title>
<path fill="none" stroke="midnightblue" d="M1231.77,-252.54C1333.62,-249.42 1521.96,-239.63 1679.5,-209 1687.64,-207.42 1696.11,-205.34 1704.4,-203.05"/>
<polygon fill="midnightblue" stroke="midnightblue" points="1231.48,-249.04 1221.58,-252.84 1231.68,-256.04 1231.48,-249.04"/>
</g>
<!-- Node19 -->
<g id="node19" class="node">
<title>Node19</title>
<g id="a_node19"><a xlink:href="Source__Echange__Th__VDF_8cpp.html" target="_top" xlink:title=" ">
<polygon fill="white" stroke="black" points="1855,-162 1855,-203 1992,-203 1992,-162 1855,-162"/>
<text text-anchor="start" x="1863" y="-191" font-family="Helvetica,sans-Serif" font-size="10.00">src/VDF/Sources/Sources</text>
<text text-anchor="start" x="1863" y="-180" font-family="Helvetica,sans-Serif" font-size="10.00">_It_Eval/Source_Echange</text>
<text text-anchor="middle" x="1923.5" y="-169" font-family="Helvetica,sans-Serif" font-size="10.00">_Th_VDF.cpp</text>
</a>
</g>
</g>
<!-- Node2&#45;&gt;Node19 -->
<g id="edge18" class="edge">
<title>Node2&#45;&gt;Node19</title>
<path fill="none" stroke="midnightblue" d="M1232.01,-251.53C1385.16,-246.06 1730.62,-231.59 1846.5,-209 1854.24,-207.49 1862.28,-205.42 1870.11,-203.11"/>
<polygon fill="midnightblue" stroke="midnightblue" points="1231.64,-248.04 1221.77,-251.89 1231.89,-255.04 1231.64,-248.04"/>
</g>
<!-- Node20 -->
<g id="node20" class="node">
<title>Node20</title>
<g id="a_node20"><a xlink:href="Terme__Source__Solide__SWIFT__VDF_8cpp.html" target="_top" xlink:title=" ">
<polygon fill="white" stroke="black" points="2010.5,-162 2010.5,-203 2138.5,-203 2138.5,-162 2010.5,-162"/>
<text text-anchor="start" x="2018.5" y="-191" font-family="Helvetica,sans-Serif" font-size="10.00">src/VDF/Sources/Terme</text>
<text text-anchor="start" x="2018.5" y="-180" font-family="Helvetica,sans-Serif" font-size="10.00">_Source_Solide_SWIFT</text>
<text text-anchor="middle" x="2074.5" y="-169" font-family="Helvetica,sans-Serif" font-size="10.00">_VDF.cpp</text>
</a>
</g>
</g>
<!-- Node2&#45;&gt;Node20 -->
<g id="edge19" class="edge">
<title>Node2&#45;&gt;Node20</title>
<path fill="none" stroke="midnightblue" d="M1231.78,-252.73C1409.5,-249.25 1855.25,-237.84 2001.5,-209 2009.01,-207.52 2016.79,-205.43 2024.35,-203.09"/>
<polygon fill="midnightblue" stroke="midnightblue" points="1231.67,-249.23 1221.74,-252.92 1231.81,-256.23 1231.67,-249.23"/>
</g>
<!-- Node21 -->
<g id="node21" class="node">
<title>Node21</title>
<g id="a_node21"><a xlink:href="Traitement__particulier__Solide__canal__VDF_8cpp.html" target="_top" xlink:title=" ">
<polygon fill="white" stroke="black" points="2156.5,-156.5 2156.5,-208.5 2294.5,-208.5 2294.5,-156.5 2156.5,-156.5"/>
<text text-anchor="start" x="2164.5" y="-196.5" font-family="Helvetica,sans-Serif" font-size="10.00">src/VDF/Traitement</text>
<text text-anchor="start" x="2164.5" y="-185.5" font-family="Helvetica,sans-Serif" font-size="10.00">_particulier/Traitement</text>
<text text-anchor="start" x="2164.5" y="-174.5" font-family="Helvetica,sans-Serif" font-size="10.00">_particulier_Solide_canal</text>
<text text-anchor="middle" x="2225.5" y="-163.5" font-family="Helvetica,sans-Serif" font-size="10.00">_VDF.cpp</text>
</a>
</g>
</g>
<!-- Node2&#45;&gt;Node21 -->
<g id="edge20" class="edge">
<title>Node2&#45;&gt;Node21</title>
<path fill="none" stroke="midnightblue" d="M1231.68,-253.22C1430.46,-250.72 1971.89,-241.08 2147.5,-209 2150.44,-208.46 2153.43,-207.84 2156.43,-207.15"/>
<polygon fill="midnightblue" stroke="midnightblue" points="1231.58,-249.72 1221.63,-253.35 1231.67,-256.72 1231.58,-249.72"/>
</g>
<!-- Node22 -->
<g id="node22" class="node">
<title>Node22</title>
<g id="a_node22"><a xlink:href="Echange__contact__Correlation__VEF_8h.html" target="_top" xlink:title=" ">
<polygon fill="white" stroke="black" points="2313,-167.5 2313,-197.5 2462,-197.5 2462,-167.5 2313,-167.5"/>
<text text-anchor="start" x="2321" y="-185.5" font-family="Helvetica,sans-Serif" font-size="10.00">src/VEF/Cond_Lim/Echange</text>
<text text-anchor="middle" x="2387.5" y="-174.5" font-family="Helvetica,sans-Serif" font-size="10.00">_contact_Correlation_VEF.h</text>
</a>
</g>
</g>
<!-- Node2&#45;&gt;Node22 -->
<g id="edge21" class="edge">
<title>Node2&#45;&gt;Node22</title>
<path fill="none" stroke="midnightblue" d="M1232,-253.55C1452,-251.85 2096.33,-243.92 2303.5,-209 2318.53,-206.47 2334.63,-202.02 2348.68,-197.54"/>
<polygon fill="midnightblue" stroke="midnightblue" points="1231.82,-250.06 1221.85,-253.63 1231.88,-257.06 1231.82,-250.06"/>
</g>
<!-- Node7 -->
<g id="node7" class="node">
<title>Node7</title>
<g id="a_node7"><a xlink:href="Problemes__Scalaires__Passifs_8h.html" target="_top" xlink:title=" ">
<polygon fill="white" stroke="black" points="376.5,-78.5 376.5,-119.5 546.5,-119.5 546.5,-78.5 376.5,-78.5"/>
<text text-anchor="start" x="384.5" y="-107.5" font-family="Helvetica,sans-Serif" font-size="10.00">src/ThHyd/Incompressible</text>
<text text-anchor="start" x="384.5" y="-96.5" font-family="Helvetica,sans-Serif" font-size="10.00">/Problems/Problemes_Scalaires</text>
<text text-anchor="middle" x="461.5" y="-85.5" font-family="Helvetica,sans-Serif" font-size="10.00">_Passifs.h</text>
</a>
</g>
</g>
<!-- Node6&#45;&gt;Node7 -->
<g id="edge6" class="edge">
<title>Node6&#45;&gt;Node7</title>
<path fill="none" stroke="midnightblue" d="M686.37,-169.95C644.24,-156.84 574.81,-135.25 524.23,-119.51"/>
<polygon fill="midnightblue" stroke="midnightblue" points="685.37,-173.3 695.96,-172.93 687.45,-166.62 685.37,-173.3"/>
</g>
<!-- Node9 -->
<g id="node9" class="node">
<title>Node9</title>
<g id="a_node9"><a xlink:href="SETS_8cpp.html" target="_top" xlink:title=" ">
<polygon fill="white" stroke="black" points="564.5,-84 564.5,-114 712.5,-114 712.5,-84 564.5,-84"/>
<text text-anchor="start" x="572.5" y="-102" font-family="Helvetica,sans-Serif" font-size="10.00">src/ThHyd/Multiphase</text>
<text text-anchor="middle" x="638.5" y="-91" font-family="Helvetica,sans-Serif" font-size="10.00">/Schemas_Temps/SETS.cpp</text>
</a>
</g>
</g>
<!-- Node6&#45;&gt;Node9 -->
<g id="edge8" class="edge">
<title>Node6&#45;&gt;Node9</title>
<path fill="none" stroke="midnightblue" d="M707.02,-165.7C691.41,-150.73 668.2,-128.47 653.2,-114.1"/>
<polygon fill="midnightblue" stroke="midnightblue" points="704.76,-168.38 714.4,-172.78 709.61,-163.33 704.76,-168.38"/>
</g>
<!-- Node10 -->
<g id="node10" class="node">
<title>Node10</title>
<g id="a_node10"><a xlink:href="Pb__Conduction_8cpp.html" target="_top" xlink:title=" ">
<polygon fill="white" stroke="black" points="730.5,-89.5 730.5,-108.5 886.5,-108.5 886.5,-89.5 730.5,-89.5"/>
<text text-anchor="middle" x="808.5" y="-96.5" font-family="Helvetica,sans-Serif" font-size="10.00">src/ThSol/Pb_Conduction.cpp</text>
</a>
</g>
</g>
<!-- Node6&#45;&gt;Node10 -->
<g id="edge9" class="edge">
<title>Node6&#45;&gt;Node10</title>
<path fill="none" stroke="midnightblue" d="M739.98,-165.7C757.73,-148.68 785.32,-122.22 799.47,-108.66"/>
<polygon fill="midnightblue" stroke="midnightblue" points="737.39,-163.33 732.6,-172.78 742.24,-168.38 737.39,-163.33"/>
</g>
<!-- Node11 -->
<g id="node11" class="node">
<title>Node11</title>
<g id="a_node11"><a xlink:href="Champ__front__contact__VEF_8cpp.html" target="_top" xlink:title=" ">
<polygon fill="white" stroke="black" points="905,-84 905,-114 1038,-114 1038,-84 905,-84"/>
<text text-anchor="start" x="913" y="-102" font-family="Helvetica,sans-Serif" font-size="10.00">src/VEF/Champs/Champ</text>
<text text-anchor="middle" x="971.5" y="-91" font-family="Helvetica,sans-Serif" font-size="10.00">_front_contact_VEF.cpp</text>
</a>
</g>
</g>
<!-- Node6&#45;&gt;Node11 -->
<g id="edge10" class="edge">
<title>Node6&#45;&gt;Node11</title>
<path fill="none" stroke="midnightblue" d="M759.17,-169.78C804.03,-155.04 880.96,-129.76 928.87,-114.01"/>
<polygon fill="midnightblue" stroke="midnightblue" points="757.98,-166.48 749.57,-172.93 760.16,-173.14 757.98,-166.48"/>
</g>
<!-- Node8 -->
<g id="node8" class="node">
<title>Node8</title>
<g id="a_node8"><a xlink:href="Problemes__Scalaires__Passifs_8cpp.html" target="_top" xlink:title=" ">
<polygon fill="white" stroke="black" points="376.5,-0.5 376.5,-41.5 546.5,-41.5 546.5,-0.5 376.5,-0.5"/>
<text text-anchor="start" x="384.5" y="-29.5" font-family="Helvetica,sans-Serif" font-size="10.00">src/ThHyd/Incompressible</text>
<text text-anchor="start" x="384.5" y="-18.5" font-family="Helvetica,sans-Serif" font-size="10.00">/Problems/Problemes_Scalaires</text>
<text text-anchor="middle" x="461.5" y="-7.5" font-family="Helvetica,sans-Serif" font-size="10.00">_Passifs.cpp</text>
</a>
</g>
</g>
<!-- Node7&#45;&gt;Node8 -->
<g id="edge7" class="edge">
<title>Node7&#45;&gt;Node8</title>
<path fill="none" stroke="midnightblue" d="M461.5,-68.3C461.5,-59.3 461.5,-49.65 461.5,-41.51"/>
<polygon fill="midnightblue" stroke="midnightblue" points="458,-68.43 461.5,-78.43 465,-68.43 458,-68.43"/>
</g>
<!-- Node23 -->
<g id="node23" class="node">
<title>Node23</title>
<g id="a_node23"><a xlink:href="Echange__contact__Correlation__VEF_8cpp.html" target="_top" xlink:title=" ">
<polygon fill="white" stroke="black" points="2307.5,-84 2307.5,-114 2467.5,-114 2467.5,-84 2307.5,-84"/>
<text text-anchor="start" x="2315.5" y="-102" font-family="Helvetica,sans-Serif" font-size="10.00">src/VEF/Cond_Lim/Echange</text>
<text text-anchor="middle" x="2387.5" y="-91" font-family="Helvetica,sans-Serif" font-size="10.00">_contact_Correlation_VEF.cpp</text>
</a>
</g>
</g>
<!-- Node22&#45;&gt;Node23 -->
<g id="edge22" class="edge">
<title>Node22&#45;&gt;Node23</title>
<path fill="none" stroke="midnightblue" d="M2387.5,-157.28C2387.5,-143.18 2387.5,-125.9 2387.5,-114.03"/>
<polygon fill="midnightblue" stroke="midnightblue" points="2384,-157.3 2387.5,-167.3 2391,-157.3 2384,-157.3"/>
</g>
</g>
</svg>
