<?xml version="1.0" encoding="UTF-8" standalone="no"?>
<!DOCTYPE svg PUBLIC "-//W3C//DTD SVG 1.1//EN"
 "http://www.w3.org/Graphics/SVG/1.1/DTD/svg11.dtd">
<!-- Generated by graphviz version 2.43.0 (0)
 -->
<!-- Title: src/Kernel/Math/TRUSTIterator.h Pages: 1 -->
<svg width="180pt" height="140pt"
 viewBox="0.00 0.00 180.00 140.00" xmlns="http://www.w3.org/2000/svg" xmlns:xlink="http://www.w3.org/1999/xlink">
<g id="graph0" class="graph" transform="scale(1 1) rotate(0) translate(4 136)">
<title>src/Kernel/Math/TRUSTIterator.h</title>
<polygon fill="white" stroke="transparent" points="-4,4 -4,-136 176,-136 176,4 -4,4"/>
<!-- Node1 -->
<g id="node1" class="node">
<title>Node1</title>
<g id="a_node1"><a xlink:title=" ">
<polygon fill="#bfbfbf" stroke="black" points="0,-112.5 0,-131.5 172,-131.5 172,-112.5 0,-112.5"/>
<text text-anchor="middle" x="86" y="-119.5" font-family="Helvetica,sans-Serif" font-size="10.00">src/Kernel/Math/TRUSTIterator.h</text>
</a>
</g>
</g>
<!-- Node2 -->
<g id="node2" class="node">
<title>Node2</title>
<g id="a_node2"><a xlink:title=" ">
<polygon fill="white" stroke="#bfbfbf" points="20,-56.5 20,-75.5 80,-75.5 80,-56.5 20,-56.5"/>
<text text-anchor="middle" x="50" y="-63.5" font-family="Helvetica,sans-Serif" font-size="10.00">iostream</text>
</a>
</g>
</g>
<!-- Node1&#45;&gt;Node2 -->
<g id="edge1" class="edge">
<title>Node1&#45;&gt;Node2</title>
<path fill="none" stroke="midnightblue" d="M80.06,-112.08C75.02,-104.53 67.66,-93.49 61.49,-84.23"/>
<polygon fill="midnightblue" stroke="midnightblue" points="64.29,-82.13 55.83,-75.75 58.47,-86.01 64.29,-82.13"/>
</g>
<!-- Node3 -->
<g id="node3" class="node">
<title>Node3</title>
<g id="a_node3"><a xlink:href="arch_8h.html" target="_top" xlink:title=" ">
<polygon fill="white" stroke="black" points="98.5,-56.5 98.5,-75.5 145.5,-75.5 145.5,-56.5 98.5,-56.5"/>
<text text-anchor="middle" x="122" y="-63.5" font-family="Helvetica,sans-Serif" font-size="10.00">arch.h</text>
</a>
</g>
</g>
<!-- Node1&#45;&gt;Node3 -->
<g id="edge2" class="edge">
<title>Node1&#45;&gt;Node3</title>
<path fill="none" stroke="midnightblue" d="M91.94,-112.08C96.98,-104.53 104.34,-93.49 110.51,-84.23"/>
<polygon fill="midnightblue" stroke="midnightblue" points="113.53,-86.01 116.17,-75.75 107.71,-82.13 113.53,-86.01"/>
</g>
<!-- Node4 -->
<g id="node4" class="node">
<title>Node4</title>
<g id="a_node4"><a xlink:href="generique_8h.html" target="_top" xlink:title=" ">
<polygon fill="white" stroke="black" points="85,-0.5 85,-19.5 159,-19.5 159,-0.5 85,-0.5"/>
<text text-anchor="middle" x="122" y="-7.5" font-family="Helvetica,sans-Serif" font-size="10.00">generique.h</text>
</a>
</g>
</g>
<!-- Node3&#45;&gt;Node4 -->
<g id="edge3" class="edge">
<title>Node3&#45;&gt;Node4</title>
<path fill="none" stroke="midnightblue" d="M122,-56.08C122,-49.01 122,-38.86 122,-29.99"/>
<polygon fill="midnightblue" stroke="midnightblue" points="125.5,-29.75 122,-19.75 118.5,-29.75 125.5,-29.75"/>
</g>
</g>
</svg>
