<?xml version="1.0" encoding="UTF-8" standalone="no"?>
<!DOCTYPE svg PUBLIC "-//W3C//DTD SVG 1.1//EN"
 "http://www.w3.org/Graphics/SVG/1.1/DTD/svg11.dtd">
<!-- Generated by graphviz version 2.43.0 (0)
 -->
<!-- Title: src/Kernel/Math/TRUSTList.h Pages: 1 -->
<svg width="860pt" height="364pt"
 viewBox="0.00 0.00 860.00 364.00" xmlns="http://www.w3.org/2000/svg" xmlns:xlink="http://www.w3.org/1999/xlink">
<g id="graph0" class="graph" transform="scale(1 1) rotate(0) translate(4 360)">
<title>src/Kernel/Math/TRUSTList.h</title>
<polygon fill="white" stroke="transparent" points="-4,4 -4,-360 856,-360 856,4 -4,4"/>
<!-- Node1 -->
<g id="node1" class="node">
<title>Node1</title>
<g id="a_node1"><a xlink:title=" ">
<polygon fill="#bfbfbf" stroke="black" points="153,-336.5 153,-355.5 307,-355.5 307,-336.5 153,-336.5"/>
<text text-anchor="middle" x="230" y="-343.5" font-family="Helvetica,sans-Serif" font-size="10.00">src/Kernel/Math/TRUSTList.h</text>
</a>
</g>
</g>
<!-- Node2 -->
<g id="node2" class="node">
<title>Node2</title>
<g id="a_node2"><a xlink:href="TRUSTListElem_8h.html" target="_top" xlink:title=" ">
<polygon fill="white" stroke="black" points="52,-112.5 52,-131.5 152,-131.5 152,-112.5 52,-112.5"/>
<text text-anchor="middle" x="102" y="-119.5" font-family="Helvetica,sans-Serif" font-size="10.00">TRUSTListElem.h</text>
</a>
</g>
</g>
<!-- Node1&#45;&gt;Node2 -->
<g id="edge1" class="edge">
<title>Node1&#45;&gt;Node2</title>
<path fill="none" stroke="midnightblue" d="M224.98,-336.3C205.99,-303.36 138.27,-185.9 112.27,-140.81"/>
<polygon fill="midnightblue" stroke="midnightblue" points="115.15,-138.8 107.12,-131.88 109.09,-142.3 115.15,-138.8"/>
</g>
<!-- Node6 -->
<g id="node6" class="node">
<title>Node6</title>
<g id="a_node6"><a xlink:href="Double_8h.html" target="_top" xlink:title=" ">
<polygon fill="white" stroke="black" points="54,-280.5 54,-299.5 114,-299.5 114,-280.5 54,-280.5"/>
<text text-anchor="middle" x="84" y="-287.5" font-family="Helvetica,sans-Serif" font-size="10.00">Double.h</text>
</a>
</g>
</g>
<!-- Node1&#45;&gt;Node6 -->
<g id="edge5" class="edge">
<title>Node1&#45;&gt;Node6</title>
<path fill="none" stroke="midnightblue" d="M206.87,-336.44C182.52,-327.44 143.99,-313.19 116.58,-303.05"/>
<polygon fill="midnightblue" stroke="midnightblue" points="117.62,-299.7 107.03,-299.52 115.19,-306.27 117.62,-299.7"/>
</g>
<!-- Node24 -->
<g id="node24" class="node">
<title>Node24</title>
<g id="a_node24"><a xlink:href="Nom_8h.html" target="_top" xlink:title=" ">
<polygon fill="white" stroke="black" points="294.5,-280.5 294.5,-299.5 343.5,-299.5 343.5,-280.5 294.5,-280.5"/>
<text text-anchor="middle" x="319" y="-287.5" font-family="Helvetica,sans-Serif" font-size="10.00">Nom.h</text>
</a>
</g>
</g>
<!-- Node1&#45;&gt;Node24 -->
<g id="edge32" class="edge">
<title>Node1&#45;&gt;Node24</title>
<path fill="none" stroke="midnightblue" d="M244.3,-336.32C258.18,-327.9 279.49,-314.97 295.8,-305.07"/>
<polygon fill="midnightblue" stroke="midnightblue" points="298,-307.83 304.74,-299.65 294.37,-301.85 298,-307.83"/>
</g>
<!-- Node26 -->
<g id="node26" class="node">
<title>Node26</title>
<g id="a_node26"><a xlink:href="TRUSTList_8tpp.html" target="_top" xlink:title=" ">
<polygon fill="white" stroke="black" points="361.5,-280.5 361.5,-299.5 446.5,-299.5 446.5,-280.5 361.5,-280.5"/>
<text text-anchor="middle" x="404" y="-287.5" font-family="Helvetica,sans-Serif" font-size="10.00">TRUSTList.tpp</text>
</a>
</g>
</g>
<!-- Node1&#45;&gt;Node26 -->
<g id="edge36" class="edge">
<title>Node1&#45;&gt;Node26</title>
<path fill="none" stroke="midnightblue" d="M257.57,-336.44C287.1,-327.28 334.12,-312.69 366.88,-302.52"/>
<polygon fill="midnightblue" stroke="midnightblue" points="368.04,-305.82 376.56,-299.52 365.97,-299.14 368.04,-305.82"/>
</g>
<!-- Node3 -->
<g id="node3" class="node">
<title>Node3</title>
<g id="a_node3"><a xlink:title=" ">
<polygon fill="white" stroke="#bfbfbf" points="148,-56.5 148,-75.5 204,-75.5 204,-56.5 148,-56.5"/>
<text text-anchor="middle" x="176" y="-63.5" font-family="Helvetica,sans-Serif" font-size="10.00">assert.h</text>
</a>
</g>
</g>
<!-- Node2&#45;&gt;Node3 -->
<g id="edge2" class="edge">
<title>Node2&#45;&gt;Node3</title>
<path fill="none" stroke="midnightblue" d="M113.89,-112.32C125.15,-104.11 142.29,-91.6 155.71,-81.81"/>
<polygon fill="midnightblue" stroke="midnightblue" points="157.88,-84.56 163.89,-75.83 153.75,-78.9 157.88,-84.56"/>
</g>
<!-- Node4 -->
<g id="node4" class="node">
<title>Node4</title>
<g id="a_node4"><a xlink:href="arch_8h.html" target="_top" xlink:title=" ">
<polygon fill="white" stroke="black" points="80.5,-56.5 80.5,-75.5 127.5,-75.5 127.5,-56.5 80.5,-56.5"/>
<text text-anchor="middle" x="104" y="-63.5" font-family="Helvetica,sans-Serif" font-size="10.00">arch.h</text>
</a>
</g>
</g>
<!-- Node2&#45;&gt;Node4 -->
<g id="edge3" class="edge">
<title>Node2&#45;&gt;Node4</title>
<path fill="none" stroke="midnightblue" d="M102.33,-112.08C102.59,-105.01 102.97,-94.86 103.3,-85.99"/>
<polygon fill="midnightblue" stroke="midnightblue" points="106.8,-85.87 103.68,-75.75 99.81,-85.61 106.8,-85.87"/>
</g>
<!-- Node5 -->
<g id="node5" class="node">
<title>Node5</title>
<g id="a_node5"><a xlink:href="generique_8h.html" target="_top" xlink:title=" ">
<polygon fill="white" stroke="black" points="67,-0.5 67,-19.5 141,-19.5 141,-0.5 67,-0.5"/>
<text text-anchor="middle" x="104" y="-7.5" font-family="Helvetica,sans-Serif" font-size="10.00">generique.h</text>
</a>
</g>
</g>
<!-- Node4&#45;&gt;Node5 -->
<g id="edge4" class="edge">
<title>Node4&#45;&gt;Node5</title>
<path fill="none" stroke="midnightblue" d="M104,-56.08C104,-49.01 104,-38.86 104,-29.99"/>
<polygon fill="midnightblue" stroke="midnightblue" points="107.5,-29.75 104,-19.75 100.5,-29.75 107.5,-29.75"/>
</g>
<!-- Node7 -->
<g id="node7" class="node">
<title>Node7</title>
<g id="a_node7"><a xlink:href="blas1_8h.html" target="_top" xlink:title=" ">
<polygon fill="white" stroke="black" points="0,-168.5 0,-187.5 52,-187.5 52,-168.5 0,-168.5"/>
<text text-anchor="middle" x="26" y="-175.5" font-family="Helvetica,sans-Serif" font-size="10.00">blas1.h</text>
</a>
</g>
</g>
<!-- Node6&#45;&gt;Node7 -->
<g id="edge6" class="edge">
<title>Node6&#45;&gt;Node7</title>
<path fill="none" stroke="midnightblue" d="M76.42,-280.17C69.19,-271.43 58.34,-257.43 51,-244 42.85,-229.08 36.11,-210.94 31.69,-197.61"/>
<polygon fill="midnightblue" stroke="midnightblue" points="34.91,-196.2 28.54,-187.73 28.24,-198.33 34.91,-196.2"/>
</g>
<!-- Node8 -->
<g id="node8" class="node">
<title>Node8</title>
<g id="a_node8"><a xlink:href="Objet__U_8h.html" target="_top" xlink:title=" ">
<polygon fill="white" stroke="black" points="286.5,-224.5 286.5,-243.5 351.5,-243.5 351.5,-224.5 286.5,-224.5"/>
<text text-anchor="middle" x="319" y="-231.5" font-family="Helvetica,sans-Serif" font-size="10.00">Objet_U.h</text>
</a>
</g>
</g>
<!-- Node6&#45;&gt;Node8 -->
<g id="edge8" class="edge">
<title>Node6&#45;&gt;Node8</title>
<path fill="none" stroke="midnightblue" d="M114.24,-282.05C155.47,-272.58 229.54,-255.56 276.38,-244.79"/>
<polygon fill="midnightblue" stroke="midnightblue" points="277.27,-248.18 286.23,-242.53 275.7,-241.36 277.27,-248.18"/>
</g>
<!-- Node23 -->
<g id="node23" class="node">
<title>Node23</title>
<g id="a_node23"><a xlink:title=" ">
<polygon fill="white" stroke="#bfbfbf" points="60.5,-224.5 60.5,-243.5 107.5,-243.5 107.5,-224.5 60.5,-224.5"/>
<text text-anchor="middle" x="84" y="-231.5" font-family="Helvetica,sans-Serif" font-size="10.00">cmath</text>
</a>
</g>
</g>
<!-- Node6&#45;&gt;Node23 -->
<g id="edge31" class="edge">
<title>Node6&#45;&gt;Node23</title>
<path fill="none" stroke="midnightblue" d="M84,-280.08C84,-273.01 84,-262.86 84,-253.99"/>
<polygon fill="midnightblue" stroke="midnightblue" points="87.5,-253.75 84,-243.75 80.5,-253.75 87.5,-253.75"/>
</g>
<!-- Node7&#45;&gt;Node4 -->
<g id="edge7" class="edge">
<title>Node7&#45;&gt;Node4</title>
<path fill="none" stroke="midnightblue" d="M26.46,-168.25C27.52,-155.01 31.09,-129.57 43,-112 51.76,-99.06 65.52,-88.45 77.75,-80.78"/>
<polygon fill="midnightblue" stroke="midnightblue" points="79.87,-83.6 86.7,-75.5 76.31,-77.57 79.87,-83.6"/>
</g>
<!-- Node8&#45;&gt;Node3 -->
<g id="edge9" class="edge">
<title>Node8&#45;&gt;Node3</title>
<path fill="none" stroke="midnightblue" d="M304.27,-224.32C279.2,-208.83 228.14,-174.09 199,-132 189.31,-118.01 183.29,-99.51 179.85,-85.82"/>
<polygon fill="midnightblue" stroke="midnightblue" points="183.17,-84.64 177.55,-75.66 176.35,-86.19 183.17,-84.64"/>
</g>
<!-- Node9 -->
<g id="node9" class="node">
<title>Node9</title>
<g id="a_node9"><a xlink:href="DecBaseInst_8h.html" target="_top" xlink:title=" ">
<polygon fill="white" stroke="black" points="621,-168.5 621,-187.5 707,-187.5 707,-168.5 621,-168.5"/>
<text text-anchor="middle" x="664" y="-175.5" font-family="Helvetica,sans-Serif" font-size="10.00">DecBaseInst.h</text>
</a>
</g>
</g>
<!-- Node8&#45;&gt;Node9 -->
<g id="edge10" class="edge">
<title>Node8&#45;&gt;Node9</title>
<path fill="none" stroke="midnightblue" d="M351.77,-227.87C411.4,-218.54 538.18,-198.69 610.5,-187.37"/>
<polygon fill="midnightblue" stroke="midnightblue" points="611.43,-190.77 620.77,-185.77 610.35,-183.86 611.43,-190.77"/>
</g>
<!-- Node14 -->
<g id="node14" class="node">
<title>Node14</title>
<g id="a_node14"><a xlink:href="EntreeSortie_8h.html" target="_top" xlink:title=" ">
<polygon fill="white" stroke="black" points="276,-168.5 276,-187.5 362,-187.5 362,-168.5 276,-168.5"/>
<text text-anchor="middle" x="319" y="-175.5" font-family="Helvetica,sans-Serif" font-size="10.00">EntreeSortie.h</text>
</a>
</g>
</g>
<!-- Node8&#45;&gt;Node14 -->
<g id="edge16" class="edge">
<title>Node8&#45;&gt;Node14</title>
<path fill="none" stroke="midnightblue" d="M319,-224.08C319,-217.01 319,-206.86 319,-197.99"/>
<polygon fill="midnightblue" stroke="midnightblue" points="322.5,-197.75 319,-187.75 315.5,-197.75 322.5,-197.75"/>
</g>
<!-- Node19 -->
<g id="node19" class="node">
<title>Node19</title>
<g id="a_node19"><a xlink:href="Process_8h.html" target="_top" xlink:title=" ">
<polygon fill="white" stroke="black" points="494.5,-56.5 494.5,-75.5 557.5,-75.5 557.5,-56.5 494.5,-56.5"/>
<text text-anchor="middle" x="526" y="-63.5" font-family="Helvetica,sans-Serif" font-size="10.00">Process.h</text>
</a>
</g>
</g>
<!-- Node8&#45;&gt;Node19 -->
<g id="edge30" class="edge">
<title>Node8&#45;&gt;Node19</title>
<path fill="none" stroke="midnightblue" d="M329.84,-224.31C363.3,-197.47 465.28,-115.69 507.45,-81.88"/>
<polygon fill="midnightblue" stroke="midnightblue" points="509.66,-84.59 515.27,-75.61 505.28,-79.13 509.66,-84.59"/>
</g>
<!-- Node10 -->
<g id="node10" class="node">
<title>Node10</title>
<g id="a_node10"><a xlink:href="Cast_8h.html" target="_top" xlink:title=" ">
<polygon fill="white" stroke="black" points="749.5,-56.5 749.5,-75.5 796.5,-75.5 796.5,-56.5 749.5,-56.5"/>
<text text-anchor="middle" x="773" y="-63.5" font-family="Helvetica,sans-Serif" font-size="10.00">Cast.h</text>
</a>
</g>
</g>
<!-- Node9&#45;&gt;Node10 -->
<g id="edge11" class="edge">
<title>Node9&#45;&gt;Node10</title>
<path fill="none" stroke="midnightblue" d="M675.93,-168.3C687.46,-159.65 705.16,-145.73 719,-132 734.37,-116.74 749.98,-97.46 760.43,-83.87"/>
<polygon fill="midnightblue" stroke="midnightblue" points="763.25,-85.95 766.5,-75.87 757.67,-81.72 763.25,-85.95"/>
</g>
<!-- Node11 -->
<g id="node11" class="node">
<title>Node11</title>
<g id="a_node11"><a xlink:href="Type__info_8h.html" target="_top" xlink:title=" ">
<polygon fill="white" stroke="black" points="528,-112.5 528,-131.5 600,-131.5 600,-112.5 528,-112.5"/>
<text text-anchor="middle" x="564" y="-119.5" font-family="Helvetica,sans-Serif" font-size="10.00">Type_info.h</text>
</a>
</g>
</g>
<!-- Node9&#45;&gt;Node11 -->
<g id="edge12" class="edge">
<title>Node9&#45;&gt;Node11</title>
<path fill="none" stroke="midnightblue" d="M647.93,-168.32C632.04,-159.74 607.49,-146.49 589.04,-136.52"/>
<polygon fill="midnightblue" stroke="midnightblue" points="590.49,-133.33 580.03,-131.65 587.16,-139.49 590.49,-133.33"/>
</g>
<!-- Node12 -->
<g id="node12" class="node">
<title>Node12</title>
<g id="a_node12"><a xlink:href="Declare__Base_8h.html" target="_top" xlink:title=" ">
<polygon fill="white" stroke="black" points="618,-112.5 618,-131.5 710,-131.5 710,-112.5 618,-112.5"/>
<text text-anchor="middle" x="664" y="-119.5" font-family="Helvetica,sans-Serif" font-size="10.00">Declare_Base.h</text>
</a>
</g>
</g>
<!-- Node9&#45;&gt;Node12 -->
<g id="edge13" class="edge">
<title>Node9&#45;&gt;Node12</title>
<path fill="none" stroke="midnightblue" d="M664,-168.08C664,-161.01 664,-150.86 664,-141.99"/>
<polygon fill="midnightblue" stroke="midnightblue" points="667.5,-141.75 664,-131.75 660.5,-141.75 667.5,-141.75"/>
</g>
<!-- Node13 -->
<g id="node13" class="node">
<title>Node13</title>
<g id="a_node13"><a xlink:href="Declare__Inst_8h.html" target="_top" xlink:title=" ">
<polygon fill="white" stroke="black" points="766,-112.5 766,-131.5 852,-131.5 852,-112.5 766,-112.5"/>
<text text-anchor="middle" x="809" y="-119.5" font-family="Helvetica,sans-Serif" font-size="10.00">Declare_Inst.h</text>
</a>
</g>
</g>
<!-- Node9&#45;&gt;Node13 -->
<g id="edge14" class="edge">
<title>Node9&#45;&gt;Node13</title>
<path fill="none" stroke="midnightblue" d="M686.98,-168.44C711.16,-159.44 749.42,-145.19 776.65,-135.05"/>
<polygon fill="midnightblue" stroke="midnightblue" points="777.98,-138.29 786.13,-131.52 775.54,-131.73 777.98,-138.29"/>
</g>
<!-- Node13&#45;&gt;Node10 -->
<g id="edge15" class="edge">
<title>Node13&#45;&gt;Node10</title>
<path fill="none" stroke="midnightblue" d="M803.06,-112.08C798.02,-104.53 790.66,-93.49 784.49,-84.23"/>
<polygon fill="midnightblue" stroke="midnightblue" points="787.29,-82.13 778.83,-75.75 781.47,-86.01 787.29,-82.13"/>
</g>
<!-- Node15 -->
<g id="node15" class="node">
<title>Node15</title>
<g id="a_node15"><a xlink:href="Entree_8h.html" target="_top" xlink:title=" ">
<polygon fill="white" stroke="black" points="376.5,-112.5 376.5,-131.5 433.5,-131.5 433.5,-112.5 376.5,-112.5"/>
<text text-anchor="middle" x="405" y="-119.5" font-family="Helvetica,sans-Serif" font-size="10.00">Entree.h</text>
</a>
</g>
</g>
<!-- Node14&#45;&gt;Node15 -->
<g id="edge17" class="edge">
<title>Node14&#45;&gt;Node15</title>
<path fill="none" stroke="midnightblue" d="M332.82,-168.32C346.23,-159.9 366.82,-146.97 382.59,-137.07"/>
<polygon fill="midnightblue" stroke="midnightblue" points="384.61,-139.94 391.22,-131.65 380.89,-134.01 384.61,-139.94"/>
</g>
<!-- Node20 -->
<g id="node20" class="node">
<title>Node20</title>
<g id="a_node20"><a xlink:href="Sortie_8h.html" target="_top" xlink:title=" ">
<polygon fill="white" stroke="black" points="208,-112.5 208,-131.5 262,-131.5 262,-112.5 208,-112.5"/>
<text text-anchor="middle" x="235" y="-119.5" font-family="Helvetica,sans-Serif" font-size="10.00">Sortie.h</text>
</a>
</g>
</g>
<!-- Node14&#45;&gt;Node20 -->
<g id="edge24" class="edge">
<title>Node14&#45;&gt;Node20</title>
<path fill="none" stroke="midnightblue" d="M305.5,-168.32C292.4,-159.9 272.29,-146.97 256.89,-137.07"/>
<polygon fill="midnightblue" stroke="midnightblue" points="258.77,-134.12 248.46,-131.65 254.98,-140.01 258.77,-134.12"/>
</g>
<!-- Node22 -->
<g id="node22" class="node">
<title>Node22</title>
<g id="a_node22"><a xlink:href="Separateur_8h.html" target="_top" xlink:title=" ">
<polygon fill="white" stroke="black" points="280,-112.5 280,-131.5 358,-131.5 358,-112.5 280,-112.5"/>
<text text-anchor="middle" x="319" y="-119.5" font-family="Helvetica,sans-Serif" font-size="10.00">Separateur.h</text>
</a>
</g>
</g>
<!-- Node14&#45;&gt;Node22 -->
<g id="edge29" class="edge">
<title>Node14&#45;&gt;Node22</title>
<path fill="none" stroke="midnightblue" d="M319,-168.08C319,-161.01 319,-150.86 319,-141.99"/>
<polygon fill="midnightblue" stroke="midnightblue" points="322.5,-141.75 319,-131.75 315.5,-141.75 322.5,-141.75"/>
</g>
<!-- Node15&#45;&gt;Node3 -->
<g id="edge21" class="edge">
<title>Node15&#45;&gt;Node3</title>
<path fill="none" stroke="midnightblue" d="M376.37,-114.21C373.21,-113.46 370.04,-112.71 367,-112 301.65,-96.62 283.02,-92.65 214.31,-76.3"/>
<polygon fill="midnightblue" stroke="midnightblue" points="214.81,-72.82 204.28,-73.91 213.19,-79.63 214.81,-72.82"/>
</g>
<!-- Node15&#45;&gt;Node4 -->
<g id="edge23" class="edge">
<title>Node15&#45;&gt;Node4</title>
<path fill="none" stroke="midnightblue" d="M376.42,-113.98C373.25,-113.28 370.06,-112.6 367,-112 266.35,-92.16 239.46,-96.8 139,-76 138.54,-75.9 138.08,-75.81 137.61,-75.71"/>
<polygon fill="midnightblue" stroke="midnightblue" points="138.18,-72.25 127.65,-73.41 136.61,-79.07 138.18,-72.25"/>
</g>
<!-- Node16 -->
<g id="node16" class="node">
<title>Node16</title>
<g id="a_node16"><a xlink:title=" ">
<polygon fill="white" stroke="#bfbfbf" points="300,-56.5 300,-75.5 350,-75.5 350,-56.5 300,-56.5"/>
<text text-anchor="middle" x="325" y="-63.5" font-family="Helvetica,sans-Serif" font-size="10.00">stdio.h</text>
</a>
</g>
</g>
<!-- Node15&#45;&gt;Node16 -->
<g id="edge18" class="edge">
<title>Node15&#45;&gt;Node16</title>
<path fill="none" stroke="midnightblue" d="M392.15,-112.32C379.78,-103.98 360.87,-91.21 346.26,-81.35"/>
<polygon fill="midnightblue" stroke="midnightblue" points="348.07,-78.35 337.82,-75.65 344.15,-84.15 348.07,-78.35"/>
</g>
<!-- Node17 -->
<g id="node17" class="node">
<title>Node17</title>
<g id="a_node17"><a xlink:title=" ">
<polygon fill="white" stroke="#bfbfbf" points="430,-56.5 430,-75.5 476,-75.5 476,-56.5 430,-56.5"/>
<text text-anchor="middle" x="453" y="-63.5" font-family="Helvetica,sans-Serif" font-size="10.00">cstdio</text>
</a>
</g>
</g>
<!-- Node15&#45;&gt;Node17 -->
<g id="edge19" class="edge">
<title>Node15&#45;&gt;Node17</title>
<path fill="none" stroke="midnightblue" d="M412.93,-112.08C419.85,-104.3 430.07,-92.8 438.45,-83.37"/>
<polygon fill="midnightblue" stroke="midnightblue" points="441.19,-85.55 445.22,-75.75 435.96,-80.9 441.19,-85.55"/>
</g>
<!-- Node18 -->
<g id="node18" class="node">
<title>Node18</title>
<g id="a_node18"><a xlink:title=" ">
<polygon fill="white" stroke="#bfbfbf" points="222,-56.5 222,-75.5 282,-75.5 282,-56.5 222,-56.5"/>
<text text-anchor="middle" x="252" y="-63.5" font-family="Helvetica,sans-Serif" font-size="10.00">iostream</text>
</a>
</g>
</g>
<!-- Node15&#45;&gt;Node18 -->
<g id="edge20" class="edge">
<title>Node15&#45;&gt;Node18</title>
<path fill="none" stroke="midnightblue" d="M380.76,-112.44C355.13,-103.4 314.51,-89.06 285.76,-78.92"/>
<polygon fill="midnightblue" stroke="midnightblue" points="286.72,-75.54 276.13,-75.52 284.39,-82.15 286.72,-75.54"/>
</g>
<!-- Node15&#45;&gt;Node19 -->
<g id="edge22" class="edge">
<title>Node15&#45;&gt;Node19</title>
<path fill="none" stroke="midnightblue" d="M424.17,-112.44C443.91,-103.64 474.89,-89.81 497.49,-79.72"/>
<polygon fill="midnightblue" stroke="midnightblue" points="499.21,-82.79 506.92,-75.52 496.36,-76.4 499.21,-82.79"/>
</g>
<!-- Node20&#45;&gt;Node3 -->
<g id="edge26" class="edge">
<title>Node20&#45;&gt;Node3</title>
<path fill="none" stroke="midnightblue" d="M225.52,-112.32C216.8,-104.34 203.66,-92.31 193.1,-82.65"/>
<polygon fill="midnightblue" stroke="midnightblue" points="195.39,-80 185.65,-75.83 190.67,-85.17 195.39,-80"/>
</g>
<!-- Node20&#45;&gt;Node4 -->
<g id="edge27" class="edge">
<title>Node20&#45;&gt;Node4</title>
<path fill="none" stroke="midnightblue" d="M214.24,-112.44C192.68,-103.56 158.74,-89.56 134.21,-79.45"/>
<polygon fill="midnightblue" stroke="midnightblue" points="135.24,-76.09 124.66,-75.52 132.57,-82.56 135.24,-76.09"/>
</g>
<!-- Node20&#45;&gt;Node18 -->
<g id="edge25" class="edge">
<title>Node20&#45;&gt;Node18</title>
<path fill="none" stroke="midnightblue" d="M237.81,-112.08C240.08,-104.85 243.37,-94.41 246.21,-85.4"/>
<polygon fill="midnightblue" stroke="midnightblue" points="249.58,-86.34 249.25,-75.75 242.9,-84.24 249.58,-86.34"/>
</g>
<!-- Node21 -->
<g id="node21" class="node">
<title>Node21</title>
<g id="a_node21"><a xlink:title=" ">
<polygon fill="white" stroke="#bfbfbf" points="368,-56.5 368,-75.5 412,-75.5 412,-56.5 368,-56.5"/>
<text text-anchor="middle" x="390" y="-63.5" font-family="Helvetica,sans-Serif" font-size="10.00">string</text>
</a>
</g>
</g>
<!-- Node20&#45;&gt;Node21 -->
<g id="edge28" class="edge">
<title>Node20&#45;&gt;Node21</title>
<path fill="none" stroke="midnightblue" d="M259.56,-112.44C286.13,-103.19 328.61,-88.39 357.83,-78.21"/>
<polygon fill="midnightblue" stroke="midnightblue" points="359.28,-81.41 367.57,-74.82 356.97,-74.8 359.28,-81.41"/>
</g>
<!-- Node24&#45;&gt;Node8 -->
<g id="edge33" class="edge">
<title>Node24&#45;&gt;Node8</title>
<path fill="none" stroke="midnightblue" d="M319,-280.08C319,-273.01 319,-262.86 319,-253.99"/>
<polygon fill="midnightblue" stroke="midnightblue" points="322.5,-253.75 319,-243.75 315.5,-253.75 322.5,-253.75"/>
</g>
<!-- Node24&#45;&gt;Node21 -->
<g id="edge35" class="edge">
<title>Node24&#45;&gt;Node21</title>
<path fill="none" stroke="midnightblue" d="M329.82,-280.19C355.61,-258.39 420.16,-198.81 442,-132 444.76,-123.55 445.7,-120.08 442,-112 436.22,-99.36 424.95,-88.91 414.37,-81.27"/>
<polygon fill="midnightblue" stroke="midnightblue" points="416.04,-78.18 405.78,-75.53 412.15,-84 416.04,-78.18"/>
</g>
<!-- Node25 -->
<g id="node25" class="node">
<title>Node25</title>
<g id="a_node25"><a xlink:title=" ">
<polygon fill="white" stroke="#bfbfbf" points="490,-224.5 490,-243.5 540,-243.5 540,-224.5 490,-224.5"/>
<text text-anchor="middle" x="515" y="-231.5" font-family="Helvetica,sans-Serif" font-size="10.00">cstring</text>
</a>
</g>
</g>
<!-- Node24&#45;&gt;Node25 -->
<g id="edge34" class="edge">
<title>Node24&#45;&gt;Node25</title>
<path fill="none" stroke="midnightblue" d="M343.82,-282.16C378.32,-272.66 440.91,-255.41 480.09,-244.62"/>
<polygon fill="midnightblue" stroke="midnightblue" points="481.05,-247.98 489.76,-241.95 479.19,-241.24 481.05,-247.98"/>
</g>
</g>
</svg>
