<?xml version="1.0" encoding="UTF-8" standalone="no"?>
<!DOCTYPE svg PUBLIC "-//W3C//DTD SVG 1.1//EN"
 "http://www.w3.org/Graphics/SVG/1.1/DTD/svg11.dtd">
<!-- Generated by graphviz version 2.43.0 (0)
 -->
<!-- Title: src/ThHyd/Modele_turbulence_base/Turbulence_paroi_scal.h Pages: 1 -->
<svg width="3413pt" height="451pt"
 viewBox="0.00 0.00 3412.50 451.00" xmlns="http://www.w3.org/2000/svg" xmlns:xlink="http://www.w3.org/1999/xlink">
<g id="graph0" class="graph" transform="scale(1 1) rotate(0) translate(4 447)">
<title>src/ThHyd/Modele_turbulence_base/Turbulence_paroi_scal.h</title>
<polygon fill="white" stroke="transparent" points="-4,4 -4,-447 3408.5,-447 3408.5,4 -4,4"/>
<!-- Node1 -->
<g id="node1" class="node">
<title>Node1</title>
<g id="a_node1"><a xlink:title=" ">
<polygon fill="#bfbfbf" stroke="black" points="2620,-412.5 2620,-442.5 2784,-442.5 2784,-412.5 2620,-412.5"/>
<text text-anchor="start" x="2628" y="-430.5" font-family="Helvetica,sans-Serif" font-size="10.00">src/ThHyd/Modele_turbulence</text>
<text text-anchor="middle" x="2702" y="-419.5" font-family="Helvetica,sans-Serif" font-size="10.00">_base/Turbulence_paroi_scal.h</text>
</a>
</g>
</g>
<!-- Node2 -->
<g id="node2" class="node">
<title>Node2</title>
<g id="a_node2"><a xlink:href="Modele__turbulence__scal__base_8h.html" target="_top" xlink:title=" ">
<polygon fill="white" stroke="black" points="1275.5,-334.5 1275.5,-375.5 1436.5,-375.5 1436.5,-334.5 1275.5,-334.5"/>
<text text-anchor="start" x="1283.5" y="-363.5" font-family="Helvetica,sans-Serif" font-size="10.00">src/ThHyd/Modele_turbulence</text>
<text text-anchor="start" x="1283.5" y="-352.5" font-family="Helvetica,sans-Serif" font-size="10.00">_base/Modele_turbulence</text>
<text text-anchor="middle" x="1356" y="-341.5" font-family="Helvetica,sans-Serif" font-size="10.00">_scal_base.h</text>
</a>
</g>
</g>
<!-- Node1&#45;&gt;Node2 -->
<g id="edge1" class="edge">
<title>Node1&#45;&gt;Node2</title>
<path fill="none" stroke="midnightblue" d="M2609.69,-421.66C2359.68,-408.57 1672.48,-372.58 1436.67,-360.23"/>
<polygon fill="midnightblue" stroke="midnightblue" points="2609.66,-425.17 2619.83,-422.2 2610.02,-418.18 2609.66,-425.17"/>
</g>
<!-- Node12 -->
<g id="node12" class="node">
<title>Node12</title>
<g id="a_node12"><a xlink:href="Turbulence__paroi__scal_8cpp.html" target="_top" xlink:title=" ">
<polygon fill="white" stroke="black" points="0,-256.5 0,-286.5 176,-286.5 176,-256.5 0,-256.5"/>
<text text-anchor="start" x="8" y="-274.5" font-family="Helvetica,sans-Serif" font-size="10.00">src/ThHyd/Modele_turbulence</text>
<text text-anchor="middle" x="88" y="-263.5" font-family="Helvetica,sans-Serif" font-size="10.00">_base/Turbulence_paroi_scal.cpp</text>
</a>
</g>
</g>
<!-- Node1&#45;&gt;Node12 -->
<g id="edge29" class="edge">
<title>Node1&#45;&gt;Node12</title>
<path fill="none" stroke="midnightblue" d="M2609.45,-424.59C2214.13,-415.99 665.52,-377.79 185,-298 168.34,-295.23 150.38,-290.9 134.49,-286.59"/>
<polygon fill="midnightblue" stroke="midnightblue" points="2609.62,-428.09 2619.69,-424.81 2609.77,-421.09 2609.62,-428.09"/>
</g>
<!-- Node29 -->
<g id="node29" class="node">
<title>Node29</title>
<g id="a_node29"><a xlink:href="Ref__Turbulence__paroi__scal_8cpp.html" target="_top" xlink:title=" ">
<polygon fill="white" stroke="black" points="3016.5,-334.5 3016.5,-375.5 3177.5,-375.5 3177.5,-334.5 3016.5,-334.5"/>
<text text-anchor="start" x="3024.5" y="-363.5" font-family="Helvetica,sans-Serif" font-size="10.00">src/ThHyd/Modele_turbulence</text>
<text text-anchor="start" x="3024.5" y="-352.5" font-family="Helvetica,sans-Serif" font-size="10.00">_base/Ref_Turbulence_paroi</text>
<text text-anchor="middle" x="3097" y="-341.5" font-family="Helvetica,sans-Serif" font-size="10.00">_scal.cpp</text>
</a>
</g>
</g>
<!-- Node1&#45;&gt;Node29 -->
<g id="edge28" class="edge">
<title>Node1&#45;&gt;Node29</title>
<path fill="none" stroke="midnightblue" d="M2794.03,-412.6C2854.67,-403.12 2935.75,-389.8 3007,-376 3009.99,-375.42 3013.02,-374.82 3016.09,-374.2"/>
<polygon fill="midnightblue" stroke="midnightblue" points="2793.44,-409.15 2784.1,-414.15 2794.52,-416.07 2793.44,-409.15"/>
</g>
<!-- Node30 -->
<g id="node30" class="node">
<title>Node30</title>
<g id="a_node30"><a xlink:href="Eval__Dift__VDF__Elem__leaves_8h.html" target="_top" xlink:title=" ">
<polygon fill="white" stroke="black" points="2780.5,-162 2780.5,-203 2921.5,-203 2921.5,-162 2780.5,-162"/>
<text text-anchor="start" x="2788.5" y="-191" font-family="Helvetica,sans-Serif" font-size="10.00">src/VDF/Operateurs</text>
<text text-anchor="start" x="2788.5" y="-180" font-family="Helvetica,sans-Serif" font-size="10.00">/Eval_Diff_Dift/Eval</text>
<text text-anchor="middle" x="2851" y="-169" font-family="Helvetica,sans-Serif" font-size="10.00">_Dift_VDF_Elem_leaves.h</text>
</a>
</g>
</g>
<!-- Node1&#45;&gt;Node30 -->
<g id="edge30" class="edge">
<title>Node1&#45;&gt;Node30</title>
<path fill="none" stroke="midnightblue" d="M2697.57,-402.14C2692.17,-364.68 2687.48,-292.29 2721,-245 2735.29,-224.83 2757.97,-211.07 2780.42,-201.77"/>
<polygon fill="midnightblue" stroke="midnightblue" points="2694.13,-402.83 2699.15,-412.16 2701.05,-401.74 2694.13,-402.83"/>
</g>
<!-- Node31 -->
<g id="node31" class="node">
<title>Node31</title>
<g id="a_node31"><a xlink:href="Eval__Turbulence_8h.html" target="_top" xlink:title=" ">
<polygon fill="white" stroke="black" points="2887.5,-334.5 2887.5,-375.5 2998.5,-375.5 2998.5,-334.5 2887.5,-334.5"/>
<text text-anchor="start" x="2895.5" y="-363.5" font-family="Helvetica,sans-Serif" font-size="10.00">src/VDF/Operateurs</text>
<text text-anchor="start" x="2895.5" y="-352.5" font-family="Helvetica,sans-Serif" font-size="10.00">/Eval_Diff_Dift/Eval</text>
<text text-anchor="middle" x="2943" y="-341.5" font-family="Helvetica,sans-Serif" font-size="10.00">_Turbulence.h</text>
</a>
</g>
</g>
<!-- Node1&#45;&gt;Node31 -->
<g id="edge32" class="edge">
<title>Node1&#45;&gt;Node31</title>
<path fill="none" stroke="midnightblue" d="M2759.95,-409.55C2798.55,-398.26 2849,-383.5 2887.16,-372.33"/>
<polygon fill="midnightblue" stroke="midnightblue" points="2758.52,-406.32 2749.9,-412.49 2760.48,-413.04 2758.52,-406.32"/>
</g>
<!-- Node3 -->
<g id="node3" class="node">
<title>Node3</title>
<g id="a_node3"><a xlink:href="Op__Diff__PolyMAC__Elem_8cpp.html" target="_top" xlink:title=" ">
<polygon fill="white" stroke="black" points="1596.5,-256.5 1596.5,-286.5 1751.5,-286.5 1751.5,-256.5 1596.5,-256.5"/>
<text text-anchor="start" x="1604.5" y="-274.5" font-family="Helvetica,sans-Serif" font-size="10.00">src/PolyMAC/Operateurs</text>
<text text-anchor="middle" x="1674" y="-263.5" font-family="Helvetica,sans-Serif" font-size="10.00">/Op_Diff_PolyMAC_Elem.cpp</text>
</a>
</g>
</g>
<!-- Node2&#45;&gt;Node3 -->
<g id="edge2" class="edge">
<title>Node2&#45;&gt;Node3</title>
<path fill="none" stroke="midnightblue" d="M1446.5,-333.11C1489.23,-322.97 1540.86,-310.35 1587,-298 1600.23,-294.46 1614.51,-290.38 1627.61,-286.54"/>
<polygon fill="midnightblue" stroke="midnightblue" points="1445.61,-329.72 1436.68,-335.43 1447.22,-336.53 1445.61,-329.72"/>
</g>
<!-- Node4 -->
<g id="node4" class="node">
<title>Node4</title>
<g id="a_node4"><a xlink:href="Op__Diff__PolyMAC__P0__Elem_8cpp.html" target="_top" xlink:title=" ">
<polygon fill="white" stroke="black" points="1770,-256.5 1770,-286.5 1942,-286.5 1942,-256.5 1770,-256.5"/>
<text text-anchor="start" x="1778" y="-274.5" font-family="Helvetica,sans-Serif" font-size="10.00">src/PolyMAC/Operateurs</text>
<text text-anchor="middle" x="1856" y="-263.5" font-family="Helvetica,sans-Serif" font-size="10.00">/Op_Diff_PolyMAC_P0_Elem.cpp</text>
</a>
</g>
</g>
<!-- Node2&#45;&gt;Node4 -->
<g id="edge3" class="edge">
<title>Node2&#45;&gt;Node4</title>
<path fill="none" stroke="midnightblue" d="M1446.65,-344.63C1528.88,-335.38 1653.21,-319.5 1760,-298 1775.55,-294.87 1792.33,-290.69 1807.43,-286.63"/>
<polygon fill="midnightblue" stroke="midnightblue" points="1446.14,-341.17 1436.59,-345.76 1446.91,-348.13 1446.14,-341.17"/>
</g>
<!-- Node5 -->
<g id="node5" class="node">
<title>Node5</title>
<g id="a_node5"><a xlink:href="Op__Diff__PolyMAC__P0__base_8cpp.html" target="_top" xlink:title=" ">
<polygon fill="white" stroke="black" points="1960,-256.5 1960,-286.5 2130,-286.5 2130,-256.5 1960,-256.5"/>
<text text-anchor="start" x="1968" y="-274.5" font-family="Helvetica,sans-Serif" font-size="10.00">src/PolyMAC/Operateurs</text>
<text text-anchor="middle" x="2045" y="-263.5" font-family="Helvetica,sans-Serif" font-size="10.00">/Op_Diff_PolyMAC_P0_base.cpp</text>
</a>
</g>
</g>
<!-- Node2&#45;&gt;Node5 -->
<g id="edge4" class="edge">
<title>Node2&#45;&gt;Node5</title>
<path fill="none" stroke="midnightblue" d="M1446.97,-350.28C1564.26,-344.37 1774.18,-330.06 1951,-298 1966.97,-295.1 1984.18,-290.79 1999.46,-286.54"/>
<polygon fill="midnightblue" stroke="midnightblue" points="1446.77,-346.78 1436.96,-350.77 1447.12,-353.77 1446.77,-346.78"/>
</g>
<!-- Node6 -->
<g id="node6" class="node">
<title>Node6</title>
<g id="a_node6"><a xlink:href="Op__Diff__PolyMAC__base_8cpp.html" target="_top" xlink:title=" ">
<polygon fill="white" stroke="black" points="2148.5,-256.5 2148.5,-286.5 2301.5,-286.5 2301.5,-256.5 2148.5,-256.5"/>
<text text-anchor="start" x="2156.5" y="-274.5" font-family="Helvetica,sans-Serif" font-size="10.00">src/PolyMAC/Operateurs</text>
<text text-anchor="middle" x="2225" y="-263.5" font-family="Helvetica,sans-Serif" font-size="10.00">/Op_Diff_PolyMAC_base.cpp</text>
</a>
</g>
</g>
<!-- Node2&#45;&gt;Node6 -->
<g id="edge5" class="edge">
<title>Node2&#45;&gt;Node6</title>
<path fill="none" stroke="midnightblue" d="M1447.06,-353.86C1593.88,-352.22 1891.51,-342.99 2139,-298 2154.02,-295.27 2170.14,-290.89 2184.32,-286.53"/>
<polygon fill="midnightblue" stroke="midnightblue" points="1446.71,-350.36 1436.75,-353.97 1446.78,-357.36 1446.71,-350.36"/>
</g>
<!-- Node7 -->
<g id="node7" class="node">
<title>Node7</title>
<g id="a_node7"><a xlink:href="Modele__turbulence__scal_8h.html" target="_top" xlink:title=" ">
<polygon fill="white" stroke="black" points="2319.5,-256.5 2319.5,-286.5 2494.5,-286.5 2494.5,-256.5 2319.5,-256.5"/>
<text text-anchor="start" x="2327.5" y="-274.5" font-family="Helvetica,sans-Serif" font-size="10.00">src/ThHyd/Modele_turbulence</text>
<text text-anchor="middle" x="2407" y="-263.5" font-family="Helvetica,sans-Serif" font-size="10.00">_base/Modele_turbulence_scal.h</text>
</a>
</g>
</g>
<!-- Node2&#45;&gt;Node7 -->
<g id="edge6" class="edge">
<title>Node2&#45;&gt;Node7</title>
<path fill="none" stroke="midnightblue" d="M1446.85,-354.64C1617.23,-354.52 1995.89,-348 2310,-298 2326.85,-295.32 2345.02,-290.95 2361.02,-286.58"/>
<polygon fill="midnightblue" stroke="midnightblue" points="1446.67,-351.14 1436.67,-354.64 1446.67,-358.14 1446.67,-351.14"/>
</g>
<!-- Node10 -->
<g id="node10" class="node">
<title>Node10</title>
<g id="a_node10"><a xlink:href="Modele__turbulence__scal__base_8cpp.html" target="_top" xlink:title=" ">
<polygon fill="white" stroke="black" points="2512.5,-251 2512.5,-292 2673.5,-292 2673.5,-251 2512.5,-251"/>
<text text-anchor="start" x="2520.5" y="-280" font-family="Helvetica,sans-Serif" font-size="10.00">src/ThHyd/Modele_turbulence</text>
<text text-anchor="start" x="2520.5" y="-269" font-family="Helvetica,sans-Serif" font-size="10.00">_base/Modele_turbulence</text>
<text text-anchor="middle" x="2593" y="-258" font-family="Helvetica,sans-Serif" font-size="10.00">_scal_base.cpp</text>
</a>
</g>
</g>
<!-- Node2&#45;&gt;Node10 -->
<g id="edge9" class="edge">
<title>Node2&#45;&gt;Node10</title>
<path fill="none" stroke="midnightblue" d="M1446.77,-352.23C1680.76,-347.24 2300.29,-331.22 2503,-298 2512.13,-296.5 2521.66,-294.41 2530.96,-292.06"/>
<polygon fill="midnightblue" stroke="midnightblue" points="1446.52,-348.74 1436.59,-352.45 1446.67,-355.73 1446.52,-348.74"/>
</g>
<!-- Node11 -->
<g id="node11" class="node">
<title>Node11</title>
<g id="a_node11"><a xlink:href="Ref__Modele__turbulence__scal__base_8cpp.html" target="_top" xlink:title=" ">
<polygon fill="white" stroke="black" points="194.5,-251 194.5,-292 357.5,-292 357.5,-251 194.5,-251"/>
<text text-anchor="start" x="202.5" y="-280" font-family="Helvetica,sans-Serif" font-size="10.00">src/ThHyd/Modele_turbulence</text>
<text text-anchor="start" x="202.5" y="-269" font-family="Helvetica,sans-Serif" font-size="10.00">_base/Ref_Modele_turbulence</text>
<text text-anchor="middle" x="276" y="-258" font-family="Helvetica,sans-Serif" font-size="10.00">_scal_base.cpp</text>
</a>
</g>
</g>
<!-- Node2&#45;&gt;Node11 -->
<g id="edge10" class="edge">
<title>Node2&#45;&gt;Node11</title>
<path fill="none" stroke="midnightblue" d="M1265.14,-351.41C1054.44,-345 537.42,-326.77 366,-298 357.03,-296.49 347.68,-294.43 338.54,-292.12"/>
<polygon fill="midnightblue" stroke="midnightblue" points="1265.15,-354.91 1275.25,-351.72 1265.36,-347.92 1265.15,-354.91"/>
</g>
<!-- Node2&#45;&gt;Node12 -->
<g id="edge11" class="edge">
<title>Node2&#45;&gt;Node12</title>
<path fill="none" stroke="midnightblue" d="M1265.07,-352.11C1027.59,-346.79 392.76,-329.92 185,-298 167.96,-295.38 149.59,-290.98 133.48,-286.56"/>
<polygon fill="midnightblue" stroke="midnightblue" points="1265.32,-355.62 1275.4,-352.34 1265.48,-348.62 1265.32,-355.62"/>
</g>
<!-- Node13 -->
<g id="node13" class="node">
<title>Node13</title>
<g id="a_node13"><a xlink:href="Turbulence__paroi__scal__base_8cpp.html" target="_top" xlink:title=" ">
<polygon fill="white" stroke="black" points="375.5,-251 375.5,-292 536.5,-292 536.5,-251 375.5,-251"/>
<text text-anchor="start" x="383.5" y="-280" font-family="Helvetica,sans-Serif" font-size="10.00">src/ThHyd/Modele_turbulence</text>
<text text-anchor="start" x="383.5" y="-269" font-family="Helvetica,sans-Serif" font-size="10.00">_base/Turbulence_paroi_scal</text>
<text text-anchor="middle" x="456" y="-258" font-family="Helvetica,sans-Serif" font-size="10.00">_base.cpp</text>
</a>
</g>
</g>
<!-- Node2&#45;&gt;Node13 -->
<g id="edge12" class="edge">
<title>Node2&#45;&gt;Node13</title>
<path fill="none" stroke="midnightblue" d="M1265.19,-353.92C1114.44,-352.41 803.51,-343.44 545,-298 536.13,-296.44 526.89,-294.35 517.85,-292.02"/>
<polygon fill="midnightblue" stroke="midnightblue" points="1265.29,-357.42 1275.32,-354.01 1265.35,-350.42 1265.29,-357.42"/>
</g>
<!-- Node14 -->
<g id="node14" class="node">
<title>Node14</title>
<g id="a_node14"><a xlink:href="Echange__contact__VDF_8cpp.html" target="_top" xlink:title=" ">
<polygon fill="white" stroke="black" points="554.5,-256.5 554.5,-286.5 703.5,-286.5 703.5,-256.5 554.5,-256.5"/>
<text text-anchor="start" x="562.5" y="-274.5" font-family="Helvetica,sans-Serif" font-size="10.00">src/VDF/Cond_Lim/Echange</text>
<text text-anchor="middle" x="629" y="-263.5" font-family="Helvetica,sans-Serif" font-size="10.00">_contact_VDF.cpp</text>
</a>
</g>
</g>
<!-- Node2&#45;&gt;Node14 -->
<g id="edge13" class="edge">
<title>Node2&#45;&gt;Node14</title>
<path fill="none" stroke="midnightblue" d="M1265,-352.02C1139.67,-347.94 907.36,-335.54 713,-298 698.48,-295.2 682.91,-290.86 669.16,-286.55"/>
<polygon fill="midnightblue" stroke="midnightblue" points="1265.21,-355.52 1275.32,-352.34 1265.43,-348.53 1265.21,-355.52"/>
</g>
<!-- Node15 -->
<g id="node15" class="node">
<title>Node15</title>
<g id="a_node15"><a xlink:href="PlaqThVDF_8cpp.html" target="_top" xlink:title=" ">
<polygon fill="white" stroke="black" points="722,-262 722,-281 902,-281 902,-262 722,-262"/>
<text text-anchor="middle" x="812" y="-269" font-family="Helvetica,sans-Serif" font-size="10.00">src/VDF/Cond_Lim/PlaqThVDF.cpp</text>
</a>
</g>
</g>
<!-- Node2&#45;&gt;Node15 -->
<g id="edge14" class="edge">
<title>Node2&#45;&gt;Node15</title>
<path fill="none" stroke="midnightblue" d="M1265.19,-345.49C1175.89,-336.41 1035.92,-320.26 916,-298 891.14,-293.39 863.34,-286.48 842.75,-281.01"/>
<polygon fill="midnightblue" stroke="midnightblue" points="1264.98,-348.99 1275.28,-346.51 1265.69,-342.03 1264.98,-348.99"/>
</g>
<!-- Node16 -->
<g id="node16" class="node">
<title>Node16</title>
<g id="a_node16"><a xlink:href="Op__Diff__Dift__VDF_8h.html" target="_top" xlink:title=" ">
<polygon fill="white" stroke="black" points="2207.5,-162 2207.5,-203 2324.5,-203 2324.5,-162 2207.5,-162"/>
<text text-anchor="start" x="2215.5" y="-191" font-family="Helvetica,sans-Serif" font-size="10.00">src/VDF/Operateurs</text>
<text text-anchor="start" x="2215.5" y="-180" font-family="Helvetica,sans-Serif" font-size="10.00">/Op_Diff_Dift/Op_Diff</text>
<text text-anchor="middle" x="2266" y="-169" font-family="Helvetica,sans-Serif" font-size="10.00">_Dift_VDF.h</text>
</a>
</g>
</g>
<!-- Node2&#45;&gt;Node16 -->
<g id="edge15" class="edge">
<title>Node2&#45;&gt;Node16</title>
<path fill="none" stroke="midnightblue" d="M1265.32,-354.79C1158.13,-353.56 989.18,-344.09 949,-298 933.52,-280.24 932.74,-262.04 949,-245 993,-198.89 1957.54,-186.46 2207.35,-184.01"/>
<polygon fill="midnightblue" stroke="midnightblue" points="1265.46,-358.29 1275.5,-354.89 1265.53,-351.29 1265.46,-358.29"/>
</g>
<!-- Node25 -->
<g id="node25" class="node">
<title>Node25</title>
<g id="a_node25"><a xlink:href="Champ__Generique__Tparoi__VEF_8cpp.html" target="_top" xlink:title=" ">
<polygon fill="white" stroke="black" points="958.5,-256.5 958.5,-286.5 1109.5,-286.5 1109.5,-256.5 958.5,-256.5"/>
<text text-anchor="start" x="966.5" y="-274.5" font-family="Helvetica,sans-Serif" font-size="10.00">src/VEF/Champs/Champ</text>
<text text-anchor="middle" x="1034" y="-263.5" font-family="Helvetica,sans-Serif" font-size="10.00">_Generique_Tparoi_VEF.cpp</text>
</a>
</g>
</g>
<!-- Node2&#45;&gt;Node25 -->
<g id="edge24" class="edge">
<title>Node2&#45;&gt;Node25</title>
<path fill="none" stroke="midnightblue" d="M1265.33,-334.09C1220.78,-323.95 1166.4,-311.03 1118,-298 1105.05,-294.51 1091.08,-290.41 1078.31,-286.53"/>
<polygon fill="midnightblue" stroke="midnightblue" points="1264.73,-337.55 1275.26,-336.34 1266.28,-330.72 1264.73,-337.55"/>
</g>
<!-- Node26 -->
<g id="node26" class="node">
<title>Node26</title>
<g id="a_node26"><a xlink:href="Champ__front__contact__VEF_8cpp.html" target="_top" xlink:title=" ">
<polygon fill="white" stroke="black" points="1127.5,-256.5 1127.5,-286.5 1260.5,-286.5 1260.5,-256.5 1127.5,-256.5"/>
<text text-anchor="start" x="1135.5" y="-274.5" font-family="Helvetica,sans-Serif" font-size="10.00">src/VEF/Champs/Champ</text>
<text text-anchor="middle" x="1194" y="-263.5" font-family="Helvetica,sans-Serif" font-size="10.00">_front_contact_VEF.cpp</text>
</a>
</g>
</g>
<!-- Node2&#45;&gt;Node26 -->
<g id="edge25" class="edge">
<title>Node2&#45;&gt;Node26</title>
<path fill="none" stroke="midnightblue" d="M1307.95,-329.83C1279.88,-315.71 1245.46,-298.39 1221.84,-286.5"/>
<polygon fill="midnightblue" stroke="midnightblue" points="1306.69,-333.11 1317.2,-334.48 1309.84,-326.86 1306.69,-333.11"/>
</g>
<!-- Node27 -->
<g id="node27" class="node">
<title>Node27</title>
<g id="a_node27"><a xlink:href="Op__Dift__Stab__VEF__Face_8cpp.html" target="_top" xlink:title=" ">
<polygon fill="white" stroke="black" points="1279,-256.5 1279,-286.5 1433,-286.5 1433,-256.5 1279,-256.5"/>
<text text-anchor="start" x="1287" y="-274.5" font-family="Helvetica,sans-Serif" font-size="10.00">src/VEF/Operateurs</text>
<text text-anchor="middle" x="1356" y="-263.5" font-family="Helvetica,sans-Serif" font-size="10.00">/Op_Dift_Stab_VEF_Face.cpp</text>
</a>
</g>
</g>
<!-- Node2&#45;&gt;Node27 -->
<g id="edge26" class="edge">
<title>Node2&#45;&gt;Node27</title>
<path fill="none" stroke="midnightblue" d="M1356,-324.03C1356,-311.26 1356,-296.97 1356,-286.68"/>
<polygon fill="midnightblue" stroke="midnightblue" points="1352.5,-324.27 1356,-334.27 1359.5,-324.27 1352.5,-324.27"/>
</g>
<!-- Node28 -->
<g id="node28" class="node">
<title>Node28</title>
<g id="a_node28"><a xlink:href="Op__Dift__VEF__Face_8cpp.html" target="_top" xlink:title=" ">
<polygon fill="white" stroke="black" points="1451.5,-256.5 1451.5,-286.5 1578.5,-286.5 1578.5,-256.5 1451.5,-256.5"/>
<text text-anchor="start" x="1459.5" y="-274.5" font-family="Helvetica,sans-Serif" font-size="10.00">src/VEF/Operateurs</text>
<text text-anchor="middle" x="1515" y="-263.5" font-family="Helvetica,sans-Serif" font-size="10.00">/Op_Dift_VEF_Face.cpp</text>
</a>
</g>
</g>
<!-- Node2&#45;&gt;Node28 -->
<g id="edge27" class="edge">
<title>Node2&#45;&gt;Node28</title>
<path fill="none" stroke="midnightblue" d="M1403.16,-329.83C1430.71,-315.71 1464.5,-298.39 1487.68,-286.5"/>
<polygon fill="midnightblue" stroke="midnightblue" points="1401.39,-326.8 1394.08,-334.48 1404.58,-333.03 1401.39,-326.8"/>
</g>
<!-- Node8 -->
<g id="node8" class="node">
<title>Node8</title>
<g id="a_node8"><a xlink:href="Modele__turbulence__scal_8cpp.html" target="_top" xlink:title=" ">
<polygon fill="white" stroke="black" points="2489.5,-162 2489.5,-203 2650.5,-203 2650.5,-162 2489.5,-162"/>
<text text-anchor="start" x="2497.5" y="-191" font-family="Helvetica,sans-Serif" font-size="10.00">src/ThHyd/Modele_turbulence</text>
<text text-anchor="start" x="2497.5" y="-180" font-family="Helvetica,sans-Serif" font-size="10.00">_base/Modele_turbulence</text>
<text text-anchor="middle" x="2570" y="-169" font-family="Helvetica,sans-Serif" font-size="10.00">_scal.cpp</text>
</a>
</g>
</g>
<!-- Node7&#45;&gt;Node8 -->
<g id="edge7" class="edge">
<title>Node7&#45;&gt;Node8</title>
<path fill="none" stroke="midnightblue" d="M2442.62,-251.49C2469.51,-237.13 2506.29,-217.51 2533.41,-203.03"/>
<polygon fill="midnightblue" stroke="midnightblue" points="2440.73,-248.53 2433.55,-256.33 2444.02,-254.71 2440.73,-248.53"/>
</g>
<!-- Node9 -->
<g id="node9" class="node">
<title>Node9</title>
<g id="a_node9"><a xlink:href="Op__Dift__VEF__base_8cpp.html" target="_top" xlink:title=" ">
<polygon fill="white" stroke="black" points="2343,-167.5 2343,-197.5 2471,-197.5 2471,-167.5 2343,-167.5"/>
<text text-anchor="start" x="2351" y="-185.5" font-family="Helvetica,sans-Serif" font-size="10.00">src/VEF/Operateurs</text>
<text text-anchor="middle" x="2407" y="-174.5" font-family="Helvetica,sans-Serif" font-size="10.00">/Op_Dift_VEF_base.cpp</text>
</a>
</g>
</g>
<!-- Node7&#45;&gt;Node9 -->
<g id="edge8" class="edge">
<title>Node7&#45;&gt;Node9</title>
<path fill="none" stroke="midnightblue" d="M2407,-246.09C2407,-230.44 2407,-210.68 2407,-197.6"/>
<polygon fill="midnightblue" stroke="midnightblue" points="2403.5,-246.13 2407,-256.13 2410.5,-246.13 2403.5,-246.13"/>
</g>
<!-- Node17 -->
<g id="node17" class="node">
<title>Node17</title>
<g id="a_node17"><a xlink:href="Op__Diff__VDF__Elem__leaves_8h.html" target="_top" xlink:title=" ">
<polygon fill="white" stroke="black" points="2138.5,-78.5 2138.5,-119.5 2257.5,-119.5 2257.5,-78.5 2138.5,-78.5"/>
<text text-anchor="start" x="2146.5" y="-107.5" font-family="Helvetica,sans-Serif" font-size="10.00">src/VDF/Operateurs</text>
<text text-anchor="start" x="2146.5" y="-96.5" font-family="Helvetica,sans-Serif" font-size="10.00">/Op_Diff_Dift/Op_Diff</text>
<text text-anchor="middle" x="2198" y="-85.5" font-family="Helvetica,sans-Serif" font-size="10.00">_VDF_Elem_leaves.h</text>
</a>
</g>
</g>
<!-- Node16&#45;&gt;Node17 -->
<g id="edge16" class="edge">
<title>Node16&#45;&gt;Node17</title>
<path fill="none" stroke="midnightblue" d="M2242.96,-153.88C2233.55,-142.61 2222.89,-129.83 2214.31,-119.55"/>
<polygon fill="midnightblue" stroke="midnightblue" points="2240.45,-156.34 2249.54,-161.77 2245.82,-151.85 2240.45,-156.34"/>
</g>
<!-- Node19 -->
<g id="node19" class="node">
<title>Node19</title>
<g id="a_node19"><a xlink:href="Op__Diff__VDF__Face__leaves_8h.html" target="_top" xlink:title=" ">
<polygon fill="white" stroke="black" points="2278.5,-78.5 2278.5,-119.5 2395.5,-119.5 2395.5,-78.5 2278.5,-78.5"/>
<text text-anchor="start" x="2286.5" y="-107.5" font-family="Helvetica,sans-Serif" font-size="10.00">src/VDF/Operateurs</text>
<text text-anchor="start" x="2286.5" y="-96.5" font-family="Helvetica,sans-Serif" font-size="10.00">/Op_Diff_Dift/Op_Diff</text>
<text text-anchor="middle" x="2337" y="-85.5" font-family="Helvetica,sans-Serif" font-size="10.00">_VDF_Face_leaves.h</text>
</a>
</g>
</g>
<!-- Node16&#45;&gt;Node19 -->
<g id="edge18" class="edge">
<title>Node16&#45;&gt;Node19</title>
<path fill="none" stroke="midnightblue" d="M2289.77,-154.21C2299.67,-142.86 2310.93,-129.93 2319.97,-119.55"/>
<polygon fill="midnightblue" stroke="midnightblue" points="2287.12,-151.93 2283.19,-161.77 2292.39,-156.53 2287.12,-151.93"/>
</g>
<!-- Node21 -->
<g id="node21" class="node">
<title>Node21</title>
<g id="a_node21"><a xlink:href="Op__Dift__VDF__Elem__leaves_8h.html" target="_top" xlink:title=" ">
<polygon fill="white" stroke="black" points="2579.5,-78.5 2579.5,-119.5 2698.5,-119.5 2698.5,-78.5 2579.5,-78.5"/>
<text text-anchor="start" x="2587.5" y="-107.5" font-family="Helvetica,sans-Serif" font-size="10.00">src/VDF/Operateurs</text>
<text text-anchor="start" x="2587.5" y="-96.5" font-family="Helvetica,sans-Serif" font-size="10.00">/Op_Diff_Dift/Op_Dift</text>
<text text-anchor="middle" x="2639" y="-85.5" font-family="Helvetica,sans-Serif" font-size="10.00">_VDF_Elem_leaves.h</text>
</a>
</g>
</g>
<!-- Node16&#45;&gt;Node21 -->
<g id="edge20" class="edge">
<title>Node16&#45;&gt;Node21</title>
<path fill="none" stroke="midnightblue" d="M2324.57,-158.8C2327.75,-157.8 2330.9,-156.86 2334,-156 2417.79,-132.79 2517.25,-116.58 2579.25,-107.77"/>
<polygon fill="midnightblue" stroke="midnightblue" points="2323.46,-155.48 2315.06,-161.93 2325.65,-162.13 2323.46,-155.48"/>
</g>
<!-- Node23 -->
<g id="node23" class="node">
<title>Node23</title>
<g id="a_node23"><a xlink:href="Op__Dift__VDF__Face__leaves_8h.html" target="_top" xlink:title=" ">
<polygon fill="white" stroke="black" points="2944.5,-78.5 2944.5,-119.5 3061.5,-119.5 3061.5,-78.5 2944.5,-78.5"/>
<text text-anchor="start" x="2952.5" y="-107.5" font-family="Helvetica,sans-Serif" font-size="10.00">src/VDF/Operateurs</text>
<text text-anchor="start" x="2952.5" y="-96.5" font-family="Helvetica,sans-Serif" font-size="10.00">/Op_Diff_Dift/Op_Dift</text>
<text text-anchor="middle" x="3003" y="-85.5" font-family="Helvetica,sans-Serif" font-size="10.00">_VDF_Face_leaves.h</text>
</a>
</g>
</g>
<!-- Node16&#45;&gt;Node23 -->
<g id="edge22" class="edge">
<title>Node16&#45;&gt;Node23</title>
<path fill="none" stroke="midnightblue" d="M2322.88,-158.88C2326.61,-157.8 2330.34,-156.82 2334,-156 2392.74,-142.79 2792.48,-114.42 2944.5,-103.97"/>
<polygon fill="midnightblue" stroke="midnightblue" points="2321.54,-155.63 2313.05,-161.96 2323.64,-162.31 2321.54,-155.63"/>
</g>
<!-- Node18 -->
<g id="node18" class="node">
<title>Node18</title>
<g id="a_node18"><a xlink:href="Op__Diff__VDF__Elem__leaves_8cpp.html" target="_top" xlink:title=" ">
<polygon fill="white" stroke="black" points="2130,-0.5 2130,-41.5 2260,-41.5 2260,-0.5 2130,-0.5"/>
<text text-anchor="start" x="2138" y="-29.5" font-family="Helvetica,sans-Serif" font-size="10.00">src/VDF/Operateurs</text>
<text text-anchor="start" x="2138" y="-18.5" font-family="Helvetica,sans-Serif" font-size="10.00">/Op_Diff_Dift/Op_Diff</text>
<text text-anchor="middle" x="2195" y="-7.5" font-family="Helvetica,sans-Serif" font-size="10.00">_VDF_Elem_leaves.cpp</text>
</a>
</g>
</g>
<!-- Node17&#45;&gt;Node18 -->
<g id="edge17" class="edge">
<title>Node17&#45;&gt;Node18</title>
<path fill="none" stroke="midnightblue" d="M2196.83,-68.3C2196.47,-59.3 2196.09,-49.65 2195.77,-41.51"/>
<polygon fill="midnightblue" stroke="midnightblue" points="2193.34,-68.57 2197.23,-78.43 2200.33,-68.3 2193.34,-68.57"/>
</g>
<!-- Node20 -->
<g id="node20" class="node">
<title>Node20</title>
<g id="a_node20"><a xlink:href="Op__Diff__VDF__Face__leaves_8cpp.html" target="_top" xlink:title=" ">
<polygon fill="white" stroke="black" points="2278.5,-0.5 2278.5,-41.5 2405.5,-41.5 2405.5,-0.5 2278.5,-0.5"/>
<text text-anchor="start" x="2286.5" y="-29.5" font-family="Helvetica,sans-Serif" font-size="10.00">src/VDF/Operateurs</text>
<text text-anchor="start" x="2286.5" y="-18.5" font-family="Helvetica,sans-Serif" font-size="10.00">/Op_Diff_Dift/Op_Diff</text>
<text text-anchor="middle" x="2342" y="-7.5" font-family="Helvetica,sans-Serif" font-size="10.00">_VDF_Face_leaves.cpp</text>
</a>
</g>
</g>
<!-- Node19&#45;&gt;Node20 -->
<g id="edge19" class="edge">
<title>Node19&#45;&gt;Node20</title>
<path fill="none" stroke="midnightblue" d="M2338.95,-68.3C2339.55,-59.3 2340.18,-49.65 2340.72,-41.51"/>
<polygon fill="midnightblue" stroke="midnightblue" points="2335.45,-68.22 2338.29,-78.43 2342.44,-68.68 2335.45,-68.22"/>
</g>
<!-- Node22 -->
<g id="node22" class="node">
<title>Node22</title>
<g id="a_node22"><a xlink:href="Op__Dift__VDF__Elem__leaves_8cpp.html" target="_top" xlink:title=" ">
<polygon fill="white" stroke="black" points="2574,-0.5 2574,-41.5 2704,-41.5 2704,-0.5 2574,-0.5"/>
<text text-anchor="start" x="2582" y="-29.5" font-family="Helvetica,sans-Serif" font-size="10.00">src/VDF/Operateurs</text>
<text text-anchor="start" x="2582" y="-18.5" font-family="Helvetica,sans-Serif" font-size="10.00">/Op_Diff_Dift/Op_Dift</text>
<text text-anchor="middle" x="2639" y="-7.5" font-family="Helvetica,sans-Serif" font-size="10.00">_VDF_Elem_leaves.cpp</text>
</a>
</g>
</g>
<!-- Node21&#45;&gt;Node22 -->
<g id="edge21" class="edge">
<title>Node21&#45;&gt;Node22</title>
<path fill="none" stroke="midnightblue" d="M2639,-68.3C2639,-59.3 2639,-49.65 2639,-41.51"/>
<polygon fill="midnightblue" stroke="midnightblue" points="2635.5,-68.43 2639,-78.43 2642.5,-68.43 2635.5,-68.43"/>
</g>
<!-- Node24 -->
<g id="node24" class="node">
<title>Node24</title>
<g id="a_node24"><a xlink:href="Op__Dift__VDF__Face__leaves_8cpp.html" target="_top" xlink:title=" ">
<polygon fill="white" stroke="black" points="2939.5,-0.5 2939.5,-41.5 3066.5,-41.5 3066.5,-0.5 2939.5,-0.5"/>
<text text-anchor="start" x="2947.5" y="-29.5" font-family="Helvetica,sans-Serif" font-size="10.00">src/VDF/Operateurs</text>
<text text-anchor="start" x="2947.5" y="-18.5" font-family="Helvetica,sans-Serif" font-size="10.00">/Op_Diff_Dift/Op_Dift</text>
<text text-anchor="middle" x="3003" y="-7.5" font-family="Helvetica,sans-Serif" font-size="10.00">_VDF_Face_leaves.cpp</text>
</a>
</g>
</g>
<!-- Node23&#45;&gt;Node24 -->
<g id="edge23" class="edge">
<title>Node23&#45;&gt;Node24</title>
<path fill="none" stroke="midnightblue" d="M3003,-68.3C3003,-59.3 3003,-49.65 3003,-41.51"/>
<polygon fill="midnightblue" stroke="midnightblue" points="2999.5,-68.43 3003,-78.43 3006.5,-68.43 2999.5,-68.43"/>
</g>
<!-- Node30&#45;&gt;Node21 -->
<g id="edge31" class="edge">
<title>Node30&#45;&gt;Node21</title>
<path fill="none" stroke="midnightblue" d="M2790.56,-158.27C2758.69,-146.01 2720.03,-131.15 2689.73,-119.5"/>
<polygon fill="midnightblue" stroke="midnightblue" points="2789.63,-161.66 2800.22,-161.98 2792.14,-155.12 2789.63,-161.66"/>
</g>
<!-- Node32 -->
<g id="node32" class="node">
<title>Node32</title>
<g id="a_node32"><a xlink:href="Eval__Dift__VDF__Multi__inco__const_8h.html" target="_top" xlink:title=" ">
<polygon fill="white" stroke="black" points="2730,-245.5 2730,-297.5 2850,-297.5 2850,-245.5 2730,-245.5"/>
<text text-anchor="start" x="2738" y="-285.5" font-family="Helvetica,sans-Serif" font-size="10.00">src/VDF/Operateurs</text>
<text text-anchor="start" x="2738" y="-274.5" font-family="Helvetica,sans-Serif" font-size="10.00">/Eval_Diff_Dift/Eval</text>
<text text-anchor="start" x="2738" y="-263.5" font-family="Helvetica,sans-Serif" font-size="10.00">_Dift_VDF_Multi_inco</text>
<text text-anchor="middle" x="2790" y="-252.5" font-family="Helvetica,sans-Serif" font-size="10.00">_const.h</text>
</a>
</g>
</g>
<!-- Node31&#45;&gt;Node32 -->
<g id="edge33" class="edge">
<title>Node31&#45;&gt;Node32</title>
<path fill="none" stroke="midnightblue" d="M2897.29,-329.65C2878.28,-319.53 2856.23,-307.78 2837.08,-297.58"/>
<polygon fill="midnightblue" stroke="midnightblue" points="2895.88,-332.87 2906.35,-334.48 2899.17,-326.69 2895.88,-332.87"/>
</g>
<!-- Node33 -->
<g id="node33" class="node">
<title>Node33</title>
<g id="a_node33"><a xlink:href="Eval__Dift__VDF__Multi__inco__var_8h.html" target="_top" xlink:title=" ">
<polygon fill="white" stroke="black" points="2868.5,-251 2868.5,-292 3017.5,-292 3017.5,-251 2868.5,-251"/>
<text text-anchor="start" x="2876.5" y="-280" font-family="Helvetica,sans-Serif" font-size="10.00">src/VDF/Operateurs</text>
<text text-anchor="start" x="2876.5" y="-269" font-family="Helvetica,sans-Serif" font-size="10.00">/Eval_Diff_Dift/Eval</text>
<text text-anchor="middle" x="2943" y="-258" font-family="Helvetica,sans-Serif" font-size="10.00">_Dift_VDF_Multi_inco_var.h</text>
</a>
</g>
</g>
<!-- Node31&#45;&gt;Node33 -->
<g id="edge35" class="edge">
<title>Node31&#45;&gt;Node33</title>
<path fill="none" stroke="midnightblue" d="M2943,-324.06C2943,-313.38 2943,-301.63 2943,-292.05"/>
<polygon fill="midnightblue" stroke="midnightblue" points="2939.5,-324.27 2943,-334.27 2946.5,-324.27 2939.5,-324.27"/>
</g>
<!-- Node34 -->
<g id="node34" class="node">
<title>Node34</title>
<g id="a_node34"><a xlink:href="Eval__Dift__VDF__const_8h.html" target="_top" xlink:title=" ">
<polygon fill="white" stroke="black" points="3035.5,-251 3035.5,-292 3146.5,-292 3146.5,-251 3035.5,-251"/>
<text text-anchor="start" x="3043.5" y="-280" font-family="Helvetica,sans-Serif" font-size="10.00">src/VDF/Operateurs</text>
<text text-anchor="start" x="3043.5" y="-269" font-family="Helvetica,sans-Serif" font-size="10.00">/Eval_Diff_Dift/Eval</text>
<text text-anchor="middle" x="3091" y="-258" font-family="Helvetica,sans-Serif" font-size="10.00">_Dift_VDF_const.h</text>
</a>
</g>
</g>
<!-- Node31&#45;&gt;Node34 -->
<g id="edge37" class="edge">
<title>Node31&#45;&gt;Node34</title>
<path fill="none" stroke="midnightblue" d="M2987.22,-329.65C3009.07,-317.62 3035.07,-303.3 3055.58,-292"/>
<polygon fill="midnightblue" stroke="midnightblue" points="2985.52,-326.59 2978.45,-334.48 2988.9,-332.72 2985.52,-326.59"/>
</g>
<!-- Node37 -->
<g id="node37" class="node">
<title>Node37</title>
<g id="a_node37"><a xlink:href="Eval__Dift__VDF__var_8h.html" target="_top" xlink:title=" ">
<polygon fill="white" stroke="black" points="3164.5,-251 3164.5,-292 3275.5,-292 3275.5,-251 3164.5,-251"/>
<text text-anchor="start" x="3172.5" y="-280" font-family="Helvetica,sans-Serif" font-size="10.00">src/VDF/Operateurs</text>
<text text-anchor="start" x="3172.5" y="-269" font-family="Helvetica,sans-Serif" font-size="10.00">/Eval_Diff_Dift/Eval</text>
<text text-anchor="middle" x="3220" y="-258" font-family="Helvetica,sans-Serif" font-size="10.00">_Dift_VDF_var.h</text>
</a>
</g>
</g>
<!-- Node31&#45;&gt;Node37 -->
<g id="edge42" class="edge">
<title>Node31&#45;&gt;Node37</title>
<path fill="none" stroke="midnightblue" d="M3008.76,-333.61C3074.04,-316.08 3093.48,-317.45 3155,-298 3160.66,-296.21 3166.54,-294.17 3172.34,-292.04"/>
<polygon fill="midnightblue" stroke="midnightblue" points="3007.51,-330.32 2998.79,-336.34 3009.35,-337.07 3007.51,-330.32"/>
</g>
<!-- Node38 -->
<g id="node38" class="node">
<title>Node38</title>
<g id="a_node38"><a xlink:href="Eval__Turbulence_8cpp.html" target="_top" xlink:title=" ">
<polygon fill="white" stroke="black" points="3293.5,-251 3293.5,-292 3404.5,-292 3404.5,-251 3293.5,-251"/>
<text text-anchor="start" x="3301.5" y="-280" font-family="Helvetica,sans-Serif" font-size="10.00">src/VDF/Operateurs</text>
<text text-anchor="start" x="3301.5" y="-269" font-family="Helvetica,sans-Serif" font-size="10.00">/Eval_Diff_Dift/Eval</text>
<text text-anchor="middle" x="3349" y="-258" font-family="Helvetica,sans-Serif" font-size="10.00">_Turbulence.cpp</text>
</a>
</g>
</g>
<!-- Node31&#45;&gt;Node38 -->
<g id="edge46" class="edge">
<title>Node31&#45;&gt;Node38</title>
<path fill="none" stroke="midnightblue" d="M3008.78,-333.81C3130.64,-308.44 3167.59,-328.48 3285,-298 3291.25,-296.38 3297.71,-294.3 3304.02,-292.04"/>
<polygon fill="midnightblue" stroke="midnightblue" points="3007.74,-330.45 2998.69,-335.97 3009.21,-337.3 3007.74,-330.45"/>
</g>
<!-- Node32&#45;&gt;Node30 -->
<g id="edge34" class="edge">
<title>Node32&#45;&gt;Node30</title>
<path fill="none" stroke="midnightblue" d="M2813.6,-236.84C2821.61,-225.42 2830.29,-213.04 2837.27,-203.08"/>
<polygon fill="midnightblue" stroke="midnightblue" points="2810.52,-235.14 2807.64,-245.34 2816.25,-239.16 2810.52,-235.14"/>
</g>
<!-- Node33&#45;&gt;Node30 -->
<g id="edge36" class="edge">
<title>Node33&#45;&gt;Node30</title>
<path fill="none" stroke="midnightblue" d="M2914.73,-243.76C2900.87,-230.66 2884.48,-215.16 2871.79,-203.16"/>
<polygon fill="midnightblue" stroke="midnightblue" points="2912.45,-246.43 2922.12,-250.76 2917.26,-241.34 2912.45,-246.43"/>
</g>
<!-- Node34&#45;&gt;Node30 -->
<g id="edge38" class="edge">
<title>Node34&#45;&gt;Node30</title>
<path fill="none" stroke="midnightblue" d="M3032.32,-247.37C3030.19,-246.56 3028.08,-245.77 3026,-245 2986.91,-230.47 2942.59,-214.9 2908.33,-203.07"/>
<polygon fill="midnightblue" stroke="midnightblue" points="3031.15,-250.67 3041.74,-250.96 3033.64,-244.13 3031.15,-250.67"/>
</g>
<!-- Node35 -->
<g id="node35" class="node">
<title>Node35</title>
<g id="a_node35"><a xlink:href="Eval__Dift__VDF__Face__leaves_8h.html" target="_top" xlink:title=" ">
<polygon fill="white" stroke="black" points="3151,-162 3151,-203 3289,-203 3289,-162 3151,-162"/>
<text text-anchor="start" x="3159" y="-191" font-family="Helvetica,sans-Serif" font-size="10.00">src/VDF/Operateurs</text>
<text text-anchor="start" x="3159" y="-180" font-family="Helvetica,sans-Serif" font-size="10.00">/Eval_Diff_Dift/Eval</text>
<text text-anchor="middle" x="3220" y="-169" font-family="Helvetica,sans-Serif" font-size="10.00">_Dift_VDF_Face_leaves.h</text>
</a>
</g>
</g>
<!-- Node34&#45;&gt;Node35 -->
<g id="edge39" class="edge">
<title>Node34&#45;&gt;Node35</title>
<path fill="none" stroke="midnightblue" d="M3128.45,-245.25C3148.27,-231.88 3172.25,-215.7 3190.7,-203.26"/>
<polygon fill="midnightblue" stroke="midnightblue" points="3126.28,-242.48 3119.95,-250.98 3130.2,-248.29 3126.28,-242.48"/>
</g>
<!-- Node36 -->
<g id="node36" class="node">
<title>Node36</title>
<g id="a_node36"><a xlink:href="Op__Dift__VDF__base_8cpp.html" target="_top" xlink:title=" ">
<polygon fill="white" stroke="black" points="3001,-156.5 3001,-208.5 3133,-208.5 3133,-156.5 3001,-156.5"/>
<text text-anchor="start" x="3009" y="-196.5" font-family="Helvetica,sans-Serif" font-size="10.00">src/VDF/Operateurs</text>
<text text-anchor="start" x="3009" y="-185.5" font-family="Helvetica,sans-Serif" font-size="10.00">/Op_Diff_Dift/Op_Diff</text>
<text text-anchor="start" x="3009" y="-174.5" font-family="Helvetica,sans-Serif" font-size="10.00">_Dift_base/Op_Dift_VDF</text>
<text text-anchor="middle" x="3067" y="-163.5" font-family="Helvetica,sans-Serif" font-size="10.00">_base.cpp</text>
</a>
</g>
</g>
<!-- Node34&#45;&gt;Node36 -->
<g id="edge41" class="edge">
<title>Node34&#45;&gt;Node36</title>
<path fill="none" stroke="midnightblue" d="M3082.82,-240.84C3079.94,-230.42 3076.74,-218.81 3073.98,-208.79"/>
<polygon fill="midnightblue" stroke="midnightblue" points="3079.52,-242.05 3085.55,-250.76 3086.27,-240.19 3079.52,-242.05"/>
</g>
<!-- Node35&#45;&gt;Node23 -->
<g id="edge40" class="edge">
<title>Node35&#45;&gt;Node23</title>
<path fill="none" stroke="midnightblue" d="M3158.56,-158.42C3125.85,-146.14 3086.07,-131.2 3054.93,-119.5"/>
<polygon fill="midnightblue" stroke="midnightblue" points="3157.43,-161.74 3168.02,-161.98 3159.89,-155.19 3157.43,-161.74"/>
</g>
<!-- Node37&#45;&gt;Node30 -->
<g id="edge43" class="edge">
<title>Node37&#45;&gt;Node30</title>
<path fill="none" stroke="midnightblue" d="M3163.45,-247.65C3160.61,-246.71 3157.78,-245.82 3155,-245 3112.2,-232.38 2997.38,-210.32 2921.75,-196.34"/>
<polygon fill="midnightblue" stroke="midnightblue" points="3162.52,-251.03 3173.12,-251 3164.82,-244.42 3162.52,-251.03"/>
</g>
<!-- Node37&#45;&gt;Node35 -->
<g id="edge44" class="edge">
<title>Node37&#45;&gt;Node35</title>
<path fill="none" stroke="midnightblue" d="M3220,-240.44C3220,-228.1 3220,-214.16 3220,-203.16"/>
<polygon fill="midnightblue" stroke="midnightblue" points="3216.5,-240.76 3220,-250.76 3223.5,-240.76 3216.5,-240.76"/>
</g>
<!-- Node37&#45;&gt;Node36 -->
<g id="edge45" class="edge">
<title>Node37&#45;&gt;Node36</title>
<path fill="none" stroke="midnightblue" d="M3176.83,-245.95C3156.3,-234.28 3131.77,-220.33 3111.11,-208.58"/>
<polygon fill="midnightblue" stroke="midnightblue" points="3175.24,-249.07 3185.66,-250.98 3178.7,-242.99 3175.24,-249.07"/>
</g>
</g>
</svg>
