<?xml version="1.0" encoding="UTF-8" standalone="no"?>
<!DOCTYPE svg PUBLIC "-//W3C//DTD SVG 1.1//EN"
 "http://www.w3.org/Graphics/SVG/1.1/DTD/svg11.dtd">
<!-- Generated by graphviz version 2.43.0 (0)
 -->
<!-- Title: src/Kernel/Framework/Value_Input_Int.h Pages: 1 -->
<svg width="789pt" height="599pt"
 viewBox="0.00 0.00 789.00 599.00" xmlns="http://www.w3.org/2000/svg" xmlns:xlink="http://www.w3.org/1999/xlink">
<g id="graph0" class="graph" transform="scale(1 1) rotate(0) translate(4 595)">
<title>src/Kernel/Framework/Value_Input_Int.h</title>
<polygon fill="white" stroke="transparent" points="-4,4 -4,-595 785,-595 785,4 -4,4"/>
<!-- Node1 -->
<g id="node1" class="node">
<title>Node1</title>
<g id="a_node1"><a xlink:title=" ">
<polygon fill="#bfbfbf" stroke="black" points="465,-560.5 465,-590.5 587,-590.5 587,-560.5 465,-560.5"/>
<text text-anchor="start" x="473" y="-578.5" font-family="Helvetica,sans-Serif" font-size="10.00">src/Kernel/Framework</text>
<text text-anchor="middle" x="526" y="-567.5" font-family="Helvetica,sans-Serif" font-size="10.00">/Value_Input_Int.h</text>
</a>
</g>
</g>
<!-- Node2 -->
<g id="node2" class="node">
<title>Node2</title>
<g id="a_node2"><a xlink:href="Objet__U_8h.html" target="_top" xlink:title=" ">
<polygon fill="white" stroke="black" points="381.5,-224.5 381.5,-243.5 446.5,-243.5 446.5,-224.5 381.5,-224.5"/>
<text text-anchor="middle" x="414" y="-231.5" font-family="Helvetica,sans-Serif" font-size="10.00">Objet_U.h</text>
</a>
</g>
</g>
<!-- Node1&#45;&gt;Node2 -->
<g id="edge1" class="edge">
<title>Node1&#45;&gt;Node2</title>
<path fill="none" stroke="midnightblue" d="M496.87,-560.39C463.68,-542.04 414,-506.62 414,-459 414,-459 414,-459 414,-345 414,-312.95 414,-275.64 414,-253.75"/>
<polygon fill="midnightblue" stroke="midnightblue" points="417.5,-253.56 414,-243.56 410.5,-253.56 417.5,-253.56"/>
</g>
<!-- Node18 -->
<g id="node18" class="node">
<title>Node18</title>
<g id="a_node18"><a xlink:title=" ">
<polygon fill="white" stroke="#bfbfbf" points="721,-56.5 721,-75.5 765,-75.5 765,-56.5 721,-56.5"/>
<text text-anchor="middle" x="743" y="-63.5" font-family="Helvetica,sans-Serif" font-size="10.00">string</text>
</a>
</g>
</g>
<!-- Node1&#45;&gt;Node18 -->
<g id="edge35" class="edge">
<title>Node1&#45;&gt;Node18</title>
<path fill="none" stroke="midnightblue" d="M587.08,-572.62C662.52,-566.66 781,-543.81 781,-459 781,-459 781,-459 781,-177 781,-142.81 764.4,-105.76 753.14,-84.57"/>
<polygon fill="midnightblue" stroke="midnightblue" points="756.18,-82.83 748.28,-75.77 750.05,-86.22 756.18,-82.83"/>
</g>
<!-- Node20 -->
<g id="node20" class="node">
<title>Node20</title>
<g id="a_node20"><a xlink:href="Ref__Probleme__base_8h.html" target="_top" xlink:title=" ">
<polygon fill="white" stroke="black" points="465,-504.5 465,-523.5 587,-523.5 587,-504.5 465,-504.5"/>
<text text-anchor="middle" x="526" y="-511.5" font-family="Helvetica,sans-Serif" font-size="10.00">Ref_Probleme_base.h</text>
</a>
</g>
</g>
<!-- Node1&#45;&gt;Node20 -->
<g id="edge25" class="edge">
<title>Node1&#45;&gt;Node20</title>
<path fill="none" stroke="midnightblue" d="M526,-560.4C526,-552.47 526,-542.46 526,-533.86"/>
<polygon fill="midnightblue" stroke="midnightblue" points="529.5,-533.66 526,-523.66 522.5,-533.66 529.5,-533.66"/>
</g>
<!-- Node3 -->
<g id="node3" class="node">
<title>Node3</title>
<g id="a_node3"><a xlink:title=" ">
<polygon fill="white" stroke="#bfbfbf" points="132,-56.5 132,-75.5 188,-75.5 188,-56.5 132,-56.5"/>
<text text-anchor="middle" x="160" y="-63.5" font-family="Helvetica,sans-Serif" font-size="10.00">assert.h</text>
</a>
</g>
</g>
<!-- Node2&#45;&gt;Node3 -->
<g id="edge2" class="edge">
<title>Node2&#45;&gt;Node3</title>
<path fill="none" stroke="midnightblue" d="M381.48,-227.9C307.41,-215.49 130.24,-181.13 100,-132 87.67,-111.97 111.56,-92.65 132.75,-80.35"/>
<polygon fill="midnightblue" stroke="midnightblue" points="134.46,-83.4 141.55,-75.53 131.1,-77.26 134.46,-83.4"/>
</g>
<!-- Node4 -->
<g id="node4" class="node">
<title>Node4</title>
<g id="a_node4"><a xlink:href="DecBaseInst_8h.html" target="_top" xlink:title=" ">
<polygon fill="white" stroke="black" points="422,-168.5 422,-187.5 508,-187.5 508,-168.5 422,-168.5"/>
<text text-anchor="middle" x="465" y="-175.5" font-family="Helvetica,sans-Serif" font-size="10.00">DecBaseInst.h</text>
</a>
</g>
</g>
<!-- Node2&#45;&gt;Node4 -->
<g id="edge3" class="edge">
<title>Node2&#45;&gt;Node4</title>
<path fill="none" stroke="midnightblue" d="M422.42,-224.08C429.85,-216.22 440.85,-204.57 449.81,-195.08"/>
<polygon fill="midnightblue" stroke="midnightblue" points="452.41,-197.42 456.74,-187.75 447.32,-192.62 452.41,-197.42"/>
</g>
<!-- Node9 -->
<g id="node9" class="node">
<title>Node9</title>
<g id="a_node9"><a xlink:href="EntreeSortie_8h.html" target="_top" xlink:title=" ">
<polygon fill="white" stroke="black" points="220,-168.5 220,-187.5 306,-187.5 306,-168.5 220,-168.5"/>
<text text-anchor="middle" x="263" y="-175.5" font-family="Helvetica,sans-Serif" font-size="10.00">EntreeSortie.h</text>
</a>
</g>
</g>
<!-- Node2&#45;&gt;Node9 -->
<g id="edge9" class="edge">
<title>Node2&#45;&gt;Node9</title>
<path fill="none" stroke="midnightblue" d="M390.07,-224.44C364.78,-215.4 324.7,-201.06 296.32,-190.92"/>
<polygon fill="midnightblue" stroke="midnightblue" points="297.41,-187.59 286.81,-187.52 295.05,-194.18 297.41,-187.59"/>
</g>
<!-- Node14 -->
<g id="node14" class="node">
<title>Node14</title>
<g id="a_node14"><a xlink:href="Process_8h.html" target="_top" xlink:title=" ">
<polygon fill="white" stroke="black" points="349.5,-56.5 349.5,-75.5 412.5,-75.5 412.5,-56.5 349.5,-56.5"/>
<text text-anchor="middle" x="381" y="-63.5" font-family="Helvetica,sans-Serif" font-size="10.00">Process.h</text>
</a>
</g>
</g>
<!-- Node2&#45;&gt;Node14 -->
<g id="edge24" class="edge">
<title>Node2&#45;&gt;Node14</title>
<path fill="none" stroke="midnightblue" d="M412.23,-224.08C407.03,-197.95 391.78,-121.21 384.69,-85.58"/>
<polygon fill="midnightblue" stroke="midnightblue" points="388.09,-84.69 382.7,-75.57 381.22,-86.06 388.09,-84.69"/>
</g>
<!-- Node5 -->
<g id="node5" class="node">
<title>Node5</title>
<g id="a_node5"><a xlink:href="Cast_8h.html" target="_top" xlink:title=" ">
<polygon fill="white" stroke="black" points="539.5,-56.5 539.5,-75.5 586.5,-75.5 586.5,-56.5 539.5,-56.5"/>
<text text-anchor="middle" x="563" y="-63.5" font-family="Helvetica,sans-Serif" font-size="10.00">Cast.h</text>
</a>
</g>
</g>
<!-- Node4&#45;&gt;Node5 -->
<g id="edge4" class="edge">
<title>Node4&#45;&gt;Node5</title>
<path fill="none" stroke="midnightblue" d="M451.59,-168.48C433.57,-155.96 405.39,-131.92 420,-112 444.87,-78.11 495.28,-69.07 529.1,-67.01"/>
<polygon fill="midnightblue" stroke="midnightblue" points="529.61,-70.5 539.45,-66.57 529.31,-63.5 529.61,-70.5"/>
</g>
<!-- Node6 -->
<g id="node6" class="node">
<title>Node6</title>
<g id="a_node6"><a xlink:href="Type__info_8h.html" target="_top" xlink:title=" ">
<polygon fill="white" stroke="black" points="429,-112.5 429,-131.5 501,-131.5 501,-112.5 429,-112.5"/>
<text text-anchor="middle" x="465" y="-119.5" font-family="Helvetica,sans-Serif" font-size="10.00">Type_info.h</text>
</a>
</g>
</g>
<!-- Node4&#45;&gt;Node6 -->
<g id="edge5" class="edge">
<title>Node4&#45;&gt;Node6</title>
<path fill="none" stroke="midnightblue" d="M465,-168.08C465,-161.01 465,-150.86 465,-141.99"/>
<polygon fill="midnightblue" stroke="midnightblue" points="468.5,-141.75 465,-131.75 461.5,-141.75 468.5,-141.75"/>
</g>
<!-- Node7 -->
<g id="node7" class="node">
<title>Node7</title>
<g id="a_node7"><a xlink:href="Declare__Base_8h.html" target="_top" xlink:title=" ">
<polygon fill="white" stroke="black" points="519,-112.5 519,-131.5 611,-131.5 611,-112.5 519,-112.5"/>
<text text-anchor="middle" x="565" y="-119.5" font-family="Helvetica,sans-Serif" font-size="10.00">Declare_Base.h</text>
</a>
</g>
</g>
<!-- Node4&#45;&gt;Node7 -->
<g id="edge6" class="edge">
<title>Node4&#45;&gt;Node7</title>
<path fill="none" stroke="midnightblue" d="M481.07,-168.32C496.96,-159.74 521.51,-146.49 539.96,-136.52"/>
<polygon fill="midnightblue" stroke="midnightblue" points="541.84,-139.49 548.97,-131.65 538.51,-133.33 541.84,-139.49"/>
</g>
<!-- Node8 -->
<g id="node8" class="node">
<title>Node8</title>
<g id="a_node8"><a xlink:href="Declare__Inst_8h.html" target="_top" xlink:title=" ">
<polygon fill="white" stroke="black" points="629,-112.5 629,-131.5 715,-131.5 715,-112.5 629,-112.5"/>
<text text-anchor="middle" x="672" y="-119.5" font-family="Helvetica,sans-Serif" font-size="10.00">Declare_Inst.h</text>
</a>
</g>
</g>
<!-- Node4&#45;&gt;Node8 -->
<g id="edge7" class="edge">
<title>Node4&#45;&gt;Node8</title>
<path fill="none" stroke="midnightblue" d="M497.8,-168.44C533.38,-159.16 590.31,-144.31 629.35,-134.13"/>
<polygon fill="midnightblue" stroke="midnightblue" points="630.56,-137.43 639.35,-131.52 628.79,-130.65 630.56,-137.43"/>
</g>
<!-- Node8&#45;&gt;Node5 -->
<g id="edge8" class="edge">
<title>Node8&#45;&gt;Node5</title>
<path fill="none" stroke="midnightblue" d="M654.49,-112.32C636.93,-103.62 609.67,-90.12 589.47,-80.11"/>
<polygon fill="midnightblue" stroke="midnightblue" points="590.98,-76.96 580.47,-75.65 587.88,-83.23 590.98,-76.96"/>
</g>
<!-- Node10 -->
<g id="node10" class="node">
<title>Node10</title>
<g id="a_node10"><a xlink:href="Entree_8h.html" target="_top" xlink:title=" ">
<polygon fill="white" stroke="black" points="205.5,-112.5 205.5,-131.5 262.5,-131.5 262.5,-112.5 205.5,-112.5"/>
<text text-anchor="middle" x="234" y="-119.5" font-family="Helvetica,sans-Serif" font-size="10.00">Entree.h</text>
</a>
</g>
</g>
<!-- Node9&#45;&gt;Node10 -->
<g id="edge10" class="edge">
<title>Node9&#45;&gt;Node10</title>
<path fill="none" stroke="midnightblue" d="M258.21,-168.08C254.24,-160.69 248.47,-149.95 243.57,-140.81"/>
<polygon fill="midnightblue" stroke="midnightblue" points="246.51,-138.91 238.7,-131.75 240.35,-142.22 246.51,-138.91"/>
</g>
<!-- Node17 -->
<g id="node17" class="node">
<title>Node17</title>
<g id="a_node17"><a xlink:href="Sortie_8h.html" target="_top" xlink:title=" ">
<polygon fill="white" stroke="black" points="281,-112.5 281,-131.5 335,-131.5 335,-112.5 281,-112.5"/>
<text text-anchor="middle" x="308" y="-119.5" font-family="Helvetica,sans-Serif" font-size="10.00">Sortie.h</text>
</a>
</g>
</g>
<!-- Node9&#45;&gt;Node17 -->
<g id="edge18" class="edge">
<title>Node9&#45;&gt;Node17</title>
<path fill="none" stroke="midnightblue" d="M270.43,-168.08C276.85,-160.38 286.31,-149.03 294.12,-139.65"/>
<polygon fill="midnightblue" stroke="midnightblue" points="296.99,-141.67 300.71,-131.75 291.62,-137.19 296.99,-141.67"/>
</g>
<!-- Node19 -->
<g id="node19" class="node">
<title>Node19</title>
<g id="a_node19"><a xlink:href="Separateur_8h.html" target="_top" xlink:title=" ">
<polygon fill="white" stroke="black" points="109,-112.5 109,-131.5 187,-131.5 187,-112.5 109,-112.5"/>
<text text-anchor="middle" x="148" y="-119.5" font-family="Helvetica,sans-Serif" font-size="10.00">Separateur.h</text>
</a>
</g>
</g>
<!-- Node9&#45;&gt;Node19 -->
<g id="edge23" class="edge">
<title>Node9&#45;&gt;Node19</title>
<path fill="none" stroke="midnightblue" d="M244.78,-168.44C226.1,-159.68 196.84,-145.94 175.38,-135.86"/>
<polygon fill="midnightblue" stroke="midnightblue" points="176.68,-132.6 166.14,-131.52 173.7,-138.93 176.68,-132.6"/>
</g>
<!-- Node10&#45;&gt;Node3 -->
<g id="edge14" class="edge">
<title>Node10&#45;&gt;Node3</title>
<path fill="none" stroke="midnightblue" d="M222.11,-112.32C210.85,-104.11 193.71,-91.6 180.29,-81.81"/>
<polygon fill="midnightblue" stroke="midnightblue" points="182.25,-78.9 172.11,-75.83 178.12,-84.56 182.25,-78.9"/>
</g>
<!-- Node11 -->
<g id="node11" class="node">
<title>Node11</title>
<g id="a_node11"><a xlink:title=" ">
<polygon fill="white" stroke="#bfbfbf" points="64,-56.5 64,-75.5 114,-75.5 114,-56.5 64,-56.5"/>
<text text-anchor="middle" x="89" y="-63.5" font-family="Helvetica,sans-Serif" font-size="10.00">stdio.h</text>
</a>
</g>
</g>
<!-- Node10&#45;&gt;Node11 -->
<g id="edge11" class="edge">
<title>Node10&#45;&gt;Node11</title>
<path fill="none" stroke="midnightblue" d="M211.02,-112.44C186.84,-103.44 148.58,-89.19 121.35,-79.05"/>
<polygon fill="midnightblue" stroke="midnightblue" points="122.46,-75.73 111.87,-75.52 120.02,-82.29 122.46,-75.73"/>
</g>
<!-- Node12 -->
<g id="node12" class="node">
<title>Node12</title>
<g id="a_node12"><a xlink:title=" ">
<polygon fill="white" stroke="#bfbfbf" points="0,-56.5 0,-75.5 46,-75.5 46,-56.5 0,-56.5"/>
<text text-anchor="middle" x="23" y="-63.5" font-family="Helvetica,sans-Serif" font-size="10.00">cstdio</text>
</a>
</g>
</g>
<!-- Node10&#45;&gt;Node12 -->
<g id="edge12" class="edge">
<title>Node10&#45;&gt;Node12</title>
<path fill="none" stroke="midnightblue" d="M205.42,-114.07C171.89,-105.9 114.42,-91.7 55.84,-76.17"/>
<polygon fill="midnightblue" stroke="midnightblue" points="56.61,-72.75 46.05,-73.57 54.81,-79.52 56.61,-72.75"/>
</g>
<!-- Node13 -->
<g id="node13" class="node">
<title>Node13</title>
<g id="a_node13"><a xlink:title=" ">
<polygon fill="white" stroke="#bfbfbf" points="206,-56.5 206,-75.5 266,-75.5 266,-56.5 206,-56.5"/>
<text text-anchor="middle" x="236" y="-63.5" font-family="Helvetica,sans-Serif" font-size="10.00">iostream</text>
</a>
</g>
</g>
<!-- Node10&#45;&gt;Node13 -->
<g id="edge13" class="edge">
<title>Node10&#45;&gt;Node13</title>
<path fill="none" stroke="midnightblue" d="M234.33,-112.08C234.59,-105.01 234.97,-94.86 235.3,-85.99"/>
<polygon fill="midnightblue" stroke="midnightblue" points="238.8,-85.87 235.68,-75.75 231.81,-85.61 238.8,-85.87"/>
</g>
<!-- Node10&#45;&gt;Node14 -->
<g id="edge15" class="edge">
<title>Node10&#45;&gt;Node14</title>
<path fill="none" stroke="midnightblue" d="M257.29,-112.44C281.81,-103.44 320.6,-89.19 348.2,-79.05"/>
<polygon fill="midnightblue" stroke="midnightblue" points="349.64,-82.25 357.82,-75.52 347.22,-75.68 349.64,-82.25"/>
</g>
<!-- Node15 -->
<g id="node15" class="node">
<title>Node15</title>
<g id="a_node15"><a xlink:href="arch_8h.html" target="_top" xlink:title=" ">
<polygon fill="white" stroke="black" points="284.5,-56.5 284.5,-75.5 331.5,-75.5 331.5,-56.5 284.5,-56.5"/>
<text text-anchor="middle" x="308" y="-63.5" font-family="Helvetica,sans-Serif" font-size="10.00">arch.h</text>
</a>
</g>
</g>
<!-- Node10&#45;&gt;Node15 -->
<g id="edge16" class="edge">
<title>Node10&#45;&gt;Node15</title>
<path fill="none" stroke="midnightblue" d="M245.89,-112.32C257.15,-104.11 274.29,-91.6 287.71,-81.81"/>
<polygon fill="midnightblue" stroke="midnightblue" points="289.88,-84.56 295.89,-75.83 285.75,-78.9 289.88,-84.56"/>
</g>
<!-- Node16 -->
<g id="node16" class="node">
<title>Node16</title>
<g id="a_node16"><a xlink:href="generique_8h.html" target="_top" xlink:title=" ">
<polygon fill="white" stroke="black" points="271,-0.5 271,-19.5 345,-19.5 345,-0.5 271,-0.5"/>
<text text-anchor="middle" x="308" y="-7.5" font-family="Helvetica,sans-Serif" font-size="10.00">generique.h</text>
</a>
</g>
</g>
<!-- Node15&#45;&gt;Node16 -->
<g id="edge17" class="edge">
<title>Node15&#45;&gt;Node16</title>
<path fill="none" stroke="midnightblue" d="M308,-56.08C308,-49.01 308,-38.86 308,-29.99"/>
<polygon fill="midnightblue" stroke="midnightblue" points="311.5,-29.75 308,-19.75 304.5,-29.75 311.5,-29.75"/>
</g>
<!-- Node17&#45;&gt;Node3 -->
<g id="edge20" class="edge">
<title>Node17&#45;&gt;Node3</title>
<path fill="none" stroke="midnightblue" d="M284.55,-112.44C259.87,-103.44 220.81,-89.19 193.02,-79.05"/>
<polygon fill="midnightblue" stroke="midnightblue" points="193.94,-75.66 183.34,-75.52 191.54,-82.23 193.94,-75.66"/>
</g>
<!-- Node17&#45;&gt;Node13 -->
<g id="edge19" class="edge">
<title>Node17&#45;&gt;Node13</title>
<path fill="none" stroke="midnightblue" d="M296.43,-112.32C285.58,-104.18 269.12,-91.84 256.12,-82.09"/>
<polygon fill="midnightblue" stroke="midnightblue" points="257.88,-79.03 247.78,-75.83 253.68,-84.63 257.88,-79.03"/>
</g>
<!-- Node17&#45;&gt;Node15 -->
<g id="edge21" class="edge">
<title>Node17&#45;&gt;Node15</title>
<path fill="none" stroke="midnightblue" d="M308,-112.08C308,-105.01 308,-94.86 308,-85.99"/>
<polygon fill="midnightblue" stroke="midnightblue" points="311.5,-85.75 308,-75.75 304.5,-85.75 311.5,-85.75"/>
</g>
<!-- Node17&#45;&gt;Node18 -->
<g id="edge22" class="edge">
<title>Node17&#45;&gt;Node18</title>
<path fill="none" stroke="midnightblue" d="M335.21,-117.62C411.74,-108.12 628.63,-81.2 710.86,-70.99"/>
<polygon fill="midnightblue" stroke="midnightblue" points="711.38,-74.45 720.87,-69.75 710.52,-67.51 711.38,-74.45"/>
</g>
<!-- Node21 -->
<g id="node21" class="node">
<title>Node21</title>
<g id="a_node21"><a xlink:href="Ref_8h.html" target="_top" xlink:title=" ">
<polygon fill="white" stroke="black" points="505.5,-448.5 505.5,-467.5 546.5,-467.5 546.5,-448.5 505.5,-448.5"/>
<text text-anchor="middle" x="526" y="-455.5" font-family="Helvetica,sans-Serif" font-size="10.00">Ref.h</text>
</a>
</g>
</g>
<!-- Node20&#45;&gt;Node21 -->
<g id="edge26" class="edge">
<title>Node20&#45;&gt;Node21</title>
<path fill="none" stroke="midnightblue" d="M526,-504.08C526,-497.01 526,-486.86 526,-477.99"/>
<polygon fill="midnightblue" stroke="midnightblue" points="529.5,-477.75 526,-467.75 522.5,-477.75 529.5,-477.75"/>
</g>
<!-- Node22 -->
<g id="node22" class="node">
<title>Node22</title>
<g id="a_node22"><a xlink:href="MacRef_8h.html" target="_top" xlink:title=" ">
<polygon fill="white" stroke="black" points="495,-392.5 495,-411.5 557,-411.5 557,-392.5 495,-392.5"/>
<text text-anchor="middle" x="526" y="-399.5" font-family="Helvetica,sans-Serif" font-size="10.00">MacRef.h</text>
</a>
</g>
</g>
<!-- Node21&#45;&gt;Node22 -->
<g id="edge27" class="edge">
<title>Node21&#45;&gt;Node22</title>
<path fill="none" stroke="midnightblue" d="M526,-448.08C526,-441.01 526,-430.86 526,-421.99"/>
<polygon fill="midnightblue" stroke="midnightblue" points="529.5,-421.75 526,-411.75 522.5,-421.75 529.5,-421.75"/>
</g>
<!-- Node23 -->
<g id="node23" class="node">
<title>Node23</title>
<g id="a_node23"><a xlink:href="Ref___8h.html" target="_top" xlink:title=" ">
<polygon fill="white" stroke="black" points="502.5,-336.5 502.5,-355.5 549.5,-355.5 549.5,-336.5 502.5,-336.5"/>
<text text-anchor="middle" x="526" y="-343.5" font-family="Helvetica,sans-Serif" font-size="10.00">Ref_.h</text>
</a>
</g>
</g>
<!-- Node22&#45;&gt;Node23 -->
<g id="edge28" class="edge">
<title>Node22&#45;&gt;Node23</title>
<path fill="none" stroke="midnightblue" d="M526,-392.08C526,-385.01 526,-374.86 526,-365.99"/>
<polygon fill="midnightblue" stroke="midnightblue" points="529.5,-365.75 526,-355.75 522.5,-365.75 529.5,-365.75"/>
</g>
<!-- Node24 -->
<g id="node24" class="node">
<title>Node24</title>
<g id="a_node24"><a xlink:href="O__U__Ptr_8h.html" target="_top" xlink:title=" ">
<polygon fill="white" stroke="black" points="442,-280.5 442,-299.5 506,-299.5 506,-280.5 442,-280.5"/>
<text text-anchor="middle" x="474" y="-287.5" font-family="Helvetica,sans-Serif" font-size="10.00">O_U_Ptr.h</text>
</a>
</g>
</g>
<!-- Node23&#45;&gt;Node24 -->
<g id="edge29" class="edge">
<title>Node23&#45;&gt;Node24</title>
<path fill="none" stroke="midnightblue" d="M517.41,-336.08C509.84,-328.22 498.62,-316.57 489.49,-307.08"/>
<polygon fill="midnightblue" stroke="midnightblue" points="491.88,-304.53 482.43,-299.75 486.84,-309.38 491.88,-304.53"/>
</g>
<!-- Node25 -->
<g id="node25" class="node">
<title>Node25</title>
<g id="a_node25"><a xlink:href="Nom_8h.html" target="_top" xlink:title=" ">
<polygon fill="white" stroke="black" points="524.5,-280.5 524.5,-299.5 573.5,-299.5 573.5,-280.5 524.5,-280.5"/>
<text text-anchor="middle" x="549" y="-287.5" font-family="Helvetica,sans-Serif" font-size="10.00">Nom.h</text>
</a>
</g>
</g>
<!-- Node23&#45;&gt;Node25 -->
<g id="edge31" class="edge">
<title>Node23&#45;&gt;Node25</title>
<path fill="none" stroke="midnightblue" d="M529.8,-336.08C532.91,-328.77 537.42,-318.18 541.29,-309.1"/>
<polygon fill="midnightblue" stroke="midnightblue" points="544.57,-310.32 545.27,-299.75 538.13,-307.58 544.57,-310.32"/>
</g>
<!-- Node24&#45;&gt;Node2 -->
<g id="edge30" class="edge">
<title>Node24&#45;&gt;Node2</title>
<path fill="none" stroke="midnightblue" d="M464.36,-280.32C455.49,-272.34 442.13,-260.31 431.39,-250.65"/>
<polygon fill="midnightblue" stroke="midnightblue" points="433.59,-247.92 423.82,-243.83 428.91,-253.13 433.59,-247.92"/>
</g>
<!-- Node25&#45;&gt;Node2 -->
<g id="edge32" class="edge">
<title>Node25&#45;&gt;Node2</title>
<path fill="none" stroke="midnightblue" d="M527.61,-280.44C505.29,-271.52 470.1,-257.44 444.79,-247.32"/>
<polygon fill="midnightblue" stroke="midnightblue" points="445.88,-243.98 435.29,-243.52 443.28,-250.48 445.88,-243.98"/>
</g>
<!-- Node25&#45;&gt;Node18 -->
<g id="edge34" class="edge">
<title>Node25&#45;&gt;Node18</title>
<path fill="none" stroke="midnightblue" d="M563.21,-280.3C596.51,-259.19 680.07,-201.77 724,-132 732.91,-117.85 737.78,-99.37 740.35,-85.73"/>
<polygon fill="midnightblue" stroke="midnightblue" points="743.85,-86.05 742.01,-75.61 736.94,-84.92 743.85,-86.05"/>
</g>
<!-- Node26 -->
<g id="node26" class="node">
<title>Node26</title>
<g id="a_node26"><a xlink:title=" ">
<polygon fill="white" stroke="#bfbfbf" points="524,-224.5 524,-243.5 574,-243.5 574,-224.5 524,-224.5"/>
<text text-anchor="middle" x="549" y="-231.5" font-family="Helvetica,sans-Serif" font-size="10.00">cstring</text>
</a>
</g>
</g>
<!-- Node25&#45;&gt;Node26 -->
<g id="edge33" class="edge">
<title>Node25&#45;&gt;Node26</title>
<path fill="none" stroke="midnightblue" d="M549,-280.08C549,-273.01 549,-262.86 549,-253.99"/>
<polygon fill="midnightblue" stroke="midnightblue" points="552.5,-253.75 549,-243.75 545.5,-253.75 552.5,-253.75"/>
</g>
</g>
</svg>
