<?xml version="1.0" encoding="UTF-8" standalone="no"?>
<!DOCTYPE svg PUBLIC "-//W3C//DTD SVG 1.1//EN"
 "http://www.w3.org/Graphics/SVG/1.1/DTD/svg11.dtd">
<!-- Generated by graphviz version 2.43.0 (0)
 -->
<!-- Title: src/Kernel/Utilitaires/vect_impl.cpp Pages: 1 -->
<svg width="704pt" height="655pt"
 viewBox="0.00 0.00 703.50 655.00" xmlns="http://www.w3.org/2000/svg" xmlns:xlink="http://www.w3.org/1999/xlink">
<g id="graph0" class="graph" transform="scale(1 1) rotate(0) translate(4 651)">
<title>src/Kernel/Utilitaires/vect_impl.cpp</title>
<polygon fill="white" stroke="transparent" points="-4,4 -4,-651 699.5,-651 699.5,4 -4,4"/>
<!-- Node1 -->
<g id="node1" class="node">
<title>Node1</title>
<g id="a_node1"><a xlink:title=" ">
<polygon fill="#bfbfbf" stroke="black" points="564.5,-616.5 564.5,-646.5 680.5,-646.5 680.5,-616.5 564.5,-616.5"/>
<text text-anchor="start" x="572.5" y="-634.5" font-family="Helvetica,sans-Serif" font-size="10.00">src/Kernel/Utilitaires</text>
<text text-anchor="middle" x="622.5" y="-623.5" font-family="Helvetica,sans-Serif" font-size="10.00">/vect_impl.cpp</text>
</a>
</g>
</g>
<!-- Node2 -->
<g id="node2" class="node">
<title>Node2</title>
<g id="a_node2"><a xlink:href="vect__impl_8h.html" target="_top" xlink:title=" ">
<polygon fill="white" stroke="black" points="585.5,-560.5 585.5,-579.5 659.5,-579.5 659.5,-560.5 585.5,-560.5"/>
<text text-anchor="middle" x="622.5" y="-567.5" font-family="Helvetica,sans-Serif" font-size="10.00">vect_impl.h</text>
</a>
</g>
</g>
<!-- Node1&#45;&gt;Node2 -->
<g id="edge1" class="edge">
<title>Node1&#45;&gt;Node2</title>
<path fill="none" stroke="midnightblue" d="M622.5,-616.4C622.5,-608.47 622.5,-598.46 622.5,-589.86"/>
<polygon fill="midnightblue" stroke="midnightblue" points="626,-589.66 622.5,-579.66 619,-589.66 626,-589.66"/>
</g>
<!-- Node3 -->
<g id="node3" class="node">
<title>Node3</title>
<g id="a_node3"><a xlink:href="Nom_8h.html" target="_top" xlink:title=" ">
<polygon fill="white" stroke="black" points="572,-448.5 572,-467.5 621,-467.5 621,-448.5 572,-448.5"/>
<text text-anchor="middle" x="596.5" y="-455.5" font-family="Helvetica,sans-Serif" font-size="10.00">Nom.h</text>
</a>
</g>
</g>
<!-- Node2&#45;&gt;Node3 -->
<g id="edge2" class="edge">
<title>Node2&#45;&gt;Node3</title>
<path fill="none" stroke="midnightblue" d="M620.46,-560.37C616.26,-542.62 606.58,-501.67 600.9,-477.6"/>
<polygon fill="midnightblue" stroke="midnightblue" points="604.24,-476.52 598.53,-467.59 597.42,-478.13 604.24,-476.52"/>
</g>
<!-- Node5 -->
<g id="node5" class="node">
<title>Node5</title>
<g id="a_node5"><a xlink:title=" ">
<polygon fill="white" stroke="#bfbfbf" points="577.5,-56.5 577.5,-75.5 633.5,-75.5 633.5,-56.5 577.5,-56.5"/>
<text text-anchor="middle" x="605.5" y="-63.5" font-family="Helvetica,sans-Serif" font-size="10.00">assert.h</text>
</a>
</g>
</g>
<!-- Node2&#45;&gt;Node5 -->
<g id="edge29" class="edge">
<title>Node2&#45;&gt;Node5</title>
<path fill="none" stroke="midnightblue" d="M632.09,-560.34C650.17,-543.02 687.5,-502.03 687.5,-459 687.5,-459 687.5,-459 687.5,-177 687.5,-136.27 650.91,-100.87 626.62,-81.86"/>
<polygon fill="midnightblue" stroke="midnightblue" points="628.41,-78.82 618.31,-75.61 624.2,-84.42 628.41,-78.82"/>
</g>
<!-- Node23 -->
<g id="node23" class="node">
<title>Node23</title>
<g id="a_node23"><a xlink:href="DerOu___8h.html" target="_top" xlink:title=" ">
<polygon fill="white" stroke="black" points="532.5,-504.5 532.5,-523.5 594.5,-523.5 594.5,-504.5 532.5,-504.5"/>
<text text-anchor="middle" x="563.5" y="-511.5" font-family="Helvetica,sans-Serif" font-size="10.00">DerOu_.h</text>
</a>
</g>
</g>
<!-- Node2&#45;&gt;Node23 -->
<g id="edge30" class="edge">
<title>Node2&#45;&gt;Node23</title>
<path fill="none" stroke="midnightblue" d="M613.02,-560.32C604.3,-552.34 591.16,-540.31 580.6,-530.65"/>
<polygon fill="midnightblue" stroke="midnightblue" points="582.89,-528 573.15,-523.83 578.17,-533.17 582.89,-528"/>
</g>
<!-- Node4 -->
<g id="node4" class="node">
<title>Node4</title>
<g id="a_node4"><a xlink:href="Objet__U_8h.html" target="_top" xlink:title=" ">
<polygon fill="white" stroke="black" points="441,-224.5 441,-243.5 506,-243.5 506,-224.5 441,-224.5"/>
<text text-anchor="middle" x="473.5" y="-231.5" font-family="Helvetica,sans-Serif" font-size="10.00">Objet_U.h</text>
</a>
</g>
</g>
<!-- Node3&#45;&gt;Node4 -->
<g id="edge3" class="edge">
<title>Node3&#45;&gt;Node4</title>
<path fill="none" stroke="midnightblue" d="M588.58,-448.26C581.04,-439.59 569.8,-425.64 562.5,-412 533.2,-357.22 548.92,-333 516.5,-280 509.83,-269.1 500.15,-258.67 491.67,-250.6"/>
<polygon fill="midnightblue" stroke="midnightblue" points="493.78,-247.8 484.03,-243.65 489.07,-252.97 493.78,-247.8"/>
</g>
<!-- Node20 -->
<g id="node20" class="node">
<title>Node20</title>
<g id="a_node20"><a xlink:title=" ">
<polygon fill="white" stroke="#bfbfbf" points="651.5,-56.5 651.5,-75.5 695.5,-75.5 695.5,-56.5 651.5,-56.5"/>
<text text-anchor="middle" x="673.5" y="-63.5" font-family="Helvetica,sans-Serif" font-size="10.00">string</text>
</a>
</g>
</g>
<!-- Node3&#45;&gt;Node20 -->
<g id="edge28" class="edge">
<title>Node3&#45;&gt;Node20</title>
<path fill="none" stroke="midnightblue" d="M604.58,-448.34C612.23,-439.72 623.55,-425.82 630.5,-412 644.02,-385.11 649.5,-377.1 649.5,-347 649.5,-347 649.5,-347 649.5,-177 649.5,-144.06 659.9,-106.82 667.01,-85.21"/>
<polygon fill="midnightblue" stroke="midnightblue" points="670.34,-86.29 670.26,-75.7 663.72,-84.03 670.34,-86.29"/>
</g>
<!-- Node22 -->
<g id="node22" class="node">
<title>Node22</title>
<g id="a_node22"><a xlink:title=" ">
<polygon fill="white" stroke="#bfbfbf" points="571.5,-392.5 571.5,-411.5 621.5,-411.5 621.5,-392.5 571.5,-392.5"/>
<text text-anchor="middle" x="596.5" y="-399.5" font-family="Helvetica,sans-Serif" font-size="10.00">cstring</text>
</a>
</g>
</g>
<!-- Node3&#45;&gt;Node22 -->
<g id="edge27" class="edge">
<title>Node3&#45;&gt;Node22</title>
<path fill="none" stroke="midnightblue" d="M596.5,-448.08C596.5,-441.01 596.5,-430.86 596.5,-421.99"/>
<polygon fill="midnightblue" stroke="midnightblue" points="600,-421.75 596.5,-411.75 593,-421.75 600,-421.75"/>
</g>
<!-- Node4&#45;&gt;Node5 -->
<g id="edge4" class="edge">
<title>Node4&#45;&gt;Node5</title>
<path fill="none" stroke="midnightblue" d="M489.17,-224.46C515.14,-209.43 566.79,-175.66 592.5,-132 600.8,-117.9 603.89,-99.41 605,-85.76"/>
<polygon fill="midnightblue" stroke="midnightblue" points="608.5,-85.8 605.53,-75.63 601.51,-85.43 608.5,-85.8"/>
</g>
<!-- Node6 -->
<g id="node6" class="node">
<title>Node6</title>
<g id="a_node6"><a xlink:href="DecBaseInst_8h.html" target="_top" xlink:title=" ">
<polygon fill="white" stroke="black" points="122.5,-168.5 122.5,-187.5 208.5,-187.5 208.5,-168.5 122.5,-168.5"/>
<text text-anchor="middle" x="165.5" y="-175.5" font-family="Helvetica,sans-Serif" font-size="10.00">DecBaseInst.h</text>
</a>
</g>
</g>
<!-- Node4&#45;&gt;Node6 -->
<g id="edge5" class="edge">
<title>Node4&#45;&gt;Node6</title>
<path fill="none" stroke="midnightblue" d="M440.83,-227.27C387.78,-217.97 282.41,-199.5 218.52,-188.3"/>
<polygon fill="midnightblue" stroke="midnightblue" points="219.09,-184.84 208.63,-186.56 217.88,-191.74 219.09,-184.84"/>
</g>
<!-- Node11 -->
<g id="node11" class="node">
<title>Node11</title>
<g id="a_node11"><a xlink:href="EntreeSortie_8h.html" target="_top" xlink:title=" ">
<polygon fill="white" stroke="black" points="429.5,-168.5 429.5,-187.5 515.5,-187.5 515.5,-168.5 429.5,-168.5"/>
<text text-anchor="middle" x="472.5" y="-175.5" font-family="Helvetica,sans-Serif" font-size="10.00">EntreeSortie.h</text>
</a>
</g>
</g>
<!-- Node4&#45;&gt;Node11 -->
<g id="edge11" class="edge">
<title>Node4&#45;&gt;Node11</title>
<path fill="none" stroke="midnightblue" d="M473.33,-224.08C473.2,-217.01 473.02,-206.86 472.85,-197.99"/>
<polygon fill="midnightblue" stroke="midnightblue" points="476.35,-197.68 472.66,-187.75 469.35,-197.81 476.35,-197.68"/>
</g>
<!-- Node16 -->
<g id="node16" class="node">
<title>Node16</title>
<g id="a_node16"><a xlink:href="Process_8h.html" target="_top" xlink:title=" ">
<polygon fill="white" stroke="black" points="220,-56.5 220,-75.5 283,-75.5 283,-56.5 220,-56.5"/>
<text text-anchor="middle" x="251.5" y="-63.5" font-family="Helvetica,sans-Serif" font-size="10.00">Process.h</text>
</a>
</g>
</g>
<!-- Node4&#45;&gt;Node16 -->
<g id="edge26" class="edge">
<title>Node4&#45;&gt;Node16</title>
<path fill="none" stroke="midnightblue" d="M461.88,-224.31C425.91,-197.42 316.16,-115.35 271.11,-81.67"/>
<polygon fill="midnightblue" stroke="midnightblue" points="273.11,-78.79 263.01,-75.61 268.92,-84.4 273.11,-78.79"/>
</g>
<!-- Node7 -->
<g id="node7" class="node">
<title>Node7</title>
<g id="a_node7"><a xlink:href="Cast_8h.html" target="_top" xlink:title=" ">
<polygon fill="white" stroke="black" points="0,-56.5 0,-75.5 47,-75.5 47,-56.5 0,-56.5"/>
<text text-anchor="middle" x="23.5" y="-63.5" font-family="Helvetica,sans-Serif" font-size="10.00">Cast.h</text>
</a>
</g>
</g>
<!-- Node6&#45;&gt;Node7 -->
<g id="edge6" class="edge">
<title>Node6&#45;&gt;Node7</title>
<path fill="none" stroke="midnightblue" d="M122.21,-170.68C80.1,-163.55 20.47,-150.48 6.5,-132 -3.9,-118.24 3.38,-98.69 11.4,-84.63"/>
<polygon fill="midnightblue" stroke="midnightblue" points="14.51,-86.24 16.85,-75.91 8.58,-82.53 14.51,-86.24"/>
</g>
<!-- Node8 -->
<g id="node8" class="node">
<title>Node8</title>
<g id="a_node8"><a xlink:href="Type__info_8h.html" target="_top" xlink:title=" ">
<polygon fill="white" stroke="black" points="229.5,-112.5 229.5,-131.5 301.5,-131.5 301.5,-112.5 229.5,-112.5"/>
<text text-anchor="middle" x="265.5" y="-119.5" font-family="Helvetica,sans-Serif" font-size="10.00">Type_info.h</text>
</a>
</g>
</g>
<!-- Node6&#45;&gt;Node8 -->
<g id="edge7" class="edge">
<title>Node6&#45;&gt;Node8</title>
<path fill="none" stroke="midnightblue" d="M181.57,-168.32C197.46,-159.74 222.01,-146.49 240.46,-136.52"/>
<polygon fill="midnightblue" stroke="midnightblue" points="242.34,-139.49 249.47,-131.65 239.01,-133.33 242.34,-139.49"/>
</g>
<!-- Node9 -->
<g id="node9" class="node">
<title>Node9</title>
<g id="a_node9"><a xlink:href="Declare__Base_8h.html" target="_top" xlink:title=" ">
<polygon fill="white" stroke="black" points="119.5,-112.5 119.5,-131.5 211.5,-131.5 211.5,-112.5 119.5,-112.5"/>
<text text-anchor="middle" x="165.5" y="-119.5" font-family="Helvetica,sans-Serif" font-size="10.00">Declare_Base.h</text>
</a>
</g>
</g>
<!-- Node6&#45;&gt;Node9 -->
<g id="edge8" class="edge">
<title>Node6&#45;&gt;Node9</title>
<path fill="none" stroke="midnightblue" d="M165.5,-168.08C165.5,-161.01 165.5,-150.86 165.5,-141.99"/>
<polygon fill="midnightblue" stroke="midnightblue" points="169,-141.75 165.5,-131.75 162,-141.75 169,-141.75"/>
</g>
<!-- Node10 -->
<g id="node10" class="node">
<title>Node10</title>
<g id="a_node10"><a xlink:href="Declare__Inst_8h.html" target="_top" xlink:title=" ">
<polygon fill="white" stroke="black" points="15.5,-112.5 15.5,-131.5 101.5,-131.5 101.5,-112.5 15.5,-112.5"/>
<text text-anchor="middle" x="58.5" y="-119.5" font-family="Helvetica,sans-Serif" font-size="10.00">Declare_Inst.h</text>
</a>
</g>
</g>
<!-- Node6&#45;&gt;Node10 -->
<g id="edge9" class="edge">
<title>Node6&#45;&gt;Node10</title>
<path fill="none" stroke="midnightblue" d="M148.31,-168.32C131.15,-159.66 104.55,-146.24 84.75,-136.25"/>
<polygon fill="midnightblue" stroke="midnightblue" points="86.15,-133.04 75.65,-131.65 83,-139.28 86.15,-133.04"/>
</g>
<!-- Node10&#45;&gt;Node7 -->
<g id="edge10" class="edge">
<title>Node10&#45;&gt;Node7</title>
<path fill="none" stroke="midnightblue" d="M52.72,-112.08C47.83,-104.53 40.67,-93.49 34.67,-84.23"/>
<polygon fill="midnightblue" stroke="midnightblue" points="37.55,-82.24 29.17,-75.75 31.67,-86.05 37.55,-82.24"/>
</g>
<!-- Node12 -->
<g id="node12" class="node">
<title>Node12</title>
<g id="a_node12"><a xlink:href="Entree_8h.html" target="_top" xlink:title=" ">
<polygon fill="white" stroke="black" points="358,-112.5 358,-131.5 415,-131.5 415,-112.5 358,-112.5"/>
<text text-anchor="middle" x="386.5" y="-119.5" font-family="Helvetica,sans-Serif" font-size="10.00">Entree.h</text>
</a>
</g>
</g>
<!-- Node11&#45;&gt;Node12 -->
<g id="edge12" class="edge">
<title>Node11&#45;&gt;Node12</title>
<path fill="none" stroke="midnightblue" d="M458.68,-168.32C445.27,-159.9 424.68,-146.97 408.91,-137.07"/>
<polygon fill="midnightblue" stroke="midnightblue" points="410.61,-134.01 400.28,-131.65 406.89,-139.94 410.61,-134.01"/>
</g>
<!-- Node19 -->
<g id="node19" class="node">
<title>Node19</title>
<g id="a_node19"><a xlink:href="Sortie_8h.html" target="_top" xlink:title=" ">
<polygon fill="white" stroke="black" points="529.5,-112.5 529.5,-131.5 583.5,-131.5 583.5,-112.5 529.5,-112.5"/>
<text text-anchor="middle" x="556.5" y="-119.5" font-family="Helvetica,sans-Serif" font-size="10.00">Sortie.h</text>
</a>
</g>
</g>
<!-- Node11&#45;&gt;Node19 -->
<g id="edge20" class="edge">
<title>Node11&#45;&gt;Node19</title>
<path fill="none" stroke="midnightblue" d="M486,-168.32C499.1,-159.9 519.21,-146.97 534.61,-137.07"/>
<polygon fill="midnightblue" stroke="midnightblue" points="536.52,-140.01 543.04,-131.65 532.73,-134.12 536.52,-140.01"/>
</g>
<!-- Node21 -->
<g id="node21" class="node">
<title>Node21</title>
<g id="a_node21"><a xlink:href="Separateur_8h.html" target="_top" xlink:title=" ">
<polygon fill="white" stroke="black" points="433.5,-112.5 433.5,-131.5 511.5,-131.5 511.5,-112.5 433.5,-112.5"/>
<text text-anchor="middle" x="472.5" y="-119.5" font-family="Helvetica,sans-Serif" font-size="10.00">Separateur.h</text>
</a>
</g>
</g>
<!-- Node11&#45;&gt;Node21 -->
<g id="edge25" class="edge">
<title>Node11&#45;&gt;Node21</title>
<path fill="none" stroke="midnightblue" d="M472.5,-168.08C472.5,-161.01 472.5,-150.86 472.5,-141.99"/>
<polygon fill="midnightblue" stroke="midnightblue" points="476,-141.75 472.5,-131.75 469,-141.75 476,-141.75"/>
</g>
<!-- Node12&#45;&gt;Node5 -->
<g id="edge16" class="edge">
<title>Node12&#45;&gt;Node5</title>
<path fill="none" stroke="midnightblue" d="M415.13,-113.94C454.09,-104.33 523.92,-87.11 567.31,-76.42"/>
<polygon fill="midnightblue" stroke="midnightblue" points="568.34,-79.77 577.21,-73.98 566.66,-72.97 568.34,-79.77"/>
</g>
<!-- Node13 -->
<g id="node13" class="node">
<title>Node13</title>
<g id="a_node13"><a xlink:title=" ">
<polygon fill="white" stroke="#bfbfbf" points="301.5,-56.5 301.5,-75.5 351.5,-75.5 351.5,-56.5 301.5,-56.5"/>
<text text-anchor="middle" x="326.5" y="-63.5" font-family="Helvetica,sans-Serif" font-size="10.00">stdio.h</text>
</a>
</g>
</g>
<!-- Node12&#45;&gt;Node13 -->
<g id="edge13" class="edge">
<title>Node12&#45;&gt;Node13</title>
<path fill="none" stroke="midnightblue" d="M376.86,-112.32C367.99,-104.34 354.63,-92.31 343.89,-82.65"/>
<polygon fill="midnightblue" stroke="midnightblue" points="346.09,-79.92 336.32,-75.83 341.41,-85.13 346.09,-79.92"/>
</g>
<!-- Node14 -->
<g id="node14" class="node">
<title>Node14</title>
<g id="a_node14"><a xlink:title=" ">
<polygon fill="white" stroke="#bfbfbf" points="369.5,-56.5 369.5,-75.5 415.5,-75.5 415.5,-56.5 369.5,-56.5"/>
<text text-anchor="middle" x="392.5" y="-63.5" font-family="Helvetica,sans-Serif" font-size="10.00">cstdio</text>
</a>
</g>
</g>
<!-- Node12&#45;&gt;Node14 -->
<g id="edge14" class="edge">
<title>Node12&#45;&gt;Node14</title>
<path fill="none" stroke="midnightblue" d="M387.49,-112.08C388.29,-104.93 389.43,-94.64 390.42,-85.69"/>
<polygon fill="midnightblue" stroke="midnightblue" points="393.9,-86.08 391.53,-75.75 386.94,-85.3 393.9,-86.08"/>
</g>
<!-- Node15 -->
<g id="node15" class="node">
<title>Node15</title>
<g id="a_node15"><a xlink:title=" ">
<polygon fill="white" stroke="#bfbfbf" points="499.5,-56.5 499.5,-75.5 559.5,-75.5 559.5,-56.5 499.5,-56.5"/>
<text text-anchor="middle" x="529.5" y="-63.5" font-family="Helvetica,sans-Serif" font-size="10.00">iostream</text>
</a>
</g>
</g>
<!-- Node12&#45;&gt;Node15 -->
<g id="edge15" class="edge">
<title>Node12&#45;&gt;Node15</title>
<path fill="none" stroke="midnightblue" d="M409.16,-112.44C432.9,-103.48 470.41,-89.31 497.24,-79.18"/>
<polygon fill="midnightblue" stroke="midnightblue" points="498.83,-82.32 506.95,-75.52 496.36,-75.77 498.83,-82.32"/>
</g>
<!-- Node12&#45;&gt;Node16 -->
<g id="edge17" class="edge">
<title>Node12&#45;&gt;Node16</title>
<path fill="none" stroke="midnightblue" d="M365.11,-112.44C342.79,-103.52 307.6,-89.44 282.29,-79.32"/>
<polygon fill="midnightblue" stroke="midnightblue" points="283.38,-75.98 272.79,-75.52 280.78,-82.48 283.38,-75.98"/>
</g>
<!-- Node17 -->
<g id="node17" class="node">
<title>Node17</title>
<g id="a_node17"><a xlink:href="arch_8h.html" target="_top" xlink:title=" ">
<polygon fill="white" stroke="black" points="434,-56.5 434,-75.5 481,-75.5 481,-56.5 434,-56.5"/>
<text text-anchor="middle" x="457.5" y="-63.5" font-family="Helvetica,sans-Serif" font-size="10.00">arch.h</text>
</a>
</g>
</g>
<!-- Node12&#45;&gt;Node17 -->
<g id="edge18" class="edge">
<title>Node12&#45;&gt;Node17</title>
<path fill="none" stroke="midnightblue" d="M397.91,-112.32C408.61,-104.18 424.84,-91.84 437.66,-82.09"/>
<polygon fill="midnightblue" stroke="midnightblue" points="440.04,-84.67 445.89,-75.83 435.81,-79.1 440.04,-84.67"/>
</g>
<!-- Node18 -->
<g id="node18" class="node">
<title>Node18</title>
<g id="a_node18"><a xlink:href="generique_8h.html" target="_top" xlink:title=" ">
<polygon fill="white" stroke="black" points="420.5,-0.5 420.5,-19.5 494.5,-19.5 494.5,-0.5 420.5,-0.5"/>
<text text-anchor="middle" x="457.5" y="-7.5" font-family="Helvetica,sans-Serif" font-size="10.00">generique.h</text>
</a>
</g>
</g>
<!-- Node17&#45;&gt;Node18 -->
<g id="edge19" class="edge">
<title>Node17&#45;&gt;Node18</title>
<path fill="none" stroke="midnightblue" d="M457.5,-56.08C457.5,-49.01 457.5,-38.86 457.5,-29.99"/>
<polygon fill="midnightblue" stroke="midnightblue" points="461,-29.75 457.5,-19.75 454,-29.75 461,-29.75"/>
</g>
<!-- Node19&#45;&gt;Node5 -->
<g id="edge22" class="edge">
<title>Node19&#45;&gt;Node5</title>
<path fill="none" stroke="midnightblue" d="M564.59,-112.08C571.66,-104.3 582.09,-92.8 590.65,-83.37"/>
<polygon fill="midnightblue" stroke="midnightblue" points="593.43,-85.51 597.56,-75.75 588.25,-80.8 593.43,-85.51"/>
</g>
<!-- Node19&#45;&gt;Node15 -->
<g id="edge21" class="edge">
<title>Node19&#45;&gt;Node15</title>
<path fill="none" stroke="midnightblue" d="M552.04,-112.08C548.35,-104.69 542.98,-93.95 538.41,-84.81"/>
<polygon fill="midnightblue" stroke="midnightblue" points="541.48,-83.13 533.88,-75.75 535.22,-86.26 541.48,-83.13"/>
</g>
<!-- Node19&#45;&gt;Node17 -->
<g id="edge23" class="edge">
<title>Node19&#45;&gt;Node17</title>
<path fill="none" stroke="midnightblue" d="M540.59,-112.32C524.86,-103.74 500.56,-90.49 482.29,-80.52"/>
<polygon fill="midnightblue" stroke="midnightblue" points="483.82,-77.37 473.37,-75.65 480.47,-83.52 483.82,-77.37"/>
</g>
<!-- Node19&#45;&gt;Node20 -->
<g id="edge24" class="edge">
<title>Node19&#45;&gt;Node20</title>
<path fill="none" stroke="midnightblue" d="M575.04,-112.44C594.12,-103.64 624.07,-89.81 645.94,-79.72"/>
<polygon fill="midnightblue" stroke="midnightblue" points="647.43,-82.88 655.05,-75.52 644.5,-76.53 647.43,-82.88"/>
</g>
<!-- Node23&#45;&gt;Node3 -->
<g id="edge36" class="edge">
<title>Node23&#45;&gt;Node3</title>
<path fill="none" stroke="midnightblue" d="M568.95,-504.08C573.51,-496.61 580.17,-485.72 585.79,-476.52"/>
<polygon fill="midnightblue" stroke="midnightblue" points="588.92,-478.11 591.15,-467.75 582.95,-474.46 588.92,-478.11"/>
</g>
<!-- Node24 -->
<g id="node24" class="node">
<title>Node24</title>
<g id="a_node24"><a xlink:href="Deriv_8h.html" target="_top" xlink:title=" ">
<polygon fill="white" stroke="black" points="479,-448.5 479,-467.5 530,-467.5 530,-448.5 479,-448.5"/>
<text text-anchor="middle" x="504.5" y="-455.5" font-family="Helvetica,sans-Serif" font-size="10.00">Deriv.h</text>
</a>
</g>
</g>
<!-- Node23&#45;&gt;Node24 -->
<g id="edge31" class="edge">
<title>Node23&#45;&gt;Node24</title>
<path fill="none" stroke="midnightblue" d="M554.02,-504.32C545.3,-496.34 532.16,-484.31 521.6,-474.65"/>
<polygon fill="midnightblue" stroke="midnightblue" points="523.89,-472 514.15,-467.83 519.17,-477.17 523.89,-472"/>
</g>
<!-- Node25 -->
<g id="node25" class="node">
<title>Node25</title>
<g id="a_node25"><a xlink:href="MacDeriv_8h.html" target="_top" xlink:title=" ">
<polygon fill="white" stroke="black" points="444,-392.5 444,-411.5 515,-411.5 515,-392.5 444,-392.5"/>
<text text-anchor="middle" x="479.5" y="-399.5" font-family="Helvetica,sans-Serif" font-size="10.00">MacDeriv.h</text>
</a>
</g>
</g>
<!-- Node24&#45;&gt;Node25 -->
<g id="edge32" class="edge">
<title>Node24&#45;&gt;Node25</title>
<path fill="none" stroke="midnightblue" d="M500.37,-448.08C496.99,-440.77 492.08,-430.18 487.88,-421.1"/>
<polygon fill="midnightblue" stroke="midnightblue" points="490.93,-419.36 483.55,-411.75 484.58,-422.3 490.93,-419.36"/>
</g>
<!-- Node26 -->
<g id="node26" class="node">
<title>Node26</title>
<g id="a_node26"><a xlink:href="Deriv___8h.html" target="_top" xlink:title=" ">
<polygon fill="white" stroke="black" points="450,-336.5 450,-355.5 507,-355.5 507,-336.5 450,-336.5"/>
<text text-anchor="middle" x="478.5" y="-343.5" font-family="Helvetica,sans-Serif" font-size="10.00">Deriv_.h</text>
</a>
</g>
</g>
<!-- Node25&#45;&gt;Node26 -->
<g id="edge33" class="edge">
<title>Node25&#45;&gt;Node26</title>
<path fill="none" stroke="midnightblue" d="M479.33,-392.08C479.2,-385.01 479.02,-374.86 478.85,-365.99"/>
<polygon fill="midnightblue" stroke="midnightblue" points="482.35,-365.68 478.66,-355.75 475.35,-365.81 482.35,-365.68"/>
</g>
<!-- Node27 -->
<g id="node27" class="node">
<title>Node27</title>
<g id="a_node27"><a xlink:href="O__U__Ptr_8h.html" target="_top" xlink:title=" ">
<polygon fill="white" stroke="black" points="443.5,-280.5 443.5,-299.5 507.5,-299.5 507.5,-280.5 443.5,-280.5"/>
<text text-anchor="middle" x="475.5" y="-287.5" font-family="Helvetica,sans-Serif" font-size="10.00">O_U_Ptr.h</text>
</a>
</g>
</g>
<!-- Node26&#45;&gt;Node27 -->
<g id="edge34" class="edge">
<title>Node26&#45;&gt;Node27</title>
<path fill="none" stroke="midnightblue" d="M478,-336.08C477.61,-329.01 477.05,-318.86 476.55,-309.99"/>
<polygon fill="midnightblue" stroke="midnightblue" points="480.04,-309.54 475.99,-299.75 473.05,-309.93 480.04,-309.54"/>
</g>
<!-- Node27&#45;&gt;Node4 -->
<g id="edge35" class="edge">
<title>Node27&#45;&gt;Node4</title>
<path fill="none" stroke="midnightblue" d="M475.17,-280.08C474.91,-273.01 474.53,-262.86 474.2,-253.99"/>
<polygon fill="midnightblue" stroke="midnightblue" points="477.69,-253.61 473.82,-243.75 470.7,-253.87 477.69,-253.61"/>
</g>
</g>
</svg>
