<?xml version="1.0" encoding="UTF-8" standalone="no"?>
<!DOCTYPE svg PUBLIC "-//W3C//DTD SVG 1.1//EN"
 "http://www.w3.org/Graphics/SVG/1.1/DTD/svg11.dtd">
<!-- Generated by graphviz version 2.43.0 (0)
 -->
<!-- Title: src/ThHyd/Multiphase/Turbulence/Viscosite_turbulente_base.h Pages: 1 -->
<svg width="788pt" height="284pt"
 viewBox="0.00 0.00 787.96 284.00" xmlns="http://www.w3.org/2000/svg" xmlns:xlink="http://www.w3.org/1999/xlink">
<g id="graph0" class="graph" transform="scale(1 1) rotate(0) translate(4 280)">
<title>src/ThHyd/Multiphase/Turbulence/Viscosite_turbulente_base.h</title>
<polygon fill="white" stroke="transparent" points="-4,4 -4,-280 783.96,-280 783.96,4 -4,4"/>
<!-- Node1 -->
<g id="node1" class="node">
<title>Node1</title>
<g id="a_node1"><a xlink:title=" ">
<polygon fill="#bfbfbf" stroke="black" points="288.96,-234.5 288.96,-275.5 410.96,-275.5 410.96,-234.5 288.96,-234.5"/>
<text text-anchor="start" x="296.96" y="-263.5" font-family="Helvetica,sans-Serif" font-size="10.00">src/ThHyd/Multiphase</text>
<text text-anchor="start" x="296.96" y="-252.5" font-family="Helvetica,sans-Serif" font-size="10.00">/Turbulence/Viscosite</text>
<text text-anchor="middle" x="349.96" y="-241.5" font-family="Helvetica,sans-Serif" font-size="10.00">_turbulente_base.h</text>
</a>
</g>
</g>
<!-- Node2 -->
<g id="node2" class="node">
<title>Node2</title>
<g id="a_node2"><a xlink:href="Op__Diff__Turbulent__PolyMAC__P0__Elem_8cpp.html" target="_top" xlink:title=" ">
<polygon fill="white" stroke="black" points="154.46,-0.5 154.46,-41.5 309.46,-41.5 309.46,-0.5 154.46,-0.5"/>
<text text-anchor="start" x="162.46" y="-29.5" font-family="Helvetica,sans-Serif" font-size="10.00">src/PolyMAC/Operateurs</text>
<text text-anchor="start" x="162.46" y="-18.5" font-family="Helvetica,sans-Serif" font-size="10.00">/Op_Diff_Turbulent_PolyMAC</text>
<text text-anchor="middle" x="231.96" y="-7.5" font-family="Helvetica,sans-Serif" font-size="10.00">_P0_Elem.cpp</text>
</a>
</g>
</g>
<!-- Node1&#45;&gt;Node2 -->
<g id="edge1" class="edge">
<title>Node1&#45;&gt;Node2</title>
<path fill="none" stroke="midnightblue" d="M278.66,-252.52C190.27,-249 47.19,-237.23 13.96,-198 -42.71,-131.1 88.5,-71.16 171.11,-41.54"/>
<polygon fill="midnightblue" stroke="midnightblue" points="278.77,-256.03 288.89,-252.9 279.03,-249.03 278.77,-256.03"/>
</g>
<!-- Node3 -->
<g id="node3" class="node">
<title>Node3</title>
<g id="a_node3"><a xlink:href="Op__Diff__Turbulent__PolyMAC__P0__Face_8cpp.html" target="_top" xlink:title=" ">
<polygon fill="white" stroke="black" points="23.46,-156.5 23.46,-197.5 178.46,-197.5 178.46,-156.5 23.46,-156.5"/>
<text text-anchor="start" x="31.46" y="-185.5" font-family="Helvetica,sans-Serif" font-size="10.00">src/PolyMAC/Operateurs</text>
<text text-anchor="start" x="31.46" y="-174.5" font-family="Helvetica,sans-Serif" font-size="10.00">/Op_Diff_Turbulent_PolyMAC</text>
<text text-anchor="middle" x="100.96" y="-163.5" font-family="Helvetica,sans-Serif" font-size="10.00">_P0_Face.cpp</text>
</a>
</g>
</g>
<!-- Node1&#45;&gt;Node3 -->
<g id="edge2" class="edge">
<title>Node1&#45;&gt;Node3</title>
<path fill="none" stroke="midnightblue" d="M278.82,-232.29C242.96,-221.34 199.82,-208.17 165,-197.55"/>
<polygon fill="midnightblue" stroke="midnightblue" points="278.15,-235.74 288.73,-235.31 280.19,-229.04 278.15,-235.74"/>
</g>
<!-- Node4 -->
<g id="node4" class="node">
<title>Node4</title>
<g id="a_node4"><a xlink:href="Dispersion__bulles__PolyMAC__P0_8cpp.html" target="_top" xlink:title=" ">
<polygon fill="white" stroke="black" points="196.96,-156.5 196.96,-197.5 348.96,-197.5 348.96,-156.5 196.96,-156.5"/>
<text text-anchor="start" x="204.96" y="-185.5" font-family="Helvetica,sans-Serif" font-size="10.00">src/ThHyd/Multiphase</text>
<text text-anchor="start" x="204.96" y="-174.5" font-family="Helvetica,sans-Serif" font-size="10.00">/PolyMAC/Dispersion_bulles</text>
<text text-anchor="middle" x="272.96" y="-163.5" font-family="Helvetica,sans-Serif" font-size="10.00">_PolyMAC_P0.cpp</text>
</a>
</g>
</g>
<!-- Node1&#45;&gt;Node4 -->
<g id="edge3" class="edge">
<title>Node1&#45;&gt;Node4</title>
<path fill="none" stroke="midnightblue" d="M322.81,-227.2C312.9,-217.42 301.88,-206.54 292.73,-197.51"/>
<polygon fill="midnightblue" stroke="midnightblue" points="320.56,-229.89 330.13,-234.43 325.48,-224.91 320.56,-229.89"/>
</g>
<!-- Node5 -->
<g id="node5" class="node">
<title>Node5</title>
<g id="a_node5"><a xlink:href="Transport__turbulent__base_8h.html" target="_top" xlink:title=" ">
<polygon fill="white" stroke="black" points="366.96,-156.5 366.96,-197.5 488.96,-197.5 488.96,-156.5 366.96,-156.5"/>
<text text-anchor="start" x="374.96" y="-185.5" font-family="Helvetica,sans-Serif" font-size="10.00">src/ThHyd/Multiphase</text>
<text text-anchor="start" x="374.96" y="-174.5" font-family="Helvetica,sans-Serif" font-size="10.00">/Turbulence/Transport</text>
<text text-anchor="middle" x="427.96" y="-163.5" font-family="Helvetica,sans-Serif" font-size="10.00">_turbulent_base.h</text>
</a>
</g>
</g>
<!-- Node1&#45;&gt;Node5 -->
<g id="edge4" class="edge">
<title>Node1&#45;&gt;Node5</title>
<path fill="none" stroke="midnightblue" d="M377.46,-227.2C387.51,-217.42 398.67,-206.54 407.94,-197.51"/>
<polygon fill="midnightblue" stroke="midnightblue" points="374.77,-224.94 370.05,-234.43 379.66,-229.96 374.77,-224.94"/>
</g>
<!-- Node8 -->
<g id="node8" class="node">
<title>Node8</title>
<g id="a_node8"><a xlink:href="Viscosite__turbulente__base_8cpp.html" target="_top" xlink:title=" ">
<polygon fill="white" stroke="black" points="506.96,-156.5 506.96,-197.5 628.96,-197.5 628.96,-156.5 506.96,-156.5"/>
<text text-anchor="start" x="514.96" y="-185.5" font-family="Helvetica,sans-Serif" font-size="10.00">src/ThHyd/Multiphase</text>
<text text-anchor="start" x="514.96" y="-174.5" font-family="Helvetica,sans-Serif" font-size="10.00">/Turbulence/Viscosite</text>
<text text-anchor="middle" x="567.96" y="-163.5" font-family="Helvetica,sans-Serif" font-size="10.00">_turbulente_base.cpp</text>
</a>
</g>
</g>
<!-- Node1&#45;&gt;Node8 -->
<g id="edge9" class="edge">
<title>Node1&#45;&gt;Node8</title>
<path fill="none" stroke="midnightblue" d="M415.86,-231.03C446.55,-220.33 482.67,-207.73 512.01,-197.51"/>
<polygon fill="midnightblue" stroke="midnightblue" points="414.39,-227.83 406.1,-234.43 416.7,-234.44 414.39,-227.83"/>
</g>
<!-- Node9 -->
<g id="node9" class="node">
<title>Node9</title>
<g id="a_node9"><a xlink:href="Viscosite__turbulente__multiple_8h.html" target="_top" xlink:title=" ">
<polygon fill="white" stroke="black" points="647.46,-156.5 647.46,-197.5 774.46,-197.5 774.46,-156.5 647.46,-156.5"/>
<text text-anchor="start" x="655.46" y="-185.5" font-family="Helvetica,sans-Serif" font-size="10.00">src/ThHyd/Multiphase</text>
<text text-anchor="start" x="655.46" y="-174.5" font-family="Helvetica,sans-Serif" font-size="10.00">/Turbulence/Viscosite</text>
<text text-anchor="middle" x="710.96" y="-163.5" font-family="Helvetica,sans-Serif" font-size="10.00">_turbulente_multiple.h</text>
</a>
</g>
</g>
<!-- Node1&#45;&gt;Node9 -->
<g id="edge10" class="edge">
<title>Node1&#45;&gt;Node9</title>
<path fill="none" stroke="midnightblue" d="M421.08,-241.71C479.57,-231.24 564.47,-215.19 637.96,-198 641.03,-197.28 644.17,-196.52 647.33,-195.74"/>
<polygon fill="midnightblue" stroke="midnightblue" points="420.44,-238.27 411.21,-243.47 421.67,-245.16 420.44,-238.27"/>
</g>
<!-- Node5&#45;&gt;Node2 -->
<g id="edge5" class="edge">
<title>Node5&#45;&gt;Node2</title>
<path fill="none" stroke="midnightblue" d="M356.86,-155.32C309.32,-141.19 254.79,-124.29 250.96,-120 231.82,-98.52 229.52,-63.69 230.26,-41.86"/>
<polygon fill="midnightblue" stroke="midnightblue" points="355.98,-158.71 366.57,-158.19 357.97,-151.99 355.98,-158.71"/>
</g>
<!-- Node6 -->
<g id="node6" class="node">
<title>Node6</title>
<g id="a_node6"><a xlink:href="Op__Diff__Turbulent__PolyMAC__P0__Elem_8h.html" target="_top" xlink:title=" ">
<polygon fill="white" stroke="black" points="260.46,-78.5 260.46,-119.5 415.46,-119.5 415.46,-78.5 260.46,-78.5"/>
<text text-anchor="start" x="268.46" y="-107.5" font-family="Helvetica,sans-Serif" font-size="10.00">src/PolyMAC/Operateurs</text>
<text text-anchor="start" x="268.46" y="-96.5" font-family="Helvetica,sans-Serif" font-size="10.00">/Op_Diff_Turbulent_PolyMAC</text>
<text text-anchor="middle" x="337.96" y="-85.5" font-family="Helvetica,sans-Serif" font-size="10.00">_P0_Elem.h</text>
</a>
</g>
</g>
<!-- Node5&#45;&gt;Node6 -->
<g id="edge6" class="edge">
<title>Node5&#45;&gt;Node6</title>
<path fill="none" stroke="midnightblue" d="M396.91,-149.78C385.15,-139.84 371.97,-128.72 361.06,-119.51"/>
<polygon fill="midnightblue" stroke="midnightblue" points="394.89,-152.65 404.79,-156.43 399.4,-147.3 394.89,-152.65"/>
</g>
<!-- Node7 -->
<g id="node7" class="node">
<title>Node7</title>
<g id="a_node7"><a xlink:href="Transport__turbulent__base_8cpp.html" target="_top" xlink:title=" ">
<polygon fill="white" stroke="black" points="433.96,-78.5 433.96,-119.5 555.96,-119.5 555.96,-78.5 433.96,-78.5"/>
<text text-anchor="start" x="441.96" y="-107.5" font-family="Helvetica,sans-Serif" font-size="10.00">src/ThHyd/Multiphase</text>
<text text-anchor="start" x="441.96" y="-96.5" font-family="Helvetica,sans-Serif" font-size="10.00">/Turbulence/Transport</text>
<text text-anchor="middle" x="494.96" y="-85.5" font-family="Helvetica,sans-Serif" font-size="10.00">_turbulent_base.cpp</text>
</a>
</g>
</g>
<!-- Node5&#45;&gt;Node7 -->
<g id="edge8" class="edge">
<title>Node5&#45;&gt;Node7</title>
<path fill="none" stroke="midnightblue" d="M451.84,-148.92C460.4,-139.2 469.88,-128.45 477.77,-119.51"/>
<polygon fill="midnightblue" stroke="midnightblue" points="449.2,-146.61 445.22,-156.43 454.46,-151.24 449.2,-146.61"/>
</g>
<!-- Node6&#45;&gt;Node2 -->
<g id="edge7" class="edge">
<title>Node6&#45;&gt;Node2</title>
<path fill="none" stroke="midnightblue" d="M302.19,-72.35C288.13,-62.27 272.26,-50.89 259.17,-41.51"/>
<polygon fill="midnightblue" stroke="midnightblue" points="300.5,-75.45 310.67,-78.43 304.58,-69.76 300.5,-75.45"/>
</g>
<!-- Node10 -->
<g id="node10" class="node">
<title>Node10</title>
<g id="a_node10"><a xlink:href="Viscosite__turbulente__multiple_8cpp.html" target="_top" xlink:title=" ">
<polygon fill="white" stroke="black" points="641.96,-78.5 641.96,-119.5 779.96,-119.5 779.96,-78.5 641.96,-78.5"/>
<text text-anchor="start" x="649.96" y="-107.5" font-family="Helvetica,sans-Serif" font-size="10.00">src/ThHyd/Multiphase</text>
<text text-anchor="start" x="649.96" y="-96.5" font-family="Helvetica,sans-Serif" font-size="10.00">/Turbulence/Viscosite</text>
<text text-anchor="middle" x="710.96" y="-85.5" font-family="Helvetica,sans-Serif" font-size="10.00">_turbulente_multiple.cpp</text>
</a>
</g>
</g>
<!-- Node9&#45;&gt;Node10 -->
<g id="edge11" class="edge">
<title>Node9&#45;&gt;Node10</title>
<path fill="none" stroke="midnightblue" d="M710.96,-146.3C710.96,-137.3 710.96,-127.65 710.96,-119.51"/>
<polygon fill="midnightblue" stroke="midnightblue" points="707.46,-146.43 710.96,-156.43 714.46,-146.43 707.46,-146.43"/>
</g>
</g>
</svg>
